<svg xmlns="http://www.w3.org/2000/svg" xmlns:xlink="http://www.w3.org/1999/xlink" contentStyleType="text/css" data-diagram-type="ACTIVITY" height="427.0833px" preserveAspectRatio="none" style="width:326px;height:427px;" version="1.1" viewBox="0 0 326 427" width="326.0417px" zoomAndPan="magnify"><defs/><g><ellipse cx="105.0105" cy="20.8333" fill="#6CC3D5" rx="10.4167" ry="10.4167" style="stroke:#6CAF9C;stroke-width:1.0417;"/><rect fill="#86C8B5" height="37.4674" rx="4.1667" ry="4.1667" style="stroke:#78C2AD;stroke-width:1.0417;" width="42.686" x="83.6675" y="52.0833"/><text fill="#FFFFFF" font-family="Verdana" font-size="12.5" lengthAdjust="spacing" textLength="19.7693" x="95.1258" y="75.1444">init</text><polygon fill="#F4A1A4" points="81.0949,135.3516,128.9261,135.3516,141.4261,147.8516,128.9261,160.3516,81.0949,160.3516,68.5949,147.8516,81.0949,135.3516" style="stroke:#DB878B;stroke-width:1.0417;"/><text fill="#FFFFFF" font-family="Verdana" font-size="12.5" lengthAdjust="spacing" textLength="37.4146" x="86.3032" y="152.179">color?</text><text fill="#FF0000" font-family="Verdana" font-size="12.5" lengthAdjust="spacing" textLength="20.7642" x="42.6224" y="139.6952">red</text><rect fill="#86C8B5" height="37.4674" rx="4.1667" ry="4.1667" style="stroke:#78C2AD;stroke-width:1.0417;" width="77.0243" x="11.4583" y="170.7682"/><text fill="#FFFFFF" font-family="Verdana" font-size="12.5" lengthAdjust="spacing" textLength="54.1077" x="22.9167" y="193.8293">print red</text><path d="M231.6182,171.8099 L231.6182,185.3353 L210.7849,189.502 L231.6182,193.6686 L231.6182,207.194 A0,0 0 0 0 231.6182,207.194 L314.2334,207.194 A0,0 0 0 0 314.2334,207.194 L314.2334,182.2266 L303.8167,171.8099 L231.6182,171.8099 A0,0 0 0 0 231.6182,171.8099 " fill="#6CC3D5" style="stroke:#61B0C0;stroke-width:1.0417;"/><path d="M303.8167,171.8099 L303.8167,182.2266 L314.2334,182.2266 L303.8167,171.8099 " fill="#6CC3D5" style="stroke:#61B0C0;stroke-width:1.0417;"/><text fill="#FFFFFF" font-family="Verdana" font-size="12.5" lengthAdjust="spacing" textLength="50.3235" x="243.0766" y="193.8293">no color</text><rect fill="#86C8B5" height="37.4674" rx="4.1667" ry="4.1667" style="stroke:#78C2AD;stroke-width:1.0417;" width="101.4689" x="109.316" y="170.7682"/><text fill="#FFFFFF" font-family="Verdana" font-size="12.5" lengthAdjust="spacing" textLength="78.5522" x="120.7743" y="193.8293">print not red</text><polygon fill="#F4A1A4" points="105.0105,218.6523,117.5105,231.1523,105.0105,243.6523,92.5105,231.1523,105.0105,218.6523" style="stroke:#DB878B;stroke-width:1.0417;"/><rect fill="#FFFFFF" fill-opacity="0.00000" height="95.7682" rx="4.1667" ry="4.1667" style="stroke:#78C2AD;stroke-width:1.0417;" width="67.2974" x="71.3618" y="254.069"/><path d="M115.95,254.069 L115.95,271.7448 L105.5333,282.1615 L71.3618,282.1615 " fill="#FFFFFF" fill-opacity="0.00000" style="stroke:#78C2AD;stroke-width:1.0417;"/><text fill="#78C2AD" font-family="Verdana" font-size="12.5" lengthAdjust="spacing" textLength="23.7549" x="79.6951" y="271.9218">End</text><rect fill="#86C8B5" height="37.4674" rx="4.1667" ry="4.1667" style="stroke:#78C2AD;stroke-width:1.0417;" width="46.464" x="81.7785" y="299.8698"/><text fill="#FFFFFF" font-family="Verdana" font-size="12.5" lengthAdjust="spacing" textLength="23.5474" x="93.2368" y="322.9309">end</text><ellipse cx="105.0105" cy="406.0547" fill="#FFFFFF" fill-opacity="0.00000" rx="10.4167" ry="10.4167" style="stroke:#6CC3D5;stroke-width:1.5625;"/><line style="stroke:#6CC3D5;stroke-width:2.6042;" x1="98.5655" x2="111.4555" y1="399.6097" y2="412.4997"/><line style="stroke:#6CC3D5;stroke-width:2.6042;" x1="111.4555" x2="98.5655" y1="399.6097" y2="412.4997"/><line style="stroke:#78C2AD;stroke-width:3.125;" x1="105.0105" x2="105.0105" y1="31.25" y2="52.0833"/><polygon fill="#78C2AD" points="100.8438,41.6667,105.0105,52.0833,109.1771,41.6667,105.0105,45.8333" style="stroke:#78C2AD;stroke-width:1.0417;"/><line style="stroke:#78C2AD;stroke-width:3.125;" x1="68.5949" x2="49.9705" y1="147.8516" y2="147.8516"/><line style="stroke:#78C2AD;stroke-width:3.125;" x1="49.9705" x2="49.9705" y1="147.8516" y2="170.7682"/><polygon fill="#78C2AD" points="45.8038,160.3516,49.9705,170.7682,54.1372,160.3516,49.9705,164.5182" style="stroke:#78C2AD;stroke-width:1.0417;"/><line style="stroke:#78C2AD;stroke-width:3.125;" x1="141.4261" x2="160.0505" y1="147.8516" y2="147.8516"/><line style="stroke:#78C2AD;stroke-width:3.125;" x1="160.0505" x2="160.0505" y1="147.8516" y2="170.7682"/><polygon fill="#78C2AD" points="155.8838,160.3516,160.0505,170.7682,164.2171,160.3516,160.0505,164.5182" style="stroke:#78C2AD;stroke-width:1.0417;"/><line style="stroke:#78C2AD;stroke-width:3.125;" x1="49.9705" x2="49.9705" y1="208.2357" y2="231.1523"/><line style="stroke:#78C2AD;stroke-width:3.125;" x1="49.9705" x2="92.5105" y1="231.1523" y2="231.1523"/><polygon fill="#78C2AD" points="82.0938,226.9857,92.5105,231.1523,82.0938,235.319,86.2605,231.1523" style="stroke:#78C2AD;stroke-width:1.0417;"/><line style="stroke:#78C2AD;stroke-width:3.125;" x1="160.0505" x2="160.0505" y1="208.2357" y2="231.1523"/><line style="stroke:#78C2AD;stroke-width:3.125;" x1="160.0505" x2="117.5105" y1="231.1523" y2="231.1523"/><polygon fill="#78C2AD" points="127.9271,226.9857,117.5105,231.1523,127.9271,235.319,123.7605,231.1523" style="stroke:#78C2AD;stroke-width:1.0417;"/><line style="stroke:#78C2AD;stroke-width:3.125;" x1="105.0105" x2="105.0105" y1="89.5508" y2="135.3516"/><polygon fill="#78C2AD" points="100.8438,124.9349,105.0105,135.3516,109.1771,124.9349,105.0105,129.1016" style="stroke:#78C2AD;stroke-width:1.0417;"/><text fill="#FFFFFF" font-family="Verdana" font-size="12.5" lengthAdjust="spacing" textLength="74.7803" x="114.3855" y="112.9557">test of color</text><line style="stroke:#78C2AD;stroke-width:3.125;" x1="105.0105" x2="105.0105" y1="243.6523" y2="299.8698"/><polygon fill="#78C2AD" points="100.8438,289.4531,105.0105,299.8698,109.1771,289.4531,105.0105,293.6198" style="stroke:#78C2AD;stroke-width:1.0417;"/><line style="stroke:#78C2AD;stroke-width:3.125;" x1="105.0105" x2="105.0105" y1="337.3372" y2="395.638"/><polygon fill="#78C2AD" points="100.8438,385.2214,105.0105,395.638,109.1771,385.2214,105.0105,389.388" style="stroke:#78C2AD;stroke-width:1.0417;"/><text fill="#FFFFFF" font-family="Verdana" font-size="12.5" lengthAdjust="spacing" textLength="88.7756" x="114.3855" y="373.2422">this is the end</text></g></svg>