<svg xmlns="http://www.w3.org/2000/svg" xmlns:xlink="http://www.w3.org/1999/xlink" contentStyleType="text/css" data-diagram-type="CLASS" height="766.6667px" preserveAspectRatio="none" style="width:996px;height:766px;" version="1.1" viewBox="0 0 996 766" width="996.875px" zoomAndPan="magnify"><defs><linearGradient id="gbsrmoq6i2jdo0" x1="50%" x2="50%" y1="0%" y2="100%"><stop offset="0%" stop-color="#F18E3E"/><stop offset="100%" stop-color="#EC7211"/></linearGradient></defs><g><!--cluster foo_frame--><g id="cluster_foo_frame"><rect fill="#EEEEEE" height="110.4167" rx="4.1667" ry="4.1667" style="stroke:#0073BB;stroke-width:2.0833;" width="210.4167" x="705.7292" y="17.1875"/><path d="M796.9666,17.1875 L796.9666,34.8633 L786.5499,45.2799 L705.7292,45.2799 " fill="#FFFFFF" fill-opacity="0.00000" style="stroke:#0073BB;stroke-width:2.0833;"/><text fill="#0073BB" font-family="Verdana" font-size="12.5" font-weight="bold" lengthAdjust="spacing" textLength="70.4041" x="714.0625" y="35.0403">foo_frame</text></g><!--class AbstractList--><g id="elem_AbstractList"><rect codeLine="7" fill="url(#gbsrmoq6i2jdo0)" height="34.1715" id="AbstractList" rx="4.1667" ry="4.1667" style="stroke:#EC7211;stroke-width:1.0417;" width="109.7956" x="268.75" y="364.0625"/><rect fill="url(#gbsrmoq6i2jdo0)" height="34.1715" rx="4.1667" ry="4.1667" style="stroke:url(#gbsrmoq6i2jdo0);stroke-width:1.0417;" width="109.7956" x="268.75" y="364.0625"/><rect fill="url(#gbsrmoq6i2jdo0)" height="4.1667" style="stroke:url(#gbsrmoq6i2jdo0);stroke-width:1.0417;" width="109.7956" x="268.75" y="394.0674"/><rect codeLine="7" fill="#FFFFFF" fill-opacity="0.00000" height="34.1715" id="AbstractList" rx="4.1667" ry="4.1667" style="stroke:#EC7211;stroke-width:1.0417;" width="109.7956" x="268.75" y="364.0625"/><ellipse cx="283.3333" cy="381.1483" fill="#A9DCDF" rx="10.4167" ry="10.4167" style="stroke:#181818;stroke-width:1.0417;"/><path d="M282.9264,378.1047 L282.0801,381.8319 L283.7891,381.8319 L282.9264,378.1047 Z M281.8359,376.4608 L284.0332,376.4608 L286.4909,385.5754 L284.6842,385.5754 L284.1309,383.3293 L281.722,383.3293 L281.1686,385.5754 L279.362,385.5754 L281.8359,376.4608 Z " fill="#000000"/><text fill="#FFFFFF" font-family="Verdana" font-size="11.4583" font-style="italic" lengthAdjust="spacing" textLength="68.129" x="302.0833" y="385.1151">AbstractList</text></g><!--class AbstractCollection--><g id="elem_AbstractCollection"><rect codeLine="8" fill="url(#gbsrmoq6i2jdo0)" height="34.1715" id="AbstractCollection" rx="4.1667" ry="4.1667" style="stroke:#EC7211;stroke-width:1.0417;" width="146.4422" x="6.25" y="364.0625"/><rect fill="url(#gbsrmoq6i2jdo0)" height="34.1715" rx="4.1667" ry="4.1667" style="stroke:url(#gbsrmoq6i2jdo0);stroke-width:1.0417;" width="146.4422" x="6.25" y="364.0625"/><rect fill="url(#gbsrmoq6i2jdo0)" height="4.1667" style="stroke:url(#gbsrmoq6i2jdo0);stroke-width:1.0417;" width="146.4422" x="6.25" y="394.0674"/><rect codeLine="8" fill="#FFFFFF" fill-opacity="0.00000" height="34.1715" id="AbstractCollection" rx="4.1667" ry="4.1667" style="stroke:#EC7211;stroke-width:1.0417;" width="146.4422" x="6.25" y="364.0625"/><ellipse cx="20.8333" cy="381.1483" fill="#A9DCDF" rx="10.4167" ry="10.4167" style="stroke:#181818;stroke-width:1.0417;"/><path d="M20.4264,378.1047 L19.5801,381.8319 L21.2891,381.8319 L20.4264,378.1047 Z M19.3359,376.4608 L21.5332,376.4608 L23.9909,385.5754 L22.1842,385.5754 L21.6309,383.3293 L19.222,383.3293 L18.6686,385.5754 L16.862,385.5754 L19.3359,376.4608 Z " fill="#000000"/><text fill="#FFFFFF" font-family="Verdana" font-size="11.4583" font-style="italic" lengthAdjust="spacing" textLength="104.7755" x="39.5833" y="385.1151">AbstractCollection</text></g><!--class List--><g id="elem_List"><rect codeLine="9" fill="url(#gbsrmoq6i2jdo0)" height="34.1715" id="List" rx="4.1667" ry="4.1667" style="stroke:#EC7211;stroke-width:1.0417;" width="61.6964" x="252.0833" y="68.75"/><rect fill="url(#gbsrmoq6i2jdo0)" height="34.1715" rx="4.1667" ry="4.1667" style="stroke:url(#gbsrmoq6i2jdo0);stroke-width:1.0417;" width="61.6964" x="252.0833" y="68.75"/><rect fill="url(#gbsrmoq6i2jdo0)" height="4.1667" style="stroke:url(#gbsrmoq6i2jdo0);stroke-width:1.0417;" width="61.6964" x="252.0833" y="98.7549"/><rect codeLine="9" fill="#FFFFFF" fill-opacity="0.00000" height="34.1715" id="List" rx="4.1667" ry="4.1667" style="stroke:#EC7211;stroke-width:1.0417;" width="61.6964" x="252.0833" y="68.75"/><ellipse cx="266.6667" cy="85.8358" fill="#B4A7E5" rx="10.4167" ry="10.4167" style="stroke:#181818;stroke-width:1.0417;"/><path d="M263.5579,83.0037 L263.5579,81.4087 L268.9779,81.4087 L268.9779,83.0037 L267.1712,83.0037 L267.1712,88.9282 L268.9779,88.9282 L268.9779,90.5233 L263.5579,90.5233 L263.5579,88.9282 L265.3646,88.9282 L265.3646,83.0037 L263.5579,83.0037 Z " fill="#000000"/><text fill="#FFFFFF" font-family="Verdana" font-size="11.4583" font-style="italic" lengthAdjust="spacing" textLength="20.0297" x="285.4167" y="89.8026">List</text></g><!--class Collection--><g id="elem_Collection"><rect codeLine="10" fill="url(#gbsrmoq6i2jdo0)" height="34.1715" id="Collection" rx="4.1667" ry="4.1667" style="stroke:#EC7211;stroke-width:1.0417;" width="98.3429" x="51.5625" y="68.75"/><rect fill="url(#gbsrmoq6i2jdo0)" height="34.1715" rx="4.1667" ry="4.1667" style="stroke:url(#gbsrmoq6i2jdo0);stroke-width:1.0417;" width="98.3429" x="51.5625" y="68.75"/><rect fill="url(#gbsrmoq6i2jdo0)" height="4.1667" style="stroke:url(#gbsrmoq6i2jdo0);stroke-width:1.0417;" width="98.3429" x="51.5625" y="98.7549"/><rect codeLine="10" fill="#FFFFFF" fill-opacity="0.00000" height="34.1715" id="Collection" rx="4.1667" ry="4.1667" style="stroke:#EC7211;stroke-width:1.0417;" width="98.3429" x="51.5625" y="68.75"/><ellipse cx="66.1458" cy="85.8358" fill="#B4A7E5" rx="10.4167" ry="10.4167" style="stroke:#181818;stroke-width:1.0417;"/><path d="M63.0371,83.0037 L63.0371,81.4087 L68.457,81.4087 L68.457,83.0037 L66.6504,83.0037 L66.6504,88.9282 L68.457,88.9282 L68.457,90.5233 L63.0371,90.5233 L63.0371,88.9282 L64.8438,88.9282 L64.8438,83.0037 L63.0371,83.0037 Z " fill="#000000"/><text fill="#FFFFFF" font-family="Verdana" font-size="11.4583" font-style="italic" lengthAdjust="spacing" textLength="56.6762" x="84.8958" y="89.8026">Collection</text></g><!--class ArrayList--><g id="elem_ArrayList"><rect codeLine="20" fill="url(#gbsrmoq6i2jdo0)" height="98.348" id="ArrayList" rx="4.1667" ry="4.1667" style="stroke:#EC7211;stroke-width:1.0417;" width="147.4253" x="199.4792" y="661.4583"/><rect fill="url(#gbsrmoq6i2jdo0)" height="34.1715" rx="4.1667" ry="4.1667" style="stroke:url(#gbsrmoq6i2jdo0);stroke-width:1.0417;" width="147.4253" x="199.4792" y="661.4583"/><rect fill="url(#gbsrmoq6i2jdo0)" height="4.1667" style="stroke:url(#gbsrmoq6i2jdo0);stroke-width:1.0417;" width="147.4253" x="199.4792" y="691.4632"/><rect codeLine="20" fill="#FFFFFF" fill-opacity="0.00000" height="98.348" id="ArrayList" rx="4.1667" ry="4.1667" style="stroke:#EC7211;stroke-width:1.0417;" width="147.4253" x="199.4792" y="661.4583"/><ellipse cx="238.6623" cy="678.5441" fill="#ADD1B2" rx="10.4167" ry="10.4167" style="stroke:#181818;stroke-width:1.0417;"/><path d="M240.5666,682.9712 Q240.1434,683.1828 239.6714,683.2967 Q239.1994,683.4106 238.6948,683.4106 Q236.8393,683.4106 235.8628,682.2062 Q234.9025,680.9855 234.9025,678.6906 Q234.9025,676.3794 235.8628,675.175 Q236.8393,673.9543 238.6948,673.9543 Q239.1994,673.9543 239.6714,674.0682 Q240.1597,674.1659 240.5666,674.3937 L240.5666,676.3957 Q240.1108,675.9725 239.6714,675.7772 Q239.2319,675.5656 238.7762,675.5656 Q237.7834,675.5656 237.2788,676.3631 Q236.7742,677.1444 236.7742,678.6906 Q236.7742,680.2205 237.2788,681.0018 Q237.7834,681.783 238.7762,681.783 Q239.2319,681.783 239.6714,681.5877 Q240.1108,681.3924 240.5666,680.9692 L240.5666,682.9712 Z " fill="#000000"/><text fill="#FFFFFF" font-family="Verdana" font-size="11.4583" lengthAdjust="spacing" textLength="51.0925" x="262.8789" y="682.5109">ArrayList</text><line style="stroke:#EC7211;stroke-width:1.0417;" x1="200.5208" x2="345.8628" y1="695.6299" y2="695.6299"/><text fill="#FFFFFF" font-family="Verdana" font-size="11.4583" lengthAdjust="spacing" textLength="124.5087" x="210.9375" y="715.6408">Object[] elementData</text><line style="stroke:#EC7211;stroke-width:1.0417;" x1="200.5208" x2="345.8628" y1="727.7181" y2="727.7181"/><text fill="#FFFFFF" font-family="Verdana" font-size="11.4583" lengthAdjust="spacing" textLength="31.1579" x="210.9375" y="747.729">size()</text></g><!--class TimeUnit--><g id="elem_TimeUnit"><rect codeLine="25" fill="url(#gbsrmoq6i2jdo0)" height="113.7695" id="TimeUnit" rx="4.1667" ry="4.1667" style="stroke:#EC7211;stroke-width:1.0417;" width="93.3858" x="411.9792" y="29.1667"/><rect fill="url(#gbsrmoq6i2jdo0)" height="34.1715" rx="4.1667" ry="4.1667" style="stroke:url(#gbsrmoq6i2jdo0);stroke-width:1.0417;" width="93.3858" x="411.9792" y="29.1667"/><rect fill="url(#gbsrmoq6i2jdo0)" height="4.1667" style="stroke:url(#gbsrmoq6i2jdo0);stroke-width:1.0417;" width="93.3858" x="411.9792" y="59.1715"/><rect codeLine="25" fill="#FFFFFF" fill-opacity="0.00000" height="113.7695" id="TimeUnit" rx="4.1667" ry="4.1667" style="stroke:#EC7211;stroke-width:1.0417;" width="93.3858" x="411.9792" y="29.1667"/><ellipse cx="426.5625" cy="46.2524" fill="#EB937F" rx="10.4167" ry="10.4167" style="stroke:#181818;stroke-width:1.0417;"/><path d="M429.1016,50.9399 L423.4212,50.9399 L423.4212,41.8254 L429.1016,41.8254 L429.1016,43.4204 L425.2279,43.4204 L425.2279,45.3735 L428.7272,45.3735 L428.7272,46.9686 L425.2279,46.9686 L425.2279,49.3449 L429.1016,49.3449 L429.1016,50.9399 Z " fill="#000000"/><text fill="#FFFFFF" font-family="Verdana" font-size="11.4583" lengthAdjust="spacing" textLength="51.7192" x="445.3125" y="50.2192">TimeUnit</text><line style="stroke:#EC7211;stroke-width:1.0417;" x1="413.0208" x2="504.3233" y1="63.3382" y2="63.3382"/><text fill="#FFFFFF" font-family="Verdana" font-size="11.4583" lengthAdjust="spacing" textLength="30.9341" x="423.4375" y="83.3491">DAYS</text><text fill="#FFFFFF" font-family="Verdana" font-size="11.4583" lengthAdjust="spacing" textLength="41.2567" x="423.4375" y="107.104">HOURS</text><text fill="#FFFFFF" font-family="Verdana" font-size="11.4583" lengthAdjust="spacing" textLength="51.7359" x="423.4375" y="130.8589">MINUTES</text></g><!--class SuppressWarnings--><g id="elem_SuppressWarnings"><rect codeLine="31" fill="url(#gbsrmoq6i2jdo0)" height="34.1715" id="SuppressWarnings" rx="4.1667" ry="4.1667" style="stroke:#EC7211;stroke-width:1.0417;" width="148.4619" x="366.6667" y="693.2292"/><rect fill="url(#gbsrmoq6i2jdo0)" height="34.1715" rx="4.1667" ry="4.1667" style="stroke:url(#gbsrmoq6i2jdo0);stroke-width:1.0417;" width="148.4619" x="366.6667" y="693.2292"/><rect fill="url(#gbsrmoq6i2jdo0)" height="4.1667" style="stroke:url(#gbsrmoq6i2jdo0);stroke-width:1.0417;" width="148.4619" x="366.6667" y="723.234"/><rect codeLine="31" fill="#FFFFFF" fill-opacity="0.00000" height="34.1715" id="SuppressWarnings" rx="4.1667" ry="4.1667" style="stroke:#EC7211;stroke-width:1.0417;" width="148.4619" x="366.6667" y="693.2292"/><ellipse cx="381.25" cy="710.3149" fill="#E3664A" rx="10.4167" ry="10.4167" style="stroke:#181818;stroke-width:1.0417;"/><path d="M382.5033,710.1196 Q382.5033,709.4198 382.194,709.0291 Q381.8848,708.6385 381.3314,708.6385 Q380.7943,708.6385 380.485,709.0291 Q380.1758,709.4198 380.1758,710.1196 Q380.1758,710.8032 380.485,711.1938 Q380.7943,711.5845 381.3314,711.5845 Q381.8848,711.5845 382.194,711.1938 Q382.5033,710.8032 382.5033,710.1196 Z M383.6426,712.6099 L382.4382,712.6099 L382.4382,712.1216 Q382.2103,712.4308 381.8848,712.5936 Q381.5755,712.7401 381.1361,712.7401 Q380.1432,712.7401 379.5247,712.0239 Q378.9063,711.2915 378.9063,710.1196 Q378.9063,708.9315 379.5085,708.2153 Q380.127,707.4992 381.1361,707.4992 Q381.5755,707.4992 381.901,707.6457 Q382.2266,707.7922 382.4382,708.0851 L382.4382,707.841 Q382.4382,707.0109 381.9824,706.5552 Q381.5267,706.0994 380.6966,706.0994 Q379.4271,706.0994 378.6133,707.2225 Q377.8158,708.3293 377.8158,710.1196 Q377.8158,711.9914 378.7435,713.1144 Q379.6712,714.2212 381.2174,714.2212 Q381.7057,714.2212 382.1615,714.0747 Q382.6172,713.9282 383.0404,713.6353 L383.5938,714.7095 Q383.1055,715.0513 382.5195,715.214 Q381.9336,715.3931 381.2826,715.3931 Q379.1341,715.3931 377.8646,713.9608 Q376.5951,712.5448 376.5951,710.1196 Q376.5951,707.7596 377.7344,706.3436 Q378.89,704.9276 380.7617,704.9276 Q382.0964,704.9276 382.8613,705.7251 Q383.6426,706.5226 383.6426,707.9224 L383.6426,712.6099 Z " fill="#000000"/><text fill="#FFFFFF" font-family="Verdana" font-size="11.4583" lengthAdjust="spacing" textLength="106.7952" x="400" y="714.2817">SuppressWarnings</text></g><!--class Annotation--><g id="elem_Annotation"><rect codeLine="33" fill="url(#gbsrmoq6i2jdo0)" height="147.0703" id="Annotation" rx="4.1667" ry="4.1667" style="stroke:#EC7211;stroke-width:1.0417;" width="170.9071" x="524.4792" y="12.5"/><rect fill="url(#gbsrmoq6i2jdo0)" height="59.139" rx="4.1667" ry="4.1667" style="stroke:url(#gbsrmoq6i2jdo0);stroke-width:1.0417;" width="170.9071" x="524.4792" y="12.5"/><rect fill="url(#gbsrmoq6i2jdo0)" height="4.1667" style="stroke:url(#gbsrmoq6i2jdo0);stroke-width:1.0417;" width="170.9071" x="524.4792" y="67.4723"/><rect codeLine="33" fill="#FFFFFF" fill-opacity="0.00000" height="147.0703" id="Annotation" rx="4.1667" ry="4.1667" style="stroke:#EC7211;stroke-width:1.0417;" width="170.9071" x="524.4792" y="12.5"/><ellipse cx="561.7751" cy="42.0695" fill="#E3664A" rx="10.4167" ry="10.4167" style="stroke:#181818;stroke-width:1.0417;"/><path d="M563.0284,41.8742 Q563.0284,41.1743 562.7191,40.7837 Q562.4099,40.3931 561.8565,40.3931 Q561.3194,40.3931 561.0102,40.7837 Q560.7009,41.1743 560.7009,41.8742 Q560.7009,42.5578 561.0102,42.9484 Q561.3194,43.339 561.8565,43.339 Q562.4099,43.339 562.7191,42.9484 Q563.0284,42.5578 563.0284,41.8742 Z M564.1677,44.3644 L562.9633,44.3644 L562.9633,43.8761 Q562.7354,44.1854 562.4099,44.3481 Q562.1007,44.4946 561.6612,44.4946 Q560.6684,44.4946 560.0499,43.7785 Q559.4314,43.0461 559.4314,41.8742 Q559.4314,40.686 560.0336,39.9699 Q560.6521,39.2537 561.6612,39.2537 Q562.1007,39.2537 562.4262,39.4002 Q562.7517,39.5467 562.9633,39.8397 L562.9633,39.5955 Q562.9633,38.7655 562.5076,38.3097 Q562.0518,37.854 561.2217,37.854 Q559.9522,37.854 559.1384,38.9771 Q558.3409,40.0838 558.3409,41.8742 Q558.3409,43.7459 559.2686,44.869 Q560.1964,45.9757 561.7426,45.9757 Q562.2309,45.9757 562.6866,45.8293 Q563.1423,45.6828 563.5655,45.3898 L564.1189,46.464 Q563.6306,46.8058 563.0447,46.9686 Q562.4587,47.1476 561.8077,47.1476 Q559.6592,47.1476 558.3897,45.7153 Q557.1202,44.2993 557.1202,41.8742 Q557.1202,39.5142 558.2595,38.0981 Q559.4151,36.6821 561.2868,36.6821 Q562.6215,36.6821 563.3865,37.4797 Q564.1677,38.2772 564.1677,39.6769 L564.1677,44.3644 Z " fill="#000000"/><text fill="#4E5D6C" font-family="Verdana" font-size="12.5" font-style="italic" lengthAdjust="spacing" textLength="82.9346" x="583.489" y="34.5194">&#171;stereotype&#187;</text><text fill="#FFFFFF" font-family="Verdana" font-size="11.4583" lengthAdjust="spacing" textLength="62.8362" x="593.5382" y="58.52">Annotation</text><line style="stroke:#EC7211;stroke-width:1.0417;" x1="525.5208" x2="694.3446" y1="71.639" y2="71.639"/><text fill="#FFFFFF" font-family="Verdana" font-size="11.4583" lengthAdjust="spacing" textLength="147.9904" x="535.9375" y="91.6499">annotation with members</text><line style="stroke:#EC7211;stroke-width:1.0417;" x1="525.5208" x2="694.3446" y1="103.7272" y2="103.7272"/><text fill="#FFFFFF" font-family="Verdana" font-size="11.4583" lengthAdjust="spacing" textLength="64.8336" x="535.9375" y="123.7381">String foo()</text><text fill="#FFFFFF" font-family="Verdana" font-size="11.4583" lengthAdjust="spacing" textLength="65.7847" x="535.9375" y="147.493">String bar()</text></g><!--class Dummy--><g id="elem_Dummy"><rect codeLine="39" fill="url(#gbsrmoq6i2jdo0)" height="193.3675" id="Dummy" rx="4.1667" ry="4.1667" style="stroke:#EC7211;stroke-width:1.0417;" width="123.5092" x="396.875" y="284.375"/><rect fill="url(#gbsrmoq6i2jdo0)" height="34.1715" rx="4.1667" ry="4.1667" style="stroke:url(#gbsrmoq6i2jdo0);stroke-width:1.0417;" width="123.5092" x="396.875" y="284.375"/><rect fill="url(#gbsrmoq6i2jdo0)" height="4.1667" style="stroke:url(#gbsrmoq6i2jdo0);stroke-width:1.0417;" width="123.5092" x="396.875" y="314.3799"/><rect codeLine="39" fill="#FFFFFF" fill-opacity="0.00000" height="193.3675" id="Dummy" rx="4.1667" ry="4.1667" style="stroke:#EC7211;stroke-width:1.0417;" width="123.5092" x="396.875" y="284.375"/><ellipse cx="427.952" cy="301.4608" fill="#ADD1B2" rx="10.4167" ry="10.4167" style="stroke:#181818;stroke-width:1.0417;"/><path d="M429.8563,305.8879 Q429.4331,306.0994 428.9611,306.2134 Q428.4891,306.3273 427.9846,306.3273 Q426.1291,306.3273 425.1525,305.1229 Q424.1923,303.9022 424.1923,301.6073 Q424.1923,299.2961 425.1525,298.0916 Q426.1291,296.8709 427.9846,296.8709 Q428.4891,296.8709 428.9611,296.9849 Q429.4494,297.0825 429.8563,297.3104 L429.8563,299.3123 Q429.4006,298.8892 428.9611,298.6938 Q428.5217,298.4823 428.0659,298.4823 Q427.0731,298.4823 426.5686,299.2798 Q426.064,300.061 426.064,301.6073 Q426.064,303.1372 426.5686,303.9185 Q427.0731,304.6997 428.0659,304.6997 Q428.5217,304.6997 428.9611,304.5044 Q429.4006,304.3091 429.8563,303.8859 L429.8563,305.8879 Z " fill="#000000"/><text fill="#FFFFFF" font-family="Verdana" font-size="11.4583" lengthAdjust="spacing" textLength="45.1899" x="450.3673" y="305.4276">Dummy</text><line style="stroke:#EC7211;stroke-width:1.0417;" x1="397.9167" x2="519.3425" y1="318.5465" y2="318.5465"/><rect fill="#FFFFFF" fill-opacity="0.00000" height="6.25" style="stroke:#C82930;stroke-width:1.0417;" width="6.25" x="405.2083" y="333.0282"/><text fill="#FFFFFF" font-family="Verdana" font-size="11.4583" lengthAdjust="spacing" textLength="32.014" x="421.875" y="338.5574">field1</text><polygon fill="#FFFFFF" fill-opacity="0.00000" points="408.3333,354.6997,412.5,358.8664,408.3333,363.033,404.1667,358.8664" style="stroke:#B38D22;stroke-width:1.0417;"/><text fill="#FFFFFF" font-family="Verdana" font-size="11.4583" lengthAdjust="spacing" textLength="32.014" x="421.875" y="362.3123">field2</text><text fill="#FFFFFF" font-family="Verdana" font-size="11.4583" lengthAdjust="spacing" text-decoration="underline" textLength="48.2951" x="421.875" y="386.0672">String id</text><line style="stroke:#EC7211;stroke-width:1.0417;" x1="397.9167" x2="519.3425" y1="398.1445" y2="398.1445"/><polygon fill="#FFFFFF" fill-opacity="0.00000" points="408.3333,411.5845,404.1667,417.8345,412.5,417.8345" style="stroke:#4E5D6C;stroke-width:1.0417;"/><text fill="#FFFFFF" font-family="Verdana" font-size="11.4583" lengthAdjust="spacing" textLength="60.4808" x="421.875" y="418.1554">method1()</text><ellipse cx="408.3333" cy="439.506" fill="#84BE84" rx="3.125" ry="3.125" style="stroke:#038048;stroke-width:1.0417;"/><text fill="#FFFFFF" font-family="Verdana" font-size="11.4583" lengthAdjust="spacing" textLength="60.4808" x="421.875" y="441.9103">method2()</text><text fill="#FFFFFF" font-family="Verdana" font-size="11.4583" font-style="italic" lengthAdjust="spacing" textLength="87.0509" x="421.875" y="465.6652">void methods()</text></g><g id="elem_N1"><path d="M9.8958,696.875 L9.8958,723.9258 A4.1667,4.1667 0 0 0 14.0625,728.0924 L172.6766,728.0924 A4.1667,4.1667 0 0 0 176.8433,723.9258 L176.8433,703.125 L166.4266,692.7083 L14.0625,692.7083 A4.1667,4.1667 0 0 0 9.8958,696.875 " fill="#0073BB" style="stroke:#005C96;stroke-width:1.0417;"/><path d="M166.4266,692.7083 L166.4266,701.0417 A2.0833,2.0833 0 0 0 168.5099,703.125 L176.8433,703.125 L166.4266,692.7083 " fill="#0073BB" style="stroke:#005C96;stroke-width:1.0417;"/><text fill="#FFFFFF" font-family="Verdana" font-size="12.5" lengthAdjust="spacing" textLength="134.6558" x="21.3542" y="714.7278">This is a floating note</text></g><!--class Element--><g id="elem_Element"><rect fill="url(#gbsrmoq6i2jdo0)" height="34.1715" id="Element" rx="4.1667" ry="4.1667" style="stroke:#EC7211;stroke-width:1.0417;" width="89.1057" x="766.1458" y="364.0625"/><rect fill="url(#gbsrmoq6i2jdo0)" height="34.1715" rx="4.1667" ry="4.1667" style="stroke:url(#gbsrmoq6i2jdo0);stroke-width:1.0417;" width="89.1057" x="766.1458" y="364.0625"/><rect fill="url(#gbsrmoq6i2jdo0)" height="4.1667" style="stroke:url(#gbsrmoq6i2jdo0);stroke-width:1.0417;" width="89.1057" x="766.1458" y="394.0674"/><rect fill="#FFFFFF" fill-opacity="0.00000" height="34.1715" id="Element" rx="4.1667" ry="4.1667" style="stroke:#EC7211;stroke-width:1.0417;" width="89.1057" x="766.1458" y="364.0625"/><ellipse cx="780.7292" cy="381.1483" fill="#ADD1B2" rx="10.4167" ry="10.4167" style="stroke:#181818;stroke-width:1.0417;"/><path d="M782.6335,385.5754 Q782.2103,385.7869 781.7383,385.9009 Q781.2663,386.0148 780.7617,386.0148 Q778.9063,386.0148 777.9297,384.8104 Q776.9694,383.5897 776.9694,381.2948 Q776.9694,378.9836 777.9297,377.7791 Q778.9063,376.5584 780.7617,376.5584 Q781.2663,376.5584 781.7383,376.6724 Q782.2266,376.77 782.6335,376.9979 L782.6335,378.9998 Q782.1777,378.5767 781.7383,378.3813 Q781.2988,378.1698 780.8431,378.1698 Q779.8503,378.1698 779.3457,378.9673 Q778.8411,379.7485 778.8411,381.2948 Q778.8411,382.8247 779.3457,383.606 Q779.8503,384.3872 780.8431,384.3872 Q781.2988,384.3872 781.7383,384.1919 Q782.1777,383.9966 782.6335,383.5734 L782.6335,385.5754 Z " fill="#000000"/><text fill="#FFFFFF" font-family="Verdana" font-size="11.4583" lengthAdjust="spacing" textLength="47.4391" x="799.4792" y="385.1151">Element</text></g><g id="elem_Elementlol26"><ellipse cx="807.8125" cy="703.125" fill="#F1F1F1" rx="5.2083" ry="5.2083" style="stroke:#181818;stroke-width:1.5625;"/></g><text fill="#000000" font-family="Verdana" font-size="12.5" lengthAdjust="spacing" textLength="55.7495" x="779.9377" y="725.1444">interface</text><g id="elem_GMN31"><path d="M875,367.7083 L875,377.0833 L856.1646,381.25 L875,385.4167 L875,394.7591 A4.1667,4.1667 0 0 0 879.1667,398.9258 L986.3953,398.9258 A4.1667,4.1667 0 0 0 990.5619,394.7591 L990.5619,373.9583 L980.1453,363.5417 L879.1667,363.5417 A4.1667,4.1667 0 0 0 875,367.7083 " fill="#0073BB" style="stroke:#005C96;stroke-width:1.0417;"/><path d="M980.1453,363.5417 L980.1453,371.875 A2.0833,2.0833 0 0 0 982.2286,373.9583 L990.5619,373.9583 L980.1453,363.5417 " fill="#0073BB" style="stroke:#005C96;stroke-width:1.0417;"/><text fill="#FFFFFF" font-family="Verdana" font-size="12.5" lengthAdjust="spacing" textLength="83.2703" x="886.4583" y="385.5611">This is a note</text></g><!--class User--><g id="elem_User"><rect codeLine="69" fill="url(#gbsrmoq6i2jdo0)" height="312.4837" id="User" rx="4.1667" ry="4.1667" style="stroke:#EC7211;stroke-width:1.0417;" width="115.3554" x="539.5833" y="225"/><rect fill="url(#gbsrmoq6i2jdo0)" height="73.6898" rx="4.1667" ry="4.1667" style="stroke:url(#gbsrmoq6i2jdo0);stroke-width:1.0417;" width="115.3554" x="539.5833" y="225"/><rect fill="url(#gbsrmoq6i2jdo0)" height="4.1667" style="stroke:url(#gbsrmoq6i2jdo0);stroke-width:1.0417;" width="115.3554" x="539.5833" y="294.5231"/><rect codeLine="69" fill="#FFFFFF" fill-opacity="0.00000" height="312.4837" id="User" rx="4.1667" ry="4.1667" style="stroke:#EC7211;stroke-width:1.0417;" width="115.3554" x="539.5833" y="225"/><ellipse cx="564.6334" cy="261.8449" fill="#ADD1B2" rx="10.4167" ry="10.4167" style="stroke:#181818;stroke-width:1.0417;"/><path d="M566.5377,266.272 Q566.1146,266.4836 565.6425,266.5975 Q565.1705,266.7114 564.666,266.7114 Q562.8105,266.7114 561.834,265.507 Q560.8737,264.2863 560.8737,261.9914 Q560.8737,259.6802 561.834,258.4757 Q562.8105,257.255 564.666,257.255 Q565.1705,257.255 565.6425,257.369 Q566.1308,257.4666 566.5377,257.6945 L566.5377,259.6965 Q566.082,259.2733 565.6425,259.078 Q565.2031,258.8664 564.7474,258.8664 Q563.7545,258.8664 563.25,259.6639 Q562.7454,260.4451 562.7454,261.9914 Q562.7454,263.5213 563.25,264.3026 Q563.7545,265.0838 564.7474,265.0838 Q565.2031,265.0838 565.6425,264.8885 Q566.082,264.6932 566.5377,264.27 L566.5377,266.272 Z " fill="#000000"/><text fill="#4E5D6C" font-family="Verdana" font-size="12.5" font-style="italic" lengthAdjust="spacing" textLength="42.6941" x="589.577" y="247.0194">&#171;user&#187;</text><text fill="#4E5D6C" font-family="Verdana" font-size="12.5" font-style="italic" lengthAdjust="spacing" textLength="54.5959" x="583.626" y="261.5702">&#171;admin&#187;</text><text fill="#FFFFFF" font-family="Verdana" font-size="11.4583" lengthAdjust="spacing" textLength="26.1169" x="597.8655" y="285.5708">User</text><line style="stroke:#EC7211;stroke-width:1.0417;" x1="540.625" x2="653.8971" y1="298.6898" y2="298.6898"/><ellipse cx="551.0417" cy="344.2179" fill="#84BE84" rx="3.125" ry="3.125" style="stroke:#038048;stroke-width:1.0417;"/><text fill="#FFFFFF" font-family="Verdana" font-size="11.4583" lengthAdjust="spacing" textLength="61.5606" x="564.5833" y="346.6222">getName()</text><ellipse cx="551.0417" cy="367.9728" fill="#84BE84" rx="3.125" ry="3.125" style="stroke:#038048;stroke-width:1.0417;"/><text fill="#FFFFFF" font-family="Verdana" font-size="11.4583" lengthAdjust="spacing" textLength="73.8413" x="564.5833" y="370.3771">getAddress()</text><line style="stroke:#EC7211;stroke-width:1.0417;stroke-dasharray:1.0,2.0;" x1="540.625" x2="552.3318" y1="318.9006" y2="318.9006"/><text fill="#FFFFFF" font-family="Verdana" font-size="11.4583" lengthAdjust="spacing" textLength="79.4418" x="557.5401" y="322.3465">Simple Getter</text><line style="stroke:#EC7211;stroke-width:1.0417;stroke-dasharray:1.0,2.0;" x1="642.1903" x2="653.8971" y1="318.9006" y2="318.9006"/><ellipse cx="551.0417" cy="419.6493" fill="#84BE84" rx="3.125" ry="3.125" style="stroke:#038048;stroke-width:1.0417;"/><text fill="#FFFFFF" font-family="Verdana" font-size="11.4583" lengthAdjust="spacing" textLength="60.257" x="564.5833" y="422.0535">setName()</text><line style="stroke:#EC7211;stroke-width:1.0417;stroke-dasharray:1.0,2.0;" x1="540.625" x2="557.1014" y1="394.3319" y2="394.3319"/><text fill="#FFFFFF" font-family="Verdana" font-size="11.4583" lengthAdjust="spacing" textLength="69.9025" x="562.3098" y="397.7778">Some setter</text><line style="stroke:#EC7211;stroke-width:1.0417;stroke-dasharray:1.0,2.0;" x1="637.4207" x2="653.8971" y1="394.3319" y2="394.3319"/><text fill="#FFFFFF" font-family="Verdana" font-size="11.4583" lengthAdjust="spacing" textLength="39.9251" x="551.0417" y="473.73">int age</text><line style="stroke:#EC7211;stroke-width:1.0417;" x1="540.625" x2="557.0707" y1="446.0083" y2="446.0083"/><text fill="#FFFFFF" font-family="Verdana" font-size="11.4583" lengthAdjust="spacing" textLength="69.9641" x="562.279" y="449.4542">private data</text><line style="stroke:#EC7211;stroke-width:1.0417;" x1="637.4514" x2="653.8971" y1="446.0083" y2="446.0083"/><text fill="#FFFFFF" font-family="Verdana" font-size="11.4583" lengthAdjust="spacing" textLength="92.4388" x="551.0417" y="525.4064">String password</text><line style="stroke:#EC7211;stroke-width:1.0417;" x1="540.625" x2="562.9565" y1="497.6847" y2="497.6847"/><text fill="#FFFFFF" font-family="Verdana" font-size="11.4583" lengthAdjust="spacing" textLength="58.1924" x="568.1648" y="501.1307">encrypted</text><line style="stroke:#EC7211;stroke-width:1.0417;" x1="631.5656" x2="653.8971" y1="497.6847" y2="497.6847"/></g><!--class Foo--><g id="elem_Foo"><rect codeLine="54" fill="url(#gbsrmoq6i2jdo0)" height="66.2598" id="Foo" rx="4.1667" ry="4.1667" style="stroke:#EC7211;stroke-width:1.0417;" width="193.2434" x="714.0625" y="52.6042"/><rect fill="url(#gbsrmoq6i2jdo0)" height="34.1715" rx="4.1667" ry="4.1667" style="stroke:url(#gbsrmoq6i2jdo0);stroke-width:1.0417;" width="193.2434" x="714.0625" y="52.6042"/><rect fill="url(#gbsrmoq6i2jdo0)" height="4.1667" style="stroke:url(#gbsrmoq6i2jdo0);stroke-width:1.0417;" width="193.2434" x="714.0625" y="82.609"/><rect codeLine="54" fill="#FFFFFF" fill-opacity="0.00000" height="66.2598" id="Foo" rx="4.1667" ry="4.1667" style="stroke:#EC7211;stroke-width:1.0417;" width="193.2434" x="714.0625" y="52.6042"/><ellipse cx="728.6458" cy="69.6899" fill="#ADD1B2" rx="10.4167" ry="10.4167" style="stroke:#181818;stroke-width:1.0417;"/><path d="M730.5501,74.117 Q730.127,74.3286 729.6549,74.4425 Q729.1829,74.5565 728.6784,74.5565 Q726.8229,74.5565 725.8464,73.3521 Q724.8861,72.1313 724.8861,69.8364 Q724.8861,67.5252 725.8464,66.3208 Q726.8229,65.1001 728.6784,65.1001 Q729.1829,65.1001 729.6549,65.214 Q730.1432,65.3117 730.5501,65.5396 L730.5501,67.5415 Q730.0944,67.1183 729.6549,66.923 Q729.2155,66.7114 728.7598,66.7114 Q727.7669,66.7114 727.2624,67.509 Q726.7578,68.2902 726.7578,69.8364 Q726.7578,71.3664 727.2624,72.1476 Q727.7669,72.9289 728.7598,72.9289 Q729.2155,72.9289 729.6549,72.7336 Q730.0944,72.5382 730.5501,72.1151 L730.5501,74.117 Z " fill="#000000"/><text fill="#FFFFFF" font-family="Verdana" font-size="11.4583" lengthAdjust="spacing" textLength="20.6116" x="747.3958" y="73.6567">Foo</text><rect fill="url(#gbsrmoq6i2jdo0)" height="27.0508" style="stroke:#EC7211;stroke-width:1.0417;stroke-dasharray:2.0,2.0;" width="128.8818" x="781.5491" y="49.4792"/><text fill="#4E5D6C" font-family="Verdana" font-size="12.5" font-style="italic" lengthAdjust="spacing" textLength="116.3818" x="787.7991" y="67.3319">? extends Element</text><line style="stroke:#EC7211;stroke-width:1.0417;" x1="715.1042" x2="906.2642" y1="86.7757" y2="86.7757"/><text fill="#FFFFFF" font-family="Verdana" font-size="11.4583" lengthAdjust="spacing" textLength="53.3808" x="725.5208" y="106.7866">int si ze()</text></g><polygon fill="#FFFFFF" fill-opacity="0.00000" points="285.0545,103.1621,281.4368,122.5924,293.8185,120.877,285.0545,103.1621" style="stroke:#EC7211;stroke-width:1.0417;"/><path d="M287.6277,121.7347 C294.7137,172.8816 314.0066,312.1367 321.1523,363.7139 " fill="#FFFFFF" fill-opacity="0.00000" style="stroke:#EC7211;stroke-width:3.125;"/><text fill="#4E5D6C" font-family="Verdana" font-size="12.5" lengthAdjust="spacing" textLength="72.7478" x="305.7292" y="197.0194">AList to List</text><polygon fill="#FFFFFF" fill-opacity="0.00000" points="99.3711,103.1621,91.808,121.422,104.2766,122.3079,99.3711,103.1621" style="stroke:#EC7211;stroke-width:1.0417;"/><path d="M98.0423,121.865 C94.4084,173.0118 84.5239,312.1367 80.8594,363.7139 " fill="#FFFFFF" fill-opacity="0.00000" style="stroke:#EC7211;stroke-width:3.125;"/><text fill="#4E5D6C" font-family="Verdana" font-size="12.5" lengthAdjust="spacing" textLength="75.6897" x="101.5625" y="197.0194">AColl to Coll</text><text fill="#4E5D6C" font-family="Verdana" font-size="12.5" lengthAdjust="spacing" textLength="35.1563" x="40.2344" y="355.525">many</text><text fill="#4E5D6C" font-family="Verdana" font-size="12.5" lengthAdjust="spacing" textLength="35.1563" x="58.7461" y="121.0149">many</text><polygon fill="#FFFFFF" fill-opacity="0.00000" points="149.8516,85.9375,168.6016,92.1875,168.6016,79.6875,149.8516,85.9375" style="stroke:#EC7211;stroke-width:1.0417;"/><path d="M168.6016,85.9375 C201.1833,85.9375 224.1163,85.9375 252.0479,85.9375 " fill="#FFFFFF" fill-opacity="0.00000" style="stroke:#EC7211;stroke-width:3.125;"/><text fill="#4E5D6C" font-family="Verdana" font-size="12.5" lengthAdjust="spacing" textLength="65.6677" x="167.9688" y="73.5819">List to Coll</text><polygon fill="#FFFFFF" fill-opacity="0.00000" points="153.1511,381.25,171.9011,387.5,171.9011,375,153.1511,381.25" style="stroke:#EC7211;stroke-width:1.0417;"/><path d="M171.9011,381.25 C209.0479,381.25 234.6095,381.25 268.718,381.25 " fill="#FFFFFF" fill-opacity="0.00000" style="stroke:#EC7211;stroke-width:3.125;"/><text fill="#4E5D6C" font-family="Verdana" font-size="12.5" lengthAdjust="spacing" textLength="82.7698" x="169.7917" y="368.8944">AList to AColl</text><polygon fill="#FFFFFF" fill-opacity="0.00000" points="320.958,398.5118,311.9464,416.102,324.3029,417.9909,320.958,398.5118" style="stroke:#EC7211;stroke-width:1.0417;"/><path d="M318.1247,417.0465 C310.8535,464.6119 292.2136,586.5479 280.786,661.3036 " fill="#FFFFFF" fill-opacity="0.00000" style="stroke:#EC7211;stroke-width:3.125;"/><text fill="#4E5D6C" font-family="Verdana" font-size="12.5" lengthAdjust="spacing" textLength="86.438" x="314.7573" y="574.1028">ArList to AList</text><path d="M301.5625,592.6758 L301.5625,633.3008 A4.1667,4.1667 0 0 0 305.7292,637.4674 L409.8958,637.4674 A4.1667,4.1667 0 0 0 414.0625,633.3008 L414.0625,598.9258 L403.6458,588.5091 L305.7292,588.5091 A4.1667,4.1667 0 0 0 301.5625,592.6758 " fill="#0073BB" style="stroke:#005C96;stroke-width:1.0417;"/><path d="M403.6458,588.5091 L403.6458,596.8424 A2.0833,2.0833 0 0 0 405.7292,598.9258 L414.0625,598.9258 L403.6458,588.5091 " fill="#0073BB" style="stroke:#005C96;stroke-width:1.0417;"/><text fill="#FFFFFF" font-family="Verdana" font-size="12.5" lengthAdjust="spacing" textLength="80.5359" x="313.0208" y="610.5286">this is a note</text><text fill="#FFFFFF" font-family="Verdana" font-size="12.5" lengthAdjust="spacing" textLength="41.6504" x="313.0208" y="625.0793">on link</text><polygon fill="#EC7211" points="347.465,710.4167,356.84,714.5833,352.6733,710.4167,356.84,706.25,347.465,710.4167" style="stroke:#EC7211;stroke-width:1.0417;"/><ellipse cx="358.1606" cy="710.4167" fill="#FFFFFF" fill-opacity="0.00000" rx="8.3333" ry="8.3333" style="stroke:#EC7211;stroke-width:1.0417;"/><line style="stroke:#EC7211;stroke-width:1.0417;" x1="349.8273" x2="366.4939" y1="710.4167" y2="710.4167"/><line style="stroke:#EC7211;stroke-width:1.0417;" x1="358.1606" x2="358.1606" y1="702.0833" y2="718.75"/><path d="M353.715,710.4167 C360.058,710.4167 343.4843,710.4167 349.8273,710.4167 " fill="#FFFFFF" fill-opacity="0.00000" style="stroke:#EC7211;stroke-width:3.125;"/><polygon fill="#EC7211" points="80.359,398.5118,76.5837,408.0511,80.5745,403.7157,84.9099,407.7064,80.359,398.5118" style="stroke:#EC7211;stroke-width:1.0417;"/><rect fill="#FFFFFF" fill-opacity="0.00000" height="10.4167" style="stroke:#EC7211;stroke-width:1.5625;" width="10.4167" x="87.3291" y="687.4589"/><path d="M80.6176,404.7564 C82.9177,460.3139 89.9914,631.1711 92.322,687.4633 " fill="#FFFFFF" fill-opacity="0.00000" style="stroke:#EC7211;stroke-width:3.125;"/><polygon fill="#EC7211" points="199.3314,710.4167,189.9564,706.25,194.1231,710.4167,189.9564,714.5833,199.3314,710.4167" style="stroke:#EC7211;stroke-width:1.0417;"/><path d="M176.6459,710.4167 C184.2078,710.4167 185.5196,710.4167 193.0814,710.4167 " fill="#FFFFFF" fill-opacity="0.00000" style="stroke:#EC7211;stroke-width:3.125;"/><polygon fill="#EC7211" points="810.9375,119.4802,806.7708,125.7302,810.9375,131.9802,815.1042,125.7302,810.9375,119.4802" style="stroke:#EC7211;stroke-width:1.0417;"/><path d="M810.9375,131.9802 C810.9375,194.6076 810.9375,317.4342 810.9375,364.0451 " fill="#FFFFFF" fill-opacity="0.00000" style="stroke:#EC7211;stroke-width:3.125;"/><path d="M810.9375,398.5118 C810.9375,455.8739 810.9375,648.3523 810.9375,697.7452 " fill="#FFFFFF" fill-opacity="0.00000" style="stroke:#EC7211;stroke-width:3.125;"/></g></svg>