<svg xmlns="http://www.w3.org/2000/svg" xmlns:xlink="http://www.w3.org/1999/xlink" contentStyleType="text/css" height="518px" preserveAspectRatio="none" style="width:848px;height:518px;background:#777777;" version="1.1" viewBox="0 0 848 518" width="848px" zoomAndPan="magnify"><defs/><g><rect fill="#777777" height="518" style="stroke:none;stroke-width:1.0;" width="848" x="0" y="0"/><!--cluster foo_frame--><g id="cluster_foo_frame"><rect fill="none" height="82" rx="2.5" ry="2.5" style="stroke:#181818;stroke-width:1.0;" width="168" x="609.5" y="12"/><path d="M698.3525,12 L698.3525,21.2969 L688.3525,31.2969 L609.5,31.2969 " fill="none" style="stroke:#181818;stroke-width:1.0;"/><text fill="#000000" font-family="sans-serif" font-size="14" font-weight="bold" lengthAdjust="spacing" textLength="78.8525" x="612.5" y="25.9951">foo_frame</text></g><!--class AbstractList--><g id="elem_AbstractList"><rect codeLine="7" fill="#2E2E2E" height="26" id="AbstractList" rx="2.5" ry="2.5" style="stroke:#1B1B1B;stroke-width:0.5;" width="91.4038" x="227" y="240.5"/><ellipse cx="239" cy="253.5" fill="#A9DCDF" rx="8" ry="8" style="stroke:#181818;stroke-width:1.0;"/><path d="M240.875,255.2813 L237.6406,255.2813 L237.125,256.75 L235.0469,256.75 L238.0313,248.7344 L240.4844,248.7344 L243.4531,256.75 L241.375,256.75 L240.875,255.2813 Z M238.1563,253.7969 L240.3594,253.7969 L239.2656,250.6094 L238.1563,253.7969 Z " fill="#000000"/><text fill="#AAAAAA" font-family="Verdana" font-size="11" font-style="italic" lengthAdjust="spacing" textLength="65.4038" x="250" y="257.3081">AbstractList</text></g><!--class AbstractCollection--><g id="elem_AbstractCollection"><rect codeLine="8" fill="#2E2E2E" height="26" id="AbstractCollection" rx="2.5" ry="2.5" style="stroke:#1B1B1B;stroke-width:0.5;" width="126.5845" x="6" y="240.5"/><ellipse cx="18" cy="253.5" fill="#A9DCDF" rx="8" ry="8" style="stroke:#181818;stroke-width:1.0;"/><path d="M19.875,255.2813 L16.6406,255.2813 L16.125,256.75 L14.0469,256.75 L17.0313,248.7344 L19.4844,248.7344 L22.4531,256.75 L20.375,256.75 L19.875,255.2813 Z M17.1563,253.7969 L19.3594,253.7969 L18.2656,250.6094 L17.1563,253.7969 Z " fill="#000000"/><text fill="#AAAAAA" font-family="Verdana" font-size="11" font-style="italic" lengthAdjust="spacing" textLength="100.5845" x="29" y="257.3081">AbstractCollection</text></g><!--class List--><g id="elem_List"><rect codeLine="9" fill="#2E2E2E" height="26" id="List" rx="2.5" ry="2.5" style="stroke:#1B1B1B;stroke-width:0.5;" width="45.2285" x="211" y="49.5"/><ellipse cx="223" cy="62.5" fill="#B4A7E5" rx="8" ry="8" style="stroke:#181818;stroke-width:1.0;"/><path d="M222.0156,58.4844 L224.0781,58.4844 L224.0781,66.5 L222.0156,66.5 L222.0156,58.4844 Z " fill="#000000"/><text fill="#AAAAAA" font-family="Verdana" font-size="11" font-style="italic" lengthAdjust="spacing" textLength="19.2285" x="234" y="66.3081">List</text></g><!--class Collection--><g id="elem_Collection"><rect codeLine="10" fill="#2E2E2E" height="26" id="Collection" rx="2.5" ry="2.5" style="stroke:#1B1B1B;stroke-width:0.5;" width="80.4092" x="48.5" y="49.5"/><ellipse cx="60.5" cy="62.5" fill="#B4A7E5" rx="8" ry="8" style="stroke:#181818;stroke-width:1.0;"/><path d="M59.5156,58.4844 L61.5781,58.4844 L61.5781,66.5 L59.5156,66.5 L59.5156,58.4844 Z " fill="#000000"/><text fill="#AAAAAA" font-family="Verdana" font-size="11" font-style="italic" lengthAdjust="spacing" textLength="54.4092" x="71.5" y="66.3081">Collection</text></g><!--class ArrayList--><g id="elem_ArrayList"><rect codeLine="20" fill="#2E2E2E" height="67.6094" id="ArrayList" rx="2.5" ry="2.5" style="stroke:#1B1B1B;stroke-width:0.5;" width="131.5283" x="170.5" y="443.5"/><ellipse cx="208.2397" cy="456.5" fill="#ADD1B2" rx="8" ry="8" style="stroke:#181818;stroke-width:1.0;"/><path d="M210.3647,460.0625 Q209.7866,460.3594 209.1616,460.5 Q208.5522,460.6563 207.8804,460.6563 Q205.8804,460.6563 204.7085,459.5469 Q203.5366,458.4219 203.5366,456.5 Q203.5366,454.5781 204.7085,453.4531 Q205.8804,452.3281 207.8804,452.3281 Q208.5522,452.3281 209.1616,452.4844 Q209.7866,452.6406 210.3647,452.9375 L210.3647,454.5938 Q209.7866,454.2031 209.2241,454.0156 Q208.6616,453.8281 208.0522,453.8281 Q206.9429,453.8281 206.3022,454.5469 Q205.6772,455.25 205.6772,456.5 Q205.6772,457.7344 206.3022,458.4531 Q206.9429,459.1563 208.0522,459.1563 Q208.6616,459.1563 209.2241,458.9844 Q209.7866,458.7969 210.3647,458.4063 L210.3647,460.0625 Z " fill="#000000"/><text fill="#AAAAAA" font-family="Verdana" font-size="11" lengthAdjust="spacing" textLength="49.0488" x="224.2397" y="460.3081">ArrayList</text><line style="stroke:#1B1B1B;stroke-width:0.5;" x1="171.5" x2="301.0283" y1="469.5" y2="469.5"/><text fill="#AAAAAA" font-family="sans-serif" font-size="11" lengthAdjust="spacing" textLength="119.5283" x="176.5" y="483.7104">Object[] elementData</text><line style="stroke:#1B1B1B;stroke-width:0.5;" x1="171.5" x2="301.0283" y1="490.3047" y2="490.3047"/><text fill="#AAAAAA" font-family="sans-serif" font-size="11" lengthAdjust="spacing" textLength="29.9116" x="176.5" y="504.5151">size()</text></g><!--class TimeUnit--><g id="elem_TimeUnit"><rect codeLine="25" fill="#2E2E2E" height="72.4141" id="TimeUnit" rx="2.5" ry="2.5" style="stroke:#1B1B1B;stroke-width:0.5;" width="75.6504" x="351.5" y="26.5"/><ellipse cx="363.5" cy="39.5" fill="#EB937F" rx="8" ry="8" style="stroke:#181818;stroke-width:1.0;"/><path d="M360.5156,35.4844 L366.0938,35.4844 L366.0938,37.0469 L362.5781,37.0469 L362.5781,38.5313 L365.875,38.5313 L365.875,40.0938 L362.5781,40.0938 L362.5781,41.9375 L366.2031,41.9375 L366.2031,43.5 L360.5156,43.5 L360.5156,35.4844 Z " fill="#000000"/><text fill="#AAAAAA" font-family="Verdana" font-size="11" lengthAdjust="spacing" textLength="49.6504" x="374.5" y="43.3081">TimeUnit</text><line style="stroke:#1B1B1B;stroke-width:0.5;" x1="352.5" x2="426.1504" y1="52.5" y2="52.5"/><text fill="#AAAAAA" font-family="sans-serif" font-size="11" lengthAdjust="spacing" textLength="29.6968" x="357.5" y="66.7104">DAYS</text><text fill="#AAAAAA" font-family="sans-serif" font-size="11" lengthAdjust="spacing" textLength="39.6064" x="357.5" y="79.5151">HOURS</text><text fill="#AAAAAA" font-family="sans-serif" font-size="11" lengthAdjust="spacing" textLength="49.6665" x="357.5" y="92.3198">MINUTES</text></g><!--class SuppressWarnings--><g id="elem_SuppressWarnings"><rect codeLine="31" fill="#2E2E2E" height="26" id="SuppressWarnings" rx="2.5" ry="2.5" style="stroke:#1B1B1B;stroke-width:0.5;" width="128.5234" x="321" y="464.5"/><ellipse cx="333" cy="477.5" fill="#E3664A" rx="8" ry="8" style="stroke:#181818;stroke-width:1.0;"/><path d="M331.4688,477.6094 Q331.4688,478.2656 331.75,478.6563 Q332.0313,479.0313 332.5156,479.0313 Q332.9844,479.0313 333.2656,478.6563 Q333.5625,478.2656 333.5625,477.6094 Q333.5625,476.9531 333.2656,476.5781 Q332.9844,476.2031 332.5,476.2031 Q332.0313,476.2031 331.75,476.5781 Q331.4688,476.9531 331.4688,477.6094 Z M333.6719,479.2188 Q333.5,479.6094 333.1406,479.8281 Q332.7969,480.0313 332.3125,480.0313 Q331.3906,480.0313 330.8125,479.3594 Q330.2344,478.6875 330.2344,477.6094 Q330.2344,476.5469 330.8125,475.875 Q331.3906,475.2031 332.3125,475.2031 Q332.7969,475.2031 333.1406,475.4219 Q333.5,475.625 333.6719,476.0156 L333.6719,475.3125 L334.7813,475.3125 L334.7813,479.0313 Q335.4531,478.9219 335.8281,478.3906 Q336.2188,477.8438 336.2188,477 Q336.2188,476.4688 336.0625,476 Q335.9063,475.5313 335.5938,475.1406 Q335.0781,474.4844 334.3125,474.125 Q333.5469,473.7656 332.6563,473.7656 Q332.0313,473.7656 331.4531,473.9375 Q330.8906,474.0938 330.4063,474.4219 Q329.6094,474.9375 329.1719,475.7813 Q328.7344,476.6094 328.7344,477.5781 Q328.7344,478.3906 329.0156,479.0938 Q329.2969,479.7813 329.8438,480.3281 Q330.3906,480.8438 331.0781,481.125 Q331.7813,481.4063 332.5625,481.4063 Q333.2344,481.4063 333.9063,481.1406 Q334.5938,480.8906 335.0781,480.4688 L335.6406,481.3438 Q334.9688,481.8594 334.1719,482.125 Q333.3906,482.4063 332.5781,482.4063 Q331.5781,482.4063 330.6875,482.0469 Q329.8125,481.7031 329.125,481.0313 Q328.4375,480.3594 328.0781,479.4844 Q327.7188,478.5938 327.7188,477.5781 Q327.7188,476.6094 328.0781,475.7188 Q328.4531,474.8281 329.125,474.1563 Q329.8125,473.5 330.7031,473.1406 Q331.6094,472.7656 332.5781,472.7656 Q333.7813,472.7656 334.7656,473.2344 Q335.75,473.6875 336.4063,474.5469 Q336.8125,475.0781 337.0156,475.7031 Q337.2188,476.3125 337.2188,476.9844 Q337.2188,478.4375 336.3438,479.25 Q335.4688,480.0469 333.875,480.0469 L333.6719,480.0469 L333.6719,479.2188 Z " fill="#000000"/><text fill="#AAAAAA" font-family="Verdana" font-size="11" lengthAdjust="spacing" textLength="102.5234" x="344" y="481.3081">SuppressWarnings</text></g><!--class Annotation--><g id="elem_Annotation"><rect codeLine="33" fill="#2E2E2E" height="90.0234" id="Annotation" rx="2.5" ry="2.5" style="stroke:#1B1B1B;stroke-width:0.5;" width="154.0708" x="445.5" y="17.5"/><ellipse cx="484.6033" cy="35.3047" fill="#E3664A" rx="8" ry="8" style="stroke:#181818;stroke-width:1.0;"/><path d="M483.072,35.4141 Q483.072,36.0703 483.3533,36.4609 Q483.6345,36.8359 484.1189,36.8359 Q484.5876,36.8359 484.8689,36.4609 Q485.1658,36.0703 485.1658,35.4141 Q485.1658,34.7578 484.8689,34.3828 Q484.5876,34.0078 484.1033,34.0078 Q483.6345,34.0078 483.3533,34.3828 Q483.072,34.7578 483.072,35.4141 Z M485.2751,37.0234 Q485.1033,37.4141 484.7439,37.6328 Q484.4001,37.8359 483.9158,37.8359 Q482.9939,37.8359 482.4158,37.1641 Q481.8376,36.4922 481.8376,35.4141 Q481.8376,34.3516 482.4158,33.6797 Q482.9939,33.0078 483.9158,33.0078 Q484.4001,33.0078 484.7439,33.2266 Q485.1033,33.4297 485.2751,33.8203 L485.2751,33.1172 L486.3845,33.1172 L486.3845,36.8359 Q487.0564,36.7266 487.4314,36.1953 Q487.822,35.6484 487.822,34.8047 Q487.822,34.2734 487.6658,33.8047 Q487.5095,33.3359 487.197,32.9453 Q486.6814,32.2891 485.9158,31.9297 Q485.1501,31.5703 484.2595,31.5703 Q483.6345,31.5703 483.0564,31.7422 Q482.4939,31.8984 482.0095,32.2266 Q481.2126,32.7422 480.7751,33.5859 Q480.3376,34.4141 480.3376,35.3828 Q480.3376,36.1953 480.6189,36.8984 Q480.9001,37.5859 481.447,38.1328 Q481.9939,38.6484 482.6814,38.9297 Q483.3845,39.2109 484.1658,39.2109 Q484.8376,39.2109 485.5095,38.9453 Q486.197,38.6953 486.6814,38.2734 L487.2439,39.1484 Q486.572,39.6641 485.7751,39.9297 Q484.9939,40.2109 484.1814,40.2109 Q483.1814,40.2109 482.2908,39.8516 Q481.4158,39.5078 480.7283,38.8359 Q480.0408,38.1641 479.6814,37.2891 Q479.322,36.3984 479.322,35.3828 Q479.322,34.4141 479.6814,33.5234 Q480.0564,32.6328 480.7283,31.9609 Q481.4158,31.3047 482.3064,30.9453 Q483.2126,30.5703 484.1814,30.5703 Q485.3845,30.5703 486.3689,31.0391 Q487.3533,31.4922 488.0095,32.3516 Q488.4158,32.8828 488.6189,33.5078 Q488.822,34.1172 488.822,34.7891 Q488.822,36.2422 487.947,37.0547 Q487.072,37.8516 485.4783,37.8516 L485.2751,37.8516 L485.2751,37.0234 Z " fill="#000000"/><text fill="#AAAAAA" font-family="sans-serif" font-size="11" font-style="italic" lengthAdjust="spacing" textLength="72.8643" x="498.6033" y="32.7104">&#171;stereotype&#187;</text><text fill="#AAAAAA" font-family="Verdana" font-size="11" lengthAdjust="spacing" textLength="60.3228" x="504.874" y="45.5151">Annotation</text><line style="stroke:#1B1B1B;stroke-width:0.5;" x1="446.5" x2="598.5708" y1="53.1094" y2="53.1094"/><text fill="#AAAAAA" font-family="sans-serif" font-size="11" lengthAdjust="spacing" textLength="142.0708" x="451.5" y="67.3198">annotation with members</text><line style="stroke:#1B1B1B;stroke-width:0.5;" x1="446.5" x2="598.5708" y1="73.9141" y2="73.9141"/><text fill="#AAAAAA" font-family="sans-serif" font-size="11" lengthAdjust="spacing" textLength="62.2402" x="451.5" y="88.1245">String foo()</text><text fill="#AAAAAA" font-family="sans-serif" font-size="11" lengthAdjust="spacing" textLength="63.1533" x="451.5" y="100.9292">String bar()</text></g><!--class Dummy--><g id="elem_Dummy"><rect codeLine="39" fill="#2E2E2E" height="118.8281" id="Dummy" rx="2.5" ry="2.5" style="stroke:#1B1B1B;stroke-width:0.5;" width="106.5688" x="336" y="194"/><ellipse cx="364.7339" cy="207" fill="#ADD1B2" rx="8" ry="8" style="stroke:#181818;stroke-width:1.0;"/><path d="M366.8589,210.5625 Q366.2808,210.8594 365.6558,211 Q365.0464,211.1563 364.3746,211.1563 Q362.3746,211.1563 361.2027,210.0469 Q360.0308,208.9219 360.0308,207 Q360.0308,205.0781 361.2027,203.9531 Q362.3746,202.8281 364.3746,202.8281 Q365.0464,202.8281 365.6558,202.9844 Q366.2808,203.1406 366.8589,203.4375 L366.8589,205.0938 Q366.2808,204.7031 365.7183,204.5156 Q365.1558,204.3281 364.5464,204.3281 Q363.4371,204.3281 362.7964,205.0469 Q362.1714,205.75 362.1714,207 Q362.1714,208.2344 362.7964,208.9531 Q363.4371,209.6563 364.5464,209.6563 Q365.1558,209.6563 365.7183,209.4844 Q366.2808,209.2969 366.8589,208.9063 L366.8589,210.5625 Z " fill="#000000"/><text fill="#AAAAAA" font-family="Verdana" font-size="11" lengthAdjust="spacing" textLength="43.3823" x="379.4526" y="210.8081">Dummy</text><line style="stroke:#1B1B1B;stroke-width:0.5;" x1="337" x2="441.5688" y1="220" y2="220"/><rect fill="none" height="6" style="stroke:#C82930;stroke-width:1.0;" width="6" x="344" y="228.4023"/><text fill="#AAAAAA" font-family="sans-serif" font-size="11" lengthAdjust="spacing" textLength="30.7334" x="353" y="234.2104">field1</text><polygon fill="none" points="347,239.207,351,243.207,347,247.207,343,243.207" style="stroke:#B38D22;stroke-width:1.0;"/><text fill="#AAAAAA" font-family="sans-serif" font-size="11" lengthAdjust="spacing" textLength="30.7334" x="353" y="247.0151">field2</text><text fill="#AAAAAA" font-family="sans-serif" font-size="11" lengthAdjust="spacing" text-decoration="underline" textLength="46.3633" x="353" y="259.8198">String id</text><line style="stroke:#1B1B1B;stroke-width:0.5;" x1="337" x2="441.5688" y1="266.4141" y2="266.4141"/><polygon fill="#4177AF" points="347,273.8164,343,279.8164,351,279.8164" style="stroke:#1963A0;stroke-width:1.0;"/><text fill="#AAAAAA" font-family="sans-serif" font-size="11" lengthAdjust="spacing" textLength="58.0615" x="353" y="280.6245">method1()</text><ellipse cx="347" cy="290.6211" fill="#84BE84" rx="3" ry="3" style="stroke:#038048;stroke-width:1.0;"/><text fill="#AAAAAA" font-family="sans-serif" font-size="11" lengthAdjust="spacing" textLength="58.0615" x="353" y="293.4292">method2()</text><text fill="#AAAAAA" font-family="sans-serif" font-size="11" font-style="italic" lengthAdjust="spacing" textLength="83.5688" x="353" y="306.2339">void methods()</text></g><g id="elem_N1"><path d="M10,465.5 L10,488.3047 L149.4971,488.3047 L149.4971,475.5 L139.4971,465.5 L10,465.5 " fill="#880000" style="stroke:#330000;stroke-width:0.5;"/><path d="M139.4971,465.5 L139.4971,475.5 L149.4971,475.5 L139.4971,465.5 " fill="#880000" style="stroke:#330000;stroke-width:1.0;"/><text fill="#FFFFFF" font-family="Verdana" font-size="11" lengthAdjust="spacing" textLength="118.4971" x="16" y="480.7104">This is a floating note</text></g><!--class Element--><g id="elem_Element"><rect fill="#2E2E2E" height="26" id="Element" rx="2.5" ry="2.5" style="stroke:#1B1B1B;stroke-width:0.5;" width="71.5415" x="657.5" y="240.5"/><ellipse cx="669.5" cy="253.5" fill="#ADD1B2" rx="8" ry="8" style="stroke:#181818;stroke-width:1.0;"/><path d="M671.625,257.0625 Q671.0469,257.3594 670.4219,257.5 Q669.8125,257.6563 669.1406,257.6563 Q667.1406,257.6563 665.9688,256.5469 Q664.7969,255.4219 664.7969,253.5 Q664.7969,251.5781 665.9688,250.4531 Q667.1406,249.3281 669.1406,249.3281 Q669.8125,249.3281 670.4219,249.4844 Q671.0469,249.6406 671.625,249.9375 L671.625,251.5938 Q671.0469,251.2031 670.4844,251.0156 Q669.9219,250.8281 669.3125,250.8281 Q668.2031,250.8281 667.5625,251.5469 Q666.9375,252.25 666.9375,253.5 Q666.9375,254.7344 667.5625,255.4531 Q668.2031,256.1563 669.3125,256.1563 Q669.9219,256.1563 670.4844,255.9844 Q671.0469,255.7969 671.625,255.4063 L671.625,257.0625 Z " fill="#000000"/><text fill="#AAAAAA" font-family="Verdana" font-size="11" lengthAdjust="spacing" textLength="45.5415" x="680.5" y="257.3081">Element</text></g><g id="elem_Elementlol26"><ellipse cx="690.5" cy="470.5" fill="#F1F1F1" rx="5" ry="5" style="stroke:#181818;stroke-width:1.5;"/></g><text fill="#000000" font-family="sans-serif" font-size="14" lengthAdjust="spacing" textLength="62.4395" x="659.2803" y="488.4951">interface</text><g id="elem_GMN31"><path d="M747.5,241.5 L747.5,249.5 L729.7969,253.5 L747.5,257.5 L747.5,264.3047 A0,0 0 0 0 747.5,264.3047 L841.7778,264.3047 A0,0 0 0 0 841.7778,264.3047 L841.7778,251.5 L831.7778,241.5 L747.5,241.5 A0,0 0 0 0 747.5,241.5 " fill="#880000" style="stroke:#330000;stroke-width:0.5;"/><path d="M831.7778,241.5 L831.7778,251.5 L841.7778,251.5 L831.7778,241.5 " fill="#880000" style="stroke:#330000;stroke-width:0.5;"/><text fill="#FFFFFF" font-family="Verdana" font-size="11" lengthAdjust="spacing" textLength="73.2778" x="753.5" y="256.7104">This is a note</text></g><!--class User--><g id="elem_User"><rect codeLine="69" fill="#2E2E2E" height="187.6563" id="User" rx="2.5" ry="2.5" style="stroke:#1B1B1B;stroke-width:0.5;" width="100.7412" x="461" y="159.5"/><ellipse cx="486.8667" cy="183.707" fill="#ADD1B2" rx="8" ry="8" style="stroke:#181818;stroke-width:1.0;"/><path d="M488.9917,187.2695 Q488.4136,187.5664 487.7886,187.707 Q487.1792,187.8633 486.5073,187.8633 Q484.5073,187.8633 483.3355,186.7539 Q482.1636,185.6289 482.1636,183.707 Q482.1636,181.7852 483.3355,180.6602 Q484.5073,179.5352 486.5073,179.5352 Q487.1792,179.5352 487.7886,179.6914 Q488.4136,179.8477 488.9917,180.1445 L488.9917,181.8008 Q488.4136,181.4102 487.8511,181.2227 Q487.2886,181.0352 486.6792,181.0352 Q485.5698,181.0352 484.9292,181.7539 Q484.3042,182.457 484.3042,183.707 Q484.3042,184.9414 484.9292,185.6602 Q485.5698,186.3633 486.6792,186.3633 Q487.2886,186.3633 487.8511,186.1914 Q488.4136,186.0039 488.9917,185.6133 L488.9917,187.2695 Z " fill="#000000"/><text fill="#AAAAAA" font-family="sans-serif" font-size="11" font-style="italic" lengthAdjust="spacing" textLength="37.4526" x="504.185" y="174.7104">&#171;user&#187;</text><text fill="#AAAAAA" font-family="sans-serif" font-size="11" font-style="italic" lengthAdjust="spacing" textLength="47.9263" x="498.9482" y="187.5151">&#171;admin&#187;</text><text fill="#AAAAAA" font-family="Verdana" font-size="11" lengthAdjust="spacing" textLength="25.0723" x="510.3752" y="200.3198">User</text><line style="stroke:#1B1B1B;stroke-width:0.5;" x1="462" x2="560.7412" y1="207.9141" y2="207.9141"/><ellipse cx="472" cy="236.1211" fill="#84BE84" rx="3" ry="3" style="stroke:#038048;stroke-width:1.0;"/><text fill="#AAAAAA" font-family="sans-serif" font-size="11" lengthAdjust="spacing" textLength="59.0981" x="478" y="238.9292">getName()</text><ellipse cx="472" cy="248.9258" fill="#84BE84" rx="3" ry="3" style="stroke:#038048;stroke-width:1.0;"/><text fill="#AAAAAA" font-family="sans-serif" font-size="11" lengthAdjust="spacing" textLength="70.8877" x="478" y="251.7339">getAddress()</text><line style="stroke:#1B1B1B;stroke-width:1.0;stroke-dasharray:1.0,2.0;" x1="462" x2="473.2385" y1="222.3164" y2="222.3164"/><text fill="#AAAAAA" font-family="sans-serif" font-size="11" lengthAdjust="spacing" textLength="76.2642" x="473.2385" y="225.6245">Simple Getter</text><line style="stroke:#1B1B1B;stroke-width:1.0;stroke-dasharray:1.0,2.0;" x1="549.5027" x2="560.7412" y1="222.3164" y2="222.3164"/><ellipse cx="472" cy="278.5352" fill="#84BE84" rx="3" ry="3" style="stroke:#038048;stroke-width:1.0;"/><text fill="#AAAAAA" font-family="sans-serif" font-size="11" lengthAdjust="spacing" textLength="57.8467" x="478" y="281.3433">setName()</text><line style="stroke:#1B1B1B;stroke-width:1.0;stroke-dasharray:1.0,2.0;" x1="462" x2="477.8174" y1="264.7305" y2="264.7305"/><text fill="#AAAAAA" font-family="sans-serif" font-size="11" lengthAdjust="spacing" textLength="67.1064" x="477.8174" y="268.0386">Some setter</text><line style="stroke:#1B1B1B;stroke-width:1.0;stroke-dasharray:1.0,2.0;" x1="544.9238" x2="560.7412" y1="264.7305" y2="264.7305"/><text fill="#AAAAAA" font-family="sans-serif" font-size="11" lengthAdjust="spacing" textLength="38.3281" x="467" y="310.9526">int age</text><line style="stroke:#1B1B1B;stroke-width:0.5;" x1="462" x2="477.7878" y1="294.3398" y2="294.3398"/><text fill="#AAAAAA" font-family="sans-serif" font-size="11" lengthAdjust="spacing" textLength="67.1655" x="477.7878" y="297.6479">private data</text><line style="stroke:#1B1B1B;stroke-width:0.5;" x1="544.9534" x2="560.7412" y1="294.3398" y2="294.3398"/><text fill="#AAAAAA" font-family="sans-serif" font-size="11" lengthAdjust="spacing" textLength="88.7412" x="467" y="340.562">String password</text><line style="stroke:#1B1B1B;stroke-width:1.0;" x1="462" x2="483.4382" y1="323.9492" y2="323.9492"/><text fill="#AAAAAA" font-family="sans-serif" font-size="11" lengthAdjust="spacing" textLength="55.8647" x="483.4382" y="327.2573">encrypted</text><line style="stroke:#1B1B1B;stroke-width:1.0;" x1="539.303" x2="560.7412" y1="323.9492" y2="323.9492"/></g><!--class Foo--><g id="elem_Foo"><rect codeLine="54" fill="#2E2E2E" height="46.8047" id="Foo" rx="2.5" ry="2.5" style="stroke:#1B1B1B;stroke-width:0.5;" width="152.2031" x="617.5" y="39"/><ellipse cx="629.5" cy="52" fill="#ADD1B2" rx="8" ry="8" style="stroke:#181818;stroke-width:1.0;"/><path d="M631.625,55.5625 Q631.0469,55.8594 630.4219,56 Q629.8125,56.1563 629.1406,56.1563 Q627.1406,56.1563 625.9688,55.0469 Q624.7969,53.9219 624.7969,52 Q624.7969,50.0781 625.9688,48.9531 Q627.1406,47.8281 629.1406,47.8281 Q629.8125,47.8281 630.4219,47.9844 Q631.0469,48.1406 631.625,48.4375 L631.625,50.0938 Q631.0469,49.7031 630.4844,49.5156 Q629.9219,49.3281 629.3125,49.3281 Q628.2031,49.3281 627.5625,50.0469 Q626.9375,50.75 626.9375,52 Q626.9375,53.2344 627.5625,53.9531 Q628.2031,54.6563 629.3125,54.6563 Q629.9219,54.6563 630.4844,54.4844 Q631.0469,54.2969 631.625,53.9063 L631.625,55.5625 Z " fill="#000000"/><text fill="#AAAAAA" font-family="Verdana" font-size="11" lengthAdjust="spacing" textLength="19.7871" x="640.5" y="55.8081">Foo</text><rect fill="#777777" height="14.8047" style="stroke:#1B1B1B;stroke-width:1.0;stroke-dasharray:2.0,2.0;" width="104.416" x="668.2871" y="36"/><text fill="#AAAAAA" font-family="sans-serif" font-size="11" font-style="italic" lengthAdjust="spacing" textLength="102.416" x="669.2871" y="47.2104">? extends Element</text><line style="stroke:#1B1B1B;stroke-width:0.5;" x1="618.5" x2="768.7031" y1="65" y2="65"/><text fill="#AAAAAA" font-family="sans-serif" font-size="11" lengthAdjust="spacing" textLength="51.2456" x="623.5" y="79.2104">int si ze()</text></g><polygon fill="none" points="235.999,75.6103,233.7604,94.4515,245.5128,92.0264,235.999,75.6103" style="stroke:#FFFFFF;stroke-width:1.0;"/><path d="M239.6366,93.2389 C246.664,127.2947 262.908,206.0155 269.9714,240.2459 " fill="none" style="stroke:#FFFFFF;stroke-width:1.0;"/><text fill="#BBBBBB" font-family="Verdana" font-size="11" lengthAdjust="spacing" textLength="64.0181" x="252.5" y="137.7104">AList to List</text><polygon fill="none" points="87.2826,75.6103,79.5122,92.9199,91.452,94.1202,87.2826,75.6103" style="stroke:#FFFFFF;stroke-width:1.0;"/><path d="M85.4821,93.52 C82.0585,127.5758 74.173,206.0155 70.7319,240.2459 " fill="none" style="stroke:#FFFFFF;stroke-width:1.0;"/><text fill="#BBBBBB" font-family="Verdana" font-size="11" lengthAdjust="spacing" textLength="66.6069" x="84.5" y="137.7104">AColl to Coll</text><text fill="#BBBBBB" font-family="Verdana" font-size="11" lengthAdjust="spacing" textLength="30.9375" x="39.7319" y="237.4564">many</text><text fill="#BBBBBB" font-family="Verdana" font-size="11" lengthAdjust="spacing" textLength="30.9375" x="56.2826" y="86.8208">many</text><polygon fill="none" points="128.5057,62.5,146.5057,68.5,146.5057,56.5,128.5057,62.5" style="stroke:#FFFFFF;stroke-width:1.0;"/><path d="M146.5057,62.5 C172.9949,62.5 188.7809,62.5 210.7665,62.5 " fill="none" style="stroke:#FFFFFF;stroke-width:1.0;"/><text fill="#BBBBBB" font-family="Verdana" font-size="11" lengthAdjust="spacing" textLength="57.7876" x="141.25" y="55.7104">List to Coll</text><polygon fill="none" points="133.1735,253.5,151.1735,259.5,151.1735,247.5,133.1735,253.5" style="stroke:#FFFFFF;stroke-width:1.0;"/><path d="M151.1735,253.5 C181.5215,253.5 199.1343,253.5 226.758,253.5 " fill="none" style="stroke:#FFFFFF;stroke-width:1.0;"/><text fill="#BBBBBB" font-family="Verdana" font-size="11" lengthAdjust="spacing" textLength="72.8374" x="144" y="246.7104">AList to AColl</text><polygon fill="none" points="270.5132,266.7519,261.7093,283.5594,273.5546,285.4802,270.5132,266.7519" style="stroke:#FFFFFF;stroke-width:1.0;"/><path d="M267.6319,284.5198 C262.237,317.7885 250.0556,392.9071 241.9039,443.1762 " fill="none" style="stroke:#FFFFFF;stroke-width:1.0;"/><text fill="#BBBBBB" font-family="Verdana" font-size="11" lengthAdjust="spacing" textLength="76.0654" x="267.4031" y="376.7104">ArList to AList</text><path d="M259.5,385.3047 L259.5,420.3047 L350.5,420.3047 L350.5,395.3047 L340.5,385.3047 L259.5,385.3047 " fill="#880000" style="stroke:#330000;stroke-width:0.5;"/><path d="M340.5,385.3047 L340.5,395.3047 L350.5,395.3047 L340.5,385.3047 " fill="#880000" style="stroke:#330000;stroke-width:0.5;"/><text fill="#FFFFFF" font-family="Verdana" font-size="11" lengthAdjust="spacing" textLength="70.8716" x="265.5" y="400.5151">this is a note</text><text fill="#FFFFFF" font-family="Verdana" font-size="11" lengthAdjust="spacing" textLength="36.6523" x="265.5" y="413.3198">on link</text><polygon fill="#FFFFFF" points="302.5605,477.5,311.5605,481.5,307.5605,477.5,311.5605,473.5,302.5605,477.5" style="stroke:#FFFFFF;stroke-width:1.0;"/><ellipse cx="312.7036" cy="477.5" fill="#777777" rx="8" ry="8" style="stroke:#FFFFFF;stroke-width:1.0;"/><line style="stroke:#FFFFFF;stroke-width:1.0;" x1="304.7036" x2="320.7036" y1="477.5" y2="477.5"/><line style="stroke:#FFFFFF;stroke-width:1.0;" x1="312.7036" x2="312.7036" y1="469.5" y2="485.5"/><path d="M308.5605,477.5 C314.6082,477.5 298.6559,477.5 304.7036,477.5 " fill="none" style="stroke:#FFFFFF;stroke-width:1.0;"/><polygon fill="#FFFFFF" points="70.0519,266.7519,66.4609,275.9228,70.2769,271.7468,74.4528,275.5628,70.0519,266.7519" style="stroke:#FFFFFF;stroke-width:1.0;"/><rect fill="#777777" height="10" style="stroke:#FFFFFF;stroke-width:1.5;" width="10" x="73.9979" y="460.3537"/><path d="M70.3219,272.7458 C72.0866,311.9229 77.0804,422.785 78.7729,460.3588 " fill="none" style="stroke:#FFFFFF;stroke-width:1.0;"/><polygon fill="#FFFFFF" points="170.2728,477.5,161.2728,473.5,165.2728,477.5,161.2728,481.5,170.2728,477.5" style="stroke:#FFFFFF;stroke-width:1.0;"/><path d="M149.1074,477.5 C156.1626,477.5 157.2177,477.5 164.2728,477.5 " fill="none" style="stroke:#FFFFFF;stroke-width:1.0;"/><polygon fill="#FFFFFF" points="693.5,86.2978,689.5,92.2978,693.5,98.2978,697.5,92.2978,693.5,86.2978" style="stroke:#FFFFFF;stroke-width:1.0;"/><path d="M693.5,98.2978 C693.5,138.5517 693.5,208.9137 693.5,240.1322 " fill="none" style="stroke:#FFFFFF;stroke-width:1.0;"/><path d="M693.5,266.7519 C693.5,305.929 693.5,427.7799 693.5,465.3537 " fill="none" style="stroke:#FFFFFF;stroke-width:1.0;"/></g></svg>