<svg xmlns="http://www.w3.org/2000/svg" xmlns:xlink="http://www.w3.org/1999/xlink" contentStyleType="text/css" data-diagram-type="CLASS" height="268px" preserveAspectRatio="none" style="width:327px;height:268px;" version="1.1" viewBox="0 0 327 268" width="327px" zoomAndPan="magnify"><defs><linearGradient id="g147rna9vnqc7c0" x1="50%" x2="50%" y1="0%" y2="100%"><stop offset="0%" stop-color="#F4F4F4"/><stop offset="100%" stop-color="#F4F4F4"/></linearGradient></defs><g><!--class Map--><g id="elem_Map"><rect codeLine="8" fill="url(#g147rna9vnqc7c0)" height="58.8047" id="Map" style="stroke:#C6C6C6;stroke-width:1;" width="112.1333" x="46.5" y="101.5"/><rect fill="url(#g147rna9vnqc7c0)" height="42.8047" style="stroke:#C6C6C6;stroke-width:1;" width="112.1333" x="46.5" y="101.5"/><ellipse cx="60.5" cy="122.9023" fill="#B4A7E5" rx="10" ry="10" style="stroke:#181818;stroke-width:1;"/><path d="M57.5156,120.1836 L57.5156,118.6523 L62.7188,118.6523 L62.7188,120.1836 L60.9844,120.1836 L60.9844,125.8711 L62.7188,125.8711 L62.7188,127.4023 L57.5156,127.4023 L57.5156,125.8711 L59.25,125.8711 L59.25,120.1836 L57.5156,120.1836 Z " fill="#000000"/><text fill="#262626" font-family="sans-serif" font-size="11" font-style="italic" lengthAdjust="spacing" textLength="23.2139" x="83.5" y="126.7104">Map</text><rect fill="url(#g147rna9vnqc7c0)" height="32.4766" style="stroke:#C6C6C6;stroke-width:1;stroke-dasharray:2.0,2.0;" width="36.9194" x="124.7139" y="98.5"/><text fill="#262626" font-family="IBM Plex Sans, Noto Sans, Verdana" font-size="9" font-style="italic" lengthAdjust="spacing" textLength="14.9194" x="135.7139" y="117.854">K,V</text><line style="stroke:#C6C6C6;stroke-width:1;" x1="47.5" x2="157.6333" y1="144.3047" y2="144.3047"/><line style="stroke:#C6C6C6;stroke-width:1;" x1="47.5" x2="157.6333" y1="152.3047" y2="152.3047"/></g><!--class HashMap--><g id="elem_HashMap"><rect codeLine="9" fill="url(#g147rna9vnqc7c0)" height="58.8047" id="HashMap" style="stroke:#C6C6C6;stroke-width:1;" width="193.4438" x="6" y="196.5"/><rect fill="url(#g147rna9vnqc7c0)" height="42.8047" style="stroke:#C6C6C6;stroke-width:1;" width="193.4438" x="6" y="196.5"/><ellipse cx="20" cy="217.9023" fill="#ADD1B2" rx="10" ry="10" style="stroke:#181818;stroke-width:1;"/><path d="M21.8281,222.1523 Q21.4219,222.3555 20.9688,222.4648 Q20.5156,222.5742 20.0313,222.5742 Q18.25,222.5742 17.3125,221.418 Q16.3906,220.2461 16.3906,218.043 Q16.3906,215.8242 17.3125,214.668 Q18.25,213.4961 20.0313,213.4961 Q20.5156,213.4961 20.9688,213.6055 Q21.4375,213.6992 21.8281,213.918 L21.8281,215.8398 Q21.3906,215.4336 20.9688,215.2461 Q20.5469,215.043 20.1094,215.043 Q19.1563,215.043 18.6719,215.8086 Q18.1875,216.5586 18.1875,218.043 Q18.1875,219.5117 18.6719,220.2617 Q19.1563,221.0117 20.1094,221.0117 Q20.5469,221.0117 20.9688,220.8242 Q21.3906,220.6367 21.8281,220.2305 L21.8281,222.1523 Z " fill="#000000"/><text fill="#262626" font-family="sans-serif" font-size="11" lengthAdjust="spacing" textLength="50.9287" x="43" y="221.7104">HashMap</text><rect fill="url(#g147rna9vnqc7c0)" height="32.4766" style="stroke:#C6C6C6;stroke-width:1;stroke-dasharray:2.0,2.0;" width="90.5151" x="111.9287" y="193.5"/><text fill="#262626" font-family="IBM Plex Sans, Noto Sans, Verdana" font-size="9" font-style="italic" lengthAdjust="spacing" textLength="68.5151" x="122.9287" y="212.854">Long,Customer</text><line style="stroke:#C6C6C6;stroke-width:1;" x1="7" x2="198.4438" y1="239.3047" y2="239.3047"/><line style="stroke:#C6C6C6;stroke-width:1;" x1="7" x2="198.4438" y1="247.3047" y2="247.3047"/></g><!--class Shop--><g id="elem_Shop"><rect fill="url(#g147rna9vnqc7c0)" height="58.8047" id="Shop" style="stroke:#C6C6C6;stroke-width:1;" width="77.6665" x="229.5" y="6.5"/><rect fill="url(#g147rna9vnqc7c0)" height="42.8047" style="stroke:#C6C6C6;stroke-width:1;" width="77.6665" x="229.5" y="6.5"/><ellipse cx="243.5" cy="27.9023" fill="#ADD1B2" rx="10" ry="10" style="stroke:#181818;stroke-width:1;"/><path d="M245.3281,32.1523 Q244.9219,32.3555 244.4688,32.4648 Q244.0156,32.5742 243.5313,32.5742 Q241.75,32.5742 240.8125,31.418 Q239.8906,30.2461 239.8906,28.043 Q239.8906,25.8242 240.8125,24.668 Q241.75,23.4961 243.5313,23.4961 Q244.0156,23.4961 244.4688,23.6055 Q244.9375,23.6992 245.3281,23.918 L245.3281,25.8398 Q244.8906,25.4336 244.4688,25.2461 Q244.0469,25.043 243.6094,25.043 Q242.6563,25.043 242.1719,25.8086 Q241.6875,26.5586 241.6875,28.043 Q241.6875,29.5117 242.1719,30.2617 Q242.6563,31.0117 243.6094,31.0117 Q244.0469,31.0117 244.4688,30.8242 Q244.8906,30.6367 245.3281,30.2305 L245.3281,32.1523 Z " fill="#000000"/><text fill="#262626" font-family="sans-serif" font-size="11" lengthAdjust="spacing" textLength="27.6665" x="266.5" y="31.7104">Shop</text><line style="stroke:#C6C6C6;stroke-width:1;" x1="230.5" x2="306.1665" y1="49.3047" y2="49.3047"/><line style="stroke:#C6C6C6;stroke-width:1;" x1="230.5" x2="306.1665" y1="57.3047" y2="57.3047"/></g><!--class Customer--><g id="elem_Customer"><rect fill="url(#g147rna9vnqc7c0)" height="58.8047" id="Customer" style="stroke:#C6C6C6;stroke-width:1;" width="103.4316" x="217" y="196.5"/><rect fill="url(#g147rna9vnqc7c0)" height="42.8047" style="stroke:#C6C6C6;stroke-width:1;" width="103.4316" x="217" y="196.5"/><ellipse cx="231" cy="217.9023" fill="#ADD1B2" rx="10" ry="10" style="stroke:#181818;stroke-width:1;"/><path d="M232.8281,222.1523 Q232.4219,222.3555 231.9688,222.4648 Q231.5156,222.5742 231.0313,222.5742 Q229.25,222.5742 228.3125,221.418 Q227.3906,220.2461 227.3906,218.043 Q227.3906,215.8242 228.3125,214.668 Q229.25,213.4961 231.0313,213.4961 Q231.5156,213.4961 231.9688,213.6055 Q232.4375,213.6992 232.8281,213.918 L232.8281,215.8398 Q232.3906,215.4336 231.9688,215.2461 Q231.5469,215.043 231.1094,215.043 Q230.1563,215.043 229.6719,215.8086 Q229.1875,216.5586 229.1875,218.043 Q229.1875,219.5117 229.6719,220.2617 Q230.1563,221.0117 231.1094,221.0117 Q231.5469,221.0117 231.9688,220.8242 Q232.3906,220.6367 232.8281,220.2305 L232.8281,222.1523 Z " fill="#000000"/><text fill="#262626" font-family="sans-serif" font-size="11" lengthAdjust="spacing" textLength="53.4316" x="254" y="221.7104">Customer</text><line style="stroke:#C6C6C6;stroke-width:1;" x1="218" x2="319.4316" y1="239.3047" y2="239.3047"/><line style="stroke:#C6C6C6;stroke-width:1;" x1="218" x2="319.4316" y1="247.3047" y2="247.3047"/></g><polygon fill="#FFFFFF" fill-opacity="0.00000" points="102.5,160.6619,96.5,178.6619,108.5,178.6619,102.5,160.6619" style="stroke:#C6C6C6;stroke-width:1;"/><path d="M102.5,178.6619 C102.5,189.9764 102.5,184.9517 102.5,196.2726 " fill="#FFFFFF" fill-opacity="0.00000" style="stroke:#C6C6C6;stroke-width:1;stroke-dasharray:7.0,7.0;"/><polygon fill="#C6C6C6" points="268.5,196.4868,272.5,187.4868,268.5,191.4868,264.5,187.4868,268.5,196.4868" style="stroke:#C6C6C6;stroke-width:1;"/><path d="M268.5,65.5532 C268.5,100.9914 268.5,155.067 268.5,190.4868 " fill="#FFFFFF" fill-opacity="0.00000" style="stroke:#C6C6C6;stroke-width:1;"/><text fill="#262626" font-family="sans-serif" font-size="12" lengthAdjust="spacing" textLength="56.5078" x="201.5" y="169.6254">customer</text><text fill="#262626" font-family="sans-serif" font-size="12" lengthAdjust="spacing" textLength="7.6348" x="225.9365" y="183.5942">1</text><polygon fill="#C6C6C6" points="216.7339,226,207.7339,222,211.7339,226,207.7339,230,216.7339,226" style="stroke:#C6C6C6;stroke-width:1;"/><path d="M199.1172,226 C204.9894,226 204.8617,226 210.7339,226 " fill="#FFFFFF" fill-opacity="0.00000" style="stroke:#C6C6C6;stroke-width:1;"/><text fill="#262626" font-family="sans-serif" font-size="12" lengthAdjust="spacing" textLength="32.7773" x="173.7339" y="248.1387">value</text></g></svg>