<svg xmlns="http://www.w3.org/2000/svg" xmlns:xlink="http://www.w3.org/1999/xlink" contentStyleType="text/css" data-diagram-type="CLASS" height="423.9583px" preserveAspectRatio="none" style="width:626px;height:423px;" version="1.1" viewBox="0 0 626 423" width="626.0417px" zoomAndPan="magnify"><defs><linearGradient id="grqrurut9wy8h0" x1="50%" x2="50%" y1="0%" y2="100%"><stop offset="0%" stop-color="#F3F3F3"/><stop offset="100%" stop-color="#E2E2E2"/></linearGradient><linearGradient id="grqrurut9wy8h1" x1="50%" x2="50%" y1="0%" y2="100%"><stop offset="0%" stop-color="#F3F3F3"/><stop offset="100%" stop-color="#888888"/></linearGradient><linearGradient id="grqrurut9wy8h2" x1="50%" x2="50%" y1="0%" y2="100%"><stop offset="0%" stop-color="#D2D2D2"/><stop offset="100%" stop-color="#A8A8A8"/></linearGradient></defs><g><!--class abstract--><g id="elem_abstract"><rect codeLine="6" fill="url(#grqrurut9wy8h0)" height="61.2549" id="abstract" rx="7.8125" ry="7.8125" style="stroke:#F3F3F3;stroke-width:1.0417;" width="99.3657" x="23.9583" y="22.9167"/><rect fill="url(#grqrurut9wy8h1)" height="44.5882" rx="7.8125" ry="7.8125" style="stroke:url(#grqrurut9wy8h1);stroke-width:1.0417;" width="99.3657" x="23.9583" y="22.9167"/><rect fill="url(#grqrurut9wy8h1)" height="7.8125" style="stroke:url(#grqrurut9wy8h1);stroke-width:1.0417;" width="99.3657" x="23.9583" y="59.6924"/><rect codeLine="6" fill="#FFFFFF" fill-opacity="0.00000" height="61.2549" id="abstract" rx="7.8125" ry="7.8125" style="stroke:#F3F3F3;stroke-width:1.0417;" width="99.3657" x="23.9583" y="22.9167"/><ellipse cx="38.5417" cy="45.2108" fill="#FFFFFF" fill-opacity="0.00000" rx="10.4167" ry="10.4167" style="stroke:#888888;stroke-width:1.0417;"/><path d="M38.1348,42.1672 L37.2884,45.8944 L38.9974,45.8944 L38.1348,42.1672 Z M37.0443,40.5233 L39.2415,40.5233 L41.6992,49.6379 L39.8926,49.6379 L39.3392,47.3918 L36.9303,47.3918 L36.377,49.6379 L34.5703,49.6379 L37.0443,40.5233 Z " fill="#336699"/><text fill="#303030" font-family="Verdana" font-size="11.4583" font-style="italic" lengthAdjust="spacing" textLength="47.2824" x="62.5" y="49.1776">abstract</text><line style="stroke:#F3F3F3;stroke-width:1.0417;" x1="25" x2="122.2824" y1="67.5049" y2="67.5049"/><line style="stroke:#F3F3F3;stroke-width:1.0417;" x1="25" x2="122.2824" y1="75.8382" y2="75.8382"/></g><!--class abstract class--><g id="elem_abstract class"><rect codeLine="7" fill="url(#grqrurut9wy8h0)" height="61.2549" id="abstract class" rx="7.8125" ry="7.8125" style="stroke:#F3F3F3;stroke-width:1.0417;" width="131.4524" x="142.1875" y="22.9167"/><rect fill="url(#grqrurut9wy8h1)" height="44.5882" rx="7.8125" ry="7.8125" style="stroke:url(#grqrurut9wy8h1);stroke-width:1.0417;" width="131.4524" x="142.1875" y="22.9167"/><rect fill="url(#grqrurut9wy8h1)" height="7.8125" style="stroke:url(#grqrurut9wy8h1);stroke-width:1.0417;" width="131.4524" x="142.1875" y="59.6924"/><rect codeLine="7" fill="#FFFFFF" fill-opacity="0.00000" height="61.2549" id="abstract class" rx="7.8125" ry="7.8125" style="stroke:#F3F3F3;stroke-width:1.0417;" width="131.4524" x="142.1875" y="22.9167"/><ellipse cx="156.7708" cy="45.2108" fill="#FFFFFF" fill-opacity="0.00000" rx="10.4167" ry="10.4167" style="stroke:#888888;stroke-width:1.0417;"/><path d="M156.3639,42.1672 L155.5176,45.8944 L157.2266,45.8944 L156.3639,42.1672 Z M155.2734,40.5233 L157.4707,40.5233 L159.9284,49.6379 L158.1217,49.6379 L157.5684,47.3918 L155.1595,47.3918 L154.6061,49.6379 L152.7995,49.6379 L155.2734,40.5233 Z " fill="#336699"/><text fill="#303030" font-family="Verdana" font-size="11.4583" font-style="italic" lengthAdjust="spacing" textLength="79.3691" x="180.7292" y="49.1776">abstract class</text><line style="stroke:#F3F3F3;stroke-width:1.0417;" x1="143.2292" x2="272.5983" y1="67.5049" y2="67.5049"/><line style="stroke:#F3F3F3;stroke-width:1.0417;" x1="143.2292" x2="272.5983" y1="75.8382" y2="75.8382"/></g><!--class annotation--><g id="elem_annotation"><rect codeLine="8" fill="url(#grqrurut9wy8h0)" height="61.2549" id="annotation" rx="7.8125" ry="7.8125" style="stroke:#F3F3F3;stroke-width:1.0417;" width="114.1027" x="292.1875" y="22.9167"/><rect fill="url(#grqrurut9wy8h1)" height="44.5882" rx="7.8125" ry="7.8125" style="stroke:url(#grqrurut9wy8h1);stroke-width:1.0417;" width="114.1027" x="292.1875" y="22.9167"/><rect fill="url(#grqrurut9wy8h1)" height="7.8125" style="stroke:url(#grqrurut9wy8h1);stroke-width:1.0417;" width="114.1027" x="292.1875" y="59.6924"/><rect codeLine="8" fill="#FFFFFF" fill-opacity="0.00000" height="61.2549" id="annotation" rx="7.8125" ry="7.8125" style="stroke:#F3F3F3;stroke-width:1.0417;" width="114.1027" x="292.1875" y="22.9167"/><ellipse cx="306.7708" cy="45.2108" fill="#FFFFFF" fill-opacity="0.00000" rx="10.4167" ry="10.4167" style="stroke:#888888;stroke-width:1.0417;"/><path d="M308.0241,45.0155 Q308.0241,44.3156 307.7148,43.925 Q307.4056,43.5343 306.8522,43.5343 Q306.3151,43.5343 306.0059,43.925 Q305.6966,44.3156 305.6966,45.0155 Q305.6966,45.6991 306.0059,46.0897 Q306.3151,46.4803 306.8522,46.4803 Q307.4056,46.4803 307.7148,46.0897 Q308.0241,45.6991 308.0241,45.0155 Z M309.1634,47.5057 L307.959,47.5057 L307.959,47.0174 Q307.7311,47.3267 307.4056,47.4894 Q307.0964,47.6359 306.6569,47.6359 Q305.6641,47.6359 305.0456,46.9198 Q304.4271,46.1873 304.4271,45.0155 Q304.4271,43.8273 305.0293,43.1112 Q305.6478,42.395 306.6569,42.395 Q307.0964,42.395 307.4219,42.5415 Q307.7474,42.688 307.959,42.981 L307.959,42.7368 Q307.959,41.9067 307.5033,41.451 Q307.0475,40.9953 306.2174,40.9953 Q304.9479,40.9953 304.1341,42.1183 Q303.3366,43.2251 303.3366,45.0155 Q303.3366,46.8872 304.2643,48.0103 Q305.1921,49.117 306.7383,49.117 Q307.2266,49.117 307.6823,48.9705 Q308.138,48.8241 308.5612,48.5311 L309.1146,49.6053 Q308.6263,49.9471 308.0404,50.1099 Q307.4544,50.2889 306.8034,50.2889 Q304.6549,50.2889 303.3854,48.8566 Q302.1159,47.4406 302.1159,45.0155 Q302.1159,42.6554 303.2552,41.2394 Q304.4108,39.8234 306.2826,39.8234 Q307.6172,39.8234 308.3822,40.6209 Q309.1634,41.4185 309.1634,42.8182 L309.1634,47.5057 Z " fill="#336699"/><text fill="#303030" font-family="Verdana" font-size="11.4583" lengthAdjust="spacing" textLength="62.0193" x="330.7292" y="49.1776">annotation</text><line style="stroke:#F3F3F3;stroke-width:1.0417;" x1="293.2292" x2="405.2485" y1="67.5049" y2="67.5049"/><line style="stroke:#F3F3F3;stroke-width:1.0417;" x1="293.2292" x2="405.2485" y1="75.8382" y2="75.8382"/></g><!--entity circle--><g id="elem_circle"><ellipse cx="434.8958" cy="50.5208" fill="#FF5C5C" rx="8.3333" ry="8.3333" style="stroke:#FF3333;stroke-width:1.0417;"/><text fill="#303030" font-family="Verdana" font-size="12.5" lengthAdjust="spacing" textLength="33.5205" x="418.1356" y="90.2486">circle</text></g><!--entity circle_short_form--><g id="elem_circle_short_form"><ellipse cx="472.3958" cy="50.5208" fill="#FF5C5C" rx="8.3333" ry="8.3333" style="stroke:#FF3333;stroke-width:1.0417;"/><text fill="#303030" font-family="Verdana" font-size="12.5" lengthAdjust="spacing" textLength="107.5073" x="418.6422" y="90.2486">circle_short_form</text></g><!--class class--><g id="elem_class"><rect codeLine="11" fill="url(#grqrurut9wy8h0)" height="61.2549" id="class" rx="7.8125" ry="7.8125" style="stroke:#F3F3F3;stroke-width:1.0417;" width="80.5278" x="33.3333" y="137.5"/><rect fill="url(#grqrurut9wy8h1)" height="44.5882" rx="7.8125" ry="7.8125" style="stroke:url(#grqrurut9wy8h1);stroke-width:1.0417;" width="80.5278" x="33.3333" y="137.5"/><rect fill="url(#grqrurut9wy8h1)" height="7.8125" style="stroke:url(#grqrurut9wy8h1);stroke-width:1.0417;" width="80.5278" x="33.3333" y="174.2757"/><rect codeLine="11" fill="#FFFFFF" fill-opacity="0.00000" height="61.2549" id="class" rx="7.8125" ry="7.8125" style="stroke:#F3F3F3;stroke-width:1.0417;" width="80.5278" x="33.3333" y="137.5"/><ellipse cx="47.9167" cy="159.7941" fill="#FFFFFF" fill-opacity="0.00000" rx="10.4167" ry="10.4167" style="stroke:#888888;stroke-width:1.0417;"/><path d="M49.821,164.2212 Q49.3978,164.4328 48.9258,164.5467 Q48.4538,164.6606 47.9492,164.6606 Q46.0938,164.6606 45.1172,163.4562 Q44.1569,162.2355 44.1569,159.9406 Q44.1569,157.6294 45.1172,156.425 Q46.0938,155.2043 47.9492,155.2043 Q48.4538,155.2043 48.9258,155.3182 Q49.4141,155.4159 49.821,155.6437 L49.821,157.6457 Q49.3652,157.2225 48.9258,157.0272 Q48.4863,156.8156 48.0306,156.8156 Q47.0378,156.8156 46.5332,157.6131 Q46.0286,158.3944 46.0286,159.9406 Q46.0286,161.4705 46.5332,162.2518 Q47.0378,163.033 48.0306,163.033 Q48.4863,163.033 48.9258,162.8377 Q49.3652,162.6424 49.821,162.2192 L49.821,164.2212 Z " fill="#336699"/><text fill="#303030" font-family="Verdana" font-size="11.4583" lengthAdjust="spacing" textLength="28.4444" x="71.875" y="163.7609">class</text><line style="stroke:#F3F3F3;stroke-width:1.0417;" x1="34.375" x2="112.8194" y1="182.0882" y2="182.0882"/><line style="stroke:#F3F3F3;stroke-width:1.0417;" x1="34.375" x2="112.8194" y1="190.4215" y2="190.4215"/></g><!--class class_stereo--><g id="elem_class_stereo"><rect codeLine="12" fill="url(#grqrurut9wy8h0)" height="93.0013" id="class_stereo" rx="7.8125" ry="7.8125" style="stroke:#F3F3F3;stroke-width:1.0417;" width="122.5398" x="132.8125" y="121.875"/><rect fill="url(#grqrurut9wy8h1)" height="76.3346" rx="7.8125" ry="7.8125" style="stroke:url(#grqrurut9wy8h1);stroke-width:1.0417;" width="122.5398" x="132.8125" y="121.875"/><rect fill="url(#grqrurut9wy8h1)" height="7.8125" style="stroke:url(#grqrurut9wy8h1);stroke-width:1.0417;" width="122.5398" x="132.8125" y="190.3971"/><rect codeLine="12" fill="#FFFFFF" fill-opacity="0.00000" height="93.0013" id="class_stereo" rx="7.8125" ry="7.8125" style="stroke:#F3F3F3;stroke-width:1.0417;" width="122.5398" x="132.8125" y="121.875"/><ellipse cx="147.3958" cy="160.0423" fill="#FFFFFF" fill-opacity="0.00000" rx="10.4167" ry="10.4167" style="stroke:#888888;stroke-width:1.0417;"/><path d="M149.3001,164.4694 Q148.877,164.681 148.4049,164.7949 Q147.9329,164.9089 147.4284,164.9089 Q145.5729,164.9089 144.5964,163.7044 Q143.6361,162.4837 143.6361,160.1888 Q143.6361,157.8776 144.5964,156.6732 Q145.5729,155.4525 147.4284,155.4525 Q147.9329,155.4525 148.4049,155.5664 Q148.8932,155.6641 149.3001,155.8919 L149.3001,157.8939 Q148.8444,157.4707 148.4049,157.2754 Q147.9655,157.0638 147.5098,157.0638 Q146.5169,157.0638 146.0124,157.8613 Q145.5078,158.6426 145.5078,160.1888 Q145.5078,161.7188 146.0124,162.5 Q146.5169,163.2813 147.5098,163.2813 Q147.9655,163.2813 148.4049,163.0859 Q148.8444,162.8906 149.3001,162.4674 L149.3001,164.4694 Z " fill="#336699"/><text fill="#303030" font-family="Verdana" font-size="9.375" font-style="italic" lengthAdjust="spacing" textLength="62.2009" x="175.4819" y="146.2021">&#171;stereotype&#187;</text><text fill="#303030" font-family="Verdana" font-size="11.4583" lengthAdjust="spacing" textLength="70.4564" x="171.3542" y="179.8823">class_stereo</text><line style="stroke:#F3F3F3;stroke-width:1.0417;" x1="133.8542" x2="254.3106" y1="198.2096" y2="198.2096"/><line style="stroke:#F3F3F3;stroke-width:1.0417;" x1="133.8542" x2="254.3106" y1="206.543" y2="206.543"/></g><g id="elem_diamond"><polygon fill="url(#grqrurut9wy8h2)" points="286.9792,155.7292,299.4792,168.2292,286.9792,180.7292,274.4792,168.2292,286.9792,155.7292" style="stroke:#A8A8A8;stroke-width:1.0417;"/></g><polygon fill="url(#grqrurut9wy8h2)" points="330.7292,155.7292,343.2292,168.2292,330.7292,180.7292,318.2292,168.2292,330.7292,155.7292" style="stroke:#A8A8A8;stroke-width:1.0417;"/><!--class entity--><g id="elem_entity"><rect codeLine="15" fill="url(#grqrurut9wy8h0)" height="61.2549" id="entity" rx="7.8125" ry="7.8125" style="stroke:#F3F3F3;stroke-width:1.0417;" width="85.345" x="361.9792" y="137.5"/><rect fill="url(#grqrurut9wy8h1)" height="44.5882" rx="7.8125" ry="7.8125" style="stroke:url(#grqrurut9wy8h1);stroke-width:1.0417;" width="85.345" x="361.9792" y="137.5"/><rect fill="url(#grqrurut9wy8h1)" height="7.8125" style="stroke:url(#grqrurut9wy8h1);stroke-width:1.0417;" width="85.345" x="361.9792" y="174.2757"/><rect codeLine="15" fill="#FFFFFF" fill-opacity="0.00000" height="61.2549" id="entity" rx="7.8125" ry="7.8125" style="stroke:#F3F3F3;stroke-width:1.0417;" width="85.345" x="361.9792" y="137.5"/><ellipse cx="376.5625" cy="159.7941" fill="#FFFFFF" fill-opacity="0.00000" rx="10.4167" ry="10.4167" style="stroke:#888888;stroke-width:1.0417;"/><path d="M379.1016,164.4816 L373.4212,164.4816 L373.4212,155.367 L379.1016,155.367 L379.1016,156.9621 L375.2279,156.9621 L375.2279,158.9152 L378.7272,158.9152 L378.7272,160.5103 L375.2279,160.5103 L375.2279,162.8866 L379.1016,162.8866 L379.1016,164.4816 Z " fill="#336699"/><text fill="#303030" font-family="Verdana" font-size="11.4583" lengthAdjust="spacing" textLength="33.2616" x="400.5208" y="163.7609">entity</text><line style="stroke:#F3F3F3;stroke-width:1.0417;" x1="363.0208" x2="446.2825" y1="182.0882" y2="182.0882"/><line style="stroke:#F3F3F3;stroke-width:1.0417;" x1="363.0208" x2="446.2825" y1="190.4215" y2="190.4215"/></g><!--class enum--><g id="elem_enum"><rect codeLine="16" fill="url(#grqrurut9wy8h0)" height="61.2549" id="enum" rx="7.8125" ry="7.8125" style="stroke:#F3F3F3;stroke-width:1.0417;" width="84.819" x="31.25" y="252.0833"/><rect fill="url(#grqrurut9wy8h1)" height="44.5882" rx="7.8125" ry="7.8125" style="stroke:url(#grqrurut9wy8h1);stroke-width:1.0417;" width="84.819" x="31.25" y="252.0833"/><rect fill="url(#grqrurut9wy8h1)" height="7.8125" style="stroke:url(#grqrurut9wy8h1);stroke-width:1.0417;" width="84.819" x="31.25" y="288.859"/><rect codeLine="16" fill="#FFFFFF" fill-opacity="0.00000" height="61.2549" id="enum" rx="7.8125" ry="7.8125" style="stroke:#F3F3F3;stroke-width:1.0417;" width="84.819" x="31.25" y="252.0833"/><ellipse cx="45.8333" cy="274.3774" fill="#FFFFFF" fill-opacity="0.00000" rx="10.4167" ry="10.4167" style="stroke:#888888;stroke-width:1.0417;"/><path d="M48.3724,279.0649 L42.6921,279.0649 L42.6921,269.9504 L48.3724,269.9504 L48.3724,271.5454 L44.4987,271.5454 L44.4987,273.4985 L47.998,273.4985 L47.998,275.0936 L44.4987,275.0936 L44.4987,277.4699 L48.3724,277.4699 L48.3724,279.0649 Z " fill="#336699"/><text fill="#303030" font-family="Verdana" font-size="11.4583" lengthAdjust="spacing" textLength="32.7357" x="69.7917" y="278.3442">enum</text><line style="stroke:#F3F3F3;stroke-width:1.0417;" x1="32.2917" x2="115.0274" y1="296.6715" y2="296.6715"/><line style="stroke:#F3F3F3;stroke-width:1.0417;" x1="32.2917" x2="115.0274" y1="305.0049" y2="305.0049"/></g><!--class exception--><g id="elem_exception"><rect codeLine="17" fill="url(#grqrurut9wy8h0)" height="61.2549" id="exception" rx="7.8125" ry="7.8125" style="stroke:#F3F3F3;stroke-width:1.0417;" width="108.4854" x="134.8958" y="252.0833"/><rect fill="url(#grqrurut9wy8h1)" height="44.5882" rx="7.8125" ry="7.8125" style="stroke:url(#grqrurut9wy8h1);stroke-width:1.0417;" width="108.4854" x="134.8958" y="252.0833"/><rect fill="url(#grqrurut9wy8h1)" height="7.8125" style="stroke:url(#grqrurut9wy8h1);stroke-width:1.0417;" width="108.4854" x="134.8958" y="288.859"/><rect codeLine="17" fill="#FFFFFF" fill-opacity="0.00000" height="61.2549" id="exception" rx="7.8125" ry="7.8125" style="stroke:#F3F3F3;stroke-width:1.0417;" width="108.4854" x="134.8958" y="252.0833"/><ellipse cx="149.4792" cy="274.3774" fill="#FFFFFF" fill-opacity="0.00000" rx="10.4167" ry="10.4167" style="stroke:#888888;stroke-width:1.0417;"/><path d="M152.6693,279.0649 L150.8138,279.0649 L149.0723,276.0539 L147.347,279.0649 L145.4753,279.0649 L148.1445,274.4425 L145.5566,269.9504 L147.4121,269.9504 L149.0723,272.8475 L150.7324,269.9504 L152.6042,269.9504 L150.0163,274.4425 L152.6693,279.0649 Z " fill="#336699"/><text fill="#303030" font-family="Verdana" font-size="11.4583" lengthAdjust="spacing" textLength="56.4021" x="173.4375" y="278.3442">exception</text><line style="stroke:#F3F3F3;stroke-width:1.0417;" x1="135.9375" x2="242.3396" y1="296.6715" y2="296.6715"/><line style="stroke:#F3F3F3;stroke-width:1.0417;" x1="135.9375" x2="242.3396" y1="305.0049" y2="305.0049"/></g><!--class interface--><g id="elem_interface"><rect codeLine="18" fill="url(#grqrurut9wy8h0)" height="61.2549" id="interface" rx="7.8125" ry="7.8125" style="stroke:#F3F3F3;stroke-width:1.0417;" width="103.1871" x="262.5" y="252.0833"/><rect fill="url(#grqrurut9wy8h1)" height="44.5882" rx="7.8125" ry="7.8125" style="stroke:url(#grqrurut9wy8h1);stroke-width:1.0417;" width="103.1871" x="262.5" y="252.0833"/><rect fill="url(#grqrurut9wy8h1)" height="7.8125" style="stroke:url(#grqrurut9wy8h1);stroke-width:1.0417;" width="103.1871" x="262.5" y="288.859"/><rect codeLine="18" fill="#FFFFFF" fill-opacity="0.00000" height="61.2549" id="interface" rx="7.8125" ry="7.8125" style="stroke:#F3F3F3;stroke-width:1.0417;" width="103.1871" x="262.5" y="252.0833"/><ellipse cx="277.0833" cy="274.3774" fill="#FFFFFF" fill-opacity="0.00000" rx="10.4167" ry="10.4167" style="stroke:#888888;stroke-width:1.0417;"/><path d="M273.9746,271.5454 L273.9746,269.9504 L279.3945,269.9504 L279.3945,271.5454 L277.5879,271.5454 L277.5879,277.4699 L279.3945,277.4699 L279.3945,279.0649 L273.9746,279.0649 L273.9746,277.4699 L275.7813,277.4699 L275.7813,271.5454 L273.9746,271.5454 Z " fill="#336699"/><text fill="#303030" font-family="Verdana" font-size="11.4583" font-style="italic" lengthAdjust="spacing" textLength="51.1037" x="301.0417" y="278.3442">interface</text><line style="stroke:#F3F3F3;stroke-width:1.0417;" x1="263.5417" x2="364.6454" y1="296.6715" y2="296.6715"/><line style="stroke:#F3F3F3;stroke-width:1.0417;" x1="263.5417" x2="364.6454" y1="305.0049" y2="305.0049"/></g><!--class metaclass--><g id="elem_metaclass"><rect codeLine="19" fill="url(#grqrurut9wy8h0)" height="61.2549" id="metaclass" rx="7.8125" ry="7.8125" style="stroke:#F3F3F3;stroke-width:1.0417;" width="110.2534" x="384.8958" y="252.0833"/><rect fill="url(#grqrurut9wy8h1)" height="44.5882" rx="7.8125" ry="7.8125" style="stroke:url(#grqrurut9wy8h1);stroke-width:1.0417;" width="110.2534" x="384.8958" y="252.0833"/><rect fill="url(#grqrurut9wy8h1)" height="7.8125" style="stroke:url(#grqrurut9wy8h1);stroke-width:1.0417;" width="110.2534" x="384.8958" y="288.859"/><rect codeLine="19" fill="#FFFFFF" fill-opacity="0.00000" height="61.2549" id="metaclass" rx="7.8125" ry="7.8125" style="stroke:#F3F3F3;stroke-width:1.0417;" width="110.2534" x="384.8958" y="252.0833"/><ellipse cx="399.4792" cy="274.3774" fill="#FFFFFF" fill-opacity="0.00000" rx="10.4167" ry="10.4167" style="stroke:#888888;stroke-width:1.0417;"/><path d="M395.8333,269.9504 L397.9818,269.9504 L399.0723,273.9543 L400.1465,269.9504 L402.3112,269.9504 L402.3112,279.0649 L400.765,279.0649 L400.765,271.757 L399.8047,275.7446 L398.3724,275.7446 L397.3958,271.757 L397.3958,279.0649 L395.8333,279.0649 L395.8333,269.9504 Z " fill="#336699"/><text fill="#303030" font-family="Verdana" font-size="11.4583" lengthAdjust="spacing" textLength="58.1701" x="423.4375" y="278.3442">metaclass</text><line style="stroke:#F3F3F3;stroke-width:1.0417;" x1="385.9375" x2="494.1076" y1="296.6715" y2="296.6715"/><line style="stroke:#F3F3F3;stroke-width:1.0417;" x1="385.9375" x2="494.1076" y1="305.0049" y2="305.0049"/></g><!--class protocol--><g id="elem_protocol"><rect codeLine="20" fill="url(#grqrurut9wy8h0)" height="61.2549" id="protocol" rx="7.8125" ry="7.8125" style="stroke:#F3F3F3;stroke-width:1.0417;" width="99.0748" x="514.5833" y="252.0833"/><rect fill="url(#grqrurut9wy8h1)" height="44.5882" rx="7.8125" ry="7.8125" style="stroke:url(#grqrurut9wy8h1);stroke-width:1.0417;" width="99.0748" x="514.5833" y="252.0833"/><rect fill="url(#grqrurut9wy8h1)" height="7.8125" style="stroke:url(#grqrurut9wy8h1);stroke-width:1.0417;" width="99.0748" x="514.5833" y="288.859"/><rect codeLine="20" fill="#FFFFFF" fill-opacity="0.00000" height="61.2549" id="protocol" rx="7.8125" ry="7.8125" style="stroke:#F3F3F3;stroke-width:1.0417;" width="99.0748" x="514.5833" y="252.0833"/><ellipse cx="529.1667" cy="274.3774" fill="#FFFFFF" fill-opacity="0.00000" rx="10.4167" ry="10.4167" style="stroke:#888888;stroke-width:1.0417;"/><path d="M528.304,271.464 L528.304,274.1333 L529.0527,274.1333 Q529.9316,274.1333 530.2897,273.8403 Q530.6478,273.5474 530.6478,272.7987 Q530.6478,272.0662 530.2897,271.7733 Q529.9316,271.464 529.0527,271.464 L528.304,271.464 Z M526.5137,269.9504 L528.9876,269.9504 Q530.8757,269.9504 531.6895,270.634 Q532.5195,271.3013 532.5195,272.7987 Q532.5195,274.3123 531.6895,274.9797 Q530.8757,275.647 528.9876,275.647 L528.304,275.647 L528.304,279.0649 L526.5137,279.0649 L526.5137,269.9504 Z " fill="#336699"/><text fill="#303030" font-family="Verdana" font-size="11.4583" lengthAdjust="spacing" textLength="46.9915" x="553.125" y="278.3442">protocol</text><line style="stroke:#F3F3F3;stroke-width:1.0417;" x1="515.625" x2="612.6165" y1="296.6715" y2="296.6715"/><line style="stroke:#F3F3F3;stroke-width:1.0417;" x1="515.625" x2="612.6165" y1="305.0049" y2="305.0049"/></g><!--class stereotype--><g id="elem_stereotype"><rect codeLine="21" fill="url(#grqrurut9wy8h0)" height="61.2549" id="stereotype" rx="7.8125" ry="7.8125" style="stroke:#F3F3F3;stroke-width:1.0417;" width="113.9628" x="16.6667" y="351.0417"/><rect fill="url(#grqrurut9wy8h1)" height="44.5882" rx="7.8125" ry="7.8125" style="stroke:url(#grqrurut9wy8h1);stroke-width:1.0417;" width="113.9628" x="16.6667" y="351.0417"/><rect fill="url(#grqrurut9wy8h1)" height="7.8125" style="stroke:url(#grqrurut9wy8h1);stroke-width:1.0417;" width="113.9628" x="16.6667" y="387.8174"/><rect codeLine="21" fill="#FFFFFF" fill-opacity="0.00000" height="61.2549" id="stereotype" rx="7.8125" ry="7.8125" style="stroke:#F3F3F3;stroke-width:1.0417;" width="113.9628" x="16.6667" y="351.0417"/><ellipse cx="31.25" cy="373.3358" fill="#FFFFFF" fill-opacity="0.00000" rx="10.4167" ry="10.4167" style="stroke:#888888;stroke-width:1.0417;"/><path d="M30.1921,374.0194 Q28.8411,373.4985 28.3529,372.9289 Q27.8646,372.3592 27.8646,371.3989 Q27.8646,370.1619 28.6621,369.4621 Q29.4596,368.7459 30.8431,368.7459 Q31.4779,368.7459 32.0964,368.8924 Q32.7311,369.0389 33.3496,369.3156 L33.3496,371.0734 Q32.7637,370.6665 32.1615,370.4549 Q31.5755,370.2271 30.9896,370.2271 Q30.3385,370.2271 29.9805,370.5037 Q29.6387,370.7642 29.6387,371.2524 Q29.6387,371.6268 29.8828,371.8709 Q30.1432,372.1151 30.9408,372.4243 L31.722,372.7173 Q32.8288,373.1079 33.3333,373.7752 Q33.8542,374.4425 33.8542,375.4517 Q33.8542,376.8351 33.0404,377.5187 Q32.2266,378.2023 30.5827,378.2023 Q29.8991,378.2023 29.2155,378.0396 Q28.5482,377.8768 27.9134,377.5513 L27.9134,375.6958 Q28.6296,376.2166 29.2969,376.4608 Q29.9805,376.7049 30.6315,376.7049 Q31.2988,376.7049 31.6569,376.4119 Q32.0313,376.1027 32.0313,375.5656 Q32.0313,375.1587 31.7871,374.8494 Q31.543,374.5402 31.0872,374.3612 L30.1921,374.0194 Z " fill="#336699"/><text fill="#303030" font-family="Verdana" font-size="11.4583" lengthAdjust="spacing" textLength="61.8795" x="55.2083" y="377.3026">stereotype</text><line style="stroke:#F3F3F3;stroke-width:1.0417;" x1="17.7083" x2="129.5878" y1="395.6299" y2="395.6299"/><line style="stroke:#F3F3F3;stroke-width:1.0417;" x1="17.7083" x2="129.5878" y1="403.9632" y2="403.9632"/></g><!--class struct--><g id="elem_struct"><rect codeLine="22" fill="url(#grqrurut9wy8h0)" height="61.2549" id="struct" rx="7.8125" ry="7.8125" style="stroke:#F3F3F3;stroke-width:1.0417;" width="85.3114" x="149.4792" y="351.0417"/><rect fill="url(#grqrurut9wy8h1)" height="44.5882" rx="7.8125" ry="7.8125" style="stroke:url(#grqrurut9wy8h1);stroke-width:1.0417;" width="85.3114" x="149.4792" y="351.0417"/><rect fill="url(#grqrurut9wy8h1)" height="7.8125" style="stroke:url(#grqrurut9wy8h1);stroke-width:1.0417;" width="85.3114" x="149.4792" y="387.8174"/><rect codeLine="22" fill="#FFFFFF" fill-opacity="0.00000" height="61.2549" id="struct" rx="7.8125" ry="7.8125" style="stroke:#F3F3F3;stroke-width:1.0417;" width="85.3114" x="149.4792" y="351.0417"/><ellipse cx="164.0625" cy="373.3358" fill="#FFFFFF" fill-opacity="0.00000" rx="10.4167" ry="10.4167" style="stroke:#888888;stroke-width:1.0417;"/><path d="M163.0046,374.0194 Q161.6536,373.4985 161.1654,372.9289 Q160.6771,372.3592 160.6771,371.3989 Q160.6771,370.1619 161.4746,369.4621 Q162.2721,368.7459 163.6556,368.7459 Q164.2904,368.7459 164.9089,368.8924 Q165.5436,369.0389 166.1621,369.3156 L166.1621,371.0734 Q165.5762,370.6665 164.974,370.4549 Q164.388,370.2271 163.8021,370.2271 Q163.151,370.2271 162.793,370.5037 Q162.4512,370.7642 162.4512,371.2524 Q162.4512,371.6268 162.6953,371.8709 Q162.9557,372.1151 163.7533,372.4243 L164.5345,372.7173 Q165.6413,373.1079 166.1458,373.7752 Q166.6667,374.4425 166.6667,375.4517 Q166.6667,376.8351 165.8529,377.5187 Q165.0391,378.2023 163.3952,378.2023 Q162.7116,378.2023 162.028,378.0396 Q161.3607,377.8768 160.7259,377.5513 L160.7259,375.6958 Q161.4421,376.2166 162.1094,376.4608 Q162.793,376.7049 163.444,376.7049 Q164.1113,376.7049 164.4694,376.4119 Q164.8438,376.1027 164.8438,375.5656 Q164.8438,375.1587 164.5996,374.8494 Q164.3555,374.5402 163.8997,374.3612 L163.0046,374.0194 Z " fill="#336699"/><text fill="#303030" font-family="Verdana" font-size="11.4583" lengthAdjust="spacing" textLength="33.228" x="188.0208" y="377.3026">struct</text><line style="stroke:#F3F3F3;stroke-width:1.0417;" x1="150.5208" x2="233.7489" y1="395.6299" y2="395.6299"/><line style="stroke:#F3F3F3;stroke-width:1.0417;" x1="150.5208" x2="233.7489" y1="403.9632" y2="403.9632"/></g></g></svg>