<svg xmlns="http://www.w3.org/2000/svg" xmlns:xlink="http://www.w3.org/1999/xlink" contentStyleType="text/css" data-diagram-type="CLASS" height="879.1667px" preserveAspectRatio="none" style="width:988px;height:879px;" version="1.1" viewBox="0 0 988 879" width="988.5417px" zoomAndPan="magnify"><defs><linearGradient id="glarsgz4izqwf0" x1="50%" x2="50%" y1="0%" y2="100%"><stop offset="0%" stop-color="#EEEEEE"/><stop offset="100%" stop-color="#BEBEBE"/></linearGradient><linearGradient id="glarsgz4izqwf1" x1="50%" x2="50%" y1="0%" y2="100%"><stop offset="0%" stop-color="#F1F1F1"/><stop offset="100%" stop-color="#BEBEBE"/></linearGradient><linearGradient id="glarsgz4izqwf2" x1="50%" x2="50%" y1="0%" y2="100%"><stop offset="0%" stop-color="#5C85AD"/><stop offset="100%" stop-color="#336699"/></linearGradient></defs><g><!--cluster foo_frame--><g id="cluster_foo_frame"><rect fill="url(#glarsgz4izqwf0)" height="123.9583" rx="7.8125" ry="7.8125" style="stroke:#336699;stroke-width:2.0833;" width="218.75" x="683.3333" y="28.6458"/><path d="M780.8207,28.6458 L780.8207,52.5716 L770.4041,62.9883 L683.3333,62.9883 " fill="#FFFFFF" fill-opacity="0.00000" style="stroke:#336699;stroke-width:2.0833;"/><text fill="#336699" font-family="Verdana" font-size="12.5" font-weight="bold" lengthAdjust="spacing" textLength="70.4041" x="694.7917" y="49.6236">foo_frame</text></g><!--class AbstractList--><g id="elem_AbstractList"><rect codeLine="7" fill="url(#glarsgz4izqwf0)" height="37.9964" id="AbstractList" rx="7.8125" ry="7.8125" style="stroke:#F1F1F1;stroke-width:1.0417;" width="103.6585" x="278.125" y="423.4375"/><rect fill="url(#glarsgz4izqwf1)" height="37.9964" rx="7.8125" ry="7.8125" style="stroke:url(#glarsgz4izqwf1);stroke-width:1.0417;" width="103.6585" x="278.125" y="423.4375"/><rect fill="url(#glarsgz4izqwf1)" height="7.8125" style="stroke:url(#glarsgz4izqwf1);stroke-width:1.0417;" width="103.6585" x="278.125" y="453.6214"/><rect codeLine="7" fill="#FFFFFF" fill-opacity="0.00000" height="37.9964" id="AbstractList" rx="7.8125" ry="7.8125" style="stroke:#F1F1F1;stroke-width:1.0417;" width="103.6585" x="278.125" y="423.4375"/><ellipse cx="292.7083" cy="442.4357" fill="#FFFFFF" fill-opacity="0.00000" rx="10.4167" ry="10.4167" style="stroke:#BEBEBE;stroke-width:1.0417;"/><path d="M292.3014,439.3921 L291.4551,443.1193 L293.1641,443.1193 L292.3014,439.3921 Z M291.2109,437.7482 L293.4082,437.7482 L295.8659,446.8628 L294.0592,446.8628 L293.5059,444.6167 L291.097,444.6167 L290.5436,446.8628 L288.737,446.8628 L291.2109,437.7482 Z " fill="#336699"/><text fill="#303030" font-family="Verdana" font-size="9.375" font-style="italic" lengthAdjust="spacing" textLength="55.7419" x="314.5833" y="445.6813">AbstractList</text></g><!--class AbstractCollection--><g id="elem_AbstractCollection"><rect codeLine="8" fill="url(#glarsgz4izqwf0)" height="37.9964" id="AbstractCollection" rx="7.8125" ry="7.8125" style="stroke:#F1F1F1;stroke-width:1.0417;" width="133.6421" x="22.9167" y="423.4375"/><rect fill="url(#glarsgz4izqwf1)" height="37.9964" rx="7.8125" ry="7.8125" style="stroke:url(#glarsgz4izqwf1);stroke-width:1.0417;" width="133.6421" x="22.9167" y="423.4375"/><rect fill="url(#glarsgz4izqwf1)" height="7.8125" style="stroke:url(#glarsgz4izqwf1);stroke-width:1.0417;" width="133.6421" x="22.9167" y="453.6214"/><rect codeLine="8" fill="#FFFFFF" fill-opacity="0.00000" height="37.9964" id="AbstractCollection" rx="7.8125" ry="7.8125" style="stroke:#F1F1F1;stroke-width:1.0417;" width="133.6421" x="22.9167" y="423.4375"/><ellipse cx="37.5" cy="442.4357" fill="#FFFFFF" fill-opacity="0.00000" rx="10.4167" ry="10.4167" style="stroke:#BEBEBE;stroke-width:1.0417;"/><path d="M37.0931,439.3921 L36.2467,443.1193 L37.9557,443.1193 L37.0931,439.3921 Z M36.0026,437.7482 L38.1999,437.7482 L40.6576,446.8628 L38.8509,446.8628 L38.2975,444.6167 L35.8887,444.6167 L35.3353,446.8628 L33.5286,446.8628 L36.0026,437.7482 Z " fill="#336699"/><text fill="#303030" font-family="Verdana" font-size="9.375" font-style="italic" lengthAdjust="spacing" textLength="85.7254" x="59.375" y="445.6813">AbstractCollection</text></g><!--class List--><g id="elem_List"><rect codeLine="9" fill="url(#glarsgz4izqwf0)" height="37.9964" id="List" rx="7.8125" ry="7.8125" style="stroke:#F1F1F1;stroke-width:1.0417;" width="64.3046" x="262.5" y="88.5417"/><rect fill="url(#glarsgz4izqwf1)" height="37.9964" rx="7.8125" ry="7.8125" style="stroke:url(#glarsgz4izqwf1);stroke-width:1.0417;" width="64.3046" x="262.5" y="88.5417"/><rect fill="url(#glarsgz4izqwf1)" height="7.8125" style="stroke:url(#glarsgz4izqwf1);stroke-width:1.0417;" width="64.3046" x="262.5" y="118.7256"/><rect codeLine="9" fill="#FFFFFF" fill-opacity="0.00000" height="37.9964" id="List" rx="7.8125" ry="7.8125" style="stroke:#F1F1F1;stroke-width:1.0417;" width="64.3046" x="262.5" y="88.5417"/><ellipse cx="277.0833" cy="107.5399" fill="#FFFFFF" fill-opacity="0.00000" rx="10.4167" ry="10.4167" style="stroke:#BEBEBE;stroke-width:1.0417;"/><path d="M273.9746,104.7078 L273.9746,103.1128 L279.3945,103.1128 L279.3945,104.7078 L277.5879,104.7078 L277.5879,110.6323 L279.3945,110.6323 L279.3945,112.2274 L273.9746,112.2274 L273.9746,110.6323 L275.7813,110.6323 L275.7813,104.7078 L273.9746,104.7078 Z " fill="#336699"/><text fill="#303030" font-family="Verdana" font-size="9.375" font-style="italic" lengthAdjust="spacing" textLength="16.3879" x="298.9583" y="110.7854">List</text></g><!--class Collection--><g id="elem_Collection"><rect codeLine="10" fill="url(#glarsgz4izqwf0)" height="37.9964" id="Collection" rx="7.8125" ry="7.8125" style="stroke:#F1F1F1;stroke-width:1.0417;" width="94.2881" x="58.8542" y="88.5417"/><rect fill="url(#glarsgz4izqwf1)" height="37.9964" rx="7.8125" ry="7.8125" style="stroke:url(#glarsgz4izqwf1);stroke-width:1.0417;" width="94.2881" x="58.8542" y="88.5417"/><rect fill="url(#glarsgz4izqwf1)" height="7.8125" style="stroke:url(#glarsgz4izqwf1);stroke-width:1.0417;" width="94.2881" x="58.8542" y="118.7256"/><rect codeLine="10" fill="#FFFFFF" fill-opacity="0.00000" height="37.9964" id="Collection" rx="7.8125" ry="7.8125" style="stroke:#F1F1F1;stroke-width:1.0417;" width="94.2881" x="58.8542" y="88.5417"/><ellipse cx="73.4375" cy="107.5399" fill="#FFFFFF" fill-opacity="0.00000" rx="10.4167" ry="10.4167" style="stroke:#BEBEBE;stroke-width:1.0417;"/><path d="M70.3288,104.7078 L70.3288,103.1128 L75.7487,103.1128 L75.7487,104.7078 L73.9421,104.7078 L73.9421,110.6323 L75.7487,110.6323 L75.7487,112.2274 L70.3288,112.2274 L70.3288,110.6323 L72.1354,110.6323 L72.1354,104.7078 L70.3288,104.7078 Z " fill="#336699"/><text fill="#303030" font-family="Verdana" font-size="9.375" font-style="italic" lengthAdjust="spacing" textLength="46.3715" x="95.3125" y="110.7854">Collection</text></g><!--class ArrayList--><g id="elem_ArrayList"><rect codeLine="20" fill="url(#glarsgz4izqwf0)" height="109.8226" id="ArrayList" rx="7.8125" ry="7.8125" style="stroke:#F1F1F1;stroke-width:1.0417;" width="131.0374" x="212.5" y="757.2917"/><rect fill="url(#glarsgz4izqwf1)" height="37.9964" rx="7.8125" ry="7.8125" style="stroke:url(#glarsgz4izqwf1);stroke-width:1.0417;" width="131.0374" x="212.5" y="757.2917"/><rect fill="url(#glarsgz4izqwf1)" height="7.8125" style="stroke:url(#glarsgz4izqwf1);stroke-width:1.0417;" width="131.0374" x="212.5" y="787.4756"/><rect codeLine="20" fill="#FFFFFF" fill-opacity="0.00000" height="109.8226" id="ArrayList" rx="7.8125" ry="7.8125" style="stroke:#F1F1F1;stroke-width:1.0417;" width="131.0374" x="212.5" y="757.2917"/><ellipse cx="245.6763" cy="776.2899" fill="#FFFFFF" fill-opacity="0.00000" rx="10.4167" ry="10.4167" style="stroke:#BEBEBE;stroke-width:1.0417;"/><path d="M247.5806,780.717 Q247.1574,780.9285 246.6854,781.0425 Q246.2134,781.1564 245.7089,781.1564 Q243.8534,781.1564 242.8768,779.952 Q241.9166,778.7313 241.9166,776.4364 Q241.9166,774.1252 242.8768,772.9207 Q243.8534,771.7 245.7089,771.7 Q246.2134,771.7 246.6854,771.814 Q247.1737,771.9116 247.5806,772.1395 L247.5806,774.1414 Q247.1249,773.7183 246.6854,773.5229 Q246.246,773.3114 245.7903,773.3114 Q244.7974,773.3114 244.2929,774.1089 Q243.7883,774.8901 243.7883,776.4364 Q243.7883,777.9663 244.2929,778.7476 Q244.7974,779.5288 245.7903,779.5288 Q246.246,779.5288 246.6854,779.3335 Q247.1249,779.1382 247.5806,778.715 L247.5806,780.717 Z " fill="#336699"/><text fill="#303030" font-family="Verdana" font-size="9.375" lengthAdjust="spacing" textLength="41.803" x="271.6831" y="779.5354">ArrayList</text><line style="stroke:#F1F1F1;stroke-width:1.0417;" x1="213.5417" x2="342.4957" y1="795.2881" y2="795.2881"/><text fill="#303030" font-family="Verdana" font-size="9.375" lengthAdjust="spacing" textLength="101.8707" x="227.0833" y="816.4902">Object[] elementData</text><line style="stroke:#F1F1F1;stroke-width:1.0417;" x1="213.5417" x2="342.4957" y1="831.2012" y2="831.2012"/><text fill="#303030" font-family="Verdana" font-size="9.375" lengthAdjust="spacing" textLength="25.4929" x="227.0833" y="852.4033">size()</text></g><!--class TimeUnit--><g id="elem_TimeUnit"><rect codeLine="25" fill="url(#glarsgz4izqwf0)" height="129.069" id="TimeUnit" rx="7.8125" ry="7.8125" style="stroke:#F1F1F1;stroke-width:1.0417;" width="90.2323" x="413.0208" y="42.7083"/><rect fill="url(#glarsgz4izqwf1)" height="37.9964" rx="7.8125" ry="7.8125" style="stroke:url(#glarsgz4izqwf1);stroke-width:1.0417;" width="90.2323" x="413.0208" y="42.7083"/><rect fill="url(#glarsgz4izqwf1)" height="7.8125" style="stroke:url(#glarsgz4izqwf1);stroke-width:1.0417;" width="90.2323" x="413.0208" y="72.8923"/><rect codeLine="25" fill="#FFFFFF" fill-opacity="0.00000" height="129.069" id="TimeUnit" rx="7.8125" ry="7.8125" style="stroke:#F1F1F1;stroke-width:1.0417;" width="90.2323" x="413.0208" y="42.7083"/><ellipse cx="427.6042" cy="61.7065" fill="#FFFFFF" fill-opacity="0.00000" rx="10.4167" ry="10.4167" style="stroke:#BEBEBE;stroke-width:1.0417;"/><path d="M430.1432,66.394 L424.4629,66.394 L424.4629,57.2795 L430.1432,57.2795 L430.1432,58.8745 L426.2695,58.8745 L426.2695,60.8276 L429.7689,60.8276 L429.7689,62.4227 L426.2695,62.4227 L426.2695,64.799 L430.1432,64.799 L430.1432,66.394 Z " fill="#336699"/><text fill="#303030" font-family="Verdana" font-size="9.375" lengthAdjust="spacing" textLength="42.3157" x="449.4792" y="64.9521">TimeUnit</text><line style="stroke:#F1F1F1;stroke-width:1.0417;" x1="414.0625" x2="502.2115" y1="80.7048" y2="80.7048"/><text fill="#303030" font-family="Verdana" font-size="9.375" lengthAdjust="spacing" textLength="25.3098" x="427.6042" y="101.9068">DAYS</text><text fill="#303030" font-family="Verdana" font-size="9.375" lengthAdjust="spacing" textLength="33.7555" x="427.6042" y="129.4866">HOURS</text><text fill="#303030" font-family="Verdana" font-size="9.375" lengthAdjust="spacing" textLength="42.3294" x="427.6042" y="157.0663">MINUTES</text></g><!--class SuppressWarnings--><g id="elem_SuppressWarnings"><rect codeLine="31" fill="url(#glarsgz4izqwf0)" height="37.9964" id="SuppressWarnings" rx="7.8125" ry="7.8125" style="stroke:#F1F1F1;stroke-width:1.0417;" width="135.2946" x="362.5" y="793.2292"/><rect fill="url(#glarsgz4izqwf1)" height="37.9964" rx="7.8125" ry="7.8125" style="stroke:url(#glarsgz4izqwf1);stroke-width:1.0417;" width="135.2946" x="362.5" y="793.2292"/><rect fill="url(#glarsgz4izqwf1)" height="7.8125" style="stroke:url(#glarsgz4izqwf1);stroke-width:1.0417;" width="135.2946" x="362.5" y="823.4131"/><rect codeLine="31" fill="#FFFFFF" fill-opacity="0.00000" height="37.9964" id="SuppressWarnings" rx="7.8125" ry="7.8125" style="stroke:#F1F1F1;stroke-width:1.0417;" width="135.2946" x="362.5" y="793.2292"/><ellipse cx="377.0833" cy="812.2274" fill="#FFFFFF" fill-opacity="0.00000" rx="10.4167" ry="10.4167" style="stroke:#BEBEBE;stroke-width:1.0417;"/><path d="M378.3366,812.0321 Q378.3366,811.3322 378.0273,810.9416 Q377.7181,810.5509 377.1647,810.5509 Q376.6276,810.5509 376.3184,810.9416 Q376.0091,811.3322 376.0091,812.0321 Q376.0091,812.7157 376.3184,813.1063 Q376.6276,813.4969 377.1647,813.4969 Q377.7181,813.4969 378.0273,813.1063 Q378.3366,812.7157 378.3366,812.0321 Z M379.4759,814.5223 L378.2715,814.5223 L378.2715,814.034 Q378.0436,814.3433 377.7181,814.506 Q377.4089,814.6525 376.9694,814.6525 Q375.9766,814.6525 375.3581,813.9364 Q374.7396,813.2039 374.7396,812.0321 Q374.7396,810.8439 375.3418,810.1278 Q375.9603,809.4116 376.9694,809.4116 Q377.4089,809.4116 377.7344,809.5581 Q378.0599,809.7046 378.2715,809.9976 L378.2715,809.7534 Q378.2715,808.9233 377.8158,808.4676 Q377.36,808.0119 376.5299,808.0119 Q375.2604,808.0119 374.4466,809.1349 Q373.6491,810.2417 373.6491,812.0321 Q373.6491,813.9038 374.5768,815.0269 Q375.5046,816.1336 377.0508,816.1336 Q377.5391,816.1336 377.9948,815.9871 Q378.4505,815.8407 378.8737,815.5477 L379.4271,816.6219 Q378.9388,816.9637 378.3529,817.1265 Q377.7669,817.3055 377.1159,817.3055 Q374.9674,817.3055 373.6979,815.8732 Q372.4284,814.4572 372.4284,812.0321 Q372.4284,809.672 373.5677,808.256 Q374.7233,806.84 376.5951,806.84 Q377.9297,806.84 378.6947,807.6375 Q379.4759,808.4351 379.4759,809.8348 L379.4759,814.5223 Z " fill="#336699"/><text fill="#303030" font-family="Verdana" font-size="9.375" lengthAdjust="spacing" textLength="87.3779" x="398.9583" y="815.4729">SuppressWarnings</text></g><!--class Annotation--><g id="elem_Annotation"><rect codeLine="33" fill="url(#glarsgz4izqwf0)" height="168.6198" id="Annotation" rx="7.8125" ry="7.8125" style="stroke:#F1F1F1;stroke-width:1.0417;" width="150.2497" x="522.9167" y="22.9167"/><rect fill="url(#glarsgz4izqwf1)" height="69.2139" rx="7.8125" ry="7.8125" style="stroke:url(#glarsgz4izqwf1);stroke-width:1.0417;" width="150.2497" x="522.9167" y="22.9167"/><rect fill="url(#glarsgz4izqwf1)" height="7.8125" style="stroke:url(#glarsgz4izqwf1);stroke-width:1.0417;" width="150.2497" x="522.9167" y="84.318"/><rect codeLine="33" fill="#FFFFFF" fill-opacity="0.00000" height="168.6198" id="Annotation" rx="7.8125" ry="7.8125" style="stroke:#F1F1F1;stroke-width:1.0417;" width="150.2497" x="522.9167" y="22.9167"/><ellipse cx="548.1043" cy="57.5236" fill="#FFFFFF" fill-opacity="0.00000" rx="10.4167" ry="10.4167" style="stroke:#BEBEBE;stroke-width:1.0417;"/><path d="M549.3576,57.3283 Q549.3576,56.6284 549.0483,56.2378 Q548.7391,55.8472 548.1857,55.8472 Q547.6486,55.8472 547.3394,56.2378 Q547.0301,56.6284 547.0301,57.3283 Q547.0301,58.0119 547.3394,58.4025 Q547.6486,58.7931 548.1857,58.7931 Q548.7391,58.7931 549.0483,58.4025 Q549.3576,58.0119 549.3576,57.3283 Z M550.4969,59.8185 L549.2925,59.8185 L549.2925,59.3302 Q549.0646,59.6395 548.7391,59.8022 Q548.4298,59.9487 547.9904,59.9487 Q546.9976,59.9487 546.3791,59.2326 Q545.7606,58.5002 545.7606,57.3283 Q545.7606,56.1401 546.3628,55.424 Q546.9813,54.7078 547.9904,54.7078 Q548.4298,54.7078 548.7554,54.8543 Q549.0809,55.0008 549.2925,55.2938 L549.2925,55.0496 Q549.2925,54.2196 548.8367,53.7638 Q548.381,53.3081 547.5509,53.3081 Q546.2814,53.3081 545.4676,54.4312 Q544.6701,55.5379 544.6701,57.3283 Q544.6701,59.2 545.5978,60.3231 Q546.5255,61.4299 548.0718,61.4299 Q548.5601,61.4299 549.0158,61.2834 Q549.4715,61.1369 549.8947,60.8439 L550.4481,61.9181 Q549.9598,62.2599 549.3739,62.4227 Q548.7879,62.6017 548.1369,62.6017 Q545.9884,62.6017 544.7189,61.1694 Q543.4494,59.7534 543.4494,57.3283 Q543.4494,54.9683 544.5887,53.5522 Q545.7443,52.1362 547.616,52.1362 Q548.9507,52.1362 549.7157,52.9338 Q550.4969,53.7313 550.4969,55.131 L550.4969,59.8185 Z " fill="#336699"/><text fill="#303030" font-family="Verdana" font-size="12.5" font-style="italic" lengthAdjust="spacing" textLength="82.9346" x="570.2525" y="48.0611">&#171;stereotype&#187;</text><text fill="#303030" font-family="Verdana" font-size="9.375" lengthAdjust="spacing" textLength="51.4114" x="586.0141" y="76.3779">Annotation</text><line style="stroke:#F1F1F1;stroke-width:1.0417;" x1="523.9583" x2="672.1247" y1="92.1305" y2="92.1305"/><text fill="#303030" font-family="Verdana" font-size="9.375" lengthAdjust="spacing" textLength="121.0831" x="537.5" y="113.3326">annotation with members</text><line style="stroke:#F1F1F1;stroke-width:1.0417;" x1="523.9583" x2="672.1247" y1="128.0436" y2="128.0436"/><text fill="#303030" font-family="Verdana" font-size="9.375" lengthAdjust="spacing" textLength="53.0457" x="537.5" y="149.2457">String foo()</text><text fill="#303030" font-family="Verdana" font-size="9.375" lengthAdjust="spacing" textLength="53.8239" x="537.5" y="176.8255">String bar()</text></g><!--class Dummy--><g id="elem_Dummy"><rect codeLine="39" fill="url(#glarsgz4izqwf0)" height="220.1416" id="Dummy" rx="7.8125" ry="7.8125" style="stroke:#F1F1F1;stroke-width:1.0417;" width="113.9318" x="401.5625" y="332.2917"/><rect fill="url(#glarsgz4izqwf1)" height="37.9964" rx="7.8125" ry="7.8125" style="stroke:url(#glarsgz4izqwf1);stroke-width:1.0417;" width="113.9318" x="401.5625" y="332.2917"/><rect fill="url(#glarsgz4izqwf1)" height="7.8125" style="stroke:url(#glarsgz4izqwf1);stroke-width:1.0417;" width="113.9318" x="401.5625" y="362.4756"/><rect codeLine="39" fill="#FFFFFF" fill-opacity="0.00000" height="220.1416" id="Dummy" rx="7.8125" ry="7.8125" style="stroke:#F1F1F1;stroke-width:1.0417;" width="113.9318" x="401.5625" y="332.2917"/><ellipse cx="429.2145" cy="351.2899" fill="#FFFFFF" fill-opacity="0.00000" rx="10.4167" ry="10.4167" style="stroke:#BEBEBE;stroke-width:1.0417;"/><path d="M431.1188,355.717 Q430.6956,355.9285 430.2236,356.0425 Q429.7516,356.1564 429.2471,356.1564 Q427.3916,356.1564 426.415,354.952 Q425.4548,353.7313 425.4548,351.4364 Q425.4548,349.1252 426.415,347.9207 Q427.3916,346.7 429.2471,346.7 Q429.7516,346.7 430.2236,346.814 Q430.7119,346.9116 431.1188,347.1395 L431.1188,349.1414 Q430.6631,348.7183 430.2236,348.5229 Q429.7842,348.3114 429.3285,348.3114 Q428.3356,348.3114 427.8311,349.1089 Q427.3265,349.8901 427.3265,351.4364 Q427.3265,352.9663 427.8311,353.7476 Q428.3356,354.5288 429.3285,354.5288 Q429.7842,354.5288 430.2236,354.3335 Q430.6631,354.1382 431.1188,353.715 L431.1188,355.717 Z " fill="#336699"/><text fill="#303030" font-family="Verdana" font-size="9.375" lengthAdjust="spacing" textLength="36.9736" x="453.9937" y="354.5354">Dummy</text><line style="stroke:#F1F1F1;stroke-width:1.0417;" x1="402.6042" x2="514.4526" y1="370.2881" y2="370.2881"/><rect fill="#FFFFFF" fill-opacity="0.00000" height="6.25" style="stroke:#BEBEBE;stroke-width:1.0417;" width="6.25" x="409.8958" y="386.6821"/><text fill="#303030" font-family="Verdana" font-size="9.375" lengthAdjust="spacing" textLength="26.1932" x="429.6875" y="391.4902">field1</text><polygon fill="#FFFFFF" fill-opacity="0.00000" points="413.0208,412.1785,417.1875,416.3452,413.0208,420.5119,408.8542,416.3452" style="stroke:#BEBEBE;stroke-width:1.0417;"/><text fill="#303030" font-family="Verdana" font-size="9.375" lengthAdjust="spacing" textLength="26.1932" x="429.6875" y="419.0699">field2</text><text fill="#303030" font-family="Verdana" font-size="9.375" lengthAdjust="spacing" text-decoration="underline" textLength="39.5142" x="429.6875" y="446.6497">String id</text><line style="stroke:#F1F1F1;stroke-width:1.0417;" x1="402.6042" x2="514.4526" y1="461.3607" y2="461.3607"/><polygon fill="url(#glarsgz4izqwf0)" points="413.0208,476.7131,408.8542,482.9631,417.1875,482.9631" style="stroke:#F1F1F1;stroke-width:1.0417;"/><text fill="#303030" font-family="Verdana" font-size="9.375" lengthAdjust="spacing" textLength="49.4843" x="429.6875" y="482.5628">method1()</text><ellipse cx="413.0208" cy="508.4595" fill="#FFFFFF" fill-opacity="0.00000" rx="3.125" ry="3.125" style="stroke:#BEBEBE;stroke-width:1.0417;"/><text fill="#303030" font-family="Verdana" font-size="9.375" lengthAdjust="spacing" textLength="49.4843" x="429.6875" y="510.1425">method2()</text><text fill="#303030" font-family="Verdana" font-size="9.375" font-style="italic" lengthAdjust="spacing" textLength="71.2234" x="429.6875" y="537.7223">void methods()</text></g><g id="elem_N1"><path d="M16.6667,798.9583 L16.6667,824.9674 A7.8125,7.8125 0 0 0 24.4792,832.7799 L182.0516,832.7799 A7.8125,7.8125 0 0 0 189.8641,824.9674 L189.8641,801.5625 L179.4474,791.1458 L24.4792,791.1458 A7.8125,7.8125 0 0 0 16.6667,798.9583 " fill="url(#glarsgz4izqwf2)" style="stroke:#336699;stroke-width:1.0417;"/><path d="M179.4474,791.1458 L179.4474,797.6563 A3.9063,3.9063 0 0 0 183.3537,801.5625 L189.8641,801.5625 L179.4474,791.1458 " fill="url(#glarsgz4izqwf2)" style="stroke:#336699;stroke-width:1.0417;"/><text fill="#FFFFFF" font-family="Verdana" font-size="12.5" lengthAdjust="spacing" textLength="134.6558" x="31.25" y="816.2903">This is a floating note</text></g><!--class Element--><g id="elem_Element"><rect fill="url(#glarsgz4izqwf0)" height="37.9964" id="Element" rx="7.8125" ry="7.8125" style="stroke:#F1F1F1;stroke-width:1.0417;" width="86.7304" x="749.4792" y="423.4375"/><rect fill="url(#glarsgz4izqwf1)" height="37.9964" rx="7.8125" ry="7.8125" style="stroke:url(#glarsgz4izqwf1);stroke-width:1.0417;" width="86.7304" x="749.4792" y="423.4375"/><rect fill="url(#glarsgz4izqwf1)" height="7.8125" style="stroke:url(#glarsgz4izqwf1);stroke-width:1.0417;" width="86.7304" x="749.4792" y="453.6214"/><rect fill="#FFFFFF" fill-opacity="0.00000" height="37.9964" id="Element" rx="7.8125" ry="7.8125" style="stroke:#F1F1F1;stroke-width:1.0417;" width="86.7304" x="749.4792" y="423.4375"/><ellipse cx="764.0625" cy="442.4357" fill="#FFFFFF" fill-opacity="0.00000" rx="10.4167" ry="10.4167" style="stroke:#BEBEBE;stroke-width:1.0417;"/><path d="M765.9668,446.8628 Q765.5436,447.0744 765.0716,447.1883 Q764.5996,447.3022 764.0951,447.3022 Q762.2396,447.3022 761.263,446.0978 Q760.3027,444.8771 760.3027,442.5822 Q760.3027,440.271 761.263,439.0666 Q762.2396,437.8459 764.0951,437.8459 Q764.5996,437.8459 765.0716,437.9598 Q765.5599,438.0575 765.9668,438.2853 L765.9668,440.2873 Q765.5111,439.8641 765.0716,439.6688 Q764.6322,439.4572 764.1764,439.4572 Q763.1836,439.4572 762.679,440.2547 Q762.1745,441.036 762.1745,442.5822 Q762.1745,444.1121 762.679,444.8934 Q763.1836,445.6746 764.1764,445.6746 Q764.6322,445.6746 765.0716,445.4793 Q765.5111,445.284 765.9668,444.8608 L765.9668,446.8628 Z " fill="#336699"/><text fill="#303030" font-family="Verdana" font-size="9.375" lengthAdjust="spacing" textLength="38.8138" x="785.9375" y="445.6813">Element</text></g><g id="elem_Elementlol26"><ellipse cx="789.5833" cy="804.6875" fill="#FFFFFF" fill-opacity="0.00000" rx="5.2083" ry="5.2083" style="stroke:#BEBEBE;stroke-width:1.5625;"/></g><text fill="#336699" font-family="Verdana" font-size="12.5" lengthAdjust="spacing" textLength="55.7495" x="761.7086" y="829.8319">interface</text><g id="elem_GMN31"><path d="M854.6875,429.1667 L854.6875,438.0208 L836.4014,442.1875 L854.6875,446.3542 L854.6875,455.1758 A7.8125,7.8125 0 0 0 862.5,462.9883 L968.6869,462.9883 A7.8125,7.8125 0 0 0 976.4994,455.1758 L976.4994,431.7708 L966.0828,421.3542 L862.5,421.3542 A7.8125,7.8125 0 0 0 854.6875,429.1667 " fill="url(#glarsgz4izqwf2)" style="stroke:#336699;stroke-width:1.0417;"/><path d="M966.0828,421.3542 L966.0828,427.8646 A3.9063,3.9063 0 0 0 969.989,431.7708 L976.4994,431.7708 L966.0828,421.3542 " fill="url(#glarsgz4izqwf2)" style="stroke:#336699;stroke-width:1.0417;"/><text fill="#FFFFFF" font-family="Verdana" font-size="12.5" lengthAdjust="spacing" textLength="83.2703" x="869.2708" y="446.4986">This is a note</text></g><!--class User--><g id="elem_User"><rect codeLine="69" fill="url(#glarsgz4izqwf0)" height="356.9824" id="User" rx="7.8125" ry="7.8125" style="stroke:#F1F1F1;stroke-width:1.0417;" width="104.7984" x="533.8542" y="263.5417"/><rect fill="url(#glarsgz4izqwf1)" height="83.7646" rx="7.8125" ry="7.8125" style="stroke:url(#glarsgz4izqwf1);stroke-width:1.0417;" width="104.7984" x="533.8542" y="263.5417"/><rect fill="url(#glarsgz4izqwf1)" height="7.8125" style="stroke:url(#glarsgz4izqwf1);stroke-width:1.0417;" width="104.7984" x="533.8542" y="339.4938"/><rect codeLine="69" fill="#FFFFFF" fill-opacity="0.00000" height="356.9824" id="User" rx="7.8125" ry="7.8125" style="stroke:#F1F1F1;stroke-width:1.0417;" width="104.7984" x="533.8542" y="263.5417"/><ellipse cx="551.3411" cy="305.424" fill="#FFFFFF" fill-opacity="0.00000" rx="10.4167" ry="10.4167" style="stroke:#BEBEBE;stroke-width:1.0417;"/><path d="M553.2454,309.8511 Q552.8222,310.0627 552.3502,310.1766 Q551.8782,310.2905 551.3736,310.2905 Q549.5182,310.2905 548.5416,309.0861 Q547.5813,307.8654 547.5813,305.5705 Q547.5813,303.2593 548.5416,302.0549 Q549.5182,300.8341 551.3736,300.8341 Q551.8782,300.8341 552.3502,300.9481 Q552.8385,301.0457 553.2454,301.2736 L553.2454,303.2756 Q552.7897,302.8524 552.3502,302.6571 Q551.9108,302.4455 551.455,302.4455 Q550.4622,302.4455 549.9576,303.243 Q549.4531,304.0243 549.4531,305.5705 Q549.4531,307.1004 549.9576,307.8817 Q550.4622,308.6629 551.455,308.6629 Q551.9108,308.6629 552.3502,308.4676 Q552.7897,308.2723 553.2454,307.8491 L553.2454,309.8511 Z " fill="#336699"/><text fill="#303030" font-family="Verdana" font-size="12.5" font-style="italic" lengthAdjust="spacing" textLength="42.6941" x="577.7289" y="288.6861">&#171;user&#187;</text><text fill="#303030" font-family="Verdana" font-size="12.5" font-style="italic" lengthAdjust="spacing" textLength="54.5959" x="571.778" y="303.2369">&#171;admin&#187;</text><text fill="#303030" font-family="Verdana" font-size="9.375" lengthAdjust="spacing" textLength="21.3684" x="588.3918" y="331.5536">User</text><line style="stroke:#F1F1F1;stroke-width:1.0417;" x1="534.8958" x2="637.6109" y1="347.3063" y2="347.3063"/><ellipse cx="545.3125" cy="398.5718" fill="#FFFFFF" fill-opacity="0.00000" rx="3.125" ry="3.125" style="stroke:#BEBEBE;stroke-width:1.0417;"/><text fill="#303030" font-family="Verdana" font-size="9.375" lengthAdjust="spacing" textLength="50.3677" x="561.9792" y="400.2548">getName()</text><ellipse cx="545.3125" cy="426.1515" fill="#FFFFFF" fill-opacity="0.00000" rx="3.125" ry="3.125" style="stroke:#BEBEBE;stroke-width:1.0417;"/><text fill="#303030" font-family="Verdana" font-size="9.375" lengthAdjust="spacing" textLength="60.4156" x="561.9792" y="427.8346">getAddress()</text><line style="stroke:#F1F1F1;stroke-width:1.0417;stroke-dasharray:1.0,2.0;" x1="534.8958" x2="545.4211" y1="369.4295" y2="369.4295"/><text fill="#303030" font-family="Verdana" font-size="9.375" lengthAdjust="spacing" textLength="64.9979" x="553.7544" y="372.1542">Simple Getter</text><line style="stroke:#F1F1F1;stroke-width:1.0417;stroke-dasharray:1.0,2.0;" x1="627.0856" x2="637.6109" y1="369.4295" y2="369.4295"/><ellipse cx="545.3125" cy="485.4777" fill="#FFFFFF" fill-opacity="0.00000" rx="3.125" ry="3.125" style="stroke:#BEBEBE;stroke-width:1.0417;"/><text fill="#303030" font-family="Verdana" font-size="9.375" lengthAdjust="spacing" textLength="49.3011" x="561.9792" y="487.1607">setName()</text><line style="stroke:#F1F1F1;stroke-width:1.0417;stroke-dasharray:1.0,2.0;" x1="534.8958" x2="549.3235" y1="456.3354" y2="456.3354"/><text fill="#303030" font-family="Verdana" font-size="9.375" lengthAdjust="spacing" textLength="57.193" x="557.6569" y="459.0602">Some setter</text><line style="stroke:#F1F1F1;stroke-width:1.0417;stroke-dasharray:1.0,2.0;" x1="623.1832" x2="637.6109" y1="456.3354" y2="456.3354"/><text fill="#303030" font-family="Verdana" font-size="9.375" lengthAdjust="spacing" textLength="32.666" x="548.4375" y="546.4869">int age</text><line style="stroke:#F1F1F1;stroke-width:1.0417;" x1="534.8958" x2="549.2984" y1="515.6616" y2="515.6616"/><text fill="#303030" font-family="Verdana" font-size="9.375" lengthAdjust="spacing" textLength="57.2433" x="557.6317" y="518.3863">private data</text><line style="stroke:#F1F1F1;stroke-width:1.0417;" x1="623.2084" x2="637.6109" y1="515.6616" y2="515.6616"/><text fill="#303030" font-family="Verdana" font-size="9.375" lengthAdjust="spacing" textLength="75.6317" x="548.4375" y="605.8131">String password</text><line style="stroke:#F1F1F1;stroke-width:1.0417;" x1="534.8958" x2="554.114" y1="574.9878" y2="574.9878"/><text fill="#303030" font-family="Verdana" font-size="9.375" lengthAdjust="spacing" textLength="47.612" x="562.4474" y="577.7125">encrypted</text><line style="stroke:#F1F1F1;stroke-width:1.0417;" x1="618.3927" x2="637.6109" y1="574.9878" y2="574.9878"/></g><!--class Foo--><g id="elem_Foo"><rect codeLine="54" fill="url(#glarsgz4izqwf0)" height="73.9095" id="Foo" rx="7.8125" ry="7.8125" style="stroke:#F1F1F1;stroke-width:1.0417;" width="201.9958" x="691.6667" y="70.3125"/><rect fill="url(#glarsgz4izqwf1)" height="37.9964" rx="7.8125" ry="7.8125" style="stroke:url(#glarsgz4izqwf1);stroke-width:1.0417;" width="201.9958" x="691.6667" y="70.3125"/><rect fill="url(#glarsgz4izqwf1)" height="7.8125" style="stroke:url(#glarsgz4izqwf1);stroke-width:1.0417;" width="201.9958" x="691.6667" y="100.4964"/><rect codeLine="54" fill="#FFFFFF" fill-opacity="0.00000" height="73.9095" id="Foo" rx="7.8125" ry="7.8125" style="stroke:#F1F1F1;stroke-width:1.0417;" width="201.9958" x="691.6667" y="70.3125"/><ellipse cx="706.25" cy="89.3107" fill="#FFFFFF" fill-opacity="0.00000" rx="10.4167" ry="10.4167" style="stroke:#BEBEBE;stroke-width:1.0417;"/><path d="M708.1543,93.7378 Q707.7311,93.9494 707.2591,94.0633 Q706.7871,94.1772 706.2826,94.1772 Q704.4271,94.1772 703.4505,92.9728 Q702.4902,91.7521 702.4902,89.4572 Q702.4902,87.146 703.4505,85.9416 Q704.4271,84.7209 706.2826,84.7209 Q706.7871,84.7209 707.2591,84.8348 Q707.7474,84.9325 708.1543,85.1603 L708.1543,87.1623 Q707.6986,86.7391 707.2591,86.5438 Q706.8197,86.3322 706.3639,86.3322 Q705.3711,86.3322 704.8665,87.1297 Q704.362,87.911 704.362,89.4572 Q704.362,90.9871 704.8665,91.7684 Q705.3711,92.5496 706.3639,92.5496 Q706.8197,92.5496 707.2591,92.3543 Q707.6986,92.159 708.1543,91.7358 L708.1543,93.7378 Z " fill="#336699"/><text fill="#303030" font-family="Verdana" font-size="9.375" lengthAdjust="spacing" textLength="16.864" x="728.125" y="92.5563">Foo</text><rect fill="url(#glarsgz4izqwf0)" height="33.3008" style="stroke:#F1F1F1;stroke-width:1.0417;stroke-dasharray:2.0,2.0;" width="135.1318" x="761.6557" y="67.1875"/><text fill="#303030" font-family="Verdana" font-size="12.5" font-style="italic" lengthAdjust="spacing" textLength="116.3818" x="771.0307" y="88.1653">? extends Element</text><line style="stroke:#F1F1F1;stroke-width:1.0417;" x1="692.7083" x2="892.6208" y1="108.3089" y2="108.3089"/><text fill="#303030" font-family="Verdana" font-size="9.375" lengthAdjust="spacing" textLength="43.6752" x="706.25" y="129.511">int si ze()</text></g><polygon fill="#FFFFFF" fill-opacity="0.00000" points="296.6958,126.2268,292.465,145.5329,304.8948,144.2101,296.6958,126.2268" style="stroke:#EEEEEE;stroke-width:1.0417;"/><path d="M298.6799,144.8715 C304.8294,202.6587 322.1319,365.251 328.2948,423.1639 " fill="#FFFFFF" fill-opacity="0.00000" style="stroke:#EEEEEE;stroke-width:3.125;"/><text fill="#303030" font-family="Verdana" font-size="12.5" lengthAdjust="spacing" textLength="72.7478" x="318.75" y="232.4361">AList to List</text><polygon fill="#FFFFFF" fill-opacity="0.00000" points="105.3539,126.2268,98.174,144.6407,110.6583,145.2659,105.3539,126.2268" style="stroke:#EEEEEE;stroke-width:1.0417;"/><path d="M104.4161,144.9533 C101.5223,202.7405 93.384,365.251 90.4838,423.1639 " fill="#FFFFFF" fill-opacity="0.00000" style="stroke:#EEEEEE;stroke-width:3.125;"/><text fill="#303030" font-family="Verdana" font-size="12.5" lengthAdjust="spacing" textLength="75.6897" x="111.4583" y="232.4361">AColl to Coll</text><text fill="#303030" font-family="Verdana" font-size="12.5" lengthAdjust="spacing" textLength="35.1563" x="46.7338" y="411.85">many</text><text fill="#303030" font-family="Verdana" font-size="12.5" lengthAdjust="spacing" textLength="35.1563" x="61.6039" y="147.2046">many</text><polygon fill="#FFFFFF" fill-opacity="0.00000" points="153.827,107.2917,172.577,113.5417,172.577,101.0417,153.827,107.2917" style="stroke:#EEEEEE;stroke-width:1.0417;"/><path d="M172.577,107.2917 C206.5039,107.2917 232.4754,107.2917 262.3601,107.2917 " fill="#FFFFFF" fill-opacity="0.00000" style="stroke:#EEEEEE;stroke-width:3.125;"/><text fill="#303030" font-family="Verdana" font-size="12.5" lengthAdjust="spacing" textLength="65.6677" x="175.2604" y="91.8111">List to Coll</text><polygon fill="#FFFFFF" fill-opacity="0.00000" points="156.2913,442.1875,175.0413,448.4375,175.0413,435.9375,156.2913,442.1875" style="stroke:#EEEEEE;stroke-width:1.0417;"/><path d="M175.0413,442.1875 C213.4288,442.1875 242.2181,442.1875 277.8874,442.1875 " fill="#FFFFFF" fill-opacity="0.00000" style="stroke:#EEEEEE;stroke-width:3.125;"/><text fill="#303030" font-family="Verdana" font-size="12.5" lengthAdjust="spacing" textLength="82.7698" x="176.0417" y="426.7069">AList to AColl</text><polygon fill="#FFFFFF" fill-opacity="0.00000" points="327.6962,460.9645,318.8785,478.6527,331.2549,480.4057,327.6962,460.9645" style="stroke:#EEEEEE;stroke-width:1.0417;"/><path d="M325.0667,479.5292 C317.5584,532.5374 297.6991,672.7445 285.7624,757.0172 " fill="#FFFFFF" fill-opacity="0.00000" style="stroke:#EEEEEE;stroke-width:3.125;"/><text fill="#303030" font-family="Verdana" font-size="12.5" lengthAdjust="spacing" textLength="86.438" x="323.6115" y="660.5611">ArList to AList</text><path d="M307.2917,685.9049 L307.2917,725.4883 A7.8125,7.8125 0 0 0 315.1042,733.3008 L418.2292,733.3008 A7.8125,7.8125 0 0 0 426.0417,725.4883 L426.0417,688.5091 L415.625,678.0924 L315.1042,678.0924 A7.8125,7.8125 0 0 0 307.2917,685.9049 " fill="url(#glarsgz4izqwf2)" style="stroke:#336699;stroke-width:1.0417;"/><path d="M415.625,678.0924 L415.625,684.6029 A3.9063,3.9063 0 0 0 419.5313,688.5091 L426.0417,688.5091 L415.625,678.0924 " fill="url(#glarsgz4izqwf2)" style="stroke:#336699;stroke-width:1.0417;"/><text fill="#FFFFFF" font-family="Verdana" font-size="12.5" lengthAdjust="spacing" textLength="80.5359" x="321.875" y="703.2369">this is a note</text><text fill="#FFFFFF" font-family="Verdana" font-size="12.5" lengthAdjust="spacing" textLength="41.6504" x="321.875" y="717.7877">on link</text><polygon fill="#EEEEEE" points="343.7703,811.9792,353.1453,816.1458,348.9787,811.9792,353.1453,807.8125,343.7703,811.9792" style="stroke:#EEEEEE;stroke-width:1.0417;"/><ellipse cx="354.0077" cy="811.9792" fill="#FFFFFF" fill-opacity="0.00000" rx="8.3333" ry="8.3333" style="stroke:#EEEEEE;stroke-width:1.0417;"/><line style="stroke:#EEEEEE;stroke-width:1.0417;" x1="345.6743" x2="362.341" y1="811.9792" y2="811.9792"/><line style="stroke:#EEEEEE;stroke-width:1.0417;" x1="354.0077" x2="354.0077" y1="803.6458" y2="820.3125"/><path d="M350.0203,811.9792 C356.2106,811.9792 339.4841,811.9792 345.6743,811.9792 " fill="#FFFFFF" fill-opacity="0.00000" style="stroke:#EEEEEE;stroke-width:3.125;"/><polygon fill="#EEEEEE" points="90.2365,460.9645,86.4177,470.4865,90.4282,466.1693,94.7453,470.1798,90.2365,460.9645" style="stroke:#EEEEEE;stroke-width:1.0417;"/><rect fill="#FFFFFF" fill-opacity="0.00000" height="10.4167" style="stroke:#EEEEEE;stroke-width:1.5625;" width="10.4167" x="97.1723" y="785.518"/><path d="M90.4665,467.2103 C92.7277,528.6108 99.7931,720.4649 102.189,785.5216 " fill="#FFFFFF" fill-opacity="0.00000" style="stroke:#EEEEEE;stroke-width:3.125;"/><polygon fill="#EEEEEE" points="212.4226,811.9792,203.0476,807.8125,207.2142,811.9792,203.0476,816.1458,212.4226,811.9792" style="stroke:#EEEEEE;stroke-width:1.0417;"/><path d="M189.5996,811.9792 C197.2073,811.9792 198.5649,811.9792 206.1726,811.9792 " fill="#FFFFFF" fill-opacity="0.00000" style="stroke:#EEEEEE;stroke-width:3.125;"/><polygon fill="#EEEEEE" points="792.7083,144.5837,788.5417,150.8337,792.7083,157.0837,796.875,150.8337,792.7083,144.5837" style="stroke:#EEEEEE;stroke-width:1.0417;"/><path d="M792.7083,157.0837 C792.7083,228.0104 792.7083,370.3077 792.7083,423.0928 " fill="#FFFFFF" fill-opacity="0.00000" style="stroke:#EEEEEE;stroke-width:3.125;"/><path d="M792.7083,460.9645 C792.7083,525.3777 792.7083,745.9618 792.7083,799.2709 " fill="#FFFFFF" fill-opacity="0.00000" style="stroke:#EEEEEE;stroke-width:3.125;"/></g></svg>