<svg xmlns="http://www.w3.org/2000/svg" xmlns:xlink="http://www.w3.org/1999/xlink" contentStyleType="text/css" data-diagram-type="CLASS" height="1019.7917px" preserveAspectRatio="none" style="width:1090px;height:1019px;" version="1.1" viewBox="0 0 1090 1019" width="1090.625px" zoomAndPan="magnify"><defs><filter height="300%" id="f1l86pe3e9c13s" width="300%" x="-1" y="-1"><feGaussianBlur result="blurOut" stdDeviation="2.0833"/><feColorMatrix in="blurOut" result="blurOut2" type="matrix" values="0 0 0 0 0 0 0 0 0 0 0 0 0 0 0 0 0 0 .4 0"/><feOffset dx="4.1667" dy="4.1667" in="blurOut2" result="blurOut3"/><feBlend in="SourceGraphic" in2="blurOut3" mode="normal"/></filter><linearGradient id="g1l86pe3e9c13s0" x1="50%" x2="50%" y1="0%" y2="100%"><stop offset="0%" stop-color="#2196F3"/><stop offset="100%" stop-color="#1A78C2"/></linearGradient></defs><g><!--cluster foo_frame--><g id="cluster_foo_frame"><rect fill="#FFFFFF" fill-opacity="0.00000" filter="url(#f1l86pe3e9c13s)" height="141.6667" rx="4.1667" ry="4.1667" style="stroke:#9C27B0;stroke-width:2.0833;" width="231.25" x="768.2292" y="32.8125"/><path d="M869.8832,32.8125 L869.8832,60.9049 L859.4666,71.3216 L768.2292,71.3216 " fill="#FFFFFF" fill-opacity="0.00000" style="stroke:#9C27B0;stroke-width:2.0833;"/><text fill="#9C27B0" font-family="Verdana" font-size="12.5" font-weight="bold" lengthAdjust="spacing" textLength="70.4041" x="781.7708" y="55.8736">foo_frame</text></g><!--class AbstractList--><g id="elem_AbstractList"><rect codeLine="7" fill="#FFFFFF" fill-opacity="0.00000" filter="url(#f1l86pe3e9c13s)" height="44.5882" id="AbstractList" rx="4.1667" ry="4.1667" style="stroke:#2196F3;stroke-width:1.0417;" width="120.2123" x="300" y="489.0625"/><rect fill="url(#g1l86pe3e9c13s0)" height="44.5882" rx="4.1667" ry="4.1667" style="stroke:url(#g1l86pe3e9c13s0);stroke-width:1.0417;" width="120.2123" x="300" y="489.0625"/><rect fill="url(#g1l86pe3e9c13s0)" height="4.1667" style="stroke:url(#g1l86pe3e9c13s0);stroke-width:1.0417;" width="120.2123" x="300" y="529.484"/><rect codeLine="7" fill="#FFFFFF" fill-opacity="0.00000" height="44.5882" id="AbstractList" rx="4.1667" ry="4.1667" style="stroke:#2196F3;stroke-width:1.0417;" width="120.2123" x="300" y="489.0625"/><ellipse cx="314.5833" cy="511.3566" fill="#FFFFFF" fill-opacity="0.00000" rx="10.4167" ry="10.4167" style="stroke:#1A78C2;stroke-width:1.0417;"/><path d="M314.1764,508.313 L313.3301,512.0402 L315.0391,512.0402 L314.1764,508.313 Z M313.0859,506.6691 L315.2832,506.6691 L317.7409,515.7837 L315.9342,515.7837 L315.3809,513.5376 L312.972,513.5376 L312.4186,515.7837 L310.612,515.7837 L313.0859,506.6691 Z " fill="#2196F3"/><text fill="#222222" font-family="Verdana" font-size="11.4583" font-style="italic" lengthAdjust="spacing" textLength="68.129" x="338.5417" y="515.3234">AbstractList</text></g><!--class AbstractCollection--><g id="elem_AbstractCollection"><rect codeLine="8" fill="#FFFFFF" fill-opacity="0.00000" filter="url(#f1l86pe3e9c13s)" height="44.5882" id="AbstractCollection" rx="4.1667" ry="4.1667" style="stroke:#2196F3;stroke-width:1.0417;" width="156.8588" x="16.6667" y="489.0625"/><rect fill="url(#g1l86pe3e9c13s0)" height="44.5882" rx="4.1667" ry="4.1667" style="stroke:url(#g1l86pe3e9c13s0);stroke-width:1.0417;" width="156.8588" x="16.6667" y="489.0625"/><rect fill="url(#g1l86pe3e9c13s0)" height="4.1667" style="stroke:url(#g1l86pe3e9c13s0);stroke-width:1.0417;" width="156.8588" x="16.6667" y="529.484"/><rect codeLine="8" fill="#FFFFFF" fill-opacity="0.00000" height="44.5882" id="AbstractCollection" rx="4.1667" ry="4.1667" style="stroke:#2196F3;stroke-width:1.0417;" width="156.8588" x="16.6667" y="489.0625"/><ellipse cx="31.25" cy="511.3566" fill="#FFFFFF" fill-opacity="0.00000" rx="10.4167" ry="10.4167" style="stroke:#1A78C2;stroke-width:1.0417;"/><path d="M30.8431,508.313 L29.9967,512.0402 L31.7057,512.0402 L30.8431,508.313 Z M29.7526,506.6691 L31.9499,506.6691 L34.4076,515.7837 L32.6009,515.7837 L32.0475,513.5376 L29.6387,513.5376 L29.0853,515.7837 L27.2786,515.7837 L29.7526,506.6691 Z " fill="#2196F3"/><text fill="#222222" font-family="Verdana" font-size="11.4583" font-style="italic" lengthAdjust="spacing" textLength="104.7755" x="55.2083" y="515.3234">AbstractCollection</text></g><!--class List--><g id="elem_List"><rect codeLine="9" fill="#FFFFFF" fill-opacity="0.00000" filter="url(#f1l86pe3e9c13s)" height="44.5882" id="List" rx="4.1667" ry="4.1667" style="stroke:#2196F3;stroke-width:1.0417;" width="72.113" x="283.3333" y="100"/><rect fill="url(#g1l86pe3e9c13s0)" height="44.5882" rx="4.1667" ry="4.1667" style="stroke:url(#g1l86pe3e9c13s0);stroke-width:1.0417;" width="72.113" x="283.3333" y="100"/><rect fill="url(#g1l86pe3e9c13s0)" height="4.1667" style="stroke:url(#g1l86pe3e9c13s0);stroke-width:1.0417;" width="72.113" x="283.3333" y="140.4215"/><rect codeLine="9" fill="#FFFFFF" fill-opacity="0.00000" height="44.5882" id="List" rx="4.1667" ry="4.1667" style="stroke:#2196F3;stroke-width:1.0417;" width="72.113" x="283.3333" y="100"/><ellipse cx="297.9167" cy="122.2941" fill="#FFFFFF" fill-opacity="0.00000" rx="10.4167" ry="10.4167" style="stroke:#1A78C2;stroke-width:1.0417;"/><path d="M294.8079,119.4621 L294.8079,117.867 L300.2279,117.867 L300.2279,119.4621 L298.4212,119.4621 L298.4212,125.3866 L300.2279,125.3866 L300.2279,126.9816 L294.8079,126.9816 L294.8079,125.3866 L296.6146,125.3866 L296.6146,119.4621 L294.8079,119.4621 Z " fill="#2196F3"/><text fill="#222222" font-family="Verdana" font-size="11.4583" font-style="italic" lengthAdjust="spacing" textLength="20.0297" x="321.875" y="126.2609">List</text></g><!--class Collection--><g id="elem_Collection"><rect codeLine="10" fill="#FFFFFF" fill-opacity="0.00000" filter="url(#f1l86pe3e9c13s)" height="44.5882" id="Collection" rx="4.1667" ry="4.1667" style="stroke:#2196F3;stroke-width:1.0417;" width="108.7596" x="61.9792" y="100"/><rect fill="url(#g1l86pe3e9c13s0)" height="44.5882" rx="4.1667" ry="4.1667" style="stroke:url(#g1l86pe3e9c13s0);stroke-width:1.0417;" width="108.7596" x="61.9792" y="100"/><rect fill="url(#g1l86pe3e9c13s0)" height="4.1667" style="stroke:url(#g1l86pe3e9c13s0);stroke-width:1.0417;" width="108.7596" x="61.9792" y="140.4215"/><rect codeLine="10" fill="#FFFFFF" fill-opacity="0.00000" height="44.5882" id="Collection" rx="4.1667" ry="4.1667" style="stroke:#2196F3;stroke-width:1.0417;" width="108.7596" x="61.9792" y="100"/><ellipse cx="76.5625" cy="122.2941" fill="#FFFFFF" fill-opacity="0.00000" rx="10.4167" ry="10.4167" style="stroke:#1A78C2;stroke-width:1.0417;"/><path d="M73.4538,119.4621 L73.4538,117.867 L78.8737,117.867 L78.8737,119.4621 L77.0671,119.4621 L77.0671,125.3866 L78.8737,125.3866 L78.8737,126.9816 L73.4538,126.9816 L73.4538,125.3866 L75.2604,125.3866 L75.2604,119.4621 L73.4538,119.4621 Z " fill="#2196F3"/><text fill="#222222" font-family="Verdana" font-size="11.4583" font-style="italic" lengthAdjust="spacing" textLength="56.6762" x="100.5208" y="126.2609">Collection</text></g><!--class ArrayList--><g id="elem_ArrayList"><rect codeLine="20" fill="#FFFFFF" fill-opacity="0.00000" filter="url(#f1l86pe3e9c13s)" height="129.598" id="ArrayList" rx="4.1667" ry="4.1667" style="stroke:#2196F3;stroke-width:1.0417;" width="157.842" x="222.3958" y="872.9167"/><rect fill="url(#g1l86pe3e9c13s0)" height="44.5882" rx="4.1667" ry="4.1667" style="stroke:url(#g1l86pe3e9c13s0);stroke-width:1.0417;" width="157.842" x="222.3958" y="872.9167"/><rect fill="url(#g1l86pe3e9c13s0)" height="4.1667" style="stroke:url(#g1l86pe3e9c13s0);stroke-width:1.0417;" width="157.842" x="222.3958" y="913.3382"/><rect codeLine="20" fill="#FFFFFF" fill-opacity="0.00000" height="129.598" id="ArrayList" rx="4.1667" ry="4.1667" style="stroke:#2196F3;stroke-width:1.0417;" width="157.842" x="222.3958" y="872.9167"/><ellipse cx="261.5789" cy="895.2108" fill="#FFFFFF" fill-opacity="0.00000" rx="10.4167" ry="10.4167" style="stroke:#1A78C2;stroke-width:1.0417;"/><path d="M263.4832,899.6379 Q263.06,899.8494 262.588,899.9634 Q262.116,900.0773 261.6115,900.0773 Q259.756,900.0773 258.7794,898.8729 Q257.8192,897.6522 257.8192,895.3573 Q257.8192,893.0461 258.7794,891.8416 Q259.756,890.6209 261.6115,890.6209 Q262.116,890.6209 262.588,890.7349 Q263.0763,890.8325 263.4832,891.0604 L263.4832,893.0623 Q263.0275,892.6392 262.588,892.4438 Q262.1486,892.2323 261.6929,892.2323 Q260.7,892.2323 260.1955,893.0298 Q259.6909,893.811 259.6909,895.3573 Q259.6909,896.8872 260.1955,897.6685 Q260.7,898.4497 261.6929,898.4497 Q262.1486,898.4497 262.588,898.2544 Q263.0275,898.0591 263.4832,897.6359 L263.4832,899.6379 Z " fill="#2196F3"/><text fill="#222222" font-family="Verdana" font-size="11.4583" lengthAdjust="spacing" textLength="51.0925" x="291.0039" y="899.1776">ArrayList</text><line style="stroke:#2196F3;stroke-width:1.0417;" x1="223.4375" x2="379.1962" y1="917.5049" y2="917.5049"/><text fill="#222222" font-family="Verdana" font-size="11.4583" lengthAdjust="spacing" textLength="124.5087" x="239.0625" y="942.7241">Object[] elementData</text><line style="stroke:#2196F3;stroke-width:1.0417;" x1="223.4375" x2="379.1962" y1="960.0098" y2="960.0098"/><text fill="#222222" font-family="Verdana" font-size="11.4583" lengthAdjust="spacing" textLength="31.1579" x="239.0625" y="985.229">size()</text></g><!--class TimeUnit--><g id="elem_TimeUnit"><rect codeLine="25" fill="#FFFFFF" fill-opacity="0.00000" filter="url(#f1l86pe3e9c13s)" height="155.4362" id="TimeUnit" rx="4.1667" ry="4.1667" style="stroke:#2196F3;stroke-width:1.0417;" width="103.8025" x="453.6458" y="44.7917"/><rect fill="url(#g1l86pe3e9c13s0)" height="44.5882" rx="4.1667" ry="4.1667" style="stroke:url(#g1l86pe3e9c13s0);stroke-width:1.0417;" width="103.8025" x="453.6458" y="44.7917"/><rect fill="url(#g1l86pe3e9c13s0)" height="4.1667" style="stroke:url(#g1l86pe3e9c13s0);stroke-width:1.0417;" width="103.8025" x="453.6458" y="85.2132"/><rect codeLine="25" fill="#FFFFFF" fill-opacity="0.00000" height="155.4362" id="TimeUnit" rx="4.1667" ry="4.1667" style="stroke:#2196F3;stroke-width:1.0417;" width="103.8025" x="453.6458" y="44.7917"/><ellipse cx="468.2292" cy="67.0858" fill="#FFFFFF" fill-opacity="0.00000" rx="10.4167" ry="10.4167" style="stroke:#1A78C2;stroke-width:1.0417;"/><path d="M470.7682,71.7733 L465.0879,71.7733 L465.0879,62.6587 L470.7682,62.6587 L470.7682,64.2537 L466.8945,64.2537 L466.8945,66.2069 L470.3939,66.2069 L470.3939,67.8019 L466.8945,67.8019 L466.8945,70.1782 L470.7682,70.1782 L470.7682,71.7733 Z " fill="#2196F3"/><text fill="#222222" font-family="Verdana" font-size="11.4583" lengthAdjust="spacing" textLength="51.7192" x="492.1875" y="71.0526">TimeUnit</text><line style="stroke:#2196F3;stroke-width:1.0417;" x1="454.6875" x2="556.4067" y1="89.3799" y2="89.3799"/><text fill="#222222" font-family="Verdana" font-size="11.4583" lengthAdjust="spacing" textLength="30.9341" x="470.3125" y="114.5991">DAYS</text><text fill="#222222" font-family="Verdana" font-size="11.4583" lengthAdjust="spacing" textLength="41.2567" x="470.3125" y="148.7707">HOURS</text><text fill="#222222" font-family="Verdana" font-size="11.4583" lengthAdjust="spacing" textLength="51.7359" x="470.3125" y="182.9422">MINUTES</text></g><!--class SuppressWarnings--><g id="elem_SuppressWarnings"><rect codeLine="31" fill="#FFFFFF" fill-opacity="0.00000" filter="url(#f1l86pe3e9c13s)" height="44.5882" id="SuppressWarnings" rx="4.1667" ry="4.1667" style="stroke:#2196F3;stroke-width:1.0417;" width="158.8786" x="400" y="915.1042"/><rect fill="url(#g1l86pe3e9c13s0)" height="44.5882" rx="4.1667" ry="4.1667" style="stroke:url(#g1l86pe3e9c13s0);stroke-width:1.0417;" width="158.8786" x="400" y="915.1042"/><rect fill="url(#g1l86pe3e9c13s0)" height="4.1667" style="stroke:url(#g1l86pe3e9c13s0);stroke-width:1.0417;" width="158.8786" x="400" y="955.5257"/><rect codeLine="31" fill="#FFFFFF" fill-opacity="0.00000" height="44.5882" id="SuppressWarnings" rx="4.1667" ry="4.1667" style="stroke:#2196F3;stroke-width:1.0417;" width="158.8786" x="400" y="915.1042"/><ellipse cx="414.5833" cy="937.3983" fill="#FFFFFF" fill-opacity="0.00000" rx="10.4167" ry="10.4167" style="stroke:#1A78C2;stroke-width:1.0417;"/><path d="M415.8366,937.203 Q415.8366,936.5031 415.5273,936.1125 Q415.2181,935.7218 414.6647,935.7218 Q414.1276,935.7218 413.8184,936.1125 Q413.5091,936.5031 413.5091,937.203 Q413.5091,937.8866 413.8184,938.2772 Q414.1276,938.6678 414.6647,938.6678 Q415.2181,938.6678 415.5273,938.2772 Q415.8366,937.8866 415.8366,937.203 Z M416.9759,939.6932 L415.7715,939.6932 L415.7715,939.2049 Q415.5436,939.5142 415.2181,939.6769 Q414.9089,939.8234 414.4694,939.8234 Q413.4766,939.8234 412.8581,939.1073 Q412.2396,938.3748 412.2396,937.203 Q412.2396,936.0148 412.8418,935.2987 Q413.4603,934.5825 414.4694,934.5825 Q414.9089,934.5825 415.2344,934.729 Q415.5599,934.8755 415.7715,935.1685 L415.7715,934.9243 Q415.7715,934.0942 415.3158,933.6385 Q414.86,933.1828 414.0299,933.1828 Q412.7604,933.1828 411.9466,934.3058 Q411.1491,935.4126 411.1491,937.203 Q411.1491,939.0747 412.0768,940.1978 Q413.0046,941.3045 414.5508,941.3045 Q415.0391,941.3045 415.4948,941.158 Q415.9505,941.0116 416.3737,940.7186 L416.9271,941.7928 Q416.4388,942.1346 415.8529,942.2974 Q415.2669,942.4764 414.6159,942.4764 Q412.4674,942.4764 411.1979,941.0441 Q409.9284,939.6281 409.9284,937.203 Q409.9284,934.8429 411.0677,933.4269 Q412.2233,932.0109 414.0951,932.0109 Q415.4297,932.0109 416.1947,932.8084 Q416.9759,933.606 416.9759,935.0057 L416.9759,939.6932 Z " fill="#2196F3"/><text fill="#222222" font-family="Verdana" font-size="11.4583" lengthAdjust="spacing" textLength="106.7952" x="438.5417" y="941.3651">SuppressWarnings</text></g><!--class Annotation--><g id="elem_Annotation"><rect codeLine="33" fill="#FFFFFF" fill-opacity="0.00000" filter="url(#f1l86pe3e9c13s)" height="199.1536" id="Annotation" rx="4.1667" ry="4.1667" style="stroke:#2196F3;stroke-width:1.0417;" width="181.3238" x="576.5625" y="22.9167"/><rect fill="url(#g1l86pe3e9c13s0)" height="79.9723" rx="4.1667" ry="4.1667" style="stroke:url(#g1l86pe3e9c13s0);stroke-width:1.0417;" width="181.3238" x="576.5625" y="22.9167"/><rect fill="url(#g1l86pe3e9c13s0)" height="4.1667" style="stroke:url(#g1l86pe3e9c13s0);stroke-width:1.0417;" width="181.3238" x="576.5625" y="98.7223"/><rect codeLine="33" fill="#FFFFFF" fill-opacity="0.00000" height="199.1536" id="Annotation" rx="4.1667" ry="4.1667" style="stroke:#2196F3;stroke-width:1.0417;" width="181.3238" x="576.5625" y="22.9167"/><ellipse cx="613.8585" cy="62.9028" fill="#FFFFFF" fill-opacity="0.00000" rx="10.4167" ry="10.4167" style="stroke:#1A78C2;stroke-width:1.0417;"/><path d="M615.1117,62.7075 Q615.1117,62.0076 614.8025,61.617 Q614.4932,61.2264 613.9398,61.2264 Q613.4027,61.2264 613.0935,61.617 Q612.7842,62.0076 612.7842,62.7075 Q612.7842,63.3911 613.0935,63.7817 Q613.4027,64.1724 613.9398,64.1724 Q614.4932,64.1724 614.8025,63.7817 Q615.1117,63.3911 615.1117,62.7075 Z M616.251,65.1978 L615.0466,65.1978 L615.0466,64.7095 Q614.8188,65.0187 614.4932,65.1815 Q614.184,65.328 613.7445,65.328 Q612.7517,65.328 612.1332,64.6118 Q611.5147,63.8794 611.5147,62.7075 Q611.5147,61.5194 612.1169,60.8032 Q612.7354,60.0871 613.7445,60.0871 Q614.184,60.0871 614.5095,60.2336 Q614.835,60.38 615.0466,60.673 L615.0466,60.4289 Q615.0466,59.5988 614.5909,59.1431 Q614.1352,58.6873 613.3051,58.6873 Q612.0355,58.6873 611.2217,59.8104 Q610.4242,60.9172 610.4242,62.7075 Q610.4242,64.5793 611.352,65.7023 Q612.2797,66.8091 613.8259,66.8091 Q614.3142,66.8091 614.7699,66.6626 Q615.2257,66.5161 615.6488,66.2231 L616.2022,67.2974 Q615.7139,67.6392 615.128,67.8019 Q614.5421,67.981 613.891,67.981 Q611.7426,67.981 610.473,66.5487 Q609.2035,65.1326 609.2035,62.7075 Q609.2035,60.3475 610.3428,58.9315 Q611.4984,57.5155 613.3702,57.5155 Q614.7048,57.5155 615.4698,58.313 Q616.251,59.1105 616.251,60.5103 L616.251,65.1978 Z " fill="#2196F3"/><text fill="#222222" font-family="Verdana" font-size="12.5" font-style="italic" lengthAdjust="spacing" textLength="82.9346" x="640.7807" y="50.1444">&#171;stereotype&#187;</text><text fill="#222222" font-family="Verdana" font-size="11.4583" lengthAdjust="spacing" textLength="62.8362" x="650.8299" y="84.5617">Annotation</text><line style="stroke:#2196F3;stroke-width:1.0417;" x1="577.6042" x2="756.8446" y1="102.889" y2="102.889"/><text fill="#222222" font-family="Verdana" font-size="11.4583" lengthAdjust="spacing" textLength="147.9904" x="593.2292" y="128.1082">annotation with members</text><line style="stroke:#2196F3;stroke-width:1.0417;" x1="577.6042" x2="756.8446" y1="145.3939" y2="145.3939"/><text fill="#222222" font-family="Verdana" font-size="11.4583" lengthAdjust="spacing" textLength="64.8336" x="593.2292" y="170.6131">String foo()</text><text fill="#222222" font-family="Verdana" font-size="11.4583" lengthAdjust="spacing" textLength="65.7847" x="593.2292" y="204.7846">String bar()</text></g><!--class Dummy--><g id="elem_Dummy"><rect codeLine="39" fill="#FFFFFF" fill-opacity="0.00000" filter="url(#f1l86pe3e9c13s)" height="266.2842" id="Dummy" rx="4.1667" ry="4.1667" style="stroke:#2196F3;stroke-width:1.0417;" width="133.9259" x="438.5417" y="378.125"/><rect fill="url(#g1l86pe3e9c13s0)" height="44.5882" rx="4.1667" ry="4.1667" style="stroke:url(#g1l86pe3e9c13s0);stroke-width:1.0417;" width="133.9259" x="438.5417" y="378.125"/><rect fill="url(#g1l86pe3e9c13s0)" height="4.1667" style="stroke:url(#g1l86pe3e9c13s0);stroke-width:1.0417;" width="133.9259" x="438.5417" y="418.5465"/><rect codeLine="39" fill="#FFFFFF" fill-opacity="0.00000" height="266.2842" id="Dummy" rx="4.1667" ry="4.1667" style="stroke:#2196F3;stroke-width:1.0417;" width="133.9259" x="438.5417" y="378.125"/><ellipse cx="469.6187" cy="400.4191" fill="#FFFFFF" fill-opacity="0.00000" rx="10.4167" ry="10.4167" style="stroke:#1A78C2;stroke-width:1.0417;"/><path d="M471.523,404.8462 Q471.0998,405.0578 470.6278,405.1717 Q470.1558,405.2856 469.6512,405.2856 Q467.7958,405.2856 466.8192,404.0812 Q465.8589,402.8605 465.8589,400.5656 Q465.8589,398.2544 466.8192,397.05 Q467.7958,395.8293 469.6512,395.8293 Q470.1558,395.8293 470.6278,395.9432 Q471.1161,396.0409 471.523,396.2687 L471.523,398.2707 Q471.0673,397.8475 470.6278,397.6522 Q470.1883,397.4406 469.7326,397.4406 Q468.7398,397.4406 468.2352,398.2381 Q467.7307,399.0194 467.7307,400.5656 Q467.7307,402.0955 468.2352,402.8768 Q468.7398,403.658 469.7326,403.658 Q470.1883,403.658 470.6278,403.4627 Q471.0673,403.2674 471.523,402.8442 L471.523,404.8462 Z " fill="#2196F3"/><text fill="#222222" font-family="Verdana" font-size="11.4583" lengthAdjust="spacing" textLength="45.1899" x="497.2423" y="404.3859">Dummy</text><line style="stroke:#2196F3;stroke-width:1.0417;" x1="439.5833" x2="571.4259" y1="422.7132" y2="422.7132"/><rect fill="#FFFFFF" fill-opacity="0.00000" height="6.25" style="stroke:#1A78C2;stroke-width:1.0417;" width="6.25" x="446.875" y="442.4032"/><text fill="#222222" font-family="Verdana" font-size="11.4583" lengthAdjust="spacing" textLength="32.014" x="468.75" y="447.9324">field1</text><polygon fill="#FFFFFF" fill-opacity="0.00000" points="450,474.4914,454.1667,478.658,450,482.8247,445.8333,478.658" style="stroke:#1A78C2;stroke-width:1.0417;"/><text fill="#222222" font-family="Verdana" font-size="11.4583" lengthAdjust="spacing" textLength="32.014" x="468.75" y="482.104">field2</text><text fill="#222222" font-family="Verdana" font-size="11.4583" lengthAdjust="spacing" text-decoration="underline" textLength="48.2951" x="468.75" y="516.2755">String id</text><line style="stroke:#2196F3;stroke-width:1.0417;" x1="439.5833" x2="571.4259" y1="533.5612" y2="533.5612"/><polygon fill="#FFFFFF" fill-opacity="0.00000" points="450,552.2095,445.8333,558.4595,454.1667,558.4595" style="stroke:#2196F3;stroke-width:1.0417;"/><text fill="#222222" font-family="Verdana" font-size="11.4583" lengthAdjust="spacing" textLength="60.4808" x="468.75" y="558.7804">method1()</text><ellipse cx="450" cy="590.5477" fill="#FFFFFF" fill-opacity="0.00000" rx="3.125" ry="3.125" style="stroke:#1A78C2;stroke-width:1.0417;"/><text fill="#222222" font-family="Verdana" font-size="11.4583" lengthAdjust="spacing" textLength="60.4808" x="468.75" y="592.952">method2()</text><text fill="#222222" font-family="Verdana" font-size="11.4583" font-style="italic" lengthAdjust="spacing" textLength="87.0509" x="468.75" y="627.1235">void methods()</text></g><g id="elem_N1"><path d="M21.3542,918.75 L21.3542,956.2174 A4.1667,4.1667 0 0 0 25.5208,960.3841 L194.5516,960.3841 A4.1667,4.1667 0 0 0 198.7183,956.2174 L198.7183,925 L188.3016,914.5833 L25.5208,914.5833 A4.1667,4.1667 0 0 0 21.3542,918.75 " fill="#FFFFFF" fill-opacity="0.00000" filter="url(#f1l86pe3e9c13s)" style="stroke:#9C27B0;stroke-width:1.0417;"/><path d="M188.3016,914.5833 L188.3016,922.9167 A2.0833,2.0833 0 0 0 190.3849,925 L198.7183,925 L188.3016,914.5833 " fill="#FFFFFF" fill-opacity="0.00000" style="stroke:#9C27B0;stroke-width:1.0417;"/><text fill="#9C27B0" font-family="Verdana" font-size="12.5" lengthAdjust="spacing" textLength="134.6558" x="38.0208" y="941.8111">This is a floating note</text></g><!--class Element--><g id="elem_Element"><rect fill="#FFFFFF" fill-opacity="0.00000" filter="url(#f1l86pe3e9c13s)" height="44.5882" id="Element" rx="4.1667" ry="4.1667" style="stroke:#2196F3;stroke-width:1.0417;" width="99.5224" x="833.8542" y="489.0625"/><rect fill="url(#g1l86pe3e9c13s0)" height="44.5882" rx="4.1667" ry="4.1667" style="stroke:url(#g1l86pe3e9c13s0);stroke-width:1.0417;" width="99.5224" x="833.8542" y="489.0625"/><rect fill="url(#g1l86pe3e9c13s0)" height="4.1667" style="stroke:url(#g1l86pe3e9c13s0);stroke-width:1.0417;" width="99.5224" x="833.8542" y="529.484"/><rect fill="#FFFFFF" fill-opacity="0.00000" height="44.5882" id="Element" rx="4.1667" ry="4.1667" style="stroke:#2196F3;stroke-width:1.0417;" width="99.5224" x="833.8542" y="489.0625"/><ellipse cx="848.4375" cy="511.3566" fill="#FFFFFF" fill-opacity="0.00000" rx="10.4167" ry="10.4167" style="stroke:#1A78C2;stroke-width:1.0417;"/><path d="M850.3418,515.7837 Q849.9186,515.9953 849.4466,516.1092 Q848.9746,516.2231 848.4701,516.2231 Q846.6146,516.2231 845.638,515.0187 Q844.6777,513.798 844.6777,511.5031 Q844.6777,509.1919 845.638,507.9875 Q846.6146,506.7668 848.4701,506.7668 Q848.9746,506.7668 849.4466,506.8807 Q849.9349,506.9784 850.3418,507.2062 L850.3418,509.2082 Q849.8861,508.785 849.4466,508.5897 Q849.0072,508.3781 848.5514,508.3781 Q847.5586,508.3781 847.054,509.1756 Q846.5495,509.9569 846.5495,511.5031 Q846.5495,513.033 847.054,513.8143 Q847.5586,514.5955 848.5514,514.5955 Q849.0072,514.5955 849.4466,514.4002 Q849.8861,514.2049 850.3418,513.7817 L850.3418,515.7837 Z " fill="#2196F3"/><text fill="#222222" font-family="Verdana" font-size="11.4583" lengthAdjust="spacing" textLength="47.4391" x="872.3958" y="515.3234">Element</text></g><g id="elem_Elementlol26"><ellipse cx="880.7292" cy="930.2083" fill="#FFFFFF" fill-opacity="0.00000" filter="url(#f1l86pe3e9c13s)" rx="5.2083" ry="5.2083" style="stroke:#1A78C2;stroke-width:1.5625;"/></g><text fill="#2196F3" font-family="Verdana" font-size="12.5" lengthAdjust="spacing" textLength="55.7495" x="852.8544" y="957.4361">interface</text><g id="elem_GMN31"><path d="M953.125,492.7083 L953.125,507.2917 L933.9803,511.4583 L953.125,515.625 L953.125,530.1758 A4.1667,4.1667 0 0 0 957.2917,534.3424 L1074.9369,534.3424 A4.1667,4.1667 0 0 0 1079.1036,530.1758 L1079.1036,498.9583 L1068.6869,488.5417 L957.2917,488.5417 A4.1667,4.1667 0 0 0 953.125,492.7083 " fill="#FFFFFF" fill-opacity="0.00000" filter="url(#f1l86pe3e9c13s)" style="stroke:#9C27B0;stroke-width:1.0417;"/><path d="M1068.6869,488.5417 L1068.6869,496.875 A2.0833,2.0833 0 0 0 1070.7703,498.9583 L1079.1036,498.9583 L1068.6869,488.5417 " fill="#FFFFFF" fill-opacity="0.00000" style="stroke:#9C27B0;stroke-width:1.0417;"/><text fill="#9C27B0" font-family="Verdana" font-size="12.5" lengthAdjust="spacing" textLength="83.2703" x="969.7917" y="515.7694">This is a note</text></g><!--class User--><g id="elem_User"><rect codeLine="69" fill="#FFFFFF" fill-opacity="0.00000" filter="url(#f1l86pe3e9c13s)" height="427.0671" id="User" rx="4.1667" ry="4.1667" style="stroke:#2196F3;stroke-width:1.0417;" width="125.7721" x="591.6667" y="297.9167"/><rect fill="url(#g1l86pe3e9c13s0)" height="94.5231" rx="4.1667" ry="4.1667" style="stroke:url(#g1l86pe3e9c13s0);stroke-width:1.0417;" width="125.7721" x="591.6667" y="297.9167"/><rect fill="url(#g1l86pe3e9c13s0)" height="4.1667" style="stroke:url(#g1l86pe3e9c13s0);stroke-width:1.0417;" width="125.7721" x="591.6667" y="388.2731"/><rect codeLine="69" fill="#FFFFFF" fill-opacity="0.00000" height="427.0671" id="User" rx="4.1667" ry="4.1667" style="stroke:#2196F3;stroke-width:1.0417;" width="125.7721" x="591.6667" y="297.9167"/><ellipse cx="616.7168" cy="345.1782" fill="#FFFFFF" fill-opacity="0.00000" rx="10.4167" ry="10.4167" style="stroke:#1A78C2;stroke-width:1.0417;"/><path d="M618.6211,349.6053 Q618.1979,349.8169 617.7259,349.9308 Q617.2539,350.0448 616.7493,350.0448 Q614.8938,350.0448 613.9173,348.8403 Q612.957,347.6196 612.957,345.3247 Q612.957,343.0135 613.9173,341.8091 Q614.8938,340.5884 616.7493,340.5884 Q617.2539,340.5884 617.7259,340.7023 Q618.2142,340.8 618.6211,341.0278 L618.6211,343.0298 Q618.1653,342.6066 617.7259,342.4113 Q617.2864,342.1997 616.8307,342.1997 Q615.8379,342.1997 615.3333,342.9972 Q614.8287,343.7785 614.8287,345.3247 Q614.8287,346.8547 615.3333,347.6359 Q615.8379,348.4172 616.8307,348.4172 Q617.2864,348.4172 617.7259,348.2218 Q618.1653,348.0265 618.6211,347.6034 L618.6211,349.6053 Z " fill="#2196F3"/><text fill="#222222" font-family="Verdana" font-size="12.5" font-style="italic" lengthAdjust="spacing" textLength="42.6941" x="646.8686" y="325.1444">&#171;user&#187;</text><text fill="#222222" font-family="Verdana" font-size="12.5" font-style="italic" lengthAdjust="spacing" textLength="54.5959" x="640.9177" y="339.6952">&#171;admin&#187;</text><text fill="#222222" font-family="Verdana" font-size="11.4583" lengthAdjust="spacing" textLength="26.1169" x="655.1572" y="374.1124">User</text><line style="stroke:#2196F3;stroke-width:1.0417;" x1="592.7083" x2="716.3971" y1="392.4398" y2="392.4398"/><ellipse cx="603.125" cy="453.5929" fill="#FFFFFF" fill-opacity="0.00000" rx="3.125" ry="3.125" style="stroke:#1A78C2;stroke-width:1.0417;"/><text fill="#222222" font-family="Verdana" font-size="11.4583" lengthAdjust="spacing" textLength="61.5606" x="621.875" y="455.9972">getName()</text><ellipse cx="603.125" cy="487.7645" fill="#FFFFFF" fill-opacity="0.00000" rx="3.125" ry="3.125" style="stroke:#1A78C2;stroke-width:1.0417;"/><text fill="#222222" font-family="Verdana" font-size="11.4583" lengthAdjust="spacing" textLength="73.8413" x="621.875" y="490.1688">getAddress()</text><line style="stroke:#2196F3;stroke-width:1.0417;stroke-dasharray:1.0,2.0;" x1="592.7083" x2="604.4151" y1="417.8589" y2="417.8589"/><text fill="#222222" font-family="Verdana" font-size="11.4583" lengthAdjust="spacing" textLength="79.4418" x="614.8318" y="421.3048">Simple Getter</text><line style="stroke:#2196F3;stroke-width:1.0417;stroke-dasharray:1.0,2.0;" x1="704.6903" x2="716.3971" y1="417.8589" y2="417.8589"/><ellipse cx="603.125" cy="560.2743" fill="#FFFFFF" fill-opacity="0.00000" rx="3.125" ry="3.125" style="stroke:#1A78C2;stroke-width:1.0417;"/><text fill="#222222" font-family="Verdana" font-size="11.4583" lengthAdjust="spacing" textLength="60.257" x="621.875" y="562.6785">setName()</text><line style="stroke:#2196F3;stroke-width:1.0417;stroke-dasharray:1.0,2.0;" x1="592.7083" x2="609.1848" y1="524.5402" y2="524.5402"/><text fill="#222222" font-family="Verdana" font-size="11.4583" lengthAdjust="spacing" textLength="69.9025" x="619.6014" y="527.9861">Some setter</text><line style="stroke:#2196F3;stroke-width:1.0417;stroke-dasharray:1.0,2.0;" x1="699.9207" x2="716.3971" y1="524.5402" y2="524.5402"/><text fill="#222222" font-family="Verdana" font-size="11.4583" lengthAdjust="spacing" textLength="39.9251" x="608.3333" y="635.1883">int age</text><line style="stroke:#2196F3;stroke-width:1.0417;" x1="592.7083" x2="609.154" y1="597.05" y2="597.05"/><text fill="#222222" font-family="Verdana" font-size="11.4583" lengthAdjust="spacing" textLength="69.9641" x="619.5707" y="600.4959">private data</text><line style="stroke:#2196F3;stroke-width:1.0417;" x1="699.9514" x2="716.3971" y1="597.05" y2="597.05"/><text fill="#222222" font-family="Verdana" font-size="11.4583" lengthAdjust="spacing" textLength="92.4388" x="608.3333" y="707.6981">String password</text><line style="stroke:#2196F3;stroke-width:1.0417;" x1="592.7083" x2="615.0398" y1="669.5597" y2="669.5597"/><text fill="#222222" font-family="Verdana" font-size="11.4583" lengthAdjust="spacing" textLength="58.1924" x="625.4565" y="673.0057">encrypted</text><line style="stroke:#2196F3;stroke-width:1.0417;" x1="694.0656" x2="716.3971" y1="669.5597" y2="669.5597"/></g><!--class Foo--><g id="elem_Foo"><rect codeLine="54" fill="#FFFFFF" fill-opacity="0.00000" filter="url(#f1l86pe3e9c13s)" height="87.0931" id="Foo" rx="4.1667" ry="4.1667" style="stroke:#2196F3;stroke-width:1.0417;" width="214.0767" x="776.5625" y="78.6458"/><rect fill="url(#g1l86pe3e9c13s0)" height="44.5882" rx="4.1667" ry="4.1667" style="stroke:url(#g1l86pe3e9c13s0);stroke-width:1.0417;" width="214.0767" x="776.5625" y="78.6458"/><rect fill="url(#g1l86pe3e9c13s0)" height="4.1667" style="stroke:url(#g1l86pe3e9c13s0);stroke-width:1.0417;" width="214.0767" x="776.5625" y="119.0674"/><rect codeLine="54" fill="#FFFFFF" fill-opacity="0.00000" height="87.0931" id="Foo" rx="4.1667" ry="4.1667" style="stroke:#2196F3;stroke-width:1.0417;" width="214.0767" x="776.5625" y="78.6458"/><ellipse cx="791.1458" cy="100.9399" fill="#FFFFFF" fill-opacity="0.00000" rx="10.4167" ry="10.4167" style="stroke:#1A78C2;stroke-width:1.0417;"/><path d="M793.0501,105.367 Q792.627,105.5786 792.1549,105.6925 Q791.6829,105.8065 791.1784,105.8065 Q789.3229,105.8065 788.3464,104.6021 Q787.3861,103.3813 787.3861,101.0864 Q787.3861,98.7752 788.3464,97.5708 Q789.3229,96.3501 791.1784,96.3501 Q791.6829,96.3501 792.1549,96.464 Q792.6432,96.5617 793.0501,96.7896 L793.0501,98.7915 Q792.5944,98.3683 792.1549,98.173 Q791.7155,97.9614 791.2598,97.9614 Q790.2669,97.9614 789.7624,98.759 Q789.2578,99.5402 789.2578,101.0864 Q789.2578,102.6164 789.7624,103.3976 Q790.2669,104.1789 791.2598,104.1789 Q791.7155,104.1789 792.1549,103.9836 Q792.5944,103.7882 793.0501,103.3651 L793.0501,105.367 Z " fill="#2196F3"/><text fill="#222222" font-family="Verdana" font-size="11.4583" lengthAdjust="spacing" textLength="20.6116" x="815.1042" y="104.9067">Foo</text><rect fill="#FFFFFF" fill-opacity="0.00000" height="37.4674" style="stroke:#2196F3;stroke-width:1.0417;stroke-dasharray:2.0,2.0;" width="139.2985" x="854.4657" y="75.5208"/><text fill="#222222" font-family="Verdana" font-size="12.5" font-style="italic" lengthAdjust="spacing" textLength="116.3818" x="865.9241" y="98.5819">? extends Element</text><line style="stroke:#2196F3;stroke-width:1.0417;" x1="777.6042" x2="989.5976" y1="123.234" y2="123.234"/><text fill="#222222" font-family="Verdana" font-size="11.4583" lengthAdjust="spacing" textLength="53.3808" x="793.2292" y="148.4533">int si ze()</text></g><polygon fill="#FFFFFF" fill-opacity="0.00000" points="321.5129,144.7944,317.2546,164.0945,329.6863,162.7894,321.5129,144.7944" style="stroke:#2196F3;stroke-width:1.0417;"/><path d="M323.4705,163.4419 C330.5566,230.9412 350.465,420.5815 357.6106,488.6487 " fill="#FFFFFF" fill-opacity="0.00000" style="stroke:#2196F3;stroke-width:3.125;"/><text fill="#222222" font-family="Verdana" font-size="12.5" lengthAdjust="spacing" textLength="72.7478" x="347.3958" y="264.7278">AList to List</text><polygon fill="#FFFFFF" fill-opacity="0.00000" points="114.9961,144.7944,107.7471,163.1813,120.2291,163.8533,114.9961,144.7944" style="stroke:#2196F3;stroke-width:1.0417;"/><path d="M113.9881,163.5173 C110.3542,231.0166 100.1489,420.5815 96.4844,488.6487 " fill="#FFFFFF" fill-opacity="0.00000" style="stroke:#2196F3;stroke-width:3.125;"/><text fill="#222222" font-family="Verdana" font-size="12.5" lengthAdjust="spacing" textLength="75.6897" x="122.3958" y="264.7278">AColl to Coll</text><text fill="#222222" font-family="Verdana" font-size="12.5" lengthAdjust="spacing" textLength="35.1563" x="50.6511" y="475.2515">many</text><text fill="#222222" font-family="Verdana" font-size="12.5" lengthAdjust="spacing" textLength="35.1563" x="69.1627" y="167.8555">many</text><polygon fill="#FFFFFF" fill-opacity="0.00000" points="170.3128,122.3958,189.0628,128.6458,189.0628,116.1458,170.3128,122.3958" style="stroke:#2196F3;stroke-width:1.0417;"/><path d="M189.0628,122.3958 C224.7904,122.3958 251.855,122.3958 283.1829,122.3958 " fill="#FFFFFF" fill-opacity="0.00000" style="stroke:#2196F3;stroke-width:3.125;"/><text fill="#222222" font-family="Verdana" font-size="12.5" lengthAdjust="spacing" textLength="65.6677" x="194.0104" y="104.8319">List to Coll</text><polygon fill="#FFFFFF" fill-opacity="0.00000" points="173.9799,511.4583,192.7299,517.7083,192.7299,505.2083,173.9799,511.4583" style="stroke:#2196F3;stroke-width:1.0417;"/><path d="M192.7299,511.4583 C232.9445,511.4583 262.3671,511.4583 299.5992,511.4583 " fill="#FFFFFF" fill-opacity="0.00000" style="stroke:#2196F3;stroke-width:3.125;"/><text fill="#222222" font-family="Verdana" font-size="12.5" lengthAdjust="spacing" textLength="82.7698" x="195.8333" y="493.8944">AList to AColl</text><polygon fill="#FFFFFF" fill-opacity="0.00000" points="356.9229,534.107,348.1754,551.8301,360.5588,553.5339,356.9229,534.107" style="stroke:#2196F3;stroke-width:1.0417;"/><path d="M354.3671,552.682 C345.8464,614.6093 323.6527,775.9102 310.3178,872.8263 " fill="#FFFFFF" fill-opacity="0.00000" style="stroke:#2196F3;stroke-width:3.125;"/><text fill="#222222" font-family="Verdana" font-size="12.5" lengthAdjust="spacing" textLength="86.438" x="352.7781" y="766.8111">ArList to AList</text><path d="M332.8125,790.5924 L332.8125,841.6341 A4.1667,4.1667 0 0 0 336.9792,845.8008 L451.5625,845.8008 A4.1667,4.1667 0 0 0 455.7292,841.6341 L455.7292,796.8424 L445.3125,786.4258 L336.9792,786.4258 A4.1667,4.1667 0 0 0 332.8125,790.5924 " fill="#FFFFFF" fill-opacity="0.00000" filter="url(#f1l86pe3e9c13s)" style="stroke:#9C27B0;stroke-width:1.0417;"/><path d="M445.3125,786.4258 L445.3125,794.7591 A2.0833,2.0833 0 0 0 447.3958,796.8424 L455.7292,796.8424 L445.3125,786.4258 " fill="#FFFFFF" fill-opacity="0.00000" style="stroke:#9C27B0;stroke-width:1.0417;"/><text fill="#9C27B0" font-family="Verdana" font-size="12.5" lengthAdjust="spacing" textLength="80.5359" x="349.4792" y="813.6536">this is a note</text><text fill="#9C27B0" font-family="Verdana" font-size="12.5" lengthAdjust="spacing" textLength="41.6504" x="349.4792" y="828.2043">on link</text><polygon fill="#2196F3" points="380.8838,937.5,390.2588,941.6667,386.0921,937.5,390.2588,933.3333,380.8838,937.5" style="stroke:#2196F3;stroke-width:1.0417;"/><ellipse cx="391.4621" cy="937.5" fill="#FFFFFF" fill-opacity="0.00000" rx="8.3333" ry="8.3333" style="stroke:#2196F3;stroke-width:1.0417;"/><line style="stroke:#2196F3;stroke-width:1.0417;" x1="383.1288" x2="399.7954" y1="937.5" y2="937.5"/><line style="stroke:#2196F3;stroke-width:1.0417;" x1="391.4621" x2="391.4621" y1="929.1667" y2="945.8333"/><path d="M387.1338,937.5 C393.4377,937.5 376.8249,937.5 383.1288,937.5 " fill="#FFFFFF" fill-opacity="0.00000" style="stroke:#2196F3;stroke-width:3.125;"/><polygon fill="#2196F3" points="96.0557,534.107,92.2138,543.6197,96.2348,539.3123,100.5422,543.3332,96.0557,534.107" style="stroke:#2196F3;stroke-width:1.0417;"/><rect fill="#FFFFFF" fill-opacity="0.00000" height="10.4167" style="stroke:#2196F3;stroke-width:1.5625;" width="10.4167" x="103.9283" y="909.1781"/><path d="M96.2706,540.3533 C98.7664,612.9112 106.4381,835.9364 108.9576,909.1812 " fill="#FFFFFF" fill-opacity="0.00000" style="stroke:#2196F3;stroke-width:3.125;"/><polygon fill="#2196F3" points="222.3424,937.5,212.9674,933.3333,217.134,937.5,212.9674,941.6667,222.3424,937.5" style="stroke:#2196F3;stroke-width:1.0417;"/><path d="M198.6165,937.5 C206.5251,937.5 208.1838,937.5 216.0924,937.5 " fill="#FFFFFF" fill-opacity="0.00000" style="stroke:#2196F3;stroke-width:3.125;"/><polygon fill="#2196F3" points="883.8542,166.3296,879.6875,172.5796,883.8542,178.8296,888.0208,172.5796,883.8542,166.3296" style="stroke:#2196F3;stroke-width:1.0417;"/><path d="M883.8542,178.8296 C883.8542,261.2832 883.8542,426.7227 883.8542,488.6444 " fill="#FFFFFF" fill-opacity="0.00000" style="stroke:#2196F3;stroke-width:3.125;"/><path d="M883.8542,534.107 C883.8542,610.5459 883.8542,866.6885 883.8542,924.7063 " fill="#FFFFFF" fill-opacity="0.00000" style="stroke:#2196F3;stroke-width:3.125;"/></g></svg>