<svg xmlns="http://www.w3.org/2000/svg" xmlns:xlink="http://www.w3.org/1999/xlink" contentStyleType="text/css" data-diagram-type="CLASS" height="407.2917px" preserveAspectRatio="none" style="width:605px;height:407px;" version="1.1" viewBox="0 0 605 407" width="605.2083px" zoomAndPan="magnify"><defs><linearGradient id="g83qyj3hekfh60" x1="50%" x2="50%" y1="0%" y2="100%"><stop offset="0%" stop-color="#E5E4E2"/><stop offset="100%" stop-color="#B7B6B5"/></linearGradient><linearGradient id="g83qyj3hekfh61" x1="50%" x2="50%" y1="0%" y2="100%"><stop offset="0%" stop-color="#EAE9E8"/><stop offset="100%" stop-color="#B7B6B5"/></linearGradient><linearGradient id="g83qyj3hekfh62" x1="50%" x2="50%" y1="0%" y2="100%"><stop offset="0%" stop-color="#C0C0C0"/><stop offset="100%" stop-color="#9A9A9A"/></linearGradient></defs><g><!--class abstract--><g id="elem_abstract"><rect codeLine="6" fill="url(#g83qyj3hekfh60)" height="57.0882" id="abstract" rx="7.8125" ry="7.8125" style="stroke:#B7B6B5;stroke-width:1.0417;" width="95.1991" x="23.9583" y="22.9167"/><rect fill="url(#g83qyj3hekfh61)" height="40.4215" rx="7.8125" ry="7.8125" style="stroke:url(#g83qyj3hekfh61);stroke-width:1.0417;" width="95.1991" x="23.9583" y="22.9167"/><rect fill="url(#g83qyj3hekfh61)" height="7.8125" style="stroke:url(#g83qyj3hekfh61);stroke-width:1.0417;" width="95.1991" x="23.9583" y="55.5257"/><rect codeLine="6" fill="#FFFFFF" fill-opacity="0.00000" height="57.0882" id="abstract" rx="7.8125" ry="7.8125" style="stroke:#B7B6B5;stroke-width:1.0417;" width="95.1991" x="23.9583" y="22.9167"/><ellipse cx="38.5417" cy="43.1274" fill="#FFFFFF" fill-opacity="0.00000" rx="10.4167" ry="10.4167" style="stroke:#B7B6B5;stroke-width:1.0417;"/><path d="M38.1348,40.0838 L37.2884,43.811 L38.9974,43.811 L38.1348,40.0838 Z M37.0443,38.4399 L39.2415,38.4399 L41.6992,47.5545 L39.8926,47.5545 L39.3392,45.3084 L36.9303,45.3084 L36.377,47.5545 L34.5703,47.5545 L37.0443,38.4399 Z " fill="#4682B4"/><text fill="#4D4D4D" font-family="Verdana" font-size="11.4583" font-style="italic" lengthAdjust="spacing" textLength="47.2824" x="60.4167" y="47.0942">abstract</text><line style="stroke:#B7B6B5;stroke-width:1.0417;" x1="25" x2="118.1157" y1="63.3382" y2="63.3382"/><line style="stroke:#B7B6B5;stroke-width:1.0417;" x1="25" x2="118.1157" y1="71.6715" y2="71.6715"/></g><!--class abstract class--><g id="elem_abstract class"><rect codeLine="7" fill="url(#g83qyj3hekfh60)" height="57.0882" id="abstract class" rx="7.8125" ry="7.8125" style="stroke:#B7B6B5;stroke-width:1.0417;" width="127.2858" x="138.0208" y="22.9167"/><rect fill="url(#g83qyj3hekfh61)" height="40.4215" rx="7.8125" ry="7.8125" style="stroke:url(#g83qyj3hekfh61);stroke-width:1.0417;" width="127.2858" x="138.0208" y="22.9167"/><rect fill="url(#g83qyj3hekfh61)" height="7.8125" style="stroke:url(#g83qyj3hekfh61);stroke-width:1.0417;" width="127.2858" x="138.0208" y="55.5257"/><rect codeLine="7" fill="#FFFFFF" fill-opacity="0.00000" height="57.0882" id="abstract class" rx="7.8125" ry="7.8125" style="stroke:#B7B6B5;stroke-width:1.0417;" width="127.2858" x="138.0208" y="22.9167"/><ellipse cx="152.6042" cy="43.1274" fill="#FFFFFF" fill-opacity="0.00000" rx="10.4167" ry="10.4167" style="stroke:#B7B6B5;stroke-width:1.0417;"/><path d="M152.1973,40.0838 L151.3509,43.811 L153.0599,43.811 L152.1973,40.0838 Z M151.1068,38.4399 L153.304,38.4399 L155.7617,47.5545 L153.9551,47.5545 L153.4017,45.3084 L150.9928,45.3084 L150.4395,47.5545 L148.6328,47.5545 L151.1068,38.4399 Z " fill="#4682B4"/><text fill="#4D4D4D" font-family="Verdana" font-size="11.4583" font-style="italic" lengthAdjust="spacing" textLength="79.3691" x="174.4792" y="47.0942">abstract class</text><line style="stroke:#B7B6B5;stroke-width:1.0417;" x1="139.0625" x2="264.2649" y1="63.3382" y2="63.3382"/><line style="stroke:#B7B6B5;stroke-width:1.0417;" x1="139.0625" x2="264.2649" y1="71.6715" y2="71.6715"/></g><!--class annotation--><g id="elem_annotation"><rect codeLine="8" fill="url(#g83qyj3hekfh60)" height="57.0882" id="annotation" rx="7.8125" ry="7.8125" style="stroke:#B7B6B5;stroke-width:1.0417;" width="109.936" x="283.8542" y="22.9167"/><rect fill="url(#g83qyj3hekfh61)" height="40.4215" rx="7.8125" ry="7.8125" style="stroke:url(#g83qyj3hekfh61);stroke-width:1.0417;" width="109.936" x="283.8542" y="22.9167"/><rect fill="url(#g83qyj3hekfh61)" height="7.8125" style="stroke:url(#g83qyj3hekfh61);stroke-width:1.0417;" width="109.936" x="283.8542" y="55.5257"/><rect codeLine="8" fill="#FFFFFF" fill-opacity="0.00000" height="57.0882" id="annotation" rx="7.8125" ry="7.8125" style="stroke:#B7B6B5;stroke-width:1.0417;" width="109.936" x="283.8542" y="22.9167"/><ellipse cx="298.4375" cy="43.1274" fill="#FFFFFF" fill-opacity="0.00000" rx="10.4167" ry="10.4167" style="stroke:#B7B6B5;stroke-width:1.0417;"/><path d="M299.6908,42.9321 Q299.6908,42.2323 299.3815,41.8416 Q299.0723,41.451 298.5189,41.451 Q297.9818,41.451 297.6725,41.8416 Q297.3633,42.2323 297.3633,42.9321 Q297.3633,43.6157 297.6725,44.0063 Q297.9818,44.397 298.5189,44.397 Q299.0723,44.397 299.3815,44.0063 Q299.6908,43.6157 299.6908,42.9321 Z M300.8301,45.4224 L299.6257,45.4224 L299.6257,44.9341 Q299.3978,45.2433 299.0723,45.4061 Q298.763,45.5526 298.3236,45.5526 Q297.3307,45.5526 296.7122,44.8364 Q296.0938,44.104 296.0938,42.9321 Q296.0938,41.744 296.696,41.0278 Q297.3145,40.3117 298.3236,40.3117 Q298.763,40.3117 299.0885,40.4582 Q299.4141,40.6047 299.6257,40.8976 L299.6257,40.6535 Q299.6257,39.8234 299.1699,39.3677 Q298.7142,38.9119 297.8841,38.9119 Q296.6146,38.9119 295.8008,40.035 Q295.0033,41.1418 295.0033,42.9321 Q295.0033,44.8039 295.931,45.9269 Q296.8587,47.0337 298.4049,47.0337 Q298.8932,47.0337 299.349,46.8872 Q299.8047,46.7407 300.2279,46.4478 L300.7813,47.522 Q300.293,47.8638 299.707,48.0265 Q299.1211,48.2056 298.4701,48.2056 Q296.3216,48.2056 295.0521,46.7733 Q293.7826,45.3573 293.7826,42.9321 Q293.7826,40.5721 294.9219,39.1561 Q296.0775,37.7401 297.9492,37.7401 Q299.2839,37.7401 300.0488,38.5376 Q300.8301,39.3351 300.8301,40.7349 L300.8301,45.4224 Z " fill="#4682B4"/><text fill="#4D4D4D" font-family="Verdana" font-size="11.4583" lengthAdjust="spacing" textLength="62.0193" x="320.3125" y="47.0942">annotation</text><line style="stroke:#B7B6B5;stroke-width:1.0417;" x1="284.8958" x2="392.7485" y1="63.3382" y2="63.3382"/><line style="stroke:#B7B6B5;stroke-width:1.0417;" x1="284.8958" x2="392.7485" y1="71.6715" y2="71.6715"/></g><!--entity circle--><g id="elem_circle"><ellipse cx="422.3958" cy="48.4375" fill="#C5673E" rx="8.3333" ry="8.3333" style="stroke:#B7410E;stroke-width:1.0417;"/><text fill="#4D4D4D" font-family="Verdana" font-size="12.5" lengthAdjust="spacing" textLength="33.5205" x="405.6356" y="86.0819">circle</text></g><!--entity circle_short_form--><g id="elem_circle_short_form"><ellipse cx="459.8958" cy="48.4375" fill="#C5673E" rx="8.3333" ry="8.3333" style="stroke:#B7410E;stroke-width:1.0417;"/><text fill="#4D4D4D" font-family="Verdana" font-size="12.5" lengthAdjust="spacing" textLength="107.5073" x="406.1422" y="86.0819">circle_short_form</text></g><!--class class--><g id="elem_class"><rect codeLine="11" fill="url(#g83qyj3hekfh60)" height="57.0882" id="class" rx="7.8125" ry="7.8125" style="stroke:#B7B6B5;stroke-width:1.0417;" width="76.3611" x="33.3333" y="133.3333"/><rect fill="url(#g83qyj3hekfh61)" height="40.4215" rx="7.8125" ry="7.8125" style="stroke:url(#g83qyj3hekfh61);stroke-width:1.0417;" width="76.3611" x="33.3333" y="133.3333"/><rect fill="url(#g83qyj3hekfh61)" height="7.8125" style="stroke:url(#g83qyj3hekfh61);stroke-width:1.0417;" width="76.3611" x="33.3333" y="165.9424"/><rect codeLine="11" fill="#FFFFFF" fill-opacity="0.00000" height="57.0882" id="class" rx="7.8125" ry="7.8125" style="stroke:#B7B6B5;stroke-width:1.0417;" width="76.3611" x="33.3333" y="133.3333"/><ellipse cx="47.9167" cy="153.5441" fill="#FFFFFF" fill-opacity="0.00000" rx="10.4167" ry="10.4167" style="stroke:#B7B6B5;stroke-width:1.0417;"/><path d="M49.821,157.9712 Q49.3978,158.1828 48.9258,158.2967 Q48.4538,158.4106 47.9492,158.4106 Q46.0938,158.4106 45.1172,157.2062 Q44.1569,155.9855 44.1569,153.6906 Q44.1569,151.3794 45.1172,150.175 Q46.0938,148.9543 47.9492,148.9543 Q48.4538,148.9543 48.9258,149.0682 Q49.4141,149.1659 49.821,149.3937 L49.821,151.3957 Q49.3652,150.9725 48.9258,150.7772 Q48.4863,150.5656 48.0306,150.5656 Q47.0378,150.5656 46.5332,151.3631 Q46.0286,152.1444 46.0286,153.6906 Q46.0286,155.2205 46.5332,156.0018 Q47.0378,156.783 48.0306,156.783 Q48.4863,156.783 48.9258,156.5877 Q49.3652,156.3924 49.821,155.9692 L49.821,157.9712 Z " fill="#4682B4"/><text fill="#4D4D4D" font-family="Verdana" font-size="11.4583" lengthAdjust="spacing" textLength="28.4444" x="69.7917" y="157.5109">class</text><line style="stroke:#B7B6B5;stroke-width:1.0417;" x1="34.375" x2="108.6528" y1="173.7549" y2="173.7549"/><line style="stroke:#B7B6B5;stroke-width:1.0417;" x1="34.375" x2="108.6528" y1="182.0882" y2="182.0882"/></g><!--class class_stereo--><g id="elem_class_stereo"><rect codeLine="12" fill="url(#g83qyj3hekfh60)" height="88.3057" id="class_stereo" rx="7.8125" ry="7.8125" style="stroke:#B7B6B5;stroke-width:1.0417;" width="126.6846" x="128.6458" y="117.7083"/><rect fill="url(#g83qyj3hekfh61)" height="71.639" rx="7.8125" ry="7.8125" style="stroke:url(#g83qyj3hekfh61);stroke-width:1.0417;" width="126.6846" x="128.6458" y="117.7083"/><rect fill="url(#g83qyj3hekfh61)" height="7.8125" style="stroke:url(#g83qyj3hekfh61);stroke-width:1.0417;" width="126.6846" x="128.6458" y="181.5348"/><rect codeLine="12" fill="#FFFFFF" fill-opacity="0.00000" height="88.3057" id="class_stereo" rx="7.8125" ry="7.8125" style="stroke:#B7B6B5;stroke-width:1.0417;" width="126.6846" x="128.6458" y="117.7083"/><ellipse cx="143.2292" cy="153.5278" fill="#FFFFFF" fill-opacity="0.00000" rx="10.4167" ry="10.4167" style="stroke:#B7B6B5;stroke-width:1.0417;"/><path d="M145.1335,157.9549 Q144.7103,158.1665 144.2383,158.2804 Q143.7663,158.3944 143.2617,158.3944 Q141.4063,158.3944 140.4297,157.1899 Q139.4694,155.9692 139.4694,153.6743 Q139.4694,151.3631 140.4297,150.1587 Q141.4063,148.938 143.2617,148.938 Q143.7663,148.938 144.2383,149.0519 Q144.7266,149.1496 145.1335,149.3774 L145.1335,151.3794 Q144.6777,150.9562 144.2383,150.7609 Q143.7988,150.5493 143.3431,150.5493 Q142.3503,150.5493 141.8457,151.3468 Q141.3411,152.1281 141.3411,153.6743 Q141.3411,155.2043 141.8457,155.9855 Q142.3503,156.7668 143.3431,156.7668 Q143.7988,156.7668 144.2383,156.5715 Q144.6777,156.3761 145.1335,155.953 L145.1335,157.9549 Z " fill="#4682B4"/><text fill="#4D4D4D" font-family="Verdana" font-size="12.5" font-style="italic" lengthAdjust="spacing" textLength="82.9346" x="163.0208" y="142.8528">&#171;stereotype&#187;</text><text fill="#4D4D4D" font-family="Verdana" font-size="11.4583" lengthAdjust="spacing" textLength="70.4564" x="169.2599" y="173.1033">class_stereo</text><line style="stroke:#B7B6B5;stroke-width:1.0417;" x1="129.6875" x2="254.2887" y1="189.3473" y2="189.3473"/><line style="stroke:#B7B6B5;stroke-width:1.0417;" x1="129.6875" x2="254.2887" y1="197.6807" y2="197.6807"/></g><g id="elem_diamond"><polygon fill="url(#g83qyj3hekfh62)" points="286.9792,149.4792,299.4792,161.9792,286.9792,174.4792,274.4792,161.9792,286.9792,149.4792" style="stroke:#9A9A9A;stroke-width:1.0417;"/></g><polygon fill="url(#g83qyj3hekfh62)" points="330.7292,149.4792,343.2292,161.9792,330.7292,174.4792,318.2292,161.9792,330.7292,149.4792" style="stroke:#9A9A9A;stroke-width:1.0417;"/><!--class entity--><g id="elem_entity"><rect codeLine="15" fill="url(#g83qyj3hekfh60)" height="57.0882" id="entity" rx="7.8125" ry="7.8125" style="stroke:#B7B6B5;stroke-width:1.0417;" width="81.1783" x="361.9792" y="133.3333"/><rect fill="url(#g83qyj3hekfh61)" height="40.4215" rx="7.8125" ry="7.8125" style="stroke:url(#g83qyj3hekfh61);stroke-width:1.0417;" width="81.1783" x="361.9792" y="133.3333"/><rect fill="url(#g83qyj3hekfh61)" height="7.8125" style="stroke:url(#g83qyj3hekfh61);stroke-width:1.0417;" width="81.1783" x="361.9792" y="165.9424"/><rect codeLine="15" fill="#FFFFFF" fill-opacity="0.00000" height="57.0882" id="entity" rx="7.8125" ry="7.8125" style="stroke:#B7B6B5;stroke-width:1.0417;" width="81.1783" x="361.9792" y="133.3333"/><ellipse cx="376.5625" cy="153.5441" fill="#FFFFFF" fill-opacity="0.00000" rx="10.4167" ry="10.4167" style="stroke:#B7B6B5;stroke-width:1.0417;"/><path d="M379.1016,158.2316 L373.4212,158.2316 L373.4212,149.117 L379.1016,149.117 L379.1016,150.7121 L375.2279,150.7121 L375.2279,152.6652 L378.7272,152.6652 L378.7272,154.2603 L375.2279,154.2603 L375.2279,156.6366 L379.1016,156.6366 L379.1016,158.2316 Z " fill="#4682B4"/><text fill="#4D4D4D" font-family="Verdana" font-size="11.4583" lengthAdjust="spacing" textLength="33.2616" x="398.4375" y="157.5109">entity</text><line style="stroke:#B7B6B5;stroke-width:1.0417;" x1="363.0208" x2="442.1158" y1="173.7549" y2="173.7549"/><line style="stroke:#B7B6B5;stroke-width:1.0417;" x1="363.0208" x2="442.1158" y1="182.0882" y2="182.0882"/></g><!--class enum--><g id="elem_enum"><rect codeLine="16" fill="url(#g83qyj3hekfh60)" height="57.0882" id="enum" rx="7.8125" ry="7.8125" style="stroke:#B7B6B5;stroke-width:1.0417;" width="80.6524" x="31.25" y="243.75"/><rect fill="url(#g83qyj3hekfh61)" height="40.4215" rx="7.8125" ry="7.8125" style="stroke:url(#g83qyj3hekfh61);stroke-width:1.0417;" width="80.6524" x="31.25" y="243.75"/><rect fill="url(#g83qyj3hekfh61)" height="7.8125" style="stroke:url(#g83qyj3hekfh61);stroke-width:1.0417;" width="80.6524" x="31.25" y="276.359"/><rect codeLine="16" fill="#FFFFFF" fill-opacity="0.00000" height="57.0882" id="enum" rx="7.8125" ry="7.8125" style="stroke:#B7B6B5;stroke-width:1.0417;" width="80.6524" x="31.25" y="243.75"/><ellipse cx="45.8333" cy="263.9608" fill="#FFFFFF" fill-opacity="0.00000" rx="10.4167" ry="10.4167" style="stroke:#B7B6B5;stroke-width:1.0417;"/><path d="M48.3724,268.6483 L42.6921,268.6483 L42.6921,259.5337 L48.3724,259.5337 L48.3724,261.1287 L44.4987,261.1287 L44.4987,263.0819 L47.998,263.0819 L47.998,264.6769 L44.4987,264.6769 L44.4987,267.0532 L48.3724,267.0532 L48.3724,268.6483 Z " fill="#4682B4"/><text fill="#4D4D4D" font-family="Verdana" font-size="11.4583" lengthAdjust="spacing" textLength="32.7357" x="67.7083" y="267.9276">enum</text><line style="stroke:#B7B6B5;stroke-width:1.0417;" x1="32.2917" x2="110.8607" y1="284.1715" y2="284.1715"/><line style="stroke:#B7B6B5;stroke-width:1.0417;" x1="32.2917" x2="110.8607" y1="292.5049" y2="292.5049"/></g><!--class exception--><g id="elem_exception"><rect codeLine="17" fill="url(#g83qyj3hekfh60)" height="57.0882" id="exception" rx="7.8125" ry="7.8125" style="stroke:#B7B6B5;stroke-width:1.0417;" width="104.3187" x="130.7292" y="243.75"/><rect fill="url(#g83qyj3hekfh61)" height="40.4215" rx="7.8125" ry="7.8125" style="stroke:url(#g83qyj3hekfh61);stroke-width:1.0417;" width="104.3187" x="130.7292" y="243.75"/><rect fill="url(#g83qyj3hekfh61)" height="7.8125" style="stroke:url(#g83qyj3hekfh61);stroke-width:1.0417;" width="104.3187" x="130.7292" y="276.359"/><rect codeLine="17" fill="#FFFFFF" fill-opacity="0.00000" height="57.0882" id="exception" rx="7.8125" ry="7.8125" style="stroke:#B7B6B5;stroke-width:1.0417;" width="104.3187" x="130.7292" y="243.75"/><ellipse cx="145.3125" cy="263.9608" fill="#FFFFFF" fill-opacity="0.00000" rx="10.4167" ry="10.4167" style="stroke:#B7B6B5;stroke-width:1.0417;"/><path d="M148.5026,268.6483 L146.6471,268.6483 L144.9056,265.6372 L143.1803,268.6483 L141.3086,268.6483 L143.9779,264.0259 L141.39,259.5337 L143.2454,259.5337 L144.9056,262.4308 L146.5658,259.5337 L148.4375,259.5337 L145.8496,264.0259 L148.5026,268.6483 Z " fill="#4682B4"/><text fill="#4D4D4D" font-family="Verdana" font-size="11.4583" lengthAdjust="spacing" textLength="56.4021" x="167.1875" y="267.9276">exception</text><line style="stroke:#B7B6B5;stroke-width:1.0417;" x1="131.7708" x2="234.0062" y1="284.1715" y2="284.1715"/><line style="stroke:#B7B6B5;stroke-width:1.0417;" x1="131.7708" x2="234.0062" y1="292.5049" y2="292.5049"/></g><!--class interface--><g id="elem_interface"><rect codeLine="18" fill="url(#g83qyj3hekfh60)" height="57.0882" id="interface" rx="7.8125" ry="7.8125" style="stroke:#B7B6B5;stroke-width:1.0417;" width="99.0204" x="254.1667" y="243.75"/><rect fill="url(#g83qyj3hekfh61)" height="40.4215" rx="7.8125" ry="7.8125" style="stroke:url(#g83qyj3hekfh61);stroke-width:1.0417;" width="99.0204" x="254.1667" y="243.75"/><rect fill="url(#g83qyj3hekfh61)" height="7.8125" style="stroke:url(#g83qyj3hekfh61);stroke-width:1.0417;" width="99.0204" x="254.1667" y="276.359"/><rect codeLine="18" fill="#FFFFFF" fill-opacity="0.00000" height="57.0882" id="interface" rx="7.8125" ry="7.8125" style="stroke:#B7B6B5;stroke-width:1.0417;" width="99.0204" x="254.1667" y="243.75"/><ellipse cx="268.75" cy="263.9608" fill="#FFFFFF" fill-opacity="0.00000" rx="10.4167" ry="10.4167" style="stroke:#B7B6B5;stroke-width:1.0417;"/><path d="M265.6413,261.1287 L265.6413,259.5337 L271.0612,259.5337 L271.0612,261.1287 L269.2546,261.1287 L269.2546,267.0532 L271.0612,267.0532 L271.0612,268.6483 L265.6413,268.6483 L265.6413,267.0532 L267.4479,267.0532 L267.4479,261.1287 L265.6413,261.1287 Z " fill="#4682B4"/><text fill="#4D4D4D" font-family="Verdana" font-size="11.4583" font-style="italic" lengthAdjust="spacing" textLength="51.1037" x="290.625" y="267.9276">interface</text><line style="stroke:#B7B6B5;stroke-width:1.0417;" x1="255.2083" x2="352.1454" y1="284.1715" y2="284.1715"/><line style="stroke:#B7B6B5;stroke-width:1.0417;" x1="255.2083" x2="352.1454" y1="292.5049" y2="292.5049"/></g><!--class metaclass--><g id="elem_metaclass"><rect codeLine="19" fill="url(#g83qyj3hekfh60)" height="57.0882" id="metaclass" rx="7.8125" ry="7.8125" style="stroke:#B7B6B5;stroke-width:1.0417;" width="106.0867" x="372.3958" y="243.75"/><rect fill="url(#g83qyj3hekfh61)" height="40.4215" rx="7.8125" ry="7.8125" style="stroke:url(#g83qyj3hekfh61);stroke-width:1.0417;" width="106.0867" x="372.3958" y="243.75"/><rect fill="url(#g83qyj3hekfh61)" height="7.8125" style="stroke:url(#g83qyj3hekfh61);stroke-width:1.0417;" width="106.0867" x="372.3958" y="276.359"/><rect codeLine="19" fill="#FFFFFF" fill-opacity="0.00000" height="57.0882" id="metaclass" rx="7.8125" ry="7.8125" style="stroke:#B7B6B5;stroke-width:1.0417;" width="106.0867" x="372.3958" y="243.75"/><ellipse cx="386.9792" cy="263.9608" fill="#FFFFFF" fill-opacity="0.00000" rx="10.4167" ry="10.4167" style="stroke:#B7B6B5;stroke-width:1.0417;"/><path d="M383.3333,259.5337 L385.4818,259.5337 L386.5723,263.5376 L387.6465,259.5337 L389.8112,259.5337 L389.8112,268.6483 L388.265,268.6483 L388.265,261.3403 L387.3047,265.328 L385.8724,265.328 L384.8958,261.3403 L384.8958,268.6483 L383.3333,268.6483 L383.3333,259.5337 Z " fill="#4682B4"/><text fill="#4D4D4D" font-family="Verdana" font-size="11.4583" lengthAdjust="spacing" textLength="58.1701" x="408.8542" y="267.9276">metaclass</text><line style="stroke:#B7B6B5;stroke-width:1.0417;" x1="373.4375" x2="477.4409" y1="284.1715" y2="284.1715"/><line style="stroke:#B7B6B5;stroke-width:1.0417;" x1="373.4375" x2="477.4409" y1="292.5049" y2="292.5049"/></g><!--class protocol--><g id="elem_protocol"><rect codeLine="20" fill="url(#g83qyj3hekfh60)" height="57.0882" id="protocol" rx="7.8125" ry="7.8125" style="stroke:#B7B6B5;stroke-width:1.0417;" width="94.9081" x="497.9167" y="243.75"/><rect fill="url(#g83qyj3hekfh61)" height="40.4215" rx="7.8125" ry="7.8125" style="stroke:url(#g83qyj3hekfh61);stroke-width:1.0417;" width="94.9081" x="497.9167" y="243.75"/><rect fill="url(#g83qyj3hekfh61)" height="7.8125" style="stroke:url(#g83qyj3hekfh61);stroke-width:1.0417;" width="94.9081" x="497.9167" y="276.359"/><rect codeLine="20" fill="#FFFFFF" fill-opacity="0.00000" height="57.0882" id="protocol" rx="7.8125" ry="7.8125" style="stroke:#B7B6B5;stroke-width:1.0417;" width="94.9081" x="497.9167" y="243.75"/><ellipse cx="512.5" cy="263.9608" fill="#FFFFFF" fill-opacity="0.00000" rx="10.4167" ry="10.4167" style="stroke:#B7B6B5;stroke-width:1.0417;"/><path d="M511.6374,261.0474 L511.6374,263.7166 L512.3861,263.7166 Q513.265,263.7166 513.623,263.4237 Q513.9811,263.1307 513.9811,262.382 Q513.9811,261.6496 513.623,261.3566 Q513.265,261.0474 512.3861,261.0474 L511.6374,261.0474 Z M509.847,259.5337 L512.321,259.5337 Q514.209,259.5337 515.0228,260.2173 Q515.8529,260.8846 515.8529,262.382 Q515.8529,263.8957 515.0228,264.563 Q514.209,265.2303 512.321,265.2303 L511.6374,265.2303 L511.6374,268.6483 L509.847,268.6483 L509.847,259.5337 Z " fill="#4682B4"/><text fill="#4D4D4D" font-family="Verdana" font-size="11.4583" lengthAdjust="spacing" textLength="46.9915" x="534.375" y="267.9276">protocol</text><line style="stroke:#B7B6B5;stroke-width:1.0417;" x1="498.9583" x2="591.7831" y1="284.1715" y2="284.1715"/><line style="stroke:#B7B6B5;stroke-width:1.0417;" x1="498.9583" x2="591.7831" y1="292.5049" y2="292.5049"/></g><!--class stereotype--><g id="elem_stereotype"><rect codeLine="21" fill="url(#g83qyj3hekfh60)" height="57.0882" id="stereotype" rx="7.8125" ry="7.8125" style="stroke:#B7B6B5;stroke-width:1.0417;" width="109.7961" x="16.6667" y="338.5417"/><rect fill="url(#g83qyj3hekfh61)" height="40.4215" rx="7.8125" ry="7.8125" style="stroke:url(#g83qyj3hekfh61);stroke-width:1.0417;" width="109.7961" x="16.6667" y="338.5417"/><rect fill="url(#g83qyj3hekfh61)" height="7.8125" style="stroke:url(#g83qyj3hekfh61);stroke-width:1.0417;" width="109.7961" x="16.6667" y="371.1507"/><rect codeLine="21" fill="#FFFFFF" fill-opacity="0.00000" height="57.0882" id="stereotype" rx="7.8125" ry="7.8125" style="stroke:#B7B6B5;stroke-width:1.0417;" width="109.7961" x="16.6667" y="338.5417"/><ellipse cx="31.25" cy="358.7524" fill="#FFFFFF" fill-opacity="0.00000" rx="10.4167" ry="10.4167" style="stroke:#B7B6B5;stroke-width:1.0417;"/><path d="M30.1921,359.436 Q28.8411,358.9152 28.3529,358.3455 Q27.8646,357.7759 27.8646,356.8156 Q27.8646,355.5786 28.6621,354.8787 Q29.4596,354.1626 30.8431,354.1626 Q31.4779,354.1626 32.0964,354.3091 Q32.7311,354.4556 33.3496,354.7323 L33.3496,356.4901 Q32.7637,356.0832 32.1615,355.8716 Q31.5755,355.6437 30.9896,355.6437 Q30.3385,355.6437 29.9805,355.9204 Q29.6387,356.1808 29.6387,356.6691 Q29.6387,357.0435 29.8828,357.2876 Q30.1432,357.5317 30.9408,357.841 L31.722,358.134 Q32.8288,358.5246 33.3333,359.1919 Q33.8542,359.8592 33.8542,360.8683 Q33.8542,362.2518 33.0404,362.9354 Q32.2266,363.619 30.5827,363.619 Q29.8991,363.619 29.2155,363.4562 Q28.5482,363.2935 27.9134,362.9679 L27.9134,361.1125 Q28.6296,361.6333 29.2969,361.8774 Q29.9805,362.1216 30.6315,362.1216 Q31.2988,362.1216 31.6569,361.8286 Q32.0313,361.5194 32.0313,360.9823 Q32.0313,360.5754 31.7871,360.2661 Q31.543,359.9569 31.0872,359.7778 L30.1921,359.436 Z " fill="#4682B4"/><text fill="#4D4D4D" font-family="Verdana" font-size="11.4583" lengthAdjust="spacing" textLength="61.8795" x="53.125" y="362.7192">stereotype</text><line style="stroke:#B7B6B5;stroke-width:1.0417;" x1="17.7083" x2="125.4211" y1="378.9632" y2="378.9632"/><line style="stroke:#B7B6B5;stroke-width:1.0417;" x1="17.7083" x2="125.4211" y1="387.2965" y2="387.2965"/></g><!--class struct--><g id="elem_struct"><rect codeLine="22" fill="url(#g83qyj3hekfh60)" height="57.0882" id="struct" rx="7.8125" ry="7.8125" style="stroke:#B7B6B5;stroke-width:1.0417;" width="81.1447" x="145.3125" y="338.5417"/><rect fill="url(#g83qyj3hekfh61)" height="40.4215" rx="7.8125" ry="7.8125" style="stroke:url(#g83qyj3hekfh61);stroke-width:1.0417;" width="81.1447" x="145.3125" y="338.5417"/><rect fill="url(#g83qyj3hekfh61)" height="7.8125" style="stroke:url(#g83qyj3hekfh61);stroke-width:1.0417;" width="81.1447" x="145.3125" y="371.1507"/><rect codeLine="22" fill="#FFFFFF" fill-opacity="0.00000" height="57.0882" id="struct" rx="7.8125" ry="7.8125" style="stroke:#B7B6B5;stroke-width:1.0417;" width="81.1447" x="145.3125" y="338.5417"/><ellipse cx="159.8958" cy="358.7524" fill="#FFFFFF" fill-opacity="0.00000" rx="10.4167" ry="10.4167" style="stroke:#B7B6B5;stroke-width:1.0417;"/><path d="M158.8379,359.436 Q157.487,358.9152 156.9987,358.3455 Q156.5104,357.7759 156.5104,356.8156 Q156.5104,355.5786 157.3079,354.8787 Q158.1055,354.1626 159.4889,354.1626 Q160.1237,354.1626 160.7422,354.3091 Q161.377,354.4556 161.9954,354.7323 L161.9954,356.4901 Q161.4095,356.0832 160.8073,355.8716 Q160.2214,355.6437 159.6354,355.6437 Q158.9844,355.6437 158.6263,355.9204 Q158.2845,356.1808 158.2845,356.6691 Q158.2845,357.0435 158.5286,357.2876 Q158.7891,357.5317 159.5866,357.841 L160.3678,358.134 Q161.4746,358.5246 161.9792,359.1919 Q162.5,359.8592 162.5,360.8683 Q162.5,362.2518 161.6862,362.9354 Q160.8724,363.619 159.2285,363.619 Q158.5449,363.619 157.8613,363.4562 Q157.194,363.2935 156.5592,362.9679 L156.5592,361.1125 Q157.2754,361.6333 157.9427,361.8774 Q158.6263,362.1216 159.2773,362.1216 Q159.9447,362.1216 160.3027,361.8286 Q160.6771,361.5194 160.6771,360.9823 Q160.6771,360.5754 160.4329,360.2661 Q160.1888,359.9569 159.7331,359.7778 L158.8379,359.436 Z " fill="#4682B4"/><text fill="#4D4D4D" font-family="Verdana" font-size="11.4583" lengthAdjust="spacing" textLength="33.228" x="181.7708" y="362.7192">struct</text><line style="stroke:#B7B6B5;stroke-width:1.0417;" x1="146.3542" x2="225.4155" y1="378.9632" y2="378.9632"/><line style="stroke:#B7B6B5;stroke-width:1.0417;" x1="146.3542" x2="225.4155" y1="387.2965" y2="387.2965"/></g></g></svg>