<svg xmlns="http://www.w3.org/2000/svg" xmlns:xlink="http://www.w3.org/1999/xlink" contentStyleType="text/css" height="272.9167px" preserveAspectRatio="none" style="width:380px;height:272px;" version="1.1" viewBox="0 0 380 272" width="380.2083px" zoomAndPan="magnify"><defs><linearGradient id="g1kld7l2n54d0q0" x1="50%" x2="50%" y1="0%" y2="100%"><stop offset="0%" stop-color="#EEEEEE"/><stop offset="100%" stop-color="#BEBEBE"/></linearGradient><linearGradient id="g1kld7l2n54d0q1" x1="50%" x2="50%" y1="0%" y2="100%"><stop offset="0%" stop-color="#F1F1F1"/><stop offset="100%" stop-color="#BEBEBE"/></linearGradient></defs><g><!--class Map--><g id="elem_Map"><rect codeLine="8" fill="url(#g1kld7l2n54d0q0)" height="54.6631" id="Map" rx="7.8125" ry="7.8125" style="stroke:#F1F1F1;stroke-width:1.0416666666666667;" width="109.256" x="65.625" y="114.5833"/><rect fill="url(#g1kld7l2n54d0q1)" height="37.9964" rx="7.8125" ry="7.8125" style="stroke:url(#g1kld7l2n54d0q1);stroke-width:1.0416666666666667;" width="109.256" x="65.625" y="114.5833"/><rect fill="url(#g1kld7l2n54d0q1)" height="7.8125" style="stroke:url(#g1kld7l2n54d0q1);stroke-width:1.0416666666666667;" width="109.256" x="65.625" y="144.7673"/><rect codeLine="8" fill="none" height="54.6631" id="Map" rx="7.8125" ry="7.8125" style="stroke:#F1F1F1;stroke-width:1.0416666666666667;" width="109.256" x="65.625" y="114.5833"/><ellipse cx="80.2083" cy="133.5815" fill="none" rx="10.4167" ry="10.4167" style="stroke:#BEBEBE;stroke-width:1.0416666666666667;"/><path d="M77.0996,130.7495 L77.0996,129.1545 L82.5195,129.1545 L82.5195,130.7495 L80.7129,130.7495 L80.7129,136.674 L82.5195,136.674 L82.5195,138.269 L77.0996,138.269 L77.0996,136.674 L78.9063,136.674 L78.9063,130.7495 L77.0996,130.7495 Z " fill="#336699"/><text fill="#303030" font-family="Verdana" font-size="9.375" font-style="italic" lengthAdjust="spacing" textLength="19.7845" x="102.0833" y="136.8271">Map</text><rect fill="url(#g1kld7l2n54d0q0)" height="33.3008" style="stroke:#F1F1F1;stroke-width:1.0416666666666667;stroke-dasharray:2.0,2.0;" width="39.4714" x="138.5345" y="111.4583"/><text fill="#303030" font-family="Verdana" font-size="12.5" font-style="italic" lengthAdjust="spacing" textLength="20.7214" x="147.9095" y="132.4361">K,V</text><line style="stroke:#F1F1F1;stroke-width:1.0416666666666667;" x1="66.6667" x2="173.8393" y1="152.5798" y2="152.5798"/><line style="stroke:#F1F1F1;stroke-width:1.0416666666666667;" x1="66.6667" x2="173.8393" y1="160.9131" y2="160.9131"/></g><!--class HashMap--><g id="elem_HashMap"><rect codeLine="9" fill="url(#g1kld7l2n54d0q0)" height="54.6631" id="HashMap" rx="7.8125" ry="7.8125" style="stroke:#F1F1F1;stroke-width:1.0416666666666667;" width="207.3151" x="16.6667" y="206.25"/><rect fill="url(#g1kld7l2n54d0q1)" height="37.9964" rx="7.8125" ry="7.8125" style="stroke:url(#g1kld7l2n54d0q1);stroke-width:1.0416666666666667;" width="207.3151" x="16.6667" y="206.25"/><rect fill="url(#g1kld7l2n54d0q1)" height="7.8125" style="stroke:url(#g1kld7l2n54d0q1);stroke-width:1.0416666666666667;" width="207.3151" x="16.6667" y="236.4339"/><rect codeLine="9" fill="none" height="54.6631" id="HashMap" rx="7.8125" ry="7.8125" style="stroke:#F1F1F1;stroke-width:1.0416666666666667;" width="207.3151" x="16.6667" y="206.25"/><ellipse cx="31.25" cy="225.2482" fill="none" rx="10.4167" ry="10.4167" style="stroke:#BEBEBE;stroke-width:1.0416666666666667;"/><path d="M33.1543,229.6753 Q32.7311,229.8869 32.2591,230.0008 Q31.7871,230.1147 31.2826,230.1147 Q29.4271,230.1147 28.4505,228.9103 Q27.4902,227.6896 27.4902,225.3947 Q27.4902,223.0835 28.4505,221.8791 Q29.4271,220.6584 31.2826,220.6584 Q31.7871,220.6584 32.2591,220.7723 Q32.7474,220.87 33.1543,221.0978 L33.1543,223.0998 Q32.6986,222.6766 32.2591,222.4813 Q31.8197,222.2697 31.3639,222.2697 Q30.3711,222.2697 29.8665,223.0672 Q29.362,223.8485 29.362,225.3947 Q29.362,226.9246 29.8665,227.7059 Q30.3711,228.4871 31.3639,228.4871 Q31.8197,228.4871 32.2591,228.2918 Q32.6986,228.0965 33.1543,227.6733 L33.1543,229.6753 Z " fill="#336699"/><text fill="#303030" font-family="Verdana" font-size="9.375" lengthAdjust="spacing" textLength="43.4052" x="53.125" y="228.4938">HashMap</text><rect fill="url(#g1kld7l2n54d0q0)" height="33.3008" style="stroke:#F1F1F1;stroke-width:1.0416666666666667;stroke-dasharray:2.0,2.0;" width="113.9099" x="113.1968" y="203.125"/><text fill="#303030" font-family="Verdana" font-size="12.5" font-style="italic" lengthAdjust="spacing" textLength="95.1599" x="122.5718" y="224.1028">Long,Customer</text><line style="stroke:#F1F1F1;stroke-width:1.0416666666666667;" x1="17.7083" x2="222.9401" y1="244.2464" y2="244.2464"/><line style="stroke:#F1F1F1;stroke-width:1.0416666666666667;" x1="17.7083" x2="222.9401" y1="252.5798" y2="252.5798"/></g><!--class Shop--><g id="elem_Shop"><rect fill="url(#g1kld7l2n54d0q0)" height="54.6631" id="Shop" rx="7.8125" ry="7.8125" style="stroke:#F1F1F1;stroke-width:1.0416666666666667;" width="71.4961" x="254.1667" y="22.9167"/><rect fill="url(#g1kld7l2n54d0q1)" height="37.9964" rx="7.8125" ry="7.8125" style="stroke:url(#g1kld7l2n54d0q1);stroke-width:1.0416666666666667;" width="71.4961" x="254.1667" y="22.9167"/><rect fill="url(#g1kld7l2n54d0q1)" height="7.8125" style="stroke:url(#g1kld7l2n54d0q1);stroke-width:1.0416666666666667;" width="71.4961" x="254.1667" y="53.1006"/><rect fill="none" height="54.6631" id="Shop" rx="7.8125" ry="7.8125" style="stroke:#F1F1F1;stroke-width:1.0416666666666667;" width="71.4961" x="254.1667" y="22.9167"/><ellipse cx="268.75" cy="41.9149" fill="none" rx="10.4167" ry="10.4167" style="stroke:#BEBEBE;stroke-width:1.0416666666666667;"/><path d="M270.6543,46.342 Q270.2311,46.5535 269.7591,46.6675 Q269.2871,46.7814 268.7826,46.7814 Q266.9271,46.7814 265.9505,45.577 Q264.9902,44.3563 264.9902,42.0614 Q264.9902,39.7502 265.9505,38.5457 Q266.9271,37.325 268.7826,37.325 Q269.2871,37.325 269.7591,37.439 Q270.2474,37.5366 270.6543,37.7645 L270.6543,39.7664 Q270.1986,39.3433 269.7591,39.1479 Q269.3197,38.9364 268.8639,38.9364 Q267.8711,38.9364 267.3665,39.7339 Q266.862,40.5151 266.862,42.0614 Q266.862,43.5913 267.3665,44.3726 Q267.8711,45.1538 268.8639,45.1538 Q269.3197,45.1538 269.7591,44.9585 Q270.1986,44.7632 270.6543,44.34 L270.6543,46.342 Z " fill="#336699"/><text fill="#303030" font-family="Verdana" font-size="9.375" lengthAdjust="spacing" textLength="23.5794" x="290.625" y="45.1604">Shop</text><line style="stroke:#F1F1F1;stroke-width:1.0416666666666667;" x1="255.2083" x2="324.6211" y1="60.9131" y2="60.9131"/><line style="stroke:#F1F1F1;stroke-width:1.0416666666666667;" x1="255.2083" x2="324.6211" y1="69.2464" y2="69.2464"/></g><!--class Customer--><g id="elem_Customer"><rect fill="url(#g1kld7l2n54d0q0)" height="54.6631" id="Customer" rx="7.8125" ry="7.8125" style="stroke:#F1F1F1;stroke-width:1.0416666666666667;" width="93.455" x="243.2292" y="206.25"/><rect fill="url(#g1kld7l2n54d0q1)" height="37.9964" rx="7.8125" ry="7.8125" style="stroke:url(#g1kld7l2n54d0q1);stroke-width:1.0416666666666667;" width="93.455" x="243.2292" y="206.25"/><rect fill="url(#g1kld7l2n54d0q1)" height="7.8125" style="stroke:url(#g1kld7l2n54d0q1);stroke-width:1.0416666666666667;" width="93.455" x="243.2292" y="236.4339"/><rect fill="none" height="54.6631" id="Customer" rx="7.8125" ry="7.8125" style="stroke:#F1F1F1;stroke-width:1.0416666666666667;" width="93.455" x="243.2292" y="206.25"/><ellipse cx="257.8125" cy="225.2482" fill="none" rx="10.4167" ry="10.4167" style="stroke:#BEBEBE;stroke-width:1.0416666666666667;"/><path d="M259.7168,229.6753 Q259.2936,229.8869 258.8216,230.0008 Q258.3496,230.1147 257.8451,230.1147 Q255.9896,230.1147 255.013,228.9103 Q254.0527,227.6896 254.0527,225.3947 Q254.0527,223.0835 255.013,221.8791 Q255.9896,220.6584 257.8451,220.6584 Q258.3496,220.6584 258.8216,220.7723 Q259.3099,220.87 259.7168,221.0978 L259.7168,223.0998 Q259.2611,222.6766 258.8216,222.4813 Q258.3822,222.2697 257.9264,222.2697 Q256.9336,222.2697 256.429,223.0672 Q255.9245,223.8485 255.9245,225.3947 Q255.9245,226.9246 256.429,227.7059 Q256.9336,228.4871 257.9264,228.4871 Q258.3822,228.4871 258.8216,228.2918 Q259.2611,228.0965 259.7168,227.6733 L259.7168,229.6753 Z " fill="#336699"/><text fill="#303030" font-family="Verdana" font-size="9.375" lengthAdjust="spacing" textLength="45.5383" x="279.6875" y="228.4938">Customer</text><line style="stroke:#F1F1F1;stroke-width:1.0416666666666667;" x1="244.2708" x2="335.6425" y1="244.2464" y2="244.2464"/><line style="stroke:#F1F1F1;stroke-width:1.0416666666666667;" x1="244.2708" x2="335.6425" y1="252.5798" y2="252.5798"/></g><polygon fill="none" points="120.3125,169.1018,114.0625,187.8518,126.5625,187.8518,120.3125,169.1018" style="stroke:#EEEEEE;stroke-width:1.0416666666666667;"/><path d="M120.3125,187.8518 C120.3125,199.5159 120.3125,194.4446 120.3125,206.0869 " fill="none" style="stroke:#EEEEEE;stroke-width:3.125;stroke-dasharray:7.0,7.0;"/><polygon fill="#EEEEEE" points="290.1042,206.1986,294.2708,196.8236,290.1042,200.9903,285.9375,196.8236,290.1042,206.1986" style="stroke:#EEEEEE;stroke-width:1.0416666666666667;"/><path d="M290.1042,77.397 C290.1042,111.8589 290.1042,165.6169 290.1042,199.9486 " fill="none" style="stroke:#EEEEEE;stroke-width:3.125;"/><text fill="#303030" font-family="Verdana" font-size="12.5" lengthAdjust="spacing" textLength="58.8623" x="299.4792" y="180.3014">customer</text><text fill="#303030" font-family="Verdana" font-size="12.5" lengthAdjust="spacing" textLength="7.9529" x="324.9339" y="194.8522">1</text><polygon fill="#EEEEEE" points="243.1871,233.3333,233.8121,229.1667,237.9788,233.3333,233.8121,237.5,243.1871,233.3333" style="stroke:#EEEEEE;stroke-width:1.0416666666666667;"/><path d="M224.1109,233.3333 C230.4696,233.3333 230.5784,233.3333 236.9371,233.3333 " fill="none" style="stroke:#EEEEEE;stroke-width:3.125;"/><text fill="#303030" font-family="Verdana" font-size="12.5" lengthAdjust="spacing" textLength="34.1431" x="200.4788" y="222.0194">value</text></g></svg>