<svg xmlns="http://www.w3.org/2000/svg" xmlns:xlink="http://www.w3.org/1999/xlink" contentStyleType="text/css" data-diagram-type="CLASS" height="414.5833px" preserveAspectRatio="none" style="width:589px;height:414px;" version="1.1" viewBox="0 0 589 414" width="589.5833px" zoomAndPan="magnify"><defs/><g><rect fill="#FFFFCC" height="27.7507" rx="2.6042" ry="2.6042" style="stroke:#FFDD88;stroke-width:3.125;" width="578.2415" x="5.2083" y="5.2083"/><text fill="#000000" font-family="monospace" font-size="10.4167" lengthAdjust="spacing" textLength="370.0104" x="10.4167" y="20.8333">Please&#160;use&#160;'!option&#160;handwritten&#160;true'&#160;to&#160;enable&#160;handwritten</text><!--class abstract--><g id="elem_abstract"><polygon fill="#474747" points="28.125,61.084,28.125,61.3029,38.202,60.6524,48.2789,61.2853,58.3559,61.5003,68.4329,60.3409,78.5098,61.003,88.5868,60.6397,98.6638,60.6845,108.7407,61.084,108.7317,61.0621,109.2381,61.1063,109.9928,61.7497,110.4248,61.614,111.0715,61.9969,111.687,62.3044,111.8256,62.3618,111.9036,62.8822,112.1971,63.492,112.409,64.0679,112.7206,64.6851,112.9074,65.2507,112.9904,65.2507,113.1108,73.7516,113.1404,82.2526,113.1433,90.7536,112.9958,99.2546,112.9074,107.7555,113.0561,107.8171,112.8886,108.4381,112.1879,108.8382,112.3928,109.6135,111.836,110.0732,111.687,110.7018,111.758,110.8731,111.032,110.7871,110.4994,111.168,110.0178,111.6719,109.3235,111.6625,108.7407,111.9222,108.7407,112.0319,98.6638,112.2749,88.5868,112.3558,78.5098,111.9181,68.4329,112.2214,58.3559,111.3259,48.2789,112.2184,38.202,112.4932,28.125,111.9222,28.1841,112.0648,27.6172,111.8748,26.8823,111.2791,26.2706,110.9808,25.6854,110.7465,25.1787,110.7018,25.1598,110.694,24.8716,110.0864,24.9092,109.6138,24.3905,108.9108,24.0924,108.2992,23.9583,107.7555,24.0376,107.7555,23.7268,99.2546,23.7781,90.7536,24.1837,82.2526,24.1096,73.7516,23.9583,65.2507,24.194,65.3482,24.0992,64.6186,24.5489,64.1146,24.88,63.5613,24.7831,62.8309,25.1787,62.3044,25.166,62.2736,25.7847,62.1007,26.4438,62.0253,26.9459,61.5708,27.5972,61.4765,28.125,61.084" style="stroke:#333333;stroke-width:1.0417;"/><polygon fill="#FFFFFF" fill-opacity="0.00000" points="49.0159,80.7035,47.489,82.7898,45.683,85.8456,43.1,87.905,40.3858,89.0311,38.2216,89.1289,35.44,87.7205,32.8155,86.8004,30.8234,84.9322,29.7785,82.7936,29.1588,81.0907,28.5517,78.8664,27.5663,76.9524,28.3235,75.0836,28.9869,73.0364,31.4766,71.4174,33.2282,69.3166,35.3962,68.619,37.9736,68.0183,41.2788,68.3752,43.0891,69.229,45.1939,69.616,47.753,72.2379,48.6451,75.0059,49.0327,76.8945,48.5937,80.0068" style="stroke:#2E2E2E;stroke-width:1.0417;"/><path d="M38.1348,75.1261 L37.2884,78.8534 L38.9974,78.8534 L38.1348,75.1261 Z M37.0443,73.4823 L39.2415,73.4823 L41.6992,82.5968 L39.8926,82.5968 L39.3392,80.3507 L36.9303,80.3507 L36.377,82.5968 L34.5703,82.5968 L37.0443,73.4823 Z " fill="#FFFFFF"/><text fill="#FFFFFF" font-family="Segoe Print" font-size="11.4583" font-style="italic" lengthAdjust="spacing" textLength="47.2824" x="57.2917" y="82.1365">abstract</text><path d="M25,95.2555 L25,95.5475 L35.8582,94.6801 L46.7164,95.524 L57.5747,95.8106 L68.4329,94.2647 L79.2911,95.1476 L90.1493,94.6632 L101.0075,94.7229 L111.8657,95.2555 " fill="#474747" style="stroke:#333333;stroke-width:1.0417;"/><path d="M25,103.5889 L25,103.8808 L35.8582,103.0134 L46.7164,103.8573 L57.5747,104.144 L68.4329,102.598 L79.2911,103.4809 L90.1493,102.9965 L101.0075,103.0562 L111.8657,103.5889 " fill="#474747" style="stroke:#333333;stroke-width:1.0417;"/></g><!--class abstract class--><g id="elem_abstract class"><polygon fill="#474747" points="135.9375,61.084,135.9375,61.3029,146.1832,60.6524,156.4289,61.2853,166.6745,61.5003,176.9202,60.3409,187.1659,61.003,197.4116,60.6397,207.6572,60.6845,217.9029,61.013,228.1486,60.3638,238.3943,61.6607,248.6399,61.084,248.5562,60.8818,249.2029,61.2646,249.8758,61.7107,250.3963,61.7887,251.006,62.0822,251.5862,62.3044,251.576,62.3001,251.8876,62.9174,252.1511,63.5147,252.5063,64.15,252.7778,64.7506,252.8066,65.2507,253.0425,65.2507,252.895,73.7516,252.9676,82.2526,253.0504,90.7536,252.5562,99.2546,252.8066,107.7555,253.0243,107.8457,252.4674,108.3054,252.4897,109.005,251.9156,109.4575,251.8083,110.1035,251.5862,110.7018,251.6848,110.9397,250.9905,110.9303,250.4217,111.2237,249.8634,111.5427,249.2845,111.8116,248.6399,111.9222,248.6399,111.9181,238.3943,112.2214,228.1486,111.3259,217.9029,112.2184,207.6572,112.4932,197.4116,112.3853,187.1659,112.5608,176.9202,111.419,166.6745,111.2428,156.4289,111.2749,146.1832,111.8609,135.9375,111.9222,135.9114,111.8592,135.4388,111.8967,134.7358,111.378,134.1241,111.0799,133.6108,111.0191,132.9912,110.7018,132.7773,110.6132,132.5806,110.0436,132.7112,109.6095,132.3987,108.9919,132.2505,108.4424,131.7708,107.7555,131.6591,107.7555,131.8817,99.2546,131.9758,90.7536,131.6068,82.2526,131.7375,73.7516,131.7708,65.2507,131.8112,65.2674,132.224,64.748,132.2576,64.0716,132.6515,63.5443,132.5695,62.82,132.9912,62.3044,132.9012,62.0871,133.6474,62.2218,134.0745,61.5862,134.8266,61.7354,135.3757,61.3943,135.9375,61.084" style="stroke:#333333;stroke-width:1.0417;"/><polygon fill="#FFFFFF" fill-opacity="0.00000" points="156.8284,80.7035,155.3015,82.7898,153.4955,85.8456,150.9125,87.905,148.1983,89.0311,146.0341,89.1289,143.2525,87.7205,140.628,86.8004,138.6359,84.9322,137.591,82.7936,136.9713,81.0907,136.3642,78.8664,135.3788,76.9524,136.136,75.0836,136.7994,73.0364,139.2891,71.4174,141.0407,69.3166,143.2087,68.619,145.7861,68.0183,149.0913,68.3752,150.9016,69.229,153.0064,69.616,155.5655,72.2379,156.4576,75.0059,156.8452,76.8945,156.4062,80.0068" style="stroke:#2E2E2E;stroke-width:1.0417;"/><path d="M145.9473,75.1261 L145.1009,78.8534 L146.8099,78.8534 L145.9473,75.1261 Z M144.8568,73.4823 L147.054,73.4823 L149.5117,82.5968 L147.7051,82.5968 L147.1517,80.3507 L144.7428,80.3507 L144.1895,82.5968 L142.3828,82.5968 L144.8568,73.4823 Z " fill="#FFFFFF"/><text fill="#FFFFFF" font-family="Segoe Print" font-size="11.4583" font-style="italic" lengthAdjust="spacing" textLength="79.3691" x="165.1042" y="82.1365">abstract class</text><path d="M132.8125,95.2555 L132.8125,95.5475 L143.6264,94.6801 L154.4402,95.524 L165.2541,95.8106 L176.0679,94.2647 L186.8818,95.1476 L197.6956,94.6632 L208.5095,94.7229 L219.3234,95.1609 L230.1372,94.2953 L240.9511,96.0245 L251.7649,95.2555 " fill="#474747" style="stroke:#333333;stroke-width:1.0417;"/><path d="M132.8125,103.5889 L132.8125,103.8808 L143.6264,103.0134 L154.4402,103.8573 L165.2541,104.144 L176.0679,102.598 L186.8818,103.4809 L197.6956,102.9965 L208.5095,103.0562 L219.3234,103.4942 L230.1372,102.6286 L240.9511,104.3578 L251.7649,103.5889 " fill="#474747" style="stroke:#333333;stroke-width:1.0417;"/></g><!--class annotation--><g id="elem_annotation"><polygon fill="#474747" points="275.5208,61.084,275.5208,61.3029,286.1156,60.6524,296.7103,61.2853,307.3051,61.5003,317.8998,60.3409,328.4945,61.003,339.0893,60.6397,349.684,60.6845,360.2788,61.013,370.8735,61.084,370.7816,60.8622,371.5363,61.5057,371.9683,61.37,372.615,61.7528,373.2879,62.1989,373.8198,62.3044,373.7923,62.293,374.0858,62.9027,374.2977,63.4786,374.6093,64.0959,374.8728,64.6932,375.0402,65.2507,375.2435,65.2507,375.2732,73.7516,375.276,82.2526,375.1286,90.7536,375.2011,99.2546,375.0402,107.7555,375.2655,107.8488,374.5648,108.249,374.7697,109.0242,374.2128,109.4839,374.2351,110.1835,373.8198,110.7018,373.754,110.543,373.2214,110.9239,372.7398,111.4279,372.0456,111.4184,371.4768,111.7119,370.8735,111.9222,370.8735,112.2749,360.2788,112.3558,349.684,111.9181,339.0893,112.2214,328.4945,111.3259,317.8998,112.2184,307.3051,112.4932,296.7103,112.3853,286.1156,112.5608,275.5208,111.9222,275.4566,111.7672,274.8449,111.4689,274.2598,111.2347,273.7452,111.1711,273.1377,110.8828,272.5746,110.7018,272.7931,110.7924,272.2744,110.0893,271.9764,109.4777,271.9155,108.9644,271.3843,108.2562,271.3542,107.7555,271.1739,107.7555,271.5795,99.2546,271.5054,90.7536,271.6092,82.2526,271.2424,73.7516,271.3542,65.2507,271.4566,65.2931,271.7876,64.7398,271.6908,64.0094,272.0556,63.4701,272.3709,62.9104,272.5746,62.3044,272.6612,62.5135,273.1633,62.059,273.8145,61.9646,274.2687,61.3945,274.8416,61.1108,275.5208,61.084" style="stroke:#333333;stroke-width:1.0417;"/><polygon fill="#FFFFFF" fill-opacity="0.00000" points="296.4117,80.7035,294.8848,82.7898,293.0788,85.8456,290.4959,87.905,287.7816,89.0311,285.6174,89.1289,282.8359,87.7205,280.2113,86.8004,278.2193,84.9322,277.1743,82.7936,276.5546,81.0907,275.9475,78.8664,274.9621,76.9524,275.7193,75.0836,276.3828,73.0364,278.8724,71.4174,280.624,69.3166,282.792,68.619,285.3694,68.0183,288.6746,68.3752,290.4849,69.229,292.5897,69.616,295.1488,72.2379,296.041,75.0059,296.4286,76.8945,295.9895,80.0068" style="stroke:#2E2E2E;stroke-width:1.0417;"/><path d="M287.1908,77.9744 Q287.1908,77.2746 286.8815,76.884 Q286.5723,76.4933 286.0189,76.4933 Q285.4818,76.4933 285.1725,76.884 Q284.8633,77.2746 284.8633,77.9744 Q284.8633,78.658 285.1725,79.0487 Q285.4818,79.4393 286.0189,79.4393 Q286.5723,79.4393 286.8815,79.0487 Q287.1908,78.658 287.1908,77.9744 Z M288.3301,80.4647 L287.1257,80.4647 L287.1257,79.9764 Q286.8978,80.2856 286.5723,80.4484 Q286.263,80.5949 285.8236,80.5949 Q284.8307,80.5949 284.2122,79.8787 Q283.5938,79.1463 283.5938,77.9744 Q283.5938,76.7863 284.196,76.0701 Q284.8145,75.354 285.8236,75.354 Q286.263,75.354 286.5885,75.5005 Q286.9141,75.647 287.1257,75.9399 L287.1257,75.6958 Q287.1257,74.8657 286.6699,74.41 Q286.2142,73.9543 285.3841,73.9543 Q284.1146,73.9543 283.3008,75.0773 Q282.5033,76.1841 282.5033,77.9744 Q282.5033,79.8462 283.431,80.9692 Q284.3587,82.076 285.9049,82.076 Q286.3932,82.076 286.849,81.9295 Q287.3047,81.783 287.7279,81.4901 L288.2813,82.5643 Q287.793,82.9061 287.207,83.0688 Q286.6211,83.2479 285.9701,83.2479 Q283.8216,83.2479 282.5521,81.8156 Q281.2826,80.3996 281.2826,77.9744 Q281.2826,75.6144 282.4219,74.1984 Q283.5775,72.7824 285.4492,72.7824 Q286.7839,72.7824 287.5488,73.5799 Q288.3301,74.3774 288.3301,75.7772 L288.3301,80.4647 Z " fill="#FFFFFF"/><text fill="#FFFFFF" font-family="Segoe Print" font-size="11.4583" lengthAdjust="spacing" textLength="62.0193" x="304.6875" y="82.1365">annotation</text><path d="M272.3958,95.2555 L272.3958,95.5475 L282.5561,94.6801 L292.7164,95.524 L302.8766,95.8106 L313.0369,94.2647 L323.1972,95.1476 L333.3574,94.6632 L343.5177,94.7229 L353.678,95.1609 L363.8382,94.2953 L373.9985,95.2555 " fill="#474747" style="stroke:#333333;stroke-width:1.0417;"/><path d="M272.3958,103.5889 L272.3958,103.8808 L282.5561,103.0134 L292.7164,103.8573 L302.8766,104.144 L313.0369,102.598 L323.1972,103.4809 L333.3574,102.9965 L343.5177,103.0562 L353.678,103.4942 L363.8382,102.6286 L373.9985,103.5889 " fill="#474747" style="stroke:#333333;stroke-width:1.0417;"/></g><!--entity circle--><g id="elem_circle"><polygon fill="#C6303E" points="412.0252,85.5068,410.8037,87.1759,409.3589,89.6205,407.2925,91.268,405.1211,92.1689,403.3898,92.2471,401.1645,91.1204,399.0649,90.3843,397.4712,88.8898,396.6353,87.1789,396.1395,85.8166,395.6538,84.0372,394.8655,82.5059,395.4713,81.0109,396.002,79.3732,397.9938,78.0779,399.395,76.3973,401.1295,75.8392,403.1914,75.3586,405.8355,75.6442,407.2838,76.3272,408.9676,76.6368,411.0149,78.7343,411.7286,80.9487,412.0387,82.4596,411.6875,84.9494" style="stroke:#DC3545;stroke-width:1.0417;"/><text fill="#555555" font-family="Segoe Print" font-size="12.5" lengthAdjust="spacing" textLength="33.5205" x="386.8856" y="117.9993">circle</text></g><!--entity circle_short_form--><g id="elem_circle_short_form"><polygon fill="#C6303E" points="449.5252,85.5068,448.3037,87.1759,446.8589,89.6205,444.7925,91.268,442.6211,92.1689,440.8898,92.2471,438.6645,91.1204,436.5649,90.3843,434.9712,88.8898,434.1353,87.1789,433.6395,85.8166,433.1538,84.0372,432.3655,82.5059,432.9713,81.0109,433.502,79.3732,435.4938,78.0779,436.895,76.3973,438.6295,75.8392,440.6914,75.3586,443.3355,75.6442,444.7838,76.3272,446.4676,76.6368,448.5149,78.7343,449.2286,80.9487,449.5387,82.4596,449.1875,84.9494" style="stroke:#DC3545;stroke-width:1.0417;"/><text fill="#555555" font-family="Segoe Print" font-size="12.5" lengthAdjust="spacing" textLength="107.5073" x="387.3922" y="117.9993">circle_short_form</text></g><!--class class--><g id="elem_class"><polygon fill="#474747" points="37.5,162.1257,37.5,162.3446,47.7963,161.6941,58.0926,162.327,68.3889,162.542,78.6852,161.3825,88.9815,162.0447,99.2778,162.1257,99.2211,161.9888,99.816,162.2467,100.4472,162.5919,100.9537,162.6361,101.7083,163.2796,102.224,163.346,102.0218,163.2623,102.4047,163.909,102.8507,164.5819,102.9287,165.1024,103.2222,165.7121,103.4444,166.2923,103.4333,166.2923,103.5064,174.7933,103.5274,183.2943,103.6478,191.7952,103.6774,200.2962,103.4444,208.7972,103.6623,208.8875,103.282,209.4203,103.105,210.0373,102.9375,210.6583,102.2368,211.0584,102.224,211.7435,102.3142,211.9611,101.5954,211.8924,101.1164,212.4029,100.3905,212.3169,99.8579,212.6978,99.2778,212.9639,99.2778,213.7364,88.9815,212.9131,78.6852,213.0736,68.3889,213.3166,58.0926,213.3974,47.7963,212.9598,37.5,212.9639,37.5382,213.056,36.8347,212.5362,36.3593,212.5669,35.8051,212.4075,35.202,212.1302,34.5537,211.7435,34.7504,211.8249,34.1547,211.09,33.8564,210.4783,33.6221,209.8931,33.5585,209.3786,33.3333,208.7972,33.2651,208.7972,33.5699,200.2962,33.2727,191.7952,33.2142,183.2943,33.4126,174.7933,33.3333,166.2923,33.1194,166.2037,33.4109,165.6341,34.0297,165.2,34.2053,164.5824,34.5453,164.0329,34.5537,163.346,34.511,163.2428,35.1854,163.2044,35.8107,163.0473,36.2587,162.4623,36.898,162.339,37.5,162.1257" style="stroke:#333333;stroke-width:1.0417;"/><polygon fill="#FFFFFF" fill-opacity="0.00000" points="58.3909,181.7452,56.864,183.8315,55.058,186.8873,52.475,188.9466,49.7608,190.0728,47.5966,190.1705,44.815,188.7621,42.1905,187.842,40.1984,185.9739,39.1535,183.8353,38.5338,182.1324,37.9267,179.9081,36.9413,177.9941,37.6985,176.1253,38.3619,174.0781,40.8516,172.459,42.6032,170.3583,44.7712,169.6607,47.3486,169.06,50.6538,169.4169,52.4641,170.2706,54.5689,170.6576,57.128,173.2796,58.0201,176.0476,58.4077,177.9362,57.9687,181.0484" style="stroke:#2E2E2E;stroke-width:1.0417;"/><path d="M49.821,183.6385 Q49.3978,183.8501 48.9258,183.964 Q48.4538,184.078 47.9492,184.078 Q46.0938,184.078 45.1172,182.8735 Q44.1569,181.6528 44.1569,179.3579 Q44.1569,177.0467 45.1172,175.8423 Q46.0938,174.6216 47.9492,174.6216 Q48.4538,174.6216 48.9258,174.7355 Q49.4141,174.8332 49.821,175.061 L49.821,177.063 Q49.3652,176.6398 48.9258,176.4445 Q48.4863,176.2329 48.0306,176.2329 Q47.0378,176.2329 46.5332,177.0304 Q46.0286,177.8117 46.0286,179.3579 Q46.0286,180.8879 46.5332,181.6691 Q47.0378,182.4504 48.0306,182.4504 Q48.4863,182.4504 48.9258,182.255 Q49.3652,182.0597 49.821,181.6366 L49.821,183.6385 Z " fill="#FFFFFF"/><text fill="#FFFFFF" font-family="Segoe Print" font-size="11.4583" lengthAdjust="spacing" textLength="28.4444" x="66.6667" y="183.1782">class</text><path d="M34.375,196.2972 L34.375,196.5891 L44.0933,195.7218 L53.8115,196.5657 L63.5298,196.8523 L73.248,195.3064 L82.9663,196.1893 L92.6845,195.7048 L102.4028,196.2972 " fill="#474747" style="stroke:#333333;stroke-width:1.0417;"/><path d="M34.375,204.6305 L34.375,204.9225 L44.0933,204.0551 L53.8115,204.899 L63.5298,205.1856 L73.248,203.6397 L82.9663,204.5226 L92.6845,204.0382 L102.4028,204.6305 " fill="#474747" style="stroke:#333333;stroke-width:1.0417;"/></g><!--class class_stereo--><g id="elem_class_stereo"><polygon fill="#474747" points="126.5625,149.6257,126.5625,149.8446,136.7535,149.1941,146.9445,149.827,157.1356,150.042,167.3266,148.8825,177.5176,149.5447,187.7086,149.1814,197.8997,149.2262,208.0907,149.5547,218.2817,148.9055,228.4727,150.2024,238.6637,149.6257,238.58,149.4235,239.2267,149.8063,239.8996,150.2524,240.4201,150.3304,241.0298,150.6239,241.61,150.846,241.5998,150.8418,241.9114,151.459,242.1749,152.0563,242.5301,152.6916,242.8016,153.2922,242.8304,153.7923,243.538,153.7923,243.0956,165.0377,243.3133,176.2831,243.5619,187.5285,242.0792,198.7739,243.5372,210.0193,242.8304,221.2646,242.7353,221.2253,242.7576,221.9248,242.1834,222.3774,242.0762,223.0233,242.092,223.7202,241.61,224.2109,241.6035,224.1953,241.0348,224.4888,240.4765,224.8077,239.8976,225.0767,239.2525,225.186,238.6637,225.4313,238.6637,225.7305,228.4727,224.835,218.2817,225.7276,208.0907,226.0024,197.8997,225.8944,187.7086,226.0699,177.5176,224.9281,167.3266,224.752,157.1356,224.784,146.9445,225.37,136.7535,225.2266,126.5625,225.4313,126.653,225.6499,125.95,225.1312,125.3384,224.8331,124.8251,224.7723,124.1169,224.2411,123.6162,224.2109,123.4497,224.1419,123.5803,223.7079,123.2678,223.0903,123.1196,222.5408,122.5367,221.8111,122.3958,221.2646,122.7283,221.2646,123.0109,210.0193,121.9037,198.7739,122.296,187.5285,122.5271,176.2831,123.0747,165.0377,122.3958,153.7923,122.3945,153.7918,122.7883,153.2645,122.7063,152.5402,122.9108,151.9346,123.5337,151.5022,123.6162,150.846,123.521,150.6161,124.2731,150.7652,124.8222,150.4242,125.3484,150.0279,125.9262,149.7562,126.5625,149.6257" style="stroke:#333333;stroke-width:1.0417;"/><polygon fill="#FFFFFF" fill-opacity="0.00000" points="147.4534,181.7289,145.9265,183.8152,144.1205,186.871,141.5375,188.9304,138.8233,190.0565,136.6591,190.1543,133.8775,188.7459,131.253,187.8258,129.2609,185.9576,128.216,183.819,127.5963,182.1161,126.9892,179.8918,126.0038,177.9778,126.761,176.109,127.4244,174.0618,129.9141,172.4428,131.6657,170.342,133.8337,169.6444,136.4111,169.0437,139.7163,169.4006,141.5266,170.2544,143.6314,170.6414,146.1905,173.2633,147.0826,176.0313,147.4702,177.9199,147.0312,181.0322" style="stroke:#2E2E2E;stroke-width:1.0417;"/><path d="M138.8835,183.6222 Q138.4603,183.8338 137.9883,183.9478 Q137.5163,184.0617 137.0117,184.0617 Q135.1563,184.0617 134.1797,182.8573 Q133.2194,181.6366 133.2194,179.3416 Q133.2194,177.0304 134.1797,175.826 Q135.1563,174.6053 137.0117,174.6053 Q137.5163,174.6053 137.9883,174.7192 Q138.4766,174.8169 138.8835,175.0448 L138.8835,177.0467 Q138.4277,176.6235 137.9883,176.4282 Q137.5488,176.2166 137.0931,176.2166 Q136.1003,176.2166 135.5957,177.0142 Q135.0911,177.7954 135.0911,179.3416 Q135.0911,180.8716 135.5957,181.6528 Q136.1003,182.4341 137.0931,182.4341 Q137.5488,182.4341 137.9883,182.2388 Q138.4277,182.0435 138.8835,181.6203 L138.8835,183.6222 Z " fill="#FFFFFF"/><text fill="#555555" font-family="Segoe Print" font-size="12.5" font-style="italic" lengthAdjust="spacing" textLength="82.9346" x="153.6458" y="171.6451">&#171;stereotype&#187;</text><text fill="#FFFFFF" font-family="Segoe Print" font-size="11.4583" lengthAdjust="spacing" textLength="70.4564" x="159.8849" y="195.6457">class_stereo</text><path d="M123.4375,208.7646 L123.4375,209.0566 L134.1967,208.1892 L144.9559,209.0331 L155.7151,209.3198 L166.4743,207.7738 L177.2335,208.6567 L187.9927,208.1723 L198.7519,208.232 L209.5111,208.67 L220.2703,207.8044 L231.0295,209.5336 L241.7887,208.7646 " fill="#474747" style="stroke:#333333;stroke-width:1.0417;"/><path d="M123.4375,217.098 L123.4375,217.3899 L134.1967,216.5225 L144.9559,217.3664 L155.7151,217.6531 L166.4743,216.1072 L177.2335,216.99 L187.9927,216.5056 L198.7519,216.5653 L209.5111,217.0033 L220.2703,216.1377 L231.0295,217.8669 L241.7887,217.098 " fill="#474747" style="stroke:#333333;stroke-width:1.0417;"/></g><g id="elem_diamond"><polygon fill="#666666" points="274.4792,175.1465,274.5308,175.1981,276.8774,177.5448,279.5266,180.1939,282.0773,182.7446,284.304,184.9713,286.9792,187.6465,286.9601,187.6274,284.3745,190.0418,281.885,192.5523,279.4624,195.1298,276.8094,197.4767,274.4792,200.1465,274.6151,200.2824,271.8244,197.4917,269.4306,195.0979,267.0852,192.7525,264.4581,190.1254,261.9792,187.6465,261.9959,187.6632,264.4713,185.1386,267.023,182.6903,269.5379,180.2052,272.123,177.7903,274.4792,175.1465" style="stroke:#4D4D4D;stroke-width:1.0417;"/></g><polygon fill="#666666" points="318.2292,175.1465,318.2808,175.1981,320.6274,177.5448,323.2766,180.1939,325.8273,182.7446,328.054,184.9713,330.7292,187.6465,330.7101,187.6274,328.1245,190.0418,325.635,192.5523,323.2124,195.1298,320.5594,197.4767,318.2292,200.1465,318.3651,200.2824,315.5744,197.4917,313.1806,195.0979,310.8352,192.7525,308.2081,190.1254,305.7292,187.6465,305.7459,187.6632,308.2213,185.1386,310.773,182.6903,313.2879,180.2052,315.873,177.7903,318.2292,175.1465" style="stroke:#4D4D4D;stroke-width:1.0417;"/><!--class entity--><g id="elem_entity"><polygon fill="#474747" points="353.6458,162.1257,353.6458,162.3446,364.745,161.6941,375.8442,162.327,386.9433,162.542,398.0425,161.3825,409.1416,162.0447,420.2408,162.1257,420.1841,161.9888,420.7791,162.2467,421.4102,162.5919,421.9167,162.6361,422.6714,163.2796,423.1871,163.346,422.9849,163.2623,423.3677,163.909,423.8138,164.5819,423.8918,165.1024,424.1853,165.7121,424.4075,166.2923,424.3964,166.2923,424.4694,174.7933,424.4905,183.2943,424.6108,191.7952,424.6405,200.2962,424.4075,208.7972,424.6254,208.8875,424.2451,209.4203,424.068,210.0373,423.9005,210.6583,423.1998,211.0584,423.1871,211.7435,423.2772,211.9611,422.5584,211.8924,422.0795,212.4029,421.3535,212.3169,420.8209,212.6978,420.2408,212.9639,420.2408,213.7364,409.1416,212.9131,398.0425,213.0736,386.9433,213.3166,375.8442,213.3974,364.745,212.9598,353.6458,212.9639,353.684,213.056,352.9805,212.5362,352.5051,212.5669,351.9509,212.4075,351.3479,212.1302,350.6996,211.7435,350.8962,211.8249,350.3005,211.09,350.0022,210.4783,349.768,209.8931,349.7044,209.3786,349.4792,208.7972,349.4109,208.7972,349.7158,200.2962,349.4185,191.7952,349.3601,183.2943,349.5584,174.7933,349.4792,166.2923,349.2653,166.2037,349.5567,165.6341,350.1755,165.2,350.3512,164.5824,350.6911,164.0329,350.6996,163.346,350.6568,163.2428,351.3312,163.2044,351.9565,163.0473,352.4046,162.4623,353.0438,162.339,353.6458,162.1257" style="stroke:#333333;stroke-width:1.0417;"/><polygon fill="#FFFFFF" fill-opacity="0.00000" points="374.5367,181.7452,373.0098,183.8315,371.2038,186.8873,368.6209,188.9466,365.9066,190.0728,363.7424,190.1705,360.9609,188.7621,358.3363,187.842,356.3443,185.9739,355.2993,183.8353,354.6796,182.1324,354.0725,179.9081,353.0871,177.9941,353.8443,176.1253,354.5078,174.0781,356.9974,172.459,358.749,170.3583,360.917,169.6607,363.4944,169.06,366.7996,169.4169,368.6099,170.2706,370.7147,170.6576,373.2738,173.2796,374.166,176.0476,374.5536,177.9362,374.1145,181.0484" style="stroke:#2E2E2E;stroke-width:1.0417;"/><path d="M366.6016,183.8989 L360.9212,183.8989 L360.9212,174.7843 L366.6016,174.7843 L366.6016,176.3794 L362.7279,176.3794 L362.7279,178.3325 L366.2272,178.3325 L366.2272,179.9276 L362.7279,179.9276 L362.7279,182.3039 L366.6016,182.3039 L366.6016,183.8989 Z " fill="#FFFFFF"/><text fill="#FFFFFF" font-family="Segoe Print" font-size="11.4583" lengthAdjust="spacing" textLength="33.2616" x="382.8125" y="183.1782">entity</text><path d="M350.5208,196.2972 L350.5208,196.5891 L360.9273,195.7218 L371.3337,196.5657 L381.7401,196.8523 L392.1465,195.3064 L402.5529,196.1893 L412.9594,195.7048 L423.3658,196.2972 " fill="#474747" style="stroke:#333333;stroke-width:1.0417;"/><path d="M350.5208,204.6305 L350.5208,204.9225 L360.9273,204.0551 L371.3337,204.899 L381.7401,205.1856 L392.1465,203.6397 L402.5529,204.5226 L412.9594,204.0382 L423.3658,204.6305 " fill="#474747" style="stroke:#333333;stroke-width:1.0417;"/></g><!--class enum--><g id="elem_enum"><polygon fill="#474747" points="35.4167,263.1673,35.4167,263.3863,46.4282,262.7357,57.4397,263.3687,68.4512,263.5837,79.4627,262.4242,90.4742,263.0864,101.4857,263.1673,101.429,263.0305,102.024,263.2884,102.6552,263.6336,103.1616,263.6778,103.9163,264.3212,104.432,264.3877,104.2298,264.304,104.6126,264.9507,105.0587,265.6236,105.1367,266.1441,105.4302,266.7538,105.6524,267.334,105.6413,267.334,105.7144,275.835,105.7354,284.3359,105.8557,292.8369,105.8854,301.3379,105.6524,309.8389,105.8703,309.9291,105.49,310.462,105.3129,311.079,105.1454,311.6999,104.4447,312.1001,104.432,312.7851,104.5221,313.0028,103.8033,312.9341,103.3244,313.4445,102.5984,313.3586,102.0659,313.7395,101.4857,314.0055,101.4857,314.778,90.4742,313.9548,79.4627,314.1152,68.4512,314.3583,57.4397,314.4391,46.4282,314.0015,35.4167,314.0055,35.4548,314.0977,34.7514,313.5778,34.2759,313.6086,33.7217,313.4492,33.1187,313.1718,32.4704,312.7851,32.667,312.8666,32.0713,312.1317,31.773,311.52,31.5388,310.9348,31.4752,310.4203,31.25,309.8389,31.1818,309.8389,31.4866,301.3379,31.1893,292.8369,31.1309,284.3359,31.3293,275.835,31.25,267.334,31.0361,267.2454,31.3275,266.6757,31.9463,266.2417,32.122,265.6241,32.4619,265.0746,32.4704,264.3877,32.4276,264.2845,33.1021,264.246,33.7274,264.089,34.1754,263.5039,34.8147,263.3806,35.4167,263.1673" style="stroke:#333333;stroke-width:1.0417;"/><polygon fill="#FFFFFF" fill-opacity="0.00000" points="56.3075,282.7868,54.7806,284.8732,52.9746,287.9289,50.3917,289.9883,47.6774,291.1145,45.5133,291.2122,42.7317,289.8038,40.1072,288.8837,38.1151,287.0156,37.0701,284.8769,36.4504,283.1741,35.8433,280.9498,34.8579,279.0357,35.6152,277.1669,36.2786,275.1198,38.7683,273.5007,40.5199,271.4,42.6879,270.7024,45.2653,270.1016,48.5705,270.4586,50.3808,271.3123,52.4855,271.6993,55.0447,274.3213,55.9368,277.0892,56.3244,278.9779,55.8854,282.0901" style="stroke:#2E2E2E;stroke-width:1.0417;"/><path d="M48.3724,284.9406 L42.6921,284.9406 L42.6921,275.826 L48.3724,275.826 L48.3724,277.4211 L44.4987,277.4211 L44.4987,279.3742 L47.998,279.3742 L47.998,280.9692 L44.4987,280.9692 L44.4987,283.3455 L48.3724,283.3455 L48.3724,284.9406 Z " fill="#FFFFFF"/><text fill="#FFFFFF" font-family="Segoe Print" font-size="11.4583" lengthAdjust="spacing" textLength="32.7357" x="64.5833" y="284.2199">enum</text><path d="M32.2917,297.3389 L32.2917,297.6308 L42.623,296.7634 L52.9542,297.6073 L63.2855,297.894 L73.6168,296.348 L83.9481,297.2309 L94.2794,296.7465 L104.6107,297.3389 " fill="#474747" style="stroke:#333333;stroke-width:1.0417;"/><path d="M32.2917,305.6722 L32.2917,305.9641 L42.623,305.0968 L52.9542,305.9407 L63.2855,306.2273 L73.6168,304.6814 L83.9481,305.5643 L94.2794,305.0798 L104.6107,305.6722 " fill="#474747" style="stroke:#333333;stroke-width:1.0417;"/></g><!--class exception--><g id="elem_exception"><polygon fill="#474747" points="128.6458,263.1673,128.6458,263.3863,138.6164,262.7357,148.587,263.3687,158.5576,263.5837,168.5282,262.4242,178.4988,263.0864,188.4694,262.7231,198.44,262.7678,208.4106,263.0963,218.3812,263.1673,218.2894,262.9455,219.0441,263.589,219.476,263.4533,220.1227,263.8361,220.7957,264.2822,221.3275,264.3877,221.3,264.3763,221.5935,264.986,221.8054,265.562,222.117,266.1792,222.3805,266.7765,222.5479,267.334,222.7513,267.334,222.7809,275.835,222.7838,284.3359,222.6363,292.8369,222.7089,301.3379,222.5479,309.8389,222.7732,309.9322,222.0725,310.3323,222.2774,311.1075,221.7206,311.5672,221.7428,312.2668,221.3275,312.7851,221.2617,312.6263,220.7292,313.0072,220.2476,313.5112,219.5533,313.5017,218.9845,313.7952,218.3812,314.0055,218.3812,314.3583,208.4106,314.4391,198.44,314.0015,188.4694,314.3047,178.4988,313.4093,168.5282,314.3018,158.5576,314.5766,148.587,314.4686,138.6164,314.6441,128.6458,314.0055,128.5816,313.8506,127.9699,313.5522,127.3848,313.318,126.8702,313.2544,126.2627,312.9662,125.6996,312.7851,125.9181,312.8757,125.3994,312.1727,125.1014,311.5611,125.0405,311.0477,124.5093,310.3395,124.4792,309.8389,124.2989,309.8389,124.7045,301.3379,124.6304,292.8369,124.7342,284.3359,124.3674,275.835,124.4792,267.334,124.5816,267.3764,124.9126,266.8232,124.8158,266.0927,125.1806,265.5535,125.4959,264.9937,125.6996,264.3877,125.7862,264.5968,126.2883,264.1423,126.9395,264.0479,127.3937,263.4778,127.9666,263.1941,128.6458,263.1673" style="stroke:#333333;stroke-width:1.0417;"/><polygon fill="#FFFFFF" fill-opacity="0.00000" points="149.5367,282.7868,148.0098,284.8732,146.2038,287.9289,143.6209,289.9883,140.9066,291.1145,138.7424,291.2122,135.9609,289.8038,133.3363,288.8837,131.3443,287.0156,130.2993,284.8769,129.6796,283.1741,129.0725,280.9498,128.0871,279.0357,128.8443,277.1669,129.5078,275.1198,131.9974,273.5007,133.749,271.4,135.917,270.7024,138.4944,270.1016,141.7996,270.4586,143.6099,271.3123,145.7147,271.6993,148.2738,274.3213,149.166,277.0892,149.5536,278.9779,149.1145,282.0901" style="stroke:#2E2E2E;stroke-width:1.0417;"/><path d="M142.2526,284.9406 L140.3971,284.9406 L138.6556,281.9295 L136.9303,284.9406 L135.0586,284.9406 L137.7279,280.3182 L135.14,275.826 L136.9954,275.826 L138.6556,278.7231 L140.3158,275.826 L142.1875,275.826 L139.5996,280.3182 L142.2526,284.9406 Z " fill="#FFFFFF"/><text fill="#FFFFFF" font-family="Segoe Print" font-size="11.4583" lengthAdjust="spacing" textLength="56.4021" x="157.8125" y="284.2199">exception</text><path d="M125.5208,297.3389 L125.5208,297.6308 L136.1859,296.7634 L146.8509,297.6073 L157.516,297.894 L168.181,296.348 L178.8461,297.2309 L189.5111,296.7465 L200.1762,296.8062 L210.8412,297.2442 L221.5062,297.3389 " fill="#474747" style="stroke:#333333;stroke-width:1.0417;"/><path d="M125.5208,305.6722 L125.5208,305.9641 L136.1859,305.0968 L146.8509,305.9407 L157.516,306.2273 L168.181,304.6814 L178.8461,305.5643 L189.5111,305.0798 L200.1762,305.1396 L210.8412,305.5775 L221.5062,305.6722 " fill="#474747" style="stroke:#333333;stroke-width:1.0417;"/></g><!--class interface--><g id="elem_interface"><polygon fill="#474747" points="245.8333,263.1673,245.8333,263.3863,256.388,262.7357,266.9426,263.3687,277.4972,263.5837,288.0519,262.4242,298.6065,263.0864,309.1611,262.7231,319.7158,262.7678,330.2704,263.1673,330.2613,263.1455,330.7678,263.1896,331.5225,263.8331,331.9544,263.6974,332.6011,264.0802,333.2167,264.3877,333.3552,264.4451,333.4332,264.9656,333.7267,265.5753,333.9386,266.1512,334.2502,266.7685,334.4371,267.334,334.5201,267.334,334.6404,275.835,334.6701,284.3359,334.6729,292.8369,334.5255,301.3379,334.4371,309.8389,334.5858,309.9005,334.4182,310.5214,333.7175,310.9216,333.9225,311.6968,333.3656,312.1565,333.2167,312.7851,333.2876,312.9564,332.5616,312.8704,332.0291,313.2513,331.5474,313.7553,330.8532,313.7458,330.2704,314.0055,330.2704,314.1152,319.7158,314.3583,309.1611,314.4391,298.6065,314.0015,288.0519,314.3047,277.4972,313.4093,266.9426,314.3018,256.388,314.5766,245.8333,314.0055,245.8924,314.1481,245.3255,313.9581,244.5906,313.3624,243.9789,313.0641,243.3937,312.8299,242.8871,312.7851,242.8682,312.7773,242.5799,312.1698,242.6175,311.6972,242.0988,310.9942,241.8007,310.3825,241.6667,309.8389,241.7459,309.8389,241.4351,301.3379,241.4864,292.8369,241.892,284.3359,241.8179,275.835,241.6667,267.334,241.9023,267.4316,241.8075,266.702,242.2572,266.1979,242.5883,265.6447,242.4914,264.9142,242.8871,264.3877,242.8743,264.357,243.4931,264.184,244.1522,264.1086,244.6543,263.6541,245.3055,263.5598,245.8333,263.1673" style="stroke:#333333;stroke-width:1.0417;"/><polygon fill="#FFFFFF" fill-opacity="0.00000" points="266.7242,282.7868,265.1973,284.8732,263.3913,287.9289,260.8084,289.9883,258.0941,291.1145,255.9299,291.2122,253.1484,289.8038,250.5238,288.8837,248.5318,287.0156,247.4868,284.8769,246.8671,283.1741,246.26,280.9498,245.2746,279.0357,246.0318,277.1669,246.6953,275.1198,249.1849,273.5007,250.9365,271.4,253.1045,270.7024,255.6819,270.1016,258.9871,270.4586,260.7974,271.3123,262.9022,271.6993,265.4613,274.3213,266.3535,277.0892,266.7411,278.9779,266.302,282.0901" style="stroke:#2E2E2E;stroke-width:1.0417;"/><path d="M253.1413,277.4211 L253.1413,275.826 L258.5612,275.826 L258.5612,277.4211 L256.7546,277.4211 L256.7546,283.3455 L258.5612,283.3455 L258.5612,284.9406 L253.1413,284.9406 L253.1413,283.3455 L254.9479,283.3455 L254.9479,277.4211 L253.1413,277.4211 Z " fill="#FFFFFF"/><text fill="#FFFFFF" font-family="Segoe Print" font-size="11.4583" font-style="italic" lengthAdjust="spacing" textLength="51.1037" x="275" y="284.2199">interface</text><path d="M242.7083,297.3389 L242.7083,297.6308 L252.7847,296.7634 L262.861,297.6073 L272.9374,297.894 L283.0137,296.348 L293.09,297.2309 L303.1664,296.7465 L313.2427,296.8062 L323.319,297.2442 L333.3954,297.3389 " fill="#474747" style="stroke:#333333;stroke-width:1.0417;"/><path d="M242.7083,305.6722 L242.7083,305.9641 L252.7847,305.0968 L262.861,305.9407 L272.9374,306.2273 L283.0137,304.6814 L293.09,305.5643 L303.1664,305.0798 L313.2427,305.1396 L323.319,305.5775 L333.3954,305.6722 " fill="#474747" style="stroke:#333333;stroke-width:1.0417;"/></g><!--class metaclass--><g id="elem_metaclass"><polygon fill="#474747" points="357.8125,263.1673,357.8125,263.3863,367.9795,262.7357,378.1466,263.3687,388.3136,263.5837,398.4807,262.4242,408.6477,263.0864,418.8148,262.7231,428.9818,262.7678,439.1489,263.0963,449.3159,263.1673,449.224,262.9455,449.9787,263.589,450.4107,263.4533,451.0574,263.8361,451.7303,264.2822,452.2622,264.3877,452.2347,264.3763,452.5281,264.986,452.7401,265.562,453.0517,266.1792,453.3152,266.7765,453.4826,267.334,453.6859,267.334,453.7156,275.835,453.7184,284.3359,453.571,292.8369,453.6435,301.3379,453.4826,309.8389,453.7078,309.9322,453.0071,310.3323,453.2121,311.1075,452.6552,311.5672,452.6775,312.2668,452.2622,312.7851,452.1964,312.6263,451.6638,313.0072,451.1822,313.5112,450.4879,313.5017,449.9191,313.7952,449.3159,314.0055,449.3159,314.3583,439.1489,314.4391,428.9818,314.0015,418.8148,314.3047,408.6477,313.4093,398.4807,314.3018,388.3136,314.5766,378.1466,314.4686,367.9795,314.6441,357.8125,314.0055,357.7483,313.8506,357.1366,313.5522,356.5514,313.318,356.0369,313.2544,355.4294,312.9662,354.8662,312.7851,355.0848,312.8757,354.5661,312.1727,354.268,311.5611,354.2072,311.0477,353.676,310.3395,353.6458,309.8389,353.4656,309.8389,353.8712,301.3379,353.7971,292.8369,353.9009,284.3359,353.5341,275.835,353.6458,267.334,353.7482,267.3764,354.0793,266.8232,353.9824,266.0927,354.3473,265.5535,354.6626,264.9937,354.8662,264.3877,354.9528,264.5968,355.4549,264.1423,356.1062,264.0479,356.5604,263.4778,357.1333,263.1941,357.8125,263.1673" style="stroke:#333333;stroke-width:1.0417;"/><polygon fill="#FFFFFF" fill-opacity="0.00000" points="378.7034,282.7868,377.1765,284.8732,375.3705,287.9289,372.7875,289.9883,370.0733,291.1145,367.9091,291.2122,365.1275,289.8038,362.503,288.8837,360.5109,287.0156,359.466,284.8769,358.8463,283.1741,358.2392,280.9498,357.2538,279.0357,358.011,277.1669,358.6744,275.1198,361.1641,273.5007,362.9157,271.4,365.0837,270.7024,367.6611,270.1016,370.9663,270.4586,372.7766,271.3123,374.8814,271.6993,377.4405,274.3213,378.3326,277.0892,378.7202,278.9779,378.2812,282.0901" style="stroke:#2E2E2E;stroke-width:1.0417;"/><path d="M364.5833,275.826 L366.7318,275.826 L367.8223,279.8299 L368.8965,275.826 L371.0612,275.826 L371.0612,284.9406 L369.515,284.9406 L369.515,277.6326 L368.5547,281.6203 L367.1224,281.6203 L366.1458,277.6326 L366.1458,284.9406 L364.5833,284.9406 L364.5833,275.826 Z " fill="#FFFFFF"/><text fill="#FFFFFF" font-family="Segoe Print" font-size="11.4583" lengthAdjust="spacing" textLength="58.1701" x="386.9792" y="284.2199">metaclass</text><path d="M354.6875,297.3389 L354.6875,297.6308 L365.549,296.7634 L376.4105,297.6073 L387.272,297.894 L398.1335,296.348 L408.9949,297.2309 L419.8564,296.7465 L430.7179,296.8062 L441.5794,297.2442 L452.4409,297.3389 " fill="#474747" style="stroke:#333333;stroke-width:1.0417;"/><path d="M354.6875,305.6722 L354.6875,305.9641 L365.549,305.0968 L376.4105,305.9407 L387.272,306.2273 L398.1335,304.6814 L408.9949,305.5643 L419.8564,305.0798 L430.7179,305.1396 L441.5794,305.5775 L452.4409,305.6722 " fill="#474747" style="stroke:#333333;stroke-width:1.0417;"/></g><!--class protocol--><g id="elem_protocol"><polygon fill="#474747" points="477.0833,263.1673,477.0833,263.3863,487.1239,262.7357,497.1645,263.3687,507.2051,263.5837,517.2457,262.4242,527.2863,263.0864,537.3269,262.7231,547.3675,262.7678,557.4081,263.1673,557.3991,263.1455,557.9055,263.1896,558.6602,263.8331,559.0922,263.6974,559.7389,264.0802,560.3544,264.3877,560.493,264.4451,560.571,264.9656,560.8645,265.5753,561.0764,266.1512,561.388,266.7685,561.5748,267.334,561.6578,267.334,561.7782,275.835,561.8078,284.3359,561.8107,292.8369,561.6632,301.3379,561.5748,309.8389,561.7235,309.9005,561.556,310.5214,560.8553,310.9216,561.0602,311.6968,560.5034,312.1565,560.3544,312.7851,560.4254,312.9564,559.6994,312.8704,559.1668,313.2513,558.6852,313.7553,557.9909,313.7458,557.4081,314.0055,557.4081,314.1152,547.3675,314.3583,537.3269,314.4391,527.2863,314.0015,517.2457,314.3047,507.2051,313.4093,497.1645,314.3018,487.1239,314.5766,477.0833,314.0055,477.1424,314.1481,476.5755,313.9581,475.8406,313.3624,475.2289,313.0641,474.6437,312.8299,474.1371,312.7851,474.1182,312.7773,473.8299,312.1698,473.8675,311.6972,473.3488,310.9942,473.0507,310.3825,472.9167,309.8389,472.9959,309.8389,472.6851,301.3379,472.7364,292.8369,473.142,284.3359,473.0679,275.835,472.9167,267.334,473.1523,267.4316,473.0575,266.702,473.5072,266.1979,473.8383,265.6447,473.7414,264.9142,474.1371,264.3877,474.1243,264.357,474.7431,264.184,475.4022,264.1086,475.9043,263.6541,476.5555,263.5598,477.0833,263.1673" style="stroke:#333333;stroke-width:1.0417;"/><polygon fill="#FFFFFF" fill-opacity="0.00000" points="497.9742,282.7868,496.4473,284.8732,494.6413,287.9289,492.0584,289.9883,489.3441,291.1145,487.1799,291.2122,484.3984,289.8038,481.7738,288.8837,479.7818,287.0156,478.7368,284.8769,478.1171,283.1741,477.51,280.9498,476.5246,279.0357,477.2818,277.1669,477.9453,275.1198,480.4349,273.5007,482.1865,271.4,484.3545,270.7024,486.9319,270.1016,490.2371,270.4586,492.0474,271.3123,494.1522,271.6993,496.7113,274.3213,497.6035,277.0892,497.9911,278.9779,497.552,282.0901" style="stroke:#2E2E2E;stroke-width:1.0417;"/><path d="M486.6374,277.3397 L486.6374,280.009 L487.3861,280.009 Q488.265,280.009 488.623,279.716 Q488.9811,279.423 488.9811,278.6743 Q488.9811,277.9419 488.623,277.6489 Q488.265,277.3397 487.3861,277.3397 L486.6374,277.3397 Z M484.847,275.826 L487.321,275.826 Q489.209,275.826 490.0228,276.5096 Q490.8529,277.1769 490.8529,278.6743 Q490.8529,280.188 490.0228,280.8553 Q489.209,281.5226 487.321,281.5226 L486.6374,281.5226 L486.6374,284.9406 L484.847,284.9406 L484.847,275.826 Z " fill="#FFFFFF"/><text fill="#FFFFFF" font-family="Segoe Print" font-size="11.4583" lengthAdjust="spacing" textLength="46.9915" x="506.25" y="284.2199">protocol</text><path d="M473.9583,297.3389 L473.9583,297.6308 L484.7802,296.7634 L495.602,297.6073 L506.4239,297.894 L517.2457,296.348 L528.0676,297.2309 L538.8894,296.7465 L549.7113,296.8062 L560.5331,297.3389 " fill="#474747" style="stroke:#333333;stroke-width:1.0417;"/><path d="M473.9583,305.6722 L473.9583,305.9641 L484.7802,305.0968 L495.602,305.9407 L506.4239,306.2273 L517.2457,304.6814 L528.0676,305.5643 L538.8894,305.0798 L549.7113,305.1396 L560.5331,305.6722 " fill="#474747" style="stroke:#333333;stroke-width:1.0417;"/></g><!--class stereotype--><g id="elem_stereotype"><polygon fill="#474747" points="20.8333,351.709,20.8333,351.9279,31.4125,351.2774,41.9917,351.9103,52.5709,352.1253,63.1501,350.9659,73.7293,351.628,84.3085,351.2647,94.8877,351.3095,105.4669,351.638,116.0461,351.709,115.9543,351.4872,116.709,352.1307,117.1409,351.995,117.7876,352.3778,118.4606,352.8239,118.9924,352.9294,118.9649,352.918,119.2584,353.5277,119.4703,354.1036,119.7819,354.7209,120.0454,355.3182,120.2128,355.8757,120.4162,355.8757,120.4458,364.3766,120.4487,372.8776,120.3012,381.3786,120.3738,389.8796,120.2128,398.3805,120.4381,398.4738,119.7374,398.874,119.9423,399.6492,119.3855,400.1089,119.4077,400.8085,118.9924,401.3268,118.9266,401.168,118.3941,401.5489,117.9125,402.0529,117.2182,402.0434,116.6494,402.3369,116.0461,402.5472,116.0461,402.8999,105.4669,402.9808,94.8877,402.5431,84.3085,402.8464,73.7293,401.9509,63.1501,402.8434,52.5709,403.1182,41.9917,403.0103,31.4125,403.1858,20.8333,402.5472,20.7691,402.3922,20.1574,402.0939,19.5723,401.8597,19.0577,401.7961,18.4502,401.5078,17.8871,401.3268,18.1056,401.4174,17.5869,400.7143,17.2889,400.1027,17.228,399.5894,16.6968,398.8812,16.6667,398.3805,16.4864,398.3805,16.892,389.8796,16.8179,381.3786,16.9217,372.8776,16.5549,364.3766,16.6667,355.8757,16.7691,355.9181,17.1001,355.3648,17.0033,354.6344,17.3681,354.0951,17.6834,353.5354,17.8871,352.9294,17.9737,353.1385,18.4758,352.684,19.127,352.5896,19.5812,352.0195,20.1541,351.7358,20.8333,351.709" style="stroke:#333333;stroke-width:1.0417;"/><polygon fill="#FFFFFF" fill-opacity="0.00000" points="41.7242,371.3285,40.1973,373.4148,38.3913,376.4706,35.8084,378.53,33.0941,379.6561,30.9299,379.7539,28.1484,378.3455,25.5238,377.4254,23.5318,375.5572,22.4868,373.4186,21.8671,371.7157,21.26,369.4914,20.2746,367.5774,21.0318,365.7086,21.6953,363.6614,24.1849,362.0424,25.9365,359.9416,28.1045,359.244,30.6819,358.6433,33.9871,359.0002,35.7974,359.854,37.9022,360.241,40.4613,362.8629,41.3535,365.6309,41.7411,367.5195,41.302,370.6318" style="stroke:#2E2E2E;stroke-width:1.0417;"/><path d="M30.1921,369.4784 Q28.8411,368.9575 28.3529,368.3879 Q27.8646,367.8182 27.8646,366.8579 Q27.8646,365.6209 28.6621,364.9211 Q29.4596,364.2049 30.8431,364.2049 Q31.4779,364.2049 32.0964,364.3514 Q32.7311,364.4979 33.3496,364.7746 L33.3496,366.5324 Q32.7637,366.1255 32.1615,365.9139 Q31.5755,365.686 30.9896,365.686 Q30.3385,365.686 29.9805,365.9627 Q29.6387,366.2231 29.6387,366.7114 Q29.6387,367.0858 29.8828,367.3299 Q30.1432,367.5741 30.9408,367.8833 L31.722,368.1763 Q32.8288,368.5669 33.3333,369.2342 Q33.8542,369.9015 33.8542,370.9106 Q33.8542,372.2941 33.0404,372.9777 Q32.2266,373.6613 30.5827,373.6613 Q29.8991,373.6613 29.2155,373.4985 Q28.5482,373.3358 27.9134,373.0103 L27.9134,371.1548 Q28.6296,371.6756 29.2969,371.9198 Q29.9805,372.1639 30.6315,372.1639 Q31.2988,372.1639 31.6569,371.8709 Q32.0313,371.5617 32.0313,371.0246 Q32.0313,370.6177 31.7871,370.3084 Q31.543,369.9992 31.0872,369.8201 L30.1921,369.4784 Z " fill="#FFFFFF"/><text fill="#FFFFFF" font-family="Segoe Print" font-size="11.4583" lengthAdjust="spacing" textLength="61.8795" x="50" y="372.7615">stereotype</text><path d="M17.7083,385.8805 L17.7083,386.1725 L27.8546,385.3051 L38.0009,386.149 L48.1472,386.4356 L58.2935,384.8897 L68.4397,385.7726 L78.586,385.2882 L88.7323,385.3479 L98.8786,385.7859 L109.0249,384.9203 L119.1711,385.8805 " fill="#474747" style="stroke:#333333;stroke-width:1.0417;"/><path d="M17.7083,394.2139 L17.7083,394.5058 L27.8546,393.6384 L38.0009,394.4823 L48.1472,394.769 L58.2935,393.223 L68.4397,394.1059 L78.586,393.6215 L88.7323,393.6812 L98.8786,394.1192 L109.0249,393.2536 L119.1711,394.2139 " fill="#474747" style="stroke:#333333;stroke-width:1.0417;"/></g><!--class struct--><g id="elem_struct"><polygon fill="#474747" points="143.2292,351.709,143.2292,351.9279,154.3227,351.2774,165.4163,351.9103,176.5099,352.1253,187.6034,350.9659,198.697,351.628,209.7905,351.709,209.7339,351.5722,210.3288,351.83,210.96,352.1753,211.4664,352.2194,212.2211,352.8629,212.7368,352.9294,212.5346,352.8456,212.9175,353.4923,213.3635,354.1653,213.4415,354.6857,213.735,355.2955,213.9572,355.8757,213.9461,355.8757,214.0192,364.3766,214.0402,372.8776,214.1606,381.3786,214.1902,389.8796,213.9572,398.3805,214.1751,398.4708,213.7948,399.0036,213.6178,399.6206,213.4503,400.2416,212.7496,400.6417,212.7368,401.3268,212.827,401.5445,212.1082,401.4758,211.6292,401.9862,210.9033,401.9002,210.3707,402.2811,209.7905,402.5472,209.7905,403.3197,198.697,402.4964,187.6034,402.6569,176.5099,402.8999,165.4163,402.9808,154.3227,402.5431,143.2292,402.5472,143.2673,402.6393,142.5639,402.1195,142.0884,402.1503,141.5342,401.9908,140.9312,401.7135,140.2829,401.3268,140.4795,401.4083,139.8838,400.6734,139.5855,400.0616,139.3513,399.4765,139.2877,398.962,139.0625,398.3805,138.9943,398.3805,139.2991,389.8796,139.0018,381.3786,138.9434,372.8776,139.1418,364.3766,139.0625,355.8757,138.8486,355.787,139.14,355.2174,139.7588,354.7834,139.9345,354.1658,140.2744,353.6162,140.2829,352.9294,140.2401,352.8261,140.9146,352.7877,141.5399,352.6306,141.9879,352.0456,142.6272,351.9223,143.2292,351.709" style="stroke:#333333;stroke-width:1.0417;"/><polygon fill="#FFFFFF" fill-opacity="0.00000" points="164.12,371.3285,162.5931,373.4148,160.7871,376.4706,158.2042,378.53,155.4899,379.6561,153.3258,379.7539,150.5442,378.3455,147.9197,377.4254,145.9276,375.5572,144.8826,373.4186,144.2629,371.7157,143.6558,369.4914,142.6704,367.5774,143.4277,365.7086,144.0911,363.6614,146.5808,362.0424,148.3324,359.9416,150.5004,359.244,153.0778,358.6433,156.383,359.0002,158.1933,359.854,160.298,360.241,162.8572,362.8629,163.7493,365.6309,164.1369,367.5195,163.6979,370.6318" style="stroke:#2E2E2E;stroke-width:1.0417;"/><path d="M152.5879,369.4784 Q151.237,368.9575 150.7487,368.3879 Q150.2604,367.8182 150.2604,366.8579 Q150.2604,365.6209 151.0579,364.9211 Q151.8555,364.2049 153.2389,364.2049 Q153.8737,364.2049 154.4922,364.3514 Q155.127,364.4979 155.7454,364.7746 L155.7454,366.5324 Q155.1595,366.1255 154.5573,365.9139 Q153.9714,365.686 153.3854,365.686 Q152.7344,365.686 152.3763,365.9627 Q152.0345,366.2231 152.0345,366.7114 Q152.0345,367.0858 152.2786,367.3299 Q152.5391,367.5741 153.3366,367.8833 L154.1178,368.1763 Q155.2246,368.5669 155.7292,369.2342 Q156.25,369.9015 156.25,370.9106 Q156.25,372.2941 155.4362,372.9777 Q154.6224,373.6613 152.9785,373.6613 Q152.2949,373.6613 151.6113,373.4985 Q150.944,373.3358 150.3092,373.0103 L150.3092,371.1548 Q151.0254,371.6756 151.6927,371.9198 Q152.3763,372.1639 153.0273,372.1639 Q153.6947,372.1639 154.0527,371.8709 Q154.4271,371.5617 154.4271,371.0246 Q154.4271,370.6177 154.1829,370.3084 Q153.9388,369.9992 153.4831,369.8201 L152.5879,369.4784 Z " fill="#FFFFFF"/><text fill="#FFFFFF" font-family="Segoe Print" font-size="11.4583" lengthAdjust="spacing" textLength="33.228" x="172.3958" y="372.7615">struct</text><path d="M140.1042,385.8805 L140.1042,386.1725 L150.5058,385.3051 L160.9074,386.149 L171.309,386.4356 L181.7107,384.8897 L192.1123,385.7726 L202.5139,385.2882 L212.9155,385.8805 " fill="#474747" style="stroke:#333333;stroke-width:1.0417;"/><path d="M140.1042,394.2139 L140.1042,394.5058 L150.5058,393.6384 L160.9074,394.4823 L171.309,394.769 L181.7107,393.223 L192.1123,394.1059 L202.5139,393.6215 L212.9155,394.2139 " fill="#474747" style="stroke:#333333;stroke-width:1.0417;"/></g></g></svg>