<svg xmlns="http://www.w3.org/2000/svg" xmlns:xlink="http://www.w3.org/1999/xlink" contentStyleType="text/css" data-diagram-type="CLASS" height="247.9167px" preserveAspectRatio="none" style="width:333px;height:247px;" version="1.1" viewBox="0 0 333 247" width="333.3333px" zoomAndPan="magnify"><defs><linearGradient id="gh2f707pkyqm90" x1="50%" x2="50%" y1="0%" y2="100%"><stop offset="0%" stop-color="#F18E3E"/><stop offset="100%" stop-color="#EC7211"/></linearGradient></defs><g><!--class Map--><g id="elem_Map"><rect codeLine="8" fill="url(#gh2f707pkyqm90)" height="50.8382" id="Map" rx="4.1667" ry="4.1667" style="stroke:#EC7211;stroke-width:1.0417;" width="101.1525" x="57.8125" y="100.5208"/><rect fill="url(#gh2f707pkyqm90)" height="34.1715" rx="4.1667" ry="4.1667" style="stroke:url(#gh2f707pkyqm90);stroke-width:1.0417;" width="101.1525" x="57.8125" y="100.5208"/><rect fill="url(#gh2f707pkyqm90)" height="4.1667" style="stroke:url(#gh2f707pkyqm90);stroke-width:1.0417;" width="101.1525" x="57.8125" y="130.5257"/><rect codeLine="8" fill="#FFFFFF" fill-opacity="0.00000" height="50.8382" id="Map" rx="4.1667" ry="4.1667" style="stroke:#EC7211;stroke-width:1.0417;" width="101.1525" x="57.8125" y="100.5208"/><ellipse cx="72.3958" cy="117.6066" fill="#B4A7E5" rx="10.4167" ry="10.4167" style="stroke:#181818;stroke-width:1.0417;"/><path d="M69.2871,114.7746 L69.2871,113.1795 L74.707,113.1795 L74.707,114.7746 L72.9004,114.7746 L72.9004,120.6991 L74.707,120.6991 L74.707,122.2941 L69.2871,122.2941 L69.2871,120.6991 L71.0938,120.6991 L71.0938,114.7746 L69.2871,114.7746 Z " fill="#000000"/><text fill="#FFFFFF" font-family="Verdana" font-size="11.4583" font-style="italic" lengthAdjust="spacing" textLength="24.1811" x="91.1458" y="121.5734">Map</text><rect fill="url(#gh2f707pkyqm90)" height="27.0508" style="stroke:#EC7211;stroke-width:1.0417;stroke-dasharray:2.0,2.0;" width="33.2214" x="128.8686" y="97.3958"/><text fill="#4E5D6C" font-family="Verdana" font-size="12.5" font-style="italic" lengthAdjust="spacing" textLength="20.7214" x="135.1186" y="115.2486">K,V</text><line style="stroke:#EC7211;stroke-width:1.0417;" x1="58.8542" x2="157.9234" y1="134.6924" y2="134.6924"/><line style="stroke:#EC7211;stroke-width:1.0417;" x1="58.8542" x2="157.9234" y1="143.0257" y2="143.0257"/></g><!--class HashMap--><g id="elem_HashMap"><rect codeLine="9" fill="url(#gh2f707pkyqm90)" height="50.8382" id="HashMap" rx="4.1667" ry="4.1667" style="stroke:#EC7211;stroke-width:1.0417;" width="204.4607" x="6.25" y="189.0625"/><rect fill="url(#gh2f707pkyqm90)" height="34.1715" rx="4.1667" ry="4.1667" style="stroke:url(#gh2f707pkyqm90);stroke-width:1.0417;" width="204.4607" x="6.25" y="189.0625"/><rect fill="url(#gh2f707pkyqm90)" height="4.1667" style="stroke:url(#gh2f707pkyqm90);stroke-width:1.0417;" width="204.4607" x="6.25" y="219.0674"/><rect codeLine="9" fill="#FFFFFF" fill-opacity="0.00000" height="50.8382" id="HashMap" rx="4.1667" ry="4.1667" style="stroke:#EC7211;stroke-width:1.0417;" width="204.4607" x="6.25" y="189.0625"/><ellipse cx="20.8333" cy="206.1483" fill="#ADD1B2" rx="10.4167" ry="10.4167" style="stroke:#181818;stroke-width:1.0417;"/><path d="M22.7376,210.5754 Q22.3145,210.7869 21.8424,210.9009 Q21.3704,211.0148 20.8659,211.0148 Q19.0104,211.0148 18.0339,209.8104 Q17.0736,208.5897 17.0736,206.2948 Q17.0736,203.9836 18.0339,202.7791 Q19.0104,201.5584 20.8659,201.5584 Q21.3704,201.5584 21.8424,201.6724 Q22.3307,201.77 22.7376,201.9979 L22.7376,203.9998 Q22.2819,203.5767 21.8424,203.3813 Q21.403,203.1698 20.9473,203.1698 Q19.9544,203.1698 19.4499,203.9673 Q18.9453,204.7485 18.9453,206.2948 Q18.9453,207.8247 19.4499,208.606 Q19.9544,209.3872 20.9473,209.3872 Q21.403,209.3872 21.8424,209.1919 Q22.2819,208.9966 22.7376,208.5734 L22.7376,210.5754 Z " fill="#000000"/><text fill="#FFFFFF" font-family="Verdana" font-size="11.4583" lengthAdjust="spacing" textLength="53.0507" x="39.5833" y="210.1151">HashMap</text><rect fill="url(#gh2f707pkyqm90)" height="27.0508" style="stroke:#EC7211;stroke-width:1.0417;stroke-dasharray:2.0,2.0;" width="107.6599" x="106.1757" y="185.9375"/><text fill="#4E5D6C" font-family="Verdana" font-size="12.5" font-style="italic" lengthAdjust="spacing" textLength="95.1599" x="112.4257" y="203.7903">Long,Customer</text><line style="stroke:#EC7211;stroke-width:1.0417;" x1="7.2917" x2="209.669" y1="223.234" y2="223.234"/><line style="stroke:#EC7211;stroke-width:1.0417;" x1="7.2917" x2="209.669" y1="231.5674" y2="231.5674"/></g><!--class Shop--><g id="elem_Shop"><rect fill="url(#gh2f707pkyqm90)" height="50.8382" id="Shop" rx="4.1667" ry="4.1667" style="stroke:#EC7211;stroke-width:1.0417;" width="70.4859" x="242.7083" y="11.9792"/><rect fill="url(#gh2f707pkyqm90)" height="34.1715" rx="4.1667" ry="4.1667" style="stroke:url(#gh2f707pkyqm90);stroke-width:1.0417;" width="70.4859" x="242.7083" y="11.9792"/><rect fill="url(#gh2f707pkyqm90)" height="4.1667" style="stroke:url(#gh2f707pkyqm90);stroke-width:1.0417;" width="70.4859" x="242.7083" y="41.984"/><rect fill="#FFFFFF" fill-opacity="0.00000" height="50.8382" id="Shop" rx="4.1667" ry="4.1667" style="stroke:#EC7211;stroke-width:1.0417;" width="70.4859" x="242.7083" y="11.9792"/><ellipse cx="257.2917" cy="29.0649" fill="#ADD1B2" rx="10.4167" ry="10.4167" style="stroke:#181818;stroke-width:1.0417;"/><path d="M259.196,33.492 Q258.7728,33.7036 258.3008,33.8175 Q257.8288,33.9315 257.3242,33.9315 Q255.4688,33.9315 254.4922,32.7271 Q253.5319,31.5063 253.5319,29.2114 Q253.5319,26.9002 254.4922,25.6958 Q255.4688,24.4751 257.3242,24.4751 Q257.8288,24.4751 258.3008,24.589 Q258.7891,24.6867 259.196,24.9146 L259.196,26.9165 Q258.7402,26.4933 258.3008,26.298 Q257.8613,26.0864 257.4056,26.0864 Q256.4128,26.0864 255.9082,26.884 Q255.4036,27.6652 255.4036,29.2114 Q255.4036,30.7414 255.9082,31.5226 Q256.4128,32.3039 257.4056,32.3039 Q257.8613,32.3039 258.3008,32.1086 Q258.7402,31.9132 259.196,31.4901 L259.196,33.492 Z " fill="#000000"/><text fill="#FFFFFF" font-family="Verdana" font-size="11.4583" lengthAdjust="spacing" textLength="28.8193" x="276.0417" y="33.0317">Shop</text><line style="stroke:#EC7211;stroke-width:1.0417;" x1="243.75" x2="312.1526" y1="46.1507" y2="46.1507"/><line style="stroke:#EC7211;stroke-width:1.0417;" x1="243.75" x2="312.1526" y1="54.484" y2="54.484"/></g><!--class Customer--><g id="elem_Customer"><rect fill="url(#gh2f707pkyqm90)" height="50.8382" id="Customer" rx="4.1667" ry="4.1667" style="stroke:#EC7211;stroke-width:1.0417;" width="97.3246" x="229.6875" y="189.0625"/><rect fill="url(#gh2f707pkyqm90)" height="34.1715" rx="4.1667" ry="4.1667" style="stroke:url(#gh2f707pkyqm90);stroke-width:1.0417;" width="97.3246" x="229.6875" y="189.0625"/><rect fill="url(#gh2f707pkyqm90)" height="4.1667" style="stroke:url(#gh2f707pkyqm90);stroke-width:1.0417;" width="97.3246" x="229.6875" y="219.0674"/><rect fill="#FFFFFF" fill-opacity="0.00000" height="50.8382" id="Customer" rx="4.1667" ry="4.1667" style="stroke:#EC7211;stroke-width:1.0417;" width="97.3246" x="229.6875" y="189.0625"/><ellipse cx="244.2708" cy="206.1483" fill="#ADD1B2" rx="10.4167" ry="10.4167" style="stroke:#181818;stroke-width:1.0417;"/><path d="M246.1751,210.5754 Q245.752,210.7869 245.2799,210.9009 Q244.8079,211.0148 244.3034,211.0148 Q242.4479,211.0148 241.4714,209.8104 Q240.5111,208.5897 240.5111,206.2948 Q240.5111,203.9836 241.4714,202.7791 Q242.4479,201.5584 244.3034,201.5584 Q244.8079,201.5584 245.2799,201.6724 Q245.7682,201.77 246.1751,201.9979 L246.1751,203.9998 Q245.7194,203.5767 245.2799,203.3813 Q244.8405,203.1698 244.3848,203.1698 Q243.3919,203.1698 242.8874,203.9673 Q242.3828,204.7485 242.3828,206.2948 Q242.3828,207.8247 242.8874,208.606 Q243.3919,209.3872 244.3848,209.3872 Q244.8405,209.3872 245.2799,209.1919 Q245.7194,208.9966 246.1751,208.5734 L246.1751,210.5754 Z " fill="#000000"/><text fill="#FFFFFF" font-family="Verdana" font-size="11.4583" lengthAdjust="spacing" textLength="55.658" x="263.0208" y="210.1151">Customer</text><line style="stroke:#EC7211;stroke-width:1.0417;" x1="230.7292" x2="325.9705" y1="223.234" y2="223.234"/><line style="stroke:#EC7211;stroke-width:1.0417;" x1="230.7292" x2="325.9705" y1="231.5674" y2="231.5674"/></g><polygon fill="#FFFFFF" fill-opacity="0.00000" points="108.3333,151.6276,102.0833,170.3776,114.5833,170.3776,108.3333,151.6276" style="stroke:#EC7211;stroke-width:1.0417;"/><path d="M108.3333,170.3776 C108.3333,182.0597 108.3333,177.2461 108.3333,188.9361 " fill="#FFFFFF" fill-opacity="0.00000" style="stroke:#EC7211;stroke-width:3.125;stroke-dasharray:7.0,7.0;"/><polygon fill="#EC7211" points="278.125,188.9653,282.2917,179.5903,278.125,183.7569,273.9583,179.5903,278.125,188.9653" style="stroke:#EC7211;stroke-width:1.0417;"/><path d="M278.125,63.2437 C278.125,96.5964 278.125,149.4274 278.125,182.7153 " fill="#FFFFFF" fill-opacity="0.00000" style="stroke:#EC7211;stroke-width:3.125;"/><text fill="#4E5D6C" font-family="Verdana" font-size="12.5" lengthAdjust="spacing" textLength="58.8623" x="213.5417" y="166.193">customer</text><text fill="#4E5D6C" font-family="Verdana" font-size="12.5" lengthAdjust="spacing" textLength="7.9529" x="238.9964" y="180.7438">1</text><polygon fill="#EC7211" points="229.5006,214.5833,220.1256,210.4167,224.2922,214.5833,220.1256,218.75,229.5006,214.5833" style="stroke:#EC7211;stroke-width:1.0417;"/><path d="M210.4736,214.5833 C216.8159,214.5833 216.9083,214.5833 223.2506,214.5833 " fill="#FFFFFF" fill-opacity="0.00000" style="stroke:#EC7211;stroke-width:3.125;"/><text fill="#4E5D6C" font-family="Verdana" font-size="12.5" lengthAdjust="spacing" textLength="34.1431" x="189.9172" y="232.4361">value</text></g></svg>