<svg xmlns="http://www.w3.org/2000/svg" xmlns:xlink="http://www.w3.org/1999/xlink" contentStyleType="text/css" height="327px" preserveAspectRatio="none" style="width:563px;height:327px;background:#FFFFFF;" version="1.1" viewBox="0 0 563 327" width="563px" zoomAndPan="magnify"><defs/><g><!--class abstract--><g id="elem_abstract"><rect codeLine="6" fill="#F1F1F1" height="48" id="abstract" rx="3.5" ry="3.5" style="stroke:#181818;stroke-width:0.5;" width="89.7705" x="15" y="12"/><ellipse cx="30" cy="28" fill="#A9DCDF" rx="11" ry="11" style="stroke:#181818;stroke-width:1.0;"/><path d="M30.1094,23.3438 L28.9531,28.4219 L31.2813,28.4219 L30.1094,23.3438 Z M28.625,21.1094 L31.6094,21.1094 L34.9688,33.5 L32.5156,33.5 L31.75,30.4375 L28.4688,30.4375 L27.7188,33.5 L25.2813,33.5 L28.625,21.1094 Z " fill="#000000"/><text fill="#000000" font-family="sans-serif" font-size="14" font-style="italic" lengthAdjust="spacing" textLength="57.7705" x="44" y="32.8467">abstract</text><line style="stroke:#181818;stroke-width:0.5;" x1="16" x2="103.7705" y1="44" y2="44"/><line style="stroke:#181818;stroke-width:0.5;" x1="16" x2="103.7705" y1="52" y2="52"/></g><!--class abstract class--><g id="elem_abstract class"><rect codeLine="7" fill="#F1F1F1" height="48" id="abstract class" rx="3.5" ry="3.5" style="stroke:#181818;stroke-width:0.5;" width="128.9746" x="123.5" y="12"/><ellipse cx="138.5" cy="28" fill="#A9DCDF" rx="11" ry="11" style="stroke:#181818;stroke-width:1.0;"/><path d="M138.6094,23.3438 L137.4531,28.4219 L139.7813,28.4219 L138.6094,23.3438 Z M137.125,21.1094 L140.1094,21.1094 L143.4688,33.5 L141.0156,33.5 L140.25,30.4375 L136.9688,30.4375 L136.2188,33.5 L133.7813,33.5 L137.125,21.1094 Z " fill="#000000"/><text fill="#000000" font-family="sans-serif" font-size="14" font-style="italic" lengthAdjust="spacing" textLength="96.9746" x="152.5" y="32.8467">abstract class</text><line style="stroke:#181818;stroke-width:0.5;" x1="124.5" x2="251.4746" y1="44" y2="44"/><line style="stroke:#181818;stroke-width:0.5;" x1="124.5" x2="251.4746" y1="52" y2="52"/></g><!--class annotation--><g id="elem_annotation"><rect codeLine="8" fill="#F1F1F1" height="48" id="annotation" rx="3.5" ry="3.5" style="stroke:#181818;stroke-width:0.5;" width="107.7764" x="271" y="12"/><ellipse cx="286" cy="28" fill="#E3664A" rx="11" ry="11" style="stroke:#181818;stroke-width:1.0;"/><path d="M288.0781,28.4688 Q288.0781,27.5313 287.6563,27 Q287.2344,26.4688 286.4844,26.4688 Q285.75,26.4688 285.3281,27 Q284.9219,27.5313 284.9219,28.4688 Q284.9219,29.4219 285.3281,29.9531 Q285.75,30.4844 286.4844,30.4844 Q287.2344,30.4844 287.6563,29.9531 Q288.0781,29.4219 288.0781,28.4688 Z M289.625,31.875 L288,31.875 L288,31.2031 Q287.6719,31.6406 287.25,31.8438 Q286.8281,32.0469 286.2188,32.0469 Q284.8594,32.0469 284.0313,31.0781 Q283.2031,30.0938 283.2031,28.4688 Q283.2031,26.875 284.0313,25.9063 Q284.8594,24.9219 286.2188,24.9219 Q286.8125,24.9219 287.2656,25.125 Q287.7188,25.3281 288,25.7188 L288,25.375 Q288,24.25 287.375,23.6406 Q286.75,23.0156 285.6094,23.0156 Q283.8906,23.0156 282.7969,24.5469 Q281.7031,26.0625 281.7031,28.5 Q281.7031,31.0469 282.9531,32.5469 Q284.2188,34.0469 286.3281,34.0469 Q286.9844,34.0469 287.6094,33.8594 Q288.2344,33.6719 288.8125,33.2813 L289.5781,34.7344 Q288.9063,35.1875 288.1094,35.4063 Q287.3125,35.6406 286.4063,35.6406 Q283.5,35.6406 281.7656,33.7031 Q280.0469,31.7813 280.0469,28.5 Q280.0469,25.2813 281.5938,23.3594 Q283.1563,21.4219 285.7188,21.4219 Q287.5156,21.4219 288.5625,22.5156 Q289.625,23.6094 289.625,25.4844 L289.625,31.875 Z " fill="#000000"/><text fill="#000000" font-family="sans-serif" font-size="14" lengthAdjust="spacing" textLength="75.7764" x="300" y="32.8467">annotation</text><line style="stroke:#181818;stroke-width:0.5;" x1="272" x2="377.7764" y1="44" y2="44"/><line style="stroke:#181818;stroke-width:0.5;" x1="272" x2="377.7764" y1="52" y2="52"/></g><!--entity circle--><g id="elem_circle"><ellipse cx="406" cy="33" fill="#F1F1F1" rx="8" ry="8" style="stroke:#181818;stroke-width:0.5;"/><text fill="#000000" font-family="sans-serif" font-size="14" lengthAdjust="spacing" textLength="37.543" x="387.2285" y="62.9951">circle</text></g><!--entity circle_short_form--><g id="elem_circle_short_form"><ellipse cx="442" cy="33" fill="#F1F1F1" rx="8" ry="8" style="stroke:#181818;stroke-width:0.5;"/><text fill="#000000" font-family="sans-serif" font-size="14" lengthAdjust="spacing" textLength="120.4082" x="381.7959" y="62.9951">circle_short_form</text></g><!--class class--><g id="elem_class"><rect codeLine="11" fill="#F1F1F1" height="48" id="class" rx="3.5" ry="3.5" style="stroke:#181818;stroke-width:0.5;" width="66.7539" x="26.5" y="100"/><ellipse cx="41.5" cy="116" fill="#ADD1B2" rx="11" ry="11" style="stroke:#181818;stroke-width:1.0;"/><path d="M44.4688,121.6406 Q43.8906,121.9375 43.25,122.0781 Q42.6094,122.2344 41.9063,122.2344 Q39.4063,122.2344 38.0781,120.5938 Q36.7656,118.9375 36.7656,115.8125 Q36.7656,112.6875 38.0781,111.0313 Q39.4063,109.375 41.9063,109.375 Q42.6094,109.375 43.25,109.5313 Q43.9063,109.6875 44.4688,109.9844 L44.4688,112.7031 Q43.8438,112.125 43.25,111.8594 Q42.6563,111.5781 42.0313,111.5781 Q40.6875,111.5781 40,112.6563 Q39.3125,113.7188 39.3125,115.8125 Q39.3125,117.9063 40,118.9844 Q40.6875,120.0469 42.0313,120.0469 Q42.6563,120.0469 43.25,119.7813 Q43.8438,119.5 44.4688,118.9219 L44.4688,121.6406 Z " fill="#000000"/><text fill="#000000" font-family="sans-serif" font-size="14" lengthAdjust="spacing" textLength="34.7539" x="55.5" y="120.8467">class</text><line style="stroke:#181818;stroke-width:0.5;" x1="27.5" x2="92.2539" y1="132" y2="132"/><line style="stroke:#181818;stroke-width:0.5;" x1="27.5" x2="92.2539" y1="140" y2="140"/></g><!--class class_stereo--><g id="elem_class_stereo"><rect codeLine="12" fill="#F1F1F1" height="56.2656" id="class_stereo" rx="3.5" ry="3.5" style="stroke:#181818;stroke-width:0.5;" width="118.085" x="112" y="96"/><ellipse cx="127" cy="116.1328" fill="#ADD1B2" rx="11" ry="11" style="stroke:#181818;stroke-width:1.0;"/><path d="M129.9688,121.7734 Q129.3906,122.0703 128.75,122.2109 Q128.1094,122.3672 127.4063,122.3672 Q124.9063,122.3672 123.5781,120.7266 Q122.2656,119.0703 122.2656,115.9453 Q122.2656,112.8203 123.5781,111.1641 Q124.9063,109.5078 127.4063,109.5078 Q128.1094,109.5078 128.75,109.6641 Q129.4063,109.8203 129.9688,110.1172 L129.9688,112.8359 Q129.3438,112.2578 128.75,111.9922 Q128.1563,111.7109 127.5313,111.7109 Q126.1875,111.7109 125.5,112.7891 Q124.8125,113.8516 124.8125,115.9453 Q124.8125,118.0391 125.5,119.1172 Q126.1875,120.1797 127.5313,120.1797 Q128.1563,120.1797 128.75,119.9141 Q129.3438,119.6328 129.9688,119.0547 L129.9688,121.7734 Z " fill="#000000"/><text fill="#000000" font-family="sans-serif" font-size="12" font-style="italic" lengthAdjust="spacing" textLength="79.4883" x="144.2983" y="112.1387">&#171;stereotype&#187;</text><text fill="#000000" font-family="sans-serif" font-size="14" lengthAdjust="spacing" textLength="86.085" x="141" y="127.9639">class_stereo</text><line style="stroke:#181818;stroke-width:0.5;" x1="113" x2="229.085" y1="136.2656" y2="136.2656"/><line style="stroke:#181818;stroke-width:0.5;" x1="113" x2="229.085" y1="144.2656" y2="144.2656"/></g><g id="elem_diamond"><polygon fill="#F1F1F1" points="260,112,272,124,260,136,248,124,260,112" style="stroke:#181818;stroke-width:0.5;"/></g><polygon fill="#F1F1F1" points="302,112,314,124,302,136,290,124,302,112" style="stroke:#181818;stroke-width:0.5;"/><!--class entity--><g id="elem_entity"><rect codeLine="15" fill="#F1F1F1" height="48" id="entity" rx="3.5" ry="3.5" style="stroke:#181818;stroke-width:0.5;" width="72.6396" x="332.5" y="100"/><ellipse cx="347.5" cy="116" fill="#ADD1B2" rx="11" ry="11" style="stroke:#181818;stroke-width:1.0;"/><path d="M351.6094,122 L343.8906,122 L343.8906,109.6094 L351.6094,109.6094 L351.6094,111.7656 L346.3438,111.7656 L346.3438,114.4375 L351.1094,114.4375 L351.1094,116.5938 L346.3438,116.5938 L346.3438,119.8438 L351.6094,119.8438 L351.6094,122 Z " fill="#000000"/><text fill="#000000" font-family="sans-serif" font-size="14" lengthAdjust="spacing" textLength="40.6396" x="361.5" y="120.8467">entity</text><line style="stroke:#181818;stroke-width:0.5;" x1="333.5" x2="404.1396" y1="132" y2="132"/><line style="stroke:#181818;stroke-width:0.5;" x1="333.5" x2="404.1396" y1="140" y2="140"/></g><!--class enum--><g id="elem_enum"><rect codeLine="16" fill="#F1F1F1" height="48" id="enum" rx="3.5" ry="3.5" style="stroke:#181818;stroke-width:0.5;" width="71.9971" x="24" y="188"/><ellipse cx="39" cy="204" fill="#EB937F" rx="11" ry="11" style="stroke:#181818;stroke-width:1.0;"/><path d="M43.1094,210 L35.3906,210 L35.3906,197.6094 L43.1094,197.6094 L43.1094,199.7656 L37.8438,199.7656 L37.8438,202.4375 L42.6094,202.4375 L42.6094,204.5938 L37.8438,204.5938 L37.8438,207.8438 L43.1094,207.8438 L43.1094,210 Z " fill="#000000"/><text fill="#000000" font-family="sans-serif" font-size="14" lengthAdjust="spacing" textLength="39.9971" x="53" y="208.8467">enum</text><line style="stroke:#181818;stroke-width:0.5;" x1="25" x2="94.9971" y1="220" y2="220"/><line style="stroke:#181818;stroke-width:0.5;" x1="25" x2="94.9971" y1="228" y2="228"/></g><!--class exception--><g id="elem_exception"><rect codeLine="17" fill="#F1F1F1" height="48" id="exception" rx="3.5" ry="3.5" style="stroke:#181818;stroke-width:0.5;" width="100.9131" x="114.5" y="188"/><ellipse cx="129.5" cy="204" fill="#D94321" rx="11" ry="11" style="stroke:#181818;stroke-width:1.0;"/><path d="M134.5156,210 L131.9844,210 L129.6094,205.9063 L127.25,210 L124.7188,210 L128.3594,203.7031 L124.8281,197.6094 L127.3594,197.6094 L129.6094,201.5469 L131.875,197.6094 L134.4063,197.6094 L130.8906,203.7031 L134.5156,210 Z " fill="#000000"/><text fill="#000000" font-family="sans-serif" font-size="14" lengthAdjust="spacing" textLength="68.9131" x="143.5" y="208.8467">exception</text><line style="stroke:#181818;stroke-width:0.5;" x1="115.5" x2="214.4131" y1="220" y2="220"/><line style="stroke:#181818;stroke-width:0.5;" x1="115.5" x2="214.4131" y1="228" y2="228"/></g><!--class interface--><g id="elem_interface"><rect codeLine="18" fill="#F1F1F1" height="48" id="interface" rx="3.5" ry="3.5" style="stroke:#181818;stroke-width:0.5;" width="94.4395" x="234" y="188"/><ellipse cx="249" cy="204" fill="#B4A7E5" rx="11" ry="11" style="stroke:#181818;stroke-width:1.0;"/><path d="M244.9219,199.7656 L244.9219,197.6094 L252.3125,197.6094 L252.3125,199.7656 L249.8438,199.7656 L249.8438,207.8438 L252.3125,207.8438 L252.3125,210 L244.9219,210 L244.9219,207.8438 L247.3906,207.8438 L247.3906,199.7656 L244.9219,199.7656 Z " fill="#000000"/><text fill="#000000" font-family="sans-serif" font-size="14" font-style="italic" lengthAdjust="spacing" textLength="62.4395" x="263" y="208.8467">interface</text><line style="stroke:#181818;stroke-width:0.5;" x1="235" x2="327.4395" y1="220" y2="220"/><line style="stroke:#181818;stroke-width:0.5;" x1="235" x2="327.4395" y1="228" y2="228"/></g><!--class metaclass--><g id="elem_metaclass"><rect codeLine="19" fill="#F1F1F1" height="48" id="metaclass" rx="3.5" ry="3.5" style="stroke:#181818;stroke-width:0.5;" width="103.0732" x="346.5" y="188"/><ellipse cx="361.5" cy="204" fill="#CCCCCC" rx="11" ry="11" style="stroke:#181818;stroke-width:1.0;"/><path d="M357.2188,197.6094 L360.1406,197.6094 L361.6094,203.0469 L363.0781,197.6094 L366.0156,197.6094 L366.0156,210 L363.9063,210 L363.9063,200.0781 L362.5938,205.5 L360.6563,205.5 L359.3281,200.0781 L359.3281,210 L357.2188,210 L357.2188,197.6094 Z " fill="#000000"/><text fill="#000000" font-family="sans-serif" font-size="14" lengthAdjust="spacing" textLength="71.0732" x="375.5" y="208.8467">metaclass</text><line style="stroke:#181818;stroke-width:0.5;" x1="347.5" x2="448.5732" y1="220" y2="220"/><line style="stroke:#181818;stroke-width:0.5;" x1="347.5" x2="448.5732" y1="228" y2="228"/></g><!--class protocol--><g id="elem_protocol"><rect codeLine="20" fill="#F1F1F1" height="48" id="protocol" rx="3.5" ry="3.5" style="stroke:#181818;stroke-width:0.5;" width="89.415" x="467.5" y="188"/><ellipse cx="482.5" cy="204" fill="#F1F1F1" rx="11" ry="11" style="stroke:#181818;stroke-width:1.0;"/><path d="M482.2969,199.6719 L482.2969,203.2969 L483.2969,203.2969 Q484.5,203.2969 484.9844,202.8906 Q485.4688,202.4844 485.4688,201.4844 Q485.4688,200.4844 484.9844,200.0781 Q484.5,199.6719 483.2969,199.6719 L482.2969,199.6719 Z M479.8438,197.6094 L483.2031,197.6094 Q485.7656,197.6094 486.8906,198.5313 Q488.0156,199.4375 488.0156,201.4844 Q488.0156,203.5313 486.8906,204.4531 Q485.7656,205.3594 483.2031,205.3594 L482.2969,205.3594 L482.2969,210 L479.8438,210 L479.8438,197.6094 Z " fill="#000000"/><text fill="#000000" font-family="sans-serif" font-size="14" lengthAdjust="spacing" textLength="57.415" x="496.5" y="208.8467">protocol</text><line style="stroke:#181818;stroke-width:0.5;" x1="468.5" x2="555.915" y1="220" y2="220"/><line style="stroke:#181818;stroke-width:0.5;" x1="468.5" x2="555.915" y1="228" y2="228"/></g><!--class stereotype--><g id="elem_stereotype"><rect codeLine="21" fill="#F1F1F1" height="48" id="stereotype" rx="3.5" ry="3.5" style="stroke:#181818;stroke-width:0.5;" width="107.6055" x="6" y="272"/><ellipse cx="21" cy="288" fill="#FF77FF" rx="11" ry="11" style="stroke:#181818;stroke-width:1.0;"/><path d="M20.4844,288.5625 Q18.625,287.8594 17.9688,287.0938 Q17.3281,286.3125 17.3281,285 Q17.3281,283.3125 18.4063,282.3438 Q19.4844,281.375 21.3594,281.375 Q22.2188,281.375 23.0625,281.5781 Q23.9219,281.7656 24.7656,282.1563 L24.7656,284.5469 Q23.9844,283.9844 23.1563,283.7031 Q22.3438,283.4063 21.5469,283.4063 Q20.6719,283.4063 20.1875,283.7656 Q19.7188,284.125 19.7188,284.7813 Q19.7188,285.2969 20.0625,285.6406 Q20.4063,285.9688 21.5,286.375 L22.5625,286.7813 Q24.0469,287.3281 24.75,288.2344 Q25.4688,289.1406 25.4688,290.5156 Q25.4688,292.3906 24.3594,293.3125 Q23.25,294.2344 21,294.2344 Q20.0781,294.2344 19.1563,294.0156 Q18.2344,293.7969 17.375,293.375 L17.375,290.8438 Q18.3438,291.5313 19.2656,291.875 Q20.1875,292.2188 21.0781,292.2188 Q21.9844,292.2188 22.4844,291.8125 Q22.9844,291.3906 22.9844,290.6563 Q22.9844,290.0938 22.6406,289.6875 Q22.3125,289.2656 21.6875,289.0156 L20.4844,288.5625 Z " fill="#000000"/><text fill="#000000" font-family="sans-serif" font-size="14" lengthAdjust="spacing" textLength="75.6055" x="35" y="292.8467">stereotype</text><line style="stroke:#181818;stroke-width:0.5;" x1="7" x2="112.6055" y1="304" y2="304"/><line style="stroke:#181818;stroke-width:0.5;" x1="7" x2="112.6055" y1="312" y2="312"/></g><!--class struct--><g id="elem_struct"><rect codeLine="22" fill="#F1F1F1" height="48" id="struct" rx="3.5" ry="3.5" style="stroke:#181818;stroke-width:0.5;" width="72.5986" x="132.5" y="272"/><ellipse cx="147.5" cy="288" fill="#F1F1F1" rx="11" ry="11" style="stroke:#181818;stroke-width:1.0;"/><path d="M146.9844,288.5625 Q145.125,287.8594 144.4688,287.0938 Q143.8281,286.3125 143.8281,285 Q143.8281,283.3125 144.9063,282.3438 Q145.9844,281.375 147.8594,281.375 Q148.7188,281.375 149.5625,281.5781 Q150.4219,281.7656 151.2656,282.1563 L151.2656,284.5469 Q150.4844,283.9844 149.6563,283.7031 Q148.8438,283.4063 148.0469,283.4063 Q147.1719,283.4063 146.6875,283.7656 Q146.2188,284.125 146.2188,284.7813 Q146.2188,285.2969 146.5625,285.6406 Q146.9063,285.9688 148,286.375 L149.0625,286.7813 Q150.5469,287.3281 151.25,288.2344 Q151.9688,289.1406 151.9688,290.5156 Q151.9688,292.3906 150.8594,293.3125 Q149.75,294.2344 147.5,294.2344 Q146.5781,294.2344 145.6563,294.0156 Q144.7344,293.7969 143.875,293.375 L143.875,290.8438 Q144.8438,291.5313 145.7656,291.875 Q146.6875,292.2188 147.5781,292.2188 Q148.4844,292.2188 148.9844,291.8125 Q149.4844,291.3906 149.4844,290.6563 Q149.4844,290.0938 149.1406,289.6875 Q148.8125,289.2656 148.1875,289.0156 L146.9844,288.5625 Z " fill="#000000"/><text fill="#000000" font-family="sans-serif" font-size="14" lengthAdjust="spacing" textLength="40.5986" x="161.5" y="292.8467">struct</text><line style="stroke:#181818;stroke-width:0.5;" x1="133.5" x2="204.0986" y1="304" y2="304"/><line style="stroke:#181818;stroke-width:0.5;" x1="133.5" x2="204.0986" y1="312" y2="312"/></g></g></svg>