<svg xmlns="http://www.w3.org/2000/svg" xmlns:xlink="http://www.w3.org/1999/xlink" contentStyleType="text/css" height="782.2917px" preserveAspectRatio="none" style="width:1012px;height:782px;" version="1.1" viewBox="0 0 1012 782" width="1012.5px" zoomAndPan="magnify"><defs/><g><!--cluster foo_frame--><g id="cluster_foo_frame"><rect fill="none" height="110.4167" rx="4.1667" ry="4.1667" style="stroke:#9933CC;stroke-width:2.0833;" width="210.4167" x="716.1458" y="27.6042"/><path d="M807.3832,27.6042 L807.3832,45.2799 L796.9666,55.6966 L716.1458,55.6966 " fill="none" style="stroke:#9933CC;stroke-width:2.0833;"/><text fill="#9933CC" font-family="Verdana" font-size="12.5" font-weight="bold" lengthAdjust="spacing" textLength="70.4041" x="724.4792" y="45.4569">foo_frame</text></g><!--class AbstractList--><g id="elem_AbstractList"><rect codeLine="7" fill="none" height="34.1715" id="AbstractList" rx="4.1667" ry="4.1667" style="stroke:#55B2DE;stroke-width:1.0417;" width="109.7956" x="279.1667" y="374.4792"/><rect fill="#227FAB" height="34.1715" rx="4.1667" ry="4.1667" style="stroke:#227FAB;stroke-width:1.0417;" width="109.7956" x="279.1667" y="374.4792"/><rect fill="#227FAB" height="4.1667" style="stroke:#227FAB;stroke-width:1.0417;" width="109.7956" x="279.1667" y="404.484"/><rect codeLine="7" fill="none" height="34.1715" id="AbstractList" rx="4.1667" ry="4.1667" style="stroke:#55B2DE;stroke-width:1.0417;" width="109.7956" x="279.1667" y="374.4792"/><ellipse cx="293.75" cy="391.5649" fill="none" rx="10.4167" ry="10.4167" style="stroke:#55B2DE;stroke-width:1.0417;"/><path d="M293.3431,388.5213 L292.4967,392.2485 L294.2057,392.2485 L293.3431,388.5213 Z M292.2526,386.8774 L294.4499,386.8774 L296.9076,395.992 L295.1009,395.992 L294.5475,393.7459 L292.1387,393.7459 L291.5853,395.992 L289.7786,395.992 L292.2526,386.8774 Z " fill="#2A9FD6"/><text fill="#ADAFAE" font-family="Verdana" font-size="11.4583" font-style="italic" lengthAdjust="spacing" textLength="68.129" x="312.5" y="395.5317">AbstractList</text></g><!--class AbstractCollection--><g id="elem_AbstractCollection"><rect codeLine="8" fill="none" height="34.1715" id="AbstractCollection" rx="4.1667" ry="4.1667" style="stroke:#55B2DE;stroke-width:1.0417;" width="146.4422" x="16.6667" y="374.4792"/><rect fill="#227FAB" height="34.1715" rx="4.1667" ry="4.1667" style="stroke:#227FAB;stroke-width:1.0417;" width="146.4422" x="16.6667" y="374.4792"/><rect fill="#227FAB" height="4.1667" style="stroke:#227FAB;stroke-width:1.0417;" width="146.4422" x="16.6667" y="404.484"/><rect codeLine="8" fill="none" height="34.1715" id="AbstractCollection" rx="4.1667" ry="4.1667" style="stroke:#55B2DE;stroke-width:1.0417;" width="146.4422" x="16.6667" y="374.4792"/><ellipse cx="31.25" cy="391.5649" fill="none" rx="10.4167" ry="10.4167" style="stroke:#55B2DE;stroke-width:1.0417;"/><path d="M30.8431,388.5213 L29.9967,392.2485 L31.7057,392.2485 L30.8431,388.5213 Z M29.7526,386.8774 L31.9499,386.8774 L34.4076,395.992 L32.6009,395.992 L32.0475,393.7459 L29.6387,393.7459 L29.0853,395.992 L27.2786,395.992 L29.7526,386.8774 Z " fill="#2A9FD6"/><text fill="#ADAFAE" font-family="Verdana" font-size="11.4583" font-style="italic" lengthAdjust="spacing" textLength="104.7755" x="50" y="395.5317">AbstractCollection</text></g><!--class List--><g id="elem_List"><rect codeLine="9" fill="none" height="34.1715" id="List" rx="4.1667" ry="4.1667" style="stroke:#55B2DE;stroke-width:1.0417;" width="61.6964" x="262.5" y="79.1667"/><rect fill="#227FAB" height="34.1715" rx="4.1667" ry="4.1667" style="stroke:#227FAB;stroke-width:1.0417;" width="61.6964" x="262.5" y="79.1667"/><rect fill="#227FAB" height="4.1667" style="stroke:#227FAB;stroke-width:1.0417;" width="61.6964" x="262.5" y="109.1715"/><rect codeLine="9" fill="none" height="34.1715" id="List" rx="4.1667" ry="4.1667" style="stroke:#55B2DE;stroke-width:1.0417;" width="61.6964" x="262.5" y="79.1667"/><ellipse cx="277.0833" cy="96.2524" fill="none" rx="10.4167" ry="10.4167" style="stroke:#55B2DE;stroke-width:1.0417;"/><path d="M273.9746,93.4204 L273.9746,91.8254 L279.3945,91.8254 L279.3945,93.4204 L277.5879,93.4204 L277.5879,99.3449 L279.3945,99.3449 L279.3945,100.9399 L273.9746,100.9399 L273.9746,99.3449 L275.7813,99.3449 L275.7813,93.4204 L273.9746,93.4204 Z " fill="#2A9FD6"/><text fill="#ADAFAE" font-family="Verdana" font-size="11.4583" font-style="italic" lengthAdjust="spacing" textLength="20.0297" x="295.8333" y="100.2192">List</text></g><!--class Collection--><g id="elem_Collection"><rect codeLine="10" fill="none" height="34.1715" id="Collection" rx="4.1667" ry="4.1667" style="stroke:#55B2DE;stroke-width:1.0417;" width="98.3429" x="61.9792" y="79.1667"/><rect fill="#227FAB" height="34.1715" rx="4.1667" ry="4.1667" style="stroke:#227FAB;stroke-width:1.0417;" width="98.3429" x="61.9792" y="79.1667"/><rect fill="#227FAB" height="4.1667" style="stroke:#227FAB;stroke-width:1.0417;" width="98.3429" x="61.9792" y="109.1715"/><rect codeLine="10" fill="none" height="34.1715" id="Collection" rx="4.1667" ry="4.1667" style="stroke:#55B2DE;stroke-width:1.0417;" width="98.3429" x="61.9792" y="79.1667"/><ellipse cx="76.5625" cy="96.2524" fill="none" rx="10.4167" ry="10.4167" style="stroke:#55B2DE;stroke-width:1.0417;"/><path d="M73.4538,93.4204 L73.4538,91.8254 L78.8737,91.8254 L78.8737,93.4204 L77.0671,93.4204 L77.0671,99.3449 L78.8737,99.3449 L78.8737,100.9399 L73.4538,100.9399 L73.4538,99.3449 L75.2604,99.3449 L75.2604,93.4204 L73.4538,93.4204 Z " fill="#2A9FD6"/><text fill="#ADAFAE" font-family="Verdana" font-size="11.4583" font-style="italic" lengthAdjust="spacing" textLength="56.6762" x="95.3125" y="100.2192">Collection</text></g><!--class ArrayList--><g id="elem_ArrayList"><rect codeLine="20" fill="none" height="98.348" id="ArrayList" rx="4.1667" ry="4.1667" style="stroke:#55B2DE;stroke-width:1.0417;" width="147.4253" x="209.8958" y="671.875"/><rect fill="#227FAB" height="34.1715" rx="4.1667" ry="4.1667" style="stroke:#227FAB;stroke-width:1.0417;" width="147.4253" x="209.8958" y="671.875"/><rect fill="#227FAB" height="4.1667" style="stroke:#227FAB;stroke-width:1.0417;" width="147.4253" x="209.8958" y="701.8799"/><rect codeLine="20" fill="none" height="98.348" id="ArrayList" rx="4.1667" ry="4.1667" style="stroke:#55B2DE;stroke-width:1.0417;" width="147.4253" x="209.8958" y="671.875"/><ellipse cx="249.0789" cy="688.9608" fill="none" rx="10.4167" ry="10.4167" style="stroke:#55B2DE;stroke-width:1.0417;"/><path d="M250.9832,693.3879 Q250.56,693.5994 250.088,693.7134 Q249.616,693.8273 249.1115,693.8273 Q247.256,693.8273 246.2794,692.6229 Q245.3192,691.4022 245.3192,689.1073 Q245.3192,686.7961 246.2794,685.5916 Q247.256,684.3709 249.1115,684.3709 Q249.616,684.3709 250.088,684.4849 Q250.5763,684.5825 250.9832,684.8104 L250.9832,686.8123 Q250.5275,686.3892 250.088,686.1938 Q249.6486,685.9823 249.1929,685.9823 Q248.2,685.9823 247.6955,686.7798 Q247.1909,687.561 247.1909,689.1073 Q247.1909,690.6372 247.6955,691.4185 Q248.2,692.1997 249.1929,692.1997 Q249.6486,692.1997 250.088,692.0044 Q250.5275,691.8091 250.9832,691.3859 L250.9832,693.3879 Z " fill="#2A9FD6"/><text fill="#ADAFAE" font-family="Verdana" font-size="11.4583" lengthAdjust="spacing" textLength="51.0925" x="273.2955" y="692.9276">ArrayList</text><line style="stroke:#55B2DE;stroke-width:1.0417;" x1="210.9375" x2="356.2795" y1="706.0465" y2="706.0465"/><text fill="#ADAFAE" font-family="Verdana" font-size="11.4583" lengthAdjust="spacing" textLength="124.5087" x="221.3542" y="726.0574">Object[] elementData</text><line style="stroke:#55B2DE;stroke-width:1.0417;" x1="210.9375" x2="356.2795" y1="738.1348" y2="738.1348"/><text fill="#ADAFAE" font-family="Verdana" font-size="11.4583" lengthAdjust="spacing" textLength="31.1579" x="221.3542" y="758.1457">size()</text></g><!--class TimeUnit--><g id="elem_TimeUnit"><rect codeLine="25" fill="none" height="113.7695" id="TimeUnit" rx="4.1667" ry="4.1667" style="stroke:#55B2DE;stroke-width:1.0417;" width="93.3858" x="422.3958" y="39.5833"/><rect fill="#227FAB" height="34.1715" rx="4.1667" ry="4.1667" style="stroke:#227FAB;stroke-width:1.0417;" width="93.3858" x="422.3958" y="39.5833"/><rect fill="#227FAB" height="4.1667" style="stroke:#227FAB;stroke-width:1.0417;" width="93.3858" x="422.3958" y="69.5882"/><rect codeLine="25" fill="none" height="113.7695" id="TimeUnit" rx="4.1667" ry="4.1667" style="stroke:#55B2DE;stroke-width:1.0417;" width="93.3858" x="422.3958" y="39.5833"/><ellipse cx="436.9792" cy="56.6691" fill="none" rx="10.4167" ry="10.4167" style="stroke:#55B2DE;stroke-width:1.0417;"/><path d="M439.5182,61.3566 L433.8379,61.3566 L433.8379,52.242 L439.5182,52.242 L439.5182,53.8371 L435.6445,53.8371 L435.6445,55.7902 L439.1439,55.7902 L439.1439,57.3853 L435.6445,57.3853 L435.6445,59.7616 L439.5182,59.7616 L439.5182,61.3566 Z " fill="#2A9FD6"/><text fill="#ADAFAE" font-family="Verdana" font-size="11.4583" lengthAdjust="spacing" textLength="51.7192" x="455.7292" y="60.6359">TimeUnit</text><line style="stroke:#55B2DE;stroke-width:1.0417;" x1="423.4375" x2="514.74" y1="73.7549" y2="73.7549"/><text fill="#ADAFAE" font-family="Verdana" font-size="11.4583" lengthAdjust="spacing" textLength="30.9341" x="433.8542" y="93.7658">DAYS</text><text fill="#ADAFAE" font-family="Verdana" font-size="11.4583" lengthAdjust="spacing" textLength="41.2567" x="433.8542" y="117.5207">HOURS</text><text fill="#ADAFAE" font-family="Verdana" font-size="11.4583" lengthAdjust="spacing" textLength="51.7359" x="433.8542" y="141.2755">MINUTES</text></g><!--class SuppressWarnings--><g id="elem_SuppressWarnings"><rect codeLine="31" fill="none" height="34.1715" id="SuppressWarnings" rx="4.1667" ry="4.1667" style="stroke:#55B2DE;stroke-width:1.0417;" width="148.4619" x="377.0833" y="703.6458"/><rect fill="#227FAB" height="34.1715" rx="4.1667" ry="4.1667" style="stroke:#227FAB;stroke-width:1.0417;" width="148.4619" x="377.0833" y="703.6458"/><rect fill="#227FAB" height="4.1667" style="stroke:#227FAB;stroke-width:1.0417;" width="148.4619" x="377.0833" y="733.6507"/><rect codeLine="31" fill="none" height="34.1715" id="SuppressWarnings" rx="4.1667" ry="4.1667" style="stroke:#55B2DE;stroke-width:1.0417;" width="148.4619" x="377.0833" y="703.6458"/><ellipse cx="391.6667" cy="720.7316" fill="none" rx="10.4167" ry="10.4167" style="stroke:#55B2DE;stroke-width:1.0417;"/><path d="M392.9199,720.5363 Q392.9199,719.8364 392.6107,719.4458 Q392.3014,719.0552 391.748,719.0552 Q391.2109,719.0552 390.9017,719.4458 Q390.5924,719.8364 390.5924,720.5363 Q390.5924,721.2199 390.9017,721.6105 Q391.2109,722.0011 391.748,722.0011 Q392.3014,722.0011 392.6107,721.6105 Q392.9199,721.2199 392.9199,720.5363 Z M394.0592,723.0265 L392.8548,723.0265 L392.8548,722.5382 Q392.627,722.8475 392.3014,723.0103 Q391.9922,723.1567 391.5527,723.1567 Q390.5599,723.1567 389.9414,722.4406 Q389.3229,721.7082 389.3229,720.5363 Q389.3229,719.3481 389.9251,718.632 Q390.5436,717.9159 391.5527,717.9159 Q391.9922,717.9159 392.3177,718.0623 Q392.6432,718.2088 392.8548,718.5018 L392.8548,718.2576 Q392.8548,717.4276 392.3991,716.9718 Q391.9434,716.5161 391.1133,716.5161 Q389.8438,716.5161 389.0299,717.6392 Q388.2324,718.7459 388.2324,720.5363 Q388.2324,722.408 389.1602,723.5311 Q390.0879,724.6379 391.6341,724.6379 Q392.1224,724.6379 392.5781,724.4914 Q393.0339,724.3449 393.457,724.0519 L394.0104,725.1261 Q393.5221,725.4679 392.9362,725.6307 Q392.3503,725.8097 391.6992,725.8097 Q389.5508,725.8097 388.2813,724.3774 Q387.0117,722.9614 387.0117,720.5363 Q387.0117,718.1763 388.151,716.7603 Q389.3066,715.3442 391.1784,715.3442 Q392.513,715.3442 393.278,716.1418 Q394.0592,716.9393 394.0592,718.339 L394.0592,723.0265 Z " fill="#2A9FD6"/><text fill="#ADAFAE" font-family="Verdana" font-size="11.4583" lengthAdjust="spacing" textLength="106.7952" x="410.4167" y="724.6984">SuppressWarnings</text></g><!--class Annotation--><g id="elem_Annotation"><rect codeLine="33" fill="none" height="147.0703" id="Annotation" rx="4.1667" ry="4.1667" style="stroke:#55B2DE;stroke-width:1.0417;" width="170.9071" x="534.8958" y="22.9167"/><rect fill="#227FAB" height="59.139" rx="4.1667" ry="4.1667" style="stroke:#227FAB;stroke-width:1.0417;" width="170.9071" x="534.8958" y="22.9167"/><rect fill="#227FAB" height="4.1667" style="stroke:#227FAB;stroke-width:1.0417;" width="170.9071" x="534.8958" y="77.889"/><rect codeLine="33" fill="none" height="147.0703" id="Annotation" rx="4.1667" ry="4.1667" style="stroke:#55B2DE;stroke-width:1.0417;" width="170.9071" x="534.8958" y="22.9167"/><ellipse cx="572.2522" cy="52.4862" fill="none" rx="10.4167" ry="10.4167" style="stroke:#55B2DE;stroke-width:1.0417;"/><path d="M573.5055,52.2909 Q573.5055,51.591 573.1962,51.2004 Q572.887,50.8097 572.3336,50.8097 Q571.7965,50.8097 571.4872,51.2004 Q571.178,51.591 571.178,52.2909 Q571.178,52.9744 571.4872,53.3651 Q571.7965,53.7557 572.3336,53.7557 Q572.887,53.7557 573.1962,53.3651 Q573.5055,52.9744 573.5055,52.2909 Z M574.6448,54.7811 L573.4404,54.7811 L573.4404,54.2928 Q573.2125,54.6021 572.887,54.7648 Q572.5777,54.9113 572.1383,54.9113 Q571.1455,54.9113 570.527,54.1951 Q569.9085,53.4627 569.9085,52.2909 Q569.9085,51.1027 570.5107,50.3866 Q571.1292,49.6704 572.1383,49.6704 Q572.5777,49.6704 572.9033,49.8169 Q573.2288,49.9634 573.4404,50.2563 L573.4404,50.0122 Q573.4404,49.1821 572.9846,48.7264 Q572.5289,48.2707 571.6988,48.2707 Q570.4293,48.2707 569.6155,49.3937 Q568.818,50.5005 568.818,52.2909 Q568.818,54.1626 569.7457,55.2856 Q570.6734,56.3924 572.2197,56.3924 Q572.708,56.3924 573.1637,56.2459 Q573.6194,56.0994 574.0426,55.8065 L574.596,56.8807 Q574.1077,57.2225 573.5218,57.3853 Q572.9358,57.5643 572.2848,57.5643 Q570.1363,57.5643 568.8668,56.132 Q567.5973,54.716 567.5973,52.2909 Q567.5973,49.9308 568.7366,48.5148 Q569.8922,47.0988 571.7639,47.0988 Q573.0986,47.0988 573.8636,47.8963 Q574.6448,48.6938 574.6448,50.0936 L574.6448,54.7811 Z " fill="#2A9FD6"/><text fill="#ADAFAE" font-family="Verdana" font-size="12.5" font-style="italic" lengthAdjust="spacing" textLength="82.8003" x="593.9796" y="44.9361">&#171;stereotype&#187;</text><text fill="#ADAFAE" font-family="Verdana" font-size="11.4583" lengthAdjust="spacing" textLength="62.8362" x="603.9616" y="68.9367">Annotation</text><line style="stroke:#55B2DE;stroke-width:1.0417;" x1="535.9375" x2="704.7613" y1="82.0557" y2="82.0557"/><text fill="#ADAFAE" font-family="Verdana" font-size="11.4583" lengthAdjust="spacing" textLength="147.9904" x="546.3542" y="102.0665">annotation with members</text><line style="stroke:#55B2DE;stroke-width:1.0417;" x1="535.9375" x2="704.7613" y1="114.1439" y2="114.1439"/><text fill="#ADAFAE" font-family="Verdana" font-size="11.4583" lengthAdjust="spacing" textLength="64.8336" x="546.3542" y="134.1548">String foo()</text><text fill="#ADAFAE" font-family="Verdana" font-size="11.4583" lengthAdjust="spacing" textLength="65.7847" x="546.3542" y="157.9096">String bar()</text></g><!--class Dummy--><g id="elem_Dummy"><rect codeLine="39" fill="none" height="193.3675" id="Dummy" rx="4.1667" ry="4.1667" style="stroke:#55B2DE;stroke-width:1.0417;" width="123.5092" x="407.2917" y="294.7917"/><rect fill="#227FAB" height="34.1715" rx="4.1667" ry="4.1667" style="stroke:#227FAB;stroke-width:1.0417;" width="123.5092" x="407.2917" y="294.7917"/><rect fill="#227FAB" height="4.1667" style="stroke:#227FAB;stroke-width:1.0417;" width="123.5092" x="407.2917" y="324.7965"/><rect codeLine="39" fill="none" height="193.3675" id="Dummy" rx="4.1667" ry="4.1667" style="stroke:#55B2DE;stroke-width:1.0417;" width="123.5092" x="407.2917" y="294.7917"/><ellipse cx="438.3687" cy="311.8774" fill="none" rx="10.4167" ry="10.4167" style="stroke:#55B2DE;stroke-width:1.0417;"/><path d="M440.273,316.3045 Q439.8498,316.5161 439.3778,316.63 Q438.9058,316.744 438.4012,316.744 Q436.5458,316.744 435.5692,315.5396 Q434.6089,314.3188 434.6089,312.0239 Q434.6089,309.7127 435.5692,308.5083 Q436.5458,307.2876 438.4012,307.2876 Q438.9058,307.2876 439.3778,307.4015 Q439.8661,307.4992 440.273,307.7271 L440.273,309.729 Q439.8173,309.3058 439.3778,309.1105 Q438.9383,308.8989 438.4826,308.8989 Q437.4898,308.8989 436.9852,309.6965 Q436.4807,310.4777 436.4807,312.0239 Q436.4807,313.5539 436.9852,314.3351 Q437.4898,315.1164 438.4826,315.1164 Q438.9383,315.1164 439.3778,314.9211 Q439.8173,314.7257 440.273,314.3026 L440.273,316.3045 Z " fill="#2A9FD6"/><text fill="#ADAFAE" font-family="Verdana" font-size="11.4583" lengthAdjust="spacing" textLength="45.1899" x="460.7839" y="315.8442">Dummy</text><line style="stroke:#55B2DE;stroke-width:1.0417;" x1="408.3333" x2="529.7592" y1="328.9632" y2="328.9632"/><rect fill="none" height="6.25" style="stroke:#55B2DE;stroke-width:1.0417;" width="6.25" x="415.625" y="343.4448"/><text fill="#ADAFAE" font-family="Verdana" font-size="11.4583" lengthAdjust="spacing" textLength="32.014" x="432.2917" y="348.9741">field1</text><polygon fill="none" points="418.75,365.1164,422.9167,369.283,418.75,373.4497,414.5833,369.283" style="stroke:#55B2DE;stroke-width:1.0417;"/><text fill="#ADAFAE" font-family="Verdana" font-size="11.4583" lengthAdjust="spacing" textLength="32.014" x="432.2917" y="372.729">field2</text><text fill="#ADAFAE" font-family="Verdana" font-size="11.4583" lengthAdjust="spacing" text-decoration="underline" textLength="48.2951" x="432.2917" y="396.4839">String id</text><line style="stroke:#55B2DE;stroke-width:1.0417;" x1="408.3333" x2="529.7592" y1="408.5612" y2="408.5612"/><polygon fill="none" points="418.75,422.0011,414.5833,428.2511,422.9167,428.2511" style="stroke:#2A9FD6;stroke-width:1.0417;"/><text fill="#ADAFAE" font-family="Verdana" font-size="11.4583" lengthAdjust="spacing" textLength="60.4808" x="432.2917" y="428.5721">method1()</text><ellipse cx="418.75" cy="449.9227" fill="none" rx="3.125" ry="3.125" style="stroke:#55B2DE;stroke-width:1.0417;"/><text fill="#ADAFAE" font-family="Verdana" font-size="11.4583" lengthAdjust="spacing" textLength="60.4808" x="432.2917" y="452.327">method2()</text><text fill="#ADAFAE" font-family="Verdana" font-size="11.4583" font-style="italic" lengthAdjust="spacing" textLength="87.0509" x="432.2917" y="476.0818">void methods()</text></g><g id="elem_N1"><path d="M20.3125,707.2917 L20.3125,734.3424 A4.1667,4.1667 0 0 0 24.4792,738.5091 L183.0933,738.5091 A4.1667,4.1667 0 0 0 187.2599,734.3424 L187.2599,713.5417 L176.8433,703.125 L24.4792,703.125 A4.1667,4.1667 0 0 0 20.3125,707.2917 " fill="none" style="stroke:#AD5CD6;stroke-width:1.0417;"/><path d="M176.8433,703.125 L176.8433,711.4583 A2.0833,2.0833 0 0 0 178.9266,713.5417 L187.2599,713.5417 L176.8433,703.125 " fill="none" style="stroke:#AD5CD6;stroke-width:1.0417;"/><text fill="#AD5CD6" font-family="Verdana" font-size="12.5" lengthAdjust="spacing" textLength="134.6558" x="31.7708" y="725.1444">This is a floating note</text></g><!--class Element--><g id="elem_Element"><rect fill="none" height="34.1715" id="Element" rx="4.1667" ry="4.1667" style="stroke:#55B2DE;stroke-width:1.0417;" width="89.1057" x="776.5625" y="374.4792"/><rect fill="#227FAB" height="34.1715" rx="4.1667" ry="4.1667" style="stroke:#227FAB;stroke-width:1.0417;" width="89.1057" x="776.5625" y="374.4792"/><rect fill="#227FAB" height="4.1667" style="stroke:#227FAB;stroke-width:1.0417;" width="89.1057" x="776.5625" y="404.484"/><rect fill="none" height="34.1715" id="Element" rx="4.1667" ry="4.1667" style="stroke:#55B2DE;stroke-width:1.0417;" width="89.1057" x="776.5625" y="374.4792"/><ellipse cx="791.1458" cy="391.5649" fill="none" rx="10.4167" ry="10.4167" style="stroke:#55B2DE;stroke-width:1.0417;"/><path d="M793.0501,395.992 Q792.627,396.2036 792.1549,396.3175 Q791.6829,396.4315 791.1784,396.4315 Q789.3229,396.4315 788.3464,395.2271 Q787.3861,394.0063 787.3861,391.7114 Q787.3861,389.4002 788.3464,388.1958 Q789.3229,386.9751 791.1784,386.9751 Q791.6829,386.9751 792.1549,387.089 Q792.6432,387.1867 793.0501,387.4146 L793.0501,389.4165 Q792.5944,388.9933 792.1549,388.798 Q791.7155,388.5864 791.2598,388.5864 Q790.2669,388.5864 789.7624,389.384 Q789.2578,390.1652 789.2578,391.7114 Q789.2578,393.2414 789.7624,394.0226 Q790.2669,394.8039 791.2598,394.8039 Q791.7155,394.8039 792.1549,394.6086 Q792.5944,394.4132 793.0501,393.9901 L793.0501,395.992 Z " fill="#2A9FD6"/><text fill="#ADAFAE" font-family="Verdana" font-size="11.4583" lengthAdjust="spacing" textLength="47.4391" x="809.8958" y="395.5317">Element</text></g><g id="elem_Elementlol26"><ellipse cx="818.2292" cy="713.5417" fill="none" rx="5.2083" ry="5.2083" style="stroke:#55B2DE;stroke-width:1.5625;"/></g><text fill="#2A9FD6" font-family="Verdana" font-size="12.5" lengthAdjust="spacing" textLength="55.7495" x="790.3544" y="735.5611">interface</text><g id="elem_GMN31"><path d="M885.4167,378.125 L885.4167,387.5 L866.5812,391.6667 L885.4167,395.8333 L885.4167,405.1758 A4.1667,4.1667 0 0 0 889.5833,409.3424 L996.8119,409.3424 A4.1667,4.1667 0 0 0 1000.9786,405.1758 L1000.9786,384.375 L990.5619,373.9583 L889.5833,373.9583 A4.1667,4.1667 0 0 0 885.4167,378.125 " fill="none" style="stroke:#AD5CD6;stroke-width:1.0417;"/><path d="M990.5619,373.9583 L990.5619,382.2917 A2.0833,2.0833 0 0 0 992.6453,384.375 L1000.9786,384.375 L990.5619,373.9583 " fill="none" style="stroke:#AD5CD6;stroke-width:1.0417;"/><text fill="#AD5CD6" font-family="Verdana" font-size="12.5" lengthAdjust="spacing" textLength="83.2703" x="896.875" y="395.9778">This is a note</text></g><!--class User--><g id="elem_User"><rect codeLine="69" fill="none" height="312.4837" id="User" rx="4.1667" ry="4.1667" style="stroke:#55B2DE;stroke-width:1.0417;" width="115.3554" x="550" y="235.4167"/><rect fill="#227FAB" height="73.6898" rx="4.1667" ry="4.1667" style="stroke:#227FAB;stroke-width:1.0417;" width="115.3554" x="550" y="235.4167"/><rect fill="#227FAB" height="4.1667" style="stroke:#227FAB;stroke-width:1.0417;" width="115.3554" x="550" y="304.9398"/><rect codeLine="69" fill="none" height="312.4837" id="User" rx="4.1667" ry="4.1667" style="stroke:#55B2DE;stroke-width:1.0417;" width="115.3554" x="550" y="235.4167"/><ellipse cx="575.1105" cy="272.2616" fill="none" rx="10.4167" ry="10.4167" style="stroke:#55B2DE;stroke-width:1.0417;"/><path d="M577.0148,276.6886 Q576.5916,276.9002 576.1196,277.0142 Q575.6476,277.1281 575.1431,277.1281 Q573.2876,277.1281 572.311,275.9237 Q571.3508,274.703 571.3508,272.408 Q571.3508,270.0968 572.311,268.8924 Q573.2876,267.6717 575.1431,267.6717 Q575.6476,267.6717 576.1196,267.7856 Q576.6079,267.8833 577.0148,268.1112 L577.0148,270.1131 Q576.5591,269.6899 576.1196,269.4946 Q575.6802,269.283 575.2245,269.283 Q574.2316,269.283 573.7271,270.0806 Q573.2225,270.8618 573.2225,272.408 Q573.2225,273.938 573.7271,274.7192 Q574.2316,275.5005 575.2245,275.5005 Q575.6802,275.5005 576.1196,275.3052 Q576.5591,275.1099 577.0148,274.6867 L577.0148,276.6886 Z " fill="#2A9FD6"/><text fill="#ADAFAE" font-family="Verdana" font-size="12.5" font-style="italic" lengthAdjust="spacing" textLength="42.5598" x="600.0675" y="257.4361">&#171;user&#187;</text><text fill="#ADAFAE" font-family="Verdana" font-size="12.5" font-style="italic" lengthAdjust="spacing" textLength="54.4617" x="594.1166" y="271.9869">&#171;admin&#187;</text><text fill="#ADAFAE" font-family="Verdana" font-size="11.4583" lengthAdjust="spacing" textLength="26.1169" x="608.2889" y="295.9874">User</text><line style="stroke:#55B2DE;stroke-width:1.0417;" x1="551.0417" x2="664.3138" y1="309.1064" y2="309.1064"/><ellipse cx="561.4583" cy="354.6346" fill="none" rx="3.125" ry="3.125" style="stroke:#55B2DE;stroke-width:1.0417;"/><text fill="#ADAFAE" font-family="Verdana" font-size="11.4583" lengthAdjust="spacing" textLength="61.5606" x="575" y="357.0389">getName()</text><ellipse cx="561.4583" cy="378.3895" fill="none" rx="3.125" ry="3.125" style="stroke:#55B2DE;stroke-width:1.0417;"/><text fill="#ADAFAE" font-family="Verdana" font-size="11.4583" lengthAdjust="spacing" textLength="73.8413" x="575" y="380.7938">getAddress()</text><line style="stroke:#55B2DE;stroke-width:1.0417;stroke-dasharray:1.0,2.0;" x1="551.0417" x2="562.7485" y1="329.3172" y2="329.3172"/><text fill="#ADAFAE" font-family="Verdana" font-size="11.4583" lengthAdjust="spacing" textLength="79.4418" x="567.9568" y="332.7632">Simple Getter</text><line style="stroke:#55B2DE;stroke-width:1.0417;stroke-dasharray:1.0,2.0;" x1="652.607" x2="664.3138" y1="329.3172" y2="329.3172"/><ellipse cx="561.4583" cy="430.0659" fill="none" rx="3.125" ry="3.125" style="stroke:#55B2DE;stroke-width:1.0417;"/><text fill="#ADAFAE" font-family="Verdana" font-size="11.4583" lengthAdjust="spacing" textLength="60.257" x="575" y="432.4702">setName()</text><line style="stroke:#55B2DE;stroke-width:1.0417;stroke-dasharray:1.0,2.0;" x1="551.0417" x2="567.5181" y1="404.7485" y2="404.7485"/><text fill="#ADAFAE" font-family="Verdana" font-size="11.4583" lengthAdjust="spacing" textLength="69.9025" x="572.7264" y="408.1945">Some setter</text><line style="stroke:#55B2DE;stroke-width:1.0417;stroke-dasharray:1.0,2.0;" x1="647.8373" x2="664.3138" y1="404.7485" y2="404.7485"/><text fill="#ADAFAE" font-family="Verdana" font-size="11.4583" lengthAdjust="spacing" textLength="39.9251" x="561.4583" y="484.1466">int age</text><line style="stroke:#55B2DE;stroke-width:1.0417;" x1="551.0417" x2="567.4873" y1="456.425" y2="456.425"/><text fill="#ADAFAE" font-family="Verdana" font-size="11.4583" lengthAdjust="spacing" textLength="69.9641" x="572.6957" y="459.8709">private data</text><line style="stroke:#55B2DE;stroke-width:1.0417;" x1="647.8681" x2="664.3138" y1="456.425" y2="456.425"/><text fill="#ADAFAE" font-family="Verdana" font-size="11.4583" lengthAdjust="spacing" textLength="92.4388" x="561.4583" y="535.8231">String password</text><line style="stroke:#55B2DE;stroke-width:1.0417;" x1="551.0417" x2="573.3732" y1="508.1014" y2="508.1014"/><text fill="#ADAFAE" font-family="Verdana" font-size="11.4583" lengthAdjust="spacing" textLength="58.1924" x="578.5815" y="511.5473">encrypted</text><line style="stroke:#55B2DE;stroke-width:1.0417;" x1="641.9823" x2="664.3138" y1="508.1014" y2="508.1014"/></g><!--class Foo--><g id="elem_Foo"><rect codeLine="54" fill="none" height="66.2598" id="Foo" rx="4.1667" ry="4.1667" style="stroke:#55B2DE;stroke-width:1.0417;" width="193.2434" x="724.4792" y="63.0208"/><rect fill="#227FAB" height="34.1715" rx="4.1667" ry="4.1667" style="stroke:#227FAB;stroke-width:1.0417;" width="193.2434" x="724.4792" y="63.0208"/><rect fill="#227FAB" height="4.1667" style="stroke:#227FAB;stroke-width:1.0417;" width="193.2434" x="724.4792" y="93.0257"/><rect codeLine="54" fill="none" height="66.2598" id="Foo" rx="4.1667" ry="4.1667" style="stroke:#55B2DE;stroke-width:1.0417;" width="193.2434" x="724.4792" y="63.0208"/><ellipse cx="739.0625" cy="80.1066" fill="none" rx="10.4167" ry="10.4167" style="stroke:#55B2DE;stroke-width:1.0417;"/><path d="M740.9668,84.5337 Q740.5436,84.7453 740.0716,84.8592 Q739.5996,84.9731 739.0951,84.9731 Q737.2396,84.9731 736.263,83.7687 Q735.3027,82.548 735.3027,80.2531 Q735.3027,77.9419 736.263,76.7375 Q737.2396,75.5168 739.0951,75.5168 Q739.5996,75.5168 740.0716,75.6307 Q740.5599,75.7284 740.9668,75.9562 L740.9668,77.9582 Q740.5111,77.535 740.0716,77.3397 Q739.6322,77.1281 739.1764,77.1281 Q738.1836,77.1281 737.679,77.9256 Q737.1745,78.7069 737.1745,80.2531 Q737.1745,81.783 737.679,82.5643 Q738.1836,83.3455 739.1764,83.3455 Q739.6322,83.3455 740.0716,83.1502 Q740.5111,82.9549 740.9668,82.5317 L740.9668,84.5337 Z " fill="#2A9FD6"/><text fill="#ADAFAE" font-family="Verdana" font-size="11.4583" lengthAdjust="spacing" textLength="20.6116" x="757.8125" y="84.0734">Foo</text><rect fill="none" height="27.0508" style="stroke:#55B2DE;stroke-width:1.0417;stroke-dasharray:2.0,2.0;" width="128.8818" x="791.9657" y="59.8958"/><text fill="#ADAFAE" font-family="Verdana" font-size="12.5" font-style="italic" lengthAdjust="spacing" textLength="116.3818" x="798.2157" y="77.7486">? extends Element</text><line style="stroke:#55B2DE;stroke-width:1.0417;" x1="725.5208" x2="916.6809" y1="97.1924" y2="97.1924"/><text fill="#ADAFAE" font-family="Verdana" font-size="11.4583" lengthAdjust="spacing" textLength="53.3808" x="735.9375" y="117.2033">int si ze()</text></g><polygon fill="none" points="295.4712,113.5788,291.8535,133.0091,304.2352,131.2937,295.4712,113.5788" style="stroke:#2A9FD6;stroke-width:1.0417;"/><path d="M298.0443,132.1514 C305.1304,183.2982 324.4233,322.5534 331.569,374.1306 " fill="none" style="stroke:#2A9FD6;stroke-width:3.125;"/><text fill="#FFFFFF" font-family="Verdana" font-size="12.5" lengthAdjust="spacing" textLength="72.7478" x="316.1458" y="207.4361">AList to List</text><polygon fill="none" points="109.7877,113.5788,102.2246,131.8387,114.6932,132.7246,109.7877,113.5788" style="stroke:#2A9FD6;stroke-width:1.0417;"/><path d="M108.4589,132.2816 C104.8251,183.4285 94.9405,322.5534 91.2761,374.1306 " fill="none" style="stroke:#2A9FD6;stroke-width:3.125;"/><text fill="#FFFFFF" font-family="Verdana" font-size="12.5" lengthAdjust="spacing" textLength="75.6897" x="111.9792" y="207.4361">AColl to Coll</text><text fill="#FFFFFF" font-family="Verdana" font-size="12.5" lengthAdjust="spacing" textLength="35.1563" x="50.6511" y="365.9417">many</text><text fill="#FFFFFF" font-family="Verdana" font-size="12.5" lengthAdjust="spacing" textLength="35.1563" x="69.1627" y="131.4316">many</text><polygon fill="none" points="160.2683,96.3542,179.0183,102.6042,179.0183,90.1042,160.2683,96.3542" style="stroke:#2A9FD6;stroke-width:1.0417;"/><path d="M179.0183,96.3542 C211.5999,96.3542 234.533,96.3542 262.4645,96.3542 " fill="none" style="stroke:#2A9FD6;stroke-width:3.125;"/><text fill="#FFFFFF" font-family="Verdana" font-size="12.5" lengthAdjust="spacing" textLength="65.6677" x="178.3854" y="83.9986">List to Coll</text><polygon fill="none" points="163.5678,391.6667,182.3178,397.9167,182.3178,385.4167,163.5678,391.6667" style="stroke:#2A9FD6;stroke-width:1.0417;"/><path d="M182.3178,391.6667 C219.4646,391.6667 245.0262,391.6667 279.1347,391.6667 " fill="none" style="stroke:#2A9FD6;stroke-width:3.125;"/><text fill="#FFFFFF" font-family="Verdana" font-size="12.5" lengthAdjust="spacing" textLength="82.7698" x="180.2083" y="379.3111">AList to AColl</text><polygon fill="none" points="331.3747,408.9284,322.3631,426.5187,334.7196,428.4076,331.3747,408.9284" style="stroke:#2A9FD6;stroke-width:1.0417;"/><path d="M328.5413,427.4631 C321.2702,475.0286 302.6303,596.9646 291.2027,671.7202 " fill="none" style="stroke:#2A9FD6;stroke-width:3.125;"/><text fill="#FFFFFF" font-family="Verdana" font-size="12.5" lengthAdjust="spacing" textLength="86.438" x="325.174" y="584.5194">ArList to AList</text><path d="M311.9792,603.0924 L311.9792,643.7174 A4.1667,4.1667 0 0 0 316.1458,647.8841 L420.3125,647.8841 A4.1667,4.1667 0 0 0 424.4792,643.7174 L424.4792,609.3424 L414.0625,598.9258 L316.1458,598.9258 A4.1667,4.1667 0 0 0 311.9792,603.0924 " fill="none" style="stroke:#AD5CD6;stroke-width:1.0417;"/><path d="M414.0625,598.9258 L414.0625,607.2591 A2.0833,2.0833 0 0 0 416.1458,609.3424 L424.4792,609.3424 L414.0625,598.9258 " fill="none" style="stroke:#AD5CD6;stroke-width:1.0417;"/><text fill="#AD5CD6" font-family="Verdana" font-size="12.5" lengthAdjust="spacing" textLength="80.5359" x="323.4375" y="620.9452">this is a note</text><text fill="#AD5CD6" font-family="Verdana" font-size="12.5" lengthAdjust="spacing" textLength="41.6504" x="323.4375" y="635.496">on link</text><polygon fill="#2A9FD6" points="357.8817,720.8333,367.2567,725,363.09,720.8333,367.2567,716.6667,357.8817,720.8333" style="stroke:#2A9FD6;stroke-width:1.0417;"/><ellipse cx="368.5773" cy="720.8333" fill="none" rx="8.3333" ry="8.3333" style="stroke:#2A9FD6;stroke-width:1.0417;"/><line style="stroke:#2A9FD6;stroke-width:1.0417;" x1="360.2439" x2="376.9106" y1="720.8333" y2="720.8333"/><line style="stroke:#2A9FD6;stroke-width:1.0417;" x1="368.5773" x2="368.5773" y1="712.5" y2="729.1667"/><path d="M364.1317,720.8333 C370.4746,720.8333 353.901,720.8333 360.2439,720.8333 " fill="none" style="stroke:#2A9FD6;stroke-width:3.125;"/><polygon fill="#2A9FD6" points="90.7757,408.9284,87.0004,418.4678,90.9911,414.1323,95.3266,418.1231,90.7757,408.9284" style="stroke:#2A9FD6;stroke-width:1.0417;"/><rect fill="none" height="10.4167" style="stroke:#2A9FD6;stroke-width:1.5625;" width="10.4167" x="97.7458" y="697.8755"/><path d="M91.0342,415.1731 C93.3344,470.7306 100.4081,641.5878 102.7387,697.88 " fill="none" style="stroke:#2A9FD6;stroke-width:3.125;"/><polygon fill="#2A9FD6" points="209.7481,720.8333,200.3731,716.6667,204.5398,720.8333,200.3731,725,209.7481,720.8333" style="stroke:#2A9FD6;stroke-width:1.0417;"/><path d="M187.0626,720.8333 C194.6244,720.8333 195.9363,720.8333 203.4981,720.8333 " fill="none" style="stroke:#2A9FD6;stroke-width:3.125;"/><polygon fill="#2A9FD6" points="821.3542,129.8969,817.1875,136.1469,821.3542,142.3969,825.5208,136.1469,821.3542,129.8969" style="stroke:#2A9FD6;stroke-width:1.0417;"/><path d="M821.3542,142.3969 C821.3542,205.0243 821.3542,327.8508 821.3542,374.4617 " fill="none" style="stroke:#2A9FD6;stroke-width:3.125;"/><path d="M821.3542,408.9284 C821.3542,466.2906 821.3542,658.7689 821.3542,708.1619 " fill="none" style="stroke:#2A9FD6;stroke-width:3.125;"/></g></svg>