<svg xmlns="http://www.w3.org/2000/svg" xmlns:xlink="http://www.w3.org/1999/xlink" contentStyleType="text/css" data-diagram-type="CLASS" height="302.0833px" preserveAspectRatio="none" style="width:403px;height:302px;" version="1.1" viewBox="0 0 403 302" width="403.125px" zoomAndPan="magnify"><defs/><g><rect fill="#FFFFCC" height="27.7507" rx="2.6042" ry="2.6042" style="stroke:#FFDD88;stroke-width:3.125;" width="391.9067" x="5.2083" y="5.2083"/><text fill="#000000" font-family="monospace" font-size="10.4167" lengthAdjust="spacing" textLength="370.0104" x="10.4167" y="20.8333">Please&#160;use&#160;'!option&#160;handwritten&#160;true'&#160;to&#160;enable&#160;handwritten</text><!--class Map--><g id="elem_Map"><polygon fill="#474747" points="72.3958,149.1048,72.3958,149.3238,82.7091,148.6732,93.0223,149.3062,103.3356,149.5212,113.6488,148.3617,123.9621,149.0239,134.2753,148.6606,144.5886,148.7053,154.9018,149.0338,165.215,149.1048,165.1232,148.883,165.8779,149.5265,166.3098,149.3908,166.9565,149.7736,167.6295,150.2197,168.1613,150.3252,168.1338,150.3138,168.4273,150.9235,168.6392,151.4995,168.9508,152.1167,169.2143,152.714,169.3817,153.2715,169.5851,153.2715,169.6147,161.7725,169.6176,170.2734,169.4701,178.7744,169.5427,187.2754,169.3817,195.7764,169.607,195.8697,168.9063,196.2698,169.1112,197.045,168.5544,197.5047,168.5766,198.2043,168.1613,198.7226,168.0955,198.5638,167.563,198.9447,167.0814,199.4487,166.3871,199.4392,165.8183,199.7327,165.215,199.943,165.215,200.2958,154.9018,200.3766,144.5886,199.939,134.2753,200.2422,123.9621,199.3468,113.6488,200.2393,103.3356,200.5141,93.0223,200.4061,82.7091,200.5816,72.3958,199.943,72.3316,199.7881,71.7199,199.4897,71.1348,199.2555,70.6202,199.1919,70.0127,198.9037,69.4496,198.7226,69.6681,198.8132,69.1494,198.1102,68.8514,197.4986,68.7905,196.9852,68.2593,196.277,68.2292,195.7764,68.0489,195.7764,68.4545,187.2754,68.3804,178.7744,68.4842,170.2734,68.1174,161.7725,68.2292,153.2715,68.3316,153.3139,68.6626,152.7607,68.5658,152.0302,68.9306,151.491,69.2459,150.9312,69.4496,150.3252,69.5362,150.5343,70.0383,150.0798,70.6895,149.9854,71.1437,149.4153,71.7166,149.1316,72.3958,149.1048" style="stroke:#333333;stroke-width:1.0417;"/><polygon fill="#FFFFFF" fill-opacity="0.00000" points="93.2867,168.7243,91.7598,170.8107,89.9538,173.8664,87.3709,175.9258,84.6566,177.052,82.4924,177.1497,79.7109,175.7413,77.0863,174.8212,75.0943,172.9531,74.0493,170.8144,73.4296,169.1116,72.8225,166.8873,71.8371,164.9732,72.5943,163.1044,73.2578,161.0573,75.7474,159.4382,77.499,157.3375,79.667,156.6399,82.2444,156.0391,85.5496,156.3961,87.3599,157.2498,89.4647,157.6368,92.0238,160.2588,92.916,163.0267,93.3036,164.9154,92.8645,168.0276" style="stroke:#2E2E2E;stroke-width:1.0417;"/><path d="M79.7038,163.3586 L79.7038,161.7635 L85.1237,161.7635 L85.1237,163.3586 L83.3171,163.3586 L83.3171,169.283 L85.1237,169.283 L85.1237,170.8781 L79.7038,170.8781 L79.7038,169.283 L81.5104,169.283 L81.5104,163.3586 L79.7038,163.3586 Z " fill="#FFFFFF"/><text fill="#FFFFFF" font-family="Segoe Print" font-size="11.4583" font-style="italic" lengthAdjust="spacing" textLength="24.1811" x="101.5625" y="170.1574">Map</text><polygon fill="#474747" points="139.2853,145.9798,139.2853,146.0528,145.9296,145.836,152.5739,146.0469,159.2181,146.1186,165.8624,145.7321,172.5067,145.9798,172.4797,145.9798,172.3586,151.39,172.3736,156.8001,172.483,162.2103,172.2667,167.6204,172.5067,173.0306,172.5067,173.2228,165.8624,172.8118,159.2181,172.9619,152.5739,173.1806,145.9296,173.0008,139.2853,173.0306,139.309,173.0306,139.2742,167.6204,139.3473,162.2103,139.3683,156.8001,139.4886,151.39,139.2853,145.9798" style="stroke:#333333;stroke-width:1.0417;stroke-dasharray:2.0,2.0;"/><text fill="#555555" font-family="Segoe Print" font-size="12.5" font-style="italic" lengthAdjust="spacing" textLength="20.7214" x="145.5353" y="163.8326">K,V</text><path d="M69.2708,183.2764 L69.2708,183.5683 L79.1778,182.7009 L89.0847,183.5448 L98.9916,183.8315 L108.8985,182.2855 L118.8054,183.1684 L128.7124,182.684 L138.6193,182.7437 L148.5262,183.1817 L158.4331,182.3161 L168.34,183.2764 " fill="#474747" style="stroke:#333333;stroke-width:1.0417;"/><path d="M69.2708,191.6097 L69.2708,191.9016 L79.1778,191.0343 L89.0847,191.8782 L98.9916,192.1648 L108.8985,190.6189 L118.8054,191.5018 L128.7124,191.0173 L138.6193,191.0771 L148.5262,191.515 L158.4331,190.6495 L168.34,191.6097 " fill="#474747" style="stroke:#333333;stroke-width:1.0417;"/></g><!--class HashMap--><g id="elem_HashMap"><polygon fill="#474747" points="20.8333,237.6465,20.8333,237.8654,31.1558,237.2149,41.4783,237.8478,51.8008,238.0628,62.1233,236.9034,72.4458,237.5655,82.7683,237.2022,93.0908,237.247,103.4133,237.5755,113.7357,236.9263,124.0582,238.2232,134.3807,236.9899,144.7032,237.4405,155.0257,238.0964,165.3482,237.5571,175.6707,237.7176,185.9932,237.6132,196.3157,237.8324,206.6382,237.8956,216.9607,237.6465,217.0385,237.8344,217.6391,238.1058,218.2294,238.3525,218.7623,238.4604,219.3793,238.7715,219.9069,238.8669,220.1322,238.9602,219.9197,239.3603,220.6127,240.1355,220.544,240.5952,221.0545,241.2948,221.1273,241.8132,220.9554,241.8132,221.1035,250.3141,221.3848,258.8151,221.1104,267.3161,221.1639,275.8171,221.1273,284.318,221.2359,284.363,221.0168,284.9626,220.6379,285.496,220.4872,286.124,219.9674,286.599,219.9069,287.2643,219.9447,287.3555,219.3905,287.6842,218.7875,287.8951,218.2206,288.1932,217.4857,288.0857,216.9607,288.4847,216.9607,287.8053,206.6382,287.8374,196.3157,288.4234,185.9932,288.28,175.6707,289.1945,165.3482,288.3027,155.0257,288.1274,144.7032,288.7225,134.3807,287.7901,124.0582,287.9439,113.7357,289.1607,103.4133,288.9385,93.0908,289.2498,82.7683,288.1495,72.4458,288.8172,62.1233,289.0997,51.8008,287.9926,41.4783,288.3848,31.1558,288.6159,20.8333,288.4847,20.9199,288.6938,20.2435,288.2393,19.7163,288.1449,18.992,287.5748,18.3863,287.2911,17.8871,287.2643,18.0486,287.3312,17.413,286.5798,17.5622,286.1534,17.2211,285.524,16.8248,284.8717,16.6667,284.318,16.5438,284.318,16.826,275.8171,16.5627,267.3161,16.8722,258.8151,16.4747,250.3141,16.6667,241.8132,16.8647,241.8952,17.0661,241.2882,17.2334,240.6672,17.414,240.0517,17.8761,239.5527,17.8871,238.8669,17.9686,239.0637,18.4988,238.6771,19.1012,238.4648,19.6375,238.0929,20.3393,238.1204,20.8333,237.6465" style="stroke:#333333;stroke-width:1.0417;"/><polygon fill="#FFFFFF" fill-opacity="0.00000" points="41.7242,257.266,40.1973,259.3523,38.3913,262.4081,35.8084,264.4675,33.0941,265.5936,30.9299,265.6914,28.1484,264.283,25.5238,263.3629,23.5318,261.4947,22.4868,259.3561,21.8671,257.6532,21.26,255.4289,20.2746,253.5149,21.0318,251.6461,21.6953,249.5989,24.1849,247.9799,25.9365,245.8791,28.1045,245.1815,30.6819,244.5808,33.9871,244.9377,35.7974,245.7915,37.9022,246.1785,40.4613,248.8004,41.3535,251.5684,41.7411,253.457,41.302,256.5693" style="stroke:#2E2E2E;stroke-width:1.0417;"/><path d="M33.1543,259.1593 Q32.7311,259.3709 32.2591,259.4849 Q31.7871,259.5988 31.2826,259.5988 Q29.4271,259.5988 28.4505,258.3944 Q27.4902,257.1737 27.4902,254.8787 Q27.4902,252.5675 28.4505,251.3631 Q29.4271,250.1424 31.2826,250.1424 Q31.7871,250.1424 32.2591,250.2563 Q32.7474,250.354 33.1543,250.5819 L33.1543,252.5838 Q32.6986,252.1606 32.2591,251.9653 Q31.8197,251.7537 31.3639,251.7537 Q30.3711,251.7537 29.8665,252.5513 Q29.362,253.3325 29.362,254.8787 Q29.362,256.4087 29.8665,257.1899 Q30.3711,257.9712 31.3639,257.9712 Q31.8197,257.9712 32.2591,257.7759 Q32.6986,257.5806 33.1543,257.1574 L33.1543,259.1593 Z " fill="#FFFFFF"/><text fill="#FFFFFF" font-family="Segoe Print" font-size="11.4583" lengthAdjust="spacing" textLength="53.0507" x="50" y="258.699">HashMap</text><polygon fill="#474747" points="116.5924,234.5215,116.5924,234.7404,127.3584,234.0899,138.1244,234.7228,148.8904,234.9378,159.6564,233.7784,170.4224,234.4405,181.1884,234.0772,191.9543,234.122,202.7203,234.4505,213.4863,233.8013,224.2523,234.5215,224.4446,234.5215,224.0335,239.9316,224.1837,245.3418,224.4023,250.752,224.2225,256.1621,224.2523,261.5723,224.2523,261.6433,213.4863,261.539,202.7203,261.7582,191.9543,261.8214,181.1884,262.1824,170.4224,262.2713,159.6564,262.2798,148.8904,261.8375,138.1244,262.0552,127.3584,262.3038,116.5924,261.5723,116.342,261.5723,116.828,256.1621,116.4895,250.752,116.7778,245.3418,116.4205,239.9316,116.5924,234.5215" style="stroke:#333333;stroke-width:1.0417;stroke-dasharray:2.0,2.0;"/><text fill="#555555" font-family="Segoe Print" font-size="12.5" font-style="italic" lengthAdjust="spacing" textLength="95.1599" x="122.8424" y="252.3743">Long,Customer</text><path d="M17.7083,271.818 L17.7083,272.11 L28.3598,271.2426 L39.0112,272.0865 L49.6626,272.3731 L60.3141,270.8272 L70.9655,271.7101 L81.617,271.2257 L92.2684,271.2854 L102.9198,271.7234 L113.5713,270.8578 L124.2227,272.587 L134.8741,270.9426 L145.5256,271.5434 L156.177,272.418 L166.8285,271.6989 L177.4799,271.9128 L188.1313,271.7737 L198.7828,272.066 L209.4342,272.1502 L220.0857,271.818 " fill="#474747" style="stroke:#333333;stroke-width:1.0417;"/><path d="M17.7083,280.1514 L17.7083,280.4433 L28.3598,279.5759 L39.0112,280.4198 L49.6626,280.7065 L60.3141,279.1605 L70.9655,280.0434 L81.617,279.559 L92.2684,279.6187 L102.9198,280.0567 L113.5713,279.1911 L124.2227,280.9203 L134.8741,279.276 L145.5256,279.8767 L156.177,280.7513 L166.8285,280.0322 L177.4799,280.2461 L188.1313,280.107 L198.7828,280.3993 L209.4342,280.4835 L220.0857,280.1514 " fill="#474747" style="stroke:#333333;stroke-width:1.0417;"/></g><!--class Shop--><g id="elem_Shop"><polygon fill="#474747" points="257.2917,60.5632,257.2917,60.7821,267.6504,60.1316,278.0092,60.7645,288.368,60.9795,298.7267,59.82,309.0855,60.4822,319.4443,60.5632,319.3876,60.4263,319.9826,60.6842,320.6137,61.0294,321.1202,61.0736,321.8749,61.7171,322.3906,61.7835,322.1884,61.6998,322.5712,62.3465,323.0173,63.0194,323.0953,63.5399,323.3888,64.1496,323.6109,64.7298,323.5998,64.7298,323.6729,73.2308,323.694,81.7318,323.8143,90.2327,323.8439,98.7337,323.6109,107.2347,323.8288,107.325,323.4485,107.8578,323.2715,108.4748,323.104,109.0958,322.4033,109.4959,322.3906,110.181,322.4807,110.3986,321.7619,110.3299,321.283,110.8404,320.557,110.7544,320.0244,111.1353,319.4443,111.4014,319.4443,112.1739,309.0855,111.3506,298.7267,111.5111,288.368,111.7541,278.0092,111.8349,267.6504,111.3973,257.2917,111.4014,257.3298,111.4935,256.6264,110.9737,256.1509,111.0044,255.5967,110.845,254.9937,110.5677,254.3454,110.181,254.542,110.2624,253.9463,109.5275,253.648,108.9158,253.4138,108.3306,253.3502,107.8161,253.125,107.2347,253.0568,107.2347,253.3616,98.7337,253.0643,90.2327,253.0059,81.7318,253.2043,73.2308,253.125,64.7298,252.9111,64.6412,253.2025,64.0716,253.8213,63.6375,253.997,63.0199,254.3369,62.4704,254.3454,61.7835,254.3026,61.6803,254.9771,61.6419,255.6024,61.4848,256.0504,60.8998,256.6897,60.7765,257.2917,60.5632" style="stroke:#333333;stroke-width:1.0417;"/><polygon fill="#FFFFFF" fill-opacity="0.00000" points="278.1825,80.1827,276.6556,82.269,274.8496,85.3248,272.2667,87.3841,269.5524,88.5103,267.3883,88.608,264.6067,87.1996,261.9822,86.2795,259.9901,84.4114,258.9451,82.2728,258.3254,80.5699,257.7183,78.3456,256.7329,76.4316,257.4902,74.5628,258.1536,72.5156,260.6433,70.8965,262.3949,68.7958,264.5629,68.0982,267.1403,67.4975,270.4455,67.8544,272.2558,68.7081,274.3605,69.0951,276.9197,71.7171,277.8118,74.4851,278.1994,76.3737,277.7604,79.4859" style="stroke:#2E2E2E;stroke-width:1.0417;"/><path d="M269.6126,82.076 Q269.1895,82.2876 268.7174,82.4015 Q268.2454,82.5155 267.7409,82.5155 Q265.8854,82.5155 264.9089,81.311 Q263.9486,80.0903 263.9486,77.7954 Q263.9486,75.4842 264.9089,74.2798 Q265.8854,73.0591 267.7409,73.0591 Q268.2454,73.0591 268.7174,73.173 Q269.2057,73.2707 269.6126,73.4985 L269.6126,75.5005 Q269.1569,75.0773 268.7174,74.882 Q268.278,74.6704 267.8223,74.6704 Q266.8294,74.6704 266.3249,75.4679 Q265.8203,76.2492 265.8203,77.7954 Q265.8203,79.3254 266.3249,80.1066 Q266.8294,80.8879 267.8223,80.8879 Q268.278,80.8879 268.7174,80.6925 Q269.1569,80.4972 269.6126,80.0741 L269.6126,82.076 Z " fill="#FFFFFF"/><text fill="#FFFFFF" font-family="Segoe Print" font-size="11.4583" lengthAdjust="spacing" textLength="28.8193" x="286.4583" y="81.6157">Shop</text><path d="M254.1667,94.7347 L254.1667,95.0266 L263.9385,94.1593 L273.7103,95.0032 L283.4821,95.2898 L293.2539,93.7439 L303.0257,94.6268 L312.7975,94.1423 L322.5693,94.7347 " fill="#474747" style="stroke:#333333;stroke-width:1.0417;"/><path d="M254.1667,103.068 L254.1667,103.36 L263.9385,102.4926 L273.7103,103.3365 L283.4821,103.6231 L293.2539,102.0772 L303.0257,102.9601 L312.7975,102.4757 L322.5693,103.068 " fill="#474747" style="stroke:#333333;stroke-width:1.0417;"/></g><!--class Customer--><g id="elem_Customer"><polygon fill="#474747" points="244.2708,237.6465,244.2708,237.8654,254.1588,237.2149,264.0467,237.8478,273.9346,238.0628,283.8225,236.9034,293.7104,237.5655,303.5984,237.2022,313.4863,237.247,323.3742,237.5755,333.2621,237.6465,333.1703,237.4247,333.9249,238.0682,334.3569,237.9325,335.0036,238.3153,335.6765,238.7614,336.2084,238.8669,336.1809,238.8555,336.4744,239.4652,336.6863,240.0411,336.9979,240.6584,337.2614,241.2557,337.4288,241.8132,337.6322,241.8132,337.6618,250.3141,337.6646,258.8151,337.5172,267.3161,337.5898,275.8171,337.4288,284.318,337.6541,284.4113,336.9534,284.8115,337.1583,285.5867,336.6014,286.0464,336.6237,286.746,336.2084,287.2643,336.1426,287.1055,335.61,287.4864,335.1284,287.9904,334.4342,287.9809,333.8654,288.2744,333.2621,288.4847,333.2621,288.8374,323.3742,288.9183,313.4863,288.4806,303.5984,288.7839,293.7104,287.8884,283.8225,288.7809,273.9346,289.0557,264.0467,288.9478,254.1588,289.1233,244.2708,288.4847,244.2066,288.3297,243.5949,288.0314,243.0098,287.7972,242.4952,287.7336,241.8877,287.4453,241.3246,287.2643,241.5431,287.3549,241.0244,286.6518,240.7264,286.0402,240.6655,285.5269,240.1343,284.8187,240.1042,284.318,239.9239,284.318,240.3295,275.8171,240.2554,267.3161,240.3592,258.8151,239.9924,250.3141,240.1042,241.8132,240.2066,241.8556,240.5376,241.3023,240.4408,240.5719,240.8056,240.0326,241.1209,239.4729,241.3246,238.8669,241.4112,239.076,241.9133,238.6215,242.5645,238.5271,243.0187,237.957,243.5916,237.6733,244.2708,237.6465" style="stroke:#333333;stroke-width:1.0417;"/><polygon fill="#FFFFFF" fill-opacity="0.00000" points="265.1617,257.266,263.6348,259.3523,261.8288,262.4081,259.2459,264.4675,256.5316,265.5936,254.3674,265.6914,251.5859,264.283,248.9613,263.3629,246.9693,261.4947,245.9243,259.3561,245.3046,257.6532,244.6975,255.4289,243.7121,253.5149,244.4693,251.6461,245.1328,249.5989,247.6224,247.9799,249.374,245.8791,251.542,245.1815,254.1194,244.5808,257.4246,244.9377,259.2349,245.7915,261.3397,246.1785,263.8988,248.8004,264.791,251.5684,265.1786,253.457,264.7395,256.5693" style="stroke:#2E2E2E;stroke-width:1.0417;"/><path d="M256.5918,259.1593 Q256.1686,259.3709 255.6966,259.4849 Q255.2246,259.5988 254.7201,259.5988 Q252.8646,259.5988 251.888,258.3944 Q250.9277,257.1737 250.9277,254.8787 Q250.9277,252.5675 251.888,251.3631 Q252.8646,250.1424 254.7201,250.1424 Q255.2246,250.1424 255.6966,250.2563 Q256.1849,250.354 256.5918,250.5819 L256.5918,252.5838 Q256.1361,252.1606 255.6966,251.9653 Q255.2572,251.7537 254.8014,251.7537 Q253.8086,251.7537 253.304,252.5513 Q252.7995,253.3325 252.7995,254.8787 Q252.7995,256.4087 253.304,257.1899 Q253.8086,257.9712 254.8014,257.9712 Q255.2572,257.9712 255.6966,257.7759 Q256.1361,257.5806 256.5918,257.1574 L256.5918,259.1593 Z " fill="#FFFFFF"/><text fill="#FFFFFF" font-family="Segoe Print" font-size="11.4583" lengthAdjust="spacing" textLength="55.658" x="273.4375" y="258.699">Customer</text><path d="M241.1458,271.818 L241.1458,272.11 L251.7282,271.2426 L262.3106,272.0865 L272.8929,272.3731 L283.4753,270.8272 L294.0577,271.7101 L304.64,271.2257 L315.2224,271.2854 L325.8048,271.7234 L336.3871,271.818 " fill="#474747" style="stroke:#333333;stroke-width:1.0417;"/><path d="M241.1458,280.1514 L241.1458,280.4433 L251.7282,279.5759 L262.3106,280.4198 L272.8929,280.7065 L283.4753,279.1605 L294.0577,280.0434 L304.64,279.559 L315.2224,279.6187 L325.8048,280.0567 L336.3871,280.1514 " fill="#474747" style="stroke:#333333;stroke-width:1.0417;"/></g><polygon fill="#FFFFFF" fill-opacity="0.00000" points="118.75,200.2115,118.8192,200.2346,117.3635,203.916,116.3137,207.7328,115.1317,211.5054,113.515,215.1332,112.5,218.9615,112.5,218.9346,115,218.8135,117.5,218.8284,120,218.9379,122.5,218.7215,125,218.9615,125.1824,219.0223,123.5424,215.1423,122.4349,211.4398,121.3923,207.759,119.9717,203.9521,118.75,200.2115" style="stroke:#333333;stroke-width:1.0417;"/><path d="M118.75,218.9615 L118.8473,218.9615 L118.5582,222.6732 L118.8395,226.3849 L118.935,230.0966 L118.4197,233.8084 L118.75,237.5201 " fill="#FFFFFF" fill-opacity="0.00000" style="stroke:#333333;stroke-width:3.125;stroke-dasharray:7.0,7.0;"/><polygon fill="#333333" points="288.5417,237.5493,288.6084,237.5789,289.2435,235.6158,290.2697,233.8265,291.1685,231.9806,291.6486,229.9486,292.7083,228.1743,292.6893,228.1552,291.7703,228.9029,290.9475,229.7468,290.1916,230.6575,289.2053,231.3378,288.5417,232.3409,288.6776,232.4768,287.5536,231.3528,286.8264,230.6257,286.1477,229.947,285.1873,228.9865,284.375,228.1743,284.3967,228.1839,285.1982,230.0447,286.0983,231.9494,286.9509,233.833,287.8942,235.7568,288.5417,237.5493" style="stroke:#333333;stroke-width:1.0417;"/><path d="M288.5417,111.8277 L288.8336,111.8277 L287.9662,122.6888 L288.8101,133.5498 L289.0968,144.4109 L287.5508,155.2719 L288.4337,166.133 L287.9493,176.994 L288.009,187.8551 L288.447,198.7161 L287.5814,209.5772 L289.3106,220.4382 L288.5417,231.2993 " fill="#FFFFFF" fill-opacity="0.00000" style="stroke:#333333;stroke-width:3.125;"/><text fill="#FFFFFF" font-family="Segoe Print" font-size="12.5" lengthAdjust="spacing" textLength="58.8623" x="223.9583" y="214.777">customer</text><text fill="#FFFFFF" font-family="Segoe Print" font-size="12.5" lengthAdjust="spacing" textLength="7.9529" x="249.413" y="229.3278">1</text><polygon fill="#333333" points="239.9172,263.1673,239.9469,263.234,237.9838,262.2025,236.1945,261.562,234.3486,260.7941,232.3166,259.6076,230.5422,259.0007,230.5232,258.9816,231.2709,259.7293,232.1148,260.5732,233.0255,261.4839,233.7058,262.1642,234.7089,263.1673,234.8448,263.3032,233.7208,263.8459,232.9937,264.7854,232.315,265.7734,231.3545,266.4796,230.5422,267.334,230.5519,267.3556,232.4127,266.4905,234.3174,265.724,236.201,264.9099,238.1248,264.1865,239.9172,263.1673" style="stroke:#333333;stroke-width:1.0417;"/><path d="M220.8903,263.1673 L220.8903,263.2646 L223.4457,262.9755 L226.0011,263.2568 L228.5565,263.3524 L231.1119,262.837 L233.6672,263.1673 " fill="#FFFFFF" fill-opacity="0.00000" style="stroke:#333333;stroke-width:3.125;"/><text fill="#FFFFFF" font-family="Segoe Print" font-size="12.5" lengthAdjust="spacing" textLength="34.1431" x="200.3339" y="281.0201">value</text></g></svg>