<svg xmlns="http://www.w3.org/2000/svg" xmlns:xlink="http://www.w3.org/1999/xlink" contentStyleType="text/css" height="620.8333px" preserveAspectRatio="none" style="width:466px;height:620px;" version="1.1" viewBox="0 0 466 620" width="466.6667px" zoomAndPan="magnify"><defs><linearGradient id="g16i040vxz7ade0" x1="50%" x2="50%" y1="0%" y2="100%"><stop offset="0%" stop-color="#F3F3F3"/><stop offset="100%" stop-color="#E2E2E2"/></linearGradient></defs><g><!--cluster Some Group--><g id="cluster_Some Group"><path d="M32.8125,14.5833 L130.5745,14.5833 A11.7188,11.7188 0 0 1 138.387,22.3958 L145.6787,56.2174 L446.3542,56.2174 A7.8125,7.8125 0 0 1 454.1667,64.0299 L454.1667,127.6042 A7.8125,7.8125 0 0 1 446.3542,135.4167 L32.8125,135.4167 A7.8125,7.8125 0 0 1 25,127.6042 L25,22.3958 A7.8125,7.8125 0 0 1 32.8125,14.5833 " fill="none" style="stroke:#F3F3F3;stroke-width:2.0833;"/><line style="stroke:#F3F3F3;stroke-width:2.0833;" x1="25" x2="145.6787" y1="56.2174" y2="56.2174"/><text fill="#336699" font-family="Verdana" font-size="12.5" font-weight="bold" lengthAdjust="spacing" textLength="86.3037" x="39.5833" y="38.6861">Some Group</text></g><!--cluster Other Groups--><g id="cluster_Other Groups"><polygon fill="none" points="33.3333,154.1667,43.75,143.75,272.9167,143.75,272.9167,259.375,262.5,269.7917,33.3333,269.7917,33.3333,154.1667" style="stroke:#F3F3F3;stroke-width:1.0417;"/><line style="stroke:#F3F3F3;stroke-width:1.0417;" x1="262.5" x2="272.9167" y1="154.1667" y2="143.75"/><line style="stroke:#F3F3F3;stroke-width:1.0417;" x1="33.3333" x2="262.5" y1="154.1667" y2="154.1667"/><line style="stroke:#F3F3F3;stroke-width:1.0417;" x1="262.5" x2="262.5" y1="154.1667" y2="269.7917"/><text fill="#336699" font-family="Verdana" font-size="12.5" font-weight="bold" lengthAdjust="spacing" textLength="94.7937" x="101.5615" y="179.3111">Other Groups</text></g><g id="cluster_##12"><path d="M297.5944,171.8436 C300.9824,165.4676 306.3085,165.8431 309.5348,171.9976 C312.4376,165.1776 318.0915,165.9762 321.9972,170.9366 C324.8911,165.6629 328.7617,163.5144 333.4944,168.9655 C337.368,164.2784 340.6958,163.1212 344.5901,168.9437 C346.2605,162.6907 351.5746,162.4158 355.2896,166.9078 C359.278,161.7253 363.4476,162.6187 366.3698,168.0236 C370.0073,162.5527 374.8167,164.3078 377.1925,169.3254 C382.1807,163.7201 386.1958,163.1275 390.2761,170.2581 C394.3672,165.5801 398.6175,167.0364 401.0561,172.0888 C409.0089,165.4279 416.274,168.7318 418.75,178.125 C419.5796,178.1881 419.7621,178.6033 419.4103,179.3195 C425.5312,182.3437 427.1328,188.491 420.4264,192.5039 C426.4854,195.5541 428.0308,200.7959 422.0159,205.3412 C427.0608,209.1078 427.1009,213.895 421.8263,217.5006 C428.6173,221.2197 428.5748,226.7835 421.8033,230.4786 C427.9378,234.2109 427.7404,240.2162 421.3911,243.555 C425.445,253.7725 422.789,259.7762 411.4583,261.4583 C411.7681,261.0468 412.2103,261.0637 412.4798,261.5065 C410.0229,266.8752 405.7545,267.2765 401.8669,263.0967 C398.3638,269.2826 393.9734,269.4276 389.9222,263.6436 C387.3915,271.0173 383.1053,272.5399 377.3849,266.6613 C374.4626,272.9875 369.3374,271.8688 365.8144,267.2991 C363.2839,272.7033 358.5922,272.065 355.6131,267.7709 C351.0129,272.9129 346.5116,271.8455 343.4248,266.0798 C340.038,270.347 335.3021,270.7047 332.9574,264.9874 C329.1827,271.2083 323.5142,270.5911 319.9376,264.7732 C316.5587,269.6163 311.8623,269.0379 309.9808,263.3565 C299.0663,271.5556 291.2899,266.4055 289.5833,254.1667 C290.9096,253.7874 292.1285,254.5805 291.7054,256.1108 C285.6481,253.2184 284.2689,248.6905 288.8684,243.4165 C281.7303,240.3759 281.9296,234.5762 287.6983,230.3773 C281.8376,226.6751 282.1524,220.5039 287.9623,217.0325 C282.4356,212.7058 281.046,208.6706 287.7536,204.1457 C282.6432,199.7253 283.248,195.2782 289.4959,192.567 C282.3943,182.7448 284.5833,174.071 296.875,170.8333 C297.536,170.8754 297.7663,171.2084 297.5944,171.8436 " fill="none" style="stroke:#F3F3F3;stroke-width:1.0417;"/></g><!--cluster MySql--><g id="cluster_MySql"><path d="M268.75,288.5417 C268.75,278.125 354.1667,278.125 354.1667,278.125 C354.1667,278.125 439.5833,278.125 439.5833,288.5417 L439.5833,587.5 C439.5833,597.9167 354.1667,597.9167 354.1667,597.9167 C354.1667,597.9167 268.75,597.9167 268.75,587.5 L268.75,288.5417 " fill="none" style="stroke:#F3F3F3;stroke-width:1.0417;"/><path d="M268.75,288.5417 C268.75,298.9583 354.1667,298.9583 354.1667,298.9583 C354.1667,298.9583 439.5833,298.9583 439.5833,288.5417 " fill="none" style="stroke:#F3F3F3;stroke-width:1.0417;"/><text fill="#336699" font-family="Verdana" font-size="12.5" font-weight="bold" lengthAdjust="spacing" textLength="42.8223" x="332.7555" y="323.0611">MySql</text></g><!--cluster This is my folder--><g id="cluster_This is my folder"><path d="M284.8958,339.5833 L413.3586,339.5833 A11.7188,11.7188 0 0 1 421.1711,347.3958 L428.4627,381.2174 L423.4375,381.2174 A7.8125,7.8125 0 0 1 431.25,389.0299 L431.25,452.6042 A7.8125,7.8125 0 0 1 423.4375,460.4167 L284.8958,460.4167 A7.8125,7.8125 0 0 1 277.0833,452.6042 L277.0833,347.3958 A7.8125,7.8125 0 0 1 284.8958,339.5833 " fill="#F3F3F3" style="stroke:#FFAE42;stroke-width:2.0833;"/><line style="stroke:#FFAE42;stroke-width:2.0833;" x1="277.0833" x2="428.4627" y1="381.2174" y2="381.2174"/><text fill="#FFAE42" font-family="Verdana" font-size="12.5" font-weight="bold" lengthAdjust="spacing" textLength="117.0044" x="291.6667" y="363.6861">This is my folder</text></g><!--cluster Foo--><g id="cluster_Foo"><rect fill="#F3F3F3" height="120.8333" rx="7.8125" ry="7.8125" style="stroke:#336699;stroke-width:2.0833;" width="131.25" x="288.5417" y="468.75"/><path d="M345.5058,468.75 L345.5058,496.8424 L335.0891,507.2591 L288.5417,507.2591 " fill="none" style="stroke:#336699;stroke-width:2.0833;"/><text fill="#336699" font-family="Verdana" font-size="12.5" font-weight="bold" lengthAdjust="spacing" textLength="25.7141" x="302.0833" y="491.8111">Foo</text></g><!--entity HTTP--><g id="elem_HTTP"><ellipse cx="228.125" cy="90.625" fill="#FF5C5C" rx="8.3333" ry="8.3333" style="stroke:#FF3333;stroke-width:1.0417;"/><text fill="#303030" font-family="Verdana" font-size="12.5" lengthAdjust="spacing" textLength="32.2083" x="212.0209" y="130.3528">HTTP</text></g><!--entity First Component--><g id="elem_First Component"><rect fill="url(#g16i040vxz7ade0)" height="66.6341" rx="4.1667" ry="4.1667" style="stroke:#F3F3F3;stroke-width:1.0417;" width="166.2598" x="33.3333" y="60.4167"/><rect fill="url(#g16i040vxz7ade0)" height="10.4167" style="stroke:#F3F3F3;stroke-width:1.0417;" width="15.625" x="178.7598" y="65.625"/><rect fill="url(#g16i040vxz7ade0)" height="2.0833" style="stroke:#F3F3F3;stroke-width:1.0417;" width="4.1667" x="176.6764" y="67.7083"/><rect fill="url(#g16i040vxz7ade0)" height="2.0833" style="stroke:#F3F3F3;stroke-width:1.0417;" width="4.1667" x="176.6764" y="71.875"/><text fill="#336699" font-family="Verdana" font-size="12.5" lengthAdjust="spacing" textLength="103.7598" x="59.375" y="103.2694">First Component</text></g><!--entity Another Component--><g id="elem_Another Component"><rect fill="url(#g16i040vxz7ade0)" height="66.6341" rx="4.1667" ry="4.1667" style="stroke:#F3F3F3;stroke-width:1.0417;" width="188.8184" x="256.7708" y="60.4167"/><rect fill="url(#g16i040vxz7ade0)" height="10.4167" style="stroke:#F3F3F3;stroke-width:1.0417;" width="15.625" x="424.7559" y="65.625"/><rect fill="url(#g16i040vxz7ade0)" height="2.0833" style="stroke:#F3F3F3;stroke-width:1.0417;" width="4.1667" x="422.6725" y="67.7083"/><rect fill="url(#g16i040vxz7ade0)" height="2.0833" style="stroke:#F3F3F3;stroke-width:1.0417;" width="4.1667" x="422.6725" y="71.875"/><text fill="#336699" font-family="Verdana" font-size="12.5" lengthAdjust="spacing" textLength="126.3184" x="282.8125" y="103.2694">Another Component</text></g><!--entity FTP--><g id="elem_FTP"><ellipse cx="51.0417" cy="225" fill="#FF5C5C" rx="8.3333" ry="8.3333" style="stroke:#FF3333;stroke-width:1.0417;"/><text fill="#303030" font-family="Verdana" font-size="12.5" lengthAdjust="spacing" textLength="22.3633" x="39.86" y="264.7278">FTP</text></g><!--entity Second Component--><g id="elem_Second Component"><rect fill="url(#g16i040vxz7ade0)" height="66.6341" rx="4.1667" ry="4.1667" style="stroke:#F3F3F3;stroke-width:1.0417;" width="185.0464" x="79.1667" y="194.7917"/><rect fill="url(#g16i040vxz7ade0)" height="10.4167" style="stroke:#F3F3F3;stroke-width:1.0417;" width="15.625" x="243.3797" y="200"/><rect fill="url(#g16i040vxz7ade0)" height="2.0833" style="stroke:#F3F3F3;stroke-width:1.0417;" width="4.1667" x="241.2964" y="202.0833"/><rect fill="url(#g16i040vxz7ade0)" height="2.0833" style="stroke:#F3F3F3;stroke-width:1.0417;" width="4.1667" x="241.2964" y="206.25"/><text fill="#336699" font-family="Verdana" font-size="12.5" lengthAdjust="spacing" textLength="122.5464" x="105.2083" y="237.6444">Second Component</text></g><!--entity Example 1--><g id="elem_Example 1"><rect fill="url(#g16i040vxz7ade0)" height="66.6341" rx="4.1667" ry="4.1667" style="stroke:#F3F3F3;stroke-width:1.0417;" width="128.656" x="289.5833" y="194.7917"/><rect fill="url(#g16i040vxz7ade0)" height="10.4167" style="stroke:#F3F3F3;stroke-width:1.0417;" width="15.625" x="397.406" y="200"/><rect fill="url(#g16i040vxz7ade0)" height="2.0833" style="stroke:#F3F3F3;stroke-width:1.0417;" width="4.1667" x="395.3227" y="202.0833"/><rect fill="url(#g16i040vxz7ade0)" height="2.0833" style="stroke:#F3F3F3;stroke-width:1.0417;" width="4.1667" x="395.3227" y="206.25"/><text fill="#336699" font-family="Verdana" font-size="12.5" lengthAdjust="spacing" textLength="66.156" x="315.625" y="237.6444">Example 1</text></g><!--entity Folder 3--><g id="elem_Folder 3"><rect fill="url(#g16i040vxz7ade0)" height="66.6341" rx="4.1667" ry="4.1667" style="stroke:#F3F3F3;stroke-width:1.0417;" width="113.501" x="297.3958" y="385.4167"/><rect fill="url(#g16i040vxz7ade0)" height="10.4167" style="stroke:#F3F3F3;stroke-width:1.0417;" width="15.625" x="390.0635" y="390.625"/><rect fill="url(#g16i040vxz7ade0)" height="2.0833" style="stroke:#F3F3F3;stroke-width:1.0417;" width="4.1667" x="387.9801" y="392.7083"/><rect fill="url(#g16i040vxz7ade0)" height="2.0833" style="stroke:#F3F3F3;stroke-width:1.0417;" width="4.1667" x="387.9801" y="396.875"/><text fill="#336699" font-family="Verdana" font-size="12.5" lengthAdjust="spacing" textLength="51.001" x="323.4375" y="428.2694">Folder 3</text></g><!--entity Frame 4--><g id="elem_Frame 4"><rect fill="url(#g16i040vxz7ade0)" height="66.6341" rx="4.1667" ry="4.1667" style="stroke:#F3F3F3;stroke-width:1.0417;" width="114.2822" x="296.875" y="514.5833"/><rect fill="url(#g16i040vxz7ade0)" height="10.4167" style="stroke:#F3F3F3;stroke-width:1.0417;" width="15.625" x="390.3239" y="519.7917"/><rect fill="url(#g16i040vxz7ade0)" height="2.0833" style="stroke:#F3F3F3;stroke-width:1.0417;" width="4.1667" x="388.2406" y="521.875"/><rect fill="url(#g16i040vxz7ade0)" height="2.0833" style="stroke:#F3F3F3;stroke-width:1.0417;" width="4.1667" x="388.2406" y="526.0417"/><text fill="#336699" font-family="Verdana" font-size="12.5" lengthAdjust="spacing" textLength="51.7822" x="322.9167" y="557.4361">Frame 4</text></g><path d="M218.5465,93.75 C212.4512,93.75 206.3558,93.75 200.2604,93.75 " fill="none" style="stroke:#E2E2E2;stroke-width:3.125;"/><path d="M60.4818,228.125 C66.5736,228.125 72.6654,228.125 78.7572,228.125 " fill="none" style="stroke:#E2E2E2;stroke-width:3.125;"/><polygon fill="#E2E2E2" points="51.7038,215.3494,56.6197,206.3447,52.1277,210.1584,48.314,205.6664,51.7038,215.3494" style="stroke:#E2E2E2;stroke-width:1.0417;"/><path d="M81.2446,127.1145 C76.9031,132.3344 72.9074,137.9434 69.7917,143.75 C57.2409,167.1399 53.5833,192.3334 52.2125,209.1202 " fill="none" style="stroke:#E2E2E2;stroke-width:3.125;"/><polygon fill="#E2E2E2" points="353.3993,194.5967,357.3434,185.126,353.2763,189.3899,349.0124,185.3228,353.3993,194.5967" style="stroke:#E2E2E2;stroke-width:1.0417;"/><path d="M351.8061,127.1538 C352.2904,147.6542 352.7668,167.8243 353.2517,188.3485 " fill="none" style="stroke:#E2E2E2;stroke-width:3.125;"/><polygon fill="#E2E2E2" points="354.1667,385.4049,358.3333,376.0299,354.1667,380.1965,350,376.0299,354.1667,385.4049" style="stroke:#E2E2E2;stroke-width:1.0417;"/><path d="M354.1667,261.5781 C354.1667,296.2175 354.1667,344.5571 354.1667,379.1549 " fill="none" style="stroke:#E2E2E2;stroke-width:3.125;"/><polygon fill="#E2E2E2" points="354.1667,514.5368,358.3333,505.1618,354.1667,509.3285,350,505.1618,354.1667,514.5368" style="stroke:#E2E2E2;stroke-width:1.0417;"/><path d="M354.1667,452.189 C354.1667,471.3089 354.1667,489.1772 354.1667,508.2868 " fill="none" style="stroke:#E2E2E2;stroke-width:3.125;"/></g></svg>