<svg xmlns="http://www.w3.org/2000/svg" xmlns:xlink="http://www.w3.org/1999/xlink" contentStyleType="text/css" data-diagram-type="DESCRIPTION" height="527.0833px" preserveAspectRatio="none" style="width:445px;height:527px;background:#FFFFFF;" version="1.1" viewBox="0 0 445 527" width="445.8333px" zoomAndPan="magnify"><defs><linearGradient id="gy7udmmul2lzm0" x1="50%" x2="50%" y1="0%" y2="100%"><stop offset="0%" stop-color="#B8B8B8"/><stop offset="100%" stop-color="#6B6B6B"/></linearGradient><linearGradient id="gy7udmmul2lzm1" x1="50%" x2="50%" y1="0%" y2="100%"><stop offset="0%" stop-color="#7C9AB9"/><stop offset="100%" stop-color="#304D6D"/></linearGradient></defs><g><!--cluster Some Group--><g id="cluster_Some Group"><path d="M29.1667,14.5833 L123.8037,14.5833 A6.25,6.25 0 0 1 127.9704,18.75 L135.262,45.8008 L429.1667,45.8008 A4.1667,4.1667 0 0 1 433.3333,49.9674 L433.3333,110.4167 A4.1667,4.1667 0 0 1 429.1667,114.5833 L29.1667,114.5833 A4.1667,4.1667 0 0 1 25,110.4167 L25,18.75 A4.1667,4.1667 0 0 1 29.1667,14.5833 " fill="url(#gy7udmmul2lzm0)" style="stroke:#446E9B;stroke-width:2.0833;"/><line style="stroke:#446E9B;stroke-width:2.0833;" x1="25" x2="135.262" y1="45.8008" y2="45.8008"/><text fill="#446E9B" font-family="Verdana" font-size="12.5" font-weight="bold" lengthAdjust="spacing" textLength="86.3037" x="34.375" y="33.4778">Some Group</text></g><!--cluster Other Groups--><g id="cluster_Other Groups"><polygon fill="url(#gy7udmmul2lzm0)" points="33.3333,133.3333,43.75,122.9167,262.5,122.9167,262.5,217.7083,252.0833,228.125,33.3333,228.125,33.3333,133.3333" style="stroke:#446E9B;stroke-width:2.0833;"/><line style="stroke:#446E9B;stroke-width:2.0833;" x1="252.0833" x2="262.5" y1="133.3333" y2="122.9167"/><line style="stroke:#446E9B;stroke-width:2.0833;" x1="33.3333" x2="252.0833" y1="133.3333" y2="133.3333"/><line style="stroke:#446E9B;stroke-width:2.0833;" x1="252.0833" x2="252.0833" y1="133.3333" y2="228.125"/><text fill="#EEEEEE" font-family="Verdana" font-size="12.5" font-weight="bold" lengthAdjust="spacing" textLength="94.7937" x="96.3531" y="153.2694">Other Groups</text></g><g id="cluster_##12"><path d="M280.4352,151.3475 C283.6828,145.7521 288.9171,143.6447 293.2237,150.2361 C295.8054,144.1449 299.1703,144.156 303.6395,148.3188 C308.0489,142.7598 313.1229,143.162 316.4878,149.4515 C318.185,143.6898 322.8522,142.2647 327.1613,146.724 C330.4991,140.941 334.6612,140.4501 338.7859,145.9103 C342.7572,139.4756 348.8891,141.6459 351.6936,147.1697 C356.0428,141.46 359.562,142.6447 362.883,148.1918 C366.5673,143.5786 371.6737,143.0767 374.6985,148.9359 C378.9522,144.4861 384.0221,145.3543 386.1715,151.266 C389.5395,144.6159 395.5984,145.9857 398.6863,151.5529 C404.6522,153.9007 404.6434,158.5555 399.647,161.9193 C406.0916,164.6718 406.665,170.0028 401.974,174.7715 C408.1112,176.6183 409.1566,181.1798 404.8101,185.7379 C409.6604,190.6475 410.5854,194.6172 403.6399,198.4402 C407.5557,203.0755 408.1834,206.7416 401.6101,209.4417 C405.5696,213.8118 404.9782,219.813 398.1631,220.9581 C396.6363,227.3259 391.6683,228.0651 387.3519,223.7926 C383.9251,230.4961 378.6301,230.5149 374.2829,224.758 C371.9874,231.2915 367.334,232.0929 362.3173,227.7521 C360.069,233.5784 354.6059,234.3237 350.7435,229.5076 C348.5566,234.9757 344.1621,235.6616 340.439,231.0833 C335.8382,236.5887 330.4551,234.1756 328.4829,228.3176 C323.2847,234.0467 318.5041,233.7786 315.2846,226.3351 C311.1798,230.7416 306.0513,230.1897 303.825,224.2536 C299.1634,229.1307 294.5916,227.861 292.1895,221.841 C288.5766,226.8402 282.6178,227.3237 279.4964,221.2763 C273.1907,217.8842 272.9267,213.5348 278.6547,209.2972 C273.3632,205.5711 272.2055,200.5336 278.4827,196.6502 C272.3208,194.8599 271.8282,191.4866 275.8792,186.9539 C270.1412,182.2028 272.6712,176.9626 278.4277,174.5786 C272.6096,170.9924 273.2524,166.1468 279.1539,163.3163 C273.3582,159.2941 275.1372,154.182 280.4352,151.3475 " fill="url(#gy7udmmul2lzm0)" style="stroke:#446E9B;stroke-width:2.0833;"/></g><!--cluster MySql--><g id="cluster_MySql"><path d="M258.3333,246.875 C258.3333,236.4583 338.5417,236.4583 338.5417,236.4583 C338.5417,236.4583 418.75,236.4583 418.75,246.875 L418.75,493.75 C418.75,504.1667 338.5417,504.1667 338.5417,504.1667 C338.5417,504.1667 258.3333,504.1667 258.3333,493.75 L258.3333,246.875 " fill="url(#gy7udmmul2lzm0)" style="stroke:#446E9B;stroke-width:2.0833;"/><path d="M258.3333,246.875 C258.3333,257.2917 338.5417,257.2917 338.5417,257.2917 C338.5417,257.2917 418.75,257.2917 418.75,246.875 " fill="#FFFFFF" fill-opacity="0.00000" style="stroke:#446E9B;stroke-width:2.0833;"/><text fill="#FFFFFF" font-family="Verdana" font-size="12.5" font-weight="bold" lengthAdjust="spacing" textLength="42.8223" x="317.1305" y="276.1861">MySql</text></g><!--cluster This is my folder--><g id="cluster_This is my folder"><path d="M270.8333,287.5 L396.1711,287.5 A6.25,6.25 0 0 1 400.3377,291.6667 L407.6294,318.7174 L406.25,318.7174 A4.1667,4.1667 0 0 1 410.4167,322.8841 L410.4167,383.3333 A4.1667,4.1667 0 0 1 406.25,387.5 L270.8333,387.5 A4.1667,4.1667 0 0 1 266.6667,383.3333 L266.6667,291.6667 A4.1667,4.1667 0 0 1 270.8333,287.5 " fill="url(#gy7udmmul2lzm0)" style="stroke:#D47500;stroke-width:2.0833;"/><line style="stroke:#D47500;stroke-width:2.0833;" x1="266.6667" x2="407.6294" y1="318.7174" y2="318.7174"/><text fill="#D47500" font-family="Verdana" font-size="12.5" font-weight="bold" lengthAdjust="spacing" textLength="117.0044" x="276.0417" y="306.3944">This is my folder</text></g><!--cluster Foo--><g id="cluster_Foo"><rect fill="url(#gy7udmmul2lzm0)" height="100" rx="4.1667" ry="4.1667" style="stroke:#3399F3;stroke-width:2.0833;" width="120.8333" x="278.125" y="395.8333"/><path d="M324.6724,395.8333 L324.6724,413.5091 L314.2558,423.9258 L278.125,423.9258 " fill="#FFFFFF" fill-opacity="0.00000" style="stroke:#3399F3;stroke-width:2.0833;"/><text fill="#3399F3" font-family="Verdana" font-size="12.5" font-weight="bold" lengthAdjust="spacing" textLength="25.7141" x="286.4583" y="413.6861">Foo</text></g><!--entity HTTP--><g id="elem_HTTP"><ellipse cx="217.7083" cy="75" fill="#900100" rx="8.3333" ry="8.3333" style="stroke:#CD0200;stroke-width:1.0417;"/><text fill="#333333" font-family="Verdana" font-size="12.5" lengthAdjust="spacing" textLength="32.2083" x="201.6042" y="109.5194">HTTP</text></g><!--entity First Component--><g id="elem_First Component"><rect fill="url(#gy7udmmul2lzm1)" height="56.2174" rx="4.1667" ry="4.1667" style="stroke:#304D6D;stroke-width:1.0417;" width="155.8431" x="33.3333" y="50"/><rect fill="url(#gy7udmmul2lzm1)" height="10.4167" style="stroke:#304D6D;stroke-width:1.0417;" width="15.625" x="168.3431" y="55.2083"/><rect fill="url(#gy7udmmul2lzm1)" height="2.0833" style="stroke:#304D6D;stroke-width:1.0417;" width="4.1667" x="166.2598" y="57.2917"/><rect fill="url(#gy7udmmul2lzm1)" height="2.0833" style="stroke:#304D6D;stroke-width:1.0417;" width="4.1667" x="166.2598" y="61.4583"/><text fill="#FFFFFF" font-family="Verdana" font-size="12.5" lengthAdjust="spacing" textLength="103.7598" x="54.1667" y="87.6444">First Component</text></g><!--entity Another Component--><g id="elem_Another Component"><rect fill="url(#gy7udmmul2lzm1)" height="56.2174" rx="4.1667" ry="4.1667" style="stroke:#304D6D;stroke-width:1.0417;" width="178.4017" x="246.3542" y="50"/><rect fill="url(#gy7udmmul2lzm1)" height="10.4167" style="stroke:#304D6D;stroke-width:1.0417;" width="15.625" x="403.9225" y="55.2083"/><rect fill="url(#gy7udmmul2lzm1)" height="2.0833" style="stroke:#304D6D;stroke-width:1.0417;" width="4.1667" x="401.8392" y="57.2917"/><rect fill="url(#gy7udmmul2lzm1)" height="2.0833" style="stroke:#304D6D;stroke-width:1.0417;" width="4.1667" x="401.8392" y="61.4583"/><text fill="#FFFFFF" font-family="Verdana" font-size="12.5" lengthAdjust="spacing" textLength="126.3184" x="267.1875" y="87.6444">Another Component</text></g><!--entity FTP--><g id="elem_FTP"><ellipse cx="51.0417" cy="188.5417" fill="#900100" rx="8.3333" ry="8.3333" style="stroke:#CD0200;stroke-width:1.0417;"/><text fill="#333333" font-family="Verdana" font-size="12.5" lengthAdjust="spacing" textLength="22.3633" x="39.86" y="223.0611">FTP</text></g><!--entity Second Component--><g id="elem_Second Component"><rect fill="url(#gy7udmmul2lzm1)" height="56.2174" rx="4.1667" ry="4.1667" style="stroke:#304D6D;stroke-width:1.0417;" width="174.6297" x="79.1667" y="163.5417"/><rect fill="url(#gy7udmmul2lzm1)" height="10.4167" style="stroke:#304D6D;stroke-width:1.0417;" width="15.625" x="232.9631" y="168.75"/><rect fill="url(#gy7udmmul2lzm1)" height="2.0833" style="stroke:#304D6D;stroke-width:1.0417;" width="4.1667" x="230.8797" y="170.8333"/><rect fill="url(#gy7udmmul2lzm1)" height="2.0833" style="stroke:#304D6D;stroke-width:1.0417;" width="4.1667" x="230.8797" y="175"/><text fill="#FFFFFF" font-family="Verdana" font-size="12.5" lengthAdjust="spacing" textLength="122.5464" x="100" y="201.1861">Second Component</text></g><!--entity Example 1--><g id="elem_Example 1"><rect fill="url(#gy7udmmul2lzm1)" height="56.2174" rx="4.1667" ry="4.1667" style="stroke:#304D6D;stroke-width:1.0417;" width="118.2393" x="279.1667" y="163.5417"/><rect fill="url(#gy7udmmul2lzm1)" height="10.4167" style="stroke:#304D6D;stroke-width:1.0417;" width="15.625" x="376.5727" y="168.75"/><rect fill="url(#gy7udmmul2lzm1)" height="2.0833" style="stroke:#304D6D;stroke-width:1.0417;" width="4.1667" x="374.4893" y="170.8333"/><rect fill="url(#gy7udmmul2lzm1)" height="2.0833" style="stroke:#304D6D;stroke-width:1.0417;" width="4.1667" x="374.4893" y="175"/><text fill="#FFFFFF" font-family="Verdana" font-size="12.5" lengthAdjust="spacing" textLength="66.156" x="300" y="201.1861">Example 1</text></g><!--entity Folder 3--><g id="elem_Folder 3"><rect fill="url(#gy7udmmul2lzm1)" height="56.2174" rx="4.1667" ry="4.1667" style="stroke:#304D6D;stroke-width:1.0417;" width="103.0843" x="286.9792" y="322.9167"/><rect fill="url(#gy7udmmul2lzm1)" height="10.4167" style="stroke:#304D6D;stroke-width:1.0417;" width="15.625" x="369.2301" y="328.125"/><rect fill="url(#gy7udmmul2lzm1)" height="2.0833" style="stroke:#304D6D;stroke-width:1.0417;" width="4.1667" x="367.1468" y="330.2083"/><rect fill="url(#gy7udmmul2lzm1)" height="2.0833" style="stroke:#304D6D;stroke-width:1.0417;" width="4.1667" x="367.1468" y="334.375"/><text fill="#FFFFFF" font-family="Verdana" font-size="12.5" lengthAdjust="spacing" textLength="51.001" x="307.8125" y="360.5611">Folder 3</text></g><!--entity Frame 4--><g id="elem_Frame 4"><rect fill="url(#gy7udmmul2lzm1)" height="56.2174" rx="4.1667" ry="4.1667" style="stroke:#304D6D;stroke-width:1.0417;" width="103.8656" x="286.4583" y="431.25"/><rect fill="url(#gy7udmmul2lzm1)" height="10.4167" style="stroke:#304D6D;stroke-width:1.0417;" width="15.625" x="369.4906" y="436.4583"/><rect fill="url(#gy7udmmul2lzm1)" height="2.0833" style="stroke:#304D6D;stroke-width:1.0417;" width="4.1667" x="367.4072" y="438.5417"/><rect fill="url(#gy7udmmul2lzm1)" height="2.0833" style="stroke:#304D6D;stroke-width:1.0417;" width="4.1667" x="367.4072" y="442.7083"/><text fill="#FFFFFF" font-family="Verdana" font-size="12.5" lengthAdjust="spacing" textLength="51.7822" x="307.2917" y="468.8944">Frame 4</text></g><path d="M208.1495,78.125 C202.0665,78.125 195.9836,78.125 189.9007,78.125 " fill="#FFFFFF" fill-opacity="0.00000" style="stroke:#446E9B;stroke-width:3.125;"/><path d="M60.5265,191.6667 C66.6075,191.6667 72.6884,191.6667 78.7694,191.6667 " fill="#FFFFFF" fill-opacity="0.00000" style="stroke:#446E9B;stroke-width:3.125;"/><polygon fill="#446E9B" points="52.5067,178.9431,58.0424,170.3055,53.2939,173.7946,49.8048,169.0461,52.5067,178.9431" style="stroke:#446E9B;stroke-width:1.0417;"/><path d="M81.4637,106.7137 C77.0952,111.7754 72.998,117.2589 69.7917,122.9167 C59.5682,140.9566 55.599,158.717 53.4513,172.7649 " fill="#FFFFFF" fill-opacity="0.00000" style="stroke:#446E9B;stroke-width:3.125;"/><polygon fill="#446E9B" points="337.7743,163.2544,341.6765,153.7663,337.6283,158.0481,333.3465,153.9999,337.7743,163.2544" style="stroke:#446E9B;stroke-width:1.0417;"/><path d="M336.1811,106.4324 C336.6654,123.7044 337.1143,139.7148 337.5991,157.0069 " fill="#FFFFFF" fill-opacity="0.00000" style="stroke:#446E9B;stroke-width:3.125;"/><polygon fill="#446E9B" points="338.5417,322.9159,342.7083,313.5409,338.5417,317.7075,334.375,313.5409,338.5417,322.9159" style="stroke:#446E9B;stroke-width:1.0417;"/><path d="M338.5417,220.1065 C338.5417,248.9763 338.5417,287.915 338.5417,316.6659 " fill="#FFFFFF" fill-opacity="0.00000" style="stroke:#446E9B;stroke-width:3.125;"/><polygon fill="#446E9B" points="338.5417,430.9271,342.7083,421.5521,338.5417,425.7187,334.375,421.5521,338.5417,430.9271" style="stroke:#446E9B;stroke-width:1.0417;"/><path d="M338.5417,379.1696 C338.5417,395.0322 338.5417,408.7596 338.5417,424.6771 " fill="#FFFFFF" fill-opacity="0.00000" style="stroke:#446E9B;stroke-width:3.125;"/></g></svg>