<svg xmlns="http://www.w3.org/2000/svg" xmlns:xlink="http://www.w3.org/1999/xlink" contentStyleType="text/css" height="568.75px" preserveAspectRatio="none" style="width:704px;height:568px;" version="1.1" viewBox="0 0 704 568" width="704.1667px" zoomAndPan="magnify"><defs><linearGradient id="g1w86qv9jbnyxr0" x1="50%" x2="50%" y1="0%" y2="100%"><stop offset="0%" stop-color="#DBDBDB"/><stop offset="100%" stop-color="#D2D2D2"/></linearGradient><linearGradient id="g1w86qv9jbnyxr1" x1="50%" x2="50%" y1="0%" y2="100%"><stop offset="0%" stop-color="#F3F3F3"/><stop offset="100%" stop-color="#E2E2E2"/></linearGradient><linearGradient id="g1w86qv9jbnyxr2" x1="50%" x2="50%" y1="0%" y2="100%"><stop offset="0%" stop-color="#FFFFFF"/><stop offset="100%" stop-color="#FCFCFC"/></linearGradient><linearGradient id="g1w86qv9jbnyxr3" x1="50%" x2="50%" y1="0%" y2="100%"><stop offset="0%" stop-color="#5C85AD"/><stop offset="100%" stop-color="#336699"/></linearGradient><linearGradient id="g1w86qv9jbnyxr4" x1="50%" x2="50%" y1="0%" y2="100%"><stop offset="0%" stop-color="#F2FCFE"/><stop offset="100%" stop-color="#EEEEEE"/></linearGradient><linearGradient id="g1w86qv9jbnyxr5" x1="50%" x2="50%" y1="0%" y2="100%"><stop offset="0%" stop-color="#FFBE68"/><stop offset="100%" stop-color="#FFAE42"/></linearGradient></defs><g><!--entity action--><g id="elem_action"><polygon fill="url(#g1w86qv9jbnyxr0)" points="21.875,44.2708,102.0182,44.2708,112.4349,72.3796,102.0182,100.4883,21.875,100.4883" style="stroke:#D2D2D2;stroke-width:1.0416666666666667;"/><text fill="#E2E2E2" font-family="Verdana" font-size="12.5" lengthAdjust="spacing" textLength="38.4766" x="42.7083" y="76.7069">action</text></g><!--entity actor--><g id="elem_actor"><ellipse cx="157.7769" cy="32.2917" fill="url(#g1w86qv9jbnyxr1)" rx="8.3333" ry="8.3333" style="stroke:#F3F3F3;stroke-width:1.0416666666666667;"/><path d="M157.7769,40.625 L157.7769,68.75 M144.2352,48.9583 L171.3186,48.9583 M157.7769,68.75 L144.2352,84.375 M157.7769,68.75 L171.3186,84.375 " fill="none" style="stroke:#F3F3F3;stroke-width:1.0416666666666667;"/><text fill="#336699" font-family="Verdana" font-size="12.5" lengthAdjust="spacing" textLength="32.2205" x="141.6667" y="108.4778">actor</text></g><!--entity actor/--><g id="elem_actor/"><ellipse cx="231.7576" cy="32.2917" fill="url(#g1w86qv9jbnyxr1)" rx="8.3333" ry="8.3333" style="stroke:#F3F3F3;stroke-width:1.0416666666666667;"/><line style="stroke:#F3F3F3;stroke-width:1.0416666666666667;" x1="229.7328" x2="239.8412" y1="40.3753" y2="30.2668"/><path d="M231.7576,40.625 L231.7576,68.75 M218.2159,48.9583 L245.2993,48.9583 M231.7576,68.75 L218.2159,84.375 M231.7576,68.75 L245.2993,84.375 " fill="none" style="stroke:#F3F3F3;stroke-width:1.0416666666666667;"/><text fill="#336699" font-family="Verdana" font-size="12.5" lengthAdjust="spacing" textLength="36.4319" x="213.5417" y="108.4778">actor/</text></g><!--entity agent--><g id="elem_agent"><rect fill="#FFA500" height="56.2174" rx="4.1667" ry="4.1667" style="stroke:#999999;stroke-width:1.0416666666666667;" width="77.7751" x="279.1667" y="44.2708"/><text fill="#333333" font-family="Verdana" font-size="12.5" lengthAdjust="spacing" textLength="36.1084" x="300" y="76.7069">agent</text></g><!--entity artifact--><g id="elem_artifact"><rect fill="url(#g1w86qv9jbnyxr2)" height="59.3424" rx="4.1667" ry="4.1667" style="stroke:#A8A8A8;stroke-width:1.0416666666666667;" width="97.0907" x="376.0417" y="42.7083"/><polygon fill="url(#g1w86qv9jbnyxr2)" points="455.424,47.9167,455.424,62.5,467.924,62.5,467.924,54.1667,461.674,47.9167,455.424,47.9167" style="stroke:#A8A8A8;stroke-width:1.0416666666666667;"/><line style="stroke:#A8A8A8;stroke-width:1.0416666666666667;" x1="461.674" x2="461.674" y1="47.9167" y2="54.1667"/><line style="stroke:#A8A8A8;stroke-width:1.0416666666666667;" x1="467.924" x2="461.674" y1="54.1667" y2="54.1667"/><text fill="#A8A8A8" font-family="Verdana" font-size="12.5" lengthAdjust="spacing" textLength="45.0073" x="396.875" y="78.2694">artifact</text></g><!--entity boundary--><g id="elem_boundary"><path d="M510.5082,42.1875 L510.5082,67.1875 M510.5082,54.6875 L528.2166,54.6875 " fill="none" style="stroke:#F3F3F3;stroke-width:1.0416666666666667;"/><ellipse cx="540.7166" cy="54.6875" fill="url(#g1w86qv9jbnyxr1)" rx="12.5" ry="12.5" style="stroke:#F3F3F3;stroke-width:1.0416666666666667;"/><text fill="#336699" font-family="Verdana" font-size="12.5" lengthAdjust="spacing" textLength="59.5581" x="502.0833" y="93.3736">boundary</text></g><!--entity card--><g id="elem_card"><rect fill="url(#g1w86qv9jbnyxr3)" height="41.6341" rx="4.1667" ry="4.1667" style="stroke:#336699;stroke-width:1.0416666666666667;" width="69.2729" x="32.2917" y="172.9167"/><text fill="#FFFFFF" font-family="Verdana" font-size="12.5" lengthAdjust="spacing" textLength="27.6062" x="53.125" y="198.0611">card</text></g><!--entity circle--><g id="elem_circle"><ellipse cx="130.7292" cy="190.625" fill="#FF5C5C" rx="8.3333" ry="8.3333" style="stroke:#FF3333;stroke-width:1.0416666666666667;"/><text fill="#303030" font-family="Verdana" font-size="12.5" lengthAdjust="spacing" textLength="33.5205" x="113.9689" y="230.3528">circle</text></g><!--entity cloud--><g id="elem_cloud"><path d="M169.2914,170.8478 C170.0865,164.2718 175.2361,162.4569 179.9249,167.1854 C183.0602,161.1013 187.7305,162.4243 191.036,167.0081 C192.5083,160.6926 197.9162,159.542 201.9297,164.5669 C206.7175,159.1282 212.58,160.376 214.6891,167.3258 C219.3024,161.1213 223.317,161.2553 226.9911,168.2042 C231.173,164.114 234.7135,163.6584 237.2576,169.841 C243.0567,172.5395 243.7595,178.8031 238.8159,182.7939 C245.7337,186.4847 244.4383,191.6147 238.9946,195.4795 C245.5535,200.6073 244.8423,205.1757 237.3033,208.4677 C242.6589,212.2421 243.6822,215.8327 238.2242,220.439 C233.7309,226.0275 229.9528,224.7342 226.5591,219.2776 C224.5811,224.4275 219.2525,225.4599 215.3982,221.6026 C211.5963,227.63 206.7739,228.6932 202.3812,222.2178 C198.3522,227.4 193.1408,227.0388 190.9971,220.4019 C187.391,224.5127 183.7134,224.5805 180.8981,219.5303 C177.3753,225.2298 170.9809,225.3206 167.8652,219.0856 C161.7519,216.3452 160.0325,211.3895 165.111,206.248 C158.2817,205.4186 156.8368,201.156 160.7971,195.8501 C156.0497,190.1729 156.145,184.2267 164.6388,182.305 C161.272,176.9374 161.7487,171.7852 169.2914,170.8478 " fill="url(#g1w86qv9jbnyxr4)" style="stroke:#FFFFFF;stroke-width:1.0416666666666667;"/><text fill="#336699" font-family="Verdana" font-size="12.5" lengthAdjust="spacing" textLength="33.8501" x="184.8958" y="198.0611">cloud</text></g><!--entity collections--><g id="elem_collections"><rect fill="url(#g1w86qv9jbnyxr1)" height="52.0508" rx="4.1667" ry="4.1667" style="stroke:#F3F3F3;stroke-width:1.0416666666666667;" width="103.9856" x="267.1875" y="169.7917"/><rect fill="url(#g1w86qv9jbnyxr1)" height="52.0508" rx="4.1667" ry="4.1667" style="stroke:#F3F3F3;stroke-width:1.0416666666666667;" width="103.9856" x="263.0208" y="165.625"/><text fill="#336699" font-family="Verdana" font-size="12.5" lengthAdjust="spacing" textLength="66.4856" x="281.7708" y="195.9778">collections</text></g><!--entity component--><g id="elem_component"><rect fill="url(#g1w86qv9jbnyxr1)" height="66.6341" rx="4.1667" ry="4.1667" style="stroke:#F3F3F3;stroke-width:1.0416666666666667;" width="133.2153" x="390.1042" y="160.4167"/><rect fill="url(#g1w86qv9jbnyxr1)" height="10.4167" style="stroke:#F3F3F3;stroke-width:1.0416666666666667;" width="15.625" x="502.4862" y="165.625"/><rect fill="url(#g1w86qv9jbnyxr1)" height="2.0833" style="stroke:#F3F3F3;stroke-width:1.0416666666666667;" width="4.1667" x="500.4028" y="167.7083"/><rect fill="url(#g1w86qv9jbnyxr1)" height="2.0833" style="stroke:#F3F3F3;stroke-width:1.0416666666666667;" width="4.1667" x="500.4028" y="171.875"/><text fill="#336699" font-family="Verdana" font-size="12.5" lengthAdjust="spacing" textLength="70.7153" x="416.1458" y="203.2694">component</text></g><!--entity control--><g id="elem_control"><ellipse cx="574.4059" cy="176.0417" fill="url(#g1w86qv9jbnyxr1)" rx="12.5" ry="12.5" style="stroke:#F3F3F3;stroke-width:1.0416666666666667;"/><polygon fill="#F3F3F3" points="570.2393,163.5417,576.4893,158.3333,574.4059,163.5417,576.4893,168.75,570.2393,163.5417" style="stroke:#F3F3F3;stroke-width:1.0416666666666667;"/><text fill="#336699" font-family="Verdana" font-size="12.5" lengthAdjust="spacing" textLength="43.6035" x="552.6042" y="214.7278">control</text></g><!--entity database--><g id="elem_database"><path d="M17.1875,280.7292 C17.1875,270.3125 66.9973,270.3125 66.9973,270.3125 C66.9973,270.3125 116.807,270.3125 116.807,280.7292 L116.807,325.4883 C116.807,335.9049 66.9973,335.9049 66.9973,335.9049 C66.9973,335.9049 17.1875,335.9049 17.1875,325.4883 L17.1875,280.7292 " fill="none" style="stroke:#F3F3F3;stroke-width:1.0416666666666667;"/><path d="M17.1875,280.7292 C17.1875,291.1458 66.9973,291.1458 66.9973,291.1458 C66.9973,291.1458 116.807,291.1458 116.807,280.7292 " fill="none" style="stroke:#F3F3F3;stroke-width:1.0416666666666667;"/><text fill="#336699" font-family="Verdana" font-size="12.5" lengthAdjust="spacing" textLength="57.9529" x="38.0208" y="317.3319">database</text></g><!--entity entity--><g id="elem_entity"><ellipse cx="165.0177" cy="285.4167" fill="url(#g1w86qv9jbnyxr1)" rx="12.5" ry="12.5" style="stroke:#F3F3F3;stroke-width:1.0416666666666667;"/><line style="stroke:#F3F3F3;stroke-width:1.0416666666666667;" x1="152.5177" x2="177.5177" y1="300" y2="300"/><text fill="#336699" font-family="Verdana" font-size="12.5" lengthAdjust="spacing" textLength="36.2854" x="146.875" y="324.1028">entity</text></g><!--entity file--><g id="elem_file"><path d="M213.0208,279.1667 L213.0208,327.0508 A4.1667,4.1667 0 0 0 217.1875,331.2174 L269.5577,331.2174 A4.1667,4.1667 0 0 0 273.7244,327.0508 L273.7244,285.4167 L263.3077,275 L217.1875,275 A4.1667,4.1667 0 0 0 213.0208,279.1667 " fill="url(#g1w86qv9jbnyxr0)" style="stroke:#A8A8A8;stroke-width:1.0416666666666667;"/><path d="M263.3077,275 L263.3077,281.25 A4.1667,4.1667 0 0 0 267.4744,285.4167 L273.7244,285.4167 " fill="url(#g1w86qv9jbnyxr0)" style="stroke:#A8A8A8;stroke-width:1.0416666666666667;"/><text fill="#FFFFFF" font-family="Verdana" font-size="12.5" lengthAdjust="spacing" textLength="19.0369" x="233.8542" y="307.4361">file</text></g><!--entity folder--><g id="elem_folder"><path d="M296.875,265.625 L336.4583,265.625 A6.25,6.25 0 0 1 340.625,269.7917 L347.9167,287.5 L376.9104,287.5 A4.1667,4.1667 0 0 1 381.0771,291.6667 L381.0771,336.4258 A4.1667,4.1667 0 0 1 376.9104,340.5924 L296.875,340.5924 A4.1667,4.1667 0 0 1 292.7083,336.4258 L292.7083,269.7917 A4.1667,4.1667 0 0 1 296.875,265.625 " fill="#F3F3F3" style="stroke:#FFAE42;stroke-width:2.0833333333333335;"/><line style="stroke:#FFAE42;stroke-width:2.0833333333333335;" x1="292.7083" x2="347.9167" y1="287.5" y2="287.5"/><text fill="#FFAE42" font-family="Verdana" font-size="12.5" lengthAdjust="spacing" textLength="36.2854" x="313.5417" y="316.8111">folder</text></g><!--entity frame--><g id="elem_frame"><rect fill="#F3F3F3" height="66.6341" rx="4.1667" ry="4.1667" style="stroke:#336699;stroke-width:2.0833333333333335;" width="99.5667" x="400.5208" y="269.7917"/><path d="M433.7097,269.7917 L433.7097,275 L426.4181,282.2917 L400.5208,282.2917 " fill="none" style="stroke:#336699;stroke-width:2.0833333333333335;"/><text fill="#336699" font-family="Verdana" font-size="12.5" lengthAdjust="spacing" textLength="37.0667" x="426.5625" y="312.6444">frame</text></g><!--entity interface--><g id="elem_interface"><ellipse cx="528.6458" cy="300" fill="#FF5C5C" rx="8.3333" ry="8.3333" style="stroke:#FF3333;stroke-width:1.0416666666666667;"/><text fill="#303030" font-family="Verdana" font-size="12.5" lengthAdjust="spacing" textLength="55.7495" x="500.7711" y="339.7278">interface</text></g><!--entity label--><g id="elem_label"><text fill="#E2E2E2" font-family="Verdana" font-size="12.5" lengthAdjust="spacing" textLength="30.2307" x="52.0833" y="425.1444">label</text></g><!--entity node--><g id="elem_node"><polygon fill="none" points="122.3958,397.9167,132.8125,387.5,216.0909,387.5,216.0909,443.7174,205.6742,454.1341,122.3958,454.1341,122.3958,397.9167" style="stroke:#F3F3F3;stroke-width:1.0416666666666667;"/><line style="stroke:#F3F3F3;stroke-width:1.0416666666666667;" x1="205.6742" x2="216.0909" y1="397.9167" y2="387.5"/><line style="stroke:#F3F3F3;stroke-width:1.0416666666666667;" x1="122.3958" x2="205.6742" y1="397.9167" y2="397.9167"/><line style="stroke:#F3F3F3;stroke-width:1.0416666666666667;" x1="205.6742" x2="205.6742" y1="397.9167" y2="454.1341"/><text fill="#336699" font-family="Verdana" font-size="12.5" lengthAdjust="spacing" textLength="31.1951" x="148.4375" y="430.3528">node</text></g><!--entity package--><g id="elem_package"><path d="M239.5833,391.1458 L329.7994,391.1458 A6.25,6.25 0 0 1 333.9661,395.3125 L341.2577,432.7799 L354.7994,432.7799 A4.1667,4.1667 0 0 1 358.9661,436.9466 L358.9661,446.3216 A4.1667,4.1667 0 0 1 354.7994,450.4883 L239.5833,450.4883 A4.1667,4.1667 0 0 1 235.4167,446.3216 L235.4167,395.3125 A4.1667,4.1667 0 0 1 239.5833,391.1458 " fill="none" style="stroke:#F3F3F3;stroke-width:2.0833333333333335;"/><line style="stroke:#F3F3F3;stroke-width:2.0833333333333335;" x1="235.4167" x2="341.2577" y1="432.7799" y2="432.7799"/><text fill="#336699" font-family="Verdana" font-size="12.5" font-weight="bold" lengthAdjust="spacing" textLength="58.9661" x="256.25" y="416.2903">package</text></g><!--entity person--><g id="elem_person"><ellipse cx="420.3817" cy="392.6" fill="url(#g1w86qv9jbnyxr0)" rx="14.475" ry="14.475" style="stroke:#D2D2D2;stroke-width:1.0416666666666667;"/><rect fill="url(#g1w86qv9jbnyxr0)" height="56.2174" rx="14.475" ry="14.475" style="stroke:#D2D2D2;stroke-width:1.0416666666666667;" width="84.5133" x="378.125" y="407.0749"/><text fill="#E2E2E2" font-family="Verdana" font-size="12.5" lengthAdjust="spacing" textLength="42.8467" x="398.9583" y="439.511">person</text></g><!--entity process--><g id="elem_process"><polygon fill="url(#g1w86qv9jbnyxr0)" points="481.7708,392.7083,582.1635,392.7083,592.5802,420.8171,582.1635,448.9258,481.7708,448.9258,492.1875,420.8171" style="stroke:#D2D2D2;stroke-width:1.0416666666666667;"/><text fill="#E2E2E2" font-family="Verdana" font-size="12.5" lengthAdjust="spacing" textLength="48.3093" x="513.0208" y="425.1444">process</text></g><!--entity queue--><g id="elem_queue"><path d="M616.1458,397.9167 L686.556,397.9167 C691.7643,397.9167 691.7643,420.8171 691.7643,420.8171 C691.7643,420.8171 691.7643,443.7174 686.556,443.7174 L616.1458,443.7174 C610.9375,443.7174 610.9375,420.8171 610.9375,420.8171 C610.9375,420.8171 610.9375,397.9167 616.1458,397.9167 " fill="url(#g1w86qv9jbnyxr1)" style="stroke:#F3F3F3;stroke-width:1.0416666666666667;"/><path d="M686.556,397.9167 C681.3477,397.9167 681.3477,420.8171 681.3477,420.8171 C681.3477,443.7174 686.556,443.7174 686.556,443.7174 " fill="none" style="stroke:#F3F3F3;stroke-width:1.0416666666666667;"/><text fill="#336699" font-family="Verdana" font-size="12.5" lengthAdjust="spacing" textLength="39.1602" x="626.5625" y="425.1444">queue</text></g><!--entity rectangle--><g id="elem_rectangle"><rect fill="none" height="56.2174" rx="4.1667" ry="4.1667" style="stroke:#F3F3F3;stroke-width:2.0833333333333335;" width="100.9501" x="16.6667" y="501.0417"/><text fill="#336699" font-family="Verdana" font-size="12.5" lengthAdjust="spacing" textLength="59.2834" x="37.5" y="533.4778">rectangle</text></g><!--entity stack--><g id="elem_stack"><rect fill="url(#g1w86qv9jbnyxr1)" height="56.2174" rx="4.1667" ry="4.1667" style="stroke:none;stroke-width:1.0416666666666667;" width="74.8515" x="152.6042" y="501.0417"/><path d="M136.9792,501.0417 L148.4375,501.0417 A4.1667,4.1667 0 0 1 152.6042,505.2083 L152.6042,553.0924 A4.1667,4.1667 0 0 0 156.7708,557.2591 L223.289,557.2591 A4.1667,4.1667 0 0 0 227.4556,553.0924 L227.4556,505.2083 A4.1667,4.1667 0 0 1 231.6223,501.0417 L243.0806,501.0417 " fill="none" style="stroke:#F3F3F3;stroke-width:1.0416666666666667;"/><text fill="#336699" font-family="Verdana" font-size="12.5" lengthAdjust="spacing" textLength="33.1848" x="173.4375" y="533.4778">stack</text></g><!--entity storage--><g id="elem_storage"><rect fill="url(#g1w86qv9jbnyxr5)" height="56.2174" rx="36.4583" ry="36.4583" style="stroke:#FFAE42;stroke-width:1.0416666666666667;" width="89.152" x="261.9792" y="501.0417"/><text fill="#FFFFFF" font-family="Verdana" font-size="12.5" lengthAdjust="spacing" textLength="47.4854" x="282.8125" y="533.4778">storage</text></g><g id="elem_usecase"><ellipse cx="432.9716" cy="529.187" fill="url(#g1w86qv9jbnyxr1)" rx="62.6591" ry="28.1453" style="stroke:#F3F3F3;stroke-width:2.0833333333333335;"/><text fill="#336699" font-family="Verdana" font-size="12.5" lengthAdjust="spacing" textLength="50.8606" x="407.5413" y="531.4311">usecase</text></g><g id="elem_usecase/"><ellipse cx="579.6995" cy="529.187" fill="url(#g1w86qv9jbnyxr1)" rx="65.637" ry="28.1453" style="stroke:#F3F3F3;stroke-width:2.0833333333333335;"/><text fill="#336699" font-family="Verdana" font-size="12.5" lengthAdjust="spacing" textLength="55.072" x="552.1635" y="531.4311">usecase/</text></g><line style="stroke:#F3F3F3;stroke-width:2.0833333333333335;" x1="640.105" x2="605.0377" y1="519.3755" y2="554.4428"/></g></svg>