<svg xmlns="http://www.w3.org/2000/svg" xmlns:xlink="http://www.w3.org/1999/xlink" contentStyleType="text/css" data-diagram-type="EBNF" height="439.5833px" preserveAspectRatio="none" style="width:423px;height:439px;background:#FDF6E3;" version="1.1" viewBox="0 0 423 439" width="423.9583px" zoomAndPan="magnify"><defs/><g><rect fill="#FDF6E3" height="439.5833" style="stroke:#FFFFFF00;stroke-width:1.0417;" width="423.9583" x="0" y="0"/><path d="M10.4167,15.625 L10.4167,41.805 L235.7803,41.805 L235.7803,26.0417 L225.3637,15.625 L10.4167,15.625 " fill="#FFFFCC" style="stroke:#B58900;stroke-width:2.0833;"/><path d="M225.3637,15.625 L225.3637,26.0417 L235.7803,26.0417 L225.3637,15.625 " fill="#FFFFCC" style="stroke:#B58900;stroke-width:2.0833;"/><text fill="#000000" font-family="Dejavu Serif" font-size="13.5417" lengthAdjust="spacing" textLength="4.3045" x="16.6667" y="33.403">&#160;</text><text fill="#000000" font-family="Dejavu Serif" font-size="13.5417" lengthAdjust="spacing" textLength="29.4373" x="20.9712" y="33.403">Test</text><text fill="#000000" font-family="Dejavu Serif" font-size="13.5417" lengthAdjust="spacing" textLength="4.3045" x="50.4084" y="33.403">&#160;</text><text fill="#000000" font-family="Dejavu Serif" font-size="13.5417" lengthAdjust="spacing" textLength="13.1648" x="54.7129" y="33.403">of</text><text fill="#000000" font-family="Dejavu Serif" font-size="13.5417" lengthAdjust="spacing" textLength="4.3045" x="67.8777" y="33.403">&#160;</text><text fill="#000000" font-family="Dejavu Serif" font-size="13.5417" lengthAdjust="spacing" textLength="35.9568" x="72.1822" y="33.403">some</text><text fill="#000000" font-family="Dejavu Serif" font-size="13.5417" lengthAdjust="spacing" textLength="4.3045" x="108.139" y="33.403">&#160;</text><text fill="#000000" font-family="Dejavu Serif" font-size="13.5417" lengthAdjust="spacing" textLength="41.0812" x="112.4435" y="33.403">EBNF</text><text fill="#000000" font-family="Dejavu Serif" font-size="13.5417" lengthAdjust="spacing" textLength="4.3045" x="153.5248" y="33.403">&#160;</text><text fill="#000000" font-family="Dejavu Serif" font-size="13.5417" lengthAdjust="spacing" textLength="62.326" x="157.8293" y="33.403">elements</text><text fill="#000000" font-family="Dejavu Serif" font-size="14.5833" font-weight="bold" lengthAdjust="spacing" textLength="49.3042" x="10.4167" y="71.1233">rule-0</text><line style="stroke:#181818;stroke-width:1.5625;" x1="41.6667" x2="41.6667" y1="98.6755" y2="98.6755"/><rect fill="#F1F1F1" height="27.3926" rx="5.2083" ry="5.2083" style="stroke:#181818;stroke-width:1.5625;" width="40.0747" x="41.6667" y="84.9792"/><text fill="#000000" font-family="Dejavu Serif" font-size="14.5833" lengthAdjust="spacing" textLength="29.658" x="46.875" y="103.7242">rule</text><line style="stroke:#181818;stroke-width:1.5625;" x1="81.7413" x2="102.5747" y1="98.6755" y2="98.6755"/><rect fill="#FFFFFF" fill-opacity="0.00000" height="27.3926" style="stroke:#181818;stroke-width:0.5208;" width="86.3881" x="102.5747" y="84.9792"/><text fill="#000000" font-family="Dejavu Serif" font-size="14.5833" lengthAdjust="spacing" textLength="75.9715" x="107.783" y="103.7242">litteral_dq</text><line style="stroke:#181818;stroke-width:1.5625;" x1="188.9628" x2="209.7961" y1="98.6755" y2="98.6755"/><rect fill="#FFFFFF" fill-opacity="0.00000" height="27.3926" style="stroke:#181818;stroke-width:0.5208;" width="84.5367" x="209.7961" y="84.9792"/><text fill="#000000" font-family="Dejavu Serif" font-size="14.5833" lengthAdjust="spacing" textLength="74.1201" x="215.0045" y="103.7242">litteral_sq</text><line style="stroke:#181818;stroke-width:1.5625;" x1="294.3329" x2="315.1662" y1="98.6755" y2="98.6755"/><rect fill="#FFFFFF" fill-opacity="0.00000" height="27.3926" style="stroke:#181818;stroke-width:1.0417;stroke-dasharray:5.0,5.0;" width="62.0565" x="315.1662" y="84.9792"/><text fill="#000000" font-family="Dejavu Serif" font-size="14.5833" lengthAdjust="spacing" textLength="51.6398" x="320.3746" y="103.7242">special</text><ellipse cx="14.5833" cy="98.6755" fill="#FFFFFF" fill-opacity="0.00000" rx="4.1667" ry="4.1667" style="stroke:#181818;stroke-width:2.0833;"/><ellipse cx="408.4727" cy="98.6755" fill="#181818" rx="4.1667" ry="4.1667" style="stroke:#181818;stroke-width:1.0417;"/><line style="stroke:#181818;stroke-width:1.5625;" x1="18.75" x2="41.6667" y1="98.6755" y2="98.6755"/><line style="stroke:#181818;stroke-width:1.5625;" x1="377.2227" x2="404.306" y1="98.6755" y2="98.6755"/><path d="M388.681,98.6755 L388.681,95.5505 L394.931,98.6755 L388.681,101.8005 L388.681,98.6755 " fill="#181818" style="stroke:#181818;stroke-width:1.5625;"/><text fill="#000000" font-family="Dejavu Serif" font-size="14.5833" font-weight="bold" lengthAdjust="spacing" textLength="17.8304" x="10.4167" y="141.6901">r1</text><line style="stroke:#181818;stroke-width:1.5625;" x1="41.6667" x2="41.6667" y1="181.7424" y2="181.7424"/><rect fill="#F1F1F1" height="27.3926" rx="5.2083" ry="5.2083" style="stroke:#181818;stroke-width:1.5625;" width="16.2771" x="41.6667" y="168.0461"/><text fill="#000000" font-family="Dejavu Serif" font-size="14.5833" lengthAdjust="spacing" textLength="5.8604" x="46.875" y="186.791">t</text><line style="stroke:#181818;stroke-width:1.5625;" x1="57.9437" x2="78.7771" y1="181.7424" y2="181.7424"/><line style="stroke:#181818;stroke-width:1.5625;" x1="78.7771" x2="150.6694" y1="181.7424" y2="181.7424"/><path d="M105.4506,181.7424 L105.4506,178.6174 L111.7006,181.7424 L105.4506,184.8674 L105.4506,181.7424 " fill="#181818" style="stroke:#181818;stroke-width:1.5625;"/><path d="M78.7771,181.7424 C88.1521,181.7424 91.2771,184.8674 91.2771,194.2424 " fill="#FFFFFF" fill-opacity="0.00000" style="stroke:#181818;stroke-width:1.5625;"/><path d="M91.2771,193.3553 C91.2771,202.7303 94.4021,205.8553 103.7771,205.8553 " fill="#FFFFFF" fill-opacity="0.00000" style="stroke:#181818;stroke-width:1.5625;"/><line style="stroke:#181818;stroke-width:1.5625;" x1="91.2771" x2="91.2771" y1="194.2424" y2="193.3553"/><path d="M138.1694,194.2424 C138.1694,184.8674 141.2944,181.7424 150.6694,181.7424 " fill="#FFFFFF" fill-opacity="0.00000" style="stroke:#181818;stroke-width:1.5625;"/><path d="M138.1694,193.3553 C138.1694,202.7303 135.0444,205.8553 125.6694,205.8553 " fill="#FFFFFF" fill-opacity="0.00000" style="stroke:#181818;stroke-width:1.5625;"/><line style="stroke:#181818;stroke-width:1.5625;" x1="138.1694" x2="138.1694" y1="194.2424" y2="193.3553"/><rect fill="#F1F1F1" height="27.3926" rx="5.2083" ry="5.2083" style="stroke:#181818;stroke-width:1.5625;" width="19.809" x="104.8187" y="192.159"/><text fill="#000000" font-family="Dejavu Serif" font-size="14.5833" lengthAdjust="spacing" textLength="9.3923" x="110.0271" y="210.9039">h</text><line style="stroke:#181818;stroke-width:1.5625;" x1="150.6694" x2="171.5027" y1="181.7424" y2="181.7424"/><line style="stroke:#181818;stroke-width:1.5625;" x1="171.5027" x2="273.8831" y1="181.7424" y2="181.7424"/><path d="M210.3715,181.7424 L210.3715,178.6174 L216.6215,181.7424 L210.3715,184.8674 L210.3715,181.7424 " fill="#181818" style="stroke:#181818;stroke-width:1.5625;"/><path d="M171.5027,181.7424 C180.8777,181.7424 184.0027,184.8674 184.0027,194.2424 " fill="#FFFFFF" fill-opacity="0.00000" style="stroke:#181818;stroke-width:1.5625;"/><path d="M184.0027,205.8553 C184.0027,215.2303 187.1277,218.3553 196.5027,218.3553 " fill="#FFFFFF" fill-opacity="0.00000" style="stroke:#181818;stroke-width:1.5625;"/><line style="stroke:#181818;stroke-width:1.5625;" x1="184.0027" x2="184.0027" y1="194.2424" y2="205.8553"/><path d="M261.3831,194.2424 C261.3831,184.8674 264.5081,181.7424 273.8831,181.7424 " fill="#FFFFFF" fill-opacity="0.00000" style="stroke:#181818;stroke-width:1.5625;"/><path d="M261.3831,205.8553 C261.3831,215.2303 258.2581,218.3553 248.8831,218.3553 " fill="#FFFFFF" fill-opacity="0.00000" style="stroke:#181818;stroke-width:1.5625;"/><line style="stroke:#181818;stroke-width:1.5625;" x1="261.3831" x2="261.3831" y1="194.2424" y2="205.8553"/><path d="M205.8777,210.022 C205.8777,216.272 207.961,218.3553 214.211,218.3553 " fill="#FFFFFF" fill-opacity="0.00000" style="stroke:#181818;stroke-width:1.5625;"/><line style="stroke:#181818;stroke-width:1.5625;" x1="205.8777" x2="205.8777" y1="205.7007" y2="210.022"/><path d="M205.8777,205.7007 C205.8777,199.4507 207.961,197.3674 214.211,197.3674 " fill="#FFFFFF" fill-opacity="0.00000" style="stroke:#181818;stroke-width:1.5625;"/><line style="stroke:#181818;stroke-width:1.5625;" x1="213.1694" x2="232.2164" y1="197.3674" y2="197.3674"/><path d="M222.5142,197.3674 L222.5142,194.2424 L216.2642,197.3674 L222.5142,200.4924 L222.5142,197.3674 " fill="#181818" style="stroke:#181818;stroke-width:1.5625;"/><path d="M239.5081,210.022 C239.5081,216.272 237.4247,218.3553 231.1747,218.3553 " fill="#FFFFFF" fill-opacity="0.00000" style="stroke:#181818;stroke-width:1.5625;"/><line style="stroke:#181818;stroke-width:1.5625;" x1="239.5081" x2="239.5081" y1="205.7007" y2="210.022"/><path d="M231.1747,197.3674 C237.4247,197.3674 239.5081,199.4507 239.5081,205.7007 " fill="#FFFFFF" fill-opacity="0.00000" style="stroke:#181818;stroke-width:1.5625;"/><line style="stroke:#181818;stroke-width:1.5625;" x1="197.5444" x2="213.1694" y1="218.3553" y2="218.3553"/><line style="stroke:#181818;stroke-width:1.5625;" x1="232.2164" x2="247.8414" y1="218.3553" y2="218.3553"/><rect fill="#F1F1F1" height="27.3926" rx="5.2083" ry="5.2083" style="stroke:#181818;stroke-width:1.5625;" width="19.047" x="213.1694" y="204.659"/><text fill="#000000" font-family="Dejavu Serif" font-size="14.5833" lengthAdjust="spacing" textLength="8.6304" x="218.3777" y="223.4039">e</text><line style="stroke:#181818;stroke-width:1.5625;" x1="273.8831" x2="294.7164" y1="181.7424" y2="181.7424"/><path d="M303.0497,173.409 C303.0497,179.659 305.1331,181.7424 311.3831,181.7424 " fill="#FFFFFF" fill-opacity="0.00000" style="stroke:#181818;stroke-width:1.5625;"/><line style="stroke:#181818;stroke-width:1.5625;" x1="303.0497" x2="303.0497" y1="169.0877" y2="173.409"/><path d="M303.0497,169.0877 C303.0497,162.8377 305.1331,160.7544 311.3831,160.7544 " fill="#FFFFFF" fill-opacity="0.00000" style="stroke:#181818;stroke-width:1.5625;"/><line style="stroke:#181818;stroke-width:1.5625;" x1="310.3414" x2="329.538" y1="160.7544" y2="160.7544"/><path d="M319.776,160.7544 L319.776,157.6294 L313.526,160.7544 L319.776,163.8794 L319.776,160.7544 " fill="#181818" style="stroke:#181818;stroke-width:1.5625;"/><path d="M336.8296,173.409 C336.8296,179.659 334.7463,181.7424 328.4963,181.7424 " fill="#FFFFFF" fill-opacity="0.00000" style="stroke:#181818;stroke-width:1.5625;"/><line style="stroke:#181818;stroke-width:1.5625;" x1="336.8296" x2="336.8296" y1="169.0877" y2="173.409"/><path d="M328.4963,160.7544 C334.7463,160.7544 336.8296,162.8377 336.8296,169.0877 " fill="#FFFFFF" fill-opacity="0.00000" style="stroke:#181818;stroke-width:1.5625;"/><line style="stroke:#181818;stroke-width:1.5625;" x1="294.7164" x2="310.3414" y1="181.7424" y2="181.7424"/><line style="stroke:#181818;stroke-width:1.5625;" x1="329.538" x2="345.163" y1="181.7424" y2="181.7424"/><rect fill="#F1F1F1" height="27.3926" rx="5.2083" ry="5.2083" style="stroke:#181818;stroke-width:1.5625;" width="19.1966" x="310.3414" y="168.0461"/><text fill="#000000" font-family="Dejavu Serif" font-size="14.5833" lengthAdjust="spacing" textLength="8.7799" x="315.5497" y="186.791">o</text><ellipse cx="14.5833" cy="181.7424" fill="#FFFFFF" fill-opacity="0.00000" rx="4.1667" ry="4.1667" style="stroke:#181818;stroke-width:2.0833;"/><ellipse cx="376.413" cy="181.7424" fill="#181818" rx="4.1667" ry="4.1667" style="stroke:#181818;stroke-width:1.0417;"/><line style="stroke:#181818;stroke-width:1.5625;" x1="18.75" x2="41.6667" y1="181.7424" y2="181.7424"/><line style="stroke:#181818;stroke-width:1.5625;" x1="345.163" x2="372.2463" y1="181.7424" y2="181.7424"/><path d="M356.6213,181.7424 L356.6213,178.6174 L362.8713,181.7424 L356.6213,184.8674 L356.6213,181.7424 " fill="#181818" style="stroke:#181818;stroke-width:1.5625;"/><text fill="#000000" font-family="Dejavu Serif" font-size="14.5833" font-weight="bold" lengthAdjust="spacing" textLength="17.8304" x="10.4167" y="261.3698">r2</text><line style="stroke:#181818;stroke-width:1.5625;" x1="41.6667" x2="41.6667" y1="317.0471" y2="317.0471"/><path d="M75,308.7138 C75,314.9638 77.0833,317.0471 83.3333,317.0471 " fill="#FFFFFF" fill-opacity="0.00000" style="stroke:#181818;stroke-width:1.5625;"/><line style="stroke:#181818;stroke-width:1.5625;" x1="75" x2="75" y1="304.3925" y2="308.7138"/><path d="M75,304.3925 C75,298.1425 77.0833,296.0592 83.3333,296.0592 " fill="#FFFFFF" fill-opacity="0.00000" style="stroke:#181818;stroke-width:1.5625;"/><line style="stroke:#181818;stroke-width:1.5625;" x1="82.2917" x2="111.4288" y1="296.0592" y2="296.0592"/><path d="M97.6906,296.0592 L97.6906,292.9342 L91.4406,296.0592 L97.6906,299.1842 L97.6906,296.0592 " fill="#181818" style="stroke:#181818;stroke-width:1.5625;"/><path d="M118.7205,308.7138 C118.7205,314.9638 116.6372,317.0471 110.3872,317.0471 " fill="#FFFFFF" fill-opacity="0.00000" style="stroke:#181818;stroke-width:1.5625;"/><line style="stroke:#181818;stroke-width:1.5625;" x1="118.7205" x2="118.7205" y1="304.3925" y2="308.7138"/><path d="M110.3872,296.0592 C116.6372,296.0592 118.7205,298.1425 118.7205,304.3925 " fill="#FFFFFF" fill-opacity="0.00000" style="stroke:#181818;stroke-width:1.5625;"/><line style="stroke:#181818;stroke-width:1.5625;" x1="66.6667" x2="82.2917" y1="317.0471" y2="317.0471"/><line style="stroke:#181818;stroke-width:1.5625;" x1="111.4288" x2="127.0538" y1="317.0471" y2="317.0471"/><rect fill="#F1F1F1" height="27.3926" rx="5.2083" ry="5.2083" style="stroke:#181818;stroke-width:1.5625;" width="29.1372" x="82.2917" y="303.3508"/><text fill="#000000" font-family="Dejavu Serif" font-size="14.5833" lengthAdjust="spacing" textLength="18.7205" x="87.5" y="322.0957">nil</text><path d="M66.6667,290.8508 C66.6667,286.9446 67.9688,285.6425 71.875,285.6425 " fill="#FFFFFF" fill-opacity="0.00000" style="stroke:#181818;stroke-width:0.5208;"/><path d="M96.8602,280.4342 C96.8602,284.3404 95.5582,285.6425 91.6519,285.6425 " fill="#FFFFFF" fill-opacity="0.00000" style="stroke:#181818;stroke-width:0.5208;"/><path d="M96.8602,280.4342 C96.8602,284.3404 98.1623,285.6425 102.0686,285.6425 " fill="#FFFFFF" fill-opacity="0.00000" style="stroke:#181818;stroke-width:0.5208;"/><path d="M121.8455,285.6425 C125.7517,285.6425 127.0538,286.9446 127.0538,290.8508 " fill="#FFFFFF" fill-opacity="0.00000" style="stroke:#181818;stroke-width:0.5208;"/><line style="stroke:#181818;stroke-width:0.5208;" x1="71.875" x2="91.6519" y1="285.6425" y2="285.6425"/><line style="stroke:#181818;stroke-width:0.5208;" x1="102.0686" x2="121.8455" y1="285.6425" y2="285.6425"/><text fill="#000000" font-family="Dejavu Serif" font-size="12.5" lengthAdjust="spacing" textLength="18.4265" x="87.647" y="278.1738">3&#215;</text><line style="stroke:#181818;stroke-width:1.5625;" x1="41.6667" x2="66.6667" y1="317.0471" y2="317.0471"/><line style="stroke:#181818;stroke-width:1.5625;" x1="127.0538" x2="152.0538" y1="317.0471" y2="317.0471"/><rect fill="#F1F1F1" height="27.3926" rx="5.2083" ry="5.2083" style="stroke:#181818;stroke-width:1.5625;" width="18.1" x="66.6667" y="341.1601"/><text fill="#000000" font-family="Dejavu Serif" font-size="14.5833" lengthAdjust="spacing" textLength="7.6833" x="71.875" y="359.905">z</text><line style="stroke:#181818;stroke-width:1.5625;" x1="84.7666" x2="127.0538" y1="354.8564" y2="354.8564"/><path d="M103.8269,354.8564 L103.8269,351.7314 L110.0769,354.8564 L103.8269,357.9814 L103.8269,354.8564 " fill="#181818" style="stroke:#181818;stroke-width:1.5625;"/><path d="M54.1667,342.3564 C54.1667,351.7314 57.2917,354.8564 66.6667,354.8564 " fill="#FFFFFF" fill-opacity="0.00000" style="stroke:#181818;stroke-width:1.5625;"/><line style="stroke:#181818;stroke-width:1.5625;" x1="54.1667" x2="54.1667" y1="329.5471" y2="342.3564"/><path d="M41.6667,317.0471 C51.0417,317.0471 54.1667,320.1721 54.1667,329.5471 " fill="#FFFFFF" fill-opacity="0.00000" style="stroke:#181818;stroke-width:1.5625;"/><path d="M139.5538,342.3564 C139.5538,351.7314 136.4288,354.8564 127.0538,354.8564 " fill="#FFFFFF" fill-opacity="0.00000" style="stroke:#181818;stroke-width:1.5625;"/><line style="stroke:#181818;stroke-width:1.5625;" x1="139.5538" x2="139.5538" y1="329.5471" y2="342.3564"/><path d="M139.5538,329.5471 C139.5538,320.1721 142.6788,317.0471 152.0538,317.0471 " fill="#FFFFFF" fill-opacity="0.00000" style="stroke:#181818;stroke-width:1.5625;"/><line style="stroke:#181818;stroke-width:1.5625;" x1="152.0538" x2="172.8872" y1="317.0471" y2="317.0471"/><rect fill="#F1F1F1" height="27.3926" rx="5.2083" ry="5.2083" style="stroke:#181818;stroke-width:1.5625;" width="17.3879" x="197.8872" y="303.3508"/><text fill="#000000" font-family="Dejavu Serif" font-size="14.5833" lengthAdjust="spacing" textLength="6.9712" x="203.0955" y="322.0957">r</text><line style="stroke:#181818;stroke-width:1.5625;" x1="172.8872" x2="197.8872" y1="317.0471" y2="317.0471"/><line style="stroke:#181818;stroke-width:1.5625;" x1="215.2751" x2="240.7878" y1="317.0471" y2="317.0471"/><rect fill="#F1F1F1" height="27.3926" rx="5.2083" ry="5.2083" style="stroke:#181818;stroke-width:1.5625;" width="17.9006" x="197.8872" y="341.1601"/><text fill="#000000" font-family="Dejavu Serif" font-size="14.5833" lengthAdjust="spacing" textLength="7.4839" x="203.0955" y="359.905">s</text><line style="stroke:#181818;stroke-width:1.5625;" x1="215.7878" x2="215.7878" y1="354.8564" y2="354.8564"/><path d="M185.3872,342.3564 C185.3872,351.7314 188.5122,354.8564 197.8872,354.8564 " fill="#FFFFFF" fill-opacity="0.00000" style="stroke:#181818;stroke-width:1.5625;"/><line style="stroke:#181818;stroke-width:1.5625;" x1="185.3872" x2="185.3872" y1="329.5471" y2="342.3564"/><path d="M172.8872,317.0471 C182.2622,317.0471 185.3872,320.1721 185.3872,329.5471 " fill="#FFFFFF" fill-opacity="0.00000" style="stroke:#181818;stroke-width:1.5625;"/><path d="M228.2878,342.3564 C228.2878,351.7314 225.1628,354.8564 215.7878,354.8564 " fill="#FFFFFF" fill-opacity="0.00000" style="stroke:#181818;stroke-width:1.5625;"/><line style="stroke:#181818;stroke-width:1.5625;" x1="228.2878" x2="228.2878" y1="329.5471" y2="342.3564"/><path d="M228.2878,329.5471 C228.2878,320.1721 231.4128,317.0471 240.7878,317.0471 " fill="#FFFFFF" fill-opacity="0.00000" style="stroke:#181818;stroke-width:1.5625;"/><line style="stroke:#181818;stroke-width:1.5625;" x1="240.7878" x2="261.6211" y1="317.0471" y2="317.0471"/><rect fill="#F1F1F1" height="27.3926" rx="5.2083" ry="5.2083" style="stroke:#181818;stroke-width:1.5625;" width="16.2771" x="261.6211" y="303.3508"/><text fill="#000000" font-family="Dejavu Serif" font-size="14.5833" lengthAdjust="spacing" textLength="5.8604" x="266.8294" y="322.0957">t</text><ellipse cx="14.5833" cy="317.0471" fill="#FFFFFF" fill-opacity="0.00000" rx="4.1667" ry="4.1667" style="stroke:#181818;stroke-width:2.0833;"/><ellipse cx="309.1482" cy="317.0471" fill="#181818" rx="4.1667" ry="4.1667" style="stroke:#181818;stroke-width:1.0417;"/><line style="stroke:#181818;stroke-width:1.5625;" x1="18.75" x2="41.6667" y1="317.0471" y2="317.0471"/><line style="stroke:#181818;stroke-width:1.5625;" x1="277.8982" x2="304.9815" y1="317.0471" y2="317.0471"/><path d="M289.3565,317.0471 L289.3565,313.9221 L295.6065,317.0471 L289.3565,320.1721 L289.3565,317.0471 " fill="#181818" style="stroke:#181818;stroke-width:1.5625;"/><text fill="#000000" font-family="Dejavu Serif" font-size="14.5833" font-weight="bold" lengthAdjust="spacing" textLength="9.2784" x="10.4167" y="397.8709">e</text><ellipse cx="14.5833" cy="411.7269" fill="#FFFFFF" fill-opacity="0.00000" rx="4.1667" ry="4.1667" style="stroke:#181818;stroke-width:2.0833;"/><ellipse cx="72.9167" cy="411.7269" fill="#181818" rx="4.1667" ry="4.1667" style="stroke:#181818;stroke-width:1.0417;"/><line style="stroke:#181818;stroke-width:1.5625;" x1="18.75" x2="41.6667" y1="411.7269" y2="411.7269"/><line style="stroke:#181818;stroke-width:1.5625;" x1="41.6667" x2="68.75" y1="411.7269" y2="411.7269"/><path d="M53.125,411.7269 L53.125,408.6019 L59.375,411.7269 L53.125,414.8519 L53.125,411.7269 " fill="#181818" style="stroke:#181818;stroke-width:1.5625;"/></g></svg>