<svg xmlns="http://www.w3.org/2000/svg" xmlns:xlink="http://www.w3.org/1999/xlink" contentStyleType="text/css" height="408.3333px" preserveAspectRatio="none" style="width:384px;height:408px;" version="1.1" viewBox="0 0 384 408" width="384.375px" zoomAndPan="magnify"><defs/><g><path d="M10.4167,15.625 L10.4167,51.0091 L230.4342,51.0091 L230.4342,26.0417 L220.0175,15.625 L10.4167,15.625 " fill="#17A2B8" style="stroke:#1592A6;stroke-width:1.0417;"/><path d="M220.0175,15.625 L220.0175,26.0417 L230.4342,26.0417 L220.0175,15.625 " fill="#17A2B8" style="stroke:#1592A6;stroke-width:1.0417;"/><text fill="#FFFFFF" font-family="Verdana" font-size="12.5" lengthAdjust="spacing" textLength="179.7791" x="25.8484" y="37.6444">Test of some EBNF elements</text><text fill="#FFFFFF" font-family="Verdana" font-size="12.5" font-weight="bold" lengthAdjust="spacing" textLength="41.7114" x="10.4167" y="78.2369">rule-0</text><line style="stroke:#D24C1D;stroke-width:1.5625;" x1="41.6667" x2="41.6667" y1="104.0853" y2="104.0853"/><rect fill="none" height="24.9674" rx="5.2083" ry="5.2083" style="stroke:#D24C1D;stroke-width:1.5625;" width="34.6415" x="41.6667" y="91.6016"/><text fill="#FFFFFF" font-family="Verdana" font-size="12.5" lengthAdjust="spacing" textLength="24.2249" x="46.875" y="108.4127">rule</text><line style="stroke:#D24C1D;stroke-width:1.5625;" x1="76.3082" x2="97.1415" y1="104.0853" y2="104.0853"/><rect fill="none" height="24.9674" style="stroke:#D24C1D;stroke-width:0.5208;" width="73.2463" x="97.1415" y="91.6016"/><text fill="#FFFFFF" font-family="Verdana" font-size="12.5" lengthAdjust="spacing" textLength="62.8296" x="102.3499" y="108.4127">litteral_dq</text><line style="stroke:#D24C1D;stroke-width:1.5625;" x1="170.3878" x2="191.2211" y1="104.0853" y2="104.0853"/><rect fill="none" height="24.9674" style="stroke:#D24C1D;stroke-width:0.5208;" width="71.8241" x="191.2211" y="91.6016"/><text fill="#FFFFFF" font-family="Verdana" font-size="12.5" lengthAdjust="spacing" textLength="61.4075" x="196.4294" y="108.4127">litteral_sq</text><line style="stroke:#D24C1D;stroke-width:1.5625;" x1="263.0452" x2="283.8786" y1="104.0853" y2="104.0853"/><rect fill="none" height="24.9674" style="stroke:#D24C1D;stroke-width:1.0417;stroke-dasharray:5.0,5.0;" width="54.0324" x="283.8786" y="91.6016"/><text fill="#FFFFFF" font-family="Verdana" font-size="12.5" lengthAdjust="spacing" textLength="43.6157" x="289.0869" y="108.4127">special</text><ellipse cx="14.5833" cy="104.0853" fill="none" rx="4.1667" ry="4.1667" style="stroke:#D24C1D;stroke-width:2.0833;"/><ellipse cx="369.161" cy="104.0853" fill="#D24C1D" rx="4.1667" ry="4.1667" style="stroke:#D24C1D;stroke-width:1.0417;"/><line style="stroke:#D24C1D;stroke-width:1.5625;" x1="18.75" x2="41.6667" y1="104.0853" y2="104.0853"/><line style="stroke:#D24C1D;stroke-width:1.5625;" x1="337.911" x2="364.9943" y1="104.0853" y2="104.0853"/><path d="M349.3693,104.0853 L349.3693,100.9603 L355.6193,104.0853 L349.3693,107.2103 L349.3693,104.0853 " fill="#D24C1D" style="stroke:#D24C1D;stroke-width:1.5625;"/><text fill="#FFFFFF" font-family="Verdana" font-size="12.5" font-weight="bold" lengthAdjust="spacing" textLength="14.8621" x="10.4167" y="143.7968">r1</text><line style="stroke:#D24C1D;stroke-width:1.5625;" x1="41.6667" x2="41.6667" y1="198.8118" y2="198.8118"/><rect fill="none" height="24.9674" rx="5.2083" ry="5.2083" style="stroke:#D24C1D;stroke-width:1.5625;" width="15.3178" x="41.6667" y="186.3281"/><text fill="#FFFFFF" font-family="Verdana" font-size="12.5" lengthAdjust="spacing" textLength="4.9011" x="46.875" y="203.1392">t</text><line style="stroke:#D24C1D;stroke-width:1.5625;" x1="56.9845" x2="77.8178" y1="198.8118" y2="198.8118"/><path d="M86.1511,190.4785 C86.1511,196.7285 84.0678,198.8118 77.8178,198.8118 " fill="none" style="stroke:#D24C1D;stroke-width:1.5625;"/><line style="stroke:#D24C1D;stroke-width:1.5625;" x1="86.1511" x2="86.1511" y1="183.2031" y2="190.4785"/><path d="M86.1511,183.2031 C86.1511,176.9531 88.2345,174.8698 94.4845,174.8698 " fill="none" style="stroke:#D24C1D;stroke-width:1.5625;"/><line style="stroke:#D24C1D;stroke-width:1.5625;" x1="94.4845" x2="110.7402" y1="174.8698" y2="174.8698"/><path d="M98.9034,174.8698 L98.9034,171.7448 L105.1534,174.8698 L98.9034,177.9948 L98.9034,174.8698 " fill="#D24C1D" style="stroke:#D24C1D;stroke-width:1.5625;"/><path d="M119.0735,190.4785 C119.0735,196.7285 121.1568,198.8118 127.4068,198.8118 " fill="none" style="stroke:#D24C1D;stroke-width:1.5625;"/><line style="stroke:#D24C1D;stroke-width:1.5625;" x1="119.0735" x2="119.0735" y1="183.2031" y2="190.4785"/><path d="M110.7402,174.8698 C116.9902,174.8698 119.0735,176.9531 119.0735,183.2031 " fill="none" style="stroke:#D24C1D;stroke-width:1.5625;"/><line style="stroke:#D24C1D;stroke-width:1.5625;" x1="77.8178" x2="93.4428" y1="198.8118" y2="198.8118"/><line style="stroke:#D24C1D;stroke-width:1.5625;" x1="111.7818" x2="127.4068" y1="198.8118" y2="198.8118"/><rect fill="none" height="24.9674" rx="5.2083" ry="5.2083" style="stroke:#D24C1D;stroke-width:1.5625;" width="18.339" x="93.4428" y="186.3281"/><text fill="#FFFFFF" font-family="Verdana" font-size="12.5" lengthAdjust="spacing" textLength="7.9224" x="98.6511" y="203.1392">h</text><line style="stroke:#D24C1D;stroke-width:1.5625;" x1="127.4068" x2="148.2402" y1="198.8118" y2="198.8118"/><path d="M156.5735,190.4785 C156.5735,196.7285 154.4902,198.8118 148.2402,198.8118 " fill="none" style="stroke:#D24C1D;stroke-width:1.5625;"/><line style="stroke:#D24C1D;stroke-width:1.5625;" x1="156.5735" x2="156.5735" y1="170.7031" y2="190.4785"/><path d="M156.5735,170.7031 C156.5735,164.4531 158.6568,162.3698 164.9068,162.3698 " fill="none" style="stroke:#D24C1D;stroke-width:1.5625;"/><line style="stroke:#D24C1D;stroke-width:1.5625;" x1="164.9068" x2="212.1806" y1="162.3698" y2="162.3698"/><path d="M181.733,162.3698 L181.733,159.2448 L187.983,162.3698 L181.733,165.4948 L181.733,162.3698 " fill="#D24C1D" style="stroke:#D24C1D;stroke-width:1.5625;"/><path d="M220.5139,190.4785 C220.5139,196.7285 222.5972,198.8118 228.8472,198.8118 " fill="none" style="stroke:#D24C1D;stroke-width:1.5625;"/><line style="stroke:#D24C1D;stroke-width:1.5625;" x1="220.5139" x2="220.5139" y1="170.7031" y2="190.4785"/><path d="M212.1806,162.3698 C218.4306,162.3698 220.5139,164.4531 220.5139,170.7031 " fill="none" style="stroke:#D24C1D;stroke-width:1.5625;"/><line style="stroke:#D24C1D;stroke-width:1.5625;" x1="148.2402" x2="163.8652" y1="198.8118" y2="198.8118"/><line style="stroke:#D24C1D;stroke-width:1.5625;" x1="213.2222" x2="228.8472" y1="198.8118" y2="198.8118"/><path d="M172.1985,190.4785 C172.1985,196.7285 174.2818,198.8118 180.5318,198.8118 " fill="none" style="stroke:#D24C1D;stroke-width:1.5625;"/><line style="stroke:#D24C1D;stroke-width:1.5625;" x1="172.1985" x2="172.1985" y1="187.3698" y2="190.4785"/><path d="M172.1985,187.3698 C172.1985,181.1198 174.2818,179.0365 180.5318,179.0365 " fill="none" style="stroke:#D24C1D;stroke-width:1.5625;"/><line style="stroke:#D24C1D;stroke-width:1.5625;" x1="179.4902" x2="197.5972" y1="179.0365" y2="179.0365"/><path d="M188.2711,179.0365 L188.2711,175.9115 L182.0211,179.0365 L188.2711,182.1615 L188.2711,179.0365 " fill="#D24C1D" style="stroke:#D24C1D;stroke-width:1.5625;"/><path d="M204.8889,190.4785 C204.8889,196.7285 202.8056,198.8118 196.5556,198.8118 " fill="none" style="stroke:#D24C1D;stroke-width:1.5625;"/><line style="stroke:#D24C1D;stroke-width:1.5625;" x1="204.8889" x2="204.8889" y1="187.3698" y2="190.4785"/><path d="M196.5556,179.0365 C202.8056,179.0365 204.8889,181.1198 204.8889,187.3698 " fill="none" style="stroke:#D24C1D;stroke-width:1.5625;"/><line style="stroke:#D24C1D;stroke-width:1.5625;" x1="163.8652" x2="179.4902" y1="198.8118" y2="198.8118"/><line style="stroke:#D24C1D;stroke-width:1.5625;" x1="197.5972" x2="213.2222" y1="198.8118" y2="198.8118"/><rect fill="none" height="24.9674" rx="5.2083" ry="5.2083" style="stroke:#D24C1D;stroke-width:1.5625;" width="18.1071" x="179.4902" y="186.3281"/><text fill="#FFFFFF" font-family="Verdana" font-size="12.5" lengthAdjust="spacing" textLength="7.6904" x="184.6985" y="203.1392">e</text><line style="stroke:#D24C1D;stroke-width:1.5625;" x1="228.8472" x2="249.6806" y1="198.8118" y2="198.8118"/><path d="M258.0139,190.4785 C258.0139,196.7285 260.0972,198.8118 266.3472,198.8118 " fill="none" style="stroke:#D24C1D;stroke-width:1.5625;"/><line style="stroke:#D24C1D;stroke-width:1.5625;" x1="258.0139" x2="258.0139" y1="187.3698" y2="190.4785"/><path d="M258.0139,187.3698 C258.0139,181.1198 260.0972,179.0365 266.3472,179.0365 " fill="none" style="stroke:#D24C1D;stroke-width:1.5625;"/><line style="stroke:#D24C1D;stroke-width:1.5625;" x1="265.3056" x2="283.37" y1="179.0365" y2="179.0365"/><path d="M274.0609,179.0365 L274.0609,175.9115 L267.8109,179.0365 L274.0609,182.1615 L274.0609,179.0365 " fill="#D24C1D" style="stroke:#D24C1D;stroke-width:1.5625;"/><path d="M290.6616,190.4785 C290.6616,196.7285 288.5783,198.8118 282.3283,198.8118 " fill="none" style="stroke:#D24C1D;stroke-width:1.5625;"/><line style="stroke:#D24C1D;stroke-width:1.5625;" x1="290.6616" x2="290.6616" y1="187.3698" y2="190.4785"/><path d="M282.3283,179.0365 C288.5783,179.0365 290.6616,181.1198 290.6616,187.3698 " fill="none" style="stroke:#D24C1D;stroke-width:1.5625;"/><line style="stroke:#D24C1D;stroke-width:1.5625;" x1="249.6806" x2="265.3056" y1="198.8118" y2="198.8118"/><line style="stroke:#D24C1D;stroke-width:1.5625;" x1="283.37" x2="298.995" y1="198.8118" y2="198.8118"/><rect fill="none" height="24.9674" rx="5.2083" ry="5.2083" style="stroke:#D24C1D;stroke-width:1.5625;" width="18.0644" x="265.3056" y="186.3281"/><text fill="#FFFFFF" font-family="Verdana" font-size="12.5" lengthAdjust="spacing" textLength="7.6477" x="270.5139" y="203.1392">o</text><ellipse cx="14.5833" cy="198.8118" fill="none" rx="4.1667" ry="4.1667" style="stroke:#D24C1D;stroke-width:2.0833;"/><ellipse cx="330.245" cy="198.8118" fill="#D24C1D" rx="4.1667" ry="4.1667" style="stroke:#D24C1D;stroke-width:1.0417;"/><line style="stroke:#D24C1D;stroke-width:1.5625;" x1="18.75" x2="41.6667" y1="198.8118" y2="198.8118"/><line style="stroke:#D24C1D;stroke-width:1.5625;" x1="298.995" x2="326.0783" y1="198.8118" y2="198.8118"/><path d="M310.4533,198.8118 L310.4533,195.6868 L316.7033,198.8118 L310.4533,201.9368 L310.4533,198.8118 " fill="#D24C1D" style="stroke:#D24C1D;stroke-width:1.5625;"/><text fill="#FFFFFF" font-family="Verdana" font-size="12.5" font-weight="bold" lengthAdjust="spacing" textLength="14.8621" x="10.4167" y="238.5234">r2</text><line style="stroke:#D24C1D;stroke-width:1.5625;" x1="41.6667" x2="41.6667" y1="292.4967" y2="292.4967"/><path d="M75,284.1634 C75,290.4134 77.0833,292.4967 83.3333,292.4967 " fill="none" style="stroke:#D24C1D;stroke-width:1.5625;"/><line style="stroke:#D24C1D;stroke-width:1.5625;" x1="75" x2="75" y1="281.0547" y2="284.1634"/><path d="M75,281.0547 C75,274.8047 77.0833,272.7214 83.3333,272.7214 " fill="none" style="stroke:#D24C1D;stroke-width:1.5625;"/><line style="stroke:#D24C1D;stroke-width:1.5625;" x1="82.2917" x2="107.5765" y1="272.7214" y2="272.7214"/><path d="M95.3792,272.7214 L95.3792,269.5964 L89.1292,272.7214 L95.3792,275.8464 L95.3792,272.7214 " fill="#D24C1D" style="stroke:#D24C1D;stroke-width:1.5625;"/><path d="M114.8682,284.1634 C114.8682,290.4134 112.7848,292.4967 106.5348,292.4967 " fill="none" style="stroke:#D24C1D;stroke-width:1.5625;"/><line style="stroke:#D24C1D;stroke-width:1.5625;" x1="114.8682" x2="114.8682" y1="281.0547" y2="284.1634"/><path d="M106.5348,272.7214 C112.7848,272.7214 114.8682,274.8047 114.8682,281.0547 " fill="none" style="stroke:#D24C1D;stroke-width:1.5625;"/><line style="stroke:#D24C1D;stroke-width:1.5625;" x1="66.6667" x2="82.2917" y1="292.4967" y2="292.4967"/><line style="stroke:#D24C1D;stroke-width:1.5625;" x1="107.5765" x2="123.2015" y1="292.4967" y2="292.4967"/><rect fill="none" height="24.9674" rx="5.2083" ry="5.2083" style="stroke:#D24C1D;stroke-width:1.5625;" width="25.2848" x="82.2917" y="280.013"/><text fill="#FFFFFF" font-family="Verdana" font-size="12.5" lengthAdjust="spacing" textLength="14.8682" x="87.5" y="296.8241">nil</text><path d="M66.6667,267.513 C66.6667,263.6068 67.9688,262.3047 71.875,262.3047 " fill="none" style="stroke:#D24C1D;stroke-width:0.5208;"/><path d="M94.9341,257.0964 C94.9341,261.0026 93.632,262.3047 89.7257,262.3047 " fill="none" style="stroke:#D24C1D;stroke-width:0.5208;"/><path d="M94.9341,257.0964 C94.9341,261.0026 96.2362,262.3047 100.1424,262.3047 " fill="none" style="stroke:#D24C1D;stroke-width:0.5208;"/><path d="M117.9932,262.3047 C121.8994,262.3047 123.2015,263.6068 123.2015,267.513 " fill="none" style="stroke:#D24C1D;stroke-width:0.5208;"/><line style="stroke:#D24C1D;stroke-width:0.5208;" x1="71.875" x2="89.7257" y1="262.3047" y2="262.3047"/><line style="stroke:#D24C1D;stroke-width:0.5208;" x1="100.1424" x2="117.9932" y1="262.3047" y2="262.3047"/><text fill="#FFFFFF" font-family="Verdana" font-size="10.4167" lengthAdjust="spacing" textLength="15.3554" x="87.2564" y="254.3447">3&#215;</text><line style="stroke:#D24C1D;stroke-width:1.5625;" x1="41.6667" x2="66.6667" y1="292.4967" y2="292.4967"/><line style="stroke:#D24C1D;stroke-width:1.5625;" x1="123.2015" x2="148.2015" y1="292.4967" y2="292.4967"/><rect fill="none" height="24.9674" rx="5.2083" ry="5.2083" style="stroke:#D24C1D;stroke-width:1.5625;" width="16.9779" x="66.6667" y="315.3971"/><text fill="#FFFFFF" font-family="Verdana" font-size="12.5" lengthAdjust="spacing" textLength="6.5613" x="71.875" y="332.2083">z</text><line style="stroke:#D24C1D;stroke-width:1.5625;" x1="83.6446" x2="123.2015" y1="327.8809" y2="327.8809"/><path d="M101.3397,327.8809 L101.3397,324.7559 L107.5897,327.8809 L101.3397,331.0059 L101.3397,327.8809 " fill="#D24C1D" style="stroke:#D24C1D;stroke-width:1.5625;"/><path d="M54.1667,315.3809 C54.1667,324.7559 57.2917,327.8809 66.6667,327.8809 " fill="none" style="stroke:#D24C1D;stroke-width:1.5625;"/><line style="stroke:#D24C1D;stroke-width:1.5625;" x1="54.1667" x2="54.1667" y1="304.9967" y2="315.3809"/><path d="M41.6667,292.4967 C51.0417,292.4967 54.1667,295.6217 54.1667,304.9967 " fill="none" style="stroke:#D24C1D;stroke-width:1.5625;"/><path d="M135.7015,315.3809 C135.7015,324.7559 132.5765,327.8809 123.2015,327.8809 " fill="none" style="stroke:#D24C1D;stroke-width:1.5625;"/><line style="stroke:#D24C1D;stroke-width:1.5625;" x1="135.7015" x2="135.7015" y1="304.9967" y2="315.3809"/><path d="M135.7015,304.9967 C135.7015,295.6217 138.8265,292.4967 148.2015,292.4967 " fill="none" style="stroke:#D24C1D;stroke-width:1.5625;"/><line style="stroke:#D24C1D;stroke-width:1.5625;" x1="148.2015" x2="169.0348" y1="292.4967" y2="292.4967"/><rect fill="none" height="24.9674" rx="5.2083" ry="5.2083" style="stroke:#D24C1D;stroke-width:1.5625;" width="15.5558" x="194.0348" y="280.013"/><text fill="#FFFFFF" font-family="Verdana" font-size="12.5" lengthAdjust="spacing" textLength="5.1392" x="199.2432" y="296.8241">r</text><line style="stroke:#D24C1D;stroke-width:1.5625;" x1="169.0348" x2="194.0348" y1="292.4967" y2="292.4967"/><line style="stroke:#D24C1D;stroke-width:1.5625;" x1="209.5907" x2="235.9639" y1="292.4967" y2="292.4967"/><rect fill="none" height="24.9674" rx="5.2083" ry="5.2083" style="stroke:#D24C1D;stroke-width:1.5625;" width="16.9291" x="194.0348" y="315.3971"/><text fill="#FFFFFF" font-family="Verdana" font-size="12.5" lengthAdjust="spacing" textLength="6.5125" x="199.2432" y="332.2083">s</text><line style="stroke:#D24C1D;stroke-width:1.5625;" x1="210.9639" x2="210.9639" y1="327.8809" y2="327.8809"/><path d="M181.5348,315.3809 C181.5348,324.7559 184.6598,327.8809 194.0348,327.8809 " fill="none" style="stroke:#D24C1D;stroke-width:1.5625;"/><line style="stroke:#D24C1D;stroke-width:1.5625;" x1="181.5348" x2="181.5348" y1="304.9967" y2="315.3809"/><path d="M169.0348,292.4967 C178.4098,292.4967 181.5348,295.6217 181.5348,304.9967 " fill="none" style="stroke:#D24C1D;stroke-width:1.5625;"/><path d="M223.4639,315.3809 C223.4639,324.7559 220.3389,327.8809 210.9639,327.8809 " fill="none" style="stroke:#D24C1D;stroke-width:1.5625;"/><line style="stroke:#D24C1D;stroke-width:1.5625;" x1="223.4639" x2="223.4639" y1="304.9967" y2="315.3809"/><path d="M223.4639,304.9967 C223.4639,295.6217 226.5889,292.4967 235.9639,292.4967 " fill="none" style="stroke:#D24C1D;stroke-width:1.5625;"/><line style="stroke:#D24C1D;stroke-width:1.5625;" x1="235.9639" x2="256.7973" y1="292.4967" y2="292.4967"/><rect fill="none" height="24.9674" rx="5.2083" ry="5.2083" style="stroke:#D24C1D;stroke-width:1.5625;" width="15.3178" x="256.7973" y="280.013"/><text fill="#FFFFFF" font-family="Verdana" font-size="12.5" lengthAdjust="spacing" textLength="4.9011" x="262.0056" y="296.8241">t</text><ellipse cx="14.5833" cy="292.4967" fill="none" rx="4.1667" ry="4.1667" style="stroke:#D24C1D;stroke-width:2.0833;"/><ellipse cx="303.3651" cy="292.4967" fill="#D24C1D" rx="4.1667" ry="4.1667" style="stroke:#D24C1D;stroke-width:1.0417;"/><line style="stroke:#D24C1D;stroke-width:1.5625;" x1="18.75" x2="41.6667" y1="292.4967" y2="292.4967"/><line style="stroke:#D24C1D;stroke-width:1.5625;" x1="272.1151" x2="299.1984" y1="292.4967" y2="292.4967"/><path d="M283.5734,292.4967 L283.5734,289.3717 L289.8234,292.4967 L283.5734,295.6217 L283.5734,292.4967 " fill="#D24C1D" style="stroke:#D24C1D;stroke-width:1.5625;"/><text fill="#FFFFFF" font-family="Verdana" font-size="12.5" font-weight="bold" lengthAdjust="spacing" textLength="8.4778" x="10.4167" y="367.5924">e</text><ellipse cx="14.5833" cy="380.957" fill="none" rx="4.1667" ry="4.1667" style="stroke:#D24C1D;stroke-width:2.0833;"/><ellipse cx="72.9167" cy="380.957" fill="#D24C1D" rx="4.1667" ry="4.1667" style="stroke:#D24C1D;stroke-width:1.0417;"/><line style="stroke:#D24C1D;stroke-width:1.5625;" x1="18.75" x2="41.6667" y1="380.957" y2="380.957"/><line style="stroke:#D24C1D;stroke-width:1.5625;" x1="41.6667" x2="68.75" y1="380.957" y2="380.957"/><path d="M53.125,380.957 L53.125,377.832 L59.375,380.957 L53.125,384.082 L53.125,380.957 " fill="#D24C1D" style="stroke:#D24C1D;stroke-width:1.5625;"/></g></svg>