<svg xmlns="http://www.w3.org/2000/svg" xmlns:xlink="http://www.w3.org/1999/xlink" contentStyleType="text/css" data-diagram-type="GANTT" height="419.7917px" preserveAspectRatio="none" style="width:421px;height:419px;" version="1.1" viewBox="0 0 421 419" width="421.875px" zoomAndPan="magnify"><defs><linearGradient id="g1fog1vzx1fdkg0" x1="50%" x2="50%" y1="0%" y2="100%"><stop offset="0%" stop-color="#1388F5"/><stop offset="100%" stop-color="#0972D3"/></linearGradient><linearGradient id="g1fog1vzx1fdkg1" x1="50%" x2="50%" y1="0%" y2="100%"><stop offset="0%" stop-color="#FFFFFF"/><stop offset="100%" stop-color="#EEEEEE"/></linearGradient></defs><g><rect fill="#EEEEEE" height="18.75" style="stroke:#FFFFFF00;stroke-width:1.0417;" width="420" x="0" y="0"/><rect fill="#EEEEEE" height="18.75" style="stroke:#FFFFFF00;stroke-width:1.0417;" width="420" x="0" y="400.3906"/><line style="stroke:#C0C0C0;stroke-width:1.0417;" x1="0" x2="0" y1="6.25" y2="408.724"/><line style="stroke:#C0C0C0;stroke-width:1.0417;" x1="20" x2="20" y1="6.25" y2="408.724"/><line style="stroke:#C0C0C0;stroke-width:1.0417;" x1="40" x2="40" y1="6.25" y2="408.724"/><line style="stroke:#C0C0C0;stroke-width:1.0417;" x1="60" x2="60" y1="6.25" y2="408.724"/><line style="stroke:#C0C0C0;stroke-width:1.0417;" x1="80" x2="80" y1="6.25" y2="408.724"/><line style="stroke:#C0C0C0;stroke-width:1.0417;" x1="100" x2="100" y1="6.25" y2="408.724"/><line style="stroke:#C0C0C0;stroke-width:1.0417;" x1="120" x2="120" y1="6.25" y2="408.724"/><line style="stroke:#C0C0C0;stroke-width:1.0417;" x1="140" x2="140" y1="6.25" y2="408.724"/><line style="stroke:#C0C0C0;stroke-width:1.0417;" x1="160" x2="160" y1="6.25" y2="408.724"/><line style="stroke:#C0C0C0;stroke-width:1.0417;" x1="180" x2="180" y1="6.25" y2="408.724"/><line style="stroke:#C0C0C0;stroke-width:1.0417;" x1="200" x2="200" y1="6.25" y2="408.724"/><line style="stroke:#C0C0C0;stroke-width:1.0417;" x1="220" x2="220" y1="6.25" y2="408.724"/><line style="stroke:#C0C0C0;stroke-width:1.0417;" x1="240" x2="240" y1="6.25" y2="408.724"/><line style="stroke:#C0C0C0;stroke-width:1.0417;" x1="260" x2="260" y1="6.25" y2="408.724"/><line style="stroke:#C0C0C0;stroke-width:1.0417;" x1="280" x2="280" y1="6.25" y2="408.724"/><line style="stroke:#C0C0C0;stroke-width:1.0417;" x1="300" x2="300" y1="6.25" y2="408.724"/><line style="stroke:#C0C0C0;stroke-width:1.0417;" x1="320" x2="320" y1="6.25" y2="408.724"/><line style="stroke:#C0C0C0;stroke-width:1.0417;" x1="340" x2="340" y1="6.25" y2="408.724"/><line style="stroke:#C0C0C0;stroke-width:1.0417;" x1="360" x2="360" y1="6.25" y2="408.724"/><line style="stroke:#C0C0C0;stroke-width:1.0417;" x1="380" x2="380" y1="6.25" y2="408.724"/><line style="stroke:#C0C0C0;stroke-width:1.0417;" x1="400" x2="400" y1="6.25" y2="408.724"/><line style="stroke:#C0C0C0;stroke-width:1.0417;" x1="420" x2="420" y1="6.25" y2="408.724"/><text fill="#000716" font-family="Verdana" font-size="12.5" lengthAdjust="spacing" textLength="7.9529" x="6.0236" y="11.6028">1</text><text fill="#000716" font-family="Verdana" font-size="12.5" lengthAdjust="spacing" textLength="7.9529" x="26.0236" y="11.6028">2</text><text fill="#000716" font-family="Verdana" font-size="12.5" lengthAdjust="spacing" textLength="7.9529" x="46.0236" y="11.6028">3</text><text fill="#000716" font-family="Verdana" font-size="12.5" lengthAdjust="spacing" textLength="7.9529" x="66.0236" y="11.6028">4</text><text fill="#000716" font-family="Verdana" font-size="12.5" lengthAdjust="spacing" textLength="7.9529" x="86.0236" y="11.6028">5</text><text fill="#000716" font-family="Verdana" font-size="12.5" lengthAdjust="spacing" textLength="7.9529" x="106.0236" y="11.6028">6</text><text fill="#000716" font-family="Verdana" font-size="12.5" lengthAdjust="spacing" textLength="7.9529" x="126.0236" y="11.6028">7</text><text fill="#000716" font-family="Verdana" font-size="12.5" lengthAdjust="spacing" textLength="7.9529" x="146.0236" y="11.6028">8</text><text fill="#000716" font-family="Verdana" font-size="12.5" lengthAdjust="spacing" textLength="7.9529" x="166.0236" y="11.6028">9</text><text fill="#000716" font-family="Verdana" font-size="12.5" lengthAdjust="spacing" textLength="15.9058" x="182.0471" y="11.6028">10</text><text fill="#000716" font-family="Verdana" font-size="12.5" lengthAdjust="spacing" textLength="15.9058" x="202.0471" y="11.6028">11</text><text fill="#000716" font-family="Verdana" font-size="12.5" lengthAdjust="spacing" textLength="15.9058" x="222.0471" y="11.6028">12</text><text fill="#000716" font-family="Verdana" font-size="12.5" lengthAdjust="spacing" textLength="15.9058" x="242.0471" y="11.6028">13</text><text fill="#000716" font-family="Verdana" font-size="12.5" lengthAdjust="spacing" textLength="15.9058" x="262.0471" y="11.6028">14</text><text fill="#000716" font-family="Verdana" font-size="12.5" lengthAdjust="spacing" textLength="15.9058" x="282.0471" y="11.6028">15</text><text fill="#000716" font-family="Verdana" font-size="12.5" lengthAdjust="spacing" textLength="15.9058" x="302.0471" y="11.6028">16</text><text fill="#000716" font-family="Verdana" font-size="12.5" lengthAdjust="spacing" textLength="15.9058" x="322.0471" y="11.6028">17</text><text fill="#000716" font-family="Verdana" font-size="12.5" lengthAdjust="spacing" textLength="15.9058" x="342.0471" y="11.6028">18</text><text fill="#000716" font-family="Verdana" font-size="12.5" lengthAdjust="spacing" textLength="15.9058" x="362.0471" y="11.6028">19</text><text fill="#000716" font-family="Verdana" font-size="12.5" lengthAdjust="spacing" textLength="15.9058" x="382.0471" y="11.6028">20</text><text fill="#000716" font-family="Verdana" font-size="12.5" lengthAdjust="spacing" textLength="15.9058" x="402.0471" y="11.6028">21</text><path d="M191.6667,56.2174 L191.6667,90.5762 L196.875,90.5762 " fill="#FFFFFF" fill-opacity="0.00000" style="stroke:#A4AAB0;stroke-width:2.0833;"/><polygon fill="#A4AAB0" points="195.8333,86.4095,200,90.5762,195.8333,94.7428,195.8333,86.4095" style="stroke:#A4AAB0;stroke-width:1.0417;"/><path d="M271.6667,104.1016 L271.6667,138.4603 L276.875,138.4603 " fill="#FFFFFF" fill-opacity="0.00000" style="stroke:#A4AAB0;stroke-width:2.0833;"/><polygon fill="#A4AAB0" points="275.8333,134.2936,280,138.4603,275.8333,142.627,275.8333,134.2936" style="stroke:#A4AAB0;stroke-width:1.0417;"/><path d="M271.6667,104.1016 L271.6667,186.3444 L276.875,186.3444 " fill="#FFFFFF" fill-opacity="0.00000" style="stroke:#A4AAB0;stroke-width:2.0833;"/><polygon fill="#A4AAB0" points="275.8333,182.1777,280,186.3444,275.8333,190.5111,275.8333,182.1777" style="stroke:#A4AAB0;stroke-width:1.0417;"/><path d="M271.6667,104.1016 L271.6667,234.2285 L276.875,234.2285 " fill="#FFFFFF" fill-opacity="0.00000" style="stroke:#A4AAB0;stroke-width:2.0833;"/><polygon fill="#A4AAB0" points="275.8333,230.0618,280,234.2285,275.8333,238.3952,275.8333,230.0618" style="stroke:#A4AAB0;stroke-width:1.0417;"/><path d="M271.6667,104.1016 L271.6667,282.1126 L276.875,282.1126 " fill="#FFFFFF" fill-opacity="0.00000" style="stroke:#A4AAB0;stroke-width:2.0833;"/><polygon fill="#A4AAB0" points="275.8333,277.946,280,282.1126,275.8333,286.2793,275.8333,277.946" style="stroke:#A4AAB0;stroke-width:1.0417;"/><path d="M0,66.6341 L0,135.2539 L125.9155,135.2539 L125.9155,77.0508 L115.4989,66.6341 L0,66.6341 " fill="#0972D3" style="stroke:#075BA9;stroke-width:1.0417;"/><path d="M115.4989,66.6341 L115.4989,77.0508 L125.9155,77.0508 L115.4989,66.6341 " fill="#0972D3" style="stroke:#075BA9;stroke-width:1.0417;"/><text fill="#FFFFFF" font-family="Verdana" font-size="12.5" lengthAdjust="spacing" textLength="63.5376" x="6.25" y="83.4452">memo1 ...</text><text fill="#FFFFFF" font-family="Verdana" font-size="12.5" lengthAdjust="spacing" textLength="63.5376" x="6.25" y="97.996">memo2 ...</text><text fill="#FFFFFF" font-family="Verdana" font-size="12.5" lengthAdjust="spacing" textLength="104.0405" x="6.25" y="112.5468">explanations1 ...</text><text fill="#FFFFFF" font-family="Verdana" font-size="12.5" lengthAdjust="spacing" textLength="104.0405" x="6.25" y="127.0976">explanations2 ...</text><rect fill="url(#g1fog1vzx1fdkg0)" height="27.0508" rx="4.1667" ry="4.1667" style="stroke:#FFFFFF;stroke-width:1.0417;" width="179.1667" x="10.4167" y="29.1667"/><rect fill="url(#g1fog1vzx1fdkg0)" height="27.0508" rx="4.1667" ry="4.1667" style="stroke:#FFFFFF;stroke-width:1.0417;" width="59.1667" x="210.4167" y="77.0508"/><rect fill="#FFFFFF" height="27.0508" rx="4.1667" ry="4.1667" style="stroke:#FFFFFF;stroke-width:1.0417;" width="119.1667" x="290.4167" y="124.9349"/><path d="M320.2083,199.8698 L294.5833,199.8698 A4.1667,4.1667 0 0 1 290.4167,195.7031 L290.4167,176.9857 A4.1667,4.1667 0 0 1 294.5833,172.819 L320.2083,172.819 " fill="url(#g1fog1vzx1fdkg0)" style="stroke:#FFFFFF00;stroke-width:1.0417;"/><path d="M320.2083,172.819 L405.4167,172.819 A4.1667,4.1667 0 0 1 409.5833,176.9857 L409.5833,195.7031 A4.1667,4.1667 0 0 1 405.4167,199.8698 L320.2083,199.8698 " fill="#FFFFFF" style="stroke:#FFFFFF00;stroke-width:1.0417;"/><rect fill="#FFFFFF" fill-opacity="0.00000" height="27.0508" rx="4.1667" ry="4.1667" style="stroke:#FFFFFF;stroke-width:1.0417;" width="119.1667" x="290.4167" y="172.819"/><path d="M361.9167,247.7539 L294.5833,247.7539 A4.1667,4.1667 0 0 1 290.4167,243.5872 L290.4167,224.8698 A4.1667,4.1667 0 0 1 294.5833,220.7031 L361.9167,220.7031 " fill="url(#g1fog1vzx1fdkg0)" style="stroke:#FFFFFF00;stroke-width:1.0417;"/><path d="M361.9167,220.7031 L405.4167,220.7031 A4.1667,4.1667 0 0 1 409.5833,224.8698 L409.5833,243.5872 A4.1667,4.1667 0 0 1 405.4167,247.7539 L361.9167,247.7539 " fill="#FFFFFF" style="stroke:#FFFFFF00;stroke-width:1.0417;"/><rect fill="#FFFFFF" fill-opacity="0.00000" height="27.0508" rx="4.1667" ry="4.1667" style="stroke:#FFFFFF;stroke-width:1.0417;" width="119.1667" x="290.4167" y="220.7031"/><rect fill="url(#g1fog1vzx1fdkg0)" height="27.0508" rx="4.1667" ry="4.1667" style="stroke:#FFFFFF;stroke-width:1.0417;" width="119.1667" x="290.4167" y="268.5872"/><rect fill="url(#g1fog1vzx1fdkg1)" height="24.9674" style="stroke:#FFFFFF00;stroke-width:1.0417;" width="420" x="0" y="311.263"/><line style="stroke:#EEEEEE;stroke-width:1.0417;" x1="0" x2="5.2083" y1="323.7467" y2="323.7467"/><line style="stroke:#EEEEEE;stroke-width:1.0417;" x1="105.7434" x2="418.9583" y1="323.7467" y2="323.7467"/><polygon fill="#FFFFFF" points="290,343.5221,298.3333,351.8555,290,360.1888,281.6667,351.8555" style="stroke:#BEBEBE;stroke-width:1.0417;"/><rect fill="url(#g1fog1vzx1fdkg1)" height="24.9674" style="stroke:#FFFFFF00;stroke-width:1.0417;" width="420" x="0" y="370.2148"/><line style="stroke:#EEEEEE;stroke-width:1.0417;" x1="0" x2="5.2083" y1="382.6986" y2="382.6986"/><line style="stroke:#EEEEEE;stroke-width:1.0417;" x1="39.1724" x2="418.9583" y1="382.6986" y2="382.6986"/><text fill="#D1D5DB" font-family="Verdana" font-size="12.5" lengthAdjust="spacing" textLength="36.9995" x="6.25" y="47.0194">Task1</text><text fill="#D1D5DB" font-family="Verdana" font-size="12.5" lengthAdjust="spacing" textLength="36.9995" x="206.25" y="94.9036">Task2</text><text fill="#D1D5DB" font-family="Verdana" font-size="12.5" lengthAdjust="spacing" textLength="58.5449" x="286.25" y="142.7877">Test  000</text><text fill="#D1D5DB" font-family="Verdana" font-size="12.5" lengthAdjust="spacing" textLength="58.5449" x="286.25" y="190.6718">Test  025</text><text fill="#D1D5DB" font-family="Verdana" font-size="12.5" lengthAdjust="spacing" textLength="58.5449" x="286.25" y="238.5559">Test  060</text><text fill="#D1D5DB" font-family="Verdana" font-size="12.5" lengthAdjust="spacing" textLength="58.5449" x="286.25" y="286.44">Test  100</text><text fill="#000716" font-family="Verdana" font-size="12.5" lengthAdjust="spacing" textLength="90.1184" x="10.4167" y="328.0741">Separator title</text><text fill="#0972D3" font-family="Verdana" font-size="16.6667" font-style="italic" lengthAdjust="spacing" textLength="24.9837" x="301.4583" y="358.9925">M1</text><text fill="#000716" font-family="Verdana" font-size="12.5" lengthAdjust="spacing" textLength="23.5474" x="10.4167" y="387.026">end</text><text fill="#000716" font-family="Verdana" font-size="12.5" lengthAdjust="spacing" textLength="7.9529" x="6.0236" y="415.1184">1</text><text fill="#000716" font-family="Verdana" font-size="12.5" lengthAdjust="spacing" textLength="7.9529" x="26.0236" y="415.1184">2</text><text fill="#000716" font-family="Verdana" font-size="12.5" lengthAdjust="spacing" textLength="7.9529" x="46.0236" y="415.1184">3</text><text fill="#000716" font-family="Verdana" font-size="12.5" lengthAdjust="spacing" textLength="7.9529" x="66.0236" y="415.1184">4</text><text fill="#000716" font-family="Verdana" font-size="12.5" lengthAdjust="spacing" textLength="7.9529" x="86.0236" y="415.1184">5</text><text fill="#000716" font-family="Verdana" font-size="12.5" lengthAdjust="spacing" textLength="7.9529" x="106.0236" y="415.1184">6</text><text fill="#000716" font-family="Verdana" font-size="12.5" lengthAdjust="spacing" textLength="7.9529" x="126.0236" y="415.1184">7</text><text fill="#000716" font-family="Verdana" font-size="12.5" lengthAdjust="spacing" textLength="7.9529" x="146.0236" y="415.1184">8</text><text fill="#000716" font-family="Verdana" font-size="12.5" lengthAdjust="spacing" textLength="7.9529" x="166.0236" y="415.1184">9</text><text fill="#000716" font-family="Verdana" font-size="12.5" lengthAdjust="spacing" textLength="15.9058" x="182.0471" y="415.1184">10</text><text fill="#000716" font-family="Verdana" font-size="12.5" lengthAdjust="spacing" textLength="15.9058" x="202.0471" y="415.1184">11</text><text fill="#000716" font-family="Verdana" font-size="12.5" lengthAdjust="spacing" textLength="15.9058" x="222.0471" y="415.1184">12</text><text fill="#000716" font-family="Verdana" font-size="12.5" lengthAdjust="spacing" textLength="15.9058" x="242.0471" y="415.1184">13</text><text fill="#000716" font-family="Verdana" font-size="12.5" lengthAdjust="spacing" textLength="15.9058" x="262.0471" y="415.1184">14</text><text fill="#000716" font-family="Verdana" font-size="12.5" lengthAdjust="spacing" textLength="15.9058" x="282.0471" y="415.1184">15</text><text fill="#000716" font-family="Verdana" font-size="12.5" lengthAdjust="spacing" textLength="15.9058" x="302.0471" y="415.1184">16</text><text fill="#000716" font-family="Verdana" font-size="12.5" lengthAdjust="spacing" textLength="15.9058" x="322.0471" y="415.1184">17</text><text fill="#000716" font-family="Verdana" font-size="12.5" lengthAdjust="spacing" textLength="15.9058" x="342.0471" y="415.1184">18</text><text fill="#000716" font-family="Verdana" font-size="12.5" lengthAdjust="spacing" textLength="15.9058" x="362.0471" y="415.1184">19</text><text fill="#000716" font-family="Verdana" font-size="12.5" lengthAdjust="spacing" textLength="15.9058" x="382.0471" y="415.1184">20</text><text fill="#000716" font-family="Verdana" font-size="12.5" lengthAdjust="spacing" textLength="15.9058" x="402.0471" y="415.1184">21</text></g></svg>