<svg xmlns="http://www.w3.org/2000/svg" xmlns:xlink="http://www.w3.org/1999/xlink" contentStyleType="text/css" data-diagram-type="GANTT" height="263px" preserveAspectRatio="none" style="width:386px;height:263px;background:#DDDDDD;" version="1.1" viewBox="0 0 386 263" width="386px" zoomAndPan="magnify"><defs/><g><rect fill="#DDDDDD" height="263" style="stroke:#FFFFFF00;stroke-width:1;" width="386" x="0" y="0"/><rect fill="#F1E5E5" height="183.2422" style="stroke:#FFFFFF00;stroke-width:1;" width="16" x="96" y="39"/><rect fill="#F1E5E5" height="183.2422" style="stroke:#FFFFFF00;stroke-width:1;" width="16" x="208" y="39"/><rect fill="#F1E5E5" height="183.2422" style="stroke:#FFFFFF00;stroke-width:1;" width="16" x="320" y="39"/><text fill="#000000" font-family="sans-serif" font-size="10" lengthAdjust="spacing" textLength="14.7461" x="0.627" y="23.2822">Mo</text><text fill="#000000" font-family="sans-serif" font-size="10" lengthAdjust="spacing" textLength="12.4463" x="17.7769" y="23.2822">Tu</text><text fill="#000000" font-family="sans-serif" font-size="10" lengthAdjust="spacing" textLength="16.04" x="32" y="23.2822">We</text><text fill="#000000" font-family="sans-serif" font-size="10" lengthAdjust="spacing" textLength="12.4463" x="49.7769" y="23.2822">Th</text><text fill="#000000" font-family="sans-serif" font-size="10" lengthAdjust="spacing" textLength="9.8633" x="67.0684" y="23.2822">Fr</text><text fill="#000000" font-family="sans-serif" font-size="10" lengthAdjust="spacing" textLength="12.4756" x="81.7622" y="23.2822">Sa</text><text fill="#989898" font-family="sans-serif" font-size="10" lengthAdjust="spacing" textLength="12.6855" x="97.6572" y="23.2822">Su</text><text fill="#000000" font-family="sans-serif" font-size="10" lengthAdjust="spacing" textLength="14.7461" x="112.627" y="23.2822">Mo</text><text fill="#000000" font-family="sans-serif" font-size="10" lengthAdjust="spacing" textLength="12.4463" x="129.7769" y="23.2822">Tu</text><text fill="#000000" font-family="sans-serif" font-size="10" lengthAdjust="spacing" textLength="16.04" x="144" y="23.2822">We</text><text fill="#000000" font-family="sans-serif" font-size="10" lengthAdjust="spacing" textLength="12.4463" x="161.7769" y="23.2822">Th</text><text fill="#000000" font-family="sans-serif" font-size="10" lengthAdjust="spacing" textLength="9.8633" x="179.0684" y="23.2822">Fr</text><text fill="#000000" font-family="sans-serif" font-size="10" lengthAdjust="spacing" textLength="12.4756" x="193.7622" y="23.2822">Sa</text><text fill="#989898" font-family="sans-serif" font-size="10" lengthAdjust="spacing" textLength="12.6855" x="209.6572" y="23.2822">Su</text><text fill="#000000" font-family="sans-serif" font-size="10" lengthAdjust="spacing" textLength="14.7461" x="224.627" y="23.2822">Mo</text><text fill="#000000" font-family="sans-serif" font-size="10" lengthAdjust="spacing" textLength="12.4463" x="241.7769" y="23.2822">Tu</text><text fill="#000000" font-family="sans-serif" font-size="10" lengthAdjust="spacing" textLength="16.04" x="256" y="23.2822">We</text><text fill="#000000" font-family="sans-serif" font-size="10" lengthAdjust="spacing" textLength="12.4463" x="273.7769" y="23.2822">Th</text><text fill="#000000" font-family="sans-serif" font-size="10" lengthAdjust="spacing" textLength="9.8633" x="291.0684" y="23.2822">Fr</text><text fill="#000000" font-family="sans-serif" font-size="10" lengthAdjust="spacing" textLength="12.4756" x="305.7622" y="23.2822">Sa</text><text fill="#989898" font-family="sans-serif" font-size="10" lengthAdjust="spacing" textLength="12.6855" x="321.6572" y="23.2822">Su</text><text fill="#000000" font-family="sans-serif" font-size="10" lengthAdjust="spacing" textLength="14.7461" x="336.627" y="23.2822">Mo</text><text fill="#000000" font-family="sans-serif" font-size="10" lengthAdjust="spacing" textLength="12.4463" x="353.7769" y="23.2822">Tu</text><text fill="#000000" font-family="sans-serif" font-size="10" lengthAdjust="spacing" textLength="16.04" x="368" y="23.2822">We</text><text fill="#000000" font-family="sans-serif" font-size="10" lengthAdjust="spacing" textLength="12.7246" x="1.6377" y="35.2822">14</text><text fill="#000000" font-family="sans-serif" font-size="10" lengthAdjust="spacing" textLength="12.7246" x="17.6377" y="35.2822">15</text><text fill="#000000" font-family="sans-serif" font-size="10" lengthAdjust="spacing" textLength="12.7246" x="33.6377" y="35.2822">16</text><text fill="#000000" font-family="sans-serif" font-size="10" lengthAdjust="spacing" textLength="12.7246" x="49.6377" y="35.2822">17</text><text fill="#000000" font-family="sans-serif" font-size="10" lengthAdjust="spacing" textLength="12.7246" x="65.6377" y="35.2822">18</text><text fill="#000000" font-family="sans-serif" font-size="10" lengthAdjust="spacing" textLength="12.7246" x="81.6377" y="35.2822">19</text><text fill="#989898" font-family="sans-serif" font-size="10" lengthAdjust="spacing" textLength="12.7246" x="97.6377" y="35.2822">20</text><text fill="#000000" font-family="sans-serif" font-size="10" lengthAdjust="spacing" textLength="12.7246" x="113.6377" y="35.2822">21</text><text fill="#000000" font-family="sans-serif" font-size="10" lengthAdjust="spacing" textLength="12.7246" x="129.6377" y="35.2822">22</text><text fill="#000000" font-family="sans-serif" font-size="10" lengthAdjust="spacing" textLength="12.7246" x="145.6377" y="35.2822">23</text><text fill="#000000" font-family="sans-serif" font-size="10" lengthAdjust="spacing" textLength="12.7246" x="161.6377" y="35.2822">24</text><text fill="#000000" font-family="sans-serif" font-size="10" lengthAdjust="spacing" textLength="12.7246" x="177.6377" y="35.2822">25</text><text fill="#000000" font-family="sans-serif" font-size="10" lengthAdjust="spacing" textLength="12.7246" x="193.6377" y="35.2822">26</text><text fill="#989898" font-family="sans-serif" font-size="10" lengthAdjust="spacing" textLength="12.7246" x="209.6377" y="35.2822">27</text><text fill="#000000" font-family="sans-serif" font-size="10" lengthAdjust="spacing" textLength="12.7246" x="225.6377" y="35.2822">28</text><text fill="#000000" font-family="sans-serif" font-size="10" lengthAdjust="spacing" textLength="12.7246" x="241.6377" y="35.2822">29</text><text fill="#000000" font-family="sans-serif" font-size="10" lengthAdjust="spacing" textLength="12.7246" x="257.6377" y="35.2822">30</text><text fill="#000000" font-family="sans-serif" font-size="10" lengthAdjust="spacing" textLength="12.7246" x="273.6377" y="35.2822">31</text><text fill="#000000" font-family="sans-serif" font-size="10" lengthAdjust="spacing" textLength="6.3623" x="292.8188" y="35.2822">1</text><text fill="#000000" font-family="sans-serif" font-size="10" lengthAdjust="spacing" textLength="6.3623" x="308.8188" y="35.2822">2</text><text fill="#989898" font-family="sans-serif" font-size="10" lengthAdjust="spacing" textLength="6.3623" x="324.8188" y="35.2822">3</text><text fill="#000000" font-family="sans-serif" font-size="10" lengthAdjust="spacing" textLength="6.3623" x="340.8188" y="35.2822">4</text><text fill="#000000" font-family="sans-serif" font-size="10" lengthAdjust="spacing" textLength="6.3623" x="356.8188" y="35.2822">5</text><text fill="#000000" font-family="sans-serif" font-size="10" lengthAdjust="spacing" textLength="6.3623" x="372.8188" y="35.2822">6</text><text fill="#000000" font-family="sans-serif" font-size="12" font-weight="bold" lengthAdjust="spacing" textLength="106.0781" x="90.9609" y="11.1387">December 2020</text><text fill="#000000" font-family="sans-serif" font-size="12" font-weight="bold" lengthAdjust="spacing" textLength="89.0625" x="291.4688" y="11.1387">January 2021</text><line style="stroke:#C0C0C0;stroke-width:1;" x1="0" x2="0" y1="39" y2="222.2422"/><line style="stroke:#C0C0C0;stroke-width:1;" x1="16" x2="16" y1="39" y2="222.2422"/><line style="stroke:#C0C0C0;stroke-width:1;" x1="32" x2="32" y1="39" y2="222.2422"/><line style="stroke:#C0C0C0;stroke-width:1;" x1="48" x2="48" y1="39" y2="222.2422"/><line style="stroke:#C0C0C0;stroke-width:1;" x1="64" x2="64" y1="39" y2="222.2422"/><line style="stroke:#C0C0C0;stroke-width:1;" x1="80" x2="80" y1="39" y2="222.2422"/><line style="stroke:#C0C0C0;stroke-width:1;" x1="96" x2="96" y1="39" y2="222.2422"/><line style="stroke:#C0C0C0;stroke-width:1;" x1="112" x2="112" y1="39" y2="222.2422"/><line style="stroke:#C0C0C0;stroke-width:1;" x1="128" x2="128" y1="39" y2="222.2422"/><line style="stroke:#C0C0C0;stroke-width:1;" x1="144" x2="144" y1="39" y2="222.2422"/><line style="stroke:#C0C0C0;stroke-width:1;" x1="160" x2="160" y1="39" y2="222.2422"/><line style="stroke:#C0C0C0;stroke-width:1;" x1="176" x2="176" y1="39" y2="222.2422"/><line style="stroke:#C0C0C0;stroke-width:1;" x1="192" x2="192" y1="39" y2="222.2422"/><line style="stroke:#C0C0C0;stroke-width:1;" x1="208" x2="208" y1="39" y2="222.2422"/><line style="stroke:#C0C0C0;stroke-width:1;" x1="224" x2="224" y1="39" y2="222.2422"/><line style="stroke:#C0C0C0;stroke-width:1;" x1="240" x2="240" y1="39" y2="222.2422"/><line style="stroke:#C0C0C0;stroke-width:1;" x1="256" x2="256" y1="39" y2="222.2422"/><line style="stroke:#C0C0C0;stroke-width:1;" x1="272" x2="272" y1="39" y2="222.2422"/><line style="stroke:#C0C0C0;stroke-width:1;" x1="288" x2="288" y1="39" y2="222.2422"/><line style="stroke:#C0C0C0;stroke-width:1;" x1="304" x2="304" y1="39" y2="222.2422"/><line style="stroke:#C0C0C0;stroke-width:1;" x1="320" x2="320" y1="39" y2="222.2422"/><line style="stroke:#C0C0C0;stroke-width:1;" x1="336" x2="336" y1="39" y2="222.2422"/><line style="stroke:#C0C0C0;stroke-width:1;" x1="352" x2="352" y1="39" y2="222.2422"/><line style="stroke:#C0C0C0;stroke-width:1;" x1="368" x2="368" y1="39" y2="222.2422"/><line style="stroke:#C0C0C0;stroke-width:1;" x1="384" x2="384" y1="39" y2="222.2422"/><line style="stroke:#C0C0C0;stroke-width:1;" x1="0" x2="384" y1="39" y2="39"/><line style="stroke:#C0C0C0;stroke-width:1;" x1="0" x2="384" y1="222.2422" y2="222.2422"/><path d="M168,53.8047 L168,64.207 L173,64.207 " fill="#FFFFFF" fill-opacity="0.00000" style="stroke:#454645;stroke-width:1.5;"/><polygon fill="#454645" points="172,60.207,176,64.207,172,68.207,172,60.207" style="stroke:#454645;stroke-width:1;"/><path d="M248,70.6094 L248,81.0117 L253,81.0117 " fill="#FFFFFF" fill-opacity="0.00000" style="stroke:#454645;stroke-width:1.5;"/><polygon fill="#454645" points="252,77.0117,256,81.0117,252,85.0117,252,77.0117" style="stroke:#454645;stroke-width:1;"/><path d="M248,70.6094 L248,97.8164 L253,97.8164 " fill="#FFFFFF" fill-opacity="0.00000" style="stroke:#454645;stroke-width:1.5;"/><polygon fill="#454645" points="252,93.8164,256,97.8164,252,101.8164,252,93.8164" style="stroke:#454645;stroke-width:1;"/><path d="M248,70.6094 L248,114.6211 L253,114.6211 " fill="#FFFFFF" fill-opacity="0.00000" style="stroke:#454645;stroke-width:1.5;"/><polygon fill="#454645" points="252,110.6211,256,114.6211,252,118.6211,252,110.6211" style="stroke:#454645;stroke-width:1;"/><path d="M248,70.6094 L248,131.4258 L253,131.4258 " fill="#FFFFFF" fill-opacity="0.00000" style="stroke:#454645;stroke-width:1.5;"/><polygon fill="#454645" points="252,127.4258,256,131.4258,252,135.4258,252,127.4258" style="stroke:#454645;stroke-width:1;"/><path d="M0,55.8047 L0,107.7109 L95.9092,107.7109 L95.9092,65.8047 L85.9092,55.8047 L0,55.8047 " fill="#90EE90" style="stroke:#454645;stroke-width:1;"/><path d="M85.9092,55.8047 L85.9092,65.8047 L95.9092,65.8047 L85.9092,55.8047 " fill="#90EE90" style="stroke:#454645;stroke-width:1;"/><text fill="#454645" font-family="sans-serif" font-size="9" lengthAdjust="spacing" textLength="45.7471" x="6" y="69.1587">memo1 ...</text><text fill="#454645" font-family="sans-serif" font-size="9" lengthAdjust="spacing" textLength="45.7471" x="6" y="79.6353">memo2 ...</text><text fill="#454645" font-family="sans-serif" font-size="9" lengthAdjust="spacing" textLength="74.9092" x="6" y="90.1118">explanations1 ...</text><text fill="#454645" font-family="sans-serif" font-size="9" lengthAdjust="spacing" textLength="74.9092" x="6" y="100.5884">explanations2 ...</text><path d="M96,53.8047 L5.5,53.8047 A3.5,3.5 0 0 1 2,50.3047 L2,44.5 A3.5,3.5 0 0 1 5.5,41 L96,41 " fill="#E2E2F0" style="stroke:#181818;stroke-width:1;"/><path d="M112,41 L170.5,41 A3.5,3.5 0 0 1 174,44.5 L174,50.3047 A3.5,3.5 0 0 1 170.5,53.8047 L112,53.8047 " fill="#E2E2F0" style="stroke:#181818;stroke-width:1;"/><line style="stroke:#181818;stroke-width:1;stroke-dasharray:2.0,3.0;" x1="99" x2="109" y1="41" y2="41"/><line style="stroke:#181818;stroke-width:1;stroke-dasharray:2.0,3.0;" x1="99" x2="109" y1="53.8047" y2="53.8047"/><path d="M208,70.6094 L181.5,70.6094 A3.5,3.5 0 0 1 178,67.1094 L178,61.3047 A3.5,3.5 0 0 1 181.5,57.8047 L208,57.8047 " fill="#E2E2F0" style="stroke:#181818;stroke-width:1;"/><path d="M224,57.8047 L250.5,57.8047 A3.5,3.5 0 0 1 254,61.3047 L254,67.1094 A3.5,3.5 0 0 1 250.5,70.6094 L224,70.6094 " fill="#E2E2F0" style="stroke:#181818;stroke-width:1;"/><line style="stroke:#181818;stroke-width:1;stroke-dasharray:2.0,3.0;" x1="211" x2="221" y1="57.8047" y2="57.8047"/><line style="stroke:#181818;stroke-width:1;stroke-dasharray:2.0,3.0;" x1="211" x2="221" y1="70.6094" y2="70.6094"/><path d="M320,87.4141 L261.5,87.4141 A3.5,3.5 0 0 1 258,83.9141 L258,78.1094 A3.5,3.5 0 0 1 261.5,74.6094 L320,74.6094 " fill="#E2E2F0" style="stroke:#181818;stroke-width:1;"/><path d="M336,74.6094 L378.5,74.6094 A3.5,3.5 0 0 1 382,78.1094 L382,83.9141 A3.5,3.5 0 0 1 378.5,87.4141 L336,87.4141 " fill="#E2E2F0" style="stroke:#181818;stroke-width:1;"/><line style="stroke:#181818;stroke-width:1;stroke-dasharray:2.0,3.0;" x1="323" x2="333" y1="74.6094" y2="74.6094"/><line style="stroke:#181818;stroke-width:1;stroke-dasharray:2.0,3.0;" x1="323" x2="333" y1="87.4141" y2="87.4141"/><path d="M320,104.2188 L261.5,104.2188 A3.5,3.5 0 0 1 258,100.7188 L258,94.9141 A3.5,3.5 0 0 1 261.5,91.4141 L320,91.4141 " fill="#E2E2F0" style="stroke:#181818;stroke-width:1;"/><path d="M336,91.4141 L378.5,91.4141 A3.5,3.5 0 0 1 382,94.9141 L382,100.7188 A3.5,3.5 0 0 1 378.5,104.2188 L336,104.2188 " fill="#E2E2F0" style="stroke:#181818;stroke-width:1;"/><line style="stroke:#181818;stroke-width:1;stroke-dasharray:2.0,3.0;" x1="323" x2="333" y1="91.4141" y2="91.4141"/><line style="stroke:#181818;stroke-width:1;stroke-dasharray:2.0,3.0;" x1="323" x2="333" y1="104.2188" y2="104.2188"/><path d="M320,121.0234 L261.5,121.0234 A3.5,3.5 0 0 1 258,117.5234 L258,111.7188 A3.5,3.5 0 0 1 261.5,108.2188 L320,108.2188 " fill="#E2E2F0" style="stroke:#181818;stroke-width:1;"/><path d="M336,108.2188 L378.5,108.2188 A3.5,3.5 0 0 1 382,111.7188 L382,117.5234 A3.5,3.5 0 0 1 378.5,121.0234 L336,121.0234 " fill="#E2E2F0" style="stroke:#181818;stroke-width:1;"/><line style="stroke:#181818;stroke-width:1;stroke-dasharray:2.0,3.0;" x1="323" x2="333" y1="108.2188" y2="108.2188"/><line style="stroke:#181818;stroke-width:1;stroke-dasharray:2.0,3.0;" x1="323" x2="333" y1="121.0234" y2="121.0234"/><path d="M320,137.8281 L261.5,137.8281 A3.5,3.5 0 0 1 258,134.3281 L258,128.5234 A3.5,3.5 0 0 1 261.5,125.0234 L320,125.0234 " fill="#E2E2F0" style="stroke:#181818;stroke-width:1;"/><path d="M336,125.0234 L378.5,125.0234 A3.5,3.5 0 0 1 382,128.5234 L382,134.3281 A3.5,3.5 0 0 1 378.5,137.8281 L336,137.8281 " fill="#E2E2F0" style="stroke:#181818;stroke-width:1;"/><line style="stroke:#181818;stroke-width:1;stroke-dasharray:2.0,3.0;" x1="323" x2="333" y1="125.0234" y2="125.0234"/><line style="stroke:#181818;stroke-width:1;stroke-dasharray:2.0,3.0;" x1="323" x2="333" y1="137.8281" y2="137.8281"/><line style="stroke:#454645;stroke-width:1;" x1="0" x2="5" y1="156.2305" y2="156.2305"/><line style="stroke:#454645;stroke-width:1;" x1="94.3042" x2="383" y1="156.2305" y2="156.2305"/><polygon fill="#000000" points="248,174.6328,253,179.6328,248,184.6328,243,179.6328" style="stroke:#000000;stroke-width:1;"/><line style="stroke:#454645;stroke-width:1;" x1="0" x2="5" y1="205.8398" y2="205.8398"/><line style="stroke:#454645;stroke-width:1;" x1="35.7217" x2="383" y1="205.8398" y2="205.8398"/><text fill="#000000" font-family="sans-serif" font-size="11" lengthAdjust="spacing" textLength="32.5596" x="6" y="51.2104">Task1</text><text fill="#000000" font-family="sans-serif" font-size="11" lengthAdjust="spacing" textLength="32.5596" x="182" y="68.0151">Task2</text><text fill="#000000" font-family="sans-serif" font-size="11" lengthAdjust="spacing" textLength="51.5195" x="262" y="84.8198">Test  000</text><text fill="#000000" font-family="sans-serif" font-size="11" lengthAdjust="spacing" textLength="51.5195" x="262" y="101.6245">Test  025</text><text fill="#000000" font-family="sans-serif" font-size="11" lengthAdjust="spacing" textLength="51.5195" x="262" y="118.4292">Test  060</text><text fill="#000000" font-family="sans-serif" font-size="11" lengthAdjust="spacing" textLength="51.5195" x="262" y="135.2339">Test  100</text><text fill="#454645" font-family="sans-serif" font-size="11" lengthAdjust="spacing" textLength="79.3042" x="10" y="160.0386">Separator title</text><text fill="#000000" font-family="sans-serif" font-size="11" lengthAdjust="spacing" textLength="16.4893" x="256" y="184.8433">M1</text><text fill="#454645" font-family="sans-serif" font-size="11" lengthAdjust="spacing" textLength="20.7217" x="10" y="209.6479">end</text><text fill="#000000" font-family="sans-serif" font-size="10" lengthAdjust="spacing" textLength="14.7461" x="0.627" y="231.5244">Mo</text><text fill="#000000" font-family="sans-serif" font-size="10" lengthAdjust="spacing" textLength="12.4463" x="17.7769" y="231.5244">Tu</text><text fill="#000000" font-family="sans-serif" font-size="10" lengthAdjust="spacing" textLength="16.04" x="32" y="231.5244">We</text><text fill="#000000" font-family="sans-serif" font-size="10" lengthAdjust="spacing" textLength="12.4463" x="49.7769" y="231.5244">Th</text><text fill="#000000" font-family="sans-serif" font-size="10" lengthAdjust="spacing" textLength="9.8633" x="67.0684" y="231.5244">Fr</text><text fill="#000000" font-family="sans-serif" font-size="10" lengthAdjust="spacing" textLength="12.4756" x="81.7622" y="231.5244">Sa</text><text fill="#989898" font-family="sans-serif" font-size="10" lengthAdjust="spacing" textLength="12.6855" x="97.6572" y="231.5244">Su</text><text fill="#000000" font-family="sans-serif" font-size="10" lengthAdjust="spacing" textLength="14.7461" x="112.627" y="231.5244">Mo</text><text fill="#000000" font-family="sans-serif" font-size="10" lengthAdjust="spacing" textLength="12.4463" x="129.7769" y="231.5244">Tu</text><text fill="#000000" font-family="sans-serif" font-size="10" lengthAdjust="spacing" textLength="16.04" x="144" y="231.5244">We</text><text fill="#000000" font-family="sans-serif" font-size="10" lengthAdjust="spacing" textLength="12.4463" x="161.7769" y="231.5244">Th</text><text fill="#000000" font-family="sans-serif" font-size="10" lengthAdjust="spacing" textLength="9.8633" x="179.0684" y="231.5244">Fr</text><text fill="#000000" font-family="sans-serif" font-size="10" lengthAdjust="spacing" textLength="12.4756" x="193.7622" y="231.5244">Sa</text><text fill="#989898" font-family="sans-serif" font-size="10" lengthAdjust="spacing" textLength="12.6855" x="209.6572" y="231.5244">Su</text><text fill="#000000" font-family="sans-serif" font-size="10" lengthAdjust="spacing" textLength="14.7461" x="224.627" y="231.5244">Mo</text><text fill="#000000" font-family="sans-serif" font-size="10" lengthAdjust="spacing" textLength="12.4463" x="241.7769" y="231.5244">Tu</text><text fill="#000000" font-family="sans-serif" font-size="10" lengthAdjust="spacing" textLength="16.04" x="256" y="231.5244">We</text><text fill="#000000" font-family="sans-serif" font-size="10" lengthAdjust="spacing" textLength="12.4463" x="273.7769" y="231.5244">Th</text><text fill="#000000" font-family="sans-serif" font-size="10" lengthAdjust="spacing" textLength="9.8633" x="291.0684" y="231.5244">Fr</text><text fill="#000000" font-family="sans-serif" font-size="10" lengthAdjust="spacing" textLength="12.4756" x="305.7622" y="231.5244">Sa</text><text fill="#989898" font-family="sans-serif" font-size="10" lengthAdjust="spacing" textLength="12.6855" x="321.6572" y="231.5244">Su</text><text fill="#000000" font-family="sans-serif" font-size="10" lengthAdjust="spacing" textLength="14.7461" x="336.627" y="231.5244">Mo</text><text fill="#000000" font-family="sans-serif" font-size="10" lengthAdjust="spacing" textLength="12.4463" x="353.7769" y="231.5244">Tu</text><text fill="#000000" font-family="sans-serif" font-size="10" lengthAdjust="spacing" textLength="16.04" x="368" y="231.5244">We</text><text fill="#000000" font-family="sans-serif" font-size="10" lengthAdjust="spacing" textLength="12.7246" x="1.6377" y="245.5244">14</text><text fill="#000000" font-family="sans-serif" font-size="10" lengthAdjust="spacing" textLength="12.7246" x="17.6377" y="245.5244">15</text><text fill="#000000" font-family="sans-serif" font-size="10" lengthAdjust="spacing" textLength="12.7246" x="33.6377" y="245.5244">16</text><text fill="#000000" font-family="sans-serif" font-size="10" lengthAdjust="spacing" textLength="12.7246" x="49.6377" y="245.5244">17</text><text fill="#000000" font-family="sans-serif" font-size="10" lengthAdjust="spacing" textLength="12.7246" x="65.6377" y="245.5244">18</text><text fill="#000000" font-family="sans-serif" font-size="10" lengthAdjust="spacing" textLength="12.7246" x="81.6377" y="245.5244">19</text><text fill="#989898" font-family="sans-serif" font-size="10" lengthAdjust="spacing" textLength="12.7246" x="97.6377" y="245.5244">20</text><text fill="#000000" font-family="sans-serif" font-size="10" lengthAdjust="spacing" textLength="12.7246" x="113.6377" y="245.5244">21</text><text fill="#000000" font-family="sans-serif" font-size="10" lengthAdjust="spacing" textLength="12.7246" x="129.6377" y="245.5244">22</text><text fill="#000000" font-family="sans-serif" font-size="10" lengthAdjust="spacing" textLength="12.7246" x="145.6377" y="245.5244">23</text><text fill="#000000" font-family="sans-serif" font-size="10" lengthAdjust="spacing" textLength="12.7246" x="161.6377" y="245.5244">24</text><text fill="#000000" font-family="sans-serif" font-size="10" lengthAdjust="spacing" textLength="12.7246" x="177.6377" y="245.5244">25</text><text fill="#000000" font-family="sans-serif" font-size="10" lengthAdjust="spacing" textLength="12.7246" x="193.6377" y="245.5244">26</text><text fill="#989898" font-family="sans-serif" font-size="10" lengthAdjust="spacing" textLength="12.7246" x="209.6377" y="245.5244">27</text><text fill="#000000" font-family="sans-serif" font-size="10" lengthAdjust="spacing" textLength="12.7246" x="225.6377" y="245.5244">28</text><text fill="#000000" font-family="sans-serif" font-size="10" lengthAdjust="spacing" textLength="12.7246" x="241.6377" y="245.5244">29</text><text fill="#000000" font-family="sans-serif" font-size="10" lengthAdjust="spacing" textLength="12.7246" x="257.6377" y="245.5244">30</text><text fill="#000000" font-family="sans-serif" font-size="10" lengthAdjust="spacing" textLength="12.7246" x="273.6377" y="245.5244">31</text><text fill="#000000" font-family="sans-serif" font-size="10" lengthAdjust="spacing" textLength="6.3623" x="292.8188" y="245.5244">1</text><text fill="#000000" font-family="sans-serif" font-size="10" lengthAdjust="spacing" textLength="6.3623" x="308.8188" y="245.5244">2</text><text fill="#989898" font-family="sans-serif" font-size="10" lengthAdjust="spacing" textLength="6.3623" x="324.8188" y="245.5244">3</text><text fill="#000000" font-family="sans-serif" font-size="10" lengthAdjust="spacing" textLength="6.3623" x="340.8188" y="245.5244">4</text><text fill="#000000" font-family="sans-serif" font-size="10" lengthAdjust="spacing" textLength="6.3623" x="356.8188" y="245.5244">5</text><text fill="#000000" font-family="sans-serif" font-size="10" lengthAdjust="spacing" textLength="6.3623" x="372.8188" y="245.5244">6</text><text fill="#000000" font-family="sans-serif" font-size="12" font-weight="bold" lengthAdjust="spacing" textLength="106.0781" x="90.9609" y="260.3809">December 2020</text><text fill="#000000" font-family="sans-serif" font-size="12" font-weight="bold" lengthAdjust="spacing" textLength="89.0625" x="291.4688" y="260.3809">January 2021</text></g></svg>