<svg xmlns="http://www.w3.org/2000/svg" xmlns:xlink="http://www.w3.org/1999/xlink" contentStyleType="text/css" data-diagram-type="GANTT" height="377.0833px" preserveAspectRatio="none" style="width:403px;height:377px;" version="1.1" viewBox="0 0 403 377" width="403.125px" zoomAndPan="magnify"><defs/><g><rect fill="#FFFFCC" height="27.7507" rx="2.6042" ry="2.6042" style="stroke:#FFDD88;stroke-width:3.125;" width="391.9067" x="5.2083" y="5.2083"/><text fill="#000000" font-family="monospace" font-size="10.4167" lengthAdjust="spacing" textLength="370.0104" x="10.4167" y="20.8333">Please&#160;use&#160;'!option&#160;handwritten&#160;true'&#160;to&#160;enable&#160;handwritten</text><polygon fill="#555555" points="10.4167,48.584,10.4167,48.8029,20.943,48.1524,31.4693,48.7853,41.9956,49.0003,52.5219,47.8409,63.0482,48.503,73.5746,48.1397,84.1009,48.1845,94.6272,48.513,105.1535,47.8638,115.6798,49.1607,126.2061,47.9274,136.7325,48.378,147.2588,49.0339,157.7851,48.4946,168.3114,48.6551,178.8377,48.5507,189.364,48.7699,199.8904,48.8331,210.4167,48.584,210.62,48.584,210.6497,52.334,210.6525,56.084,210.5051,59.834,210.5776,63.584,210.4167,67.334,210.4167,68.0655,199.8904,66.5827,189.364,68.0408,178.8377,67.0251,168.3114,67.89,157.7851,66.8183,147.2588,67.2626,136.7325,68.1065,126.2061,67.2832,115.6798,67.4437,105.1535,67.6867,94.6272,67.7676,84.1009,67.3299,73.5746,67.6332,63.0482,66.7377,52.5219,67.6302,41.9956,67.905,31.4693,67.797,20.943,67.9726,10.4167,67.334,10.2489,67.334,10.1902,63.584,10.2009,59.834,10.3962,56.084,10.3484,52.334,10.4167,48.584" style="stroke:#FFFFFF00;stroke-width:1.0417;"/><polygon fill="#555555" points="10.4167,277.653,10.4167,277.8719,20.943,277.2214,31.4693,277.8543,41.9956,278.0693,52.5219,276.9099,63.0482,277.572,73.5746,277.2087,84.1009,277.2535,94.6272,277.582,105.1535,276.9328,115.6798,278.2297,126.2061,276.9965,136.7325,277.447,147.2588,278.1029,157.7851,277.5636,168.3114,277.7241,178.8377,277.6197,189.364,277.839,199.8904,277.9021,210.4167,277.653,210.62,277.653,210.6497,281.403,210.6525,285.153,210.5051,288.903,210.5776,292.653,210.4167,296.403,210.4167,297.1345,199.8904,295.6518,189.364,297.1098,178.8377,296.0941,168.3114,296.959,157.7851,295.8873,147.2588,296.3316,136.7325,297.1755,126.2061,296.3522,115.6798,296.5127,105.1535,296.7557,94.6272,296.8366,84.1009,296.3989,73.5746,296.7022,63.0482,295.8067,52.5219,296.6992,41.9956,296.974,31.4693,296.8661,20.943,297.0416,10.4167,296.403,10.2489,296.403,10.1902,292.653,10.2009,288.903,10.3962,285.153,10.3484,281.403,10.4167,277.653" style="stroke:#FFFFFF00;stroke-width:1.0417;"/><path d="M10.4167,54.834 L10.7086,54.834 L9.8412,65.3409 L10.6851,75.8478 L10.9718,86.3548 L9.4258,96.8617 L10.3087,107.3686 L9.8243,117.8755 L9.884,128.3825 L10.322,138.8894 L9.4564,149.3963 L11.1856,159.9032 L9.5413,170.4102 L10.142,180.9171 L11.0166,191.424 L10.2975,201.9309 L10.5114,212.4379 L10.3723,222.9448 L10.6646,233.4517 L10.7488,243.9586 L11.2301,254.4656 L11.3487,264.9725 L11.3601,275.4794 L10.4167,285.9863 " fill="#FFFFFF" fill-opacity="0.00000" style="stroke:#2E2E2E;stroke-width:1.0417;"/><path d="M30.4167,54.834 L30.7086,54.834 L29.8412,65.3409 L30.6851,75.8478 L30.9718,86.3548 L29.4258,96.8617 L30.3087,107.3686 L29.8243,117.8755 L29.884,128.3825 L30.322,138.8894 L29.4564,149.3963 L31.1856,159.9032 L29.5413,170.4102 L30.142,180.9171 L31.0166,191.424 L30.2975,201.9309 L30.5114,212.4379 L30.3723,222.9448 L30.6646,233.4517 L30.7488,243.9586 L31.2301,254.4656 L31.3487,264.9725 L31.3601,275.4794 L30.4167,285.9863 " fill="#FFFFFF" fill-opacity="0.00000" style="stroke:#2E2E2E;stroke-width:1.0417;"/><path d="M50.4167,54.834 L50.7086,54.834 L49.8412,65.3409 L50.6851,75.8478 L50.9718,86.3548 L49.4258,96.8617 L50.3087,107.3686 L49.8243,117.8755 L49.884,128.3825 L50.322,138.8894 L49.4564,149.3963 L51.1856,159.9032 L49.5413,170.4102 L50.142,180.9171 L51.0166,191.424 L50.2975,201.9309 L50.5114,212.4379 L50.3723,222.9448 L50.6646,233.4517 L50.7488,243.9586 L51.2301,254.4656 L51.3487,264.9725 L51.3601,275.4794 L50.4167,285.9863 " fill="#FFFFFF" fill-opacity="0.00000" style="stroke:#2E2E2E;stroke-width:1.0417;"/><path d="M70.4167,54.834 L70.7086,54.834 L69.8412,65.3409 L70.6851,75.8478 L70.9718,86.3548 L69.4258,96.8617 L70.3087,107.3686 L69.8243,117.8755 L69.884,128.3825 L70.322,138.8894 L69.4564,149.3963 L71.1856,159.9032 L69.5413,170.4102 L70.142,180.9171 L71.0166,191.424 L70.2975,201.9309 L70.5114,212.4379 L70.3723,222.9448 L70.6646,233.4517 L70.7488,243.9586 L71.2301,254.4656 L71.3487,264.9725 L71.3601,275.4794 L70.4167,285.9863 " fill="#FFFFFF" fill-opacity="0.00000" style="stroke:#2E2E2E;stroke-width:1.0417;"/><path d="M90.4167,54.834 L90.7086,54.834 L89.8412,65.3409 L90.6851,75.8478 L90.9718,86.3548 L89.4258,96.8617 L90.3087,107.3686 L89.8243,117.8755 L89.884,128.3825 L90.322,138.8894 L89.4564,149.3963 L91.1856,159.9032 L89.5413,170.4102 L90.142,180.9171 L91.0166,191.424 L90.2975,201.9309 L90.5114,212.4379 L90.3723,222.9448 L90.6646,233.4517 L90.7488,243.9586 L91.2301,254.4656 L91.3487,264.9725 L91.3601,275.4794 L90.4167,285.9863 " fill="#FFFFFF" fill-opacity="0.00000" style="stroke:#2E2E2E;stroke-width:1.0417;"/><path d="M110.4167,54.834 L110.7086,54.834 L109.8412,65.3409 L110.6851,75.8478 L110.9718,86.3548 L109.4258,96.8617 L110.3087,107.3686 L109.8243,117.8755 L109.884,128.3825 L110.322,138.8894 L109.4564,149.3963 L111.1856,159.9032 L109.5413,170.4102 L110.142,180.9171 L111.0166,191.424 L110.2975,201.9309 L110.5114,212.4379 L110.3723,222.9448 L110.6646,233.4517 L110.7488,243.9586 L111.2301,254.4656 L111.3487,264.9725 L111.3601,275.4794 L110.4167,285.9863 " fill="#FFFFFF" fill-opacity="0.00000" style="stroke:#2E2E2E;stroke-width:1.0417;"/><path d="M130.4167,54.834 L130.7086,54.834 L129.8412,65.3409 L130.6851,75.8478 L130.9718,86.3548 L129.4258,96.8617 L130.3087,107.3686 L129.8243,117.8755 L129.884,128.3825 L130.322,138.8894 L129.4564,149.3963 L131.1856,159.9032 L129.5413,170.4102 L130.142,180.9171 L131.0166,191.424 L130.2975,201.9309 L130.5114,212.4379 L130.3723,222.9448 L130.6646,233.4517 L130.7488,243.9586 L131.2301,254.4656 L131.3487,264.9725 L131.3601,275.4794 L130.4167,285.9863 " fill="#FFFFFF" fill-opacity="0.00000" style="stroke:#2E2E2E;stroke-width:1.0417;"/><path d="M150.4167,54.834 L150.7086,54.834 L149.8412,65.3409 L150.6851,75.8478 L150.9718,86.3548 L149.4258,96.8617 L150.3087,107.3686 L149.8243,117.8755 L149.884,128.3825 L150.322,138.8894 L149.4564,149.3963 L151.1856,159.9032 L149.5413,170.4102 L150.142,180.9171 L151.0166,191.424 L150.2975,201.9309 L150.5114,212.4379 L150.3723,222.9448 L150.6646,233.4517 L150.7488,243.9586 L151.2301,254.4656 L151.3487,264.9725 L151.3601,275.4794 L150.4167,285.9863 " fill="#FFFFFF" fill-opacity="0.00000" style="stroke:#2E2E2E;stroke-width:1.0417;"/><path d="M170.4167,54.834 L170.7086,54.834 L169.8412,65.3409 L170.6851,75.8478 L170.9718,86.3548 L169.4258,96.8617 L170.3087,107.3686 L169.8243,117.8755 L169.884,128.3825 L170.322,138.8894 L169.4564,149.3963 L171.1856,159.9032 L169.5413,170.4102 L170.142,180.9171 L171.0166,191.424 L170.2975,201.9309 L170.5114,212.4379 L170.3723,222.9448 L170.6646,233.4517 L170.7488,243.9586 L171.2301,254.4656 L171.3487,264.9725 L171.3601,275.4794 L170.4167,285.9863 " fill="#FFFFFF" fill-opacity="0.00000" style="stroke:#2E2E2E;stroke-width:1.0417;"/><path d="M190.4167,54.834 L190.7086,54.834 L189.8412,65.3409 L190.6851,75.8478 L190.9718,86.3548 L189.4258,96.8617 L190.3087,107.3686 L189.8243,117.8755 L189.884,128.3825 L190.322,138.8894 L189.4564,149.3963 L191.1856,159.9032 L189.5413,170.4102 L190.142,180.9171 L191.0166,191.424 L190.2975,201.9309 L190.5114,212.4379 L190.3723,222.9448 L190.6646,233.4517 L190.7488,243.9586 L191.2301,254.4656 L191.3487,264.9725 L191.3601,275.4794 L190.4167,285.9863 " fill="#FFFFFF" fill-opacity="0.00000" style="stroke:#2E2E2E;stroke-width:1.0417;"/><path d="M210.4167,54.834 L210.7086,54.834 L209.8412,65.3409 L210.6851,75.8478 L210.9718,86.3548 L209.4258,96.8617 L210.3087,107.3686 L209.8243,117.8755 L209.884,128.3825 L210.322,138.8894 L209.4564,149.3963 L211.1856,159.9032 L209.5413,170.4102 L210.142,180.9171 L211.0166,191.424 L210.2975,201.9309 L210.5114,212.4379 L210.3723,222.9448 L210.6646,233.4517 L210.7488,243.9586 L211.2301,254.4656 L211.3487,264.9725 L211.3601,275.4794 L210.4167,285.9863 " fill="#FFFFFF" fill-opacity="0.00000" style="stroke:#2E2E2E;stroke-width:1.0417;"/><text fill="#FFFFFF" font-family="Segoe Print" font-size="12.5" lengthAdjust="spacing" textLength="7.9529" x="16.4402" y="60.1868">1</text><text fill="#FFFFFF" font-family="Segoe Print" font-size="12.5" lengthAdjust="spacing" textLength="7.9529" x="36.4402" y="60.1868">2</text><text fill="#FFFFFF" font-family="Segoe Print" font-size="12.5" lengthAdjust="spacing" textLength="7.9529" x="56.4402" y="60.1868">3</text><text fill="#FFFFFF" font-family="Segoe Print" font-size="12.5" lengthAdjust="spacing" textLength="7.9529" x="76.4402" y="60.1868">4</text><text fill="#FFFFFF" font-family="Segoe Print" font-size="12.5" lengthAdjust="spacing" textLength="7.9529" x="96.4402" y="60.1868">5</text><text fill="#FFFFFF" font-family="Segoe Print" font-size="12.5" lengthAdjust="spacing" textLength="7.9529" x="116.4402" y="60.1868">6</text><text fill="#FFFFFF" font-family="Segoe Print" font-size="12.5" lengthAdjust="spacing" textLength="7.9529" x="136.4402" y="60.1868">7</text><text fill="#FFFFFF" font-family="Segoe Print" font-size="12.5" lengthAdjust="spacing" textLength="7.9529" x="156.4402" y="60.1868">8</text><text fill="#FFFFFF" font-family="Segoe Print" font-size="12.5" lengthAdjust="spacing" textLength="7.9529" x="176.4402" y="60.1868">9</text><text fill="#FFFFFF" font-family="Segoe Print" font-size="12.5" lengthAdjust="spacing" textLength="15.9058" x="192.4638" y="60.1868">10</text><path d="M82.0833,152.6855 L82.2779,152.6855 L81.6997,159.5573 L82.2623,166.429 L82.4534,173.3008 L81.4228,180.1725 L82.0833,187.0443 L82.0833,186.9723 L83.125,186.6494 L84.1667,186.6892 L85.2083,186.9812 L86.25,186.4041 L87.2917,187.0443 " fill="#FFFFFF" fill-opacity="0.00000" style="stroke:#333333;stroke-width:3.125;"/><polygon fill="#333333" points="86.25,182.8776,86.3016,182.9292,86.9816,183.6092,87.9641,184.5917,88.8481,185.4757,89.4082,186.0358,90.4167,187.0443,90.3976,187.0252,89.4786,187.7729,88.6558,188.6168,87.8999,189.5275,86.9136,190.2079,86.25,191.2109,86.4422,191.2109,86.0312,189.5443,86.1813,187.8776,86.4,186.2109,86.2202,184.5443,86.25,182.8776" style="stroke:#333333;stroke-width:1.0417;"/><polygon fill="#FFFFFF" fill-opacity="0.00000" points="25,77.7507,25,77.9696,35.6771,77.3191,46.3542,77.952,57.0313,78.167,67.7083,77.0075,78.3854,77.6697,89.0625,77.3064,99.7396,77.3512,110.4167,77.6797,121.0938,77.0305,131.7708,78.3274,142.4479,77.0941,153.125,77.5446,163.8021,78.2006,174.4792,77.6613,185.1563,77.8217,195.8333,77.7507,195.8291,77.7404,196.4463,78.052,197.0436,78.3155,197.6789,78.6708,198.2795,78.9422,198.7796,78.971,198.9975,79.0613,199.1054,79.5941,199.4165,80.2112,199.7371,80.8321,199.5246,81.2322,200,81.9173,200.2356,81.9173,199.897,85.6608,200.1854,89.4043,199.8281,93.1478,199.9762,96.8913,200,100.6348,200.2379,100.7333,199.7403,101.2175,199.5456,101.8273,199.3764,102.4475,199.1572,103.0471,198.7796,103.581,198.7791,103.5798,198.2285,103.9173,197.525,103.8856,197.0496,104.4045,196.4954,104.7332,195.8333,104.8014,195.8333,105.2645,185.1563,105.44,174.4792,104.2982,163.8021,104.1221,153.125,104.1541,142.4479,104.7401,131.7708,104.5967,121.0938,105.5112,110.4167,104.6195,99.7396,104.4441,89.0625,105.0392,78.3854,104.1068,67.7083,104.2607,57.0313,105.4774,46.3542,105.2553,35.6771,105.5665,25,104.8014,24.9572,104.6982,24.4532,104.6598,23.8999,104.5027,23.1695,103.9177,22.6302,103.7944,22.0537,103.581,22.0941,103.5978,22.0187,103.0784,21.5642,102.402,21.4699,101.8747,20.8998,101.1504,20.8333,100.6348,20.5982,100.6348,21.0082,96.8913,20.5844,93.1478,21.0101,89.4043,20.9051,85.6608,20.8333,81.9173,20.7474,81.8817,20.9639,81.2811,21.4687,80.7998,21.4695,80.1098,21.9995,79.6389,22.0537,78.971,21.9803,78.7937,22.725,78.925,23.2966,78.6382,23.854,78.3174,24.417,78.0099,25,77.7507" style="stroke:#333333;stroke-width:1.0417;"/><polygon fill="#FFFFFF" fill-opacity="0.00000" points="25,125.6348,25,125.8537,35.1667,125.2032,45.3333,125.8361,55.5,126.0511,65.6667,124.8916,75.8333,125.6348,75.823,125.6098,76.3659,125.742,76.9609,125.9999,77.592,126.3451,78.0985,126.3893,78.7796,126.8552,78.9572,126.9287,78.8215,127.3607,79.2043,128.0074,79.6504,128.6803,79.7284,129.2008,80,129.8014,80.0237,129.8014,79.9889,133.5449,80.062,137.2884,80.083,141.0319,80.2034,144.7754,80,148.5189,80.2153,148.608,79.9738,149.1984,79.5935,149.7312,79.4165,150.3482,79.249,150.9692,78.7796,151.4652,78.6838,151.2338,78.2805,151.9269,77.5617,151.8582,77.0828,152.3686,76.3568,152.2827,75.8333,152.6855,75.8333,152.6142,65.6667,153.4581,55.5,152.6348,45.3333,152.7952,35.1667,153.0383,25,152.6855,25.0553,152.8191,24.4102,152.4402,23.8597,152.2895,23.1562,151.7697,22.6808,151.8005,22.0537,151.4652,22.2296,151.538,21.9522,150.935,21.7622,150.3681,21.1665,149.6332,20.8682,149.0215,20.8333,148.5189,20.6176,148.5189,20.8129,144.7754,20.7651,141.0319,21.0699,137.2884,20.7727,133.5449,20.8333,129.8014,20.7233,129.7558,21.1506,129.2425,21.1076,128.5343,21.399,127.9647,22.0178,127.5306,22.0537,126.8552,22.1116,126.9949,22.7406,126.8467,23.1895,126.2638,23.8639,126.2253,24.4892,126.0682,25,125.6348" style="stroke:#333333;stroke-width:1.0417;"/><polygon fill="#FFFFFF" fill-opacity="0.00000" points="105,173.5189,105,173.7378,115.1667,173.0873,125.3333,173.7202,135.5,173.9352,145.6667,172.7758,155.8333,173.5189,155.823,173.494,156.3659,173.6261,156.9609,173.884,157.592,174.2292,158.0985,174.2734,158.7796,174.7393,158.9572,174.8128,158.8215,175.2448,159.2043,175.8915,159.6504,176.5644,159.7284,177.0849,160,177.6855,160.0237,177.6855,159.9889,181.429,160.062,185.1725,160.083,188.916,160.2034,192.6595,160,196.403,160.2153,196.4922,159.9738,197.0825,159.5935,197.6153,159.4165,198.2324,159.249,198.8533,158.7796,199.3493,158.6838,199.1179,158.2805,199.811,157.5617,199.7423,157.0828,200.2527,156.3568,200.1668,155.8333,200.5697,155.8333,200.4983,145.6667,201.3422,135.5,200.5189,125.3333,200.6794,115.1667,200.9224,105,200.5697,105.0553,200.7032,104.4102,200.3243,103.8597,200.1736,103.1562,199.6538,102.6808,199.6846,102.0537,199.3493,102.2296,199.4221,101.9522,198.8191,101.7622,198.2522,101.1665,197.5173,100.8682,196.9056,100.8333,196.403,100.6176,196.403,100.8129,192.6595,100.7651,188.916,101.0699,185.1725,100.7727,181.429,100.8333,177.6855,100.7233,177.64,101.1506,177.1266,101.1076,176.4184,101.399,175.8488,102.0178,175.4148,102.0537,174.7393,102.1116,174.879,102.7406,174.7308,103.1895,174.1479,103.8639,174.1094,104.4892,173.9524,105,173.5189" style="stroke:#333333;stroke-width:1.0417;"/><text fill="#2E2E2E" font-family="Segoe Print" font-size="12.5" lengthAdjust="spacing" textLength="86.9385" x="16.6667" y="95.6034">Task1 {Alice}</text><text fill="#2E2E2E" font-family="Segoe Print" font-size="12.5" lengthAdjust="spacing" textLength="113.031" x="92.5" y="143.4875">Task2 {Bob:50%}</text><text fill="#2E2E2E" font-family="Segoe Print" font-size="12.5" lengthAdjust="spacing" textLength="118.9331" x="172.5" y="191.3717">Task3 {Alice:25%}</text><text fill="#000000" font-family="Serif" font-size="13.5417" lengthAdjust="spacing" textLength="34.0393" x="10.4167" y="223.556">Alice</text><path d="M10.4167,226.7497 L10.4167,227.0416 L20.943,226.1742 L31.4693,227.0181 L41.9956,227.3048 L52.5219,225.7588 L63.0482,226.6417 L73.5746,226.1573 L84.1009,226.217 L94.6272,226.655 L105.1535,225.7894 L115.6798,227.5186 L126.2061,225.8743 L136.7325,226.475 L147.2588,227.3496 L157.7851,226.6305 L168.3114,226.8444 L178.8377,226.7053 L189.364,226.9976 L199.8904,227.0818 L210.4167,226.7497 " fill="#FFFFFF" fill-opacity="0.00000" style="stroke:#000000;stroke-width:1.0417;"/><text fill="#000000" font-family="Serif" font-size="9.375" lengthAdjust="spacing" textLength="17.894" x="11.4697" y="236.3551">100</text><text fill="#000000" font-family="Serif" font-size="9.375" lengthAdjust="spacing" textLength="17.894" x="31.4697" y="236.3551">100</text><text fill="#000000" font-family="Serif" font-size="9.375" lengthAdjust="spacing" textLength="17.894" x="51.4697" y="236.3551">100</text><text fill="#000000" font-family="Serif" font-size="9.375" lengthAdjust="spacing" textLength="17.894" x="71.4697" y="236.3551">100</text><text fill="#FF0000" font-family="Serif" font-size="9.375" lengthAdjust="spacing" textLength="17.894" x="91.4697" y="236.3551">125</text><text fill="#FF0000" font-family="Serif" font-size="9.375" lengthAdjust="spacing" textLength="17.894" x="111.4697" y="236.3551">125</text><text fill="#FF0000" font-family="Serif" font-size="9.375" lengthAdjust="spacing" textLength="17.894" x="131.4697" y="236.3551">125</text><text fill="#FF0000" font-family="Serif" font-size="9.375" lengthAdjust="spacing" textLength="17.894" x="151.4697" y="236.3551">125</text><text fill="#000000" font-family="Serif" font-size="9.375" lengthAdjust="spacing" textLength="17.894" x="171.4697" y="236.3551">100</text><text fill="#000000" font-family="Serif" font-size="9.375" lengthAdjust="spacing" textLength="17.894" x="191.4697" y="236.3551">100</text><text fill="#000000" font-family="Serif" font-size="13.5417" lengthAdjust="spacing" textLength="26.7726" x="10.4167" y="256.8893">Bob</text><path d="M10.4167,260.083 L10.4167,260.3749 L20.943,259.5076 L31.4693,260.3515 L41.9956,260.6381 L52.5219,259.0922 L63.0482,259.9751 L73.5746,259.4907 L84.1009,259.5504 L94.6272,259.9883 L105.1535,259.1228 L115.6798,260.852 L126.2061,259.2076 L136.7325,259.8083 L147.2588,260.6829 L157.7851,259.9639 L168.3114,260.1778 L178.8377,260.0386 L189.364,260.331 L199.8904,260.4151 L210.4167,260.083 " fill="#FFFFFF" fill-opacity="0.00000" style="stroke:#000000;stroke-width:1.0417;"/><text fill="#000000" font-family="Serif" font-size="9.375" lengthAdjust="spacing" textLength="11.9293" x="14.452" y="269.6884">50</text><text fill="#000000" font-family="Serif" font-size="9.375" lengthAdjust="spacing" textLength="11.9293" x="34.452" y="269.6884">50</text><text fill="#000000" font-family="Serif" font-size="9.375" lengthAdjust="spacing" textLength="11.9293" x="54.452" y="269.6884">50</text><text fill="#000000" font-family="Serif" font-size="9.375" lengthAdjust="spacing" textLength="11.9293" x="74.452" y="269.6884">50</text><text fill="#FFFFFF" font-family="Segoe Print" font-size="12.5" lengthAdjust="spacing" textLength="7.9529" x="16.4402" y="292.3808">1</text><text fill="#FFFFFF" font-family="Segoe Print" font-size="12.5" lengthAdjust="spacing" textLength="7.9529" x="36.4402" y="292.3808">2</text><text fill="#FFFFFF" font-family="Segoe Print" font-size="12.5" lengthAdjust="spacing" textLength="7.9529" x="56.4402" y="292.3808">3</text><text fill="#FFFFFF" font-family="Segoe Print" font-size="12.5" lengthAdjust="spacing" textLength="7.9529" x="76.4402" y="292.3808">4</text><text fill="#FFFFFF" font-family="Segoe Print" font-size="12.5" lengthAdjust="spacing" textLength="7.9529" x="96.4402" y="292.3808">5</text><text fill="#FFFFFF" font-family="Segoe Print" font-size="12.5" lengthAdjust="spacing" textLength="7.9529" x="116.4402" y="292.3808">6</text><text fill="#FFFFFF" font-family="Segoe Print" font-size="12.5" lengthAdjust="spacing" textLength="7.9529" x="136.4402" y="292.3808">7</text><text fill="#FFFFFF" font-family="Segoe Print" font-size="12.5" lengthAdjust="spacing" textLength="7.9529" x="156.4402" y="292.3808">8</text><text fill="#FFFFFF" font-family="Segoe Print" font-size="12.5" lengthAdjust="spacing" textLength="7.9529" x="176.4402" y="292.3808">9</text><text fill="#FFFFFF" font-family="Segoe Print" font-size="12.5" lengthAdjust="spacing" textLength="15.9058" x="192.4638" y="292.3808">10</text><text fill="#2E2E2E" font-family="Segoe Print" font-size="10.4167" lengthAdjust="spacing" textLength="3.3112" x="73.4014" y="327.947">&#160;</text><text fill="#2E2E2E" font-family="Segoe Print" font-size="10.4167" font-style="italic" lengthAdjust="spacing" textLength="53.6092" x="32.2917" y="340.0726">Rel. Issue:</text><a href="https://github.com/plantuml/plantuml/issues/616" target="_top" title="https://github.com/plantuml/plantuml/issues/616" xlink:actuate="onRequest" xlink:href="https://github.com/plantuml/plantuml/issues/616" xlink:show="new" xlink:title="https://github.com/plantuml/plantuml/issues/616" xlink:type="simple"><text fill="#FD7E14" font-family="Segoe Print" font-size="10.4167" font-style="italic" lengthAdjust="spacing" text-decoration="underline" textLength="28.6102" x="89.212" y="340.0726">#616</text></a></g></svg>