<svg xmlns="http://www.w3.org/2000/svg" xmlns:xlink="http://www.w3.org/1999/xlink" contentStyleType="text/css" data-diagram-type="GANTT" height="568.75px" preserveAspectRatio="none" style="width:517px;height:568px;" version="1.1" viewBox="0 0 517 568" width="517.7083px" zoomAndPan="magnify"><defs/><g><rect fill="#FFFFCC" height="27.7507" rx="2.6042" ry="2.6042" style="stroke:#FFDD88;stroke-width:3.125;" width="507.1334" x="5.2083" y="5.2083"/><text fill="#000000" font-family="monospace" font-size="10.4167" lengthAdjust="spacing" textLength="370.0104" x="10.4167" y="20.8333">Please&#160;use&#160;'!option&#160;handwritten&#160;true'&#160;to&#160;enable&#160;handwritten</text><polygon fill="#555555" points="10.4167,48.584,10.4167,48.8029,20.8514,48.1524,31.2862,48.7853,41.721,49.0003,52.1558,47.8409,62.5906,48.503,73.0254,48.1397,83.4601,48.1845,93.8949,48.513,104.3297,47.8638,114.7645,49.1607,125.1993,47.9274,135.6341,48.378,146.0688,49.0339,156.5036,48.4946,166.9384,48.6551,177.3732,48.5507,187.808,48.7699,198.2428,48.8331,208.6775,49.1941,219.1123,49.283,229.5471,49.2915,239.9819,48.8492,250.4167,49.0669,260.8514,49.3155,271.2862,47.8327,281.721,49.2908,292.1558,48.2751,302.5906,49.14,313.0254,48.0683,323.4601,48.5126,333.8949,49.3565,344.3297,48.5332,354.7645,48.6937,365.1993,48.9367,375.6341,49.0176,386.0688,48.5799,396.5036,48.8832,406.9384,47.9877,417.3732,48.8802,427.808,49.155,438.2428,49.047,448.6775,49.2226,459.1123,48.0808,469.5471,47.9046,479.9819,47.9367,490.4167,48.584,490.3962,48.584,490.3484,57.5423,490.6533,66.5007,490.356,75.459,490.2976,84.4173,490.4167,93.3757,490.4167,93.6134,479.9819,92.681,469.5471,92.8349,459.1123,94.0516,448.6775,93.8295,438.2428,94.1407,427.808,93.0404,417.3732,93.7081,406.9384,93.9907,396.5036,92.8836,386.0688,93.2758,375.6341,93.5069,365.1993,94.0546,354.7645,93.3713,344.3297,93.8575,333.8949,92.7988,323.4601,92.6702,313.0254,93.9002,302.5906,92.6288,292.1558,93.9058,281.721,93.5909,271.2862,93.0966,260.8514,93.0071,250.4167,93.8535,239.9819,93.0638,229.5471,93.9922,219.1123,92.7999,208.6775,94.0188,198.2428,93.8801,187.808,93.6308,177.3732,93.4248,166.9384,94.1325,156.5036,94.0148,146.0688,93.552,135.6341,93.655,125.1993,93.24,114.7645,94.122,104.3297,93.537,93.8949,93.5554,83.4601,92.742,73.0254,92.9535,62.5906,93.9285,52.1558,93.8233,41.721,93.3309,31.2862,93.0401,20.8514,93.1476,10.4167,93.3757,10.1784,93.3757,10.5607,84.4173,10.6735,75.459,10.5994,66.5007,10.658,57.5423,10.4167,48.584" style="stroke:#FFFFFF00;stroke-width:1.0417;"/><polygon fill="#555555" points="10.4167,511.8327,10.4167,512.0516,20.8514,511.4011,31.2862,512.034,41.721,512.249,52.1558,511.0896,62.5906,511.7517,73.0254,511.3884,83.4601,511.4332,93.8949,511.7617,104.3297,511.1125,114.7645,512.4094,125.1993,511.1761,135.6341,511.6267,146.0688,512.2826,156.5036,511.7433,166.9384,511.9038,177.3732,511.7994,187.808,512.0186,198.2428,512.0818,208.6775,512.4428,219.1123,512.5317,229.5471,512.5402,239.9819,512.0979,250.4167,512.3156,260.8514,512.5642,271.2862,511.0814,281.721,512.5395,292.1558,511.5238,302.5906,512.3887,313.0254,511.317,323.4601,511.7613,333.8949,512.6052,344.3297,511.7819,354.7645,511.9424,365.1993,512.1854,375.6341,512.2663,386.0688,511.8286,396.5036,512.1319,406.9384,511.2364,417.3732,512.1289,427.808,512.4037,438.2428,512.2957,448.6775,512.4712,459.1123,511.3295,469.5471,511.1533,479.9819,511.1854,490.4167,511.8327,490.3962,511.8327,490.3484,520.9993,490.6533,530.166,490.356,539.3327,490.2976,548.4993,490.4167,557.666,490.4167,557.9038,479.9819,556.9714,469.5471,557.1253,459.1123,558.342,448.6775,558.1198,438.2428,558.4311,427.808,557.3308,417.3732,557.9985,406.9384,558.281,396.5036,557.1739,386.0688,557.5662,375.6341,557.7972,365.1993,558.3449,354.7645,557.6617,344.3297,558.1479,333.8949,557.0892,323.4601,556.9605,313.0254,558.1906,302.5906,556.9192,292.1558,558.1962,281.721,557.8813,271.2862,557.3869,260.8514,557.2975,250.4167,558.1439,239.9819,557.3542,229.5471,558.2825,219.1123,557.0902,208.6775,558.3092,198.2428,558.1705,187.808,557.9212,177.3732,557.7152,166.9384,558.4229,156.5036,558.3052,146.0688,557.8423,135.6341,557.9454,125.1993,557.5303,114.7645,558.4123,104.3297,557.8273,93.8949,557.8458,83.4601,557.0323,73.0254,557.2439,62.5906,558.2189,52.1558,558.1137,41.721,557.6213,31.2862,557.3304,20.8514,557.438,10.4167,557.666,10.1784,557.666,10.5607,548.4993,10.6735,539.3327,10.5994,530.166,10.658,520.9993,10.4167,511.8327" style="stroke:#FFFFFF00;stroke-width:1.0417;"/><polygon fill="#E6AE06" points="130.4167,93.3757,130.4167,93.4486,134.4167,93.2318,138.4167,93.4428,142.4167,93.5144,146.4167,93.1279,150.4167,93.3757,150.3357,93.3757,149.9724,103.8371,150.0172,114.2985,150.3457,124.7599,149.6965,135.2214,150.9934,145.6828,149.7601,156.1442,150.2107,166.6056,150.8666,177.0671,150.3273,187.5285,150.4877,197.9899,150.3834,208.4513,150.6026,218.9128,150.6658,229.3742,151.0268,239.8356,151.1157,250.297,151.1242,260.7585,150.6819,271.2199,150.8996,281.6813,151.1482,292.1427,149.6654,302.6042,151.1234,313.0656,150.1078,323.527,150.9727,333.9884,149.901,344.4499,150.3453,354.9113,151.1892,365.3727,150.3659,375.8341,150.5264,386.2956,150.7694,396.757,150.8502,407.2184,150.4126,417.6799,150.7158,428.1413,149.8204,438.6027,150.7129,449.0641,150.9877,459.5256,150.8797,469.987,151.0552,480.4484,149.9135,490.9098,149.7373,501.3713,150.4167,511.8327,150.4167,511.6169,146.4167,511.8122,142.4167,511.7644,138.4167,512.0693,134.4167,511.772,130.4167,511.8327,130.0593,511.8327,130.6544,501.3713,129.722,490.9098,129.8759,480.4484,131.0927,469.987,130.8705,459.5256,131.1818,449.0641,130.0815,438.6027,130.7492,428.1413,131.0317,417.6799,129.9246,407.2184,130.3168,396.757,130.5479,386.2956,131.0956,375.8341,130.4123,365.3727,130.8985,354.9113,129.8398,344.4499,129.7112,333.9884,130.9413,323.527,129.6699,313.0656,130.9468,302.6042,130.6319,292.1427,130.1376,281.6813,130.0482,271.2199,130.8945,260.7585,130.1049,250.297,131.0332,239.8356,129.8409,229.3742,131.0598,218.9128,130.9211,208.4513,130.6718,197.9899,130.4659,187.5285,131.1736,177.0671,131.0558,166.6056,130.593,156.1442,130.696,145.6828,130.281,135.2214,131.163,124.7599,130.578,114.2985,130.5964,103.8371,130.4167,93.3757" style="stroke:#FFFFFF00;stroke-width:1.0417;"/><polygon fill="#E6AE06" points="270.4167,93.3757,270.4167,93.4486,274.4167,93.2318,278.4167,93.4428,282.4167,93.5144,286.4167,93.1279,290.4167,93.3757,290.3357,93.3757,289.9724,103.8371,290.0172,114.2985,290.3457,124.7599,289.6965,135.2214,290.9934,145.6828,289.7601,156.1442,290.2107,166.6056,290.8666,177.0671,290.3273,187.5285,290.4877,197.9899,290.3834,208.4513,290.6026,218.9128,290.6658,229.3742,291.0268,239.8356,291.1157,250.297,291.1242,260.7585,290.6819,271.2199,290.8996,281.6813,291.1482,292.1427,289.6654,302.6042,291.1234,313.0656,290.1078,323.527,290.9727,333.9884,289.901,344.4499,290.3453,354.9113,291.1892,365.3727,290.3659,375.8341,290.5264,386.2956,290.7694,396.757,290.8502,407.2184,290.4126,417.6799,290.7158,428.1413,289.8204,438.6027,290.7129,449.0641,290.9877,459.5256,290.8797,469.987,291.0552,480.4484,289.9135,490.9098,289.7373,501.3713,290.4167,511.8327,290.4167,511.6169,286.4167,511.8122,282.4167,511.7644,278.4167,512.0693,274.4167,511.772,270.4167,511.8327,270.0593,511.8327,270.6544,501.3713,269.722,490.9098,269.8759,480.4484,271.0927,469.987,270.8705,459.5256,271.1818,449.0641,270.0815,438.6027,270.7492,428.1413,271.0317,417.6799,269.9246,407.2184,270.3168,396.757,270.5479,386.2956,271.0956,375.8341,270.4123,365.3727,270.8985,354.9113,269.8398,344.4499,269.7112,333.9884,270.9413,323.527,269.6699,313.0656,270.9468,302.6042,270.6319,292.1427,270.1376,281.6813,270.0482,271.2199,270.8945,260.7585,270.1049,250.297,271.0332,239.8356,269.8409,229.3742,271.0598,218.9128,270.9211,208.4513,270.6718,197.9899,270.4659,187.5285,271.1736,177.0671,271.0558,166.6056,270.593,156.1442,270.696,145.6828,270.281,135.2214,271.163,124.7599,270.578,114.2985,270.5964,103.8371,270.4167,93.3757" style="stroke:#FFFFFF00;stroke-width:1.0417;"/><polygon fill="#E6AE06" points="410.4167,93.3757,410.4167,93.4486,414.4167,93.2318,418.4167,93.4428,422.4167,93.5144,426.4167,93.1279,430.4167,93.3757,430.3357,93.3757,429.9724,103.8371,430.0172,114.2985,430.3457,124.7599,429.6965,135.2214,430.9934,145.6828,429.7601,156.1442,430.2107,166.6056,430.8666,177.0671,430.3273,187.5285,430.4877,197.9899,430.3834,208.4513,430.6026,218.9128,430.6658,229.3742,431.0268,239.8356,431.1157,250.297,431.1242,260.7585,430.6819,271.2199,430.8996,281.6813,431.1482,292.1427,429.6654,302.6042,431.1234,313.0656,430.1078,323.527,430.9727,333.9884,429.901,344.4499,430.3453,354.9113,431.1892,365.3727,430.3659,375.8341,430.5264,386.2956,430.7694,396.757,430.8502,407.2184,430.4126,417.6799,430.7158,428.1413,429.8204,438.6027,430.7129,449.0641,430.9877,459.5256,430.8797,469.987,431.0552,480.4484,429.9135,490.9098,429.7373,501.3713,430.4167,511.8327,430.4167,511.6169,426.4167,511.8122,422.4167,511.7644,418.4167,512.0693,414.4167,511.772,410.4167,511.8327,410.0593,511.8327,410.6544,501.3713,409.722,490.9098,409.8759,480.4484,411.0927,469.987,410.8705,459.5256,411.1818,449.0641,410.0815,438.6027,410.7492,428.1413,411.0317,417.6799,409.9246,407.2184,410.3168,396.757,410.5479,386.2956,411.0956,375.8341,410.4123,365.3727,410.8985,354.9113,409.8398,344.4499,409.7112,333.9884,410.9413,323.527,409.6699,313.0656,410.9468,302.6042,410.6319,292.1427,410.1376,281.6813,410.0482,271.2199,410.8945,260.7585,410.1049,250.297,411.0332,239.8356,409.8409,229.3742,411.0598,218.9128,410.9211,208.4513,410.6718,197.9899,410.4659,187.5285,411.1736,177.0671,411.0558,166.6056,410.593,156.1442,410.696,145.6828,410.281,135.2214,411.163,124.7599,410.578,114.2985,410.5964,103.8371,410.4167,93.3757" style="stroke:#FFFFFF00;stroke-width:1.0417;"/><text fill="#FFFFFF" font-family="Segoe Print" font-size="12.5" lengthAdjust="spacing" textLength="18.4326" x="11.2004" y="74.7701">Mo</text><text fill="#FFFFFF" font-family="Segoe Print" font-size="12.5" lengthAdjust="spacing" textLength="15.5579" x="32.6377" y="74.7701">Tu</text><text fill="#FFFFFF" font-family="Segoe Print" font-size="12.5" lengthAdjust="spacing" textLength="20.05" x="50.4167" y="74.7701">We</text><text fill="#FFFFFF" font-family="Segoe Print" font-size="12.5" lengthAdjust="spacing" textLength="15.5579" x="72.6377" y="74.7701">Th</text><text fill="#FFFFFF" font-family="Segoe Print" font-size="12.5" lengthAdjust="spacing" textLength="12.3291" x="94.2521" y="74.7701">Fr</text><text fill="#FFFFFF" font-family="Segoe Print" font-size="12.5" lengthAdjust="spacing" textLength="15.5945" x="112.6194" y="74.7701">Sa</text><text fill="#FFFFFF" font-family="Segoe Print" font-size="12.5" lengthAdjust="spacing" textLength="15.8569" x="132.4882" y="74.7701">Su</text><text fill="#FFFFFF" font-family="Segoe Print" font-size="12.5" lengthAdjust="spacing" textLength="18.4326" x="151.2004" y="74.7701">Mo</text><text fill="#FFFFFF" font-family="Segoe Print" font-size="12.5" lengthAdjust="spacing" textLength="15.5579" x="172.6377" y="74.7701">Tu</text><text fill="#FFFFFF" font-family="Segoe Print" font-size="12.5" lengthAdjust="spacing" textLength="20.05" x="190.4167" y="74.7701">We</text><text fill="#FFFFFF" font-family="Segoe Print" font-size="12.5" lengthAdjust="spacing" textLength="15.5579" x="212.6377" y="74.7701">Th</text><text fill="#FFFFFF" font-family="Segoe Print" font-size="12.5" lengthAdjust="spacing" textLength="12.3291" x="234.2521" y="74.7701">Fr</text><text fill="#FFFFFF" font-family="Segoe Print" font-size="12.5" lengthAdjust="spacing" textLength="15.5945" x="252.6194" y="74.7701">Sa</text><text fill="#FFFFFF" font-family="Segoe Print" font-size="12.5" lengthAdjust="spacing" textLength="15.8569" x="272.4882" y="74.7701">Su</text><text fill="#FFFFFF" font-family="Segoe Print" font-size="12.5" lengthAdjust="spacing" textLength="18.4326" x="291.2004" y="74.7701">Mo</text><text fill="#FFFFFF" font-family="Segoe Print" font-size="12.5" lengthAdjust="spacing" textLength="15.5579" x="312.6377" y="74.7701">Tu</text><text fill="#FFFFFF" font-family="Segoe Print" font-size="12.5" lengthAdjust="spacing" textLength="20.05" x="330.4167" y="74.7701">We</text><text fill="#FFFFFF" font-family="Segoe Print" font-size="12.5" lengthAdjust="spacing" textLength="15.5579" x="352.6377" y="74.7701">Th</text><text fill="#FFFFFF" font-family="Segoe Print" font-size="12.5" lengthAdjust="spacing" textLength="12.3291" x="374.2521" y="74.7701">Fr</text><text fill="#FFFFFF" font-family="Segoe Print" font-size="12.5" lengthAdjust="spacing" textLength="15.5945" x="392.6194" y="74.7701">Sa</text><text fill="#FFFFFF" font-family="Segoe Print" font-size="12.5" lengthAdjust="spacing" textLength="15.8569" x="412.4882" y="74.7701">Su</text><text fill="#FFFFFF" font-family="Segoe Print" font-size="12.5" lengthAdjust="spacing" textLength="18.4326" x="431.2004" y="74.7701">Mo</text><text fill="#FFFFFF" font-family="Segoe Print" font-size="12.5" lengthAdjust="spacing" textLength="15.5579" x="452.6377" y="74.7701">Tu</text><text fill="#FFFFFF" font-family="Segoe Print" font-size="12.5" lengthAdjust="spacing" textLength="20.05" x="470.4167" y="74.7701">We</text><text fill="#FFFFFF" font-family="Segoe Print" font-size="12.5" lengthAdjust="spacing" textLength="15.9058" x="12.4638" y="89.3534">14</text><text fill="#FFFFFF" font-family="Segoe Print" font-size="12.5" lengthAdjust="spacing" textLength="15.9058" x="32.4638" y="89.3534">15</text><text fill="#FFFFFF" font-family="Segoe Print" font-size="12.5" lengthAdjust="spacing" textLength="15.9058" x="52.4638" y="89.3534">16</text><text fill="#FFFFFF" font-family="Segoe Print" font-size="12.5" lengthAdjust="spacing" textLength="15.9058" x="72.4638" y="89.3534">17</text><text fill="#FFFFFF" font-family="Segoe Print" font-size="12.5" lengthAdjust="spacing" textLength="15.9058" x="92.4638" y="89.3534">18</text><text fill="#FFFFFF" font-family="Segoe Print" font-size="12.5" lengthAdjust="spacing" textLength="15.9058" x="112.4638" y="89.3534">19</text><text fill="#FFFFFF" font-family="Segoe Print" font-size="12.5" lengthAdjust="spacing" textLength="15.9058" x="132.4638" y="89.3534">20</text><text fill="#FFFFFF" font-family="Segoe Print" font-size="12.5" lengthAdjust="spacing" textLength="15.9058" x="152.4638" y="89.3534">21</text><text fill="#FFFFFF" font-family="Segoe Print" font-size="12.5" lengthAdjust="spacing" textLength="15.9058" x="172.4638" y="89.3534">22</text><text fill="#FFFFFF" font-family="Segoe Print" font-size="12.5" lengthAdjust="spacing" textLength="15.9058" x="192.4638" y="89.3534">23</text><text fill="#FFFFFF" font-family="Segoe Print" font-size="12.5" lengthAdjust="spacing" textLength="15.9058" x="212.4638" y="89.3534">24</text><text fill="#FFFFFF" font-family="Segoe Print" font-size="12.5" lengthAdjust="spacing" textLength="15.9058" x="232.4638" y="89.3534">25</text><text fill="#FFFFFF" font-family="Segoe Print" font-size="12.5" lengthAdjust="spacing" textLength="15.9058" x="252.4638" y="89.3534">26</text><text fill="#FFFFFF" font-family="Segoe Print" font-size="12.5" lengthAdjust="spacing" textLength="15.9058" x="272.4638" y="89.3534">27</text><text fill="#FFFFFF" font-family="Segoe Print" font-size="12.5" lengthAdjust="spacing" textLength="15.9058" x="292.4638" y="89.3534">28</text><text fill="#FFFFFF" font-family="Segoe Print" font-size="12.5" lengthAdjust="spacing" textLength="15.9058" x="312.4638" y="89.3534">29</text><text fill="#FFFFFF" font-family="Segoe Print" font-size="12.5" lengthAdjust="spacing" textLength="15.9058" x="332.4638" y="89.3534">30</text><text fill="#FFFFFF" font-family="Segoe Print" font-size="12.5" lengthAdjust="spacing" textLength="15.9058" x="352.4638" y="89.3534">31</text><text fill="#FFFFFF" font-family="Segoe Print" font-size="12.5" lengthAdjust="spacing" textLength="7.9529" x="376.4402" y="89.3534">1</text><text fill="#FFFFFF" font-family="Segoe Print" font-size="12.5" lengthAdjust="spacing" textLength="7.9529" x="396.4402" y="89.3534">2</text><text fill="#FFFFFF" font-family="Segoe Print" font-size="12.5" lengthAdjust="spacing" textLength="7.9529" x="416.4402" y="89.3534">3</text><text fill="#FFFFFF" font-family="Segoe Print" font-size="12.5" lengthAdjust="spacing" textLength="7.9529" x="436.4402" y="89.3534">4</text><text fill="#FFFFFF" font-family="Segoe Print" font-size="12.5" lengthAdjust="spacing" textLength="7.9529" x="456.4402" y="89.3534">5</text><text fill="#FFFFFF" font-family="Segoe Print" font-size="12.5" lengthAdjust="spacing" textLength="7.9529" x="476.4402" y="89.3534">6</text><text fill="#FFFFFF" font-family="Segoe Print" font-size="12.5" font-weight="bold" lengthAdjust="spacing" textLength="110.498" x="135.1676" y="60.1868">December 2020</text><text fill="#FFFFFF" font-family="Segoe Print" font-size="12.5" font-weight="bold" lengthAdjust="spacing" textLength="92.7734" x="384.0299" y="60.1868">January 2021</text><path d="M10.4167,93.3757 L10.7086,93.3757 L9.8412,103.8371 L10.6851,114.2985 L10.9718,124.7599 L9.4258,135.2214 L10.3087,145.6828 L9.8243,156.1442 L9.884,166.6056 L10.322,177.0671 L9.4564,187.5285 L11.1856,197.9899 L9.5413,208.4513 L10.142,218.9128 L11.0166,229.3742 L10.2975,239.8356 L10.5114,250.297 L10.3723,260.7585 L10.6646,271.2199 L10.7488,281.6813 L11.2301,292.1427 L11.3487,302.6042 L11.3601,313.0656 L10.7703,323.527 L11.0605,333.9884 L11.392,344.4499 L9.415,354.9113 L11.359,365.3727 L10.0049,375.8341 L11.1581,386.2956 L9.7291,396.757 L10.3215,407.2184 L11.4467,417.6799 L10.349,428.1413 L10.5629,438.6027 L10.887,449.0641 L10.9948,459.5256 L10.4112,469.987 L10.8156,480.4484 L9.6216,490.9098 L10.8116,501.3713 L10.4167,511.8327 " fill="#FFFFFF" fill-opacity="0.00000" style="stroke:#2E2E2E;stroke-width:1.0417;"/><path d="M30.4167,93.3757 L30.7086,93.3757 L29.8412,103.8371 L30.6851,114.2985 L30.9718,124.7599 L29.4258,135.2214 L30.3087,145.6828 L29.8243,156.1442 L29.884,166.6056 L30.322,177.0671 L29.4564,187.5285 L31.1856,197.9899 L29.5413,208.4513 L30.142,218.9128 L31.0166,229.3742 L30.2975,239.8356 L30.5114,250.297 L30.3723,260.7585 L30.6646,271.2199 L30.7488,281.6813 L31.2301,292.1427 L31.3487,302.6042 L31.3601,313.0656 L30.7703,323.527 L31.0605,333.9884 L31.392,344.4499 L29.415,354.9113 L31.359,365.3727 L30.0049,375.8341 L31.1581,386.2956 L29.7291,396.757 L30.3215,407.2184 L31.4467,417.6799 L30.349,428.1413 L30.5629,438.6027 L30.887,449.0641 L30.9948,459.5256 L30.4112,469.987 L30.8156,480.4484 L29.6216,490.9098 L30.8116,501.3713 L30.4167,511.8327 " fill="#FFFFFF" fill-opacity="0.00000" style="stroke:#2E2E2E;stroke-width:1.0417;"/><path d="M50.4167,93.3757 L50.7086,93.3757 L49.8412,103.8371 L50.6851,114.2985 L50.9718,124.7599 L49.4258,135.2214 L50.3087,145.6828 L49.8243,156.1442 L49.884,166.6056 L50.322,177.0671 L49.4564,187.5285 L51.1856,197.9899 L49.5413,208.4513 L50.142,218.9128 L51.0166,229.3742 L50.2975,239.8356 L50.5114,250.297 L50.3723,260.7585 L50.6646,271.2199 L50.7488,281.6813 L51.2301,292.1427 L51.3487,302.6042 L51.3601,313.0656 L50.7703,323.527 L51.0605,333.9884 L51.392,344.4499 L49.415,354.9113 L51.359,365.3727 L50.0049,375.8341 L51.1581,386.2956 L49.7291,396.757 L50.3215,407.2184 L51.4467,417.6799 L50.349,428.1413 L50.5629,438.6027 L50.887,449.0641 L50.9948,459.5256 L50.4112,469.987 L50.8156,480.4484 L49.6216,490.9098 L50.8116,501.3713 L50.4167,511.8327 " fill="#FFFFFF" fill-opacity="0.00000" style="stroke:#2E2E2E;stroke-width:1.0417;"/><path d="M70.4167,93.3757 L70.7086,93.3757 L69.8412,103.8371 L70.6851,114.2985 L70.9718,124.7599 L69.4258,135.2214 L70.3087,145.6828 L69.8243,156.1442 L69.884,166.6056 L70.322,177.0671 L69.4564,187.5285 L71.1856,197.9899 L69.5413,208.4513 L70.142,218.9128 L71.0166,229.3742 L70.2975,239.8356 L70.5114,250.297 L70.3723,260.7585 L70.6646,271.2199 L70.7488,281.6813 L71.2301,292.1427 L71.3487,302.6042 L71.3601,313.0656 L70.7703,323.527 L71.0605,333.9884 L71.392,344.4499 L69.415,354.9113 L71.359,365.3727 L70.0049,375.8341 L71.1581,386.2956 L69.7291,396.757 L70.3215,407.2184 L71.4467,417.6799 L70.349,428.1413 L70.5629,438.6027 L70.887,449.0641 L70.9948,459.5256 L70.4112,469.987 L70.8156,480.4484 L69.6216,490.9098 L70.8116,501.3713 L70.4167,511.8327 " fill="#FFFFFF" fill-opacity="0.00000" style="stroke:#2E2E2E;stroke-width:1.0417;"/><path d="M90.4167,93.3757 L90.7086,93.3757 L89.8412,103.8371 L90.6851,114.2985 L90.9718,124.7599 L89.4258,135.2214 L90.3087,145.6828 L89.8243,156.1442 L89.884,166.6056 L90.322,177.0671 L89.4564,187.5285 L91.1856,197.9899 L89.5413,208.4513 L90.142,218.9128 L91.0166,229.3742 L90.2975,239.8356 L90.5114,250.297 L90.3723,260.7585 L90.6646,271.2199 L90.7488,281.6813 L91.2301,292.1427 L91.3487,302.6042 L91.3601,313.0656 L90.7703,323.527 L91.0605,333.9884 L91.392,344.4499 L89.415,354.9113 L91.359,365.3727 L90.0049,375.8341 L91.1581,386.2956 L89.7291,396.757 L90.3215,407.2184 L91.4467,417.6799 L90.349,428.1413 L90.5629,438.6027 L90.887,449.0641 L90.9948,459.5256 L90.4112,469.987 L90.8156,480.4484 L89.6216,490.9098 L90.8116,501.3713 L90.4167,511.8327 " fill="#FFFFFF" fill-opacity="0.00000" style="stroke:#2E2E2E;stroke-width:1.0417;"/><path d="M110.4167,93.3757 L110.7086,93.3757 L109.8412,103.8371 L110.6851,114.2985 L110.9718,124.7599 L109.4258,135.2214 L110.3087,145.6828 L109.8243,156.1442 L109.884,166.6056 L110.322,177.0671 L109.4564,187.5285 L111.1856,197.9899 L109.5413,208.4513 L110.142,218.9128 L111.0166,229.3742 L110.2975,239.8356 L110.5114,250.297 L110.3723,260.7585 L110.6646,271.2199 L110.7488,281.6813 L111.2301,292.1427 L111.3487,302.6042 L111.3601,313.0656 L110.7703,323.527 L111.0605,333.9884 L111.392,344.4499 L109.415,354.9113 L111.359,365.3727 L110.0049,375.8341 L111.1581,386.2956 L109.7291,396.757 L110.3215,407.2184 L111.4467,417.6799 L110.349,428.1413 L110.5629,438.6027 L110.887,449.0641 L110.9948,459.5256 L110.4112,469.987 L110.8156,480.4484 L109.6216,490.9098 L110.8116,501.3713 L110.4167,511.8327 " fill="#FFFFFF" fill-opacity="0.00000" style="stroke:#2E2E2E;stroke-width:1.0417;"/><path d="M130.4167,93.3757 L130.7086,93.3757 L129.8412,103.8371 L130.6851,114.2985 L130.9718,124.7599 L129.4258,135.2214 L130.3087,145.6828 L129.8243,156.1442 L129.884,166.6056 L130.322,177.0671 L129.4564,187.5285 L131.1856,197.9899 L129.5413,208.4513 L130.142,218.9128 L131.0166,229.3742 L130.2975,239.8356 L130.5114,250.297 L130.3723,260.7585 L130.6646,271.2199 L130.7488,281.6813 L131.2301,292.1427 L131.3487,302.6042 L131.3601,313.0656 L130.7703,323.527 L131.0605,333.9884 L131.392,344.4499 L129.415,354.9113 L131.359,365.3727 L130.0049,375.8341 L131.1581,386.2956 L129.7291,396.757 L130.3215,407.2184 L131.4467,417.6799 L130.349,428.1413 L130.5629,438.6027 L130.887,449.0641 L130.9948,459.5256 L130.4112,469.987 L130.8156,480.4484 L129.6216,490.9098 L130.8116,501.3713 L130.4167,511.8327 " fill="#FFFFFF" fill-opacity="0.00000" style="stroke:#2E2E2E;stroke-width:1.0417;"/><path d="M150.4167,93.3757 L150.7086,93.3757 L149.8412,103.8371 L150.6851,114.2985 L150.9718,124.7599 L149.4258,135.2214 L150.3087,145.6828 L149.8243,156.1442 L149.884,166.6056 L150.322,177.0671 L149.4564,187.5285 L151.1856,197.9899 L149.5413,208.4513 L150.142,218.9128 L151.0166,229.3742 L150.2975,239.8356 L150.5114,250.297 L150.3723,260.7585 L150.6646,271.2199 L150.7488,281.6813 L151.2301,292.1427 L151.3487,302.6042 L151.3601,313.0656 L150.7703,323.527 L151.0605,333.9884 L151.392,344.4499 L149.415,354.9113 L151.359,365.3727 L150.0049,375.8341 L151.1581,386.2956 L149.7291,396.757 L150.3215,407.2184 L151.4467,417.6799 L150.349,428.1413 L150.5629,438.6027 L150.887,449.0641 L150.9948,459.5256 L150.4112,469.987 L150.8156,480.4484 L149.6216,490.9098 L150.8116,501.3713 L150.4167,511.8327 " fill="#FFFFFF" fill-opacity="0.00000" style="stroke:#2E2E2E;stroke-width:1.0417;"/><path d="M170.4167,93.3757 L170.7086,93.3757 L169.8412,103.8371 L170.6851,114.2985 L170.9718,124.7599 L169.4258,135.2214 L170.3087,145.6828 L169.8243,156.1442 L169.884,166.6056 L170.322,177.0671 L169.4564,187.5285 L171.1856,197.9899 L169.5413,208.4513 L170.142,218.9128 L171.0166,229.3742 L170.2975,239.8356 L170.5114,250.297 L170.3723,260.7585 L170.6646,271.2199 L170.7488,281.6813 L171.2301,292.1427 L171.3487,302.6042 L171.3601,313.0656 L170.7703,323.527 L171.0605,333.9884 L171.392,344.4499 L169.415,354.9113 L171.359,365.3727 L170.0049,375.8341 L171.1581,386.2956 L169.7291,396.757 L170.3215,407.2184 L171.4467,417.6799 L170.349,428.1413 L170.5629,438.6027 L170.887,449.0641 L170.9948,459.5256 L170.4112,469.987 L170.8156,480.4484 L169.6216,490.9098 L170.8116,501.3713 L170.4167,511.8327 " fill="#FFFFFF" fill-opacity="0.00000" style="stroke:#2E2E2E;stroke-width:1.0417;"/><path d="M190.4167,93.3757 L190.7086,93.3757 L189.8412,103.8371 L190.6851,114.2985 L190.9718,124.7599 L189.4258,135.2214 L190.3087,145.6828 L189.8243,156.1442 L189.884,166.6056 L190.322,177.0671 L189.4564,187.5285 L191.1856,197.9899 L189.5413,208.4513 L190.142,218.9128 L191.0166,229.3742 L190.2975,239.8356 L190.5114,250.297 L190.3723,260.7585 L190.6646,271.2199 L190.7488,281.6813 L191.2301,292.1427 L191.3487,302.6042 L191.3601,313.0656 L190.7703,323.527 L191.0605,333.9884 L191.392,344.4499 L189.415,354.9113 L191.359,365.3727 L190.0049,375.8341 L191.1581,386.2956 L189.7291,396.757 L190.3215,407.2184 L191.4467,417.6799 L190.349,428.1413 L190.5629,438.6027 L190.887,449.0641 L190.9948,459.5256 L190.4112,469.987 L190.8156,480.4484 L189.6216,490.9098 L190.8116,501.3713 L190.4167,511.8327 " fill="#FFFFFF" fill-opacity="0.00000" style="stroke:#2E2E2E;stroke-width:1.0417;"/><path d="M210.4167,93.3757 L210.7086,93.3757 L209.8412,103.8371 L210.6851,114.2985 L210.9718,124.7599 L209.4258,135.2214 L210.3087,145.6828 L209.8243,156.1442 L209.884,166.6056 L210.322,177.0671 L209.4564,187.5285 L211.1856,197.9899 L209.5413,208.4513 L210.142,218.9128 L211.0166,229.3742 L210.2975,239.8356 L210.5114,250.297 L210.3723,260.7585 L210.6646,271.2199 L210.7488,281.6813 L211.2301,292.1427 L211.3487,302.6042 L211.3601,313.0656 L210.7703,323.527 L211.0605,333.9884 L211.392,344.4499 L209.415,354.9113 L211.359,365.3727 L210.0049,375.8341 L211.1581,386.2956 L209.7291,396.757 L210.3215,407.2184 L211.4467,417.6799 L210.349,428.1413 L210.5629,438.6027 L210.887,449.0641 L210.9948,459.5256 L210.4112,469.987 L210.8156,480.4484 L209.6216,490.9098 L210.8116,501.3713 L210.4167,511.8327 " fill="#FFFFFF" fill-opacity="0.00000" style="stroke:#2E2E2E;stroke-width:1.0417;"/><path d="M230.4167,93.3757 L230.7086,93.3757 L229.8412,103.8371 L230.6851,114.2985 L230.9718,124.7599 L229.4258,135.2214 L230.3087,145.6828 L229.8243,156.1442 L229.884,166.6056 L230.322,177.0671 L229.4564,187.5285 L231.1856,197.9899 L229.5413,208.4513 L230.142,218.9128 L231.0166,229.3742 L230.2975,239.8356 L230.5114,250.297 L230.3723,260.7585 L230.6646,271.2199 L230.7488,281.6813 L231.2301,292.1427 L231.3487,302.6042 L231.3601,313.0656 L230.7703,323.527 L231.0605,333.9884 L231.392,344.4499 L229.415,354.9113 L231.359,365.3727 L230.0049,375.8341 L231.1581,386.2956 L229.7291,396.757 L230.3215,407.2184 L231.4467,417.6799 L230.349,428.1413 L230.5629,438.6027 L230.887,449.0641 L230.9948,459.5256 L230.4112,469.987 L230.8156,480.4484 L229.6216,490.9098 L230.8116,501.3713 L230.4167,511.8327 " fill="#FFFFFF" fill-opacity="0.00000" style="stroke:#2E2E2E;stroke-width:1.0417;"/><path d="M250.4167,93.3757 L250.7086,93.3757 L249.8412,103.8371 L250.6851,114.2985 L250.9718,124.7599 L249.4258,135.2214 L250.3087,145.6828 L249.8243,156.1442 L249.884,166.6056 L250.322,177.0671 L249.4564,187.5285 L251.1856,197.9899 L249.5413,208.4513 L250.142,218.9128 L251.0166,229.3742 L250.2975,239.8356 L250.5114,250.297 L250.3723,260.7585 L250.6646,271.2199 L250.7488,281.6813 L251.2301,292.1427 L251.3487,302.6042 L251.3601,313.0656 L250.7703,323.527 L251.0605,333.9884 L251.392,344.4499 L249.415,354.9113 L251.359,365.3727 L250.0049,375.8341 L251.1581,386.2956 L249.7291,396.757 L250.3215,407.2184 L251.4467,417.6799 L250.349,428.1413 L250.5629,438.6027 L250.887,449.0641 L250.9948,459.5256 L250.4112,469.987 L250.8156,480.4484 L249.6216,490.9098 L250.8116,501.3713 L250.4167,511.8327 " fill="#FFFFFF" fill-opacity="0.00000" style="stroke:#2E2E2E;stroke-width:1.0417;"/><path d="M270.4167,93.3757 L270.7086,93.3757 L269.8412,103.8371 L270.6851,114.2985 L270.9718,124.7599 L269.4258,135.2214 L270.3087,145.6828 L269.8243,156.1442 L269.884,166.6056 L270.322,177.0671 L269.4564,187.5285 L271.1856,197.9899 L269.5413,208.4513 L270.142,218.9128 L271.0166,229.3742 L270.2975,239.8356 L270.5114,250.297 L270.3723,260.7585 L270.6646,271.2199 L270.7488,281.6813 L271.2301,292.1427 L271.3487,302.6042 L271.3601,313.0656 L270.7703,323.527 L271.0605,333.9884 L271.392,344.4499 L269.415,354.9113 L271.359,365.3727 L270.0049,375.8341 L271.1581,386.2956 L269.7291,396.757 L270.3215,407.2184 L271.4467,417.6799 L270.349,428.1413 L270.5629,438.6027 L270.887,449.0641 L270.9948,459.5256 L270.4112,469.987 L270.8156,480.4484 L269.6216,490.9098 L270.8116,501.3713 L270.4167,511.8327 " fill="#FFFFFF" fill-opacity="0.00000" style="stroke:#2E2E2E;stroke-width:1.0417;"/><path d="M290.4167,93.3757 L290.7086,93.3757 L289.8412,103.8371 L290.6851,114.2985 L290.9718,124.7599 L289.4258,135.2214 L290.3087,145.6828 L289.8243,156.1442 L289.884,166.6056 L290.322,177.0671 L289.4564,187.5285 L291.1856,197.9899 L289.5413,208.4513 L290.142,218.9128 L291.0166,229.3742 L290.2975,239.8356 L290.5114,250.297 L290.3723,260.7585 L290.6646,271.2199 L290.7488,281.6813 L291.2301,292.1427 L291.3487,302.6042 L291.3601,313.0656 L290.7703,323.527 L291.0605,333.9884 L291.392,344.4499 L289.415,354.9113 L291.359,365.3727 L290.0049,375.8341 L291.1581,386.2956 L289.7291,396.757 L290.3215,407.2184 L291.4467,417.6799 L290.349,428.1413 L290.5629,438.6027 L290.887,449.0641 L290.9948,459.5256 L290.4112,469.987 L290.8156,480.4484 L289.6216,490.9098 L290.8116,501.3713 L290.4167,511.8327 " fill="#FFFFFF" fill-opacity="0.00000" style="stroke:#2E2E2E;stroke-width:1.0417;"/><path d="M310.4167,93.3757 L310.7086,93.3757 L309.8412,103.8371 L310.6851,114.2985 L310.9718,124.7599 L309.4258,135.2214 L310.3087,145.6828 L309.8243,156.1442 L309.884,166.6056 L310.322,177.0671 L309.4564,187.5285 L311.1856,197.9899 L309.5413,208.4513 L310.142,218.9128 L311.0166,229.3742 L310.2975,239.8356 L310.5114,250.297 L310.3723,260.7585 L310.6646,271.2199 L310.7488,281.6813 L311.2301,292.1427 L311.3487,302.6042 L311.3601,313.0656 L310.7703,323.527 L311.0605,333.9884 L311.392,344.4499 L309.415,354.9113 L311.359,365.3727 L310.0049,375.8341 L311.1581,386.2956 L309.7291,396.757 L310.3215,407.2184 L311.4467,417.6799 L310.349,428.1413 L310.5629,438.6027 L310.887,449.0641 L310.9948,459.5256 L310.4112,469.987 L310.8156,480.4484 L309.6216,490.9098 L310.8116,501.3713 L310.4167,511.8327 " fill="#FFFFFF" fill-opacity="0.00000" style="stroke:#2E2E2E;stroke-width:1.0417;"/><path d="M330.4167,93.3757 L330.7086,93.3757 L329.8412,103.8371 L330.6851,114.2985 L330.9718,124.7599 L329.4258,135.2214 L330.3087,145.6828 L329.8243,156.1442 L329.884,166.6056 L330.322,177.0671 L329.4564,187.5285 L331.1856,197.9899 L329.5413,208.4513 L330.142,218.9128 L331.0166,229.3742 L330.2975,239.8356 L330.5114,250.297 L330.3723,260.7585 L330.6646,271.2199 L330.7488,281.6813 L331.2301,292.1427 L331.3487,302.6042 L331.3601,313.0656 L330.7703,323.527 L331.0605,333.9884 L331.392,344.4499 L329.415,354.9113 L331.359,365.3727 L330.0049,375.8341 L331.1581,386.2956 L329.7291,396.757 L330.3215,407.2184 L331.4467,417.6799 L330.349,428.1413 L330.5629,438.6027 L330.887,449.0641 L330.9948,459.5256 L330.4112,469.987 L330.8156,480.4484 L329.6216,490.9098 L330.8116,501.3713 L330.4167,511.8327 " fill="#FFFFFF" fill-opacity="0.00000" style="stroke:#2E2E2E;stroke-width:1.0417;"/><path d="M350.4167,93.3757 L350.7086,93.3757 L349.8412,103.8371 L350.6851,114.2985 L350.9718,124.7599 L349.4258,135.2214 L350.3087,145.6828 L349.8243,156.1442 L349.884,166.6056 L350.322,177.0671 L349.4564,187.5285 L351.1856,197.9899 L349.5413,208.4513 L350.142,218.9128 L351.0166,229.3742 L350.2975,239.8356 L350.5114,250.297 L350.3723,260.7585 L350.6646,271.2199 L350.7488,281.6813 L351.2301,292.1427 L351.3487,302.6042 L351.3601,313.0656 L350.7703,323.527 L351.0605,333.9884 L351.392,344.4499 L349.415,354.9113 L351.359,365.3727 L350.0049,375.8341 L351.1581,386.2956 L349.7291,396.757 L350.3215,407.2184 L351.4467,417.6799 L350.349,428.1413 L350.5629,438.6027 L350.887,449.0641 L350.9948,459.5256 L350.4112,469.987 L350.8156,480.4484 L349.6216,490.9098 L350.8116,501.3713 L350.4167,511.8327 " fill="#FFFFFF" fill-opacity="0.00000" style="stroke:#2E2E2E;stroke-width:1.0417;"/><path d="M370.4167,93.3757 L370.7086,93.3757 L369.8412,103.8371 L370.6851,114.2985 L370.9718,124.7599 L369.4258,135.2214 L370.3087,145.6828 L369.8243,156.1442 L369.884,166.6056 L370.322,177.0671 L369.4564,187.5285 L371.1856,197.9899 L369.5413,208.4513 L370.142,218.9128 L371.0166,229.3742 L370.2975,239.8356 L370.5114,250.297 L370.3723,260.7585 L370.6646,271.2199 L370.7488,281.6813 L371.2301,292.1427 L371.3487,302.6042 L371.3601,313.0656 L370.7703,323.527 L371.0605,333.9884 L371.392,344.4499 L369.415,354.9113 L371.359,365.3727 L370.0049,375.8341 L371.1581,386.2956 L369.7291,396.757 L370.3215,407.2184 L371.4467,417.6799 L370.349,428.1413 L370.5629,438.6027 L370.887,449.0641 L370.9948,459.5256 L370.4112,469.987 L370.8156,480.4484 L369.6216,490.9098 L370.8116,501.3713 L370.4167,511.8327 " fill="#FFFFFF" fill-opacity="0.00000" style="stroke:#2E2E2E;stroke-width:1.0417;"/><path d="M390.4167,93.3757 L390.7086,93.3757 L389.8412,103.8371 L390.6851,114.2985 L390.9718,124.7599 L389.4258,135.2214 L390.3087,145.6828 L389.8243,156.1442 L389.884,166.6056 L390.322,177.0671 L389.4564,187.5285 L391.1856,197.9899 L389.5413,208.4513 L390.142,218.9128 L391.0166,229.3742 L390.2975,239.8356 L390.5114,250.297 L390.3723,260.7585 L390.6646,271.2199 L390.7488,281.6813 L391.2301,292.1427 L391.3487,302.6042 L391.3601,313.0656 L390.7703,323.527 L391.0605,333.9884 L391.392,344.4499 L389.415,354.9113 L391.359,365.3727 L390.0049,375.8341 L391.1581,386.2956 L389.7291,396.757 L390.3215,407.2184 L391.4467,417.6799 L390.349,428.1413 L390.5629,438.6027 L390.887,449.0641 L390.9948,459.5256 L390.4112,469.987 L390.8156,480.4484 L389.6216,490.9098 L390.8116,501.3713 L390.4167,511.8327 " fill="#FFFFFF" fill-opacity="0.00000" style="stroke:#2E2E2E;stroke-width:1.0417;"/><path d="M410.4167,93.3757 L410.7086,93.3757 L409.8412,103.8371 L410.6851,114.2985 L410.9718,124.7599 L409.4258,135.2214 L410.3087,145.6828 L409.8243,156.1442 L409.884,166.6056 L410.322,177.0671 L409.4564,187.5285 L411.1856,197.9899 L409.5413,208.4513 L410.142,218.9128 L411.0166,229.3742 L410.2975,239.8356 L410.5114,250.297 L410.3723,260.7585 L410.6646,271.2199 L410.7488,281.6813 L411.2301,292.1427 L411.3487,302.6042 L411.3601,313.0656 L410.7703,323.527 L411.0605,333.9884 L411.392,344.4499 L409.415,354.9113 L411.359,365.3727 L410.0049,375.8341 L411.1581,386.2956 L409.7291,396.757 L410.3215,407.2184 L411.4467,417.6799 L410.349,428.1413 L410.5629,438.6027 L410.887,449.0641 L410.9948,459.5256 L410.4112,469.987 L410.8156,480.4484 L409.6216,490.9098 L410.8116,501.3713 L410.4167,511.8327 " fill="#FFFFFF" fill-opacity="0.00000" style="stroke:#2E2E2E;stroke-width:1.0417;"/><path d="M430.4167,93.3757 L430.7086,93.3757 L429.8412,103.8371 L430.6851,114.2985 L430.9718,124.7599 L429.4258,135.2214 L430.3087,145.6828 L429.8243,156.1442 L429.884,166.6056 L430.322,177.0671 L429.4564,187.5285 L431.1856,197.9899 L429.5413,208.4513 L430.142,218.9128 L431.0166,229.3742 L430.2975,239.8356 L430.5114,250.297 L430.3723,260.7585 L430.6646,271.2199 L430.7488,281.6813 L431.2301,292.1427 L431.3487,302.6042 L431.3601,313.0656 L430.7703,323.527 L431.0605,333.9884 L431.392,344.4499 L429.415,354.9113 L431.359,365.3727 L430.0049,375.8341 L431.1581,386.2956 L429.7291,396.757 L430.3215,407.2184 L431.4467,417.6799 L430.349,428.1413 L430.5629,438.6027 L430.887,449.0641 L430.9948,459.5256 L430.4112,469.987 L430.8156,480.4484 L429.6216,490.9098 L430.8116,501.3713 L430.4167,511.8327 " fill="#FFFFFF" fill-opacity="0.00000" style="stroke:#2E2E2E;stroke-width:1.0417;"/><path d="M450.4167,93.3757 L450.7086,93.3757 L449.8412,103.8371 L450.6851,114.2985 L450.9718,124.7599 L449.4258,135.2214 L450.3087,145.6828 L449.8243,156.1442 L449.884,166.6056 L450.322,177.0671 L449.4564,187.5285 L451.1856,197.9899 L449.5413,208.4513 L450.142,218.9128 L451.0166,229.3742 L450.2975,239.8356 L450.5114,250.297 L450.3723,260.7585 L450.6646,271.2199 L450.7488,281.6813 L451.2301,292.1427 L451.3487,302.6042 L451.3601,313.0656 L450.7703,323.527 L451.0605,333.9884 L451.392,344.4499 L449.415,354.9113 L451.359,365.3727 L450.0049,375.8341 L451.1581,386.2956 L449.7291,396.757 L450.3215,407.2184 L451.4467,417.6799 L450.349,428.1413 L450.5629,438.6027 L450.887,449.0641 L450.9948,459.5256 L450.4112,469.987 L450.8156,480.4484 L449.6216,490.9098 L450.8116,501.3713 L450.4167,511.8327 " fill="#FFFFFF" fill-opacity="0.00000" style="stroke:#2E2E2E;stroke-width:1.0417;"/><path d="M470.4167,93.3757 L470.7086,93.3757 L469.8412,103.8371 L470.6851,114.2985 L470.9718,124.7599 L469.4258,135.2214 L470.3087,145.6828 L469.8243,156.1442 L469.884,166.6056 L470.322,177.0671 L469.4564,187.5285 L471.1856,197.9899 L469.5413,208.4513 L470.142,218.9128 L471.0166,229.3742 L470.2975,239.8356 L470.5114,250.297 L470.3723,260.7585 L470.6646,271.2199 L470.7488,281.6813 L471.2301,292.1427 L471.3487,302.6042 L471.3601,313.0656 L470.7703,323.527 L471.0605,333.9884 L471.392,344.4499 L469.415,354.9113 L471.359,365.3727 L470.0049,375.8341 L471.1581,386.2956 L469.7291,396.757 L470.3215,407.2184 L471.4467,417.6799 L470.349,428.1413 L470.5629,438.6027 L470.887,449.0641 L470.9948,459.5256 L470.4112,469.987 L470.8156,480.4484 L469.6216,490.9098 L470.8116,501.3713 L470.4167,511.8327 " fill="#FFFFFF" fill-opacity="0.00000" style="stroke:#2E2E2E;stroke-width:1.0417;"/><path d="M490.4167,93.3757 L490.7086,93.3757 L489.8412,103.8371 L490.6851,114.2985 L490.9718,124.7599 L489.4258,135.2214 L490.3087,145.6828 L489.8243,156.1442 L489.884,166.6056 L490.322,177.0671 L489.4564,187.5285 L491.1856,197.9899 L489.5413,208.4513 L490.142,218.9128 L491.0166,229.3742 L490.2975,239.8356 L490.5114,250.297 L490.3723,260.7585 L490.6646,271.2199 L490.7488,281.6813 L491.2301,292.1427 L491.3487,302.6042 L491.3601,313.0656 L490.7703,323.527 L491.0605,333.9884 L491.392,344.4499 L489.415,354.9113 L491.359,365.3727 L490.0049,375.8341 L491.1581,386.2956 L489.7291,396.757 L490.3215,407.2184 L491.4467,417.6799 L490.349,428.1413 L490.5629,438.6027 L490.887,449.0641 L490.9948,459.5256 L490.4112,469.987 L490.8156,480.4484 L489.6216,490.9098 L490.8116,501.3713 L490.4167,511.8327 " fill="#FFFFFF" fill-opacity="0.00000" style="stroke:#2E2E2E;stroke-width:1.0417;"/><path d="M10.4167,93.3757 L10.4167,93.6676 L20.8514,92.8002 L31.2862,93.6441 L41.721,93.9308 L52.1558,92.3848 L62.5906,93.2677 L73.0254,92.7833 L83.4601,92.843 L93.8949,93.281 L104.3297,92.4154 L114.7645,94.1446 L125.1993,92.5003 L135.6341,93.101 L146.0688,93.9756 L156.5036,93.2565 L166.9384,93.4704 L177.3732,93.3313 L187.808,93.6236 L198.2428,93.7078 L208.6775,94.1891 L219.1123,94.3077 L229.5471,94.3191 L239.9819,93.7293 L250.4167,94.0195 L260.8514,94.351 L271.2862,92.374 L281.721,94.318 L292.1558,92.9638 L302.5906,94.1171 L313.0254,92.6881 L323.4601,93.2805 L333.8949,94.4057 L344.3297,93.308 L354.7645,93.5219 L365.1993,93.846 L375.6341,93.9538 L386.0688,93.3702 L396.5036,93.7746 L406.9384,92.5806 L417.3732,93.7706 L427.808,94.137 L438.2428,93.9931 L448.6775,94.2271 L459.1123,92.7047 L469.5471,92.4698 L479.9819,92.5126 L490.4167,93.3757 " fill="#FFFFFF" fill-opacity="0.00000" style="stroke:#2E2E2E;stroke-width:1.0417;"/><path d="M10.4167,511.8327 L10.4167,512.1246 L20.8514,511.2572 L31.2862,512.1011 L41.721,512.3878 L52.1558,510.8419 L62.5906,511.7247 L73.0254,511.2403 L83.4601,511.3 L93.8949,511.738 L104.3297,510.8724 L114.7645,512.6016 L125.1993,510.9573 L135.6341,511.558 L146.0688,512.4326 L156.5036,511.7135 L166.9384,511.9275 L177.3732,511.7883 L187.808,512.0806 L198.2428,512.1648 L208.6775,512.6461 L219.1123,512.7647 L229.5471,512.7761 L239.9819,512.1863 L250.4167,512.4766 L260.8514,512.808 L271.2862,510.831 L281.721,512.7751 L292.1558,511.4209 L302.5906,512.5741 L313.0254,511.1452 L323.4601,511.7375 L333.8949,512.8627 L344.3297,511.765 L354.7645,511.9789 L365.1993,512.303 L375.6341,512.4108 L386.0688,511.8273 L396.5036,512.2316 L406.9384,511.0377 L417.3732,512.2277 L427.808,512.5941 L438.2428,512.4501 L448.6775,512.6841 L459.1123,511.1617 L469.5471,510.9269 L479.9819,510.9696 L490.4167,511.8327 " fill="#FFFFFF" fill-opacity="0.00000" style="stroke:#2E2E2E;stroke-width:1.0417;"/><path d="M222.0833,130.8431 L222.2779,130.8431 L221.6997,137.7148 L222.2623,144.5866 L222.4534,151.4583 L221.4228,158.3301 L222.0833,165.2018 L222.0833,165.1299 L223.125,164.8069 L224.1667,164.8467 L225.2083,165.1387 L226.25,164.5617 L227.2917,165.2018 " fill="#FFFFFF" fill-opacity="0.00000" style="stroke:#333333;stroke-width:3.125;"/><polygon fill="#333333" points="226.25,161.0352,226.3016,161.0868,226.9816,161.7668,227.9641,162.7493,228.8481,163.6333,229.4082,164.1933,230.4167,165.2018,230.3976,165.1827,229.4786,165.9304,228.6558,166.7743,227.8999,167.6851,226.9136,168.3654,226.25,169.3685,226.4422,169.3685,226.0312,167.7018,226.1813,166.0352,226.4,164.3685,226.2202,162.7018,226.25,161.0352" style="stroke:#333333;stroke-width:1.0417;"/><path d="M322.0833,178.7272 L322.2779,178.7272 L321.6997,185.599 L322.2623,192.4707 L322.4534,199.3424 L321.4228,206.2142 L322.0833,213.0859 L322.0833,213.014 L323.125,212.691 L324.1667,212.7308 L325.2083,213.0228 L326.25,212.4458 L327.2917,213.0859 " fill="#FFFFFF" fill-opacity="0.00000" style="stroke:#333333;stroke-width:3.125;"/><polygon fill="#333333" points="326.25,208.9193,326.3016,208.9709,326.9816,209.6509,327.9641,210.6334,328.8481,211.5174,329.4082,212.0774,330.4167,213.0859,330.3976,213.0669,329.4786,213.8146,328.6558,214.6584,327.8999,215.5692,326.9136,216.2495,326.25,217.2526,326.4422,217.2526,326.0312,215.5859,326.1813,213.9193,326.4,212.2526,326.2202,210.5859,326.25,208.9193" style="stroke:#333333;stroke-width:1.0417;"/><path d="M322.0833,178.7272 L322.6672,178.7272 L320.9324,189.0076 L322.6202,199.2879 L323.1936,209.5683 L320.1017,219.8486 L321.8675,230.129 L320.8986,240.4093 L321.0181,250.6897 L322.0833,260.9701 L322.0833,260.9069 L323.125,260.3299 L324.1667,261.4827 L325.2083,260.3865 L326.25,260.7869 L327.2917,260.9701 " fill="#FFFFFF" fill-opacity="0.00000" style="stroke:#333333;stroke-width:3.125;"/><polygon fill="#333333" points="326.25,256.8034,326.3016,256.855,326.9816,257.535,327.9641,258.5175,328.8481,259.4015,329.4082,259.9616,330.4167,260.9701,330.3976,260.951,329.4786,261.6987,328.6558,262.5426,327.8999,263.4533,326.9136,264.1336,326.25,265.1367,326.4422,265.1367,326.0312,263.4701,326.1813,261.8034,326.4,260.1367,326.2202,258.4701,326.25,256.8034" style="stroke:#333333;stroke-width:1.0417;"/><path d="M322.0833,178.7272 L322.6672,178.7272 L320.9324,189.5711 L322.6202,200.415 L323.1936,211.259 L320.1017,222.1029 L321.8675,232.9468 L320.8986,243.7907 L321.0181,254.6346 L321.894,265.4785 L320.1629,276.3224 L323.6212,287.1663 L320.3326,298.0103 L322.0833,308.8542 L322.0833,308.671 L323.125,309.2541 L324.1667,308.7747 L325.2083,308.9174 L326.25,308.8246 L327.2917,308.8542 " fill="#FFFFFF" fill-opacity="0.00000" style="stroke:#333333;stroke-width:3.125;"/><polygon fill="#333333" points="326.25,304.6875,326.3016,304.7391,326.9816,305.4191,327.9641,306.4016,328.8481,307.2856,329.4082,307.8457,330.4167,308.8542,330.3976,308.8351,329.4786,309.5828,328.6558,310.4267,327.8999,311.3374,326.9136,312.0178,326.25,313.0208,326.4422,313.0208,326.0312,311.3542,326.1813,309.6875,326.4,308.0208,326.2202,306.3542,326.25,304.6875" style="stroke:#333333;stroke-width:1.0417;"/><path d="M322.0833,178.7272 L322.6672,178.7272 L320.9324,189.1985 L322.6202,199.6697 L323.1936,210.1409 L320.1017,220.6122 L321.8675,231.0834 L320.8986,241.5546 L321.0181,252.0259 L321.894,262.4971 L320.1629,272.9684 L323.6212,283.4396 L320.3326,293.9108 L321.534,304.3821 L323.2832,314.8533 L321.8451,325.3246 L322.2729,335.7958 L321.9946,346.267 L322.0833,356.7383 L322.0833,356.9036 L323.125,356.9597 L324.1667,357.2806 L325.2083,357.3596 L326.25,357.3672 L327.2917,356.7383 " fill="#FFFFFF" fill-opacity="0.00000" style="stroke:#333333;stroke-width:3.125;"/><polygon fill="#333333" points="326.25,352.5716,326.3016,352.6232,326.9816,353.3032,327.9641,354.2857,328.8481,355.1697,329.4082,355.7298,330.4167,356.7383,330.3976,356.7192,329.4786,357.4669,328.6558,358.3108,327.8999,359.2215,326.9136,359.9019,326.25,360.9049,326.4422,360.9049,326.0312,359.2383,326.1813,357.5716,326.4,355.9049,326.2202,354.2383,326.25,352.5716" style="stroke:#333333;stroke-width:1.0417;"/><path d="M10.4167,141.2598 L11.0005,141.2598 L9.2658,151.3997 L10.9536,161.5397 L11.5269,171.6797 L8.435,181.8197 L10.2008,191.9596 L9.232,202.0996 L9.3514,212.2396 L10.4167,222.3796 L10.4167,222.1902 L21.064,220.4591 L31.7114,223.9175 L42.3587,220.6288 L53.0061,221.8302 L63.6534,223.5794 L74.3008,222.1413 L84.9481,222.5691 L95.5955,222.2908 L106.2428,222.8755 L116.8901,223.0438 L127.5375,224.0065 L138.1848,224.2436 L148.8322,222.3796 L150.719,222.3796 L149.5395,212.2791 L150.1199,202.1787 L150.7828,192.0782 L146.8289,181.9778 L150.7169,171.8773 L148.0086,161.7769 L148.8322,151.6764 L149.1817,152.0259 L146.4248,149.269 L144.6207,147.4649 L143.0677,145.912 L140.467,143.3112 L138.4155,141.2598 L138.4155,141.5523 L127.749,142.2004 L117.0824,142.416 L106.4158,141.2489 L95.7492,142.0576 L85.0827,139.6697 L74.4161,142.0497 L63.7495,142.7825 L53.083,142.4946 L42.4164,142.9626 L31.7498,139.9179 L21.0832,139.4481 L10.4167,141.2598 " fill="#17A2B8" style="stroke:#1592A6;stroke-width:1.0417;"/><path d="M138.4155,141.2598 L137.8402,141.2598 L138.361,143.3431 L138.2336,145.4264 L139.0465,147.5098 L138.2538,149.5931 L138.4155,151.6764 L138.4155,151.3588 L140.4989,151.8878 L142.5822,151.059 L144.6655,151.1958 L146.7489,152.2773 L148.8322,151.6764 L149.1174,151.9617 L147.2298,150.074 L144.4548,147.2991 L142.7912,145.6354 L140.8854,143.7297 L138.4155,141.2598 " fill="#17A2B8" style="stroke:#1592A6;stroke-width:1.0417;"/><text fill="#FFFFFF" font-family="Segoe Print" font-size="12.5" lengthAdjust="spacing" textLength="63.5376" x="22.9167" y="164.3209">memo1 ...</text><text fill="#FFFFFF" font-family="Segoe Print" font-size="12.5" lengthAdjust="spacing" textLength="63.5376" x="22.9167" y="178.8717">memo2 ...</text><text fill="#FFFFFF" font-family="Segoe Print" font-size="12.5" lengthAdjust="spacing" textLength="104.0405" x="22.9167" y="193.4224">explanations1 ...</text><text fill="#FFFFFF" font-family="Segoe Print" font-size="12.5" lengthAdjust="spacing" textLength="104.0405" x="22.9167" y="207.9732">explanations2 ...</text><path d="M130.4167,130.8431 L130.4167,131.4269 L119.875,129.6922 L109.3333,131.38 L98.7917,131.9533 L88.25,128.8614 L77.7083,130.6272 L67.1667,129.6584 L56.625,129.7778 L46.0833,130.6538 L35.5417,128.9226 L25,130.8431 L20.8333,126.6764 L21.346,126.6764 L20.2497,122.9329 L20.6502,119.1895 L21.2333,115.446 L20.7539,111.7025 L20.8333,107.959 L25,103.7923 L25,103.9819 L35.5417,103.7036 L46.0833,104.2882 L56.625,104.4566 L67.1667,105.4192 L77.7083,105.6564 L88.25,105.6791 L98.7917,104.4996 L109.3333,105.0801 L119.875,105.743 L130.4167,103.7923 " fill="#FFFFFF" fill-opacity="0.00000" style="stroke:#333333;stroke-width:1.0417;"/><path d="M150.4167,103.7923 L150.4167,104.3762 L161.3194,102.6414 L172.2222,104.3292 L183.125,104.9025 L194.0278,101.8107 L204.9306,103.5764 L215.8333,103.7923 L220,107.959 L219.6051,107.959 L219.6449,111.7025 L219.9369,115.446 L219.3598,119.1895 L220.5126,122.9329 L220,126.6764 L215.8333,130.8431 L215.8333,129.0923 L204.9306,130.2937 L194.0278,132.043 L183.125,130.6048 L172.2222,131.0326 L161.3194,130.7544 L150.4167,130.8431 " fill="#FFFFFF" fill-opacity="0.00000" style="stroke:#333333;stroke-width:1.0417;"/><path d="M133.5417,103.7923 L133.5417,103.8896 L136.2917,103.6005 L139.0417,103.8818 L141.7917,103.9774 L144.5417,103.462 L147.2917,103.7923 " fill="#FFFFFF" fill-opacity="0.00000" style="stroke:#333333;stroke-width:1.0417;stroke-dasharray:2.0,3.0;"/><path d="M133.5417,130.8431 L133.5417,130.9404 L136.2917,130.6513 L139.0417,130.9326 L141.7917,131.0281 L144.5417,130.5128 L147.2917,130.8431 " fill="#FFFFFF" fill-opacity="0.00000" style="stroke:#333333;stroke-width:1.0417;stroke-dasharray:2.0,3.0;"/><path d="M270.4167,178.7272 L270.4167,178.9218 L265.3333,178.3436 L260.25,178.9062 L255.1667,179.0973 L250.0833,178.0667 L245,178.7272 L240.8333,174.5605 L240.7614,174.5605 L240.4384,170.8171 L240.4782,167.0736 L240.7702,163.3301 L240.1932,159.5866 L240.8333,155.8431 L245,151.6764 L245,152.1891 L250.0833,151.0928 L255.1667,151.4933 L260.25,152.0764 L265.3333,151.597 L270.4167,151.6764 " fill="#FFFFFF" fill-opacity="0.00000" style="stroke:#333333;stroke-width:1.0417;"/><path d="M290.4167,151.6764 L290.4167,151.871 L295.5,151.2928 L300.5833,151.8554 L305.6667,152.0465 L310.75,151.0159 L315.8333,151.6764 L320,155.8431 L319.928,155.8431 L319.6051,159.5866 L319.6449,163.3301 L319.9369,167.0736 L319.3598,170.8171 L320,174.5605 L315.8333,178.7272 L315.8333,179.2398 L310.75,178.1436 L305.6667,178.5441 L300.5833,179.1272 L295.5,178.6478 L290.4167,178.7272 " fill="#FFFFFF" fill-opacity="0.00000" style="stroke:#333333;stroke-width:1.0417;"/><path d="M273.5417,151.6764 L273.5417,151.7737 L276.2917,151.4846 L279.0417,151.7659 L281.7917,151.8615 L284.5417,151.3462 L287.2917,151.6764 " fill="#FFFFFF" fill-opacity="0.00000" style="stroke:#333333;stroke-width:1.0417;stroke-dasharray:2.0,3.0;"/><path d="M273.5417,178.7272 L273.5417,178.8245 L276.2917,178.5354 L279.0417,178.8167 L281.7917,178.9123 L284.5417,178.3969 L287.2917,178.7272 " fill="#FFFFFF" fill-opacity="0.00000" style="stroke:#333333;stroke-width:1.0417;stroke-dasharray:2.0,3.0;"/><path d="M410.4167,226.6113 L410.4167,227.1952 L399.5139,225.4604 L388.6111,227.1482 L377.7083,227.7215 L366.8056,224.6297 L355.9028,226.3955 L345,226.6113 L340.8333,222.4447 L340.4384,222.4447 L340.4782,218.7012 L340.7702,214.9577 L340.1932,211.2142 L341.346,207.4707 L340.8333,203.7272 L345,199.5605 L345,197.8098 L355.9028,199.0112 L366.8056,200.7604 L377.7083,199.3223 L388.6111,199.7501 L399.5139,199.4718 L410.4167,199.5605 " fill="#FFFFFF" fill-opacity="0.00000" style="stroke:#333333;stroke-width:1.0417;"/><path d="M430.4167,199.5605 L430.4167,199.7552 L439.5,199.1769 L448.5833,199.7395 L457.6667,199.9306 L466.75,198.9 L475.8333,199.5605 L480,203.7272 L479.928,203.7272 L479.6051,207.4707 L479.6449,211.2142 L479.9369,214.9577 L479.3598,218.7012 L480,222.4447 L475.8333,226.6113 L475.8333,227.124 L466.75,226.0277 L457.6667,226.4282 L448.5833,227.0113 L439.5,226.5319 L430.4167,226.6113 " fill="#FFFFFF" fill-opacity="0.00000" style="stroke:#333333;stroke-width:1.0417;"/><path d="M413.5417,199.5605 L413.5417,199.6579 L416.2917,199.3687 L419.0417,199.65 L421.7917,199.7456 L424.5417,199.2303 L427.2917,199.5605 " fill="#FFFFFF" fill-opacity="0.00000" style="stroke:#333333;stroke-width:1.0417;stroke-dasharray:2.0,3.0;"/><path d="M413.5417,226.6113 L413.5417,226.7086 L416.2917,226.4195 L419.0417,226.7008 L421.7917,226.7964 L424.5417,226.2811 L427.2917,226.6113 " fill="#FFFFFF" fill-opacity="0.00000" style="stroke:#333333;stroke-width:1.0417;stroke-dasharray:2.0,3.0;"/><path d="M410.4167,274.4954 L410.4167,275.0793 L399.5139,273.3446 L388.6111,275.0323 L377.7083,275.6057 L366.8056,272.5138 L355.9028,274.2796 L345,274.4954 L340.8333,270.3288 L340.4384,270.3288 L340.4782,266.5853 L340.7702,262.8418 L340.1932,259.0983 L341.346,255.3548 L340.8333,251.6113 L345,247.4447 L345,245.6939 L355.9028,246.8953 L366.8056,248.6445 L377.7083,247.2064 L388.6111,247.6342 L399.5139,247.3559 L410.4167,247.4447 " fill="#000000" style="stroke:#333333;stroke-width:1.0417;"/><path d="M430.4167,247.4447 L430.4167,247.6393 L439.5,247.061 L448.5833,247.6236 L457.6667,247.8147 L466.75,246.7841 L475.8333,247.4447 L480,251.6113 L479.928,251.6113 L479.6051,255.3548 L479.6449,259.0983 L479.9369,262.8418 L479.3598,266.5853 L480,270.3288 L475.8333,274.4954 L475.8333,275.0081 L466.75,273.9118 L457.6667,274.3123 L448.5833,274.8954 L439.5,274.416 L430.4167,274.4954 " fill="#000000" style="stroke:#333333;stroke-width:1.0417;"/><path d="M413.5417,247.4447 L413.5417,247.542 L416.2917,247.2528 L419.0417,247.5341 L421.7917,247.6297 L424.5417,247.1144 L427.2917,247.4447 " fill="#000000" style="stroke:#333333;stroke-width:1.0417;stroke-dasharray:2.0,3.0;"/><path d="M413.5417,274.4954 L413.5417,274.5927 L416.2917,274.3036 L419.0417,274.5849 L421.7917,274.6805 L424.5417,274.1652 L427.2917,274.4954 " fill="#000000" style="stroke:#333333;stroke-width:1.0417;stroke-dasharray:2.0,3.0;"/><path d="M410.4167,322.3796 L410.4167,322.9634 L399.5139,321.2287 L388.6111,322.9165 L377.7083,323.4898 L366.8056,320.3979 L355.9028,322.1637 L345,322.3796 L340.8333,318.2129 L340.4384,318.2129 L340.4782,314.4694 L340.7702,310.7259 L340.1932,306.9824 L341.346,303.2389 L340.8333,299.4954 L345,295.3288 L345,293.578 L355.9028,294.7794 L366.8056,296.5286 L377.7083,295.0905 L388.6111,295.5183 L399.5139,295.24 L410.4167,295.3288 " fill="#000000" style="stroke:#333333;stroke-width:1.0417;"/><path d="M430.4167,295.3288 L430.4167,295.5234 L439.5,294.9451 L448.5833,295.5077 L457.6667,295.6988 L466.75,294.6682 L475.8333,295.3288 L480,299.4954 L479.928,299.4954 L479.6051,303.2389 L479.6449,306.9824 L479.9369,310.7259 L479.3598,314.4694 L480,318.2129 L475.8333,322.3796 L475.8333,322.8922 L466.75,321.796 L457.6667,322.1964 L448.5833,322.7795 L439.5,322.3001 L430.4167,322.3796 " fill="#000000" style="stroke:#333333;stroke-width:1.0417;"/><path d="M413.5417,295.3288 L413.5417,295.4261 L416.2917,295.137 L419.0417,295.4183 L421.7917,295.5138 L424.5417,294.9985 L427.2917,295.3288 " fill="#000000" style="stroke:#333333;stroke-width:1.0417;stroke-dasharray:2.0,3.0;"/><path d="M413.5417,322.3796 L413.5417,322.4769 L416.2917,322.1877 L419.0417,322.469 L421.7917,322.5646 L424.5417,322.0493 L427.2917,322.3796 " fill="#000000" style="stroke:#333333;stroke-width:1.0417;stroke-dasharray:2.0,3.0;"/><path d="M410.4167,370.2637 L410.4167,370.8475 L399.5139,369.1128 L388.6111,370.8006 L377.7083,371.3739 L366.8056,368.282 L355.9028,370.0478 L345,370.2637 L340.8333,366.097 L340.4384,366.097 L340.4782,362.3535 L340.7702,358.61 L340.1932,354.8665 L341.346,351.123 L340.8333,347.3796 L345,343.2129 L345,341.4621 L355.9028,342.6635 L366.8056,344.4127 L377.7083,342.9746 L388.6111,343.4024 L399.5139,343.1241 L410.4167,343.2129 " fill="#FFFFFF" fill-opacity="0.00000" style="stroke:#333333;stroke-width:1.0417;"/><path d="M430.4167,343.2129 L430.4167,343.4075 L439.5,342.8293 L448.5833,343.3919 L457.6667,343.583 L466.75,342.5523 L475.8333,343.2129 L480,347.3796 L479.928,347.3796 L479.6051,351.123 L479.6449,354.8665 L479.9369,358.61 L479.3598,362.3535 L480,366.097 L475.8333,370.2637 L475.8333,370.7763 L466.75,369.6801 L457.6667,370.0806 L448.5833,370.6636 L439.5,370.1842 L430.4167,370.2637 " fill="#FFFFFF" fill-opacity="0.00000" style="stroke:#333333;stroke-width:1.0417;"/><path d="M413.5417,343.2129 L413.5417,343.3102 L416.2917,343.0211 L419.0417,343.3024 L421.7917,343.3979 L424.5417,342.8826 L427.2917,343.2129 " fill="#FFFFFF" fill-opacity="0.00000" style="stroke:#333333;stroke-width:1.0417;stroke-dasharray:2.0,3.0;"/><path d="M413.5417,370.2637 L413.5417,370.361 L416.2917,370.0719 L419.0417,370.3532 L421.7917,370.4487 L424.5417,369.9334 L427.2917,370.2637 " fill="#FFFFFF" fill-opacity="0.00000" style="stroke:#333333;stroke-width:1.0417;stroke-dasharray:2.0,3.0;"/><polygon fill="#555555" points="10.4167,391.097,10.4167,391.3159,20.8514,390.6654,31.2862,391.2983,41.721,391.5133,52.1558,390.3539,62.5906,391.0161,73.0254,390.6527,83.4601,390.6975,93.8949,391.026,104.3297,390.3768,114.7645,391.6737,125.1993,390.4405,135.6341,390.891,146.0688,391.547,156.5036,391.0077,166.9384,391.1681,177.3732,391.0637,187.808,391.283,198.2428,391.3461,208.6775,391.7071,219.1123,391.796,229.5471,391.8046,239.9819,391.3622,250.4167,391.5799,260.8514,391.8285,271.2862,390.3458,281.721,391.8038,292.1558,390.7881,302.5906,391.6531,313.0254,390.5814,323.4601,391.0257,333.8949,391.8695,344.3297,391.0462,354.7645,391.2067,365.1993,391.4497,375.6341,391.5306,386.0688,391.0929,396.5036,391.3962,406.9384,390.5007,417.3732,391.3932,427.808,391.668,438.2428,391.5601,448.6775,391.7356,459.1123,390.5938,469.5471,390.4176,479.9819,390.4497,490.4167,391.097,490.3962,391.097,490.3484,396.5072,490.6533,401.9173,490.356,407.3275,490.2976,412.7376,490.4167,418.1478,490.4167,418.3856,479.9819,417.4532,469.5471,417.607,459.1123,418.8238,448.6775,418.6016,438.2428,418.9129,427.808,417.8126,417.3732,418.4803,406.9384,418.7628,396.5036,417.6557,386.0688,418.0479,375.6341,418.279,365.1993,418.8267,354.7645,418.1434,344.3297,418.6296,333.8949,417.5709,323.4601,417.4423,313.0254,418.6724,302.5906,417.401,292.1558,418.678,281.721,418.363,271.2862,417.8687,260.8514,417.7793,250.4167,418.6257,239.9819,417.836,229.5471,418.7643,219.1123,417.572,208.6775,418.7909,198.2428,418.6523,187.808,418.403,177.3732,418.197,166.9384,418.9047,156.5036,418.7869,146.0688,418.3241,135.6341,418.4271,125.1993,418.0121,114.7645,418.8941,104.3297,418.3091,93.8949,418.3276,83.4601,417.5141,73.0254,417.7257,62.5906,418.7006,52.1558,418.5955,41.721,418.1031,31.2862,417.8122,20.8514,417.9197,10.4167,418.1478,10.1784,418.1478,10.5607,412.7376,10.6735,407.3275,10.5994,401.9173,10.658,396.5072,10.4167,391.097" style="stroke:#FFFFFF00;stroke-width:1.0417;"/><path d="M10.4167,404.6224 L10.4167,404.7197 L11.6667,404.4306 L12.9167,404.7119 L14.1667,404.8074 L15.4167,404.2921 L16.6667,404.6224 " fill="#FFFFFF" fill-opacity="0.00000" style="stroke:#555555;stroke-width:1.0417;"/><path d="M141.04,404.6224 L141.04,404.9143 L151.5956,404.047 L162.1512,404.8908 L172.7069,405.1775 L183.2625,403.6316 L193.8181,404.5145 L204.3737,404.03 L214.9293,404.0898 L225.4849,404.5277 L236.0405,403.6622 L246.5961,405.3913 L257.1517,403.747 L267.7073,404.3477 L278.2629,405.2223 L288.8185,404.5033 L299.3741,404.7172 L309.9297,404.578 L320.4853,404.8703 L331.0409,404.9545 L341.5965,405.4359 L352.1521,405.5544 L362.7077,405.5658 L373.2633,404.976 L383.819,405.2663 L394.3746,405.5977 L404.9302,403.6207 L415.4858,405.5648 L426.0414,404.2106 L436.597,405.3638 L447.1526,403.9349 L457.7082,404.5273 L468.2638,405.6524 L478.8194,404.5547 L489.375,404.6224 " fill="#FFFFFF" fill-opacity="0.00000" style="stroke:#555555;stroke-width:1.0417;"/><polygon fill="#555555" points="320.4167,438.9811,320.4683,439.0327,321.5649,440.1294,322.9641,441.5286,324.2648,442.8293,325.2415,443.806,326.6667,445.2311,326.6476,445.212,325.312,446.3764,324.0725,447.637,322.8999,448.9644,321.4969,450.0614,320.4167,451.4811,320.5526,451.6171,319.0119,450.0764,317.8681,448.9326,316.7727,447.8372,315.3956,446.4601,314.1667,445.2311,314.1834,445.2479,315.4088,443.9733,316.7105,442.775,317.9754,441.5398,319.3105,440.3749,320.4167,438.9811" style="stroke:#4D4D4D;stroke-width:1.0417;"/><polygon fill="#555555" points="10.4167,474.3652,10.4167,474.5842,20.8514,473.9337,31.2862,474.5666,41.721,474.7816,52.1558,473.6221,62.5906,474.2843,73.0254,473.921,83.4601,473.9658,93.8949,474.2942,104.3297,473.6451,114.7645,474.9419,125.1993,473.7087,135.6341,474.1592,146.0688,474.8152,156.5036,474.2759,166.9384,474.4363,177.3732,474.332,187.808,474.5512,198.2428,474.6143,208.6775,474.9753,219.1123,475.0642,229.5471,475.0728,239.9819,474.6305,250.4167,474.8481,260.8514,475.0967,271.2862,473.614,281.721,475.072,292.1558,474.0564,302.5906,474.9213,313.0254,473.8496,323.4601,474.2939,333.8949,475.1377,344.3297,474.3145,354.7645,474.4749,365.1993,474.718,375.6341,474.7988,386.0688,474.3612,396.5036,474.6644,406.9384,473.769,417.3732,474.6615,427.808,474.9363,438.2428,474.8283,448.6775,475.0038,459.1123,473.862,469.5471,473.6859,479.9819,473.7179,490.4167,474.3652,490.3962,474.3652,490.3484,479.7754,490.6533,485.1855,490.356,490.5957,490.2976,496.0059,490.4167,501.416,490.4167,501.6538,479.9819,500.7214,469.5471,500.8753,459.1123,502.092,448.6775,501.8698,438.2428,502.1811,427.808,501.0808,417.3732,501.7485,406.9384,502.031,396.5036,500.9239,386.0688,501.3162,375.6341,501.5472,365.1993,502.0949,354.7645,501.4117,344.3297,501.8979,333.8949,500.8392,323.4601,500.7105,313.0254,501.9406,302.5906,500.6692,292.1558,501.9462,281.721,501.6313,271.2862,501.1369,260.8514,501.0475,250.4167,501.8939,239.9819,501.1042,229.5471,502.0325,219.1123,500.8402,208.6775,502.0592,198.2428,501.9205,187.808,501.6712,177.3732,501.4652,166.9384,502.1729,156.5036,502.0552,146.0688,501.5923,135.6341,501.6954,125.1993,501.2803,114.7645,502.1623,104.3297,501.5773,93.8949,501.5958,83.4601,500.7823,73.0254,500.9939,62.5906,501.9689,52.1558,501.8637,41.721,501.3713,31.2862,501.0804,20.8514,501.188,10.4167,501.416,10.1784,501.416,10.5607,496.0059,10.6735,490.5957,10.5994,485.1855,10.658,479.7754,10.4167,474.3652" style="stroke:#FFFFFF00;stroke-width:1.0417;"/><path d="M10.4167,487.8906 L10.4167,487.9879 L11.6667,487.6988 L12.9167,487.9801 L14.1667,488.0757 L15.4167,487.5603 L16.6667,487.8906 " fill="#FFFFFF" fill-opacity="0.00000" style="stroke:#555555;stroke-width:1.0417;"/><path d="M63.8245,487.8906 L63.8245,488.1825 L74.2037,487.3152 L84.583,488.1591 L94.9623,488.4457 L105.3416,486.8998 L115.7209,487.7827 L126.1002,487.2983 L136.4794,487.358 L146.8587,487.796 L157.238,486.9304 L167.6173,488.6596 L177.9966,487.0152 L188.3758,487.6159 L198.7551,488.4906 L209.1344,487.7715 L219.5137,487.9854 L229.893,487.8463 L240.2722,488.1386 L250.6515,488.2228 L261.0308,488.7041 L271.4101,488.8226 L281.7894,488.834 L292.1687,488.2443 L302.5479,488.5345 L312.9272,488.8659 L323.3065,486.889 L333.6858,488.833 L344.0651,487.4788 L354.4443,488.632 L364.8236,487.2031 L375.2029,487.7955 L385.5822,488.9206 L395.9615,487.8229 L406.3407,488.0369 L416.72,488.3609 L427.0993,488.4687 L437.4786,487.8852 L447.8579,488.2895 L458.2372,487.0956 L468.6164,488.2856 L478.9957,488.652 L489.375,487.8906 " fill="#FFFFFF" fill-opacity="0.00000" style="stroke:#555555;stroke-width:1.0417;"/><text fill="#2E2E2E" font-family="Segoe Print" font-size="12.5" lengthAdjust="spacing" textLength="36.9995" x="16.6667" y="121.6451">Task1</text><text fill="#2E2E2E" font-family="Segoe Print" font-size="12.5" lengthAdjust="spacing" textLength="36.9995" x="236.6667" y="169.5292">Task2</text><text fill="#2E2E2E" font-family="Segoe Print" font-size="12.5" lengthAdjust="spacing" textLength="58.5449" x="336.6667" y="217.4133">Test  000</text><text fill="#2E2E2E" font-family="Segoe Print" font-size="12.5" lengthAdjust="spacing" textLength="58.5449" x="336.6667" y="265.2974">Test  025</text><text fill="#2E2E2E" font-family="Segoe Print" font-size="12.5" lengthAdjust="spacing" textLength="58.5449" x="336.6667" y="313.1816">Test  060</text><text fill="#2E2E2E" font-family="Segoe Print" font-size="12.5" lengthAdjust="spacing" textLength="58.5449" x="336.6667" y="361.0657">Test  100</text><text fill="#FFFFFF" font-family="Segoe Print" font-size="12.5" font-weight="bold" lengthAdjust="spacing" textLength="103.54" x="27.0833" y="408.9498">Separator title</text><text fill="#17A2B8" font-family="Segoe Print" font-size="12.5" font-style="italic" lengthAdjust="spacing" textLength="18.7378" x="332.9167" y="450.5839">M1</text><text fill="#FFFFFF" font-family="Segoe Print" font-size="12.5" font-weight="bold" lengthAdjust="spacing" textLength="26.3245" x="27.0833" y="492.218">end</text><text fill="#FFFFFF" font-family="Segoe Print" font-size="12.5" lengthAdjust="spacing" textLength="18.4326" x="11.2004" y="523.4355">Mo</text><text fill="#FFFFFF" font-family="Segoe Print" font-size="12.5" lengthAdjust="spacing" textLength="15.5579" x="32.6377" y="523.4355">Tu</text><text fill="#FFFFFF" font-family="Segoe Print" font-size="12.5" lengthAdjust="spacing" textLength="20.05" x="50.4167" y="523.4355">We</text><text fill="#FFFFFF" font-family="Segoe Print" font-size="12.5" lengthAdjust="spacing" textLength="15.5579" x="72.6377" y="523.4355">Th</text><text fill="#FFFFFF" font-family="Segoe Print" font-size="12.5" lengthAdjust="spacing" textLength="12.3291" x="94.2521" y="523.4355">Fr</text><text fill="#FFFFFF" font-family="Segoe Print" font-size="12.5" lengthAdjust="spacing" textLength="15.5945" x="112.6194" y="523.4355">Sa</text><text fill="#FFFFFF" font-family="Segoe Print" font-size="12.5" lengthAdjust="spacing" textLength="15.8569" x="132.4882" y="523.4355">Su</text><text fill="#FFFFFF" font-family="Segoe Print" font-size="12.5" lengthAdjust="spacing" textLength="18.4326" x="151.2004" y="523.4355">Mo</text><text fill="#FFFFFF" font-family="Segoe Print" font-size="12.5" lengthAdjust="spacing" textLength="15.5579" x="172.6377" y="523.4355">Tu</text><text fill="#FFFFFF" font-family="Segoe Print" font-size="12.5" lengthAdjust="spacing" textLength="20.05" x="190.4167" y="523.4355">We</text><text fill="#FFFFFF" font-family="Segoe Print" font-size="12.5" lengthAdjust="spacing" textLength="15.5579" x="212.6377" y="523.4355">Th</text><text fill="#FFFFFF" font-family="Segoe Print" font-size="12.5" lengthAdjust="spacing" textLength="12.3291" x="234.2521" y="523.4355">Fr</text><text fill="#FFFFFF" font-family="Segoe Print" font-size="12.5" lengthAdjust="spacing" textLength="15.5945" x="252.6194" y="523.4355">Sa</text><text fill="#FFFFFF" font-family="Segoe Print" font-size="12.5" lengthAdjust="spacing" textLength="15.8569" x="272.4882" y="523.4355">Su</text><text fill="#FFFFFF" font-family="Segoe Print" font-size="12.5" lengthAdjust="spacing" textLength="18.4326" x="291.2004" y="523.4355">Mo</text><text fill="#FFFFFF" font-family="Segoe Print" font-size="12.5" lengthAdjust="spacing" textLength="15.5579" x="312.6377" y="523.4355">Tu</text><text fill="#FFFFFF" font-family="Segoe Print" font-size="12.5" lengthAdjust="spacing" textLength="20.05" x="330.4167" y="523.4355">We</text><text fill="#FFFFFF" font-family="Segoe Print" font-size="12.5" lengthAdjust="spacing" textLength="15.5579" x="352.6377" y="523.4355">Th</text><text fill="#FFFFFF" font-family="Segoe Print" font-size="12.5" lengthAdjust="spacing" textLength="12.3291" x="374.2521" y="523.4355">Fr</text><text fill="#FFFFFF" font-family="Segoe Print" font-size="12.5" lengthAdjust="spacing" textLength="15.5945" x="392.6194" y="523.4355">Sa</text><text fill="#FFFFFF" font-family="Segoe Print" font-size="12.5" lengthAdjust="spacing" textLength="15.8569" x="412.4882" y="523.4355">Su</text><text fill="#FFFFFF" font-family="Segoe Print" font-size="12.5" lengthAdjust="spacing" textLength="18.4326" x="431.2004" y="523.4355">Mo</text><text fill="#FFFFFF" font-family="Segoe Print" font-size="12.5" lengthAdjust="spacing" textLength="15.5579" x="452.6377" y="523.4355">Tu</text><text fill="#FFFFFF" font-family="Segoe Print" font-size="12.5" lengthAdjust="spacing" textLength="20.05" x="470.4167" y="523.4355">We</text><text fill="#FFFFFF" font-family="Segoe Print" font-size="12.5" lengthAdjust="spacing" textLength="15.9058" x="12.4638" y="540.1021">14</text><text fill="#FFFFFF" font-family="Segoe Print" font-size="12.5" lengthAdjust="spacing" textLength="15.9058" x="32.4638" y="540.1021">15</text><text fill="#FFFFFF" font-family="Segoe Print" font-size="12.5" lengthAdjust="spacing" textLength="15.9058" x="52.4638" y="540.1021">16</text><text fill="#FFFFFF" font-family="Segoe Print" font-size="12.5" lengthAdjust="spacing" textLength="15.9058" x="72.4638" y="540.1021">17</text><text fill="#FFFFFF" font-family="Segoe Print" font-size="12.5" lengthAdjust="spacing" textLength="15.9058" x="92.4638" y="540.1021">18</text><text fill="#FFFFFF" font-family="Segoe Print" font-size="12.5" lengthAdjust="spacing" textLength="15.9058" x="112.4638" y="540.1021">19</text><text fill="#FFFFFF" font-family="Segoe Print" font-size="12.5" lengthAdjust="spacing" textLength="15.9058" x="132.4638" y="540.1021">20</text><text fill="#FFFFFF" font-family="Segoe Print" font-size="12.5" lengthAdjust="spacing" textLength="15.9058" x="152.4638" y="540.1021">21</text><text fill="#FFFFFF" font-family="Segoe Print" font-size="12.5" lengthAdjust="spacing" textLength="15.9058" x="172.4638" y="540.1021">22</text><text fill="#FFFFFF" font-family="Segoe Print" font-size="12.5" lengthAdjust="spacing" textLength="15.9058" x="192.4638" y="540.1021">23</text><text fill="#FFFFFF" font-family="Segoe Print" font-size="12.5" lengthAdjust="spacing" textLength="15.9058" x="212.4638" y="540.1021">24</text><text fill="#FFFFFF" font-family="Segoe Print" font-size="12.5" lengthAdjust="spacing" textLength="15.9058" x="232.4638" y="540.1021">25</text><text fill="#FFFFFF" font-family="Segoe Print" font-size="12.5" lengthAdjust="spacing" textLength="15.9058" x="252.4638" y="540.1021">26</text><text fill="#FFFFFF" font-family="Segoe Print" font-size="12.5" lengthAdjust="spacing" textLength="15.9058" x="272.4638" y="540.1021">27</text><text fill="#FFFFFF" font-family="Segoe Print" font-size="12.5" lengthAdjust="spacing" textLength="15.9058" x="292.4638" y="540.1021">28</text><text fill="#FFFFFF" font-family="Segoe Print" font-size="12.5" lengthAdjust="spacing" textLength="15.9058" x="312.4638" y="540.1021">29</text><text fill="#FFFFFF" font-family="Segoe Print" font-size="12.5" lengthAdjust="spacing" textLength="15.9058" x="332.4638" y="540.1021">30</text><text fill="#FFFFFF" font-family="Segoe Print" font-size="12.5" lengthAdjust="spacing" textLength="15.9058" x="352.4638" y="540.1021">31</text><text fill="#FFFFFF" font-family="Segoe Print" font-size="12.5" lengthAdjust="spacing" textLength="7.9529" x="376.4402" y="540.1021">1</text><text fill="#FFFFFF" font-family="Segoe Print" font-size="12.5" lengthAdjust="spacing" textLength="7.9529" x="396.4402" y="540.1021">2</text><text fill="#FFFFFF" font-family="Segoe Print" font-size="12.5" lengthAdjust="spacing" textLength="7.9529" x="416.4402" y="540.1021">3</text><text fill="#FFFFFF" font-family="Segoe Print" font-size="12.5" lengthAdjust="spacing" textLength="7.9529" x="436.4402" y="540.1021">4</text><text fill="#FFFFFF" font-family="Segoe Print" font-size="12.5" lengthAdjust="spacing" textLength="7.9529" x="456.4402" y="540.1021">5</text><text fill="#FFFFFF" font-family="Segoe Print" font-size="12.5" lengthAdjust="spacing" textLength="7.9529" x="476.4402" y="540.1021">6</text><text fill="#FFFFFF" font-family="Segoe Print" font-size="12.5" font-weight="bold" lengthAdjust="spacing" textLength="110.498" x="135.1676" y="555.7271">December 2020</text><text fill="#FFFFFF" font-family="Segoe Print" font-size="12.5" font-weight="bold" lengthAdjust="spacing" textLength="92.7734" x="384.0299" y="555.7271">January 2021</text></g></svg>