<svg xmlns="http://www.w3.org/2000/svg" xmlns:xlink="http://www.w3.org/1999/xlink" contentStyleType="text/css" data-diagram-type="MINDMAP" height="195.8333px" preserveAspectRatio="none" style="width:823px;height:195px;" version="1.1" viewBox="0 0 823 195" width="823.9583px" zoomAndPan="magnify"><defs/><g><rect fill="#FFFFCC" height="27.7507" rx="2.6042" ry="2.6042" style="stroke:#FFDD88;stroke-width:3.125;" width="813.3606" x="5.2083" y="5.2083"/><text fill="#000000" font-family="monospace" font-size="10.4167" lengthAdjust="spacing" textLength="370.0104" x="10.4167" y="20.8333">Please&#160;use&#160;'!option&#160;handwritten&#160;true'&#160;to&#160;enable&#160;handwritten</text><polygon fill="#555555" points="262.5529,93.3105,262.5529,93.5295,272.9805,92.879,283.4081,93.5119,293.8357,93.7269,304.2633,92.5674,314.6909,93.2296,325.1185,92.8663,335.5461,92.9111,345.9737,93.3105,345.9647,93.2887,346.4711,93.3328,347.2258,93.9763,347.6577,93.8406,348.3045,94.2234,348.92,94.5309,349.0586,94.5883,349.1366,95.1088,349.43,95.7185,349.642,96.2945,349.9536,96.9117,350.1404,97.4772,350.2234,97.4772,350.3437,104.9707,350.3734,112.4642,350.3762,119.9577,350.2288,127.4512,350.1404,134.9447,350.2891,135.0063,350.1216,135.6272,349.4209,136.0273,349.6258,136.8026,349.069,137.2623,348.92,137.8909,348.9909,138.0622,348.265,137.9762,347.7324,138.3571,347.2508,138.8611,346.5565,138.8516,345.9737,139.1113,345.9737,139.221,335.5461,139.4641,325.1185,139.5449,314.6909,139.1073,304.2633,139.4105,293.8357,138.5151,283.4081,139.4076,272.9805,139.6824,262.5529,139.1113,262.612,139.2539,262.0451,139.0639,261.3102,138.4682,260.6985,138.1699,260.1133,137.9357,259.6066,137.8909,259.5877,137.8831,259.2995,137.2756,259.3371,136.803,258.8184,136.1,258.5203,135.4883,258.3862,134.9447,258.4655,134.9447,258.1547,127.4512,258.206,119.9577,258.6116,112.4642,258.5375,104.9707,258.3862,97.4772,258.6218,97.5748,258.5271,96.8452,258.9768,96.3411,259.3079,95.7879,259.211,95.0574,259.6066,94.5309,259.5939,94.5002,260.2126,94.3273,260.8717,94.2519,261.3738,93.7974,262.0251,93.703,262.5529,93.3105" style="stroke:#FFFFFF;stroke-width:1.0417;"/><text fill="#FFFFFF" font-family="Segoe Print" font-size="12.5" lengthAdjust="spacing" textLength="60.5042" x="274.0112" y="120.5383">root node</text><polygon fill="#555555" points="406.3904,93.3105,406.3904,93.5295,416.671,92.879,426.9516,93.5119,437.2323,93.7269,447.5129,92.5674,457.7935,93.2296,468.0741,92.8663,478.3548,92.9111,488.6354,93.2396,498.916,92.5904,509.1966,93.8873,519.4773,92.654,529.7579,93.1045,540.0385,93.7605,550.3191,93.2212,560.5998,93.3105,560.6088,93.3324,561.1848,93.5444,561.802,93.856,562.3993,94.1195,563.0346,94.4747,563.5461,94.5309,563.7613,94.6201,564.008,95.2104,564.1159,95.7433,564.427,96.3603,564.7476,96.9813,564.7664,97.4772,564.516,97.4772,565.002,104.9707,564.6635,112.4642,564.9518,119.9577,564.5946,127.4512,564.7664,134.9447,564.7445,134.9356,564.7603,135.6325,564.2626,136.1167,564.068,136.7264,563.8988,137.3467,563.5461,137.8909,563.6014,138.0245,562.9563,138.1338,562.4057,138.4712,561.7022,138.4395,561.2268,138.9585,560.5998,139.1113,560.5998,139.6824,550.3191,139.5744,540.0385,139.7499,529.7579,138.6081,519.4773,138.432,509.1966,138.464,498.916,139.05,488.6354,138.9066,478.3548,139.8211,468.0741,138.9294,457.7935,138.754,447.5129,139.3491,437.2323,138.4167,426.9516,138.5706,416.671,139.7873,406.3904,139.1113,406.4483,139.2511,405.8987,139.1029,405.1691,138.5199,404.665,138.4815,404.1118,138.3244,403.4441,137.8909,403.2926,137.8282,403.1693,137.2889,402.9964,136.7292,402.9209,136.2098,402.4664,135.5334,402.2237,134.9447,402.3843,134.9447,402.0314,127.4512,401.9886,119.9577,402.3986,112.4642,401.9748,104.9707,402.2237,97.4772,402.387,97.5448,402.5341,96.9154,402.6259,96.2631,402.8425,95.6624,403.3472,95.1811,403.4441,94.5309,403.4043,94.4349,404.112,94.4767,404.5492,93.8655,405.2939,93.9968,405.8655,93.71,406.3904,93.3105" style="stroke:#FFFFFF;stroke-width:1.0417;"/><text fill="#FFFFFF" font-family="Segoe Print" font-size="12.5" lengthAdjust="spacing" textLength="131.2927" x="417.8487" y="120.5383">some first level node</text><text fill="#FFFFFF" font-family="Segoe Print" font-size="12.5" lengthAdjust="spacing" textLength="113.446" x="625.1831" y="66.4368">second level node</text><path d="M564.7664,116.2109 L564.7664,116.4056 L566.8498,115.8273 L568.9331,116.3899 L571.0164,116.581 L573.0998,115.5504 L575.1831,116.2109 L575.1831,116.2109 L575.1589,116.1843 L576.9056,114.3743 L578.7745,112.6984 L580.7283,111.1156 L582.3894,109.2117 L584.4604,107.7576 L584.703,107.8404 L585.4538,103.9438 L586.9129,100.289 L588.4583,96.6637 L589.501,92.8668 L590.8081,89.1602 L590.838,89.1704 L592.0636,85.4359 L593.4254,81.7479 L594.7215,78.0375 L596.1428,74.3698 L597.1558,70.5627 L597.365,70.7924 L599.223,69.1045 L600.9461,67.2685 L602.8667,65.6494 L604.7966,64.0404 L606.4331,62.1094 L606.4331,61.4416 L608.5164,62.7376 L610.5998,61.8348 L612.6831,62.6036 L614.7664,61.651 L616.8498,62.1094 " fill="#FFFFFF" fill-opacity="0.00000" style="stroke:#333333;stroke-width:3.125;"/><text fill="#FFFFFF" font-family="Segoe Print" font-size="12.5" lengthAdjust="spacing" textLength="166.3025" x="625.1831" y="93.4875">another second level node</text><path d="M564.7664,116.2109 L564.7664,116.4056 L566.8498,115.8273 L568.9331,116.3899 L571.0164,116.581 L573.0998,115.5504 L575.1831,116.2109 L575.1831,116.2109 L575.1596,116.1837 L578.1789,113.3566 L581.3169,110.6665 L584.5375,108.0718 L587.4736,105.1486 L590.8081,102.6855 L590.9759,102.8793 L593.7421,99.7598 L596.9982,97.2062 L600.314,94.7215 L603.2821,91.8352 L606.4331,89.1602 L606.4331,89.2233 L608.5164,89.1306 L610.5998,89.3255 L612.6831,89.3816 L614.7664,89.7025 L616.8498,89.1602 " fill="#FFFFFF" fill-opacity="0.00000" style="stroke:#333333;stroke-width:3.125;"/><text fill="#FFFFFF" font-family="Segoe Print" font-size="12.5" lengthAdjust="spacing" textLength="19.696" x="625.1831" y="120.5383">foo</text><path d="M564.7664,116.2109 L564.7664,116.4056 L566.8498,115.8273 L568.9331,116.3899 L571.0164,116.581 L573.0998,115.5504 L575.1831,116.2109 L575.1831,116.2109 L575.1831,116.175 L581.4331,116.0135 L587.6831,116.0334 L593.9331,116.1794 L600.1831,115.8909 L606.4331,116.2109 L606.4331,116.7236 L608.5164,115.6273 L610.5998,116.0278 L612.6831,116.6109 L614.7664,116.1315 L616.8498,116.2109 " fill="#FFFFFF" fill-opacity="0.00000" style="stroke:#333333;stroke-width:3.125;"/><text fill="#FFFFFF" font-family="Segoe Print" font-size="12.5" lengthAdjust="spacing" textLength="20.7336" x="625.1831" y="147.5891">bar</text><path d="M564.7664,116.2109 L564.7664,116.4056 L566.8498,115.8273 L568.9331,116.3899 L571.0164,116.581 L573.0998,115.5504 L575.1831,116.2109 L575.1831,116.2109 L575.1596,116.1837 L578.1789,118.7667 L581.3169,121.4869 L584.5375,124.3023 L587.4736,126.7892 L590.8081,129.7363 L590.9759,129.9301 L593.7421,132.2208 L596.9982,135.0773 L600.314,138.0028 L603.2821,140.5266 L606.4331,143.2617 L606.4331,143.3249 L608.5164,143.2321 L610.5998,143.427 L612.6831,143.4831 L614.7664,143.804 L616.8498,143.2617 " fill="#FFFFFF" fill-opacity="0.00000" style="stroke:#333333;stroke-width:3.125;"/><text fill="#FFFFFF" font-family="Segoe Print" font-size="12.5" lengthAdjust="spacing" textLength="40.4297" x="625.1831" y="174.6399">foobar</text><path d="M564.7664,116.2109 L564.7664,116.4056 L566.8498,115.8273 L568.9331,116.3899 L571.0164,116.581 L573.0998,115.5504 L575.1831,116.2109 L575.1831,116.2109 L575.1589,116.1843 L576.9056,117.7557 L578.7745,119.461 L580.7283,121.2596 L582.3894,122.737 L584.4604,124.6643 L584.703,124.7471 L585.4538,128.2895 L586.9129,132.0737 L588.4583,135.8874 L589.501,139.5294 L590.8081,143.2617 L590.838,143.2719 L592.0636,146.9764 L593.4254,150.7274 L594.7215,154.4559 L596.1428,158.2272 L597.1558,161.8591 L597.365,162.0888 L599.223,163.7823 L600.9461,165.3276 L602.8667,167.0898 L604.7966,168.8621 L606.4331,170.3125 L606.4331,169.6447 L608.5164,170.9408 L610.5998,170.038 L612.6831,170.8068 L614.7664,169.8541 L616.8498,170.3125 " fill="#FFFFFF" fill-opacity="0.00000" style="stroke:#333333;stroke-width:3.125;"/><path d="M350.1404,116.2109 L350.1404,116.4056 L352.2237,115.8273 L354.307,116.3899 L356.3904,116.581 L358.4737,115.5504 L360.557,116.2109 L360.557,116.2109 L360.557,116.175 L366.807,116.0135 L373.057,116.0334 L379.307,116.1794 L385.557,115.8909 L391.807,116.2109 L391.807,116.7236 L393.8904,115.6273 L395.9737,116.0278 L398.057,116.6109 L400.1404,116.1315 L402.2237,116.2109 " fill="#FFFFFF" fill-opacity="0.00000" style="stroke:#333333;stroke-width:3.125;"/><text fill="#FFFFFF" font-family="Segoe Print" font-size="12.5" lengthAdjust="spacing" textLength="146.1487" x="410.557" y="167.3808">another first level node</text><path d="M350.1404,116.2109 L350.1404,116.4056 L352.2237,115.8273 L354.307,116.3899 L356.3904,116.581 L358.4737,115.5504 L360.557,116.2109 L360.557,116.2109 L360.5348,116.1827 L362.2902,117.5197 L364.158,118.9992 L366.1039,120.5776 L367.7807,121.815 L369.8344,123.5301 L370.0728,123.6241 L370.8325,126.6435 L372.2883,129.9373 L373.829,133.2647 L374.8756,136.3972 L376.182,139.6322 L376.2114,139.6437 L377.4378,142.8472 L378.798,146.1033 L380.0936,149.334 L381.5124,152.6133 L382.5297,155.7343 L382.7221,155.9782 L384.5799,157.445 L386.3137,158.7545 L388.229,160.2942 L390.1529,161.8448 L391.807,163.0534 L391.807,162.3856 L393.8904,163.6816 L395.9737,162.7788 L398.057,163.5477 L400.1404,162.595 L402.2237,163.0534 " fill="#FFFFFF" fill-opacity="0.00000" style="stroke:#333333;stroke-width:3.125;"/><polygon fill="#555555" points="14.5833,79.7852,14.5833,80.0041,25.0029,79.3536,35.4225,79.9865,45.8421,80.2015,56.2618,79.042,66.6814,79.7042,77.101,79.3409,87.5206,79.3857,97.9402,79.7142,108.3598,79.065,118.7794,80.3619,129.199,79.1286,139.6186,79.5791,150.0382,80.2351,160.4578,79.6958,170.8774,79.8562,181.297,79.7519,191.7166,79.9711,202.1362,79.7852,202.168,79.8619,202.8033,80.2171,203.4039,80.4886,203.9943,80.7353,204.5271,80.8431,205.0825,81.0055,205.2312,81.0671,205.5519,81.6881,205.3393,82.0882,206.0324,82.8635,205.9637,83.3232,206.3029,83.9518,206.4882,83.9518,206.131,91.4453,206.2791,98.9388,206.5604,106.4323,206.286,113.9258,206.3029,121.4193,206.3367,121.4333,206.1674,122.0535,205.9483,122.6531,205.5694,123.1865,205.4187,123.8145,205.0825,124.3655,205.0064,124.1819,204.531,124.7009,203.9768,125.0296,203.3738,125.2404,202.8069,125.5385,202.1362,125.5859,202.1362,125.0827,191.7166,124.9066,181.297,124.9386,170.8774,125.5246,160.4578,125.3812,150.0382,126.2957,139.6186,125.404,129.199,125.2286,118.7794,125.8237,108.3598,124.8913,97.9402,125.0452,87.5206,126.2619,77.101,126.0398,66.6814,126.351,56.2618,125.2507,45.8421,125.9184,35.4225,126.201,25.0029,125.0938,14.5833,125.5859,14.5706,125.5552,14.0108,125.3823,13.4914,125.3069,12.815,124.8524,12.2878,124.758,11.6371,124.3655,11.4594,124.292,11.1757,123.6863,11.3105,123.254,10.6748,122.5025,10.824,122.0762,10.4167,121.4193,10.4884,121.4193,10.3236,113.9258,10.2938,106.4323,10.576,98.9388,10.3127,91.4453,10.4167,83.9518,10.6065,84.0305,10.4834,83.2891,11.1029,82.8554,11.3043,82.2484,11.4716,81.6274,11.6371,81.0055,11.6433,81.0207,12.3229,80.9946,12.8971,80.7142,13.4273,80.3276,14.0297,80.1153,14.5833,79.7852" style="stroke:#FFFFFF;stroke-width:1.0417;"/><text fill="#FFFFFF" font-family="Segoe Print" font-size="12.5" lengthAdjust="spacing" textLength="164.6362" x="26.0417" y="107.0129">some first right level node</text><path d="M258.3862,116.2109 L258.3862,116.4056 L256.3029,115.8273 L254.2196,116.3899 L252.1362,116.581 L250.0529,115.5504 L247.9696,116.2109 L247.9696,116.2109 L247.9553,116.1779 L244.7661,114.6772 L241.649,113.3429 L238.582,112.1244 L235.3424,110.507 L232.3446,109.4482 L232.4464,109.6835 L229.1037,107.8279 L226.0582,106.6591 L223.049,105.5741 L219.8288,104.0016 L216.7196,102.6855 L216.7196,102.7487 L214.6362,102.656 L212.5529,102.8508 L210.4696,102.907 L208.3862,103.2279 L206.3029,102.6855 " fill="#FFFFFF" fill-opacity="0.00000" style="stroke:#333333;stroke-width:3.125;"/><text fill="#FFFFFF" font-family="Segoe Print" font-size="12.5" lengthAdjust="spacing" textLength="179.4922" x="18.4774" y="153.8554">another first right level node</text><path d="M258.3862,116.2109 L258.3862,116.4056 L256.3029,115.8273 L254.2196,116.3899 L252.1362,116.581 L250.0529,115.5504 L247.9696,116.2109 L247.9696,116.2109 L247.952,116.1796 L246.0175,117.0799 L244.1717,118.1384 L242.3877,119.3069 L240.3911,120.0964 L238.6922,121.4167 L238.9164,121.541 L237.1675,123.5658 L236.0731,125.9534 L235.0585,128.3853 L233.5794,130.5597 L232.3446,132.8695 L232.3722,132.8848 L231.0621,135.1528 L229.8778,137.4906 L228.6328,139.7948 L227.5036,142.1631 L225.9969,144.3222 L226.1489,144.5931 L224.2953,145.6376 L222.3437,146.5073 L220.5355,147.6328 L218.7341,148.7704 L216.7196,149.528 L216.7196,148.8602 L214.6362,150.1562 L212.5529,149.2535 L210.4696,150.0223 L208.3862,149.0696 L206.3029,149.528 " fill="#FFFFFF" fill-opacity="0.00000" style="stroke:#333333;stroke-width:3.125;"/></g></svg>