<svg xmlns="http://www.w3.org/2000/svg" xmlns:xlink="http://www.w3.org/1999/xlink" contentStyleType="text/css" data-diagram-type="MINDMAP" height="207px" preserveAspectRatio="none" style="width:324px;height:207px;background:#FFFFFF;" version="1.1" viewBox="0 0 324 207" width="324px" zoomAndPan="magnify"><defs/><g><rect fill="#F1F1F1" height="36.2969" rx="3.5" ry="3.5" style="stroke:#181818;stroke-width:1.5;" width="48.376" x="132.1855" y="84.4453"/><text fill="#000000" font-family="sans-serif" font-size="14" lengthAdjust="spacing" textLength="28.376" x="142.1855" y="107.4404">root</text><rect fill="#F1F1F1" height="52.5938" rx="3.5" ry="3.5" style="stroke:#181818;stroke-width:1.5;" width="82.1592" x="230.5615" y="48.1484"/><text fill="#000000" font-family="sans-serif" font-size="14" lengthAdjust="spacing" textLength="62.1592" x="240.5615" y="71.1436">right_1.1</text><text fill="#000000" font-family="sans-serif" font-size="14" lengthAdjust="spacing" textLength="62.1592" x="240.5615" y="87.4404">right_1.2</text><path d="M180.5615,102.5938 L190.5615,102.5938 C205.5615,102.5938 205.5615,74.4453 220.5615,74.4453 L230.5615,74.4453 " fill="#FFFFFF" fill-opacity="0.00000" style="stroke:#454645;stroke-width:1;"/><rect fill="#F1F1F1" height="36.2969" rx="3.5" ry="3.5" style="stroke:#181818;stroke-width:1.5;" width="68.8018" x="230.5615" y="120.7422"/><text fill="#000000" font-family="sans-serif" font-size="14" lengthAdjust="spacing" textLength="48.8018" x="240.5615" y="143.7373">right_2</text><path d="M180.5615,102.5938 L190.5615,102.5938 C205.5615,102.5938 205.5615,138.8906 220.5615,138.8906 L230.5615,138.8906 " fill="#FFFFFF" fill-opacity="0.00000" style="stroke:#454645;stroke-width:1;"/><rect fill="#F1F1F1" height="36.2969" rx="3.5" ry="3.5" style="stroke:#181818;stroke-width:1.5;" width="58.8281" x="23.3574" y="20"/><text fill="#000000" font-family="sans-serif" font-size="14" lengthAdjust="spacing" textLength="38.8281" x="33.3574" y="42.9951">left_1</text><path d="M132.1855,102.5938 L122.1855,102.5938 C107.1855,102.5938 107.1855,38.1484 92.1855,38.1484 L82.1855,38.1484 " fill="#FFFFFF" fill-opacity="0.00000" style="stroke:#454645;stroke-width:1;"/><rect fill="#F1F1F1" height="36.2969" rx="3.5" ry="3.5" style="stroke:#181818;stroke-width:1.5;" width="58.8281" x="23.3574" y="76.2969"/><text fill="#000000" font-family="sans-serif" font-size="14" lengthAdjust="spacing" textLength="38.8281" x="33.3574" y="99.292">left_2</text><path d="M132.1855,102.5938 L122.1855,102.5938 C107.1855,102.5938 107.1855,94.4453 92.1855,94.4453 L82.1855,94.4453 " fill="#FFFFFF" fill-opacity="0.00000" style="stroke:#454645;stroke-width:1;"/><rect fill="#F1F1F1" height="52.5938" rx="3.5" ry="3.5" style="stroke:#181818;stroke-width:1.5;" width="72.1855" x="10" y="132.5938"/><text fill="#000000" font-family="sans-serif" font-size="14" lengthAdjust="spacing" textLength="52.1855" x="20" y="155.5889">left_3.1</text><text fill="#000000" font-family="sans-serif" font-size="14" lengthAdjust="spacing" textLength="52.1855" x="20" y="171.8857">left_3.2</text><path d="M132.1855,102.5938 L122.1855,102.5938 C107.1855,102.5938 107.1855,158.8906 92.1855,158.8906 L82.1855,158.8906 " fill="#FFFFFF" fill-opacity="0.00000" style="stroke:#454645;stroke-width:1;"/></g></svg>