<svg xmlns="http://www.w3.org/2000/svg" xmlns:xlink="http://www.w3.org/1999/xlink" contentStyleType="text/css" data-diagram-type="MINDMAP" height="188.5417px" preserveAspectRatio="none" style="width:818px;height:188px;" version="1.1" viewBox="0 0 818 188" width="818.75px" zoomAndPan="magnify"><defs><linearGradient id="g1nzeffoenyncm0" x1="50%" x2="50%" y1="0%" y2="100%"><stop offset="0%" stop-color="#F5F5F5"/><stop offset="100%" stop-color="#F2F2F2"/></linearGradient></defs><g><rect fill="url(#g1nzeffoenyncm0)" height="45.8008" rx="10.4167" ry="10.4167" style="stroke:#C2C2C2;stroke-width:1.0417;" width="91.7542" x="261.7839" y="70.7682"/><text fill="#009FDB" font-family="Verdana" font-size="12.5" lengthAdjust="spacing" textLength="60.5042" x="277.4089" y="97.996">root node</text><rect fill="url(#g1nzeffoenyncm0)" height="45.8008" rx="10.4167" ry="10.4167" style="stroke:#C2C2C2;stroke-width:1.0417;" width="162.5427" x="405.6213" y="70.7682"/><text fill="#009FDB" font-family="Verdana" font-size="12.5" lengthAdjust="spacing" textLength="131.2927" x="421.2463" y="97.996">some first level node</text><text fill="#009FDB" font-family="Verdana" font-size="12.5" lengthAdjust="spacing" textLength="113.446" x="631.7057" y="31.3944">second level node</text><path d="M568.1641,93.6686 L578.5807,93.6686 C594.2057,93.6686 594.2057,27.0671 609.8307,27.0671 L620.2474,27.0671 " fill="#FFFFFF" fill-opacity="0.00000" style="stroke:#009FDB;stroke-width:3.125;"/><text fill="#009FDB" font-family="Verdana" font-size="12.5" lengthAdjust="spacing" textLength="166.3025" x="631.7057" y="64.6952">another second level node</text><path d="M568.1641,93.6686 L578.5807,93.6686 C594.2057,93.6686 594.2057,60.3678 609.8307,60.3678 L620.2474,60.3678 " fill="#FFFFFF" fill-opacity="0.00000" style="stroke:#009FDB;stroke-width:3.125;"/><text fill="#009FDB" font-family="Verdana" font-size="12.5" lengthAdjust="spacing" textLength="19.696" x="631.7057" y="97.996">foo</text><path d="M568.1641,93.6686 L578.5807,93.6686 C594.2057,93.6686 594.2057,93.6686 609.8307,93.6686 L620.2474,93.6686 " fill="#FFFFFF" fill-opacity="0.00000" style="stroke:#009FDB;stroke-width:3.125;"/><text fill="#009FDB" font-family="Verdana" font-size="12.5" lengthAdjust="spacing" textLength="20.7336" x="631.7057" y="131.2968">bar</text><path d="M568.1641,93.6686 L578.5807,93.6686 C594.2057,93.6686 594.2057,126.9694 609.8307,126.9694 L620.2474,126.9694 " fill="#FFFFFF" fill-opacity="0.00000" style="stroke:#009FDB;stroke-width:3.125;"/><text fill="#009FDB" font-family="Verdana" font-size="12.5" lengthAdjust="spacing" textLength="40.4297" x="631.7057" y="164.5976">foobar</text><path d="M568.1641,93.6686 L578.5807,93.6686 C594.2057,93.6686 594.2057,160.2702 609.8307,160.2702 L620.2474,160.2702 " fill="#FFFFFF" fill-opacity="0.00000" style="stroke:#009FDB;stroke-width:3.125;"/><path d="M353.538,93.6686 L363.9547,93.6686 C379.5797,93.6686 379.5797,93.6686 395.2047,93.6686 L405.6213,93.6686 " fill="#FFFFFF" fill-opacity="0.00000" style="stroke:#009FDB;stroke-width:3.125;"/><text fill="#009FDB" font-family="Verdana" font-size="12.5" lengthAdjust="spacing" textLength="146.1487" x="417.0797" y="147.9635">another first level node</text><path d="M353.538,93.6686 L363.9547,93.6686 C379.5797,93.6686 379.5797,143.6361 395.2047,143.6361 L405.6213,143.6361 " fill="#FFFFFF" fill-opacity="0.00000" style="stroke:#009FDB;stroke-width:3.125;"/><rect fill="url(#g1nzeffoenyncm0)" height="45.8008" rx="10.4167" ry="10.4167" style="stroke:#C2C2C2;stroke-width:1.0417;" width="195.8862" x="13.8143" y="54.1178"/><text fill="#009FDB" font-family="Verdana" font-size="12.5" lengthAdjust="spacing" textLength="164.6362" x="29.4393" y="81.3456">some first right level node</text><path d="M261.7839,93.6686 L251.3672,93.6686 C235.7422,93.6686 235.7422,77.0182 220.1172,77.0182 L209.7005,77.0182 " fill="#FFFFFF" fill-opacity="0.00000" style="stroke:#009FDB;stroke-width:3.125;"/><text fill="#009FDB" font-family="Verdana" font-size="12.5" lengthAdjust="spacing" textLength="179.4922" x="18.75" y="131.3131">another first right level node</text><path d="M261.7839,93.6686 L251.3672,93.6686 C235.7422,93.6686 235.7422,126.9857 220.1172,126.9857 L209.7005,126.9857 " fill="#FFFFFF" fill-opacity="0.00000" style="stroke:#009FDB;stroke-width:3.125;"/></g></svg>