<svg xmlns="http://www.w3.org/2000/svg" xmlns:xlink="http://www.w3.org/1999/xlink" contentStyleType="text/css" data-diagram-type="MINDMAP" height="112.5px" preserveAspectRatio="none" style="width:807px;height:112px;" version="1.1" viewBox="0 0 807 112" width="807.2917px" zoomAndPan="magnify"><?plantuml 1.2026.5beta1?><defs/><g><rect fill="#4E5D6C" height="45.8008" rx="4.1667" ry="4.1667" style="stroke:#ABB6C2;stroke-width:1.0417;" width="91.7542" x="258.3862" y="33.2845"/><text fill="#ABB6C2" font-family="'Verdana'" font-size="12.5" lengthAdjust="spacing" textLength="60.5042" x="274.0112" y="60.5123">root node</text><rect fill="#4E5D6C" height="45.8008" rx="4.1667" ry="4.1667" style="stroke:#ABB6C2;stroke-width:1.0417;" width="162.5427" x="402.2237" y="29.1016"/><text fill="#ABB6C2" font-family="'Verdana'" font-size="12.5" lengthAdjust="spacing" textLength="131.2927" x="417.8487" y="56.3293">some first level node</text><text fill="#ABB6C2" font-family="'Verdana'" font-size="12.5" lengthAdjust="spacing" textLength="113.446" x="619.9748" y="23.0611">second level node</text><path d="M564.7664,52.002 L575.1831,52.002 C590.8081,52.002 590.8081,18.7337 606.4331,18.7337 L616.8498,18.7337" fill="none" style="stroke:#DF691A;stroke-width:3.125;"/><text fill="#ABB6C2" font-family="'Verdana'" font-size="12.5" lengthAdjust="spacing" textLength="166.3025" x="619.9748" y="39.6952">another second level node</text><path d="M564.7664,52.002 L575.1831,52.002 C590.8081,52.002 590.8081,35.3678 606.4331,35.3678 L616.8498,35.3678" fill="none" style="stroke:#DF691A;stroke-width:3.125;"/><text fill="#ABB6C2" font-family="'Verdana'" font-size="12.5" lengthAdjust="spacing" textLength="19.696" x="619.9748" y="56.3293">foo</text><path d="M564.7664,52.002 L575.1831,52.002 C590.8081,52.002 590.8081,52.002 606.4331,52.002 L616.8498,52.002" fill="none" style="stroke:#DF691A;stroke-width:3.125;"/><text fill="#ABB6C2" font-family="'Verdana'" font-size="12.5" lengthAdjust="spacing" textLength="20.7336" x="619.9748" y="72.9635">bar</text><path d="M564.7664,52.002 L575.1831,52.002 C590.8081,52.002 590.8081,68.6361 606.4331,68.6361 L616.8498,68.6361" fill="none" style="stroke:#DF691A;stroke-width:3.125;"/><text fill="#ABB6C2" font-family="'Verdana'" font-size="12.5" lengthAdjust="spacing" textLength="40.4297" x="619.9748" y="89.5976">foobar</text><path d="M564.7664,52.002 L575.1831,52.002 C590.8081,52.002 590.8081,85.2702 606.4331,85.2702 L616.8498,85.2702" fill="none" style="stroke:#DF691A;stroke-width:3.125;"/><path d="M350.1404,56.1849 L360.557,56.1849 C376.182,56.1849 376.182,52.002 391.807,52.002 L402.2237,52.002" fill="none" style="stroke:#DF691A;stroke-width:3.125;"/><text fill="#ABB6C2" font-family="'Verdana'" font-size="12.5" lengthAdjust="spacing" textLength="146.1487" x="405.3487" y="97.9635">another first level node</text><path d="M350.1404,56.1849 L360.557,56.1849 C376.182,56.1849 376.182,93.6361 391.807,93.6361 L402.2237,93.6361" fill="none" style="stroke:#DF691A;stroke-width:3.125;"/><rect fill="#4E5D6C" height="45.8008" rx="4.1667" ry="4.1667" style="stroke:#ABB6C2;stroke-width:1.0417;" width="195.8862" x="10.4167" y="24.9674"/><text fill="#ABB6C2" font-family="'Verdana'" font-size="12.5" lengthAdjust="spacing" textLength="164.6362" x="26.0417" y="52.1952">some first right level node</text><path d="M258.3862,56.1849 L247.9696,56.1849 C232.3446,56.1849 232.3446,47.8678 216.7196,47.8678 L206.3029,47.8678" fill="none" style="stroke:#DF691A;stroke-width:3.125;"/><text fill="#ABB6C2" font-family="'Verdana'" font-size="12.5" lengthAdjust="spacing" textLength="179.4922" x="23.6857" y="93.8293">another first right level node</text><path d="M258.3862,56.1849 L247.9696,56.1849 C232.3446,56.1849 232.3446,89.502 216.7196,89.502 L206.3029,89.502" fill="none" style="stroke:#DF691A;stroke-width:3.125;"/></g></svg>