<svg xmlns="http://www.w3.org/2000/svg" xmlns:xlink="http://www.w3.org/1999/xlink" contentStyleType="text/css" data-diagram-type="NWDIAG" height="485px" preserveAspectRatio="none" style="width:297px;height:485px;" version="1.1" viewBox="0 0 297 485" width="297px" zoomAndPan="magnify"><defs/><g><text fill="#000000" font-family="sans-serif" font-size="12" lengthAdjust="spacing" textLength="27.8145" x="36.3477" y="16.1387">DMZ</text><text fill="#000000" font-family="sans-serif" font-size="12" lengthAdjust="spacing" textLength="59.1621" x="5" y="30.1074">y.x.x.x/24</text><text fill="#000000" font-family="sans-serif" font-size="12" lengthAdjust="spacing" textLength="46.459" x="17.7031" y="242.0137">Internal</text><rect fill="#FFFFFF" height="332.8125" style="stroke:#C6C6C6;stroke-width:1;" width="200.168" x="79.1621" y="63.4531"/><text fill="#262626" font-family="sans-serif" font-size="12" font-weight="bold" lengthAdjust="spacing" textLength="110.7832" x="94.1621" y="84.5918">long group label</text><rect fill="#E2E2F0" height="5" style="stroke:#181818;stroke-width:1;" width="220.168" x="69.1621" y="16.4688"/><rect fill="#E2E2F0" height="5" style="stroke:#181818;stroke-width:1;" width="220.168" x="69.1621" y="242.3438"/><path d="M126.2041,21.4688 L126.2041,102.4219 " fill="#FFFFFF" fill-opacity="0.00000" style="stroke:#C6C6C6;stroke-width:1;"/><text fill="#262626" font-family="sans-serif" font-size="12" lengthAdjust="spacing" textLength="40.3828" x="106.0127" y="46.6152">y.x.x.1</text><path d="M126.2041,156.3906 L126.2041,242.3438 " fill="#FFFFFF" fill-opacity="0.00000" style="stroke:#C6C6C6;stroke-width:1;"/><path d="M236.2881,21.4688 L236.2881,102.4219 " fill="#FFFFFF" fill-opacity="0.00000" style="stroke:#C6C6C6;stroke-width:1;"/><text fill="#262626" font-family="sans-serif" font-size="12" lengthAdjust="spacing" textLength="40.3828" x="216.0967" y="46.6152">y.x.x.2</text><path d="M236.2881,156.3906 L236.2881,242.3438 " fill="#FFFFFF" fill-opacity="0.00000" style="stroke:#C6C6C6;stroke-width:1;"/><path d="M122.2041,247.3438 L122.2041,328.2969 " fill="#FFFFFF" fill-opacity="0.00000" style="stroke:#C6C6C6;stroke-width:1;"/><text fill="#262626" font-family="sans-serif" font-size="12" lengthAdjust="spacing" textLength="47.1855" x="98.6113" y="272.4902">w.w.w.z</text><rect fill="#F1F1F1" height="53.9688" style="stroke:#181818;stroke-width:0.5;" width="80.084" x="84.1621" y="102.4219"/><text fill="#000000" font-family="sans-serif" font-size="12" lengthAdjust="spacing" textLength="40.084" x="104.1621" y="133.5605">web01</text><rect fill="#F1F1F1" height="53.9688" style="stroke:#181818;stroke-width:0.5;" width="80.084" x="194.2461" y="102.4219"/><text fill="#000000" font-family="sans-serif" font-size="12" lengthAdjust="spacing" textLength="40.084" x="214.2461" y="133.5605">web02</text><path d="M88.9521,338.2969 C88.9521,328.2969 124.2041,328.2969 124.2041,328.2969 C124.2041,328.2969 159.4561,328.2969 159.4561,338.2969 L159.4561,381.2656 C159.4561,391.2656 124.2041,391.2656 124.2041,391.2656 C124.2041,391.2656 88.9521,391.2656 88.9521,381.2656 L88.9521,338.2969 " fill="#F1F1F1" style="stroke:#181818;stroke-width:0.5;"/><path d="M88.9521,338.2969 C88.9521,348.2969 124.2041,348.2969 124.2041,348.2969 C124.2041,348.2969 159.4561,348.2969 159.4561,338.2969 " fill="#FFFFFF" fill-opacity="0.00000" style="stroke:#181818;stroke-width:0.5;"/><text fill="#000000" font-family="sans-serif" font-size="12" lengthAdjust="spacing" textLength="30.5039" x="108.9521" y="373.4355">db01</text></g></svg>