<svg xmlns="http://www.w3.org/2000/svg" xmlns:xlink="http://www.w3.org/1999/xlink" contentStyleType="text/css" height="335.4167px" preserveAspectRatio="none" style="width:266px;height:335px;background:#FDF6E3;" version="1.1" viewBox="0 0 266 335" width="266.6667px" zoomAndPan="magnify"><defs/><g><rect fill="#FDF6E3" height="335.4167" style="stroke:none;stroke-width:1.0417;" width="266.6667" x="0" y="0"/><text fill="#000000" font-family="Dejavu Serif" font-size="12.5" lengthAdjust="spacing" textLength="31.5063" x="33.9498" y="16.8111">DMZ</text><text fill="#000000" font-family="Dejavu Serif" font-size="12.5" lengthAdjust="spacing" textLength="60.2478" x="5.2083" y="31.3619">y.x.x.x/24</text><text fill="#000000" font-family="Dejavu Serif" font-size="12.5" lengthAdjust="spacing" textLength="50.885" x="14.5711" y="167.5517">Internal</text><rect fill="#FFE0E0" height="220.4671" style="stroke:#DC322F;stroke-width:1.0417;" width="167.3421" x="81.0811" y="55.0741"/><text fill="#000000" font-family="Dejavu Serif" font-size="12.5" lengthAdjust="spacing" textLength="103.9246" x="86.2895" y="66.6768">long group label</text><rect fill="#FDF6E3" height="5.2083" style="stroke:#181818;stroke-width:1.0417;" width="188.1755" x="70.6645" y="17.1549"/><rect fill="#FDF6E3" height="5.2083" style="stroke:#181818;stroke-width:1.0417;" width="188.1755" x="70.6645" y="167.8955"/><path d="M119.7917,22.3633 L119.7917,74.8332 " fill="none" style="stroke:#657B83;stroke-width:1.0417;"/><text fill="#000000" font-family="Dejavu Serif" font-size="11.4583" lengthAdjust="spacing" textLength="37.6144" x="100.9844" y="42.6854">y.x.x.1</text><path d="M119.7917,110.2173 L119.7917,167.8955 " fill="none" style="stroke:#657B83;stroke-width:1.0417;"/><path d="M213.8794,22.3633 L213.8794,74.8332 " fill="none" style="stroke:#657B83;stroke-width:1.0417;"/><text fill="#000000" font-family="Dejavu Serif" font-size="11.4583" lengthAdjust="spacing" textLength="37.6144" x="195.0722" y="42.6854">y.x.x.2</text><path d="M213.8794,110.2173 L213.8794,167.8955 " fill="none" style="stroke:#657B83;stroke-width:1.0417;"/><path d="M115.625,173.1038 L115.625,225.5737 " fill="none" style="stroke:#657B83;stroke-width:1.0417;"/><text fill="#000000" font-family="Dejavu Serif" font-size="11.4583" lengthAdjust="spacing" textLength="46.3872" x="92.4314" y="193.426">w.w.w.z</text><rect fill="#FDF6E3" height="35.3841" rx="7.8125" ry="7.8125" style="stroke:#181818;stroke-width:0.5208;" width="62.8377" x="86.2895" y="74.8332"/><text fill="#000000" font-family="Dejavu Serif" font-size="12.5" lengthAdjust="spacing" textLength="42.0044" x="96.7061" y="96.8526">web01</text><rect fill="#FDF6E3" height="35.3841" rx="7.8125" ry="7.8125" style="stroke:#181818;stroke-width:0.5208;" width="62.8377" x="180.3772" y="74.8332"/><text fill="#000000" font-family="Dejavu Serif" font-size="12.5" lengthAdjust="spacing" textLength="42.0044" x="190.7939" y="96.8526">web02</text><path d="M91.3371,235.9904 C91.3371,225.5737 117.7083,225.5737 117.7083,225.5737 C117.7083,225.5737 144.0796,225.5737 144.0796,235.9904 L144.0796,259.9162 C144.0796,270.3328 117.7083,270.3328 117.7083,270.3328 C117.7083,270.3328 91.3371,270.3328 91.3371,259.9162 L91.3371,235.9904 " fill="#FDF6E3" style="stroke:#181818;stroke-width:0.5208;"/><path d="M91.3371,235.9904 C91.3371,246.4071 117.7083,246.4071 117.7083,246.4071 C117.7083,246.4071 144.0796,246.4071 144.0796,235.9904 " fill="none" style="stroke:#181818;stroke-width:0.5208;"/><text fill="#000000" font-family="Dejavu Serif" font-size="12.5" lengthAdjust="spacing" textLength="31.9092" x="101.7537" y="262.1765">db01</text></g></svg>