<svg xmlns="http://www.w3.org/2000/svg" xmlns:xlink="http://www.w3.org/1999/xlink" contentStyleType="text/css" data-diagram-type="NWDIAG" height="322px" preserveAspectRatio="none" style="width:257px;height:322px;background:#FFFFFF;" version="1.1" viewBox="0 0 257 322" width="257px" zoomAndPan="magnify"><defs/><g><text fill="#000000" font-family="sans-serif" font-size="12" lengthAdjust="spacing" textLength="27.8145" x="36.3477" y="16.1387">DMZ</text><text fill="#000000" font-family="sans-serif" font-size="12" lengthAdjust="spacing" textLength="59.1621" x="5" y="30.1074">y.x.x.x/24</text><text fill="#000000" font-family="sans-serif" font-size="12" lengthAdjust="spacing" textLength="46.459" x="17.7031" y="160.8496">Internal</text><rect fill="#E7E7E7" height="211.6484" style="stroke:#E7E7E7;stroke-width:1;" width="160.168" x="79.1621" y="52.8711"/><text fill="#000000" font-family="sans-serif" font-size="12" lengthAdjust="spacing" textLength="97.6641" x="84.1621" y="64.0098">long group label</text><rect fill="#E2E2F0" height="5" style="stroke:#181818;stroke-width:1;" width="180.168" x="69.1621" y="16.4688"/><rect fill="#E2E2F0" height="5" style="stroke:#181818;stroke-width:1;" width="180.168" x="69.1621" y="161.1797"/><path d="M116.2041,21.4688 L116.2041,71.8398 " fill="#FFFFFF" fill-opacity="0.00000" style="stroke:#000000;stroke-width:1;"/><text fill="#333333" font-family="Verdana" font-size="11" lengthAdjust="spacing" textLength="37.0176" x="97.6953" y="40.978">y.x.x.1</text><path d="M116.2041,105.8086 L116.2041,161.1797 " fill="#FFFFFF" fill-opacity="0.00000" style="stroke:#000000;stroke-width:1;"/><path d="M206.2881,21.4688 L206.2881,71.8398 " fill="#FFFFFF" fill-opacity="0.00000" style="stroke:#000000;stroke-width:1;"/><text fill="#333333" font-family="Verdana" font-size="11" lengthAdjust="spacing" textLength="37.0176" x="187.7793" y="40.978">y.x.x.2</text><path d="M206.2881,105.8086 L206.2881,161.1797 " fill="#FFFFFF" fill-opacity="0.00000" style="stroke:#000000;stroke-width:1;"/><path d="M112.2041,166.1797 L112.2041,216.5508 " fill="#FFFFFF" fill-opacity="0.00000" style="stroke:#000000;stroke-width:1;"/><text fill="#333333" font-family="Verdana" font-size="11" lengthAdjust="spacing" textLength="43.2534" x="90.5774" y="185.689">w.w.w.z</text><rect fill="#F1F1F1" height="33.9688" style="stroke:#181818;stroke-width:0.5;" width="60.084" x="84.1621" y="71.8398"/><text fill="#000000" font-family="sans-serif" font-size="12" lengthAdjust="spacing" textLength="40.084" x="94.1621" y="92.9785">web01</text><rect fill="#F1F1F1" height="33.9688" style="stroke:#181818;stroke-width:0.5;" width="60.084" x="174.2461" y="71.8398"/><text fill="#000000" font-family="sans-serif" font-size="12" lengthAdjust="spacing" textLength="40.084" x="184.2461" y="92.9785">web02</text><path d="M88.9521,226.5508 C88.9521,216.5508 114.2041,216.5508 114.2041,216.5508 C114.2041,216.5508 139.4561,216.5508 139.4561,226.5508 L139.4561,249.5195 C139.4561,259.5195 114.2041,259.5195 114.2041,259.5195 C114.2041,259.5195 88.9521,259.5195 88.9521,249.5195 L88.9521,226.5508 " fill="#F1F1F1" style="stroke:#181818;stroke-width:0.5;"/><path d="M88.9521,226.5508 C88.9521,236.5508 114.2041,236.5508 114.2041,236.5508 C114.2041,236.5508 139.4561,236.5508 139.4561,226.5508 " fill="#FFFFFF" fill-opacity="0.00000" style="stroke:#181818;stroke-width:0.5;"/><text fill="#000000" font-family="sans-serif" font-size="12" lengthAdjust="spacing" textLength="30.5039" x="98.9521" y="251.6895">db01</text></g></svg>