<svg xmlns="http://www.w3.org/2000/svg" xmlns:xlink="http://www.w3.org/1999/xlink" contentStyleType="text/css" height="513.5417px" preserveAspectRatio="none" style="width:613px;height:513px;" version="1.1" viewBox="0 0 613 513" width="613.5417px" zoomAndPan="magnify"><defs><linearGradient id="giut265z89n070" x1="50%" x2="50%" y1="0%" y2="100%"><stop offset="0%" stop-color="#33B2E2"/><stop offset="100%" stop-color="#009FDB"/></linearGradient><linearGradient id="giut265z89n071" x1="50%" x2="50%" y1="0%" y2="100%"><stop offset="0%" stop-color="#F5F5F5"/><stop offset="100%" stop-color="#C2C2C2"/></linearGradient></defs><g><g id="elem_user1"><rect fill="url(#giut265z89n070)" height="102.5146" rx="10.4167" ry="10.4167" style="stroke:#33B2E2;stroke-width:1.0417;" width="134.2779" x="42.7083" y="60.4167"/><text fill="#D2D2D2" font-family="Verdana" font-size="11.4583" lengthAdjust="spacing" textLength="32.2825" x="93.706" y="81.4692">user1</text><line style="stroke:#33B2E2;stroke-width:1.0417;" x1="43.75" x2="175.9445" y1="94.5882" y2="94.5882"/><text fill="#D2D2D2" font-family="Verdana" font-size="11.4583" lengthAdjust="spacing" textLength="105.1112" x="57.2917" y="117.7241">name = "Dummy"</text><text fill="#D2D2D2" font-family="Verdana" font-size="11.4583" lengthAdjust="spacing" textLength="49.2126" x="57.2917" y="147.729">id = 123</text></g><g id="elem_user2"><rect fill="url(#giut265z89n070)" height="102.5146" rx="10.4167" ry="10.4167" style="stroke:#33B2E2;stroke-width:1.0417;" width="134.2779" x="195.8333" y="60.4167"/><text fill="#D2D2D2" font-family="Verdana" font-size="11.4583" lengthAdjust="spacing" textLength="32.2825" x="246.831" y="81.4692">user2</text><line style="stroke:#33B2E2;stroke-width:1.0417;" x1="196.875" x2="329.0695" y1="94.5882" y2="94.5882"/><text fill="#D2D2D2" font-family="Verdana" font-size="11.4583" lengthAdjust="spacing" textLength="105.1112" x="210.4167" y="117.7241">name = "Dummy"</text><text fill="#D2D2D2" font-family="Verdana" font-size="11.4583" lengthAdjust="spacing" textLength="49.2126" x="210.4167" y="147.729">id = 123</text></g><g id="elem_o1"><rect fill="url(#giut265z89n070)" height="50.8382" rx="10.4167" ry="10.4167" style="stroke:#33B2E2;stroke-width:1.0417;" width="45.5505" x="349.4792" y="85.9375"/><text fill="#D2D2D2" font-family="Verdana" font-size="11.4583" lengthAdjust="spacing" textLength="14.3005" x="365.1042" y="106.9901">o1</text><line style="stroke:#33B2E2;stroke-width:1.0417;" x1="350.5208" x2="393.988" y1="120.109" y2="120.109"/></g><g id="elem_o2"><rect fill="url(#giut265z89n070)" height="50.8382" rx="10.4167" ry="10.4167" style="stroke:#33B2E2;stroke-width:1.0417;" width="45.5505" x="414.0625" y="85.9375"/><text fill="#D2D2D2" font-family="Verdana" font-size="11.4583" lengthAdjust="spacing" textLength="14.3005" x="429.6875" y="106.9901">o2</text><line style="stroke:#33B2E2;stroke-width:1.0417;" x1="415.1042" x2="458.5714" y1="120.109" y2="120.109"/></g><g id="elem_dia"><polygon fill="url(#giut265z89n071)" points="404.6875,330.2083,417.1875,342.7083,404.6875,355.2083,392.1875,342.7083,404.6875,330.2083" style="stroke:#C2C2C2;stroke-width:1.0417;"/></g><g id="elem_o3"><rect fill="url(#giut265z89n070)" height="50.8382" rx="10.4167" ry="10.4167" style="stroke:#33B2E2;stroke-width:1.0417;" width="45.5505" x="381.7708" y="452.0833"/><text fill="#D2D2D2" font-family="Verdana" font-size="11.4583" lengthAdjust="spacing" textLength="14.3005" x="397.3958" y="473.1359">o3</text><line style="stroke:#33B2E2;stroke-width:1.0417;" x1="382.8125" x2="426.2797" y1="486.2549" y2="486.2549"/></g><g id="elem_London"><rect fill="url(#giut265z89n070)" height="50.8382" rx="10.4167" ry="10.4167" style="stroke:#33B2E2;stroke-width:1.0417;" width="73.4523" x="221.875" y="317.1875"/><text fill="#D2D2D2" font-family="Verdana" font-size="11.4583" lengthAdjust="spacing" textLength="42.2023" x="237.5" y="338.2401">London</text><line style="stroke:#33B2E2;stroke-width:1.0417;" x1="222.9167" x2="294.2856" y1="351.359" y2="351.359"/></g><g id="elem_CapitalCity"><rect fill="none" height="141.5365" rx="10.4167" ry="10.4167" style="stroke:#007FAF;stroke-width:1.0417;" width="186.0942" x="16.6667" y="271.875"/><text fill="#FFFFFF" font-family="Verdana" font-size="12.5" lengthAdjust="spacing" textLength="68.3289" x="75.5493" y="293.8944">CapitalCity</text><line style="stroke:#007FAF;stroke-width:1.0417;" x1="16.6667" x2="202.7608" y1="307.2591" y2="307.2591"/><text fill="#FFFFFF" font-family="Verdana" font-size="12.5" lengthAdjust="spacing" textLength="17.3462" x="101.0406" y="329.2786">UK</text><line style="stroke:#007FAF;stroke-width:1.0417;" x1="16.6667" x2="202.7608" y1="342.6432" y2="342.6432"/><text fill="#FFFFFF" font-family="Verdana" font-size="12.5" lengthAdjust="spacing" textLength="25.6348" x="46.227" y="364.6627">USA</text><text fill="#FFFFFF" font-family="Verdana" font-size="12.5" lengthAdjust="spacing" textLength="74.2554" x="114.9638" y="364.6627">Washington</text><line style="stroke:#007FAF;stroke-width:1.0417;" x1="101.4221" x2="101.4221" y1="342.6432" y2="378.0273"/><line style="stroke:#007FAF;stroke-width:1.0417;" x1="16.6667" x2="202.7608" y1="378.0273" y2="378.0273"/><text fill="#FFFFFF" font-family="Verdana" font-size="12.5" lengthAdjust="spacing" textLength="57.6721" x="30.2083" y="400.0468">Germany</text><text fill="#FFFFFF" font-family="Verdana" font-size="12.5" lengthAdjust="spacing" textLength="36.2732" x="114.9638" y="400.0468">Berlin</text><line style="stroke:#007FAF;stroke-width:1.0417;" x1="101.4221" x2="101.4221" y1="378.0273" y2="413.4115"/></g><rect fill="none" height="176.9206" rx="10.4167" ry="10.4167" style="stroke:#007FAF;stroke-width:1.0417;" width="123.0754" x="478.6458" y="22.9167"/><text fill="#FFFFFF" font-family="Verdana" font-size="12.5" lengthAdjust="spacing" textLength="25.5554" x="527.4058" y="44.9361">json</text><line style="stroke:#007FAF;stroke-width:1.0417;" x1="536.5092" x2="536.5092" y1="58.3008" y2="199.8372"/><line style="stroke:#007FAF;stroke-width:1.0417;" x1="478.6458" x2="601.7212" y1="58.3008" y2="58.3008"/><text fill="#FFFFFF" font-family="Verdana" font-size="12.5" lengthAdjust="spacing" textLength="25.8362" x="492.1875" y="80.3202">fruit</text><text fill="#FFFFFF" font-family="Verdana" font-size="12.5" lengthAdjust="spacing" textLength="35.5835" x="550.0509" y="80.3202">Apple</text><line style="stroke:#007FAF;stroke-width:1.0417;" x1="478.6458" x2="601.7212" y1="93.6849" y2="93.6849"/><text fill="#FFFFFF" font-family="Verdana" font-size="12.5" lengthAdjust="spacing" textLength="24.2371" x="492.1875" y="115.7043">size</text><text fill="#FFFFFF" font-family="Verdana" font-size="12.5" lengthAdjust="spacing" textLength="35.3882" x="550.0509" y="115.7043">Large</text><line style="stroke:#007FAF;stroke-width:1.0417;" x1="478.6458" x2="601.7212" y1="129.069" y2="129.069"/><text fill="#FFFFFF" font-family="Verdana" font-size="12.5" lengthAdjust="spacing" textLength="30.78" x="492.1875" y="151.0885">color</text><text fill="#FFFFFF" font-family="Verdana" font-size="12.5" lengthAdjust="spacing" textLength="24.3103" x="550.0509" y="151.0885">Red</text><line style="stroke:#007FAF;stroke-width:1.0417;" x1="536.5092" x2="601.7212" y1="164.4531" y2="164.4531"/><text fill="#FFFFFF" font-family="Verdana" font-size="12.5" lengthAdjust="spacing" textLength="38.1287" x="550.0509" y="186.4726">Green</text><polygon fill="#009FDB" points="403.0362,329.9475,405.854,320.0829,402.3094,324.7902,397.6022,321.2456,403.0362,329.9475" style="stroke:#009FDB;stroke-width:1.0417;"/><path d="M375.8516,137.0248 C382.7502,185.9826 397.1263,288.0067 402.1641,323.7587 " fill="none" style="stroke:#009FDB;stroke-width:3.125;"/><polygon fill="#009FDB" points="406.3388,329.9475,411.7728,321.2456,407.0656,324.7902,403.521,320.0829,406.3388,329.9475" style="stroke:#009FDB;stroke-width:1.0417;"/><path d="M433.5234,137.0248 C426.6248,185.9826 412.2487,288.0067 407.2109,323.7587 " fill="none" style="stroke:#009FDB;stroke-width:3.125;"/><text fill="#5A5A5A" font-family="Verdana" font-size="12.5" lengthAdjust="spacing" textLength="7.9529" x="389.6722" y="318.6337">1</text><text fill="#5A5A5A" font-family="Verdana" font-size="12.5" lengthAdjust="spacing" textLength="7.9529" x="416.8567" y="158.0026">1</text><polygon fill="#009FDB" points="404.6875,452.0721,408.8542,442.6971,404.6875,446.8637,400.5208,442.6971,404.6875,452.0721" style="stroke:#009FDB;stroke-width:1.0417;"/><path d="M404.6875,355.5362 C404.6875,377.121 404.6875,417.1586 404.6875,445.8221 " fill="none" style="stroke:#009FDB;stroke-width:3.125;"/><polygon fill="#009FDB" points="221.5191,342.7083,212.1441,338.5417,216.3108,342.7083,212.1441,346.875,221.5191,342.7083" style="stroke:#009FDB;stroke-width:1.0417;"/><path d="M203.2857,342.7083 C209.3635,342.7083 209.1913,342.7083 215.2691,342.7083 " fill="none" style="stroke:#009FDB;stroke-width:3.125;"/><polygon fill="#009FDB" points="109.8958,271.7717,114.0625,262.3967,109.8958,266.5634,105.7292,262.3967,109.8958,271.7717" style="stroke:#009FDB;stroke-width:1.0417;"/><path d="M109.8958,162.5084 C109.8958,194.5113 109.8958,230.2425 109.8958,265.5217 " fill="none" style="stroke:#009FDB;stroke-width:3.125;"/><text fill="#5A5A5A" font-family="Verdana" font-size="12.5" lengthAdjust="spacing" textLength="32.2693" x="120.3125" y="240.7694">visits</text></g></svg>