<svg xmlns="http://www.w3.org/2000/svg" xmlns:xlink="http://www.w3.org/1999/xlink" contentStyleType="text/css" data-diagram-type="CLASS" height="333.3333px" preserveAspectRatio="none" style="width:531px;height:333px;" version="1.1" viewBox="0 0 531 333" width="531.25px" zoomAndPan="magnify"><?plantuml 1.2026.5beta1?><defs><linearGradient id="g1s8692isqaw100" x1="50%" x2="50%" y1="0%" y2="100%"><stop offset="0%" stop-color="#EEEEEE"/><stop offset="100%" stop-color="#BEBEBE"/></linearGradient><linearGradient id="g1s8692isqaw101" x1="50%" x2="50%" y1="0%" y2="100%"><stop offset="0%" stop-color="#D6D6D6"/><stop offset="100%" stop-color="#ABABAB"/></linearGradient></defs><g><g class="entity" data-qualified-name="user1" data-source-line="7" id="ent0001"><rect fill="url(#g1s8692isqaw100)" height="60.848" rx="7.8125" ry="7.8125" style="stroke:#F1F1F1;stroke-width:1.0417;" width="117.6112" x="34.375" y="39.5833"/><path d="M42.1875,39.5833 L144.1737,39.5833 A7.8125,7.8125 0 0 1 151.9862,47.3958 L151.9862,65.4215 L34.375,65.4215 L34.375,47.3958 A7.8125,7.8125 0 0 1 42.1875,39.5833" fill="url(#g1s8692isqaw100)" style="stroke:#F1F1F1;stroke-width:1.0417;"/><text fill="#FFFFFF" font-family="'Verdana'" font-size="11.4583" lengthAdjust="spacing" textLength="32.2825" x="77.0393" y="56.4692">user1</text><line style="stroke:#F1F1F1;stroke-width:1.0417;" x1="35.4167" x2="150.9445" y1="65.4215" y2="65.4215"/><text fill="#FFFFFF" font-family="'Verdana'" font-size="11.4583" lengthAdjust="spacing" textLength="105.1112" x="40.625" y="80.2241">name = "Dummy"</text><text fill="#FFFFFF" font-family="'Verdana'" font-size="11.4583" lengthAdjust="spacing" textLength="49.2126" x="40.625" y="93.5623">id = 123</text></g><g class="entity" data-qualified-name="user2" data-source-line="11" id="ent0002"><rect fill="url(#g1s8692isqaw100)" height="60.848" rx="7.8125" ry="7.8125" style="stroke:#F1F1F1;stroke-width:1.0417;" width="117.6112" x="170.8333" y="39.5833"/><path d="M178.6458,39.5833 L280.632,39.5833 A7.8125,7.8125 0 0 1 288.4445,47.3958 L288.4445,65.4215 L170.8333,65.4215 L170.8333,47.3958 A7.8125,7.8125 0 0 1 178.6458,39.5833" fill="url(#g1s8692isqaw100)" style="stroke:#F1F1F1;stroke-width:1.0417;"/><text fill="#FFFFFF" font-family="'Verdana'" font-size="11.4583" lengthAdjust="spacing" textLength="32.2825" x="213.4977" y="56.4692">user2</text><line style="stroke:#F1F1F1;stroke-width:1.0417;" x1="171.875" x2="287.4029" y1="65.4215" y2="65.4215"/><text fill="#FFFFFF" font-family="'Verdana'" font-size="11.4583" lengthAdjust="spacing" textLength="105.1112" x="177.0833" y="80.2241">name = "Dummy"</text><text fill="#FFFFFF" font-family="'Verdana'" font-size="11.4583" lengthAdjust="spacing" textLength="49.2126" x="177.0833" y="93.5623">id = 123</text></g><g class="entity" data-qualified-name="o1" data-source-line="16" id="ent0003"><rect fill="url(#g1s8692isqaw100)" height="42.5049" rx="7.8125" ry="7.8125" style="stroke:#F1F1F1;stroke-width:1.0417;" width="37.2172" x="307.8125" y="48.4375"/><path d="M315.625,48.4375 L337.2172,48.4375 A7.8125,7.8125 0 0 1 345.0297,56.25 L345.0297,74.2757 L307.8125,74.2757 L307.8125,56.25 A7.8125,7.8125 0 0 1 315.625,48.4375" fill="url(#g1s8692isqaw100)" style="stroke:#F1F1F1;stroke-width:1.0417;"/><text fill="#FFFFFF" font-family="'Verdana'" font-size="11.4583" lengthAdjust="spacing" textLength="14.3005" x="319.2708" y="65.3234">o1</text><line style="stroke:#F1F1F1;stroke-width:1.0417;" x1="308.8542" x2="343.988" y1="74.2757" y2="74.2757"/></g><g class="entity" data-qualified-name="o2" data-source-line="17" id="ent0004"><rect fill="url(#g1s8692isqaw100)" height="42.5049" rx="7.8125" ry="7.8125" style="stroke:#F1F1F1;stroke-width:1.0417;" width="37.2172" x="364.0625" y="48.4375"/><path d="M371.875,48.4375 L393.4672,48.4375 A7.8125,7.8125 0 0 1 401.2797,56.25 L401.2797,74.2757 L364.0625,74.2757 L364.0625,56.25 A7.8125,7.8125 0 0 1 371.875,48.4375" fill="url(#g1s8692isqaw100)" style="stroke:#F1F1F1;stroke-width:1.0417;"/><text fill="#FFFFFF" font-family="'Verdana'" font-size="11.4583" lengthAdjust="spacing" textLength="14.3005" x="375.5208" y="65.3234">o2</text><line style="stroke:#F1F1F1;stroke-width:1.0417;" x1="365.1042" x2="400.238" y1="74.2757" y2="74.2757"/></g><g class="entity" data-qualified-name="dia" id="ent0005"><polygon fill="url(#g1s8692isqaw101)" points="354.6875,196.875,367.1875,209.375,354.6875,221.875,342.1875,209.375,354.6875,196.875" style="stroke:#ABABAB;stroke-width:1.0417;stroke-linejoin:miter;stroke-miterlimit:10;"/></g><g class="entity" data-qualified-name="o3" data-source-line="19" id="ent0006"><rect fill="url(#g1s8692isqaw100)" height="42.5049" rx="7.8125" ry="7.8125" style="stroke:#F1F1F1;stroke-width:1.0417;" width="37.2172" x="335.9375" y="285.4167"/><path d="M343.75,285.4167 L365.3422,285.4167 A7.8125,7.8125 0 0 1 373.1547,293.2292 L373.1547,311.2549 L335.9375,311.2549 L335.9375,293.2292 A7.8125,7.8125 0 0 1 343.75,285.4167" fill="url(#g1s8692isqaw100)" style="stroke:#F1F1F1;stroke-width:1.0417;"/><text fill="#FFFFFF" font-family="'Verdana'" font-size="11.4583" lengthAdjust="spacing" textLength="14.3005" x="347.3958" y="302.3026">o3</text><line style="stroke:#F1F1F1;stroke-width:1.0417;" x1="336.9792" x2="372.113" y1="311.2549" y2="311.2549"/></g><g class="entity" data-qualified-name="London" data-source-line="25" id="ent0010"><rect fill="url(#g1s8692isqaw100)" height="42.5049" rx="7.8125" ry="7.8125" style="stroke:#F1F1F1;stroke-width:1.0417;" width="65.1189" x="188.5417" y="188.0208"/><path d="M196.3542,188.0208 L245.8481,188.0208 A7.8125,7.8125 0 0 1 253.6606,195.8333 L253.6606,213.859 L188.5417,213.859 L188.5417,195.8333 A7.8125,7.8125 0 0 1 196.3542,188.0208" fill="url(#g1s8692isqaw100)" style="stroke:#F1F1F1;stroke-width:1.0417;"/><text fill="#FFFFFF" font-family="'Verdana'" font-size="11.4583" lengthAdjust="spacing" textLength="42.2023" x="200" y="204.9067">London</text><line style="stroke:#F1F1F1;stroke-width:1.0417;" x1="189.5833" x2="252.6189" y1="213.859" y2="213.859"/></g><g class="entity" data-qualified-name="CapitalCity" data-source-line="27" id="ent0011"><rect fill="none" height="74.8698" rx="7.8125" ry="7.8125" style="stroke:#BEBEBE;stroke-width:1.0417;" width="152.7608" x="16.6667" y="171.875"/><text fill="#336699" font-family="'Verdana'" font-size="12.5" lengthAdjust="spacing" textLength="68.3289" x="58.8826" y="185.5611">CapitalCity</text><line style="stroke:#BEBEBE;stroke-width:1.0417;" x1="16.6667" x2="169.4275" y1="190.5924" y2="190.5924"/><text fill="#336699" font-family="'Verdana'" font-size="12.5" lengthAdjust="spacing" textLength="17.3462" x="84.374" y="204.2786">UK</text><line style="stroke:#BEBEBE;stroke-width:1.0417;" x1="16.6667" x2="169.4275" y1="209.3099" y2="209.3099"/><text fill="#336699" font-family="'Verdana'" font-size="12.5" lengthAdjust="spacing" textLength="25.6348" x="37.8937" y="222.996">USA</text><text fill="#336699" font-family="'Verdana'" font-size="12.5" lengthAdjust="spacing" textLength="74.2554" x="89.9638" y="222.996">Washington</text><line style="stroke:#BEBEBE;stroke-width:1.0417;" x1="84.7555" x2="84.7555" y1="209.3099" y2="228.0273"/><line style="stroke:#BEBEBE;stroke-width:1.0417;" x1="16.6667" x2="169.4275" y1="228.0273" y2="228.0273"/><text fill="#336699" font-family="'Verdana'" font-size="12.5" lengthAdjust="spacing" textLength="57.6721" x="21.875" y="241.7135">Germany</text><text fill="#336699" font-family="'Verdana'" font-size="12.5" lengthAdjust="spacing" textLength="36.2732" x="89.9638" y="241.7135">Berlin</text><line style="stroke:#BEBEBE;stroke-width:1.0417;" x1="84.7555" x2="84.7555" y1="228.0273" y2="246.7448"/></g><g class="entity" data-qualified-name="json" data-source-line="35" id="ent0014"><rect fill="none" height="93.5872" rx="7.8125" ry="7.8125" style="stroke:#BEBEBE;stroke-width:1.0417;" width="89.742" x="420.3125" y="22.9167"/><text fill="#336699" font-family="'Verdana'" font-size="12.5" lengthAdjust="spacing" textLength="25.5554" x="452.4058" y="36.6028">json</text><line style="stroke:#BEBEBE;stroke-width:1.0417;" x1="461.5092" x2="461.5092" y1="41.6341" y2="116.5039"/><line style="stroke:#BEBEBE;stroke-width:1.0417;" x1="420.3125" x2="510.0545" y1="41.6341" y2="41.6341"/><text fill="#336699" font-family="'Verdana'" font-size="12.5" lengthAdjust="spacing" textLength="25.8362" x="425.5208" y="55.3202">fruit</text><text fill="#336699" font-family="'Verdana'" font-size="12.5" lengthAdjust="spacing" textLength="35.5835" x="466.7175" y="55.3202">Apple</text><line style="stroke:#BEBEBE;stroke-width:1.0417;" x1="420.3125" x2="510.0545" y1="60.3516" y2="60.3516"/><text fill="#336699" font-family="'Verdana'" font-size="12.5" lengthAdjust="spacing" textLength="24.2371" x="425.5208" y="74.0377">size</text><text fill="#336699" font-family="'Verdana'" font-size="12.5" lengthAdjust="spacing" textLength="35.3882" x="466.7175" y="74.0377">Large</text><line style="stroke:#BEBEBE;stroke-width:1.0417;" x1="420.3125" x2="510.0545" y1="79.069" y2="79.069"/><text fill="#336699" font-family="'Verdana'" font-size="12.5" lengthAdjust="spacing" textLength="30.78" x="425.5208" y="92.7551">color</text><text fill="#336699" font-family="'Verdana'" font-size="12.5" lengthAdjust="spacing" textLength="24.3103" x="466.7175" y="92.7551">Red</text><line style="stroke:#BEBEBE;stroke-width:1.0417;" x1="461.5092" x2="510.0545" y1="97.7865" y2="97.7865"/><text fill="#336699" font-family="'Verdana'" font-size="12.5" lengthAdjust="spacing" textLength="38.1287" x="466.7175" y="111.4726">Green</text></g><g class="link" data-entity-1="ent0003" data-entity-2="ent0005" data-link-type="dependency" id="lnk7"><polygon fill="#EEEEEE" points="352.2791,196.5591,354.4826,186.5393,351.2354,191.4564,346.3183,188.2092,352.2791,196.5591" style="stroke:#EEEEEE;stroke-width:1.0417;stroke-linejoin:miter;stroke-miterlimit:10;"/><path d="M330.7731,91.4185 C336.7495,120.6364 346.453,168.0758 351.2354,191.4564" fill="none" style="stroke:#EEEEEE;stroke-width:3.125;"/></g><g class="link" data-entity-1="ent0004" data-entity-2="ent0005" data-link-type="dependency" id="lnk8"><polygon fill="#EEEEEE" points="357.0959,196.5591,363.0567,188.2092,358.1396,191.4564,354.8924,186.5393,357.0959,196.5591" style="stroke:#EEEEEE;stroke-width:1.0417;stroke-linejoin:miter;stroke-miterlimit:10;"/><path d="M378.6019,91.4185 C372.6255,120.6364 362.922,168.0758 358.1396,191.4564" fill="none" style="stroke:#EEEEEE;stroke-width:3.125;"/><text fill="#303030" font-family="'Verdana'" font-size="12.5" lengthAdjust="spacing" textLength="7.9529" x="348.7625" y="193.5785">1</text><text fill="#303030" font-family="'Verdana'" font-size="12.5" lengthAdjust="spacing" textLength="7.9529" x="370.2686" y="104.0629">1</text></g><g class="link" data-entity-1="ent0005" data-entity-2="ent0006" data-link-type="dependency" id="lnk9"><polygon fill="#EEEEEE" points="354.6875,285.253,358.8542,275.878,354.6875,280.0446,350.5208,275.878,354.6875,285.253" style="stroke:#EEEEEE;stroke-width:1.0417;stroke-linejoin:miter;stroke-miterlimit:10;"/><path d="M354.6875,222.1039 C354.6875,237.812 354.6875,260.7767 354.6875,280.0446" fill="none" style="stroke:#EEEEEE;stroke-width:3.125;"/></g><g class="link" data-entity-1="ent0011" data-entity-2="ent0010" data-link-type="dependency" id="lnk12"><polygon fill="#EEEEEE" points="188.3298,209.375,178.9548,205.2083,183.1214,209.375,178.9548,213.5417,188.3298,209.375" style="stroke:#EEEEEE;stroke-width:1.0417;stroke-linejoin:miter;stroke-miterlimit:10;"/><path d="M169.8039,209.375 C175.9792,209.375 176.9461,209.375 183.1214,209.375" fill="none" style="stroke:#EEEEEE;stroke-width:3.125;"/></g><g class="link" data-entity-1="ent0001" data-entity-2="ent0011" data-link-type="dependency" id="lnk13"><polygon fill="#EEEEEE" points="93.2292,171.5254,97.3958,162.1504,93.2292,166.3171,89.0625,162.1504,93.2292,171.5254" style="stroke:#EEEEEE;stroke-width:1.0417;stroke-linejoin:miter;stroke-miterlimit:10;"/><path d="M93.2292,100.3305 C93.2292,121.1628 93.2292,144.0181 93.2292,166.3171" fill="none" style="stroke:#EEEEEE;stroke-width:3.125;"/><text fill="#303030" font-family="'Verdana'" font-size="12.5" lengthAdjust="spacing" textLength="32.2693" x="95.3125" y="149.1028">visits</text></g></g></svg>