<svg xmlns="http://www.w3.org/2000/svg" xmlns:xlink="http://www.w3.org/1999/xlink" contentStyleType="text/css" height="412px" preserveAspectRatio="none" style="width:691px;height:412px;background:#AAAAAA;" version="1.1" viewBox="0 0 691 412" width="691px" zoomAndPan="magnify"><defs/><g><rect fill="#AAAAAA" height="412" style="stroke:none;stroke-width:1;" width="691" x="0" y="0"/><g id="elem_user1"><rect fill="#CEFEFE" height="86.5" style="stroke:#3600A8;stroke-width:1;" width="186.2935" x="23.5" y="38"/><text fill="#800080" font-family="sans-serif" font-size="26" lengthAdjust="spacing" textLength="73.252" x="80.0208" y="64.1338">user1</text><line style="stroke:#3600A8;stroke-width:1;" x1="24.5" x2="208.7935" y1="72.2656" y2="72.2656"/><text fill="#008000" font-family="sans-serif" font-size="19" lengthAdjust="spacing" textLength="174.2935" x="29.5" y="93.9019">name = "Dummy"</text><text fill="#008000" font-family="sans-serif" font-size="19" lengthAdjust="spacing" textLength="81.6035" x="29.5" y="116.019">id = 123</text></g><g id="elem_user2"><rect fill="#CEFEFE" height="86.5" style="stroke:#3600A8;stroke-width:1;" width="186.2935" x="227.5" y="38"/><text fill="#800080" font-family="sans-serif" font-size="26" lengthAdjust="spacing" textLength="73.252" x="284.0208" y="64.1338">user2</text><line style="stroke:#3600A8;stroke-width:1;" x1="228.5" x2="412.7935" y1="72.2656" y2="72.2656"/><text fill="#008000" font-family="sans-serif" font-size="19" lengthAdjust="spacing" textLength="174.2935" x="233.5" y="93.9019">name = "Dummy"</text><text fill="#008000" font-family="sans-serif" font-size="19" lengthAdjust="spacing" textLength="81.6035" x="233.5" y="116.019">id = 123</text></g><g id="elem_o1"><rect fill="#CEFEFE" height="50.2656" style="stroke:#3600A8;stroke-width:1;" width="46.4492" x="431.5" y="56.5"/><text fill="#800080" font-family="sans-serif" font-size="26" lengthAdjust="spacing" textLength="32.4492" x="438.5" y="82.6338">o1</text><line style="stroke:#3600A8;stroke-width:1;" x1="432.5" x2="476.9492" y1="90.7656" y2="90.7656"/></g><g id="elem_o2"><rect fill="#CEFEFE" height="50.2656" style="stroke:#3600A8;stroke-width:1;" width="46.4492" x="495.5" y="56.5"/><text fill="#800080" font-family="sans-serif" font-size="26" lengthAdjust="spacing" textLength="32.4492" x="502.5" y="82.6338">o2</text><line style="stroke:#3600A8;stroke-width:1;" x1="496.5" x2="540.9492" y1="90.7656" y2="90.7656"/></g><g id="elem_dia"><polygon fill="#DAE4F1" points="486.5,250.5,498.5,262.5,486.5,274.5,474.5,262.5,486.5,250.5" style="stroke:#3600A8;stroke-width:1;"/></g><g id="elem_o3"><rect fill="#CEFEFE" height="50.2656" style="stroke:#3600A8;stroke-width:1;" width="46.4492" x="463.5" y="356"/><text fill="#800080" font-family="sans-serif" font-size="26" lengthAdjust="spacing" textLength="32.4492" x="470.5" y="382.1338">o3</text><line style="stroke:#3600A8;stroke-width:1;" x1="464.5" x2="508.9492" y1="390.2656" y2="390.2656"/></g><g id="elem_London"><rect fill="#CEFEFE" height="50.2656" style="stroke:#3600A8;stroke-width:1;" width="109.7607" x="245.5" y="237.5"/><text fill="#800080" font-family="sans-serif" font-size="26" lengthAdjust="spacing" textLength="95.7607" x="252.5" y="263.6338">London</text><line style="stroke:#3600A8;stroke-width:1;" x1="246.5" x2="354.2607" y1="271.7656" y2="271.7656"/></g><g id="elem_CapitalCity"><rect fill="#CEFEFE" height="112.6172" style="stroke:#3600A8;stroke-width:1;" width="220.5298" x="6" y="206"/><text fill="#800080" font-family="sans-serif" font-size="26" lengthAdjust="spacing" textLength="142.124" x="45.2029" y="232.1338">CapitalCity</text><line style="stroke:#3600A8;stroke-width:1;" x1="6" x2="226.5298" y1="240.2656" y2="240.2656"/><text fill="#008000" font-family="sans-serif" font-size="19" lengthAdjust="spacing" textLength="26.3662" x="103.0818" y="259.9019">UK</text><line style="stroke:#3600A8;stroke-width:1;" x1="6" x2="226.5298" y1="266.3828" y2="266.3828"/><text fill="#008000" font-family="sans-serif" font-size="19" lengthAdjust="spacing" textLength="38.9648" x="35.3484" y="286.019">USA</text><text fill="#008000" font-family="sans-serif" font-size="19" lengthAdjust="spacing" textLength="112.8682" x="108.6616" y="286.019">Washington</text><line style="stroke:#3600A8;stroke-width:1;" x1="103.6616" x2="103.6616" y1="266.3828" y2="292.5"/><line style="stroke:#3600A8;stroke-width:1;" x1="6" x2="226.5298" y1="292.5" y2="292.5"/><text fill="#008000" font-family="sans-serif" font-size="19" lengthAdjust="spacing" textLength="87.6616" x="11" y="312.1362">Germany</text><text fill="#008000" font-family="sans-serif" font-size="19" lengthAdjust="spacing" textLength="55.1353" x="108.6616" y="312.1362">Berlin</text><line style="stroke:#3600A8;stroke-width:1;" x1="103.6616" x2="103.6616" y1="292.5" y2="318.6172"/></g><rect fill="#CEFEFE" height="138.7344" style="stroke:#3600A8;stroke-width:1;" width="124.7412" x="560" y="12"/><text fill="#800080" font-family="sans-serif" font-size="26" lengthAdjust="spacing" textLength="53.1553" x="595.793" y="38.1338">json</text><line style="stroke:#3600A8;stroke-width:1;" x1="616.7856" x2="616.7856" y1="46.2656" y2="150.7344"/><line style="stroke:#3600A8;stroke-width:1;" x1="560" x2="684.7412" y1="46.2656" y2="46.2656"/><text fill="#008000" font-family="sans-serif" font-size="19" lengthAdjust="spacing" textLength="39.271" x="565" y="65.9019">fruit</text><text fill="#008000" font-family="sans-serif" font-size="19" lengthAdjust="spacing" textLength="54.0869" x="621.7856" y="65.9019">Apple</text><line style="stroke:#3600A8;stroke-width:1;" x1="560" x2="684.7412" y1="72.3828" y2="72.3828"/><text fill="#008000" font-family="sans-serif" font-size="19" lengthAdjust="spacing" textLength="36.8403" x="565" y="92.019">size</text><text fill="#008000" font-family="sans-serif" font-size="19" lengthAdjust="spacing" textLength="53.79" x="621.7856" y="92.019">Large</text><line style="stroke:#3600A8;stroke-width:1;" x1="560" x2="684.7412" y1="98.5" y2="98.5"/><text fill="#008000" font-family="sans-serif" font-size="19" lengthAdjust="spacing" textLength="46.7856" x="565" y="118.1362">color</text><text fill="#008000" font-family="sans-serif" font-size="19" lengthAdjust="spacing" textLength="36.9517" x="621.7856" y="118.1362">Red</text><line style="stroke:#3600A8;stroke-width:1;" x1="616.7856" x2="684.7412" y1="124.6172" y2="124.6172"/><text fill="#008000" font-family="sans-serif" font-size="19" lengthAdjust="spacing" textLength="57.9556" x="621.7856" y="144.2534">Green</text><polygon fill="#00FF00" points="484.4744,250.1691,486.8281,240.6056,483.5945,245.2471,478.953,242.0135,484.4744,250.1691" style="stroke:#00FF00;stroke-width:1;"/><path d="M458.8157,106.6407 C465.8102,145.7664 478.2993,215.6271 483.4185,244.2627 " fill="none" style="stroke:#00FF00;stroke-width:1;"/><polygon fill="#00FF00" points="488.5256,250.1691,494.047,242.0135,489.4055,245.2471,486.1719,240.6056,488.5256,250.1691" style="stroke:#00FF00;stroke-width:1;"/><path d="M514.1843,106.6407 C507.1898,145.7664 494.7007,215.6271 489.5815,244.2627 " fill="none" style="stroke:#00FF00;stroke-width:1;"/><text fill="#008000" font-family="sans-serif" font-size="13" lengthAdjust="spacing" textLength="8.271" x="479.5256" y="246.236">1</text><text fill="#008000" font-family="sans-serif" font-size="13" lengthAdjust="spacing" textLength="8.271" x="505.1843" y="119.7076">1</text><polygon fill="#00FF00" points="486.5,355.7484,490.5,346.7484,486.5,350.7484,482.5,346.7484,486.5,355.7484" style="stroke:#00FF00;stroke-width:1;"/><path d="M486.5,274.6705 C486.5,293.2366 486.5,324.8616 486.5,349.7484 " fill="none" style="stroke:#00FF00;stroke-width:1;"/><polygon fill="#00FF00" points="245.2292,262.5,236.2292,258.5,240.2292,262.5,236.2292,266.5,245.2292,262.5" style="stroke:#00FF00;stroke-width:1;"/><path d="M227.1875,262.5 C233.2014,262.5 233.2153,262.5 239.2292,262.5 " fill="none" style="stroke:#00FF00;stroke-width:1;"/><polygon fill="#00FF00" points="116.5,205.7575,120.5,196.7575,116.5,200.7575,112.5,196.7575,116.5,205.7575" style="stroke:#00FF00;stroke-width:1;"/><path d="M116.5,125.375 C116.5,149.4739 116.5,173.83 116.5,199.7575 " fill="none" style="stroke:#00FF00;stroke-width:1;"/><text fill="#008000" font-family="sans-serif" font-size="13" lengthAdjust="spacing" textLength="33.5601" x="118.5" y="183.0669">visits</text></g></svg>