<svg xmlns="http://www.w3.org/2000/svg" xmlns:xlink="http://www.w3.org/1999/xlink" contentStyleType="text/css" height="444.7917px" preserveAspectRatio="none" style="width:572px;height:444px;" version="1.1" viewBox="0 0 572 444" width="572.9167px" zoomAndPan="magnify"><defs/><g><g id="elem_user1"><polygon fill="none" points="43.75,54.1667,43.75,54.3856,54.6313,53.7351,65.5126,54.368,76.394,54.583,87.2753,53.4235,98.1566,54.0857,109.0379,53.7224,119.9192,53.7672,130.8006,54.0957,141.6819,53.4465,152.5632,54.7434,163.4445,54.1667,163.3608,53.9645,164.0075,54.3473,164.6804,54.7934,165.2009,54.8714,165.8106,55.1649,166.3908,55.3871,166.3805,55.3828,166.6921,56,166.9557,56.5973,167.3109,57.2326,167.5824,57.8332,167.6112,58.3333,168.3187,58.3333,167.8764,69.1092,168.0941,79.8851,168.3427,90.661,166.86,101.4369,168.318,112.2128,167.3023,122.9887,167.6112,133.7646,167.7824,133.8356,167.2083,134.2881,167.1011,134.9341,167.1169,135.631,166.6192,136.1152,166.3908,136.7109,166.4048,136.7447,165.8465,137.0636,165.2676,137.3326,164.6225,137.4419,164.0719,137.7794,163.4445,137.9313,163.4445,137.335,152.5632,138.2276,141.6819,138.5024,130.8006,138.3944,119.9192,138.5699,109.0379,137.4281,98.1566,137.252,87.2753,137.284,76.394,137.87,65.5126,137.7266,54.6313,138.6411,43.75,137.9313,43.7268,137.8753,43.1152,137.5772,42.6018,137.5164,41.8936,136.9852,41.324,136.7885,40.8037,136.7109,41.0119,136.7972,40.6994,136.1796,40.5512,135.63,39.9683,134.9004,39.9298,134.3963,39.5833,133.7646,40.1984,133.7646,39.0912,122.9887,39.4835,112.2128,39.7146,101.4369,40.2622,90.661,39.579,79.8851,40.0652,69.1092,39.5833,58.3333,39.4057,58.2597,39.6102,57.6541,40.233,57.2217,40.0856,56.4703,40.7229,56.0439,40.8037,55.3871,40.8312,55.4533,41.3574,55.057,41.9352,54.7854,42.6324,54.802,43.121,54.3147,43.75,54.1667" style="stroke:#333333;stroke-width:1.0417;"/><text fill="#2E2E2E" font-family="Segoe Print" font-size="11.4583" lengthAdjust="spacing" textLength="32.2825" x="87.456" y="72.0942">user1</text><path d="M40.625,82.0882 L40.625,82.3801 L51.1204,81.5128 L61.6158,82.3567 L72.1111,82.6433 L82.6065,81.0974 L93.1019,81.9803 L103.5973,81.4959 L114.0926,81.5556 L124.588,81.9936 L135.0834,81.128 L145.5788,82.8572 L156.0741,81.2128 L166.5695,82.0882 " fill="none" style="stroke:#333333;stroke-width:1.0417;"/><text fill="#2E2E2E" font-family="Segoe Print" font-size="11.4583" lengthAdjust="spacing" textLength="105.1112" x="51.0417" y="102.0991">name = "Dummy"</text><text fill="#2E2E2E" font-family="Segoe Print" font-size="11.4583" lengthAdjust="spacing" textLength="49.2126" x="51.0417" y="125.854">id = 123</text></g><g id="elem_user2"><polygon fill="none" points="190.625,54.1667,190.625,54.3856,201.5063,53.7351,212.3876,54.368,223.269,54.583,234.1503,53.4235,245.0316,54.0857,255.9129,53.7224,266.7942,53.7672,277.6756,54.0957,288.5569,53.4465,299.4382,54.7434,310.3195,54.1667,310.2358,53.9645,310.8825,54.3473,311.5554,54.7934,312.0759,54.8714,312.6856,55.1649,313.2658,55.3871,313.2555,55.3828,313.5671,56,313.8307,56.5973,314.1859,57.2326,314.4574,57.8332,314.4862,58.3333,315.1937,58.3333,314.7514,69.1092,314.9691,79.8851,315.2177,90.661,313.735,101.4369,315.193,112.2128,314.1773,122.9887,314.4862,133.7646,314.6574,133.8356,314.0833,134.2881,313.9761,134.9341,313.9919,135.631,313.4942,136.1152,313.2658,136.7109,313.2798,136.7447,312.7215,137.0636,312.1426,137.3326,311.4975,137.4419,310.9469,137.7794,310.3195,137.9313,310.3195,137.335,299.4382,138.2276,288.5569,138.5024,277.6756,138.3944,266.7942,138.5699,255.9129,137.4281,245.0316,137.252,234.1503,137.284,223.269,137.87,212.3876,137.7266,201.5063,138.6411,190.625,137.9313,190.6018,137.8753,189.9902,137.5772,189.4768,137.5164,188.7686,136.9852,188.199,136.7885,187.6787,136.7109,187.8869,136.7972,187.5744,136.1796,187.4262,135.63,186.8433,134.9004,186.8048,134.3963,186.4583,133.7646,187.0734,133.7646,185.9662,122.9887,186.3585,112.2128,186.5896,101.4369,187.1372,90.661,186.454,79.8851,186.9402,69.1092,186.4583,58.3333,186.2807,58.2597,186.4852,57.6541,187.108,57.2217,186.9606,56.4703,187.5979,56.0439,187.6787,55.3871,187.7062,55.4533,188.2324,55.057,188.8102,54.7854,189.5074,54.802,189.996,54.3147,190.625,54.1667" style="stroke:#333333;stroke-width:1.0417;"/><text fill="#2E2E2E" font-family="Segoe Print" font-size="11.4583" lengthAdjust="spacing" textLength="32.2825" x="234.331" y="72.0942">user2</text><path d="M187.5,82.0882 L187.5,82.3801 L197.9954,81.5128 L208.4908,82.3567 L218.9861,82.6433 L229.4815,81.0974 L239.9769,81.9803 L250.4723,81.4959 L260.9676,81.5556 L271.463,81.9936 L281.9584,81.128 L292.4538,82.8572 L302.9491,81.2128 L313.4445,82.0882 " fill="none" style="stroke:#333333;stroke-width:1.0417;"/><text fill="#2E2E2E" font-family="Segoe Print" font-size="11.4583" lengthAdjust="spacing" textLength="105.1112" x="197.9167" y="102.0991">name = "Dummy"</text><text fill="#2E2E2E" font-family="Segoe Print" font-size="11.4583" lengthAdjust="spacing" textLength="49.2126" x="197.9167" y="125.854">id = 123</text></g><g id="elem_o1"><polygon fill="none" points="338.0208,73.4375,338.0208,73.5105,344.2143,73.2936,350.4077,73.5046,356.6012,73.5763,362.7946,73.1898,368.988,73.4375,368.9777,73.4126,369.5206,73.5448,370.1156,73.8026,370.7467,74.1479,371.2532,74.192,371.9343,74.6579,372.1119,74.7315,371.9762,75.1634,372.359,75.8101,372.8051,76.4831,372.8831,77.0035,373.1547,77.6042,373.1784,77.6042,373.1436,84.8551,373.2167,92.1061,373.2377,99.3571,373.3581,106.6081,373.1547,113.859,373.37,113.9482,373.1285,114.5386,372.7482,115.0714,372.5712,115.6884,372.4037,116.3094,371.9343,116.8053,371.8385,116.574,371.4352,117.2671,370.7164,117.1984,370.2375,117.7088,369.5115,117.6228,368.988,118.0257,368.988,118.0019,362.7946,118.2832,356.6012,118.0088,350.4077,118.0623,344.2143,118.1433,338.0208,118.0257,338.0761,118.1592,337.4311,117.7804,336.8805,117.6297,336.177,117.1099,335.7016,117.1406,335.0746,116.8053,335.2504,116.8782,334.9731,116.2751,334.7831,115.7083,334.1874,114.9734,333.889,114.3616,333.8542,113.859,333.6384,113.859,333.8337,106.6081,333.7859,99.3571,334.0908,92.1061,333.7935,84.8551,333.8542,77.6042,333.7441,77.5586,334.1715,77.0452,334.1284,76.337,334.4199,75.7674,335.0387,75.3334,335.0746,74.6579,335.1324,74.7976,335.7614,74.6494,336.2103,74.0665,336.8847,74.0281,337.51,73.871,338.0208,73.4375" style="stroke:#333333;stroke-width:1.0417;"/><text fill="#2E2E2E" font-family="Segoe Print" font-size="11.4583" lengthAdjust="spacing" textLength="14.3005" x="346.3542" y="91.3651">o1</text><path d="M334.8958,101.359 L334.8958,101.4564 L342.3393,101.1672 L349.7827,101.4485 L357.2262,101.5441 L364.6696,101.0288 L372.113,101.359 " fill="none" style="stroke:#333333;stroke-width:1.0417;"/></g><g id="elem_o2"><polygon fill="none" points="396.3542,73.4375,396.3542,73.5105,402.5476,73.2936,408.741,73.5046,414.9345,73.5763,421.1279,73.1898,427.3214,73.4375,427.311,73.4126,427.854,73.5448,428.4489,73.8026,429.0801,74.1479,429.5865,74.192,430.2676,74.6579,430.4453,74.7315,430.3095,75.1634,430.6924,75.8101,431.1384,76.4831,431.2164,77.0035,431.488,77.6042,431.5117,77.6042,431.4769,84.8551,431.55,92.1061,431.5711,99.3571,431.6914,106.6081,431.488,113.859,431.7033,113.9482,431.4619,114.5386,431.0816,115.0714,430.9045,115.6884,430.737,116.3094,430.2676,116.8053,430.1718,116.574,429.7686,117.2671,429.0497,117.1984,428.5708,117.7088,427.8448,117.6228,427.3214,118.0257,427.3214,118.0019,421.1279,118.2832,414.9345,118.0088,408.741,118.0623,402.5476,118.1433,396.3542,118.0257,396.4095,118.1592,395.7644,117.7804,395.2138,117.6297,394.5103,117.1099,394.0349,117.1406,393.4079,116.8053,393.5837,116.8782,393.3064,116.2751,393.1164,115.7083,392.5207,114.9734,392.2224,114.3616,392.1875,113.859,391.9717,113.859,392.1671,106.6081,392.1193,99.3571,392.4241,92.1061,392.1268,84.8551,392.1875,77.6042,392.0775,77.5586,392.5048,77.0452,392.4617,76.337,392.7532,75.7674,393.372,75.3334,393.4079,74.6579,393.4658,74.7976,394.0947,74.6494,394.5436,74.0665,395.2181,74.0281,395.8434,73.871,396.3542,73.4375" style="stroke:#333333;stroke-width:1.0417;"/><text fill="#2E2E2E" font-family="Segoe Print" font-size="11.4583" lengthAdjust="spacing" textLength="14.3005" x="404.6875" y="91.3651">o2</text><path d="M393.2292,101.359 L393.2292,101.4564 L400.6726,101.1672 L408.116,101.4485 L415.5595,101.5441 L423.0029,101.0288 L430.4464,101.359 " fill="none" style="stroke:#333333;stroke-width:1.0417;"/></g><g id="elem_dia"><polygon fill="none" points="382.8125,280.2083,382.8641,280.2599,385.2108,282.6066,387.86,285.2558,390.4106,287.8065,392.6373,290.0332,395.3125,292.7083,395.2934,292.6893,392.7078,295.1036,390.2183,297.6142,387.7958,300.1916,385.1428,302.5386,382.8125,305.2083,382.9484,305.3443,380.1578,302.5536,377.7639,300.1598,375.4186,297.8144,372.7914,295.1873,370.3125,292.7083,370.3293,292.7251,372.8047,290.2005,375.3563,287.7522,377.8712,285.267,380.4563,282.8521,382.8125,280.2083" style="stroke:#4D4D4D;stroke-width:1.0417;"/></g><g id="elem_o3"><polygon fill="none" points="367.1875,389.5833,367.1875,389.6563,373.3809,389.4395,379.5744,389.6504,385.7678,389.7221,391.9613,389.3356,398.1547,389.5833,398.1444,389.5584,398.6873,389.6906,399.2823,389.9485,399.9134,390.2937,400.4199,390.3379,401.101,390.8037,401.2786,390.8773,401.1429,391.3092,401.5257,391.956,401.9718,392.6289,402.0498,393.1493,402.3214,393.75,402.3451,393.75,402.3103,401.001,402.3834,408.252,402.4044,415.5029,402.5247,422.7539,402.3214,430.0049,402.5366,430.094,402.2952,430.6844,401.9149,431.2172,401.7379,431.8342,401.5703,432.4552,401.101,432.9512,401.0052,432.7198,400.6019,433.4129,399.8831,433.3442,399.4041,433.8546,398.6782,433.7687,398.1547,434.1715,398.1547,434.1478,391.9613,434.4291,385.7678,434.1546,379.5744,434.2081,373.3809,434.2891,367.1875,434.1715,367.2428,434.3051,366.5977,433.9262,366.0472,433.7755,365.3437,433.2557,364.8683,433.2865,364.2412,432.9512,364.4171,433.024,364.1397,432.421,363.9497,431.8541,363.354,431.1192,363.0557,430.5075,363.0208,430.0049,362.8051,430.0049,363.0004,422.7539,362.9526,415.5029,363.2574,408.252,362.9602,401.001,363.0208,393.75,362.9108,393.7044,363.3381,393.1911,363.2951,392.4829,363.5865,391.9133,364.2053,391.4792,364.2412,390.8037,364.2991,390.9435,364.9281,390.7953,365.377,390.2123,366.0514,390.1739,366.6767,390.0168,367.1875,389.5833" style="stroke:#333333;stroke-width:1.0417;"/><text fill="#2E2E2E" font-family="Segoe Print" font-size="11.4583" lengthAdjust="spacing" textLength="14.3005" x="375.5208" y="407.5109">o3</text><path d="M364.0625,417.5049 L364.0625,417.6022 L371.5059,417.3131 L378.9494,417.5944 L386.3928,417.6899 L393.8363,417.1746 L401.2797,417.5049 " fill="none" style="stroke:#333333;stroke-width:1.0417;"/></g><g id="elem_London"><polygon fill="none" points="213.5417,270.3125,213.5417,270.5314,223.3532,269.8809,233.1646,270.5138,242.9761,270.7288,252.7876,269.5694,262.5991,270.2315,272.4106,270.3125,272.3539,270.1757,272.9489,270.4336,273.58,270.7788,274.0865,270.8229,274.8412,271.4664,275.3569,271.5329,275.1547,271.4491,275.5375,272.0959,275.9836,272.7688,276.0616,273.2893,276.3551,273.899,276.5773,274.4792,276.5662,274.4792,276.6392,281.7301,276.6603,288.9811,276.7806,296.2321,276.8103,303.4831,276.5773,310.734,276.7952,310.8243,276.4149,311.3571,276.2378,311.9742,276.0703,312.5951,275.3696,312.9952,275.3569,313.6803,275.447,313.898,274.7282,313.8293,274.2493,314.3397,273.5233,314.2538,272.9907,314.6347,272.4106,314.9007,272.4106,315.6732,262.5991,314.85,252.7876,315.0104,242.9761,315.2535,233.1646,315.3343,223.3532,314.8966,213.5417,314.9007,213.5798,314.9929,212.8764,314.473,212.4009,314.5038,211.8467,314.3443,211.2437,314.067,210.5954,313.6803,210.792,313.7618,210.1963,313.0269,209.898,312.4152,209.6638,311.83,209.6002,311.3155,209.375,310.734,209.3068,310.734,209.6116,303.4831,209.3143,296.2321,209.2559,288.9811,209.4543,281.7301,209.375,274.4792,209.1611,274.3906,209.4525,273.8209,210.0713,273.3869,210.247,272.7693,210.5869,272.2197,210.5954,271.5329,210.5526,271.4297,211.2271,271.3912,211.8524,271.2341,212.3004,270.6491,212.9397,270.5258,213.5417,270.3125" style="stroke:#333333;stroke-width:1.0417;"/><text fill="#2E2E2E" font-family="Segoe Print" font-size="11.4583" lengthAdjust="spacing" textLength="42.2023" x="221.875" y="288.2401">London</text><path d="M210.4167,298.234 L210.4167,298.526 L221.2698,297.6586 L232.123,298.5025 L242.9761,298.7892 L253.8293,297.2432 L264.6824,298.1261 L275.5356,298.234 " fill="none" style="stroke:#333333;stroke-width:1.0417;"/></g><g id="elem_CapitalCity"><polygon fill="none" points="20.8333,234.375,20.8333,234.5939,31.1621,233.9434,41.4909,234.5763,51.8197,234.7913,62.1485,233.6319,72.4773,234.294,82.8061,233.9307,93.1349,233.9755,103.4637,234.304,113.7925,233.6548,124.1213,234.9517,134.4501,233.7185,144.779,234.169,155.1078,234.8249,165.4366,234.2856,175.7654,234.4461,186.0942,234.375,186.0899,234.3648,186.7071,234.6763,187.3044,234.9399,187.9397,235.2951,188.5403,235.5666,189.0404,235.5954,189.2583,235.6856,189.3662,236.2185,189.6773,236.8355,189.9979,237.4565,189.7854,237.8566,190.2608,238.5417,190.9676,238.5417,189.952,249.362,190.8169,260.1823,189.7452,271.0026,190.1895,281.8229,191.0333,292.6432,190.2101,303.4635,190.3705,314.2839,190.6136,325.1042,190.6944,335.9245,190.2608,346.7448,190.2596,346.7443,190.1089,347.3722,189.589,347.8472,189.6198,348.5503,189.4604,349.1747,189.0404,349.6911,189.0995,349.8337,188.5326,350.1318,187.7977,350.0243,187.186,350.2141,186.6008,350.468,186.0942,350.9115,186.0942,350.8501,175.7654,350.7067,165.4366,351.6213,155.1078,350.7295,144.779,350.5541,134.4501,351.1492,124.1213,350.2168,113.7925,350.3707,103.4637,351.5874,93.1349,351.3653,82.8061,351.6766,72.4773,350.5763,62.1485,351.244,51.8197,351.5265,41.4909,350.4194,31.1621,350.8116,20.8333,350.9115,20.8501,350.9519,20.3307,350.8765,19.6543,350.422,19.127,350.3276,18.4027,349.7575,17.8871,349.6911,17.6698,349.6011,17.8045,349.1687,17.1689,348.4173,17.3181,347.9909,16.977,347.3615,16.6667,346.7448,16.3876,346.7448,16.2982,335.9245,17.1445,325.1042,16.3549,314.2839,17.2832,303.4635,16.0909,292.6432,17.3098,281.8229,17.1711,271.0026,16.9218,260.1823,16.7159,249.362,16.6667,238.5417,16.8998,238.6382,17.1076,238.0339,17.2091,237.3856,17.4849,236.8095,17.6012,236.1673,17.8871,235.5954,17.9823,235.8252,18.4969,235.401,19.0885,235.1626,19.574,234.668,20.1902,234.4891,20.8333,234.375" style="stroke:#2E2E2E;stroke-width:1.0417;"/><text fill="#2E2E2E" font-family="Segoe Print" font-size="12.5" lengthAdjust="spacing" textLength="68.3289" x="69.2993" y="253.2694">CapitalCity</text><path d="M16.6667,263.5091 L16.6667,263.801 L26.8781,262.9337 L37.0895,263.7776 L47.3009,264.0642 L57.5124,262.5183 L67.7238,263.4012 L77.9352,262.9168 L88.1466,262.9765 L98.358,263.4145 L108.5695,262.5489 L118.7809,264.2781 L128.9923,262.6337 L139.2037,263.2344 L149.4151,264.109 L159.6266,263.39 L169.838,263.6039 L180.0494,263.4647 L190.2608,263.5091 " fill="none" style="stroke:#2E2E2E;stroke-width:1.0417;"/><text fill="#2E2E2E" font-family="Segoe Print" font-size="12.5" lengthAdjust="spacing" textLength="17.3462" x="94.7906" y="282.4036">UK</text><path d="M16.6667,292.6432 L16.6667,292.9351 L26.8781,292.0678 L37.0895,292.9117 L47.3009,293.1983 L57.5124,291.6524 L67.7238,292.5353 L77.9352,292.0509 L88.1466,292.1106 L98.358,292.5486 L108.5695,291.683 L118.7809,293.4122 L128.9923,291.7678 L139.2037,292.3686 L149.4151,293.2432 L159.6266,292.5241 L169.838,292.738 L180.0494,292.5989 L190.2608,292.6432 " fill="none" style="stroke:#2E2E2E;stroke-width:1.0417;"/><text fill="#2E2E2E" font-family="Segoe Print" font-size="12.5" lengthAdjust="spacing" textLength="25.6348" x="43.102" y="311.5377">USA</text><text fill="#2E2E2E" font-family="Segoe Print" font-size="12.5" lengthAdjust="spacing" textLength="74.2554" x="105.5888" y="311.5377">Washington</text><path d="M95.1721,292.6432 L95.2694,292.6432 L94.9803,298.4701 L95.2616,304.2969 L95.3572,310.1237 L94.8418,315.9505 L95.1721,321.7773 " fill="none" style="stroke:#2E2E2E;stroke-width:1.0417;"/><path d="M16.6667,321.7773 L16.6667,322.0693 L26.8781,321.2019 L37.0895,322.0458 L47.3009,322.3325 L57.5124,320.7865 L67.7238,321.6694 L77.9352,321.185 L88.1466,321.2447 L98.358,321.6827 L108.5695,320.8171 L118.7809,322.5463 L128.9923,320.902 L139.2037,321.5027 L149.4151,322.3773 L159.6266,321.6582 L169.838,321.8721 L180.0494,321.733 L190.2608,321.7773 " fill="none" style="stroke:#2E2E2E;stroke-width:1.0417;"/><text fill="#2E2E2E" font-family="Segoe Print" font-size="12.5" lengthAdjust="spacing" textLength="57.6721" x="27.0833" y="340.6718">Germany</text><text fill="#2E2E2E" font-family="Segoe Print" font-size="12.5" lengthAdjust="spacing" textLength="36.2732" x="105.5888" y="340.6718">Berlin</text><path d="M95.1721,321.7773 L95.2694,321.7773 L94.9803,327.6042 L95.2616,333.431 L95.3572,339.2578 L94.8418,345.0846 L95.1721,350.9115 " fill="none" style="stroke:#2E2E2E;stroke-width:1.0417;"/></g><polygon fill="none" points="454.6875,22.9167,454.6875,23.1356,464.9117,22.4851,475.1359,23.118,485.3601,23.333,495.5843,22.1735,505.8085,22.8357,516.0327,22.4724,526.2569,22.5172,536.4811,22.8457,546.7053,22.1965,556.9295,22.9167,557.0031,23.0943,557.435,22.9586,558.0818,23.3414,558.7547,23.7875,559.2751,23.8655,559.8758,24.1371,559.8977,24.1461,560.1096,24.7221,560.4212,25.3393,560.6847,25.9366,561.04,26.5719,561.0962,27.0833,561.7952,27.0833,561.8038,37.6477,561.3614,48.2121,561.5791,58.7765,561.8277,69.3409,560.345,79.9053,561.803,90.4698,560.7873,101.0342,561.6522,111.5986,560.5805,122.163,561.0248,132.7274,561.8687,143.2918,561.0454,153.8562,561.0962,164.4206,561.13,164.4346,560.9607,165.0548,560.7416,165.6544,560.3627,166.1878,560.212,166.8158,559.8758,167.3669,559.7997,167.1832,559.3243,167.7022,558.7701,168.0309,558.1671,168.2417,557.6002,168.5398,556.9295,168.5872,556.9295,168.084,546.7053,167.9079,536.4811,167.9399,526.2569,168.5259,516.0327,168.3825,505.8085,169.297,495.5843,168.4053,485.3601,168.2299,475.1359,168.825,464.9117,167.8926,454.6875,168.5872,454.6185,168.4207,454.1845,168.5513,453.5669,168.2388,453.0173,168.0906,452.2877,167.5077,451.7412,167.3669,451.8436,167.4093,451.6865,166.856,451.1015,166.1256,450.9782,165.5863,450.8053,165.0266,450.5208,164.4206,451.1997,164.4206,450.5165,153.8562,451.0027,143.2918,449.944,132.7274,449.8154,122.163,451.0454,111.5986,449.774,101.0342,451.051,90.4698,450.7361,79.9053,450.2418,69.3409,450.1523,58.7765,450.9987,48.2121,450.209,37.6477,450.5208,27.0833,450.7107,27.162,450.5876,26.4206,451.2071,25.9869,451.4084,25.3799,451.5757,24.7589,451.7412,24.1371,451.7475,24.1522,452.427,24.1261,453.0013,23.8457,453.5315,23.4591,454.1339,23.2468,454.6875,22.9167" style="stroke:#2E2E2E;stroke-width:1.0417;"/><text fill="#2E2E2E" font-family="Segoe Print" font-size="12.5" lengthAdjust="spacing" textLength="25.5554" x="493.0308" y="41.8111">json</text><path d="M502.1342,52.0508 L502.4261,52.0508 L501.5588,62.645 L502.4026,73.2392 L502.6893,83.8335 L501.1434,94.4277 L502.0263,105.0219 L501.5418,115.6161 L501.6016,126.2103 L502.0395,136.8046 L501.174,147.3988 L502.9031,157.993 L502.1342,168.5872 " fill="none" style="stroke:#2E2E2E;stroke-width:1.0417;"/><path d="M450.5208,52.0508 L450.5208,52.3427 L460.5731,51.4753 L470.6254,52.3192 L480.6777,52.6059 L490.7301,51.06 L500.7824,51.9428 L510.8347,51.4584 L520.887,51.5181 L530.9393,51.9561 L540.9916,51.0905 L551.0439,52.8197 L561.0962,52.0508 " fill="none" style="stroke:#2E2E2E;stroke-width:1.0417;"/><text fill="#2E2E2E" font-family="Segoe Print" font-size="12.5" lengthAdjust="spacing" textLength="25.8362" x="460.9375" y="70.9452">fruit</text><text fill="#2E2E2E" font-family="Segoe Print" font-size="12.5" lengthAdjust="spacing" textLength="35.5835" x="512.5509" y="70.9452">Apple</text><path d="M450.5208,81.1849 L450.5208,81.4768 L460.5731,80.6095 L470.6254,81.4533 L480.6777,81.74 L490.7301,80.1941 L500.7824,81.077 L510.8347,80.5925 L520.887,80.6523 L530.9393,81.0902 L540.9916,80.2247 L551.0439,81.9538 L561.0962,81.1849 " fill="none" style="stroke:#2E2E2E;stroke-width:1.0417;"/><text fill="#2E2E2E" font-family="Segoe Print" font-size="12.5" lengthAdjust="spacing" textLength="24.2371" x="460.9375" y="100.0793">size</text><text fill="#2E2E2E" font-family="Segoe Print" font-size="12.5" lengthAdjust="spacing" textLength="35.3882" x="512.5509" y="100.0793">Large</text><path d="M450.5208,110.319 L450.5208,110.6109 L460.5731,109.7436 L470.6254,110.5875 L480.6777,110.8741 L490.7301,109.3282 L500.7824,110.2111 L510.8347,109.7267 L520.887,109.7864 L530.9393,110.2243 L540.9916,109.3588 L551.0439,111.088 L561.0962,110.319 " fill="none" style="stroke:#2E2E2E;stroke-width:1.0417;"/><text fill="#2E2E2E" font-family="Segoe Print" font-size="12.5" lengthAdjust="spacing" textLength="30.78" x="460.9375" y="129.2135">color</text><text fill="#2E2E2E" font-family="Segoe Print" font-size="12.5" lengthAdjust="spacing" textLength="24.3103" x="512.5509" y="129.2135">Red</text><path d="M502.1342,139.4531 L502.1342,139.745 L511.9612,138.8777 L521.7882,139.7216 L531.6152,140.0082 L541.4422,138.4623 L551.2692,139.3452 L561.0962,139.4531 " fill="none" style="stroke:#2E2E2E;stroke-width:1.0417;"/><text fill="#2E2E2E" font-family="Segoe Print" font-size="12.5" lengthAdjust="spacing" textLength="38.1287" x="512.5509" y="158.3476">Green</text><polygon fill="#333333" points="381.0699,280.0288,381.1403,280.0483,381.4778,278.0128,382.2276,276.0912,382.8432,274.1326,383.0171,272.0519,383.8024,270.1402,383.7807,270.1241,382.9826,270.9997,382.2938,271.9561,381.6811,272.9687,380.8064,273.7876,380.2987,274.8779,380.413,275.0325,379.221,274.0012,378.3627,273.4212,377.5452,272.8963,376.4908,272.051,375.5609,271.3742,375.5809,271.3869,376.6534,273.0992,377.8168,274.8693,378.9364,276.6116,380.1397,278.4071,381.0699,280.0288" style="stroke:#333333;stroke-width:1.0417;"/><path d="M356.8786,118.4654 L357.1673,118.5086 L357.8606,128.739 L360.2462,139.2228 L362.0808,149.624 L362.1029,159.7539 L364.5271,170.2435 L365.5991,180.5306 L367.2092,190.8983 L369.1934,201.3219 L369.8885,211.5526 L373.1496,222.1675 L373.0745,232.2828 L375.2196,242.7306 L377.6356,253.2189 L378.4755,263.4713 L380.1444,273.8477 " fill="none" style="stroke:#333333;stroke-width:3.125;"/><polygon fill="#333333" points="384.5551,280.0288,384.6166,280.068,385.5355,278.2206,386.8153,276.603,387.9775,274.9106,388.7533,272.9721,390.0641,271.3742,390.048,271.3525,389.0285,271.9559,388.0898,272.6686,387.2073,273.4574,386.1311,273.9841,385.3263,274.8779,385.4809,274.9922,384.4496,273.8002,383.8696,272.942,383.3447,272.1244,382.4994,271.07,381.8226,270.1402,381.8454,270.1465,382.3584,272.1149,382.9753,274.1121,383.5421,276.0955,384.2046,278.1053,384.5551,280.0288" style="stroke:#333333;stroke-width:1.0417;"/><path d="M408.7464,118.4654 L409.0351,118.5086 L406.6262,128.739 L405.9098,139.2228 L404.6422,149.624 L401.5623,159.7539 L400.8844,170.2435 L398.8542,180.5306 L397.3622,190.8983 L396.2443,201.3219 L393.8373,211.5526 L393.9963,222.1675 L390.8191,232.2828 L389.8621,242.7306 L389.176,253.2189 L386.9138,263.4713 L385.4806,273.8477 " fill="none" style="stroke:#333333;stroke-width:3.125;"/><text fill="#2E2E2E" font-family="Segoe Print" font-size="12.5" lengthAdjust="spacing" textLength="7.9529" x="371.0134" y="271.8399">1</text><text fill="#2E2E2E" font-family="Segoe Print" font-size="12.5" lengthAdjust="spacing" textLength="7.9529" x="395.2047" y="136.3182">1</text><polygon fill="#333333" points="382.8125,389.4392,382.8792,389.4689,383.5144,387.5058,384.5405,385.7165,385.4393,383.8706,385.9195,381.8386,386.9792,380.0642,386.9601,380.0452,386.0411,380.7929,385.2183,381.6368,384.4624,382.5475,383.4761,383.2278,382.8125,384.2309,382.9484,384.3668,381.8244,383.2428,381.0973,382.5157,380.4186,381.837,379.4581,380.8765,378.6458,380.0642,378.6675,380.0739,379.469,381.9347,380.3691,383.8394,381.2217,385.723,382.165,387.6468,382.8125,389.4392" style="stroke:#333333;stroke-width:1.0417;"/><path d="M382.8125,305.4148 L383.1044,305.4148 L382.2371,316.5254 L383.081,327.6361 L383.3676,338.7467 L381.8217,349.8573 L382.7046,360.968 L382.2201,372.0786 L382.8125,383.1892 " fill="none" style="stroke:#333333;stroke-width:3.125;"/><polygon fill="#333333" points="209.2875,292.7083,209.3172,292.775,207.3541,291.7435,205.5648,291.103,203.7189,290.3351,201.6869,289.1486,199.9125,288.5417,199.8934,288.5226,200.6411,289.2703,201.485,290.1142,202.3958,291.0249,203.0761,291.7053,204.0792,292.7083,204.2151,292.8443,203.0911,293.3869,202.364,294.3264,201.6852,295.3144,200.7248,296.0206,199.9125,296.875,199.9221,296.8967,201.783,296.0315,203.6877,295.265,205.5712,294.4509,207.4951,293.7275,209.2875,292.7083" style="stroke:#333333;stroke-width:1.0417;"/><path d="M190.8854,292.7083 L190.8854,292.8056 L193.3158,292.5165 L195.7463,292.7978 L198.1767,292.8934 L200.6071,292.3781 L203.0375,292.7083 " fill="none" style="stroke:#333333;stroke-width:3.125;"/><polygon fill="#333333" points="103.6458,234.263,103.7125,234.2926,104.3477,232.3295,105.3738,230.5402,106.2726,228.6943,106.7528,226.6624,107.8125,224.888,107.7934,224.8689,106.8745,225.6166,106.0517,226.4605,105.2958,227.3712,104.3094,228.0515,103.6458,229.0546,103.7818,229.1906,102.6578,228.0665,101.9306,227.3394,101.2519,226.6607,100.2914,225.7002,99.4792,224.888,99.5008,224.8976,100.3024,226.7585,101.2025,228.6631,102.055,230.5467,102.9983,232.4706,103.6458,234.263" style="stroke:#333333;stroke-width:1.0417;"/><path d="M103.6458,137.7097 L103.9378,137.7097 L103.0704,147.7434 L103.9143,157.7771 L104.2009,167.8108 L102.655,177.8445 L103.5379,187.8782 L103.0535,197.9119 L103.1132,207.9456 L103.5512,217.9793 L103.6458,228.013 " fill="none" style="stroke:#333333;stroke-width:3.125;"/><text fill="#2E2E2E" font-family="Segoe Print" font-size="12.5" lengthAdjust="spacing" textLength="32.2693" x="110.9375" y="206.3944">visits</text></g></svg>