<svg xmlns="http://www.w3.org/2000/svg" xmlns:xlink="http://www.w3.org/1999/xlink" contentStyleType="text/css" height="328px" preserveAspectRatio="none" style="width:538px;height:328px;background:#F9F9F9;" version="1.1" viewBox="0 0 538 328" width="538px" zoomAndPan="magnify"><defs/><g><rect fill="#F9F9F9" height="328" style="stroke:none;stroke-width:1;" width="538" x="0" y="0"/><g id="elem_user1"><rect fill="#F1F1F1" height="60.8906" rx="3.5" ry="3.5" style="stroke:#181818;stroke-width:0.5;" width="140.4268" x="20" y="32"/><text fill="#000000" font-family="sans-serif" font-size="14" lengthAdjust="spacing" textLength="39.4434" x="70.4917" y="46.9951">user1</text><line style="stroke:#181818;stroke-width:0.5;" x1="21" x2="159.4268" y1="52.2969" y2="52.2969"/><text fill="#000000" font-family="sans-serif" font-size="14" lengthAdjust="spacing" textLength="128.4268" x="26" y="69.292">name = "Dummy"</text><text fill="#000000" font-family="sans-serif" font-size="14" lengthAdjust="spacing" textLength="60.1289" x="26" y="85.5889">id = 123</text></g><g id="elem_user2"><rect fill="#F1F1F1" height="60.8906" rx="3.5" ry="3.5" style="stroke:#181818;stroke-width:0.5;" width="140.4268" x="178" y="32"/><text fill="#000000" font-family="sans-serif" font-size="14" lengthAdjust="spacing" textLength="39.4434" x="228.4917" y="46.9951">user2</text><line style="stroke:#181818;stroke-width:0.5;" x1="179" x2="317.4268" y1="52.2969" y2="52.2969"/><text fill="#000000" font-family="sans-serif" font-size="14" lengthAdjust="spacing" textLength="128.4268" x="184" y="69.292">name = "Dummy"</text><text fill="#000000" font-family="sans-serif" font-size="14" lengthAdjust="spacing" textLength="60.1289" x="184" y="85.5889">id = 123</text></g><g id="elem_o1"><rect fill="#F1F1F1" height="36.2969" rx="3.5" ry="3.5" style="stroke:#181818;stroke-width:0.5;" width="31.4727" x="336.5" y="44.5"/><text fill="#000000" font-family="sans-serif" font-size="14" lengthAdjust="spacing" textLength="17.4727" x="343.5" y="59.4951">o1</text><line style="stroke:#181818;stroke-width:0.5;" x1="337.5" x2="366.9727" y1="64.7969" y2="64.7969"/></g><g id="elem_o2"><rect fill="#F1F1F1" height="36.2969" rx="3.5" ry="3.5" style="stroke:#181818;stroke-width:0.5;" width="31.4727" x="385.5" y="44.5"/><text fill="#000000" font-family="sans-serif" font-size="14" lengthAdjust="spacing" textLength="17.4727" x="392.5" y="59.4951">o2</text><line style="stroke:#181818;stroke-width:0.5;" x1="386.5" x2="415.9727" y1="64.7969" y2="64.7969"/></g><g id="elem_dia"><polygon fill="#F1F1F1" points="377,196.5,389,208.5,377,220.5,365,208.5,377,196.5" style="stroke:#181818;stroke-width:0.5;"/></g><g id="elem_o3"><rect fill="#F1F1F1" height="36.2969" rx="3.5" ry="3.5" style="stroke:#181818;stroke-width:0.5;" width="31.4727" x="361.5" y="286"/><text fill="#000000" font-family="sans-serif" font-size="14" lengthAdjust="spacing" textLength="17.4727" x="368.5" y="300.9951">o3</text><line style="stroke:#181818;stroke-width:0.5;" x1="362.5" x2="391.9727" y1="306.2969" y2="306.2969"/></g><g id="elem_London"><rect fill="#F1F1F1" height="36.2969" rx="3.5" ry="3.5" style="stroke:#181818;stroke-width:0.5;" width="65.5635" x="192" y="190.5"/><text fill="#000000" font-family="sans-serif" font-size="14" lengthAdjust="spacing" textLength="51.5635" x="199" y="205.4951">London</text><line style="stroke:#181818;stroke-width:0.5;" x1="193" x2="256.5635" y1="210.7969" y2="210.7969"/></g><g id="elem_CapitalCity"><rect fill="#F1F1F1" height="81.1875" rx="3.5" ry="3.5" style="stroke:#181818;stroke-width:0.5;" width="167.7588" x="6" y="168"/><text fill="#000000" font-family="sans-serif" font-size="14" lengthAdjust="spacing" textLength="76.5283" x="51.6152" y="182.9951">CapitalCity</text><line style="stroke:#181818;stroke-width:1;" x1="6" x2="173.7588" y1="188.2969" y2="188.2969"/><text fill="#000000" font-family="sans-serif" font-size="14" lengthAdjust="spacing" textLength="19.4277" x="80.1655" y="203.292">UK</text><line style="stroke:#181818;stroke-width:1;" x1="6" x2="173.7588" y1="208.5938" y2="208.5938"/><text fill="#000000" font-family="sans-serif" font-size="14" lengthAdjust="spacing" textLength="28.7109" x="28.9409" y="223.5889">USA</text><text fill="#000000" font-family="sans-serif" font-size="14" lengthAdjust="spacing" textLength="83.166" x="85.5928" y="223.5889">Washington</text><line style="stroke:#181818;stroke-width:1;" x1="80.5928" x2="80.5928" y1="208.5938" y2="228.8906"/><line style="stroke:#181818;stroke-width:1;" x1="6" x2="173.7588" y1="228.8906" y2="228.8906"/><text fill="#000000" font-family="sans-serif" font-size="14" lengthAdjust="spacing" textLength="64.5928" x="11" y="243.8857">Germany</text><text fill="#000000" font-family="sans-serif" font-size="14" lengthAdjust="spacing" textLength="40.626" x="85.5928" y="243.8857">Berlin</text><line style="stroke:#181818;stroke-width:1;" x1="80.5928" x2="80.5928" y1="228.8906" y2="249.1875"/></g><rect fill="#F1F1F1" height="101.4844" rx="3.5" ry="3.5" style="stroke:#181818;stroke-width:0.5;" width="97.1777" x="434.5" y="12"/><text fill="#000000" font-family="sans-serif" font-size="14" lengthAdjust="spacing" textLength="28.6221" x="468.7778" y="26.9951">json</text><line style="stroke:#181818;stroke-width:1;" x1="478.9736" x2="478.9736" y1="32.2969" y2="113.4844"/><line style="stroke:#181818;stroke-width:1;" x1="434.5" x2="531.6777" y1="32.2969" y2="32.2969"/><text fill="#000000" font-family="sans-serif" font-size="14" lengthAdjust="spacing" textLength="28.9365" x="439.5" y="47.292">fruit</text><text fill="#000000" font-family="sans-serif" font-size="14" lengthAdjust="spacing" textLength="39.8535" x="483.9736" y="47.292">Apple</text><line style="stroke:#181818;stroke-width:1;" x1="434.5" x2="531.6777" y1="52.5938" y2="52.5938"/><text fill="#000000" font-family="sans-serif" font-size="14" lengthAdjust="spacing" textLength="27.1455" x="439.5" y="67.5889">size</text><text fill="#000000" font-family="sans-serif" font-size="14" lengthAdjust="spacing" textLength="39.6348" x="483.9736" y="67.5889">Large</text><line style="stroke:#181818;stroke-width:1;" x1="434.5" x2="531.6777" y1="72.8906" y2="72.8906"/><text fill="#000000" font-family="sans-serif" font-size="14" lengthAdjust="spacing" textLength="34.4736" x="439.5" y="87.8857">color</text><text fill="#000000" font-family="sans-serif" font-size="14" lengthAdjust="spacing" textLength="27.2275" x="483.9736" y="87.8857">Red</text><line style="stroke:#181818;stroke-width:1;" x1="478.9736" x2="531.6777" y1="93.1875" y2="93.1875"/><text fill="#000000" font-family="sans-serif" font-size="14" lengthAdjust="spacing" textLength="42.7041" x="483.9736" y="108.1826">Green</text><polygon fill="#191919" points="375.0409,196.2156,377.4425,186.664,374.1856,191.2893,369.5604,188.0324,375.0409,196.2156" style="stroke:#191919;stroke-width:1;"/><path d="M354.966,80.5842 C360.1396,110.3842 369.6516,165.1734 374.0146,190.304 " fill="none" style="stroke:#191919;stroke-width:1;"/><polygon fill="#191919" points="378.8807,196.2156,384.3059,187.9956,379.7027,191.2836,376.4148,186.6804,378.8807,196.2156" style="stroke:#191919;stroke-width:1;"/><path d="M398.1526,80.5842 C393.186,110.3842 384.0556,165.1666 379.8671,190.2972 " fill="none" style="stroke:#191919;stroke-width:1;"/><text fill="#000000" font-family="sans-serif" font-size="13" lengthAdjust="spacing" textLength="8.271" x="369.8807" y="192.2825">1</text><text fill="#000000" font-family="sans-serif" font-size="13" lengthAdjust="spacing" textLength="8.271" x="389.1526" y="93.6511">1</text><polygon fill="#191919" points="377,285.9034,381,276.9034,377,280.9034,373,276.9034,377,285.9034" style="stroke:#191919;stroke-width:1;"/><path d="M377,220.5928 C377,236.7496 377,260.8954 377,279.9034 " fill="none" style="stroke:#191919;stroke-width:1;"/><polygon fill="#191919" points="191.6043,208.5,182.6043,204.5,186.6043,208.5,182.6043,212.5,191.6043,208.5" style="stroke:#191919;stroke-width:1;"/><path d="M174.1113,208.5 C179.9423,208.5 179.7733,208.5 185.6043,208.5 " fill="none" style="stroke:#191919;stroke-width:1;"/><polygon fill="#191919" points="90,167.8626,94,158.8626,90,162.8626,86,158.8626,90,167.8626" style="stroke:#191919;stroke-width:1;"/><path d="M90,93.3369 C90,114.9204 90,138.3089 90,161.8626 " fill="none" style="stroke:#191919;stroke-width:1;"/><text fill="#000000" font-family="sans-serif" font-size="13" lengthAdjust="spacing" textLength="33.5601" x="92" y="145.0669">visits</text></g></svg>