<svg xmlns="http://www.w3.org/2000/svg" xmlns:xlink="http://www.w3.org/1999/xlink" contentStyleType="text/css" data-diagram-type="PACKET" height="185.4167px" preserveAspectRatio="none" style="width:765px;height:185px;background:#FDF6E3;" version="1.1" viewBox="0 0 765 185" width="765.625px" zoomAndPan="magnify"><?plantuml 1.2026.5beta1?><defs/><g><rect fill="#FDF6E3" height="185.4167" style="stroke:none;stroke-width:1.0417;" width="765.625" x="0" y="0"/><text fill="#000000" font-family="Dejavu Serif" font-size="14.5833" lengthAdjust="spacing" textLength="9.2784" x="5.7775" y="23.9532">0</text><path d="M10.4167,27.3926 L10.4167,60.7259" fill="none" style="stroke:#181818;stroke-width:0.5208;"/><path d="M54.1667,44.0592 L54.1667,60.7259" fill="none" style="stroke:#181818;stroke-width:0.5208;"/><text fill="#000000" font-family="Dejavu Serif" font-size="14.5833" lengthAdjust="spacing" textLength="9.2784" x="93.2775" y="40.6199">2</text><path d="M97.9167,44.0592 L97.9167,60.7259" fill="none" style="stroke:#181818;stroke-width:0.5208;"/><path d="M141.6667,44.0592 L141.6667,60.7259" fill="none" style="stroke:#181818;stroke-width:0.5208;"/><text fill="#000000" font-family="Dejavu Serif" font-size="14.5833" lengthAdjust="spacing" textLength="9.2784" x="180.7775" y="23.9532">4</text><path d="M185.4167,27.3926 L185.4167,60.7259" fill="none" style="stroke:#181818;stroke-width:0.5208;"/><path d="M229.1667,44.0592 L229.1667,60.7259" fill="none" style="stroke:#181818;stroke-width:0.5208;"/><text fill="#000000" font-family="Dejavu Serif" font-size="14.5833" lengthAdjust="spacing" textLength="9.2784" x="268.2775" y="40.6199">6</text><path d="M272.9167,44.0592 L272.9167,60.7259" fill="none" style="stroke:#181818;stroke-width:0.5208;"/><path d="M316.6667,44.0592 L316.6667,60.7259" fill="none" style="stroke:#181818;stroke-width:0.5208;"/><text fill="#000000" font-family="Dejavu Serif" font-size="14.5833" lengthAdjust="spacing" textLength="9.2784" x="355.7775" y="23.9532">8</text><path d="M360.4167,27.3926 L360.4167,60.7259" fill="none" style="stroke:#181818;stroke-width:0.5208;"/><path d="M404.1667,44.0592 L404.1667,60.7259" fill="none" style="stroke:#181818;stroke-width:0.5208;"/><text fill="#000000" font-family="Dejavu Serif" font-size="14.5833" lengthAdjust="spacing" textLength="18.5567" x="438.6383" y="40.6199">10</text><path d="M447.9167,44.0592 L447.9167,60.7259" fill="none" style="stroke:#181818;stroke-width:0.5208;"/><path d="M491.6667,44.0592 L491.6667,60.7259" fill="none" style="stroke:#181818;stroke-width:0.5208;"/><text fill="#000000" font-family="Dejavu Serif" font-size="14.5833" lengthAdjust="spacing" textLength="18.5567" x="526.1383" y="23.9532">12</text><path d="M535.4167,27.3926 L535.4167,60.7259" fill="none" style="stroke:#181818;stroke-width:0.5208;"/><path d="M579.1667,44.0592 L579.1667,60.7259" fill="none" style="stroke:#181818;stroke-width:0.5208;"/><text fill="#000000" font-family="Dejavu Serif" font-size="14.5833" lengthAdjust="spacing" textLength="18.5567" x="613.6383" y="40.6199">14</text><path d="M622.9167,44.0592 L622.9167,60.7259" fill="none" style="stroke:#181818;stroke-width:0.5208;"/><path d="M666.6667,44.0592 L666.6667,60.7259" fill="none" style="stroke:#181818;stroke-width:0.5208;"/><text fill="#000000" font-family="Dejavu Serif" font-size="14.5833" lengthAdjust="spacing" textLength="18.5567" x="701.1383" y="23.9532">16</text><path d="M710.4167,27.3926 L710.4167,60.7259" fill="none" style="stroke:#181818;stroke-width:0.5208;"/><rect fill="#C2F0FF" height="37.8092" rx="7.8125" ry="7.8125" style="stroke:#268BD2;stroke-width:2.0833;" width="350" x="10.4167" y="60.7259"/><text fill="#000000" font-family="Dejavu Serif" font-size="14.5833" lengthAdjust="spacing" textLength="87.9913" x="141.421" y="84.6792">Source Port</text><rect fill="#C2F0FF" height="37.8092" rx="7.8125" ry="7.8125" style="stroke:#268BD2;stroke-width:2.0833;" width="350" x="360.4167" y="60.7259"/><text fill="#000000" font-family="Dejavu Serif" font-size="14.5833" lengthAdjust="spacing" textLength="121.1741" x="474.8296" y="84.6792">Destination Port</text><rect fill="#C2F0FF" height="37.8092" rx="7.8125" ry="7.8125" style="stroke:#268BD2;stroke-width:2.0833;" width="700" x="10.4167" y="98.5352"/><text fill="#000000" font-family="Dejavu Serif" font-size="14.5833" lengthAdjust="spacing" textLength="137.7228" x="291.5553" y="122.4884">Sequence Number</text><rect fill="#C2F0FF" height="37.8092" rx="7.8125" ry="7.8125" style="stroke:#268BD2;stroke-width:2.0833;" width="700" x="10.4167" y="136.3444"/><text fill="#000000" font-family="Dejavu Serif" font-size="14.5833" lengthAdjust="spacing" textLength="193.4214" x="263.706" y="160.2976">Acknowledgment Number</text></g></svg>