<svg xmlns="http://www.w3.org/2000/svg" xmlns:xlink="http://www.w3.org/1999/xlink" contentStyleType="text/css" height="201.0417px" preserveAspectRatio="none" style="width:792px;height:201px;" version="1.1" viewBox="0 0 792 201" width="792.7083px" zoomAndPan="magnify"><title>How title is parsed by PlantUML?</title><defs><linearGradient id="g15cur9b2z45ju0" x1="50%" x2="50%" y1="0%" y2="100%"><stop offset="0%" stop-color="#FFFFFF"/><stop offset="100%" stop-color="#EEEEEE"/></linearGradient></defs><g><rect fill="url(#g15cur9b2z45ju0)" height="45.0846" id="_title" rx="4.1667" ry="4.1667" style="stroke:#EEEEEE;stroke-width:1.0416666666666667;" width="409.4137" x="190.9866" y="15.625"/><text fill="#0972D3" font-family="Verdana" font-size="20.8333" font-weight="bold" lengthAdjust="spacing" textLength="388.5803" x="201.4033" y="45.3796">How title is parsed by PlantUML?</text><line style="stroke:#000000;stroke-width:1.0416666666666667;" x1="10.4167" x2="10.4167" y1="109.8226" y2="109.8226"/><rect fill="#F1F1F1" height="27.3926" rx="5.2083" ry="5.2083" style="stroke:#181818;stroke-width:1.5625;" width="22.6359" x="10.4167" y="96.1263"/><text fill="#000000" font-family="sans-serif" font-size="14.5833" lengthAdjust="spacing" textLength="12.2192" x="15.625" y="114.8712">^</text><line style="stroke:#000000;stroke-width:1.0416666666666667;" x1="33.0526" x2="53.8859" y1="109.8226" y2="109.8226"/><rect fill="none" height="27.3926" style="stroke:#181818;stroke-width:0.5208333333333334;" width="38.9282" x="53.8859" y="96.1263"/><text fill="#000000" font-family="sans-serif" font-size="14.5833" lengthAdjust="spacing" textLength="28.5116" x="59.0942" y="114.8712">title</text><line style="stroke:#000000;stroke-width:1.0416666666666667;" x1="92.8141" x2="113.6475" y1="109.8226" y2="109.8226"/><line style="stroke:#000000;stroke-width:1.0416666666666667;" x1="138.6475" x2="138.6475" y1="109.8226" y2="109.8226"/><path d="M146.9808,101.4893 C146.9808,107.7393 144.8975,109.8226 138.6475,109.8226 " fill="none" style="stroke:#000000;stroke-width:1.0416666666666667;"/><line style="stroke:#000000;stroke-width:1.0416666666666667;" x1="146.9808" x2="146.9808" y1="80.5013" y2="101.4893"/><path d="M146.9808,80.5013 C146.9808,74.2513 149.0641,72.168 155.3141,72.168 " fill="none" style="stroke:#000000;stroke-width:1.0416666666666667;"/><line style="stroke:#000000;stroke-width:1.0416666666666667;" x1="155.3141" x2="216.3523" y1="72.168" y2="72.168"/><path d="M177.6461,72.168 L177.6461,69.043 L183.8961,72.168 L177.6461,75.293 L177.6461,72.168 " fill="#000000" style="stroke:#000000;stroke-width:1.0416666666666667;"/><path d="M224.6857,101.4893 C224.6857,107.7393 226.769,109.8226 233.019,109.8226 " fill="none" style="stroke:#000000;stroke-width:1.0416666666666667;"/><line style="stroke:#000000;stroke-width:1.0416666666666667;" x1="224.6857" x2="224.6857" y1="80.5013" y2="101.4893"/><path d="M216.3523,72.168 C222.6023,72.168 224.6857,74.2513 224.6857,80.5013 " fill="none" style="stroke:#000000;stroke-width:1.0416666666666667;"/><line style="stroke:#000000;stroke-width:1.0416666666666667;" x1="138.6475" x2="154.2725" y1="109.8226" y2="109.8226"/><line style="stroke:#000000;stroke-width:1.0416666666666667;" x1="217.394" x2="233.019" y1="109.8226" y2="109.8226"/><path d="M162.6058,101.4893 C162.6058,107.7393 164.6891,109.8226 170.9391,109.8226 " fill="none" style="stroke:#000000;stroke-width:1.0416666666666667;"/><line style="stroke:#000000;stroke-width:1.0416666666666667;" x1="162.6058" x2="162.6058" y1="97.168" y2="101.4893"/><path d="M162.6058,97.168 C162.6058,90.918 164.6891,88.8346 170.9391,88.8346 " fill="none" style="stroke:#000000;stroke-width:1.0416666666666667;"/><line style="stroke:#000000;stroke-width:1.0416666666666667;" x1="169.8975" x2="201.769" y1="88.8346" y2="88.8346"/><path d="M186.9371,88.8346 L186.9371,85.7096 L180.6871,88.8346 L186.9371,91.9596 L186.9371,88.8346 " fill="#000000" style="stroke:#000000;stroke-width:1.0416666666666667;"/><path d="M209.0607,101.4893 C209.0607,107.7393 206.9773,109.8226 200.7273,109.8226 " fill="none" style="stroke:#000000;stroke-width:1.0416666666666667;"/><line style="stroke:#000000;stroke-width:1.0416666666666667;" x1="209.0607" x2="209.0607" y1="97.168" y2="101.4893"/><path d="M200.7273,88.8346 C206.9773,88.8346 209.0607,90.918 209.0607,97.168 " fill="none" style="stroke:#000000;stroke-width:1.0416666666666667;"/><line style="stroke:#000000;stroke-width:1.0416666666666667;" x1="154.2725" x2="169.8975" y1="109.8226" y2="109.8226"/><line style="stroke:#000000;stroke-width:1.0416666666666667;" x1="201.769" x2="217.394" y1="109.8226" y2="109.8226"/><rect fill="none" height="27.3926" style="stroke:#181818;stroke-width:1.0416666666666667;stroke-dasharray:5.0,5.0;" width="31.8715" x="169.8975" y="96.1263"/><text fill="#000000" font-family="sans-serif" font-size="14.5833" lengthAdjust="spacing" textLength="21.4549" x="175.1058" y="114.8712">%s</text><line style="stroke:#000000;stroke-width:1.0416666666666667;" x1="233.019" x2="253.8523" y1="109.8226" y2="109.8226"/><rect fill="none" height="27.3926" style="stroke:#181818;stroke-width:0.5208333333333334;" width="15.33" x="253.8523" y="96.1263"/><text fill="#000000" font-family="sans-serif" font-size="14.5833" lengthAdjust="spacing" textLength="4.9133" x="259.0607" y="114.8712">:</text><line style="stroke:#000000;stroke-width:1.0416666666666667;" x1="269.1823" x2="290.0157" y1="109.8226" y2="109.8226"/><path d="M298.349,101.4893 C298.349,107.7393 296.2657,109.8226 290.0157,109.8226 " fill="none" style="stroke:#000000;stroke-width:1.0416666666666667;"/><line style="stroke:#000000;stroke-width:1.0416666666666667;" x1="298.349" x2="298.349" y1="80.5013" y2="101.4893"/><path d="M298.349,80.5013 C298.349,74.2513 300.4323,72.168 306.6823,72.168 " fill="none" style="stroke:#000000;stroke-width:1.0416666666666667;"/><line style="stroke:#000000;stroke-width:1.0416666666666667;" x1="306.6823" x2="367.7205" y1="72.168" y2="72.168"/><path d="M329.0143,72.168 L329.0143,69.043 L335.2643,72.168 L329.0143,75.293 L329.0143,72.168 " fill="#000000" style="stroke:#000000;stroke-width:1.0416666666666667;"/><path d="M376.0539,101.4893 C376.0539,107.7393 378.1372,109.8226 384.3872,109.8226 " fill="none" style="stroke:#000000;stroke-width:1.0416666666666667;"/><line style="stroke:#000000;stroke-width:1.0416666666666667;" x1="376.0539" x2="376.0539" y1="80.5013" y2="101.4893"/><path d="M367.7205,72.168 C373.9705,72.168 376.0539,74.2513 376.0539,80.5013 " fill="none" style="stroke:#000000;stroke-width:1.0416666666666667;"/><line style="stroke:#000000;stroke-width:1.0416666666666667;" x1="290.0157" x2="305.6407" y1="109.8226" y2="109.8226"/><line style="stroke:#000000;stroke-width:1.0416666666666667;" x1="368.7622" x2="384.3872" y1="109.8226" y2="109.8226"/><path d="M313.974,101.4893 C313.974,107.7393 316.0573,109.8226 322.3073,109.8226 " fill="none" style="stroke:#000000;stroke-width:1.0416666666666667;"/><line style="stroke:#000000;stroke-width:1.0416666666666667;" x1="313.974" x2="313.974" y1="97.168" y2="101.4893"/><path d="M313.974,97.168 C313.974,90.918 316.0573,88.8346 322.3073,88.8346 " fill="none" style="stroke:#000000;stroke-width:1.0416666666666667;"/><line style="stroke:#000000;stroke-width:1.0416666666666667;" x1="321.2657" x2="353.1372" y1="88.8346" y2="88.8346"/><path d="M338.3053,88.8346 L338.3053,85.7096 L332.0553,88.8346 L338.3053,91.9596 L338.3053,88.8346 " fill="#000000" style="stroke:#000000;stroke-width:1.0416666666666667;"/><path d="M360.4289,101.4893 C360.4289,107.7393 358.3455,109.8226 352.0955,109.8226 " fill="none" style="stroke:#000000;stroke-width:1.0416666666666667;"/><line style="stroke:#000000;stroke-width:1.0416666666666667;" x1="360.4289" x2="360.4289" y1="97.168" y2="101.4893"/><path d="M352.0955,88.8346 C358.3455,88.8346 360.4289,90.918 360.4289,97.168 " fill="none" style="stroke:#000000;stroke-width:1.0416666666666667;"/><line style="stroke:#000000;stroke-width:1.0416666666666667;" x1="305.6407" x2="321.2657" y1="109.8226" y2="109.8226"/><line style="stroke:#000000;stroke-width:1.0416666666666667;" x1="353.1372" x2="368.7622" y1="109.8226" y2="109.8226"/><rect fill="none" height="27.3926" style="stroke:#181818;stroke-width:1.0416666666666667;stroke-dasharray:5.0,5.0;" width="31.8715" x="321.2657" y="96.1263"/><text fill="#000000" font-family="sans-serif" font-size="14.5833" lengthAdjust="spacing" textLength="21.4549" x="326.474" y="114.8712">%s</text><line style="stroke:#000000;stroke-width:1.0416666666666667;" x1="113.6475" x2="138.6475" y1="109.8226" y2="109.8226"/><line style="stroke:#000000;stroke-width:1.0416666666666667;" x1="384.3872" x2="409.3872" y1="109.8226" y2="109.8226"/><path d="M146.9808,151.7985 C146.9808,158.0485 149.0641,160.1318 155.3141,160.1318 " fill="none" style="stroke:#000000;stroke-width:1.0416666666666667;"/><line style="stroke:#000000;stroke-width:1.0416666666666667;" x1="146.9808" x2="146.9808" y1="147.4772" y2="151.7985"/><path d="M146.9808,147.4772 C146.9808,141.2272 149.0641,139.1439 155.3141,139.1439 " fill="none" style="stroke:#000000;stroke-width:1.0416666666666667;"/><line style="stroke:#000000;stroke-width:1.0416666666666667;" x1="154.2725" x2="186.144" y1="139.1439" y2="139.1439"/><path d="M171.3121,139.1439 L171.3121,136.0189 L165.0621,139.1439 L171.3121,142.2689 L171.3121,139.1439 " fill="#000000" style="stroke:#000000;stroke-width:1.0416666666666667;"/><path d="M193.4357,151.7985 C193.4357,158.0485 191.3523,160.1318 185.1023,160.1318 " fill="none" style="stroke:#000000;stroke-width:1.0416666666666667;"/><line style="stroke:#000000;stroke-width:1.0416666666666667;" x1="193.4357" x2="193.4357" y1="147.4772" y2="151.7985"/><path d="M185.1023,139.1439 C191.3523,139.1439 193.4357,141.2272 193.4357,147.4772 " fill="none" style="stroke:#000000;stroke-width:1.0416666666666667;"/><line style="stroke:#000000;stroke-width:1.0416666666666667;" x1="138.6475" x2="154.2725" y1="160.1318" y2="160.1318"/><line style="stroke:#000000;stroke-width:1.0416666666666667;" x1="186.144" x2="201.769" y1="160.1318" y2="160.1318"/><rect fill="none" height="27.3926" style="stroke:#181818;stroke-width:1.0416666666666667;stroke-dasharray:5.0,5.0;" width="31.8715" x="154.2725" y="146.4355"/><text fill="#000000" font-family="sans-serif" font-size="14.5833" lengthAdjust="spacing" textLength="21.4549" x="159.4808" y="165.1805">%s</text><line style="stroke:#000000;stroke-width:1.0416666666666667;" x1="201.769" x2="384.3872" y1="160.1318" y2="160.1318"/><path d="M290.9948,160.1318 L290.9948,157.0068 L297.2448,160.1318 L290.9948,163.2568 L290.9948,160.1318 " fill="#000000" style="stroke:#000000;stroke-width:1.0416666666666667;"/><path d="M126.1475,147.6318 C126.1475,157.0068 129.2725,160.1318 138.6475,160.1318 " fill="none" style="stroke:#000000;stroke-width:1.0416666666666667;"/><line style="stroke:#000000;stroke-width:1.0416666666666667;" x1="126.1475" x2="126.1475" y1="122.3226" y2="147.6318"/><path d="M113.6475,109.8226 C123.0225,109.8226 126.1475,112.9476 126.1475,122.3226 " fill="none" style="stroke:#000000;stroke-width:1.0416666666666667;"/><path d="M396.8872,147.6318 C396.8872,157.0068 393.7622,160.1318 384.3872,160.1318 " fill="none" style="stroke:#000000;stroke-width:1.0416666666666667;"/><line style="stroke:#000000;stroke-width:1.0416666666666667;" x1="396.8872" x2="396.8872" y1="122.3226" y2="147.6318"/><path d="M396.8872,122.3226 C396.8872,112.9476 400.0122,109.8226 409.3872,109.8226 " fill="none" style="stroke:#000000;stroke-width:1.0416666666666667;"/><line style="stroke:#000000;stroke-width:1.0416666666666667;" x1="409.3872" x2="430.2205" y1="109.8226" y2="109.8226"/><line style="stroke:#000000;stroke-width:1.0416666666666667;" x1="455.2205" x2="455.2205" y1="109.8226" y2="109.8226"/><rect fill="none" height="27.3926" style="stroke:#181818;stroke-width:1.0416666666666667;stroke-dasharray:5.0,5.0;" width="33.5307" x="455.2205" y="96.1263"/><text fill="#000000" font-family="sans-serif" font-size="14.5833" lengthAdjust="spacing" textLength="23.114" x="460.4289" y="114.8712">%g</text><line style="stroke:#000000;stroke-width:1.0416666666666667;" x1="488.7512" x2="509.5846" y1="109.8226" y2="109.8226"/><path d="M517.9179,101.4893 C517.9179,107.7393 515.8346,109.8226 509.5846,109.8226 " fill="none" style="stroke:#000000;stroke-width:1.0416666666666667;"/><line style="stroke:#000000;stroke-width:1.0416666666666667;" x1="517.9179" x2="517.9179" y1="80.5013" y2="101.4893"/><path d="M517.9179,80.5013 C517.9179,74.2513 520.0012,72.168 526.2512,72.168 " fill="none" style="stroke:#000000;stroke-width:1.0416666666666667;"/><line style="stroke:#000000;stroke-width:1.0416666666666667;" x1="526.2512" x2="570.4702" y1="72.168" y2="72.168"/><path d="M541.8555,72.168 L541.8555,69.043 L548.1055,72.168 L541.8555,75.293 L541.8555,72.168 " fill="#000000" style="stroke:#000000;stroke-width:1.0416666666666667;"/><path d="M578.8035,101.4893 C578.8035,107.7393 580.8868,109.8226 587.1368,109.8226 " fill="none" style="stroke:#000000;stroke-width:1.0416666666666667;"/><line style="stroke:#000000;stroke-width:1.0416666666666667;" x1="578.8035" x2="578.8035" y1="80.5013" y2="101.4893"/><path d="M570.4702,72.168 C576.7202,72.168 578.8035,74.2513 578.8035,80.5013 " fill="none" style="stroke:#000000;stroke-width:1.0416666666666667;"/><line style="stroke:#000000;stroke-width:1.0416666666666667;" x1="509.5846" x2="525.2096" y1="109.8226" y2="109.8226"/><line style="stroke:#000000;stroke-width:1.0416666666666667;" x1="571.5118" x2="587.1368" y1="109.8226" y2="109.8226"/><path d="M533.5429,101.4893 C533.5429,107.7393 535.6262,109.8226 541.8762,109.8226 " fill="none" style="stroke:#000000;stroke-width:1.0416666666666667;"/><line style="stroke:#000000;stroke-width:1.0416666666666667;" x1="533.5429" x2="533.5429" y1="97.168" y2="101.4893"/><path d="M533.5429,97.168 C533.5429,90.918 535.6262,88.8346 541.8762,88.8346 " fill="none" style="stroke:#000000;stroke-width:1.0416666666666667;"/><line style="stroke:#000000;stroke-width:1.0416666666666667;" x1="540.8346" x2="555.8868" y1="88.8346" y2="88.8346"/><path d="M547.7826,88.8346 L547.7826,85.7096 L541.5326,88.8346 L547.7826,91.9596 L547.7826,88.8346 " fill="#000000" style="stroke:#000000;stroke-width:1.0416666666666667;"/><path d="M563.1785,101.4893 C563.1785,107.7393 561.0952,109.8226 554.8452,109.8226 " fill="none" style="stroke:#000000;stroke-width:1.0416666666666667;"/><line style="stroke:#000000;stroke-width:1.0416666666666667;" x1="563.1785" x2="563.1785" y1="97.168" y2="101.4893"/><path d="M554.8452,88.8346 C561.0952,88.8346 563.1785,90.918 563.1785,97.168 " fill="none" style="stroke:#000000;stroke-width:1.0416666666666667;"/><line style="stroke:#000000;stroke-width:1.0416666666666667;" x1="525.2096" x2="540.8346" y1="109.8226" y2="109.8226"/><line style="stroke:#000000;stroke-width:1.0416666666666667;" x1="555.8868" x2="571.5118" y1="109.8226" y2="109.8226"/><rect fill="#F1F1F1" height="27.3926" rx="5.2083" ry="5.2083" style="stroke:#181818;stroke-width:1.5625;" width="15.0523" x="540.8346" y="96.1263"/><text fill="#000000" font-family="sans-serif" font-size="14.5833" lengthAdjust="spacing" textLength="4.6356" x="546.0429" y="114.8712">.</text><line style="stroke:#000000;stroke-width:1.0416666666666667;" x1="587.1368" x2="607.9702" y1="109.8226" y2="109.8226"/><rect fill="none" height="27.3926" style="stroke:#181818;stroke-width:1.0416666666666667;stroke-dasharray:5.0,5.0;" width="33.5307" x="607.9702" y="96.1263"/><text fill="#000000" font-family="sans-serif" font-size="14.5833" lengthAdjust="spacing" textLength="23.114" x="613.1785" y="114.8712">%g</text><line style="stroke:#000000;stroke-width:1.0416666666666667;" x1="430.2205" x2="455.2205" y1="109.8226" y2="109.8226"/><line style="stroke:#000000;stroke-width:1.0416666666666667;" x1="641.5009" x2="741.4836" y1="109.8226" y2="109.8226"/><line style="stroke:#000000;stroke-width:1.0416666666666667;" x1="455.2205" x2="455.2205" y1="176.7985" y2="176.7985"/><path d="M463.5539,168.4652 C463.5539,174.7152 461.4705,176.7985 455.2205,176.7985 " fill="none" style="stroke:#000000;stroke-width:1.0416666666666667;"/><line style="stroke:#000000;stroke-width:1.0416666666666667;" x1="463.5539" x2="463.5539" y1="147.4772" y2="168.4652"/><path d="M463.5539,147.4772 C463.5539,141.2272 465.6372,139.1439 471.8872,139.1439 " fill="none" style="stroke:#000000;stroke-width:1.0416666666666667;"/><line style="stroke:#000000;stroke-width:1.0416666666666667;" x1="471.8872" x2="516.1062" y1="139.1439" y2="139.1439"/><path d="M487.4915,139.1439 L487.4915,136.0189 L493.7415,139.1439 L487.4915,142.2689 L487.4915,139.1439 " fill="#000000" style="stroke:#000000;stroke-width:1.0416666666666667;"/><path d="M524.4395,168.4652 C524.4395,174.7152 526.5228,176.7985 532.7728,176.7985 " fill="none" style="stroke:#000000;stroke-width:1.0416666666666667;"/><line style="stroke:#000000;stroke-width:1.0416666666666667;" x1="524.4395" x2="524.4395" y1="147.4772" y2="168.4652"/><path d="M516.1062,139.1439 C522.3562,139.1439 524.4395,141.2272 524.4395,147.4772 " fill="none" style="stroke:#000000;stroke-width:1.0416666666666667;"/><line style="stroke:#000000;stroke-width:1.0416666666666667;" x1="455.2205" x2="470.8455" y1="176.7985" y2="176.7985"/><line style="stroke:#000000;stroke-width:1.0416666666666667;" x1="517.1478" x2="532.7728" y1="176.7985" y2="176.7985"/><path d="M479.1789,168.4652 C479.1789,174.7152 481.2622,176.7985 487.5122,176.7985 " fill="none" style="stroke:#000000;stroke-width:1.0416666666666667;"/><line style="stroke:#000000;stroke-width:1.0416666666666667;" x1="479.1789" x2="479.1789" y1="164.1439" y2="168.4652"/><path d="M479.1789,164.1439 C479.1789,157.8939 481.2622,155.8105 487.5122,155.8105 " fill="none" style="stroke:#000000;stroke-width:1.0416666666666667;"/><line style="stroke:#000000;stroke-width:1.0416666666666667;" x1="486.4705" x2="501.5228" y1="155.8105" y2="155.8105"/><path d="M493.4186,155.8105 L493.4186,152.6855 L487.1686,155.8105 L493.4186,158.9355 L493.4186,155.8105 " fill="#000000" style="stroke:#000000;stroke-width:1.0416666666666667;"/><path d="M508.8145,168.4652 C508.8145,174.7152 506.7312,176.7985 500.4812,176.7985 " fill="none" style="stroke:#000000;stroke-width:1.0416666666666667;"/><line style="stroke:#000000;stroke-width:1.0416666666666667;" x1="508.8145" x2="508.8145" y1="164.1439" y2="168.4652"/><path d="M500.4812,155.8105 C506.7312,155.8105 508.8145,157.8939 508.8145,164.1439 " fill="none" style="stroke:#000000;stroke-width:1.0416666666666667;"/><line style="stroke:#000000;stroke-width:1.0416666666666667;" x1="470.8455" x2="486.4705" y1="176.7985" y2="176.7985"/><line style="stroke:#000000;stroke-width:1.0416666666666667;" x1="501.5228" x2="517.1478" y1="176.7985" y2="176.7985"/><rect fill="#F1F1F1" height="27.3926" rx="5.2083" ry="5.2083" style="stroke:#181818;stroke-width:1.5625;" width="15.0523" x="486.4705" y="163.1022"/><text fill="#000000" font-family="sans-serif" font-size="14.5833" lengthAdjust="spacing" textLength="4.6356" x="491.6789" y="181.8471">.</text><line style="stroke:#000000;stroke-width:1.0416666666666667;" x1="532.7728" x2="553.6062" y1="176.7985" y2="176.7985"/><rect fill="none" height="27.3926" style="stroke:#181818;stroke-width:1.0416666666666667;stroke-dasharray:5.0,5.0;" width="64.4918" x="553.6062" y="163.1022"/><text fill="#000000" font-family="sans-serif" font-size="14.5833" lengthAdjust="spacing" textLength="54.0751" x="558.8145" y="181.8471">%pLN_.</text><line style="stroke:#000000;stroke-width:1.0416666666666667;" x1="618.0979" x2="638.9313" y1="176.7985" y2="176.7985"/><path d="M647.2646,168.4652 C647.2646,174.7152 645.1813,176.7985 638.9313,176.7985 " fill="none" style="stroke:#000000;stroke-width:1.0416666666666667;"/><line style="stroke:#000000;stroke-width:1.0416666666666667;" x1="647.2646" x2="647.2646" y1="147.4772" y2="168.4652"/><path d="M647.2646,147.4772 C647.2646,141.2272 649.3479,139.1439 655.5979,139.1439 " fill="none" style="stroke:#000000;stroke-width:1.0416666666666667;"/><line style="stroke:#000000;stroke-width:1.0416666666666667;" x1="655.5979" x2="699.8169" y1="139.1439" y2="139.1439"/><path d="M671.2022,139.1439 L671.2022,136.0189 L677.4522,139.1439 L671.2022,142.2689 L671.2022,139.1439 " fill="#000000" style="stroke:#000000;stroke-width:1.0416666666666667;"/><path d="M708.1502,168.4652 C708.1502,174.7152 710.2336,176.7985 716.4836,176.7985 " fill="none" style="stroke:#000000;stroke-width:1.0416666666666667;"/><line style="stroke:#000000;stroke-width:1.0416666666666667;" x1="708.1502" x2="708.1502" y1="147.4772" y2="168.4652"/><path d="M699.8169,139.1439 C706.0669,139.1439 708.1502,141.2272 708.1502,147.4772 " fill="none" style="stroke:#000000;stroke-width:1.0416666666666667;"/><line style="stroke:#000000;stroke-width:1.0416666666666667;" x1="638.9313" x2="654.5563" y1="176.7985" y2="176.7985"/><line style="stroke:#000000;stroke-width:1.0416666666666667;" x1="700.8586" x2="716.4836" y1="176.7985" y2="176.7985"/><path d="M662.8896,168.4652 C662.8896,174.7152 664.9729,176.7985 671.2229,176.7985 " fill="none" style="stroke:#000000;stroke-width:1.0416666666666667;"/><line style="stroke:#000000;stroke-width:1.0416666666666667;" x1="662.8896" x2="662.8896" y1="164.1439" y2="168.4652"/><path d="M662.8896,164.1439 C662.8896,157.8939 664.9729,155.8105 671.2229,155.8105 " fill="none" style="stroke:#000000;stroke-width:1.0416666666666667;"/><line style="stroke:#000000;stroke-width:1.0416666666666667;" x1="670.1813" x2="685.2336" y1="155.8105" y2="155.8105"/><path d="M677.1293,155.8105 L677.1293,152.6855 L670.8793,155.8105 L677.1293,158.9355 L677.1293,155.8105 " fill="#000000" style="stroke:#000000;stroke-width:1.0416666666666667;"/><path d="M692.5252,168.4652 C692.5252,174.7152 690.4419,176.7985 684.1919,176.7985 " fill="none" style="stroke:#000000;stroke-width:1.0416666666666667;"/><line style="stroke:#000000;stroke-width:1.0416666666666667;" x1="692.5252" x2="692.5252" y1="164.1439" y2="168.4652"/><path d="M684.1919,155.8105 C690.4419,155.8105 692.5252,157.8939 692.5252,164.1439 " fill="none" style="stroke:#000000;stroke-width:1.0416666666666667;"/><line style="stroke:#000000;stroke-width:1.0416666666666667;" x1="654.5563" x2="670.1813" y1="176.7985" y2="176.7985"/><line style="stroke:#000000;stroke-width:1.0416666666666667;" x1="685.2336" x2="700.8586" y1="176.7985" y2="176.7985"/><rect fill="#F1F1F1" height="27.3926" rx="5.2083" ry="5.2083" style="stroke:#181818;stroke-width:1.5625;" width="15.0523" x="670.1813" y="163.1022"/><text fill="#000000" font-family="sans-serif" font-size="14.5833" lengthAdjust="spacing" textLength="4.6356" x="675.3896" y="181.8471">.</text><line style="stroke:#000000;stroke-width:1.0416666666666667;" x1="716.4836" x2="716.4836" y1="176.7985" y2="176.7985"/><path d="M442.7205,164.2985 C442.7205,173.6735 445.8455,176.7985 455.2205,176.7985 " fill="none" style="stroke:#000000;stroke-width:1.0416666666666667;"/><line style="stroke:#000000;stroke-width:1.0416666666666667;" x1="442.7205" x2="442.7205" y1="122.3226" y2="164.2985"/><path d="M430.2205,109.8226 C439.5955,109.8226 442.7205,112.9476 442.7205,122.3226 " fill="none" style="stroke:#000000;stroke-width:1.0416666666666667;"/><path d="M728.9836,164.2985 C728.9836,173.6735 725.8586,176.7985 716.4836,176.7985 " fill="none" style="stroke:#000000;stroke-width:1.0416666666666667;"/><line style="stroke:#000000;stroke-width:1.0416666666666667;" x1="728.9836" x2="728.9836" y1="122.3226" y2="164.2985"/><path d="M728.9836,122.3226 C728.9836,112.9476 732.1086,109.8226 741.4836,109.8226 " fill="none" style="stroke:#000000;stroke-width:1.0416666666666667;"/><line style="stroke:#000000;stroke-width:1.0416666666666667;" x1="741.4836" x2="762.3169" y1="109.8226" y2="109.8226"/><rect fill="#F1F1F1" height="27.3926" rx="5.2083" ry="5.2083" style="stroke:#181818;stroke-width:1.5625;" width="19.695" x="762.3169" y="96.1263"/><text fill="#000000" font-family="sans-serif" font-size="14.5833" lengthAdjust="spacing" textLength="9.2784" x="767.5252" y="114.8712">$</text></g></svg>