<svg xmlns="http://www.w3.org/2000/svg" xmlns:xlink="http://www.w3.org/1999/xlink" contentStyleType="text/css" data-diagram-type="REGEX" height="247px" preserveAspectRatio="none" style="width:790px;height:247px;" version="1.1" viewBox="0 0 790 247" width="790px" zoomAndPan="magnify"><?plantuml 1.2026.5beta1?><defs/><g><g class="title" data-source-line="6"><text fill="#262626" font-family="'IBM Plex Sans, Noto Sans, Verdana'" font-size="20" font-weight="700" lengthAdjust="spacing" textLength="373.0371" x="207.7485" y="38.5645">How title is parsed by PlantUML?</text></g><line style="stroke:#181818;stroke-width:1;" x1="15" x2="15" y1="75.5781" y2="75.5781"/><rect fill="#F1F1F1" height="26.2969" rx="5" ry="5" style="stroke:#181818;stroke-width:1.5;" width="21.7305" x="15" y="62.4297"/><text fill="#000000" font-family="sans-serif" font-size="14" lengthAdjust="spacing" textLength="11.7305" x="20" y="80.4248">^</text><line style="stroke:#181818;stroke-width:1;" x1="36.7305" x2="56.7305" y1="75.5781" y2="75.5781"/><rect fill="none" height="26.2969" style="stroke:#181818;stroke-width:0.5;" width="37.3711" x="56.7305" y="62.4297"/><text fill="#000000" font-family="sans-serif" font-size="14" lengthAdjust="spacing" textLength="27.3711" x="61.7305" y="80.4248">title</text><line style="stroke:#181818;stroke-width:1;" x1="94.1016" x2="114.1016" y1="75.5781" y2="75.5781"/><line style="stroke:#181818;stroke-width:1;" x1="138.1016" x2="138.1016" y1="75.5781" y2="75.5781"/><line style="stroke:#181818;stroke-width:1;" x1="138.1016" x2="239.4043" y1="75.5781" y2="75.5781"/><path d="M176.6227,75.5781 L176.6227,72.5781 L182.6227,75.5781 L176.6227,78.5781 L176.6227,75.5781" fill="#181818"/><path d="M138.1016,75.5781 C147.1016,75.5781 150.1016,85.7266 150.1016,94.7266 C150.1016,103.7266 153.1016,113.875 162.1016,113.875" fill="none" style="stroke:#181818;stroke-width:1;"/><path d="M215.4043,113.875 C224.4043,113.875 227.4043,103.7266 227.4043,94.7266 C227.4043,85.7266 230.4043,75.5781 239.4043,75.5781" fill="none" style="stroke:#181818;stroke-width:1;"/><path d="M170.1016,105.875 C170.1016,111.875 172.1016,113.875 178.1016,113.875" fill="none" style="stroke:#181818;stroke-width:1;"/><line style="stroke:#181818;stroke-width:1;" x1="170.1016" x2="170.1016" y1="98.5781" y2="105.875"/><path d="M170.1016,98.5781 C170.1016,92.5781 172.1016,90.5781 178.1016,90.5781" fill="none" style="stroke:#181818;stroke-width:1;"/><line style="stroke:#181818;stroke-width:1;" x1="177.1016" x2="200.4043" y1="90.5781" y2="90.5781"/><path d="M189.0832,90.5781 L189.0832,87.5781 L183.0832,90.5781 L189.0832,93.5781 L189.0832,90.5781" fill="#181818"/><path d="M207.4043,105.875 C207.4043,111.875 205.4043,113.875 199.4043,113.875" fill="none" style="stroke:#181818;stroke-width:1;"/><line style="stroke:#181818;stroke-width:1;" x1="207.4043" x2="207.4043" y1="98.5781" y2="105.875"/><path d="M199.4043,90.5781 C205.4043,90.5781 207.4043,92.5781 207.4043,98.5781" fill="none" style="stroke:#181818;stroke-width:1;"/><line style="stroke:#181818;stroke-width:1;" x1="162.1016" x2="177.1016" y1="113.875" y2="113.875"/><line style="stroke:#181818;stroke-width:1;" x1="200.4043" x2="215.4043" y1="113.875" y2="113.875"/><rect fill="none" height="32.5938" style="stroke:#181818;stroke-width:1;stroke-dasharray:5,5;" width="23.3027" x="177.1016" y="97.5781"/><text fill="#000000" font-family="sans-serif" font-size="14" lengthAdjust="spacing" textLength="13.3027" x="182.1016" y="110.5732">%</text><text fill="#000000" font-family="sans-serif" font-size="14" lengthAdjust="spacing" textLength="7.2939" x="182.1016" y="126.8701">s</text><line style="stroke:#181818;stroke-width:0.3;" x1="177.1016" x2="200.4043" y1="113.875" y2="113.875"/><line style="stroke:#181818;stroke-width:1;" x1="239.4043" x2="259.4043" y1="75.5781" y2="75.5781"/><rect fill="none" height="26.2969" style="stroke:#181818;stroke-width:0.5;" width="14.7168" x="259.4043" y="62.4297"/><text fill="#000000" font-family="sans-serif" font-size="14" lengthAdjust="spacing" textLength="4.7168" x="264.4043" y="80.4248">:</text><line style="stroke:#181818;stroke-width:1;" x1="274.1211" x2="294.1211" y1="75.5781" y2="75.5781"/><line style="stroke:#181818;stroke-width:1;" x1="294.1211" x2="395.4238" y1="75.5781" y2="75.5781"/><path d="M332.6422,75.5781 L332.6422,72.5781 L338.6422,75.5781 L332.6422,78.5781 L332.6422,75.5781" fill="#181818"/><path d="M294.1211,75.5781 C303.1211,75.5781 306.1211,85.7266 306.1211,94.7266 C306.1211,103.7266 309.1211,113.875 318.1211,113.875" fill="none" style="stroke:#181818;stroke-width:1;"/><path d="M371.4238,113.875 C380.4238,113.875 383.4238,103.7266 383.4238,94.7266 C383.4238,85.7266 386.4238,75.5781 395.4238,75.5781" fill="none" style="stroke:#181818;stroke-width:1;"/><path d="M326.1211,105.875 C326.1211,111.875 328.1211,113.875 334.1211,113.875" fill="none" style="stroke:#181818;stroke-width:1;"/><line style="stroke:#181818;stroke-width:1;" x1="326.1211" x2="326.1211" y1="98.5781" y2="105.875"/><path d="M326.1211,98.5781 C326.1211,92.5781 328.1211,90.5781 334.1211,90.5781" fill="none" style="stroke:#181818;stroke-width:1;"/><line style="stroke:#181818;stroke-width:1;" x1="333.1211" x2="356.4238" y1="90.5781" y2="90.5781"/><path d="M345.1027,90.5781 L345.1027,87.5781 L339.1027,90.5781 L345.1027,93.5781 L345.1027,90.5781" fill="#181818"/><path d="M363.4238,105.875 C363.4238,111.875 361.4238,113.875 355.4238,113.875" fill="none" style="stroke:#181818;stroke-width:1;"/><line style="stroke:#181818;stroke-width:1;" x1="363.4238" x2="363.4238" y1="98.5781" y2="105.875"/><path d="M355.4238,90.5781 C361.4238,90.5781 363.4238,92.5781 363.4238,98.5781" fill="none" style="stroke:#181818;stroke-width:1;"/><line style="stroke:#181818;stroke-width:1;" x1="318.1211" x2="333.1211" y1="113.875" y2="113.875"/><line style="stroke:#181818;stroke-width:1;" x1="356.4238" x2="371.4238" y1="113.875" y2="113.875"/><rect fill="none" height="32.5938" style="stroke:#181818;stroke-width:1;stroke-dasharray:5,5;" width="23.3027" x="333.1211" y="97.5781"/><text fill="#000000" font-family="sans-serif" font-size="14" lengthAdjust="spacing" textLength="13.3027" x="338.1211" y="110.5732">%</text><text fill="#000000" font-family="sans-serif" font-size="14" lengthAdjust="spacing" textLength="7.2939" x="338.1211" y="126.8701">s</text><line style="stroke:#181818;stroke-width:0.3;" x1="333.1211" x2="356.4238" y1="113.875" y2="113.875"/><line style="stroke:#181818;stroke-width:1;" x1="114.1016" x2="138.1016" y1="75.5781" y2="75.5781"/><line style="stroke:#181818;stroke-width:1;" x1="395.4238" x2="419.4238" y1="75.5781" y2="75.5781"/><path d="M146.1016,160.4688 C146.1016,166.4688 148.1016,168.4688 154.1016,168.4688" fill="none" style="stroke:#181818;stroke-width:1;"/><line style="stroke:#181818;stroke-width:1;" x1="146.1016" x2="146.1016" y1="153.1719" y2="160.4688"/><path d="M146.1016,153.1719 C146.1016,147.1719 148.1016,145.1719 154.1016,145.1719" fill="none" style="stroke:#181818;stroke-width:1;"/><line style="stroke:#181818;stroke-width:1;" x1="153.1016" x2="176.4043" y1="145.1719" y2="145.1719"/><path d="M165.0832,145.1719 L165.0832,142.1719 L159.0832,145.1719 L165.0832,148.1719 L165.0832,145.1719" fill="#181818"/><path d="M183.4043,160.4688 C183.4043,166.4688 181.4043,168.4688 175.4043,168.4688" fill="none" style="stroke:#181818;stroke-width:1;"/><line style="stroke:#181818;stroke-width:1;" x1="183.4043" x2="183.4043" y1="153.1719" y2="160.4688"/><path d="M175.4043,145.1719 C181.4043,145.1719 183.4043,147.1719 183.4043,153.1719" fill="none" style="stroke:#181818;stroke-width:1;"/><line style="stroke:#181818;stroke-width:1;" x1="138.1016" x2="153.1016" y1="168.4688" y2="168.4688"/><line style="stroke:#181818;stroke-width:1;" x1="176.4043" x2="191.4043" y1="168.4688" y2="168.4688"/><rect fill="none" height="32.5938" style="stroke:#181818;stroke-width:1;stroke-dasharray:5,5;" width="23.3027" x="153.1016" y="152.1719"/><text fill="#000000" font-family="sans-serif" font-size="14" lengthAdjust="spacing" textLength="13.3027" x="158.1016" y="165.167">%</text><text fill="#000000" font-family="sans-serif" font-size="14" lengthAdjust="spacing" textLength="7.2939" x="158.1016" y="181.4639">s</text><line style="stroke:#181818;stroke-width:0.3;" x1="153.1016" x2="176.4043" y1="168.4688" y2="168.4688"/><line style="stroke:#181818;stroke-width:1;" x1="191.4043" x2="395.4238" y1="168.4688" y2="168.4688"/><path d="M291.4141,168.4688 L291.4141,165.4688 L297.4141,168.4688 L291.4141,171.4688 L291.4141,168.4688" fill="#181818"/><path d="M126.1016,156.4688 C126.1016,165.4688 129.1016,168.4688 138.1016,168.4688" fill="none" style="stroke:#181818;stroke-width:1;"/><line style="stroke:#181818;stroke-width:1;" x1="126.1016" x2="126.1016" y1="87.5781" y2="156.4688"/><path d="M114.1016,75.5781 C123.1016,75.5781 126.1016,78.5781 126.1016,87.5781" fill="none" style="stroke:#181818;stroke-width:1;"/><path d="M407.4238,156.4688 C407.4238,165.4688 404.4238,168.4688 395.4238,168.4688" fill="none" style="stroke:#181818;stroke-width:1;"/><line style="stroke:#181818;stroke-width:1;" x1="407.4238" x2="407.4238" y1="87.5781" y2="156.4688"/><path d="M407.4238,87.5781 C407.4238,78.5781 410.4238,75.5781 419.4238,75.5781" fill="none" style="stroke:#181818;stroke-width:1;"/><line style="stroke:#181818;stroke-width:1;" x1="419.4238" x2="439.4238" y1="75.5781" y2="75.5781"/><line style="stroke:#181818;stroke-width:1;" x1="463.4238" x2="463.4238" y1="75.5781" y2="75.5781"/><rect fill="none" height="32.5938" style="stroke:#181818;stroke-width:1;stroke-dasharray:5,5;" width="23.3027" x="463.4238" y="59.2813"/><text fill="#000000" font-family="sans-serif" font-size="14" lengthAdjust="spacing" textLength="13.3027" x="468.4238" y="72.2764">%</text><text fill="#000000" font-family="sans-serif" font-size="14" lengthAdjust="spacing" textLength="8.8867" x="468.4238" y="88.5732">g</text><line style="stroke:#181818;stroke-width:0.3;" x1="463.4238" x2="486.7266" y1="75.5781" y2="75.5781"/><line style="stroke:#181818;stroke-width:1;" x1="486.7266" x2="506.7266" y1="75.5781" y2="75.5781"/><line style="stroke:#181818;stroke-width:1;" x1="506.7266" x2="599.1768" y1="75.5781" y2="75.5781"/><path d="M541.7066,75.5781 L541.7066,72.5781 L547.7066,75.5781 L541.7066,78.5781 L541.7066,75.5781" fill="#181818"/><path d="M506.7266,75.5781 C515.7266,75.5781 518.7266,84.1523 518.7266,93.1523 C518.7266,102.1523 521.7266,110.7266 530.7266,110.7266" fill="none" style="stroke:#181818;stroke-width:1;"/><path d="M575.1768,110.7266 C584.1768,110.7266 587.1768,102.1523 587.1768,93.1523 C587.1768,84.1523 590.1768,75.5781 599.1768,75.5781" fill="none" style="stroke:#181818;stroke-width:1;"/><path d="M538.7266,102.7266 C538.7266,108.7266 540.7266,110.7266 546.7266,110.7266" fill="none" style="stroke:#181818;stroke-width:1;"/><line style="stroke:#181818;stroke-width:1;" x1="538.7266" x2="538.7266" y1="98.5781" y2="102.7266"/><path d="M538.7266,98.5781 C538.7266,92.5781 540.7266,90.5781 546.7266,90.5781" fill="none" style="stroke:#181818;stroke-width:1;"/><line style="stroke:#181818;stroke-width:1;" x1="545.7266" x2="560.1768" y1="90.5781" y2="90.5781"/><path d="M552.3967,90.5781 L552.3967,87.5781 L546.3967,90.5781 L552.3967,93.5781 L552.3967,90.5781" fill="#181818"/><path d="M567.1768,102.7266 C567.1768,108.7266 565.1768,110.7266 559.1768,110.7266" fill="none" style="stroke:#181818;stroke-width:1;"/><line style="stroke:#181818;stroke-width:1;" x1="567.1768" x2="567.1768" y1="98.5781" y2="102.7266"/><path d="M559.1768,90.5781 C565.1768,90.5781 567.1768,92.5781 567.1768,98.5781" fill="none" style="stroke:#181818;stroke-width:1;"/><line style="stroke:#181818;stroke-width:1;" x1="530.7266" x2="545.7266" y1="110.7266" y2="110.7266"/><line style="stroke:#181818;stroke-width:1;" x1="560.1768" x2="575.1768" y1="110.7266" y2="110.7266"/><rect fill="#F1F1F1" height="26.2969" rx="5" ry="5" style="stroke:#181818;stroke-width:1.5;" width="14.4502" x="545.7266" y="97.5781"/><text fill="#000000" font-family="sans-serif" font-size="14" lengthAdjust="spacing" textLength="4.4502" x="550.7266" y="115.5732">.</text><line style="stroke:#181818;stroke-width:1;" x1="599.1768" x2="619.1768" y1="75.5781" y2="75.5781"/><rect fill="none" height="32.5938" style="stroke:#181818;stroke-width:1;stroke-dasharray:5,5;" width="23.3027" x="619.1768" y="59.2813"/><text fill="#000000" font-family="sans-serif" font-size="14" lengthAdjust="spacing" textLength="13.3027" x="624.1768" y="72.2764">%</text><text fill="#000000" font-family="sans-serif" font-size="14" lengthAdjust="spacing" textLength="8.8867" x="624.1768" y="88.5732">g</text><line style="stroke:#181818;stroke-width:0.3;" x1="619.1768" x2="642.4795" y1="75.5781" y2="75.5781"/><line style="stroke:#181818;stroke-width:1;" x1="439.4238" x2="463.4238" y1="75.5781" y2="75.5781"/><line style="stroke:#181818;stroke-width:1;" x1="642.4795" x2="735.627" y1="75.5781" y2="75.5781"/><line style="stroke:#181818;stroke-width:1;" x1="463.4238" x2="463.4238" y1="182.7656" y2="182.7656"/><line style="stroke:#181818;stroke-width:1;" x1="463.4238" x2="555.874" y1="182.7656" y2="182.7656"/><path d="M498.4039,182.7656 L498.4039,179.7656 L504.4039,182.7656 L498.4039,185.7656 L498.4039,182.7656" fill="#181818"/><path d="M463.4238,182.7656 C472.4238,182.7656 475.4238,191.3398 475.4238,200.3398 C475.4238,209.3398 478.4238,217.9141 487.4238,217.9141" fill="none" style="stroke:#181818;stroke-width:1;"/><path d="M531.874,217.9141 C540.874,217.9141 543.874,209.3398 543.874,200.3398 C543.874,191.3398 546.874,182.7656 555.874,182.7656" fill="none" style="stroke:#181818;stroke-width:1;"/><path d="M495.4238,209.9141 C495.4238,215.9141 497.4238,217.9141 503.4238,217.9141" fill="none" style="stroke:#181818;stroke-width:1;"/><line style="stroke:#181818;stroke-width:1;" x1="495.4238" x2="495.4238" y1="205.7656" y2="209.9141"/><path d="M495.4238,205.7656 C495.4238,199.7656 497.4238,197.7656 503.4238,197.7656" fill="none" style="stroke:#181818;stroke-width:1;"/><line style="stroke:#181818;stroke-width:1;" x1="502.4238" x2="516.874" y1="197.7656" y2="197.7656"/><path d="M509.0939,197.7656 L509.0939,194.7656 L503.0939,197.7656 L509.0939,200.7656 L509.0939,197.7656" fill="#181818"/><path d="M523.874,209.9141 C523.874,215.9141 521.874,217.9141 515.874,217.9141" fill="none" style="stroke:#181818;stroke-width:1;"/><line style="stroke:#181818;stroke-width:1;" x1="523.874" x2="523.874" y1="205.7656" y2="209.9141"/><path d="M515.874,197.7656 C521.874,197.7656 523.874,199.7656 523.874,205.7656" fill="none" style="stroke:#181818;stroke-width:1;"/><line style="stroke:#181818;stroke-width:1;" x1="487.4238" x2="502.4238" y1="217.9141" y2="217.9141"/><line style="stroke:#181818;stroke-width:1;" x1="516.874" x2="531.874" y1="217.9141" y2="217.9141"/><rect fill="#F1F1F1" height="26.2969" rx="5" ry="5" style="stroke:#181818;stroke-width:1.5;" width="14.4502" x="502.4238" y="204.7656"/><text fill="#000000" font-family="sans-serif" font-size="14" lengthAdjust="spacing" textLength="4.4502" x="507.4238" y="222.7607">.</text><line style="stroke:#181818;stroke-width:1;" x1="555.874" x2="575.874" y1="182.7656" y2="182.7656"/><rect fill="none" height="97.7813" style="stroke:#181818;stroke-width:1;stroke-dasharray:5,5;" width="23.3027" x="575.874" y="133.875"/><text fill="#000000" font-family="sans-serif" font-size="14" lengthAdjust="spacing" textLength="13.3027" x="580.874" y="146.8701">%</text><text fill="#000000" font-family="sans-serif" font-size="14" lengthAdjust="spacing" textLength="8.8867" x="580.874" y="163.167">p</text><line style="stroke:#181818;stroke-width:0.3;" x1="575.874" x2="599.1768" y1="150.1719" y2="150.1719"/><text fill="#000000" font-family="sans-serif" font-size="14" lengthAdjust="spacing" textLength="7.7998" x="580.874" y="179.4639">L</text><line style="stroke:#181818;stroke-width:0.3;" x1="575.874" x2="599.1768" y1="166.4688" y2="166.4688"/><text fill="#000000" font-family="sans-serif" font-size="14" lengthAdjust="spacing" textLength="10.4727" x="580.874" y="195.7607">N</text><line style="stroke:#181818;stroke-width:0.3;" x1="575.874" x2="599.1768" y1="182.7656" y2="182.7656"/><text fill="#000000" font-family="sans-serif" font-size="14" lengthAdjust="spacing" textLength="7" x="580.874" y="212.0576">_</text><line style="stroke:#181818;stroke-width:0.3;" x1="575.874" x2="599.1768" y1="199.0625" y2="199.0625"/><text fill="#000000" font-family="sans-serif" font-size="14" lengthAdjust="spacing" textLength="4.4502" x="580.874" y="228.3545">.</text><line style="stroke:#181818;stroke-width:0.3;" x1="575.874" x2="599.1768" y1="215.3594" y2="215.3594"/><line style="stroke:#181818;stroke-width:1;" x1="599.1768" x2="619.1768" y1="182.7656" y2="182.7656"/><line style="stroke:#181818;stroke-width:1;" x1="619.1768" x2="711.627" y1="182.7656" y2="182.7656"/><path d="M654.1568,182.7656 L654.1568,179.7656 L660.1568,182.7656 L654.1568,185.7656 L654.1568,182.7656" fill="#181818"/><path d="M619.1768,182.7656 C628.1768,182.7656 631.1768,191.3398 631.1768,200.3398 C631.1768,209.3398 634.1768,217.9141 643.1768,217.9141" fill="none" style="stroke:#181818;stroke-width:1;"/><path d="M687.627,217.9141 C696.627,217.9141 699.627,209.3398 699.627,200.3398 C699.627,191.3398 702.627,182.7656 711.627,182.7656" fill="none" style="stroke:#181818;stroke-width:1;"/><path d="M651.1768,209.9141 C651.1768,215.9141 653.1768,217.9141 659.1768,217.9141" fill="none" style="stroke:#181818;stroke-width:1;"/><line style="stroke:#181818;stroke-width:1;" x1="651.1768" x2="651.1768" y1="205.7656" y2="209.9141"/><path d="M651.1768,205.7656 C651.1768,199.7656 653.1768,197.7656 659.1768,197.7656" fill="none" style="stroke:#181818;stroke-width:1;"/><line style="stroke:#181818;stroke-width:1;" x1="658.1768" x2="672.627" y1="197.7656" y2="197.7656"/><path d="M664.8469,197.7656 L664.8469,194.7656 L658.8469,197.7656 L664.8469,200.7656 L664.8469,197.7656" fill="#181818"/><path d="M679.627,209.9141 C679.627,215.9141 677.627,217.9141 671.627,217.9141" fill="none" style="stroke:#181818;stroke-width:1;"/><line style="stroke:#181818;stroke-width:1;" x1="679.627" x2="679.627" y1="205.7656" y2="209.9141"/><path d="M671.627,197.7656 C677.627,197.7656 679.627,199.7656 679.627,205.7656" fill="none" style="stroke:#181818;stroke-width:1;"/><line style="stroke:#181818;stroke-width:1;" x1="643.1768" x2="658.1768" y1="217.9141" y2="217.9141"/><line style="stroke:#181818;stroke-width:1;" x1="672.627" x2="687.627" y1="217.9141" y2="217.9141"/><rect fill="#F1F1F1" height="26.2969" rx="5" ry="5" style="stroke:#181818;stroke-width:1.5;" width="14.4502" x="658.1768" y="204.7656"/><text fill="#000000" font-family="sans-serif" font-size="14" lengthAdjust="spacing" textLength="4.4502" x="663.1768" y="222.7607">.</text><line style="stroke:#181818;stroke-width:1;" x1="711.627" x2="711.627" y1="182.7656" y2="182.7656"/><path d="M451.4238,170.7656 C451.4238,179.7656 454.4238,182.7656 463.4238,182.7656" fill="none" style="stroke:#181818;stroke-width:1;"/><line style="stroke:#181818;stroke-width:1;" x1="451.4238" x2="451.4238" y1="87.5781" y2="170.7656"/><path d="M439.4238,75.5781 C448.4238,75.5781 451.4238,78.5781 451.4238,87.5781" fill="none" style="stroke:#181818;stroke-width:1;"/><path d="M723.627,170.7656 C723.627,179.7656 720.627,182.7656 711.627,182.7656" fill="none" style="stroke:#181818;stroke-width:1;"/><line style="stroke:#181818;stroke-width:1;" x1="723.627" x2="723.627" y1="87.5781" y2="170.7656"/><path d="M723.627,87.5781 C723.627,78.5781 726.627,75.5781 735.627,75.5781" fill="none" style="stroke:#181818;stroke-width:1;"/><line style="stroke:#181818;stroke-width:1;" x1="735.627" x2="755.627" y1="75.5781" y2="75.5781"/><rect fill="#F1F1F1" height="26.2969" rx="5" ry="5" style="stroke:#181818;stroke-width:1.5;" width="18.9072" x="755.627" y="62.4297"/><text fill="#000000" font-family="sans-serif" font-size="14" lengthAdjust="spacing" textLength="8.9072" x="760.627" y="80.4248">$</text></g></svg>