<svg xmlns="http://www.w3.org/2000/svg" xmlns:xlink="http://www.w3.org/1999/xlink" contentStyleType="text/css" height="176px" preserveAspectRatio="none" style="width:761px;height:176px;background:#DDDDDD;" version="1.1" viewBox="0 0 761 176" width="761px" zoomAndPan="magnify"><title>How title is parsed by PlantUML?</title><defs/><g><rect fill="#DDDDDD" height="176" style="stroke:none;stroke-width:1.0;" width="761" x="0" y="0"/><text fill="#000000" font-family="sans-serif" font-size="14" font-weight="bold" lengthAdjust="spacing" textLength="261.126" x="249.3027" y="32.9951">How title is parsed by PlantUML?</text><line style="stroke:#000000;stroke-width:1.0;" x1="10" x2="10" y1="88.4453" y2="88.4453"/><rect fill="#F1F1F1" height="26.2969" rx="5" ry="5" style="stroke:#181818;stroke-width:1.5;" width="21.7305" x="10" y="75.2969"/><text fill="#000000" font-family="sans-serif" font-size="14" lengthAdjust="spacing" textLength="11.7305" x="15" y="93.292">^</text><line style="stroke:#000000;stroke-width:1.0;" x1="31.7305" x2="51.7305" y1="88.4453" y2="88.4453"/><rect fill="none" height="26.2969" style="stroke:#181818;stroke-width:0.5;" width="37.3711" x="51.7305" y="75.2969"/><text fill="#000000" font-family="sans-serif" font-size="14" lengthAdjust="spacing" textLength="27.3711" x="56.7305" y="93.292">title</text><line style="stroke:#000000;stroke-width:1.0;" x1="89.1016" x2="109.1016" y1="88.4453" y2="88.4453"/><line style="stroke:#000000;stroke-width:1.0;" x1="133.1016" x2="133.1016" y1="88.4453" y2="88.4453"/><path d="M141.1016,80.4453 C141.1016,86.4453 139.1016,88.4453 133.1016,88.4453 " fill="none" style="stroke:#000000;stroke-width:1.0;"/><line style="stroke:#000000;stroke-width:1.0;" x1="141.1016" x2="141.1016" y1="60.2969" y2="80.4453"/><path d="M141.1016,60.2969 C141.1016,54.2969 143.1016,52.2969 149.1016,52.2969 " fill="none" style="stroke:#000000;stroke-width:1.0;"/><line style="stroke:#000000;stroke-width:1.0;" x1="149.1016" x2="207.6982" y1="52.2969" y2="52.2969"/><path d="M170.5402,52.2969 L170.5402,49.2969 L176.5402,52.2969 L170.5402,55.2969 L170.5402,52.2969 " fill="#000000" style="stroke:#000000;stroke-width:1.0;"/><path d="M215.6982,80.4453 C215.6982,86.4453 217.6982,88.4453 223.6982,88.4453 " fill="none" style="stroke:#000000;stroke-width:1.0;"/><line style="stroke:#000000;stroke-width:1.0;" x1="215.6982" x2="215.6982" y1="60.2969" y2="80.4453"/><path d="M207.6982,52.2969 C213.6982,52.2969 215.6982,54.2969 215.6982,60.2969 " fill="none" style="stroke:#000000;stroke-width:1.0;"/><line style="stroke:#000000;stroke-width:1.0;" x1="133.1016" x2="148.1016" y1="88.4453" y2="88.4453"/><line style="stroke:#000000;stroke-width:1.0;" x1="208.6982" x2="223.6982" y1="88.4453" y2="88.4453"/><path d="M156.1016,80.4453 C156.1016,86.4453 158.1016,88.4453 164.1016,88.4453 " fill="none" style="stroke:#000000;stroke-width:1.0;"/><line style="stroke:#000000;stroke-width:1.0;" x1="156.1016" x2="156.1016" y1="76.2969" y2="80.4453"/><path d="M156.1016,76.2969 C156.1016,70.2969 158.1016,68.2969 164.1016,68.2969 " fill="none" style="stroke:#000000;stroke-width:1.0;"/><line style="stroke:#000000;stroke-width:1.0;" x1="163.1016" x2="193.6982" y1="68.2969" y2="68.2969"/><path d="M179.4596,68.2969 L179.4596,65.2969 L173.4596,68.2969 L179.4596,71.2969 L179.4596,68.2969 " fill="#000000" style="stroke:#000000;stroke-width:1.0;"/><path d="M200.6982,80.4453 C200.6982,86.4453 198.6982,88.4453 192.6982,88.4453 " fill="none" style="stroke:#000000;stroke-width:1.0;"/><line style="stroke:#000000;stroke-width:1.0;" x1="200.6982" x2="200.6982" y1="76.2969" y2="80.4453"/><path d="M192.6982,68.2969 C198.6982,68.2969 200.6982,70.2969 200.6982,76.2969 " fill="none" style="stroke:#000000;stroke-width:1.0;"/><line style="stroke:#000000;stroke-width:1.0;" x1="148.1016" x2="163.1016" y1="88.4453" y2="88.4453"/><line style="stroke:#000000;stroke-width:1.0;" x1="193.6982" x2="208.6982" y1="88.4453" y2="88.4453"/><rect fill="none" height="26.2969" style="stroke:#181818;stroke-width:1.0;stroke-dasharray:5.0,5.0;" width="30.5967" x="163.1016" y="75.2969"/><text fill="#000000" font-family="sans-serif" font-size="14" lengthAdjust="spacing" textLength="20.5967" x="168.1016" y="93.292">%s</text><line style="stroke:#000000;stroke-width:1.0;" x1="223.6982" x2="243.6982" y1="88.4453" y2="88.4453"/><rect fill="none" height="26.2969" style="stroke:#181818;stroke-width:0.5;" width="14.7168" x="243.6982" y="75.2969"/><text fill="#000000" font-family="sans-serif" font-size="14" lengthAdjust="spacing" textLength="4.7168" x="248.6982" y="93.292">:</text><line style="stroke:#000000;stroke-width:1.0;" x1="258.415" x2="278.415" y1="88.4453" y2="88.4453"/><path d="M286.415,80.4453 C286.415,86.4453 284.415,88.4453 278.415,88.4453 " fill="none" style="stroke:#000000;stroke-width:1.0;"/><line style="stroke:#000000;stroke-width:1.0;" x1="286.415" x2="286.415" y1="60.2969" y2="80.4453"/><path d="M286.415,60.2969 C286.415,54.2969 288.415,52.2969 294.415,52.2969 " fill="none" style="stroke:#000000;stroke-width:1.0;"/><line style="stroke:#000000;stroke-width:1.0;" x1="294.415" x2="353.0117" y1="52.2969" y2="52.2969"/><path d="M315.8537,52.2969 L315.8537,49.2969 L321.8537,52.2969 L315.8537,55.2969 L315.8537,52.2969 " fill="#000000" style="stroke:#000000;stroke-width:1.0;"/><path d="M361.0117,80.4453 C361.0117,86.4453 363.0117,88.4453 369.0117,88.4453 " fill="none" style="stroke:#000000;stroke-width:1.0;"/><line style="stroke:#000000;stroke-width:1.0;" x1="361.0117" x2="361.0117" y1="60.2969" y2="80.4453"/><path d="M353.0117,52.2969 C359.0117,52.2969 361.0117,54.2969 361.0117,60.2969 " fill="none" style="stroke:#000000;stroke-width:1.0;"/><line style="stroke:#000000;stroke-width:1.0;" x1="278.415" x2="293.415" y1="88.4453" y2="88.4453"/><line style="stroke:#000000;stroke-width:1.0;" x1="354.0117" x2="369.0117" y1="88.4453" y2="88.4453"/><path d="M301.415,80.4453 C301.415,86.4453 303.415,88.4453 309.415,88.4453 " fill="none" style="stroke:#000000;stroke-width:1.0;"/><line style="stroke:#000000;stroke-width:1.0;" x1="301.415" x2="301.415" y1="76.2969" y2="80.4453"/><path d="M301.415,76.2969 C301.415,70.2969 303.415,68.2969 309.415,68.2969 " fill="none" style="stroke:#000000;stroke-width:1.0;"/><line style="stroke:#000000;stroke-width:1.0;" x1="308.415" x2="339.0117" y1="68.2969" y2="68.2969"/><path d="M324.773,68.2969 L324.773,65.2969 L318.773,68.2969 L324.773,71.2969 L324.773,68.2969 " fill="#000000" style="stroke:#000000;stroke-width:1.0;"/><path d="M346.0117,80.4453 C346.0117,86.4453 344.0117,88.4453 338.0117,88.4453 " fill="none" style="stroke:#000000;stroke-width:1.0;"/><line style="stroke:#000000;stroke-width:1.0;" x1="346.0117" x2="346.0117" y1="76.2969" y2="80.4453"/><path d="M338.0117,68.2969 C344.0117,68.2969 346.0117,70.2969 346.0117,76.2969 " fill="none" style="stroke:#000000;stroke-width:1.0;"/><line style="stroke:#000000;stroke-width:1.0;" x1="293.415" x2="308.415" y1="88.4453" y2="88.4453"/><line style="stroke:#000000;stroke-width:1.0;" x1="339.0117" x2="354.0117" y1="88.4453" y2="88.4453"/><rect fill="none" height="26.2969" style="stroke:#181818;stroke-width:1.0;stroke-dasharray:5.0,5.0;" width="30.5967" x="308.415" y="75.2969"/><text fill="#000000" font-family="sans-serif" font-size="14" lengthAdjust="spacing" textLength="20.5967" x="313.415" y="93.292">%s</text><line style="stroke:#000000;stroke-width:1.0;" x1="109.1016" x2="133.1016" y1="88.4453" y2="88.4453"/><line style="stroke:#000000;stroke-width:1.0;" x1="369.0117" x2="393.0117" y1="88.4453" y2="88.4453"/><path d="M141.1016,128.7422 C141.1016,134.7422 143.1016,136.7422 149.1016,136.7422 " fill="none" style="stroke:#000000;stroke-width:1.0;"/><line style="stroke:#000000;stroke-width:1.0;" x1="141.1016" x2="141.1016" y1="124.5938" y2="128.7422"/><path d="M141.1016,124.5938 C141.1016,118.5938 143.1016,116.5938 149.1016,116.5938 " fill="none" style="stroke:#000000;stroke-width:1.0;"/><line style="stroke:#000000;stroke-width:1.0;" x1="148.1016" x2="178.6982" y1="116.5938" y2="116.5938"/><path d="M164.4596,116.5938 L164.4596,113.5938 L158.4596,116.5938 L164.4596,119.5938 L164.4596,116.5938 " fill="#000000" style="stroke:#000000;stroke-width:1.0;"/><path d="M185.6982,128.7422 C185.6982,134.7422 183.6982,136.7422 177.6982,136.7422 " fill="none" style="stroke:#000000;stroke-width:1.0;"/><line style="stroke:#000000;stroke-width:1.0;" x1="185.6982" x2="185.6982" y1="124.5938" y2="128.7422"/><path d="M177.6982,116.5938 C183.6982,116.5938 185.6982,118.5938 185.6982,124.5938 " fill="none" style="stroke:#000000;stroke-width:1.0;"/><line style="stroke:#000000;stroke-width:1.0;" x1="133.1016" x2="148.1016" y1="136.7422" y2="136.7422"/><line style="stroke:#000000;stroke-width:1.0;" x1="178.6982" x2="193.6982" y1="136.7422" y2="136.7422"/><rect fill="none" height="26.2969" style="stroke:#181818;stroke-width:1.0;stroke-dasharray:5.0,5.0;" width="30.5967" x="148.1016" y="123.5938"/><text fill="#000000" font-family="sans-serif" font-size="14" lengthAdjust="spacing" textLength="20.5967" x="153.1016" y="141.5889">%s</text><line style="stroke:#000000;stroke-width:1.0;" x1="193.6982" x2="369.0117" y1="136.7422" y2="136.7422"/><path d="M279.355,136.7422 L279.355,133.7422 L285.355,136.7422 L279.355,139.7422 L279.355,136.7422 " fill="#000000" style="stroke:#000000;stroke-width:1.0;"/><path d="M121.1016,124.7422 C121.1016,133.7422 124.1016,136.7422 133.1016,136.7422 " fill="none" style="stroke:#000000;stroke-width:1.0;"/><line style="stroke:#000000;stroke-width:1.0;" x1="121.1016" x2="121.1016" y1="100.4453" y2="124.7422"/><path d="M109.1016,88.4453 C118.1016,88.4453 121.1016,91.4453 121.1016,100.4453 " fill="none" style="stroke:#000000;stroke-width:1.0;"/><path d="M381.0117,124.7422 C381.0117,133.7422 378.0117,136.7422 369.0117,136.7422 " fill="none" style="stroke:#000000;stroke-width:1.0;"/><line style="stroke:#000000;stroke-width:1.0;" x1="381.0117" x2="381.0117" y1="100.4453" y2="124.7422"/><path d="M381.0117,100.4453 C381.0117,91.4453 384.0117,88.4453 393.0117,88.4453 " fill="none" style="stroke:#000000;stroke-width:1.0;"/><line style="stroke:#000000;stroke-width:1.0;" x1="393.0117" x2="413.0117" y1="88.4453" y2="88.4453"/><line style="stroke:#000000;stroke-width:1.0;" x1="437.0117" x2="437.0117" y1="88.4453" y2="88.4453"/><rect fill="none" height="26.2969" style="stroke:#181818;stroke-width:1.0;stroke-dasharray:5.0,5.0;" width="32.1895" x="437.0117" y="75.2969"/><text fill="#000000" font-family="sans-serif" font-size="14" lengthAdjust="spacing" textLength="22.1895" x="442.0117" y="93.292">%g</text><line style="stroke:#000000;stroke-width:1.0;" x1="469.2012" x2="489.2012" y1="88.4453" y2="88.4453"/><path d="M497.2012,80.4453 C497.2012,86.4453 495.2012,88.4453 489.2012,88.4453 " fill="none" style="stroke:#000000;stroke-width:1.0;"/><line style="stroke:#000000;stroke-width:1.0;" x1="497.2012" x2="497.2012" y1="60.2969" y2="80.4453"/><path d="M497.2012,60.2969 C497.2012,54.2969 499.2012,52.2969 505.2012,52.2969 " fill="none" style="stroke:#000000;stroke-width:1.0;"/><line style="stroke:#000000;stroke-width:1.0;" x1="505.2012" x2="547.6514" y1="52.2969" y2="52.2969"/><path d="M520.1813,52.2969 L520.1813,49.2969 L526.1813,52.2969 L520.1813,55.2969 L520.1813,52.2969 " fill="#000000" style="stroke:#000000;stroke-width:1.0;"/><path d="M555.6514,80.4453 C555.6514,86.4453 557.6514,88.4453 563.6514,88.4453 " fill="none" style="stroke:#000000;stroke-width:1.0;"/><line style="stroke:#000000;stroke-width:1.0;" x1="555.6514" x2="555.6514" y1="60.2969" y2="80.4453"/><path d="M547.6514,52.2969 C553.6514,52.2969 555.6514,54.2969 555.6514,60.2969 " fill="none" style="stroke:#000000;stroke-width:1.0;"/><line style="stroke:#000000;stroke-width:1.0;" x1="489.2012" x2="504.2012" y1="88.4453" y2="88.4453"/><line style="stroke:#000000;stroke-width:1.0;" x1="548.6514" x2="563.6514" y1="88.4453" y2="88.4453"/><path d="M512.2012,80.4453 C512.2012,86.4453 514.2012,88.4453 520.2012,88.4453 " fill="none" style="stroke:#000000;stroke-width:1.0;"/><line style="stroke:#000000;stroke-width:1.0;" x1="512.2012" x2="512.2012" y1="76.2969" y2="80.4453"/><path d="M512.2012,76.2969 C512.2012,70.2969 514.2012,68.2969 520.2012,68.2969 " fill="none" style="stroke:#000000;stroke-width:1.0;"/><line style="stroke:#000000;stroke-width:1.0;" x1="519.2012" x2="533.6514" y1="68.2969" y2="68.2969"/><path d="M525.8713,68.2969 L525.8713,65.2969 L519.8713,68.2969 L525.8713,71.2969 L525.8713,68.2969 " fill="#000000" style="stroke:#000000;stroke-width:1.0;"/><path d="M540.6514,80.4453 C540.6514,86.4453 538.6514,88.4453 532.6514,88.4453 " fill="none" style="stroke:#000000;stroke-width:1.0;"/><line style="stroke:#000000;stroke-width:1.0;" x1="540.6514" x2="540.6514" y1="76.2969" y2="80.4453"/><path d="M532.6514,68.2969 C538.6514,68.2969 540.6514,70.2969 540.6514,76.2969 " fill="none" style="stroke:#000000;stroke-width:1.0;"/><line style="stroke:#000000;stroke-width:1.0;" x1="504.2012" x2="519.2012" y1="88.4453" y2="88.4453"/><line style="stroke:#000000;stroke-width:1.0;" x1="533.6514" x2="548.6514" y1="88.4453" y2="88.4453"/><rect fill="#F1F1F1" height="26.2969" rx="5" ry="5" style="stroke:#181818;stroke-width:1.5;" width="14.4502" x="519.2012" y="75.2969"/><text fill="#000000" font-family="sans-serif" font-size="14" lengthAdjust="spacing" textLength="4.4502" x="524.2012" y="93.292">.</text><line style="stroke:#000000;stroke-width:1.0;" x1="563.6514" x2="583.6514" y1="88.4453" y2="88.4453"/><rect fill="none" height="26.2969" style="stroke:#181818;stroke-width:1.0;stroke-dasharray:5.0,5.0;" width="32.1895" x="583.6514" y="75.2969"/><text fill="#000000" font-family="sans-serif" font-size="14" lengthAdjust="spacing" textLength="22.1895" x="588.6514" y="93.292">%g</text><line style="stroke:#000000;stroke-width:1.0;" x1="413.0117" x2="437.0117" y1="88.4453" y2="88.4453"/><line style="stroke:#000000;stroke-width:1.0;" x1="615.8408" x2="711.8242" y1="88.4453" y2="88.4453"/><line style="stroke:#000000;stroke-width:1.0;" x1="437.0117" x2="437.0117" y1="152.7422" y2="152.7422"/><path d="M445.0117,144.7422 C445.0117,150.7422 443.0117,152.7422 437.0117,152.7422 " fill="none" style="stroke:#000000;stroke-width:1.0;"/><line style="stroke:#000000;stroke-width:1.0;" x1="445.0117" x2="445.0117" y1="124.5938" y2="144.7422"/><path d="M445.0117,124.5938 C445.0117,118.5938 447.0117,116.5938 453.0117,116.5938 " fill="none" style="stroke:#000000;stroke-width:1.0;"/><line style="stroke:#000000;stroke-width:1.0;" x1="453.0117" x2="495.4619" y1="116.5938" y2="116.5938"/><path d="M467.9918,116.5938 L467.9918,113.5938 L473.9918,116.5938 L467.9918,119.5938 L467.9918,116.5938 " fill="#000000" style="stroke:#000000;stroke-width:1.0;"/><path d="M503.4619,144.7422 C503.4619,150.7422 505.4619,152.7422 511.4619,152.7422 " fill="none" style="stroke:#000000;stroke-width:1.0;"/><line style="stroke:#000000;stroke-width:1.0;" x1="503.4619" x2="503.4619" y1="124.5938" y2="144.7422"/><path d="M495.4619,116.5938 C501.4619,116.5938 503.4619,118.5938 503.4619,124.5938 " fill="none" style="stroke:#000000;stroke-width:1.0;"/><line style="stroke:#000000;stroke-width:1.0;" x1="437.0117" x2="452.0117" y1="152.7422" y2="152.7422"/><line style="stroke:#000000;stroke-width:1.0;" x1="496.4619" x2="511.4619" y1="152.7422" y2="152.7422"/><path d="M460.0117,144.7422 C460.0117,150.7422 462.0117,152.7422 468.0117,152.7422 " fill="none" style="stroke:#000000;stroke-width:1.0;"/><line style="stroke:#000000;stroke-width:1.0;" x1="460.0117" x2="460.0117" y1="140.5938" y2="144.7422"/><path d="M460.0117,140.5938 C460.0117,134.5938 462.0117,132.5938 468.0117,132.5938 " fill="none" style="stroke:#000000;stroke-width:1.0;"/><line style="stroke:#000000;stroke-width:1.0;" x1="467.0117" x2="481.4619" y1="132.5938" y2="132.5938"/><path d="M473.6818,132.5938 L473.6818,129.5938 L467.6818,132.5938 L473.6818,135.5938 L473.6818,132.5938 " fill="#000000" style="stroke:#000000;stroke-width:1.0;"/><path d="M488.4619,144.7422 C488.4619,150.7422 486.4619,152.7422 480.4619,152.7422 " fill="none" style="stroke:#000000;stroke-width:1.0;"/><line style="stroke:#000000;stroke-width:1.0;" x1="488.4619" x2="488.4619" y1="140.5938" y2="144.7422"/><path d="M480.4619,132.5938 C486.4619,132.5938 488.4619,134.5938 488.4619,140.5938 " fill="none" style="stroke:#000000;stroke-width:1.0;"/><line style="stroke:#000000;stroke-width:1.0;" x1="452.0117" x2="467.0117" y1="152.7422" y2="152.7422"/><line style="stroke:#000000;stroke-width:1.0;" x1="481.4619" x2="496.4619" y1="152.7422" y2="152.7422"/><rect fill="#F1F1F1" height="26.2969" rx="5" ry="5" style="stroke:#181818;stroke-width:1.5;" width="14.4502" x="467.0117" y="139.5938"/><text fill="#000000" font-family="sans-serif" font-size="14" lengthAdjust="spacing" textLength="4.4502" x="472.0117" y="157.5889">.</text><line style="stroke:#000000;stroke-width:1.0;" x1="511.4619" x2="531.4619" y1="152.7422" y2="152.7422"/><rect fill="none" height="26.2969" style="stroke:#181818;stroke-width:1.0;stroke-dasharray:5.0,5.0;" width="61.9121" x="531.4619" y="139.5938"/><text fill="#000000" font-family="sans-serif" font-size="14" lengthAdjust="spacing" textLength="51.9121" x="536.4619" y="157.5889">%pLN_.</text><line style="stroke:#000000;stroke-width:1.0;" x1="593.374" x2="613.374" y1="152.7422" y2="152.7422"/><path d="M621.374,144.7422 C621.374,150.7422 619.374,152.7422 613.374,152.7422 " fill="none" style="stroke:#000000;stroke-width:1.0;"/><line style="stroke:#000000;stroke-width:1.0;" x1="621.374" x2="621.374" y1="124.5938" y2="144.7422"/><path d="M621.374,124.5938 C621.374,118.5938 623.374,116.5938 629.374,116.5938 " fill="none" style="stroke:#000000;stroke-width:1.0;"/><line style="stroke:#000000;stroke-width:1.0;" x1="629.374" x2="671.8242" y1="116.5938" y2="116.5938"/><path d="M644.3541,116.5938 L644.3541,113.5938 L650.3541,116.5938 L644.3541,119.5938 L644.3541,116.5938 " fill="#000000" style="stroke:#000000;stroke-width:1.0;"/><path d="M679.8242,144.7422 C679.8242,150.7422 681.8242,152.7422 687.8242,152.7422 " fill="none" style="stroke:#000000;stroke-width:1.0;"/><line style="stroke:#000000;stroke-width:1.0;" x1="679.8242" x2="679.8242" y1="124.5938" y2="144.7422"/><path d="M671.8242,116.5938 C677.8242,116.5938 679.8242,118.5938 679.8242,124.5938 " fill="none" style="stroke:#000000;stroke-width:1.0;"/><line style="stroke:#000000;stroke-width:1.0;" x1="613.374" x2="628.374" y1="152.7422" y2="152.7422"/><line style="stroke:#000000;stroke-width:1.0;" x1="672.8242" x2="687.8242" y1="152.7422" y2="152.7422"/><path d="M636.374,144.7422 C636.374,150.7422 638.374,152.7422 644.374,152.7422 " fill="none" style="stroke:#000000;stroke-width:1.0;"/><line style="stroke:#000000;stroke-width:1.0;" x1="636.374" x2="636.374" y1="140.5938" y2="144.7422"/><path d="M636.374,140.5938 C636.374,134.5938 638.374,132.5938 644.374,132.5938 " fill="none" style="stroke:#000000;stroke-width:1.0;"/><line style="stroke:#000000;stroke-width:1.0;" x1="643.374" x2="657.8242" y1="132.5938" y2="132.5938"/><path d="M650.0441,132.5938 L650.0441,129.5938 L644.0441,132.5938 L650.0441,135.5938 L650.0441,132.5938 " fill="#000000" style="stroke:#000000;stroke-width:1.0;"/><path d="M664.8242,144.7422 C664.8242,150.7422 662.8242,152.7422 656.8242,152.7422 " fill="none" style="stroke:#000000;stroke-width:1.0;"/><line style="stroke:#000000;stroke-width:1.0;" x1="664.8242" x2="664.8242" y1="140.5938" y2="144.7422"/><path d="M656.8242,132.5938 C662.8242,132.5938 664.8242,134.5938 664.8242,140.5938 " fill="none" style="stroke:#000000;stroke-width:1.0;"/><line style="stroke:#000000;stroke-width:1.0;" x1="628.374" x2="643.374" y1="152.7422" y2="152.7422"/><line style="stroke:#000000;stroke-width:1.0;" x1="657.8242" x2="672.8242" y1="152.7422" y2="152.7422"/><rect fill="#F1F1F1" height="26.2969" rx="5" ry="5" style="stroke:#181818;stroke-width:1.5;" width="14.4502" x="643.374" y="139.5938"/><text fill="#000000" font-family="sans-serif" font-size="14" lengthAdjust="spacing" textLength="4.4502" x="648.374" y="157.5889">.</text><line style="stroke:#000000;stroke-width:1.0;" x1="687.8242" x2="687.8242" y1="152.7422" y2="152.7422"/><path d="M425.0117,140.7422 C425.0117,149.7422 428.0117,152.7422 437.0117,152.7422 " fill="none" style="stroke:#000000;stroke-width:1.0;"/><line style="stroke:#000000;stroke-width:1.0;" x1="425.0117" x2="425.0117" y1="100.4453" y2="140.7422"/><path d="M413.0117,88.4453 C422.0117,88.4453 425.0117,91.4453 425.0117,100.4453 " fill="none" style="stroke:#000000;stroke-width:1.0;"/><path d="M699.8242,140.7422 C699.8242,149.7422 696.8242,152.7422 687.8242,152.7422 " fill="none" style="stroke:#000000;stroke-width:1.0;"/><line style="stroke:#000000;stroke-width:1.0;" x1="699.8242" x2="699.8242" y1="100.4453" y2="140.7422"/><path d="M699.8242,100.4453 C699.8242,91.4453 702.8242,88.4453 711.8242,88.4453 " fill="none" style="stroke:#000000;stroke-width:1.0;"/><line style="stroke:#000000;stroke-width:1.0;" x1="711.8242" x2="731.8242" y1="88.4453" y2="88.4453"/><rect fill="#F1F1F1" height="26.2969" rx="5" ry="5" style="stroke:#181818;stroke-width:1.5;" width="18.9072" x="731.8242" y="75.2969"/><text fill="#000000" font-family="sans-serif" font-size="14" lengthAdjust="spacing" textLength="8.9072" x="736.8242" y="93.292">$</text></g></svg>