<svg xmlns="http://www.w3.org/2000/svg" xmlns:xlink="http://www.w3.org/1999/xlink" contentStyleType="text/css" height="184.375px" preserveAspectRatio="none" style="width:792px;height:184px;background:#FDF6E3;" version="1.1" viewBox="0 0 792 184" width="792.7083px" zoomAndPan="magnify"><title>How title is parsed by PlantUML?</title><defs/><g><rect fill="#FDF6E3" height="184.375" style="stroke:none;stroke-width:1.0416666666666667;" width="792.7083" x="0" y="0"/><text fill="#000000" font-family="Dejavu Serif" font-size="14.5833" font-weight="bold" lengthAdjust="spacing" textLength="273.6654" x="258.8608" y="34.5266">How title is parsed by PlantUML?</text><line style="stroke:#000000;stroke-width:1.0416666666666667;" x1="10.4167" x2="10.4167" y1="92.2872" y2="92.2872"/><rect fill="#F1F1F1" height="27.3926" rx="5.2083" ry="5.2083" style="stroke:#181818;stroke-width:1.5625;" width="22.6359" x="10.4167" y="78.5909"/><text fill="#000000" font-family="sans-serif" font-size="14.5833" lengthAdjust="spacing" textLength="12.2192" x="15.625" y="97.3358">^</text><line style="stroke:#000000;stroke-width:1.0416666666666667;" x1="33.0526" x2="53.8859" y1="92.2872" y2="92.2872"/><rect fill="none" height="27.3926" style="stroke:#181818;stroke-width:0.5208333333333334;" width="38.9282" x="53.8859" y="78.5909"/><text fill="#000000" font-family="sans-serif" font-size="14.5833" lengthAdjust="spacing" textLength="28.5116" x="59.0942" y="97.3358">title</text><line style="stroke:#000000;stroke-width:1.0416666666666667;" x1="92.8141" x2="113.6475" y1="92.2872" y2="92.2872"/><line style="stroke:#000000;stroke-width:1.0416666666666667;" x1="138.6475" x2="138.6475" y1="92.2872" y2="92.2872"/><path d="M146.9808,83.9539 C146.9808,90.2039 144.8975,92.2872 138.6475,92.2872 " fill="none" style="stroke:#000000;stroke-width:1.0416666666666667;"/><line style="stroke:#000000;stroke-width:1.0416666666666667;" x1="146.9808" x2="146.9808" y1="62.9659" y2="83.9539"/><path d="M146.9808,62.9659 C146.9808,56.7159 149.0641,54.6326 155.3141,54.6326 " fill="none" style="stroke:#000000;stroke-width:1.0416666666666667;"/><line style="stroke:#000000;stroke-width:1.0416666666666667;" x1="155.3141" x2="216.3523" y1="54.6326" y2="54.6326"/><path d="M177.6461,54.6326 L177.6461,51.5076 L183.8961,54.6326 L177.6461,57.7576 L177.6461,54.6326 " fill="#000000" style="stroke:#000000;stroke-width:1.0416666666666667;"/><path d="M224.6857,83.9539 C224.6857,90.2039 226.769,92.2872 233.019,92.2872 " fill="none" style="stroke:#000000;stroke-width:1.0416666666666667;"/><line style="stroke:#000000;stroke-width:1.0416666666666667;" x1="224.6857" x2="224.6857" y1="62.9659" y2="83.9539"/><path d="M216.3523,54.6326 C222.6023,54.6326 224.6857,56.7159 224.6857,62.9659 " fill="none" style="stroke:#000000;stroke-width:1.0416666666666667;"/><line style="stroke:#000000;stroke-width:1.0416666666666667;" x1="138.6475" x2="154.2725" y1="92.2872" y2="92.2872"/><line style="stroke:#000000;stroke-width:1.0416666666666667;" x1="217.394" x2="233.019" y1="92.2872" y2="92.2872"/><path d="M162.6058,83.9539 C162.6058,90.2039 164.6891,92.2872 170.9391,92.2872 " fill="none" style="stroke:#000000;stroke-width:1.0416666666666667;"/><line style="stroke:#000000;stroke-width:1.0416666666666667;" x1="162.6058" x2="162.6058" y1="79.6326" y2="83.9539"/><path d="M162.6058,79.6326 C162.6058,73.3826 164.6891,71.2992 170.9391,71.2992 " fill="none" style="stroke:#000000;stroke-width:1.0416666666666667;"/><line style="stroke:#000000;stroke-width:1.0416666666666667;" x1="169.8975" x2="201.769" y1="71.2992" y2="71.2992"/><path d="M186.9371,71.2992 L186.9371,68.1742 L180.6871,71.2992 L186.9371,74.4242 L186.9371,71.2992 " fill="#000000" style="stroke:#000000;stroke-width:1.0416666666666667;"/><path d="M209.0607,83.9539 C209.0607,90.2039 206.9773,92.2872 200.7273,92.2872 " fill="none" style="stroke:#000000;stroke-width:1.0416666666666667;"/><line style="stroke:#000000;stroke-width:1.0416666666666667;" x1="209.0607" x2="209.0607" y1="79.6326" y2="83.9539"/><path d="M200.7273,71.2992 C206.9773,71.2992 209.0607,73.3826 209.0607,79.6326 " fill="none" style="stroke:#000000;stroke-width:1.0416666666666667;"/><line style="stroke:#000000;stroke-width:1.0416666666666667;" x1="154.2725" x2="169.8975" y1="92.2872" y2="92.2872"/><line style="stroke:#000000;stroke-width:1.0416666666666667;" x1="201.769" x2="217.394" y1="92.2872" y2="92.2872"/><rect fill="none" height="27.3926" style="stroke:#181818;stroke-width:1.0416666666666667;stroke-dasharray:5.0,5.0;" width="31.8715" x="169.8975" y="78.5909"/><text fill="#000000" font-family="sans-serif" font-size="14.5833" lengthAdjust="spacing" textLength="21.4549" x="175.1058" y="97.3358">%s</text><line style="stroke:#000000;stroke-width:1.0416666666666667;" x1="233.019" x2="253.8523" y1="92.2872" y2="92.2872"/><rect fill="none" height="27.3926" style="stroke:#181818;stroke-width:0.5208333333333334;" width="15.33" x="253.8523" y="78.5909"/><text fill="#000000" font-family="sans-serif" font-size="14.5833" lengthAdjust="spacing" textLength="4.9133" x="259.0607" y="97.3358">:</text><line style="stroke:#000000;stroke-width:1.0416666666666667;" x1="269.1823" x2="290.0157" y1="92.2872" y2="92.2872"/><path d="M298.349,83.9539 C298.349,90.2039 296.2657,92.2872 290.0157,92.2872 " fill="none" style="stroke:#000000;stroke-width:1.0416666666666667;"/><line style="stroke:#000000;stroke-width:1.0416666666666667;" x1="298.349" x2="298.349" y1="62.9659" y2="83.9539"/><path d="M298.349,62.9659 C298.349,56.7159 300.4323,54.6326 306.6823,54.6326 " fill="none" style="stroke:#000000;stroke-width:1.0416666666666667;"/><line style="stroke:#000000;stroke-width:1.0416666666666667;" x1="306.6823" x2="367.7205" y1="54.6326" y2="54.6326"/><path d="M329.0143,54.6326 L329.0143,51.5076 L335.2643,54.6326 L329.0143,57.7576 L329.0143,54.6326 " fill="#000000" style="stroke:#000000;stroke-width:1.0416666666666667;"/><path d="M376.0539,83.9539 C376.0539,90.2039 378.1372,92.2872 384.3872,92.2872 " fill="none" style="stroke:#000000;stroke-width:1.0416666666666667;"/><line style="stroke:#000000;stroke-width:1.0416666666666667;" x1="376.0539" x2="376.0539" y1="62.9659" y2="83.9539"/><path d="M367.7205,54.6326 C373.9705,54.6326 376.0539,56.7159 376.0539,62.9659 " fill="none" style="stroke:#000000;stroke-width:1.0416666666666667;"/><line style="stroke:#000000;stroke-width:1.0416666666666667;" x1="290.0157" x2="305.6407" y1="92.2872" y2="92.2872"/><line style="stroke:#000000;stroke-width:1.0416666666666667;" x1="368.7622" x2="384.3872" y1="92.2872" y2="92.2872"/><path d="M313.974,83.9539 C313.974,90.2039 316.0573,92.2872 322.3073,92.2872 " fill="none" style="stroke:#000000;stroke-width:1.0416666666666667;"/><line style="stroke:#000000;stroke-width:1.0416666666666667;" x1="313.974" x2="313.974" y1="79.6326" y2="83.9539"/><path d="M313.974,79.6326 C313.974,73.3826 316.0573,71.2992 322.3073,71.2992 " fill="none" style="stroke:#000000;stroke-width:1.0416666666666667;"/><line style="stroke:#000000;stroke-width:1.0416666666666667;" x1="321.2657" x2="353.1372" y1="71.2992" y2="71.2992"/><path d="M338.3053,71.2992 L338.3053,68.1742 L332.0553,71.2992 L338.3053,74.4242 L338.3053,71.2992 " fill="#000000" style="stroke:#000000;stroke-width:1.0416666666666667;"/><path d="M360.4289,83.9539 C360.4289,90.2039 358.3455,92.2872 352.0955,92.2872 " fill="none" style="stroke:#000000;stroke-width:1.0416666666666667;"/><line style="stroke:#000000;stroke-width:1.0416666666666667;" x1="360.4289" x2="360.4289" y1="79.6326" y2="83.9539"/><path d="M352.0955,71.2992 C358.3455,71.2992 360.4289,73.3826 360.4289,79.6326 " fill="none" style="stroke:#000000;stroke-width:1.0416666666666667;"/><line style="stroke:#000000;stroke-width:1.0416666666666667;" x1="305.6407" x2="321.2657" y1="92.2872" y2="92.2872"/><line style="stroke:#000000;stroke-width:1.0416666666666667;" x1="353.1372" x2="368.7622" y1="92.2872" y2="92.2872"/><rect fill="none" height="27.3926" style="stroke:#181818;stroke-width:1.0416666666666667;stroke-dasharray:5.0,5.0;" width="31.8715" x="321.2657" y="78.5909"/><text fill="#000000" font-family="sans-serif" font-size="14.5833" lengthAdjust="spacing" textLength="21.4549" x="326.474" y="97.3358">%s</text><line style="stroke:#000000;stroke-width:1.0416666666666667;" x1="113.6475" x2="138.6475" y1="92.2872" y2="92.2872"/><line style="stroke:#000000;stroke-width:1.0416666666666667;" x1="384.3872" x2="409.3872" y1="92.2872" y2="92.2872"/><path d="M146.9808,134.2631 C146.9808,140.5131 149.0641,142.5964 155.3141,142.5964 " fill="none" style="stroke:#000000;stroke-width:1.0416666666666667;"/><line style="stroke:#000000;stroke-width:1.0416666666666667;" x1="146.9808" x2="146.9808" y1="129.9418" y2="134.2631"/><path d="M146.9808,129.9418 C146.9808,123.6918 149.0641,121.6085 155.3141,121.6085 " fill="none" style="stroke:#000000;stroke-width:1.0416666666666667;"/><line style="stroke:#000000;stroke-width:1.0416666666666667;" x1="154.2725" x2="186.144" y1="121.6085" y2="121.6085"/><path d="M171.3121,121.6085 L171.3121,118.4835 L165.0621,121.6085 L171.3121,124.7335 L171.3121,121.6085 " fill="#000000" style="stroke:#000000;stroke-width:1.0416666666666667;"/><path d="M193.4357,134.2631 C193.4357,140.5131 191.3523,142.5964 185.1023,142.5964 " fill="none" style="stroke:#000000;stroke-width:1.0416666666666667;"/><line style="stroke:#000000;stroke-width:1.0416666666666667;" x1="193.4357" x2="193.4357" y1="129.9418" y2="134.2631"/><path d="M185.1023,121.6085 C191.3523,121.6085 193.4357,123.6918 193.4357,129.9418 " fill="none" style="stroke:#000000;stroke-width:1.0416666666666667;"/><line style="stroke:#000000;stroke-width:1.0416666666666667;" x1="138.6475" x2="154.2725" y1="142.5964" y2="142.5964"/><line style="stroke:#000000;stroke-width:1.0416666666666667;" x1="186.144" x2="201.769" y1="142.5964" y2="142.5964"/><rect fill="none" height="27.3926" style="stroke:#181818;stroke-width:1.0416666666666667;stroke-dasharray:5.0,5.0;" width="31.8715" x="154.2725" y="128.9001"/><text fill="#000000" font-family="sans-serif" font-size="14.5833" lengthAdjust="spacing" textLength="21.4549" x="159.4808" y="147.6451">%s</text><line style="stroke:#000000;stroke-width:1.0416666666666667;" x1="201.769" x2="384.3872" y1="142.5964" y2="142.5964"/><path d="M290.9948,142.5964 L290.9948,139.4714 L297.2448,142.5964 L290.9948,145.7214 L290.9948,142.5964 " fill="#000000" style="stroke:#000000;stroke-width:1.0416666666666667;"/><path d="M126.1475,130.0964 C126.1475,139.4714 129.2725,142.5964 138.6475,142.5964 " fill="none" style="stroke:#000000;stroke-width:1.0416666666666667;"/><line style="stroke:#000000;stroke-width:1.0416666666666667;" x1="126.1475" x2="126.1475" y1="104.7872" y2="130.0964"/><path d="M113.6475,92.2872 C123.0225,92.2872 126.1475,95.4122 126.1475,104.7872 " fill="none" style="stroke:#000000;stroke-width:1.0416666666666667;"/><path d="M396.8872,130.0964 C396.8872,139.4714 393.7622,142.5964 384.3872,142.5964 " fill="none" style="stroke:#000000;stroke-width:1.0416666666666667;"/><line style="stroke:#000000;stroke-width:1.0416666666666667;" x1="396.8872" x2="396.8872" y1="104.7872" y2="130.0964"/><path d="M396.8872,104.7872 C396.8872,95.4122 400.0122,92.2872 409.3872,92.2872 " fill="none" style="stroke:#000000;stroke-width:1.0416666666666667;"/><line style="stroke:#000000;stroke-width:1.0416666666666667;" x1="409.3872" x2="430.2205" y1="92.2872" y2="92.2872"/><line style="stroke:#000000;stroke-width:1.0416666666666667;" x1="455.2205" x2="455.2205" y1="92.2872" y2="92.2872"/><rect fill="none" height="27.3926" style="stroke:#181818;stroke-width:1.0416666666666667;stroke-dasharray:5.0,5.0;" width="33.5307" x="455.2205" y="78.5909"/><text fill="#000000" font-family="sans-serif" font-size="14.5833" lengthAdjust="spacing" textLength="23.114" x="460.4289" y="97.3358">%g</text><line style="stroke:#000000;stroke-width:1.0416666666666667;" x1="488.7512" x2="509.5846" y1="92.2872" y2="92.2872"/><path d="M517.9179,83.9539 C517.9179,90.2039 515.8346,92.2872 509.5846,92.2872 " fill="none" style="stroke:#000000;stroke-width:1.0416666666666667;"/><line style="stroke:#000000;stroke-width:1.0416666666666667;" x1="517.9179" x2="517.9179" y1="62.9659" y2="83.9539"/><path d="M517.9179,62.9659 C517.9179,56.7159 520.0012,54.6326 526.2512,54.6326 " fill="none" style="stroke:#000000;stroke-width:1.0416666666666667;"/><line style="stroke:#000000;stroke-width:1.0416666666666667;" x1="526.2512" x2="570.4702" y1="54.6326" y2="54.6326"/><path d="M541.8555,54.6326 L541.8555,51.5076 L548.1055,54.6326 L541.8555,57.7576 L541.8555,54.6326 " fill="#000000" style="stroke:#000000;stroke-width:1.0416666666666667;"/><path d="M578.8035,83.9539 C578.8035,90.2039 580.8868,92.2872 587.1368,92.2872 " fill="none" style="stroke:#000000;stroke-width:1.0416666666666667;"/><line style="stroke:#000000;stroke-width:1.0416666666666667;" x1="578.8035" x2="578.8035" y1="62.9659" y2="83.9539"/><path d="M570.4702,54.6326 C576.7202,54.6326 578.8035,56.7159 578.8035,62.9659 " fill="none" style="stroke:#000000;stroke-width:1.0416666666666667;"/><line style="stroke:#000000;stroke-width:1.0416666666666667;" x1="509.5846" x2="525.2096" y1="92.2872" y2="92.2872"/><line style="stroke:#000000;stroke-width:1.0416666666666667;" x1="571.5118" x2="587.1368" y1="92.2872" y2="92.2872"/><path d="M533.5429,83.9539 C533.5429,90.2039 535.6262,92.2872 541.8762,92.2872 " fill="none" style="stroke:#000000;stroke-width:1.0416666666666667;"/><line style="stroke:#000000;stroke-width:1.0416666666666667;" x1="533.5429" x2="533.5429" y1="79.6326" y2="83.9539"/><path d="M533.5429,79.6326 C533.5429,73.3826 535.6262,71.2992 541.8762,71.2992 " fill="none" style="stroke:#000000;stroke-width:1.0416666666666667;"/><line style="stroke:#000000;stroke-width:1.0416666666666667;" x1="540.8346" x2="555.8868" y1="71.2992" y2="71.2992"/><path d="M547.7826,71.2992 L547.7826,68.1742 L541.5326,71.2992 L547.7826,74.4242 L547.7826,71.2992 " fill="#000000" style="stroke:#000000;stroke-width:1.0416666666666667;"/><path d="M563.1785,83.9539 C563.1785,90.2039 561.0952,92.2872 554.8452,92.2872 " fill="none" style="stroke:#000000;stroke-width:1.0416666666666667;"/><line style="stroke:#000000;stroke-width:1.0416666666666667;" x1="563.1785" x2="563.1785" y1="79.6326" y2="83.9539"/><path d="M554.8452,71.2992 C561.0952,71.2992 563.1785,73.3826 563.1785,79.6326 " fill="none" style="stroke:#000000;stroke-width:1.0416666666666667;"/><line style="stroke:#000000;stroke-width:1.0416666666666667;" x1="525.2096" x2="540.8346" y1="92.2872" y2="92.2872"/><line style="stroke:#000000;stroke-width:1.0416666666666667;" x1="555.8868" x2="571.5118" y1="92.2872" y2="92.2872"/><rect fill="#F1F1F1" height="27.3926" rx="5.2083" ry="5.2083" style="stroke:#181818;stroke-width:1.5625;" width="15.0523" x="540.8346" y="78.5909"/><text fill="#000000" font-family="sans-serif" font-size="14.5833" lengthAdjust="spacing" textLength="4.6356" x="546.0429" y="97.3358">.</text><line style="stroke:#000000;stroke-width:1.0416666666666667;" x1="587.1368" x2="607.9702" y1="92.2872" y2="92.2872"/><rect fill="none" height="27.3926" style="stroke:#181818;stroke-width:1.0416666666666667;stroke-dasharray:5.0,5.0;" width="33.5307" x="607.9702" y="78.5909"/><text fill="#000000" font-family="sans-serif" font-size="14.5833" lengthAdjust="spacing" textLength="23.114" x="613.1785" y="97.3358">%g</text><line style="stroke:#000000;stroke-width:1.0416666666666667;" x1="430.2205" x2="455.2205" y1="92.2872" y2="92.2872"/><line style="stroke:#000000;stroke-width:1.0416666666666667;" x1="641.5009" x2="741.4836" y1="92.2872" y2="92.2872"/><line style="stroke:#000000;stroke-width:1.0416666666666667;" x1="455.2205" x2="455.2205" y1="159.2631" y2="159.2631"/><path d="M463.5539,150.9298 C463.5539,157.1798 461.4705,159.2631 455.2205,159.2631 " fill="none" style="stroke:#000000;stroke-width:1.0416666666666667;"/><line style="stroke:#000000;stroke-width:1.0416666666666667;" x1="463.5539" x2="463.5539" y1="129.9418" y2="150.9298"/><path d="M463.5539,129.9418 C463.5539,123.6918 465.6372,121.6085 471.8872,121.6085 " fill="none" style="stroke:#000000;stroke-width:1.0416666666666667;"/><line style="stroke:#000000;stroke-width:1.0416666666666667;" x1="471.8872" x2="516.1062" y1="121.6085" y2="121.6085"/><path d="M487.4915,121.6085 L487.4915,118.4835 L493.7415,121.6085 L487.4915,124.7335 L487.4915,121.6085 " fill="#000000" style="stroke:#000000;stroke-width:1.0416666666666667;"/><path d="M524.4395,150.9298 C524.4395,157.1798 526.5228,159.2631 532.7728,159.2631 " fill="none" style="stroke:#000000;stroke-width:1.0416666666666667;"/><line style="stroke:#000000;stroke-width:1.0416666666666667;" x1="524.4395" x2="524.4395" y1="129.9418" y2="150.9298"/><path d="M516.1062,121.6085 C522.3562,121.6085 524.4395,123.6918 524.4395,129.9418 " fill="none" style="stroke:#000000;stroke-width:1.0416666666666667;"/><line style="stroke:#000000;stroke-width:1.0416666666666667;" x1="455.2205" x2="470.8455" y1="159.2631" y2="159.2631"/><line style="stroke:#000000;stroke-width:1.0416666666666667;" x1="517.1478" x2="532.7728" y1="159.2631" y2="159.2631"/><path d="M479.1789,150.9298 C479.1789,157.1798 481.2622,159.2631 487.5122,159.2631 " fill="none" style="stroke:#000000;stroke-width:1.0416666666666667;"/><line style="stroke:#000000;stroke-width:1.0416666666666667;" x1="479.1789" x2="479.1789" y1="146.6085" y2="150.9298"/><path d="M479.1789,146.6085 C479.1789,140.3585 481.2622,138.2751 487.5122,138.2751 " fill="none" style="stroke:#000000;stroke-width:1.0416666666666667;"/><line style="stroke:#000000;stroke-width:1.0416666666666667;" x1="486.4705" x2="501.5228" y1="138.2751" y2="138.2751"/><path d="M493.4186,138.2751 L493.4186,135.1501 L487.1686,138.2751 L493.4186,141.4001 L493.4186,138.2751 " fill="#000000" style="stroke:#000000;stroke-width:1.0416666666666667;"/><path d="M508.8145,150.9298 C508.8145,157.1798 506.7312,159.2631 500.4812,159.2631 " fill="none" style="stroke:#000000;stroke-width:1.0416666666666667;"/><line style="stroke:#000000;stroke-width:1.0416666666666667;" x1="508.8145" x2="508.8145" y1="146.6085" y2="150.9298"/><path d="M500.4812,138.2751 C506.7312,138.2751 508.8145,140.3585 508.8145,146.6085 " fill="none" style="stroke:#000000;stroke-width:1.0416666666666667;"/><line style="stroke:#000000;stroke-width:1.0416666666666667;" x1="470.8455" x2="486.4705" y1="159.2631" y2="159.2631"/><line style="stroke:#000000;stroke-width:1.0416666666666667;" x1="501.5228" x2="517.1478" y1="159.2631" y2="159.2631"/><rect fill="#F1F1F1" height="27.3926" rx="5.2083" ry="5.2083" style="stroke:#181818;stroke-width:1.5625;" width="15.0523" x="486.4705" y="145.5668"/><text fill="#000000" font-family="sans-serif" font-size="14.5833" lengthAdjust="spacing" textLength="4.6356" x="491.6789" y="164.3117">.</text><line style="stroke:#000000;stroke-width:1.0416666666666667;" x1="532.7728" x2="553.6062" y1="159.2631" y2="159.2631"/><rect fill="none" height="27.3926" style="stroke:#181818;stroke-width:1.0416666666666667;stroke-dasharray:5.0,5.0;" width="64.4918" x="553.6062" y="145.5668"/><text fill="#000000" font-family="sans-serif" font-size="14.5833" lengthAdjust="spacing" textLength="54.0751" x="558.8145" y="164.3117">%pLN_.</text><line style="stroke:#000000;stroke-width:1.0416666666666667;" x1="618.0979" x2="638.9313" y1="159.2631" y2="159.2631"/><path d="M647.2646,150.9298 C647.2646,157.1798 645.1813,159.2631 638.9313,159.2631 " fill="none" style="stroke:#000000;stroke-width:1.0416666666666667;"/><line style="stroke:#000000;stroke-width:1.0416666666666667;" x1="647.2646" x2="647.2646" y1="129.9418" y2="150.9298"/><path d="M647.2646,129.9418 C647.2646,123.6918 649.3479,121.6085 655.5979,121.6085 " fill="none" style="stroke:#000000;stroke-width:1.0416666666666667;"/><line style="stroke:#000000;stroke-width:1.0416666666666667;" x1="655.5979" x2="699.8169" y1="121.6085" y2="121.6085"/><path d="M671.2022,121.6085 L671.2022,118.4835 L677.4522,121.6085 L671.2022,124.7335 L671.2022,121.6085 " fill="#000000" style="stroke:#000000;stroke-width:1.0416666666666667;"/><path d="M708.1502,150.9298 C708.1502,157.1798 710.2336,159.2631 716.4836,159.2631 " fill="none" style="stroke:#000000;stroke-width:1.0416666666666667;"/><line style="stroke:#000000;stroke-width:1.0416666666666667;" x1="708.1502" x2="708.1502" y1="129.9418" y2="150.9298"/><path d="M699.8169,121.6085 C706.0669,121.6085 708.1502,123.6918 708.1502,129.9418 " fill="none" style="stroke:#000000;stroke-width:1.0416666666666667;"/><line style="stroke:#000000;stroke-width:1.0416666666666667;" x1="638.9313" x2="654.5563" y1="159.2631" y2="159.2631"/><line style="stroke:#000000;stroke-width:1.0416666666666667;" x1="700.8586" x2="716.4836" y1="159.2631" y2="159.2631"/><path d="M662.8896,150.9298 C662.8896,157.1798 664.9729,159.2631 671.2229,159.2631 " fill="none" style="stroke:#000000;stroke-width:1.0416666666666667;"/><line style="stroke:#000000;stroke-width:1.0416666666666667;" x1="662.8896" x2="662.8896" y1="146.6085" y2="150.9298"/><path d="M662.8896,146.6085 C662.8896,140.3585 664.9729,138.2751 671.2229,138.2751 " fill="none" style="stroke:#000000;stroke-width:1.0416666666666667;"/><line style="stroke:#000000;stroke-width:1.0416666666666667;" x1="670.1813" x2="685.2336" y1="138.2751" y2="138.2751"/><path d="M677.1293,138.2751 L677.1293,135.1501 L670.8793,138.2751 L677.1293,141.4001 L677.1293,138.2751 " fill="#000000" style="stroke:#000000;stroke-width:1.0416666666666667;"/><path d="M692.5252,150.9298 C692.5252,157.1798 690.4419,159.2631 684.1919,159.2631 " fill="none" style="stroke:#000000;stroke-width:1.0416666666666667;"/><line style="stroke:#000000;stroke-width:1.0416666666666667;" x1="692.5252" x2="692.5252" y1="146.6085" y2="150.9298"/><path d="M684.1919,138.2751 C690.4419,138.2751 692.5252,140.3585 692.5252,146.6085 " fill="none" style="stroke:#000000;stroke-width:1.0416666666666667;"/><line style="stroke:#000000;stroke-width:1.0416666666666667;" x1="654.5563" x2="670.1813" y1="159.2631" y2="159.2631"/><line style="stroke:#000000;stroke-width:1.0416666666666667;" x1="685.2336" x2="700.8586" y1="159.2631" y2="159.2631"/><rect fill="#F1F1F1" height="27.3926" rx="5.2083" ry="5.2083" style="stroke:#181818;stroke-width:1.5625;" width="15.0523" x="670.1813" y="145.5668"/><text fill="#000000" font-family="sans-serif" font-size="14.5833" lengthAdjust="spacing" textLength="4.6356" x="675.3896" y="164.3117">.</text><line style="stroke:#000000;stroke-width:1.0416666666666667;" x1="716.4836" x2="716.4836" y1="159.2631" y2="159.2631"/><path d="M442.7205,146.7631 C442.7205,156.1381 445.8455,159.2631 455.2205,159.2631 " fill="none" style="stroke:#000000;stroke-width:1.0416666666666667;"/><line style="stroke:#000000;stroke-width:1.0416666666666667;" x1="442.7205" x2="442.7205" y1="104.7872" y2="146.7631"/><path d="M430.2205,92.2872 C439.5955,92.2872 442.7205,95.4122 442.7205,104.7872 " fill="none" style="stroke:#000000;stroke-width:1.0416666666666667;"/><path d="M728.9836,146.7631 C728.9836,156.1381 725.8586,159.2631 716.4836,159.2631 " fill="none" style="stroke:#000000;stroke-width:1.0416666666666667;"/><line style="stroke:#000000;stroke-width:1.0416666666666667;" x1="728.9836" x2="728.9836" y1="104.7872" y2="146.7631"/><path d="M728.9836,104.7872 C728.9836,95.4122 732.1086,92.2872 741.4836,92.2872 " fill="none" style="stroke:#000000;stroke-width:1.0416666666666667;"/><line style="stroke:#000000;stroke-width:1.0416666666666667;" x1="741.4836" x2="762.3169" y1="92.2872" y2="92.2872"/><rect fill="#F1F1F1" height="27.3926" rx="5.2083" ry="5.2083" style="stroke:#181818;stroke-width:1.5625;" width="19.695" x="762.3169" y="78.5909"/><text fill="#000000" font-family="sans-serif" font-size="14.5833" lengthAdjust="spacing" textLength="9.2784" x="767.5252" y="97.3358">$</text></g></svg>