<svg xmlns="http://www.w3.org/2000/svg" xmlns:xlink="http://www.w3.org/1999/xlink" contentStyleType="text/css" height="225px" preserveAspectRatio="none" style="width:698px;height:225px;background:#D9D3D0;" version="1.1" viewBox="0 0 698 225" width="698px" zoomAndPan="magnify"><title>How title is parsed by PlantUML?</title><defs/><g><rect fill="#D9D3D0" height="225" style="stroke:none;stroke-width:1;" width="698" x="0" y="0"/><text fill="#9275B6" font-family="Verdana" font-size="22" font-weight="bold" lengthAdjust="spacing" textLength="410.3408" x="143.0967" y="35.4209">How title is parsed by PlantUML?</text><line style="stroke:#9275B6;stroke-width:1;" x1="5" x2="5" y1="95.9063" y2="95.9063"/><rect fill="#D9D3D0" height="26.2969" rx="5" ry="5" style="stroke:#9275B6;stroke-width:1.5;" width="21.7305" x="5" y="82.7578"/><text fill="#9275B6" font-family="Verdana" font-size="14" lengthAdjust="spacing" textLength="11.7305" x="10" y="100.7529">^</text><line style="stroke:#9275B6;stroke-width:1;" x1="26.7305" x2="46.7305" y1="95.9063" y2="95.9063"/><rect fill="none" height="26.2969" style="stroke:#9275B6;stroke-width:0.5;" width="37.3711" x="46.7305" y="82.7578"/><text fill="#9275B6" font-family="Verdana" font-size="14" lengthAdjust="spacing" textLength="27.3711" x="51.7305" y="100.7529">title</text><line style="stroke:#9275B6;stroke-width:1;" x1="84.1016" x2="104.1016" y1="95.9063" y2="95.9063"/><line style="stroke:#9275B6;stroke-width:1;" x1="128.1016" x2="128.1016" y1="95.9063" y2="95.9063"/><path d="M136.1016,87.9063 C136.1016,93.9063 134.1016,95.9063 128.1016,95.9063 " fill="none" style="stroke:#9275B6;stroke-width:1;"/><line style="stroke:#9275B6;stroke-width:1;" x1="136.1016" x2="136.1016" y1="64.6094" y2="87.9063"/><path d="M136.1016,64.6094 C136.1016,58.6094 138.1016,56.6094 144.1016,56.6094 " fill="none" style="stroke:#9275B6;stroke-width:1;"/><line style="stroke:#9275B6;stroke-width:1;" x1="144.1016" x2="195.4043" y1="56.6094" y2="56.6094"/><path d="M162.6227,56.6094 L162.6227,53.6094 L168.6227,56.6094 L162.6227,59.6094 L162.6227,56.6094 " fill="#9275B6" style="stroke:#9275B6;stroke-width:1;"/><path d="M203.4043,87.9063 C203.4043,93.9063 205.4043,95.9063 211.4043,95.9063 " fill="none" style="stroke:#9275B6;stroke-width:1;"/><line style="stroke:#9275B6;stroke-width:1;" x1="203.4043" x2="203.4043" y1="64.6094" y2="87.9063"/><path d="M195.4043,56.6094 C201.4043,56.6094 203.4043,58.6094 203.4043,64.6094 " fill="none" style="stroke:#9275B6;stroke-width:1;"/><line style="stroke:#9275B6;stroke-width:1;" x1="128.1016" x2="143.1016" y1="95.9063" y2="95.9063"/><line style="stroke:#9275B6;stroke-width:1;" x1="196.4043" x2="211.4043" y1="95.9063" y2="95.9063"/><path d="M151.1016,87.9063 C151.1016,93.9063 153.1016,95.9063 159.1016,95.9063 " fill="none" style="stroke:#9275B6;stroke-width:1;"/><line style="stroke:#9275B6;stroke-width:1;" x1="151.1016" x2="151.1016" y1="80.6094" y2="87.9063"/><path d="M151.1016,80.6094 C151.1016,74.6094 153.1016,72.6094 159.1016,72.6094 " fill="none" style="stroke:#9275B6;stroke-width:1;"/><line style="stroke:#9275B6;stroke-width:1;" x1="158.1016" x2="181.4043" y1="72.6094" y2="72.6094"/><path d="M170.0832,72.6094 L170.0832,69.6094 L164.0832,72.6094 L170.0832,75.6094 L170.0832,72.6094 " fill="#9275B6" style="stroke:#9275B6;stroke-width:1;"/><path d="M188.4043,87.9063 C188.4043,93.9063 186.4043,95.9063 180.4043,95.9063 " fill="none" style="stroke:#9275B6;stroke-width:1;"/><line style="stroke:#9275B6;stroke-width:1;" x1="188.4043" x2="188.4043" y1="80.6094" y2="87.9063"/><path d="M180.4043,72.6094 C186.4043,72.6094 188.4043,74.6094 188.4043,80.6094 " fill="none" style="stroke:#9275B6;stroke-width:1;"/><line style="stroke:#9275B6;stroke-width:1;" x1="143.1016" x2="158.1016" y1="95.9063" y2="95.9063"/><line style="stroke:#9275B6;stroke-width:1;" x1="181.4043" x2="196.4043" y1="95.9063" y2="95.9063"/><rect fill="none" height="32.5938" style="stroke:#9275B6;stroke-width:1;stroke-dasharray:5.0,5.0;" width="23.3027" x="158.1016" y="79.6094"/><text fill="#9275B6" font-family="Verdana" font-size="14" lengthAdjust="spacing" textLength="13.3027" x="163.1016" y="92.6045">%</text><text fill="#9275B6" font-family="Verdana" font-size="14" lengthAdjust="spacing" textLength="7.2939" x="163.1016" y="108.9014">s</text><line style="stroke:#9275B6;stroke-width:0.3;" x1="158.1016" x2="181.4043" y1="95.9063" y2="95.9063"/><line style="stroke:#9275B6;stroke-width:1;" x1="211.4043" x2="231.4043" y1="95.9063" y2="95.9063"/><rect fill="none" height="26.2969" style="stroke:#9275B6;stroke-width:0.5;" width="14.7168" x="231.4043" y="82.7578"/><text fill="#9275B6" font-family="Verdana" font-size="14" lengthAdjust="spacing" textLength="4.7168" x="236.4043" y="100.7529">:</text><line style="stroke:#9275B6;stroke-width:1;" x1="246.1211" x2="266.1211" y1="95.9063" y2="95.9063"/><path d="M274.1211,87.9063 C274.1211,93.9063 272.1211,95.9063 266.1211,95.9063 " fill="none" style="stroke:#9275B6;stroke-width:1;"/><line style="stroke:#9275B6;stroke-width:1;" x1="274.1211" x2="274.1211" y1="64.6094" y2="87.9063"/><path d="M274.1211,64.6094 C274.1211,58.6094 276.1211,56.6094 282.1211,56.6094 " fill="none" style="stroke:#9275B6;stroke-width:1;"/><line style="stroke:#9275B6;stroke-width:1;" x1="282.1211" x2="333.4238" y1="56.6094" y2="56.6094"/><path d="M300.6422,56.6094 L300.6422,53.6094 L306.6422,56.6094 L300.6422,59.6094 L300.6422,56.6094 " fill="#9275B6" style="stroke:#9275B6;stroke-width:1;"/><path d="M341.4238,87.9063 C341.4238,93.9063 343.4238,95.9063 349.4238,95.9063 " fill="none" style="stroke:#9275B6;stroke-width:1;"/><line style="stroke:#9275B6;stroke-width:1;" x1="341.4238" x2="341.4238" y1="64.6094" y2="87.9063"/><path d="M333.4238,56.6094 C339.4238,56.6094 341.4238,58.6094 341.4238,64.6094 " fill="none" style="stroke:#9275B6;stroke-width:1;"/><line style="stroke:#9275B6;stroke-width:1;" x1="266.1211" x2="281.1211" y1="95.9063" y2="95.9063"/><line style="stroke:#9275B6;stroke-width:1;" x1="334.4238" x2="349.4238" y1="95.9063" y2="95.9063"/><path d="M289.1211,87.9063 C289.1211,93.9063 291.1211,95.9063 297.1211,95.9063 " fill="none" style="stroke:#9275B6;stroke-width:1;"/><line style="stroke:#9275B6;stroke-width:1;" x1="289.1211" x2="289.1211" y1="80.6094" y2="87.9063"/><path d="M289.1211,80.6094 C289.1211,74.6094 291.1211,72.6094 297.1211,72.6094 " fill="none" style="stroke:#9275B6;stroke-width:1;"/><line style="stroke:#9275B6;stroke-width:1;" x1="296.1211" x2="319.4238" y1="72.6094" y2="72.6094"/><path d="M308.1027,72.6094 L308.1027,69.6094 L302.1027,72.6094 L308.1027,75.6094 L308.1027,72.6094 " fill="#9275B6" style="stroke:#9275B6;stroke-width:1;"/><path d="M326.4238,87.9063 C326.4238,93.9063 324.4238,95.9063 318.4238,95.9063 " fill="none" style="stroke:#9275B6;stroke-width:1;"/><line style="stroke:#9275B6;stroke-width:1;" x1="326.4238" x2="326.4238" y1="80.6094" y2="87.9063"/><path d="M318.4238,72.6094 C324.4238,72.6094 326.4238,74.6094 326.4238,80.6094 " fill="none" style="stroke:#9275B6;stroke-width:1;"/><line style="stroke:#9275B6;stroke-width:1;" x1="281.1211" x2="296.1211" y1="95.9063" y2="95.9063"/><line style="stroke:#9275B6;stroke-width:1;" x1="319.4238" x2="334.4238" y1="95.9063" y2="95.9063"/><rect fill="none" height="32.5938" style="stroke:#9275B6;stroke-width:1;stroke-dasharray:5.0,5.0;" width="23.3027" x="296.1211" y="79.6094"/><text fill="#9275B6" font-family="Verdana" font-size="14" lengthAdjust="spacing" textLength="13.3027" x="301.1211" y="92.6045">%</text><text fill="#9275B6" font-family="Verdana" font-size="14" lengthAdjust="spacing" textLength="7.2939" x="301.1211" y="108.9014">s</text><line style="stroke:#9275B6;stroke-width:0.3;" x1="296.1211" x2="319.4238" y1="95.9063" y2="95.9063"/><line style="stroke:#9275B6;stroke-width:1;" x1="104.1016" x2="128.1016" y1="95.9063" y2="95.9063"/><line style="stroke:#9275B6;stroke-width:1;" x1="349.4238" x2="373.4238" y1="95.9063" y2="95.9063"/><path d="M136.1016,142.5 C136.1016,148.5 138.1016,150.5 144.1016,150.5 " fill="none" style="stroke:#9275B6;stroke-width:1;"/><line style="stroke:#9275B6;stroke-width:1;" x1="136.1016" x2="136.1016" y1="135.2031" y2="142.5"/><path d="M136.1016,135.2031 C136.1016,129.2031 138.1016,127.2031 144.1016,127.2031 " fill="none" style="stroke:#9275B6;stroke-width:1;"/><line style="stroke:#9275B6;stroke-width:1;" x1="143.1016" x2="166.4043" y1="127.2031" y2="127.2031"/><path d="M155.0832,127.2031 L155.0832,124.2031 L149.0832,127.2031 L155.0832,130.2031 L155.0832,127.2031 " fill="#9275B6" style="stroke:#9275B6;stroke-width:1;"/><path d="M173.4043,142.5 C173.4043,148.5 171.4043,150.5 165.4043,150.5 " fill="none" style="stroke:#9275B6;stroke-width:1;"/><line style="stroke:#9275B6;stroke-width:1;" x1="173.4043" x2="173.4043" y1="135.2031" y2="142.5"/><path d="M165.4043,127.2031 C171.4043,127.2031 173.4043,129.2031 173.4043,135.2031 " fill="none" style="stroke:#9275B6;stroke-width:1;"/><line style="stroke:#9275B6;stroke-width:1;" x1="128.1016" x2="143.1016" y1="150.5" y2="150.5"/><line style="stroke:#9275B6;stroke-width:1;" x1="166.4043" x2="181.4043" y1="150.5" y2="150.5"/><rect fill="none" height="32.5938" style="stroke:#9275B6;stroke-width:1;stroke-dasharray:5.0,5.0;" width="23.3027" x="143.1016" y="134.2031"/><text fill="#9275B6" font-family="Verdana" font-size="14" lengthAdjust="spacing" textLength="13.3027" x="148.1016" y="147.1982">%</text><text fill="#9275B6" font-family="Verdana" font-size="14" lengthAdjust="spacing" textLength="7.2939" x="148.1016" y="163.4951">s</text><line style="stroke:#9275B6;stroke-width:0.3;" x1="143.1016" x2="166.4043" y1="150.5" y2="150.5"/><line style="stroke:#9275B6;stroke-width:1;" x1="181.4043" x2="349.4238" y1="150.5" y2="150.5"/><path d="M263.4141,150.5 L263.4141,147.5 L269.4141,150.5 L263.4141,153.5 L263.4141,150.5 " fill="#9275B6" style="stroke:#9275B6;stroke-width:1;"/><path d="M116.1016,138.5 C116.1016,147.5 119.1016,150.5 128.1016,150.5 " fill="none" style="stroke:#9275B6;stroke-width:1;"/><line style="stroke:#9275B6;stroke-width:1;" x1="116.1016" x2="116.1016" y1="107.9063" y2="138.5"/><path d="M104.1016,95.9063 C113.1016,95.9063 116.1016,98.9063 116.1016,107.9063 " fill="none" style="stroke:#9275B6;stroke-width:1;"/><path d="M361.4238,138.5 C361.4238,147.5 358.4238,150.5 349.4238,150.5 " fill="none" style="stroke:#9275B6;stroke-width:1;"/><line style="stroke:#9275B6;stroke-width:1;" x1="361.4238" x2="361.4238" y1="107.9063" y2="138.5"/><path d="M361.4238,107.9063 C361.4238,98.9063 364.4238,95.9063 373.4238,95.9063 " fill="none" style="stroke:#9275B6;stroke-width:1;"/><line style="stroke:#9275B6;stroke-width:1;" x1="373.4238" x2="393.4238" y1="95.9063" y2="95.9063"/><line style="stroke:#9275B6;stroke-width:1;" x1="417.4238" x2="417.4238" y1="95.9063" y2="95.9063"/><rect fill="none" height="32.5938" style="stroke:#9275B6;stroke-width:1;stroke-dasharray:5.0,5.0;" width="23.3027" x="417.4238" y="79.6094"/><text fill="#9275B6" font-family="Verdana" font-size="14" lengthAdjust="spacing" textLength="13.3027" x="422.4238" y="92.6045">%</text><text fill="#9275B6" font-family="Verdana" font-size="14" lengthAdjust="spacing" textLength="8.8867" x="422.4238" y="108.9014">g</text><line style="stroke:#9275B6;stroke-width:0.3;" x1="417.4238" x2="440.7266" y1="95.9063" y2="95.9063"/><line style="stroke:#9275B6;stroke-width:1;" x1="440.7266" x2="460.7266" y1="95.9063" y2="95.9063"/><path d="M468.7266,87.9063 C468.7266,93.9063 466.7266,95.9063 460.7266,95.9063 " fill="none" style="stroke:#9275B6;stroke-width:1;"/><line style="stroke:#9275B6;stroke-width:1;" x1="468.7266" x2="468.7266" y1="67.7578" y2="87.9063"/><path d="M468.7266,67.7578 C468.7266,61.7578 470.7266,59.7578 476.7266,59.7578 " fill="none" style="stroke:#9275B6;stroke-width:1;"/><line style="stroke:#9275B6;stroke-width:1;" x1="476.7266" x2="519.1768" y1="59.7578" y2="59.7578"/><path d="M491.7066,59.7578 L491.7066,56.7578 L497.7066,59.7578 L491.7066,62.7578 L491.7066,59.7578 " fill="#9275B6" style="stroke:#9275B6;stroke-width:1;"/><path d="M527.1768,87.9063 C527.1768,93.9063 529.1768,95.9063 535.1768,95.9063 " fill="none" style="stroke:#9275B6;stroke-width:1;"/><line style="stroke:#9275B6;stroke-width:1;" x1="527.1768" x2="527.1768" y1="67.7578" y2="87.9063"/><path d="M519.1768,59.7578 C525.1768,59.7578 527.1768,61.7578 527.1768,67.7578 " fill="none" style="stroke:#9275B6;stroke-width:1;"/><line style="stroke:#9275B6;stroke-width:1;" x1="460.7266" x2="475.7266" y1="95.9063" y2="95.9063"/><line style="stroke:#9275B6;stroke-width:1;" x1="520.1768" x2="535.1768" y1="95.9063" y2="95.9063"/><path d="M483.7266,87.9063 C483.7266,93.9063 485.7266,95.9063 491.7266,95.9063 " fill="none" style="stroke:#9275B6;stroke-width:1;"/><line style="stroke:#9275B6;stroke-width:1;" x1="483.7266" x2="483.7266" y1="83.7578" y2="87.9063"/><path d="M483.7266,83.7578 C483.7266,77.7578 485.7266,75.7578 491.7266,75.7578 " fill="none" style="stroke:#9275B6;stroke-width:1;"/><line style="stroke:#9275B6;stroke-width:1;" x1="490.7266" x2="505.1768" y1="75.7578" y2="75.7578"/><path d="M497.3967,75.7578 L497.3967,72.7578 L491.3967,75.7578 L497.3967,78.7578 L497.3967,75.7578 " fill="#9275B6" style="stroke:#9275B6;stroke-width:1;"/><path d="M512.1768,87.9063 C512.1768,93.9063 510.1768,95.9063 504.1768,95.9063 " fill="none" style="stroke:#9275B6;stroke-width:1;"/><line style="stroke:#9275B6;stroke-width:1;" x1="512.1768" x2="512.1768" y1="83.7578" y2="87.9063"/><path d="M504.1768,75.7578 C510.1768,75.7578 512.1768,77.7578 512.1768,83.7578 " fill="none" style="stroke:#9275B6;stroke-width:1;"/><line style="stroke:#9275B6;stroke-width:1;" x1="475.7266" x2="490.7266" y1="95.9063" y2="95.9063"/><line style="stroke:#9275B6;stroke-width:1;" x1="505.1768" x2="520.1768" y1="95.9063" y2="95.9063"/><rect fill="#D9D3D0" height="26.2969" rx="5" ry="5" style="stroke:#9275B6;stroke-width:1.5;" width="14.4502" x="490.7266" y="82.7578"/><text fill="#9275B6" font-family="Verdana" font-size="14" lengthAdjust="spacing" textLength="4.4502" x="495.7266" y="100.7529">.</text><line style="stroke:#9275B6;stroke-width:1;" x1="535.1768" x2="555.1768" y1="95.9063" y2="95.9063"/><rect fill="none" height="32.5938" style="stroke:#9275B6;stroke-width:1;stroke-dasharray:5.0,5.0;" width="23.3027" x="555.1768" y="79.6094"/><text fill="#9275B6" font-family="Verdana" font-size="14" lengthAdjust="spacing" textLength="13.3027" x="560.1768" y="92.6045">%</text><text fill="#9275B6" font-family="Verdana" font-size="14" lengthAdjust="spacing" textLength="8.8867" x="560.1768" y="108.9014">g</text><line style="stroke:#9275B6;stroke-width:0.3;" x1="555.1768" x2="578.4795" y1="95.9063" y2="95.9063"/><line style="stroke:#9275B6;stroke-width:1;" x1="393.4238" x2="417.4238" y1="95.9063" y2="95.9063"/><line style="stroke:#9275B6;stroke-width:1;" x1="578.4795" x2="653.627" y1="95.9063" y2="95.9063"/><line style="stroke:#9275B6;stroke-width:1;" x1="417.4238" x2="417.4238" y1="171.0938" y2="171.0938"/><path d="M425.4238,163.0938 C425.4238,169.0938 423.4238,171.0938 417.4238,171.0938 " fill="none" style="stroke:#9275B6;stroke-width:1;"/><line style="stroke:#9275B6;stroke-width:1;" x1="425.4238" x2="425.4238" y1="142.9453" y2="163.0938"/><path d="M425.4238,142.9453 C425.4238,136.9453 427.4238,134.9453 433.4238,134.9453 " fill="none" style="stroke:#9275B6;stroke-width:1;"/><line style="stroke:#9275B6;stroke-width:1;" x1="433.4238" x2="475.874" y1="134.9453" y2="134.9453"/><path d="M448.4039,134.9453 L448.4039,131.9453 L454.4039,134.9453 L448.4039,137.9453 L448.4039,134.9453 " fill="#9275B6" style="stroke:#9275B6;stroke-width:1;"/><path d="M483.874,163.0938 C483.874,169.0938 485.874,171.0938 491.874,171.0938 " fill="none" style="stroke:#9275B6;stroke-width:1;"/><line style="stroke:#9275B6;stroke-width:1;" x1="483.874" x2="483.874" y1="142.9453" y2="163.0938"/><path d="M475.874,134.9453 C481.874,134.9453 483.874,136.9453 483.874,142.9453 " fill="none" style="stroke:#9275B6;stroke-width:1;"/><line style="stroke:#9275B6;stroke-width:1;" x1="417.4238" x2="432.4238" y1="171.0938" y2="171.0938"/><line style="stroke:#9275B6;stroke-width:1;" x1="476.874" x2="491.874" y1="171.0938" y2="171.0938"/><path d="M440.4238,163.0938 C440.4238,169.0938 442.4238,171.0938 448.4238,171.0938 " fill="none" style="stroke:#9275B6;stroke-width:1;"/><line style="stroke:#9275B6;stroke-width:1;" x1="440.4238" x2="440.4238" y1="158.9453" y2="163.0938"/><path d="M440.4238,158.9453 C440.4238,152.9453 442.4238,150.9453 448.4238,150.9453 " fill="none" style="stroke:#9275B6;stroke-width:1;"/><line style="stroke:#9275B6;stroke-width:1;" x1="447.4238" x2="461.874" y1="150.9453" y2="150.9453"/><path d="M454.0939,150.9453 L454.0939,147.9453 L448.0939,150.9453 L454.0939,153.9453 L454.0939,150.9453 " fill="#9275B6" style="stroke:#9275B6;stroke-width:1;"/><path d="M468.874,163.0938 C468.874,169.0938 466.874,171.0938 460.874,171.0938 " fill="none" style="stroke:#9275B6;stroke-width:1;"/><line style="stroke:#9275B6;stroke-width:1;" x1="468.874" x2="468.874" y1="158.9453" y2="163.0938"/><path d="M460.874,150.9453 C466.874,150.9453 468.874,152.9453 468.874,158.9453 " fill="none" style="stroke:#9275B6;stroke-width:1;"/><line style="stroke:#9275B6;stroke-width:1;" x1="432.4238" x2="447.4238" y1="171.0938" y2="171.0938"/><line style="stroke:#9275B6;stroke-width:1;" x1="461.874" x2="476.874" y1="171.0938" y2="171.0938"/><rect fill="#D9D3D0" height="26.2969" rx="5" ry="5" style="stroke:#9275B6;stroke-width:1.5;" width="14.4502" x="447.4238" y="157.9453"/><text fill="#9275B6" font-family="Verdana" font-size="14" lengthAdjust="spacing" textLength="4.4502" x="452.4238" y="175.9404">.</text><line style="stroke:#9275B6;stroke-width:1;" x1="491.874" x2="511.874" y1="171.0938" y2="171.0938"/><rect fill="none" height="97.7813" style="stroke:#9275B6;stroke-width:1;stroke-dasharray:5.0,5.0;" width="23.3027" x="511.874" y="122.2031"/><text fill="#9275B6" font-family="Verdana" font-size="14" lengthAdjust="spacing" textLength="13.3027" x="516.874" y="135.1982">%</text><text fill="#9275B6" font-family="Verdana" font-size="14" lengthAdjust="spacing" textLength="8.8867" x="516.874" y="151.4951">p</text><line style="stroke:#9275B6;stroke-width:0.3;" x1="511.874" x2="535.1768" y1="138.5" y2="138.5"/><text fill="#9275B6" font-family="Verdana" font-size="14" lengthAdjust="spacing" textLength="7.7998" x="516.874" y="167.792">L</text><line style="stroke:#9275B6;stroke-width:0.3;" x1="511.874" x2="535.1768" y1="154.7969" y2="154.7969"/><text fill="#9275B6" font-family="Verdana" font-size="14" lengthAdjust="spacing" textLength="10.4727" x="516.874" y="184.0889">N</text><line style="stroke:#9275B6;stroke-width:0.3;" x1="511.874" x2="535.1768" y1="171.0938" y2="171.0938"/><text fill="#9275B6" font-family="Verdana" font-size="14" lengthAdjust="spacing" textLength="7" x="516.874" y="200.3857">_</text><line style="stroke:#9275B6;stroke-width:0.3;" x1="511.874" x2="535.1768" y1="187.3906" y2="187.3906"/><text fill="#9275B6" font-family="Verdana" font-size="14" lengthAdjust="spacing" textLength="4.4502" x="516.874" y="216.6826">.</text><line style="stroke:#9275B6;stroke-width:0.3;" x1="511.874" x2="535.1768" y1="203.6875" y2="203.6875"/><line style="stroke:#9275B6;stroke-width:1;" x1="535.1768" x2="555.1768" y1="171.0938" y2="171.0938"/><path d="M563.1768,163.0938 C563.1768,169.0938 561.1768,171.0938 555.1768,171.0938 " fill="none" style="stroke:#9275B6;stroke-width:1;"/><line style="stroke:#9275B6;stroke-width:1;" x1="563.1768" x2="563.1768" y1="142.9453" y2="163.0938"/><path d="M563.1768,142.9453 C563.1768,136.9453 565.1768,134.9453 571.1768,134.9453 " fill="none" style="stroke:#9275B6;stroke-width:1;"/><line style="stroke:#9275B6;stroke-width:1;" x1="571.1768" x2="613.627" y1="134.9453" y2="134.9453"/><path d="M586.1568,134.9453 L586.1568,131.9453 L592.1568,134.9453 L586.1568,137.9453 L586.1568,134.9453 " fill="#9275B6" style="stroke:#9275B6;stroke-width:1;"/><path d="M621.627,163.0938 C621.627,169.0938 623.627,171.0938 629.627,171.0938 " fill="none" style="stroke:#9275B6;stroke-width:1;"/><line style="stroke:#9275B6;stroke-width:1;" x1="621.627" x2="621.627" y1="142.9453" y2="163.0938"/><path d="M613.627,134.9453 C619.627,134.9453 621.627,136.9453 621.627,142.9453 " fill="none" style="stroke:#9275B6;stroke-width:1;"/><line style="stroke:#9275B6;stroke-width:1;" x1="555.1768" x2="570.1768" y1="171.0938" y2="171.0938"/><line style="stroke:#9275B6;stroke-width:1;" x1="614.627" x2="629.627" y1="171.0938" y2="171.0938"/><path d="M578.1768,163.0938 C578.1768,169.0938 580.1768,171.0938 586.1768,171.0938 " fill="none" style="stroke:#9275B6;stroke-width:1;"/><line style="stroke:#9275B6;stroke-width:1;" x1="578.1768" x2="578.1768" y1="158.9453" y2="163.0938"/><path d="M578.1768,158.9453 C578.1768,152.9453 580.1768,150.9453 586.1768,150.9453 " fill="none" style="stroke:#9275B6;stroke-width:1;"/><line style="stroke:#9275B6;stroke-width:1;" x1="585.1768" x2="599.627" y1="150.9453" y2="150.9453"/><path d="M591.8469,150.9453 L591.8469,147.9453 L585.8469,150.9453 L591.8469,153.9453 L591.8469,150.9453 " fill="#9275B6" style="stroke:#9275B6;stroke-width:1;"/><path d="M606.627,163.0938 C606.627,169.0938 604.627,171.0938 598.627,171.0938 " fill="none" style="stroke:#9275B6;stroke-width:1;"/><line style="stroke:#9275B6;stroke-width:1;" x1="606.627" x2="606.627" y1="158.9453" y2="163.0938"/><path d="M598.627,150.9453 C604.627,150.9453 606.627,152.9453 606.627,158.9453 " fill="none" style="stroke:#9275B6;stroke-width:1;"/><line style="stroke:#9275B6;stroke-width:1;" x1="570.1768" x2="585.1768" y1="171.0938" y2="171.0938"/><line style="stroke:#9275B6;stroke-width:1;" x1="599.627" x2="614.627" y1="171.0938" y2="171.0938"/><rect fill="#D9D3D0" height="26.2969" rx="5" ry="5" style="stroke:#9275B6;stroke-width:1.5;" width="14.4502" x="585.1768" y="157.9453"/><text fill="#9275B6" font-family="Verdana" font-size="14" lengthAdjust="spacing" textLength="4.4502" x="590.1768" y="175.9404">.</text><line style="stroke:#9275B6;stroke-width:1;" x1="629.627" x2="629.627" y1="171.0938" y2="171.0938"/><path d="M405.4238,159.0938 C405.4238,168.0938 408.4238,171.0938 417.4238,171.0938 " fill="none" style="stroke:#9275B6;stroke-width:1;"/><line style="stroke:#9275B6;stroke-width:1;" x1="405.4238" x2="405.4238" y1="107.9063" y2="159.0938"/><path d="M393.4238,95.9063 C402.4238,95.9063 405.4238,98.9063 405.4238,107.9063 " fill="none" style="stroke:#9275B6;stroke-width:1;"/><path d="M641.627,159.0938 C641.627,168.0938 638.627,171.0938 629.627,171.0938 " fill="none" style="stroke:#9275B6;stroke-width:1;"/><line style="stroke:#9275B6;stroke-width:1;" x1="641.627" x2="641.627" y1="107.9063" y2="159.0938"/><path d="M641.627,107.9063 C641.627,98.9063 644.627,95.9063 653.627,95.9063 " fill="none" style="stroke:#9275B6;stroke-width:1;"/><line style="stroke:#9275B6;stroke-width:1;" x1="653.627" x2="673.627" y1="95.9063" y2="95.9063"/><rect fill="#D9D3D0" height="26.2969" rx="5" ry="5" style="stroke:#9275B6;stroke-width:1.5;" width="18.9072" x="673.627" y="82.7578"/><text fill="#9275B6" font-family="Verdana" font-size="14" lengthAdjust="spacing" textLength="8.9072" x="678.627" y="100.7529">$</text></g></svg>