<svg xmlns="http://www.w3.org/2000/svg" xmlns:xlink="http://www.w3.org/1999/xlink" contentStyleType="text/css" data-diagram-type="REGEX" height="257px" preserveAspectRatio="none" style="width:780px;height:257px;" version="1.1" viewBox="0 0 780 257" width="780px" zoomAndPan="magnify"><title>How title is parsed by PlantUML?</title><defs/><g><g class="title" data-source-line="6"><text fill="#262626" font-family="'IBM Plex Sans, Noto Sans, Verdana'" font-size="20" font-weight="bold" lengthAdjust="spacing" textLength="373.0371" x="202.7485" y="48.5645">How title is parsed by PlantUML?</text></g><line style="stroke:#181818;stroke-width:1;" x1="10" x2="10" y1="90.5781" y2="90.5781"/><rect fill="#F1F1F1" height="26.2969" rx="5" ry="5" style="stroke:#181818;stroke-width:1.5;" width="21.7305" x="10" y="77.4297"/><text fill="#000000" font-family="sans-serif" font-size="14" lengthAdjust="spacing" textLength="11.7305" x="15" y="95.4248">^</text><line style="stroke:#181818;stroke-width:1;" x1="31.7305" x2="51.7305" y1="90.5781" y2="90.5781"/><rect fill="none" height="26.2969" style="stroke:#181818;stroke-width:0.5;" width="37.3711" x="51.7305" y="77.4297"/><text fill="#000000" font-family="sans-serif" font-size="14" lengthAdjust="spacing" textLength="27.3711" x="56.7305" y="95.4248">title</text><line style="stroke:#181818;stroke-width:1;" x1="89.1016" x2="109.1016" y1="90.5781" y2="90.5781"/><line style="stroke:#181818;stroke-width:1;" x1="133.1016" x2="133.1016" y1="90.5781" y2="90.5781"/><line style="stroke:#181818;stroke-width:1;" x1="133.1016" x2="234.4043" y1="90.5781" y2="90.5781"/><path d="M171.6227,90.5781 L171.6227,87.5781 L177.6227,90.5781 L171.6227,93.5781 L171.6227,90.5781" fill="#181818"/><path d="M133.1016,90.5781 C142.1016,90.5781 145.1016,100.7266 145.1016,109.7266 C145.1016,118.7266 148.1016,128.875 157.1016,128.875" fill="none" style="stroke:#181818;stroke-width:1;"/><path d="M210.4043,128.875 C219.4043,128.875 222.4043,118.7266 222.4043,109.7266 C222.4043,100.7266 225.4043,90.5781 234.4043,90.5781" fill="none" style="stroke:#181818;stroke-width:1;"/><path d="M165.1016,120.875 C165.1016,126.875 167.1016,128.875 173.1016,128.875" fill="none" style="stroke:#181818;stroke-width:1;"/><line style="stroke:#181818;stroke-width:1;" x1="165.1016" x2="165.1016" y1="113.5781" y2="120.875"/><path d="M165.1016,113.5781 C165.1016,107.5781 167.1016,105.5781 173.1016,105.5781" fill="none" style="stroke:#181818;stroke-width:1;"/><line style="stroke:#181818;stroke-width:1;" x1="172.1016" x2="195.4043" y1="105.5781" y2="105.5781"/><path d="M184.0832,105.5781 L184.0832,102.5781 L178.0832,105.5781 L184.0832,108.5781 L184.0832,105.5781" fill="#181818"/><path d="M202.4043,120.875 C202.4043,126.875 200.4043,128.875 194.4043,128.875" fill="none" style="stroke:#181818;stroke-width:1;"/><line style="stroke:#181818;stroke-width:1;" x1="202.4043" x2="202.4043" y1="113.5781" y2="120.875"/><path d="M194.4043,105.5781 C200.4043,105.5781 202.4043,107.5781 202.4043,113.5781" fill="none" style="stroke:#181818;stroke-width:1;"/><line style="stroke:#181818;stroke-width:1;" x1="157.1016" x2="172.1016" y1="128.875" y2="128.875"/><line style="stroke:#181818;stroke-width:1;" x1="195.4043" x2="210.4043" y1="128.875" y2="128.875"/><rect fill="none" height="32.5938" style="stroke:#181818;stroke-width:1;stroke-dasharray:5,5;" width="23.3027" x="172.1016" y="112.5781"/><text fill="#000000" font-family="sans-serif" font-size="14" lengthAdjust="spacing" textLength="13.3027" x="177.1016" y="125.5732">%</text><text fill="#000000" font-family="sans-serif" font-size="14" lengthAdjust="spacing" textLength="7.2939" x="177.1016" y="141.8701">s</text><line style="stroke:#181818;stroke-width:0.3;" x1="172.1016" x2="195.4043" y1="128.875" y2="128.875"/><line style="stroke:#181818;stroke-width:1;" x1="234.4043" x2="254.4043" y1="90.5781" y2="90.5781"/><rect fill="none" height="26.2969" style="stroke:#181818;stroke-width:0.5;" width="14.7168" x="254.4043" y="77.4297"/><text fill="#000000" font-family="sans-serif" font-size="14" lengthAdjust="spacing" textLength="4.7168" x="259.4043" y="95.4248">:</text><line style="stroke:#181818;stroke-width:1;" x1="269.1211" x2="289.1211" y1="90.5781" y2="90.5781"/><line style="stroke:#181818;stroke-width:1;" x1="289.1211" x2="390.4238" y1="90.5781" y2="90.5781"/><path d="M327.6422,90.5781 L327.6422,87.5781 L333.6422,90.5781 L327.6422,93.5781 L327.6422,90.5781" fill="#181818"/><path d="M289.1211,90.5781 C298.1211,90.5781 301.1211,100.7266 301.1211,109.7266 C301.1211,118.7266 304.1211,128.875 313.1211,128.875" fill="none" style="stroke:#181818;stroke-width:1;"/><path d="M366.4238,128.875 C375.4238,128.875 378.4238,118.7266 378.4238,109.7266 C378.4238,100.7266 381.4238,90.5781 390.4238,90.5781" fill="none" style="stroke:#181818;stroke-width:1;"/><path d="M321.1211,120.875 C321.1211,126.875 323.1211,128.875 329.1211,128.875" fill="none" style="stroke:#181818;stroke-width:1;"/><line style="stroke:#181818;stroke-width:1;" x1="321.1211" x2="321.1211" y1="113.5781" y2="120.875"/><path d="M321.1211,113.5781 C321.1211,107.5781 323.1211,105.5781 329.1211,105.5781" fill="none" style="stroke:#181818;stroke-width:1;"/><line style="stroke:#181818;stroke-width:1;" x1="328.1211" x2="351.4238" y1="105.5781" y2="105.5781"/><path d="M340.1027,105.5781 L340.1027,102.5781 L334.1027,105.5781 L340.1027,108.5781 L340.1027,105.5781" fill="#181818"/><path d="M358.4238,120.875 C358.4238,126.875 356.4238,128.875 350.4238,128.875" fill="none" style="stroke:#181818;stroke-width:1;"/><line style="stroke:#181818;stroke-width:1;" x1="358.4238" x2="358.4238" y1="113.5781" y2="120.875"/><path d="M350.4238,105.5781 C356.4238,105.5781 358.4238,107.5781 358.4238,113.5781" fill="none" style="stroke:#181818;stroke-width:1;"/><line style="stroke:#181818;stroke-width:1;" x1="313.1211" x2="328.1211" y1="128.875" y2="128.875"/><line style="stroke:#181818;stroke-width:1;" x1="351.4238" x2="366.4238" y1="128.875" y2="128.875"/><rect fill="none" height="32.5938" style="stroke:#181818;stroke-width:1;stroke-dasharray:5,5;" width="23.3027" x="328.1211" y="112.5781"/><text fill="#000000" font-family="sans-serif" font-size="14" lengthAdjust="spacing" textLength="13.3027" x="333.1211" y="125.5732">%</text><text fill="#000000" font-family="sans-serif" font-size="14" lengthAdjust="spacing" textLength="7.2939" x="333.1211" y="141.8701">s</text><line style="stroke:#181818;stroke-width:0.3;" x1="328.1211" x2="351.4238" y1="128.875" y2="128.875"/><line style="stroke:#181818;stroke-width:1;" x1="109.1016" x2="133.1016" y1="90.5781" y2="90.5781"/><line style="stroke:#181818;stroke-width:1;" x1="390.4238" x2="414.4238" y1="90.5781" y2="90.5781"/><path d="M141.1016,175.4688 C141.1016,181.4688 143.1016,183.4688 149.1016,183.4688" fill="none" style="stroke:#181818;stroke-width:1;"/><line style="stroke:#181818;stroke-width:1;" x1="141.1016" x2="141.1016" y1="168.1719" y2="175.4688"/><path d="M141.1016,168.1719 C141.1016,162.1719 143.1016,160.1719 149.1016,160.1719" fill="none" style="stroke:#181818;stroke-width:1;"/><line style="stroke:#181818;stroke-width:1;" x1="148.1016" x2="171.4043" y1="160.1719" y2="160.1719"/><path d="M160.0832,160.1719 L160.0832,157.1719 L154.0832,160.1719 L160.0832,163.1719 L160.0832,160.1719" fill="#181818"/><path d="M178.4043,175.4688 C178.4043,181.4688 176.4043,183.4688 170.4043,183.4688" fill="none" style="stroke:#181818;stroke-width:1;"/><line style="stroke:#181818;stroke-width:1;" x1="178.4043" x2="178.4043" y1="168.1719" y2="175.4688"/><path d="M170.4043,160.1719 C176.4043,160.1719 178.4043,162.1719 178.4043,168.1719" fill="none" style="stroke:#181818;stroke-width:1;"/><line style="stroke:#181818;stroke-width:1;" x1="133.1016" x2="148.1016" y1="183.4688" y2="183.4688"/><line style="stroke:#181818;stroke-width:1;" x1="171.4043" x2="186.4043" y1="183.4688" y2="183.4688"/><rect fill="none" height="32.5938" style="stroke:#181818;stroke-width:1;stroke-dasharray:5,5;" width="23.3027" x="148.1016" y="167.1719"/><text fill="#000000" font-family="sans-serif" font-size="14" lengthAdjust="spacing" textLength="13.3027" x="153.1016" y="180.167">%</text><text fill="#000000" font-family="sans-serif" font-size="14" lengthAdjust="spacing" textLength="7.2939" x="153.1016" y="196.4639">s</text><line style="stroke:#181818;stroke-width:0.3;" x1="148.1016" x2="171.4043" y1="183.4688" y2="183.4688"/><line style="stroke:#181818;stroke-width:1;" x1="186.4043" x2="390.4238" y1="183.4688" y2="183.4688"/><path d="M286.4141,183.4688 L286.4141,180.4688 L292.4141,183.4688 L286.4141,186.4688 L286.4141,183.4688" fill="#181818"/><path d="M121.1016,171.4688 C121.1016,180.4688 124.1016,183.4688 133.1016,183.4688" fill="none" style="stroke:#181818;stroke-width:1;"/><line style="stroke:#181818;stroke-width:1;" x1="121.1016" x2="121.1016" y1="102.5781" y2="171.4688"/><path d="M109.1016,90.5781 C118.1016,90.5781 121.1016,93.5781 121.1016,102.5781" fill="none" style="stroke:#181818;stroke-width:1;"/><path d="M402.4238,171.4688 C402.4238,180.4688 399.4238,183.4688 390.4238,183.4688" fill="none" style="stroke:#181818;stroke-width:1;"/><line style="stroke:#181818;stroke-width:1;" x1="402.4238" x2="402.4238" y1="102.5781" y2="171.4688"/><path d="M402.4238,102.5781 C402.4238,93.5781 405.4238,90.5781 414.4238,90.5781" fill="none" style="stroke:#181818;stroke-width:1;"/><line style="stroke:#181818;stroke-width:1;" x1="414.4238" x2="434.4238" y1="90.5781" y2="90.5781"/><line style="stroke:#181818;stroke-width:1;" x1="458.4238" x2="458.4238" y1="90.5781" y2="90.5781"/><rect fill="none" height="32.5938" style="stroke:#181818;stroke-width:1;stroke-dasharray:5,5;" width="23.3027" x="458.4238" y="74.2813"/><text fill="#000000" font-family="sans-serif" font-size="14" lengthAdjust="spacing" textLength="13.3027" x="463.4238" y="87.2764">%</text><text fill="#000000" font-family="sans-serif" font-size="14" lengthAdjust="spacing" textLength="8.8867" x="463.4238" y="103.5732">g</text><line style="stroke:#181818;stroke-width:0.3;" x1="458.4238" x2="481.7266" y1="90.5781" y2="90.5781"/><line style="stroke:#181818;stroke-width:1;" x1="481.7266" x2="501.7266" y1="90.5781" y2="90.5781"/><line style="stroke:#181818;stroke-width:1;" x1="501.7266" x2="594.1768" y1="90.5781" y2="90.5781"/><path d="M536.7066,90.5781 L536.7066,87.5781 L542.7066,90.5781 L536.7066,93.5781 L536.7066,90.5781" fill="#181818"/><path d="M501.7266,90.5781 C510.7266,90.5781 513.7266,99.1523 513.7266,108.1523 C513.7266,117.1523 516.7266,125.7266 525.7266,125.7266" fill="none" style="stroke:#181818;stroke-width:1;"/><path d="M570.1768,125.7266 C579.1768,125.7266 582.1768,117.1523 582.1768,108.1523 C582.1768,99.1523 585.1768,90.5781 594.1768,90.5781" fill="none" style="stroke:#181818;stroke-width:1;"/><path d="M533.7266,117.7266 C533.7266,123.7266 535.7266,125.7266 541.7266,125.7266" fill="none" style="stroke:#181818;stroke-width:1;"/><line style="stroke:#181818;stroke-width:1;" x1="533.7266" x2="533.7266" y1="113.5781" y2="117.7266"/><path d="M533.7266,113.5781 C533.7266,107.5781 535.7266,105.5781 541.7266,105.5781" fill="none" style="stroke:#181818;stroke-width:1;"/><line style="stroke:#181818;stroke-width:1;" x1="540.7266" x2="555.1768" y1="105.5781" y2="105.5781"/><path d="M547.3967,105.5781 L547.3967,102.5781 L541.3967,105.5781 L547.3967,108.5781 L547.3967,105.5781" fill="#181818"/><path d="M562.1768,117.7266 C562.1768,123.7266 560.1768,125.7266 554.1768,125.7266" fill="none" style="stroke:#181818;stroke-width:1;"/><line style="stroke:#181818;stroke-width:1;" x1="562.1768" x2="562.1768" y1="113.5781" y2="117.7266"/><path d="M554.1768,105.5781 C560.1768,105.5781 562.1768,107.5781 562.1768,113.5781" fill="none" style="stroke:#181818;stroke-width:1;"/><line style="stroke:#181818;stroke-width:1;" x1="525.7266" x2="540.7266" y1="125.7266" y2="125.7266"/><line style="stroke:#181818;stroke-width:1;" x1="555.1768" x2="570.1768" y1="125.7266" y2="125.7266"/><rect fill="#F1F1F1" height="26.2969" rx="5" ry="5" style="stroke:#181818;stroke-width:1.5;" width="14.4502" x="540.7266" y="112.5781"/><text fill="#000000" font-family="sans-serif" font-size="14" lengthAdjust="spacing" textLength="4.4502" x="545.7266" y="130.5732">.</text><line style="stroke:#181818;stroke-width:1;" x1="594.1768" x2="614.1768" y1="90.5781" y2="90.5781"/><rect fill="none" height="32.5938" style="stroke:#181818;stroke-width:1;stroke-dasharray:5,5;" width="23.3027" x="614.1768" y="74.2813"/><text fill="#000000" font-family="sans-serif" font-size="14" lengthAdjust="spacing" textLength="13.3027" x="619.1768" y="87.2764">%</text><text fill="#000000" font-family="sans-serif" font-size="14" lengthAdjust="spacing" textLength="8.8867" x="619.1768" y="103.5732">g</text><line style="stroke:#181818;stroke-width:0.3;" x1="614.1768" x2="637.4795" y1="90.5781" y2="90.5781"/><line style="stroke:#181818;stroke-width:1;" x1="434.4238" x2="458.4238" y1="90.5781" y2="90.5781"/><line style="stroke:#181818;stroke-width:1;" x1="637.4795" x2="730.627" y1="90.5781" y2="90.5781"/><line style="stroke:#181818;stroke-width:1;" x1="458.4238" x2="458.4238" y1="197.7656" y2="197.7656"/><line style="stroke:#181818;stroke-width:1;" x1="458.4238" x2="550.874" y1="197.7656" y2="197.7656"/><path d="M493.4039,197.7656 L493.4039,194.7656 L499.4039,197.7656 L493.4039,200.7656 L493.4039,197.7656" fill="#181818"/><path d="M458.4238,197.7656 C467.4238,197.7656 470.4238,206.3398 470.4238,215.3398 C470.4238,224.3398 473.4238,232.9141 482.4238,232.9141" fill="none" style="stroke:#181818;stroke-width:1;"/><path d="M526.874,232.9141 C535.874,232.9141 538.874,224.3398 538.874,215.3398 C538.874,206.3398 541.874,197.7656 550.874,197.7656" fill="none" style="stroke:#181818;stroke-width:1;"/><path d="M490.4238,224.9141 C490.4238,230.9141 492.4238,232.9141 498.4238,232.9141" fill="none" style="stroke:#181818;stroke-width:1;"/><line style="stroke:#181818;stroke-width:1;" x1="490.4238" x2="490.4238" y1="220.7656" y2="224.9141"/><path d="M490.4238,220.7656 C490.4238,214.7656 492.4238,212.7656 498.4238,212.7656" fill="none" style="stroke:#181818;stroke-width:1;"/><line style="stroke:#181818;stroke-width:1;" x1="497.4238" x2="511.874" y1="212.7656" y2="212.7656"/><path d="M504.0939,212.7656 L504.0939,209.7656 L498.0939,212.7656 L504.0939,215.7656 L504.0939,212.7656" fill="#181818"/><path d="M518.874,224.9141 C518.874,230.9141 516.874,232.9141 510.874,232.9141" fill="none" style="stroke:#181818;stroke-width:1;"/><line style="stroke:#181818;stroke-width:1;" x1="518.874" x2="518.874" y1="220.7656" y2="224.9141"/><path d="M510.874,212.7656 C516.874,212.7656 518.874,214.7656 518.874,220.7656" fill="none" style="stroke:#181818;stroke-width:1;"/><line style="stroke:#181818;stroke-width:1;" x1="482.4238" x2="497.4238" y1="232.9141" y2="232.9141"/><line style="stroke:#181818;stroke-width:1;" x1="511.874" x2="526.874" y1="232.9141" y2="232.9141"/><rect fill="#F1F1F1" height="26.2969" rx="5" ry="5" style="stroke:#181818;stroke-width:1.5;" width="14.4502" x="497.4238" y="219.7656"/><text fill="#000000" font-family="sans-serif" font-size="14" lengthAdjust="spacing" textLength="4.4502" x="502.4238" y="237.7607">.</text><line style="stroke:#181818;stroke-width:1;" x1="550.874" x2="570.874" y1="197.7656" y2="197.7656"/><rect fill="none" height="97.7813" style="stroke:#181818;stroke-width:1;stroke-dasharray:5,5;" width="23.3027" x="570.874" y="148.875"/><text fill="#000000" font-family="sans-serif" font-size="14" lengthAdjust="spacing" textLength="13.3027" x="575.874" y="161.8701">%</text><text fill="#000000" font-family="sans-serif" font-size="14" lengthAdjust="spacing" textLength="8.8867" x="575.874" y="178.167">p</text><line style="stroke:#181818;stroke-width:0.3;" x1="570.874" x2="594.1768" y1="165.1719" y2="165.1719"/><text fill="#000000" font-family="sans-serif" font-size="14" lengthAdjust="spacing" textLength="7.7998" x="575.874" y="194.4639">L</text><line style="stroke:#181818;stroke-width:0.3;" x1="570.874" x2="594.1768" y1="181.4688" y2="181.4688"/><text fill="#000000" font-family="sans-serif" font-size="14" lengthAdjust="spacing" textLength="10.4727" x="575.874" y="210.7607">N</text><line style="stroke:#181818;stroke-width:0.3;" x1="570.874" x2="594.1768" y1="197.7656" y2="197.7656"/><text fill="#000000" font-family="sans-serif" font-size="14" lengthAdjust="spacing" textLength="7" x="575.874" y="227.0576">_</text><line style="stroke:#181818;stroke-width:0.3;" x1="570.874" x2="594.1768" y1="214.0625" y2="214.0625"/><text fill="#000000" font-family="sans-serif" font-size="14" lengthAdjust="spacing" textLength="4.4502" x="575.874" y="243.3545">.</text><line style="stroke:#181818;stroke-width:0.3;" x1="570.874" x2="594.1768" y1="230.3594" y2="230.3594"/><line style="stroke:#181818;stroke-width:1;" x1="594.1768" x2="614.1768" y1="197.7656" y2="197.7656"/><line style="stroke:#181818;stroke-width:1;" x1="614.1768" x2="706.627" y1="197.7656" y2="197.7656"/><path d="M649.1568,197.7656 L649.1568,194.7656 L655.1568,197.7656 L649.1568,200.7656 L649.1568,197.7656" fill="#181818"/><path d="M614.1768,197.7656 C623.1768,197.7656 626.1768,206.3398 626.1768,215.3398 C626.1768,224.3398 629.1768,232.9141 638.1768,232.9141" fill="none" style="stroke:#181818;stroke-width:1;"/><path d="M682.627,232.9141 C691.627,232.9141 694.627,224.3398 694.627,215.3398 C694.627,206.3398 697.627,197.7656 706.627,197.7656" fill="none" style="stroke:#181818;stroke-width:1;"/><path d="M646.1768,224.9141 C646.1768,230.9141 648.1768,232.9141 654.1768,232.9141" fill="none" style="stroke:#181818;stroke-width:1;"/><line style="stroke:#181818;stroke-width:1;" x1="646.1768" x2="646.1768" y1="220.7656" y2="224.9141"/><path d="M646.1768,220.7656 C646.1768,214.7656 648.1768,212.7656 654.1768,212.7656" fill="none" style="stroke:#181818;stroke-width:1;"/><line style="stroke:#181818;stroke-width:1;" x1="653.1768" x2="667.627" y1="212.7656" y2="212.7656"/><path d="M659.8469,212.7656 L659.8469,209.7656 L653.8469,212.7656 L659.8469,215.7656 L659.8469,212.7656" fill="#181818"/><path d="M674.627,224.9141 C674.627,230.9141 672.627,232.9141 666.627,232.9141" fill="none" style="stroke:#181818;stroke-width:1;"/><line style="stroke:#181818;stroke-width:1;" x1="674.627" x2="674.627" y1="220.7656" y2="224.9141"/><path d="M666.627,212.7656 C672.627,212.7656 674.627,214.7656 674.627,220.7656" fill="none" style="stroke:#181818;stroke-width:1;"/><line style="stroke:#181818;stroke-width:1;" x1="638.1768" x2="653.1768" y1="232.9141" y2="232.9141"/><line style="stroke:#181818;stroke-width:1;" x1="667.627" x2="682.627" y1="232.9141" y2="232.9141"/><rect fill="#F1F1F1" height="26.2969" rx="5" ry="5" style="stroke:#181818;stroke-width:1.5;" width="14.4502" x="653.1768" y="219.7656"/><text fill="#000000" font-family="sans-serif" font-size="14" lengthAdjust="spacing" textLength="4.4502" x="658.1768" y="237.7607">.</text><line style="stroke:#181818;stroke-width:1;" x1="706.627" x2="706.627" y1="197.7656" y2="197.7656"/><path d="M446.4238,185.7656 C446.4238,194.7656 449.4238,197.7656 458.4238,197.7656" fill="none" style="stroke:#181818;stroke-width:1;"/><line style="stroke:#181818;stroke-width:1;" x1="446.4238" x2="446.4238" y1="102.5781" y2="185.7656"/><path d="M434.4238,90.5781 C443.4238,90.5781 446.4238,93.5781 446.4238,102.5781" fill="none" style="stroke:#181818;stroke-width:1;"/><path d="M718.627,185.7656 C718.627,194.7656 715.627,197.7656 706.627,197.7656" fill="none" style="stroke:#181818;stroke-width:1;"/><line style="stroke:#181818;stroke-width:1;" x1="718.627" x2="718.627" y1="102.5781" y2="185.7656"/><path d="M718.627,102.5781 C718.627,93.5781 721.627,90.5781 730.627,90.5781" fill="none" style="stroke:#181818;stroke-width:1;"/><line style="stroke:#181818;stroke-width:1;" x1="730.627" x2="750.627" y1="90.5781" y2="90.5781"/><rect fill="#F1F1F1" height="26.2969" rx="5" ry="5" style="stroke:#181818;stroke-width:1.5;" width="18.9072" x="750.627" y="77.4297"/><text fill="#000000" font-family="sans-serif" font-size="14" lengthAdjust="spacing" textLength="8.9072" x="755.627" y="95.4248">$</text></g></svg>