<svg xmlns="http://www.w3.org/2000/svg" xmlns:xlink="http://www.w3.org/1999/xlink" contentStyleType="text/css" height="966.6667px" preserveAspectRatio="none" style="width:545px;height:966px;" version="1.1" viewBox="0 0 545 966" width="545.8333px" zoomAndPan="magnify"><defs/><g><polygon fill="#4D4D4D" points="278.3427,258.138,278.3427,258.211,280.426,257.9942,282.5094,258.2051,284.5927,258.2768,286.676,257.8903,288.7594,258.138,288.6784,258.138,288.3151,268.5162,288.3599,278.8944,288.6884,289.2726,288.0392,299.6508,289.3361,310.029,288.1028,320.4072,288.5534,330.7854,289.2093,341.1636,288.67,351.5418,288.8304,361.92,288.7261,372.2982,288.9453,382.6764,289.0085,393.0546,289.3695,403.4328,289.4584,413.811,289.4669,424.1892,289.0246,434.5674,289.2423,444.9455,289.4909,455.3237,288.0081,465.7019,289.4661,476.0801,288.4505,486.4583,289.3154,496.8365,288.2437,507.2147,288.688,517.5929,289.5319,527.9711,288.7086,538.3493,288.869,548.7275,289.1121,559.1057,289.1929,569.4839,288.7553,579.8621,289.0585,590.2403,288.7594,600.6185,288.7594,600.4197,286.676,600.7172,284.5927,600.8088,282.5094,600.7728,280.426,600.8313,278.3427,600.6185,277.8395,600.6185,277.6633,590.2403,277.6954,579.8621,278.2814,569.4839,278.138,559.1057,279.0525,548.7275,278.1607,538.3493,277.9853,527.9711,278.5805,517.5929,277.6481,507.2147,277.8019,496.8365,279.0187,486.4583,278.7965,476.0801,279.1078,465.7019,278.0075,455.3237,278.6752,444.9455,278.9577,434.5674,277.8506,424.1892,278.2428,413.811,278.4739,403.4328,279.0216,393.0546,278.3383,382.6764,278.8245,372.2982,277.7658,361.92,277.6372,351.5418,278.8673,341.1636,277.5959,330.7854,278.8729,320.4072,278.5579,310.029,278.0636,299.6508,277.9742,289.2726,278.8206,278.8944,278.0309,268.5162,278.3427,258.138" style="stroke:#555555;stroke-width:1.0417;"/><polygon fill="#4D4D4D" points="283.551,306.0221,283.551,306.0951,285.6344,305.8783,287.7177,306.0892,289.801,306.1609,291.8844,305.7744,293.9677,306.0221,293.8867,306.0221,293.5234,316.4323,293.5682,326.8424,293.8967,337.2526,293.2475,347.6628,294.5444,358.0729,293.3111,368.4831,293.7617,378.8932,294.4176,389.3034,293.8783,399.7135,294.0388,410.1237,293.9344,420.5339,294.1537,430.944,294.2168,441.3542,294.5778,451.7643,294.6667,462.1745,294.6753,472.5846,294.2329,482.9948,294.4506,493.4049,294.6992,503.8151,293.9677,514.2253,293.9677,513.9748,291.8844,514.4609,289.801,514.1223,287.7177,514.4106,285.6344,514.0534,283.551,514.2253,283.4797,514.2253,284.3235,503.8151,283.5003,493.4049,283.6607,482.9948,283.9038,472.5846,283.9846,462.1745,283.547,451.7643,283.8502,441.3542,282.9548,430.944,283.8473,420.5339,284.1221,410.1237,284.0141,399.7135,284.1896,389.3034,283.0478,378.8932,282.8717,368.4831,282.9037,358.0729,283.4897,347.6628,283.3463,337.2526,284.2608,326.8424,283.3691,316.4323,283.551,306.0221" style="stroke:#555555;stroke-width:1.0417;"/><polygon fill="#005500" points="288.7594,359.1146,288.7594,359.1876,290.8427,358.9707,292.926,359.1817,295.0094,359.2534,297.0927,358.8669,299.176,359.1146,299.0951,359.1146,298.7318,369.3164,298.7765,379.5182,299.105,389.7201,298.4558,399.9219,299.7527,410.1237,298.5195,420.3255,298.97,430.5273,299.626,440.7292,299.0867,450.931,299.176,461.1328,299.176,461.1565,297.0927,461.1217,295.0094,461.1948,292.926,461.2158,290.8427,461.3362,288.7594,461.1328,289.4584,461.1328,289.4669,450.931,289.0246,440.7292,289.2423,430.5273,289.4909,420.3255,288.0081,410.1237,289.4661,399.9219,288.4505,389.7201,289.3154,379.5182,288.2437,369.3164,288.7594,359.1146" style="stroke:#555555;stroke-width:1.0417;"/><path d="M91.3584,51.0091 L91.6504,51.0091 L90.783,61.3536 L91.6269,71.698 L91.9135,82.0424 L90.3676,92.3869 L91.2505,102.7313 L90.7661,113.0758 L90.8258,123.4202 L91.2638,133.7646 L90.3982,144.1091 L92.1274,154.4535 L90.483,164.798 L91.0838,175.1424 L91.9584,185.4869 L91.2393,195.8313 L91.4532,206.1757 L91.3141,216.5202 L91.6064,226.8646 L91.6906,237.2091 L92.1719,247.5535 L92.2905,257.8979 L92.3019,268.2424 L91.7121,278.5868 L92.0023,288.9313 L92.3338,299.2757 L90.3568,309.6202 L92.3008,319.9646 L90.9466,330.309 L92.0998,340.6535 L90.6709,350.9979 L91.2633,361.3424 L92.3884,371.6868 L91.2908,382.0313 L91.5047,392.3757 L91.8288,402.7201 L91.9365,413.0646 L91.353,423.409 L91.7573,433.7535 L90.5634,444.0979 L91.7534,454.4423 L92.1198,464.7868 L91.9758,475.1312 L92.2099,485.4757 L90.6875,495.8201 L90.4526,506.1646 L90.4954,516.509 L91.2767,526.8534 L91.0855,537.1979 L92.3048,547.5423 L91.1158,557.8868 L90.882,568.2312 L91.6755,578.5756 L90.4323,588.9201 L90.6374,599.2645 L92.2598,609.609 L91.9635,619.9534 L92.3786,630.2979 L90.9115,640.6423 L91.8018,650.9867 L92.1785,661.3312 L90.7023,671.6756 L91.2253,682.0201 L91.5334,692.3645 L92.2637,702.7089 L91.3584,713.0534 " fill="none" style="stroke:#555555;stroke-width:1.0417;stroke-dasharray:5.0,5.0;"/><path d="M91.3584,713.0534 L91.4557,713.0534 L91.1666,720.9701 L91.4479,728.8867 L91.5435,736.8034 L91.0282,744.7201 L91.3584,752.6367 " fill="none" style="stroke:#555555;stroke-width:1.0417;stroke-dasharray:1.0,4.0;"/><path d="M91.3584,752.6367 L91.6504,752.6367 L90.783,762.7007 L91.6269,772.7648 L91.9135,782.8288 L90.3676,792.8928 L91.2505,802.9568 L91.3584,813.0208 " fill="none" style="stroke:#555555;stroke-width:1.0417;stroke-dasharray:5.0,5.0;"/><path d="M91.3584,813.0208 L91.6504,813.0208 L90.783,823.8477 L91.6269,834.6745 L91.9135,845.5013 L90.3676,856.3281 L91.3584,867.1549 " fill="none" style="stroke:#555555;stroke-width:1.0417;stroke-dasharray:1.0,4.0;"/><path d="M91.3584,867.1549 L91.6504,867.1549 L90.783,877.1484 L91.6269,887.1419 L91.9135,897.1354 L90.3676,907.1289 L91.3584,917.1224 " fill="none" style="stroke:#555555;stroke-width:1.0417;stroke-dasharray:5.0,5.0;"/><path d="M282.9305,51.0091 L283.2224,51.0091 L282.3551,61.3536 L283.199,71.698 L283.4856,82.0424 L281.9397,92.3869 L282.8226,102.7313 L282.3381,113.0758 L282.3979,123.4202 L282.8358,133.7646 L281.9703,144.1091 L283.6994,154.4535 L282.0551,164.798 L282.6558,175.1424 L283.5304,185.4869 L282.8114,195.8313 L283.0253,206.1757 L282.8861,216.5202 L283.1785,226.8646 L283.2626,237.2091 L283.744,247.5535 L283.8625,257.8979 L283.8739,268.2424 L283.2841,278.5868 L283.5744,288.9313 L283.9058,299.2757 L281.9289,309.6202 L283.8729,319.9646 L282.5187,330.309 L283.6719,340.6535 L282.243,350.9979 L282.8354,361.3424 L283.9605,371.6868 L282.8628,382.0313 L283.0768,392.3757 L283.4008,402.7201 L283.5086,413.0646 L282.9251,423.409 L283.3294,433.7535 L282.1355,444.0979 L283.3255,454.4423 L283.6919,464.7868 L283.5479,475.1312 L283.7819,485.4757 L282.2596,495.8201 L282.0247,506.1646 L282.0674,516.509 L282.8487,526.8534 L282.6575,537.1979 L283.8769,547.5423 L282.6879,557.8868 L282.454,568.2312 L283.2475,578.5756 L282.0043,588.9201 L282.2095,599.2645 L283.8318,609.609 L283.5356,619.9534 L283.9506,630.2979 L282.4836,640.6423 L283.3738,650.9867 L283.7505,661.3312 L282.2744,671.6756 L282.7974,682.0201 L283.1055,692.3645 L283.8357,702.7089 L282.9305,713.0534 " fill="none" style="stroke:#555555;stroke-width:1.0417;stroke-dasharray:5.0,5.0;"/><path d="M282.9305,713.0534 L283.0278,713.0534 L282.7387,720.9701 L283.02,728.8867 L283.1155,736.8034 L282.6002,744.7201 L282.9305,752.6367 " fill="none" style="stroke:#555555;stroke-width:1.0417;stroke-dasharray:1.0,4.0;"/><path d="M282.9305,752.6367 L283.2224,752.6367 L282.3551,762.7007 L283.199,772.7648 L283.4856,782.8288 L281.9397,792.8928 L282.8226,802.9568 L282.9305,813.0208 " fill="none" style="stroke:#555555;stroke-width:1.0417;stroke-dasharray:5.0,5.0;"/><path d="M282.9305,813.0208 L283.2224,813.0208 L282.3551,823.8477 L283.199,834.6745 L283.4856,845.5013 L281.9397,856.3281 L282.9305,867.1549 " fill="none" style="stroke:#555555;stroke-width:1.0417;stroke-dasharray:1.0,4.0;"/><path d="M282.9305,867.1549 L283.2224,867.1549 L282.3551,877.1484 L283.199,887.1419 L283.4856,897.1354 L281.9397,907.1289 L282.9305,917.1224 " fill="none" style="stroke:#555555;stroke-width:1.0417;stroke-dasharray:5.0,5.0;"/><path d="M450.588,408.5775 L450.8799,408.5775 L450.0125,419.0766 L450.8564,429.5758 L451.1431,440.075 L449.5971,450.5742 L450.48,461.0733 L449.9956,471.5725 L450.0553,482.0717 L450.4933,492.5708 L449.6277,503.07 L451.3569,513.5692 L449.7126,524.0683 L450.3133,534.5675 L451.1879,545.0667 L450.4688,555.5658 L450.6827,566.065 L450.5436,576.5642 L450.8359,587.0634 L450.9201,597.5625 L451.4014,608.0617 L451.52,618.5609 L451.5314,629.06 L450.9416,639.5592 L451.2318,650.0584 L451.5633,660.5575 L449.5863,671.0567 L451.5303,681.5559 L450.1762,692.055 L451.3294,702.5542 L450.588,713.0534 " fill="none" style="stroke:#555555;stroke-width:1.0417;stroke-dasharray:5.0,5.0;"/><path d="M450.588,713.0534 L450.6853,713.0534 L450.3962,720.9701 L450.6775,728.8867 L450.773,736.8034 L450.2577,744.7201 L450.588,752.6367 " fill="none" style="stroke:#555555;stroke-width:1.0417;stroke-dasharray:1.0,4.0;"/><path d="M450.588,752.6367 L450.8799,752.6367 L450.0125,762.7007 L450.8564,772.7648 L451.1431,782.8288 L449.5971,792.8928 L450.48,802.9568 L450.588,813.0208 " fill="none" style="stroke:#555555;stroke-width:1.0417;stroke-dasharray:5.0,5.0;"/><path d="M450.588,813.0208 L450.8799,813.0208 L450.0125,823.8477 L450.8564,834.6745 L451.1431,845.5013 L449.5971,856.3281 L450.588,867.1549 " fill="none" style="stroke:#555555;stroke-width:1.0417;stroke-dasharray:1.0,4.0;"/><path d="M450.588,867.1549 L450.8799,867.1549 L450.0125,877.1484 L450.8564,887.1419 L451.1431,897.1354 L449.5971,907.1289 L450.588,917.1224 " fill="none" style="stroke:#555555;stroke-width:1.0417;stroke-dasharray:5.0,5.0;"/><polygon fill="none" points="68.4418,10.4167,68.4418,10.4896,77.7871,10.2728,87.1324,10.4838,96.4777,10.5554,105.823,10.169,115.1683,10.4167,115.1579,10.3917,115.7008,10.5239,116.2958,10.7818,116.927,11.127,117.4334,11.1712,118.1145,11.6371,118.2921,11.7106,118.1564,12.1426,118.5392,12.7893,118.9853,13.4622,119.0633,13.9827,119.3349,14.5833,119.3586,14.5833,119.3238,20.8268,119.3969,27.0703,119.418,33.3138,119.5383,39.5573,119.3349,45.8008,119.5502,45.8899,119.3087,46.4803,118.9284,47.0131,118.7514,47.6301,118.5839,48.2511,118.1145,48.7471,118.0187,48.5157,117.6154,49.2088,116.8966,49.1401,116.4177,49.6505,115.6917,49.5646,115.1683,49.9674,115.1683,49.9437,105.823,50.2249,96.4777,49.9505,87.1324,50.004,77.7871,50.085,68.4418,49.9674,68.4971,50.101,67.852,49.7221,67.3014,49.5714,66.5979,49.0516,66.1225,49.0824,65.4955,48.7471,65.6714,48.8199,65.394,48.2169,65.204,47.65,64.6083,46.9151,64.31,46.3034,64.2751,45.8008,64.0593,45.8008,64.2547,39.5573,64.2069,33.3138,64.5117,27.0703,64.2145,20.8268,64.2751,14.5833,64.1651,14.5377,64.5924,14.0244,64.5493,13.3162,64.8408,12.7466,65.4596,12.3125,65.4955,11.6371,65.5534,11.7768,66.1823,11.6286,66.6312,11.0457,67.3057,11.0072,67.931,10.8501,68.4418,10.4167" style="stroke:#333333;stroke-width:1.0417;"/><text fill="#2E2E2E" font-family="Segoe Print" font-size="12.5" lengthAdjust="spacing" textLength="30.0598" x="76.7751" y="34.5194">Alice</text><polygon fill="none" points="68.4418,916.0807,68.4418,916.1537,77.7871,915.9369,87.1324,916.1478,96.4777,916.2195,105.823,915.833,115.1683,916.0807,115.1579,916.0558,115.7008,916.188,116.2958,916.4459,116.927,916.7911,117.4334,916.8353,118.1145,917.3011,118.2921,917.3747,118.1564,917.8066,118.5392,918.4534,118.9853,919.1263,119.0633,919.6467,119.3349,920.2474,119.3586,920.2474,119.3238,926.4909,119.3969,932.7344,119.418,938.9779,119.5383,945.2214,119.3349,951.4648,119.5502,951.554,119.3087,952.1444,118.9284,952.6772,118.7514,953.2942,118.5839,953.9152,118.1145,954.4111,118.0187,954.1798,117.6154,954.8729,116.8966,954.8042,116.4177,955.3146,115.6917,955.2286,115.1683,955.6315,115.1683,955.6077,105.823,955.889,96.4777,955.6146,87.1324,955.6681,77.7871,955.7491,68.4418,955.6315,68.4971,955.765,67.852,955.3862,67.3014,955.2355,66.5979,954.7157,66.1225,954.7464,65.4955,954.4111,65.6714,954.484,65.394,953.8809,65.204,953.3141,64.6083,952.5792,64.31,951.9674,64.2751,951.4648,64.0593,951.4648,64.2547,945.2214,64.2069,938.9779,64.5117,932.7344,64.2145,926.4909,64.2751,920.2474,64.1651,920.2018,64.5924,919.6885,64.5493,918.9803,64.8408,918.4106,65.4596,917.9766,65.4955,917.3011,65.5534,917.4409,66.1823,917.2927,66.6312,916.7097,67.3057,916.6713,67.931,916.5142,68.4418,916.0807" style="stroke:#333333;stroke-width:1.0417;"/><text fill="#2E2E2E" font-family="Segoe Print" font-size="12.5" lengthAdjust="spacing" textLength="30.0598" x="76.7751" y="940.1835">Alice</text><polygon fill="none" points="263.1388,10.4167,263.1388,10.4896,271.3037,10.2728,279.4686,10.4838,287.6335,10.5554,295.7983,10.169,303.9632,10.4167,303.9529,10.3917,304.4958,10.5239,305.0908,10.7818,305.7219,11.127,306.2284,11.1712,306.9095,11.6371,307.0871,11.7106,306.9514,12.1426,307.3342,12.7893,307.7803,13.4622,307.8583,13.9827,308.1299,14.5833,308.1536,14.5833,308.1188,20.8268,308.1919,27.0703,308.2129,33.3138,308.3332,39.5573,308.1299,45.8008,308.3452,45.8899,308.1037,46.4803,307.7234,47.0131,307.5464,47.6301,307.3788,48.2511,306.9095,48.7471,306.8137,48.5157,306.4104,49.2088,305.6916,49.1401,305.2127,49.6505,304.4867,49.5646,303.9632,49.9674,303.9632,49.9437,295.7983,50.2249,287.6335,49.9505,279.4686,50.004,271.3037,50.085,263.1388,49.9674,263.1941,50.101,262.5491,49.7221,261.9985,49.5714,261.295,49.0516,260.8196,49.0824,260.1926,48.7471,260.3684,48.8199,260.0911,48.2169,259.9011,47.65,259.3054,46.9151,259.007,46.3034,258.9722,45.8008,258.7564,45.8008,258.9517,39.5573,258.9039,33.3138,259.2088,27.0703,258.9115,20.8268,258.9722,14.5833,258.8621,14.5377,259.2895,14.0244,259.2464,13.3162,259.5379,12.7466,260.1567,12.3125,260.1926,11.6371,260.2504,11.7768,260.8794,11.6286,261.3283,11.0457,262.0027,11.0072,262.628,10.8501,263.1388,10.4167" style="stroke:#333333;stroke-width:1.0417;"/><text fill="#2E2E2E" font-family="Segoe Print" font-size="12.5" lengthAdjust="spacing" textLength="24.1577" x="271.4722" y="34.5194">Bob</text><polygon fill="none" points="263.1388,916.0807,263.1388,916.1537,271.3037,915.9369,279.4686,916.1478,287.6335,916.2195,295.7983,915.833,303.9632,916.0807,303.9529,916.0558,304.4958,916.188,305.0908,916.4459,305.7219,916.7911,306.2284,916.8353,306.9095,917.3011,307.0871,917.3747,306.9514,917.8066,307.3342,918.4534,307.7803,919.1263,307.8583,919.6467,308.1299,920.2474,308.1536,920.2474,308.1188,926.4909,308.1919,932.7344,308.2129,938.9779,308.3332,945.2214,308.1299,951.4648,308.3452,951.554,308.1037,952.1444,307.7234,952.6772,307.5464,953.2942,307.3788,953.9152,306.9095,954.4111,306.8137,954.1798,306.4104,954.8729,305.6916,954.8042,305.2127,955.3146,304.4867,955.2286,303.9632,955.6315,303.9632,955.6077,295.7983,955.889,287.6335,955.6146,279.4686,955.6681,271.3037,955.7491,263.1388,955.6315,263.1941,955.765,262.5491,955.3862,261.9985,955.2355,261.295,954.7157,260.8196,954.7464,260.1926,954.4111,260.3684,954.484,260.0911,953.8809,259.9011,953.3141,259.3054,952.5792,259.007,951.9674,258.9722,951.4648,258.7564,951.4648,258.9517,945.2214,258.9039,938.9779,259.2088,932.7344,258.9115,926.4909,258.9722,920.2474,258.8621,920.2018,259.2895,919.6885,259.2464,918.9803,259.5379,918.4106,260.1567,917.9766,260.1926,917.3011,260.2504,917.4409,260.8794,917.2927,261.3283,916.7097,262.0027,916.6713,262.628,916.5142,263.1388,916.0807" style="stroke:#333333;stroke-width:1.0417;"/><text fill="#2E2E2E" font-family="Segoe Print" font-size="12.5" lengthAdjust="spacing" textLength="24.1577" x="271.4722" y="940.1835">Bob</text><polygon fill="none" points="420.3796,916.0807,420.3796,916.2997,430.7888,915.6491,441.1981,916.2821,451.6073,916.4971,462.0165,915.3376,472.4257,915.9998,482.8349,916.0807,482.7782,915.9439,483.3732,916.2018,484.0043,916.547,484.5108,916.5912,485.2655,917.2346,485.7812,917.3011,485.579,917.2174,485.9618,917.8641,486.4079,918.537,486.4859,919.0575,486.7794,919.6672,487.0015,920.2474,486.9905,920.2474,487.0635,926.4909,487.0846,932.7344,487.2049,938.9779,487.2346,945.2214,487.0015,951.4648,487.2194,951.5551,486.8392,952.0879,486.6621,952.705,486.4946,953.3259,485.7939,953.726,485.7812,954.4111,485.8713,954.6288,485.1525,954.5601,484.6736,955.0705,483.9476,954.9846,483.415,955.3655,482.8349,955.6315,482.8349,956.404,472.4257,955.5807,462.0165,955.7412,451.6073,955.9842,441.1981,956.0651,430.7888,955.6274,420.3796,955.6315,420.4178,955.7236,419.7143,955.2038,419.2389,955.2346,418.6847,955.0751,418.0817,954.7978,417.4334,954.4111,417.63,954.4926,417.0343,953.7577,416.736,953.146,416.5018,952.5608,416.4382,952.0463,416.213,951.4648,416.1447,951.4648,416.4496,945.2214,416.1523,938.9779,416.0939,932.7344,416.2922,926.4909,416.213,920.2474,415.9991,920.1588,416.2905,919.5892,416.9093,919.1551,417.085,918.5375,417.4249,917.988,417.4334,917.3011,417.3906,917.1979,418.065,917.1594,418.6903,917.0024,419.1384,916.4173,419.7776,916.2941,420.3796,916.0807" style="stroke:#333333;stroke-width:1.0417;"/><text fill="#2E2E2E" font-family="Segoe Print" font-size="12.5" lengthAdjust="spacing" textLength="45.7886" x="428.713" y="940.1835">George</text><polygon fill="#4D4D4D" points="278.3427,258.138,278.3427,258.211,280.426,257.9942,282.5094,258.2051,284.5927,258.2768,286.676,257.8903,288.7594,258.138,288.6784,258.138,288.3151,268.5162,288.3599,278.8944,288.6884,289.2726,288.0392,299.6508,289.3361,310.029,288.1028,320.4072,288.5534,330.7854,289.2093,341.1636,288.67,351.5418,288.8304,361.92,288.7261,372.2982,288.9453,382.6764,289.0085,393.0546,289.3695,403.4328,289.4584,413.811,289.4669,424.1892,289.0246,434.5674,289.2423,444.9455,289.4909,455.3237,288.0081,465.7019,289.4661,476.0801,288.4505,486.4583,289.3154,496.8365,288.2437,507.2147,288.688,517.5929,289.5319,527.9711,288.7086,538.3493,288.869,548.7275,289.1121,559.1057,289.1929,569.4839,288.7553,579.8621,289.0585,590.2403,288.7594,600.6185,288.7594,600.4197,286.676,600.7172,284.5927,600.8088,282.5094,600.7728,280.426,600.8313,278.3427,600.6185,277.8395,600.6185,277.6633,590.2403,277.6954,579.8621,278.2814,569.4839,278.138,559.1057,279.0525,548.7275,278.1607,538.3493,277.9853,527.9711,278.5805,517.5929,277.6481,507.2147,277.8019,496.8365,279.0187,486.4583,278.7965,476.0801,279.1078,465.7019,278.0075,455.3237,278.6752,444.9455,278.9577,434.5674,277.8506,424.1892,278.2428,413.811,278.4739,403.4328,279.0216,393.0546,278.3383,382.6764,278.8245,372.2982,277.7658,361.92,277.6372,351.5418,278.8673,341.1636,277.5959,330.7854,278.8729,320.4072,278.5579,310.029,278.0636,299.6508,277.9742,289.2726,278.8206,278.8944,278.0309,268.5162,278.3427,258.138" style="stroke:#555555;stroke-width:1.0417;"/><polygon fill="#4D4D4D" points="283.551,306.0221,283.551,306.0951,285.6344,305.8783,287.7177,306.0892,289.801,306.1609,291.8844,305.7744,293.9677,306.0221,293.8867,306.0221,293.5234,316.4323,293.5682,326.8424,293.8967,337.2526,293.2475,347.6628,294.5444,358.0729,293.3111,368.4831,293.7617,378.8932,294.4176,389.3034,293.8783,399.7135,294.0388,410.1237,293.9344,420.5339,294.1537,430.944,294.2168,441.3542,294.5778,451.7643,294.6667,462.1745,294.6753,472.5846,294.2329,482.9948,294.4506,493.4049,294.6992,503.8151,293.9677,514.2253,293.9677,513.9748,291.8844,514.4609,289.801,514.1223,287.7177,514.4106,285.6344,514.0534,283.551,514.2253,283.4797,514.2253,284.3235,503.8151,283.5003,493.4049,283.6607,482.9948,283.9038,472.5846,283.9846,462.1745,283.547,451.7643,283.8502,441.3542,282.9548,430.944,283.8473,420.5339,284.1221,410.1237,284.0141,399.7135,284.1896,389.3034,283.0478,378.8932,282.8717,368.4831,282.9037,358.0729,283.4897,347.6628,283.3463,337.2526,284.2608,326.8424,283.3691,316.4323,283.551,306.0221" style="stroke:#555555;stroke-width:1.0417;"/><polygon fill="#005500" points="288.7594,359.1146,288.7594,359.1876,290.8427,358.9707,292.926,359.1817,295.0094,359.2534,297.0927,358.8669,299.176,359.1146,299.0951,359.1146,298.7318,369.3164,298.7765,379.5182,299.105,389.7201,298.4558,399.9219,299.7527,410.1237,298.5195,420.3255,298.97,430.5273,299.626,440.7292,299.0867,450.931,299.176,461.1328,299.176,461.1565,297.0927,461.1217,295.0094,461.1948,292.926,461.2158,290.8427,461.3362,288.7594,461.1328,289.4584,461.1328,289.4669,450.931,289.0246,440.7292,289.2423,430.5273,289.4909,420.3255,288.0081,410.1237,289.4661,399.9219,288.4505,389.7201,289.3154,379.5182,288.2437,369.3164,288.7594,359.1146" style="stroke:#555555;stroke-width:1.0417;"/><path d="M15.625,70.8008 L15.8196,70.8008 L15.2414,76.0091 L15.804,81.2174 L15.9951,86.4258 L14.9644,91.6341 L15.625,96.8424 L19.7917,101.0091 L19.7917,100.7932 L30.0595,99.8244 L40.3274,99.9438 L50.5952,100.8198 L60.8631,99.0886 L71.131,102.547 L81.3988,99.2583 L91.6667,100.4598 L101.9345,102.209 L112.2024,100.7708 L122.4702,101.1987 L132.7381,100.9204 L143.006,101.505 L153.2738,101.6734 L163.5417,101.0091 L167.7083,96.8424 L168.2506,96.8424 L168.3297,92.8841 L168.3373,88.9258 L167.9441,84.9674 L168.1376,81.0091 L167.7083,77.0508 L168.1681,77.5106 L165.1528,74.4953 L163.9859,73.3284 L161.2642,70.6067 L159.7245,69.0669 L157.2917,66.6341 L157.2917,65.2591 L146.7147,66.4438 L136.1378,68.6941 L125.5609,66.4987 L114.984,66.9266 L104.4071,67.5747 L93.8301,67.7903 L83.2532,66.6233 L72.6763,67.4319 L62.0994,65.0441 L51.5224,67.4241 L40.9455,68.1569 L30.3686,67.8689 L19.7917,66.6341 L15.625,70.8008 " fill="#17A2B8" style="stroke:#1592A6;stroke-width:1.0417;"/><path d="M157.2917,66.6341 L157.8593,66.6341 L156.8444,68.3008 L156.6878,69.9674 L156.7163,71.6341 L157.2371,73.3008 L157.2917,74.9674 L159.375,77.0508 L159.375,76.8688 L161.0417,77.6817 L162.7083,76.889 L164.375,76.7331 L166.0417,77.2621 L167.7083,77.0508 L167.2717,76.6142 L165.2851,74.6276 L163.9666,73.309 L161.7436,71.086 L159.8559,69.1983 L157.2917,66.6341 " fill="#17A2B8" style="stroke:#1592A6;stroke-width:1.0417;"/><text fill="#FFFFFF" font-family="Segoe Print" font-size="12.5" lengthAdjust="spacing" textLength="120.0684" x="27.0833" y="88.6536">initial state of Alice</text><path d="M209.375,70.8008 L209.5696,70.8008 L208.9914,76.0091 L209.554,81.2174 L209.7451,86.4258 L208.7144,91.6341 L209.375,96.8424 L213.5417,101.0091 L213.5417,100.7932 L224.1186,99.8244 L234.6955,99.9438 L245.2724,100.8198 L255.8494,99.0886 L266.4263,102.547 L277.0032,99.2583 L287.5801,100.4598 L298.1571,102.209 L308.734,100.7708 L319.3109,101.1987 L329.8878,100.9204 L340.4647,101.505 L351.0417,101.0091 L355.2083,96.8424 L355.4298,96.8424 L355.7506,92.8841 L355.8297,88.9258 L355.8373,84.9674 L355.4441,81.0091 L355.2083,77.0508 L355.5119,77.3543 L353.5848,75.4272 L350.5695,72.4119 L349.4026,71.245 L346.6809,68.5233 L344.7917,66.6341 L344.7917,68.1169 L334.6955,65.2591 L324.5994,66.4438 L314.5032,68.6941 L304.4071,66.4987 L294.3109,66.9266 L284.2147,67.5747 L274.1186,67.7903 L264.0224,66.6233 L253.9263,67.4319 L243.8301,65.0441 L233.734,67.4241 L223.6378,68.1569 L213.5417,66.6341 L209.375,70.8008 " fill="#17A2B8" style="stroke:#1592A6;stroke-width:1.0417;"/><path d="M344.7917,66.6341 L345.2033,66.6341 L345.3593,68.3008 L344.3444,69.9674 L344.1878,71.6341 L344.2163,73.3008 L344.7917,74.9674 L346.875,77.0508 L346.875,76.9963 L348.5417,76.8688 L350.2083,77.6817 L351.875,76.889 L353.5417,76.7331 L355.2083,77.0508 L355.3578,77.2002 L352.6884,74.5308 L350.7018,72.5442 L349.3832,71.2257 L347.1602,69.0027 L344.7917,66.6341 " fill="#17A2B8" style="stroke:#1592A6;stroke-width:1.0417;"/><text fill="#FFFFFF" font-family="Segoe Print" font-size="12.5" lengthAdjust="spacing" textLength="114.1663" x="220.8333" y="88.6536">initial state of Bob</text><polygon fill="#555555" points="14.5833,133.252,14.5833,133.4709,25.0961,132.8204,35.6089,133.4533,46.1217,133.6683,56.6345,132.5088,67.1473,133.171,77.6601,132.8077,88.1728,132.8525,98.6856,133.181,109.1984,132.5318,119.7112,133.8287,130.224,132.5954,140.7368,133.0459,151.2496,133.7019,161.7623,133.1626,172.2751,133.323,182.7879,133.2187,193.3007,133.4379,203.8135,133.5011,214.3263,133.862,224.8391,133.951,235.3519,133.9595,245.8646,133.5172,256.3774,133.7349,266.8902,133.9834,277.403,132.5007,287.9158,133.9587,298.4286,132.9431,308.9414,133.808,319.4541,132.7363,329.9669,133.1806,340.4797,134.0245,350.9925,133.2012,361.5053,133.3616,372.0181,133.6047,382.5309,133.6855,393.0437,133.2479,403.5564,133.5511,414.0692,132.6557,424.582,133.5482,435.0948,133.823,445.6076,133.715,456.1204,133.8905,466.6332,132.7487,477.1459,132.5726,487.6587,132.6047,498.1715,133.1906,508.6843,133.0472,519.1971,133.9618,529.7099,133.252,529.7006,133.192,530.2809,133.2258,530.9006,133.5133,531.4421,133.2977,532.0392,133.44,532.6562,133.7096,532.8074,133.8766,533.0018,134.0427,533.3155,134.3406,533.3134,134.2897,533.7069,134.6756,533.8765,134.8145,534.0141,134.9664,533.5224,134.9138,533.3661,135.2317,533.1737,135.5098,533.0521,135.8661,532.6562,135.9193,532.6559,135.9179,532.0916,136.1695,531.4481,135.9124,530.8523,135.9615,530.326,136.4582,529.7099,136.377,529.7099,135.6301,519.1971,136.9071,508.6843,136.5922,498.1715,136.0979,487.6587,136.0084,477.1459,136.8548,466.6332,136.0651,456.1204,136.9935,445.6076,135.8012,435.0948,137.0201,424.582,136.8814,414.0692,136.6321,403.5564,136.4261,393.0437,137.1338,382.5309,137.0161,372.0181,136.5533,361.5053,136.6563,350.9925,136.2413,340.4797,137.1233,329.9669,136.5383,319.4541,136.5567,308.9414,135.7433,298.4286,135.9548,287.9158,136.9298,277.403,136.8246,266.8902,136.3322,256.3774,136.0414,245.8646,136.1489,235.3519,135.6622,224.8391,136.809,214.3263,137.1473,203.8135,136.9253,193.3007,137.1008,182.7879,136.2345,172.2751,136.4678,161.7623,135.9732,151.2496,136.6728,140.7368,136.634,130.224,136.9524,119.7112,136.1377,109.1984,136.2369,98.6856,136.8389,88.1728,136.9679,77.6601,135.8431,67.1473,136.175,56.6345,136.5324,46.1217,135.7407,35.6089,136.7451,25.0961,136.6457,14.5833,136.377,14.578,136.3424,14.0017,136.3342,13.4437,136.4439,12.7989,135.995,12.2431,136.1189,11.6371,135.9193,11.7036,135.9928,11.42,135.7281,11.1817,135.5136,10.9313,135.2856,10.5153,134.8748,10.4167,134.8145,10.3233,134.7113,10.5532,134.4747,10.9197,134.3889,11.1694,134.1742,11.4307,133.9722,11.6371,133.7096,11.6215,133.6098,12.2227,133.5949,12.8092,133.4853,13.4356,133.6329,14.0168,133.4898,14.5833,133.252" style="stroke:#555555;stroke-width:1.0417;"/><path d="M10.4167,133.252 L10.4167,133.5439 L20.8859,132.6765 L31.3551,133.5204 L41.8243,133.8071 L52.2935,132.2611 L62.7627,133.144 L73.2319,132.6596 L83.701,132.7193 L94.1702,133.1573 L104.6394,132.2917 L115.1086,134.0209 L125.5778,132.3766 L136.047,132.9773 L146.5162,133.8519 L156.9854,133.1328 L167.4546,133.3467 L177.9238,133.2076 L188.393,133.4999 L198.8622,133.5841 L209.3314,134.0654 L219.8006,134.184 L230.2698,134.1954 L240.739,133.6056 L251.2082,133.8958 L261.6774,134.2273 L272.1466,132.2503 L282.6158,134.1943 L293.085,132.8401 L303.5542,133.9934 L314.0234,132.5644 L324.4926,133.1568 L334.9618,134.282 L345.431,133.1843 L355.9002,133.3982 L366.3694,133.7223 L376.8386,133.8301 L387.3078,133.2465 L397.777,133.6509 L408.2462,132.4569 L418.7154,133.6469 L429.1846,134.0133 L439.6538,133.8694 L450.123,134.1034 L460.5922,132.581 L471.0614,132.3461 L481.5306,132.3889 L491.9998,133.1702 L502.469,132.979 L512.9382,134.1984 L523.4073,133.0093 L533.8765,133.252 " fill="#555555" style="stroke:#555555;stroke-width:1.0417;"/><path d="M10.4167,136.377 L10.4167,136.6689 L20.8859,135.8015 L31.3551,136.6454 L41.8243,136.9321 L52.2935,135.3861 L62.7627,136.269 L73.2319,135.7846 L83.701,135.8443 L94.1702,136.2823 L104.6394,135.4167 L115.1086,137.1459 L125.5778,135.5016 L136.047,136.1023 L146.5162,136.9769 L156.9854,136.2578 L167.4546,136.4717 L177.9238,136.3326 L188.393,136.6249 L198.8622,136.7091 L209.3314,137.1904 L219.8006,137.309 L230.2698,137.3204 L240.739,136.7306 L251.2082,137.0208 L261.6774,137.3523 L272.1466,135.3753 L282.6158,137.3193 L293.085,135.9651 L303.5542,137.1184 L314.0234,135.6894 L324.4926,136.2818 L334.9618,137.407 L345.431,136.3093 L355.9002,136.5232 L366.3694,136.8473 L376.8386,136.9551 L387.3078,136.3715 L397.777,136.7759 L408.2462,135.5819 L418.7154,136.7719 L429.1846,137.1383 L439.6538,136.9944 L450.123,137.2284 L460.5922,135.706 L471.0614,135.4711 L481.5306,135.5139 L491.9998,136.2952 L502.469,136.104 L512.9382,137.3234 L523.4073,136.1343 L533.8765,136.377 " fill="#555555" style="stroke:#555555;stroke-width:1.0417;"/><polygon fill="#555555" points="217.3594,117.6432,217.3594,117.8622,227.3207,117.2116,237.282,117.8446,247.2433,118.0596,257.2046,116.9001,267.166,117.5623,277.1273,117.199,287.0886,117.2438,297.0499,117.5722,307.0112,116.9231,316.9725,118.2199,326.9338,117.6432,326.85,117.441,327.4968,117.8239,328.1697,118.2699,328.6902,118.3479,329.2999,118.6414,329.8801,118.8636,329.8698,118.8594,330.1814,119.4766,330.4449,120.0739,330.8002,120.7092,331.0717,121.3098,331.1005,121.8099,331.3363,121.8099,331.1889,126.8034,331.2614,131.7969,331.3443,136.7904,330.8501,141.7839,331.1005,146.7773,331.3181,146.8675,330.7613,147.3272,330.7836,148.0268,330.2094,148.4793,330.1022,149.1253,329.8801,149.7236,329.9786,149.9615,329.2843,149.9521,328.7156,150.2456,328.1573,150.5645,327.5784,150.8335,326.9338,150.944,326.9338,150.9399,316.9725,151.2432,307.0112,150.3477,297.0499,151.2402,287.0886,151.515,277.1273,151.4071,267.166,151.5826,257.2046,150.4408,247.2433,150.2647,237.282,150.2967,227.3207,150.8827,217.3594,150.944,217.3333,150.881,216.8607,150.9185,216.1577,150.3998,215.5461,150.1017,215.0327,150.0409,214.4131,149.7236,214.1992,149.635,214.0025,149.0654,214.1332,148.6313,213.8207,148.0137,213.6724,147.4642,213.1927,146.7773,213.081,146.7773,213.3036,141.7839,213.3978,136.7904,213.0287,131.7969,213.1595,126.8034,213.1927,121.8099,213.2332,121.8266,213.6459,121.3072,213.6796,120.6308,214.0734,120.1036,213.9914,119.3793,214.4131,118.8636,214.3231,118.6464,215.0693,118.7811,215.4964,118.1455,216.2485,118.2947,216.7976,117.9536,217.3594,117.6432" style="stroke:#555555;stroke-width:2.0833;"/><text fill="#FFFFFF" font-family="Segoe Print" font-size="12.5" font-weight="bold" lengthAdjust="spacing" textLength="88.5559" x="224.6511" y="138.621">Initialization</text><polygon fill="none" points="23.6501,161.3607,23.6501,161.5796,34.1374,160.9291,44.6246,161.562,55.1119,161.777,65.5991,160.6176,76.0864,161.2797,86.5736,160.9164,97.0609,160.9612,107.5481,161.2897,118.0354,160.6405,128.5226,161.9374,139.0099,160.7041,149.4971,161.1547,159.9844,161.8106,170.4716,161.2713,180.9589,161.4318,191.4461,161.3274,201.9334,161.5466,212.4206,161.6098,222.9079,161.9708,233.3951,162.0597,243.8824,162.0682,254.3696,161.6259,264.8569,161.8436,275.3441,162.0922,285.8314,160.6094,296.3186,162.0675,306.8059,161.0518,317.2931,161.9167,327.7804,160.845,338.2676,161.2893,348.7549,161.3607,348.8534,161.5986,349.3377,161.5891,349.9474,161.8826,350.5676,162.2015,351.1672,162.4705,351.7012,162.5811,351.6999,162.5805,352.0374,163.2085,352.0057,163.6835,352.5246,164.3866,352.8533,165.0109,352.9215,165.5273,353.3846,165.5273,353.5601,175.931,352.4183,186.3346,352.2422,196.7383,352.2743,207.1419,352.9215,217.5456,352.9027,217.5377,352.6144,218.1087,352.652,218.8146,352.1333,219.2901,351.8352,219.857,351.7012,220.4919,351.7315,220.5651,351.0233,220.522,350.4537,220.8135,350.0196,221.4323,349.402,221.6079,348.7549,221.7122,348.7549,222.4773,338.2676,221.377,327.7804,222.0447,317.2931,222.3273,306.8059,221.2201,296.3186,221.6124,285.8314,221.8435,275.3441,222.3912,264.8569,221.7079,254.3696,222.1941,243.8824,221.1354,233.3951,221.0068,222.9079,222.2368,212.4206,220.9654,201.9334,222.2424,191.4461,221.9275,180.9589,221.4332,170.4716,221.3437,159.9844,222.1901,149.4971,221.4004,139.0099,222.3288,128.5226,221.1365,118.0354,222.3554,107.5481,222.2167,97.0609,221.9674,86.5736,221.7614,76.0864,222.4691,65.5991,222.3514,55.1119,221.8885,44.6246,221.9916,34.1374,221.5765,23.6501,221.7122,23.7453,221.9421,23.0814,221.5178,22.4945,221.2794,21.8015,220.7849,21.2392,220.6059,20.7038,220.4919,20.8741,220.5624,20.5976,219.9597,20.2019,219.3076,19.8682,218.6813,19.6573,218.1057,19.4834,217.5456,18.7687,217.5456,19.9155,207.1419,20.2538,196.7383,20.0318,186.3346,20.2073,175.931,19.4834,165.5273,19.4396,165.5092,19.7555,164.9497,19.8473,164.2973,20.3068,163.7973,20.5389,163.2031,20.7038,162.5811,20.7772,162.7583,21.2626,162.2633,21.8645,162.0498,22.5305,161.9911,23.1362,161.7868,23.6501,161.3607" style="stroke:#555555;stroke-width:1.0417;"/><path d="M23.6501,161.3607 L23.6501,161.9445 L34.0668,160.2098 L44.4834,161.8976 L54.9001,162.4709 L65.3168,159.379 L75.7334,161.1448 L86.1501,160.176 L96.5668,161.3607 L96.2117,161.3607 L96.5037,164.4857 L95.9266,167.6107 L97.0794,170.7357 L95.9832,173.8607 L96.5668,176.9857 L96.4373,176.8562 L94.7662,179.3518 L92.3439,181.0962 L90.3615,183.2804 L88.2125,185.2981 L86.1501,187.4023 L86.1501,187.8982 L75.039,188.0666 L63.9279,189.0293 L52.8168,189.2664 L41.7057,189.2892 L30.5946,188.1096 L19.4834,187.4023 L19.9127,187.4023 L20.1337,183.0273 L18.8157,178.6523 L20.1117,174.2773 L19.2089,169.9023 L19.4834,165.5273 L23.6501,161.3607 " fill="#555555" style="stroke:#555555;stroke-width:1.0417;"/><text fill="#555555" font-family="Segoe Print" font-size="12.5" font-weight="bold" lengthAdjust="spacing" textLength="20.0806" x="38.2334" y="180.2551">ref</text><text fill="#555555" font-family="Segoe Print" font-size="12.5" lengthAdjust="spacing" textLength="19.7693" x="176.3179" y="208.3801">init</text><polygon fill="#333333" points="265.8427,253.9714,265.8698,254.0391,267.8726,254.6711,270.0343,255.7003,272.1442,256.6002,274.084,257.0747,276.2594,258.138,276.2493,258.113,274.121,258.8339,272.0432,259.6811,270.0006,260.616,267.8369,261.2485,265.8427,262.3047,265.9786,262.4406,266.5213,261.3166,267.4608,260.5895,268.4487,259.9107,269.155,258.9503,270.0094,258.138,270.0261,258.1548,269.1682,257.2968,268.3865,256.5152,267.5681,255.6967,266.8198,254.9485,265.8427,253.9714" style="stroke:#333333;stroke-width:1.0417;"/><path d="M91.805,258.138 L91.805,258.4299 L102.4102,257.5626 L113.0153,258.4065 L123.6205,258.6931 L134.2256,257.1472 L144.8308,258.0301 L155.436,257.5457 L166.0411,257.6054 L176.6463,258.0434 L187.2514,257.1778 L197.8566,258.907 L208.4617,257.2626 L219.0669,257.8633 L229.6721,258.7379 L240.2772,258.0189 L250.8824,258.2328 L261.4875,258.0936 L272.0927,258.138 " fill="none" style="stroke:#333333;stroke-width:3.125;"/><text fill="#2E2E2E" font-family="Segoe Print" font-size="12.5" lengthAdjust="spacing" textLength="30.2063" x="104.305" y="247.8984">hello</text><path d="M288.7594,292.4805 L288.7594,292.7724 L298.551,291.905 L308.3427,292.7489 L318.1344,293.0356 L327.926,291.4896 L337.7177,292.4805 " fill="none" style="stroke:#333333;stroke-width:3.125;"/><path d="M337.7177,292.4805 L337.815,292.4805 L337.5259,295.1888 L337.8072,297.8971 L337.9027,300.6055 L337.3874,303.3138 L337.7177,306.0221 " fill="none" style="stroke:#333333;stroke-width:3.125;"/><path d="M295.0094,306.0221 L295.0094,306.1194 L303.551,305.8303 L312.0927,306.1116 L320.6344,306.2072 L329.176,305.6919 L337.7177,306.0221 " fill="none" style="stroke:#333333;stroke-width:3.125;"/><polygon fill="#333333" points="305.426,301.8555,305.4531,301.9232,303.2893,302.5552,301.2843,303.5844,299.2276,304.4843,297.0007,304.9588,295.0094,306.0221,294.9993,305.9971,297.0377,306.718,299.1266,307.5652,301.2506,308.5002,303.2535,309.1326,305.426,310.1888,305.562,310.3247,304.4379,309.2007,303.7108,308.4736,303.0321,307.7949,302.0716,306.8344,301.2594,306.0221,301.2761,306.0389,302.0848,305.181,302.9699,304.3993,303.8181,303.5808,304.7365,302.8326,305.426,301.8555" style="stroke:#333333;stroke-width:1.0417;"/><text fill="#2E2E2E" font-family="Segoe Print" font-size="12.5" lengthAdjust="spacing" textLength="47.5281" x="306.4677" y="282.2408">self call</text><path d="M293.9677,345.5729 L293.9677,345.8648 L303.7594,344.9975 L313.551,345.8414 L323.3427,346.128 L333.1344,344.5821 L342.926,345.5729 " fill="none" style="stroke:#333333;stroke-width:3.125;"/><path d="M342.926,345.5729 L343.0233,345.5729 L342.7342,348.2813 L343.0155,350.9896 L343.1111,353.6979 L342.5958,356.4063 L342.926,359.1146 " fill="none" style="stroke:#333333;stroke-width:3.125;"/><path d="M300.2177,359.1146 L300.2177,359.2119 L308.7594,358.9228 L317.301,359.2041 L325.8427,359.2996 L334.3844,358.7843 L342.926,359.1146 " fill="none" style="stroke:#333333;stroke-width:3.125;"/><polygon fill="#333333" points="310.6344,354.9479,310.6615,355.0157,308.4976,355.6477,306.4926,356.6769,304.4359,357.5768,302.209,358.0513,300.2177,359.1146,300.2077,359.0895,302.246,359.8104,304.3349,360.6576,306.4589,361.5926,308.4619,362.225,310.6344,363.2813,310.7703,363.4172,309.6463,362.2932,308.9191,361.566,308.2404,360.8873,307.28,359.9269,306.4677,359.1146,306.4844,359.1313,307.2932,358.2734,308.1782,357.4917,309.0264,356.6733,309.9448,355.9251,310.6344,354.9479" style="stroke:#333333;stroke-width:1.0417;"/><text fill="#2E2E2E" font-family="Segoe Print" font-size="12.5" lengthAdjust="spacing" textLength="30.2063" x="311.676" y="335.3333">hello</text><polygon fill="#333333" points="403.713,399.707,403.7401,399.7748,405.7429,400.4068,407.9046,401.436,410.0145,402.3359,411.9543,402.8104,414.1296,403.8737,414.1196,403.8486,411.9913,404.5695,409.9135,405.4167,407.8708,406.3517,405.7071,406.9841,403.713,408.0404,403.8489,408.1763,404.3916,407.0523,405.3311,406.3251,406.319,405.6464,407.0252,404.686,407.8796,403.8737,407.8964,403.8905,407.0385,403.0325,406.2568,402.2509,405.4384,401.4324,404.6901,400.6842,403.713,399.707" style="stroke:#333333;stroke-width:1.0417;"/><path d="M299.176,403.8737 L299.176,404.1656 L309.2476,403.2983 L319.3191,404.1422 L329.3906,404.4288 L339.4622,402.8829 L349.5337,403.7658 L359.6053,403.2813 L369.6768,403.3411 L379.7484,403.779 L389.8199,402.9135 L399.8914,404.6426 L409.963,403.8737 " fill="none" style="stroke:#333333;stroke-width:3.125;"/><text fill="#2E2E2E" font-family="Segoe Print" font-size="12.5" lengthAdjust="spacing" textLength="39.9536" x="311.676" y="393.634">create</text><polygon fill="none" points="420.3796,372.6563,420.3796,372.8752,430.7888,372.2247,441.1981,372.8576,451.6073,373.0726,462.0165,371.9131,472.4257,372.5753,482.8349,372.6563,482.7782,372.5194,483.3732,372.7773,484.0043,373.1225,484.5108,373.1667,485.2655,373.8102,485.7812,373.8766,485.579,373.7929,485.9618,374.4396,486.4079,375.1125,486.4859,375.633,486.7794,376.2427,487.0015,376.8229,486.9905,376.8229,487.0635,383.0664,487.0846,389.3099,487.2049,395.5534,487.2346,401.7969,487.0015,408.0404,487.2194,408.1306,486.8392,408.6635,486.6621,409.2805,486.4946,409.9014,485.7939,410.3016,485.7812,410.9866,485.8713,411.2043,485.1525,411.1356,484.6736,411.646,483.9476,411.5601,483.415,411.941,482.8349,412.207,482.8349,412.9795,472.4257,412.1563,462.0165,412.3167,451.6073,412.5598,441.1981,412.6406,430.7888,412.203,420.3796,412.207,420.4178,412.2992,419.7143,411.7793,419.2389,411.8101,418.6847,411.6507,418.0817,411.3733,417.4334,410.9866,417.63,411.0681,417.0343,410.3332,416.736,409.7215,416.5018,409.1363,416.4382,408.6218,416.213,408.0404,416.1447,408.0404,416.4496,401.7969,416.1523,395.5534,416.0939,389.3099,416.2922,383.0664,416.213,376.8229,415.9991,376.7343,416.2905,376.1647,416.9093,375.7306,417.085,375.113,417.4249,374.5635,417.4334,373.8766,417.3906,373.7734,418.065,373.735,418.6903,373.5779,419.1384,372.9929,419.7776,372.8696,420.3796,372.6563" style="stroke:#333333;stroke-width:1.0417;"/><text fill="#2E2E2E" font-family="Segoe Print" font-size="12.5" lengthAdjust="spacing" textLength="45.7886" x="428.713" y="396.759">George</text><path d="M299.176,460.0911 L299.176,460.1885 L307.926,459.8993 L316.676,460.1806 L325.426,460.2762 L334.176,459.7609 L342.926,460.0911 " fill="none" style="stroke:#333333;stroke-width:3.125;stroke-dasharray:2.0,2.0;"/><path d="M342.926,460.0911 L343.0233,460.0911 L342.7342,462.7995 L343.0155,465.5078 L343.1111,468.2161 L342.5958,470.9245 L342.926,473.6328 " fill="none" style="stroke:#333333;stroke-width:3.125;stroke-dasharray:2.0,2.0;"/><path d="M293.9677,473.6328 L293.9677,473.9247 L303.7594,473.0574 L313.551,473.9013 L323.3427,474.1879 L333.1344,472.642 L342.926,473.6328 " fill="none" style="stroke:#333333;stroke-width:3.125;stroke-dasharray:2.0,2.0;"/><polygon fill="#333333" points="304.3844,469.4661,304.4115,469.5339,302.2476,470.1659,300.2426,471.1951,298.1859,472.095,295.959,472.5695,293.9677,473.6328,293.9577,473.6078,295.996,474.3286,298.0849,475.1758,300.2089,476.1108,302.2119,476.7433,304.3844,477.7995,304.5203,477.9354,303.3963,476.8114,302.6691,476.0843,301.9904,475.4055,301.03,474.4451,300.2177,473.6328,300.2344,473.6496,301.0432,472.7916,301.9282,472.01,302.7764,471.1915,303.6948,470.4433,304.3844,469.4661" style="stroke:#333333;stroke-width:1.0417;"/><text fill="#2E2E2E" font-family="Segoe Print" font-size="12.5" lengthAdjust="spacing" textLength="31.1951" x="311.676" y="449.8515">done</text><path d="M293.9677,513.1836 L293.9677,513.2809 L302.7177,512.9918 L311.4677,513.2731 L320.2177,513.3686 L328.9677,512.8533 L337.7177,513.1836 " fill="none" style="stroke:#333333;stroke-width:3.125;stroke-dasharray:2.0,2.0;"/><path d="M337.7177,513.1836 L337.815,513.1836 L337.5259,515.8919 L337.8072,518.6003 L337.9027,521.3086 L337.3874,524.0169 L337.7177,526.7253 " fill="none" style="stroke:#333333;stroke-width:3.125;stroke-dasharray:2.0,2.0;"/><path d="M288.7594,526.7253 L288.7594,527.0172 L298.551,526.1498 L308.3427,526.9937 L318.1344,527.2804 L327.926,525.7344 L337.7177,526.7253 " fill="none" style="stroke:#333333;stroke-width:3.125;stroke-dasharray:2.0,2.0;"/><polygon fill="#333333" points="299.176,522.5586,299.2031,522.6264,297.0393,523.2584,295.0343,524.2876,292.9776,525.1874,290.7507,525.6619,288.7594,526.7253,288.7493,526.7002,290.7877,527.4211,292.8766,528.2683,295.0006,529.2033,297.0035,529.8357,299.176,530.8919,299.312,531.0279,298.1879,529.9038,297.4608,529.1767,296.7821,528.498,295.8216,527.5375,295.0094,526.7253,295.0261,526.742,295.8348,525.8841,296.7199,525.1024,297.5681,524.284,298.4865,523.5357,299.176,522.5586" style="stroke:#333333;stroke-width:1.0417;"/><text fill="#2E2E2E" font-family="Segoe Print" font-size="12.5" lengthAdjust="spacing" textLength="12.0117" x="306.4677" y="502.9439">rc</text><polygon fill="#333333" points="439.1073,556.901,439.1344,556.9688,441.1372,557.6008,443.2989,558.63,445.4088,559.5299,447.3486,560.0044,449.5239,561.0677,449.5139,561.0427,447.3856,561.7635,445.3078,562.6107,443.2651,563.5457,441.1014,564.1782,439.1073,565.2344,439.2432,565.3703,439.7858,564.2463,440.7254,563.5192,441.7133,562.8404,442.4195,561.88,443.2739,561.0677,443.2907,561.0845,442.4327,560.2265,441.6511,559.4449,440.8326,558.6264,440.0844,557.8782,439.1073,556.901" style="stroke:#333333;stroke-width:1.0417;"/><path d="M288.7594,561.0677 L288.7594,561.3596 L299.1992,560.4923 L309.6391,561.3362 L320.0789,561.6228 L330.5188,560.0769 L340.9587,560.9598 L351.3985,560.4754 L361.8384,560.5351 L372.2782,560.973 L382.7181,560.1075 L393.158,561.8367 L403.5978,560.1923 L414.0377,560.793 L424.4775,561.6676 L434.9174,560.9486 L445.3573,561.0677 " fill="none" style="stroke:#333333;stroke-width:3.125;"/><text fill="#2E2E2E" font-family="Segoe Print" font-size="12.5" lengthAdjust="spacing" textLength="39.3799" x="301.2594" y="550.828">delete</text><path d="M442.2323,551.6927 L442.3011,551.7615 L445.8466,555.3071 L449.7955,559.256 L453.6131,563.0735 L456.9987,566.4592 L460.9823,570.4427 " fill="none" style="stroke:#555555;stroke-width:2.0833;"/><path d="M442.2323,570.4427 L442.3011,570.5115 L445.8466,566.5571 L449.7955,563.006 L453.6131,559.3235 L456.9987,555.2092 L460.9823,551.6927 " fill="none" style="stroke:#555555;stroke-width:2.0833;"/><polygon fill="#333333" points="103.2633,596.4518,103.2905,596.5196,101.1266,597.1516,99.1216,598.1808,97.0649,599.0807,94.838,599.5552,92.8467,600.6185,92.8367,600.5934,94.875,601.3143,96.9639,602.1615,99.0879,603.0965,101.0909,603.7289,103.2633,604.7852,103.3993,604.9211,102.2753,603.7971,101.5481,603.0699,100.8694,602.3912,99.909,601.4308,99.0967,600.6185,99.1134,600.6352,99.9222,599.7773,100.8072,598.9957,101.6554,598.1772,102.5738,597.429,103.2633,596.4518" style="stroke:#333333;stroke-width:1.0417;"/><path d="M97.0133,600.6185 L97.0133,600.9104 L107.3187,600.043 L117.624,600.8869 L127.9293,601.1736 L138.2347,599.6277 L148.54,600.5106 L158.8454,600.0261 L169.1507,600.0859 L179.456,600.5238 L189.7614,599.6583 L200.0667,601.3874 L210.372,599.7431 L220.6774,600.3438 L230.9827,601.2184 L241.288,600.4994 L251.5934,600.7133 L261.8987,600.5741 L272.204,600.8664 L282.5094,600.6185 " fill="none" style="stroke:#333333;stroke-width:3.125;stroke-dasharray:2.0,2.0;"/><text fill="#2E2E2E" font-family="Segoe Print" font-size="12.5" lengthAdjust="spacing" textLength="48.8953" x="114.7217" y="590.3788">success</text><polygon fill="#555555" points="14.5833,634.9772,14.5833,635.1962,25.0961,634.5456,35.6089,635.1786,46.1217,635.3935,56.6345,634.2341,67.1473,634.8963,77.6601,634.5329,88.1728,634.5777,98.6856,634.9062,109.1984,634.257,119.7112,635.5539,130.224,634.3207,140.7368,634.7712,151.2496,635.4272,161.7623,634.8879,172.2751,635.0483,182.7879,634.9439,193.3007,635.1632,203.8135,635.2263,214.3263,635.5873,224.8391,635.6762,235.3519,635.6848,245.8646,635.2424,256.3774,635.4601,266.8902,635.7087,277.403,634.226,287.9158,635.684,298.4286,634.6684,308.9414,635.5333,319.4541,634.4616,329.9669,634.9059,340.4797,635.7497,350.9925,634.9264,361.5053,635.0869,372.0181,635.33,382.5309,635.4108,393.0437,634.9731,403.5564,635.2764,414.0692,634.3809,424.582,635.2735,435.0948,635.5483,445.6076,635.4403,456.1204,635.6158,466.6332,634.474,477.1459,634.2979,487.6587,634.3299,498.1715,634.9159,508.6843,634.7725,519.1971,635.687,529.7099,634.9772,529.7006,634.9173,530.2809,634.951,530.9006,635.2386,531.4421,635.023,532.0392,635.1652,532.6562,635.4349,532.8074,635.6019,533.0018,635.768,533.3155,636.0659,533.3134,636.0149,533.7069,636.4009,533.8765,636.5397,534.0141,636.6917,533.5224,636.6391,533.3661,636.957,533.1737,637.2351,533.0521,637.5914,532.6562,637.6446,532.6559,637.6431,532.0916,637.8948,531.4481,637.6376,530.8523,637.6868,530.326,638.1835,529.7099,638.1022,529.7099,637.3554,519.1971,638.6324,508.6843,638.3175,498.1715,637.8231,487.6587,637.7337,477.1459,638.5801,466.6332,637.7904,456.1204,638.7187,445.6076,637.5264,435.0948,638.7454,424.582,638.6067,414.0692,638.3574,403.5564,638.1514,393.0437,638.8591,382.5309,638.7414,372.0181,638.2785,361.5053,638.3816,350.9925,637.9665,340.4797,638.8485,329.9669,638.2635,319.4541,638.282,308.9414,637.4685,298.4286,637.6801,287.9158,638.6551,277.403,638.5499,266.8902,638.0575,256.3774,637.7666,245.8646,637.8742,235.3519,637.3874,224.8391,638.5342,214.3263,638.8726,203.8135,638.6505,193.3007,638.8261,182.7879,637.9598,172.2751,638.1931,161.7623,637.6985,151.2496,638.3981,140.7368,638.3593,130.224,638.6776,119.7112,637.863,109.1984,637.9622,98.6856,638.5642,88.1728,638.6932,77.6601,637.5683,67.1473,637.9003,56.6345,638.2577,46.1217,637.4659,35.6089,638.4703,25.0961,638.371,14.5833,638.1022,14.578,638.0676,14.0017,638.0595,13.4437,638.1692,12.7989,637.7203,12.2431,637.8442,11.6371,637.6446,11.7036,637.7181,11.42,637.4534,11.1817,637.2389,10.9313,637.0109,10.5153,636.6,10.4167,636.5397,10.3233,636.4365,10.5532,636.1999,10.9197,636.1142,11.1694,635.8995,11.4307,635.6975,11.6371,635.4349,11.6215,635.335,12.2227,635.3202,12.8092,635.2106,13.4356,635.3582,14.0168,635.2151,14.5833,634.9772" style="stroke:#555555;stroke-width:1.0417;"/><path d="M10.4167,634.9772 L10.4167,635.2691 L20.8859,634.4018 L31.3551,635.2457 L41.8243,635.5323 L52.2935,633.9864 L62.7627,634.8693 L73.2319,634.3849 L83.701,634.4446 L94.1702,634.8826 L104.6394,634.017 L115.1086,635.7462 L125.5778,634.1018 L136.047,634.7025 L146.5162,635.5771 L156.9854,634.8581 L167.4546,635.072 L177.9238,634.9328 L188.393,635.2252 L198.8622,635.3093 L209.3314,635.7907 L219.8006,635.9092 L230.2698,635.9206 L240.739,635.3309 L251.2082,635.6211 L261.6774,635.9525 L272.1466,633.9756 L282.6158,635.9196 L293.085,634.5654 L303.5542,635.7186 L314.0234,634.2897 L324.4926,634.8821 L334.9618,636.0072 L345.431,634.9095 L355.9002,635.1235 L366.3694,635.4475 L376.8386,635.5553 L387.3078,634.9718 L397.777,635.3761 L408.2462,634.1822 L418.7154,635.3722 L429.1846,635.7386 L439.6538,635.5946 L450.123,635.8286 L460.5922,634.3063 L471.0614,634.0714 L481.5306,634.1142 L491.9998,634.8954 L502.469,634.7043 L512.9382,635.9236 L523.4073,634.7346 L533.8765,634.9772 " fill="#555555" style="stroke:#555555;stroke-width:1.0417;"/><path d="M10.4167,638.1022 L10.4167,638.3941 L20.8859,637.5268 L31.3551,638.3707 L41.8243,638.6573 L52.2935,637.1114 L62.7627,637.9943 L73.2319,637.5099 L83.701,637.5696 L94.1702,638.0076 L104.6394,637.142 L115.1086,638.8712 L125.5778,637.2268 L136.047,637.8275 L146.5162,638.7021 L156.9854,637.9831 L167.4546,638.197 L177.9238,638.0578 L188.393,638.3502 L198.8622,638.4343 L209.3314,638.9157 L219.8006,639.0342 L230.2698,639.0456 L240.739,638.4559 L251.2082,638.7461 L261.6774,639.0775 L272.1466,637.1006 L282.6158,639.0446 L293.085,637.6904 L303.5542,638.8436 L314.0234,637.4147 L324.4926,638.0071 L334.9618,639.1322 L345.431,638.0345 L355.9002,638.2485 L366.3694,638.5725 L376.8386,638.6803 L387.3078,638.0968 L397.777,638.5011 L408.2462,637.3072 L418.7154,638.4972 L429.1846,638.8636 L439.6538,638.7196 L450.123,638.9536 L460.5922,637.4313 L471.0614,637.1964 L481.5306,637.2392 L491.9998,638.0204 L502.469,637.8293 L512.9382,639.0486 L523.4073,637.8596 L533.8765,638.1022 " fill="#555555" style="stroke:#555555;stroke-width:1.0417;"/><polygon fill="#555555" points="209.7453,619.3685,209.7453,619.5874,220.1455,618.9369,230.5457,619.5698,240.9459,619.7848,251.3462,618.6254,261.7464,619.2875,272.1466,618.9242,282.5468,618.969,292.947,619.2975,303.3473,618.6483,313.7475,619.9452,324.1477,618.7119,334.5479,619.3685,334.5217,619.305,335.1946,619.7511,335.715,619.8291,336.3248,620.1226,336.9007,620.3346,337.4942,620.5889,337.5515,620.6126,337.815,621.2099,338.1703,621.8452,338.4417,622.4458,338.6884,623.0362,338.7146,623.5352,338.803,623.5352,338.8756,628.5286,338.9584,633.5221,338.4642,638.5156,338.9502,643.5091,338.7146,648.5026,338.6195,648.4632,338.6418,649.1628,338.0676,649.6153,337.9604,650.2613,337.9762,650.9582,337.4942,651.4489,337.4877,651.4332,336.9189,651.7267,336.3607,652.0457,335.7818,652.3146,335.1367,652.4239,334.5479,652.6693,334.5479,652.9685,324.1477,652.073,313.7475,652.9655,303.3473,653.2403,292.947,653.1323,282.5468,653.3078,272.1466,652.1661,261.7464,651.9899,251.3462,652.022,240.9459,652.6079,230.5457,652.4646,220.1455,653.3791,209.7453,652.6693,209.7221,652.6132,209.1104,652.3151,208.5971,652.2543,207.8889,651.7231,207.3193,651.5264,206.799,651.4489,207.0072,651.5351,206.6947,650.9175,206.5465,650.368,205.9635,649.6384,205.9251,649.1343,205.5786,648.5026,205.7836,648.5026,205.4146,643.5091,205.5453,638.5156,205.6224,633.5221,205.8049,628.5286,205.5786,623.5352,205.5773,623.5346,205.9711,623.0074,205.8891,622.2831,206.0936,621.6774,206.7165,621.2451,206.799,620.5889,206.7037,620.3589,207.4559,620.5081,208.005,620.167,208.5312,619.7707,209.109,619.4991,209.7453,619.3685" style="stroke:#555555;stroke-width:2.0833;"/><text fill="#FFFFFF" font-family="Segoe Print" font-size="12.5" font-weight="bold" lengthAdjust="spacing" textLength="103.7842" x="217.0369" y="640.3463">Delay example</text><polygon fill="#333333" points="271.2924,699.9945,271.3231,700.0607,273.2669,700.8091,275.3908,701.9456,277.456,702.9557,279.3283,703.5503,281.4677,704.7201,281.459,704.6945,279.2948,705.2989,277.1741,706.0321,275.0837,706.8549,272.8889,707.369,270.8403,708.3155,270.9687,708.4586,271.5715,707.3657,272.5491,706.6906,273.5724,706.0665,274.3297,705.1457,275.2269,704.381,275.2445,704.3968,274.4317,703.4963,273.6992,702.6678,272.928,701.8045,272.2307,701.0076,271.2924,699.9945" style="stroke:#333333;stroke-width:1.0417;"/><path d="M91.805,694.3034 L91.821,694.5949 L102.3103,694.3075 L112.8934,695.7288 L123.4459,696.5938 L133.8979,695.6289 L144.4832,697.0891 L154.9934,697.1841 L165.5335,697.8225 L176.0943,698.8385 L186.5837,698.5529 L197.2153,700.8582 L207.662,699.7951 L218.2317,700.9736 L228.8165,702.4256 L239.3139,702.2863 L249.8624,703.0786 L260.3916,703.5183 L270.9445,704.3889 L281.4677,704.7201 " fill="none" style="stroke:#333333;stroke-width:3.125;"/><text fill="#2E2E2E" font-family="Segoe Print" font-size="12.5" lengthAdjust="spacing" textLength="147.0703" x="104.305" y="684.0637">Authentication Request</text><polygon fill="#333333" points="103.022,789.5452,103.0527,789.6114,100.9263,790.3599,98.9801,791.4964,96.9753,792.5065,94.7774,793.1011,92.8467,794.2708,92.838,794.2453,94.9247,794.8497,97.0549,795.5829,99.2155,796.4057,101.2716,796.9198,103.474,797.8663,103.6024,798.0094,102.4506,796.9165,101.6736,796.2414,100.9422,795.6173,99.9449,794.6965,99.0875,793.9318,99.1051,793.9476,99.8661,793.0471,100.7074,792.2186,101.51,791.3553,102.3865,790.5583,103.022,789.5452" style="stroke:#333333;stroke-width:1.0417;"/><path d="M282.5094,783.8542 L282.5253,784.1457 L271.8833,783.8583 L261.3346,785.2796 L250.7556,786.1446 L240.0766,785.1796 L229.53,786.6399 L218.9089,786.7349 L208.3175,787.3732 L197.7467,788.3893 L187.1048,788.1037 L176.6044,790.409 L165.9201,789.3458 L155.3581,790.5243 L144.8112,791.9763 L134.1773,791.8371 L123.5942,792.6294 L112.992,793.0691 L102.4132,793.9397 L91.805,794.2708 " fill="none" style="stroke:#333333;stroke-width:3.125;stroke-dasharray:2.0,2.0;"/><text fill="#2E2E2E" font-family="Segoe Print" font-size="12.5" lengthAdjust="spacing" textLength="156.3293" x="114.7217" y="773.6145">Authentication Response</text><text fill="#2E2E2E" font-family="Segoe Print" font-size="12.5" lengthAdjust="spacing" textLength="95.3613" x="224.0255" y="844.4153">5 minutes later</text><polygon fill="#333333" points="103.2633,894.2057,103.2905,894.2735,101.1266,894.9055,99.1216,895.9347,97.0649,896.8346,94.838,897.3091,92.8467,898.3724,92.8367,898.3473,94.875,899.0682,96.9639,899.9154,99.0879,900.8504,101.0909,901.4828,103.2633,902.5391,103.3993,902.675,102.2753,901.551,101.5481,900.8238,100.8694,900.1451,99.909,899.1847,99.0967,898.3724,99.1134,898.3891,99.9222,897.5312,100.8072,896.7496,101.6554,895.9311,102.5738,895.1829,103.2633,894.2057" style="stroke:#333333;stroke-width:1.0417;"/><path d="M97.0133,898.3724 L97.0133,898.6643 L107.3187,897.797 L117.624,898.6408 L127.9293,898.9275 L138.2347,897.3816 L148.54,898.2645 L158.8454,897.78 L169.1507,897.8398 L179.456,898.2777 L189.7614,897.4122 L200.0667,899.1413 L210.372,897.497 L220.6774,898.0977 L230.9827,898.9723 L241.288,898.2533 L251.5934,898.4672 L261.8987,898.328 L272.204,898.6203 L282.5094,898.3724 " fill="none" style="stroke:#333333;stroke-width:3.125;stroke-dasharray:2.0,2.0;"/><text fill="#2E2E2E" font-family="Segoe Print" font-size="12.5" lengthAdjust="spacing" textLength="69.5374" x="114.7217" y="888.1327">Good Bye !</text></g></svg>