<svg xmlns="http://www.w3.org/2000/svg" xmlns:xlink="http://www.w3.org/1999/xlink" contentStyleType="text/css" height="418px" preserveAspectRatio="none" style="width:344px;height:418px;background:#FFFFFF;" version="1.1" viewBox="0 0 344 418" width="344px" zoomAndPan="magnify"><defs/><g><rect fill="none" height="283.8047" style="stroke:#000000;stroke-width:1.5;" width="327.9619" x="10" y="82.4297"/><rect fill="none" height="135.6641" style="stroke:#000000;stroke-width:1.5;" width="307.9619" x="20" y="179.6328"/><rect fill="none" height="46.2656" style="stroke:#000000;stroke-width:1.5;" width="248.71" x="30" y="232.8984"/><line style="stroke:#181818;stroke-width:0.5;stroke-dasharray:5.0,5.0;" x1="63" x2="63" y1="36.2969" y2="383.2344"/><line style="stroke:#181818;stroke-width:0.5;stroke-dasharray:5.0,5.0;" x1="247.6533" x2="247.6533" y1="36.2969" y2="383.2344"/><line style="stroke:#181818;stroke-width:0.5;stroke-dasharray:5.0,5.0;" x1="297.71" x2="297.71" y1="36.2969" y2="383.2344"/><rect fill="#E2E2F0" height="30.2969" rx="2.5" ry="2.5" style="stroke:#181818;stroke-width:0.5;" width="47.667" x="40" y="5"/><text fill="#000000" font-family="sans-serif" font-size="14" lengthAdjust="spacing" textLength="33.667" x="47" y="24.9951">Alice</text><rect fill="#E2E2F0" height="30.2969" rx="2.5" ry="2.5" style="stroke:#181818;stroke-width:0.5;" width="47.667" x="40" y="382.2344"/><text fill="#000000" font-family="sans-serif" font-size="14" lengthAdjust="spacing" textLength="33.667" x="47" y="402.2295">Alice</text><rect fill="#E2E2F0" height="30.2969" rx="2.5" ry="2.5" style="stroke:#181818;stroke-width:0.5;" width="41.0566" x="227.6533" y="5"/><text fill="#000000" font-family="sans-serif" font-size="14" lengthAdjust="spacing" textLength="27.0566" x="234.6533" y="24.9951">Bob</text><rect fill="#E2E2F0" height="30.2969" rx="2.5" ry="2.5" style="stroke:#181818;stroke-width:0.5;" width="41.0566" x="227.6533" y="382.2344"/><text fill="#000000" font-family="sans-serif" font-size="14" lengthAdjust="spacing" textLength="27.0566" x="234.6533" y="402.2295">Bob</text><rect fill="#E2E2F0" height="30.2969" rx="2.5" ry="2.5" style="stroke:#181818;stroke-width:0.5;" width="39.252" x="278.71" y="5"/><text fill="#000000" font-family="sans-serif" font-size="14" lengthAdjust="spacing" textLength="25.252" x="285.71" y="24.9951">Log</text><rect fill="#E2E2F0" height="30.2969" rx="2.5" ry="2.5" style="stroke:#181818;stroke-width:0.5;" width="39.252" x="278.71" y="382.2344"/><text fill="#000000" font-family="sans-serif" font-size="14" lengthAdjust="spacing" textLength="25.252" x="285.71" y="402.2295">Log</text><polygon fill="#181818" points="236.1816,63.4297,246.1816,67.4297,236.1816,71.4297,240.1816,67.4297" style="stroke:#181818;stroke-width:1.0;"/><line style="stroke:#181818;stroke-width:1.0;" x1="63.8335" x2="242.1816" y1="67.4297" y2="67.4297"/><text fill="#000000" font-family="sans-serif" font-size="13" lengthAdjust="spacing" textLength="152.9531" x="70.8335" y="62.3638">Authentication Request</text><path d="M10,82.4297 L74.4429,82.4297 L74.4429,89.5625 L64.4429,99.5625 L10,99.5625 L10,82.4297 " fill="#EEEEEE" style="stroke:#000000;stroke-width:1.5;"/><rect fill="none" height="283.8047" style="stroke:#000000;stroke-width:1.5;" width="327.9619" x="10" y="82.4297"/><text fill="#000000" font-family="sans-serif" font-size="13" font-weight="bold" lengthAdjust="spacing" textLength="19.4429" x="25" y="95.4966">alt</text><text fill="#000000" font-family="sans-serif" font-size="11" font-weight="bold" lengthAdjust="spacing" textLength="106.1973" x="89.4429" y="94.6401">[successful case]</text><polygon fill="#181818" points="74.8335,116.6953,64.8335,120.6953,74.8335,124.6953,70.8335,120.6953" style="stroke:#181818;stroke-width:1.0;"/><line style="stroke:#181818;stroke-width:1.0;" x1="68.8335" x2="247.1816" y1="120.6953" y2="120.6953"/><text fill="#000000" font-family="sans-serif" font-size="13" lengthAdjust="spacing" textLength="160.3481" x="80.8335" y="115.6294">Authentication Accepted</text><line style="stroke:#000000;stroke-width:1.0;stroke-dasharray:2.0,2.0;" x1="10" x2="337.9619" y1="129.6953" y2="129.6953"/><text fill="#000000" font-family="sans-serif" font-size="11" font-weight="bold" lengthAdjust="spacing" textLength="134.1699" x="15" y="139.9058">[some kind of failure]</text><polygon fill="#181818" points="74.8335,160.6328,64.8335,164.6328,74.8335,168.6328,70.8335,164.6328" style="stroke:#181818;stroke-width:1.0;"/><line style="stroke:#181818;stroke-width:1.0;" x1="68.8335" x2="247.1816" y1="164.6328" y2="164.6328"/><text fill="#000000" font-family="sans-serif" font-size="13" lengthAdjust="spacing" textLength="143.8125" x="80.8335" y="159.5669">Authentication Failure</text><path d="M20,179.6328 L161.4653,179.6328 L161.4653,186.7656 L151.4653,196.7656 L20,196.7656 L20,179.6328 " fill="#EEEEEE" style="stroke:#000000;stroke-width:1.5;"/><rect fill="none" height="135.6641" style="stroke:#000000;stroke-width:1.5;" width="307.9619" x="20" y="179.6328"/><text fill="#000000" font-family="sans-serif" font-size="13" font-weight="bold" lengthAdjust="spacing" textLength="96.4653" x="35" y="192.6997">My own label</text><polygon fill="#181818" points="286.3359,213.8984,296.3359,217.8984,286.3359,221.8984,290.3359,217.8984" style="stroke:#181818;stroke-width:1.0;"/><line style="stroke:#181818;stroke-width:1.0;" x1="63.8335" x2="292.3359" y1="217.8984" y2="217.8984"/><text fill="#000000" font-family="sans-serif" font-size="13" lengthAdjust="spacing" textLength="102.7939" x="70.8335" y="212.8325">Log attack start</text><path d="M30,232.8984 L106.624,232.8984 L106.624,240.0313 L96.624,250.0313 L30,250.0313 L30,232.8984 " fill="#EEEEEE" style="stroke:#000000;stroke-width:1.5;"/><rect fill="none" height="46.2656" style="stroke:#000000;stroke-width:1.5;" width="248.71" x="30" y="232.8984"/><text fill="#000000" font-family="sans-serif" font-size="13" font-weight="bold" lengthAdjust="spacing" textLength="31.624" x="45" y="245.9653">loop</text><text fill="#000000" font-family="sans-serif" font-size="11" font-weight="bold" lengthAdjust="spacing" textLength="78.998" x="121.624" y="245.1089">[1000 times]</text><polygon fill="#181818" points="236.1816,267.1641,246.1816,271.1641,236.1816,275.1641,240.1816,271.1641" style="stroke:#181818;stroke-width:1.0;"/><line style="stroke:#181818;stroke-width:1.0;" x1="63.8335" x2="242.1816" y1="271.1641" y2="271.1641"/><text fill="#000000" font-family="sans-serif" font-size="13" lengthAdjust="spacing" textLength="73.8486" x="70.8335" y="266.0981">DNS Attack</text><polygon fill="#181818" points="286.3359,303.2969,296.3359,307.2969,286.3359,311.2969,290.3359,307.2969" style="stroke:#181818;stroke-width:1.0;"/><line style="stroke:#181818;stroke-width:1.0;" x1="63.8335" x2="292.3359" y1="307.2969" y2="307.2969"/><text fill="#000000" font-family="sans-serif" font-size="13" lengthAdjust="spacing" textLength="97.0049" x="70.8335" y="302.231">Log attack end</text><line style="stroke:#000000;stroke-width:1.0;stroke-dasharray:2.0,2.0;" x1="10" x2="337.9619" y1="323.2969" y2="323.2969"/><text fill="#000000" font-family="sans-serif" font-size="11" font-weight="bold" lengthAdjust="spacing" textLength="151.9912" x="15" y="333.5073">[Another type of failure]</text><polygon fill="#181818" points="74.8335,354.2344,64.8335,358.2344,74.8335,362.2344,70.8335,358.2344" style="stroke:#181818;stroke-width:1.0;"/><line style="stroke:#181818;stroke-width:1.0;" x1="68.8335" x2="247.1816" y1="358.2344" y2="358.2344"/><text fill="#000000" font-family="sans-serif" font-size="13" lengthAdjust="spacing" textLength="88.9751" x="80.8335" y="353.1685">Please repeat</text></g></svg>