<svg xmlns="http://www.w3.org/2000/svg" xmlns:xlink="http://www.w3.org/1999/xlink" contentStyleType="text/css" data-diagram-type="SEQUENCE" height="634.375px" preserveAspectRatio="none" style="width:566px;height:634px;" version="1.1" viewBox="0 0 566 634" width="566.6667px" zoomAndPan="magnify"><defs/><g><rect fill="#FFFFCC" height="27.7507" rx="2.6042" ry="2.6042" style="stroke:#FFDD88;stroke-width:3.125;" width="555.9194" x="5.2083" y="5.2083"/><text fill="#000000" font-family="monospace" font-size="10.4167" lengthAdjust="spacing" textLength="370.0104" x="10.4167" y="20.8333">Please&#160;use&#160;'!option&#160;handwritten&#160;true'&#160;to&#160;enable&#160;handwritten</text><polygon fill="#FFFFFF" fill-opacity="0.00000" points="25,146.4355,25,146.6545,35.4099,146.004,45.8198,146.6369,56.2298,146.8519,66.6397,145.6924,77.0496,146.3546,87.4595,145.9913,97.8694,146.0361,108.2794,146.3646,118.6893,145.7154,129.0992,147.0123,139.5091,145.779,149.919,146.2295,160.329,146.8855,170.7389,146.3462,181.1488,146.5066,191.5587,146.4023,201.9686,146.6215,212.3786,146.6846,222.7885,147.0456,233.1984,147.1346,243.6083,147.1431,254.0182,146.7008,264.4282,146.9184,274.8381,147.167,285.248,145.6843,295.6579,147.1423,306.0678,146.1267,316.4777,146.9916,326.8877,145.9199,337.2976,146.3642,347.7075,147.2081,358.1174,146.3848,368.5273,146.5452,378.9373,146.7883,389.3472,146.8691,399.7571,146.4315,410.167,146.7347,420.5769,145.8393,430.9869,146.7318,441.3968,147.0066,451.8067,146.8986,462.2166,147.0741,472.6265,145.9323,483.0365,145.7562,493.4464,145.7883,503.8563,146.3742,514.2662,146.2308,524.6761,147.1454,535.0861,146.4355,535.0628,146.3795,535.6297,146.5696,536.2949,146.9969,536.7652,146.9539,537.3741,147.2453,538.0323,147.6559,538.2405,147.7422,538.4162,148.3031,538.7561,148.932,538.6613,149.3809,539.111,150.0554,539.2527,150.6022,539.8677,150.6022,538.7606,160.9041,539.1529,171.2061,539.384,181.508,539.9316,191.8099,539.2484,202.1118,539.7346,212.4137,538.6759,222.7157,538.5473,233.0176,539.7773,243.3195,538.5059,253.6214,539.7829,263.9233,539.468,274.2253,538.9736,284.5272,538.8842,294.8291,539.7306,305.131,538.9409,315.4329,539.8692,325.7349,538.677,336.0368,539.8959,346.3387,539.7572,356.6406,539.5079,366.9425,539.3019,377.2445,540.0096,387.5464,539.8919,397.8483,539.429,408.1502,539.5321,418.4521,539.117,428.7541,539.999,439.056,539.414,449.3579,539.4325,459.6598,538.619,469.9618,538.8306,480.2637,539.8056,490.5656,539.7004,500.8675,539.208,511.1694,538.9171,521.4714,539.0247,531.7733,538.538,542.0752,539.6847,552.3771,539.2527,562.679,539.49,562.7773,539.1775,563.3382,538.9875,563.9499,538.4766,564.4286,538.3044,565.0476,538.0323,565.6253,537.9808,565.501,537.4808,565.9605,536.8866,566.1926,536.338,566.5347,535.6448,566.528,535.0861,566.8457,535.0861,566.7057,524.6761,567.3076,514.2662,567.4367,503.8563,566.3118,493.4464,566.6437,483.0365,567.0012,472.6265,566.2094,462.2166,567.2138,451.8067,567.1144,441.3968,566.7407,430.9869,566.9939,420.5769,567.6047,410.167,566.5198,399.7571,567.1738,389.3472,567.1433,378.9373,566.9663,368.5273,566.9925,358.1174,566.9639,347.7075,566.1955,337.2976,566.4282,326.8877,566.3649,316.4777,566.9122,306.0678,566.9375,295.6579,567.0142,285.248,566.5426,274.8381,566.7754,264.4282,566.7205,254.0182,567.4466,243.6083,567.29,233.1984,566.3399,222.7885,566.7697,212.3786,566.2444,201.9686,567.1461,191.5587,567.4795,181.1488,567.413,170.7389,566.392,160.329,567.329,149.919,566.0719,139.5091,567.0542,129.0992,566.5339,118.6893,566.9465,108.2794,567.0961,97.8694,567.3375,87.4595,566.0958,77.0496,567.341,66.6397,567.0313,56.2298,567.2158,45.8198,567.6247,35.4099,566.8514,25,566.8457,25.0233,566.9019,24.4391,566.6701,23.8477,566.4208,23.2321,566.1132,22.7374,566.0974,22.0537,565.6253,21.8581,565.5443,21.991,565.1112,21.3654,564.3639,21.1482,563.7858,21.0902,563.2736,20.8333,562.679,20.8628,562.679,20.32,552.3771,21.2643,542.0752,20.9467,531.7733,21.5903,521.4714,21.5282,511.1694,20.3664,500.8675,20.4188,490.5656,20.6988,480.2637,21.2037,469.9618,21.2531,459.6598,21.147,449.3579,20.4771,439.056,21.4962,428.7541,21.4935,418.4521,20.7841,408.1502,20.5843,397.8483,20.4152,387.5464,20.6098,377.2445,20.9765,366.9425,20.7621,356.6406,20.3981,346.3387,21.341,336.0368,20.3553,325.7349,21.3566,315.4329,21.2784,305.131,21.2207,294.8291,21.5547,284.5272,20.5772,274.2253,20.5202,263.9233,21.3738,253.6214,20.2116,243.3195,20.5896,233.0176,20.9536,222.7157,20.9049,212.4137,20.4599,202.1118,20.7886,191.8099,21.6089,181.508,21.5088,171.2061,20.2122,160.9041,20.8333,150.6022,20.8585,150.6126,20.9126,149.9447,21.313,149.4202,21.6596,148.8734,21.9443,148.301,22.0537,147.6559,21.9654,147.4427,22.6962,147.5403,23.2333,147.1705,23.7477,146.7456,24.3482,146.5285,25,146.4355" style="stroke:#333333;stroke-width:1.0417;"/><polygon fill="#FFFFFF" fill-opacity="0.00000" points="35.4167,296.2728,35.4167,296.4917,45.8263,295.8412,56.2359,296.4741,66.6456,296.6891,77.0552,295.5297,87.4648,296.1918,97.8745,295.8285,108.2841,295.8733,118.6937,296.2018,129.1034,295.5526,139.513,296.8495,149.9226,295.6162,160.3323,296.0668,170.7419,296.7227,181.1515,296.1834,191.5612,296.3439,201.9708,296.2395,212.3804,296.4588,222.7901,296.5219,233.1997,296.8829,243.6093,296.9718,254.0189,296.9803,264.4286,296.538,274.8382,296.7557,285.2478,297.0043,295.6575,295.5216,306.0671,296.9796,316.4767,295.9639,326.8864,296.8288,337.296,295.7571,347.7056,296.2014,358.1153,297.0453,368.5249,296.222,378.9345,296.3825,389.3442,296.6255,399.7538,296.7064,410.1634,296.2687,420.5731,296.572,430.9827,295.6765,441.3923,296.569,451.802,296.8438,462.2116,296.7358,472.6212,296.9114,483.0309,295.7696,493.4405,295.5934,503.8501,295.6255,514.2598,296.2115,524.6694,296.2728,524.6433,296.2097,525.3492,296.7355,525.8247,296.7049,526.3916,296.895,527.0567,297.3223,527.6157,297.4932,527.4018,297.4046,527.6932,298.0135,528.312,298.7579,528.4877,299.3188,528.8276,299.9478,528.8361,300.4395,528.5009,300.4395,529.1686,310.9031,529.4511,321.3668,528.344,331.8305,528.7362,342.2942,528.9673,352.7579,529.515,363.2216,528.8317,373.6853,529.3179,384.1489,528.2592,394.6126,528.1306,405.0763,529.3607,415.54,528.0892,426.0037,529.3662,436.4674,529.0513,446.9311,528.557,457.3947,528.4675,467.8584,529.3139,478.3221,528.8361,488.7858,528.74,488.746,528.7818,489.4537,528.1706,489.8909,528.3019,490.6356,528.0151,491.2072,527.6157,491.7321,527.6482,491.8107,527.0327,491.9913,526.5337,492.4533,525.9294,492.6611,525.2811,492.7627,524.6694,492.9525,524.6694,493.2318,514.2598,492.8168,503.8501,493.6988,493.4405,493.1138,483.0309,493.1322,472.6212,492.3188,462.2116,492.5304,451.802,493.5053,441.3923,493.4001,430.9827,492.9078,420.5731,492.6169,410.1634,492.7244,399.7538,492.2377,389.3442,493.3845,378.9345,493.7229,368.5249,493.5008,358.1153,493.6764,347.7056,492.81,337.296,493.0433,326.8864,492.5487,316.4767,493.2483,306.0671,493.2095,295.6575,493.5279,285.2478,492.7132,274.8382,492.8125,264.4286,493.4144,254.0189,493.5434,243.6093,492.4186,233.1997,492.7505,222.7901,493.108,212.3804,492.3162,201.9708,493.3206,191.5612,493.2212,181.1515,492.8475,170.7419,493.1007,160.3323,493.7115,149.9226,492.6266,139.513,493.2806,129.1034,493.25,118.6937,493.0731,108.2841,493.0993,97.8745,493.0707,87.4648,492.3023,77.0552,492.535,66.6456,492.4717,56.2359,493.019,45.8263,493.0443,35.4167,492.9525,35.4382,493.0044,34.7887,492.6151,34.2292,492.4427,33.6329,492.1817,33.1363,492.1612,32.4704,491.7321,32.6072,491.7888,32.0706,491.0783,31.9588,490.5439,31.553,489.8876,31.5866,489.4134,31.25,488.7858,31.8838,488.7858,31.8173,478.3221,30.7963,467.8584,31.7333,457.3947,30.4762,446.9311,31.4585,436.4674,30.9382,426.0037,31.3508,415.54,31.5003,405.0763,31.7418,394.6126,30.5001,384.1489,31.7453,373.6853,31.4356,363.2216,31.6201,352.7579,32.029,342.2942,31.2557,331.8305,31.4326,321.3668,31.4723,310.9031,31.25,300.4395,31.3133,300.4657,31.4938,299.8501,31.9661,299.3554,31.7866,298.5907,32.4076,298.1575,32.4704,297.4932,32.3875,297.293,32.9878,297.0758,33.6542,297.0179,34.2419,296.77,34.7619,296.3588,35.4167,296.2728" style="stroke:#333333;stroke-width:1.0417;"/><polygon fill="#FFFFFF" fill-opacity="0.00000" points="45.8333,370.166,45.8333,370.385,56.3814,369.7344,66.9296,370.3674,77.4777,370.5823,88.0258,369.4229,98.5739,370.0851,109.122,369.7218,119.6701,369.7665,130.2183,370.095,140.7664,369.4458,151.3145,370.7427,161.8626,369.5095,172.4107,369.96,182.9588,370.616,193.5069,370.0767,204.0551,370.2371,214.6032,370.1327,225.1513,370.352,235.6994,370.4151,246.2475,370.7761,256.7956,370.865,267.3437,370.8736,277.8919,370.4313,288.44,370.6489,298.9881,370.8975,309.5362,369.4148,320.0843,370.8728,330.6324,369.8572,341.1805,370.7221,351.7287,369.6504,362.2768,370.0947,372.8249,370.9385,383.373,370.166,383.3665,370.1504,383.9763,370.4439,384.5965,370.7628,385.1961,371.0318,385.7295,371.1411,386.3193,371.3864,386.4114,371.4246,386.3797,371.8996,386.8987,372.6027,387.2274,373.227,387.4382,373.8025,387.5397,374.3327,388.1782,374.3327,387.0365,385.6011,386.8603,396.8696,386.8924,408.138,387.4783,419.4065,387.335,430.6749,387.5397,441.9434,387.7583,442.0339,387.2396,442.5094,386.9415,443.0763,386.8807,443.7415,386.3494,444.2118,386.3193,444.8896,386.2503,444.7231,385.8163,445.3419,385.1987,445.5176,384.6491,445.8575,383.9195,445.7627,383.373,446.11,383.373,446.4425,372.8249,446.725,362.2768,445.6179,351.7287,446.0102,341.1805,446.2413,330.6324,446.7889,320.0843,446.1057,309.5362,446.5919,298.9881,445.5332,288.44,445.4045,277.8919,446.6346,267.3437,445.3632,256.7956,446.6402,246.2475,446.3253,235.6994,445.8309,225.1513,445.7415,214.6032,446.5879,204.0551,445.7982,193.5069,446.7265,182.9588,445.5343,172.4107,446.7532,161.8626,446.6145,151.3145,446.3652,140.7664,446.1592,130.2183,446.8669,119.6701,446.7492,109.122,446.2863,98.5739,446.3894,88.0258,445.9743,77.4777,446.8563,66.9296,446.2713,56.3814,446.2898,45.8333,446.11,45.7525,445.9149,45.1902,445.736,44.7253,445.7921,44.1227,445.5157,43.4706,445.1199,42.8871,444.8896,42.7837,444.8468,42.5727,444.2713,42.1788,443.6199,42.2879,443.177,42.148,442.6309,41.6667,441.9434,42.215,441.9434,42.3906,430.6749,41.5242,419.4065,41.7575,408.138,41.2629,396.8696,41.9625,385.6011,41.6667,374.3327,41.7458,374.3655,42.0879,373.8168,42.0811,373.1237,42.3558,372.5471,42.7852,372.0346,42.8871,371.3864,42.9624,371.5684,43.4082,370.9779,44.0398,370.8361,44.6747,370.7021,45.1629,370.2141,45.8333,370.166" style="stroke:#333333;stroke-width:1.0417;"/><g><title>Alice</title><polygon fill="#FFFFFF" fill-opacity="0.00000" points="117.1132,89.1764,117.1132,89.2494,118.7799,89.0326,120.4466,89.2435,122.1132,89.3152,123.7799,88.9287,125.4466,89.1764,125.3656,89.1764,125.0023,99.4968,125.0471,109.8172,125.3756,120.1375,124.7264,130.4579,126.0233,140.7783,124.79,151.0986,125.2406,161.419,125.8965,171.7394,125.3572,182.0597,125.5177,192.3801,125.4133,202.7005,125.6325,213.0208,125.6957,223.3412,126.0567,233.6616,126.1456,243.9819,126.1541,254.3023,125.7118,264.6227,125.9295,274.943,126.1781,285.2634,124.6953,295.5838,126.1534,305.9041,125.1377,316.2245,126.0026,326.5449,124.9309,336.8652,125.3752,347.1856,126.2191,357.506,125.3958,367.8263,125.5563,378.1467,125.7993,388.4671,125.8801,398.7874,125.4425,409.1078,125.7458,419.4282,124.8503,429.7485,125.7428,440.0689,126.0176,450.3893,125.9096,460.7096,126.0851,471.03,124.9434,481.3504,124.7672,491.6707,124.7993,501.9911,125.3852,512.3115,125.2419,522.6318,126.1564,532.9522,125.2646,543.2726,125.0892,553.5929,125.6844,563.9133,124.752,574.2337,125.4466,584.554,125.4466,584.3738,123.7799,584.7794,122.1132,584.7053,120.4466,584.8091,118.7799,584.4423,117.1132,584.554,117.4457,584.554,117.7283,574.2337,116.6212,563.9133,117.0134,553.5929,117.2445,543.2726,117.7922,532.9522,117.1089,522.6318,117.5951,512.3115,116.5364,501.9911,116.4078,491.6707,117.6378,481.3504,116.3664,471.03,117.6434,460.7096,117.3285,450.3893,116.8342,440.0689,116.7447,429.7485,117.5911,419.4282,116.8014,409.1078,117.7298,398.7874,116.5375,388.4671,117.7564,378.1467,117.6177,367.8263,117.3684,357.506,117.1624,347.1856,117.8701,336.8652,117.7524,326.5449,117.2895,316.2245,117.3926,305.9041,116.9775,295.5838,117.8595,285.2634,117.2746,274.943,117.293,264.6227,116.4795,254.3023,116.6911,243.9819,117.6661,233.6616,117.5609,223.3412,117.0685,213.0208,116.7776,202.7005,116.8852,192.3801,116.3985,182.0597,117.5453,171.7394,117.8836,161.419,117.6616,151.0986,117.8371,140.7783,116.9708,130.4579,117.2041,120.1375,116.7095,109.8172,117.4091,99.4968,117.1132,89.1764"/><path d="M120.8333,89.1764 L121.1253,89.1764 L120.2579,99.4968 L121.1018,109.8172 L121.3884,120.1375 L119.8425,130.4579 L120.7254,140.7783 L120.241,151.0986 L120.3007,161.419 L120.7387,171.7394 L119.8731,182.0597 L121.6023,192.3801 L119.9579,202.7005 L120.5587,213.0208 L121.4333,223.3412 L120.7142,233.6616 L120.9281,243.9819 L120.789,254.3023 L121.0813,264.6227 L121.1655,274.943 L121.6468,285.2634 L121.7654,295.5838 L121.7767,305.9041 L121.187,316.2245 L121.4772,326.5449 L121.8087,336.8652 L119.8317,347.1856 L121.7757,357.506 L120.4215,367.8263 L121.5747,378.1467 L120.1458,388.4671 L120.7382,398.7874 L121.8633,409.1078 L120.7656,419.4282 L120.9796,429.7485 L121.3036,440.0689 L121.4114,450.3893 L120.8279,460.7096 L121.2322,471.03 L120.0383,481.3504 L121.2283,491.6707 L121.5947,501.9911 L121.4507,512.3115 L121.6848,522.6318 L120.1624,532.9522 L119.9275,543.2726 L119.9703,553.5929 L120.7516,563.9133 L120.5604,574.2337 L120.8333,584.554 " fill="#FFFFFF" fill-opacity="0.00000" style="stroke:#555555;stroke-width:1.0417;stroke-dasharray:5.0,5.0;"/></g><g><title>Bob</title><polygon fill="#FFFFFF" fill-opacity="0.00000" points="306.7108,89.1764,306.7108,89.2494,308.3775,89.0326,310.0441,89.2435,311.7108,89.3152,313.3775,88.9287,315.0441,89.1764,314.9632,89.1764,314.5999,99.4968,314.6447,109.8172,314.9732,120.1375,314.324,130.4579,315.6209,140.7783,314.3876,151.0986,314.8381,161.419,315.4941,171.7394,314.9548,182.0597,315.1152,192.3801,315.0109,202.7005,315.2301,213.0208,315.2932,223.3412,315.6542,233.6616,315.7432,243.9819,315.7517,254.3023,315.3094,264.6227,315.527,274.943,315.7756,285.2634,314.2929,295.5838,315.7509,305.9041,314.7353,316.2245,315.6002,326.5449,314.5285,336.8652,314.9728,347.1856,315.8167,357.506,314.9934,367.8263,315.1538,378.1467,315.3969,388.4671,315.4777,398.7874,315.0401,409.1078,315.3433,419.4282,314.4479,429.7485,315.3404,440.0689,315.6152,450.3893,315.5072,460.7096,315.6827,471.03,314.5409,481.3504,314.3648,491.6707,314.3969,501.9911,314.9828,512.3115,314.8394,522.6318,315.754,532.9522,314.8622,543.2726,314.6868,553.5929,315.2819,563.9133,314.3495,574.2337,315.0441,584.554,315.0441,584.3738,313.3775,584.7794,311.7108,584.7053,310.0441,584.8091,308.3775,584.4423,306.7108,584.554,307.0433,584.554,307.3258,574.2337,306.2187,563.9133,306.611,553.5929,306.842,543.2726,307.3897,532.9522,306.7064,522.6318,307.1927,512.3115,306.134,501.9911,306.0053,491.6707,307.2354,481.3504,305.964,471.03,307.241,460.7096,306.9261,450.3893,306.4317,440.0689,306.3423,429.7485,307.1887,419.4282,306.399,409.1078,307.3273,398.7874,306.135,388.4671,307.354,378.1467,307.2153,367.8263,306.966,357.506,306.76,347.1856,307.4677,336.8652,307.35,326.5449,306.8871,316.2245,306.9902,305.9041,306.5751,295.5838,307.4571,285.2634,306.8721,274.943,306.8906,264.6227,306.0771,254.3023,306.2887,243.9819,307.2637,233.6616,307.1585,223.3412,306.6661,213.0208,306.3752,202.7005,306.4828,192.3801,305.996,182.0597,307.1428,171.7394,307.4812,161.419,307.2591,151.0986,307.4347,140.7783,306.5684,130.4579,306.8017,120.1375,306.3071,109.8172,307.0067,99.4968,306.7108,89.1764"/><path d="M310.257,89.1764 L310.5489,89.1764 L309.6815,99.4968 L310.5254,109.8172 L310.8121,120.1375 L309.2661,130.4579 L310.149,140.7783 L309.6646,151.0986 L309.7243,161.419 L310.1623,171.7394 L309.2967,182.0597 L311.0259,192.3801 L309.3816,202.7005 L309.9823,213.0208 L310.8569,223.3412 L310.1378,233.6616 L310.3517,243.9819 L310.2126,254.3023 L310.5049,264.6227 L310.5891,274.943 L311.0704,285.2634 L311.189,295.5838 L311.2004,305.9041 L310.6106,316.2245 L310.9008,326.5449 L311.2323,336.8652 L309.2553,347.1856 L311.1993,357.506 L309.8451,367.8263 L310.9984,378.1467 L309.5694,388.4671 L310.1618,398.7874 L311.287,409.1078 L310.1893,419.4282 L310.4032,429.7485 L310.7273,440.0689 L310.8351,450.3893 L310.2515,460.7096 L310.6559,471.03 L309.4619,481.3504 L310.6519,491.6707 L311.0183,501.9911 L310.8744,512.3115 L311.1084,522.6318 L309.586,532.9522 L309.3511,543.2726 L309.3939,553.5929 L310.1752,563.9133 L309.984,574.2337 L310.257,584.554 " fill="#FFFFFF" fill-opacity="0.00000" style="stroke:#555555;stroke-width:1.0417;stroke-dasharray:5.0,5.0;"/></g><g><title>Log</title><polygon fill="#FFFFFF" fill-opacity="0.00000" points="448.8129,89.1764,448.8129,89.2494,450.4795,89.0326,452.1462,89.2435,453.8129,89.3152,455.4795,88.9287,457.1462,89.1764,457.0652,89.1764,456.7019,99.4968,456.7467,109.8172,457.0752,120.1375,456.426,130.4579,457.7229,140.7783,456.4897,151.0986,456.9402,161.419,457.5961,171.7394,457.0568,182.0597,457.2173,192.3801,457.1129,202.7005,457.3322,213.0208,457.3953,223.3412,457.7563,233.6616,457.8452,243.9819,457.8538,254.3023,457.4114,264.6227,457.6291,274.943,457.8777,285.2634,456.395,295.5838,457.853,305.9041,456.8373,316.2245,457.7023,326.5449,456.6306,336.8652,457.0748,347.1856,457.9187,357.506,457.0954,367.8263,457.2559,378.1467,457.4989,388.4671,457.5798,398.7874,457.1421,409.1078,457.4454,419.4282,456.5499,429.7485,457.4424,440.0689,457.7172,450.3893,457.6093,460.7096,457.7848,471.03,456.643,481.3504,456.4668,491.6707,456.4989,501.9911,457.0849,512.3115,456.9415,522.6318,457.856,532.9522,456.9642,543.2726,456.7889,553.5929,457.384,563.9133,456.4516,574.2337,457.1462,584.554,457.1462,584.3738,455.4795,584.7794,453.8129,584.7053,452.1462,584.8091,450.4795,584.4423,448.8129,584.554,449.1454,584.554,449.4279,574.2337,448.3208,563.9133,448.713,553.5929,448.9441,543.2726,449.4918,532.9522,448.8085,522.6318,449.2947,512.3115,448.236,501.9911,448.1074,491.6707,449.3375,481.3504,448.0661,471.03,449.343,460.7096,449.0281,450.3893,448.5338,440.0689,448.4444,429.7485,449.2907,419.4282,448.5011,409.1078,449.4294,398.7874,448.2371,388.4671,449.456,378.1467,449.3173,367.8263,449.068,357.506,448.8621,347.1856,449.5698,336.8652,449.452,326.5449,448.9892,316.2245,449.0922,305.9041,448.6772,295.5838,449.5592,285.2634,448.9742,274.943,448.9926,264.6227,448.1792,254.3023,448.3908,243.9819,449.3657,233.6616,449.2605,223.3412,448.7681,213.0208,448.4773,202.7005,448.5848,192.3801,448.0981,182.0597,449.2449,171.7394,449.5832,161.419,449.3612,151.0986,449.5368,140.7783,448.6704,130.4579,448.9037,120.1375,448.4091,109.8172,449.1087,99.4968,448.8129,89.1764"/><path d="M452.123,89.1764 L452.4149,89.1764 L451.5476,99.4968 L452.3915,109.8172 L452.6781,120.1375 L451.1322,130.4579 L452.0151,140.7783 L451.5307,151.0986 L451.5904,161.419 L452.0283,171.7394 L451.1628,182.0597 L452.892,192.3801 L451.2476,202.7005 L451.8483,213.0208 L452.7229,223.3412 L452.0039,233.6616 L452.2178,243.9819 L452.0786,254.3023 L452.371,264.6227 L452.4551,274.943 L452.9365,285.2634 L453.055,295.5838 L453.0664,305.9041 L452.4767,316.2245 L452.7669,326.5449 L453.0983,336.8652 L451.1214,347.1856 L453.0654,357.506 L451.7112,367.8263 L452.8644,378.1467 L451.4355,388.4671 L452.0279,398.7874 L453.153,409.1078 L452.0553,419.4282 L452.2693,429.7485 L452.5933,440.0689 L452.7011,450.3893 L452.1176,460.7096 L452.5219,471.03 L451.328,481.3504 L452.518,491.6707 L452.8844,501.9911 L452.7404,512.3115 L452.9744,522.6318 L451.4521,532.9522 L451.2172,543.2726 L451.26,553.5929 L452.0412,563.9133 L451.8501,574.2337 L452.123,584.554 " fill="#FFFFFF" fill-opacity="0.00000" style="stroke:#555555;stroke-width:1.0417;stroke-dasharray:5.0,5.0;"/></g><g><polygon fill="#FFFFFF" fill-opacity="0.00000" points="97.9167,48.584,97.9167,48.657,107.262,48.4401,116.6073,48.6511,125.9526,48.7228,135.2979,48.3363,144.6431,48.584,144.6328,48.5591,145.1757,48.6912,145.7707,48.9491,146.4019,49.2944,146.9083,49.3385,147.5894,49.8044,147.767,49.8779,147.6313,50.3099,148.0141,50.9566,148.4602,51.6295,148.5382,52.15,148.8098,52.7507,148.8335,52.7507,148.7987,58.9941,148.8718,65.2376,148.8928,71.4811,149.0132,77.7246,148.8098,83.9681,149.0251,84.0573,148.7836,84.6476,148.4033,85.1804,148.2263,85.7975,148.0588,86.4184,147.5894,86.9144,147.4936,86.683,147.0903,87.3761,146.3715,87.3074,145.8926,87.8179,145.1666,87.7319,144.6431,88.1348,144.6431,88.111,135.2979,88.3923,125.9526,88.1178,116.6073,88.1713,107.262,88.2523,97.9167,88.1348,97.972,88.2683,97.3269,87.8894,96.7763,87.7387,96.0728,87.2189,95.5974,87.2497,94.9704,86.9144,95.1462,86.9872,94.8689,86.3842,94.6789,85.8173,94.0832,85.0824,93.7849,84.4707,93.75,83.9681,93.5342,83.9681,93.7296,77.7246,93.6818,71.4811,93.9866,65.2376,93.6893,58.9941,93.75,52.7507,93.64,52.7051,94.0673,52.1917,94.0242,51.4835,94.3157,50.9139,94.9345,50.4799,94.9704,49.8044,95.0283,49.9441,95.6572,49.7959,96.1061,49.213,96.7806,49.1745,97.4059,49.0175,97.9167,48.584" style="stroke:#333333;stroke-width:1.0417;"/><text fill="#2E2E2E" font-family="Segoe Print" font-size="12.5" lengthAdjust="spacing" textLength="30.0598" x="106.25" y="72.6868">Alice</text></g><g><polygon fill="#FFFFFF" fill-opacity="0.00000" points="97.9167,583.5124,97.9167,583.5853,107.262,583.3685,116.6073,583.5795,125.9526,583.6511,135.2979,583.2647,144.6431,583.5124,144.6328,583.4874,145.1757,583.6196,145.7707,583.8775,146.4019,584.2227,146.9083,584.2669,147.5894,584.7328,147.767,584.8063,147.6313,585.2383,148.0141,585.885,148.4602,586.5579,148.5382,587.0784,148.8098,587.679,148.8335,587.679,148.7987,593.9225,148.8718,600.166,148.8928,606.4095,149.0132,612.653,148.8098,618.8965,149.0251,618.9857,148.7836,619.576,148.4033,620.1088,148.2263,620.7259,148.0588,621.3468,147.5894,621.8428,147.4936,621.6114,147.0903,622.3045,146.3715,622.2358,145.8926,622.7462,145.1666,622.6603,144.6431,623.0632,144.6431,623.0394,135.2979,623.3207,125.9526,623.0462,116.6073,623.0997,107.262,623.1807,97.9167,623.0632,97.972,623.1967,97.3269,622.8178,96.7763,622.6671,96.0728,622.1473,95.5974,622.1781,94.9704,621.8428,95.1462,621.9156,94.8689,621.3126,94.6789,620.7457,94.0832,620.0108,93.7849,619.3991,93.75,618.8965,93.5342,618.8965,93.7296,612.653,93.6818,606.4095,93.9866,600.166,93.6893,593.9225,93.75,587.679,93.64,587.6335,94.0673,587.1201,94.0242,586.4119,94.3157,585.8423,94.9345,585.4082,94.9704,584.7328,95.0283,584.8725,95.6572,584.7243,96.1061,584.1414,96.7806,584.1029,97.4059,583.9458,97.9167,583.5124" style="stroke:#333333;stroke-width:1.0417;"/><text fill="#2E2E2E" font-family="Segoe Print" font-size="12.5" lengthAdjust="spacing" textLength="30.0598" x="106.25" y="607.6152">Alice</text></g><g><polygon fill="#FFFFFF" fill-opacity="0.00000" points="290.4653,48.584,290.4653,48.657,298.6302,48.4401,306.795,48.6511,314.9599,48.7228,323.1248,48.3363,331.2897,48.584,331.2793,48.5591,331.8223,48.6912,332.4172,48.9491,333.0484,49.2944,333.5548,49.3385,334.236,49.8044,334.4136,49.8779,334.2778,50.3099,334.6607,50.9566,335.1067,51.6295,335.1847,52.15,335.4563,52.7507,335.48,52.7507,335.4452,58.9941,335.5183,65.2376,335.5394,71.4811,335.6597,77.7246,335.4563,83.9681,335.6716,84.0573,335.4302,84.6476,335.0499,85.1804,334.8728,85.7975,334.7053,86.4184,334.236,86.9144,334.1401,86.683,333.7369,87.3761,333.018,87.3074,332.5391,87.8179,331.8132,87.7319,331.2897,88.1348,331.2897,88.111,323.1248,88.3923,314.9599,88.1178,306.795,88.1713,298.6302,88.2523,290.4653,88.1348,290.5206,88.2683,289.8755,87.8894,289.3249,87.7387,288.6215,87.2189,288.1461,87.2497,287.519,86.9144,287.6949,86.9872,287.4175,86.3842,287.2275,85.8173,286.6318,85.0824,286.3335,84.4707,286.2986,83.9681,286.0829,83.9681,286.2782,77.7246,286.2304,71.4811,286.5352,65.2376,286.238,58.9941,286.2986,52.7507,286.1886,52.7051,286.6159,52.1917,286.5729,51.4835,286.8643,50.9139,287.4831,50.4799,287.519,49.8044,287.5769,49.9441,288.2059,49.7959,288.6548,49.213,289.3292,49.1745,289.9545,49.0175,290.4653,48.584" style="stroke:#333333;stroke-width:1.0417;"/><text fill="#2E2E2E" font-family="Segoe Print" font-size="12.5" lengthAdjust="spacing" textLength="24.1577" x="298.7986" y="72.6868">Bob</text></g><g><polygon fill="#FFFFFF" fill-opacity="0.00000" points="290.4653,583.5124,290.4653,583.5853,298.6302,583.3685,306.795,583.5795,314.9599,583.6511,323.1248,583.2647,331.2897,583.5124,331.2793,583.4874,331.8223,583.6196,332.4172,583.8775,333.0484,584.2227,333.5548,584.2669,334.236,584.7328,334.4136,584.8063,334.2778,585.2383,334.6607,585.885,335.1067,586.5579,335.1847,587.0784,335.4563,587.679,335.48,587.679,335.4452,593.9225,335.5183,600.166,335.5394,606.4095,335.6597,612.653,335.4563,618.8965,335.6716,618.9857,335.4302,619.576,335.0499,620.1088,334.8728,620.7259,334.7053,621.3468,334.236,621.8428,334.1401,621.6114,333.7369,622.3045,333.018,622.2358,332.5391,622.7462,331.8132,622.6603,331.2897,623.0632,331.2897,623.0394,323.1248,623.3207,314.9599,623.0462,306.795,623.0997,298.6302,623.1807,290.4653,623.0632,290.5206,623.1967,289.8755,622.8178,289.3249,622.6671,288.6215,622.1473,288.1461,622.1781,287.519,621.8428,287.6949,621.9156,287.4175,621.3126,287.2275,620.7457,286.6318,620.0108,286.3335,619.3991,286.2986,618.8965,286.0829,618.8965,286.2782,612.653,286.2304,606.4095,286.5352,600.166,286.238,593.9225,286.2986,587.679,286.1886,587.6335,286.6159,587.1201,286.5729,586.4119,286.8643,585.8423,287.4831,585.4082,287.519,584.7328,287.5769,584.8725,288.2059,584.7243,288.6548,584.1414,289.3292,584.1029,289.9545,583.9458,290.4653,583.5124" style="stroke:#333333;stroke-width:1.0417;"/><text fill="#2E2E2E" font-family="Segoe Print" font-size="12.5" lengthAdjust="spacing" textLength="24.1577" x="298.7986" y="607.6152">Bob</text></g><g><polygon fill="#FFFFFF" fill-opacity="0.00000" points="433.373,48.584,433.373,48.657,441.2156,48.4401,449.0582,48.6511,456.9008,48.7228,464.7434,48.3363,472.5861,48.584,472.5757,48.5591,473.1186,48.6912,473.7136,48.9491,474.3448,49.2944,474.8512,49.3385,475.5323,49.8044,475.7099,49.8779,475.5742,50.3099,475.9571,50.9566,476.4031,51.6295,476.4811,52.15,476.7527,52.7507,476.7764,52.7507,476.7416,58.9941,476.8147,65.2376,476.8358,71.4811,476.9561,77.7246,476.7527,83.9681,476.968,84.0573,476.7265,84.6476,476.3463,85.1804,476.1692,85.7975,476.0017,86.4184,475.5323,86.9144,475.4365,86.683,475.0332,87.3761,474.3144,87.3074,473.8355,87.8179,473.1095,87.7319,472.5861,88.1348,472.5861,88.111,464.7434,88.3923,456.9008,88.1178,449.0582,88.1713,441.2156,88.2523,433.373,88.1348,433.4283,88.2683,432.7832,87.8894,432.2327,87.7387,431.5292,87.2189,431.0538,87.2497,430.4267,86.9144,430.6026,86.9872,430.3253,86.3842,430.1352,85.8173,429.5395,85.0824,429.2412,84.4707,429.2063,83.9681,428.9906,83.9681,429.1859,77.7246,429.1381,71.4811,429.4429,65.2376,429.1457,58.9941,429.2063,52.7507,429.0963,52.7051,429.5236,52.1917,429.4806,51.4835,429.772,50.9139,430.3908,50.4799,430.4267,49.8044,430.4846,49.9441,431.1136,49.7959,431.5625,49.213,432.2369,49.1745,432.8622,49.0175,433.373,48.584" style="stroke:#333333;stroke-width:1.0417;"/><text fill="#2E2E2E" font-family="Segoe Print" font-size="12.5" lengthAdjust="spacing" textLength="22.5464" x="441.7063" y="72.6868">Log</text></g><g><polygon fill="#FFFFFF" fill-opacity="0.00000" points="433.373,583.5124,433.373,583.5853,441.2156,583.3685,449.0582,583.5795,456.9008,583.6511,464.7434,583.2647,472.5861,583.5124,472.5757,583.4874,473.1186,583.6196,473.7136,583.8775,474.3448,584.2227,474.8512,584.2669,475.5323,584.7328,475.7099,584.8063,475.5742,585.2383,475.9571,585.885,476.4031,586.5579,476.4811,587.0784,476.7527,587.679,476.7764,587.679,476.7416,593.9225,476.8147,600.166,476.8358,606.4095,476.9561,612.653,476.7527,618.8965,476.968,618.9857,476.7265,619.576,476.3463,620.1088,476.1692,620.7259,476.0017,621.3468,475.5323,621.8428,475.4365,621.6114,475.0332,622.3045,474.3144,622.2358,473.8355,622.7462,473.1095,622.6603,472.5861,623.0632,472.5861,623.0394,464.7434,623.3207,456.9008,623.0462,449.0582,623.0997,441.2156,623.1807,433.373,623.0632,433.4283,623.1967,432.7832,622.8178,432.2327,622.6671,431.5292,622.1473,431.0538,622.1781,430.4267,621.8428,430.6026,621.9156,430.3253,621.3126,430.1352,620.7457,429.5395,620.0108,429.2412,619.3991,429.2063,618.8965,428.9906,618.8965,429.1859,612.653,429.1381,606.4095,429.4429,600.166,429.1457,593.9225,429.2063,587.679,429.0963,587.6335,429.5236,587.1201,429.4806,586.4119,429.772,585.8423,430.3908,585.4082,430.4267,584.7328,430.4846,584.8725,431.1136,584.7243,431.5625,584.1414,432.2369,584.1029,432.8622,583.9458,433.373,583.5124" style="stroke:#333333;stroke-width:1.0417;"/><text fill="#2E2E2E" font-family="Segoe Print" font-size="12.5" lengthAdjust="spacing" textLength="22.5464" x="441.7063" y="607.6152">Log</text></g><g><polygon fill="#333333" points="298.3775,126.6439,298.4046,126.7116,300.4074,127.3436,302.5691,128.3729,304.679,129.2727,306.6188,129.7472,308.7941,130.8105,308.7841,130.7855,306.6558,131.5064,304.578,132.3536,302.5354,133.2886,300.3717,133.921,298.3775,134.9772,298.5134,135.1131,299.0561,133.9891,299.9956,133.262,300.9835,132.5833,301.6898,131.6228,302.5441,130.8105,302.5609,130.8273,301.703,129.9694,300.9213,129.1877,300.1029,128.3693,299.3546,127.621,298.3775,126.6439" style="stroke:#333333;stroke-width:1.0417;"/><path d="M121.2799,130.8105 L121.2799,131.1025 L131.4659,130.2351 L141.6519,131.079 L151.8378,131.3657 L162.0238,129.8197 L172.2098,130.7026 L182.3958,130.2182 L192.5817,130.2779 L202.7677,130.7159 L212.9537,129.8503 L223.1397,131.5795 L233.3256,129.9352 L243.5116,130.5359 L253.6976,131.4105 L263.8836,130.6914 L274.0696,130.9053 L284.2555,130.7662 L294.4415,131.0585 L304.6275,130.8105 " fill="#FFFFFF" fill-opacity="0.00000" style="stroke:#333333;stroke-width:3.125;"/><text fill="#2E2E2E" font-family="Segoe Print" font-size="12.5" lengthAdjust="spacing" textLength="147.0703" x="133.7799" y="120.5709">Authentication Request</text></g><path d="M25,146.4355 L25,147.0194 L35.26,145.2847 L45.52,146.9725 L55.78,147.5458 L66.04,144.4539 L76.3,146.2197 L86.5601,145.2508 L96.8201,146.4355 L96.465,146.4355 L96.757,149.7624 L96.1799,153.0892 L97.3327,156.416 L96.2365,159.7428 L96.8201,163.0697 L96.6906,162.9402 L95.0195,165.4358 L92.5972,167.1802 L90.6147,169.3643 L88.4658,171.3821 L86.4034,173.4863 L86.4034,173.9822 L75.4751,174.1506 L64.5467,175.1132 L53.6184,175.3504 L42.69,175.3732 L31.7617,174.1936 L20.8333,173.4863 L21.2626,173.4863 L21.4835,168.9095 L20.1656,164.3327 L21.4616,159.7559 L20.5588,155.179 L20.8333,150.6022 L25,146.4355 " fill="#555555" style="stroke:#555555;stroke-width:1.0417;"/><polygon fill="#FFFFFF" fill-opacity="0.00000" points="25,146.4355,25,146.6545,35.4099,146.004,45.8198,146.6369,56.2298,146.8519,66.6397,145.6924,77.0496,146.3546,87.4595,145.9913,97.8694,146.0361,108.2794,146.3646,118.6893,145.7154,129.0992,147.0123,139.5091,145.779,149.919,146.2295,160.329,146.8855,170.7389,146.3462,181.1488,146.5066,191.5587,146.4023,201.9686,146.6215,212.3786,146.6846,222.7885,147.0456,233.1984,147.1346,243.6083,147.1431,254.0182,146.7008,264.4282,146.9184,274.8381,147.167,285.248,145.6843,295.6579,147.1423,306.0678,146.1267,316.4777,146.9916,326.8877,145.9199,337.2976,146.3642,347.7075,147.2081,358.1174,146.3848,368.5273,146.5452,378.9373,146.7883,389.3472,146.8691,399.7571,146.4315,410.167,146.7347,420.5769,145.8393,430.9869,146.7318,441.3968,147.0066,451.8067,146.8986,462.2166,147.0741,472.6265,145.9323,483.0365,145.7562,493.4464,145.7883,503.8563,146.3742,514.2662,146.2308,524.6761,147.1454,535.0861,146.4355,535.0628,146.3795,535.6297,146.5696,536.2949,146.9969,536.7652,146.9539,537.3741,147.2453,538.0323,147.6559,538.2405,147.7422,538.4162,148.3031,538.7561,148.932,538.6613,149.3809,539.111,150.0554,539.2527,150.6022,539.8677,150.6022,538.7606,160.9041,539.1529,171.2061,539.384,181.508,539.9316,191.8099,539.2484,202.1118,539.7346,212.4137,538.6759,222.7157,538.5473,233.0176,539.7773,243.3195,538.5059,253.6214,539.7829,263.9233,539.468,274.2253,538.9736,284.5272,538.8842,294.8291,539.7306,305.131,538.9409,315.4329,539.8692,325.7349,538.677,336.0368,539.8959,346.3387,539.7572,356.6406,539.5079,366.9425,539.3019,377.2445,540.0096,387.5464,539.8919,397.8483,539.429,408.1502,539.5321,418.4521,539.117,428.7541,539.999,439.056,539.414,449.3579,539.4325,459.6598,538.619,469.9618,538.8306,480.2637,539.8056,490.5656,539.7004,500.8675,539.208,511.1694,538.9171,521.4714,539.0247,531.7733,538.538,542.0752,539.6847,552.3771,539.2527,562.679,539.49,562.7773,539.1775,563.3382,538.9875,563.9499,538.4766,564.4286,538.3044,565.0476,538.0323,565.6253,537.9808,565.501,537.4808,565.9605,536.8866,566.1926,536.338,566.5347,535.6448,566.528,535.0861,566.8457,535.0861,566.7057,524.6761,567.3076,514.2662,567.4367,503.8563,566.3118,493.4464,566.6437,483.0365,567.0012,472.6265,566.2094,462.2166,567.2138,451.8067,567.1144,441.3968,566.7407,430.9869,566.9939,420.5769,567.6047,410.167,566.5198,399.7571,567.1738,389.3472,567.1433,378.9373,566.9663,368.5273,566.9925,358.1174,566.9639,347.7075,566.1955,337.2976,566.4282,326.8877,566.3649,316.4777,566.9122,306.0678,566.9375,295.6579,567.0142,285.248,566.5426,274.8381,566.7754,264.4282,566.7205,254.0182,567.4466,243.6083,567.29,233.1984,566.3399,222.7885,566.7697,212.3786,566.2444,201.9686,567.1461,191.5587,567.4795,181.1488,567.413,170.7389,566.392,160.329,567.329,149.919,566.0719,139.5091,567.0542,129.0992,566.5339,118.6893,566.9465,108.2794,567.0961,97.8694,567.3375,87.4595,566.0958,77.0496,567.341,66.6397,567.0313,56.2298,567.2158,45.8198,567.6247,35.4099,566.8514,25,566.8457,25.0233,566.9019,24.4391,566.6701,23.8477,566.4208,23.2321,566.1132,22.7374,566.0974,22.0537,565.6253,21.8581,565.5443,21.991,565.1112,21.3654,564.3639,21.1482,563.7858,21.0902,563.2736,20.8333,562.679,20.8628,562.679,20.32,552.3771,21.2643,542.0752,20.9467,531.7733,21.5903,521.4714,21.5282,511.1694,20.3664,500.8675,20.4188,490.5656,20.6988,480.2637,21.2037,469.9618,21.2531,459.6598,21.147,449.3579,20.4771,439.056,21.4962,428.7541,21.4935,418.4521,20.7841,408.1502,20.5843,397.8483,20.4152,387.5464,20.6098,377.2445,20.9765,366.9425,20.7621,356.6406,20.3981,346.3387,21.341,336.0368,20.3553,325.7349,21.3566,315.4329,21.2784,305.131,21.2207,294.8291,21.5547,284.5272,20.5772,274.2253,20.5202,263.9233,21.3738,253.6214,20.2116,243.3195,20.5896,233.0176,20.9536,222.7157,20.9049,212.4137,20.4599,202.1118,20.7886,191.8099,21.6089,181.508,21.5088,171.2061,20.2122,160.9041,20.8333,150.6022,20.8585,150.6126,20.9126,149.9447,21.313,149.4202,21.6596,148.8734,21.9443,148.301,22.0537,147.6559,21.9654,147.4427,22.6962,147.5403,23.2333,147.1705,23.7477,146.7456,24.3482,146.5285,25,146.4355" style="stroke:#333333;stroke-width:1.0417;"/><text fill="#17A2B8" font-family="Segoe Print" font-size="12.5" font-weight="bold" lengthAdjust="spacing" textLength="18.6951" x="41.6667" y="164.2883">alt</text><text fill="#555555" font-family="Segoe Print" font-size="12.5" font-weight="bold" lengthAdjust="spacing" textLength="120.6787" x="117.6534" y="165.33">[successful case]</text><g><polygon fill="#333333" points="132.7382,209.8796,132.7653,209.9473,130.6015,210.5793,128.5965,211.6085,126.5398,212.5084,124.3129,212.9829,122.3216,214.0462,122.3116,214.0212,124.3499,214.7421,126.4388,215.5893,128.5628,216.5243,130.5658,217.1567,132.7382,218.2129,132.8742,218.3488,131.7502,217.2248,131.023,216.4977,130.3443,215.8189,129.3838,214.8585,128.5716,214.0462,128.5883,214.063,129.3971,213.205,130.2821,212.4234,131.1303,211.6049,132.0487,210.8567,132.7382,209.8796" style="stroke:#333333;stroke-width:1.0417;"/><path d="M126.4882,214.0462 L126.4882,214.3381 L136.6742,213.4708 L146.8602,214.3147 L157.0462,214.6013 L167.2321,213.0554 L177.4181,213.9383 L187.6041,213.4539 L197.7901,213.5136 L207.9761,213.9516 L218.162,213.086 L228.348,214.8152 L238.534,213.1708 L248.72,213.7715 L258.9059,214.6462 L269.0919,213.9271 L279.2779,214.141 L289.4639,214.0019 L299.6498,214.2942 L309.8358,214.0462 " fill="#FFFFFF" fill-opacity="0.00000" style="stroke:#333333;stroke-width:3.125;"/><text fill="#2E2E2E" font-family="Segoe Print" font-size="12.5" lengthAdjust="spacing" textLength="154.1809" x="144.1966" y="203.8066">Authentication Accepted</text></g><path d="M20.8333,223.4212 L20.8333,223.7131 L31.2017,222.8458 L41.5701,223.6897 L51.9385,223.9763 L62.3069,222.4304 L72.6753,223.3133 L83.0437,222.8289 L93.412,222.8886 L103.7804,223.3266 L114.1488,222.461 L124.5172,224.1902 L134.8856,222.5458 L145.254,223.1465 L155.6224,224.0212 L165.9908,223.3021 L176.3592,223.516 L186.7275,223.3769 L197.0959,223.6692 L207.4643,223.7534 L217.8327,224.2347 L228.2011,224.3532 L238.5695,224.3646 L248.9379,223.7749 L259.3063,224.0651 L269.6746,224.3965 L280.043,222.4196 L290.4114,224.3636 L300.7798,223.0094 L311.1482,224.1626 L321.5166,222.7337 L331.885,223.3261 L342.2534,224.4512 L352.6217,223.3535 L362.9901,223.5675 L373.3585,223.8915 L383.7269,223.9993 L394.0953,223.4158 L404.4637,223.8201 L414.8321,222.6262 L425.2005,223.8162 L435.5688,224.1826 L445.9372,224.0386 L456.3056,224.2726 L466.674,222.7503 L477.0424,222.5154 L487.4108,222.5582 L497.7792,223.3394 L508.1476,223.1483 L518.516,224.3676 L528.8843,223.1786 L539.2527,223.4212 " fill="#FFFFFF" fill-opacity="0.00000" style="stroke:#333333;stroke-width:1.0417;stroke-dasharray:2.0,2.0;"/><text fill="#555555" font-family="Segoe Print" font-size="12.5" font-weight="bold" lengthAdjust="spacing" textLength="152.4658" x="31.25" y="240.2323">[some kind of failure]</text><g><polygon fill="#333333" points="132.7382,276.4811,132.7653,276.5489,130.6015,277.1809,128.5965,278.2101,126.5398,279.11,124.3129,279.5845,122.3216,280.6478,122.3116,280.6227,124.3499,281.3436,126.4388,282.1908,128.5628,283.1258,130.5658,283.7582,132.7382,284.8145,132.8742,284.9504,131.7502,283.8264,131.023,283.0992,130.3443,282.4205,129.3838,281.4601,128.5716,280.6478,128.5883,280.6645,129.3971,279.8066,130.2821,279.025,131.1303,278.2065,132.0487,277.4583,132.7382,276.4811" style="stroke:#333333;stroke-width:1.0417;"/><path d="M126.4882,280.6478 L126.4882,280.9397 L136.6742,280.0723 L146.8602,280.9162 L157.0462,281.2029 L167.2321,279.657 L177.4181,280.5399 L187.6041,280.0554 L197.7901,280.1151 L207.9761,280.5531 L218.162,279.6876 L228.348,281.4167 L238.534,279.7724 L248.72,280.3731 L258.9059,281.2477 L269.0919,280.5287 L279.2779,280.7426 L289.4639,280.6034 L299.6498,280.8957 L309.8358,280.6478 " fill="#FFFFFF" fill-opacity="0.00000" style="stroke:#333333;stroke-width:3.125;"/><text fill="#2E2E2E" font-family="Segoe Print" font-size="12.5" lengthAdjust="spacing" textLength="138.2813" x="144.1966" y="270.4081">Authentication Failure</text></g><path d="M35.4167,296.2728 L35.4167,296.8566 L45.8367,295.1219 L56.2567,296.8097 L66.6767,297.383 L77.0967,294.2911 L87.5167,296.0569 L97.9367,295.0881 L108.3567,295.2075 L118.7767,296.0835 L129.1967,294.3523 L139.6168,297.8107 L150.0368,294.522 L160.4568,295.7234 L170.8768,297.4726 L181.2968,296.2728 L181.2174,296.2728 L181.36,299.5996 L181.2672,302.9264 L181.4621,306.2533 L181.5182,309.5801 L181.2968,312.9069 L181.6803,313.2904 L179.6528,315.4296 L177.5749,317.5183 L175.2135,319.3236 L173.267,321.5438 L170.8801,323.3236 L170.8801,325.2742 L160.1393,321.3203 L149.3986,325.2083 L138.6578,322.4999 L127.917,324.8064 L117.1762,321.9485 L106.4355,323.1333 L95.6947,325.3836 L84.9539,323.1882 L74.2131,323.6161 L63.4723,324.2642 L52.7316,324.4798 L41.9908,323.3127 L31.25,323.3236 L31.5159,323.3236 L30.72,318.7467 L31.5133,314.1699 L31.7576,309.5931 L31.6616,305.0163 L31.25,300.4395 L35.4167,296.2728 " fill="#555555" style="stroke:#555555;stroke-width:1.0417;"/><polygon fill="#FFFFFF" fill-opacity="0.00000" points="35.4167,296.2728,35.4167,296.4917,45.8263,295.8412,56.2359,296.4741,66.6456,296.6891,77.0552,295.5297,87.4648,296.1918,97.8745,295.8285,108.2841,295.8733,118.6937,296.2018,129.1034,295.5526,139.513,296.8495,149.9226,295.6162,160.3323,296.0668,170.7419,296.7227,181.1515,296.1834,191.5612,296.3439,201.9708,296.2395,212.3804,296.4588,222.7901,296.5219,233.1997,296.8829,243.6093,296.9718,254.0189,296.9803,264.4286,296.538,274.8382,296.7557,285.2478,297.0043,295.6575,295.5216,306.0671,296.9796,316.4767,295.9639,326.8864,296.8288,337.296,295.7571,347.7056,296.2014,358.1153,297.0453,368.5249,296.222,378.9345,296.3825,389.3442,296.6255,399.7538,296.7064,410.1634,296.2687,420.5731,296.572,430.9827,295.6765,441.3923,296.569,451.802,296.8438,462.2116,296.7358,472.6212,296.9114,483.0309,295.7696,493.4405,295.5934,503.8501,295.6255,514.2598,296.2115,524.6694,296.2728,524.6433,296.2097,525.3492,296.7355,525.8247,296.7049,526.3916,296.895,527.0567,297.3223,527.6157,297.4932,527.4018,297.4046,527.6932,298.0135,528.312,298.7579,528.4877,299.3188,528.8276,299.9478,528.8361,300.4395,528.5009,300.4395,529.1686,310.9031,529.4511,321.3668,528.344,331.8305,528.7362,342.2942,528.9673,352.7579,529.515,363.2216,528.8317,373.6853,529.3179,384.1489,528.2592,394.6126,528.1306,405.0763,529.3607,415.54,528.0892,426.0037,529.3662,436.4674,529.0513,446.9311,528.557,457.3947,528.4675,467.8584,529.3139,478.3221,528.8361,488.7858,528.74,488.746,528.7818,489.4537,528.1706,489.8909,528.3019,490.6356,528.0151,491.2072,527.6157,491.7321,527.6482,491.8107,527.0327,491.9913,526.5337,492.4533,525.9294,492.6611,525.2811,492.7627,524.6694,492.9525,524.6694,493.2318,514.2598,492.8168,503.8501,493.6988,493.4405,493.1138,483.0309,493.1322,472.6212,492.3188,462.2116,492.5304,451.802,493.5053,441.3923,493.4001,430.9827,492.9078,420.5731,492.6169,410.1634,492.7244,399.7538,492.2377,389.3442,493.3845,378.9345,493.7229,368.5249,493.5008,358.1153,493.6764,347.7056,492.81,337.296,493.0433,326.8864,492.5487,316.4767,493.2483,306.0671,493.2095,295.6575,493.5279,285.2478,492.7132,274.8382,492.8125,264.4286,493.4144,254.0189,493.5434,243.6093,492.4186,233.1997,492.7505,222.7901,493.108,212.3804,492.3162,201.9708,493.3206,191.5612,493.2212,181.1515,492.8475,170.7419,493.1007,160.3323,493.7115,149.9226,492.6266,139.513,493.2806,129.1034,493.25,118.6937,493.0731,108.2841,493.0993,97.8745,493.0707,87.4648,492.3023,77.0552,492.535,66.6456,492.4717,56.2359,493.019,45.8263,493.0443,35.4167,492.9525,35.4382,493.0044,34.7887,492.6151,34.2292,492.4427,33.6329,492.1817,33.1363,492.1612,32.4704,491.7321,32.6072,491.7888,32.0706,491.0783,31.9588,490.5439,31.553,489.8876,31.5866,489.4134,31.25,488.7858,31.8838,488.7858,31.8173,478.3221,30.7963,467.8584,31.7333,457.3947,30.4762,446.9311,31.4585,436.4674,30.9382,426.0037,31.3508,415.54,31.5003,405.0763,31.7418,394.6126,30.5001,384.1489,31.7453,373.6853,31.4356,363.2216,31.6201,352.7579,32.029,342.2942,31.2557,331.8305,31.4326,321.3668,31.4723,310.9031,31.25,300.4395,31.3133,300.4657,31.4938,299.8501,31.9661,299.3554,31.7866,298.5907,32.4076,298.1575,32.4704,297.4932,32.3875,297.293,32.9878,297.0758,33.6542,297.0179,34.2419,296.77,34.7619,296.3588,35.4167,296.2728" style="stroke:#333333;stroke-width:1.0417;"/><text fill="#17A2B8" font-family="Segoe Print" font-size="12.5" font-weight="bold" lengthAdjust="spacing" textLength="92.7551" x="52.0833" y="314.1256">My own label</text><g><polygon fill="#333333" points="440.4795,350.3743,440.5066,350.4421,442.5094,351.0741,444.6711,352.1033,446.7811,353.0032,448.7209,353.4777,450.8962,354.541,450.8862,354.516,448.7579,355.2369,446.6801,356.084,444.6374,357.019,442.4737,357.6515,440.4795,358.7077,440.6155,358.8436,441.1581,357.7196,442.0976,356.9925,443.0856,356.3137,443.7918,355.3533,444.6462,354.541,444.663,354.5578,443.805,353.6998,443.0234,352.9182,442.2049,352.0997,441.4567,351.3515,440.4795,350.3743" style="stroke:#333333;stroke-width:1.0417;"/><path d="M121.2799,354.541 L121.2799,354.8329 L131.7783,353.9656 L142.2767,354.8095 L152.775,355.0961 L163.2734,353.5502 L173.7718,354.4331 L184.2702,353.9487 L194.7685,354.0084 L205.2669,354.4464 L215.7653,353.5808 L226.2637,355.31 L236.762,353.6656 L247.2604,354.2663 L257.7588,355.1409 L268.2572,354.4219 L278.7555,354.6358 L289.2539,354.4966 L299.7523,354.789 L310.2507,354.8731 L320.749,355.3545 L331.2474,355.473 L341.7458,355.4844 L352.2442,354.8947 L362.7425,355.1849 L373.2409,355.5163 L383.7393,353.5394 L394.2377,355.4834 L404.736,354.1292 L415.2344,355.2824 L425.7328,353.8535 L436.2312,354.4459 L446.7295,354.541 " fill="#FFFFFF" fill-opacity="0.00000" style="stroke:#333333;stroke-width:3.125;"/><text fill="#2E2E2E" font-family="Segoe Print" font-size="12.5" lengthAdjust="spacing" textLength="98.8403" x="133.7799" y="344.3014">Log attack start</text></g><path d="M45.8333,370.166 L45.8333,370.7499 L56.2749,369.0151 L66.7165,370.7029 L77.1581,371.2762 L87.5997,368.1844 L98.0413,369.9501 L108.4829,368.9813 L118.9245,369.1007 L129.366,370.166 L129.3029,370.166 L128.7259,373.4928 L129.8787,376.8197 L128.7825,380.1465 L129.1829,383.4733 L129.366,386.8001 L129.6489,387.0829 L127.2266,388.8273 L125.2441,391.0115 L123.0951,393.0292 L121.1496,395.2503 L118.9494,397.2168 L118.9494,397.8811 L107.909,398.8437 L96.8686,399.0808 L85.8282,399.1036 L74.7878,397.9241 L63.7474,398.5045 L52.7071,399.1674 L41.6667,397.2168 L40.9989,397.2168 L42.2949,392.64 L41.3921,388.0632 L42.1609,383.4863 L41.2083,378.9095 L41.6667,374.3327 L45.8333,370.166 " fill="#555555" style="stroke:#555555;stroke-width:1.0417;"/><polygon fill="#FFFFFF" fill-opacity="0.00000" points="45.8333,370.166,45.8333,370.385,56.3814,369.7344,66.9296,370.3674,77.4777,370.5823,88.0258,369.4229,98.5739,370.0851,109.122,369.7218,119.6701,369.7665,130.2183,370.095,140.7664,369.4458,151.3145,370.7427,161.8626,369.5095,172.4107,369.96,182.9588,370.616,193.5069,370.0767,204.0551,370.2371,214.6032,370.1327,225.1513,370.352,235.6994,370.4151,246.2475,370.7761,256.7956,370.865,267.3437,370.8736,277.8919,370.4313,288.44,370.6489,298.9881,370.8975,309.5362,369.4148,320.0843,370.8728,330.6324,369.8572,341.1805,370.7221,351.7287,369.6504,362.2768,370.0947,372.8249,370.9385,383.373,370.166,383.3665,370.1504,383.9763,370.4439,384.5965,370.7628,385.1961,371.0318,385.7295,371.1411,386.3193,371.3864,386.4114,371.4246,386.3797,371.8996,386.8987,372.6027,387.2274,373.227,387.4382,373.8025,387.5397,374.3327,388.1782,374.3327,387.0365,385.6011,386.8603,396.8696,386.8924,408.138,387.4783,419.4065,387.335,430.6749,387.5397,441.9434,387.7583,442.0339,387.2396,442.5094,386.9415,443.0763,386.8807,443.7415,386.3494,444.2118,386.3193,444.8896,386.2503,444.7231,385.8163,445.3419,385.1987,445.5176,384.6491,445.8575,383.9195,445.7627,383.373,446.11,383.373,446.4425,372.8249,446.725,362.2768,445.6179,351.7287,446.0102,341.1805,446.2413,330.6324,446.7889,320.0843,446.1057,309.5362,446.5919,298.9881,445.5332,288.44,445.4045,277.8919,446.6346,267.3437,445.3632,256.7956,446.6402,246.2475,446.3253,235.6994,445.8309,225.1513,445.7415,214.6032,446.5879,204.0551,445.7982,193.5069,446.7265,182.9588,445.5343,172.4107,446.7532,161.8626,446.6145,151.3145,446.3652,140.7664,446.1592,130.2183,446.8669,119.6701,446.7492,109.122,446.2863,98.5739,446.3894,88.0258,445.9743,77.4777,446.8563,66.9296,446.2713,56.3814,446.2898,45.8333,446.11,45.7525,445.9149,45.1902,445.736,44.7253,445.7921,44.1227,445.5157,43.4706,445.1199,42.8871,444.8896,42.7837,444.8468,42.5727,444.2713,42.1788,443.6199,42.2879,443.177,42.148,442.6309,41.6667,441.9434,42.215,441.9434,42.3906,430.6749,41.5242,419.4065,41.7575,408.138,41.2629,396.8696,41.9625,385.6011,41.6667,374.3327,41.7458,374.3655,42.0879,373.8168,42.0811,373.1237,42.3558,372.5471,42.7852,372.0346,42.8871,371.3864,42.9624,371.5684,43.4082,370.9779,44.0398,370.8361,44.6747,370.7021,45.1629,370.2141,45.8333,370.166" style="stroke:#333333;stroke-width:1.0417;"/><text fill="#17A2B8" font-family="Segoe Print" font-size="12.5" font-weight="bold" lengthAdjust="spacing" textLength="30.4077" x="62.5" y="388.0188">loop</text><text fill="#555555" font-family="Segoe Print" font-size="12.5" font-weight="bold" lengthAdjust="spacing" textLength="89.7705" x="150.1994" y="389.0605">[1000 times]</text><g><polygon fill="#333333" points="298.3775,433.61,298.4046,433.6778,300.4074,434.3098,302.5691,435.339,304.679,436.2389,306.6188,436.7134,308.7941,437.7767,308.7841,437.7516,306.6558,438.4725,304.578,439.3197,302.5354,440.2547,300.3717,440.8871,298.3775,441.9434,298.5134,442.0793,299.0561,440.9553,299.9956,440.2281,300.9835,439.5494,301.6898,438.589,302.5441,437.7767,302.5609,437.7934,301.703,436.9355,300.9213,436.1539,300.1029,435.3354,299.3546,434.5872,298.3775,433.61" style="stroke:#333333;stroke-width:1.0417;"/><path d="M121.2799,437.7767 L121.2799,438.0686 L131.4659,437.2012 L141.6519,438.0451 L151.8378,438.3318 L162.0238,436.7859 L172.2098,437.6688 L182.3958,437.1843 L192.5817,437.2441 L202.7677,437.682 L212.9537,436.8165 L223.1397,438.5456 L233.3256,436.9013 L243.5116,437.502 L253.6976,438.3766 L263.8836,437.6576 L274.0696,437.8715 L284.2555,437.7323 L294.4415,438.0246 L304.6275,437.7767 " fill="#FFFFFF" fill-opacity="0.00000" style="stroke:#333333;stroke-width:3.125;"/><text fill="#2E2E2E" font-family="Segoe Print" font-size="12.5" lengthAdjust="spacing" textLength="71.0083" x="133.7799" y="427.537">DNS Attack</text></g><g><polygon fill="#333333" points="440.4795,480.4525,440.5066,480.5202,442.5094,481.1522,444.6711,482.1815,446.7811,483.0813,448.7209,483.5558,450.8962,484.6191,450.8862,484.5941,448.7579,485.315,446.6801,486.1622,444.6374,487.0972,442.4737,487.7296,440.4795,488.7858,440.6155,488.9217,441.1581,487.7977,442.0976,487.0706,443.0856,486.3919,443.7918,485.4314,444.6462,484.6191,444.663,484.6359,443.805,483.778,443.0234,482.9963,442.2049,482.1779,441.4567,481.4296,440.4795,480.4525" style="stroke:#333333;stroke-width:1.0417;"/><path d="M121.2799,484.6191 L121.2799,484.9111 L131.7783,484.0437 L142.2767,484.8876 L152.775,485.1743 L163.2734,483.6283 L173.7718,484.5112 L184.2702,484.0268 L194.7685,484.0865 L205.2669,484.5245 L215.7653,483.6589 L226.2637,485.3881 L236.762,483.7438 L247.2604,484.3445 L257.7588,485.2191 L268.2572,484.5 L278.7555,484.7139 L289.2539,484.5748 L299.7523,484.8671 L310.2507,484.9513 L320.749,485.4326 L331.2474,485.5512 L341.7458,485.5626 L352.2442,484.9728 L362.7425,485.263 L373.2409,485.5945 L383.7393,483.6175 L394.2377,485.5615 L404.736,484.2073 L415.2344,485.3605 L425.7328,483.9316 L436.2312,484.524 L446.7295,484.6191 " fill="#FFFFFF" fill-opacity="0.00000" style="stroke:#333333;stroke-width:3.125;"/><text fill="#2E2E2E" font-family="Segoe Print" font-size="12.5" lengthAdjust="spacing" textLength="93.2739" x="133.7799" y="474.3795">Log attack end</text></g><path d="M20.8333,501.2858 L20.8333,501.5777 L31.2017,500.7104 L41.5701,501.5543 L51.9385,501.8409 L62.3069,500.295 L72.6753,501.1779 L83.0437,500.6935 L93.412,500.7532 L103.7804,501.1911 L114.1488,500.3256 L124.5172,502.0548 L134.8856,500.4104 L145.254,501.0111 L155.6224,501.8857 L165.9908,501.1667 L176.3592,501.3806 L186.7275,501.2414 L197.0959,501.5338 L207.4643,501.6179 L217.8327,502.0993 L228.2011,502.2178 L238.5695,502.2292 L248.9379,501.6395 L259.3063,501.9297 L269.6746,502.2611 L280.043,500.2842 L290.4114,502.2282 L300.7798,500.874 L311.1482,502.0272 L321.5166,500.5983 L331.885,501.1907 L342.2534,502.3158 L352.6217,501.2181 L362.9901,501.4321 L373.3585,501.7561 L383.7269,501.8639 L394.0953,501.2804 L404.4637,501.6847 L414.8321,500.4908 L425.2005,501.6808 L435.5688,502.0472 L445.9372,501.9032 L456.3056,502.1372 L466.674,500.6149 L477.0424,500.38 L487.4108,500.4228 L497.7792,501.204 L508.1476,501.0129 L518.516,502.2322 L528.8843,501.0432 L539.2527,501.2858 " fill="#FFFFFF" fill-opacity="0.00000" style="stroke:#333333;stroke-width:1.0417;stroke-dasharray:2.0,2.0;"/><text fill="#555555" font-family="Segoe Print" font-size="12.5" font-weight="bold" lengthAdjust="spacing" textLength="172.7173" x="31.25" y="518.0969">[Another type of failure]</text><g><polygon fill="#333333" points="132.7382,554.3457,132.7653,554.4135,130.6015,555.0455,128.5965,556.0747,126.5398,556.9746,124.3129,557.449,122.3216,558.5124,122.3116,558.4873,124.3499,559.2082,126.4388,560.0554,128.5628,560.9904,130.5658,561.6228,132.7382,562.679,132.8742,562.815,131.7502,561.691,131.023,560.9638,130.3443,560.2851,129.3838,559.3246,128.5716,558.5124,128.5883,558.5291,129.3971,557.6712,130.2821,556.8895,131.1303,556.0711,132.0487,555.3228,132.7382,554.3457" style="stroke:#333333;stroke-width:1.0417;"/><path d="M126.4882,558.5124 L126.4882,558.8043 L136.6742,557.9369 L146.8602,558.7808 L157.0462,559.0675 L167.2321,557.5215 L177.4181,558.4044 L187.6041,557.92 L197.7901,557.9797 L207.9761,558.4177 L218.162,557.5521 L228.348,559.2813 L238.534,557.637 L248.72,558.2377 L258.9059,559.1123 L269.0919,558.3932 L279.2779,558.6071 L289.4639,558.468 L299.6498,558.7603 L309.8358,558.5124 " fill="#FFFFFF" fill-opacity="0.00000" style="stroke:#333333;stroke-width:3.125;"/><text fill="#2E2E2E" font-family="Segoe Print" font-size="12.5" lengthAdjust="spacing" textLength="85.553" x="144.1966" y="548.2727">Please repeat</text></g></g></svg>