<svg xmlns="http://www.w3.org/2000/svg" xmlns:xlink="http://www.w3.org/1999/xlink" contentStyleType="text/css" height="387px" preserveAspectRatio="none" style="width:670px;height:387px;background:#FFFFFF;" version="1.1" viewBox="0 0 670 387" width="670px" zoomAndPan="magnify"><defs/><g><line style="stroke:#000000;stroke-width:1;" x1="64" x2="64" y1="82.2969" y2="306.2266"/><line style="stroke:#000000;stroke-width:1;" x1="150.5713" x2="150.5713" y1="82.2969" y2="306.2266"/><line style="stroke:#000000;stroke-width:1;" x1="218.6563" x2="218.6563" y1="82.2969" y2="306.2266"/><line style="stroke:#000000;stroke-width:1;" x1="294.0791" x2="294.0791" y1="82.2969" y2="306.2266"/><line style="stroke:#000000;stroke-width:1;" x1="355.9932" x2="355.9932" y1="82.2969" y2="306.2266"/><line style="stroke:#000000;stroke-width:1;" x1="425.8652" x2="425.8652" y1="82.2969" y2="306.2266"/><line style="stroke:#000000;stroke-width:1;" x1="529.666" x2="529.666" y1="82.2969" y2="306.2266"/><line style="stroke:#000000;stroke-width:1;" x1="629.208" x2="629.208" y1="82.2969" y2="306.2266"/><rect fill="#FFFFFF" height="30.2969" rx="2.5" ry="2.5" style="stroke:#000000;stroke-width:1;" width="89.5713" x="20" y="51"/><text fill="#000000" font-family="Verdana" font-size="14" lengthAdjust="spacing" textLength="75.5713" x="27" y="70.9951">Participant</text><rect fill="#FFFFFF" height="30.2969" rx="2.5" ry="2.5" style="stroke:#000000;stroke-width:1;" width="89.5713" x="20" y="305.2266"/><text fill="#000000" font-family="Verdana" font-size="14" lengthAdjust="spacing" textLength="75.5713" x="27" y="325.2217">Participant</text><text fill="#000000" font-family="Verdana" font-size="14" lengthAdjust="spacing" textLength="37.085" x="129.5713" y="78.9951">Actor</text><ellipse cx="151.1138" cy="14" fill="#FFFFFF" rx="8" ry="8" style="stroke:#000000;stroke-width:1;"/><path d="M151.1138,22 L151.1138,49 M138.1138,30 L164.1138,30 M151.1138,49 L138.1138,64 M151.1138,49 L164.1138,64 " fill="none" style="stroke:#000000;stroke-width:1;"/><text fill="#000000" font-family="Verdana" font-size="14" lengthAdjust="spacing" textLength="37.085" x="129.5713" y="318.2217">Actor</text><ellipse cx="151.1138" cy="330.5234" fill="#FFFFFF" rx="8" ry="8" style="stroke:#000000;stroke-width:1;"/><path d="M151.1138,338.5234 L151.1138,365.5234 M138.1138,346.5234 L164.1138,346.5234 M151.1138,365.5234 L138.1138,380.5234 M151.1138,365.5234 L164.1138,380.5234 " fill="none" style="stroke:#000000;stroke-width:1;"/><text fill="#000000" font-family="Verdana" font-size="14" lengthAdjust="spacing" textLength="67.4229" x="182.6563" y="78.9951">Boundary</text><path d="M198.8677,38 L198.8677,62 M198.8677,50 L215.8677,50 " fill="none" style="stroke:#000000;stroke-width:1;"/><ellipse cx="227.8677" cy="50" fill="#FFFFFF" rx="12" ry="12" style="stroke:#000000;stroke-width:1;"/><text fill="#000000" font-family="Verdana" font-size="14" lengthAdjust="spacing" textLength="67.4229" x="182.6563" y="318.2217">Boundary</text><path d="M198.8677,325.5234 L198.8677,349.5234 M198.8677,337.5234 L215.8677,337.5234 " fill="none" style="stroke:#000000;stroke-width:1;"/><ellipse cx="227.8677" cy="337.5234" fill="#FFFFFF" rx="12" ry="12" style="stroke:#000000;stroke-width:1;"/><text fill="#000000" font-family="Verdana" font-size="14" lengthAdjust="spacing" textLength="50.9141" x="266.0791" y="78.9951">Control</text><ellipse cx="294.5361" cy="50" fill="#FFFFFF" rx="12" ry="12" style="stroke:#000000;stroke-width:1;"/><polygon fill="#000000" points="290.5361,38,296.5361,33,294.5361,38,296.5361,43,290.5361,38" style="stroke:#000000;stroke-width:1;"/><text fill="#000000" font-family="Verdana" font-size="14" lengthAdjust="spacing" textLength="50.9141" x="266.0791" y="318.2217">Control</text><ellipse cx="294.5361" cy="337.5234" fill="#FFFFFF" rx="12" ry="12" style="stroke:#000000;stroke-width:1;"/><polygon fill="#000000" points="290.5361,325.5234,296.5361,320.5234,294.5361,325.5234,296.5361,330.5234,290.5361,325.5234" style="stroke:#000000;stroke-width:1;"/><text fill="#000000" font-family="Verdana" font-size="14" lengthAdjust="spacing" textLength="40.8721" x="332.9932" y="78.9951">Entity</text><ellipse cx="356.4292" cy="50" fill="#FFFFFF" rx="12" ry="12" style="stroke:#000000;stroke-width:1;"/><line style="stroke:#000000;stroke-width:1;" x1="344.4292" x2="368.4292" y1="64" y2="64"/><text fill="#000000" font-family="Verdana" font-size="14" lengthAdjust="spacing" textLength="40.8721" x="332.9932" y="318.2217">Entity</text><ellipse cx="356.4292" cy="337.5234" fill="#FFFFFF" rx="12" ry="12" style="stroke:#000000;stroke-width:1;"/><line style="stroke:#000000;stroke-width:1;" x1="344.4292" x2="368.4292" y1="351.5234" y2="351.5234"/><text fill="#000000" font-family="Verdana" font-size="14" lengthAdjust="spacing" textLength="66.8008" x="389.8652" y="78.9951">Database</text><path d="M408.2656,30 C408.2656,20 426.2656,20 426.2656,20 C426.2656,20 444.2656,20 444.2656,30 L444.2656,56 C444.2656,66 426.2656,66 426.2656,66 C426.2656,66 408.2656,66 408.2656,56 L408.2656,30 " fill="#FFFFFF" style="stroke:#000000;stroke-width:1.5;"/><path d="M408.2656,30 C408.2656,40 426.2656,40 426.2656,40 C426.2656,40 444.2656,40 444.2656,30 " fill="none" style="stroke:#000000;stroke-width:1.5;"/><text fill="#000000" font-family="Verdana" font-size="14" lengthAdjust="spacing" textLength="66.8008" x="389.8652" y="318.2217">Database</text><path d="M408.2656,331.5234 C408.2656,321.5234 426.2656,321.5234 426.2656,321.5234 C426.2656,321.5234 444.2656,321.5234 444.2656,331.5234 L444.2656,357.5234 C444.2656,367.5234 426.2656,367.5234 426.2656,367.5234 C426.2656,367.5234 408.2656,367.5234 408.2656,357.5234 L408.2656,331.5234 " fill="#FFFFFF" style="stroke:#000000;stroke-width:1.5;"/><path d="M408.2656,331.5234 C408.2656,341.5234 426.2656,341.5234 426.2656,341.5234 C426.2656,341.5234 444.2656,341.5234 444.2656,331.5234 " fill="none" style="stroke:#000000;stroke-width:1.5;"/><rect fill="#FFFFFF" height="30.2969" style="stroke:#000000;stroke-width:1;" width="90.542" x="486.666" y="47"/><rect fill="#FFFFFF" height="30.2969" style="stroke:#000000;stroke-width:1;" width="90.542" x="482.666" y="51"/><text fill="#000000" font-family="Verdana" font-size="14" lengthAdjust="spacing" textLength="76.542" x="489.666" y="70.9951">Collections</text><rect fill="#FFFFFF" height="30.2969" style="stroke:#000000;stroke-width:1;" width="90.542" x="486.666" y="305.2266"/><rect fill="#FFFFFF" height="30.2969" style="stroke:#000000;stroke-width:1;" width="90.542" x="482.666" y="309.2266"/><text fill="#000000" font-family="Verdana" font-size="14" lengthAdjust="spacing" textLength="76.542" x="489.666" y="329.2217">Collections</text><path d="M602.208,56 L658.2002,56 C663.2002,56 663.2002,69.1484 663.2002,69.1484 C663.2002,69.1484 663.2002,82.2969 658.2002,82.2969 L602.208,82.2969 C597.208,82.2969 597.208,69.1484 597.208,69.1484 C597.208,69.1484 597.208,56 602.208,56 " fill="#FFFFFF" style="stroke:#000000;stroke-width:1;"/><path d="M658.2002,56 C653.2002,56 653.2002,69.1484 653.2002,69.1484 C653.2002,82.2969 658.2002,82.2969 658.2002,82.2969 " fill="none" style="stroke:#000000;stroke-width:1;"/><text fill="#000000" font-family="Verdana" font-size="14" lengthAdjust="spacing" textLength="45.9922" x="602.208" y="73.9951">Queue</text><path d="M602.208,305.2266 L658.2002,305.2266 C663.2002,305.2266 663.2002,318.375 663.2002,318.375 C663.2002,318.375 663.2002,331.5234 658.2002,331.5234 L602.208,331.5234 C597.208,331.5234 597.208,318.375 597.208,318.375 C597.208,318.375 597.208,305.2266 602.208,305.2266 " fill="#FFFFFF" style="stroke:#000000;stroke-width:1;"/><path d="M658.2002,305.2266 C653.2002,305.2266 653.2002,318.375 653.2002,318.375 C653.2002,331.5234 658.2002,331.5234 658.2002,331.5234 " fill="none" style="stroke:#000000;stroke-width:1;"/><text fill="#000000" font-family="Verdana" font-size="14" lengthAdjust="spacing" textLength="45.9922" x="602.208" y="323.2217">Queue</text><polygon fill="#000000" points="139.1138,109.4297,149.1138,113.4297,139.1138,117.4297,143.1138,113.4297" style="stroke:#000000;stroke-width:1;"/><line style="stroke:#000000;stroke-width:1;" x1="64.7856" x2="145.1138" y1="113.4297" y2="113.4297"/><text fill="#000000" font-family="Verdana" font-size="13" lengthAdjust="spacing" textLength="53.5361" x="71.7856" y="108.3638">To actor</text><polygon fill="#000000" points="207.3677,138.5625,217.3677,142.5625,207.3677,146.5625,211.3677,142.5625" style="stroke:#000000;stroke-width:1;"/><line style="stroke:#000000;stroke-width:1;" x1="64.7856" x2="213.3677" y1="142.5625" y2="142.5625"/><text fill="#000000" font-family="Verdana" font-size="13" lengthAdjust="spacing" textLength="81.9673" x="71.7856" y="137.4966">To boundary</text><polygon fill="#000000" points="282.5361,167.6953,292.5361,171.6953,282.5361,175.6953,286.5361,171.6953" style="stroke:#000000;stroke-width:1;"/><line style="stroke:#000000;stroke-width:1;" x1="64.7856" x2="288.5361" y1="171.6953" y2="171.6953"/><text fill="#000000" font-family="Verdana" font-size="13" lengthAdjust="spacing" textLength="65.3745" x="71.7856" y="166.6294">To control</text><polygon fill="#000000" points="344.4292,196.8281,354.4292,200.8281,344.4292,204.8281,348.4292,200.8281" style="stroke:#000000;stroke-width:1;"/><line style="stroke:#000000;stroke-width:1;" x1="64.7856" x2="350.4292" y1="200.8281" y2="200.8281"/><text fill="#000000" font-family="Verdana" font-size="13" lengthAdjust="spacing" textLength="57.7637" x="71.7856" y="195.7622">To entity</text><polygon fill="#000000" points="414.2656,225.9609,424.2656,229.9609,414.2656,233.9609,418.2656,229.9609" style="stroke:#000000;stroke-width:1;"/><line style="stroke:#000000;stroke-width:1;" x1="64.7856" x2="420.2656" y1="229.9609" y2="229.9609"/><text fill="#000000" font-family="Verdana" font-size="13" lengthAdjust="spacing" textLength="80.2979" x="71.7856" y="224.895">To database</text><polygon fill="#000000" points="517.937,255.0938,527.937,259.0938,517.937,263.0938,521.937,259.0938" style="stroke:#000000;stroke-width:1;"/><line style="stroke:#000000;stroke-width:1;" x1="64.7856" x2="523.937" y1="259.0938" y2="259.0938"/><text fill="#000000" font-family="Verdana" font-size="13" lengthAdjust="spacing" textLength="89.1719" x="71.7856" y="254.0278">To collections</text><polygon fill="#000000" points="618.2041,284.2266,628.2041,288.2266,618.2041,292.2266,622.2041,288.2266" style="stroke:#000000;stroke-width:1;"/><line style="stroke:#000000;stroke-width:1;" x1="64.7856" x2="624.2041" y1="288.2266" y2="288.2266"/><text fill="#000000" font-family="Verdana" font-size="13" lengthAdjust="spacing" textLength="60.7534" x="71.7856" y="283.1606">To queue</text></g></svg>