<svg xmlns="http://www.w3.org/2000/svg" xmlns:xlink="http://www.w3.org/1999/xlink" contentStyleType="text/css" data-diagram-type="SEQUENCE" height="389.5833px" preserveAspectRatio="none" style="width:515px;height:389px;" version="1.1" viewBox="0 0 515 389" width="515.625px" zoomAndPan="magnify"><?plantuml 1.2026.5beta1?><defs><linearGradient id="g1fndu5eifiij80" x1="50%" x2="50%" y1="0%" y2="100%"><stop offset="0%" stop-color="#1388F5"/><stop offset="100%" stop-color="#0972D3"/></linearGradient></defs><g><rect fill="#FFFFFF" height="56.1849" rx="4.1667" ry="4.1667" style="stroke:#FFFFFF;stroke-width:1.0417;" width="365.3971" x="71.2799" y="109.3099"/><line style="stroke:#A4AAB0;stroke-width:2.0833;" x1="169.2093" x2="169.2093" y1="217.513" y2="300.7487"/><polygon fill="#A4AAB0" points="165.0426,227.9297,169.2093,217.513,173.376,227.9297,169.2093,223.763" style="stroke:#A4AAB0;stroke-width:1.0417;stroke-linejoin:miter;stroke-miterlimit:10;"/><polygon fill="#A4AAB0" points="165.0426,290.332,169.2093,300.7487,173.376,290.332,169.2093,294.4987" style="stroke:#A4AAB0;stroke-width:1.0417;stroke-linejoin:miter;stroke-miterlimit:10;"/><text fill="#000716" font-family="'Verdana'" font-size="12.5" lengthAdjust="spacing" textLength="66.2415" x="173.376" y="263.4583">some time</text><g><title>Alice</title><rect fill="#000000" fill-opacity="0.00000" height="253.9063" width="8.3333" x="84.3007" y="67.6758"/><line style="stroke:#0972D3;stroke-width:0.5208;stroke-dasharray:5.2083,5.2083;" x1="87.9466" x2="87.9466" y1="67.6758" y2="321.582"/></g><g><title>Bob</title><rect fill="#000000" fill-opacity="0.00000" height="253.9063" width="8.3333" x="246.8262" y="67.6758"/><line style="stroke:#0972D3;stroke-width:0.5208;stroke-dasharray:5.2083,5.2083;" x1="250.472" x2="250.472" y1="67.6758" y2="321.582"/></g><g><title>Charlie</title><rect fill="#000000" fill-opacity="0.00000" height="253.9063" width="8.3333" x="416.3645" y="67.6758"/><line style="stroke:#0972D3;stroke-width:0.5208;stroke-dasharray:5.2083,5.2083;" x1="420.0104" x2="420.0104" y1="67.6758" y2="321.582"/></g><rect fill="url(#g1fndu5eifiij80)" height="45.8008" rx="4.1667" ry="4.1667" style="stroke:#0972D3;stroke-width:0.5208;" width="71.7265" x="52.0833" y="15.625"/><text fill="#D1D5DB" font-family="'Verdana'" font-size="12.5" lengthAdjust="spacing" textLength="30.0598" x="72.9167" y="42.8528">Alice</text><rect fill="url(#g1fndu5eifiij80)" height="45.8008" rx="4.1667" ry="4.1667" style="stroke:#0972D3;stroke-width:0.5208;" width="65.8244" x="217.5598" y="15.625"/><text fill="#D1D5DB" font-family="'Verdana'" font-size="12.5" lengthAdjust="spacing" textLength="24.1577" x="238.3931" y="42.8528">Bob</text><rect fill="url(#g1fndu5eifiij80)" height="45.8008" rx="4.1667" ry="4.1667" style="stroke:#0972D3;stroke-width:0.5208;" width="85.7524" x="377.1342" y="15.625"/><text fill="#D1D5DB" font-family="'Verdana'" font-size="12.5" lengthAdjust="spacing" textLength="44.0857" x="397.9675" y="42.8528">Charlie</text><rect fill="url(#g1fndu5eifiij80)" height="45.8008" rx="4.1667" ry="4.1667" style="stroke:#0972D3;stroke-width:0.5208;" width="71.7265" x="52.0833" y="326.7904"/><text fill="#D1D5DB" font-family="'Verdana'" font-size="12.5" lengthAdjust="spacing" textLength="30.0598" x="72.9167" y="354.0181">Alice</text><rect fill="url(#g1fndu5eifiij80)" height="45.8008" rx="4.1667" ry="4.1667" style="stroke:#0972D3;stroke-width:0.5208;" width="65.8244" x="217.5598" y="326.7904"/><text fill="#D1D5DB" font-family="'Verdana'" font-size="12.5" lengthAdjust="spacing" textLength="24.1577" x="238.3931" y="354.0181">Bob</text><rect fill="url(#g1fndu5eifiij80)" height="45.8008" rx="4.1667" ry="4.1667" style="stroke:#0972D3;stroke-width:0.5208;" width="85.7524" x="377.1342" y="326.7904"/><text fill="#D1D5DB" font-family="'Verdana'" font-size="12.5" lengthAdjust="spacing" textLength="44.0857" x="397.9675" y="354.0181">Charlie</text><polygon fill="#A4AAB0" points="237.972,92.6432,248.3887,96.8099,237.972,100.9766,242.1387,96.8099" style="stroke:#A4AAB0;stroke-width:1.0417;stroke-linejoin:miter;stroke-miterlimit:10;"/><line style="stroke:#A4AAB0;stroke-width:2.0833;" x1="87.9466" x2="244.222" y1="96.8099" y2="96.8099"/><text fill="#000716" font-family="'Verdana'" font-size="12.5" lengthAdjust="spacing" textLength="30.2063" x="95.2382" y="91.7786">hello</text><polygon fill="#A4AAB0" points="407.5104,92.6432,417.927,96.8099,407.5104,100.9766,411.677,96.8099" style="stroke:#A4AAB0;stroke-width:1.0417;stroke-linejoin:miter;stroke-miterlimit:10;"/><line style="stroke:#A4AAB0;stroke-width:2.0833;" x1="250.472" x2="413.7604" y1="96.8099" y2="96.8099"/><text fill="#000716" font-family="'Verdana'" font-size="12.5" lengthAdjust="spacing" textLength="11.3953" x="257.7637" y="91.7786">hi</text><path d="M75.4466,109.3099 L208.3954,109.3099 L208.3954,115.5273 L197.9787,125.944 L71.2799,125.944 L71.2799,113.4766 A4.1667,4.1667 0 0 1 75.4466,109.3099" fill="#EEEEEE" fill-opacity="0.50196" style="stroke:#000716;stroke-width:1.5625;"/><rect fill="none" height="56.1849" rx="4.1667" ry="4.1667" style="stroke:#000716;stroke-width:1.0417;" width="365.3971" x="71.2799" y="109.3099"/><text fill="#0972D3" font-family="'Verdana'" font-size="12.5" font-weight="700" lengthAdjust="spacing" textLength="90.2405" x="86.9049" y="121.9543">A teoz group</text><polygon fill="#A4AAB0" points="237.972,152.9948,248.3887,157.1615,237.972,161.3281,242.1387,157.1615" style="stroke:#A4AAB0;stroke-width:1.0417;stroke-linejoin:miter;stroke-miterlimit:10;"/><line style="stroke:#A4AAB0;stroke-width:2.0833;" x1="87.9466" x2="244.222" y1="157.1615" y2="157.1615"/><text fill="#000716" font-family="'Verdana'" font-size="12.5" lengthAdjust="spacing" textLength="30.2063" x="95.2382" y="152.1301">hello</text><polygon fill="#A4AAB0" points="407.5104,152.9948,417.927,157.1615,407.5104,161.3281,411.677,157.1615" style="stroke:#A4AAB0;stroke-width:1.0417;stroke-linejoin:miter;stroke-miterlimit:10;"/><line style="stroke:#A4AAB0;stroke-width:2.0833;" x1="250.472" x2="413.7604" y1="157.1615" y2="157.1615"/><text fill="#000716" font-family="'Verdana'" font-size="12.5" lengthAdjust="spacing" textLength="15.5823" x="257.7637" y="152.1301">ha</text><polygon fill="#A4AAB0" points="237.972,211.263,248.3887,215.4297,237.972,219.5964,242.1387,215.4297" style="stroke:#A4AAB0;stroke-width:1.0417;stroke-linejoin:miter;stroke-miterlimit:10;"/><line style="stroke:#A4AAB0;stroke-width:2.0833;" x1="87.9466" x2="244.222" y1="215.4297" y2="215.4297"/><text fill="#000716" font-family="'Verdana'" font-size="12.5" lengthAdjust="spacing" textLength="110.6384" x="95.2382" y="195.8476">start doing things</text><text fill="#000716" font-family="'Verdana'" font-size="12.5" lengthAdjust="spacing" textLength="96.8994" x="95.2382" y="210.3984">during duration</text><polygon fill="#A4AAB0" points="407.5104,240.3971,417.927,244.5638,407.5104,248.7305,411.677,244.5638" style="stroke:#A4AAB0;stroke-width:1.0417;stroke-linejoin:miter;stroke-miterlimit:10;"/><line style="stroke:#A4AAB0;stroke-width:2.0833;" x1="250.472" x2="413.7604" y1="244.5638" y2="244.5638"/><text fill="#000716" font-family="'Verdana'" font-size="12.5" lengthAdjust="spacing" textLength="66.1804" x="257.7637" y="239.5325">something</text><polygon fill="#A4AAB0" points="261.9303,269.5313,251.5137,273.6979,261.9303,277.8646,257.7637,273.6979" style="stroke:#A4AAB0;stroke-width:1.0417;stroke-linejoin:miter;stroke-miterlimit:10;"/><line style="stroke:#A4AAB0;stroke-width:2.0833;" x1="255.6803" x2="418.9687" y1="273.6979" y2="273.6979"/><text fill="#000716" font-family="'Verdana'" font-size="12.5" lengthAdjust="spacing" textLength="95.52" x="268.1803" y="268.6666">something else</text><polygon fill="#A4AAB0" points="99.4049,298.6654,88.9882,302.832,99.4049,306.9987,95.2382,302.832" style="stroke:#A4AAB0;stroke-width:1.0417;stroke-linejoin:miter;stroke-miterlimit:10;"/><line style="stroke:#A4AAB0;stroke-width:2.0833;" x1="93.1549" x2="249.4303" y1="302.832" y2="302.832"/><text fill="#000716" font-family="'Verdana'" font-size="12.5" lengthAdjust="spacing" textLength="33.7036" x="105.6549" y="297.8007">finish</text><line style="stroke:#A4AAB0;stroke-width:2.0833;" x1="169.2093" x2="169.2093" y1="217.513" y2="300.7487"/><polygon fill="#A4AAB0" points="165.0426,227.9297,169.2093,217.513,173.376,227.9297,169.2093,223.763" style="stroke:#A4AAB0;stroke-width:1.0417;stroke-linejoin:miter;stroke-miterlimit:10;"/><polygon fill="#A4AAB0" points="165.0426,290.332,169.2093,300.7487,173.376,290.332,169.2093,294.4987" style="stroke:#A4AAB0;stroke-width:1.0417;stroke-linejoin:miter;stroke-miterlimit:10;"/><text fill="#000716" font-family="'Verdana'" font-size="12.5" lengthAdjust="spacing" textLength="66.2415" x="173.376" y="263.4583">some time</text></g></svg>