<svg xmlns="http://www.w3.org/2000/svg" xmlns:xlink="http://www.w3.org/1999/xlink" contentStyleType="text/css" height="484.375px" preserveAspectRatio="none" style="width:411px;height:484px;" version="1.1" viewBox="0 0 411 484" width="411.4583px" zoomAndPan="magnify"><defs><linearGradient id="gqm7gd0192la0" x1="50%" x2="50%" y1="0%" y2="100%"><stop offset="0%" stop-color="#33B2E2"/><stop offset="100%" stop-color="#009FDB"/></linearGradient></defs><g><line style="stroke:#009FDB;stroke-width:3.125;" x1="148.4741" x2="148.4741" y1="273.763" y2="406.9987"/><polygon fill="#009FDB" points="144.3075,284.1797,148.4741,273.763,152.6408,284.1797,148.4741,280.013" style="stroke:#009FDB;stroke-width:1.0417;"/><polygon fill="#009FDB" points="144.3075,396.582,148.4741,406.9987,152.6408,396.582,148.4741,400.7487" style="stroke:#009FDB;stroke-width:1.0417;"/><text fill="#5A5A5A" font-family="Verdana" font-size="12.5" lengthAdjust="spacing" textLength="66.2415" x="160.9741" y="344.7083">some time</text><line style="stroke:#C2C2C2;stroke-width:1.0417;stroke-dasharray:5.0,5.0;" x1="72.3216" x2="72.3216" y1="57.2591" y2="427.832"/><line style="stroke:#C2C2C2;stroke-width:1.0417;stroke-dasharray:5.0,5.0;" x1="224.6267" x2="224.6267" y1="57.2591" y2="427.832"/><line style="stroke:#C2C2C2;stroke-width:1.0417;stroke-dasharray:5.0,5.0;" x1="362.915" x2="362.915" y1="57.2591" y2="427.832"/><rect fill="url(#gqm7gd0192la0)" height="45.8008" rx="10.4167" ry="10.4167" style="stroke:#33B2E2;stroke-width:1.0417;" width="61.3098" x="41.6667" y="10.4167"/><text fill="#FFFFFF" font-family="Verdana" font-size="12.5" lengthAdjust="spacing" textLength="30.0598" x="57.2917" y="37.6444">Alice</text><rect fill="url(#gqm7gd0192la0)" height="45.8008" rx="10.4167" ry="10.4167" style="stroke:#33B2E2;stroke-width:1.0417;" width="55.4077" x="196.9228" y="10.4167"/><text fill="#FFFFFF" font-family="Verdana" font-size="12.5" lengthAdjust="spacing" textLength="24.1577" x="212.5478" y="37.6444">Bob</text><rect fill="url(#gqm7gd0192la0)" height="45.8008" rx="10.4167" ry="10.4167" style="stroke:#33B2E2;stroke-width:1.0417;" width="75.3357" x="325.2472" y="10.4167"/><text fill="#FFFFFF" font-family="Verdana" font-size="12.5" lengthAdjust="spacing" textLength="44.0857" x="340.8722" y="37.6444">Charlie</text><rect fill="url(#gqm7gd0192la0)" height="45.8008" rx="10.4167" ry="10.4167" style="stroke:#33B2E2;stroke-width:1.0417;" width="61.3098" x="41.6667" y="427.832"/><text fill="#FFFFFF" font-family="Verdana" font-size="12.5" lengthAdjust="spacing" textLength="30.0598" x="57.2917" y="455.0598">Alice</text><rect fill="url(#gqm7gd0192la0)" height="45.8008" rx="10.4167" ry="10.4167" style="stroke:#33B2E2;stroke-width:1.0417;" width="55.4077" x="196.9228" y="427.832"/><text fill="#FFFFFF" font-family="Verdana" font-size="12.5" lengthAdjust="spacing" textLength="24.1577" x="212.5478" y="455.0598">Bob</text><rect fill="url(#gqm7gd0192la0)" height="45.8008" rx="10.4167" ry="10.4167" style="stroke:#33B2E2;stroke-width:1.0417;" width="75.3357" x="325.2472" y="427.832"/><text fill="#FFFFFF" font-family="Verdana" font-size="12.5" lengthAdjust="spacing" textLength="44.0857" x="340.8722" y="455.0598">Charlie</text><polygon fill="#009FDB" points="212.1267,98.8932,222.5433,103.0599,212.1267,107.2266,216.2933,103.0599" style="stroke:#009FDB;stroke-width:1.0417;"/><line style="stroke:#009FDB;stroke-width:3.125;" x1="72.3216" x2="218.3767" y1="103.0599" y2="103.0599"/><text fill="#5A5A5A" font-family="Verdana" font-size="12.5" lengthAdjust="spacing" textLength="30.2063" x="87.9466" y="89.6952">hello</text><polygon fill="#009FDB" points="350.415,98.8932,360.8317,103.0599,350.415,107.2266,354.5817,103.0599" style="stroke:#009FDB;stroke-width:1.0417;"/><line style="stroke:#009FDB;stroke-width:3.125;" x1="224.6267" x2="356.665" y1="103.0599" y2="103.0599"/><text fill="#5A5A5A" font-family="Verdana" font-size="12.5" lengthAdjust="spacing" textLength="11.3953" x="240.2517" y="89.6952">hi</text><path d="M66.0716,115.5599 L209.4371,115.5599 L209.4371,138.444 L199.0204,148.8607 L55.6549,148.8607 L55.6549,125.9766 A10.4167,10.4167 0 0 1 66.0716,115.5599 " fill="#F2F2F2" style="stroke:#959595;stroke-width:1.0417;"/><rect fill="none" height="89.5182" rx="10.4167" ry="10.4167" style="stroke:#33B2E2;stroke-width:1.0417;" width="323.9268" x="55.6549" y="115.5599"/><text fill="#0568AE" font-family="Verdana" font-size="12.5" font-weight="bold" lengthAdjust="spacing" textLength="90.2405" x="79.6132" y="136.5377">A teoz group</text><polygon fill="#009FDB" points="212.1267,192.5781,222.5433,196.7448,212.1267,200.9115,216.2933,196.7448" style="stroke:#009FDB;stroke-width:1.0417;"/><line style="stroke:#009FDB;stroke-width:3.125;" x1="72.3216" x2="218.3767" y1="196.7448" y2="196.7448"/><text fill="#5A5A5A" font-family="Verdana" font-size="12.5" lengthAdjust="spacing" textLength="30.2063" x="87.9466" y="183.3801">hello</text><polygon fill="#009FDB" points="350.415,192.5781,360.8317,196.7448,350.415,200.9115,354.5817,196.7448" style="stroke:#009FDB;stroke-width:1.0417;"/><line style="stroke:#009FDB;stroke-width:3.125;" x1="224.6267" x2="356.665" y1="196.7448" y2="196.7448"/><text fill="#5A5A5A" font-family="Verdana" font-size="12.5" lengthAdjust="spacing" textLength="15.5823" x="240.2517" y="183.3801">ha</text><polygon fill="#009FDB" points="212.1267,267.513,222.5433,271.6797,212.1267,275.8464,216.2933,271.6797" style="stroke:#009FDB;stroke-width:1.0417;"/><line style="stroke:#009FDB;stroke-width:3.125;" x1="72.3216" x2="218.3767" y1="271.6797" y2="271.6797"/><text fill="#5A5A5A" font-family="Verdana" font-size="12.5" lengthAdjust="spacing" textLength="110.6384" x="87.9466" y="243.7642">start doing things</text><text fill="#5A5A5A" font-family="Verdana" font-size="12.5" lengthAdjust="spacing" textLength="96.8994" x="87.9466" y="258.315">during duration</text><polygon fill="#009FDB" points="350.415,313.3138,360.8317,317.4805,350.415,321.6471,354.5817,317.4805" style="stroke:#009FDB;stroke-width:1.0417;"/><line style="stroke:#009FDB;stroke-width:3.125;" x1="224.6267" x2="356.665" y1="317.4805" y2="317.4805"/><text fill="#5A5A5A" font-family="Verdana" font-size="12.5" lengthAdjust="spacing" textLength="66.1804" x="240.2517" y="304.1158">something</text><polygon fill="#009FDB" points="236.085,359.1146,225.6683,363.2813,236.085,367.4479,231.9183,363.2813" style="stroke:#009FDB;stroke-width:1.0417;"/><line style="stroke:#009FDB;stroke-width:3.125;" x1="229.835" x2="361.8734" y1="363.2813" y2="363.2813"/><text fill="#5A5A5A" font-family="Verdana" font-size="12.5" lengthAdjust="spacing" textLength="95.52" x="250.6683" y="349.9166">something else</text><polygon fill="#009FDB" points="83.7799,404.9154,73.3632,409.082,83.7799,413.2487,79.6132,409.082" style="stroke:#009FDB;stroke-width:1.0417;"/><line style="stroke:#009FDB;stroke-width:3.125;" x1="77.5299" x2="223.585" y1="409.082" y2="409.082"/><text fill="#5A5A5A" font-family="Verdana" font-size="12.5" lengthAdjust="spacing" textLength="33.7036" x="98.3632" y="395.7174">finish</text><line style="stroke:#009FDB;stroke-width:3.125;" x1="148.4741" x2="148.4741" y1="273.763" y2="406.9987"/><polygon fill="#009FDB" points="144.3075,284.1797,148.4741,273.763,152.6408,284.1797,148.4741,280.013" style="stroke:#009FDB;stroke-width:1.0417;"/><polygon fill="#009FDB" points="144.3075,396.582,148.4741,406.9987,152.6408,396.582,148.4741,400.7487" style="stroke:#009FDB;stroke-width:1.0417;"/><text fill="#5A5A5A" font-family="Verdana" font-size="12.5" lengthAdjust="spacing" textLength="66.2415" x="160.9741" y="344.7083">some time</text></g></svg>