<svg xmlns="http://www.w3.org/2000/svg" xmlns:xlink="http://www.w3.org/1999/xlink" contentStyleType="text/css" data-diagram-type="SEQUENCE" height="449px" preserveAspectRatio="none" style="width:364px;height:449px;background:#AAAAAA;" version="1.1" viewBox="0 0 364 449" width="364px" zoomAndPan="magnify"><defs/><g><rect fill="#AAAAAA" height="449" style="stroke:#FFFFFF00;stroke-width:1;" width="364" x="0" y="0"/><rect fill="#FFE4E1" height="303.5938" rx="7.5" ry="7.5" style="stroke:#FF8C00;stroke-width:3.5;" width="347.824" x="10" y="88.25"/><path d="M10,140.3359 L357.824,140.3359 L357.824,339.2422 A7.5,7.5 0 0 1 350.324,346.7422 L17.5,346.7422 A7.5,7.5 0 0 1 10,339.2422 L10,140.3359 " fill="#FFE4E1" style="stroke:#FFFFFF00;stroke-width:1;"/><rect fill="#FFE4E1" height="147.3047" rx="7.5" ry="7.5" style="stroke:#FF8C00;stroke-width:3.5;" width="327.824" x="20" y="192.4375"/><rect fill="#FFE4E1" height="52.0859" rx="7.5" ry="7.5" style="stroke:#FF8C00;stroke-width:3.5;" width="259.5535" x="30" y="251.5234"/><path d="M10,346.7422 L357.824,346.7422 L357.824,384.3438 A7.5,7.5 0 0 1 350.324,391.8438 L17.5,391.8438 A7.5,7.5 0 0 1 10,384.3438 L10,346.7422 " fill="#FFE4E1" style="stroke:#FFFFFF00;stroke-width:1;"/><g><title>Alice</title><rect fill="#FFFFFF" fill-opacity="0.00000" height="366.7266" width="8" x="65.8455" y="42.1172"/><line style="stroke:#3600A8;stroke-width:1;" x1="69" x2="69" y1="42.1172" y2="408.8438"/></g><g><title>Bob</title><rect fill="#FFFFFF" fill-opacity="0.00000" height="366.7266" width="8" x="250.1936" y="42.1172"/><line style="stroke:#3600A8;stroke-width:1;" x1="253.8337" x2="253.8337" y1="42.1172" y2="408.8438"/></g><g><title>Log</title><rect fill="#FFFFFF" fill-opacity="0.00000" height="366.7266" width="8" x="309.6887" y="42.1172"/><line style="stroke:#3600A8;stroke-width:1;" x1="313.5535" x2="313.5535" y1="42.1172" y2="408.8438"/></g><g><rect fill="#CEFEFE" height="36.1172" rx="7.5" ry="7.5" style="stroke:#3600A8;stroke-width:2.5;" width="59.6909" x="40" y="5"/><text fill="#008000" font-family="sans-serif" font-size="19" lengthAdjust="spacing" textLength="45.6909" x="47" y="29.6362">Alice</text></g><g><rect fill="#CEFEFE" height="36.1172" rx="7.5" ry="7.5" style="stroke:#3600A8;stroke-width:2.5;" width="59.6909" x="40" y="407.8438"/><text fill="#008000" font-family="sans-serif" font-size="19" lengthAdjust="spacing" textLength="45.6909" x="47" y="432.48">Alice</text></g><g><rect fill="#CEFEFE" height="36.1172" rx="7.5" ry="7.5" style="stroke:#3600A8;stroke-width:2.5;" width="50.7197" x="228.8337" y="5"/><text fill="#008000" font-family="sans-serif" font-size="19" lengthAdjust="spacing" textLength="36.7197" x="235.8337" y="29.6362">Bob</text></g><g><rect fill="#CEFEFE" height="36.1172" rx="7.5" ry="7.5" style="stroke:#3600A8;stroke-width:2.5;" width="50.7197" x="228.8337" y="407.8438"/><text fill="#008000" font-family="sans-serif" font-size="19" lengthAdjust="spacing" textLength="36.7197" x="235.8337" y="432.48">Bob</text></g><g><rect fill="#CEFEFE" height="36.1172" rx="7.5" ry="7.5" style="stroke:#3600A8;stroke-width:2.5;" width="48.2705" x="289.5535" y="5"/><text fill="#008000" font-family="sans-serif" font-size="19" lengthAdjust="spacing" textLength="34.2705" x="296.5535" y="29.6362">Log</text></g><g><rect fill="#CEFEFE" height="36.1172" rx="7.5" ry="7.5" style="stroke:#3600A8;stroke-width:2.5;" width="48.2705" x="289.5535" y="407.8438"/><text fill="#008000" font-family="sans-serif" font-size="19" lengthAdjust="spacing" textLength="34.2705" x="296.5535" y="432.48">Log</text></g><g><polygon fill="#00FF00" points="242.1936,69.25,252.1936,73.25,242.1936,77.25,246.1936,73.25" style="stroke:#00FF00;stroke-width:1;"/><line style="stroke:#00FF00;stroke-width:1;" x1="69.8455" x2="248.1936" y1="73.25" y2="73.25"/><text fill="#008000" font-family="sans-serif" font-size="13" lengthAdjust="spacing" textLength="152.9531" x="76.8455" y="68.1841">Authentication Request</text></g><path d="M17.5,88.25 L81.9209,88.25 L81.9209,101.2031 L71.9209,111.2031 L10,111.2031 L10,95.75 A7.5,7.5 0 0 1 17.5,88.25 " fill="#D2B48C" style="stroke:#FFFF00;stroke-width:0.5;"/><rect fill="#FFFFFF" fill-opacity="0.00000" height="303.5938" rx="7.5" ry="7.5" style="stroke:#FF8C00;stroke-width:3.5;" width="347.824" x="10" y="88.25"/><text fill="#0000FF" font-family="sans-serif" font-size="18" font-weight="bold" lengthAdjust="spacing" textLength="26.9209" x="25" y="105.958">alt</text><text fill="#FF0000" font-family="sans-serif" font-size="12" font-style="italic" lengthAdjust="spacing" textLength="102.8672" x="96.9209" y="101.3887">[successful case]</text><g><polygon fill="#00FF00" points="80.8455,128.3359,70.8455,132.3359,80.8455,136.3359,76.8455,132.3359" style="stroke:#00FF00;stroke-width:1;"/><line style="stroke:#00FF00;stroke-width:1;" x1="74.8455" x2="253.1936" y1="132.3359" y2="132.3359"/><text fill="#008000" font-family="sans-serif" font-size="13" lengthAdjust="spacing" textLength="160.3481" x="86.8455" y="127.27">Authentication Accepted</text></g><line style="stroke:#FF8C00;stroke-width:1;stroke-dasharray:2.0,2.0;" x1="10" x2="357.824" y1="141.3359" y2="141.3359"/><text fill="#FF0000" font-family="sans-serif" font-size="12" font-style="italic" lengthAdjust="spacing" textLength="128.7129" x="15" y="152.4746">[some kind of failure]</text><g><polygon fill="#00FF00" points="80.8455,173.4375,70.8455,177.4375,80.8455,181.4375,76.8455,177.4375" style="stroke:#00FF00;stroke-width:1;"/><line style="stroke:#00FF00;stroke-width:1;" x1="74.8455" x2="253.1936" y1="177.4375" y2="177.4375"/><text fill="#008000" font-family="sans-serif" font-size="13" lengthAdjust="spacing" textLength="143.8125" x="86.8455" y="172.3716">Authentication Failure</text></g><path d="M27.5,192.4375 L198.5674,192.4375 L198.5674,205.3906 L188.5674,215.3906 L20,215.3906 L20,199.9375 A7.5,7.5 0 0 1 27.5,192.4375 " fill="#D2B48C" style="stroke:#FFFF00;stroke-width:0.5;"/><rect fill="#FFFFFF" fill-opacity="0.00000" height="147.3047" rx="7.5" ry="7.5" style="stroke:#FF8C00;stroke-width:3.5;" width="327.824" x="20" y="192.4375"/><text fill="#0000FF" font-family="sans-serif" font-size="18" font-weight="bold" lengthAdjust="spacing" textLength="133.5674" x="35" y="210.1455">My own label</text><g><polygon fill="#00FF00" points="301.6887,232.5234,311.6887,236.5234,301.6887,240.5234,305.6887,236.5234" style="stroke:#00FF00;stroke-width:1;"/><line style="stroke:#00FF00;stroke-width:1;" x1="69.8455" x2="307.6887" y1="236.5234" y2="236.5234"/><text fill="#008000" font-family="sans-serif" font-size="13" lengthAdjust="spacing" textLength="102.7939" x="76.8455" y="231.4575">Log attack start</text></g><path d="M37.5,251.5234 L118.7871,251.5234 L118.7871,264.4766 L108.7871,274.4766 L30,274.4766 L30,259.0234 A7.5,7.5 0 0 1 37.5,251.5234 " fill="#D2B48C" style="stroke:#FFFF00;stroke-width:0.5;"/><rect fill="#FFFFFF" fill-opacity="0.00000" height="52.0859" rx="7.5" ry="7.5" style="stroke:#FF8C00;stroke-width:3.5;" width="259.5535" x="30" y="251.5234"/><text fill="#0000FF" font-family="sans-serif" font-size="18" font-weight="bold" lengthAdjust="spacing" textLength="43.7871" x="45" y="269.2314">loop</text><text fill="#FF0000" font-family="sans-serif" font-size="12" font-style="italic" lengthAdjust="spacing" textLength="77.0801" x="133.7871" y="264.6621">[1000 times]</text><g><polygon fill="#00FF00" points="242.1936,291.6094,252.1936,295.6094,242.1936,299.6094,246.1936,295.6094" style="stroke:#00FF00;stroke-width:1;"/><line style="stroke:#00FF00;stroke-width:1;" x1="69.8455" x2="248.1936" y1="295.6094" y2="295.6094"/><text fill="#008000" font-family="sans-serif" font-size="13" lengthAdjust="spacing" textLength="73.8486" x="76.8455" y="290.5435">DNS Attack</text></g><g><polygon fill="#00FF00" points="301.6887,327.7422,311.6887,331.7422,301.6887,335.7422,305.6887,331.7422" style="stroke:#00FF00;stroke-width:1;"/><line style="stroke:#00FF00;stroke-width:1;" x1="69.8455" x2="307.6887" y1="331.7422" y2="331.7422"/><text fill="#008000" font-family="sans-serif" font-size="13" lengthAdjust="spacing" textLength="97.0049" x="76.8455" y="326.6763">Log attack end</text></g><line style="stroke:#FF8C00;stroke-width:1;stroke-dasharray:2.0,2.0;" x1="10" x2="357.824" y1="347.7422" y2="347.7422"/><text fill="#FF0000" font-family="sans-serif" font-size="12" font-style="italic" lengthAdjust="spacing" textLength="145.1309" x="15" y="358.8809">[Another type of failure]</text><g><polygon fill="#00FF00" points="80.8455,379.8438,70.8455,383.8438,80.8455,387.8438,76.8455,383.8438" style="stroke:#00FF00;stroke-width:1;"/><line style="stroke:#00FF00;stroke-width:1;" x1="74.8455" x2="253.1936" y1="383.8438" y2="383.8438"/><text fill="#008000" font-family="sans-serif" font-size="13" lengthAdjust="spacing" textLength="88.9751" x="86.8455" y="378.7778">Please repeat</text></g></g></svg>