<svg xmlns="http://www.w3.org/2000/svg" xmlns:xlink="http://www.w3.org/1999/xlink" contentStyleType="text/css" height="1190.625px" preserveAspectRatio="none" style="width:587px;height:1190px;" version="1.1" viewBox="0 0 587 1190" width="587.5px" zoomAndPan="magnify"><defs><filter height="300%" id="frsljzyh5wcg2" width="300%" x="-1" y="-1"><feGaussianBlur result="blurOut" stdDeviation="2.0833333333333335"/><feColorMatrix in="blurOut" result="blurOut2" type="matrix" values="0 0 0 0 0 0 0 0 0 0 0 0 0 0 0 0 0 0 .4 0"/><feOffset dx="4.166666666666667" dy="4.166666666666667" in="blurOut2" result="blurOut3"/><feBlend in="SourceGraphic" in2="blurOut3" mode="normal"/></filter></defs><g><rect fill="none" filter="url(#frsljzyh5wcg2)" height="418.5221" style="stroke:#CCCCCC;stroke-width:1.0416666666666667;" width="10.4167" x="295.5302" y="326.888"/><rect fill="none" filter="url(#frsljzyh5wcg2)" height="252.9948" style="stroke:#CCCCCC;stroke-width:1.0416666666666667;" width="10.4167" x="300.7385" y="385.1888"/><rect fill="#005500" filter="url(#frsljzyh5wcg2)" height="125.9766" style="stroke:#CCCCCC;stroke-width:1.0416666666666667;" width="10.4167" x="305.9469" y="448.6979"/><line style="stroke:#CCCCCC;stroke-width:1.0416666666666667;stroke-dasharray:5.0,5.0;" x1="97.6084" x2="97.6084" y1="64.5508" y2="878.6784"/><line style="stroke:#CCCCCC;stroke-width:1.0416666666666667;stroke-dasharray:1.0,4.0;" x1="97.6084" x2="97.6084" y1="878.6784" y2="928.6784"/><line style="stroke:#CCCCCC;stroke-width:1.0416666666666667;stroke-dasharray:5.0,5.0;" x1="97.6084" x2="97.6084" y1="928.6784" y2="999.4792"/><line style="stroke:#CCCCCC;stroke-width:1.0416666666666667;stroke-dasharray:1.0,4.0;" x1="97.6084" x2="97.6084" y1="999.4792" y2="1064.0299"/><line style="stroke:#CCCCCC;stroke-width:1.0416666666666667;stroke-dasharray:5.0,5.0;" x1="97.6084" x2="97.6084" y1="1064.0299" y2="1124.4141"/><line style="stroke:#CCCCCC;stroke-width:1.0416666666666667;stroke-dasharray:5.0,5.0;" x1="300.6388" x2="300.6388" y1="64.5508" y2="878.6784"/><line style="stroke:#CCCCCC;stroke-width:1.0416666666666667;stroke-dasharray:1.0,4.0;" x1="300.6388" x2="300.6388" y1="878.6784" y2="928.6784"/><line style="stroke:#CCCCCC;stroke-width:1.0416666666666667;stroke-dasharray:5.0,5.0;" x1="300.6388" x2="300.6388" y1="928.6784" y2="999.4792"/><line style="stroke:#CCCCCC;stroke-width:1.0416666666666667;stroke-dasharray:1.0,4.0;" x1="300.6388" x2="300.6388" y1="999.4792" y2="1064.0299"/><line style="stroke:#CCCCCC;stroke-width:1.0416666666666667;stroke-dasharray:5.0,5.0;" x1="300.6388" x2="300.6388" y1="1064.0299" y2="1124.4141"/><line style="stroke:#CCCCCC;stroke-width:1.0416666666666667;stroke-dasharray:5.0,5.0;" x1="485.4838" x2="485.4838" y1="504.9316" y2="878.6784"/><line style="stroke:#CCCCCC;stroke-width:1.0416666666666667;stroke-dasharray:1.0,4.0;" x1="485.4838" x2="485.4838" y1="878.6784" y2="928.6784"/><line style="stroke:#CCCCCC;stroke-width:1.0416666666666667;stroke-dasharray:5.0,5.0;" x1="485.4838" x2="485.4838" y1="928.6784" y2="999.4792"/><line style="stroke:#CCCCCC;stroke-width:1.0416666666666667;stroke-dasharray:1.0,4.0;" x1="485.4838" x2="485.4838" y1="999.4792" y2="1064.0299"/><line style="stroke:#CCCCCC;stroke-width:1.0416666666666667;stroke-dasharray:5.0,5.0;" x1="485.4838" x2="485.4838" y1="1064.0299" y2="1124.4141"/><rect fill="none" filter="url(#frsljzyh5wcg2)" height="49.9674" rx="4.1667" ry="4.1667" style="stroke:#2196F3;stroke-width:1.0416666666666667;" width="65.4765" x="64.2751" y="10.4167"/><text fill="#2196F3" font-family="Verdana" font-size="12.5" lengthAdjust="spacing" textLength="30.0598" x="81.9834" y="39.7278">Alice</text><rect fill="none" filter="url(#frsljzyh5wcg2)" height="49.9674" rx="4.1667" ry="4.1667" style="stroke:#2196F3;stroke-width:1.0416666666666667;" width="65.4765" x="64.2751" y="1123.3724"/><text fill="#2196F3" font-family="Verdana" font-size="12.5" lengthAdjust="spacing" textLength="30.0598" x="81.9834" y="1152.6835">Alice</text><rect fill="none" filter="url(#frsljzyh5wcg2)" height="49.9674" rx="4.1667" ry="4.1667" style="stroke:#2196F3;stroke-width:1.0416666666666667;" width="59.5744" x="269.3888" y="10.4167"/><text fill="#2196F3" font-family="Verdana" font-size="12.5" lengthAdjust="spacing" textLength="24.1577" x="287.0972" y="39.7278">Bob</text><rect fill="none" filter="url(#frsljzyh5wcg2)" height="49.9674" rx="4.1667" ry="4.1667" style="stroke:#2196F3;stroke-width:1.0416666666666667;" width="59.5744" x="269.3888" y="1123.3724"/><text fill="#2196F3" font-family="Verdana" font-size="12.5" lengthAdjust="spacing" textLength="24.1577" x="287.0972" y="1152.6835">Bob</text><rect fill="none" filter="url(#frsljzyh5wcg2)" height="49.9674" rx="4.1667" ry="4.1667" style="stroke:#2196F3;stroke-width:1.0416666666666667;" width="81.2052" x="443.8171" y="1123.3724"/><text fill="#2196F3" font-family="Verdana" font-size="12.5" lengthAdjust="spacing" textLength="45.7886" x="461.5255" y="1152.6835">George</text><rect fill="none" filter="url(#frsljzyh5wcg2)" height="418.5221" style="stroke:#CCCCCC;stroke-width:1.0416666666666667;" width="10.4167" x="295.5302" y="326.888"/><rect fill="none" filter="url(#frsljzyh5wcg2)" height="252.9948" style="stroke:#CCCCCC;stroke-width:1.0416666666666667;" width="10.4167" x="300.7385" y="385.1888"/><rect fill="#005500" filter="url(#frsljzyh5wcg2)" height="125.9766" style="stroke:#CCCCCC;stroke-width:1.0416666666666667;" width="10.4167" x="305.9469" y="448.6979"/><path d="M15.625,84.3424 L15.625,120.8008 A4.1667,4.1667 0 0 0 19.7917,124.9674 L173.9583,124.9674 A4.1667,4.1667 0 0 0 178.125,120.8008 L178.125,90.5924 L167.7083,80.1758 L19.7917,80.1758 A4.1667,4.1667 0 0 0 15.625,84.3424 " fill="none" filter="url(#frsljzyh5wcg2)" style="stroke:#9C27B0;stroke-width:1.0416666666666667;"/><path d="M167.7083,80.1758 L167.7083,88.5091 A2.0833,2.0833 0 0 0 169.7917,90.5924 L178.125,90.5924 L167.7083,80.1758 " fill="none" style="stroke:#9C27B0;stroke-width:1.0416666666666667;"/><text fill="#9C27B0" font-family="Verdana" font-size="12.5" lengthAdjust="spacing" textLength="120.0684" x="32.2917" y="107.4036">initial state of Alice</text><path d="M219.7917,84.3424 L219.7917,120.8008 A4.1667,4.1667 0 0 0 223.9583,124.9674 L371.875,124.9674 A4.1667,4.1667 0 0 0 376.0417,120.8008 L376.0417,90.5924 L365.625,80.1758 L223.9583,80.1758 A4.1667,4.1667 0 0 0 219.7917,84.3424 " fill="none" filter="url(#frsljzyh5wcg2)" style="stroke:#9C27B0;stroke-width:1.0416666666666667;"/><path d="M365.625,80.1758 L365.625,88.5091 A2.0833,2.0833 0 0 0 367.7083,90.5924 L376.0417,90.5924 L365.625,80.1758 " fill="none" style="stroke:#9C27B0;stroke-width:1.0416666666666667;"/><text fill="#9C27B0" font-family="Verdana" font-size="12.5" lengthAdjust="spacing" textLength="114.1663" x="236.4583" y="107.4036">initial state of Bob</text><rect fill="none" filter="url(#frsljzyh5wcg2)" height="3.125" rx="4.1667" ry="4.1667" style="stroke:none;stroke-width:1.0416666666666667;" width="564.6057" x="10.4167" y="165.5436"/><line style="stroke:#666666;stroke-width:1.0416666666666667;" x1="10.4167" x2="575.0224" y1="165.5436" y2="165.5436"/><line style="stroke:#666666;stroke-width:1.0416666666666667;" x1="10.4167" x2="575.0224" y1="168.6686" y2="168.6686"/><rect fill="none" filter="url(#frsljzyh5wcg2)" height="43.7174" rx="4.1667" ry="4.1667" style="stroke:#666666;stroke-width:2.0833333333333335;" width="128.3244" x="228.5573" y="144.7266"/><text fill="#222222" font-family="Verdana" font-size="12.5" font-weight="bold" lengthAdjust="spacing" textLength="88.5559" x="245.224" y="170.9127">Initialization</text><rect fill="none" filter="url(#frsljzyh5wcg2)" height="81.1849" rx="4.1667" ry="4.1667" style="stroke:#666666;stroke-width:1.0416666666666667;" width="354.2714" x="19.4834" y="198.8607"/><path d="M23.6501,198.8607 L106.9834,198.8607 L106.9834,224.9023 L96.5668,235.319 L19.4834,235.319 L19.4834,203.0273 A4.1667,4.1667 0 0 1 23.6501,198.8607 " fill="none" style="stroke:#666666;stroke-width:1.0416666666666667;"/><text fill="#222222" font-family="Verdana" font-size="12.5" font-weight="bold" lengthAdjust="spacing" textLength="20.0806" x="43.4418" y="222.9635">ref</text><text fill="#222222" font-family="Verdana" font-size="12.5" lengthAdjust="spacing" textLength="19.7693" x="188.297" y="261.5051">init</text><polygon fill="#2196F3" points="283.0302,322.7214,293.4469,326.888,283.0302,331.0547,287.1969,326.888" style="stroke:#2196F3;stroke-width:1.0416666666666667;"/><line style="stroke:#2196F3;stroke-width:3.125;" x1="98.5758" x2="289.2802" y1="326.888" y2="326.888"/><text fill="#222222" font-family="Verdana" font-size="12.5" lengthAdjust="spacing" textLength="30.2063" x="116.2842" y="311.44">hello</text><line style="stroke:#2196F3;stroke-width:3.125;" x1="305.9469" x2="354.9052" y1="371.6471" y2="371.6471"/><line style="stroke:#2196F3;stroke-width:3.125;" x1="354.9052" x2="354.9052" y1="371.6471" y2="385.1888"/><line style="stroke:#2196F3;stroke-width:3.125;" x1="312.1969" x2="354.9052" y1="385.1888" y2="385.1888"/><polygon fill="#2196F3" points="322.6135,381.0221,312.1969,385.1888,322.6135,389.3555,318.4469,385.1888" style="stroke:#2196F3;stroke-width:1.0416666666666667;"/><text fill="#222222" font-family="Verdana" font-size="12.5" lengthAdjust="spacing" textLength="47.5281" x="328.8635" y="356.1991">self call</text><line style="stroke:#2196F3;stroke-width:3.125;" x1="311.1552" x2="360.1135" y1="435.1563" y2="435.1563"/><line style="stroke:#2196F3;stroke-width:3.125;" x1="360.1135" x2="360.1135" y1="435.1563" y2="448.6979"/><line style="stroke:#2196F3;stroke-width:3.125;" x1="317.4052" x2="360.1135" y1="448.6979" y2="448.6979"/><polygon fill="#2196F3" points="327.8219,444.5313,317.4052,448.6979,327.8219,452.8646,323.6552,448.6979" style="stroke:#2196F3;stroke-width:1.0416666666666667;"/><text fill="#222222" font-family="Verdana" font-size="12.5" lengthAdjust="spacing" textLength="30.2063" x="334.0719" y="419.7083">hello</text><polygon fill="#2196F3" points="431.3171,499.707,441.7338,503.8737,431.3171,508.0404,435.4838,503.8737" style="stroke:#2196F3;stroke-width:1.0416666666666667;"/><line style="stroke:#2196F3;stroke-width:3.125;" x1="316.3635" x2="437.5671" y1="503.8737" y2="503.8737"/><text fill="#222222" font-family="Verdana" font-size="12.5" lengthAdjust="spacing" textLength="39.9536" x="334.0719" y="488.4257">create</text><rect fill="none" filter="url(#frsljzyh5wcg2)" height="49.9674" rx="4.1667" ry="4.1667" style="stroke:#2196F3;stroke-width:1.0416666666666667;" width="81.2052" x="443.8171" y="462.2396"/><text fill="#2196F3" font-family="Verdana" font-size="12.5" lengthAdjust="spacing" textLength="45.7886" x="461.5255" y="491.5507">George</text><line style="stroke:#2196F3;stroke-width:3.125;stroke-dasharray:2.0,2.0;" x1="316.3635" x2="360.1135" y1="573.6328" y2="573.6328"/><line style="stroke:#2196F3;stroke-width:3.125;stroke-dasharray:2.0,2.0;" x1="360.1135" x2="360.1135" y1="573.6328" y2="587.1745"/><line style="stroke:#2196F3;stroke-width:3.125;stroke-dasharray:2.0,2.0;" x1="311.1552" x2="360.1135" y1="587.1745" y2="587.1745"/><polygon fill="#2196F3" points="321.5719,583.0078,311.1552,587.1745,321.5719,591.3411,317.4052,587.1745" style="stroke:#2196F3;stroke-width:1.0416666666666667;"/><text fill="#222222" font-family="Verdana" font-size="12.5" lengthAdjust="spacing" textLength="31.1951" x="334.0719" y="558.1848">done</text><line style="stroke:#2196F3;stroke-width:3.125;stroke-dasharray:2.0,2.0;" x1="311.1552" x2="354.9052" y1="637.1419" y2="637.1419"/><line style="stroke:#2196F3;stroke-width:3.125;stroke-dasharray:2.0,2.0;" x1="354.9052" x2="354.9052" y1="637.1419" y2="650.6836"/><line style="stroke:#2196F3;stroke-width:3.125;stroke-dasharray:2.0,2.0;" x1="305.9469" x2="354.9052" y1="650.6836" y2="650.6836"/><polygon fill="#2196F3" points="316.3635,646.5169,305.9469,650.6836,316.3635,654.8503,312.1969,650.6836" style="stroke:#2196F3;stroke-width:1.0416666666666667;"/><text fill="#222222" font-family="Verdana" font-size="12.5" lengthAdjust="spacing" textLength="12.0117" x="328.8635" y="621.6939">rc</text><polygon fill="#2196F3" points="473.4823,691.276,483.8989,695.4427,473.4823,699.6094,477.6489,695.4427" style="stroke:#2196F3;stroke-width:1.0416666666666667;"/><line style="stroke:#2196F3;stroke-width:3.125;" x1="305.9469" x2="479.7323" y1="695.4427" y2="695.4427"/><text fill="#222222" font-family="Verdana" font-size="12.5" lengthAdjust="spacing" textLength="39.3799" x="323.6552" y="679.9947">delete</text><line style="stroke:#CCCCCC;stroke-width:2.0833333333333335;" x1="476.6073" x2="495.3573" y1="686.0677" y2="704.8177"/><line style="stroke:#CCCCCC;stroke-width:2.0833333333333335;" x1="476.6073" x2="495.3573" y1="704.8177" y2="686.0677"/><polygon fill="#2196F3" points="110.0342,741.2435,99.6175,745.4102,110.0342,749.5768,105.8675,745.4102" style="stroke:#2196F3;stroke-width:1.0416666666666667;"/><line style="stroke:#2196F3;stroke-width:3.125;stroke-dasharray:2.0,2.0;" x1="103.7842" x2="299.6969" y1="745.4102" y2="745.4102"/><text fill="#222222" font-family="Verdana" font-size="12.5" lengthAdjust="spacing" textLength="48.8953" x="126.7008" y="729.9622">success</text><rect fill="none" filter="url(#frsljzyh5wcg2)" height="3.125" rx="4.1667" ry="4.1667" style="stroke:none;stroke-width:1.0416666666666667;" width="564.6057" x="10.4167" y="784.9772"/><line style="stroke:#666666;stroke-width:1.0416666666666667;" x1="10.4167" x2="575.0224" y1="784.9772" y2="784.9772"/><line style="stroke:#666666;stroke-width:1.0416666666666667;" x1="10.4167" x2="575.0224" y1="788.1022" y2="788.1022"/><rect fill="none" filter="url(#frsljzyh5wcg2)" height="43.7174" rx="4.1667" ry="4.1667" style="stroke:#666666;stroke-width:2.0833333333333335;" width="143.5527" x="220.9432" y="764.1602"/><text fill="#222222" font-family="Verdana" font-size="12.5" font-weight="bold" lengthAdjust="spacing" textLength="103.7842" x="237.6099" y="790.3463">Delay example</text><polygon fill="#2196F3" points="288.4667,865.6479,298.6552,870.3451,288.0379,873.9702,292.4135,870.0234" style="stroke:#2196F3;stroke-width:1.0416666666666667;"/><line style="stroke:#2196F3;stroke-width:3.125;" x1="98.5758" x2="298.6552" y1="859.9284" y2="870.3451"/><text fill="#222222" font-family="Verdana" font-size="12.5" lengthAdjust="spacing" textLength="147.0703" x="116.2842" y="844.4804">Authentication Request</text><polygon fill="#2196F3" points="109.806,976.032,99.6175,980.7292,110.2348,984.3543,105.8592,980.4076" style="stroke:#2196F3;stroke-width:1.0416666666666667;"/><line style="stroke:#2196F3;stroke-width:3.125;stroke-dasharray:2.0,2.0;" x1="299.6969" x2="98.5758" y1="970.3125" y2="980.7292"/><text fill="#222222" font-family="Verdana" font-size="12.5" lengthAdjust="spacing" textLength="156.3293" x="126.7008" y="954.8645">Authentication Response</text><text fill="#2196F3" font-family="Verdana" font-size="12.5" lengthAdjust="spacing" textLength="95.3613" x="244.5984" y="1036.0819">5 minutes later</text><polygon fill="#2196F3" points="110.0342,1101.4974,99.6175,1105.6641,110.0342,1109.8307,105.8675,1105.6641" style="stroke:#2196F3;stroke-width:1.0416666666666667;"/><line style="stroke:#2196F3;stroke-width:3.125;stroke-dasharray:2.0,2.0;" x1="103.7842" x2="299.6969" y1="1105.6641" y2="1105.6641"/><text fill="#222222" font-family="Verdana" font-size="12.5" lengthAdjust="spacing" textLength="69.5374" x="126.7008" y="1090.2161">Good Bye !</text></g></svg>