<svg xmlns="http://www.w3.org/2000/svg" xmlns:xlink="http://www.w3.org/1999/xlink" contentStyleType="text/css" height="482.2917px" preserveAspectRatio="none" style="width:832px;height:482px;" version="1.1" viewBox="0 0 832 482" width="832.2917px" zoomAndPan="magnify"><defs><linearGradient id="gccywy7lf7vd00" x1="50%" x2="50%" y1="0%" y2="100%"><stop offset="0%" stop-color="#F18E3E"/><stop offset="100%" stop-color="#EC7211"/></linearGradient></defs><g><line style="stroke:#ABB6C2;stroke-width:0.5208;stroke-dasharray:5.0,5.0;" x1="92.7083" x2="92.7083" y1="92.6758" y2="390.3646"/><line style="stroke:#ABB6C2;stroke-width:0.5208;stroke-dasharray:5.0,5.0;" x1="215.391" x2="215.391" y1="92.6758" y2="390.3646"/><line style="stroke:#ABB6C2;stroke-width:0.5208;stroke-dasharray:5.0,5.0;" x1="289.1276" x2="289.1276" y1="92.6758" y2="390.3646"/><line style="stroke:#ABB6C2;stroke-width:0.5208;stroke-dasharray:5.0,5.0;" x1="369.1182" x2="369.1182" y1="92.6758" y2="390.3646"/><line style="stroke:#ABB6C2;stroke-width:0.5208;stroke-dasharray:5.0,5.0;" x1="437.4939" x2="437.4939" y1="92.6758" y2="390.3646"/><line style="stroke:#ABB6C2;stroke-width:0.5208;stroke-dasharray:5.0,5.0;" x1="512.5285" x2="512.5285" y1="92.6758" y2="390.3646"/><line style="stroke:#ABB6C2;stroke-width:0.5208;stroke-dasharray:5.0,5.0;" x1="651.3387" x2="651.3387" y1="92.6758" y2="390.3646"/><line style="stroke:#ABB6C2;stroke-width:0.5208;stroke-dasharray:5.0,5.0;" x1="788.4298" x2="788.4298" y1="92.6758" y2="390.3646"/><rect fill="url(#gccywy7lf7vd00)" height="39.5508" rx="4.1667" ry="4.1667" style="stroke:#EC7211;stroke-width:0.5208;" width="92.4744" x="46.875" y="52.0833"/><text fill="#FFFFFF" font-family="Verdana" font-size="12.5" lengthAdjust="spacing" textLength="67.4744" x="59.375" y="76.1861">Participant</text><rect fill="url(#gccywy7lf7vd00)" height="39.5508" rx="4.1667" ry="4.1667" style="stroke:#EC7211;stroke-width:0.5208;" width="92.4744" x="46.875" y="389.3229"/><text fill="#FFFFFF" font-family="Verdana" font-size="12.5" lengthAdjust="spacing" textLength="67.4744" x="59.375" y="413.4257">Participant</text><text fill="#4E5D6C" font-family="Verdana" font-size="12.5" lengthAdjust="spacing" textLength="33.1116" x="196.641" y="84.5194">Actor</text><ellipse cx="216.3218" cy="14.0625" fill="url(#gccywy7lf7vd00)" rx="8.3333" ry="8.3333" style="stroke:#EC7211;stroke-width:0.5208;"/><path d="M216.3218,22.3958 L216.3218,50.5208 M202.7802,30.7292 L229.8635,30.7292 M216.3218,50.5208 L202.7802,66.1458 M216.3218,50.5208 L229.8635,66.1458 " fill="none" style="stroke:#EC7211;stroke-width:0.5208;"/><text fill="#4E5D6C" font-family="Verdana" font-size="12.5" lengthAdjust="spacing" textLength="33.1116" x="196.641" y="406.134">Actor</text><ellipse cx="216.3218" cy="423.1445" fill="url(#gccywy7lf7vd00)" rx="8.3333" ry="8.3333" style="stroke:#EC7211;stroke-width:0.5208;"/><path d="M216.3218,431.4779 L216.3218,459.6029 M202.7802,439.8112 L229.8635,439.8112 M216.3218,459.6029 L202.7802,475.2279 M216.3218,459.6029 L229.8635,475.2279 " fill="none" style="stroke:#EC7211;stroke-width:0.5208;"/><text fill="#4E5D6C" font-family="Verdana" font-size="12.5" lengthAdjust="spacing" textLength="60.199" x="256.8359" y="84.5194">Boundary</text><path d="M268.7063,38.5417 L268.7063,63.5417 M268.7063,51.0417 L286.4146,51.0417 " fill="none" style="stroke:#EC7211;stroke-width:0.5208;"/><ellipse cx="298.9146" cy="51.0417" fill="url(#gccywy7lf7vd00)" rx="12.5" ry="12.5" style="stroke:#EC7211;stroke-width:0.5208;"/><text fill="#4E5D6C" font-family="Verdana" font-size="12.5" lengthAdjust="spacing" textLength="60.199" x="256.8359" y="406.134">Boundary</text><path d="M268.7063,418.457 L268.7063,443.457 M268.7063,430.957 L286.4146,430.957 " fill="none" style="stroke:#EC7211;stroke-width:0.5208;"/><ellipse cx="298.9146" cy="430.957" fill="url(#gccywy7lf7vd00)" rx="12.5" ry="12.5" style="stroke:#EC7211;stroke-width:0.5208;"/><text fill="#4E5D6C" font-family="Verdana" font-size="12.5" lengthAdjust="spacing" textLength="45.459" x="344.1182" y="84.5194">Control</text><ellipse cx="369.9727" cy="51.0417" fill="url(#gccywy7lf7vd00)" rx="12.5" ry="12.5" style="stroke:#EC7211;stroke-width:0.5208;"/><polygon fill="#EC7211" points="365.8061,38.5417,372.0561,33.3333,369.9727,38.5417,372.0561,43.75,365.8061,38.5417" style="stroke:#EC7211;stroke-width:1.0417;"/><text fill="#4E5D6C" font-family="Verdana" font-size="12.5" lengthAdjust="spacing" textLength="45.459" x="344.1182" y="406.134">Control</text><ellipse cx="369.9727" cy="430.957" fill="url(#gccywy7lf7vd00)" rx="12.5" ry="12.5" style="stroke:#EC7211;stroke-width:0.5208;"/><polygon fill="#EC7211" points="365.8061,418.457,372.0561,413.2487,369.9727,418.457,372.0561,423.6654,365.8061,418.457" style="stroke:#EC7211;stroke-width:1.0417;"/><text fill="#4E5D6C" font-family="Verdana" font-size="12.5" lengthAdjust="spacing" textLength="36.4929" x="416.6606" y="84.5194">Entity</text><ellipse cx="438.032" cy="51.0417" fill="url(#gccywy7lf7vd00)" rx="12.5" ry="12.5" style="stroke:#EC7211;stroke-width:0.5208;"/><line style="stroke:#EC7211;stroke-width:0.5208;" x1="425.532" x2="450.532" y1="65.625" y2="65.625"/><text fill="#4E5D6C" font-family="Verdana" font-size="12.5" lengthAdjust="spacing" textLength="36.4929" x="416.6606" y="406.134">Entity</text><ellipse cx="438.032" cy="430.957" fill="url(#gccywy7lf7vd00)" rx="12.5" ry="12.5" style="stroke:#EC7211;stroke-width:0.5208;"/><line style="stroke:#EC7211;stroke-width:0.5208;" x1="425.532" x2="450.532" y1="445.5404" y2="445.5404"/><text fill="#4E5D6C" font-family="Verdana" font-size="12.5" lengthAdjust="spacing" textLength="59.6436" x="480.2368" y="84.5194">Database</text><path d="M494.4336,30.2083 C494.4336,19.7917 513.1836,19.7917 513.1836,19.7917 C513.1836,19.7917 531.9336,19.7917 531.9336,30.2083 L531.9336,57.2917 C531.9336,67.7083 513.1836,67.7083 513.1836,67.7083 C513.1836,67.7083 494.4336,67.7083 494.4336,57.2917 L494.4336,30.2083 " fill="url(#gccywy7lf7vd00)" style="stroke:#EC7211;stroke-width:1.5625;"/><path d="M494.4336,30.2083 C494.4336,40.625 513.1836,40.625 513.1836,40.625 C513.1836,40.625 531.9336,40.625 531.9336,30.2083 " fill="none" style="stroke:#EC7211;stroke-width:1.5625;"/><text fill="#4E5D6C" font-family="Verdana" font-size="12.5" lengthAdjust="spacing" textLength="59.6436" x="480.2368" y="406.134">Database</text><path d="M494.4336,424.707 C494.4336,414.2904 513.1836,414.2904 513.1836,414.2904 C513.1836,414.2904 531.9336,414.2904 531.9336,424.707 L531.9336,451.7904 C531.9336,462.207 513.1836,462.207 513.1836,462.207 C513.1836,462.207 494.4336,462.207 494.4336,451.7904 L494.4336,424.707 " fill="url(#gccywy7lf7vd00)" style="stroke:#EC7211;stroke-width:1.5625;"/><path d="M494.4336,424.707 C494.4336,435.1237 513.1836,435.1237 513.1836,435.1237 C513.1836,435.1237 531.9336,435.1237 531.9336,424.707 " fill="none" style="stroke:#EC7211;stroke-width:1.5625;"/><rect fill="url(#gccywy7lf7vd00)" height="39.5508" rx="4.1667" ry="4.1667" style="stroke:#EC7211;stroke-width:0.5208;" width="93.3411" x="607.5887" y="47.9167"/><rect fill="url(#gccywy7lf7vd00)" height="39.5508" rx="4.1667" ry="4.1667" style="stroke:#EC7211;stroke-width:0.5208;" width="93.3411" x="603.422" y="52.0833"/><text fill="#FFFFFF" font-family="Verdana" font-size="12.5" lengthAdjust="spacing" textLength="68.3411" x="615.922" y="76.1861">Collections</text><rect fill="url(#gccywy7lf7vd00)" height="39.5508" rx="4.1667" ry="4.1667" style="stroke:#EC7211;stroke-width:0.5208;" width="93.3411" x="607.5887" y="389.3229"/><rect fill="url(#gccywy7lf7vd00)" height="39.5508" rx="4.1667" ry="4.1667" style="stroke:#EC7211;stroke-width:0.5208;" width="93.3411" x="603.422" y="393.4896"/><text fill="#FFFFFF" font-family="Verdana" font-size="12.5" lengthAdjust="spacing" textLength="68.3411" x="615.922" y="417.5924">Collections</text><path d="M758.2214,57.2917 L820.1192,57.2917 C825.3276,57.2917 825.3276,74.9837 825.3276,74.9837 C825.3276,74.9837 825.3276,92.6758 820.1192,92.6758 L758.2214,92.6758 C753.0131,92.6758 753.0131,74.9837 753.0131,74.9837 C753.0131,74.9837 753.0131,57.2917 758.2214,57.2917 " fill="url(#gccywy7lf7vd00)" style="stroke:#EC7211;stroke-width:0.5208;"/><path d="M820.1192,57.2917 C814.9109,57.2917 814.9109,74.9837 814.9109,74.9837 C814.9109,92.6758 820.1192,92.6758 820.1192,92.6758 " fill="none" style="stroke:#EC7211;stroke-width:0.5208;"/><text fill="#FFFFFF" font-family="Verdana" font-size="12.5" lengthAdjust="spacing" textLength="41.0645" x="763.4298" y="79.3111">Queue</text><path d="M758.2214,389.3229 L820.1192,389.3229 C825.3276,389.3229 825.3276,407.015 825.3276,407.015 C825.3276,407.015 825.3276,424.707 820.1192,424.707 L758.2214,424.707 C753.0131,424.707 753.0131,407.015 753.0131,407.015 C753.0131,407.015 753.0131,389.3229 758.2214,389.3229 " fill="url(#gccywy7lf7vd00)" style="stroke:#EC7211;stroke-width:0.5208;"/><path d="M820.1192,389.3229 C814.9109,389.3229 814.9109,407.015 814.9109,407.015 C814.9109,424.707 820.1192,424.707 820.1192,424.707 " fill="none" style="stroke:#EC7211;stroke-width:0.5208;"/><text fill="#FFFFFF" font-family="Verdana" font-size="12.5" lengthAdjust="spacing" textLength="41.0645" x="763.4298" y="411.3424">Queue</text><polygon fill="#EC7211" points="203.8218,130.1432,214.2385,134.3099,203.8218,138.4766,207.9885,134.3099" style="stroke:#EC7211;stroke-width:1.0417;"/><line style="stroke:#EC7211;stroke-width:3.125;" x1="93.1122" x2="210.0718" y1="134.3099" y2="134.3099"/><text fill="#4E5D6C" font-family="Verdana" font-size="12.5" lengthAdjust="spacing" textLength="51.4771" x="105.6122" y="124.0702">To actor</text><polygon fill="#EC7211" points="277.5604,169.694,287.9771,173.8607,277.5604,178.0273,281.7271,173.8607" style="stroke:#EC7211;stroke-width:1.0417;"/><line style="stroke:#EC7211;stroke-width:3.125;" x1="93.1122" x2="283.8104" y1="173.8607" y2="173.8607"/><text fill="#4E5D6C" font-family="Verdana" font-size="12.5" lengthAdjust="spacing" textLength="78.8147" x="105.6122" y="163.621">To boundary</text><polygon fill="#EC7211" points="357.4727,209.2448,367.8894,213.4115,357.4727,217.5781,361.6394,213.4115" style="stroke:#EC7211;stroke-width:1.0417;"/><line style="stroke:#EC7211;stroke-width:3.125;" x1="93.1122" x2="363.7227" y1="213.4115" y2="213.4115"/><text fill="#4E5D6C" font-family="Verdana" font-size="12.5" lengthAdjust="spacing" textLength="62.8601" x="105.6122" y="203.1718">To control</text><polygon fill="#EC7211" points="425.532,248.7956,435.9487,252.9622,425.532,257.1289,429.6987,252.9622" style="stroke:#EC7211;stroke-width:1.0417;"/><line style="stroke:#EC7211;stroke-width:3.125;" x1="93.1122" x2="431.782" y1="252.9622" y2="252.9622"/><text fill="#4E5D6C" font-family="Verdana" font-size="12.5" lengthAdjust="spacing" textLength="55.542" x="105.6122" y="242.7226">To entity</text><polygon fill="#EC7211" points="500.6836,288.3464,511.1003,292.513,500.6836,296.6797,504.8503,292.513" style="stroke:#EC7211;stroke-width:1.0417;"/><line style="stroke:#EC7211;stroke-width:3.125;" x1="93.1122" x2="506.9336" y1="292.513" y2="292.513"/><text fill="#4E5D6C" font-family="Verdana" font-size="12.5" lengthAdjust="spacing" textLength="77.2095" x="105.6122" y="282.2734">To database</text><polygon fill="#EC7211" points="639.6759,327.8971,650.0926,332.0638,639.6759,336.2305,643.8426,332.0638" style="stroke:#EC7211;stroke-width:1.0417;"/><line style="stroke:#EC7211;stroke-width:3.125;" x1="93.1122" x2="645.9259" y1="332.0638" y2="332.0638"/><text fill="#4E5D6C" font-family="Verdana" font-size="12.5" lengthAdjust="spacing" textLength="85.7422" x="105.6122" y="321.8241">To collections</text><polygon fill="#EC7211" points="776.6703,367.4479,787.087,371.6146,776.6703,375.7813,780.837,371.6146" style="stroke:#EC7211;stroke-width:1.0417;"/><line style="stroke:#EC7211;stroke-width:3.125;" x1="93.1122" x2="782.9203" y1="371.6146" y2="371.6146"/><text fill="#4E5D6C" font-family="Verdana" font-size="12.5" lengthAdjust="spacing" textLength="58.4167" x="105.6122" y="361.3749">To queue</text></g></svg>