<svg xmlns="http://www.w3.org/2000/svg" xmlns:xlink="http://www.w3.org/1999/xlink" contentStyleType="text/css" data-diagram-type="SEQUENCE" height="749px" preserveAspectRatio="none" style="width:476px;height:749px;background:#AAAAAA;" version="1.1" viewBox="0 0 476 749" width="476px" zoomAndPan="magnify"><?plantuml 1.2026.5beta1?><defs/><g><rect fill="#AAAAAA" height="749" style="stroke:none;stroke-width:1;" width="476" x="0" y="0"/><g><title>Bob</title><rect fill="#CEFEFE" height="259.9141" style="stroke:#3600A8;stroke-width:1;" width="10" x="310.7703" y="196.75"/></g><g><title>Bob</title><rect fill="#CEFEFE" height="157.5156" style="stroke:#3600A8;stroke-width:1;" width="10" x="315.7703" y="233.8828"/></g><g><title>Bob</title><rect fill="#005500" height="73.25" style="stroke:#3600A8;stroke-width:1;" width="10" x="320.7703" y="276.0156"/></g><g class="participant-lifeline" data-entity-uid="part1" data-qualified-name="Alice" data-source-line="6" id="part1-lifeline"><g><title>Alice</title><rect fill="#000000" fill-opacity="0.00000" height="522.3047" width="8" x="102.752" y="28.1172"/><line style="stroke:#3600A8;stroke-width:4;" x1="105.9065" x2="105.9065" y1="28.1172" y2="550.4219"/></g><line style="stroke:#3600A8;stroke-width:4;" x1="105.9065" x2="105.9065" y1="550.4219" y2="578.4219"/><g><title>Alice</title><rect fill="#000000" fill-opacity="0.00000" height="49.1328" width="8" x="102.752" y="578.4219"/><line style="stroke:#3600A8;stroke-width:4;" x1="105.9065" x2="105.9065" y1="578.4219" y2="627.5547"/></g><line style="stroke:#3600A8;stroke-width:4;" x1="105.9065" x2="105.9065" y1="627.5547" y2="681.1641"/><g><title>Alice</title><rect fill="#000000" fill-opacity="0.00000" height="39.1328" width="8" x="102.752" y="681.1641"/><line style="stroke:#3600A8;stroke-width:4;" x1="105.9065" x2="105.9065" y1="681.1641" y2="720.2969"/></g></g><g class="participant-lifeline" data-entity-uid="part2" data-qualified-name="Bob" data-source-line="7" id="part2-lifeline"><g><title>Bob</title><rect fill="#000000" fill-opacity="0.00000" height="522.3047" width="8" x="311.7703" y="28.1172"/><line style="stroke:#3600A8;stroke-width:4;" x1="315.4104" x2="315.4104" y1="28.1172" y2="550.4219"/></g><line style="stroke:#3600A8;stroke-width:4;" x1="315.4104" x2="315.4104" y1="550.4219" y2="578.4219"/><g><title>Bob</title><rect fill="#000000" fill-opacity="0.00000" height="49.1328" width="8" x="311.7703" y="578.4219"/><line style="stroke:#3600A8;stroke-width:4;" x1="315.4104" x2="315.4104" y1="578.4219" y2="627.5547"/></g><line style="stroke:#3600A8;stroke-width:4;" x1="315.4104" x2="315.4104" y1="627.5547" y2="681.1641"/><g><title>Bob</title><rect fill="#000000" fill-opacity="0.00000" height="39.1328" width="8" x="311.7703" y="681.1641"/><line style="stroke:#3600A8;stroke-width:4;" x1="315.4104" x2="315.4104" y1="681.1641" y2="720.2969"/></g></g><g class="participant-lifeline" data-entity-uid="part3" data-qualified-name="George" data-source-line="13" id="part3-lifeline"><g><title>George</title><rect fill="#000000" fill-opacity="0.00000" height="234.8477" width="8" x="427.1213" y="315.5742"/><line style="stroke:#3600A8;stroke-width:4;" x1="430.322" x2="430.322" y1="315.5742" y2="550.4219"/></g><line style="stroke:#3600A8;stroke-width:4;" x1="430.322" x2="430.322" y1="550.4219" y2="578.4219"/><g><title>George</title><rect fill="#000000" fill-opacity="0.00000" height="49.1328" width="8" x="427.1213" y="578.4219"/><line style="stroke:#3600A8;stroke-width:4;" x1="430.322" x2="430.322" y1="578.4219" y2="627.5547"/></g><line style="stroke:#3600A8;stroke-width:4;" x1="430.322" x2="430.322" y1="627.5547" y2="681.1641"/><g><title>George</title><rect fill="#000000" fill-opacity="0.00000" height="39.1328" width="8" x="427.1213" y="681.1641"/><line style="stroke:#3600A8;stroke-width:4;" x1="430.322" x2="430.322" y1="681.1641" y2="720.2969"/></g></g><g class="participant participant-head" data-entity-uid="part1" data-qualified-name="Alice" data-source-line="6" id="part1-head"><rect fill="#CEFEFE" height="22.1172" rx="7.5" ry="7.5" style="stroke:#3600A8;stroke-width:4;" width="45.6909" x="83.9065" y="5"/><text fill="#008000" font-family="sans-serif" font-size="19" lengthAdjust="spacing" textLength="45.6909" x="83.9065" y="22.6362">Alice</text></g><g class="participant participant-tail" data-entity-uid="part1" data-qualified-name="Alice" data-source-line="6" id="part1-tail"><rect fill="#CEFEFE" height="22.1172" rx="7.5" ry="7.5" style="stroke:#3600A8;stroke-width:4;" width="45.6909" x="83.9065" y="719.2969"/><text fill="#008000" font-family="sans-serif" font-size="19" lengthAdjust="spacing" textLength="45.6909" x="83.9065" y="736.9331">Alice</text></g><g class="participant participant-head" data-entity-uid="part2" data-qualified-name="Bob" data-source-line="7" id="part2-head"><rect fill="#CEFEFE" height="22.1172" rx="7.5" ry="7.5" style="stroke:#3600A8;stroke-width:4;" width="36.7197" x="297.4104" y="5"/><text fill="#008000" font-family="sans-serif" font-size="19" lengthAdjust="spacing" textLength="36.7197" x="297.4104" y="22.6362">Bob</text></g><g class="participant participant-tail" data-entity-uid="part2" data-qualified-name="Bob" data-source-line="7" id="part2-tail"><rect fill="#CEFEFE" height="22.1172" rx="7.5" ry="7.5" style="stroke:#3600A8;stroke-width:4;" width="36.7197" x="297.4104" y="719.2969"/><text fill="#008000" font-family="sans-serif" font-size="19" lengthAdjust="spacing" textLength="36.7197" x="297.4104" y="736.9331">Bob</text></g><g class="participant participant-tail" data-entity-uid="part3" data-qualified-name="George" data-source-line="13" id="part3-tail"><rect fill="#CEFEFE" height="22.1172" rx="7.5" ry="7.5" style="stroke:#3600A8;stroke-width:4;" width="69.5986" x="396.322" y="719.2969"/><text fill="#008000" font-family="sans-serif" font-size="19" lengthAdjust="spacing" textLength="69.5986" x="396.322" y="736.9331">George</text></g><g><title>Bob</title><rect fill="#CEFEFE" height="259.9141" style="stroke:#3600A8;stroke-width:1;" width="10" x="310.7703" y="196.75"/></g><g><title>Bob</title><rect fill="#CEFEFE" height="157.5156" style="stroke:#3600A8;stroke-width:1;" width="10" x="315.7703" y="233.8828"/></g><g><title>Bob</title><rect fill="#005500" height="73.25" style="stroke:#3600A8;stroke-width:1;" width="10" x="320.7703" y="276.0156"/></g><path d="M5,50.6172 L5,67.6172 A7.5,7.5 0 0 0 12.5,75.1172 L200.5,75.1172 A7.5,7.5 0 0 0 208,67.6172 L208,53.1172 L198,43.1172 L12.5,43.1172 A7.5,7.5 0 0 0 5,50.6172" fill="#DAA520" style="stroke:#3600A8;stroke-width:4;"/><path d="M198,43.1172 L198,49.3672 A3.75,3.75 0 0 0 201.75,53.1172 L208,53.1172 L198,43.1172" fill="#DAA520" style="stroke:#3600A8;stroke-width:4;"/><text fill="#008000" font-family="sans-serif" font-size="19" lengthAdjust="spacing" textLength="182.5039" x="11" y="65.7534">initial state of Alice</text><path d="M218,50.6172 L218,67.6172 A7.5,7.5 0 0 0 225.5,75.1172 L404.5,75.1172 A7.5,7.5 0 0 0 412,67.6172 L412,53.1172 L402,43.1172 L225.5,43.1172 A7.5,7.5 0 0 0 218,50.6172" fill="#DAA520" style="stroke:#3600A8;stroke-width:4;"/><path d="M402,43.1172 L402,49.3672 A3.75,3.75 0 0 0 405.75,53.1172 L412,53.1172 L402,43.1172" fill="#DAA520" style="stroke:#3600A8;stroke-width:4;"/><text fill="#008000" font-family="sans-serif" font-size="19" lengthAdjust="spacing" textLength="173.5327" x="224" y="65.7534">initial state of Bob</text><rect fill="#008000" height="3" rx="7.5" ry="7.5" style="stroke:#008000;stroke-width:1;" width="470.9207" x="0" y="102.5469"/><line style="stroke:#FF0000;stroke-width:2;" x1="0" x2="470.9207" y1="102.5469" y2="102.5469"/><line style="stroke:#FF0000;stroke-width:2;" x1="0" x2="470.9207" y1="105.5469" y2="105.5469"/><rect fill="#008000" height="26.625" rx="7.5" ry="7.5" style="stroke:#FF0000;stroke-width:4;" width="132.9219" x="168.9994" y="90.2344"/><text fill="#FFFFFF" font-family="sans-serif" font-size="16" font-weight="700" lengthAdjust="spacing" textLength="113.3516" x="174.9994" y="109.0859">Initialization</text><rect fill="#FFD700" height="43.7578" rx="7.5" ry="7.5" style="stroke:#FF0000;stroke-width:4;" width="256.2236" x="80.9065" y="126.8594"/><path d="M88.4065,126.8594 L151.9065,126.8594 L151.9065,140.8594 L141.9065,150.8594 L80.9065,150.8594 L80.9065,134.3594 A7.5,7.5 0 0 1 88.4065,126.8594" fill="#CEFEFE" style="stroke:#3600A8;stroke-width:4;"/><text fill="#008000" font-family="sans-serif" font-size="19" lengthAdjust="spacing" textLength="26.1899" x="93.9065" y="146.4956">ref</text><text fill="#0000FF" font-family="sans-serif" font-size="10" font-weight="700" lengthAdjust="spacing" textLength="18.7549" x="314.3752" y="164.1416">init</text><g class="message" data-entity-1="part1" data-entity-2="part2" data-source-line="10" id="msg1"><polygon fill="#00FF00" points="298.7703,192.75,308.7703,196.75,298.7703,200.75,302.7703,196.75" style="stroke:#00FF00;stroke-width:1;stroke-linejoin:miter;stroke-miterlimit:10;"/><line style="stroke:#00FF00;stroke-width:4;" x1="106.752" x2="304.7703" y1="196.75" y2="196.75"/><text fill="#008000" font-family="sans-serif" font-size="13" lengthAdjust="spacing" textLength="31.4146" x="113.752" y="191.6841">hello</text></g><g class="message" data-entity-1="part2" data-entity-2="part2" data-source-line="11" id="msg2"><line style="stroke:#00FF00;stroke-width:4;" x1="320.7703" x2="367.7703" y1="220.8828" y2="220.8828"/><line style="stroke:#00FF00;stroke-width:4;" x1="367.7703" x2="367.7703" y1="220.8828" y2="233.8828"/><line style="stroke:#00FF00;stroke-width:4;" x1="326.7703" x2="367.7703" y1="233.8828" y2="233.8828"/><polygon fill="#00FF00" points="336.7703,229.8828,326.7703,233.8828,336.7703,237.8828,332.7703,233.8828" style="stroke:#00FF00;stroke-width:1;stroke-linejoin:miter;stroke-miterlimit:10;"/><text fill="#008000" font-family="sans-serif" font-size="13" lengthAdjust="spacing" textLength="49.4292" x="332.7703" y="215.8169">self call</text></g><g class="message" data-entity-1="part2" data-entity-2="part2" data-source-line="12" id="msg3"><line style="stroke:#00FF00;stroke-width:4;" x1="325.7703" x2="372.7703" y1="263.0156" y2="263.0156"/><line style="stroke:#00FF00;stroke-width:4;" x1="372.7703" x2="372.7703" y1="263.0156" y2="276.0156"/><line style="stroke:#00FF00;stroke-width:4;" x1="331.7703" x2="372.7703" y1="276.0156" y2="276.0156"/><polygon fill="#00FF00" points="341.7703,272.0156,331.7703,276.0156,341.7703,280.0156,337.7703,276.0156" style="stroke:#00FF00;stroke-width:1;stroke-linejoin:miter;stroke-miterlimit:10;"/><text fill="#008000" font-family="sans-serif" font-size="13" lengthAdjust="spacing" textLength="31.4146" x="337.7703" y="257.9497">hello</text></g><g class="message" data-entity-1="part2" data-entity-2="part3" data-source-line="13" id="msg4"><polygon fill="#00FF00" points="384.322,306.1484,394.322,310.1484,384.322,314.1484,388.322,310.1484" style="stroke:#00FF00;stroke-width:1;stroke-linejoin:miter;stroke-miterlimit:10;"/><line style="stroke:#00FF00;stroke-width:4;" x1="330.7703" x2="390.322" y1="310.1484" y2="310.1484"/><text fill="#008000" font-family="sans-serif" font-size="13" lengthAdjust="spacing" textLength="41.5518" x="337.7703" y="305.0825">create</text></g><rect fill="#CEFEFE" height="22.1172" rx="7.5" ry="7.5" style="stroke:#3600A8;stroke-width:4;" width="69.5986" x="396.322" y="289.0156"/><text fill="#008000" font-family="sans-serif" font-size="19" lengthAdjust="spacing" textLength="69.5986" x="396.322" y="306.6519">George</text><g class="message" data-entity-1="part2" data-entity-2="part2" data-source-line="14" id="msg6"><line style="stroke:#00FF00;stroke-width:4;stroke-dasharray:2,2;" x1="330.7703" x2="372.7703" y1="348.2656" y2="348.2656"/><line style="stroke:#00FF00;stroke-width:4;stroke-dasharray:2,2;" x1="372.7703" x2="372.7703" y1="348.2656" y2="361.2656"/><line style="stroke:#00FF00;stroke-width:4;stroke-dasharray:2,2;" x1="325.7703" x2="372.7703" y1="361.2656" y2="361.2656"/><polygon fill="#00FF00" points="335.7703,357.2656,325.7703,361.2656,335.7703,365.2656,331.7703,361.2656" style="stroke:#00FF00;stroke-width:1;stroke-linejoin:miter;stroke-miterlimit:10;"/><text fill="#008000" font-family="sans-serif" font-size="13" lengthAdjust="spacing" textLength="32.4429" x="337.7703" y="343.1997">done</text></g><g class="message" data-entity-1="part2" data-entity-2="part2" data-source-line="15" id="msg7"><line style="stroke:#00FF00;stroke-width:4;stroke-dasharray:2,2;" x1="325.7703" x2="367.7703" y1="390.3984" y2="390.3984"/><line style="stroke:#00FF00;stroke-width:4;stroke-dasharray:2,2;" x1="367.7703" x2="367.7703" y1="390.3984" y2="403.3984"/><line style="stroke:#00FF00;stroke-width:4;stroke-dasharray:2,2;" x1="320.7703" x2="367.7703" y1="403.3984" y2="403.3984"/><polygon fill="#00FF00" points="330.7703,399.3984,320.7703,403.3984,330.7703,407.3984,326.7703,403.3984" style="stroke:#00FF00;stroke-width:1;stroke-linejoin:miter;stroke-miterlimit:10;"/><text fill="#008000" font-family="sans-serif" font-size="13" lengthAdjust="spacing" textLength="12.4922" x="332.7703" y="385.3325">rc</text></g><g class="message" data-entity-1="part2" data-entity-2="part3" data-source-line="16" id="msg8"><polygon fill="#00FF00" points="419.1213,423.5313,429.1213,427.5313,419.1213,431.5313,423.1213,427.5313" style="stroke:#00FF00;stroke-width:1;stroke-linejoin:miter;stroke-miterlimit:10;"/><line style="stroke:#00FF00;stroke-width:4;" x1="320.7703" x2="425.1213" y1="427.5313" y2="427.5313"/><text fill="#008000" font-family="sans-serif" font-size="13" lengthAdjust="spacing" textLength="40.9551" x="327.7703" y="422.4653">delete</text></g><line style="stroke:#FF0000;stroke-width:4;" x1="422.1213" x2="440.1213" y1="418.5313" y2="436.5313"/><line style="stroke:#FF0000;stroke-width:4;" x1="422.1213" x2="440.1213" y1="436.5313" y2="418.5313"/><g class="message" data-entity-1="part2" data-entity-2="part1" data-source-line="17" id="msg9"><polygon fill="#00FF00" points="117.752,452.6641,107.752,456.6641,117.752,460.6641,113.752,456.6641" style="stroke:#00FF00;stroke-width:1;stroke-linejoin:miter;stroke-miterlimit:10;"/><line style="stroke:#00FF00;stroke-width:4;stroke-dasharray:2,2;" x1="111.752" x2="314.7703" y1="456.6641" y2="456.6641"/><text fill="#008000" font-family="sans-serif" font-size="13" lengthAdjust="spacing" textLength="50.8511" x="123.752" y="451.5981">success</text></g><rect fill="#008000" height="3" rx="7.5" ry="7.5" style="stroke:#008000;stroke-width:1;" width="470.9207" x="0" y="486.9766"/><line style="stroke:#FF0000;stroke-width:2;" x1="0" x2="470.9207" y1="486.9766" y2="486.9766"/><line style="stroke:#FF0000;stroke-width:2;" x1="0" x2="470.9207" y1="489.9766" y2="489.9766"/><rect fill="#008000" height="26.625" rx="7.5" ry="7.5" style="stroke:#FF0000;stroke-width:4;" width="152.4141" x="159.2533" y="474.6641"/><text fill="#FFFFFF" font-family="sans-serif" font-size="16" font-weight="700" lengthAdjust="spacing" textLength="132.8438" x="165.2533" y="493.5156">Delay example</text><g class="message" data-entity-1="part1" data-entity-2="part2" data-source-line="20" id="msg10"><polygon fill="#00FF00" points="303.9728,537.9486,313.7703,542.4219,303.5905,545.9394,307.7771,542.1351" style="stroke:#00FF00;stroke-width:1;stroke-linejoin:miter;stroke-miterlimit:10;"/><line style="stroke:#00FF00;stroke-width:4;" x1="106.752" x2="313.7703" y1="532.4219" y2="542.4219"/><text fill="#008000" font-family="sans-serif" font-size="13" lengthAdjust="spacing" textLength="152.9531" x="113.752" y="527.356">Authentication Request</text></g><g class="message" data-entity-1="part2" data-entity-2="part1" data-source-line="22" id="msg11"><polygon fill="#00FF00" points="117.5494,605.0814,107.752,609.5547,117.9317,613.0722,113.7451,609.268" style="stroke:#00FF00;stroke-width:1;stroke-linejoin:miter;stroke-miterlimit:10;"/><line style="stroke:#00FF00;stroke-width:4;stroke-dasharray:2,2;" x1="314.7703" x2="106.752" y1="599.5547" y2="609.5547"/><text fill="#008000" font-family="sans-serif" font-size="13" lengthAdjust="spacing" textLength="162.5825" x="123.752" y="594.4888">Authentication Response</text></g><text fill="#008000" font-family="sans-serif" font-size="22" font-style="italic" lengthAdjust="spacing" textLength="167.8359" x="185.0187" y="661.9756">5 minutes later</text><g class="message" data-entity-1="part2" data-entity-2="part1" data-source-line="24" id="msg12"><polygon fill="#00FF00" points="117.752,698.2969,107.752,702.2969,117.752,706.2969,113.752,702.2969" style="stroke:#00FF00;stroke-width:1;stroke-linejoin:miter;stroke-miterlimit:10;"/><line style="stroke:#00FF00;stroke-width:4;stroke-dasharray:2,2;" x1="111.752" x2="314.7703" y1="702.2969" y2="702.2969"/><text fill="#008000" font-family="sans-serif" font-size="13" lengthAdjust="spacing" textLength="72.3188" x="123.752" y="697.231">Good Bye !</text></g></g></svg>