<svg xmlns="http://www.w3.org/2000/svg" xmlns:xlink="http://www.w3.org/1999/xlink" contentStyleType="text/css" height="405.2083px" preserveAspectRatio="none" style="width:300px;height:405px;" version="1.1" viewBox="0 0 300 405" width="300px" zoomAndPan="magnify"><defs><linearGradient id="gt47oijp7uboy0" x1="50%" x2="50%" y1="0%" y2="100%"><stop offset="0%" stop-color="#33B2E2"/><stop offset="100%" stop-color="#009FDB"/></linearGradient></defs><g><!--cluster Somp--><g id="cluster_Somp"><path d="M50,103.125 L202.0833,103.125 A10.4167,10.4167 0 0 1 212.5,113.5417 L212.5,138.3382 L39.5833,138.3382 L39.5833,113.5417 A10.4167,10.4167 0 0 1 50,103.125 " fill="url(#gt47oijp7uboy0)" style="stroke:url(#gt47oijp7uboy0);stroke-width:1.0417;"/><rect fill="none" height="167.7083" rx="10.4167" ry="10.4167" style="stroke:#007FAF;stroke-width:1.0417;" width="172.9167" x="39.5833" y="103.125"/><line style="stroke:#007FAF;stroke-width:1.0417;" x1="39.5833" x2="212.5" y1="138.3382" y2="138.3382"/><text fill="#D2D2D2" font-family="Verdana" font-size="11.4583" lengthAdjust="spacing" textLength="32.7189" x="109.6822" y="127.3026">Somp</text></g><ellipse cx="95.8333" cy="33.3333" fill="#0568AE" rx="10.4167" ry="10.4167" style="stroke:#007FAF;stroke-width:1.0417;"/><g id="Foo"><rect fill="url(#gt47oijp7uboy0)" height="67.5049" rx="10.4167" ry="10.4167" style="stroke:#007FAF;stroke-width:1.0417;" width="58.1116" x="143.75" y="327.0833"/><line style="stroke:#007FAF;stroke-width:1.0417;" x1="143.75" x2="201.8616" y1="367.5049" y2="367.5049"/><text fill="#D2D2D2" font-family="Verdana" font-size="11.4583" lengthAdjust="spacing" textLength="20.6116" x="162.5" y="351.2609">Foo</text></g><g id="Foo1"><rect fill="url(#gt47oijp7uboy0)" height="67.5049" rx="10.4167" ry="10.4167" style="stroke:#007FAF;stroke-width:1.0417;" width="65.4017" x="222.3958" y="159.375"/><line style="stroke:#007FAF;stroke-width:1.0417;" x1="222.3958" x2="287.7975" y1="199.7965" y2="199.7965"/><text fill="#D2D2D2" font-family="Verdana" font-size="11.4583" lengthAdjust="spacing" textLength="27.9017" x="241.1458" y="183.5526">Foo1</text></g><text fill="#D2D2D2" font-family="Verdana" font-size="11.4583" lengthAdjust="spacing" textLength="37.5865" x="74.9568" y="73.3393">entry1</text><ellipse cx="93.75" cy="103.125" fill="url(#gt47oijp7uboy0)" rx="6.25" ry="6.25" style="stroke:#007FAF;stroke-width:1.5625;"/><text fill="#D2D2D2" font-family="Verdana" font-size="11.4583" lengthAdjust="spacing" textLength="37.5865" x="20.7901" y="157.1935">entry2</text><ellipse cx="39.5833" cy="186.9792" fill="url(#gt47oijp7uboy0)" rx="6.25" ry="6.25" style="stroke:#007FAF;stroke-width:1.5625;"/><g id="Somp.sin"><rect fill="url(#gt47oijp7uboy0)" height="67.5049" rx="10.4167" ry="10.4167" style="stroke:#007FAF;stroke-width:1.0417;" width="53.9154" x="68.75" y="159.375"/><line style="stroke:#007FAF;stroke-width:1.0417;" x1="68.75" x2="122.6654" y1="199.7965" y2="199.7965"/><text fill="#D2D2D2" font-family="Verdana" font-size="11.4583" lengthAdjust="spacing" textLength="16.4154" x="87.5" y="183.5526">sin</text></g><g id="Somp.sin2"><rect fill="url(#gt47oijp7uboy0)" height="67.5049" rx="10.4167" ry="10.4167" style="stroke:#007FAF;stroke-width:1.0417;" width="61.2055" x="142.1875" y="159.375"/><line style="stroke:#007FAF;stroke-width:1.0417;" x1="142.1875" x2="203.393" y1="199.7965" y2="199.7965"/><text fill="#D2D2D2" font-family="Verdana" font-size="11.4583" lengthAdjust="spacing" textLength="23.7055" x="160.9375" y="183.5526">sin2</text></g><text fill="#D2D2D2" font-family="Verdana" font-size="11.4583" lengthAdjust="spacing" textLength="29.3452" x="156.1607" y="296.0526">exitA</text><ellipse cx="170.8333" cy="270.8333" fill="url(#gt47oijp7uboy0)" rx="6.25" ry="6.25" style="stroke:#007FAF;stroke-width:1.5625;"/><line style="stroke:#007FAF;stroke-width:1.5625;" x1="175.4053" x2="167.303" y1="275.4053" y2="267.303"/><line style="stroke:#007FAF;stroke-width:1.5625;" x1="175.4053" x2="167.303" y1="267.303" y2="275.4053"/><polygon fill="#009FDB" points="95.8333,159.3,100,149.925,95.8333,154.0917,91.6667,149.925,95.8333,159.3" style="stroke:#009FDB;stroke-width:1.0417;"/><path d="M95.8333,122.1324 C95.8333,131.8478 95.8333,139.8984 95.8333,153.05 " fill="none" style="stroke:#009FDB;stroke-width:3.125;"/><polygon fill="#009FDB" points="68.6971,193.2292,59.3221,189.0625,63.4888,193.2292,59.3221,197.3958,68.6971,193.2292" style="stroke:#009FDB;stroke-width:1.0417;"/><path d="M50.1302,193.2292 C56.3192,193.2292 56.2581,193.2292 62.4471,193.2292 " fill="none" style="stroke:#009FDB;stroke-width:3.125;"/><polygon fill="#009FDB" points="142.0673,193.2292,132.6923,189.0625,136.859,193.2292,132.6923,197.3958,142.0673,193.2292" style="stroke:#009FDB;stroke-width:1.0417;"/><path d="M122.9329,193.2292 C129.3111,193.2292 129.4392,193.2292 135.8173,193.2292 " fill="none" style="stroke:#009FDB;stroke-width:3.125;"/><polygon fill="#009FDB" points="172.9167,264.4127,177.0833,255.0377,172.9167,259.2044,168.75,255.0377,172.9167,264.4127" style="stroke:#009FDB;stroke-width:1.0417;"/><path d="M172.9167,227.5302 C172.9167,240.6182 172.9167,248.5371 172.9167,258.1627 " fill="none" style="stroke:#009FDB;stroke-width:3.125;"/><polygon fill="#009FDB" points="95.8333,96.5753,100,87.2003,95.8333,91.3669,91.6667,87.2003,95.8333,96.5753" style="stroke:#009FDB;stroke-width:1.0417;"/><path d="M95.8333,48.0063 C95.8333,61.3396 95.8333,76.9036 95.8333,90.3253 " fill="none" style="stroke:#009FDB;stroke-width:3.125;"/><polygon fill="#009FDB" points="172.9167,327.0084,177.0833,317.6334,172.9167,321.8,168.75,317.6334,172.9167,327.0084" style="stroke:#009FDB;stroke-width:1.0417;"/><path d="M172.9167,289.8408 C172.9167,299.5562 172.9167,307.6067 172.9167,320.7584 " fill="none" style="stroke:#009FDB;stroke-width:3.125;"/><polygon fill="#009FDB" points="44.1934,180.6651,50.5844,172.6397,45.5036,175.6242,42.5191,170.5434,44.1934,180.6651" style="stroke:#009FDB;stroke-width:1.0417;"/><path d="M231.9858,159.305 C225.0048,151.7547 216.6706,144.7684 207.2917,140.625 C179.1304,128.1839 95.0341,124.5942 68.75,140.625 C54.5432,149.2898 49.0436,162.0046 45.7656,174.6161 " fill="none" style="stroke:#009FDB;stroke-width:3.125;"/></g></svg>