<svg xmlns="http://www.w3.org/2000/svg" xmlns:xlink="http://www.w3.org/1999/xlink" contentStyleType="text/css" data-diagram-type="STATE" height="432.2917px" preserveAspectRatio="none" style="width:317px;height:432px;" version="1.1" viewBox="0 0 317 432" width="317.7083px" zoomAndPan="magnify"><defs><filter height="300%" id="ftkrzkjl1rszn" width="300%" x="-1" y="-1"><feGaussianBlur result="blurOut" stdDeviation="2.0833"/><feColorMatrix in="blurOut" result="blurOut2" type="matrix" values="0 0 0 0 0 0 0 0 0 0 0 0 0 0 0 0 0 0 .4 0"/><feOffset dx="4.1667" dy="4.1667" in="blurOut2" result="blurOut3"/><feBlend in="SourceGraphic" in2="blurOut3" mode="normal"/></filter><linearGradient id="gtkrzkjl1rszn0" x1="50%" x2="50%" y1="0%" y2="100%"><stop offset="0%" stop-color="#4DABF5"/><stop offset="100%" stop-color="#2196F3"/></linearGradient></defs><g><!--cluster Somp--><g id="cluster_Somp"><rect fill="#FFFFFF" fill-opacity="0.00000" filter="url(#ftkrzkjl1rszn)" height="176.0417" rx="4.1667" ry="4.1667" style="stroke:#1A78C2;stroke-width:1.0417;" width="181.25" x="39.5833" y="107.2917"/><path d="M43.75,107.2917 L216.6667,107.2917 A4.1667,4.1667 0 0 1 220.8333,111.4583 L220.8333,146.6715 L39.5833,146.6715 L39.5833,111.4583 A4.1667,4.1667 0 0 1 43.75,107.2917 " fill="url(#gtkrzkjl1rszn0)" style="stroke:url(#gtkrzkjl1rszn0);stroke-width:1.0417;"/><rect fill="#FFFFFF" fill-opacity="0.00000" height="176.0417" rx="4.1667" ry="4.1667" style="stroke:#1A78C2;stroke-width:1.0417;" width="181.25" x="39.5833" y="107.2917"/><line style="stroke:#1A78C2;stroke-width:1.0417;" x1="39.5833" x2="220.8333" y1="146.6715" y2="146.6715"/><text fill="#222222" font-family="Verdana" font-size="11.4583" lengthAdjust="spacing" textLength="32.7189" x="113.8489" y="133.5526">Somp</text></g><ellipse cx="97.9167" cy="33.3333" fill="#9C27B0" filter="url(#ftkrzkjl1rszn)" rx="10.4167" ry="10.4167" style="stroke:#1A78C2;stroke-width:1.0417;"/><g id="Foo"><rect fill="url(#gtkrzkjl1rszn0)" filter="url(#ftkrzkjl1rszn)" height="75.8382" rx="4.1667" ry="4.1667" style="stroke:#1A78C2;stroke-width:1.0417;" width="62.2782" x="147.9167" y="339.5833"/><line style="stroke:#1A78C2;stroke-width:1.0417;" x1="147.9167" x2="210.1949" y1="384.1715" y2="384.1715"/><text fill="#222222" font-family="Verdana" font-size="11.4583" lengthAdjust="spacing" textLength="20.6116" x="168.75" y="365.8442">Foo</text></g><g id="Foo1"><rect fill="url(#gtkrzkjl1rszn0)" filter="url(#ftkrzkjl1rszn)" height="75.8382" rx="4.1667" ry="4.1667" style="stroke:#1A78C2;stroke-width:1.0417;" width="69.5684" x="230.7292" y="163.5417"/><line style="stroke:#1A78C2;stroke-width:1.0417;" x1="230.7292" x2="300.2975" y1="208.1299" y2="208.1299"/><text fill="#222222" font-family="Verdana" font-size="11.4583" lengthAdjust="spacing" textLength="27.9017" x="251.5625" y="189.8026">Foo1</text></g><text fill="#222222" font-family="Verdana" font-size="11.4583" lengthAdjust="spacing" textLength="37.5865" x="77.0401" y="75.4227">entry1</text><ellipse cx="95.8333" cy="107.2917" fill="url(#gtkrzkjl1rszn0)" rx="6.25" ry="6.25" style="stroke:#1A78C2;stroke-width:1.5625;"/><text fill="#222222" font-family="Verdana" font-size="11.4583" lengthAdjust="spacing" textLength="37.5865" x="20.7901" y="163.4435">entry2</text><ellipse cx="39.5833" cy="195.3125" fill="url(#gtkrzkjl1rszn0)" rx="6.25" ry="6.25" style="stroke:#1A78C2;stroke-width:1.5625;"/><g id="Somp.sin"><rect fill="url(#gtkrzkjl1rszn0)" filter="url(#ftkrzkjl1rszn)" height="75.8382" rx="4.1667" ry="4.1667" style="stroke:#1A78C2;stroke-width:1.0417;" width="58.0821" x="68.75" y="163.5417"/><line style="stroke:#1A78C2;stroke-width:1.0417;" x1="68.75" x2="126.8321" y1="208.1299" y2="208.1299"/><text fill="#222222" font-family="Verdana" font-size="11.4583" lengthAdjust="spacing" textLength="16.4154" x="89.5833" y="189.8026">sin</text></g><g id="Somp.sin2"><rect fill="url(#gtkrzkjl1rszn0)" filter="url(#ftkrzkjl1rszn)" height="75.8382" rx="4.1667" ry="4.1667" style="stroke:#1A78C2;stroke-width:1.0417;" width="65.3722" x="146.3542" y="163.5417"/><line style="stroke:#1A78C2;stroke-width:1.0417;" x1="146.3542" x2="211.7264" y1="208.1299" y2="208.1299"/><text fill="#222222" font-family="Verdana" font-size="11.4583" lengthAdjust="spacing" textLength="23.7055" x="167.1875" y="189.8026">sin2</text></g><text fill="#222222" font-family="Verdana" font-size="11.4583" lengthAdjust="spacing" textLength="29.3452" x="162.4107" y="310.6359">exitA</text><ellipse cx="177.0833" cy="283.3333" fill="url(#gtkrzkjl1rszn0)" rx="6.25" ry="6.25" style="stroke:#1A78C2;stroke-width:1.5625;"/><line style="stroke:#1A78C2;stroke-width:1.5625;" x1="181.6553" x2="173.553" y1="287.9053" y2="279.803"/><line style="stroke:#1A78C2;stroke-width:1.5625;" x1="181.6553" x2="173.553" y1="279.803" y2="287.9053"/><polygon fill="#2196F3" points="97.9167,163.4774,102.0833,154.1024,97.9167,158.2691,93.75,154.1024,97.9167,163.4774" style="stroke:#2196F3;stroke-width:1.0417;"/><path d="M97.9167,126.1732 C97.9167,135.7944 97.9167,143.7805 97.9167,157.2274 " fill="#FFFFFF" fill-opacity="0.00000" style="stroke:#2196F3;stroke-width:3.125;"/><polygon fill="#2196F3" points="68.7274,201.5625,59.3524,197.3958,63.519,201.5625,59.3524,205.7292,68.7274,201.5625" style="stroke:#2196F3;stroke-width:1.0417;"/><path d="M50.0163,201.5625 C56.2533,201.5625 56.2403,201.5625 62.4774,201.5625 " fill="#FFFFFF" fill-opacity="0.00000" style="stroke:#2196F3;stroke-width:3.125;"/><polygon fill="#2196F3" points="146.2283,201.5625,136.8533,197.3958,141.0199,201.5625,136.8533,205.7292,146.2283,201.5625" style="stroke:#2196F3;stroke-width:1.0417;"/><path d="M127.1159,201.5625 C133.4867,201.5625 133.6075,201.5625 139.9783,201.5625 " fill="#FFFFFF" fill-opacity="0.00000" style="stroke:#2196F3;stroke-width:3.125;"/><polygon fill="#2196F3" points="179.1667,277.0799,183.3333,267.7049,179.1667,271.8715,175,267.7049,179.1667,277.0799" style="stroke:#2196F3;stroke-width:1.0417;"/><path d="M179.1667,240.0476 C179.1667,253.4361 179.1667,261.3022 179.1667,270.8299 " fill="#FFFFFF" fill-opacity="0.00000" style="stroke:#2196F3;stroke-width:3.125;"/><polygon fill="#2196F3" points="97.9167,100.8422,102.0833,91.4672,97.9167,95.6339,93.75,91.4672,97.9167,100.8422" style="stroke:#2196F3;stroke-width:1.0417;"/><path d="M97.9167,48.0074 C97.9167,62.2998 97.9167,80.2498 97.9167,94.5922 " fill="#FFFFFF" fill-opacity="0.00000" style="stroke:#2196F3;stroke-width:3.125;"/><polygon fill="#2196F3" points="179.1667,339.5191,183.3333,330.1441,179.1667,334.3107,175,330.1441,179.1667,339.5191" style="stroke:#2196F3;stroke-width:1.0417;"/><path d="M179.1667,302.2149 C179.1667,311.8361 179.1667,319.8222 179.1667,333.2691 " fill="#FFFFFF" fill-opacity="0.00000" style="stroke:#2196F3;stroke-width:3.125;"/><polygon fill="#2196F3" points="43.6376,188.9798,49.6554,180.6709,44.7162,183.8844,41.5027,178.9452,43.6376,188.9798" style="stroke:#2196F3;stroke-width:1.0417;"/><path d="M240.2618,163.5086 C233.2491,155.9276 224.9606,149.0097 215.625,144.7917 C185.8812,131.3529 96.5143,127.6324 68.75,144.7917 C53.3298,154.3219 47.8142,169.2486 44.9319,182.8653 " fill="#FFFFFF" fill-opacity="0.00000" style="stroke:#2196F3;stroke-width:3.125;"/></g></svg>