<svg xmlns="http://www.w3.org/2000/svg" xmlns:xlink="http://www.w3.org/1999/xlink" contentStyleType="text/css" height="643.75px" preserveAspectRatio="none" style="width:387px;height:643px;" version="1.1" viewBox="0 0 387 643" width="387.5px" zoomAndPan="magnify"><defs/><g><g id="elem_choice1"><polygon fill="none" points="258.3333,128.125,258.3849,128.1766,260.7316,130.5233,263.3808,133.1725,265.9315,135.7231,268.1582,137.9498,270.8333,140.625,270.8143,140.6059,268.2286,143.0203,265.7392,145.5308,263.3166,148.1083,260.6636,150.4553,258.3333,153.125,258.4693,153.2609,255.6786,150.4703,253.2848,148.0764,250.9394,145.7311,248.3123,143.1039,245.8333,140.625,245.8501,140.6418,248.3255,138.1172,250.8772,135.6688,253.392,133.1837,255.9771,130.7688,258.3333,128.125" style="stroke:#4D4D4D;stroke-width:1.0416666666666667;"/></g><polygon fill="#28A745" points="113.5417,233.3333,113.5417,233.5523,123.9583,232.9017,134.375,233.5347,144.7917,233.7497,155.2083,232.5902,165.625,233.2524,176.0417,232.8891,186.4583,232.9339,196.875,233.3333,196.8513,233.3333,196.6349,235,197.0672,236.6667,196.6562,238.3333,196.8063,240,196.875,241.6667,196.875,242.1166,186.4583,241.5773,176.0417,241.7377,165.625,241.6334,155.2083,241.8526,144.7917,241.9158,134.375,242.2768,123.9583,242.3657,113.5417,241.6667,113.7775,241.6667,113.6301,240,113.7026,238.3333,113.7855,236.6667,113.2913,235,113.5417,233.3333" style="stroke:none;stroke-width:1.0416666666666667;"/><polygon fill="#28A745" points="121.875,489.0625,121.875,489.2814,132.2917,488.6309,142.7083,489.2638,153.125,489.4788,163.5417,488.3194,173.9583,488.9815,184.375,488.6182,194.7917,488.663,205.2083,489.0625,205.1847,489.0625,204.9683,490.7292,205.4006,492.3958,204.9895,494.0625,205.1397,495.7292,205.2083,497.3958,205.2083,497.8458,194.7917,497.3065,184.375,497.4669,173.9583,497.3626,163.5417,497.5818,153.125,497.6449,142.7083,498.0059,132.2917,498.0948,121.875,497.3958,122.1109,497.3958,121.9634,495.7292,122.036,494.0625,122.1188,492.3958,121.6246,490.7292,121.875,489.0625" style="stroke:none;stroke-width:1.0416666666666667;"/><polygon fill="none" points="310.48,247.5788,308.8004,249.8737,306.8138,253.2351,303.9725,255.5004,300.9869,256.7392,298.6063,256.8467,295.5466,255.2974,292.6595,254.2853,290.4683,252.2304,289.3188,249.8779,288.6372,248.0047,287.9693,245.558,286.8854,243.4526,287.7184,241.3969,288.4481,239.145,291.1868,237.364,293.1135,235.0532,295.4983,234.2859,298.3335,233.6251,301.9692,234.0177,303.9605,234.9568,306.2757,235.3825,309.0908,238.2666,310.0721,241.3114,310.4985,243.3889,310.0156,246.8124" style="stroke:#17A2B8;stroke-width:1.0416666666666667;"/><polygon fill="none" points="305.2429,246.3119,304.3267,247.5637,303.2431,249.3972,301.6933,250.6328,300.0648,251.3085,298.7663,251.3671,297.0974,250.5221,295.5226,249.97,294.3274,248.8492,293.7004,247.566,293.3286,246.5442,292.9643,245.2097,292.3731,244.0613,292.8274,242.94,293.2255,241.7117,294.7193,240.7402,295.7702,239.4798,297.0711,239.0612,298.6175,238.7008,300.6006,238.9149,301.6868,239.4272,302.9496,239.6594,304.4851,241.2326,305.0204,242.8933,305.253,244.0265,304.9896,245.8939" style="stroke:#17A2B8;stroke-width:1.0416666666666667;"/><polygon fill="#17A2B8" points="268.8075,35.8671,267.2806,37.9534,265.4746,41.0092,262.8917,43.0686,260.1774,44.1947,258.0133,44.2924,255.2317,42.884,252.6072,41.9639,250.6151,40.0958,249.5701,37.9572,248.9504,36.2543,248.3433,34.03,247.3579,32.116,248.1152,30.2472,248.7786,28.2,251.2683,26.5809,253.0199,24.4802,255.1879,23.7826,257.7653,23.1819,261.0705,23.5388,262.8808,24.3925,264.9855,24.7795,267.5447,27.4015,268.4368,30.1695,268.8244,32.0581,268.3854,35.1703" style="stroke:#2E2E2E;stroke-width:1.0416666666666667;"/><g id="State1"><polygon fill="none" points="20.8333,473.9583,20.8333,474.1773,30.9228,473.5267,41.0122,474.1597,51.1017,474.3747,61.1911,473.2152,71.2806,473.8774,81.37,473.9583,81.3134,473.8215,81.9083,474.0794,82.5395,474.4246,83.0459,474.4688,83.8006,475.1122,84.3163,475.1787,84.1141,475.095,84.4969,475.7417,84.943,476.4146,85.021,476.9351,85.3145,477.5448,85.5367,478.125,85.5256,478.125,85.5987,487.4593,85.6197,496.7936,85.7401,506.1279,85.7697,515.4622,85.5367,524.7965,85.7546,524.8868,85.3743,525.4196,85.1973,526.0367,85.0297,526.6576,84.329,527.0577,84.3163,527.7428,84.4065,527.9605,83.6877,527.8918,83.2087,528.4022,82.4828,528.3163,81.9502,528.6972,81.37,528.9632,81.37,529.7357,71.2806,528.9125,61.1911,529.0729,51.1017,529.316,41.0122,529.3968,30.9228,528.9591,20.8333,528.9632,20.8715,529.0554,20.168,528.5355,19.6926,528.5663,19.1384,528.4068,18.5354,528.1295,17.8871,527.7428,18.0837,527.8243,17.488,527.0894,17.1897,526.4777,16.9555,525.8925,16.8919,525.378,16.6667,524.7965,16.5984,524.7965,16.9033,515.4622,16.606,506.1279,16.5476,496.7936,16.7459,487.4593,16.6667,478.125,16.4528,478.0364,16.7442,477.4668,17.363,477.0327,17.5387,476.4151,17.8786,475.8656,17.8871,475.1787,17.8443,475.0755,18.5187,475.037,19.144,474.88,19.5921,474.2949,20.2313,474.1717,20.8333,473.9583" style="stroke:#333333;stroke-width:1.0416666666666667;"/><path d="M16.6667,508.1299 L16.6667,508.4218 L26.5052,507.5544 L36.3438,508.3983 L46.1824,508.685 L56.021,507.1391 L65.8595,508.0219 L75.6981,507.5375 L85.5367,508.1299 " fill="none" style="stroke:#333333;stroke-width:1.0416666666666667;"/><text fill="#FFFFFF" font-family="Segoe Print" font-size="11.4583" lengthAdjust="spacing" textLength="37.62" x="32.2917" y="495.0109">State1</text></g><g id="State2"><polygon fill="none" points="135.4167,338.5417,135.4167,338.7606,145.5061,338.1101,155.5956,338.743,165.685,338.958,175.7745,337.7985,185.8639,338.4607,195.9534,338.5417,195.8967,338.4049,196.4917,338.6627,197.1228,339.008,197.6293,339.0521,198.384,339.6956,198.8996,339.7621,198.6975,339.6783,199.0803,340.325,199.5264,340.998,199.6044,341.5184,199.8978,342.1281,200.12,342.7083,200.1089,342.7083,200.182,352.0426,200.2031,361.377,200.3234,370.7113,200.353,380.0456,200.12,389.3799,200.3379,389.4701,199.9576,390.003,199.7806,390.62,199.6131,391.241,198.9124,391.6411,198.8996,392.3262,198.9898,392.5438,198.271,392.4751,197.7921,392.9856,197.0661,392.8996,196.5335,393.2805,195.9534,393.5465,195.9534,394.3191,185.8639,393.4958,175.7745,393.6562,165.685,393.8993,155.5956,393.9801,145.5061,393.5425,135.4167,393.5465,135.4548,393.6387,134.7514,393.1188,134.2759,393.1496,133.7217,392.9902,133.1187,392.7128,132.4704,392.3262,132.667,392.4076,132.0713,391.6727,131.773,391.061,131.5388,390.4758,131.4752,389.9613,131.25,389.3799,131.1818,389.3799,131.4866,380.0456,131.1893,370.7113,131.1309,361.377,131.3293,352.0426,131.25,342.7083,131.0361,342.6197,131.3275,342.0501,131.9463,341.6161,132.122,340.9985,132.4619,340.4489,132.4704,339.7621,132.4276,339.6588,133.1021,339.6204,133.7274,339.4633,134.1754,338.8783,134.8147,338.755,135.4167,338.5417" style="stroke:#333333;stroke-width:1.0416666666666667;"/><path d="M131.25,372.7132 L131.25,373.0051 L141.0886,372.1378 L150.9272,372.9817 L160.7657,373.2683 L170.6043,371.7224 L180.4429,372.6053 L190.2815,372.1209 L200.12,372.7132 " fill="none" style="stroke:#333333;stroke-width:1.0416666666666667;"/><text fill="#FFFFFF" font-family="Segoe Print" font-size="11.4583" lengthAdjust="spacing" textLength="37.62" x="146.875" y="359.5942">State2</text></g><polygon fill="none" points="117.7716,623.6205,116.092,625.9154,114.1054,629.2768,111.2642,631.5421,108.2785,632.7808,105.8979,632.8884,102.8382,631.3391,99.9512,630.327,97.7599,628.2721,96.6105,625.9196,95.9288,624.0464,95.261,621.5997,94.1771,619.4942,95.01,617.4385,95.7398,615.1867,98.4784,613.4057,100.4052,611.0949,102.79,610.3275,105.6251,609.6667,109.2608,610.0593,111.2522,610.9985,113.5674,611.4242,116.3825,614.3083,117.3638,617.3531,117.7902,619.4306,117.3072,622.854" style="stroke:#17A2B8;stroke-width:1.0416666666666667;"/><polygon fill="none" points="112.5345,622.3536,111.6184,623.6054,110.5348,625.4388,108.985,626.6745,107.3565,627.3502,106.058,627.4088,104.389,626.5638,102.8143,626.0117,101.6191,624.8908,100.9921,623.6076,100.6203,622.5859,100.256,621.2513,99.6648,620.1029,100.1191,618.9816,100.5172,617.7533,102.011,616.7819,103.0619,615.5215,104.3627,615.1029,105.9092,614.7425,107.8923,614.9566,108.9785,615.4689,110.2413,615.7011,111.7768,617.2742,112.3121,618.935,112.5446,620.0682,112.2812,621.9355" style="stroke:#17A2B8;stroke-width:1.0416666666666667;"/><polygon fill="#333333" points="258.3333,127.8915,258.4,127.9212,259.0352,125.9581,260.0613,124.1688,260.9601,122.3229,261.4403,120.2909,262.5,118.5165,262.4809,118.4975,261.562,119.2452,260.7392,120.0891,259.9833,120.9998,258.9969,121.6801,258.3333,122.6832,258.4693,122.8191,257.3453,121.6951,256.6181,120.968,255.9394,120.2893,254.9789,119.3288,254.1667,118.5165,254.1883,118.5262,254.9899,120.387,255.89,122.2917,256.7425,124.1753,257.6858,126.0991,258.3333,127.8915" style="stroke:#333333;stroke-width:1.0416666666666667;"/><path d="M258.3333,48.2881 L258.6253,48.2881 L257.7579,58.7671 L258.6018,69.2462 L258.8884,79.7253 L257.3425,90.2043 L258.2254,100.6834 L257.741,111.1625 L258.3333,121.6415 " fill="none" style="stroke:#333333;stroke-width:3.125;"/><text fill="#2E2E2E" font-family="Segoe Print" font-size="12.5" lengthAdjust="spacing" textLength="62.4512" x="265.625" y="85.5611">from start</text><text fill="#2E2E2E" font-family="Segoe Print" font-size="12.5" lengthAdjust="spacing" textLength="57.0007" x="268.3502" y="100.1119">to choice</text><polygon fill="#333333" points="151.5061,233.0819,151.5781,233.0934,151.6873,231.033,152.2189,229.04,152.613,227.0251,152.5546,224.938,153.1225,222.9508,153.0991,222.9373,152.4033,223.8961,151.8251,224.9231,151.3288,225.9976,150.5505,226.9087,150.1671,228.0486,150.2635,228.2149,149.0377,227.2682,148.0935,226.8071,147.1836,226.4051,146.0739,225.6585,145.0693,225.0932,145.0877,225.1081,146.348,226.684,147.6923,228.3276,148.996,229.9385,150.3771,231.6118,151.5061,233.0819" style="stroke:#333333;stroke-width:1.0416666666666667;"/><path d="M245.7067,141.0749 L245.7104,141.1722 L241.6204,141.036 L237.5517,141.4699 L233.4761,141.7181 L229.3776,141.3559 L225.3108,141.8387 L225.3064,141.803 L222.8651,141.9397 L220.4458,142.2564 L218.0419,142.6983 L215.5852,142.7088 L213.2025,143.3235 L213.2533,143.5747 L210.6195,143.5488 L208.1341,144.2564 L205.6669,145.0535 L203.0942,145.3299 L200.577,145.8802 L200.5863,145.9103 L198.0576,146.6422 L195.5713,147.5115 L193.0645,148.3146 L190.5968,149.2441 L188.0017,149.7612 L188.1307,150.0438 L185.7408,151.1388 L183.2676,152.0515 L180.9162,153.2311 L178.5705,154.4232 L176.0439,155.219 L175.8569,154.9424 L174.0653,156.9366 L171.6578,158.0202 L169.7186,159.796 L167.2971,160.8589 L165.2709,162.5061 L165.2481,162.4841 L163.7141,164.618 L161.6463,166.238 L159.8935,168.1613 L158.1671,170.11 L156.25,171.875 L156.4208,171.9641 L154.7971,174.6563 L153.4652,177.5008 L151.661,180.0989 L150.5614,183.0645 L148.9933,185.7858 L149.2433,185.8294 L148.6905,188.7141 L148.2618,191.6204 L147.2565,194.426 L146.6738,197.3055 L146.4658,200.2504 L146.1785,200.2345 L146.5939,203.0626 L146.6857,205.8728 L147.2469,208.7089 L147.0066,211.5008 L147.2427,214.319 L147.0872,214.2866 L147.8775,216.8852 L148.0031,219.3451 L148.6014,221.9037 L149.6621,224.5588 L149.8993,227.042 " fill="none" style="stroke:#333333;stroke-width:3.125;"/><text fill="#2E2E2E" font-family="Segoe Print" font-size="12.5" lengthAdjust="spacing" textLength="73.8159" x="163.5417" y="190.7694">from choice</text><text fill="#2E2E2E" font-family="Segoe Print" font-size="12.5" lengthAdjust="spacing" textLength="40.9485" x="179.9754" y="205.3202">to fork</text><polygon fill="#333333" points="200.1308,489.0475,200.1314,489.1204,202.1816,488.9186,204.2349,489.1445,206.2872,489.2311,208.3362,488.8596,210.3898,489.1223,210.3799,489.0972,209.2388,488.5534,208.1474,488.1362,207.0906,487.807,205.9146,487.1746,204.9056,486.9669,205.0845,487.0372,205.133,485.79,205.7038,484.7481,206.3384,483.7313,206.6021,482.5687,207.0609,481.4827,207.0784,481.4987,205.6667,482.9882,204.3346,484.5505,202.9641,486.0777,201.6668,487.6719,200.1308,489.0475" style="stroke:#333333;stroke-width:1.0416666666666667;"/><path d="M259.2559,153.3738 L259.353,153.3804 L259.4088,158.4344 L260.0337,163.5269 L260.4733,168.6069 L260.3035,173.6456 L260.9773,178.7414 L260.9414,178.7394 L260.9752,182.0967 L261.1901,185.4644 L261.5308,188.8395 L261.4378,192.1895 L261.9524,195.5746 L262.2084,195.5874 L261.8504,199.3641 L262.2399,203.1781 L262.7206,206.9966 L262.6707,210.7886 L262.8998,214.5946 L262.9314,214.5959 L263.0534,218.7484 L263.3192,222.9068 L263.5156,227.0624 L263.8443,231.2233 L263.7417,235.3668 L264.0522,235.376 L264.1877,239.7941 L264.1229,244.2062 L264.3513,248.627 L264.5934,253.0482 L264.4001,257.4565 L264.0663,257.4507 L264.7936,262.0565 L264.4217,266.6432 L264.8854,271.2444 L264.4886,275.8307 L264.7971,280.4292 L264.7654,280.4292 L265.152,285.1143 L264.7977,289.7976 L264.8805,294.482 L265.0001,299.1665 L264.8548,303.8503 L265.0475,303.8533 L264.7811,308.5373 L264.844,313.2263 L264.3741,317.9072 L264.6988,322.6003 L264.4953,327.2852 L264.7489,327.2946 L264.53,331.8957 L264.437,336.5014 L263.759,341.0853 L263.5098,345.6852 L263.6406,350.2993 L263.3533,350.2829 L263.4859,352.5404 L263.2948,354.7795 L263.5731,357.0452 L263.0499,359.2654 L263.0032,361.5127 L262.8448,361.5012 L262.9505,363.7093 L262.3791,365.8685 L262.2892,368.0625 L262.6705,370.2905 L262.2127,372.4579 L262.4136,372.4759 L262.3608,374.6128 L261.6831,376.6936 L261.788,378.8447 L261.7225,380.9805 L261.2596,383.0806 L261.0422,383.0567 L260.9903,385.1249 L260.8673,387.1853 L260.8841,389.261 L260.3571,391.2771 L260.1339,393.3264 L260.3458,393.3575 L259.3187,397.118 L258.7006,400.9385 L258.6799,404.8466 L257.5593,408.5934 L257.3262,412.4704 L257.5566,412.5194 L256.6968,415.8872 L255.759,419.2384 L254.9972,422.6271 L254.6422,426.1023 L253.7115,429.4551 L253.5793,429.4137 L253.0732,432.415 L251.6675,435.1351 L251.2847,438.1749 L250.326,441.0347 L249.2121,443.8459 L249.3143,443.8951 L248.1394,446.1279 L247.3305,448.5366 L246.1909,450.7864 L244.913,452.9698 L243.75,455.2083 L243.8502,455.2817 L242.1461,457.2982 L240.9073,459.6551 L239.1422,461.6271 L237.5936,463.7574 L235.9739,465.8356 L235.7794,465.632 L234.0916,467.3741 L232.6381,469.3616 L230.8531,471.0019 L228.9491,472.5178 L227.2101,474.2063 L227.1268,474.0825 L225.1603,475.4636 L223.0462,476.6256 L221.3375,478.3899 L219.4283,479.8561 L217.2438,480.9135 L217.352,481.1319 L215.1099,482.3293 L212.6624,483.1117 L210.4318,484.3321 L208.0575,485.2626 L205.8605,486.5508 " fill="none" style="stroke:#333333;stroke-width:3.125;"/><text fill="#2E2E2E" font-family="Segoe Print" font-size="12.5" lengthAdjust="spacing" textLength="73.8159" x="271.875" y="295.9778">from choice</text><text fill="#2E2E2E" font-family="Segoe Print" font-size="12.5" lengthAdjust="spacing" textLength="39.0381" x="289.2639" y="310.5286">to join</text><polygon fill="#333333" points="295.2702,233.2806,295.3428,233.288,295.3364,231.2248,295.7555,229.2051,296.036,227.1713,295.8608,225.0907,296.3165,223.0748,296.2924,223.0626,295.6514,224.0589,295.1316,225.1168,294.6963,226.2174,293.9703,227.1706,293.6513,228.3302,293.7383,228.5017,292.5013,227.602,291.5181,227.2029,290.5659,226.8649,289.4335,226.1716,288.3959,225.6651,288.4135,225.681,289.7626,227.1808,291.1917,228.7528,292.5821,230.29,294.0463,231.8938,295.2702,233.2806" style="stroke:#333333;stroke-width:1.0416666666666667;"/><path d="M264.3072,153.2975 L264.3955,153.3384 L265.8551,156.9324 L267.8322,160.7661 L269.6408,164.5218 L270.8951,168.0206 L272.9167,171.875 L272.8833,171.8616 L273.9912,174.9265 L275.2674,178.0591 L276.6606,181.2388 L277.6506,184.2563 L279.2053,187.501 L279.4454,187.5908 L280.0294,190.3327 L281.3143,193.3367 L282.6847,196.3728 L283.5576,199.2227 L284.6922,202.1705 L284.722,202.181 L285.6186,204.8432 L286.6509,207.5531 L287.6178,210.2401 L288.7095,212.9708 L289.3941,215.5586 L289.6888,215.657 L290.479,218.0145 L291.0793,220.3086 L291.9577,222.6955 L292.8492,225.0868 L293.3275,227.3402 " fill="none" style="stroke:#333333;stroke-width:3.125;"/><text fill="#2E2E2E" font-family="Segoe Print" font-size="12.5" lengthAdjust="spacing" textLength="73.8159" x="294.7917" y="190.7694">from choice</text><text fill="#2E2E2E" font-family="Segoe Print" font-size="12.5" lengthAdjust="spacing" textLength="40.0696" x="311.6648" y="205.3202">to end</text><polygon fill="#333333" points="44.308,473.867,44.3794,473.8823,44.5982,471.8307,45.2353,469.8689,45.7362,467.8778,45.7892,465.7905,46.4622,463.8365,46.4396,463.8217,45.6936,464.7421,45.0615,465.7368,44.5086,466.7833,43.6828,467.6516,43.2392,468.7695,43.3444,468.9304,42.1329,467.9417,41.2284,467.4228,40.3614,466.9613,39.2765,466.1662,38.3062,465.5465,38.3254,465.5604,39.4976,467.2041,40.7572,468.911,41.9746,470.5874,43.2726,472.3219,44.308,473.867" style="stroke:#333333;stroke-width:1.0416666666666667;"/><path d="M132.8897,258.5284 L132.9399,258.6117 L130.7524,259.5922 L128.8593,261.0612 L126.8704,262.3711 L124.5661,263.1578 L122.6983,264.6688 L122.6785,264.6388 L120.3618,265.9715 L118.145,267.4557 L115.9974,269.0452 L113.6109,270.2719 L111.5591,272.0068 L111.7102,272.2139 L109.0597,273.4687 L106.8503,275.3281 L104.6946,277.2613 L102.2259,278.7654 L99.9219,280.4951 L99.9419,280.5195 L97.5753,282.402 L95.3,284.3956 L92.9806,286.3356 L90.7452,288.3779 L88.2361,290.0866 L88.4493,290.3126 L86.1949,292.4449 L83.8031,294.4314 L81.6125,296.6313 L79.4314,298.8412 L76.9514,300.7342 L76.7026,300.5115 L75.0986,303.275 L72.6755,305.3052 L70.8751,307.8929 L68.4334,309.9065 L66.5174,312.3907 L66.4917,312.3721 L64.9688,315.1156 L62.8456,317.4247 L61.0767,319.9902 L59.3374,322.5772 L57.3837,325.0089 L57.5529,325.1012 L55.9054,327.7146 L54.547,330.4857 L52.7209,333.0016 L51.5923,335.8982 L50,338.5417 L50.2375,338.6311 L48.925,341.9794 L47.7304,345.372 L45.9879,348.5583 L44.647,351.8959 L43.662,355.3675 L43.3824,355.2997 L42.7984,358.8114 L41.8993,362.2468 L41.4572,365.793 L40.2349,369.1499 L39.4763,372.6193 L39.3189,372.5982 L39.1153,376.107 L38.2389,379.5256 L37.8409,383.0083 L37.9112,386.5539 L37.1477,389.9876 L37.3492,389.9966 L37.334,393.4379 L36.6921,396.8512 L36.8352,400.2995 L36.8073,403.7402 L36.3808,407.1631 L36.1622,407.1566 L36.4364,410.4965 L36.639,413.8342 L36.9822,417.1762 L36.7786,420.5018 L36.8805,423.8365 L37.0937,423.8563 L36.9193,426.9852 L37.1566,430.1523 L37.9951,433.3751 L37.7266,436.4953 L38.3513,439.6983 L38.5845,439.7323 L38.8753,442.6603 L39.0873,445.5768 L39.4773,448.5193 L40.2789,451.5217 L40.498,454.4393 L40.3619,454.4134 L41.2727,457.1525 L41.2576,459.7158 L42.2953,462.479 L42.7403,465.1297 L43.0255,467.75 " fill="none" style="stroke:#333333;stroke-width:3.125;"/><text fill="#2E2E2E" font-family="Segoe Print" font-size="12.5" lengthAdjust="spacing" textLength="57.7637" x="57.2917" y="363.6861">from fork</text><text fill="#2E2E2E" font-family="Segoe Print" font-size="12.5" lengthAdjust="spacing" textLength="48.1873" x="62.0799" y="378.2369">to state</text><polygon fill="#333333" points="163.2686,338.3592,163.3377,338.3829,163.7981,336.3717,164.6632,334.4992,165.3966,332.5815,165.6965,330.5153,166.5964,328.6547,166.5757,328.6374,165.7259,329.4629,164.9804,330.3757,164.3073,331.3493,163.3845,332.1136,162.8115,333.171,162.935,333.3183,161.7677,332.2463,160.9609,331.6044,160.1981,331.015,159.1794,330.1203,158.2952,329.3861,158.316,329.3976,159.2802,331.1754,160.3388,333.0054,161.3519,334.8102,162.4518,336.6632,163.2686,338.3592" style="stroke:#333333;stroke-width:1.0416666666666667;"/><path d="M156.2452,258.6435 L156.536,258.6691 L156.597,269.0915 L158.3626,279.6642 L159.5731,290.1879 L158.9581,300.5507 L160.7626,311.1268 L161.205,321.5828 L162.7201,332.1334 " fill="none" style="stroke:#333333;stroke-width:3.125;"/><text fill="#2E2E2E" font-family="Segoe Print" font-size="12.5" lengthAdjust="spacing" textLength="57.7637" x="168.75" y="295.9778">from fork</text><text fill="#2E2E2E" font-family="Segoe Print" font-size="12.5" lengthAdjust="spacing" textLength="48.1873" x="173.5382" y="310.5286">to state</text><polygon fill="#333333" points="163.6384,488.845,163.7049,488.8753,164.3574,486.9179,165.3993,485.1377,166.3144,483.2999,166.8125,481.2722,167.8879,479.5073,167.869,479.488,166.9434,480.2276,166.1132,481.0641,165.3493,481.9682,164.357,482.6397,163.6845,483.6369,163.8217,483.7716,162.7025,482.6429,161.9837,481.9074,161.3137,481.22,160.3596,480.2533,159.5549,479.4335,159.5766,479.443,160.3614,481.3114,161.2452,483.2228,162.0812,485.1135,163.0083,487.0437,163.6384,488.845" style="stroke:#333333;stroke-width:1.0416666666666667;"/><path d="M164.9587,394.022 L165.0559,394.024 L164.6918,397.7137 L164.898,401.415 L164.9185,405.1126 L164.3282,408.7977 L164.5833,412.5 L164.5474,412.4995 L164.2724,420.2937 L164.1788,428.0906 L164.2113,435.8893 L163.8093,443.6817 L164.0159,451.4829 L164.2722,451.4856 L163.6597,457.7024 L163.7955,463.9269 L164.0226,470.1524 L163.7185,476.3724 L163.6937,482.5953 " fill="none" style="stroke:#333333;stroke-width:3.125;"/><text fill="#2E2E2E" font-family="Segoe Print" font-size="12.5" lengthAdjust="spacing" textLength="65.0024" x="171.875" y="431.3944">from state</text><text fill="#2E2E2E" font-family="Segoe Print" font-size="12.5" lengthAdjust="spacing" textLength="39.0381" x="184.8572" y="445.9452">to join</text><polygon fill="#333333" points="94.4116,617.2946,94.462,617.3475,92.8262,615.7758,91.4855,614.514,90.0486,613.1512,88.2959,611.4567,86.9805,610.2214,86.9561,610.2099,87.3518,611.2228,87.8703,612.294,88.4743,613.4057,88.7839,614.3778,89.5058,615.5454,89.5882,615.7191,88.3472,615.8528,87.3468,616.4935,86.3757,617.1962,85.2339,617.5388,84.1818,618.0708,84.1836,618.0944,86.227,617.9045,88.2784,617.8221,90.326,617.6879,92.3811,617.6526,94.4116,617.2946" style="stroke:#333333;stroke-width:1.0416666666666667;"/><path d="M46.419,529.541 L46.5161,529.5459 L46.077,532.4874 L46.2075,535.4579 L46.1525,538.4189 L45.4874,541.3489 L45.6668,544.3218 L45.6309,544.3198 L45.6465,547.4832 L45.8432,550.6567 L46.1658,553.8373 L46.0545,556.9936 L46.5509,560.1838 L46.8019,560.2358 L46.9203,563.2869 L47.7716,566.4898 L48.7122,569.7113 L49.1327,572.825 L49.8267,575.9954 L49.8557,576.0081 L51.0978,578.9153 L52.4717,581.8804 L53.7821,584.8176 L55.2136,587.8081 L56.25,590.625 L56.4976,590.8126 L57.891,592.6501 L59.1247,594.3666 L60.5922,596.2602 L62.0706,598.1621 L63.2018,599.8009 L62.9843,599.5477 L64.9879,601.3977 L66.2751,602.4137 L68.1069,604.0637 L69.3778,605.0609 L71.1085,606.5932 L71.0945,606.5647 L74.7438,608.6215 L78.065,610.0139 L81.5798,611.7983 L85.1109,613.6157 L88.5247,615.1956 " fill="none" style="stroke:#333333;stroke-width:3.125;"/><text fill="#2E2E2E" font-family="Segoe Print" font-size="12.5" lengthAdjust="spacing" textLength="65.0024" x="63.5417" y="566.8111">from state</text><text fill="#2E2E2E" font-family="Segoe Print" font-size="12.5" lengthAdjust="spacing" textLength="40.0696" x="76.0081" y="581.3619">to end</text><polygon fill="#333333" points="117.8186,611.2109,117.8419,611.2801,119.7167,610.4184,121.7282,609.962,123.6952,609.3737,125.5157,608.3513,127.539,607.9298,127.5379,607.9028,126.3553,607.7328,125.1785,607.6986,124.0055,607.759,122.819,607.4937,121.6515,607.6845,121.8436,607.6925,121.4819,606.4979,121.681,605.3267,121.9485,604.1583,121.818,602.9733,121.8968,601.7971,121.9185,601.8065,121.071,603.6754,120.3224,605.5872,119.5261,607.4784,118.8208,609.409,117.8186,611.2109" style="stroke:#333333;stroke-width:1.0416666666666667;"/><path d="M161.6041,514.1336 L161.6992,514.1539 L160.7397,517.2565 L160.3379,520.4784 L159.7545,523.6614 L158.5738,526.7166 L158.2199,529.9488 L158.1852,529.9393 L156.9621,533.8166 L155.914,537.7415 L154.9875,541.6996 L153.6418,545.5435 L152.8833,549.5473 L153.1266,549.628 L151.9116,551.5512 L151.4069,553.7098 L150.9889,555.8972 L150.0667,557.9174 L149.4096,560.0256 L149.4391,560.0369 L148.5859,562.1275 L147.867,564.2697 L147.0833,566.3871 L146.4231,568.5519 L145.3601,570.5619 L145.6432,570.6898 L144.7158,572.7511 L143.6057,574.7298 L142.763,576.8293 L141.9327,578.9345 L140.7056,580.8603 L140.412,580.7013 L139.924,582.9629 L138.4693,584.7008 L137.7495,586.8368 L136.2729,588.5629 L135.4167,590.625 L135.3903,590.6074 L134.5031,592.6203 L132.9987,594.223 L131.8586,596.0677 L130.749,597.9327 L129.4188,599.6512 L129.5581,599.7843 L128.0174,601.1156 L126.7147,602.6743 L125.0268,603.865 L123.9135,605.6046 L122.4181,606.9793 " fill="none" style="stroke:#333333;stroke-width:3.125;"/><text fill="#2E2E2E" font-family="Segoe Print" font-size="12.5" lengthAdjust="spacing" textLength="55.8533" x="160.4167" y="566.8111">from join</text><text fill="#2E2E2E" font-family="Segoe Print" font-size="12.5" lengthAdjust="spacing" textLength="40.0696" x="168.3085" y="581.3619">to end</text></g></svg>