<svg xmlns="http://www.w3.org/2000/svg" xmlns:xlink="http://www.w3.org/1999/xlink" contentStyleType="text/css" data-diagram-type="STATE" height="339px" preserveAspectRatio="none" style="width:258px;height:339px;background:#FFFFFF;" version="1.1" viewBox="0 0 258 339" width="258px" zoomAndPan="magnify"><defs/><g><!--cluster Somp--><g id="cluster_Somp"><path d="M45.5,83 L174.5,83 A12.5,12.5 0 0 1 187,95.5 L187,104.2969 L33,104.2969 L33,95.5 A12.5,12.5 0 0 1 45.5,83 " fill="#FFFFFF" style="stroke:#FFFFFF;stroke-width:1;"/><path d="M33,104.2969 L187,104.2969 L187,216.5 A12.5,12.5 0 0 1 174.5,229 L45.5,229 A12.5,12.5 0 0 1 33,216.5 L33,104.2969 " fill="#FFFFFF" style="stroke:#FFFFFF;stroke-width:1;"/><rect fill="#FFFFFF" fill-opacity="0.00000" height="146" rx="12.5" ry="12.5" style="stroke:#000000;stroke-width:1;" width="154" x="33" y="83"/><line style="stroke:#000000;stroke-width:1;" x1="33" x2="187" y1="104.2969" y2="104.2969"/><text fill="#000000" font-family="Verdana" font-size="14" lengthAdjust="spacing" textLength="39.9766" x="90.0117" y="100.9951">Somp</text></g><ellipse cx="86" cy="27" fill="#FFFFFF" rx="10" ry="10" style="stroke:#000000;stroke-width:1;"/><g id="Foo"><rect fill="#FFFFFF" height="50" rx="12.5" ry="12.5" style="stroke:#000000;stroke-width:1;" width="50" x="129" y="283"/><line style="stroke:#000000;stroke-width:1;" x1="129" x2="179" y1="309.2969" y2="309.2969"/><text fill="#000000" font-family="Verdana" font-size="14" lengthAdjust="spacing" textLength="25.1836" x="141.4082" y="300.9951">Foo</text></g><g id="Foo1"><rect fill="#FFFFFF" height="50" rx="12.5" ry="12.5" style="stroke:#000000;stroke-width:1;" width="54.0908" x="197" y="137"/><line style="stroke:#000000;stroke-width:1;" x1="197" x2="251.0908" y1="163.2969" y2="163.2969"/><text fill="#000000" font-family="Verdana" font-size="14" lengthAdjust="spacing" textLength="34.0908" x="207" y="154.9951">Foo1</text></g><text fill="#000000" font-family="Verdana" font-size="14" lengthAdjust="spacing" textLength="45.9238" x="61.0381" y="61.6982">entry1</text><ellipse cx="84" cy="83" fill="#FFFFFF" rx="6" ry="6" style="stroke:#000000;stroke-width:1.5;"/><text fill="#000000" font-family="Verdana" font-size="14" lengthAdjust="spacing" textLength="45.9238" x="10.0381" y="134.6982">entry2</text><ellipse cx="33" cy="156" fill="#FFFFFF" rx="6" ry="6" style="stroke:#000000;stroke-width:1.5;"/><g id="Somp.sin"><rect fill="#FFFFFF" height="50" rx="12.5" ry="12.5" style="stroke:#000000;stroke-width:1;" width="50" x="61" y="137"/><line style="stroke:#000000;stroke-width:1;" x1="61" x2="111" y1="163.2969" y2="163.2969"/><text fill="#000000" font-family="Verdana" font-size="14" lengthAdjust="spacing" textLength="20.0566" x="75.9717" y="154.9951">sin</text></g><g id="Somp.sin2"><rect fill="#FFFFFF" height="50" rx="12.5" ry="12.5" style="stroke:#000000;stroke-width:1;" width="50" x="129" y="137"/><line style="stroke:#000000;stroke-width:1;" x1="129" x2="179" y1="163.2969" y2="163.2969"/><text fill="#000000" font-family="Verdana" font-size="14" lengthAdjust="spacing" textLength="28.9639" x="139.5181" y="154.9951">sin2</text></g><text fill="#000000" font-family="Verdana" font-size="14" lengthAdjust="spacing" textLength="35.8545" x="134.0728" y="247.9951">exitA</text><ellipse cx="152" cy="229" fill="#FFFFFF" rx="6" ry="6" style="stroke:#000000;stroke-width:1.5;"/><line style="stroke:#000000;stroke-width:1.5;" x1="156.3891" x2="148.6109" y1="233.3891" y2="225.6109"/><line style="stroke:#000000;stroke-width:1.5;" x1="156.3891" x2="148.6109" y1="225.6109" y2="233.3891"/><polygon fill="#000000" points="86,136.7644,90,127.7644,86,131.7644,82,127.7644,86,136.7644" style="stroke:#000000;stroke-width:1;"/><path d="M86,101.0938 C86,110.6101 86,118.6616 86,130.7644 " fill="#FFFFFF" fill-opacity="0.00000" style="stroke:#000000;stroke-width:1;"/><polygon fill="#000000" points="60.6868,162,51.6868,158,55.6868,162,51.6868,166,60.6868,162" style="stroke:#000000;stroke-width:1;"/><path d="M43.3672,162 C49.1404,162 48.9136,162 54.6868,162 " fill="#FFFFFF" fill-opacity="0.00000" style="stroke:#000000;stroke-width:1;"/><polygon fill="#000000" points="128.942,162,119.942,158,123.942,162,119.942,166,128.942,162" style="stroke:#000000;stroke-width:1;"/><path d="M111.2344,162 C117.1369,162 117.0395,162 122.942,162 " fill="#FFFFFF" fill-opacity="0.00000" style="stroke:#000000;stroke-width:1;"/><polygon fill="#000000" points="154,222.7204,158,213.7204,154,217.7204,150,213.7204,154,222.7204" style="stroke:#000000;stroke-width:1;"/><path d="M154,187.0374 C154,199.1063 154,207.1553 154,216.7204 " fill="#FFFFFF" fill-opacity="0.00000" style="stroke:#000000;stroke-width:1;"/><polygon fill="#000000" points="86,76.8513,90,67.8513,86,71.8513,82,67.8513,86,76.8513" style="stroke:#000000;stroke-width:1;"/><path d="M86,41.183 C86,51.4535 86,60.5917 86,70.8513 " fill="#FFFFFF" fill-opacity="0.00000" style="stroke:#000000;stroke-width:1;"/><polygon fill="#000000" points="154,282.7644,158,273.7644,154,277.7644,150,273.7644,154,282.7644" style="stroke:#000000;stroke-width:1;"/><path d="M154,247.0938 C154,256.6101 154,264.6616 154,276.7644 " fill="#FFFFFF" fill-opacity="0.00000" style="stroke:#000000;stroke-width:1;"/><polygon fill="#000000" points="38.6679,149.701,45.5359,142.6419,40.3986,145.0101,38.0304,139.8728,38.6679,149.701" style="stroke:#000000;stroke-width:1;"/><path d="M205.6903,136.7088 C199.1045,129.6159 191.0404,122.8071 182,119 C132.4377,98.1282 107.8426,92.5836 61,119 C49.4498,125.5136 44.5263,133.8224 40.7447,144.0719 " fill="#FFFFFF" fill-opacity="0.00000" style="stroke:#000000;stroke-width:1;"/></g></svg>