<svg xmlns="http://www.w3.org/2000/svg" xmlns:xlink="http://www.w3.org/1999/xlink" contentStyleType="text/css" data-diagram-type="STATE" height="412.5px" preserveAspectRatio="none" style="width:403px;height:412px;" version="1.1" viewBox="0 0 403 412" width="403.125px" zoomAndPan="magnify"><defs/><g><rect fill="#FFFFCC" height="27.7507" rx="2.6042" ry="2.6042" style="stroke:#FFDD88;stroke-width:3.125;" width="391.9067" x="5.2083" y="5.2083"/><text fill="#000000" font-family="monospace" font-size="10.4167" lengthAdjust="spacing" textLength="370.0104" x="10.4167" y="20.8333">Please&#160;use&#160;'!option&#160;handwritten&#160;true'&#160;to&#160;enable&#160;handwritten</text><!--cluster Somp--><g id="cluster_Somp"><path d="M43.75,135.0423 L43.75,135.6262 L54.1667,133.8914 L64.5833,135.5792 L75,136.1525 L85.4167,133.0607 L95.8333,134.8264 L106.25,133.8576 L116.6667,133.977 L127.0833,134.853 L137.5,133.1218 L147.9167,136.5802 L158.3333,133.2915 L168.75,134.493 L179.1667,136.2422 L189.5833,134.804 L200,135.0423 L204.1667,139.209 L204.2299,139.209 L204.1371,144.1683 L204.332,149.1276 L204.3881,154.0869 L204.709,159.0462 L204.1667,164.0055 L204.1667,165.8696 L193.8802,165.8924 L183.5938,164.7128 L173.3073,165.2933 L163.0208,165.9562 L152.7344,162.0022 L142.4479,165.8903 L132.1615,163.1819 L121.875,165.4883 L111.5885,162.6305 L101.3021,163.8153 L91.0156,166.0655 L80.7292,163.8702 L70.4427,164.298 L60.1563,164.9462 L49.8698,165.1617 L39.5833,164.0055 L39.5797,164.0055 L39.8493,159.0462 L39.0533,154.0869 L39.8467,149.1276 L40.0909,144.1683 L39.5833,139.209 L43.75,135.0423 " fill="#474747" style="stroke:#474747;stroke-width:1.0417;"/><polygon fill="#FFFFFF" fill-opacity="0.00000" points="43.75,135.0423,43.75,135.2613,54.1667,134.6107,64.5833,135.2437,75,135.4587,85.4167,134.2992,95.8333,134.9614,106.25,134.5981,116.6667,134.6428,127.0833,134.9713,137.5,134.3221,147.9167,135.619,158.3333,134.3858,168.75,134.8363,179.1667,135.4923,189.5833,134.953,200,135.0423,200.0091,135.0642,200.585,135.2761,201.2022,135.5877,201.7995,135.8513,202.4348,136.2065,202.9463,136.2627,203.1615,136.3519,203.4083,136.9422,203.5161,137.4751,203.8272,138.0921,204.1479,138.713,204.1667,139.209,203.4154,139.209,204.8734,149.7001,203.8578,160.1911,204.7227,170.6822,203.651,181.1733,204.0953,191.6643,204.9392,202.1554,204.1159,212.6465,204.2764,223.1376,204.5194,233.6286,204.6002,244.1197,204.1626,254.6108,204.4658,265.1018,203.5704,275.5929,204.1667,286.084,204.2579,286.1218,204.0984,286.7461,203.8211,287.3216,203.6311,287.9332,203.0354,288.3768,202.9463,289.0303,202.8596,288.821,202.2745,289.075,201.7599,289.4995,201.1524,289.6995,200.6798,290.2252,200,290.2507,200,290.0687,189.5833,289.8933,179.1667,290.4884,168.75,289.556,158.3333,289.7099,147.9167,290.9266,137.5,290.7045,127.0833,291.0157,116.6667,289.9154,106.25,290.5831,95.8333,290.8657,85.4167,289.7586,75,290.1508,64.5833,290.3819,54.1667,290.9296,43.75,290.2507,43.7494,290.2493,43.2222,290.155,42.4979,289.5848,41.8922,289.3012,41.4599,289.4359,40.8037,289.0303,40.5737,288.935,40.7229,288.5086,40.3819,287.8792,39.9855,287.2269,39.7139,286.6262,39.5833,286.084,40.0612,286.084,39.2715,275.5929,40.1999,265.1018,39.0076,254.6108,40.2265,244.1197,40.0878,233.6286,39.8385,223.1376,39.6325,212.6465,40.3402,202.1554,40.2225,191.6643,39.7596,181.1733,39.8627,170.6822,39.4476,160.1911,40.3296,149.7001,39.5833,139.209,39.633,139.2296,39.8828,138.6427,39.8763,137.9496,40.1856,137.3874,40.7299,136.9225,40.8037,136.2627,40.8608,136.4006,41.3873,136.0049,41.9394,135.6712,42.5424,135.4602,43.0696,135.0663,43.75,135.0423" style="stroke:#333333;stroke-width:1.0417;"/><path d="M39.5833,164.0055 L39.5833,164.2975 L49.8698,163.4301 L60.1563,164.274 L70.4427,164.5606 L80.7292,163.0147 L91.0156,163.8976 L101.3021,163.4132 L111.5885,163.4729 L121.875,163.9109 L132.1615,163.0453 L142.4479,164.7745 L152.7344,163.1301 L163.0208,163.7309 L173.3073,164.6055 L183.5938,163.8864 L193.8802,164.1003 L204.1667,164.0055 " fill="#474747" style="stroke:#333333;stroke-width:1.0417;"/><text fill="#FFFFFF" font-family="Segoe Print" font-size="11.4583" lengthAdjust="spacing" textLength="32.7189" x="105.5155" y="156.0949">Somp</text></g><polygon fill="#17A2B8" points="105.2659,74.0344,103.739,76.1207,101.933,79.1765,99.35,81.2359,96.6358,82.362,94.4716,82.4598,91.69,81.0514,89.0655,80.1313,87.0734,78.2631,86.0285,76.1245,85.4088,74.4216,84.8017,72.1973,83.8163,70.2833,84.5735,68.4145,85.2369,66.3673,87.7266,64.7483,89.4782,62.6475,91.6462,61.9499,94.2236,61.3492,97.5288,61.7061,99.3391,62.5599,101.4439,62.9469,104.003,65.5688,104.8951,68.3368,105.2827,70.2254,104.8437,73.3377" style="stroke:#2E2E2E;stroke-width:1.0417;"/><g id="Foo"><polygon fill="#474747" points="145.8333,346.5007,145.8333,346.5736,154.5833,346.3568,163.3333,346.5678,172.0833,346.6394,180.8333,346.2529,189.5833,346.5007,189.573,346.4757,190.1159,346.6079,190.7109,346.8658,191.342,347.211,191.8485,347.2552,192.5296,347.721,192.7072,347.7946,192.5715,348.2265,192.9543,348.8733,193.4004,349.5462,193.4784,350.0667,193.75,350.6673,193.7737,350.6673,193.7389,360.0016,193.812,369.3359,193.833,378.6702,193.9534,388.0046,193.75,397.3389,193.9653,397.428,193.7238,398.0184,193.3435,398.5512,193.1665,399.1682,192.999,399.7892,192.5296,400.2851,192.4338,400.0538,192.0305,400.7469,191.3117,400.6782,190.8328,401.1886,190.1068,401.1027,189.5833,401.5055,189.5833,401.4817,180.8333,401.763,172.0833,401.4886,163.3333,401.5421,154.5833,401.6231,145.8333,401.5055,145.8886,401.6391,145.2436,401.2602,144.693,401.1095,143.9895,400.5897,143.5141,400.6205,142.8871,400.2851,143.0629,400.358,142.7856,399.755,142.5956,399.1881,141.9999,398.4532,141.7015,397.8415,141.6667,397.3389,141.4509,397.3389,141.6462,388.0046,141.5984,378.6702,141.9033,369.3359,141.606,360.0016,141.6667,350.6673,141.5566,350.6217,141.984,350.1084,141.9409,349.4002,142.2324,348.8306,142.8512,348.3965,142.8871,347.721,142.9449,347.8608,143.5739,347.7126,144.0228,347.1297,144.6972,347.0912,145.3225,346.9341,145.8333,346.5007" style="stroke:#333333;stroke-width:1.0417;"/><path d="M141.6667,380.6722 L141.6667,380.9641 L152.0833,380.0968 L162.5,380.9407 L172.9167,381.2273 L183.3333,379.6814 L193.75,380.6722 " fill="#474747" style="stroke:#333333;stroke-width:1.0417;"/><text fill="#FFFFFF" font-family="Segoe Print" font-size="11.4583" lengthAdjust="spacing" textLength="20.6116" x="157.4025" y="367.5532">Foo</text></g><g id="Foo1"><polygon fill="#474747" points="218.2292,191.2923,218.2292,191.5113,228.3928,190.8607,238.5565,191.4937,248.7202,191.7087,258.8839,190.5492,269.0475,191.2923,269.0372,191.2674,269.5801,191.3996,270.1751,191.6574,270.8063,192.0027,271.3127,192.0468,271.9938,192.5127,272.1714,192.5863,272.0357,193.0182,272.4185,193.6649,272.8646,194.3379,272.9426,194.8583,273.2142,195.459,273.2379,195.459,273.2031,204.7933,273.2762,214.1276,273.2972,223.4619,273.4176,232.7962,273.2142,242.1305,273.4295,242.2197,273.188,242.81,272.8077,243.3429,272.6307,243.9599,272.4632,244.5809,271.9938,245.0768,271.898,244.8455,271.4947,245.5386,270.7759,245.4699,270.297,245.9803,269.571,245.8943,269.0475,246.2972,269.0475,246.2258,258.8839,247.0697,248.7202,246.2464,238.5565,246.4069,228.3928,246.6499,218.2292,246.2972,218.2845,246.4307,217.6394,246.0519,217.0888,245.9012,216.3853,245.3813,215.9099,245.4121,215.2829,245.0768,215.4587,245.1497,215.1814,244.5466,214.9914,243.9798,214.3957,243.2449,214.0974,242.6331,214.0625,242.1305,213.8467,242.1305,214.0421,232.7962,213.9943,223.4619,214.2991,214.1276,214.0018,204.7933,214.0625,195.459,213.9525,195.4134,214.3798,194.9001,214.3367,194.1919,214.6282,193.6222,215.247,193.1882,215.2829,192.5127,215.3408,192.6525,215.9697,192.5042,216.4186,191.9213,217.0931,191.8829,217.7184,191.7258,218.2292,191.2923" style="stroke:#333333;stroke-width:1.0417;"/><path d="M214.0625,225.4639 L214.0625,225.7558 L223.9211,224.8884 L233.7797,225.7323 L243.6384,226.019 L253.497,224.473 L263.3556,225.3559 L273.2142,225.4639 " fill="#474747" style="stroke:#333333;stroke-width:1.0417;"/><text fill="#FFFFFF" font-family="Segoe Print" font-size="11.4583" lengthAdjust="spacing" textLength="27.9017" x="229.6875" y="212.3449">Foo1</text></g><text fill="#FFFFFF" font-family="Segoe Print" font-size="11.4583" lengthAdjust="spacing" textLength="37.5865" x="73.9151" y="108.3817">entry1</text><polygon fill="#474747" points="98.9929,136.5626,98.0767,137.8144,96.9931,139.6478,95.4433,140.8835,93.8148,141.5591,92.5163,141.6178,90.8474,140.7727,89.2726,140.2207,88.0774,139.0998,87.4504,137.8166,87.0786,136.7949,86.7143,135.4603,86.1231,134.3119,86.5774,133.1906,86.9755,131.9623,88.4693,130.9909,89.5202,129.7304,90.8211,129.3119,92.3675,128.9514,94.3506,129.1656,95.4368,129.6778,96.6996,129.91,98.2351,131.4832,98.7704,133.144,99.003,134.2772,98.7396,136.1445" style="stroke:#333333;stroke-width:1.5625;"/><text fill="#FFFFFF" font-family="Segoe Print" font-size="11.4583" lengthAdjust="spacing" textLength="37.5865" x="20.7901" y="185.9858">entry2</text><polygon fill="#474747" points="45.8679,214.1667,44.9517,215.4185,43.8681,217.252,42.3183,218.4876,40.6898,219.1633,39.3913,219.222,37.7224,218.3769,36.1476,217.8248,34.9524,216.704,34.3254,215.4208,33.9536,214.3991,33.5893,213.0645,32.9981,211.9161,33.4524,210.7948,33.8505,209.5665,35.3443,208.5951,36.3952,207.3346,37.6961,206.9161,39.2425,206.5556,41.2256,206.7698,42.3118,207.282,43.5746,207.5142,45.1101,209.0874,45.6454,210.7482,45.878,211.8813,45.6146,213.7487" style="stroke:#333333;stroke-width:1.5625;"/><g id="Somp.sin"><polygon fill="#474747" points="72.9167,191.2923,72.9167,191.3653,81.6667,191.1485,90.4167,191.3594,99.1667,191.4311,107.9167,191.0446,116.6667,191.2923,116.6563,191.2674,117.1993,191.3996,117.7942,191.6574,118.4254,192.0027,118.9318,192.0468,119.6129,192.5127,119.7905,192.5863,119.6548,193.0182,120.0377,193.6649,120.4837,194.3379,120.5617,194.8583,120.8333,195.459,120.857,195.459,120.8222,204.7933,120.8953,214.1276,120.9164,223.4619,121.0367,232.7962,120.8333,242.1305,121.0486,242.2197,120.8072,242.81,120.4269,243.3429,120.2498,243.9599,120.0823,244.5809,119.6129,245.0768,119.5171,244.8455,119.1138,245.5386,118.395,245.4699,117.9161,245.9803,117.1901,245.8943,116.6667,246.2972,116.6667,246.2734,107.9167,246.5547,99.1667,246.2803,90.4167,246.3338,81.6667,246.4148,72.9167,246.2972,72.972,246.4307,72.3269,246.0519,71.7763,245.9012,71.0728,245.3813,70.5974,245.4121,69.9704,245.0768,70.1462,245.1497,69.8689,244.5466,69.6789,243.9798,69.0832,243.2449,68.7849,242.6331,68.75,242.1305,68.5342,242.1305,68.7296,232.7962,68.6818,223.4619,68.9866,214.1276,68.6893,204.7933,68.75,195.459,68.64,195.4134,69.0673,194.9001,69.0242,194.1919,69.3157,193.6222,69.9345,193.1882,69.9704,192.5127,70.0283,192.6525,70.6572,192.5042,71.1061,191.9213,71.7806,191.8829,72.4059,191.7258,72.9167,191.2923" style="stroke:#333333;stroke-width:1.0417;"/><path d="M68.75,225.4639 L68.75,225.7558 L79.1667,224.8884 L89.5833,225.7323 L100,226.019 L110.4167,224.473 L120.8333,225.4639 " fill="#474747" style="stroke:#333333;stroke-width:1.0417;"/><text fill="#FFFFFF" font-family="Segoe Print" font-size="11.4583" lengthAdjust="spacing" textLength="16.4154" x="86.584" y="212.3449">sin</text></g><g id="Somp.sin2"><polygon fill="#474747" points="144.2708,191.2923,144.2708,191.3653,153.5953,191.1485,162.9197,191.3594,172.2442,191.4311,181.5686,191.0446,190.893,191.2923,190.8827,191.2674,191.4256,191.3996,192.0206,191.6574,192.6518,192.0027,193.1582,192.0468,193.8393,192.5127,194.0169,192.5863,193.8812,193.0182,194.264,193.6649,194.7101,194.3379,194.7881,194.8583,195.0597,195.459,195.0834,195.459,195.0486,204.7933,195.1217,214.1276,195.1427,223.4619,195.2631,232.7962,195.0597,242.1305,195.275,242.2197,195.0335,242.81,194.6532,243.3429,194.4762,243.9599,194.3087,244.5809,193.8393,245.0768,193.7435,244.8455,193.3402,245.5386,192.6214,245.4699,192.1425,245.9803,191.4165,245.8943,190.893,246.2972,190.893,246.2734,181.5686,246.5547,172.2442,246.2803,162.9197,246.3338,153.5953,246.4148,144.2708,246.2972,144.3261,246.4307,143.6811,246.0519,143.1305,245.9012,142.427,245.3813,141.9516,245.4121,141.3246,245.0768,141.5004,245.1497,141.2231,244.5466,141.0331,243.9798,140.4374,243.2449,140.139,242.6331,140.1042,242.1305,139.8884,242.1305,140.0837,232.7962,140.0359,223.4619,140.3408,214.1276,140.0435,204.7933,140.1042,195.459,139.9941,195.4134,140.4215,194.9001,140.3784,194.1919,140.6699,193.6222,141.2887,193.1882,141.3246,192.5127,141.3824,192.6525,142.0114,192.5042,142.4603,191.9213,143.1347,191.8829,143.76,191.7258,144.2708,191.2923" style="stroke:#333333;stroke-width:1.0417;"/><path d="M140.1042,225.4639 L140.1042,225.7558 L151.0953,224.8884 L162.0864,225.7323 L173.0775,226.019 L184.0686,224.473 L195.0597,225.4639 " fill="#474747" style="stroke:#333333;stroke-width:1.0417;"/><text fill="#FFFFFF" font-family="Segoe Print" font-size="11.4583" lengthAdjust="spacing" textLength="23.7055" x="155.7292" y="212.3449">sin2</text></g><text fill="#FFFFFF" font-family="Segoe Print" font-size="11.4583" lengthAdjust="spacing" textLength="29.3452" x="150.9524" y="312.3449">exitA</text><polygon fill="#474747" points="171.9095,291.7709,170.9934,293.0227,169.9098,294.8562,168.36,296.0918,166.7315,296.7675,165.433,296.8261,163.764,295.9811,162.1893,295.429,160.9941,294.3081,160.3671,293.025,159.9953,292.0032,159.631,290.6687,159.0398,289.5202,159.4941,288.3989,159.8922,287.1707,161.386,286.1992,162.4369,284.9388,163.7377,284.5202,165.2842,284.1598,167.2673,284.3739,168.3535,284.8862,169.6163,285.1184,171.1518,286.6915,171.6871,288.3523,171.9196,289.4855,171.6562,291.3529" style="stroke:#333333;stroke-width:1.5625;"/><path d="M170.197,294.8226 L170.2658,294.8914 L168.4409,293.0665 L167.0193,291.645 L165.4664,290.0921 L163.4816,288.1073 L162.0947,286.7204 " fill="#474747" style="stroke:#333333;stroke-width:1.5625;"/><path d="M170.197,286.7204 L170.2658,286.7892 L168.4409,288.2052 L167.0193,290.0245 L165.4664,291.7126 L163.4816,292.9686 L162.0947,294.8226 " fill="#474747" style="stroke:#333333;stroke-width:1.5625;"/><polygon fill="#333333" points="94.7917,191.2157,94.8584,191.2454,95.4935,189.2823,96.5197,187.493,97.4185,185.6471,97.8986,183.6151,98.9583,181.8407,98.9393,181.8216,98.0203,182.5693,97.1975,183.4132,96.4416,184.324,95.4553,185.0043,94.7917,186.0074,94.9276,186.1433,93.8036,185.0193,93.0764,184.2922,92.3977,183.6134,91.4373,182.653,90.625,181.8407,90.6467,181.8503,91.4482,183.7112,92.3483,185.6159,93.2009,187.4994,94.1442,189.4233,94.7917,191.2157" style="stroke:#333333;stroke-width:1.0417;"/><path d="M94.7917,153.804 L94.889,153.804 L94.5999,160.0363 L94.8812,166.2687 L94.9767,172.501 L94.4614,178.7334 L94.7917,184.9657 " fill="#FFFFFF" fill-opacity="0.00000" style="stroke:#333333;stroke-width:3.125;"/><polygon fill="#333333" points="68.4237,218.8965,68.4534,218.9632,66.4903,217.9317,64.701,217.2911,62.8551,216.5233,60.8231,215.3368,59.0487,214.7298,59.0296,214.7107,59.7773,215.4584,60.6212,216.3023,61.532,217.2131,62.2123,217.8934,63.2154,218.8965,63.3513,219.0324,62.2273,219.5751,61.5002,220.5146,60.8214,221.5025,59.861,222.2088,59.0487,223.0632,59.0583,223.0848,60.9192,222.2197,62.8239,221.4531,64.7074,220.639,66.6313,219.9157,68.4237,218.8965" style="stroke:#333333;stroke-width:1.0417;"/><path d="M50.3825,218.8965 L50.3825,218.9938 L52.7407,218.7047 L55.099,218.986 L57.4572,219.0815 L59.8155,218.5662 L62.1737,218.8965 " fill="#FFFFFF" fill-opacity="0.00000" style="stroke:#333333;stroke-width:3.125;"/><polygon fill="#333333" points="139.9729,218.8965,140.0026,218.9632,138.0395,217.9317,136.2502,217.2911,134.4043,216.5233,132.3723,215.3368,130.5979,214.7298,130.5789,214.7107,131.3266,215.4584,132.1704,216.3023,133.0812,217.2131,133.7615,217.8934,134.7646,218.8965,134.9005,219.0324,133.7765,219.5751,133.0494,220.5146,132.3707,221.5025,131.4102,222.2088,130.5979,223.0632,130.6076,223.0848,132.4684,222.2197,134.3731,221.4531,136.2567,220.639,138.1805,219.9157,139.9729,218.8965" style="stroke:#333333;stroke-width:1.0417;"/><path d="M120.9961,218.8965 L120.9961,218.9938 L123.5415,218.7047 L126.0868,218.986 L128.6322,219.0815 L131.1776,218.5662 L133.7229,218.8965 " fill="#FFFFFF" fill-opacity="0.00000" style="stroke:#333333;stroke-width:3.125;"/><polygon fill="#333333" points="167.7083,283.8733,167.775,283.903,168.4102,281.9399,169.4363,280.1506,170.3351,278.3047,170.8153,276.2727,171.875,274.4983,171.8559,274.4792,170.937,275.2269,170.1142,276.0708,169.3583,276.9816,168.3719,277.6619,167.7083,278.665,167.8443,278.8009,166.7203,277.6769,165.9931,276.9498,165.3144,276.271,164.3539,275.3106,163.5417,274.4983,163.5633,274.508,164.3649,276.3688,165.265,278.2735,166.1175,280.1571,167.0608,282.0809,167.7083,283.8733" style="stroke:#333333;stroke-width:1.0417;"/><path d="M167.7083,246.7766 L167.8056,246.7766 L167.5165,252.946 L167.7978,259.1153 L167.8934,265.2846 L167.3781,271.454 L167.7083,277.6233 " fill="#FFFFFF" fill-opacity="0.00000" style="stroke:#333333;stroke-width:3.125;"/><polygon fill="#333333" points="94.7917,128.6198,94.8584,128.6494,95.4935,126.6864,96.5197,124.897,97.4185,123.0512,97.8986,121.0192,98.9583,119.2448,98.9393,119.2257,98.0203,119.9734,97.1975,120.8173,96.4416,121.7281,95.4553,122.4084,94.7917,123.4115,94.9276,123.5474,93.8036,122.4234,93.0764,121.6962,92.3977,121.0175,91.4373,120.0571,90.625,119.2448,90.6467,119.2544,91.4482,121.1153,92.3483,123.02,93.2009,124.9035,94.1442,126.8274,94.7917,128.6198" style="stroke:#333333;stroke-width:1.0417;"/><path d="M94.7917,86.3581 L94.889,86.3581 L94.5999,93.5604 L94.8812,100.7628 L94.9767,107.9651 L94.4614,115.1674 L94.7917,122.3698 " fill="#FFFFFF" fill-opacity="0.00000" style="stroke:#333333;stroke-width:3.125;"/><polygon fill="#333333" points="167.7083,346.4241,167.775,346.4537,168.4102,344.4906,169.4363,342.7013,170.3351,340.8554,170.8153,338.8234,171.875,337.0491,171.8559,337.03,170.937,337.7777,170.1142,338.6216,169.3583,339.5323,168.3719,340.2126,167.7083,341.2157,167.8443,341.3516,166.7203,340.2276,165.9931,339.5005,165.3144,338.8218,164.3539,337.8613,163.5417,337.0491,163.5633,337.0587,164.3649,338.9195,165.265,340.8242,166.1175,342.7078,167.0608,344.6316,167.7083,346.4241" style="stroke:#333333;stroke-width:1.0417;"/><path d="M167.7083,309.0123 L167.8056,309.0123 L167.5165,315.2447 L167.7978,321.477 L167.8934,327.7094 L167.3781,333.9417 L167.7083,340.1741 " fill="#FFFFFF" fill-opacity="0.00000" style="stroke:#333333;stroke-width:3.125;"/><polygon fill="#333333" points="45.2101,206.0867,45.2635,206.1365,46.5038,204.4876,48.0571,203.1305,49.5085,201.6783,50.6247,199.9138,52.2048,198.5817,52.193,198.5574,51.0805,198.9648,50.0276,199.4944,49.0162,200.1091,47.8619,200.4308,46.9076,201.1628,47.0805,201.247,46.1947,200.0075,45.8135,199.0138,45.4938,198.0502,44.816,196.912,44.3265,195.8656,44.3501,195.8677,44.4922,197.9089,44.7417,199.9594,44.9394,202.0054,45.236,204.06,45.2101,206.0867" style="stroke:#333333;stroke-width:1.0417;"/><path d="M223.8241,191.1504 L223.8901,191.2219 L221.3979,188.8901 L219.2927,186.9774 L217.0614,184.9282 L214.4158,182.4302 L212.3438,180.5534 L212.3253,180.5226 L209.5653,178.7818 L206.8984,177.1967 L204.2963,175.7197 L201.4711,173.8699 L198.9583,172.5423 L199.0351,172.7869 L196.4283,171.4968 L194.0456,170.9207 L191.6903,170.4318 L189.1759,169.436 L186.7451,168.7068 L186.7509,168.7378 L183.5744,168.1007 L180.4242,167.6049 L177.2614,167.0409 L174.1228,166.6071 L170.905,165.749 L170.9384,166.0579 L167.292,165.6675 L163.6241,165.0779 L159.9877,164.7799 L156.3528,164.4955 L152.6711,163.7781 L152.6561,163.4446 L148.8063,163.917 L144.907,163.291 L141.0454,163.5 L137.145,162.8492 L133.2764,162.9032 L133.2758,162.8714 L129.4177,163.3124 L125.547,163.0126 L121.6837,163.1498 L117.821,163.3238 L113.9539,163.2331 L113.9714,163.425 L110.3502,163.56 L106.759,164.023 L103.1194,163.9554 L99.552,164.6792 L95.9366,164.8769 L95.9859,165.1258 L92.8808,165.6921 L89.8002,166.382 L86.6058,166.4975 L83.4948,167.0341 L80.4576,167.9436 L80.3525,167.6758 L78.1062,168.838 L75.7413,169.6984 L73.5484,170.9965 L71.062,171.5473 L68.75,172.5423 L68.6449,172.4232 L66.0224,175.0902 L62.9506,177.2482 L60.1983,179.7681 L57.7585,182.6423 L54.7621,184.8857 L54.9432,184.9747 L53.5643,188.0941 L51.6224,190.9369 L50.3858,194.1263 L48.9955,197.2401 L47.2472,200.178 " fill="#FFFFFF" fill-opacity="0.00000" style="stroke:#333333;stroke-width:3.125;"/></g></svg>