<svg xmlns="http://www.w3.org/2000/svg" xmlns:xlink="http://www.w3.org/1999/xlink" contentStyleType="text/css" height="373.9583px" preserveAspectRatio="none" style="width:285px;height:373px;" version="1.1" viewBox="0 0 285 373" width="285.4167px" zoomAndPan="magnify"><defs/><g><!--cluster Somp--><g id="cluster_Somp"><polygon fill="none" points="43.75,96.875,43.75,97.0939,54.1667,96.4434,64.5833,97.0763,75,97.2913,85.4167,96.1319,95.8333,96.794,106.25,96.4307,116.6667,96.4755,127.0833,96.804,137.5,96.1548,147.9167,97.4517,158.3333,96.2185,168.75,96.669,179.1667,97.3249,189.5833,96.7856,200,96.875,200.0091,96.8969,200.585,97.1088,201.2022,97.4204,201.7995,97.6839,202.4348,98.0392,202.9463,98.0954,203.1615,98.1846,203.4083,98.7749,203.5161,99.3077,203.8272,99.9248,204.1479,100.5457,204.1667,101.0417,203.4154,101.0417,204.8734,111.5327,203.8578,122.0238,204.7227,132.5149,203.651,143.006,204.0953,153.497,204.9392,163.9881,204.1159,174.4792,204.2764,184.9702,204.5194,195.4613,204.6002,205.9524,204.1626,216.4435,204.4658,226.9345,203.5704,237.4256,204.1667,247.9167,204.2579,247.9545,204.0984,248.5788,203.8211,249.1542,203.6311,249.7659,203.0354,250.2095,202.9463,250.8629,202.8596,250.6537,202.2745,250.9077,201.7599,251.3322,201.1524,251.5321,200.6798,252.0578,200,252.0833,200,251.9014,189.5833,251.726,179.1667,252.3211,168.75,251.3887,158.3333,251.5426,147.9167,252.7593,137.5,252.5372,127.0833,252.8484,116.6667,251.7481,106.25,252.4158,95.8333,252.6984,85.4167,251.5912,75,251.9835,64.5833,252.2146,54.1667,252.7622,43.75,252.0833,43.7494,252.082,43.2222,251.9876,42.4979,251.4175,41.8922,251.1338,41.4599,251.2686,40.8037,250.8629,40.5737,250.7677,40.7229,250.3413,40.3819,249.7119,39.9855,249.0596,39.7139,248.4589,39.5833,247.9167,40.0612,247.9167,39.2715,237.4256,40.1999,226.9345,39.0076,216.4435,40.2265,205.9524,40.0878,195.4613,39.8385,184.9702,39.6325,174.4792,40.3402,163.9881,40.2225,153.497,39.7596,143.006,39.8627,132.5149,39.4476,122.0238,40.3296,111.5327,39.5833,101.0417,39.633,101.0622,39.8828,100.4753,39.8763,99.7823,40.1856,99.2201,40.7299,98.7552,40.8037,98.0954,40.8608,98.2333,41.3873,97.8375,41.9394,97.5039,42.5424,97.2929,43.0696,96.899,43.75,96.875" style="stroke:#333333;stroke-width:1.0416666666666667;"/><path d="M39.5833,125.8382 L39.5833,126.1301 L49.8698,125.2628 L60.1563,126.1067 L70.4427,126.3933 L80.7292,124.8474 L91.0156,125.7303 L101.3021,125.2459 L111.5885,125.3056 L121.875,125.7436 L132.1615,124.878 L142.4479,126.6072 L152.7344,124.9628 L163.0208,125.5635 L173.3073,126.4381 L183.5938,125.7191 L193.8802,125.933 L204.1667,125.8382 " fill="none" style="stroke:#333333;stroke-width:1.0416666666666667;"/><text fill="#FFFFFF" font-family="Segoe Print" font-size="11.4583" lengthAdjust="spacing" textLength="32.7189" x="105.5155" y="117.9276">Somp</text></g><polygon fill="#17A2B8" points="105.2659,35.8671,103.739,37.9534,101.933,41.0092,99.35,43.0686,96.6358,44.1947,94.4716,44.2924,91.69,42.884,89.0655,41.9639,87.0734,40.0958,86.0285,37.9572,85.4088,36.2543,84.8017,34.03,83.8163,32.116,84.5735,30.2472,85.2369,28.2,87.7266,26.5809,89.4782,24.4802,91.6462,23.7826,94.2236,23.1819,97.5288,23.5388,99.3391,24.3925,101.4439,24.7795,104.003,27.4015,104.8951,30.1695,105.2827,32.0581,104.8437,35.1703" style="stroke:#2E2E2E;stroke-width:1.0416666666666667;"/><g id="Foo"><polygon fill="none" points="145.8333,308.3333,145.8333,308.4063,154.5833,308.1895,163.3333,308.4004,172.0833,308.4721,180.8333,308.0856,189.5833,308.3333,189.573,308.3084,190.1159,308.4406,190.7109,308.6985,191.342,309.0437,191.8485,309.0879,192.5296,309.5537,192.7072,309.6273,192.5715,310.0592,192.9543,310.706,193.4004,311.3789,193.4784,311.8993,193.75,312.5,193.7737,312.5,193.7389,321.8343,193.812,331.1686,193.833,340.5029,193.9534,349.8372,193.75,359.1715,193.9653,359.2607,193.7238,359.8511,193.3435,360.3839,193.1665,361.0009,192.999,361.6219,192.5296,362.1178,192.4338,361.8865,192.0305,362.5796,191.3117,362.5109,190.8328,363.0213,190.1068,362.9353,189.5833,363.3382,189.5833,363.3144,180.8333,363.5957,172.0833,363.3213,163.3333,363.3748,154.5833,363.4558,145.8333,363.3382,145.8886,363.4717,145.2436,363.0929,144.693,362.9422,143.9895,362.4224,143.5141,362.4531,142.8871,362.1178,143.0629,362.1907,142.7856,361.5876,142.5956,361.0208,141.9999,360.2859,141.7015,359.6741,141.6667,359.1715,141.4509,359.1715,141.6462,349.8372,141.5984,340.5029,141.9033,331.1686,141.606,321.8343,141.6667,312.5,141.5566,312.4544,141.984,311.9411,141.9409,311.2329,142.2324,310.6633,142.8512,310.2292,142.8871,309.5537,142.9449,309.6935,143.5739,309.5453,144.0228,308.9623,144.6972,308.9239,145.3225,308.7668,145.8333,308.3333" style="stroke:#333333;stroke-width:1.0416666666666667;"/><path d="M141.6667,342.5049 L141.6667,342.7968 L152.0833,341.9294 L162.5,342.7733 L172.9167,343.06 L183.3333,341.5141 L193.75,342.5049 " fill="none" style="stroke:#333333;stroke-width:1.0416666666666667;"/><text fill="#FFFFFF" font-family="Segoe Print" font-size="11.4583" lengthAdjust="spacing" textLength="20.6116" x="157.4025" y="329.3859">Foo</text></g><g id="Foo1"><polygon fill="none" points="218.2292,153.125,218.2292,153.3439,228.3928,152.6934,238.5565,153.3263,248.7202,153.5413,258.8839,152.3819,269.0475,153.125,269.0372,153.1001,269.5801,153.2323,270.1751,153.4901,270.8063,153.8354,271.3127,153.8795,271.9938,154.3454,272.1714,154.419,272.0357,154.8509,272.4185,155.4976,272.8646,156.1706,272.9426,156.691,273.2142,157.2917,273.2379,157.2917,273.2031,166.626,273.2762,175.9603,273.2972,185.2946,273.4176,194.6289,273.2142,203.9632,273.4295,204.0524,273.188,204.6427,272.8077,205.1756,272.6307,205.7926,272.4632,206.4135,271.9938,206.9095,271.898,206.6781,271.4947,207.3712,270.7759,207.3025,270.297,207.813,269.571,207.727,269.0475,208.1299,269.0475,208.0585,258.8839,208.9024,248.7202,208.0791,238.5565,208.2396,228.3928,208.4826,218.2292,208.1299,218.2845,208.2634,217.6394,207.8846,217.0888,207.7339,216.3853,207.214,215.9099,207.2448,215.2829,206.9095,215.4587,206.9823,215.1814,206.3793,214.9914,205.8124,214.3957,205.0775,214.0974,204.4658,214.0625,203.9632,213.8467,203.9632,214.0421,194.6289,213.9943,185.2946,214.2991,175.9603,214.0018,166.626,214.0625,157.2917,213.9525,157.2461,214.3798,156.7327,214.3367,156.0245,214.6282,155.4549,215.247,155.0209,215.2829,154.3454,215.3408,154.4851,215.9697,154.3369,216.4186,153.754,217.0931,153.7156,217.7184,153.5585,218.2292,153.125" style="stroke:#333333;stroke-width:1.0416666666666667;"/><path d="M214.0625,187.2965 L214.0625,187.5885 L223.9211,186.7211 L233.7797,187.565 L243.6384,187.8517 L253.497,186.3057 L263.3556,187.1886 L273.2142,187.2965 " fill="none" style="stroke:#333333;stroke-width:1.0416666666666667;"/><text fill="#FFFFFF" font-family="Segoe Print" font-size="11.4583" lengthAdjust="spacing" textLength="27.9017" x="229.6875" y="174.1776">Foo1</text></g><text fill="#FFFFFF" font-family="Segoe Print" font-size="11.4583" lengthAdjust="spacing" textLength="37.5865" x="73.9151" y="70.2143">entry1</text><polygon fill="none" points="98.9929,98.3952,98.0767,99.647,96.9931,101.4805,95.4433,102.7161,93.8148,103.3918,92.5163,103.4505,90.8474,102.6054,89.2726,102.0534,88.0774,100.9325,87.4504,99.6493,87.0786,98.6276,86.7143,97.293,86.1231,96.1446,86.5774,95.0233,86.9755,93.795,88.4693,92.8236,89.5202,91.5631,90.8211,91.1446,92.3675,90.7841,94.3506,90.9983,95.4368,91.5105,96.6996,91.7427,98.2351,93.3159,98.7704,94.9767,99.003,96.1099,98.7396,97.9772" style="stroke:#333333;stroke-width:1.5625;"/><text fill="#FFFFFF" font-family="Segoe Print" font-size="11.4583" lengthAdjust="spacing" textLength="37.5865" x="20.7901" y="147.8185">entry2</text><polygon fill="none" points="45.8679,175.9994,44.9517,177.2512,43.8681,179.0847,42.3183,180.3203,40.6898,180.996,39.3913,181.0546,37.7224,180.2096,36.1476,179.6575,34.9524,178.5367,34.3254,177.2535,33.9536,176.2317,33.5893,174.8972,32.9981,173.7488,33.4524,172.6275,33.8505,171.3992,35.3443,170.4277,36.3952,169.1673,37.6961,168.7487,39.2425,168.3883,41.2256,168.6024,42.3118,169.1147,43.5746,169.3469,45.1101,170.9201,45.6454,172.5808,45.878,173.714,45.6146,175.5814" style="stroke:#333333;stroke-width:1.5625;"/><g id="Somp.sin"><polygon fill="none" points="72.9167,153.125,72.9167,153.198,81.6667,152.9811,90.4167,153.1921,99.1667,153.2638,107.9167,152.8773,116.6667,153.125,116.6563,153.1001,117.1993,153.2323,117.7942,153.4901,118.4254,153.8354,118.9318,153.8795,119.6129,154.3454,119.7905,154.419,119.6548,154.8509,120.0377,155.4976,120.4837,156.1706,120.5617,156.691,120.8333,157.2917,120.857,157.2917,120.8222,166.626,120.8953,175.9603,120.9164,185.2946,121.0367,194.6289,120.8333,203.9632,121.0486,204.0524,120.8072,204.6427,120.4269,205.1756,120.2498,205.7926,120.0823,206.4135,119.6129,206.9095,119.5171,206.6781,119.1138,207.3712,118.395,207.3025,117.9161,207.813,117.1901,207.727,116.6667,208.1299,116.6667,208.1061,107.9167,208.3874,99.1667,208.113,90.4167,208.1664,81.6667,208.2475,72.9167,208.1299,72.972,208.2634,72.3269,207.8846,71.7763,207.7339,71.0728,207.214,70.5974,207.2448,69.9704,206.9095,70.1462,206.9823,69.8689,206.3793,69.6789,205.8124,69.0832,205.0775,68.7849,204.4658,68.75,203.9632,68.5342,203.9632,68.7296,194.6289,68.6818,185.2946,68.9866,175.9603,68.6893,166.626,68.75,157.2917,68.64,157.2461,69.0673,156.7327,69.0242,156.0245,69.3157,155.4549,69.9345,155.0209,69.9704,154.3454,70.0283,154.4851,70.6572,154.3369,71.1061,153.754,71.7806,153.7156,72.4059,153.5585,72.9167,153.125" style="stroke:#333333;stroke-width:1.0416666666666667;"/><path d="M68.75,187.2965 L68.75,187.5885 L79.1667,186.7211 L89.5833,187.565 L100,187.8517 L110.4167,186.3057 L120.8333,187.2965 " fill="none" style="stroke:#333333;stroke-width:1.0416666666666667;"/><text fill="#FFFFFF" font-family="Segoe Print" font-size="11.4583" lengthAdjust="spacing" textLength="16.4154" x="86.584" y="174.1776">sin</text></g><g id="Somp.sin2"><polygon fill="none" points="144.2708,153.125,144.2708,153.198,153.5953,152.9811,162.9197,153.1921,172.2442,153.2638,181.5686,152.8773,190.893,153.125,190.8827,153.1001,191.4256,153.2323,192.0206,153.4901,192.6518,153.8354,193.1582,153.8795,193.8393,154.3454,194.0169,154.419,193.8812,154.8509,194.264,155.4976,194.7101,156.1706,194.7881,156.691,195.0597,157.2917,195.0834,157.2917,195.0486,166.626,195.1217,175.9603,195.1427,185.2946,195.2631,194.6289,195.0597,203.9632,195.275,204.0524,195.0335,204.6427,194.6532,205.1756,194.4762,205.7926,194.3087,206.4135,193.8393,206.9095,193.7435,206.6781,193.3402,207.3712,192.6214,207.3025,192.1425,207.813,191.4165,207.727,190.893,208.1299,190.893,208.1061,181.5686,208.3874,172.2442,208.113,162.9197,208.1664,153.5953,208.2475,144.2708,208.1299,144.3261,208.2634,143.6811,207.8846,143.1305,207.7339,142.427,207.214,141.9516,207.2448,141.3246,206.9095,141.5004,206.9823,141.2231,206.3793,141.0331,205.8124,140.4374,205.0775,140.139,204.4658,140.1042,203.9632,139.8884,203.9632,140.0837,194.6289,140.0359,185.2946,140.3408,175.9603,140.0435,166.626,140.1042,157.2917,139.9941,157.2461,140.4215,156.7327,140.3784,156.0245,140.6699,155.4549,141.2887,155.0209,141.3246,154.3454,141.3824,154.4851,142.0114,154.3369,142.4603,153.754,143.1347,153.7156,143.76,153.5585,144.2708,153.125" style="stroke:#333333;stroke-width:1.0416666666666667;"/><path d="M140.1042,187.2965 L140.1042,187.5885 L151.0953,186.7211 L162.0864,187.565 L173.0775,187.8517 L184.0686,186.3057 L195.0597,187.2965 " fill="none" style="stroke:#333333;stroke-width:1.0416666666666667;"/><text fill="#FFFFFF" font-family="Segoe Print" font-size="11.4583" lengthAdjust="spacing" textLength="23.7055" x="155.7292" y="174.1776">sin2</text></g><text fill="#FFFFFF" font-family="Segoe Print" font-size="11.4583" lengthAdjust="spacing" textLength="29.3452" x="150.9524" y="274.1776">exitA</text><polygon fill="none" points="171.9095,253.6036,170.9934,254.8554,169.9098,256.6888,168.36,257.9245,166.7315,258.6002,165.433,258.6588,163.764,257.8138,162.1893,257.2617,160.9941,256.1408,160.3671,254.8576,159.9953,253.8359,159.631,252.5013,159.0398,251.3529,159.4941,250.2316,159.8922,249.0033,161.386,248.0319,162.4369,246.7715,163.7377,246.3529,165.2842,245.9925,167.2673,246.2066,168.3535,246.7189,169.6163,246.9511,171.1518,248.5242,171.6871,250.185,171.9196,251.3182,171.6562,253.1855" style="stroke:#333333;stroke-width:1.5625;"/><path d="M170.197,256.6553 L170.2658,256.7241 L168.4409,254.8992 L167.0193,253.4777 L165.4664,251.9248 L163.4816,249.9399 L162.0947,248.553 " fill="none" style="stroke:#333333;stroke-width:1.5625;"/><path d="M170.197,248.553 L170.2658,248.6218 L168.4409,250.0379 L167.0193,251.8572 L165.4664,253.5452 L163.4816,254.8013 L162.0947,256.6553 " fill="none" style="stroke:#333333;stroke-width:1.5625;"/><polygon fill="#333333" points="94.7917,153.0484,94.8584,153.078,95.4935,151.115,96.5197,149.3257,97.4185,147.4798,97.8986,145.4478,98.9583,143.6734,98.9393,143.6543,98.0203,144.402,97.1975,145.2459,96.4416,146.1567,95.4553,146.837,94.7917,147.8401,94.9276,147.976,93.8036,146.852,93.0764,146.1248,92.3977,145.4461,91.4373,144.4857,90.625,143.6734,90.6467,143.683,91.4482,145.5439,92.3483,147.4486,93.2009,149.3321,94.1442,151.256,94.7917,153.0484" style="stroke:#333333;stroke-width:1.0416666666666667;"/><path d="M94.7917,115.6367 L94.889,115.6367 L94.5999,121.869 L94.8812,128.1014 L94.9767,134.3337 L94.4614,140.5661 L94.7917,146.7984 " fill="none" style="stroke:#333333;stroke-width:3.125;"/><polygon fill="#333333" points="68.4237,180.7292,68.4534,180.7959,66.4903,179.7644,64.701,179.1238,62.8551,178.356,60.8231,177.1695,59.0487,176.5625,59.0296,176.5434,59.7773,177.2911,60.6212,178.135,61.532,179.0458,62.2123,179.7261,63.2154,180.7292,63.3513,180.8651,62.2273,181.4078,61.5002,182.3473,60.8214,183.3352,59.861,184.0414,59.0487,184.8958,59.0583,184.9175,60.9192,184.0524,62.8239,183.2858,64.7074,182.4717,66.6313,181.7483,68.4237,180.7292" style="stroke:#333333;stroke-width:1.0416666666666667;"/><path d="M50.3825,180.7292 L50.3825,180.8265 L52.7407,180.5374 L55.099,180.8187 L57.4572,180.9142 L59.8155,180.3989 L62.1737,180.7292 " fill="none" style="stroke:#333333;stroke-width:3.125;"/><polygon fill="#333333" points="139.9729,180.7292,140.0026,180.7959,138.0395,179.7644,136.2502,179.1238,134.4043,178.356,132.3723,177.1695,130.5979,176.5625,130.5789,176.5434,131.3266,177.2911,132.1704,178.135,133.0812,179.0458,133.7615,179.7261,134.7646,180.7292,134.9005,180.8651,133.7765,181.4078,133.0494,182.3473,132.3707,183.3352,131.4102,184.0414,130.5979,184.8958,130.6076,184.9175,132.4684,184.0524,134.3731,183.2858,136.2567,182.4717,138.1805,181.7483,139.9729,180.7292" style="stroke:#333333;stroke-width:1.0416666666666667;"/><path d="M120.9961,180.7292 L120.9961,180.8265 L123.5415,180.5374 L126.0868,180.8187 L128.6322,180.9142 L131.1776,180.3989 L133.7229,180.7292 " fill="none" style="stroke:#333333;stroke-width:3.125;"/><polygon fill="#333333" points="167.7083,245.706,167.775,245.7356,168.4102,243.7726,169.4363,241.9833,170.3351,240.1374,170.8153,238.1054,171.875,236.331,171.8559,236.3119,170.937,237.0596,170.1142,237.9035,169.3583,238.8143,168.3719,239.4946,167.7083,240.4977,167.8443,240.6336,166.7203,239.5096,165.9931,238.7825,165.3144,238.1037,164.3539,237.1433,163.5417,236.331,163.5633,236.3406,164.3649,238.2015,165.265,240.1062,166.1175,241.9897,167.0608,243.9136,167.7083,245.706" style="stroke:#333333;stroke-width:1.0416666666666667;"/><path d="M167.7083,208.6093 L167.8056,208.6093 L167.5165,214.7786 L167.7978,220.948 L167.8934,227.1173 L167.3781,233.2867 L167.7083,239.456 " fill="none" style="stroke:#333333;stroke-width:3.125;"/><polygon fill="#333333" points="94.7917,90.4525,94.8584,90.4821,95.4935,88.519,96.5197,86.7297,97.4185,84.8838,97.8986,82.8519,98.9583,81.0775,98.9393,81.0584,98.0203,81.8061,97.1975,82.65,96.4416,83.5607,95.4553,84.2411,94.7917,85.2441,94.9276,85.3801,93.8036,84.2561,93.0764,83.5289,92.3977,82.8502,91.4373,81.8897,90.625,81.0775,90.6467,81.0871,91.4482,82.948,92.3483,84.8526,93.2009,86.7362,94.1442,88.6601,94.7917,90.4525" style="stroke:#333333;stroke-width:1.0416666666666667;"/><path d="M94.7917,48.1908 L94.889,48.1908 L94.5999,55.3931 L94.8812,62.5954 L94.9767,69.7978 L94.4614,77.0001 L94.7917,84.2025 " fill="none" style="stroke:#333333;stroke-width:3.125;"/><polygon fill="#333333" points="167.7083,308.2567,167.775,308.2864,168.4102,306.3233,169.4363,304.534,170.3351,302.6881,170.8153,300.6561,171.875,298.8817,171.8559,298.8627,170.937,299.6104,170.1142,300.4542,169.3583,301.365,168.3719,302.0453,167.7083,303.0484,167.8443,303.1843,166.7203,302.0603,165.9931,301.3332,165.3144,300.6545,164.3539,299.694,163.5417,298.8817,163.5633,298.8914,164.3649,300.7522,165.265,302.6569,166.1175,304.5405,167.0608,306.4643,167.7083,308.2567" style="stroke:#333333;stroke-width:1.0416666666666667;"/><path d="M167.7083,270.845 L167.8056,270.845 L167.5165,277.0773 L167.7978,283.3097 L167.8934,289.542 L167.3781,295.7744 L167.7083,302.0067 " fill="none" style="stroke:#333333;stroke-width:3.125;"/><polygon fill="#333333" points="45.2101,167.9194,45.2635,167.9692,46.5038,166.3203,48.0571,164.9631,49.5085,163.511,50.6247,161.7465,52.2048,160.4144,52.193,160.3901,51.0805,160.7975,50.0276,161.3271,49.0162,161.9418,47.8619,162.2634,46.9076,162.9955,47.0805,163.0797,46.1947,161.8402,45.8135,160.8465,45.4938,159.8829,44.816,158.7447,44.3265,157.6983,44.3501,157.7003,44.4922,159.7416,44.7417,161.7921,44.9394,163.8381,45.236,165.8927,45.2101,167.9194" style="stroke:#333333;stroke-width:1.0416666666666667;"/><path d="M223.8241,152.9831 L223.8901,153.0546 L221.3979,150.7228 L219.2927,148.8101 L217.0614,146.7609 L214.4158,144.2628 L212.3438,142.3861 L212.3253,142.3553 L209.5653,140.6145 L206.8984,139.0293 L204.2963,137.5524 L201.4711,135.7026 L198.9583,134.375 L199.0351,134.6195 L196.4283,133.3295 L194.0456,132.7534 L191.6903,132.2644 L189.1759,131.2687 L186.7451,130.5394 L186.7509,130.5705 L183.5744,129.9333 L180.4242,129.4376 L177.2614,128.8736 L174.1228,128.4398 L170.905,127.5817 L170.9384,127.8906 L167.292,127.5002 L163.6241,126.9106 L159.9877,126.6126 L156.3528,126.3282 L152.6711,125.6108 L152.6561,125.2773 L148.8063,125.7496 L144.907,125.1237 L141.0454,125.3327 L137.145,124.6819 L133.2764,124.7358 L133.2758,124.7041 L129.4177,125.1451 L125.547,124.8452 L121.6837,124.9825 L117.821,125.1565 L113.9539,125.0657 L113.9714,125.2576 L110.3502,125.3927 L106.759,125.8557 L103.1194,125.7881 L99.552,126.5119 L95.9366,126.7095 L95.9859,126.9585 L92.8808,127.5248 L89.8002,128.2146 L86.6058,128.3302 L83.4948,128.8668 L80.4576,129.7763 L80.3525,129.5085 L78.1062,130.6707 L75.7413,131.5311 L73.5484,132.8291 L71.062,133.38 L68.75,134.375 L68.6449,134.2559 L66.0224,136.9229 L62.9506,139.0809 L60.1983,141.6008 L57.7585,144.475 L54.7621,146.7184 L54.9432,146.8073 L53.5643,149.9268 L51.6224,152.7696 L50.3858,155.9589 L48.9955,159.0728 L47.2472,162.0107 " fill="none" style="stroke:#333333;stroke-width:3.125;"/></g></svg>