<svg xmlns="http://www.w3.org/2000/svg" xmlns:xlink="http://www.w3.org/1999/xlink" contentStyleType="text/css" data-diagram-type="STATE" height="357.2917px" preserveAspectRatio="none" style="width:276px;height:357px;" version="1.1" viewBox="0 0 276 357" width="276.0417px" zoomAndPan="magnify"><?plantuml 1.2026.5beta1?><defs/><g><!--cluster Somp--><g class="cluster" data-qualified-name="Somp" data-source-line="6" id="ent0001"><path d="M29.1667,61.4583 L195.8333,61.4583 A4.1667,4.1667 0 0 1 200,65.625 L200,80.0049 L25,80.0049 L25,65.625 A4.1667,4.1667 0 0 1 29.1667,61.4583" fill="#476D94"/><path d="M25,80.0049 L200,80.0049 L200,266.6667 A4.1667,4.1667 0 0 1 195.8333,270.8333 L29.1667,270.8333 A4.1667,4.1667 0 0 1 25,266.6667 L25,80.0049" fill="#476D94"/><rect fill="none" height="209.375" rx="4.1667" ry="4.1667" style="stroke:#2D547A;stroke-width:1.0417;" width="175" x="25" y="61.4583"/><line style="stroke:#2D547A;stroke-width:1.0417;" x1="25" x2="200" y1="80.0049" y2="80.0049"/><text fill="#FFFFFF" font-family="'Verdana'" font-size="11.4583" lengthAdjust="spacing" textLength="32.7189" x="96.1405" y="77.3026">Somp</text></g><g class="start_entity" data-qualified-name=".start." data-source-line="18" id="ent0011"><ellipse cx="94.7917" cy="33.3333" fill="#29ABE0" rx="10.4167" ry="10.4167" style="stroke:#2D547A;stroke-width:1.0417;"/></g><g class="entity" data-qualified-name="Foo" data-source-line="19" id="ent0013"><rect fill="#476D94" height="52.0833" rx="4.1667" ry="4.1667" style="stroke:#2D547A;stroke-width:1.0417;" width="52.0833" x="139.5833" y="300"/><line style="stroke:#2D547A;stroke-width:1.0417;" x1="139.5833" x2="191.6667" y1="323.7549" y2="323.7549"/><text fill="#FFFFFF" font-family="'Verdana'" font-size="11.4583" lengthAdjust="spacing" textLength="20.6116" x="155.3192" y="315.8442">Foo</text></g><g class="entity" data-qualified-name="Foo1" data-source-line="20" id="ent0015"><rect fill="#476D94" height="52.0833" rx="4.1667" ry="4.1667" style="stroke:#2D547A;stroke-width:1.0417;" width="52.0833" x="210.4167" y="147.9167"/><line style="stroke:#2D547A;stroke-width:1.0417;" x1="210.4167" x2="262.5" y1="171.6715" y2="171.6715"/><text fill="#FFFFFF" font-family="'Verdana'" font-size="11.4583" lengthAdjust="spacing" textLength="27.9017" x="222.5075" y="163.7609">Foo1</text></g><text fill="#FFFFFF" font-family="'Verdana'" font-size="11.4583" lengthAdjust="spacing" textLength="37.5865" x="73.9151" y="70.2143">entry1</text><ellipse cx="92.7083" cy="91.6667" fill="#476D94" rx="6.25" ry="6.25" style="stroke:#2D547A;stroke-width:1.5625;"/><text fill="#FFFFFF" font-family="'Verdana'" font-size="11.4583" lengthAdjust="spacing" textLength="37.5865" x="20.7901" y="146.256">entry2</text><ellipse cx="39.5833" cy="167.7083" fill="#476D94" rx="6.25" ry="6.25" style="stroke:#2D547A;stroke-width:1.5625;"/><text fill="#FFFFFF" font-family="'Verdana'" font-size="11.4583" lengthAdjust="spacing" textLength="29.3452" x="148.8691" y="260.6359">exitA</text><ellipse cx="163.5417" cy="243.75" fill="#476D94" rx="6.25" ry="6.25" style="stroke:#2D547A;stroke-width:1.5625;"/><line style="stroke:#2D547A;stroke-width:1.5625;" x1="168.1136" x2="160.0114" y1="248.322" y2="240.2197"/><line style="stroke:#2D547A;stroke-width:1.5625;" x1="168.1136" x2="160.0114" y1="240.2197" y2="248.322"/><g class="entity" data-qualified-name="Somp.sin" data-source-line="10" id="ent0005"><rect fill="#476D94" height="52.0833" rx="4.1667" ry="4.1667" style="stroke:#2D547A;stroke-width:1.0417;" width="52.0833" x="68.75" y="147.9167"/><line style="stroke:#2D547A;stroke-width:1.0417;" x1="68.75" x2="120.8333" y1="171.6715" y2="171.6715"/><text fill="#FFFFFF" font-family="'Verdana'" font-size="11.4583" lengthAdjust="spacing" textLength="16.4154" x="86.584" y="163.7609">sin</text></g><g class="entity" data-qualified-name="Somp.sin2" data-source-line="14" id="ent0008"><rect fill="#476D94" height="52.0833" rx="4.1667" ry="4.1667" style="stroke:#2D547A;stroke-width:1.0417;" width="52.0833" x="139.5833" y="147.9167"/><line style="stroke:#2D547A;stroke-width:1.0417;" x1="139.5833" x2="191.6667" y1="171.6715" y2="171.6715"/><text fill="#FFFFFF" font-family="'Verdana'" font-size="11.4583" lengthAdjust="spacing" textLength="23.7055" x="153.7722" y="163.7609">sin2</text></g><g class="link" data-entity-1="ent0002" data-entity-2="ent0005" data-link-type="dependency" id="lnk6"><polygon fill="#325D88" points="94.7917,147.6713,98.9583,138.2963,94.7917,142.4629,90.625,138.2963,94.7917,147.6713" style="stroke:#325D88;stroke-width:1.0417;stroke-linejoin:miter;stroke-miterlimit:10;"/><path d="M94.7917,110.5143 C94.7917,120.4272 94.7917,129.8558 94.7917,142.4629" fill="none" style="stroke:#325D88;stroke-width:3.125;"/></g><g class="link" data-entity-1="ent0003" data-entity-2="ent0005" data-link-type="dependency" id="lnk7"><polygon fill="#325D88" points="68.4237,173.9583,59.0487,169.7917,63.2154,173.9583,59.0487,178.125,68.4237,173.9583" style="stroke:#325D88;stroke-width:1.0417;stroke-linejoin:miter;stroke-miterlimit:10;"/><path d="M50.3825,173.9583 C56.3962,173.9583 57.2016,173.9583 63.2154,173.9583" fill="none" style="stroke:#325D88;stroke-width:3.125;"/></g><g class="link" data-entity-1="ent0005" data-entity-2="ent0008" data-link-type="dependency" id="lnk9"><polygon fill="#325D88" points="139.5229,173.9583,130.1479,169.7917,134.3146,173.9583,130.1479,178.125,139.5229,173.9583" style="stroke:#325D88;stroke-width:1.0417;stroke-linejoin:miter;stroke-miterlimit:10;"/><path d="M121.0775,173.9583 C127.226,173.9583 128.1661,173.9583 134.3146,173.9583" fill="none" style="stroke:#325D88;stroke-width:3.125;"/></g><g class="link" data-entity-1="ent0008" data-entity-2="ent0004" data-link-type="dependency" id="lnk10"><polygon fill="#325D88" points="165.625,237.2088,169.7917,227.8338,165.625,232.0004,161.4583,227.8338,165.625,237.2088" style="stroke:#325D88;stroke-width:1.0417;stroke-linejoin:miter;stroke-miterlimit:10;"/><path d="M165.625,200.0389 C165.625,212.6107 165.625,222.0368 165.625,232.0004" fill="none" style="stroke:#325D88;stroke-width:3.125;"/></g><g class="link" data-entity-1="ent0011" data-entity-2="ent0002" data-link-type="dependency" id="lnk12"><polygon fill="#325D88" points="94.7917,85.2618,98.9583,75.8868,94.7917,80.0535,90.625,75.8868,94.7917,85.2618" style="stroke:#325D88;stroke-width:1.0417;stroke-linejoin:miter;stroke-miterlimit:10;"/><path d="M94.7917,48.1073 C94.7917,58.8057 94.7917,69.3664 94.7917,80.0535" fill="none" style="stroke:#325D88;stroke-width:3.125;"/></g><g class="link" data-entity-1="ent0004" data-entity-2="ent0013" data-link-type="dependency" id="lnk14"><polygon fill="#325D88" points="165.625,299.7546,169.7917,290.3796,165.625,294.5463,161.4583,290.3796,165.625,299.7546" style="stroke:#325D88;stroke-width:1.0417;stroke-linejoin:miter;stroke-miterlimit:10;"/><path d="M165.625,262.5977 C165.625,272.5105 165.625,281.9392 165.625,294.5463" fill="none" style="stroke:#325D88;stroke-width:3.125;"/></g><g class="link" data-entity-1="ent0015" data-entity-2="ent0003" data-link-type="dependency" id="lnk16"><polygon fill="#325D88" points="45.4874,161.1469,52.6416,153.7937,47.2902,156.2605,44.8234,150.9092,45.4874,161.1469" style="stroke:#325D88;stroke-width:1.0417;stroke-linejoin:miter;stroke-miterlimit:10;"/><path d="M218.5154,147.6382 C211.9937,140.2512 203.9447,133.1532 194.7917,129.1667 C169.1123,117.9823 93.1472,115.4082 68.75,129.1667 C56.7185,135.9517 51.2293,145.5839 47.2902,156.2605" fill="none" style="stroke:#325D88;stroke-width:3.125;"/></g></g></svg>