<svg xmlns="http://www.w3.org/2000/svg" xmlns:xlink="http://www.w3.org/1999/xlink" contentStyleType="text/css" data-diagram-type="STATE" height="643.75px" preserveAspectRatio="none" style="width:387px;height:643px;" version="1.1" viewBox="0 0 387 643" width="387.5px" zoomAndPan="magnify"><defs><linearGradient id="g1j8bqutjk87yq0" x1="50%" x2="50%" y1="0%" y2="100%"><stop offset="0%" stop-color="#88B2C4"/><stop offset="100%" stop-color="#6A9FB5"/></linearGradient><linearGradient id="g1j8bqutjk87yq1" x1="50%" x2="50%" y1="0%" y2="100%"><stop offset="0%" stop-color="#D3F198"/><stop offset="100%" stop-color="#B5E853"/></linearGradient></defs><g><g id="elem_choice1"><polygon fill="url(#g1j8bqutjk87yq0)" points="258.3333,128.125,270.8333,140.625,258.3333,153.125,245.8333,140.625,258.3333,128.125" style="stroke:#88B2C4;stroke-width:1.0417;"/></g><rect fill="#90A959" height="8.3333" style="stroke:#FFFFFF00;stroke-width:1.0417;" width="83.3333" x="113.5417" y="233.3333"/><rect fill="#90A959" height="8.3333" style="stroke:#FFFFFF00;stroke-width:1.0417;" width="83.3333" x="121.875" y="489.0625"/><ellipse cx="298.9583" cy="244.7917" fill="#FFFFFF" fill-opacity="0.00000" rx="11.4583" ry="11.4583" style="stroke:#AA759F;stroke-width:1.0417;"/><ellipse cx="298.9583" cy="244.7917" fill="#FFFFFF" fill-opacity="0.00000" rx="6.25" ry="6.25" style="stroke:#AA759F;stroke-width:1.0417;"/><ellipse cx="258.3333" cy="33.3333" fill="#AA759F" rx="10.4167" ry="10.4167" style="stroke:#6D8B32;stroke-width:1.0417;"/><g id="State1"><rect fill="url(#g1j8bqutjk87yq1)" height="55.0049" rx="20.8333" ry="20.8333" style="stroke:#D3F198;stroke-width:1.0417;" width="68.87" x="16.6667" y="473.9583"/><line style="stroke:#D3F198;stroke-width:1.0417;" x1="16.6667" x2="85.5367" y1="508.1299" y2="508.1299"/><text fill="#FEFEFE" font-family="Verdana" font-size="11.4583" lengthAdjust="spacing" textLength="37.62" x="32.2917" y="495.0109">State1</text></g><g id="State2"><rect fill="url(#g1j8bqutjk87yq1)" height="55.0049" rx="20.8333" ry="20.8333" style="stroke:#D3F198;stroke-width:1.0417;" width="68.87" x="131.25" y="338.5417"/><line style="stroke:#D3F198;stroke-width:1.0417;" x1="131.25" x2="200.12" y1="372.7132" y2="372.7132"/><text fill="#FEFEFE" font-family="Verdana" font-size="11.4583" lengthAdjust="spacing" textLength="37.62" x="146.875" y="359.5942">State2</text></g><ellipse cx="106.25" cy="620.8333" fill="#FFFFFF" fill-opacity="0.00000" rx="11.4583" ry="11.4583" style="stroke:#AA759F;stroke-width:1.0417;"/><ellipse cx="106.25" cy="620.8333" fill="#FFFFFF" fill-opacity="0.00000" rx="6.25" ry="6.25" style="stroke:#AA759F;stroke-width:1.0417;"/><polygon fill="#B5E853" points="258.3333,127.8915,262.5,118.5165,258.3333,122.6832,254.1667,118.5165,258.3333,127.8915" style="stroke:#B5E853;stroke-width:1.0417;"/><path d="M258.3333,48.2881 C258.3333,68.1805 258.3333,101.8421 258.3333,121.6415 " fill="#FFFFFF" fill-opacity="0.00000" style="stroke:#B5E853;stroke-width:3.125;"/><text fill="#FFFFFF" font-family="Verdana" font-size="12.5" lengthAdjust="spacing" textLength="62.4512" x="265.625" y="85.5611">from start</text><text fill="#FFFFFF" font-family="Verdana" font-size="12.5" lengthAdjust="spacing" textLength="57.0007" x="268.3502" y="100.1119">to choice</text><polygon fill="#B5E853" points="151.5061,233.0819,153.1225,222.9508,150.1671,228.0486,145.0693,225.0932,151.5061,233.0819" style="stroke:#B5E853;stroke-width:1.0417;"/><path d="M245.7067,141.0749 C223.421,140.8059 177.4654,143.8912 156.25,171.875 C142.7883,189.6313 145.7373,211.3973 149.8993,227.042 " fill="#FFFFFF" fill-opacity="0.00000" style="stroke:#B5E853;stroke-width:3.125;"/><text fill="#FFFFFF" font-family="Verdana" font-size="12.5" lengthAdjust="spacing" textLength="73.8159" x="163.5417" y="190.7694">from choice</text><text fill="#FFFFFF" font-family="Verdana" font-size="12.5" lengthAdjust="spacing" textLength="40.9485" x="179.9754" y="205.3202">to fork</text><polygon fill="#B5E853" points="200.1308,489.0475,210.3898,489.1223,204.9056,486.9669,207.0609,481.4827,200.1308,489.0475" style="stroke:#B5E853;stroke-width:1.0417;"/><path d="M259.2559,153.3738 C263.0239,203.9495 275.587,403.4573 243.75,455.2083 C233.945,471.1463 222.0784,479.4841 205.8605,486.5508 " fill="#FFFFFF" fill-opacity="0.00000" style="stroke:#B5E853;stroke-width:3.125;"/><text fill="#FFFFFF" font-family="Verdana" font-size="12.5" lengthAdjust="spacing" textLength="73.8159" x="271.875" y="295.9778">from choice</text><text fill="#FFFFFF" font-family="Verdana" font-size="12.5" lengthAdjust="spacing" textLength="39.0381" x="289.2639" y="310.5286">to join</text><polygon fill="#B5E853" points="295.2702,233.2806,296.3165,223.0748,293.6513,228.3302,288.3959,225.6651,295.2702,233.2806" style="stroke:#B5E853;stroke-width:1.0417;"/><path d="M264.3072,153.2975 C267.0696,158.8567 270.3084,165.6434 272.9167,171.875 C281.8434,193.2029 288.5878,212.8468 293.3275,227.3402 " fill="#FFFFFF" fill-opacity="0.00000" style="stroke:#B5E853;stroke-width:3.125;"/><text fill="#FFFFFF" font-family="Verdana" font-size="12.5" lengthAdjust="spacing" textLength="73.8159" x="294.7917" y="190.7694">from choice</text><text fill="#FFFFFF" font-family="Verdana" font-size="12.5" lengthAdjust="spacing" textLength="40.0696" x="311.6648" y="205.3202">to end</text><polygon fill="#B5E853" points="44.308,473.867,46.4622,463.8365,43.2392,468.7695,38.3062,465.5465,44.308,473.867" style="stroke:#B5E853;stroke-width:1.0417;"/><path d="M132.8897,258.5284 C107.3759,273.2643 66.957,301.2767 50,338.5417 C29.9664,382.5677 36.0406,434.4368 43.0255,467.75 " fill="#FFFFFF" fill-opacity="0.00000" style="stroke:#B5E853;stroke-width:3.125;"/><text fill="#FFFFFF" font-family="Verdana" font-size="12.5" lengthAdjust="spacing" textLength="57.7637" x="57.2917" y="363.6861">from fork</text><text fill="#FFFFFF" font-family="Verdana" font-size="12.5" lengthAdjust="spacing" textLength="48.1873" x="62.0799" y="378.2369">to state</text><polygon fill="#B5E853" points="163.2686,338.3592,166.5964,328.6547,162.8115,333.171,158.2952,329.3861,163.2686,338.3592" style="stroke:#B5E853;stroke-width:1.0417;"/><path d="M156.2452,258.6435 C157.8714,277.1003 160.5146,307.1016 162.7201,332.1334 " fill="#FFFFFF" fill-opacity="0.00000" style="stroke:#B5E853;stroke-width:3.125;"/><text fill="#FFFFFF" font-family="Verdana" font-size="12.5" lengthAdjust="spacing" textLength="57.7637" x="168.75" y="295.9778">from fork</text><text fill="#FFFFFF" font-family="Verdana" font-size="12.5" lengthAdjust="spacing" textLength="48.1873" x="173.5382" y="310.5286">to state</text><polygon fill="#B5E853" points="163.6384,488.845,167.8879,479.5073,163.6845,483.6369,159.5549,479.4335,163.6384,488.845" style="stroke:#B5E853;stroke-width:1.0417;"/><path d="M164.9587,394.022 C164.8215,400.0979 164.6874,406.5206 164.5833,412.5 C164.1071,439.8515 163.8429,465.7379 163.6937,482.5953 " fill="#FFFFFF" fill-opacity="0.00000" style="stroke:#B5E853;stroke-width:3.125;"/><text fill="#FFFFFF" font-family="Verdana" font-size="12.5" lengthAdjust="spacing" textLength="65.0024" x="171.875" y="431.3944">from state</text><text fill="#FFFFFF" font-family="Verdana" font-size="12.5" lengthAdjust="spacing" textLength="39.0381" x="184.8572" y="445.9452">to join</text><polygon fill="#B5E853" points="94.4116,617.2946,86.9805,610.2214,89.5058,615.5454,84.1818,618.0708,94.4116,617.2946" style="stroke:#B5E853;stroke-width:1.0417;"/><path d="M46.419,529.541 C44.6612,548.0252 45.2515,572.4096 56.25,590.625 C64.7423,604.6898 76.6222,610.9518 88.5247,615.1956 " fill="#FFFFFF" fill-opacity="0.00000" style="stroke:#B5E853;stroke-width:3.125;"/><text fill="#FFFFFF" font-family="Verdana" font-size="12.5" lengthAdjust="spacing" textLength="65.0024" x="63.5417" y="566.8111">from state</text><text fill="#FFFFFF" font-family="Verdana" font-size="12.5" lengthAdjust="spacing" textLength="40.0696" x="76.0081" y="581.3619">to end</text><polygon fill="#B5E853" points="117.8186,611.2109,127.539,607.9298,121.6515,607.6845,121.8968,601.7971,117.8186,611.2109" style="stroke:#B5E853;stroke-width:1.0417;"/><path d="M161.6041,514.1336 C158.2896,531.6461 150.3921,565.5606 135.4167,590.625 C130.7802,598.3851 128.3917,601.4834 122.4181,606.9793 " fill="#FFFFFF" fill-opacity="0.00000" style="stroke:#B5E853;stroke-width:3.125;"/><text fill="#FFFFFF" font-family="Verdana" font-size="12.5" lengthAdjust="spacing" textLength="55.8533" x="160.4167" y="566.8111">from join</text><text fill="#FFFFFF" font-family="Verdana" font-size="12.5" lengthAdjust="spacing" textLength="40.0696" x="168.3085" y="581.3619">to end</text></g></svg>