<svg xmlns="http://www.w3.org/2000/svg" xmlns:xlink="http://www.w3.org/1999/xlink" contentStyleType="text/css" data-diagram-type="TIMING" height="198px" preserveAspectRatio="none" style="width:482px;height:198px;background:#FFFFFF;" version="1.1" viewBox="0 0 482 198" width="482px" zoomAndPan="magnify"><defs/><g><line style="stroke:#333333;stroke-width:0.5;" x1="10" x2="10" y1="10" y2="168.5313"/><line style="stroke:#333333;stroke-width:0.5;" x1="465.8145" x2="465.8145" y1="10" y2="168.5313"/><rect fill="#FFD700" height="158.5313" style="stroke:#FFFFFF00;stroke-width:1;" width="125" x="160.8145" y="10"/><rect fill="#EEEEEE" height="158.5313" style="stroke:#FFFFFF00;stroke-width:1;" width="50" x="360.8145" y="10"/><line style="stroke:#333333;stroke-width:0.5;stroke-dasharray:3.0,5.0;" x1="60.8145" x2="60.8145" y1="10" y2="168.5313"/><line style="stroke:#333333;stroke-width:0.5;stroke-dasharray:3.0,5.0;" x1="110.8145" x2="110.8145" y1="10" y2="168.5313"/><line style="stroke:#333333;stroke-width:0.5;stroke-dasharray:3.0,5.0;" x1="160.8145" x2="160.8145" y1="10" y2="168.5313"/><line style="stroke:#333333;stroke-width:0.5;stroke-dasharray:3.0,5.0;" x1="210.8145" x2="210.8145" y1="10" y2="168.5313"/><line style="stroke:#333333;stroke-width:0.5;stroke-dasharray:3.0,5.0;" x1="260.8145" x2="260.8145" y1="10" y2="168.5313"/><line style="stroke:#333333;stroke-width:0.5;stroke-dasharray:3.0,5.0;" x1="310.8145" x2="310.8145" y1="10" y2="168.5313"/><line style="stroke:#333333;stroke-width:0.5;stroke-dasharray:3.0,5.0;" x1="360.8145" x2="360.8145" y1="10" y2="168.5313"/><line style="stroke:#333333;stroke-width:0.5;stroke-dasharray:3.0,5.0;" x1="410.8145" x2="410.8145" y1="10" y2="168.5313"/><line style="stroke:#333333;stroke-width:0.5;stroke-dasharray:3.0,5.0;" x1="460.8145" x2="460.8145" y1="10" y2="168.5313"/><line style="stroke:#333333;stroke-width:0.5;" x1="10" x2="465.8145" y1="10" y2="10"/><text fill="#333333" font-family="sans-serif" font-size="14" font-weight="bold" lengthAdjust="spacing" textLength="104.6924" x="15" y="22.9951">Web Browser</text><line style="stroke:#333333;stroke-width:0.5;" x1="10" x2="120.6924" y1="27.2969" y2="27.2969"/><line style="stroke:#333333;stroke-width:0.5;" x1="120.6924" x2="130.6924" y1="27.2969" y2="10"/><text fill="#333333" font-family="sans-serif" font-size="12" lengthAdjust="spacing" textLength="21.873" x="15" y="105.3887">Idle</text><text fill="#333333" font-family="sans-serif" font-size="12" lengthAdjust="spacing" textLength="29.9238" x="15" y="85.3887">Proc.</text><text fill="#333333" font-family="sans-serif" font-size="12" lengthAdjust="spacing" textLength="45.8145" x="15" y="65.3887">Waiting</text><line style="stroke:#006400;stroke-width:2;" x1="60.8145" x2="160.8145" y1="100.2344" y2="100.2344"/><line style="stroke:#006400;stroke-width:2;" x1="160.8145" x2="210.8145" y1="80.2344" y2="80.2344"/><line style="stroke:#006400;stroke-width:2;" x1="210.8145" x2="410.8145" y1="60.2344" y2="60.2344"/><line style="stroke:#006400;stroke-width:2;" x1="410.8145" x2="460.8145" y1="100.2344" y2="100.2344"/><line style="stroke:#006400;stroke-width:2;" x1="160.8145" x2="160.8145" y1="80.2344" y2="100.2344"/><line style="stroke:#006400;stroke-width:2;" x1="210.8145" x2="210.8145" y1="60.2344" y2="80.2344"/><line style="stroke:#006400;stroke-width:2;" x1="410.8145" x2="410.8145" y1="60.2344" y2="100.2344"/><line style="stroke:#333333;stroke-width:0.5;" x1="10" x2="465.8145" y1="112.2344" y2="112.2344"/><text fill="#333333" font-family="sans-serif" font-size="14" font-weight="bold" lengthAdjust="spacing" textLength="75.9336" x="15" y="125.2295">Web User</text><line style="stroke:#333333;stroke-width:0.5;" x1="10" x2="91.9336" y1="129.5313" y2="129.5313"/><line style="stroke:#333333;stroke-width:0.5;" x1="91.9336" x2="101.9336" y1="129.5313" y2="112.2344"/><polygon fill="#E2E2F0" points="72.8145,134.5313,98.8145,134.5313,110.8145,146.5313,98.8145,158.5313,72.8145,158.5313,60.8145,146.5313" style="stroke:#006400;stroke-width:1.5;"/><polygon fill="#E0FFFF" points="122.8145,134.5313,298.8145,134.5313,310.8145,146.5313,298.8145,158.5313,122.8145,158.5313,110.8145,146.5313" style="stroke:#00FFFF;stroke-width:1.5;"/><polygon fill="#E2E2F0" points="322.8145,134.5313,460.8145,134.5313,460.8145,158.5313,322.8145,158.5313,310.8145,146.5313" style="stroke:#E2E2F0;stroke-width:1.5;"/><path d="M460.8145,134.5313 L322.8145,134.5313 L310.8145,146.5313 L322.8145,158.5313 L460.8145,158.5313 " fill="#E2E2F0" style="stroke:#006400;stroke-width:1.5;"/><text fill="#333333" font-family="sans-serif" font-size="12" font-weight="bold" lengthAdjust="spacing" textLength="25.3066" x="73.1611" y="150.6855">Idle</text><text fill="#333333" font-family="sans-serif" font-size="12" font-weight="bold" lengthAdjust="spacing" textLength="52.4297" x="184.5996" y="150.6855">Waiting</text><text fill="#333333" font-family="sans-serif" font-size="12" font-weight="bold" lengthAdjust="spacing" textLength="16.2246" x="322.8145" y="150.6855">ok</text><line style="stroke:#333333;stroke-width:2;" x1="60.8145" x2="60.8145" y1="168.5313" y2="173.5313"/><line style="stroke:#333333;stroke-width:2;" x1="110.8145" x2="110.8145" y1="168.5313" y2="173.5313"/><line style="stroke:#333333;stroke-width:2;" x1="160.8145" x2="160.8145" y1="168.5313" y2="173.5313"/><line style="stroke:#333333;stroke-width:2;" x1="210.8145" x2="210.8145" y1="168.5313" y2="173.5313"/><line style="stroke:#333333;stroke-width:2;" x1="260.8145" x2="260.8145" y1="168.5313" y2="173.5313"/><line style="stroke:#333333;stroke-width:2;" x1="310.8145" x2="310.8145" y1="168.5313" y2="173.5313"/><line style="stroke:#333333;stroke-width:2;" x1="360.8145" x2="360.8145" y1="168.5313" y2="173.5313"/><line style="stroke:#333333;stroke-width:2;" x1="410.8145" x2="410.8145" y1="168.5313" y2="173.5313"/><line style="stroke:#333333;stroke-width:2;" x1="460.8145" x2="460.8145" y1="168.5313" y2="173.5313"/><line style="stroke:#333333;stroke-width:2;" x1="60.8145" x2="460.8145" y1="168.5313" y2="168.5313"/><text fill="#333333" font-family="sans-serif" font-size="11" lengthAdjust="spacing" textLength="6.9985" x="57.3152" y="184.7417">0</text><text fill="#333333" font-family="sans-serif" font-size="11" lengthAdjust="spacing" textLength="20.9956" x="100.3167" y="184.7417">100</text><text fill="#333333" font-family="sans-serif" font-size="11" lengthAdjust="spacing" textLength="20.9956" x="150.3167" y="184.7417">200</text><text fill="#333333" font-family="sans-serif" font-size="11" lengthAdjust="spacing" textLength="20.9956" x="200.3167" y="184.7417">300</text><text fill="#333333" font-family="sans-serif" font-size="11" lengthAdjust="spacing" textLength="20.9956" x="300.3167" y="184.7417">500</text><text fill="#333333" font-family="sans-serif" font-size="11" lengthAdjust="spacing" textLength="20.9956" x="400.3167" y="184.7417">700</text><line style="stroke:#454645;stroke-width:1.5;" x1="110.8145" x2="110.8145" y1="146.5313" y2="100.2344"/><polygon fill="#454645" points="113.5506,107.7519,108.0783,107.7519,110.8145,100.2344" style="stroke:#454645;stroke-width:1.5;"/><text fill="#00008B" font-family="Serif" font-size="14" lengthAdjust="spacing" textLength="31.6367" x="110.8145" y="120.747">URL</text><line style="stroke:#454645;stroke-width:1.5;" x1="210.8145" x2="235.8145" y1="134.5313" y2="60.2344"/><polygon fill="#454645" points="236.0103,68.232,230.8237,66.4868,235.8145,60.2344" style="stroke:#454645;stroke-width:1.5;"/><text fill="#00008B" font-family="Serif" font-size="14" lengthAdjust="spacing" textLength="40.5439" x="233.417" y="80.3545">URL2</text><line style="stroke:#696969;stroke-width:2;stroke-dasharray:4.0,4.0;" x1="160.8145" x2="160.8145" y1="10" y2="168.5313"/><line style="stroke:#696969;stroke-width:2;stroke-dasharray:4.0,4.0;" x1="285.8145" x2="285.8145" y1="10" y2="168.5313"/><text fill="#000000" font-family="sans-serif" font-size="12" lengthAdjust="spacing" textLength="108.8965" x="163.8145" y="23.1387">This is my caption</text><line style="stroke:#333333;stroke-width:2;stroke-dasharray:4.0,4.0;" x1="360.8145" x2="360.8145" y1="10" y2="168.5313"/><line style="stroke:#333333;stroke-width:2;stroke-dasharray:4.0,4.0;" x1="410.8145" x2="410.8145" y1="10" y2="168.5313"/><text fill="#000000" font-family="sans-serif" font-size="12" lengthAdjust="spacing" textLength="88.6641" x="363.8145" y="23.1387">This is another</text><text fill="#000000" font-family="sans-serif" font-size="12" lengthAdjust="spacing" textLength="52.7578" x="363.8145" y="37.1074">highlight</text></g></svg>