<svg xmlns="http://www.w3.org/2000/svg" xmlns:xlink="http://www.w3.org/1999/xlink" contentStyleType="text/css" data-diagram-type="TIMING" height="510.4167px" preserveAspectRatio="none" style="width:485px;height:510px;" version="1.1" viewBox="0 0 485 510" width="485.4167px" zoomAndPan="magnify"><defs/><g><rect fill="#FFFFCC" height="27.7507" rx="2.6042" ry="2.6042" style="stroke:#FFDD88;stroke-width:3.125;" width="474.5341" x="5.2083" y="5.2083"/><text fill="#000000" font-family="monospace" font-size="10.4167" lengthAdjust="spacing" textLength="370.0104" x="10.4167" y="20.8333">Please&#160;use&#160;'!option&#160;handwritten&#160;true'&#160;to&#160;enable&#160;handwritten</text><path d="M10.4167,48.584 L10.7086,48.584 L9.8412,58.9459 L10.6851,69.3078 L10.9718,79.6696 L9.4258,90.0315 L10.3087,100.3934 L9.8243,110.7553 L9.884,121.1172 L10.322,131.4791 L9.4564,141.8409 L11.1856,152.2028 L9.5413,162.5647 L10.142,172.9266 L11.0166,183.2885 L10.2975,193.6504 L10.5114,204.0122 L10.3723,214.3741 L10.6646,224.736 L10.7488,235.0979 L11.2301,245.4598 L11.3487,255.8217 L11.3601,266.1835 L10.7703,276.5454 L11.0605,286.9073 L11.392,297.2692 L9.415,307.6311 L11.359,317.993 L10.0049,328.3548 L11.1581,338.7167 L9.7291,349.0786 L10.3215,359.4405 L11.4467,369.8024 L10.349,380.1643 L10.5629,390.5262 L10.887,400.888 L10.9948,411.2499 L10.4112,421.6118 L10.8156,431.9737 L9.6216,442.3356 L10.8116,452.6975 L11.178,463.0593 L10.4167,473.4212 " fill="#FFFFFF" fill-opacity="0.00000" style="stroke:#2E2E2E;stroke-width:1.0417;"/><path d="M452.6591,48.584 L452.951,48.584 L452.0837,58.9459 L452.9276,69.3078 L453.2142,79.6696 L451.6683,90.0315 L452.5512,100.3934 L452.0667,110.7553 L452.1265,121.1172 L452.5644,131.4791 L451.6989,141.8409 L453.428,152.2028 L451.7837,162.5647 L452.3844,172.9266 L453.259,183.2885 L452.54,193.6504 L452.7539,204.0122 L452.6147,214.3741 L452.9071,224.736 L452.9912,235.0979 L453.4726,245.4598 L453.5911,255.8217 L453.6025,266.1835 L453.0127,276.5454 L453.303,286.9073 L453.6344,297.2692 L451.6575,307.6311 L453.6015,317.993 L452.2473,328.3548 L453.4005,338.7167 L451.9716,349.0786 L452.564,359.4405 L453.6891,369.8024 L452.5914,380.1643 L452.8054,390.5262 L453.1294,400.888 L453.2372,411.2499 L452.6537,421.6118 L453.058,431.9737 L451.8641,442.3356 L453.0541,452.6975 L453.4205,463.0593 L452.6591,473.4212 " fill="#FFFFFF" fill-opacity="0.00000" style="stroke:#2E2E2E;stroke-width:1.0417;"/><path d="M134.9508,48.584 L135.2427,48.584 L134.3753,58.9459 L135.2192,69.3078 L135.5059,79.6696 L133.9599,90.0315 L134.8428,100.3934 L134.3584,110.7553 L134.4181,121.1172 L134.8561,131.4791 L133.9905,141.8409 L135.7197,152.2028 L134.0754,162.5647 L134.6761,172.9266 L135.5507,183.2885 L134.8316,193.6504 L135.0455,204.0122 L134.9064,214.3741 L135.1987,224.736 L135.2829,235.0979 L135.7642,245.4598 L135.8828,255.8217 L135.8942,266.1835 L135.3044,276.5454 L135.5946,286.9073 L135.9261,297.2692 L133.9491,307.6311 L135.8931,317.993 L134.539,328.3548 L135.6922,338.7167 L134.2632,349.0786 L134.8556,359.4405 L135.9808,369.8024 L134.8831,380.1643 L135.097,390.5262 L135.4211,400.888 L135.5289,411.2499 L134.9453,421.6118 L135.3497,431.9737 L134.1557,442.3356 L135.3457,452.6975 L135.7121,463.0593 L134.9508,473.4212 " fill="#FFFFFF" fill-opacity="0.00000" style="stroke:#2E2E2E;stroke-width:0.5208;stroke-dasharray:3.0,5.0;"/><path d="M187.0341,48.584 L187.326,48.584 L186.4587,58.9459 L187.3026,69.3078 L187.5892,79.6696 L186.0433,90.0315 L186.9262,100.3934 L186.4417,110.7553 L186.5015,121.1172 L186.9394,131.4791 L186.0739,141.8409 L187.803,152.2028 L186.1587,162.5647 L186.7594,172.9266 L187.634,183.2885 L186.915,193.6504 L187.1289,204.0122 L186.9897,214.3741 L187.2821,224.736 L187.3662,235.0979 L187.8476,245.4598 L187.9661,255.8217 L187.9775,266.1835 L187.3877,276.5454 L187.678,286.9073 L188.0094,297.2692 L186.0325,307.6311 L187.9765,317.993 L186.6223,328.3548 L187.7755,338.7167 L186.3466,349.0786 L186.939,359.4405 L188.0641,369.8024 L186.9664,380.1643 L187.1804,390.5262 L187.5044,400.888 L187.6122,411.2499 L187.0287,421.6118 L187.433,431.9737 L186.2391,442.3356 L187.4291,452.6975 L187.7955,463.0593 L187.0341,473.4212 " fill="#FFFFFF" fill-opacity="0.00000" style="stroke:#2E2E2E;stroke-width:0.5208;stroke-dasharray:3.0,5.0;"/><path d="M239.1174,48.584 L239.4094,48.584 L238.542,58.9459 L239.3859,69.3078 L239.6725,79.6696 L238.1266,90.0315 L239.0095,100.3934 L238.5251,110.7553 L238.5848,121.1172 L239.0228,131.4791 L238.1572,141.8409 L239.8864,152.2028 L238.242,162.5647 L238.8428,172.9266 L239.7174,183.2885 L238.9983,193.6504 L239.2122,204.0122 L239.0731,214.3741 L239.3654,224.736 L239.4496,235.0979 L239.9309,245.4598 L240.0495,255.8217 L240.0608,266.1835 L239.4711,276.5454 L239.7613,286.9073 L240.0928,297.2692 L238.1158,307.6311 L240.0598,317.993 L238.7056,328.3548 L239.8588,338.7167 L238.4299,349.0786 L239.0223,359.4405 L240.1474,369.8024 L239.0497,380.1643 L239.2637,390.5262 L239.5877,400.888 L239.6955,411.2499 L239.112,421.6118 L239.5163,431.9737 L238.3224,442.3356 L239.5124,452.6975 L239.8788,463.0593 L239.1174,473.4212 " fill="#FFFFFF" fill-opacity="0.00000" style="stroke:#2E2E2E;stroke-width:0.5208;stroke-dasharray:3.0,5.0;"/><path d="M291.2008,48.584 L291.4927,48.584 L290.6253,58.9459 L291.4692,69.3078 L291.7559,79.6696 L290.2099,90.0315 L291.0928,100.3934 L290.6084,110.7553 L290.6681,121.1172 L291.1061,131.4791 L290.2405,141.8409 L291.9697,152.2028 L290.3254,162.5647 L290.9261,172.9266 L291.8007,183.2885 L291.0816,193.6504 L291.2955,204.0122 L291.1564,214.3741 L291.4487,224.736 L291.5329,235.0979 L292.0142,245.4598 L292.1328,255.8217 L292.1442,266.1835 L291.5544,276.5454 L291.8446,286.9073 L292.1761,297.2692 L290.1991,307.6311 L292.1431,317.993 L290.789,328.3548 L291.9422,338.7167 L290.5132,349.0786 L291.1056,359.4405 L292.2308,369.8024 L291.1331,380.1643 L291.347,390.5262 L291.6711,400.888 L291.7789,411.2499 L291.1953,421.6118 L291.5997,431.9737 L290.4057,442.3356 L291.5957,452.6975 L291.9621,463.0593 L291.2008,473.4212 " fill="#FFFFFF" fill-opacity="0.00000" style="stroke:#2E2E2E;stroke-width:0.5208;stroke-dasharray:3.0,5.0;"/><path d="M343.2841,48.584 L343.576,48.584 L342.7087,58.9459 L343.5526,69.3078 L343.8392,79.6696 L342.2933,90.0315 L343.1762,100.3934 L342.6917,110.7553 L342.7515,121.1172 L343.1894,131.4791 L342.3239,141.8409 L344.053,152.2028 L342.4087,162.5647 L343.0094,172.9266 L343.884,183.2885 L343.165,193.6504 L343.3789,204.0122 L343.2397,214.3741 L343.5321,224.736 L343.6162,235.0979 L344.0976,245.4598 L344.2161,255.8217 L344.2275,266.1835 L343.6377,276.5454 L343.928,286.9073 L344.2594,297.2692 L342.2825,307.6311 L344.2265,317.993 L342.8723,328.3548 L344.0255,338.7167 L342.5966,349.0786 L343.189,359.4405 L344.3141,369.8024 L343.2164,380.1643 L343.4304,390.5262 L343.7544,400.888 L343.8622,411.2499 L343.2787,421.6118 L343.683,431.9737 L342.4891,442.3356 L343.6791,452.6975 L344.0455,463.0593 L343.2841,473.4212 " fill="#FFFFFF" fill-opacity="0.00000" style="stroke:#2E2E2E;stroke-width:0.5208;stroke-dasharray:3.0,5.0;"/><path d="M395.3674,48.584 L395.6594,48.584 L394.792,58.9459 L395.6359,69.3078 L395.9225,79.6696 L394.3766,90.0315 L395.2595,100.3934 L394.7751,110.7553 L394.8348,121.1172 L395.2728,131.4791 L394.4072,141.8409 L396.1364,152.2028 L394.492,162.5647 L395.0928,172.9266 L395.9674,183.2885 L395.2483,193.6504 L395.4622,204.0122 L395.3231,214.3741 L395.6154,224.736 L395.6996,235.0979 L396.1809,245.4598 L396.2995,255.8217 L396.3108,266.1835 L395.7211,276.5454 L396.0113,286.9073 L396.3428,297.2692 L394.3658,307.6311 L396.3098,317.993 L394.9556,328.3548 L396.1088,338.7167 L394.6799,349.0786 L395.2723,359.4405 L396.3974,369.8024 L395.2997,380.1643 L395.5137,390.5262 L395.8377,400.888 L395.9455,411.2499 L395.362,421.6118 L395.7663,431.9737 L394.5724,442.3356 L395.7624,452.6975 L396.1288,463.0593 L395.3674,473.4212 " fill="#FFFFFF" fill-opacity="0.00000" style="stroke:#2E2E2E;stroke-width:0.5208;stroke-dasharray:3.0,5.0;"/><path d="M447.4508,48.584 L447.7427,48.584 L446.8753,58.9459 L447.7192,69.3078 L448.0059,79.6696 L446.4599,90.0315 L447.3428,100.3934 L446.8584,110.7553 L446.9181,121.1172 L447.3561,131.4791 L446.4905,141.8409 L448.2197,152.2028 L446.5754,162.5647 L447.1761,172.9266 L448.0507,183.2885 L447.3316,193.6504 L447.5455,204.0122 L447.4064,214.3741 L447.6987,224.736 L447.7829,235.0979 L448.2642,245.4598 L448.3828,255.8217 L448.3942,266.1835 L447.8044,276.5454 L448.0946,286.9073 L448.4261,297.2692 L446.4491,307.6311 L448.3931,317.993 L447.039,328.3548 L448.1922,338.7167 L446.7632,349.0786 L447.3556,359.4405 L448.4808,369.8024 L447.3831,380.1643 L447.597,390.5262 L447.9211,400.888 L448.0289,411.2499 L447.4453,421.6118 L447.8497,431.9737 L446.6557,442.3356 L447.8457,452.6975 L448.2121,463.0593 L447.4508,473.4212 " fill="#FFFFFF" fill-opacity="0.00000" style="stroke:#2E2E2E;stroke-width:0.5208;stroke-dasharray:3.0,5.0;"/><path d="M10.4167,48.584 L10.4167,48.8759 L20.9462,48.0085 L31.4758,48.8524 L42.0054,49.1391 L52.535,47.5932 L63.0646,48.476 L73.5942,47.9916 L84.1237,48.0513 L94.6533,48.4893 L105.1829,47.6237 L115.7125,49.3529 L126.2421,47.7086 L136.7716,48.3093 L147.3012,49.1839 L157.8308,48.4649 L168.3604,48.6788 L178.89,48.5396 L189.4196,48.8319 L199.9491,48.9161 L210.4787,49.3974 L221.0083,49.516 L231.5379,49.5274 L242.0675,48.9376 L252.597,49.2279 L263.1266,49.5593 L273.6562,47.5823 L284.1858,49.5264 L294.7154,48.1722 L305.245,49.3254 L315.7745,47.8965 L326.3041,48.4888 L336.8337,49.614 L347.3633,48.5163 L357.8929,48.7302 L368.4224,49.0543 L378.952,49.1621 L389.4816,48.5786 L400.0112,48.9829 L410.5408,47.789 L421.0704,48.979 L431.5999,49.3454 L442.1295,49.2014 L452.6591,48.584 " fill="#FFFFFF" fill-opacity="0.00000" style="stroke:#2E2E2E;stroke-width:1.0417;"/><text fill="#2E2E2E" font-family="Segoe Print" font-size="12.5" font-weight="bold" lengthAdjust="spacing" textLength="93.4753" x="20.8333" y="65.3951">Web Browser</text><path d="M10.4167,74.5931 L10.4167,74.885 L20.4296,74.0177 L30.4425,74.8616 L40.4554,75.1482 L50.4683,73.6023 L60.4812,74.4852 L70.4941,74.0007 L80.507,74.0605 L90.5199,74.4984 L100.5329,73.6329 L110.5458,75.362 L120.5587,74.5931 " fill="#FFFFFF" fill-opacity="0.00000" style="stroke:#2E2E2E;stroke-width:1.0417;"/><path d="M120.5587,74.5931 L120.649,74.6293 L122.4639,69.32 L124.8084,64.2227 L126.9804,59.0564 L128.5854,53.663 L130.9753,48.584 " fill="#FFFFFF" fill-opacity="0.00000" style="stroke:#2E2E2E;stroke-width:1.0417;"/><text fill="#2E2E2E" font-family="Segoe Print" font-size="12.5" lengthAdjust="spacing" textLength="63.9526" x="20.8333" y="177.8463">Initializing</text><text fill="#2E2E2E" font-family="Segoe Print" font-size="12.5" lengthAdjust="spacing" textLength="22.5708" x="20.8333" y="157.0129">idle</text><text fill="#2E2E2E" font-family="Segoe Print" font-size="12.5" lengthAdjust="spacing" textLength="67.2424" x="20.8333" y="136.1796">Processing</text><text fill="#2E2E2E" font-family="Segoe Print" font-size="12.5" lengthAdjust="spacing" textLength="47.7234" x="20.8333" y="115.3463">Waiting</text><path d="M93.2841,172.4772 L93.2841,172.5745 L101.6174,172.2854 L109.9508,172.5667 L118.2841,172.6623 L126.6174,172.1469 L134.9508,172.4772 " fill="#FFFFFF" fill-opacity="0.00000" style="stroke:#2E2E2E;stroke-width:1.0417;"/><path d="M134.9508,151.6439 L134.9508,151.9358 L145.3674,151.0684 L155.7841,151.9123 L166.2008,152.199 L176.6174,150.6531 L187.0341,151.5359 L197.4508,151.0515 L207.8674,151.1112 L218.2841,151.5492 L228.7008,150.6836 L239.1174,151.6439 " fill="#FFFFFF" fill-opacity="0.00000" style="stroke:#2E2E2E;stroke-width:1.0417;"/><path d="M239.1174,130.8105 L239.1174,131.1025 L249.5341,130.2351 L259.9508,131.079 L270.3674,131.3657 L280.7841,129.8197 L291.2008,130.8105 " fill="#FFFFFF" fill-opacity="0.00000" style="stroke:#2E2E2E;stroke-width:1.0417;"/><path d="M291.2008,109.9772 L291.2008,110.2691 L301.6174,109.4018 L312.0341,110.2457 L322.4508,110.5323 L332.8674,108.9864 L343.2841,109.8693 L353.7008,109.3849 L364.1174,109.4446 L374.5341,109.8826 L384.9508,109.017 L395.3674,110.7462 L405.7841,109.1018 L416.2008,109.7025 L426.6174,110.5771 L437.0341,109.8581 L447.4508,109.9772 " fill="#FFFFFF" fill-opacity="0.00000" style="stroke:#2E2E2E;stroke-width:1.0417;"/><path d="M134.9508,151.6439 L135.0481,151.6439 L134.7589,155.8105 L135.0402,159.9772 L135.1358,164.1439 L134.6205,168.3105 L134.9508,172.4772 " fill="#FFFFFF" fill-opacity="0.00000" style="stroke:#2E2E2E;stroke-width:1.0417;"/><path d="M239.1174,130.8105 L239.2147,130.8105 L238.9256,134.9772 L239.2069,139.1439 L239.3025,143.3105 L238.7872,147.4772 L239.1174,151.6439 " fill="#FFFFFF" fill-opacity="0.00000" style="stroke:#2E2E2E;stroke-width:1.0417;"/><path d="M291.2008,109.9772 L291.2981,109.9772 L291.0089,114.1439 L291.2902,118.3105 L291.3858,122.4772 L290.8705,126.6439 L291.2008,130.8105 " fill="#FFFFFF" fill-opacity="0.00000" style="stroke:#2E2E2E;stroke-width:1.0417;"/><path d="M137.5549,146.4355 L137.5549,146.5329 L141.7216,146.2437 L145.8883,146.525 L150.0549,146.6206 L154.2216,146.1053 L158.3883,146.4355 " fill="#2E2E2E" style="stroke:#2E2E2E;stroke-width:1.0417;"/><polygon fill="#2E2E2E" points="145.8883,150.6022,145.9612,150.6022,145.7444,148.9355,145.9554,147.2689,146.027,145.6022,145.6406,143.9355,145.8883,142.2689,145.8762,142.2447,144.1554,142.9698,142.4954,143.8164,140.8777,144.7477,139.1142,145.3875,137.5549,146.4355,137.6409,146.6075,139.1237,147.0731,140.8576,148.0408,142.622,149.0697,144.2083,149.7422,145.8883,150.6022" style="stroke:#2E2E2E;stroke-width:1.0417;"/><polygon fill="#2E2E2E" points="150.0549,150.6022,150.0786,150.6022,150.0438,148.9355,150.1169,147.2689,150.138,145.6022,150.2583,143.9355,150.0549,142.2689,150.1591,142.4773,151.8271,143.3132,153.4278,144.0146,155.1269,144.9129,156.8306,145.8203,158.3883,146.4355,158.2763,146.2116,156.827,147.4796,155.0089,148.0101,153.4712,149.1013,151.6447,149.6151,150.0549,150.6022" style="stroke:#2E2E2E;stroke-width:1.0417;"/><text fill="#2E2E2E" font-family="Segoe Print" font-size="12.5" lengthAdjust="spacing" textLength="77.5146" x="109.2143" y="133.0709">{50 ms lag}</text><path d="M10.4167,184.9772 L10.4167,185.2691 L20.9462,184.4018 L31.4758,185.2457 L42.0054,185.5323 L52.535,183.9864 L63.0646,184.8693 L73.5942,184.3849 L84.1237,184.4446 L94.6533,184.8826 L105.1829,184.017 L115.7125,185.7462 L126.2421,184.1018 L136.7716,184.7025 L147.3012,185.5771 L157.8308,184.8581 L168.3604,185.072 L178.89,184.9328 L189.4196,185.2252 L199.9491,185.3093 L210.4787,185.7907 L221.0083,185.9092 L231.5379,185.9206 L242.0675,185.3309 L252.597,185.6211 L263.1266,185.9525 L273.6562,183.9756 L284.1858,185.9196 L294.7154,184.5654 L305.245,185.7186 L315.7745,184.2897 L326.3041,184.8821 L336.8337,186.0072 L347.3633,184.9095 L357.8929,185.1235 L368.4224,185.4475 L378.952,185.5553 L389.4816,184.9718 L400.0112,185.3761 L410.5408,184.1822 L421.0704,185.3722 L431.5999,185.7386 L442.1295,185.5946 L452.6591,184.9772 " fill="#FFFFFF" fill-opacity="0.00000" style="stroke:#2E2E2E;stroke-width:1.0417;"/><text fill="#2E2E2E" font-family="Segoe Print" font-size="12.5" font-weight="bold" lengthAdjust="spacing" textLength="67.7979" x="20.8333" y="201.7883">Web User</text><path d="M10.4167,210.9863 L10.4167,211.2782 L20.9747,210.4109 L31.5328,211.2548 L42.0909,211.5414 L52.6489,209.9955 L63.207,210.8784 L73.7651,210.394 L84.3231,210.4537 L94.8812,210.9863 " fill="#FFFFFF" fill-opacity="0.00000" style="stroke:#2E2E2E;stroke-width:1.0417;"/><path d="M94.8812,210.9863 L94.9715,211.0225 L96.7865,205.7132 L99.1309,200.616 L101.303,195.4497 L102.9079,190.0562 L105.2979,184.9772 " fill="#FFFFFF" fill-opacity="0.00000" style="stroke:#2E2E2E;stroke-width:1.0417;"/><polygon fill="#FFFFFF" fill-opacity="0.00000" points="50.12,246.3704,50.12,246.5894,60.453,245.9389,70.786,246.5718,81.1189,246.7868,91.4519,245.6273,101.7848,246.2895,112.1178,245.9262,122.4508,246.3704,122.3566,246.2763,124.934,248.8537,127.281,251.2007,130.0867,254.0064,132.296,256.2157,134.9508,258.8704,134.9022,258.8219,132.5568,261.4765,129.9297,263.8494,127.4675,266.3872,124.9429,268.8626,122.4508,271.3704,122.4508,271.5564,112.1178,271.6195,101.7848,271.9805,91.4519,272.0695,81.1189,272.078,70.786,271.6357,60.453,271.8533,50.12,271.3704,50.3639,271.3704,49.8696,266.3704,50.3556,261.3704,50.0171,256.3704,50.3054,251.3704,50.12,246.3704" style="stroke:#FFFFFF00;stroke-width:1.0417;"/><path d="M50.12,246.3704 L50.12,246.9543 L60.453,245.2196 L70.786,246.9073 L81.1189,247.4807 L91.4519,244.3888 L101.7848,246.1546 L112.1178,245.1857 L122.4508,246.3704 L122.1997,246.1194 L124.9061,248.8258 L126.9981,250.9178 L130.3133,254.2329 L132.0381,255.9578 L134.9508,258.8704 L134.8213,258.741 L132.7336,261.6533 L129.8946,263.8143 L127.4954,266.4151 L124.9298,268.8495 L122.4508,271.3704 L122.4508,271.8663 L112.1178,272.0347 L101.7848,272.9974 L91.4519,273.2345 L81.1189,273.2573 L70.786,272.0777 L60.453,272.6582 L50.12,271.3704 " fill="#FFFFFF" fill-opacity="0.00000" style="stroke:#2E2E2E;stroke-width:1.0417;"/><text fill="#2E2E2E" font-family="Segoe Print" font-size="12.5" font-weight="bold" lengthAdjust="spacing" textLength="49.4141" x="67.8284" y="263.1978">Absent</text><polygon fill="#FFFFFF" fill-opacity="0.00000" points="147.4508,246.3704,147.4508,246.5894,157.6863,245.9389,167.9218,246.5718,178.1573,246.7868,188.3928,245.6273,198.6283,246.2895,208.8638,245.9262,219.0993,245.971,229.3348,246.2994,239.5703,245.6503,249.8058,246.9472,260.0413,245.7139,270.2769,246.1644,280.5124,246.8204,290.7479,246.2811,300.9834,246.4415,311.2189,246.3372,321.4544,246.5564,331.6899,246.6195,341.9254,246.9805,352.1609,247.0695,362.3964,247.078,372.6319,246.6357,382.8674,246.3704,382.9813,246.4843,385.5398,249.0429,387.6904,251.1934,390.534,254.037,392.7946,256.2976,395.3674,258.8704,395.4985,259.0015,392.7459,261.2489,390.3506,263.8536,388.0495,266.5525,385.3555,268.8585,382.8674,271.3704,382.8674,271.4801,372.6319,271.7232,362.3964,271.804,352.1609,271.3664,341.9254,271.6696,331.6899,270.7742,321.4544,271.6667,311.2189,271.9415,300.9834,271.8335,290.7479,272.009,280.5124,270.8672,270.2769,270.6911,260.0413,270.7232,249.8058,271.3091,239.5703,271.1657,229.3348,272.0802,219.0993,271.1885,208.8638,271.0131,198.6283,271.6082,188.3928,270.6758,178.1573,270.8297,167.9218,272.0464,157.6863,271.8243,147.4508,271.3704,147.6311,271.5508,144.8718,268.7914,142.5291,266.4488,140.0957,264.0154,137.3348,261.2545,134.9508,258.8704,134.9272,258.8469,137.4817,256.4014,140.1108,254.0305,142.4497,251.3694,145.0643,248.984,147.4508,246.3704" style="stroke:#2E2E2E;stroke-width:1.0417;"/><polygon fill="#FFFFFF" fill-opacity="0.00000" points="407.8674,246.3704,407.8674,246.4434,415.7841,246.2266,423.7008,246.4376,431.6174,246.5092,439.5341,246.1227,447.4508,246.3704,447.4238,246.3704,447.3027,251.3704,447.3176,256.3704,447.4271,261.3704,447.2107,266.3704,447.4508,271.3704,447.4508,271.5627,439.5341,271.1516,431.6174,271.3018,423.7008,271.5204,415.7841,271.3407,407.8674,271.3704,407.8842,271.3872,405.3596,268.8626,402.9113,266.4143,400.4261,263.9292,398.0112,261.5142,395.3674,258.8704,395.5322,259.0352,398.0342,256.5372,400.4299,253.933,402.9813,251.4843,405.5398,249.0429,407.8674,246.3704" style="stroke:#FFFFFF00;stroke-width:1.0417;"/><path d="M447.4508,246.3704 L447.4508,246.5651 L439.5341,245.9868 L431.6174,246.5494 L423.7008,246.7405 L415.7841,245.7099 L407.8674,246.3704 L407.8166,246.3196 L405.0882,248.5912 L402.6163,251.1194 L400.3228,253.8258 L397.4148,255.9178 L395.3674,258.8704 L395.7299,259.2329 L397.4548,260.9578 L400.2379,263.741 L403.1502,266.6533 L405.3113,268.8143 L407.8674,271.3704 L407.8674,271.4336 L415.7841,271.3409 L423.7008,271.5357 L431.6174,271.5919 L439.5341,271.9127 L447.4508,271.3704 " fill="#FFFFFF" fill-opacity="0.00000" style="stroke:#2E2E2E;stroke-width:1.0417;"/><text fill="#2E2E2E" font-family="Segoe Print" font-size="12.5" font-weight="bold" lengthAdjust="spacing" textLength="54.6143" x="237.852" y="263.1978">Waiting</text><text fill="#2E2E2E" font-family="Segoe Print" font-size="12.5" font-weight="bold" lengthAdjust="spacing" textLength="16.9006" x="413.0758" y="263.1978">ok</text><path d="M240.1591,231.2826 L240.1591,231.5745 L251.0222,230.7071 L261.8853,231.551 L272.7484,231.8377 L283.6115,230.2917 L294.4746,231.1746 L305.3377,230.6902 L316.2008,231.2826 " fill="#2E2E2E" style="stroke:#2E2E2E;stroke-width:1.0417;"/><polygon fill="#2E2E2E" points="248.4924,235.4492,248.5654,235.4492,248.3486,233.7826,248.5595,232.1159,248.6312,230.4492,248.2447,228.7826,248.4924,227.1159,248.4804,227.0918,246.7595,227.8168,245.0995,228.6635,243.4818,229.5947,241.7184,230.2345,240.1591,231.2826,240.2451,231.4545,241.7279,231.9201,243.4617,232.8878,245.2262,233.9167,246.8124,234.5892,248.4924,235.4492" style="stroke:#2E2E2E;stroke-width:1.0417;"/><polygon fill="#2E2E2E" points="307.8674,235.4492,307.8911,235.4492,307.8563,233.7826,307.9294,232.1159,307.9505,230.4492,308.0708,228.7826,307.8674,227.1159,307.9716,227.3243,309.6396,228.1602,311.2403,228.8616,312.9394,229.7599,314.6431,230.6673,316.2008,231.2826,316.0888,231.0586,314.6395,232.3266,312.8214,232.8571,311.2837,233.9483,309.4572,234.4621,307.8674,235.4492" style="stroke:#2E2E2E;stroke-width:1.0417;"/><text fill="#2E2E2E" font-family="Segoe Print" font-size="12.5" lengthAdjust="spacing" textLength="62.4268" x="246.9666" y="217.9179">{150 ms}</text><path d="M10.4167,281.7871 L10.4167,282.079 L20.9462,281.2117 L31.4758,282.0556 L42.0054,282.3422 L52.535,280.7963 L63.0646,281.6792 L73.5942,281.1948 L84.1237,281.2545 L94.6533,281.6924 L105.1829,280.8269 L115.7125,282.5561 L126.2421,280.9117 L136.7716,281.5124 L147.3012,282.387 L157.8308,281.668 L168.3604,281.8819 L178.89,281.7427 L189.4196,282.0351 L199.9491,282.1192 L210.4787,282.6006 L221.0083,282.7191 L231.5379,282.7305 L242.0675,282.1408 L252.597,282.431 L263.1266,282.7624 L273.6562,280.7855 L284.1858,282.7295 L294.7154,281.3753 L305.245,282.5285 L315.7745,281.0996 L326.3041,281.692 L336.8337,282.8171 L347.3633,281.7194 L357.8929,281.9334 L368.4224,282.2574 L378.952,282.3652 L389.4816,281.7817 L400.0112,282.186 L410.5408,280.9921 L421.0704,282.1821 L431.5999,282.5485 L442.1295,282.4045 L452.6591,281.7871 " fill="#FFFFFF" fill-opacity="0.00000" style="stroke:#2E2E2E;stroke-width:1.0417;"/><text fill="#2E2E2E" font-family="Segoe Print" font-size="12.5" font-weight="bold" lengthAdjust="spacing" textLength="52.7161" x="20.8333" y="298.5982">Clock_1</text><path d="M10.4167,307.7962 L10.4167,308.0881 L20.3285,307.2208 L30.2403,308.0647 L40.1521,308.3513 L50.0639,306.8054 L59.9758,307.6883 L69.8876,307.2039 L79.7994,307.7962 " fill="#FFFFFF" fill-opacity="0.00000" style="stroke:#2E2E2E;stroke-width:1.0417;"/><path d="M79.7994,307.7962 L79.8897,307.8324 L81.7047,302.5231 L84.0491,297.4258 L86.2212,292.2596 L87.8261,286.8661 L90.2161,281.7871 " fill="#FFFFFF" fill-opacity="0.00000" style="stroke:#2E2E2E;stroke-width:1.0417;"/><path d="M134.9508,329.6712 L134.9508,329.7685 L135.9924,329.4794 L137.0341,329.7607 L138.0758,329.8563 L139.1174,329.3409 L140.1591,329.6712 " fill="#FFFFFF" fill-opacity="0.00000" style="stroke:#2E2E2E;stroke-width:1.0417;"/><path d="M140.1591,315.0879 L140.2564,315.0879 L139.9673,318.0046 L140.2486,320.9212 L140.3441,323.8379 L139.8288,326.7546 L140.1591,329.6712 " fill="#FFFFFF" fill-opacity="0.00000" style="stroke:#2E2E2E;stroke-width:1.0417;"/><path d="M140.1591,315.0879 L140.1591,315.1852 L141.7216,314.8961 L143.2841,315.1774 L144.8466,315.2729 L146.4091,314.7576 L147.9716,315.0879 " fill="#FFFFFF" fill-opacity="0.00000" style="stroke:#2E2E2E;stroke-width:1.0417;"/><path d="M147.9716,315.0879 L148.0689,315.0879 L147.7798,318.0046 L148.0611,320.9212 L148.1566,323.8379 L147.6413,326.7546 L147.9716,329.6712 " fill="#FFFFFF" fill-opacity="0.00000" style="stroke:#2E2E2E;stroke-width:1.0417;"/><path d="M147.9716,329.6712 L147.9716,329.7685 L156.8258,329.4794 L165.6799,329.7607 L174.5341,329.8563 L183.3883,329.3409 L192.2424,329.6712 " fill="#FFFFFF" fill-opacity="0.00000" style="stroke:#2E2E2E;stroke-width:1.0417;"/><path d="M192.2424,315.0879 L192.3397,315.0879 L192.0506,318.0046 L192.3319,320.9212 L192.4275,323.8379 L191.9122,326.7546 L192.2424,329.6712 " fill="#FFFFFF" fill-opacity="0.00000" style="stroke:#2E2E2E;stroke-width:1.0417;"/><path d="M192.2424,315.0879 L192.2424,315.1852 L193.8049,314.8961 L195.3674,315.1774 L196.9299,315.2729 L198.4924,314.7576 L200.0549,315.0879 " fill="#FFFFFF" fill-opacity="0.00000" style="stroke:#2E2E2E;stroke-width:1.0417;"/><path d="M200.0549,315.0879 L200.1522,315.0879 L199.8631,318.0046 L200.1444,320.9212 L200.24,323.8379 L199.7247,326.7546 L200.0549,329.6712 " fill="#FFFFFF" fill-opacity="0.00000" style="stroke:#2E2E2E;stroke-width:1.0417;"/><path d="M200.0549,329.6712 L200.0549,329.7685 L208.9091,329.4794 L217.7633,329.7607 L226.6174,329.8563 L235.4716,329.3409 L244.3258,329.6712 " fill="#FFFFFF" fill-opacity="0.00000" style="stroke:#2E2E2E;stroke-width:1.0417;"/><path d="M244.3258,315.0879 L244.4231,315.0879 L244.1339,318.0046 L244.4152,320.9212 L244.5108,323.8379 L243.9955,326.7546 L244.3258,329.6712 " fill="#FFFFFF" fill-opacity="0.00000" style="stroke:#2E2E2E;stroke-width:1.0417;"/><path d="M244.3258,315.0879 L244.3258,315.1852 L245.8883,314.8961 L247.4508,315.1774 L249.0133,315.2729 L250.5758,314.7576 L252.1383,315.0879 " fill="#FFFFFF" fill-opacity="0.00000" style="stroke:#2E2E2E;stroke-width:1.0417;"/><path d="M252.1383,315.0879 L252.2356,315.0879 L251.9464,318.0046 L252.2277,320.9212 L252.3233,323.8379 L251.808,326.7546 L252.1383,329.6712 " fill="#FFFFFF" fill-opacity="0.00000" style="stroke:#2E2E2E;stroke-width:1.0417;"/><path d="M252.1383,329.6712 L252.1383,329.7685 L260.9924,329.4794 L269.8466,329.7607 L278.7008,329.8563 L287.5549,329.3409 L296.4091,329.6712 " fill="#FFFFFF" fill-opacity="0.00000" style="stroke:#2E2E2E;stroke-width:1.0417;"/><path d="M296.4091,315.0879 L296.5064,315.0879 L296.2173,318.0046 L296.4986,320.9212 L296.5941,323.8379 L296.0788,326.7546 L296.4091,329.6712 " fill="#FFFFFF" fill-opacity="0.00000" style="stroke:#2E2E2E;stroke-width:1.0417;"/><path d="M296.4091,315.0879 L296.4091,315.1852 L297.9716,314.8961 L299.5341,315.1774 L301.0966,315.2729 L302.6591,314.7576 L304.2216,315.0879 " fill="#FFFFFF" fill-opacity="0.00000" style="stroke:#2E2E2E;stroke-width:1.0417;"/><path d="M304.2216,315.0879 L304.3189,315.0879 L304.0298,318.0046 L304.3111,320.9212 L304.4066,323.8379 L303.8913,326.7546 L304.2216,329.6712 " fill="#FFFFFF" fill-opacity="0.00000" style="stroke:#2E2E2E;stroke-width:1.0417;"/><path d="M304.2216,329.6712 L304.2216,329.7685 L313.0758,329.4794 L321.9299,329.7607 L330.7841,329.8563 L339.6383,329.3409 L348.4924,329.6712 " fill="#FFFFFF" fill-opacity="0.00000" style="stroke:#2E2E2E;stroke-width:1.0417;"/><path d="M348.4924,315.0879 L348.5897,315.0879 L348.3006,318.0046 L348.5819,320.9212 L348.6775,323.8379 L348.1622,326.7546 L348.4924,329.6712 " fill="#FFFFFF" fill-opacity="0.00000" style="stroke:#2E2E2E;stroke-width:1.0417;"/><path d="M348.4924,315.0879 L348.4924,315.1852 L350.0549,314.8961 L351.6174,315.1774 L353.1799,315.2729 L354.7424,314.7576 L356.3049,315.0879 " fill="#FFFFFF" fill-opacity="0.00000" style="stroke:#2E2E2E;stroke-width:1.0417;"/><path d="M356.3049,315.0879 L356.4022,315.0879 L356.1131,318.0046 L356.3944,320.9212 L356.49,323.8379 L355.9747,326.7546 L356.3049,329.6712 " fill="#FFFFFF" fill-opacity="0.00000" style="stroke:#2E2E2E;stroke-width:1.0417;"/><path d="M356.3049,329.6712 L356.3049,329.7685 L365.1591,329.4794 L374.0133,329.7607 L382.8674,329.8563 L391.7216,329.3409 L400.5758,329.6712 " fill="#FFFFFF" fill-opacity="0.00000" style="stroke:#2E2E2E;stroke-width:1.0417;"/><path d="M400.5758,315.0879 L400.6731,315.0879 L400.3839,318.0046 L400.6652,320.9212 L400.7608,323.8379 L400.2455,326.7546 L400.5758,329.6712 " fill="#FFFFFF" fill-opacity="0.00000" style="stroke:#2E2E2E;stroke-width:1.0417;"/><path d="M400.5758,315.0879 L400.5758,315.1852 L402.1383,314.8961 L403.7008,315.1774 L405.2633,315.2729 L406.8258,314.7576 L408.3883,315.0879 " fill="#FFFFFF" fill-opacity="0.00000" style="stroke:#2E2E2E;stroke-width:1.0417;"/><path d="M408.3883,315.0879 L408.4856,315.0879 L408.1964,318.0046 L408.4777,320.9212 L408.5733,323.8379 L408.058,326.7546 L408.3883,329.6712 " fill="#FFFFFF" fill-opacity="0.00000" style="stroke:#2E2E2E;stroke-width:1.0417;"/><path d="M408.3883,329.6712 L408.3883,329.7685 L416.2008,329.4794 L424.0133,329.7607 L431.8258,329.8563 L439.6383,329.3409 L447.4508,329.6712 " fill="#FFFFFF" fill-opacity="0.00000" style="stroke:#2E2E2E;stroke-width:1.0417;"/><path d="M10.4167,338.0046 L10.4167,338.2965 L20.9462,337.4291 L31.4758,338.273 L42.0054,338.5597 L52.535,337.0137 L63.0646,337.8966 L73.5942,337.4122 L84.1237,337.4719 L94.6533,337.9099 L105.1829,337.0443 L115.7125,338.7735 L126.2421,337.1292 L136.7716,337.7299 L147.3012,338.6045 L157.8308,337.8854 L168.3604,338.0993 L178.89,337.9602 L189.4196,338.2525 L199.9491,338.3367 L210.4787,338.818 L221.0083,338.9366 L231.5379,338.948 L242.0675,338.3582 L252.597,338.6484 L263.1266,338.9799 L273.6562,337.0029 L284.1858,338.9469 L294.7154,337.5927 L305.245,338.746 L315.7745,337.317 L326.3041,337.9094 L336.8337,339.0346 L347.3633,337.9369 L357.8929,338.1508 L368.4224,338.4749 L378.952,338.5827 L389.4816,337.9991 L400.0112,338.4035 L410.5408,337.2095 L421.0704,338.3995 L431.5999,338.7659 L442.1295,338.622 L452.6591,338.0046 " fill="#FFFFFF" fill-opacity="0.00000" style="stroke:#2E2E2E;stroke-width:1.0417;"/><text fill="#2E2E2E" font-family="Segoe Print" font-size="12.5" font-weight="bold" lengthAdjust="spacing" textLength="45.459" x="20.8333" y="357.9569">Binary</text><path d="M134.9508,360.9212 L134.9508,361.2131 L145.3674,360.3458 L155.7841,361.1897 L166.2008,361.4763 L176.6174,359.9304 L187.0341,360.9212 " fill="#FFFFFF" fill-opacity="0.00000" style="stroke:#2E2E2E;stroke-width:1.0417;"/><path d="M187.0341,346.3379 L187.1314,346.3379 L186.8423,349.2546 L187.1236,352.1712 L187.2191,355.0879 L186.7038,358.0046 L187.0341,360.9212 " fill="#FFFFFF" fill-opacity="0.00000" style="stroke:#2E2E2E;stroke-width:1.0417;"/><path d="M187.0341,346.3379 L187.0341,346.6298 L197.4508,345.7624 L207.8674,346.6063 L218.2841,346.893 L228.7008,345.3471 L239.1174,346.23 L249.5341,345.7455 L259.9508,345.8053 L270.3674,346.2432 L280.7841,345.3777 L291.2008,347.1068 L301.6174,345.4625 L312.0341,346.0632 L322.4508,346.9378 L332.8674,346.2188 L343.2841,346.4327 L353.7008,346.2935 L364.1174,346.5858 L374.5341,346.67 L384.9508,347.1513 L395.3674,347.2699 L405.7841,347.2813 L416.2008,346.6915 L426.6174,346.9818 L437.0341,347.3132 L447.4508,346.3379 " fill="#FFFFFF" fill-opacity="0.00000" style="stroke:#2E2E2E;stroke-width:1.0417;"/><path d="M10.4167,369.2546 L10.4167,369.5465 L20.9462,368.6791 L31.4758,369.523 L42.0054,369.8097 L52.535,368.2637 L63.0646,369.1466 L73.5942,368.6622 L84.1237,368.7219 L94.6533,369.1599 L105.1829,368.2943 L115.7125,370.0235 L126.2421,368.3792 L136.7716,368.9799 L147.3012,369.8545 L157.8308,369.1354 L168.3604,369.3493 L178.89,369.2102 L189.4196,369.5025 L199.9491,369.5867 L210.4787,370.068 L221.0083,370.1866 L231.5379,370.198 L242.0675,369.6082 L252.597,369.8984 L263.1266,370.2299 L273.6562,368.2529 L284.1858,370.1969 L294.7154,368.8427 L305.245,369.996 L315.7745,368.567 L326.3041,369.1594 L336.8337,370.2846 L347.3633,369.1869 L357.8929,369.4008 L368.4224,369.7249 L378.952,369.8327 L389.4816,369.2491 L400.0112,369.6535 L410.5408,368.4595 L421.0704,369.6495 L431.5999,370.0159 L442.1295,369.872 L452.6591,369.2546 " fill="#FFFFFF" fill-opacity="0.00000" style="stroke:#2E2E2E;stroke-width:1.0417;"/><text fill="#2E2E2E" font-family="Segoe Print" font-size="12.5" font-weight="bold" lengthAdjust="spacing" textLength="48.8281" x="20.8333" y="425.6653">Analog</text><text fill="#2E2E2E" font-family="Segoe Print" font-size="12.5" font-weight="bold" lengthAdjust="spacing" textLength="22.1436" x="105.5155" y="469.4153">0.0</text><text fill="#2E2E2E" font-family="Segoe Print" font-size="12.5" font-weight="bold" lengthAdjust="spacing" textLength="22.1436" x="105.5155" y="381.9153">3.0</text><path d="M134.9508,465.0879 " fill="#FFFFFF" fill-opacity="0.00000" style="stroke:#2E2E2E;stroke-width:1.0417;"/><path d="M134.9508,465.0879 L135.2016,465.2372 L139.6646,456.0436 L145.5981,447.7252 L151.0528,439.1218 L154.9327,429.5811 L160.8997,421.2827 L165.6918,412.2849 L170.9514,403.5655 L176.5361,395.0395 L181.0006,385.8467 L187.0341,377.5879 " fill="#FFFFFF" fill-opacity="0.00000" style="stroke:#2E2E2E;stroke-width:1.0417;"/><path d="M187.0341,377.5879 L187.1767,377.8426 L196.2226,382.3888 L206.1047,388.4282 L215.7144,393.9813 L224.4288,397.9355 L234.3298,404.0089 L243.5629,408.8892 L253.0617,414.2444 L262.7454,419.9295 L271.7922,424.4774 L282.1068,431.2891 L291.2008,435.9212 " fill="#FFFFFF" fill-opacity="0.00000" style="stroke:#2E2E2E;stroke-width:1.0417;"/><path d="M291.2008,435.9212 L291.2008,436.2131 L301.6174,435.3458 L312.0341,436.1897 L322.4508,436.4763 L332.8674,434.9304 L343.2841,435.8133 L353.7008,435.3289 L364.1174,435.3886 L374.5341,435.8266 L384.9508,434.961 L395.3674,436.6902 L405.7841,435.0458 L416.2008,435.6465 L426.6174,436.5212 L437.0341,435.8021 L447.4508,435.9212 " fill="#FFFFFF" fill-opacity="0.00000" style="stroke:#2E2E2E;stroke-width:1.0417;"/><path d="M134.9508,473.4212 L135.0481,473.4212 L134.7589,474.4629 L135.0402,475.5046 L135.1358,476.5462 L134.6205,477.5879 L134.9508,478.6296 " fill="#FFFFFF" fill-opacity="0.00000" style="stroke:#2E2E2E;stroke-width:1.0417;"/><path d="M187.0341,473.4212 L187.1314,473.4212 L186.8423,474.4629 L187.1236,475.5046 L187.2191,476.5462 L186.7038,477.5879 L187.0341,478.6296 " fill="#FFFFFF" fill-opacity="0.00000" style="stroke:#2E2E2E;stroke-width:1.0417;"/><path d="M239.1174,473.4212 L239.2147,473.4212 L238.9256,474.4629 L239.2069,475.5046 L239.3025,476.5462 L238.7872,477.5879 L239.1174,478.6296 " fill="#FFFFFF" fill-opacity="0.00000" style="stroke:#2E2E2E;stroke-width:1.0417;"/><path d="M291.2008,473.4212 L291.2981,473.4212 L291.0089,474.4629 L291.2902,475.5046 L291.3858,476.5462 L290.8705,477.5879 L291.2008,478.6296 " fill="#FFFFFF" fill-opacity="0.00000" style="stroke:#2E2E2E;stroke-width:1.0417;"/><path d="M343.2841,473.4212 L343.3814,473.4212 L343.0923,474.4629 L343.3736,475.5046 L343.4691,476.5462 L342.9538,477.5879 L343.2841,478.6296 " fill="#FFFFFF" fill-opacity="0.00000" style="stroke:#2E2E2E;stroke-width:1.0417;"/><path d="M395.3674,473.4212 L395.4647,473.4212 L395.1756,474.4629 L395.4569,475.5046 L395.5525,476.5462 L395.0372,477.5879 L395.3674,478.6296 " fill="#FFFFFF" fill-opacity="0.00000" style="stroke:#2E2E2E;stroke-width:1.0417;"/><path d="M447.4508,473.4212 L447.5481,473.4212 L447.2589,474.4629 L447.5402,475.5046 L447.6358,476.5462 L447.1205,477.5879 L447.4508,478.6296 " fill="#FFFFFF" fill-opacity="0.00000" style="stroke:#2E2E2E;stroke-width:1.0417;"/><path d="M134.9508,473.4212 L134.9508,473.7131 L145.3674,472.8458 L155.7841,473.6897 L166.2008,473.9763 L176.6174,472.4304 L187.0341,473.3133 L197.4508,472.8289 L207.8674,472.8886 L218.2841,473.3266 L228.7008,472.461 L239.1174,474.1902 L249.5341,472.5458 L259.9508,473.1465 L270.3674,474.0212 L280.7841,473.3021 L291.2008,473.516 L301.6174,473.3769 L312.0341,473.6692 L322.4508,473.7534 L332.8674,474.2347 L343.2841,474.3532 L353.7008,474.3646 L364.1174,473.7749 L374.5341,474.0651 L384.9508,474.3965 L395.3674,472.4196 L405.7841,474.3636 L416.2008,473.0094 L426.6174,474.1626 L437.0341,472.7337 L447.4508,473.4212 " fill="#FFFFFF" fill-opacity="0.00000" style="stroke:#2E2E2E;stroke-width:1.0417;"/><text fill="#2E2E2E" font-family="Segoe Print" font-size="12.5" lengthAdjust="spacing" textLength="7.9529" x="130.9743" y="496.4823">0</text><text fill="#2E2E2E" font-family="Segoe Print" font-size="12.5" lengthAdjust="spacing" textLength="23.8586" x="175.1048" y="496.4823">100</text><text fill="#2E2E2E" font-family="Segoe Print" font-size="12.5" lengthAdjust="spacing" textLength="23.8586" x="227.1881" y="496.4823">200</text><text fill="#2E2E2E" font-family="Segoe Print" font-size="12.5" lengthAdjust="spacing" textLength="23.8586" x="279.2714" y="496.4823">300</text><text fill="#2E2E2E" font-family="Segoe Print" font-size="12.5" lengthAdjust="spacing" textLength="23.8586" x="383.4381" y="496.4823">500</text></g></svg>