<svg xmlns="http://www.w3.org/2000/svg" xmlns:xlink="http://www.w3.org/1999/xlink" contentStyleType="text/css" data-diagram-type="TIMING" height="195px" preserveAspectRatio="none" style="width:496px;height:195px;background:#FFFFFF;" version="1.1" viewBox="0 0 496 195" width="496px" zoomAndPan="magnify"><?plantuml 1.2026.5beta1?><defs/><g><line style="stroke:#333333;stroke-width:0.5;" x1="20" x2="20" y1="20" y2="161.5938"/><line style="stroke:#333333;stroke-width:0.5;" x1="475.8145" x2="475.8145" y1="20" y2="161.5938"/><rect fill="#FFD700" height="141.5938" style="stroke:none;stroke-width:1;" width="125" x="170.8145" y="20"/><rect fill="#EEEEEE" height="141.5938" style="stroke:none;stroke-width:1;" width="50" x="370.8145" y="20"/><line style="stroke:#333333;stroke-width:0.5;stroke-dasharray:3,5;" x1="70.8145" x2="70.8145" y1="20" y2="161.5938"/><line style="stroke:#333333;stroke-width:0.5;stroke-dasharray:3,5;" x1="120.8145" x2="120.8145" y1="20" y2="161.5938"/><line style="stroke:#333333;stroke-width:0.5;stroke-dasharray:3,5;" x1="170.8145" x2="170.8145" y1="20" y2="161.5938"/><line style="stroke:#333333;stroke-width:0.5;stroke-dasharray:3,5;" x1="220.8145" x2="220.8145" y1="20" y2="161.5938"/><line style="stroke:#333333;stroke-width:0.5;stroke-dasharray:3,5;" x1="270.8145" x2="270.8145" y1="20" y2="161.5938"/><line style="stroke:#333333;stroke-width:0.5;stroke-dasharray:3,5;" x1="320.8145" x2="320.8145" y1="20" y2="161.5938"/><line style="stroke:#333333;stroke-width:0.5;stroke-dasharray:3,5;" x1="370.8145" x2="370.8145" y1="20" y2="161.5938"/><line style="stroke:#333333;stroke-width:0.5;stroke-dasharray:3,5;" x1="420.8145" x2="420.8145" y1="20" y2="161.5938"/><line style="stroke:#333333;stroke-width:0.5;stroke-dasharray:3,5;" x1="470.8145" x2="470.8145" y1="20" y2="161.5938"/><line style="stroke:#333333;stroke-width:0.5;" x1="20" x2="475.8145" y1="20" y2="20"/><text fill="#333333" font-family="sans-serif" font-size="14" font-weight="700" lengthAdjust="spacing" textLength="104.6924" x="25" y="32.9951">Web Browser</text><line style="stroke:#333333;stroke-width:0.5;" x1="20" x2="130.6924" y1="37.2969" y2="37.2969"/><line style="stroke:#333333;stroke-width:0.5;" x1="130.6924" x2="140.6924" y1="37.2969" y2="20"/><text fill="#333333" font-family="sans-serif" font-size="12" lengthAdjust="spacing" textLength="21.873" x="25" y="92.4512">Idle</text><text fill="#333333" font-family="sans-serif" font-size="12" lengthAdjust="spacing" textLength="29.9238" x="25" y="72.4512">Proc.</text><text fill="#333333" font-family="sans-serif" font-size="12" lengthAdjust="spacing" textLength="45.8145" x="25" y="52.4512">Waiting</text><line style="stroke:#006400;stroke-width:2;" x1="70.8145" x2="170.8145" y1="87.2969" y2="87.2969"/><line style="stroke:#006400;stroke-width:2;" x1="170.8145" x2="220.8145" y1="67.2969" y2="67.2969"/><line style="stroke:#006400;stroke-width:2;" x1="220.8145" x2="420.8145" y1="47.2969" y2="47.2969"/><line style="stroke:#006400;stroke-width:2;" x1="420.8145" x2="470.8145" y1="87.2969" y2="87.2969"/><line style="stroke:#006400;stroke-width:2;" x1="170.8145" x2="170.8145" y1="67.2969" y2="87.2969"/><line style="stroke:#006400;stroke-width:2;" x1="220.8145" x2="220.8145" y1="47.2969" y2="67.2969"/><line style="stroke:#006400;stroke-width:2;" x1="420.8145" x2="420.8145" y1="47.2969" y2="87.2969"/><line style="stroke:#333333;stroke-width:0.5;" x1="20" x2="475.8145" y1="105.2969" y2="105.2969"/><text fill="#333333" font-family="sans-serif" font-size="14" font-weight="700" lengthAdjust="spacing" textLength="75.9336" x="25" y="118.292">Web User</text><line style="stroke:#333333;stroke-width:0.5;" x1="20" x2="101.9336" y1="122.5938" y2="122.5938"/><line style="stroke:#333333;stroke-width:0.5;" x1="101.9336" x2="111.9336" y1="122.5938" y2="105.2969"/><polygon fill="#E2E2F0" points="82.8145,127.5938,108.8145,127.5938,120.8145,139.5938,108.8145,151.5938,82.8145,151.5938,70.8145,139.5938" style="stroke:#006400;stroke-width:1.5;stroke-linejoin:miter;stroke-miterlimit:10;"/><polygon fill="#E0FFFF" points="132.8145,127.5938,308.8145,127.5938,320.8145,139.5938,308.8145,151.5938,132.8145,151.5938,120.8145,139.5938" style="stroke:#00FFFF;stroke-width:1.5;stroke-linejoin:miter;stroke-miterlimit:10;"/><polygon fill="#E2E2F0" points="332.8145,127.5938,470.8145,127.5938,470.8145,151.5938,332.8145,151.5938,320.8145,139.5938" style="stroke:#E2E2F0;stroke-width:1.5;stroke-linejoin:miter;stroke-miterlimit:10;"/><path d="M470.8145,127.5938 L332.8145,127.5938 L320.8145,139.5938 L332.8145,151.5938 L470.8145,151.5938" fill="#E2E2F0" style="stroke:#006400;stroke-width:1.5;"/><text fill="#333333" font-family="sans-serif" font-size="12" font-weight="700" lengthAdjust="spacing" textLength="25.3066" x="83.1611" y="143.748">Idle</text><text fill="#333333" font-family="sans-serif" font-size="12" font-weight="700" lengthAdjust="spacing" textLength="52.4297" x="194.5996" y="143.748">Waiting</text><text fill="#333333" font-family="sans-serif" font-size="12" font-weight="700" lengthAdjust="spacing" textLength="16.2246" x="332.8145" y="143.748">ok</text><line style="stroke:#333333;stroke-width:2;" x1="70.8145" x2="70.8145" y1="161.5938" y2="166.5938"/><line style="stroke:#333333;stroke-width:2;" x1="120.8145" x2="120.8145" y1="161.5938" y2="166.5938"/><line style="stroke:#333333;stroke-width:2;" x1="170.8145" x2="170.8145" y1="161.5938" y2="166.5938"/><line style="stroke:#333333;stroke-width:2;" x1="220.8145" x2="220.8145" y1="161.5938" y2="166.5938"/><line style="stroke:#333333;stroke-width:2;" x1="270.8145" x2="270.8145" y1="161.5938" y2="166.5938"/><line style="stroke:#333333;stroke-width:2;" x1="320.8145" x2="320.8145" y1="161.5938" y2="166.5938"/><line style="stroke:#333333;stroke-width:2;" x1="370.8145" x2="370.8145" y1="161.5938" y2="166.5938"/><line style="stroke:#333333;stroke-width:2;" x1="420.8145" x2="420.8145" y1="161.5938" y2="166.5938"/><line style="stroke:#333333;stroke-width:2;" x1="470.8145" x2="470.8145" y1="161.5938" y2="166.5938"/><line style="stroke:#333333;stroke-width:2;" x1="70.8145" x2="470.8145" y1="161.5938" y2="161.5938"/><text fill="#333333" font-family="sans-serif" font-size="11" lengthAdjust="spacing" textLength="6.9985" x="67.3152" y="177.8042">0</text><text fill="#333333" font-family="sans-serif" font-size="11" lengthAdjust="spacing" textLength="20.9956" x="110.3167" y="177.8042">100</text><text fill="#333333" font-family="sans-serif" font-size="11" lengthAdjust="spacing" textLength="20.9956" x="160.3167" y="177.8042">200</text><text fill="#333333" font-family="sans-serif" font-size="11" lengthAdjust="spacing" textLength="20.9956" x="210.3167" y="177.8042">300</text><text fill="#333333" font-family="sans-serif" font-size="11" lengthAdjust="spacing" textLength="20.9956" x="310.3167" y="177.8042">500</text><text fill="#333333" font-family="sans-serif" font-size="11" lengthAdjust="spacing" textLength="20.9956" x="410.3167" y="177.8042">700</text><line style="stroke:#000000;stroke-width:1.5;" x1="120.8145" x2="120.8145" y1="139.5938" y2="87.2969"/><polygon fill="#000000" points="123.5506,94.8144,118.0783,94.8144,120.8145,87.2969" style="stroke:#000000;stroke-width:1.5;stroke-linejoin:miter;stroke-miterlimit:10;"/><text fill="#333333" font-family="Verdana" font-size="11" lengthAdjust="spacing" textLength="21.8228" x="120.8145" y="105.0249">URL</text><line style="stroke:#000000;stroke-width:1.5;" x1="220.8145" x2="245.8145" y1="127.5938" y2="47.2969"/><polygon fill="#000000" points="246.1922,55.288,240.9672,53.6612,245.8145,47.2969" style="stroke:#000000;stroke-width:1.5;stroke-linejoin:miter;stroke-miterlimit:10;"/><text fill="#333333" font-family="Verdana" font-size="11" lengthAdjust="spacing" textLength="28.8213" x="243.5797" y="64.685">URL2</text><line style="stroke:#696969;stroke-width:2;stroke-dasharray:4,4;" x1="170.8145" x2="170.8145" y1="20" y2="161.5938"/><line style="stroke:#696969;stroke-width:2;stroke-dasharray:4,4;" x1="295.8145" x2="295.8145" y1="20" y2="161.5938"/><text fill="#000000" font-family="sans-serif" font-size="12" lengthAdjust="spacing" textLength="108.8965" x="173.8145" y="33.1387">This is my caption</text><line style="stroke:#333333;stroke-width:2;stroke-dasharray:4,4;" x1="370.8145" x2="370.8145" y1="20" y2="161.5938"/><line style="stroke:#333333;stroke-width:2;stroke-dasharray:4,4;" x1="420.8145" x2="420.8145" y1="20" y2="161.5938"/><text fill="#000000" font-family="sans-serif" font-size="12" lengthAdjust="spacing" textLength="88.6641" x="373.8145" y="33.1387">This is another</text><text fill="#000000" font-family="sans-serif" font-size="12" lengthAdjust="spacing" textLength="52.7578" x="373.8145" y="47.1074">highlight</text></g></svg>