<svg xmlns="http://www.w3.org/2000/svg" xmlns:xlink="http://www.w3.org/1999/xlink" contentStyleType="text/css" height="445px" preserveAspectRatio="none" style="width:479px;height:445px;background:#AAAAAA;" version="1.1" viewBox="0 0 479 445" width="479px" zoomAndPan="magnify"><defs/><g><rect fill="#AAAAAA" height="445" style="stroke:none;stroke-width:1;" width="479" x="0" y="0"/><line style="stroke:#3600A8;stroke-width:1;" x1="10" x2="10" y1="10" y2="408.5859"/><line style="stroke:#3600A8;stroke-width:1;" x1="462.2085" x2="462.2085" y1="10" y2="408.5859"/><line style="stroke:#3600A8;stroke-width:0.5;stroke-dasharray:3.0,5.0;" x1="157.2085" x2="157.2085" y1="10" y2="408.5859"/><line style="stroke:#3600A8;stroke-width:0.5;stroke-dasharray:3.0,5.0;" x1="207.2085" x2="207.2085" y1="10" y2="408.5859"/><line style="stroke:#3600A8;stroke-width:0.5;stroke-dasharray:3.0,5.0;" x1="257.2085" x2="257.2085" y1="10" y2="408.5859"/><line style="stroke:#3600A8;stroke-width:0.5;stroke-dasharray:3.0,5.0;" x1="307.2085" x2="307.2085" y1="10" y2="408.5859"/><line style="stroke:#3600A8;stroke-width:0.5;stroke-dasharray:3.0,5.0;" x1="357.2085" x2="357.2085" y1="10" y2="408.5859"/><line style="stroke:#3600A8;stroke-width:0.5;stroke-dasharray:3.0,5.0;" x1="407.2085" x2="407.2085" y1="10" y2="408.5859"/><line style="stroke:#3600A8;stroke-width:0.5;stroke-dasharray:3.0,5.0;" x1="457.2085" x2="457.2085" y1="10" y2="408.5859"/><line style="stroke:#3600A8;stroke-width:1;" x1="10" x2="462.2085" y1="10" y2="10"/><text fill="#008000" font-family="sans-serif" font-size="19" lengthAdjust="spacing" textLength="125.9863" x="15" y="27.6362">Web Browser</text><line style="stroke:#3600A8;stroke-width:1;" x1="10" x2="141.9863" y1="33.1172" y2="33.1172"/><line style="stroke:#3600A8;stroke-width:1;" x1="141.9863" x2="151.9863" y1="33.1172" y2="10"/><text fill="#008000" font-family="sans-serif" font-size="19" lengthAdjust="spacing" textLength="97.208" x="15" y="132.812">Initializing</text><text fill="#008000" font-family="sans-serif" font-size="19" lengthAdjust="spacing" textLength="34.3076" x="15" y="112.812">idle</text><text fill="#008000" font-family="sans-serif" font-size="19" lengthAdjust="spacing" textLength="102.2085" x="15" y="92.812">Processing</text><text fill="#008000" font-family="sans-serif" font-size="19" lengthAdjust="spacing" textLength="72.5396" x="15" y="72.812">Waiting</text><line style="stroke:#3600A8;stroke-width:1;" x1="117.2085" x2="157.2085" y1="125.2344" y2="125.2344"/><line style="stroke:#3600A8;stroke-width:1;" x1="157.2085" x2="257.2085" y1="105.2344" y2="105.2344"/><line style="stroke:#3600A8;stroke-width:1;" x1="257.2085" x2="307.2085" y1="85.2344" y2="85.2344"/><line style="stroke:#3600A8;stroke-width:1;" x1="307.2085" x2="457.2085" y1="65.2344" y2="65.2344"/><line style="stroke:#3600A8;stroke-width:1;" x1="157.2085" x2="157.2085" y1="105.2344" y2="125.2344"/><line style="stroke:#3600A8;stroke-width:1;" x1="257.2085" x2="257.2085" y1="85.2344" y2="105.2344"/><line style="stroke:#3600A8;stroke-width:1;" x1="307.2085" x2="307.2085" y1="65.2344" y2="85.2344"/><line style="stroke:#3600A8;stroke-width:1;" x1="159.7085" x2="179.7085" y1="100.2344" y2="100.2344"/><polygon fill="#3600A8" points="167.7085,104.2344,167.7085,96.2344,159.7085,100.2344" style="stroke:#3600A8;stroke-width:1;"/><polygon fill="#3600A8" points="171.7085,104.2344,171.7085,96.2344,179.7085,100.2344" style="stroke:#3600A8;stroke-width:1;"/><text fill="#008000" font-family="sans-serif" font-size="19" lengthAdjust="spacing" textLength="117.8223" x="110.7974" y="90.7534">{50 ms lag}</text><line style="stroke:#3600A8;stroke-width:1;" x1="10" x2="462.2085" y1="137.2344" y2="137.2344"/><text fill="#008000" font-family="sans-serif" font-size="19" lengthAdjust="spacing" textLength="91.8828" x="15" y="154.8706">Web User</text><line style="stroke:#3600A8;stroke-width:1;" x1="10" x2="107.8828" y1="160.3516" y2="160.3516"/><line style="stroke:#3600A8;stroke-width:1;" x1="107.8828" x2="117.8828" y1="160.3516" y2="137.2344"/><polygon fill="#CEFEFE" points="67.0703,192.4688,145.2085,192.4688,157.2085,204.4688,145.2085,216.4688,67.0703,216.4688" style="stroke:#CEFEFE;stroke-width:1;"/><path d="M67.0703,192.4688 L145.2085,192.4688 L157.2085,204.4688 L145.2085,216.4688 L67.0703,216.4688 " fill="#CEFEFE" style="stroke:#3600A8;stroke-width:1;"/><text fill="#008000" font-family="sans-serif" font-size="19" lengthAdjust="spacing" textLength="66.1382" x="79.0703" y="211.0464">Absent</text><polygon fill="#CEFEFE" points="169.2085,192.4688,395.2085,192.4688,407.2085,204.4688,395.2085,216.4688,169.2085,216.4688,157.2085,204.4688" style="stroke:#3600A8;stroke-width:1;"/><polygon fill="#CEFEFE" points="419.2085,192.4688,457.2085,192.4688,457.2085,216.4688,419.2085,216.4688,407.2085,204.4688" style="stroke:#CEFEFE;stroke-width:1;"/><path d="M457.2085,192.4688 L419.2085,192.4688 L407.2085,204.4688 L419.2085,216.4688 L457.2085,216.4688 " fill="#CEFEFE" style="stroke:#3600A8;stroke-width:1;"/><text fill="#008000" font-family="sans-serif" font-size="19" lengthAdjust="spacing" textLength="72.5396" x="245.9387" y="211.0464">Waiting</text><text fill="#008000" font-family="sans-serif" font-size="19" lengthAdjust="spacing" textLength="22.6274" x="419.2085" y="211.0464">ok</text><line style="stroke:#3600A8;stroke-width:1;" x1="258.2085" x2="331.2085" y1="178.9102" y2="178.9102"/><polygon fill="#3600A8" points="266.2085,182.9102,266.2085,174.9102,258.2085,178.9102" style="stroke:#3600A8;stroke-width:1;"/><polygon fill="#3600A8" points="323.2085,182.9102,323.2085,174.9102,331.2085,178.9102" style="stroke:#3600A8;stroke-width:1;"/><text fill="#008000" font-family="sans-serif" font-size="19" lengthAdjust="spacing" textLength="94.8887" x="247.2642" y="169.4292">{150 ms}</text><line style="stroke:#3600A8;stroke-width:1;" x1="10" x2="462.2085" y1="226.4688" y2="226.4688"/><text fill="#008000" font-family="sans-serif" font-size="19" lengthAdjust="spacing" textLength="73.2075" x="15" y="244.105">Clock_1</text><line style="stroke:#3600A8;stroke-width:1;" x1="10" x2="89.2075" y1="249.5859" y2="249.5859"/><line style="stroke:#3600A8;stroke-width:1;" x1="89.2075" x2="99.2075" y1="249.5859" y2="226.4688"/><line style="stroke:#3600A8;stroke-width:1;" x1="157.2085" x2="162.2085" y1="270.5859" y2="270.5859"/><line style="stroke:#3600A8;stroke-width:1;" x1="162.2085" x2="162.2085" y1="256.5859" y2="270.5859"/><line style="stroke:#3600A8;stroke-width:1;" x1="162.2085" x2="169.7085" y1="256.5859" y2="256.5859"/><line style="stroke:#3600A8;stroke-width:1;" x1="169.7085" x2="169.7085" y1="256.5859" y2="270.5859"/><line style="stroke:#3600A8;stroke-width:1;" x1="169.7085" x2="212.2085" y1="270.5859" y2="270.5859"/><line style="stroke:#3600A8;stroke-width:1;" x1="212.2085" x2="212.2085" y1="256.5859" y2="270.5859"/><line style="stroke:#3600A8;stroke-width:1;" x1="212.2085" x2="219.7085" y1="256.5859" y2="256.5859"/><line style="stroke:#3600A8;stroke-width:1;" x1="219.7085" x2="219.7085" y1="256.5859" y2="270.5859"/><line style="stroke:#3600A8;stroke-width:1;" x1="219.7085" x2="262.2085" y1="270.5859" y2="270.5859"/><line style="stroke:#3600A8;stroke-width:1;" x1="262.2085" x2="262.2085" y1="256.5859" y2="270.5859"/><line style="stroke:#3600A8;stroke-width:1;" x1="262.2085" x2="269.7085" y1="256.5859" y2="256.5859"/><line style="stroke:#3600A8;stroke-width:1;" x1="269.7085" x2="269.7085" y1="256.5859" y2="270.5859"/><line style="stroke:#3600A8;stroke-width:1;" x1="269.7085" x2="312.2085" y1="270.5859" y2="270.5859"/><line style="stroke:#3600A8;stroke-width:1;" x1="312.2085" x2="312.2085" y1="256.5859" y2="270.5859"/><line style="stroke:#3600A8;stroke-width:1;" x1="312.2085" x2="319.7085" y1="256.5859" y2="256.5859"/><line style="stroke:#3600A8;stroke-width:1;" x1="319.7085" x2="319.7085" y1="256.5859" y2="270.5859"/><line style="stroke:#3600A8;stroke-width:1;" x1="319.7085" x2="362.2085" y1="270.5859" y2="270.5859"/><line style="stroke:#3600A8;stroke-width:1;" x1="362.2085" x2="362.2085" y1="256.5859" y2="270.5859"/><line style="stroke:#3600A8;stroke-width:1;" x1="362.2085" x2="369.7085" y1="256.5859" y2="256.5859"/><line style="stroke:#3600A8;stroke-width:1;" x1="369.7085" x2="369.7085" y1="256.5859" y2="270.5859"/><line style="stroke:#3600A8;stroke-width:1;" x1="369.7085" x2="412.2085" y1="270.5859" y2="270.5859"/><line style="stroke:#3600A8;stroke-width:1;" x1="412.2085" x2="412.2085" y1="256.5859" y2="270.5859"/><line style="stroke:#3600A8;stroke-width:1;" x1="412.2085" x2="419.7085" y1="256.5859" y2="256.5859"/><line style="stroke:#3600A8;stroke-width:1;" x1="419.7085" x2="419.7085" y1="256.5859" y2="270.5859"/><line style="stroke:#3600A8;stroke-width:1;" x1="419.7085" x2="457.2085" y1="270.5859" y2="270.5859"/><line style="stroke:#3600A8;stroke-width:1;" x1="10" x2="462.2085" y1="278.5859" y2="278.5859"/><text fill="#008000" font-family="sans-serif" font-size="19" lengthAdjust="spacing" textLength="61.0542" x="15" y="300.1636">Binary</text><line style="stroke:#3600A8;stroke-width:1;" x1="157.2085" x2="207.2085" y1="300.5859" y2="300.5859"/><line style="stroke:#3600A8;stroke-width:1;" x1="207.2085" x2="207.2085" y1="286.5859" y2="300.5859"/><line style="stroke:#3600A8;stroke-width:1;" x1="207.2085" x2="457.2085" y1="286.5859" y2="286.5859"/><line style="stroke:#3600A8;stroke-width:1;" x1="10" x2="462.2085" y1="308.5859" y2="308.5859"/><text fill="#008000" font-family="sans-serif" font-size="19" lengthAdjust="spacing" textLength="65.6465" x="15" y="365.1636">Analog</text><text fill="#008000" font-family="sans-serif" font-size="19" lengthAdjust="spacing" textLength="30.2163" x="124.9922" y="407.1636">0.0</text><text fill="#008000" font-family="sans-serif" font-size="19" lengthAdjust="spacing" textLength="30.2163" x="124.9922" y="323.1636">3.0</text><line style="stroke:#3600A8;stroke-width:1;" x1="157.2085" x2="157.2085" y1="400.5859" y2="400.5859"/><line style="stroke:#3600A8;stroke-width:1;" x1="157.2085" x2="207.2085" y1="400.5859" y2="316.5859"/><line style="stroke:#3600A8;stroke-width:1;" x1="207.2085" x2="307.2085" y1="316.5859" y2="372.5859"/><line style="stroke:#3600A8;stroke-width:1;" x1="307.2085" x2="457.2085" y1="372.5859" y2="372.5859"/><line style="stroke:#3600A8;stroke-width:1;" x1="157.2085" x2="157.2085" y1="408.5859" y2="413.5859"/><line style="stroke:#3600A8;stroke-width:1;" x1="207.2085" x2="207.2085" y1="408.5859" y2="413.5859"/><line style="stroke:#3600A8;stroke-width:1;" x1="257.2085" x2="257.2085" y1="408.5859" y2="413.5859"/><line style="stroke:#3600A8;stroke-width:1;" x1="307.2085" x2="307.2085" y1="408.5859" y2="413.5859"/><line style="stroke:#3600A8;stroke-width:1;" x1="357.2085" x2="357.2085" y1="408.5859" y2="413.5859"/><line style="stroke:#3600A8;stroke-width:1;" x1="407.2085" x2="407.2085" y1="408.5859" y2="413.5859"/><line style="stroke:#3600A8;stroke-width:1;" x1="457.2085" x2="457.2085" y1="408.5859" y2="413.5859"/><line style="stroke:#3600A8;stroke-width:1;" x1="157.2085" x2="457.2085" y1="408.5859" y2="408.5859"/><text fill="#008000" font-family="sans-serif" font-size="19" lengthAdjust="spacing" textLength="12.0884" x="151.1643" y="432.2222">0</text><text fill="#008000" font-family="sans-serif" font-size="19" lengthAdjust="spacing" textLength="36.2651" x="189.0759" y="432.2222">100</text><text fill="#008000" font-family="sans-serif" font-size="19" lengthAdjust="spacing" textLength="36.2651" x="239.0759" y="432.2222">200</text><text fill="#008000" font-family="sans-serif" font-size="19" lengthAdjust="spacing" textLength="36.2651" x="289.0759" y="432.2222">300</text><text fill="#008000" font-family="sans-serif" font-size="19" lengthAdjust="spacing" textLength="36.2651" x="389.0759" y="432.2222">500</text></g></svg>