<svg xmlns="http://www.w3.org/2000/svg" xmlns:xlink="http://www.w3.org/1999/xlink" contentStyleType="text/css" data-diagram-type="TIMING" height="277.0833px" preserveAspectRatio="none" style="width:528px;height:277px;" version="1.1" viewBox="0 0 528 277" width="528.125px" zoomAndPan="magnify"><defs/><g><rect fill="#FFFFCC" height="27.7507" rx="2.6042" ry="2.6042" style="stroke:#FFDD88;stroke-width:3.125;" width="517.5151" x="5.2083" y="5.2083"/><text fill="#000000" font-family="monospace" font-size="10.4167" lengthAdjust="spacing" textLength="370.0104" x="10.4167" y="20.8333">Please&#160;use&#160;'!option&#160;handwritten&#160;true'&#160;to&#160;enable&#160;handwritten</text><path d="M10.4167,48.584 L10.7086,48.584 L9.8412,59.2249 L10.6851,69.8658 L10.9718,80.5067 L9.4258,91.1476 L10.3087,101.7886 L9.8243,112.4295 L9.884,123.0704 L10.322,133.7113 L9.4564,144.3522 L11.1856,154.9931 L9.5413,165.634 L10.142,176.275 L11.0166,186.9159 L10.2975,197.5568 L10.5114,208.1977 L10.3723,218.8386 L10.6646,229.4795 L10.4167,240.1204 " fill="#FFFFFF" fill-opacity="0.00000" style="stroke:#2E2E2E;stroke-width:1.0417;"/><path d="M495.6401,48.584 L495.932,48.584 L495.0646,59.2249 L495.9085,69.8658 L496.1952,80.5067 L494.6492,91.1476 L495.5321,101.7886 L495.0477,112.4295 L495.1074,123.0704 L495.5454,133.7113 L494.6798,144.3522 L496.409,154.9931 L494.7647,165.634 L495.3654,176.275 L496.24,186.9159 L495.5209,197.5568 L495.7348,208.1977 L495.5957,218.8386 L495.888,229.4795 L495.6401,240.1204 " fill="#FFFFFF" fill-opacity="0.00000" style="stroke:#2E2E2E;stroke-width:1.0417;"/><polygon fill="#FFD700" points="177.9317,48.584,177.9317,48.8029,187.9477,48.1524,197.9638,48.7853,207.9798,49.0003,217.9958,47.8409,228.0119,48.503,238.0279,48.1397,248.0439,48.1845,258.0599,48.513,268.076,47.8638,278.092,49.1607,288.108,47.9274,298.124,48.378,308.1401,48.584,308.59,48.584,308.0507,59.2249,308.2111,69.8658,308.1068,80.5067,308.326,91.1476,308.3892,101.7886,308.7501,112.4295,308.8391,123.0704,308.8476,133.7113,308.4053,144.3522,308.623,154.9931,308.8715,165.634,307.3888,176.275,308.8468,186.9159,307.8312,197.5568,308.6961,208.1977,307.6244,218.8386,308.0687,229.4795,308.1401,240.1204,308.1401,240.8929,298.124,240.0697,288.108,240.2301,278.092,240.4732,268.076,240.554,258.0599,240.1164,248.0439,240.4196,238.0279,239.5242,228.0119,240.4167,217.9958,240.6915,207.9798,240.5835,197.9638,240.759,187.9477,239.6172,177.9317,240.1204,177.2524,240.1204,177.2844,229.4795,177.8704,218.8386,177.727,208.1977,178.6415,197.5568,177.7498,186.9159,177.5744,176.275,178.1695,165.634,177.2371,154.9931,177.391,144.3522,178.6077,133.7113,178.3855,123.0704,178.6968,112.4295,177.5965,101.7886,178.2642,91.1476,178.5467,80.5067,177.4396,69.8658,177.8319,59.2249,177.9317,48.584" style="stroke:#FFFFFF00;stroke-width:1.0417;"/><polygon fill="#FFFFFF" fill-opacity="0.00000" points="386.2651,48.584,386.2651,48.8029,396.6817,48.1524,407.0984,48.7853,417.5151,49.0003,427.9317,47.8409,438.3484,48.584,438.2674,48.584,437.9041,59.2249,437.9489,69.8658,438.2774,80.5067,437.6282,91.1476,438.9251,101.7886,437.6918,112.4295,438.1424,123.0704,438.7983,133.7113,438.259,144.3522,438.4195,154.9931,438.3151,165.634,438.5344,176.275,438.5975,186.9159,438.9585,197.5568,439.0474,208.1977,439.0559,218.8386,438.6136,229.4795,438.3484,240.1204,438.3484,240.6033,427.9317,240.8519,417.5151,239.3692,407.0984,240.8272,396.6817,239.8116,386.2651,240.1204,386.8211,240.1204,385.7494,229.4795,386.1937,218.8386,387.0376,208.1977,386.2143,197.5568,386.3747,186.9159,386.6178,176.275,386.6986,165.634,386.261,154.9931,386.5642,144.3522,385.6688,133.7113,386.5613,123.0704,386.8361,112.4295,386.7281,101.7886,386.9036,91.1476,385.7618,80.5067,385.5857,69.8658,385.6178,59.2249,386.2651,48.584" style="stroke:#FFFFFF00;stroke-width:1.0417;"/><path d="M73.7651,48.584 L74.057,48.584 L73.1896,59.2249 L74.0335,69.8658 L74.3202,80.5067 L72.7742,91.1476 L73.6571,101.7886 L73.1727,112.4295 L73.2324,123.0704 L73.6704,133.7113 L72.8048,144.3522 L74.534,154.9931 L72.8897,165.634 L73.4904,176.275 L74.365,186.9159 L73.6459,197.5568 L73.8598,208.1977 L73.7207,218.8386 L74.013,229.4795 L73.7651,240.1204 " fill="#FFFFFF" fill-opacity="0.00000" style="stroke:#2E2E2E;stroke-width:0.5208;stroke-dasharray:3.0,5.0;"/><path d="M125.8484,48.584 L126.1403,48.584 L125.2729,59.2249 L126.1168,69.8658 L126.4035,80.5067 L124.8576,91.1476 L125.7405,101.7886 L125.256,112.4295 L125.3158,123.0704 L125.7537,133.7113 L124.8882,144.3522 L126.6173,154.9931 L124.973,165.634 L125.5737,176.275 L126.4483,186.9159 L125.7293,197.5568 L125.9432,208.1977 L125.804,218.8386 L126.0963,229.4795 L125.8484,240.1204 " fill="#FFFFFF" fill-opacity="0.00000" style="stroke:#2E2E2E;stroke-width:0.5208;stroke-dasharray:3.0,5.0;"/><path d="M177.9317,48.584 L178.2236,48.584 L177.3563,59.2249 L178.2002,69.8658 L178.4868,80.5067 L176.9409,91.1476 L177.8238,101.7886 L177.3394,112.4295 L177.3991,123.0704 L177.8371,133.7113 L176.9715,144.3522 L178.7007,154.9931 L177.0563,165.634 L177.657,176.275 L178.5316,186.9159 L177.8126,197.5568 L178.0265,208.1977 L177.8874,218.8386 L178.1797,229.4795 L177.9317,240.1204 " fill="#FFFFFF" fill-opacity="0.00000" style="stroke:#2E2E2E;stroke-width:0.5208;stroke-dasharray:3.0,5.0;"/><path d="M230.0151,48.584 L230.307,48.584 L229.4396,59.2249 L230.2835,69.8658 L230.5702,80.5067 L229.0242,91.1476 L229.9071,101.7886 L229.4227,112.4295 L229.4824,123.0704 L229.9204,133.7113 L229.0548,144.3522 L230.784,154.9931 L229.1397,165.634 L229.7404,176.275 L230.615,186.9159 L229.8959,197.5568 L230.1098,208.1977 L229.9707,218.8386 L230.263,229.4795 L230.0151,240.1204 " fill="#FFFFFF" fill-opacity="0.00000" style="stroke:#2E2E2E;stroke-width:0.5208;stroke-dasharray:3.0,5.0;"/><path d="M282.0984,48.584 L282.3903,48.584 L281.5229,59.2249 L282.3668,69.8658 L282.6535,80.5067 L281.1076,91.1476 L281.9905,101.7886 L281.506,112.4295 L281.5658,123.0704 L282.0037,133.7113 L281.1382,144.3522 L282.8673,154.9931 L281.223,165.634 L281.8237,176.275 L282.6983,186.9159 L281.9793,197.5568 L282.1932,208.1977 L282.054,218.8386 L282.3463,229.4795 L282.0984,240.1204 " fill="#FFFFFF" fill-opacity="0.00000" style="stroke:#2E2E2E;stroke-width:0.5208;stroke-dasharray:3.0,5.0;"/><path d="M334.1817,48.584 L334.4736,48.584 L333.6063,59.2249 L334.4502,69.8658 L334.7368,80.5067 L333.1909,91.1476 L334.0738,101.7886 L333.5894,112.4295 L333.6491,123.0704 L334.0871,133.7113 L333.2215,144.3522 L334.9507,154.9931 L333.3063,165.634 L333.907,176.275 L334.7816,186.9159 L334.0626,197.5568 L334.2765,208.1977 L334.1374,218.8386 L334.4297,229.4795 L334.1817,240.1204 " fill="#FFFFFF" fill-opacity="0.00000" style="stroke:#2E2E2E;stroke-width:0.5208;stroke-dasharray:3.0,5.0;"/><path d="M386.2651,48.584 L386.557,48.584 L385.6896,59.2249 L386.5335,69.8658 L386.8202,80.5067 L385.2742,91.1476 L386.1571,101.7886 L385.6727,112.4295 L385.7324,123.0704 L386.1704,133.7113 L385.3048,144.3522 L387.034,154.9931 L385.3897,165.634 L385.9904,176.275 L386.865,186.9159 L386.1459,197.5568 L386.3598,208.1977 L386.2207,218.8386 L386.513,229.4795 L386.2651,240.1204 " fill="#FFFFFF" fill-opacity="0.00000" style="stroke:#2E2E2E;stroke-width:0.5208;stroke-dasharray:3.0,5.0;"/><path d="M438.3484,48.584 L438.6403,48.584 L437.7729,59.2249 L438.6168,69.8658 L438.9035,80.5067 L437.3576,91.1476 L438.2405,101.7886 L437.756,112.4295 L437.8158,123.0704 L438.2537,133.7113 L437.3882,144.3522 L439.1173,154.9931 L437.473,165.634 L438.0737,176.275 L438.9483,186.9159 L438.2293,197.5568 L438.4432,208.1977 L438.304,218.8386 L438.5963,229.4795 L438.3484,240.1204 " fill="#FFFFFF" fill-opacity="0.00000" style="stroke:#2E2E2E;stroke-width:0.5208;stroke-dasharray:3.0,5.0;"/><path d="M490.4317,48.584 L490.7236,48.584 L489.8563,59.2249 L490.7002,69.8658 L490.9868,80.5067 L489.4409,91.1476 L490.3238,101.7886 L489.8394,112.4295 L489.8991,123.0704 L490.3371,133.7113 L489.4715,144.3522 L491.2007,154.9931 L489.5563,165.634 L490.157,176.275 L491.0316,186.9159 L490.3126,197.5568 L490.5265,208.1977 L490.3874,218.8386 L490.6797,229.4795 L490.4317,240.1204 " fill="#FFFFFF" fill-opacity="0.00000" style="stroke:#2E2E2E;stroke-width:0.5208;stroke-dasharray:3.0,5.0;"/><path d="M10.4167,48.584 L10.4167,48.8759 L20.7406,48.0085 L31.0645,48.8524 L41.3884,49.1391 L51.7123,47.5932 L62.0362,48.476 L72.3601,47.9916 L82.684,48.0513 L93.0079,48.4893 L103.3318,47.6237 L113.6557,49.3529 L123.9796,47.7086 L134.3035,48.3093 L144.6274,49.1839 L154.9513,48.4649 L165.2752,48.6788 L175.5991,48.5396 L185.923,48.8319 L196.2469,48.9161 L206.5708,49.3974 L216.8947,49.516 L227.2186,49.5274 L237.5425,48.9376 L247.8664,49.2279 L258.1903,49.5593 L268.5142,47.5823 L278.8381,49.5264 L289.162,48.1722 L299.4859,49.3254 L309.8098,47.8965 L320.1337,48.4888 L330.4576,49.614 L340.7815,48.5163 L351.1054,48.7302 L361.4293,49.0543 L371.7532,49.1621 L382.0771,48.5786 L392.401,48.9829 L402.7249,47.789 L413.0488,48.979 L423.3727,49.3454 L433.6966,49.2014 L444.0205,49.4354 L454.3444,47.913 L464.6683,47.6782 L474.9923,47.7209 L485.3162,48.5022 L495.6401,48.584 " fill="#FFFFFF" fill-opacity="0.00000" style="stroke:#2E2E2E;stroke-width:1.0417;"/><text fill="#2E2E2E" font-family="Segoe Print" font-size="12.5" font-weight="bold" lengthAdjust="spacing" textLength="93.4753" x="20.8333" y="65.3951">Web Browser</text><path d="M10.4167,74.5931 L10.4167,74.885 L20.4296,74.0177 L30.4425,74.8616 L40.4554,75.1482 L50.4683,73.6023 L60.4812,74.4852 L70.4941,74.0007 L80.507,74.0605 L90.5199,74.4984 L100.5329,73.6329 L110.5458,75.362 L120.5587,74.5931 " fill="#FFFFFF" fill-opacity="0.00000" style="stroke:#2E2E2E;stroke-width:1.0417;"/><path d="M120.5587,74.5931 L120.649,74.6293 L122.4639,69.32 L124.8084,64.2227 L126.9804,59.0564 L128.5854,53.663 L130.9753,48.584 " fill="#FFFFFF" fill-opacity="0.00000" style="stroke:#2E2E2E;stroke-width:1.0417;"/><text fill="#2E2E2E" font-family="Segoe Print" font-size="12.5" lengthAdjust="spacing" textLength="22.7844" x="20.8333" y="166.3554">Idle</text><text fill="#2E2E2E" font-family="Segoe Print" font-size="12.5" lengthAdjust="spacing" textLength="31.1707" x="20.8333" y="145.5221">Proc.</text><text fill="#2E2E2E" font-family="Segoe Print" font-size="12.5" lengthAdjust="spacing" textLength="47.7234" x="20.8333" y="124.6887">Waiting</text><path d="M73.7651,160.9863 L73.7651,161.2782 L84.1817,160.4109 L94.5984,161.2548 L105.0151,161.5414 L115.4317,159.9955 L125.8484,160.8784 L136.2651,160.394 L146.6817,160.4537 L157.0984,160.8917 L167.5151,160.0261 L177.9317,160.9863 " fill="#FFFFFF" fill-opacity="0.00000" style="stroke:#2E2E2E;stroke-width:1.0417;"/><path d="M177.9317,140.153 L177.9317,140.4449 L188.3484,139.5775 L198.7651,140.4214 L209.1817,140.7081 L219.5984,139.1622 L230.0151,140.153 " fill="#FFFFFF" fill-opacity="0.00000" style="stroke:#2E2E2E;stroke-width:1.0417;"/><path d="M230.0151,119.3197 L230.0151,119.6116 L240.4317,118.7442 L250.8484,119.5881 L261.2651,119.8748 L271.6817,118.3288 L282.0984,119.2117 L292.5151,118.7273 L302.9317,118.787 L313.3484,119.225 L323.7651,118.3594 L334.1817,120.0886 L344.5984,118.4443 L355.0151,119.045 L365.4317,119.9196 L375.8484,119.2005 L386.2651,119.4144 L396.6817,119.2753 L407.0984,119.5676 L417.5151,119.6518 L427.9317,120.1331 L438.3484,119.3197 " fill="#FFFFFF" fill-opacity="0.00000" style="stroke:#2E2E2E;stroke-width:1.0417;"/><path d="M438.3484,160.9863 L438.3484,161.2782 L448.7651,160.4109 L459.1817,161.2548 L469.5984,161.5414 L480.0151,159.9955 L490.4317,160.9863 " fill="#FFFFFF" fill-opacity="0.00000" style="stroke:#2E2E2E;stroke-width:1.0417;"/><path d="M177.9317,140.153 L178.029,140.153 L177.7399,144.3197 L178.0212,148.4863 L178.1168,152.653 L177.6014,156.8197 L177.9317,160.9863 " fill="#FFFFFF" fill-opacity="0.00000" style="stroke:#2E2E2E;stroke-width:1.0417;"/><path d="M230.0151,119.3197 L230.1124,119.3197 L229.8232,123.4863 L230.1045,127.653 L230.2001,131.8197 L229.6848,135.9863 L230.0151,140.153 " fill="#FFFFFF" fill-opacity="0.00000" style="stroke:#2E2E2E;stroke-width:1.0417;"/><path d="M438.3484,119.3197 L438.4457,119.3197 L438.1566,127.653 L438.4379,135.9863 L438.5334,144.3197 L438.0181,152.653 L438.3484,160.9863 " fill="#FFFFFF" fill-opacity="0.00000" style="stroke:#2E2E2E;stroke-width:1.0417;"/><path d="M10.4167,173.4863 L10.4167,173.7782 L20.7406,172.9109 L31.0645,173.7548 L41.3884,174.0414 L51.7123,172.4955 L62.0362,173.3784 L72.3601,172.894 L82.684,172.9537 L93.0079,173.3917 L103.3318,172.5261 L113.6557,174.2553 L123.9796,172.6109 L134.3035,173.2117 L144.6274,174.0863 L154.9513,173.3672 L165.2752,173.5811 L175.5991,173.442 L185.923,173.7343 L196.2469,173.8185 L206.5708,174.2998 L216.8947,174.4183 L227.2186,174.4297 L237.5425,173.84 L247.8664,174.1302 L258.1903,174.4616 L268.5142,172.4847 L278.8381,174.4287 L289.162,173.0745 L299.4859,174.2277 L309.8098,172.7988 L320.1337,173.3912 L330.4576,174.5163 L340.7815,173.4186 L351.1054,173.6326 L361.4293,173.9566 L371.7532,174.0644 L382.0771,173.4809 L392.401,173.8852 L402.7249,172.6913 L413.0488,173.8813 L423.3727,174.2477 L433.6966,174.1037 L444.0205,174.3378 L454.3444,172.8154 L464.6683,172.5805 L474.9923,172.6233 L485.3162,173.4045 L495.6401,173.4863 " fill="#FFFFFF" fill-opacity="0.00000" style="stroke:#2E2E2E;stroke-width:1.0417;"/><text fill="#2E2E2E" font-family="Segoe Print" font-size="12.5" font-weight="bold" lengthAdjust="spacing" textLength="67.7979" x="20.8333" y="190.2974">Web User</text><path d="M10.4167,199.4954 L10.4167,199.7874 L20.9747,198.92 L31.5328,199.7639 L42.0909,200.0506 L52.6489,198.5046 L63.207,199.3875 L73.7651,198.9031 L84.3231,198.9628 L94.8812,199.4954 " fill="#FFFFFF" fill-opacity="0.00000" style="stroke:#2E2E2E;stroke-width:1.0417;"/><path d="M94.8812,199.4954 L94.9715,199.5316 L96.7865,194.2223 L99.1309,189.1251 L101.303,183.9588 L102.9079,178.5654 L105.2979,173.4863 " fill="#FFFFFF" fill-opacity="0.00000" style="stroke:#2E2E2E;stroke-width:1.0417;"/><polygon fill="#FFFFFF" fill-opacity="0.00000" points="86.2651,204.7038,86.2651,204.7768,91.6817,204.5599,97.0984,204.7709,102.5151,204.8426,107.9317,204.4561,113.3484,204.7038,113.3293,204.6847,115.7437,207.0991,118.2542,209.6096,120.8317,212.187,123.1786,214.534,125.8484,217.2038,125.9843,217.3397,123.1936,219.549,120.7998,222.1552,118.4544,224.8098,115.8273,227.1827,113.3484,229.7038,113.3484,229.7275,107.9317,229.6927,102.5151,229.7658,97.0984,229.7868,91.6817,229.9071,86.2651,229.7038,86.4298,229.8685,83.9318,227.3705,81.3276,224.7663,78.8789,222.3176,76.4375,219.8762,73.7651,217.2038,73.588,217.0267,76.4316,214.8704,78.6923,212.131,81.3961,209.8348,83.6435,207.0822,86.2651,204.7038" style="stroke:#2E2E2E;stroke-width:1.0417;"/><polygon fill="#E0FFFF" points="138.3484,204.7038,138.3484,204.9227,148.5336,204.2722,158.7188,204.9051,168.9039,205.1201,179.0891,203.9607,189.2743,204.6228,199.4595,204.2595,209.6447,204.3043,219.8299,204.6328,230.0151,203.9836,240.2002,205.2805,250.3854,204.0472,260.5706,204.4978,270.7558,205.1537,280.941,204.6144,291.1262,204.7749,301.3114,204.6705,311.4965,204.8897,321.6817,204.7038,321.7404,204.7625,324.3255,207.3476,326.8465,209.8685,329.3485,212.3705,331.7442,214.7663,334.1817,217.2038,334.2955,217.3176,331.8541,219.8762,329.0047,222.0267,326.8483,224.8704,324.1089,227.131,321.6817,229.7038,321.6817,230.2598,311.4965,229.1881,301.3114,229.6324,291.1262,230.4763,280.941,229.653,270.7558,229.8135,260.5706,230.0565,250.3854,230.1374,240.2002,229.6997,230.0151,230.003,219.8299,229.1075,209.6447,230,199.4595,230.2748,189.2743,230.1668,179.0891,230.3423,168.9039,229.2006,158.7188,229.0244,148.5336,229.0565,138.3484,229.7038,138.3339,229.6893,135.8001,227.1555,133.5157,224.8711,130.8055,222.1609,128.2642,219.6195,125.8484,217.2038,125.9044,217.2598,128.1847,214.5401,130.7209,212.0763,133.5077,209.8631,135.9554,207.3107,138.3484,204.7038" style="stroke:#00FFFF;stroke-width:1.0417;"/><polygon fill="#FFFFFF" fill-opacity="0.00000" points="346.6817,204.7038,346.6817,204.9227,356.9496,204.2722,367.2174,204.9051,377.4853,205.1201,387.7532,203.9607,398.021,204.6228,408.2889,204.2595,418.5567,204.3043,428.8246,204.6328,439.0924,203.9836,449.3603,205.2805,459.6282,204.0472,469.896,204.4978,480.1639,205.1537,490.4317,204.7038,490.4019,204.7038,490.4554,209.7038,490.4206,214.7038,490.4937,219.7038,490.5148,224.7038,490.4317,229.7038,490.4317,230.3139,480.1639,230.4028,469.896,230.4113,459.6282,229.969,449.3603,230.1867,439.0924,230.4353,428.8246,228.9525,418.5567,230.4106,408.2889,229.3949,398.021,230.2598,387.7532,229.1881,377.4853,229.6324,367.2174,230.4763,356.9496,229.653,346.6817,229.7038,346.7076,229.7296,344.2649,227.2869,341.7839,224.806,339.1808,222.2028,336.7522,219.7743,334.1817,217.2038,334.0412,217.0632,336.7515,214.7736,339.3163,212.3384,341.7909,209.8129,344.3322,207.3543,346.6817,204.7038" style="stroke:#FFFFFF00;stroke-width:1.0417;"/><path d="M490.4317,204.7038 L490.4317,205.2876 L480.1639,203.5529 L469.896,205.2407 L459.6282,205.814 L449.3603,202.7221 L439.0924,204.4879 L428.8246,203.5191 L418.5567,203.6385 L408.2889,204.5145 L398.021,202.7833 L387.7532,206.2417 L377.4853,202.953 L367.2174,204.1544 L356.9496,205.9036 L346.6817,204.7038 L346.6256,204.6476 L344.2264,207.2485 L341.6608,209.6829 L339.2986,212.3207 L336.8383,214.8603 L334.1817,217.2038 L334.5652,217.5872 L337.1211,220.1431 L339.6265,222.6485 L341.8484,224.8705 L344.4852,227.5073 L346.6817,229.7038 L346.6817,231.6544 L356.9496,227.7005 L367.2174,231.5885 L377.4853,228.8802 L387.7532,231.1866 L398.021,228.3287 L408.2889,229.5135 L418.5567,231.7638 L428.8246,229.5684 L439.0924,229.9963 L449.3603,230.6444 L459.6282,230.86 L469.896,229.6929 L480.1639,230.5016 L490.4317,229.7038 " fill="#FFFFFF" fill-opacity="0.00000" style="stroke:#2E2E2E;stroke-width:1.0417;"/><text fill="#2E2E2E" font-family="Segoe Print" font-size="12.5" font-weight="bold" lengthAdjust="spacing" textLength="26.3611" x="86.6262" y="221.5312">Idle</text><text fill="#2E2E2E" font-family="Segoe Print" font-size="12.5" font-weight="bold" lengthAdjust="spacing" textLength="54.6143" x="202.7079" y="221.5312">Waiting</text><text fill="#2E2E2E" font-family="Segoe Print" font-size="12.5" font-weight="bold" lengthAdjust="spacing" textLength="16.9006" x="351.8901" y="221.5312">ok</text><path d="M73.7651,240.1204 L73.8624,240.1204 L73.5732,241.1621 L73.8545,242.2038 L73.9501,243.2454 L73.4348,244.2871 L73.7651,245.3288 " fill="#FFFFFF" fill-opacity="0.00000" style="stroke:#2E2E2E;stroke-width:1.0417;"/><path d="M125.8484,240.1204 L125.9457,240.1204 L125.6566,241.1621 L125.9379,242.2038 L126.0334,243.2454 L125.5181,244.2871 L125.8484,245.3288 " fill="#FFFFFF" fill-opacity="0.00000" style="stroke:#2E2E2E;stroke-width:1.0417;"/><path d="M177.9317,240.1204 L178.029,240.1204 L177.7399,241.1621 L178.0212,242.2038 L178.1168,243.2454 L177.6014,244.2871 L177.9317,245.3288 " fill="#FFFFFF" fill-opacity="0.00000" style="stroke:#2E2E2E;stroke-width:1.0417;"/><path d="M230.0151,240.1204 L230.1124,240.1204 L229.8232,241.1621 L230.1045,242.2038 L230.2001,243.2454 L229.6848,244.2871 L230.0151,245.3288 " fill="#FFFFFF" fill-opacity="0.00000" style="stroke:#2E2E2E;stroke-width:1.0417;"/><path d="M282.0984,240.1204 L282.1957,240.1204 L281.9066,241.1621 L282.1879,242.2038 L282.2834,243.2454 L281.7681,244.2871 L282.0984,245.3288 " fill="#FFFFFF" fill-opacity="0.00000" style="stroke:#2E2E2E;stroke-width:1.0417;"/><path d="M334.1817,240.1204 L334.279,240.1204 L333.9899,241.1621 L334.2712,242.2038 L334.3668,243.2454 L333.8514,244.2871 L334.1817,245.3288 " fill="#FFFFFF" fill-opacity="0.00000" style="stroke:#2E2E2E;stroke-width:1.0417;"/><path d="M386.2651,240.1204 L386.3624,240.1204 L386.0732,241.1621 L386.3545,242.2038 L386.4501,243.2454 L385.9348,244.2871 L386.2651,245.3288 " fill="#FFFFFF" fill-opacity="0.00000" style="stroke:#2E2E2E;stroke-width:1.0417;"/><path d="M438.3484,240.1204 L438.4457,240.1204 L438.1566,241.1621 L438.4379,242.2038 L438.5334,243.2454 L438.0181,244.2871 L438.3484,245.3288 " fill="#FFFFFF" fill-opacity="0.00000" style="stroke:#2E2E2E;stroke-width:1.0417;"/><path d="M490.4317,240.1204 L490.529,240.1204 L490.2399,241.1621 L490.5212,242.2038 L490.6168,243.2454 L490.1014,244.2871 L490.4317,245.3288 " fill="#FFFFFF" fill-opacity="0.00000" style="stroke:#2E2E2E;stroke-width:1.0417;"/><path d="M73.7651,240.1204 L73.7651,240.4124 L84.1817,239.545 L94.5984,240.3889 L105.0151,240.6756 L115.4317,239.1296 L125.8484,240.0125 L136.2651,239.5281 L146.6817,239.5878 L157.0984,240.0258 L167.5151,239.1602 L177.9317,240.8894 L188.3484,239.2451 L198.7651,239.8458 L209.1817,240.7204 L219.5984,240.0013 L230.0151,240.2152 L240.4317,240.0761 L250.8484,240.3684 L261.2651,240.4526 L271.6817,240.9339 L282.0984,241.0525 L292.5151,241.0639 L302.9317,240.4741 L313.3484,240.7643 L323.7651,241.0958 L334.1817,239.1188 L344.5984,241.0628 L355.0151,239.7086 L365.4317,240.8618 L375.8484,239.4329 L386.2651,240.0253 L396.6817,241.1505 L407.0984,240.0528 L417.5151,240.2667 L427.9317,240.5908 L438.3484,240.6985 L448.7651,240.115 L459.1817,240.5194 L469.5984,239.3254 L480.0151,240.5154 L490.4317,240.1204 " fill="#FFFFFF" fill-opacity="0.00000" style="stroke:#2E2E2E;stroke-width:1.0417;"/><text fill="#2E2E2E" font-family="Segoe Print" font-size="12.5" lengthAdjust="spacing" textLength="7.9529" x="69.7886" y="263.1816">0</text><text fill="#2E2E2E" font-family="Segoe Print" font-size="12.5" lengthAdjust="spacing" textLength="23.8586" x="113.9191" y="263.1816">100</text><text fill="#2E2E2E" font-family="Segoe Print" font-size="12.5" lengthAdjust="spacing" textLength="23.8586" x="166.0024" y="263.1816">200</text><text fill="#2E2E2E" font-family="Segoe Print" font-size="12.5" lengthAdjust="spacing" textLength="23.8586" x="218.0857" y="263.1816">300</text><text fill="#2E2E2E" font-family="Segoe Print" font-size="12.5" lengthAdjust="spacing" textLength="23.8586" x="322.2524" y="263.1816">500</text><text fill="#2E2E2E" font-family="Segoe Print" font-size="12.5" lengthAdjust="spacing" textLength="23.8586" x="426.4191" y="263.1816">700</text><path d="M125.8484,217.2038 L126.1403,217.2038 L125.2729,205.9603 L126.1168,194.7168 L126.4035,183.4733 L124.8576,172.2298 L125.8484,160.9863 " fill="#FFFFFF" fill-opacity="0.00000" style="stroke:#333333;stroke-width:3.125;"/><polygon fill="#333333" points="128.6986,168.8171,128.6986,168.8901,127.5585,168.6732,126.4184,168.8842,125.2784,168.9559,124.1383,168.5694,122.9982,168.8171,122.9729,168.8079,123.4291,167.2003,124.0132,165.6392,124.6861,164.1105,125.0528,162.4704,125.8484,160.9863,126.029,161.0521,126.2128,162.4776,126.9239,164.0952,127.6994,165.7361,128.1005,167.2408,128.6986,168.8171" style="stroke:#333333;stroke-width:3.125;"/><text fill="#2E2E2E" font-family="Segoe Print" font-size="12.5" lengthAdjust="spacing" textLength="24.7986" x="131.0567" y="185.6282">URL</text><path d="M230.0151,204.7038 L230.2943,204.7889 L232.3582,195.0488 L236.0589,185.8078 L239.2266,176.4043 L240.6414,166.4662 L244.3794,157.2367 L246.8096,147.6082 L249.7602,138.1385 L253.0727,128.7792 L256.0567,119.3197 " fill="#FFFFFF" fill-opacity="0.00000" style="stroke:#333333;stroke-width:3.125;"/><polygon fill="#333333" points="256.4985,127.6413,256.5198,127.7111,255.366,127.1711,254.3371,127.0403,253.2675,126.7763,252.0643,126.074,251.0461,125.9783,251.0245,125.9621,251.9299,124.5576,252.9439,123.2348,254.0336,121.9689,254.8628,120.5071,256.0567,119.3197,256.2487,119.3299,255.9265,120.9724,256.1648,122.6447,256.4715,124.3206,256.3804,125.9754,256.4985,127.6413" style="stroke:#333333;stroke-width:3.125;"/><text fill="#2E2E2E" font-family="Segoe Print" font-size="12.5" lengthAdjust="spacing" textLength="32.7515" x="258.9806" y="143.6209">URL2</text><path d="M177.9317,48.584 L178.2236,48.584 L177.3563,59.2249 L178.2002,69.8658 L178.4868,80.5067 L176.9409,91.1476 L177.8238,101.7886 L177.3394,112.4295 L177.3991,123.0704 L177.8371,133.7113 L176.9715,144.3522 L178.7007,154.9931 L177.0563,165.634 L177.657,176.275 L178.5316,186.9159 L177.8126,197.5568 L178.0265,208.1977 L177.8874,218.8386 L178.1797,229.4795 L177.9317,240.1204 " fill="#FFFFFF" fill-opacity="0.00000" style="stroke:#696969;stroke-width:1.0417;stroke-dasharray:4.0,4.0;"/><path d="M308.1401,48.584 L308.432,48.584 L307.5646,59.2249 L308.4085,69.8658 L308.6952,80.5067 L307.1492,91.1476 L308.0321,101.7886 L307.5477,112.4295 L307.6074,123.0704 L308.0454,133.7113 L307.1798,144.3522 L308.909,154.9931 L307.2647,165.634 L307.8654,176.275 L308.74,186.9159 L308.0209,197.5568 L308.2348,208.1977 L308.0957,218.8386 L308.388,229.4795 L308.1401,240.1204 " fill="#FFFFFF" fill-opacity="0.00000" style="stroke:#696969;stroke-width:1.0417;stroke-dasharray:4.0,4.0;"/><text fill="#000000" font-family="Segoe Print" font-size="12.5" lengthAdjust="spacing" textLength="113.4338" x="186.2651" y="67.4784">This is my caption</text><path d="M386.2651,48.584 L386.557,48.584 L385.6896,59.2249 L386.5335,69.8658 L386.8202,80.5067 L385.2742,91.1476 L386.1571,101.7886 L385.6727,112.4295 L385.7324,123.0704 L386.1704,133.7113 L385.3048,144.3522 L387.034,154.9931 L385.3897,165.634 L385.9904,176.275 L386.865,186.9159 L386.1459,197.5568 L386.3598,208.1977 L386.2207,218.8386 L386.513,229.4795 L386.2651,240.1204 " fill="#FFFFFF" fill-opacity="0.00000" style="stroke:#2E2E2E;stroke-width:1.0417;stroke-dasharray:4.0,4.0;"/><path d="M438.3484,48.584 L438.6403,48.584 L437.7729,59.2249 L438.6168,69.8658 L438.9035,80.5067 L437.3576,91.1476 L438.2405,101.7886 L437.756,112.4295 L437.8158,123.0704 L438.2537,133.7113 L437.3882,144.3522 L439.1173,154.9931 L437.473,165.634 L438.0737,176.275 L438.9483,186.9159 L438.2293,197.5568 L438.4432,208.1977 L438.304,218.8386 L438.5963,229.4795 L438.3484,240.1204 " fill="#FFFFFF" fill-opacity="0.00000" style="stroke:#2E2E2E;stroke-width:1.0417;stroke-dasharray:4.0,4.0;"/><text fill="#000000" font-family="Segoe Print" font-size="12.5" lengthAdjust="spacing" textLength="92.3584" x="394.5984" y="67.4784">This is another</text><text fill="#000000" font-family="Segoe Print" font-size="12.5" lengthAdjust="spacing" textLength="54.9561" x="394.5984" y="82.0292">highlight</text></g></svg>