<svg xmlns="http://www.w3.org/2000/svg" xmlns:xlink="http://www.w3.org/1999/xlink" contentStyleType="text/css" data-diagram-type="TIMING" height="420.8333px" preserveAspectRatio="none" style="width:461px;height:420px;background:#FDF6E3;" version="1.1" viewBox="0 0 461 420" width="461.4583px" zoomAndPan="magnify"><defs/><g><rect fill="#FDF6E3" height="420.8333" style="stroke:#FFFFFF00;stroke-width:1.0417;" width="461.4583" x="0" y="0"/><line style="stroke:#333333;stroke-width:0.5208;" x1="10.4167" x2="10.4167" y1="10.4167" y2="390.9159"/><line style="stroke:#333333;stroke-width:0.5208;" x1="444.1895" x2="444.1895" y1="10.4167" y2="390.9159"/><line style="stroke:#333333;stroke-width:0.5208;stroke-dasharray:3.0,5.0;" x1="126.4811" x2="126.4811" y1="10.4167" y2="390.9159"/><line style="stroke:#333333;stroke-width:0.5208;stroke-dasharray:3.0,5.0;" x1="178.5645" x2="178.5645" y1="10.4167" y2="390.9159"/><line style="stroke:#333333;stroke-width:0.5208;stroke-dasharray:3.0,5.0;" x1="230.6478" x2="230.6478" y1="10.4167" y2="390.9159"/><line style="stroke:#333333;stroke-width:0.5208;stroke-dasharray:3.0,5.0;" x1="282.7311" x2="282.7311" y1="10.4167" y2="390.9159"/><line style="stroke:#333333;stroke-width:0.5208;stroke-dasharray:3.0,5.0;" x1="334.8145" x2="334.8145" y1="10.4167" y2="390.9159"/><line style="stroke:#333333;stroke-width:0.5208;stroke-dasharray:3.0,5.0;" x1="386.8978" x2="386.8978" y1="10.4167" y2="390.9159"/><line style="stroke:#333333;stroke-width:0.5208;stroke-dasharray:3.0,5.0;" x1="438.9811" x2="438.9811" y1="10.4167" y2="390.9159"/><line style="stroke:#333333;stroke-width:0.5208;" x1="10.4167" x2="444.1895" y1="10.4167" y2="10.4167"/><text fill="#333333" font-family="Dejavu Serif" font-size="14.5833" font-weight="bold" lengthAdjust="spacing" textLength="108.3923" x="15.625" y="24.1099">Web Browser</text><line style="stroke:#333333;stroke-width:0.5208;" x1="10.4167" x2="125.059" y1="28.5909" y2="28.5909"/><line style="stroke:#333333;stroke-width:0.5208;" x1="125.059" x2="135.4757" y1="28.5909" y2="10.4167"/><text fill="#333333" font-family="Dejavu Serif" font-size="12.5" lengthAdjust="spacing" textLength="68.0908" x="15.625" y="121.4274">Initializing</text><text fill="#333333" font-family="Dejavu Serif" font-size="12.5" lengthAdjust="spacing" textLength="23.3948" x="15.625" y="100.5941">idle</text><text fill="#333333" font-family="Dejavu Serif" font-size="12.5" lengthAdjust="spacing" textLength="69.1895" x="15.625" y="79.7607">Processing</text><text fill="#333333" font-family="Dejavu Serif" font-size="12.5" lengthAdjust="spacing" textLength="49.3713" x="15.625" y="58.9274">Waiting</text><line style="stroke:#006400;stroke-width:2.0833;" x1="84.8145" x2="126.4811" y1="116.0583" y2="116.0583"/><line style="stroke:#006400;stroke-width:2.0833;" x1="126.4811" x2="230.6478" y1="95.225" y2="95.225"/><line style="stroke:#006400;stroke-width:2.0833;" x1="230.6478" x2="282.7311" y1="74.3917" y2="74.3917"/><line style="stroke:#006400;stroke-width:2.0833;" x1="282.7311" x2="438.9811" y1="53.5583" y2="53.5583"/><line style="stroke:#006400;stroke-width:2.0833;" x1="126.4811" x2="126.4811" y1="95.225" y2="116.0583"/><line style="stroke:#006400;stroke-width:2.0833;" x1="230.6478" x2="230.6478" y1="74.3917" y2="95.225"/><line style="stroke:#006400;stroke-width:2.0833;" x1="282.7311" x2="282.7311" y1="53.5583" y2="74.3917"/><line style="stroke:#8B0000;stroke-width:1.5625;" x1="129.0853" x2="149.9186" y1="90.0167" y2="90.0167"/><polygon fill="#8B0000" points="137.4186,94.1833,137.4186,85.85,129.0853,90.0167" style="stroke:#8B0000;stroke-width:2.0833;"/><polygon fill="#8B0000" points="141.5853,94.1833,141.5853,85.85,149.9186,90.0167" style="stroke:#8B0000;stroke-width:2.0833;"/><text fill="#8B0000" font-family="Dejavu Serif" font-size="12.5" lengthAdjust="spacing" textLength="77.478" x="100.7629" y="81.8604">{50 ms lag}</text><line style="stroke:#333333;stroke-width:0.5208;" x1="10.4167" x2="444.1895" y1="128.5583" y2="128.5583"/><text fill="#333333" font-family="Dejavu Serif" font-size="14.5833" font-weight="bold" lengthAdjust="spacing" textLength="78.8198" x="15.625" y="142.2516">Web User</text><line style="stroke:#333333;stroke-width:0.5208;" x1="10.4167" x2="95.4865" y1="146.7326" y2="146.7326"/><line style="stroke:#333333;stroke-width:0.5208;" x1="95.4865" x2="105.9031" y1="146.7326" y2="128.5583"/><polygon fill="#E2E2F0" points="53.1901,171.7,113.9811,171.7,126.4811,184.2,113.9811,196.7,53.1901,196.7" style="stroke:#E2E2F0;stroke-width:1.5625;"/><path d="M53.1901,171.7 L113.9811,171.7 L126.4811,184.2 L113.9811,196.7 L53.1901,196.7 " fill="#E2E2F0" style="stroke:#006400;stroke-width:1.5625;"/><text fill="#333333" font-family="Dejavu Serif" font-size="12.5" font-weight="bold" lengthAdjust="spacing" textLength="48.291" x="65.6901" y="188.5946">Absent</text><polygon fill="#E2E2F0" points="138.9811,171.7,374.3978,171.7,386.8978,184.2,374.3978,196.7,138.9811,196.7,126.4811,184.2" style="stroke:#006400;stroke-width:1.5625;"/><polygon fill="#E2E2F0" points="399.3978,171.7,438.9811,171.7,438.9811,196.7,399.3978,196.7,386.8978,184.2" style="stroke:#E2E2F0;stroke-width:1.5625;"/><path d="M438.9811,171.7 L399.3978,171.7 L386.8978,184.2 L399.3978,196.7 L438.9811,196.7 " fill="#E2E2F0" style="stroke:#006400;stroke-width:1.5625;"/><text fill="#333333" font-family="Dejavu Serif" font-size="12.5" font-weight="bold" lengthAdjust="spacing" textLength="55.2368" x="229.071" y="188.5946">Waiting</text><text fill="#333333" font-family="Dejavu Serif" font-size="12.5" font-weight="bold" lengthAdjust="spacing" textLength="16.9983" x="399.3978" y="188.5946">ok</text><line style="stroke:#8B0000;stroke-width:1.5625;" x1="231.6895" x2="307.7311" y1="161.8205" y2="161.8205"/><polygon fill="#8B0000" points="240.0228,165.9871,240.0228,157.6538,231.6895,161.8205" style="stroke:#8B0000;stroke-width:1.0417;"/><polygon fill="#8B0000" points="299.3978,165.9871,299.3978,157.6538,307.7311,161.8205" style="stroke:#8B0000;stroke-width:1.0417;"/><text fill="#8B0000" font-family="Dejavu Serif" font-size="12.5" lengthAdjust="spacing" textLength="62.0056" x="238.7075" y="153.6641">{150 ms}</text><line style="stroke:#333333;stroke-width:0.5208;" x1="10.4167" x2="444.1895" y1="207.1167" y2="207.1167"/><text fill="#333333" font-family="Dejavu Serif" font-size="14.5833" font-weight="bold" lengthAdjust="spacing" textLength="63.2965" x="15.625" y="220.8099">Clock_1</text><line style="stroke:#333333;stroke-width:0.5208;" x1="10.4167" x2="79.9632" y1="225.2909" y2="225.2909"/><line style="stroke:#333333;stroke-width:0.5208;" x1="79.9632" x2="90.3798" y1="225.2909" y2="207.1167"/><line style="stroke:#006400;stroke-width:1.5625;" x1="126.4811" x2="131.6895" y1="247.1659" y2="247.1659"/><line style="stroke:#006400;stroke-width:1.5625;" x1="131.6895" x2="131.6895" y1="232.5826" y2="247.1659"/><line style="stroke:#006400;stroke-width:1.5625;" x1="131.6895" x2="139.502" y1="232.5826" y2="232.5826"/><line style="stroke:#006400;stroke-width:1.5625;" x1="139.502" x2="139.502" y1="232.5826" y2="247.1659"/><line style="stroke:#006400;stroke-width:1.5625;" x1="139.502" x2="183.7728" y1="247.1659" y2="247.1659"/><line style="stroke:#006400;stroke-width:1.5625;" x1="183.7728" x2="183.7728" y1="232.5826" y2="247.1659"/><line style="stroke:#006400;stroke-width:1.5625;" x1="183.7728" x2="191.5853" y1="232.5826" y2="232.5826"/><line style="stroke:#006400;stroke-width:1.5625;" x1="191.5853" x2="191.5853" y1="232.5826" y2="247.1659"/><line style="stroke:#006400;stroke-width:1.5625;" x1="191.5853" x2="235.8561" y1="247.1659" y2="247.1659"/><line style="stroke:#006400;stroke-width:1.5625;" x1="235.8561" x2="235.8561" y1="232.5826" y2="247.1659"/><line style="stroke:#006400;stroke-width:1.5625;" x1="235.8561" x2="243.6686" y1="232.5826" y2="232.5826"/><line style="stroke:#006400;stroke-width:1.5625;" x1="243.6686" x2="243.6686" y1="232.5826" y2="247.1659"/><line style="stroke:#006400;stroke-width:1.5625;" x1="243.6686" x2="287.9395" y1="247.1659" y2="247.1659"/><line style="stroke:#006400;stroke-width:1.5625;" x1="287.9395" x2="287.9395" y1="232.5826" y2="247.1659"/><line style="stroke:#006400;stroke-width:1.5625;" x1="287.9395" x2="295.752" y1="232.5826" y2="232.5826"/><line style="stroke:#006400;stroke-width:1.5625;" x1="295.752" x2="295.752" y1="232.5826" y2="247.1659"/><line style="stroke:#006400;stroke-width:1.5625;" x1="295.752" x2="340.0228" y1="247.1659" y2="247.1659"/><line style="stroke:#006400;stroke-width:1.5625;" x1="340.0228" x2="340.0228" y1="232.5826" y2="247.1659"/><line style="stroke:#006400;stroke-width:1.5625;" x1="340.0228" x2="347.8353" y1="232.5826" y2="232.5826"/><line style="stroke:#006400;stroke-width:1.5625;" x1="347.8353" x2="347.8353" y1="232.5826" y2="247.1659"/><line style="stroke:#006400;stroke-width:1.5625;" x1="347.8353" x2="392.1061" y1="247.1659" y2="247.1659"/><line style="stroke:#006400;stroke-width:1.5625;" x1="392.1061" x2="392.1061" y1="232.5826" y2="247.1659"/><line style="stroke:#006400;stroke-width:1.5625;" x1="392.1061" x2="399.9186" y1="232.5826" y2="232.5826"/><line style="stroke:#006400;stroke-width:1.5625;" x1="399.9186" x2="399.9186" y1="232.5826" y2="247.1659"/><line style="stroke:#006400;stroke-width:1.5625;" x1="399.9186" x2="438.9811" y1="247.1659" y2="247.1659"/><line style="stroke:#333333;stroke-width:0.5208;" x1="10.4167" x2="444.1895" y1="255.4993" y2="255.4993"/><text fill="#333333" font-family="Dejavu Serif" font-size="14.5833" font-weight="bold" lengthAdjust="spacing" textLength="54.0751" x="15.625" y="276.2512">Binary</text><line style="stroke:#006400;stroke-width:2.0833;" x1="126.4811" x2="178.5645" y1="278.4159" y2="278.4159"/><line style="stroke:#006400;stroke-width:2.0833;" x1="178.5645" x2="178.5645" y1="263.8326" y2="278.4159"/><line style="stroke:#006400;stroke-width:2.0833;" x1="178.5645" x2="438.9811" y1="263.8326" y2="263.8326"/><line style="stroke:#333333;stroke-width:0.5208;" x1="10.4167" x2="444.1895" y1="286.7493" y2="286.7493"/><text fill="#333333" font-family="Dejavu Serif" font-size="14.5833" font-weight="bold" lengthAdjust="spacing" textLength="56.8309" x="15.625" y="343.9596">Analog</text><text fill="#333333" font-family="Dejavu Serif" font-size="14.5833" font-weight="bold" lengthAdjust="spacing" textLength="25.3713" x="99.0265" y="387.7096">0.0</text><text fill="#333333" font-family="Dejavu Serif" font-size="14.5833" font-weight="bold" lengthAdjust="spacing" textLength="25.3713" x="99.0265" y="300.2096">3.0</text><line style="stroke:#333333;stroke-width:0.5208;" x1="126.4811" x2="126.4811" y1="382.5826" y2="382.5826"/><line style="stroke:#333333;stroke-width:0.5208;" x1="126.4811" x2="178.5645" y1="382.5826" y2="295.0826"/><line style="stroke:#333333;stroke-width:0.5208;" x1="178.5645" x2="282.7311" y1="295.0826" y2="353.4159"/><line style="stroke:#333333;stroke-width:0.5208;" x1="282.7311" x2="438.9811" y1="353.4159" y2="353.4159"/><line style="stroke:#333333;stroke-width:2.0833;" x1="126.4811" x2="126.4811" y1="390.9159" y2="396.1243"/><line style="stroke:#333333;stroke-width:2.0833;" x1="178.5645" x2="178.5645" y1="390.9159" y2="396.1243"/><line style="stroke:#333333;stroke-width:2.0833;" x1="230.6478" x2="230.6478" y1="390.9159" y2="396.1243"/><line style="stroke:#333333;stroke-width:2.0833;" x1="282.7311" x2="282.7311" y1="390.9159" y2="396.1243"/><line style="stroke:#333333;stroke-width:2.0833;" x1="334.8145" x2="334.8145" y1="390.9159" y2="396.1243"/><line style="stroke:#333333;stroke-width:2.0833;" x1="386.8978" x2="386.8978" y1="390.9159" y2="396.1243"/><line style="stroke:#333333;stroke-width:2.0833;" x1="438.9811" x2="438.9811" y1="390.9159" y2="396.1243"/><line style="stroke:#333333;stroke-width:2.0833;" x1="126.4811" x2="438.9811" y1="390.9159" y2="390.9159"/><text fill="#333333" font-family="Dejavu Serif" font-size="11.4583" lengthAdjust="spacing" textLength="7.2901" x="122.836" y="407.8018">0</text><text fill="#333333" font-family="Dejavu Serif" font-size="11.4583" lengthAdjust="spacing" textLength="21.8704" x="167.6292" y="407.8018">100</text><text fill="#333333" font-family="Dejavu Serif" font-size="11.4583" lengthAdjust="spacing" textLength="21.8704" x="219.7126" y="407.8018">200</text><text fill="#333333" font-family="Dejavu Serif" font-size="11.4583" lengthAdjust="spacing" textLength="21.8704" x="271.7959" y="407.8018">300</text><text fill="#333333" font-family="Dejavu Serif" font-size="11.4583" lengthAdjust="spacing" textLength="21.8704" x="375.9626" y="407.8018">500</text></g></svg>