<svg xmlns="http://www.w3.org/2000/svg" xmlns:xlink="http://www.w3.org/1999/xlink" contentStyleType="text/css" data-diagram-type="TIMING" height="206.25px" preserveAspectRatio="none" style="width:504px;height:206px;background:#FDF6E3;" version="1.1" viewBox="0 0 504 206" width="504.1667px" zoomAndPan="magnify"><defs/><g><rect fill="#FDF6E3" height="206.25" style="stroke:#FFFFFF00;stroke-width:1.0417;" width="504.1667" x="0" y="0"/><line style="stroke:#333333;stroke-width:0.5208;" x1="10.4167" x2="10.4167" y1="10.4167" y2="175.8667"/><line style="stroke:#333333;stroke-width:0.5208;" x1="486.8713" x2="486.8713" y1="10.4167" y2="175.8667"/><rect fill="#FFD700" height="165.45" style="stroke:#FFFFFF00;stroke-width:1.0417;" width="130.2083" x="169.163" y="10.4167"/><rect fill="#EEEEEE" height="165.45" style="stroke:#FFFFFF00;stroke-width:1.0417;" width="52.0833" x="377.4963" y="10.4167"/><line style="stroke:#333333;stroke-width:0.5208;stroke-dasharray:3.0,5.0;" x1="64.9963" x2="64.9963" y1="10.4167" y2="175.8667"/><line style="stroke:#333333;stroke-width:0.5208;stroke-dasharray:3.0,5.0;" x1="117.0797" x2="117.0797" y1="10.4167" y2="175.8667"/><line style="stroke:#333333;stroke-width:0.5208;stroke-dasharray:3.0,5.0;" x1="169.163" x2="169.163" y1="10.4167" y2="175.8667"/><line style="stroke:#333333;stroke-width:0.5208;stroke-dasharray:3.0,5.0;" x1="221.2463" x2="221.2463" y1="10.4167" y2="175.8667"/><line style="stroke:#333333;stroke-width:0.5208;stroke-dasharray:3.0,5.0;" x1="273.3297" x2="273.3297" y1="10.4167" y2="175.8667"/><line style="stroke:#333333;stroke-width:0.5208;stroke-dasharray:3.0,5.0;" x1="325.413" x2="325.413" y1="10.4167" y2="175.8667"/><line style="stroke:#333333;stroke-width:0.5208;stroke-dasharray:3.0,5.0;" x1="377.4963" x2="377.4963" y1="10.4167" y2="175.8667"/><line style="stroke:#333333;stroke-width:0.5208;stroke-dasharray:3.0,5.0;" x1="429.5797" x2="429.5797" y1="10.4167" y2="175.8667"/><line style="stroke:#333333;stroke-width:0.5208;stroke-dasharray:3.0,5.0;" x1="481.663" x2="481.663" y1="10.4167" y2="175.8667"/><line style="stroke:#333333;stroke-width:0.5208;" x1="10.4167" x2="486.8713" y1="10.4167" y2="10.4167"/><text fill="#333333" font-family="Dejavu Serif" font-size="14.5833" font-weight="bold" lengthAdjust="spacing" textLength="108.3923" x="15.625" y="24.1099">Web Browser</text><line style="stroke:#333333;stroke-width:0.5208;" x1="10.4167" x2="125.059" y1="28.5909" y2="28.5909"/><line style="stroke:#333333;stroke-width:0.5208;" x1="125.059" x2="135.4757" y1="28.5909" y2="10.4167"/><text fill="#333333" font-family="Dejavu Serif" font-size="12.5" lengthAdjust="spacing" textLength="24.3347" x="15.625" y="109.9365">Idle</text><text fill="#333333" font-family="Dejavu Serif" font-size="12.5" lengthAdjust="spacing" textLength="32.8857" x="15.625" y="89.1032">Proc.</text><text fill="#333333" font-family="Dejavu Serif" font-size="12.5" lengthAdjust="spacing" textLength="49.3713" x="15.625" y="68.2699">Waiting</text><line style="stroke:#006400;stroke-width:2.0833;" x1="64.9963" x2="169.163" y1="104.5675" y2="104.5675"/><line style="stroke:#006400;stroke-width:2.0833;" x1="169.163" x2="221.2463" y1="83.7341" y2="83.7341"/><line style="stroke:#006400;stroke-width:2.0833;" x1="221.2463" x2="429.5797" y1="62.9008" y2="62.9008"/><line style="stroke:#006400;stroke-width:2.0833;" x1="429.5797" x2="481.663" y1="104.5675" y2="104.5675"/><line style="stroke:#006400;stroke-width:2.0833;" x1="169.163" x2="169.163" y1="83.7341" y2="104.5675"/><line style="stroke:#006400;stroke-width:2.0833;" x1="221.2463" x2="221.2463" y1="62.9008" y2="83.7341"/><line style="stroke:#006400;stroke-width:2.0833;" x1="429.5797" x2="429.5797" y1="62.9008" y2="104.5675"/><line style="stroke:#333333;stroke-width:0.5208;" x1="10.4167" x2="486.8713" y1="117.0675" y2="117.0675"/><text fill="#333333" font-family="Dejavu Serif" font-size="14.5833" font-weight="bold" lengthAdjust="spacing" textLength="78.8198" x="15.625" y="130.7607">Web User</text><line style="stroke:#333333;stroke-width:0.5208;" x1="10.4167" x2="95.4865" y1="135.2417" y2="135.2417"/><line style="stroke:#333333;stroke-width:0.5208;" x1="95.4865" x2="105.9031" y1="135.2417" y2="117.0675"/><polygon fill="#E2E2F0" points="77.4963,140.45,104.5797,140.45,117.0797,152.95,104.5797,165.45,77.4963,165.45,64.9963,152.95" style="stroke:#006400;stroke-width:1.5625;"/><polygon fill="#E0FFFF" points="129.5797,140.45,312.913,140.45,325.413,152.95,312.913,165.45,129.5797,165.45,117.0797,152.95" style="stroke:#00FFFF;stroke-width:1.5625;"/><polygon fill="#E2E2F0" points="337.913,140.45,481.663,140.45,481.663,165.45,337.913,165.45,325.413,152.95" style="stroke:#E2E2F0;stroke-width:1.5625;"/><path d="M481.663,140.45 L337.913,140.45 L325.413,152.95 L337.913,165.45 L481.663,165.45 " fill="#E2E2F0" style="stroke:#006400;stroke-width:1.5625;"/><text fill="#333333" font-family="Dejavu Serif" font-size="12.5" font-weight="bold" lengthAdjust="spacing" textLength="27.2888" x="77.3936" y="157.3446">Idle</text><text fill="#333333" font-family="Dejavu Serif" font-size="12.5" font-weight="bold" lengthAdjust="spacing" textLength="55.2368" x="193.6279" y="157.3446">Waiting</text><text fill="#333333" font-family="Dejavu Serif" font-size="12.5" font-weight="bold" lengthAdjust="spacing" textLength="16.9983" x="337.913" y="157.3446">ok</text><line style="stroke:#333333;stroke-width:2.0833;" x1="64.9963" x2="64.9963" y1="175.8667" y2="181.075"/><line style="stroke:#333333;stroke-width:2.0833;" x1="117.0797" x2="117.0797" y1="175.8667" y2="181.075"/><line style="stroke:#333333;stroke-width:2.0833;" x1="169.163" x2="169.163" y1="175.8667" y2="181.075"/><line style="stroke:#333333;stroke-width:2.0833;" x1="221.2463" x2="221.2463" y1="175.8667" y2="181.075"/><line style="stroke:#333333;stroke-width:2.0833;" x1="273.3297" x2="273.3297" y1="175.8667" y2="181.075"/><line style="stroke:#333333;stroke-width:2.0833;" x1="325.413" x2="325.413" y1="175.8667" y2="181.075"/><line style="stroke:#333333;stroke-width:2.0833;" x1="377.4963" x2="377.4963" y1="175.8667" y2="181.075"/><line style="stroke:#333333;stroke-width:2.0833;" x1="429.5797" x2="429.5797" y1="175.8667" y2="181.075"/><line style="stroke:#333333;stroke-width:2.0833;" x1="481.663" x2="481.663" y1="175.8667" y2="181.075"/><line style="stroke:#333333;stroke-width:2.0833;" x1="64.9963" x2="481.663" y1="175.8667" y2="175.8667"/><text fill="#333333" font-family="Dejavu Serif" font-size="11.4583" lengthAdjust="spacing" textLength="7.2901" x="61.3513" y="192.7526">0</text><text fill="#333333" font-family="Dejavu Serif" font-size="11.4583" lengthAdjust="spacing" textLength="21.8704" x="106.1445" y="192.7526">100</text><text fill="#333333" font-family="Dejavu Serif" font-size="11.4583" lengthAdjust="spacing" textLength="21.8704" x="158.2278" y="192.7526">200</text><text fill="#333333" font-family="Dejavu Serif" font-size="11.4583" lengthAdjust="spacing" textLength="21.8704" x="210.3111" y="192.7526">300</text><text fill="#333333" font-family="Dejavu Serif" font-size="11.4583" lengthAdjust="spacing" textLength="21.8704" x="314.4778" y="192.7526">500</text><text fill="#333333" font-family="Dejavu Serif" font-size="11.4583" lengthAdjust="spacing" textLength="21.8704" x="418.6445" y="192.7526">700</text><line style="stroke:#657B83;stroke-width:2.0833;" x1="117.0797" x2="117.0797" y1="152.95" y2="104.5675"/><polygon fill="#657B83" points="119.9298,112.3982,114.2295,112.3982,117.0797,104.5675" style="stroke:#657B83;stroke-width:2.0833;"/><text fill="#00008B" font-family="Dejavu Serif" font-size="14.5833" lengthAdjust="spacing" textLength="32.9549" x="117.0797" y="125.9348">URL</text><line style="stroke:#657B83;stroke-width:2.0833;" x1="221.2463" x2="247.288" y1="140.45" y2="62.9008"/><polygon fill="#657B83" points="247.4971,71.2315,242.0933,69.4169,247.288,62.9008" style="stroke:#657B83;stroke-width:2.0833;"/><text fill="#00008B" font-family="Dejavu Serif" font-size="14.5833" lengthAdjust="spacing" textLength="42.2333" x="244.7952" y="83.8608">URL2</text><line style="stroke:#696969;stroke-width:2.0833;stroke-dasharray:4.0,4.0;" x1="169.163" x2="169.163" y1="10.4167" y2="175.8667"/><line style="stroke:#696969;stroke-width:2.0833;stroke-dasharray:4.0,4.0;" x1="299.3713" x2="299.3713" y1="10.4167" y2="175.8667"/><text fill="#000000" font-family="Dejavu Serif" font-size="12.5" lengthAdjust="spacing" textLength="115.1001" x="172.288" y="24.1028">This is my caption</text><line style="stroke:#333333;stroke-width:2.0833;stroke-dasharray:4.0,4.0;" x1="377.4963" x2="377.4963" y1="10.4167" y2="175.8667"/><line style="stroke:#333333;stroke-width:2.0833;stroke-dasharray:4.0,4.0;" x1="429.5797" x2="429.5797" y1="10.4167" y2="175.8667"/><text fill="#000000" font-family="Dejavu Serif" font-size="12.5" lengthAdjust="spacing" textLength="94.635" x="380.6213" y="24.1028">This is another</text><text fill="#000000" font-family="Dejavu Serif" font-size="12.5" lengthAdjust="spacing" textLength="57.1716" x="380.6213" y="38.6536">highlight</text></g></svg>