<svg xmlns="http://www.w3.org/2000/svg" xmlns:xlink="http://www.w3.org/1999/xlink" contentStyleType="text/css" data-diagram-type="DESCRIPTION" height="197.9167px" preserveAspectRatio="none" style="width:355px;height:197px;" version="1.1" viewBox="0 0 355 197" width="355.2083px" zoomAndPan="magnify"><defs/><g><!--entity User--><g class="entity" data-entity="User" data-source-line="7" data-uid="ent0002" id="entity_User"><polygon fill="#474747" points="106.8629,44.679,104.4199,48.0171,101.5302,52.9064,97.3975,56.2014,93.0547,58.0032,89.5921,58.1596,85.1416,55.9061,80.9423,54.434,77.755,51.445,76.0831,48.0231,75.0915,45.2985,74.1202,41.7397,72.5435,38.6772,73.7551,35.6871,74.8166,32.4117,78.8001,29.8212,81.6026,26.46,85.0714,25.3438,89.1953,24.3827,94.4836,24.9537,97.38,26.3197,100.7477,26.9389,104.8423,31.1341,106.2697,35.5628,106.8899,38.5846,106.1874,43.5642" style="stroke:#333333;stroke-width:1.0417;"/><path d="M90.1042,61.4583 L90.1042,61.4583 L90.1374,61.5498 L92.3303,60.4447 L94.7181,59.8758 L97.0424,59.1322 L99.158,57.8146 L101.5625,57.2917 L101.5625,57.2917 L101.5476,57.2589 L103.7725,58.1536 L106.0724,59.2134 L108.4244,60.3879 L110.5967,61.1669 L113.0208,62.5 L113.2542,62.6061 L113.7969,64.6709 L115.0208,67.0454 L116.3279,69.4578 L117.1513,71.6502 L118.2292,73.9583 L118.2924,73.9583 L118.1996,74.7917 L118.3945,75.625 L118.4506,76.4583 L118.7715,77.2917 L118.2292,78.125 L118.2292,78.125 L118.4488,78.3447 L116.7849,80.014 L114.9792,81.5417 L113.3809,83.2768 L111.7924,85.0216 L109.8958,86.4583 L109.8958,85.7906 L101.9792,87.0866 L94.0625,86.1838 L86.1458,86.9526 L78.2292,86 L70.3125,86.4583 L70.3125,86.4583 L70.2901,86.4359 L68.8886,85.0344 L66.9632,83.109 L65.347,81.4928 L63.7567,79.9025 L61.9792,78.125 L62.3646,78.125 L61.9755,77.2917 L62.2451,76.4583 L61.4492,75.625 L62.2425,74.7917 L61.9792,73.9583 L61.9792,73.9583 L62.2102,74.0634 L63.2082,71.7518 L64.3209,69.4924 L64.9006,66.9908 L65.871,64.6667 L67.1875,62.5 L67.0685,62.2381 L69.4679,61.4335 L71.7332,60.3338 L74.193,59.6622 L76.3207,58.2597 L78.6458,57.2917 L78.6458,57.2917 L78.5916,57.1424 L80.9736,58.2243 L83.1237,58.6682 L85.4387,59.5658 L87.9152,60.9074 L90.1042,61.4583" fill="#474747" style="stroke:#333333;stroke-width:1.0417;"/><text fill="#FFFFFF" font-family="'Segoe Print'" font-size="12.5" lengthAdjust="spacing" textLength="28.4912" x="75.8586" y="104.3111">User</text></g><!--entity Use--><g class="entity" data-entity="Use" data-source-line="7" data-uid="ent0003" id="entity_Use"><polygon fill="#474747" points="162.5839,171.384,161.1131,174.2988,155.4995,176.5167,149.0584,178.7263,143.7411,181.2927,133.709,182.756,124.544,184.3284,113.7869,185.3429,101.935,185.829,91.642,186.3273,77.6815,185.5434,68.7729,185.4562,57.2511,184.2233,46.1652,182.5219,38.3973,181.0045,30.5925,178.8786,24.7533,176.6202,19.9193,174.0265,17.1036,171.3707,15.5169,168.5171,16.2556,165.7835,18.9363,163.1517,24.1907,160.8498,29.8164,158.4494,36.8503,156.2846,48.4289,155.1832,55.5308,153.1281,68.1176,152.5417,77.7204,151.5294,91.2566,151.7899,101.9357,151.806,111.5781,152.0649,123.8024,153.4621,133.3497,154.8036,141.6759,156.4517,149.026,158.4712,155.8867,160.9686,159.7359,163.3318,164.1203,166.3547,163.3446,168.6555" style="stroke:#333333;stroke-width:2.0833;"/><text fill="#FFFFFF" font-family="'Segoe Print'" font-size="12.5" lengthAdjust="spacing" textLength="120.7642" x="29.9027" y="172.4157">Use the application</text></g><!--entity Admin--><g class="entity" data-entity="Admin" data-source-line="8" data-uid="ent0005" id="entity_Admin"><polygon fill="#474747" points="279.7358,44.679,277.2928,48.0171,274.4032,52.9064,270.2705,56.2014,265.9277,58.0032,262.465,58.1596,258.0145,55.9061,253.8152,54.434,250.6279,51.445,248.956,48.0231,247.9645,45.2985,246.9931,41.7397,245.4165,38.6772,246.628,35.6871,247.6895,32.4117,251.673,29.8212,254.4755,26.46,257.9444,25.3438,262.0682,24.3827,267.3565,24.9537,270.253,26.3197,273.6206,26.9389,277.7152,31.1341,279.1426,35.5628,279.7628,38.5846,279.0604,43.5642" style="stroke:#333333;stroke-width:1.0417;"/><path d="M262.9771,61.4583 L262.9771,61.4583 L263.0103,61.5498 L265.2032,60.4447 L267.591,59.8758 L269.9153,59.1322 L272.0309,57.8146 L274.4354,57.2917 L274.4354,57.2917 L274.4205,57.2589 L276.6454,58.1536 L278.9453,59.2134 L281.2974,60.3879 L283.4696,61.1669 L285.8938,62.5 L286.1271,62.6061 L286.6698,64.6709 L287.8937,67.0454 L289.2008,69.4578 L290.0243,71.6502 L291.1021,73.9583 L291.1653,73.9583 L291.0725,74.7917 L291.2674,75.625 L291.3235,76.4583 L291.6444,77.2917 L291.1021,78.125 L291.1021,78.125 L291.3218,78.3447 L289.6578,80.014 L287.8521,81.5417 L286.2539,83.2768 L284.6653,85.0216 L282.7688,86.4583 L282.7688,85.7906 L274.8521,87.0866 L266.9354,86.1838 L259.0188,86.9526 L251.1021,86 L243.1854,86.4583 L243.1854,86.4583 L243.163,86.4359 L241.7615,85.0344 L239.8361,83.109 L238.2199,81.4928 L236.6296,79.9025 L234.8521,78.125 L235.2375,78.125 L234.8485,77.2917 L235.118,76.4583 L234.3221,75.625 L235.1154,74.7917 L234.8521,73.9583 L234.8521,73.9583 L235.0831,74.0634 L236.0811,71.7518 L237.1938,69.4924 L237.7735,66.9908 L238.7439,64.6667 L240.0604,62.5 L239.9414,62.2381 L242.3408,61.4335 L244.6061,60.3338 L247.066,59.6622 L249.1936,58.2597 L251.5188,57.2917 L251.5188,57.2917 L251.4645,57.1424 L253.8465,58.2243 L255.9966,58.6682 L258.3116,59.5658 L260.7881,60.9074 L262.9771,61.4583" fill="#474747" style="stroke:#333333;stroke-width:1.0417;"/><text fill="#FFFFFF" font-family="'Segoe Print'" font-size="12.5" lengthAdjust="spacing" textLength="73.8708" x="226.0417" y="104.3111">Main Admin</text></g><!--entity Admin the application--><g class="entity" data-entity="Admin the application" data-source-line="10" data-uid="ent0006" id="entity_Admin the application"><polygon fill="#474747" points="342.6269,171.4957,341.0108,174.6568,334.8425,177.062,327.765,179.4583,321.9223,182.2414,310.8988,183.8283,300.8283,185.5335,289.0083,186.6337,275.9853,187.1609,264.6753,187.7013,249.3353,186.8512,239.5464,186.7567,226.8862,185.4196,214.7049,183.5745,206.1695,181.9288,197.5935,179.6234,191.1773,177.1742,185.8657,174.3615,182.7717,171.4813,181.0283,168.3867,181.84,165.4223,184.7856,162.5682,190.5591,160.0718,196.7407,157.4686,204.4697,155.121,217.1923,153.9265,224.996,151.6979,238.8264,151.0619,249.3781,149.9641,264.2518,150.2466,275.986,150.2641,286.5813,150.5448,300.0134,152.0601,310.5041,153.5148,319.6529,155.3021,327.7293,157.4922,335.2679,160.2006,339.4975,162.7634,344.3151,166.0416,343.4627,168.5368" style="stroke:#333333;stroke-width:2.0833;"/><text fill="#FFFFFF" font-family="'Segoe Print'" font-size="12.5" lengthAdjust="spacing" textLength="137.4695" x="194.4492" y="172.308">Admin the application</text></g><g class="link" data-entity-1="User" data-entity-2="Use" data-uid="lnk4" id="link_User_Use"><polygon fill="#333333" points="90.1042,151.0996,90.1709,151.1293,90.806,149.1662,91.8322,147.3769,92.731,145.531,93.2111,143.499,94.2708,141.7246,94.2518,141.7055,93.3328,142.4532,92.51,143.2971,91.7541,144.2079,90.7678,144.8882,90.1042,145.8913,90.2401,146.0272,89.1161,144.9032,88.3889,144.1761,87.7102,143.4973,86.7498,142.5369,85.9375,141.7246,85.9592,141.7342,86.7607,143.5951,87.6608,145.4998,88.5134,147.3833,89.4567,149.3072,90.1042,151.0996" style="stroke:#333333;stroke-width:1.0417;"/><path d="M90.1042,112.7309 L90.2015,112.7309 L89.9124,119.1546 L90.1937,125.5784 L90.2892,132.0021 L89.7739,138.4259 L90.1042,144.8496" fill="none" style="stroke:#333333;stroke-width:3.125;"/></g><g class="link" data-entity-1="Admin" data-entity-2="Admin the application" data-uid="lnk7" id="link_Admin_Admin the application"><polygon fill="#333333" points="263.0208,149.6388,263.0875,149.6684,263.7227,147.7054,264.7488,145.916,265.6476,144.0701,266.1278,142.0382,267.1875,140.2638,267.1684,140.2447,266.2495,140.9924,265.4267,141.8363,264.6708,142.747,263.6844,143.4274,263.0208,144.4304,263.1568,144.5664,262.0328,143.4424,261.3056,142.7152,260.6269,142.0365,259.6664,141.0761,258.8542,140.2638,258.8758,140.2734,259.6774,142.1343,260.5775,144.039,261.43,145.9225,262.3733,147.8464,263.0208,149.6388" style="stroke:#333333;stroke-width:1.0417;"/><path d="M263.0208,112.7309 L263.1181,112.7309 L262.829,118.8624 L263.1103,124.994 L263.2059,131.1256 L262.6906,137.2572 L263.0208,143.3888" fill="none" style="stroke:#333333;stroke-width:3.125;"/></g></g></svg>