<svg xmlns="http://www.w3.org/2000/svg" xmlns:xlink="http://www.w3.org/1999/xlink" contentStyleType="text/css" height="218.75px" preserveAspectRatio="none" style="width:500px;height:218px;" version="1.1" viewBox="0 0 500 218" width="500px" zoomAndPan="magnify"><defs><linearGradient id="gm0w7pllv6n7c0" x1="50%" x2="50%" y1="0%" y2="100%"><stop offset="0%" stop-color="#EEEEEE"/><stop offset="100%" stop-color="#BEBEBE"/></linearGradient></defs><g><!--entity User--><g id="elem_User"><ellipse cx="126.0417" cy="40.625" fill="url(#gm0w7pllv6n7c0)" rx="16.6667" ry="16.6667" style="stroke:#F1F1F1;stroke-width:1.0417;"/><path d="M126.0417,61.4583 C130.2083,61.4583 133.3333,61.4583 137.5,57.2917 C145.8333,57.2917 154.1667,65.625 154.1667,73.9583 L154.1667,78.125 C154.1667,82.2917 150,86.4583 145.8333,86.4583 L106.25,86.4583 C102.0833,86.4583 97.9167,82.2917 97.9167,78.125 L97.9167,73.9583 C97.9167,65.625 106.25,57.2917 114.5833,57.2917 C118.75,61.4583 121.875,61.4583 126.0417,61.4583 " fill="url(#gm0w7pllv6n7c0)" style="stroke:#F1F1F1;stroke-width:1.0417;"/><text fill="#303030" font-family="Verdana" font-size="12.5" lengthAdjust="spacing" textLength="28.4912" x="111.7961" y="107.4361">User</text></g><g id="elem_Use"><ellipse cx="125.8088" cy="182.4907" fill="url(#gm0w7pllv6n7c0)" rx="109.1421" ry="25.1991" style="stroke:#F1F1F1;stroke-width:2.0833;"/><text fill="#336699" font-family="Verdana" font-size="12.5" lengthAdjust="spacing" textLength="120.7642" x="65.4267" y="184.7348">Use the application</text></g><!--entity Admin--><g id="elem_Admin"><ellipse cx="371.8313" cy="40.625" fill="url(#gm0w7pllv6n7c0)" rx="16.6667" ry="16.6667" style="stroke:#F1F1F1;stroke-width:1.0417;"/><path d="M371.8313,61.4583 C375.9979,61.4583 379.1229,61.4583 383.2896,57.2917 C391.6229,57.2917 399.9563,65.625 399.9563,73.9583 L399.9563,78.125 C399.9563,82.2917 395.7896,86.4583 391.6229,86.4583 L352.0396,86.4583 C347.8729,86.4583 343.7063,82.2917 343.7063,78.125 L343.7063,73.9583 C343.7063,65.625 352.0396,57.2917 360.3729,57.2917 C364.5396,61.4583 367.6646,61.4583 371.8313,61.4583 " fill="url(#gm0w7pllv6n7c0)" style="stroke:#F1F1F1;stroke-width:1.0417;"/><text fill="#303030" font-family="Verdana" font-size="12.5" lengthAdjust="spacing" textLength="73.8708" x="334.8958" y="107.4361">Main Admin</text></g><g id="elem_Admin the application"><ellipse cx="371.9734" cy="182.2072" fill="url(#gm0w7pllv6n7c0)" rx="117.2859" ry="25.9572" style="stroke:#F1F1F1;stroke-width:2.0833;"/><text fill="#336699" font-family="Verdana" font-size="12.5" lengthAdjust="spacing" textLength="137.4695" x="303.2386" y="184.4512">Admin the application</text></g><polygon fill="#EEEEEE" points="126.0417,157.1626,130.2083,147.7876,126.0417,151.9543,121.875,147.7876,126.0417,157.1626" style="stroke:#EEEEEE;stroke-width:1.0417;"/><path d="M126.0417,118.8946 C126.0417,132.0956 126.0417,139.6547 126.0417,150.9126 " fill="none" style="stroke:#EEEEEE;stroke-width:3.125;"/><polygon fill="#EEEEEE" points="371.875,155.9683,376.0417,146.5933,371.875,150.7599,367.7083,146.5933,371.875,155.9683" style="stroke:#EEEEEE;stroke-width:1.0417;"/><path d="M371.875,118.8946 C371.875,131.6324 371.875,138.6864 371.875,149.7183 " fill="none" style="stroke:#EEEEEE;stroke-width:3.125;"/></g></svg>