<svg xmlns="http://www.w3.org/2000/svg" xmlns:xlink="http://www.w3.org/1999/xlink" contentStyleType="text/css" height="198px" preserveAspectRatio="none" style="width:517px;height:198px;background:#AAAAAA;" version="1.1" viewBox="0 0 517 198" width="517px" zoomAndPan="magnify"><defs/><g><rect fill="#AAAAAA" height="198" style="stroke:none;stroke-width:1;" width="517" x="0" y="0"/><!--entity User--><g id="elem_User"><ellipse cx="122.5" cy="28.5" fill="#CEFEFE" rx="16" ry="16" style="stroke:#3600A8;stroke-width:0.5;"/><path d="M122.5,48.5 C126.5,48.5 129.5,48.5 133.5,44.5 C141.5,44.5 149.5,52.5 149.5,60.5 L149.5,64.5 C149.5,68.5 145.5,72.5 141.5,72.5 L103.5,72.5 C99.5,72.5 95.5,68.5 95.5,64.5 L95.5,60.5 C95.5,52.5 103.5,44.5 111.5,44.5 C115.5,48.5 118.5,48.5 122.5,48.5 " fill="#CEFEFE" style="stroke:#3600A8;stroke-width:0.5;"/><text fill="#0000FF" font-family="sans-serif" font-size="24" lengthAdjust="spacing" textLength="54.7031" x="95.1484" y="95.2773">User</text></g><g id="elem_Use"><ellipse cx="122.6678" cy="165.2336" fill="#CEFEFE" rx="116.6678" ry="25.7336" style="stroke:#3600A8;stroke-width:1;"/><text fill="#008000" font-family="sans-serif" font-size="19" lengthAdjust="spacing" textLength="183.5615" x="27.8871" y="171.3017">Use the application</text></g><!--entity Admin--><g id="elem_Admin"><ellipse cx="384.6418" cy="31.5" fill="#CEFEFE" rx="16" ry="16" style="stroke:#3600A8;stroke-width:0.5;"/><path d="M384.6418,51.5 C388.6418,51.5 391.6418,51.5 395.6418,47.5 C403.6418,47.5 411.6418,55.5 411.6418,63.5 L411.6418,67.5 C411.6418,71.5 407.6418,75.5 403.6418,75.5 L365.6418,75.5 C361.6418,75.5 357.6418,71.5 357.6418,67.5 L357.6418,63.5 C357.6418,55.5 365.6418,47.5 373.6418,47.5 C377.6418,51.5 380.6418,51.5 384.6418,51.5 " fill="#CEFEFE" style="stroke:#3600A8;stroke-width:0.5;"/><text fill="#008000" font-family="sans-serif" font-size="19" lengthAdjust="spacing" textLength="112.2837" x="328.5" y="93.6362">Main Admin</text></g><g id="elem_Admin the application"><ellipse cx="384.4518" cy="164.8904" fill="#CEFEFE" rx="127.4518" ry="27.8904" style="stroke:#3600A8;stroke-width:1;"/><text fill="#008000" font-family="sans-serif" font-size="19" lengthAdjust="spacing" textLength="208.9536" x="276.975" y="170.9585">Admin the application</text></g><polygon fill="#00FF00" points="122.5,139.2142,126.5,130.2142,122.5,134.2142,118.5,130.2142,122.5,139.2142" style="stroke:#00FF00;stroke-width:1;"/><path d="M122.5,101.1249 C122.5,114.1073 122.5,121.8792 122.5,133.2142 " fill="none" style="stroke:#00FF00;stroke-width:1;"/><polygon fill="#00FF00" points="384.5,136.7443,388.5,127.7443,384.5,131.7443,380.5,127.7443,384.5,136.7443" style="stroke:#00FF00;stroke-width:1;"/><path d="M384.5,98.0669 C384.5,110.9991 384.5,118.9911 384.5,130.7443 " fill="none" style="stroke:#00FF00;stroke-width:1;"/></g></svg>