<svg xmlns="http://www.w3.org/2000/svg" xmlns:xlink="http://www.w3.org/1999/xlink" contentStyleType="text/css" height="208.3333px" preserveAspectRatio="none" style="width:453px;height:208px;" version="1.1" viewBox="0 0 453 208" width="453.125px" zoomAndPan="magnify"><defs/><g><!--entity User--><g id="elem_User"><ellipse cx="115.1042" cy="40.625" fill="none" rx="16.6667" ry="16.6667" style="stroke:#55B2DE;stroke-width:1.0417;"/><path d="M115.1042,61.4583 C119.2708,61.4583 122.3958,61.4583 126.5625,57.2917 C134.8958,57.2917 143.2292,65.625 143.2292,73.9583 L143.2292,78.125 C143.2292,82.2917 139.0625,86.4583 134.8958,86.4583 L95.3125,86.4583 C91.1458,86.4583 86.9792,82.2917 86.9792,78.125 L86.9792,73.9583 C86.9792,65.625 95.3125,57.2917 103.6458,57.2917 C107.8125,61.4583 110.9375,61.4583 115.1042,61.4583 " fill="none" style="stroke:#55B2DE;stroke-width:1.0417;"/><text fill="#2A9FD6" font-family="Verdana" font-size="12.5" lengthAdjust="spacing" textLength="28.4912" x="100.8586" y="104.3111">User</text></g><g id="elem_Use"><ellipse cx="114.9606" cy="173.2005" fill="none" rx="98.294" ry="22.1588" style="stroke:#55B2DE;stroke-width:2.0833;"/><text fill="#2A9FD6" font-family="Verdana" font-size="12.5" lengthAdjust="spacing" textLength="120.7642" x="54.5785" y="175.4445">Use the application</text></g><!--entity Admin--><g id="elem_Admin"><ellipse cx="336.9354" cy="40.625" fill="none" rx="16.6667" ry="16.6667" style="stroke:#55B2DE;stroke-width:1.0417;"/><path d="M336.9354,61.4583 C341.1021,61.4583 344.2271,61.4583 348.3938,57.2917 C356.7271,57.2917 365.0604,65.625 365.0604,73.9583 L365.0604,78.125 C365.0604,82.2917 360.8938,86.4583 356.7271,86.4583 L317.1438,86.4583 C312.9771,86.4583 308.8104,82.2917 308.8104,78.125 L308.8104,73.9583 C308.8104,65.625 317.1438,57.2917 325.4771,57.2917 C329.6438,61.4583 332.7688,61.4583 336.9354,61.4583 " fill="none" style="stroke:#55B2DE;stroke-width:1.0417;"/><text fill="#2A9FD6" font-family="Verdana" font-size="12.5" lengthAdjust="spacing" textLength="73.8708" x="300" y="104.3111">Main Admin</text></g><g id="elem_Admin the application"><ellipse cx="337.0386" cy="173.4494" fill="none" rx="104.7469" ry="23.4494" style="stroke:#55B2DE;stroke-width:2.0833;"/><text fill="#2A9FD6" font-family="Verdana" font-size="12.5" lengthAdjust="spacing" textLength="137.4695" x="268.3038" y="175.6934">Admin the application</text></g><polygon fill="#2A9FD6" points="115.1042,150.9675,119.2708,141.5925,115.1042,145.7592,110.9375,141.5925,115.1042,150.9675" style="stroke:#2A9FD6;stroke-width:1.0417;"/><path d="M115.1042,112.7052 C115.1042,125.9467 115.1042,133.64 115.1042,144.7175 " fill="none" style="stroke:#2A9FD6;stroke-width:3.125;"/><polygon fill="#2A9FD6" points="336.9792,149.8503,341.1458,140.4753,336.9792,144.642,332.8125,140.4753,336.9792,149.8503" style="stroke:#2A9FD6;stroke-width:1.0417;"/><path d="M336.9792,112.7052 C336.9792,125.5053 336.9792,132.7112 336.9792,143.6003 " fill="none" style="stroke:#2A9FD6;stroke-width:3.125;"/></g></svg>