<svg xmlns="http://www.w3.org/2000/svg" xmlns:xlink="http://www.w3.org/1999/xlink" contentStyleType="text/css" height="192.7083px" preserveAspectRatio="none" style="width:437px;height:192px;" version="1.1" viewBox="0 0 437 192" width="437.5px" zoomAndPan="magnify"><defs><linearGradient id="gd86i6pd6h3yb0" x1="50%" x2="50%" y1="0%" y2="100%"><stop offset="0%" stop-color="#F18E3E"/><stop offset="100%" stop-color="#EC7211"/></linearGradient></defs><g><!--entity User--><g id="elem_User"><ellipse cx="104.6875" cy="30.2083" fill="url(#gd86i6pd6h3yb0)" rx="16.6667" ry="16.6667" style="stroke:#EC7211;stroke-width:1.0417;"/><path d="M104.6875,51.0417 C108.8542,51.0417 111.9792,51.0417 116.1458,46.875 C124.4792,46.875 132.8125,55.2083 132.8125,63.5417 L132.8125,67.7083 C132.8125,71.875 128.6458,76.0417 124.4792,76.0417 L84.8958,76.0417 C80.7292,76.0417 76.5625,71.875 76.5625,67.7083 L76.5625,63.5417 C76.5625,55.2083 84.8958,46.875 93.2292,46.875 C97.3958,51.0417 100.5208,51.0417 104.6875,51.0417 " fill="url(#gd86i6pd6h3yb0)" style="stroke:#EC7211;stroke-width:1.0417;"/><text fill="#4E5D6C" font-family="Verdana" font-size="12.5" lengthAdjust="spacing" textLength="28.4912" x="90.4419" y="93.8944">User</text></g><g id="elem_Use"><ellipse cx="104.544" cy="162.7838" fill="url(#gd86i6pd6h3yb0)" rx="98.294" ry="22.1588" style="stroke:#EC7211;stroke-width:2.0833;"/><text fill="#FFFFFF" font-family="Verdana" font-size="12.5" lengthAdjust="spacing" textLength="120.7642" x="44.1619" y="165.0278">Use the application</text></g><!--entity Admin--><g id="elem_Admin"><ellipse cx="326.5188" cy="30.2083" fill="url(#gd86i6pd6h3yb0)" rx="16.6667" ry="16.6667" style="stroke:#EC7211;stroke-width:1.0417;"/><path d="M326.5188,51.0417 C330.6854,51.0417 333.8104,51.0417 337.9771,46.875 C346.3104,46.875 354.6438,55.2083 354.6438,63.5417 L354.6438,67.7083 C354.6438,71.875 350.4771,76.0417 346.3104,76.0417 L306.7271,76.0417 C302.5604,76.0417 298.3938,71.875 298.3938,67.7083 L298.3938,63.5417 C298.3938,55.2083 306.7271,46.875 315.0604,46.875 C319.2271,51.0417 322.3521,51.0417 326.5188,51.0417 " fill="url(#gd86i6pd6h3yb0)" style="stroke:#EC7211;stroke-width:1.0417;"/><text fill="#4E5D6C" font-family="Verdana" font-size="12.5" lengthAdjust="spacing" textLength="73.8708" x="289.5833" y="93.8944">Main Admin</text></g><g id="elem_Admin the application"><ellipse cx="326.6219" cy="163.0327" fill="url(#gd86i6pd6h3yb0)" rx="104.7469" ry="23.4494" style="stroke:#EC7211;stroke-width:2.0833;"/><text fill="#FFFFFF" font-family="Verdana" font-size="12.5" lengthAdjust="spacing" textLength="137.4695" x="257.8872" y="165.2768">Admin the application</text></g><polygon fill="#EC7211" points="104.6875,140.5508,108.8542,131.1758,104.6875,135.3425,100.5208,131.1758,104.6875,140.5508" style="stroke:#EC7211;stroke-width:1.0417;"/><path d="M104.6875,102.2885 C104.6875,115.5301 104.6875,123.2233 104.6875,134.3008 " fill="none" style="stroke:#EC7211;stroke-width:3.125;"/><polygon fill="#EC7211" points="326.5625,139.4337,330.7292,130.0587,326.5625,134.2253,322.3958,130.0587,326.5625,139.4337" style="stroke:#EC7211;stroke-width:1.0417;"/><path d="M326.5625,102.2885 C326.5625,115.0887 326.5625,122.2945 326.5625,133.1837 " fill="none" style="stroke:#EC7211;stroke-width:3.125;"/></g></svg>