<svg xmlns="http://www.w3.org/2000/svg" xmlns:xlink="http://www.w3.org/1999/xlink" contentStyleType="text/css" data-diagram-type="DESCRIPTION" height="245.8333px" preserveAspectRatio="none" style="width:468px;height:245px;" version="1.1" viewBox="0 0 468 245" width="468.75px" zoomAndPan="magnify"><defs/><g><rect fill="#FFFFCC" height="27.7507" rx="2.6042" ry="2.6042" style="stroke:#FFDD88;stroke-width:3.125;" width="457.4105" x="5.2083" y="5.2083"/><text fill="#000000" font-family="monospace" font-size="10.4167" lengthAdjust="spacing" textLength="370.0104" x="10.4167" y="20.8333">Please&#160;use&#160;'!option&#160;handwritten&#160;true'&#160;to&#160;enable&#160;handwritten</text><!--entity User--><g id="elem_User"><polygon fill="#474747" points="131.8629,82.8463,129.4199,86.1844,126.5302,91.0737,122.3975,94.3687,118.0547,96.1705,114.5921,96.3269,110.1416,94.0734,105.9423,92.6013,102.755,89.6123,101.0831,86.1905,100.0915,83.4659,99.1202,79.907,97.5435,76.8445,98.7551,73.8544,99.8166,70.579,103.8001,67.9885,106.6026,64.6273,110.0714,63.5112,114.1953,62.55,119.4836,63.1211,122.38,64.4871,125.7477,65.1062,129.8423,69.3014,131.2697,73.7301,131.8899,76.7519,131.1874,81.7315" style="stroke:#333333;stroke-width:1.0417;"/><path d="M115.1042,99.6257 L115.1042,99.6257 L115.1374,99.7171 L117.3303,98.6121 L119.7181,98.0431 L122.0424,97.2995 L124.158,95.9819 L126.5625,95.459 L126.5625,95.459 L126.5476,95.4262 L128.7725,96.3209 L131.0724,97.3807 L133.4244,98.5553 L135.5967,99.3343 L138.0208,100.6673 L138.2542,100.7734 L138.7969,102.8382 L140.0208,105.2128 L141.3279,107.6251 L142.1513,109.8176 L143.2292,112.1257 L143.2924,112.1257 L143.1996,112.959 L143.3945,113.7923 L143.4506,114.6257 L143.7715,115.459 L143.2292,116.2923 L143.2292,116.2923 L143.4488,116.512 L141.7849,118.1813 L139.9792,119.709 L138.3809,121.4441 L136.7924,123.1889 L134.8958,124.6257 L134.8958,123.9579 L126.9792,125.2539 L119.0625,124.3511 L111.1458,125.1199 L103.2292,124.1673 L95.3125,124.6257 L95.3125,124.6257 L95.2901,124.6032 L93.8886,123.2018 L91.9632,121.2764 L90.347,119.6601 L88.7567,118.0698 L86.9792,116.2923 L87.3646,116.2923 L86.9755,115.459 L87.2451,114.6257 L86.4492,113.7923 L87.2425,112.959 L86.9792,112.1257 L86.9792,112.1257 L87.2102,112.2307 L88.2082,109.9191 L89.3209,107.6598 L89.9006,105.1581 L90.871,102.834 L92.1875,100.6673 L92.0685,100.4054 L94.4679,99.6008 L96.7332,98.5012 L99.193,97.8295 L101.3207,96.427 L103.6458,95.459 L103.6458,95.459 L103.5916,95.3097 L105.9736,96.3916 L108.1237,96.8355 L110.4387,97.7331 L112.9152,99.0747 L115.1042,99.6257 " fill="#474747" style="stroke:#333333;stroke-width:1.0417;"/><text fill="#FFFFFF" font-family="Segoe Print" font-size="12.5" lengthAdjust="spacing" textLength="28.4912" x="100.8586" y="142.4784">User</text></g><g id="elem_Use"><polygon fill="#474747" points="211.4935,214.71,209.5297,218.46,202.0345,221.3134,193.4345,224.1562,186.3349,227.458,172.9401,229.3405,160.703,231.3634,146.3403,232.6686,130.5158,233.294,116.7728,233.9351,98.1329,232.9266,86.2382,232.8145,70.8545,231.2283,56.0527,229.0394,45.6811,227.0871,35.2603,224.3521,27.4638,221.4465,21.0096,218.1097,17.25,214.6929,15.1315,211.0217,16.1179,207.5048,19.6971,204.119,26.7126,201.1574,34.224,198.0692,43.6156,195.2842,59.0752,193.8671,68.5576,191.2232,85.3633,190.4687,98.1848,189.1664,116.2582,189.5015,130.5167,189.5223,143.3912,189.8553,159.7129,191.6529,172.4603,193.3787,183.5773,195.499,193.3911,198.0972,202.5514,201.3102,207.6909,204.3506,213.5448,208.2396,212.5091,211.1997" style="stroke:#333333;stroke-width:2.0833;"/><text fill="#FFFFFF" font-family="Segoe Print" font-size="12.5" lengthAdjust="spacing" textLength="120.7642" x="54.5785" y="213.6118">Use the application</text></g><!--entity Admin--><g id="elem_Admin"><polygon fill="#474747" points="353.6942,82.8463,351.2511,86.1844,348.3615,91.0737,344.2288,94.3687,339.886,96.1705,336.4233,96.3269,331.9728,94.0734,327.7736,92.6013,324.5862,89.6123,322.9143,86.1905,321.9228,83.4659,320.9514,79.907,319.3748,76.8445,320.5864,73.8544,321.6478,70.579,325.6313,67.9885,328.4339,64.6273,331.9027,63.5112,336.0265,62.55,341.3148,63.1211,344.2113,64.4871,347.5789,65.1062,351.6736,69.3014,353.101,73.7301,353.7211,76.7519,353.0187,81.7315" style="stroke:#333333;stroke-width:1.0417;"/><path d="M336.9354,99.6257 L336.9354,99.6257 L336.9687,99.7171 L339.1615,98.6121 L341.5493,98.0431 L343.8737,97.2995 L345.9892,95.9819 L348.3938,95.459 L348.3938,95.459 L348.3789,95.4262 L350.6037,96.3209 L352.9036,97.3807 L355.2557,98.5553 L357.428,99.3343 L359.8521,100.6673 L360.0854,100.7734 L360.6281,102.8382 L361.8521,105.2128 L363.1591,107.6251 L363.9826,109.8176 L365.0604,112.1257 L365.1236,112.1257 L365.0308,112.959 L365.2257,113.7923 L365.2818,114.6257 L365.6027,115.459 L365.0604,116.2923 L365.0604,116.2923 L365.2801,116.512 L363.6161,118.1813 L361.8104,119.709 L360.2122,121.4441 L358.6236,123.1889 L356.7271,124.6257 L356.7271,123.9579 L348.8104,125.2539 L340.8938,124.3511 L332.9771,125.1199 L325.0604,124.1673 L317.1438,124.6257 L317.1438,124.6257 L317.1213,124.6032 L315.7199,123.2018 L313.7945,121.2764 L312.1782,119.6601 L310.5879,118.0698 L308.8104,116.2923 L309.1958,116.2923 L308.8068,115.459 L309.0764,114.6257 L308.2804,113.7923 L309.0737,112.959 L308.8104,112.1257 L308.8104,112.1257 L309.0415,112.2307 L310.0394,109.9191 L311.1521,107.6598 L311.7318,105.1581 L312.7022,102.834 L314.0188,100.6673 L313.8997,100.4054 L316.2991,99.6008 L318.5644,98.5012 L321.0243,97.8295 L323.152,96.427 L325.4771,95.459 L325.4771,95.459 L325.4228,95.3097 L327.8049,96.3916 L329.9549,96.8355 L332.27,97.7331 L334.7464,99.0747 L336.9354,99.6257 " fill="#474747" style="stroke:#333333;stroke-width:1.0417;"/><text fill="#FFFFFF" font-family="Segoe Print" font-size="12.5" lengthAdjust="spacing" textLength="73.8708" x="300" y="142.4784">Main Admin</text></g><g id="elem_Admin the application"><polygon fill="#474747" points="439.9088,215.1536,437.8161,219.122,429.8289,222.1416,420.6642,225.15,413.0985,228.644,398.8243,230.6362,385.784,232.7769,370.4784,234.1582,353.615,234.82,338.9697,235.4984,319.1061,234.4312,306.4305,234.3125,290.0369,232.6339,274.2634,230.3175,263.2109,228.2516,252.1059,225.3572,243.7976,222.2825,236.9197,218.7513,232.9133,215.1355,230.6557,211.2505,231.7069,207.5288,235.521,203.9457,242.9972,200.8117,251.0016,197.5436,261.0098,194.5964,277.4843,193.0967,287.5892,190.2989,305.4982,189.5004,319.1615,188.1222,338.4213,188.4769,353.6159,188.4989,367.3357,188.8513,384.7288,190.7536,398.3131,192.5799,410.16,194.8237,420.618,197.5732,430.3797,200.9733,435.8566,204.1908,442.0948,208.3064,440.9911,211.4389" style="stroke:#333333;stroke-width:2.0833;"/><text fill="#FFFFFF" font-family="Segoe Print" font-size="12.5" lengthAdjust="spacing" textLength="137.4695" x="268.3038" y="213.8608">Admin the application</text></g><polygon fill="#333333" points="115.1042,189.1348,115.1709,189.1645,115.806,187.2014,116.8322,185.4121,117.731,183.5662,118.2111,181.5342,119.2708,179.7598,119.2518,179.7407,118.3328,180.4884,117.51,181.3323,116.7541,182.2431,115.7678,182.9234,115.1042,183.9265,115.2401,184.0624,114.1161,182.9384,113.3889,182.2113,112.7102,181.5325,111.7498,180.5721,110.9375,179.7598,110.9592,179.7694,111.7607,181.6303,112.6608,183.535,113.5134,185.4185,114.4567,187.3424,115.1042,189.1348" style="stroke:#333333;stroke-width:1.0417;"/><path d="M115.1042,150.8725 L115.2015,150.8725 L114.9124,157.275 L115.1937,163.6774 L115.2892,170.0799 L114.7739,176.4824 L115.1042,182.8848 " fill="#FFFFFF" fill-opacity="0.00000" style="stroke:#333333;stroke-width:3.125;"/><polygon fill="#333333" points="336.9792,188.0176,337.0459,188.0473,337.681,186.0842,338.7072,184.2949,339.606,182.449,340.0861,180.417,341.1458,178.6426,341.1268,178.6236,340.2078,179.3713,339.385,180.2152,338.6291,181.1259,337.6428,181.8062,336.9792,182.8093,337.1151,182.9452,335.9911,181.8212,335.2639,181.0941,334.5852,180.4154,333.6248,179.4549,332.8125,178.6426,332.8342,178.6523,333.6357,180.5131,334.5358,182.4178,335.3884,184.3014,336.3317,186.2252,336.9792,188.0176" style="stroke:#333333;stroke-width:1.0417;"/><path d="M336.9792,150.8725 L337.0765,150.8725 L336.7874,157.0515 L337.0687,163.2305 L337.1642,169.4096 L336.6489,175.5886 L336.9792,181.7676 " fill="#FFFFFF" fill-opacity="0.00000" style="stroke:#333333;stroke-width:3.125;"/></g></svg>