<svg xmlns="http://www.w3.org/2000/svg" xmlns:xlink="http://www.w3.org/1999/xlink" contentStyleType="text/css" data-diagram-type="WBS" height="217px" preserveAspectRatio="none" style="width:228px;height:217px;background:#777777;" version="1.1" viewBox="0 0 228 217" width="228px" zoomAndPan="magnify"><defs/><g><rect fill="#777777" height="217" style="stroke:#FFFFFF00;stroke-width:1;" width="228" x="0" y="0"/><line style="stroke:#FFFFFF;stroke-width:1.5;" x1="44.4358" x2="44.4358" y1="62.8047" y2="82.8047"/><rect fill="#2E2E2E" height="32.8047" style="stroke:#1B1B1B;stroke-width:1.5;" width="68.8716" x="10" y="82.8047"/><text fill="#FFFFFF" font-family="Verdana" font-size="11" lengthAdjust="spacing" textLength="45.375" x="20" y="103.0151">America</text><line style="stroke:#FFFFFF;stroke-width:1.5;" x1="44.4358" x2="54.4358" y1="138.0117" y2="138.0117"/><text fill="#FFFFFF" font-family="Verdana" font-size="11" lengthAdjust="spacing" textLength="41.8569" x="54.4358" y="141.8198">Canada</text><line style="stroke:#FFFFFF;stroke-width:1.5;" x1="44.4358" x2="54.4358" y1="167.8164" y2="167.8164"/><text fill="#FFFFFF" font-family="Verdana" font-size="11" lengthAdjust="spacing" textLength="38.6021" x="54.4358" y="171.6245">Mexico</text><line style="stroke:#FFFFFF;stroke-width:1.5;" x1="44.4358" x2="54.4358" y1="197.6211" y2="197.6211"/><text fill="#FFFFFF" font-family="Verdana" font-size="11" lengthAdjust="spacing" textLength="22.5586" x="54.4358" y="201.4292">USA</text><line style="stroke:#FFFFFF;stroke-width:1.5;" x1="44.4358" x2="44.4358" y1="115.6094" y2="197.6211"/><line style="stroke:#FFFFFF;stroke-width:1.5;" x1="152.2515" x2="152.2515" y1="62.8047" y2="82.8047"/><rect fill="#2E2E2E" height="32.8047" style="stroke:#1B1B1B;stroke-width:1.5;" width="58.9243" x="122.7893" y="82.8047"/><text fill="#FFFFFF" font-family="Verdana" font-size="11" lengthAdjust="spacing" textLength="38.9243" x="132.7893" y="103.0151">Europe</text><line style="stroke:#FFFFFF;stroke-width:1.5;" x1="152.2515" x2="162.2515" y1="138.0117" y2="138.0117"/><text fill="#FFFFFF" font-family="Verdana" font-size="11" lengthAdjust="spacing" textLength="44.6553" x="162.2515" y="141.8198">England</text><line style="stroke:#FFFFFF;stroke-width:1.5;" x1="152.2515" x2="162.2515" y1="167.8164" y2="167.8164"/><text fill="#FFFFFF" font-family="Verdana" font-size="11" lengthAdjust="spacing" textLength="50.7515" x="162.2515" y="171.6245">Germany</text><line style="stroke:#FFFFFF;stroke-width:1.5;" x1="152.2515" x2="162.2515" y1="197.6211" y2="197.6211"/><text fill="#FFFFFF" font-family="Verdana" font-size="11" lengthAdjust="spacing" textLength="30.7334" x="162.2515" y="201.4292">Spain</text><line style="stroke:#FFFFFF;stroke-width:1.5;" x1="152.2515" x2="152.2515" y1="115.6094" y2="197.6211"/><line style="stroke:#FFFFFF;stroke-width:1.5;" x1="44.4358" x2="152.2515" y1="62.8047" y2="62.8047"/><rect fill="#2E2E2E" height="32.8047" style="stroke:#1B1B1B;stroke-width:1.5;" width="52.1675" x="72.2599" y="10"/><text fill="#FFFFFF" font-family="Verdana" font-size="11" lengthAdjust="spacing" textLength="32.1675" x="82.2599" y="30.2104">World</text><line style="stroke:#FFFFFF;stroke-width:1.5;" x1="98.3436" x2="98.3436" y1="42.8047" y2="62.8047"/></g></svg>