<svg xmlns="http://www.w3.org/2000/svg" xmlns:xlink="http://www.w3.org/1999/xlink" contentStyleType="text/css" height="267.7083px" preserveAspectRatio="none" style="width:281px;height:267px;" version="1.1" viewBox="0 0 281 267" width="281.25px" zoomAndPan="magnify"><defs/><g><path d="M53.8096,77.0508 L53.9069,77.0508 L53.6178,81.2174 L53.8991,85.3841 L53.9946,89.5508 L53.4793,93.7174 L53.8096,97.8841 " fill="none" style="stroke:#333333;stroke-width:3.125;"/><polygon fill="none" points="14.5833,97.8841,14.5833,98.1031,24.3899,97.4525,34.1965,98.0855,44.003,98.3004,53.8096,97.141,63.6162,97.8032,73.4227,97.4399,83.2293,97.4846,93.0359,97.8841,93.0268,97.8623,93.5333,97.9064,94.288,98.5499,94.7199,98.4142,95.3666,98.797,95.9822,99.1045,96.1207,99.1619,96.1987,99.6824,96.4922,100.2921,96.7042,100.868,97.0157,101.4852,97.2026,102.0508,97.2856,102.0508,97.4059,109.5443,97.4356,117.0378,97.4384,124.5313,97.291,132.0247,97.2026,139.5182,97.3513,139.5798,97.1837,140.2008,96.483,140.6009,96.688,141.3762,96.1311,141.8359,95.9822,142.4645,96.0531,142.6357,95.3271,142.5498,94.7946,142.9307,94.3129,143.4346,93.6187,143.4252,93.0359,143.6849,93.0359,143.7946,83.2293,144.0376,73.4227,144.1185,63.6162,143.6808,53.8096,143.9841,44.003,143.0886,34.1965,143.9811,24.3899,144.2559,14.5833,143.6849,14.6424,143.8275,14.0755,143.6375,13.3406,143.0418,12.7289,142.7434,12.1437,142.5092,11.6371,142.4645,11.6182,142.4567,11.3299,141.8491,11.3675,141.3765,10.8488,140.6735,10.5507,140.0619,10.4167,139.5182,10.4959,139.5182,10.1851,132.0247,10.2364,124.5313,10.642,117.0378,10.5679,109.5443,10.4167,102.0508,10.6523,102.1484,10.5575,101.4188,11.0072,100.9147,11.3383,100.3615,11.2414,99.631,11.6371,99.1045,11.6243,99.0738,12.2431,98.9008,12.9022,98.8254,13.4043,98.3709,14.0555,98.2766,14.5833,97.8841" style="stroke:#FFFFFF;stroke-width:1.0417;"/><text fill="#FFFFFF" font-family="Segoe Print" font-size="12.5" lengthAdjust="spacing" textLength="51.5625" x="26.0417" y="125.1119">America</text><path d="M53.8096,167.627 L53.8096,167.7243 L55.8929,167.4351 L57.9763,167.7164 L60.0596,167.812 L62.1429,167.2967 L64.2263,167.627 " fill="none" style="stroke:#333333;stroke-width:3.125;"/><text fill="#FFFFFF" font-family="Segoe Print" font-size="12.5" lengthAdjust="spacing" textLength="47.5647" x="69.4346" y="171.9543">Canada</text><path d="M53.8096,205.0944 L53.8096,205.1917 L55.8929,204.9026 L57.9763,205.1839 L60.0596,205.2794 L62.1429,204.7641 L64.2263,205.0944 " fill="none" style="stroke:#333333;stroke-width:3.125;"/><text fill="#FFFFFF" font-family="Segoe Print" font-size="12.5" lengthAdjust="spacing" textLength="43.866" x="69.4346" y="209.4218">Mexico</text><path d="M53.8096,242.5618 L53.8096,242.6592 L55.8929,242.37 L57.9763,242.6513 L60.0596,242.7469 L62.1429,242.2316 L64.2263,242.5618 " fill="none" style="stroke:#333333;stroke-width:3.125;"/><text fill="#FFFFFF" font-family="Segoe Print" font-size="12.5" lengthAdjust="spacing" textLength="25.6348" x="69.4346" y="246.8892">USA</text><path d="M53.8096,143.6849 L54.1015,143.6849 L53.2342,154.6712 L54.0781,165.6576 L54.3647,176.6439 L52.8188,187.6302 L53.7017,198.6165 L53.2173,209.6029 L53.277,220.5892 L53.7149,231.5755 L53.8096,242.5618 " fill="none" style="stroke:#333333;stroke-width:3.125;"/><path d="M187.8805,77.0508 L187.9778,77.0508 L187.6886,81.2174 L187.9699,85.3841 L188.0655,89.5508 L187.5502,93.7174 L187.8805,97.8841 " fill="none" style="stroke:#333333;stroke-width:3.125;"/><polygon fill="none" points="154.306,97.8841,154.306,98.1031,165.4975,97.4525,176.689,98.0855,187.8805,98.3004,199.0719,97.141,210.2634,97.8032,221.4549,97.8841,221.3982,97.7473,221.9932,98.0052,222.6243,98.3504,223.1308,98.3946,223.8855,99.038,224.4012,99.1045,224.199,99.0208,224.5818,99.6675,225.0279,100.3404,225.1059,100.8609,225.3994,101.4706,225.6215,102.0508,225.6104,102.0508,225.6835,109.5443,225.7046,117.0378,225.8249,124.5313,225.8545,132.0247,225.6215,139.5182,225.8394,139.6085,225.4591,140.1413,225.2821,140.7583,225.1146,141.3793,224.4139,141.7794,224.4012,142.4645,224.4913,142.6822,223.7725,142.6135,223.2936,143.1239,222.5676,143.0379,222.035,143.4188,221.4549,143.6849,221.4549,144.4574,210.2634,143.6341,199.0719,143.7946,187.8805,144.0376,176.689,144.1185,165.4975,143.6808,154.306,143.6849,154.3442,143.777,153.6407,143.2572,153.1653,143.288,152.6111,143.1285,152.0081,142.8512,151.3598,142.4645,151.5564,142.546,150.9607,141.8111,150.6624,141.1993,150.4282,140.6142,150.3646,140.0997,150.1394,139.5182,150.0711,139.5182,150.376,132.0247,150.0787,124.5313,150.0202,117.0378,150.2186,109.5443,150.1394,102.0508,149.9254,101.9622,150.2169,101.3925,150.8357,100.9585,151.0114,100.3409,151.3513,99.7914,151.3598,99.1045,151.317,99.0013,151.9914,98.9628,152.6167,98.8057,153.0647,98.2207,153.704,98.0974,154.306,97.8841" style="stroke:#FFFFFF;stroke-width:1.0417;"/><text fill="#FFFFFF" font-family="Segoe Print" font-size="12.5" lengthAdjust="spacing" textLength="44.2322" x="165.7644" y="125.1119">Europe</text><path d="M187.8805,167.627 L187.8805,167.7243 L189.9638,167.4351 L192.0471,167.7164 L194.1305,167.812 L196.2138,167.2967 L198.2971,167.627 " fill="none" style="stroke:#333333;stroke-width:3.125;"/><text fill="#FFFFFF" font-family="Segoe Print" font-size="12.5" lengthAdjust="spacing" textLength="50.7446" x="203.5055" y="171.9543">England</text><path d="M187.8805,205.0944 L187.8805,205.1917 L189.9638,204.9026 L192.0471,205.1839 L194.1305,205.2794 L196.2138,204.7641 L198.2971,205.0944 " fill="none" style="stroke:#333333;stroke-width:3.125;"/><text fill="#FFFFFF" font-family="Segoe Print" font-size="12.5" lengthAdjust="spacing" textLength="57.6721" x="203.5055" y="209.4218">Germany</text><path d="M187.8805,242.5618 L187.8805,242.6592 L189.9638,242.37 L192.0471,242.6513 L194.1305,242.7469 L196.2138,242.2316 L198.2971,242.5618 " fill="none" style="stroke:#333333;stroke-width:3.125;"/><text fill="#FFFFFF" font-family="Segoe Print" font-size="12.5" lengthAdjust="spacing" textLength="34.9243" x="203.5055" y="246.8892">Spain</text><path d="M187.8805,143.6849 L188.1724,143.6849 L187.305,154.6712 L188.1489,165.6576 L188.4356,176.6439 L186.8896,187.6302 L187.7725,198.6165 L187.2881,209.6029 L187.3478,220.5892 L187.7858,231.5755 L187.8805,242.5618 " fill="none" style="stroke:#333333;stroke-width:3.125;"/><path d="M53.8096,77.0508 L53.8096,77.3427 L64.1228,76.4753 L74.4359,77.3192 L84.749,77.6059 L95.0622,76.06 L105.3753,76.9428 L115.6885,76.4584 L126.0016,76.5181 L136.3147,76.9561 L146.6279,76.0905 L156.941,77.8197 L167.2542,76.1754 L177.5673,76.7761 L187.8805,77.0508 " fill="none" style="stroke:#333333;stroke-width:3.125;"/><polygon fill="none" points="91.1097,10.4167,91.1097,10.6356,101.0215,9.9851,110.9333,10.618,120.845,10.833,130.7568,9.6735,140.6686,10.3357,150.5803,10.4167,150.5237,10.2799,151.1186,10.5377,151.7498,10.883,152.2562,10.9271,153.0109,11.5706,153.5266,11.6371,153.3244,11.5533,153.7073,12.2,154.1533,12.873,154.2313,13.3934,154.5248,14.0031,154.747,14.5833,154.7359,14.5833,154.809,22.0768,154.83,29.5703,154.9504,37.0638,154.98,44.5573,154.747,52.0508,154.9649,52.141,154.5846,52.6739,154.4076,53.2909,154.24,53.9119,153.5393,54.312,153.5266,54.9971,153.6168,55.2147,152.898,55.146,152.419,55.6565,151.6931,55.5705,151.1605,55.9514,150.5803,56.2174,150.5803,56.99,140.6686,56.1667,130.7568,56.3271,120.845,56.5702,110.9333,56.651,101.0215,56.2134,91.1097,56.2174,91.1479,56.3096,90.4444,55.7897,89.969,55.8205,89.4148,55.6611,88.8118,55.3837,88.1634,54.9971,88.3601,55.0785,87.7644,54.3436,87.4661,53.7319,87.2319,53.1467,87.1682,52.6322,86.9431,52.0508,86.8748,52.0508,87.1797,44.5573,86.8824,37.0638,86.8239,29.5703,87.0223,22.0768,86.9431,14.5833,86.7291,14.4947,87.0206,13.9251,87.6394,13.4911,87.815,12.8735,88.155,12.3239,88.1634,11.6371,88.1207,11.5338,88.7951,11.4954,89.4204,11.3383,89.8684,10.7533,90.5077,10.63,91.1097,10.4167" style="stroke:#FFFFFF;stroke-width:1.0417;"/><text fill="#FFFFFF" font-family="Segoe Print" font-size="12.5" lengthAdjust="spacing" textLength="36.554" x="102.5681" y="37.6444">World</text><path d="M120.845,56.2174 L120.9423,56.2174 L120.6532,60.3841 L120.9345,64.5508 L121.0301,68.7174 L120.5148,72.8841 L120.845,77.0508 " fill="none" style="stroke:#333333;stroke-width:3.125;"/></g></svg>