<svg xmlns="http://www.w3.org/2000/svg" xmlns:xlink="http://www.w3.org/1999/xlink" contentStyleType="text/css" height="182px" preserveAspectRatio="none" style="width:230px;height:182px;background:#FFFFFF;" version="1.1" viewBox="0 0 230 182" width="230px" zoomAndPan="magnify"><defs/><g><line style="stroke:#000000;stroke-width:1;" x1="41.6572" x2="41.6572" y1="58.9688" y2="78.9688"/><rect fill="#FFFFFF" height="33.9688" style="stroke:#000000;stroke-width:1;" width="73.3145" x="5" y="78.9688"/><text fill="#000000" font-family="Hack" font-size="12" lengthAdjust="spacing" textLength="49.5" x="15" y="100.1074">America</text><line style="stroke:#000000;stroke-width:1;" x1="41.6572" x2="51.6572" y1="125.9219" y2="125.9219"/><text fill="#000000" font-family="Hack" font-size="12" lengthAdjust="spacing" textLength="45.6621" x="51.6572" y="130.0762">Canada</text><line style="stroke:#000000;stroke-width:1;" x1="41.6572" x2="51.6572" y1="146.8906" y2="146.8906"/><text fill="#000000" font-family="Hack" font-size="12" lengthAdjust="spacing" textLength="42.1113" x="51.6572" y="151.0449">Mexico</text><line style="stroke:#000000;stroke-width:1;" x1="41.6572" x2="51.6572" y1="167.8594" y2="167.8594"/><text fill="#000000" font-family="Hack" font-size="12" lengthAdjust="spacing" textLength="24.6094" x="51.6572" y="172.0137">USA</text><line style="stroke:#000000;stroke-width:1;" x1="41.6572" x2="41.6572" y1="112.9375" y2="167.8594"/><line style="stroke:#000000;stroke-width:1;" x1="155.3652" x2="155.3652" y1="58.9688" y2="78.9688"/><rect fill="#FFFFFF" height="33.9688" style="stroke:#000000;stroke-width:1;" width="62.4629" x="124.1338" y="78.9688"/><text fill="#000000" font-family="Hack" font-size="12" lengthAdjust="spacing" textLength="42.4629" x="134.1338" y="100.1074">Europe</text><line style="stroke:#000000;stroke-width:1;" x1="155.3652" x2="165.3652" y1="125.9219" y2="125.9219"/><text fill="#000000" font-family="Hack" font-size="12" lengthAdjust="spacing" textLength="48.7148" x="165.3652" y="130.0762">England</text><line style="stroke:#000000;stroke-width:1;" x1="155.3652" x2="165.3652" y1="146.8906" y2="146.8906"/><text fill="#000000" font-family="Hack" font-size="12" lengthAdjust="spacing" textLength="55.3652" x="165.3652" y="151.0449">Germany</text><line style="stroke:#000000;stroke-width:1;" x1="155.3652" x2="165.3652" y1="167.8594" y2="167.8594"/><text fill="#000000" font-family="Hack" font-size="12" lengthAdjust="spacing" textLength="33.5273" x="165.3652" y="172.0137">Spain</text><line style="stroke:#000000;stroke-width:1;" x1="155.3652" x2="155.3652" y1="112.9375" y2="167.8594"/><line style="stroke:#000000;stroke-width:1;" x1="41.6572" x2="155.3652" y1="58.9688" y2="58.9688"/><rect fill="#FFFFFF" height="33.9688" style="stroke:#000000;stroke-width:1;" width="55.0918" x="70.9653" y="5"/><text fill="#000000" font-family="Hack" font-size="12" lengthAdjust="spacing" textLength="35.0918" x="80.9653" y="26.1387">World</text><line style="stroke:#000000;stroke-width:1;" x1="98.5112" x2="98.5112" y1="38.9688" y2="58.9688"/></g></svg>