<svg xmlns="http://www.w3.org/2000/svg" xmlns:xlink="http://www.w3.org/1999/xlink" contentStyleType="text/css" data-diagram-type="WBS" height="231.25px" preserveAspectRatio="none" style="width:245px;height:231px;background:#FDF6E3;" version="1.1" viewBox="0 0 245 231" width="245.8333px" zoomAndPan="magnify"><defs/><g><rect fill="#FDF6E3" height="231.25" style="stroke:#FFFFFF00;stroke-width:1.0417;" width="245.8333" x="0" y="0"/><line style="stroke:#657B83;stroke-width:2.0833;" x1="47.1853" x2="47.1853" y1="66.6341" y2="87.4674"/><rect fill="#C9FFC9" height="35.3841" rx="7.8125" ry="7.8125" style="stroke:#859900;stroke-width:2.0833;" width="73.5372" x="10.4167" y="87.4674"/><text fill="#000000" font-family="Dejavu Serif" font-size="12.5" lengthAdjust="spacing" textLength="52.7039" x="20.8333" y="109.4869">America</text><line style="stroke:#657B83;stroke-width:2.0833;" x1="47.1853" x2="57.6019" y1="146.7936" y2="146.7936"/><text fill="#000000" font-family="Dejavu Serif" font-size="12.5" lengthAdjust="spacing" textLength="47.9736" x="57.6019" y="151.121">Canada</text><line style="stroke:#657B83;stroke-width:2.0833;" x1="47.1853" x2="57.6019" y1="179.0527" y2="179.0527"/><text fill="#000000" font-family="Dejavu Serif" font-size="12.5" lengthAdjust="spacing" textLength="45.7703" x="57.6019" y="183.3801">Mexico</text><line style="stroke:#657B83;stroke-width:2.0833;" x1="47.1853" x2="57.6019" y1="211.3118" y2="211.3118"/><text fill="#000000" font-family="Dejavu Serif" font-size="12.5" lengthAdjust="spacing" textLength="28.125" x="57.6019" y="215.6392">USA</text><line style="stroke:#657B83;stroke-width:2.0833;" x1="47.1853" x2="47.1853" y1="122.8516" y2="211.3118"/><line style="stroke:#657B83;stroke-width:2.0833;" x1="162.9883" x2="162.9883" y1="66.6341" y2="87.4674"/><rect fill="#C9FFC9" height="35.3841" rx="7.8125" ry="7.8125" style="stroke:#859900;stroke-width:2.0833;" width="66.9088" x="129.5339" y="87.4674"/><text fill="#000000" font-family="Dejavu Serif" font-size="12.5" lengthAdjust="spacing" textLength="46.0754" x="139.9506" y="109.4869">Europe</text><line style="stroke:#657B83;stroke-width:2.0833;" x1="162.9883" x2="173.4049" y1="146.7936" y2="146.7936"/><text fill="#000000" font-family="Dejavu Serif" font-size="12.5" lengthAdjust="spacing" textLength="52.6794" x="173.4049" y="151.121">England</text><line style="stroke:#657B83;stroke-width:2.0833;" x1="162.9883" x2="173.4049" y1="179.0527" y2="179.0527"/><text fill="#000000" font-family="Dejavu Serif" font-size="12.5" lengthAdjust="spacing" textLength="57.7759" x="173.4049" y="183.3801">Germany</text><line style="stroke:#657B83;stroke-width:2.0833;" x1="162.9883" x2="173.4049" y1="211.3118" y2="211.3118"/><text fill="#000000" font-family="Dejavu Serif" font-size="12.5" lengthAdjust="spacing" textLength="36.0657" x="173.4049" y="215.6392">Spain</text><line style="stroke:#657B83;stroke-width:2.0833;" x1="162.9883" x2="162.9883" y1="122.8516" y2="211.3118"/><line style="stroke:#657B83;stroke-width:2.0833;" x1="47.1853" x2="162.9883" y1="66.6341" y2="66.6341"/><rect fill="#C9FFC9" height="35.3841" rx="7.8125" ry="7.8125" style="stroke:#859900;stroke-width:2.0833;" width="59.1817" x="75.4959" y="10.4167"/><text fill="#000000" font-family="Dejavu Serif" font-size="12.5" lengthAdjust="spacing" textLength="38.3484" x="85.9126" y="32.4361">World</text><line style="stroke:#657B83;stroke-width:2.0833;" x1="105.0868" x2="105.0868" y1="45.8008" y2="66.6341"/></g></svg>