<svg xmlns="http://www.w3.org/2000/svg" xmlns:xlink="http://www.w3.org/1999/xlink" contentStyleType="text/css" height="231px" preserveAspectRatio="none" style="width:291px;height:231px;background:#282828;" version="1.1" viewBox="0 0 291 231" width="291px" zoomAndPan="magnify"><defs/><g><rect fill="#282828" height="231" style="stroke:none;stroke-width:1;" width="291" x="0" y="0"/><rect fill="none" height="200" style="stroke:#000000;stroke-width:1;" width="100" x="15" y="25"/><text fill="#000000" font-family="sans-serif" font-size="12" lengthAdjust="spacing" textLength="37.3477" x="20" y="36.1387">BOX 1</text><rect fill="none" height="175" style="stroke:#000000;stroke-width:1;" width="50" x="235" y="25"/><text fill="#000000" font-family="sans-serif" font-size="12" lengthAdjust="spacing" textLength="37.3477" x="240" y="36.1387">BOX 2</text><text fill="#000000" font-family="sans-serif" font-size="12" lengthAdjust="spacing" textLength="3.8145" x="10" y="16.1387">&#160;</text><path d="M233,30 L228,25 L228,35 L233,30 " fill="#000000" style="stroke:#000000;stroke-width:1;"/><line style="stroke:#000000;stroke-width:1;" x1="116" x2="234" y1="30" y2="30"/><rect fill="#FFFFFF" height="11.6406" style="stroke:#FFFFFF;stroke-width:1;" width="24.3213" x="119" y="24.1797"/><text fill="#000000" font-family="sans-serif" font-size="10" lengthAdjust="spacing" textLength="24.3213" x="119" y="33.4619">abcd</text><path d="M233,45 L228,40 L228,50 L233,45 " fill="#000000" style="stroke:#000000;stroke-width:1;"/><path d="M116,45 L121,40 L121,50 L116,45 " fill="#000000" style="stroke:#000000;stroke-width:1;"/><line style="stroke:#000000;stroke-width:1;" x1="116" x2="234" y1="45" y2="45"/><rect fill="#FFFFFF" height="11.6406" style="stroke:#FFFFFF;stroke-width:1;" width="24.3213" x="162.8394" y="39.1797"/><text fill="#000000" font-family="sans-serif" font-size="10" lengthAdjust="spacing" textLength="24.3213" x="162.8394" y="48.4619">abcd</text><path d="M116,60 L121,55 L121,65 L116,60 " fill="#000000" style="stroke:#000000;stroke-width:1;"/><line style="stroke:#000000;stroke-width:1;" x1="116" x2="234" y1="60" y2="60"/><rect fill="#FFFFFF" height="11.6406" style="stroke:#FFFFFF;stroke-width:1;" width="24.3213" x="206.6787" y="54.1797"/><text fill="#000000" font-family="sans-serif" font-size="10" lengthAdjust="spacing" textLength="24.3213" x="206.6787" y="63.4619">abcd</text><line style="stroke:#000000;stroke-width:1;" x1="116" x2="234" y1="75" y2="75"/><rect fill="#FFFFFF" height="11.6406" style="stroke:#FFFFFF;stroke-width:1;" width="24.3213" x="162.8394" y="69.1797"/><text fill="#000000" font-family="sans-serif" font-size="10" lengthAdjust="spacing" textLength="24.3213" x="162.8394" y="78.4619">abcd</text><path d="M116,90 L219,90 L219,85 L234,95 L219,105 L219,100 L116,100 L116,90 " fill="#FFFFFF" style="stroke:#000000;stroke-width:1;"/><text fill="#000000" font-family="sans-serif" font-size="10" lengthAdjust="spacing" textLength="24.3213" x="119" y="98.4619">abcd</text><path d="M116,120 L131,110 L131,115 L219,115 L219,110 L234,120 L219,130 L219,125 L131,125 L131,130 L116,120 " fill="#FFFFFF" style="stroke:#FF0000;stroke-width:1;"/><text fill="#FF0000" font-family="sans-serif" font-size="10" lengthAdjust="spacing" textLength="24.3213" x="162.8394" y="123.4619">abcd</text><path d="M116,145 L131,135 L131,140 L234,140 L234,150 L131,150 L131,155 L116,145 " fill="#FFFFFF" style="stroke:#000000;stroke-width:1;"/><text fill="#000000" font-family="sans-serif" font-size="10" lengthAdjust="spacing" textLength="24.3213" x="206.6787" y="148.4619">abcd</text><path d="M116,165 L234,165 L234,175 L116,175 L116,165 " fill="#FFFFFF" style="stroke:#000000;stroke-width:1;"/><text fill="#000000" font-family="sans-serif" font-size="10" lengthAdjust="spacing" textLength="24.3213" x="162.8394" y="173.4619">abcd</text></g></svg>