<svg xmlns="http://www.w3.org/2000/svg" xmlns:xlink="http://www.w3.org/1999/xlink" contentStyleType="text/css" data-diagram-type="WIRE" height="288.5417px" preserveAspectRatio="none" style="width:403px;height:288px;" version="1.1" viewBox="0 0 403 288" width="403.125px" zoomAndPan="magnify"><defs/><g><rect fill="#FFFFCC" height="27.7507" rx="2.6042" ry="2.6042" style="stroke:#FFDD88;stroke-width:3.125;" width="391.9067" x="5.2083" y="5.2083"/><text fill="#000000" font-family="monospace" font-size="10.4167" lengthAdjust="spacing" textLength="370.0104" x="10.4167" y="20.8333">Please&#160;use&#160;'!option&#160;handwritten&#160;true'&#160;to&#160;enable&#160;handwritten</text><polygon fill="#FFFFFF" fill-opacity="0.00000" points="20.8333,69.4173,20.8333,69.6363,31.25,68.9857,41.6667,69.6187,52.0833,69.8337,62.5,68.6742,72.9167,69.3364,83.3333,68.9731,93.75,69.0178,104.1667,69.3463,114.5833,68.6971,125,69.4173,125.5767,69.4173,124.3435,79.834,124.794,90.2507,125.4499,100.6673,124.9106,111.084,125.0711,121.5007,124.9667,131.9173,125.186,142.334,125.2491,152.7507,125.6101,163.1673,125.699,173.584,125.7076,184.0007,125.2652,194.4173,125.4829,204.834,125.7315,215.2507,124.2488,225.6673,125.7068,236.084,124.6911,246.5007,125.5561,256.9173,124.4844,267.334,125,277.7507,125,277.6793,114.5833,278.5232,104.1667,277.6999,93.75,277.8603,83.3333,278.1034,72.9167,278.1842,62.5,277.7466,52.0833,278.0498,41.6667,277.1544,31.25,278.0469,20.8333,277.7507,21.4044,277.7507,21.2964,267.334,21.4719,256.9173,20.3301,246.5007,20.154,236.084,20.186,225.6673,20.772,215.2507,20.6286,204.834,21.5431,194.4173,20.6514,184.0007,20.476,173.584,21.0711,163.1673,20.1387,152.7507,20.2926,142.334,21.5093,131.9173,21.2872,121.5007,21.5984,111.084,20.4981,100.6673,21.1658,90.2507,21.4484,79.834,20.8333,69.4173" style="stroke:#000000;stroke-width:1.0417;"/><text fill="#000000" font-family="sans-serif" font-size="12.5" lengthAdjust="spacing" textLength="38.9038" x="26.0417" y="81.0201">BOX 1</text><polygon fill="#FFFFFF" fill-opacity="0.00000" points="250,69.4173,250,69.6363,260.4167,68.9857,270.8333,69.6187,281.25,69.8337,291.6667,68.6742,302.0833,69.4173,302.0024,69.4173,301.6391,79.5446,301.6839,89.6719,302.0123,99.7993,301.3632,109.9266,302.66,120.0539,301.4268,130.1812,301.8773,140.3085,302.5333,150.4358,301.994,160.5632,302.1544,170.6905,302.0501,180.8178,302.2693,190.9451,302.3324,201.0724,302.6934,211.1997,302.7823,221.327,302.7909,231.4544,302.3486,241.5817,302.0833,251.709,302.0833,252.1919,291.6667,252.4405,281.25,250.9577,270.8333,252.4158,260.4167,251.4001,250,251.709,250.5561,251.709,249.4844,241.5817,249.9286,231.4544,250.7725,221.327,249.9492,211.1997,250.1097,201.0724,250.3527,190.9451,250.4336,180.8178,249.9959,170.6905,250.2992,160.5632,249.4037,150.4358,250.2962,140.3085,250.571,130.1812,250.4631,120.0539,250.6386,109.9266,249.4968,99.7993,249.3206,89.6719,249.3527,79.5446,250,69.4173" style="stroke:#000000;stroke-width:1.0417;"/><text fill="#000000" font-family="sans-serif" font-size="12.5" lengthAdjust="spacing" textLength="38.9038" x="255.2083" y="81.0201">BOX 2</text><text fill="#000000" font-family="sans-serif" font-size="12.5" lengthAdjust="spacing" textLength="3.9734" x="15.625" y="60.1868">&#160;</text><path d="M247.9167,74.6257 L248.0543,74.7633 L246.6037,73.3127 L245.9599,72.6689 L245.0533,71.7623 L243.2829,69.9919 L242.7083,69.4173 L242.6364,69.4173 L242.3134,71.5007 L242.3532,73.584 L242.6452,75.6673 L242.0682,77.7507 L242.7083,79.834 L243.0708,80.1965 L243.3373,78.3797 L244.6622,77.6212 L246.1161,76.9918 L246.8188,75.6112 L247.9167,74.6257 " fill="#000000" style="stroke:#000000;stroke-width:1.0417;"/><path d="M126.0417,74.6257 L126.0417,74.9176 L136.2847,74.0502 L146.5278,74.8941 L156.7708,75.1808 L167.0139,73.6348 L177.2569,74.5177 L187.5,74.0333 L197.7431,74.093 L207.9861,74.531 L218.2292,73.6654 L228.4722,75.3946 L238.7153,73.7503 L248.9583,74.6257 " fill="#000000" style="stroke:#000000;stroke-width:1.0417;"/><polygon fill="#FFFFFF" points="129.1667,63.3545,129.1667,63.4275,136.3169,63.2106,143.4672,63.4216,150.6175,63.4933,157.7677,63.1068,164.918,63.3545,164.891,63.3545,164.7699,67.863,164.7849,72.3714,164.8943,76.8799,164.678,81.3883,164.918,85.8968,164.918,86.089,157.7677,85.678,150.6175,85.8281,143.4672,86.0468,136.3169,85.867,129.1667,85.8968,129.1904,85.8968,129.1556,81.3883,129.2287,76.8799,129.2497,72.3714,129.37,67.863,129.1667,63.3545" style="stroke:#FFFFFF;stroke-width:1.0417;"/><text fill="#000000" font-family="sans-serif" font-size="10.4167" lengthAdjust="spacing" textLength="25.3347" x="134.375" y="78.2318">abcd</text><path d="M247.9167,90.2507 L248.0543,90.3883 L246.6037,88.9377 L245.9599,88.2939 L245.0533,87.3873 L243.2829,85.6169 L242.7083,85.0423 L242.6364,85.0423 L242.3134,87.1257 L242.3532,89.209 L242.6452,91.2923 L242.0682,93.3757 L242.7083,95.459 L243.0708,95.8215 L243.3373,94.0047 L244.6622,93.2462 L246.1161,92.6168 L246.8188,91.2362 L247.9167,90.2507 " fill="#000000" style="stroke:#000000;stroke-width:1.0417;"/><path d="M126.0417,90.2507 L126.1793,90.3883 L126.8121,88.9377 L128.2516,88.2939 L129.4283,87.3873 L129.7413,85.6169 L131.25,85.0423 L131.178,85.0423 L130.8551,87.1257 L130.8949,89.209 L131.1869,91.2923 L130.6098,93.3757 L131.25,95.459 L131.6125,95.8215 L129.7957,94.0047 L129.0372,93.2462 L128.4078,92.6168 L127.0272,91.2362 L126.0417,90.2507 " fill="#000000" style="stroke:#000000;stroke-width:1.0417;"/><path d="M126.0417,90.2507 L126.0417,90.5426 L136.2847,89.6752 L146.5278,90.5191 L156.7708,90.8058 L167.0139,89.2598 L177.2569,90.1427 L187.5,89.6583 L197.7431,89.718 L207.9861,90.156 L218.2292,89.2904 L228.4722,91.0196 L238.7153,89.3753 L248.9583,90.2507 " fill="#000000" style="stroke:#000000;stroke-width:1.0417;"/><polygon fill="#FFFFFF" points="169.6243,78.9795,169.6243,79.0525,176.7746,78.8356,183.9249,79.0466,191.0751,79.1183,198.2254,78.7318,205.3757,78.9795,205.3487,78.9795,205.2276,83.488,205.2425,87.9964,205.352,92.5049,205.1356,97.0133,205.3757,101.5218,205.3757,101.714,198.2254,101.303,191.0751,101.4531,183.9249,101.6718,176.7746,101.492,169.6243,101.5218,169.648,101.5218,169.6132,97.0133,169.6863,92.5049,169.7074,87.9964,169.8277,83.488,169.6243,78.9795" style="stroke:#FFFFFF;stroke-width:1.0417;"/><text fill="#000000" font-family="sans-serif" font-size="10.4167" lengthAdjust="spacing" textLength="25.3347" x="174.8327" y="93.8568">abcd</text><path d="M126.0417,105.8757 L126.1793,106.0133 L126.8121,104.5627 L128.2516,103.9189 L129.4283,103.0123 L129.7413,101.2419 L131.25,100.6673 L131.178,100.6673 L130.8551,102.7507 L130.8949,104.834 L131.1869,106.9173 L130.6098,109.0007 L131.25,111.084 L131.6125,111.4465 L129.7957,109.6297 L129.0372,108.8712 L128.4078,108.2418 L127.0272,106.8612 L126.0417,105.8757 " fill="#000000" style="stroke:#000000;stroke-width:1.0417;"/><path d="M126.0417,105.8757 L126.0417,106.1676 L136.2847,105.3002 L146.5278,106.1441 L156.7708,106.4308 L167.0139,104.8848 L177.2569,105.7677 L187.5,105.2833 L197.7431,105.343 L207.9861,105.781 L218.2292,104.9154 L228.4722,106.6446 L238.7153,105.0003 L248.9583,105.8757 " fill="#000000" style="stroke:#000000;stroke-width:1.0417;"/><polygon fill="#FFFFFF" points="210.082,94.6045,210.082,94.6775,217.2323,94.4606,224.3825,94.6716,231.5328,94.7433,238.6831,94.3568,245.8333,94.6045,245.8063,94.6045,245.6852,99.113,245.7002,103.6214,245.8097,108.1299,245.5933,112.6383,245.8333,117.1468,245.8333,117.339,238.6831,116.928,231.5328,117.0781,224.3825,117.2968,217.2323,117.117,210.082,117.1468,210.1057,117.1468,210.0709,112.6383,210.144,108.1299,210.165,103.6214,210.2854,99.113,210.082,94.6045" style="stroke:#FFFFFF;stroke-width:1.0417;"/><text fill="#000000" font-family="sans-serif" font-size="10.4167" lengthAdjust="spacing" textLength="25.3347" x="215.2903" y="109.4818">abcd</text><path d="M126.0417,121.5007 L126.0417,121.7926 L136.2847,120.9252 L146.5278,121.7691 L156.7708,122.0558 L167.0139,120.5098 L177.2569,121.3927 L187.5,120.9083 L197.7431,120.968 L207.9861,121.406 L218.2292,120.5404 L228.4722,122.2696 L238.7153,120.6253 L248.9583,121.5007 " fill="#000000" style="stroke:#000000;stroke-width:1.0417;"/><polygon fill="#FFFFFF" points="169.6243,110.2295,169.6243,110.3025,176.7746,110.0856,183.9249,110.2966,191.0751,110.3683,198.2254,109.9818,205.3757,110.2295,205.3487,110.2295,205.2276,114.738,205.2425,119.2464,205.352,123.7549,205.1356,128.2633,205.3757,132.7718,205.3757,132.964,198.2254,132.553,191.0751,132.7031,183.9249,132.9218,176.7746,132.742,169.6243,132.7718,169.648,132.7718,169.6132,128.2633,169.6863,123.7549,169.7074,119.2464,169.8277,114.738,169.6243,110.2295" style="stroke:#FFFFFF;stroke-width:1.0417;"/><text fill="#000000" font-family="sans-serif" font-size="10.4167" lengthAdjust="spacing" textLength="25.3347" x="174.8327" y="125.1068">abcd</text><path d="M126.0417,137.1257 L126.0417,137.7095 L136.7708,135.9748 L147.5,137.6626 L158.2292,138.2359 L168.9583,135.144 L179.6875,136.9098 L190.4167,135.9409 L201.1458,136.0604 L211.875,136.9363 L222.6042,135.2052 L233.3333,137.1257 L233.846,137.1257 L232.7497,136.084 L233.1502,135.0423 L233.7333,134.0007 L233.2539,132.959 L233.3333,131.9173 L233.3684,131.9699 L236.4419,133.976 L239.675,136.2215 L242.8312,138.3516 L246.1342,140.7019 L248.9583,142.334 L249.303,142.851 L246.1822,144.9406 L242.8391,146.6968 L239.8214,148.9411 L236.819,151.2083 L233.3333,152.7507 L232.6656,152.7507 L233.9616,151.709 L233.0588,150.6673 L233.8276,149.6257 L232.875,148.584 L233.3333,147.5423 L233.3333,147.352 L222.6042,149.6023 L211.875,147.4069 L201.1458,147.8348 L190.4167,148.483 L179.6875,148.6985 L168.9583,147.5315 L158.2292,148.3401 L147.5,145.9523 L136.7708,148.3323 L126.0417,147.5423 L126.5493,147.5423 L126.4533,145.459 L126.6093,143.3757 L125.5944,141.2923 L125.4378,139.209 L126.0417,137.1257 " fill="#FFFFFF" style="stroke:#000000;stroke-width:1.0417;"/><text fill="#000000" font-family="sans-serif" font-size="10.4167" lengthAdjust="spacing" textLength="25.3347" x="134.375" y="145.9401">abcd</text><path d="M126.0417,168.3757 L126.1496,168.5376 L128.9539,165.9731 L132.3909,164.3579 L135.6219,162.4336 L138.1753,159.4927 L141.6667,157.959 L141.5947,157.959 L141.2718,159.0007 L141.3116,160.0423 L141.6036,161.084 L141.0265,162.1257 L141.6667,163.1673 L141.6667,164.7052 L151.8519,161.4165 L162.037,162.618 L172.2222,164.3672 L182.4074,162.929 L192.5926,163.3569 L202.7778,163.0786 L212.963,163.6632 L223.1481,163.8316 L233.3333,163.1673 L233.8756,163.1673 L233.9547,162.1257 L233.9623,161.084 L233.5691,160.0423 L233.7626,159.0007 L233.3333,157.959 L233.694,158.5 L236.0879,159.4867 L239.9318,162.6484 L242.556,163.9806 L246.1075,166.7036 L248.9583,168.3757 L248.7041,167.9943 L245.7982,170.4062 L243.0892,173.1137 L239.5583,174.5881 L236.5124,176.7901 L233.3333,178.7923 L233.6469,178.7923 L233.7187,177.7507 L233.3297,176.709 L233.5993,175.6673 L232.8033,174.6257 L233.3333,173.584 L233.3333,174.3739 L223.1481,175.1067 L212.963,174.8188 L202.7778,175.2868 L192.5926,172.2421 L182.4074,171.7724 L172.2222,171.8579 L162.037,173.4204 L151.8519,173.0381 L141.6667,173.584 L142.2976,173.584 L141.5049,174.6257 L141.349,175.6673 L141.878,176.709 L141.0492,177.7507 L141.6667,178.7923 L141.4,178.3924 L138.875,177.2089 L135.6404,174.9613 L132.6689,173.1082 L129.0014,170.2111 L126.0417,168.3757 " fill="#FFFFFF" style="stroke:#FF0000;stroke-width:1.0417;"/><text fill="#FF0000" font-family="sans-serif" font-size="10.4167" lengthAdjust="spacing" textLength="25.3347" x="174.8327" y="171.9818">abcd</text><path d="M126.0417,194.4173 L126.1496,194.5792 L128.9539,192.0148 L132.3909,190.3996 L135.6219,188.4752 L138.1753,185.5344 L141.6667,184.0007 L141.5947,184.0007 L141.2718,185.0423 L141.3116,186.084 L141.6036,187.1257 L141.0265,188.1673 L141.6667,189.209 L141.6667,190.7469 L152.3958,187.4582 L163.125,188.6596 L173.8542,190.4088 L184.5833,188.9707 L195.3125,189.3985 L206.0417,189.1202 L216.7708,189.7049 L227.5,189.8732 L238.2292,190.8359 L248.9583,189.209 L249.5797,189.209 L249.5873,191.2923 L249.1941,193.3757 L249.3876,195.459 L249.6085,197.5423 L248.9583,199.6257 L248.9583,197.6224 L238.2292,201.5104 L227.5,198.802 L216.7708,201.1085 L206.0417,198.2506 L195.3125,199.4354 L184.5833,201.6857 L173.8542,199.4903 L163.125,199.9182 L152.3958,200.5663 L141.6667,199.6257 L142.0521,199.6257 L141.663,200.6673 L141.9326,201.709 L141.1367,202.7507 L141.93,203.7923 L141.6667,204.834 L141.9482,205.2563 L138.77,203.0931 L135.7315,201.1396 L132.0436,198.2118 L128.8317,195.9982 L126.0417,194.4173 " fill="#FFFFFF" style="stroke:#000000;stroke-width:1.0417;"/><text fill="#000000" font-family="sans-serif" font-size="10.4167" lengthAdjust="spacing" textLength="25.3347" x="215.2903" y="198.0235">abcd</text><path d="M126.0417,215.2507 L126.0417,215.8345 L136.2847,214.0998 L146.5278,215.7876 L156.7708,216.3609 L167.0139,213.269 L177.2569,215.0348 L187.5,214.0659 L197.7431,214.1854 L207.9861,215.0613 L218.2292,213.3302 L228.4722,216.7885 L238.7153,213.4999 L248.9583,215.2507 L248.7752,215.2507 L249.3583,217.334 L248.8789,219.4173 L249.0215,221.5007 L248.9288,223.584 L248.9583,225.6673 L248.9583,226.1632 L238.7153,226.3316 L228.4722,227.2942 L218.2292,227.5314 L207.9861,227.5541 L197.7431,226.3746 L187.5,226.9551 L177.2569,227.618 L167.0139,223.664 L156.7708,227.5521 L146.5278,224.8437 L136.2847,227.1501 L126.0417,225.6673 L125.5833,225.6673 L125.9782,223.584 L126.7283,221.5007 L125.9965,219.4173 L126.1392,217.334 L126.0417,215.2507 " fill="#FFFFFF" style="stroke:#000000;stroke-width:1.0417;"/><text fill="#000000" font-family="sans-serif" font-size="10.4167" lengthAdjust="spacing" textLength="25.3347" x="174.8327" y="224.0651">abcd</text></g></svg>