<?xml version="1.0" encoding="UTF-8" standalone="no"?><svg xmlns="http://www.w3.org/2000/svg" xmlns:xlink="http://www.w3.org/1999/xlink" contentScriptType="application/ecmascript" contentStyleType="text/css" height="447.9167px" preserveAspectRatio="none" style="width:352px;height:447px;background:#00000000;" version="1.1" viewBox="0 0 352 447" width="352.0833px" zoomAndPan="magnify"><defs/><g><polygon fill="#17A2B8" points="126.3596,23.3671,124.8327,25.4534,123.0267,28.5092,120.4438,30.5686,117.7295,31.6947,115.5653,31.7924,112.7838,30.384,110.1592,29.4639,108.1672,27.5958,107.1222,25.4572,106.5025,23.7543,105.8954,21.53,104.91,19.616,105.6673,17.7472,106.3307,15.7,108.8204,14.0809,110.5719,11.9802,112.74,11.2826,115.3173,10.6819,118.6225,11.0388,120.4328,11.8925,122.5376,12.2795,125.0968,14.9015,125.9889,17.6695,126.3765,19.5581,125.9375,22.6703" style="stroke:none;stroke-width:1.0416666666666667;"/><polygon fill="#474747" points="103.3854,52.0833,103.3854,52.1563,108.3854,51.9395,113.3854,52.1504,118.3854,52.2221,123.3854,51.8356,128.3854,52.0833,128.3751,52.0584,130.1702,52.7093,132.0173,53.4858,133.9006,54.3497,135.6592,54.9125,137.5925,55.897,137.7701,55.9706,138.1531,57.6547,139.0546,59.5536,140.0193,61.4787,140.616,63.2513,141.4063,65.1042,141.4299,65.1042,141.3952,69.056,141.4682,73.0078,141.4893,76.9596,141.6096,80.9115,141.4063,84.8633,141.6215,84.9524,140.8614,86.795,139.9624,88.58,139.2667,90.4492,138.5805,92.3223,137.5925,94.0704,137.4967,93.8391,135.8413,95.0508,133.8703,95.5008,132.1392,96.5299,130.1611,96.9626,128.3854,97.8841,128.3854,97.8603,123.3854,98.1416,118.3854,97.8672,113.3854,97.9207,108.3854,98.0017,103.3854,97.8841,103.4407,98.0176,101.5435,97.1201,99.7407,96.4508,97.7851,95.4123,96.0575,94.9244,94.1783,94.0704,94.3542,94.1432,93.5582,92.288,92.8495,90.469,91.7351,88.4819,90.9181,86.618,90.3646,84.8633,90.1488,84.8633,90.3441,80.9115,90.2963,76.9596,90.6012,73.0078,90.3039,69.056,90.3646,65.1042,90.2545,65.0586,91.2006,63.2931,91.6762,61.3327,92.4863,59.5109,93.6237,57.8247,94.1783,55.897,94.2362,56.0368,96.1173,55.3699,97.8184,54.2683,99.745,53.7112,101.6224,53.0355,103.3854,52.0833" style="stroke:#333333;stroke-width:1.5625;"/><text fill="#FFFFFF" font-family="Segoe Print" font-size="12.5" lengthAdjust="spacing" textLength="19.7917" x="105.9896" y="79.3111">init</text><polygon fill="#666666" points="91.4063,143.6849,91.4063,143.9038,101.1979,143.2533,110.9896,143.8862,120.7813,144.1012,130.5729,142.9418,140.3646,143.6849,140.3455,143.6658,142.7599,146.0802,145.2704,148.5907,147.8478,151.1682,150.1948,153.5151,152.8646,156.1849,153.0005,156.3208,150.2098,158.5301,147.816,161.1363,145.4706,163.7909,142.8435,166.1638,140.3646,168.6849,140.3646,168.756,130.5729,168.6516,120.7813,168.8709,110.9896,168.934,101.1979,169.295,91.4063,168.6849,91.571,168.8497,89.073,166.3517,86.4688,163.7474,84.0201,161.2987,81.5787,158.8573,78.9063,156.1849,78.7292,156.0078,81.5728,153.8515,83.8335,151.1121,86.5373,148.816,88.7847,146.0634,91.4063,143.6849" style="stroke:#4D4D4D;stroke-width:1.5625;"/><text fill="#FFFFFF" font-family="Segoe Print" font-size="12.5" lengthAdjust="spacing" textLength="38.5417" x="96.6146" y="160.5123">color?</text><text fill="#FF0000" font-family="Segoe Print" font-size="12.5" lengthAdjust="spacing" textLength="21.875" x="51.8229" y="148.0286">red</text><polygon fill="#474747" points="24.4792,179.1016,24.4792,179.3205,34.7222,178.67,44.9653,179.3029,55.2083,179.5179,65.4514,178.3584,75.6944,179.0206,85.9375,179.1016,85.8808,178.9647,87.728,179.7413,89.6113,180.6052,91.3699,181.168,93.3768,182.3301,95.1446,182.9153,94.9424,182.8315,95.8439,184.7304,96.8087,186.6555,97.4053,188.4282,98.2175,190.29,98.9583,192.1224,98.9472,192.1224,99.0203,196.0742,99.0414,200.026,99.1617,203.9779,99.1913,207.9297,98.9583,211.8815,99.1762,211.9718,98.2773,213.7568,97.5816,215.626,96.8954,217.4991,95.676,219.1514,95.1446,221.0886,95.2348,221.3063,93.2638,221.7563,91.5327,222.7854,89.5546,223.2181,87.7698,224.1176,85.9375,224.9023,85.9375,225.6748,75.6944,224.8516,65.4514,225.012,55.2083,225.2551,44.9653,225.3359,34.7222,224.8983,24.4792,224.9023,24.5173,224.9945,22.5617,223.956,20.8341,223.4681,19.0277,222.79,17.1725,221.994,15.272,221.0886,15.4687,221.1701,14.3543,219.183,13.5373,217.3191,12.7845,215.4818,12.2022,213.7151,11.4583,211.8815,11.3901,211.8815,11.6949,207.9297,11.3977,203.9779,11.3392,200.026,11.5376,196.0742,11.4583,192.1224,11.2444,192.0338,12.0545,190.212,13.192,188.5258,13.8863,186.656,14.7449,184.8543,15.272,182.9153,15.2293,182.812,17.1559,182.2549,19.0333,181.5792,20.7335,180.4755,22.625,179.8336,24.4792,179.1016" style="stroke:#333333;stroke-width:1.5625;"/><text fill="#FFFFFF" font-family="Segoe Print" font-size="12.5" lengthAdjust="spacing" textLength="56.25" x="27.0833" y="206.3293">print red</text><path d="M254.1667,184.3099 L254.1667,197.8353 L233.3333,202.002 L254.1667,206.1686 L254.1667,219.694 A0,0 0 0 0 254.1667,219.694 L339.5833,219.694 A0,0 0 0 0 339.5833,219.694 L339.5833,194.7266 L329.1667,184.3099 L254.1667,184.3099 A0,0 0 0 0 254.1667,184.3099 " fill="#17A2B8" style="stroke:#1592A6;stroke-width:1.0416666666666667;"/><path d="M329.1667,184.3099 L329.3613,184.3099 L328.783,186.3932 L329.3456,188.4766 L329.5367,190.5599 L328.5061,192.6432 L329.1667,194.7266 L329.1667,194.6546 L331.25,194.3317 L333.3333,194.3715 L335.4167,194.6635 L337.5,194.0864 L339.5833,194.7266 L339.9458,195.089 L337.0873,192.2306 L335.2872,190.4304 L333.6161,188.7594 L331.1938,186.3371 L329.1667,184.3099 " fill="#17A2B8" style="stroke:#1592A6;stroke-width:1.0416666666666667;"/><text fill="#FFFFFF" font-family="Segoe Print" font-size="12.5" lengthAdjust="spacing" textLength="53.125" x="265.625" y="206.3293">no color</text><polygon fill="#474747" points="132.8125,179.1016,132.8125,179.3205,143.75,178.67,154.6875,179.3029,165.625,179.5179,176.5625,178.3584,187.5,179.0206,198.4375,178.6573,209.375,178.7021,220.3125,179.1016,220.3034,179.0797,222.0621,179.6425,224.0689,180.8047,225.753,181.1876,227.6519,182.0891,229.5196,182.9153,229.6582,182.9727,230.2548,184.7453,231.067,186.6072,231.7976,188.4353,232.6279,190.3047,233.3333,192.1224,233.4164,192.1224,233.5367,196.0742,233.5663,200.026,233.5692,203.9779,233.4217,207.9297,233.3333,211.8815,233.482,211.9431,232.7959,213.8162,231.5765,215.4685,231.2628,217.4959,230.1872,219.2078,229.5196,221.0886,229.5906,221.2599,227.6124,221.6926,225.8277,222.5921,224.0939,223.6148,222.1474,224.124,220.3125,224.9023,220.3125,225.012,209.375,225.2551,198.4375,225.3359,187.5,224.8983,176.5625,225.2015,165.625,224.3061,154.6875,225.1986,143.75,225.4734,132.8125,224.9023,132.8716,225.0449,131.0525,224.3363,129.0655,223.2219,127.2016,222.4049,125.3642,221.652,123.6054,221.0886,123.5865,221.0808,122.7796,219.2211,122.2985,217.4963,121.2611,215.5411,120.4444,213.6774,119.7917,211.8815,119.8709,211.8815,119.5601,207.9297,119.6114,203.9779,120.017,200.026,119.9429,196.0742,119.7917,192.1224,120.0273,192.22,120.4512,190.2382,121.4195,188.482,122.2693,186.6766,122.6911,184.6939,123.6054,182.9153,123.5926,182.8845,125.4635,182.1929,127.3748,181.5989,129.1291,180.6257,131.0325,180.0127,132.8125,179.1016" style="stroke:#333333;stroke-width:1.5625;"/><text fill="#FFFFFF" font-family="Segoe Print" font-size="12.5" lengthAdjust="spacing" textLength="82.2917" x="135.4167" y="206.3293">print not red</text><polygon fill="#666666" points="115.8854,231.1523,115.937,231.2039,118.2837,233.5506,120.9329,236.1998,123.4835,238.7505,125.7103,240.9772,128.3854,243.6523,128.3663,243.6333,125.7807,246.0476,123.2913,248.5582,120.8687,251.1356,118.2157,253.4826,115.8854,256.1523,116.0213,256.2883,113.2307,253.4976,110.8369,251.1038,108.4915,248.7584,105.8644,246.1313,103.3854,243.6523,103.4022,243.6691,105.8776,241.1445,108.4292,238.6962,110.9441,236.2111,113.5292,233.7961,115.8854,231.1523" style="stroke:#4D4D4D;stroke-width:1.5625;"/><polygon points="81.5104,266.569,81.5104,266.7879,91.3318,266.1374,101.1533,266.7704,110.9747,266.9853,120.7961,265.8259,130.6176,266.4881,140.439,266.1247,150.2604,266.569,150.2095,266.446,150.8406,266.7912,151.3471,266.8354,152.1017,267.4788,152.5337,267.3431,153.2067,267.7894,153.1433,267.7631,153.5893,268.436,153.6673,268.9565,153.9608,269.5662,154.1728,270.1422,154.4271,270.7357,154.613,270.7357,154.6762,281.3766,155.0372,292.0175,155.1261,302.6584,155.1346,313.2993,154.6923,323.9402,154.91,334.5812,155.1586,345.2221,153.6758,355.863,154.4271,366.5039,154.6447,366.5941,154.0879,367.0538,154.1102,367.7533,153.5361,368.2059,153.4288,368.8518,153.2067,369.4502,153.3052,369.6881,152.611,369.6786,152.0422,369.9721,151.4839,370.291,150.905,370.56,150.2604,370.6706,150.2604,370.6665,140.439,370.9698,130.6176,370.0743,120.7961,370.9668,110.9747,371.2416,101.1533,371.1336,91.3318,371.3091,81.5104,370.6706,81.4462,370.5156,80.8345,370.2173,80.2493,369.9831,79.7348,369.9195,79.1273,369.6312,78.5641,369.4502,78.7827,369.5407,78.264,368.8377,77.9659,368.2261,77.9051,367.7127,77.3739,367.0046,77.3438,366.5039,76.803,366.5039,78.0197,355.863,77.7976,345.2221,78.1088,334.5812,77.0085,323.9402,77.6762,313.2993,77.9588,302.6584,76.8517,292.0175,77.2439,281.3766,77.3438,270.7357,77.3842,270.7524,77.7969,270.233,77.8306,269.5566,78.2244,269.0294,78.1424,268.3051,78.5641,267.7894,78.4741,267.5721,79.2203,267.7069,79.6474,267.0713,80.3995,267.2204,80.9486,266.8794,81.5104,266.569" style="stroke:#333333;stroke-width:2.0833333333333335;fill:none;"/><path d="M123.1771,266.569 L123.3717,266.569 L122.7935,270.1042 L123.3561,273.6393 L123.5472,277.1745 L122.5165,280.7096 L123.1771,284.2448 L123.1262,284.1939 L120.8145,286.0489 L118.7593,288.1604 L116.8825,290.4502 L114.3911,292.1255 L112.7604,294.6615 L112.7604,295.1741 L105.6771,294.0779 L98.5938,294.4783 L91.5104,295.0614 L84.4271,294.582 L77.3438,294.6615 " fill="none" style="stroke:#333333;stroke-width:2.0833333333333335;"/><text fill="#333333" font-family="Segoe Print" font-size="12.5" lengthAdjust="spacing" textLength="25" x="85.6771" y="284.4218">End</text><polygon fill="#474747" points="100.7813,312.3698,100.7813,312.4428,106.8229,312.2259,112.8646,312.4369,118.9063,312.5086,124.9479,312.1221,130.9896,312.3698,130.9793,312.3449,132.7743,312.9957,134.6215,313.7723,136.5048,314.6362,138.2634,315.199,140.1967,316.1835,140.3743,316.2571,140.7573,317.9412,141.6587,319.8401,142.6235,321.7652,143.2202,323.5378,144.0104,325.3906,144.0341,325.3906,143.9993,329.3424,144.0724,333.2943,144.0934,337.2461,144.2138,341.1979,144.0104,345.1497,144.2257,345.2389,143.4656,347.0814,142.5666,348.8664,141.8709,350.7356,141.1847,352.6087,140.1967,354.3569,140.1009,354.1255,138.4454,355.3373,136.4745,355.7872,134.7434,356.8163,132.7652,357.249,130.9896,358.1706,130.9896,358.1468,124.9479,358.4281,118.9063,358.1537,112.8646,358.2071,106.8229,358.2882,100.7813,358.1706,100.8366,358.3041,98.9393,357.4066,97.1366,356.7372,95.1809,355.6987,93.4533,355.2108,91.5741,354.3569,91.75,354.4297,90.954,352.5745,90.2453,350.7555,89.1309,348.7684,88.3139,346.9045,87.7604,345.1497,87.5447,345.1497,87.74,341.1979,87.6922,337.2461,87.997,333.2943,87.6998,329.3424,87.7604,325.3906,87.6504,325.345,88.5964,323.5795,89.072,321.6192,89.8821,319.7974,91.0196,318.1112,91.5741,316.1835,91.632,316.3233,93.5132,315.6564,95.2142,314.5548,97.1408,313.9977,99.0183,313.3219,100.7813,312.3698" style="stroke:#333333;stroke-width:1.5625;"/><text fill="#FFFFFF" font-family="Segoe Print" font-size="12.5" lengthAdjust="spacing" textLength="25" x="103.3854" y="339.5976">end</text><polygon points="126.3596,429.4218,124.8327,431.5081,123.0267,434.5639,120.4438,436.6232,117.7295,437.7494,115.5653,437.8471,112.7838,436.4387,110.1592,435.5186,108.1672,433.6505,107.1222,431.5119,106.5025,429.809,105.8954,427.5847,104.91,425.6707,105.6673,423.8018,106.3307,421.7547,108.8204,420.1356,110.5719,418.0349,112.74,417.3373,115.3173,416.7366,118.6225,417.0935,120.4328,417.9472,122.5376,418.3342,125.0968,420.9562,125.9889,423.7241,126.3765,425.6128,125.9375,428.725" style="stroke:#17A2B8;stroke-width:1.5625;fill:none;"/><path d="M109.4404,420.443 L109.5092,420.5118 L111.8828,422.8854 L114.6597,425.6623 L117.3053,428.3079 L119.5189,430.5215 L122.3304,433.333 " fill="none" style="stroke:#17A2B8;stroke-width:2.604166666666667;"/><path d="M122.3304,420.443 L122.3992,420.5118 L119.6168,422.8854 L117.2377,425.6623 L114.7273,428.3079 L111.7849,430.5215 L109.4404,433.333 " fill="none" style="stroke:#17A2B8;stroke-width:2.604166666666667;"/><path d="M115.8854,31.25 L115.9827,31.25 L115.6936,35.4167 L115.9749,39.5833 L116.0705,43.75 L115.5551,47.9167 L115.8854,52.0833 " fill="#333333" style="stroke:#333333;stroke-width:1.5625;"/><polygon fill="#333333" points="111.7188,41.6667,111.7865,41.6938,112.4185,43.6966,113.4477,45.8583,114.3476,47.9682,114.8221,49.908,115.8854,52.0833,115.8604,52.0733,116.5813,49.945,117.4284,47.8672,118.3634,45.8245,118.9959,43.6608,120.0521,41.6667,120.188,41.8026,119.064,42.3453,118.3369,43.2848,117.6581,44.2727,116.6977,44.9789,115.8854,45.8333,115.9022,45.8501,115.0442,44.9922,114.2626,44.2105,113.4441,43.392,112.6959,42.6438,111.7188,41.6667" style="stroke:#333333;stroke-width:1.0416666666666667;"/><path d="M78.9063,156.1849 L78.9063,156.2822 L74.1667,155.9931 L69.4271,156.2744 L64.6875,156.3699 L59.9479,155.8546 L55.2083,156.1849 " fill="#333333" style="stroke:#333333;stroke-width:1.5625;"/><path d="M55.2083,156.1849 L55.3056,156.1849 L55.0165,160.7682 L55.2978,165.3516 L55.3934,169.9349 L54.8781,174.5182 L55.2083,179.1016 " fill="#333333" style="stroke:#333333;stroke-width:1.5625;"/><polygon fill="#333333" points="51.0417,168.6849,51.1094,168.712,51.7414,170.7148,52.7706,172.8765,53.6705,174.9864,54.145,176.9262,55.2083,179.1016,55.1833,179.0915,55.9042,176.9632,56.7514,174.8854,57.6864,172.8428,58.3188,170.6791,59.375,168.6849,59.5109,168.8208,58.3869,169.3635,57.6598,170.303,56.9811,171.2909,56.0206,171.9972,55.2083,172.8516,55.2251,172.8683,54.3672,172.0104,53.5855,171.2287,52.767,170.4103,52.0188,169.662,51.0417,168.6849" style="stroke:#333333;stroke-width:1.0416666666666667;"/><path d="M152.8646,156.1849 L152.8646,156.2822 L157.6042,155.9931 L162.3438,156.2744 L167.0833,156.3699 L171.8229,155.8546 L176.5625,156.1849 " fill="#333333" style="stroke:#333333;stroke-width:1.5625;"/><path d="M176.5625,156.1849 L176.6598,156.1849 L176.3707,160.7682 L176.652,165.3516 L176.7475,169.9349 L176.2322,174.5182 L176.5625,179.1016 " fill="#333333" style="stroke:#333333;stroke-width:1.5625;"/><polygon fill="#333333" points="172.3958,168.6849,172.4636,168.712,173.0956,170.7148,174.1248,172.8765,175.0247,174.9864,175.4992,176.9262,176.5625,179.1016,176.5374,179.0915,177.2583,176.9632,178.1055,174.8854,179.0405,172.8428,179.6729,170.6791,180.7292,168.6849,180.8651,168.8208,179.7411,169.3635,179.0139,170.303,178.3352,171.2909,177.3748,171.9972,176.5625,172.8516,176.5793,172.8683,175.7213,172.0104,174.9397,171.2287,174.1212,170.4103,173.373,169.662,172.3958,168.6849" style="stroke:#333333;stroke-width:1.0416666666666667;"/><path d="M55.2083,224.9023 L55.3056,224.9023 L55.0165,228.6523 L55.2978,232.4023 L55.3934,236.1523 L54.8781,239.9023 L55.2083,243.6523 " fill="#333333" style="stroke:#333333;stroke-width:1.5625;"/><path d="M55.2083,243.6523 L55.2083,243.9443 L64.8438,243.0769 L74.4792,243.9208 L84.1146,244.2075 L93.75,242.6615 L103.3854,243.6523 " fill="#333333" style="stroke:#333333;stroke-width:1.5625;"/><polygon fill="#333333" points="92.9688,239.4857,92.9959,239.5534,94.9987,240.1854,97.1603,241.2147,99.2703,242.1145,101.2101,242.589,103.3854,243.6523,103.3754,243.6273,101.2471,244.3482,99.1693,245.1954,97.1266,246.1304,94.9629,246.7628,92.9688,247.819,93.1047,247.9549,93.6473,246.8309,94.5869,246.1038,95.5748,245.4251,96.281,244.4646,97.1354,243.6523,97.1522,243.6691,96.2942,242.8112,95.5126,242.0295,94.6941,241.2111,93.9459,240.4628,92.9688,239.4857" style="stroke:#333333;stroke-width:1.0416666666666667;"/><path d="M176.5625,224.9023 L176.6598,224.9023 L176.3707,228.6523 L176.652,232.4023 L176.7475,236.1523 L176.2322,239.9023 L176.5625,243.6523 " fill="#333333" style="stroke:#333333;stroke-width:1.5625;"/><path d="M176.5625,243.6523 L176.5625,243.9443 L166.9271,243.0769 L157.2917,243.9208 L147.6563,244.2075 L138.0208,242.6615 L128.3854,243.6523 " fill="#333333" style="stroke:#333333;stroke-width:1.5625;"/><polygon fill="#333333" points="138.8021,239.4857,138.8292,239.5534,136.6653,240.1854,134.6603,241.2147,132.6036,242.1145,130.3768,242.589,128.3854,243.6523,128.3754,243.6273,130.4138,244.3482,132.5026,245.1954,134.6266,246.1304,136.6296,246.7628,138.8021,247.819,138.938,247.9549,137.814,246.8309,137.0869,246.1038,136.4081,245.4251,135.4477,244.4646,134.6354,243.6523,134.6522,243.6691,135.4609,242.8112,136.3459,242.0295,137.1941,241.2111,138.1126,240.4628,138.8021,239.4857" style="stroke:#333333;stroke-width:1.0416666666666667;"/><path d="M115.8854,97.8841 L115.9827,97.8841 L115.6936,107.0443 L115.9749,116.2044 L116.0705,125.3646 L115.5551,134.5247 L115.8854,143.6849 " fill="#333333" style="stroke:#333333;stroke-width:1.5625;"/><polygon fill="#333333" points="111.7188,133.2682,111.7865,133.2953,112.4185,135.2981,113.4477,137.4598,114.3476,139.5698,114.8221,141.5096,115.8854,143.6849,115.8604,143.6749,116.5813,141.5466,117.4284,139.4688,118.3634,137.4261,118.9959,135.2624,120.0521,133.2682,120.188,133.4042,119.064,133.9468,118.3369,134.8863,117.6581,135.8743,116.6977,136.5805,115.8854,137.4349,115.9022,137.4516,115.0442,136.5937,114.2626,135.8121,113.4441,134.9936,112.6959,134.2454,111.7188,133.2682" style="stroke:#333333;stroke-width:1.0416666666666667;"/><text fill="#FFFFFF" font-family="Segoe Print" font-size="12.5" lengthAdjust="spacing" textLength="79.1667" x="125.2604" y="121.2891">test of color</text><path d="M115.8854,256.1523 L116.1773,256.1523 L115.31,267.3958 L116.1539,278.6393 L116.4405,289.8828 L114.8946,301.1263 L115.8854,312.3698 " fill="#333333" style="stroke:#333333;stroke-width:1.5625;"/><polygon fill="#333333" points="111.7188,301.9531,111.7865,301.9802,112.4185,303.983,113.4477,306.1447,114.3476,308.2547,114.8221,310.1945,115.8854,312.3698,115.8604,312.3598,116.5813,310.2315,117.4284,308.1537,118.3634,306.111,118.9959,303.9473,120.0521,301.9531,120.188,302.0891,119.064,302.6317,118.3369,303.5712,117.6581,304.5592,116.6977,305.2654,115.8854,306.1198,115.9022,306.1365,115.0442,305.2786,114.2626,304.497,113.4441,303.6785,112.6959,302.9303,111.7188,301.9531" style="stroke:#333333;stroke-width:1.0416666666666667;"/><path d="M115.8854,358.1706 L116.1773,358.1706 L115.31,367.8874 L116.1539,377.6042 L116.4405,387.321 L114.8946,397.0378 L115.7775,406.7546 L115.8854,416.4714 " fill="#333333" style="stroke:#333333;stroke-width:1.5625;"/><polygon fill="#333333" points="111.7188,406.0547,111.7865,406.0818,112.4185,408.0846,113.4477,410.2463,114.3476,412.3562,114.8221,414.296,115.8854,416.4714,115.8604,416.4613,116.5813,414.333,117.4284,412.2552,118.3634,410.2126,118.9959,408.0489,120.0521,406.0547,120.188,406.1906,119.064,406.7333,118.3369,407.6728,117.6581,408.6607,116.6977,409.367,115.8854,410.2214,115.9022,410.2381,115.0442,409.3802,114.2626,408.5985,113.4441,407.7801,112.6959,407.0318,111.7188,406.0547" style="stroke:#333333;stroke-width:1.0416666666666667;"/><text fill="#FFFFFF" font-family="Segoe Print" font-size="12.5" lengthAdjust="spacing" textLength="93.75" x="125.2604" y="394.0755">this is the end</text></g></svg>