<?xml version="1.0" encoding="UTF-8" standalone="no"?><svg xmlns="http://www.w3.org/2000/svg" xmlns:xlink="http://www.w3.org/1999/xlink" contentScriptType="application/ecmascript" contentStyleType="text/css" height="422.9167px" preserveAspectRatio="none" style="width:335px;height:422px;background:#00000000;" version="1.1" viewBox="0 0 335 422" width="335.4167px" zoomAndPan="magnify"><defs><linearGradient id="ggytkpae7zc760" x1="50%" x2="50%" y1="0%" y2="100%"><stop offset="0%" stop-color="#D3F198"/><stop offset="100%" stop-color="#B5E853"/></linearGradient></defs><g><ellipse cx="107.5521" cy="20.8333" fill="#AA759F" rx="10.4167" ry="10.4167" style="stroke:none;stroke-width:1.0416666666666667;"/><rect fill="url(#ggytkpae7zc760)" height="37.4674" rx="20.8333" ry="20.8333" style="stroke:#D3F198;stroke-width:1.0416666666666667;" width="42.7083" x="86.1979" y="52.0833"/><text fill="#151515" font-family="&quot;Verdana&quot;" font-size="12.5" lengthAdjust="spacing" textLength="19.7917" x="97.6563" y="75.1444">init</text><polygon fill="url(#ggytkpae7zc760)" points="84.6354,134.139,130.4688,134.139,142.9688,146.639,130.4688,159.139,84.6354,159.139,72.1354,146.639,84.6354,134.139" style="stroke:#88B2C4;stroke-width:1.5625;"/><text fill="#151515" font-family="&quot;Verdana&quot;" font-size="11.4583" lengthAdjust="spacing" textLength="35.4167" x="89.8438" y="150.6058">color?</text><text fill="#FF0000" font-family="&quot;Verdana&quot;" font-size="11.4583" lengthAdjust="spacing" textLength="19.7917" x="47.1354" y="138.7283">red</text><rect fill="url(#ggytkpae7zc760)" height="37.4674" rx="20.8333" ry="20.8333" style="stroke:#D3F198;stroke-width:1.0416666666666667;" width="79.1667" x="11.4583" y="169.5557"/><text fill="#151515" font-family="&quot;Verdana&quot;" font-size="12.5" lengthAdjust="spacing" textLength="56.25" x="22.9167" y="192.6168">print red</text><path d="M237.5,169.991 L237.5,184.1227 L216.6667,188.2894 L237.5,192.4561 L237.5,206.5877 A0,0 0 0 0 237.5,206.5877 L322.9167,206.5877 A0,0 0 0 0 322.9167,206.5877 L322.9167,180.4077 L312.5,169.991 L237.5,169.991 A0,0 0 0 0 237.5,169.991 " fill="url(#ggytkpae7zc760)" style="stroke:#6D8B32;stroke-width:1.0416666666666667;"/><path d="M312.5,169.991 L312.5,180.4077 L322.9167,180.4077 L312.5,169.991 " fill="url(#ggytkpae7zc760)" style="stroke:#6D8B32;stroke-width:1.0416666666666667;"/><text fill="#151515" font-family="&quot;Verdana&quot;" font-size="13.5417" lengthAdjust="spacing" textLength="53.125" x="248.9583" y="192.9774">no color</text><rect fill="url(#ggytkpae7zc760)" height="37.4674" rx="20.8333" ry="20.8333" style="stroke:#D3F198;stroke-width:1.0416666666666667;" width="105.2083" x="111.4583" y="169.5557"/><text fill="#151515" font-family="&quot;Verdana&quot;" font-size="12.5" lengthAdjust="spacing" textLength="82.2917" x="122.9167" y="192.6168">print not red</text><polygon fill="url(#ggytkpae7zc760)" points="107.5521,213.2731,120.0521,225.7731,107.5521,238.2731,95.0521,225.7731,107.5521,213.2731" style="stroke:#88B2C4;stroke-width:1.5625;"/><rect fill="url(#ggytkpae7zc760)" height="98.1934" rx="20.8333" ry="20.8333" style="stroke:#B5E853;stroke-width:2.0833333333333335;" width="68.75" x="73.1771" y="248.6898"/><path d="M122.1354,248.6898 L122.1354,268.7907 L111.7188,279.2074 L73.1771,279.2074 " fill="none" style="stroke:#B5E853;stroke-width:2.0833333333333335;"/><text fill="#151515" font-family="&quot;Verdana&quot;" font-size="14.5833" lengthAdjust="spacing" textLength="28.125" x="81.5104" y="268.4764">End</text><rect fill="url(#ggytkpae7zc760)" height="37.4674" rx="20.8333" ry="20.8333" style="stroke:#D3F198;stroke-width:1.0416666666666667;" width="47.9167" x="83.5938" y="296.9157"/><text fill="#151515" font-family="&quot;Verdana&quot;" font-size="12.5" lengthAdjust="spacing" textLength="25" x="95.0521" y="319.9768">end</text><ellipse cx="107.5521" cy="401.888" rx="10.4167" ry="10.4167" style="stroke:#AA759F;stroke-width:1.5625;fill:none;"/><line style="stroke:#AA759F;stroke-width:2.604166666666667;fill:none;" x1="101.1071" x2="113.9971" y1="395.443" y2="408.333"/><line style="stroke:#AA759F;stroke-width:2.604166666666667;fill:none;" x1="113.9971" x2="101.1071" y1="395.443" y2="408.333"/><line style="stroke:#B5E853;stroke-width:1.5625;fill:none;" x1="107.5521" x2="107.5521" y1="31.25" y2="52.0833"/><polygon fill="#B5E853" points="103.3854,41.6667,107.5521,52.0833,111.7188,41.6667,107.5521,45.8333" style="stroke:#B5E853;stroke-width:1.0416666666666667;"/><line style="stroke:#B5E853;stroke-width:1.5625;" x1="72.1354" x2="51.0417" y1="146.639" y2="146.639"/><line style="stroke:#B5E853;stroke-width:1.5625;" x1="51.0417" x2="51.0417" y1="146.639" y2="169.5557"/><polygon fill="#B5E853" points="46.875,159.139,51.0417,169.5557,55.2083,159.139,51.0417,163.3057" style="stroke:#B5E853;stroke-width:1.0416666666666667;"/><line style="stroke:#B5E853;stroke-width:1.5625;" x1="142.9688" x2="164.0625" y1="146.639" y2="146.639"/><line style="stroke:#B5E853;stroke-width:1.5625;" x1="164.0625" x2="164.0625" y1="146.639" y2="169.5557"/><polygon fill="#B5E853" points="159.8958,159.139,164.0625,169.5557,168.2292,159.139,164.0625,163.3057" style="stroke:#B5E853;stroke-width:1.0416666666666667;"/><line style="stroke:#B5E853;stroke-width:1.5625;" x1="51.0417" x2="51.0417" y1="207.0231" y2="225.7731"/><line style="stroke:#B5E853;stroke-width:1.5625;" x1="51.0417" x2="95.0521" y1="225.7731" y2="225.7731"/><polygon fill="#B5E853" points="84.6354,221.6064,95.0521,225.7731,84.6354,229.9398,88.8021,225.7731" style="stroke:#B5E853;stroke-width:1.0416666666666667;"/><line style="stroke:#B5E853;stroke-width:1.5625;" x1="164.0625" x2="164.0625" y1="207.0231" y2="225.7731"/><line style="stroke:#B5E853;stroke-width:1.5625;" x1="164.0625" x2="120.0521" y1="225.7731" y2="225.7731"/><polygon fill="#B5E853" points="130.4688,221.6064,120.0521,225.7731,130.4688,229.9398,126.3021,225.7731" style="stroke:#B5E853;stroke-width:1.0416666666666667;"/><line style="stroke:#B5E853;stroke-width:1.5625;" x1="107.5521" x2="107.5521" y1="89.5508" y2="134.139"/><polygon fill="#B5E853" points="103.3854,123.7223,107.5521,134.139,111.7188,123.7223,107.5521,127.889" style="stroke:#B5E853;stroke-width:1.0416666666666667;"/><text fill="#151515" font-family="&quot;Verdana&quot;" font-size="11.4583" lengthAdjust="spacing" textLength="71.875" x="116.9271" y="111.7432">test of color</text><line style="stroke:#B5E853;stroke-width:1.5625;" x1="107.5521" x2="107.5521" y1="238.2731" y2="296.9157"/><polygon fill="#B5E853" points="103.3854,286.499,107.5521,296.9157,111.7188,286.499,107.5521,290.6657" style="stroke:#B5E853;stroke-width:1.0416666666666667;"/><line style="stroke:#B5E853;stroke-width:1.5625;" x1="107.5521" x2="107.5521" y1="334.3831" y2="391.4714"/><polygon fill="#B5E853" points="103.3854,381.0547,107.5521,391.4714,111.7188,381.0547,107.5521,385.2214" style="stroke:#B5E853;stroke-width:1.0416666666666667;"/><text fill="#151515" font-family="&quot;Verdana&quot;" font-size="11.4583" lengthAdjust="spacing" textLength="85.4167" x="116.9271" y="369.0755">this is the end</text></g></svg>