<svg xmlns="http://www.w3.org/2000/svg" xmlns:xlink="http://www.w3.org/1999/xlink" contentStyleType="text/css" height="427.0833px" preserveAspectRatio="none" style="width:335px;height:427px;background:#FFFFFF;" version="1.1" viewBox="0 0 335 427" width="335.4167px" zoomAndPan="magnify"><defs><linearGradient id="gqu7oo6f40r410" x1="50%" x2="50%" y1="0%" y2="100%"><stop offset="0%" stop-color="#7C9AB9"/><stop offset="100%" stop-color="#304D6D"/></linearGradient><linearGradient id="gqu7oo6f40r411" x1="50%" x2="50%" y1="0%" y2="100%"><stop offset="0%" stop-color="#B8B8B8"/><stop offset="100%" stop-color="#6B6B6B"/></linearGradient><linearGradient id="gqu7oo6f40r412" x1="50%" x2="50%" y1="0%" y2="100%"><stop offset="0%" stop-color="#70B8F7"/><stop offset="100%" stop-color="#246BAA"/></linearGradient></defs><g><ellipse cx="107.5521" cy="20.8333" fill="#3399F3" rx="10.4167" ry="10.4167" style="stroke:#304D6D;stroke-width:1.0416666666666667;"/><rect fill="url(#gqu7oo6f40r410)" height="37.4674" rx="4.1667" ry="4.1667" style="stroke:#304D6D;stroke-width:1.0416666666666667;" width="42.7083" x="86.1979" y="52.0833"/><text fill="#FFFFFF" font-family="Verdana" font-size="12.5" lengthAdjust="spacing" textLength="19.7917" x="97.6563" y="75.1444">init</text><polygon fill="url(#gqu7oo6f40r411)" points="83.0729,135.3516,132.0313,135.3516,144.5313,147.8516,132.0313,160.3516,83.0729,160.3516,70.5729,147.8516,83.0729,135.3516" style="stroke:#6B6B6B;stroke-width:1.0416666666666667;"/><text fill="#FFFFFF" font-family="Verdana" font-size="12.5" lengthAdjust="spacing" textLength="38.5417" x="88.2813" y="152.179">color?</text><text fill="#FF0000" font-family="Verdana" font-size="12.5" lengthAdjust="spacing" textLength="21.875" x="43.4896" y="139.6952">red</text><rect fill="url(#gqu7oo6f40r410)" height="37.4674" rx="4.1667" ry="4.1667" style="stroke:#304D6D;stroke-width:1.0416666666666667;" width="79.1667" x="11.4583" y="170.7682"/><text fill="#FFFFFF" font-family="Verdana" font-size="12.5" lengthAdjust="spacing" textLength="56.25" x="22.9167" y="193.8293">print red</text><path d="M237.5,171.8099 L237.5,185.3353 L216.6667,189.502 L237.5,193.6686 L237.5,207.194 A0,0 0 0 0 237.5,207.194 L322.9167,207.194 A0,0 0 0 0 322.9167,207.194 L322.9167,182.2266 L312.5,171.8099 L237.5,171.8099 A0,0 0 0 0 237.5,171.8099 " fill="url(#gqu7oo6f40r412)" style="stroke:#246BAA;stroke-width:1.0416666666666667;"/><path d="M312.5,171.8099 L312.5,182.2266 L322.9167,182.2266 L312.5,171.8099 " fill="url(#gqu7oo6f40r412)" style="stroke:#246BAA;stroke-width:1.0416666666666667;"/><text fill="#FFFFFF" font-family="Verdana" font-size="12.5" lengthAdjust="spacing" textLength="53.125" x="248.9583" y="193.8293">no color</text><rect fill="url(#gqu7oo6f40r410)" height="37.4674" rx="4.1667" ry="4.1667" style="stroke:#304D6D;stroke-width:1.0416666666666667;" width="105.2083" x="111.4583" y="170.7682"/><text fill="#FFFFFF" font-family="Verdana" font-size="12.5" lengthAdjust="spacing" textLength="82.2917" x="122.9167" y="193.8293">print not red</text><polygon fill="url(#gqu7oo6f40r411)" points="107.5521,218.6523,120.0521,231.1523,107.5521,243.6523,95.0521,231.1523,107.5521,218.6523" style="stroke:#6B6B6B;stroke-width:1.0416666666666667;"/><rect fill="#FFFFFF" height="95.7682" rx="4.1667" ry="4.1667" style="stroke:#446E9B;stroke-width:1.0416666666666667;" width="68.75" x="73.1771" y="254.069"/><path d="M119.0104,254.069 L119.0104,271.7448 L108.5938,282.1615 L73.1771,282.1615 " fill="none" style="stroke:#446E9B;stroke-width:1.0416666666666667;"/><text fill="#446E9B" font-family="Verdana" font-size="12.5" lengthAdjust="spacing" textLength="25" x="81.5104" y="271.9218">End</text><rect fill="url(#gqu7oo6f40r410)" height="37.4674" rx="4.1667" ry="4.1667" style="stroke:#304D6D;stroke-width:1.0416666666666667;" width="47.9167" x="83.5938" y="299.8698"/><text fill="#FFFFFF" font-family="Verdana" font-size="12.5" lengthAdjust="spacing" textLength="25" x="95.0521" y="322.9309">end</text><ellipse cx="107.5521" cy="406.0547" fill="none" rx="10.4167" ry="10.4167" style="stroke:#3399F3;stroke-width:1.5625;"/><line style="stroke:#3399F3;stroke-width:2.604166666666667;" x1="101.1071" x2="113.9971" y1="399.6097" y2="412.4997"/><line style="stroke:#3399F3;stroke-width:2.604166666666667;" x1="113.9971" x2="101.1071" y1="399.6097" y2="412.4997"/><line style="stroke:#446E9B;stroke-width:3.125;" x1="107.5521" x2="107.5521" y1="31.25" y2="52.0833"/><polygon fill="#446E9B" points="103.3854,41.6667,107.5521,52.0833,111.7188,41.6667,107.5521,45.8333" style="stroke:#446E9B;stroke-width:1.0416666666666667;"/><line style="stroke:#446E9B;stroke-width:3.125;" x1="70.5729" x2="51.0417" y1="147.8516" y2="147.8516"/><line style="stroke:#446E9B;stroke-width:3.125;" x1="51.0417" x2="51.0417" y1="147.8516" y2="170.7682"/><polygon fill="#446E9B" points="46.875,160.3516,51.0417,170.7682,55.2083,160.3516,51.0417,164.5182" style="stroke:#446E9B;stroke-width:1.0416666666666667;"/><line style="stroke:#446E9B;stroke-width:3.125;" x1="144.5313" x2="164.0625" y1="147.8516" y2="147.8516"/><line style="stroke:#446E9B;stroke-width:3.125;" x1="164.0625" x2="164.0625" y1="147.8516" y2="170.7682"/><polygon fill="#446E9B" points="159.8958,160.3516,164.0625,170.7682,168.2292,160.3516,164.0625,164.5182" style="stroke:#446E9B;stroke-width:1.0416666666666667;"/><line style="stroke:#446E9B;stroke-width:3.125;" x1="51.0417" x2="51.0417" y1="208.2357" y2="231.1523"/><line style="stroke:#446E9B;stroke-width:3.125;" x1="51.0417" x2="95.0521" y1="231.1523" y2="231.1523"/><polygon fill="#446E9B" points="84.6354,226.9857,95.0521,231.1523,84.6354,235.319,88.8021,231.1523" style="stroke:#446E9B;stroke-width:1.0416666666666667;"/><line style="stroke:#446E9B;stroke-width:3.125;" x1="164.0625" x2="164.0625" y1="208.2357" y2="231.1523"/><line style="stroke:#446E9B;stroke-width:3.125;" x1="164.0625" x2="120.0521" y1="231.1523" y2="231.1523"/><polygon fill="#446E9B" points="130.4688,226.9857,120.0521,231.1523,130.4688,235.319,126.3021,231.1523" style="stroke:#446E9B;stroke-width:1.0416666666666667;"/><line style="stroke:#446E9B;stroke-width:3.125;" x1="107.5521" x2="107.5521" y1="89.5508" y2="135.3516"/><polygon fill="#446E9B" points="103.3854,124.9349,107.5521,135.3516,111.7188,124.9349,107.5521,129.1016" style="stroke:#446E9B;stroke-width:1.0416666666666667;"/><text fill="#FFFFFF" font-family="Verdana" font-size="12.5" lengthAdjust="spacing" textLength="79.1667" x="116.9271" y="112.9557">test of color</text><line style="stroke:#446E9B;stroke-width:3.125;" x1="107.5521" x2="107.5521" y1="243.6523" y2="299.8698"/><polygon fill="#446E9B" points="103.3854,289.4531,107.5521,299.8698,111.7188,289.4531,107.5521,293.6198" style="stroke:#446E9B;stroke-width:1.0416666666666667;"/><line style="stroke:#446E9B;stroke-width:3.125;" x1="107.5521" x2="107.5521" y1="337.3372" y2="395.638"/><polygon fill="#446E9B" points="103.3854,385.2214,107.5521,395.638,111.7188,385.2214,107.5521,389.388" style="stroke:#446E9B;stroke-width:1.0416666666666667;"/><text fill="#FFFFFF" font-family="Verdana" font-size="12.5" lengthAdjust="spacing" textLength="93.75" x="116.9271" y="373.2422">this is the end</text></g></svg>