<?xml version="1.0" encoding="UTF-8" standalone="no"?><svg xmlns="http://www.w3.org/2000/svg" xmlns:xlink="http://www.w3.org/1999/xlink" contentStyleType="text/css" height="382px" preserveAspectRatio="none" style="width:290px;height:382px;background:#777777;" version="1.1" viewBox="0 0 290 382" width="290px" zoomAndPan="magnify"><defs/><g><rect fill="#777777" height="382" style="stroke:none;stroke-width:1.0;" width="290" x="0" y="0"/><ellipse cx="95.5" cy="20" fill="#222222" rx="10" ry="10" style="stroke:#222222;stroke-width:1.0;"/><rect fill="#2E2E2E" height="32.8047" rx="12.5" ry="12.5" style="stroke:#1B1B1B;stroke-width:0.5;" width="37" x="77" y="50"/><text fill="#FFFFFF" font-family="Verdana" font-size="11" lengthAdjust="spacing" textLength="17" x="87" y="70.2104">init</text><polygon fill="#2E2E2E" points="78.5,124.2036,112.5,124.2036,124.5,136.2036,112.5,148.2036,78.5,148.2036,66.5,136.2036,78.5,124.2036" style="stroke:#1B1B1B;stroke-width:0.5;"/><text fill="#FFFFFF" font-family="Verdana" font-size="11" lengthAdjust="spacing" textLength="34" x="78.5" y="140.0117">color?</text><text fill="#FF0000" font-family="Verdana" font-size="11" lengthAdjust="spacing" textLength="19" x="47.5" y="133.6094">red</text><rect fill="#2E2E2E" height="32.8047" rx="12.5" ry="12.5" style="stroke:#1B1B1B;stroke-width:0.5;" width="69" x="11" y="158.2036"/><text fill="#FFFFFF" font-family="Verdana" font-size="11" lengthAdjust="spacing" textLength="49" x="21" y="178.4141">print red</text><path d="M211,163.2036 L211,170.606 L191,174.606 L211,178.606 L211,186.0083 A0,0 0 0 0 211,186.0083 L278,186.0083 A0,0 0 0 0 278,186.0083 L278,173.2036 L268,163.2036 L211,163.2036 A0,0 0 0 0 211,163.2036 " fill="#1A66C2" style="stroke:#002642;stroke-width:0.5;"/><path d="M268,163.2036 L268,173.2036 L278,173.2036 L268,163.2036 " fill="#1A66C2" style="stroke:#002642;stroke-width:0.5;"/><text fill="#FFFFFF" font-family="Verdana" font-size="11" lengthAdjust="spacing" textLength="46" x="217" y="178.4141">no color</text><rect fill="#2E2E2E" height="32.8047" rx="12.5" ry="12.5" style="stroke:#1B1B1B;stroke-width:0.5;" width="91" x="100" y="158.2036"/><text fill="#FFFFFF" font-family="Verdana" font-size="11" lengthAdjust="spacing" textLength="71" x="110" y="178.4141">print not red</text><polygon fill="#2E2E2E" points="95.5,197.0083,107.5,209.0083,95.5,221.0083,83.5,209.0083,95.5,197.0083" style="stroke:#1B1B1B;stroke-width:0.5;"/><rect fill="none" height="81.1016" style="stroke:#000000;stroke-width:1.5;" width="61" x="65" y="231.0083"/><path d="M102,231.0083 L102,240.3052 L92,250.3052 L65,250.3052 " fill="none" style="stroke:#000000;stroke-width:1.5;"/><text fill="#000000" font-family="sans-serif" font-size="14" lengthAdjust="spacing" textLength="27" x="68" y="245.0034">End</text><rect fill="#2E2E2E" height="32.8047" rx="12.5" ry="12.5" style="stroke:#1B1B1B;stroke-width:0.5;" width="41" x="75" y="267.3052"/><text fill="#FFFFFF" font-family="Verdana" font-size="11" lengthAdjust="spacing" textLength="21" x="85" y="287.5156">end</text><ellipse cx="95.5" cy="361.3203" fill="none" rx="10" ry="10" style="stroke:#222222;stroke-width:1.5;"/><line style="stroke:#222222;stroke-width:2.5;" x1="89.3128" x2="101.6872" y1="355.1331" y2="367.5075"/><line style="stroke:#222222;stroke-width:2.5;" x1="101.6872" x2="89.3128" y1="355.1331" y2="367.5075"/><line style="stroke:#FFFFFF;stroke-width:1.0;" x1="95.5" x2="95.5" y1="30" y2="50"/><polygon fill="#FFFFFF" points="91.5,40,95.5,50,99.5,40,95.5,44" style="stroke:#FFFFFF;stroke-width:1.0;"/><line style="stroke:#FFFFFF;stroke-width:1.0;" x1="66.5" x2="45.5" y1="136.2036" y2="136.2036"/><line style="stroke:#FFFFFF;stroke-width:1.0;" x1="45.5" x2="45.5" y1="136.2036" y2="158.2036"/><polygon fill="#FFFFFF" points="41.5,148.2036,45.5,158.2036,49.5,148.2036,45.5,152.2036" style="stroke:#FFFFFF;stroke-width:1.0;"/><line style="stroke:#FFFFFF;stroke-width:1.0;" x1="124.5" x2="145.5" y1="136.2036" y2="136.2036"/><line style="stroke:#FFFFFF;stroke-width:1.0;" x1="145.5" x2="145.5" y1="136.2036" y2="158.2036"/><polygon fill="#FFFFFF" points="141.5,148.2036,145.5,158.2036,149.5,148.2036,145.5,152.2036" style="stroke:#FFFFFF;stroke-width:1.0;"/><line style="stroke:#FFFFFF;stroke-width:1.0;" x1="45.5" x2="45.5" y1="191.0083" y2="209.0083"/><line style="stroke:#FFFFFF;stroke-width:1.0;" x1="45.5" x2="83.5" y1="209.0083" y2="209.0083"/><polygon fill="#FFFFFF" points="73.5,205.0083,83.5,209.0083,73.5,213.0083,77.5,209.0083" style="stroke:#FFFFFF;stroke-width:1.0;"/><line style="stroke:#FFFFFF;stroke-width:1.0;" x1="145.5" x2="145.5" y1="191.0083" y2="209.0083"/><line style="stroke:#FFFFFF;stroke-width:1.0;" x1="145.5" x2="107.5" y1="209.0083" y2="209.0083"/><polygon fill="#FFFFFF" points="117.5,205.0083,107.5,209.0083,117.5,213.0083,113.5,209.0083" style="stroke:#FFFFFF;stroke-width:1.0;"/><line style="stroke:#FFFFFF;stroke-width:1.0;" x1="95.5" x2="95.5" y1="82.8047" y2="124.2036"/><polygon fill="#FFFFFF" points="91.5,114.2036,95.5,124.2036,99.5,114.2036,95.5,118.2036" style="stroke:#FFFFFF;stroke-width:1.0;"/><text fill="#BBBBBB" font-family="Verdana" font-size="11" lengthAdjust="spacing" textLength="69" x="99.5" y="104.1094">test of color</text><line style="stroke:#FFFFFF;stroke-width:1.0;" x1="95.5" x2="95.5" y1="221.0083" y2="267.3052"/><polygon fill="#FFFFFF" points="91.5,257.3052,95.5,267.3052,99.5,257.3052,95.5,261.3052" style="stroke:#FFFFFF;stroke-width:1.0;"/><line style="stroke:#FFFFFF;stroke-width:1.0;" x1="95.5" x2="95.5" y1="300.1099" y2="351.3203"/><polygon fill="#FFFFFF" points="91.5,341.3203,95.5,351.3203,99.5,341.3203,95.5,345.3203" style="stroke:#FFFFFF;stroke-width:1.0;"/><text fill="#BBBBBB" font-family="Verdana" font-size="11" lengthAdjust="spacing" textLength="82" x="99.5" y="329.8203">this is the end</text></g></svg>