<?xml version="1.0" encoding="UTF-8" standalone="no"?><svg xmlns="http://www.w3.org/2000/svg" xmlns:xlink="http://www.w3.org/1999/xlink" contentStyleType="text/css" height="447.9167px" preserveAspectRatio="none" style="width:352px;height:447px;" version="1.1" viewBox="0 0 352 447" width="352.0833px" zoomAndPan="magnify"><defs><linearGradient id="g1nd6nmen8zrr50" x1="50%" x2="50%" y1="0%" y2="100%"><stop offset="0%" stop-color="#F18E3E"/><stop offset="100%" stop-color="#EC7211"/></linearGradient></defs><g><ellipse cx="115.8854" cy="20.8333" fill="#0073BB" rx="10.4167" ry="10.4167" style="stroke:#222222;stroke-width:1.0416666666666667;"/><rect fill="url(#g1nd6nmen8zrr50)" height="45.8008" rx="4.1667" ry="4.1667" style="stroke:#EC7211;stroke-width:0.5208333333333334;" width="51.0417" x="90.3646" y="52.0833"/><text fill="#FFFFFF" font-family="Verdana" font-size="12.5" lengthAdjust="spacing" textLength="19.7917" x="105.9896" y="79.3111">init</text><polygon fill="#EEEEEE" points="91.4063,143.6849,140.3646,143.6849,152.8646,156.1849,140.3646,168.6849,91.4063,168.6849,78.9063,156.1849,91.4063,143.6849" style="stroke:#BEBEBE;stroke-width:0.5208333333333334;"/><text fill="#4E5D6C" font-family="Verdana" font-size="12.5" lengthAdjust="spacing" textLength="38.5417" x="96.6146" y="160.5123">color?</text><text fill="#FF0000" font-family="Verdana" font-size="12.5" lengthAdjust="spacing" textLength="21.875" x="51.8229" y="148.0286">red</text><rect fill="url(#g1nd6nmen8zrr50)" height="45.8008" rx="4.1667" ry="4.1667" style="stroke:#EC7211;stroke-width:0.5208333333333334;" width="87.5" x="11.4583" y="179.1016"/><text fill="#FFFFFF" font-family="Verdana" font-size="12.5" lengthAdjust="spacing" textLength="56.25" x="27.0833" y="206.3293">print red</text><path d="M254.1667,184.3099 L254.1667,197.8353 L233.3333,202.002 L254.1667,206.1686 L254.1667,219.694 A0,0 0 0 0 254.1667,219.694 L339.5833,219.694 A0,0 0 0 0 339.5833,219.694 L339.5833,194.7266 L329.1667,184.3099 L254.1667,184.3099 A0,0 0 0 0 254.1667,184.3099 " fill="#0073BB" style="stroke:#005C96;stroke-width:1.0416666666666667;"/><path d="M329.1667,184.3099 L329.1667,194.7266 L339.5833,194.7266 L329.1667,184.3099 " fill="#0073BB" style="stroke:#005C96;stroke-width:1.0416666666666667;"/><text fill="#FFFFFF" font-family="Verdana" font-size="12.5" lengthAdjust="spacing" textLength="53.125" x="265.625" y="206.3293">no color</text><rect fill="url(#g1nd6nmen8zrr50)" height="45.8008" rx="4.1667" ry="4.1667" style="stroke:#EC7211;stroke-width:0.5208333333333334;" width="113.5417" x="119.7917" y="179.1016"/><text fill="#FFFFFF" font-family="Verdana" font-size="12.5" lengthAdjust="spacing" textLength="82.2917" x="135.4167" y="206.3293">print not red</text><polygon fill="#EEEEEE" points="115.8854,231.1523,128.3854,243.6523,115.8854,256.1523,103.3854,243.6523,115.8854,231.1523" style="stroke:#BEBEBE;stroke-width:0.5208333333333334;"/><rect fill="none" height="104.1016" rx="4.1667" ry="4.1667" style="stroke:#EC7211;stroke-width:1.5625;" width="77.0833" x="77.3438" y="266.569"/><path d="M123.1771,266.569 L123.1771,284.2448 L112.7604,294.6615 L77.3438,294.6615 " fill="none" style="stroke:#EC7211;stroke-width:1.5625;"/><text fill="#EC7211" font-family="Verdana" font-size="12.5" lengthAdjust="spacing" textLength="25" x="85.6771" y="284.4218">End</text><rect fill="url(#g1nd6nmen8zrr50)" height="45.8008" rx="4.1667" ry="4.1667" style="stroke:#EC7211;stroke-width:0.5208333333333334;" width="56.25" x="87.7604" y="312.3698"/><text fill="#FFFFFF" font-family="Verdana" font-size="12.5" lengthAdjust="spacing" textLength="25" x="103.3854" y="339.5976">end</text><ellipse cx="115.8854" cy="426.888" fill="none" rx="10.4167" ry="10.4167" style="stroke:#0073BB;stroke-width:1.5625;"/><line style="stroke:#0073BB;stroke-width:2.604166666666667;" x1="109.4404" x2="122.3304" y1="420.443" y2="433.333"/><line style="stroke:#0073BB;stroke-width:2.604166666666667;" x1="122.3304" x2="109.4404" y1="420.443" y2="433.333"/><line style="stroke:#EC7211;stroke-width:3.125;" x1="115.8854" x2="115.8854" y1="31.25" y2="52.0833"/><polygon fill="#EC7211" points="111.7188,41.6667,115.8854,52.0833,120.0521,41.6667,115.8854,45.8333" style="stroke:#EC7211;stroke-width:1.0416666666666667;"/><line style="stroke:#EC7211;stroke-width:3.125;" x1="78.9063" x2="55.2083" y1="156.1849" y2="156.1849"/><line style="stroke:#EC7211;stroke-width:3.125;" x1="55.2083" x2="55.2083" y1="156.1849" y2="179.1016"/><polygon fill="#EC7211" points="51.0417,168.6849,55.2083,179.1016,59.375,168.6849,55.2083,172.8516" style="stroke:#EC7211;stroke-width:1.0416666666666667;"/><line style="stroke:#EC7211;stroke-width:3.125;" x1="152.8646" x2="176.5625" y1="156.1849" y2="156.1849"/><line style="stroke:#EC7211;stroke-width:3.125;" x1="176.5625" x2="176.5625" y1="156.1849" y2="179.1016"/><polygon fill="#EC7211" points="172.3958,168.6849,176.5625,179.1016,180.7292,168.6849,176.5625,172.8516" style="stroke:#EC7211;stroke-width:1.0416666666666667;"/><line style="stroke:#EC7211;stroke-width:3.125;" x1="55.2083" x2="55.2083" y1="224.9023" y2="243.6523"/><line style="stroke:#EC7211;stroke-width:3.125;" x1="55.2083" x2="103.3854" y1="243.6523" y2="243.6523"/><polygon fill="#EC7211" points="92.9688,239.4857,103.3854,243.6523,92.9688,247.819,97.1354,243.6523" style="stroke:#EC7211;stroke-width:1.0416666666666667;"/><line style="stroke:#EC7211;stroke-width:3.125;" x1="176.5625" x2="176.5625" y1="224.9023" y2="243.6523"/><line style="stroke:#EC7211;stroke-width:3.125;" x1="176.5625" x2="128.3854" y1="243.6523" y2="243.6523"/><polygon fill="#EC7211" points="138.8021,239.4857,128.3854,243.6523,138.8021,247.819,134.6354,243.6523" style="stroke:#EC7211;stroke-width:1.0416666666666667;"/><line style="stroke:#EC7211;stroke-width:3.125;" x1="115.8854" x2="115.8854" y1="97.8841" y2="143.6849"/><polygon fill="#EC7211" points="111.7188,133.2682,115.8854,143.6849,120.0521,133.2682,115.8854,137.4349" style="stroke:#EC7211;stroke-width:1.0416666666666667;"/><text fill="#4E5D6C" font-family="Verdana" font-size="12.5" lengthAdjust="spacing" textLength="79.1667" x="125.2604" y="121.2891">test of color</text><line style="stroke:#EC7211;stroke-width:3.125;" x1="115.8854" x2="115.8854" y1="256.1523" y2="312.3698"/><polygon fill="#EC7211" points="111.7188,301.9531,115.8854,312.3698,120.0521,301.9531,115.8854,306.1198" style="stroke:#EC7211;stroke-width:1.0416666666666667;"/><line style="stroke:#EC7211;stroke-width:3.125;" x1="115.8854" x2="115.8854" y1="358.1706" y2="416.4714"/><polygon fill="#EC7211" points="111.7188,406.0547,115.8854,416.4714,120.0521,406.0547,115.8854,410.2214" style="stroke:#EC7211;stroke-width:1.0416666666666667;"/><text fill="#4E5D6C" font-family="Verdana" font-size="12.5" lengthAdjust="spacing" textLength="93.75" x="125.2604" y="394.0755">this is the end</text></g></svg>