<?xml version="1.0" encoding="UTF-8" standalone="no"?><svg xmlns="http://www.w3.org/2000/svg" xmlns:xlink="http://www.w3.org/1999/xlink" contentScriptType="application/ecmascript" contentStyleType="text/css" height="453.125px" preserveAspectRatio="none" style="width:354px;height:453px;background:#00000000;" version="1.1" viewBox="0 0 354 453" width="354.1667px" zoomAndPan="magnify"><defs><linearGradient id="gvh7gtxhm614s0" x1="50%" x2="50%" y1="0%" y2="100%"><stop offset="0%" stop-color="#33B2E2"/><stop offset="100%" stop-color="#009FDB"/></linearGradient><linearGradient id="gvh7gtxhm614s1" x1="50%" x2="50%" y1="0%" y2="100%"><stop offset="0%" stop-color="#F5F5F5"/><stop offset="100%" stop-color="#C2C2C2"/></linearGradient><linearGradient id="gvh7gtxhm614s2" x1="50%" x2="50%" y1="0%" y2="100%"><stop offset="0%" stop-color="#3786BE"/><stop offset="100%" stop-color="#0568AE"/></linearGradient></defs><g><ellipse cx="113.8021" cy="20.8333" fill="#0568AE" rx="10.4167" ry="10.4167" style="stroke:none;stroke-width:1.0416666666666667;"/><rect fill="url(#gvh7gtxhm614s0)" height="43.7174" rx="10.4167" ry="10.4167" style="stroke:#009FDB;stroke-width:1.0416666666666667;" width="48.9583" x="89.3229" y="52.0833"/><text fill="#FFFFFF" font-family="&quot;Verdana&quot;" font-size="12.5" lengthAdjust="spacing" textLength="19.7917" x="103.9063" y="78.2694">init</text><polygon fill="url(#gvh7gtxhm614s1)" points="87.7604,140.389,139.8438,140.389,152.3438,155.3914,139.8438,170.3939,87.7604,170.3939,75.2604,155.3914,87.7604,140.389" style="stroke:#C2C2C2;stroke-width:1.5625;"/><text fill="#5A5A5A" font-family="&quot;Verdana&quot;" font-size="11.4583" lengthAdjust="spacing" textLength="35.4167" x="96.0938" y="159.3582">color?</text><text fill="#FF0000" font-family="&quot;Verdana&quot;" font-size="11.4583" lengthAdjust="spacing" textLength="19.7917" x="47.1354" y="144.3558">red</text><rect fill="url(#gvh7gtxhm614s0)" height="43.7174" rx="10.4167" ry="10.4167" style="stroke:#009FDB;stroke-width:1.0416666666666667;" width="85.4167" x="11.4583" y="180.8105"/><text fill="#FFFFFF" font-family="&quot;Verdana&quot;" font-size="12.5" lengthAdjust="spacing" textLength="56.25" x="26.0417" y="206.9967">print red</text><path d="M250,181.2459 L250,198.5026 L229.1667,202.6693 L250,206.8359 L250,224.0926 A0,0 0 0 0 250,224.0926 L341.6667,224.0926 A0,0 0 0 0 341.6667,224.0926 L341.6667,191.6626 L331.25,181.2459 L250,181.2459 A0,0 0 0 0 250,181.2459 " fill="url(#gvh7gtxhm614s2)" style="stroke:#007FAF;stroke-width:1.0416666666666667;"/><path d="M331.25,181.2459 L331.25,191.6626 L341.6667,191.6626 L331.25,181.2459 " fill="url(#gvh7gtxhm614s2)" style="stroke:#007FAF;stroke-width:1.0416666666666667;"/><text fill="#FFFFFF" font-family="&quot;Verdana&quot;" font-size="13.5417" lengthAdjust="spacing" textLength="53.125" x="264.5833" y="207.3573">no color</text><rect fill="url(#gvh7gtxhm614s0)" height="43.7174" rx="10.4167" ry="10.4167" style="stroke:#009FDB;stroke-width:1.0416666666666667;" width="111.4583" x="117.7083" y="180.8105"/><text fill="#FFFFFF" font-family="&quot;Verdana&quot;" font-size="12.5" lengthAdjust="spacing" textLength="82.2917" x="132.2917" y="206.9967">print not red</text><polygon fill="url(#gvh7gtxhm614s1)" points="113.8021,230.778,126.3021,243.278,113.8021,255.778,101.3021,243.278,113.8021,230.778" style="stroke:#C2C2C2;stroke-width:1.5625;"/><rect height="110.6934" rx="10.4167" ry="10.4167" style="stroke:#009FDB;stroke-width:2.0833333333333335;fill:none;" width="75" x="76.3021" y="266.1947"/><path d="M131.5104,266.1947 L131.5104,292.5456 L121.0938,302.9622 L76.3021,302.9622 " fill="none" style="stroke:#009FDB;stroke-width:2.0833333333333335;"/><text fill="#009FDB" font-family="&quot;Verdana&quot;" font-size="14.5833" lengthAdjust="spacing" textLength="28.125" x="87.7604" y="289.1062">End</text><rect fill="url(#gvh7gtxhm614s0)" height="43.7174" rx="10.4167" ry="10.4167" style="stroke:#009FDB;stroke-width:1.0416666666666667;" width="54.1667" x="86.7188" y="320.6706"/><text fill="#FFFFFF" font-family="&quot;Verdana&quot;" font-size="12.5" lengthAdjust="spacing" textLength="25" x="101.3021" y="346.8567">end</text><ellipse cx="113.8021" cy="431.8929" rx="10.4167" ry="10.4167" style="stroke:#0568AE;stroke-width:1.5625;fill:none;"/><line style="stroke:#0568AE;stroke-width:2.604166666666667;fill:none;" x1="107.3571" x2="120.2471" y1="425.4479" y2="438.3379"/><line style="stroke:#0568AE;stroke-width:2.604166666666667;fill:none;" x1="120.2471" x2="107.3571" y1="425.4479" y2="438.3379"/><line style="stroke:#009FDB;stroke-width:1.5625;fill:none;" x1="113.8021" x2="113.8021" y1="31.25" y2="52.0833"/><polygon fill="#009FDB" points="109.6354,41.6667,113.8021,52.0833,117.9688,41.6667,113.8021,45.8333" style="stroke:#009FDB;stroke-width:1.0416666666666667;"/><line style="stroke:#009FDB;stroke-width:1.5625;" x1="75.2604" x2="54.1667" y1="155.3914" y2="155.3914"/><line style="stroke:#009FDB;stroke-width:1.5625;" x1="54.1667" x2="54.1667" y1="155.3914" y2="180.8105"/><polygon fill="#009FDB" points="50,170.3939,54.1667,180.8105,58.3333,170.3939,54.1667,174.5605" style="stroke:#009FDB;stroke-width:1.0416666666666667;"/><line style="stroke:#009FDB;stroke-width:1.5625;" x1="152.3438" x2="173.4375" y1="155.3914" y2="155.3914"/><line style="stroke:#009FDB;stroke-width:1.5625;" x1="173.4375" x2="173.4375" y1="155.3914" y2="180.8105"/><polygon fill="#009FDB" points="169.2708,170.3939,173.4375,180.8105,177.6042,170.3939,173.4375,174.5605" style="stroke:#009FDB;stroke-width:1.0416666666666667;"/><line style="stroke:#009FDB;stroke-width:1.5625;" x1="54.1667" x2="54.1667" y1="224.528" y2="243.278"/><line style="stroke:#009FDB;stroke-width:1.5625;" x1="54.1667" x2="101.3021" y1="243.278" y2="243.278"/><polygon fill="#009FDB" points="90.8854,239.1113,101.3021,243.278,90.8854,247.4447,95.0521,243.278" style="stroke:#009FDB;stroke-width:1.0416666666666667;"/><line style="stroke:#009FDB;stroke-width:1.5625;" x1="173.4375" x2="173.4375" y1="224.528" y2="243.278"/><line style="stroke:#009FDB;stroke-width:1.5625;" x1="173.4375" x2="126.3021" y1="243.278" y2="243.278"/><polygon fill="#009FDB" points="136.7188,239.1113,126.3021,243.278,136.7188,247.4447,132.5521,243.278" style="stroke:#009FDB;stroke-width:1.0416666666666667;"/><line style="stroke:#009FDB;stroke-width:1.5625;" x1="113.8021" x2="113.8021" y1="95.8008" y2="140.389"/><polygon fill="#009FDB" points="109.6354,129.9723,113.8021,140.389,117.9688,129.9723,113.8021,134.139" style="stroke:#009FDB;stroke-width:1.0416666666666667;"/><text fill="#5A5A5A" font-family="&quot;Verdana&quot;" font-size="11.4583" lengthAdjust="spacing" textLength="71.875" x="126.3021" y="117.9932">test of color</text><line style="stroke:#009FDB;stroke-width:1.5625;" x1="113.8021" x2="113.8021" y1="255.778" y2="320.6706"/><polygon fill="#009FDB" points="109.6354,310.2539,113.8021,320.6706,117.9688,310.2539,113.8021,314.4206" style="stroke:#009FDB;stroke-width:1.0416666666666667;"/><line style="stroke:#009FDB;stroke-width:1.5625;" x1="113.8021" x2="113.8021" y1="364.388" y2="421.4762"/><polygon fill="#009FDB" points="109.6354,411.0596,113.8021,421.4762,117.9688,411.0596,113.8021,415.2262" style="stroke:#009FDB;stroke-width:1.0416666666666667;"/><text fill="#5A5A5A" font-family="&quot;Verdana&quot;" font-size="11.4583" lengthAdjust="spacing" textLength="85.4167" x="126.3021" y="399.0804">this is the end</text></g></svg>