<?xml version="1.0" encoding="UTF-8" standalone="no"?><svg xmlns="http://www.w3.org/2000/svg" xmlns:xlink="http://www.w3.org/1999/xlink" contentScriptType="application/ecmascript" contentStyleType="text/css" height="498.9583px" preserveAspectRatio="none" style="width:352px;height:498px;background:#00000000;" version="1.1" viewBox="0 0 352 498" width="352.0833px" zoomAndPan="magnify"><defs/><g><polygon points="47.9167,12.5,47.9167,12.7189,58.4635,12.0684,69.0104,12.7013,79.5573,12.9163,90.1042,11.7569,100.651,12.419,111.1979,12.0557,121.7448,12.1005,132.2917,12.429,142.8385,11.7798,153.3854,13.0767,163.9323,11.8435,174.4792,12.294,185.026,12.9499,195.5729,12.4106,206.1198,12.5711,216.6667,12.4667,227.2135,12.686,237.7604,12.7491,248.3073,13.1101,258.8542,13.199,269.401,13.2076,279.9479,12.7652,290.4948,12.9829,301.0417,12.5,301.135,12.7253,301.5351,12.5127,302.3103,13.2058,302.77,13.1371,303.4696,13.6476,303.9879,13.7204,303.8291,13.6546,304.21,14.3005,304.714,14.9974,304.7045,15.4817,304.998,16.0914,305.2083,16.6667,305.3259,16.6667,305.3529,24.0169,305.207,31.3672,305.3081,38.7174,305.0096,46.0677,305.2083,53.418,305.2996,53.4558,305.1401,54.0801,304.8628,54.6555,304.6728,55.2672,304.0771,55.7108,303.9879,56.3642,303.9013,56.155,303.3161,56.409,302.8016,56.8335,302.1941,57.0334,301.7215,57.5591,301.0417,57.5846,301.0417,57.4027,290.4948,57.2273,279.9479,57.8224,269.401,56.89,258.8542,57.0439,248.3073,58.2606,237.7604,58.0385,227.2135,58.3497,216.6667,57.2494,206.1198,57.9171,195.5729,58.1997,185.026,57.0925,174.4792,57.4848,163.9323,57.7159,153.3854,58.2636,142.8385,57.5803,132.2917,58.0665,121.7448,57.0078,111.1979,56.8792,100.651,58.1092,90.1042,56.8378,79.5573,58.1148,69.0104,57.7999,58.4635,57.3056,47.9167,57.5846,47.8697,57.4711,47.3884,57.4877,46.6984,57.0005,46.2275,57.0423,45.4862,56.431,44.9704,56.3642,45.1685,56.4463,44.8817,55.8393,44.5608,55.2183,44.2533,54.6028,44.2272,54.1038,43.75,53.418,43.963,53.418,43.8088,46.0677,43.8431,38.7174,43.7048,31.3672,43.9988,24.0169,43.75,16.6667,43.7997,16.6872,44.0494,16.1003,44.043,15.4073,44.3522,14.8451,44.8966,14.3802,44.9704,13.7204,45.0275,13.8583,45.5539,13.4625,46.1061,13.1289,46.7091,12.9179,47.2362,12.524,47.9167,12.5" style="stroke:#4D4D4D;stroke-width:1.0416666666666667;fill:none;"/><text fill="#2E2E2E" font-family="Segoe Print" font-size="20.8333" lengthAdjust="spacing" textLength="234.375" x="57.2917" y="42.2546">sketchy-outline theme</text><polygon fill="#17A2B8" points="126.3596,73.66,124.8327,75.7464,123.0267,78.8022,120.4438,80.8615,117.7295,81.9877,115.5653,82.0854,112.7838,80.677,110.1592,79.7569,108.1672,77.8888,107.1222,75.7501,106.5025,74.0473,105.8954,71.823,104.91,69.9089,105.6673,68.0401,106.3307,65.993,108.8204,64.3739,110.5719,62.2732,112.74,61.5756,115.3173,60.9748,118.6225,61.3318,120.4328,62.1855,122.5376,62.5725,125.0968,65.1945,125.9889,67.9624,126.3765,69.8511,125.9375,72.9633" style="stroke:none;stroke-width:1.0416666666666667;"/><polygon points="103.3854,102.3763,103.3854,102.4493,108.3854,102.2324,113.3854,102.4434,118.3854,102.5151,123.3854,102.1286,128.3854,102.3763,128.3751,102.3514,130.1702,103.0022,132.0173,103.7788,133.9006,104.6427,135.6592,105.2055,137.5925,106.19,137.7701,106.2636,138.1531,107.9477,139.0546,109.8466,140.0193,111.7717,140.616,113.5443,141.4063,115.3971,141.4299,115.3971,141.3952,119.349,141.4682,123.3008,141.4893,127.2526,141.6096,131.2044,141.4063,135.1563,141.6215,135.2454,140.8614,137.0879,139.9624,138.8729,139.2667,140.7421,138.5805,142.6153,137.5925,144.3634,137.4967,144.132,135.8413,145.3438,133.8703,145.7937,132.1392,146.8228,130.1611,147.2555,128.3854,148.1771,128.3854,148.1533,123.3854,148.4346,118.3854,148.1602,113.3854,148.2136,108.3854,148.2947,103.3854,148.1771,103.4407,148.3106,101.5435,147.4131,99.7407,146.7437,97.7851,145.7052,96.0575,145.2173,94.1783,144.3634,94.3542,144.4362,93.5582,142.581,92.8495,140.762,91.7351,138.7749,90.9181,136.911,90.3646,135.1563,90.1488,135.1563,90.3441,131.2044,90.2963,127.2526,90.6012,123.3008,90.3039,119.349,90.3646,115.3971,90.2545,115.3516,91.2006,113.586,91.6762,111.6257,92.4863,109.8039,93.6237,108.1177,94.1783,106.19,94.2362,106.3298,96.1173,105.6629,97.8184,104.5613,99.745,104.0042,101.6224,103.3284,103.3854,102.3763" style="stroke:#333333;stroke-width:1.5625;fill:none;"/><text fill="#2E2E2E" font-family="Segoe Print" font-size="12.5" lengthAdjust="spacing" textLength="19.7917" x="105.9896" y="129.6041">init</text><polygon points="91.4063,193.9779,91.4063,194.1968,101.1979,193.5463,110.9896,194.1792,120.7813,194.3942,130.5729,193.2347,140.3646,193.9779,140.3455,193.9588,142.7599,196.3732,145.2704,198.8837,147.8478,201.4611,150.1948,203.8081,152.8646,206.4779,153.0005,206.6138,150.2098,208.8231,147.816,211.4293,145.4706,214.0839,142.8435,216.4568,140.3646,218.9779,140.3646,219.0489,130.5729,218.9446,120.7813,219.1638,110.9896,219.227,101.1979,219.588,91.4063,218.9779,91.571,219.1426,89.073,216.6446,86.4688,214.0404,84.0201,211.5917,81.5787,209.1503,78.9063,206.4779,78.7292,206.3008,81.5728,204.1445,83.8335,201.4051,86.5373,199.1089,88.7847,196.3563,91.4063,193.9779" style="stroke:#4D4D4D;stroke-width:1.5625;fill:none;"/><text fill="#2E2E2E" font-family="Segoe Print" font-size="12.5" lengthAdjust="spacing" textLength="38.5417" x="96.6146" y="210.8053">color?</text><text fill="#FF0000" font-family="Segoe Print" font-size="12.5" lengthAdjust="spacing" textLength="21.875" x="51.8229" y="198.3215">red</text><polygon points="24.4792,229.3945,24.4792,229.6135,34.7222,228.9629,44.9653,229.5959,55.2083,229.8109,65.4514,228.6514,75.6944,229.3136,85.9375,229.3945,85.8808,229.2577,87.728,230.0343,89.6113,230.8982,91.3699,231.461,93.3768,232.6231,95.1446,233.2082,94.9424,233.1245,95.8439,235.0234,96.8087,236.9485,97.4053,238.7211,98.2175,240.583,98.9583,242.4154,98.9472,242.4154,99.0203,246.3672,99.0414,250.319,99.1617,254.2708,99.1913,258.2227,98.9583,262.1745,99.1762,262.2647,98.2773,264.0497,97.5816,265.9189,96.8954,267.7921,95.676,269.4443,95.1446,271.3816,95.2348,271.5993,93.2638,272.0492,91.5327,273.0783,89.5546,273.511,87.7698,274.4106,85.9375,275.1953,85.9375,275.9678,75.6944,275.1445,65.4514,275.305,55.2083,275.548,44.9653,275.6289,34.7222,275.1912,24.4792,275.1953,24.5173,275.2874,22.5617,274.2489,20.8341,273.7611,19.0277,273.0829,17.1725,272.2869,15.272,271.3816,15.4687,271.4631,14.3543,269.476,13.5373,267.6121,12.7845,265.7748,12.2022,264.0081,11.4583,262.1745,11.3901,262.1745,11.6949,258.2227,11.3977,254.2708,11.3392,250.319,11.5376,246.3672,11.4583,242.4154,11.2444,242.3268,12.0545,240.505,13.192,238.8187,13.8863,236.949,14.7449,235.1473,15.272,233.2082,15.2293,233.105,17.1559,232.5479,19.0333,231.8722,20.7335,230.7685,22.625,230.1265,24.4792,229.3945" style="stroke:#333333;stroke-width:1.5625;fill:none;"/><text fill="#2E2E2E" font-family="Segoe Print" font-size="12.5" lengthAdjust="spacing" textLength="56.25" x="27.0833" y="256.6223">print red</text><path d="M254.1667,234.6029 L254.1667,248.1283 L233.3333,252.2949 L254.1667,256.4616 L254.1667,269.987 A0,0 0 0 0 254.1667,269.987 L339.5833,269.987 A0,0 0 0 0 339.5833,269.987 L339.5833,245.0195 L329.1667,234.6029 L254.1667,234.6029 A0,0 0 0 0 254.1667,234.6029 " fill="#17A2B8" style="stroke:#1592A6;stroke-width:1.0416666666666667;"/><path d="M329.1667,234.6029 L329.3613,234.6029 L328.783,236.6862 L329.3456,238.7695 L329.5367,240.8529 L328.5061,242.9362 L329.1667,245.0195 L329.1667,244.9476 L331.25,244.6246 L333.3333,244.6644 L335.4167,244.9564 L337.5,244.3794 L339.5833,245.0195 L339.9458,245.382 L337.0873,242.5235 L335.2872,240.7234 L333.6161,239.0523 L331.1938,236.63 L329.1667,234.6029 " fill="#17A2B8" style="stroke:#1592A6;stroke-width:1.0416666666666667;"/><text fill="#FFFFFF" font-family="Segoe Print" font-size="12.5" lengthAdjust="spacing" textLength="53.125" x="265.625" y="256.6223">no color</text><polygon points="132.8125,229.3945,132.8125,229.6135,143.75,228.9629,154.6875,229.5959,165.625,229.8109,176.5625,228.6514,187.5,229.3136,198.4375,228.9503,209.375,228.9951,220.3125,229.3945,220.3034,229.3727,222.0621,229.9355,224.0689,231.0976,225.753,231.4806,227.6519,232.3821,229.5196,233.2082,229.6582,233.2656,230.2548,235.0383,231.067,236.9002,231.7976,238.7283,232.6279,240.5977,233.3333,242.4154,233.4164,242.4154,233.5367,246.3672,233.5663,250.319,233.5692,254.2708,233.4217,258.2227,233.3333,262.1745,233.482,262.2361,232.7959,264.1092,231.5765,265.7615,231.2628,267.7889,230.1872,269.5008,229.5196,271.3816,229.5906,271.5528,227.6124,271.9855,225.8277,272.8851,224.0939,273.9077,222.1474,274.4169,220.3125,275.1953,220.3125,275.305,209.375,275.548,198.4375,275.6289,187.5,275.1912,176.5625,275.4945,165.625,274.599,154.6875,275.4915,143.75,275.7663,132.8125,275.1953,132.8716,275.3379,131.0525,274.6292,129.0655,273.5149,127.2016,272.6979,125.3642,271.945,123.6054,271.3816,123.5865,271.3738,122.7796,269.5141,122.2985,267.7893,121.2611,265.8341,120.4444,263.9703,119.7917,262.1745,119.8709,262.1745,119.5601,258.2227,119.6114,254.2708,120.017,250.319,119.9429,246.3672,119.7917,242.4154,120.0273,242.513,120.4512,240.5312,121.4195,238.7749,122.2693,236.9695,122.6911,234.9869,123.6054,233.2082,123.5926,233.1775,125.4635,232.4859,127.3748,231.8918,129.1291,230.9187,131.0325,230.3057,132.8125,229.3945" style="stroke:#333333;stroke-width:1.5625;fill:none;"/><text fill="#2E2E2E" font-family="Segoe Print" font-size="12.5" lengthAdjust="spacing" textLength="82.2917" x="135.4167" y="256.6223">print not red</text><polygon points="115.8854,281.4453,115.937,281.4969,118.2837,283.8436,120.9329,286.4928,123.4835,289.0434,125.7103,291.2702,128.3854,293.9453,128.3663,293.9262,125.7807,296.3406,123.2913,298.8512,120.8687,301.4286,118.2157,303.7756,115.8854,306.4453,116.0213,306.5812,113.2307,303.7906,110.8369,301.3968,108.4915,299.0514,105.8644,296.4243,103.3854,293.9453,103.4022,293.9621,105.8776,291.4375,108.4292,288.9891,110.9441,286.504,113.5292,284.0891,115.8854,281.4453" style="stroke:#4D4D4D;stroke-width:1.5625;fill:none;"/><polygon points="81.5104,316.862,81.5104,317.0809,91.3318,316.4304,101.1533,317.0633,110.9747,317.2783,120.7961,316.1189,130.6176,316.781,140.439,316.4177,150.2604,316.862,150.2095,316.739,150.8406,317.0842,151.3471,317.1283,152.1017,317.7718,152.5337,317.6361,153.2067,318.0824,153.1433,318.0561,153.5893,318.729,153.6673,319.2495,153.9608,319.8592,154.1728,320.4351,154.4271,321.0286,154.613,321.0286,154.6762,331.6696,155.0372,342.3105,155.1261,352.9514,155.1346,363.5923,154.6923,374.2332,154.91,384.8741,155.1586,395.515,153.6758,406.156,154.4271,416.7969,154.6447,416.887,154.0879,417.3467,154.1102,418.0463,153.5361,418.4989,153.4288,419.1448,153.2067,419.7432,153.3052,419.9811,152.611,419.9716,152.0422,420.2651,151.4839,420.584,150.905,420.853,150.2604,420.9635,150.2604,420.9595,140.439,421.2627,130.6176,420.3673,120.7961,421.2598,110.9747,421.5346,101.1533,421.4266,91.3318,421.6021,81.5104,420.9635,81.4462,420.8086,80.8345,420.5102,80.2493,420.276,79.7348,420.2124,79.1273,419.9242,78.5641,419.7432,78.7827,419.8337,78.264,419.1307,77.9659,418.5191,77.9051,418.0057,77.3739,417.2975,77.3438,416.7969,76.803,416.7969,78.0197,406.156,77.7976,395.515,78.1088,384.8741,77.0085,374.2332,77.6762,363.5923,77.9588,352.9514,76.8517,342.3105,77.2439,331.6696,77.3438,321.0286,77.3842,321.0454,77.7969,320.526,77.8306,319.8496,78.2244,319.3223,78.1424,318.598,78.5641,318.0824,78.4741,317.8651,79.2203,317.9998,79.6474,317.3642,80.3995,317.5134,80.9486,317.1723,81.5104,316.862" style="stroke:#333333;stroke-width:2.0833333333333335;fill:none;"/><path d="M123.1771,316.862 L123.3717,316.862 L122.7935,320.3971 L123.3561,323.9323 L123.5472,327.4674 L122.5165,331.0026 L123.1771,334.5378 L123.1262,334.4869 L120.8145,336.3419 L118.7593,338.4533 L116.8825,340.7431 L114.3911,342.4184 L112.7604,344.9544 L112.7604,345.4671 L105.6771,344.3708 L98.5938,344.7713 L91.5104,345.3544 L84.4271,344.875 L77.3438,344.9544 " fill="none" style="stroke:#333333;stroke-width:2.0833333333333335;"/><text fill="#333333" font-family="Segoe Print" font-size="12.5" lengthAdjust="spacing" textLength="25" x="85.6771" y="334.7148">End</text><polygon points="100.7813,362.6628,100.7813,362.7357,106.8229,362.5189,112.8646,362.7299,118.9063,362.8015,124.9479,362.4151,130.9896,362.6628,130.9793,362.6378,132.7743,363.2887,134.6215,364.0652,136.5048,364.9291,138.2634,365.4919,140.1967,366.4765,140.3743,366.55,140.7573,368.2341,141.6587,370.133,142.6235,372.0581,143.2202,373.8308,144.0104,375.6836,144.0341,375.6836,143.9993,379.6354,144.0724,383.5872,144.0934,387.5391,144.2138,391.4909,144.0104,395.4427,144.2257,395.5319,143.4656,397.3744,142.5666,399.1594,141.8709,401.0286,141.1847,402.9017,140.1967,404.6498,140.1009,404.4185,138.4454,405.6302,136.4745,406.0802,134.7434,407.1093,132.7652,407.542,130.9896,408.4635,130.9896,408.4398,124.9479,408.721,118.9063,408.4466,112.8646,408.5001,106.8229,408.5811,100.7813,408.4635,100.8366,408.5971,98.9393,407.6995,97.1366,407.0302,95.1809,405.9917,93.4533,405.5038,91.5741,404.6498,91.75,404.7227,90.954,402.8675,90.2453,401.0484,89.1309,399.0614,88.3139,397.1975,87.7604,395.4427,87.5447,395.4427,87.74,391.4909,87.6922,387.5391,87.997,383.5872,87.6998,379.6354,87.7604,375.6836,87.6504,375.638,88.5964,373.8725,89.072,371.9121,89.8821,370.0903,91.0196,368.4041,91.5741,366.4765,91.632,366.6162,93.5132,365.9493,95.2142,364.8478,97.1408,364.2906,99.0183,363.6149,100.7813,362.6628" style="stroke:#333333;stroke-width:1.5625;fill:none;"/><text fill="#2E2E2E" font-family="Segoe Print" font-size="12.5" lengthAdjust="spacing" textLength="25" x="103.3854" y="389.8905">end</text><polygon points="126.3596,479.7147,124.8327,481.8011,123.0267,484.8568,120.4438,486.9162,117.7295,488.0424,115.5653,488.1401,112.7838,486.7317,110.1592,485.8116,108.1672,483.9435,107.1222,481.8048,106.5025,480.102,105.8954,477.8777,104.91,475.9636,105.6673,474.0948,106.3307,472.0477,108.8204,470.4286,110.5719,468.3279,112.74,467.6303,115.3173,467.0295,118.6225,467.3864,120.4328,468.2402,122.5376,468.6272,125.0968,471.2492,125.9889,474.0171,126.3765,475.9058,125.9375,479.018" style="stroke:#17A2B8;stroke-width:1.5625;fill:none;"/><path d="M109.4404,470.736 L109.5092,470.8048 L111.8828,473.1784 L114.6597,475.9553 L117.3053,478.6008 L119.5189,480.8144 L122.3304,483.626 " fill="none" style="stroke:#17A2B8;stroke-width:2.604166666666667;"/><path d="M122.3304,470.736 L122.3992,470.8048 L119.6168,473.1784 L117.2377,475.9553 L114.7273,478.6008 L111.7849,480.8144 L109.4404,483.626 " fill="none" style="stroke:#17A2B8;stroke-width:2.604166666666667;"/><path d="M115.8854,81.543 L115.9827,81.543 L115.6936,85.7096 L115.9749,89.8763 L116.0705,94.043 L115.5551,98.2096 L115.8854,102.3763 " fill="#333333" style="stroke:#333333;stroke-width:1.5625;"/><polygon fill="#333333" points="111.7188,91.9596,111.7865,91.9867,112.4185,93.9895,113.4477,96.1512,114.3476,98.2612,114.8221,100.201,115.8854,102.3763,115.8604,102.3663,116.5813,100.238,117.4284,98.1602,118.3634,96.1175,118.9959,93.9538,120.0521,91.9596,120.188,92.0956,119.064,92.6382,118.3369,93.5777,117.6581,94.5657,116.6977,95.2719,115.8854,96.1263,115.9022,96.1431,115.0442,95.2851,114.2626,94.5035,113.4441,93.685,112.6959,92.9368,111.7188,91.9596" style="stroke:#333333;stroke-width:1.0416666666666667;"/><path d="M78.9063,206.4779 L78.9063,206.5752 L74.1667,206.286 L69.4271,206.5673 L64.6875,206.6629 L59.9479,206.1476 L55.2083,206.4779 " fill="#333333" style="stroke:#333333;stroke-width:1.5625;"/><path d="M55.2083,206.4779 L55.3056,206.4779 L55.0165,211.0612 L55.2978,215.6445 L55.3934,220.2279 L54.8781,224.8112 L55.2083,229.3945 " fill="#333333" style="stroke:#333333;stroke-width:1.5625;"/><polygon fill="#333333" points="51.0417,218.9779,51.1094,219.005,51.7414,221.0078,52.7706,223.1695,53.6705,225.2794,54.145,227.2192,55.2083,229.3945,55.1833,229.3845,55.9042,227.2562,56.7514,225.1784,57.6864,223.1357,58.3188,220.972,59.375,218.9779,59.5109,219.1138,58.3869,219.6564,57.6598,220.596,56.9811,221.5839,56.0206,222.2901,55.2083,223.1445,55.2251,223.1613,54.3672,222.3034,53.5855,221.5217,52.767,220.7032,52.0188,219.955,51.0417,218.9779" style="stroke:#333333;stroke-width:1.0416666666666667;"/><path d="M152.8646,206.4779 L152.8646,206.5752 L157.6042,206.286 L162.3438,206.5673 L167.0833,206.6629 L171.8229,206.1476 L176.5625,206.4779 " fill="#333333" style="stroke:#333333;stroke-width:1.5625;"/><path d="M176.5625,206.4779 L176.6598,206.4779 L176.3707,211.0612 L176.652,215.6445 L176.7475,220.2279 L176.2322,224.8112 L176.5625,229.3945 " fill="#333333" style="stroke:#333333;stroke-width:1.5625;"/><polygon fill="#333333" points="172.3958,218.9779,172.4636,219.005,173.0956,221.0078,174.1248,223.1695,175.0247,225.2794,175.4992,227.2192,176.5625,229.3945,176.5374,229.3845,177.2583,227.2562,178.1055,225.1784,179.0405,223.1357,179.6729,220.972,180.7292,218.9779,180.8651,219.1138,179.7411,219.6564,179.0139,220.596,178.3352,221.5839,177.3748,222.2901,176.5625,223.1445,176.5793,223.1613,175.7213,222.3034,174.9397,221.5217,174.1212,220.7032,173.373,219.955,172.3958,218.9779" style="stroke:#333333;stroke-width:1.0416666666666667;"/><path d="M55.2083,275.1953 L55.3056,275.1953 L55.0165,278.9453 L55.2978,282.6953 L55.3934,286.4453 L54.8781,290.1953 L55.2083,293.9453 " fill="#333333" style="stroke:#333333;stroke-width:1.5625;"/><path d="M55.2083,293.9453 L55.2083,294.2372 L64.8438,293.3699 L74.4792,294.2138 L84.1146,294.5004 L93.75,292.9545 L103.3854,293.9453 " fill="#333333" style="stroke:#333333;stroke-width:1.5625;"/><polygon fill="#333333" points="92.9688,289.7786,92.9959,289.8464,94.9987,290.4784,97.1603,291.5076,99.2703,292.4075,101.2101,292.882,103.3854,293.9453,103.3754,293.9203,101.2471,294.6411,99.1693,295.4883,97.1266,296.4233,94.9629,297.0558,92.9688,298.112,93.1047,298.2479,93.6473,297.1239,94.5869,296.3968,95.5748,295.718,96.281,294.7576,97.1354,293.9453,97.1522,293.9621,96.2942,293.1041,95.5126,292.3225,94.6941,291.504,93.9459,290.7558,92.9688,289.7786" style="stroke:#333333;stroke-width:1.0416666666666667;"/><path d="M176.5625,275.1953 L176.6598,275.1953 L176.3707,278.9453 L176.652,282.6953 L176.7475,286.4453 L176.2322,290.1953 L176.5625,293.9453 " fill="#333333" style="stroke:#333333;stroke-width:1.5625;"/><path d="M176.5625,293.9453 L176.5625,294.2372 L166.9271,293.3699 L157.2917,294.2138 L147.6563,294.5004 L138.0208,292.9545 L128.3854,293.9453 " fill="#333333" style="stroke:#333333;stroke-width:1.5625;"/><polygon fill="#333333" points="138.8021,289.7786,138.8292,289.8464,136.6653,290.4784,134.6603,291.5076,132.6036,292.4075,130.3768,292.882,128.3854,293.9453,128.3754,293.9203,130.4138,294.6411,132.5026,295.4883,134.6266,296.4233,136.6296,297.0558,138.8021,298.112,138.938,298.2479,137.814,297.1239,137.0869,296.3968,136.4081,295.718,135.4477,294.7576,134.6354,293.9453,134.6522,293.9621,135.4609,293.1041,136.3459,292.3225,137.1941,291.504,138.1126,290.7558,138.8021,289.7786" style="stroke:#333333;stroke-width:1.0416666666666667;"/><path d="M115.8854,148.1771 L115.9827,148.1771 L115.6936,157.3372 L115.9749,166.4974 L116.0705,175.6576 L115.5551,184.8177 L115.8854,193.9779 " fill="#333333" style="stroke:#333333;stroke-width:1.5625;"/><polygon fill="#333333" points="111.7188,183.5612,111.7865,183.5883,112.4185,185.5911,113.4477,187.7528,114.3476,189.8627,114.8221,191.8025,115.8854,193.9779,115.8604,193.9678,116.5813,191.8395,117.4284,189.7617,118.3634,187.7191,118.9959,185.5554,120.0521,183.5612,120.188,183.6971,119.064,184.2398,118.3369,185.1793,117.6581,186.1673,116.6977,186.8735,115.8854,187.7279,115.9022,187.7446,115.0442,186.8867,114.2626,186.105,113.4441,185.2866,112.6959,184.5383,111.7188,183.5612" style="stroke:#333333;stroke-width:1.0416666666666667;"/><text fill="#2E2E2E" font-family="Segoe Print" font-size="12.5" lengthAdjust="spacing" textLength="79.1667" x="125.2604" y="171.582">test of color</text><path d="M115.8854,306.4453 L116.1773,306.4453 L115.31,317.6888 L116.1539,328.9323 L116.4405,340.1758 L114.8946,351.4193 L115.8854,362.6628 " fill="#333333" style="stroke:#333333;stroke-width:1.5625;"/><polygon fill="#333333" points="111.7188,352.2461,111.7865,352.2732,112.4185,354.276,113.4477,356.4377,114.3476,358.5476,114.8221,360.4874,115.8854,362.6628,115.8604,362.6527,116.5813,360.5244,117.4284,358.4466,118.3634,356.404,118.9959,354.2403,120.0521,352.2461,120.188,352.382,119.064,352.9247,118.3369,353.8642,117.6581,354.8521,116.6977,355.5584,115.8854,356.4128,115.9022,356.4295,115.0442,355.5716,114.2626,354.7899,113.4441,353.9715,112.6959,353.2232,111.7188,352.2461" style="stroke:#333333;stroke-width:1.0416666666666667;"/><path d="M115.8854,408.4635 L116.1773,408.4635 L115.31,418.1803 L116.1539,427.8971 L116.4405,437.6139 L114.8946,447.3307 L115.7775,457.0475 L115.8854,466.7643 " fill="#333333" style="stroke:#333333;stroke-width:1.5625;"/><polygon fill="#333333" points="111.7188,456.3477,111.7865,456.3748,112.4185,458.3776,113.4477,460.5392,114.3476,462.6492,114.8221,464.589,115.8854,466.7643,115.8604,466.7543,116.5813,464.626,117.4284,462.5482,118.3634,460.5055,118.9959,458.3418,120.0521,456.3477,120.188,456.4836,119.064,457.0262,118.3369,457.9658,117.6581,458.9537,116.6977,459.6599,115.8854,460.5143,115.9022,460.5311,115.0442,459.6731,114.2626,458.8915,113.4441,458.073,112.6959,457.3248,111.7188,456.3477" style="stroke:#333333;stroke-width:1.0416666666666667;"/><text fill="#2E2E2E" font-family="Segoe Print" font-size="12.5" lengthAdjust="spacing" textLength="93.75" x="125.2604" y="444.3685">this is the end</text><!--MD5=[7aec3cdc8fe793629f56bc0d3ade5c81]
@startuml
!pragma layout smetana
!theme sketchy-outline
title sketchy-outline theme
start
:init;
-> test of color;
if (color?) is (<color:red>red) then
  :print red;
else 
  :print not red;
  note right: no color
endif
partition End {
  :end;
}
-> this is the end;
end
@enduml

@startuml
!pragma layout smetana



skinparam backgroundColor transparent
skinparam useBetaStyle false
skinparam handwritten true
skinparam shadowing false







skinparam defaultFontName       "Segoe Print"
skinparam defaultFontSize       12
skinparam dpi                   100
skinparam shadowing             false
skinparam roundcorner           8
skinparam ParticipantPadding    40
skinparam BoxPadding            40
skinparam Padding               5
skinparam ArrowColor            #555555
skinparam stereotype {
    CBackgroundColor transparent
    CBorderColor #4d4d4d
    ABackgroundColor transparent
    ABorderColor #24963e
    IBackgroundColor transparent
    IBorderColor #c6303e
    EBackgroundColor transparent
    EBorderColor #e6ae06
    NBackgroundColor transparent
    NBorderColor #1592a6
}
skinparam title {
	FontColor	                 #2e2e2e
	BorderColor	                 #4d4d4d
	FontSize	    	         20
	BorderRoundCorner            8
	BorderThickness 	         1
	BackgroundColor              transparent
}

skinparam legend {
	BackgroundColor transparent
	BorderColor #4d4d4d
	FontColor #2e2e2e
}

skinparam swimlane {
	BorderColor #17a2b8
	BorderThickness 2
	TitleBackgroundColor  transparent
	TitleFontColor #2e2e2e
}


skinparam activity {
		FontColor #2e2e2e
	BorderColor #333333
	BackgroundColor transparent
	BarColor #28a745
	StartColor #17a2b8
	EndColor #17a2b8
	DiamondBackgroundColor transparent
  	DiamondBorderColor #4d4d4d
  	DiamondFontColor #2e2e2e
}


skinparam participant {
		FontColor #2e2e2e
	BorderColor #333333
	BackgroundColor transparent
	ParticipantBorderThickness 2
}


skinparam actor {
		FontColor #2e2e2e
	BorderColor #333333
	BackgroundColor transparent
}


skinparam arrow {
	Thickness 3
	Color #333333
	FontColor #2e2e2e
}


skinparam sequence {
	BorderColor #333333
	TitleFontColor #2e2e2e
	BackgroundColor transparent
	StartColor #333333
	EndColor #333333
	BoxBackgroundColor transparent
	BoxBorderColor #555555
	BoxFontColor #555555
	DelayFontColor #555555
	LifeLineBorderColor #555555
	LifeLineBorderThickness 2
	LifeLineBackgroundColor #4d4d4d
	GroupBorderColor #555555
	GroupFontColor #555555
	GroupHeaderFontColor #17a2b8
	GroupBackgroundColor #555555
	GroupHeaderBackgroundColor transparent
	DividerBackgroundColor #555555
    DividerBorderColor #555555
    DividerBorderThickness 2
    DividerFontColor #ffffff
	ReferenceBackgroundColor transparent
	ReferenceBorderColor #555555
	ReferenceFontColor #555555
	ReferenceHeaderFontColor #17a2b8
	ReferenceHeaderBackgroundColor #555555
	StereotypeFontColor #2e2e2e
}


skinparam partition {
	BorderColor #333333
	FontColor #333333
	BackgroundColor transparent
}


skinparam collections {
		FontColor #2e2e2e
	BorderColor #333333
	BackgroundColor transparent
}


skinparam control {
		FontColor #2e2e2e
	BorderColor #333333
	BackgroundColor transparent
}


skinparam entity {
		FontColor #2e2e2e
	BorderColor #333333
	BackgroundColor transparent
}


skinparam boundary {
		FontColor #2e2e2e
	BorderColor #333333
	BackgroundColor transparent
}


skinparam agent {
	BackgroundColor #ffc107
	BorderColor #ffc720
	FontColor #555555
}


skinparam note {
	BorderThickness 1
	BackgroundColor #17a2b8
	BorderColor #1592a6
	FontColor #ffffff
}


skinparam artifact {
	BackgroundColor transparent
	BorderColor #4d4d4d
	FontColor #4d4d4d
}


skinparam component {
		FontColor #2e2e2e
	BorderColor #333333
	BackgroundColor transparent
}


skinparam interface {
	BackgroundColor  transparent
	BorderColor  #dc3545
	FontColor #555555
}


skinparam storage {
	BackgroundColor transparent
  	BorderColor #e6ae06
	FontColor #e6ae06
}


skinparam node {
	BackgroundColor  transparent
	BorderColor #ffffff
	FontColor #ffffff
}


skinparam cloud {
	BackgroundColor transparent
	BorderColor #F2FCFE
	FontColor #2e2e2e
}


skinparam database {
		FontColor #2e2e2e
	BorderColor #333333
	BackgroundColor transparent
}


skinparam class {
		FontColor #2e2e2e
	BorderColor #333333
	BackgroundColor transparent
	HeaderBackgroundColor transparent
	StereotypeFontColor #555555
	BorderThickness 1
	AttributeFontColor #555555
	AttributeFontSize 11
}


skinparam object {
		FontColor #2e2e2e
	BorderColor #333333
	BackgroundColor transparent
	StereotypeFontColor #2e2e2e
	BorderThickness 1
	AttributeFontColor #2e2e2e
	AttributeFontSize 11
}


skinparam usecase {
		FontColor #2e2e2e
	BorderColor #333333
	BackgroundColor transparent
	BorderThickness 2
	StereotypeFontColor #333333
}


skinparam rectangle {
		FontColor #2e2e2e
	BorderColor #333333
	BackgroundColor transparent
	BorderThickness 2
	StereotypeFontColor #333333
}


skinparam package {
	BackgroundColor transparent
  	BorderColor #333333
	FontColor #333333
	BorderThickness 2
}


skinparam folder {
	BackgroundColor transparent
  	BorderColor #ffc107
	FontColor #ffc107
	BorderThickness 2
}


skinparam frame {
	BackgroundColor transparent
  	BorderColor #17a2b8
	FontColor #17a2b8
	BorderThickness 2
}


skinparam state {
		FontColor #2e2e2e
	BorderColor #333333
	BackgroundColor transparent
	StartColor #17a2b8
	EndColor #17a2b8
	AttributeFontColor #ffffff
	AttributeFontSize 11
}


skinparam queue {
		FontColor #2e2e2e
	BorderColor #333333
	BackgroundColor transparent
}


skinparam card {
	BackgroundColor transparent
	BorderColor #1592a6
	FontColor #1592a6
}


skinparam file {
	BackgroundColor transparent
	BorderColor #ffffff
	FontColor #ffffff
}


title sketchy-outline theme
start
:init;
-> test of color;
if (color?) is (<color:red>red) then
  :print red;
else 
  :print not red;
  note right: no color
endif
partition End {
  :end;
}
-> this is the end;
end
@enduml

PlantUML version 1.2021.12(Tue Oct 05 16:01:58 UTC 2021)
(GPL source distribution)
Java Runtime: OpenJDK Runtime Environment
JVM: OpenJDK 64-Bit Server VM
Default Encoding: UTF-8
Language: en
Country: null
--></g></svg>