<?xml version="1.0" encoding="UTF-8" standalone="no"?><svg xmlns="http://www.w3.org/2000/svg" xmlns:xlink="http://www.w3.org/1999/xlink" contentScriptType="application/ecmascript" contentStyleType="text/css" height="506.25px" preserveAspectRatio="none" style="width:383px;height:506px;background:#00000000;" version="1.1" viewBox="0 0 383 506" width="383.3333px" zoomAndPan="magnify"><defs><filter height="300%" id="f6jvvie4lxess" width="300%" x="-1" y="-1"><feGaussianBlur result="blurOut" stdDeviation="2.0833333333333335"/><feColorMatrix in="blurOut" result="blurOut2" type="matrix" values="0 0 0 0 0 0 0 0 0 0 0 0 0 0 0 0 0 0 .4 0"/><feOffset dx="4.166666666666667" dy="4.166666666666667" in="blurOut2" result="blurOut3"/><feBlend in="SourceGraphic" in2="blurOut3" mode="normal"/></filter></defs><g><ellipse cx="126.3021" cy="20.8333" fill="#9C27B0" filter="url(#f6jvvie4lxess)" rx="10.4167" ry="10.4167" style="stroke:none;stroke-width:1.0416666666666667;"/><rect filter="url(#f6jvvie4lxess)" height="56.2174" rx="13.0208" ry="13.0208" style="stroke:#2196F3;stroke-width:1.5625;fill:none;" width="61.4583" x="95.5729" y="52.0833"/><text fill="#2196F3" font-family="Verdana" font-size="12.5" lengthAdjust="spacing" textLength="19.7917" x="116.4063" y="84.5194">init</text><polygon filter="url(#f6jvvie4lxess)" points="96.6146,154.1016,155.9896,154.1016,168.4896,171.7936,155.9896,189.4857,96.6146,189.4857,84.1146,171.7936,96.6146,154.1016" style="stroke:#CCCCCC;stroke-width:1.5625;fill:none;"/><text fill="#CCCCCC" font-family="Verdana" font-size="12.5" lengthAdjust="spacing" textLength="38.5417" x="107.0313" y="176.121">color?</text><text fill="#FF0000" font-family="Verdana" font-size="12.5" lengthAdjust="spacing" textLength="21.875" x="51.8229" y="158.429">red</text><rect filter="url(#f6jvvie4lxess)" height="56.2174" rx="13.0208" ry="13.0208" style="stroke:#2196F3;stroke-width:1.5625;fill:none;" width="97.9167" x="11.4583" y="199.9023"/><text fill="#2196F3" font-family="Verdana" font-size="12.5" lengthAdjust="spacing" textLength="56.25" x="32.2917" y="232.3385">print red</text><path d="M275,205.1107 L275,223.8444 L254.1667,228.0111 L275,232.1777 L275,250.9115 A0,0 0 0 0 275,250.9115 L370.8333,250.9115 A0,0 0 0 0 370.8333,250.9115 L370.8333,215.5273 L360.4167,205.1107 L275,205.1107 A0,0 0 0 0 275,205.1107 " filter="url(#f6jvvie4lxess)" style="stroke:#9C27B0;stroke-width:1.0416666666666667;fill:none;"/><path d="M360.4167,205.1107 L360.4167,215.5273 L370.8333,215.5273 L360.4167,205.1107 " style="stroke:#9C27B0;stroke-width:1.0416666666666667;fill:none;"/><text fill="#9C27B0" font-family="Verdana" font-size="12.5" lengthAdjust="spacing" textLength="53.125" x="291.6667" y="232.3385">no color</text><rect filter="url(#f6jvvie4lxess)" height="56.2174" rx="13.0208" ry="13.0208" style="stroke:#2196F3;stroke-width:1.5625;fill:none;" width="123.9583" x="130.2083" y="199.9023"/><text fill="#2196F3" font-family="Verdana" font-size="12.5" lengthAdjust="spacing" textLength="82.2917" x="151.0417" y="232.3385">print not red</text><polygon filter="url(#f6jvvie4lxess)" points="126.3021,262.3698,138.8021,274.8698,126.3021,287.3698,113.8021,274.8698,126.3021,262.3698" style="stroke:#CCCCCC;stroke-width:1.5625;fill:none;"/><rect filter="url(#f6jvvie4lxess)" height="124.9349" rx="4.1667" ry="4.1667" style="stroke:#2196F3;stroke-width:2.0833333333333335;fill:none;" width="87.5" x="82.5521" y="297.7865"/><path d="M138.8021,297.7865 L138.8021,325.8789 L128.3854,336.2956 L82.5521,336.2956 " fill="none" style="stroke:#2196F3;stroke-width:2.0833333333333335;"/><text fill="#2196F3" font-family="Verdana" font-size="12.5" lengthAdjust="spacing" textLength="25" x="96.0938" y="320.8476">End</text><rect filter="url(#f6jvvie4lxess)" height="56.2174" rx="13.0208" ry="13.0208" style="stroke:#2196F3;stroke-width:1.5625;fill:none;" width="66.6667" x="92.9688" y="354.0039"/><text fill="#2196F3" font-family="Verdana" font-size="12.5" lengthAdjust="spacing" textLength="25" x="113.8021" y="386.44">end</text><ellipse cx="126.3021" cy="478.9388" filter="url(#f6jvvie4lxess)" rx="10.4167" ry="10.4167" style="stroke:#9C27B0;stroke-width:1.5625;fill:none;"/><line style="stroke:#9C27B0;stroke-width:2.604166666666667;fill:none;" x1="119.8571" x2="132.7471" y1="472.4938" y2="485.3838"/><line style="stroke:#9C27B0;stroke-width:2.604166666666667;fill:none;" x1="132.7471" x2="119.8571" y1="472.4938" y2="485.3838"/><line style="stroke:#2196F3;stroke-width:1.5625;fill:none;" x1="126.3021" x2="126.3021" y1="31.25" y2="52.0833"/><polygon fill="#2196F3" points="122.1354,41.6667,126.3021,52.0833,130.4688,41.6667,126.3021,45.8333" style="stroke:#2196F3;stroke-width:1.0416666666666667;"/><line style="stroke:#2196F3;stroke-width:1.5625;" x1="84.1146" x2="60.4167" y1="171.7936" y2="171.7936"/><line style="stroke:#2196F3;stroke-width:1.5625;" x1="60.4167" x2="60.4167" y1="171.7936" y2="199.9023"/><polygon fill="#2196F3" points="56.25,189.4857,60.4167,199.9023,64.5833,189.4857,60.4167,193.6523" style="stroke:#2196F3;stroke-width:1.0416666666666667;"/><line style="stroke:#2196F3;stroke-width:1.5625;" x1="168.4896" x2="192.1875" y1="171.7936" y2="171.7936"/><line style="stroke:#2196F3;stroke-width:1.5625;" x1="192.1875" x2="192.1875" y1="171.7936" y2="199.9023"/><polygon fill="#2196F3" points="188.0208,189.4857,192.1875,199.9023,196.3542,189.4857,192.1875,193.6523" style="stroke:#2196F3;stroke-width:1.0416666666666667;"/><line style="stroke:#2196F3;stroke-width:1.5625;" x1="60.4167" x2="60.4167" y1="256.1198" y2="274.8698"/><line style="stroke:#2196F3;stroke-width:1.5625;" x1="60.4167" x2="113.8021" y1="274.8698" y2="274.8698"/><polygon fill="#2196F3" points="103.3854,270.7031,113.8021,274.8698,103.3854,279.0365,107.5521,274.8698" style="stroke:#2196F3;stroke-width:1.0416666666666667;"/><line style="stroke:#2196F3;stroke-width:1.5625;" x1="192.1875" x2="192.1875" y1="256.1198" y2="274.8698"/><line style="stroke:#2196F3;stroke-width:1.5625;" x1="192.1875" x2="138.8021" y1="274.8698" y2="274.8698"/><polygon fill="#2196F3" points="149.2188,270.7031,138.8021,274.8698,149.2188,279.0365,145.0521,274.8698" style="stroke:#2196F3;stroke-width:1.0416666666666667;"/><line style="stroke:#2196F3;stroke-width:1.5625;" x1="126.3021" x2="126.3021" y1="108.3008" y2="154.1016"/><polygon fill="#2196F3" points="122.1354,143.6849,126.3021,154.1016,130.4688,143.6849,126.3021,147.8516" style="stroke:#2196F3;stroke-width:1.0416666666666667;"/><text fill="#222222" font-family="Verdana" font-size="12.5" lengthAdjust="spacing" textLength="79.1667" x="140.8854" y="131.7057">test of color</text><line style="stroke:#2196F3;stroke-width:1.5625;" x1="126.3021" x2="126.3021" y1="287.3698" y2="354.0039"/><polygon fill="#2196F3" points="122.1354,343.5872,126.3021,354.0039,130.4688,343.5872,126.3021,347.7539" style="stroke:#2196F3;stroke-width:1.0416666666666667;"/><line style="stroke:#2196F3;stroke-width:1.5625;" x1="126.3021" x2="126.3021" y1="410.2214" y2="468.5221"/><polygon fill="#2196F3" points="122.1354,458.1055,126.3021,468.5221,130.4688,458.1055,126.3021,462.2721" style="stroke:#2196F3;stroke-width:1.0416666666666667;"/><text fill="#222222" font-family="Verdana" font-size="12.5" lengthAdjust="spacing" textLength="93.75" x="140.8854" y="446.1263">this is the end</text></g></svg>