<?xml version="1.0" encoding="UTF-8" standalone="no"?><svg xmlns="http://www.w3.org/2000/svg" xmlns:xlink="http://www.w3.org/1999/xlink" contentScriptType="application/ecmascript" contentStyleType="text/css" height="479.1667px" preserveAspectRatio="none" style="width:370px;height:479px;background:#00000000;" version="1.1" viewBox="0 0 370 479" width="370.8333px" zoomAndPan="magnify"><defs><linearGradient id="gd5lq7v6gahpd0" x1="50%" x2="50%" y1="0%" y2="100%"><stop offset="0%" stop-color="#E5E4E2"/><stop offset="100%" stop-color="#B7B6B5"/></linearGradient><linearGradient id="gd5lq7v6gahpd1" x1="50%" x2="50%" y1="0%" y2="100%"><stop offset="0%" stop-color="#C0C0C0"/><stop offset="100%" stop-color="#9A9A9A"/></linearGradient><linearGradient id="gd5lq7v6gahpd2" x1="50%" x2="50%" y1="0%" y2="100%"><stop offset="0%" stop-color="#C0D0E5"/><stop offset="100%" stop-color="#8D9DB2"/></linearGradient></defs><g><ellipse cx="122.1354" cy="20.8333" fill="#4682B4" rx="10.4167" ry="10.4167" style="stroke:none;stroke-width:1.0416666666666667;"/><rect fill="url(#gd5lq7v6gahpd0)" height="52.0508" rx="13.0208" ry="13.0208" style="stroke:#B7B6B5;stroke-width:1.5625;" width="57.2917" x="93.4896" y="52.0833"/><text fill="#4682B4" font-family="Verdana" font-size="12.5" lengthAdjust="spacing" textLength="19.7917" x="112.2396" y="82.4361">init</text><polygon fill="url(#gd5lq7v6gahpd1)" points="94.5313,149.9349,149.7396,149.9349,162.2396,165.5436,149.7396,181.1523,94.5313,181.1523,82.0313,165.5436,94.5313,149.9349" style="stroke:#9A9A9A;stroke-width:1.5625;"/><text fill="#FDFDFD" font-family="Verdana" font-size="12.5" lengthAdjust="spacing" textLength="38.5417" x="102.8646" y="169.871">color?</text><text fill="#FF0000" font-family="Verdana" font-size="12.5" lengthAdjust="spacing" textLength="21.875" x="51.8229" y="154.2623">red</text><rect fill="url(#gd5lq7v6gahpd0)" height="52.0508" rx="13.0208" ry="13.0208" style="stroke:#B7B6B5;stroke-width:1.5625;" width="93.75" x="11.4583" y="191.569"/><text fill="#4682B4" font-family="Verdana" font-size="12.5" lengthAdjust="spacing" textLength="56.25" x="30.2083" y="221.9218">print red</text><path d="M266.6667,196.7773 L266.6667,213.4277 L245.8333,217.5944 L266.6667,221.7611 L266.6667,238.4115 A0,0 0 0 0 266.6667,238.4115 L358.3333,238.4115 A0,0 0 0 0 358.3333,238.4115 L358.3333,207.194 L347.9167,196.7773 L266.6667,196.7773 A0,0 0 0 0 266.6667,196.7773 " fill="url(#gd5lq7v6gahpd2)" style="stroke:#8D9DB2;stroke-width:1.0416666666666667;"/><path d="M347.9167,196.7773 L347.9167,207.194 L358.3333,207.194 L347.9167,196.7773 " fill="url(#gd5lq7v6gahpd2)" style="stroke:#8D9DB2;stroke-width:1.0416666666666667;"/><text fill="#FDFDFD" font-family="Verdana" font-size="12.5" lengthAdjust="spacing" textLength="53.125" x="281.25" y="221.9218">no color</text><rect fill="url(#gd5lq7v6gahpd0)" height="52.0508" rx="13.0208" ry="13.0208" style="stroke:#B7B6B5;stroke-width:1.5625;" width="119.7917" x="126.0417" y="191.569"/><text fill="#4682B4" font-family="Verdana" font-size="12.5" lengthAdjust="spacing" textLength="82.2917" x="144.7917" y="221.9218">print not red</text><polygon fill="url(#gd5lq7v6gahpd1)" points="122.1354,249.8698,134.6354,262.3698,122.1354,274.8698,109.6354,262.3698,122.1354,249.8698" style="stroke:#9A9A9A;stroke-width:1.5625;"/><rect height="116.6016" rx="7.8125" ry="7.8125" style="stroke:#E5E4E2;stroke-width:2.0833333333333335;fill:none;" width="83.3333" x="80.4688" y="285.2865"/><path d="M132.5521,285.2865 L132.5521,309.2122 L122.1354,319.6289 L80.4688,319.6289 " fill="none" style="stroke:#E5E4E2;stroke-width:2.0833333333333335;"/><text fill="#B7B6B5" font-family="Verdana" font-size="12.5" lengthAdjust="spacing" textLength="25" x="91.9271" y="306.2642">End</text><rect fill="url(#gd5lq7v6gahpd0)" height="52.0508" rx="13.0208" ry="13.0208" style="stroke:#B7B6B5;stroke-width:1.5625;" width="62.5" x="90.8854" y="337.3372"/><text fill="#4682B4" font-family="Verdana" font-size="12.5" lengthAdjust="spacing" textLength="25" x="109.6354" y="367.69">end</text><ellipse cx="122.1354" cy="458.1055" rx="10.4167" ry="10.4167" style="stroke:#4682B4;stroke-width:1.5625;fill:none;"/><line style="stroke:#4682B4;stroke-width:2.604166666666667;fill:none;" x1="115.6904" x2="128.5804" y1="451.6605" y2="464.5505"/><line style="stroke:#4682B4;stroke-width:2.604166666666667;fill:none;" x1="128.5804" x2="115.6904" y1="451.6605" y2="464.5505"/><line style="stroke:#E5E4E2;stroke-width:1.5625;fill:none;" x1="122.1354" x2="122.1354" y1="31.25" y2="52.0833"/><polygon fill="#E5E4E2" points="117.9688,41.6667,122.1354,52.0833,126.3021,41.6667,122.1354,45.8333" style="stroke:#E5E4E2;stroke-width:1.0416666666666667;"/><line style="stroke:#E5E4E2;stroke-width:1.5625;" x1="82.0313" x2="58.3333" y1="165.5436" y2="165.5436"/><line style="stroke:#E5E4E2;stroke-width:1.5625;" x1="58.3333" x2="58.3333" y1="165.5436" y2="191.569"/><polygon fill="#E5E4E2" points="54.1667,181.1523,58.3333,191.569,62.5,181.1523,58.3333,185.319" style="stroke:#E5E4E2;stroke-width:1.0416666666666667;"/><line style="stroke:#E5E4E2;stroke-width:1.5625;" x1="162.2396" x2="185.9375" y1="165.5436" y2="165.5436"/><line style="stroke:#E5E4E2;stroke-width:1.5625;" x1="185.9375" x2="185.9375" y1="165.5436" y2="191.569"/><polygon fill="#E5E4E2" points="181.7708,181.1523,185.9375,191.569,190.1042,181.1523,185.9375,185.319" style="stroke:#E5E4E2;stroke-width:1.0416666666666667;"/><line style="stroke:#E5E4E2;stroke-width:1.5625;" x1="58.3333" x2="58.3333" y1="243.6198" y2="262.3698"/><line style="stroke:#E5E4E2;stroke-width:1.5625;" x1="58.3333" x2="109.6354" y1="262.3698" y2="262.3698"/><polygon fill="#E5E4E2" points="99.2188,258.2031,109.6354,262.3698,99.2188,266.5365,103.3854,262.3698" style="stroke:#E5E4E2;stroke-width:1.0416666666666667;"/><line style="stroke:#E5E4E2;stroke-width:1.5625;" x1="185.9375" x2="185.9375" y1="243.6198" y2="262.3698"/><line style="stroke:#E5E4E2;stroke-width:1.5625;" x1="185.9375" x2="134.6354" y1="262.3698" y2="262.3698"/><polygon fill="#E5E4E2" points="145.0521,258.2031,134.6354,262.3698,145.0521,266.5365,140.8854,262.3698" style="stroke:#E5E4E2;stroke-width:1.0416666666666667;"/><line style="stroke:#E5E4E2;stroke-width:1.5625;" x1="122.1354" x2="122.1354" y1="104.1341" y2="149.9349"/><polygon fill="#E5E4E2" points="117.9688,139.5182,122.1354,149.9349,126.3021,139.5182,122.1354,143.6849" style="stroke:#E5E4E2;stroke-width:1.0416666666666667;"/><text fill="#4D4D4D" font-family="Verdana" font-size="12.5" lengthAdjust="spacing" textLength="79.1667" x="134.6354" y="127.5391">test of color</text><line style="stroke:#E5E4E2;stroke-width:1.5625;" x1="122.1354" x2="122.1354" y1="274.8698" y2="337.3372"/><polygon fill="#E5E4E2" points="117.9688,326.9206,122.1354,337.3372,126.3021,326.9206,122.1354,331.0872" style="stroke:#E5E4E2;stroke-width:1.0416666666666667;"/><line style="stroke:#E5E4E2;stroke-width:1.5625;" x1="122.1354" x2="122.1354" y1="389.388" y2="447.6888"/><polygon fill="#E5E4E2" points="117.9688,437.2721,122.1354,447.6888,126.3021,437.2721,122.1354,441.4388" style="stroke:#E5E4E2;stroke-width:1.0416666666666667;"/><text fill="#4D4D4D" font-family="Verdana" font-size="12.5" lengthAdjust="spacing" textLength="93.75" x="134.6354" y="425.293">this is the end</text></g></svg>