<?xml version="1.0" encoding="UTF-8" standalone="no"?><svg xmlns="http://www.w3.org/2000/svg" xmlns:xlink="http://www.w3.org/1999/xlink" contentStyleType="text/css" height="422.9167px" preserveAspectRatio="none" style="width:335px;height:422px;background:#00000000;" version="1.1" viewBox="0 0 335 422" width="335.4167px" zoomAndPan="magnify"><defs/><g><ellipse cx="107.5521" cy="20.8333" fill="#5BC0DE" rx="10.4167" ry="10.4167" style="stroke:#E58748;stroke-width:1.0416666666666667;"/><rect fill="#DF691A" height="37.4674" rx="4.1667" ry="4.1667" style="stroke:#E58748;stroke-width:1.0416666666666667;" width="42.7083" x="86.1979" y="52.0833"/><text fill="#FFFFFF" font-family="&quot;Verdana&quot;" font-size="12.5" lengthAdjust="spacing" textLength="19.7917" x="97.6563" y="75.1444">init</text><polygon fill="#3E4A56" points="83.0729,135.3516,132.0313,135.3516,144.5313,147.8516,132.0313,160.3516,83.0729,160.3516,70.5729,147.8516,83.0729,135.3516" style="stroke:#717D89;stroke-width:1.0416666666666667;"/><text fill="#FFFFFF" font-family="&quot;Verdana&quot;" font-size="12.5" lengthAdjust="spacing" textLength="38.5417" x="88.2813" y="152.179">color?</text><text fill="#FF0000" font-family="&quot;Verdana&quot;" font-size="12.5" lengthAdjust="spacing" textLength="21.875" x="43.4896" y="139.6952">red</text><rect fill="#DF691A" height="37.4674" rx="4.1667" ry="4.1667" style="stroke:#E58748;stroke-width:1.0416666666666667;" width="79.1667" x="11.4583" y="170.7682"/><text fill="#FFFFFF" font-family="&quot;Verdana&quot;" font-size="12.5" lengthAdjust="spacing" textLength="56.25" x="22.9167" y="193.8293">print red</text><path d="M237.5,171.8099 L237.5,185.3353 L216.6667,189.502 L237.5,193.6686 L237.5,207.194 A0,0 0 0 0 237.5,207.194 L322.9167,207.194 A0,0 0 0 0 322.9167,207.194 L322.9167,182.2266 L312.5,171.8099 L237.5,171.8099 A0,0 0 0 0 237.5,171.8099 " fill="#5BC0DE" style="stroke:#E58748;stroke-width:1.0416666666666667;"/><path d="M312.5,171.8099 L312.5,182.2266 L322.9167,182.2266 L312.5,171.8099 " fill="#5BC0DE" style="stroke:#E58748;stroke-width:1.0416666666666667;"/><text fill="#FFFFFF" font-family="&quot;Verdana&quot;" font-size="12.5" lengthAdjust="spacing" textLength="53.125" x="248.9583" y="193.8293">no color</text><rect fill="#DF691A" height="37.4674" rx="4.1667" ry="4.1667" style="stroke:#E58748;stroke-width:1.0416666666666667;" width="105.2083" x="111.4583" y="170.7682"/><text fill="#FFFFFF" font-family="&quot;Verdana&quot;" font-size="12.5" lengthAdjust="spacing" textLength="82.2917" x="122.9167" y="193.8293">print not red</text><polygon fill="#3E4A56" points="107.5521,214.4857,120.0521,226.9857,107.5521,239.4857,95.0521,226.9857,107.5521,214.4857" style="stroke:#717D89;stroke-width:1.0416666666666667;"/><rect height="95.7682" rx="4.1667" ry="4.1667" style="stroke:#DF691A;stroke-width:1.0416666666666667;fill:none;" width="68.75" x="73.1771" y="249.9023"/><path d="M119.0104,249.9023 L119.0104,267.5781 L108.5938,277.9948 L73.1771,277.9948 " fill="none" style="stroke:#DF691A;stroke-width:1.0416666666666667;"/><text fill="#DF691A" font-family="&quot;Verdana&quot;" font-size="12.5" lengthAdjust="spacing" textLength="25" x="81.5104" y="267.7551">End</text><rect fill="#DF691A" height="37.4674" rx="4.1667" ry="4.1667" style="stroke:#E58748;stroke-width:1.0416666666666667;" width="47.9167" x="83.5938" y="295.7031"/><text fill="#FFFFFF" font-family="&quot;Verdana&quot;" font-size="12.5" lengthAdjust="spacing" textLength="25" x="95.0521" y="318.7642">end</text><ellipse cx="107.5521" cy="401.888" rx="10.4167" ry="10.4167" style="stroke:#5BC0DE;stroke-width:1.5625;fill:none;"/><line style="stroke:#5BC0DE;stroke-width:2.604166666666667;fill:none;" x1="101.1071" x2="113.9971" y1="395.443" y2="408.333"/><line style="stroke:#5BC0DE;stroke-width:2.604166666666667;fill:none;" x1="113.9971" x2="101.1071" y1="395.443" y2="408.333"/><line style="stroke:#DF691A;stroke-width:3.125;fill:none;" x1="107.5521" x2="107.5521" y1="31.25" y2="52.0833"/><polygon fill="#DF691A" points="103.3854,41.6667,107.5521,52.0833,111.7188,41.6667,107.5521,45.8333" style="stroke:#DF691A;stroke-width:1.0416666666666667;"/><line style="stroke:#DF691A;stroke-width:3.125;" x1="70.5729" x2="51.0417" y1="147.8516" y2="147.8516"/><line style="stroke:#DF691A;stroke-width:3.125;" x1="51.0417" x2="51.0417" y1="147.8516" y2="170.7682"/><polygon fill="#DF691A" points="46.875,160.3516,51.0417,170.7682,55.2083,160.3516,51.0417,164.5182" style="stroke:#DF691A;stroke-width:1.0416666666666667;"/><line style="stroke:#DF691A;stroke-width:3.125;" x1="144.5313" x2="164.0625" y1="147.8516" y2="147.8516"/><line style="stroke:#DF691A;stroke-width:3.125;" x1="164.0625" x2="164.0625" y1="147.8516" y2="170.7682"/><polygon fill="#DF691A" points="159.8958,160.3516,164.0625,170.7682,168.2292,160.3516,164.0625,164.5182" style="stroke:#DF691A;stroke-width:1.0416666666666667;"/><line style="stroke:#DF691A;stroke-width:3.125;" x1="51.0417" x2="51.0417" y1="208.2357" y2="226.9857"/><line style="stroke:#DF691A;stroke-width:3.125;" x1="51.0417" x2="95.0521" y1="226.9857" y2="226.9857"/><polygon fill="#DF691A" points="84.6354,222.819,95.0521,226.9857,84.6354,231.1523,88.8021,226.9857" style="stroke:#DF691A;stroke-width:1.0416666666666667;"/><line style="stroke:#DF691A;stroke-width:3.125;" x1="164.0625" x2="164.0625" y1="208.2357" y2="226.9857"/><line style="stroke:#DF691A;stroke-width:3.125;" x1="164.0625" x2="120.0521" y1="226.9857" y2="226.9857"/><polygon fill="#DF691A" points="130.4688,222.819,120.0521,226.9857,130.4688,231.1523,126.3021,226.9857" style="stroke:#DF691A;stroke-width:1.0416666666666667;"/><line style="stroke:#DF691A;stroke-width:3.125;" x1="107.5521" x2="107.5521" y1="89.5508" y2="135.3516"/><polygon fill="#DF691A" points="103.3854,124.9349,107.5521,135.3516,111.7188,124.9349,107.5521,129.1016" style="stroke:#DF691A;stroke-width:1.0416666666666667;"/><text fill="#FFFFFF" font-family="&quot;Verdana&quot;" font-size="12.5" lengthAdjust="spacing" textLength="79.1667" x="116.9271" y="112.9557">test of color</text><line style="stroke:#DF691A;stroke-width:3.125;" x1="107.5521" x2="107.5521" y1="239.4857" y2="295.7031"/><polygon fill="#DF691A" points="103.3854,285.2865,107.5521,295.7031,111.7188,285.2865,107.5521,289.4531" style="stroke:#DF691A;stroke-width:1.0416666666666667;"/><line style="stroke:#DF691A;stroke-width:3.125;" x1="107.5521" x2="107.5521" y1="333.1706" y2="391.4714"/><polygon fill="#DF691A" points="103.3854,381.0547,107.5521,391.4714,111.7188,381.0547,107.5521,385.2214" style="stroke:#DF691A;stroke-width:1.0416666666666667;"/><text fill="#FFFFFF" font-family="&quot;Verdana&quot;" font-size="12.5" lengthAdjust="spacing" textLength="93.75" x="116.9271" y="369.0755">this is the end</text></g></svg>