<?xml version="1.0" encoding="us-ascii" standalone="no"?><svg xmlns="http://www.w3.org/2000/svg" xmlns:xlink="http://www.w3.org/1999/xlink" contentStyleType="text/css" height="484px" preserveAspectRatio="none" style="width:368px;height:484px;" version="1.1" viewBox="0 0 368 484" width="368px" zoomAndPan="magnify"><defs><linearGradient id="g1e4e78img9ztn0" x1="50%" x2="50%" y1="0%" y2="100%"><stop offset="0%" stop-color="#525252"/><stop offset="100%" stop-color="#262626"/></linearGradient><linearGradient id="g1e4e78img9ztn1" x1="50%" x2="50%" y1="0%" y2="100%"><stop offset="0%" stop-color="#F4F4F4"/><stop offset="100%" stop-color="#F4F4F4"/></linearGradient></defs><g><ellipse cx="121.25" cy="20" fill="url(#g1e4e78img9ztn0)" rx="10" ry="10" style="stroke:#222222;stroke-width:1.0;"/><rect fill="url(#g1e4e78img9ztn1)" height="53.9688" style="stroke:#C6C6C6;stroke-width:0.5;" width="59" x="91.75" y="50"/><text fill="#262626" font-family="sans-serif" font-size="12" lengthAdjust="spacing" textLength="19" x="111.75" y="81.1387">init</text><polygon fill="url(#g1e4e78img9ztn1)" points="92.75,147.9375,149.75,147.9375,161.75,164.9219,149.75,181.9063,92.75,181.9063,80.75,164.9219,92.75,147.9375" style="stroke:#F4F4F4;stroke-width:0.5;"/><text fill="#262626" font-family="sans-serif" font-size="12" lengthAdjust="spacing" textLength="37" x="102.75" y="169.0762">color?</text><text fill="#FF0000" font-family="sans-serif" font-size="12" lengthAdjust="spacing" textLength="21" x="49.75" y="152.0918">red</text><rect fill="url(#g1e4e78img9ztn1)" height="53.9688" style="stroke:#C6C6C6;stroke-width:0.5;" width="94" x="11" y="191.9063"/><text fill="#262626" font-family="sans-serif" font-size="12" lengthAdjust="spacing" textLength="54" x="31" y="223.0449">print red</text><path d="M264,196.9063 L264,214.8906 L244,218.8906 L264,222.8906 L264,240.875 A0,0 0 0 0 264,240.875 L356,240.875 A0,0 0 0 0 356,240.875 L356,206.9063 L346,196.9063 L264,196.9063 A0,0 0 0 0 264,196.9063 " fill="#FFFFFF" style="stroke:#262626;stroke-width:1.0;"/><path d="M346,196.9063 L346,206.9063 L356,206.9063 L346,196.9063 " fill="#FFFFFF" style="stroke:#262626;stroke-width:1.0;"/><text fill="#262626" font-family="sans-serif" font-size="12" lengthAdjust="spacing" textLength="51" x="280" y="223.0449">no color</text><rect fill="url(#g1e4e78img9ztn1)" height="53.9688" style="stroke:#C6C6C6;stroke-width:0.5;" width="119" x="125" y="191.9063"/><text fill="#262626" font-family="sans-serif" font-size="12" lengthAdjust="spacing" textLength="79" x="145" y="223.0449">print not red</text><polygon fill="url(#g1e4e78img9ztn1)" points="121.25,255.875,133.25,267.875,121.25,279.875,109.25,267.875,121.25,255.875" style="stroke:#F4F4F4;stroke-width:0.5;"/><rect fill="#FFFFFF" height="119.9375" style="stroke:#F4F4F4;stroke-width:1.5;" width="84" x="79.25" y="289.875"/><path d="M135.25,289.875 L135.25,316.8438 L125.25,326.8438 L79.25,326.8438 " fill="none" style="stroke:#F4F4F4;stroke-width:1.5;"/><text fill="#262626" font-family="sans-serif" font-size="12" font-weight="bold" lengthAdjust="spacing" textLength="26" x="92.25" y="312.0137">End</text><rect fill="url(#g1e4e78img9ztn1)" height="53.9688" style="stroke:#C6C6C6;stroke-width:0.5;" width="64" x="89.25" y="343.8438"/><text fill="#262626" font-family="sans-serif" font-size="12" lengthAdjust="spacing" textLength="24" x="109.25" y="374.9824">end</text><ellipse cx="121.25" cy="463.7813" fill="none" rx="10" ry="10" style="stroke:url(#g1e4e78img9ztn0);stroke-width:1.5;"/><line style="stroke:#525252;stroke-width:2.5;" x1="115.0628" x2="127.4372" y1="457.5941" y2="469.9684"/><line style="stroke:#525252;stroke-width:2.5;" x1="127.4372" x2="115.0628" y1="457.5941" y2="469.9684"/><line style="stroke:#C6C6C6;stroke-width:1.0;" x1="121.25" x2="121.25" y1="30" y2="50"/><polygon fill="#C6C6C6" points="117.25,40,121.25,50,125.25,40,121.25,44" style="stroke:#C6C6C6;stroke-width:1.0;"/><line style="stroke:#C6C6C6;stroke-width:1.0;" x1="80.75" x2="58" y1="164.9219" y2="164.9219"/><line style="stroke:#C6C6C6;stroke-width:1.0;" x1="58" x2="58" y1="164.9219" y2="191.9063"/><polygon fill="#C6C6C6" points="54,181.9063,58,191.9063,62,181.9063,58,185.9063" style="stroke:#C6C6C6;stroke-width:1.0;"/><line style="stroke:#C6C6C6;stroke-width:1.0;" x1="161.75" x2="184.5" y1="164.9219" y2="164.9219"/><line style="stroke:#C6C6C6;stroke-width:1.0;" x1="184.5" x2="184.5" y1="164.9219" y2="191.9063"/><polygon fill="#C6C6C6" points="180.5,181.9063,184.5,191.9063,188.5,181.9063,184.5,185.9063" style="stroke:#C6C6C6;stroke-width:1.0;"/><line style="stroke:#C6C6C6;stroke-width:1.0;" x1="58" x2="58" y1="245.875" y2="267.875"/><line style="stroke:#C6C6C6;stroke-width:1.0;" x1="58" x2="109.25" y1="267.875" y2="267.875"/><polygon fill="#C6C6C6" points="99.25,263.875,109.25,267.875,99.25,271.875,103.25,267.875" style="stroke:#C6C6C6;stroke-width:1.0;"/><line style="stroke:#C6C6C6;stroke-width:1.0;" x1="184.5" x2="184.5" y1="245.875" y2="267.875"/><line style="stroke:#C6C6C6;stroke-width:1.0;" x1="184.5" x2="133.25" y1="267.875" y2="267.875"/><polygon fill="#C6C6C6" points="143.25,263.875,133.25,267.875,143.25,271.875,139.25,267.875" style="stroke:#C6C6C6;stroke-width:1.0;"/><line style="stroke:#C6C6C6;stroke-width:1.0;" x1="121.25" x2="121.25" y1="103.9688" y2="147.9375"/><polygon fill="#C6C6C6" points="117.25,137.9375,121.25,147.9375,125.25,137.9375,121.25,141.9375" style="stroke:#C6C6C6;stroke-width:1.0;"/><text fill="#262626" font-family="sans-serif" font-size="12" lengthAdjust="spacing" textLength="76" x="135.25" y="126.4375">test of color</text><line style="stroke:#C6C6C6;stroke-width:1.0;" x1="121.25" x2="121.25" y1="279.875" y2="343.8438"/><polygon fill="#C6C6C6" points="117.25,333.8438,121.25,343.8438,125.25,333.8438,121.25,337.8438" style="stroke:#C6C6C6;stroke-width:1.0;"/><line style="stroke:#C6C6C6;stroke-width:1.0;" x1="121.25" x2="121.25" y1="397.8125" y2="453.7813"/><polygon fill="#C6C6C6" points="117.25,443.7813,121.25,453.7813,125.25,443.7813,121.25,447.7813" style="stroke:#C6C6C6;stroke-width:1.0;"/><text fill="#262626" font-family="sans-serif" font-size="12" lengthAdjust="spacing" textLength="90" x="135.25" y="432.2813">this is the end</text></g></svg>