<?xml version="1.0" encoding="us-ascii" standalone="no"?><svg xmlns="http://www.w3.org/2000/svg" xmlns:xlink="http://www.w3.org/1999/xlink" contentStyleType="text/css" height="319px" preserveAspectRatio="none" style="width:438px;height:319px;background:#FFFFFF;" version="1.1" viewBox="0 0 438 319" width="438px" zoomAndPan="magnify"><defs/><g><!--class abstract--><g id="elem_abstract"><rect codeLine="6" fill="#F1F1F1" height="48" id="abstract" rx="3.5" ry="3.5" style="stroke:#181818;stroke-width:0.5;" width="87" x="13.5" y="12"/><ellipse cx="28.5" cy="28" fill="#A9DCDF" rx="11" ry="11" style="stroke:#181818;stroke-width:1.0;"/><path d="M28.6094,23.3438 L27.4531,28.4219 L29.7813,28.4219 L28.6094,23.3438 Z M27.125,21.1094 L30.1094,21.1094 L33.4688,33.5 L31.0156,33.5 L30.25,30.4375 L26.9688,30.4375 L26.2188,33.5 L23.7813,33.5 L27.125,21.1094 Z " fill="#000000"/><text fill="#000000" font-family="sans-serif" font-size="14" font-style="italic" lengthAdjust="spacing" textLength="55" x="42.5" y="32.8467">abstract</text><line style="stroke:#181818;stroke-width:0.5;" x1="14.5" x2="99.5" y1="44" y2="44"/><line style="stroke:#181818;stroke-width:0.5;" x1="14.5" x2="99.5" y1="52" y2="52"/></g><!--class abstract class--><g id="elem_abstract class"><rect codeLine="7" fill="#F1F1F1" height="48" id="abstract class" rx="3.5" ry="3.5" style="stroke:#181818;stroke-width:0.5;" width="124" x="119" y="12"/><ellipse cx="134" cy="28" fill="#A9DCDF" rx="11" ry="11" style="stroke:#181818;stroke-width:1.0;"/><path d="M134.1094,23.3438 L132.9531,28.4219 L135.2813,28.4219 L134.1094,23.3438 Z M132.625,21.1094 L135.6094,21.1094 L138.9688,33.5 L136.5156,33.5 L135.75,30.4375 L132.4688,30.4375 L131.7188,33.5 L129.2813,33.5 L132.625,21.1094 Z " fill="#000000"/><text fill="#000000" font-family="sans-serif" font-size="14" font-style="italic" lengthAdjust="spacing" textLength="92" x="148" y="32.8467">abstract class</text><line style="stroke:#181818;stroke-width:0.5;" x1="120" x2="242" y1="44" y2="44"/><line style="stroke:#181818;stroke-width:0.5;" x1="120" x2="242" y1="52" y2="52"/></g><!--class annotation--><g id="elem_annotation"><rect codeLine="8" fill="#F1F1F1" height="48" id="annotation" rx="3.5" ry="3.5" style="stroke:#181818;stroke-width:0.5;" width="106" x="261" y="12"/><ellipse cx="276" cy="28" fill="#E3664A" rx="11" ry="11" style="stroke:#181818;stroke-width:1.0;"/><path d="M278.0781,28.4688 Q278.0781,27.5313 277.6563,27 Q277.2344,26.4688 276.4844,26.4688 Q275.75,26.4688 275.3281,27 Q274.9219,27.5313 274.9219,28.4688 Q274.9219,29.4219 275.3281,29.9531 Q275.75,30.4844 276.4844,30.4844 Q277.2344,30.4844 277.6563,29.9531 Q278.0781,29.4219 278.0781,28.4688 Z M279.625,31.875 L278,31.875 L278,31.2031 Q277.6719,31.6406 277.25,31.8438 Q276.8281,32.0469 276.2188,32.0469 Q274.8594,32.0469 274.0313,31.0781 Q273.2031,30.0938 273.2031,28.4688 Q273.2031,26.875 274.0313,25.9063 Q274.8594,24.9219 276.2188,24.9219 Q276.8125,24.9219 277.2656,25.125 Q277.7188,25.3281 278,25.7188 L278,25.375 Q278,24.25 277.375,23.6406 Q276.75,23.0156 275.6094,23.0156 Q273.8906,23.0156 272.7969,24.5469 Q271.7031,26.0625 271.7031,28.5 Q271.7031,31.0469 272.9531,32.5469 Q274.2188,34.0469 276.3281,34.0469 Q276.9844,34.0469 277.6094,33.8594 Q278.2344,33.6719 278.8125,33.2813 L279.5781,34.7344 Q278.9063,35.1875 278.1094,35.4063 Q277.3125,35.6406 276.4063,35.6406 Q273.5,35.6406 271.7656,33.7031 Q270.0469,31.7813 270.0469,28.5 Q270.0469,25.2813 271.5938,23.3594 Q273.1563,21.4219 275.7188,21.4219 Q277.5156,21.4219 278.5625,22.5156 Q279.625,23.6094 279.625,25.4844 L279.625,31.875 Z " fill="#000000"/><text fill="#000000" font-family="sans-serif" font-size="14" lengthAdjust="spacing" textLength="74" x="290" y="32.8467">annotation</text><line style="stroke:#181818;stroke-width:0.5;" x1="262" x2="366" y1="44" y2="44"/><line style="stroke:#181818;stroke-width:0.5;" x1="262" x2="366" y1="52" y2="52"/></g><!--entity circle--><g id="elem_circle"><ellipse cx="394" cy="33" fill="#F1F1F1" rx="8" ry="8" style="stroke:#181818;stroke-width:0.5;"/><text fill="#000000" font-family="sans-serif" font-size="14" lengthAdjust="spacing" textLength="36" x="376" y="62.9951">circle</text></g><!--entity circle_short_form--><g id="elem_circle_short_form"><ellipse cx="57" cy="117" fill="#F1F1F1" rx="8" ry="8" style="stroke:#181818;stroke-width:0.5;"/><text fill="#000000" font-family="sans-serif" font-size="14" lengthAdjust="spacing" textLength="117" x="-1.5" y="146.9951">circle_short_form</text></g><!--class class--><g id="elem_class"><rect codeLine="11" fill="#F1F1F1" height="48" id="class" rx="3.5" ry="3.5" style="stroke:#181818;stroke-width:0.5;" width="67" x="84.5" y="96"/><ellipse cx="99.5" cy="112" fill="#ADD1B2" rx="11" ry="11" style="stroke:#181818;stroke-width:1.0;"/><path d="M102.4688,117.6406 Q101.8906,117.9375 101.25,118.0781 Q100.6094,118.2344 99.9063,118.2344 Q97.4063,118.2344 96.0781,116.5938 Q94.7656,114.9375 94.7656,111.8125 Q94.7656,108.6875 96.0781,107.0313 Q97.4063,105.375 99.9063,105.375 Q100.6094,105.375 101.25,105.5313 Q101.9063,105.6875 102.4688,105.9844 L102.4688,108.7031 Q101.8438,108.125 101.25,107.8594 Q100.6563,107.5781 100.0313,107.5781 Q98.6875,107.5781 98,108.6563 Q97.3125,109.7188 97.3125,111.8125 Q97.3125,113.9063 98,114.9844 Q98.6875,116.0469 100.0313,116.0469 Q100.6563,116.0469 101.25,115.7813 Q101.8438,115.5 102.4688,114.9219 L102.4688,117.6406 Z " fill="#000000"/><text fill="#000000" font-family="sans-serif" font-size="14" lengthAdjust="spacing" textLength="35" x="113.5" y="116.8467">class</text><line style="stroke:#181818;stroke-width:0.5;" x1="85.5" x2="150.5" y1="128" y2="128"/><line style="stroke:#181818;stroke-width:0.5;" x1="85.5" x2="150.5" y1="136" y2="136"/></g><g id="elem_diamond"><polygon fill="#F1F1F1" points="182,108,194,120,182,132,170,120,182,108" style="stroke:#181818;stroke-width:0.5;"/></g><polygon fill="#F1F1F1" points="224,108,236,120,224,132,212,120,224,108" style="stroke:#181818;stroke-width:0.5;"/><!--class entity--><g id="elem_entity"><rect codeLine="14" fill="#F1F1F1" height="48" id="entity" rx="3.5" ry="3.5" style="stroke:#181818;stroke-width:0.5;" width="70" x="22" y="180"/><ellipse cx="37" cy="196" fill="#ADD1B2" rx="11" ry="11" style="stroke:#181818;stroke-width:1.0;"/><path d="M41.1094,202 L33.3906,202 L33.3906,189.6094 L41.1094,189.6094 L41.1094,191.7656 L35.8438,191.7656 L35.8438,194.4375 L40.6094,194.4375 L40.6094,196.5938 L35.8438,196.5938 L35.8438,199.8438 L41.1094,199.8438 L41.1094,202 Z " fill="#000000"/><text fill="#000000" font-family="sans-serif" font-size="14" lengthAdjust="spacing" textLength="38" x="51" y="200.8467">entity</text><line style="stroke:#181818;stroke-width:0.5;" x1="23" x2="91" y1="212" y2="212"/><line style="stroke:#181818;stroke-width:0.5;" x1="23" x2="91" y1="220" y2="220"/></g><!--class enum--><g id="elem_enum"><rect codeLine="15" fill="#F1F1F1" height="48" id="enum" rx="3.5" ry="3.5" style="stroke:#181818;stroke-width:0.5;" width="72" x="110" y="180"/><ellipse cx="125" cy="196" fill="#EB937F" rx="11" ry="11" style="stroke:#181818;stroke-width:1.0;"/><path d="M129.1094,202 L121.3906,202 L121.3906,189.6094 L129.1094,189.6094 L129.1094,191.7656 L123.8438,191.7656 L123.8438,194.4375 L128.6094,194.4375 L128.6094,196.5938 L123.8438,196.5938 L123.8438,199.8438 L129.1094,199.8438 L129.1094,202 Z " fill="#000000"/><text fill="#000000" font-family="sans-serif" font-size="14" lengthAdjust="spacing" textLength="40" x="139" y="200.8467">enum</text><line style="stroke:#181818;stroke-width:0.5;" x1="111" x2="181" y1="212" y2="212"/><line style="stroke:#181818;stroke-width:0.5;" x1="111" x2="181" y1="220" y2="220"/></g><!--class exception--><g id="elem_exception"><rect codeLine="16" fill="#F1F1F1" height="48" id="exception" rx="3.5" ry="3.5" style="stroke:#181818;stroke-width:0.5;" width="100" x="200" y="180"/><ellipse cx="215" cy="196" fill="#D94321" rx="11" ry="11" style="stroke:#181818;stroke-width:1.0;"/><path d="M220.0156,202 L217.4844,202 L215.1094,197.9063 L212.75,202 L210.2188,202 L213.8594,195.7031 L210.3281,189.6094 L212.8594,189.6094 L215.1094,193.5469 L217.375,189.6094 L219.9063,189.6094 L216.3906,195.7031 L220.0156,202 Z " fill="#000000"/><text fill="#000000" font-family="sans-serif" font-size="14" lengthAdjust="spacing" textLength="68" x="229" y="200.8467">exception</text><line style="stroke:#181818;stroke-width:0.5;" x1="201" x2="299" y1="212" y2="212"/><line style="stroke:#181818;stroke-width:0.5;" x1="201" x2="299" y1="220" y2="220"/></g><!--class interface--><g id="elem_interface"><rect codeLine="17" fill="#F1F1F1" height="48" id="interface" rx="3.5" ry="3.5" style="stroke:#181818;stroke-width:0.5;" width="92" x="318" y="180"/><ellipse cx="333" cy="196" fill="#B4A7E5" rx="11" ry="11" style="stroke:#181818;stroke-width:1.0;"/><path d="M328.9219,191.7656 L328.9219,189.6094 L336.3125,189.6094 L336.3125,191.7656 L333.8438,191.7656 L333.8438,199.8438 L336.3125,199.8438 L336.3125,202 L328.9219,202 L328.9219,199.8438 L331.3906,199.8438 L331.3906,191.7656 L328.9219,191.7656 Z " fill="#000000"/><text fill="#000000" font-family="sans-serif" font-size="14" font-style="italic" lengthAdjust="spacing" textLength="60" x="347" y="200.8467">interface</text><line style="stroke:#181818;stroke-width:0.5;" x1="319" x2="409" y1="212" y2="212"/><line style="stroke:#181818;stroke-width:0.5;" x1="319" x2="409" y1="220" y2="220"/></g><!--class metaclass--><g id="elem_metaclass"><rect codeLine="18" fill="#F1F1F1" height="48" id="metaclass" rx="3.5" ry="3.5" style="stroke:#181818;stroke-width:0.5;" width="102" x="6" y="264"/><ellipse cx="21" cy="280" fill="#CCCCCC" rx="11" ry="11" style="stroke:#181818;stroke-width:1.0;"/><path d="M16.7188,273.6094 L19.6406,273.6094 L21.1094,279.0469 L22.5781,273.6094 L25.5156,273.6094 L25.5156,286 L23.4063,286 L23.4063,276.0781 L22.0938,281.5 L20.1563,281.5 L18.8281,276.0781 L18.8281,286 L16.7188,286 L16.7188,273.6094 Z " fill="#000000"/><text fill="#000000" font-family="sans-serif" font-size="14" lengthAdjust="spacing" textLength="70" x="35" y="284.8467">metaclass</text><line style="stroke:#181818;stroke-width:0.5;" x1="7" x2="107" y1="296" y2="296"/><line style="stroke:#181818;stroke-width:0.5;" x1="7" x2="107" y1="304" y2="304"/></g><!--class protocol--><g id="elem_protocol"><rect codeLine="19" fill="#F1F1F1" height="48" id="protocol" rx="3.5" ry="3.5" style="stroke:#181818;stroke-width:0.5;" width="89" x="126.5" y="264"/><ellipse cx="141.5" cy="280" fill="#F1F1F1" rx="11" ry="11" style="stroke:#181818;stroke-width:1.0;"/><path d="M141.2969,275.6719 L141.2969,279.2969 L142.2969,279.2969 Q143.5,279.2969 143.9844,278.8906 Q144.4688,278.4844 144.4688,277.4844 Q144.4688,276.4844 143.9844,276.0781 Q143.5,275.6719 142.2969,275.6719 L141.2969,275.6719 Z M138.8438,273.6094 L142.2031,273.6094 Q144.7656,273.6094 145.8906,274.5313 Q147.0156,275.4375 147.0156,277.4844 Q147.0156,279.5313 145.8906,280.4531 Q144.7656,281.3594 142.2031,281.3594 L141.2969,281.3594 L141.2969,286 L138.8438,286 L138.8438,273.6094 Z " fill="#000000"/><text fill="#000000" font-family="sans-serif" font-size="14" lengthAdjust="spacing" textLength="57" x="155.5" y="284.8467">protocol</text><line style="stroke:#181818;stroke-width:0.5;" x1="127.5" x2="214.5" y1="296" y2="296"/><line style="stroke:#181818;stroke-width:0.5;" x1="127.5" x2="214.5" y1="304" y2="304"/></g><!--class stereotype--><g id="elem_stereotype"><rect codeLine="20" fill="#F1F1F1" height="48" id="stereotype" rx="3.5" ry="3.5" style="stroke:#181818;stroke-width:0.5;" width="107" x="233.5" y="264"/><ellipse cx="248.5" cy="280" fill="#FF77FF" rx="11" ry="11" style="stroke:#181818;stroke-width:1.0;"/><path d="M247.9844,280.5625 Q246.125,279.8594 245.4688,279.0938 Q244.8281,278.3125 244.8281,277 Q244.8281,275.3125 245.9063,274.3438 Q246.9844,273.375 248.8594,273.375 Q249.7188,273.375 250.5625,273.5781 Q251.4219,273.7656 252.2656,274.1563 L252.2656,276.5469 Q251.4844,275.9844 250.6563,275.7031 Q249.8438,275.4063 249.0469,275.4063 Q248.1719,275.4063 247.6875,275.7656 Q247.2188,276.125 247.2188,276.7813 Q247.2188,277.2969 247.5625,277.6406 Q247.9063,277.9688 249,278.375 L250.0625,278.7813 Q251.5469,279.3281 252.25,280.2344 Q252.9688,281.1406 252.9688,282.5156 Q252.9688,284.3906 251.8594,285.3125 Q250.75,286.2344 248.5,286.2344 Q247.5781,286.2344 246.6563,286.0156 Q245.7344,285.7969 244.875,285.375 L244.875,282.8438 Q245.8438,283.5313 246.7656,283.875 Q247.6875,284.2188 248.5781,284.2188 Q249.4844,284.2188 249.9844,283.8125 Q250.4844,283.3906 250.4844,282.6563 Q250.4844,282.0938 250.1406,281.6875 Q249.8125,281.2656 249.1875,281.0156 L247.9844,280.5625 Z " fill="#000000"/><text fill="#000000" font-family="sans-serif" font-size="14" lengthAdjust="spacing" textLength="75" x="262.5" y="284.8467">stereotype</text><line style="stroke:#181818;stroke-width:0.5;" x1="234.5" x2="339.5" y1="296" y2="296"/><line style="stroke:#181818;stroke-width:0.5;" x1="234.5" x2="339.5" y1="304" y2="304"/></g><!--class struct--><g id="elem_struct"><rect codeLine="21" fill="#F1F1F1" height="48" id="struct" rx="3.5" ry="3.5" style="stroke:#181818;stroke-width:0.5;" width="72" x="359" y="264"/><ellipse cx="374" cy="280" fill="#F1F1F1" rx="11" ry="11" style="stroke:#181818;stroke-width:1.0;"/><path d="M373.4844,280.5625 Q371.625,279.8594 370.9688,279.0938 Q370.3281,278.3125 370.3281,277 Q370.3281,275.3125 371.4063,274.3438 Q372.4844,273.375 374.3594,273.375 Q375.2188,273.375 376.0625,273.5781 Q376.9219,273.7656 377.7656,274.1563 L377.7656,276.5469 Q376.9844,275.9844 376.1563,275.7031 Q375.3438,275.4063 374.5469,275.4063 Q373.6719,275.4063 373.1875,275.7656 Q372.7188,276.125 372.7188,276.7813 Q372.7188,277.2969 373.0625,277.6406 Q373.4063,277.9688 374.5,278.375 L375.5625,278.7813 Q377.0469,279.3281 377.75,280.2344 Q378.4688,281.1406 378.4688,282.5156 Q378.4688,284.3906 377.3594,285.3125 Q376.25,286.2344 374,286.2344 Q373.0781,286.2344 372.1563,286.0156 Q371.2344,285.7969 370.375,285.375 L370.375,282.8438 Q371.3438,283.5313 372.2656,283.875 Q373.1875,284.2188 374.0781,284.2188 Q374.9844,284.2188 375.4844,283.8125 Q375.9844,283.3906 375.9844,282.6563 Q375.9844,282.0938 375.6406,281.6875 Q375.3125,281.2656 374.6875,281.0156 L373.4844,280.5625 Z " fill="#000000"/><text fill="#000000" font-family="sans-serif" font-size="14" lengthAdjust="spacing" textLength="40" x="388" y="284.8467">struct</text><line style="stroke:#181818;stroke-width:0.5;" x1="360" x2="430" y1="296" y2="296"/><line style="stroke:#181818;stroke-width:0.5;" x1="360" x2="430" y1="304" y2="304"/></g></g></svg>