<?xml version="1.0" encoding="us-ascii" standalone="no"?><svg xmlns="http://www.w3.org/2000/svg" xmlns:xlink="http://www.w3.org/1999/xlink" contentStyleType="text/css" height="466.6667px" preserveAspectRatio="none" style="width:573px;height:466px;" version="1.1" viewBox="0 0 573 466" width="573.9583px" zoomAndPan="magnify"><defs><linearGradient id="gqsoh1t3a4x3f0" x1="50%" x2="50%" y1="0%" y2="100%"><stop offset="0%" stop-color="#4DABF5"/><stop offset="100%" stop-color="#2196F3"/></linearGradient><filter height="300%" id="fqsoh1t3a4x3f" width="300%" x="-1" y="-1"><feGaussianBlur result="blurOut" stdDeviation="2.0833333333333335"/><feColorMatrix in="blurOut" result="blurOut2" type="matrix" values="0 0 0 0 0 0 0 0 0 0 0 0 0 0 0 0 0 0 .4 0"/><feOffset dx="4.166666666666667" dy="4.166666666666667" in="blurOut2" result="blurOut3"/><feBlend in="SourceGraphic" in2="blurOut3" mode="normal"/></filter><linearGradient id="gqsoh1t3a4x3f1" x1="50%" x2="50%" y1="0%" y2="100%"><stop offset="0%" stop-color="#2196F3"/><stop offset="100%" stop-color="#1A78C2"/></linearGradient><linearGradient id="gqsoh1t3a4x3f2" x1="50%" x2="50%" y1="0%" y2="100%"><stop offset="0%" stop-color="#FFFFFF"/><stop offset="100%" stop-color="#FFFFFF"/></linearGradient></defs><g><!--class abstract--><g id="elem_abstract"><rect codeLine="6" fill="url(#gqsoh1t3a4x3f0)" filter="url(#fqsoh1t3a4x3f)" height="61.2549" id="abstract" rx="4.1667" ry="4.1667" style="stroke:#2196F3;stroke-width:1.0416666666666667;" width="100" x="23.4375" y="22.9167"/><rect fill="url(#gqsoh1t3a4x3f1)" height="44.5882" rx="4.1667" ry="4.1667" style="stroke:url(#gqsoh1t3a4x3f1);stroke-width:1.0416666666666667;" width="100" x="23.4375" y="22.9167"/><rect fill="url(#gqsoh1t3a4x3f1)" height="4.1667" style="stroke:url(#gqsoh1t3a4x3f1);stroke-width:1.0416666666666667;" width="100" x="23.4375" y="63.3382"/><rect codeLine="6" fill="none" height="61.2549" id="abstract" rx="4.1667" ry="4.1667" style="stroke:#2196F3;stroke-width:1.0416666666666667;" width="100" x="23.4375" y="22.9167"/><ellipse cx="38.0208" cy="45.2108" fill="none" rx="10.4167" ry="10.4167" style="stroke:#1A78C2;stroke-width:1.0416666666666667;"/><path d="M37.6139,42.1672 L36.7676,45.8944 L38.4766,45.8944 L37.6139,42.1672 Z M36.5234,40.5233 L38.7207,40.5233 L41.1784,49.6379 L39.3717,49.6379 L38.8184,47.3918 L36.4095,47.3918 L35.8561,49.6379 L34.0495,49.6379 L36.5234,40.5233 Z " fill="#FFFFFF"/><text fill="#FFFFFF" font-family="Verdana" font-size="11.4583" font-style="italic" lengthAdjust="spacing" textLength="47.9167" x="61.9792" y="49.1776">abstract</text><line style="stroke:#2196F3;stroke-width:1.0416666666666667;" x1="24.4792" x2="122.3958" y1="67.5049" y2="67.5049"/><line style="stroke:#2196F3;stroke-width:1.0416666666666667;" x1="24.4792" x2="122.3958" y1="75.8382" y2="75.8382"/></g><!--class abstract class--><g id="elem_abstract class"><rect codeLine="7" fill="url(#gqsoh1t3a4x3f0)" filter="url(#fqsoh1t3a4x3f)" height="61.2549" id="abstract class" rx="4.1667" ry="4.1667" style="stroke:#2196F3;stroke-width:1.0416666666666667;" width="133.3333" x="165.1042" y="22.9167"/><rect fill="url(#gqsoh1t3a4x3f1)" height="44.5882" rx="4.1667" ry="4.1667" style="stroke:url(#gqsoh1t3a4x3f1);stroke-width:1.0416666666666667;" width="133.3333" x="165.1042" y="22.9167"/><rect fill="url(#gqsoh1t3a4x3f1)" height="4.1667" style="stroke:url(#gqsoh1t3a4x3f1);stroke-width:1.0416666666666667;" width="133.3333" x="165.1042" y="63.3382"/><rect codeLine="7" fill="none" height="61.2549" id="abstract class" rx="4.1667" ry="4.1667" style="stroke:#2196F3;stroke-width:1.0416666666666667;" width="133.3333" x="165.1042" y="22.9167"/><ellipse cx="179.6875" cy="45.2108" fill="none" rx="10.4167" ry="10.4167" style="stroke:#1A78C2;stroke-width:1.0416666666666667;"/><path d="M179.2806,42.1672 L178.4342,45.8944 L180.1432,45.8944 L179.2806,42.1672 Z M178.1901,40.5233 L180.3874,40.5233 L182.8451,49.6379 L181.0384,49.6379 L180.485,47.3918 L178.0762,47.3918 L177.5228,49.6379 L175.7161,49.6379 L178.1901,40.5233 Z " fill="#FFFFFF"/><text fill="#FFFFFF" font-family="Verdana" font-size="11.4583" font-style="italic" lengthAdjust="spacing" textLength="81.25" x="203.6458" y="49.1776">abstract class</text><line style="stroke:#2196F3;stroke-width:1.0416666666666667;" x1="166.1458" x2="297.3958" y1="67.5049" y2="67.5049"/><line style="stroke:#2196F3;stroke-width:1.0416666666666667;" x1="166.1458" x2="297.3958" y1="75.8382" y2="75.8382"/></g><!--class annotation--><g id="elem_annotation"><rect codeLine="8" fill="url(#gqsoh1t3a4x3f0)" filter="url(#fqsoh1t3a4x3f)" height="61.2549" id="annotation" rx="4.1667" ry="4.1667" style="stroke:#2196F3;stroke-width:1.0416666666666667;" width="114.5833" x="340.1042" y="22.9167"/><rect fill="url(#gqsoh1t3a4x3f1)" height="44.5882" rx="4.1667" ry="4.1667" style="stroke:url(#gqsoh1t3a4x3f1);stroke-width:1.0416666666666667;" width="114.5833" x="340.1042" y="22.9167"/><rect fill="url(#gqsoh1t3a4x3f1)" height="4.1667" style="stroke:url(#gqsoh1t3a4x3f1);stroke-width:1.0416666666666667;" width="114.5833" x="340.1042" y="63.3382"/><rect codeLine="8" fill="none" height="61.2549" id="annotation" rx="4.1667" ry="4.1667" style="stroke:#2196F3;stroke-width:1.0416666666666667;" width="114.5833" x="340.1042" y="22.9167"/><ellipse cx="354.6875" cy="45.2108" fill="none" rx="10.4167" ry="10.4167" style="stroke:#1A78C2;stroke-width:1.0416666666666667;"/><path d="M355.9408,45.0155 Q355.9408,44.3156 355.6315,43.925 Q355.3223,43.5343 354.7689,43.5343 Q354.2318,43.5343 353.9225,43.925 Q353.6133,44.3156 353.6133,45.0155 Q353.6133,45.6991 353.9225,46.0897 Q354.2318,46.4803 354.7689,46.4803 Q355.3223,46.4803 355.6315,46.0897 Q355.9408,45.6991 355.9408,45.0155 Z M357.0801,47.5057 L355.8757,47.5057 L355.8757,47.0174 Q355.6478,47.3267 355.3223,47.4894 Q355.013,47.6359 354.5736,47.6359 Q353.5807,47.6359 352.9622,46.9198 Q352.3438,46.1873 352.3438,45.0155 Q352.3438,43.8273 352.946,43.1112 Q353.5645,42.395 354.5736,42.395 Q355.013,42.395 355.3385,42.5415 Q355.6641,42.688 355.8757,42.981 L355.8757,42.7368 Q355.8757,41.9067 355.4199,41.451 Q354.9642,40.9953 354.1341,40.9953 Q352.8646,40.9953 352.0508,42.1183 Q351.2533,43.2251 351.2533,45.0155 Q351.2533,46.8872 352.181,48.0103 Q353.1087,49.117 354.6549,49.117 Q355.1432,49.117 355.599,48.9705 Q356.0547,48.8241 356.4779,48.5311 L357.0313,49.6053 Q356.543,49.9471 355.957,50.1099 Q355.3711,50.2889 354.7201,50.2889 Q352.5716,50.2889 351.3021,48.8566 Q350.0326,47.4406 350.0326,45.0155 Q350.0326,42.6554 351.1719,41.2394 Q352.3275,39.8234 354.1992,39.8234 Q355.5339,39.8234 356.2988,40.6209 Q357.0801,41.4185 357.0801,42.8182 L357.0801,47.5057 Z " fill="#FFFFFF"/><text fill="#FFFFFF" font-family="Verdana" font-size="11.4583" lengthAdjust="spacing" textLength="62.5" x="378.6458" y="49.1776">annotation</text><line style="stroke:#2196F3;stroke-width:1.0416666666666667;" x1="341.1458" x2="453.6458" y1="67.5049" y2="67.5049"/><line style="stroke:#2196F3;stroke-width:1.0416666666666667;" x1="341.1458" x2="453.6458" y1="75.8382" y2="75.8382"/></g><!--entity circle--><g id="elem_circle"><ellipse cx="505.7292" cy="50.5208" fill="#B7161C" filter="url(#fqsoh1t3a4x3f)" rx="8.3333" ry="8.3333" style="stroke:#E51C23;stroke-width:1.0416666666666667;"/><text fill="#222222" font-family="Verdana" font-size="12.5" lengthAdjust="spacing" textLength="34.375" x="488.5417" y="90.2486">circle</text></g><!--entity circle_short_form--><g id="elem_circle_short_form"><ellipse cx="73.4375" cy="172.3958" fill="#B7161C" filter="url(#fqsoh1t3a4x3f)" rx="8.3333" ry="8.3333" style="stroke:#E51C23;stroke-width:1.0416666666666667;"/><text fill="#222222" font-family="Verdana" font-size="12.5" lengthAdjust="spacing" textLength="110.4167" x="18.2292" y="212.1236">circle_short_form</text></g><!--class class--><g id="elem_class"><rect codeLine="11" fill="url(#gqsoh1t3a4x3f0)" filter="url(#fqsoh1t3a4x3f)" height="61.2549" id="class" rx="4.1667" ry="4.1667" style="stroke:#2196F3;stroke-width:1.0416666666666667;" width="83.3333" x="124.4792" y="144.7917"/><rect fill="url(#gqsoh1t3a4x3f1)" height="44.5882" rx="4.1667" ry="4.1667" style="stroke:url(#gqsoh1t3a4x3f1);stroke-width:1.0416666666666667;" width="83.3333" x="124.4792" y="144.7917"/><rect fill="url(#gqsoh1t3a4x3f1)" height="4.1667" style="stroke:url(#gqsoh1t3a4x3f1);stroke-width:1.0416666666666667;" width="83.3333" x="124.4792" y="185.2132"/><rect codeLine="11" fill="none" height="61.2549" id="class" rx="4.1667" ry="4.1667" style="stroke:#2196F3;stroke-width:1.0416666666666667;" width="83.3333" x="124.4792" y="144.7917"/><ellipse cx="139.0625" cy="167.0858" fill="none" rx="10.4167" ry="10.4167" style="stroke:#1A78C2;stroke-width:1.0416666666666667;"/><path d="M140.9668,171.5129 Q140.5436,171.7244 140.0716,171.8384 Q139.5996,171.9523 139.0951,171.9523 Q137.2396,171.9523 136.263,170.7479 Q135.3027,169.5272 135.3027,167.2323 Q135.3027,164.9211 136.263,163.7166 Q137.2396,162.4959 139.0951,162.4959 Q139.5996,162.4959 140.0716,162.6099 Q140.5599,162.7075 140.9668,162.9354 L140.9668,164.9373 Q140.5111,164.5142 140.0716,164.3188 Q139.6322,164.1073 139.1764,164.1073 Q138.1836,164.1073 137.679,164.9048 Q137.1745,165.686 137.1745,167.2323 Q137.1745,168.7622 137.679,169.5435 Q138.1836,170.3247 139.1764,170.3247 Q139.6322,170.3247 140.0716,170.1294 Q140.5111,169.9341 140.9668,169.5109 L140.9668,171.5129 Z " fill="#FFFFFF"/><text fill="#FFFFFF" font-family="Verdana" font-size="11.4583" lengthAdjust="spacing" textLength="31.25" x="163.0208" y="171.0526">class</text><line style="stroke:#2196F3;stroke-width:1.0416666666666667;" x1="125.5208" x2="206.7708" y1="189.3799" y2="189.3799"/><line style="stroke:#2196F3;stroke-width:1.0416666666666667;" x1="125.5208" x2="206.7708" y1="197.7132" y2="197.7132"/></g><g id="elem_diamond"><polygon fill="url(#gqsoh1t3a4x3f2)" filter="url(#fqsoh1t3a4x3f)" points="261.9792,163.0208,274.4792,175.5208,261.9792,188.0208,249.4792,175.5208,261.9792,163.0208" style="stroke:#CCCCCC;stroke-width:1.0416666666666667;"/></g><polygon fill="url(#gqsoh1t3a4x3f2)" filter="url(#fqsoh1t3a4x3f)" points="328.6458,163.0208,341.1458,175.5208,328.6458,188.0208,316.1458,175.5208,328.6458,163.0208" style="stroke:#CCCCCC;stroke-width:1.0416666666666667;"/><!--class entity--><g id="elem_entity"><rect codeLine="14" fill="url(#gqsoh1t3a4x3f0)" filter="url(#fqsoh1t3a4x3f)" height="61.2549" id="entity" rx="4.1667" ry="4.1667" style="stroke:#2196F3;stroke-width:1.0416666666666667;" width="84.375" x="31.25" y="266.6667"/><rect fill="url(#gqsoh1t3a4x3f1)" height="44.5882" rx="4.1667" ry="4.1667" style="stroke:url(#gqsoh1t3a4x3f1);stroke-width:1.0416666666666667;" width="84.375" x="31.25" y="266.6667"/><rect fill="url(#gqsoh1t3a4x3f1)" height="4.1667" style="stroke:url(#gqsoh1t3a4x3f1);stroke-width:1.0416666666666667;" width="84.375" x="31.25" y="307.0882"/><rect codeLine="14" fill="none" height="61.2549" id="entity" rx="4.1667" ry="4.1667" style="stroke:#2196F3;stroke-width:1.0416666666666667;" width="84.375" x="31.25" y="266.6667"/><ellipse cx="45.8333" cy="288.9608" fill="none" rx="10.4167" ry="10.4167" style="stroke:#1A78C2;stroke-width:1.0416666666666667;"/><path d="M48.3724,293.6483 L42.6921,293.6483 L42.6921,284.5337 L48.3724,284.5337 L48.3724,286.1287 L44.4987,286.1287 L44.4987,288.0819 L47.998,288.0819 L47.998,289.6769 L44.4987,289.6769 L44.4987,292.0532 L48.3724,292.0532 L48.3724,293.6483 Z " fill="#FFFFFF"/><text fill="#FFFFFF" font-family="Verdana" font-size="11.4583" lengthAdjust="spacing" textLength="32.2917" x="69.7917" y="292.9276">entity</text><line style="stroke:#2196F3;stroke-width:1.0416666666666667;" x1="32.2917" x2="114.5833" y1="311.2549" y2="311.2549"/><line style="stroke:#2196F3;stroke-width:1.0416666666666667;" x1="32.2917" x2="114.5833" y1="319.5882" y2="319.5882"/></g><!--class enum--><g id="elem_enum"><rect codeLine="15" fill="url(#gqsoh1t3a4x3f0)" filter="url(#fqsoh1t3a4x3f)" height="61.2549" id="enum" rx="4.1667" ry="4.1667" style="stroke:#2196F3;stroke-width:1.0416666666666667;" width="85.4167" x="156.7708" y="266.6667"/><rect fill="url(#gqsoh1t3a4x3f1)" height="44.5882" rx="4.1667" ry="4.1667" style="stroke:url(#gqsoh1t3a4x3f1);stroke-width:1.0416666666666667;" width="85.4167" x="156.7708" y="266.6667"/><rect fill="url(#gqsoh1t3a4x3f1)" height="4.1667" style="stroke:url(#gqsoh1t3a4x3f1);stroke-width:1.0416666666666667;" width="85.4167" x="156.7708" y="307.0882"/><rect codeLine="15" fill="none" height="61.2549" id="enum" rx="4.1667" ry="4.1667" style="stroke:#2196F3;stroke-width:1.0416666666666667;" width="85.4167" x="156.7708" y="266.6667"/><ellipse cx="171.3542" cy="288.9608" fill="none" rx="10.4167" ry="10.4167" style="stroke:#1A78C2;stroke-width:1.0416666666666667;"/><path d="M173.8932,293.6483 L168.2129,293.6483 L168.2129,284.5337 L173.8932,284.5337 L173.8932,286.1287 L170.0195,286.1287 L170.0195,288.0819 L173.5189,288.0819 L173.5189,289.6769 L170.0195,289.6769 L170.0195,292.0532 L173.8932,292.0532 L173.8932,293.6483 Z " fill="#FFFFFF"/><text fill="#FFFFFF" font-family="Verdana" font-size="11.4583" lengthAdjust="spacing" textLength="33.3333" x="195.3125" y="292.9276">enum</text><line style="stroke:#2196F3;stroke-width:1.0416666666666667;" x1="157.8125" x2="241.1458" y1="311.2549" y2="311.2549"/><line style="stroke:#2196F3;stroke-width:1.0416666666666667;" x1="157.8125" x2="241.1458" y1="319.5882" y2="319.5882"/></g><!--class exception--><g id="elem_exception"><rect codeLine="16" fill="url(#gqsoh1t3a4x3f0)" filter="url(#fqsoh1t3a4x3f)" height="61.2549" id="exception" rx="4.1667" ry="4.1667" style="stroke:#2196F3;stroke-width:1.0416666666666667;" width="108.3333" x="283.8542" y="266.6667"/><rect fill="url(#gqsoh1t3a4x3f1)" height="44.5882" rx="4.1667" ry="4.1667" style="stroke:url(#gqsoh1t3a4x3f1);stroke-width:1.0416666666666667;" width="108.3333" x="283.8542" y="266.6667"/><rect fill="url(#gqsoh1t3a4x3f1)" height="4.1667" style="stroke:url(#gqsoh1t3a4x3f1);stroke-width:1.0416666666666667;" width="108.3333" x="283.8542" y="307.0882"/><rect codeLine="16" fill="none" height="61.2549" id="exception" rx="4.1667" ry="4.1667" style="stroke:#2196F3;stroke-width:1.0416666666666667;" width="108.3333" x="283.8542" y="266.6667"/><ellipse cx="298.4375" cy="288.9608" fill="none" rx="10.4167" ry="10.4167" style="stroke:#1A78C2;stroke-width:1.0416666666666667;"/><path d="M301.6276,293.6483 L299.7721,293.6483 L298.0306,290.6372 L296.3053,293.6483 L294.4336,293.6483 L297.1029,289.0259 L294.515,284.5337 L296.3704,284.5337 L298.0306,287.4308 L299.6908,284.5337 L301.5625,284.5337 L298.9746,289.0259 L301.6276,293.6483 Z " fill="#FFFFFF"/><text fill="#FFFFFF" font-family="Verdana" font-size="11.4583" lengthAdjust="spacing" textLength="56.25" x="322.3958" y="292.9276">exception</text><line style="stroke:#2196F3;stroke-width:1.0416666666666667;" x1="284.8958" x2="391.1458" y1="311.2549" y2="311.2549"/><line style="stroke:#2196F3;stroke-width:1.0416666666666667;" x1="284.8958" x2="391.1458" y1="319.5882" y2="319.5882"/></g><!--class interface--><g id="elem_interface"><rect codeLine="17" fill="url(#gqsoh1t3a4x3f0)" filter="url(#fqsoh1t3a4x3f)" height="61.2549" id="interface" rx="4.1667" ry="4.1667" style="stroke:#2196F3;stroke-width:1.0416666666666667;" width="104.1667" x="433.8542" y="266.6667"/><rect fill="url(#gqsoh1t3a4x3f1)" height="44.5882" rx="4.1667" ry="4.1667" style="stroke:url(#gqsoh1t3a4x3f1);stroke-width:1.0416666666666667;" width="104.1667" x="433.8542" y="266.6667"/><rect fill="url(#gqsoh1t3a4x3f1)" height="4.1667" style="stroke:url(#gqsoh1t3a4x3f1);stroke-width:1.0416666666666667;" width="104.1667" x="433.8542" y="307.0882"/><rect codeLine="17" fill="none" height="61.2549" id="interface" rx="4.1667" ry="4.1667" style="stroke:#2196F3;stroke-width:1.0416666666666667;" width="104.1667" x="433.8542" y="266.6667"/><ellipse cx="448.4375" cy="288.9608" fill="none" rx="10.4167" ry="10.4167" style="stroke:#1A78C2;stroke-width:1.0416666666666667;"/><path d="M445.3288,286.1287 L445.3288,284.5337 L450.7487,284.5337 L450.7487,286.1287 L448.9421,286.1287 L448.9421,292.0532 L450.7487,292.0532 L450.7487,293.6483 L445.3288,293.6483 L445.3288,292.0532 L447.1354,292.0532 L447.1354,286.1287 L445.3288,286.1287 Z " fill="#FFFFFF"/><text fill="#FFFFFF" font-family="Verdana" font-size="11.4583" font-style="italic" lengthAdjust="spacing" textLength="52.0833" x="472.3958" y="292.9276">interface</text><line style="stroke:#2196F3;stroke-width:1.0416666666666667;" x1="434.8958" x2="536.9792" y1="311.2549" y2="311.2549"/><line style="stroke:#2196F3;stroke-width:1.0416666666666667;" x1="434.8958" x2="536.9792" y1="319.5882" y2="319.5882"/></g><!--class metaclass--><g id="elem_metaclass"><rect codeLine="18" fill="url(#gqsoh1t3a4x3f0)" filter="url(#fqsoh1t3a4x3f)" height="61.2549" id="metaclass" rx="4.1667" ry="4.1667" style="stroke:#2196F3;stroke-width:1.0416666666666667;" width="113.5417" x="16.6667" y="388.5417"/><rect fill="url(#gqsoh1t3a4x3f1)" height="44.5882" rx="4.1667" ry="4.1667" style="stroke:url(#gqsoh1t3a4x3f1);stroke-width:1.0416666666666667;" width="113.5417" x="16.6667" y="388.5417"/><rect fill="url(#gqsoh1t3a4x3f1)" height="4.1667" style="stroke:url(#gqsoh1t3a4x3f1);stroke-width:1.0416666666666667;" width="113.5417" x="16.6667" y="428.9632"/><rect codeLine="18" fill="none" height="61.2549" id="metaclass" rx="4.1667" ry="4.1667" style="stroke:#2196F3;stroke-width:1.0416666666666667;" width="113.5417" x="16.6667" y="388.5417"/><ellipse cx="31.25" cy="410.8358" fill="none" rx="10.4167" ry="10.4167" style="stroke:#1A78C2;stroke-width:1.0416666666666667;"/><path d="M27.6042,406.4087 L29.7526,406.4087 L30.8431,410.4126 L31.9173,406.4087 L34.082,406.4087 L34.082,415.5233 L32.5358,415.5233 L32.5358,408.2153 L31.5755,412.203 L30.1432,412.203 L29.1667,408.2153 L29.1667,415.5233 L27.6042,415.5233 L27.6042,406.4087 Z " fill="#FFFFFF"/><text fill="#FFFFFF" font-family="Verdana" font-size="11.4583" lengthAdjust="spacing" textLength="61.4583" x="55.2083" y="414.8026">metaclass</text><line style="stroke:#2196F3;stroke-width:1.0416666666666667;" x1="17.7083" x2="129.1667" y1="433.1299" y2="433.1299"/><line style="stroke:#2196F3;stroke-width:1.0416666666666667;" x1="17.7083" x2="129.1667" y1="441.4632" y2="441.4632"/></g><!--class protocol--><g id="elem_protocol"><rect codeLine="19" fill="url(#gqsoh1t3a4x3f0)" filter="url(#fqsoh1t3a4x3f)" height="61.2549" id="protocol" rx="4.1667" ry="4.1667" style="stroke:#2196F3;stroke-width:1.0416666666666667;" width="100" x="171.3542" y="388.5417"/><rect fill="url(#gqsoh1t3a4x3f1)" height="44.5882" rx="4.1667" ry="4.1667" style="stroke:url(#gqsoh1t3a4x3f1);stroke-width:1.0416666666666667;" width="100" x="171.3542" y="388.5417"/><rect fill="url(#gqsoh1t3a4x3f1)" height="4.1667" style="stroke:url(#gqsoh1t3a4x3f1);stroke-width:1.0416666666666667;" width="100" x="171.3542" y="428.9632"/><rect codeLine="19" fill="none" height="61.2549" id="protocol" rx="4.1667" ry="4.1667" style="stroke:#2196F3;stroke-width:1.0416666666666667;" width="100" x="171.3542" y="388.5417"/><ellipse cx="185.9375" cy="410.8358" fill="none" rx="10.4167" ry="10.4167" style="stroke:#1A78C2;stroke-width:1.0416666666666667;"/><path d="M185.0749,407.9224 L185.0749,410.5916 L185.8236,410.5916 Q186.7025,410.5916 187.0605,410.2987 Q187.4186,410.0057 187.4186,409.257 Q187.4186,408.5246 187.0605,408.2316 Q186.7025,407.9224 185.8236,407.9224 L185.0749,407.9224 Z M183.2845,406.4087 L185.7585,406.4087 Q187.6465,406.4087 188.4603,407.0923 Q189.2904,407.7596 189.2904,409.257 Q189.2904,410.7707 188.4603,411.438 Q187.6465,412.1053 185.7585,412.1053 L185.0749,412.1053 L185.0749,415.5233 L183.2845,415.5233 L183.2845,406.4087 Z " fill="#FFFFFF"/><text fill="#FFFFFF" font-family="Verdana" font-size="11.4583" lengthAdjust="spacing" textLength="47.9167" x="209.8958" y="414.8026">protocol</text><line style="stroke:#2196F3;stroke-width:1.0416666666666667;" x1="172.3958" x2="270.3125" y1="433.1299" y2="433.1299"/><line style="stroke:#2196F3;stroke-width:1.0416666666666667;" x1="172.3958" x2="270.3125" y1="441.4632" y2="441.4632"/></g><!--class stereotype--><g id="elem_stereotype"><rect codeLine="20" fill="url(#gqsoh1t3a4x3f0)" filter="url(#fqsoh1t3a4x3f)" height="61.2549" id="stereotype" rx="4.1667" ry="4.1667" style="stroke:#2196F3;stroke-width:1.0416666666666667;" width="115.625" x="312.5" y="388.5417"/><rect fill="url(#gqsoh1t3a4x3f1)" height="44.5882" rx="4.1667" ry="4.1667" style="stroke:url(#gqsoh1t3a4x3f1);stroke-width:1.0416666666666667;" width="115.625" x="312.5" y="388.5417"/><rect fill="url(#gqsoh1t3a4x3f1)" height="4.1667" style="stroke:url(#gqsoh1t3a4x3f1);stroke-width:1.0416666666666667;" width="115.625" x="312.5" y="428.9632"/><rect codeLine="20" fill="none" height="61.2549" id="stereotype" rx="4.1667" ry="4.1667" style="stroke:#2196F3;stroke-width:1.0416666666666667;" width="115.625" x="312.5" y="388.5417"/><ellipse cx="327.0833" cy="410.8358" fill="none" rx="10.4167" ry="10.4167" style="stroke:#1A78C2;stroke-width:1.0416666666666667;"/><path d="M326.0254,411.5194 Q324.6745,410.9985 324.1862,410.4289 Q323.6979,409.8592 323.6979,408.8989 Q323.6979,407.6619 324.4954,406.9621 Q325.293,406.2459 326.6764,406.2459 Q327.3112,406.2459 327.9297,406.3924 Q328.5645,406.5389 329.1829,406.8156 L329.1829,408.5734 Q328.597,408.1665 327.9948,407.9549 Q327.4089,407.7271 326.8229,407.7271 Q326.1719,407.7271 325.8138,408.0037 Q325.472,408.2642 325.472,408.7524 Q325.472,409.1268 325.7161,409.3709 Q325.9766,409.6151 326.7741,409.9243 L327.5553,410.2173 Q328.6621,410.6079 329.1667,411.2752 Q329.6875,411.9425 329.6875,412.9517 Q329.6875,414.3351 328.8737,415.0187 Q328.0599,415.7023 326.416,415.7023 Q325.7324,415.7023 325.0488,415.5396 Q324.3815,415.3768 323.7467,415.0513 L323.7467,413.1958 Q324.4629,413.7166 325.1302,413.9608 Q325.8138,414.2049 326.4648,414.2049 Q327.1322,414.2049 327.4902,413.9119 Q327.8646,413.6027 327.8646,413.0656 Q327.8646,412.6587 327.6204,412.3494 Q327.3763,412.0402 326.9206,411.8612 L326.0254,411.5194 Z " fill="#FFFFFF"/><text fill="#FFFFFF" font-family="Verdana" font-size="11.4583" lengthAdjust="spacing" textLength="63.5417" x="351.0417" y="414.8026">stereotype</text><line style="stroke:#2196F3;stroke-width:1.0416666666666667;" x1="313.5417" x2="427.0833" y1="433.1299" y2="433.1299"/><line style="stroke:#2196F3;stroke-width:1.0416666666666667;" x1="313.5417" x2="427.0833" y1="441.4632" y2="441.4632"/></g><!--class struct--><g id="elem_struct"><rect codeLine="21" fill="url(#gqsoh1t3a4x3f0)" filter="url(#fqsoh1t3a4x3f)" height="61.2549" id="struct" rx="4.1667" ry="4.1667" style="stroke:#2196F3;stroke-width:1.0416666666666667;" width="86.4583" x="469.7917" y="388.5417"/><rect fill="url(#gqsoh1t3a4x3f1)" height="44.5882" rx="4.1667" ry="4.1667" style="stroke:url(#gqsoh1t3a4x3f1);stroke-width:1.0416666666666667;" width="86.4583" x="469.7917" y="388.5417"/><rect fill="url(#gqsoh1t3a4x3f1)" height="4.1667" style="stroke:url(#gqsoh1t3a4x3f1);stroke-width:1.0416666666666667;" width="86.4583" x="469.7917" y="428.9632"/><rect codeLine="21" fill="none" height="61.2549" id="struct" rx="4.1667" ry="4.1667" style="stroke:#2196F3;stroke-width:1.0416666666666667;" width="86.4583" x="469.7917" y="388.5417"/><ellipse cx="484.375" cy="410.8358" fill="none" rx="10.4167" ry="10.4167" style="stroke:#1A78C2;stroke-width:1.0416666666666667;"/><path d="M483.3171,411.5194 Q481.9661,410.9985 481.4779,410.4289 Q480.9896,409.8592 480.9896,408.8989 Q480.9896,407.6619 481.7871,406.9621 Q482.5846,406.2459 483.9681,406.2459 Q484.6029,406.2459 485.2214,406.3924 Q485.8561,406.5389 486.4746,406.8156 L486.4746,408.5734 Q485.8887,408.1665 485.2865,407.9549 Q484.7005,407.7271 484.1146,407.7271 Q483.4635,407.7271 483.1055,408.0037 Q482.7637,408.2642 482.7637,408.7524 Q482.7637,409.1268 483.0078,409.3709 Q483.2682,409.6151 484.0658,409.9243 L484.847,410.2173 Q485.9538,410.6079 486.4583,411.2752 Q486.9792,411.9425 486.9792,412.9517 Q486.9792,414.3351 486.1654,415.0187 Q485.3516,415.7023 483.7077,415.7023 Q483.0241,415.7023 482.3405,415.5396 Q481.6732,415.3768 481.0384,415.0513 L481.0384,413.1958 Q481.7546,413.7166 482.4219,413.9608 Q483.1055,414.2049 483.7565,414.2049 Q484.4238,414.2049 484.7819,413.9119 Q485.1563,413.6027 485.1563,413.0656 Q485.1563,412.6587 484.9121,412.3494 Q484.668,412.0402 484.2122,411.8612 L483.3171,411.5194 Z " fill="#FFFFFF"/><text fill="#FFFFFF" font-family="Verdana" font-size="11.4583" lengthAdjust="spacing" textLength="34.375" x="508.3333" y="414.8026">struct</text><line style="stroke:#2196F3;stroke-width:1.0416666666666667;" x1="470.8333" x2="555.2083" y1="433.1299" y2="433.1299"/><line style="stroke:#2196F3;stroke-width:1.0416666666666667;" x1="470.8333" x2="555.2083" y1="441.4632" y2="441.4632"/></g></g></svg>