<?xml version="1.0" encoding="UTF-8" standalone="no"?><svg xmlns="http://www.w3.org/2000/svg" xmlns:xlink="http://www.w3.org/1999/xlink" contentScriptType="application/ecmascript" contentStyleType="text/css" height="396.875px" preserveAspectRatio="none" style="width:537px;height:396px;background:#00000000;" version="1.1" viewBox="0 0 537 396" width="537.5px" zoomAndPan="magnify"><defs><linearGradient id="grkrkjterrodn0" x1="50%" x2="50%" y1="0%" y2="100%"><stop offset="0%" stop-color="#FFFFFF"/><stop offset="100%" stop-color="#FFFFFF"/></linearGradient><linearGradient id="grkrkjterrodn1" x1="50%" x2="50%" y1="0%" y2="100%"><stop offset="0%" stop-color="#4DABF5"/><stop offset="100%" stop-color="#2196F3"/></linearGradient><filter height="300%" id="frkrkjterrodn" width="300%" x="-1" y="-1"><feGaussianBlur result="blurOut" stdDeviation="2.0833333333333335"/><feColorMatrix in="blurOut" result="blurOut2" type="matrix" values="0 0 0 0 0 0 0 0 0 0 0 0 0 0 0 0 0 0 .4 0"/><feOffset dx="4.166666666666667" dy="4.166666666666667" in="blurOut2" result="blurOut3"/><feBlend in="SourceGraphic" in2="blurOut3" mode="normal"/></filter><linearGradient id="grkrkjterrodn2" x1="50%" x2="50%" y1="0%" y2="100%"><stop offset="0%" stop-color="#2196F3"/><stop offset="100%" stop-color="#1A78C2"/></linearGradient></defs><g><rect fill="url(#grkrkjterrodn0)" height="55.5013" rx="4.1667" ry="4.1667" style="stroke:#CCCCCC;stroke-width:1.0416666666666667;" width="192.7083" x="165.3646" y="2.0833"/><text fill="#2196F3" font-family="Verdana" font-size="20.8333" lengthAdjust="spacing" textLength="155.2083" x="184.1146" y="37.0463">materia theme</text><!--MD5=[f7e826e1488aa6662a4b5ddfe29b6b3b]
class abstract--><rect codeLine="7" fill="url(#grkrkjterrodn1)" filter="url(#frkrkjterrodn)" height="62.4674" id="abstract" rx="4.1667" ry="4.1667" style="stroke:#2196F3;stroke-width:1.0416666666666667;" width="106.25" x="8.3333" y="74.2188"/><rect fill="url(#grkrkjterrodn2)" height="45.8008" rx="4.1667" ry="4.1667" style="stroke:url(#grkrkjterrodn2);stroke-width:1.0416666666666667;" width="106.25" x="8.3333" y="74.2188"/><rect fill="url(#grkrkjterrodn2)" height="4.1667" style="stroke:url(#grkrkjterrodn2);stroke-width:1.0416666666666667;" width="106.25" x="8.3333" y="115.8529"/><rect codeLine="7" fill="none" height="62.4674" id="abstract" rx="4.1667" ry="4.1667" style="stroke:#2196F3;stroke-width:1.0416666666666667;" width="106.25" x="8.3333" y="74.2188"/><ellipse cx="22.9167" cy="97.1191" fill="#70BF73" rx="10.4167" ry="10.4167" style="stroke:#3D8C40;stroke-width:1.0416666666666667;"/><path d="M22.5098,94.0755 L21.6634,97.8027 L23.3724,97.8027 L22.5098,94.0755 Z M21.4193,92.4316 L23.6165,92.4316 L26.0742,101.5462 L24.2676,101.5462 L23.7142,99.3001 L21.3053,99.3001 L20.752,101.5462 L18.9453,101.5462 L21.4193,92.4316 Z " fill="#000000"/><text fill="#FFFFFF" font-family="Verdana" font-size="12.5" font-style="italic" lengthAdjust="spacing" textLength="54.1667" x="46.875" y="101.4465">abstract</text><line style="stroke:#2196F3;stroke-width:1.0416666666666667;" x1="9.375" x2="113.5417" y1="120.0195" y2="120.0195"/><line style="stroke:#2196F3;stroke-width:1.0416666666666667;" x1="9.375" x2="113.5417" y1="128.3529" y2="128.3529"/><!--MD5=[17df400e90568e28eeaed93acf178394]
class abstract class--><rect codeLine="8" fill="url(#grkrkjterrodn1)" filter="url(#frkrkjterrodn)" height="62.4674" id="abstract class" rx="4.1667" ry="4.1667" style="stroke:#2196F3;stroke-width:1.0416666666666667;" width="141.6667" x="156.25" y="74.2188"/><rect fill="url(#grkrkjterrodn2)" height="45.8008" rx="4.1667" ry="4.1667" style="stroke:url(#grkrkjterrodn2);stroke-width:1.0416666666666667;" width="141.6667" x="156.25" y="74.2188"/><rect fill="url(#grkrkjterrodn2)" height="4.1667" style="stroke:url(#grkrkjterrodn2);stroke-width:1.0416666666666667;" width="141.6667" x="156.25" y="115.8529"/><rect codeLine="8" fill="none" height="62.4674" id="abstract class" rx="4.1667" ry="4.1667" style="stroke:#2196F3;stroke-width:1.0416666666666667;" width="141.6667" x="156.25" y="74.2188"/><ellipse cx="170.8333" cy="97.1191" fill="#70BF73" rx="10.4167" ry="10.4167" style="stroke:#3D8C40;stroke-width:1.0416666666666667;"/><path d="M170.4264,94.0755 L169.5801,97.8027 L171.2891,97.8027 L170.4264,94.0755 Z M169.3359,92.4316 L171.5332,92.4316 L173.9909,101.5462 L172.1842,101.5462 L171.6309,99.3001 L169.222,99.3001 L168.6686,101.5462 L166.862,101.5462 L169.3359,92.4316 Z " fill="#000000"/><text fill="#FFFFFF" font-family="Verdana" font-size="12.5" font-style="italic" lengthAdjust="spacing" textLength="89.5833" x="194.7917" y="101.4465">abstract class</text><line style="stroke:#2196F3;stroke-width:1.0416666666666667;" x1="157.2917" x2="296.875" y1="120.0195" y2="120.0195"/><line style="stroke:#2196F3;stroke-width:1.0416666666666667;" x1="157.2917" x2="296.875" y1="128.3529" y2="128.3529"/><!--MD5=[7cb74e68c9f11cf3f5cc35e0143045f8]
class annotation--><rect codeLine="9" fill="url(#grkrkjterrodn1)" filter="url(#frkrkjterrodn)" height="62.4674" id="annotation" rx="4.1667" ry="4.1667" style="stroke:#2196F3;stroke-width:1.0416666666666667;" width="123.9583" x="339.0625" y="74.2188"/><rect fill="url(#grkrkjterrodn2)" height="45.8008" rx="4.1667" ry="4.1667" style="stroke:url(#grkrkjterrodn2);stroke-width:1.0416666666666667;" width="123.9583" x="339.0625" y="74.2188"/><rect fill="url(#grkrkjterrodn2)" height="4.1667" style="stroke:url(#grkrkjterrodn2);stroke-width:1.0416666666666667;" width="123.9583" x="339.0625" y="115.8529"/><rect codeLine="9" fill="none" height="62.4674" id="annotation" rx="4.1667" ry="4.1667" style="stroke:#2196F3;stroke-width:1.0416666666666667;" width="123.9583" x="339.0625" y="74.2188"/><ellipse cx="353.6458" cy="97.1191" fill="#B052C0" rx="10.4167" ry="10.4167" style="stroke:#7D1F8D;stroke-width:1.0416666666666667;"/><path d="M354.8991,96.9238 Q354.8991,96.224 354.5898,95.8333 Q354.2806,95.4427 353.7272,95.4427 Q353.1901,95.4427 352.8809,95.8333 Q352.5716,96.224 352.5716,96.9238 Q352.5716,97.6074 352.8809,97.998 Q353.1901,98.3887 353.7272,98.3887 Q354.2806,98.3887 354.5898,97.998 Q354.8991,97.6074 354.8991,96.9238 Z M356.0384,99.4141 L354.834,99.4141 L354.834,98.9258 Q354.6061,99.235 354.2806,99.3978 Q353.9714,99.5443 353.5319,99.5443 Q352.5391,99.5443 351.9206,98.8281 Q351.3021,98.0957 351.3021,96.9238 Q351.3021,95.7357 351.9043,95.0195 Q352.5228,94.3034 353.5319,94.3034 Q353.9714,94.3034 354.2969,94.4499 Q354.6224,94.5964 354.834,94.8893 L354.834,94.6452 Q354.834,93.8151 354.3783,93.3594 Q353.9225,92.9036 353.0924,92.9036 Q351.8229,92.9036 351.0091,94.0267 Q350.2116,95.1335 350.2116,96.9238 Q350.2116,98.7956 351.1393,99.9186 Q352.0671,101.0254 353.6133,101.0254 Q354.1016,101.0254 354.5573,100.8789 Q355.013,100.7324 355.4362,100.4395 L355.9896,101.5137 Q355.5013,101.8555 354.9154,102.0182 Q354.3294,102.1973 353.6784,102.1973 Q351.5299,102.1973 350.2604,100.765 Q348.9909,99.349 348.9909,96.9238 Q348.9909,94.5638 350.1302,93.1478 Q351.2858,91.7318 353.1576,91.7318 Q354.4922,91.7318 355.2572,92.5293 Q356.0384,93.3268 356.0384,94.7266 L356.0384,99.4141 Z " fill="#000000"/><text fill="#FFFFFF" font-family="Verdana" font-size="12.5" lengthAdjust="spacing" textLength="71.875" x="377.6042" y="101.4465">annotation</text><line style="stroke:#2196F3;stroke-width:1.0416666666666667;" x1="340.1042" x2="461.9792" y1="120.0195" y2="120.0195"/><line style="stroke:#2196F3;stroke-width:1.0416666666666667;" x1="340.1042" x2="461.9792" y1="128.3529" y2="128.3529"/><!--MD5=[da456bc05ddb284180092693c9c3b3b1]
entity circle--><ellipse cx="513.5417" cy="102.3438" fill="#B7161C" filter="url(#frkrkjterrodn)" rx="8.3333" ry="8.3333" style="stroke:#E51C23;stroke-width:1.5625;"/><text fill="#222222" font-family="Verdana" font-size="12.5" lengthAdjust="spacing" textLength="34.375" x="496.3542" y="142.0715">circle</text><!--MD5=[87adb442a9baea16d5e9c4faa47d2afb]
entity circle_short_form--><ellipse cx="61.4583" cy="225.2604" fill="#B7161C" filter="url(#frkrkjterrodn)" rx="8.3333" ry="8.3333" style="stroke:#E51C23;stroke-width:1.5625;"/><text fill="#222222" font-family="Verdana" font-size="12.5" lengthAdjust="spacing" textLength="110.4167" x="6.25" y="264.9882">circle_short_form</text><!--MD5=[c4c892d05414254cdeba8adc63897f88]
class class--><rect codeLine="12" fill="url(#grkrkjterrodn1)" filter="url(#frkrkjterrodn)" height="62.4674" id="class" rx="4.1667" ry="4.1667" style="stroke:#2196F3;stroke-width:1.0416666666666667;" width="85.4167" x="112.5" y="197.1354"/><rect fill="url(#grkrkjterrodn2)" height="45.8008" rx="4.1667" ry="4.1667" style="stroke:url(#grkrkjterrodn2);stroke-width:1.0416666666666667;" width="85.4167" x="112.5" y="197.1354"/><rect fill="url(#grkrkjterrodn2)" height="4.1667" style="stroke:url(#grkrkjterrodn2);stroke-width:1.0416666666666667;" width="85.4167" x="112.5" y="238.7695"/><rect codeLine="12" fill="none" height="62.4674" id="class" rx="4.1667" ry="4.1667" style="stroke:#2196F3;stroke-width:1.0416666666666667;" width="85.4167" x="112.5" y="197.1354"/><ellipse cx="127.0833" cy="220.0358" fill="#FFFFFF" rx="10.4167" ry="10.4167" style="stroke:#CCCCCC;stroke-width:1.0416666666666667;"/><path d="M128.9876,224.4629 Q128.5645,224.6745 128.0924,224.7884 Q127.6204,224.9023 127.1159,224.9023 Q125.2604,224.9023 124.2839,223.6979 Q123.3236,222.4772 123.3236,220.1823 Q123.3236,217.8711 124.2839,216.6667 Q125.2604,215.446 127.1159,215.446 Q127.6204,215.446 128.0924,215.5599 Q128.5807,215.6576 128.9876,215.8854 L128.9876,217.8874 Q128.5319,217.4642 128.0924,217.2689 Q127.653,217.0573 127.1973,217.0573 Q126.2044,217.0573 125.6999,217.8548 Q125.1953,218.6361 125.1953,220.1823 Q125.1953,221.7122 125.6999,222.4935 Q126.2044,223.2747 127.1973,223.2747 Q127.653,223.2747 128.0924,223.0794 Q128.5319,222.8841 128.9876,222.4609 L128.9876,224.4629 Z " fill="#000000"/><text fill="#FFFFFF" font-family="Verdana" font-size="12.5" lengthAdjust="spacing" textLength="33.3333" x="151.0417" y="224.3632">class</text><line style="stroke:#2196F3;stroke-width:1.0416666666666667;" x1="113.5417" x2="196.875" y1="242.9362" y2="242.9362"/><line style="stroke:#2196F3;stroke-width:1.0416666666666667;" x1="113.5417" x2="196.875" y1="251.2695" y2="251.2695"/><polygon fill="url(#grkrkjterrodn0)" filter="url(#frkrkjterrodn)" points="252.0833,215.8854,264.5833,228.3854,252.0833,240.8854,239.5833,228.3854,252.0833,215.8854" style="stroke:#CCCCCC;stroke-width:1.5625;"/><polygon fill="url(#grkrkjterrodn1)" filter="url(#frkrkjterrodn)" points="318.75,215.8854,331.25,228.3854,318.75,240.8854,306.25,228.3854,318.75,215.8854" style="stroke:#2196F3;stroke-width:1.5625;"/><!--MD5=[467568f20bbf29da492dca29e9e0779e]
class entity--><rect codeLine="15" fill="url(#grkrkjterrodn1)" filter="url(#frkrkjterrodn)" height="62.4674" id="entity" rx="4.1667" ry="4.1667" style="stroke:#2196F3;stroke-width:1.0416666666666667;" width="88.5417" x="17.1875" y="320.0521"/><rect fill="url(#grkrkjterrodn2)" height="45.8008" rx="4.1667" ry="4.1667" style="stroke:url(#grkrkjterrodn2);stroke-width:1.0416666666666667;" width="88.5417" x="17.1875" y="320.0521"/><rect fill="url(#grkrkjterrodn2)" height="4.1667" style="stroke:url(#grkrkjterrodn2);stroke-width:1.0416666666666667;" width="88.5417" x="17.1875" y="361.6862"/><rect codeLine="15" fill="none" height="62.4674" id="entity" rx="4.1667" ry="4.1667" style="stroke:#2196F3;stroke-width:1.0416666666666667;" width="88.5417" x="17.1875" y="320.0521"/><ellipse cx="31.7708" cy="342.9525" fill="#FFFFFF" rx="10.4167" ry="10.4167" style="stroke:#CCCCCC;stroke-width:1.0416666666666667;"/><path d="M34.3099,347.64 L28.6296,347.64 L28.6296,338.5254 L34.3099,338.5254 L34.3099,340.1204 L30.4362,340.1204 L30.4362,342.0736 L33.9355,342.0736 L33.9355,343.6686 L30.4362,343.6686 L30.4362,346.0449 L34.3099,346.0449 L34.3099,347.64 Z " fill="#000000"/><text fill="#FFFFFF" font-family="Verdana" font-size="12.5" lengthAdjust="spacing" textLength="36.4583" x="55.7292" y="347.2799">entity</text><line style="stroke:#2196F3;stroke-width:1.0416666666666667;" x1="18.2292" x2="104.6875" y1="365.8529" y2="365.8529"/><line style="stroke:#2196F3;stroke-width:1.0416666666666667;" x1="18.2292" x2="104.6875" y1="374.1862" y2="374.1862"/><!--MD5=[b1bf79d8358773e9ea7a3730761a57e9]
class enum--><rect codeLine="16" fill="url(#grkrkjterrodn1)" filter="url(#frkrkjterrodn)" height="62.4674" id="enum" rx="4.1667" ry="4.1667" style="stroke:#2196F3;stroke-width:1.0416666666666667;" width="88.5417" x="147.3958" y="320.0521"/><rect fill="url(#grkrkjterrodn2)" height="45.8008" rx="4.1667" ry="4.1667" style="stroke:url(#grkrkjterrodn2);stroke-width:1.0416666666666667;" width="88.5417" x="147.3958" y="320.0521"/><rect fill="url(#grkrkjterrodn2)" height="4.1667" style="stroke:url(#grkrkjterrodn2);stroke-width:1.0416666666666667;" width="88.5417" x="147.3958" y="361.6862"/><rect codeLine="16" fill="none" height="62.4674" id="enum" rx="4.1667" ry="4.1667" style="stroke:#2196F3;stroke-width:1.0416666666666667;" width="88.5417" x="147.3958" y="320.0521"/><ellipse cx="161.9792" cy="342.9525" fill="#FFAD33" rx="10.4167" ry="10.4167" style="stroke:#CC7A00;stroke-width:1.0416666666666667;"/><path d="M164.5182,347.64 L158.8379,347.64 L158.8379,338.5254 L164.5182,338.5254 L164.5182,340.1204 L160.6445,340.1204 L160.6445,342.0736 L164.1439,342.0736 L164.1439,343.6686 L160.6445,343.6686 L160.6445,346.0449 L164.5182,346.0449 L164.5182,347.64 Z " fill="#000000"/><text fill="#FFFFFF" font-family="Verdana" font-size="12.5" lengthAdjust="spacing" textLength="36.4583" x="185.9375" y="347.2799">enum</text><line style="stroke:#2196F3;stroke-width:1.0416666666666667;" x1="148.4375" x2="234.8958" y1="365.8529" y2="365.8529"/><line style="stroke:#2196F3;stroke-width:1.0416666666666667;" x1="148.4375" x2="234.8958" y1="374.1862" y2="374.1862"/><!--MD5=[d9847530b5dea828dbcbb50914b76f30]
class interface--><rect codeLine="17" fill="url(#grkrkjterrodn1)" filter="url(#frkrkjterrodn)" height="62.4674" id="interface" rx="4.1667" ry="4.1667" style="stroke:#2196F3;stroke-width:1.0416666666666667;" width="110.4167" x="277.0833" y="320.0521"/><rect fill="url(#grkrkjterrodn2)" height="45.8008" rx="4.1667" ry="4.1667" style="stroke:url(#grkrkjterrodn2);stroke-width:1.0416666666666667;" width="110.4167" x="277.0833" y="320.0521"/><rect fill="url(#grkrkjterrodn2)" height="4.1667" style="stroke:url(#grkrkjterrodn2);stroke-width:1.0416666666666667;" width="110.4167" x="277.0833" y="361.6862"/><rect codeLine="17" fill="none" height="62.4674" id="interface" rx="4.1667" ry="4.1667" style="stroke:#2196F3;stroke-width:1.0416666666666667;" width="110.4167" x="277.0833" y="320.0521"/><ellipse cx="291.6667" cy="342.9525" fill="#B7161C" rx="10.4167" ry="10.4167" style="stroke:#B7161C;stroke-width:1.0416666666666667;"/><path d="M288.5579,340.1204 L288.5579,338.5254 L293.9779,338.5254 L293.9779,340.1204 L292.1712,340.1204 L292.1712,346.0449 L293.9779,346.0449 L293.9779,347.64 L288.5579,347.64 L288.5579,346.0449 L290.3646,346.0449 L290.3646,340.1204 L288.5579,340.1204 Z " fill="#000000"/><text fill="#FFFFFF" font-family="Verdana" font-size="12.5" font-style="italic" lengthAdjust="spacing" textLength="58.3333" x="315.625" y="347.2799">interface</text><line style="stroke:#2196F3;stroke-width:1.0416666666666667;" x1="278.125" x2="386.4583" y1="365.8529" y2="365.8529"/><line style="stroke:#2196F3;stroke-width:1.0416666666666667;" x1="278.125" x2="386.4583" y1="374.1862" y2="374.1862"/></g></svg>