<?xml version="1.0" encoding="us-ascii" standalone="no"?><svg xmlns="http://www.w3.org/2000/svg" xmlns:xlink="http://www.w3.org/1999/xlink" contentStyleType="text/css" height="413.5417px" preserveAspectRatio="none" style="width:627px;height:413px;" version="1.1" viewBox="0 0 627 413" width="627.0833px" zoomAndPan="magnify"><defs/><g><!--class abstract--><g id="elem_abstract"><polygon fill="none" points="28.6458,22.9167,28.6458,23.1356,38.8021,22.4851,48.9583,23.118,59.1146,23.333,69.2708,22.1735,79.4271,22.8357,89.5833,22.4724,99.7396,22.5172,109.8958,22.9167,109.8868,22.8948,110.3932,22.939,111.1479,23.5824,111.5799,23.4467,112.2266,23.8295,112.8421,24.1371,112.9807,24.1945,113.0587,24.7149,113.3522,25.3246,113.5641,25.9006,113.8757,26.5178,114.0625,27.0833,114.1455,27.0833,114.2659,35.5843,114.2955,44.0853,114.2984,52.5863,114.1509,61.0872,114.0625,69.5882,114.2112,69.6498,114.0437,70.2708,113.343,70.6709,113.5479,71.4461,112.9911,71.9058,112.8421,72.5345,112.913,72.7057,112.1871,72.6198,111.6545,73.0007,111.1729,73.5046,110.4786,73.4952,109.8958,73.7549,109.8958,73.8646,99.7396,74.1076,89.5833,74.1885,79.4271,73.7508,69.2708,74.0541,59.1146,73.1586,48.9583,74.0511,38.8021,74.3259,28.6458,73.7549,28.7049,73.8975,28.138,73.7075,27.4031,73.1118,26.7914,72.8134,26.2062,72.5792,25.6996,72.5345,25.6807,72.5267,25.3924,71.9191,25.43,71.4465,24.9113,70.7435,24.6132,70.1319,24.4792,69.5882,24.5584,69.5882,24.2476,61.0872,24.2989,52.5863,24.7045,44.0853,24.6304,35.5843,24.4792,27.0833,24.7148,27.1809,24.62,26.4513,25.0697,25.9472,25.4008,25.394,25.3039,24.6635,25.6996,24.1371,25.6868,24.1063,26.3056,23.9334,26.9647,23.858,27.4668,23.4035,28.118,23.3091,28.6458,22.9167" style="stroke:#333333;stroke-width:1.0416666666666667;"/><polygon fill="none" points="49.5367,42.5362,48.0098,44.6225,46.2038,47.6783,43.6209,49.7377,40.9066,50.8638,38.7424,50.9616,35.9609,49.5531,33.3363,48.633,31.3443,46.7649,30.2993,44.6263,29.6796,42.9234,29.0725,40.6991,28.0871,38.7851,28.8443,36.9163,29.5078,34.8691,31.9974,33.2501,33.749,31.1493,35.917,30.4517,38.4944,29.851,41.7996,30.2079,43.6099,31.0617,45.7147,31.4486,48.2738,34.0706,49.166,36.8386,49.5536,38.7272,49.1145,41.8394" style="stroke:#2E2E2E;stroke-width:1.0416666666666667;"/><path d="M38.6556,36.9588 L37.8092,40.686 L39.5182,40.686 L38.6556,36.9588 Z M37.5651,35.3149 L39.7624,35.3149 L42.2201,44.4295 L40.4134,44.4295 L39.86,42.1834 L37.4512,42.1834 L36.8978,44.4295 L35.0911,44.4295 L37.5651,35.3149 Z " fill="#2E2E2E"/><text fill="#555555" font-family="Segoe Print" font-size="11.4583" font-style="italic" lengthAdjust="spacing" textLength="47.9167" x="57.8125" y="43.9692">abstract</text><path d="M25.5208,57.0882 L25.5208,57.3801 L36.4583,56.5128 L47.3958,57.3567 L58.3333,57.6433 L69.2708,56.0974 L80.2083,56.9803 L91.1458,56.4959 L102.0833,56.5556 L113.0208,57.0882 " fill="none" style="stroke:#333333;stroke-width:1.0416666666666667;"/><path d="M25.5208,65.4215 L25.5208,65.7135 L36.4583,64.8461 L47.3958,65.69 L58.3333,65.9767 L69.2708,64.4307 L80.2083,65.3136 L91.1458,64.8292 L102.0833,64.8889 L113.0208,65.4215 " fill="none" style="stroke:#333333;stroke-width:1.0416666666666667;"/></g><!--class abstract class--><g id="elem_abstract class"><polygon fill="none" points="149.4792,22.9167,149.4792,23.1356,159.8958,22.4851,170.3125,23.118,180.7292,23.333,191.1458,22.1735,201.5625,22.8357,211.9792,22.4724,222.3958,22.5172,232.8125,22.8457,243.2292,22.1965,253.6458,23.4934,264.0625,22.9167,263.9788,22.7145,264.6255,23.0973,265.2984,23.5434,265.8189,23.6214,266.4286,23.9149,267.0088,24.1371,266.9985,24.1328,267.3101,24.75,267.5736,25.3473,267.9289,25.9826,268.2004,26.5832,268.2292,27.0833,268.465,27.0833,268.3176,35.5843,268.3901,44.0853,268.473,52.5863,267.9788,61.0872,268.2292,69.5882,268.4468,69.6784,267.89,70.1381,267.9123,70.8377,267.3381,71.2902,267.2309,71.9361,267.0088,72.5345,267.1073,72.7724,266.413,72.7629,265.8443,73.0564,265.286,73.3754,264.7071,73.6443,264.0625,73.7549,264.0625,73.7508,253.6458,74.0541,243.2292,73.1586,232.8125,74.0511,222.3958,74.3259,211.9792,74.2179,201.5625,74.3935,191.1458,73.2517,180.7292,73.0755,170.3125,73.1076,159.8958,73.6935,149.4792,73.7549,149.4531,73.6918,148.9805,73.7294,148.2774,73.2107,147.6658,72.9126,147.1525,72.8518,146.5329,72.5345,146.319,72.4459,146.1223,71.8763,146.2529,71.4422,145.9404,70.8246,145.7922,70.2751,145.3125,69.5882,145.2008,69.5882,145.4233,61.0872,145.5175,52.5863,145.1485,44.0853,145.2792,35.5843,145.3125,27.0833,145.3529,27.1001,145.7657,26.5807,145.7993,25.9043,146.1931,25.377,146.1112,24.6527,146.5329,24.1371,146.4429,23.9198,147.1891,24.0545,147.6161,23.4189,148.3683,23.5681,148.9174,23.227,149.4792,22.9167" style="stroke:#333333;stroke-width:1.0416666666666667;"/><polygon fill="none" points="170.37,42.5362,168.8431,44.6225,167.0371,47.6783,164.4542,49.7377,161.7399,50.8638,159.5758,50.9616,156.7942,49.5531,154.1697,48.633,152.1776,46.7649,151.1326,44.6263,150.5129,42.9234,149.9058,40.6991,148.9204,38.7851,149.6777,36.9163,150.3411,34.8691,152.8308,33.2501,154.5824,31.1493,156.7504,30.4517,159.3278,29.851,162.633,30.2079,164.4433,31.0617,166.548,31.4486,169.1072,34.0706,169.9993,36.8386,170.3869,38.7272,169.9479,41.8394" style="stroke:#2E2E2E;stroke-width:1.0416666666666667;"/><path d="M159.4889,36.9588 L158.6426,40.686 L160.3516,40.686 L159.4889,36.9588 Z M158.3984,35.3149 L160.5957,35.3149 L163.0534,44.4295 L161.2467,44.4295 L160.6934,42.1834 L158.2845,42.1834 L157.7311,44.4295 L155.9245,44.4295 L158.3984,35.3149 Z " fill="#2E2E2E"/><text fill="#555555" font-family="Segoe Print" font-size="11.4583" font-style="italic" lengthAdjust="spacing" textLength="81.25" x="178.6458" y="43.9692">abstract class</text><path d="M146.3542,57.0882 L146.3542,57.3801 L156.4236,56.5128 L166.4931,57.3567 L176.5625,57.6433 L186.6319,56.0974 L196.7014,56.9803 L206.7708,56.4959 L216.8403,56.5556 L226.9097,56.9936 L236.9792,56.128 L247.0486,57.8572 L257.1181,56.2128 L267.1875,57.0882 " fill="none" style="stroke:#333333;stroke-width:1.0416666666666667;"/><path d="M146.3542,65.4215 L146.3542,65.7135 L156.4236,64.8461 L166.4931,65.69 L176.5625,65.9767 L186.6319,64.4307 L196.7014,65.3136 L206.7708,64.8292 L216.8403,64.8889 L226.9097,65.3269 L236.9792,64.4613 L247.0486,66.1905 L257.1181,64.5462 L267.1875,65.4215 " fill="none" style="stroke:#333333;stroke-width:1.0416666666666667;"/></g><!--class annotation--><g id="elem_annotation"><polygon fill="none" points="303.6458,22.9167,303.6458,23.1356,314.294,22.4851,324.9421,23.118,335.5903,23.333,346.2384,22.1735,356.8866,22.8357,367.5347,22.4724,378.1829,22.5172,388.831,22.8457,399.4792,22.9167,399.3873,22.6949,400.142,23.3383,400.5739,23.2026,401.2207,23.5855,401.8936,24.0315,402.4254,24.1371,402.3979,24.1257,402.6914,24.7354,402.9034,25.3113,403.2149,25.9285,403.4785,26.5259,403.6458,27.0833,403.8492,27.0833,403.8788,35.5843,403.8817,44.0853,403.7342,52.5863,403.8068,61.0872,403.6458,69.5882,403.8711,69.6815,403.1704,70.0816,403.3753,70.8569,402.8185,71.3166,402.8408,72.0162,402.4254,72.5345,402.3597,72.3757,401.8271,72.7566,401.3455,73.2606,400.6512,73.2511,400.0824,73.5446,399.4792,73.7549,399.4792,74.1076,388.831,74.1885,378.1829,73.7508,367.5347,74.0541,356.8866,73.1586,346.2384,74.0511,335.5903,74.3259,324.9421,74.2179,314.294,74.3935,303.6458,73.7549,303.5816,73.5999,302.9699,73.3016,302.3848,73.0674,301.8702,73.0038,301.2627,72.7155,300.6996,72.5345,300.9181,72.625,300.3994,71.922,300.1014,71.3104,300.0405,70.7971,299.5093,70.0889,299.4792,69.5882,299.2989,69.5882,299.7045,61.0872,299.6304,52.5863,299.7342,44.0853,299.3674,35.5843,299.4792,27.0833,299.5816,27.1257,299.9126,26.5725,299.8158,25.8421,300.1806,25.3028,300.4959,24.7431,300.6996,24.1371,300.7862,24.3461,301.2883,23.8916,301.9395,23.7973,302.3937,23.2272,302.9666,22.9435,303.6458,22.9167" style="stroke:#333333;stroke-width:1.0416666666666667;"/><polygon fill="none" points="324.5367,42.5362,323.0098,44.6225,321.2038,47.6783,318.6209,49.7377,315.9066,50.8638,313.7424,50.9616,310.9609,49.5531,308.3363,48.633,306.3443,46.7649,305.2993,44.6263,304.6796,42.9234,304.0725,40.6991,303.0871,38.7851,303.8443,36.9163,304.5078,34.8691,306.9974,33.2501,308.749,31.1493,310.917,30.4517,313.4944,29.851,316.7996,30.2079,318.6099,31.0617,320.7147,31.4486,323.2738,34.0706,324.166,36.8386,324.5536,38.7272,324.1145,41.8394" style="stroke:#2E2E2E;stroke-width:1.0416666666666667;"/><path d="M315.3158,39.8071 Q315.3158,39.1073 315.0065,38.7166 Q314.6973,38.326 314.1439,38.326 Q313.6068,38.326 313.2975,38.7166 Q312.9883,39.1073 312.9883,39.8071 Q312.9883,40.4907 313.2975,40.8813 Q313.6068,41.272 314.1439,41.272 Q314.6973,41.272 315.0065,40.8813 Q315.3158,40.4907 315.3158,39.8071 Z M316.4551,42.2974 L315.2507,42.2974 L315.2507,41.8091 Q315.0228,42.1183 314.6973,42.2811 Q314.388,42.4276 313.9486,42.4276 Q312.9557,42.4276 312.3372,41.7114 Q311.7188,40.979 311.7188,39.8071 Q311.7188,38.619 312.321,37.9028 Q312.9395,37.1867 313.9486,37.1867 Q314.388,37.1867 314.7135,37.3332 Q315.0391,37.4797 315.2507,37.7726 L315.2507,37.5285 Q315.2507,36.6984 314.7949,36.2427 Q314.3392,35.7869 313.5091,35.7869 Q312.2396,35.7869 311.4258,36.91 Q310.6283,38.0168 310.6283,39.8071 Q310.6283,41.6789 311.556,42.8019 Q312.4837,43.9087 314.0299,43.9087 Q314.5182,43.9087 314.974,43.7622 Q315.4297,43.6157 315.8529,43.3228 L316.4063,44.397 Q315.918,44.7388 315.332,44.9015 Q314.7461,45.0806 314.0951,45.0806 Q311.9466,45.0806 310.6771,43.6483 Q309.4076,42.2323 309.4076,39.8071 Q309.4076,37.4471 310.5469,36.0311 Q311.7025,34.6151 313.5742,34.6151 Q314.9089,34.6151 315.6738,35.4126 Q316.4551,36.2101 316.4551,37.6099 L316.4551,42.2974 Z " fill="#2E2E2E"/><text fill="#555555" font-family="Segoe Print" font-size="11.4583" lengthAdjust="spacing" textLength="62.5" x="332.8125" y="43.9692">annotation</text><path d="M300.5208,57.0882 L300.5208,57.3801 L310.7292,56.5128 L320.9375,57.3567 L331.1458,57.6433 L341.3542,56.0974 L351.5625,56.9803 L361.7708,56.4959 L371.9792,56.5556 L382.1875,56.9936 L392.3958,56.128 L402.6042,57.0882 " fill="none" style="stroke:#333333;stroke-width:1.0416666666666667;"/><path d="M300.5208,65.4215 L300.5208,65.7135 L310.7292,64.8461 L320.9375,65.69 L331.1458,65.9767 L341.3542,64.4307 L351.5625,65.3136 L361.7708,64.8292 L371.9792,64.8889 L382.1875,65.3269 L392.3958,64.4613 L402.6042,65.4215 " fill="none" style="stroke:#333333;stroke-width:1.0416666666666667;"/></g><!--entity circle--><g id="elem_circle"><polygon fill="none" points="452.6502,47.3395,451.4287,49.0086,449.9839,51.4532,447.9175,53.1007,445.7461,54.0016,444.0148,54.0798,441.7895,52.9531,439.6899,52.217,438.0962,50.7225,437.2603,49.0116,436.7645,47.6493,436.2788,45.8698,435.4905,44.3386,436.0963,42.8436,436.627,41.2059,438.6188,39.9106,440.02,38.23,441.7545,37.6719,443.8164,37.1913,446.4605,37.4769,447.9088,38.1599,449.5926,38.4695,451.6399,40.567,452.3536,42.7814,452.6637,44.2923,452.3125,46.7821" style="stroke:#DC3545;stroke-width:1.0416666666666667;"/><text fill="#555555" font-family="Segoe Print" font-size="12.5" lengthAdjust="spacing" textLength="34.375" x="427.0833" y="79.8319">circle</text></g><!--entity circle_short_form--><g id="elem_circle_short_form"><polygon fill="none" points="502.6502,47.3395,501.4287,49.0086,499.9839,51.4532,497.9175,53.1007,495.7461,54.0016,494.0148,54.0798,491.7895,52.9531,489.6899,52.217,488.0962,50.7225,487.2603,49.0116,486.7645,47.6493,486.2788,45.8698,485.4905,44.3386,486.0963,42.8436,486.627,41.2059,488.6188,39.9106,490.02,38.23,491.7545,37.6719,493.8164,37.1913,496.4605,37.4769,497.9088,38.1599,499.5926,38.4695,501.6399,40.567,502.3536,42.7814,502.6637,44.2923,502.3125,46.7821" style="stroke:#DC3545;stroke-width:1.0416666666666667;"/><text fill="#555555" font-family="Segoe Print" font-size="12.5" lengthAdjust="spacing" textLength="110.4167" x="439.0625" y="79.8319">circle_short_form</text></g><!--class class--><g id="elem_class"><polygon fill="none" points="36.9792,136.4583,36.9792,136.6773,47.7431,136.0267,58.5069,136.6597,69.2708,136.8747,80.0347,135.7152,90.7986,136.3774,101.5625,136.4583,101.5058,136.3215,102.1008,136.5794,102.732,136.9246,103.2384,136.9688,103.9931,137.6122,104.5088,137.6787,104.3066,137.595,104.6894,138.2417,105.1355,138.9146,105.2135,139.4351,105.507,140.0448,105.7292,140.625,105.7181,140.625,105.7912,149.126,105.8122,157.627,105.9325,166.1279,105.9622,174.6289,105.7292,183.1299,105.9471,183.2201,105.5668,183.753,105.3897,184.37,105.2222,184.991,104.5215,185.3911,104.5088,186.0762,104.5989,186.2938,103.8801,186.2251,103.4012,186.7356,102.6752,186.6496,102.1427,187.0305,101.5625,187.2965,101.5625,188.0691,90.7986,187.2458,80.0347,187.4062,69.2708,187.6493,58.5069,187.7301,47.7431,187.2925,36.9792,187.2965,37.0173,187.3887,36.3139,186.8688,35.8384,186.8996,35.2842,186.7402,34.6812,186.4628,34.0329,186.0762,34.2295,186.1576,33.6338,185.4227,33.3355,184.811,33.1013,184.2258,33.0377,183.7113,32.8125,183.1299,32.7443,183.1299,33.0491,174.6289,32.7518,166.1279,32.6934,157.627,32.8918,149.126,32.8125,140.625,32.5986,140.5364,32.89,139.9668,33.5088,139.5327,33.6845,138.9151,34.0244,138.3656,34.0329,137.6787,33.9901,137.5755,34.6646,137.537,35.2899,137.38,35.7379,136.7949,36.3772,136.6717,36.9792,136.4583" style="stroke:#333333;stroke-width:1.0416666666666667;"/><polygon fill="none" points="57.87,156.0779,56.3431,158.1642,54.5371,161.22,51.9542,163.2793,49.2399,164.4055,47.0758,164.5032,44.2942,163.0948,41.6697,162.1747,39.6776,160.3066,38.6326,158.1679,38.0129,156.4651,37.4058,154.2408,36.4204,152.3268,37.1777,150.4579,37.8411,148.4108,40.3308,146.7917,42.0824,144.691,44.2504,143.9934,46.8278,143.3926,50.133,143.7496,51.9433,144.6033,54.048,144.9903,56.6072,147.6123,57.4993,150.3802,57.8869,152.2689,57.4479,155.3811" style="stroke:#2E2E2E;stroke-width:1.0416666666666667;"/><path d="M49.3001,157.9712 Q48.877,158.1828 48.4049,158.2967 Q47.9329,158.4106 47.4284,158.4106 Q45.5729,158.4106 44.5964,157.2062 Q43.6361,155.9855 43.6361,153.6906 Q43.6361,151.3794 44.5964,150.175 Q45.5729,148.9543 47.4284,148.9543 Q47.9329,148.9543 48.4049,149.0682 Q48.8932,149.1659 49.3001,149.3937 L49.3001,151.3957 Q48.8444,150.9725 48.4049,150.7772 Q47.9655,150.5656 47.5098,150.5656 Q46.5169,150.5656 46.0124,151.3631 Q45.5078,152.1444 45.5078,153.6906 Q45.5078,155.2205 46.0124,156.0018 Q46.5169,156.783 47.5098,156.783 Q47.9655,156.783 48.4049,156.5877 Q48.8444,156.3924 49.3001,155.9692 L49.3001,157.9712 Z " fill="#2E2E2E"/><text fill="#555555" font-family="Segoe Print" font-size="11.4583" lengthAdjust="spacing" textLength="31.25" x="66.1458" y="157.5109">class</text><path d="M33.8542,170.6299 L33.8542,170.9218 L43.9732,170.0544 L54.0923,170.8983 L64.2113,171.185 L74.3304,169.6391 L84.4494,170.5219 L94.5685,170.0375 L104.6875,170.6299 " fill="none" style="stroke:#333333;stroke-width:1.0416666666666667;"/><path d="M33.8542,178.9632 L33.8542,179.2551 L43.9732,178.3878 L54.0923,179.2317 L64.2113,179.5183 L74.3304,177.9724 L84.4494,178.8553 L94.5685,178.3709 L104.6875,178.9632 " fill="none" style="stroke:#333333;stroke-width:1.0416666666666667;"/></g><!--class class_stereo--><g id="elem_class_stereo"><polygon fill="none" points="141.1458,123.9583,141.1458,124.1773,151.5625,123.5267,161.9792,124.1597,172.3958,124.3747,182.8125,123.2152,193.2292,123.8774,203.6458,123.5141,214.0625,123.5589,224.4792,123.8873,234.8958,123.2382,245.3125,124.535,255.7292,123.9583,255.6454,123.7561,256.2921,124.139,256.9651,124.5851,257.4855,124.663,258.0953,124.9565,258.6754,125.1787,258.6652,125.1745,258.9768,125.7917,259.2403,126.389,259.5956,127.0243,259.867,127.6249,259.8958,128.125,260.6034,128.125,260.1611,139.3704,260.3787,150.6158,260.6273,161.8612,259.1446,173.1066,260.6026,184.3519,259.8958,195.5973,259.8007,195.5579,259.823,196.2575,259.2489,196.7101,259.1416,197.356,259.1574,198.0529,258.6754,198.5436,258.669,198.528,258.1002,198.8215,257.5419,199.1404,256.963,199.4094,256.3179,199.5187,255.7292,199.764,255.7292,200.0632,245.3125,199.1677,234.8958,200.0602,224.4792,200.335,214.0625,200.2271,203.6458,200.4026,193.2292,199.2608,182.8125,199.0846,172.3958,199.1167,161.9792,199.7027,151.5625,199.5593,141.1458,199.764,141.2364,199.9826,140.5334,199.4639,139.9217,199.1658,139.4084,199.105,138.7002,198.5738,138.1996,198.5436,138.033,198.4746,138.1637,198.0406,137.8512,197.423,137.7029,196.8734,137.12,196.1438,136.9792,195.5973,137.3117,195.5973,137.5942,184.3519,136.4871,173.1066,136.8793,161.8612,137.1104,150.6158,137.6581,139.3704,136.9792,128.125,136.9778,128.1244,137.3716,127.5972,137.2897,126.8729,137.4941,126.2672,138.117,125.8349,138.1996,125.1787,138.1043,124.9487,138.8564,125.0979,139.4055,124.7569,139.9317,124.3605,140.5096,124.0889,141.1458,123.9583" style="stroke:#333333;stroke-width:1.0416666666666667;"/><polygon fill="none" points="162.0367,156.0616,160.5098,158.1479,158.7038,161.2037,156.1209,163.2631,153.4066,164.3892,151.2424,164.4869,148.4609,163.0785,145.8363,162.1584,143.8443,160.2903,142.7993,158.1517,142.1796,156.4488,141.5725,154.2245,140.5871,152.3105,141.3443,150.4417,142.0078,148.3945,144.4974,146.7754,146.249,144.6747,148.417,143.9771,150.9944,143.3764,154.2996,143.7333,156.1099,144.587,158.2147,144.974,160.7738,147.596,161.666,150.364,162.0536,152.2526,161.6145,155.3648" style="stroke:#2E2E2E;stroke-width:1.0416666666666667;"/><path d="M153.4668,157.9549 Q153.0436,158.1665 152.5716,158.2804 Q152.0996,158.3944 151.5951,158.3944 Q149.7396,158.3944 148.763,157.1899 Q147.8027,155.9692 147.8027,153.6743 Q147.8027,151.3631 148.763,150.1587 Q149.7396,148.938 151.5951,148.938 Q152.0996,148.938 152.5716,149.0519 Q153.0599,149.1496 153.4668,149.3774 L153.4668,151.3794 Q153.0111,150.9562 152.5716,150.7609 Q152.1322,150.5493 151.6764,150.5493 Q150.6836,150.5493 150.179,151.3468 Q149.6745,152.1281 149.6745,153.6743 Q149.6745,155.2043 150.179,155.9855 Q150.6836,156.7668 151.6764,156.7668 Q152.1322,156.7668 152.5716,156.5715 Q153.0111,156.3761 153.4668,155.953 L153.4668,157.9549 Z " fill="#2E2E2E"/><text fill="#555555" font-family="Segoe Print" font-size="12.5" font-style="italic" lengthAdjust="spacing" textLength="85.4167" x="168.2292" y="145.9778">&#171;stereotype&#187;</text><text fill="#555555" font-family="Segoe Print" font-size="11.4583" lengthAdjust="spacing" textLength="76.0417" x="172.9167" y="169.9783">class_stereo</text><path d="M138.0208,183.0973 L138.0208,183.3893 L148.0903,182.5219 L158.1597,183.3658 L168.2292,183.6524 L178.2986,182.1065 L188.3681,182.9894 L198.4375,182.505 L208.5069,182.5647 L218.5764,183.0027 L228.6458,182.1371 L238.7153,183.8663 L248.7847,182.2219 L258.8542,183.0973 " fill="none" style="stroke:#333333;stroke-width:1.0416666666666667;"/><path d="M138.0208,191.4307 L138.0208,191.7226 L148.0903,190.8552 L158.1597,191.6991 L168.2292,191.9858 L178.2986,190.4398 L188.3681,191.3227 L198.4375,190.8383 L208.5069,190.898 L218.5764,191.336 L228.6458,190.4704 L238.7153,192.1996 L248.7847,190.5553 L258.8542,191.4307 " fill="none" style="stroke:#333333;stroke-width:1.0416666666666667;"/></g><g id="elem_diamond"><polygon fill="none" points="303.6458,149.4792,303.6974,149.5308,306.0441,151.8774,308.6933,154.5266,311.244,157.0773,313.4707,159.304,316.1458,161.9792,316.1268,161.9601,313.5411,164.3745,311.0517,166.885,308.6291,169.4624,305.9761,171.8094,303.6458,174.4792,303.7818,174.6151,300.9911,171.8244,298.5973,169.4306,296.2519,167.0852,293.6248,164.4581,291.1458,161.9792,291.1626,161.9959,293.638,159.4713,296.1897,157.023,298.7045,154.5379,301.2896,152.123,303.6458,149.4792" style="stroke:#4D4D4D;stroke-width:1.0416666666666667;"/></g><polygon fill="none" points="359.8958,149.4792,359.9474,149.5308,362.2941,151.8774,364.9433,154.5266,367.494,157.0773,369.7207,159.304,372.3958,161.9792,372.3768,161.9601,369.7911,164.3745,367.3017,166.885,364.8791,169.4624,362.2261,171.8094,359.8958,174.4792,360.0318,174.6151,357.2411,171.8244,354.8473,169.4306,352.5019,167.0852,349.8748,164.4581,347.3958,161.9792,347.4126,161.9959,349.888,159.4713,352.4397,157.023,354.9545,154.5379,357.5396,152.123,359.8958,149.4792" style="stroke:#4D4D4D;stroke-width:1.0416666666666667;"/><!--class entity--><g id="elem_entity"><polygon fill="none" points="407.2917,136.4583,407.2917,136.6773,418.2292,136.0267,429.1667,136.6597,440.1042,136.8747,451.0417,135.7152,461.9792,136.3774,472.9167,136.4583,472.86,136.3215,473.455,136.5794,474.0861,136.9246,474.5926,136.9688,475.3473,137.6122,475.8629,137.6787,475.6608,137.595,476.0436,138.2417,476.4897,138.9146,476.5677,139.4351,476.8611,140.0448,477.0833,140.625,477.0722,140.625,477.1453,149.126,477.1664,157.627,477.2867,166.1279,477.3163,174.6289,477.0833,183.1299,477.3012,183.2201,476.9209,183.753,476.7439,184.37,476.5764,184.991,475.8757,185.3911,475.8629,186.0762,475.9531,186.2938,475.2343,186.2251,474.7554,186.7356,474.0294,186.6496,473.4968,187.0305,472.9167,187.2965,472.9167,188.0691,461.9792,187.2458,451.0417,187.4062,440.1042,187.6493,429.1667,187.7301,418.2292,187.2925,407.2917,187.2965,407.3298,187.3887,406.6264,186.8688,406.1509,186.8996,405.5967,186.7402,404.9937,186.4628,404.3454,186.0762,404.542,186.1576,403.9463,185.4227,403.648,184.811,403.4138,184.2258,403.3502,183.7113,403.125,183.1299,403.0568,183.1299,403.3616,174.6289,403.0643,166.1279,403.0059,157.627,403.2043,149.126,403.125,140.625,402.9111,140.5364,403.2025,139.9668,403.8213,139.5327,403.997,138.9151,404.3369,138.3656,404.3454,137.6787,404.3026,137.5755,404.9771,137.537,405.6024,137.38,406.0504,136.7949,406.6897,136.6717,407.2917,136.4583" style="stroke:#333333;stroke-width:1.0416666666666667;"/><polygon fill="none" points="428.1825,156.0779,426.6556,158.1642,424.8496,161.22,422.2667,163.2793,419.5524,164.4055,417.3883,164.5032,414.6067,163.0948,411.9822,162.1747,409.9901,160.3066,408.9451,158.1679,408.3254,156.4651,407.7183,154.2408,406.7329,152.3268,407.4902,150.4579,408.1536,148.4108,410.6433,146.7917,412.3949,144.691,414.5629,143.9934,417.1403,143.3926,420.4455,143.7496,422.2558,144.6033,424.3605,144.9903,426.9197,147.6123,427.8118,150.3802,428.1994,152.2689,427.7604,155.3811" style="stroke:#2E2E2E;stroke-width:1.0416666666666667;"/><path d="M420.2474,158.2316 L414.5671,158.2316 L414.5671,149.117 L420.2474,149.117 L420.2474,150.7121 L416.3737,150.7121 L416.3737,152.6652 L419.873,152.6652 L419.873,154.2603 L416.3737,154.2603 L416.3737,156.6366 L420.2474,156.6366 L420.2474,158.2316 Z " fill="#2E2E2E"/><text fill="#555555" font-family="Segoe Print" font-size="11.4583" lengthAdjust="spacing" textLength="32.2917" x="436.4583" y="157.5109">entity</text><path d="M404.1667,170.6299 L404.1667,170.9218 L414.4345,170.0544 L424.7024,170.8983 L434.9702,171.185 L445.2381,169.6391 L455.506,170.5219 L465.7738,170.0375 L476.0417,170.6299 " fill="none" style="stroke:#333333;stroke-width:1.0416666666666667;"/><path d="M404.1667,178.9632 L404.1667,179.2551 L414.4345,178.3878 L424.7024,179.2317 L434.9702,179.5183 L445.2381,177.9724 L455.506,178.8553 L465.7738,178.3709 L476.0417,178.9632 " fill="none" style="stroke:#333333;stroke-width:1.0416666666666667;"/></g><!--class enum--><g id="elem_enum"><polygon fill="none" points="35.9375,250,35.9375,250.2189,47.0486,249.5684,58.1597,250.2013,69.2708,250.4163,80.3819,249.2569,91.4931,249.919,102.6042,250,102.5475,249.8632,103.1425,250.1211,103.7736,250.4663,104.2801,250.5104,105.0348,251.1539,105.5504,251.2204,105.3483,251.1366,105.7311,251.7834,106.1772,252.4563,106.2552,252.9768,106.5486,253.5865,106.7708,254.1667,106.7597,254.1667,106.8328,262.6676,106.8539,271.1686,106.9742,279.6696,107.0038,288.1706,106.7708,296.6715,106.9887,296.7618,106.6084,297.2946,106.4314,297.9117,106.2639,298.5326,105.5632,298.9327,105.5504,299.6178,105.6406,299.8355,104.9218,299.7668,104.4429,300.2772,103.7169,300.1913,103.1843,300.5722,102.6042,300.8382,102.6042,301.6107,91.4931,300.7875,80.3819,300.9479,69.2708,301.191,58.1597,301.2718,47.0486,300.8341,35.9375,300.8382,35.9757,300.9304,35.2722,300.4105,34.7968,300.4413,34.2426,300.2818,33.6395,300.0045,32.9912,299.6178,33.1879,299.6993,32.5922,298.9644,32.2939,298.3527,32.0596,297.7675,31.996,297.253,31.7708,296.6715,31.7026,296.6715,32.0074,288.1706,31.7102,279.6696,31.6517,271.1686,31.8501,262.6676,31.7708,254.1667,31.5569,254.0781,31.8484,253.5084,32.4672,253.0744,32.6428,252.4568,32.9828,251.9072,32.9912,251.2204,32.9485,251.1172,33.6229,251.0787,34.2482,250.9216,34.6962,250.3366,35.3355,250.2133,35.9375,250" style="stroke:#333333;stroke-width:1.0416666666666667;"/><polygon fill="none" points="56.8284,269.6195,55.3015,271.7058,53.4955,274.7616,50.9125,276.821,48.1983,277.9471,46.0341,278.0449,43.2525,276.6365,40.628,275.7164,38.6359,273.8483,37.591,271.7096,36.9713,270.0067,36.3642,267.7825,35.3788,265.8684,36.136,263.9996,36.7994,261.9525,39.2891,260.3334,41.0407,258.2326,43.2087,257.5351,45.7861,256.9343,49.0913,257.2912,50.9016,258.145,53.0064,258.532,55.5655,261.1539,56.4576,263.9219,56.8452,265.8105,56.4062,268.9228" style="stroke:#2E2E2E;stroke-width:1.0416666666666667;"/><path d="M48.8932,271.7733 L43.2129,271.7733 L43.2129,262.6587 L48.8932,262.6587 L48.8932,264.2537 L45.0195,264.2537 L45.0195,266.2069 L48.5189,266.2069 L48.5189,267.8019 L45.0195,267.8019 L45.0195,270.1782 L48.8932,270.1782 L48.8932,271.7733 Z " fill="#2E2E2E"/><text fill="#555555" font-family="Segoe Print" font-size="11.4583" lengthAdjust="spacing" textLength="33.3333" x="65.1042" y="271.0526">enum</text><path d="M32.8125,284.1715 L32.8125,284.4635 L43.2292,283.5961 L53.6458,284.44 L64.0625,284.7267 L74.4792,283.1807 L84.8958,284.0636 L95.3125,283.5792 L105.7292,284.1715 " fill="none" style="stroke:#333333;stroke-width:1.0416666666666667;"/><path d="M32.8125,292.5049 L32.8125,292.7968 L43.2292,291.9294 L53.6458,292.7733 L64.0625,293.06 L74.4792,291.5141 L84.8958,292.3969 L95.3125,291.9125 L105.7292,292.5049 " fill="none" style="stroke:#333333;stroke-width:1.0416666666666667;"/></g><!--class exception--><g id="elem_exception"><polygon fill="none" points="142.1875,250,142.1875,250.2189,152.1412,249.5684,162.0949,250.2013,172.0486,250.4163,182.0023,249.2569,191.956,249.919,201.9097,249.5557,211.8634,249.6005,221.8171,249.929,231.7708,250,231.679,249.7782,232.4337,250.4217,232.8656,250.286,233.5123,250.6688,234.1853,251.1149,234.7171,251.2204,234.6896,251.209,234.9831,251.8187,235.195,252.3947,235.5066,253.0119,235.7701,253.6092,235.9375,254.1667,236.1409,254.1667,236.1705,262.6676,236.1734,271.1686,236.0259,279.6696,236.0985,288.1706,235.9375,296.6715,236.1628,296.7649,235.4621,297.165,235.667,297.9402,235.1102,298.3999,235.1324,299.0995,234.7171,299.6178,234.6513,299.459,234.1188,299.8399,233.6371,300.3439,232.9429,300.3344,232.3741,300.6279,231.7708,300.8382,231.7708,301.191,221.8171,301.2718,211.8634,300.8341,201.9097,301.1374,191.956,300.2419,182.0023,301.1345,172.0486,301.4093,162.0949,301.3013,152.1412,301.4768,142.1875,300.8382,142.1233,300.6832,141.5116,300.3849,140.9264,300.1507,140.4119,300.0871,139.8044,299.7989,139.2412,299.6178,139.4598,299.7084,138.9411,299.0054,138.643,298.3937,138.5822,297.8804,138.051,297.1722,138.0208,296.6715,137.8406,296.6715,138.2462,288.1706,138.1721,279.6696,138.2759,271.1686,137.9091,262.6676,138.0208,254.1667,138.1232,254.2091,138.4543,253.6559,138.3574,252.9254,138.7223,252.3862,139.0376,251.8264,139.2412,251.2204,139.3278,251.4295,139.8299,250.975,140.4812,250.8806,140.9354,250.3105,141.5083,250.0268,142.1875,250" style="stroke:#333333;stroke-width:1.0416666666666667;"/><polygon fill="none" points="163.0784,269.6195,161.5515,271.7058,159.7455,274.7616,157.1625,276.821,154.4483,277.9471,152.2841,278.0449,149.5025,276.6365,146.878,275.7164,144.8859,273.8483,143.841,271.7096,143.2213,270.0067,142.6142,267.7825,141.6288,265.8684,142.386,263.9996,143.0494,261.9525,145.5391,260.3334,147.2907,258.2326,149.4587,257.5351,152.0361,256.9343,155.3413,257.2912,157.1516,258.145,159.2564,258.532,161.8155,261.1539,162.7076,263.9219,163.0952,265.8105,162.6562,268.9228" style="stroke:#2E2E2E;stroke-width:1.0416666666666667;"/><path d="M155.7943,271.7733 L153.9388,271.7733 L152.1973,268.7622 L150.472,271.7733 L148.6003,271.7733 L151.2695,267.1509 L148.6816,262.6587 L150.5371,262.6587 L152.1973,265.5558 L153.8574,262.6587 L155.7292,262.6587 L153.1413,267.1509 L155.7943,271.7733 Z " fill="#2E2E2E"/><text fill="#555555" font-family="Segoe Print" font-size="11.4583" lengthAdjust="spacing" textLength="56.25" x="171.3542" y="271.0526">exception</text><path d="M139.0625,284.1715 L139.0625,284.4635 L149.7106,283.5961 L160.3588,284.44 L171.0069,284.7267 L181.6551,283.1807 L192.3032,284.0636 L202.9514,283.5792 L213.5995,283.6389 L224.2477,284.0769 L234.8958,284.1715 " fill="none" style="stroke:#333333;stroke-width:1.0416666666666667;"/><path d="M139.0625,292.5049 L139.0625,292.7968 L149.7106,291.9294 L160.3588,292.7733 L171.0069,293.06 L181.6551,291.5141 L192.3032,292.3969 L202.9514,291.9125 L213.5995,291.9722 L224.2477,292.4102 L234.8958,292.5049 " fill="none" style="stroke:#333333;stroke-width:1.0416666666666667;"/></g><!--class interface--><g id="elem_interface"><polygon fill="none" points="271.3542,250,271.3542,250.2189,282.0313,249.5684,292.7083,250.2013,303.3854,250.4163,314.0625,249.2569,324.7396,249.919,335.4167,249.5557,346.0938,249.6005,356.7708,250,356.7618,249.9781,357.2682,250.0223,358.0229,250.6658,358.4549,250.53,359.1016,250.9129,359.7171,251.2204,359.8557,251.2778,359.9337,251.7982,360.2272,252.408,360.4391,252.9839,360.7507,253.6011,360.9375,254.1667,361.0205,254.1667,361.1409,262.6676,361.1705,271.1686,361.1734,279.6696,361.0259,288.1706,360.9375,296.6715,361.0862,296.7331,360.9187,297.3541,360.218,297.7542,360.4229,298.5295,359.8661,298.9892,359.7171,299.6178,359.788,299.7891,359.0621,299.7031,358.5295,300.084,358.0479,300.588,357.3536,300.5785,356.7708,300.8382,356.7708,300.9479,346.0938,301.191,335.4167,301.2718,324.7396,300.8341,314.0625,301.1374,303.3854,300.2419,292.7083,301.1345,282.0313,301.4093,271.3542,300.8382,271.4132,300.9808,270.8464,300.7908,270.1115,300.1951,269.4997,299.8968,268.9146,299.6626,268.4079,299.6178,268.389,299.61,268.1008,299.0025,268.1383,298.5299,267.6196,297.8269,267.3215,297.2152,267.1875,296.6715,267.2668,296.6715,266.956,288.1706,267.0072,279.6696,267.4128,271.1686,267.3388,262.6676,267.1875,254.1667,267.4231,254.2643,267.3283,253.5347,267.7781,253.0306,268.1091,252.4774,268.0123,251.7469,268.4079,251.2204,268.3952,251.1896,269.0139,251.0167,269.673,250.9413,270.1751,250.4868,270.8264,250.3925,271.3542,250" style="stroke:#333333;stroke-width:1.0416666666666667;"/><polygon fill="none" points="292.245,269.6195,290.7181,271.7058,288.9121,274.7616,286.3292,276.821,283.6149,277.9471,281.4508,278.0449,278.6692,276.6365,276.0447,275.7164,274.0526,273.8483,273.0076,271.7096,272.3879,270.0067,271.7808,267.7825,270.7954,265.8684,271.5527,263.9996,272.2161,261.9525,274.7058,260.3334,276.4574,258.2326,278.6254,257.5351,281.2028,256.9343,284.508,257.2912,286.3183,258.145,288.423,258.532,290.9822,261.1539,291.8743,263.9219,292.2619,265.8105,291.8229,268.9228" style="stroke:#2E2E2E;stroke-width:1.0416666666666667;"/><path d="M278.6621,264.2537 L278.6621,262.6587 L284.082,262.6587 L284.082,264.2537 L282.2754,264.2537 L282.2754,270.1782 L284.082,270.1782 L284.082,271.7733 L278.6621,271.7733 L278.6621,270.1782 L280.4688,270.1782 L280.4688,264.2537 L278.6621,264.2537 Z " fill="#2E2E2E"/><text fill="#555555" font-family="Segoe Print" font-size="11.4583" font-style="italic" lengthAdjust="spacing" textLength="52.0833" x="300.5208" y="271.0526">interface</text><path d="M268.2292,284.1715 L268.2292,284.4635 L278.4144,283.5961 L288.5995,284.44 L298.7847,284.7267 L308.9699,283.1807 L319.1551,284.0636 L329.3403,283.5792 L339.5255,283.6389 L349.7106,284.0769 L359.8958,284.1715 " fill="none" style="stroke:#333333;stroke-width:1.0416666666666667;"/><path d="M268.2292,292.5049 L268.2292,292.7968 L278.4144,291.9294 L288.5995,292.7733 L298.7847,293.06 L308.9699,291.5141 L319.1551,292.3969 L329.3403,291.9125 L339.5255,291.9722 L349.7106,292.4102 L359.8958,292.5049 " fill="none" style="stroke:#333333;stroke-width:1.0416666666666667;"/></g><!--class metaclass--><g id="elem_metaclass"><polygon fill="none" points="395.8333,250,395.8333,250.2189,406.3657,249.5684,416.8981,250.2013,427.4306,250.4163,437.963,249.2569,448.4954,249.919,459.0278,249.5557,469.5602,249.6005,480.0926,249.929,490.625,250,490.5331,249.7782,491.2878,250.4217,491.7198,250.286,492.3665,250.6688,493.0394,251.1149,493.5713,251.2204,493.5438,251.209,493.8372,251.8187,494.0492,252.3947,494.3608,253.0119,494.6243,253.6092,494.7917,254.1667,494.995,254.1667,495.0247,262.6676,495.0275,271.1686,494.8801,279.6696,494.9526,288.1706,494.7917,296.6715,495.0169,296.7649,494.3162,297.165,494.5212,297.9402,493.9643,298.3999,493.9866,299.0995,493.5713,299.6178,493.5055,299.459,492.9729,299.8399,492.4913,300.3439,491.797,300.3344,491.2282,300.6279,490.625,300.8382,490.625,301.191,480.0926,301.2718,469.5602,300.8341,459.0278,301.1374,448.4954,300.2419,437.963,301.1345,427.4306,301.4093,416.8981,301.3013,406.3657,301.4768,395.8333,300.8382,395.7691,300.6832,395.1574,300.3849,394.5723,300.1507,394.0577,300.0871,393.4502,299.7989,392.8871,299.6178,393.1056,299.7084,392.5869,299.0054,392.2889,298.3937,392.228,297.8804,391.6968,297.1722,391.6667,296.6715,391.4864,296.6715,391.892,288.1706,391.8179,279.6696,391.9217,271.1686,391.5549,262.6676,391.6667,254.1667,391.7691,254.2091,392.1001,253.6559,392.0033,252.9254,392.3681,252.3862,392.6834,251.8264,392.8871,251.2204,392.9737,251.4295,393.4758,250.975,394.127,250.8806,394.5812,250.3105,395.1541,250.0268,395.8333,250" style="stroke:#333333;stroke-width:1.0416666666666667;"/><polygon fill="none" points="416.7242,269.6195,415.1973,271.7058,413.3913,274.7616,410.8084,276.821,408.0941,277.9471,405.9299,278.0449,403.1484,276.6365,400.5238,275.7164,398.5318,273.8483,397.4868,271.7096,396.8671,270.0067,396.26,267.7825,395.2746,265.8684,396.0318,263.9996,396.6953,261.9525,399.1849,260.3334,400.9365,258.2326,403.1045,257.5351,405.6819,256.9343,408.9871,257.2912,410.7974,258.145,412.9022,258.532,415.4613,261.1539,416.3535,263.9219,416.7411,265.8105,416.302,268.9228" style="stroke:#2E2E2E;stroke-width:1.0416666666666667;"/><path d="M402.6042,262.6587 L404.7526,262.6587 L405.8431,266.6626 L406.9173,262.6587 L409.082,262.6587 L409.082,271.7733 L407.5358,271.7733 L407.5358,264.4653 L406.5755,268.453 L405.1432,268.453 L404.1667,264.4653 L404.1667,271.7733 L402.6042,271.7733 L402.6042,262.6587 Z " fill="#2E2E2E"/><text fill="#555555" font-family="Segoe Print" font-size="11.4583" lengthAdjust="spacing" textLength="61.4583" x="425" y="271.0526">metaclass</text><path d="M392.7083,284.1715 L392.7083,284.4635 L402.8125,283.5961 L412.9167,284.44 L423.0208,284.7267 L433.125,283.1807 L443.2292,284.0636 L453.3333,283.5792 L463.4375,283.6389 L473.5417,284.0769 L483.6458,283.2113 L493.75,284.1715 " fill="none" style="stroke:#333333;stroke-width:1.0416666666666667;"/><path d="M392.7083,292.5049 L392.7083,292.7968 L402.8125,291.9294 L412.9167,292.7733 L423.0208,293.06 L433.125,291.5141 L443.2292,292.3969 L453.3333,291.9125 L463.4375,291.9722 L473.5417,292.4102 L483.6458,291.5446 L493.75,292.5049 " fill="none" style="stroke:#333333;stroke-width:1.0416666666666667;"/></g><!--class protocol--><g id="elem_protocol"><polygon fill="none" points="529.6875,250,529.6875,250.2189,539.8438,249.5684,550,250.2013,560.1563,250.4163,570.3125,249.2569,580.4688,249.919,590.625,249.5557,600.7813,249.6005,610.9375,250,610.9284,249.9781,611.4349,250.0223,612.1896,250.6658,612.6215,250.53,613.2682,250.9129,613.8838,251.2204,614.0223,251.2778,614.1003,251.7982,614.3938,252.408,614.6058,252.9839,614.9174,253.6011,615.1042,254.1667,615.1872,254.1667,615.3075,262.6676,615.3372,271.1686,615.34,279.6696,615.1926,288.1706,615.1042,296.6715,615.2529,296.7331,615.0854,297.3541,614.3847,297.7542,614.5896,298.5295,614.0327,298.9892,613.8838,299.6178,613.9547,299.7891,613.2287,299.7031,612.6962,300.084,612.2146,300.588,611.5203,300.5785,610.9375,300.8382,610.9375,300.9479,600.7813,301.191,590.625,301.2718,580.4688,300.8341,570.3125,301.1374,560.1563,300.2419,550,301.1345,539.8438,301.4093,529.6875,300.8382,529.7466,300.9808,529.1797,300.7908,528.4448,300.1951,527.8331,299.8968,527.2479,299.6626,526.7412,299.6178,526.7223,299.61,526.4341,299.0025,526.4717,298.5299,525.953,297.8269,525.6549,297.2152,525.5208,296.6715,525.6001,296.6715,525.2893,288.1706,525.3406,279.6696,525.7462,271.1686,525.6721,262.6676,525.5208,254.1667,525.7565,254.2643,525.6617,253.5347,526.1114,253.0306,526.4425,252.4774,526.3456,251.7469,526.7412,251.2204,526.7285,251.1896,527.3472,251.0167,528.0063,250.9413,528.5084,250.4868,529.1597,250.3925,529.6875,250" style="stroke:#333333;stroke-width:1.0416666666666667;"/><polygon fill="none" points="550.5784,269.6195,549.0515,271.7058,547.2455,274.7616,544.6625,276.821,541.9483,277.9471,539.7841,278.0449,537.0025,276.6365,534.378,275.7164,532.3859,273.8483,531.341,271.7096,530.7213,270.0067,530.1142,267.7825,529.1288,265.8684,529.886,263.9996,530.5494,261.9525,533.0391,260.3334,534.7907,258.2326,536.9587,257.5351,539.5361,256.9343,542.8413,257.2912,544.6516,258.145,546.7564,258.532,549.3155,261.1539,550.2076,263.9219,550.5952,265.8105,550.1562,268.9228" style="stroke:#2E2E2E;stroke-width:1.0416666666666667;"/><path d="M539.2415,264.1724 L539.2415,266.8416 L539.9902,266.8416 Q540.8691,266.8416 541.2272,266.5487 Q541.5853,266.2557 541.5853,265.507 Q541.5853,264.7746 541.2272,264.4816 Q540.8691,264.1724 539.9902,264.1724 L539.2415,264.1724 Z M537.4512,262.6587 L539.9251,262.6587 Q541.8132,262.6587 542.627,263.3423 Q543.457,264.0096 543.457,265.507 Q543.457,267.0207 542.627,267.688 Q541.8132,268.3553 539.9251,268.3553 L539.2415,268.3553 L539.2415,271.7733 L537.4512,271.7733 L537.4512,262.6587 Z " fill="#2E2E2E"/><text fill="#555555" font-family="Segoe Print" font-size="11.4583" lengthAdjust="spacing" textLength="47.9167" x="558.8542" y="271.0526">protocol</text><path d="M526.5625,284.1715 L526.5625,284.4635 L537.5,283.5961 L548.4375,284.44 L559.375,284.7267 L570.3125,283.1807 L581.25,284.0636 L592.1875,283.5792 L603.125,283.6389 L614.0625,284.1715 " fill="none" style="stroke:#333333;stroke-width:1.0416666666666667;"/><path d="M526.5625,292.5049 L526.5625,292.7968 L537.5,291.9294 L548.4375,292.7733 L559.375,293.06 L570.3125,291.5141 L581.25,292.3969 L592.1875,291.9125 L603.125,291.9722 L614.0625,292.5049 " fill="none" style="stroke:#333333;stroke-width:1.0416666666666667;"/></g><!--class stereotype--><g id="elem_stereotype"><polygon fill="none" points="20.8333,351.0417,20.8333,351.2606,31.5972,350.6101,42.3611,351.243,53.125,351.458,63.8889,350.2985,74.6528,350.9607,85.4167,350.5974,96.1806,350.6422,106.9444,350.9707,117.7083,351.0417,117.6165,350.8199,118.3712,351.4633,118.8031,351.3276,119.4498,351.7105,120.1228,352.1565,120.6546,352.2621,120.6271,352.2507,120.9206,352.8604,121.1325,353.4363,121.4441,354.0535,121.7076,354.6509,121.875,355.2083,122.0784,355.2083,122.108,363.7093,122.1109,372.2103,121.9634,380.7113,122.036,389.2122,121.875,397.7132,122.1003,397.8065,121.3996,398.2066,121.6045,398.9819,121.0477,399.4416,121.0699,400.1412,120.6546,400.6595,120.5888,400.5007,120.0563,400.8816,119.5746,401.3856,118.8804,401.3761,118.3116,401.6696,117.7083,401.8799,117.7083,402.2326,106.9444,402.3135,96.1806,401.8758,85.4167,402.1791,74.6528,401.2836,63.8889,402.1761,53.125,402.4509,42.3611,402.3429,31.5972,402.5185,20.8333,401.8799,20.7691,401.7249,20.1574,401.4266,19.5723,401.1924,19.0577,401.1288,18.4502,400.8405,17.8871,400.6595,18.1056,400.75,17.5869,400.047,17.2889,399.4354,17.228,398.9221,16.6968,398.2139,16.6667,397.7132,16.4864,397.7132,16.892,389.2122,16.8179,380.7113,16.9217,372.2103,16.5549,363.7093,16.6667,355.2083,16.7691,355.2507,17.1001,354.6975,17.0033,353.9671,17.3681,353.4278,17.6834,352.8681,17.8871,352.2621,17.9737,352.4711,18.4758,352.0166,19.127,351.9223,19.5812,351.3522,20.1541,351.0685,20.8333,351.0417" style="stroke:#333333;stroke-width:1.0416666666666667;"/><polygon fill="none" points="41.7242,370.6612,40.1973,372.7475,38.3913,375.8033,35.8084,377.8627,33.0941,378.9888,30.9299,379.0866,28.1484,377.6781,25.5238,376.758,23.5318,374.8899,22.4868,372.7513,21.8671,371.0484,21.26,368.8241,20.2746,366.9101,21.0318,365.0413,21.6953,362.9941,24.1849,361.3751,25.9365,359.2743,28.1045,358.5767,30.6819,357.976,33.9871,358.3329,35.7974,359.1867,37.9022,359.5736,40.4613,362.1956,41.3535,364.9636,41.7411,366.8522,41.302,369.9644" style="stroke:#2E2E2E;stroke-width:1.0416666666666667;"/><path d="M30.1921,368.811 Q28.8411,368.2902 28.3529,367.7205 Q27.8646,367.1509 27.8646,366.1906 Q27.8646,364.9536 28.6621,364.2537 Q29.4596,363.5376 30.8431,363.5376 Q31.4779,363.5376 32.0964,363.6841 Q32.7311,363.8306 33.3496,364.1073 L33.3496,365.8651 Q32.7637,365.4582 32.1615,365.2466 Q31.5755,365.0187 30.9896,365.0187 Q30.3385,365.0187 29.9805,365.2954 Q29.6387,365.5558 29.6387,366.0441 Q29.6387,366.4185 29.8828,366.6626 Q30.1432,366.9067 30.9408,367.216 L31.722,367.509 Q32.8288,367.8996 33.3333,368.5669 Q33.8542,369.2342 33.8542,370.2433 Q33.8542,371.6268 33.0404,372.3104 Q32.2266,372.994 30.5827,372.994 Q29.8991,372.994 29.2155,372.8312 Q28.5482,372.6685 27.9134,372.3429 L27.9134,370.4875 Q28.6296,371.0083 29.2969,371.2524 Q29.9805,371.4966 30.6315,371.4966 Q31.2988,371.4966 31.6569,371.2036 Q32.0313,370.8944 32.0313,370.3573 Q32.0313,369.9504 31.7871,369.6411 Q31.543,369.3319 31.0872,369.1528 L30.1921,368.811 Z " fill="#2E2E2E"/><text fill="#555555" font-family="Segoe Print" font-size="11.4583" lengthAdjust="spacing" textLength="63.5417" x="50" y="372.0942">stereotype</text><path d="M17.7083,385.2132 L17.7083,385.5051 L28.0208,384.6378 L38.3333,385.4817 L48.6458,385.7683 L58.9583,384.2224 L69.2708,385.1053 L79.5833,384.6209 L89.8958,384.6806 L100.2083,385.1186 L110.5208,384.253 L120.8333,385.2132 " fill="none" style="stroke:#333333;stroke-width:1.0416666666666667;"/><path d="M17.7083,393.5465 L17.7083,393.8385 L28.0208,392.9711 L38.3333,393.815 L48.6458,394.1017 L58.9583,392.5557 L69.2708,393.4386 L79.5833,392.9542 L89.8958,393.0139 L100.2083,393.4519 L110.5208,392.5863 L120.8333,393.5465 " fill="none" style="stroke:#333333;stroke-width:1.0416666666666667;"/></g><!--class struct--><g id="elem_struct"><polygon fill="none" points="157.2917,351.0417,157.2917,351.2606,166.9643,350.6101,176.6369,351.243,186.3095,351.458,195.9821,350.2985,205.6548,350.9607,215.3274,350.5974,225,351.0417,224.949,350.9186,225.5802,351.2639,226.0866,351.308,226.8413,351.9515,227.2733,351.8158,227.9463,352.2621,227.8828,352.2358,228.3289,352.9087,228.4069,353.4292,228.7004,354.0389,228.9123,354.6148,229.1667,355.2083,229.2287,355.2083,229.2497,363.7093,229.37,372.2103,229.3997,380.7113,229.4025,389.2122,229.1667,397.7132,229.2483,397.747,229.0713,398.3641,228.9038,398.985,228.2031,399.3852,228.408,400.1604,227.9463,400.6595,227.9069,400.5644,227.428,401.0748,226.702,400.9889,226.1694,401.3698,225.6878,401.8737,225,401.8799,225,401.8291,215.3274,401.9896,205.6548,402.2326,195.9821,402.3135,186.3095,401.8758,176.6369,402.1791,166.9643,401.2836,157.2917,401.8799,157.3295,401.9711,156.7753,401.8117,156.1722,401.5343,155.6054,401.3443,154.8705,400.7486,154.3454,400.6595,154.1362,400.5728,153.902,399.9877,153.8383,399.4732,153.5501,398.8656,153.5877,398.393,153.125,397.7132,153.0643,397.7132,153.0059,389.2122,153.2043,380.7113,152.8935,372.2103,152.9447,363.7093,153.125,355.2083,153.3332,355.2946,153.5088,354.677,153.8488,354.1274,153.754,353.3978,154.2037,352.8937,154.3454,352.2621,154.4238,352.4515,154.8719,351.8664,155.5112,351.7431,156.1299,351.5702,156.789,351.4948,157.2917,351.0417" style="stroke:#333333;stroke-width:1.0416666666666667;"/><polygon fill="none" points="178.1825,370.6612,176.6556,372.7475,174.8496,375.8033,172.2667,377.8627,169.5524,378.9888,167.3883,379.0866,164.6067,377.6781,161.9822,376.758,159.9901,374.8899,158.9451,372.7513,158.3254,371.0484,157.7183,368.8241,156.7329,366.9101,157.4902,365.0413,158.1536,362.9941,160.6433,361.3751,162.3949,359.2743,164.5629,358.5767,167.1403,357.976,170.4455,358.3329,172.2558,359.1867,174.3605,359.5736,176.9197,362.1956,177.8118,364.9636,178.1994,366.8522,177.7604,369.9644" style="stroke:#2E2E2E;stroke-width:1.0416666666666667;"/><path d="M166.6504,368.811 Q165.2995,368.2902 164.8112,367.7205 Q164.3229,367.1509 164.3229,366.1906 Q164.3229,364.9536 165.1204,364.2537 Q165.918,363.5376 167.3014,363.5376 Q167.9362,363.5376 168.5547,363.6841 Q169.1895,363.8306 169.8079,364.1073 L169.8079,365.8651 Q169.222,365.4582 168.6198,365.2466 Q168.0339,365.0187 167.4479,365.0187 Q166.7969,365.0187 166.4388,365.2954 Q166.097,365.5558 166.097,366.0441 Q166.097,366.4185 166.3411,366.6626 Q166.6016,366.9067 167.3991,367.216 L168.1803,367.509 Q169.2871,367.8996 169.7917,368.5669 Q170.3125,369.2342 170.3125,370.2433 Q170.3125,371.6268 169.4987,372.3104 Q168.6849,372.994 167.041,372.994 Q166.3574,372.994 165.6738,372.8312 Q165.0065,372.6685 164.3717,372.3429 L164.3717,370.4875 Q165.0879,371.0083 165.7552,371.2524 Q166.4388,371.4966 167.0898,371.4966 Q167.7572,371.4966 168.1152,371.2036 Q168.4896,370.8944 168.4896,370.3573 Q168.4896,369.9504 168.2454,369.6411 Q168.0013,369.3319 167.5456,369.1528 L166.6504,368.811 Z " fill="#2E2E2E"/><text fill="#555555" font-family="Segoe Print" font-size="11.4583" lengthAdjust="spacing" textLength="34.375" x="186.4583" y="372.0942">struct</text><path d="M154.1667,385.2132 L154.1667,385.5051 L164.7321,384.6378 L175.2976,385.4817 L185.8631,385.7683 L196.4286,384.2224 L206.994,385.1053 L217.5595,384.6209 L228.125,385.2132 " fill="none" style="stroke:#333333;stroke-width:1.0416666666666667;"/><path d="M154.1667,393.5465 L154.1667,393.8385 L164.7321,392.9711 L175.2976,393.815 L185.8631,394.1017 L196.4286,392.5557 L206.994,393.4386 L217.5595,392.9542 L228.125,393.5465 " fill="none" style="stroke:#333333;stroke-width:1.0416666666666667;"/></g></g></svg>