<?xml version="1.0" encoding="UTF-8" standalone="no"?><svg xmlns="http://www.w3.org/2000/svg" xmlns:xlink="http://www.w3.org/1999/xlink" contentScriptType="application/ecmascript" contentStyleType="text/css" height="327px" preserveAspectRatio="none" style="width:545px;height:327px;background:#777777;" version="1.1" viewBox="0 0 545 327" width="545px" zoomAndPan="magnify"><defs><filter height="300%" id="f1bvn6oqcqbbp5" width="300%" x="-1" y="-1"><feGaussianBlur result="blurOut" stdDeviation="2.0"/><feColorMatrix in="blurOut" result="blurOut2" type="matrix" values="0 0 0 0 0 0 0 0 0 0 0 0 0 0 0 0 0 0 .4 0"/><feOffset dx="4.0" dy="4.0" in="blurOut2" result="blurOut3"/><feBlend in="SourceGraphic" in2="blurOut3" mode="normal"/></filter></defs><g><!--MD5=[b4fa10df80476353258f72a232547d63]
class AbstractList--><rect codeLine="6" fill="#2E2E2E" filter="url(#f1bvn6oqcqbbp5)" height="42" id="AbstractList" style="stroke:#1B1B1B;stroke-width:1.5;" width="92" x="153" y="148.4141"/><ellipse cx="165" cy="161.4141" fill="#A9DCDF" rx="8" ry="8" style="stroke:#1B1B1B;stroke-width:1.0;"/><path d="M166.875,163.1953 L163.6406,163.1953 L163.125,164.6641 L161.0469,164.6641 L164.0313,156.6484 L166.4844,156.6484 L169.4531,164.6641 L167.375,164.6641 L166.875,163.1953 Z M164.1563,161.7109 L166.3594,161.7109 L165.2656,158.5234 L164.1563,161.7109 Z " fill="#000000"/><text fill="#FFFFFF" font-family="Verdana" font-size="11" font-style="italic" lengthAdjust="spacing" textLength="66" x="176" y="165.2222">AbstractList</text><line style="stroke:#1B1B1B;stroke-width:1.5;" x1="154" x2="244" y1="174.4141" y2="174.4141"/><line style="stroke:#1B1B1B;stroke-width:1.5;" x1="154" x2="244" y1="182.4141" y2="182.4141"/><!--MD5=[8e34b16d8d8f96f4a11290cd523ed859]
class AbstractCollection--><rect codeLine="7" fill="#2E2E2E" filter="url(#f1bvn6oqcqbbp5)" height="42" id="AbstractCollection" style="stroke:#1B1B1B;stroke-width:1.5;" width="128" x="7" y="148.4141"/><ellipse cx="19" cy="161.4141" fill="#A9DCDF" rx="8" ry="8" style="stroke:#1B1B1B;stroke-width:1.0;"/><path d="M20.875,163.1953 L17.6406,163.1953 L17.125,164.6641 L15.0469,164.6641 L18.0313,156.6484 L20.4844,156.6484 L23.4531,164.6641 L21.375,164.6641 L20.875,163.1953 Z M18.1563,161.7109 L20.3594,161.7109 L19.2656,158.5234 L18.1563,161.7109 Z " fill="#000000"/><text fill="#FFFFFF" font-family="Verdana" font-size="11" font-style="italic" lengthAdjust="spacing" textLength="102" x="30" y="165.2222">AbstractCollection</text><line style="stroke:#1B1B1B;stroke-width:1.5;" x1="8" x2="134" y1="174.4141" y2="174.4141"/><line style="stroke:#1B1B1B;stroke-width:1.5;" x1="8" x2="134" y1="182.4141" y2="182.4141"/><!--MD5=[3d4177ac58b4411586d067f34e84928f]
class List--><rect codeLine="8" fill="#2E2E2E" filter="url(#f1bvn6oqcqbbp5)" height="42" id="List" style="stroke:#1B1B1B;stroke-width:1.5;" width="45" x="164.5" y="32.4141"/><ellipse cx="176.5" cy="45.4141" fill="#B4A7E5" rx="8" ry="8" style="stroke:#1B1B1B;stroke-width:1.0;"/><path d="M175.5156,41.3984 L177.5781,41.3984 L177.5781,49.4141 L175.5156,49.4141 L175.5156,41.3984 Z " fill="#000000"/><text fill="#FFFFFF" font-family="Verdana" font-size="11" font-style="italic" lengthAdjust="spacing" textLength="19" x="187.5" y="49.2222">List</text><line style="stroke:#1B1B1B;stroke-width:1.5;" x1="165.5" x2="208.5" y1="58.4141" y2="58.4141"/><line style="stroke:#1B1B1B;stroke-width:1.5;" x1="165.5" x2="208.5" y1="66.4141" y2="66.4141"/><!--MD5=[c160724f8e3bb89ca8141a12554ac2e3]
class Collection--><rect codeLine="9" fill="#2E2E2E" filter="url(#f1bvn6oqcqbbp5)" height="42" id="Collection" style="stroke:#1B1B1B;stroke-width:1.5;" width="81" x="42.5" y="32.4141"/><ellipse cx="54.5" cy="45.4141" fill="#B4A7E5" rx="8" ry="8" style="stroke:#1B1B1B;stroke-width:1.0;"/><path d="M53.5156,41.3984 L55.5781,41.3984 L55.5781,49.4141 L53.5156,49.4141 L53.5156,41.3984 Z " fill="#000000"/><text fill="#FFFFFF" font-family="Verdana" font-size="11" font-style="italic" lengthAdjust="spacing" textLength="55" x="65.5" y="49.2222">Collection</text><line style="stroke:#1B1B1B;stroke-width:1.5;" x1="43.5" x2="122.5" y1="58.4141" y2="58.4141"/><line style="stroke:#1B1B1B;stroke-width:1.5;" x1="43.5" x2="122.5" y1="66.4141" y2="66.4141"/><!--MD5=[ab8871ed637f40707b866ba6597734bc]
class ArrayList--><rect codeLine="18" fill="#2E2E2E" filter="url(#f1bvn6oqcqbbp5)" height="67.6094" id="ArrayList" style="stroke:#1B1B1B;stroke-width:1.5;" width="132" x="133" y="245.4141"/><ellipse cx="170.5" cy="258.4141" fill="#BB6600" rx="8" ry="8" style="stroke:#1B1B1B;stroke-width:1.0;"/><path d="M172.625,261.9766 Q172.0469,262.2734 171.4219,262.4141 Q170.8125,262.5703 170.1406,262.5703 Q168.1406,262.5703 166.9688,261.4609 Q165.7969,260.3359 165.7969,258.4141 Q165.7969,256.4922 166.9688,255.3672 Q168.1406,254.2422 170.1406,254.2422 Q170.8125,254.2422 171.4219,254.3984 Q172.0469,254.5547 172.625,254.8516 L172.625,256.5078 Q172.0469,256.1172 171.4844,255.9297 Q170.9219,255.7422 170.3125,255.7422 Q169.2031,255.7422 168.5625,256.4609 Q167.9375,257.1641 167.9375,258.4141 Q167.9375,259.6484 168.5625,260.3672 Q169.2031,261.0703 170.3125,261.0703 Q170.9219,261.0703 171.4844,260.8984 Q172.0469,260.7109 172.625,260.3203 L172.625,261.9766 Z " fill="#000000"/><text fill="#FFFFFF" font-family="Verdana" font-size="11" lengthAdjust="spacing" textLength="50" x="186.5" y="262.2222">ArrayList</text><line style="stroke:#1B1B1B;stroke-width:1.5;" x1="134" x2="264" y1="271.4141" y2="271.4141"/><text fill="#AAAAAA" font-family="sans-serif" font-size="11" lengthAdjust="spacing" textLength="120" x="139" y="285.6245">Object[] elementData</text><line style="stroke:#1B1B1B;stroke-width:1.5;" x1="134" x2="264" y1="292.2188" y2="292.2188"/><text fill="#AAAAAA" font-family="sans-serif" font-size="11" lengthAdjust="spacing" textLength="30" x="139" y="306.4292">size()</text><!--MD5=[15b68e006199004da79ea2a4d117d8e9]
class TimeUnit--><rect codeLine="23" fill="#2E2E2E" filter="url(#f1bvn6oqcqbbp5)" height="80.4141" id="TimeUnit" style="stroke:#1B1B1B;stroke-width:1.5;" width="76" x="304" y="13.4141"/><ellipse cx="316" cy="26.4141" fill="#EB937F" rx="8" ry="8" style="stroke:#1B1B1B;stroke-width:1.0;"/><path d="M313.0156,22.3984 L318.5938,22.3984 L318.5938,23.9609 L315.0781,23.9609 L315.0781,25.4453 L318.375,25.4453 L318.375,27.0078 L315.0781,27.0078 L315.0781,28.8516 L318.7031,28.8516 L318.7031,30.4141 L313.0156,30.4141 L313.0156,22.3984 Z " fill="#000000"/><text fill="#FFFFFF" font-family="Verdana" font-size="11" lengthAdjust="spacing" textLength="50" x="327" y="30.2222">TimeUnit</text><line style="stroke:#1B1B1B;stroke-width:1.5;" x1="305" x2="379" y1="39.4141" y2="39.4141"/><text fill="#AAAAAA" font-family="sans-serif" font-size="11" lengthAdjust="spacing" textLength="30" x="310" y="53.6245">DAYS</text><text fill="#AAAAAA" font-family="sans-serif" font-size="11" lengthAdjust="spacing" textLength="40" x="310" y="66.4292">HOURS</text><text fill="#AAAAAA" font-family="sans-serif" font-size="11" lengthAdjust="spacing" textLength="50" x="310" y="79.2339">MINUTES</text><line style="stroke:#1B1B1B;stroke-width:1.5;" x1="305" x2="379" y1="85.8281" y2="85.8281"/><!--MD5=[0c8287f799745f7b534bf75518604c1e]
class SuppressWarnings--><rect codeLine="29" fill="#2E2E2E" filter="url(#f1bvn6oqcqbbp5)" height="42" id="SuppressWarnings" style="stroke:#1B1B1B;stroke-width:1.5;" width="133" x="398.5" y="32.4141"/><ellipse cx="410.5" cy="45.4141" fill="#E3664A" rx="8" ry="8" style="stroke:#1B1B1B;stroke-width:1.0;"/><path d="M408.9688,45.5234 Q408.9688,46.1797 409.25,46.5703 Q409.5313,46.9453 410.0156,46.9453 Q410.4844,46.9453 410.7656,46.5703 Q411.0625,46.1797 411.0625,45.5234 Q411.0625,44.8672 410.7656,44.4922 Q410.4844,44.1172 410,44.1172 Q409.5313,44.1172 409.25,44.4922 Q408.9688,44.8672 408.9688,45.5234 Z M411.1719,47.1328 Q411,47.5234 410.6406,47.7422 Q410.2969,47.9453 409.8125,47.9453 Q408.8906,47.9453 408.3125,47.2734 Q407.7344,46.6016 407.7344,45.5234 Q407.7344,44.4609 408.3125,43.7891 Q408.8906,43.1172 409.8125,43.1172 Q410.2969,43.1172 410.6406,43.3359 Q411,43.5391 411.1719,43.9297 L411.1719,43.2266 L412.2813,43.2266 L412.2813,46.9453 Q412.9531,46.8359 413.3281,46.3047 Q413.7188,45.7578 413.7188,44.9141 Q413.7188,44.3828 413.5625,43.9141 Q413.4063,43.4453 413.0938,43.0547 Q412.5781,42.3984 411.8125,42.0391 Q411.0469,41.6797 410.1563,41.6797 Q409.5313,41.6797 408.9531,41.8516 Q408.3906,42.0078 407.9063,42.3359 Q407.1094,42.8516 406.6719,43.6953 Q406.2344,44.5234 406.2344,45.4922 Q406.2344,46.3047 406.5156,47.0078 Q406.7969,47.6953 407.3438,48.2422 Q407.8906,48.7578 408.5781,49.0391 Q409.2813,49.3203 410.0625,49.3203 Q410.7344,49.3203 411.4063,49.0547 Q412.0938,48.8047 412.5781,48.3828 L413.1406,49.2578 Q412.4688,49.7734 411.6719,50.0391 Q410.8906,50.3203 410.0781,50.3203 Q409.0781,50.3203 408.1875,49.9609 Q407.3125,49.6172 406.625,48.9453 Q405.9375,48.2734 405.5781,47.3984 Q405.2188,46.5078 405.2188,45.4922 Q405.2188,44.5234 405.5781,43.6328 Q405.9531,42.7422 406.625,42.0703 Q407.3125,41.4141 408.2031,41.0547 Q409.1094,40.6797 410.0781,40.6797 Q411.2813,40.6797 412.2656,41.1484 Q413.25,41.6016 413.9063,42.4609 Q414.3125,42.9922 414.5156,43.6172 Q414.7188,44.2266 414.7188,44.8984 Q414.7188,46.3516 413.8438,47.1641 Q412.9688,47.9609 411.375,47.9609 L411.1719,47.9609 L411.1719,47.1328 Z " fill="#000000"/><text fill="#FFFFFF" font-family="Verdana" font-size="11" lengthAdjust="spacing" textLength="107" x="421.5" y="49.2222">SuppressWarnings</text><line style="stroke:#1B1B1B;stroke-width:1.5;" x1="399.5" x2="530.5" y1="58.4141" y2="58.4141"/><line style="stroke:#1B1B1B;stroke-width:1.5;" x1="399.5" x2="530.5" y1="66.4141" y2="66.4141"/><!--MD5=[faebc81c07309c527f2fda51bf6b78ab]
class Annotation--><rect codeLine="31" fill="#2E2E2E" filter="url(#f1bvn6oqcqbbp5)" height="80.4141" id="Annotation" style="stroke:#1B1B1B;stroke-width:1.5;" width="158" x="263" y="129.4141"/><ellipse cx="308.5" cy="142.4141" fill="#E3664A" rx="8" ry="8" style="stroke:#1B1B1B;stroke-width:1.0;"/><path d="M306.9688,142.5234 Q306.9688,143.1797 307.25,143.5703 Q307.5313,143.9453 308.0156,143.9453 Q308.4844,143.9453 308.7656,143.5703 Q309.0625,143.1797 309.0625,142.5234 Q309.0625,141.8672 308.7656,141.4922 Q308.4844,141.1172 308,141.1172 Q307.5313,141.1172 307.25,141.4922 Q306.9688,141.8672 306.9688,142.5234 Z M309.1719,144.1328 Q309,144.5234 308.6406,144.7422 Q308.2969,144.9453 307.8125,144.9453 Q306.8906,144.9453 306.3125,144.2734 Q305.7344,143.6016 305.7344,142.5234 Q305.7344,141.4609 306.3125,140.7891 Q306.8906,140.1172 307.8125,140.1172 Q308.2969,140.1172 308.6406,140.3359 Q309,140.5391 309.1719,140.9297 L309.1719,140.2266 L310.2813,140.2266 L310.2813,143.9453 Q310.9531,143.8359 311.3281,143.3047 Q311.7188,142.7578 311.7188,141.9141 Q311.7188,141.3828 311.5625,140.9141 Q311.4063,140.4453 311.0938,140.0547 Q310.5781,139.3984 309.8125,139.0391 Q309.0469,138.6797 308.1563,138.6797 Q307.5313,138.6797 306.9531,138.8516 Q306.3906,139.0078 305.9063,139.3359 Q305.1094,139.8516 304.6719,140.6953 Q304.2344,141.5234 304.2344,142.4922 Q304.2344,143.3047 304.5156,144.0078 Q304.7969,144.6953 305.3438,145.2422 Q305.8906,145.7578 306.5781,146.0391 Q307.2813,146.3203 308.0625,146.3203 Q308.7344,146.3203 309.4063,146.0547 Q310.0938,145.8047 310.5781,145.3828 L311.1406,146.2578 Q310.4688,146.7734 309.6719,147.0391 Q308.8906,147.3203 308.0781,147.3203 Q307.0781,147.3203 306.1875,146.9609 Q305.3125,146.6172 304.625,145.9453 Q303.9375,145.2734 303.5781,144.3984 Q303.2188,143.5078 303.2188,142.4922 Q303.2188,141.5234 303.5781,140.6328 Q303.9531,139.7422 304.625,139.0703 Q305.3125,138.4141 306.2031,138.0547 Q307.1094,137.6797 308.0781,137.6797 Q309.2813,137.6797 310.2656,138.1484 Q311.25,138.6016 311.9063,139.4609 Q312.3125,139.9922 312.5156,140.6172 Q312.7188,141.2266 312.7188,141.8984 Q312.7188,143.3516 311.8438,144.1641 Q310.9688,144.9609 309.375,144.9609 L309.1719,144.9609 L309.1719,144.1328 Z " fill="#000000"/><text fill="#FFFFFF" font-family="Verdana" font-size="11" lengthAdjust="spacing" textLength="60" x="324.5" y="146.2222">Annotation</text><line style="stroke:#1B1B1B;stroke-width:1.5;" x1="264" x2="420" y1="155.4141" y2="155.4141"/><text fill="#AAAAAA" font-family="sans-serif" font-size="11" lengthAdjust="spacing" textLength="146" x="269" y="169.6245">annotation with members</text><line style="stroke:#1B1B1B;stroke-width:1.5;" x1="264" x2="420" y1="176.2188" y2="176.2188"/><text fill="#AAAAAA" font-family="sans-serif" font-size="11" lengthAdjust="spacing" textLength="64" x="269" y="190.4292">String foo()</text><text fill="#AAAAAA" font-family="sans-serif" font-size="11" lengthAdjust="spacing" textLength="65" x="269" y="203.2339">String bar()</text><path d="M189.1177,74.5326 C191.2978,95.2427 194.6761,127.3366 196.8631,148.1132 " fill="none" style="stroke:#FFFFFF;stroke-width:1.0;"/><polygon fill="#777777" points="189.1177,74.5326,184.8257,91.0728,196.7597,89.8165,189.1177,74.5326" style="stroke:#FFFFFF;stroke-width:1.0;"/><path d="M80.8823,74.5326 C78.7022,95.2427 75.3239,127.3366 73.1369,148.1132 " fill="none" style="stroke:#FFFFFF;stroke-width:1.0;"/><polygon fill="#777777" points="80.8823,74.5326,73.2403,89.8165,85.1743,91.0728,80.8823,74.5326" style="stroke:#FFFFFF;stroke-width:1.0;"/><path d="M123.625,53.4141 C137.1582,53.4141 150.6914,53.4141 164.2246,53.4141 " fill="none" style="stroke:#FFFFFF;stroke-width:1.0;"/><polygon fill="#777777" points="123.625,53.4141,139.625,59.4141,139.625,47.4141,123.625,53.4141" style="stroke:#FFFFFF;stroke-width:1.0;"/><path d="M135.5,169.4141 C141.2878,169.4141 147.0755,169.4141 152.8633,169.4141 " fill="none" style="stroke:#FFFFFF;stroke-width:1.0;"/><polygon fill="#777777" points="135.5,169.4141,151.5,175.4141,151.5,163.4141,135.5,169.4141" style="stroke:#FFFFFF;stroke-width:1.0;"/><path d="M199,190.4749 C199,205.8473 199,227.3906 199,245.3064 " fill="none" style="stroke:#FFFFFF;stroke-width:1.0;"/><polygon fill="#777777" points="199,190.4749,193,206.4749,205,206.4749,199,190.4749" style="stroke:#FFFFFF;stroke-width:1.0;"/></g></svg>