<?xml version="1.0" encoding="UTF-8" standalone="no"?><svg xmlns="http://www.w3.org/2000/svg" xmlns:xlink="http://www.w3.org/1999/xlink" contentScriptType="application/ecmascript" contentStyleType="text/css" height="365px" preserveAspectRatio="none" style="width:597px;height:365px;background:#FFFFFF;" version="1.1" viewBox="0 0 597 365" width="597px" zoomAndPan="magnify"><defs><filter height="300%" id="f53imi61mgbuf" width="300%" x="-1" y="-1"><feGaussianBlur result="blurOut" stdDeviation="2.0"/><feColorMatrix in="blurOut" result="blurOut2" type="matrix" values="0 0 0 0 0 0 0 0 0 0 0 0 0 0 0 0 0 0 .4 0"/><feOffset dx="4.0" dy="4.0" in="blurOut2" result="blurOut3"/><feBlend in="SourceGraphic" in2="blurOut3" mode="normal"/></filter></defs><g><text fill="#000000" font-family="sans-serif" font-size="18" lengthAdjust="spacing" textLength="125" x="229.5" y="16.708">_none_ theme</text><!--MD5=[b4fa10df80476353258f72a232547d63]
class AbstractList--><rect codeLine="6" fill="#FEFECE" filter="url(#f53imi61mgbuf)" height="48" id="AbstractList" style="stroke:#A80036;stroke-width:1.5;" width="105" x="170" y="175.3672"/><ellipse cx="185" cy="191.3672" fill="#A9DCDF" rx="11" ry="11" style="stroke:#A80036;stroke-width:1.0;"/><path d="M185.1094,186.7109 L183.9531,191.7891 L186.2813,191.7891 L185.1094,186.7109 Z M183.625,184.4766 L186.6094,184.4766 L189.9688,196.8672 L187.5156,196.8672 L186.75,193.8047 L183.4688,193.8047 L182.7188,196.8672 L180.2813,196.8672 L183.625,184.4766 Z " fill="#000000"/><text fill="#000000" font-family="sans-serif" font-size="12" font-style="italic" lengthAdjust="spacing" textLength="73" x="199" y="195.5215">AbstractList</text><line style="stroke:#A80036;stroke-width:1.5;" x1="171" x2="274" y1="207.3672" y2="207.3672"/><line style="stroke:#A80036;stroke-width:1.5;" x1="171" x2="274" y1="215.3672" y2="215.3672"/><!--MD5=[8e34b16d8d8f96f4a11290cd523ed859]
class AbstractCollection--><rect codeLine="7" fill="#FEFECE" filter="url(#f53imi61mgbuf)" height="48" id="AbstractCollection" style="stroke:#A80036;stroke-width:1.5;" width="145" x="7" y="175.3672"/><ellipse cx="22" cy="191.3672" fill="#A9DCDF" rx="11" ry="11" style="stroke:#A80036;stroke-width:1.0;"/><path d="M22.1094,186.7109 L20.9531,191.7891 L23.2813,191.7891 L22.1094,186.7109 Z M20.625,184.4766 L23.6094,184.4766 L26.9688,196.8672 L24.5156,196.8672 L23.75,193.8047 L20.4688,193.8047 L19.7188,196.8672 L17.2813,196.8672 L20.625,184.4766 Z " fill="#000000"/><text fill="#000000" font-family="sans-serif" font-size="12" font-style="italic" lengthAdjust="spacing" textLength="113" x="36" y="195.5215">AbstractCollection</text><line style="stroke:#A80036;stroke-width:1.5;" x1="8" x2="151" y1="207.3672" y2="207.3672"/><line style="stroke:#A80036;stroke-width:1.5;" x1="8" x2="151" y1="215.3672" y2="215.3672"/><!--MD5=[3d4177ac58b4411586d067f34e84928f]
class List--><rect codeLine="8" fill="#FEFECE" filter="url(#f53imi61mgbuf)" height="48" id="List" style="stroke:#A80036;stroke-width:1.5;" width="53" x="183" y="53.3672"/><ellipse cx="198" cy="69.3672" fill="#B4A7E5" rx="11" ry="11" style="stroke:#A80036;stroke-width:1.0;"/><path d="M193.9219,65.1328 L193.9219,62.9766 L201.3125,62.9766 L201.3125,65.1328 L198.8438,65.1328 L198.8438,73.2109 L201.3125,73.2109 L201.3125,75.3672 L193.9219,75.3672 L193.9219,73.2109 L196.3906,73.2109 L196.3906,65.1328 L193.9219,65.1328 Z " fill="#000000"/><text fill="#000000" font-family="sans-serif" font-size="12" font-style="italic" lengthAdjust="spacing" textLength="21" x="212" y="73.5215">List</text><line style="stroke:#A80036;stroke-width:1.5;" x1="184" x2="235" y1="85.3672" y2="85.3672"/><line style="stroke:#A80036;stroke-width:1.5;" x1="184" x2="235" y1="93.3672" y2="93.3672"/><!--MD5=[c160724f8e3bb89ca8141a12554ac2e3]
class Collection--><rect codeLine="9" fill="#FEFECE" filter="url(#f53imi61mgbuf)" height="48" id="Collection" style="stroke:#A80036;stroke-width:1.5;" width="93" x="46" y="53.3672"/><ellipse cx="61" cy="69.3672" fill="#B4A7E5" rx="11" ry="11" style="stroke:#A80036;stroke-width:1.0;"/><path d="M56.9219,65.1328 L56.9219,62.9766 L64.3125,62.9766 L64.3125,65.1328 L61.8438,65.1328 L61.8438,73.2109 L64.3125,73.2109 L64.3125,75.3672 L56.9219,75.3672 L56.9219,73.2109 L59.3906,73.2109 L59.3906,65.1328 L56.9219,65.1328 Z " fill="#000000"/><text fill="#000000" font-family="sans-serif" font-size="12" font-style="italic" lengthAdjust="spacing" textLength="61" x="75" y="73.5215">Collection</text><line style="stroke:#A80036;stroke-width:1.5;" x1="47" x2="138" y1="85.3672" y2="85.3672"/><line style="stroke:#A80036;stroke-width:1.5;" x1="47" x2="138" y1="93.3672" y2="93.3672"/><!--MD5=[ab8871ed637f40707b866ba6597734bc]
class ArrayList--><rect codeLine="18" fill="#FEFECE" filter="url(#f53imi61mgbuf)" height="73.6094" id="ArrayList" style="stroke:#A80036;stroke-width:1.5;" width="132" x="156.5" y="278.3672"/><ellipse cx="192.65" cy="294.3672" fill="#ADD1B2" rx="11" ry="11" style="stroke:#A80036;stroke-width:1.0;"/><path d="M195.6188,300.0078 Q195.0406,300.3047 194.4,300.4453 Q193.7594,300.6016 193.0563,300.6016 Q190.5563,300.6016 189.2281,298.9609 Q187.9156,297.3047 187.9156,294.1797 Q187.9156,291.0547 189.2281,289.3984 Q190.5563,287.7422 193.0563,287.7422 Q193.7594,287.7422 194.4,287.8984 Q195.0563,288.0547 195.6188,288.3516 L195.6188,291.0703 Q194.9938,290.4922 194.4,290.2266 Q193.8063,289.9453 193.1813,289.9453 Q191.8375,289.9453 191.15,291.0234 Q190.4625,292.0859 190.4625,294.1797 Q190.4625,296.2734 191.15,297.3516 Q191.8375,298.4141 193.1813,298.4141 Q193.8063,298.4141 194.4,298.1484 Q194.9938,297.8672 195.6188,297.2891 L195.6188,300.0078 Z " fill="#000000"/><text fill="#000000" font-family="sans-serif" font-size="12" lengthAdjust="spacing" textLength="53" x="211.35" y="298.5215">ArrayList</text><line style="stroke:#A80036;stroke-width:1.5;" x1="157.5" x2="287.5" y1="310.3672" y2="310.3672"/><text fill="#000000" font-family="sans-serif" font-size="11" lengthAdjust="spacing" textLength="120" x="162.5" y="324.5776">Object[] elementData</text><line style="stroke:#A80036;stroke-width:1.5;" x1="157.5" x2="287.5" y1="331.1719" y2="331.1719"/><text fill="#000000" font-family="sans-serif" font-size="11" lengthAdjust="spacing" textLength="30" x="162.5" y="345.3823">size()</text><!--MD5=[15b68e006199004da79ea2a4d117d8e9]
class TimeUnit--><rect codeLine="23" fill="#FEFECE" filter="url(#f53imi61mgbuf)" height="86.4141" id="TimeUnit" style="stroke:#A80036;stroke-width:1.5;" width="86" x="329.5" y="34.3672"/><ellipse cx="344.5" cy="50.3672" fill="#EB937F" rx="11" ry="11" style="stroke:#A80036;stroke-width:1.0;"/><path d="M348.6094,56.3672 L340.8906,56.3672 L340.8906,43.9766 L348.6094,43.9766 L348.6094,46.1328 L343.3438,46.1328 L343.3438,48.8047 L348.1094,48.8047 L348.1094,50.9609 L343.3438,50.9609 L343.3438,54.2109 L348.6094,54.2109 L348.6094,56.3672 Z " fill="#000000"/><text fill="#000000" font-family="sans-serif" font-size="12" lengthAdjust="spacing" textLength="54" x="358.5" y="54.5215">TimeUnit</text><line style="stroke:#A80036;stroke-width:1.5;" x1="330.5" x2="414.5" y1="66.3672" y2="66.3672"/><text fill="#000000" font-family="sans-serif" font-size="11" lengthAdjust="spacing" textLength="30" x="335.5" y="80.5776">DAYS</text><text fill="#000000" font-family="sans-serif" font-size="11" lengthAdjust="spacing" textLength="40" x="335.5" y="93.3823">HOURS</text><text fill="#000000" font-family="sans-serif" font-size="11" lengthAdjust="spacing" textLength="50" x="335.5" y="106.187">MINUTES</text><line style="stroke:#A80036;stroke-width:1.5;" x1="330.5" x2="414.5" y1="112.7813" y2="112.7813"/><!--MD5=[0c8287f799745f7b534bf75518604c1e]
class SuppressWarnings--><rect codeLine="29" fill="#FEFECE" filter="url(#f53imi61mgbuf)" height="48" id="SuppressWarnings" style="stroke:#A80036;stroke-width:1.5;" width="149" x="434" y="53.3672"/><ellipse cx="449" cy="69.3672" fill="#E3664A" rx="11" ry="11" style="stroke:#A80036;stroke-width:1.0;"/><path d="M451.0781,69.8359 Q451.0781,68.8984 450.6563,68.3672 Q450.2344,67.8359 449.4844,67.8359 Q448.75,67.8359 448.3281,68.3672 Q447.9219,68.8984 447.9219,69.8359 Q447.9219,70.7891 448.3281,71.3203 Q448.75,71.8516 449.4844,71.8516 Q450.2344,71.8516 450.6563,71.3203 Q451.0781,70.7891 451.0781,69.8359 Z M452.625,73.2422 L451,73.2422 L451,72.5703 Q450.6719,73.0078 450.25,73.2109 Q449.8281,73.4141 449.2188,73.4141 Q447.8594,73.4141 447.0313,72.4453 Q446.2031,71.4609 446.2031,69.8359 Q446.2031,68.2422 447.0313,67.2734 Q447.8594,66.2891 449.2188,66.2891 Q449.8125,66.2891 450.2656,66.4922 Q450.7188,66.6953 451,67.0859 L451,66.7422 Q451,65.6172 450.375,65.0078 Q449.75,64.3828 448.6094,64.3828 Q446.8906,64.3828 445.7969,65.9141 Q444.7031,67.4297 444.7031,69.8672 Q444.7031,72.4141 445.9531,73.9141 Q447.2188,75.4141 449.3281,75.4141 Q449.9844,75.4141 450.6094,75.2266 Q451.2344,75.0391 451.8125,74.6484 L452.5781,76.1016 Q451.9063,76.5547 451.1094,76.7734 Q450.3125,77.0078 449.4063,77.0078 Q446.5,77.0078 444.7656,75.0703 Q443.0469,73.1484 443.0469,69.8672 Q443.0469,66.6484 444.5938,64.7266 Q446.1563,62.7891 448.7188,62.7891 Q450.5156,62.7891 451.5625,63.8828 Q452.625,64.9766 452.625,66.8516 L452.625,73.2422 Z " fill="#000000"/><text fill="#000000" font-family="sans-serif" font-size="12" lengthAdjust="spacing" textLength="117" x="463" y="73.5215">SuppressWarnings</text><line style="stroke:#A80036;stroke-width:1.5;" x1="435" x2="582" y1="85.3672" y2="85.3672"/><line style="stroke:#A80036;stroke-width:1.5;" x1="435" x2="582" y1="93.3672" y2="93.3672"/><!--MD5=[faebc81c07309c527f2fda51bf6b78ab]
class Annotation--><rect codeLine="31" fill="#FEFECE" filter="url(#f53imi61mgbuf)" height="86.4141" id="Annotation" style="stroke:#A80036;stroke-width:1.5;" width="158" x="293.5" y="156.3672"/><ellipse cx="334.15" cy="172.3672" fill="#E3664A" rx="11" ry="11" style="stroke:#A80036;stroke-width:1.0;"/><path d="M336.2281,172.8359 Q336.2281,171.8984 335.8063,171.3672 Q335.3844,170.8359 334.6344,170.8359 Q333.9,170.8359 333.4781,171.3672 Q333.0719,171.8984 333.0719,172.8359 Q333.0719,173.7891 333.4781,174.3203 Q333.9,174.8516 334.6344,174.8516 Q335.3844,174.8516 335.8063,174.3203 Q336.2281,173.7891 336.2281,172.8359 Z M337.775,176.2422 L336.15,176.2422 L336.15,175.5703 Q335.8219,176.0078 335.4,176.2109 Q334.9781,176.4141 334.3688,176.4141 Q333.0094,176.4141 332.1813,175.4453 Q331.3531,174.4609 331.3531,172.8359 Q331.3531,171.2422 332.1813,170.2734 Q333.0094,169.2891 334.3688,169.2891 Q334.9625,169.2891 335.4156,169.4922 Q335.8688,169.6953 336.15,170.0859 L336.15,169.7422 Q336.15,168.6172 335.525,168.0078 Q334.9,167.3828 333.7594,167.3828 Q332.0406,167.3828 330.9469,168.9141 Q329.8531,170.4297 329.8531,172.8672 Q329.8531,175.4141 331.1031,176.9141 Q332.3688,178.4141 334.4781,178.4141 Q335.1344,178.4141 335.7594,178.2266 Q336.3844,178.0391 336.9625,177.6484 L337.7281,179.1016 Q337.0563,179.5547 336.2594,179.7734 Q335.4625,180.0078 334.5563,180.0078 Q331.65,180.0078 329.9156,178.0703 Q328.1969,176.1484 328.1969,172.8672 Q328.1969,169.6484 329.7438,167.7266 Q331.3063,165.7891 333.8688,165.7891 Q335.6656,165.7891 336.7125,166.8828 Q337.775,167.9766 337.775,169.8516 L337.775,176.2422 Z " fill="#000000"/><text fill="#000000" font-family="sans-serif" font-size="12" lengthAdjust="spacing" textLength="69" x="353.85" y="176.5215">Annotation</text><line style="stroke:#A80036;stroke-width:1.5;" x1="294.5" x2="450.5" y1="188.3672" y2="188.3672"/><text fill="#000000" font-family="sans-serif" font-size="11" lengthAdjust="spacing" textLength="146" x="299.5" y="202.5776">annotation with members</text><line style="stroke:#A80036;stroke-width:1.5;" x1="294.5" x2="450.5" y1="209.1719" y2="209.1719"/><text fill="#000000" font-family="sans-serif" font-size="11" lengthAdjust="spacing" textLength="64" x="299.5" y="223.3823">String foo()</text><text fill="#000000" font-family="sans-serif" font-size="11" lengthAdjust="spacing" textLength="65" x="299.5" y="236.187">String bar()</text><path d="M212.0065,101.5044 C214.3085,122.7537 217.7016,154.0742 220.0012,175.301 " fill="none" style="stroke:#A80036;stroke-width:1.0;"/><polygon fill="#FFFFFF" points="212.0065,101.5044,207.7647,118.0575,219.6949,116.7651,212.0065,101.5044" style="stroke:#A80036;stroke-width:1.0;"/><path d="M89.9935,101.5044 C87.6915,122.7537 84.2984,154.0742 81.9988,175.301 " fill="none" style="stroke:#A80036;stroke-width:1.0;"/><polygon fill="#FFFFFF" points="89.9935,101.5044,82.3051,116.7651,94.2353,118.0575,89.9935,101.5044" style="stroke:#A80036;stroke-width:1.0;"/><path d="M139.1172,77.3672 C153.6886,77.3672 168.2601,77.3672 182.8315,77.3672 " fill="none" style="stroke:#A80036;stroke-width:1.0;"/><polygon fill="#FFFFFF" points="139.1172,77.3672,155.1172,83.3672,155.1172,71.3672,139.1172,77.3672" style="stroke:#A80036;stroke-width:1.0;"/><path d="M152.1172,199.3672 C158.0741,199.3672 164.0309,199.3672 169.9878,199.3672 " fill="none" style="stroke:#A80036;stroke-width:1.0;"/><polygon fill="#FFFFFF" points="152.1172,199.3672,168.1172,205.3672,168.1172,193.3672,152.1172,199.3672" style="stroke:#A80036;stroke-width:1.0;"/><path d="M222.5,223.4368 C222.5,239.1815 222.5,260.3568 222.5,278.3116 " fill="none" style="stroke:#A80036;stroke-width:1.0;"/><polygon fill="#FFFFFF" points="222.5,223.4368,216.5,239.4368,228.5,239.4368,222.5,223.4368" style="stroke:#A80036;stroke-width:1.0;"/><!--MD5=[616e53137d47e561fb9db1a6876a0344]
@startuml
!pragma layout smetana
!theme _none_
title _none_ theme
abstract class AbstractList
abstract AbstractCollection
interface List
interface Collection

List <|- - AbstractList
Collection <|- - AbstractCollection

Collection <|- List
AbstractCollection <|- AbstractList
AbstractList <|- - ArrayList

class ArrayList {
  Object[] elementData
  size()
}

enum TimeUnit {
  DAYS
  HOURS
  MINUTES
}

annotation SuppressWarnings

annotation Annotation {
  annotation with members
  String foo()
  String bar()
}
@enduml

@startuml
!pragma layout smetana
title _none_ theme
abstract class AbstractList
abstract AbstractCollection
interface List
interface Collection

List <|- - AbstractList
Collection <|- - AbstractCollection

Collection <|- List
AbstractCollection <|- AbstractList
AbstractList <|- - ArrayList

class ArrayList {
  Object[] elementData
  size()
}

enum TimeUnit {
  DAYS
  HOURS
  MINUTES
}

annotation SuppressWarnings

annotation Annotation {
  annotation with members
  String foo()
  String bar()
}
@enduml

PlantUML version 1.2021.12(Tue Oct 05 16:01:58 UTC 2021)
(GPL source distribution)
Java Runtime: OpenJDK Runtime Environment
JVM: OpenJDK 64-Bit Server VM
Default Encoding: UTF-8
Language: en
Country: null
--></g></svg>