<?xml version="1.0" encoding="UTF-8" standalone="no"?><svg xmlns="http://www.w3.org/2000/svg" xmlns:xlink="http://www.w3.org/1999/xlink" contentStyleType="text/css" height="315px" preserveAspectRatio="none" style="width:472px;height:315px;background:#003153;" version="1.1" viewBox="0 0 472 315" width="472px" zoomAndPan="magnify"><defs/><g><rect fill="#003153" height="315" style="stroke:none;stroke-width:1.0;" width="472" x="0" y="0"/><!--class abstract--><g id="elem_abstract"><rect codeLine="6" fill="#003153" height="44" id="abstract" rx="2.5" ry="2.5" style="stroke:#D9D3D0;stroke-width:1.0;" width="83" x="63.5" y="24.9209"/><ellipse cx="76.5" cy="38.9209" fill="#003153" rx="9" ry="9" style="stroke:#D9D3D0;stroke-width:1.0;"/><path d="M76.6094,34.2646 L75.4531,39.3428 L77.7813,39.3428 L76.6094,34.2646 Z M75.125,32.0303 L78.1094,32.0303 L81.4688,44.4209 L79.0156,44.4209 L78.25,41.3584 L74.9688,41.3584 L74.2188,44.4209 L71.7813,44.4209 L75.125,32.0303 Z " fill="#D9D3D0"/><text fill="#D9D3D0" font-family="Verdana" font-size="14" font-style="italic" lengthAdjust="spacing" textLength="55" x="88.5" y="43.7676">abstract</text><line style="stroke:#D9D3D0;stroke-width:1.0;" x1="64.5" x2="145.5" y1="52.9209" y2="52.9209"/><line style="stroke:#D9D3D0;stroke-width:1.0;" x1="64.5" x2="145.5" y1="60.9209" y2="60.9209"/></g><!--class abstract class--><g id="elem_abstract class"><rect codeLine="7" fill="#003153" height="44" id="abstract class" rx="2.5" ry="2.5" style="stroke:#D9D3D0;stroke-width:1.0;" width="120" x="165" y="24.9209"/><ellipse cx="178" cy="38.9209" fill="#003153" rx="9" ry="9" style="stroke:#D9D3D0;stroke-width:1.0;"/><path d="M178.1094,34.2646 L176.9531,39.3428 L179.2813,39.3428 L178.1094,34.2646 Z M176.625,32.0303 L179.6094,32.0303 L182.9688,44.4209 L180.5156,44.4209 L179.75,41.3584 L176.4688,41.3584 L175.7188,44.4209 L173.2813,44.4209 L176.625,32.0303 Z " fill="#D9D3D0"/><text fill="#D9D3D0" font-family="Verdana" font-size="14" font-style="italic" lengthAdjust="spacing" textLength="92" x="190" y="43.7676">abstract class</text><line style="stroke:#D9D3D0;stroke-width:1.0;" x1="166" x2="284" y1="52.9209" y2="52.9209"/><line style="stroke:#D9D3D0;stroke-width:1.0;" x1="166" x2="284" y1="60.9209" y2="60.9209"/></g><!--class annotation--><g id="elem_annotation"><rect codeLine="8" fill="#003153" height="44" id="annotation" rx="2.5" ry="2.5" style="stroke:#D9D3D0;stroke-width:1.0;" width="102" x="303" y="24.9209"/><ellipse cx="316" cy="38.9209" fill="#003153" rx="9" ry="9" style="stroke:#D9D3D0;stroke-width:1.0;"/><path d="M318.0781,39.3896 Q318.0781,38.4521 317.6563,37.9209 Q317.2344,37.3896 316.4844,37.3896 Q315.75,37.3896 315.3281,37.9209 Q314.9219,38.4521 314.9219,39.3896 Q314.9219,40.3428 315.3281,40.874 Q315.75,41.4053 316.4844,41.4053 Q317.2344,41.4053 317.6563,40.874 Q318.0781,40.3428 318.0781,39.3896 Z M319.625,42.7959 L318,42.7959 L318,42.124 Q317.6719,42.5615 317.25,42.7646 Q316.8281,42.9678 316.2188,42.9678 Q314.8594,42.9678 314.0313,41.999 Q313.2031,41.0146 313.2031,39.3896 Q313.2031,37.7959 314.0313,36.8271 Q314.8594,35.8428 316.2188,35.8428 Q316.8125,35.8428 317.2656,36.0459 Q317.7188,36.249 318,36.6396 L318,36.2959 Q318,35.1709 317.375,34.5615 Q316.75,33.9365 315.6094,33.9365 Q313.8906,33.9365 312.7969,35.4678 Q311.7031,36.9834 311.7031,39.4209 Q311.7031,41.9678 312.9531,43.4678 Q314.2188,44.9678 316.3281,44.9678 Q316.9844,44.9678 317.6094,44.7803 Q318.2344,44.5928 318.8125,44.2021 L319.5781,45.6553 Q318.9063,46.1084 318.1094,46.3271 Q317.3125,46.5615 316.4063,46.5615 Q313.5,46.5615 311.7656,44.624 Q310.0469,42.7021 310.0469,39.4209 Q310.0469,36.2021 311.5938,34.2803 Q313.1563,32.3428 315.7188,32.3428 Q317.5156,32.3428 318.5625,33.4365 Q319.625,34.5303 319.625,36.4053 L319.625,42.7959 Z " fill="#D9D3D0"/><text fill="#D9D3D0" font-family="Verdana" font-size="14" lengthAdjust="spacing" textLength="74" x="328" y="43.7676">annotation</text><line style="stroke:#D9D3D0;stroke-width:1.0;" x1="304" x2="404" y1="52.9209" y2="52.9209"/><line style="stroke:#D9D3D0;stroke-width:1.0;" x1="304" x2="404" y1="60.9209" y2="60.9209"/></g><!--entity circle--><g id="elem_circle"><ellipse cx="432" cy="43.9209" fill="#003153" rx="8" ry="8" style="stroke:#D9D3D0;stroke-width:0.0;"/><text fill="#D9D3D0" font-family="Verdana" font-size="22" lengthAdjust="spacing" textLength="58" x="403" y="81.3418">circle</text></g><!--entity circle_short_form--><g id="elem_circle_short_form"><ellipse cx="105" cy="123.9209" fill="#003153" rx="8" ry="8" style="stroke:#D9D3D0;stroke-width:0.0;"/><text fill="#D9D3D0" font-family="Verdana" font-size="22" lengthAdjust="spacing" textLength="188" x="11" y="161.3418">circle_short_form</text></g><!--class class--><g id="elem_class"><rect codeLine="11" fill="#003153" height="44" id="class" rx="2.5" ry="2.5" style="stroke:#D9D3D0;stroke-width:1.0;" width="63" x="132.5" y="104.9209"/><ellipse cx="145.5" cy="118.9209" fill="#003153" rx="9" ry="9" style="stroke:#D9D3D0;stroke-width:1.0;"/><path d="M148.4688,124.5615 Q147.8906,124.8584 147.25,124.999 Q146.6094,125.1553 145.9063,125.1553 Q143.4063,125.1553 142.0781,123.5146 Q140.7656,121.8584 140.7656,118.7334 Q140.7656,115.6084 142.0781,113.9521 Q143.4063,112.2959 145.9063,112.2959 Q146.6094,112.2959 147.25,112.4521 Q147.9063,112.6084 148.4688,112.9053 L148.4688,115.624 Q147.8438,115.0459 147.25,114.7803 Q146.6563,114.499 146.0313,114.499 Q144.6875,114.499 144,115.5771 Q143.3125,116.6396 143.3125,118.7334 Q143.3125,120.8271 144,121.9053 Q144.6875,122.9678 146.0313,122.9678 Q146.6563,122.9678 147.25,122.7021 Q147.8438,122.4209 148.4688,121.8428 L148.4688,124.5615 Z " fill="#D9D3D0"/><text fill="#D9D3D0" font-family="Verdana" font-size="14" lengthAdjust="spacing" textLength="35" x="157.5" y="123.7676">class</text><line style="stroke:#D9D3D0;stroke-width:1.0;" x1="133.5" x2="194.5" y1="132.9209" y2="132.9209"/><line style="stroke:#D9D3D0;stroke-width:1.0;" x1="133.5" x2="194.5" y1="140.9209" y2="140.9209"/></g><g id="elem_diamond"><polygon fill="#003153" points="226,114.9209,238,126.9209,226,138.9209,214,126.9209,226,114.9209" style="stroke:#D9D3D0;stroke-width:1.0;"/></g><polygon fill="#003153" points="268,114.9209,280,126.9209,268,138.9209,256,126.9209,268,114.9209" style="stroke:#D9D3D0;stroke-width:1.0;"/><!--class entity--><g id="elem_entity"><rect codeLine="14" fill="#003153" height="44" id="entity" rx="2.5" ry="2.5" style="stroke:#D9D3D0;stroke-width:1.0;" width="66" x="72" y="184.9209"/><ellipse cx="85" cy="198.9209" fill="#003153" rx="9" ry="9" style="stroke:#D9D3D0;stroke-width:1.0;"/><path d="M89.1094,204.9209 L81.3906,204.9209 L81.3906,192.5303 L89.1094,192.5303 L89.1094,194.6865 L83.8438,194.6865 L83.8438,197.3584 L88.6094,197.3584 L88.6094,199.5146 L83.8438,199.5146 L83.8438,202.7646 L89.1094,202.7646 L89.1094,204.9209 Z " fill="#D9D3D0"/><text fill="#D9D3D0" font-family="Verdana" font-size="14" lengthAdjust="spacing" textLength="38" x="97" y="203.7676">entity</text><line style="stroke:#D9D3D0;stroke-width:1.0;" x1="73" x2="137" y1="212.9209" y2="212.9209"/><line style="stroke:#D9D3D0;stroke-width:1.0;" x1="73" x2="137" y1="220.9209" y2="220.9209"/></g><!--class enum--><g id="elem_enum"><rect codeLine="15" fill="#003153" height="44" id="enum" rx="2.5" ry="2.5" style="stroke:#D9D3D0;stroke-width:1.0;" width="68" x="156" y="184.9209"/><ellipse cx="169" cy="198.9209" fill="#003153" rx="9" ry="9" style="stroke:#D9D3D0;stroke-width:1.0;"/><path d="M173.1094,204.9209 L165.3906,204.9209 L165.3906,192.5303 L173.1094,192.5303 L173.1094,194.6865 L167.8438,194.6865 L167.8438,197.3584 L172.6094,197.3584 L172.6094,199.5146 L167.8438,199.5146 L167.8438,202.7646 L173.1094,202.7646 L173.1094,204.9209 Z " fill="#D9D3D0"/><text fill="#D9D3D0" font-family="Verdana" font-size="14" lengthAdjust="spacing" textLength="40" x="181" y="203.7676">enum</text><line style="stroke:#D9D3D0;stroke-width:1.0;" x1="157" x2="223" y1="212.9209" y2="212.9209"/><line style="stroke:#D9D3D0;stroke-width:1.0;" x1="157" x2="223" y1="220.9209" y2="220.9209"/></g><!--class exception--><g id="elem_exception"><rect codeLine="16" fill="#003153" height="44" id="exception" rx="2.5" ry="2.5" style="stroke:#D9D3D0;stroke-width:1.0;" width="96" x="242" y="184.9209"/><ellipse cx="255" cy="198.9209" fill="#003153" rx="9" ry="9" style="stroke:#D9D3D0;stroke-width:1.0;"/><path d="M260.0156,204.9209 L257.4844,204.9209 L255.1094,200.8271 L252.75,204.9209 L250.2188,204.9209 L253.8594,198.624 L250.3281,192.5303 L252.8594,192.5303 L255.1094,196.4678 L257.375,192.5303 L259.9063,192.5303 L256.3906,198.624 L260.0156,204.9209 Z " fill="#D9D3D0"/><text fill="#D9D3D0" font-family="Verdana" font-size="14" lengthAdjust="spacing" textLength="68" x="267" y="203.7676">exception</text><line style="stroke:#D9D3D0;stroke-width:1.0;" x1="243" x2="337" y1="212.9209" y2="212.9209"/><line style="stroke:#D9D3D0;stroke-width:1.0;" x1="243" x2="337" y1="220.9209" y2="220.9209"/></g><!--class interface--><g id="elem_interface"><rect codeLine="17" fill="#003153" height="44" id="interface" rx="2.5" ry="2.5" style="stroke:#D9D3D0;stroke-width:1.0;" width="88" x="356" y="184.9209"/><ellipse cx="369" cy="198.9209" fill="#003153" rx="9" ry="9" style="stroke:#D9D3D0;stroke-width:1.0;"/><path d="M364.9219,194.6865 L364.9219,192.5303 L372.3125,192.5303 L372.3125,194.6865 L369.8438,194.6865 L369.8438,202.7646 L372.3125,202.7646 L372.3125,204.9209 L364.9219,204.9209 L364.9219,202.7646 L367.3906,202.7646 L367.3906,194.6865 L364.9219,194.6865 Z " fill="#D9D3D0"/><text fill="#D9D3D0" font-family="Verdana" font-size="14" font-style="italic" lengthAdjust="spacing" textLength="60" x="381" y="203.7676">interface</text><line style="stroke:#D9D3D0;stroke-width:1.0;" x1="357" x2="443" y1="212.9209" y2="212.9209"/><line style="stroke:#D9D3D0;stroke-width:1.0;" x1="357" x2="443" y1="220.9209" y2="220.9209"/></g><!--class metaclass--><g id="elem_metaclass"><rect codeLine="18" fill="#003153" height="44" id="metaclass" rx="2.5" ry="2.5" style="stroke:#D9D3D0;stroke-width:1.0;" width="98" x="56" y="264.9209"/><ellipse cx="69" cy="278.9209" fill="#003153" rx="9" ry="9" style="stroke:#D9D3D0;stroke-width:1.0;"/><path d="M64.7188,272.5303 L67.6406,272.5303 L69.1094,277.9678 L70.5781,272.5303 L73.5156,272.5303 L73.5156,284.9209 L71.4063,284.9209 L71.4063,274.999 L70.0938,280.4209 L68.1563,280.4209 L66.8281,274.999 L66.8281,284.9209 L64.7188,284.9209 L64.7188,272.5303 Z " fill="#D9D3D0"/><text fill="#D9D3D0" font-family="Verdana" font-size="14" lengthAdjust="spacing" textLength="70" x="81" y="283.7676">metaclass</text><line style="stroke:#D9D3D0;stroke-width:1.0;" x1="57" x2="153" y1="292.9209" y2="292.9209"/><line style="stroke:#D9D3D0;stroke-width:1.0;" x1="57" x2="153" y1="300.9209" y2="300.9209"/></g><!--class protocol--><g id="elem_protocol"><rect codeLine="19" fill="#003153" height="44" id="protocol" rx="2.5" ry="2.5" style="stroke:#D9D3D0;stroke-width:1.0;" width="85" x="172.5" y="264.9209"/><ellipse cx="185.5" cy="278.9209" fill="#003153" rx="9" ry="9" style="stroke:#D9D3D0;stroke-width:1.0;"/><path d="M185.2969,274.5928 L185.2969,278.2178 L186.2969,278.2178 Q187.5,278.2178 187.9844,277.8115 Q188.4688,277.4053 188.4688,276.4053 Q188.4688,275.4053 187.9844,274.999 Q187.5,274.5928 186.2969,274.5928 L185.2969,274.5928 Z M182.8438,272.5303 L186.2031,272.5303 Q188.7656,272.5303 189.8906,273.4521 Q191.0156,274.3584 191.0156,276.4053 Q191.0156,278.4521 189.8906,279.374 Q188.7656,280.2803 186.2031,280.2803 L185.2969,280.2803 L185.2969,284.9209 L182.8438,284.9209 L182.8438,272.5303 Z " fill="#D9D3D0"/><text fill="#D9D3D0" font-family="Verdana" font-size="14" lengthAdjust="spacing" textLength="57" x="197.5" y="283.7676">protocol</text><line style="stroke:#D9D3D0;stroke-width:1.0;" x1="173.5" x2="256.5" y1="292.9209" y2="292.9209"/><line style="stroke:#D9D3D0;stroke-width:1.0;" x1="173.5" x2="256.5" y1="300.9209" y2="300.9209"/></g><!--class stereotype--><g id="elem_stereotype"><rect codeLine="20" fill="#003153" height="44" id="stereotype" rx="2.5" ry="2.5" style="stroke:#D9D3D0;stroke-width:1.0;" width="103" x="275.5" y="264.9209"/><ellipse cx="288.5" cy="278.9209" fill="#003153" rx="9" ry="9" style="stroke:#D9D3D0;stroke-width:1.0;"/><path d="M287.9844,279.4834 Q286.125,278.7803 285.4688,278.0146 Q284.8281,277.2334 284.8281,275.9209 Q284.8281,274.2334 285.9063,273.2646 Q286.9844,272.2959 288.8594,272.2959 Q289.7188,272.2959 290.5625,272.499 Q291.4219,272.6865 292.2656,273.0771 L292.2656,275.4678 Q291.4844,274.9053 290.6563,274.624 Q289.8438,274.3271 289.0469,274.3271 Q288.1719,274.3271 287.6875,274.6865 Q287.2188,275.0459 287.2188,275.7021 Q287.2188,276.2178 287.5625,276.5615 Q287.9063,276.8896 289,277.2959 L290.0625,277.7021 Q291.5469,278.249 292.25,279.1553 Q292.9688,280.0615 292.9688,281.4365 Q292.9688,283.3115 291.8594,284.2334 Q290.75,285.1553 288.5,285.1553 Q287.5781,285.1553 286.6563,284.9365 Q285.7344,284.7178 284.875,284.2959 L284.875,281.7646 Q285.8438,282.4521 286.7656,282.7959 Q287.6875,283.1396 288.5781,283.1396 Q289.4844,283.1396 289.9844,282.7334 Q290.4844,282.3115 290.4844,281.5771 Q290.4844,281.0146 290.1406,280.6084 Q289.8125,280.1865 289.1875,279.9365 L287.9844,279.4834 Z " fill="#D9D3D0"/><text fill="#D9D3D0" font-family="Verdana" font-size="14" lengthAdjust="spacing" textLength="75" x="300.5" y="283.7676">stereotype</text><line style="stroke:#D9D3D0;stroke-width:1.0;" x1="276.5" x2="377.5" y1="292.9209" y2="292.9209"/><line style="stroke:#D9D3D0;stroke-width:1.0;" x1="276.5" x2="377.5" y1="300.9209" y2="300.9209"/></g><!--class struct--><g id="elem_struct"><rect codeLine="21" fill="#003153" height="44" id="struct" rx="2.5" ry="2.5" style="stroke:#D9D3D0;stroke-width:1.0;" width="68" x="397" y="264.9209"/><ellipse cx="410" cy="278.9209" fill="#003153" rx="9" ry="9" style="stroke:#D9D3D0;stroke-width:1.0;"/><path d="M409.4844,279.4834 Q407.625,278.7803 406.9688,278.0146 Q406.3281,277.2334 406.3281,275.9209 Q406.3281,274.2334 407.4063,273.2646 Q408.4844,272.2959 410.3594,272.2959 Q411.2188,272.2959 412.0625,272.499 Q412.9219,272.6865 413.7656,273.0771 L413.7656,275.4678 Q412.9844,274.9053 412.1563,274.624 Q411.3438,274.3271 410.5469,274.3271 Q409.6719,274.3271 409.1875,274.6865 Q408.7188,275.0459 408.7188,275.7021 Q408.7188,276.2178 409.0625,276.5615 Q409.4063,276.8896 410.5,277.2959 L411.5625,277.7021 Q413.0469,278.249 413.75,279.1553 Q414.4688,280.0615 414.4688,281.4365 Q414.4688,283.3115 413.3594,284.2334 Q412.25,285.1553 410,285.1553 Q409.0781,285.1553 408.1563,284.9365 Q407.2344,284.7178 406.375,284.2959 L406.375,281.7646 Q407.3438,282.4521 408.2656,282.7959 Q409.1875,283.1396 410.0781,283.1396 Q410.9844,283.1396 411.4844,282.7334 Q411.9844,282.3115 411.9844,281.5771 Q411.9844,281.0146 411.6406,280.6084 Q411.3125,280.1865 410.6875,279.9365 L409.4844,279.4834 Z " fill="#D9D3D0"/><text fill="#D9D3D0" font-family="Verdana" font-size="14" lengthAdjust="spacing" textLength="40" x="422" y="283.7676">struct</text><line style="stroke:#D9D3D0;stroke-width:1.0;" x1="398" x2="464" y1="292.9209" y2="292.9209"/><line style="stroke:#D9D3D0;stroke-width:1.0;" x1="398" x2="464" y1="300.9209" y2="300.9209"/></g></g></svg>