<?xml version="1.0" encoding="UTF-8" standalone="no"?><svg xmlns="http://www.w3.org/2000/svg" xmlns:xlink="http://www.w3.org/1999/xlink" contentScriptType="application/ecmascript" contentStyleType="text/css" height="396px" preserveAspectRatio="none" style="width:640px;height:396px;background:#FFFFFF;" version="1.1" viewBox="0 0 640 396" width="640px" zoomAndPan="magnify"><defs/><g><rect fill="none" height="26.2969" style="stroke:none;stroke-width:1.0;" width="165" x="230.75" y="5"/><text fill="#000000" font-family="sans-serif" font-size="14" font-weight="bold" lengthAdjust="spacing" textLength="155" x="235.75" y="22.9951">resume-light theme</text><!--MD5=[b4fa10df80476353258f72a232547d63]
class AbstractList--><rect codeLine="7" fill="#FEFECE" height="48" id="AbstractList" style="stroke:#A80036;stroke-width:1.5;" width="112" x="182.5" y="200.6875"/><ellipse cx="197.5" cy="216.6875" fill="#A9DCDF" rx="11" ry="11" style="stroke:#A80036;stroke-width:1.0;"/><path d="M197.6094,212.0313 L196.4531,217.1094 L198.7813,217.1094 L197.6094,212.0313 Z M196.125,209.7969 L199.1094,209.7969 L202.4688,222.1875 L200.0156,222.1875 L199.25,219.125 L195.9688,219.125 L195.2188,222.1875 L192.7813,222.1875 L196.125,209.7969 Z " fill="#000000"/><text fill="#000000" font-family="sans-serif" font-size="14" font-style="italic" lengthAdjust="spacing" textLength="80" x="211.5" y="221.5342">AbstractList</text><line style="stroke:#A80036;stroke-width:1.5;" x1="183.5" x2="293.5" y1="232.6875" y2="232.6875"/><line style="stroke:#A80036;stroke-width:1.5;" x1="183.5" x2="293.5" y1="240.6875" y2="240.6875"/><!--MD5=[8e34b16d8d8f96f4a11290cd523ed859]
class AbstractCollection--><rect codeLine="8" fill="#FEFECE" height="48" id="AbstractCollection" style="stroke:#A80036;stroke-width:1.5;" width="157" x="7" y="200.6875"/><ellipse cx="22" cy="216.6875" fill="#A9DCDF" rx="11" ry="11" style="stroke:#A80036;stroke-width:1.0;"/><path d="M22.1094,212.0313 L20.9531,217.1094 L23.2813,217.1094 L22.1094,212.0313 Z M20.625,209.7969 L23.6094,209.7969 L26.9688,222.1875 L24.5156,222.1875 L23.75,219.125 L20.4688,219.125 L19.7188,222.1875 L17.2813,222.1875 L20.625,209.7969 Z " fill="#000000"/><text fill="#000000" font-family="sans-serif" font-size="14" font-style="italic" lengthAdjust="spacing" textLength="125" x="36" y="221.5342">AbstractCollection</text><line style="stroke:#A80036;stroke-width:1.5;" x1="8" x2="163" y1="232.6875" y2="232.6875"/><line style="stroke:#A80036;stroke-width:1.5;" x1="8" x2="163" y1="240.6875" y2="240.6875"/><!--MD5=[3d4177ac58b4411586d067f34e84928f]
class List--><rect codeLine="9" fill="#FEFECE" height="48" id="List" style="stroke:#A80036;stroke-width:1.5;" width="55" x="196" y="67.6875"/><ellipse cx="211" cy="83.6875" fill="#B4A7E5" rx="11" ry="11" style="stroke:#A80036;stroke-width:1.0;"/><path d="M206.9219,79.4531 L206.9219,77.2969 L214.3125,77.2969 L214.3125,79.4531 L211.8438,79.4531 L211.8438,87.5313 L214.3125,87.5313 L214.3125,89.6875 L206.9219,89.6875 L206.9219,87.5313 L209.3906,87.5313 L209.3906,79.4531 L206.9219,79.4531 Z " fill="#000000"/><text fill="#000000" font-family="sans-serif" font-size="14" font-style="italic" lengthAdjust="spacing" textLength="23" x="225" y="88.5342">List</text><line style="stroke:#A80036;stroke-width:1.5;" x1="197" x2="250" y1="99.6875" y2="99.6875"/><line style="stroke:#A80036;stroke-width:1.5;" x1="197" x2="250" y1="107.6875" y2="107.6875"/><!--MD5=[c160724f8e3bb89ca8141a12554ac2e3]
class Collection--><rect codeLine="10" fill="#FEFECE" height="48" id="Collection" style="stroke:#A80036;stroke-width:1.5;" width="100" x="49.5" y="67.6875"/><ellipse cx="64.5" cy="83.6875" fill="#B4A7E5" rx="11" ry="11" style="stroke:#A80036;stroke-width:1.0;"/><path d="M60.4219,79.4531 L60.4219,77.2969 L67.8125,77.2969 L67.8125,79.4531 L65.3438,79.4531 L65.3438,87.5313 L67.8125,87.5313 L67.8125,89.6875 L60.4219,89.6875 L60.4219,87.5313 L62.8906,87.5313 L62.8906,79.4531 L60.4219,79.4531 Z " fill="#000000"/><text fill="#000000" font-family="sans-serif" font-size="14" font-style="italic" lengthAdjust="spacing" textLength="68" x="78.5" y="88.5342">Collection</text><line style="stroke:#A80036;stroke-width:1.5;" x1="50.5" x2="148.5" y1="99.6875" y2="99.6875"/><line style="stroke:#A80036;stroke-width:1.5;" x1="50.5" x2="148.5" y1="107.6875" y2="107.6875"/><!--MD5=[ab8871ed637f40707b866ba6597734bc]
class ArrayList--><rect codeLine="19" fill="#FEFECE" height="80.5938" id="ArrayList" style="stroke:#A80036;stroke-width:1.5;" width="160" x="158.5" y="309.1875"/><ellipse cx="205.75" cy="325.1875" fill="#ADD1B2" rx="11" ry="11" style="stroke:#A80036;stroke-width:1.0;"/><path d="M208.7188,330.8281 Q208.1406,331.125 207.5,331.2656 Q206.8594,331.4219 206.1563,331.4219 Q203.6563,331.4219 202.3281,329.7813 Q201.0156,328.125 201.0156,325 Q201.0156,321.875 202.3281,320.2188 Q203.6563,318.5625 206.1563,318.5625 Q206.8594,318.5625 207.5,318.7188 Q208.1563,318.875 208.7188,319.1719 L208.7188,321.8906 Q208.0938,321.3125 207.5,321.0469 Q206.9063,320.7656 206.2813,320.7656 Q204.9375,320.7656 204.25,321.8438 Q203.5625,322.9063 203.5625,325 Q203.5625,327.0938 204.25,328.1719 Q204.9375,329.2344 206.2813,329.2344 Q206.9063,329.2344 207.5,328.9688 Q208.0938,328.6875 208.7188,328.1094 L208.7188,330.8281 Z " fill="#000000"/><text fill="#000000" font-family="sans-serif" font-size="14" lengthAdjust="spacing" textLength="57" x="226.25" y="330.0342">ArrayList</text><line style="stroke:#A80036;stroke-width:1.5;" x1="159.5" x2="317.5" y1="341.1875" y2="341.1875"/><text fill="#000000" font-family="sans-serif" font-size="14" lengthAdjust="spacing" textLength="148" x="164.5" y="358.1826">Object[] elementData</text><line style="stroke:#A80036;stroke-width:1.5;" x1="159.5" x2="317.5" y1="365.4844" y2="365.4844"/><text fill="#000000" font-family="sans-serif" font-size="14" lengthAdjust="spacing" textLength="38" x="164.5" y="382.4795">size()</text><!--MD5=[15b68e006199004da79ea2a4d117d8e9]
class TimeUnit--><rect codeLine="24" fill="#FEFECE" height="96.8906" id="TimeUnit" style="stroke:#A80036;stroke-width:1.5;" width="93" x="360" y="43.1875"/><ellipse cx="375" cy="59.1875" fill="#EB937F" rx="11" ry="11" style="stroke:#A80036;stroke-width:1.0;"/><path d="M379.1094,65.1875 L371.3906,65.1875 L371.3906,52.7969 L379.1094,52.7969 L379.1094,54.9531 L373.8438,54.9531 L373.8438,57.625 L378.6094,57.625 L378.6094,59.7813 L373.8438,59.7813 L373.8438,63.0313 L379.1094,63.0313 L379.1094,65.1875 Z " fill="#000000"/><text fill="#000000" font-family="sans-serif" font-size="14" lengthAdjust="spacing" textLength="61" x="389" y="64.0342">TimeUnit</text><line style="stroke:#A80036;stroke-width:1.5;" x1="361" x2="452" y1="75.1875" y2="75.1875"/><text fill="#000000" font-family="sans-serif" font-size="14" lengthAdjust="spacing" textLength="38" x="366" y="92.1826">DAYS</text><text fill="#000000" font-family="sans-serif" font-size="14" lengthAdjust="spacing" textLength="50" x="366" y="108.4795">HOURS</text><text fill="#000000" font-family="sans-serif" font-size="14" lengthAdjust="spacing" textLength="62" x="366" y="124.7764">MINUTES</text><line style="stroke:#A80036;stroke-width:1.5;" x1="361" x2="452" y1="132.0781" y2="132.0781"/><!--MD5=[0c8287f799745f7b534bf75518604c1e]
class SuppressWarnings--><rect codeLine="30" fill="#FEFECE" height="48" id="SuppressWarnings" style="stroke:#A80036;stroke-width:1.5;" width="162" x="471.5" y="67.6875"/><ellipse cx="486.5" cy="83.6875" fill="#E3664A" rx="11" ry="11" style="stroke:#A80036;stroke-width:1.0;"/><path d="M488.5781,84.1563 Q488.5781,83.2188 488.1563,82.6875 Q487.7344,82.1563 486.9844,82.1563 Q486.25,82.1563 485.8281,82.6875 Q485.4219,83.2188 485.4219,84.1563 Q485.4219,85.1094 485.8281,85.6406 Q486.25,86.1719 486.9844,86.1719 Q487.7344,86.1719 488.1563,85.6406 Q488.5781,85.1094 488.5781,84.1563 Z M490.125,87.5625 L488.5,87.5625 L488.5,86.8906 Q488.1719,87.3281 487.75,87.5313 Q487.3281,87.7344 486.7188,87.7344 Q485.3594,87.7344 484.5313,86.7656 Q483.7031,85.7813 483.7031,84.1563 Q483.7031,82.5625 484.5313,81.5938 Q485.3594,80.6094 486.7188,80.6094 Q487.3125,80.6094 487.7656,80.8125 Q488.2188,81.0156 488.5,81.4063 L488.5,81.0625 Q488.5,79.9375 487.875,79.3281 Q487.25,78.7031 486.1094,78.7031 Q484.3906,78.7031 483.2969,80.2344 Q482.2031,81.75 482.2031,84.1875 Q482.2031,86.7344 483.4531,88.2344 Q484.7188,89.7344 486.8281,89.7344 Q487.4844,89.7344 488.1094,89.5469 Q488.7344,89.3594 489.3125,88.9688 L490.0781,90.4219 Q489.4063,90.875 488.6094,91.0938 Q487.8125,91.3281 486.9063,91.3281 Q484,91.3281 482.2656,89.3906 Q480.5469,87.4688 480.5469,84.1875 Q480.5469,80.9688 482.0938,79.0469 Q483.6563,77.1094 486.2188,77.1094 Q488.0156,77.1094 489.0625,78.2031 Q490.125,79.2969 490.125,81.1719 L490.125,87.5625 Z " fill="#000000"/><text fill="#000000" font-family="sans-serif" font-size="14" lengthAdjust="spacing" textLength="130" x="500.5" y="88.5342">SuppressWarnings</text><line style="stroke:#A80036;stroke-width:1.5;" x1="472.5" x2="632.5" y1="99.6875" y2="99.6875"/><line style="stroke:#A80036;stroke-width:1.5;" x1="472.5" x2="632.5" y1="107.6875" y2="107.6875"/><!--MD5=[faebc81c07309c527f2fda51bf6b78ab]
class Annotation--><rect codeLine="32" fill="#FEFECE" height="96.8906" id="Annotation" style="stroke:#A80036;stroke-width:1.5;" width="188" x="312.5" y="176.1875"/><ellipse cx="364.75" cy="192.1875" fill="#E3664A" rx="11" ry="11" style="stroke:#A80036;stroke-width:1.0;"/><path d="M366.8281,192.6563 Q366.8281,191.7188 366.4063,191.1875 Q365.9844,190.6563 365.2344,190.6563 Q364.5,190.6563 364.0781,191.1875 Q363.6719,191.7188 363.6719,192.6563 Q363.6719,193.6094 364.0781,194.1406 Q364.5,194.6719 365.2344,194.6719 Q365.9844,194.6719 366.4063,194.1406 Q366.8281,193.6094 366.8281,192.6563 Z M368.375,196.0625 L366.75,196.0625 L366.75,195.3906 Q366.4219,195.8281 366,196.0313 Q365.5781,196.2344 364.9688,196.2344 Q363.6094,196.2344 362.7813,195.2656 Q361.9531,194.2813 361.9531,192.6563 Q361.9531,191.0625 362.7813,190.0938 Q363.6094,189.1094 364.9688,189.1094 Q365.5625,189.1094 366.0156,189.3125 Q366.4688,189.5156 366.75,189.9063 L366.75,189.5625 Q366.75,188.4375 366.125,187.8281 Q365.5,187.2031 364.3594,187.2031 Q362.6406,187.2031 361.5469,188.7344 Q360.4531,190.25 360.4531,192.6875 Q360.4531,195.2344 361.7031,196.7344 Q362.9688,198.2344 365.0781,198.2344 Q365.7344,198.2344 366.3594,198.0469 Q366.9844,197.8594 367.5625,197.4688 L368.3281,198.9219 Q367.6563,199.375 366.8594,199.5938 Q366.0625,199.8281 365.1563,199.8281 Q362.25,199.8281 360.5156,197.8906 Q358.7969,195.9688 358.7969,192.6875 Q358.7969,189.4688 360.3438,187.5469 Q361.9063,185.6094 364.4688,185.6094 Q366.2656,185.6094 367.3125,186.7031 Q368.375,187.7969 368.375,189.6719 L368.375,196.0625 Z " fill="#000000"/><text fill="#000000" font-family="sans-serif" font-size="14" lengthAdjust="spacing" textLength="75" x="385.25" y="197.0342">Annotation</text><line style="stroke:#A80036;stroke-width:1.5;" x1="313.5" x2="499.5" y1="208.1875" y2="208.1875"/><text fill="#000000" font-family="sans-serif" font-size="14" lengthAdjust="spacing" textLength="176" x="318.5" y="225.1826">annotation with members</text><line style="stroke:#A80036;stroke-width:1.5;" x1="313.5" x2="499.5" y1="232.4844" y2="232.4844"/><text fill="#000000" font-family="sans-serif" font-size="14" lengthAdjust="spacing" textLength="76" x="318.5" y="249.4795">String foo()</text><text fill="#000000" font-family="sans-serif" font-size="14" lengthAdjust="spacing" textLength="76" x="318.5" y="265.7764">String bar()</text><path d="M226.1472,115.8061 C228.8722,139.6046 233.0951,176.4844 235.8288,200.3594 " fill="none" style="stroke:#A80036;stroke-width:1.0;"/><polygon points="226.1472,115.8061,222.0063,132.3848,233.9284,131.0197,226.1472,115.8061" style="stroke:#A80036;stroke-width:1.0;fill:none;"/><path d="M97.0293,115.8061 C94.486,139.6046 90.5446,176.4844 87.9931,200.3594 " fill="none" style="stroke:#A80036;stroke-width:1.0;"/><polygon points="97.0293,115.8061,89.363,131.0779,101.2951,132.3531,97.0293,115.8061" style="stroke:#A80036;stroke-width:1.0;fill:none;"/><path d="M149.875,91.6875 C165.2135,91.6875 180.5521,91.6875 195.8906,91.6875 " fill="none" style="stroke:#A80036;stroke-width:1.0;"/><polygon points="149.875,91.6875,165.875,97.6875,165.875,85.6875,149.875,91.6875" style="stroke:#A80036;stroke-width:1.0;fill:none;"/><path d="M164.0918,224.6875 C170.1956,224.6875 176.2994,224.6875 182.4032,224.6875 " fill="none" style="stroke:#A80036;stroke-width:1.0;"/><polygon points="164.0918,224.6875,180.0918,230.6875,180.0918,218.6875,164.0918,224.6875" style="stroke:#A80036;stroke-width:1.0;fill:none;"/><path d="M238.5,248.8229 C238.5,265.6636 238.5,288.8948 238.5,308.7131 " fill="none" style="stroke:#A80036;stroke-width:1.0;"/><polygon points="238.5,248.8229,232.5,264.8229,244.5,264.8229,238.5,248.8229" style="stroke:#A80036;stroke-width:1.0;fill:none;"/></g></svg>