<?xml version="1.0" encoding="UTF-8" standalone="no"?><svg xmlns="http://www.w3.org/2000/svg" xmlns:xlink="http://www.w3.org/1999/xlink" contentStyleType="text/css" height="319.7917px" preserveAspectRatio="none" style="width:510px;height:319px;background:#00000000;" version="1.1" viewBox="0 0 510 319" width="510.4167px" zoomAndPan="magnify"><defs><linearGradient id="g1v51dfvel5ajo0" x1="50%" x2="50%" y1="0%" y2="100%"><stop offset="0%" stop-color="#33B2E2"/><stop offset="100%" stop-color="#009FDB"/></linearGradient><linearGradient id="g1v51dfvel5ajo1" x1="50%" x2="50%" y1="0%" y2="100%"><stop offset="0%" stop-color="#F5F5F5"/><stop offset="100%" stop-color="#C2C2C2"/></linearGradient></defs><g><!--MD5=[f7e826e1488aa6662a4b5ddfe29b6b3b]
class abstract--><g id="elem_abstract"><rect codeLine="6" fill="url(#g1v51dfvel5ajo0)" height="57.0882" id="abstract" rx="10.4167" ry="10.4167" style="stroke:#33B2E2;stroke-width:1.0416666666666667;" width="95.8333" x="23.9583" y="24.1028"/><rect fill="url(#g1v51dfvel5ajo0)" height="40.4215" rx="10.4167" ry="10.4167" style="stroke:url(#g1v51dfvel5ajo0);stroke-width:1.0416666666666667;" width="95.8333" x="23.9583" y="24.1028"/><rect fill="url(#g1v51dfvel5ajo0)" height="10.4167" style="stroke:url(#g1v51dfvel5ajo0);stroke-width:1.0416666666666667;" width="95.8333" x="23.9583" y="54.1077"/><rect codeLine="6" fill="none" height="57.0882" id="abstract" rx="10.4167" ry="10.4167" style="stroke:#33B2E2;stroke-width:1.0416666666666667;" width="95.8333" x="23.9583" y="24.1028"/><ellipse cx="38.5417" cy="44.3136" rx="10.4167" ry="10.4167" style="stroke:#007FAF;stroke-width:1.0416666666666667;fill:none;"/><path d="M38.1348,41.2699 L37.2884,44.9972 L38.9974,44.9972 L38.1348,41.2699 Z M37.0443,39.6261 L39.2415,39.6261 L41.6992,48.7406 L39.8926,48.7406 L39.3392,46.4945 L36.9303,46.4945 L36.377,48.7406 L34.5703,48.7406 L37.0443,39.6261 Z " fill="#FFFFFF"/><text fill="#D2D2D2" font-family="&quot;Verdana&quot;" font-size="11.4583" font-style="italic" lengthAdjust="spacing" textLength="47.9167" x="60.4167" y="48.2803">abstract</text><line style="stroke:#33B2E2;stroke-width:1.0416666666666667;" x1="25" x2="118.75" y1="64.5243" y2="64.5243"/><line style="stroke:#33B2E2;stroke-width:1.0416666666666667;" x1="25" x2="118.75" y1="72.8577" y2="72.8577"/></g><!--MD5=[17df400e90568e28eeaed93acf178394]
class abstract class--><g id="elem_abstract class"><rect codeLine="7" fill="url(#g1v51dfvel5ajo0)" height="57.0882" id="abstract class" rx="10.4167" ry="10.4167" style="stroke:#33B2E2;stroke-width:1.0416666666666667;" width="129.1667" x="157.2917" y="24.1028"/><rect fill="url(#g1v51dfvel5ajo0)" height="40.4215" rx="10.4167" ry="10.4167" style="stroke:url(#g1v51dfvel5ajo0);stroke-width:1.0416666666666667;" width="129.1667" x="157.2917" y="24.1028"/><rect fill="url(#g1v51dfvel5ajo0)" height="10.4167" style="stroke:url(#g1v51dfvel5ajo0);stroke-width:1.0416666666666667;" width="129.1667" x="157.2917" y="54.1077"/><rect codeLine="7" fill="none" height="57.0882" id="abstract class" rx="10.4167" ry="10.4167" style="stroke:#33B2E2;stroke-width:1.0416666666666667;" width="129.1667" x="157.2917" y="24.1028"/><ellipse cx="171.875" cy="44.3136" rx="10.4167" ry="10.4167" style="stroke:#007FAF;stroke-width:1.0416666666666667;fill:none;"/><path d="M171.4681,41.2699 L170.6217,44.9972 L172.3307,44.9972 L171.4681,41.2699 Z M170.3776,39.6261 L172.5749,39.6261 L175.0326,48.7406 L173.2259,48.7406 L172.6725,46.4945 L170.2637,46.4945 L169.7103,48.7406 L167.9036,48.7406 L170.3776,39.6261 Z " fill="#FFFFFF"/><text fill="#D2D2D2" font-family="&quot;Verdana&quot;" font-size="11.4583" font-style="italic" lengthAdjust="spacing" textLength="81.25" x="193.75" y="48.2803">abstract class</text><line style="stroke:#33B2E2;stroke-width:1.0416666666666667;" x1="158.3333" x2="285.4167" y1="64.5243" y2="64.5243"/><line style="stroke:#33B2E2;stroke-width:1.0416666666666667;" x1="158.3333" x2="285.4167" y1="72.8577" y2="72.8577"/></g><!--MD5=[7cb74e68c9f11cf3f5cc35e0143045f8]
class annotation--><g id="elem_annotation"><rect codeLine="8" fill="url(#g1v51dfvel5ajo0)" height="57.0882" id="annotation" rx="10.4167" ry="10.4167" style="stroke:#33B2E2;stroke-width:1.0416666666666667;" width="110.4167" x="323.9583" y="24.1028"/><rect fill="url(#g1v51dfvel5ajo0)" height="40.4215" rx="10.4167" ry="10.4167" style="stroke:url(#g1v51dfvel5ajo0);stroke-width:1.0416666666666667;" width="110.4167" x="323.9583" y="24.1028"/><rect fill="url(#g1v51dfvel5ajo0)" height="10.4167" style="stroke:url(#g1v51dfvel5ajo0);stroke-width:1.0416666666666667;" width="110.4167" x="323.9583" y="54.1077"/><rect codeLine="8" fill="none" height="57.0882" id="annotation" rx="10.4167" ry="10.4167" style="stroke:#33B2E2;stroke-width:1.0416666666666667;" width="110.4167" x="323.9583" y="24.1028"/><ellipse cx="338.5417" cy="44.3136" rx="10.4167" ry="10.4167" style="stroke:#007FAF;stroke-width:1.0416666666666667;fill:none;"/><path d="M339.7949,44.1182 Q339.7949,43.4184 339.4857,43.0278 Q339.1764,42.6371 338.623,42.6371 Q338.0859,42.6371 337.7767,43.0278 Q337.4674,43.4184 337.4674,44.1182 Q337.4674,44.8018 337.7767,45.1925 Q338.0859,45.5831 338.623,45.5831 Q339.1764,45.5831 339.4857,45.1925 Q339.7949,44.8018 339.7949,44.1182 Z M340.9342,46.6085 L339.7298,46.6085 L339.7298,46.1202 Q339.502,46.4294 339.1764,46.5922 Q338.8672,46.7387 338.4277,46.7387 Q337.4349,46.7387 336.8164,46.0225 Q336.1979,45.2901 336.1979,44.1182 Q336.1979,42.9301 336.8001,42.2139 Q337.4186,41.4978 338.4277,41.4978 Q338.8672,41.4978 339.1927,41.6443 Q339.5182,41.7908 339.7298,42.0837 L339.7298,41.8396 Q339.7298,41.0095 339.2741,40.5538 Q338.8184,40.0981 337.9883,40.0981 Q336.7188,40.0981 335.9049,41.2211 Q335.1074,42.3279 335.1074,44.1182 Q335.1074,45.99 336.0352,47.113 Q336.9629,48.2198 338.5091,48.2198 Q338.9974,48.2198 339.4531,48.0733 Q339.9089,47.9268 340.332,47.6339 L340.8854,48.7081 Q340.3971,49.0499 339.8112,49.2126 Q339.2253,49.3917 338.5742,49.3917 Q336.4258,49.3917 335.1563,47.9594 Q333.8867,46.5434 333.8867,44.1182 Q333.8867,41.7582 335.026,40.3422 Q336.1816,38.9262 338.0534,38.9262 Q339.388,38.9262 340.153,39.7237 Q340.9342,40.5212 340.9342,41.921 L340.9342,46.6085 Z " fill="#FFFFFF"/><text fill="#D2D2D2" font-family="&quot;Verdana&quot;" font-size="11.4583" lengthAdjust="spacing" textLength="62.5" x="360.4167" y="48.2803">annotation</text><line style="stroke:#33B2E2;stroke-width:1.0416666666666667;" x1="325" x2="433.3333" y1="64.5243" y2="64.5243"/><line style="stroke:#33B2E2;stroke-width:1.0416666666666667;" x1="325" x2="433.3333" y1="72.8577" y2="72.8577"/></g><!--MD5=[da456bc05ddb284180092693c9c3b3b1]
entity circle--><g id="elem_circle"><ellipse cx="481.25" cy="49.6236" fill="#D95555" rx="8.3333" ry="8.3333" style="stroke:#CF2A2A;stroke-width:1.0416666666666667;"/><text fill="#5A5A5A" font-family="&quot;Verdana&quot;" font-size="12.5" lengthAdjust="spacing" textLength="34.375" x="464.0625" y="87.2681">circle</text></g><!--MD5=[87adb442a9baea16d5e9c4faa47d2afb]
entity circle_short_form--><g id="elem_circle_short_form"><ellipse cx="71.875" cy="163.1653" fill="#D95555" rx="8.3333" ry="8.3333" style="stroke:#CF2A2A;stroke-width:1.0416666666666667;"/><text fill="#5A5A5A" font-family="&quot;Verdana&quot;" font-size="12.5" lengthAdjust="spacing" textLength="110.4167" x="16.6667" y="200.8097">circle_short_form</text></g><!--MD5=[c4c892d05414254cdeba8adc63897f88]
class class--><g id="elem_class"><rect codeLine="11" fill="url(#g1v51dfvel5ajo0)" height="57.0882" id="class" rx="10.4167" ry="10.4167" style="stroke:#33B2E2;stroke-width:1.0416666666666667;" width="79.1667" x="118.75" y="137.6444"/><rect fill="url(#g1v51dfvel5ajo0)" height="40.4215" rx="10.4167" ry="10.4167" style="stroke:url(#g1v51dfvel5ajo0);stroke-width:1.0416666666666667;" width="79.1667" x="118.75" y="137.6444"/><rect fill="url(#g1v51dfvel5ajo0)" height="10.4167" style="stroke:url(#g1v51dfvel5ajo0);stroke-width:1.0416666666666667;" width="79.1667" x="118.75" y="167.6493"/><rect codeLine="11" fill="none" height="57.0882" id="class" rx="10.4167" ry="10.4167" style="stroke:#33B2E2;stroke-width:1.0416666666666667;" width="79.1667" x="118.75" y="137.6444"/><ellipse cx="133.3333" cy="157.8552" rx="10.4167" ry="10.4167" style="stroke:#007FAF;stroke-width:1.0416666666666667;fill:none;"/><path d="M135.2376,162.2823 Q134.8145,162.4939 134.3424,162.6078 Q133.8704,162.7218 133.3659,162.7218 Q131.5104,162.7218 130.5339,161.5173 Q129.5736,160.2966 129.5736,158.0017 Q129.5736,155.6905 130.5339,154.4861 Q131.5104,153.2654 133.3659,153.2654 Q133.8704,153.2654 134.3424,153.3793 Q134.8307,153.477 135.2376,153.7048 L135.2376,155.7068 Q134.7819,155.2836 134.3424,155.0883 Q133.903,154.8767 133.4473,154.8767 Q132.4544,154.8767 131.9499,155.6742 Q131.4453,156.4555 131.4453,158.0017 Q131.4453,159.5317 131.9499,160.3129 Q132.4544,161.0942 133.4473,161.0942 Q133.903,161.0942 134.3424,160.8988 Q134.7819,160.7035 135.2376,160.2804 L135.2376,162.2823 Z " fill="#FFFFFF"/><text fill="#D2D2D2" font-family="&quot;Verdana&quot;" font-size="11.4583" lengthAdjust="spacing" textLength="31.25" x="155.2083" y="161.822">class</text><line style="stroke:#33B2E2;stroke-width:1.0416666666666667;" x1="119.7917" x2="196.875" y1="178.066" y2="178.066"/><line style="stroke:#33B2E2;stroke-width:1.0416666666666667;" x1="119.7917" x2="196.875" y1="186.3993" y2="186.3993"/></g><g id="elem_diamond"><polygon fill="url(#g1v51dfvel5ajo1)" points="247.9167,153.7903,260.4167,166.2903,247.9167,178.7903,235.4167,166.2903,247.9167,153.7903" style="stroke:#C2C2C2;stroke-width:1.0416666666666667;"/></g><polygon fill="url(#g1v51dfvel5ajo1)" points="310.4167,153.7903,322.9167,166.2903,310.4167,178.7903,297.9167,166.2903,310.4167,153.7903" style="stroke:#C2C2C2;stroke-width:1.0416666666666667;"/><!--MD5=[467568f20bbf29da492dca29e9e0779e]
class entity--><g id="elem_entity"><rect codeLine="14" fill="url(#g1v51dfvel5ajo0)" height="57.0882" id="entity" rx="10.4167" ry="10.4167" style="stroke:#33B2E2;stroke-width:1.0416666666666667;" width="80.2083" x="31.7708" y="251.1861"/><rect fill="url(#g1v51dfvel5ajo0)" height="40.4215" rx="10.4167" ry="10.4167" style="stroke:url(#g1v51dfvel5ajo0);stroke-width:1.0416666666666667;" width="80.2083" x="31.7708" y="251.1861"/><rect fill="url(#g1v51dfvel5ajo0)" height="10.4167" style="stroke:url(#g1v51dfvel5ajo0);stroke-width:1.0416666666666667;" width="80.2083" x="31.7708" y="281.191"/><rect codeLine="14" fill="none" height="57.0882" id="entity" rx="10.4167" ry="10.4167" style="stroke:#33B2E2;stroke-width:1.0416666666666667;" width="80.2083" x="31.7708" y="251.1861"/><ellipse cx="46.3542" cy="271.3969" rx="10.4167" ry="10.4167" style="stroke:#007FAF;stroke-width:1.0416666666666667;fill:none;"/><path d="M48.8932,276.0844 L43.2129,276.0844 L43.2129,266.9698 L48.8932,266.9698 L48.8932,268.5649 L45.0195,268.5649 L45.0195,270.518 L48.5189,270.518 L48.5189,272.113 L45.0195,272.113 L45.0195,274.4893 L48.8932,274.4893 L48.8932,276.0844 Z " fill="#FFFFFF"/><text fill="#D2D2D2" font-family="&quot;Verdana&quot;" font-size="11.4583" lengthAdjust="spacing" textLength="32.2917" x="68.2292" y="275.3637">entity</text><line style="stroke:#33B2E2;stroke-width:1.0416666666666667;" x1="32.8125" x2="110.9375" y1="291.6077" y2="291.6077"/><line style="stroke:#33B2E2;stroke-width:1.0416666666666667;" x1="32.8125" x2="110.9375" y1="299.941" y2="299.941"/></g><!--MD5=[b1bf79d8358773e9ea7a3730761a57e9]
class enum--><g id="elem_enum"><rect codeLine="15" fill="url(#g1v51dfvel5ajo0)" height="57.0882" id="enum" rx="10.4167" ry="10.4167" style="stroke:#33B2E2;stroke-width:1.0416666666666667;" width="81.25" x="148.9583" y="251.1861"/><rect fill="url(#g1v51dfvel5ajo0)" height="40.4215" rx="10.4167" ry="10.4167" style="stroke:url(#g1v51dfvel5ajo0);stroke-width:1.0416666666666667;" width="81.25" x="148.9583" y="251.1861"/><rect fill="url(#g1v51dfvel5ajo0)" height="10.4167" style="stroke:url(#g1v51dfvel5ajo0);stroke-width:1.0416666666666667;" width="81.25" x="148.9583" y="281.191"/><rect codeLine="15" fill="none" height="57.0882" id="enum" rx="10.4167" ry="10.4167" style="stroke:#33B2E2;stroke-width:1.0416666666666667;" width="81.25" x="148.9583" y="251.1861"/><ellipse cx="163.5417" cy="271.3969" rx="10.4167" ry="10.4167" style="stroke:#007FAF;stroke-width:1.0416666666666667;fill:none;"/><path d="M166.0807,276.0844 L160.4004,276.0844 L160.4004,266.9698 L166.0807,266.9698 L166.0807,268.5649 L162.207,268.5649 L162.207,270.518 L165.7064,270.518 L165.7064,272.113 L162.207,272.113 L162.207,274.4893 L166.0807,274.4893 L166.0807,276.0844 Z " fill="#FFFFFF"/><text fill="#D2D2D2" font-family="&quot;Verdana&quot;" font-size="11.4583" lengthAdjust="spacing" textLength="33.3333" x="185.4167" y="275.3637">enum</text><line style="stroke:#33B2E2;stroke-width:1.0416666666666667;" x1="150" x2="229.1667" y1="291.6077" y2="291.6077"/><line style="stroke:#33B2E2;stroke-width:1.0416666666666667;" x1="150" x2="229.1667" y1="299.941" y2="299.941"/></g><!--MD5=[d9847530b5dea828dbcbb50914b76f30]
class interface--><g id="elem_interface"><rect codeLine="16" fill="url(#g1v51dfvel5ajo0)" height="57.0882" id="interface" rx="10.4167" ry="10.4167" style="stroke:#33B2E2;stroke-width:1.0416666666666667;" width="100" x="267.7083" y="251.1861"/><rect fill="url(#g1v51dfvel5ajo0)" height="40.4215" rx="10.4167" ry="10.4167" style="stroke:url(#g1v51dfvel5ajo0);stroke-width:1.0416666666666667;" width="100" x="267.7083" y="251.1861"/><rect fill="url(#g1v51dfvel5ajo0)" height="10.4167" style="stroke:url(#g1v51dfvel5ajo0);stroke-width:1.0416666666666667;" width="100" x="267.7083" y="281.191"/><rect codeLine="16" fill="none" height="57.0882" id="interface" rx="10.4167" ry="10.4167" style="stroke:#33B2E2;stroke-width:1.0416666666666667;" width="100" x="267.7083" y="251.1861"/><ellipse cx="282.2917" cy="271.3969" rx="10.4167" ry="10.4167" style="stroke:#007FAF;stroke-width:1.0416666666666667;fill:none;"/><path d="M279.1829,268.5649 L279.1829,266.9698 L284.6029,266.9698 L284.6029,268.5649 L282.7962,268.5649 L282.7962,274.4893 L284.6029,274.4893 L284.6029,276.0844 L279.1829,276.0844 L279.1829,274.4893 L280.9896,274.4893 L280.9896,268.5649 L279.1829,268.5649 Z " fill="#FFFFFF"/><text fill="#D2D2D2" font-family="&quot;Verdana&quot;" font-size="11.4583" font-style="italic" lengthAdjust="spacing" textLength="52.0833" x="304.1667" y="275.3637">interface</text><line style="stroke:#33B2E2;stroke-width:1.0416666666666667;" x1="268.75" x2="366.6667" y1="291.6077" y2="291.6077"/><line style="stroke:#33B2E2;stroke-width:1.0416666666666667;" x1="268.75" x2="366.6667" y1="299.941" y2="299.941"/></g></g></svg>