<svg xmlns="http://www.w3.org/2000/svg" xmlns:xlink="http://www.w3.org/1999/xlink" contentStyleType="text/css" height="452.0833px" preserveAspectRatio="none" style="width:646px;height:452px;" version="1.1" viewBox="0 0 646 452" width="646.875px" zoomAndPan="magnify"><defs><linearGradient id="gtgmezm0tnzix0" x1="50%" x2="50%" y1="0%" y2="100%"><stop offset="0%" stop-color="#EEEEEE"/><stop offset="100%" stop-color="#BEBEBE"/></linearGradient><linearGradient id="gtgmezm0tnzix1" x1="50%" x2="50%" y1="0%" y2="100%"><stop offset="0%" stop-color="#F1F1F1"/><stop offset="100%" stop-color="#BEBEBE"/></linearGradient><linearGradient id="gtgmezm0tnzix2" x1="50%" x2="50%" y1="0%" y2="100%"><stop offset="0%" stop-color="#D6D6D6"/><stop offset="100%" stop-color="#ABABAB"/></linearGradient></defs><g><!--class abstract--><g id="elem_abstract"><rect codeLine="6" fill="url(#gtgmezm0tnzix0)" height="54.6631" id="abstract" rx="7.8125" ry="7.8125" style="stroke:#F1F1F1;stroke-width:1.0416666666666667;" width="89.5833" x="22.9167" y="22.9167"/><rect fill="url(#gtgmezm0tnzix1)" height="37.9964" rx="7.8125" ry="7.8125" style="stroke:url(#gtgmezm0tnzix1);stroke-width:1.0416666666666667;" width="89.5833" x="22.9167" y="22.9167"/><rect fill="url(#gtgmezm0tnzix1)" height="7.8125" style="stroke:url(#gtgmezm0tnzix1);stroke-width:1.0416666666666667;" width="89.5833" x="22.9167" y="53.1006"/><rect codeLine="6" fill="none" height="54.6631" id="abstract" rx="7.8125" ry="7.8125" style="stroke:#F1F1F1;stroke-width:1.0416666666666667;" width="89.5833" x="22.9167" y="22.9167"/><ellipse cx="37.5" cy="41.9149" fill="none" rx="10.4167" ry="10.4167" style="stroke:#BEBEBE;stroke-width:1.0416666666666667;"/><path d="M37.0931,38.8713 L36.2467,42.5985 L37.9557,42.5985 L37.0931,38.8713 Z M36.0026,37.2274 L38.1999,37.2274 L40.6576,46.342 L38.8509,46.342 L38.2975,44.0959 L35.8887,44.0959 L35.3353,46.342 L33.5286,46.342 L36.0026,37.2274 Z " fill="#336699"/><text fill="#303030" font-family="Verdana" font-size="9.375" font-style="italic" lengthAdjust="spacing" textLength="41.6667" x="59.375" y="45.1604">abstract</text><line style="stroke:#F1F1F1;stroke-width:1.0416666666666667;" x1="23.9583" x2="111.4583" y1="60.9131" y2="60.9131"/><line style="stroke:#F1F1F1;stroke-width:1.0416666666666667;" x1="23.9583" x2="111.4583" y1="69.2464" y2="69.2464"/></g><!--class abstract class--><g id="elem_abstract class"><rect codeLine="7" fill="url(#gtgmezm0tnzix0)" height="54.6631" id="abstract class" rx="7.8125" ry="7.8125" style="stroke:#F1F1F1;stroke-width:1.0416666666666667;" width="117.7083" x="149.4792" y="22.9167"/><rect fill="url(#gtgmezm0tnzix1)" height="37.9964" rx="7.8125" ry="7.8125" style="stroke:url(#gtgmezm0tnzix1);stroke-width:1.0416666666666667;" width="117.7083" x="149.4792" y="22.9167"/><rect fill="url(#gtgmezm0tnzix1)" height="7.8125" style="stroke:url(#gtgmezm0tnzix1);stroke-width:1.0416666666666667;" width="117.7083" x="149.4792" y="53.1006"/><rect codeLine="7" fill="none" height="54.6631" id="abstract class" rx="7.8125" ry="7.8125" style="stroke:#F1F1F1;stroke-width:1.0416666666666667;" width="117.7083" x="149.4792" y="22.9167"/><ellipse cx="164.0625" cy="41.9149" fill="none" rx="10.4167" ry="10.4167" style="stroke:#BEBEBE;stroke-width:1.0416666666666667;"/><path d="M163.6556,38.8713 L162.8092,42.5985 L164.5182,42.5985 L163.6556,38.8713 Z M162.5651,37.2274 L164.7624,37.2274 L167.2201,46.342 L165.4134,46.342 L164.86,44.0959 L162.4512,44.0959 L161.8978,46.342 L160.0911,46.342 L162.5651,37.2274 Z " fill="#336699"/><text fill="#303030" font-family="Verdana" font-size="9.375" font-style="italic" lengthAdjust="spacing" textLength="69.7917" x="185.9375" y="45.1604">abstract class</text><line style="stroke:#F1F1F1;stroke-width:1.0416666666666667;" x1="150.5208" x2="266.1458" y1="60.9131" y2="60.9131"/><line style="stroke:#F1F1F1;stroke-width:1.0416666666666667;" x1="150.5208" x2="266.1458" y1="69.2464" y2="69.2464"/></g><!--class annotation--><g id="elem_annotation"><rect codeLine="8" fill="url(#gtgmezm0tnzix0)" height="54.6631" id="annotation" rx="7.8125" ry="7.8125" style="stroke:#F1F1F1;stroke-width:1.0416666666666667;" width="103.125" x="304.6875" y="22.9167"/><rect fill="url(#gtgmezm0tnzix1)" height="37.9964" rx="7.8125" ry="7.8125" style="stroke:url(#gtgmezm0tnzix1);stroke-width:1.0416666666666667;" width="103.125" x="304.6875" y="22.9167"/><rect fill="url(#gtgmezm0tnzix1)" height="7.8125" style="stroke:url(#gtgmezm0tnzix1);stroke-width:1.0416666666666667;" width="103.125" x="304.6875" y="53.1006"/><rect codeLine="8" fill="none" height="54.6631" id="annotation" rx="7.8125" ry="7.8125" style="stroke:#F1F1F1;stroke-width:1.0416666666666667;" width="103.125" x="304.6875" y="22.9167"/><ellipse cx="319.2708" cy="41.9149" fill="none" rx="10.4167" ry="10.4167" style="stroke:#BEBEBE;stroke-width:1.0416666666666667;"/><path d="M320.5241,41.7196 Q320.5241,41.0197 320.2148,40.6291 Q319.9056,40.2384 319.3522,40.2384 Q318.8151,40.2384 318.5059,40.6291 Q318.1966,41.0197 318.1966,41.7196 Q318.1966,42.4032 318.5059,42.7938 Q318.8151,43.1844 319.3522,43.1844 Q319.9056,43.1844 320.2148,42.7938 Q320.5241,42.4032 320.5241,41.7196 Z M321.6634,44.2098 L320.459,44.2098 L320.459,43.7215 Q320.2311,44.0308 319.9056,44.1935 Q319.5964,44.34 319.1569,44.34 Q318.1641,44.34 317.5456,43.6239 Q316.9271,42.8914 316.9271,41.7196 Q316.9271,40.5314 317.5293,39.8153 Q318.1478,39.0991 319.1569,39.0991 Q319.5964,39.0991 319.9219,39.2456 Q320.2474,39.3921 320.459,39.6851 L320.459,39.4409 Q320.459,38.6108 320.0033,38.1551 Q319.5475,37.6994 318.7174,37.6994 Q317.4479,37.6994 316.6341,38.8224 Q315.8366,39.9292 315.8366,41.7196 Q315.8366,43.5913 316.7643,44.7144 Q317.6921,45.8211 319.2383,45.8211 Q319.7266,45.8211 320.1823,45.6746 Q320.638,45.5282 321.0612,45.2352 L321.6146,46.3094 Q321.1263,46.6512 320.5404,46.814 Q319.9544,46.993 319.3034,46.993 Q317.1549,46.993 315.8854,45.5607 Q314.6159,44.1447 314.6159,41.7196 Q314.6159,39.3595 315.7552,37.9435 Q316.9108,36.5275 318.7826,36.5275 Q320.1172,36.5275 320.8822,37.325 Q321.6634,38.1226 321.6634,39.5223 L321.6634,44.2098 Z " fill="#336699"/><text fill="#303030" font-family="Verdana" font-size="9.375" lengthAdjust="spacing" textLength="55.2083" x="341.1458" y="45.1604">annotation</text><line style="stroke:#F1F1F1;stroke-width:1.0416666666666667;" x1="305.7292" x2="406.7708" y1="60.9131" y2="60.9131"/><line style="stroke:#F1F1F1;stroke-width:1.0416666666666667;" x1="305.7292" x2="406.7708" y1="69.2464" y2="69.2464"/></g><!--entity circle--><g id="elem_circle"><ellipse cx="454.1667" cy="46.875" fill="#FF5C5C" rx="8.3333" ry="8.3333" style="stroke:#FF3333;stroke-width:1.0416666666666667;"/><text fill="#303030" font-family="Verdana" font-size="12.5" lengthAdjust="spacing" textLength="34.375" x="436.9792" y="84.5194">circle</text></g><!--entity circle_short_form--><g id="elem_circle_short_form"><ellipse cx="510.4167" cy="46.875" fill="#FF5C5C" rx="8.3333" ry="8.3333" style="stroke:#FF3333;stroke-width:1.0416666666666667;"/><text fill="#303030" font-family="Verdana" font-size="12.5" lengthAdjust="spacing" textLength="110.4167" x="455.2083" y="84.5194">circle_short_form</text></g><!--class class--><g id="elem_class"><rect codeLine="11" fill="url(#gtgmezm0tnzix0)" height="54.6631" id="class" rx="7.8125" ry="7.8125" style="stroke:#F1F1F1;stroke-width:1.0416666666666667;" width="73.9583" x="30.7292" y="148.9583"/><rect fill="url(#gtgmezm0tnzix1)" height="37.9964" rx="7.8125" ry="7.8125" style="stroke:url(#gtgmezm0tnzix1);stroke-width:1.0416666666666667;" width="73.9583" x="30.7292" y="148.9583"/><rect fill="url(#gtgmezm0tnzix1)" height="7.8125" style="stroke:url(#gtgmezm0tnzix1);stroke-width:1.0416666666666667;" width="73.9583" x="30.7292" y="179.1423"/><rect codeLine="11" fill="none" height="54.6631" id="class" rx="7.8125" ry="7.8125" style="stroke:#F1F1F1;stroke-width:1.0416666666666667;" width="73.9583" x="30.7292" y="148.9583"/><ellipse cx="45.3125" cy="167.9565" fill="none" rx="10.4167" ry="10.4167" style="stroke:#BEBEBE;stroke-width:1.0416666666666667;"/><path d="M47.2168,172.3836 Q46.7936,172.5952 46.3216,172.7091 Q45.8496,172.8231 45.3451,172.8231 Q43.4896,172.8231 42.513,171.6187 Q41.5527,170.3979 41.5527,168.103 Q41.5527,165.7918 42.513,164.5874 Q43.4896,163.3667 45.3451,163.3667 Q45.8496,163.3667 46.3216,163.4806 Q46.8099,163.5783 47.2168,163.8062 L47.2168,165.8081 Q46.7611,165.3849 46.3216,165.1896 Q45.8822,164.978 45.4264,164.978 Q44.4336,164.978 43.929,165.7756 Q43.4245,166.5568 43.4245,168.103 Q43.4245,169.633 43.929,170.4142 Q44.4336,171.1955 45.4264,171.1955 Q45.8822,171.1955 46.3216,171.0002 Q46.7611,170.8049 47.2168,170.3817 L47.2168,172.3836 Z " fill="#336699"/><text fill="#303030" font-family="Verdana" font-size="9.375" lengthAdjust="spacing" textLength="26.0417" x="67.1875" y="171.2021">class</text><line style="stroke:#F1F1F1;stroke-width:1.0416666666666667;" x1="31.7708" x2="103.6458" y1="186.9548" y2="186.9548"/><line style="stroke:#F1F1F1;stroke-width:1.0416666666666667;" x1="31.7708" x2="103.6458" y1="195.2881" y2="195.2881"/></g><!--class class_stereo--><g id="elem_class_stereo"><rect codeLine="12" fill="url(#gtgmezm0tnzix0)" height="85.8805" id="class_stereo" rx="7.8125" ry="7.8125" style="stroke:#F1F1F1;stroke-width:1.0416666666666667;" width="129.1667" x="141.6667" y="133.3333"/><rect fill="url(#gtgmezm0tnzix1)" height="69.2139" rx="7.8125" ry="7.8125" style="stroke:url(#gtgmezm0tnzix1);stroke-width:1.0416666666666667;" width="129.1667" x="141.6667" y="133.3333"/><rect fill="url(#gtgmezm0tnzix1)" height="7.8125" style="stroke:url(#gtgmezm0tnzix1);stroke-width:1.0416666666666667;" width="129.1667" x="141.6667" y="194.7347"/><rect codeLine="12" fill="none" height="85.8805" id="class_stereo" rx="7.8125" ry="7.8125" style="stroke:#F1F1F1;stroke-width:1.0416666666666667;" width="129.1667" x="141.6667" y="133.3333"/><ellipse cx="156.25" cy="167.9403" fill="none" rx="10.4167" ry="10.4167" style="stroke:#BEBEBE;stroke-width:1.0416666666666667;"/><path d="M158.1543,172.3674 Q157.7311,172.5789 157.2591,172.6929 Q156.7871,172.8068 156.2826,172.8068 Q154.4271,172.8068 153.4505,171.6024 Q152.4902,170.3817 152.4902,168.0868 Q152.4902,165.7756 153.4505,164.5711 Q154.4271,163.3504 156.2826,163.3504 Q156.7871,163.3504 157.2591,163.4644 Q157.7474,163.562 158.1543,163.7899 L158.1543,165.7918 Q157.6986,165.3687 157.2591,165.1733 Q156.8197,164.9618 156.3639,164.9618 Q155.3711,164.9618 154.8665,165.7593 Q154.362,166.5405 154.362,168.0868 Q154.362,169.6167 154.8665,170.3979 Q155.3711,171.1792 156.3639,171.1792 Q156.8197,171.1792 157.2591,170.9839 Q157.6986,170.7886 158.1543,170.3654 L158.1543,172.3674 Z " fill="#336699"/><text fill="#303030" font-family="Verdana" font-size="12.5" font-style="italic" lengthAdjust="spacing" textLength="85.4167" x="176.0417" y="158.4778">&#171;stereotype&#187;</text><text fill="#303030" font-family="Verdana" font-size="9.375" lengthAdjust="spacing" textLength="63.5417" x="186.9792" y="186.7945">class_stereo</text><line style="stroke:#F1F1F1;stroke-width:1.0416666666666667;" x1="142.7083" x2="269.7917" y1="202.5472" y2="202.5472"/><line style="stroke:#F1F1F1;stroke-width:1.0416666666666667;" x1="142.7083" x2="269.7917" y1="210.8805" y2="210.8805"/></g><g id="elem_diamond"><polygon fill="url(#gtgmezm0tnzix2)" points="320.8333,163.5417,333.3333,176.0417,320.8333,188.5417,308.3333,176.0417,320.8333,163.5417" style="stroke:#ABABAB;stroke-width:1.0416666666666667;"/></g><polygon fill="url(#gtgmezm0tnzix2)" points="383.3333,163.5417,395.8333,176.0417,383.3333,188.5417,370.8333,176.0417,383.3333,163.5417" style="stroke:#ABABAB;stroke-width:1.0416666666666667;"/><!--class entity--><g id="elem_entity"><rect codeLine="15" fill="url(#gtgmezm0tnzix0)" height="54.6631" id="entity" rx="7.8125" ry="7.8125" style="stroke:#F1F1F1;stroke-width:1.0416666666666667;" width="77.0833" x="433.3333" y="148.9583"/><rect fill="url(#gtgmezm0tnzix1)" height="37.9964" rx="7.8125" ry="7.8125" style="stroke:url(#gtgmezm0tnzix1);stroke-width:1.0416666666666667;" width="77.0833" x="433.3333" y="148.9583"/><rect fill="url(#gtgmezm0tnzix1)" height="7.8125" style="stroke:url(#gtgmezm0tnzix1);stroke-width:1.0416666666666667;" width="77.0833" x="433.3333" y="179.1423"/><rect codeLine="15" fill="none" height="54.6631" id="entity" rx="7.8125" ry="7.8125" style="stroke:#F1F1F1;stroke-width:1.0416666666666667;" width="77.0833" x="433.3333" y="148.9583"/><ellipse cx="447.9167" cy="167.9565" fill="none" rx="10.4167" ry="10.4167" style="stroke:#BEBEBE;stroke-width:1.0416666666666667;"/><path d="M450.4557,172.644 L444.7754,172.644 L444.7754,163.5295 L450.4557,163.5295 L450.4557,165.1245 L446.582,165.1245 L446.582,167.0776 L450.0814,167.0776 L450.0814,168.6727 L446.582,168.6727 L446.582,171.049 L450.4557,171.049 L450.4557,172.644 Z " fill="#336699"/><text fill="#303030" font-family="Verdana" font-size="9.375" lengthAdjust="spacing" textLength="29.1667" x="469.7917" y="171.2021">entity</text><line style="stroke:#F1F1F1;stroke-width:1.0416666666666667;" x1="434.375" x2="509.375" y1="186.9548" y2="186.9548"/><line style="stroke:#F1F1F1;stroke-width:1.0416666666666667;" x1="434.375" x2="509.375" y1="195.2881" y2="195.2881"/></g><!--class enum--><g id="elem_enum"><rect codeLine="16" fill="url(#gtgmezm0tnzix0)" height="54.6631" id="enum" rx="7.8125" ry="7.8125" style="stroke:#F1F1F1;stroke-width:1.0416666666666667;" width="76.0417" x="29.6875" y="275"/><rect fill="url(#gtgmezm0tnzix1)" height="37.9964" rx="7.8125" ry="7.8125" style="stroke:url(#gtgmezm0tnzix1);stroke-width:1.0416666666666667;" width="76.0417" x="29.6875" y="275"/><rect fill="url(#gtgmezm0tnzix1)" height="7.8125" style="stroke:url(#gtgmezm0tnzix1);stroke-width:1.0416666666666667;" width="76.0417" x="29.6875" y="305.1839"/><rect codeLine="16" fill="none" height="54.6631" id="enum" rx="7.8125" ry="7.8125" style="stroke:#F1F1F1;stroke-width:1.0416666666666667;" width="76.0417" x="29.6875" y="275"/><ellipse cx="44.2708" cy="293.9982" fill="none" rx="10.4167" ry="10.4167" style="stroke:#BEBEBE;stroke-width:1.0416666666666667;"/><path d="M46.8099,298.6857 L41.1296,298.6857 L41.1296,289.5711 L46.8099,289.5711 L46.8099,291.1662 L42.9362,291.1662 L42.9362,293.1193 L46.4355,293.1193 L46.4355,294.7144 L42.9362,294.7144 L42.9362,297.0907 L46.8099,297.0907 L46.8099,298.6857 Z " fill="#336699"/><text fill="#303030" font-family="Verdana" font-size="9.375" lengthAdjust="spacing" textLength="28.125" x="66.1458" y="297.2438">enum</text><line style="stroke:#F1F1F1;stroke-width:1.0416666666666667;" x1="30.7292" x2="104.6875" y1="312.9964" y2="312.9964"/><line style="stroke:#F1F1F1;stroke-width:1.0416666666666667;" x1="30.7292" x2="104.6875" y1="321.3298" y2="321.3298"/></g><!--class exception--><g id="elem_exception"><rect codeLine="17" fill="url(#gtgmezm0tnzix0)" height="54.6631" id="exception" rx="7.8125" ry="7.8125" style="stroke:#F1F1F1;stroke-width:1.0416666666666667;" width="97.9167" x="142.7083" y="275"/><rect fill="url(#gtgmezm0tnzix1)" height="37.9964" rx="7.8125" ry="7.8125" style="stroke:url(#gtgmezm0tnzix1);stroke-width:1.0416666666666667;" width="97.9167" x="142.7083" y="275"/><rect fill="url(#gtgmezm0tnzix1)" height="7.8125" style="stroke:url(#gtgmezm0tnzix1);stroke-width:1.0416666666666667;" width="97.9167" x="142.7083" y="305.1839"/><rect codeLine="17" fill="none" height="54.6631" id="exception" rx="7.8125" ry="7.8125" style="stroke:#F1F1F1;stroke-width:1.0416666666666667;" width="97.9167" x="142.7083" y="275"/><ellipse cx="157.2917" cy="293.9982" fill="none" rx="10.4167" ry="10.4167" style="stroke:#BEBEBE;stroke-width:1.0416666666666667;"/><path d="M160.4818,298.6857 L158.6263,298.6857 L156.8848,295.6746 L155.1595,298.6857 L153.2878,298.6857 L155.957,294.0633 L153.3691,289.5711 L155.2246,289.5711 L156.8848,292.4683 L158.5449,289.5711 L160.4167,289.5711 L157.8288,294.0633 L160.4818,298.6857 Z " fill="#336699"/><text fill="#303030" font-family="Verdana" font-size="9.375" lengthAdjust="spacing" textLength="50" x="179.1667" y="297.2438">exception</text><line style="stroke:#F1F1F1;stroke-width:1.0416666666666667;" x1="143.75" x2="239.5833" y1="312.9964" y2="312.9964"/><line style="stroke:#F1F1F1;stroke-width:1.0416666666666667;" x1="143.75" x2="239.5833" y1="321.3298" y2="321.3298"/></g><!--class interface--><g id="elem_interface"><rect codeLine="18" fill="url(#gtgmezm0tnzix0)" height="54.6631" id="interface" rx="7.8125" ry="7.8125" style="stroke:#F1F1F1;stroke-width:1.0416666666666667;" width="92.7083" x="277.6042" y="275"/><rect fill="url(#gtgmezm0tnzix1)" height="37.9964" rx="7.8125" ry="7.8125" style="stroke:url(#gtgmezm0tnzix1);stroke-width:1.0416666666666667;" width="92.7083" x="277.6042" y="275"/><rect fill="url(#gtgmezm0tnzix1)" height="7.8125" style="stroke:url(#gtgmezm0tnzix1);stroke-width:1.0416666666666667;" width="92.7083" x="277.6042" y="305.1839"/><rect codeLine="18" fill="none" height="54.6631" id="interface" rx="7.8125" ry="7.8125" style="stroke:#F1F1F1;stroke-width:1.0416666666666667;" width="92.7083" x="277.6042" y="275"/><ellipse cx="292.1875" cy="293.9982" fill="none" rx="10.4167" ry="10.4167" style="stroke:#BEBEBE;stroke-width:1.0416666666666667;"/><path d="M289.0788,291.1662 L289.0788,289.5711 L294.4987,289.5711 L294.4987,291.1662 L292.6921,291.1662 L292.6921,297.0907 L294.4987,297.0907 L294.4987,298.6857 L289.0788,298.6857 L289.0788,297.0907 L290.8854,297.0907 L290.8854,291.1662 L289.0788,291.1662 Z " fill="#336699"/><text fill="#303030" font-family="Verdana" font-size="9.375" font-style="italic" lengthAdjust="spacing" textLength="44.7917" x="314.0625" y="297.2438">interface</text><line style="stroke:#F1F1F1;stroke-width:1.0416666666666667;" x1="278.6458" x2="369.2708" y1="312.9964" y2="312.9964"/><line style="stroke:#F1F1F1;stroke-width:1.0416666666666667;" x1="278.6458" x2="369.2708" y1="321.3298" y2="321.3298"/></g><!--class metaclass--><g id="elem_metaclass"><rect codeLine="19" fill="url(#gtgmezm0tnzix0)" height="54.6631" id="metaclass" rx="7.8125" ry="7.8125" style="stroke:#F1F1F1;stroke-width:1.0416666666666667;" width="100" x="407.2917" y="275"/><rect fill="url(#gtgmezm0tnzix1)" height="37.9964" rx="7.8125" ry="7.8125" style="stroke:url(#gtgmezm0tnzix1);stroke-width:1.0416666666666667;" width="100" x="407.2917" y="275"/><rect fill="url(#gtgmezm0tnzix1)" height="7.8125" style="stroke:url(#gtgmezm0tnzix1);stroke-width:1.0416666666666667;" width="100" x="407.2917" y="305.1839"/><rect codeLine="19" fill="none" height="54.6631" id="metaclass" rx="7.8125" ry="7.8125" style="stroke:#F1F1F1;stroke-width:1.0416666666666667;" width="100" x="407.2917" y="275"/><ellipse cx="421.875" cy="293.9982" fill="none" rx="10.4167" ry="10.4167" style="stroke:#BEBEBE;stroke-width:1.0416666666666667;"/><path d="M418.2292,289.5711 L420.3776,289.5711 L421.4681,293.575 L422.5423,289.5711 L424.707,289.5711 L424.707,298.6857 L423.1608,298.6857 L423.1608,291.3778 L422.2005,295.3654 L420.7682,295.3654 L419.7917,291.3778 L419.7917,298.6857 L418.2292,298.6857 L418.2292,289.5711 Z " fill="#336699"/><text fill="#303030" font-family="Verdana" font-size="9.375" lengthAdjust="spacing" textLength="52.0833" x="443.75" y="297.2438">metaclass</text><line style="stroke:#F1F1F1;stroke-width:1.0416666666666667;" x1="408.3333" x2="506.25" y1="312.9964" y2="312.9964"/><line style="stroke:#F1F1F1;stroke-width:1.0416666666666667;" x1="408.3333" x2="506.25" y1="321.3298" y2="321.3298"/></g><!--class protocol--><g id="elem_protocol"><rect codeLine="20" fill="url(#gtgmezm0tnzix0)" height="54.6631" id="protocol" rx="7.8125" ry="7.8125" style="stroke:#F1F1F1;stroke-width:1.0416666666666667;" width="90.625" x="544.2708" y="275"/><rect fill="url(#gtgmezm0tnzix1)" height="37.9964" rx="7.8125" ry="7.8125" style="stroke:url(#gtgmezm0tnzix1);stroke-width:1.0416666666666667;" width="90.625" x="544.2708" y="275"/><rect fill="url(#gtgmezm0tnzix1)" height="7.8125" style="stroke:url(#gtgmezm0tnzix1);stroke-width:1.0416666666666667;" width="90.625" x="544.2708" y="305.1839"/><rect codeLine="20" fill="none" height="54.6631" id="protocol" rx="7.8125" ry="7.8125" style="stroke:#F1F1F1;stroke-width:1.0416666666666667;" width="90.625" x="544.2708" y="275"/><ellipse cx="558.8542" cy="293.9982" fill="none" rx="10.4167" ry="10.4167" style="stroke:#BEBEBE;stroke-width:1.0416666666666667;"/><path d="M557.9915,291.0848 L557.9915,293.7541 L558.7402,293.7541 Q559.6191,293.7541 559.9772,293.4611 Q560.3353,293.1681 560.3353,292.4194 Q560.3353,291.687 559.9772,291.394 Q559.6191,291.0848 558.7402,291.0848 L557.9915,291.0848 Z M556.2012,289.5711 L558.6751,289.5711 Q560.5632,289.5711 561.377,290.2547 Q562.207,290.922 562.207,292.4194 Q562.207,293.9331 561.377,294.6004 Q560.5632,295.2677 558.6751,295.2677 L557.9915,295.2677 L557.9915,298.6857 L556.2012,298.6857 L556.2012,289.5711 Z " fill="#336699"/><text fill="#303030" font-family="Verdana" font-size="9.375" lengthAdjust="spacing" textLength="42.7083" x="580.7292" y="297.2438">protocol</text><line style="stroke:#F1F1F1;stroke-width:1.0416666666666667;" x1="545.3125" x2="633.8542" y1="312.9964" y2="312.9964"/><line style="stroke:#F1F1F1;stroke-width:1.0416666666666667;" x1="545.3125" x2="633.8542" y1="321.3298" y2="321.3298"/></g><!--class stereotype--><g id="elem_stereotype"><rect codeLine="21" fill="url(#gtgmezm0tnzix0)" height="54.6631" id="stereotype" rx="7.8125" ry="7.8125" style="stroke:#F1F1F1;stroke-width:1.0416666666666667;" width="102.0833" x="16.6667" y="385.4167"/><rect fill="url(#gtgmezm0tnzix1)" height="37.9964" rx="7.8125" ry="7.8125" style="stroke:url(#gtgmezm0tnzix1);stroke-width:1.0416666666666667;" width="102.0833" x="16.6667" y="385.4167"/><rect fill="url(#gtgmezm0tnzix1)" height="7.8125" style="stroke:url(#gtgmezm0tnzix1);stroke-width:1.0416666666666667;" width="102.0833" x="16.6667" y="415.6006"/><rect codeLine="21" fill="none" height="54.6631" id="stereotype" rx="7.8125" ry="7.8125" style="stroke:#F1F1F1;stroke-width:1.0416666666666667;" width="102.0833" x="16.6667" y="385.4167"/><ellipse cx="31.25" cy="404.4149" fill="none" rx="10.4167" ry="10.4167" style="stroke:#BEBEBE;stroke-width:1.0416666666666667;"/><path d="M30.1921,405.0985 Q28.8411,404.5776 28.3529,404.008 Q27.8646,403.4383 27.8646,402.478 Q27.8646,401.241 28.6621,400.5412 Q29.4596,399.825 30.8431,399.825 Q31.4779,399.825 32.0964,399.9715 Q32.7311,400.118 33.3496,400.3947 L33.3496,402.1525 Q32.7637,401.7456 32.1615,401.534 Q31.5755,401.3062 30.9896,401.3062 Q30.3385,401.3062 29.9805,401.5828 Q29.6387,401.8433 29.6387,402.3315 Q29.6387,402.7059 29.8828,402.95 Q30.1432,403.1942 30.9408,403.5034 L31.722,403.7964 Q32.8288,404.187 33.3333,404.8543 Q33.8542,405.5216 33.8542,406.5308 Q33.8542,407.9142 33.0404,408.5978 Q32.2266,409.2814 30.5827,409.2814 Q29.8991,409.2814 29.2155,409.1187 Q28.5482,408.9559 27.9134,408.6304 L27.9134,406.7749 Q28.6296,407.2957 29.2969,407.5399 Q29.9805,407.784 30.6315,407.784 Q31.2988,407.784 31.6569,407.491 Q32.0313,407.1818 32.0313,406.6447 Q32.0313,406.2378 31.7871,405.9285 Q31.543,405.6193 31.0872,405.4403 L30.1921,405.0985 Z " fill="#336699"/><text fill="#303030" font-family="Verdana" font-size="9.375" lengthAdjust="spacing" textLength="54.1667" x="53.125" y="407.6604">stereotype</text><line style="stroke:#F1F1F1;stroke-width:1.0416666666666667;" x1="17.7083" x2="117.7083" y1="423.4131" y2="423.4131"/><line style="stroke:#F1F1F1;stroke-width:1.0416666666666667;" x1="17.7083" x2="117.7083" y1="431.7464" y2="431.7464"/></g><!--class struct--><g id="elem_struct"><rect codeLine="22" fill="url(#gtgmezm0tnzix0)" height="54.6631" id="struct" rx="7.8125" ry="7.8125" style="stroke:#F1F1F1;stroke-width:1.0416666666666667;" width="78.125" x="155.7292" y="385.4167"/><rect fill="url(#gtgmezm0tnzix1)" height="37.9964" rx="7.8125" ry="7.8125" style="stroke:url(#gtgmezm0tnzix1);stroke-width:1.0416666666666667;" width="78.125" x="155.7292" y="385.4167"/><rect fill="url(#gtgmezm0tnzix1)" height="7.8125" style="stroke:url(#gtgmezm0tnzix1);stroke-width:1.0416666666666667;" width="78.125" x="155.7292" y="415.6006"/><rect codeLine="22" fill="none" height="54.6631" id="struct" rx="7.8125" ry="7.8125" style="stroke:#F1F1F1;stroke-width:1.0416666666666667;" width="78.125" x="155.7292" y="385.4167"/><ellipse cx="170.3125" cy="404.4149" fill="none" rx="10.4167" ry="10.4167" style="stroke:#BEBEBE;stroke-width:1.0416666666666667;"/><path d="M169.2546,405.0985 Q167.9036,404.5776 167.4154,404.008 Q166.9271,403.4383 166.9271,402.478 Q166.9271,401.241 167.7246,400.5412 Q168.5221,399.825 169.9056,399.825 Q170.5404,399.825 171.1589,399.9715 Q171.7936,400.118 172.4121,400.3947 L172.4121,402.1525 Q171.8262,401.7456 171.224,401.534 Q170.638,401.3062 170.0521,401.3062 Q169.401,401.3062 169.043,401.5828 Q168.7012,401.8433 168.7012,402.3315 Q168.7012,402.7059 168.9453,402.95 Q169.2057,403.1942 170.0033,403.5034 L170.7845,403.7964 Q171.8913,404.187 172.3958,404.8543 Q172.9167,405.5216 172.9167,406.5308 Q172.9167,407.9142 172.1029,408.5978 Q171.2891,409.2814 169.6452,409.2814 Q168.9616,409.2814 168.278,409.1187 Q167.6107,408.9559 166.9759,408.6304 L166.9759,406.7749 Q167.6921,407.2957 168.3594,407.5399 Q169.043,407.784 169.694,407.784 Q170.3613,407.784 170.7194,407.491 Q171.0938,407.1818 171.0938,406.6447 Q171.0938,406.2378 170.8496,405.9285 Q170.6055,405.6193 170.1497,405.4403 L169.2546,405.0985 Z " fill="#336699"/><text fill="#303030" font-family="Verdana" font-size="9.375" lengthAdjust="spacing" textLength="30.2083" x="192.1875" y="407.6604">struct</text><line style="stroke:#F1F1F1;stroke-width:1.0416666666666667;" x1="156.7708" x2="232.8125" y1="423.4131" y2="423.4131"/><line style="stroke:#F1F1F1;stroke-width:1.0416666666666667;" x1="156.7708" x2="232.8125" y1="431.7464" y2="431.7464"/></g></g></svg>