<svg xmlns="http://www.w3.org/2000/svg" xmlns:xlink="http://www.w3.org/1999/xlink" contentStyleType="text/css" height="762.5px" preserveAspectRatio="none" style="width:1035px;height:762px;" version="1.1" viewBox="0 0 1035 762" width="1035.4167px" zoomAndPan="magnify"><defs><linearGradient id="gretaa0o33ohf0" x1="50%" x2="50%" y1="0%" y2="100%"><stop offset="0%" stop-color="#1388F5"/><stop offset="100%" stop-color="#0972D3"/></linearGradient></defs><g><!--cluster foo_frame--><g id="cluster_foo_frame"><rect fill="#EEEEEE" height="110.4167" rx="4.1667" ry="4.1667" style="stroke:#0972D3;stroke-width:2.0833333333333335;" width="214.5833" x="726.0417" y="17.1875"/><path d="M819.7917,17.1875 L819.7917,34.8633 L809.375,45.2799 L726.0417,45.2799 " fill="none" style="stroke:#0972D3;stroke-width:2.0833333333333335;"/><text fill="#0972D3" font-family="Verdana" font-size="12.5" font-weight="bold" lengthAdjust="spacing" textLength="72.9167" x="734.375" y="35.0403">foo_frame</text></g><!--class AbstractList--><g id="elem_AbstractList"><rect codeLine="7" fill="url(#gretaa0o33ohf0)" height="34.1715" id="AbstractList" rx="4.1667" ry="4.1667" style="stroke:#0972D3;stroke-width:1.0416666666666667;" width="110.4167" x="270.8333" y="361.9792"/><rect fill="url(#gretaa0o33ohf0)" height="34.1715" rx="4.1667" ry="4.1667" style="stroke:url(#gretaa0o33ohf0);stroke-width:1.0416666666666667;" width="110.4167" x="270.8333" y="361.9792"/><rect fill="url(#gretaa0o33ohf0)" height="4.1667" style="stroke:url(#gretaa0o33ohf0);stroke-width:1.0416666666666667;" width="110.4167" x="270.8333" y="391.984"/><rect codeLine="7" fill="none" height="34.1715" id="AbstractList" rx="4.1667" ry="4.1667" style="stroke:#0972D3;stroke-width:1.0416666666666667;" width="110.4167" x="270.8333" y="361.9792"/><ellipse cx="285.4167" cy="379.0649" fill="#A9DCDF" rx="10.4167" ry="10.4167" style="stroke:#181818;stroke-width:1.0416666666666667;"/><path d="M285.0098,376.0213 L284.1634,379.7485 L285.8724,379.7485 L285.0098,376.0213 Z M283.9193,374.3774 L286.1165,374.3774 L288.5742,383.492 L286.7676,383.492 L286.2142,381.2459 L283.8053,381.2459 L283.252,383.492 L281.4453,383.492 L283.9193,374.3774 Z " fill="#000000"/><text fill="#D1D5DB" font-family="Verdana" font-size="11.4583" font-style="italic" lengthAdjust="spacing" textLength="68.75" x="304.1667" y="383.0317">AbstractList</text></g><!--class AbstractCollection--><g id="elem_AbstractCollection"><rect codeLine="8" fill="url(#gretaa0o33ohf0)" height="34.1715" id="AbstractCollection" rx="4.1667" ry="4.1667" style="stroke:#0972D3;stroke-width:1.0416666666666667;" width="147.9167" x="8.3333" y="361.9792"/><rect fill="url(#gretaa0o33ohf0)" height="34.1715" rx="4.1667" ry="4.1667" style="stroke:url(#gretaa0o33ohf0);stroke-width:1.0416666666666667;" width="147.9167" x="8.3333" y="361.9792"/><rect fill="url(#gretaa0o33ohf0)" height="4.1667" style="stroke:url(#gretaa0o33ohf0);stroke-width:1.0416666666666667;" width="147.9167" x="8.3333" y="391.984"/><rect codeLine="8" fill="none" height="34.1715" id="AbstractCollection" rx="4.1667" ry="4.1667" style="stroke:#0972D3;stroke-width:1.0416666666666667;" width="147.9167" x="8.3333" y="361.9792"/><ellipse cx="22.9167" cy="379.0649" fill="#A9DCDF" rx="10.4167" ry="10.4167" style="stroke:#181818;stroke-width:1.0416666666666667;"/><path d="M22.5098,376.0213 L21.6634,379.7485 L23.3724,379.7485 L22.5098,376.0213 Z M21.4193,374.3774 L23.6165,374.3774 L26.0742,383.492 L24.2676,383.492 L23.7142,381.2459 L21.3053,381.2459 L20.752,383.492 L18.9453,383.492 L21.4193,374.3774 Z " fill="#000000"/><text fill="#D1D5DB" font-family="Verdana" font-size="11.4583" font-style="italic" lengthAdjust="spacing" textLength="106.25" x="41.6667" y="383.0317">AbstractCollection</text></g><!--class List--><g id="elem_List"><rect codeLine="9" fill="url(#gretaa0o33ohf0)" height="34.1715" id="List" rx="4.1667" ry="4.1667" style="stroke:#0972D3;stroke-width:1.0416666666666667;" width="61.4583" x="254.6875" y="68.75"/><rect fill="url(#gretaa0o33ohf0)" height="34.1715" rx="4.1667" ry="4.1667" style="stroke:url(#gretaa0o33ohf0);stroke-width:1.0416666666666667;" width="61.4583" x="254.6875" y="68.75"/><rect fill="url(#gretaa0o33ohf0)" height="4.1667" style="stroke:url(#gretaa0o33ohf0);stroke-width:1.0416666666666667;" width="61.4583" x="254.6875" y="98.7549"/><rect codeLine="9" fill="none" height="34.1715" id="List" rx="4.1667" ry="4.1667" style="stroke:#0972D3;stroke-width:1.0416666666666667;" width="61.4583" x="254.6875" y="68.75"/><ellipse cx="269.2708" cy="85.8358" fill="#B4A7E5" rx="10.4167" ry="10.4167" style="stroke:#181818;stroke-width:1.0416666666666667;"/><path d="M266.1621,83.0037 L266.1621,81.4087 L271.582,81.4087 L271.582,83.0037 L269.7754,83.0037 L269.7754,88.9282 L271.582,88.9282 L271.582,90.5233 L266.1621,90.5233 L266.1621,88.9282 L267.9688,88.9282 L267.9688,83.0037 L266.1621,83.0037 Z " fill="#000000"/><text fill="#D1D5DB" font-family="Verdana" font-size="11.4583" font-style="italic" lengthAdjust="spacing" textLength="19.7917" x="288.0208" y="89.8026">List</text></g><!--class Collection--><g id="elem_Collection"><rect codeLine="10" fill="url(#gretaa0o33ohf0)" height="34.1715" id="Collection" rx="4.1667" ry="4.1667" style="stroke:#0972D3;stroke-width:1.0416666666666667;" width="98.9583" x="53.6458" y="68.75"/><rect fill="url(#gretaa0o33ohf0)" height="34.1715" rx="4.1667" ry="4.1667" style="stroke:url(#gretaa0o33ohf0);stroke-width:1.0416666666666667;" width="98.9583" x="53.6458" y="68.75"/><rect fill="url(#gretaa0o33ohf0)" height="4.1667" style="stroke:url(#gretaa0o33ohf0);stroke-width:1.0416666666666667;" width="98.9583" x="53.6458" y="98.7549"/><rect codeLine="10" fill="none" height="34.1715" id="Collection" rx="4.1667" ry="4.1667" style="stroke:#0972D3;stroke-width:1.0416666666666667;" width="98.9583" x="53.6458" y="68.75"/><ellipse cx="68.2292" cy="85.8358" fill="#B4A7E5" rx="10.4167" ry="10.4167" style="stroke:#181818;stroke-width:1.0416666666666667;"/><path d="M65.1204,83.0037 L65.1204,81.4087 L70.5404,81.4087 L70.5404,83.0037 L68.7337,83.0037 L68.7337,88.9282 L70.5404,88.9282 L70.5404,90.5233 L65.1204,90.5233 L65.1204,88.9282 L66.9271,88.9282 L66.9271,83.0037 L65.1204,83.0037 Z " fill="#000000"/><text fill="#D1D5DB" font-family="Verdana" font-size="11.4583" font-style="italic" lengthAdjust="spacing" textLength="57.2917" x="86.9792" y="89.8026">Collection</text></g><!--class ArrayList--><g id="elem_ArrayList"><rect codeLine="20" fill="url(#gretaa0o33ohf0)" height="98.348" id="ArrayList" rx="4.1667" ry="4.1667" style="stroke:#0972D3;stroke-width:1.0416666666666667;" width="147.9167" x="213.5417" y="657.2917"/><rect fill="url(#gretaa0o33ohf0)" height="34.1715" rx="4.1667" ry="4.1667" style="stroke:url(#gretaa0o33ohf0);stroke-width:1.0416666666666667;" width="147.9167" x="213.5417" y="657.2917"/><rect fill="url(#gretaa0o33ohf0)" height="4.1667" style="stroke:url(#gretaa0o33ohf0);stroke-width:1.0416666666666667;" width="147.9167" x="213.5417" y="687.2965"/><rect codeLine="20" fill="none" height="98.348" id="ArrayList" rx="4.1667" ry="4.1667" style="stroke:#0972D3;stroke-width:1.0416666666666667;" width="147.9167" x="213.5417" y="657.2917"/><ellipse cx="252.5" cy="674.3774" fill="#ADD1B2" rx="10.4167" ry="10.4167" style="stroke:#181818;stroke-width:1.0416666666666667;"/><path d="M254.4043,678.8045 Q253.9811,679.0161 253.5091,679.13 Q253.0371,679.244 252.5326,679.244 Q250.6771,679.244 249.7005,678.0396 Q248.7402,676.8188 248.7402,674.5239 Q248.7402,672.2127 249.7005,671.0083 Q250.6771,669.7876 252.5326,669.7876 Q253.0371,669.7876 253.5091,669.9015 Q253.9974,669.9992 254.4043,670.2271 L254.4043,672.229 Q253.9486,671.8058 253.5091,671.6105 Q253.0697,671.3989 252.6139,671.3989 Q251.6211,671.3989 251.1165,672.1965 Q250.612,672.9777 250.612,674.5239 Q250.612,676.0539 251.1165,676.8351 Q251.6211,677.6164 252.6139,677.6164 Q253.0697,677.6164 253.5091,677.4211 Q253.9486,677.2257 254.4043,676.8026 L254.4043,678.8045 Z " fill="#000000"/><text fill="#D1D5DB" font-family="Verdana" font-size="11.4583" lengthAdjust="spacing" textLength="52.0833" x="276.6667" y="678.3442">ArrayList</text><line style="stroke:#0972D3;stroke-width:1.0416666666666667;" x1="214.5833" x2="360.4167" y1="691.4632" y2="691.4632"/><text fill="#D1D5DB" font-family="Verdana" font-size="11.4583" lengthAdjust="spacing" textLength="125" x="225" y="711.4741">Object[] elementData</text><line style="stroke:#0972D3;stroke-width:1.0416666666666667;" x1="214.5833" x2="360.4167" y1="723.5514" y2="723.5514"/><text fill="#D1D5DB" font-family="Verdana" font-size="11.4583" lengthAdjust="spacing" textLength="31.25" x="225" y="743.5623">size()</text></g><!--class TimeUnit--><g id="elem_TimeUnit"><rect codeLine="25" fill="url(#gretaa0o33ohf0)" height="113.7695" id="TimeUnit" rx="4.1667" ry="4.1667" style="stroke:#0972D3;stroke-width:1.0416666666666667;" width="93.75" x="415.625" y="29.1667"/><rect fill="url(#gretaa0o33ohf0)" height="34.1715" rx="4.1667" ry="4.1667" style="stroke:url(#gretaa0o33ohf0);stroke-width:1.0416666666666667;" width="93.75" x="415.625" y="29.1667"/><rect fill="url(#gretaa0o33ohf0)" height="4.1667" style="stroke:url(#gretaa0o33ohf0);stroke-width:1.0416666666666667;" width="93.75" x="415.625" y="59.1715"/><rect codeLine="25" fill="none" height="113.7695" id="TimeUnit" rx="4.1667" ry="4.1667" style="stroke:#0972D3;stroke-width:1.0416666666666667;" width="93.75" x="415.625" y="29.1667"/><ellipse cx="430.2083" cy="46.2524" fill="#EB937F" rx="10.4167" ry="10.4167" style="stroke:#181818;stroke-width:1.0416666666666667;"/><path d="M432.7474,50.9399 L427.0671,50.9399 L427.0671,41.8254 L432.7474,41.8254 L432.7474,43.4204 L428.8737,43.4204 L428.8737,45.3735 L432.373,45.3735 L432.373,46.9686 L428.8737,46.9686 L428.8737,49.3449 L432.7474,49.3449 L432.7474,50.9399 Z " fill="#000000"/><text fill="#D1D5DB" font-family="Verdana" font-size="11.4583" lengthAdjust="spacing" textLength="52.0833" x="448.9583" y="50.2192">TimeUnit</text><line style="stroke:#0972D3;stroke-width:1.0416666666666667;" x1="416.6667" x2="508.3333" y1="63.3382" y2="63.3382"/><text fill="#D1D5DB" font-family="Verdana" font-size="11.4583" lengthAdjust="spacing" textLength="31.25" x="427.0833" y="83.3491">DAYS</text><text fill="#D1D5DB" font-family="Verdana" font-size="11.4583" lengthAdjust="spacing" textLength="41.6667" x="427.0833" y="107.104">HOURS</text><text fill="#D1D5DB" font-family="Verdana" font-size="11.4583" lengthAdjust="spacing" textLength="52.0833" x="427.0833" y="130.8589">MINUTES</text></g><!--class SuppressWarnings--><g id="elem_SuppressWarnings"><rect codeLine="31" fill="url(#gretaa0o33ohf0)" height="34.1715" id="SuppressWarnings" rx="4.1667" ry="4.1667" style="stroke:#0972D3;stroke-width:1.0416666666666667;" width="153.125" x="392.1875" y="689.0625"/><rect fill="url(#gretaa0o33ohf0)" height="34.1715" rx="4.1667" ry="4.1667" style="stroke:url(#gretaa0o33ohf0);stroke-width:1.0416666666666667;" width="153.125" x="392.1875" y="689.0625"/><rect fill="url(#gretaa0o33ohf0)" height="4.1667" style="stroke:url(#gretaa0o33ohf0);stroke-width:1.0416666666666667;" width="153.125" x="392.1875" y="719.0674"/><rect codeLine="31" fill="none" height="34.1715" id="SuppressWarnings" rx="4.1667" ry="4.1667" style="stroke:#0972D3;stroke-width:1.0416666666666667;" width="153.125" x="392.1875" y="689.0625"/><ellipse cx="406.7708" cy="706.1483" fill="#E3664A" rx="10.4167" ry="10.4167" style="stroke:#181818;stroke-width:1.0416666666666667;"/><path d="M408.0241,705.953 Q408.0241,705.2531 407.7148,704.8625 Q407.4056,704.4718 406.8522,704.4718 Q406.3151,704.4718 406.0059,704.8625 Q405.6966,705.2531 405.6966,705.953 Q405.6966,706.6366 406.0059,707.0272 Q406.3151,707.4178 406.8522,707.4178 Q407.4056,707.4178 407.7148,707.0272 Q408.0241,706.6366 408.0241,705.953 Z M409.1634,708.4432 L407.959,708.4432 L407.959,707.9549 Q407.7311,708.2642 407.4056,708.4269 Q407.0964,708.5734 406.6569,708.5734 Q405.6641,708.5734 405.0456,707.8573 Q404.4271,707.1248 404.4271,705.953 Q404.4271,704.7648 405.0293,704.0487 Q405.6478,703.3325 406.6569,703.3325 Q407.0964,703.3325 407.4219,703.479 Q407.7474,703.6255 407.959,703.9185 L407.959,703.6743 Q407.959,702.8442 407.5033,702.3885 Q407.0475,701.9328 406.2174,701.9328 Q404.9479,701.9328 404.1341,703.0558 Q403.3366,704.1626 403.3366,705.953 Q403.3366,707.8247 404.2643,708.9478 Q405.1921,710.0545 406.7383,710.0545 Q407.2266,710.0545 407.6823,709.908 Q408.138,709.7616 408.5612,709.4686 L409.1146,710.5428 Q408.6263,710.8846 408.0404,711.0474 Q407.4544,711.2264 406.8034,711.2264 Q404.6549,711.2264 403.3854,709.7941 Q402.1159,708.3781 402.1159,705.953 Q402.1159,703.5929 403.2552,702.1769 Q404.4108,700.7609 406.2826,700.7609 Q407.6172,700.7609 408.3822,701.5584 Q409.1634,702.356 409.1634,703.7557 L409.1634,708.4432 Z " fill="#000000"/><text fill="#D1D5DB" font-family="Verdana" font-size="11.4583" lengthAdjust="spacing" textLength="111.4583" x="425.5208" y="710.1151">SuppressWarnings</text></g><!--class Annotation--><g id="elem_Annotation"><rect codeLine="33" fill="url(#gretaa0o33ohf0)" height="147.0703" id="Annotation" rx="4.1667" ry="4.1667" style="stroke:#0972D3;stroke-width:1.0416666666666667;" width="175" x="540.625" y="12.5"/><rect fill="url(#gretaa0o33ohf0)" height="59.139" rx="4.1667" ry="4.1667" style="stroke:url(#gretaa0o33ohf0);stroke-width:1.0416666666666667;" width="175" x="540.625" y="12.5"/><rect fill="url(#gretaa0o33ohf0)" height="4.1667" style="stroke:url(#gretaa0o33ohf0);stroke-width:1.0416666666666667;" width="175" x="540.625" y="67.4723"/><rect codeLine="33" fill="none" height="147.0703" id="Annotation" rx="4.1667" ry="4.1667" style="stroke:#0972D3;stroke-width:1.0416666666666667;" width="175" x="540.625" y="12.5"/><ellipse cx="578.6458" cy="42.0695" fill="#E3664A" rx="10.4167" ry="10.4167" style="stroke:#181818;stroke-width:1.0416666666666667;"/><path d="M579.8991,41.8742 Q579.8991,41.1743 579.5898,40.7837 Q579.2806,40.3931 578.7272,40.3931 Q578.1901,40.3931 577.8809,40.7837 Q577.5716,41.1743 577.5716,41.8742 Q577.5716,42.5578 577.8809,42.9484 Q578.1901,43.339 578.7272,43.339 Q579.2806,43.339 579.5898,42.9484 Q579.8991,42.5578 579.8991,41.8742 Z M581.0384,44.3644 L579.834,44.3644 L579.834,43.8761 Q579.6061,44.1854 579.2806,44.3481 Q578.9714,44.4946 578.5319,44.4946 Q577.5391,44.4946 576.9206,43.7785 Q576.3021,43.0461 576.3021,41.8742 Q576.3021,40.686 576.9043,39.9699 Q577.5228,39.2537 578.5319,39.2537 Q578.9714,39.2537 579.2969,39.4002 Q579.6224,39.5467 579.834,39.8397 L579.834,39.5955 Q579.834,38.7655 579.3783,38.3097 Q578.9225,37.854 578.0924,37.854 Q576.8229,37.854 576.0091,38.9771 Q575.2116,40.0838 575.2116,41.8742 Q575.2116,43.7459 576.1393,44.869 Q577.0671,45.9757 578.6133,45.9757 Q579.1016,45.9757 579.5573,45.8293 Q580.013,45.6828 580.4362,45.3898 L580.9896,46.464 Q580.5013,46.8058 579.9154,46.9686 Q579.3294,47.1476 578.6784,47.1476 Q576.5299,47.1476 575.2604,45.7153 Q573.9909,44.2993 573.9909,41.8742 Q573.9909,39.5142 575.1302,38.0981 Q576.2858,36.6821 578.1576,36.6821 Q579.4922,36.6821 580.2572,37.4797 Q581.0384,38.2772 581.0384,39.6769 L581.0384,44.3644 Z " fill="#000000"/><text fill="#000716" font-family="Verdana" font-size="12.5" font-style="italic" lengthAdjust="spacing" textLength="85.4167" x="600.5208" y="34.5194">&#171;stereotype&#187;</text><text fill="#D1D5DB" font-family="Verdana" font-size="11.4583" lengthAdjust="spacing" textLength="62.5" x="611.9792" y="58.52">Annotation</text><line style="stroke:#0972D3;stroke-width:1.0416666666666667;" x1="541.6667" x2="714.5833" y1="71.639" y2="71.639"/><text fill="#D1D5DB" font-family="Verdana" font-size="11.4583" lengthAdjust="spacing" textLength="152.0833" x="552.0833" y="91.6499">annotation with members</text><line style="stroke:#0972D3;stroke-width:1.0416666666666667;" x1="541.6667" x2="714.5833" y1="103.7272" y2="103.7272"/><text fill="#D1D5DB" font-family="Verdana" font-size="11.4583" lengthAdjust="spacing" textLength="66.6667" x="552.0833" y="123.7381">String foo()</text><text fill="#D1D5DB" font-family="Verdana" font-size="11.4583" lengthAdjust="spacing" textLength="67.7083" x="552.0833" y="147.493">String bar()</text></g><!--class Dummy--><g id="elem_Dummy"><rect codeLine="39" fill="url(#gretaa0o33ohf0)" height="193.3675" id="Dummy" rx="4.1667" ry="4.1667" style="stroke:#0972D3;stroke-width:1.0416666666666667;" width="125" x="400" y="282.2917"/><rect fill="url(#gretaa0o33ohf0)" height="34.1715" rx="4.1667" ry="4.1667" style="stroke:url(#gretaa0o33ohf0);stroke-width:1.0416666666666667;" width="125" x="400" y="282.2917"/><rect fill="url(#gretaa0o33ohf0)" height="4.1667" style="stroke:url(#gretaa0o33ohf0);stroke-width:1.0416666666666667;" width="125" x="400" y="312.2965"/><rect codeLine="39" fill="none" height="193.3675" id="Dummy" rx="4.1667" ry="4.1667" style="stroke:#0972D3;stroke-width:1.0416666666666667;" width="125" x="400" y="282.2917"/><ellipse cx="431.9271" cy="299.3774" fill="#ADD1B2" rx="10.4167" ry="10.4167" style="stroke:#181818;stroke-width:1.0416666666666667;"/><path d="M433.8314,303.8045 Q433.4082,304.0161 432.9362,304.13 Q432.4642,304.244 431.9596,304.244 Q430.1042,304.244 429.1276,303.0396 Q428.1673,301.8188 428.1673,299.5239 Q428.1673,297.2127 429.1276,296.0083 Q430.1042,294.7876 431.9596,294.7876 Q432.4642,294.7876 432.9362,294.9015 Q433.4245,294.9992 433.8314,295.2271 L433.8314,297.229 Q433.3757,296.8058 432.9362,296.6105 Q432.4967,296.3989 432.041,296.3989 Q431.0482,296.3989 430.5436,297.1965 Q430.0391,297.9777 430.0391,299.5239 Q430.0391,301.0539 430.5436,301.8351 Q431.0482,302.6164 432.041,302.6164 Q432.4967,302.6164 432.9362,302.4211 Q433.3757,302.2257 433.8314,301.8026 L433.8314,303.8045 Z " fill="#000000"/><text fill="#D1D5DB" font-family="Verdana" font-size="11.4583" lengthAdjust="spacing" textLength="44.7917" x="454.5313" y="303.3442">Dummy</text><line style="stroke:#0972D3;stroke-width:1.0416666666666667;" x1="401.0417" x2="523.9583" y1="316.4632" y2="316.4632"/><rect fill="none" height="6.25" style="stroke:#C82930;stroke-width:1.0416666666666667;" width="6.25" x="408.3333" y="330.9448"/><text fill="#D1D5DB" font-family="Verdana" font-size="11.4583" lengthAdjust="spacing" textLength="32.2917" x="425" y="336.4741">field1</text><polygon fill="none" points="411.4583,352.6164,415.625,356.783,411.4583,360.9497,407.2917,356.783" style="stroke:#B38D22;stroke-width:1.0416666666666667;"/><text fill="#D1D5DB" font-family="Verdana" font-size="11.4583" lengthAdjust="spacing" textLength="32.2917" x="425" y="360.229">field2</text><text fill="#D1D5DB" font-family="Verdana" font-size="11.4583" lengthAdjust="spacing" text-decoration="underline" textLength="50" x="425" y="383.9839">String id</text><line style="stroke:#0972D3;stroke-width:1.0416666666666667;" x1="401.0417" x2="523.9583" y1="396.0612" y2="396.0612"/><polygon fill="none" points="411.4583,409.5011,407.2917,415.7511,415.625,415.7511" style="stroke:#000716;stroke-width:1.0416666666666667;"/><text fill="#D1D5DB" font-family="Verdana" font-size="11.4583" lengthAdjust="spacing" textLength="60.4167" x="425" y="416.0721">method1()</text><ellipse cx="411.4583" cy="437.4227" fill="#84BE84" rx="3.125" ry="3.125" style="stroke:#038048;stroke-width:1.0416666666666667;"/><text fill="#D1D5DB" font-family="Verdana" font-size="11.4583" lengthAdjust="spacing" textLength="60.4167" x="425" y="439.827">method2()</text><text fill="#D1D5DB" font-family="Verdana" font-size="11.4583" font-style="italic" lengthAdjust="spacing" textLength="88.5417" x="425" y="463.5818">void methods()</text></g><g id="elem_N1"><path d="M6.25,692.7083 L6.25,719.7591 A4.1667,4.1667 0 0 0 10.4167,723.9258 L175,723.9258 A4.1667,4.1667 0 0 0 179.1667,719.7591 L179.1667,698.9583 L168.75,688.5417 L10.4167,688.5417 A4.1667,4.1667 0 0 0 6.25,692.7083 " fill="#0972D3" style="stroke:#0972D3;stroke-width:1.0416666666666667;"/><path d="M168.75,688.5417 L168.75,696.875 A2.0833,2.0833 0 0 0 170.8333,698.9583 L179.1667,698.9583 L168.75,688.5417 " fill="#0972D3" style="stroke:#0972D3;stroke-width:1.0416666666666667;"/><text fill="#FFFFFF" font-family="Verdana" font-size="12.5" lengthAdjust="spacing" textLength="140.625" x="17.7083" y="710.5611">This is a floating note</text></g><!--class Element--><g id="elem_Element"><rect fill="url(#gretaa0o33ohf0)" height="34.1715" id="Element" rx="4.1667" ry="4.1667" style="stroke:#0972D3;stroke-width:1.0416666666666667;" width="89.5833" x="788.5417" y="361.9792"/><rect fill="url(#gretaa0o33ohf0)" height="34.1715" rx="4.1667" ry="4.1667" style="stroke:url(#gretaa0o33ohf0);stroke-width:1.0416666666666667;" width="89.5833" x="788.5417" y="361.9792"/><rect fill="url(#gretaa0o33ohf0)" height="4.1667" style="stroke:url(#gretaa0o33ohf0);stroke-width:1.0416666666666667;" width="89.5833" x="788.5417" y="391.984"/><rect fill="none" height="34.1715" id="Element" rx="4.1667" ry="4.1667" style="stroke:#0972D3;stroke-width:1.0416666666666667;" width="89.5833" x="788.5417" y="361.9792"/><ellipse cx="803.125" cy="379.0649" fill="#ADD1B2" rx="10.4167" ry="10.4167" style="stroke:#181818;stroke-width:1.0416666666666667;"/><path d="M805.0293,383.492 Q804.6061,383.7036 804.1341,383.8175 Q803.6621,383.9315 803.1576,383.9315 Q801.3021,383.9315 800.3255,382.7271 Q799.3652,381.5063 799.3652,379.2114 Q799.3652,376.9002 800.3255,375.6958 Q801.3021,374.4751 803.1576,374.4751 Q803.6621,374.4751 804.1341,374.589 Q804.6224,374.6867 805.0293,374.9146 L805.0293,376.9165 Q804.5736,376.4933 804.1341,376.298 Q803.6947,376.0864 803.2389,376.0864 Q802.2461,376.0864 801.7415,376.884 Q801.237,377.6652 801.237,379.2114 Q801.237,380.7414 801.7415,381.5226 Q802.2461,382.3039 803.2389,382.3039 Q803.6947,382.3039 804.1341,382.1086 Q804.5736,381.9132 805.0293,381.4901 L805.0293,383.492 Z " fill="#000000"/><text fill="#D1D5DB" font-family="Verdana" font-size="11.4583" lengthAdjust="spacing" textLength="47.9167" x="821.875" y="383.0317">Element</text></g><g id="elem_Elementlol26"><ellipse cx="830.2083" cy="698.9583" fill="#F1F1F1" rx="5.2083" ry="5.2083" style="stroke:#181818;stroke-width:1.5625;"/></g><text fill="#000000" font-family="Verdana" font-size="12.5" lengthAdjust="spacing" textLength="58.3333" x="801.0417" y="720.9778">interface</text><g id="elem_GMN31"><path d="M908.8542,365.625 L908.8542,375 L878.4251,379.1667 L908.8542,383.3333 L908.8542,392.6758 A4.1667,4.1667 0 0 0 913.0208,396.8424 L1024.4792,396.8424 A4.1667,4.1667 0 0 0 1028.6458,392.6758 L1028.6458,371.875 L1018.2292,361.4583 L913.0208,361.4583 A4.1667,4.1667 0 0 0 908.8542,365.625 " fill="#0972D3" style="stroke:#0972D3;stroke-width:1.0416666666666667;"/><path d="M1018.2292,361.4583 L1018.2292,369.7917 A2.0833,2.0833 0 0 0 1020.3125,371.875 L1028.6458,371.875 L1018.2292,361.4583 " fill="#0972D3" style="stroke:#0972D3;stroke-width:1.0416666666666667;"/><text fill="#FFFFFF" font-family="Verdana" font-size="12.5" lengthAdjust="spacing" textLength="87.5" x="920.3125" y="383.4778">This is a note</text></g><!--class User--><g id="elem_User"><rect codeLine="69" fill="url(#gretaa0o33ohf0)" height="312.4837" id="User" rx="4.1667" ry="4.1667" style="stroke:#0972D3;stroke-width:1.0416666666666667;" width="120.8333" x="556.25" y="222.9167"/><rect fill="url(#gretaa0o33ohf0)" height="73.6898" rx="4.1667" ry="4.1667" style="stroke:url(#gretaa0o33ohf0);stroke-width:1.0416666666666667;" width="120.8333" x="556.25" y="222.9167"/><rect fill="url(#gretaa0o33ohf0)" height="4.1667" style="stroke:url(#gretaa0o33ohf0);stroke-width:1.0416666666666667;" width="120.8333" x="556.25" y="292.4398"/><rect codeLine="69" fill="none" height="312.4837" id="User" rx="4.1667" ry="4.1667" style="stroke:#0972D3;stroke-width:1.0416666666666667;" width="120.8333" x="556.25" y="222.9167"/><ellipse cx="583.9583" cy="259.7616" fill="#ADD1B2" rx="10.4167" ry="10.4167" style="stroke:#181818;stroke-width:1.0416666666666667;"/><path d="M585.8626,264.1886 Q585.4395,264.4002 584.9674,264.5142 Q584.4954,264.6281 583.9909,264.6281 Q582.1354,264.6281 581.1589,263.4237 Q580.1986,262.203 580.1986,259.908 Q580.1986,257.5968 581.1589,256.3924 Q582.1354,255.1717 583.9909,255.1717 Q584.4954,255.1717 584.9674,255.2856 Q585.4557,255.3833 585.8626,255.6112 L585.8626,257.6131 Q585.4069,257.1899 584.9674,256.9946 Q584.528,256.783 584.0723,256.783 Q583.0794,256.783 582.5749,257.5806 Q582.0703,258.3618 582.0703,259.908 Q582.0703,261.438 582.5749,262.2192 Q583.0794,263.0005 584.0723,263.0005 Q584.528,263.0005 584.9674,262.8052 Q585.4069,262.6099 585.8626,262.1867 L585.8626,264.1886 Z " fill="#000000"/><text fill="#000716" font-family="Verdana" font-size="12.5" font-style="italic" lengthAdjust="spacing" textLength="42.7083" x="609.2708" y="244.9361">&#171;user&#187;</text><text fill="#000716" font-family="Verdana" font-size="12.5" font-style="italic" lengthAdjust="spacing" textLength="54.1667" x="603.5417" y="259.4869">&#171;admin&#187;</text><text fill="#D1D5DB" font-family="Verdana" font-size="11.4583" lengthAdjust="spacing" textLength="28.125" x="616.5625" y="283.4874">User</text><line style="stroke:#0972D3;stroke-width:1.0416666666666667;" x1="557.2917" x2="676.0417" y1="296.6064" y2="296.6064"/><ellipse cx="567.7083" cy="342.1346" fill="#84BE84" rx="3.125" ry="3.125" style="stroke:#038048;stroke-width:1.0416666666666667;"/><text fill="#D1D5DB" font-family="Verdana" font-size="11.4583" lengthAdjust="spacing" textLength="61.4583" x="581.25" y="344.5389">getName()</text><ellipse cx="567.7083" cy="365.8895" fill="#84BE84" rx="3.125" ry="3.125" style="stroke:#038048;stroke-width:1.0416666666666667;"/><text fill="#D1D5DB" font-family="Verdana" font-size="11.4583" lengthAdjust="spacing" textLength="76.0417" x="581.25" y="368.2938">getAddress()</text><line style="stroke:#0972D3;stroke-width:1.0416666666666667;stroke-dasharray:1.0,2.0;" x1="557.2917" x2="570.3125" y1="316.8172" y2="316.8172"/><text fill="#D1D5DB" font-family="Verdana" font-size="11.4583" lengthAdjust="spacing" textLength="82.2917" x="575.5208" y="320.2632">Simple Getter</text><line style="stroke:#0972D3;stroke-width:1.0416666666666667;stroke-dasharray:1.0,2.0;" x1="663.0208" x2="676.0417" y1="316.8172" y2="316.8172"/><ellipse cx="567.7083" cy="417.5659" fill="#84BE84" rx="3.125" ry="3.125" style="stroke:#038048;stroke-width:1.0416666666666667;"/><text fill="#D1D5DB" font-family="Verdana" font-size="11.4583" lengthAdjust="spacing" textLength="61.4583" x="581.25" y="419.9702">setName()</text><line style="stroke:#0972D3;stroke-width:1.0416666666666667;stroke-dasharray:1.0,2.0;" x1="557.2917" x2="574.4792" y1="392.2485" y2="392.2485"/><text fill="#D1D5DB" font-family="Verdana" font-size="11.4583" lengthAdjust="spacing" textLength="73.9583" x="579.6875" y="395.6945">Some setter</text><line style="stroke:#0972D3;stroke-width:1.0416666666666667;stroke-dasharray:1.0,2.0;" x1="658.8542" x2="676.0417" y1="392.2485" y2="392.2485"/><text fill="#D1D5DB" font-family="Verdana" font-size="11.4583" lengthAdjust="spacing" textLength="40.625" x="567.7083" y="471.6466">int age</text><line style="stroke:#0972D3;stroke-width:1.0416666666666667;" x1="557.2917" x2="576.0417" y1="443.925" y2="443.925"/><text fill="#D1D5DB" font-family="Verdana" font-size="11.4583" lengthAdjust="spacing" textLength="70.8333" x="581.25" y="447.3709">private data</text><line style="stroke:#0972D3;stroke-width:1.0416666666666667;" x1="657.2917" x2="676.0417" y1="443.925" y2="443.925"/><text fill="#D1D5DB" font-family="Verdana" font-size="11.4583" lengthAdjust="spacing" textLength="97.9167" x="567.7083" y="523.3231">String password</text><line style="stroke:#0972D3;stroke-width:1.0416666666666667;" x1="557.2917" x2="582.2917" y1="495.6014" y2="495.6014"/><text fill="#D1D5DB" font-family="Verdana" font-size="11.4583" lengthAdjust="spacing" textLength="58.3333" x="587.5" y="499.0473">encrypted</text><line style="stroke:#0972D3;stroke-width:1.0416666666666667;" x1="651.0417" x2="676.0417" y1="495.6014" y2="495.6014"/></g><!--class Foo--><g id="elem_Foo"><rect codeLine="54" fill="url(#gretaa0o33ohf0)" height="66.2598" id="Foo" rx="4.1667" ry="4.1667" style="stroke:#0972D3;stroke-width:1.0416666666666667;" width="196.875" x="734.8958" y="52.6042"/><rect fill="url(#gretaa0o33ohf0)" height="34.1715" rx="4.1667" ry="4.1667" style="stroke:url(#gretaa0o33ohf0);stroke-width:1.0416666666666667;" width="196.875" x="734.8958" y="52.6042"/><rect fill="url(#gretaa0o33ohf0)" height="4.1667" style="stroke:url(#gretaa0o33ohf0);stroke-width:1.0416666666666667;" width="196.875" x="734.8958" y="82.609"/><rect codeLine="54" fill="none" height="66.2598" id="Foo" rx="4.1667" ry="4.1667" style="stroke:#0972D3;stroke-width:1.0416666666666667;" width="196.875" x="734.8958" y="52.6042"/><ellipse cx="749.4792" cy="69.6899" fill="#ADD1B2" rx="10.4167" ry="10.4167" style="stroke:#181818;stroke-width:1.0416666666666667;"/><path d="M751.3835,74.117 Q750.9603,74.3286 750.4883,74.4425 Q750.0163,74.5565 749.5117,74.5565 Q747.6563,74.5565 746.6797,73.3521 Q745.7194,72.1313 745.7194,69.8364 Q745.7194,67.5252 746.6797,66.3208 Q747.6563,65.1001 749.5117,65.1001 Q750.0163,65.1001 750.4883,65.214 Q750.9766,65.3117 751.3835,65.5396 L751.3835,67.5415 Q750.9277,67.1183 750.4883,66.923 Q750.0488,66.7114 749.5931,66.7114 Q748.6003,66.7114 748.0957,67.509 Q747.5911,68.2902 747.5911,69.8364 Q747.5911,71.3664 748.0957,72.1476 Q748.6003,72.9289 749.5931,72.9289 Q750.0488,72.9289 750.4883,72.7336 Q750.9277,72.5382 751.3835,72.1151 L751.3835,74.117 Z " fill="#000000"/><text fill="#D1D5DB" font-family="Verdana" font-size="11.4583" lengthAdjust="spacing" textLength="20.8333" x="768.2292" y="73.6567">Foo</text><rect fill="none" height="27.0508" style="stroke:#0972D3;stroke-width:1.0416666666666667;stroke-dasharray:2.0,2.0;" width="132.2917" x="802.6042" y="49.4792"/><text fill="#000716" font-family="Verdana" font-size="12.5" font-style="italic" lengthAdjust="spacing" textLength="119.7917" x="808.8542" y="67.3319">? extends Element</text><line style="stroke:#0972D3;stroke-width:1.0416666666666667;" x1="735.9375" x2="930.7292" y1="86.7757" y2="86.7757"/><text fill="#D1D5DB" font-family="Verdana" font-size="11.4583" lengthAdjust="spacing" textLength="54.1667" x="746.3542" y="106.7866">int si ze()</text></g><polygon fill="none" points="287.7172,103.4666,284.1184,122.9004,296.4984,121.173,287.7172,103.4666" style="stroke:#A4AAB0;stroke-width:1.0416666666666667;"/><path d="M290.3084,122.0367 C297.4589,173.2816 316.6504,310.8211 323.7663,361.8184 " fill="none" style="stroke:#A4AAB0;stroke-width:2.0833333333333335;"/><text fill="#000716" font-family="Verdana" font-size="12.5" lengthAdjust="spacing" textLength="73.9583" x="307.2917" y="195.9778">AList to List</text><polygon fill="none" points="101.9452,103.4666,94.3729,121.7227,106.841,122.6149,101.9452,103.4666" style="stroke:#A4AAB0;stroke-width:1.0416666666666667;"/><path d="M100.607,122.1688 C96.9401,173.4137 87.1077,310.8211 83.4585,361.8184 " fill="none" style="stroke:#A4AAB0;stroke-width:2.0833333333333335;"/><text fill="#000716" font-family="Verdana" font-size="12.5" lengthAdjust="spacing" textLength="76.0417" x="103.125" y="195.9778">AColl to Coll</text><text fill="#000716" font-family="Verdana" font-size="12.5" lengthAdjust="spacing" textLength="34.375" x="42.8335" y="353.6295">many</text><text fill="#000716" font-family="Verdana" font-size="12.5" lengthAdjust="spacing" textLength="34.375" x="61.3202" y="121.3194">many</text><polygon fill="none" points="152.937,85.9375,171.687,92.1875,171.687,79.6875,152.937,85.9375" style="stroke:#A4AAB0;stroke-width:1.0416666666666667;"/><path d="M171.687,85.9375 C204.1553,85.9375 226.7515,85.9375 254.545,85.9375 " fill="none" style="stroke:#A4AAB0;stroke-width:2.0833333333333335;"/><text fill="#000716" font-family="Verdana" font-size="12.5" lengthAdjust="spacing" textLength="66.6667" x="170.3125" y="74.6236">List to Coll</text><polygon fill="none" points="156.4175,379.1667,175.1675,385.4167,175.1675,372.9167,156.4175,379.1667" style="stroke:#A4AAB0;stroke-width:1.0416666666666667;"/><path d="M175.1675,379.1667 C211.8642,379.1667 236.6712,379.1667 270.4582,379.1667 " fill="none" style="stroke:#A4AAB0;stroke-width:2.0833333333333335;"/><text fill="#000716" font-family="Verdana" font-size="12.5" lengthAdjust="spacing" textLength="83.3333" x="171.875" y="367.8528">AList to AColl</text><polygon fill="none" points="324.0774,396.7719,315.6628,414.6554,328.0758,416.1275,324.0774,396.7719" style="stroke:#A4AAB0;stroke-width:1.0416666666666667;"/><path d="M321.8693,415.3915 C316.2242,462.9933 302.0061,582.8867 293.2129,657.0348 " fill="none" style="stroke:#A4AAB0;stroke-width:2.0833333333333335;"/><text fill="#000716" font-family="Verdana" font-size="12.5" lengthAdjust="spacing" textLength="87.5" x="325.5208" y="570.9778">ArList to AList</text><path d="M310.4167,588.5091 L310.4167,629.1341 A4.1667,4.1667 0 0 0 314.5833,633.3008 L423.9583,633.3008 A4.1667,4.1667 0 0 0 428.125,629.1341 L428.125,594.7591 L417.7083,584.3424 L314.5833,584.3424 A4.1667,4.1667 0 0 0 310.4167,588.5091 " fill="#0972D3" style="stroke:#0972D3;stroke-width:1.0416666666666667;"/><path d="M417.7083,584.3424 L417.7083,592.6758 A2.0833,2.0833 0 0 0 419.7917,594.7591 L428.125,594.7591 L417.7083,584.3424 " fill="#0972D3" style="stroke:#0972D3;stroke-width:1.0416666666666667;"/><text fill="#FFFFFF" font-family="Verdana" font-size="12.5" lengthAdjust="spacing" textLength="85.4167" x="321.875" y="606.3619">this is a note</text><text fill="#FFFFFF" font-family="Verdana" font-size="12.5" lengthAdjust="spacing" textLength="42.7083" x="321.875" y="620.9127">on link</text><polygon fill="#A4AAB0" points="361.4827,706.25,370.8577,710.4167,366.6911,706.25,370.8577,702.0833,361.4827,706.25" style="stroke:#A4AAB0;stroke-width:1.0416666666666667;"/><ellipse cx="383.7274" cy="706.25" fill="none" rx="8.3333" ry="8.3333" style="stroke:#A4AAB0;stroke-width:1.0416666666666667;"/><line style="stroke:#A4AAB0;stroke-width:1.0416666666666667;" x1="375.394" x2="392.0607" y1="706.25" y2="706.25"/><line style="stroke:#A4AAB0;stroke-width:1.0416666666666667;" x1="383.7274" x2="383.7274" y1="697.9167" y2="714.5833"/><path d="M367.7327,706.25 C377.815,706.25 365.2652,706.25 375.394,706.25 " fill="none" style="stroke:#A4AAB0;stroke-width:2.0833333333333335;"/><polygon fill="#A4AAB0" points="82.8226,396.7719,78.9583,406.2756,82.9894,401.9776,87.2874,406.0087,82.8226,396.7719" style="stroke:#A4AAB0;stroke-width:1.0416666666666667;"/><rect fill="none" height="10.4167" style="stroke:#A4AAB0;stroke-width:1.5625;" width="10.4167" x="86.9577" y="683.08"/><path d="M83.0228,403.0187 C84.8055,458.6405 90.1996,626.9344 91.9992,683.0827 " fill="none" style="stroke:#A4AAB0;stroke-width:2.0833333333333335;"/><polygon fill="#A4AAB0" points="213.3888,706.25,204.0138,702.0833,208.1805,706.25,204.0138,710.4167,213.3888,706.25" style="stroke:#A4AAB0;stroke-width:1.0416666666666667;"/><path d="M179.2812,706.25 C190.6614,706.25 195.9913,706.25 207.1388,706.25 " fill="none" style="stroke:#A4AAB0;stroke-width:2.0833333333333335;"/><polygon fill="#A4AAB0" points="833.3333,119.5298,829.1667,125.7798,833.3333,132.0298,837.5,125.7798,833.3333,119.5298" style="stroke:#A4AAB0;stroke-width:1.0416666666666667;"/><path d="M833.3333,132.0298 C833.3333,194.2034 833.3333,315.3006 833.3333,361.7827 " fill="none" style="stroke:#A4AAB0;stroke-width:2.0833333333333335;"/><path d="M833.3333,396.7719 C833.3333,454.334 833.3333,644.8315 833.3333,693.7026 " fill="none" style="stroke:#A4AAB0;stroke-width:2.0833333333333335;"/></g></svg>