<?xml version="1.0" encoding="UTF-8" standalone="no"?><svg xmlns="http://www.w3.org/2000/svg" xmlns:xlink="http://www.w3.org/1999/xlink" contentScriptType="application/ecmascript" contentStyleType="text/css" height="326.0417px" preserveAspectRatio="none" style="width:480px;height:326px;background:#00000000;" version="1.1" viewBox="0 0 480 326" width="480.2083px" zoomAndPan="magnify"><defs><linearGradient id="g1mupf39dtic340" x1="50%" x2="50%" y1="0%" y2="100%"><stop offset="0%" stop-color="#FFFFFF"/><stop offset="100%" stop-color="#EEEEEE"/></linearGradient><linearGradient id="g1mupf39dtic341" x1="50%" x2="50%" y1="0%" y2="100%"><stop offset="0%" stop-color="#F18E3E"/><stop offset="100%" stop-color="#EC7211"/></linearGradient></defs><g><rect fill="url(#g1mupf39dtic340)" height="45.0846" rx="4.1667" ry="4.1667" style="stroke:#EEEEEE;stroke-width:1.0416666666666667;" width="221.875" x="122.1354" y="2.0833"/><text fill="#EC7211" font-family="Verdana" font-size="20.8333" lengthAdjust="spacing" textLength="194.7917" x="135.6771" y="31.838">aws-orange theme</text><!--MD5=[f7e826e1488aa6662a4b5ddfe29b6b3b]
class abstract--><rect codeLine="6" fill="url(#g1mupf39dtic341)" height="52.0508" id="abstract" rx="4.1667" ry="4.1667" style="stroke:#EC7211;stroke-width:1.0416666666666667;" width="95.8333" x="13.5417" y="63.4583"/><rect fill="url(#g1mupf39dtic341)" height="35.3841" rx="4.1667" ry="4.1667" style="stroke:url(#g1mupf39dtic341);stroke-width:1.0416666666666667;" width="95.8333" x="13.5417" y="63.4583"/><rect fill="url(#g1mupf39dtic341)" height="4.1667" style="stroke:url(#g1mupf39dtic341);stroke-width:1.0416666666666667;" width="95.8333" x="13.5417" y="94.6757"/><rect codeLine="6" fill="none" height="52.0508" id="abstract" rx="4.1667" ry="4.1667" style="stroke:#EC7211;stroke-width:1.0416666666666667;" width="95.8333" x="13.5417" y="63.4583"/><ellipse cx="28.125" cy="81.1503" fill="#239B02" rx="10.4167" ry="10.4167" style="stroke:#176702;stroke-width:1.0416666666666667;"/><path d="M27.7181,78.1067 L26.8717,81.8339 L28.5807,81.8339 L27.7181,78.1067 Z M26.6276,76.4628 L28.8249,76.4628 L31.2826,85.5774 L29.4759,85.5774 L28.9225,83.3313 L26.5137,83.3313 L25.9603,85.5774 L24.1536,85.5774 L26.6276,76.4628 Z " fill="#000000"/><text fill="#FFFFFF" font-family="Verdana" font-size="12.5" font-style="italic" lengthAdjust="spacing" textLength="54.1667" x="46.875" y="85.4777">abstract</text><line style="stroke:#EC7211;stroke-width:1.0416666666666667;" x1="14.5833" x2="108.3333" y1="98.8424" y2="98.8424"/><line style="stroke:#EC7211;stroke-width:1.0416666666666667;" x1="14.5833" x2="108.3333" y1="107.1757" y2="107.1757"/><!--MD5=[17df400e90568e28eeaed93acf178394]
class abstract class--><rect codeLine="7" fill="url(#g1mupf39dtic341)" height="52.0508" id="abstract class" rx="4.1667" ry="4.1667" style="stroke:#EC7211;stroke-width:1.0416666666666667;" width="131.25" x="140.625" y="63.4583"/><rect fill="url(#g1mupf39dtic341)" height="35.3841" rx="4.1667" ry="4.1667" style="stroke:url(#g1mupf39dtic341);stroke-width:1.0416666666666667;" width="131.25" x="140.625" y="63.4583"/><rect fill="url(#g1mupf39dtic341)" height="4.1667" style="stroke:url(#g1mupf39dtic341);stroke-width:1.0416666666666667;" width="131.25" x="140.625" y="94.6757"/><rect codeLine="7" fill="none" height="52.0508" id="abstract class" rx="4.1667" ry="4.1667" style="stroke:#EC7211;stroke-width:1.0416666666666667;" width="131.25" x="140.625" y="63.4583"/><ellipse cx="155.2083" cy="81.1503" fill="#239B02" rx="10.4167" ry="10.4167" style="stroke:#176702;stroke-width:1.0416666666666667;"/><path d="M154.8014,78.1067 L153.9551,81.8339 L155.6641,81.8339 L154.8014,78.1067 Z M153.7109,76.4628 L155.9082,76.4628 L158.3659,85.5774 L156.5592,85.5774 L156.0059,83.3313 L153.597,83.3313 L153.0436,85.5774 L151.237,85.5774 L153.7109,76.4628 Z " fill="#000000"/><text fill="#FFFFFF" font-family="Verdana" font-size="12.5" font-style="italic" lengthAdjust="spacing" textLength="89.5833" x="173.9583" y="85.4777">abstract class</text><line style="stroke:#EC7211;stroke-width:1.0416666666666667;" x1="141.6667" x2="270.8333" y1="98.8424" y2="98.8424"/><line style="stroke:#EC7211;stroke-width:1.0416666666666667;" x1="141.6667" x2="270.8333" y1="107.1757" y2="107.1757"/><!--MD5=[7cb74e68c9f11cf3f5cc35e0143045f8]
class annotation--><rect codeLine="8" fill="url(#g1mupf39dtic341)" height="52.0508" id="annotation" rx="4.1667" ry="4.1667" style="stroke:#EC7211;stroke-width:1.0416666666666667;" width="113.5417" x="302.6042" y="63.4583"/><rect fill="url(#g1mupf39dtic341)" height="35.3841" rx="4.1667" ry="4.1667" style="stroke:url(#g1mupf39dtic341);stroke-width:1.0416666666666667;" width="113.5417" x="302.6042" y="63.4583"/><rect fill="url(#g1mupf39dtic341)" height="4.1667" style="stroke:url(#g1mupf39dtic341);stroke-width:1.0416666666666667;" width="113.5417" x="302.6042" y="94.6757"/><rect codeLine="8" fill="none" height="52.0508" id="annotation" rx="4.1667" ry="4.1667" style="stroke:#EC7211;stroke-width:1.0416666666666667;" width="113.5417" x="302.6042" y="63.4583"/><ellipse cx="317.1875" cy="81.1503" fill="#008AE0" rx="10.4167" ry="10.4167" style="stroke:#005C96;stroke-width:1.0416666666666667;"/><path d="M318.4408,80.955 Q318.4408,80.2551 318.1315,79.8645 Q317.8223,79.4739 317.2689,79.4739 Q316.7318,79.4739 316.4225,79.8645 Q316.1133,80.2551 316.1133,80.955 Q316.1133,81.6386 316.4225,82.0292 Q316.7318,82.4198 317.2689,82.4198 Q317.8223,82.4198 318.1315,82.0292 Q318.4408,81.6386 318.4408,80.955 Z M319.5801,83.4452 L318.3757,83.4452 L318.3757,82.9569 Q318.1478,83.2662 317.8223,83.429 Q317.513,83.5754 317.0736,83.5754 Q316.0807,83.5754 315.4622,82.8593 Q314.8438,82.1269 314.8438,80.955 Q314.8438,79.7668 315.446,79.0507 Q316.0645,78.3346 317.0736,78.3346 Q317.513,78.3346 317.8385,78.481 Q318.1641,78.6275 318.3757,78.9205 L318.3757,78.6764 Q318.3757,77.8463 317.9199,77.3905 Q317.4642,76.9348 316.6341,76.9348 Q315.3646,76.9348 314.5508,78.0579 Q313.7533,79.1646 313.7533,80.955 Q313.7533,82.8267 314.681,83.9498 Q315.6087,85.0566 317.1549,85.0566 Q317.6432,85.0566 318.099,84.9101 Q318.5547,84.7636 318.9779,84.4706 L319.5313,85.5448 Q319.043,85.8866 318.457,86.0494 Q317.8711,86.2284 317.2201,86.2284 Q315.0716,86.2284 313.8021,84.7961 Q312.5326,83.3801 312.5326,80.955 Q312.5326,78.595 313.6719,77.179 Q314.8275,75.7629 316.6992,75.7629 Q318.0339,75.7629 318.7988,76.5605 Q319.5801,77.358 319.5801,78.7577 L319.5801,83.4452 Z " fill="#000000"/><text fill="#FFFFFF" font-family="Verdana" font-size="12.5" lengthAdjust="spacing" textLength="71.875" x="335.9375" y="85.4777">annotation</text><line style="stroke:#EC7211;stroke-width:1.0416666666666667;" x1="303.6458" x2="415.1042" y1="98.8424" y2="98.8424"/><line style="stroke:#EC7211;stroke-width:1.0416666666666667;" x1="303.6458" x2="415.1042" y1="107.1757" y2="107.1757"/><!--MD5=[da456bc05ddb284180092693c9c3b3b1]
entity circle--><ellipse cx="456.25" cy="86.3749" fill="#A7280E" rx="8.3333" ry="8.3333" style="stroke:#D13212;stroke-width:1.5625;"/><text fill="#4E5D6C" font-family="Verdana" font-size="12.5" lengthAdjust="spacing" textLength="34.375" x="439.0625" y="120.8944">circle</text><!--MD5=[87adb442a9baea16d5e9c4faa47d2afb]
entity circle_short_form--><ellipse cx="61.4583" cy="188.4583" fill="#A7280E" rx="8.3333" ry="8.3333" style="stroke:#D13212;stroke-width:1.5625;"/><text fill="#4E5D6C" font-family="Verdana" font-size="12.5" lengthAdjust="spacing" textLength="110.4167" x="6.25" y="222.9777">circle_short_form</text><!--MD5=[c4c892d05414254cdeba8adc63897f88]
class class--><rect codeLine="11" fill="url(#g1mupf39dtic341)" height="52.0508" id="class" rx="4.1667" ry="4.1667" style="stroke:#EC7211;stroke-width:1.0416666666666667;" width="75" x="102.0833" y="165.5416"/><rect fill="url(#g1mupf39dtic341)" height="35.3841" rx="4.1667" ry="4.1667" style="stroke:url(#g1mupf39dtic341);stroke-width:1.0416666666666667;" width="75" x="102.0833" y="165.5416"/><rect fill="url(#g1mupf39dtic341)" height="4.1667" style="stroke:url(#g1mupf39dtic341);stroke-width:1.0416666666666667;" width="75" x="102.0833" y="196.759"/><rect codeLine="11" fill="none" height="52.0508" id="class" rx="4.1667" ry="4.1667" style="stroke:#EC7211;stroke-width:1.0416666666666667;" width="75" x="102.0833" y="165.5416"/><ellipse cx="116.6667" cy="183.2336" fill="#FFFFFF" rx="10.4167" ry="10.4167" style="stroke:#BEBEBE;stroke-width:1.0416666666666667;"/><path d="M118.571,187.6607 Q118.1478,187.8723 117.6758,187.9862 Q117.2038,188.1002 116.6992,188.1002 Q114.8438,188.1002 113.8672,186.8958 Q112.9069,185.675 112.9069,183.3801 Q112.9069,181.0689 113.8672,179.8645 Q114.8438,178.6438 116.6992,178.6438 Q117.2038,178.6438 117.6758,178.7577 Q118.1641,178.8554 118.571,179.0833 L118.571,181.0852 Q118.1152,180.662 117.6758,180.4667 Q117.2363,180.2551 116.7806,180.2551 Q115.7878,180.2551 115.2832,181.0527 Q114.7786,181.8339 114.7786,183.3801 Q114.7786,184.9101 115.2832,185.6913 Q115.7878,186.4726 116.7806,186.4726 Q117.2363,186.4726 117.6758,186.2773 Q118.1152,186.0819 118.571,185.6588 L118.571,187.6607 Z " fill="#000000"/><text fill="#FFFFFF" font-family="Verdana" font-size="12.5" lengthAdjust="spacing" textLength="33.3333" x="135.4167" y="187.561">class</text><line style="stroke:#EC7211;stroke-width:1.0416666666666667;" x1="103.125" x2="176.0417" y1="200.9257" y2="200.9257"/><line style="stroke:#EC7211;stroke-width:1.0416666666666667;" x1="103.125" x2="176.0417" y1="209.259" y2="209.259"/><polygon fill="#EEEEEE" points="220.8333,179.0833,233.3333,191.5833,220.8333,204.0833,208.3333,191.5833,220.8333,179.0833" style="stroke:#BEBEBE;stroke-width:1.5625;"/><polygon fill="url(#g1mupf39dtic341)" points="277.0833,179.0833,289.5833,191.5833,277.0833,204.0833,264.5833,191.5833,277.0833,179.0833" style="stroke:#EC7211;stroke-width:1.5625;"/><!--MD5=[467568f20bbf29da492dca29e9e0779e]
class entity--><rect codeLine="14" fill="url(#g1mupf39dtic341)" height="52.0508" id="entity" rx="4.1667" ry="4.1667" style="stroke:#EC7211;stroke-width:1.0416666666666667;" width="78.125" x="22.3958" y="267.6249"/><rect fill="url(#g1mupf39dtic341)" height="35.3841" rx="4.1667" ry="4.1667" style="stroke:url(#g1mupf39dtic341);stroke-width:1.0416666666666667;" width="78.125" x="22.3958" y="267.6249"/><rect fill="url(#g1mupf39dtic341)" height="4.1667" style="stroke:url(#g1mupf39dtic341);stroke-width:1.0416666666666667;" width="78.125" x="22.3958" y="298.8424"/><rect codeLine="14" fill="none" height="52.0508" id="entity" rx="4.1667" ry="4.1667" style="stroke:#EC7211;stroke-width:1.0416666666666667;" width="78.125" x="22.3958" y="267.6249"/><ellipse cx="36.9792" cy="285.317" fill="#FFFFFF" rx="10.4167" ry="10.4167" style="stroke:#BEBEBE;stroke-width:1.0416666666666667;"/><path d="M39.5182,290.0045 L33.8379,290.0045 L33.8379,280.8899 L39.5182,280.8899 L39.5182,282.4849 L35.6445,282.4849 L35.6445,284.4381 L39.1439,284.4381 L39.1439,286.0331 L35.6445,286.0331 L35.6445,288.4094 L39.5182,288.4094 L39.5182,290.0045 Z " fill="#000000"/><text fill="#FFFFFF" font-family="Verdana" font-size="12.5" lengthAdjust="spacing" textLength="36.4583" x="55.7292" y="289.6444">entity</text><line style="stroke:#EC7211;stroke-width:1.0416666666666667;" x1="23.4375" x2="99.4792" y1="303.009" y2="303.009"/><line style="stroke:#EC7211;stroke-width:1.0416666666666667;" x1="23.4375" x2="99.4792" y1="311.3424" y2="311.3424"/><!--MD5=[b1bf79d8358773e9ea7a3730761a57e9]
class enum--><rect codeLine="15" fill="url(#g1mupf39dtic341)" height="52.0508" id="enum" rx="4.1667" ry="4.1667" style="stroke:#EC7211;stroke-width:1.0416666666666667;" width="78.125" x="131.7708" y="267.6249"/><rect fill="url(#g1mupf39dtic341)" height="35.3841" rx="4.1667" ry="4.1667" style="stroke:url(#g1mupf39dtic341);stroke-width:1.0416666666666667;" width="78.125" x="131.7708" y="267.6249"/><rect fill="url(#g1mupf39dtic341)" height="4.1667" style="stroke:url(#g1mupf39dtic341);stroke-width:1.0416666666666667;" width="78.125" x="131.7708" y="298.8424"/><rect codeLine="15" fill="none" height="52.0508" id="enum" rx="4.1667" ry="4.1667" style="stroke:#EC7211;stroke-width:1.0416666666666667;" width="78.125" x="131.7708" y="267.6249"/><ellipse cx="146.3542" cy="285.317" fill="#F18E3E" rx="10.4167" ry="10.4167" style="stroke:#BD5B0E;stroke-width:1.0416666666666667;"/><path d="M148.8932,290.0045 L143.2129,290.0045 L143.2129,280.8899 L148.8932,280.8899 L148.8932,282.4849 L145.0195,282.4849 L145.0195,284.4381 L148.5189,284.4381 L148.5189,286.0331 L145.0195,286.0331 L145.0195,288.4094 L148.8932,288.4094 L148.8932,290.0045 Z " fill="#000000"/><text fill="#FFFFFF" font-family="Verdana" font-size="12.5" lengthAdjust="spacing" textLength="36.4583" x="165.1042" y="289.6444">enum</text><line style="stroke:#EC7211;stroke-width:1.0416666666666667;" x1="132.8125" x2="208.8542" y1="303.009" y2="303.009"/><line style="stroke:#EC7211;stroke-width:1.0416666666666667;" x1="132.8125" x2="208.8542" y1="311.3424" y2="311.3424"/><!--MD5=[d9847530b5dea828dbcbb50914b76f30]
class interface--><rect codeLine="16" fill="url(#g1mupf39dtic341)" height="52.0508" id="interface" rx="4.1667" ry="4.1667" style="stroke:#EC7211;stroke-width:1.0416666666666667;" width="100" x="240.625" y="267.6249"/><rect fill="url(#g1mupf39dtic341)" height="35.3841" rx="4.1667" ry="4.1667" style="stroke:url(#g1mupf39dtic341);stroke-width:1.0416666666666667;" width="100" x="240.625" y="267.6249"/><rect fill="url(#g1mupf39dtic341)" height="4.1667" style="stroke:url(#g1mupf39dtic341);stroke-width:1.0416666666666667;" width="100" x="240.625" y="298.8424"/><rect codeLine="16" fill="none" height="52.0508" id="interface" rx="4.1667" ry="4.1667" style="stroke:#EC7211;stroke-width:1.0416666666666667;" width="100" x="240.625" y="267.6249"/><ellipse cx="255.2083" cy="285.317" fill="#EC4624" rx="10.4167" ry="10.4167" style="stroke:#A7280E;stroke-width:1.0416666666666667;"/><path d="M252.0996,282.4849 L252.0996,280.8899 L257.5195,280.8899 L257.5195,282.4849 L255.7129,282.4849 L255.7129,288.4094 L257.5195,288.4094 L257.5195,290.0045 L252.0996,290.0045 L252.0996,288.4094 L253.9063,288.4094 L253.9063,282.4849 L252.0996,282.4849 Z " fill="#000000"/><text fill="#FFFFFF" font-family="Verdana" font-size="12.5" font-style="italic" lengthAdjust="spacing" textLength="58.3333" x="273.9583" y="289.6444">interface</text><line style="stroke:#EC7211;stroke-width:1.0416666666666667;" x1="241.6667" x2="339.5833" y1="303.009" y2="303.009"/><line style="stroke:#EC7211;stroke-width:1.0416666666666667;" x1="241.6667" x2="339.5833" y1="311.3424" y2="311.3424"/><!--MD5=[823d98f333cecb5912d561ce9fae04d0]
@startuml
!pragma layout smetana
!theme aws-orange
title aws-orange theme
abstract        abstract
abstract class  "abstract class"
annotation      annotation
circle          circle
()              circle_short_form
class           class
diamond         diamond
<>              diamond_short_form
entity          entity
enum            enum
interface       interface
@enduml

@startuml
!pragma layout smetana
skinparam BackgroundColor transparent
skinparam useBetaStyle false
    !assume transparent light
skinparam defaultFontName       "Verdana"
skinparam defaultFontSize       12
skinparam dpi                   100
skinparam shadowing             false
skinparam roundcorner           8
skinparam ParticipantPadding    40
skinparam BoxPadding            40
skinparam Padding               5
skinparam ArrowColor            #4E5D6C
skinparam stereotype {
    CBackgroundColor ffffff
    CBorderColor #BEBEBE
    ABackgroundColor #239B02
    ABorderColor #176702
    IBackgroundColor #EC4624
    IBorderColor #A7280E
    EBackgroundColor #F18E3E
    EBorderColor #BD5B0E
    NBackgroundColor #008AE0
    NBorderColor #005C96
}
skinparam title {
	FontSize	    	         20
	BorderRoundCorner            8
	BorderThickness 	         1
	BackgroundColor  ffffff-#eeeeee
	FontColor #EC7211
	BorderColor #eeeeee
}

skinparam legend {
    		FontColor #4E5D6C
		BorderColor #BEBEBE
		BackgroundColor ffffff-#eeeeee
    BackgroundColor transparent
}

skinparam swimlane {
	BorderColor #0073bb
	BorderThickness 2
	TitleBackgroundColor  ffffff-#eeeeee
	TitleFontColor #EC7211
}


skinparam activity {
			FontColor $PRIMARY_TEXT
		BorderColor #EC7211
		BackgroundColor #F18E3E-#EC7211
	BarColor #1D8102
	StartColor #0073bb
	EndColor #0073bb
	DiamondBackgroundColor #eeeeee
  	DiamondBorderColor #BEBEBE
  	DiamondFontColor #4E5D6C
}

skinparam participant {
			FontColor $PRIMARY_TEXT
		BorderColor #EC7211
		BackgroundColor #F18E3E-#EC7211
	ParticipantBorderThickness 2
}

skinparam actor {
			FontColor $PRIMARY_TEXT
		BorderColor #EC7211
		BackgroundColor #F18E3E-#EC7211
	FontColor #4E5D6C
}

skinparam arrow {
	Thickness 3
	Color #EC7211
	FontColor #4E5D6C
}

skinparam sequence {
	ArrowThickness 3
	BorderColor #EC7211
	TitleFontColor #EC7211
	BackgroundColor transparent
	StartColor #EC7211
	EndColor #EC7211
	BoxBackgroundColor transparent
	BoxBorderColor #4E5D6C
	BoxFontColor #4E5D6C
	DelayFontColor #4E5D6C
	LifeLineBorderColor #abb6c2
	LifeLineBorderThickness 2
	LifeLineBackgroundColor #8191A3
	GroupBorderColor #4E5D6C
	GroupFontColor #4E5D6C
	GroupHeaderFontColor #0073bb
	GroupBackgroundColor #eeeeee
	GroupBodyBackgroundColor transparent
	GroupHeaderBackgroundColor transparent
	DividerBackgroundColor #4E5D6C
    DividerBorderColor #4E5D6C
    DividerBorderThickness 2
    DividerFontColor #abb6c2
	ReferenceBackgroundColor transparent
	ReferenceBorderColor #4E5D6C
	ReferenceFontColor #4E5D6C
	ReferenceHeaderFontColor #0073bb
	ReferenceHeaderBackgroundColor #eeeeee
	StereotypeFontColor $PRIMARY_TEXT
	StereotypeFontSize 12
}

skinparam partition {
	BorderColor #EC7211
	FontColor #EC7211
	BackgroundColor transparent
}

skinparam collections {
			FontColor $PRIMARY_TEXT
		BorderColor #EC7211
		BackgroundColor #F18E3E-#EC7211
}

skinparam control {
			FontColor $PRIMARY_TEXT
		BorderColor #EC7211
		BackgroundColor #F18E3E-#EC7211
	FontColor #4E5D6C
}

skinparam entity {
			FontColor $PRIMARY_TEXT
		BorderColor #EC7211
		BackgroundColor #F18E3E-#EC7211
	FontColor #4E5D6C
}

skinparam boundary {
			FontColor $PRIMARY_TEXT
		BorderColor #EC7211
		BackgroundColor #F18E3E-#EC7211
	FontColor #4E5D6C
}

skinparam agent {
	BackgroundColor #EC7211
	BorderColor #F18E3E
	FontColor #4E5D6C
}

skinparam note {
	BorderThickness 1
	BackgroundColor #0073bb
	BorderColor #005C96
	FontColor #FFF
}

skinparam artifact {
	BackgroundColor #4E5D6C
	BorderColor #3E4A56
	FontColor #abb6c2
}

skinparam component {
			FontColor $PRIMARY_TEXT
		BorderColor #EC7211
		BackgroundColor #F18E3E-#EC7211
}

skinparam interface {
	BackgroundColor  #A7280E
	BorderColor  #d13212
	FontColor #4E5D6C
}

skinparam storage {
	BackgroundColor #EC7211
  	BorderColor #BD5B0E
	FontColor #FFF
}

skinparam node {
	BackgroundColor  transparent
	BorderColor #abb6c2
	FontColor #abb6c2
}

skinparam cloud {
	BackgroundColor transparent
	BorderColor #4E5D6C
	FontColor #4E5D6C
}

skinparam database {
			FontColor $PRIMARY_TEXT
		BorderColor #EC7211
		BackgroundColor #F18E3E-#EC7211
	FontColor #4E5D6C
	StereotypeFontColor #4E5D6C
}

skinparam class {
			FontColor $PRIMARY_TEXT
		BorderColor #EC7211
		BackgroundColor #F18E3E-#EC7211
	FontColor $HEADER_TEXT
	HeaderBackgroundColor #F18E3E-#EC7211
	StereotypeFontColor #4E5D6C
	BorderThickness 1
	AttributeFontColor $PRIMARY_TEXT
	AttributeFontSize 11
}

skinparam object {
			FontColor $PRIMARY_TEXT
		BorderColor #EC7211
		BackgroundColor #F18E3E-#EC7211
	StereotypeFontColor #4E5D6C
	BorderThickness 1
	AttributeFontColor $PRIMARY_TEXT
	AttributeFontSize 11
}

skinparam usecase {
			FontColor $PRIMARY_TEXT
		BorderColor #EC7211
		BackgroundColor #F18E3E-#EC7211
	BorderThickness 2
	StereotypeFontColor #EC7211
}

skinparam rectangle {
	BackgroundColor transparent
	FontColor #4E5D6C
	BorderColor #4E5D6C
	BorderThickness 2
	StereotypeFontColor #EC7211
}

skinparam package {
	BackgroundColor transparent
  	BorderColor #4E5D6C
	FontColor #4E5D6C
	BorderThickness 2
}

skinparam folder {
	BackgroundColor #eeeeee
  	BorderColor #EC7211
	FontColor #EC7211
	BorderThickness 2
}

skinparam frame {
	BackgroundColor #eeeeee
  	BorderColor #0073bb
	FontColor #0073bb
	BorderThickness 2
}

skinparam state {
			FontColor $PRIMARY_TEXT
		BorderColor #EC7211
		BackgroundColor #F18E3E-#EC7211
	StartColor #0073bb
	EndColor #0073bb
	AttributeFontColor #4E5D6C
	AttributeFontSize 11
}

skinparam queue {
			FontColor $PRIMARY_TEXT
		BorderColor #EC7211
		BackgroundColor #F18E3E-#EC7211
}

skinparam card {
	BackgroundColor #0073bb
	BorderColor #005C96
	FontColor #FFF
}

skinparam file {
	BackgroundColor #eeeeee
	BorderColor #abb6c2
	FontColor #4E5D6C
}


title aws-orange theme
abstract        abstract
abstract class  "abstract class"
annotation      annotation
circle          circle
()              circle_short_form
class           class
diamond         diamond
<>              diamond_short_form
entity          entity
enum            enum
interface       interface
@enduml

PlantUML version 1.2021.12(Tue Oct 05 16:01:58 UTC 2021)
(GPL source distribution)
Java Runtime: OpenJDK Runtime Environment
JVM: OpenJDK 64-Bit Server VM
Default Encoding: UTF-8
Language: en
Country: null
--></g></svg>