<?xml version="1.0" encoding="UTF-8" standalone="no"?><svg xmlns="http://www.w3.org/2000/svg" xmlns:xlink="http://www.w3.org/1999/xlink" contentScriptType="application/ecmascript" contentStyleType="text/css" height="497.9167px" preserveAspectRatio="none" style="width:739px;height:497px;background:#00000000;" version="1.1" viewBox="0 0 739 497" width="739.5833px" zoomAndPan="magnify"><defs/><g><!--MD5=[b4fa10df80476353258f72a232547d63]
class AbstractList--><polygon points="284.375,237.7279,284.375,237.9468,294.5833,237.2963,304.7917,237.9292,315,238.1442,325.2083,236.9847,335.4167,237.6469,345.625,237.2836,355.8333,237.3284,366.0417,237.6569,376.25,237.0077,386.4583,237.7279,386.5319,237.9055,386.9638,237.7698,387.6106,238.1526,388.2835,238.5987,388.804,238.6767,389.4046,238.9483,389.4265,238.9573,389.6384,239.5333,389.95,240.1505,390.2136,240.7478,390.5688,241.3831,390.625,241.8945,390.858,241.8945,390.8609,250.3955,390.7134,258.8965,390.786,267.3975,390.8688,275.8984,390.625,284.3994,390.3936,284.3036,390.5986,285.0788,390.0417,285.5385,390.064,286.2381,389.4899,286.6907,389.4046,287.3457,389.3955,287.3237,388.9139,287.8277,388.2196,287.8182,387.6508,288.1117,387.0926,288.4306,386.4583,288.5661,386.4583,288.9997,376.25,288.562,366.0417,288.8653,355.8333,287.9698,345.625,288.8623,335.4167,289.1371,325.2083,289.0291,315,289.2046,304.7917,288.0629,294.5833,287.8867,284.375,288.5661,284.2924,288.3667,283.7779,288.3031,283.1704,288.0149,282.6978,288.0524,281.9948,287.5337,281.4287,287.3457,281.3187,287.3001,281.2579,286.7868,280.7267,286.0786,280.53,285.5089,280.6606,285.0749,280.2083,284.3994,280.3596,284.3994,280.4634,275.8984,280.0966,267.3975,280.3192,258.8965,280.4133,250.3955,280.2083,241.8945,280.0568,241.8318,280.4217,241.2925,280.7369,240.7328,281.1496,240.2134,281.1833,239.537,281.4287,238.9483,281.4902,239.0966,281.9444,238.5265,282.5172,238.2428,283.2634,238.3776,283.6905,237.742,284.375,237.7279" style="stroke:#333333;stroke-width:1.0416666666666667;fill:none;"/><polygon points="305.2659,257.3474,303.739,259.4337,301.933,262.4895,299.35,264.5489,296.6358,265.675,294.4716,265.7728,291.69,264.3643,289.0655,263.4442,287.0734,261.5761,286.0285,259.4375,285.4088,257.7346,284.8017,255.5103,283.8163,253.5963,284.5735,251.7275,285.2369,249.6803,287.7266,248.0612,289.4782,245.9605,291.6462,245.2629,294.2236,244.6622,297.5288,245.0191,299.3391,245.8729,301.4439,246.2598,304.003,248.8818,304.8951,251.6498,305.2827,253.5384,304.8437,256.6506" style="stroke:#2E2E2E;stroke-width:1.0416666666666667;fill:none;"/><path d="M294.3848,251.77 L293.5384,255.4972 L295.2474,255.4972 L294.3848,251.77 Z M293.2943,250.1261 L295.4915,250.1261 L297.9492,259.2407 L296.1426,259.2407 L295.5892,256.9946 L293.1803,256.9946 L292.627,259.2407 L290.8203,259.2407 L293.2943,250.1261 Z " fill="#2E2E2E"/><text fill="#555555" font-family="&quot;Segoe Print&quot;" font-size="11.4583" font-style="italic" lengthAdjust="spacing" textLength="68.75" x="313.5417" y="258.7804">AbstractList</text><path d="M281.25,271.8994 L281.25,272.1913 L292.0833,271.324 L302.9167,272.1679 L313.75,272.4545 L324.5833,270.9086 L335.4167,271.7915 L346.25,271.3071 L357.0833,271.3668 L367.9167,271.8048 L378.75,270.9392 L389.5833,271.8994 " style="stroke:#333333;stroke-width:1.0416666666666667;fill:none;"/><path d="M281.25,280.2327 L281.25,280.5247 L292.0833,279.6573 L302.9167,280.5012 L313.75,280.7879 L324.5833,279.2419 L335.4167,280.1248 L346.25,279.6404 L357.0833,279.7001 L367.9167,280.1381 L378.75,279.2725 L389.5833,280.2327 " style="stroke:#333333;stroke-width:1.0416666666666667;fill:none;"/><!--MD5=[8e34b16d8d8f96f4a11290cd523ed859]
class AbstractCollection--><polygon points="21.875,237.7279,21.875,237.9468,32.6122,237.2963,43.3494,237.9292,54.0865,238.1442,64.8237,236.9847,75.5609,237.6469,86.2981,237.2836,97.0353,237.3284,107.7724,237.6569,118.5096,237.0077,129.2468,238.3046,139.984,237.0713,150.7212,237.5219,161.4583,237.7279,161.5157,237.8664,162.0362,237.9444,162.6459,238.2379,163.2219,238.4498,163.8391,238.7614,164.4046,238.9483,164.4813,238.98,164.8366,239.6153,165.108,240.2159,165.3547,240.8063,165.4626,241.3391,165.625,241.8945,165.786,241.8945,165.8688,250.3955,165.3746,258.8965,165.8606,267.3975,165.522,275.8984,165.625,284.3994,165.7962,284.4703,165.2221,284.9229,165.1149,285.5688,165.1307,286.2657,164.6331,286.75,164.4046,287.3457,164.4186,287.3795,163.8604,287.6984,163.2814,287.9674,162.6363,288.0767,162.0858,288.4141,161.4583,288.5661,161.4583,287.9698,150.7212,288.8623,139.984,289.1371,129.2468,289.0291,118.5096,289.2046,107.7724,288.0629,97.0353,287.8867,86.2981,287.9188,75.5609,288.5047,64.8237,288.3614,54.0865,289.2759,43.3494,288.3841,32.6122,288.2087,21.875,288.5661,21.9053,288.6393,21.1971,288.1081,20.6275,287.9114,20.1935,288.042,19.5759,287.7295,18.9287,287.3457,19.1643,287.4433,18.5814,286.7137,18.543,286.2096,18.3859,285.6564,17.8009,284.9259,17.7083,284.3994,17.675,284.3994,17.7521,275.8984,17.9346,267.3975,17.7069,258.8965,17.8689,250.3955,17.7083,241.8945,17.5307,241.8209,17.7352,241.2153,18.358,240.7829,18.2106,240.0315,18.8479,239.6051,18.9287,238.9483,18.9562,239.0145,19.4824,238.6182,20.0602,238.3466,20.7574,238.3632,21.246,237.8759,21.875,237.7279" style="stroke:#333333;stroke-width:1.0416666666666667;fill:none;"/><polygon points="42.7659,257.3474,41.239,259.4337,39.433,262.4895,36.85,264.5489,34.1358,265.675,31.9716,265.7728,29.19,264.3643,26.5655,263.4442,24.5734,261.5761,23.5285,259.4375,22.9088,257.7346,22.3017,255.5103,21.3163,253.5963,22.0735,251.7275,22.7369,249.6803,25.2266,248.0612,26.9782,245.9605,29.1462,245.2629,31.7236,244.6622,35.0288,245.0191,36.8391,245.8729,38.9439,246.2598,41.503,248.8818,42.3951,251.6498,42.7827,253.5384,42.3437,256.6506" style="stroke:#2E2E2E;stroke-width:1.0416666666666667;fill:none;"/><path d="M31.8848,251.77 L31.0384,255.4972 L32.7474,255.4972 L31.8848,251.77 Z M30.7943,250.1261 L32.9915,250.1261 L35.4492,259.2407 L33.6426,259.2407 L33.0892,256.9946 L30.6803,256.9946 L30.127,259.2407 L28.3203,259.2407 L30.7943,250.1261 Z " fill="#2E2E2E"/><text fill="#555555" font-family="&quot;Segoe Print&quot;" font-size="11.4583" font-style="italic" lengthAdjust="spacing" textLength="106.25" x="51.0417" y="258.7804">AbstractCollection</text><path d="M18.75,271.8994 L18.75,272.1913 L29.1667,271.324 L39.5833,272.1679 L50,272.4545 L60.4167,270.9086 L70.8333,271.7915 L81.25,271.3071 L91.6667,271.3668 L102.0833,271.8048 L112.5,270.9392 L122.9167,272.6684 L133.3333,271.024 L143.75,271.6247 L154.1667,272.4993 L164.5833,271.8994 " style="stroke:#333333;stroke-width:1.0416666666666667;fill:none;"/><path d="M18.75,280.2327 L18.75,280.5247 L29.1667,279.6573 L39.5833,280.5012 L50,280.7879 L60.4167,279.2419 L70.8333,280.1248 L81.25,279.6404 L91.6667,279.7001 L102.0833,280.1381 L112.5,279.2725 L122.9167,281.0017 L133.3333,279.3574 L143.75,279.9581 L154.1667,280.8327 L164.5833,280.2327 " style="stroke:#333333;stroke-width:1.0416666666666667;fill:none;"/><!--MD5=[3d4177ac58b4411586d067f34e84928f]
class List--><polygon points="300.5208,52.3112,300.5208,52.5301,311.1458,51.8796,321.7708,52.5125,332.3958,52.7275,343.0208,51.5681,353.6458,52.3112,353.6355,52.2863,354.1784,52.4185,354.7734,52.6763,355.4045,53.0216,355.911,53.0657,356.5921,53.5316,356.7697,53.6052,356.634,54.0371,357.0168,54.6838,357.4629,55.3567,357.5409,55.8772,357.8125,56.4779,357.8362,56.4779,357.8014,64.9788,357.8745,73.4798,357.8955,81.9808,358.0159,90.4818,357.8125,98.9827,358.0278,99.0719,357.7863,99.6623,357.406,100.1951,357.229,100.8121,357.0615,101.4331,356.5921,101.929,356.4963,101.6977,356.093,102.3908,355.3742,102.3221,354.8953,102.8325,354.1693,102.7465,353.6458,103.1494,353.6458,103.0781,343.0208,103.9219,332.3958,103.0986,321.7708,103.2591,311.1458,103.5022,300.5208,103.1494,300.5761,103.2829,299.9311,102.9041,299.3805,102.7534,298.677,102.2336,298.2016,102.2643,297.5746,101.929,297.7504,102.0019,297.4731,101.3988,297.2831,100.832,296.6874,100.0971,296.389,99.4853,296.3542,98.9827,296.1384,98.9827,296.3337,90.4818,296.2859,81.9808,296.5908,73.4798,296.2935,64.9788,296.3542,56.4779,296.2441,56.4323,296.6715,55.9189,296.6284,55.2107,296.9199,54.6411,297.5387,54.2071,297.5746,53.5316,297.6324,53.6713,298.2614,53.5231,298.7103,52.9402,299.3847,52.9017,300.01,52.7447,300.5208,52.3112" style="stroke:#333333;stroke-width:1.0416666666666667;fill:none;"/><polygon points="321.4117,71.9307,319.8848,74.017,318.0788,77.0728,315.4959,79.1322,312.7816,80.2583,310.6174,80.3561,307.8359,78.9477,305.2113,78.0276,303.2193,76.1595,302.1743,74.0208,301.5546,72.3179,300.9475,70.0937,299.9621,68.1796,300.7193,66.3108,301.3828,64.2637,303.8724,62.6446,305.624,60.5438,307.792,59.8463,310.3694,59.2455,313.6746,59.6024,315.4849,60.4562,317.5897,60.8432,320.1488,63.4651,321.041,66.2331,321.4286,68.1217,320.9895,71.234" style="stroke:#2E2E2E;stroke-width:1.0416666666666667;fill:none;"/><path d="M307.8288,66.5649 L307.8288,64.9699 L313.2487,64.9699 L313.2487,66.5649 L311.4421,66.5649 L311.4421,72.4894 L313.2487,72.4894 L313.2487,74.0845 L307.8288,74.0845 L307.8288,72.4894 L309.6354,72.4894 L309.6354,66.5649 L307.8288,66.5649 Z " fill="#2E2E2E"/><text fill="#555555" font-family="&quot;Segoe Print&quot;" font-size="11.4583" font-style="italic" lengthAdjust="spacing" textLength="19.7917" x="329.6875" y="73.3637">List</text><path d="M297.3958,86.4827 L297.3958,86.7747 L307.2917,85.9073 L317.1875,86.7512 L327.0833,87.0379 L336.9792,85.4919 L346.875,86.3748 L356.7708,86.4827 " style="stroke:#333333;stroke-width:1.0416666666666667;fill:none;"/><path d="M297.3958,94.8161 L297.3958,95.108 L307.2917,94.2406 L317.1875,95.0845 L327.0833,95.3712 L336.9792,93.8253 L346.875,94.7081 L356.7708,94.8161 " style="stroke:#333333;stroke-width:1.0416666666666667;fill:none;"/><!--MD5=[c160724f8e3bb89ca8141a12554ac2e3]
class Collection--><polygon points="86.9792,52.3112,86.9792,52.5301,97.0486,51.8796,107.1181,52.5125,117.1875,52.7275,127.2569,51.5681,137.3264,52.2302,147.3958,51.8669,157.4653,51.9117,167.5347,52.2402,177.6042,52.3112,177.5123,52.0894,178.267,52.7329,178.6989,52.5972,179.3457,52.98,180.0186,53.4261,180.5504,53.5316,180.5229,53.5202,180.8164,54.1299,181.0284,54.7059,181.3399,55.3231,181.6035,55.9204,181.7708,56.4779,181.9742,56.4779,182.0038,64.9788,182.0067,73.4798,181.8592,81.9808,181.9318,90.4818,181.7708,98.9827,181.9961,99.0761,181.2954,99.4762,181.5003,100.2514,180.9435,100.7111,180.9658,101.4107,180.5504,101.929,180.4847,101.7702,179.9521,102.1511,179.4705,102.6551,178.7762,102.6456,178.2074,102.9391,177.6042,103.1494,177.6042,103.5022,167.5347,103.583,157.4653,103.1453,147.3958,103.4486,137.3264,102.5531,127.2569,103.4457,117.1875,103.7205,107.1181,103.6125,97.0486,103.788,86.9792,103.1494,86.915,102.9944,86.3033,102.6961,85.7181,102.4619,85.2036,102.3983,84.596,102.1101,84.0329,101.929,84.2515,102.0196,83.7328,101.3166,83.4347,100.7049,83.3739,100.1916,82.8427,99.4834,82.8125,98.9827,82.6322,98.9827,83.0378,90.4818,82.9638,81.9808,83.0675,73.4798,82.7008,64.9788,82.8125,56.4779,82.9149,56.5203,83.246,55.9671,83.1491,55.2366,83.514,54.6974,83.8292,54.1376,84.0329,53.5316,84.1195,53.7407,84.6216,53.2862,85.2729,53.1918,85.7271,52.6217,86.2999,52.338,86.9792,52.3112" style="stroke:#333333;stroke-width:1.0416666666666667;fill:none;"/><polygon points="107.87,71.9307,106.3431,74.017,104.5371,77.0728,101.9542,79.1322,99.2399,80.2583,97.0758,80.3561,94.2942,78.9477,91.6697,78.0276,89.6776,76.1595,88.6326,74.0208,88.0129,72.3179,87.4058,70.0937,86.4204,68.1796,87.1777,66.3108,87.8411,64.2637,90.3308,62.6446,92.0824,60.5438,94.2504,59.8463,96.8278,59.2455,100.133,59.6024,101.9433,60.4562,104.048,60.8432,106.6072,63.4651,107.4993,66.2331,107.8869,68.1217,107.4479,71.234" style="stroke:#2E2E2E;stroke-width:1.0416666666666667;fill:none;"/><path d="M94.2871,66.5649 L94.2871,64.9699 L99.707,64.9699 L99.707,66.5649 L97.9004,66.5649 L97.9004,72.4894 L99.707,72.4894 L99.707,74.0845 L94.2871,74.0845 L94.2871,72.4894 L96.0938,72.4894 L96.0938,66.5649 L94.2871,66.5649 Z " fill="#2E2E2E"/><text fill="#555555" font-family="&quot;Segoe Print&quot;" font-size="11.4583" font-style="italic" lengthAdjust="spacing" textLength="57.2917" x="116.1458" y="73.3637">Collection</text><path d="M83.8542,86.4827 L83.8542,86.7747 L94.6181,85.9073 L105.3819,86.7512 L116.1458,87.0379 L126.9097,85.4919 L137.6736,86.3748 L148.4375,85.8904 L159.2014,85.9501 L169.9653,86.3881 L180.7292,86.4827 " style="stroke:#333333;stroke-width:1.0416666666666667;fill:none;"/><path d="M83.8542,94.8161 L83.8542,95.108 L94.6181,94.2406 L105.3819,95.0845 L116.1458,95.3712 L126.9097,93.8253 L137.6736,94.7081 L148.4375,94.2237 L159.2014,94.2834 L169.9653,94.7214 L180.7292,94.8161 " style="stroke:#333333;stroke-width:1.0416666666666667;fill:none;"/><!--MD5=[ab8871ed637f40707b866ba6597734bc]
class ArrayList--><polygon points="265.625,387.7279,265.625,387.9468,276.3622,387.2963,287.0994,387.9292,297.8365,388.1442,308.5737,386.9847,319.3109,387.6469,330.0481,387.2836,340.7853,387.3284,351.5224,387.6569,362.2596,387.0077,372.9968,388.3046,383.734,387.0713,394.4712,387.5219,405.2083,387.7279,405.2657,387.8664,405.7862,387.9444,406.3959,388.2379,406.9719,388.4498,407.5891,388.7614,408.1546,388.9483,408.2313,388.98,408.5866,389.6153,408.858,390.2159,409.1047,390.8063,409.2126,391.3391,409.375,391.8945,409.8579,391.8945,410.1065,401.8962,408.6238,411.8978,410.0818,421.8994,409.0661,431.901,409.9311,441.9027,408.8594,451.9043,409.3036,461.9059,410.1475,471.9076,409.375,481.9092,409.3594,481.9027,409.1647,482.5124,408.9955,483.1327,408.7763,483.7323,408.3974,484.2657,408.1546,484.8555,408.1928,484.9476,407.4893,484.9159,407.0139,485.4348,406.4597,485.7635,405.8567,485.9744,405.2083,486.0758,405.2083,486.7144,394.4712,485.5726,383.734,485.3965,372.9968,485.4286,362.2596,486.0145,351.5224,485.8711,340.7853,486.7856,330.0481,485.8939,319.3109,485.7185,308.5737,486.3136,297.8365,485.3812,287.0994,485.5351,276.3622,486.7518,265.625,486.0758,265.6829,486.2156,265.1333,486.0674,264.4037,485.4845,263.8996,485.446,263.3464,485.2889,262.6787,484.8555,262.5272,484.7927,262.4039,484.2535,262.231,483.6937,262.1556,483.1743,261.7011,482.4979,261.4583,481.9092,261.9402,481.9092,260.8815,471.9076,260.7529,461.9059,261.9829,451.9043,260.7115,441.9027,261.9885,431.901,261.6736,421.8994,261.1793,411.8978,261.0898,401.8962,261.4583,391.8945,261.6055,391.9555,261.6064,391.2655,262.1364,390.7947,262.0133,390.0533,262.6327,389.6195,262.6787,388.9483,262.7431,389.1036,263.3005,388.7828,263.8635,388.4752,264.543,388.4491,265.1173,388.1688,265.625,387.7279" style="stroke:#333333;stroke-width:1.0416666666666667;fill:none;"/><polygon points="310.8909,407.3474,309.364,409.4337,307.558,412.4895,304.975,414.5489,302.2608,415.675,300.0966,415.7728,297.315,414.3643,294.6905,413.4442,292.6984,411.5761,291.6535,409.4375,291.0338,407.7346,290.4267,405.5103,289.4413,403.5963,290.1985,401.7275,290.8619,399.6803,293.3516,398.0612,295.1032,395.9605,297.2712,395.2629,299.8486,394.6622,303.1538,395.0191,304.9641,395.8729,307.0689,396.2598,309.628,398.8818,310.5201,401.6498,310.9077,403.5384,310.4687,406.6506" style="stroke:#2E2E2E;stroke-width:1.0416666666666667;fill:none;"/><path d="M302.321,409.2407 Q301.8978,409.4523 301.4258,409.5662 Q300.9538,409.6802 300.4492,409.6802 Q298.5938,409.6802 297.6172,408.4757 Q296.6569,407.255 296.6569,404.9601 Q296.6569,402.6489 297.6172,401.4445 Q298.5938,400.2238 300.4492,400.2238 Q300.9538,400.2238 301.4258,400.3377 Q301.9141,400.4354 302.321,400.6632 L302.321,402.6652 Q301.8652,402.242 301.4258,402.0467 Q300.9863,401.8351 300.5306,401.8351 Q299.5378,401.8351 299.0332,402.6326 Q298.5286,403.4139 298.5286,404.9601 Q298.5286,406.4901 299.0332,407.2713 Q299.5378,408.0526 300.5306,408.0526 Q300.9863,408.0526 301.4258,407.8573 Q301.8652,407.6619 302.321,407.2388 L302.321,409.2407 Z " fill="#2E2E2E"/><text fill="#555555" font-family="&quot;Segoe Print&quot;" font-size="11.4583" lengthAdjust="spacing" textLength="52.0833" x="324.5833" y="408.7804">ArrayList</text><path d="M262.5,421.8994 L262.5,422.1913 L272.9167,421.324 L283.3333,422.1679 L293.75,422.4545 L304.1667,420.9086 L314.5833,421.7915 L325,421.3071 L335.4167,421.3668 L345.8333,421.8048 L356.25,420.9392 L366.6667,422.6684 L377.0833,421.024 L387.5,421.6247 L397.9167,422.4993 L408.3333,421.8994 " style="stroke:#333333;stroke-width:1.0416666666666667;fill:none;"/><text fill="#555555" font-family="&quot;Segoe Print&quot;" font-size="11.4583" lengthAdjust="spacing" textLength="125" x="272.9167" y="441.9103">Object[] elementData</text><path d="M262.5,453.9876 L262.5,454.2795 L272.9167,453.4122 L283.3333,454.2561 L293.75,454.5427 L304.1667,452.9968 L314.5833,453.8797 L325,453.3953 L335.4167,453.455 L345.8333,453.893 L356.25,453.0274 L366.6667,454.7566 L377.0833,453.1122 L387.5,453.713 L397.9167,454.5876 L408.3333,453.9876 " style="stroke:#333333;stroke-width:1.0416666666666667;fill:none;"/><text fill="#555555" font-family="&quot;Segoe Print&quot;" font-size="11.4583" lengthAdjust="spacing" textLength="31.25" x="272.9167" y="473.9985">size()</text><!--MD5=[15b68e006199004da79ea2a4d117d8e9]
class TimeUnit--><polygon points="454.1667,16.8945,454.1667,17.1135,464.8438,16.4629,475.5208,17.0959,486.1979,17.3109,496.875,16.1514,507.5521,16.8136,518.2292,16.4503,528.9063,16.4951,539.5833,16.8945,539.5743,16.8727,540.0807,16.9168,540.8354,17.5603,541.2674,17.4246,541.9141,17.8074,542.5296,18.1149,542.6682,18.1723,542.7462,18.6928,543.0397,19.3025,543.2516,19.8784,543.5632,20.4957,543.75,21.0612,543.9991,21.0612,544.3601,31.4039,544.449,41.7466,544.4576,52.0893,544.0152,62.4319,544.2329,72.7746,544.4815,83.1173,542.9988,93.46,544.4568,103.8027,543.4411,114.1454,544.3061,124.488,543.75,134.8307,543.5912,134.765,543.4839,135.4109,543.4997,136.1078,543.0021,136.592,542.8075,137.2017,542.5296,137.777,542.5746,137.8856,541.9957,138.1546,541.3506,138.2639,540.8,138.6014,540.0965,138.5697,539.5833,138.9974,539.5833,139.2936,528.9063,139.5684,518.2292,139.4605,507.5521,139.636,496.875,138.4942,486.1979,138.318,475.5208,138.3501,464.8438,138.9361,454.1667,138.9974,454.1406,138.9344,453.668,138.9719,452.9649,138.4532,452.3533,138.1551,451.84,138.0943,451.2204,137.777,451.0065,137.6884,450.8098,137.1188,450.9404,136.6847,450.6279,136.0671,450.4797,135.5176,450,134.8307,449.6648,134.8307,450.3325,124.488,450.615,114.1454,449.5079,103.8027,449.9001,93.46,450.1312,83.1173,450.6789,72.7746,449.9956,62.4319,450.4818,52.0893,449.4231,41.7466,449.2945,31.4039,450,21.0612,450.1616,21.1281,450.0141,20.3767,450.6514,19.9503,450.7985,19.3209,450.8904,18.6686,451.2204,18.1149,451.1734,18.0014,451.8706,18.018,452.3591,17.5307,453.0668,17.5726,453.504,16.9613,454.1667,16.8945" style="stroke:#333333;stroke-width:1.0416666666666667;fill:none;"/><polygon points="475.0575,36.5141,473.5306,38.6004,471.7246,41.6562,469.1417,43.7155,466.4274,44.8417,464.2633,44.9394,461.4817,43.531,458.8572,42.6109,456.8651,40.7428,455.8201,38.6041,455.2004,36.9013,454.5933,34.677,453.6079,32.763,454.3652,30.8941,455.0286,28.847,457.5183,27.2279,459.2699,25.1272,461.4379,24.4296,464.0153,23.8288,467.3205,24.1858,469.1308,25.0395,471.2355,25.4265,473.7947,28.0485,474.6868,30.8164,475.0744,32.7051,474.6354,35.8173" style="stroke:#2E2E2E;stroke-width:1.0416666666666667;fill:none;"/><path d="M467.1224,38.6678 L461.4421,38.6678 L461.4421,29.5532 L467.1224,29.5532 L467.1224,31.1483 L463.2487,31.1483 L463.2487,33.1014 L466.748,33.1014 L466.748,34.6965 L463.2487,34.6965 L463.2487,37.0728 L467.1224,37.0728 L467.1224,38.6678 Z " fill="#2E2E2E"/><text fill="#555555" font-family="&quot;Segoe Print&quot;" font-size="11.4583" lengthAdjust="spacing" textLength="52.0833" x="483.3333" y="37.9471">TimeUnit</text><path d="M451.0417,51.0661 L451.0417,51.358 L461.2269,50.4906 L471.412,51.3345 L481.5972,51.6212 L491.7824,50.0753 L501.9676,50.9581 L512.1528,50.4737 L522.338,50.5334 L532.5231,50.9714 L542.7083,51.0661 " style="stroke:#333333;stroke-width:1.0416666666666667;fill:none;"/><text fill="#555555" font-family="&quot;Segoe Print&quot;" font-size="11.4583" lengthAdjust="spacing" textLength="31.25" x="461.4583" y="71.077">DAYS</text><text fill="#555555" font-family="&quot;Segoe Print&quot;" font-size="11.4583" lengthAdjust="spacing" textLength="41.6667" x="461.4583" y="94.8318">HOURS</text><text fill="#555555" font-family="&quot;Segoe Print&quot;" font-size="11.4583" lengthAdjust="spacing" textLength="52.0833" x="461.4583" y="118.5867">MINUTES</text><path d="M451.0417,130.6641 L451.0417,130.956 L461.2269,130.0886 L471.412,130.9325 L481.5972,131.2192 L491.7824,129.6732 L501.9676,130.5561 L512.1528,130.0717 L522.338,130.1314 L532.5231,130.5694 L542.7083,130.6641 " style="stroke:#333333;stroke-width:1.0416666666666667;fill:none;"/><!--MD5=[0c8287f799745f7b534bf75518604c1e]
class SuppressWarnings--><polygon points="578.6458,52.3112,578.6458,52.5301,588.9881,51.8796,599.3304,52.5125,609.6726,52.7275,620.0149,51.5681,630.3571,52.2302,640.6994,51.8669,651.0417,51.9117,661.3839,52.2402,671.7262,51.591,682.0685,52.8879,692.4107,51.6547,702.753,52.1052,713.0952,52.7611,723.4375,52.3112,723.4261,52.2837,724.0358,52.5772,724.6118,52.7891,725.229,53.1007,725.8263,53.3642,726.3838,53.5316,726.5717,53.6094,726.8431,54.21,727.0898,54.8004,727.1977,55.3332,727.5088,55.9502,727.6042,56.4779,727.848,56.4779,727.3538,64.9788,727.8398,73.4798,727.5012,81.9808,727.7895,90.4818,727.6042,98.9827,727.4454,98.917,727.3381,99.5629,727.3539,100.2598,726.8563,100.744,726.6616,101.3538,726.3838,101.929,726.4288,102.0377,725.8498,102.3066,725.2047,102.4159,724.6542,102.7534,723.9507,102.7217,723.4375,103.1494,723.4375,103.4457,713.0952,103.7205,702.753,103.6125,692.4107,103.788,682.0685,102.6462,671.7262,102.4701,661.3839,102.5021,651.0417,103.0881,640.6994,102.9447,630.3571,103.8592,620.0149,102.9675,609.6726,102.7921,599.3304,103.3872,588.9881,102.4548,578.6458,103.1494,578.5769,102.9829,578.1428,103.1135,577.5252,102.801,576.9757,102.6528,576.2461,102.0699,575.6996,101.929,575.802,101.9714,575.6449,101.4182,575.0599,100.6877,574.9366,100.1485,574.7637,99.5887,574.4792,98.9827,574.7055,98.9827,574.4777,90.4818,574.6398,81.9808,574.2869,73.4798,574.244,64.9788,574.4792,56.4779,574.6407,56.5448,574.4933,55.7933,575.1306,55.367,575.2777,54.7376,575.3695,54.0852,575.6996,53.5316,575.6525,53.4181,576.3498,53.4347,576.8383,52.9474,577.546,52.9892,577.9831,52.378,578.6458,52.3112" style="stroke:#333333;stroke-width:1.0416666666666667;fill:none;"/><polygon points="599.5367,71.9307,598.0098,74.017,596.2038,77.0728,593.6209,79.1322,590.9066,80.2583,588.7424,80.3561,585.9609,78.9477,583.3363,78.0276,581.3443,76.1595,580.2993,74.0208,579.6796,72.3179,579.0725,70.0937,578.0871,68.1796,578.8443,66.3108,579.5078,64.2637,581.9974,62.6446,583.749,60.5438,585.917,59.8463,588.4944,59.2455,591.7996,59.6024,593.6099,60.4562,595.7147,60.8432,598.2738,63.4651,599.166,66.2331,599.5536,68.1217,599.1145,71.234" style="stroke:#2E2E2E;stroke-width:1.0416666666666667;fill:none;"/><path d="M590.3158,69.2017 Q590.3158,68.5018 590.0065,68.1112 Q589.6973,67.7205 589.1439,67.7205 Q588.6068,67.7205 588.2975,68.1112 Q587.9883,68.5018 587.9883,69.2017 Q587.9883,69.8853 588.2975,70.2759 Q588.6068,70.6665 589.1439,70.6665 Q589.6973,70.6665 590.0065,70.2759 Q590.3158,69.8853 590.3158,69.2017 Z M591.4551,71.6919 L590.2507,71.6919 L590.2507,71.2036 Q590.0228,71.5129 589.6973,71.6756 Q589.388,71.8221 588.9486,71.8221 Q587.9557,71.8221 587.3372,71.106 Q586.7188,70.3735 586.7188,69.2017 Q586.7188,68.0135 587.321,67.2974 Q587.9395,66.5812 588.9486,66.5812 Q589.388,66.5812 589.7135,66.7277 Q590.0391,66.8742 590.2507,67.1672 L590.2507,66.923 Q590.2507,66.0929 589.7949,65.6372 Q589.3392,65.1815 588.5091,65.1815 Q587.2396,65.1815 586.4258,66.3045 Q585.6283,67.4113 585.6283,69.2017 Q585.6283,71.0734 586.556,72.1965 Q587.4837,73.3032 589.0299,73.3032 Q589.5182,73.3032 589.974,73.1567 Q590.4297,73.0103 590.8529,72.7173 L591.4063,73.7915 Q590.918,74.1333 590.332,74.2961 Q589.7461,74.4751 589.0951,74.4751 Q586.9466,74.4751 585.6771,73.0428 Q584.4076,71.6268 584.4076,69.2017 Q584.4076,66.8416 585.5469,65.4256 Q586.7025,64.0096 588.5742,64.0096 Q589.9089,64.0096 590.6738,64.8071 Q591.4551,65.6047 591.4551,67.0044 L591.4551,71.6919 Z " fill="#2E2E2E"/><text fill="#555555" font-family="&quot;Segoe Print&quot;" font-size="11.4583" lengthAdjust="spacing" textLength="111.4583" x="607.8125" y="73.3637">SuppressWarnings</text><path d="M575.5208,86.4827 L575.5208,86.7747 L585.5903,85.9073 L595.6597,86.7512 L605.7292,87.0379 L615.7986,85.4919 L625.8681,86.3748 L635.9375,85.8904 L646.0069,85.9501 L656.0764,86.3881 L666.1458,85.5225 L676.2153,87.2517 L686.2847,85.6074 L696.3542,86.2081 L706.4236,87.0827 L716.4931,86.3636 L726.5625,86.4827 " style="stroke:#333333;stroke-width:1.0416666666666667;fill:none;"/><path d="M575.5208,94.8161 L575.5208,95.108 L585.5903,94.2406 L595.6597,95.0845 L605.7292,95.3712 L615.7986,93.8253 L625.8681,94.7081 L635.9375,94.2237 L646.0069,94.2834 L656.0764,94.7214 L666.1458,93.8558 L676.2153,95.585 L686.2847,93.9407 L696.3542,94.5414 L706.4236,95.416 L716.4931,94.6969 L726.5625,94.8161 " style="stroke:#333333;stroke-width:1.0416666666666667;fill:none;"/><!--MD5=[faebc81c07309c527f2fda51bf6b78ab]
class Annotation--><polygon points="413.5417,202.3112,413.5417,202.5301,423.9583,201.8796,434.375,202.5125,444.7917,202.7275,455.2083,201.5681,465.625,202.2302,476.0417,201.8669,486.4583,201.9117,496.875,202.2402,507.2917,201.591,517.7083,202.8879,528.125,201.6547,538.5417,202.1052,548.9583,202.7611,559.375,202.2218,569.7917,202.3823,580.2083,202.3112,580.2041,202.3009,580.8213,202.6125,581.4186,202.8761,582.0539,203.2313,582.6545,203.5028,583.1546,203.5316,583.3725,203.6218,583.4804,204.1547,583.7915,204.7717,584.1121,205.3927,583.8996,205.7928,584.375,206.4779,585.0818,206.4779,584.0661,216.8205,584.9311,227.1632,583.8594,237.5059,584.3036,247.8486,585.1475,258.1913,584.3242,268.534,584.4847,278.8767,584.7277,289.2193,584.8086,299.562,584.3709,309.9047,584.375,320.2474,584.4671,320.2856,583.9473,320.7606,583.9781,321.4637,583.8186,322.088,583.5413,322.6635,583.1546,323.1937,583.2361,323.3903,582.5012,323.2828,581.8894,323.4726,581.3043,323.7266,580.7898,324.1511,580.2083,324.4141,580.2083,324.2093,569.7917,325.1239,559.375,324.2321,548.9583,324.0567,538.5417,324.6518,528.125,323.7194,517.7083,323.8733,507.2917,325.0901,496.875,324.8679,486.4583,325.1792,476.0417,324.0789,465.625,324.7466,455.2083,325.0291,444.7917,323.922,434.375,324.3142,423.9583,324.5453,413.5417,324.4141,413.6283,324.6231,412.9519,324.1686,412.4246,324.0743,411.7003,323.5042,411.0947,323.2205,410.5954,323.1937,410.7569,323.2606,410.1213,322.5092,410.2705,322.0828,409.9294,321.4534,409.5331,320.8011,409.375,320.2474,409.0065,320.2474,409.8529,309.9047,409.0632,299.562,409.9915,289.2193,408.7992,278.8767,410.0182,268.534,409.8795,258.1913,409.6302,247.8486,409.4242,237.5059,410.1319,227.1632,410.0141,216.8205,409.375,206.4779,409.4293,206.5004,409.7051,205.9242,409.8214,205.282,410.3371,204.8053,410.401,204.1414,410.5954,203.5316,410.6183,203.5869,411.1038,203.0924,411.7201,202.9134,412.4337,202.9696,413.0095,202.6931,413.5417,202.3112" style="stroke:#333333;stroke-width:1.0416666666666667;fill:none;"/><polygon points="466.7242,221.9307,465.1973,224.017,463.3913,227.0728,460.8084,229.1322,458.0941,230.2583,455.9299,230.3561,453.1484,228.9477,450.5238,228.0276,448.5318,226.1595,447.4868,224.0208,446.8671,222.3179,446.26,220.0937,445.2746,218.1796,446.0318,216.3108,446.6953,214.2637,449.1849,212.6446,450.9365,210.5438,453.1045,209.8463,455.6819,209.2455,458.9871,209.6024,460.7974,210.4562,462.9022,210.8432,465.4613,213.4651,466.3535,216.2331,466.7411,218.1217,466.302,221.234" style="stroke:#2E2E2E;stroke-width:1.0416666666666667;fill:none;"/><path d="M457.5033,219.2017 Q457.5033,218.5018 457.194,218.1112 Q456.8848,217.7205 456.3314,217.7205 Q455.7943,217.7205 455.485,218.1112 Q455.1758,218.5018 455.1758,219.2017 Q455.1758,219.8853 455.485,220.2759 Q455.7943,220.6665 456.3314,220.6665 Q456.8848,220.6665 457.194,220.2759 Q457.5033,219.8853 457.5033,219.2017 Z M458.6426,221.6919 L457.4382,221.6919 L457.4382,221.2036 Q457.2103,221.5129 456.8848,221.6756 Q456.5755,221.8221 456.1361,221.8221 Q455.1432,221.8221 454.5247,221.106 Q453.9063,220.3735 453.9063,219.2017 Q453.9063,218.0135 454.5085,217.2974 Q455.127,216.5812 456.1361,216.5812 Q456.5755,216.5812 456.901,216.7277 Q457.2266,216.8742 457.4382,217.1672 L457.4382,216.923 Q457.4382,216.0929 456.9824,215.6372 Q456.5267,215.1815 455.6966,215.1815 Q454.4271,215.1815 453.6133,216.3045 Q452.8158,217.4113 452.8158,219.2017 Q452.8158,221.0734 453.7435,222.1965 Q454.6712,223.3032 456.2174,223.3032 Q456.7057,223.3032 457.1615,223.1567 Q457.6172,223.0103 458.0404,222.7173 L458.5938,223.7915 Q458.1055,224.1333 457.5195,224.2961 Q456.9336,224.4751 456.2826,224.4751 Q454.1341,224.4751 452.8646,223.0428 Q451.5951,221.6268 451.5951,219.2017 Q451.5951,216.8416 452.7344,215.4256 Q453.89,214.0096 455.7617,214.0096 Q457.0964,214.0096 457.8613,214.8071 Q458.6426,215.6047 458.6426,217.0044 L458.6426,221.6919 Z " fill="#2E2E2E"/><text fill="#555555" font-family="&quot;Segoe Print&quot;" font-size="11.4583" lengthAdjust="spacing" textLength="62.5" x="481.25" y="223.3637">Annotation</text><path d="M410.4167,236.4827 L410.4167,236.7747 L420.5882,235.9073 L430.7598,236.7512 L440.9314,237.0379 L451.1029,235.4919 L461.2745,236.3748 L471.4461,235.8904 L481.6176,235.9501 L491.7892,236.3881 L501.9608,235.5225 L512.1324,237.2517 L522.3039,235.6074 L532.4755,236.2081 L542.6471,237.0827 L552.8186,236.3636 L562.9902,236.5775 L573.1618,236.4384 L583.3333,236.4827 " style="stroke:#333333;stroke-width:1.0416666666666667;fill:none;"/><text fill="#555555" font-family="&quot;Segoe Print&quot;" font-size="11.4583" lengthAdjust="spacing" textLength="152.0833" x="420.8333" y="256.4936">annotation with members</text><path d="M410.4167,268.571 L410.4167,268.8629 L420.5882,267.9955 L430.7598,268.8394 L440.9314,269.1261 L451.1029,267.5801 L461.2745,268.463 L471.4461,267.9786 L481.6176,268.0383 L491.7892,268.4763 L501.9608,267.6107 L512.1324,269.3399 L522.3039,267.6956 L532.4755,268.2963 L542.6471,269.1709 L552.8186,268.4518 L562.9902,268.6657 L573.1618,268.5266 L583.3333,268.571 " style="stroke:#333333;stroke-width:1.0416666666666667;fill:none;"/><text fill="#555555" font-family="&quot;Segoe Print&quot;" font-size="11.4583" lengthAdjust="spacing" textLength="66.6667" x="420.8333" y="288.5818">String foo()</text><text fill="#555555" font-family="&quot;Segoe Print&quot;" font-size="11.4583" lengthAdjust="spacing" textLength="67.7083" x="420.8333" y="312.3367">String bar()</text><path d="M328.2072,103.5988 L328.4988,103.6121 L328.1008,113.8791 L329.4123,124.2238 L330.1672,134.5431 L329.0913,144.7793 L330.4417,155.1257 L330.4263,165.4101 L330.9544,175.7192 L331.8604,186.0454 L331.4642,196.3125 L333.6601,206.6974 L332.4859,216.9291 L333.5545,227.2627 L334.2973,237.5815 " fill="none" style="stroke:#333333;stroke-width:3.125;"/><polygon points="328.2072,103.5988,328.2766,103.6213,326.973,106.9412,326.0763,110.3928,325.0472,113.8016,323.5822,117.0691,322.7204,120.5321,322.7192,120.5052,325.2111,120.2707,327.7092,120.1721,330.2116,120.1679,332.6992,119.8382,335.2076,119.9645,335.3843,120.0401,333.6063,116.6053,332.3443,113.3912,331.1452,110.2041,329.5799,106.8603,328.2072,103.5988" style="stroke:#333333;stroke-width:1.0416666666666667;fill:none;"/><text fill="#2E2E2E" font-family="Segoe Print" font-size="12.5" lengthAdjust="spacing" textLength="73.9583" x="338.5417" y="175.3723">AList to List</text><path d="M126.8128,103.5988 L127.0978,103.662 L123.9672,113.7807 L122.5073,124.2696 L120.5034,134.638 L116.7103,144.6099 L115.2884,155.1073 L112.5317,165.3089 L110.3062,175.6281 L108.45,186.0292 L105.3211,196.1483 L104.7256,206.8288 L100.8364,216.7794 L99.1391,227.2157 L97.1235,237.5815 " fill="none" style="stroke:#333333;stroke-width:3.125;"/><polygon points="126.8128,103.5988,126.874,103.6386,124.7507,106.5044,122.986,109.6034,121.1045,112.6264,118.839,115.3996,117.1051,118.5187,117.0993,118.4923,119.5139,118.9149,121.9579,119.4704,124.4224,120.1181,126.8163,120.4477,129.3091,121.2229,129.4994,121.2499,128.5931,117.6674,128.2426,114.1637,127.9598,110.6695,127.2826,107.1195,126.8128,103.5988" style="stroke:#333333;stroke-width:1.0416666666666667;fill:none;"/><text fill="#2E2E2E" font-family="Segoe Print" font-size="12.5" lengthAdjust="spacing" textLength="76.0417" x="120.8333" y="175.3723">AColl to Coll</text><path d="M181.9498,77.832 L181.9498,78.124 L192.3263,77.2566 L202.7028,78.1005 L213.0793,78.3871 L223.4557,76.8412 L233.8322,77.7241 L244.2087,77.2397 L254.5851,77.2994 L264.9616,77.7374 L275.3381,76.8718 L285.7146,78.601 L296.091,77.832 " fill="none" style="stroke:#333333;stroke-width:3.125;"/><polygon points="181.9498,77.832,181.9755,77.9004,185.2327,78.9473,188.6401,80.3949,191.9986,81.712,195.1962,82.6001,198.6165,84.082,198.5895,84.082,198.4684,81.582,198.4833,79.082,198.5928,76.582,198.3764,74.082,198.6165,71.582,198.684,71.762,195.2063,72.6271,191.9257,74.0177,188.6692,75.4725,185.2727,76.5541,181.9498,77.832" style="stroke:#333333;stroke-width:1.0416666666666667;fill:none;"/><text fill="#2E2E2E" font-family="Segoe Print" font-size="12.5" lengthAdjust="spacing" textLength="66.6667" x="205.7292" y="66.5181">List to Coll</text><path d="M165.7925,263.2487 L165.7925,263.5406 L176.1598,262.6733 L186.5272,263.5172 L196.8945,263.8038 L207.2618,262.2579 L217.6292,263.1408 L227.9965,262.6563 L238.3639,262.7161 L248.7312,263.154 L259.0985,262.2885 L269.4659,264.0176 L279.8332,263.2487 " fill="none" style="stroke:#333333;stroke-width:3.125;"/><polygon points="165.7925,263.2487,165.8181,263.317,169.0753,264.364,172.4827,265.8115,175.8412,267.1286,179.0388,268.0168,182.4592,269.4987,182.4322,269.4987,182.3111,266.9987,182.326,264.4987,182.4355,261.9987,182.2191,259.4987,182.4592,256.9987,182.5267,257.1787,179.049,258.0438,175.7684,259.4344,172.5118,260.8891,169.1154,261.9708,165.7925,263.2487" style="stroke:#333333;stroke-width:1.0416666666666667;fill:none;"/><text fill="#2E2E2E" font-family="Segoe Print" font-size="12.5" lengthAdjust="spacing" textLength="83.3333" x="181.25" y="251.9348">AList to AColl</text><path d="M335.4167,288.8412 L335.7086,288.8412 L334.8412,299.7983 L335.6851,310.7554 L335.9718,321.7125 L334.4258,332.6696 L335.3087,343.6267 L334.8243,354.5838 L334.884,365.5409 L335.322,376.498 L335.4167,387.4551 " fill="none" style="stroke:#333333;stroke-width:3.125;"/><polygon points="335.4167,288.8412,335.485,288.8669,334.032,292.1241,332.9795,295.5315,331.7966,298.89,330.1847,302.0876,329.1667,305.5079,329.1667,305.4809,331.6667,305.3598,334.1667,305.3747,336.6667,305.4842,339.1667,305.2678,341.6667,305.5079,341.8467,305.5754,340.2118,302.0977,339.1024,298.8171,338.0571,295.5606,336.6388,292.1641,335.4167,288.8412" style="stroke:#333333;stroke-width:1.0416666666666667;fill:none;"/><text fill="#2E2E2E" font-family="Segoe Print" font-size="12.5" lengthAdjust="spacing" textLength="87.5" x="341.6667" y="360.789">ArList to AList</text></g></svg>