<?xml version="1.0" encoding="UTF-8" standalone="no"?><svg xmlns="http://www.w3.org/2000/svg" xmlns:xlink="http://www.w3.org/1999/xlink" contentScriptType="application/ecmascript" contentStyleType="text/css" height="314.5833px" preserveAspectRatio="none" style="width:494px;height:314px;background:#00000000;" version="1.1" viewBox="0 0 494 314" width="494.7917px" zoomAndPan="magnify"><defs><linearGradient id="g1tkipc5qd67990" x1="50%" x2="50%" y1="0%" y2="100%"><stop offset="0%" stop-color="#EEEEEE"/><stop offset="100%" stop-color="#BEBEBE"/></linearGradient><linearGradient id="g1tkipc5qd67991" x1="50%" x2="50%" y1="0%" y2="100%"><stop offset="0%" stop-color="#D6D6D6"/><stop offset="100%" stop-color="#ABABAB"/></linearGradient></defs><g><!--MD5=[f7e826e1488aa6662a4b5ddfe29b6b3b]
class abstract--><rect codeLine="6" fill="url(#g1tkipc5qd67990)" height="54.6631" id="abstract" rx="7.8125" ry="7.8125" style="stroke:#F1F1F1;stroke-width:1.0416666666666667;" width="89.5833" x="32.8125" y="27.5991"/><rect fill="url(#g1tkipc5qd67990)" height="37.9964" rx="7.8125" ry="7.8125" style="stroke:url(#g1tkipc5qd67990);stroke-width:1.0416666666666667;" width="89.5833" x="32.8125" y="27.5991"/><rect fill="url(#g1tkipc5qd67990)" height="7.8125" style="stroke:url(#g1tkipc5qd67990);stroke-width:1.0416666666666667;" width="89.5833" x="32.8125" y="57.783"/><rect codeLine="6" fill="none" height="54.6631" id="abstract" rx="7.8125" ry="7.8125" style="stroke:#F1F1F1;stroke-width:1.0416666666666667;" width="89.5833" x="32.8125" y="27.5991"/><ellipse cx="47.3958" cy="46.5973" fill="#5CAD5C" rx="10.4167" ry="10.4167" style="stroke:#297A29;stroke-width:1.0416666666666667;"/><path d="M46.9889,43.5537 L46.1426,47.2809 L47.8516,47.2809 L46.9889,43.5537 Z M45.8984,41.9098 L48.0957,41.9098 L50.5534,51.0244 L48.7467,51.0244 L48.1934,48.7783 L45.7845,48.7783 L45.2311,51.0244 L43.4245,51.0244 L45.8984,41.9098 Z " fill="#000000"/><text fill="#303030" font-family="&quot;Verdana&quot;" font-size="9.375" font-style="italic" lengthAdjust="spacing" textLength="41.6667" x="69.2708" y="49.8428">abstract</text><line style="stroke:#F1F1F1;stroke-width:1.0416666666666667;" x1="33.8542" x2="121.3542" y1="65.5955" y2="65.5955"/><line style="stroke:#F1F1F1;stroke-width:1.0416666666666667;" x1="33.8542" x2="121.3542" y1="73.9288" y2="73.9288"/><!--MD5=[17df400e90568e28eeaed93acf178394]
class abstract class--><rect codeLine="7" fill="url(#g1tkipc5qd67990)" height="54.6631" id="abstract class" rx="7.8125" ry="7.8125" style="stroke:#F1F1F1;stroke-width:1.0416666666666667;" width="117.7083" x="159.375" y="27.5991"/><rect fill="url(#g1tkipc5qd67990)" height="37.9964" rx="7.8125" ry="7.8125" style="stroke:url(#g1tkipc5qd67990);stroke-width:1.0416666666666667;" width="117.7083" x="159.375" y="27.5991"/><rect fill="url(#g1tkipc5qd67990)" height="7.8125" style="stroke:url(#g1tkipc5qd67990);stroke-width:1.0416666666666667;" width="117.7083" x="159.375" y="57.783"/><rect codeLine="7" fill="none" height="54.6631" id="abstract class" rx="7.8125" ry="7.8125" style="stroke:#F1F1F1;stroke-width:1.0416666666666667;" width="117.7083" x="159.375" y="27.5991"/><ellipse cx="173.9583" cy="46.5973" fill="#5CAD5C" rx="10.4167" ry="10.4167" style="stroke:#297A29;stroke-width:1.0416666666666667;"/><path d="M173.5514,43.5537 L172.7051,47.2809 L174.4141,47.2809 L173.5514,43.5537 Z M172.4609,41.9098 L174.6582,41.9098 L177.1159,51.0244 L175.3092,51.0244 L174.7559,48.7783 L172.347,48.7783 L171.7936,51.0244 L169.987,51.0244 L172.4609,41.9098 Z " fill="#000000"/><text fill="#303030" font-family="&quot;Verdana&quot;" font-size="9.375" font-style="italic" lengthAdjust="spacing" textLength="69.7917" x="195.8333" y="49.8428">abstract class</text><line style="stroke:#F1F1F1;stroke-width:1.0416666666666667;" x1="160.4167" x2="276.0417" y1="65.5955" y2="65.5955"/><line style="stroke:#F1F1F1;stroke-width:1.0416666666666667;" x1="160.4167" x2="276.0417" y1="73.9288" y2="73.9288"/><!--MD5=[7cb74e68c9f11cf3f5cc35e0143045f8]
class annotation--><rect codeLine="8" fill="url(#g1tkipc5qd67990)" height="54.6631" id="annotation" rx="7.8125" ry="7.8125" style="stroke:#F1F1F1;stroke-width:1.0416666666666667;" width="103.125" x="314.5833" y="27.5991"/><rect fill="url(#g1tkipc5qd67990)" height="37.9964" rx="7.8125" ry="7.8125" style="stroke:url(#g1tkipc5qd67990);stroke-width:1.0416666666666667;" width="103.125" x="314.5833" y="27.5991"/><rect fill="url(#g1tkipc5qd67990)" height="7.8125" style="stroke:url(#g1tkipc5qd67990);stroke-width:1.0416666666666667;" width="103.125" x="314.5833" y="57.783"/><rect codeLine="8" fill="none" height="54.6631" id="annotation" rx="7.8125" ry="7.8125" style="stroke:#F1F1F1;stroke-width:1.0416666666666667;" width="103.125" x="314.5833" y="27.5991"/><ellipse cx="329.1667" cy="46.5973" fill="#5C85AD" rx="10.4167" ry="10.4167" style="stroke:#29527A;stroke-width:1.0416666666666667;"/><path d="M330.4199,46.402 Q330.4199,45.7021 330.1107,45.3115 Q329.8014,44.9209 329.248,44.9209 Q328.7109,44.9209 328.4017,45.3115 Q328.0924,45.7021 328.0924,46.402 Q328.0924,47.0856 328.4017,47.4762 Q328.7109,47.8668 329.248,47.8668 Q329.8014,47.8668 330.1107,47.4762 Q330.4199,47.0856 330.4199,46.402 Z M331.5592,48.8922 L330.3548,48.8922 L330.3548,48.4039 Q330.127,48.7132 329.8014,48.8759 Q329.4922,49.0224 329.0527,49.0224 Q328.0599,49.0224 327.4414,48.3063 Q326.8229,47.5739 326.8229,46.402 Q326.8229,45.2138 327.4251,44.4977 Q328.0436,43.7815 329.0527,43.7815 Q329.4922,43.7815 329.8177,43.928 Q330.1432,44.0745 330.3548,44.3675 L330.3548,44.1233 Q330.3548,43.2933 329.8991,42.8375 Q329.4434,42.3818 328.6133,42.3818 Q327.3438,42.3818 326.5299,43.5048 Q325.7324,44.6116 325.7324,46.402 Q325.7324,48.2737 326.6602,49.3968 Q327.5879,50.5035 329.1341,50.5035 Q329.6224,50.5035 330.0781,50.3571 Q330.5339,50.2106 330.957,49.9176 L331.5104,50.9918 Q331.0221,51.3336 330.4362,51.4964 Q329.8503,51.6754 329.1992,51.6754 Q327.0508,51.6754 325.7813,50.2431 Q324.5117,48.8271 324.5117,46.402 Q324.5117,44.042 325.651,42.6259 Q326.8066,41.2099 328.6784,41.2099 Q330.013,41.2099 330.778,42.0074 Q331.5592,42.805 331.5592,44.2047 L331.5592,48.8922 Z " fill="#000000"/><text fill="#303030" font-family="&quot;Verdana&quot;" font-size="9.375" lengthAdjust="spacing" textLength="55.2083" x="351.0417" y="49.8428">annotation</text><line style="stroke:#F1F1F1;stroke-width:1.0416666666666667;" x1="315.625" x2="416.6667" y1="65.5955" y2="65.5955"/><line style="stroke:#F1F1F1;stroke-width:1.0416666666666667;" x1="315.625" x2="416.6667" y1="73.9288" y2="73.9288"/><!--MD5=[da456bc05ddb284180092693c9c3b3b1]
entity circle--><ellipse cx="464.0625" cy="51.5574" fill="#FF5C5C" rx="8.3333" ry="8.3333" style="stroke:#FF3333;stroke-width:1.0416666666666667;"/><text fill="#303030" font-family="&quot;Verdana&quot;" font-size="14.5833" lengthAdjust="spacing" textLength="37.5" x="445.3125" y="91.1357">circle</text><!--MD5=[87adb442a9baea16d5e9c4faa47d2afb]
entity circle_short_form--><ellipse cx="77.6042" cy="161.9741" fill="#FF5C5C" rx="8.3333" ry="8.3333" style="stroke:#FF3333;stroke-width:1.0416666666666667;"/><text fill="#303030" font-family="&quot;Verdana&quot;" font-size="14.5833" lengthAdjust="spacing" textLength="121.875" x="16.6667" y="201.5523">circle_short_form</text><!--MD5=[c4c892d05414254cdeba8adc63897f88]
class class--><rect codeLine="11" fill="url(#g1tkipc5qd67990)" height="54.6631" id="class" rx="7.8125" ry="7.8125" style="stroke:#F1F1F1;stroke-width:1.0416666666666667;" width="73.9583" x="123.9583" y="138.0157"/><rect fill="url(#g1tkipc5qd67990)" height="37.9964" rx="7.8125" ry="7.8125" style="stroke:url(#g1tkipc5qd67990);stroke-width:1.0416666666666667;" width="73.9583" x="123.9583" y="138.0157"/><rect fill="url(#g1tkipc5qd67990)" height="7.8125" style="stroke:url(#g1tkipc5qd67990);stroke-width:1.0416666666666667;" width="73.9583" x="123.9583" y="168.1997"/><rect codeLine="11" fill="none" height="54.6631" id="class" rx="7.8125" ry="7.8125" style="stroke:#F1F1F1;stroke-width:1.0416666666666667;" width="73.9583" x="123.9583" y="138.0157"/><ellipse cx="138.5417" cy="157.014" fill="#DEDEDE" rx="10.4167" ry="10.4167" style="stroke:#ABABAB;stroke-width:1.0416666666666667;"/><path d="M140.446,161.441 Q140.0228,161.6526 139.5508,161.7666 Q139.0788,161.8805 138.5742,161.8805 Q136.7188,161.8805 135.7422,160.6761 Q134.7819,159.4554 134.7819,157.1604 Q134.7819,154.8492 135.7422,153.6448 Q136.7188,152.4241 138.5742,152.4241 Q139.0788,152.4241 139.5508,152.538 Q140.0391,152.6357 140.446,152.8636 L140.446,154.8655 Q139.9902,154.4423 139.5508,154.247 Q139.1113,154.0354 138.6556,154.0354 Q137.6628,154.0354 137.1582,154.833 Q136.6536,155.6142 136.6536,157.1604 Q136.6536,158.6904 137.1582,159.4716 Q137.6628,160.2529 138.6556,160.2529 Q139.1113,160.2529 139.5508,160.0576 Q139.9902,159.8623 140.446,159.4391 L140.446,161.441 Z " fill="#000000"/><text fill="#303030" font-family="&quot;Verdana&quot;" font-size="9.375" lengthAdjust="spacing" textLength="26.0417" x="160.4167" y="160.2595">class</text><line style="stroke:#F1F1F1;stroke-width:1.0416666666666667;" x1="125" x2="196.875" y1="176.0122" y2="176.0122"/><line style="stroke:#F1F1F1;stroke-width:1.0416666666666667;" x1="125" x2="196.875" y1="184.3455" y2="184.3455"/><polygon fill="url(#g1tkipc5qd67991)" points="247.3958,152.5991,259.8958,165.0991,247.3958,177.5991,234.8958,165.0991,247.3958,152.5991" style="stroke:#ABABAB;stroke-width:1.0416666666666667;"/><polygon fill="url(#g1tkipc5qd67990)" points="309.8958,152.5991,322.3958,165.0991,309.8958,177.5991,297.3958,165.0991,309.8958,152.5991" style="stroke:#F1F1F1;stroke-width:1.5625;"/><!--MD5=[467568f20bbf29da492dca29e9e0779e]
class entity--><rect codeLine="14" fill="url(#g1tkipc5qd67990)" height="54.6631" id="entity" rx="7.8125" ry="7.8125" style="stroke:#F1F1F1;stroke-width:1.0416666666666667;" width="77.0833" x="39.0625" y="248.4324"/><rect fill="url(#g1tkipc5qd67990)" height="37.9964" rx="7.8125" ry="7.8125" style="stroke:url(#g1tkipc5qd67990);stroke-width:1.0416666666666667;" width="77.0833" x="39.0625" y="248.4324"/><rect fill="url(#g1tkipc5qd67990)" height="7.8125" style="stroke:url(#g1tkipc5qd67990);stroke-width:1.0416666666666667;" width="77.0833" x="39.0625" y="278.6163"/><rect codeLine="14" fill="none" height="54.6631" id="entity" rx="7.8125" ry="7.8125" style="stroke:#F1F1F1;stroke-width:1.0416666666666667;" width="77.0833" x="39.0625" y="248.4324"/><ellipse cx="53.6458" cy="267.4306" fill="#DEDEDE" rx="10.4167" ry="10.4167" style="stroke:#ABABAB;stroke-width:1.0416666666666667;"/><path d="M56.1849,272.1181 L50.5046,272.1181 L50.5046,263.0035 L56.1849,263.0035 L56.1849,264.5986 L52.3112,264.5986 L52.3112,266.5517 L55.8105,266.5517 L55.8105,268.1468 L52.3112,268.1468 L52.3112,270.5231 L56.1849,270.5231 L56.1849,272.1181 Z " fill="#000000"/><text fill="#303030" font-family="&quot;Verdana&quot;" font-size="9.375" lengthAdjust="spacing" textLength="29.1667" x="75.5208" y="270.6762">entity</text><line style="stroke:#F1F1F1;stroke-width:1.0416666666666667;" x1="40.1042" x2="115.1042" y1="286.4288" y2="286.4288"/><line style="stroke:#F1F1F1;stroke-width:1.0416666666666667;" x1="40.1042" x2="115.1042" y1="294.7622" y2="294.7622"/><!--MD5=[b1bf79d8358773e9ea7a3730761a57e9]
class enum--><rect codeLine="15" fill="url(#g1tkipc5qd67990)" height="54.6631" id="enum" rx="7.8125" ry="7.8125" style="stroke:#F1F1F1;stroke-width:1.0416666666666667;" width="76.0417" x="153.125" y="248.4324"/><rect fill="url(#g1tkipc5qd67990)" height="37.9964" rx="7.8125" ry="7.8125" style="stroke:url(#g1tkipc5qd67990);stroke-width:1.0416666666666667;" width="76.0417" x="153.125" y="248.4324"/><rect fill="url(#g1tkipc5qd67990)" height="7.8125" style="stroke:url(#g1tkipc5qd67990);stroke-width:1.0416666666666667;" width="76.0417" x="153.125" y="278.6163"/><rect codeLine="15" fill="none" height="54.6631" id="enum" rx="7.8125" ry="7.8125" style="stroke:#F1F1F1;stroke-width:1.0416666666666667;" width="76.0417" x="153.125" y="248.4324"/><ellipse cx="167.7083" cy="267.4306" fill="#FFBE68" rx="10.4167" ry="10.4167" style="stroke:#CC8B35;stroke-width:1.0416666666666667;"/><path d="M170.2474,272.1181 L164.5671,272.1181 L164.5671,263.0035 L170.2474,263.0035 L170.2474,264.5986 L166.3737,264.5986 L166.3737,266.5517 L169.873,266.5517 L169.873,268.1468 L166.3737,268.1468 L166.3737,270.5231 L170.2474,270.5231 L170.2474,272.1181 Z " fill="#000000"/><text fill="#303030" font-family="&quot;Verdana&quot;" font-size="9.375" lengthAdjust="spacing" textLength="28.125" x="189.5833" y="270.6762">enum</text><line style="stroke:#F1F1F1;stroke-width:1.0416666666666667;" x1="154.1667" x2="228.125" y1="286.4288" y2="286.4288"/><line style="stroke:#F1F1F1;stroke-width:1.0416666666666667;" x1="154.1667" x2="228.125" y1="294.7622" y2="294.7622"/><!--MD5=[d9847530b5dea828dbcbb50914b76f30]
class interface--><rect codeLine="16" fill="url(#g1tkipc5qd67990)" height="54.6631" id="interface" rx="7.8125" ry="7.8125" style="stroke:#F1F1F1;stroke-width:1.0416666666666667;" width="92.7083" x="266.6667" y="248.4324"/><rect fill="url(#g1tkipc5qd67990)" height="37.9964" rx="7.8125" ry="7.8125" style="stroke:url(#g1tkipc5qd67990);stroke-width:1.0416666666666667;" width="92.7083" x="266.6667" y="248.4324"/><rect fill="url(#g1tkipc5qd67990)" height="7.8125" style="stroke:url(#g1tkipc5qd67990);stroke-width:1.0416666666666667;" width="92.7083" x="266.6667" y="278.6163"/><rect codeLine="16" fill="none" height="54.6631" id="interface" rx="7.8125" ry="7.8125" style="stroke:#F1F1F1;stroke-width:1.0416666666666667;" width="92.7083" x="266.6667" y="248.4324"/><ellipse cx="281.25" cy="267.4306" fill="#FF5C5C" rx="10.4167" ry="10.4167" style="stroke:#CC2929;stroke-width:1.0416666666666667;"/><path d="M278.1413,264.5986 L278.1413,263.0035 L283.5612,263.0035 L283.5612,264.5986 L281.7546,264.5986 L281.7546,270.5231 L283.5612,270.5231 L283.5612,272.1181 L278.1413,272.1181 L278.1413,270.5231 L279.9479,270.5231 L279.9479,264.5986 L278.1413,264.5986 Z " fill="#000000"/><text fill="#303030" font-family="&quot;Verdana&quot;" font-size="9.375" font-style="italic" lengthAdjust="spacing" textLength="44.7917" x="303.125" y="270.6762">interface</text><line style="stroke:#F1F1F1;stroke-width:1.0416666666666667;" x1="267.7083" x2="358.3333" y1="286.4288" y2="286.4288"/><line style="stroke:#F1F1F1;stroke-width:1.0416666666666667;" x1="267.7083" x2="358.3333" y1="294.7622" y2="294.7622"/></g></svg>