<?xml version="1.0" encoding="us-ascii" standalone="no"?><svg xmlns="http://www.w3.org/2000/svg" xmlns:xlink="http://www.w3.org/1999/xlink" contentStyleType="text/css" height="586px" preserveAspectRatio="none" style="width:996px;height:586px;background:#FFFFFF;" version="1.1" viewBox="0 0 996 586" width="996px" zoomAndPan="magnify"><defs/><g><!--cluster foo_frame--><g id="cluster_foo_frame"><rect fill="none" height="91" rx="3.5" ry="3.5" style="stroke:#696969;stroke-width:1.0;" width="194" x="724.5" y="12"/><path d="M813.5,12 L813.5,21.2969 L803.5,31.2969 L724.5,31.2969 " fill="none" style="stroke:#696969;stroke-width:1.0;"/><text fill="#000000" font-family="sans-serif" font-size="14" font-weight="bold" lengthAdjust="spacing" textLength="79" x="727.5" y="25.9951">foo_frame</text></g><!--class AbstractList--><g id="elem_AbstractList"><rect codeLine="7" fill="#F1F1F1" height="32" id="AbstractList" rx="3.5" ry="3.5" style="stroke:#181818;stroke-width:0.5;" width="112" x="266.5" y="269"/><ellipse cx="281.5" cy="285" fill="#A9DCDF" rx="11" ry="11" style="stroke:#181818;stroke-width:1.0;"/><path d="M281.6094,280.3438 L280.4531,285.4219 L282.7813,285.4219 L281.6094,280.3438 Z M280.125,278.1094 L283.1094,278.1094 L286.4688,290.5 L284.0156,290.5 L283.25,287.4375 L279.9688,287.4375 L279.2188,290.5 L276.7813,290.5 L280.125,278.1094 Z " fill="#000000"/><text fill="#000000" font-family="sans-serif" font-size="14" font-style="italic" lengthAdjust="spacing" textLength="80" x="295.5" y="289.8467">AbstractList</text></g><!--class AbstractCollection--><g id="elem_AbstractCollection"><rect codeLine="8" fill="#F1F1F1" height="32" id="AbstractCollection" rx="3.5" ry="3.5" style="stroke:#181818;stroke-width:0.5;" width="157" x="6" y="269"/><ellipse cx="21" cy="285" fill="#A9DCDF" rx="11" ry="11" style="stroke:#181818;stroke-width:1.0;"/><path d="M21.1094,280.3438 L19.9531,285.4219 L22.2813,285.4219 L21.1094,280.3438 Z M19.625,278.1094 L22.6094,278.1094 L25.9688,290.5 L23.5156,290.5 L22.75,287.4375 L19.4688,287.4375 L18.7188,290.5 L16.2813,290.5 L19.625,278.1094 Z " fill="#000000"/><text fill="#000000" font-family="sans-serif" font-size="14" font-style="italic" lengthAdjust="spacing" textLength="125" x="35" y="289.8467">AbstractCollection</text></g><!--class List--><g id="elem_List"><rect codeLine="9" fill="#F1F1F1" height="32" id="List" rx="3.5" ry="3.5" style="stroke:#181818;stroke-width:0.5;" width="55" x="281" y="51"/><ellipse cx="296" cy="67" fill="#B4A7E5" rx="11" ry="11" style="stroke:#181818;stroke-width:1.0;"/><path d="M291.9219,62.7656 L291.9219,60.6094 L299.3125,60.6094 L299.3125,62.7656 L296.8438,62.7656 L296.8438,70.8438 L299.3125,70.8438 L299.3125,73 L291.9219,73 L291.9219,70.8438 L294.3906,70.8438 L294.3906,62.7656 L291.9219,62.7656 Z " fill="#000000"/><text fill="#000000" font-family="sans-serif" font-size="14" font-style="italic" lengthAdjust="spacing" textLength="23" x="310" y="71.8467">List</text></g><!--class Collection--><g id="elem_Collection"><rect codeLine="10" fill="#F1F1F1" height="32" id="Collection" rx="3.5" ry="3.5" style="stroke:#181818;stroke-width:0.5;" width="100" x="58.5" y="51"/><ellipse cx="73.5" cy="67" fill="#B4A7E5" rx="11" ry="11" style="stroke:#181818;stroke-width:1.0;"/><path d="M69.4219,62.7656 L69.4219,60.6094 L76.8125,60.6094 L76.8125,62.7656 L74.3438,62.7656 L74.3438,70.8438 L76.8125,70.8438 L76.8125,73 L69.4219,73 L69.4219,70.8438 L71.8906,70.8438 L71.8906,62.7656 L69.4219,62.7656 Z " fill="#000000"/><text fill="#000000" font-family="sans-serif" font-size="14" font-style="italic" lengthAdjust="spacing" textLength="68" x="87.5" y="71.8467">Collection</text></g><!--class ArrayList--><g id="elem_ArrayList"><rect codeLine="20" fill="#F1F1F1" height="80.5938" id="ArrayList" rx="3.5" ry="3.5" style="stroke:#181818;stroke-width:0.5;" width="160" x="196.5" y="498.5"/><ellipse cx="243.75" cy="514.5" fill="#ADD1B2" rx="11" ry="11" style="stroke:#181818;stroke-width:1.0;"/><path d="M246.7188,520.1406 Q246.1406,520.4375 245.5,520.5781 Q244.8594,520.7344 244.1563,520.7344 Q241.6563,520.7344 240.3281,519.0938 Q239.0156,517.4375 239.0156,514.3125 Q239.0156,511.1875 240.3281,509.5313 Q241.6563,507.875 244.1563,507.875 Q244.8594,507.875 245.5,508.0313 Q246.1563,508.1875 246.7188,508.4844 L246.7188,511.2031 Q246.0938,510.625 245.5,510.3594 Q244.9063,510.0781 244.2813,510.0781 Q242.9375,510.0781 242.25,511.1563 Q241.5625,512.2188 241.5625,514.3125 Q241.5625,516.4063 242.25,517.4844 Q242.9375,518.5469 244.2813,518.5469 Q244.9063,518.5469 245.5,518.2813 Q246.0938,518 246.7188,517.4219 L246.7188,520.1406 Z " fill="#000000"/><text fill="#000000" font-family="sans-serif" font-size="14" lengthAdjust="spacing" textLength="57" x="264.25" y="519.3467">ArrayList</text><line style="stroke:#181818;stroke-width:0.5;" x1="197.5" x2="355.5" y1="530.5" y2="530.5"/><text fill="#000000" font-family="sans-serif" font-size="14" lengthAdjust="spacing" textLength="148" x="202.5" y="547.4951">Object[] elementData</text><line style="stroke:#181818;stroke-width:0.5;" x1="197.5" x2="355.5" y1="554.7969" y2="554.7969"/><text fill="#000000" font-family="sans-serif" font-size="14" lengthAdjust="spacing" textLength="38" x="202.5" y="571.792">size()</text></g><!--class TimeUnit--><g id="elem_TimeUnit"><rect codeLine="25" fill="#F1F1F1" height="88.8906" id="TimeUnit" rx="3.5" ry="3.5" style="stroke:#181818;stroke-width:0.5;" width="93" x="415" y="22.5"/><ellipse cx="430" cy="38.5" fill="#EB937F" rx="11" ry="11" style="stroke:#181818;stroke-width:1.0;"/><path d="M434.1094,44.5 L426.3906,44.5 L426.3906,32.1094 L434.1094,32.1094 L434.1094,34.2656 L428.8438,34.2656 L428.8438,36.9375 L433.6094,36.9375 L433.6094,39.0938 L428.8438,39.0938 L428.8438,42.3438 L434.1094,42.3438 L434.1094,44.5 Z " fill="#000000"/><text fill="#000000" font-family="sans-serif" font-size="14" lengthAdjust="spacing" textLength="61" x="444" y="43.3467">TimeUnit</text><line style="stroke:#181818;stroke-width:0.5;" x1="416" x2="507" y1="54.5" y2="54.5"/><text fill="#000000" font-family="sans-serif" font-size="14" lengthAdjust="spacing" textLength="38" x="421" y="71.4951">DAYS</text><text fill="#000000" font-family="sans-serif" font-size="14" lengthAdjust="spacing" textLength="50" x="421" y="87.792">HOURS</text><text fill="#000000" font-family="sans-serif" font-size="14" lengthAdjust="spacing" textLength="62" x="421" y="104.0889">MINUTES</text></g><!--class SuppressWarnings--><g id="elem_SuppressWarnings"><rect codeLine="31" fill="#F1F1F1" height="32" id="SuppressWarnings" rx="3.5" ry="3.5" style="stroke:#181818;stroke-width:0.5;" width="162" x="374.5" y="523"/><ellipse cx="389.5" cy="539" fill="#E3664A" rx="11" ry="11" style="stroke:#181818;stroke-width:1.0;"/><path d="M391.5781,539.4688 Q391.5781,538.5313 391.1563,538 Q390.7344,537.4688 389.9844,537.4688 Q389.25,537.4688 388.8281,538 Q388.4219,538.5313 388.4219,539.4688 Q388.4219,540.4219 388.8281,540.9531 Q389.25,541.4844 389.9844,541.4844 Q390.7344,541.4844 391.1563,540.9531 Q391.5781,540.4219 391.5781,539.4688 Z M393.125,542.875 L391.5,542.875 L391.5,542.2031 Q391.1719,542.6406 390.75,542.8438 Q390.3281,543.0469 389.7188,543.0469 Q388.3594,543.0469 387.5313,542.0781 Q386.7031,541.0938 386.7031,539.4688 Q386.7031,537.875 387.5313,536.9063 Q388.3594,535.9219 389.7188,535.9219 Q390.3125,535.9219 390.7656,536.125 Q391.2188,536.3281 391.5,536.7188 L391.5,536.375 Q391.5,535.25 390.875,534.6406 Q390.25,534.0156 389.1094,534.0156 Q387.3906,534.0156 386.2969,535.5469 Q385.2031,537.0625 385.2031,539.5 Q385.2031,542.0469 386.4531,543.5469 Q387.7188,545.0469 389.8281,545.0469 Q390.4844,545.0469 391.1094,544.8594 Q391.7344,544.6719 392.3125,544.2813 L393.0781,545.7344 Q392.4063,546.1875 391.6094,546.4063 Q390.8125,546.6406 389.9063,546.6406 Q387,546.6406 385.2656,544.7031 Q383.5469,542.7813 383.5469,539.5 Q383.5469,536.2813 385.0938,534.3594 Q386.6563,532.4219 389.2188,532.4219 Q391.0156,532.4219 392.0625,533.5156 Q393.125,534.6094 393.125,536.4844 L393.125,542.875 Z " fill="#000000"/><text fill="#000000" font-family="sans-serif" font-size="14" lengthAdjust="spacing" textLength="130" x="403.5" y="543.8467">SuppressWarnings</text></g><!--class Annotation--><g id="elem_Annotation"><rect codeLine="33" fill="#F1F1F1" height="105.1563" id="Annotation" rx="3.5" ry="3.5" style="stroke:#181818;stroke-width:0.5;" width="188" x="526.5" y="14.5"/><ellipse cx="577.25" cy="34.6328" fill="#E3664A" rx="11" ry="11" style="stroke:#181818;stroke-width:1.0;"/><path d="M579.3281,35.1016 Q579.3281,34.1641 578.9063,33.6328 Q578.4844,33.1016 577.7344,33.1016 Q577,33.1016 576.5781,33.6328 Q576.1719,34.1641 576.1719,35.1016 Q576.1719,36.0547 576.5781,36.5859 Q577,37.1172 577.7344,37.1172 Q578.4844,37.1172 578.9063,36.5859 Q579.3281,36.0547 579.3281,35.1016 Z M580.875,38.5078 L579.25,38.5078 L579.25,37.8359 Q578.9219,38.2734 578.5,38.4766 Q578.0781,38.6797 577.4688,38.6797 Q576.1094,38.6797 575.2813,37.7109 Q574.4531,36.7266 574.4531,35.1016 Q574.4531,33.5078 575.2813,32.5391 Q576.1094,31.5547 577.4688,31.5547 Q578.0625,31.5547 578.5156,31.7578 Q578.9688,31.9609 579.25,32.3516 L579.25,32.0078 Q579.25,30.8828 578.625,30.2734 Q578,29.6484 576.8594,29.6484 Q575.1406,29.6484 574.0469,31.1797 Q572.9531,32.6953 572.9531,35.1328 Q572.9531,37.6797 574.2031,39.1797 Q575.4688,40.6797 577.5781,40.6797 Q578.2344,40.6797 578.8594,40.4922 Q579.4844,40.3047 580.0625,39.9141 L580.8281,41.3672 Q580.1563,41.8203 579.3594,42.0391 Q578.5625,42.2734 577.6563,42.2734 Q574.75,42.2734 573.0156,40.3359 Q571.2969,38.4141 571.2969,35.1328 Q571.2969,31.9141 572.8438,29.9922 Q574.4063,28.0547 576.9688,28.0547 Q578.7656,28.0547 579.8125,29.1484 Q580.875,30.2422 580.875,32.1172 L580.875,38.5078 Z " fill="#000000"/><text fill="#000000" font-family="sans-serif" font-size="12" font-style="italic" lengthAdjust="spacing" textLength="82" x="595.75" y="30.6387">&#171;stereotype&#187;</text><text fill="#000000" font-family="sans-serif" font-size="14" lengthAdjust="spacing" textLength="75" x="599.25" y="46.4639">Annotation</text><line style="stroke:#181818;stroke-width:0.5;" x1="527.5" x2="713.5" y1="54.7656" y2="54.7656"/><text fill="#000000" font-family="sans-serif" font-size="14" lengthAdjust="spacing" textLength="176" x="532.5" y="71.7607">annotation with members</text><line style="stroke:#181818;stroke-width:0.5;" x1="527.5" x2="713.5" y1="79.0625" y2="79.0625"/><text fill="#000000" font-family="sans-serif" font-size="14" lengthAdjust="spacing" textLength="76" x="532.5" y="96.0576">String foo()</text><text fill="#000000" font-family="sans-serif" font-size="14" lengthAdjust="spacing" textLength="76" x="532.5" y="112.3545">String bar()</text></g><!--class Dummy--><g id="elem_Dummy"><rect codeLine="39" fill="#F1F1F1" height="145.7813" id="Dummy" rx="3.5" ry="3.5" style="stroke:#181818;stroke-width:0.5;" width="130" x="396.5" y="212"/><ellipse cx="431.75" cy="228" fill="#ADD1B2" rx="11" ry="11" style="stroke:#181818;stroke-width:1.0;"/><path d="M434.7188,233.6406 Q434.1406,233.9375 433.5,234.0781 Q432.8594,234.2344 432.1563,234.2344 Q429.6563,234.2344 428.3281,232.5938 Q427.0156,230.9375 427.0156,227.8125 Q427.0156,224.6875 428.3281,223.0313 Q429.6563,221.375 432.1563,221.375 Q432.8594,221.375 433.5,221.5313 Q434.1563,221.6875 434.7188,221.9844 L434.7188,224.7031 Q434.0938,224.125 433.5,223.8594 Q432.9063,223.5781 432.2813,223.5781 Q430.9375,223.5781 430.25,224.6563 Q429.5625,225.7188 429.5625,227.8125 Q429.5625,229.9063 430.25,230.9844 Q430.9375,232.0469 432.2813,232.0469 Q432.9063,232.0469 433.5,231.7813 Q434.0938,231.5 434.7188,230.9219 L434.7188,233.6406 Z " fill="#000000"/><text fill="#000000" font-family="sans-serif" font-size="14" lengthAdjust="spacing" textLength="53" x="450.25" y="232.8467">Dummy</text><line style="stroke:#181818;stroke-width:0.5;" x1="397.5" x2="525.5" y1="244" y2="244"/><rect fill="none" height="6" style="stroke:#C82930;stroke-width:1.0;" width="6" x="404.5" y="254.6484"/><text fill="#000000" font-family="sans-serif" font-size="14" lengthAdjust="spacing" textLength="37" x="416.5" y="260.9951">field1</text><polygon fill="none" points="407.5,268.9453,411.5,272.9453,407.5,276.9453,403.5,272.9453" style="stroke:#B38D22;stroke-width:1.0;"/><text fill="#000000" font-family="sans-serif" font-size="14" lengthAdjust="spacing" textLength="37" x="416.5" y="277.292">field2</text><text fill="#000000" font-family="sans-serif" font-size="14" lengthAdjust="spacing" text-decoration="underline" textLength="56" x="416.5" y="293.5889">String id</text><line style="stroke:#181818;stroke-width:0.5;" x1="397.5" x2="525.5" y1="300.8906" y2="300.8906"/><polygon fill="#4177AF" points="407.5,310.5391,403.5,316.5391,411.5,316.5391" style="stroke:#1963A0;stroke-width:1.0;"/><text fill="#000000" font-family="sans-serif" font-size="14" lengthAdjust="spacing" textLength="73" x="416.5" y="317.8857">method1()</text><ellipse cx="407.5" cy="330.8359" fill="#84BE84" rx="3" ry="3" style="stroke:#038048;stroke-width:1.0;"/><text fill="#000000" font-family="sans-serif" font-size="14" lengthAdjust="spacing" textLength="73" x="416.5" y="334.1826">method2()</text><text fill="#000000" font-family="sans-serif" font-size="14" font-style="italic" lengthAdjust="spacing" textLength="104" x="416.5" y="350.4795">void methods()</text></g><g id="elem_N1"><path d="M18.5,530 L18.5,548.1328 A3.5,3.5 0 0 0 22,551.6328 L171,551.6328 A3.5,3.5 0 0 0 174.5,548.1328 L174.5,536.5 L164.5,526.5 L22,526.5 A3.5,3.5 0 0 0 18.5,530 " fill="#7FFFD4" style="stroke:#454645;stroke-width:1.5;"/><path d="M164.5,526.5 L164.5,534.75 A1.75,1.75 0 0 0 166.25,536.5 L174.5,536.5 L164.5,526.5 " fill="#7FFFD4" style="stroke:#454645;stroke-width:1.0;"/><text fill="#454645" font-family="sans-serif" font-size="13" lengthAdjust="spacing" textLength="135" x="24.5" y="543.5669">This is a floating note</text></g><!--class Element--><g id="elem_Element"><rect fill="#F1F1F1" height="32" id="Element" rx="3.5" ry="3.5" style="stroke:#181818;stroke-width:0.5;" width="89" x="777" y="269"/><ellipse cx="792" cy="285" fill="#ADD1B2" rx="11" ry="11" style="stroke:#181818;stroke-width:1.0;"/><path d="M794.9688,290.6406 Q794.3906,290.9375 793.75,291.0781 Q793.1094,291.2344 792.4063,291.2344 Q789.9063,291.2344 788.5781,289.5938 Q787.2656,287.9375 787.2656,284.8125 Q787.2656,281.6875 788.5781,280.0313 Q789.9063,278.375 792.4063,278.375 Q793.1094,278.375 793.75,278.5313 Q794.4063,278.6875 794.9688,278.9844 L794.9688,281.7031 Q794.3438,281.125 793.75,280.8594 Q793.1563,280.5781 792.5313,280.5781 Q791.1875,280.5781 790.5,281.6563 Q789.8125,282.7188 789.8125,284.8125 Q789.8125,286.9063 790.5,287.9844 Q791.1875,289.0469 792.5313,289.0469 Q793.1563,289.0469 793.75,288.7813 Q794.3438,288.5 794.9688,287.9219 L794.9688,290.6406 Z " fill="#000000"/><text fill="#000000" font-family="sans-serif" font-size="14" lengthAdjust="spacing" textLength="57" x="806" y="289.8467">Element</text></g><g id="elem_Elementlol26"><ellipse cx="818.5" cy="532" fill="#F1F1F1" rx="5" ry="5" style="stroke:#181818;stroke-width:1.5;"/></g><text fill="#000000" font-family="sans-serif" font-size="14" lengthAdjust="spacing" textLength="60" x="788.5" y="549.9951">interface</text><g id="elem_GMN31"><path d="M884,276 L884,281 L866.4219,285 L884,289 L884,294.1328 A3.5,3.5 0 0 0 887.5,297.6328 L985.5,297.6328 A3.5,3.5 0 0 0 989,294.1328 L989,282.5 L979,272.5 L887.5,272.5 A3.5,3.5 0 0 0 884,276 " fill="#7FFFD4" style="stroke:#454645;stroke-width:1.5;"/><path d="M979,272.5 L979,280.75 A1.75,1.75 0 0 0 980.75,282.5 L989,282.5 L979,272.5 " fill="#7FFFD4" style="stroke:#454645;stroke-width:1.5;"/><text fill="#454645" font-family="sans-serif" font-size="13" lengthAdjust="spacing" textLength="84" x="890" y="289.5669">This is a note</text></g><!--class User--><g id="elem_User"><rect codeLine="69" fill="#F1F1F1" height="224.9063" id="User" rx="3.5" ry="3.5" style="stroke:#181818;stroke-width:0.5;" width="123" x="545" y="172.5"/><ellipse cx="579.35" cy="199.6172" fill="#ADD1B2" rx="11" ry="11" style="stroke:#181818;stroke-width:1.0;"/><path d="M582.3188,205.2578 Q581.7406,205.5547 581.1,205.6953 Q580.4594,205.8516 579.7563,205.8516 Q577.2563,205.8516 575.9281,204.2109 Q574.6156,202.5547 574.6156,199.4297 Q574.6156,196.3047 575.9281,194.6484 Q577.2563,192.9922 579.7563,192.9922 Q580.4594,192.9922 581.1,193.1484 Q581.7563,193.3047 582.3188,193.6016 L582.3188,196.3203 Q581.6938,195.7422 581.1,195.4766 Q580.5063,195.1953 579.8813,195.1953 Q578.5375,195.1953 577.85,196.2734 Q577.1625,197.3359 577.1625,199.4297 Q577.1625,201.5234 577.85,202.6016 Q578.5375,203.6641 579.8813,203.6641 Q580.5063,203.6641 581.1,203.3984 Q581.6938,203.1172 582.3188,202.5391 L582.3188,205.2578 Z " fill="#000000"/><text fill="#000000" font-family="sans-serif" font-size="12" font-style="italic" lengthAdjust="spacing" textLength="41" x="601.15" y="188.6387">&#171;user&#187;</text><text fill="#000000" font-family="sans-serif" font-size="12" font-style="italic" lengthAdjust="spacing" textLength="52" x="595.65" y="202.6074">&#171;admin&#187;</text><text fill="#000000" font-family="sans-serif" font-size="14" lengthAdjust="spacing" textLength="32" x="605.65" y="218.4326">User</text><line style="stroke:#181818;stroke-width:0.5;" x1="546" x2="667" y1="226.7344" y2="226.7344"/><ellipse cx="556" cy="260.6797" fill="#84BE84" rx="3" ry="3" style="stroke:#038048;stroke-width:1.0;"/><text fill="#000000" font-family="sans-serif" font-size="14" lengthAdjust="spacing" textLength="73" x="565" y="264.0264">getName()</text><ellipse cx="556" cy="276.9766" fill="#84BE84" rx="3" ry="3" style="stroke:#038048;stroke-width:1.0;"/><text fill="#000000" font-family="sans-serif" font-size="14" lengthAdjust="spacing" textLength="90" x="565" y="280.3232">getAddress()</text><line style="stroke:#181818;stroke-width:1.0;stroke-dasharray:1.0,2.0;" x1="546" x2="559.5" y1="242.8828" y2="242.8828"/><text fill="#000000" font-family="sans-serif" font-size="14" lengthAdjust="spacing" textLength="94" x="559.5" y="247.2295">Simple Getter</text><line style="stroke:#181818;stroke-width:1.0;stroke-dasharray:1.0,2.0;" x1="653.5" x2="667" y1="242.8828" y2="242.8828"/><ellipse cx="556" cy="313.5703" fill="#84BE84" rx="3" ry="3" style="stroke:#038048;stroke-width:1.0;"/><text fill="#000000" font-family="sans-serif" font-size="14" lengthAdjust="spacing" textLength="72" x="565" y="316.917">setName()</text><line style="stroke:#181818;stroke-width:1.0;stroke-dasharray:1.0,2.0;" x1="546" x2="564" y1="295.7734" y2="295.7734"/><text fill="#000000" font-family="sans-serif" font-size="14" lengthAdjust="spacing" textLength="85" x="564" y="300.1201">Some setter</text><line style="stroke:#181818;stroke-width:1.0;stroke-dasharray:1.0,2.0;" x1="649" x2="667" y1="295.7734" y2="295.7734"/><text fill="#000000" font-family="sans-serif" font-size="14" lengthAdjust="spacing" textLength="47" x="551" y="353.5107">int age</text><line style="stroke:#181818;stroke-width:0.5;" x1="546" x2="566.5" y1="332.3672" y2="332.3672"/><text fill="#000000" font-family="sans-serif" font-size="14" lengthAdjust="spacing" textLength="80" x="566.5" y="336.7139">private data</text><line style="stroke:#181818;stroke-width:0.5;" x1="646.5" x2="667" y1="332.3672" y2="332.3672"/><text fill="#000000" font-family="sans-serif" font-size="14" lengthAdjust="spacing" textLength="111" x="551" y="390.1045">String password</text><line style="stroke:#181818;stroke-width:1.0;" x1="546" x2="571.5" y1="368.9609" y2="368.9609"/><text fill="#000000" font-family="sans-serif" font-size="14" lengthAdjust="spacing" textLength="70" x="571.5" y="373.3076">encrypted</text><line style="stroke:#181818;stroke-width:1.0;" x1="641.5" x2="667" y1="368.9609" y2="368.9609"/></g><!--class Foo--><g id="elem_Foo"><rect codeLine="54" fill="#F1F1F1" height="56.2969" id="Foo" rx="3.5" ry="3.5" style="stroke:#181818;stroke-width:0.5;" width="177" x="733" y="39"/><ellipse cx="748" cy="55" fill="#ADD1B2" rx="11" ry="11" style="stroke:#181818;stroke-width:1.0;"/><path d="M750.9688,60.6406 Q750.3906,60.9375 749.75,61.0781 Q749.1094,61.2344 748.4063,61.2344 Q745.9063,61.2344 744.5781,59.5938 Q743.2656,57.9375 743.2656,54.8125 Q743.2656,51.6875 744.5781,50.0313 Q745.9063,48.375 748.4063,48.375 Q749.1094,48.375 749.75,48.5313 Q750.4063,48.6875 750.9688,48.9844 L750.9688,51.7031 Q750.3438,51.125 749.75,50.8594 Q749.1563,50.5781 748.5313,50.5781 Q747.1875,50.5781 746.5,51.6563 Q745.8125,52.7188 745.8125,54.8125 Q745.8125,56.9063 746.5,57.9844 Q747.1875,59.0469 748.5313,59.0469 Q749.1563,59.0469 749.75,58.7813 Q750.3438,58.5 750.9688,57.9219 L750.9688,60.6406 Z " fill="#000000"/><text fill="#000000" font-family="sans-serif" font-size="14" lengthAdjust="spacing" textLength="26" x="762" y="59.8467">Foo</text><rect fill="#FFFFFF" height="15.9688" style="stroke:#181818;stroke-width:1.0;stroke-dasharray:2.0,2.0;" width="117" x="796" y="36"/><text fill="#000000" font-family="sans-serif" font-size="12" font-style="italic" lengthAdjust="spacing" textLength="115" x="797" y="48.1387">? extends Element</text><line style="stroke:#181818;stroke-width:0.5;" x1="734" x2="909" y1="71" y2="71"/><text fill="#000000" font-family="sans-serif" font-size="14" lengthAdjust="spacing" textLength="63" x="739" y="87.9951">int si ze()</text></g><polygon fill="none" points="309.4845,83.1887,304.6612,101.5391,316.6361,100.7629,309.4845,83.1887" style="stroke:#454645;stroke-width:1.0;"/><path d="M310.6487,101.151 C313.2192,140.8105 318.9473,229.1875 321.5166,268.8281 " fill="none" style="stroke:#454645;stroke-width:1.0;"/><text fill="#000000" font-family="sans-serif" font-size="13" lengthAdjust="spacing" textLength="74" x="315.5" y="150.5669">AList to List</text><polygon fill="none" points="106.8124,83.1887,98.8613,100.416,110.7879,101.7412,106.8124,83.1887" style="stroke:#454645;stroke-width:1.0;"/><path d="M104.8246,101.0786 C100.418,140.7381 90.5903,229.1875 86.1858,268.8281 " fill="none" style="stroke:#454645;stroke-width:1.0;"/><text fill="#000000" font-family="sans-serif" font-size="13" lengthAdjust="spacing" textLength="76" x="102.5" y="150.5669">AColl to Coll</text><text fill="#000000" font-family="sans-serif" font-size="13" lengthAdjust="spacing" textLength="36" x="49.1858" y="264.895">many</text><text fill="#000000" font-family="sans-serif" font-size="13" lengthAdjust="spacing" textLength="36" x="69.8124" y="96.2556">many</text><polygon fill="none" points="158.7103,67,176.7103,73,176.7103,61,158.7103,67" style="stroke:#454645;stroke-width:1.0;"/><path d="M176.7103,67 C215.3577,67 249.3257,67 280.7885,67 " fill="none" style="stroke:#454645;stroke-width:1.0;"/><text fill="#000000" font-family="sans-serif" font-size="13" lengthAdjust="spacing" textLength="66" x="186.75" y="60.0669">List to Coll</text><polygon fill="none" points="163.0897,285,181.0897,291,181.0897,279,163.0897,285" style="stroke:#454645;stroke-width:1.0;"/><path d="M181.0897,285 C214.804,285 235.4288,285 266.2139,285 " fill="none" style="stroke:#454645;stroke-width:1.0;"/><text fill="#000000" font-family="sans-serif" font-size="13" lengthAdjust="spacing" textLength="84" x="172.75" y="278.0669">AList to AColl</text><polygon fill="none" points="319.7602,301.0091,310.6255,317.639,322.4304,319.7939,319.7602,301.0091" style="stroke:#454645;stroke-width:1.0;"/><path d="M316.5279,318.7165 C309.5456,356.9676 294.1356,441.3878 283.7468,498.3001 " fill="none" style="stroke:#454645;stroke-width:1.0;"/><text fill="#000000" font-family="sans-serif" font-size="13" lengthAdjust="spacing" textLength="88" x="311" y="427.5669">ArList to AList</text><path d="M303.5,439.1328 L303.5,472.1328 A3.5,3.5 0 0 0 307,475.6328 L403,475.6328 A3.5,3.5 0 0 0 406.5,472.1328 L406.5,445.6328 L396.5,435.6328 L307,435.6328 A3.5,3.5 0 0 0 303.5,439.1328 " fill="#7FFFD4" style="stroke:#454645;stroke-width:1.5;"/><path d="M396.5,435.6328 L396.5,443.8828 A1.75,1.75 0 0 0 398.25,445.6328 L406.5,445.6328 L396.5,435.6328 " fill="#7FFFD4" style="stroke:#454645;stroke-width:1.5;"/><text fill="#454645" font-family="sans-serif" font-size="13" lengthAdjust="spacing" textLength="82" x="309.5" y="452.6997">this is a note</text><text fill="#454645" font-family="sans-serif" font-size="13" lengthAdjust="spacing" textLength="41" x="309.5" y="467.8325">on link</text><polygon fill="#454645" points="356.5605,539,365.5605,543,361.5605,539,365.5605,535,356.5605,539" style="stroke:#454645;stroke-width:1.0;"/><ellipse cx="366.3387" cy="539" fill="#FFFFFF" rx="8" ry="8" style="stroke:#454645;stroke-width:1.0;"/><line style="stroke:#454645;stroke-width:1.0;" x1="358.3387" x2="374.3387" y1="539" y2="539"/><line style="stroke:#454645;stroke-width:1.0;" x1="366.3387" x2="366.3387" y1="531" y2="547"/><path d="M362.5605,539 C368.4866,539 352.4127,539 358.3387,539 " fill="none" style="stroke:#454645;stroke-width:1.0;"/><polygon fill="#454645" points="85.2147,301.0091,81.6473,310.1891,85.4525,306.0034,89.6383,309.8086,85.2147,301.0091" style="stroke:#454645;stroke-width:1.0;"/><rect fill="#FFFFFF" height="10" style="stroke:#454645;stroke-width:1.5;" width="10" x="90.9465" y="521.377"/><path d="M85.5001,307.0023 C87.6899,352.9884 93.7528,480.3091 95.7087,521.3826 " fill="none" style="stroke:#454645;stroke-width:1.0;"/><polygon fill="#454645" points="196.4509,539,187.4509,535,191.4509,539,187.4509,543,196.4509,539" style="stroke:#454645;stroke-width:1.0;"/><path d="M174.5469,539 C181.8482,539 183.1495,539 190.4509,539 " fill="none" style="stroke:#454645;stroke-width:1.0;"/><polygon fill="#454645" points="821.5,95.3565,817.5,101.3565,821.5,107.3565,825.5,101.3565,821.5,95.3565" style="stroke:#454645;stroke-width:1.0;"/><path d="M821.5,107.3565 C821.5,153.3324 821.5,232.6083 821.5,268.7508 " fill="none" style="stroke:#454645;stroke-width:1.0;"/><path d="M821.5,301.0091 C821.5,347.2071 821.5,486.5802 821.5,526.9386 " fill="none" style="stroke:#454645;stroke-width:1.0;"/></g></svg>