<?xml version="1.0" encoding="UTF-8" standalone="no"?><svg xmlns="http://www.w3.org/2000/svg" xmlns:xlink="http://www.w3.org/1999/xlink" contentStyleType="text/css" height="433.3333px" preserveAspectRatio="none" style="width:540px;height:433px;" version="1.1" viewBox="0 0 540 433" width="540.625px" zoomAndPan="magnify"><defs><linearGradient id="gutkrqz37lc290" x1="50%" x2="50%" y1="0%" y2="100%"><stop offset="0%" stop-color="#33B2E2"/><stop offset="100%" stop-color="#009FDB"/></linearGradient><linearGradient id="gutkrqz37lc291" x1="50%" x2="50%" y1="0%" y2="100%"><stop offset="0%" stop-color="#F5F5F5"/><stop offset="100%" stop-color="#C2C2C2"/></linearGradient></defs><g><!--class abstract--><g id="elem_abstract"><rect codeLine="6" fill="url(#gutkrqz37lc290)" height="57.0882" id="abstract" rx="10.4167" ry="10.4167" style="stroke:#33B2E2;stroke-width:1.0416666666666667;" width="95.8333" x="24.4792" y="24.1028"/><rect fill="url(#gutkrqz37lc290)" height="40.4215" rx="10.4167" ry="10.4167" style="stroke:url(#gutkrqz37lc290);stroke-width:1.0416666666666667;" width="95.8333" x="24.4792" y="24.1028"/><rect fill="url(#gutkrqz37lc290)" height="10.4167" style="stroke:url(#gutkrqz37lc290);stroke-width:1.0416666666666667;" width="95.8333" x="24.4792" y="54.1077"/><rect codeLine="6" fill="none" height="57.0882" id="abstract" rx="10.4167" ry="10.4167" style="stroke:#33B2E2;stroke-width:1.0416666666666667;" width="95.8333" x="24.4792" y="24.1028"/><ellipse cx="39.0625" cy="44.3136" fill="none" rx="10.4167" ry="10.4167" style="stroke:#007FAF;stroke-width:1.0416666666666667;"/><path d="M38.6556,41.2699 L37.8092,44.9972 L39.5182,44.9972 L38.6556,41.2699 Z M37.5651,39.6261 L39.7624,39.6261 L42.2201,48.7406 L40.4134,48.7406 L39.86,46.4945 L37.4512,46.4945 L36.8978,48.7406 L35.0911,48.7406 L37.5651,39.6261 Z " fill="#FFFFFF"/><text fill="#D2D2D2" font-family="&quot;Verdana&quot;" font-size="11.4583" font-style="italic" lengthAdjust="spacing" textLength="47.9167" x="60.9375" y="48.2803">abstract</text><line style="stroke:#33B2E2;stroke-width:1.0416666666666667;" x1="25.5208" x2="119.2708" y1="64.5243" y2="64.5243"/><line style="stroke:#33B2E2;stroke-width:1.0416666666666667;" x1="25.5208" x2="119.2708" y1="72.8577" y2="72.8577"/></g><!--class abstract class--><g id="elem_abstract class"><rect codeLine="7" fill="url(#gutkrqz37lc290)" height="57.0882" id="abstract class" rx="10.4167" ry="10.4167" style="stroke:#33B2E2;stroke-width:1.0416666666666667;" width="129.1667" x="157.8125" y="24.1028"/><rect fill="url(#gutkrqz37lc290)" height="40.4215" rx="10.4167" ry="10.4167" style="stroke:url(#gutkrqz37lc290);stroke-width:1.0416666666666667;" width="129.1667" x="157.8125" y="24.1028"/><rect fill="url(#gutkrqz37lc290)" height="10.4167" style="stroke:url(#gutkrqz37lc290);stroke-width:1.0416666666666667;" width="129.1667" x="157.8125" y="54.1077"/><rect codeLine="7" fill="none" height="57.0882" id="abstract class" rx="10.4167" ry="10.4167" style="stroke:#33B2E2;stroke-width:1.0416666666666667;" width="129.1667" x="157.8125" y="24.1028"/><ellipse cx="172.3958" cy="44.3136" fill="none" rx="10.4167" ry="10.4167" style="stroke:#007FAF;stroke-width:1.0416666666666667;"/><path d="M171.9889,41.2699 L171.1426,44.9972 L172.8516,44.9972 L171.9889,41.2699 Z M170.8984,39.6261 L173.0957,39.6261 L175.5534,48.7406 L173.7467,48.7406 L173.1934,46.4945 L170.7845,46.4945 L170.2311,48.7406 L168.4245,48.7406 L170.8984,39.6261 Z " fill="#FFFFFF"/><text fill="#D2D2D2" font-family="&quot;Verdana&quot;" font-size="11.4583" font-style="italic" lengthAdjust="spacing" textLength="81.25" x="194.2708" y="48.2803">abstract class</text><line style="stroke:#33B2E2;stroke-width:1.0416666666666667;" x1="158.8542" x2="285.9375" y1="64.5243" y2="64.5243"/><line style="stroke:#33B2E2;stroke-width:1.0416666666666667;" x1="158.8542" x2="285.9375" y1="72.8577" y2="72.8577"/></g><!--class annotation--><g id="elem_annotation"><rect codeLine="8" fill="url(#gutkrqz37lc290)" height="57.0882" id="annotation" rx="10.4167" ry="10.4167" style="stroke:#33B2E2;stroke-width:1.0416666666666667;" width="110.4167" x="324.4792" y="24.1028"/><rect fill="url(#gutkrqz37lc290)" height="40.4215" rx="10.4167" ry="10.4167" style="stroke:url(#gutkrqz37lc290);stroke-width:1.0416666666666667;" width="110.4167" x="324.4792" y="24.1028"/><rect fill="url(#gutkrqz37lc290)" height="10.4167" style="stroke:url(#gutkrqz37lc290);stroke-width:1.0416666666666667;" width="110.4167" x="324.4792" y="54.1077"/><rect codeLine="8" fill="none" height="57.0882" id="annotation" rx="10.4167" ry="10.4167" style="stroke:#33B2E2;stroke-width:1.0416666666666667;" width="110.4167" x="324.4792" y="24.1028"/><ellipse cx="339.0625" cy="44.3136" fill="none" rx="10.4167" ry="10.4167" style="stroke:#007FAF;stroke-width:1.0416666666666667;"/><path d="M340.3158,44.1182 Q340.3158,43.4184 340.0065,43.0278 Q339.6973,42.6371 339.1439,42.6371 Q338.6068,42.6371 338.2975,43.0278 Q337.9883,43.4184 337.9883,44.1182 Q337.9883,44.8018 338.2975,45.1925 Q338.6068,45.5831 339.1439,45.5831 Q339.6973,45.5831 340.0065,45.1925 Q340.3158,44.8018 340.3158,44.1182 Z M341.4551,46.6085 L340.2507,46.6085 L340.2507,46.1202 Q340.0228,46.4294 339.6973,46.5922 Q339.388,46.7387 338.9486,46.7387 Q337.9557,46.7387 337.3372,46.0225 Q336.7188,45.2901 336.7188,44.1182 Q336.7188,42.9301 337.321,42.2139 Q337.9395,41.4978 338.9486,41.4978 Q339.388,41.4978 339.7135,41.6443 Q340.0391,41.7908 340.2507,42.0837 L340.2507,41.8396 Q340.2507,41.0095 339.7949,40.5538 Q339.3392,40.0981 338.5091,40.0981 Q337.2396,40.0981 336.4258,41.2211 Q335.6283,42.3279 335.6283,44.1182 Q335.6283,45.99 336.556,47.113 Q337.4837,48.2198 339.0299,48.2198 Q339.5182,48.2198 339.974,48.0733 Q340.4297,47.9268 340.8529,47.6339 L341.4063,48.7081 Q340.918,49.0499 340.332,49.2126 Q339.7461,49.3917 339.0951,49.3917 Q336.9466,49.3917 335.6771,47.9594 Q334.4076,46.5434 334.4076,44.1182 Q334.4076,41.7582 335.5469,40.3422 Q336.7025,38.9262 338.5742,38.9262 Q339.9089,38.9262 340.6738,39.7237 Q341.4551,40.5212 341.4551,41.921 L341.4551,46.6085 Z " fill="#FFFFFF"/><text fill="#D2D2D2" font-family="&quot;Verdana&quot;" font-size="11.4583" lengthAdjust="spacing" textLength="62.5" x="360.9375" y="48.2803">annotation</text><line style="stroke:#33B2E2;stroke-width:1.0416666666666667;" x1="325.5208" x2="433.8542" y1="64.5243" y2="64.5243"/><line style="stroke:#33B2E2;stroke-width:1.0416666666666667;" x1="325.5208" x2="433.8542" y1="72.8577" y2="72.8577"/></g><!--entity circle--><g id="elem_circle"><ellipse cx="481.7708" cy="49.6236" fill="#D95555" rx="8.3333" ry="8.3333" style="stroke:#CF2A2A;stroke-width:1.0416666666666667;"/><text fill="#5A5A5A" font-family="&quot;Verdana&quot;" font-size="12.5" lengthAdjust="spacing" textLength="34.375" x="464.5833" y="87.2681">circle</text></g><!--entity circle_short_form--><g id="elem_circle_short_form"><ellipse cx="72.3958" cy="163.1653" fill="#D95555" rx="8.3333" ry="8.3333" style="stroke:#CF2A2A;stroke-width:1.0416666666666667;"/><text fill="#5A5A5A" font-family="&quot;Verdana&quot;" font-size="12.5" lengthAdjust="spacing" textLength="110.4167" x="17.1875" y="200.8097">circle_short_form</text></g><!--class class--><g id="elem_class"><rect codeLine="11" fill="url(#gutkrqz37lc290)" height="57.0882" id="class" rx="10.4167" ry="10.4167" style="stroke:#33B2E2;stroke-width:1.0416666666666667;" width="79.1667" x="119.2708" y="137.6444"/><rect fill="url(#gutkrqz37lc290)" height="40.4215" rx="10.4167" ry="10.4167" style="stroke:url(#gutkrqz37lc290);stroke-width:1.0416666666666667;" width="79.1667" x="119.2708" y="137.6444"/><rect fill="url(#gutkrqz37lc290)" height="10.4167" style="stroke:url(#gutkrqz37lc290);stroke-width:1.0416666666666667;" width="79.1667" x="119.2708" y="167.6493"/><rect codeLine="11" fill="none" height="57.0882" id="class" rx="10.4167" ry="10.4167" style="stroke:#33B2E2;stroke-width:1.0416666666666667;" width="79.1667" x="119.2708" y="137.6444"/><ellipse cx="133.8542" cy="157.8552" fill="none" rx="10.4167" ry="10.4167" style="stroke:#007FAF;stroke-width:1.0416666666666667;"/><path d="M135.7585,162.2823 Q135.3353,162.4939 134.8633,162.6078 Q134.3913,162.7218 133.8867,162.7218 Q132.0313,162.7218 131.0547,161.5173 Q130.0944,160.2966 130.0944,158.0017 Q130.0944,155.6905 131.0547,154.4861 Q132.0313,153.2654 133.8867,153.2654 Q134.3913,153.2654 134.8633,153.3793 Q135.3516,153.477 135.7585,153.7048 L135.7585,155.7068 Q135.3027,155.2836 134.8633,155.0883 Q134.4238,154.8767 133.9681,154.8767 Q132.9753,154.8767 132.4707,155.6742 Q131.9661,156.4555 131.9661,158.0017 Q131.9661,159.5317 132.4707,160.3129 Q132.9753,161.0942 133.9681,161.0942 Q134.4238,161.0942 134.8633,160.8988 Q135.3027,160.7035 135.7585,160.2804 L135.7585,162.2823 Z " fill="#FFFFFF"/><text fill="#D2D2D2" font-family="&quot;Verdana&quot;" font-size="11.4583" lengthAdjust="spacing" textLength="31.25" x="155.7292" y="161.822">class</text><line style="stroke:#33B2E2;stroke-width:1.0416666666666667;" x1="120.3125" x2="197.3958" y1="178.066" y2="178.066"/><line style="stroke:#33B2E2;stroke-width:1.0416666666666667;" x1="120.3125" x2="197.3958" y1="186.3993" y2="186.3993"/></g><g id="elem_diamond"><polygon fill="url(#gutkrqz37lc291)" points="248.4375,153.7903,260.9375,166.2903,248.4375,178.7903,235.9375,166.2903,248.4375,153.7903" style="stroke:#C2C2C2;stroke-width:1.0416666666666667;"/></g><polygon fill="url(#gutkrqz37lc291)" points="310.9375,153.7903,323.4375,166.2903,310.9375,178.7903,298.4375,166.2903,310.9375,153.7903" style="stroke:#C2C2C2;stroke-width:1.0416666666666667;"/><!--class entity--><g id="elem_entity"><rect codeLine="14" fill="url(#gutkrqz37lc290)" height="57.0882" id="entity" rx="10.4167" ry="10.4167" style="stroke:#33B2E2;stroke-width:1.0416666666666667;" width="80.2083" x="32.2917" y="251.1861"/><rect fill="url(#gutkrqz37lc290)" height="40.4215" rx="10.4167" ry="10.4167" style="stroke:url(#gutkrqz37lc290);stroke-width:1.0416666666666667;" width="80.2083" x="32.2917" y="251.1861"/><rect fill="url(#gutkrqz37lc290)" height="10.4167" style="stroke:url(#gutkrqz37lc290);stroke-width:1.0416666666666667;" width="80.2083" x="32.2917" y="281.191"/><rect codeLine="14" fill="none" height="57.0882" id="entity" rx="10.4167" ry="10.4167" style="stroke:#33B2E2;stroke-width:1.0416666666666667;" width="80.2083" x="32.2917" y="251.1861"/><ellipse cx="46.875" cy="271.3969" fill="none" rx="10.4167" ry="10.4167" style="stroke:#007FAF;stroke-width:1.0416666666666667;"/><path d="M49.4141,276.0844 L43.7337,276.0844 L43.7337,266.9698 L49.4141,266.9698 L49.4141,268.5649 L45.5404,268.5649 L45.5404,270.518 L49.0397,270.518 L49.0397,272.113 L45.5404,272.113 L45.5404,274.4893 L49.4141,274.4893 L49.4141,276.0844 Z " fill="#FFFFFF"/><text fill="#D2D2D2" font-family="&quot;Verdana&quot;" font-size="11.4583" lengthAdjust="spacing" textLength="32.2917" x="68.75" y="275.3637">entity</text><line style="stroke:#33B2E2;stroke-width:1.0416666666666667;" x1="33.3333" x2="111.4583" y1="291.6077" y2="291.6077"/><line style="stroke:#33B2E2;stroke-width:1.0416666666666667;" x1="33.3333" x2="111.4583" y1="299.941" y2="299.941"/></g><!--class enum--><g id="elem_enum"><rect codeLine="15" fill="url(#gutkrqz37lc290)" height="57.0882" id="enum" rx="10.4167" ry="10.4167" style="stroke:#33B2E2;stroke-width:1.0416666666666667;" width="81.25" x="149.4792" y="251.1861"/><rect fill="url(#gutkrqz37lc290)" height="40.4215" rx="10.4167" ry="10.4167" style="stroke:url(#gutkrqz37lc290);stroke-width:1.0416666666666667;" width="81.25" x="149.4792" y="251.1861"/><rect fill="url(#gutkrqz37lc290)" height="10.4167" style="stroke:url(#gutkrqz37lc290);stroke-width:1.0416666666666667;" width="81.25" x="149.4792" y="281.191"/><rect codeLine="15" fill="none" height="57.0882" id="enum" rx="10.4167" ry="10.4167" style="stroke:#33B2E2;stroke-width:1.0416666666666667;" width="81.25" x="149.4792" y="251.1861"/><ellipse cx="164.0625" cy="271.3969" fill="none" rx="10.4167" ry="10.4167" style="stroke:#007FAF;stroke-width:1.0416666666666667;"/><path d="M166.6016,276.0844 L160.9212,276.0844 L160.9212,266.9698 L166.6016,266.9698 L166.6016,268.5649 L162.7279,268.5649 L162.7279,270.518 L166.2272,270.518 L166.2272,272.113 L162.7279,272.113 L162.7279,274.4893 L166.6016,274.4893 L166.6016,276.0844 Z " fill="#FFFFFF"/><text fill="#D2D2D2" font-family="&quot;Verdana&quot;" font-size="11.4583" lengthAdjust="spacing" textLength="33.3333" x="185.9375" y="275.3637">enum</text><line style="stroke:#33B2E2;stroke-width:1.0416666666666667;" x1="150.5208" x2="229.6875" y1="291.6077" y2="291.6077"/><line style="stroke:#33B2E2;stroke-width:1.0416666666666667;" x1="150.5208" x2="229.6875" y1="299.941" y2="299.941"/></g><!--class exception--><g id="elem_exception"><rect codeLine="16" fill="url(#gutkrqz37lc290)" height="57.0882" id="exception" rx="10.4167" ry="10.4167" style="stroke:#33B2E2;stroke-width:1.0416666666666667;" width="104.1667" x="268.2292" y="251.1861"/><rect fill="url(#gutkrqz37lc290)" height="40.4215" rx="10.4167" ry="10.4167" style="stroke:url(#gutkrqz37lc290);stroke-width:1.0416666666666667;" width="104.1667" x="268.2292" y="251.1861"/><rect fill="url(#gutkrqz37lc290)" height="10.4167" style="stroke:url(#gutkrqz37lc290);stroke-width:1.0416666666666667;" width="104.1667" x="268.2292" y="281.191"/><rect codeLine="16" fill="none" height="57.0882" id="exception" rx="10.4167" ry="10.4167" style="stroke:#33B2E2;stroke-width:1.0416666666666667;" width="104.1667" x="268.2292" y="251.1861"/><ellipse cx="282.8125" cy="271.3969" fill="none" rx="10.4167" ry="10.4167" style="stroke:#007FAF;stroke-width:1.0416666666666667;"/><path d="M286.0026,276.0844 L284.1471,276.0844 L282.4056,273.0733 L280.6803,276.0844 L278.8086,276.0844 L281.4779,271.462 L278.89,266.9698 L280.7454,266.9698 L282.4056,269.8669 L284.0658,266.9698 L285.9375,266.9698 L283.3496,271.462 L286.0026,276.0844 Z " fill="#FFFFFF"/><text fill="#D2D2D2" font-family="&quot;Verdana&quot;" font-size="11.4583" lengthAdjust="spacing" textLength="56.25" x="304.6875" y="275.3637">exception</text><line style="stroke:#33B2E2;stroke-width:1.0416666666666667;" x1="269.2708" x2="371.3542" y1="291.6077" y2="291.6077"/><line style="stroke:#33B2E2;stroke-width:1.0416666666666667;" x1="269.2708" x2="371.3542" y1="299.941" y2="299.941"/></g><!--class interface--><g id="elem_interface"><rect codeLine="17" fill="url(#gutkrqz37lc290)" height="57.0882" id="interface" rx="10.4167" ry="10.4167" style="stroke:#33B2E2;stroke-width:1.0416666666666667;" width="100" x="409.8958" y="251.1861"/><rect fill="url(#gutkrqz37lc290)" height="40.4215" rx="10.4167" ry="10.4167" style="stroke:url(#gutkrqz37lc290);stroke-width:1.0416666666666667;" width="100" x="409.8958" y="251.1861"/><rect fill="url(#gutkrqz37lc290)" height="10.4167" style="stroke:url(#gutkrqz37lc290);stroke-width:1.0416666666666667;" width="100" x="409.8958" y="281.191"/><rect codeLine="17" fill="none" height="57.0882" id="interface" rx="10.4167" ry="10.4167" style="stroke:#33B2E2;stroke-width:1.0416666666666667;" width="100" x="409.8958" y="251.1861"/><ellipse cx="424.4792" cy="271.3969" fill="none" rx="10.4167" ry="10.4167" style="stroke:#007FAF;stroke-width:1.0416666666666667;"/><path d="M421.3704,268.5649 L421.3704,266.9698 L426.7904,266.9698 L426.7904,268.5649 L424.9837,268.5649 L424.9837,274.4893 L426.7904,274.4893 L426.7904,276.0844 L421.3704,276.0844 L421.3704,274.4893 L423.1771,274.4893 L423.1771,268.5649 L421.3704,268.5649 Z " fill="#FFFFFF"/><text fill="#D2D2D2" font-family="&quot;Verdana&quot;" font-size="11.4583" font-style="italic" lengthAdjust="spacing" textLength="52.0833" x="446.3542" y="275.3637">interface</text><line style="stroke:#33B2E2;stroke-width:1.0416666666666667;" x1="410.9375" x2="508.8542" y1="291.6077" y2="291.6077"/><line style="stroke:#33B2E2;stroke-width:1.0416666666666667;" x1="410.9375" x2="508.8542" y1="299.941" y2="299.941"/></g><!--class metaclass--><g id="elem_metaclass"><rect codeLine="18" fill="url(#gutkrqz37lc290)" height="57.0882" id="metaclass" rx="10.4167" ry="10.4167" style="stroke:#33B2E2;stroke-width:1.0416666666666667;" width="109.375" x="17.7083" y="364.7278"/><rect fill="url(#gutkrqz37lc290)" height="40.4215" rx="10.4167" ry="10.4167" style="stroke:url(#gutkrqz37lc290);stroke-width:1.0416666666666667;" width="109.375" x="17.7083" y="364.7278"/><rect fill="url(#gutkrqz37lc290)" height="10.4167" style="stroke:url(#gutkrqz37lc290);stroke-width:1.0416666666666667;" width="109.375" x="17.7083" y="394.7327"/><rect codeLine="18" fill="none" height="57.0882" id="metaclass" rx="10.4167" ry="10.4167" style="stroke:#33B2E2;stroke-width:1.0416666666666667;" width="109.375" x="17.7083" y="364.7278"/><ellipse cx="32.2917" cy="384.9386" fill="none" rx="10.4167" ry="10.4167" style="stroke:#007FAF;stroke-width:1.0416666666666667;"/><path d="M28.6458,380.5115 L30.7943,380.5115 L31.8848,384.5154 L32.959,380.5115 L35.1237,380.5115 L35.1237,389.6261 L33.5775,389.6261 L33.5775,382.3181 L32.6172,386.3057 L31.1849,386.3057 L30.2083,382.3181 L30.2083,389.6261 L28.6458,389.6261 L28.6458,380.5115 Z " fill="#FFFFFF"/><text fill="#D2D2D2" font-family="&quot;Verdana&quot;" font-size="11.4583" lengthAdjust="spacing" textLength="61.4583" x="54.1667" y="388.9053">metaclass</text><line style="stroke:#33B2E2;stroke-width:1.0416666666666667;" x1="18.75" x2="126.0417" y1="405.1493" y2="405.1493"/><line style="stroke:#33B2E2;stroke-width:1.0416666666666667;" x1="18.75" x2="126.0417" y1="413.4827" y2="413.4827"/></g><!--class protocol--><g id="elem_protocol"><rect codeLine="19" fill="url(#gutkrqz37lc290)" height="57.0882" id="protocol" rx="10.4167" ry="10.4167" style="stroke:#33B2E2;stroke-width:1.0416666666666667;" width="95.8333" x="164.0625" y="364.7278"/><rect fill="url(#gutkrqz37lc290)" height="40.4215" rx="10.4167" ry="10.4167" style="stroke:url(#gutkrqz37lc290);stroke-width:1.0416666666666667;" width="95.8333" x="164.0625" y="364.7278"/><rect fill="url(#gutkrqz37lc290)" height="10.4167" style="stroke:url(#gutkrqz37lc290);stroke-width:1.0416666666666667;" width="95.8333" x="164.0625" y="394.7327"/><rect codeLine="19" fill="none" height="57.0882" id="protocol" rx="10.4167" ry="10.4167" style="stroke:#33B2E2;stroke-width:1.0416666666666667;" width="95.8333" x="164.0625" y="364.7278"/><ellipse cx="178.6458" cy="384.9386" fill="none" rx="10.4167" ry="10.4167" style="stroke:#007FAF;stroke-width:1.0416666666666667;"/><path d="M177.7832,382.0251 L177.7832,384.6944 L178.5319,384.6944 Q179.4108,384.6944 179.7689,384.4014 Q180.127,384.1085 180.127,383.3598 Q180.127,382.6274 179.7689,382.3344 Q179.4108,382.0251 178.5319,382.0251 L177.7832,382.0251 Z M175.9928,380.5115 L178.4668,380.5115 Q180.3548,380.5115 181.1686,381.1951 Q181.9987,381.8624 181.9987,383.3598 Q181.9987,384.8735 181.1686,385.5408 Q180.3548,386.2081 178.4668,386.2081 L177.7832,386.2081 L177.7832,389.6261 L175.9928,389.6261 L175.9928,380.5115 Z " fill="#FFFFFF"/><text fill="#D2D2D2" font-family="&quot;Verdana&quot;" font-size="11.4583" lengthAdjust="spacing" textLength="47.9167" x="200.5208" y="388.9053">protocol</text><line style="stroke:#33B2E2;stroke-width:1.0416666666666667;" x1="165.1042" x2="258.8542" y1="405.1493" y2="405.1493"/><line style="stroke:#33B2E2;stroke-width:1.0416666666666667;" x1="165.1042" x2="258.8542" y1="413.4827" y2="413.4827"/></g><!--class stereotype--><g id="elem_stereotype"><rect codeLine="20" fill="url(#gutkrqz37lc290)" height="57.0882" id="stereotype" rx="10.4167" ry="10.4167" style="stroke:#33B2E2;stroke-width:1.0416666666666667;" width="111.4583" x="296.875" y="364.7278"/><rect fill="url(#gutkrqz37lc290)" height="40.4215" rx="10.4167" ry="10.4167" style="stroke:url(#gutkrqz37lc290);stroke-width:1.0416666666666667;" width="111.4583" x="296.875" y="364.7278"/><rect fill="url(#gutkrqz37lc290)" height="10.4167" style="stroke:url(#gutkrqz37lc290);stroke-width:1.0416666666666667;" width="111.4583" x="296.875" y="394.7327"/><rect codeLine="20" fill="none" height="57.0882" id="stereotype" rx="10.4167" ry="10.4167" style="stroke:#33B2E2;stroke-width:1.0416666666666667;" width="111.4583" x="296.875" y="364.7278"/><ellipse cx="311.4583" cy="384.9386" fill="none" rx="10.4167" ry="10.4167" style="stroke:#007FAF;stroke-width:1.0416666666666667;"/><path d="M310.4004,385.6222 Q309.0495,385.1013 308.5612,384.5317 Q308.0729,383.962 308.0729,383.0017 Q308.0729,381.7647 308.8704,381.0649 Q309.668,380.3487 311.0514,380.3487 Q311.6862,380.3487 312.3047,380.4952 Q312.9395,380.6417 313.5579,380.9184 L313.5579,382.6762 Q312.972,382.2693 312.3698,382.0577 Q311.7839,381.8298 311.1979,381.8298 Q310.5469,381.8298 310.1888,382.1065 Q309.847,382.3669 309.847,382.8552 Q309.847,383.2296 310.0911,383.4737 Q310.3516,383.7179 311.1491,384.0271 L311.9303,384.3201 Q313.0371,384.7107 313.5417,385.378 Q314.0625,386.0453 314.0625,387.0544 Q314.0625,388.4379 313.2487,389.1215 Q312.4349,389.8051 310.791,389.8051 Q310.1074,389.8051 309.4238,389.6423 Q308.7565,389.4796 308.1217,389.1541 L308.1217,387.2986 Q308.8379,387.8194 309.5052,388.0636 Q310.1888,388.3077 310.8398,388.3077 Q311.5072,388.3077 311.8652,388.0147 Q312.2396,387.7055 312.2396,387.1684 Q312.2396,386.7615 311.9954,386.4522 Q311.7513,386.143 311.2956,385.9639 L310.4004,385.6222 Z " fill="#FFFFFF"/><text fill="#D2D2D2" font-family="&quot;Verdana&quot;" font-size="11.4583" lengthAdjust="spacing" textLength="63.5417" x="333.3333" y="388.9053">stereotype</text><line style="stroke:#33B2E2;stroke-width:1.0416666666666667;" x1="297.9167" x2="407.2917" y1="405.1493" y2="405.1493"/><line style="stroke:#33B2E2;stroke-width:1.0416666666666667;" x1="297.9167" x2="407.2917" y1="413.4827" y2="413.4827"/></g><!--class struct--><g id="elem_struct"><rect codeLine="21" fill="url(#gutkrqz37lc290)" height="57.0882" id="struct" rx="10.4167" ry="10.4167" style="stroke:#33B2E2;stroke-width:1.0416666666666667;" width="82.2917" x="445.8333" y="364.7278"/><rect fill="url(#gutkrqz37lc290)" height="40.4215" rx="10.4167" ry="10.4167" style="stroke:url(#gutkrqz37lc290);stroke-width:1.0416666666666667;" width="82.2917" x="445.8333" y="364.7278"/><rect fill="url(#gutkrqz37lc290)" height="10.4167" style="stroke:url(#gutkrqz37lc290);stroke-width:1.0416666666666667;" width="82.2917" x="445.8333" y="394.7327"/><rect codeLine="21" fill="none" height="57.0882" id="struct" rx="10.4167" ry="10.4167" style="stroke:#33B2E2;stroke-width:1.0416666666666667;" width="82.2917" x="445.8333" y="364.7278"/><ellipse cx="460.4167" cy="384.9386" fill="none" rx="10.4167" ry="10.4167" style="stroke:#007FAF;stroke-width:1.0416666666666667;"/><path d="M459.3587,385.6222 Q458.0078,385.1013 457.5195,384.5317 Q457.0313,383.962 457.0313,383.0017 Q457.0313,381.7647 457.8288,381.0649 Q458.6263,380.3487 460.0098,380.3487 Q460.6445,380.3487 461.263,380.4952 Q461.8978,380.6417 462.5163,380.9184 L462.5163,382.6762 Q461.9303,382.2693 461.3281,382.0577 Q460.7422,381.8298 460.1563,381.8298 Q459.5052,381.8298 459.1471,382.1065 Q458.8053,382.3669 458.8053,382.8552 Q458.8053,383.2296 459.0495,383.4737 Q459.3099,383.7179 460.1074,384.0271 L460.8887,384.3201 Q461.9954,384.7107 462.5,385.378 Q463.0208,386.0453 463.0208,387.0544 Q463.0208,388.4379 462.207,389.1215 Q461.3932,389.8051 459.7493,389.8051 Q459.0658,389.8051 458.3822,389.6423 Q457.7148,389.4796 457.0801,389.1541 L457.0801,387.2986 Q457.7962,387.8194 458.4635,388.0636 Q459.1471,388.3077 459.7982,388.3077 Q460.4655,388.3077 460.8236,388.0147 Q461.1979,387.7055 461.1979,387.1684 Q461.1979,386.7615 460.9538,386.4522 Q460.7096,386.143 460.2539,385.9639 L459.3587,385.6222 Z " fill="#FFFFFF"/><text fill="#D2D2D2" font-family="&quot;Verdana&quot;" font-size="11.4583" lengthAdjust="spacing" textLength="34.375" x="482.2917" y="388.9053">struct</text><line style="stroke:#33B2E2;stroke-width:1.0416666666666667;" x1="446.875" x2="527.0833" y1="405.1493" y2="405.1493"/><line style="stroke:#33B2E2;stroke-width:1.0416666666666667;" x1="446.875" x2="527.0833" y1="413.4827" y2="413.4827"/></g></g></svg>