<?xml version="1.0" encoding="UTF-8" standalone="no"?><svg xmlns="http://www.w3.org/2000/svg" xmlns:xlink="http://www.w3.org/1999/xlink" contentScriptType="application/ecmascript" contentStyleType="text/css" height="592.7083px" preserveAspectRatio="none" style="width:777px;height:592px;background:#00000000;" version="1.1" viewBox="0 0 777 592" width="777.0833px" zoomAndPan="magnify"><defs/><g><!--MD5=[b4fa10df80476353258f72a232547d63]
class AbstractList--><rect codeLine="6" height="60.7259" id="AbstractList" rx="10.4167" ry="10.4167" style="stroke:#007FAF;stroke-width:1.0416666666666667;fill:none;" width="131.25" x="232.8125" y="285.0911"/><ellipse cx="247.3958" cy="307.1208" fill="#C4CA33" rx="10.4167" ry="10.4167" style="stroke:#919700;stroke-width:1.0416666666666667;"/><path d="M246.9889,304.0771 L246.1426,307.8044 L247.8516,307.8044 L246.9889,304.0771 Z M245.8984,302.4333 L248.0957,302.4333 L250.5534,311.5479 L248.7467,311.5479 L248.1934,309.3018 L245.7845,309.3018 L245.2311,311.5479 L243.4245,311.5479 L245.8984,302.4333 Z " fill="#000000"/><text fill="#FFFFFF" font-family="&quot;Verdana&quot;" font-size="14.5833" font-style="italic" lengthAdjust="spacing" textLength="83.3333" x="269.2708" y="312.1694">AbstractList</text><line style="stroke:#007FAF;stroke-width:1.0416666666666667;" x1="233.8542" x2="363.0208" y1="329.1504" y2="329.1504"/><line style="stroke:#007FAF;stroke-width:1.0416666666666667;" x1="233.8542" x2="363.0208" y1="337.4837" y2="337.4837"/><!--MD5=[8e34b16d8d8f96f4a11290cd523ed859]
class AbstractCollection--><rect codeLine="7" height="60.7259" id="AbstractCollection" rx="10.4167" ry="10.4167" style="stroke:#007FAF;stroke-width:1.0416666666666667;fill:none;" width="178.125" x="17.7083" y="285.0911"/><ellipse cx="32.2917" cy="307.1208" fill="#C4CA33" rx="10.4167" ry="10.4167" style="stroke:#919700;stroke-width:1.0416666666666667;"/><path d="M31.8848,304.0771 L31.0384,307.8044 L32.7474,307.8044 L31.8848,304.0771 Z M30.7943,302.4333 L32.9915,302.4333 L35.4492,311.5479 L33.6426,311.5479 L33.0892,309.3018 L30.6803,309.3018 L30.127,311.5479 L28.3203,311.5479 L30.7943,302.4333 Z " fill="#000000"/><text fill="#FFFFFF" font-family="&quot;Verdana&quot;" font-size="14.5833" font-style="italic" lengthAdjust="spacing" textLength="130.2083" x="54.1667" y="312.1694">AbstractCollection</text><line style="stroke:#007FAF;stroke-width:1.0416666666666667;" x1="18.75" x2="194.7917" y1="329.1504" y2="329.1504"/><line style="stroke:#007FAF;stroke-width:1.0416666666666667;" x1="18.75" x2="194.7917" y1="337.4837" y2="337.4837"/><!--MD5=[3d4177ac58b4411586d067f34e84928f]
class List--><rect codeLine="8" height="60.7259" id="List" rx="10.4167" ry="10.4167" style="stroke:#007FAF;stroke-width:1.0416666666666667;fill:none;" width="71.875" x="229.1667" y="67.3828"/><ellipse cx="243.75" cy="89.4124" fill="#D95555" rx="10.4167" ry="10.4167" style="stroke:#A62222;stroke-width:1.0416666666666667;"/><path d="M240.6413,86.5804 L240.6413,84.9854 L246.0612,84.9854 L246.0612,86.5804 L244.2546,86.5804 L244.2546,92.5049 L246.0612,92.5049 L246.0612,94.0999 L240.6413,94.0999 L240.6413,92.5049 L242.4479,92.5049 L242.4479,86.5804 L240.6413,86.5804 Z " fill="#000000"/><text fill="#FFFFFF" font-family="&quot;Verdana&quot;" font-size="14.5833" font-style="italic" lengthAdjust="spacing" textLength="23.9583" x="265.625" y="94.4611">List</text><line style="stroke:#007FAF;stroke-width:1.0416666666666667;" x1="230.2083" x2="300" y1="111.4421" y2="111.4421"/><line style="stroke:#007FAF;stroke-width:1.0416666666666667;" x1="230.2083" x2="300" y1="119.7754" y2="119.7754"/><!--MD5=[c160724f8e3bb89ca8141a12554ac2e3]
class Collection--><rect codeLine="9" height="60.7259" id="Collection" rx="10.4167" ry="10.4167" style="stroke:#007FAF;stroke-width:1.0416666666666667;fill:none;" width="118.75" x="58.8542" y="67.3828"/><ellipse cx="73.4375" cy="89.4124" fill="#D95555" rx="10.4167" ry="10.4167" style="stroke:#A62222;stroke-width:1.0416666666666667;"/><path d="M70.3288,86.5804 L70.3288,84.9854 L75.7487,84.9854 L75.7487,86.5804 L73.9421,86.5804 L73.9421,92.5049 L75.7487,92.5049 L75.7487,94.0999 L70.3288,94.0999 L70.3288,92.5049 L72.1354,92.5049 L72.1354,86.5804 L70.3288,86.5804 Z " fill="#000000"/><text fill="#FFFFFF" font-family="&quot;Verdana&quot;" font-size="14.5833" font-style="italic" lengthAdjust="spacing" textLength="70.8333" x="95.3125" y="94.4611">Collection</text><line style="stroke:#007FAF;stroke-width:1.0416666666666667;" x1="59.8958" x2="176.5625" y1="111.4421" y2="111.4421"/><line style="stroke:#007FAF;stroke-width:1.0416666666666667;" x1="59.8958" x2="176.5625" y1="119.7754" y2="119.7754"/><!--MD5=[ab8871ed637f40707b866ba6597734bc]
class ArrayList--><rect codeLine="18" height="128.0111" id="ArrayList" rx="10.4167" ry="10.4167" style="stroke:#007FAF;stroke-width:1.0416666666666667;fill:none;" width="183.3333" x="206.7708" y="452.2786"/><ellipse cx="256.25" cy="474.3083" fill="#F5F5F5" rx="10.4167" ry="10.4167" style="stroke:#C2C2C2;stroke-width:1.0416666666666667;"/><path d="M258.1543,478.7354 Q257.7311,478.9469 257.2591,479.0609 Q256.7871,479.1748 256.2826,479.1748 Q254.4271,479.1748 253.4505,477.9704 Q252.4902,476.7497 252.4902,474.4548 Q252.4902,472.1436 253.4505,470.9391 Q254.4271,469.7184 256.2826,469.7184 Q256.7871,469.7184 257.2591,469.8324 Q257.7474,469.93 258.1543,470.1579 L258.1543,472.1598 Q257.6986,471.7367 257.2591,471.5413 Q256.8197,471.3298 256.3639,471.3298 Q255.3711,471.3298 254.8665,472.1273 Q254.362,472.9085 254.362,474.4548 Q254.362,475.9847 254.8665,476.766 Q255.3711,477.5472 256.3639,477.5472 Q256.8197,477.5472 257.2591,477.3519 Q257.6986,477.1566 258.1543,476.7334 L258.1543,478.7354 Z " fill="#000000"/><text fill="#FFFFFF" font-family="&quot;Verdana&quot;" font-size="14.5833" lengthAdjust="spacing" textLength="59.375" x="284.375" y="479.3569">ArrayList</text><line style="stroke:#007FAF;stroke-width:1.0416666666666667;" x1="207.8125" x2="389.0625" y1="496.3379" y2="496.3379"/><text fill="#FFFFFF" font-family="&quot;Verdana&quot;" font-size="14.5833" lengthAdjust="spacing" textLength="154.1667" x="221.3542" y="522.3745">Object[] elementData</text><line style="stroke:#007FAF;stroke-width:1.0416666666666667;" x1="207.8125" x2="389.0625" y1="538.3138" y2="538.3138"/><text fill="#FFFFFF" font-family="&quot;Verdana&quot;" font-size="14.5833" lengthAdjust="spacing" textLength="39.5833" x="221.3542" y="564.3504">size()</text><!--MD5=[15b68e006199004da79ea2a4d117d8e9]
class TimeUnit--><rect codeLine="23" height="161.6536" id="TimeUnit" rx="10.4167" ry="10.4167" style="stroke:#007FAF;stroke-width:1.0416666666666667;fill:none;" width="111.4583" x="433.3333" y="16.862"/><ellipse cx="447.9167" cy="38.8916" fill="#EE9033" rx="10.4167" ry="10.4167" style="stroke:#BB5D00;stroke-width:1.0416666666666667;"/><path d="M450.4557,43.5791 L444.7754,43.5791 L444.7754,34.4645 L450.4557,34.4645 L450.4557,36.0596 L446.582,36.0596 L446.582,38.0127 L450.0814,38.0127 L450.0814,39.6077 L446.582,39.6077 L446.582,41.984 L450.4557,41.984 L450.4557,43.5791 Z " fill="#000000"/><text fill="#FFFFFF" font-family="&quot;Verdana&quot;" font-size="14.5833" lengthAdjust="spacing" textLength="63.5417" x="469.7917" y="43.9402">TimeUnit</text><line style="stroke:#007FAF;stroke-width:1.0416666666666667;" x1="434.375" x2="543.75" y1="60.9212" y2="60.9212"/><text fill="#FFFFFF" font-family="&quot;Verdana&quot;" font-size="14.5833" lengthAdjust="spacing" textLength="39.5833" x="447.9167" y="86.9578">DAYS</text><text fill="#FFFFFF" font-family="&quot;Verdana&quot;" font-size="14.5833" lengthAdjust="spacing" textLength="52.0833" x="447.9167" y="120.6004">HOURS</text><text fill="#FFFFFF" font-family="&quot;Verdana&quot;" font-size="14.5833" lengthAdjust="spacing" textLength="64.5833" x="447.9167" y="154.243">MINUTES</text><line style="stroke:#007FAF;stroke-width:1.0416666666666667;" x1="434.375" x2="543.75" y1="170.1823" y2="170.1823"/><!--MD5=[0c8287f799745f7b534bf75518604c1e]
class SuppressWarnings--><rect codeLine="29" height="60.7259" id="SuppressWarnings" rx="10.4167" ry="10.4167" style="stroke:#007FAF;stroke-width:1.0416666666666667;fill:none;" width="183.3333" x="581.7708" y="67.3828"/><ellipse cx="596.3542" cy="89.4124" fill="#3786BE" rx="10.4167" ry="10.4167" style="stroke:#04538B;stroke-width:1.0416666666666667;"/><path d="M597.6074,89.2171 Q597.6074,88.5173 597.2982,88.1266 Q596.9889,87.736 596.4355,87.736 Q595.8984,87.736 595.5892,88.1266 Q595.2799,88.5173 595.2799,89.2171 Q595.2799,89.9007 595.5892,90.2913 Q595.8984,90.682 596.4355,90.682 Q596.9889,90.682 597.2982,90.2913 Q597.6074,89.9007 597.6074,89.2171 Z M598.7467,91.7074 L597.5423,91.7074 L597.5423,91.2191 Q597.3145,91.5283 596.9889,91.6911 Q596.6797,91.8376 596.2402,91.8376 Q595.2474,91.8376 594.6289,91.1214 Q594.0104,90.389 594.0104,89.2171 Q594.0104,88.029 594.6126,87.3128 Q595.2311,86.5967 596.2402,86.5967 Q596.6797,86.5967 597.0052,86.7432 Q597.3307,86.8896 597.5423,87.1826 L597.5423,86.9385 Q597.5423,86.1084 597.0866,85.6527 Q596.6309,85.1969 595.8008,85.1969 Q594.5313,85.1969 593.7174,86.32 Q592.9199,87.4268 592.9199,89.2171 Q592.9199,91.0889 593.8477,92.2119 Q594.7754,93.3187 596.3216,93.3187 Q596.8099,93.3187 597.2656,93.1722 Q597.7214,93.0257 598.1445,92.7327 L598.6979,93.807 Q598.2096,94.1488 597.6237,94.3115 Q597.0378,94.4906 596.3867,94.4906 Q594.2383,94.4906 592.9688,93.0583 Q591.6992,91.6423 591.6992,89.2171 Q591.6992,86.8571 592.8385,85.4411 Q593.9941,84.0251 595.8659,84.0251 Q597.2005,84.0251 597.9655,84.8226 Q598.7467,85.6201 598.7467,87.0199 L598.7467,91.7074 Z " fill="#000000"/><text fill="#FFFFFF" font-family="&quot;Verdana&quot;" font-size="14.5833" lengthAdjust="spacing" textLength="135.4167" x="618.2292" y="94.4611">SuppressWarnings</text><line style="stroke:#007FAF;stroke-width:1.0416666666666667;" x1="582.8125" x2="764.0625" y1="111.4421" y2="111.4421"/><line style="stroke:#007FAF;stroke-width:1.0416666666666667;" x1="582.8125" x2="764.0625" y1="119.7754" y2="119.7754"/><!--MD5=[faebc81c07309c527f2fda51bf6b78ab]
class Annotation--><rect codeLine="31" height="161.6536" id="Annotation" rx="10.4167" ry="10.4167" style="stroke:#007FAF;stroke-width:1.0416666666666667;fill:none;" width="212.5" x="382.8125" y="234.5703"/><ellipse cx="437.5" cy="256.5999" fill="#3786BE" rx="10.4167" ry="10.4167" style="stroke:#04538B;stroke-width:1.0416666666666667;"/><path d="M438.7533,256.4046 Q438.7533,255.7048 438.444,255.3141 Q438.1348,254.9235 437.5814,254.9235 Q437.0443,254.9235 436.735,255.3141 Q436.4258,255.7048 436.4258,256.4046 Q436.4258,257.0882 436.735,257.4788 Q437.0443,257.8695 437.5814,257.8695 Q438.1348,257.8695 438.444,257.4788 Q438.7533,257.0882 438.7533,256.4046 Z M439.8926,258.8949 L438.6882,258.8949 L438.6882,258.4066 Q438.4603,258.7158 438.1348,258.8786 Q437.8255,259.0251 437.3861,259.0251 Q436.3932,259.0251 435.7747,258.3089 Q435.1563,257.5765 435.1563,256.4046 Q435.1563,255.2165 435.7585,254.5003 Q436.377,253.7842 437.3861,253.7842 Q437.8255,253.7842 438.151,253.9307 Q438.4766,254.0771 438.6882,254.3701 L438.6882,254.126 Q438.6882,253.2959 438.2324,252.8402 Q437.7767,252.3844 436.9466,252.3844 Q435.6771,252.3844 434.8633,253.5075 Q434.0658,254.6143 434.0658,256.4046 Q434.0658,258.2764 434.9935,259.3994 Q435.9212,260.5062 437.4674,260.5062 Q437.9557,260.5062 438.4115,260.3597 Q438.8672,260.2132 439.2904,259.9202 L439.8438,260.9945 Q439.3555,261.3363 438.7695,261.499 Q438.1836,261.6781 437.5326,261.6781 Q435.3841,261.6781 434.1146,260.2458 Q432.8451,258.8298 432.8451,256.4046 Q432.8451,254.0446 433.9844,252.6286 Q435.14,251.2126 437.0117,251.2126 Q438.3464,251.2126 439.1113,252.0101 Q439.8926,252.8076 439.8926,254.2074 L439.8926,258.8949 Z " fill="#000000"/><text fill="#FFFFFF" font-family="&quot;Verdana&quot;" font-size="14.5833" lengthAdjust="spacing" textLength="78.125" x="465.625" y="261.6486">Annotation</text><line style="stroke:#007FAF;stroke-width:1.0416666666666667;" x1="383.8542" x2="594.2708" y1="278.6296" y2="278.6296"/><text fill="#FFFFFF" font-family="&quot;Verdana&quot;" font-size="14.5833" lengthAdjust="spacing" textLength="183.3333" x="397.3958" y="304.6661">annotation with members</text><line style="stroke:#007FAF;stroke-width:1.0416666666666667;" x1="383.8542" x2="594.2708" y1="320.6055" y2="320.6055"/><text fill="#FFFFFF" font-family="&quot;Verdana&quot;" font-size="14.5833" lengthAdjust="spacing" textLength="79.1667" x="397.3958" y="346.642">String foo()</text><text fill="#FFFFFF" font-family="&quot;Verdana&quot;" font-size="14.5833" lengthAdjust="spacing" textLength="79.1667" x="397.3958" y="380.2846">String bar()</text><path d="M269.6691,128.1624 C276.0524,169.4543 287.5741,243.9854 293.9277,285.0848 " fill="none" style="stroke:#009FDB;stroke-width:3.125;"/><polygon points="269.6691,128.1624,266.0387,145.5883,278.392,143.6786,269.6691,128.1624" style="stroke:#009FDB;stroke-width:1.0416666666666667;fill:none;"/><path d="M116.66,128.1624 C114.4657,169.4543 110.5051,243.9854 108.3211,285.0848 " fill="none" style="stroke:#009FDB;stroke-width:3.125;"/><polygon points="116.66,128.1624,109.5343,144.474,122.0167,145.1373,116.66,128.1624" style="stroke:#009FDB;stroke-width:1.0416666666666667;fill:none;"/><path d="M177.9689,97.5911 C195.2825,97.5911 213.6492,97.5911 229.0334,97.5911 " fill="none" style="stroke:#009FDB;stroke-width:3.125;"/><polygon points="177.9689,97.5911,194.6355,103.8411,194.6355,91.3411,177.9689,97.5911" style="stroke:#009FDB;stroke-width:1.0416666666666667;fill:none;"/><path d="M195.8708,315.2995 C208.2862,315.2995 220.853,315.2995 232.7323,315.2995 " fill="none" style="stroke:#009FDB;stroke-width:3.125;"/><polygon points="195.8708,315.2995,212.5375,321.5495,212.5375,309.0495,195.8708,315.2995" style="stroke:#009FDB;stroke-width:1.0416666666666667;fill:none;"/><path d="M298.4375,345.6981 C298.4375,373.5861 298.4375,416.4337 298.4375,452.083 " fill="none" style="stroke:#009FDB;stroke-width:3.125;"/><polygon points="298.4375,345.6981,292.1875,362.3648,304.6875,362.3648,298.4375,345.6981" style="stroke:#009FDB;stroke-width:1.0416666666666667;fill:none;"/></g></svg>