<?xml version="1.0" encoding="us-ascii" standalone="no"?><svg xmlns="http://www.w3.org/2000/svg" xmlns:xlink="http://www.w3.org/1999/xlink" contentStyleType="text/css" height="295px" preserveAspectRatio="none" style="width:371px;height:295px;background:#777777;" version="1.1" viewBox="0 0 371 295" width="371px" zoomAndPan="magnify"><defs/><g><rect fill="#777777" height="295" style="stroke:none;stroke-width:1.0;" width="371" x="0" y="0"/><!--class abstract--><g id="elem_abstract"><rect codeLine="6" fill="#2E2E2E" height="42" id="abstract" rx="2.5" ry="2.5" style="stroke:#1B1B1B;stroke-width:0.5;" width="72" x="12.5" y="12"/><ellipse cx="24.5" cy="25" fill="#A9DCDF" rx="8" ry="8" style="stroke:#181818;stroke-width:1.0;"/><path d="M26.375,26.7813 L23.1406,26.7813 L22.625,28.25 L20.5469,28.25 L23.5313,20.2344 L25.9844,20.2344 L28.9531,28.25 L26.875,28.25 L26.375,26.7813 Z M23.6563,25.2969 L25.8594,25.2969 L24.7656,22.1094 L23.6563,25.2969 Z " fill="#000000"/><text fill="#AAAAAA" font-family="Verdana" font-size="11" font-style="italic" lengthAdjust="spacing" textLength="46" x="35.5" y="28.8081">abstract</text><line style="stroke:#1B1B1B;stroke-width:0.5;" x1="13.5" x2="83.5" y1="38" y2="38"/><line style="stroke:#1B1B1B;stroke-width:0.5;" x1="13.5" x2="83.5" y1="46" y2="46"/></g><!--class abstract class--><g id="elem_abstract class"><rect codeLine="7" fill="#2E2E2E" height="42" id="abstract class" rx="2.5" ry="2.5" style="stroke:#1B1B1B;stroke-width:0.5;" width="104" x="102.5" y="12"/><ellipse cx="114.5" cy="25" fill="#A9DCDF" rx="8" ry="8" style="stroke:#181818;stroke-width:1.0;"/><path d="M116.375,26.7813 L113.1406,26.7813 L112.625,28.25 L110.5469,28.25 L113.5313,20.2344 L115.9844,20.2344 L118.9531,28.25 L116.875,28.25 L116.375,26.7813 Z M113.6563,25.2969 L115.8594,25.2969 L114.7656,22.1094 L113.6563,25.2969 Z " fill="#000000"/><text fill="#AAAAAA" font-family="Verdana" font-size="11" font-style="italic" lengthAdjust="spacing" textLength="78" x="125.5" y="28.8081">abstract class</text><line style="stroke:#1B1B1B;stroke-width:0.5;" x1="103.5" x2="205.5" y1="38" y2="38"/><line style="stroke:#1B1B1B;stroke-width:0.5;" x1="103.5" x2="205.5" y1="46" y2="46"/></g><!--class annotation--><g id="elem_annotation"><rect codeLine="8" fill="#2E2E2E" height="42" id="annotation" rx="2.5" ry="2.5" style="stroke:#1B1B1B;stroke-width:0.5;" width="86" x="224.5" y="12"/><ellipse cx="236.5" cy="25" fill="#E3664A" rx="8" ry="8" style="stroke:#181818;stroke-width:1.0;"/><path d="M234.9688,25.1094 Q234.9688,25.7656 235.25,26.1563 Q235.5313,26.5313 236.0156,26.5313 Q236.4844,26.5313 236.7656,26.1563 Q237.0625,25.7656 237.0625,25.1094 Q237.0625,24.4531 236.7656,24.0781 Q236.4844,23.7031 236,23.7031 Q235.5313,23.7031 235.25,24.0781 Q234.9688,24.4531 234.9688,25.1094 Z M237.1719,26.7188 Q237,27.1094 236.6406,27.3281 Q236.2969,27.5313 235.8125,27.5313 Q234.8906,27.5313 234.3125,26.8594 Q233.7344,26.1875 233.7344,25.1094 Q233.7344,24.0469 234.3125,23.375 Q234.8906,22.7031 235.8125,22.7031 Q236.2969,22.7031 236.6406,22.9219 Q237,23.125 237.1719,23.5156 L237.1719,22.8125 L238.2813,22.8125 L238.2813,26.5313 Q238.9531,26.4219 239.3281,25.8906 Q239.7188,25.3438 239.7188,24.5 Q239.7188,23.9688 239.5625,23.5 Q239.4063,23.0313 239.0938,22.6406 Q238.5781,21.9844 237.8125,21.625 Q237.0469,21.2656 236.1563,21.2656 Q235.5313,21.2656 234.9531,21.4375 Q234.3906,21.5938 233.9063,21.9219 Q233.1094,22.4375 232.6719,23.2813 Q232.2344,24.1094 232.2344,25.0781 Q232.2344,25.8906 232.5156,26.5938 Q232.7969,27.2813 233.3438,27.8281 Q233.8906,28.3438 234.5781,28.625 Q235.2813,28.9063 236.0625,28.9063 Q236.7344,28.9063 237.4063,28.6406 Q238.0938,28.3906 238.5781,27.9688 L239.1406,28.8438 Q238.4688,29.3594 237.6719,29.625 Q236.8906,29.9063 236.0781,29.9063 Q235.0781,29.9063 234.1875,29.5469 Q233.3125,29.2031 232.625,28.5313 Q231.9375,27.8594 231.5781,26.9844 Q231.2188,26.0938 231.2188,25.0781 Q231.2188,24.1094 231.5781,23.2188 Q231.9531,22.3281 232.625,21.6563 Q233.3125,21 234.2031,20.6406 Q235.1094,20.2656 236.0781,20.2656 Q237.2813,20.2656 238.2656,20.7344 Q239.25,21.1875 239.9063,22.0469 Q240.3125,22.5781 240.5156,23.2031 Q240.7188,23.8125 240.7188,24.4844 Q240.7188,25.9375 239.8438,26.75 Q238.9688,27.5469 237.375,27.5469 L237.1719,27.5469 L237.1719,26.7188 Z " fill="#000000"/><text fill="#AAAAAA" font-family="Verdana" font-size="11" lengthAdjust="spacing" textLength="60" x="247.5" y="28.8081">annotation</text><line style="stroke:#1B1B1B;stroke-width:0.5;" x1="225.5" x2="309.5" y1="38" y2="38"/><line style="stroke:#1B1B1B;stroke-width:0.5;" x1="225.5" x2="309.5" y1="46" y2="46"/></g><!--entity circle--><g id="elem_circle"><ellipse cx="337.5" cy="30" fill="#228811" rx="8" ry="8" style="stroke:#113300;stroke-width:0.5;"/><text fill="#FFFFFF" font-family="Verdana" font-size="11" lengthAdjust="spacing" textLength="30" x="322.5" y="57.2104">circle</text></g><!--entity circle_short_form--><g id="elem_circle_short_form"><ellipse cx="48.5" cy="108" fill="#228811" rx="8" ry="8" style="stroke:#113300;stroke-width:0.5;"/><text fill="#FFFFFF" font-family="Verdana" font-size="11" lengthAdjust="spacing" textLength="99" x="-1" y="135.2104">circle_short_form</text></g><!--class class--><g id="elem_class"><rect codeLine="11" fill="#2E2E2E" height="42" id="class" rx="2.5" ry="2.5" style="stroke:#1B1B1B;stroke-width:0.5;" width="56" x="75.5" y="90"/><ellipse cx="87.5" cy="103" fill="#ADD1B2" rx="8" ry="8" style="stroke:#181818;stroke-width:1.0;"/><path d="M89.625,106.5625 Q89.0469,106.8594 88.4219,107 Q87.8125,107.1563 87.1406,107.1563 Q85.1406,107.1563 83.9688,106.0469 Q82.7969,104.9219 82.7969,103 Q82.7969,101.0781 83.9688,99.9531 Q85.1406,98.8281 87.1406,98.8281 Q87.8125,98.8281 88.4219,98.9844 Q89.0469,99.1406 89.625,99.4375 L89.625,101.0938 Q89.0469,100.7031 88.4844,100.5156 Q87.9219,100.3281 87.3125,100.3281 Q86.2031,100.3281 85.5625,101.0469 Q84.9375,101.75 84.9375,103 Q84.9375,104.2344 85.5625,104.9531 Q86.2031,105.6563 87.3125,105.6563 Q87.9219,105.6563 88.4844,105.4844 Q89.0469,105.2969 89.625,104.9063 L89.625,106.5625 Z " fill="#000000"/><text fill="#AAAAAA" font-family="Verdana" font-size="11" lengthAdjust="spacing" textLength="30" x="98.5" y="106.8081">class</text><line style="stroke:#1B1B1B;stroke-width:0.5;" x1="76.5" x2="130.5" y1="116" y2="116"/><line style="stroke:#1B1B1B;stroke-width:0.5;" x1="76.5" x2="130.5" y1="124" y2="124"/></g><g id="elem_diamond"><polygon fill="#2E2E2E" points="161.5,99,173.5,111,161.5,123,149.5,111,161.5,99" style="stroke:#1B1B1B;stroke-width:0.5;"/></g><polygon fill="#F1F1F1" points="203.5,99,215.5,111,203.5,123,191.5,111,203.5,99" style="stroke:#181818;stroke-width:0.5;"/><!--class entity--><g id="elem_entity"><rect codeLine="14" fill="#2E2E2E" height="42" id="entity" rx="2.5" ry="2.5" style="stroke:#1B1B1B;stroke-width:0.5;" width="57" x="20" y="168"/><ellipse cx="32" cy="181" fill="#ADD1B2" rx="8" ry="8" style="stroke:#181818;stroke-width:1.0;"/><path d="M29.0156,176.9844 L34.5938,176.9844 L34.5938,178.5469 L31.0781,178.5469 L31.0781,180.0313 L34.375,180.0313 L34.375,181.5938 L31.0781,181.5938 L31.0781,183.4375 L34.7031,183.4375 L34.7031,185 L29.0156,185 L29.0156,176.9844 Z " fill="#000000"/><text fill="#AAAAAA" font-family="Verdana" font-size="11" lengthAdjust="spacing" textLength="31" x="43" y="184.8081">entity</text><line style="stroke:#1B1B1B;stroke-width:0.5;" x1="21" x2="76" y1="194" y2="194"/><line style="stroke:#1B1B1B;stroke-width:0.5;" x1="21" x2="76" y1="202" y2="202"/></g><!--class enum--><g id="elem_enum"><rect codeLine="15" fill="#2E2E2E" height="42" id="enum" rx="2.5" ry="2.5" style="stroke:#1B1B1B;stroke-width:0.5;" width="58" x="95.5" y="168"/><ellipse cx="107.5" cy="181" fill="#EB937F" rx="8" ry="8" style="stroke:#181818;stroke-width:1.0;"/><path d="M104.5156,176.9844 L110.0938,176.9844 L110.0938,178.5469 L106.5781,178.5469 L106.5781,180.0313 L109.875,180.0313 L109.875,181.5938 L106.5781,181.5938 L106.5781,183.4375 L110.2031,183.4375 L110.2031,185 L104.5156,185 L104.5156,176.9844 Z " fill="#000000"/><text fill="#AAAAAA" font-family="Verdana" font-size="11" lengthAdjust="spacing" textLength="32" x="118.5" y="184.8081">enum</text><line style="stroke:#1B1B1B;stroke-width:0.5;" x1="96.5" x2="152.5" y1="194" y2="194"/><line style="stroke:#1B1B1B;stroke-width:0.5;" x1="96.5" x2="152.5" y1="202" y2="202"/></g><!--class exception--><g id="elem_exception"><rect codeLine="16" fill="#2E2E2E" height="42" id="exception" rx="2.5" ry="2.5" style="stroke:#1B1B1B;stroke-width:0.5;" width="80" x="171.5" y="168"/><ellipse cx="183.5" cy="181" fill="#D94321" rx="8" ry="8" style="stroke:#181818;stroke-width:1.0;"/><path d="M184.9844,180.9063 L187.7656,185 L185.6094,185 L183.7344,182.2656 L181.875,185 L179.7031,185 L182.4844,180.9063 L179.8125,176.9844 L181.9688,176.9844 L183.7344,179.5625 L185.4844,176.9844 L187.6563,176.9844 L184.9844,180.9063 Z " fill="#000000"/><text fill="#AAAAAA" font-family="Verdana" font-size="11" lengthAdjust="spacing" textLength="54" x="194.5" y="184.8081">exception</text><line style="stroke:#1B1B1B;stroke-width:0.5;" x1="172.5" x2="250.5" y1="194" y2="194"/><line style="stroke:#1B1B1B;stroke-width:0.5;" x1="172.5" x2="250.5" y1="202" y2="202"/></g><!--class interface--><g id="elem_interface"><rect codeLine="17" fill="#2E2E2E" height="42" id="interface" rx="2.5" ry="2.5" style="stroke:#1B1B1B;stroke-width:0.5;" width="76" x="269.5" y="168"/><ellipse cx="281.5" cy="181" fill="#B4A7E5" rx="8" ry="8" style="stroke:#181818;stroke-width:1.0;"/><path d="M280.5156,176.9844 L282.5781,176.9844 L282.5781,185 L280.5156,185 L280.5156,176.9844 Z " fill="#000000"/><text fill="#AAAAAA" font-family="Verdana" font-size="11" font-style="italic" lengthAdjust="spacing" textLength="50" x="292.5" y="184.8081">interface</text><line style="stroke:#1B1B1B;stroke-width:0.5;" x1="270.5" x2="344.5" y1="194" y2="194"/><line style="stroke:#1B1B1B;stroke-width:0.5;" x1="270.5" x2="344.5" y1="202" y2="202"/></g><!--class metaclass--><g id="elem_metaclass"><rect codeLine="18" fill="#2E2E2E" height="42" id="metaclass" rx="2.5" ry="2.5" style="stroke:#1B1B1B;stroke-width:0.5;" width="85" x="6" y="246"/><ellipse cx="18" cy="259" fill="#CCCCCC" rx="8" ry="8" style="stroke:#181818;stroke-width:1.0;"/><path d="M13.5156,254.9844 L16.1406,254.9844 L17.9688,259.2656 L19.8125,254.9844 L22.4375,254.9844 L22.4375,263 L20.4688,263 L20.4688,257.1406 L18.625,261.4531 L17.3125,261.4531 L15.4688,257.1406 L15.4688,263 L13.5156,263 L13.5156,254.9844 Z " fill="#000000"/><text fill="#AAAAAA" font-family="Verdana" font-size="11" lengthAdjust="spacing" textLength="59" x="29" y="262.8081">metaclass</text><line style="stroke:#1B1B1B;stroke-width:0.5;" x1="7" x2="90" y1="272" y2="272"/><line style="stroke:#1B1B1B;stroke-width:0.5;" x1="7" x2="90" y1="280" y2="280"/></g><!--class protocol--><g id="elem_protocol"><rect codeLine="19" fill="#2E2E2E" height="42" id="protocol" rx="2.5" ry="2.5" style="stroke:#1B1B1B;stroke-width:0.5;" width="72" x="109.5" y="246"/><ellipse cx="121.5" cy="259" fill="#F1F1F1" rx="8" ry="8" style="stroke:#181818;stroke-width:1.0;"/><path d="M118.5156,254.9844 L121.9375,254.9844 Q123.4688,254.9844 124.2813,255.6719 Q125.1094,256.3438 125.1094,257.5938 Q125.1094,258.8594 124.2813,259.5469 Q123.4688,260.2188 121.9375,260.2188 L120.5781,260.2188 L120.5781,263 L118.5156,263 L118.5156,254.9844 Z M120.5781,256.4844 L120.5781,258.7188 L121.7188,258.7188 Q122.3281,258.7188 122.6563,258.4375 Q122.9844,258.1406 122.9844,257.5938 Q122.9844,257.0625 122.6563,256.7813 Q122.3281,256.4844 121.7188,256.4844 L120.5781,256.4844 Z " fill="#000000"/><text fill="#AAAAAA" font-family="Verdana" font-size="11" lengthAdjust="spacing" textLength="46" x="132.5" y="262.8081">protocol</text><line style="stroke:#1B1B1B;stroke-width:0.5;" x1="110.5" x2="180.5" y1="272" y2="272"/><line style="stroke:#1B1B1B;stroke-width:0.5;" x1="110.5" x2="180.5" y1="280" y2="280"/></g><!--class stereotype--><g id="elem_stereotype"><rect codeLine="20" fill="#2E2E2E" height="42" id="stereotype" rx="2.5" ry="2.5" style="stroke:#1B1B1B;stroke-width:0.5;" width="87" x="200" y="246"/><ellipse cx="212" cy="259" fill="#FF77FF" rx="8" ry="8" style="stroke:#181818;stroke-width:1.0;"/><path d="M215.0938,255.2344 L215.0938,256.9375 Q214.4375,256.6406 213.7969,256.4844 Q213.1719,256.3281 212.6094,256.3281 Q211.875,256.3281 211.5156,256.5469 Q211.1719,256.75 211.1719,257.1719 Q211.1719,257.5 211.4063,257.6875 Q211.6406,257.8594 212.2656,257.9844 L213.1563,258.1563 Q214.4844,258.4219 215.0469,258.9844 Q215.6094,259.5313 215.6094,260.5313 Q215.6094,261.8594 214.8281,262.5156 Q214.0469,263.1563 212.4219,263.1563 Q211.6563,263.1563 210.8906,263 Q210.125,262.8594 209.3594,262.5781 L209.3594,260.8281 Q210.125,261.25 210.8438,261.4531 Q211.5625,261.6563 212.2344,261.6563 Q212.9063,261.6563 213.2656,261.4375 Q213.625,261.2031 213.625,260.7813 Q213.625,260.4063 213.375,260.2031 Q213.1406,260 212.4063,259.8438 L211.6094,259.6719 Q210.4063,259.4063 209.8438,258.8438 Q209.2969,258.2813 209.2969,257.3281 Q209.2969,256.125 210.0625,255.4844 Q210.8438,254.8281 212.2813,254.8281 Q212.9531,254.8281 213.6406,254.9375 Q214.3438,255.0313 215.0938,255.2344 Z " fill="#000000"/><text fill="#AAAAAA" font-family="Verdana" font-size="11" lengthAdjust="spacing" textLength="61" x="223" y="262.8081">stereotype</text><line style="stroke:#1B1B1B;stroke-width:0.5;" x1="201" x2="286" y1="272" y2="272"/><line style="stroke:#1B1B1B;stroke-width:0.5;" x1="201" x2="286" y1="280" y2="280"/></g><!--class struct--><g id="elem_struct"><rect codeLine="21" fill="#2E2E2E" height="42" id="struct" rx="2.5" ry="2.5" style="stroke:#1B1B1B;stroke-width:0.5;" width="59" x="305" y="246"/><ellipse cx="317" cy="259" fill="#F1F1F1" rx="8" ry="8" style="stroke:#181818;stroke-width:1.0;"/><path d="M320.0938,255.2344 L320.0938,256.9375 Q319.4375,256.6406 318.7969,256.4844 Q318.1719,256.3281 317.6094,256.3281 Q316.875,256.3281 316.5156,256.5469 Q316.1719,256.75 316.1719,257.1719 Q316.1719,257.5 316.4063,257.6875 Q316.6406,257.8594 317.2656,257.9844 L318.1563,258.1563 Q319.4844,258.4219 320.0469,258.9844 Q320.6094,259.5313 320.6094,260.5313 Q320.6094,261.8594 319.8281,262.5156 Q319.0469,263.1563 317.4219,263.1563 Q316.6563,263.1563 315.8906,263 Q315.125,262.8594 314.3594,262.5781 L314.3594,260.8281 Q315.125,261.25 315.8438,261.4531 Q316.5625,261.6563 317.2344,261.6563 Q317.9063,261.6563 318.2656,261.4375 Q318.625,261.2031 318.625,260.7813 Q318.625,260.4063 318.375,260.2031 Q318.1406,260 317.4063,259.8438 L316.6094,259.6719 Q315.4063,259.4063 314.8438,258.8438 Q314.2969,258.2813 314.2969,257.3281 Q314.2969,256.125 315.0625,255.4844 Q315.8438,254.8281 317.2813,254.8281 Q317.9531,254.8281 318.6406,254.9375 Q319.3438,255.0313 320.0938,255.2344 Z " fill="#000000"/><text fill="#AAAAAA" font-family="Verdana" font-size="11" lengthAdjust="spacing" textLength="33" x="328" y="262.8081">struct</text><line style="stroke:#1B1B1B;stroke-width:0.5;" x1="306" x2="363" y1="272" y2="272"/><line style="stroke:#1B1B1B;stroke-width:0.5;" x1="306" x2="363" y1="280" y2="280"/></g></g></svg>