<?xml version="1.0" encoding="UTF-8" standalone="no"?><svg xmlns="http://www.w3.org/2000/svg" xmlns:xlink="http://www.w3.org/1999/xlink" contentStyleType="text/css" height="497.9167px" preserveAspectRatio="none" style="width:739px;height:497px;background:#00000000;" version="1.1" viewBox="0 0 739 497" width="739.5833px" zoomAndPan="magnify"><defs/><g><!--MD5=[b4fa10df80476353258f72a232547d63]
class AbstractList--><g id="elem_AbstractList"><rect codeLine="6" height="50.8382" id="AbstractList" rx="4.1667" ry="4.1667" style="stroke:#55B2DE;stroke-width:1.0416666666666667;fill:none;" width="110.4167" x="280.2083" y="237.7279"/><rect fill="#227FAB" height="34.1715" rx="4.1667" ry="4.1667" style="stroke:#227FAB;stroke-width:1.0416666666666667;" width="110.4167" x="280.2083" y="237.7279"/><rect fill="#227FAB" height="4.1667" style="stroke:#227FAB;stroke-width:1.0416666666666667;" width="110.4167" x="280.2083" y="267.7327"/><rect codeLine="6" fill="none" height="50.8382" id="AbstractList" rx="4.1667" ry="4.1667" style="stroke:#55B2DE;stroke-width:1.0416666666666667;" width="110.4167" x="280.2083" y="237.7279"/><ellipse cx="294.7917" cy="254.8136" rx="10.4167" ry="10.4167" style="stroke:#55B2DE;stroke-width:1.0416666666666667;fill:none;"/><path d="M294.3848,251.77 L293.5384,255.4972 L295.2474,255.4972 L294.3848,251.77 Z M293.2943,250.1261 L295.4915,250.1261 L297.9492,259.2407 L296.1426,259.2407 L295.5892,256.9946 L293.1803,256.9946 L292.627,259.2407 L290.8203,259.2407 L293.2943,250.1261 Z " fill="#2A9FD6"/><text fill="#ADAFAE" font-family="&quot;Verdana&quot;" font-size="11.4583" font-style="italic" lengthAdjust="spacing" textLength="68.75" x="313.5417" y="258.7804">AbstractList</text><line style="stroke:#55B2DE;stroke-width:1.0416666666666667;" x1="281.25" x2="389.5833" y1="271.8994" y2="271.8994"/><line style="stroke:#55B2DE;stroke-width:1.0416666666666667;" x1="281.25" x2="389.5833" y1="280.2327" y2="280.2327"/></g><!--MD5=[8e34b16d8d8f96f4a11290cd523ed859]
class AbstractCollection--><g id="elem_AbstractCollection"><rect codeLine="7" height="50.8382" id="AbstractCollection" rx="4.1667" ry="4.1667" style="stroke:#55B2DE;stroke-width:1.0416666666666667;fill:none;" width="147.9167" x="17.7083" y="237.7279"/><rect fill="#227FAB" height="34.1715" rx="4.1667" ry="4.1667" style="stroke:#227FAB;stroke-width:1.0416666666666667;" width="147.9167" x="17.7083" y="237.7279"/><rect fill="#227FAB" height="4.1667" style="stroke:#227FAB;stroke-width:1.0416666666666667;" width="147.9167" x="17.7083" y="267.7327"/><rect codeLine="7" fill="none" height="50.8382" id="AbstractCollection" rx="4.1667" ry="4.1667" style="stroke:#55B2DE;stroke-width:1.0416666666666667;" width="147.9167" x="17.7083" y="237.7279"/><ellipse cx="32.2917" cy="254.8136" rx="10.4167" ry="10.4167" style="stroke:#55B2DE;stroke-width:1.0416666666666667;fill:none;"/><path d="M31.8848,251.77 L31.0384,255.4972 L32.7474,255.4972 L31.8848,251.77 Z M30.7943,250.1261 L32.9915,250.1261 L35.4492,259.2407 L33.6426,259.2407 L33.0892,256.9946 L30.6803,256.9946 L30.127,259.2407 L28.3203,259.2407 L30.7943,250.1261 Z " fill="#2A9FD6"/><text fill="#ADAFAE" font-family="&quot;Verdana&quot;" font-size="11.4583" font-style="italic" lengthAdjust="spacing" textLength="106.25" x="51.0417" y="258.7804">AbstractCollection</text><line style="stroke:#55B2DE;stroke-width:1.0416666666666667;" x1="18.75" x2="164.5833" y1="271.8994" y2="271.8994"/><line style="stroke:#55B2DE;stroke-width:1.0416666666666667;" x1="18.75" x2="164.5833" y1="280.2327" y2="280.2327"/></g><!--MD5=[3d4177ac58b4411586d067f34e84928f]
class List--><g id="elem_List"><rect codeLine="8" height="50.8382" id="List" rx="4.1667" ry="4.1667" style="stroke:#55B2DE;stroke-width:1.0416666666666667;fill:none;" width="61.4583" x="296.3542" y="52.3112"/><rect fill="#227FAB" height="34.1715" rx="4.1667" ry="4.1667" style="stroke:#227FAB;stroke-width:1.0416666666666667;" width="61.4583" x="296.3542" y="52.3112"/><rect fill="#227FAB" height="4.1667" style="stroke:#227FAB;stroke-width:1.0416666666666667;" width="61.4583" x="296.3542" y="82.3161"/><rect codeLine="8" fill="none" height="50.8382" id="List" rx="4.1667" ry="4.1667" style="stroke:#55B2DE;stroke-width:1.0416666666666667;" width="61.4583" x="296.3542" y="52.3112"/><ellipse cx="310.9375" cy="69.397" rx="10.4167" ry="10.4167" style="stroke:#55B2DE;stroke-width:1.0416666666666667;fill:none;"/><path d="M307.8288,66.5649 L307.8288,64.9699 L313.2487,64.9699 L313.2487,66.5649 L311.4421,66.5649 L311.4421,72.4894 L313.2487,72.4894 L313.2487,74.0845 L307.8288,74.0845 L307.8288,72.4894 L309.6354,72.4894 L309.6354,66.5649 L307.8288,66.5649 Z " fill="#2A9FD6"/><text fill="#ADAFAE" font-family="&quot;Verdana&quot;" font-size="11.4583" font-style="italic" lengthAdjust="spacing" textLength="19.7917" x="329.6875" y="73.3637">List</text><line style="stroke:#55B2DE;stroke-width:1.0416666666666667;" x1="297.3958" x2="356.7708" y1="86.4827" y2="86.4827"/><line style="stroke:#55B2DE;stroke-width:1.0416666666666667;" x1="297.3958" x2="356.7708" y1="94.8161" y2="94.8161"/></g><!--MD5=[c160724f8e3bb89ca8141a12554ac2e3]
class Collection--><g id="elem_Collection"><rect codeLine="9" height="50.8382" id="Collection" rx="4.1667" ry="4.1667" style="stroke:#55B2DE;stroke-width:1.0416666666666667;fill:none;" width="98.9583" x="82.8125" y="52.3112"/><rect fill="#227FAB" height="34.1715" rx="4.1667" ry="4.1667" style="stroke:#227FAB;stroke-width:1.0416666666666667;" width="98.9583" x="82.8125" y="52.3112"/><rect fill="#227FAB" height="4.1667" style="stroke:#227FAB;stroke-width:1.0416666666666667;" width="98.9583" x="82.8125" y="82.3161"/><rect codeLine="9" fill="none" height="50.8382" id="Collection" rx="4.1667" ry="4.1667" style="stroke:#55B2DE;stroke-width:1.0416666666666667;" width="98.9583" x="82.8125" y="52.3112"/><ellipse cx="97.3958" cy="69.397" rx="10.4167" ry="10.4167" style="stroke:#55B2DE;stroke-width:1.0416666666666667;fill:none;"/><path d="M94.2871,66.5649 L94.2871,64.9699 L99.707,64.9699 L99.707,66.5649 L97.9004,66.5649 L97.9004,72.4894 L99.707,72.4894 L99.707,74.0845 L94.2871,74.0845 L94.2871,72.4894 L96.0938,72.4894 L96.0938,66.5649 L94.2871,66.5649 Z " fill="#2A9FD6"/><text fill="#ADAFAE" font-family="&quot;Verdana&quot;" font-size="11.4583" font-style="italic" lengthAdjust="spacing" textLength="57.2917" x="116.1458" y="73.3637">Collection</text><line style="stroke:#55B2DE;stroke-width:1.0416666666666667;" x1="83.8542" x2="180.7292" y1="86.4827" y2="86.4827"/><line style="stroke:#55B2DE;stroke-width:1.0416666666666667;" x1="83.8542" x2="180.7292" y1="94.8161" y2="94.8161"/></g><!--MD5=[ab8871ed637f40707b866ba6597734bc]
class ArrayList--><g id="elem_ArrayList"><rect codeLine="18" height="98.348" id="ArrayList" rx="4.1667" ry="4.1667" style="stroke:#55B2DE;stroke-width:1.0416666666666667;fill:none;" width="147.9167" x="261.4583" y="387.7279"/><rect fill="#227FAB" height="34.1715" rx="4.1667" ry="4.1667" style="stroke:#227FAB;stroke-width:1.0416666666666667;" width="147.9167" x="261.4583" y="387.7279"/><rect fill="#227FAB" height="4.1667" style="stroke:#227FAB;stroke-width:1.0416666666666667;" width="147.9167" x="261.4583" y="417.7327"/><rect codeLine="18" fill="none" height="98.348" id="ArrayList" rx="4.1667" ry="4.1667" style="stroke:#55B2DE;stroke-width:1.0416666666666667;" width="147.9167" x="261.4583" y="387.7279"/><ellipse cx="300.4167" cy="404.8136" rx="10.4167" ry="10.4167" style="stroke:#55B2DE;stroke-width:1.0416666666666667;fill:none;"/><path d="M302.321,409.2407 Q301.8978,409.4523 301.4258,409.5662 Q300.9538,409.6802 300.4492,409.6802 Q298.5938,409.6802 297.6172,408.4757 Q296.6569,407.255 296.6569,404.9601 Q296.6569,402.6489 297.6172,401.4445 Q298.5938,400.2238 300.4492,400.2238 Q300.9538,400.2238 301.4258,400.3377 Q301.9141,400.4354 302.321,400.6632 L302.321,402.6652 Q301.8652,402.242 301.4258,402.0467 Q300.9863,401.8351 300.5306,401.8351 Q299.5378,401.8351 299.0332,402.6326 Q298.5286,403.4139 298.5286,404.9601 Q298.5286,406.4901 299.0332,407.2713 Q299.5378,408.0526 300.5306,408.0526 Q300.9863,408.0526 301.4258,407.8573 Q301.8652,407.6619 302.321,407.2388 L302.321,409.2407 Z " fill="#2A9FD6"/><text fill="#ADAFAE" font-family="&quot;Verdana&quot;" font-size="11.4583" lengthAdjust="spacing" textLength="52.0833" x="324.5833" y="408.7804">ArrayList</text><line style="stroke:#55B2DE;stroke-width:1.0416666666666667;" x1="262.5" x2="408.3333" y1="421.8994" y2="421.8994"/><text fill="#ADAFAE" font-family="&quot;Verdana&quot;" font-size="11.4583" lengthAdjust="spacing" textLength="125" x="272.9167" y="441.9103">Object[] elementData</text><line style="stroke:#55B2DE;stroke-width:1.0416666666666667;" x1="262.5" x2="408.3333" y1="453.9876" y2="453.9876"/><text fill="#ADAFAE" font-family="&quot;Verdana&quot;" font-size="11.4583" lengthAdjust="spacing" textLength="31.25" x="272.9167" y="473.9985">size()</text></g><!--MD5=[15b68e006199004da79ea2a4d117d8e9]
class TimeUnit--><g id="elem_TimeUnit"><rect codeLine="23" height="122.1029" id="TimeUnit" rx="4.1667" ry="4.1667" style="stroke:#55B2DE;stroke-width:1.0416666666666667;fill:none;" width="93.75" x="450" y="16.8945"/><rect fill="#227FAB" height="34.1715" rx="4.1667" ry="4.1667" style="stroke:#227FAB;stroke-width:1.0416666666666667;" width="93.75" x="450" y="16.8945"/><rect fill="#227FAB" height="4.1667" style="stroke:#227FAB;stroke-width:1.0416666666666667;" width="93.75" x="450" y="46.8994"/><rect codeLine="23" fill="none" height="122.1029" id="TimeUnit" rx="4.1667" ry="4.1667" style="stroke:#55B2DE;stroke-width:1.0416666666666667;" width="93.75" x="450" y="16.8945"/><ellipse cx="464.5833" cy="33.9803" rx="10.4167" ry="10.4167" style="stroke:#55B2DE;stroke-width:1.0416666666666667;fill:none;"/><path d="M467.1224,38.6678 L461.4421,38.6678 L461.4421,29.5532 L467.1224,29.5532 L467.1224,31.1483 L463.2487,31.1483 L463.2487,33.1014 L466.748,33.1014 L466.748,34.6965 L463.2487,34.6965 L463.2487,37.0728 L467.1224,37.0728 L467.1224,38.6678 Z " fill="#2A9FD6"/><text fill="#ADAFAE" font-family="&quot;Verdana&quot;" font-size="11.4583" lengthAdjust="spacing" textLength="52.0833" x="483.3333" y="37.9471">TimeUnit</text><line style="stroke:#55B2DE;stroke-width:1.0416666666666667;" x1="451.0417" x2="542.7083" y1="51.0661" y2="51.0661"/><text fill="#ADAFAE" font-family="&quot;Verdana&quot;" font-size="11.4583" lengthAdjust="spacing" textLength="31.25" x="461.4583" y="71.077">DAYS</text><text fill="#ADAFAE" font-family="&quot;Verdana&quot;" font-size="11.4583" lengthAdjust="spacing" textLength="41.6667" x="461.4583" y="94.8318">HOURS</text><text fill="#ADAFAE" font-family="&quot;Verdana&quot;" font-size="11.4583" lengthAdjust="spacing" textLength="52.0833" x="461.4583" y="118.5867">MINUTES</text><line style="stroke:#55B2DE;stroke-width:1.0416666666666667;" x1="451.0417" x2="542.7083" y1="130.6641" y2="130.6641"/></g><!--MD5=[0c8287f799745f7b534bf75518604c1e]
class SuppressWarnings--><g id="elem_SuppressWarnings"><rect codeLine="29" height="50.8382" id="SuppressWarnings" rx="4.1667" ry="4.1667" style="stroke:#55B2DE;stroke-width:1.0416666666666667;fill:none;" width="153.125" x="574.4792" y="52.3112"/><rect fill="#227FAB" height="34.1715" rx="4.1667" ry="4.1667" style="stroke:#227FAB;stroke-width:1.0416666666666667;" width="153.125" x="574.4792" y="52.3112"/><rect fill="#227FAB" height="4.1667" style="stroke:#227FAB;stroke-width:1.0416666666666667;" width="153.125" x="574.4792" y="82.3161"/><rect codeLine="29" fill="none" height="50.8382" id="SuppressWarnings" rx="4.1667" ry="4.1667" style="stroke:#55B2DE;stroke-width:1.0416666666666667;" width="153.125" x="574.4792" y="52.3112"/><ellipse cx="589.0625" cy="69.397" rx="10.4167" ry="10.4167" style="stroke:#55B2DE;stroke-width:1.0416666666666667;fill:none;"/><path d="M590.3158,69.2017 Q590.3158,68.5018 590.0065,68.1112 Q589.6973,67.7205 589.1439,67.7205 Q588.6068,67.7205 588.2975,68.1112 Q587.9883,68.5018 587.9883,69.2017 Q587.9883,69.8853 588.2975,70.2759 Q588.6068,70.6665 589.1439,70.6665 Q589.6973,70.6665 590.0065,70.2759 Q590.3158,69.8853 590.3158,69.2017 Z M591.4551,71.6919 L590.2507,71.6919 L590.2507,71.2036 Q590.0228,71.5129 589.6973,71.6756 Q589.388,71.8221 588.9486,71.8221 Q587.9557,71.8221 587.3372,71.106 Q586.7188,70.3735 586.7188,69.2017 Q586.7188,68.0135 587.321,67.2974 Q587.9395,66.5812 588.9486,66.5812 Q589.388,66.5812 589.7135,66.7277 Q590.0391,66.8742 590.2507,67.1672 L590.2507,66.923 Q590.2507,66.0929 589.7949,65.6372 Q589.3392,65.1815 588.5091,65.1815 Q587.2396,65.1815 586.4258,66.3045 Q585.6283,67.4113 585.6283,69.2017 Q585.6283,71.0734 586.556,72.1965 Q587.4837,73.3032 589.0299,73.3032 Q589.5182,73.3032 589.974,73.1567 Q590.4297,73.0103 590.8529,72.7173 L591.4063,73.7915 Q590.918,74.1333 590.332,74.2961 Q589.7461,74.4751 589.0951,74.4751 Q586.9466,74.4751 585.6771,73.0428 Q584.4076,71.6268 584.4076,69.2017 Q584.4076,66.8416 585.5469,65.4256 Q586.7025,64.0096 588.5742,64.0096 Q589.9089,64.0096 590.6738,64.8071 Q591.4551,65.6047 591.4551,67.0044 L591.4551,71.6919 Z " fill="#2A9FD6"/><text fill="#ADAFAE" font-family="&quot;Verdana&quot;" font-size="11.4583" lengthAdjust="spacing" textLength="111.4583" x="607.8125" y="73.3637">SuppressWarnings</text><line style="stroke:#55B2DE;stroke-width:1.0416666666666667;" x1="575.5208" x2="726.5625" y1="86.4827" y2="86.4827"/><line style="stroke:#55B2DE;stroke-width:1.0416666666666667;" x1="575.5208" x2="726.5625" y1="94.8161" y2="94.8161"/></g><!--MD5=[faebc81c07309c527f2fda51bf6b78ab]
class Annotation--><g id="elem_Annotation"><rect codeLine="31" height="122.1029" id="Annotation" rx="4.1667" ry="4.1667" style="stroke:#55B2DE;stroke-width:1.0416666666666667;fill:none;" width="175" x="409.375" y="202.3112"/><rect fill="#227FAB" height="34.1715" rx="4.1667" ry="4.1667" style="stroke:#227FAB;stroke-width:1.0416666666666667;" width="175" x="409.375" y="202.3112"/><rect fill="#227FAB" height="4.1667" style="stroke:#227FAB;stroke-width:1.0416666666666667;" width="175" x="409.375" y="232.3161"/><rect codeLine="31" fill="none" height="122.1029" id="Annotation" rx="4.1667" ry="4.1667" style="stroke:#55B2DE;stroke-width:1.0416666666666667;" width="175" x="409.375" y="202.3112"/><ellipse cx="456.25" cy="219.397" rx="10.4167" ry="10.4167" style="stroke:#55B2DE;stroke-width:1.0416666666666667;fill:none;"/><path d="M457.5033,219.2017 Q457.5033,218.5018 457.194,218.1112 Q456.8848,217.7205 456.3314,217.7205 Q455.7943,217.7205 455.485,218.1112 Q455.1758,218.5018 455.1758,219.2017 Q455.1758,219.8853 455.485,220.2759 Q455.7943,220.6665 456.3314,220.6665 Q456.8848,220.6665 457.194,220.2759 Q457.5033,219.8853 457.5033,219.2017 Z M458.6426,221.6919 L457.4382,221.6919 L457.4382,221.2036 Q457.2103,221.5129 456.8848,221.6756 Q456.5755,221.8221 456.1361,221.8221 Q455.1432,221.8221 454.5247,221.106 Q453.9063,220.3735 453.9063,219.2017 Q453.9063,218.0135 454.5085,217.2974 Q455.127,216.5812 456.1361,216.5812 Q456.5755,216.5812 456.901,216.7277 Q457.2266,216.8742 457.4382,217.1672 L457.4382,216.923 Q457.4382,216.0929 456.9824,215.6372 Q456.5267,215.1815 455.6966,215.1815 Q454.4271,215.1815 453.6133,216.3045 Q452.8158,217.4113 452.8158,219.2017 Q452.8158,221.0734 453.7435,222.1965 Q454.6712,223.3032 456.2174,223.3032 Q456.7057,223.3032 457.1615,223.1567 Q457.6172,223.0103 458.0404,222.7173 L458.5938,223.7915 Q458.1055,224.1333 457.5195,224.2961 Q456.9336,224.4751 456.2826,224.4751 Q454.1341,224.4751 452.8646,223.0428 Q451.5951,221.6268 451.5951,219.2017 Q451.5951,216.8416 452.7344,215.4256 Q453.89,214.0096 455.7617,214.0096 Q457.0964,214.0096 457.8613,214.8071 Q458.6426,215.6047 458.6426,217.0044 L458.6426,221.6919 Z " fill="#2A9FD6"/><text fill="#ADAFAE" font-family="&quot;Verdana&quot;" font-size="11.4583" lengthAdjust="spacing" textLength="62.5" x="481.25" y="223.3637">Annotation</text><line style="stroke:#55B2DE;stroke-width:1.0416666666666667;" x1="410.4167" x2="583.3333" y1="236.4827" y2="236.4827"/><text fill="#ADAFAE" font-family="&quot;Verdana&quot;" font-size="11.4583" lengthAdjust="spacing" textLength="152.0833" x="420.8333" y="256.4936">annotation with members</text><line style="stroke:#55B2DE;stroke-width:1.0416666666666667;" x1="410.4167" x2="583.3333" y1="268.571" y2="268.571"/><text fill="#ADAFAE" font-family="&quot;Verdana&quot;" font-size="11.4583" lengthAdjust="spacing" textLength="66.6667" x="420.8333" y="288.5818">String foo()</text><text fill="#ADAFAE" font-family="&quot;Verdana&quot;" font-size="11.4583" lengthAdjust="spacing" textLength="67.7083" x="420.8333" y="312.3367">String bar()</text></g><path d="M328.2072,103.5988 C329.8021,138.687 332.7049,202.5479 334.2973,237.5815 " fill="none" style="stroke:#2A9FD6;stroke-width:3.125;"/><polygon points="328.2072,103.5988,322.7204,120.5321,335.2076,119.9645,328.2072,103.5988" style="stroke:#2A9FD6;stroke-width:1.0416666666666667;fill:none;"/><text fill="#FFFFFF" font-family="Verdana" font-size="12.5" lengthAdjust="spacing" textLength="73.9583" x="338.5417" y="175.3723">AList to List</text><path d="M126.8128,103.5988 C119.0376,138.687 104.8866,202.5479 97.1235,237.5815 " fill="none" style="stroke:#2A9FD6;stroke-width:3.125;"/><polygon points="126.8128,103.5988,117.1051,118.5187,129.3091,121.2229,126.8128,103.5988" style="stroke:#2A9FD6;stroke-width:1.0416666666666667;fill:none;"/><text fill="#FFFFFF" font-family="Verdana" font-size="12.5" lengthAdjust="spacing" textLength="76.0417" x="120.8333" y="175.3723">AColl to Coll</text><path d="M181.9498,77.832 C217.9071,77.832 265.3972,77.832 296.091,77.832 " fill="none" style="stroke:#2A9FD6;stroke-width:3.125;"/><polygon points="181.9498,77.832,198.6165,84.082,198.6165,71.582,181.9498,77.832" style="stroke:#2A9FD6;stroke-width:1.0416666666666667;fill:none;"/><text fill="#FFFFFF" font-family="Verdana" font-size="12.5" lengthAdjust="spacing" textLength="66.6667" x="205.7292" y="66.5181">List to Coll</text><path d="M165.7925,263.2487 C202.4892,263.2487 246.0462,263.2487 279.8332,263.2487 " fill="none" style="stroke:#2A9FD6;stroke-width:3.125;"/><polygon points="165.7925,263.2487,182.4592,269.4987,182.4592,256.9987,165.7925,263.2487" style="stroke:#2A9FD6;stroke-width:1.0416666666666667;fill:none;"/><text fill="#FFFFFF" font-family="Verdana" font-size="12.5" lengthAdjust="spacing" textLength="83.3333" x="181.25" y="251.9348">AList to AColl</text><path d="M335.4167,288.8412 C335.4167,314.4751 335.4167,355.3413 335.4167,387.4551 " fill="none" style="stroke:#2A9FD6;stroke-width:3.125;"/><polygon points="335.4167,288.8412,329.1667,305.5079,341.6667,305.5079,335.4167,288.8412" style="stroke:#2A9FD6;stroke-width:1.0416666666666667;fill:none;"/><text fill="#FFFFFF" font-family="Verdana" font-size="12.5" lengthAdjust="spacing" textLength="87.5" x="341.6667" y="360.789">ArList to AList</text></g></svg>