<svg xmlns="http://www.w3.org/2000/svg" xmlns:xlink="http://www.w3.org/1999/xlink" contentStyleType="text/css" height="942px" preserveAspectRatio="none" style="width:1076px;height:942px;" version="1.1" viewBox="0 0 1076 942" width="1076px" zoomAndPan="magnify"><defs><linearGradient id="g1727pq0r7onwt0" x1="50%" x2="50%" y1="0%" y2="100%"><stop offset="0%" stop-color="#F4F4F4"/><stop offset="100%" stop-color="#F4F4F4"/></linearGradient></defs><g><!--cluster foo_frame--><g id="cluster_foo_frame"><rect fill="#FFFFFF" height="136" style="stroke:#C6C6C6;stroke-width:1.0;" width="200" x="757" y="20"/><path d="M857,20 L857,46.9688 L847,56.9688 L757,56.9688 " fill="none" style="stroke:#C6C6C6;stroke-width:1.0;"/><text fill="#262626" font-family="sans-serif" font-size="12" font-weight="bold" lengthAdjust="spacing" textLength="70" x="770" y="42.1387">foo_frame</text></g><!--class AbstractList--><g id="elem_AbstractList"><rect codeLine="7" fill="url(#g1727pq0r7onwt0)" height="42.8047" id="AbstractList" style="stroke:#C6C6C6;stroke-width:1.0;" width="116" x="280" y="451"/><rect fill="url(#g1727pq0r7onwt0)" height="42.8047" style="stroke:#C6C6C6;stroke-width:1.0;" width="116" x="280" y="451"/><ellipse cx="294" cy="472.4023" fill="#A9DCDF" rx="10" ry="10" style="stroke:#181818;stroke-width:1.0;"/><path d="M293.6094,469.4805 L292.7969,473.0586 L294.4375,473.0586 L293.6094,469.4805 Z M292.5625,467.9023 L294.6719,467.9023 L297.0313,476.6523 L295.2969,476.6523 L294.7656,474.4961 L292.4531,474.4961 L291.9219,476.6523 L290.1875,476.6523 L292.5625,467.9023 Z " fill="#000000"/><text fill="#262626" font-family="sans-serif" font-size="11" font-style="italic" lengthAdjust="spacing" textLength="66" x="317" y="476.2104">AbstractList</text></g><!--class AbstractCollection--><g id="elem_AbstractCollection"><rect codeLine="8" fill="url(#g1727pq0r7onwt0)" height="42.8047" id="AbstractCollection" style="stroke:#C6C6C6;stroke-width:1.0;" width="152" x="8" y="451"/><rect fill="url(#g1727pq0r7onwt0)" height="42.8047" style="stroke:#C6C6C6;stroke-width:1.0;" width="152" x="8" y="451"/><ellipse cx="22" cy="472.4023" fill="#A9DCDF" rx="10" ry="10" style="stroke:#181818;stroke-width:1.0;"/><path d="M21.6094,469.4805 L20.7969,473.0586 L22.4375,473.0586 L21.6094,469.4805 Z M20.5625,467.9023 L22.6719,467.9023 L25.0313,476.6523 L23.2969,476.6523 L22.7656,474.4961 L20.4531,474.4961 L19.9219,476.6523 L18.1875,476.6523 L20.5625,467.9023 Z " fill="#000000"/><text fill="#262626" font-family="sans-serif" font-size="11" font-style="italic" lengthAdjust="spacing" textLength="102" x="45" y="476.2104">AbstractCollection</text></g><!--class List--><g id="elem_List"><rect codeLine="9" fill="url(#g1727pq0r7onwt0)" height="42.8047" id="List" style="stroke:#C6C6C6;stroke-width:1.0;" width="69" x="264.5" y="84.5"/><rect fill="url(#g1727pq0r7onwt0)" height="42.8047" style="stroke:#C6C6C6;stroke-width:1.0;" width="69" x="264.5" y="84.5"/><ellipse cx="278.5" cy="105.9023" fill="#B4A7E5" rx="10" ry="10" style="stroke:#181818;stroke-width:1.0;"/><path d="M275.5156,103.1836 L275.5156,101.6523 L280.7188,101.6523 L280.7188,103.1836 L278.9844,103.1836 L278.9844,108.8711 L280.7188,108.8711 L280.7188,110.4023 L275.5156,110.4023 L275.5156,108.8711 L277.25,108.8711 L277.25,103.1836 L275.5156,103.1836 Z " fill="#000000"/><text fill="#262626" font-family="sans-serif" font-size="11" font-style="italic" lengthAdjust="spacing" textLength="19" x="301.5" y="109.7104">List</text></g><!--class Collection--><g id="elem_Collection"><rect codeLine="10" fill="url(#g1727pq0r7onwt0)" height="42.8047" id="Collection" style="stroke:#C6C6C6;stroke-width:1.0;" width="105" x="51.5" y="84.5"/><rect fill="url(#g1727pq0r7onwt0)" height="42.8047" style="stroke:#C6C6C6;stroke-width:1.0;" width="105" x="51.5" y="84.5"/><ellipse cx="65.5" cy="105.9023" fill="#B4A7E5" rx="10" ry="10" style="stroke:#181818;stroke-width:1.0;"/><path d="M62.5156,103.1836 L62.5156,101.6523 L67.7188,101.6523 L67.7188,103.1836 L65.9844,103.1836 L65.9844,108.8711 L67.7188,108.8711 L67.7188,110.4023 L62.5156,110.4023 L62.5156,108.8711 L64.25,108.8711 L64.25,103.1836 L62.5156,103.1836 Z " fill="#000000"/><text fill="#262626" font-family="sans-serif" font-size="11" font-style="italic" lengthAdjust="spacing" textLength="55" x="88.5" y="109.7104">Collection</text></g><!--class ArrayList--><g id="elem_ArrayList"><rect codeLine="20" fill="url(#g1727pq0r7onwt0)" height="124.4141" id="ArrayList" style="stroke:#C6C6C6;stroke-width:1.0;" width="152" x="225" y="811"/><rect fill="url(#g1727pq0r7onwt0)" height="42.8047" style="stroke:#C6C6C6;stroke-width:1.0;" width="152" x="225" y="811"/><ellipse cx="262.4" cy="832.4023" fill="#ADD1B2" rx="10" ry="10" style="stroke:#181818;stroke-width:1.0;"/><path d="M264.2281,836.6523 Q263.8219,836.8555 263.3688,836.9648 Q262.9156,837.0742 262.4313,837.0742 Q260.65,837.0742 259.7125,835.918 Q258.7906,834.7461 258.7906,832.543 Q258.7906,830.3242 259.7125,829.168 Q260.65,827.9961 262.4313,827.9961 Q262.9156,827.9961 263.3688,828.1055 Q263.8375,828.1992 264.2281,828.418 L264.2281,830.3398 Q263.7906,829.9336 263.3688,829.7461 Q262.9469,829.543 262.5094,829.543 Q261.5563,829.543 261.0719,830.3086 Q260.5875,831.0586 260.5875,832.543 Q260.5875,834.0117 261.0719,834.7617 Q261.5563,835.5117 262.5094,835.5117 Q262.9469,835.5117 263.3688,835.3242 Q263.7906,835.1367 264.2281,834.7305 L264.2281,836.6523 Z " fill="#000000"/><text fill="#262626" font-family="sans-serif" font-size="11" lengthAdjust="spacing" textLength="50" x="290.6" y="836.2104">ArrayList</text><line style="stroke:#C6C6C6;stroke-width:1.0;" x1="226" x2="376" y1="853.8047" y2="853.8047"/><text fill="#262626" font-family="sans-serif" font-size="11" lengthAdjust="spacing" textLength="120" x="241" y="878.0151">Object[] elementData</text><line style="stroke:#C6C6C6;stroke-width:1.0;" x1="226" x2="376" y1="894.6094" y2="894.6094"/><text fill="#262626" font-family="sans-serif" font-size="11" lengthAdjust="spacing" textLength="30" x="241" y="918.8198">size()</text></g><!--class TimeUnit--><g id="elem_TimeUnit"><rect codeLine="25" fill="url(#g1727pq0r7onwt0)" height="149.2188" id="TimeUnit" style="stroke:#C6C6C6;stroke-width:1.0;" width="100" x="429" y="31.5"/><rect fill="url(#g1727pq0r7onwt0)" height="42.8047" style="stroke:#C6C6C6;stroke-width:1.0;" width="100" x="429" y="31.5"/><ellipse cx="443" cy="52.9023" fill="#EB937F" rx="10" ry="10" style="stroke:#181818;stroke-width:1.0;"/><path d="M445.4375,57.4023 L439.9844,57.4023 L439.9844,48.6523 L445.4375,48.6523 L445.4375,50.1836 L441.7188,50.1836 L441.7188,52.0586 L445.0781,52.0586 L445.0781,53.5898 L441.7188,53.5898 L441.7188,55.8711 L445.4375,55.8711 L445.4375,57.4023 Z " fill="#000000"/><text fill="#262626" font-family="sans-serif" font-size="11" lengthAdjust="spacing" textLength="50" x="466" y="56.7104">TimeUnit</text><line style="stroke:#C6C6C6;stroke-width:1.0;" x1="430" x2="528" y1="74.3047" y2="74.3047"/><text fill="#262626" font-family="sans-serif" font-size="11" lengthAdjust="spacing" textLength="30" x="445" y="98.5151">DAYS</text><text fill="#262626" font-family="sans-serif" font-size="11" lengthAdjust="spacing" textLength="40" x="445" y="131.3198">HOURS</text><text fill="#262626" font-family="sans-serif" font-size="11" lengthAdjust="spacing" textLength="50" x="445" y="164.1245">MINUTES</text></g><!--class SuppressWarnings--><g id="elem_SuppressWarnings"><rect codeLine="31" fill="url(#g1727pq0r7onwt0)" height="42.8047" id="SuppressWarnings" style="stroke:#C6C6C6;stroke-width:1.0;" width="157" x="416.5" y="851.5"/><rect fill="url(#g1727pq0r7onwt0)" height="42.8047" style="stroke:#C6C6C6;stroke-width:1.0;" width="157" x="416.5" y="851.5"/><ellipse cx="430.5" cy="872.9023" fill="#E3664A" rx="10" ry="10" style="stroke:#181818;stroke-width:1.0;"/><path d="M431.7031,872.7148 Q431.7031,872.043 431.4063,871.668 Q431.1094,871.293 430.5781,871.293 Q430.0625,871.293 429.7656,871.668 Q429.4688,872.043 429.4688,872.7148 Q429.4688,873.3711 429.7656,873.7461 Q430.0625,874.1211 430.5781,874.1211 Q431.1094,874.1211 431.4063,873.7461 Q431.7031,873.3711 431.7031,872.7148 Z M432.7969,875.1055 L431.6406,875.1055 L431.6406,874.6367 Q431.4219,874.9336 431.1094,875.0898 Q430.8125,875.2305 430.3906,875.2305 Q429.4375,875.2305 428.8438,874.543 Q428.25,873.8398 428.25,872.7148 Q428.25,871.5742 428.8281,870.8867 Q429.4219,870.1992 430.3906,870.1992 Q430.8125,870.1992 431.125,870.3398 Q431.4375,870.4805 431.6406,870.7617 L431.6406,870.5273 Q431.6406,869.7305 431.2031,869.293 Q430.7656,868.8555 429.9688,868.8555 Q428.75,868.8555 427.9688,869.9336 Q427.2031,870.9961 427.2031,872.7148 Q427.2031,874.5117 428.0938,875.5898 Q428.9844,876.6523 430.4688,876.6523 Q430.9375,876.6523 431.375,876.5117 Q431.8125,876.3711 432.2188,876.0898 L432.75,877.1211 Q432.2813,877.4492 431.7188,877.6055 Q431.1563,877.7773 430.5313,877.7773 Q428.4688,877.7773 427.25,876.4023 Q426.0313,875.043 426.0313,872.7148 Q426.0313,870.4492 427.125,869.0898 Q428.2344,867.7305 430.0313,867.7305 Q431.3125,867.7305 432.0469,868.4961 Q432.7969,869.2617 432.7969,870.6055 L432.7969,875.1055 Z " fill="#000000"/><text fill="#262626" font-family="sans-serif" font-size="11" lengthAdjust="spacing" textLength="107" x="453.5" y="876.7104">SuppressWarnings</text></g><!--class Annotation--><g id="elem_Annotation"><rect codeLine="33" fill="url(#g1727pq0r7onwt0)" height="187.6953" id="Annotation" style="stroke:#C6C6C6;stroke-width:1.0;" width="178" x="569" y="12"/><rect fill="url(#g1727pq0r7onwt0)" height="73.2813" style="stroke:#C6C6C6;stroke-width:1.0;" width="178" x="569" y="12"/><ellipse cx="614" cy="48.6406" fill="#E3664A" rx="10" ry="10" style="stroke:#181818;stroke-width:1.0;"/><path d="M615.2031,48.4531 Q615.2031,47.7813 614.9063,47.4063 Q614.6094,47.0313 614.0781,47.0313 Q613.5625,47.0313 613.2656,47.4063 Q612.9688,47.7813 612.9688,48.4531 Q612.9688,49.1094 613.2656,49.4844 Q613.5625,49.8594 614.0781,49.8594 Q614.6094,49.8594 614.9063,49.4844 Q615.2031,49.1094 615.2031,48.4531 Z M616.2969,50.8438 L615.1406,50.8438 L615.1406,50.375 Q614.9219,50.6719 614.6094,50.8281 Q614.3125,50.9688 613.8906,50.9688 Q612.9375,50.9688 612.3438,50.2813 Q611.75,49.5781 611.75,48.4531 Q611.75,47.3125 612.3281,46.625 Q612.9219,45.9375 613.8906,45.9375 Q614.3125,45.9375 614.625,46.0781 Q614.9375,46.2188 615.1406,46.5 L615.1406,46.2656 Q615.1406,45.4688 614.7031,45.0313 Q614.2656,44.5938 613.4688,44.5938 Q612.25,44.5938 611.4688,45.6719 Q610.7031,46.7344 610.7031,48.4531 Q610.7031,50.25 611.5938,51.3281 Q612.4844,52.3906 613.9688,52.3906 Q614.4375,52.3906 614.875,52.25 Q615.3125,52.1094 615.7188,51.8281 L616.25,52.8594 Q615.7813,53.1875 615.2188,53.3438 Q614.6563,53.5156 614.0313,53.5156 Q611.9688,53.5156 610.75,52.1406 Q609.5313,50.7813 609.5313,48.4531 Q609.5313,46.1875 610.625,44.8281 Q611.7344,43.4688 613.5313,43.4688 Q614.8125,43.4688 615.5469,44.2344 Q616.2969,45 616.2969,46.3438 L616.2969,50.8438 Z " fill="#000000"/><text fill="#262626" font-family="IBM Plex Sans, Noto Sans, Verdana" font-size="9" font-style="italic" lengthAdjust="spacing" textLength="64" x="641" y="35.354">&#171;stereotype&#187;</text><text fill="#262626" font-family="sans-serif" font-size="11" lengthAdjust="spacing" textLength="60" x="643" y="67.687">Annotation</text><line style="stroke:#C6C6C6;stroke-width:1.0;" x1="570" x2="746" y1="85.2813" y2="85.2813"/><text fill="#262626" font-family="sans-serif" font-size="11" lengthAdjust="spacing" textLength="146" x="585" y="109.4917">annotation with members</text><line style="stroke:#C6C6C6;stroke-width:1.0;" x1="570" x2="746" y1="126.0859" y2="126.0859"/><text fill="#262626" font-family="sans-serif" font-size="11" lengthAdjust="spacing" textLength="64" x="585" y="150.2964">String foo()</text><text fill="#262626" font-family="sans-serif" font-size="11" lengthAdjust="spacing" textLength="65" x="585" y="183.1011">String bar()</text></g><!--class Dummy--><g id="elem_Dummy"><rect codeLine="39" fill="url(#g1727pq0r7onwt0)" height="255.6328" id="Dummy" style="stroke:#C6C6C6;stroke-width:1.0;" width="130" x="414" y="344.5"/><rect fill="url(#g1727pq0r7onwt0)" height="42.8047" style="stroke:#C6C6C6;stroke-width:1.0;" width="130" x="414" y="344.5"/><ellipse cx="444.65" cy="365.9023" fill="#ADD1B2" rx="10" ry="10" style="stroke:#181818;stroke-width:1.0;"/><path d="M446.4781,370.1523 Q446.0719,370.3555 445.6188,370.4648 Q445.1656,370.5742 444.6813,370.5742 Q442.9,370.5742 441.9625,369.418 Q441.0406,368.2461 441.0406,366.043 Q441.0406,363.8242 441.9625,362.668 Q442.9,361.4961 444.6813,361.4961 Q445.1656,361.4961 445.6188,361.6055 Q446.0875,361.6992 446.4781,361.918 L446.4781,363.8398 Q446.0406,363.4336 445.6188,363.2461 Q445.1969,363.043 444.7594,363.043 Q443.8063,363.043 443.3219,363.8086 Q442.8375,364.5586 442.8375,366.043 Q442.8375,367.5117 443.3219,368.2617 Q443.8063,369.0117 444.7594,369.0117 Q445.1969,369.0117 445.6188,368.8242 Q446.0406,368.6367 446.4781,368.2305 L446.4781,370.1523 Z " fill="#000000"/><text fill="#262626" font-family="sans-serif" font-size="11" lengthAdjust="spacing" textLength="43" x="471.35" y="369.7104">Dummy</text><line style="stroke:#C6C6C6;stroke-width:1.0;" x1="415" x2="543" y1="387.3047" y2="387.3047"/><rect fill="none" height="6" style="stroke:#C82930;stroke-width:1.0;" width="6" x="422" y="406.207"/><text fill="#262626" font-family="sans-serif" font-size="11" lengthAdjust="spacing" textLength="31" x="443" y="411.5151">field1</text><polygon fill="none" points="425,437.0117,429,441.0117,425,445.0117,421,441.0117" style="stroke:#B38D22;stroke-width:1.0;"/><text fill="#262626" font-family="sans-serif" font-size="11" lengthAdjust="spacing" textLength="31" x="443" y="444.3198">field2</text><text fill="#262626" font-family="sans-serif" font-size="11" lengthAdjust="spacing" text-decoration="underline" textLength="48" x="443" y="477.1245">String id</text><line style="stroke:#C6C6C6;stroke-width:1.0;" x1="415" x2="543" y1="493.7188" y2="493.7188"/><polygon fill="#FFFFFF" points="425,511.6211,421,517.6211,429,517.6211" style="stroke:#C6C6C6;stroke-width:1.0;"/><text fill="#262626" font-family="sans-serif" font-size="11" lengthAdjust="spacing" textLength="58" x="443" y="517.9292">method1()</text><ellipse cx="425" cy="548.4258" fill="#84BE84" rx="3" ry="3" style="stroke:#038048;stroke-width:1.0;"/><text fill="#262626" font-family="sans-serif" font-size="11" lengthAdjust="spacing" textLength="58" x="443" y="550.7339">method2()</text><text fill="#262626" font-family="sans-serif" font-size="11" font-style="italic" lengthAdjust="spacing" textLength="85" x="443" y="583.5386">void methods()</text></g><g id="elem_N1"><path d="M6,851 L6,894.9688 L182,894.9688 L182,861 L172,851 L6,851 " fill="#FFFFFF" style="stroke:#262626;stroke-width:1.0;"/><path d="M172,851 L172,861 L182,861 L172,851 " fill="#FFFFFF" style="stroke:#262626;stroke-width:1.0;"/><text fill="#262626" font-family="sans-serif" font-size="12" lengthAdjust="spacing" textLength="135" x="22" y="877.1387">This is a floating note</text></g><!--class Element--><g id="elem_Element"><rect fill="url(#g1727pq0r7onwt0)" height="42.8047" id="Element" style="stroke:#C6C6C6;stroke-width:1.0;" width="96" x="809" y="451"/><rect fill="url(#g1727pq0r7onwt0)" height="42.8047" style="stroke:#C6C6C6;stroke-width:1.0;" width="96" x="809" y="451"/><ellipse cx="823" cy="472.4023" fill="#ADD1B2" rx="10" ry="10" style="stroke:#181818;stroke-width:1.0;"/><path d="M824.8281,476.6523 Q824.4219,476.8555 823.9688,476.9648 Q823.5156,477.0742 823.0313,477.0742 Q821.25,477.0742 820.3125,475.918 Q819.3906,474.7461 819.3906,472.543 Q819.3906,470.3242 820.3125,469.168 Q821.25,467.9961 823.0313,467.9961 Q823.5156,467.9961 823.9688,468.1055 Q824.4375,468.1992 824.8281,468.418 L824.8281,470.3398 Q824.3906,469.9336 823.9688,469.7461 Q823.5469,469.543 823.1094,469.543 Q822.1563,469.543 821.6719,470.3086 Q821.1875,471.0586 821.1875,472.543 Q821.1875,474.0117 821.6719,474.7617 Q822.1563,475.5117 823.1094,475.5117 Q823.5469,475.5117 823.9688,475.3242 Q824.3906,475.1367 824.8281,474.7305 L824.8281,476.6523 Z " fill="#000000"/><text fill="#262626" font-family="sans-serif" font-size="11" lengthAdjust="spacing" textLength="46" x="846" y="476.2104">Element</text></g><g id="elem_Elementlol26"><ellipse cx="854" cy="866" fill="#F1F1F1" rx="5" ry="5" style="stroke:#181818;stroke-width:1.5;"/></g><text fill="#000000" font-family="sans-serif" font-size="12" lengthAdjust="spacing" textLength="56" x="826" y="892.1387">interface</text><g id="elem_GMN31"><path d="M944.5,450.5 L944.5,468.5 L905.2866,472.5 L944.5,476.5 L944.5,494.4688 A0,0 0 0 0 944.5,494.4688 L1069.5,494.4688 A0,0 0 0 0 1069.5,494.4688 L1069.5,460.5 L1059.5,450.5 L944.5,450.5 A0,0 0 0 0 944.5,450.5 " fill="#FFFFFF" style="stroke:#262626;stroke-width:1.0;"/><path d="M1059.5,450.5 L1059.5,460.5 L1069.5,460.5 L1059.5,450.5 " fill="#FFFFFF" style="stroke:#262626;stroke-width:1.0;"/><text fill="#262626" font-family="sans-serif" font-size="12" lengthAdjust="spacing" textLength="84" x="960.5" y="476.6387">This is a note</text></g><!--class User--><g id="elem_User"><rect codeLine="69" fill="url(#g1727pq0r7onwt0)" height="403" id="User" style="stroke:#C6C6C6;stroke-width:1.0;" width="126" x="584" y="271"/><rect fill="url(#g1727pq0r7onwt0)" height="83.7578" style="stroke:#C6C6C6;stroke-width:1.0;" width="126" x="584" y="271"/><ellipse cx="615.1" cy="312.8789" fill="#ADD1B2" rx="10" ry="10" style="stroke:#181818;stroke-width:1.0;"/><path d="M616.9281,317.1289 Q616.5219,317.332 616.0688,317.4414 Q615.6156,317.5508 615.1313,317.5508 Q613.35,317.5508 612.4125,316.3945 Q611.4906,315.2227 611.4906,313.0195 Q611.4906,310.8008 612.4125,309.6445 Q613.35,308.4727 615.1313,308.4727 Q615.6156,308.4727 616.0688,308.582 Q616.5375,308.6758 616.9281,308.8945 L616.9281,310.8164 Q616.4906,310.4102 616.0688,310.2227 Q615.6469,310.0195 615.2094,310.0195 Q614.2563,310.0195 613.7719,310.7852 Q613.2875,311.5352 613.2875,313.0195 Q613.2875,314.4883 613.7719,315.2383 Q614.2563,315.9883 615.2094,315.9883 Q615.6469,315.9883 616.0688,315.8008 Q616.4906,315.6133 616.9281,315.207 L616.9281,317.1289 Z " fill="#000000"/><text fill="#262626" font-family="IBM Plex Sans, Noto Sans, Verdana" font-size="9" font-style="italic" lengthAdjust="spacing" textLength="33" x="644.4" y="294.354">&#171;user&#187;</text><text fill="#262626" font-family="IBM Plex Sans, Noto Sans, Verdana" font-size="9" font-style="italic" lengthAdjust="spacing" textLength="42" x="639.9" y="304.8306">&#171;admin&#187;</text><text fill="#262626" font-family="sans-serif" font-size="11" lengthAdjust="spacing" textLength="27" x="647.4" y="337.1636">User</text><line style="stroke:#C6C6C6;stroke-width:1.0;" x1="585" x2="709" y1="354.7578" y2="354.7578"/><ellipse cx="595" cy="413.4648" fill="#84BE84" rx="3" ry="3" style="stroke:#038048;stroke-width:1.0;"/><text fill="#262626" font-family="sans-serif" font-size="11" lengthAdjust="spacing" textLength="59" x="613" y="415.7729">getName()</text><ellipse cx="595" cy="446.2695" fill="#84BE84" rx="3" ry="3" style="stroke:#038048;stroke-width:1.0;"/><text fill="#262626" font-family="sans-serif" font-size="11" lengthAdjust="spacing" textLength="73" x="613" y="448.5776">getAddress()</text><line style="stroke:#C6C6C6;stroke-width:1.0;stroke-dasharray:1.0,2.0;" x1="585" x2="597.5" y1="379.1602" y2="379.1602"/><text fill="#262626" font-family="sans-serif" font-size="11" lengthAdjust="spacing" textLength="79" x="607.5" y="382.4683">Simple Getter</text><line style="stroke:#C6C6C6;stroke-width:1.0;stroke-dasharray:1.0,2.0;" x1="696.5" x2="709" y1="379.1602" y2="379.1602"/><ellipse cx="595" cy="515.8789" fill="#84BE84" rx="3" ry="3" style="stroke:#038048;stroke-width:1.0;"/><text fill="#262626" font-family="sans-serif" font-size="11" lengthAdjust="spacing" textLength="59" x="613" y="518.187">setName()</text><line style="stroke:#C6C6C6;stroke-width:1.0;stroke-dasharray:1.0,2.0;" x1="585" x2="601.5" y1="481.5742" y2="481.5742"/><text fill="#262626" font-family="sans-serif" font-size="11" lengthAdjust="spacing" textLength="71" x="611.5" y="484.8823">Some setter</text><line style="stroke:#C6C6C6;stroke-width:1.0;stroke-dasharray:1.0,2.0;" x1="692.5" x2="709" y1="481.5742" y2="481.5742"/><text fill="#262626" font-family="sans-serif" font-size="11" lengthAdjust="spacing" textLength="39" x="600" y="587.7964">int age</text><line style="stroke:#C6C6C6;stroke-width:1.0;" x1="585" x2="603" y1="551.1836" y2="551.1836"/><text fill="#262626" font-family="sans-serif" font-size="11" lengthAdjust="spacing" textLength="68" x="613" y="554.4917">private data</text><line style="stroke:#C6C6C6;stroke-width:1.0;" x1="691" x2="709" y1="551.1836" y2="551.1836"/><text fill="#262626" font-family="sans-serif" font-size="11" lengthAdjust="spacing" textLength="94" x="600" y="657.4058">String password</text><line style="stroke:#C6C6C6;stroke-width:1.0;" x1="585" x2="609" y1="620.793" y2="620.793"/><text fill="#262626" font-family="sans-serif" font-size="11" lengthAdjust="spacing" textLength="56" x="619" y="624.1011">encrypted</text><line style="stroke:#C6C6C6;stroke-width:1.0;" x1="685" x2="709" y1="620.793" y2="620.793"/></g><!--class Foo--><g id="elem_Foo"><rect codeLine="54" fill="url(#g1727pq0r7onwt0)" height="83.6094" id="Foo" style="stroke:#C6C6C6;stroke-width:1.0;" width="183" x="765.5" y="64"/><rect fill="url(#g1727pq0r7onwt0)" height="42.8047" style="stroke:#C6C6C6;stroke-width:1.0;" width="183" x="765.5" y="64"/><ellipse cx="779.5" cy="85.4023" fill="#ADD1B2" rx="10" ry="10" style="stroke:#181818;stroke-width:1.0;"/><path d="M781.3281,89.6523 Q780.9219,89.8555 780.4688,89.9648 Q780.0156,90.0742 779.5313,90.0742 Q777.75,90.0742 776.8125,88.918 Q775.8906,87.7461 775.8906,85.543 Q775.8906,83.3242 776.8125,82.168 Q777.75,80.9961 779.5313,80.9961 Q780.0156,80.9961 780.4688,81.1055 Q780.9375,81.1992 781.3281,81.418 L781.3281,83.3398 Q780.8906,82.9336 780.4688,82.7461 Q780.0469,82.543 779.6094,82.543 Q778.6563,82.543 778.1719,83.3086 Q777.6875,84.0586 777.6875,85.543 Q777.6875,87.0117 778.1719,87.7617 Q778.6563,88.5117 779.6094,88.5117 Q780.0469,88.5117 780.4688,88.3242 Q780.8906,88.1367 781.3281,87.7305 L781.3281,89.6523 Z " fill="#000000"/><text fill="#262626" font-family="sans-serif" font-size="11" lengthAdjust="spacing" textLength="20" x="802.5" y="89.2104">Foo</text><rect fill="none" height="32.4766" style="stroke:#C6C6C6;stroke-width:1.0;stroke-dasharray:2.0,2.0;" width="111" x="840.5" y="61"/><text fill="#262626" font-family="IBM Plex Sans, Noto Sans, Verdana" font-size="9" font-style="italic" lengthAdjust="spacing" textLength="89" x="851.5" y="80.354">? extends Element</text><line style="stroke:#C6C6C6;stroke-width:1.0;" x1="766.5" x2="947.5" y1="106.8047" y2="106.8047"/><text fill="#262626" font-family="sans-serif" font-size="11" lengthAdjust="spacing" textLength="52" x="781.5" y="131.0151">int si ze()</text></g><polygon fill="none" points="301.2086,127.6415,297.1576,146.1776,309.0895,144.901,301.2086,127.6415" style="stroke:#C6C6C6;stroke-width:1.0;"/><path d="M303.1235,145.5393 C309.9719,209.5447 328.8863,386.322 335.7673,450.6331 " fill="none" style="stroke:#C6C6C6;stroke-width:1.0;"/><text fill="#262626" font-family="sans-serif" font-size="12" lengthAdjust="spacing" textLength="71" x="325" y="240.1387">AList to List</text><polygon fill="none" points="102.8674,127.6415,95.8903,145.2857,107.8722,145.9432,102.8674,127.6415" style="stroke:#C6C6C6;stroke-width:1.0;"/><path d="M101.8812,145.6144 C98.3693,209.6198 88.6737,386.322 85.145,450.6331 " fill="none" style="stroke:#C6C6C6;stroke-width:1.0;"/><text fill="#262626" font-family="sans-serif" font-size="12" lengthAdjust="spacing" textLength="73" x="109" y="240.1387">AColl to Coll</text><text fill="#262626" font-family="sans-serif" font-size="12" lengthAdjust="spacing" textLength="33" x="41.145" y="437.7718">many</text><text fill="#262626" font-family="sans-serif" font-size="12" lengthAdjust="spacing" textLength="33" x="58.8674" y="149.7801">many</text><polygon fill="none" points="156.5129,106,174.5129,112,174.5129,100,156.5129,106" style="stroke:#C6C6C6;stroke-width:1.0;"/><path d="M174.5129,106 C208.6928,106 234.3199,106 264.242,106 " fill="none" style="stroke:#C6C6C6;stroke-width:1.0;"/><text fill="#262626" font-family="sans-serif" font-size="12" lengthAdjust="spacing" textLength="64" x="178.5" y="90.1387">List to Coll</text><polygon fill="none" points="160.2084,472.5,178.2084,478.5,178.2084,466.5,160.2084,472.5" style="stroke:#C6C6C6;stroke-width:1.0;"/><path d="M178.2084,472.5 C216.4938,472.5 244.1523,472.5 279.6127,472.5 " fill="none" style="stroke:#C6C6C6;stroke-width:1.0;"/><text fill="#262626" font-family="sans-serif" font-size="12" lengthAdjust="spacing" textLength="80" x="180" y="456.6387">AList to AColl</text><polygon fill="none" points="336.0886,494.0859,328.4502,511.4542,340.3988,512.5636,336.0886,494.0859" style="stroke:#C6C6C6;stroke-width:1.0;"/><path d="M334.4245,512.0089 C329.0233,570.1819 315.1546,719.5509 306.6807,810.8177 " fill="none" style="stroke:#C6C6C6;stroke-width:1.0;"/><text fill="#262626" font-family="sans-serif" font-size="12" lengthAdjust="spacing" textLength="84" x="342.5" y="713.1387">ArList to AList</text><path d="M323,730.9688 L323,787.9688 L446,787.9688 L446,740.9688 L436,730.9688 L323,730.9688 " fill="#FFFFFF" style="stroke:#262626;stroke-width:1.0;"/><path d="M436,730.9688 L436,740.9688 L446,740.9688 L436,730.9688 " fill="#FFFFFF" style="stroke:#262626;stroke-width:1.0;"/><text fill="#262626" font-family="sans-serif" font-size="12" lengthAdjust="spacing" textLength="82" x="339" y="757.1074">this is a note</text><text fill="#262626" font-family="sans-serif" font-size="12" lengthAdjust="spacing" textLength="41" x="339" y="771.0762">on link</text><polygon fill="#C6C6C6" points="377.1171,873,386.1171,877,382.1171,873,386.1171,869,377.1171,873" style="stroke:#C6C6C6;stroke-width:1.0;"/><ellipse cx="408.2293" cy="873" fill="none" rx="8" ry="8" style="stroke:#C6C6C6;stroke-width:1.0;"/><line style="stroke:#C6C6C6;stroke-width:1.0;" x1="400.2293" x2="416.2293" y1="873" y2="873"/><line style="stroke:#C6C6C6;stroke-width:1.0;" x1="408.2293" x2="408.2293" y1="865" y2="881"/><path d="M383.1171,873 C395.9616,873 387.3189,873 400.2293,873 " fill="none" style="stroke:#C6C6C6;stroke-width:1.0;"/><polygon fill="#C6C6C6" points="84.5166,494.0859,80.7436,503.1835,84.642,499.0844,88.7411,502.9828,84.5166,494.0859" style="stroke:#C6C6C6;stroke-width:1.0;"/><rect fill="none" height="10" style="stroke:#C6C6C6;stroke-width:1.5;" width="10" x="88.4684" y="845.8163"/><path d="M84.6671,500.0841 C86.3829,568.4573 91.6054,776.574 93.343,845.8178 " fill="none" style="stroke:#C6C6C6;stroke-width:1.0;"/><polygon fill="#C6C6C6" points="224.7585,873,215.7585,869,219.7585,873,215.7585,877,224.7585,873" style="stroke:#C6C6C6;stroke-width:1.0;"/><path d="M182.0868,873 C196.2819,873 204.8726,873 218.7585,873 " fill="none" style="stroke:#C6C6C6;stroke-width:1.0;"/><polygon fill="#C6C6C6" points="857,148.1042,853,154.1042,857,160.1042,861,154.1042,857,148.1042" style="stroke:#C6C6C6;stroke-width:1.0;"/><path d="M857,160.1042 C857,237.929 857,392.23 857,450.6704 " fill="none" style="stroke:#C6C6C6;stroke-width:1.0;"/><path d="M857,494.0859 C857,566.2843 857,806.5604 857,860.9778 " fill="none" style="stroke:#C6C6C6;stroke-width:1.0;"/></g></svg>