<?xml version="1.0" encoding="us-ascii" standalone="no"?><svg xmlns="http://www.w3.org/2000/svg" xmlns:xlink="http://www.w3.org/1999/xlink" contentStyleType="text/css" height="559.375px" preserveAspectRatio="none" style="width:717px;height:559px;" version="1.1" viewBox="0 0 717 559" width="717.7083px" zoomAndPan="magnify"><defs><linearGradient id="g63f2ax8l2ufu0" x1="50%" x2="50%" y1="0%" y2="100%"><stop offset="0%" stop-color="#EEEEEE"/><stop offset="100%" stop-color="#BEBEBE"/></linearGradient><linearGradient id="g63f2ax8l2ufu1" x1="50%" x2="50%" y1="0%" y2="100%"><stop offset="0%" stop-color="#F1F1F1"/><stop offset="100%" stop-color="#BEBEBE"/></linearGradient></defs><g><!--class AbstractList--><g id="elem_AbstractList"><rect codeLine="6" fill="url(#g63f2ax8l2ufu0)" height="54.6631" id="AbstractList" rx="7.8125" ry="7.8125" style="stroke:#F1F1F1;stroke-width:1.0416666666666667;" width="107.2917" x="276.5625" y="271.875"/><rect fill="url(#g63f2ax8l2ufu1)" height="37.9964" rx="7.8125" ry="7.8125" style="stroke:url(#g63f2ax8l2ufu1);stroke-width:1.0416666666666667;" width="107.2917" x="276.5625" y="271.875"/><rect fill="url(#g63f2ax8l2ufu1)" height="7.8125" style="stroke:url(#g63f2ax8l2ufu1);stroke-width:1.0416666666666667;" width="107.2917" x="276.5625" y="302.0589"/><rect codeLine="6" fill="none" height="54.6631" id="AbstractList" rx="7.8125" ry="7.8125" style="stroke:#F1F1F1;stroke-width:1.0416666666666667;" width="107.2917" x="276.5625" y="271.875"/><ellipse cx="291.1458" cy="290.8732" fill="none" rx="10.4167" ry="10.4167" style="stroke:#BEBEBE;stroke-width:1.0416666666666667;"/><path d="M290.7389,287.8296 L289.8926,291.5568 L291.6016,291.5568 L290.7389,287.8296 Z M289.6484,286.1857 L291.8457,286.1857 L294.3034,295.3003 L292.4967,295.3003 L291.9434,293.0542 L289.5345,293.0542 L288.9811,295.3003 L287.1745,295.3003 L289.6484,286.1857 Z " fill="#336699"/><text fill="#303030" font-family="Verdana" font-size="9.375" font-style="italic" lengthAdjust="spacing" textLength="59.375" x="313.0208" y="294.1188">AbstractList</text><line style="stroke:#F1F1F1;stroke-width:1.0416666666666667;" x1="277.6042" x2="382.8125" y1="309.8714" y2="309.8714"/><line style="stroke:#F1F1F1;stroke-width:1.0416666666666667;" x1="277.6042" x2="382.8125" y1="318.2048" y2="318.2048"/></g><!--class AbstractCollection--><g id="elem_AbstractCollection"><rect codeLine="7" fill="url(#g63f2ax8l2ufu0)" height="54.6631" id="AbstractCollection" rx="7.8125" ry="7.8125" style="stroke:#F1F1F1;stroke-width:1.0416666666666667;" width="139.5833" x="16.6667" y="271.875"/><rect fill="url(#g63f2ax8l2ufu1)" height="37.9964" rx="7.8125" ry="7.8125" style="stroke:url(#g63f2ax8l2ufu1);stroke-width:1.0416666666666667;" width="139.5833" x="16.6667" y="271.875"/><rect fill="url(#g63f2ax8l2ufu1)" height="7.8125" style="stroke:url(#g63f2ax8l2ufu1);stroke-width:1.0416666666666667;" width="139.5833" x="16.6667" y="302.0589"/><rect codeLine="7" fill="none" height="54.6631" id="AbstractCollection" rx="7.8125" ry="7.8125" style="stroke:#F1F1F1;stroke-width:1.0416666666666667;" width="139.5833" x="16.6667" y="271.875"/><ellipse cx="31.25" cy="290.8732" fill="none" rx="10.4167" ry="10.4167" style="stroke:#BEBEBE;stroke-width:1.0416666666666667;"/><path d="M30.8431,287.8296 L29.9967,291.5568 L31.7057,291.5568 L30.8431,287.8296 Z M29.7526,286.1857 L31.9499,286.1857 L34.4076,295.3003 L32.6009,295.3003 L32.0475,293.0542 L29.6387,293.0542 L29.0853,295.3003 L27.2786,295.3003 L29.7526,286.1857 Z " fill="#336699"/><text fill="#303030" font-family="Verdana" font-size="9.375" font-style="italic" lengthAdjust="spacing" textLength="91.6667" x="53.125" y="294.1188">AbstractCollection</text><line style="stroke:#F1F1F1;stroke-width:1.0416666666666667;" x1="17.7083" x2="155.2083" y1="309.8714" y2="309.8714"/><line style="stroke:#F1F1F1;stroke-width:1.0416666666666667;" x1="17.7083" x2="155.2083" y1="318.2048" y2="318.2048"/></g><!--class List--><g id="elem_List"><rect codeLine="8" fill="url(#g63f2ax8l2ufu0)" height="54.6631" id="List" rx="7.8125" ry="7.8125" style="stroke:#F1F1F1;stroke-width:1.0416666666666667;" width="65.625" x="290.1042" y="64.5833"/><rect fill="url(#g63f2ax8l2ufu1)" height="37.9964" rx="7.8125" ry="7.8125" style="stroke:url(#g63f2ax8l2ufu1);stroke-width:1.0416666666666667;" width="65.625" x="290.1042" y="64.5833"/><rect fill="url(#g63f2ax8l2ufu1)" height="7.8125" style="stroke:url(#g63f2ax8l2ufu1);stroke-width:1.0416666666666667;" width="65.625" x="290.1042" y="94.7673"/><rect codeLine="8" fill="none" height="54.6631" id="List" rx="7.8125" ry="7.8125" style="stroke:#F1F1F1;stroke-width:1.0416666666666667;" width="65.625" x="290.1042" y="64.5833"/><ellipse cx="304.6875" cy="83.5815" fill="none" rx="10.4167" ry="10.4167" style="stroke:#BEBEBE;stroke-width:1.0416666666666667;"/><path d="M301.5788,80.7495 L301.5788,79.1545 L306.9987,79.1545 L306.9987,80.7495 L305.1921,80.7495 L305.1921,86.674 L306.9987,86.674 L306.9987,88.269 L301.5788,88.269 L301.5788,86.674 L303.3854,86.674 L303.3854,80.7495 L301.5788,80.7495 Z " fill="#336699"/><text fill="#303030" font-family="Verdana" font-size="9.375" font-style="italic" lengthAdjust="spacing" textLength="17.7083" x="326.5625" y="86.8271">List</text><line style="stroke:#F1F1F1;stroke-width:1.0416666666666667;" x1="291.1458" x2="354.6875" y1="102.5798" y2="102.5798"/><line style="stroke:#F1F1F1;stroke-width:1.0416666666666667;" x1="291.1458" x2="354.6875" y1="110.9131" y2="110.9131"/></g><!--class Collection--><g id="elem_Collection"><rect codeLine="9" fill="url(#g63f2ax8l2ufu0)" height="54.6631" id="Collection" rx="7.8125" ry="7.8125" style="stroke:#F1F1F1;stroke-width:1.0416666666666667;" width="97.9167" x="73.9583" y="64.5833"/><rect fill="url(#g63f2ax8l2ufu1)" height="37.9964" rx="7.8125" ry="7.8125" style="stroke:url(#g63f2ax8l2ufu1);stroke-width:1.0416666666666667;" width="97.9167" x="73.9583" y="64.5833"/><rect fill="url(#g63f2ax8l2ufu1)" height="7.8125" style="stroke:url(#g63f2ax8l2ufu1);stroke-width:1.0416666666666667;" width="97.9167" x="73.9583" y="94.7673"/><rect codeLine="9" fill="none" height="54.6631" id="Collection" rx="7.8125" ry="7.8125" style="stroke:#F1F1F1;stroke-width:1.0416666666666667;" width="97.9167" x="73.9583" y="64.5833"/><ellipse cx="88.5417" cy="83.5815" fill="none" rx="10.4167" ry="10.4167" style="stroke:#BEBEBE;stroke-width:1.0416666666666667;"/><path d="M85.4329,80.7495 L85.4329,79.1545 L90.8529,79.1545 L90.8529,80.7495 L89.0462,80.7495 L89.0462,86.674 L90.8529,86.674 L90.8529,88.269 L85.4329,88.269 L85.4329,86.674 L87.2396,86.674 L87.2396,80.7495 L85.4329,80.7495 Z " fill="#336699"/><text fill="#303030" font-family="Verdana" font-size="9.375" font-style="italic" lengthAdjust="spacing" textLength="50" x="110.4167" y="86.8271">Collection</text><line style="stroke:#F1F1F1;stroke-width:1.0416666666666667;" x1="75" x2="170.8333" y1="102.5798" y2="102.5798"/><line style="stroke:#F1F1F1;stroke-width:1.0416666666666667;" x1="75" x2="170.8333" y1="110.9131" y2="110.9131"/></g><!--class ArrayList--><g id="elem_ArrayList"><rect codeLine="18" fill="url(#g63f2ax8l2ufu0)" height="109.8226" id="ArrayList" rx="7.8125" ry="7.8125" style="stroke:#F1F1F1;stroke-width:1.0416666666666667;" width="139.5833" x="260.4167" y="437.5"/><rect fill="url(#g63f2ax8l2ufu1)" height="37.9964" rx="7.8125" ry="7.8125" style="stroke:url(#g63f2ax8l2ufu1);stroke-width:1.0416666666666667;" width="139.5833" x="260.4167" y="437.5"/><rect fill="url(#g63f2ax8l2ufu1)" height="7.8125" style="stroke:url(#g63f2ax8l2ufu1);stroke-width:1.0416666666666667;" width="139.5833" x="260.4167" y="467.6839"/><rect codeLine="18" fill="none" height="109.8226" id="ArrayList" rx="7.8125" ry="7.8125" style="stroke:#F1F1F1;stroke-width:1.0416666666666667;" width="139.5833" x="260.4167" y="437.5"/><ellipse cx="296.5625" cy="456.4982" fill="none" rx="10.4167" ry="10.4167" style="stroke:#BEBEBE;stroke-width:1.0416666666666667;"/><path d="M298.4668,460.9253 Q298.0436,461.1369 297.5716,461.2508 Q297.0996,461.3647 296.5951,461.3647 Q294.7396,461.3647 293.763,460.1603 Q292.8027,458.9396 292.8027,456.6447 Q292.8027,454.3335 293.763,453.1291 Q294.7396,451.9084 296.5951,451.9084 Q297.0996,451.9084 297.5716,452.0223 Q298.0599,452.12 298.4668,452.3478 L298.4668,454.3498 Q298.0111,453.9266 297.5716,453.7313 Q297.1322,453.5197 296.6764,453.5197 Q295.6836,453.5197 295.179,454.3172 Q294.6745,455.0985 294.6745,456.6447 Q294.6745,458.1746 295.179,458.9559 Q295.6836,459.7371 296.6764,459.7371 Q297.1322,459.7371 297.5716,459.5418 Q298.0111,459.3465 298.4668,458.9233 L298.4668,460.9253 Z " fill="#336699"/><text fill="#303030" font-family="Verdana" font-size="9.375" lengthAdjust="spacing" textLength="43.75" x="323.2292" y="459.7438">ArrayList</text><line style="stroke:#F1F1F1;stroke-width:1.0416666666666667;" x1="261.4583" x2="398.9583" y1="475.4964" y2="475.4964"/><text fill="#303030" font-family="Verdana" font-size="9.375" lengthAdjust="spacing" textLength="110.4167" x="275" y="496.6985">Object[] elementData</text><line style="stroke:#F1F1F1;stroke-width:1.0416666666666667;" x1="261.4583" x2="398.9583" y1="511.4095" y2="511.4095"/><text fill="#303030" font-family="Verdana" font-size="9.375" lengthAdjust="spacing" textLength="29.1667" x="275" y="532.6116">size()</text></g><!--class TimeUnit--><g id="elem_TimeUnit"><rect codeLine="23" fill="url(#g63f2ax8l2ufu0)" height="137.4023" id="TimeUnit" rx="7.8125" ry="7.8125" style="stroke:#F1F1F1;stroke-width:1.0416666666666667;" width="92.7083" x="435.9375" y="22.9167"/><rect fill="url(#g63f2ax8l2ufu1)" height="37.9964" rx="7.8125" ry="7.8125" style="stroke:url(#g63f2ax8l2ufu1);stroke-width:1.0416666666666667;" width="92.7083" x="435.9375" y="22.9167"/><rect fill="url(#g63f2ax8l2ufu1)" height="7.8125" style="stroke:url(#g63f2ax8l2ufu1);stroke-width:1.0416666666666667;" width="92.7083" x="435.9375" y="53.1006"/><rect codeLine="23" fill="none" height="137.4023" id="TimeUnit" rx="7.8125" ry="7.8125" style="stroke:#F1F1F1;stroke-width:1.0416666666666667;" width="92.7083" x="435.9375" y="22.9167"/><ellipse cx="450.5208" cy="41.9149" fill="none" rx="10.4167" ry="10.4167" style="stroke:#BEBEBE;stroke-width:1.0416666666666667;"/><path d="M453.0599,46.6024 L447.3796,46.6024 L447.3796,37.4878 L453.0599,37.4878 L453.0599,39.0828 L449.1862,39.0828 L449.1862,41.036 L452.6855,41.036 L452.6855,42.631 L449.1862,42.631 L449.1862,45.0073 L453.0599,45.0073 L453.0599,46.6024 Z " fill="#336699"/><text fill="#303030" font-family="Verdana" font-size="9.375" lengthAdjust="spacing" textLength="44.7917" x="472.3958" y="45.1604">TimeUnit</text><line style="stroke:#F1F1F1;stroke-width:1.0416666666666667;" x1="436.9792" x2="527.6042" y1="60.9131" y2="60.9131"/><text fill="#303030" font-family="Verdana" font-size="9.375" lengthAdjust="spacing" textLength="26.0417" x="450.5208" y="82.1152">DAYS</text><text fill="#303030" font-family="Verdana" font-size="9.375" lengthAdjust="spacing" textLength="35.4167" x="450.5208" y="109.6949">HOURS</text><text fill="#303030" font-family="Verdana" font-size="9.375" lengthAdjust="spacing" textLength="44.7917" x="450.5208" y="137.2747">MINUTES</text><line style="stroke:#F1F1F1;stroke-width:1.0416666666666667;" x1="436.9792" x2="527.6042" y1="151.9857" y2="151.9857"/></g><!--class SuppressWarnings--><g id="elem_SuppressWarnings"><rect codeLine="29" fill="url(#g63f2ax8l2ufu0)" height="54.6631" id="SuppressWarnings" rx="7.8125" ry="7.8125" style="stroke:#F1F1F1;stroke-width:1.0416666666666667;" width="139.5833" x="565.625" y="64.5833"/><rect fill="url(#g63f2ax8l2ufu1)" height="37.9964" rx="7.8125" ry="7.8125" style="stroke:url(#g63f2ax8l2ufu1);stroke-width:1.0416666666666667;" width="139.5833" x="565.625" y="64.5833"/><rect fill="url(#g63f2ax8l2ufu1)" height="7.8125" style="stroke:url(#g63f2ax8l2ufu1);stroke-width:1.0416666666666667;" width="139.5833" x="565.625" y="94.7673"/><rect codeLine="29" fill="none" height="54.6631" id="SuppressWarnings" rx="7.8125" ry="7.8125" style="stroke:#F1F1F1;stroke-width:1.0416666666666667;" width="139.5833" x="565.625" y="64.5833"/><ellipse cx="580.2083" cy="83.5815" fill="none" rx="10.4167" ry="10.4167" style="stroke:#BEBEBE;stroke-width:1.0416666666666667;"/><path d="M581.4616,83.3862 Q581.4616,82.6864 581.1523,82.2957 Q580.8431,81.9051 580.2897,81.9051 Q579.7526,81.9051 579.4434,82.2957 Q579.1341,82.6864 579.1341,83.3862 Q579.1341,84.0698 579.4434,84.4604 Q579.7526,84.8511 580.2897,84.8511 Q580.8431,84.8511 581.1523,84.4604 Q581.4616,84.0698 581.4616,83.3862 Z M582.6009,85.8765 L581.3965,85.8765 L581.3965,85.3882 Q581.1686,85.6974 580.8431,85.8602 Q580.5339,86.0067 580.0944,86.0067 Q579.1016,86.0067 578.4831,85.2905 Q577.8646,84.5581 577.8646,83.3862 Q577.8646,82.1981 578.4668,81.4819 Q579.0853,80.7658 580.0944,80.7658 Q580.5339,80.7658 580.8594,80.9123 Q581.1849,81.0588 581.3965,81.3517 L581.3965,81.1076 Q581.3965,80.2775 580.9408,79.8218 Q580.485,79.366 579.6549,79.366 Q578.3854,79.366 577.5716,80.4891 Q576.7741,81.5959 576.7741,83.3862 Q576.7741,85.258 577.7018,86.381 Q578.6296,87.4878 580.1758,87.4878 Q580.6641,87.4878 581.1198,87.3413 Q581.5755,87.1948 581.9987,86.9019 L582.5521,87.9761 Q582.0638,88.3179 581.4779,88.4806 Q580.8919,88.6597 580.2409,88.6597 Q578.0924,88.6597 576.8229,87.2274 Q575.5534,85.8114 575.5534,83.3862 Q575.5534,81.0262 576.6927,79.6102 Q577.8483,78.1942 579.7201,78.1942 Q581.0547,78.1942 581.8197,78.9917 Q582.6009,79.7892 582.6009,81.189 L582.6009,85.8765 Z " fill="#336699"/><text fill="#303030" font-family="Verdana" font-size="9.375" lengthAdjust="spacing" textLength="91.6667" x="602.0833" y="86.8271">SuppressWarnings</text><line style="stroke:#F1F1F1;stroke-width:1.0416666666666667;" x1="566.6667" x2="704.1667" y1="102.5798" y2="102.5798"/><line style="stroke:#F1F1F1;stroke-width:1.0416666666666667;" x1="566.6667" x2="704.1667" y1="110.9131" y2="110.9131"/></g><!--class Annotation--><g id="elem_Annotation"><rect codeLine="31" fill="url(#g63f2ax8l2ufu0)" height="137.4023" id="Annotation" rx="7.8125" ry="7.8125" style="stroke:#F1F1F1;stroke-width:1.0416666666666667;" width="158.3333" x="403.125" y="230.2083"/><rect fill="url(#g63f2ax8l2ufu1)" height="37.9964" rx="7.8125" ry="7.8125" style="stroke:url(#g63f2ax8l2ufu1);stroke-width:1.0416666666666667;" width="158.3333" x="403.125" y="230.2083"/><rect fill="url(#g63f2ax8l2ufu1)" height="7.8125" style="stroke:url(#g63f2ax8l2ufu1);stroke-width:1.0416666666666667;" width="158.3333" x="403.125" y="260.3923"/><rect codeLine="31" fill="none" height="137.4023" id="Annotation" rx="7.8125" ry="7.8125" style="stroke:#F1F1F1;stroke-width:1.0416666666666667;" width="158.3333" x="403.125" y="230.2083"/><ellipse cx="442.5521" cy="249.2065" fill="none" rx="10.4167" ry="10.4167" style="stroke:#BEBEBE;stroke-width:1.0416666666666667;"/><path d="M443.8053,249.0112 Q443.8053,248.3114 443.4961,247.9207 Q443.1868,247.5301 442.6335,247.5301 Q442.0964,247.5301 441.7871,247.9207 Q441.4779,248.3114 441.4779,249.0112 Q441.4779,249.6948 441.7871,250.0854 Q442.0964,250.4761 442.6335,250.4761 Q443.1868,250.4761 443.4961,250.0854 Q443.8053,249.6948 443.8053,249.0112 Z M444.9447,251.5015 L443.7402,251.5015 L443.7402,251.0132 Q443.5124,251.3224 443.1868,251.4852 Q442.8776,251.6317 442.4382,251.6317 Q441.4453,251.6317 440.8268,250.9155 Q440.2083,250.1831 440.2083,249.0112 Q440.2083,247.8231 440.8105,247.1069 Q441.429,246.3908 442.4382,246.3908 Q442.8776,246.3908 443.2031,246.5373 Q443.5286,246.6838 443.7402,246.9767 L443.7402,246.7326 Q443.7402,245.9025 443.2845,245.4468 Q442.8288,244.991 441.9987,244.991 Q440.7292,244.991 439.9154,246.1141 Q439.1178,247.2209 439.1178,249.0112 Q439.1178,250.883 440.0456,252.006 Q440.9733,253.1128 442.5195,253.1128 Q443.0078,253.1128 443.4635,252.9663 Q443.9193,252.8198 444.3424,252.5269 L444.8958,253.6011 Q444.4076,253.9429 443.8216,254.1056 Q443.2357,254.2847 442.5846,254.2847 Q440.4362,254.2847 439.1667,252.8524 Q437.8971,251.4364 437.8971,249.0112 Q437.8971,246.6512 439.0365,245.2352 Q440.1921,243.8192 442.0638,243.8192 Q443.3984,243.8192 444.1634,244.6167 Q444.9447,245.4142 444.9447,246.814 L444.9447,251.5015 Z " fill="#336699"/><text fill="#303030" font-family="Verdana" font-size="9.375" lengthAdjust="spacing" textLength="55.2083" x="469.9479" y="252.4521">Annotation</text><line style="stroke:#F1F1F1;stroke-width:1.0416666666666667;" x1="404.1667" x2="560.4167" y1="268.2048" y2="268.2048"/><text fill="#303030" font-family="Verdana" font-size="9.375" lengthAdjust="spacing" textLength="129.1667" x="417.7083" y="289.4068">annotation with members</text><line style="stroke:#F1F1F1;stroke-width:1.0416666666666667;" x1="404.1667" x2="560.4167" y1="304.1178" y2="304.1178"/><text fill="#303030" font-family="Verdana" font-size="9.375" lengthAdjust="spacing" textLength="58.3333" x="417.7083" y="325.3199">String foo()</text><text fill="#303030" font-family="Verdana" font-size="9.375" lengthAdjust="spacing" textLength="59.375" x="417.7083" y="352.8997">String bar()</text></g><path d="M323.855,119.1156 C325.2551,158.5183 327.8756,232.2671 329.2736,271.6107 " fill="none" style="stroke:#EEEEEE;stroke-width:3.125;"/><polygon fill="none" points="323.855,119.1156,318.2008,135.9937,330.6929,135.5498,323.855,119.1156" style="stroke:#EEEEEE;stroke-width:1.0416666666666667;"/><text fill="#303030" font-family="Verdana" font-size="12.5" lengthAdjust="spacing" textLength="73.9583" x="336.4583" y="200.1444">AList to List</text><path d="M118.225,119.1156 C111.2245,158.5183 98.122,232.2671 91.132,271.6107 " fill="none" style="stroke:#EEEEEE;stroke-width:3.125;"/><polygon fill="none" points="118.225,119.1156,109.156,134.432,121.4632,136.6186,118.225,119.1156" style="stroke:#EEEEEE;stroke-width:1.0416666666666667;"/><text fill="#303030" font-family="Verdana" font-size="12.5" lengthAdjust="spacing" textLength="76.0417" x="116.6667" y="200.1444">AColl to Coll</text><path d="M172.3549,91.6667 C209.0239,91.6667 258.002,91.6667 289.9905,91.6667 " fill="none" style="stroke:#EEEEEE;stroke-width:3.125;"/><polygon fill="none" points="172.3549,91.6667,189.0215,97.9167,189.0215,85.4167,172.3549,91.6667" style="stroke:#EEEEEE;stroke-width:1.0416666666666667;"/><text fill="#303030" font-family="Verdana" font-size="12.5" lengthAdjust="spacing" textLength="66.6667" x="197.6563" y="77.2278">List to Coll</text><path d="M156.3073,298.9583 C194.4313,298.9583 240.9168,298.9583 276.2316,298.9583 " fill="none" style="stroke:#EEEEEE;stroke-width:3.125;"/><polygon fill="none" points="156.3073,298.9583,172.974,305.2083,172.974,292.7083,156.3073,298.9583" style="stroke:#EEEEEE;stroke-width:1.0416666666666667;"/><text fill="#303030" font-family="Verdana" font-size="12.5" lengthAdjust="spacing" textLength="83.3333" x="174.7396" y="284.5194">AList to AColl</text><path d="M330.2083,326.1772 C330.2083,354.7039 330.2083,401.1267 330.2083,437.471 " fill="none" style="stroke:#EEEEEE;stroke-width:3.125;"/><polygon fill="none" points="330.2083,326.1772,323.9583,342.8439,336.4583,342.8439,330.2083,326.1772" style="stroke:#EEEEEE;stroke-width:1.0416666666666667;"/><text fill="#303030" font-family="Verdana" font-size="12.5" lengthAdjust="spacing" textLength="87.5" x="339.5833" y="407.4361">ArList to AList</text></g></svg>