<?xml version="1.0" encoding="us-ascii" standalone="no"?><svg xmlns="http://www.w3.org/2000/svg" xmlns:xlink="http://www.w3.org/1999/xlink" contentStyleType="text/css" height="392px" preserveAspectRatio="none" style="width:715px;height:392px;background:#D9D3D0;" version="1.1" viewBox="0 0 715 392" width="715px" zoomAndPan="magnify"><defs/><g><rect fill="#D9D3D0" height="392" style="stroke:none;stroke-width:1.0;" width="715" x="0" y="0"/><!--class AbstractList--><g id="elem_AbstractList"><rect codeLine="6" fill="#D9D3D0" height="44" id="AbstractList" rx="2.5" ry="2.5" style="stroke:#9275B6;stroke-width:1.0;" width="108" x="267.5" y="187.5"/><ellipse cx="280.5" cy="201.5" fill="#D9D3D0" rx="9" ry="9" style="stroke:#9275B6;stroke-width:1.0;"/><path d="M280.6094,196.8438 L279.4531,201.9219 L281.7813,201.9219 L280.6094,196.8438 Z M279.125,194.6094 L282.1094,194.6094 L285.4688,207 L283.0156,207 L282.25,203.9375 L278.9688,203.9375 L278.2188,207 L275.7813,207 L279.125,194.6094 Z " fill="#9275B6"/><text fill="#9275B6" font-family="Verdana" font-size="14" font-style="italic" lengthAdjust="spacing" textLength="80" x="292.5" y="206.3467">AbstractList</text><line style="stroke:#9275B6;stroke-width:1.0;" x1="268.5" x2="374.5" y1="215.5" y2="215.5"/><line style="stroke:#9275B6;stroke-width:1.0;" x1="268.5" x2="374.5" y1="223.5" y2="223.5"/></g><!--class AbstractCollection--><g id="elem_AbstractCollection"><rect codeLine="7" fill="#D9D3D0" height="44" id="AbstractCollection" rx="2.5" ry="2.5" style="stroke:#9275B6;stroke-width:1.0;" width="153" x="11" y="187.5"/><ellipse cx="24" cy="201.5" fill="#D9D3D0" rx="9" ry="9" style="stroke:#9275B6;stroke-width:1.0;"/><path d="M24.1094,196.8438 L22.9531,201.9219 L25.2813,201.9219 L24.1094,196.8438 Z M22.625,194.6094 L25.6094,194.6094 L28.9688,207 L26.5156,207 L25.75,203.9375 L22.4688,203.9375 L21.7188,207 L19.2813,207 L22.625,194.6094 Z " fill="#9275B6"/><text fill="#9275B6" font-family="Verdana" font-size="14" font-style="italic" lengthAdjust="spacing" textLength="125" x="36" y="206.3467">AbstractCollection</text><line style="stroke:#9275B6;stroke-width:1.0;" x1="12" x2="163" y1="215.5" y2="215.5"/><line style="stroke:#9275B6;stroke-width:1.0;" x1="12" x2="163" y1="223.5" y2="223.5"/></g><!--class List--><g id="elem_List"><rect codeLine="8" fill="#D9D3D0" height="44" id="List" rx="2.5" ry="2.5" style="stroke:#9275B6;stroke-width:1.0;" width="51" x="286" y="41.5"/><ellipse cx="299" cy="55.5" fill="#D9D3D0" rx="9" ry="9" style="stroke:#9275B6;stroke-width:1.0;"/><path d="M294.9219,51.2656 L294.9219,49.1094 L302.3125,49.1094 L302.3125,51.2656 L299.8438,51.2656 L299.8438,59.3438 L302.3125,59.3438 L302.3125,61.5 L294.9219,61.5 L294.9219,59.3438 L297.3906,59.3438 L297.3906,51.2656 L294.9219,51.2656 Z " fill="#9275B6"/><text fill="#9275B6" font-family="Verdana" font-size="14" font-style="italic" lengthAdjust="spacing" textLength="23" x="311" y="60.3467">List</text><line style="stroke:#9275B6;stroke-width:1.0;" x1="287" x2="336" y1="69.5" y2="69.5"/><line style="stroke:#9275B6;stroke-width:1.0;" x1="287" x2="336" y1="77.5" y2="77.5"/></g><!--class Collection--><g id="elem_Collection"><rect codeLine="9" fill="#D9D3D0" height="44" id="Collection" rx="2.5" ry="2.5" style="stroke:#9275B6;stroke-width:1.0;" width="96" x="85.5" y="41.5"/><ellipse cx="98.5" cy="55.5" fill="#D9D3D0" rx="9" ry="9" style="stroke:#9275B6;stroke-width:1.0;"/><path d="M94.4219,51.2656 L94.4219,49.1094 L101.8125,49.1094 L101.8125,51.2656 L99.3438,51.2656 L99.3438,59.3438 L101.8125,59.3438 L101.8125,61.5 L94.4219,61.5 L94.4219,59.3438 L96.8906,59.3438 L96.8906,51.2656 L94.4219,51.2656 Z " fill="#9275B6"/><text fill="#9275B6" font-family="Verdana" font-size="14" font-style="italic" lengthAdjust="spacing" textLength="68" x="110.5" y="60.3467">Collection</text><line style="stroke:#9275B6;stroke-width:1.0;" x1="86.5" x2="180.5" y1="69.5" y2="69.5"/><line style="stroke:#9275B6;stroke-width:1.0;" x1="86.5" x2="180.5" y1="77.5" y2="77.5"/></g><!--class ArrayList--><g id="elem_ArrayList"><rect codeLine="18" fill="#D9D3D0" height="76.5938" id="ArrayList" rx="2.5" ry="2.5" style="stroke:#9275B6;stroke-width:1.0;" width="160" x="241.5" y="309"/><ellipse cx="289.25" cy="323" fill="#D9D3D0" rx="9" ry="9" style="stroke:#9275B6;stroke-width:1.0;"/><path d="M292.2188,328.6406 Q291.6406,328.9375 291,329.0781 Q290.3594,329.2344 289.6563,329.2344 Q287.1563,329.2344 285.8281,327.5938 Q284.5156,325.9375 284.5156,322.8125 Q284.5156,319.6875 285.8281,318.0313 Q287.1563,316.375 289.6563,316.375 Q290.3594,316.375 291,316.5313 Q291.6563,316.6875 292.2188,316.9844 L292.2188,319.7031 Q291.5938,319.125 291,318.8594 Q290.4063,318.5781 289.7813,318.5781 Q288.4375,318.5781 287.75,319.6563 Q287.0625,320.7188 287.0625,322.8125 Q287.0625,324.9063 287.75,325.9844 Q288.4375,327.0469 289.7813,327.0469 Q290.4063,327.0469 291,326.7813 Q291.5938,326.5 292.2188,325.9219 L292.2188,328.6406 Z " fill="#9275B6"/><text fill="#9275B6" font-family="Verdana" font-size="14" lengthAdjust="spacing" textLength="57" x="306.75" y="327.8467">ArrayList</text><line style="stroke:#9275B6;stroke-width:1.0;" x1="242.5" x2="400.5" y1="337" y2="337"/><text fill="#9275B6" font-family="Verdana" font-size="14" lengthAdjust="spacing" textLength="148" x="247.5" y="353.9951">Object[] elementData</text><line style="stroke:#9275B6;stroke-width:1.0;" x1="242.5" x2="400.5" y1="361.2969" y2="361.2969"/><text fill="#9275B6" font-family="Verdana" font-size="14" lengthAdjust="spacing" textLength="38" x="247.5" y="378.292">size()</text></g><!--class TimeUnit--><g id="elem_TimeUnit"><rect codeLine="23" fill="#D9D3D0" height="92.8906" id="TimeUnit" rx="2.5" ry="2.5" style="stroke:#9275B6;stroke-width:1.0;" width="89" x="443" y="17"/><ellipse cx="456" cy="31" fill="#D9D3D0" rx="9" ry="9" style="stroke:#9275B6;stroke-width:1.0;"/><path d="M460.1094,37 L452.3906,37 L452.3906,24.6094 L460.1094,24.6094 L460.1094,26.7656 L454.8438,26.7656 L454.8438,29.4375 L459.6094,29.4375 L459.6094,31.5938 L454.8438,31.5938 L454.8438,34.8438 L460.1094,34.8438 L460.1094,37 Z " fill="#9275B6"/><text fill="#9275B6" font-family="Verdana" font-size="14" lengthAdjust="spacing" textLength="61" x="468" y="35.8467">TimeUnit</text><line style="stroke:#9275B6;stroke-width:1.0;" x1="444" x2="531" y1="45" y2="45"/><text fill="#9275B6" font-family="Verdana" font-size="14" lengthAdjust="spacing" textLength="38" x="449" y="61.9951">DAYS</text><text fill="#9275B6" font-family="Verdana" font-size="14" lengthAdjust="spacing" textLength="50" x="449" y="78.292">HOURS</text><text fill="#9275B6" font-family="Verdana" font-size="14" lengthAdjust="spacing" textLength="62" x="449" y="94.5889">MINUTES</text><line style="stroke:#9275B6;stroke-width:1.0;" x1="444" x2="531" y1="101.8906" y2="101.8906"/></g><!--class SuppressWarnings--><g id="elem_SuppressWarnings"><rect codeLine="29" fill="#D9D3D0" height="44" id="SuppressWarnings" rx="2.5" ry="2.5" style="stroke:#9275B6;stroke-width:1.0;" width="158" x="550.5" y="41.5"/><ellipse cx="563.5" cy="55.5" fill="#D9D3D0" rx="9" ry="9" style="stroke:#9275B6;stroke-width:1.0;"/><path d="M565.5781,55.9688 Q565.5781,55.0313 565.1563,54.5 Q564.7344,53.9688 563.9844,53.9688 Q563.25,53.9688 562.8281,54.5 Q562.4219,55.0313 562.4219,55.9688 Q562.4219,56.9219 562.8281,57.4531 Q563.25,57.9844 563.9844,57.9844 Q564.7344,57.9844 565.1563,57.4531 Q565.5781,56.9219 565.5781,55.9688 Z M567.125,59.375 L565.5,59.375 L565.5,58.7031 Q565.1719,59.1406 564.75,59.3438 Q564.3281,59.5469 563.7188,59.5469 Q562.3594,59.5469 561.5313,58.5781 Q560.7031,57.5938 560.7031,55.9688 Q560.7031,54.375 561.5313,53.4063 Q562.3594,52.4219 563.7188,52.4219 Q564.3125,52.4219 564.7656,52.625 Q565.2188,52.8281 565.5,53.2188 L565.5,52.875 Q565.5,51.75 564.875,51.1406 Q564.25,50.5156 563.1094,50.5156 Q561.3906,50.5156 560.2969,52.0469 Q559.2031,53.5625 559.2031,56 Q559.2031,58.5469 560.4531,60.0469 Q561.7188,61.5469 563.8281,61.5469 Q564.4844,61.5469 565.1094,61.3594 Q565.7344,61.1719 566.3125,60.7813 L567.0781,62.2344 Q566.4063,62.6875 565.6094,62.9063 Q564.8125,63.1406 563.9063,63.1406 Q561,63.1406 559.2656,61.2031 Q557.5469,59.2813 557.5469,56 Q557.5469,52.7813 559.0938,50.8594 Q560.6563,48.9219 563.2188,48.9219 Q565.0156,48.9219 566.0625,50.0156 Q567.125,51.1094 567.125,52.9844 L567.125,59.375 Z " fill="#9275B6"/><text fill="#9275B6" font-family="Verdana" font-size="14" lengthAdjust="spacing" textLength="130" x="575.5" y="60.3467">SuppressWarnings</text><line style="stroke:#9275B6;stroke-width:1.0;" x1="551.5" x2="707.5" y1="69.5" y2="69.5"/><line style="stroke:#9275B6;stroke-width:1.0;" x1="551.5" x2="707.5" y1="77.5" y2="77.5"/></g><!--class Annotation--><g id="elem_Annotation"><rect codeLine="31" fill="#D9D3D0" height="92.8906" id="Annotation" rx="2.5" ry="2.5" style="stroke:#9275B6;stroke-width:1.0;" width="188" x="393.5" y="163"/><ellipse cx="446.25" cy="177" fill="#D9D3D0" rx="9" ry="9" style="stroke:#9275B6;stroke-width:1.0;"/><path d="M448.3281,177.4688 Q448.3281,176.5313 447.9063,176 Q447.4844,175.4688 446.7344,175.4688 Q446,175.4688 445.5781,176 Q445.1719,176.5313 445.1719,177.4688 Q445.1719,178.4219 445.5781,178.9531 Q446,179.4844 446.7344,179.4844 Q447.4844,179.4844 447.9063,178.9531 Q448.3281,178.4219 448.3281,177.4688 Z M449.875,180.875 L448.25,180.875 L448.25,180.2031 Q447.9219,180.6406 447.5,180.8438 Q447.0781,181.0469 446.4688,181.0469 Q445.1094,181.0469 444.2813,180.0781 Q443.4531,179.0938 443.4531,177.4688 Q443.4531,175.875 444.2813,174.9063 Q445.1094,173.9219 446.4688,173.9219 Q447.0625,173.9219 447.5156,174.125 Q447.9688,174.3281 448.25,174.7188 L448.25,174.375 Q448.25,173.25 447.625,172.6406 Q447,172.0156 445.8594,172.0156 Q444.1406,172.0156 443.0469,173.5469 Q441.9531,175.0625 441.9531,177.5 Q441.9531,180.0469 443.2031,181.5469 Q444.4688,183.0469 446.5781,183.0469 Q447.2344,183.0469 447.8594,182.8594 Q448.4844,182.6719 449.0625,182.2813 L449.8281,183.7344 Q449.1563,184.1875 448.3594,184.4063 Q447.5625,184.6406 446.6563,184.6406 Q443.75,184.6406 442.0156,182.7031 Q440.2969,180.7813 440.2969,177.5 Q440.2969,174.2813 441.8438,172.3594 Q443.4063,170.4219 445.9688,170.4219 Q447.7656,170.4219 448.8125,171.5156 Q449.875,172.6094 449.875,174.4844 L449.875,180.875 Z " fill="#9275B6"/><text fill="#9275B6" font-family="Verdana" font-size="14" lengthAdjust="spacing" textLength="75" x="463.75" y="181.8467">Annotation</text><line style="stroke:#9275B6;stroke-width:1.0;" x1="394.5" x2="580.5" y1="191" y2="191"/><text fill="#9275B6" font-family="Verdana" font-size="14" lengthAdjust="spacing" textLength="176" x="399.5" y="207.9951">annotation with members</text><line style="stroke:#9275B6;stroke-width:1.0;" x1="394.5" x2="580.5" y1="215.2969" y2="215.2969"/><text fill="#9275B6" font-family="Verdana" font-size="14" lengthAdjust="spacing" textLength="76" x="399.5" y="232.292">String foo()</text><text fill="#9275B6" font-family="Verdana" font-size="14" lengthAdjust="spacing" textLength="76" x="399.5" y="248.5889">String bar()</text></g><path d="M312.9755,85.7477 C314.8662,112.9733 318.1248,159.8976 320.0184,187.1651 " fill="none" style="stroke:#9275B6;stroke-width:1.0;"/><polygon fill="#D9D3D0" points="312.9755,85.7477,308.0984,102.1249,320.0696,101.2936,312.9755,85.7477" style="stroke:#9275B6;stroke-width:1.0;"/><text fill="#9275B6" font-family="Verdana" font-size="13" lengthAdjust="spacing" textLength="74" x="318.5" y="141.0669">AList to List</text><path d="M126.7125,85.7477 C118.0155,112.9733 103.0258,159.8976 94.3153,187.1651 " fill="none" style="stroke:#9275B6;stroke-width:1.0;"/><polygon fill="#D9D3D0" points="126.7125,85.7477,116.1283,99.1632,127.5593,102.8147,126.7125,85.7477" style="stroke:#9275B6;stroke-width:1.0;"/><text fill="#9275B6" font-family="Verdana" font-size="13" lengthAdjust="spacing" textLength="76" x="113.5" y="141.0669">AColl to Coll</text><path d="M181.6694,63.5 C215.2343,63.5 258.6911,63.5 285.8355,63.5 " fill="none" style="stroke:#9275B6;stroke-width:1.0;"/><polygon fill="#D9D3D0" points="181.6694,63.5,197.6694,69.5,197.6694,57.5,181.6694,63.5" style="stroke:#9275B6;stroke-width:1.0;"/><text fill="#9275B6" font-family="Verdana" font-size="13" lengthAdjust="spacing" textLength="66" x="200.75" y="56.5669">List to Coll</text><path d="M164.1204,209.5 C197.8426,209.5 236.666,209.5 267.315,209.5 " fill="none" style="stroke:#9275B6;stroke-width:1.0;"/><polygon fill="#D9D3D0" points="164.1204,209.5,180.1204,215.5,180.1204,203.5,164.1204,209.5" style="stroke:#9275B6;stroke-width:1.0;"/><text fill="#9275B6" font-family="Verdana" font-size="13" lengthAdjust="spacing" textLength="84" x="173.75" y="202.5669">AList to AColl</text><path d="M321.5,231.75 C321.5,252.3691 321.5,284.1033 321.5,308.9774 " fill="none" style="stroke:#9275B6;stroke-width:1.0;"/><polygon fill="#D9D3D0" points="321.5,231.75,315.5,247.75,327.5,247.75,321.5,231.75" style="stroke:#9275B6;stroke-width:1.0;"/><text fill="#9275B6" font-family="Verdana" font-size="13" lengthAdjust="spacing" textLength="88" x="322.5" y="287.0669">ArList to AList</text></g></svg>