<?xml version="1.0" encoding="UTF-8" standalone="no"?><svg xmlns="http://www.w3.org/2000/svg" xmlns:xlink="http://www.w3.org/1999/xlink" contentScriptType="application/ecmascript" contentStyleType="text/css" height="290.625px" preserveAspectRatio="none" style="width:483px;height:290px;background:#00000000;" version="1.1" viewBox="0 0 483 290" width="483.3333px" zoomAndPan="magnify"><defs/><g><!--MD5=[f7e826e1488aa6662a4b5ddfe29b6b3b]
class abstract--><polygon fill="#474747" points="36.9792,26.0366,36.9792,26.2555,47.1354,25.605,57.2917,26.2379,67.4479,26.4529,77.6042,25.2935,87.7604,25.9556,97.9167,25.5923,108.0729,25.6371,118.2292,26.0366,118.2201,26.0147,118.7266,26.0589,119.4812,26.7023,119.9132,26.5666,120.5599,26.9494,121.1754,27.257,121.314,27.3144,121.392,27.8348,121.6855,28.4445,121.8974,29.0205,122.209,29.6377,122.3958,30.2032,122.4789,30.2032,122.5992,38.7042,122.6288,47.2052,122.6317,55.7062,122.4842,64.2072,122.3958,72.7081,122.5445,72.7697,122.377,73.3907,121.6763,73.7908,121.8813,74.5661,121.3244,75.0258,121.1754,75.6544,121.2464,75.8257,120.5204,75.7397,119.9878,76.1206,119.5062,76.6245,118.8119,76.6151,118.2292,76.8748,118.2292,76.9845,108.0729,77.2275,97.9167,77.3084,87.7604,76.8707,77.6042,77.174,67.4479,76.2785,57.2917,77.171,47.1354,77.4458,36.9792,76.8748,37.0382,77.0174,36.4714,76.8274,35.7365,76.2317,35.1247,75.9333,34.5396,75.6991,34.0329,75.6544,34.014,75.6466,33.7258,75.039,33.7633,74.5664,33.2446,73.8634,32.9465,73.2518,32.8125,72.7081,32.8918,72.7081,32.581,64.2072,32.6322,55.7062,33.0378,47.2052,32.9638,38.7042,32.8125,30.2032,33.0481,30.3008,32.9533,29.5712,33.4031,29.0671,33.7341,28.5139,33.6373,27.7835,34.0329,27.257,34.0202,27.2262,34.6389,27.0533,35.298,26.9779,35.8001,26.5234,36.4514,26.429,36.9792,26.0366" style="stroke:#333333;stroke-width:1.0416666666666667;"/><polygon fill="#3EB058" points="57.87,45.6561,56.3431,47.7424,54.5371,50.7982,51.9542,52.8576,49.2399,53.9837,47.0758,54.0815,44.2942,52.6731,41.6697,51.753,39.6776,49.8848,38.6326,47.7462,38.0129,46.0433,37.4058,43.819,36.4204,41.905,37.1777,40.0362,37.8411,37.989,40.3308,36.37,42.0824,34.2692,44.2504,33.5716,46.8278,32.9709,50.133,33.3278,51.9433,34.1816,54.048,34.5686,56.6072,37.1905,57.4993,39.9585,57.8869,41.8471,57.4479,44.9594" style="stroke:#24963E;stroke-width:1.0416666666666667;"/><path d="M46.9889,40.0787 L46.1426,43.8059 L47.8516,43.8059 L46.9889,40.0787 Z M45.8984,38.4349 L48.0957,38.4349 L50.5534,47.5494 L48.7467,47.5494 L48.1934,45.3033 L45.7845,45.3033 L45.2311,47.5494 L43.4245,47.5494 L45.8984,38.4349 Z " fill="#000000"/><text fill="#FFFFFF" font-family="&quot;Segoe Print&quot;" font-size="11.4583" font-style="italic" lengthAdjust="spacing" textLength="47.9167" x="66.1458" y="47.0891">abstract</text><path d="M33.8542,60.2081 L33.8542,60.5 L44.7917,59.6327 L55.7292,60.4766 L66.6667,60.7632 L77.6042,59.2173 L88.5417,60.1002 L99.4792,59.6158 L110.4167,59.6755 L121.3542,60.2081 " fill="#474747" style="stroke:#333333;stroke-width:1.0416666666666667;"/><path d="M33.8542,68.5415 L33.8542,68.8334 L44.7917,67.966 L55.7292,68.8099 L66.6667,69.0966 L77.6042,67.5506 L88.5417,68.4335 L99.4792,67.9491 L110.4167,68.0088 L121.3542,68.5415 " fill="#474747" style="stroke:#333333;stroke-width:1.0416666666666667;"/><!--MD5=[17df400e90568e28eeaed93acf178394]
class abstract class--><polygon fill="#474747" points="157.8125,26.0366,157.8125,26.2555,168.2292,25.605,178.6458,26.2379,189.0625,26.4529,199.4792,25.2935,209.8958,25.9556,220.3125,25.5923,230.7292,25.6371,241.1458,25.9656,251.5625,25.3164,261.9792,26.6133,272.3958,26.0366,272.3121,25.8344,272.9588,26.2172,273.6317,26.6633,274.1522,26.7413,274.7619,27.0348,275.3421,27.257,275.3319,27.2527,275.6435,27.8699,275.907,28.4673,276.2622,29.1026,276.5337,29.7032,276.5625,30.2032,276.7984,30.2032,276.6509,38.7042,276.7235,47.2052,276.8063,55.7062,276.3121,64.2072,276.5625,72.7081,276.7802,72.7983,276.2233,73.258,276.2456,73.9576,275.6715,74.4101,275.5642,75.0561,275.3421,75.6544,275.4407,75.8923,274.7464,75.8829,274.1776,76.1763,273.6193,76.4953,273.0404,76.7642,272.3958,76.8748,272.3958,76.8707,261.9792,77.174,251.5625,76.2785,241.1458,77.171,230.7292,77.4458,220.3125,77.3379,209.8958,77.5134,199.4792,76.3716,189.0625,76.1954,178.6458,76.2275,168.2292,76.8135,157.8125,76.8748,157.7864,76.8118,157.3138,76.8493,156.6108,76.3306,155.9991,76.0325,155.4858,75.9717,154.8662,75.6544,154.6523,75.5658,154.4556,74.9962,154.5862,74.5621,154.2737,73.9445,154.1255,73.395,153.6458,72.7081,153.5341,72.7081,153.7567,64.2072,153.8508,55.7062,153.4818,47.2052,153.6125,38.7042,153.6458,30.2032,153.6862,30.22,154.099,29.7006,154.1326,29.0242,154.5265,28.4969,154.4445,27.7726,154.8662,27.257,154.7762,27.0397,155.5224,27.1744,155.9495,26.5388,156.7016,26.688,157.2507,26.3469,157.8125,26.0366" style="stroke:#333333;stroke-width:1.0416666666666667;"/><polygon fill="#3EB058" points="178.7034,45.6561,177.1765,47.7424,175.3705,50.7982,172.7875,52.8576,170.0733,53.9837,167.9091,54.0815,165.1275,52.6731,162.503,51.753,160.5109,49.8848,159.466,47.7462,158.8463,46.0433,158.2392,43.819,157.2538,41.905,158.011,40.0362,158.6744,37.989,161.1641,36.37,162.9157,34.2692,165.0837,33.5716,167.6611,32.9709,170.9663,33.3278,172.7766,34.1816,174.8814,34.5686,177.4405,37.1905,178.3326,39.9585,178.7202,41.8471,178.2812,44.9594" style="stroke:#24963E;stroke-width:1.0416666666666667;"/><path d="M167.8223,40.0787 L166.9759,43.8059 L168.6849,43.8059 L167.8223,40.0787 Z M166.7318,38.4349 L168.929,38.4349 L171.3867,47.5494 L169.5801,47.5494 L169.0267,45.3033 L166.6178,45.3033 L166.0645,47.5494 L164.2578,47.5494 L166.7318,38.4349 Z " fill="#000000"/><text fill="#FFFFFF" font-family="&quot;Segoe Print&quot;" font-size="11.4583" font-style="italic" lengthAdjust="spacing" textLength="81.25" x="186.9792" y="47.0891">abstract class</text><path d="M154.6875,60.2081 L154.6875,60.5 L164.7569,59.6327 L174.8264,60.4766 L184.8958,60.7632 L194.9653,59.2173 L205.0347,60.1002 L215.1042,59.6158 L225.1736,59.6755 L235.2431,60.1135 L245.3125,59.2479 L255.3819,60.9771 L265.4514,59.3327 L275.5208,60.2081 " fill="#474747" style="stroke:#333333;stroke-width:1.0416666666666667;"/><path d="M154.6875,68.5415 L154.6875,68.8334 L164.7569,67.966 L174.8264,68.8099 L184.8958,69.0966 L194.9653,67.5506 L205.0347,68.4335 L215.1042,67.9491 L225.1736,68.0088 L235.2431,68.4468 L245.3125,67.5812 L255.3819,69.3104 L265.4514,67.6661 L275.5208,68.5415 " fill="#474747" style="stroke:#333333;stroke-width:1.0416666666666667;"/><!--MD5=[7cb74e68c9f11cf3f5cc35e0143045f8]
class annotation--><polygon fill="#474747" points="311.9792,26.0366,311.9792,26.2555,322.6273,25.605,333.2755,26.2379,343.9236,26.4529,354.5718,25.2935,365.2199,25.9556,375.8681,25.5923,386.5162,25.6371,397.1644,25.9656,407.8125,26.0366,407.7206,25.8148,408.4753,26.4583,408.9073,26.3225,409.554,26.7054,410.2269,27.1515,410.7588,27.257,410.7313,27.2456,411.0247,27.8553,411.2367,28.4312,411.5483,29.0485,411.8118,29.6458,411.9792,30.2032,412.1825,30.2032,412.2122,38.7042,412.215,47.2052,412.0676,55.7062,412.1401,64.2072,411.9792,72.7081,412.2044,72.8014,411.5037,73.2016,411.7087,73.9768,411.1518,74.4365,411.1741,75.1361,410.7588,75.6544,410.693,75.4956,410.1604,75.8765,409.6788,76.3805,408.9845,76.371,408.4157,76.6645,407.8125,76.8748,407.8125,77.2275,397.1644,77.3084,386.5162,76.8707,375.8681,77.174,365.2199,76.2785,354.5718,77.171,343.9236,77.4458,333.2755,77.3379,322.6273,77.5134,311.9792,76.8748,311.915,76.7198,311.3033,76.4215,310.7181,76.1873,310.2036,76.1237,309.596,75.8354,309.0329,75.6544,309.2515,75.745,308.7328,75.0419,308.4347,74.4303,308.3739,73.917,307.8427,73.2088,307.8125,72.7081,307.6322,72.7081,308.0378,64.2072,307.9638,55.7062,308.0675,47.2052,307.7008,38.7042,307.8125,30.2032,307.9149,30.2457,308.246,29.6924,308.1491,28.962,308.514,28.4227,308.8292,27.863,309.0329,27.257,309.1195,27.466,309.6216,27.0115,310.2729,26.9172,310.7271,26.3471,311.2999,26.0634,311.9792,26.0366" style="stroke:#333333;stroke-width:1.0416666666666667;"/><polygon fill="#2EABBF" points="332.87,45.6561,331.3431,47.7424,329.5371,50.7982,326.9542,52.8576,324.2399,53.9837,322.0758,54.0815,319.2942,52.6731,316.6697,51.753,314.6776,49.8848,313.6326,47.7462,313.0129,46.0433,312.4058,43.819,311.4204,41.905,312.1777,40.0362,312.8411,37.989,315.3308,36.37,317.0824,34.2692,319.2504,33.5716,321.8278,32.9709,325.133,33.3278,326.9433,34.1816,329.048,34.5686,331.6072,37.1905,332.4993,39.9585,332.8869,41.8471,332.4479,44.9594" style="stroke:#1592A6;stroke-width:1.0416666666666667;"/><path d="M323.6491,42.927 Q323.6491,42.2272 323.3398,41.8365 Q323.0306,41.4459 322.4772,41.4459 Q321.9401,41.4459 321.6309,41.8365 Q321.3216,42.2272 321.3216,42.927 Q321.3216,43.6106 321.6309,44.0013 Q321.9401,44.3919 322.4772,44.3919 Q323.0306,44.3919 323.3398,44.0013 Q323.6491,43.6106 323.6491,42.927 Z M324.7884,45.4173 L323.584,45.4173 L323.584,44.929 Q323.3561,45.2382 323.0306,45.401 Q322.7214,45.5475 322.2819,45.5475 Q321.2891,45.5475 320.6706,44.8313 Q320.0521,44.0989 320.0521,42.927 Q320.0521,41.7389 320.6543,41.0227 Q321.2728,40.3066 322.2819,40.3066 Q322.7214,40.3066 323.0469,40.4531 Q323.3724,40.5996 323.584,40.8925 L323.584,40.6484 Q323.584,39.8183 323.1283,39.3626 Q322.6725,38.9069 321.8424,38.9069 Q320.5729,38.9069 319.7591,40.0299 Q318.9616,41.1367 318.9616,42.927 Q318.9616,44.7988 319.8893,45.9218 Q320.8171,47.0286 322.3633,47.0286 Q322.8516,47.0286 323.3073,46.8821 Q323.763,46.7356 324.1862,46.4427 L324.7396,47.5169 Q324.2513,47.8587 323.6654,48.0214 Q323.0794,48.2005 322.4284,48.2005 Q320.2799,48.2005 319.0104,46.7682 Q317.7409,45.3522 317.7409,42.927 Q317.7409,40.567 318.8802,39.151 Q320.0358,37.735 321.9076,37.735 Q323.2422,37.735 324.0072,38.5325 Q324.7884,39.33 324.7884,40.7298 L324.7884,45.4173 Z " fill="#000000"/><text fill="#FFFFFF" font-family="&quot;Segoe Print&quot;" font-size="11.4583" lengthAdjust="spacing" textLength="62.5" x="341.1458" y="47.0891">annotation</text><path d="M308.8542,60.2081 L308.8542,60.5 L319.0625,59.6327 L329.2708,60.4766 L339.4792,60.7632 L349.6875,59.2173 L359.8958,60.1002 L370.1042,59.6158 L380.3125,59.6755 L390.5208,60.1135 L400.7292,59.2479 L410.9375,60.2081 " fill="#474747" style="stroke:#333333;stroke-width:1.0416666666666667;"/><path d="M308.8542,68.5415 L308.8542,68.8334 L319.0625,67.966 L329.2708,68.8099 L339.4792,69.0966 L349.6875,67.5506 L359.8958,68.4335 L370.1042,67.9491 L380.3125,68.0088 L390.5208,68.4468 L400.7292,67.5812 L410.9375,68.5415 " fill="#474747" style="stroke:#333333;stroke-width:1.0416666666666667;"/><!--MD5=[da456bc05ddb284180092693c9c3b3b1]
entity circle--><polygon points="460.9835,50.4594,459.762,52.1285,458.3172,54.5731,456.2508,56.2206,454.0795,57.1215,452.3481,57.1997,450.1229,56.073,448.0232,55.3369,446.4296,53.8424,445.5936,52.1315,445.0979,50.7692,444.6122,48.9898,443.8239,47.4585,444.4296,45.9635,444.9604,44.3258,446.9521,43.0305,448.3534,41.3499,450.0878,40.7918,452.1497,40.3112,454.7939,40.5968,456.2421,41.2798,457.9259,41.5894,459.9732,43.6869,460.6869,45.9013,460.997,47.4122,460.6458,49.902" style="stroke:#2E2E2E;stroke-width:1.0416666666666667;fill:none;"/><text fill="#FFFFFF" font-family="&quot;Segoe Print&quot;" font-size="14.5833" lengthAdjust="spacing" textLength="37.5" x="433.8542" y="84.8857">circle</text><!--MD5=[87adb442a9baea16d5e9c4faa47d2afb]
entity circle_short_form--><polygon points="85.9835,151.5011,84.762,153.1701,83.3172,155.6148,81.2508,157.2623,79.0795,158.1632,77.3481,158.2414,75.1229,157.1146,73.0232,156.3786,71.4296,154.8841,70.5936,153.1732,70.0979,151.8108,69.6122,150.0314,68.8239,148.5002,69.4296,147.0051,69.9604,145.3674,71.9521,144.0722,73.3534,142.3916,75.0878,141.8335,77.1497,141.3529,79.7939,141.6384,81.2421,142.3215,82.9259,142.631,84.9732,144.7286,85.6869,146.943,85.997,148.4539,85.6458,150.9437" style="stroke:#2E2E2E;stroke-width:1.0416666666666667;fill:none;"/><text fill="#FFFFFF" font-family="&quot;Segoe Print&quot;" font-size="14.5833" lengthAdjust="spacing" textLength="121.875" x="16.6667" y="185.9273">circle_short_form</text><!--MD5=[c4c892d05414254cdeba8adc63897f88]
class class--><polygon fill="#474747" points="122.3958,127.0782,122.3958,127.2972,133.1597,126.6467,143.9236,127.2796,154.6875,127.4946,165.4514,126.3351,176.2153,126.9973,186.9792,127.0782,186.9225,126.9414,187.5175,127.1993,188.1486,127.5445,188.6551,127.5887,189.4098,128.2322,189.9254,128.2986,189.7233,128.2149,190.1061,128.8616,190.5522,129.5345,190.6302,130.055,190.9236,130.6647,191.1458,131.2449,191.1347,131.2449,191.2078,139.7459,191.2289,148.2469,191.3492,156.7478,191.3788,165.2488,191.1458,173.7498,191.3637,173.8401,190.9834,174.3729,190.8064,174.9899,190.6389,175.6109,189.9382,176.011,189.9254,176.6961,190.0156,176.9137,189.2968,176.845,188.8179,177.3555,188.0919,177.2695,187.5593,177.6504,186.9792,177.9165,186.9792,178.689,176.2153,177.8657,165.4514,178.0262,154.6875,178.2692,143.9236,178.35,133.1597,177.9124,122.3958,177.9165,122.434,178.0086,121.7305,177.4888,121.2551,177.5195,120.7009,177.3601,120.0979,177.0828,119.4496,176.6961,119.6462,176.7775,119.0505,176.0426,118.7522,175.4309,118.518,174.8457,118.4544,174.3312,118.2292,173.7498,118.1609,173.7498,118.4658,165.2488,118.1685,156.7478,118.1101,148.2469,118.3084,139.7459,118.2292,131.2449,118.0153,131.1563,118.3067,130.5867,118.9255,130.1526,119.1012,129.535,119.4411,128.9855,119.4496,128.2986,119.4068,128.1954,120.0812,128.157,120.7065,127.9999,121.1546,127.4149,121.7938,127.2916,122.3958,127.0782" style="stroke:#333333;stroke-width:1.0416666666666667;"/><polygon fill="#666666" points="143.2867,146.6978,141.7598,148.7841,139.9538,151.8399,137.3709,153.8992,134.6566,155.0254,132.4924,155.1231,129.7109,153.7147,127.0863,152.7946,125.0943,150.9265,124.0493,148.7879,123.4296,147.085,122.8225,144.8607,121.8371,142.9467,122.5943,141.0779,123.2578,139.0307,125.7474,137.4116,127.499,135.3109,129.667,134.6133,132.2444,134.0126,135.5496,134.3695,137.3599,135.2232,139.4647,135.6102,142.0238,138.2322,142.916,141.0001,143.3036,142.8888,142.8645,146.001" style="stroke:#4D4D4D;stroke-width:1.0416666666666667;"/><path d="M134.7168,148.5911 Q134.2936,148.8027 133.8216,148.9166 Q133.3496,149.0306 132.8451,149.0306 Q130.9896,149.0306 130.013,147.8261 Q129.0527,146.6054 129.0527,144.3105 Q129.0527,141.9993 130.013,140.7949 Q130.9896,139.5742 132.8451,139.5742 Q133.3496,139.5742 133.8216,139.6881 Q134.3099,139.7858 134.7168,140.0136 L134.7168,142.0156 Q134.2611,141.5924 133.8216,141.3971 Q133.3822,141.1855 132.9264,141.1855 Q131.9336,141.1855 131.429,141.983 Q130.9245,142.7643 130.9245,144.3105 Q130.9245,145.8405 131.429,146.6217 Q131.9336,147.403 132.9264,147.403 Q133.3822,147.403 133.8216,147.2076 Q134.2611,147.0123 134.7168,146.5892 L134.7168,148.5911 Z " fill="#000000"/><text fill="#FFFFFF" font-family="&quot;Segoe Print&quot;" font-size="11.4583" lengthAdjust="spacing" textLength="31.25" x="151.5625" y="148.1308">class</text><path d="M119.2708,161.2498 L119.2708,161.5417 L129.3899,160.6744 L139.5089,161.5182 L149.628,161.8049 L159.747,160.259 L169.8661,161.1419 L179.9851,160.6574 L190.1042,161.2498 " fill="#474747" style="stroke:#333333;stroke-width:1.0416666666666667;"/><path d="M119.2708,169.5831 L119.2708,169.875 L129.3899,169.0077 L139.5089,169.8516 L149.628,170.1382 L159.747,168.5923 L169.8661,169.4752 L179.9851,168.9908 L190.1042,169.5831 " fill="#474747" style="stroke:#333333;stroke-width:1.0416666666666667;"/><polygon fill="#666666" points="234.8958,140.0991,234.9474,140.1507,237.2941,142.4974,239.9433,145.1465,242.494,147.6972,244.7207,149.9239,247.3958,152.5991,247.3768,152.58,244.7911,154.9944,242.3017,157.5049,239.8791,160.0823,237.2261,162.4293,234.8958,165.0991,235.0318,165.235,232.2411,162.4443,229.8473,160.0505,227.5019,157.7051,224.8748,155.078,222.3958,152.5991,222.4126,152.6158,224.888,150.0912,227.4397,147.6429,229.9545,145.1578,232.5396,142.7429,234.8958,140.0991" style="stroke:#4D4D4D;stroke-width:1.0416666666666667;"/><polygon fill="#474747" points="291.1458,140.0991,291.1974,140.1507,293.5441,142.4974,296.1933,145.1465,298.744,147.6972,300.9707,149.9239,303.6458,152.5991,303.6268,152.58,301.0411,154.9944,298.5517,157.5049,296.1291,160.0823,293.4761,162.4293,291.1458,165.0991,291.2818,165.235,288.4911,162.4443,286.0973,160.0505,283.7519,157.7051,281.1248,155.078,278.6458,152.5991,278.6626,152.6158,281.138,150.0912,283.6897,147.6429,286.2045,145.1578,288.7896,142.7429,291.1458,140.0991" style="stroke:#333333;stroke-width:1.5625;"/><!--MD5=[467568f20bbf29da492dca29e9e0779e]
class entity--><polygon fill="#474747" points="44.7917,228.1199,44.7917,228.3389,55.7292,227.6883,66.6667,228.3213,77.6042,228.5362,88.5417,227.3768,99.4792,228.039,110.4167,228.1199,110.36,227.9831,110.955,228.241,111.5861,228.5862,112.0926,228.6304,112.8473,229.2738,113.3629,229.3403,113.1608,229.2566,113.5436,229.9033,113.9897,230.5762,114.0677,231.0967,114.3611,231.7064,114.5833,232.2866,114.5722,232.2866,114.6453,240.7876,114.6664,249.2885,114.7867,257.7895,114.8163,266.2905,114.5833,274.7915,114.8012,274.8817,114.4209,275.4146,114.2439,276.0316,114.0764,276.6525,113.3757,277.0527,113.3629,277.7377,113.4531,277.9554,112.7343,277.8867,112.2554,278.3971,111.5294,278.3112,110.9968,278.6921,110.4167,278.9581,110.4167,279.7306,99.4792,278.9074,88.5417,279.0678,77.6042,279.3109,66.6667,279.3917,55.7292,278.9541,44.7917,278.9581,44.8298,279.0503,44.1264,278.5304,43.6509,278.5612,43.0967,278.4018,42.4937,278.1244,41.8454,277.7377,42.042,277.8192,41.4463,277.0843,41.148,276.4726,40.9138,275.8874,40.8502,275.3729,40.625,274.7915,40.5568,274.7915,40.8616,266.2905,40.5643,257.7895,40.5059,249.2885,40.7043,240.7876,40.625,232.2866,40.4111,232.198,40.7025,231.6283,41.3213,231.1943,41.497,230.5767,41.8369,230.0272,41.8454,229.3403,41.8026,229.2371,42.4771,229.1986,43.1024,229.0415,43.5504,228.4565,44.1897,228.3332,44.7917,228.1199" style="stroke:#333333;stroke-width:1.0416666666666667;"/><polygon fill="#666666" points="65.6825,247.7394,64.1556,249.8258,62.3496,252.8815,59.7667,254.9409,57.0524,256.0671,54.8883,256.1648,52.1067,254.7564,49.4822,253.8363,47.4901,251.9682,46.4451,249.8295,45.8254,248.1266,45.2183,245.9024,44.2329,243.9883,44.9902,242.1195,45.6536,240.0724,48.1433,238.4533,49.8949,236.3526,52.0629,235.655,54.6403,235.0542,57.9455,235.4111,59.7558,236.2649,61.8605,236.6519,64.4197,239.2739,65.3118,242.0418,65.6994,243.9305,65.2604,247.0427" style="stroke:#4D4D4D;stroke-width:1.0416666666666667;"/><path d="M57.7474,249.8932 L52.0671,249.8932 L52.0671,240.7786 L57.7474,240.7786 L57.7474,242.3737 L53.8737,242.3737 L53.8737,244.3268 L57.373,244.3268 L57.373,245.9218 L53.8737,245.9218 L53.8737,248.2981 L57.7474,248.2981 L57.7474,249.8932 Z " fill="#000000"/><text fill="#FFFFFF" font-family="&quot;Segoe Print&quot;" font-size="11.4583" lengthAdjust="spacing" textLength="32.2917" x="73.9583" y="249.1725">entity</text><path d="M41.6667,262.2915 L41.6667,262.5834 L51.9345,261.716 L62.2024,262.5599 L72.4702,262.8466 L82.7381,261.3006 L93.006,262.1835 L103.2738,261.6991 L113.5417,262.2915 " fill="#474747" style="stroke:#333333;stroke-width:1.0416666666666667;"/><path d="M41.6667,270.6248 L41.6667,270.9167 L51.9345,270.0494 L62.2024,270.8932 L72.4702,271.1799 L82.7381,269.634 L93.006,270.5169 L103.2738,270.0324 L113.5417,270.6248 " fill="#474747" style="stroke:#333333;stroke-width:1.0416666666666667;"/><!--MD5=[b1bf79d8358773e9ea7a3730761a57e9]
class enum--><polygon fill="#474747" points="149.4792,228.1199,149.4792,228.3389,160.5903,227.6883,171.7014,228.3213,182.8125,228.5362,193.9236,227.3768,205.0347,228.039,216.1458,228.1199,216.0892,227.9831,216.6841,228.241,217.3153,228.5862,217.8217,228.6304,218.5764,229.2738,219.0921,229.3403,218.8899,229.2566,219.2727,229.9033,219.7188,230.5762,219.7968,231.0967,220.0903,231.7064,220.3125,232.2866,220.3014,232.2866,220.3745,240.7876,220.3955,249.2885,220.5159,257.7895,220.5455,266.2905,220.3125,274.7915,220.5304,274.8817,220.1501,275.4146,219.9731,276.0316,219.8055,276.6525,219.1048,277.0527,219.0921,277.7377,219.1823,277.9554,218.4635,277.8867,217.9845,278.3971,217.2586,278.3112,216.726,278.6921,216.1458,278.9581,216.1458,279.7306,205.0347,278.9074,193.9236,279.0678,182.8125,279.3109,171.7014,279.3917,160.5903,278.9541,149.4792,278.9581,149.5173,279.0503,148.8139,278.5304,148.3384,278.5612,147.7842,278.4018,147.1812,278.1244,146.5329,277.7377,146.7295,277.8192,146.1338,277.0843,145.8355,276.4726,145.6013,275.8874,145.5377,275.3729,145.3125,274.7915,145.2443,274.7915,145.5491,266.2905,145.2518,257.7895,145.1934,249.2885,145.3918,240.7876,145.3125,232.2866,145.0986,232.198,145.39,231.6283,146.0088,231.1943,146.1845,230.5767,146.5244,230.0272,146.5329,229.3403,146.4901,229.2371,147.1646,229.1986,147.7899,229.0415,148.2379,228.4565,148.8772,228.3332,149.4792,228.1199" style="stroke:#333333;stroke-width:1.0416666666666667;"/><polygon fill="#FFC720" points="170.37,247.7394,168.8431,249.8258,167.0371,252.8815,164.4542,254.9409,161.7399,256.0671,159.5758,256.1648,156.7942,254.7564,154.1697,253.8363,152.1776,251.9682,151.1326,249.8295,150.5129,248.1266,149.9058,245.9024,148.9204,243.9883,149.6777,242.1195,150.3411,240.0724,152.8308,238.4533,154.5824,236.3526,156.7504,235.655,159.3278,235.0542,162.633,235.4111,164.4433,236.2649,166.548,236.6519,169.1072,239.2739,169.9993,242.0418,170.3869,243.9305,169.9479,247.0427" style="stroke:#E6AE06;stroke-width:1.0416666666666667;"/><path d="M162.4349,249.8932 L156.7546,249.8932 L156.7546,240.7786 L162.4349,240.7786 L162.4349,242.3737 L158.5612,242.3737 L158.5612,244.3268 L162.0605,244.3268 L162.0605,245.9218 L158.5612,245.9218 L158.5612,248.2981 L162.4349,248.2981 L162.4349,249.8932 Z " fill="#000000"/><text fill="#FFFFFF" font-family="&quot;Segoe Print&quot;" font-size="11.4583" lengthAdjust="spacing" textLength="33.3333" x="178.6458" y="249.1725">enum</text><path d="M146.3542,262.2915 L146.3542,262.5834 L156.7708,261.716 L167.1875,262.5599 L177.6042,262.8466 L188.0208,261.3006 L198.4375,262.1835 L208.8542,261.6991 L219.2708,262.2915 " fill="#474747" style="stroke:#333333;stroke-width:1.0416666666666667;"/><path d="M146.3542,270.6248 L146.3542,270.9167 L156.7708,270.0494 L167.1875,270.8932 L177.6042,271.1799 L188.0208,269.634 L198.4375,270.5169 L208.8542,270.0324 L219.2708,270.6248 " fill="#474747" style="stroke:#333333;stroke-width:1.0416666666666667;"/><!--MD5=[d9847530b5dea828dbcbb50914b76f30]
class interface--><polygon fill="#474747" points="255.7292,228.1199,255.7292,228.3389,266.4063,227.6883,277.0833,228.3213,287.7604,228.5362,298.4375,227.3768,309.1146,228.039,319.7917,227.6756,330.4688,227.7204,341.1458,228.1199,341.1368,228.098,341.6432,228.1422,342.3979,228.7857,342.8299,228.65,343.4766,229.0328,344.0921,229.3403,344.2307,229.3977,344.3087,229.9182,344.6022,230.5279,344.8141,231.1038,345.1257,231.721,345.3125,232.2866,345.3955,232.2866,345.5159,240.7876,345.5455,249.2885,345.5484,257.7895,345.4009,266.2905,345.3125,274.7915,345.4612,274.8531,345.2937,275.474,344.593,275.8741,344.7979,276.6494,344.2411,277.1091,344.0921,277.7377,344.163,277.909,343.4371,277.823,342.9045,278.2039,342.4229,278.7079,341.7286,278.6984,341.1458,278.9581,341.1458,279.0678,330.4688,279.3109,319.7917,279.3917,309.1146,278.9541,298.4375,279.2573,287.7604,278.3619,277.0833,279.2544,266.4063,279.5292,255.7292,278.9581,255.7882,279.1007,255.2214,278.9107,254.4865,278.315,253.8747,278.0167,253.2896,277.7825,252.7829,277.7377,252.764,277.7299,252.4758,277.1224,252.5133,276.6498,251.9946,275.9468,251.6965,275.3351,251.5625,274.7915,251.6418,274.7915,251.331,266.2905,251.3822,257.7895,251.7878,249.2885,251.7138,240.7876,251.5625,232.2866,251.7981,232.3842,251.7033,231.6546,252.1531,231.1505,252.4841,230.5973,252.3873,229.8668,252.7829,229.3403,252.7702,229.3096,253.3889,229.1366,254.048,229.0612,254.5501,228.6067,255.2014,228.5124,255.7292,228.1199" style="stroke:#333333;stroke-width:1.0416666666666667;"/><polygon fill="#E04958" points="276.62,247.7394,275.0931,249.8258,273.2871,252.8815,270.7042,254.9409,267.9899,256.0671,265.8258,256.1648,263.0442,254.7564,260.4197,253.8363,258.4276,251.9682,257.3826,249.8295,256.7629,248.1266,256.1558,245.9024,255.1704,243.9883,255.9277,242.1195,256.5911,240.0724,259.0808,238.4533,260.8324,236.3526,263.0004,235.655,265.5778,235.0542,268.883,235.4111,270.6933,236.2649,272.798,236.6519,275.3572,239.2739,276.2493,242.0418,276.6369,243.9305,276.1979,247.0427" style="stroke:#C6303E;stroke-width:1.0416666666666667;"/><path d="M263.0371,242.3737 L263.0371,240.7786 L268.457,240.7786 L268.457,242.3737 L266.6504,242.3737 L266.6504,248.2981 L268.457,248.2981 L268.457,249.8932 L263.0371,249.8932 L263.0371,248.2981 L264.8438,248.2981 L264.8438,242.3737 L263.0371,242.3737 Z " fill="#000000"/><text fill="#FFFFFF" font-family="&quot;Segoe Print&quot;" font-size="11.4583" font-style="italic" lengthAdjust="spacing" textLength="52.0833" x="284.8958" y="249.1725">interface</text><path d="M252.6042,262.2915 L252.6042,262.5834 L262.7894,261.716 L272.9745,262.5599 L283.1597,262.8466 L293.3449,261.3006 L303.5301,262.1835 L313.7153,261.6991 L323.9005,261.7588 L334.0856,262.1968 L344.2708,262.2915 " fill="#474747" style="stroke:#333333;stroke-width:1.0416666666666667;"/><path d="M252.6042,270.6248 L252.6042,270.9167 L262.7894,270.0494 L272.9745,270.8932 L283.1597,271.1799 L293.3449,269.634 L303.5301,270.5169 L313.7153,270.0324 L323.9005,270.0922 L334.0856,270.5301 L344.2708,270.6248 " fill="#474747" style="stroke:#333333;stroke-width:1.0416666666666667;"/></g></svg>