<?xml version="1.0" encoding="UTF-8" standalone="no"?><svg xmlns="http://www.w3.org/2000/svg" xmlns:xlink="http://www.w3.org/1999/xlink" contentScriptType="application/ecmascript" contentStyleType="text/css" height="539.5833px" preserveAspectRatio="none" style="width:710px;height:539px;background:#00000000;" version="1.1" viewBox="0 0 710 539" width="710.4167px" zoomAndPan="magnify"><defs><linearGradient id="gocxugmvwcjd0" x1="50%" x2="50%" y1="0%" y2="100%"><stop offset="0%" stop-color="#E5E4E2"/><stop offset="100%" stop-color="#B7B6B5"/></linearGradient><linearGradient id="gocxugmvwcjd1" x1="50%" x2="50%" y1="0%" y2="100%"><stop offset="0%" stop-color="#EAE9E8"/><stop offset="100%" stop-color="#B7B6B5"/></linearGradient></defs><g><!--MD5=[b4fa10df80476353258f72a232547d63]
class AbstractList--><rect codeLine="6" fill="url(#gocxugmvwcjd0)" height="58.3008" id="AbstractList" rx="7.8125" ry="7.8125" style="stroke:#B7B6B5;stroke-width:1.0416666666666667;" width="123.9583" x="210.4167" y="255.6071"/><rect fill="url(#gocxugmvwcjd1)" height="41.6341" rx="7.8125" ry="7.8125" style="stroke:url(#gocxugmvwcjd1);stroke-width:1.0416666666666667;" width="123.9583" x="210.4167" y="255.6071"/><rect fill="url(#gocxugmvwcjd1)" height="7.8125" style="stroke:url(#gocxugmvwcjd1);stroke-width:1.0416666666666667;" width="123.9583" x="210.4167" y="289.4287"/><rect codeLine="6" fill="none" height="58.3008" id="AbstractList" rx="7.8125" ry="7.8125" style="stroke:#B7B6B5;stroke-width:1.0416666666666667;" width="123.9583" x="210.4167" y="255.6071"/><ellipse cx="225" cy="276.4242" fill="#5CAD5C" rx="10.4167" ry="10.4167" style="stroke:#297A29;stroke-width:1.0416666666666667;"/><path d="M224.5931,273.3805 L223.7467,277.1077 L225.4557,277.1077 L224.5931,273.3805 Z M223.5026,271.7367 L225.6999,271.7367 L228.1576,280.8512 L226.3509,280.8512 L225.7975,278.6051 L223.3887,278.6051 L222.8353,280.8512 L221.0286,280.8512 L223.5026,271.7367 Z " fill="#000000"/><text fill="#4682B4" font-family="Verdana" font-size="12.5" font-style="italic" lengthAdjust="spacing" textLength="76.0417" x="246.875" y="280.7515">AbstractList</text><line style="stroke:#B7B6B5;stroke-width:1.0416666666666667;" x1="211.4583" x2="333.3333" y1="297.2412" y2="297.2412"/><line style="stroke:#B7B6B5;stroke-width:1.0416666666666667;" x1="211.4583" x2="333.3333" y1="305.5745" y2="305.5745"/><!--MD5=[8e34b16d8d8f96f4a11290cd523ed859]
class AbstractCollection--><rect codeLine="7" fill="url(#gocxugmvwcjd0)" height="58.3008" id="AbstractCollection" rx="7.8125" ry="7.8125" style="stroke:#B7B6B5;stroke-width:1.0416666666666667;" width="165.625" x="7.2917" y="255.6071"/><rect fill="url(#gocxugmvwcjd1)" height="41.6341" rx="7.8125" ry="7.8125" style="stroke:url(#gocxugmvwcjd1);stroke-width:1.0416666666666667;" width="165.625" x="7.2917" y="255.6071"/><rect fill="url(#gocxugmvwcjd1)" height="7.8125" style="stroke:url(#gocxugmvwcjd1);stroke-width:1.0416666666666667;" width="165.625" x="7.2917" y="289.4287"/><rect codeLine="7" fill="none" height="58.3008" id="AbstractCollection" rx="7.8125" ry="7.8125" style="stroke:#B7B6B5;stroke-width:1.0416666666666667;" width="165.625" x="7.2917" y="255.6071"/><ellipse cx="21.875" cy="276.4242" fill="#5CAD5C" rx="10.4167" ry="10.4167" style="stroke:#297A29;stroke-width:1.0416666666666667;"/><path d="M21.4681,273.3805 L20.6217,277.1077 L22.3307,277.1077 L21.4681,273.3805 Z M20.3776,271.7367 L22.5749,271.7367 L25.0326,280.8512 L23.2259,280.8512 L22.6725,278.6051 L20.2637,278.6051 L19.7103,280.8512 L17.9036,280.8512 L20.3776,271.7367 Z " fill="#000000"/><text fill="#4682B4" font-family="Verdana" font-size="12.5" font-style="italic" lengthAdjust="spacing" textLength="117.7083" x="43.75" y="280.7515">AbstractCollection</text><line style="stroke:#B7B6B5;stroke-width:1.0416666666666667;" x1="8.3333" x2="171.875" y1="297.2412" y2="297.2412"/><line style="stroke:#B7B6B5;stroke-width:1.0416666666666667;" x1="8.3333" x2="171.875" y1="305.5745" y2="305.5745"/><!--MD5=[3d4177ac58b4411586d067f34e84928f]
class List--><rect codeLine="8" fill="url(#gocxugmvwcjd0)" height="58.3008" id="List" rx="7.8125" ry="7.8125" style="stroke:#B7B6B5;stroke-width:1.0416666666666667;" width="69.7917" x="207.2917" y="51.4404"/><rect fill="url(#gocxugmvwcjd1)" height="41.6341" rx="7.8125" ry="7.8125" style="stroke:url(#gocxugmvwcjd1);stroke-width:1.0416666666666667;" width="69.7917" x="207.2917" y="51.4404"/><rect fill="url(#gocxugmvwcjd1)" height="7.8125" style="stroke:url(#gocxugmvwcjd1);stroke-width:1.0416666666666667;" width="69.7917" x="207.2917" y="85.262"/><rect codeLine="8" fill="none" height="58.3008" id="List" rx="7.8125" ry="7.8125" style="stroke:#B7B6B5;stroke-width:1.0416666666666667;" width="69.7917" x="207.2917" y="51.4404"/><ellipse cx="221.875" cy="72.2575" fill="#C5673E" rx="10.4167" ry="10.4167" style="stroke:#92340B;stroke-width:1.0416666666666667;"/><path d="M218.7663,69.4255 L218.7663,67.8304 L224.1862,67.8304 L224.1862,69.4255 L222.3796,69.4255 L222.3796,75.3499 L224.1862,75.3499 L224.1862,76.945 L218.7663,76.945 L218.7663,75.3499 L220.5729,75.3499 L220.5729,69.4255 L218.7663,69.4255 Z " fill="#000000"/><text fill="#4682B4" font-family="Verdana" font-size="12.5" font-style="italic" lengthAdjust="spacing" textLength="21.875" x="243.75" y="76.5849">List</text><line style="stroke:#B7B6B5;stroke-width:1.0416666666666667;" x1="208.3333" x2="276.0417" y1="93.0745" y2="93.0745"/><line style="stroke:#B7B6B5;stroke-width:1.0416666666666667;" x1="208.3333" x2="276.0417" y1="101.4079" y2="101.4079"/><!--MD5=[c160724f8e3bb89ca8141a12554ac2e3]
class Collection--><rect codeLine="9" fill="url(#gocxugmvwcjd0)" height="58.3008" id="Collection" rx="7.8125" ry="7.8125" style="stroke:#B7B6B5;stroke-width:1.0416666666666667;" width="111.4583" x="44.7917" y="51.4404"/><rect fill="url(#gocxugmvwcjd1)" height="41.6341" rx="7.8125" ry="7.8125" style="stroke:url(#gocxugmvwcjd1);stroke-width:1.0416666666666667;" width="111.4583" x="44.7917" y="51.4404"/><rect fill="url(#gocxugmvwcjd1)" height="7.8125" style="stroke:url(#gocxugmvwcjd1);stroke-width:1.0416666666666667;" width="111.4583" x="44.7917" y="85.262"/><rect codeLine="9" fill="none" height="58.3008" id="Collection" rx="7.8125" ry="7.8125" style="stroke:#B7B6B5;stroke-width:1.0416666666666667;" width="111.4583" x="44.7917" y="51.4404"/><ellipse cx="59.375" cy="72.2575" fill="#C5673E" rx="10.4167" ry="10.4167" style="stroke:#92340B;stroke-width:1.0416666666666667;"/><path d="M56.2663,69.4255 L56.2663,67.8304 L61.6862,67.8304 L61.6862,69.4255 L59.8796,69.4255 L59.8796,75.3499 L61.6862,75.3499 L61.6862,76.945 L56.2663,76.945 L56.2663,75.3499 L58.0729,75.3499 L58.0729,69.4255 L56.2663,69.4255 Z " fill="#000000"/><text fill="#4682B4" font-family="Verdana" font-size="12.5" font-style="italic" lengthAdjust="spacing" textLength="63.5417" x="81.25" y="76.5849">Collection</text><line style="stroke:#B7B6B5;stroke-width:1.0416666666666667;" x1="45.8333" x2="155.2083" y1="93.0745" y2="93.0745"/><line style="stroke:#B7B6B5;stroke-width:1.0416666666666667;" x1="45.8333" x2="155.2083" y1="101.4079" y2="101.4079"/><!--MD5=[ab8871ed637f40707b866ba6597734bc]
class ArrayList--><rect codeLine="18" fill="url(#gocxugmvwcjd0)" height="118.3105" id="ArrayList" rx="7.8125" ry="7.8125" style="stroke:#B7B6B5;stroke-width:1.0416666666666667;" width="154.1667" x="195.3125" y="414.9821"/><rect fill="url(#gocxugmvwcjd1)" height="41.6341" rx="7.8125" ry="7.8125" style="stroke:url(#gocxugmvwcjd1);stroke-width:1.0416666666666667;" width="154.1667" x="195.3125" y="414.9821"/><rect fill="url(#gocxugmvwcjd1)" height="7.8125" style="stroke:url(#gocxugmvwcjd1);stroke-width:1.0416666666666667;" width="154.1667" x="195.3125" y="448.8037"/><rect codeLine="18" fill="none" height="118.3105" id="ArrayList" rx="7.8125" ry="7.8125" style="stroke:#B7B6B5;stroke-width:1.0416666666666667;" width="154.1667" x="195.3125" y="414.9821"/><ellipse cx="232.8646" cy="435.7992" fill="#CDCDCD" rx="10.4167" ry="10.4167" style="stroke:#9A9A9A;stroke-width:1.0416666666666667;"/><path d="M234.7689,440.2262 Q234.3457,440.4378 233.8737,440.5518 Q233.4017,440.6657 232.8971,440.6657 Q231.0417,440.6657 230.0651,439.4613 Q229.1048,438.2406 229.1048,435.9456 Q229.1048,433.6344 230.0651,432.43 Q231.0417,431.2093 232.8971,431.2093 Q233.4017,431.2093 233.8737,431.3232 Q234.362,431.4209 234.7689,431.6488 L234.7689,433.6507 Q234.3132,433.2275 233.8737,433.0322 Q233.4342,432.8206 232.9785,432.8206 Q231.9857,432.8206 231.4811,433.6182 Q230.9766,434.3994 230.9766,435.9456 Q230.9766,437.4756 231.4811,438.2568 Q231.9857,439.0381 232.9785,439.0381 Q233.4342,439.0381 233.8737,438.8428 Q234.3132,438.6475 234.7689,438.2243 L234.7689,440.2262 Z " fill="#000000"/><text fill="#4682B4" font-family="Verdana" font-size="12.5" lengthAdjust="spacing" textLength="55.2083" x="259.8438" y="440.1265">ArrayList</text><line style="stroke:#B7B6B5;stroke-width:1.0416666666666667;" x1="196.3542" x2="348.4375" y1="456.6162" y2="456.6162"/><text fill="#4D4D4D" font-family="Verdana" font-size="11.4583" lengthAdjust="spacing" textLength="125" x="209.8958" y="479.7521">Object[] elementData</text><line style="stroke:#B7B6B5;stroke-width:1.0416666666666667;" x1="196.3542" x2="348.4375" y1="494.9544" y2="494.9544"/><text fill="#4D4D4D" font-family="Verdana" font-size="11.4583" lengthAdjust="spacing" textLength="31.25" x="209.8958" y="518.0903">size()</text><!--MD5=[15b68e006199004da79ea2a4d117d8e9]
class TimeUnit--><rect codeLine="23" fill="url(#gocxugmvwcjd0)" height="148.3154" id="TimeUnit" rx="7.8125" ry="7.8125" style="stroke:#B7B6B5;stroke-width:1.0416666666666667;" width="104.1667" x="392.1875" y="6.6488"/><rect fill="url(#gocxugmvwcjd1)" height="41.6341" rx="7.8125" ry="7.8125" style="stroke:url(#gocxugmvwcjd1);stroke-width:1.0416666666666667;" width="104.1667" x="392.1875" y="6.6488"/><rect fill="url(#gocxugmvwcjd1)" height="7.8125" style="stroke:url(#gocxugmvwcjd1);stroke-width:1.0416666666666667;" width="104.1667" x="392.1875" y="40.4704"/><rect codeLine="23" fill="none" height="148.3154" id="TimeUnit" rx="7.8125" ry="7.8125" style="stroke:#B7B6B5;stroke-width:1.0416666666666667;" width="104.1667" x="392.1875" y="6.6488"/><ellipse cx="406.7708" cy="27.4658" fill="#FFDF33" rx="10.4167" ry="10.4167" style="stroke:#CCAC00;stroke-width:1.0416666666666667;"/><path d="M409.3099,32.1533 L403.6296,32.1533 L403.6296,23.0387 L409.3099,23.0387 L409.3099,24.6338 L405.4362,24.6338 L405.4362,26.5869 L408.9355,26.5869 L408.9355,28.182 L405.4362,28.182 L405.4362,30.5583 L409.3099,30.5583 L409.3099,32.1533 Z " fill="#000000"/><text fill="#4682B4" font-family="Verdana" font-size="12.5" lengthAdjust="spacing" textLength="56.25" x="428.6458" y="31.7932">TimeUnit</text><line style="stroke:#B7B6B5;stroke-width:1.0416666666666667;" x1="393.2292" x2="495.3125" y1="48.2829" y2="48.2829"/><text fill="#4D4D4D" font-family="Verdana" font-size="11.4583" lengthAdjust="spacing" textLength="31.25" x="406.7708" y="71.4188">DAYS</text><text fill="#4D4D4D" font-family="Verdana" font-size="11.4583" lengthAdjust="spacing" textLength="41.6667" x="406.7708" y="101.4236">HOURS</text><text fill="#4D4D4D" font-family="Verdana" font-size="11.4583" lengthAdjust="spacing" textLength="52.0833" x="406.7708" y="131.4285">MINUTES</text><line style="stroke:#B7B6B5;stroke-width:1.0416666666666667;" x1="393.2292" x2="495.3125" y1="146.6309" y2="146.6309"/><!--MD5=[0c8287f799745f7b534bf75518604c1e]
class SuppressWarnings--><rect codeLine="29" fill="url(#gocxugmvwcjd0)" height="58.3008" id="SuppressWarnings" rx="7.8125" ry="7.8125" style="stroke:#B7B6B5;stroke-width:1.0416666666666667;" width="169.7917" x="533.3333" y="51.4404"/><rect fill="url(#gocxugmvwcjd1)" height="41.6341" rx="7.8125" ry="7.8125" style="stroke:url(#gocxugmvwcjd1);stroke-width:1.0416666666666667;" width="169.7917" x="533.3333" y="51.4404"/><rect fill="url(#gocxugmvwcjd1)" height="7.8125" style="stroke:url(#gocxugmvwcjd1);stroke-width:1.0416666666666667;" width="169.7917" x="533.3333" y="85.262"/><rect codeLine="29" fill="none" height="58.3008" id="SuppressWarnings" rx="7.8125" ry="7.8125" style="stroke:#B7B6B5;stroke-width:1.0416666666666667;" width="169.7917" x="533.3333" y="51.4404"/><ellipse cx="547.9167" cy="72.2575" fill="#5C85AD" rx="10.4167" ry="10.4167" style="stroke:#29527A;stroke-width:1.0416666666666667;"/><path d="M549.1699,72.0622 Q549.1699,71.3623 548.8607,70.9717 Q548.5514,70.5811 547.998,70.5811 Q547.4609,70.5811 547.1517,70.9717 Q546.8424,71.3623 546.8424,72.0622 Q546.8424,72.7458 547.1517,73.1364 Q547.4609,73.527 547.998,73.527 Q548.5514,73.527 548.8607,73.1364 Q549.1699,72.7458 549.1699,72.0622 Z M550.3092,74.5524 L549.1048,74.5524 L549.1048,74.0641 Q548.877,74.3734 548.5514,74.5361 Q548.2422,74.6826 547.8027,74.6826 Q546.8099,74.6826 546.1914,73.9665 Q545.5729,73.234 545.5729,72.0622 Q545.5729,70.874 546.1751,70.1579 Q546.7936,69.4417 547.8027,69.4417 Q548.2422,69.4417 548.5677,69.5882 Q548.8932,69.7347 549.1048,70.0277 L549.1048,69.7835 Q549.1048,68.9535 548.6491,68.4977 Q548.1934,68.042 547.3633,68.042 Q546.0938,68.042 545.2799,69.165 Q544.4824,70.2718 544.4824,72.0622 Q544.4824,73.9339 545.4102,75.057 Q546.3379,76.1637 547.8841,76.1637 Q548.3724,76.1637 548.8281,76.0173 Q549.2839,75.8708 549.707,75.5778 L550.2604,76.652 Q549.7721,76.9938 549.1862,77.1566 Q548.6003,77.3356 547.9492,77.3356 Q545.8008,77.3356 544.5313,75.9033 Q543.2617,74.4873 543.2617,72.0622 Q543.2617,69.7021 544.401,68.2861 Q545.5566,66.8701 547.4284,66.8701 Q548.763,66.8701 549.528,67.6676 Q550.3092,68.4652 550.3092,69.8649 L550.3092,74.5524 Z " fill="#000000"/><text fill="#4682B4" font-family="Verdana" font-size="12.5" lengthAdjust="spacing" textLength="121.875" x="569.7917" y="76.5849">SuppressWarnings</text><line style="stroke:#B7B6B5;stroke-width:1.0416666666666667;" x1="534.375" x2="702.0833" y1="93.0745" y2="93.0745"/><line style="stroke:#B7B6B5;stroke-width:1.0416666666666667;" x1="534.375" x2="702.0833" y1="101.4079" y2="101.4079"/><!--MD5=[faebc81c07309c527f2fda51bf6b78ab]
class Annotation--><rect codeLine="31" fill="url(#gocxugmvwcjd0)" height="148.3154" id="Annotation" rx="7.8125" ry="7.8125" style="stroke:#B7B6B5;stroke-width:1.0416666666666667;" width="181.25" x="353.6458" y="210.8154"/><rect fill="url(#gocxugmvwcjd1)" height="41.6341" rx="7.8125" ry="7.8125" style="stroke:url(#gocxugmvwcjd1);stroke-width:1.0416666666666667;" width="181.25" x="353.6458" y="210.8154"/><rect fill="url(#gocxugmvwcjd1)" height="7.8125" style="stroke:url(#gocxugmvwcjd1);stroke-width:1.0416666666666667;" width="181.25" x="353.6458" y="244.637"/><rect codeLine="31" fill="none" height="148.3154" id="Annotation" rx="7.8125" ry="7.8125" style="stroke:#B7B6B5;stroke-width:1.0416666666666667;" width="181.25" x="353.6458" y="210.8154"/><ellipse cx="395.8854" cy="231.6325" fill="#5C85AD" rx="10.4167" ry="10.4167" style="stroke:#29527A;stroke-width:1.0416666666666667;"/><path d="M397.1387,231.4372 Q397.1387,230.7373 396.8294,230.3467 Q396.5202,229.9561 395.9668,229.9561 Q395.4297,229.9561 395.1204,230.3467 Q394.8112,230.7373 394.8112,231.4372 Q394.8112,232.1208 395.1204,232.5114 Q395.4297,232.902 395.9668,232.902 Q396.5202,232.902 396.8294,232.5114 Q397.1387,232.1208 397.1387,231.4372 Z M398.278,233.9274 L397.0736,233.9274 L397.0736,233.4391 Q396.8457,233.7484 396.5202,233.9111 Q396.2109,234.0576 395.7715,234.0576 Q394.7786,234.0576 394.1602,233.3415 Q393.5417,232.609 393.5417,231.4372 Q393.5417,230.249 394.1439,229.5329 Q394.7624,228.8167 395.7715,228.8167 Q396.2109,228.8167 396.5365,228.9632 Q396.862,229.1097 397.0736,229.4027 L397.0736,229.1585 Q397.0736,228.3285 396.6178,227.8727 Q396.1621,227.417 395.332,227.417 Q394.0625,227.417 393.2487,228.54 Q392.4512,229.6468 392.4512,231.4372 Q392.4512,233.3089 393.3789,234.432 Q394.3066,235.5387 395.8529,235.5387 Q396.3411,235.5387 396.7969,235.3923 Q397.2526,235.2458 397.6758,234.9528 L398.2292,236.027 Q397.7409,236.3688 397.1549,236.5316 Q396.569,236.7106 395.918,236.7106 Q393.7695,236.7106 392.5,235.2783 Q391.2305,233.8623 391.2305,231.4372 Q391.2305,229.0771 392.3698,227.6611 Q393.5254,226.2451 395.3971,226.2451 Q396.7318,226.2451 397.4967,227.0426 Q398.278,227.8402 398.278,229.2399 L398.278,233.9274 Z " fill="#000000"/><text fill="#4682B4" font-family="Verdana" font-size="12.5" lengthAdjust="spacing" textLength="71.875" x="423.9063" y="235.9599">Annotation</text><line style="stroke:#B7B6B5;stroke-width:1.0416666666666667;" x1="354.6875" x2="533.8542" y1="252.4495" y2="252.4495"/><text fill="#4D4D4D" font-family="Verdana" font-size="11.4583" lengthAdjust="spacing" textLength="152.0833" x="368.2292" y="275.5854">annotation with members</text><line style="stroke:#B7B6B5;stroke-width:1.0416666666666667;" x1="354.6875" x2="533.8542" y1="290.7878" y2="290.7878"/><text fill="#4D4D4D" font-family="Verdana" font-size="11.4583" lengthAdjust="spacing" textLength="66.6667" x="368.2292" y="313.9236">String foo()</text><text fill="#4D4D4D" font-family="Verdana" font-size="11.4583" lengthAdjust="spacing" textLength="67.7083" x="368.2292" y="343.9285">String bar()</text><path d="M246.4515,110.1738 C252.2088,148.6881 262.4074,216.9126 268.1535,255.3522 " fill="none" style="stroke:#E5E4E2;stroke-width:3.125;"/><polygon points="246.4515,110.1738,242.7343,127.5813,255.0969,125.7333,246.4515,110.1738" style="stroke:#E5E4E2;stroke-width:1.0416666666666667;fill:none;"/><path d="M99.0505,110.1738 C97.0652,148.6881 93.5485,216.9126 91.567,255.3522 " fill="none" style="stroke:#E5E4E2;stroke-width:3.125;"/><polygon points="99.0505,110.1738,91.9508,126.4966,104.4342,127.1401,99.0505,110.1738" style="stroke:#E5E4E2;stroke-width:1.0416666666666667;fill:none;"/><path d="M156.5113,80.6071 C173.5261,80.6071 191.7374,80.6071 206.9754,80.6071 " fill="none" style="stroke:#E5E4E2;stroke-width:3.125;"/><polygon points="156.5113,80.6071,173.1779,86.8571,173.1779,74.3571,156.5113,80.6071" style="stroke:#E5E4E2;stroke-width:1.0416666666666667;fill:none;"/><path d="M172.9822,284.7738 C185.4912,284.7738 198.2097,284.7738 210.1847,284.7738 " fill="none" style="stroke:#E5E4E2;stroke-width:3.125;"/><polygon points="172.9822,284.7738,189.6489,291.0238,189.6489,278.5238,172.9822,284.7738" style="stroke:#E5E4E2;stroke-width:1.0416666666666667;fill:none;"/><path d="M272.3958,314.2926 C272.3958,340.8263 272.3958,381.2082 272.3958,414.6382 " fill="none" style="stroke:#E5E4E2;stroke-width:3.125;"/><polygon points="272.3958,314.2926,266.1458,330.9593,278.6458,330.9593,272.3958,314.2926" style="stroke:#E5E4E2;stroke-width:1.0416666666666667;fill:none;"/></g></svg>