<?xml version="1.0" encoding="us-ascii" standalone="no"?><svg xmlns="http://www.w3.org/2000/svg" xmlns:xlink="http://www.w3.org/1999/xlink" contentStyleType="text/css" height="428px" preserveAspectRatio="none" style="width:531px;height:428px;" version="1.1" viewBox="0 0 531 428" width="531px" zoomAndPan="magnify"><defs><linearGradient id="g7ad6gsm0pfxq0" x1="50%" x2="50%" y1="0%" y2="100%"><stop offset="0%" stop-color="#F4F4F4"/><stop offset="100%" stop-color="#F4F4F4"/></linearGradient></defs><g><!--class abstract--><g id="elem_abstract"><rect codeLine="6" fill="url(#g7ad6gsm0pfxq0)" height="58.8047" id="abstract" style="stroke:#C6C6C6;stroke-width:1.0;" width="96" x="12.5" y="12"/><rect fill="url(#g7ad6gsm0pfxq0)" height="42.8047" style="stroke:#C6C6C6;stroke-width:1.0;" width="96" x="12.5" y="12"/><ellipse cx="26.5" cy="33.4023" fill="#A9DCDF" rx="10" ry="10" style="stroke:#181818;stroke-width:1.0;"/><path d="M26.1094,30.4805 L25.2969,34.0586 L26.9375,34.0586 L26.1094,30.4805 Z M25.0625,28.9023 L27.1719,28.9023 L29.5313,37.6523 L27.7969,37.6523 L27.2656,35.4961 L24.9531,35.4961 L24.4219,37.6523 L22.6875,37.6523 L25.0625,28.9023 Z " fill="#000000"/><text fill="#262626" font-family="IBM Plex Sans, Noto Sans, Verdana" font-size="11" font-style="italic" lengthAdjust="spacing" textLength="46" x="49.5" y="37.2104">abstract</text><line style="stroke:#C6C6C6;stroke-width:1.0;" x1="13.5" x2="107.5" y1="54.8047" y2="54.8047"/><line style="stroke:#C6C6C6;stroke-width:1.0;" x1="13.5" x2="107.5" y1="62.8047" y2="62.8047"/></g><!--class abstract class--><g id="elem_abstract class"><rect codeLine="7" fill="url(#g7ad6gsm0pfxq0)" height="58.8047" id="abstract class" style="stroke:#C6C6C6;stroke-width:1.0;" width="128" x="148.5" y="12"/><rect fill="url(#g7ad6gsm0pfxq0)" height="42.8047" style="stroke:#C6C6C6;stroke-width:1.0;" width="128" x="148.5" y="12"/><ellipse cx="162.5" cy="33.4023" fill="#A9DCDF" rx="10" ry="10" style="stroke:#181818;stroke-width:1.0;"/><path d="M162.1094,30.4805 L161.2969,34.0586 L162.9375,34.0586 L162.1094,30.4805 Z M161.0625,28.9023 L163.1719,28.9023 L165.5313,37.6523 L163.7969,37.6523 L163.2656,35.4961 L160.9531,35.4961 L160.4219,37.6523 L158.6875,37.6523 L161.0625,28.9023 Z " fill="#000000"/><text fill="#262626" font-family="IBM Plex Sans, Noto Sans, Verdana" font-size="11" font-style="italic" lengthAdjust="spacing" textLength="78" x="185.5" y="37.2104">abstract class</text><line style="stroke:#C6C6C6;stroke-width:1.0;" x1="149.5" x2="275.5" y1="54.8047" y2="54.8047"/><line style="stroke:#C6C6C6;stroke-width:1.0;" x1="149.5" x2="275.5" y1="62.8047" y2="62.8047"/></g><!--class annotation--><g id="elem_annotation"><rect codeLine="8" fill="url(#g7ad6gsm0pfxq0)" height="58.8047" id="annotation" style="stroke:#C6C6C6;stroke-width:1.0;" width="110" x="316.5" y="12"/><rect fill="url(#g7ad6gsm0pfxq0)" height="42.8047" style="stroke:#C6C6C6;stroke-width:1.0;" width="110" x="316.5" y="12"/><ellipse cx="330.5" cy="33.4023" fill="#E3664A" rx="10" ry="10" style="stroke:#181818;stroke-width:1.0;"/><path d="M331.7031,33.2148 Q331.7031,32.543 331.4063,32.168 Q331.1094,31.793 330.5781,31.793 Q330.0625,31.793 329.7656,32.168 Q329.4688,32.543 329.4688,33.2148 Q329.4688,33.8711 329.7656,34.2461 Q330.0625,34.6211 330.5781,34.6211 Q331.1094,34.6211 331.4063,34.2461 Q331.7031,33.8711 331.7031,33.2148 Z M332.7969,35.6055 L331.6406,35.6055 L331.6406,35.1367 Q331.4219,35.4336 331.1094,35.5898 Q330.8125,35.7305 330.3906,35.7305 Q329.4375,35.7305 328.8438,35.043 Q328.25,34.3398 328.25,33.2148 Q328.25,32.0742 328.8281,31.3867 Q329.4219,30.6992 330.3906,30.6992 Q330.8125,30.6992 331.125,30.8398 Q331.4375,30.9805 331.6406,31.2617 L331.6406,31.0273 Q331.6406,30.2305 331.2031,29.793 Q330.7656,29.3555 329.9688,29.3555 Q328.75,29.3555 327.9688,30.4336 Q327.2031,31.4961 327.2031,33.2148 Q327.2031,35.0117 328.0938,36.0898 Q328.9844,37.1523 330.4688,37.1523 Q330.9375,37.1523 331.375,37.0117 Q331.8125,36.8711 332.2188,36.5898 L332.75,37.6211 Q332.2813,37.9492 331.7188,38.1055 Q331.1563,38.2773 330.5313,38.2773 Q328.4688,38.2773 327.25,36.9023 Q326.0313,35.543 326.0313,33.2148 Q326.0313,30.9492 327.125,29.5898 Q328.2344,28.2305 330.0313,28.2305 Q331.3125,28.2305 332.0469,28.9961 Q332.7969,29.7617 332.7969,31.1055 L332.7969,35.6055 Z " fill="#000000"/><text fill="#262626" font-family="IBM Plex Sans, Noto Sans, Verdana" font-size="11" lengthAdjust="spacing" textLength="60" x="353.5" y="37.2104">annotation</text><line style="stroke:#C6C6C6;stroke-width:1.0;" x1="317.5" x2="425.5" y1="54.8047" y2="54.8047"/><line style="stroke:#C6C6C6;stroke-width:1.0;" x1="317.5" x2="425.5" y1="62.8047" y2="62.8047"/></g><!--entity circle--><g id="elem_circle"><ellipse cx="475.5" cy="38.5" fill="#C6C6C6" rx="8" ry="8" style="stroke:#C6C6C6;stroke-width:0.0;"/><text fill="#262626" font-family="IBM Plex Sans, Noto Sans, Verdana" font-size="12" lengthAdjust="spacing" textLength="33" x="459" y="76.6387">circle</text></g><!--entity circle_short_form--><g id="elem_circle_short_form"><ellipse cx="60.5" cy="155.5" fill="#C6C6C6" rx="8" ry="8" style="stroke:#C6C6C6;stroke-width:0.0;"/><text fill="#262626" font-family="IBM Plex Sans, Noto Sans, Verdana" font-size="12" lengthAdjust="spacing" textLength="106" x="7.5" y="193.6387">circle_short_form</text></g><!--class class--><g id="elem_class"><rect codeLine="11" fill="url(#g7ad6gsm0pfxq0)" height="58.8047" id="class" style="stroke:#C6C6C6;stroke-width:1.0;" width="80" x="109.5" y="129"/><rect fill="url(#g7ad6gsm0pfxq0)" height="42.8047" style="stroke:#C6C6C6;stroke-width:1.0;" width="80" x="109.5" y="129"/><ellipse cx="123.5" cy="150.4023" fill="#ADD1B2" rx="10" ry="10" style="stroke:#181818;stroke-width:1.0;"/><path d="M125.3281,154.6523 Q124.9219,154.8555 124.4688,154.9648 Q124.0156,155.0742 123.5313,155.0742 Q121.75,155.0742 120.8125,153.918 Q119.8906,152.7461 119.8906,150.543 Q119.8906,148.3242 120.8125,147.168 Q121.75,145.9961 123.5313,145.9961 Q124.0156,145.9961 124.4688,146.1055 Q124.9375,146.1992 125.3281,146.418 L125.3281,148.3398 Q124.8906,147.9336 124.4688,147.7461 Q124.0469,147.543 123.6094,147.543 Q122.6563,147.543 122.1719,148.3086 Q121.6875,149.0586 121.6875,150.543 Q121.6875,152.0117 122.1719,152.7617 Q122.6563,153.5117 123.6094,153.5117 Q124.0469,153.5117 124.4688,153.3242 Q124.8906,153.1367 125.3281,152.7305 L125.3281,154.6523 Z " fill="#000000"/><text fill="#262626" font-family="IBM Plex Sans, Noto Sans, Verdana" font-size="11" lengthAdjust="spacing" textLength="30" x="146.5" y="154.2104">class</text><line style="stroke:#C6C6C6;stroke-width:1.0;" x1="110.5" x2="188.5" y1="171.8047" y2="171.8047"/><line style="stroke:#C6C6C6;stroke-width:1.0;" x1="110.5" x2="188.5" y1="179.8047" y2="179.8047"/></g><g id="elem_diamond"><polygon fill="url(#g7ad6gsm0pfxq0)" points="241.5,146.5,253.5,158.5,241.5,170.5,229.5,158.5,241.5,146.5" style="stroke:#F4F4F4;stroke-width:0.5;"/></g><polygon fill="url(#g7ad6gsm0pfxq0)" points="305.5,146.5,317.5,158.5,305.5,170.5,293.5,158.5,305.5,146.5" style="stroke:#F4F4F4;stroke-width:0.5;"/><!--class entity--><g id="elem_entity"><rect codeLine="14" fill="url(#g7ad6gsm0pfxq0)" height="58.8047" id="entity" style="stroke:#C6C6C6;stroke-width:1.0;" width="81" x="20" y="246"/><rect fill="url(#g7ad6gsm0pfxq0)" height="42.8047" style="stroke:#C6C6C6;stroke-width:1.0;" width="81" x="20" y="246"/><ellipse cx="34" cy="267.4023" fill="#ADD1B2" rx="10" ry="10" style="stroke:#181818;stroke-width:1.0;"/><path d="M36.4375,271.9023 L30.9844,271.9023 L30.9844,263.1523 L36.4375,263.1523 L36.4375,264.6836 L32.7188,264.6836 L32.7188,266.5586 L36.0781,266.5586 L36.0781,268.0898 L32.7188,268.0898 L32.7188,270.3711 L36.4375,270.3711 L36.4375,271.9023 Z " fill="#000000"/><text fill="#262626" font-family="IBM Plex Sans, Noto Sans, Verdana" font-size="11" lengthAdjust="spacing" textLength="31" x="57" y="271.2104">entity</text><line style="stroke:#C6C6C6;stroke-width:1.0;" x1="21" x2="100" y1="288.8047" y2="288.8047"/><line style="stroke:#C6C6C6;stroke-width:1.0;" x1="21" x2="100" y1="296.8047" y2="296.8047"/></g><!--class enum--><g id="elem_enum"><rect codeLine="15" fill="url(#g7ad6gsm0pfxq0)" height="58.8047" id="enum" style="stroke:#C6C6C6;stroke-width:1.0;" width="82" x="140.5" y="246"/><rect fill="url(#g7ad6gsm0pfxq0)" height="42.8047" style="stroke:#C6C6C6;stroke-width:1.0;" width="82" x="140.5" y="246"/><ellipse cx="154.5" cy="267.4023" fill="#EB937F" rx="10" ry="10" style="stroke:#181818;stroke-width:1.0;"/><path d="M156.9375,271.9023 L151.4844,271.9023 L151.4844,263.1523 L156.9375,263.1523 L156.9375,264.6836 L153.2188,264.6836 L153.2188,266.5586 L156.5781,266.5586 L156.5781,268.0898 L153.2188,268.0898 L153.2188,270.3711 L156.9375,270.3711 L156.9375,271.9023 Z " fill="#000000"/><text fill="#262626" font-family="IBM Plex Sans, Noto Sans, Verdana" font-size="11" lengthAdjust="spacing" textLength="32" x="177.5" y="271.2104">enum</text><line style="stroke:#C6C6C6;stroke-width:1.0;" x1="141.5" x2="221.5" y1="288.8047" y2="288.8047"/><line style="stroke:#C6C6C6;stroke-width:1.0;" x1="141.5" x2="221.5" y1="296.8047" y2="296.8047"/></g><!--class exception--><g id="elem_exception"><rect codeLine="16" fill="url(#g7ad6gsm0pfxq0)" height="58.8047" id="exception" style="stroke:#C6C6C6;stroke-width:1.0;" width="104" x="262.5" y="246"/><rect fill="url(#g7ad6gsm0pfxq0)" height="42.8047" style="stroke:#C6C6C6;stroke-width:1.0;" width="104" x="262.5" y="246"/><ellipse cx="276.5" cy="267.4023" fill="#D94321" rx="10" ry="10" style="stroke:#181818;stroke-width:1.0;"/><path d="M279.5625,271.9023 L277.7813,271.9023 L276.1094,269.0117 L274.4531,271.9023 L272.6563,271.9023 L275.2188,267.4648 L272.7344,263.1523 L274.5156,263.1523 L276.1094,265.9336 L277.7031,263.1523 L279.5,263.1523 L277.0156,267.4648 L279.5625,271.9023 Z " fill="#000000"/><text fill="#262626" font-family="IBM Plex Sans, Noto Sans, Verdana" font-size="11" lengthAdjust="spacing" textLength="54" x="299.5" y="271.2104">exception</text><line style="stroke:#C6C6C6;stroke-width:1.0;" x1="263.5" x2="365.5" y1="288.8047" y2="288.8047"/><line style="stroke:#C6C6C6;stroke-width:1.0;" x1="263.5" x2="365.5" y1="296.8047" y2="296.8047"/></g><!--class interface--><g id="elem_interface"><rect codeLine="17" fill="url(#g7ad6gsm0pfxq0)" height="58.8047" id="interface" style="stroke:#C6C6C6;stroke-width:1.0;" width="100" x="406.5" y="246"/><rect fill="url(#g7ad6gsm0pfxq0)" height="42.8047" style="stroke:#C6C6C6;stroke-width:1.0;" width="100" x="406.5" y="246"/><ellipse cx="420.5" cy="267.4023" fill="#B4A7E5" rx="10" ry="10" style="stroke:#181818;stroke-width:1.0;"/><path d="M417.5156,264.6836 L417.5156,263.1523 L422.7188,263.1523 L422.7188,264.6836 L420.9844,264.6836 L420.9844,270.3711 L422.7188,270.3711 L422.7188,271.9023 L417.5156,271.9023 L417.5156,270.3711 L419.25,270.3711 L419.25,264.6836 L417.5156,264.6836 Z " fill="#000000"/><text fill="#262626" font-family="IBM Plex Sans, Noto Sans, Verdana" font-size="11" font-style="italic" lengthAdjust="spacing" textLength="50" x="443.5" y="271.2104">interface</text><line style="stroke:#C6C6C6;stroke-width:1.0;" x1="407.5" x2="505.5" y1="288.8047" y2="288.8047"/><line style="stroke:#C6C6C6;stroke-width:1.0;" x1="407.5" x2="505.5" y1="296.8047" y2="296.8047"/></g><!--class metaclass--><g id="elem_metaclass"><rect codeLine="18" fill="url(#g7ad6gsm0pfxq0)" height="58.8047" id="metaclass" style="stroke:#C6C6C6;stroke-width:1.0;" width="109" x="6" y="363"/><rect fill="url(#g7ad6gsm0pfxq0)" height="42.8047" style="stroke:#C6C6C6;stroke-width:1.0;" width="109" x="6" y="363"/><ellipse cx="20" cy="384.4023" fill="#CCCCCC" rx="10" ry="10" style="stroke:#181818;stroke-width:1.0;"/><path d="M16.5,380.1523 L18.5625,380.1523 L19.6094,383.9961 L20.6406,380.1523 L22.7188,380.1523 L22.7188,388.9023 L21.2344,388.9023 L21.2344,381.8867 L20.3125,385.7148 L18.9375,385.7148 L18,381.8867 L18,388.9023 L16.5,388.9023 L16.5,380.1523 Z " fill="#000000"/><text fill="#262626" font-family="IBM Plex Sans, Noto Sans, Verdana" font-size="11" lengthAdjust="spacing" textLength="59" x="43" y="388.2104">metaclass</text><line style="stroke:#C6C6C6;stroke-width:1.0;" x1="7" x2="114" y1="405.8047" y2="405.8047"/><line style="stroke:#C6C6C6;stroke-width:1.0;" x1="7" x2="114" y1="413.8047" y2="413.8047"/></g><!--class protocol--><g id="elem_protocol"><rect codeLine="19" fill="url(#g7ad6gsm0pfxq0)" height="58.8047" id="protocol" style="stroke:#C6C6C6;stroke-width:1.0;" width="96" x="154.5" y="363"/><rect fill="url(#g7ad6gsm0pfxq0)" height="42.8047" style="stroke:#C6C6C6;stroke-width:1.0;" width="96" x="154.5" y="363"/><ellipse cx="168.5" cy="384.4023" fill="#F1F1F1" rx="10" ry="10" style="stroke:#181818;stroke-width:1.0;"/><path d="M167.6719,381.6055 L167.6719,384.168 L168.3906,384.168 Q169.2344,384.168 169.5781,383.8867 Q169.9219,383.6055 169.9219,382.8867 Q169.9219,382.1836 169.5781,381.9023 Q169.2344,381.6055 168.3906,381.6055 L167.6719,381.6055 Z M165.9531,380.1523 L168.3281,380.1523 Q170.1406,380.1523 170.9219,380.8086 Q171.7188,381.4492 171.7188,382.8867 Q171.7188,384.3398 170.9219,384.9805 Q170.1406,385.6211 168.3281,385.6211 L167.6719,385.6211 L167.6719,388.9023 L165.9531,388.9023 L165.9531,380.1523 Z " fill="#000000"/><text fill="#262626" font-family="IBM Plex Sans, Noto Sans, Verdana" font-size="11" lengthAdjust="spacing" textLength="46" x="191.5" y="388.2104">protocol</text><line style="stroke:#C6C6C6;stroke-width:1.0;" x1="155.5" x2="249.5" y1="405.8047" y2="405.8047"/><line style="stroke:#C6C6C6;stroke-width:1.0;" x1="155.5" x2="249.5" y1="413.8047" y2="413.8047"/></g><!--class stereotype--><g id="elem_stereotype"><rect codeLine="20" fill="url(#g7ad6gsm0pfxq0)" height="58.8047" id="stereotype" style="stroke:#C6C6C6;stroke-width:1.0;" width="111" x="290" y="363"/><rect fill="url(#g7ad6gsm0pfxq0)" height="42.8047" style="stroke:#C6C6C6;stroke-width:1.0;" width="111" x="290" y="363"/><ellipse cx="304" cy="384.4023" fill="#FF77FF" rx="10" ry="10" style="stroke:#181818;stroke-width:1.0;"/><path d="M302.9844,385.0586 Q301.6875,384.5586 301.2188,384.0117 Q300.75,383.4648 300.75,382.543 Q300.75,381.3555 301.5156,380.6836 Q302.2813,379.9961 303.6094,379.9961 Q304.2188,379.9961 304.8125,380.1367 Q305.4219,380.2773 306.0156,380.543 L306.0156,382.2305 Q305.4531,381.8398 304.875,381.6367 Q304.3125,381.418 303.75,381.418 Q303.125,381.418 302.7813,381.6836 Q302.4531,381.9336 302.4531,382.4023 Q302.4531,382.7617 302.6875,382.9961 Q302.9375,383.2305 303.7031,383.5273 L304.4531,383.8086 Q305.5156,384.1836 306,384.8242 Q306.5,385.4648 306.5,386.4336 Q306.5,387.7617 305.7188,388.418 Q304.9375,389.0742 303.3594,389.0742 Q302.7031,389.0742 302.0469,388.918 Q301.4063,388.7617 300.7969,388.4492 L300.7969,386.668 Q301.4844,387.168 302.125,387.4023 Q302.7813,387.6367 303.4063,387.6367 Q304.0469,387.6367 304.3906,387.3555 Q304.75,387.0586 304.75,386.543 Q304.75,386.1523 304.5156,385.8555 Q304.2813,385.5586 303.8438,385.3867 L302.9844,385.0586 Z " fill="#000000"/><text fill="#262626" font-family="IBM Plex Sans, Noto Sans, Verdana" font-size="11" lengthAdjust="spacing" textLength="61" x="327" y="388.2104">stereotype</text><line style="stroke:#C6C6C6;stroke-width:1.0;" x1="291" x2="400" y1="405.8047" y2="405.8047"/><line style="stroke:#C6C6C6;stroke-width:1.0;" x1="291" x2="400" y1="413.8047" y2="413.8047"/></g><!--class struct--><g id="elem_struct"><rect codeLine="21" fill="url(#g7ad6gsm0pfxq0)" height="58.8047" id="struct" style="stroke:#C6C6C6;stroke-width:1.0;" width="83" x="441" y="363"/><rect fill="url(#g7ad6gsm0pfxq0)" height="42.8047" style="stroke:#C6C6C6;stroke-width:1.0;" width="83" x="441" y="363"/><ellipse cx="455" cy="384.4023" fill="#F1F1F1" rx="10" ry="10" style="stroke:#181818;stroke-width:1.0;"/><path d="M453.9844,385.0586 Q452.6875,384.5586 452.2188,384.0117 Q451.75,383.4648 451.75,382.543 Q451.75,381.3555 452.5156,380.6836 Q453.2813,379.9961 454.6094,379.9961 Q455.2188,379.9961 455.8125,380.1367 Q456.4219,380.2773 457.0156,380.543 L457.0156,382.2305 Q456.4531,381.8398 455.875,381.6367 Q455.3125,381.418 454.75,381.418 Q454.125,381.418 453.7813,381.6836 Q453.4531,381.9336 453.4531,382.4023 Q453.4531,382.7617 453.6875,382.9961 Q453.9375,383.2305 454.7031,383.5273 L455.4531,383.8086 Q456.5156,384.1836 457,384.8242 Q457.5,385.4648 457.5,386.4336 Q457.5,387.7617 456.7188,388.418 Q455.9375,389.0742 454.3594,389.0742 Q453.7031,389.0742 453.0469,388.918 Q452.4063,388.7617 451.7969,388.4492 L451.7969,386.668 Q452.4844,387.168 453.125,387.4023 Q453.7813,387.6367 454.4063,387.6367 Q455.0469,387.6367 455.3906,387.3555 Q455.75,387.0586 455.75,386.543 Q455.75,386.1523 455.5156,385.8555 Q455.2813,385.5586 454.8438,385.3867 L453.9844,385.0586 Z " fill="#000000"/><text fill="#262626" font-family="IBM Plex Sans, Noto Sans, Verdana" font-size="11" lengthAdjust="spacing" textLength="33" x="478" y="388.2104">struct</text><line style="stroke:#C6C6C6;stroke-width:1.0;" x1="442" x2="523" y1="405.8047" y2="405.8047"/><line style="stroke:#C6C6C6;stroke-width:1.0;" x1="442" x2="523" y1="413.8047" y2="413.8047"/></g></g></svg>