<?xml version="1.0" encoding="us-ascii" standalone="no"?><svg xmlns="http://www.w3.org/2000/svg" xmlns:xlink="http://www.w3.org/1999/xlink" contentStyleType="text/css" height="585px" preserveAspectRatio="none" style="width:986px;height:585px;background:#282828;" version="1.1" viewBox="0 0 986 585" width="986px" zoomAndPan="magnify"><defs/><g><rect fill="#282828" height="585" style="stroke:none;stroke-width:1.0;" width="986" x="0" y="0"/><!--cluster foo_frame--><g id="cluster_foo_frame"><rect fill="#282828" height="87" rx="2.5" ry="2.5" style="stroke:#33FF33;stroke-width:1.0;" width="190" x="718.5" y="17"/><path d="M807.5,17 L807.5,26.2969 L797.5,36.2969 L718.5,36.2969 " fill="none" style="stroke:#33FF33;stroke-width:1.0;"/><text fill="#33FF33" font-family="Verdana" font-size="14" font-weight="bold" lengthAdjust="spacing" textLength="79" x="721.5" y="30.9951">foo_frame</text></g><!--class AbstractList--><g id="elem_AbstractList"><rect codeLine="7" fill="#282828" height="28" id="AbstractList" rx="2.5" ry="2.5" style="stroke:#33FF33;stroke-width:1.0;" width="108" x="267.5" y="274"/><ellipse cx="280.5" cy="288" fill="#282828" rx="9" ry="9" style="stroke:#33FF33;stroke-width:1.0;"/><path d="M280.6094,283.3438 L279.4531,288.4219 L281.7813,288.4219 L280.6094,283.3438 Z M279.125,281.1094 L282.1094,281.1094 L285.4688,293.5 L283.0156,293.5 L282.25,290.4375 L278.9688,290.4375 L278.2188,293.5 L275.7813,293.5 L279.125,281.1094 Z " fill="#33FF33"/><text fill="#33FF33" font-family="Verdana" font-size="14" font-style="italic" lengthAdjust="spacing" textLength="80" x="292.5" y="292.8467">AbstractList</text></g><!--class AbstractCollection--><g id="elem_AbstractCollection"><rect codeLine="8" fill="#282828" height="28" id="AbstractCollection" rx="2.5" ry="2.5" style="stroke:#33FF33;stroke-width:1.0;" width="153" x="11" y="274"/><ellipse cx="24" cy="288" fill="#282828" rx="9" ry="9" style="stroke:#33FF33;stroke-width:1.0;"/><path d="M24.1094,283.3438 L22.9531,288.4219 L25.2813,288.4219 L24.1094,283.3438 Z M22.625,281.1094 L25.6094,281.1094 L28.9688,293.5 L26.5156,293.5 L25.75,290.4375 L22.4688,290.4375 L21.7188,293.5 L19.2813,293.5 L22.625,281.1094 Z " fill="#33FF33"/><text fill="#33FF33" font-family="Verdana" font-size="14" font-style="italic" lengthAdjust="spacing" textLength="125" x="36" y="292.8467">AbstractCollection</text></g><!--class List--><g id="elem_List"><rect codeLine="9" fill="#282828" height="28" id="List" rx="2.5" ry="2.5" style="stroke:#33FF33;stroke-width:1.0;" width="51" x="250" y="56"/><ellipse cx="263" cy="70" fill="#282828" rx="9" ry="9" style="stroke:#33FF33;stroke-width:1.0;"/><path d="M258.9219,65.7656 L258.9219,63.6094 L266.3125,63.6094 L266.3125,65.7656 L263.8438,65.7656 L263.8438,73.8438 L266.3125,73.8438 L266.3125,76 L258.9219,76 L258.9219,73.8438 L261.3906,73.8438 L261.3906,65.7656 L258.9219,65.7656 Z " fill="#33FF33"/><text fill="#33FF33" font-family="Verdana" font-size="14" font-style="italic" lengthAdjust="spacing" textLength="23" x="275" y="74.8467">List</text></g><!--class Collection--><g id="elem_Collection"><rect codeLine="10" fill="#282828" height="28" id="Collection" rx="2.5" ry="2.5" style="stroke:#33FF33;stroke-width:1.0;" width="96" x="63.5" y="56"/><ellipse cx="76.5" cy="70" fill="#282828" rx="9" ry="9" style="stroke:#33FF33;stroke-width:1.0;"/><path d="M72.4219,65.7656 L72.4219,63.6094 L79.8125,63.6094 L79.8125,65.7656 L77.3438,65.7656 L77.3438,73.8438 L79.8125,73.8438 L79.8125,76 L72.4219,76 L72.4219,73.8438 L74.8906,73.8438 L74.8906,65.7656 L72.4219,65.7656 Z " fill="#33FF33"/><text fill="#33FF33" font-family="Verdana" font-size="14" font-style="italic" lengthAdjust="spacing" textLength="68" x="88.5" y="74.8467">Collection</text></g><!--class ArrayList--><g id="elem_ArrayList"><rect codeLine="20" fill="#282828" height="76.5938" id="ArrayList" rx="2.5" ry="2.5" style="stroke:#33FF33;stroke-width:1.0;" width="160" x="198.5" y="501.5"/><ellipse cx="246.25" cy="515.5" fill="#282828" rx="9" ry="9" style="stroke:#33FF33;stroke-width:1.0;"/><path d="M249.2188,521.1406 Q248.6406,521.4375 248,521.5781 Q247.3594,521.7344 246.6563,521.7344 Q244.1563,521.7344 242.8281,520.0938 Q241.5156,518.4375 241.5156,515.3125 Q241.5156,512.1875 242.8281,510.5313 Q244.1563,508.875 246.6563,508.875 Q247.3594,508.875 248,509.0313 Q248.6563,509.1875 249.2188,509.4844 L249.2188,512.2031 Q248.5938,511.625 248,511.3594 Q247.4063,511.0781 246.7813,511.0781 Q245.4375,511.0781 244.75,512.1563 Q244.0625,513.2188 244.0625,515.3125 Q244.0625,517.4063 244.75,518.4844 Q245.4375,519.5469 246.7813,519.5469 Q247.4063,519.5469 248,519.2813 Q248.5938,519 249.2188,518.4219 L249.2188,521.1406 Z " fill="#33FF33"/><text fill="#33FF33" font-family="Verdana" font-size="14" lengthAdjust="spacing" textLength="57" x="263.75" y="520.3467">ArrayList</text><line style="stroke:#33FF33;stroke-width:1.0;" x1="199.5" x2="357.5" y1="529.5" y2="529.5"/><text fill="#33FF33" font-family="Verdana" font-size="14" lengthAdjust="spacing" textLength="148" x="204.5" y="546.4951">Object[] elementData</text><line style="stroke:#33FF33;stroke-width:1.0;" x1="199.5" x2="357.5" y1="553.7969" y2="553.7969"/><text fill="#33FF33" font-family="Verdana" font-size="14" lengthAdjust="spacing" textLength="38" x="204.5" y="570.792">size()</text></g><!--class TimeUnit--><g id="elem_TimeUnit"><rect codeLine="25" fill="#282828" height="84.8906" id="TimeUnit" rx="2.5" ry="2.5" style="stroke:#33FF33;stroke-width:1.0;" width="89" x="413" y="27.5"/><ellipse cx="426" cy="41.5" fill="#282828" rx="9" ry="9" style="stroke:#33FF33;stroke-width:1.0;"/><path d="M430.1094,47.5 L422.3906,47.5 L422.3906,35.1094 L430.1094,35.1094 L430.1094,37.2656 L424.8438,37.2656 L424.8438,39.9375 L429.6094,39.9375 L429.6094,42.0938 L424.8438,42.0938 L424.8438,45.3438 L430.1094,45.3438 L430.1094,47.5 Z " fill="#33FF33"/><text fill="#33FF33" font-family="Verdana" font-size="14" lengthAdjust="spacing" textLength="61" x="438" y="46.3467">TimeUnit</text><line style="stroke:#33FF33;stroke-width:1.0;" x1="414" x2="501" y1="55.5" y2="55.5"/><text fill="#33FF33" font-family="Verdana" font-size="14" lengthAdjust="spacing" textLength="38" x="419" y="72.4951">DAYS</text><text fill="#33FF33" font-family="Verdana" font-size="14" lengthAdjust="spacing" textLength="50" x="419" y="88.792">HOURS</text><text fill="#33FF33" font-family="Verdana" font-size="14" lengthAdjust="spacing" textLength="62" x="419" y="105.0889">MINUTES</text></g><!--class SuppressWarnings--><g id="elem_SuppressWarnings"><rect codeLine="31" fill="#282828" height="28" id="SuppressWarnings" rx="2.5" ry="2.5" style="stroke:#33FF33;stroke-width:1.0;" width="158" x="376.5" y="526"/><ellipse cx="389.5" cy="540" fill="#282828" rx="9" ry="9" style="stroke:#33FF33;stroke-width:1.0;"/><path d="M391.5781,540.4688 Q391.5781,539.5313 391.1563,539 Q390.7344,538.4688 389.9844,538.4688 Q389.25,538.4688 388.8281,539 Q388.4219,539.5313 388.4219,540.4688 Q388.4219,541.4219 388.8281,541.9531 Q389.25,542.4844 389.9844,542.4844 Q390.7344,542.4844 391.1563,541.9531 Q391.5781,541.4219 391.5781,540.4688 Z M393.125,543.875 L391.5,543.875 L391.5,543.2031 Q391.1719,543.6406 390.75,543.8438 Q390.3281,544.0469 389.7188,544.0469 Q388.3594,544.0469 387.5313,543.0781 Q386.7031,542.0938 386.7031,540.4688 Q386.7031,538.875 387.5313,537.9063 Q388.3594,536.9219 389.7188,536.9219 Q390.3125,536.9219 390.7656,537.125 Q391.2188,537.3281 391.5,537.7188 L391.5,537.375 Q391.5,536.25 390.875,535.6406 Q390.25,535.0156 389.1094,535.0156 Q387.3906,535.0156 386.2969,536.5469 Q385.2031,538.0625 385.2031,540.5 Q385.2031,543.0469 386.4531,544.5469 Q387.7188,546.0469 389.8281,546.0469 Q390.4844,546.0469 391.1094,545.8594 Q391.7344,545.6719 392.3125,545.2813 L393.0781,546.7344 Q392.4063,547.1875 391.6094,547.4063 Q390.8125,547.6406 389.9063,547.6406 Q387,547.6406 385.2656,545.7031 Q383.5469,543.7813 383.5469,540.5 Q383.5469,537.2813 385.0938,535.3594 Q386.6563,533.4219 389.2188,533.4219 Q391.0156,533.4219 392.0625,534.5156 Q393.125,535.6094 393.125,537.4844 L393.125,543.875 Z " fill="#33FF33"/><text fill="#33FF33" font-family="Verdana" font-size="14" lengthAdjust="spacing" textLength="130" x="401.5" y="544.8467">SuppressWarnings</text></g><!--class Annotation--><g id="elem_Annotation"><rect codeLine="33" fill="#282828" height="105.1563" id="Annotation" rx="2.5" ry="2.5" style="stroke:#33FF33;stroke-width:1.0;" width="188" x="520.5" y="17.5"/><ellipse cx="571.75" cy="37.6328" fill="#282828" rx="9" ry="9" style="stroke:#33FF33;stroke-width:1.0;"/><path d="M573.8281,38.1016 Q573.8281,37.1641 573.4063,36.6328 Q572.9844,36.1016 572.2344,36.1016 Q571.5,36.1016 571.0781,36.6328 Q570.6719,37.1641 570.6719,38.1016 Q570.6719,39.0547 571.0781,39.5859 Q571.5,40.1172 572.2344,40.1172 Q572.9844,40.1172 573.4063,39.5859 Q573.8281,39.0547 573.8281,38.1016 Z M575.375,41.5078 L573.75,41.5078 L573.75,40.8359 Q573.4219,41.2734 573,41.4766 Q572.5781,41.6797 571.9688,41.6797 Q570.6094,41.6797 569.7813,40.7109 Q568.9531,39.7266 568.9531,38.1016 Q568.9531,36.5078 569.7813,35.5391 Q570.6094,34.5547 571.9688,34.5547 Q572.5625,34.5547 573.0156,34.7578 Q573.4688,34.9609 573.75,35.3516 L573.75,35.0078 Q573.75,33.8828 573.125,33.2734 Q572.5,32.6484 571.3594,32.6484 Q569.6406,32.6484 568.5469,34.1797 Q567.4531,35.6953 567.4531,38.1328 Q567.4531,40.6797 568.7031,42.1797 Q569.9688,43.6797 572.0781,43.6797 Q572.7344,43.6797 573.3594,43.4922 Q573.9844,43.3047 574.5625,42.9141 L575.3281,44.3672 Q574.6563,44.8203 573.8594,45.0391 Q573.0625,45.2734 572.1563,45.2734 Q569.25,45.2734 567.5156,43.3359 Q565.7969,41.4141 565.7969,38.1328 Q565.7969,34.9141 567.3438,32.9922 Q568.9063,31.0547 571.4688,31.0547 Q573.2656,31.0547 574.3125,32.1484 Q575.375,33.2422 575.375,35.1172 L575.375,41.5078 Z " fill="#33FF33"/><text fill="#33FF33" font-family="Verdana" font-size="12" font-style="italic" lengthAdjust="spacing" textLength="82" x="587.25" y="33.6387">&#171;stereotype&#187;</text><text fill="#33FF33" font-family="Verdana" font-size="14" lengthAdjust="spacing" textLength="75" x="590.75" y="49.4639">Annotation</text><line style="stroke:#33FF33;stroke-width:1.0;" x1="521.5" x2="707.5" y1="57.7656" y2="57.7656"/><text fill="#33FF33" font-family="Verdana" font-size="14" lengthAdjust="spacing" textLength="176" x="526.5" y="74.7607">annotation with members</text><line style="stroke:#33FF33;stroke-width:1.0;" x1="521.5" x2="707.5" y1="82.0625" y2="82.0625"/><text fill="#33FF33" font-family="Verdana" font-size="14" lengthAdjust="spacing" textLength="76" x="526.5" y="99.0576">String foo()</text><text fill="#33FF33" font-family="Verdana" font-size="14" lengthAdjust="spacing" textLength="76" x="526.5" y="115.3545">String bar()</text></g><!--class Dummy--><g id="elem_Dummy"><rect codeLine="39" fill="#282828" height="141.7813" id="Dummy" rx="2.5" ry="2.5" style="stroke:#33FF33;stroke-width:1.0;" width="128" x="393.5" y="217"/><ellipse cx="427.65" cy="231" fill="#282828" rx="9" ry="9" style="stroke:#33FF33;stroke-width:1.0;"/><path d="M430.6188,236.6406 Q430.0406,236.9375 429.4,237.0781 Q428.7594,237.2344 428.0563,237.2344 Q425.5563,237.2344 424.2281,235.5938 Q422.9156,233.9375 422.9156,230.8125 Q422.9156,227.6875 424.2281,226.0313 Q425.5563,224.375 428.0563,224.375 Q428.7594,224.375 429.4,224.5313 Q430.0563,224.6875 430.6188,224.9844 L430.6188,227.7031 Q429.9938,227.125 429.4,226.8594 Q428.8063,226.5781 428.1813,226.5781 Q426.8375,226.5781 426.15,227.6563 Q425.4625,228.7188 425.4625,230.8125 Q425.4625,232.9063 426.15,233.9844 Q426.8375,235.0469 428.1813,235.0469 Q428.8063,235.0469 429.4,234.7813 Q429.9938,234.5 430.6188,233.9219 L430.6188,236.6406 Z " fill="#33FF33"/><text fill="#33FF33" font-family="Verdana" font-size="14" lengthAdjust="spacing" textLength="53" x="444.35" y="235.8467">Dummy</text><line style="stroke:#33FF33;stroke-width:1.0;" x1="394.5" x2="520.5" y1="245" y2="245"/><rect fill="none" height="6" style="stroke:#33FF33;stroke-width:1.0;" width="6" x="401.5" y="255.6484"/><text fill="#33FF33" font-family="Verdana" font-size="14" lengthAdjust="spacing" textLength="37" x="411.5" y="261.9951">field1</text><polygon fill="none" points="404.5,269.9453,408.5,273.9453,404.5,277.9453,400.5,273.9453" style="stroke:#33FF33;stroke-width:1.0;"/><text fill="#33FF33" font-family="Verdana" font-size="14" lengthAdjust="spacing" textLength="37" x="411.5" y="278.292">field2</text><text fill="#33FF33" font-family="Verdana" font-size="14" lengthAdjust="spacing" text-decoration="underline" textLength="56" x="411.5" y="294.5889">String id</text><line style="stroke:#33FF33;stroke-width:1.0;" x1="394.5" x2="520.5" y1="301.8906" y2="301.8906"/><polygon fill="#282828" points="404.5,311.5391,400.5,317.5391,408.5,317.5391" style="stroke:#33FF33;stroke-width:1.0;"/><text fill="#33FF33" font-family="Verdana" font-size="14" lengthAdjust="spacing" textLength="73" x="411.5" y="318.8857">method1()</text><ellipse cx="404.5" cy="331.8359" fill="#282828" rx="3" ry="3" style="stroke:#33FF33;stroke-width:1.0;"/><text fill="#33FF33" font-family="Verdana" font-size="14" lengthAdjust="spacing" textLength="73" x="411.5" y="335.1826">method2()</text><text fill="#33FF33" font-family="Verdana" font-size="14" font-style="italic" lengthAdjust="spacing" textLength="104" x="411.5" y="351.4795">void methods()</text></g><g id="elem_N1"><path d="M20.5,527.5 L20.5,552.6328 L176.5,552.6328 L176.5,537.5 L166.5,527.5 L20.5,527.5 " fill="#282828" style="stroke:#33FF33;stroke-width:1.0;"/><path d="M166.5,527.5 L166.5,537.5 L176.5,537.5 L166.5,527.5 " fill="#282828" style="stroke:#33FF33;stroke-width:1.0;"/><text fill="#33FF33" font-family="Verdana" font-size="13" lengthAdjust="spacing" textLength="135" x="26.5" y="544.5669">This is a floating note</text></g><!--class Element--><g id="elem_Element"><rect fill="#282828" height="28" id="Element" rx="2.5" ry="2.5" style="stroke:#33FF33;stroke-width:1.0;" width="85" x="771" y="274"/><ellipse cx="784" cy="288" fill="#282828" rx="9" ry="9" style="stroke:#33FF33;stroke-width:1.0;"/><path d="M786.9688,293.6406 Q786.3906,293.9375 785.75,294.0781 Q785.1094,294.2344 784.4063,294.2344 Q781.9063,294.2344 780.5781,292.5938 Q779.2656,290.9375 779.2656,287.8125 Q779.2656,284.6875 780.5781,283.0313 Q781.9063,281.375 784.4063,281.375 Q785.1094,281.375 785.75,281.5313 Q786.4063,281.6875 786.9688,281.9844 L786.9688,284.7031 Q786.3438,284.125 785.75,283.8594 Q785.1563,283.5781 784.5313,283.5781 Q783.1875,283.5781 782.5,284.6563 Q781.8125,285.7188 781.8125,287.8125 Q781.8125,289.9063 782.5,290.9844 Q783.1875,292.0469 784.5313,292.0469 Q785.1563,292.0469 785.75,291.7813 Q786.3438,291.5 786.9688,290.9219 L786.9688,293.6406 Z " fill="#33FF33"/><text fill="#33FF33" font-family="Verdana" font-size="14" lengthAdjust="spacing" textLength="57" x="796" y="292.8467">Element</text></g><g id="elem_Elementlol26"><ellipse cx="810.5" cy="533" fill="#282828" rx="5" ry="5" style="stroke:#33FF33;stroke-width:1.5;"/></g><text fill="#33FF33" font-family="Verdana" font-size="14" lengthAdjust="spacing" textLength="60" x="780.5" y="550.9951">interface</text><g id="elem_GMN31"><path d="M874,275.5 L874,284 L856.3164,288 L874,292 L874,300.6328 A0,0 0 0 0 874,300.6328 L979,300.6328 A0,0 0 0 0 979,300.6328 L979,285.5 L969,275.5 L874,275.5 A0,0 0 0 0 874,275.5 " fill="#282828" style="stroke:#33FF33;stroke-width:1.0;"/><path d="M969,275.5 L969,285.5 L979,285.5 L969,275.5 " fill="#282828" style="stroke:#33FF33;stroke-width:1.0;"/><text fill="#33FF33" font-family="Verdana" font-size="13" lengthAdjust="spacing" textLength="84" x="880" y="292.5669">This is a note</text></g><!--class User--><g id="elem_User"><rect codeLine="69" fill="#282828" height="224.9063" id="User" rx="2.5" ry="2.5" style="stroke:#33FF33;stroke-width:1.0;" width="123" x="540" y="175.5"/><ellipse cx="574.15" cy="202.6172" fill="#282828" rx="9" ry="9" style="stroke:#33FF33;stroke-width:1.0;"/><path d="M577.1188,208.2578 Q576.5406,208.5547 575.9,208.6953 Q575.2594,208.8516 574.5563,208.8516 Q572.0563,208.8516 570.7281,207.2109 Q569.4156,205.5547 569.4156,202.4297 Q569.4156,199.3047 570.7281,197.6484 Q572.0563,195.9922 574.5563,195.9922 Q575.2594,195.9922 575.9,196.1484 Q576.5563,196.3047 577.1188,196.6016 L577.1188,199.3203 Q576.4938,198.7422 575.9,198.4766 Q575.3063,198.1953 574.6813,198.1953 Q573.3375,198.1953 572.65,199.2734 Q571.9625,200.3359 571.9625,202.4297 Q571.9625,204.5234 572.65,205.6016 Q573.3375,206.6641 574.6813,206.6641 Q575.3063,206.6641 575.9,206.3984 Q576.4938,206.1172 577.1188,205.5391 L577.1188,208.2578 Z " fill="#33FF33"/><text fill="#33FF33" font-family="Verdana" font-size="12" font-style="italic" lengthAdjust="spacing" textLength="41" x="594.35" y="191.6387">&#171;user&#187;</text><text fill="#33FF33" font-family="Verdana" font-size="12" font-style="italic" lengthAdjust="spacing" textLength="52" x="588.85" y="205.6074">&#171;admin&#187;</text><text fill="#33FF33" font-family="Verdana" font-size="14" lengthAdjust="spacing" textLength="32" x="598.85" y="221.4326">User</text><line style="stroke:#33FF33;stroke-width:1.0;" x1="541" x2="662" y1="229.7344" y2="229.7344"/><ellipse cx="551" cy="263.6797" fill="#282828" rx="3" ry="3" style="stroke:#33FF33;stroke-width:1.0;"/><text fill="#33FF33" font-family="Verdana" font-size="14" lengthAdjust="spacing" textLength="73" x="558" y="267.0264">getName()</text><ellipse cx="551" cy="279.9766" fill="#282828" rx="3" ry="3" style="stroke:#33FF33;stroke-width:1.0;"/><text fill="#33FF33" font-family="Verdana" font-size="14" lengthAdjust="spacing" textLength="90" x="558" y="283.3232">getAddress()</text><line style="stroke:#33FF33;stroke-width:1.0;stroke-dasharray:1.0,2.0;" x1="541" x2="554.5" y1="245.8828" y2="245.8828"/><text fill="#33FF33" font-family="Verdana" font-size="14" lengthAdjust="spacing" textLength="94" x="554.5" y="250.2295">Simple Getter</text><line style="stroke:#33FF33;stroke-width:1.0;stroke-dasharray:1.0,2.0;" x1="648.5" x2="662" y1="245.8828" y2="245.8828"/><ellipse cx="551" cy="316.5703" fill="#282828" rx="3" ry="3" style="stroke:#33FF33;stroke-width:1.0;"/><text fill="#33FF33" font-family="Verdana" font-size="14" lengthAdjust="spacing" textLength="72" x="558" y="319.917">setName()</text><line style="stroke:#33FF33;stroke-width:1.0;stroke-dasharray:1.0,2.0;" x1="541" x2="559" y1="298.7734" y2="298.7734"/><text fill="#33FF33" font-family="Verdana" font-size="14" lengthAdjust="spacing" textLength="85" x="559" y="303.1201">Some setter</text><line style="stroke:#33FF33;stroke-width:1.0;stroke-dasharray:1.0,2.0;" x1="644" x2="662" y1="298.7734" y2="298.7734"/><text fill="#33FF33" font-family="Verdana" font-size="14" lengthAdjust="spacing" textLength="47" x="546" y="356.5107">int age</text><line style="stroke:#33FF33;stroke-width:1.0;" x1="541" x2="561.5" y1="335.3672" y2="335.3672"/><text fill="#33FF33" font-family="Verdana" font-size="14" lengthAdjust="spacing" textLength="80" x="561.5" y="339.7139">private data</text><line style="stroke:#33FF33;stroke-width:1.0;" x1="641.5" x2="662" y1="335.3672" y2="335.3672"/><text fill="#33FF33" font-family="Verdana" font-size="14" lengthAdjust="spacing" textLength="111" x="546" y="393.1045">String password</text><line style="stroke:#33FF33;stroke-width:1.0;" x1="541" x2="566.5" y1="371.9609" y2="371.9609"/><text fill="#33FF33" font-family="Verdana" font-size="14" lengthAdjust="spacing" textLength="70" x="566.5" y="376.3076">encrypted</text><line style="stroke:#33FF33;stroke-width:1.0;" x1="636.5" x2="662" y1="371.9609" y2="371.9609"/></g><!--class Foo--><g id="elem_Foo"><rect codeLine="54" fill="#282828" height="52.2969" id="Foo" rx="2.5" ry="2.5" style="stroke:#33FF33;stroke-width:1.0;" width="173" x="727" y="44"/><ellipse cx="740" cy="58" fill="#282828" rx="9" ry="9" style="stroke:#33FF33;stroke-width:1.0;"/><path d="M742.9688,63.6406 Q742.3906,63.9375 741.75,64.0781 Q741.1094,64.2344 740.4063,64.2344 Q737.9063,64.2344 736.5781,62.5938 Q735.2656,60.9375 735.2656,57.8125 Q735.2656,54.6875 736.5781,53.0313 Q737.9063,51.375 740.4063,51.375 Q741.1094,51.375 741.75,51.5313 Q742.4063,51.6875 742.9688,51.9844 L742.9688,54.7031 Q742.3438,54.125 741.75,53.8594 Q741.1563,53.5781 740.5313,53.5781 Q739.1875,53.5781 738.5,54.6563 Q737.8125,55.7188 737.8125,57.8125 Q737.8125,59.9063 738.5,60.9844 Q739.1875,62.0469 740.5313,62.0469 Q741.1563,62.0469 741.75,61.7813 Q742.3438,61.5 742.9688,60.9219 L742.9688,63.6406 Z " fill="#33FF33"/><text fill="#33FF33" font-family="Verdana" font-size="14" lengthAdjust="spacing" textLength="26" x="752" y="62.8467">Foo</text><rect fill="#282828" height="15.9688" style="stroke:#33FF33;stroke-width:1.0;stroke-dasharray:2.0,2.0;" width="117" x="786" y="41"/><text fill="#33FF33" font-family="Verdana" font-size="12" font-style="italic" lengthAdjust="spacing" textLength="115" x="787" y="53.1387">? extends Element</text><line style="stroke:#33FF33;stroke-width:1.0;" x1="728" x2="899" y1="72" y2="72"/><text fill="#33FF33" font-family="Verdana" font-size="14" lengthAdjust="spacing" textLength="63" x="733" y="88.9951">int si ze()</text></g><path d="M278.3083,84.1866 C286.54,122.8398 310.5439,235.5542 318.7285,273.986 " fill="none" style="stroke:#33FF33;stroke-width:1.0;"/><polygon fill="#282828" points="278.3083,84.1866,275.7725,101.0854,287.5093,98.5859,278.3083,84.1866" style="stroke:#33FF33;stroke-width:1.0;"/><text fill="#33FF33" font-family="Verdana" font-size="13" lengthAdjust="spacing" textLength="74" x="294.5" y="153.5669">AList to List</text><path d="M110.0348,84.1866 C105.74,122.8398 93.2162,235.5542 88.946,273.986 " fill="none" style="stroke:#33FF33;stroke-width:1.0;"/><polygon fill="#282828" points="110.0348,84.1866,102.3046,99.4262,114.2312,100.7513,110.0348,84.1866" style="stroke:#33FF33;stroke-width:1.0;"/><text fill="#33FF33" font-family="Verdana" font-size="13" lengthAdjust="spacing" textLength="76" x="105.5" y="153.5669">AColl to Coll</text><text fill="#33FF33" font-family="Verdana" font-size="13" lengthAdjust="spacing" textLength="36" x="51.946" y="270.0529">many</text><text fill="#33FF33" font-family="Verdana" font-size="13" lengthAdjust="spacing" textLength="36" x="73.0348" y="97.2535">many</text><path d="M159.8184,70 C189.2975,70 225.8059,70 249.8299,70 " fill="none" style="stroke:#33FF33;stroke-width:1.0;"/><polygon fill="#282828" points="159.8184,70,175.8184,76,175.8184,64,159.8184,70" style="stroke:#33FF33;stroke-width:1.0;"/><text fill="#33FF33" font-family="Verdana" font-size="13" lengthAdjust="spacing" textLength="66" x="171.75" y="63.0669">List to Coll</text><path d="M164.1204,288 C197.8426,288 236.666,288 267.315,288 " fill="none" style="stroke:#33FF33;stroke-width:1.0;"/><polygon fill="#282828" points="164.1204,288,180.1204,294,180.1204,282,164.1204,288" style="stroke:#33FF33;stroke-width:1.0;"/><text fill="#33FF33" font-family="Verdana" font-size="13" lengthAdjust="spacing" textLength="84" x="173.75" y="281.0669">AList to AColl</text><path d="M319.2487,302.0891 C312.924,338.8602 294.819,444.122 285.0078,501.1641 " fill="none" style="stroke:#33FF33;stroke-width:1.0;"/><polygon fill="#282828" points="319.2487,302.0891,310.6233,316.8405,322.4497,318.8746,319.2487,302.0891" style="stroke:#33FF33;stroke-width:1.0;"/><text fill="#33FF33" font-family="Verdana" font-size="13" lengthAdjust="spacing" textLength="88" x="312" y="430.5669">ArList to AList</text><path d="M304.5,438.6328 L304.5,478.6328 L407.5,478.6328 L407.5,448.6328 L397.5,438.6328 L304.5,438.6328 " fill="#282828" style="stroke:#33FF33;stroke-width:1.0;"/><path d="M397.5,438.6328 L397.5,448.6328 L407.5,448.6328 L397.5,438.6328 " fill="#282828" style="stroke:#33FF33;stroke-width:1.0;"/><text fill="#33FF33" font-family="Verdana" font-size="13" lengthAdjust="spacing" textLength="82" x="310.5" y="455.6997">this is a note</text><text fill="#33FF33" font-family="Verdana" font-size="13" lengthAdjust="spacing" textLength="41" x="310.5" y="470.8325">on link</text><path d="M358.7031,540 C364.6269,540 370.5507,540 376.4744,540 " fill="none" style="stroke:#33FF33;stroke-width:1.0;"/><polygon fill="#33FF33" points="358.7031,540,367.7031,544,363.7031,540,367.7031,536,358.7031,540" style="stroke:#33FF33;stroke-width:1.0;"/><ellipse cx="368.4744" cy="540" fill="#282828" rx="8" ry="8" style="stroke:#33FF33;stroke-width:1.0;"/><line style="stroke:#33FF33;stroke-width:1.0;" x1="360.4744" x2="376.4744" y1="540" y2="540"/><line style="stroke:#33FF33;stroke-width:1.0;" x1="368.4744" x2="368.4744" y1="532" y2="548"/><path d="M88.0759,302.0891 C89.9944,345.692 96.1504,485.5998 97.9815,527.2161 " fill="none" style="stroke:#33FF33;stroke-width:1.0;"/><polygon fill="#33FF33" points="88.0759,302.0891,84.4754,311.2562,88.2957,307.0843,92.4677,310.9046,88.0759,302.0891" style="stroke:#33FF33;stroke-width:1.0;"/><rect fill="#282828" height="10" style="stroke:#33FF33;stroke-width:1.5;" width="10" x="92.9815" y="522.2161"/><path d="M176.5469,540 C183.8482,540 191.1495,540 198.4509,540 " fill="none" style="stroke:#33FF33;stroke-width:1.0;"/><polygon fill="#33FF33" points="198.4509,540,189.4509,536,193.4509,540,189.4509,544,198.4509,540" style="stroke:#33FF33;stroke-width:1.0;"/><path d="M813.5,96.2007 C813.5,142.2731 813.5,238.5869 813.5,273.7691 " fill="none" style="stroke:#33FF33;stroke-width:1.0;"/><polygon fill="#33FF33" points="813.5,96.2007,809.5,102.2007,813.5,108.2007,817.5,102.2007,813.5,96.2007" style="stroke:#33FF33;stroke-width:1.0;"/><path d="M813.5,302.0891 C813.5,345.8929 813.5,486.8914 813.5,527.7851 " fill="none" style="stroke:#33FF33;stroke-width:1.0;"/></g></svg>