<?xml version="1.0" encoding="UTF-8" standalone="no"?><svg xmlns="http://www.w3.org/2000/svg" xmlns:xlink="http://www.w3.org/1999/xlink" contentScriptType="application/ecmascript" contentStyleType="text/css" height="511.4583px" preserveAspectRatio="none" style="width:739px;height:511px;background:#00000000;" version="1.1" viewBox="0 0 739 511" width="739.5833px" zoomAndPan="magnify"><defs/><g><!--MD5=[b4fa10df80476353258f72a232547d63]
class AbstractList--><polygon points="224.4792,244.4661,224.4792,244.6851,235.0852,244.0346,245.6913,244.6675,256.2973,244.8825,266.9034,243.723,277.5095,244.3852,288.1155,244.0219,298.7216,244.0667,309.3277,244.3951,319.9337,243.746,330.5398,245.0429,341.1458,244.4661,341.0621,244.264,341.7088,244.6468,342.3817,245.0929,342.9022,245.1709,343.5119,245.4643,344.0921,245.6865,344.0819,245.6823,344.3935,246.2995,344.657,246.8968,345.0122,247.5321,345.2837,248.1327,345.3125,248.6328,345.5484,248.6328,345.4009,257.8613,345.4735,267.0898,345.5563,276.3184,345.0621,285.5469,345.3125,294.7754,345.5302,294.8655,344.9733,295.3252,344.9956,296.0248,344.4215,296.4774,344.3142,297.1233,344.0921,297.7217,344.1907,297.9596,343.4964,297.9501,342.9276,298.2436,342.3693,298.5625,341.7904,298.8315,341.1458,298.9421,341.1458,298.938,330.5398,299.2412,319.9337,298.3458,309.3277,299.2383,298.7216,299.5131,288.1155,299.4051,277.5095,299.5806,266.9034,298.4388,256.2973,298.2627,245.6913,298.2948,235.0852,298.8807,224.4792,298.9421,224.4531,298.879,223.9805,298.9166,223.2774,298.3979,222.6658,298.0998,222.1525,298.039,221.5329,297.7217,221.319,297.6331,221.1223,297.0634,221.2529,296.6294,220.9404,296.0118,220.7922,295.4622,220.3125,294.7754,220.2008,294.7754,220.4233,285.5469,220.5175,276.3184,220.1485,267.0898,220.2792,257.8613,220.3125,248.6328,220.3529,248.6496,220.7657,248.1302,220.7993,247.4537,221.1931,246.9265,221.1112,246.2022,221.5329,245.6865,221.4429,245.4693,222.1891,245.604,222.6161,244.9684,223.3683,245.1176,223.9174,244.7765,224.4792,244.4661" style="stroke:#2E2E2E;stroke-width:1.0416666666666667;fill:none;"/><polygon points="245.37,265.9045,243.8431,267.9908,242.0371,271.0466,239.4542,273.106,236.7399,274.2321,234.5758,274.3299,231.7942,272.9215,229.1697,272.0014,227.1776,270.1332,226.1326,267.9946,225.5129,266.2917,224.9058,264.0675,223.9204,262.1534,224.6777,260.2846,225.3411,258.2375,227.8308,256.6184,229.5824,254.5176,231.7504,253.82,234.3278,253.2193,237.633,253.5762,239.4433,254.43,241.548,254.817,244.1072,257.4389,244.9993,260.2069,245.3869,262.0955,244.9479,265.2078" style="stroke:#24963E;stroke-width:1.0416666666666667;fill:none;"/><path d="M234.4889,260.3271 L233.6426,264.0544 L235.3516,264.0544 L234.4889,260.3271 Z M233.3984,258.6833 L235.5957,258.6833 L238.0534,267.7979 L236.2467,267.7979 L235.6934,265.5518 L233.2845,265.5518 L232.7311,267.7979 L230.9245,267.7979 L233.3984,258.6833 Z " fill="#000000"/><text fill="#2E2E2E" font-family="&quot;Segoe Print&quot;" font-size="14.5833" font-style="italic" lengthAdjust="spacing" textLength="83.3333" x="253.6458" y="268.4194">AbstractList</text><path d="M221.3542,282.2754 L221.3542,282.5673 L231.5972,281.6999 L241.8403,282.5438 L252.0833,282.8305 L262.3264,281.2846 L272.5694,282.1675 L282.8125,281.683 L293.0556,281.7428 L303.2986,282.1807 L313.5417,281.3152 L323.7847,283.0443 L334.0278,281.4 L344.2708,282.2754 " style="stroke:#2E2E2E;stroke-width:1.0416666666666667;fill:none;"/><path d="M221.3542,290.6087 L221.3542,290.9006 L231.5972,290.0333 L241.8403,290.8772 L252.0833,291.1638 L262.3264,289.6179 L272.5694,290.5008 L282.8125,290.0164 L293.0556,290.0761 L303.2986,290.5141 L313.5417,289.6485 L323.7847,291.3777 L334.0278,289.7333 L344.2708,290.6087 " style="stroke:#2E2E2E;stroke-width:1.0416666666666667;fill:none;"/><!--MD5=[8e34b16d8d8f96f4a11290cd523ed859]
class AbstractCollection--><polygon points="21.875,244.4661,21.875,244.6851,32.0964,244.0346,42.3177,244.6675,52.5391,244.8825,62.7604,243.723,72.9818,244.3852,83.2031,244.0219,93.4245,244.0667,103.6458,244.3951,113.8672,243.746,124.0885,245.0429,134.3099,243.8096,144.5313,244.2601,154.7526,244.9161,164.974,244.3768,175.1953,244.5372,185.4167,244.4661,185.4124,244.4559,186.0296,244.7675,186.627,245.031,187.2623,245.3863,187.8629,245.6577,188.3629,245.6865,188.5808,245.7768,188.6887,246.3096,188.9998,246.9266,189.3204,247.5476,189.1079,247.9477,189.5833,248.6328,189.8189,248.6328,189.4804,257.8613,189.7687,267.0898,189.4115,276.3184,189.5595,285.5469,189.5833,294.7754,189.8212,294.8739,189.3236,295.3582,189.129,295.9679,188.9597,296.5882,188.7405,297.1877,188.3629,297.7217,188.3624,297.7204,187.8119,298.0579,187.1084,298.0262,186.633,298.5451,186.0788,298.8738,185.4167,298.9421,185.4167,299.4051,175.1953,299.5806,164.974,298.4388,154.7526,298.2627,144.5313,298.2948,134.3099,298.8807,124.0885,298.7373,113.8672,299.6519,103.6458,298.7601,93.4245,298.5847,83.2031,299.1798,72.9818,298.2474,62.7604,298.4013,52.5391,299.618,42.3177,299.3959,32.0964,299.7072,21.875,298.9421,21.8322,298.8388,21.3282,298.8004,20.7749,298.6433,20.0445,298.0583,19.5052,297.935,18.9287,297.7217,18.9691,297.7384,18.8937,297.219,18.4392,296.5426,18.3449,296.0154,17.7748,295.2911,17.7083,294.7754,17.4732,294.7754,17.8832,285.5469,17.4594,276.3184,17.8851,267.0898,17.7801,257.8613,17.7083,248.6328,17.6224,248.5972,17.8389,247.9965,18.3437,247.5153,18.3445,246.8253,18.8745,246.3544,18.9287,245.6865,18.8553,245.5092,19.6,245.6405,20.1716,245.3537,20.729,245.0329,21.292,244.7254,21.875,244.4661" style="stroke:#2E2E2E;stroke-width:1.0416666666666667;fill:none;"/><polygon points="42.7659,265.9045,41.239,267.9908,39.433,271.0466,36.85,273.106,34.1358,274.2321,31.9716,274.3299,29.19,272.9215,26.5655,272.0014,24.5734,270.1332,23.5285,267.9946,22.9088,266.2917,22.3017,264.0675,21.3163,262.1534,22.0735,260.2846,22.7369,258.2375,25.2266,256.6184,26.9782,254.5176,29.1462,253.82,31.7236,253.2193,35.0288,253.5762,36.8391,254.43,38.9439,254.817,41.503,257.4389,42.3951,260.2069,42.7827,262.0955,42.3437,265.2078" style="stroke:#24963E;stroke-width:1.0416666666666667;fill:none;"/><path d="M31.8848,260.3271 L31.0384,264.0544 L32.7474,264.0544 L31.8848,260.3271 Z M30.7943,258.6833 L32.9915,258.6833 L35.4492,267.7979 L33.6426,267.7979 L33.0892,265.5518 L30.6803,265.5518 L30.127,267.7979 L28.3203,267.7979 L30.7943,258.6833 Z " fill="#000000"/><text fill="#2E2E2E" font-family="&quot;Segoe Print&quot;" font-size="14.5833" font-style="italic" lengthAdjust="spacing" textLength="130.2083" x="51.0417" y="268.4194">AbstractCollection</text><path d="M18.75,282.2754 L18.75,282.5673 L29.362,281.6999 L39.974,282.5438 L50.5859,282.8305 L61.1979,281.2846 L71.8099,282.1675 L82.4219,281.683 L93.0339,281.7428 L103.6458,282.1807 L114.2578,281.3152 L124.8698,283.0443 L135.4818,281.4 L146.0938,282.0007 L156.7057,282.8753 L167.3177,282.1563 L177.9297,282.3702 L188.5417,282.2754 " style="stroke:#2E2E2E;stroke-width:1.0416666666666667;fill:none;"/><path d="M18.75,290.6087 L18.75,290.9006 L29.362,290.0333 L39.974,290.8772 L50.5859,291.1638 L61.1979,289.6179 L71.8099,290.5008 L82.4219,290.0164 L93.0339,290.0761 L103.6458,290.5141 L114.2578,289.6485 L124.8698,291.3777 L135.4818,289.7333 L146.0938,290.334 L156.7057,291.2087 L167.3177,290.4896 L177.9297,290.7035 L188.5417,290.6087 " style="stroke:#2E2E2E;stroke-width:1.0416666666666667;fill:none;"/><!--MD5=[3d4177ac58b4411586d067f34e84928f]
class List--><polygon points="220.8333,58.0078,220.8333,58.2268,230.3819,57.5762,239.9306,58.2092,249.4792,58.4241,259.0278,57.2647,268.5764,57.9269,278.125,58.0078,278.0683,57.871,278.6633,58.1289,279.2945,58.4741,279.8009,58.5183,280.5556,59.1617,281.0713,59.2282,280.8691,59.1445,281.2519,59.7912,281.698,60.4641,281.776,60.9846,282.0695,61.5943,282.2917,62.1745,282.2806,62.1745,282.3537,71.403,282.3747,80.6315,282.495,89.86,282.5247,99.0885,282.2917,108.3171,282.5096,108.4073,282.1293,108.9401,281.9522,109.5572,281.7847,110.1781,281.084,110.5783,281.0713,111.2633,281.1614,111.481,280.4426,111.4123,279.9637,111.9227,279.2377,111.8368,278.7052,112.2177,278.125,112.4837,278.125,113.2562,268.5764,112.433,259.0278,112.5934,249.4792,112.8365,239.9306,112.9173,230.3819,112.4797,220.8333,112.4837,220.8715,112.5759,220.168,112.056,219.6926,112.0868,219.1384,111.9273,218.5354,111.65,217.8871,111.2633,218.0837,111.3448,217.488,110.6099,217.1897,109.9982,216.9555,109.413,216.8919,108.8985,216.6667,108.3171,216.5984,108.3171,216.9033,99.0885,216.606,89.86,216.5476,80.6315,216.7459,71.403,216.6667,62.1745,216.4528,62.0859,216.7442,61.5162,217.363,61.0822,217.5387,60.4646,217.8786,59.9151,217.8871,59.2282,217.8443,59.125,218.5187,59.0865,219.144,58.9294,219.5921,58.3444,220.2313,58.2211,220.8333,58.0078" style="stroke:#2E2E2E;stroke-width:1.0416666666666667;fill:none;"/><polygon points="241.7242,79.4462,240.1973,81.5325,238.3913,84.5883,235.8084,86.6477,233.0941,87.7738,230.9299,87.8715,228.1484,86.4631,225.5238,85.543,223.5318,83.6749,222.4868,81.5363,221.8671,79.8334,221.26,77.6091,220.2746,75.6951,221.0318,73.8263,221.6953,71.7791,224.1849,70.16,225.9365,68.0593,228.1045,67.3617,230.6819,66.761,233.9871,67.1179,235.7974,67.9717,237.9022,68.3586,240.4613,70.9806,241.3535,73.7486,241.7411,75.6372,241.302,78.7494" style="stroke:#C6303E;stroke-width:1.0416666666666667;fill:none;"/><path d="M228.1413,74.0804 L228.1413,72.4854 L233.5612,72.4854 L233.5612,74.0804 L231.7546,74.0804 L231.7546,80.0049 L233.5612,80.0049 L233.5612,81.5999 L228.1413,81.5999 L228.1413,80.0049 L229.9479,80.0049 L229.9479,74.0804 L228.1413,74.0804 Z " fill="#000000"/><text fill="#2E2E2E" font-family="&quot;Segoe Print&quot;" font-size="14.5833" font-style="italic" lengthAdjust="spacing" textLength="23.9583" x="250" y="81.9611">List</text><path d="M217.7083,95.8171 L217.7083,96.109 L228.2986,95.2416 L238.8889,96.0855 L249.4792,96.3722 L260.0694,94.8262 L270.6597,95.7091 L281.25,95.8171 " style="stroke:#2E2E2E;stroke-width:1.0416666666666667;fill:none;"/><path d="M217.7083,104.1504 L217.7083,104.4423 L228.2986,103.5749 L238.8889,104.4188 L249.4792,104.7055 L260.0694,103.1596 L270.6597,104.0425 L281.25,104.1504 " style="stroke:#2E2E2E;stroke-width:1.0416666666666667;fill:none;"/><!--MD5=[c160724f8e3bb89ca8141a12554ac2e3]
class Collection--><polygon points="63.0208,58.0078,63.0208,58.2268,73.4375,57.5762,83.8542,58.2092,94.2708,58.4241,104.6875,57.2647,115.1042,57.9269,125.5208,57.5635,135.9375,57.6083,146.3542,57.9368,156.7708,57.2876,167.1875,58.0078,167.2611,58.1854,167.693,58.0497,168.3397,58.4325,169.0127,58.8786,169.5331,58.9566,170.1338,59.2282,170.1557,59.2373,170.3676,59.8132,170.6792,60.4304,170.9427,61.0277,171.298,61.663,171.3542,62.1745,171.5872,62.1745,171.59,71.403,171.4426,80.6315,171.5151,89.86,171.598,99.0885,171.3542,108.3171,171.1228,108.2212,171.3277,108.9965,170.7709,109.4562,170.7932,110.1558,170.2191,110.6083,170.1338,111.2633,170.1247,111.2414,169.6431,111.7453,168.9488,111.7359,168.38,112.0293,167.8218,112.3483,167.1875,112.4837,167.1875,112.9173,156.7708,112.4797,146.3542,112.7829,135.9375,111.8875,125.5208,112.78,115.1042,113.0548,104.6875,112.9468,94.2708,113.1223,83.8542,111.9805,73.4375,111.8044,63.0208,112.4837,62.9383,112.2844,62.4238,112.2208,61.8162,111.9325,61.3436,111.9701,60.6406,111.4514,60.0746,111.2633,59.9645,111.2178,59.9037,110.7044,59.3725,109.9962,59.1758,109.4266,59.3064,108.9925,58.8542,108.3171,59.0054,108.3171,59.1092,99.0885,58.7424,89.86,58.965,80.6315,59.0592,71.403,58.8542,62.1745,58.7026,62.1117,59.0675,61.5725,59.3827,61.0127,59.7955,60.4933,59.8291,59.8169,60.0746,59.2282,60.136,59.3766,60.5902,58.8065,61.1631,58.5228,61.9092,58.6575,62.3363,58.0219,63.0208,58.0078" style="stroke:#2E2E2E;stroke-width:1.0416666666666667;fill:none;"/><polygon points="83.9117,79.4462,82.3848,81.5325,80.5788,84.5883,77.9959,86.6477,75.2816,87.7738,73.1174,87.8715,70.3359,86.4631,67.7113,85.543,65.7193,83.6749,64.6743,81.5363,64.0546,79.8334,63.4475,77.6091,62.4621,75.6951,63.2193,73.8263,63.8828,71.7791,66.3724,70.16,68.124,68.0593,70.292,67.3617,72.8694,66.761,76.1746,67.1179,77.9849,67.9717,80.0897,68.3586,82.6488,70.9806,83.541,73.7486,83.9286,75.6372,83.4895,78.7494" style="stroke:#C6303E;stroke-width:1.0416666666666667;fill:none;"/><path d="M70.3288,74.0804 L70.3288,72.4854 L75.7487,72.4854 L75.7487,74.0804 L73.9421,74.0804 L73.9421,80.0049 L75.7487,80.0049 L75.7487,81.5999 L70.3288,81.5999 L70.3288,80.0049 L72.1354,80.0049 L72.1354,74.0804 L70.3288,74.0804 Z " fill="#000000"/><text fill="#2E2E2E" font-family="&quot;Segoe Print&quot;" font-size="14.5833" font-style="italic" lengthAdjust="spacing" textLength="70.8333" x="92.1875" y="81.9611">Collection</text><path d="M59.8958,95.8171 L59.8958,96.109 L69.9337,95.2416 L79.9716,96.0855 L90.0095,96.3722 L100.0473,94.8262 L110.0852,95.7091 L120.1231,95.2247 L130.161,95.2844 L140.1989,95.7224 L150.2367,94.8568 L160.2746,96.586 L170.3125,95.8171 " style="stroke:#2E2E2E;stroke-width:1.0416666666666667;fill:none;"/><path d="M59.8958,104.1504 L59.8958,104.4423 L69.9337,103.5749 L79.9716,104.4188 L90.0095,104.7055 L100.0473,103.1596 L110.0852,104.0425 L120.1231,103.558 L130.161,103.6178 L140.1989,104.0557 L150.2367,103.1902 L160.2746,104.9193 L170.3125,104.1504 " style="stroke:#2E2E2E;stroke-width:1.0416666666666667;fill:none;"/><!--MD5=[ab8871ed637f40707b866ba6597734bc]
class ArrayList--><polygon points="198.4375,389.7786,198.4375,389.9976,208.9844,389.3471,219.5313,389.98,230.0781,390.195,240.625,389.0355,251.1719,389.6977,261.7188,389.3344,272.2656,389.3792,282.8125,389.7076,293.3594,389.0585,303.9063,390.3554,314.4531,389.1221,325,389.5726,335.5469,390.2286,346.0938,389.6893,356.6406,389.8497,367.1875,389.7786,367.1833,389.7684,367.8005,390.08,368.3978,390.3435,369.0331,390.6988,369.6337,390.9702,370.1338,390.999,370.3517,391.0893,370.4595,391.6221,370.7706,392.2391,371.0913,392.8601,370.8787,393.2602,371.3542,393.9453,372.0609,393.9453,371.0453,404.0381,371.9102,414.1309,370.8385,424.2236,371.2828,434.3164,372.1267,444.4092,371.3034,454.502,371.4639,464.5947,371.7069,474.6875,371.7877,484.7803,371.3542,494.873,371.3529,494.8725,371.2022,495.5005,370.6824,495.9755,370.7132,496.6786,370.5537,497.3029,370.1338,497.8193,370.1928,497.9619,369.626,498.2601,368.8911,498.1525,368.2794,498.3423,367.6942,498.5963,367.1875,499.0397,367.1875,498.9784,356.6406,498.835,346.0938,499.7495,335.5469,498.8578,325,498.6824,314.4531,499.2775,303.9063,498.3451,293.3594,498.499,282.8125,499.7157,272.2656,499.4935,261.7188,499.8048,251.1719,498.7045,240.625,499.3722,230.0781,499.6547,219.5313,498.5476,208.9844,498.9399,198.4375,499.0397,198.4542,499.0801,197.9348,499.0047,197.2584,498.5502,196.7312,498.4559,196.0069,497.8858,195.4912,497.8193,195.274,497.7293,195.4087,497.297,194.7731,496.5455,194.9223,496.1192,194.5812,495.4898,194.2708,494.873,193.9918,494.873,193.9023,484.7803,194.7487,474.6875,193.959,464.5947,194.8874,454.502,193.6951,444.4092,194.914,434.3164,194.7753,424.2236,194.526,414.1309,194.32,404.0381,194.2708,393.9453,194.5039,394.0419,194.7117,393.4376,194.8133,392.7893,195.0891,392.2132,195.2054,391.571,195.4912,390.999,195.5864,391.2289,196.1011,390.8046,196.6927,390.5662,197.1782,390.0716,197.7944,389.8927,198.4375,389.7786" style="stroke:#2E2E2E;stroke-width:1.0416666666666667;fill:none;"/><polygon points="254.2242,411.217,252.6973,413.3033,250.8913,416.3591,248.3084,418.4185,245.5941,419.5446,243.4299,419.6424,240.6484,418.234,238.0238,417.3139,236.0318,415.4457,234.9868,413.3071,234.3671,411.6042,233.76,409.38,232.7746,407.4659,233.5318,405.5971,234.1953,403.55,236.6849,401.9309,238.4365,399.8301,240.6045,399.1325,243.1819,398.5318,246.4871,398.8887,248.2974,399.7425,250.4022,400.1295,252.9613,402.7514,253.8535,405.5194,254.2411,407.408,253.802,410.5203" style="stroke:#4D4D4D;stroke-width:1.0416666666666667;fill:none;"/><path d="M245.6543,413.1104 Q245.2311,413.3219 244.7591,413.4359 Q244.2871,413.5498 243.7826,413.5498 Q241.9271,413.5498 240.9505,412.3454 Q239.9902,411.1247 239.9902,408.8298 Q239.9902,406.5186 240.9505,405.3141 Q241.9271,404.0934 243.7826,404.0934 Q244.2871,404.0934 244.7591,404.2074 Q245.2474,404.305 245.6543,404.5329 L245.6543,406.5348 Q245.1986,406.1117 244.7591,405.9163 Q244.3197,405.7048 243.8639,405.7048 Q242.8711,405.7048 242.3665,406.5023 Q241.862,407.2835 241.862,408.8298 Q241.862,410.3597 242.3665,411.141 Q242.8711,411.9222 243.8639,411.9222 Q244.3197,411.9222 244.7591,411.7269 Q245.1986,411.5316 245.6543,411.1084 L245.6543,413.1104 Z " fill="#000000"/><text fill="#2E2E2E" font-family="&quot;Segoe Print&quot;" font-size="14.5833" lengthAdjust="spacing" textLength="59.375" x="268.75" y="413.7319">ArrayList</text><path d="M195.3125,427.5879 L195.3125,427.8798 L205.6066,427.0124 L215.9007,427.8563 L226.1949,428.143 L236.489,426.5971 L246.7831,427.48 L257.0772,426.9955 L267.3713,427.0553 L277.6654,427.4932 L287.9596,426.6277 L298.2537,428.3568 L308.5478,426.7125 L318.8419,427.3132 L329.136,428.1878 L339.4301,427.4688 L349.7243,427.6827 L360.0184,427.5435 L370.3125,427.5879 " style="stroke:#2E2E2E;stroke-width:1.0416666666666667;fill:none;"/><text fill="#2E2E2E" font-family="&quot;Segoe Print&quot;" font-size="14.5833" lengthAdjust="spacing" textLength="154.1667" x="205.7292" y="450.4995">Object[] elementData</text><path d="M195.3125,463.3138 L195.3125,463.6057 L205.6066,462.7384 L215.9007,463.5823 L226.1949,463.8689 L236.489,462.323 L246.7831,463.2059 L257.0772,462.7214 L267.3713,462.7812 L277.6654,463.2191 L287.9596,462.3536 L298.2537,464.0827 L308.5478,462.4384 L318.8419,463.0391 L329.136,463.9137 L339.4301,463.1947 L349.7243,463.4086 L360.0184,463.2694 L370.3125,463.3138 " style="stroke:#2E2E2E;stroke-width:1.0416666666666667;fill:none;"/><text fill="#2E2E2E" font-family="&quot;Segoe Print&quot;" font-size="14.5833" lengthAdjust="spacing" textLength="39.5833" x="205.7292" y="486.2254">size()</text><!--MD5=[15b68e006199004da79ea2a4d117d8e9]
class TimeUnit--><polygon points="418.75,16.862,418.75,17.0809,429.5139,16.4304,440.2778,17.0633,451.0417,17.2783,461.8056,16.1189,472.5694,16.781,483.3333,16.4177,494.0972,16.4625,504.8611,16.791,515.625,16.862,515.5331,16.6402,516.2878,17.2837,516.7198,17.1479,517.3665,17.5308,518.0394,17.9769,518.5713,18.0824,518.5438,18.071,518.8372,18.6807,519.0492,19.2566,519.3608,19.8739,519.6243,20.4712,519.7917,21.0286,520.4018,21.0286,520.4907,31.722,520.4992,42.4154,520.0569,53.1087,520.2746,63.8021,520.5232,74.4954,519.0404,85.1888,520.4984,95.8822,519.4828,106.5755,520.3477,117.2689,519.276,127.9622,519.7203,138.6556,519.7917,149.349,520.0296,149.4475,519.532,149.9317,519.3373,150.5415,519.1681,151.1617,518.9489,151.7613,518.5713,152.2952,518.5708,152.294,518.0202,152.6314,517.3167,152.5998,516.8413,153.1187,516.2871,153.4474,515.625,153.5156,515.625,153.9787,504.8611,154.1542,494.0972,153.0124,483.3333,152.8363,472.5694,152.8683,461.8056,153.4543,451.0417,153.3109,440.2778,154.2254,429.5139,153.3337,418.75,153.5156,418.7044,153.4056,418.1911,153.3448,417.4829,152.8136,416.9133,152.6169,416.4792,152.7475,415.8037,152.2952,415.9435,152.3531,415.7953,151.8036,415.2123,151.074,415.1739,150.5699,415.0168,150.0167,414.5833,149.349,414.0912,149.349,414.4835,138.6556,414.7146,127.9622,415.2622,117.2689,414.579,106.5755,415.0652,95.8822,414.0065,85.1888,413.8779,74.4954,415.1079,63.8021,413.8365,53.1087,415.1135,42.4154,414.7986,31.722,414.5833,21.0286,414.4974,20.993,414.7139,20.3924,415.2187,19.9111,415.2195,19.2211,415.7495,18.7503,415.8037,18.0824,415.7303,17.9051,416.475,18.0364,417.0466,17.7496,417.604,17.4287,418.167,17.1212,418.75,16.862" style="stroke:#2E2E2E;stroke-width:1.0416666666666667;fill:none;"/><polygon points="439.6409,38.3003,438.114,40.3867,436.308,43.4425,433.725,45.5018,431.0108,46.628,428.8466,46.7257,426.065,45.3173,423.4405,44.3972,421.4484,42.5291,420.4035,40.3904,419.7838,38.6876,419.1767,36.4633,418.1913,34.5492,418.9485,32.6804,419.6119,30.6333,422.1016,29.0142,423.8532,26.9135,426.0212,26.2159,428.5986,25.6151,431.9038,25.9721,433.7141,26.8258,435.8189,27.2128,438.378,29.8348,439.2701,32.6027,439.6577,34.4914,439.2187,37.6036" style="stroke:#E6AE06;stroke-width:1.0416666666666667;fill:none;"/><path d="M431.7057,40.4541 L426.0254,40.4541 L426.0254,31.3395 L431.7057,31.3395 L431.7057,32.9346 L427.832,32.9346 L427.832,34.8877 L431.3314,34.8877 L431.3314,36.4827 L427.832,36.4827 L427.832,38.859 L431.7057,38.859 L431.7057,40.4541 Z " fill="#000000"/><text fill="#2E2E2E" font-family="&quot;Segoe Print&quot;" font-size="14.5833" lengthAdjust="spacing" textLength="63.5417" x="447.9167" y="40.8152">TimeUnit</text><path d="M415.625,54.6712 L415.625,54.9631 L425.9375,54.0958 L436.25,54.9397 L446.5625,55.2263 L456.875,53.6804 L467.1875,54.5633 L477.5,54.0789 L487.8125,54.1386 L498.125,54.5766 L508.4375,53.711 L518.75,54.6712 " style="stroke:#2E2E2E;stroke-width:1.0416666666666667;fill:none;"/><text fill="#2E2E2E" font-family="&quot;Segoe Print&quot;" font-size="14.5833" lengthAdjust="spacing" textLength="39.5833" x="426.0417" y="77.5828">DAYS</text><text fill="#2E2E2E" font-family="&quot;Segoe Print&quot;" font-size="14.5833" lengthAdjust="spacing" textLength="52.0833" x="426.0417" y="104.9754">HOURS</text><text fill="#2E2E2E" font-family="&quot;Segoe Print&quot;" font-size="14.5833" lengthAdjust="spacing" textLength="64.5833" x="426.0417" y="132.368">MINUTES</text><path d="M415.625,145.1823 L415.625,145.4742 L425.9375,144.6068 L436.25,145.4507 L446.5625,145.7374 L456.875,144.1915 L467.1875,145.0744 L477.5,144.5899 L487.8125,144.6497 L498.125,145.0876 L508.4375,144.2221 L518.75,145.1823 " style="stroke:#2E2E2E;stroke-width:1.0416666666666667;fill:none;"/><!--MD5=[0c8287f799745f7b534bf75518604c1e]
class SuppressWarnings--><polygon points="554.6875,58.0078,554.6875,58.2268,565.2344,57.5762,575.7813,58.2092,586.3281,58.4241,596.875,57.2647,607.4219,57.9269,617.9688,57.5635,628.5156,57.6083,639.0625,57.9368,649.6094,57.2876,660.1563,58.5845,670.7031,57.3513,681.25,57.8018,691.7969,58.4578,702.3438,57.9185,712.8906,58.0789,723.4375,58.0078,723.4333,57.9976,724.0505,58.3092,724.6478,58.5727,725.2831,58.9279,725.8837,59.1994,726.3838,59.2282,726.6017,59.3185,726.7095,59.8513,727.0206,60.4683,727.3413,61.0893,727.1287,61.4894,727.6042,62.1745,727.8398,62.1745,727.5012,71.403,727.7895,80.6315,727.4323,89.86,727.5804,99.0885,727.6042,108.3171,727.8421,108.4156,727.3445,108.8998,727.1498,109.5096,726.9806,110.1298,726.7614,110.7294,726.3838,111.2633,726.3833,111.2621,725.8327,111.5995,725.1292,111.5679,724.6538,112.0868,724.0996,112.4155,723.4375,112.4837,723.4375,112.9468,712.8906,113.1223,702.3438,111.9805,691.7969,111.8044,681.25,111.8364,670.7031,112.4224,660.1563,112.279,649.6094,113.1935,639.0625,112.3018,628.5156,112.1264,617.9688,112.7215,607.4219,111.7891,596.875,111.943,586.3281,113.1597,575.7813,112.9375,565.2344,113.2488,554.6875,112.4837,554.6447,112.3805,554.1407,112.342,553.5874,112.185,552.857,111.5999,552.3177,111.4767,551.7412,111.2633,551.7816,111.2801,551.7062,110.7607,551.2517,110.0843,551.1574,109.557,550.5873,108.8327,550.5208,108.3171,550.2857,108.3171,550.6957,99.0885,550.2719,89.86,550.6976,80.6315,550.5926,71.403,550.5208,62.1745,550.4349,62.1389,550.6514,61.5382,551.1562,61.0569,551.157,60.3669,551.687,59.8961,551.7412,59.2282,551.6678,59.0509,552.4125,59.1822,552.9841,58.8954,553.5415,58.5746,554.1045,58.267,554.6875,58.0078" style="stroke:#2E2E2E;stroke-width:1.0416666666666667;fill:none;"/><polygon points="575.5784,79.4462,574.0515,81.5325,572.2455,84.5883,569.6625,86.6477,566.9483,87.7738,564.7841,87.8715,562.0025,86.4631,559.378,85.543,557.3859,83.6749,556.341,81.5363,555.7213,79.8334,555.1142,77.6091,554.1288,75.6951,554.886,73.8263,555.5494,71.7791,558.0391,70.16,559.7907,68.0593,561.9587,67.3617,564.5361,66.761,567.8413,67.1179,569.6516,67.9717,571.7564,68.3586,574.3155,70.9806,575.2076,73.7486,575.5952,75.6372,575.1562,78.7494" style="stroke:#1592A6;stroke-width:1.0416666666666667;fill:none;"/><path d="M566.3574,76.7171 Q566.3574,76.0173 566.0482,75.6266 Q565.7389,75.236 565.1855,75.236 Q564.6484,75.236 564.3392,75.6266 Q564.0299,76.0173 564.0299,76.7171 Q564.0299,77.4007 564.3392,77.7913 Q564.6484,78.182 565.1855,78.182 Q565.7389,78.182 566.0482,77.7913 Q566.3574,77.4007 566.3574,76.7171 Z M567.4967,79.2074 L566.2923,79.2074 L566.2923,78.7191 Q566.0645,79.0283 565.7389,79.1911 Q565.4297,79.3376 564.9902,79.3376 Q563.9974,79.3376 563.3789,78.6214 Q562.7604,77.889 562.7604,76.7171 Q562.7604,75.529 563.3626,74.8128 Q563.9811,74.0967 564.9902,74.0967 Q565.4297,74.0967 565.7552,74.2432 Q566.0807,74.3896 566.2923,74.6826 L566.2923,74.4385 Q566.2923,73.6084 565.8366,73.1527 Q565.3809,72.6969 564.5508,72.6969 Q563.2813,72.6969 562.4674,73.82 Q561.6699,74.9268 561.6699,76.7171 Q561.6699,78.5889 562.5977,79.7119 Q563.5254,80.8187 565.0716,80.8187 Q565.5599,80.8187 566.0156,80.6722 Q566.4714,80.5257 566.8945,80.2327 L567.4479,81.307 Q566.9596,81.6488 566.3737,81.8115 Q565.7878,81.9906 565.1367,81.9906 Q562.9883,81.9906 561.7188,80.5583 Q560.4492,79.1423 560.4492,76.7171 Q560.4492,74.3571 561.5885,72.9411 Q562.7441,71.5251 564.6159,71.5251 Q565.9505,71.5251 566.7155,72.3226 Q567.4967,73.1201 567.4967,74.5199 L567.4967,79.2074 Z " fill="#000000"/><text fill="#2E2E2E" font-family="&quot;Segoe Print&quot;" font-size="14.5833" lengthAdjust="spacing" textLength="135.4167" x="583.8542" y="81.9611">SuppressWarnings</text><path d="M551.5625,95.8171 L551.5625,96.109 L561.8566,95.2416 L572.1507,96.0855 L582.4449,96.3722 L592.739,94.8262 L603.0331,95.7091 L613.3272,95.2247 L623.6213,95.2844 L633.9154,95.7224 L644.2096,94.8568 L654.5037,96.586 L664.7978,94.9417 L675.0919,95.5424 L685.386,96.417 L695.6801,95.6979 L705.9743,95.9118 L716.2684,95.7727 L726.5625,95.8171 " style="stroke:#2E2E2E;stroke-width:1.0416666666666667;fill:none;"/><path d="M551.5625,104.1504 L551.5625,104.4423 L561.8566,103.5749 L572.1507,104.4188 L582.4449,104.7055 L592.739,103.1596 L603.0331,104.0425 L613.3272,103.558 L623.6213,103.6178 L633.9154,104.0557 L644.2096,103.1902 L654.5037,104.9193 L664.7978,103.275 L675.0919,103.8757 L685.386,104.7503 L695.6801,104.0313 L705.9743,104.2452 L716.2684,104.106 L726.5625,104.1504 " style="stroke:#2E2E2E;stroke-width:1.0416666666666667;fill:none;"/><!--MD5=[faebc81c07309c527f2fda51bf6b78ab]
class Annotation--><polygon points="368.2292,203.3203,368.2292,203.5393,378.6458,202.8887,389.0625,203.5217,399.4792,203.7366,409.8958,202.5772,420.3125,203.2394,430.7292,202.876,441.1458,202.9208,451.5625,203.2493,461.9792,202.6001,472.3958,203.897,482.8125,202.6638,493.2292,203.1143,503.6458,203.7703,514.0625,203.231,524.4792,203.3914,534.8958,203.287,545.3125,203.5063,555.7292,203.5694,566.1458,203.3203,566.2237,203.5082,566.8243,203.7797,567.4146,204.0264,567.9474,204.1342,568.5645,204.4453,569.0921,204.5407,569.3174,204.634,569.1048,205.0341,569.7979,205.8094,569.7292,206.2691,570.2397,206.9687,570.3125,207.487,569.7969,207.487,570.2411,218.1803,571.085,228.8737,570.2617,239.5671,570.4222,250.2604,570.6652,260.9538,570.7461,271.6471,570.3084,282.3405,570.6117,293.0339,569.7162,303.7272,570.6087,314.4206,570.8835,325.1139,570.3125,335.8073,570.4551,335.8664,570.2651,336.478,569.6694,336.9216,569.3711,337.4884,569.1368,338.0817,569.0921,338.7536,569.0843,338.7347,568.4767,338.9346,568.0041,339.4603,567.3011,339.4298,566.6895,339.6198,566.1458,339.974,566.1458,340.2117,555.7292,339.2793,545.3125,339.4332,534.8958,340.6499,524.4792,340.4278,514.0625,340.7391,503.6458,339.6388,493.2292,340.3065,482.8125,340.589,472.3958,339.4819,461.9792,339.8741,451.5625,340.1052,441.1458,340.6529,430.7292,339.9696,420.3125,340.4558,409.8958,339.3971,399.4792,339.2685,389.0625,340.4986,378.6458,339.2271,368.2292,339.974,368.2968,340.1372,367.6674,339.7962,367.0151,339.3999,366.4144,339.1282,365.9331,339.1448,365.2829,338.7536,365.1869,338.7138,365.2287,338.243,364.6174,337.5016,364.7487,337.0678,364.4619,336.4609,364.0625,335.8073,364.3177,335.8073,364.1117,325.1139,364.8194,314.4206,364.7016,303.7272,364.2388,293.0339,364.3419,282.3405,363.9268,271.6471,364.8088,260.9538,364.2238,250.2604,364.2423,239.5671,363.4288,228.8737,363.6404,218.1803,364.0625,207.487,364.2328,207.5575,364.4444,206.9548,364.5369,206.3028,364.6914,205.6764,364.9686,205.1009,365.2829,204.5407,365.1917,204.3206,365.9273,204.4297,366.5597,204.2898,367.1206,203.9773,367.7323,203.7873,368.2292,203.3203" style="stroke:#2E2E2E;stroke-width:1.0416666666666667;fill:none;"/><polygon points="429.2242,224.7587,427.6973,226.845,425.8913,229.9008,423.3084,231.9602,420.5941,233.0863,418.4299,233.184,415.6484,231.7756,413.0238,230.8555,411.0318,228.9874,409.9868,226.8488,409.3671,225.1459,408.76,222.9216,407.7746,221.0076,408.5318,219.1388,409.1953,217.0916,411.6849,215.4725,413.4365,213.3718,415.6045,212.6742,418.1819,212.0735,421.4871,212.4304,423.2974,213.2842,425.4022,213.6711,427.9613,216.2931,428.8535,219.0611,429.2411,220.9497,428.802,224.0619" style="stroke:#1592A6;stroke-width:1.0416666666666667;fill:none;"/><path d="M420.0033,222.0296 Q420.0033,221.3298 419.694,220.9391 Q419.3848,220.5485 418.8314,220.5485 Q418.2943,220.5485 417.985,220.9391 Q417.6758,221.3298 417.6758,222.0296 Q417.6758,222.7132 417.985,223.1038 Q418.2943,223.4945 418.8314,223.4945 Q419.3848,223.4945 419.694,223.1038 Q420.0033,222.7132 420.0033,222.0296 Z M421.1426,224.5199 L419.9382,224.5199 L419.9382,224.0316 Q419.7103,224.3408 419.3848,224.5036 Q419.0755,224.6501 418.6361,224.6501 Q417.6432,224.6501 417.0247,223.9339 Q416.4063,223.2015 416.4063,222.0296 Q416.4063,220.8415 417.0085,220.1253 Q417.627,219.4092 418.6361,219.4092 Q419.0755,219.4092 419.401,219.5557 Q419.7266,219.7021 419.9382,219.9951 L419.9382,219.751 Q419.9382,218.9209 419.4824,218.4652 Q419.0267,218.0094 418.1966,218.0094 Q416.9271,218.0094 416.1133,219.1325 Q415.3158,220.2393 415.3158,222.0296 Q415.3158,223.9014 416.2435,225.0244 Q417.1712,226.1312 418.7174,226.1312 Q419.2057,226.1312 419.6615,225.9847 Q420.1172,225.8382 420.5404,225.5452 L421.0938,226.6195 Q420.6055,226.9613 420.0195,227.124 Q419.4336,227.3031 418.7826,227.3031 Q416.6341,227.3031 415.3646,225.8708 Q414.0951,224.4548 414.0951,222.0296 Q414.0951,219.6696 415.2344,218.2536 Q416.39,216.8376 418.2617,216.8376 Q419.5964,216.8376 420.3613,217.6351 Q421.1426,218.4326 421.1426,219.8324 L421.1426,224.5199 Z " fill="#000000"/><text fill="#2E2E2E" font-family="&quot;Segoe Print&quot;" font-size="14.5833" lengthAdjust="spacing" textLength="78.125" x="443.75" y="227.2736">Annotation</text><path d="M365.1042,241.1296 L365.1042,241.4215 L375.3125,240.5541 L385.5208,241.398 L395.7292,241.6847 L405.9375,240.1387 L416.1458,241.0216 L426.3542,240.5372 L436.5625,240.5969 L446.7708,241.0349 L456.9792,240.1693 L467.1875,241.8985 L477.3958,240.2542 L487.6042,240.8549 L497.8125,241.7295 L508.0208,241.0104 L518.2292,241.2243 L528.4375,241.0852 L538.6458,241.3775 L548.8542,241.4617 L559.0625,241.943 L569.2708,241.1296 " style="stroke:#2E2E2E;stroke-width:1.0416666666666667;fill:none;"/><text fill="#2E2E2E" font-family="&quot;Segoe Print&quot;" font-size="14.5833" lengthAdjust="spacing" textLength="183.3333" x="375.5208" y="264.0411">annotation with members</text><path d="M365.1042,276.8555 L365.1042,277.1474 L375.3125,276.28 L385.5208,277.1239 L395.7292,277.4106 L405.9375,275.8646 L416.1458,276.7475 L426.3542,276.2631 L436.5625,276.3228 L446.7708,276.7608 L456.9792,275.8952 L467.1875,277.6244 L477.3958,275.9801 L487.6042,276.5808 L497.8125,277.4554 L508.0208,276.7363 L518.2292,276.9502 L528.4375,276.8111 L538.6458,277.1034 L548.8542,277.1876 L559.0625,277.6689 L569.2708,276.8555 " style="stroke:#2E2E2E;stroke-width:1.0416666666666667;fill:none;"/><text fill="#2E2E2E" font-family="&quot;Segoe Print&quot;" font-size="14.5833" lengthAdjust="spacing" textLength="79.1667" x="375.5208" y="299.767">String foo()</text><text fill="#2E2E2E" font-family="&quot;Segoe Print&quot;" font-size="14.5833" lengthAdjust="spacing" textLength="79.1667" x="375.5208" y="327.1596">String bar()</text><path d="M254.255,112.5493 L254.5423,112.6012 L255.5229,122.5922 L258.1876,132.8876 L260.3038,143.0839 L260.6167,152.9542 L263.3197,163.2566 L264.6772,173.3157 L266.5701,183.4716 L268.8353,193.6949 L269.8177,203.6862 L273.3535,214.1391 L273.5696,223.9919 L275.9949,234.2441 L278.0994,244.4382 " fill="none" style="stroke:#333333;stroke-width:3.125;"/><polygon points="254.255,112.5493,254.3268,112.5623,253.4764,116.0261,253.047,119.5663,252.4804,123.0817,251.4632,126.5151,251.0698,130.062,251.065,130.0354,253.5036,129.4715,255.9664,129.0414,258.446,128.7044,260.8676,128.0467,263.3704,127.8381,263.5355,127.9366,261.3594,124.6683,259.6653,121.6874,258.03,118.7416,256.0525,115.5918,254.255,112.5493" style="stroke:#333333;stroke-width:1.0416666666666667;fill:none;"/><path d="M113.4625,112.5493 L113.7538,112.5674 L112.2576,122.6589 L112.4694,132.8565 L112.125,143.0196 L109.9516,153.069 L110.2022,163.2691 L109.0883,173.3844 L108.5174,183.5334 L108.324,193.7058 L106.8296,203.7975 L107.9249,214.05 L105.6533,224.0933 L105.6223,234.2759 L105.266,244.4382 " fill="none" style="stroke:#333333;stroke-width:3.125;"/><polygon points="113.4625,112.5493,113.5291,112.5791,111.8768,115.7399,110.615,119.0754,109.2261,122.3541,107.419,125.4456,106.1907,128.7962,106.189,128.7692,108.6767,128.8034,111.1728,128.9734,113.6748,129.2377,116.1566,129.1768,118.6666,129.5715,118.8505,129.6277,117.4165,126.1031,116.5193,122.7425,115.6876,119.402,114.4748,115.945,113.4625,112.5493" style="stroke:#333333;stroke-width:1.0416666666666667;fill:none;"/><path d="M171.7018,85.0911 L171.7018,85.1885 L180.6264,84.8993 L189.551,85.1806 L198.4756,85.2762 L207.4002,84.7609 L216.3248,85.0911 " fill="none" style="stroke:#333333;stroke-width:3.125;"/><polygon points="171.7018,85.0911,171.7274,85.1595,174.9846,86.2064,178.392,87.654,181.7505,88.9711,184.9482,89.8592,188.3685,91.3411,188.3415,91.3411,188.2204,88.8411,188.2353,86.3411,188.3448,83.8411,188.1284,81.3411,188.3685,78.8411,188.436,79.0211,184.9583,79.8862,181.6777,81.2768,178.4211,82.7316,175.0247,83.8133,171.7018,85.0911" style="stroke:#333333;stroke-width:1.0416666666666667;fill:none;"/><path d="M189.818,271.5495 L189.818,271.6468 L195.8789,271.3577 L201.9397,271.639 L208.0005,271.7345 L214.0613,271.2192 L220.1222,271.5495 " fill="none" style="stroke:#333333;stroke-width:3.125;"/><polygon points="189.818,271.5495,189.8437,271.6178,193.1009,272.6648,196.5083,274.1123,199.8668,275.4294,203.0644,276.3175,206.4847,277.7995,206.4577,277.7995,206.3366,275.2995,206.3515,272.7995,206.461,270.2995,206.2446,267.7995,206.4847,265.2995,206.5522,265.4795,203.0745,266.3446,199.7939,267.7352,196.5374,269.1899,193.1409,270.2716,189.818,271.5495" style="stroke:#333333;stroke-width:1.0416666666666667;fill:none;"/><path d="M282.8125,298.9095 L283.1044,298.9095 L282.2371,308.974 L283.081,319.0385 L283.3676,329.103 L281.8217,339.1675 L282.7046,349.2319 L282.2201,359.2964 L282.2799,369.3609 L282.7178,379.4254 L282.8125,389.4899 " fill="none" style="stroke:#333333;stroke-width:3.125;"/><polygon points="282.8125,298.9095,282.8808,298.9351,281.4278,302.1923,280.3753,305.5997,279.1924,308.9582,277.5806,312.1558,276.5625,315.5761,276.5625,315.5492,279.0625,315.428,281.5625,315.443,284.0625,315.5525,286.5625,315.3361,289.0625,315.5761,289.2425,315.6436,287.6076,312.166,286.4982,308.8854,285.4529,305.6288,284.0346,302.2323,282.8125,298.9095" style="stroke:#333333;stroke-width:1.0416666666666667;fill:none;"/></g></svg>