<?xml version="1.0" encoding="UTF-8" standalone="no"?><svg xmlns="http://www.w3.org/2000/svg" xmlns:xlink="http://www.w3.org/1999/xlink" contentStyleType="text/css" height="467.7083px" preserveAspectRatio="none" style="width:575px;height:467px;" version="1.1" viewBox="0 0 575 467" width="575px" zoomAndPan="magnify"><defs><filter height="300%" id="f19hig2uomy9no" width="300%" x="-1" y="-1"><feGaussianBlur result="blurOut" stdDeviation="2.0833333333333335"/><feColorMatrix in="blurOut" result="blurOut2" type="matrix" values="0 0 0 0 0 0 0 0 0 0 0 0 0 0 0 0 0 0 .4 0"/><feOffset dx="4.166666666666667" dy="4.166666666666667" in="blurOut2" result="blurOut3"/><feBlend in="SourceGraphic" in2="blurOut3" mode="normal"/></filter><linearGradient id="g19hig2uomy9no0" x1="50%" x2="50%" y1="0%" y2="100%"><stop offset="0%" stop-color="#2196F3"/><stop offset="100%" stop-color="#1A78C2"/></linearGradient></defs><g><!--class abstract--><g id="elem_abstract"><rect codeLine="6" fill="none" filter="url(#f19hig2uomy9no)" height="61.2549" id="abstract" rx="4.1667" ry="4.1667" style="stroke:#2196F3;stroke-width:1.0416666666666667;" width="100" x="24.4792" y="24.1028"/><rect fill="url(#g19hig2uomy9no0)" height="44.5882" rx="4.1667" ry="4.1667" style="stroke:url(#g19hig2uomy9no0);stroke-width:1.0416666666666667;" width="100" x="24.4792" y="24.1028"/><rect fill="url(#g19hig2uomy9no0)" height="4.1667" style="stroke:url(#g19hig2uomy9no0);stroke-width:1.0416666666666667;" width="100" x="24.4792" y="64.5243"/><rect codeLine="6" fill="none" height="61.2549" id="abstract" rx="4.1667" ry="4.1667" style="stroke:#2196F3;stroke-width:1.0416666666666667;" width="100" x="24.4792" y="24.1028"/><ellipse cx="39.0625" cy="46.3969" fill="none" rx="10.4167" ry="10.4167" style="stroke:#1A78C2;stroke-width:1.0416666666666667;"/><path d="M38.6556,43.3533 L37.8092,47.0805 L39.5182,47.0805 L38.6556,43.3533 Z M37.5651,41.7094 L39.7624,41.7094 L42.2201,50.824 L40.4134,50.824 L39.86,48.5779 L37.4512,48.5779 L36.8978,50.824 L35.0911,50.824 L37.5651,41.7094 Z " fill="#2196F3"/><text fill="#222222" font-family="Verdana" font-size="11.4583" font-style="italic" lengthAdjust="spacing" textLength="47.9167" x="63.0208" y="50.3637">abstract</text><line style="stroke:#2196F3;stroke-width:1.0416666666666667;" x1="25.5208" x2="123.4375" y1="68.691" y2="68.691"/><line style="stroke:#2196F3;stroke-width:1.0416666666666667;" x1="25.5208" x2="123.4375" y1="77.0243" y2="77.0243"/></g><!--class abstract class--><g id="elem_abstract class"><rect codeLine="7" fill="none" filter="url(#f19hig2uomy9no)" height="61.2549" id="abstract class" rx="4.1667" ry="4.1667" style="stroke:#2196F3;stroke-width:1.0416666666666667;" width="133.3333" x="166.1458" y="24.1028"/><rect fill="url(#g19hig2uomy9no0)" height="44.5882" rx="4.1667" ry="4.1667" style="stroke:url(#g19hig2uomy9no0);stroke-width:1.0416666666666667;" width="133.3333" x="166.1458" y="24.1028"/><rect fill="url(#g19hig2uomy9no0)" height="4.1667" style="stroke:url(#g19hig2uomy9no0);stroke-width:1.0416666666666667;" width="133.3333" x="166.1458" y="64.5243"/><rect codeLine="7" fill="none" height="61.2549" id="abstract class" rx="4.1667" ry="4.1667" style="stroke:#2196F3;stroke-width:1.0416666666666667;" width="133.3333" x="166.1458" y="24.1028"/><ellipse cx="180.7292" cy="46.3969" fill="none" rx="10.4167" ry="10.4167" style="stroke:#1A78C2;stroke-width:1.0416666666666667;"/><path d="M180.3223,43.3533 L179.4759,47.0805 L181.1849,47.0805 L180.3223,43.3533 Z M179.2318,41.7094 L181.429,41.7094 L183.8867,50.824 L182.0801,50.824 L181.5267,48.5779 L179.1178,48.5779 L178.5645,50.824 L176.7578,50.824 L179.2318,41.7094 Z " fill="#2196F3"/><text fill="#222222" font-family="Verdana" font-size="11.4583" font-style="italic" lengthAdjust="spacing" textLength="81.25" x="204.6875" y="50.3637">abstract class</text><line style="stroke:#2196F3;stroke-width:1.0416666666666667;" x1="167.1875" x2="298.4375" y1="68.691" y2="68.691"/><line style="stroke:#2196F3;stroke-width:1.0416666666666667;" x1="167.1875" x2="298.4375" y1="77.0243" y2="77.0243"/></g><!--class annotation--><g id="elem_annotation"><rect codeLine="8" fill="none" filter="url(#f19hig2uomy9no)" height="61.2549" id="annotation" rx="4.1667" ry="4.1667" style="stroke:#2196F3;stroke-width:1.0416666666666667;" width="114.5833" x="341.1458" y="24.1028"/><rect fill="url(#g19hig2uomy9no0)" height="44.5882" rx="4.1667" ry="4.1667" style="stroke:url(#g19hig2uomy9no0);stroke-width:1.0416666666666667;" width="114.5833" x="341.1458" y="24.1028"/><rect fill="url(#g19hig2uomy9no0)" height="4.1667" style="stroke:url(#g19hig2uomy9no0);stroke-width:1.0416666666666667;" width="114.5833" x="341.1458" y="64.5243"/><rect codeLine="8" fill="none" height="61.2549" id="annotation" rx="4.1667" ry="4.1667" style="stroke:#2196F3;stroke-width:1.0416666666666667;" width="114.5833" x="341.1458" y="24.1028"/><ellipse cx="355.7292" cy="46.3969" fill="none" rx="10.4167" ry="10.4167" style="stroke:#1A78C2;stroke-width:1.0416666666666667;"/><path d="M356.9824,46.2016 Q356.9824,45.5017 356.6732,45.1111 Q356.3639,44.7205 355.8105,44.7205 Q355.2734,44.7205 354.9642,45.1111 Q354.6549,45.5017 354.6549,46.2016 Q354.6549,46.8852 354.9642,47.2758 Q355.2734,47.6664 355.8105,47.6664 Q356.3639,47.6664 356.6732,47.2758 Q356.9824,46.8852 356.9824,46.2016 Z M358.1217,48.6918 L356.9173,48.6918 L356.9173,48.2035 Q356.6895,48.5128 356.3639,48.6755 Q356.0547,48.822 355.6152,48.822 Q354.6224,48.822 354.0039,48.1059 Q353.3854,47.3735 353.3854,46.2016 Q353.3854,45.0134 353.9876,44.2973 Q354.6061,43.5811 355.6152,43.5811 Q356.0547,43.5811 356.3802,43.7276 Q356.7057,43.8741 356.9173,44.1671 L356.9173,43.9229 Q356.9173,43.0929 356.4616,42.6371 Q356.0059,42.1814 355.1758,42.1814 Q353.9063,42.1814 353.0924,43.3044 Q352.2949,44.4112 352.2949,46.2016 Q352.2949,48.0733 353.2227,49.1964 Q354.1504,50.3031 355.6966,50.3031 Q356.1849,50.3031 356.6406,50.1567 Q357.0964,50.0102 357.5195,49.7172 L358.0729,50.7914 Q357.5846,51.1332 356.9987,51.296 Q356.4128,51.475 355.7617,51.475 Q353.6133,51.475 352.3438,50.0427 Q351.0742,48.6267 351.0742,46.2016 Q351.0742,43.8416 352.2135,42.4255 Q353.3691,41.0095 355.2409,41.0095 Q356.5755,41.0095 357.3405,41.807 Q358.1217,42.6046 358.1217,44.0043 L358.1217,48.6918 Z " fill="#2196F3"/><text fill="#222222" font-family="Verdana" font-size="11.4583" lengthAdjust="spacing" textLength="62.5" x="379.6875" y="50.3637">annotation</text><line style="stroke:#2196F3;stroke-width:1.0416666666666667;" x1="342.1875" x2="454.6875" y1="68.691" y2="68.691"/><line style="stroke:#2196F3;stroke-width:1.0416666666666667;" x1="342.1875" x2="454.6875" y1="77.0243" y2="77.0243"/></g><!--entity circle--><g id="elem_circle"><ellipse cx="506.7708" cy="51.7069" fill="none" filter="url(#f19hig2uomy9no)" rx="8.3333" ry="8.3333" style="stroke:#E51C23;stroke-width:1.0416666666666667;"/><text fill="#222222" font-family="Verdana" font-size="12.5" lengthAdjust="spacing" textLength="34.375" x="489.5833" y="91.4347">circle</text></g><!--entity circle_short_form--><g id="elem_circle_short_form"><ellipse cx="74.4792" cy="173.5819" fill="none" filter="url(#f19hig2uomy9no)" rx="8.3333" ry="8.3333" style="stroke:#E51C23;stroke-width:1.0416666666666667;"/><text fill="#222222" font-family="Verdana" font-size="12.5" lengthAdjust="spacing" textLength="110.4167" x="19.2708" y="213.3097">circle_short_form</text></g><!--class class--><g id="elem_class"><rect codeLine="11" fill="none" filter="url(#f19hig2uomy9no)" height="61.2549" id="class" rx="4.1667" ry="4.1667" style="stroke:#2196F3;stroke-width:1.0416666666666667;" width="83.3333" x="125.5208" y="145.9778"/><rect fill="url(#g19hig2uomy9no0)" height="44.5882" rx="4.1667" ry="4.1667" style="stroke:url(#g19hig2uomy9no0);stroke-width:1.0416666666666667;" width="83.3333" x="125.5208" y="145.9778"/><rect fill="url(#g19hig2uomy9no0)" height="4.1667" style="stroke:url(#g19hig2uomy9no0);stroke-width:1.0416666666666667;" width="83.3333" x="125.5208" y="186.3993"/><rect codeLine="11" fill="none" height="61.2549" id="class" rx="4.1667" ry="4.1667" style="stroke:#2196F3;stroke-width:1.0416666666666667;" width="83.3333" x="125.5208" y="145.9778"/><ellipse cx="140.1042" cy="168.2719" fill="none" rx="10.4167" ry="10.4167" style="stroke:#1A78C2;stroke-width:1.0416666666666667;"/><path d="M142.0085,172.699 Q141.5853,172.9106 141.1133,173.0245 Q140.6413,173.1384 140.1367,173.1384 Q138.2813,173.1384 137.3047,171.934 Q136.3444,170.7133 136.3444,168.4184 Q136.3444,166.1072 137.3047,164.9028 Q138.2813,163.682 140.1367,163.682 Q140.6413,163.682 141.1133,163.796 Q141.6016,163.8936 142.0085,164.1215 L142.0085,166.1235 Q141.5527,165.7003 141.1133,165.505 Q140.6738,165.2934 140.2181,165.2934 Q139.2253,165.2934 138.7207,166.0909 Q138.2161,166.8722 138.2161,168.4184 Q138.2161,169.9483 138.7207,170.7296 Q139.2253,171.5108 140.2181,171.5108 Q140.6738,171.5108 141.1133,171.3155 Q141.5527,171.1202 142.0085,170.697 L142.0085,172.699 Z " fill="#2196F3"/><text fill="#222222" font-family="Verdana" font-size="11.4583" lengthAdjust="spacing" textLength="31.25" x="164.0625" y="172.2387">class</text><line style="stroke:#2196F3;stroke-width:1.0416666666666667;" x1="126.5625" x2="207.8125" y1="190.566" y2="190.566"/><line style="stroke:#2196F3;stroke-width:1.0416666666666667;" x1="126.5625" x2="207.8125" y1="198.8993" y2="198.8993"/></g><g id="elem_diamond"><polygon fill="none" filter="url(#f19hig2uomy9no)" points="263.0208,164.2069,275.5208,176.7069,263.0208,189.2069,250.5208,176.7069,263.0208,164.2069" style="stroke:#CCCCCC;stroke-width:1.0416666666666667;"/></g><polygon fill="none" filter="url(#f19hig2uomy9no)" points="329.6875,164.2069,342.1875,176.7069,329.6875,189.2069,317.1875,176.7069,329.6875,164.2069" style="stroke:#CCCCCC;stroke-width:1.0416666666666667;"/><!--class entity--><g id="elem_entity"><rect codeLine="14" fill="none" filter="url(#f19hig2uomy9no)" height="61.2549" id="entity" rx="4.1667" ry="4.1667" style="stroke:#2196F3;stroke-width:1.0416666666666667;" width="84.375" x="32.2917" y="267.8528"/><rect fill="url(#g19hig2uomy9no0)" height="44.5882" rx="4.1667" ry="4.1667" style="stroke:url(#g19hig2uomy9no0);stroke-width:1.0416666666666667;" width="84.375" x="32.2917" y="267.8528"/><rect fill="url(#g19hig2uomy9no0)" height="4.1667" style="stroke:url(#g19hig2uomy9no0);stroke-width:1.0416666666666667;" width="84.375" x="32.2917" y="308.2743"/><rect codeLine="14" fill="none" height="61.2549" id="entity" rx="4.1667" ry="4.1667" style="stroke:#2196F3;stroke-width:1.0416666666666667;" width="84.375" x="32.2917" y="267.8528"/><ellipse cx="46.875" cy="290.1469" fill="none" rx="10.4167" ry="10.4167" style="stroke:#1A78C2;stroke-width:1.0416666666666667;"/><path d="M49.4141,294.8344 L43.7337,294.8344 L43.7337,285.7198 L49.4141,285.7198 L49.4141,287.3149 L45.5404,287.3149 L45.5404,289.268 L49.0397,289.268 L49.0397,290.863 L45.5404,290.863 L45.5404,293.2393 L49.4141,293.2393 L49.4141,294.8344 Z " fill="#2196F3"/><text fill="#222222" font-family="Verdana" font-size="11.4583" lengthAdjust="spacing" textLength="32.2917" x="70.8333" y="294.1137">entity</text><line style="stroke:#2196F3;stroke-width:1.0416666666666667;" x1="33.3333" x2="115.625" y1="312.441" y2="312.441"/><line style="stroke:#2196F3;stroke-width:1.0416666666666667;" x1="33.3333" x2="115.625" y1="320.7743" y2="320.7743"/></g><!--class enum--><g id="elem_enum"><rect codeLine="15" fill="none" filter="url(#f19hig2uomy9no)" height="61.2549" id="enum" rx="4.1667" ry="4.1667" style="stroke:#2196F3;stroke-width:1.0416666666666667;" width="85.4167" x="157.8125" y="267.8528"/><rect fill="url(#g19hig2uomy9no0)" height="44.5882" rx="4.1667" ry="4.1667" style="stroke:url(#g19hig2uomy9no0);stroke-width:1.0416666666666667;" width="85.4167" x="157.8125" y="267.8528"/><rect fill="url(#g19hig2uomy9no0)" height="4.1667" style="stroke:url(#g19hig2uomy9no0);stroke-width:1.0416666666666667;" width="85.4167" x="157.8125" y="308.2743"/><rect codeLine="15" fill="none" height="61.2549" id="enum" rx="4.1667" ry="4.1667" style="stroke:#2196F3;stroke-width:1.0416666666666667;" width="85.4167" x="157.8125" y="267.8528"/><ellipse cx="172.3958" cy="290.1469" fill="none" rx="10.4167" ry="10.4167" style="stroke:#1A78C2;stroke-width:1.0416666666666667;"/><path d="M174.9349,294.8344 L169.2546,294.8344 L169.2546,285.7198 L174.9349,285.7198 L174.9349,287.3149 L171.0612,287.3149 L171.0612,289.268 L174.5605,289.268 L174.5605,290.863 L171.0612,290.863 L171.0612,293.2393 L174.9349,293.2393 L174.9349,294.8344 Z " fill="#2196F3"/><text fill="#222222" font-family="Verdana" font-size="11.4583" lengthAdjust="spacing" textLength="33.3333" x="196.3542" y="294.1137">enum</text><line style="stroke:#2196F3;stroke-width:1.0416666666666667;" x1="158.8542" x2="242.1875" y1="312.441" y2="312.441"/><line style="stroke:#2196F3;stroke-width:1.0416666666666667;" x1="158.8542" x2="242.1875" y1="320.7743" y2="320.7743"/></g><!--class exception--><g id="elem_exception"><rect codeLine="16" fill="none" filter="url(#f19hig2uomy9no)" height="61.2549" id="exception" rx="4.1667" ry="4.1667" style="stroke:#2196F3;stroke-width:1.0416666666666667;" width="108.3333" x="284.8958" y="267.8528"/><rect fill="url(#g19hig2uomy9no0)" height="44.5882" rx="4.1667" ry="4.1667" style="stroke:url(#g19hig2uomy9no0);stroke-width:1.0416666666666667;" width="108.3333" x="284.8958" y="267.8528"/><rect fill="url(#g19hig2uomy9no0)" height="4.1667" style="stroke:url(#g19hig2uomy9no0);stroke-width:1.0416666666666667;" width="108.3333" x="284.8958" y="308.2743"/><rect codeLine="16" fill="none" height="61.2549" id="exception" rx="4.1667" ry="4.1667" style="stroke:#2196F3;stroke-width:1.0416666666666667;" width="108.3333" x="284.8958" y="267.8528"/><ellipse cx="299.4792" cy="290.1469" fill="none" rx="10.4167" ry="10.4167" style="stroke:#1A78C2;stroke-width:1.0416666666666667;"/><path d="M302.6693,294.8344 L300.8138,294.8344 L299.0723,291.8233 L297.347,294.8344 L295.4753,294.8344 L298.1445,290.212 L295.5566,285.7198 L297.4121,285.7198 L299.0723,288.6169 L300.7324,285.7198 L302.6042,285.7198 L300.0163,290.212 L302.6693,294.8344 Z " fill="#2196F3"/><text fill="#222222" font-family="Verdana" font-size="11.4583" lengthAdjust="spacing" textLength="56.25" x="323.4375" y="294.1137">exception</text><line style="stroke:#2196F3;stroke-width:1.0416666666666667;" x1="285.9375" x2="392.1875" y1="312.441" y2="312.441"/><line style="stroke:#2196F3;stroke-width:1.0416666666666667;" x1="285.9375" x2="392.1875" y1="320.7743" y2="320.7743"/></g><!--class interface--><g id="elem_interface"><rect codeLine="17" fill="none" filter="url(#f19hig2uomy9no)" height="61.2549" id="interface" rx="4.1667" ry="4.1667" style="stroke:#2196F3;stroke-width:1.0416666666666667;" width="104.1667" x="434.8958" y="267.8528"/><rect fill="url(#g19hig2uomy9no0)" height="44.5882" rx="4.1667" ry="4.1667" style="stroke:url(#g19hig2uomy9no0);stroke-width:1.0416666666666667;" width="104.1667" x="434.8958" y="267.8528"/><rect fill="url(#g19hig2uomy9no0)" height="4.1667" style="stroke:url(#g19hig2uomy9no0);stroke-width:1.0416666666666667;" width="104.1667" x="434.8958" y="308.2743"/><rect codeLine="17" fill="none" height="61.2549" id="interface" rx="4.1667" ry="4.1667" style="stroke:#2196F3;stroke-width:1.0416666666666667;" width="104.1667" x="434.8958" y="267.8528"/><ellipse cx="449.4792" cy="290.1469" fill="none" rx="10.4167" ry="10.4167" style="stroke:#1A78C2;stroke-width:1.0416666666666667;"/><path d="M446.3704,287.3149 L446.3704,285.7198 L451.7904,285.7198 L451.7904,287.3149 L449.9837,287.3149 L449.9837,293.2393 L451.7904,293.2393 L451.7904,294.8344 L446.3704,294.8344 L446.3704,293.2393 L448.1771,293.2393 L448.1771,287.3149 L446.3704,287.3149 Z " fill="#2196F3"/><text fill="#222222" font-family="Verdana" font-size="11.4583" font-style="italic" lengthAdjust="spacing" textLength="52.0833" x="473.4375" y="294.1137">interface</text><line style="stroke:#2196F3;stroke-width:1.0416666666666667;" x1="435.9375" x2="538.0208" y1="312.441" y2="312.441"/><line style="stroke:#2196F3;stroke-width:1.0416666666666667;" x1="435.9375" x2="538.0208" y1="320.7743" y2="320.7743"/></g><!--class metaclass--><g id="elem_metaclass"><rect codeLine="18" fill="none" filter="url(#f19hig2uomy9no)" height="61.2549" id="metaclass" rx="4.1667" ry="4.1667" style="stroke:#2196F3;stroke-width:1.0416666666666667;" width="113.5417" x="17.7083" y="389.7278"/><rect fill="url(#g19hig2uomy9no0)" height="44.5882" rx="4.1667" ry="4.1667" style="stroke:url(#g19hig2uomy9no0);stroke-width:1.0416666666666667;" width="113.5417" x="17.7083" y="389.7278"/><rect fill="url(#g19hig2uomy9no0)" height="4.1667" style="stroke:url(#g19hig2uomy9no0);stroke-width:1.0416666666666667;" width="113.5417" x="17.7083" y="430.1493"/><rect codeLine="18" fill="none" height="61.2549" id="metaclass" rx="4.1667" ry="4.1667" style="stroke:#2196F3;stroke-width:1.0416666666666667;" width="113.5417" x="17.7083" y="389.7278"/><ellipse cx="32.2917" cy="412.0219" fill="none" rx="10.4167" ry="10.4167" style="stroke:#1A78C2;stroke-width:1.0416666666666667;"/><path d="M28.6458,407.5948 L30.7943,407.5948 L31.8848,411.5987 L32.959,407.5948 L35.1237,407.5948 L35.1237,416.7094 L33.5775,416.7094 L33.5775,409.4014 L32.6172,413.3891 L31.1849,413.3891 L30.2083,409.4014 L30.2083,416.7094 L28.6458,416.7094 L28.6458,407.5948 Z " fill="#2196F3"/><text fill="#222222" font-family="Verdana" font-size="11.4583" lengthAdjust="spacing" textLength="61.4583" x="56.25" y="415.9887">metaclass</text><line style="stroke:#2196F3;stroke-width:1.0416666666666667;" x1="18.75" x2="130.2083" y1="434.316" y2="434.316"/><line style="stroke:#2196F3;stroke-width:1.0416666666666667;" x1="18.75" x2="130.2083" y1="442.6493" y2="442.6493"/></g><!--class protocol--><g id="elem_protocol"><rect codeLine="19" fill="none" filter="url(#f19hig2uomy9no)" height="61.2549" id="protocol" rx="4.1667" ry="4.1667" style="stroke:#2196F3;stroke-width:1.0416666666666667;" width="100" x="172.3958" y="389.7278"/><rect fill="url(#g19hig2uomy9no0)" height="44.5882" rx="4.1667" ry="4.1667" style="stroke:url(#g19hig2uomy9no0);stroke-width:1.0416666666666667;" width="100" x="172.3958" y="389.7278"/><rect fill="url(#g19hig2uomy9no0)" height="4.1667" style="stroke:url(#g19hig2uomy9no0);stroke-width:1.0416666666666667;" width="100" x="172.3958" y="430.1493"/><rect codeLine="19" fill="none" height="61.2549" id="protocol" rx="4.1667" ry="4.1667" style="stroke:#2196F3;stroke-width:1.0416666666666667;" width="100" x="172.3958" y="389.7278"/><ellipse cx="186.9792" cy="412.0219" fill="none" rx="10.4167" ry="10.4167" style="stroke:#1A78C2;stroke-width:1.0416666666666667;"/><path d="M186.1165,409.1085 L186.1165,411.7778 L186.8652,411.7778 Q187.7441,411.7778 188.1022,411.4848 Q188.4603,411.1918 188.4603,410.4431 Q188.4603,409.7107 188.1022,409.4177 Q187.7441,409.1085 186.8652,409.1085 L186.1165,409.1085 Z M184.3262,407.5948 L186.8001,407.5948 Q188.6882,407.5948 189.502,408.2784 Q190.332,408.9457 190.332,410.4431 Q190.332,411.9568 189.502,412.6241 Q188.6882,413.2914 186.8001,413.2914 L186.1165,413.2914 L186.1165,416.7094 L184.3262,416.7094 L184.3262,407.5948 Z " fill="#2196F3"/><text fill="#222222" font-family="Verdana" font-size="11.4583" lengthAdjust="spacing" textLength="47.9167" x="210.9375" y="415.9887">protocol</text><line style="stroke:#2196F3;stroke-width:1.0416666666666667;" x1="173.4375" x2="271.3542" y1="434.316" y2="434.316"/><line style="stroke:#2196F3;stroke-width:1.0416666666666667;" x1="173.4375" x2="271.3542" y1="442.6493" y2="442.6493"/></g><!--class stereotype--><g id="elem_stereotype"><rect codeLine="20" fill="none" filter="url(#f19hig2uomy9no)" height="61.2549" id="stereotype" rx="4.1667" ry="4.1667" style="stroke:#2196F3;stroke-width:1.0416666666666667;" width="115.625" x="313.5417" y="389.7278"/><rect fill="url(#g19hig2uomy9no0)" height="44.5882" rx="4.1667" ry="4.1667" style="stroke:url(#g19hig2uomy9no0);stroke-width:1.0416666666666667;" width="115.625" x="313.5417" y="389.7278"/><rect fill="url(#g19hig2uomy9no0)" height="4.1667" style="stroke:url(#g19hig2uomy9no0);stroke-width:1.0416666666666667;" width="115.625" x="313.5417" y="430.1493"/><rect codeLine="20" fill="none" height="61.2549" id="stereotype" rx="4.1667" ry="4.1667" style="stroke:#2196F3;stroke-width:1.0416666666666667;" width="115.625" x="313.5417" y="389.7278"/><ellipse cx="328.125" cy="412.0219" fill="none" rx="10.4167" ry="10.4167" style="stroke:#1A78C2;stroke-width:1.0416666666666667;"/><path d="M327.0671,412.7055 Q325.7161,412.1847 325.2279,411.615 Q324.7396,411.0453 324.7396,410.085 Q324.7396,408.8481 325.5371,408.1482 Q326.3346,407.432 327.7181,407.432 Q328.3529,407.432 328.9714,407.5785 Q329.6061,407.725 330.2246,408.0017 L330.2246,409.7595 Q329.6387,409.3526 329.0365,409.141 Q328.4505,408.9132 327.8646,408.9132 Q327.2135,408.9132 326.8555,409.1899 Q326.5137,409.4503 326.5137,409.9386 Q326.5137,410.3129 326.7578,410.557 Q327.0182,410.8012 327.8158,411.1104 L328.597,411.4034 Q329.7038,411.794 330.2083,412.4613 Q330.7292,413.1287 330.7292,414.1378 Q330.7292,415.5212 329.9154,416.2048 Q329.1016,416.8884 327.4577,416.8884 Q326.7741,416.8884 326.0905,416.7257 Q325.4232,416.5629 324.7884,416.2374 L324.7884,414.3819 Q325.5046,414.9028 326.1719,415.1469 Q326.8555,415.391 327.5065,415.391 Q328.1738,415.391 328.5319,415.0981 Q328.9063,414.7888 328.9063,414.2517 Q328.9063,413.8448 328.6621,413.5356 Q328.418,413.2263 327.9622,413.0473 L327.0671,412.7055 Z " fill="#2196F3"/><text fill="#222222" font-family="Verdana" font-size="11.4583" lengthAdjust="spacing" textLength="63.5417" x="352.0833" y="415.9887">stereotype</text><line style="stroke:#2196F3;stroke-width:1.0416666666666667;" x1="314.5833" x2="428.125" y1="434.316" y2="434.316"/><line style="stroke:#2196F3;stroke-width:1.0416666666666667;" x1="314.5833" x2="428.125" y1="442.6493" y2="442.6493"/></g><!--class struct--><g id="elem_struct"><rect codeLine="21" fill="none" filter="url(#f19hig2uomy9no)" height="61.2549" id="struct" rx="4.1667" ry="4.1667" style="stroke:#2196F3;stroke-width:1.0416666666666667;" width="86.4583" x="470.8333" y="389.7278"/><rect fill="url(#g19hig2uomy9no0)" height="44.5882" rx="4.1667" ry="4.1667" style="stroke:url(#g19hig2uomy9no0);stroke-width:1.0416666666666667;" width="86.4583" x="470.8333" y="389.7278"/><rect fill="url(#g19hig2uomy9no0)" height="4.1667" style="stroke:url(#g19hig2uomy9no0);stroke-width:1.0416666666666667;" width="86.4583" x="470.8333" y="430.1493"/><rect codeLine="21" fill="none" height="61.2549" id="struct" rx="4.1667" ry="4.1667" style="stroke:#2196F3;stroke-width:1.0416666666666667;" width="86.4583" x="470.8333" y="389.7278"/><ellipse cx="485.4167" cy="412.0219" fill="none" rx="10.4167" ry="10.4167" style="stroke:#1A78C2;stroke-width:1.0416666666666667;"/><path d="M484.3587,412.7055 Q483.0078,412.1847 482.5195,411.615 Q482.0313,411.0453 482.0313,410.085 Q482.0313,408.8481 482.8288,408.1482 Q483.6263,407.432 485.0098,407.432 Q485.6445,407.432 486.263,407.5785 Q486.8978,407.725 487.5163,408.0017 L487.5163,409.7595 Q486.9303,409.3526 486.3281,409.141 Q485.7422,408.9132 485.1563,408.9132 Q484.5052,408.9132 484.1471,409.1899 Q483.8053,409.4503 483.8053,409.9386 Q483.8053,410.3129 484.0495,410.557 Q484.3099,410.8012 485.1074,411.1104 L485.8887,411.4034 Q486.9954,411.794 487.5,412.4613 Q488.0208,413.1287 488.0208,414.1378 Q488.0208,415.5212 487.207,416.2048 Q486.3932,416.8884 484.7493,416.8884 Q484.0658,416.8884 483.3822,416.7257 Q482.7148,416.5629 482.0801,416.2374 L482.0801,414.3819 Q482.7962,414.9028 483.4635,415.1469 Q484.1471,415.391 484.7982,415.391 Q485.4655,415.391 485.8236,415.0981 Q486.1979,414.7888 486.1979,414.2517 Q486.1979,413.8448 485.9538,413.5356 Q485.7096,413.2263 485.2539,413.0473 L484.3587,412.7055 Z " fill="#2196F3"/><text fill="#222222" font-family="Verdana" font-size="11.4583" lengthAdjust="spacing" textLength="34.375" x="509.375" y="415.9887">struct</text><line style="stroke:#2196F3;stroke-width:1.0416666666666667;" x1="471.875" x2="556.25" y1="434.316" y2="434.316"/><line style="stroke:#2196F3;stroke-width:1.0416666666666667;" x1="471.875" x2="556.25" y1="442.6493" y2="442.6493"/></g></g></svg>