<?xml version="1.0" encoding="UTF-8" standalone="no"?><svg xmlns="http://www.w3.org/2000/svg" xmlns:xlink="http://www.w3.org/1999/xlink" contentScriptType="application/ecmascript" contentStyleType="text/css" height="340.625px" preserveAspectRatio="none" style="width:533px;height:340px;background:#00000000;" version="1.1" viewBox="0 0 533 340" width="533.3333px" zoomAndPan="magnify"><defs><linearGradient id="g1tfhmce7lkg9s0" x1="50%" x2="50%" y1="0%" y2="100%"><stop offset="0%" stop-color="#F3F3F3"/><stop offset="100%" stop-color="#E2E2E2"/></linearGradient><linearGradient id="g1tfhmce7lkg9s1" x1="50%" x2="50%" y1="0%" y2="100%"><stop offset="0%" stop-color="#D2D2D2"/><stop offset="100%" stop-color="#A8A8A8"/></linearGradient></defs><g><!--MD5=[f7e826e1488aa6662a4b5ddfe29b6b3b]
class abstract--><rect codeLine="6" fill="url(#g1tfhmce7lkg9s0)" height="61.2549" id="abstract" rx="7.8125" ry="7.8125" style="stroke:#F3F3F3;stroke-width:1.0416666666666667;" width="100" x="21.875" y="24.1028"/><ellipse cx="36.4583" cy="46.3969" rx="10.4167" ry="10.4167" style="stroke:#888888;stroke-width:1.0416666666666667;fill:none;"/><path d="M36.0514,43.3533 L35.2051,47.0805 L36.9141,47.0805 L36.0514,43.3533 Z M34.9609,41.7094 L37.1582,41.7094 L39.6159,50.824 L37.8092,50.824 L37.2559,48.5779 L34.847,48.5779 L34.2936,50.824 L32.487,50.824 L34.9609,41.7094 Z " fill="#336699"/><text fill="#303030" font-family="&quot;Verdana&quot;" font-size="11.4583" font-style="italic" lengthAdjust="spacing" textLength="47.9167" x="60.4167" y="50.3637">abstract</text><line style="stroke:#F3F3F3;stroke-width:1.0416666666666667;" x1="22.9167" x2="120.8333" y1="68.691" y2="68.691"/><line style="stroke:#F3F3F3;stroke-width:1.0416666666666667;" x1="22.9167" x2="120.8333" y1="77.0243" y2="77.0243"/><!--MD5=[17df400e90568e28eeaed93acf178394]
class abstract class--><rect codeLine="7" fill="url(#g1tfhmce7lkg9s0)" height="61.2549" id="abstract class" rx="7.8125" ry="7.8125" style="stroke:#F3F3F3;stroke-width:1.0416666666666667;" width="133.3333" x="163.5417" y="24.1028"/><ellipse cx="178.125" cy="46.3969" rx="10.4167" ry="10.4167" style="stroke:#888888;stroke-width:1.0416666666666667;fill:none;"/><path d="M177.7181,43.3533 L176.8717,47.0805 L178.5807,47.0805 L177.7181,43.3533 Z M176.6276,41.7094 L178.8249,41.7094 L181.2826,50.824 L179.4759,50.824 L178.9225,48.5779 L176.5137,48.5779 L175.9603,50.824 L174.1536,50.824 L176.6276,41.7094 Z " fill="#336699"/><text fill="#303030" font-family="&quot;Verdana&quot;" font-size="11.4583" font-style="italic" lengthAdjust="spacing" textLength="81.25" x="202.0833" y="50.3637">abstract class</text><line style="stroke:#F3F3F3;stroke-width:1.0416666666666667;" x1="164.5833" x2="295.8333" y1="68.691" y2="68.691"/><line style="stroke:#F3F3F3;stroke-width:1.0416666666666667;" x1="164.5833" x2="295.8333" y1="77.0243" y2="77.0243"/><!--MD5=[7cb74e68c9f11cf3f5cc35e0143045f8]
class annotation--><rect codeLine="8" fill="url(#g1tfhmce7lkg9s0)" height="61.2549" id="annotation" rx="7.8125" ry="7.8125" style="stroke:#F3F3F3;stroke-width:1.0416666666666667;" width="114.5833" x="338.5417" y="24.1028"/><ellipse cx="353.125" cy="46.3969" rx="10.4167" ry="10.4167" style="stroke:#888888;stroke-width:1.0416666666666667;fill:none;"/><path d="M354.3783,46.2016 Q354.3783,45.5017 354.069,45.1111 Q353.7598,44.7205 353.2064,44.7205 Q352.6693,44.7205 352.36,45.1111 Q352.0508,45.5017 352.0508,46.2016 Q352.0508,46.8852 352.36,47.2758 Q352.6693,47.6664 353.2064,47.6664 Q353.7598,47.6664 354.069,47.2758 Q354.3783,46.8852 354.3783,46.2016 Z M355.5176,48.6918 L354.3132,48.6918 L354.3132,48.2035 Q354.0853,48.5128 353.7598,48.6755 Q353.4505,48.822 353.0111,48.822 Q352.0182,48.822 351.3997,48.1059 Q350.7813,47.3735 350.7813,46.2016 Q350.7813,45.0134 351.3835,44.2973 Q352.002,43.5811 353.0111,43.5811 Q353.4505,43.5811 353.776,43.7276 Q354.1016,43.8741 354.3132,44.1671 L354.3132,43.9229 Q354.3132,43.0929 353.8574,42.6371 Q353.4017,42.1814 352.5716,42.1814 Q351.3021,42.1814 350.4883,43.3044 Q349.6908,44.4112 349.6908,46.2016 Q349.6908,48.0733 350.6185,49.1964 Q351.5462,50.3031 353.0924,50.3031 Q353.5807,50.3031 354.0365,50.1567 Q354.4922,50.0102 354.9154,49.7172 L355.4688,50.7914 Q354.9805,51.1332 354.3945,51.296 Q353.8086,51.475 353.1576,51.475 Q351.0091,51.475 349.7396,50.0427 Q348.4701,48.6267 348.4701,46.2016 Q348.4701,43.8416 349.6094,42.4255 Q350.765,41.0095 352.6367,41.0095 Q353.9714,41.0095 354.7363,41.807 Q355.5176,42.6046 355.5176,44.0043 L355.5176,48.6918 Z " fill="#336699"/><text fill="#303030" font-family="&quot;Verdana&quot;" font-size="11.4583" lengthAdjust="spacing" textLength="62.5" x="377.0833" y="50.3637">annotation</text><line style="stroke:#F3F3F3;stroke-width:1.0416666666666667;" x1="339.5833" x2="452.0833" y1="68.691" y2="68.691"/><line style="stroke:#F3F3F3;stroke-width:1.0416666666666667;" x1="339.5833" x2="452.0833" y1="77.0243" y2="77.0243"/><!--MD5=[da456bc05ddb284180092693c9c3b3b1]
entity circle--><ellipse cx="504.1667" cy="51.7069" fill="#FF5C5C" rx="8.3333" ry="8.3333" style="stroke:#FF3333;stroke-width:1.0416666666666667;"/><text fill="#303030" font-family="&quot;Verdana&quot;" font-size="12.5" lengthAdjust="spacing" textLength="34.375" x="486.9792" y="91.4347">circle</text><!--MD5=[87adb442a9baea16d5e9c4faa47d2afb]
entity circle_short_form--><ellipse cx="71.875" cy="173.5819" fill="#FF5C5C" rx="8.3333" ry="8.3333" style="stroke:#FF3333;stroke-width:1.0416666666666667;"/><text fill="#303030" font-family="&quot;Verdana&quot;" font-size="12.5" lengthAdjust="spacing" textLength="110.4167" x="16.6667" y="213.3097">circle_short_form</text><!--MD5=[c4c892d05414254cdeba8adc63897f88]
class class--><rect codeLine="11" fill="url(#g1tfhmce7lkg9s0)" height="61.2549" id="class" rx="7.8125" ry="7.8125" style="stroke:#F3F3F3;stroke-width:1.0416666666666667;" width="83.3333" x="122.9167" y="145.9778"/><ellipse cx="137.5" cy="168.2719" rx="10.4167" ry="10.4167" style="stroke:#888888;stroke-width:1.0416666666666667;fill:none;"/><path d="M139.4043,172.699 Q138.9811,172.9106 138.5091,173.0245 Q138.0371,173.1384 137.5326,173.1384 Q135.6771,173.1384 134.7005,171.934 Q133.7402,170.7133 133.7402,168.4184 Q133.7402,166.1072 134.7005,164.9028 Q135.6771,163.682 137.5326,163.682 Q138.0371,163.682 138.5091,163.796 Q138.9974,163.8936 139.4043,164.1215 L139.4043,166.1235 Q138.9486,165.7003 138.5091,165.505 Q138.0697,165.2934 137.6139,165.2934 Q136.6211,165.2934 136.1165,166.0909 Q135.612,166.8722 135.612,168.4184 Q135.612,169.9483 136.1165,170.7296 Q136.6211,171.5108 137.6139,171.5108 Q138.0697,171.5108 138.5091,171.3155 Q138.9486,171.1202 139.4043,170.697 L139.4043,172.699 Z " fill="#336699"/><text fill="#303030" font-family="&quot;Verdana&quot;" font-size="11.4583" lengthAdjust="spacing" textLength="31.25" x="161.4583" y="172.2387">class</text><line style="stroke:#F3F3F3;stroke-width:1.0416666666666667;" x1="123.9583" x2="205.2083" y1="190.566" y2="190.566"/><line style="stroke:#F3F3F3;stroke-width:1.0416666666666667;" x1="123.9583" x2="205.2083" y1="198.8993" y2="198.8993"/><polygon fill="url(#g1tfhmce7lkg9s1)" points="260.4167,164.2069,272.9167,176.7069,260.4167,189.2069,247.9167,176.7069,260.4167,164.2069" style="stroke:#A8A8A8;stroke-width:1.0416666666666667;"/><polygon fill="url(#g1tfhmce7lkg9s0)" points="327.0833,164.2069,339.5833,176.7069,327.0833,189.2069,314.5833,176.7069,327.0833,164.2069" style="stroke:#F3F3F3;stroke-width:1.5625;"/><!--MD5=[467568f20bbf29da492dca29e9e0779e]
class entity--><rect codeLine="14" fill="url(#g1tfhmce7lkg9s0)" height="61.2549" id="entity" rx="7.8125" ry="7.8125" style="stroke:#F3F3F3;stroke-width:1.0416666666666667;" width="84.375" x="29.6875" y="267.8528"/><ellipse cx="44.2708" cy="290.1469" rx="10.4167" ry="10.4167" style="stroke:#888888;stroke-width:1.0416666666666667;fill:none;"/><path d="M46.8099,294.8344 L41.1296,294.8344 L41.1296,285.7198 L46.8099,285.7198 L46.8099,287.3149 L42.9362,287.3149 L42.9362,289.268 L46.4355,289.268 L46.4355,290.863 L42.9362,290.863 L42.9362,293.2393 L46.8099,293.2393 L46.8099,294.8344 Z " fill="#336699"/><text fill="#303030" font-family="&quot;Verdana&quot;" font-size="11.4583" lengthAdjust="spacing" textLength="32.2917" x="68.2292" y="294.1137">entity</text><line style="stroke:#F3F3F3;stroke-width:1.0416666666666667;" x1="30.7292" x2="113.0208" y1="312.441" y2="312.441"/><line style="stroke:#F3F3F3;stroke-width:1.0416666666666667;" x1="30.7292" x2="113.0208" y1="320.7743" y2="320.7743"/><!--MD5=[b1bf79d8358773e9ea7a3730761a57e9]
class enum--><rect codeLine="15" fill="url(#g1tfhmce7lkg9s0)" height="61.2549" id="enum" rx="7.8125" ry="7.8125" style="stroke:#F3F3F3;stroke-width:1.0416666666666667;" width="85.4167" x="155.2083" y="267.8528"/><ellipse cx="169.7917" cy="290.1469" rx="10.4167" ry="10.4167" style="stroke:#888888;stroke-width:1.0416666666666667;fill:none;"/><path d="M172.3307,294.8344 L166.6504,294.8344 L166.6504,285.7198 L172.3307,285.7198 L172.3307,287.3149 L168.457,287.3149 L168.457,289.268 L171.9564,289.268 L171.9564,290.863 L168.457,290.863 L168.457,293.2393 L172.3307,293.2393 L172.3307,294.8344 Z " fill="#336699"/><text fill="#303030" font-family="&quot;Verdana&quot;" font-size="11.4583" lengthAdjust="spacing" textLength="33.3333" x="193.75" y="294.1137">enum</text><line style="stroke:#F3F3F3;stroke-width:1.0416666666666667;" x1="156.25" x2="239.5833" y1="312.441" y2="312.441"/><line style="stroke:#F3F3F3;stroke-width:1.0416666666666667;" x1="156.25" x2="239.5833" y1="320.7743" y2="320.7743"/><!--MD5=[d9847530b5dea828dbcbb50914b76f30]
class interface--><rect codeLine="16" fill="url(#g1tfhmce7lkg9s0)" height="61.2549" id="interface" rx="7.8125" ry="7.8125" style="stroke:#F3F3F3;stroke-width:1.0416666666666667;" width="104.1667" x="282.2917" y="267.8528"/><ellipse cx="296.875" cy="290.1469" rx="10.4167" ry="10.4167" style="stroke:#888888;stroke-width:1.0416666666666667;fill:none;"/><path d="M293.7663,287.3149 L293.7663,285.7198 L299.1862,285.7198 L299.1862,287.3149 L297.3796,287.3149 L297.3796,293.2393 L299.1862,293.2393 L299.1862,294.8344 L293.7663,294.8344 L293.7663,293.2393 L295.5729,293.2393 L295.5729,287.3149 L293.7663,287.3149 Z " fill="#336699"/><text fill="#303030" font-family="&quot;Verdana&quot;" font-size="11.4583" font-style="italic" lengthAdjust="spacing" textLength="52.0833" x="320.8333" y="294.1137">interface</text><line style="stroke:#F3F3F3;stroke-width:1.0416666666666667;" x1="283.3333" x2="385.4167" y1="312.441" y2="312.441"/><line style="stroke:#F3F3F3;stroke-width:1.0416666666666667;" x1="283.3333" x2="385.4167" y1="320.7743" y2="320.7743"/></g></svg>