<?xml version="1.0" encoding="UTF-8" standalone="no"?><svg xmlns="http://www.w3.org/2000/svg" xmlns:xlink="http://www.w3.org/1999/xlink" contentScriptType="application/ecmascript" contentStyleType="text/css" height="458.3333px" preserveAspectRatio="none" style="width:672px;height:458px;background:#00000000;" version="1.1" viewBox="0 0 672 458" width="672.9167px" zoomAndPan="magnify"><defs/><g><!--MD5=[b4fa10df80476353258f72a232547d63]
class AbstractList--><polygon points="202.0833,214.9821,202.0833,215.201,212.0265,214.5505,221.9697,215.1834,231.9129,215.3984,241.8561,214.239,251.7992,214.9011,261.7424,214.5378,271.6856,214.5826,281.6288,214.9111,291.572,214.2619,301.5152,215.5588,311.4583,214.9821,311.3746,214.7799,312.0213,215.1627,312.6942,215.6088,313.2147,215.6868,313.8244,215.9803,314.4046,216.2025,314.3944,216.1982,314.706,216.8155,314.9695,217.4128,315.3247,218.0481,315.5962,218.6487,315.625,219.1488,315.8609,219.1488,315.7134,227.8923,315.786,236.6357,315.8688,245.3792,315.3746,254.1227,315.625,262.8662,315.8427,262.9564,315.2858,263.4161,315.3081,264.1157,314.734,264.5682,314.6267,265.2141,314.4046,265.8125,314.5032,266.0504,313.8089,266.0409,313.2401,266.3344,312.6818,266.6534,312.1029,266.9223,311.4583,267.0329,311.4583,267.0288,301.5152,267.3321,291.572,266.4366,281.6288,267.3291,271.6856,267.6039,261.7424,267.4959,251.7992,267.6714,241.8561,266.5297,231.9129,266.3535,221.9697,266.3856,212.0265,266.9715,202.0833,267.0329,202.0572,266.9698,201.5846,267.0074,200.8816,266.4887,200.27,266.1906,199.7566,266.1298,199.1371,265.8125,198.9231,265.7239,198.7264,265.1543,198.8571,264.7202,198.5446,264.1026,198.3964,263.5531,197.9167,262.8662,197.8049,262.8662,198.0275,254.1227,198.1217,245.3792,197.7526,236.6357,197.8834,227.8923,197.9167,219.1488,197.9571,219.1655,198.3698,218.6461,198.4035,217.9697,198.7973,217.4425,198.7153,216.7182,199.1371,216.2025,199.0471,215.9852,199.7932,216.12,200.2203,215.4843,200.9725,215.6335,201.5215,215.2925,202.0833,214.9821" style="stroke:#333333;stroke-width:1.0416666666666667;fill:none;"/><polygon points="202.0833,214.9821,202.0833,215.201,212.0265,214.5505,221.9697,215.1834,231.9129,215.3984,241.8561,214.239,251.7992,214.9011,261.7424,214.5378,271.6856,214.5826,281.6288,214.9111,291.572,214.2619,301.5152,215.5588,311.4583,214.9821,311.3746,214.7799,312.0213,215.1627,312.6942,215.6088,313.2147,215.6868,313.8244,215.9803,314.4046,216.2025,314.3944,216.1982,314.706,216.8155,314.9695,217.4128,315.3247,218.0481,315.5962,218.6487,315.625,219.1488,315.8609,219.1488,315.7134,224.5589,315.786,229.9691,315.8688,235.3792,315.3746,240.7894,315.625,246.1995,315.8427,246.2897,315.2858,246.7494,315.3081,247.449,314.734,247.9015,314.6267,248.5475,314.4046,249.1458,314.5032,249.3837,313.8089,249.3743,313.2401,249.6678,312.6818,249.9867,312.1029,250.2557,311.4583,250.3662,311.4583,250.3621,301.5152,250.6654,291.572,249.7699,281.6288,250.6624,271.6856,250.9372,261.7424,250.8293,251.7992,251.0048,241.8561,249.863,231.9129,249.6869,221.9697,249.7189,212.0265,250.3049,202.0833,250.3662,202.0572,250.3032,201.5846,250.3407,200.8816,249.822,200.27,249.5239,199.7566,249.4631,199.1371,249.1458,198.9231,249.0572,198.7264,248.4876,198.8571,248.0535,198.5446,247.4359,198.3964,246.8864,197.9167,246.1995,197.8049,246.1995,198.0275,240.7894,198.1217,235.3792,197.7526,229.9691,197.8834,224.5589,197.9167,219.1488,197.9571,219.1655,198.3698,218.6461,198.4035,217.9697,198.7973,217.4425,198.7153,216.7182,199.1371,216.2025,199.0471,215.9852,199.7932,216.12,200.2203,215.4843,200.9725,215.6335,201.5215,215.2925,202.0833,214.9821" style="stroke:#00000000;stroke-width:1.0416666666666667;fill:none;"/><polygon points="197.9167,246.1995,197.9167,246.4185,208.6174,245.768,219.3182,246.4009,230.0189,246.6159,240.7197,245.4564,251.4205,246.1186,262.1212,245.7553,272.822,245.8001,283.5227,246.1285,294.2235,245.4794,304.9242,246.7763,315.625,246.1995,315.4062,246.1995,315.5563,247.0329,315.775,247.8662,315.5952,248.6995,315.6487,249.5329,315.625,250.3662,315.625,250.3329,304.9242,250.5522,294.2235,250.6153,283.5227,250.9763,272.822,251.0652,262.1212,251.0738,251.4205,250.6314,240.7197,250.8491,230.0189,251.0977,219.3182,249.615,208.6174,251.073,197.9167,250.3662,197.8137,250.3662,198.102,249.5329,197.7448,248.6995,197.8929,247.8662,198.1742,247.0329,197.9167,246.1995" style="stroke:#00000000;stroke-width:1.0416666666666667;fill:none;"/><polygon fill="none" points="202.0833,214.9821,202.0833,215.201,212.0265,214.5505,221.9697,215.1834,231.9129,215.3984,241.8561,214.239,251.7992,214.9011,261.7424,214.5378,271.6856,214.5826,281.6288,214.9111,291.572,214.2619,301.5152,215.5588,311.4583,214.9821,311.3746,214.7799,312.0213,215.1627,312.6942,215.6088,313.2147,215.6868,313.8244,215.9803,314.4046,216.2025,314.3944,216.1982,314.706,216.8155,314.9695,217.4128,315.3247,218.0481,315.5962,218.6487,315.625,219.1488,315.8609,219.1488,315.7134,227.8923,315.786,236.6357,315.8688,245.3792,315.3746,254.1227,315.625,262.8662,315.8427,262.9564,315.2858,263.4161,315.3081,264.1157,314.734,264.5682,314.6267,265.2141,314.4046,265.8125,314.5032,266.0504,313.8089,266.0409,313.2401,266.3344,312.6818,266.6534,312.1029,266.9223,311.4583,267.0329,311.4583,267.0288,301.5152,267.3321,291.572,266.4366,281.6288,267.3291,271.6856,267.6039,261.7424,267.4959,251.7992,267.6714,241.8561,266.5297,231.9129,266.3535,221.9697,266.3856,212.0265,266.9715,202.0833,267.0329,202.0572,266.9698,201.5846,267.0074,200.8816,266.4887,200.27,266.1906,199.7566,266.1298,199.1371,265.8125,198.9231,265.7239,198.7264,265.1543,198.8571,264.7202,198.5446,264.1026,198.3964,263.5531,197.9167,262.8662,197.8049,262.8662,198.0275,254.1227,198.1217,245.3792,197.7526,236.6357,197.8834,227.8923,197.9167,219.1488,197.9571,219.1655,198.3698,218.6461,198.4035,217.9697,198.7973,217.4425,198.7153,216.7182,199.1371,216.2025,199.0471,215.9852,199.7932,216.12,200.2203,215.4843,200.9725,215.6335,201.5215,215.2925,202.0833,214.9821" style="stroke:#333333;stroke-width:1.0416666666666667;"/><polygon points="222.9742,235.2079,221.4473,237.2942,219.6413,240.35,217.0584,242.4094,214.3441,243.5355,212.1799,243.6333,209.3984,242.2249,206.7738,241.3048,204.7818,239.4366,203.7368,237.298,203.1171,235.5951,202.51,233.3708,201.5246,231.4568,202.2818,229.588,202.9453,227.5408,205.4349,225.9218,207.1865,223.821,209.3545,223.1234,211.9319,222.5227,215.2371,222.8796,217.0474,223.7334,219.1522,224.1204,221.7113,226.7423,222.6035,229.5103,222.9911,231.3989,222.552,234.5112" style="stroke:#24963E;stroke-width:1.0416666666666667;fill:none;"/><path d="M212.0931,229.6305 L211.2467,233.3577 L212.9557,233.3577 L212.0931,229.6305 Z M211.0026,227.9867 L213.1999,227.9867 L215.6576,237.1012 L213.8509,237.1012 L213.2975,234.8551 L210.8887,234.8551 L210.3353,237.1012 L208.5286,237.1012 L211.0026,227.9867 Z " fill="#000000"/><text fill="#2E2E2E" font-family="Segoe Print" font-size="12.5" font-style="italic" lengthAdjust="spacing" textLength="76.0417" x="231.25" y="237.0015">AbstractList</text><path d="M198.9583,250.3662 L198.9583,250.6581 L209.4697,249.7908 L219.9811,250.6347 L230.4924,250.9213 L241.0038,249.3754 L251.5152,250.2583 L262.0265,249.7739 L272.5379,249.8336 L283.0492,250.2715 L293.5606,249.406 L304.072,251.1352 L314.5833,250.3662 " style="stroke:#333333;stroke-width:1.0416666666666667;fill:none;"/><path d="M198.9583,258.6995 L198.9583,258.9915 L209.4697,258.1241 L219.9811,258.968 L230.4924,259.2547 L241.0038,257.7087 L251.5152,258.5916 L262.0265,258.1072 L272.5379,258.1669 L283.0492,258.6049 L293.5606,257.7393 L304.072,259.4685 L314.5833,258.6995 " style="stroke:#333333;stroke-width:1.0416666666666667;fill:none;"/><!--MD5=[8e34b16d8d8f96f4a11290cd523ed859]
class AbstractCollection--><polygon points="11.4583,214.9821,11.4583,215.201,21.5278,214.5505,31.5972,215.1834,41.6667,215.3984,51.7361,214.239,61.8056,214.9011,71.875,214.5378,81.9444,214.5826,92.0139,214.9111,102.0833,214.2619,112.1528,215.5588,122.2222,214.3256,132.2917,214.7761,142.3611,215.432,152.4306,214.8927,162.5,214.9821,162.5091,215.004,163.085,215.2159,163.7022,215.5275,164.2995,215.791,164.9348,216.1463,165.4463,216.2025,165.6615,216.2917,165.9083,216.882,166.0161,217.4148,166.3272,218.0319,166.6479,218.6528,166.6667,219.1488,166.4163,219.1488,166.9023,227.8923,166.5637,236.6357,166.852,245.3792,166.4948,254.1227,166.6667,262.8662,166.6447,262.8571,166.6605,263.554,166.1629,264.0382,165.9682,264.648,165.799,265.2682,165.4463,265.8125,165.5016,265.946,164.8565,266.0553,164.3059,266.3928,163.6025,266.3611,163.127,266.88,162.5,267.0329,162.5,267.6039,152.4306,267.4959,142.3611,267.6714,132.2917,266.5297,122.2222,266.3535,112.1528,266.3856,102.0833,266.9715,92.0139,266.8282,81.9444,267.7427,71.875,266.8509,61.8056,266.6755,51.7361,267.2707,41.6667,266.3383,31.5972,266.4921,21.5278,267.7089,11.4583,267.0329,11.5162,267.1726,10.9667,267.0244,10.2371,266.4415,9.733,266.403,9.1798,266.246,8.5121,265.8125,8.3605,265.7497,8.2372,265.2105,8.0643,264.6507,7.9889,264.1313,7.5344,263.4549,7.2917,262.8662,7.4523,262.8662,7.0994,254.1227,7.0565,245.3792,7.4665,236.6357,7.0427,227.8923,7.2917,219.1488,7.4549,219.2164,7.602,218.587,7.6939,217.9347,7.9104,217.334,8.4151,216.8527,8.5121,216.2025,8.4723,216.1065,9.18,216.1483,9.6171,215.537,10.3619,215.6683,10.9334,215.3815,11.4583,214.9821" style="stroke:#333333;stroke-width:1.0416666666666667;fill:none;"/><polygon points="11.4583,214.9821,11.4583,215.201,21.5278,214.5505,31.5972,215.1834,41.6667,215.3984,51.7361,214.239,61.8056,214.9011,71.875,214.5378,81.9444,214.5826,92.0139,214.9111,102.0833,214.2619,112.1528,215.5588,122.2222,214.3256,132.2917,214.7761,142.3611,215.432,152.4306,214.8927,162.5,214.9821,162.5091,215.004,163.085,215.2159,163.7022,215.5275,164.2995,215.791,164.9348,216.1463,165.4463,216.2025,165.6615,216.2917,165.9083,216.882,166.0161,217.4148,166.3272,218.0319,166.6479,218.6528,166.6667,219.1488,166.4163,219.1488,166.9023,224.5589,166.5637,229.9691,166.852,235.3792,166.4948,240.7894,166.6667,246.1995,166.6447,246.1904,166.6605,246.8873,166.1629,247.3716,165.9682,247.9813,165.799,248.6016,165.4463,249.1458,165.5016,249.2793,164.8565,249.3886,164.3059,249.7261,163.6025,249.6944,163.127,250.2134,162.5,250.3662,162.5,250.9372,152.4306,250.8293,142.3611,251.0048,132.2917,249.863,122.2222,249.6869,112.1528,249.7189,102.0833,250.3049,92.0139,250.1615,81.9444,251.076,71.875,250.1843,61.8056,250.0089,51.7361,250.604,41.6667,249.6716,31.5972,249.8255,21.5278,251.0422,11.4583,250.3662,11.5162,250.506,10.9667,250.3578,10.2371,249.7748,9.733,249.7364,9.1798,249.5793,8.5121,249.1458,8.3605,249.0831,8.2372,248.5438,8.0643,247.9841,7.9889,247.4647,7.5344,246.7882,7.2917,246.1995,7.4523,246.1995,7.0994,240.7894,7.0565,235.3792,7.4665,229.9691,7.0427,224.5589,7.2917,219.1488,7.4549,219.2164,7.602,218.587,7.6939,217.9347,7.9104,217.334,8.4151,216.8527,8.5121,216.2025,8.4723,216.1065,9.18,216.1483,9.6171,215.537,10.3619,215.6683,10.9334,215.3815,11.4583,214.9821" style="stroke:#00000000;stroke-width:1.0416666666666667;fill:none;"/><polygon points="7.2917,246.1995,7.2917,246.4185,17.9167,245.768,28.5417,246.4009,39.1667,246.6159,49.7917,245.4564,60.4167,246.1186,71.0417,245.7553,81.6667,245.8001,92.2917,246.1285,102.9167,245.4794,113.5417,246.7763,124.1667,245.543,134.7917,245.9935,145.4167,246.6495,156.0417,246.1102,166.6667,246.1995,166.6904,246.1995,166.6556,247.0329,166.7287,247.8662,166.7497,248.6995,166.87,249.5329,166.6667,250.3662,166.6667,251.0652,156.0417,251.0738,145.4167,250.6314,134.7917,250.8491,124.1667,251.0977,113.5417,249.615,102.9167,251.073,92.2917,250.0574,81.6667,250.9223,71.0417,249.8506,60.4167,250.2949,49.7917,251.1387,39.1667,250.3154,28.5417,250.4759,17.9167,250.7189,7.2917,250.3662,7.4362,250.3662,7.2903,249.5329,7.3914,248.6995,7.0929,247.8662,7.3904,247.0329,7.2917,246.1995" style="stroke:#00000000;stroke-width:1.0416666666666667;fill:none;"/><polygon fill="none" points="11.4583,214.9821,11.4583,215.201,21.5278,214.5505,31.5972,215.1834,41.6667,215.3984,51.7361,214.239,61.8056,214.9011,71.875,214.5378,81.9444,214.5826,92.0139,214.9111,102.0833,214.2619,112.1528,215.5588,122.2222,214.3256,132.2917,214.7761,142.3611,215.432,152.4306,214.8927,162.5,214.9821,162.5091,215.004,163.085,215.2159,163.7022,215.5275,164.2995,215.791,164.9348,216.1463,165.4463,216.2025,165.6615,216.2917,165.9083,216.882,166.0161,217.4148,166.3272,218.0319,166.6479,218.6528,166.6667,219.1488,166.4163,219.1488,166.9023,227.8923,166.5637,236.6357,166.852,245.3792,166.4948,254.1227,166.6667,262.8662,166.6447,262.8571,166.6605,263.554,166.1629,264.0382,165.9682,264.648,165.799,265.2682,165.4463,265.8125,165.5016,265.946,164.8565,266.0553,164.3059,266.3928,163.6025,266.3611,163.127,266.88,162.5,267.0329,162.5,267.6039,152.4306,267.4959,142.3611,267.6714,132.2917,266.5297,122.2222,266.3535,112.1528,266.3856,102.0833,266.9715,92.0139,266.8282,81.9444,267.7427,71.875,266.8509,61.8056,266.6755,51.7361,267.2707,41.6667,266.3383,31.5972,266.4921,21.5278,267.7089,11.4583,267.0329,11.5162,267.1726,10.9667,267.0244,10.2371,266.4415,9.733,266.403,9.1798,266.246,8.5121,265.8125,8.3605,265.7497,8.2372,265.2105,8.0643,264.6507,7.9889,264.1313,7.5344,263.4549,7.2917,262.8662,7.4523,262.8662,7.0994,254.1227,7.0565,245.3792,7.4665,236.6357,7.0427,227.8923,7.2917,219.1488,7.4549,219.2164,7.602,218.587,7.6939,217.9347,7.9104,217.334,8.4151,216.8527,8.5121,216.2025,8.4723,216.1065,9.18,216.1483,9.6171,215.537,10.3619,215.6683,10.9334,215.3815,11.4583,214.9821" style="stroke:#333333;stroke-width:1.0416666666666667;"/><polygon points="32.3492,235.2079,30.8223,237.2942,29.0163,240.35,26.4334,242.4094,23.7191,243.5355,21.5549,243.6333,18.7734,242.2249,16.1488,241.3048,14.1568,239.4366,13.1118,237.298,12.4921,235.5951,11.885,233.3708,10.8996,231.4568,11.6568,229.588,12.3203,227.5408,14.8099,225.9218,16.5615,223.821,18.7295,223.1234,21.3069,222.5227,24.6121,222.8796,26.4224,223.7334,28.5272,224.1204,31.0863,226.7423,31.9785,229.5103,32.3661,231.3989,31.927,234.5112" style="stroke:#24963E;stroke-width:1.0416666666666667;fill:none;"/><path d="M21.4681,229.6305 L20.6217,233.3577 L22.3307,233.3577 L21.4681,229.6305 Z M20.3776,227.9867 L22.5749,227.9867 L25.0326,237.1012 L23.2259,237.1012 L22.6725,234.8551 L20.2637,234.8551 L19.7103,237.1012 L17.9036,237.1012 L20.3776,227.9867 Z " fill="#000000"/><text fill="#2E2E2E" font-family="Segoe Print" font-size="12.5" font-style="italic" lengthAdjust="spacing" textLength="117.7083" x="40.625" y="237.0015">AbstractCollection</text><path d="M8.3333,250.3662 L8.3333,250.6581 L18.8194,249.7908 L29.3056,250.6347 L39.7917,250.9213 L50.2778,249.3754 L60.7639,250.2583 L71.25,249.7739 L81.7361,249.8336 L92.2222,250.2715 L102.7083,249.406 L113.1944,251.1352 L123.6806,249.4908 L134.1667,250.0915 L144.6528,250.9661 L155.1389,250.2471 L165.625,250.3662 " style="stroke:#333333;stroke-width:1.0416666666666667;fill:none;"/><path d="M8.3333,258.6995 L8.3333,258.9915 L18.8194,258.1241 L29.3056,258.968 L39.7917,259.2547 L50.2778,257.7087 L60.7639,258.5916 L71.25,258.1072 L81.7361,258.1669 L92.2222,258.6049 L102.7083,257.7393 L113.1944,259.4685 L123.6806,257.8242 L134.1667,258.4249 L144.6528,259.2995 L155.1389,258.5804 L165.625,258.6995 " style="stroke:#333333;stroke-width:1.0416666666666667;fill:none;"/><!--MD5=[3d4177ac58b4411586d067f34e84928f]
class List--><polygon points="198.9583,42.0654,198.9583,42.2844,210,41.6338,221.0417,42.2668,232.0833,42.4818,243.125,41.3223,254.1667,42.0654,254.1563,42.0405,254.6993,42.1727,255.2942,42.4306,255.9254,42.7758,256.4318,42.82,257.1129,43.2858,257.2905,43.3594,257.1548,43.7913,257.5377,44.4381,257.9837,45.111,258.0617,45.6314,258.3333,46.2321,258.357,46.2321,258.3222,54.9756,258.3953,63.7191,258.4164,72.4626,258.5367,81.2061,258.3333,89.9495,258.5486,90.0387,258.3072,90.6291,257.9269,91.1619,257.7498,91.7789,257.5823,92.3999,257.1129,92.8958,257.0171,92.6645,256.6138,93.3576,255.895,93.2889,255.4161,93.7993,254.6901,93.7133,254.1667,94.1162,254.1667,94.0449,243.125,94.8887,232.0833,94.0654,221.0417,94.2259,210,94.4689,198.9583,94.1162,199.0136,94.2497,198.3686,93.8709,197.818,93.7202,197.1145,93.2004,196.6391,93.2311,196.0121,92.8958,196.1879,92.9687,195.9106,92.3656,195.7206,91.7988,195.1249,91.0639,194.8265,90.4521,194.7917,89.9495,194.5759,89.9495,194.7712,81.2061,194.7234,72.4626,195.0283,63.7191,194.731,54.9756,194.7917,46.2321,194.6816,46.1865,195.109,45.6732,195.0659,44.965,195.3574,44.3953,195.9762,43.9613,196.0121,43.2858,196.0699,43.4256,196.6989,43.2774,197.1478,42.6944,197.8222,42.656,198.4475,42.4989,198.9583,42.0654" style="stroke:#333333;stroke-width:1.0416666666666667;fill:none;"/><polygon points="198.9583,42.0654,198.9583,42.2844,210,41.6338,221.0417,42.2668,232.0833,42.4818,243.125,41.3223,254.1667,42.0654,254.1563,42.0405,254.6993,42.1727,255.2942,42.4306,255.9254,42.7758,256.4318,42.82,257.1129,43.2858,257.2905,43.3594,257.1548,43.7913,257.5377,44.4381,257.9837,45.111,258.0617,45.6314,258.3333,46.2321,258.357,46.2321,258.3222,51.6423,258.3953,57.0524,258.4164,62.4626,258.5367,67.8727,258.3333,73.2829,258.5486,73.372,258.3072,73.9624,257.9269,74.4952,257.7498,75.1122,257.5823,75.7332,257.1129,76.2292,257.0171,75.9978,256.6138,76.6909,255.895,76.6222,255.4161,77.1326,254.6901,77.0467,254.1667,77.4495,254.1667,77.3782,243.125,78.222,232.0833,77.3988,221.0417,77.5592,210,77.8023,198.9583,77.4495,199.0136,77.5831,198.3686,77.2042,197.818,77.0535,197.1145,76.5337,196.6391,76.5645,196.0121,76.2292,196.1879,76.302,195.9106,75.699,195.7206,75.1321,195.1249,74.3972,194.8265,73.7855,194.7917,73.2829,194.5759,73.2829,194.7712,67.8727,194.7234,62.4626,195.0283,57.0524,194.731,51.6423,194.7917,46.2321,194.6816,46.1865,195.109,45.6732,195.0659,44.965,195.3574,44.3953,195.9762,43.9613,196.0121,43.2858,196.0699,43.4256,196.6989,43.2774,197.1478,42.6944,197.8222,42.656,198.4475,42.4989,198.9583,42.0654" style="stroke:#00000000;stroke-width:1.0416666666666667;fill:none;"/><polygon points="194.7917,73.2829,194.7917,73.5018,205.3819,72.8513,215.9722,73.4842,226.5625,73.6992,237.1528,72.5398,247.7431,73.2019,258.3333,73.2829,258.1852,73.2829,258.2002,74.1162,258.3097,74.9495,258.0933,75.7829,258.5256,76.6162,258.3333,77.4495,258.3333,76.793,247.7431,77.2435,237.1528,77.8995,226.5625,77.3602,215.9722,77.5206,205.3819,77.4163,194.7917,77.4495,194.8537,77.4495,194.8747,76.6162,194.995,75.7829,195.0247,74.9495,195.0275,74.1162,194.7917,73.2829" style="stroke:#00000000;stroke-width:1.0416666666666667;fill:none;"/><polygon fill="none" points="198.9583,42.0654,198.9583,42.2844,210,41.6338,221.0417,42.2668,232.0833,42.4818,243.125,41.3223,254.1667,42.0654,254.1563,42.0405,254.6993,42.1727,255.2942,42.4306,255.9254,42.7758,256.4318,42.82,257.1129,43.2858,257.2905,43.3594,257.1548,43.7913,257.5377,44.4381,257.9837,45.111,258.0617,45.6314,258.3333,46.2321,258.357,46.2321,258.3222,54.9756,258.3953,63.7191,258.4164,72.4626,258.5367,81.2061,258.3333,89.9495,258.5486,90.0387,258.3072,90.6291,257.9269,91.1619,257.7498,91.7789,257.5823,92.3999,257.1129,92.8958,257.0171,92.6645,256.6138,93.3576,255.895,93.2889,255.4161,93.7993,254.6901,93.7133,254.1667,94.1162,254.1667,94.0449,243.125,94.8887,232.0833,94.0654,221.0417,94.2259,210,94.4689,198.9583,94.1162,199.0136,94.2497,198.3686,93.8709,197.818,93.7202,197.1145,93.2004,196.6391,93.2311,196.0121,92.8958,196.1879,92.9687,195.9106,92.3656,195.7206,91.7988,195.1249,91.0639,194.8265,90.4521,194.7917,89.9495,194.5759,89.9495,194.7712,81.2061,194.7234,72.4626,195.0283,63.7191,194.731,54.9756,194.7917,46.2321,194.6816,46.1865,195.109,45.6732,195.0659,44.965,195.3574,44.3953,195.9762,43.9613,196.0121,43.2858,196.0699,43.4256,196.6989,43.2774,197.1478,42.6944,197.8222,42.656,198.4475,42.4989,198.9583,42.0654" style="stroke:#333333;stroke-width:1.0416666666666667;"/><polygon points="219.8492,62.2912,218.3223,64.3776,216.5163,67.4333,213.9334,69.4927,211.2191,70.6189,209.0549,70.7166,206.2734,69.3082,203.6488,68.3881,201.6568,66.52,200.6118,64.3813,199.9921,62.6784,199.385,60.4542,198.3996,58.5401,199.1568,56.6713,199.8203,54.6242,202.3099,53.0051,204.0615,50.9044,206.2295,50.2068,208.8069,49.606,212.1121,49.9629,213.9224,50.8167,216.0272,51.2037,218.5863,53.8257,219.4785,56.5936,219.8661,58.4823,219.427,61.5945" style="stroke:#C6303E;stroke-width:1.0416666666666667;fill:none;"/><path d="M206.2663,56.9255 L206.2663,55.3304 L211.6862,55.3304 L211.6862,56.9255 L209.8796,56.9255 L209.8796,62.8499 L211.6862,62.8499 L211.6862,64.445 L206.2663,64.445 L206.2663,62.8499 L208.0729,62.8499 L208.0729,56.9255 L206.2663,56.9255 Z " fill="#000000"/><text fill="#2E2E2E" font-family="Segoe Print" font-size="12.5" font-style="italic" lengthAdjust="spacing" textLength="21.875" x="228.125" y="64.0849">List</text><path d="M195.8333,77.4495 L195.8333,77.7415 L206.0764,76.8741 L216.3194,77.718 L226.5625,78.0047 L236.8056,76.4587 L247.0486,77.3416 L257.2917,77.4495 " style="stroke:#333333;stroke-width:1.0416666666666667;fill:none;"/><path d="M195.8333,85.7829 L195.8333,86.0748 L206.0764,85.2074 L216.3194,86.0513 L226.5625,86.338 L236.8056,84.7921 L247.0486,85.6749 L257.2917,85.7829 " style="stroke:#333333;stroke-width:1.0416666666666667;fill:none;"/><!--MD5=[c160724f8e3bb89ca8141a12554ac2e3]
class Collection--><polygon points="48.9583,42.0654,48.9583,42.2844,59.7222,41.6338,70.4861,42.2668,81.25,42.4818,92.0139,41.3223,102.7778,41.9845,113.5417,41.6212,124.3056,41.666,135.0694,41.9944,145.8333,42.0654,145.7415,41.8436,146.4962,42.4871,146.9281,42.3514,147.5748,42.7342,148.2478,43.1803,148.7796,43.2858,148.7521,43.2744,149.0456,43.8841,149.2575,44.4601,149.5691,45.0773,149.8326,45.6746,150,46.2321,150.2034,46.2321,150.233,54.9756,150.2359,63.7191,150.0884,72.4626,150.161,81.2061,150,89.9495,150.2253,90.0429,149.5246,90.443,149.7295,91.2182,149.1727,91.6779,149.1949,92.3775,148.7796,92.8958,148.7138,92.737,148.1813,93.1179,147.6996,93.6219,147.0054,93.6124,146.4366,93.9059,145.8333,94.1162,145.8333,94.4689,135.0694,94.5498,124.3056,94.1121,113.5417,94.4154,102.7778,93.5199,92.0139,94.4124,81.25,94.6872,70.4861,94.5793,59.7222,94.7548,48.9583,94.1162,48.8941,93.9612,48.2824,93.6629,47.6973,93.4287,47.1827,93.3651,46.5752,93.0769,46.0121,92.8958,46.2306,92.9864,45.7119,92.2834,45.4139,91.6717,45.353,91.1584,44.8218,90.4502,44.7917,89.9495,44.6114,89.9495,45.017,81.2061,44.9429,72.4626,45.0467,63.7191,44.6799,54.9756,44.7917,46.2321,44.8941,46.2745,45.2251,45.7213,45.1283,44.9908,45.4931,44.4516,45.8084,43.8918,46.0121,43.2858,46.0987,43.4949,46.6008,43.0404,47.252,42.9461,47.7062,42.3759,48.2791,42.0922,48.9583,42.0654" style="stroke:#333333;stroke-width:1.0416666666666667;fill:none;"/><polygon points="48.9583,42.0654,48.9583,42.2844,59.7222,41.6338,70.4861,42.2668,81.25,42.4818,92.0139,41.3223,102.7778,41.9845,113.5417,41.6212,124.3056,41.666,135.0694,41.9944,145.8333,42.0654,145.7415,41.8436,146.4962,42.4871,146.9281,42.3514,147.5748,42.7342,148.2478,43.1803,148.7796,43.2858,148.7521,43.2744,149.0456,43.8841,149.2575,44.4601,149.5691,45.0773,149.8326,45.6746,150,46.2321,150.2034,46.2321,150.233,51.6423,150.2359,57.0524,150.0884,62.4626,150.161,67.8727,150,73.2829,150.2253,73.3762,149.5246,73.7763,149.7295,74.5515,149.1727,75.0112,149.1949,75.7108,148.7796,76.2292,148.7138,76.0704,148.1813,76.4513,147.6996,76.9552,147.0054,76.9458,146.4366,77.2392,145.8333,77.4495,145.8333,77.8023,135.0694,77.8831,124.3056,77.4455,113.5417,77.7487,102.7778,76.8533,92.0139,77.7458,81.25,78.0206,70.4861,77.9126,59.7222,78.0881,48.9583,77.4495,48.8941,77.2946,48.2824,76.9963,47.6973,76.762,47.1827,76.6984,46.5752,76.4102,46.0121,76.2292,46.2306,76.3197,45.7119,75.6167,45.4139,75.0051,45.353,74.4917,44.8218,73.7835,44.7917,73.2829,44.6114,73.2829,45.017,67.8727,44.9429,62.4626,45.0467,57.0524,44.6799,51.6423,44.7917,46.2321,44.8941,46.2745,45.2251,45.7213,45.1283,44.9908,45.4931,44.4516,45.8084,43.8918,46.0121,43.2858,46.0987,43.4949,46.6008,43.0404,47.252,42.9461,47.7062,42.3759,48.2791,42.0922,48.9583,42.0654" style="stroke:#00000000;stroke-width:1.0416666666666667;fill:none;"/><polygon points="44.7917,73.2829,44.7917,73.5018,55.3125,72.8513,65.8333,73.4842,76.3542,73.6992,86.875,72.5398,97.3958,73.2019,107.9167,72.8386,118.4375,72.8834,128.9583,73.2119,139.4792,72.5627,150,73.2829,150.1922,73.2829,149.7812,74.1162,149.9313,74.9495,150.15,75.7829,149.9702,76.6162,150,77.4495,150,77.5206,139.4792,77.4163,128.9583,77.6355,118.4375,77.6986,107.9167,78.0596,97.3958,78.1486,86.875,78.1571,76.3542,77.7148,65.8333,77.9324,55.3125,78.181,44.7917,77.4495,44.5413,77.4495,45.0273,76.6162,44.6887,75.7829,44.977,74.9495,44.6198,74.1162,44.7917,73.2829" style="stroke:#00000000;stroke-width:1.0416666666666667;fill:none;"/><polygon fill="none" points="48.9583,42.0654,48.9583,42.2844,59.7222,41.6338,70.4861,42.2668,81.25,42.4818,92.0139,41.3223,102.7778,41.9845,113.5417,41.6212,124.3056,41.666,135.0694,41.9944,145.8333,42.0654,145.7415,41.8436,146.4962,42.4871,146.9281,42.3514,147.5748,42.7342,148.2478,43.1803,148.7796,43.2858,148.7521,43.2744,149.0456,43.8841,149.2575,44.4601,149.5691,45.0773,149.8326,45.6746,150,46.2321,150.2034,46.2321,150.233,54.9756,150.2359,63.7191,150.0884,72.4626,150.161,81.2061,150,89.9495,150.2253,90.0429,149.5246,90.443,149.7295,91.2182,149.1727,91.6779,149.1949,92.3775,148.7796,92.8958,148.7138,92.737,148.1813,93.1179,147.6996,93.6219,147.0054,93.6124,146.4366,93.9059,145.8333,94.1162,145.8333,94.4689,135.0694,94.5498,124.3056,94.1121,113.5417,94.4154,102.7778,93.5199,92.0139,94.4124,81.25,94.6872,70.4861,94.5793,59.7222,94.7548,48.9583,94.1162,48.8941,93.9612,48.2824,93.6629,47.6973,93.4287,47.1827,93.3651,46.5752,93.0769,46.0121,92.8958,46.2306,92.9864,45.7119,92.2834,45.4139,91.6717,45.353,91.1584,44.8218,90.4502,44.7917,89.9495,44.6114,89.9495,45.017,81.2061,44.9429,72.4626,45.0467,63.7191,44.6799,54.9756,44.7917,46.2321,44.8941,46.2745,45.2251,45.7213,45.1283,44.9908,45.4931,44.4516,45.8084,43.8918,46.0121,43.2858,46.0987,43.4949,46.6008,43.0404,47.252,42.9461,47.7062,42.3759,48.2791,42.0922,48.9583,42.0654" style="stroke:#333333;stroke-width:1.0416666666666667;"/><polygon points="69.8492,62.2912,68.3223,64.3776,66.5163,67.4333,63.9334,69.4927,61.2191,70.6189,59.0549,70.7166,56.2734,69.3082,53.6488,68.3881,51.6568,66.52,50.6118,64.3813,49.9921,62.6784,49.385,60.4542,48.3996,58.5401,49.1568,56.6713,49.8203,54.6242,52.3099,53.0051,54.0615,50.9044,56.2295,50.2068,58.8069,49.606,62.1121,49.9629,63.9224,50.8167,66.0272,51.2037,68.5863,53.8257,69.4785,56.5936,69.8661,58.4823,69.427,61.5945" style="stroke:#C6303E;stroke-width:1.0416666666666667;fill:none;"/><path d="M56.2663,56.9255 L56.2663,55.3304 L61.6862,55.3304 L61.6862,56.9255 L59.8796,56.9255 L59.8796,62.8499 L61.6862,62.8499 L61.6862,64.445 L56.2663,64.445 L56.2663,62.8499 L58.0729,62.8499 L58.0729,56.9255 L56.2663,56.9255 Z " fill="#000000"/><text fill="#2E2E2E" font-family="Segoe Print" font-size="12.5" font-style="italic" lengthAdjust="spacing" textLength="63.5417" x="78.125" y="64.0849">Collection</text><path d="M45.8333,77.4495 L45.8333,77.7415 L56.1458,76.8741 L66.4583,77.718 L76.7708,78.0047 L87.0833,76.4587 L97.3958,77.3416 L107.7083,76.8572 L118.0208,76.9169 L128.3333,77.3549 L138.6458,76.4893 L148.9583,77.4495 " style="stroke:#333333;stroke-width:1.0416666666666667;fill:none;"/><path d="M45.8333,85.7829 L45.8333,86.0748 L56.1458,85.2074 L66.4583,86.0513 L76.7708,86.338 L87.0833,84.7921 L97.3958,85.6749 L107.7083,85.1905 L118.0208,85.2502 L128.3333,85.6882 L138.6458,84.8226 L148.9583,85.7829 " style="stroke:#333333;stroke-width:1.0416666666666667;fill:none;"/><!--MD5=[ab8871ed637f40707b866ba6597734bc]
class ArrayList--><polygon points="186.9792,352.4821,186.9792,352.701,197.7163,352.0505,208.4535,352.6834,219.1907,352.8984,229.9279,351.739,240.6651,352.4011,251.4022,352.0378,262.1394,352.0826,272.8766,352.4111,283.6138,351.7619,294.351,353.0588,305.0881,351.8256,315.8253,352.2761,326.5625,352.4821,326.6199,352.6207,327.1404,352.6987,327.7501,352.9921,328.326,353.2041,328.9432,353.5157,329.5088,353.7025,329.5855,353.7343,329.9407,354.3696,330.2122,354.9702,330.4589,355.5605,330.5668,356.0933,330.7292,356.6488,331.2121,356.6488,331.4607,366.7851,329.9779,376.9215,331.4359,387.0578,330.4203,397.1942,331.2852,407.3305,330.2135,417.4669,330.6578,427.6033,331.5017,437.7396,330.7292,447.876,330.7135,447.8695,330.5189,448.4792,330.3496,449.0995,330.1305,449.6991,329.7516,450.2325,329.5088,450.8223,329.5469,450.9144,328.8435,450.8827,328.3681,451.4016,327.8139,451.7303,327.2108,451.9412,326.5625,452.0426,326.5625,452.6812,315.8253,451.5394,305.0881,451.3633,294.351,451.3954,283.6138,451.9813,272.8766,451.8379,262.1394,452.7524,251.4022,451.8607,240.6651,451.6853,229.9279,452.2804,219.1907,451.348,208.4535,451.5019,197.7163,452.7186,186.9792,452.0426,187.0371,452.1824,186.4875,452.0342,185.7579,451.4513,185.2538,451.4128,184.7006,451.2557,184.0329,450.8223,183.8813,450.7595,183.7581,450.2203,183.5851,449.6605,183.5097,449.1411,183.0552,448.4647,182.8125,447.876,183.2943,447.876,182.2356,437.7396,182.107,427.6033,183.3371,417.4669,182.0657,407.3305,183.3427,397.1942,183.0277,387.0578,182.5334,376.9215,182.444,366.7851,182.8125,356.6488,182.9597,356.7097,182.9606,356.0197,183.4905,355.5489,183.3674,354.8075,183.9869,354.3738,184.0329,353.7025,184.0972,353.8578,184.6547,353.537,185.2177,353.2295,185.8972,353.2033,186.4714,352.923,186.9792,352.4821" style="stroke:#333333;stroke-width:1.0416666666666667;fill:none;"/><polygon points="186.9792,352.4821,186.9792,352.701,197.7163,352.0505,208.4535,352.6834,219.1907,352.8984,229.9279,351.739,240.6651,352.4011,251.4022,352.0378,262.1394,352.0826,272.8766,352.4111,283.6138,351.7619,294.351,353.0588,305.0881,351.8256,315.8253,352.2761,326.5625,352.4821,326.6199,352.6207,327.1404,352.6987,327.7501,352.9921,328.326,353.2041,328.9432,353.5157,329.5088,353.7025,329.5855,353.7343,329.9407,354.3696,330.2122,354.9702,330.4589,355.5605,330.5668,356.0933,330.7292,356.6488,330.8901,356.6488,330.973,362.0589,330.4788,367.4691,330.9648,372.8792,330.6262,378.2894,330.7292,383.6995,330.9004,383.7705,330.3263,384.223,330.219,384.869,330.2348,385.5659,329.7372,386.0501,329.5088,386.6458,329.5228,386.6796,328.9645,386.9985,328.3856,387.2675,327.7405,387.3768,327.1899,387.7143,326.5625,387.8662,326.5625,387.2699,315.8253,388.1624,305.0881,388.4372,294.351,388.3293,283.6138,388.5048,272.8766,387.363,262.1394,387.1869,251.4022,387.2189,240.6651,387.8049,229.9279,387.6615,219.1907,388.576,208.4535,387.6843,197.7163,387.5089,186.9792,387.8662,187.0095,387.9394,186.3013,387.4082,185.7317,387.2115,185.2976,387.3422,184.68,387.0297,184.0329,386.6458,184.2685,386.7434,183.6856,386.0138,183.6471,385.5097,183.4901,384.9565,182.905,384.226,182.8125,383.6995,182.7792,383.6995,182.8562,378.2894,183.0388,372.8792,182.811,367.4691,182.9731,362.0589,182.8125,356.6488,182.6349,356.5752,182.8393,355.9695,183.4622,355.5372,183.3147,354.7857,183.9521,354.3594,184.0329,353.7025,184.0603,353.7688,184.5865,353.3725,185.1644,353.1008,185.8616,353.1174,186.3501,352.6302,186.9792,352.4821" style="stroke:#00000000;stroke-width:1.0416666666666667;fill:none;"/><polygon points="182.8125,383.6995,182.8125,383.9185,193.378,383.268,203.9435,383.9009,214.5089,384.1159,225.0744,382.9564,235.6399,383.6186,246.2054,383.2553,256.7708,383.3001,267.3363,383.6285,277.9018,382.9794,288.4673,384.2763,299.0327,383.043,309.5982,383.4935,320.1637,384.1495,330.7292,383.6995,330.6994,383.6995,330.7529,384.5329,330.7181,385.3662,330.7912,386.1995,330.8122,387.0329,330.7292,387.8662,330.7292,388.4763,320.1637,388.5652,309.5982,388.5738,299.0327,388.1314,288.4673,388.3491,277.9018,388.5977,267.3363,387.115,256.7708,388.573,246.2054,387.5574,235.6399,388.4223,225.0744,387.3506,214.5089,387.7949,203.9435,388.6387,193.378,387.8154,182.8125,387.8662,182.8491,387.8662,182.9301,387.0329,182.957,386.1995,182.8111,385.3662,182.9122,384.5329,182.8125,383.6995" style="stroke:#00000000;stroke-width:1.0416666666666667;fill:none;"/><polygon fill="none" points="186.9792,352.4821,186.9792,352.701,197.7163,352.0505,208.4535,352.6834,219.1907,352.8984,229.9279,351.739,240.6651,352.4011,251.4022,352.0378,262.1394,352.0826,272.8766,352.4111,283.6138,351.7619,294.351,353.0588,305.0881,351.8256,315.8253,352.2761,326.5625,352.4821,326.6199,352.6207,327.1404,352.6987,327.7501,352.9921,328.326,353.2041,328.9432,353.5157,329.5088,353.7025,329.5855,353.7343,329.9407,354.3696,330.2122,354.9702,330.4589,355.5605,330.5668,356.0933,330.7292,356.6488,331.2121,356.6488,331.4607,366.7851,329.9779,376.9215,331.4359,387.0578,330.4203,397.1942,331.2852,407.3305,330.2135,417.4669,330.6578,427.6033,331.5017,437.7396,330.7292,447.876,330.7135,447.8695,330.5189,448.4792,330.3496,449.0995,330.1305,449.6991,329.7516,450.2325,329.5088,450.8223,329.5469,450.9144,328.8435,450.8827,328.3681,451.4016,327.8139,451.7303,327.2108,451.9412,326.5625,452.0426,326.5625,452.6812,315.8253,451.5394,305.0881,451.3633,294.351,451.3954,283.6138,451.9813,272.8766,451.8379,262.1394,452.7524,251.4022,451.8607,240.6651,451.6853,229.9279,452.2804,219.1907,451.348,208.4535,451.5019,197.7163,452.7186,186.9792,452.0426,187.0371,452.1824,186.4875,452.0342,185.7579,451.4513,185.2538,451.4128,184.7006,451.2557,184.0329,450.8223,183.8813,450.7595,183.7581,450.2203,183.5851,449.6605,183.5097,449.1411,183.0552,448.4647,182.8125,447.876,183.2943,447.876,182.2356,437.7396,182.107,427.6033,183.3371,417.4669,182.0657,407.3305,183.3427,397.1942,183.0277,387.0578,182.5334,376.9215,182.444,366.7851,182.8125,356.6488,182.9597,356.7097,182.9606,356.0197,183.4905,355.5489,183.3674,354.8075,183.9869,354.3738,184.0329,353.7025,184.0972,353.8578,184.6547,353.537,185.2177,353.2295,185.8972,353.2033,186.4714,352.923,186.9792,352.4821" style="stroke:#333333;stroke-width:1.0416666666666667;"/><polygon points="230.8388,372.7079,229.3119,374.7942,227.5059,377.85,224.9229,379.9094,222.2087,381.0355,220.0445,381.1333,217.263,379.7249,214.6384,378.8048,212.6463,376.9366,211.6014,374.798,210.9817,373.0951,210.3746,370.8708,209.3892,368.9568,210.1464,367.088,210.8098,365.0408,213.2995,363.4218,215.0511,361.321,217.2191,360.6234,219.7965,360.0227,223.1017,360.3796,224.912,361.2334,227.0168,361.6204,229.5759,364.2423,230.4681,367.0103,230.8557,368.8989,230.4166,372.0112" style="stroke:#4D4D4D;stroke-width:1.0416666666666667;fill:none;"/><path d="M222.2689,374.6012 Q221.8457,374.8128 221.3737,374.9268 Q220.9017,375.0407 220.3971,375.0407 Q218.5417,375.0407 217.5651,373.8363 Q216.6048,372.6156 216.6048,370.3206 Q216.6048,368.0094 217.5651,366.805 Q218.5417,365.5843 220.3971,365.5843 Q220.9017,365.5843 221.3737,365.6982 Q221.862,365.7959 222.2689,366.0238 L222.2689,368.0257 Q221.8132,367.6025 221.3737,367.4072 Q220.9342,367.1956 220.4785,367.1956 Q219.4857,367.1956 218.9811,367.9932 Q218.4766,368.7744 218.4766,370.3206 Q218.4766,371.8506 218.9811,372.6318 Q219.4857,373.4131 220.4785,373.4131 Q220.9342,373.4131 221.3737,373.2178 Q221.8132,373.0225 222.2689,372.5993 L222.2689,374.6012 Z " fill="#000000"/><text fill="#2E2E2E" font-family="Segoe Print" font-size="12.5" lengthAdjust="spacing" textLength="55.2083" x="244.2188" y="374.5015">ArrayList</text><path d="M183.8542,387.8662 L183.8542,388.1581 L194.2708,387.2908 L204.6875,388.1347 L215.1042,388.4213 L225.5208,386.8754 L235.9375,387.7583 L246.3542,387.2739 L256.7708,387.3336 L267.1875,387.7715 L277.6042,386.906 L288.0208,388.6352 L298.4375,386.9908 L308.8542,387.5915 L319.2708,388.4661 L329.6875,387.8662 " style="stroke:#333333;stroke-width:1.0416666666666667;fill:none;"/><text fill="#555555" font-family="Segoe Print" font-size="11.4583" lengthAdjust="spacing" textLength="125" x="194.2708" y="407.8771">Object[] elementData</text><path d="M183.8542,419.9544 L183.8542,420.2463 L194.2708,419.379 L204.6875,420.2229 L215.1042,420.5095 L225.5208,418.9636 L235.9375,419.8465 L246.3542,419.3621 L256.7708,419.4218 L267.1875,419.8598 L277.6042,418.9942 L288.0208,420.7234 L298.4375,419.079 L308.8542,419.6798 L319.2708,420.5544 L329.6875,419.9544 " style="stroke:#333333;stroke-width:1.0416666666666667;fill:none;"/><text fill="#555555" font-family="Segoe Print" font-size="11.4583" lengthAdjust="spacing" textLength="31.25" x="194.2708" y="439.9653">size()</text><!--MD5=[15b68e006199004da79ea2a4d117d8e9]
class TimeUnit--><polygon points="377.6042,6.6488,377.6042,6.8677,387.5579,6.2172,397.5116,6.8501,407.4653,7.0651,417.419,5.9056,427.3727,6.5678,437.3264,6.2045,447.2801,6.2493,457.2338,6.5778,467.1875,6.6488,467.0956,6.427,467.8503,7.0704,468.2823,6.9347,468.929,7.3176,469.6019,7.7636,470.1338,7.8692,470.1063,7.8578,470.3997,8.4675,470.6117,9.0434,470.9233,9.6606,471.1868,10.2579,471.3542,10.8154,471.9643,10.8154,472.0532,21.2683,472.0617,31.7213,471.6194,42.1742,471.8371,52.6271,472.0857,63.08,470.6029,73.5329,472.0609,83.9859,471.0453,94.4388,471.9102,104.8917,470.8385,115.3446,471.3542,125.7975,471.3322,125.7884,471.348,126.4853,470.8504,126.9696,470.6557,127.5793,470.4865,128.1995,470.1338,128.7438,470.1891,128.8773,469.544,128.9866,468.9934,129.3241,468.29,129.2924,467.8145,129.8113,467.1875,129.9642,467.1875,130.5352,457.2338,130.4272,447.2801,130.6028,437.3264,129.461,427.3727,129.2848,417.419,129.3169,407.4653,129.9029,397.5116,129.7595,387.5579,130.674,377.6042,129.9642,377.581,129.9082,376.9693,129.6101,376.456,129.5493,375.7478,129.018,375.1782,128.8214,374.6579,128.7438,374.8661,128.83,374.5536,128.2124,374.4054,127.6629,373.8224,126.9333,373.784,126.4292,373.4375,125.7975,374.0525,125.7975,372.9454,115.3446,373.3376,104.8917,373.5687,94.4388,374.1164,83.9859,373.4331,73.5329,373.9193,63.08,372.8606,52.6271,372.732,42.1742,373.9621,31.7213,372.6907,21.2683,373.4375,10.8154,373.6008,10.8831,373.7479,10.2536,373.8397,9.6013,374.0562,9.0007,374.561,8.5194,374.6579,7.8692,374.6181,7.7731,375.3258,7.8149,375.763,7.2037,376.5077,7.335,377.0793,7.0482,377.6042,6.6488" style="stroke:#333333;stroke-width:1.0416666666666667;fill:none;"/><polygon points="377.6042,6.6488,377.6042,6.8677,387.5579,6.2172,397.5116,6.8501,407.4653,7.0651,417.419,5.9056,427.3727,6.5678,437.3264,6.2045,447.2801,6.2493,457.2338,6.5778,467.1875,6.6488,467.0956,6.427,467.8503,7.0704,468.2823,6.9347,468.929,7.3176,469.6019,7.7636,470.1338,7.8692,470.1063,7.8578,470.3997,8.4675,470.6117,9.0434,470.9233,9.6606,471.1868,10.2579,471.3542,10.8154,471.5575,10.8154,471.5872,16.2256,471.59,21.6357,471.4426,27.0459,471.5151,32.4561,471.3542,37.8662,471.5794,37.9595,470.8787,38.3596,471.0837,39.1349,470.5268,39.5946,470.5491,40.2942,470.1338,40.8125,470.068,40.6537,469.5354,41.0346,469.0538,41.5385,468.3595,41.5291,467.7907,41.8226,467.1875,42.0329,467.1875,42.3856,457.2338,42.4665,447.2801,42.0288,437.3264,42.3321,427.3727,41.4366,417.419,42.3291,407.4653,42.6039,397.5116,42.4959,387.5579,42.6714,377.6042,42.0329,377.54,41.8779,376.9283,41.5796,376.3431,41.3454,375.8286,41.2818,375.221,40.9935,374.6579,40.8125,374.8765,40.903,374.3578,40.2,374.0597,39.5884,373.9989,39.0751,373.4677,38.3669,373.4375,37.8662,373.2572,37.8662,373.6628,32.4561,373.5888,27.0459,373.6925,21.6357,373.3258,16.2256,373.4375,10.8154,373.5399,10.8578,373.871,10.3046,373.7741,9.5741,374.139,9.0349,374.4542,8.4751,374.6579,7.8692,374.7445,8.0782,375.2466,7.6237,375.8979,7.5294,376.3521,6.9593,376.9249,6.6756,377.6042,6.6488" style="stroke:#00000000;stroke-width:1.0416666666666667;fill:none;"/><polygon points="373.4375,37.8662,373.4375,38.0852,384.3171,37.4346,395.1968,38.0676,406.0764,38.2825,416.956,37.1231,427.8356,37.7853,438.7153,37.4219,449.5949,37.4667,460.4745,37.7952,471.3542,37.8662,471.1141,37.8662,471.5464,38.6995,471.1353,39.5329,471.2855,40.3662,471.5041,41.1995,471.3542,42.0329,471.3542,41.9435,460.4745,42.104,449.5949,41.9996,438.7153,42.2188,427.8356,42.282,416.956,42.643,406.0764,42.7319,395.1968,42.7404,384.3171,42.2981,373.4375,42.0329,373.5985,42.0329,373.6813,41.1995,373.1871,40.3662,373.6731,39.5329,373.3345,38.6995,373.4375,37.8662" style="stroke:#00000000;stroke-width:1.0416666666666667;fill:none;"/><polygon fill="none" points="377.6042,6.6488,377.6042,6.8677,387.5579,6.2172,397.5116,6.8501,407.4653,7.0651,417.419,5.9056,427.3727,6.5678,437.3264,6.2045,447.2801,6.2493,457.2338,6.5778,467.1875,6.6488,467.0956,6.427,467.8503,7.0704,468.2823,6.9347,468.929,7.3176,469.6019,7.7636,470.1338,7.8692,470.1063,7.8578,470.3997,8.4675,470.6117,9.0434,470.9233,9.6606,471.1868,10.2579,471.3542,10.8154,471.9643,10.8154,472.0532,21.2683,472.0617,31.7213,471.6194,42.1742,471.8371,52.6271,472.0857,63.08,470.6029,73.5329,472.0609,83.9859,471.0453,94.4388,471.9102,104.8917,470.8385,115.3446,471.3542,125.7975,471.3322,125.7884,471.348,126.4853,470.8504,126.9696,470.6557,127.5793,470.4865,128.1995,470.1338,128.7438,470.1891,128.8773,469.544,128.9866,468.9934,129.3241,468.29,129.2924,467.8145,129.8113,467.1875,129.9642,467.1875,130.5352,457.2338,130.4272,447.2801,130.6028,437.3264,129.461,427.3727,129.2848,417.419,129.3169,407.4653,129.9029,397.5116,129.7595,387.5579,130.674,377.6042,129.9642,377.581,129.9082,376.9693,129.6101,376.456,129.5493,375.7478,129.018,375.1782,128.8214,374.6579,128.7438,374.8661,128.83,374.5536,128.2124,374.4054,127.6629,373.8224,126.9333,373.784,126.4292,373.4375,125.7975,374.0525,125.7975,372.9454,115.3446,373.3376,104.8917,373.5687,94.4388,374.1164,83.9859,373.4331,73.5329,373.9193,63.08,372.8606,52.6271,372.732,42.1742,373.9621,31.7213,372.6907,21.2683,373.4375,10.8154,373.6008,10.8831,373.7479,10.2536,373.8397,9.6013,374.0562,9.0007,374.561,8.5194,374.6579,7.8692,374.6181,7.7731,375.3258,7.8149,375.763,7.2037,376.5077,7.335,377.0793,7.0482,377.6042,6.6488" style="stroke:#333333;stroke-width:1.0416666666666667;"/><polygon points="398.495,26.8746,396.9681,28.9609,395.1621,32.0167,392.5792,34.076,389.8649,35.2022,387.7008,35.2999,384.9192,33.8915,382.2947,32.9714,380.3026,31.1033,379.2576,28.9647,378.6379,27.2618,378.0308,25.0375,377.0454,23.1235,377.8027,21.2546,378.4661,19.2075,380.9558,17.5884,382.7074,15.4877,384.8754,14.7901,387.4528,14.1894,390.758,14.5463,392.5683,15.4,394.673,15.787,397.2322,18.409,398.1243,21.1769,398.5119,23.0656,398.0729,26.1778" style="stroke:#E6AE06;stroke-width:1.0416666666666667;fill:none;"/><path d="M390.5599,29.0283 L384.8796,29.0283 L384.8796,19.9137 L390.5599,19.9137 L390.5599,21.5088 L386.6862,21.5088 L386.6862,23.4619 L390.1855,23.4619 L390.1855,25.057 L386.6862,25.057 L386.6862,27.4333 L390.5599,27.4333 L390.5599,29.0283 Z " fill="#000000"/><text fill="#2E2E2E" font-family="Segoe Print" font-size="12.5" lengthAdjust="spacing" textLength="56.25" x="406.7708" y="28.6682">TimeUnit</text><path d="M374.4792,42.0329 L374.4792,42.3248 L385.1273,41.4574 L395.7755,42.3013 L406.4236,42.588 L417.0718,41.0421 L427.7199,41.9249 L438.3681,41.4405 L449.0162,41.5002 L459.6644,41.9382 L470.3125,42.0329 " style="stroke:#333333;stroke-width:1.0416666666666667;fill:none;"/><text fill="#555555" font-family="Segoe Print" font-size="11.4583" lengthAdjust="spacing" textLength="31.25" x="384.8958" y="62.0438">DAYS</text><text fill="#555555" font-family="Segoe Print" font-size="11.4583" lengthAdjust="spacing" textLength="41.6667" x="384.8958" y="85.7986">HOURS</text><text fill="#555555" font-family="Segoe Print" font-size="11.4583" lengthAdjust="spacing" textLength="52.0833" x="384.8958" y="109.5535">MINUTES</text><path d="M374.4792,121.6309 L374.4792,121.9228 L385.1273,121.0554 L395.7755,121.8993 L406.4236,122.186 L417.0718,120.64 L427.7199,121.5229 L438.3681,121.0385 L449.0162,121.0982 L459.6644,121.5362 L470.3125,121.6309 " style="stroke:#333333;stroke-width:1.0416666666666667;fill:none;"/><!--MD5=[0c8287f799745f7b534bf75518604c1e]
class SuppressWarnings--><polygon points="506.25,42.0654,506.25,42.2844,516.5972,41.6338,526.9444,42.2668,537.2917,42.4818,547.6389,41.3223,557.9861,41.9845,568.3333,41.6212,578.6806,41.666,589.0278,41.9944,599.375,41.3453,609.7222,42.6421,620.0694,41.4089,630.4167,41.8594,640.7639,42.5154,651.1111,41.9761,661.4583,42.0654,661.4674,42.0873,662.0433,42.2993,662.6606,42.6109,663.2579,42.8744,663.8932,43.2296,664.4046,43.2858,664.6199,43.375,664.8666,43.9653,664.9744,44.4982,665.2856,45.1152,665.6062,45.7362,665.625,46.2321,665.3746,46.2321,665.8606,54.9756,665.522,63.7191,665.8104,72.4626,665.4531,81.2061,665.625,89.9495,665.603,89.9404,665.6188,90.6373,665.1212,91.1216,664.9265,91.7313,664.7573,92.3516,664.4046,92.8958,664.4599,93.0293,663.8148,93.1386,663.2643,93.4761,662.5608,93.4444,662.0854,93.9634,661.4583,94.1162,661.4583,94.6872,651.1111,94.5793,640.7639,94.7548,630.4167,93.613,620.0694,93.4369,609.7222,93.4689,599.375,94.0549,589.0278,93.9115,578.6806,94.826,568.3333,93.9343,557.9861,93.7589,547.6389,94.354,537.2917,93.4216,526.9444,93.5755,516.5972,94.7922,506.25,94.1162,506.3079,94.256,505.7583,94.1078,505.0287,93.5248,504.5246,93.4864,503.9714,93.3293,503.3037,92.8958,503.1522,92.8331,503.0289,92.2938,502.856,91.7341,502.7806,91.2147,502.3261,90.5382,502.0833,89.9495,502.2439,89.9495,501.891,81.2061,501.8482,72.4626,502.2582,63.7191,501.8344,54.9756,502.0833,46.2321,502.2466,46.2997,502.3937,45.6703,502.4855,45.018,502.7021,44.4173,503.2068,43.936,503.3037,43.2858,503.2639,43.1898,503.9716,43.2316,504.4088,42.6203,505.1535,42.7516,505.7251,42.4649,506.25,42.0654" style="stroke:#333333;stroke-width:1.0416666666666667;fill:none;"/><polygon points="506.25,42.0654,506.25,42.2844,516.5972,41.6338,526.9444,42.2668,537.2917,42.4818,547.6389,41.3223,557.9861,41.9845,568.3333,41.6212,578.6806,41.666,589.0278,41.9944,599.375,41.3453,609.7222,42.6421,620.0694,41.4089,630.4167,41.8594,640.7639,42.5154,651.1111,41.9761,661.4583,42.0654,661.4674,42.0873,662.0433,42.2993,662.6606,42.6109,663.2579,42.8744,663.8932,43.2296,664.4046,43.2858,664.6199,43.375,664.8666,43.9653,664.9744,44.4982,665.2856,45.1152,665.6062,45.7362,665.625,46.2321,665.3746,46.2321,665.8606,51.6423,665.522,57.0524,665.8104,62.4626,665.4531,67.8727,665.625,73.2829,665.603,73.2738,665.6188,73.9707,665.1212,74.4549,664.9265,75.0646,664.7573,75.6849,664.4046,76.2292,664.4599,76.3627,663.8148,76.472,663.2643,76.8094,662.5608,76.7778,662.0854,77.2967,661.4583,77.4495,661.4583,78.0206,651.1111,77.9126,640.7639,78.0881,630.4167,76.9463,620.0694,76.7702,609.7222,76.8023,599.375,77.3882,589.0278,77.2448,578.6806,78.1593,568.3333,77.2676,557.9861,77.0922,547.6389,77.6873,537.2917,76.7549,526.9444,76.9088,516.5972,78.1255,506.25,77.4495,506.3079,77.5893,505.7583,77.4411,505.0287,76.8582,504.5246,76.8197,503.9714,76.6626,503.3037,76.2292,503.1522,76.1664,503.0289,75.6272,502.856,75.0674,502.7806,74.548,502.3261,73.8716,502.0833,73.2829,502.2439,73.2829,501.891,67.8727,501.8482,62.4626,502.2582,57.0524,501.8344,51.6423,502.0833,46.2321,502.2466,46.2997,502.3937,45.6703,502.4855,45.018,502.7021,44.4173,503.2068,43.936,503.3037,43.2858,503.2639,43.1898,503.9716,43.2316,504.4088,42.6203,505.1535,42.7516,505.7251,42.4649,506.25,42.0654" style="stroke:#00000000;stroke-width:1.0416666666666667;fill:none;"/><polygon points="502.0833,73.2829,502.0833,73.5018,512.3047,72.8513,522.526,73.4842,532.7474,73.6992,542.9688,72.5398,553.1901,73.2019,563.4115,72.8386,573.6328,72.8834,583.8542,73.2119,594.0755,72.5627,604.2969,73.8596,614.5182,72.6263,624.7396,73.0769,634.9609,73.7328,645.1823,73.1935,655.4036,73.354,665.625,73.2829,665.6139,73.2829,665.687,74.1162,665.708,74.9495,665.8284,75.7829,665.858,76.6162,665.625,77.4495,665.625,78.1571,655.4036,77.7148,645.1823,77.9324,634.9609,78.181,624.7396,76.6983,614.5182,78.1563,604.2969,77.1407,594.0755,78.0056,583.8542,76.9339,573.6328,77.3782,563.4115,78.222,553.1901,77.3988,542.9688,77.5592,532.7474,77.8023,522.526,77.8831,512.3047,77.4455,502.0833,77.4495,502.1831,77.4495,501.8846,76.6162,502.1821,75.7829,502.2737,74.9495,502.2377,74.1162,502.0833,73.2829" style="stroke:#00000000;stroke-width:1.0416666666666667;fill:none;"/><polygon fill="none" points="506.25,42.0654,506.25,42.2844,516.5972,41.6338,526.9444,42.2668,537.2917,42.4818,547.6389,41.3223,557.9861,41.9845,568.3333,41.6212,578.6806,41.666,589.0278,41.9944,599.375,41.3453,609.7222,42.6421,620.0694,41.4089,630.4167,41.8594,640.7639,42.5154,651.1111,41.9761,661.4583,42.0654,661.4674,42.0873,662.0433,42.2993,662.6606,42.6109,663.2579,42.8744,663.8932,43.2296,664.4046,43.2858,664.6199,43.375,664.8666,43.9653,664.9744,44.4982,665.2856,45.1152,665.6062,45.7362,665.625,46.2321,665.3746,46.2321,665.8606,54.9756,665.522,63.7191,665.8104,72.4626,665.4531,81.2061,665.625,89.9495,665.603,89.9404,665.6188,90.6373,665.1212,91.1216,664.9265,91.7313,664.7573,92.3516,664.4046,92.8958,664.4599,93.0293,663.8148,93.1386,663.2643,93.4761,662.5608,93.4444,662.0854,93.9634,661.4583,94.1162,661.4583,94.6872,651.1111,94.5793,640.7639,94.7548,630.4167,93.613,620.0694,93.4369,609.7222,93.4689,599.375,94.0549,589.0278,93.9115,578.6806,94.826,568.3333,93.9343,557.9861,93.7589,547.6389,94.354,537.2917,93.4216,526.9444,93.5755,516.5972,94.7922,506.25,94.1162,506.3079,94.256,505.7583,94.1078,505.0287,93.5248,504.5246,93.4864,503.9714,93.3293,503.3037,92.8958,503.1522,92.8331,503.0289,92.2938,502.856,91.7341,502.7806,91.2147,502.3261,90.5382,502.0833,89.9495,502.2439,89.9495,501.891,81.2061,501.8482,72.4626,502.2582,63.7191,501.8344,54.9756,502.0833,46.2321,502.2466,46.2997,502.3937,45.6703,502.4855,45.018,502.7021,44.4173,503.2068,43.936,503.3037,43.2858,503.2639,43.1898,503.9716,43.2316,504.4088,42.6203,505.1535,42.7516,505.7251,42.4649,506.25,42.0654" style="stroke:#333333;stroke-width:1.0416666666666667;"/><polygon points="527.1409,62.2912,525.614,64.3776,523.808,67.4333,521.225,69.4927,518.5108,70.6189,516.3466,70.7166,513.565,69.3082,510.9405,68.3881,508.9484,66.52,507.9035,64.3813,507.2838,62.6784,506.6767,60.4542,505.6913,58.5401,506.4485,56.6713,507.1119,54.6242,509.6016,53.0051,511.3532,50.9044,513.5212,50.2068,516.0986,49.606,519.4038,49.9629,521.2141,50.8167,523.3189,51.2037,525.878,53.8257,526.7701,56.5936,527.1577,58.4823,526.7187,61.5945" style="stroke:#1592A6;stroke-width:1.0416666666666667;fill:none;"/><path d="M517.9199,59.5622 Q517.9199,58.8623 517.6107,58.4717 Q517.3014,58.0811 516.748,58.0811 Q516.2109,58.0811 515.9017,58.4717 Q515.5924,58.8623 515.5924,59.5622 Q515.5924,60.2458 515.9017,60.6364 Q516.2109,61.027 516.748,61.027 Q517.3014,61.027 517.6107,60.6364 Q517.9199,60.2458 517.9199,59.5622 Z M519.0592,62.0524 L517.8548,62.0524 L517.8548,61.5641 Q517.627,61.8734 517.3014,62.0361 Q516.9922,62.1826 516.5527,62.1826 Q515.5599,62.1826 514.9414,61.4665 Q514.3229,60.734 514.3229,59.5622 Q514.3229,58.374 514.9251,57.6579 Q515.5436,56.9417 516.5527,56.9417 Q516.9922,56.9417 517.3177,57.0882 Q517.6432,57.2347 517.8548,57.5277 L517.8548,57.2835 Q517.8548,56.4535 517.3991,55.9977 Q516.9434,55.542 516.1133,55.542 Q514.8438,55.542 514.0299,56.665 Q513.2324,57.7718 513.2324,59.5622 Q513.2324,61.4339 514.1602,62.557 Q515.0879,63.6637 516.6341,63.6637 Q517.1224,63.6637 517.5781,63.5173 Q518.0339,63.3708 518.457,63.0778 L519.0104,64.152 Q518.5221,64.4938 517.9362,64.6566 Q517.3503,64.8356 516.6992,64.8356 Q514.5508,64.8356 513.2813,63.4033 Q512.0117,61.9873 512.0117,59.5622 Q512.0117,57.2021 513.151,55.7861 Q514.3066,54.3701 516.1784,54.3701 Q517.513,54.3701 518.278,55.1676 Q519.0592,55.9652 519.0592,57.3649 L519.0592,62.0524 Z " fill="#000000"/><text fill="#2E2E2E" font-family="Segoe Print" font-size="12.5" lengthAdjust="spacing" textLength="121.875" x="535.4167" y="64.0849">SuppressWarnings</text><path d="M503.125,77.4495 L503.125,77.7415 L513.2161,76.8741 L523.3073,77.718 L533.3984,78.0047 L543.4896,76.4587 L553.5807,77.3416 L563.6719,76.8572 L573.763,76.9169 L583.8542,77.3549 L593.9453,76.4893 L604.0365,78.2185 L614.1276,76.5742 L624.2188,77.1749 L634.3099,78.0495 L644.401,77.3304 L654.4922,77.5443 L664.5833,77.4495 " style="stroke:#333333;stroke-width:1.0416666666666667;fill:none;"/><path d="M503.125,85.7829 L503.125,86.0748 L513.2161,85.2074 L523.3073,86.0513 L533.3984,86.338 L543.4896,84.7921 L553.5807,85.6749 L563.6719,85.1905 L573.763,85.2502 L583.8542,85.6882 L593.9453,84.8226 L604.0365,86.5518 L614.1276,84.9075 L624.2188,85.5082 L634.3099,86.3828 L644.401,85.6637 L654.4922,85.8777 L664.5833,85.7829 " style="stroke:#333333;stroke-width:1.0416666666666667;fill:none;"/><!--MD5=[faebc81c07309c527f2fda51bf6b78ab]
class Annotation--><polygon points="339.0625,179.5654,339.0625,179.7844,349.4792,179.1338,359.8958,179.7668,370.3125,179.9818,380.7292,178.8223,391.1458,179.4845,401.5625,179.1212,411.9792,179.166,422.3958,179.4944,432.8125,178.8453,443.2292,180.1421,453.6458,178.9089,464.0625,179.3594,474.4792,180.0154,484.8958,179.4761,495.3125,179.6365,505.7292,179.5654,505.7249,179.5552,506.3421,179.8668,506.9395,180.1303,507.5748,180.4855,508.1754,180.757,508.6754,180.7858,508.8933,180.8761,509.0012,181.4089,509.3123,182.0259,509.6329,182.6469,509.4204,183.047,509.8958,183.7321,510.6026,183.7321,509.587,194.185,510.4519,204.6379,509.3802,215.0908,509.8245,225.5438,510.6683,235.9967,509.8451,246.4496,510.0055,256.9025,510.2486,267.3554,510.3294,277.8084,509.8918,288.2613,509.8958,298.7142,509.988,298.7524,509.4681,299.2274,509.4989,299.9305,509.3395,300.5548,509.0621,301.1303,508.6754,301.6605,508.7569,301.8571,508.022,301.7496,507.4103,301.9394,506.8251,302.1934,506.3106,302.6179,505.7292,302.8809,505.7292,302.6761,495.3125,303.5907,484.8958,302.6989,474.4792,302.5235,464.0625,303.1186,453.6458,302.1862,443.2292,302.3401,432.8125,303.5568,422.3958,303.3347,411.9792,303.646,401.5625,302.5457,391.1458,303.2134,380.7292,303.4959,370.3125,302.3888,359.8958,302.781,349.4792,303.0121,339.0625,302.8809,339.1491,303.0899,338.4727,302.6354,337.9455,302.5411,337.2211,301.971,336.6155,301.6873,336.1162,301.6605,336.2778,301.7274,335.6422,300.976,335.7913,300.5496,335.4503,299.9202,335.054,299.2678,334.8958,298.7142,334.5273,298.7142,335.3737,288.2613,334.584,277.8084,335.5124,267.3554,334.3201,256.9025,335.539,246.4496,335.4003,235.9967,335.151,225.5438,334.945,215.0908,335.6527,204.6379,335.535,194.185,334.8958,183.7321,334.9501,183.7546,335.2259,183.1785,335.3422,182.5363,335.8579,182.0595,335.9218,181.3957,336.1162,180.7858,336.1392,180.8412,336.6246,180.3466,337.2409,180.1677,337.9545,180.2238,338.5303,179.9474,339.0625,179.5654" style="stroke:#333333;stroke-width:1.0416666666666667;fill:none;"/><polygon points="339.0625,179.5654,339.0625,179.7844,349.4792,179.1338,359.8958,179.7668,370.3125,179.9818,380.7292,178.8223,391.1458,179.4845,401.5625,179.1212,411.9792,179.166,422.3958,179.4944,432.8125,178.8453,443.2292,180.1421,453.6458,178.9089,464.0625,179.3594,474.4792,180.0154,484.8958,179.4761,495.3125,179.6365,505.7292,179.5654,505.7249,179.5552,506.3421,179.8668,506.9395,180.1303,507.5748,180.4855,508.1754,180.757,508.6754,180.7858,508.8933,180.8761,509.0012,181.4089,509.3123,182.0259,509.6329,182.6469,509.4204,183.047,509.8958,183.7321,510.1314,183.7321,509.7929,189.1423,510.0812,194.5524,509.724,199.9626,509.872,205.3727,509.8958,210.7829,510.1337,210.8814,509.6361,211.3657,509.4415,211.9754,509.2722,212.5956,509.053,213.1952,508.6754,213.7292,508.6749,213.7279,508.1244,214.0654,507.4209,214.0337,506.9455,214.5526,506.3913,214.8813,505.7292,214.9495,505.7292,215.4126,495.3125,215.5881,484.8958,214.4463,474.4792,214.2702,464.0625,214.3023,453.6458,214.8882,443.2292,214.7448,432.8125,215.6593,422.3958,214.7676,411.9792,214.5922,401.5625,215.1873,391.1458,214.2549,380.7292,214.4088,370.3125,215.6255,359.8958,215.4034,349.4792,215.7146,339.0625,214.9495,339.0197,214.8463,338.5157,214.8079,337.9624,214.6508,337.232,214.0658,336.6927,213.9425,336.1162,213.7292,336.1566,213.7459,336.0812,213.2265,335.6267,212.5501,335.5324,212.0229,334.9623,211.2985,334.8958,210.7829,334.6607,210.7829,335.0707,205.3727,334.6469,199.9626,335.0726,194.5524,334.9676,189.1423,334.8958,183.7321,334.8099,183.6965,335.0264,183.0958,335.5312,182.6145,335.532,181.9246,336.062,181.4537,336.1162,180.7858,336.0428,180.6085,336.7875,180.7398,337.3591,180.453,337.9165,180.1322,338.4795,179.8247,339.0625,179.5654" style="stroke:#00000000;stroke-width:1.0416666666666667;fill:none;"/><polygon points="334.8958,210.7829,334.8958,211.0018,345.19,210.3513,355.4841,210.9842,365.7782,211.1992,376.0723,210.0398,386.3664,210.7019,396.6605,210.3386,406.9547,210.3834,417.2488,210.7119,427.5429,210.0627,437.837,211.3596,448.1311,210.1263,458.4252,210.5769,468.7194,211.2328,479.0135,210.6935,489.3076,210.854,499.6017,210.7496,509.8958,210.7829,509.9578,210.7829,509.9789,211.6162,510.0992,212.4495,510.1288,213.2829,510.1317,214.1162,509.8958,214.9495,509.8958,215.2148,499.6017,215.4324,489.3076,215.681,479.0135,214.1983,468.7194,215.6563,458.4252,214.6407,448.1311,215.5056,437.837,214.4339,427.5429,214.8782,417.2488,215.722,406.9547,214.8988,396.6605,215.0592,386.3664,215.3023,376.0723,215.3831,365.7782,214.9455,355.4841,215.2487,345.19,214.3533,334.8958,214.9495,334.9946,214.9495,335.0862,214.1162,335.0502,213.2829,335.1087,212.4495,334.7281,211.6162,334.8958,210.7829" style="stroke:#00000000;stroke-width:1.0416666666666667;fill:none;"/><polygon fill="none" points="339.0625,179.5654,339.0625,179.7844,349.4792,179.1338,359.8958,179.7668,370.3125,179.9818,380.7292,178.8223,391.1458,179.4845,401.5625,179.1212,411.9792,179.166,422.3958,179.4944,432.8125,178.8453,443.2292,180.1421,453.6458,178.9089,464.0625,179.3594,474.4792,180.0154,484.8958,179.4761,495.3125,179.6365,505.7292,179.5654,505.7249,179.5552,506.3421,179.8668,506.9395,180.1303,507.5748,180.4855,508.1754,180.757,508.6754,180.7858,508.8933,180.8761,509.0012,181.4089,509.3123,182.0259,509.6329,182.6469,509.4204,183.047,509.8958,183.7321,510.6026,183.7321,509.587,194.185,510.4519,204.6379,509.3802,215.0908,509.8245,225.5438,510.6683,235.9967,509.8451,246.4496,510.0055,256.9025,510.2486,267.3554,510.3294,277.8084,509.8918,288.2613,509.8958,298.7142,509.988,298.7524,509.4681,299.2274,509.4989,299.9305,509.3395,300.5548,509.0621,301.1303,508.6754,301.6605,508.7569,301.8571,508.022,301.7496,507.4103,301.9394,506.8251,302.1934,506.3106,302.6179,505.7292,302.8809,505.7292,302.6761,495.3125,303.5907,484.8958,302.6989,474.4792,302.5235,464.0625,303.1186,453.6458,302.1862,443.2292,302.3401,432.8125,303.5568,422.3958,303.3347,411.9792,303.646,401.5625,302.5457,391.1458,303.2134,380.7292,303.4959,370.3125,302.3888,359.8958,302.781,349.4792,303.0121,339.0625,302.8809,339.1491,303.0899,338.4727,302.6354,337.9455,302.5411,337.2211,301.971,336.6155,301.6873,336.1162,301.6605,336.2778,301.7274,335.6422,300.976,335.7913,300.5496,335.4503,299.9202,335.054,299.2678,334.8958,298.7142,334.5273,298.7142,335.3737,288.2613,334.584,277.8084,335.5124,267.3554,334.3201,256.9025,335.539,246.4496,335.4003,235.9967,335.151,225.5438,334.945,215.0908,335.6527,204.6379,335.535,194.185,334.8958,183.7321,334.9501,183.7546,335.2259,183.1785,335.3422,182.5363,335.8579,182.0595,335.9218,181.3957,336.1162,180.7858,336.1392,180.8412,336.6246,180.3466,337.2409,180.1677,337.9545,180.2238,338.5303,179.9474,339.0625,179.5654" style="stroke:#333333;stroke-width:1.0416666666666667;"/><polygon points="387.6096,199.7912,386.0827,201.8776,384.2767,204.9333,381.6938,206.9927,378.9795,208.1189,376.8153,208.2166,374.0338,206.8082,371.4092,205.8881,369.4172,204.02,368.3722,201.8813,367.7525,200.1784,367.1454,197.9542,366.16,196.0401,366.9173,194.1713,367.5807,192.1242,370.0704,190.5051,371.8219,188.4044,373.99,187.7068,376.5673,187.106,379.8725,187.4629,381.6828,188.3167,383.7876,188.7037,386.3468,191.3257,387.2389,194.0936,387.6265,195.9823,387.1875,199.0945" style="stroke:#1592A6;stroke-width:1.0416666666666667;fill:none;"/><path d="M378.3887,197.0622 Q378.3887,196.3623 378.0794,195.9717 Q377.7702,195.5811 377.2168,195.5811 Q376.6797,195.5811 376.3704,195.9717 Q376.0612,196.3623 376.0612,197.0622 Q376.0612,197.7458 376.3704,198.1364 Q376.6797,198.527 377.2168,198.527 Q377.7702,198.527 378.0794,198.1364 Q378.3887,197.7458 378.3887,197.0622 Z M379.528,199.5524 L378.3236,199.5524 L378.3236,199.0641 Q378.0957,199.3734 377.7702,199.5361 Q377.4609,199.6826 377.0215,199.6826 Q376.0286,199.6826 375.4102,198.9665 Q374.7917,198.234 374.7917,197.0622 Q374.7917,195.874 375.3939,195.1579 Q376.0124,194.4417 377.0215,194.4417 Q377.4609,194.4417 377.7865,194.5882 Q378.112,194.7347 378.3236,195.0277 L378.3236,194.7835 Q378.3236,193.9535 377.8678,193.4977 Q377.4121,193.042 376.582,193.042 Q375.3125,193.042 374.4987,194.165 Q373.7012,195.2718 373.7012,197.0622 Q373.7012,198.9339 374.6289,200.057 Q375.5566,201.1637 377.1029,201.1637 Q377.5911,201.1637 378.0469,201.0173 Q378.5026,200.8708 378.9258,200.5778 L379.4792,201.652 Q378.9909,201.9938 378.4049,202.1566 Q377.819,202.3356 377.168,202.3356 Q375.0195,202.3356 373.75,200.9033 Q372.4805,199.4873 372.4805,197.0622 Q372.4805,194.7021 373.6198,193.2861 Q374.7754,191.8701 376.6471,191.8701 Q377.9818,191.8701 378.7467,192.6676 Q379.528,193.4652 379.528,194.8649 L379.528,199.5524 Z " fill="#000000"/><text fill="#2E2E2E" font-family="Segoe Print" font-size="12.5" lengthAdjust="spacing" textLength="71.875" x="402.0313" y="201.5849">Annotation</text><path d="M335.9375,214.9495 L335.9375,215.2415 L346.1091,214.3741 L356.2806,215.218 L366.4522,215.5047 L376.6238,213.9587 L386.7953,214.8416 L396.9669,214.3572 L407.1385,214.4169 L417.31,214.8549 L427.4816,213.9893 L437.6532,215.7185 L447.8248,214.0742 L457.9963,214.6749 L468.1679,215.5495 L478.3395,214.8304 L488.511,215.0443 L498.6826,214.9052 L508.8542,214.9495 " style="stroke:#333333;stroke-width:1.0416666666666667;fill:none;"/><text fill="#555555" font-family="Segoe Print" font-size="11.4583" lengthAdjust="spacing" textLength="152.0833" x="346.3542" y="234.9604">annotation with members</text><path d="M335.9375,247.0378 L335.9375,247.3297 L346.1091,246.4623 L356.2806,247.3062 L366.4522,247.5929 L376.6238,246.0469 L386.7953,246.9298 L396.9669,246.4454 L407.1385,246.5051 L417.31,246.9431 L427.4816,246.0775 L437.6532,247.8067 L447.8248,246.1624 L457.9963,246.7631 L468.1679,247.6377 L478.3395,246.9186 L488.511,247.1325 L498.6826,246.9934 L508.8542,247.0378 " style="stroke:#333333;stroke-width:1.0416666666666667;fill:none;"/><text fill="#555555" font-family="Segoe Print" font-size="11.4583" lengthAdjust="spacing" textLength="66.6667" x="346.3542" y="267.0486">String foo()</text><text fill="#555555" font-family="Segoe Print" font-size="11.4583" lengthAdjust="spacing" textLength="67.7083" x="346.3542" y="290.8035">String bar()</text><path d="M231.0198,94.3558 L231.3073,94.4066 L232.2302,104.3051 L234.8383,114.5016 L236.8976,124.601 L237.1523,134.3813 L239.7988,144.5846 L241.0988,154.5497 L242.9347,164.6096 L245.143,174.7354 L246.0677,184.6342 L249.5475,194.9848 L249.7053,204.748 L252.3444,214.9499 " fill="none" style="stroke:#333333;stroke-width:3.125;"/><polygon points="231.0198,94.3558,231.0916,94.3691,230.2279,97.8296,229.7849,101.3682,229.2049,104.8814,228.1744,108.3108,227.7675,111.8562,227.7628,111.8296,230.2035,111.275,232.6679,110.8544,235.1488,110.5269,237.5729,109.8785,240.0765,109.6796,240.242,109.7774,238.0768,106.5035,236.3947,103.5151,234.7716,100.5616,232.8055,97.4054,231.0198,94.3558" style="stroke:#333333;stroke-width:1.0416666666666667;fill:none;"/><path d="M95.8588,94.3558 L96.1502,94.3736 L94.6717,104.3703 L94.9012,114.4712 L94.5746,124.5381 L92.4187,134.4935 L92.6872,144.5968 L91.5909,154.6168 L91.0377,164.67 L90.8621,174.7461 L89.3854,184.743 L90.4986,194.8977 L88.2445,204.8471 L88.5055,214.9499 " fill="none" style="stroke:#333333;stroke-width:3.125;"/><polygon points="95.8588,94.3558,95.9255,94.3855,94.2769,97.5483,93.019,100.8853,91.6339,104.1656,89.8304,107.2592,88.606,110.6112,88.6044,110.5843,91.0924,110.6155,93.5887,110.7826,96.0907,111.044,98.5729,110.9802,101.0829,111.372,101.2666,111.4284,99.8288,107.9045,98.9276,104.5454,98.0918,101.2063,96.8752,97.7503,95.8588,94.3558" style="stroke:#333333;stroke-width:1.0416666666666667;fill:none;"/><path d="M150.3055,68.1071 L150.3055,68.2044 L159.1764,67.9153 L168.0472,68.1966 L176.918,68.2921 L185.7888,67.7768 L194.6596,68.1071 " fill="none" style="stroke:#333333;stroke-width:3.125;"/><polygon points="150.3055,68.1071,150.3312,68.1754,153.5884,69.2224,156.9958,70.6699,160.3543,71.987,163.5519,72.8752,166.9722,74.3571,166.9452,74.3571,166.8241,71.8571,166.8391,69.3571,166.9486,66.8571,166.7322,64.3571,166.9722,61.8571,167.0397,62.0371,163.562,62.9022,160.2814,64.2928,157.0249,65.7475,153.6284,66.8292,150.3055,68.1071" style="stroke:#333333;stroke-width:1.0416666666666667;fill:none;"/><path d="M166.9032,241.0238 L166.9032,241.1211 L173.0325,240.8319 L179.1618,241.1132 L185.2912,241.2088 L191.4205,240.6935 L197.5498,241.0238 " fill="none" style="stroke:#333333;stroke-width:3.125;"/><polygon points="166.9032,241.0238,166.9288,241.0921,170.186,242.1391,173.5934,243.5866,176.9519,244.9037,180.1495,245.7918,183.5698,247.2738,183.5428,247.2738,183.4217,244.7738,183.4367,242.2738,183.5462,239.7738,183.3298,237.2738,183.5698,234.7738,183.6373,234.9538,180.1597,235.8188,176.8791,237.2095,173.6225,238.6642,170.226,239.7459,166.9032,241.0238" style="stroke:#333333;stroke-width:1.0416666666666667;fill:none;"/><path d="M256.7708,267.3189 L257.0628,267.3189 L256.1954,277.9304 L257.0393,288.5419 L257.3259,299.1534 L255.78,309.7649 L256.6629,320.3764 L256.1785,330.9879 L256.2382,341.5994 L256.7708,352.2109 " fill="none" style="stroke:#333333;stroke-width:3.125;"/><polygon points="256.7708,267.3189,256.8392,267.3445,255.3861,270.6017,254.3337,274.0091,253.1508,277.3676,251.5389,280.5652,250.5208,283.9855,250.5208,283.9586,253.0208,283.8375,255.5208,283.8524,258.0208,283.9619,260.5208,283.7455,263.0208,283.9855,263.2008,284.053,261.5659,280.5754,260.4565,277.2948,259.4113,274.0382,257.9929,270.6417,256.7708,267.3189" style="stroke:#333333;stroke-width:1.0416666666666667;fill:none;"/></g></svg>