<?xml version="1.0" encoding="UTF-8" standalone="no"?><svg xmlns="http://www.w3.org/2000/svg" xmlns:xlink="http://www.w3.org/1999/xlink" contentScriptType="application/ecmascript" contentStyleType="text/css" height="328.125px" preserveAspectRatio="none" style="width:537px;height:328px;background:#00000000;" version="1.1" viewBox="0 0 537 328" width="537.5px" zoomAndPan="magnify"><defs><linearGradient id="g1k9nv530kybrq0" x1="50%" x2="50%" y1="0%" y2="100%"><stop offset="0%" stop-color="#F3F3F3"/><stop offset="100%" stop-color="#E2E2E2"/></linearGradient><linearGradient id="g1k9nv530kybrq1" x1="50%" x2="50%" y1="0%" y2="100%"><stop offset="0%" stop-color="#F3F3F3"/><stop offset="100%" stop-color="#888888"/></linearGradient><linearGradient id="g1k9nv530kybrq2" x1="50%" x2="50%" y1="0%" y2="100%"><stop offset="0%" stop-color="#D2D2D2"/><stop offset="100%" stop-color="#A8A8A8"/></linearGradient></defs><g><!--MD5=[f7e826e1488aa6662a4b5ddfe29b6b3b]
class abstract--><rect codeLine="6" fill="url(#g1k9nv530kybrq0)" height="62.4674" id="abstract" rx="7.8125" ry="7.8125" style="stroke:#F3F3F3;stroke-width:1.0416666666666667;" width="106.25" x="8.3333" y="13.1653"/><rect fill="url(#g1k9nv530kybrq1)" height="45.8008" rx="7.8125" ry="7.8125" style="stroke:url(#g1k9nv530kybrq1);stroke-width:1.0416666666666667;" width="106.25" x="8.3333" y="13.1653"/><rect fill="url(#g1k9nv530kybrq1)" height="7.8125" style="stroke:url(#g1k9nv530kybrq1);stroke-width:1.0416666666666667;" width="106.25" x="8.3333" y="51.1536"/><rect codeLine="6" fill="none" height="62.4674" id="abstract" rx="7.8125" ry="7.8125" style="stroke:#F3F3F3;stroke-width:1.0416666666666667;" width="106.25" x="8.3333" y="13.1653"/><ellipse cx="22.9167" cy="36.0657" fill="#5CAD5C" rx="10.4167" ry="10.4167" style="stroke:#297A29;stroke-width:1.0416666666666667;"/><path d="M22.5098,33.0221 L21.6634,36.7493 L23.3724,36.7493 L22.5098,33.0221 Z M21.4193,31.3782 L23.6165,31.3782 L26.0742,40.4928 L24.2676,40.4928 L23.7142,38.2467 L21.3053,38.2467 L20.752,40.4928 L18.9453,40.4928 L21.4193,31.3782 Z " fill="#000000"/><text fill="#336699" font-family="Verdana" font-size="12.5" font-style="italic" lengthAdjust="spacing" textLength="54.1667" x="46.875" y="40.3931">abstract</text><line style="stroke:#F3F3F3;stroke-width:1.0416666666666667;" x1="9.375" x2="113.5417" y1="58.9661" y2="58.9661"/><line style="stroke:#F3F3F3;stroke-width:1.0416666666666667;" x1="9.375" x2="113.5417" y1="67.2994" y2="67.2994"/><!--MD5=[17df400e90568e28eeaed93acf178394]
class abstract class--><rect codeLine="7" fill="url(#g1k9nv530kybrq0)" height="62.4674" id="abstract class" rx="7.8125" ry="7.8125" style="stroke:#F3F3F3;stroke-width:1.0416666666666667;" width="141.6667" x="156.25" y="13.1653"/><rect fill="url(#g1k9nv530kybrq1)" height="45.8008" rx="7.8125" ry="7.8125" style="stroke:url(#g1k9nv530kybrq1);stroke-width:1.0416666666666667;" width="141.6667" x="156.25" y="13.1653"/><rect fill="url(#g1k9nv530kybrq1)" height="7.8125" style="stroke:url(#g1k9nv530kybrq1);stroke-width:1.0416666666666667;" width="141.6667" x="156.25" y="51.1536"/><rect codeLine="7" fill="none" height="62.4674" id="abstract class" rx="7.8125" ry="7.8125" style="stroke:#F3F3F3;stroke-width:1.0416666666666667;" width="141.6667" x="156.25" y="13.1653"/><ellipse cx="170.8333" cy="36.0657" fill="#5CAD5C" rx="10.4167" ry="10.4167" style="stroke:#297A29;stroke-width:1.0416666666666667;"/><path d="M170.4264,33.0221 L169.5801,36.7493 L171.2891,36.7493 L170.4264,33.0221 Z M169.3359,31.3782 L171.5332,31.3782 L173.9909,40.4928 L172.1842,40.4928 L171.6309,38.2467 L169.222,38.2467 L168.6686,40.4928 L166.862,40.4928 L169.3359,31.3782 Z " fill="#000000"/><text fill="#336699" font-family="Verdana" font-size="12.5" font-style="italic" lengthAdjust="spacing" textLength="89.5833" x="194.7917" y="40.3931">abstract class</text><line style="stroke:#F3F3F3;stroke-width:1.0416666666666667;" x1="157.2917" x2="296.875" y1="58.9661" y2="58.9661"/><line style="stroke:#F3F3F3;stroke-width:1.0416666666666667;" x1="157.2917" x2="296.875" y1="67.2994" y2="67.2994"/><!--MD5=[7cb74e68c9f11cf3f5cc35e0143045f8]
class annotation--><rect codeLine="8" fill="url(#g1k9nv530kybrq0)" height="62.4674" id="annotation" rx="7.8125" ry="7.8125" style="stroke:#F3F3F3;stroke-width:1.0416666666666667;" width="123.9583" x="339.0625" y="13.1653"/><rect fill="url(#g1k9nv530kybrq1)" height="45.8008" rx="7.8125" ry="7.8125" style="stroke:url(#g1k9nv530kybrq1);stroke-width:1.0416666666666667;" width="123.9583" x="339.0625" y="13.1653"/><rect fill="url(#g1k9nv530kybrq1)" height="7.8125" style="stroke:url(#g1k9nv530kybrq1);stroke-width:1.0416666666666667;" width="123.9583" x="339.0625" y="51.1536"/><rect codeLine="8" fill="none" height="62.4674" id="annotation" rx="7.8125" ry="7.8125" style="stroke:#F3F3F3;stroke-width:1.0416666666666667;" width="123.9583" x="339.0625" y="13.1653"/><ellipse cx="353.6458" cy="36.0657" fill="#5C85AD" rx="10.4167" ry="10.4167" style="stroke:#29527A;stroke-width:1.0416666666666667;"/><path d="M354.8991,35.8704 Q354.8991,35.1705 354.5898,34.7799 Q354.2806,34.3892 353.7272,34.3892 Q353.1901,34.3892 352.8809,34.7799 Q352.5716,35.1705 352.5716,35.8704 Q352.5716,36.554 352.8809,36.9446 Q353.1901,37.3352 353.7272,37.3352 Q354.2806,37.3352 354.5898,36.9446 Q354.8991,36.554 354.8991,35.8704 Z M356.0384,38.3606 L354.834,38.3606 L354.834,37.8723 Q354.6061,38.1816 354.2806,38.3443 Q353.9714,38.4908 353.5319,38.4908 Q352.5391,38.4908 351.9206,37.7747 Q351.3021,37.0422 351.3021,35.8704 Q351.3021,34.6822 351.9043,33.9661 Q352.5228,33.2499 353.5319,33.2499 Q353.9714,33.2499 354.2969,33.3964 Q354.6224,33.5429 354.834,33.8359 L354.834,33.5917 Q354.834,32.7616 354.3783,32.3059 Q353.9225,31.8502 353.0924,31.8502 Q351.8229,31.8502 351.0091,32.9732 Q350.2116,34.08 350.2116,35.8704 Q350.2116,37.7421 351.1393,38.8652 Q352.0671,39.9719 353.6133,39.9719 Q354.1016,39.9719 354.5573,39.8254 Q355.013,39.679 355.4362,39.386 L355.9896,40.4602 Q355.5013,40.802 354.9154,40.9648 Q354.3294,41.1438 353.6784,41.1438 Q351.5299,41.1438 350.2604,39.7115 Q348.9909,38.2955 348.9909,35.8704 Q348.9909,33.5103 350.1302,32.0943 Q351.2858,30.6783 353.1576,30.6783 Q354.4922,30.6783 355.2572,31.4758 Q356.0384,32.2734 356.0384,33.6731 L356.0384,38.3606 Z " fill="#000000"/><text fill="#336699" font-family="Verdana" font-size="12.5" lengthAdjust="spacing" textLength="71.875" x="377.6042" y="40.3931">annotation</text><line style="stroke:#F3F3F3;stroke-width:1.0416666666666667;" x1="340.1042" x2="461.9792" y1="58.9661" y2="58.9661"/><line style="stroke:#F3F3F3;stroke-width:1.0416666666666667;" x1="340.1042" x2="461.9792" y1="67.2994" y2="67.2994"/><!--MD5=[da456bc05ddb284180092693c9c3b3b1]
entity circle--><ellipse cx="513.5417" cy="41.2903" fill="#FF5C5C" rx="8.3333" ry="8.3333" style="stroke:#FF3333;stroke-width:1.5625;"/><text fill="#303030" font-family="Verdana" font-size="12.5" lengthAdjust="spacing" textLength="34.375" x="496.3542" y="81.0181">circle</text><!--MD5=[87adb442a9baea16d5e9c4faa47d2afb]
entity circle_short_form--><ellipse cx="61.4583" cy="164.2069" fill="#FF5C5C" rx="8.3333" ry="8.3333" style="stroke:#FF3333;stroke-width:1.5625;"/><text fill="#303030" font-family="Verdana" font-size="12.5" lengthAdjust="spacing" textLength="110.4167" x="6.25" y="203.9347">circle_short_form</text><!--MD5=[c4c892d05414254cdeba8adc63897f88]
class class--><rect codeLine="11" fill="url(#g1k9nv530kybrq0)" height="62.4674" id="class" rx="7.8125" ry="7.8125" style="stroke:#F3F3F3;stroke-width:1.0416666666666667;" width="85.4167" x="112.5" y="136.0819"/><rect fill="url(#g1k9nv530kybrq1)" height="45.8008" rx="7.8125" ry="7.8125" style="stroke:url(#g1k9nv530kybrq1);stroke-width:1.0416666666666667;" width="85.4167" x="112.5" y="136.0819"/><rect fill="url(#g1k9nv530kybrq1)" height="7.8125" style="stroke:url(#g1k9nv530kybrq1);stroke-width:1.0416666666666667;" width="85.4167" x="112.5" y="174.0702"/><rect codeLine="11" fill="none" height="62.4674" id="class" rx="7.8125" ry="7.8125" style="stroke:#F3F3F3;stroke-width:1.0416666666666667;" width="85.4167" x="112.5" y="136.0819"/><ellipse cx="127.0833" cy="158.9823" fill="#DBDBDB" rx="10.4167" ry="10.4167" style="stroke:#A8A8A8;stroke-width:1.0416666666666667;"/><path d="M128.9876,163.4094 Q128.5645,163.621 128.0924,163.7349 Q127.6204,163.8489 127.1159,163.8489 Q125.2604,163.8489 124.2839,162.6444 Q123.3236,161.4237 123.3236,159.1288 Q123.3236,156.8176 124.2839,155.6132 Q125.2604,154.3925 127.1159,154.3925 Q127.6204,154.3925 128.0924,154.5064 Q128.5807,154.6041 128.9876,154.8319 L128.9876,156.8339 Q128.5319,156.4107 128.0924,156.2154 Q127.653,156.0038 127.1973,156.0038 Q126.2044,156.0038 125.6999,156.8014 Q125.1953,157.5826 125.1953,159.1288 Q125.1953,160.6588 125.6999,161.44 Q126.2044,162.2213 127.1973,162.2213 Q127.653,162.2213 128.0924,162.026 Q128.5319,161.8306 128.9876,161.4075 L128.9876,163.4094 Z " fill="#000000"/><text fill="#336699" font-family="Verdana" font-size="12.5" lengthAdjust="spacing" textLength="33.3333" x="151.0417" y="163.3097">class</text><line style="stroke:#F3F3F3;stroke-width:1.0416666666666667;" x1="113.5417" x2="196.875" y1="181.8827" y2="181.8827"/><line style="stroke:#F3F3F3;stroke-width:1.0416666666666667;" x1="113.5417" x2="196.875" y1="190.2161" y2="190.2161"/><polygon fill="url(#g1k9nv530kybrq2)" points="252.0833,154.8319,264.5833,167.3319,252.0833,179.8319,239.5833,167.3319,252.0833,154.8319" style="stroke:#A8A8A8;stroke-width:1.5625;"/><polygon fill="url(#g1k9nv530kybrq0)" points="318.75,154.8319,331.25,167.3319,318.75,179.8319,306.25,167.3319,318.75,154.8319" style="stroke:#F3F3F3;stroke-width:1.5625;"/><!--MD5=[467568f20bbf29da492dca29e9e0779e]
class entity--><rect codeLine="14" fill="url(#g1k9nv530kybrq0)" height="62.4674" id="entity" rx="7.8125" ry="7.8125" style="stroke:#F3F3F3;stroke-width:1.0416666666666667;" width="88.5417" x="17.1875" y="258.9986"/><rect fill="url(#g1k9nv530kybrq1)" height="45.8008" rx="7.8125" ry="7.8125" style="stroke:url(#g1k9nv530kybrq1);stroke-width:1.0416666666666667;" width="88.5417" x="17.1875" y="258.9986"/><rect fill="url(#g1k9nv530kybrq1)" height="7.8125" style="stroke:url(#g1k9nv530kybrq1);stroke-width:1.0416666666666667;" width="88.5417" x="17.1875" y="296.9869"/><rect codeLine="14" fill="none" height="62.4674" id="entity" rx="7.8125" ry="7.8125" style="stroke:#F3F3F3;stroke-width:1.0416666666666667;" width="88.5417" x="17.1875" y="258.9986"/><ellipse cx="31.7708" cy="281.899" fill="#DBDBDB" rx="10.4167" ry="10.4167" style="stroke:#A8A8A8;stroke-width:1.0416666666666667;"/><path d="M34.3099,286.5865 L28.6296,286.5865 L28.6296,277.4719 L34.3099,277.4719 L34.3099,279.067 L30.4362,279.067 L30.4362,281.0201 L33.9355,281.0201 L33.9355,282.6152 L30.4362,282.6152 L30.4362,284.9915 L34.3099,284.9915 L34.3099,286.5865 Z " fill="#000000"/><text fill="#336699" font-family="Verdana" font-size="12.5" lengthAdjust="spacing" textLength="36.4583" x="55.7292" y="286.2264">entity</text><line style="stroke:#F3F3F3;stroke-width:1.0416666666666667;" x1="18.2292" x2="104.6875" y1="304.7994" y2="304.7994"/><line style="stroke:#F3F3F3;stroke-width:1.0416666666666667;" x1="18.2292" x2="104.6875" y1="313.1327" y2="313.1327"/><!--MD5=[b1bf79d8358773e9ea7a3730761a57e9]
class enum--><rect codeLine="15" fill="url(#g1k9nv530kybrq0)" height="62.4674" id="enum" rx="7.8125" ry="7.8125" style="stroke:#F3F3F3;stroke-width:1.0416666666666667;" width="88.5417" x="147.3958" y="258.9986"/><rect fill="url(#g1k9nv530kybrq1)" height="45.8008" rx="7.8125" ry="7.8125" style="stroke:url(#g1k9nv530kybrq1);stroke-width:1.0416666666666667;" width="88.5417" x="147.3958" y="258.9986"/><rect fill="url(#g1k9nv530kybrq1)" height="7.8125" style="stroke:url(#g1k9nv530kybrq1);stroke-width:1.0416666666666667;" width="88.5417" x="147.3958" y="296.9869"/><rect codeLine="15" fill="none" height="62.4674" id="enum" rx="7.8125" ry="7.8125" style="stroke:#F3F3F3;stroke-width:1.0416666666666667;" width="88.5417" x="147.3958" y="258.9986"/><ellipse cx="161.9792" cy="281.899" fill="#FFBE68" rx="10.4167" ry="10.4167" style="stroke:#CC8B35;stroke-width:1.0416666666666667;"/><path d="M164.5182,286.5865 L158.8379,286.5865 L158.8379,277.4719 L164.5182,277.4719 L164.5182,279.067 L160.6445,279.067 L160.6445,281.0201 L164.1439,281.0201 L164.1439,282.6152 L160.6445,282.6152 L160.6445,284.9915 L164.5182,284.9915 L164.5182,286.5865 Z " fill="#000000"/><text fill="#336699" font-family="Verdana" font-size="12.5" lengthAdjust="spacing" textLength="36.4583" x="185.9375" y="286.2264">enum</text><line style="stroke:#F3F3F3;stroke-width:1.0416666666666667;" x1="148.4375" x2="234.8958" y1="304.7994" y2="304.7994"/><line style="stroke:#F3F3F3;stroke-width:1.0416666666666667;" x1="148.4375" x2="234.8958" y1="313.1327" y2="313.1327"/><!--MD5=[d9847530b5dea828dbcbb50914b76f30]
class interface--><rect codeLine="16" fill="url(#g1k9nv530kybrq0)" height="62.4674" id="interface" rx="7.8125" ry="7.8125" style="stroke:#F3F3F3;stroke-width:1.0416666666666667;" width="110.4167" x="277.0833" y="258.9986"/><rect fill="url(#g1k9nv530kybrq1)" height="45.8008" rx="7.8125" ry="7.8125" style="stroke:url(#g1k9nv530kybrq1);stroke-width:1.0416666666666667;" width="110.4167" x="277.0833" y="258.9986"/><rect fill="url(#g1k9nv530kybrq1)" height="7.8125" style="stroke:url(#g1k9nv530kybrq1);stroke-width:1.0416666666666667;" width="110.4167" x="277.0833" y="296.9869"/><rect codeLine="16" fill="none" height="62.4674" id="interface" rx="7.8125" ry="7.8125" style="stroke:#F3F3F3;stroke-width:1.0416666666666667;" width="110.4167" x="277.0833" y="258.9986"/><ellipse cx="291.6667" cy="281.899" fill="#FF5C5C" rx="10.4167" ry="10.4167" style="stroke:#CC2929;stroke-width:1.0416666666666667;"/><path d="M288.5579,279.067 L288.5579,277.4719 L293.9779,277.4719 L293.9779,279.067 L292.1712,279.067 L292.1712,284.9915 L293.9779,284.9915 L293.9779,286.5865 L288.5579,286.5865 L288.5579,284.9915 L290.3646,284.9915 L290.3646,279.067 L288.5579,279.067 Z " fill="#000000"/><text fill="#336699" font-family="Verdana" font-size="12.5" font-style="italic" lengthAdjust="spacing" textLength="58.3333" x="315.625" y="286.2264">interface</text><line style="stroke:#F3F3F3;stroke-width:1.0416666666666667;" x1="278.125" x2="386.4583" y1="304.7994" y2="304.7994"/><line style="stroke:#F3F3F3;stroke-width:1.0416666666666667;" x1="278.125" x2="386.4583" y1="313.1327" y2="313.1327"/></g></svg>