<?xml version="1.0" encoding="UTF-8" standalone="no"?><svg xmlns="http://www.w3.org/2000/svg" xmlns:xlink="http://www.w3.org/1999/xlink" contentStyleType="text/css" height="313.5417px" preserveAspectRatio="none" style="width:487px;height:313px;background:#00000000;" version="1.1" viewBox="0 0 487 313" width="487.5px" zoomAndPan="magnify"><defs><linearGradient id="g1tkipc5qd67990" x1="50%" x2="50%" y1="0%" y2="100%"><stop offset="0%" stop-color="#EEEEEE"/><stop offset="100%" stop-color="#BEBEBE"/></linearGradient><linearGradient id="g1tkipc5qd67991" x1="50%" x2="50%" y1="0%" y2="100%"><stop offset="0%" stop-color="#F1F1F1"/><stop offset="100%" stop-color="#BEBEBE"/></linearGradient><linearGradient id="g1tkipc5qd67992" x1="50%" x2="50%" y1="0%" y2="100%"><stop offset="0%" stop-color="#D6D6D6"/><stop offset="100%" stop-color="#ABABAB"/></linearGradient></defs><g><!--MD5=[f7e826e1488aa6662a4b5ddfe29b6b3b]
class abstract--><g id="elem_abstract"><rect codeLine="6" fill="url(#g1tkipc5qd67990)" height="54.6631" id="abstract" rx="7.8125" ry="7.8125" style="stroke:#F1F1F1;stroke-width:1.0416666666666667;" width="89.5833" x="27.0833" y="25.6653"/><rect fill="url(#g1tkipc5qd67991)" height="37.9964" rx="7.8125" ry="7.8125" style="stroke:url(#g1tkipc5qd67991);stroke-width:1.0416666666666667;" width="89.5833" x="27.0833" y="25.6653"/><rect fill="url(#g1tkipc5qd67991)" height="7.8125" style="stroke:url(#g1tkipc5qd67991);stroke-width:1.0416666666666667;" width="89.5833" x="27.0833" y="55.8492"/><rect codeLine="6" fill="none" height="54.6631" id="abstract" rx="7.8125" ry="7.8125" style="stroke:#F1F1F1;stroke-width:1.0416666666666667;" width="89.5833" x="27.0833" y="25.6653"/><ellipse cx="41.6667" cy="44.6635" rx="10.4167" ry="10.4167" style="stroke:#BEBEBE;stroke-width:1.0416666666666667;fill:none;"/><path d="M41.2598,41.6199 L40.4134,45.3471 L42.1224,45.3471 L41.2598,41.6199 Z M40.1693,39.976 L42.3665,39.976 L44.8242,49.0906 L43.0176,49.0906 L42.4642,46.8445 L40.0553,46.8445 L39.502,49.0906 L37.6953,49.0906 L40.1693,39.976 Z " fill="#336699"/><text fill="#303030" font-family="&quot;Verdana&quot;" font-size="9.375" font-style="italic" lengthAdjust="spacing" textLength="41.6667" x="63.5417" y="47.909">abstract</text><line style="stroke:#F1F1F1;stroke-width:1.0416666666666667;" x1="28.125" x2="115.625" y1="63.6617" y2="63.6617"/><line style="stroke:#F1F1F1;stroke-width:1.0416666666666667;" x1="28.125" x2="115.625" y1="71.995" y2="71.995"/></g><!--MD5=[17df400e90568e28eeaed93acf178394]
class abstract class--><g id="elem_abstract class"><rect codeLine="7" fill="url(#g1tkipc5qd67990)" height="54.6631" id="abstract class" rx="7.8125" ry="7.8125" style="stroke:#F1F1F1;stroke-width:1.0416666666666667;" width="117.7083" x="153.6458" y="25.6653"/><rect fill="url(#g1tkipc5qd67991)" height="37.9964" rx="7.8125" ry="7.8125" style="stroke:url(#g1tkipc5qd67991);stroke-width:1.0416666666666667;" width="117.7083" x="153.6458" y="25.6653"/><rect fill="url(#g1tkipc5qd67991)" height="7.8125" style="stroke:url(#g1tkipc5qd67991);stroke-width:1.0416666666666667;" width="117.7083" x="153.6458" y="55.8492"/><rect codeLine="7" fill="none" height="54.6631" id="abstract class" rx="7.8125" ry="7.8125" style="stroke:#F1F1F1;stroke-width:1.0416666666666667;" width="117.7083" x="153.6458" y="25.6653"/><ellipse cx="168.2292" cy="44.6635" rx="10.4167" ry="10.4167" style="stroke:#BEBEBE;stroke-width:1.0416666666666667;fill:none;"/><path d="M167.8223,41.6199 L166.9759,45.3471 L168.6849,45.3471 L167.8223,41.6199 Z M166.7318,39.976 L168.929,39.976 L171.3867,49.0906 L169.5801,49.0906 L169.0267,46.8445 L166.6178,46.8445 L166.0645,49.0906 L164.2578,49.0906 L166.7318,39.976 Z " fill="#336699"/><text fill="#303030" font-family="&quot;Verdana&quot;" font-size="9.375" font-style="italic" lengthAdjust="spacing" textLength="69.7917" x="190.1042" y="47.909">abstract class</text><line style="stroke:#F1F1F1;stroke-width:1.0416666666666667;" x1="154.6875" x2="270.3125" y1="63.6617" y2="63.6617"/><line style="stroke:#F1F1F1;stroke-width:1.0416666666666667;" x1="154.6875" x2="270.3125" y1="71.995" y2="71.995"/></g><!--MD5=[7cb74e68c9f11cf3f5cc35e0143045f8]
class annotation--><g id="elem_annotation"><rect codeLine="8" fill="url(#g1tkipc5qd67990)" height="54.6631" id="annotation" rx="7.8125" ry="7.8125" style="stroke:#F1F1F1;stroke-width:1.0416666666666667;" width="103.125" x="308.8542" y="25.6653"/><rect fill="url(#g1tkipc5qd67991)" height="37.9964" rx="7.8125" ry="7.8125" style="stroke:url(#g1tkipc5qd67991);stroke-width:1.0416666666666667;" width="103.125" x="308.8542" y="25.6653"/><rect fill="url(#g1tkipc5qd67991)" height="7.8125" style="stroke:url(#g1tkipc5qd67991);stroke-width:1.0416666666666667;" width="103.125" x="308.8542" y="55.8492"/><rect codeLine="8" fill="none" height="54.6631" id="annotation" rx="7.8125" ry="7.8125" style="stroke:#F1F1F1;stroke-width:1.0416666666666667;" width="103.125" x="308.8542" y="25.6653"/><ellipse cx="323.4375" cy="44.6635" rx="10.4167" ry="10.4167" style="stroke:#BEBEBE;stroke-width:1.0416666666666667;fill:none;"/><path d="M324.6908,44.4682 Q324.6908,43.7683 324.3815,43.3777 Q324.0723,42.9871 323.5189,42.9871 Q322.9818,42.9871 322.6725,43.3777 Q322.3633,43.7683 322.3633,44.4682 Q322.3633,45.1518 322.6725,45.5424 Q322.9818,45.933 323.5189,45.933 Q324.0723,45.933 324.3815,45.5424 Q324.6908,45.1518 324.6908,44.4682 Z M325.8301,46.9584 L324.6257,46.9584 L324.6257,46.4701 Q324.3978,46.7794 324.0723,46.9421 Q323.763,47.0886 323.3236,47.0886 Q322.3307,47.0886 321.7122,46.3725 Q321.0938,45.6401 321.0938,44.4682 Q321.0938,43.28 321.696,42.5639 Q322.3145,41.8477 323.3236,41.8477 Q323.763,41.8477 324.0885,41.9942 Q324.4141,42.1407 324.6257,42.4337 L324.6257,42.1895 Q324.6257,41.3595 324.1699,40.9037 Q323.7142,40.448 322.8841,40.448 Q321.6146,40.448 320.8008,41.571 Q320.0033,42.6778 320.0033,44.4682 Q320.0033,46.3399 320.931,47.463 Q321.8587,48.5697 323.4049,48.5697 Q323.8932,48.5697 324.349,48.4233 Q324.8047,48.2768 325.2279,47.9838 L325.7813,49.058 Q325.293,49.3998 324.707,49.5626 Q324.1211,49.7416 323.4701,49.7416 Q321.3216,49.7416 320.0521,48.3093 Q318.7826,46.8933 318.7826,44.4682 Q318.7826,42.1082 319.9219,40.6921 Q321.0775,39.2761 322.9492,39.2761 Q324.2839,39.2761 325.0488,40.0736 Q325.8301,40.8712 325.8301,42.2709 L325.8301,46.9584 Z " fill="#336699"/><text fill="#303030" font-family="&quot;Verdana&quot;" font-size="9.375" lengthAdjust="spacing" textLength="55.2083" x="345.3125" y="47.909">annotation</text><line style="stroke:#F1F1F1;stroke-width:1.0416666666666667;" x1="309.8958" x2="410.9375" y1="63.6617" y2="63.6617"/><line style="stroke:#F1F1F1;stroke-width:1.0416666666666667;" x1="309.8958" x2="410.9375" y1="71.995" y2="71.995"/></g><!--MD5=[da456bc05ddb284180092693c9c3b3b1]
entity circle--><g id="elem_circle"><ellipse cx="458.3333" cy="49.6236" fill="#FF5C5C" rx="8.3333" ry="8.3333" style="stroke:#FF3333;stroke-width:1.0416666666666667;"/><text fill="#303030" font-family="&quot;Verdana&quot;" font-size="12.5" lengthAdjust="spacing" textLength="34.375" x="441.1458" y="87.2681">circle</text></g><!--MD5=[87adb442a9baea16d5e9c4faa47d2afb]
entity circle_short_form--><g id="elem_circle_short_form"><ellipse cx="71.875" cy="160.0403" fill="#FF5C5C" rx="8.3333" ry="8.3333" style="stroke:#FF3333;stroke-width:1.0416666666666667;"/><text fill="#303030" font-family="&quot;Verdana&quot;" font-size="12.5" lengthAdjust="spacing" textLength="110.4167" x="16.6667" y="197.6847">circle_short_form</text></g><!--MD5=[c4c892d05414254cdeba8adc63897f88]
class class--><g id="elem_class"><rect codeLine="11" fill="url(#g1tkipc5qd67990)" height="54.6631" id="class" rx="7.8125" ry="7.8125" style="stroke:#F1F1F1;stroke-width:1.0416666666666667;" width="73.9583" x="118.2292" y="136.0819"/><rect fill="url(#g1tkipc5qd67991)" height="37.9964" rx="7.8125" ry="7.8125" style="stroke:url(#g1tkipc5qd67991);stroke-width:1.0416666666666667;" width="73.9583" x="118.2292" y="136.0819"/><rect fill="url(#g1tkipc5qd67991)" height="7.8125" style="stroke:url(#g1tkipc5qd67991);stroke-width:1.0416666666666667;" width="73.9583" x="118.2292" y="166.2659"/><rect codeLine="11" fill="none" height="54.6631" id="class" rx="7.8125" ry="7.8125" style="stroke:#F1F1F1;stroke-width:1.0416666666666667;" width="73.9583" x="118.2292" y="136.0819"/><ellipse cx="132.8125" cy="155.0802" rx="10.4167" ry="10.4167" style="stroke:#BEBEBE;stroke-width:1.0416666666666667;fill:none;"/><path d="M134.7168,159.5072 Q134.2936,159.7188 133.8216,159.8328 Q133.3496,159.9467 132.8451,159.9467 Q130.9896,159.9467 130.013,158.7423 Q129.0527,157.5216 129.0527,155.2266 Q129.0527,152.9154 130.013,151.711 Q130.9896,150.4903 132.8451,150.4903 Q133.3496,150.4903 133.8216,150.6042 Q134.3099,150.7019 134.7168,150.9298 L134.7168,152.9317 Q134.2611,152.5085 133.8216,152.3132 Q133.3822,152.1016 132.9264,152.1016 Q131.9336,152.1016 131.429,152.8992 Q130.9245,153.6804 130.9245,155.2266 Q130.9245,156.7566 131.429,157.5378 Q131.9336,158.3191 132.9264,158.3191 Q133.3822,158.3191 133.8216,158.1238 Q134.2611,157.9285 134.7168,157.5053 L134.7168,159.5072 Z " fill="#336699"/><text fill="#303030" font-family="&quot;Verdana&quot;" font-size="9.375" lengthAdjust="spacing" textLength="26.0417" x="154.6875" y="158.3257">class</text><line style="stroke:#F1F1F1;stroke-width:1.0416666666666667;" x1="119.2708" x2="191.1458" y1="174.0784" y2="174.0784"/><line style="stroke:#F1F1F1;stroke-width:1.0416666666666667;" x1="119.2708" x2="191.1458" y1="182.4117" y2="182.4117"/></g><g id="elem_diamond"><polygon fill="url(#g1tkipc5qd67992)" points="241.6667,150.6653,254.1667,163.1653,241.6667,175.6653,229.1667,163.1653,241.6667,150.6653" style="stroke:#ABABAB;stroke-width:1.0416666666666667;"/></g><polygon fill="url(#g1tkipc5qd67992)" points="304.1667,150.6653,316.6667,163.1653,304.1667,175.6653,291.6667,163.1653,304.1667,150.6653" style="stroke:#ABABAB;stroke-width:1.0416666666666667;"/><!--MD5=[467568f20bbf29da492dca29e9e0779e]
class entity--><g id="elem_entity"><rect codeLine="14" fill="url(#g1tkipc5qd67990)" height="54.6631" id="entity" rx="7.8125" ry="7.8125" style="stroke:#F1F1F1;stroke-width:1.0416666666666667;" width="77.0833" x="33.3333" y="246.4986"/><rect fill="url(#g1tkipc5qd67991)" height="37.9964" rx="7.8125" ry="7.8125" style="stroke:url(#g1tkipc5qd67991);stroke-width:1.0416666666666667;" width="77.0833" x="33.3333" y="246.4986"/><rect fill="url(#g1tkipc5qd67991)" height="7.8125" style="stroke:url(#g1tkipc5qd67991);stroke-width:1.0416666666666667;" width="77.0833" x="33.3333" y="276.6825"/><rect codeLine="14" fill="none" height="54.6631" id="entity" rx="7.8125" ry="7.8125" style="stroke:#F1F1F1;stroke-width:1.0416666666666667;" width="77.0833" x="33.3333" y="246.4986"/><ellipse cx="47.9167" cy="265.4968" rx="10.4167" ry="10.4167" style="stroke:#BEBEBE;stroke-width:1.0416666666666667;fill:none;"/><path d="M50.4557,270.1843 L44.7754,270.1843 L44.7754,261.0697 L50.4557,261.0697 L50.4557,262.6648 L46.582,262.6648 L46.582,264.6179 L50.0814,264.6179 L50.0814,266.213 L46.582,266.213 L46.582,268.5893 L50.4557,268.5893 L50.4557,270.1843 Z " fill="#336699"/><text fill="#303030" font-family="&quot;Verdana&quot;" font-size="9.375" lengthAdjust="spacing" textLength="29.1667" x="69.7917" y="268.7424">entity</text><line style="stroke:#F1F1F1;stroke-width:1.0416666666666667;" x1="34.375" x2="109.375" y1="284.495" y2="284.495"/><line style="stroke:#F1F1F1;stroke-width:1.0416666666666667;" x1="34.375" x2="109.375" y1="292.8284" y2="292.8284"/></g><!--MD5=[b1bf79d8358773e9ea7a3730761a57e9]
class enum--><g id="elem_enum"><rect codeLine="15" fill="url(#g1tkipc5qd67990)" height="54.6631" id="enum" rx="7.8125" ry="7.8125" style="stroke:#F1F1F1;stroke-width:1.0416666666666667;" width="76.0417" x="147.3958" y="246.4986"/><rect fill="url(#g1tkipc5qd67991)" height="37.9964" rx="7.8125" ry="7.8125" style="stroke:url(#g1tkipc5qd67991);stroke-width:1.0416666666666667;" width="76.0417" x="147.3958" y="246.4986"/><rect fill="url(#g1tkipc5qd67991)" height="7.8125" style="stroke:url(#g1tkipc5qd67991);stroke-width:1.0416666666666667;" width="76.0417" x="147.3958" y="276.6825"/><rect codeLine="15" fill="none" height="54.6631" id="enum" rx="7.8125" ry="7.8125" style="stroke:#F1F1F1;stroke-width:1.0416666666666667;" width="76.0417" x="147.3958" y="246.4986"/><ellipse cx="161.9792" cy="265.4968" rx="10.4167" ry="10.4167" style="stroke:#BEBEBE;stroke-width:1.0416666666666667;fill:none;"/><path d="M164.5182,270.1843 L158.8379,270.1843 L158.8379,261.0697 L164.5182,261.0697 L164.5182,262.6648 L160.6445,262.6648 L160.6445,264.6179 L164.1439,264.6179 L164.1439,266.213 L160.6445,266.213 L160.6445,268.5893 L164.5182,268.5893 L164.5182,270.1843 Z " fill="#336699"/><text fill="#303030" font-family="&quot;Verdana&quot;" font-size="9.375" lengthAdjust="spacing" textLength="28.125" x="183.8542" y="268.7424">enum</text><line style="stroke:#F1F1F1;stroke-width:1.0416666666666667;" x1="148.4375" x2="222.3958" y1="284.495" y2="284.495"/><line style="stroke:#F1F1F1;stroke-width:1.0416666666666667;" x1="148.4375" x2="222.3958" y1="292.8284" y2="292.8284"/></g><!--MD5=[d9847530b5dea828dbcbb50914b76f30]
class interface--><g id="elem_interface"><rect codeLine="16" fill="url(#g1tkipc5qd67990)" height="54.6631" id="interface" rx="7.8125" ry="7.8125" style="stroke:#F1F1F1;stroke-width:1.0416666666666667;" width="92.7083" x="260.9375" y="246.4986"/><rect fill="url(#g1tkipc5qd67991)" height="37.9964" rx="7.8125" ry="7.8125" style="stroke:url(#g1tkipc5qd67991);stroke-width:1.0416666666666667;" width="92.7083" x="260.9375" y="246.4986"/><rect fill="url(#g1tkipc5qd67991)" height="7.8125" style="stroke:url(#g1tkipc5qd67991);stroke-width:1.0416666666666667;" width="92.7083" x="260.9375" y="276.6825"/><rect codeLine="16" fill="none" height="54.6631" id="interface" rx="7.8125" ry="7.8125" style="stroke:#F1F1F1;stroke-width:1.0416666666666667;" width="92.7083" x="260.9375" y="246.4986"/><ellipse cx="275.5208" cy="265.4968" rx="10.4167" ry="10.4167" style="stroke:#BEBEBE;stroke-width:1.0416666666666667;fill:none;"/><path d="M272.4121,262.6648 L272.4121,261.0697 L277.832,261.0697 L277.832,262.6648 L276.0254,262.6648 L276.0254,268.5893 L277.832,268.5893 L277.832,270.1843 L272.4121,270.1843 L272.4121,268.5893 L274.2188,268.5893 L274.2188,262.6648 L272.4121,262.6648 Z " fill="#336699"/><text fill="#303030" font-family="&quot;Verdana&quot;" font-size="9.375" font-style="italic" lengthAdjust="spacing" textLength="44.7917" x="297.3958" y="268.7424">interface</text><line style="stroke:#F1F1F1;stroke-width:1.0416666666666667;" x1="261.9792" x2="352.6042" y1="284.495" y2="284.495"/><line style="stroke:#F1F1F1;stroke-width:1.0416666666666667;" x1="261.9792" x2="352.6042" y1="292.8284" y2="292.8284"/></g></g></svg>