<?xml version="1.0" encoding="UTF-8" standalone="no"?><svg xmlns="http://www.w3.org/2000/svg" xmlns:xlink="http://www.w3.org/1999/xlink" contentScriptType="application/ecmascript" contentStyleType="text/css" height="215px" preserveAspectRatio="none" style="width:366px;height:215px;" version="1.1" viewBox="0 0 366 215" width="366px" zoomAndPan="magnify"><defs><filter height="300%" id="f11d1l1qkoqwvd" width="300%" x="-1" y="-1"><feGaussianBlur result="blurOut" stdDeviation="2.0"/><feColorMatrix in="blurOut" result="blurOut2" type="matrix" values="0 0 0 0 0 0 0 0 0 0 0 0 0 0 0 0 0 0 .4 0"/><feOffset dx="4.0" dy="4.0" in="blurOut2" result="blurOut3"/><feBlend in="SourceGraphic" in2="blurOut3" mode="normal"/></filter><style type="text/css"><![CDATA[*.f_a9dcdf_2a5d60 {fill:#a9dcdf;}*.s_181818_e7e7e7 {stroke:#181818;}*.f_000000_ffffff {fill:#000000;}*.f_e3664a_4a0000 {fill:#e3664a;}*.f_add1b2_2e5233 {fill:#add1b2;}*.f_eb937f_852d19 {fill:#eb937f;}*.f_b4a7e5_352866 {fill:#b4a7e5;}@media (prefers-color-scheme:dark) {*.f_a9dcdf_2a5d60 {fill:#2a5d60;}*.s_181818_e7e7e7 {stroke:#e7e7e7;}*.f_000000_ffffff {fill:#ffffff;}*.f_e3664a_4a0000 {fill:#4a0000;}*.f_add1b2_2e5233 {fill:#2e5233;}*.f_eb937f_852d19 {fill:#852d19;}*.f_b4a7e5_352866 {fill:#352866;}}]]></style></defs><g><!--MD5=[f7e826e1488aa6662a4b5ddfe29b6b3b]
class abstract--><rect codeLine="6" fill="#2E2E2E" height="42" id="abstract" style="stroke:#1B1B1B;stroke-width:1.5;" width="72" x="19.5" y="10.7104"/><ellipse class="f_a9dcdf_2a5d60 s_181818_e7e7e7" cx="31.5" cy="23.7104" rx="8" ry="8" style="stroke-width:1.0;"/><path class="f_000000_ffffff" d="M33.375,25.4917 L30.1406,25.4917 L29.625,26.9604 L27.5469,26.9604 L30.5313,18.9448 L32.9844,18.9448 L35.9531,26.9604 L33.875,26.9604 L33.375,25.4917 Z M30.6563,24.0073 L32.8594,24.0073 L31.7656,20.8198 L30.6563,24.0073 Z "/><text fill="#AAAAAA" font-family="Verdana" font-size="11" font-style="italic" lengthAdjust="spacing" textLength="46" x="42.5" y="27.5186">abstract</text><line style="stroke:#1B1B1B;stroke-width:1.5;" x1="20.5" x2="90.5" y1="36.7104" y2="36.7104"/><line style="stroke:#1B1B1B;stroke-width:1.5;" x1="20.5" x2="90.5" y1="44.7104" y2="44.7104"/><!--MD5=[17df400e90568e28eeaed93acf178394]
class abstract class--><rect codeLine="7" fill="#2E2E2E" height="42" id="abstract class" style="stroke:#1B1B1B;stroke-width:1.5;" width="104" x="109.5" y="10.7104"/><ellipse class="f_a9dcdf_2a5d60 s_181818_e7e7e7" cx="121.5" cy="23.7104" rx="8" ry="8" style="stroke-width:1.0;"/><path class="f_000000_ffffff" d="M123.375,25.4917 L120.1406,25.4917 L119.625,26.9604 L117.5469,26.9604 L120.5313,18.9448 L122.9844,18.9448 L125.9531,26.9604 L123.875,26.9604 L123.375,25.4917 Z M120.6563,24.0073 L122.8594,24.0073 L121.7656,20.8198 L120.6563,24.0073 Z "/><text fill="#AAAAAA" font-family="Verdana" font-size="11" font-style="italic" lengthAdjust="spacing" textLength="78" x="132.5" y="27.5186">abstract class</text><line style="stroke:#1B1B1B;stroke-width:1.5;" x1="110.5" x2="212.5" y1="36.7104" y2="36.7104"/><line style="stroke:#1B1B1B;stroke-width:1.5;" x1="110.5" x2="212.5" y1="44.7104" y2="44.7104"/><!--MD5=[7cb74e68c9f11cf3f5cc35e0143045f8]
class annotation--><rect codeLine="8" fill="#2E2E2E" height="42" id="annotation" style="stroke:#1B1B1B;stroke-width:1.5;" width="86" x="231.5" y="10.7104"/><ellipse class="f_e3664a_4a0000 s_181818_e7e7e7" cx="243.5" cy="23.7104" rx="8" ry="8" style="stroke-width:1.0;"/><path class="f_000000_ffffff" d="M241.9688,23.8198 Q241.9688,24.4761 242.25,24.8667 Q242.5313,25.2417 243.0156,25.2417 Q243.4844,25.2417 243.7656,24.8667 Q244.0625,24.4761 244.0625,23.8198 Q244.0625,23.1636 243.7656,22.7886 Q243.4844,22.4136 243,22.4136 Q242.5313,22.4136 242.25,22.7886 Q241.9688,23.1636 241.9688,23.8198 Z M244.1719,25.4292 Q244,25.8198 243.6406,26.0386 Q243.2969,26.2417 242.8125,26.2417 Q241.8906,26.2417 241.3125,25.5698 Q240.7344,24.8979 240.7344,23.8198 Q240.7344,22.7573 241.3125,22.0854 Q241.8906,21.4136 242.8125,21.4136 Q243.2969,21.4136 243.6406,21.6323 Q244,21.8354 244.1719,22.2261 L244.1719,21.5229 L245.2813,21.5229 L245.2813,25.2417 Q245.9531,25.1323 246.3281,24.6011 Q246.7188,24.0542 246.7188,23.2104 Q246.7188,22.6792 246.5625,22.2104 Q246.4063,21.7417 246.0938,21.3511 Q245.5781,20.6948 244.8125,20.3354 Q244.0469,19.9761 243.1563,19.9761 Q242.5313,19.9761 241.9531,20.1479 Q241.3906,20.3042 240.9063,20.6323 Q240.1094,21.1479 239.6719,21.9917 Q239.2344,22.8198 239.2344,23.7886 Q239.2344,24.6011 239.5156,25.3042 Q239.7969,25.9917 240.3438,26.5386 Q240.8906,27.0542 241.5781,27.3354 Q242.2813,27.6167 243.0625,27.6167 Q243.7344,27.6167 244.4063,27.3511 Q245.0938,27.1011 245.5781,26.6792 L246.1406,27.5542 Q245.4688,28.0698 244.6719,28.3354 Q243.8906,28.6167 243.0781,28.6167 Q242.0781,28.6167 241.1875,28.2573 Q240.3125,27.9136 239.625,27.2417 Q238.9375,26.5698 238.5781,25.6948 Q238.2188,24.8042 238.2188,23.7886 Q238.2188,22.8198 238.5781,21.9292 Q238.9531,21.0386 239.625,20.3667 Q240.3125,19.7104 241.2031,19.3511 Q242.1094,18.9761 243.0781,18.9761 Q244.2813,18.9761 245.2656,19.4448 Q246.25,19.8979 246.9063,20.7573 Q247.3125,21.2886 247.5156,21.9136 Q247.7188,22.5229 247.7188,23.1948 Q247.7188,24.6479 246.8438,25.4604 Q245.9688,26.2573 244.375,26.2573 L244.1719,26.2573 L244.1719,25.4292 Z "/><text fill="#AAAAAA" font-family="Verdana" font-size="11" lengthAdjust="spacing" textLength="60" x="254.5" y="27.5186">annotation</text><line style="stroke:#1B1B1B;stroke-width:1.5;" x1="232.5" x2="316.5" y1="36.7104" y2="36.7104"/><line style="stroke:#1B1B1B;stroke-width:1.5;" x1="232.5" x2="316.5" y1="44.7104" y2="44.7104"/><!--MD5=[da456bc05ddb284180092693c9c3b3b1]
entity circle--><ellipse cx="344.5" cy="28.7104" fill="#880000" rx="8" ry="8" style="stroke:#330000;stroke-width:1.0;"/><text fill="#FFFFFF" font-family="Verdana" font-size="11" lengthAdjust="spacing" textLength="30" x="329.5" y="55.9209">circle</text><!--MD5=[87adb442a9baea16d5e9c4faa47d2afb]
entity circle_short_form--><ellipse cx="55.5" cy="106.7104" fill="#880000" rx="8" ry="8" style="stroke:#330000;stroke-width:1.0;"/><text fill="#FFFFFF" font-family="Verdana" font-size="11" lengthAdjust="spacing" textLength="99" x="6" y="133.9209">circle_short_form</text><!--MD5=[c4c892d05414254cdeba8adc63897f88]
class class--><rect codeLine="11" fill="#2E2E2E" height="42" id="class" style="stroke:#1B1B1B;stroke-width:1.5;" width="56" x="82.5" y="88.7104"/><ellipse class="f_add1b2_2e5233 s_181818_e7e7e7" cx="94.5" cy="101.7104" rx="8" ry="8" style="stroke-width:1.0;"/><path class="f_000000_ffffff" d="M96.625,105.2729 Q96.0469,105.5698 95.4219,105.7104 Q94.8125,105.8667 94.1406,105.8667 Q92.1406,105.8667 90.9688,104.7573 Q89.7969,103.6323 89.7969,101.7104 Q89.7969,99.7886 90.9688,98.6636 Q92.1406,97.5386 94.1406,97.5386 Q94.8125,97.5386 95.4219,97.6948 Q96.0469,97.8511 96.625,98.1479 L96.625,99.8042 Q96.0469,99.4136 95.4844,99.2261 Q94.9219,99.0386 94.3125,99.0386 Q93.2031,99.0386 92.5625,99.7573 Q91.9375,100.4604 91.9375,101.7104 Q91.9375,102.9448 92.5625,103.6636 Q93.2031,104.3667 94.3125,104.3667 Q94.9219,104.3667 95.4844,104.1948 Q96.0469,104.0073 96.625,103.6167 L96.625,105.2729 Z "/><text fill="#AAAAAA" font-family="Verdana" font-size="11" lengthAdjust="spacing" textLength="30" x="105.5" y="105.5186">class</text><line style="stroke:#1B1B1B;stroke-width:1.5;" x1="83.5" x2="137.5" y1="114.7104" y2="114.7104"/><line style="stroke:#1B1B1B;stroke-width:1.5;" x1="83.5" x2="137.5" y1="122.7104" y2="122.7104"/><polygon fill="#2E2E2E" points="168.5,97.7104,180.5,109.7104,168.5,121.7104,156.5,109.7104,168.5,97.7104" style="stroke:#1B1B1B;stroke-width:1.5;"/><polygon fill="#2E2E2E" filter="url(#f11d1l1qkoqwvd)" points="210.5,97.7104,222.5,109.7104,210.5,121.7104,198.5,109.7104,210.5,97.7104" style="stroke:#1B1B1B;stroke-width:1.5;"/><!--MD5=[467568f20bbf29da492dca29e9e0779e]
class entity--><rect codeLine="14" fill="#2E2E2E" height="42" id="entity" style="stroke:#1B1B1B;stroke-width:1.5;" width="57" x="27" y="166.7104"/><ellipse class="f_add1b2_2e5233 s_181818_e7e7e7" cx="39" cy="179.7104" rx="8" ry="8" style="stroke-width:1.0;"/><path class="f_000000_ffffff" d="M36.0156,175.6948 L41.5938,175.6948 L41.5938,177.2573 L38.0781,177.2573 L38.0781,178.7417 L41.375,178.7417 L41.375,180.3042 L38.0781,180.3042 L38.0781,182.1479 L41.7031,182.1479 L41.7031,183.7104 L36.0156,183.7104 L36.0156,175.6948 Z "/><text fill="#AAAAAA" font-family="Verdana" font-size="11" lengthAdjust="spacing" textLength="31" x="50" y="183.5186">entity</text><line style="stroke:#1B1B1B;stroke-width:1.5;" x1="28" x2="83" y1="192.7104" y2="192.7104"/><line style="stroke:#1B1B1B;stroke-width:1.5;" x1="28" x2="83" y1="200.7104" y2="200.7104"/><!--MD5=[b1bf79d8358773e9ea7a3730761a57e9]
class enum--><rect codeLine="15" fill="#2E2E2E" height="42" id="enum" style="stroke:#1B1B1B;stroke-width:1.5;" width="58" x="102.5" y="166.7104"/><ellipse class="f_eb937f_852d19 s_181818_e7e7e7" cx="114.5" cy="179.7104" rx="8" ry="8" style="stroke-width:1.0;"/><path class="f_000000_ffffff" d="M111.5156,175.6948 L117.0938,175.6948 L117.0938,177.2573 L113.5781,177.2573 L113.5781,178.7417 L116.875,178.7417 L116.875,180.3042 L113.5781,180.3042 L113.5781,182.1479 L117.2031,182.1479 L117.2031,183.7104 L111.5156,183.7104 L111.5156,175.6948 Z "/><text fill="#AAAAAA" font-family="Verdana" font-size="11" lengthAdjust="spacing" textLength="32" x="125.5" y="183.5186">enum</text><line style="stroke:#1B1B1B;stroke-width:1.5;" x1="103.5" x2="159.5" y1="192.7104" y2="192.7104"/><line style="stroke:#1B1B1B;stroke-width:1.5;" x1="103.5" x2="159.5" y1="200.7104" y2="200.7104"/><!--MD5=[d9847530b5dea828dbcbb50914b76f30]
class interface--><rect codeLine="16" fill="#2E2E2E" height="42" id="interface" style="stroke:#1B1B1B;stroke-width:1.5;" width="76" x="178.5" y="166.7104"/><ellipse class="f_b4a7e5_352866 s_181818_e7e7e7" cx="190.5" cy="179.7104" rx="8" ry="8" style="stroke-width:1.0;"/><path class="f_000000_ffffff" d="M189.5156,175.6948 L191.5781,175.6948 L191.5781,183.7104 L189.5156,183.7104 L189.5156,175.6948 Z "/><text fill="#AAAAAA" font-family="Verdana" font-size="11" font-style="italic" lengthAdjust="spacing" textLength="50" x="201.5" y="183.5186">interface</text><line style="stroke:#1B1B1B;stroke-width:1.5;" x1="179.5" x2="253.5" y1="192.7104" y2="192.7104"/><line style="stroke:#1B1B1B;stroke-width:1.5;" x1="179.5" x2="253.5" y1="200.7104" y2="200.7104"/></g></svg>