<?xml version="1.0" encoding="us-ascii" standalone="no"?><svg xmlns="http://www.w3.org/2000/svg" xmlns:xlink="http://www.w3.org/1999/xlink" contentStyleType="text/css" height="457.2917px" preserveAspectRatio="none" style="width:605px;height:457px;background:#FDF6E3;" version="1.1" viewBox="0 0 605 457" width="605.2083px" zoomAndPan="magnify"><defs/><g><rect fill="#FDF6E3" height="457.2917" style="stroke:none;stroke-width:1.0416666666666667;" width="605.2083" x="0" y="0"/><!--entity action--><g id="elem_action"><polygon fill="#FDF6E3" points="13.5417,35.4167,79.1667,35.4167,89.5833,54.3213,79.1667,73.2259,13.5417,73.2259" style="stroke:#181818;stroke-width:0.5208333333333334;"/><text fill="#000000" font-family="Dejavu Serif" font-size="14.5833" lengthAdjust="spacing" textLength="44.7917" x="23.9583" y="59.3699">action</text></g><!--entity actor--><g id="elem_actor"><ellipse cx="139.0625" cy="31.25" fill="#FFFFCC" rx="16.6667" ry="16.6667" style="stroke:#B58900;stroke-width:2.0833333333333335;"/><path d="M139.0625,52.0833 C143.2292,52.0833 146.3542,52.0833 150.5208,47.9167 C158.8542,47.9167 167.1875,56.25 167.1875,64.5833 L167.1875,68.75 C167.1875,72.9167 163.0208,77.0833 158.8542,77.0833 L119.2708,77.0833 C115.1042,77.0833 110.9375,72.9167 110.9375,68.75 L110.9375,64.5833 C110.9375,56.25 119.2708,47.9167 127.6042,47.9167 C131.7708,52.0833 134.8958,52.0833 139.0625,52.0833 " fill="#FFFFCC" style="stroke:#B58900;stroke-width:2.0833333333333335;"/><text fill="#000000" font-family="Dejavu Serif" font-size="14.5833" lengthAdjust="spacing" textLength="38.5417" x="119.7917" y="92.7032">actor</text></g><!--entity actor/--><g id="elem_actor/"><ellipse cx="209.8958" cy="23.4375" fill="#FFFFCC" rx="8.3333" ry="8.3333" style="stroke:#B58900;stroke-width:2.0833333333333335;"/><line style="stroke:#B58900;stroke-width:2.0833333333333335;" x1="207.871" x2="217.9794" y1="31.5211" y2="21.4127"/><path d="M209.8958,31.7708 L209.8958,59.8958 M196.3542,40.1042 L223.4375,40.1042 M209.8958,59.8958 L196.3542,75.5208 M209.8958,59.8958 L223.4375,75.5208 " fill="none" style="stroke:#B58900;stroke-width:2.0833333333333335;"/><text fill="#000000" font-family="Dejavu Serif" font-size="14.5833" lengthAdjust="spacing" textLength="43.75" x="188.0208" y="92.1824">actor/</text></g><!--entity agent--><g id="elem_agent"><rect fill="#FDF6E3" height="37.8092" rx="7.8125" ry="7.8125" style="stroke:#181818;stroke-width:0.5208333333333334;" width="62.5" x="250.5208" y="35.4167"/><text fill="#000000" font-family="Dejavu Serif" font-size="14.5833" lengthAdjust="spacing" textLength="41.6667" x="260.9375" y="59.3699">agent</text></g><!--entity artifact--><g id="elem_artifact"><rect fill="#FDF6E3" height="40.9342" rx="7.8125" ry="7.8125" style="stroke:#181818;stroke-width:0.5208333333333334;" width="85.4167" x="331.7708" y="33.8542"/><polygon fill="#FDF6E3" points="399.4792,39.0625,399.4792,53.6458,411.9792,53.6458,411.9792,45.3125,405.7292,39.0625,399.4792,39.0625" style="stroke:#181818;stroke-width:0.5208333333333334;"/><line style="stroke:#181818;stroke-width:0.5208333333333334;" x1="405.7292" x2="405.7292" y1="39.0625" y2="45.3125"/><line style="stroke:#181818;stroke-width:0.5208333333333334;" x1="411.9792" x2="405.7292" y1="45.3125" y2="45.3125"/><text fill="#000000" font-family="Dejavu Serif" font-size="14.5833" lengthAdjust="spacing" textLength="54.1667" x="342.1875" y="60.9324">artifact</text></g><!--entity boundary--><g id="elem_boundary"><path d="M450,33.3333 L450,58.3333 M450,45.8333 L467.7083,45.8333 " fill="none" style="stroke:#B58900;stroke-width:2.0833333333333335;"/><ellipse cx="480.2083" cy="45.8333" fill="#FFFFCC" rx="12.5" ry="12.5" style="stroke:#B58900;stroke-width:2.0833333333333335;"/><text fill="#000000" font-family="Dejavu Serif" font-size="14.5833" lengthAdjust="spacing" textLength="69.7917" x="436.4583" y="76.0366">boundary</text></g><!--entity card--><g id="elem_card"><rect fill="#F8E7C0" height="23.2259" rx="7.8125" ry="7.8125" style="stroke:#F8E7C0;stroke-width:2.0833333333333335;" width="54.1667" x="24.4792" y="145.8333"/><text fill="#000000" font-family="Dejavu Serif" font-size="14.5833" lengthAdjust="spacing" textLength="33.3333" x="34.8958" y="162.4949">card</text></g><!--entity circle--><g id="elem_circle"><ellipse cx="106.7708" cy="155.2083" fill="#FDF6E3" rx="8.3333" ry="8.3333" style="stroke:#181818;stroke-width:0.5208333333333334;"/><text fill="#000000" font-family="Dejavu Serif" font-size="14.5833" lengthAdjust="spacing" textLength="40.625" x="86.4583" y="186.4532">circle</text></g><!--entity cloud--><g id="elem_cloud"><path d="M144.3697,143.7526 C146.8291,137.3994 152.7755,136.1505 157.015,141.8914 C160.8082,133.6677 165.225,132.6096 171.4378,139.5972 C175.9301,134.3673 181.8904,134.9761 184.4706,141.6846 C189.2244,136.1117 194.748,137.9079 197.4597,143.9653 C205.4977,146.253 208.7978,153.5179 201.3557,159.6506 C207.569,165.1842 207.3786,171.8839 199.0678,175.293 C196.4043,183.7807 191.0706,184.5762 184.597,179.2985 C182.7099,186.6461 177.3922,186.7436 172.5741,182.2828 C167.2856,187.6274 160.0226,187.4866 157.681,179.089 C152.68,185.4158 146.822,182.0801 144.7201,176.0486 C135.8658,173.4166 135.2081,167.0132 140.6301,160.6013 C133.7127,154.4711 136.4033,146.5793 144.3697,143.7526 " fill="#EFEFFF" style="stroke:#6C71C4;stroke-width:2.0833333333333335;"/><text fill="#000000" font-family="Dejavu Serif" font-size="14.5833" lengthAdjust="spacing" textLength="39.5833" x="150.5208" y="163.5366">cloud</text></g><!--entity collections--><g id="elem_collections"><rect fill="#EFEFFF" height="33.6426" rx="7.8125" ry="7.8125" style="stroke:#6C71C4;stroke-width:2.0833333333333335;" width="93.75" x="228.6458" y="143.75"/><rect fill="#EFEFFF" height="33.6426" rx="7.8125" ry="7.8125" style="stroke:#6C71C4;stroke-width:2.0833333333333335;" width="93.75" x="224.4792" y="139.5833"/><text fill="#000000" font-family="Dejavu Serif" font-size="14.5833" lengthAdjust="spacing" textLength="77.0833" x="232.8125" y="161.4532">collections</text></g><!--entity component--><g id="elem_component"><rect fill="#C2F0FF" height="48.2259" rx="7.8125" ry="7.8125" style="stroke:#268BD2;stroke-width:2.0833333333333335;" width="123.9583" x="341.6667" y="134.375"/><rect fill="#C2F0FF" height="10.4167" style="stroke:#268BD2;stroke-width:2.0833333333333335;" width="15.625" x="444.7917" y="139.5833"/><rect fill="#C2F0FF" height="2.0833" style="stroke:#268BD2;stroke-width:2.0833333333333335;" width="4.1667" x="442.7083" y="141.6667"/><rect fill="#C2F0FF" height="2.0833" style="stroke:#268BD2;stroke-width:2.0833333333333335;" width="4.1667" x="442.7083" y="145.8333"/><text fill="#000000" font-family="Dejavu Serif" font-size="14.5833" lengthAdjust="spacing" textLength="82.2917" x="357.2917" y="168.7449">component</text></g><!--entity control--><g id="elem_control"><ellipse cx="510.9375" cy="150" fill="#FFFFCC" rx="12.5" ry="12.5" style="stroke:#B58900;stroke-width:2.0833333333333335;"/><polygon fill="#B58900" points="506.7708,137.5,513.0208,132.2917,510.9375,137.5,513.0208,142.7083,506.7708,137.5" style="stroke:#B58900;stroke-width:1.0416666666666667;"/><text fill="#000000" font-family="Dejavu Serif" font-size="14.5833" lengthAdjust="spacing" textLength="52.0833" x="484.8958" y="180.2032">control</text></g><!--entity database--><g id="elem_database"><path d="M8.3333,235.9375 C8.3333,225.5208 51.5625,225.5208 51.5625,225.5208 C51.5625,225.5208 94.7917,225.5208 94.7917,235.9375 L94.7917,262.2884 C94.7917,272.7051 51.5625,272.7051 51.5625,272.7051 C51.5625,272.7051 8.3333,272.7051 8.3333,262.2884 L8.3333,235.9375 " fill="#EFEFFF" style="stroke:#6C71C4;stroke-width:2.0833333333333335;"/><path d="M8.3333,235.9375 C8.3333,246.3542 51.5625,246.3542 51.5625,246.3542 C51.5625,246.3542 94.7917,246.3542 94.7917,235.9375 " fill="none" style="stroke:#6C71C4;stroke-width:2.0833333333333335;"/><text fill="#000000" font-family="Dejavu Serif" font-size="14.5833" lengthAdjust="spacing" textLength="65.625" x="18.75" y="264.0574">database</text></g><!--entity entity--><g id="elem_entity"><ellipse cx="134.8958" cy="240.625" fill="#FFFFCC" rx="12.5" ry="12.5" style="stroke:#B58900;stroke-width:2.0833333333333335;"/><line style="stroke:#B58900;stroke-width:2.0833333333333335;" x1="122.3958" x2="147.3958" y1="255.2083" y2="255.2083"/><text fill="#000000" font-family="Dejavu Serif" font-size="14.5833" lengthAdjust="spacing" textLength="42.7083" x="113.5417" y="270.8282">entity</text></g><!--entity file--><g id="elem_file"><path d="M175,238.0208 L175,260.2051 A7.8125,7.8125 0 0 0 182.8125,268.0176 L209.8958,268.0176 A7.8125,7.8125 0 0 0 217.7083,260.2051 L217.7083,240.625 L207.2917,230.2083 L182.8125,230.2083 A7.8125,7.8125 0 0 0 175,238.0208 " fill="#C9FFC9" style="stroke:#859900;stroke-width:2.0833333333333335;"/><path d="M207.2917,230.2083 L207.2917,232.8125 A7.8125,7.8125 0 0 0 215.1042,240.625 L217.7083,240.625 " fill="#C9FFC9" style="stroke:#859900;stroke-width:2.0833333333333335;"/><text fill="#000000" font-family="Dejavu Serif" font-size="14.5833" lengthAdjust="spacing" textLength="21.875" x="185.4167" y="254.1616">file</text></g><!--entity folder--><g id="elem_folder"><path d="M244.2708,220.8333 L276.5625,220.8333 A11.7188,11.7188 0 0 1 284.375,228.6458 L291.6667,242.7083 L302.6042,242.7083 A7.8125,7.8125 0 0 1 310.4167,250.5208 L310.4167,269.5801 A7.8125,7.8125 0 0 1 302.6042,277.3926 L244.2708,277.3926 A7.8125,7.8125 0 0 1 236.4583,269.5801 L236.4583,228.6458 A7.8125,7.8125 0 0 1 244.2708,220.8333 " fill="#F8E7C0" style="stroke:#F8E7C0;stroke-width:2.0833333333333335;"/><line style="stroke:#F8E7C0;stroke-width:2.0833333333333335;" x1="236.4583" x2="291.6667" y1="242.7083" y2="242.7083"/><text fill="#000000" font-family="Dejavu Serif" font-size="14.5833" lengthAdjust="spacing" textLength="42.7083" x="246.875" y="263.5366">folder</text></g><!--entity frame--><g id="elem_frame"><rect fill="#EFEFFF" height="48.2259" rx="7.8125" ry="7.8125" style="stroke:#6C71C4;stroke-width:2.0833333333333335;" width="85.4167" x="329.6875" y="225"/><path d="M358.1597,225 L358.1597,230.2083 L350.8681,237.5 L329.6875,237.5 " fill="none" style="stroke:#6C71C4;stroke-width:2.0833333333333335;"/><text fill="#000000" font-family="Dejavu Serif" font-size="14.5833" lengthAdjust="spacing" textLength="43.75" x="345.3125" y="259.3699">frame</text></g><!--entity interface--><g id="elem_interface"><ellipse cx="443.2292" cy="245.8333" fill="#FDF6E3" rx="8.3333" ry="8.3333" style="stroke:#181818;stroke-width:0.5208333333333334;"/><text fill="#000000" font-family="Dejavu Serif" font-size="14.5833" lengthAdjust="spacing" textLength="65.625" x="410.4167" y="277.0782">interface</text></g><!--entity label--><g id="elem_label"><text fill="#000000" font-family="Dejavu Serif" font-size="14.5833" lengthAdjust="spacing" textLength="34.375" x="34.375" y="349.4741">label</text></g><!--entity node--><g id="elem_node"><polygon fill="#C9FFC9" points="98.4375,330.7292,108.8542,320.3125,175.5208,320.3125,175.5208,358.1217,165.1042,368.5384,98.4375,368.5384,98.4375,330.7292" style="stroke:#859900;stroke-width:2.0833333333333335;"/><line style="stroke:#859900;stroke-width:2.0833333333333335;" x1="165.1042" x2="175.5208" y1="330.7292" y2="320.3125"/><line style="stroke:#859900;stroke-width:2.0833333333333335;" x1="98.4375" x2="165.1042" y1="330.7292" y2="330.7292"/><line style="stroke:#859900;stroke-width:2.0833333333333335;" x1="165.1042" x2="165.1042" y1="330.7292" y2="368.5384"/><text fill="#000000" font-family="Dejavu Serif" font-size="14.5833" lengthAdjust="spacing" textLength="35.4167" x="114.0625" y="354.6824">node</text></g><!--entity package--><g id="elem_package"><path d="M202.0833,323.9583 L273.9583,323.9583 A11.7188,11.7188 0 0 1 281.7708,331.7708 L289.0625,347.3409 L298.9583,347.3409 A7.8125,7.8125 0 0 1 306.7708,355.1534 L306.7708,357.2367 A7.8125,7.8125 0 0 1 298.9583,365.0492 L202.0833,365.0492 A7.8125,7.8125 0 0 1 194.2708,357.2367 L194.2708,331.7708 A7.8125,7.8125 0 0 1 202.0833,323.9583 " fill="#FDF6E3" style="stroke:#181818;stroke-width:0.5208333333333334;"/><line style="stroke:#181818;stroke-width:0.5208333333333334;" x1="194.2708" x2="289.0625" y1="347.3409" y2="347.3409"/><text fill="#000000" font-family="Dejavu Serif" font-size="14.5833" font-weight="bold" lengthAdjust="spacing" textLength="68.75" x="204.6875" y="340.7766">package</text></g><!--entity person--><g id="elem_person"><ellipse cx="360.9375" cy="325.451" fill="#FDF6E3" rx="10.8677" ry="10.8677" style="stroke:#181818;stroke-width:0.5208333333333334;"/><rect fill="#FDF6E3" height="37.8092" rx="10.8677" ry="10.8677" style="stroke:#181818;stroke-width:0.5208333333333334;" width="70.8333" x="325.5208" y="336.3187"/><text fill="#000000" font-family="Dejavu Serif" font-size="14.5833" lengthAdjust="spacing" textLength="50" x="335.9375" y="360.272">person</text></g><!--entity process--><g id="elem_process"><polygon fill="#FDF6E3" points="415.1042,325.5208,502.6042,325.5208,513.0208,344.4255,502.6042,363.3301,415.1042,363.3301,425.5208,344.4255" style="stroke:#181818;stroke-width:0.5208333333333334;"/><text fill="#000000" font-family="Dejavu Serif" font-size="14.5833" lengthAdjust="spacing" textLength="56.25" x="435.9375" y="349.4741">process</text></g><!--entity queue--><g id="elem_queue"><path d="M537.5,330.7292 L592.7083,330.7292 C597.9167,330.7292 597.9167,344.4255 597.9167,344.4255 C597.9167,344.4255 597.9167,358.1217 592.7083,358.1217 L537.5,358.1217 C532.2917,358.1217 532.2917,344.4255 532.2917,344.4255 C532.2917,344.4255 532.2917,330.7292 537.5,330.7292 " fill="#EFEFFF" style="stroke:#6C71C4;stroke-width:2.0833333333333335;"/><path d="M592.7083,330.7292 C587.5,330.7292 587.5,344.4255 587.5,344.4255 C587.5,358.1217 592.7083,358.1217 592.7083,358.1217 " fill="none" style="stroke:#6C71C4;stroke-width:2.0833333333333335;"/><text fill="#000000" font-family="Dejavu Serif" font-size="14.5833" lengthAdjust="spacing" textLength="44.7917" x="537.5" y="349.4741">queue</text></g><!--entity rectangle--><g id="elem_rectangle"><rect fill="#C2F0FF" height="37.8092" rx="7.8125" ry="7.8125" style="stroke:#268BD2;stroke-width:2.0833333333333335;" width="90.625" x="6.25" y="411.4583"/><text fill="#000000" font-family="Dejavu Serif" font-size="14.5833" lengthAdjust="spacing" textLength="69.7917" x="16.6667" y="435.4116">rectangle</text></g><!--entity stack--><g id="elem_stack"><rect fill="#FDF6E3" height="37.8092" rx="7.8125" ry="7.8125" style="stroke:none;stroke-width:0.5208333333333334;" width="59.375" x="131.25" y="411.4583"/><path d="M115.625,411.4583 L123.4375,411.4583 A7.8125,7.8125 0 0 1 131.25,419.2708 L131.25,441.4551 A7.8125,7.8125 0 0 0 139.0625,449.2676 L182.8125,449.2676 A7.8125,7.8125 0 0 0 190.625,441.4551 L190.625,419.2708 A7.8125,7.8125 0 0 1 198.4375,411.4583 L206.25,411.4583 " fill="none" style="stroke:#181818;stroke-width:0.5208333333333334;"/><text fill="#000000" font-family="Dejavu Serif" font-size="14.5833" lengthAdjust="spacing" textLength="38.5417" x="141.6667" y="435.4116">stack</text></g><!--entity storage--><g id="elem_storage"><rect fill="#FDF6E3" height="37.8092" rx="36.4583" ry="36.4583" style="stroke:#181818;stroke-width:0.5208333333333334;" width="76.0417" x="225" y="411.4583"/><text fill="#000000" font-family="Dejavu Serif" font-size="14.5833" lengthAdjust="spacing" textLength="55.2083" x="235.4167" y="435.4116">storage</text></g><g id="elem_usecase"><ellipse cx="373.5499" cy="430.4183" fill="#FDF6E3" rx="53.2374" ry="15.3142" style="stroke:#181818;stroke-width:0.5208333333333334;"/><text fill="#000000" font-family="Dejavu Serif" font-size="14.5833" lengthAdjust="spacing" textLength="57.2917" x="341.779" y="434.322">usecase</text></g><g id="elem_usecase/"><ellipse cx="502.4377" cy="430.4519" fill="#FDF6E3" rx="57.1252" ry="15.3477" style="stroke:#181818;stroke-width:0.5208333333333334;"/><text fill="#000000" font-family="Dejavu Serif" font-size="14.5833" lengthAdjust="spacing" textLength="62.5" x="468.0627" y="434.3556">usecase/</text></g><line style="stroke:#181818;stroke-width:0.5208333333333334;" x1="555.0098" x2="538.1606" y1="425.1017" y2="441.9509"/></g></svg>