<?xml version="1.0" encoding="UTF-8" standalone="no"?><svg xmlns="http://www.w3.org/2000/svg" xmlns:xlink="http://www.w3.org/1999/xlink" contentStyleType="text/css" height="582.2917px" preserveAspectRatio="none" style="width:442px;height:582px;background:#00000000;" version="1.1" viewBox="0 0 442 582" width="442.7083px" zoomAndPan="magnify"><defs><linearGradient id="g1uufkmqva2igu0" x1="50%" x2="50%" y1="0%" y2="100%"><stop offset="0%" stop-color="#F18E3E"/><stop offset="100%" stop-color="#EC7211"/></linearGradient></defs><g><!--MD5=[262aabfe314dcb38308ea550cce12173]
cluster Some Group--><g id="cluster_Some Group"><path d="M11.4583,6.25 L109.375,6.25 A6.25,6.25 0 0 1 113.5417,10.4167 L120.8333,37.4674 L431.25,37.4674 A4.1667,4.1667 0 0 1 435.4167,41.6341 L435.4167,102.0833 A4.1667,4.1667 0 0 1 431.25,106.25 L11.4583,106.25 A4.1667,4.1667 0 0 1 7.2917,102.0833 L7.2917,10.4167 A4.1667,4.1667 0 0 1 11.4583,6.25 " style="stroke:#4E5D6C;stroke-width:2.0833333333333335;fill:none;"/><line style="stroke:#4E5D6C;stroke-width:2.0833333333333335;fill:none;" x1="7.2917" x2="120.8333" y1="37.4674" y2="37.4674"/><text fill="#4E5D6C" font-family="Verdana" font-size="12.5" font-weight="bold" lengthAdjust="spacing" textLength="89.5833" x="16.6667" y="25.1444">Some Group</text></g><!--MD5=[a809f7b457cbc4d947186a4bb863b06b]
cluster Other Groups--><g id="cluster_Other Groups"><polygon points="16.6667,147.9167,27.0833,137.5,263.5417,137.5,263.5417,232.2917,253.125,242.7083,16.6667,242.7083,16.6667,147.9167" style="stroke:#ABB6C2;stroke-width:1.0416666666666667;fill:none;"/><line style="stroke:#ABB6C2;stroke-width:1.0416666666666667;fill:none;" x1="253.125" x2="263.5417" y1="147.9167" y2="137.5"/><line style="stroke:#ABB6C2;stroke-width:1.0416666666666667;fill:none;" x1="16.6667" x2="253.125" y1="147.9167" y2="147.9167"/><line style="stroke:#ABB6C2;stroke-width:1.0416666666666667;fill:none;" x1="253.125" x2="253.125" y1="147.9167" y2="242.7083"/><text fill="#ABB6C2" font-family="Verdana" font-size="12.5" font-weight="bold" lengthAdjust="spacing" textLength="100" x="85.9375" y="167.8528">Other Groups</text></g><g id="cluster_##3617"><path d="M281.4769,165.9308 C284.7244,160.3355 289.9587,158.228 294.2654,164.8195 C296.8471,158.7282 300.2119,158.7393 304.6812,162.9022 C309.0906,157.3431 314.1646,157.7453 317.5295,164.0348 C319.2267,158.2731 323.8939,156.8481 328.203,161.3073 C331.5407,155.5243 335.7028,155.0334 339.8275,160.4936 C343.7989,154.059 349.9308,156.2292 352.7353,161.7531 C357.0845,156.0434 360.6036,157.2281 363.9247,162.7751 C367.6089,158.162 372.7154,157.66 375.7402,163.5192 C379.9939,159.0695 385.0637,159.9377 387.2132,165.8493 C390.5811,159.1992 396.6401,160.569 399.7279,166.1363 C405.6939,168.484 405.685,173.1389 400.6887,176.5026 C407.1332,179.2552 407.7067,184.5861 403.0157,189.3548 C409.1528,191.2017 410.1982,195.7631 405.8518,200.3212 C410.7021,205.2308 411.627,209.2005 404.6816,213.0235 C408.5973,217.6589 409.225,221.3249 402.6518,224.0251 C406.6112,228.3951 406.0199,234.3964 399.2048,235.5414 C397.678,241.9093 392.7099,242.6484 388.3935,238.3759 C384.9668,245.0795 379.6717,245.0983 375.3246,239.3413 C373.029,245.8748 368.3757,246.6762 363.359,242.3355 C361.1107,248.1617 355.6476,248.907 351.7851,244.0909 C349.5983,249.559 345.2037,250.2449 341.4806,245.6667 C336.8799,251.1721 331.4967,248.7589 329.5246,242.901 C324.3264,248.63 319.5458,248.362 316.3263,240.9184 C312.2214,245.3249 307.0929,244.773 304.8667,238.8369 C300.2051,243.714 295.6332,242.4444 293.2311,236.4243 C289.6183,241.4235 283.6595,241.9071 280.5381,235.8596 C274.2323,232.4675 273.9684,228.1182 279.6964,223.8805 C274.4048,220.1544 273.2471,215.117 279.5244,211.2335 C273.3624,209.4432 272.8699,206.0699 276.9209,201.5373 C271.1828,196.7861 273.7129,191.546 279.4693,189.1619 C273.6513,185.5758 274.2941,180.7301 280.1955,177.8996 C274.3999,173.8774 276.1788,168.7653 281.4769,165.9308 " style="stroke:#4E5D6C;stroke-width:1.0416666666666667;fill:none;"/></g><!--MD5=[a8e31809c94bd3920922c17a126bb0b3]
cluster MySql--><g id="cluster_MySql"><path d="M258.3333,284.375 C258.3333,273.9583 340.1042,273.9583 340.1042,273.9583 C340.1042,273.9583 421.875,273.9583 421.875,284.375 L421.875,554.1667 C421.875,564.5833 340.1042,564.5833 340.1042,564.5833 C340.1042,564.5833 258.3333,564.5833 258.3333,554.1667 L258.3333,284.375 " style="stroke:#EC7211;stroke-width:1.0416666666666667;fill:none;"/><path d="M258.3333,284.375 C258.3333,294.7917 340.1042,294.7917 340.1042,294.7917 C340.1042,294.7917 421.875,294.7917 421.875,284.375 " fill="none" style="stroke:#EC7211;stroke-width:1.0416666666666667;"/><text fill="#4E5D6C" font-family="Verdana" font-size="12.5" font-weight="bold" lengthAdjust="spacing" textLength="43.75" x="318.2292" y="313.6861">MySql</text></g><!--MD5=[57a7dd60b0970f41fd8892a58576fbc8]
cluster This is my folder--><g id="cluster_This is my folder"><path d="M270.8333,325 L398.9583,325 A6.25,6.25 0 0 1 403.125,329.1667 L410.4167,356.2174 L409.375,356.2174 A4.1667,4.1667 0 0 1 413.5417,360.3841 L413.5417,420.8333 A4.1667,4.1667 0 0 1 409.375,425 L270.8333,425 A4.1667,4.1667 0 0 1 266.6667,420.8333 L266.6667,329.1667 A4.1667,4.1667 0 0 1 270.8333,325 " fill="#EEEEEE" style="stroke:#EC7211;stroke-width:2.0833333333333335;"/><line style="stroke:#EC7211;stroke-width:2.0833333333333335;" x1="266.6667" x2="410.4167" y1="356.2174" y2="356.2174"/><text fill="#EC7211" font-family="Verdana" font-size="12.5" font-weight="bold" lengthAdjust="spacing" textLength="119.7917" x="276.0417" y="343.8944">This is my folder</text></g><!--MD5=[b098bf3b49ab5940c6091a421f0675e2]
cluster Foo--><g id="cluster_Foo"><rect fill="#EEEEEE" height="100" rx="4.1667" ry="4.1667" style="stroke:#0073BB;stroke-width:2.0833333333333335;" width="122.9167" x="278.125" y="456.25"/><path d="M326.0417,456.25 L326.0417,473.9258 L315.625,484.3424 L278.125,484.3424 " fill="none" style="stroke:#0073BB;stroke-width:2.0833333333333335;"/><text fill="#0073BB" font-family="Verdana" font-size="12.5" font-weight="bold" lengthAdjust="spacing" textLength="27.0833" x="286.4583" y="474.1028">Foo</text></g><!--MD5=[96f7e1299d4a43069e6ed32352fcac20]
entity HTTP--><g id="elem_HTTP"><ellipse cx="215.625" cy="66.6667" fill="#A7280E" rx="8.3333" ry="8.3333" style="stroke:#D13212;stroke-width:0.5208333333333334;"/><text fill="#4E5D6C" font-family="&quot;Verdana&quot;" font-size="12.5" lengthAdjust="spacing" textLength="32.2917" x="199.4792" y="101.1861">HTTP</text></g><!--MD5=[cbd7cda55f2530e2efe43ec72c097853]
entity First Component--><g id="elem_First Component"><rect fill="url(#g1uufkmqva2igu0)" height="56.2174" rx="4.1667" ry="4.1667" style="stroke:#EC7211;stroke-width:0.5208333333333334;" width="159.375" x="16.1458" y="41.6667"/><rect fill="url(#g1uufkmqva2igu0)" height="10.4167" style="stroke:#EC7211;stroke-width:0.5208333333333334;" width="15.625" x="154.6875" y="46.875"/><rect fill="url(#g1uufkmqva2igu0)" height="2.0833" style="stroke:#EC7211;stroke-width:0.5208333333333334;" width="4.1667" x="152.6042" y="48.9583"/><rect fill="url(#g1uufkmqva2igu0)" height="2.0833" style="stroke:#EC7211;stroke-width:0.5208333333333334;" width="4.1667" x="152.6042" y="53.125"/><text fill="#FFFFFF" font-family="&quot;Verdana&quot;" font-size="12.5" lengthAdjust="spacing" textLength="107.2917" x="36.9792" y="79.3111">First Component</text></g><!--MD5=[b9d11f23832c1491231c5b33e55ab8c6]
entity Another Component--><g id="elem_Another Component"><rect fill="url(#g1uufkmqva2igu0)" height="56.2174" rx="4.1667" ry="4.1667" style="stroke:#EC7211;stroke-width:0.5208333333333334;" width="183.3333" x="243.75" y="41.6667"/><rect fill="url(#g1uufkmqva2igu0)" height="10.4167" style="stroke:#EC7211;stroke-width:0.5208333333333334;" width="15.625" x="406.25" y="46.875"/><rect fill="url(#g1uufkmqva2igu0)" height="2.0833" style="stroke:#EC7211;stroke-width:0.5208333333333334;" width="4.1667" x="404.1667" y="48.9583"/><rect fill="url(#g1uufkmqva2igu0)" height="2.0833" style="stroke:#EC7211;stroke-width:0.5208333333333334;" width="4.1667" x="404.1667" y="53.125"/><text fill="#FFFFFF" font-family="&quot;Verdana&quot;" font-size="12.5" lengthAdjust="spacing" textLength="131.25" x="264.5833" y="79.3111">Another Component</text></g><!--MD5=[76af18d92d7d7c0f7ebd8f4f605ac5aa]
entity FTP--><g id="elem_FTP"><ellipse cx="34.375" cy="203.125" fill="#A7280E" rx="8.3333" ry="8.3333" style="stroke:#D13212;stroke-width:0.5208333333333334;"/><text fill="#4E5D6C" font-family="&quot;Verdana&quot;" font-size="12.5" lengthAdjust="spacing" textLength="22.9167" x="22.9167" y="237.6444">FTP</text></g><!--MD5=[0e2cc1aee2c7f52697e111b4fb84546c]
entity Second Component--><g id="elem_Second Component"><rect fill="url(#g1uufkmqva2igu0)" height="56.2174" rx="4.1667" ry="4.1667" style="stroke:#EC7211;stroke-width:0.5208333333333334;" width="180.2083" x="74.4792" y="178.125"/><rect fill="url(#g1uufkmqva2igu0)" height="10.4167" style="stroke:#EC7211;stroke-width:0.5208333333333334;" width="15.625" x="233.8542" y="183.3333"/><rect fill="url(#g1uufkmqva2igu0)" height="2.0833" style="stroke:#EC7211;stroke-width:0.5208333333333334;" width="4.1667" x="231.7708" y="185.4167"/><rect fill="url(#g1uufkmqva2igu0)" height="2.0833" style="stroke:#EC7211;stroke-width:0.5208333333333334;" width="4.1667" x="231.7708" y="189.5833"/><text fill="#FFFFFF" font-family="&quot;Verdana&quot;" font-size="12.5" lengthAdjust="spacing" textLength="128.125" x="95.3125" y="215.7694">Second Component</text></g><!--MD5=[243c1e580c31013c48b02624e18b25a7]
entity Example 1--><g id="elem_Example 1"><rect fill="url(#g1uufkmqva2igu0)" height="56.2174" rx="4.1667" ry="4.1667" style="stroke:#EC7211;stroke-width:0.5208333333333334;" width="118.75" x="280.2083" y="178.125"/><rect fill="url(#g1uufkmqva2igu0)" height="10.4167" style="stroke:#EC7211;stroke-width:0.5208333333333334;" width="15.625" x="378.125" y="183.3333"/><rect fill="url(#g1uufkmqva2igu0)" height="2.0833" style="stroke:#EC7211;stroke-width:0.5208333333333334;" width="4.1667" x="376.0417" y="185.4167"/><rect fill="url(#g1uufkmqva2igu0)" height="2.0833" style="stroke:#EC7211;stroke-width:0.5208333333333334;" width="4.1667" x="376.0417" y="189.5833"/><text fill="#FFFFFF" font-family="&quot;Verdana&quot;" font-size="12.5" lengthAdjust="spacing" textLength="66.6667" x="301.0417" y="215.7694">Example 1</text></g><!--MD5=[3e0e08c92570480402984701ab5a6d2d]
entity Folder 3--><g id="elem_Folder 3"><rect fill="url(#g1uufkmqva2igu0)" height="56.2174" rx="4.1667" ry="4.1667" style="stroke:#EC7211;stroke-width:0.5208333333333334;" width="105.2083" x="286.9792" y="360.4167"/><rect fill="url(#g1uufkmqva2igu0)" height="10.4167" style="stroke:#EC7211;stroke-width:0.5208333333333334;" width="15.625" x="371.3542" y="365.625"/><rect fill="url(#g1uufkmqva2igu0)" height="2.0833" style="stroke:#EC7211;stroke-width:0.5208333333333334;" width="4.1667" x="369.2708" y="367.7083"/><rect fill="url(#g1uufkmqva2igu0)" height="2.0833" style="stroke:#EC7211;stroke-width:0.5208333333333334;" width="4.1667" x="369.2708" y="371.875"/><text fill="#FFFFFF" font-family="&quot;Verdana&quot;" font-size="12.5" lengthAdjust="spacing" textLength="53.125" x="307.8125" y="398.0611">Folder 3</text></g><!--MD5=[63877ed85df621d134a6c80fb52dad56]
entity Frame 4--><g id="elem_Frame 4"><rect fill="url(#g1uufkmqva2igu0)" height="56.2174" rx="4.1667" ry="4.1667" style="stroke:#EC7211;stroke-width:0.5208333333333334;" width="105.2083" x="286.9792" y="491.6667"/><rect fill="url(#g1uufkmqva2igu0)" height="10.4167" style="stroke:#EC7211;stroke-width:0.5208333333333334;" width="15.625" x="371.3542" y="496.875"/><rect fill="url(#g1uufkmqva2igu0)" height="2.0833" style="stroke:#EC7211;stroke-width:0.5208333333333334;" width="4.1667" x="369.2708" y="498.9583"/><rect fill="url(#g1uufkmqva2igu0)" height="2.0833" style="stroke:#EC7211;stroke-width:0.5208333333333334;" width="4.1667" x="369.2708" y="503.125"/><text fill="#FFFFFF" font-family="&quot;Verdana&quot;" font-size="12.5" lengthAdjust="spacing" textLength="53.125" x="307.8125" y="529.3111">Frame 4</text></g><path d="M206.1908,69.7917 C198.8646,69.7917 187.9247,69.7917 175.7361,69.7917 " fill="none" style="stroke:#EC7211;stroke-width:3.125;"/><path d="M44.1618,206.25 C51.4364,206.25 62.1657,206.25 74.2698,206.25 " fill="none" style="stroke:#EC7211;stroke-width:3.125;"/><path d="M82.9465,98.0261 C77.2642,110.093 70.5383,124.4808 64.5833,137.5 C55.5885,157.1651 45.3897,180.1793 39.4409,193.6779 " fill="none" style="stroke:#EC7211;stroke-width:3.125;"/><polygon fill="#EC7211" points="39.4409,193.6779,47.0345,186.7793,41.5413,188.9118,39.4088,183.4187,39.4409,193.6779" style="stroke:#EC7211;stroke-width:1.0416666666666667;"/><path d="M336.2599,98.0261 C336.9828,121.3396 338.0189,154.7542 338.7414,178.056 " fill="none" style="stroke:#EC7211;stroke-width:3.125;"/><polygon fill="#EC7211" points="338.7414,178.056,342.6155,168.5564,338.58,172.8502,334.2862,168.8146,338.7414,178.056" style="stroke:#EC7211;stroke-width:1.0416666666666667;"/><path d="M339.5833,234.6614 C339.5833,268.6309 339.5833,326.2167 339.5833,360.1685 " fill="none" style="stroke:#EC7211;stroke-width:3.125;"/><polygon fill="#EC7211" points="339.5833,360.1685,343.75,350.7935,339.5833,354.9602,335.4167,350.7935,339.5833,360.1685" style="stroke:#EC7211;stroke-width:1.0416666666666667;"/><path d="M339.5833,416.9763 C339.5833,438.8963 339.5833,469.487 339.5833,491.3966 " fill="none" style="stroke:#EC7211;stroke-width:3.125;"/><polygon fill="#EC7211" points="339.5833,491.3966,343.75,482.0216,339.5833,486.1882,335.4167,482.0216,339.5833,491.3966" style="stroke:#EC7211;stroke-width:1.0416666666666667;"/></g></svg>