<?xml version="1.0" encoding="UTF-8" standalone="no"?><svg xmlns="http://www.w3.org/2000/svg" xmlns:xlink="http://www.w3.org/1999/xlink" contentStyleType="text/css" height="414px" preserveAspectRatio="none" style="width:405px;height:414px;background:#FFFFFF;" version="1.1" viewBox="0 0 405 414" width="405px" zoomAndPan="magnify"><defs/><g><!--MD5=[262aabfe314dcb38308ea550cce12173]
cluster Some Group--><g id="cluster_Some Group"><path d="M8.5,6 L107.5,6 A3.75,3.75 0 0 1 110,8.5 L117,28.2969 L361.5,28.2969 A2.5,2.5 0 0 1 364,30.7969 L364,81.5 A2.5,2.5 0 0 1 361.5,84 L8.5,84 A2.5,2.5 0 0 1 6,81.5 L6,8.5 A2.5,2.5 0 0 1 8.5,6 " style="stroke:#000000;stroke-width:1.5;fill:none;"/><line style="stroke:#000000;stroke-width:1.5;fill:none;" x1="6" x2="117" y1="28.2969" y2="28.2969"/><text fill="#000000" font-family="sans-serif" font-size="14" font-weight="bold" lengthAdjust="spacing" textLength="98" x="10" y="20.9951">Some Group</text></g><!--MD5=[a809f7b457cbc4d947186a4bb863b06b]
cluster Other Groups--><g id="cluster_Other Groups"><polygon fill="#CCCCCC" points="36,102,46,92,240,92,240,165,230,175,36,175,36,102" style="stroke:#AAAAAA;stroke-width:1.0;"/><line style="stroke:#AAAAAA;stroke-width:1.0;" x1="230" x2="240" y1="102" y2="92"/><line style="stroke:#AAAAAA;stroke-width:1.0;" x1="36" x2="230" y1="102" y2="102"/><line style="stroke:#AAAAAA;stroke-width:1.0;" x1="230" x2="230" y1="102" y2="175"/><text fill="#000000" font-family="sans-serif" font-size="14" font-weight="bold" lengthAdjust="spacing" textLength="108" x="80" y="117.9951">Other Groups</text></g><g id="cluster_##4502"><path d="M257.8274,125.4612 C260.8948,119.8817 265.0959,119.025 268.8038,124.8445 C271.4163,117.8042 277.8961,116.8883 282.0513,123.3283 C285.8572,116.7695 292.1358,117.9972 295.3695,123.938 C298.4271,118.6472 302.3389,116.9534 306.6084,122.7045 C310.5516,116.405 316.4064,115.9297 319.8795,123.1653 C323.0875,116.4912 328.7739,118.0161 332.1658,122.9711 C336.4282,117.1244 340.9667,118.7936 343.6734,124.5182 C348.1583,118.1077 354.2774,118.8857 357.1683,126.0973 C367.3528,130.8073 366.5303,140.7601 358.0831,146.3133 C368.0635,153.4136 366.8464,161.3862 356.8,167.2598 C353.6374,173.081 349.7271,173.8965 344.6147,169.6103 C340.5786,175.5417 336.4854,174.455 332.5567,169.4914 C329.2521,176.3516 323.0682,176.1123 319.0077,170.2996 C316.6604,177.4982 311.4862,176.7578 307.0575,172.4639 C302.7544,177.6376 298.465,178.0152 294.6194,171.9572 C289.9174,177.0898 284.4161,176.0455 282.581,169.0998 C279.1425,174.5803 273.5768,175.7934 269.4996,169.8299 C265.3728,175.1518 258.7704,174.4022 256.1877,168.0666 C246.5306,163.3401 245.5725,152.7769 253.766,146.0839 C245.3391,138.3508 248.3074,129.6598 257.8274,125.4612 " fill="#CCCCCC" style="stroke:#AAAAAA;stroke-width:1.0;"/></g><!--MD5=[a8e31809c94bd3920922c17a126bb0b3]
cluster MySql--><g id="cluster_MySql"><path d="M225,193 C225,183 306.5,183 306.5,183 C306.5,183 388,183 388,193 L388,387 C388,397 306.5,397 306.5,397 C306.5,397 225,397 225,387 L225,193 " fill="#CCCCCC" style="stroke:#AAAAAA;stroke-width:1.0;"/><path d="M225,193 C225,203 306.5,203 306.5,203 C306.5,203 388,203 388,193 " fill="none" style="stroke:#AAAAAA;stroke-width:1.0;"/><text fill="#000000" font-family="sans-serif" font-size="14" font-weight="bold" lengthAdjust="spacing" textLength="46" x="283.5" y="217.9951">MySql</text></g><!--MD5=[57a7dd60b0970f41fd8892a58576fbc8]
cluster This is my folder--><g id="cluster_This is my folder"><path d="M235.5,225 L367.5,225 A3.75,3.75 0 0 1 370,227.5 L377,247.2969 L377.5,247.2969 A2.5,2.5 0 0 1 380,249.7969 L380,300.5 A2.5,2.5 0 0 1 377.5,303 L235.5,303 A2.5,2.5 0 0 1 233,300.5 L233,227.5 A2.5,2.5 0 0 1 235.5,225 " style="stroke:#000000;stroke-width:1.5;fill:none;"/><line style="stroke:#000000;stroke-width:1.5;fill:none;" x1="233" x2="377" y1="247.2969" y2="247.2969"/><text fill="#000000" font-family="sans-serif" font-size="14" font-weight="bold" lengthAdjust="spacing" textLength="131" x="237" y="239.9951">This is my folder</text></g><!--MD5=[b098bf3b49ab5940c6091a421f0675e2]
cluster Foo--><g id="cluster_Foo"><rect height="78" rx="2.5" ry="2.5" style="stroke:#181818;stroke-width:1.0;fill:none;" width="104" x="254" y="311"/><path d="M293,311 L293,320.2969 L283,330.2969 L254,330.2969 " fill="none" style="stroke:#181818;stroke-width:1.0;"/><text fill="#000000" font-family="sans-serif" font-size="14" font-weight="bold" lengthAdjust="spacing" textLength="29" x="257" y="324.9951">Foo</text></g><!--MD5=[96f7e1299d4a43069e6ed32352fcac20]
entity HTTP--><g id="elem_HTTP"><ellipse cx="175" cy="51.5" fill="#55BB33" rx="8" ry="8" style="stroke:#338822;stroke-width:0.5;"/><text fill="#000000" font-family="Verdana" font-size="11" lengthAdjust="spacing" textLength="29" x="160.5" y="78.7104">HTTP</text></g><!--MD5=[cbd7cda55f2530e2efe43ec72c097853]
entity First Component--><g id="elem_First Component"><rect fill="#CCCCCC" height="42.8047" rx="2.5" ry="2.5" style="stroke:#AAAAAA;stroke-width:0.5;" width="134" x="14" y="33"/><rect fill="#CCCCCC" height="10" style="stroke:#AAAAAA;stroke-width:0.5;" width="15" x="128" y="38"/><rect fill="#CCCCCC" height="2" style="stroke:#AAAAAA;stroke-width:0.5;" width="4" x="126" y="40"/><rect fill="#CCCCCC" height="2" style="stroke:#AAAAAA;stroke-width:0.5;" width="4" x="126" y="44"/><text fill="#000000" font-family="Verdana" font-size="11" lengthAdjust="spacing" textLength="94" x="29" y="63.2104">First Component</text></g><!--MD5=[b9d11f23832c1491231c5b33e55ab8c6]
entity Another Component--><g id="elem_Another Component"><rect fill="#CCCCCC" height="42.8047" rx="2.5" ry="2.5" style="stroke:#AAAAAA;stroke-width:0.5;" width="153" x="202.5" y="33"/><rect fill="#CCCCCC" height="10" style="stroke:#AAAAAA;stroke-width:0.5;" width="15" x="335.5" y="38"/><rect fill="#CCCCCC" height="2" style="stroke:#AAAAAA;stroke-width:0.5;" width="4" x="333.5" y="40"/><rect fill="#CCCCCC" height="2" style="stroke:#AAAAAA;stroke-width:0.5;" width="4" x="333.5" y="44"/><text fill="#000000" font-family="Verdana" font-size="11" lengthAdjust="spacing" textLength="113" x="217.5" y="63.2104">Another Component</text></g><!--MD5=[76af18d92d7d7c0f7ebd8f4f605ac5aa]
entity FTP--><g id="elem_FTP"><ellipse cx="53" cy="142.5" fill="#55BB33" rx="8" ry="8" style="stroke:#338822;stroke-width:0.5;"/><text fill="#000000" font-family="Verdana" font-size="11" lengthAdjust="spacing" textLength="20" x="43" y="169.7104">FTP</text></g><!--MD5=[0e2cc1aee2c7f52697e111b4fb84546c]
entity Second Component--><g id="elem_Second Component"><rect fill="#CCCCCC" height="42.8047" rx="2.5" ry="2.5" style="stroke:#AAAAAA;stroke-width:0.5;" width="151" x="80.5" y="124"/><rect fill="#CCCCCC" height="10" style="stroke:#AAAAAA;stroke-width:0.5;" width="15" x="211.5" y="129"/><rect fill="#CCCCCC" height="2" style="stroke:#AAAAAA;stroke-width:0.5;" width="4" x="209.5" y="131"/><rect fill="#CCCCCC" height="2" style="stroke:#AAAAAA;stroke-width:0.5;" width="4" x="209.5" y="135"/><text fill="#000000" font-family="Verdana" font-size="11" lengthAdjust="spacing" textLength="111" x="95.5" y="154.2104">Second Component</text></g><!--MD5=[243c1e580c31013c48b02624e18b25a7]
entity Example 1--><g id="elem_Example 1"><rect fill="#CCCCCC" height="42.8047" rx="2.5" ry="2.5" style="stroke:#AAAAAA;stroke-width:0.5;" width="99" x="256.5" y="124"/><rect fill="#CCCCCC" height="10" style="stroke:#AAAAAA;stroke-width:0.5;" width="15" x="335.5" y="129"/><rect fill="#CCCCCC" height="2" style="stroke:#AAAAAA;stroke-width:0.5;" width="4" x="333.5" y="131"/><rect fill="#CCCCCC" height="2" style="stroke:#AAAAAA;stroke-width:0.5;" width="4" x="333.5" y="135"/><text fill="#000000" font-family="Verdana" font-size="11" lengthAdjust="spacing" textLength="59" x="271.5" y="154.2104">Example 1</text></g><!--MD5=[3e0e08c92570480402984701ab5a6d2d]
entity Folder 3--><g id="elem_Folder 3"><rect fill="#CCCCCC" height="42.8047" rx="2.5" ry="2.5" style="stroke:#AAAAAA;stroke-width:0.5;" width="86" x="263" y="252"/><rect fill="#CCCCCC" height="10" style="stroke:#AAAAAA;stroke-width:0.5;" width="15" x="329" y="257"/><rect fill="#CCCCCC" height="2" style="stroke:#AAAAAA;stroke-width:0.5;" width="4" x="327" y="259"/><rect fill="#CCCCCC" height="2" style="stroke:#AAAAAA;stroke-width:0.5;" width="4" x="327" y="263"/><text fill="#000000" font-family="Verdana" font-size="11" lengthAdjust="spacing" textLength="46" x="278" y="282.2104">Folder 3</text></g><!--MD5=[63877ed85df621d134a6c80fb52dad56]
entity Frame 4--><g id="elem_Frame 4"><rect fill="#CCCCCC" height="42.8047" rx="2.5" ry="2.5" style="stroke:#AAAAAA;stroke-width:0.5;" width="87" x="262.5" y="338"/><rect fill="#CCCCCC" height="10" style="stroke:#AAAAAA;stroke-width:0.5;" width="15" x="329.5" y="343"/><rect fill="#CCCCCC" height="2" style="stroke:#AAAAAA;stroke-width:0.5;" width="4" x="327.5" y="345"/><rect fill="#CCCCCC" height="2" style="stroke:#AAAAAA;stroke-width:0.5;" width="4" x="327.5" y="349"/><text fill="#000000" font-family="Verdana" font-size="11" lengthAdjust="spacing" textLength="47" x="277.5" y="368.2104">Frame 4</text></g><path d="M165.7859,54.5 C159.9224,54.5 154.0588,54.5 148.1953,54.5 " fill="none" style="stroke:#000000;stroke-width:1.0;"/><path d="M62.2539,145.5 C68.2351,145.5 74.2163,145.5 80.1975,145.5 " fill="none" style="stroke:#000000;stroke-width:1.0;"/><path d="M74.5059,76.1421 C68.8838,94.0121 60.9691,119.1697 56.4755,133.4529 " fill="none" style="stroke:#000000;stroke-width:1.0;"/><polygon fill="#000000" points="56.4755,133.4529,62.9921,126.0681,57.976,128.6833,55.3608,123.6673,56.4755,133.4529" style="stroke:#000000;stroke-width:1.0;"/><path d="M285.2622,76.1421 C289.6241,90.5203 295.4173,109.6163 299.7718,123.9699 " fill="none" style="stroke:#000000;stroke-width:1.0;"/><polygon fill="#000000" points="299.7718,123.9699,300.9867,114.1962,298.3202,119.1852,293.3313,116.5187,299.7718,123.9699" style="stroke:#000000;stroke-width:1.0;"/><path d="M306,167.0245 C306,190.455 306,228.5575 306,251.9843 " fill="none" style="stroke:#000000;stroke-width:1.0;"/><polygon fill="#000000" points="306,251.9843,310,242.9843,306,246.9843,302,242.9843,306,251.9843" style="stroke:#000000;stroke-width:1.0;"/><path d="M306,295.2641 C306,308.2845 306,324.9999 306,337.9748 " fill="none" style="stroke:#000000;stroke-width:1.0;"/><polygon fill="#000000" points="306,337.9748,310,328.9748,306,332.9748,302,328.9748,306,337.9748" style="stroke:#000000;stroke-width:1.0;"/></g></svg>