<?xml version="1.0" encoding="UTF-8" standalone="no"?><svg xmlns="http://www.w3.org/2000/svg" xmlns:xlink="http://www.w3.org/1999/xlink" contentScriptType="application/ecmascript" contentStyleType="text/css" height="396px" preserveAspectRatio="none" style="width:407px;height:396px;background:#777777;" version="1.1" viewBox="0 0 407 396" width="407px" zoomAndPan="magnify"><defs><filter height="300%" id="fplo7s9tktuxc" width="300%" x="-1" y="-1"><feGaussianBlur result="blurOut" stdDeviation="2.0"/><feColorMatrix in="blurOut" result="blurOut2" type="matrix" values="0 0 0 0 0 0 0 0 0 0 0 0 0 0 0 0 0 0 .4 0"/><feOffset dx="4.0" dy="4.0" in="blurOut2" result="blurOut3"/><feBlend in="SourceGraphic" in2="blurOut3" mode="normal"/></filter></defs><g><!--MD5=[262aabfe314dcb38308ea550cce12173]
cluster Some Group--><polygon fill="#777777" filter="url(#fplo7s9tktuxc)" points="16,6,120,6,127,28.2969,374,28.2969,374,84,16,84,16,6" style="stroke:#000000;stroke-width:1.5;"/><line style="stroke:#000000;stroke-width:1.5;" x1="16" x2="127" y1="28.2969" y2="28.2969"/><text fill="#000000" font-family="sans-serif" font-size="14" font-weight="bold" lengthAdjust="spacing" textLength="98" x="20" y="20.9951">Some Group</text><!--MD5=[a809f7b457cbc4d947186a4bb863b06b]
cluster Other Groups--><polygon fill="#2E2E2E" filter="url(#fplo7s9tktuxc)" points="46,102,56,92,250,92,250,161,240,171,46,171,46,102" style="stroke:#1B1B1B;stroke-width:1.5;"/><line style="stroke:#1B1B1B;stroke-width:1.5;" x1="240" x2="250" y1="102" y2="92"/><line style="stroke:#1B1B1B;stroke-width:1.5;" x1="46" x2="240" y1="102" y2="102"/><line style="stroke:#1B1B1B;stroke-width:1.5;" x1="240" x2="240" y1="102" y2="171"/><text fill="#FFFFFF" font-family="Verdana" font-size="11" font-weight="bold" lengthAdjust="spacing" textLength="85" x="101.5" y="115.2104">Other Groups</text><path d="M267.8274,121.4612 C270.8948,115.8817 275.0959,115.025 278.8038,120.8445 C281.4163,113.8042 287.8961,112.8883 292.0513,119.3283 C295.8572,112.7695 302.1358,113.9972 305.3695,119.938 C308.4271,114.6472 312.3389,112.9534 316.6084,118.7045 C320.5516,112.405 326.4064,111.9297 329.8795,119.1653 C333.0875,112.4912 338.7739,114.0161 342.1658,118.9711 C346.4282,113.1244 350.9667,114.7936 353.6734,120.5182 C358.1583,114.1077 364.2774,114.8857 367.1683,122.0973 C377.3528,126.8073 376.5303,136.7601 368.0831,142.3133 C378.0635,149.4136 376.8464,157.3862 366.8,163.2598 C363.6374,169.081 359.7271,169.8965 354.6147,165.6103 C350.5786,171.5417 346.4854,170.455 342.5567,165.4914 C339.2521,172.3516 333.0682,172.1123 329.0077,166.2996 C326.6604,173.4982 321.4862,172.7578 317.0575,168.4639 C312.7544,173.6376 308.465,174.0152 304.6194,167.9572 C299.9174,173.0898 294.4161,172.0455 292.581,165.0998 C289.1425,170.5803 283.5768,171.7934 279.4996,165.8299 C275.3728,171.1518 268.7704,170.4022 266.1877,164.0666 C256.5306,159.3401 255.5725,148.7769 263.766,142.0839 C255.3391,134.3508 258.3074,125.6598 267.8274,121.4612 " fill="#2E2E2E" filter="url(#fplo7s9tktuxc)" style="stroke:#1B1B1B;stroke-width:1.5;"/><!--MD5=[a8e31809c94bd3920922c17a126bb0b3]
cluster MySql--><path d="M235,189 C235,179 316.5,179 316.5,179 C316.5,179 398,179 398,189 L398,379 C398,389 316.5,389 316.5,389 C316.5,389 235,389 235,379 L235,189 " fill="#2E2E2E" filter="url(#fplo7s9tktuxc)" style="stroke:#1B1B1B;stroke-width:1.5;"/><path d="M235,189 C235,199 316.5,199 316.5,199 C316.5,199 398,199 398,189 " fill="none" style="stroke:#1B1B1B;stroke-width:1.5;"/><text fill="#FFFFFF" font-family="Verdana" font-size="11" font-weight="bold" lengthAdjust="spacing" textLength="38" x="297.5" y="211.2104">MySql</text><!--MD5=[57a7dd60b0970f41fd8892a58576fbc8]
cluster This is my folder--><polygon fill="#2E2E2E" filter="url(#fplo7s9tktuxc)" points="243,217,380,217,387,239.2969,390,239.2969,390,295,243,295,243,217" style="stroke:#000000;stroke-width:1.5;"/><line style="stroke:#000000;stroke-width:1.5;" x1="243" x2="387" y1="239.2969" y2="239.2969"/><text fill="#000000" font-family="sans-serif" font-size="14" font-weight="bold" lengthAdjust="spacing" textLength="131" x="247" y="231.9951">This is my folder</text><!--MD5=[b098bf3b49ab5940c6091a421f0675e2]
cluster Foo--><rect fill="#2E2E2E" filter="url(#fplo7s9tktuxc)" height="78" style="stroke:#000000;stroke-width:1.5;" width="104" x="264" y="303"/><path d="M303,303 L303,312.2969 L293,322.2969 L264,322.2969 " fill="none" style="stroke:#000000;stroke-width:1.5;"/><text fill="#000000" font-family="sans-serif" font-size="14" font-weight="bold" lengthAdjust="spacing" textLength="29" x="267" y="316.9951">Foo</text><!--MD5=[96f7e1299d4a43069e6ed32352fcac20]
entity HTTP--><ellipse cx="185" cy="51.5" fill="#228811" filter="url(#fplo7s9tktuxc)" rx="8" ry="8" style="stroke:#113300;stroke-width:1.5;"/><text fill="#FFFFFF" font-family="Verdana" font-size="11" lengthAdjust="spacing" textLength="29" x="170.5" y="78.7104">HTTP</text><!--MD5=[cbd7cda55f2530e2efe43ec72c097853]
entity First Component--><rect fill="#2E2E2E" filter="url(#fplo7s9tktuxc)" height="42.8047" style="stroke:#1B1B1B;stroke-width:1.5;" width="134" x="24" y="33"/><rect fill="#2E2E2E" height="10" style="stroke:#1B1B1B;stroke-width:1.5;" width="15" x="138" y="38"/><rect fill="#2E2E2E" height="2" style="stroke:#1B1B1B;stroke-width:1.5;" width="4" x="136" y="40"/><rect fill="#2E2E2E" height="2" style="stroke:#1B1B1B;stroke-width:1.5;" width="4" x="136" y="44"/><text fill="#FFFFFF" font-family="Verdana" font-size="11" lengthAdjust="spacing" textLength="94" x="39" y="63.2104">First Component</text><!--MD5=[b9d11f23832c1491231c5b33e55ab8c6]
entity Another Component--><rect fill="#2E2E2E" filter="url(#fplo7s9tktuxc)" height="42.8047" style="stroke:#1B1B1B;stroke-width:1.5;" width="153" x="212.5" y="33"/><rect fill="#2E2E2E" height="10" style="stroke:#1B1B1B;stroke-width:1.5;" width="15" x="345.5" y="38"/><rect fill="#2E2E2E" height="2" style="stroke:#1B1B1B;stroke-width:1.5;" width="4" x="343.5" y="40"/><rect fill="#2E2E2E" height="2" style="stroke:#1B1B1B;stroke-width:1.5;" width="4" x="343.5" y="44"/><text fill="#FFFFFF" font-family="Verdana" font-size="11" lengthAdjust="spacing" textLength="113" x="227.5" y="63.2104">Another Component</text><!--MD5=[76af18d92d7d7c0f7ebd8f4f605ac5aa]
entity FTP--><ellipse cx="63" cy="138.5" fill="#228811" filter="url(#fplo7s9tktuxc)" rx="8" ry="8" style="stroke:#113300;stroke-width:1.5;"/><text fill="#FFFFFF" font-family="Verdana" font-size="11" lengthAdjust="spacing" textLength="20" x="53" y="165.7104">FTP</text><!--MD5=[0e2cc1aee2c7f52697e111b4fb84546c]
entity Second Component--><rect fill="#2E2E2E" filter="url(#fplo7s9tktuxc)" height="42.8047" style="stroke:#1B1B1B;stroke-width:1.5;" width="151" x="90.5" y="120"/><rect fill="#2E2E2E" height="10" style="stroke:#1B1B1B;stroke-width:1.5;" width="15" x="221.5" y="125"/><rect fill="#2E2E2E" height="2" style="stroke:#1B1B1B;stroke-width:1.5;" width="4" x="219.5" y="127"/><rect fill="#2E2E2E" height="2" style="stroke:#1B1B1B;stroke-width:1.5;" width="4" x="219.5" y="131"/><text fill="#FFFFFF" font-family="Verdana" font-size="11" lengthAdjust="spacing" textLength="111" x="105.5" y="150.2104">Second Component</text><!--MD5=[243c1e580c31013c48b02624e18b25a7]
entity Example 1--><rect fill="#2E2E2E" filter="url(#fplo7s9tktuxc)" height="42.8047" style="stroke:#1B1B1B;stroke-width:1.5;" width="99" x="266.5" y="120"/><rect fill="#2E2E2E" height="10" style="stroke:#1B1B1B;stroke-width:1.5;" width="15" x="345.5" y="125"/><rect fill="#2E2E2E" height="2" style="stroke:#1B1B1B;stroke-width:1.5;" width="4" x="343.5" y="127"/><rect fill="#2E2E2E" height="2" style="stroke:#1B1B1B;stroke-width:1.5;" width="4" x="343.5" y="131"/><text fill="#FFFFFF" font-family="Verdana" font-size="11" lengthAdjust="spacing" textLength="59" x="281.5" y="150.2104">Example 1</text><!--MD5=[3e0e08c92570480402984701ab5a6d2d]
entity Folder 3--><rect fill="#2E2E2E" filter="url(#fplo7s9tktuxc)" height="42.8047" style="stroke:#1B1B1B;stroke-width:1.5;" width="86" x="273" y="244"/><rect fill="#2E2E2E" height="10" style="stroke:#1B1B1B;stroke-width:1.5;" width="15" x="339" y="249"/><rect fill="#2E2E2E" height="2" style="stroke:#1B1B1B;stroke-width:1.5;" width="4" x="337" y="251"/><rect fill="#2E2E2E" height="2" style="stroke:#1B1B1B;stroke-width:1.5;" width="4" x="337" y="255"/><text fill="#FFFFFF" font-family="Verdana" font-size="11" lengthAdjust="spacing" textLength="46" x="288" y="274.2104">Folder 3</text><!--MD5=[63877ed85df621d134a6c80fb52dad56]
entity Frame 4--><rect fill="#2E2E2E" filter="url(#fplo7s9tktuxc)" height="42.8047" style="stroke:#1B1B1B;stroke-width:1.5;" width="87" x="272.5" y="330"/><rect fill="#2E2E2E" height="10" style="stroke:#1B1B1B;stroke-width:1.5;" width="15" x="339.5" y="335"/><rect fill="#2E2E2E" height="2" style="stroke:#1B1B1B;stroke-width:1.5;" width="4" x="337.5" y="337"/><rect fill="#2E2E2E" height="2" style="stroke:#1B1B1B;stroke-width:1.5;" width="4" x="337.5" y="341"/><text fill="#FFFFFF" font-family="Verdana" font-size="11" lengthAdjust="spacing" textLength="47" x="287.5" y="360.2104">Frame 4</text><path d="M175.7859,54.5 C169.9224,54.5 164.0588,54.5 158.1953,54.5 " fill="none" style="stroke:#FFFFFF;stroke-width:1.0;"/><path d="M72.2539,141.5 C78.2351,141.5 84.2163,141.5 90.1975,141.5 " fill="none" style="stroke:#FFFFFF;stroke-width:1.0;"/><path d="M84.222,76.0761 C78.7191,92.7813 71.1663,115.7095 66.7128,129.2291 " fill="none" style="stroke:#FFFFFF;stroke-width:1.0;"/><polygon fill="#FFFFFF" points="66.7128,129.2291,73.3278,121.9325,68.2771,124.4801,65.7294,119.4295,66.7128,129.2291" style="stroke:#FFFFFF;stroke-width:1.0;"/><path d="M295.5359,76.0761 C299.7498,89.342 305.2102,106.5322 309.4307,119.8187 " fill="none" style="stroke:#FFFFFF;stroke-width:1.0;"/><polygon fill="#FFFFFF" points="309.4307,119.8187,310.5183,110.0301,307.917,115.0534,302.8937,112.4521,309.4307,119.8187" style="stroke:#FFFFFF;stroke-width:1.0;"/><path d="M316,163.1956 C316,185.6299 316,221.2289 316,243.7028 " fill="none" style="stroke:#FFFFFF;stroke-width:1.0;"/><polygon fill="#FFFFFF" points="316,243.7028,320,234.7028,316,238.7028,312,234.7028,316,243.7028" style="stroke:#FFFFFF;stroke-width:1.0;"/><path d="M316,287.2641 C316,300.2845 316,316.9999 316,329.9748 " fill="none" style="stroke:#FFFFFF;stroke-width:1.0;"/><polygon fill="#FFFFFF" points="316,329.9748,320,320.9748,316,324.9748,312,320.9748,316,329.9748" style="stroke:#FFFFFF;stroke-width:1.0;"/></g></svg>