<?xml version="1.0" encoding="UTF-8" standalone="no"?><svg xmlns="http://www.w3.org/2000/svg" xmlns:xlink="http://www.w3.org/1999/xlink" contentScriptType="application/ecmascript" contentStyleType="text/css" height="593.75px" preserveAspectRatio="none" style="width:723px;height:593px;background:#00000000;" version="1.1" viewBox="0 0 723 593" width="723.9583px" zoomAndPan="magnify"><defs/><g><polygon points="228.125,2.0833,228.125,2.3023,238.6719,1.6517,249.2188,2.2847,259.7656,2.4997,270.3125,1.3402,280.8594,2.0024,291.4063,1.6391,301.9531,1.6839,312.5,2.0123,323.0469,1.3632,333.5938,2.66,344.1406,1.4268,354.6875,1.8773,365.2344,2.5333,375.7813,1.994,386.3281,2.1544,396.875,2.0501,407.4219,2.2693,417.9688,2.3324,428.5156,2.6934,439.0625,2.7823,449.6094,2.7909,460.1563,2.3486,470.7031,2.5662,481.25,2.0833,481.3433,2.3086,481.7434,2.0961,482.5187,2.7891,482.9784,2.7205,483.678,3.2309,484.1963,3.3037,484.0375,3.2379,484.4184,3.8839,484.9223,4.5808,484.9129,5.065,485.2064,5.6747,485.4167,6.25,485.5342,6.25,485.5612,13.6003,485.4153,20.9505,485.5164,28.3008,485.2179,35.651,485.4167,43.0013,485.5079,43.0391,485.3484,43.6634,485.0711,44.2389,484.8811,44.8505,484.2854,45.2941,484.1963,45.9476,484.1096,45.7384,483.5245,45.9923,483.0099,46.4168,482.4024,46.6168,481.9298,47.1425,481.25,47.168,481.25,46.986,470.7031,46.8106,460.1563,47.4057,449.6094,46.4733,439.0625,46.6272,428.5156,47.844,417.9688,47.6218,407.4219,47.9331,396.875,46.8328,386.3281,47.5005,375.7813,47.783,365.2344,46.6759,354.6875,47.0681,344.1406,47.2992,333.5938,47.8469,323.0469,47.1636,312.5,47.6498,301.9531,46.5911,291.4063,46.4625,280.8594,47.6926,270.3125,46.4212,259.7656,47.6981,249.2188,47.3832,238.6719,46.8889,228.125,47.168,228.078,47.0545,227.5967,47.0711,226.9067,46.5838,226.4359,46.6256,225.6945,46.0143,225.1787,45.9476,225.3768,46.0296,225.09,45.4227,224.7692,44.8016,224.4616,44.1861,224.4355,43.6871,223.9583,43.0013,224.1714,43.0013,224.0171,35.651,224.0515,28.3008,223.9131,20.9505,224.2071,13.6003,223.9583,6.25,224.008,6.2706,224.2578,5.6837,224.2513,4.9907,224.5606,4.4284,225.1049,3.9635,225.1787,3.3037,225.2358,3.4416,225.7623,3.0459,226.3144,2.7122,226.9174,2.5013,227.4446,2.1073,228.125,2.0833" style="stroke:#4D4D4D;stroke-width:1.0416666666666667;fill:none;"/><text fill="#2E2E2E" font-family="Segoe Print" font-size="20.8333" lengthAdjust="spacing" textLength="234.375" x="237.5" y="31.838">sketchy-outline theme</text><!--MD5=[e209b37fc91f378abaa2ddf468318055]
entity actor--><polygon points="67.7544,61.8394,66.5328,63.5085,65.088,65.9531,63.0217,67.6006,60.8503,68.5015,59.1189,68.5797,56.8937,67.453,54.7941,66.7169,53.2004,65.2224,52.3644,63.5115,51.8687,62.1492,51.383,60.3698,50.5947,58.8385,51.2005,57.3435,51.7312,55.7058,53.723,54.4105,55.1242,52.7299,56.8586,52.1718,58.9205,51.6912,61.5647,51.9768,63.0129,52.6598,64.6967,52.9694,66.7441,55.0669,67.4578,57.2813,67.7679,58.7922,67.4166,61.282" style="stroke:#333333;stroke-width:1.5625;fill:none;"/><path d="M59.375,68.1458 L59.5696,68.1458 L58.9914,73.7708 L59.554,79.3958 L59.7451,85.0208 L58.7144,90.6458 L59.375,96.2708 M45.8333,76.4791 L45.8333,76.4071 L51.25,76.0842 L56.6667,76.124 L62.0833,76.416 L67.5,75.8389 L72.9167,76.4791 M59.375,96.2708 L59.7624,96.6065 L56.2257,99.0135 L53.82,102.4008 L51.5522,105.9077 L48.4816,108.7187 L45.8333,111.8958 M59.375,96.2708 L59.4227,96.3121 L62.061,99.3764 L64.9166,102.629 L67.6673,105.7908 L70.6181,109.1259 L72.9167,111.8958 " fill="none" style="stroke:#333333;stroke-width:1.5625;"/><text fill="#2E2E2E" font-family="Segoe Print" font-size="12.5" lengthAdjust="spacing" textLength="34.375" x="42.1875" y="131.311">actor</text><!--MD5=[aa4ec301efc5ec191ce15dba8ac8080e]
entity actor/--><polygon points="145.8794,61.8394,144.6578,63.5085,143.213,65.9531,141.1467,67.6006,138.9753,68.5015,137.2439,68.5797,135.0187,67.453,132.9191,66.7169,131.3254,65.2224,130.4894,63.5115,129.9937,62.1492,129.508,60.3698,128.7197,58.8385,129.3255,57.3435,129.8562,55.7058,131.848,54.4105,133.2492,52.7299,134.9836,52.1718,137.0455,51.6912,139.6897,51.9768,141.1379,52.6598,142.8217,52.9694,144.8691,55.0669,145.5828,57.2813,145.8929,58.7922,145.5416,61.282" style="stroke:#333333;stroke-width:1.5625;fill:none;"/><path d="M135.4752,67.896 L135.544,67.9648 L137.3612,65.7387 L139.5818,63.9159 L141.6711,61.9618 L143.3284,59.5757 L145.5836,57.7876 " style="stroke:#333333;stroke-width:1.5625;fill:none;"/><path d="M137.5,68.1458 L137.6946,68.1458 L137.1164,73.7708 L137.679,79.3958 L137.8701,85.0208 L136.8394,90.6458 L137.5,96.2708 M123.9583,76.4791 L123.9583,76.4071 L129.375,76.0842 L134.7917,76.124 L140.2083,76.416 L145.625,75.8389 L151.0417,76.4791 M137.5,96.2708 L137.8874,96.6065 L134.3507,99.0135 L131.945,102.4008 L129.6772,105.9077 L126.6066,108.7187 L123.9583,111.8958 M137.5,96.2708 L137.5477,96.3121 L140.186,99.3764 L143.0416,102.629 L145.7923,105.7908 L148.7431,109.1259 L151.0417,111.8958 " fill="none" style="stroke:#333333;stroke-width:1.5625;"/><text fill="#2E2E2E" font-family="Segoe Print" font-size="12.5" lengthAdjust="spacing" textLength="38.5417" x="118.2292" y="131.311">actor/</text><!--MD5=[3908db504f15eb564d5f0e12bd7273c1]
entity agent--><polygon fill="#FFC107" points="197.3958,71.7916,197.3958,72.0105,207.6389,71.36,217.8819,71.9929,228.125,72.2079,238.3681,71.0485,248.6111,71.7106,258.8542,71.7916,258.7975,71.6548,259.3925,71.9126,260.0236,72.2579,260.5301,72.302,261.2848,72.9455,261.8004,73.012,261.5983,72.9282,261.9811,73.575,262.4272,74.2479,262.5052,74.7683,262.7986,75.3781,263.0208,75.9583,263.0097,75.9583,263.0828,83.4517,263.1039,90.9452,263.2242,98.4387,263.2538,105.9322,263.0208,113.4257,263.2387,113.516,262.8584,114.0488,262.6814,114.6658,262.5139,115.2868,261.8132,115.6869,261.8004,116.372,261.8906,116.5896,261.1718,116.5209,260.6929,117.0314,259.9669,116.9454,259.4343,117.3263,258.8542,117.5924,258.8542,118.3649,248.6111,117.5416,238.3681,117.7021,228.125,117.9451,217.8819,118.0259,207.6389,117.5883,197.3958,117.5924,197.434,117.6845,196.7305,117.1647,196.2551,117.1954,195.7009,117.036,195.0979,116.7587,194.4496,116.372,194.6462,116.4534,194.0505,115.7185,193.7522,115.1068,193.518,114.5216,193.4544,114.0071,193.2292,113.4257,193.1609,113.4257,193.4658,105.9322,193.1685,98.4387,193.1101,90.9452,193.3084,83.4517,193.2292,75.9583,193.0153,75.8696,193.3067,75.3,193.9255,74.866,194.1012,74.2484,194.4411,73.6988,194.4496,73.012,194.4068,72.9087,195.0812,72.8703,195.7065,72.7132,196.1546,72.1282,196.7938,72.0049,197.3958,71.7916" style="stroke:#FFC720;stroke-width:1.5625;"/><text fill="#555555" font-family="Segoe Print" font-size="12.5" lengthAdjust="spacing" textLength="38.5417" x="208.8542" y="99.0194">agent</text><!--MD5=[ed13bbfe61d4f4be62c09eebe4db66d3]
entity artifact--><polygon points="298.4375,70.2291,298.4375,70.448,308.4635,69.7975,318.4896,70.4304,328.5156,70.6454,338.5417,69.486,348.5677,70.1481,358.5938,69.7848,368.6198,69.8296,378.6458,70.2291,378.6368,70.2072,379.1432,70.2514,379.8979,70.8948,380.3299,70.7591,380.9766,71.142,381.5921,71.4495,381.7307,71.5069,381.8087,72.0273,382.1022,72.6371,382.3141,73.213,382.6257,73.8302,382.8125,74.3958,382.8955,74.3958,383.0159,82.5142,383.0455,90.6327,383.0484,98.7512,382.9009,106.8697,382.8125,114.9882,382.9612,115.0498,382.7937,115.6708,382.093,116.0709,382.2979,116.8461,381.7411,117.3058,381.5921,117.9345,381.663,118.1057,380.9371,118.0198,380.4045,118.4007,379.9229,118.9046,379.2286,118.8952,378.6458,119.1549,378.6458,119.2646,368.6198,119.5076,358.5938,119.5884,348.5677,119.1508,338.5417,119.454,328.5156,118.5586,318.4896,119.4511,308.4635,119.7259,298.4375,119.1549,298.4966,119.2975,297.9297,119.1074,297.1948,118.5117,296.5831,118.2134,295.9979,117.9792,295.4912,117.9345,295.4723,117.9267,295.1841,117.3191,295.2217,116.8465,294.703,116.1435,294.4049,115.5319,294.2708,114.9882,294.3501,114.9882,294.0393,106.8697,294.0906,98.7512,294.4962,90.6327,294.4221,82.5142,294.2708,74.3958,294.5065,74.4933,294.4117,73.7637,294.8614,73.2597,295.1925,72.7064,295.0956,71.976,295.4912,71.4495,295.4785,71.4187,296.0972,71.2458,296.7563,71.1704,297.2584,70.7159,297.9097,70.6216,298.4375,70.2291" style="stroke:#4D4D4D;stroke-width:1.5625;fill:none;"/><polygon points="365.1042,75.4374,365.1771,75.4374,364.9603,78.3541,365.1713,81.2708,365.2429,84.1874,364.8565,87.1041,365.1042,90.0208,365.1042,89.9938,367.6042,89.8727,370.1042,89.8876,372.6042,89.9971,375.1042,89.7807,377.6042,90.0208,377.7964,90.0208,377.3853,88.3541,377.5355,86.6874,377.7541,85.0208,377.5744,83.3541,377.6042,81.6874,377.6209,81.7042,376.3463,80.4296,375.148,79.2313,373.9129,77.9961,372.748,76.8312,371.3542,75.4374,371.3542,75.6704,370.1042,75.6733,368.8542,75.5258,367.6042,75.5984,366.3542,75.6812,365.1042,75.4374" style="stroke:#4D4D4D;stroke-width:1.5625;fill:none;"/><path d="M371.3542,75.4374 L371.4515,75.4374 L371.1624,76.6874 L371.4437,77.9374 L371.5392,79.1874 L371.0239,80.4374 L371.3542,81.6874 " style="stroke:#4D4D4D;stroke-width:1.5625;fill:none;"/><path d="M377.6042,81.6874 L377.6042,81.7847 L376.3542,81.4956 L375.1042,81.7769 L373.8542,81.8725 L372.6042,81.3571 L371.3542,81.6874 " style="stroke:#4D4D4D;stroke-width:1.5625;fill:none;"/><text fill="#4D4D4D" font-family="Segoe Print" font-size="12.5" lengthAdjust="spacing" textLength="46.875" x="309.8958" y="100.5819">artifact</text><!--MD5=[6cbf048fd2d5a055b0f2cbfd23391788]
entity boundary--><path d="M428.6458,69.7083 L428.8404,69.7083 L428.2622,74.7083 L428.8248,79.7083 L429.0159,84.7083 L427.9853,89.7083 L428.6458,94.7083 M428.6458,82.2083 L428.6458,82.1363 L432.1875,81.8134 L435.7292,81.8532 L439.2708,82.1451 L442.8125,81.5681 L446.3542,82.2083 " fill="none" style="stroke:#333333;stroke-width:1.5625;"/><polygon points="471.4232,85.2487,469.5909,87.7523,467.4237,91.4193,464.3242,93.8905,461.0671,95.2419,458.4701,95.3592,455.1322,93.6691,451.9828,92.565,449.5923,90.3232,448.3383,87.7569,447.5947,85.7134,446.8662,83.0443,445.6837,80.7474,446.5924,78.5048,447.3885,76.0483,450.3761,74.1054,452.478,71.5845,455.0796,70.7474,458.1725,70.0265,462.1387,70.4548,464.3111,71.4793,466.8368,71.9437,469.9078,75.09,470.9783,78.4116,471.4435,80.678,470.9166,84.4127" style="stroke:#333333;stroke-width:1.5625;fill:none;"/><text fill="#2E2E2E" font-family="Segoe Print" font-size="12.5" lengthAdjust="spacing" textLength="61.4583" x="419.2708" y="115.686">boundary</text><!--MD5=[0568ea600d1c2ace8679ac75c80dfc89]
entity card--><polygon points="520.8333,79.0833,520.8333,79.3022,531.25,78.6517,541.6667,79.2846,552.0833,79.4996,562.5,78.3401,572.9167,79.0833,572.9063,79.0583,573.4493,79.1905,574.0442,79.4484,574.6754,79.7936,575.1818,79.8378,575.8629,80.3036,576.0405,80.3772,575.9048,80.8091,576.2877,81.4559,576.7337,82.1288,576.8117,82.6493,577.0833,83.2499,577.107,83.2499,577.0722,87.8267,577.1453,92.4036,577.1664,96.9804,577.2867,101.5572,577.0833,106.134,577.2986,106.2232,577.0572,106.8135,576.6769,107.3464,576.4998,107.9634,576.3323,108.5844,575.8629,109.0803,575.7671,108.849,575.3638,109.542,574.645,109.4734,574.1661,109.9838,573.4401,109.8978,572.9167,110.3007,572.9167,110.2293,562.5,111.0732,552.0833,110.2499,541.6667,110.4104,531.25,110.6534,520.8333,110.3007,520.8886,110.4342,520.2436,110.0554,519.693,109.9047,518.9895,109.3848,518.5141,109.4156,517.8871,109.0803,518.0629,109.1532,517.7856,108.5501,517.5956,107.9833,516.9999,107.2484,516.7015,106.6366,516.6667,106.134,516.4509,106.134,516.6462,101.5572,516.5984,96.9804,516.9033,92.4036,516.606,87.8267,516.6667,83.2499,516.5566,83.2043,516.984,82.691,516.9409,81.9828,517.2324,81.4132,517.8512,80.9791,517.8871,80.3036,517.9449,80.4434,518.5739,80.2952,519.0228,79.7123,519.6972,79.6738,520.3225,79.5167,520.8333,79.0833" style="stroke:#1592A6;stroke-width:1.5625;fill:none;"/><text fill="#1592A6" font-family="Segoe Print" font-size="12.5" lengthAdjust="spacing" textLength="29.1667" x="532.2917" y="99.0194">card</text><!--MD5=[da456bc05ddb284180092693c9c3b3b1]
entity circle--><polygon points="67.7544,217.5686,66.5328,219.2376,65.088,221.6823,63.0217,223.3298,60.8503,224.2307,59.1189,224.3089,56.8937,223.1821,54.7941,222.4461,53.2004,220.9516,52.3644,219.2407,51.8687,217.8784,51.383,216.0989,50.5947,214.5677,51.2005,213.0726,51.7312,211.4349,53.723,210.1397,55.1242,208.4591,56.8586,207.901,58.9205,207.4204,61.5647,207.706,63.0129,208.389,64.6967,208.6985,66.7441,210.7961,67.4578,213.0105,67.7679,214.5214,67.4166,217.0112" style="stroke:#DC3545;stroke-width:1.5625;fill:none;"/><text fill="#555555" font-family="Segoe Print" font-size="12.5" lengthAdjust="spacing" textLength="34.375" x="42.1875" y="250.061">circle</text><!--MD5=[3a4d72efb1b53e1acbdd1189cccbc328]
entity cloud--><path d="M109.4802,200.3041 L109.4802,200.3041 L109.5109,200.3964 L112.2284,199.1871 L115.126,198.519 L117.965,197.6747 L120.611,196.2508 L123.5241,195.6292 L123.5241,195.6292 L123.5179,195.5937 L126.6278,194.885 L129.769,194.355 L132.9319,193.9491 L136.0199,193.1152 L139.2128,192.8808 L139.2128,192.8808 L139.2823,193.1276 L142.3055,193.4924 L145.5315,194.5776 L148.7822,195.7507 L151.8891,196.4125 L155.0716,197.3432 L155.0716,197.3432 L155.0789,197.3739 L158.1985,198.0794 L161.3517,198.9248 L164.4886,199.7027 L167.6564,200.6093 L170.7236,201.0962 L170.7236,201.0962 L171.032,201.1339 L171.4791,204.7646 L171.7273,208.3709 L172.2667,212.0129 L172.8197,215.6565 L172.9404,219.2473 L172.9404,219.2473 L172.6129,219.1821 L172.4422,223.3572 L171.1933,227.3176 L170.764,231.4413 L169.4907,235.3968 L168.9092,239.4902 L168.9092,239.4902 L168.902,239.4593 L166.0568,240.5113 L163.0426,240.8419 L160.1282,241.5982 L157.2221,242.3902 L154.2556,242.9244 L154.2556,242.9244 L154.2954,243.113 L151.5143,243.5017 L148.8012,244.2125 L145.978,244.4021 L143.319,245.3693 L140.5508,245.8194 L140.5508,245.8194 L140.5767,246.0719 L137.165,245.6751 L133.7662,245.4036 L130.3076,244.5497 L126.8929,244.1228 L123.5169,244.0741 L123.5169,244.0741 L123.4477,243.7948 L120.6308,243.3344 L117.7359,242.5593 L114.9541,242.2406 L111.9792,241.1427 L109.1191,240.508 L109.1191,240.508 L108.9653,240.4686 L108.2064,236.5681 L106.7899,232.4994 L105.8411,228.5503 L105.3499,224.7183 L104.0438,220.6778 L104.0438,220.6778 L104.2349,220.7423 L103.5561,218.388 L102.2829,215.8331 L101.7542,213.5295 L101.0633,211.1711 L99.9945,208.6851 L99.8497,208.5212 L101.8622,206.9757 L103.8274,205.3764 L105.8857,203.8826 L107.5817,201.9788 L109.4802,200.3041 " style="stroke:#F2FCFE;stroke-width:1.5625;fill:none;"/><text fill="#2E2E2E" font-family="Segoe Print" font-size="12.5" lengthAdjust="spacing" textLength="35.4167" x="120.8333" y="222.9777">cloud</text><!--MD5=[a5a7a1c563e7de0fee7f3171b646813b]
entity collections--><polygon points="216.1458,199.9166,216.1458,200.1355,225.9838,199.485,235.8218,200.1179,245.6597,200.3329,255.4977,199.1735,265.3356,199.8356,275.1736,199.4723,285.0116,199.5171,294.8495,199.8456,304.6875,199.9166,304.5956,199.6948,305.3503,200.3383,305.7823,200.2026,306.429,200.5854,307.1019,201.0315,307.6338,201.137,307.6063,201.1256,307.8997,201.7353,308.1117,202.3112,308.4233,202.9285,308.6868,203.5258,308.8542,204.0833,309.0575,204.0833,309.0872,210.7434,309.09,217.4036,308.9426,224.0637,309.0151,230.7239,308.8542,237.384,309.0794,237.4773,308.3787,237.8775,308.5837,238.6527,308.0268,239.1124,308.0491,239.812,307.6338,240.3303,307.568,240.1715,307.0354,240.5524,306.5538,241.0564,305.8595,241.0469,305.2907,241.3404,304.6875,241.5507,304.6875,241.9034,294.8495,241.9843,285.0116,241.5466,275.1736,241.8499,265.3356,240.9544,255.4977,241.8469,245.6597,242.1217,235.8218,242.0138,225.9838,242.1893,216.1458,241.5507,216.0816,241.3957,215.4699,241.0974,214.8848,240.8632,214.3702,240.7996,213.7627,240.5113,213.1996,240.3303,213.4181,240.4209,212.8994,239.7178,212.6014,239.1062,212.5405,238.5929,212.0093,237.8847,211.9792,237.384,211.7989,237.384,212.2045,230.7239,212.1304,224.0637,212.2342,217.4036,211.8674,210.7434,211.9792,204.0833,212.0816,204.1257,212.4126,203.5724,212.3158,202.842,212.6806,202.3027,212.9959,201.743,213.1996,201.137,213.2862,201.3461,213.7883,200.8916,214.4395,200.7972,214.8937,200.2271,215.4666,199.9434,216.1458,199.9166" style="stroke:#333333;stroke-width:1.5625;fill:none;"/><polygon points="211.9792,195.7499,211.9792,195.9689,221.8171,195.3183,231.6551,195.9513,241.4931,196.1663,251.331,195.0068,261.169,195.669,271.0069,195.3057,280.8449,195.3504,290.6829,195.6789,300.5208,195.7499,300.429,195.5281,301.1837,196.1716,301.6156,196.0359,302.2623,196.4187,302.9353,196.8648,303.4671,196.9703,303.4396,196.9589,303.7331,197.5686,303.945,198.1446,304.2566,198.7618,304.5201,199.3591,304.6875,199.9166,304.8909,199.9166,304.9205,206.5767,304.9234,213.2369,304.7759,219.8971,304.8485,226.5572,304.6875,233.2174,304.9128,233.3107,304.2121,233.7108,304.417,234.486,303.8602,234.9457,303.8824,235.6453,303.4671,236.1636,303.4013,236.0048,302.8688,236.3857,302.3871,236.8897,301.6929,236.8802,301.1241,237.1737,300.5208,237.384,300.5208,237.7368,290.6829,237.8176,280.8449,237.38,271.0069,237.6832,261.169,236.7878,251.331,237.6803,241.4931,237.9551,231.6551,237.8471,221.8171,238.0226,211.9792,237.384,211.915,237.2291,211.3033,236.9307,210.7181,236.6965,210.2036,236.6329,209.596,236.3447,209.0329,236.1636,209.2515,236.2542,208.7328,235.5512,208.4347,234.9395,208.3739,234.4262,207.8427,233.718,207.8125,233.2174,207.6322,233.2174,208.0378,226.5572,207.9638,219.8971,208.0675,213.2369,207.7008,206.5767,207.8125,199.9166,207.9149,199.959,208.246,199.4058,208.1491,198.6753,208.514,198.1361,208.8292,197.5763,209.0329,196.9703,209.1195,197.1794,209.6216,196.7249,210.2729,196.6305,210.7271,196.0604,211.2999,195.7767,211.9792,195.7499" style="stroke:#333333;stroke-width:1.5625;fill:none;"/><text fill="#2E2E2E" font-family="Segoe Print" font-size="12.5" lengthAdjust="spacing" textLength="69.7917" x="221.3542" y="220.8944">collections</text><!--MD5=[5f175ec018c225c86e8e77149e6345d4]
entity component--><polygon points="344.2708,190.5416,344.2708,190.7605,354.9716,190.11,365.6723,190.7429,376.3731,190.9579,387.0739,189.7985,397.7746,190.4606,408.4754,190.0973,419.1761,190.1421,429.8769,190.4706,440.5777,189.8214,451.2784,191.1183,461.9792,190.5416,461.8954,190.3394,462.5421,190.7222,463.2151,191.1683,463.7355,191.2463,464.3453,191.5398,464.9254,191.762,464.9152,191.7577,465.2268,192.375,465.4903,192.9723,465.8456,193.6076,466.117,194.2082,466.1458,194.7083,466.8534,194.7083,466.4111,204.2851,466.6287,213.8619,466.8773,223.4387,465.3946,233.0155,466.1458,242.5924,466.3635,242.6825,465.8066,243.1422,465.8289,243.8418,465.2548,244.2944,465.1475,244.9403,464.9254,245.5386,465.024,245.7765,464.3297,245.7671,463.7609,246.0606,463.2027,246.3795,462.6237,246.6485,461.9792,246.759,461.9792,246.755,451.2784,247.0582,440.5777,246.1628,429.8769,247.0553,419.1761,247.3301,408.4754,247.2221,397.7746,247.3976,387.0739,246.2558,376.3731,246.0797,365.6723,246.1117,354.9716,246.6977,344.2708,246.759,344.2447,246.696,343.7721,246.7335,343.0691,246.2148,342.4575,245.9168,341.9441,245.8559,341.3246,245.5386,341.1106,245.45,340.9139,244.8804,341.0446,244.4464,340.7321,243.8288,340.5839,243.2792,340.1042,242.5924,339.769,242.5924,340.4367,233.0155,340.7192,223.4387,339.6121,213.8619,340.0043,204.2851,340.1042,194.7083,340.1446,194.725,340.5573,194.2056,340.591,193.5292,340.9848,193.0019,340.9028,192.2776,341.3246,191.762,341.2346,191.5447,341.9807,191.6795,342.4078,191.0438,343.16,191.193,343.709,190.8519,344.2708,190.5416" style="stroke:#333333;stroke-width:1.5625;fill:none;"/><polygon points="445.3125,195.7499,445.3125,195.8229,448.4375,195.6061,451.5625,195.817,454.6875,195.8887,457.8125,195.5022,460.9375,195.7499,460.9105,195.7499,460.7894,197.8333,460.8043,199.9166,460.9138,201.9999,460.6974,204.0833,460.9375,206.1666,460.9375,206.3588,457.8125,205.9477,454.6875,206.0979,451.5625,206.3166,448.4375,206.1368,445.3125,206.1666,445.3362,206.1666,445.3014,204.0833,445.3745,201.9999,445.3955,199.9166,445.5159,197.8333,445.3125,195.7499" style="stroke:#333333;stroke-width:1.5625;fill:none;"/><polygon points="443.2292,197.8333,443.2292,197.9062,444.0625,197.6894,444.8958,197.9004,445.7292,197.972,446.5625,197.5855,447.3958,197.8333,447.3688,197.8333,447.2477,198.2499,447.2627,198.6666,447.3722,199.0833,447.1558,199.4999,447.3958,199.9166,447.3958,200.1088,446.5625,199.6977,445.7292,199.8479,444.8958,200.0666,444.0625,199.8868,443.2292,199.9166,443.2529,199.9166,443.2181,199.4999,443.2912,199.0833,443.3122,198.6666,443.4325,198.2499,443.2292,197.8333" style="stroke:#333333;stroke-width:1.5625;fill:none;"/><polygon points="443.2292,201.9999,443.2292,202.0729,444.0625,201.8561,444.8958,202.067,445.7292,202.1387,446.5625,201.7522,447.3958,201.9999,447.3688,201.9999,447.2477,202.4166,447.2627,202.8333,447.3722,203.2499,447.1558,203.6666,447.3958,204.0833,447.3958,204.2755,446.5625,203.8644,445.7292,204.0146,444.8958,204.2332,444.0625,204.0535,443.2292,204.0833,443.2529,204.0833,443.2181,203.6666,443.2912,203.2499,443.3122,202.8333,443.4325,202.4166,443.2292,201.9999" style="stroke:#333333;stroke-width:1.5625;fill:none;"/><text fill="#2E2E2E" font-family="Segoe Print" font-size="12.5" lengthAdjust="spacing" textLength="73.9583" x="360.9375" y="228.186">component</text><!--MD5=[0b4603c22bc0d9214baf3db11effa15f]
entity control--><polygon points="537.5691,209.2071,535.7368,211.7107,533.5696,215.3776,530.47,217.8489,527.2129,219.2002,524.6159,219.3175,521.2781,217.6274,518.1286,216.5233,515.7381,214.2816,514.4842,211.7152,513.7405,209.6717,513.012,207.0026,511.8295,204.7058,512.7382,202.4632,513.5343,200.0066,516.5219,198.0637,518.6238,195.5428,521.2254,194.7057,524.3183,193.9848,528.2845,194.4131,530.4569,195.4376,532.9826,195.902,536.0536,199.0484,537.1242,202.3699,537.5893,204.6363,537.0624,208.371" style="stroke:#333333;stroke-width:1.5625;fill:none;"/><polygon fill="#333333" points="520.8333,193.6666,520.8801,193.7226,521.9912,192.5144,523.3763,191.6348,524.6722,190.6482,525.6748,189.3096,527.0833,188.4583,527.0583,188.4482,526.5292,189.4449,526.1264,190.4921,525.8114,191.5745,525.1938,192.5358,525,193.6666,525.1785,193.738,525.2135,194.627,525.7696,195.7244,526.3893,196.8473,526.639,197.8222,527.0833,198.8749,527.0985,198.8931,525.8262,197.8247,524.623,196.8392,523.3865,195.8137,522.2135,194.8645,520.8333,193.6666" style="stroke:#333333;stroke-width:1.0416666666666667;"/><text fill="#2E2E2E" font-family="Segoe Print" font-size="12.5" lengthAdjust="spacing" textLength="45.8333" x="502.0833" y="239.6444">control</text><!--MD5=[f50ff5e4cd64f259303fc83dba1819fc]
entity database--><path d="M584.375,201.4791 L584.375,201.4791 L584.4368,201.5542 L585.718,200.1265 L587.3615,199.1394 L588.887,198.0087 L590.0246,196.4063 L591.6992,195.4569 L591.6924,195.4216 L594.8847,194.6445 L598.1111,194.0456 L601.3612,193.5705 L604.5295,192.6687 L607.8125,192.3645 L607.8306,192.6202 L611.0146,191.8456 L614.2514,191.8174 L617.4946,191.8804 L620.7003,191.4134 L623.9258,191.2252 L623.9265,191.2568 L625.3903,191.1778 L626.8573,191.2427 L628.3228,191.2382 L629.7912,191.3661 L631.25,191.0624 L631.25,191.0624 L631.2569,191.373 L632.7218,191.4094 L634.1823,191.2454 L635.6493,191.3746 L637.1166,191.5177 L638.5742,191.2252 L638.5507,190.8921 L641.819,191.7664 L645.0098,191.544 L648.2596,192.1553 L651.4487,191.908 L654.6875,192.3645 L654.6815,192.3334 L657.9749,193.3202 L661.1286,193.5793 L664.3647,194.2678 L667.6077,194.9924 L670.8008,195.4569 L670.9232,195.6058 L672.2645,196.66 L673.8149,197.9685 L675.027,198.8655 L676.7438,200.3764 L678.125,201.4791 L678.6326,201.4791 L678.5366,208.3476 L678.6926,215.2161 L677.6777,222.0846 L677.5211,228.953 L678.125,235.8215 L678.125,235.8215 L677.9423,235.5993 L676.6428,237.0049 L675.1375,238.1601 L673.9308,239.6785 L672.2143,240.5768 L670.8008,241.8437 L670.7708,241.6877 L667.598,242.5659 L664.2973,242.7775 L661.0875,243.4631 L657.9668,244.6127 L654.6875,244.9361 L654.7017,245.1373 L651.4888,245.5032 L648.2317,245.2432 L645.03,245.7671 L641.8162,246.1202 L638.5742,246.0754 L638.5694,245.8568 L637.1084,246.0636 L635.6458,246.1989 L634.1864,246.4748 L632.7148,246.2037 L631.25,246.2382 L631.25,246.2382 L631.2548,246.4523 L629.7795,245.9493 L628.3133,245.8596 L626.8606,246.3736 L625.3833,245.7762 L623.9258,246.0754 L623.9424,246.3105 L620.7099,245.943 L617.4717,245.496 L614.2463,245.2285 L611.0501,245.3758 L607.8125,244.9361 L607.7864,244.8 L604.6415,244.5867 L601.319,243.4478 L598.1984,243.3614 L594.9641,242.6824 L591.6992,241.8437 L591.7712,241.9313 L590.2483,240.6561 L588.9832,239.6947 L587.4851,238.4498 L585.8896,237.0865 L584.375,235.8215 L584.6233,235.8215 L584.2544,228.953 L585.0384,222.0846 L584.5184,215.2161 L584.5348,208.3476 L584.375,201.4791 " style="stroke:#333333;stroke-width:1.5625;fill:none;"/><path d="M584.375,201.4791 L584.375,201.4791 L584.4368,201.5542 L585.718,202.5353 L587.3615,203.9571 L588.887,205.2353 L590.0246,206.0417 L591.6992,207.5012 L591.6924,207.4659 L594.8847,207.9258 L598.1111,208.5638 L601.3612,209.3257 L604.5295,209.6608 L607.8125,210.5937 L607.8306,210.8493 L611.0146,210.5305 L614.2514,210.9581 L617.4946,211.4767 L620.7003,211.4655 L623.9258,211.733 L623.9265,211.7646 L625.3903,211.7508 L626.8573,211.8807 L628.3228,211.9413 L629.7912,212.1343 L631.25,211.8958 L631.25,211.8958 L631.2569,212.2063 L632.7218,212.1776 L634.1823,211.9485 L635.6493,212.0127 L637.1166,212.0906 L638.5742,211.733 L638.5507,211.3999 L641.819,211.8185 L645.0098,211.1403 L648.2596,211.2959 L651.4487,210.5929 L654.6875,210.5937 L654.6815,210.5625 L657.9749,210.3124 L661.1286,209.3345 L664.3647,208.7861 L667.6077,208.2737 L670.8008,207.5012 L670.9232,207.6501 L672.2645,206.2954 L673.8149,205.1951 L675.027,203.6832 L676.7438,202.7852 L678.125,201.4791 " fill="none" style="stroke:#333333;stroke-width:1.5625;"/><text fill="#2E2E2E" font-family="Segoe Print" font-size="12.5" lengthAdjust="spacing" textLength="62.5" x="600" y="232.8735">database</text><!--MD5=[fbcd1a1664252f7f7ddf883fed3c1e0a]
entity entity--><polygon points="71.9441,325.3529,70.1118,327.8565,67.9446,331.5234,64.845,333.9947,61.5879,335.3461,58.9909,335.4634,55.6531,333.7733,52.5036,332.6691,50.1131,330.4274,48.8592,327.861,48.1155,325.8176,47.387,323.1484,46.2045,320.8516,47.1132,318.609,47.9093,316.1524,50.8969,314.2096,52.9988,311.6887,55.6004,310.8516,58.6933,310.1307,62.6595,310.559,64.8319,311.5835,67.3576,312.0479,70.4286,315.1942,71.4992,318.5158,71.9643,320.7821,71.4374,324.5168" style="stroke:#333333;stroke-width:1.5625;fill:none;"/><path d="M46.875,336.8958 L46.875,336.9931 L51.875,336.7039 L56.875,336.9852 L61.875,337.0808 L66.875,336.5655 L71.875,336.8958 " style="stroke:#333333;stroke-width:1.5625;fill:none;"/><text fill="#2E2E2E" font-family="Segoe Print" font-size="12.5" lengthAdjust="spacing" textLength="36.4583" x="41.1458" y="355.7902">entity</text><!--MD5=[7edcefaa406c65155265f04249a95b70]
entity file--><path d="M113.5417,316.0624 L113.5417,353.5299 A4.1667,4.1667 0 0 0 117.7083,357.6965 L159.375,357.6965 A4.1667,4.1667 0 0 0 163.5417,353.5299 L163.5417,322.3124 L153.125,311.8958 L117.7083,311.8958 A4.1667,4.1667 0 0 0 113.5417,316.0624 " style="stroke:#FFFFFF;stroke-width:1.5625;fill:none;"/><path d="M153.125,311.8958 L153.125,318.1458 A4.1667,4.1667 0 0 0 157.2917,322.3124 L163.5417,322.3124 " style="stroke:#FFFFFF;stroke-width:1.5625;fill:none;"/><text fill="#FFFFFF" font-family="Segoe Print" font-size="12.5" lengthAdjust="spacing" textLength="18.75" x="129.1667" y="339.1235">file</text><!--MD5=[18b72bf5d1838316b3d85261d2b42cce]
entity folder--><path d="M198.9583,297.8333 L238.5417,297.8333 A6.25,6.25 0 0 1 242.7083,301.9999 L250,319.7083 L282.2917,319.7083 A4.1667,4.1667 0 0 1 286.4583,323.8749 L286.4583,367.5598 A4.1667,4.1667 0 0 1 282.2917,371.7265 L198.9583,371.7265 A4.1667,4.1667 0 0 1 194.7917,367.5598 L194.7917,301.9999 A4.1667,4.1667 0 0 1 198.9583,297.8333 " style="stroke:#FFC107;stroke-width:1.5625;fill:none;"/><path d="M194.7917,319.7083 L194.7917,320.0002 L205.8333,319.1328 L216.875,319.9767 L227.9167,320.2634 L238.9583,318.7174 L250,319.7083 " style="stroke:#FFC107;stroke-width:1.5625;fill:none;"/><text fill="#FFC107" font-family="Segoe Print" font-size="12.5" lengthAdjust="spacing" textLength="37.5" x="210.4167" y="343.811">folder</text><!--MD5=[7a641773cfca2682e51daa01eb969ffa]
entity frame--><polygon points="321.875,306.6874,321.875,306.9064,332.0313,306.2558,342.1875,306.8888,352.3438,307.1038,362.5,305.9443,372.6563,306.6065,382.8125,306.2432,392.9688,306.2879,403.125,306.6874,403.1159,306.6656,403.6224,306.7097,404.3771,307.3532,404.809,307.2175,405.4557,307.6003,406.0713,307.9078,406.2098,307.9652,406.2878,308.4857,406.5813,309.0954,406.7933,309.6713,407.1049,310.2886,407.2917,310.8541,407.5408,310.8541,407.9018,320.4309,407.9907,330.0077,407.9992,339.5846,407.5569,349.1614,407.2917,358.7382,407.4404,358.7998,407.2729,359.4208,406.5722,359.8209,406.7771,360.5961,406.2202,361.0558,406.0713,361.6845,406.1422,361.8557,405.4162,361.7698,404.8837,362.1507,404.4021,362.6546,403.7078,362.6452,403.125,362.9049,403.125,363.0146,392.9688,363.2576,382.8125,363.3384,372.6563,362.9008,362.5,363.204,352.3438,362.3086,342.1875,363.2011,332.0313,363.4759,321.875,362.9049,321.9341,363.0475,321.3672,362.8574,320.6323,362.2617,320.0206,361.9634,319.4354,361.7292,318.9287,361.6845,318.9098,361.6767,318.6216,361.0691,318.6592,360.5965,318.1405,359.8935,317.8424,359.2819,317.7083,358.7382,317.9461,358.7382,317.0137,349.1614,317.1676,339.5846,318.3843,330.0077,318.1622,320.4309,317.7083,310.8541,317.944,310.9517,317.8492,310.2221,318.2989,309.718,318.63,309.1648,318.5331,308.4343,318.9287,307.9078,318.916,307.8771,319.5347,307.7041,320.1938,307.6287,320.6959,307.1742,321.3472,307.0799,321.875,306.6874" style="stroke:#17A2B8;stroke-width:1.5625;fill:none;"/><path d="M347.5694,306.6874 L347.7641,306.6874 L347.1858,307.7291 L347.7484,308.7708 L347.9395,309.8124 L346.9089,310.8541 L347.5694,311.8958 L347.5186,311.8449 L345.8319,313.0748 L344.4017,314.5613 L343.1498,316.2261 L341.2835,317.2764 L340.2778,319.1874 L340.2778,319.7 L335.7639,318.6038 L331.25,319.0043 L326.7361,319.5874 L322.2222,319.108 L317.7083,319.1874 " fill="none" style="stroke:#17A2B8;stroke-width:1.5625;"/><text fill="#17A2B8" font-family="Segoe Print" font-size="12.5" lengthAdjust="spacing" textLength="37.5" x="338.5417" y="344.3319">frame</text><!--MD5=[ea4128e1b5db6200a10193b8015cde63]
entity interface--><polygon points="456.296,333.7144,455.0745,335.3835,453.6297,337.8281,451.5633,339.4756,449.392,340.3765,447.6606,340.4547,445.4354,339.328,443.3357,338.5919,441.7421,337.0974,440.9061,335.3865,440.4104,334.0242,439.9247,332.2448,439.1364,330.7135,439.7421,329.2185,440.2729,327.5808,442.2646,326.2855,443.6659,324.6049,445.4003,324.0468,447.4622,323.5662,450.1064,323.8518,451.5546,324.5348,453.2384,324.8444,455.2857,326.9419,455.9994,329.1563,456.3095,330.6672,455.9583,333.157" style="stroke:#DC3545;stroke-width:1.5625;fill:none;"/><text fill="#555555" font-family="Segoe Print" font-size="12.5" lengthAdjust="spacing" textLength="58.3333" x="418.75" y="366.2069">interface</text><!--MD5=[a4a9a576f4d148d24afc849b85929192]
entity label--><text fill="#000000" font-family="Segoe Print" font-size="12.5" lengthAdjust="spacing" textLength="31.25" x="504.1667" y="339.1235">label</text><!--MD5=[0b70d51bdd028022f5101c089cfdd98e]
entity node--><polygon points="16.6667,439.4999,16.7183,439.5515,18.6483,437.3149,20.8808,435.3807,23.0148,433.348,24.8248,430.9914,27.0833,429.0833,27.0833,429.0023,37.7976,428.639,48.5119,428.6838,59.2262,429.0123,69.9405,428.3631,80.6548,429.66,91.369,428.4267,102.0833,429.0833,102.0147,429.0833,102.2333,438.2434,102.0535,447.4036,102.107,456.5637,102.0722,465.7239,102.0833,474.884,102.1272,474.9279,100.0587,477.0261,98.0605,479.1945,95.9981,481.2988,93.9168,483.3841,91.6667,485.3007,91.6667,485.5659,80.9524,485.7836,70.2381,486.0322,59.5238,484.5495,48.8095,486.0075,38.0952,484.9918,27.381,485.8568,16.6667,485.3007,16.4948,485.3007,16.6429,476.1405,16.9242,466.9804,16.6497,457.8202,16.7032,448.6601,16.6667,439.4999" style="stroke:#FFFFFF;stroke-width:1.5625;fill:none;"/><path d="M91.6667,439.4999 L91.7355,439.5687 L93.6144,437.281 L95.8966,435.3965 L98.0475,433.3808 L99.7665,430.933 L102.0833,429.0833 " style="stroke:#FFFFFF;stroke-width:1.5625;fill:none;"/><path d="M16.6667,439.4999 L16.6667,439.7918 L27.381,438.9245 L38.0952,439.7684 L48.8095,440.055 L59.5238,438.5091 L70.2381,439.392 L80.9524,438.9076 L91.6667,439.4999 " style="stroke:#FFFFFF;stroke-width:1.5625;fill:none;"/><path d="M91.6667,439.4999 L91.764,439.4999 L91.4749,448.6601 L91.7562,457.8202 L91.8517,466.9804 L91.3364,476.1405 L91.6667,485.3007 " style="stroke:#FFFFFF;stroke-width:1.5625;fill:none;"/><text fill="#FFFFFF" font-family="Segoe Print" font-size="12.5" lengthAdjust="spacing" textLength="33.3333" x="37.5" y="466.7277">node</text><!--MD5=[18b4c220f17afa2fa1b7909f1259f27e]
entity package--><path d="M137.5,432.7291 L220.8333,432.7291 A6.25,6.25 0 0 1 225,436.8958 L232.2917,463.9465 L245.8333,463.9465 A4.1667,4.1667 0 0 1 250,468.1132 L250,477.4882 A4.1667,4.1667 0 0 1 245.8333,481.6549 L137.5,481.6549 A4.1667,4.1667 0 0 1 133.3333,477.4882 L133.3333,436.8958 A4.1667,4.1667 0 0 1 137.5,432.7291 " style="stroke:#333333;stroke-width:2.0833333333333335;fill:none;"/><path d="M133.3333,463.9465 L133.3333,464.2385 L143.2292,463.3711 L153.125,464.215 L163.0208,464.5016 L172.9167,462.9557 L182.8125,463.8386 L192.7083,463.3542 L202.6042,463.4139 L212.5,463.8519 L222.3958,462.9863 L232.2917,463.9465 " style="stroke:#333333;stroke-width:2.0833333333333335;fill:none;"/><text fill="#333333" font-family="Segoe Print" font-size="12.5" font-weight="bold" lengthAdjust="spacing" textLength="62.5" x="148.9583" y="452.6652">package</text><!--MD5=[785617a40335b4b3f4a4f9c464842b0b]
entity person--><polygon fill="#FEFECE" points="332.3383,437.3044,330.5093,439.8035,328.346,443.464,325.2519,445.9308,322.0007,447.2798,319.4083,447.3968,316.0764,445.7098,312.9325,444.6076,310.5463,442.3699,309.2946,439.8081,308.5523,437.7682,307.825,435.1039,306.6447,432.8111,307.5517,430.5725,308.3464,428.1203,311.3287,426.1809,313.4268,423.6645,316.0238,422.8289,319.1112,422.1093,323.0704,422.5368,325.2389,423.5595,327.7601,424.023,330.8256,427.1638,331.8942,430.4794,332.3585,432.7418,331.8326,436.4698" style="stroke:#000000;stroke-width:1.5625;"/><polygon fill="#FEFECE" points="293.7277,446.7471,293.7277,446.966,304.1533,446.3155,314.5789,446.9484,325.0045,447.1634,335.43,446.0039,345.8556,446.7471,345.8453,446.7221,347.5635,447.3412,349.3339,448.0859,351.1404,448.918,352.8222,449.449,354.6787,450.4017,354.8563,450.4753,355.2074,452.0826,356.0771,453.9047,357.01,455.753,357.5749,457.4488,358.3333,459.2248,358.357,459.2248,358.3222,463.3939,358.3953,467.5629,358.4164,471.732,358.5367,475.901,358.3333,480.0701,358.5486,480.1593,357.8203,481.925,356.9532,483.6332,356.2893,485.4256,355.6349,487.2219,354.6787,488.8932,354.5829,488.6619,353.0042,489.8418,351.1101,490.2599,349.4558,491.2572,347.5544,491.6581,345.8556,492.5478,345.8556,492.4765,335.43,493.3204,325.0045,492.4971,314.5789,492.6575,304.1533,492.9006,293.7277,492.5478,293.783,492.6814,291.9626,491.8157,290.2367,491.1781,288.3578,490.1714,286.7071,489.7154,284.9046,488.8932,285.0805,488.966,284.3163,487.1877,283.6394,485.4454,282.5569,483.5352,281.7717,481.7481,281.25,480.0701,281.0342,480.0701,281.2296,475.901,281.1818,471.732,281.4866,467.5629,281.1893,463.3939,281.25,459.2248,281.14,459.1792,282.0542,457.4905,282.4979,455.607,283.2763,453.862,284.3819,452.2526,284.9046,450.4017,284.9625,450.5415,286.7669,449.9064,288.3911,448.8366,290.2409,448.3113,292.0416,447.6674,293.7277,446.7471" style="stroke:#000000;stroke-width:1.5625;"/><text fill="#000000" font-family="Segoe Print" font-size="12.5" lengthAdjust="spacing" textLength="45.8333" x="296.875" y="473.9749">person</text><!--MD5=[799e9543975076390d2a6ceafec8df6c]
entity queue--><path d="M394.7917,439.4999 L394.7917,440.0838 L405.2083,438.349 L415.625,440.0368 L426.0417,440.6101 L436.4583,437.5183 L446.875,439.284 L457.2917,439.4999 L457.2917,439.4999 L457.1023,439.4442 L458.163,442.9882 L459.3447,446.5678 L460.1096,450.0248 L461.7042,453.7259 L462.5,457.192 L462.5,457.192 L462.2201,457.1096 L461.3705,460.7045 L460.6085,464.3253 L459.3369,467.796 L458.3636,471.3545 L457.2917,474.884 L457.2917,474.7953 L446.875,475.3799 L436.4583,475.5483 L426.0417,476.5109 L415.625,476.7481 L405.2083,476.7709 L394.7917,474.884 L394.7917,474.884 L394.9048,474.9173 L393.9559,471.4062 L393.0202,467.899 L391.3464,464.1745 L390.9263,460.8191 L389.5833,457.192 L389.5833,457.192 L389.4517,457.1532 L390.8621,453.7234 L391.4468,450.0504 L392.6779,446.5678 L394.0794,443.1353 L394.7917,439.4999 " style="stroke:#333333;stroke-width:1.5625;fill:none;"/><path d="M457.2917,439.4999 L457.2917,439.4999 L457.385,439.5274 L456.066,442.9842 L455.2942,446.602 L454.3442,450.1674 L452.8082,453.5603 L452.0833,457.192 L452.0833,457.192 L452.0488,457.1818 L452.9356,460.6746 L453.9963,464.2187 L455.1781,467.7983 L455.943,471.2552 L457.2917,474.884 " fill="none" style="stroke:#333333;stroke-width:1.5625;"/><text fill="#2E2E2E" font-family="Segoe Print" font-size="12.5" lengthAdjust="spacing" textLength="41.6667" x="400" y="461.5194">queue</text><!--MD5=[7267aa9592867b0c03d3cbda6e92e719]
entity rectangle--><polygon points="497.9167,434.2916,497.9167,434.5105,508.5938,433.86,519.2708,434.4929,529.9479,434.7079,540.625,433.5485,551.3021,434.2106,561.9792,433.8473,572.6563,433.8921,583.3333,434.2916,583.3243,434.2697,583.8307,434.3139,584.5854,434.9573,585.0174,434.8216,585.6641,435.2045,586.2796,435.512,586.4182,435.5694,586.4962,436.0898,586.7897,436.6996,587.0016,437.2755,587.3132,437.8927,587.5,438.4583,587.583,438.4583,587.7034,445.9517,587.733,453.4452,587.7359,460.9387,587.5884,468.4322,587.5,475.9257,587.6487,475.9873,587.4812,476.6083,586.7805,477.0084,586.9854,477.7836,586.4286,478.2433,586.2796,478.872,586.3505,479.0432,585.6246,478.9573,585.092,479.3382,584.6104,479.8421,583.9161,479.8327,583.3333,480.0924,583.3333,480.2021,572.6563,480.4451,561.9792,480.5259,551.3021,480.0883,540.625,480.3915,529.9479,479.4961,519.2708,480.3886,508.5938,480.6634,497.9167,480.0924,497.9757,480.235,497.4089,480.0449,496.674,479.4492,496.0622,479.1509,495.4771,478.9167,494.9704,478.872,494.9515,478.8642,494.6633,478.2566,494.7008,477.784,494.1821,477.081,493.884,476.4694,493.75,475.9257,493.8293,475.9257,493.5185,468.4322,493.5697,460.9387,493.9753,453.4452,493.9013,445.9517,493.75,438.4583,493.9856,438.5558,493.8908,437.8262,494.3406,437.3222,494.6716,436.7689,494.5748,436.0385,494.9704,435.512,494.9577,435.4812,495.5764,435.3083,496.2355,435.2329,496.7376,434.7784,497.3889,434.6841,497.9167,434.2916" style="stroke:#333333;stroke-width:2.0833333333333335;fill:none;"/><text fill="#2E2E2E" font-family="Segoe Print" font-size="12.5" lengthAdjust="spacing" textLength="62.5" x="509.375" y="461.5194">rectangle</text><!--MD5=[f71e1929eceb486be132a5333dc4c68d]
entity stack--><polygon fill="#FEFECE" points="638.5417,434.2916,638.5417,434.5105,648.2639,433.86,657.9861,434.4929,667.7083,434.7079,677.4306,433.5485,687.1528,434.2106,696.875,434.2916,696.8183,434.1548,697.4133,434.4126,698.0445,434.7579,698.5509,434.802,699.3056,435.4455,699.8213,435.512,699.6191,435.4282,700.0019,436.075,700.448,436.7479,700.526,437.2683,700.8195,437.8781,701.0417,438.4583,701.0306,438.4583,701.1037,445.9517,701.1247,453.4452,701.245,460.9387,701.2747,468.4322,701.0417,475.9257,701.2596,476.016,700.8793,476.5488,700.7022,477.1658,700.5347,477.7868,699.834,478.1869,699.8213,478.872,699.9114,479.0896,699.1926,479.0209,698.7137,479.5314,697.9877,479.4454,697.4552,479.8263,696.875,480.0924,696.875,480.8649,687.1528,480.0416,677.4306,480.2021,667.7083,480.4451,657.9861,480.5259,648.2639,480.0883,638.5417,480.0924,638.5798,480.1845,637.8764,479.6647,637.4009,479.6954,636.8467,479.536,636.2437,479.2587,635.5954,478.872,635.792,478.9534,635.1963,478.2185,634.898,477.6068,634.6638,477.0216,634.6002,476.5071,634.375,475.9257,634.3068,475.9257,634.6116,468.4322,634.3143,460.9387,634.2559,453.4452,634.4543,445.9517,634.375,438.4583,634.1611,438.3696,634.4525,437.8,635.0713,437.366,635.247,436.7484,635.5869,436.1988,635.5954,435.512,635.5526,435.4087,636.2271,435.3703,636.8524,435.2132,637.3004,434.6282,637.9397,434.5049,638.5417,434.2916" style="stroke:none;stroke-width:1.5625;"/><path d="M618.75,434.2916 L630.2083,434.2916 A4.1667,4.1667 0 0 1 634.375,438.4583 L634.375,475.9257 A4.1667,4.1667 0 0 0 638.5417,480.0924 L696.875,480.0924 A4.1667,4.1667 0 0 0 701.0417,475.9257 L701.0417,438.4583 A4.1667,4.1667 0 0 1 705.2083,434.2916 L716.6667,434.2916 " fill="none" style="stroke:#A80036;stroke-width:1.5625;"/><text fill="#000000" font-family="Segoe Print" font-size="12.5" lengthAdjust="spacing" textLength="35.4167" x="650" y="461.5194">stack</text><!--MD5=[a5a6ae0ba01c8a4589ab26bd33e87aad]
entity storage--><polygon points="54.6875,542.6249,54.6875,542.6979,56.5625,542.4811,58.4375,542.692,60.3125,542.7637,62.1875,542.3772,64.0625,542.6249,64.0557,542.5988,69.1812,543.8231,74.3409,545.179,79.5245,546.6264,84.626,547.7585,89.8424,549.3323,90.0029,549.4381,91.7954,552.4504,94.0565,555.7717,96.3747,559.1307,98.3603,562.2703,100.5208,565.5253,100.5406,565.5384,98.3759,568.7578,96.3012,572.0366,94.1831,575.2868,92.1479,578.5917,89.8424,581.7183,89.9011,581.9438,84.7458,583.2881,79.5527,584.4868,74.415,585.8985,69.2799,587.3202,64.0625,588.4257,64.0625,588.1753,62.1875,588.6613,60.3125,588.3227,58.4375,588.6111,56.5625,588.2538,54.6875,588.4257,54.6815,588.4027,49.5964,587.3334,44.3713,585.7264,39.2287,584.4367,34.0932,583.1736,28.9076,581.7183,29.0282,581.7979,26.7708,578.479,24.7195,575.296,22.3346,571.8931,20.4473,568.8183,18.2292,565.5253,18.3881,565.6301,20.4937,562.3717,22.6782,559.1653,24.4962,555.7172,26.5828,552.4462,28.9076,549.3323,28.8532,549.1235,34.0584,547.971,39.2024,546.5833,44.4351,545.5368,49.5162,543.9077,54.6875,542.6249" style="stroke:#E6AE06;stroke-width:1.5625;fill:none;"/><text fill="#E6AE06" font-family="Segoe Print" font-size="12.5" lengthAdjust="spacing" textLength="51.0417" x="33.8542" y="569.8527">storage</text><polygon points="246.9397,568.6221,245.7736,572.1388,241.3229,574.8146,236.2161,577.4804,232.0003,580.5766,224.0464,582.3421,216.7799,584.239,208.2512,585.463,198.8545,586.0495,190.6938,586.6507,179.6253,585.7049,172.5621,585.5998,163.4271,584.1123,154.6377,582.0596,148.479,580.2289,142.291,577.6641,137.6614,574.9394,133.8288,571.8102,131.5964,568.606,130.3384,565.1634,130.9241,561.8654,133.0495,558.6902,137.2154,555.913,141.6757,553.017,147.2525,550.4053,156.4325,549.0764,162.0632,546.5971,172.0426,545.8896,179.6561,544.6683,190.3882,544.9826,198.8551,545.002,206.5,545.3143,216.192,547.0001,223.7615,548.6185,230.3629,550.6068,236.1903,553.0433,241.6298,556.0563,244.6817,558.9075,248.1578,562.5544,247.5428,565.3303" style="stroke:#333333;stroke-width:2.0833333333333335;fill:none;"/><text fill="#2E2E2E" font-family="Segoe Print" font-size="12.5" lengthAdjust="spacing" textLength="55.2083" x="162.0136" y="567.732">usecase</text><polygon points="400.6961,568.6221,399.4712,572.1388,394.7958,574.8146,389.4312,577.4804,385.0026,580.5766,376.6472,582.3421,369.014,584.239,360.0548,585.463,350.1837,586.0495,341.6111,586.6507,329.9838,585.7049,322.5641,585.5998,312.968,584.1123,303.7349,582.0596,297.2654,580.2289,290.765,577.6641,285.9017,574.9394,281.8757,571.8102,279.5306,568.606,278.209,565.1634,278.8243,561.8654,281.057,558.6902,285.4332,555.913,290.1186,553.017,295.9769,550.4053,305.6204,549.0764,311.5353,546.5971,322.0184,545.8896,330.0162,544.6683,341.29,544.9826,350.1843,545.002,358.2152,545.3143,368.3963,547.0001,376.348,548.6185,383.2825,550.6068,389.4042,553.0433,395.1182,556.0563,398.3241,558.9075,401.9757,562.5544,401.3297,565.3303" style="stroke:#333333;stroke-width:2.0833333333333335;fill:none;"/><text fill="#2E2E2E" font-family="Segoe Print" font-size="12.5" lengthAdjust="spacing" textLength="59.375" x="310.7932" y="567.732">usecase/</text><path d="M396.9077,558.2441 L396.9765,558.3129 L391.897,562.9835 L387.2209,568.0575 L382.4134,573.0001 L377.1739,577.5108 L372.5324,582.6193 " style="stroke:#333333;stroke-width:2.0833333333333335;fill:none;"/></g></svg>