<?xml version="1.0" encoding="us-ascii" standalone="no"?><svg xmlns="http://www.w3.org/2000/svg" xmlns:xlink="http://www.w3.org/1999/xlink" contentStyleType="text/css" height="720.8333px" preserveAspectRatio="none" style="width:496px;height:720px;" version="1.1" viewBox="0 0 496 720" width="496.875px" zoomAndPan="magnify"><defs><linearGradient id="g1u1008wgixg610" x1="50%" x2="50%" y1="0%" y2="100%"><stop offset="0%" stop-color="#F3F3F3"/><stop offset="100%" stop-color="#E2E2E2"/></linearGradient></defs><g><!--cluster Some Group--><g id="cluster_Some Group"><path d="M32.8125,14.5833 L133.8542,14.5833 A11.7188,11.7188 0 0 1 141.6667,22.3958 L148.9583,56.2174 L476.5625,56.2174 A7.8125,7.8125 0 0 1 484.375,64.0299 L484.375,127.6042 A7.8125,7.8125 0 0 1 476.5625,135.4167 L32.8125,135.4167 A7.8125,7.8125 0 0 1 25,127.6042 L25,22.3958 A7.8125,7.8125 0 0 1 32.8125,14.5833 " fill="none" style="stroke:#F3F3F3;stroke-width:2.0833333333333335;"/><line style="stroke:#F3F3F3;stroke-width:2.0833333333333335;" x1="25" x2="148.9583" y1="56.2174" y2="56.2174"/><text fill="#336699" font-family="Verdana" font-size="12.5" font-weight="bold" lengthAdjust="spacing" textLength="89.5833" x="39.5833" y="38.6861">Some Group</text></g><!--cluster Other Groups--><g id="cluster_Other Groups"><polygon fill="none" points="34.375,187.5,44.7917,177.0833,302.0833,177.0833,302.0833,292.7083,291.6667,303.125,34.375,303.125,34.375,187.5" style="stroke:#F3F3F3;stroke-width:1.0416666666666667;"/><line style="stroke:#F3F3F3;stroke-width:1.0416666666666667;" x1="291.6667" x2="302.0833" y1="187.5" y2="177.0833"/><line style="stroke:#F3F3F3;stroke-width:1.0416666666666667;" x1="34.375" x2="291.6667" y1="187.5" y2="187.5"/><line style="stroke:#F3F3F3;stroke-width:1.0416666666666667;" x1="291.6667" x2="291.6667" y1="187.5" y2="303.125"/><text fill="#336699" font-family="Verdana" font-size="12.5" font-weight="bold" lengthAdjust="spacing" textLength="100" x="114.0625" y="212.6444">Other Groups</text></g><g id="cluster_##12"><path d="M326.761,205.1769 C330.149,198.801 335.4751,199.1764 338.7015,205.3309 C341.6042,198.511 347.2582,199.3095 351.1638,204.27 C354.0577,198.9962 357.9284,196.8477 362.661,202.2988 C366.5346,197.6117 369.8625,196.4545 373.7567,202.277 C375.4271,196.0241 380.7413,195.7492 384.4562,200.2411 C388.4446,195.0587 392.6143,195.952 395.5365,201.357 C399.1739,195.8861 403.9833,197.6412 406.3592,202.6587 C411.3474,197.0534 415.3624,196.4608 419.4428,203.5914 C423.5339,198.9135 427.7841,200.3697 430.2228,205.4221 C438.1756,198.7612 445.4406,202.0652 447.9167,211.4583 C448.7462,211.5214 448.9288,211.9366 448.5769,212.6528 C454.6979,215.677 456.2995,221.8243 449.593,225.8372 C455.6521,228.8875 457.1975,234.1293 451.1826,238.6746 C456.2275,242.4411 456.2675,247.2283 450.993,250.834 C457.784,254.5531 457.7415,260.1169 450.97,263.8119 C457.1045,267.5443 456.907,273.5496 450.5578,276.8884 C454.6116,287.1059 451.9557,293.1095 440.625,294.7917 C440.9348,294.3802 441.377,294.397 441.6465,294.8398 C439.1896,300.2085 434.9212,300.6098 431.0335,296.43 C427.5305,302.6159 423.1401,302.7609 419.0889,296.977 C416.5581,304.3506 412.272,305.8732 406.5515,299.9946 C403.6292,306.3208 398.5041,305.2021 394.9811,300.6324 C392.4506,306.0366 387.7589,305.3983 384.7798,301.1042 C380.1795,306.2462 375.6783,305.1788 372.5914,299.4131 C369.2047,303.6803 364.4688,304.038 362.124,298.3208 C358.3494,304.5417 352.6808,303.9245 349.1043,298.1065 C345.7253,302.9496 341.0289,302.3712 339.1475,296.6898 C328.2329,304.8889 320.4565,299.7388 318.75,287.5 C320.0762,287.1208 321.2952,287.9138 320.8721,289.4441 C314.8147,286.5518 313.4356,282.0239 318.0351,276.7499 C310.897,273.7092 311.0963,267.9096 316.865,263.7107 C311.0043,260.0084 311.319,253.8372 317.129,250.3659 C311.6023,246.0391 310.2126,242.0039 316.9203,237.479 C311.8098,233.0586 312.4147,228.6115 318.6626,225.9003 C311.5609,216.0781 313.75,207.4044 326.0417,204.1667 C326.7026,204.2087 326.933,204.5418 326.761,205.1769 " fill="none" style="stroke:#F3F3F3;stroke-width:1.0416666666666667;"/></g><!--cluster MySql--><g id="cluster_MySql"><path d="M296.875,355.2083 C296.875,344.7917 383.8542,344.7917 383.8542,344.7917 C383.8542,344.7917 470.8333,344.7917 470.8333,355.2083 L470.8333,687.5 C470.8333,697.9167 383.8542,697.9167 383.8542,697.9167 C383.8542,697.9167 296.875,697.9167 296.875,687.5 L296.875,355.2083 " fill="none" style="stroke:#F3F3F3;stroke-width:1.0416666666666667;"/><path d="M296.875,355.2083 C296.875,365.625 383.8542,365.625 383.8542,365.625 C383.8542,365.625 470.8333,365.625 470.8333,355.2083 " fill="none" style="stroke:#F3F3F3;stroke-width:1.0416666666666667;"/><text fill="#336699" font-family="Verdana" font-size="12.5" font-weight="bold" lengthAdjust="spacing" textLength="43.75" x="361.9792" y="389.7278">MySql</text></g><!--cluster This is my folder--><g id="cluster_This is my folder"><path d="M313.0208,406.25 L444.2708,406.25 A11.7188,11.7188 0 0 1 452.0833,414.0625 L459.375,447.8841 L454.6875,447.8841 A7.8125,7.8125 0 0 1 462.5,455.6966 L462.5,519.2708 A7.8125,7.8125 0 0 1 454.6875,527.0833 L313.0208,527.0833 A7.8125,7.8125 0 0 1 305.2083,519.2708 L305.2083,414.0625 A7.8125,7.8125 0 0 1 313.0208,406.25 " fill="#F3F3F3" style="stroke:#FFAE42;stroke-width:2.0833333333333335;"/><line style="stroke:#FFAE42;stroke-width:2.0833333333333335;" x1="305.2083" x2="459.375" y1="447.8841" y2="447.8841"/><text fill="#FFAE42" font-family="Verdana" font-size="12.5" font-weight="bold" lengthAdjust="spacing" textLength="119.7917" x="319.7917" y="430.3528">This is my folder</text></g><!--cluster Foo--><g id="cluster_Foo"><rect fill="#F3F3F3" height="120.8333" rx="7.8125" ry="7.8125" style="stroke:#336699;stroke-width:2.0833333333333335;" width="133.3333" x="316.6667" y="568.75"/><path d="M375,568.75 L375,596.8424 L364.5833,607.2591 L316.6667,607.2591 " fill="none" style="stroke:#336699;stroke-width:2.0833333333333335;"/><text fill="#336699" font-family="Verdana" font-size="12.5" font-weight="bold" lengthAdjust="spacing" textLength="27.0833" x="330.2083" y="591.8111">Foo</text></g><!--entity HTTP--><g id="elem_HTTP"><ellipse cx="254.1667" cy="90.625" fill="#FF5C5C" rx="8.3333" ry="8.3333" style="stroke:#FF3333;stroke-width:1.0416666666666667;"/><text fill="#303030" font-family="Verdana" font-size="12.5" lengthAdjust="spacing" textLength="32.2917" x="238.0208" y="130.3528">HTTP</text></g><!--entity First Component--><g id="elem_First Component"><rect fill="url(#g1u1008wgixg610)" height="66.6341" rx="4.1667" ry="4.1667" style="stroke:#F3F3F3;stroke-width:1.0416666666666667;" width="169.7917" x="33.8542" y="60.4167"/><rect fill="url(#g1u1008wgixg610)" height="10.4167" style="stroke:#F3F3F3;stroke-width:1.0416666666666667;" width="15.625" x="182.8125" y="65.625"/><rect fill="url(#g1u1008wgixg610)" height="2.0833" style="stroke:#F3F3F3;stroke-width:1.0416666666666667;" width="4.1667" x="180.7292" y="67.7083"/><rect fill="url(#g1u1008wgixg610)" height="2.0833" style="stroke:#F3F3F3;stroke-width:1.0416666666666667;" width="4.1667" x="180.7292" y="71.875"/><text fill="#336699" font-family="Verdana" font-size="12.5" lengthAdjust="spacing" textLength="107.2917" x="59.8958" y="103.2694">First Component</text></g><!--entity Another Component--><g id="elem_Another Component"><rect fill="url(#g1u1008wgixg610)" height="66.6341" rx="4.1667" ry="4.1667" style="stroke:#F3F3F3;stroke-width:1.0416666666666667;" width="193.75" x="282.2917" y="60.4167"/><rect fill="url(#g1u1008wgixg610)" height="10.4167" style="stroke:#F3F3F3;stroke-width:1.0416666666666667;" width="15.625" x="455.2083" y="65.625"/><rect fill="url(#g1u1008wgixg610)" height="2.0833" style="stroke:#F3F3F3;stroke-width:1.0416666666666667;" width="4.1667" x="453.125" y="67.7083"/><rect fill="url(#g1u1008wgixg610)" height="2.0833" style="stroke:#F3F3F3;stroke-width:1.0416666666666667;" width="4.1667" x="453.125" y="71.875"/><text fill="#336699" font-family="Verdana" font-size="12.5" lengthAdjust="spacing" textLength="131.25" x="308.3333" y="103.2694">Another Component</text></g><!--entity FTP--><g id="elem_FTP"><ellipse cx="52.0833" cy="258.3333" fill="#FF5C5C" rx="8.3333" ry="8.3333" style="stroke:#FF3333;stroke-width:1.0416666666666667;"/><text fill="#303030" font-family="Verdana" font-size="12.5" lengthAdjust="spacing" textLength="22.9167" x="40.625" y="298.0611">FTP</text></g><!--entity Second Component--><g id="elem_Second Component"><rect fill="url(#g1u1008wgixg610)" height="66.6341" rx="4.1667" ry="4.1667" style="stroke:#F3F3F3;stroke-width:1.0416666666666667;" width="190.625" x="102.6042" y="228.125"/><rect fill="url(#g1u1008wgixg610)" height="10.4167" style="stroke:#F3F3F3;stroke-width:1.0416666666666667;" width="15.625" x="272.3958" y="233.3333"/><rect fill="url(#g1u1008wgixg610)" height="2.0833" style="stroke:#F3F3F3;stroke-width:1.0416666666666667;" width="4.1667" x="270.3125" y="235.4167"/><rect fill="url(#g1u1008wgixg610)" height="2.0833" style="stroke:#F3F3F3;stroke-width:1.0416666666666667;" width="4.1667" x="270.3125" y="239.5833"/><text fill="#336699" font-family="Verdana" font-size="12.5" lengthAdjust="spacing" textLength="128.125" x="128.6458" y="270.9778">Second Component</text></g><!--entity Example 1--><g id="elem_Example 1"><rect fill="url(#g1u1008wgixg610)" height="66.6341" rx="4.1667" ry="4.1667" style="stroke:#F3F3F3;stroke-width:1.0416666666666667;" width="129.1667" x="318.75" y="228.125"/><rect fill="url(#g1u1008wgixg610)" height="10.4167" style="stroke:#F3F3F3;stroke-width:1.0416666666666667;" width="15.625" x="427.0833" y="233.3333"/><rect fill="url(#g1u1008wgixg610)" height="2.0833" style="stroke:#F3F3F3;stroke-width:1.0416666666666667;" width="4.1667" x="425" y="235.4167"/><rect fill="url(#g1u1008wgixg610)" height="2.0833" style="stroke:#F3F3F3;stroke-width:1.0416666666666667;" width="4.1667" x="425" y="239.5833"/><text fill="#336699" font-family="Verdana" font-size="12.5" lengthAdjust="spacing" textLength="66.6667" x="344.7917" y="270.9778">Example 1</text></g><!--entity Folder 3--><g id="elem_Folder 3"><rect fill="url(#g1u1008wgixg610)" height="66.6341" rx="4.1667" ry="4.1667" style="stroke:#F3F3F3;stroke-width:1.0416666666666667;" width="115.625" x="325.5208" y="452.0833"/><rect fill="url(#g1u1008wgixg610)" height="10.4167" style="stroke:#F3F3F3;stroke-width:1.0416666666666667;" width="15.625" x="420.3125" y="457.2917"/><rect fill="url(#g1u1008wgixg610)" height="2.0833" style="stroke:#F3F3F3;stroke-width:1.0416666666666667;" width="4.1667" x="418.2292" y="459.375"/><rect fill="url(#g1u1008wgixg610)" height="2.0833" style="stroke:#F3F3F3;stroke-width:1.0416666666666667;" width="4.1667" x="418.2292" y="463.5417"/><text fill="#336699" font-family="Verdana" font-size="12.5" lengthAdjust="spacing" textLength="53.125" x="351.5625" y="494.9361">Folder 3</text></g><!--entity Frame 4--><g id="elem_Frame 4"><rect fill="url(#g1u1008wgixg610)" height="66.6341" rx="4.1667" ry="4.1667" style="stroke:#F3F3F3;stroke-width:1.0416666666666667;" width="115.625" x="325.5208" y="614.5833"/><rect fill="url(#g1u1008wgixg610)" height="10.4167" style="stroke:#F3F3F3;stroke-width:1.0416666666666667;" width="15.625" x="420.3125" y="619.7917"/><rect fill="url(#g1u1008wgixg610)" height="2.0833" style="stroke:#F3F3F3;stroke-width:1.0416666666666667;" width="4.1667" x="418.2292" y="621.875"/><rect fill="url(#g1u1008wgixg610)" height="2.0833" style="stroke:#F3F3F3;stroke-width:1.0416666666666667;" width="4.1667" x="418.2292" y="626.0417"/><text fill="#336699" font-family="Verdana" font-size="12.5" lengthAdjust="spacing" textLength="53.125" x="351.5625" y="657.4361">Frame 4</text></g><path d="M244.6848,93.75 C235.4196,93.75 220.3219,93.75 203.7425,93.75 " fill="none" style="stroke:#E2E2E2;stroke-width:3.125;"/><path d="M61.6519,261.4583 C70.8401,261.4583 85.7531,261.4583 102.4113,261.4583 " fill="none" style="stroke:#E2E2E2;stroke-width:3.125;"/><path d="M105.7377,127.119 C90.7321,164.3986 66.8419,223.7507 56.787,248.7311 " fill="none" style="stroke:#E2E2E2;stroke-width:3.125;"/><polygon fill="#E2E2E2" points="56.787,248.7311,64.1529,241.59,58.7318,243.8995,56.4223,238.4783,56.787,248.7311" style="stroke:#E2E2E2;stroke-width:1.0416666666666667;"/><path d="M379.9799,127.119 C380.7117,156.2084 381.7816,198.7371 382.515,227.8883 " fill="none" style="stroke:#E2E2E2;stroke-width:3.125;"/><polygon fill="#E2E2E2" points="382.515,227.8883,386.4446,218.4114,382.384,222.6816,378.1139,218.621,382.515,227.8883" style="stroke:#E2E2E2;stroke-width:1.0416666666666667;"/><path d="M383.3333,295.2384 C383.3333,337.3081 383.3333,409.9042 383.3333,451.8637 " fill="none" style="stroke:#E2E2E2;stroke-width:3.125;"/><polygon fill="#E2E2E2" points="383.3333,451.8637,387.5,442.4887,383.3333,446.6554,379.1667,442.4887,383.3333,451.8637" style="stroke:#E2E2E2;stroke-width:1.0416666666666667;"/><path d="M383.3333,518.921 C383.3333,546.7526 383.3333,586.643 383.3333,614.4606 " fill="none" style="stroke:#E2E2E2;stroke-width:3.125;"/><polygon fill="#E2E2E2" points="383.3333,614.4606,387.5,605.0856,383.3333,609.2522,379.1667,605.0856,383.3333,614.4606" style="stroke:#E2E2E2;stroke-width:1.0416666666666667;"/></g></svg>