<?xml version="1.0" encoding="UTF-8" standalone="no"?><svg xmlns="http://www.w3.org/2000/svg" xmlns:xlink="http://www.w3.org/1999/xlink" contentScriptType="application/ecmascript" contentStyleType="text/css" height="606.25px" preserveAspectRatio="none" style="width:486px;height:606px;background:#00000000;" version="1.1" viewBox="0 0 486 606" width="486.4583px" zoomAndPan="magnify"><defs/><g><!--MD5=[262aabfe314dcb38308ea550cce12173]
cluster Some Group--><path d="M20.8333,16.6667 L118.75,16.6667 A6.25,6.25 0 0 1 122.9167,20.8333 L130.2083,47.8841 L469.7917,47.8841 A4.1667,4.1667 0 0 1 473.9583,52.0508 L473.9583,114.5833 A4.1667,4.1667 0 0 1 469.7917,118.75 L20.8333,118.75 A4.1667,4.1667 0 0 1 16.6667,114.5833 L16.6667,20.8333 A4.1667,4.1667 0 0 1 20.8333,16.6667 " fill="#555555" style="stroke:#333333;stroke-width:1.0416666666666667;"/><path d="M16.6667,47.8841 L16.6667,48.176 L26.9886,47.3087 L37.3106,48.1526 L47.6326,48.4392 L57.9545,46.8933 L68.2765,47.7762 L78.5985,47.2918 L88.9205,47.3515 L99.2424,47.7895 L109.5644,46.9239 L119.8864,48.6531 L130.2083,47.8841 " fill="#555555" style="stroke:#333333;stroke-width:1.0416666666666667;"/><text fill="#333333" font-family="Segoe Print" font-size="12.5" font-weight="bold" lengthAdjust="spacing" textLength="89.5833" x="26.0417" y="35.5611">Some Group</text><!--MD5=[a809f7b457cbc4d947186a4bb863b06b]
cluster Other Groups--><polygon fill="#555555" points="34.375,160.4167,34.4266,160.4683,36.3566,158.2316,38.5891,156.2975,40.7231,154.2648,42.5332,151.9082,44.7917,150,44.7917,149.919,55.3385,149.5557,65.8854,149.6005,76.4323,149.929,86.9792,149.2798,97.526,150.5767,108.0729,149.3435,118.6198,149.794,129.1667,150.4499,139.7135,149.9106,150.2604,150.0711,160.8073,149.9667,171.3542,150.186,181.901,150.2491,192.4479,150.6101,202.9948,150.699,213.5417,150.7076,224.0885,150.2652,234.6354,150.4829,245.1823,150.7315,255.7292,149.2488,266.276,150.7068,276.8229,149.6911,287.3698,150.5561,297.9167,150,297.401,150,297.8453,160.7639,298.6892,171.5278,297.8659,182.2917,298.0264,193.0556,298.2694,203.8194,298.3502,214.5833,297.9126,225.3472,298.2158,236.1111,297.9167,246.875,297.7761,246.7345,295.9032,249.0282,293.8846,251.1763,291.7758,253.2341,289.7338,255.3588,287.5,257.2917,287.5,256.7885,276.9531,256.6123,266.4063,256.6444,255.8594,257.2303,245.3125,257.0869,234.7656,258.0015,224.2188,257.1097,213.6719,256.9343,203.125,257.5294,192.5781,256.597,182.0313,256.7509,171.4844,257.9677,160.9375,257.7455,150.3906,258.0568,139.8438,256.9565,129.2969,257.6242,118.75,257.9067,108.2031,256.7996,97.6563,257.1918,87.1094,257.4229,76.5625,257.9706,66.0156,257.2873,55.4688,257.7735,44.9219,256.7148,34.375,257.2917,33.6695,257.2917,34.8996,246.5278,33.6282,235.7639,34.9052,225,34.5902,214.2361,34.0959,203.4722,34.0065,192.7083,34.8529,181.9444,34.0632,171.1806,34.375,160.4167" style="stroke:#FFFFFF;stroke-width:1.0416666666666667;"/><path d="M287.5,160.4167 L287.5688,160.4855 L289.4477,158.1977 L291.7299,156.3133 L293.8808,154.2975 L295.5998,151.8498 L297.9167,150 " fill="#555555" style="stroke:#FFFFFF;stroke-width:1.0416666666666667;"/><path d="M34.375,160.4167 L34.375,160.7086 L44.9219,159.8412 L55.4688,160.6851 L66.0156,160.9718 L76.5625,159.4258 L87.1094,160.3087 L97.6563,159.8243 L108.2031,159.884 L118.75,160.322 L129.2969,159.4564 L139.8438,161.1856 L150.3906,159.5413 L160.9375,160.142 L171.4844,161.0166 L182.0313,160.2975 L192.5781,160.5114 L203.125,160.3723 L213.6719,160.6646 L224.2188,160.7488 L234.7656,161.2301 L245.3125,161.3487 L255.8594,161.3601 L266.4063,160.7703 L276.9531,161.0605 L287.5,160.4167 " fill="#555555" style="stroke:#FFFFFF;stroke-width:1.0416666666666667;"/><path d="M287.5,160.4167 L287.7919,160.4167 L286.9246,171.1806 L287.7685,181.9444 L288.0551,192.7083 L286.5092,203.4722 L287.3921,214.2361 L286.9076,225 L286.9674,235.7639 L287.4053,246.5278 L287.5,257.2917 " fill="#555555" style="stroke:#FFFFFF;stroke-width:1.0416666666666667;"/><text fill="#FFFFFF" font-family="Segoe Print" font-size="12.5" font-weight="bold" lengthAdjust="spacing" textLength="100" x="111.9792" y="180.3528">Other Groups</text><path d="M315.1738,177.2017 L315.1738,177.2017 L315.1867,177.2981 L317.6286,176.6791 L320.1462,176.6255 L322.6392,176.3878 L325.051,175.5446 L327.5752,175.5395 L327.5752,175.5395 L327.569,175.5041 L330.1609,174.8874 L332.784,174.4494 L335.4288,174.1356 L337.9989,173.3938 L340.6736,173.2515 L340.6736,173.2515 L340.7085,173.5054 L343.2375,172.605 L345.8683,172.4459 L348.5116,172.3773 L351.0825,171.7824 L353.6915,171.4643 L353.6915,171.4643 L353.6959,171.4956 L356.0505,171.1192 L358.4251,170.8852 L360.79,170.5825 L363.1733,170.4109 L365.4968,169.8119 L365.4968,169.8119 L365.5517,170.1177 L368.1897,169.6474 L370.7922,168.9798 L373.4465,168.601 L376.1034,168.2357 L378.6831,167.4416 L378.6831,167.4416 L378.5941,167.1198 L381.4087,168.4748 L383.9303,168.7701 L386.6745,169.8709 L389.1895,170.1422 L391.8924,171.0935 L391.8924,171.0935 L391.8906,171.0618 L394.667,171.5895 L397.4022,171.3773 L400.1616,171.6017 L402.9231,171.8627 L405.6699,171.8594 L405.6699,171.8594 L405.7185,172.0458 L407.8366,172.4218 L410.0376,173.1165 L412.1044,173.2956 L414.3714,174.2437 L416.5054,174.6805 L416.5054,174.6805 L416.5333,174.9328 L419.1909,175.1801 L421.8623,175.5527 L424.4693,175.3434 L427.1236,175.5606 L429.8197,176.1558 L429.8197,176.1558 L429.7888,175.8697 L432.3419,176.4009 L434.8602,176.6098 L437.4289,177.2862 L439.9115,177.1644 L442.4453,177.5171 L442.4453,177.5171 L442.2927,177.473 L443.2765,180.0725 L443.608,182.4836 L444.4033,185.0287 L445.6525,187.7048 L446.0935,190.1475 L446.0935,190.1475 L446.2933,190.1752 L446.7339,192.3907 L446.553,194.5204 L447.1505,196.7576 L447.5784,198.9714 L447.6112,201.1306 L447.6112,201.1306 L447.3976,201.0837 L448.1499,203.7775 L448.8324,206.456 L449.6522,209.1646 L449.9377,211.756 L450.5217,214.4129 L450.5217,214.4129 L450.7338,214.4425 L449.917,216.8969 L449.5096,219.4084 L449.7003,222.0031 L448.7899,224.4445 L448.7679,227.0097 L448.7679,227.0097 L448.9948,227.0732 L448.2219,229.315 L447.3721,231.5353 L446.6957,233.8042 L446.4198,236.1851 L445.5771,238.4074 L445.5771,238.4074 L445.4427,238.3738 L445.2687,240.7695 L444.1804,242.9365 L444.1317,245.3636 L443.4977,247.6443 L442.706,249.8855 L442.706,249.8855 L442.7086,249.9988 L440.3357,249.962 L437.9722,250.3311 L435.6002,250.3335 L433.2247,250.1825 L430.8521,250.1588 L430.8521,250.1588 L430.8596,250.2828 L428.2521,250.2547 L425.6792,250.802 L423.0672,250.6986 L420.4713,250.8628 L417.8701,250.9391 L417.8701,250.9391 L417.8637,250.6575 L415.0989,250.8144 L412.3417,251.3104 L409.5737,251.3264 L406.8018,251.1704 L404.0353,251.2531 L404.0353,251.2531 L404.0273,251.1042 L401.4642,251.289 L398.887,251.21 L396.3485,251.8561 L393.7909,252.1433 L391.2069,251.9385 L391.2069,251.9385 L391.2088,252.1822 L388.7442,252.2416 L386.2762,251.838 L383.8118,251.9231 L381.345,251.6847 L378.8812,251.8456 L378.8812,251.8456 L378.8853,251.977 L376.389,251.8816 L373.8976,251.9449 L371.3904,251.5049 L368.896,251.4709 L366.4021,251.4549 L366.4021,251.4549 L366.4067,251.6602 L363.9986,251.772 L361.5779,251.3267 L359.1718,251.5287 L356.766,251.742 L354.355,251.7274 L354.355,251.7274 L354.3537,251.4446 L351.596,251.9035 L348.8361,251.8717 L346.0756,251.7181 L343.3164,251.843 L340.5564,251.7896 L340.5564,251.7896 L340.6229,252.1203 L338.1037,251.1598 L335.737,250.957 L333.3103,250.456 L330.8708,249.8911 L328.4361,249.3508 L328.4361,249.3508 L328.4381,249.416 L325.8083,249.4806 L323.1688,249.2165 L320.5424,249.3972 L317.9122,249.4463 L315.289,249.7372 L315.289,249.7372 L315.3185,249.7384 L315.2297,247.258 L315.1636,244.7785 L314.8541,242.2892 L314.8574,239.8125 L314.7885,237.3329 L314.7885,237.3329 L314.7337,237.3234 L314.6981,235.3389 L314.2759,233.2873 L313.5063,231.1755 L313.3409,229.1684 L313.0205,227.1345 L313.0205,227.1345 L312.7549,227.1055 L312.8737,224.5824 L312.7415,222.0319 L312.4325,219.4621 L311.7018,216.8464 L311.6227,214.3017 L311.6227,214.3017 L311.8359,214.3284 L311.5738,211.9281 L312.2993,209.6515 L312.3622,207.2919 L312.8364,204.9838 L313.0843,202.6474 L313.0843,202.6474 L313.1948,202.6603 L313.5896,200.2046 L313.3297,197.6724 L314.1676,195.2685 L314.3191,192.7843 L314.5254,190.3066 L314.5254,190.3066 L314.6898,190.3147 L315.0009,187.7027 L314.7873,185.0648 L314.9955,182.4477 L315.1428,179.8276 L315.1738,177.2017 " fill="#555555" style="stroke:#F2FCFE;stroke-width:1.0416666666666667;"/><!--MD5=[a8e31809c94bd3920922c17a126bb0b3]
cluster MySql--><path d="M296.875,298.9583 L296.875,298.9583 L296.9165,299.0464 L299.3486,297.5804 L302.0238,296.6304 L304.6199,295.5124 L306.9555,293.8419 L309.6517,292.9362 L309.6467,292.9006 L312.2433,292.3704 L314.8653,292.0198 L317.5049,291.7941 L320.0838,291.1382 L322.7478,291.0848 L322.7689,291.3402 L325.7263,290.5458 L328.7453,290.4971 L331.7718,290.5395 L334.7546,290.0524 L337.7604,289.8438 L337.762,289.8753 L340.7622,289.6784 L343.7696,289.6252 L346.7735,289.5027 L349.7841,289.5123 L352.773,289.091 L352.7822,289.4015 L355.4015,289.328 L358.015,289.0542 L360.637,289.0736 L363.2595,289.1067 L365.8691,288.7044 L365.8649,288.3706 L368.4285,288.986 L370.9781,288.5021 L373.5383,288.8539 L376.0876,288.3451 L378.6458,288.5417 L378.6458,288.5417 L378.6454,288.51 L381.2055,288.9175 L383.7562,288.5842 L386.3125,288.6881 L388.8692,288.8286 L391.4225,288.7044 L391.4282,288.897 L394.0417,288.7799 L396.6649,288.992 L399.2724,288.6715 L401.9033,289.1453 L404.5186,289.091 L404.5313,289.3445 L407.5315,289.4471 L410.5379,289.6755 L413.515,289.3193 L416.5136,289.3916 L419.5313,289.8438 L419.5075,289.557 L422.5315,290.0648 L425.5288,290.2495 L428.5648,290.9028 L431.5347,290.756 L434.5439,291.0848 L434.5216,290.9275 L437.1779,291.5597 L439.7391,291.5197 L442.3679,291.9577 L445.0628,292.8634 L447.64,292.9362 L447.726,293.1186 L450.3403,294.4482 L452.6871,295.2103 L455.369,296.6832 L457.9779,298.0012 L460.4167,298.9583 L459.1044,298.9583 L460.1504,309.4952 L460.7666,320.0321 L462.2271,330.5689 L460.405,341.1058 L461.7016,351.6426 L458.8784,362.1795 L458.5354,372.7163 L461.8156,383.2532 L458.4252,393.7901 L461.8305,404.3269 L460.9906,414.8638 L459.6725,425.4006 L459.434,435.9375 L461.691,446.4744 L459.5852,457.0112 L462.0607,467.5481 L458.8813,478.0849 L462.1317,488.6218 L461.762,499.1587 L461.0971,509.6955 L460.5478,520.2324 L462.435,530.7692 L462.121,541.3061 L460.8868,551.8429 L461.1616,562.3798 L460.4167,572.9167 L460.4167,572.9167 L460.391,572.8621 L458.0027,574.4211 L455.3366,575.3904 L452.7847,576.6022 L450.0752,577.4796 L447.64,578.9388 L447.6137,578.753 L445.0551,579.5524 L442.4294,579.8764 L439.7795,580.03 L437.1422,580.2722 L434.5439,580.7902 L434.5355,580.6892 L431.5152,580.7218 L428.5546,581.478 L425.5645,581.8761 L422.5539,582.0259 L419.5313,582.0313 L419.5474,582.3526 L416.5256,582.1186 L413.5282,582.3727 L410.5147,582.3037 L407.5277,582.7648 L404.5186,582.784 L404.522,582.8982 L401.907,583.117 L399.2771,582.8324 L396.6591,582.9538 L394.0478,583.2985 L391.4225,583.1706 L391.4259,583.4332 L388.8642,582.9659 L386.3107,583.1459 L383.7574,583.3373 L381.1976,583.018 L378.6458,583.3333 L378.6458,583.3333 L378.6479,583.4969 L376.092,583.4202 L373.5346,583.2216 L370.9807,583.3015 L368.4288,583.5404 L365.8691,583.1706 L365.8649,583.0258 L363.2542,583.239 L360.6346,583.1481 L358.0131,582.9922 L355.3942,582.9265 L352.773,582.784 L352.7757,582.8365 L349.756,582.3449 L346.7587,582.2976 L343.7548,582.119 L340.7644,582.2113 L337.7604,582.0313 L337.7638,582.0719 L334.7641,581.8577 L331.7443,581.4006 L328.7503,581.2555 L325.7457,580.9829 L322.7478,580.7902 L322.7852,581.0546 L320.1562,580.6155 L317.4779,579.8271 L314.8854,579.6459 L312.2335,579.0445 L309.6517,578.9388 L309.7086,579.0596 L307.2165,577.9892 L304.6485,576.758 L301.8997,575.1431 L299.5219,574.3154 L296.875,572.9167 L294.8116,572.9167 L297.431,562.3798 L296.0436,551.8429 L297.1437,541.3061 L297.5426,530.7692 L298.1864,520.2324 L294.8752,509.6955 L298.1958,499.1587 L297.3699,488.6218 L297.862,478.0849 L298.9522,467.5481 L296.8902,457.0112 L297.3619,446.4744 L297.4679,435.9375 L297.4229,425.4006 L296.8727,414.8638 L298.8492,404.3269 L295.1813,393.7901 L298.4452,383.2532 L295.1417,372.7163 L295.3741,362.1795 L296.9861,351.6426 L296.9535,341.1058 L295.506,330.5689 L298.0242,320.0321 L297.1774,309.4952 L296.875,298.9583 " fill="#555555" style="stroke:#333333;stroke-width:1.0416666666666667;"/><path d="M296.875,298.9583 L296.875,298.9583 L296.9165,299.0464 L299.3486,299.9893 L302.0238,301.4481 L304.6199,302.739 L306.9555,303.4773 L309.6517,304.9805 L309.6467,304.9448 L312.2433,305.1552 L314.8653,305.5452 L317.5049,306.0601 L320.0838,306.1447 L322.7478,306.8319 L322.7689,307.0873 L325.7263,306.7893 L328.7453,307.237 L331.7718,307.7758 L334.7546,307.7851 L337.7604,308.0729 L337.762,308.1045 L340.7622,308.2087 L343.7696,308.4566 L346.7735,308.6351 L349.7841,308.9459 L352.773,308.8257 L352.7822,309.1362 L355.4015,309.2173 L358.015,309.0981 L360.637,309.2721 L363.2595,309.4599 L365.8691,309.2122 L365.8649,308.8784 L368.4285,309.5589 L370.9781,309.1401 L373.5383,309.557 L376.0876,309.1133 L378.6458,309.375 L378.6458,309.375 L378.6454,309.3433 L381.2055,309.6858 L383.7562,309.2873 L386.3125,309.3261 L388.8692,309.4016 L391.4225,309.2122 L391.4282,309.4049 L394.0417,309.1331 L396.6649,309.1905 L399.2724,308.7154 L401.9033,309.0346 L404.5186,308.8257 L404.5313,309.0792 L407.5315,308.8807 L410.5379,308.808 L413.515,308.1507 L416.5136,307.9219 L419.5313,308.0729 L419.5075,307.7862 L422.5315,307.7975 L425.5288,307.4858 L428.5648,307.6427 L431.5347,306.9995 L434.5439,306.8319 L434.5216,306.6746 L437.1779,306.5662 L439.7391,305.7856 L442.3679,305.4831 L445.0628,305.6482 L447.64,304.9805 L447.726,305.1629 L450.3403,304.0836 L452.6871,302.4369 L455.369,301.5009 L457.9779,300.41 L460.4167,298.9583 " fill="none" style="stroke:#333333;stroke-width:1.0416666666666667;"/><text fill="#FFFFFF" font-family="Segoe Print" font-size="12.5" font-weight="bold" lengthAdjust="spacing" textLength="43.75" x="356.7708" y="328.2694">MySql</text><!--MD5=[57a7dd60b0970f41fd8892a58576fbc8]
cluster This is my folder--><path d="M309.375,339.5833 L437.5,339.5833 A6.25,6.25 0 0 1 441.6667,343.75 L448.9583,370.8008 L447.9167,370.8008 A4.1667,4.1667 0 0 1 452.0833,374.9674 L452.0833,437.5 A4.1667,4.1667 0 0 1 447.9167,441.6667 L309.375,441.6667 A4.1667,4.1667 0 0 1 305.2083,437.5 L305.2083,343.75 A4.1667,4.1667 0 0 1 309.375,339.5833 " fill="#555555" style="stroke:#FFC107;stroke-width:1.0416666666666667;"/><path d="M305.2083,370.8008 L305.2083,371.0927 L315.4762,370.2253 L325.744,371.0692 L336.0119,371.3559 L346.2798,369.81 L356.5476,370.6928 L366.8155,370.2084 L377.0833,370.2681 L387.3512,370.7061 L397.619,369.8405 L407.8869,371.5697 L418.1548,369.9254 L428.4226,370.5261 L438.6905,371.4007 L448.9583,370.8008 " fill="#555555" style="stroke:#FFC107;stroke-width:1.0416666666666667;"/><text fill="#FFC107" font-family="Segoe Print" font-size="12.5" font-weight="bold" lengthAdjust="spacing" textLength="119.7917" x="314.5833" y="358.4778">This is my folder</text><!--MD5=[b098bf3b49ab5940c6091a421f0675e2]
cluster Foo--><polygon fill="#555555" points="318.75,472.9167,318.75,473.1356,329.5455,472.4851,340.3409,473.118,351.1364,473.333,361.9318,472.1735,372.7273,472.8357,383.5227,472.4724,394.3182,472.5172,405.1136,472.8457,415.9091,472.1965,426.7045,473.4934,437.5,472.9167,437.4163,472.7145,438.063,473.0973,438.7359,473.5434,439.2564,473.6214,439.8661,473.9149,440.4463,474.1371,440.436,474.1328,440.7476,474.75,441.0111,475.3473,441.3664,475.9826,441.6379,476.5832,441.6667,477.0833,442.3742,477.0833,441.9319,487.5,442.1496,497.9167,442.3982,508.3333,440.9154,518.75,442.3734,529.1667,441.3578,539.5833,442.2227,550,441.151,560.4167,441.6667,570.8333,441.6447,570.8242,441.6605,571.5211,441.1629,572.0054,440.9682,572.6151,440.799,573.2354,440.4463,573.7796,440.5016,573.9131,439.8565,574.0224,439.3059,574.3599,438.6025,574.3282,438.127,574.8472,437.5,575,437.5,575.571,426.7045,575.4631,415.9091,575.6386,405.1136,574.4968,394.3182,574.3206,383.5227,574.3527,372.7273,574.9387,361.9318,574.7953,351.1364,575.7098,340.3409,574.818,329.5455,574.6427,318.75,575,318.7803,575.0732,318.0721,574.542,317.5025,574.3453,317.0685,574.4759,316.4509,574.1634,315.8037,573.7796,316.0393,573.8772,315.4564,573.1476,315.418,572.6435,315.2609,572.0903,314.6759,571.3598,314.5833,570.8333,314.4835,570.8333,314.7146,560.4167,315.2622,550,314.579,539.5833,315.0652,529.1667,314.0065,518.75,313.8779,508.3333,315.1079,497.9167,313.8365,487.5,314.5833,477.0833,314.7466,477.151,314.8937,476.5215,314.9855,475.8692,315.2021,475.2686,315.7068,474.7873,315.8037,474.1371,315.7639,474.041,316.4716,474.0828,316.9088,473.4716,317.6535,473.6029,318.2251,473.3161,318.75,472.9167" style="stroke:#17A2B8;stroke-width:1.0416666666666667;"/><path d="M362.5,472.9167 L362.6946,472.9167 L362.1164,476.4518 L362.679,479.987 L362.8701,483.5221 L361.8394,487.0573 L362.5,490.5924 L362.4491,490.5416 L360.1374,492.3965 L358.0822,494.508 L356.2054,496.7978 L353.714,498.4731 L352.0833,501.0091 L352.0833,501.5217 L344.5833,500.4255 L337.0833,500.826 L329.5833,501.4091 L322.0833,500.9297 L314.5833,501.0091 " fill="none" style="stroke:#17A2B8;stroke-width:1.0416666666666667;"/><text fill="#17A2B8" font-family="Segoe Print" font-size="12.5" font-weight="bold" lengthAdjust="spacing" textLength="27.0833" x="322.9167" y="490.7694">Foo</text><!--MD5=[96f7e1299d4a43069e6ed32352fcac20]
entity HTTP--><polygon fill="#C6303E" points="245.8794,80.152,244.6578,81.8211,243.213,84.2657,241.1467,85.9132,238.9753,86.8141,237.2439,86.8923,235.0187,85.7656,232.9191,85.0295,231.3254,83.535,230.4894,81.8241,229.9937,80.4618,229.508,78.6823,228.7197,77.1511,229.3255,75.6561,229.8562,74.0184,231.848,72.7231,233.2492,71.0425,234.9836,70.4844,237.0455,70.0038,239.6897,70.2894,241.1379,70.9724,242.8217,71.282,244.8691,73.3795,245.5828,75.5939,245.8929,77.1048,245.5416,79.5946" style="stroke:#DC3545;stroke-width:1.0416666666666667;"/><text fill="#555555" font-family="&quot;Segoe Print&quot;" font-size="14.5833" lengthAdjust="spacing" textLength="38.5417" x="218.2292" y="114.5782">HTTP</text><!--MD5=[cbd7cda55f2530e2efe43ec72c097853]
entity First Component--><polygon fill="#474747" points="29.6875,52.0833,29.6875,52.3023,39.9089,51.6517,50.1302,52.2847,60.3516,52.4997,70.5729,51.3402,80.7943,52.0024,91.0156,51.6391,101.237,51.6839,111.4583,52.0123,121.6797,51.3632,131.901,52.66,142.1224,51.4268,152.3438,51.8773,162.5651,52.5333,172.7865,51.994,183.0078,52.1544,193.2292,52.0833,193.2249,52.0731,193.8421,52.3847,194.4395,52.6482,195.0748,53.0035,195.6754,53.2749,196.1754,53.3037,196.3933,53.394,196.5012,53.9268,196.8123,54.5438,197.1329,55.1648,196.9204,55.5649,197.3958,56.25,198.1026,56.25,197.087,66.3118,197.9519,76.3737,196.8802,86.4355,197.3245,96.4974,197.3958,106.5592,197.6337,106.6578,197.1361,107.142,196.9415,107.7517,196.7722,108.372,196.553,108.9716,196.1754,109.5055,196.1749,109.5043,195.6244,109.8417,194.9209,109.8101,194.4455,110.329,193.8913,110.6577,193.2292,110.7259,193.2292,111.189,183.0078,111.3645,172.7865,110.2227,162.5651,110.0466,152.3438,110.0786,142.1224,110.6646,131.901,110.5212,121.6797,111.4357,111.4583,110.544,101.237,110.3686,91.0156,110.9637,80.7943,110.0313,70.5729,110.1852,60.3516,111.4019,50.1302,111.1797,39.9089,111.491,29.6875,110.7259,29.6447,110.6227,29.1407,110.5842,28.5874,110.4272,27.857,109.8421,27.3177,109.7188,26.7412,109.5055,26.7816,109.5223,26.7062,109.0029,26.2517,108.3265,26.1574,107.7992,25.5873,107.0749,25.5208,106.5592,24.8154,106.5592,26.0454,96.4974,24.774,86.4355,26.051,76.3737,25.7361,66.3118,25.5208,56.25,25.4349,56.2144,25.6514,55.6137,26.1562,55.1324,26.157,54.4425,26.687,53.9716,26.7412,53.3037,26.6678,53.1264,27.4125,53.2577,27.9841,52.9709,28.5415,52.6501,29.1045,52.3426,29.6875,52.0833" style="stroke:#333333;stroke-width:1.0416666666666667;"/><polygon fill="#474747" points="176.5625,57.2917,176.5625,57.3646,179.6875,57.1478,182.8125,57.3588,185.9375,57.4304,189.0625,57.044,192.1875,57.2917,192.1605,57.2917,192.0394,59.375,192.0543,61.4583,192.1638,63.5417,191.9474,65.625,192.1875,67.7083,192.1875,67.9006,189.0625,67.4895,185.9375,67.6397,182.8125,67.8583,179.6875,67.6785,176.5625,67.7083,176.5862,67.7083,176.5514,65.625,176.6245,63.5417,176.6455,61.4583,176.7659,59.375,176.5625,57.2917" style="stroke:#333333;stroke-width:1.0416666666666667;"/><polygon fill="#474747" points="174.4792,59.375,174.4792,59.448,175.3125,59.2311,176.1458,59.4421,176.9792,59.5138,177.8125,59.1273,178.6458,59.375,178.6188,59.375,178.4977,59.7917,178.5127,60.2083,178.6222,60.625,178.4058,61.0417,178.6458,61.4583,178.6458,61.6506,177.8125,61.2395,176.9792,61.3897,176.1458,61.6083,175.3125,61.4285,174.4792,61.4583,174.5029,61.4583,174.4681,61.0417,174.5412,60.625,174.5622,60.2083,174.6825,59.7917,174.4792,59.375" style="stroke:#333333;stroke-width:1.0416666666666667;"/><polygon fill="#474747" points="174.4792,63.5417,174.4792,63.6146,175.3125,63.3978,176.1458,63.6088,176.9792,63.6804,177.8125,63.294,178.6458,63.5417,178.6188,63.5417,178.4977,63.9583,178.5127,64.375,178.6222,64.7917,178.4058,65.2083,178.6458,65.625,178.6458,65.8172,177.8125,65.4062,176.9792,65.5563,176.1458,65.775,175.3125,65.5952,174.4792,65.625,174.5029,65.625,174.4681,65.2083,174.5412,64.7917,174.5622,64.375,174.6825,63.9583,174.4792,63.5417" style="stroke:#333333;stroke-width:1.0416666666666667;"/><text fill="#FFFFFF" font-family="&quot;Segoe Print&quot;" font-size="14.5833" lengthAdjust="spacing" textLength="119.7917" x="46.3542" y="91.6616">First Component</text><!--MD5=[b9d11f23832c1491231c5b33e55ab8c6]
entity Another Component--><polygon fill="#474747" points="270.3125,52.0833,270.3125,52.3023,280.9028,51.6517,291.4931,52.2847,302.0833,52.4997,312.6736,51.3402,323.2639,52.0024,333.8542,51.6391,344.4444,51.6839,355.0347,52.0123,365.625,51.3632,376.2153,52.66,386.8056,51.4268,397.3958,51.8773,407.9861,52.5333,418.5764,51.994,429.1667,52.1544,439.7569,52.0501,450.3472,52.2693,460.9375,52.0833,460.9693,52.16,461.6046,52.5153,462.2052,52.7868,462.7955,53.0335,463.3284,53.1413,463.8838,53.3037,464.0325,53.3653,464.3531,53.9863,464.1406,54.3864,464.8337,55.1616,464.765,55.6213,465.1042,56.25,465.6602,56.25,464.5885,66.3118,465.0328,76.3737,465.8767,86.4355,465.0534,96.4974,465.1042,106.5592,465.1379,106.5732,464.9687,107.1935,464.7495,107.7931,464.3707,108.3265,464.22,108.9544,463.8838,109.5055,463.8077,109.3219,463.3323,109.8408,462.7781,110.1695,462.1751,110.3804,461.6082,110.6785,460.9375,110.7259,460.9375,110.2227,450.3472,110.0466,439.7569,110.0786,429.1667,110.6646,418.5764,110.5212,407.9861,111.4357,397.3958,110.544,386.8056,110.3686,376.2153,110.9637,365.625,110.0313,355.0347,110.1852,344.4444,111.4019,333.8542,111.1797,323.2639,111.491,312.6736,110.3907,302.0833,111.0584,291.4931,111.3409,280.9028,110.2338,270.3125,110.7259,270.2998,110.6952,269.74,110.5222,269.2206,110.4468,268.5442,109.9923,268.0169,109.898,267.3662,109.5055,267.1886,109.4319,266.9049,108.8263,267.0396,108.3939,266.404,107.6425,266.5532,107.2161,266.1458,106.5592,266.3611,106.5592,265.8668,96.4974,265.7773,86.4355,266.6237,76.3737,265.834,66.3118,266.1458,56.25,266.3357,56.3286,266.2126,55.5873,266.8321,55.1535,267.0334,54.5466,267.2007,53.9255,267.3662,53.3037,267.3725,53.3189,268.052,53.2927,268.6263,53.0124,269.1565,52.6258,269.7589,52.4134,270.3125,52.0833" style="stroke:#333333;stroke-width:1.0416666666666667;"/><polygon fill="#474747" points="444.2708,57.2917,444.2708,57.3646,447.3958,57.1478,450.5208,57.3588,453.6458,57.4304,456.7708,57.044,459.8958,57.2917,459.8688,57.2917,459.7477,59.375,459.7627,61.4583,459.8722,63.5417,459.6558,65.625,459.8958,67.7083,459.8958,67.9006,456.7708,67.4895,453.6458,67.6397,450.5208,67.8583,447.3958,67.6785,444.2708,67.7083,444.2945,67.7083,444.2597,65.625,444.3328,63.5417,444.3539,61.4583,444.4742,59.375,444.2708,57.2917" style="stroke:#333333;stroke-width:1.0416666666666667;"/><polygon fill="#474747" points="442.1875,59.375,442.1875,59.448,443.0208,59.2311,443.8542,59.4421,444.6875,59.5138,445.5208,59.1273,446.3542,59.375,446.3272,59.375,446.2061,59.7917,446.221,60.2083,446.3305,60.625,446.1141,61.0417,446.3542,61.4583,446.3542,61.6506,445.5208,61.2395,444.6875,61.3897,443.8542,61.6083,443.0208,61.4285,442.1875,61.4583,442.2112,61.4583,442.1764,61.0417,442.2495,60.625,442.2705,60.2083,442.3909,59.7917,442.1875,59.375" style="stroke:#333333;stroke-width:1.0416666666666667;"/><polygon fill="#474747" points="442.1875,63.5417,442.1875,63.6146,443.0208,63.3978,443.8542,63.6088,444.6875,63.6804,445.5208,63.294,446.3542,63.5417,446.3272,63.5417,446.2061,63.9583,446.221,64.375,446.3305,64.7917,446.1141,65.2083,446.3542,65.625,446.3542,65.8172,445.5208,65.4062,444.6875,65.5563,443.8542,65.775,443.0208,65.5952,442.1875,65.625,442.2112,65.625,442.1764,65.2083,442.2495,64.7917,442.2705,64.375,442.3909,63.9583,442.1875,63.5417" style="stroke:#333333;stroke-width:1.0416666666666667;"/><text fill="#FFFFFF" font-family="&quot;Segoe Print&quot;" font-size="14.5833" lengthAdjust="spacing" textLength="146.875" x="286.9792" y="91.6616">Another Component</text><!--MD5=[76af18d92d7d7c0f7ebd8f4f605ac5aa]
entity FTP--><polygon fill="#C6303E" points="60.4627,218.6937,59.2412,220.3627,57.7964,222.8074,55.73,224.4548,53.5586,225.3558,51.8273,225.434,49.602,224.3072,47.5024,223.5712,45.9087,222.0767,45.0728,220.3657,44.577,219.0034,44.0913,217.224,43.303,215.6928,43.9088,214.1977,44.4395,212.56,46.4313,211.2648,47.8325,209.5842,49.567,209.0261,51.6289,208.5455,54.273,208.831,55.7213,209.514,57.4051,209.8236,59.4524,211.9212,60.1661,214.1356,60.4762,215.6465,60.125,218.1363" style="stroke:#DC3545;stroke-width:1.0416666666666667;"/><text fill="#555555" font-family="&quot;Segoe Print&quot;" font-size="14.5833" lengthAdjust="spacing" textLength="27.0833" x="38.5417" y="253.1199">FTP</text><!--MD5=[0e2cc1aee2c7f52697e111b4fb84546c]
entity Second Component--><polygon fill="#474747" points="96.3542,190.625,96.3542,190.8439,106.8287,190.1934,117.3032,190.8263,127.7778,191.0413,138.2523,189.8819,148.7269,190.544,159.2014,190.1807,169.6759,190.2255,180.1505,190.554,190.625,189.9048,201.0995,191.2017,211.5741,189.9685,222.0486,190.419,232.5231,191.0749,242.9977,190.5356,253.4722,190.6961,263.9468,190.5917,274.4213,190.811,284.8958,190.625,284.9276,190.7017,285.5629,191.057,286.1635,191.3284,286.7539,191.5751,287.2867,191.683,287.8421,191.8454,287.9908,191.907,288.3115,192.528,288.0989,192.9281,288.792,193.7033,288.7233,194.163,289.0625,194.7917,289.6186,194.7917,288.5469,204.8535,288.9911,214.9154,289.835,224.9772,289.0117,235.0391,289.0625,245.1009,289.0963,245.1149,288.9271,245.7352,288.7079,246.3347,288.329,246.8682,288.1783,247.4961,287.8421,248.0472,287.7661,247.8636,287.2906,248.3825,286.7364,248.7112,286.1334,248.922,285.5665,249.2202,284.8958,249.2676,284.8958,248.7644,274.4213,248.5882,263.9468,248.6203,253.4722,249.2062,242.9977,249.0629,232.5231,249.9774,222.0486,249.0856,211.5741,248.9102,201.0995,249.5054,190.625,248.573,180.1505,248.7268,169.6759,249.9436,159.2014,249.7214,148.7269,250.0327,138.2523,248.9324,127.7778,249.6001,117.3032,249.8826,106.8287,248.7755,96.3542,249.2676,96.3414,249.2368,95.7817,249.0639,95.2623,248.9885,94.5858,248.534,94.0586,248.4397,93.4079,248.0472,93.2302,247.9736,92.9466,247.3679,93.0813,246.9356,92.4457,246.1842,92.5948,245.7578,92.1875,245.1009,92.4027,245.1009,91.9084,235.0391,91.819,224.9772,92.6654,214.9154,91.8757,204.8535,92.1875,194.7917,92.3774,194.8703,92.2543,194.129,92.8737,193.6952,93.0751,193.0883,93.2424,192.4672,93.4079,191.8454,93.4142,191.8605,94.0937,191.8344,94.6679,191.5541,95.1981,191.1675,95.8005,190.9551,96.3542,190.625" style="stroke:#333333;stroke-width:1.0416666666666667;"/><polygon fill="#474747" points="268.2292,195.8333,268.2292,195.9063,271.3542,195.6895,274.4792,195.9004,277.6042,195.9721,280.7292,195.5856,283.8542,195.8333,283.8272,195.8333,283.7061,197.9167,283.721,200,283.8305,202.0833,283.6141,204.1667,283.8542,206.25,283.8542,206.4422,280.7292,206.0312,277.6042,206.1813,274.4792,206.4,271.3542,206.2202,268.2292,206.25,268.2529,206.25,268.2181,204.1667,268.2912,202.0833,268.3122,200,268.4325,197.9167,268.2292,195.8333" style="stroke:#333333;stroke-width:1.0416666666666667;"/><polygon fill="#474747" points="266.1458,197.9167,266.1458,197.9896,266.9792,197.7728,267.8125,197.9838,268.6458,198.0554,269.4792,197.669,270.3125,197.9167,270.2855,197.9167,270.1644,198.3333,270.1793,198.75,270.2888,199.1667,270.0724,199.5833,270.3125,200,270.3125,200.1922,269.4792,199.7812,268.6458,199.9313,267.8125,200.15,266.9792,199.9702,266.1458,200,266.1695,200,266.1347,199.5833,266.2078,199.1667,266.2289,198.75,266.3492,198.3333,266.1458,197.9167" style="stroke:#333333;stroke-width:1.0416666666666667;"/><polygon fill="#474747" points="266.1458,202.0833,266.1458,202.1563,266.9792,201.9395,267.8125,202.1504,268.6458,202.2221,269.4792,201.8356,270.3125,202.0833,270.2855,202.0833,270.1644,202.5,270.1793,202.9167,270.2888,203.3333,270.0724,203.75,270.3125,204.1667,270.3125,204.3589,269.4792,203.9478,268.6458,204.098,267.8125,204.3166,266.9792,204.1369,266.1458,204.1667,266.1695,204.1667,266.1347,203.75,266.2078,203.3333,266.2289,202.9167,266.3492,202.5,266.1458,202.0833" style="stroke:#333333;stroke-width:1.0416666666666667;"/><text fill="#FFFFFF" font-family="&quot;Segoe Print&quot;" font-size="14.5833" lengthAdjust="spacing" textLength="144.7917" x="113.0208" y="230.2032">Second Component</text><!--MD5=[243c1e580c31013c48b02624e18b25a7]
entity Example 1--><polygon fill="#474747" points="319.2708,190.625,319.2708,190.8439,329.9716,190.1934,340.6723,190.8263,351.3731,191.0413,362.0739,189.8819,372.7746,190.544,383.4754,190.1807,394.1761,190.2255,404.8769,190.554,415.5777,189.9048,426.2784,191.2017,436.9792,190.625,436.8954,190.4228,437.5421,190.8056,438.2151,191.2517,438.7355,191.3297,439.3453,191.6232,439.9254,191.8454,439.9152,191.8411,440.2268,192.4584,440.4903,193.0557,440.8456,193.691,441.117,194.2916,441.1458,194.7917,441.8534,194.7917,441.4111,204.8535,441.6287,214.9154,441.8773,224.9772,440.3946,235.0391,441.1458,245.1009,441.3635,245.1911,440.8066,245.6508,440.8289,246.3504,440.2548,246.8029,440.1475,247.4488,439.9254,248.0472,440.024,248.2851,439.3297,248.2756,438.7609,248.5691,438.2027,248.8881,437.6237,249.157,436.9792,249.2676,436.9792,249.2635,426.2784,249.5668,415.5777,248.6713,404.8769,249.5638,394.1761,249.8386,383.4754,249.7306,372.7746,249.9061,362.0739,248.7644,351.3731,248.5882,340.6723,248.6203,329.9716,249.2062,319.2708,249.2676,319.2447,249.2045,318.7721,249.2421,318.0691,248.7234,317.4575,248.4253,316.9441,248.3645,316.3246,248.0472,316.1106,247.9586,315.9139,247.389,316.0446,246.9549,315.7321,246.3373,315.5839,245.7878,315.1042,245.1009,314.769,245.1009,315.4367,235.0391,315.7192,224.9772,314.6121,214.9154,315.0043,204.8535,315.1042,194.7917,315.1446,194.8084,315.5573,194.289,315.591,193.6126,315.9848,193.0854,315.9028,192.3611,316.3246,191.8454,316.2346,191.6281,316.9807,191.7629,317.4078,191.1272,318.16,191.2764,318.709,190.9354,319.2708,190.625" style="stroke:#333333;stroke-width:1.0416666666666667;"/><polygon fill="#474747" points="420.3125,195.8333,420.3125,195.9063,423.4375,195.6895,426.5625,195.9004,429.6875,195.9721,432.8125,195.5856,435.9375,195.8333,435.9105,195.8333,435.7894,197.9167,435.8043,200,435.9138,202.0833,435.6974,204.1667,435.9375,206.25,435.9375,206.4422,432.8125,206.0312,429.6875,206.1813,426.5625,206.4,423.4375,206.2202,420.3125,206.25,420.3362,206.25,420.3014,204.1667,420.3745,202.0833,420.3955,200,420.5159,197.9167,420.3125,195.8333" style="stroke:#333333;stroke-width:1.0416666666666667;"/><polygon fill="#474747" points="418.2292,197.9167,418.2292,197.9896,419.0625,197.7728,419.8958,197.9838,420.7292,198.0554,421.5625,197.669,422.3958,197.9167,422.3688,197.9167,422.2477,198.3333,422.2627,198.75,422.3722,199.1667,422.1558,199.5833,422.3958,200,422.3958,200.1922,421.5625,199.7812,420.7292,199.9313,419.8958,200.15,419.0625,199.9702,418.2292,200,418.2529,200,418.2181,199.5833,418.2912,199.1667,418.3122,198.75,418.4325,198.3333,418.2292,197.9167" style="stroke:#333333;stroke-width:1.0416666666666667;"/><polygon fill="#474747" points="418.2292,202.0833,418.2292,202.1563,419.0625,201.9395,419.8958,202.1504,420.7292,202.2221,421.5625,201.8356,422.3958,202.0833,422.3688,202.0833,422.2477,202.5,422.2627,202.9167,422.3722,203.3333,422.1558,203.75,422.3958,204.1667,422.3958,204.3589,421.5625,203.9478,420.7292,204.098,419.8958,204.3166,419.0625,204.1369,418.2292,204.1667,418.2529,204.1667,418.2181,203.75,418.2912,203.3333,418.3122,202.9167,418.4325,202.5,418.2292,202.0833" style="stroke:#333333;stroke-width:1.0416666666666667;"/><text fill="#FFFFFF" font-family="&quot;Segoe Print&quot;" font-size="14.5833" lengthAdjust="spacing" textLength="73.9583" x="335.9375" y="230.2032">Example 1</text><!--MD5=[3e0e08c92570480402984701ab5a6d2d]
entity Folder 3--><polygon fill="#474747" points="327.0833,375,327.0833,375.2189,337.2917,374.5684,347.5,375.2013,357.7083,375.4163,367.9167,374.2569,378.125,374.919,388.3333,374.5557,398.5417,374.6005,408.75,374.929,418.9583,374.2798,429.1667,375,429.2402,375.1776,429.6722,375.0419,430.3189,375.4247,430.9918,375.8708,431.5123,375.9488,432.1129,376.2204,432.1348,376.2295,432.3468,376.8054,432.6584,377.4226,432.9219,378.0199,433.2771,378.6552,433.3333,379.1667,434.0323,379.1667,434.0409,389.2285,433.5986,399.2904,433.8162,409.3522,434.0648,419.4141,433.3333,429.4759,433.102,429.3801,433.3069,430.1553,432.7501,430.615,432.7723,431.3146,432.1982,431.7672,432.1129,432.4222,432.1038,432.4002,431.6222,432.9042,430.928,432.8947,430.3592,433.1882,429.8009,433.5071,429.1667,433.6426,429.1667,434.0762,418.9583,433.6385,408.75,433.9418,398.5417,433.0463,388.3333,433.9388,378.125,434.2136,367.9167,434.1056,357.7083,434.2811,347.5,433.1394,337.2917,432.9632,327.0833,433.6426,327.0008,433.4432,326.4863,433.3796,325.8787,433.0914,325.4061,433.1289,324.7031,432.6102,324.1371,432.4222,324.027,432.3766,323.9662,431.8633,323.435,431.1551,323.2383,430.5854,323.3689,430.1514,322.9167,429.4759,323.3705,429.4759,323.6818,419.4141,322.5815,409.3522,323.2492,399.2904,323.5317,389.2285,322.9167,379.1667,322.7651,379.1039,323.13,378.5647,323.4452,378.0049,323.858,377.4855,323.8916,376.8091,324.1371,376.2204,324.1985,376.3688,324.6527,375.7987,325.2256,375.515,325.9717,375.6497,326.3988,375.0141,327.0833,375" style="stroke:#333333;stroke-width:1.0416666666666667;"/><polygon fill="#474747" points="412.5,380.2083,412.5,380.2813,415.625,380.0645,418.75,380.2754,421.875,380.3471,425,379.9606,428.125,380.2083,428.098,380.2083,427.9769,382.2917,427.9918,384.375,428.1013,386.4583,427.8849,388.5417,428.125,390.625,428.125,390.8172,425,390.4062,421.875,390.5563,418.75,390.775,415.625,390.5952,412.5,390.625,412.5237,390.625,412.4889,388.5417,412.562,386.4583,412.583,384.375,412.7034,382.2917,412.5,380.2083" style="stroke:#333333;stroke-width:1.0416666666666667;"/><polygon fill="#474747" points="410.4167,382.2917,410.4167,382.3646,411.25,382.1478,412.0833,382.3588,412.9167,382.4304,413.75,382.044,414.5833,382.2917,414.5563,382.2917,414.4352,382.7083,414.4502,383.125,414.5597,383.5417,414.3433,383.9583,414.5833,384.375,414.5833,384.5672,413.75,384.1562,412.9167,384.3063,412.0833,384.525,411.25,384.3452,410.4167,384.375,410.4404,384.375,410.4056,383.9583,410.4787,383.5417,410.4997,383.125,410.62,382.7083,410.4167,382.2917" style="stroke:#333333;stroke-width:1.0416666666666667;"/><polygon fill="#474747" points="410.4167,386.4583,410.4167,386.5313,411.25,386.3145,412.0833,386.5254,412.9167,386.5971,413.75,386.2106,414.5833,386.4583,414.5563,386.4583,414.4352,386.875,414.4502,387.2917,414.5597,387.7083,414.3433,388.125,414.5833,388.5417,414.5833,388.7339,413.75,388.3228,412.9167,388.473,412.0833,388.6916,411.25,388.5119,410.4167,388.5417,410.4404,388.5417,410.4056,388.125,410.4787,387.7083,410.4997,387.2917,410.62,386.875,410.4167,386.4583" style="stroke:#333333;stroke-width:1.0416666666666667;"/><text fill="#FFFFFF" font-family="&quot;Segoe Print&quot;" font-size="14.5833" lengthAdjust="spacing" textLength="58.3333" x="343.75" y="414.5782">Folder 3</text><!--MD5=[63877ed85df621d134a6c80fb52dad56]
entity Frame 4--><polygon fill="#474747" points="327.0833,508.3333,327.0833,508.5523,337.2917,507.9017,347.5,508.5347,357.7083,508.7497,367.9167,507.5902,378.125,508.2524,388.3333,507.8891,398.5417,507.9339,408.75,508.2623,418.9583,507.6132,429.1667,508.3333,429.2402,508.5109,429.6722,508.3752,430.3189,508.758,430.9918,509.2041,431.5123,509.2821,432.1129,509.5537,432.1348,509.5628,432.3468,510.1387,432.6584,510.756,432.9219,511.3533,433.2771,511.9886,433.3333,512.5,434.0323,512.5,434.0409,522.5618,433.5986,532.6237,433.8162,542.6855,434.0648,552.7474,433.3333,562.8092,433.102,562.7134,433.3069,563.4887,432.7501,563.9484,432.7723,564.6479,432.1982,565.1005,432.1129,565.7555,432.1038,565.7335,431.6222,566.2375,430.928,566.228,430.3592,566.5215,429.8009,566.8405,429.1667,566.9759,429.1667,567.4095,418.9583,566.9718,408.75,567.2751,398.5417,566.3796,388.3333,567.2721,378.125,567.5469,367.9167,567.439,357.7083,567.6145,347.5,566.4727,337.2917,566.2966,327.0833,566.9759,327.0008,566.7766,326.4863,566.7129,325.8787,566.4247,325.4061,566.4623,324.7031,565.9436,324.1371,565.7555,324.027,565.7099,323.9662,565.1966,323.435,564.4884,323.2383,563.9188,323.3689,563.4847,322.9167,562.8092,323.3705,562.8092,323.6818,552.7474,322.5815,542.6855,323.2492,532.6237,323.5317,522.5618,322.9167,512.5,322.7651,512.4372,323.13,511.898,323.4452,511.3382,323.858,510.8188,323.8916,510.1424,324.1371,509.5537,324.1985,509.7021,324.6527,509.132,325.2256,508.8483,325.9717,508.983,326.3988,508.3474,327.0833,508.3333" style="stroke:#333333;stroke-width:1.0416666666666667;"/><polygon fill="#474747" points="412.5,513.5417,412.5,513.6146,415.625,513.3978,418.75,513.6088,421.875,513.6804,425,513.294,428.125,513.5417,428.098,513.5417,427.9769,515.625,427.9918,517.7083,428.1013,519.7917,427.8849,521.875,428.125,523.9583,428.125,524.1506,425,523.7395,421.875,523.8897,418.75,524.1083,415.625,523.9285,412.5,523.9583,412.5237,523.9583,412.4889,521.875,412.562,519.7917,412.583,517.7083,412.7034,515.625,412.5,513.5417" style="stroke:#333333;stroke-width:1.0416666666666667;"/><polygon fill="#474747" points="410.4167,515.625,410.4167,515.698,411.25,515.4811,412.0833,515.6921,412.9167,515.7638,413.75,515.3773,414.5833,515.625,414.5563,515.625,414.4352,516.0417,414.4502,516.4583,414.5597,516.875,414.3433,517.2917,414.5833,517.7083,414.5833,517.9006,413.75,517.4895,412.9167,517.6397,412.0833,517.8583,411.25,517.6785,410.4167,517.7083,410.4404,517.7083,410.4056,517.2917,410.4787,516.875,410.4997,516.4583,410.62,516.0417,410.4167,515.625" style="stroke:#333333;stroke-width:1.0416666666666667;"/><polygon fill="#474747" points="410.4167,519.7917,410.4167,519.8646,411.25,519.6478,412.0833,519.8588,412.9167,519.9304,413.75,519.544,414.5833,519.7917,414.5563,519.7917,414.4352,520.2083,414.4502,520.625,414.5597,521.0417,414.3433,521.4583,414.5833,521.875,414.5833,522.0672,413.75,521.6562,412.9167,521.8063,412.0833,522.025,411.25,521.8452,410.4167,521.875,410.4404,521.875,410.4056,521.4583,410.4787,521.0417,410.4997,520.625,410.62,520.2083,410.4167,519.7917" style="stroke:#333333;stroke-width:1.0416666666666667;"/><text fill="#FFFFFF" font-family="&quot;Segoe Print&quot;" font-size="14.5833" lengthAdjust="spacing" textLength="58.3333" x="343.75" y="547.9116">Frame 4</text><path d="M227.819,81.25 L227.819,81.3473 L221.7791,81.0582 L215.7393,81.3395 L209.6994,81.435 L203.6595,80.9197 L197.6196,81.25 " fill="none" style="stroke:#333333;stroke-width:3.125;"/><path d="M61.6059,219.7917 L61.6059,219.889 L67.7114,219.5999 L73.8169,219.8812 L79.9225,219.9767 L86.028,219.4614 L92.1335,219.7917 " fill="none" style="stroke:#333333;stroke-width:3.125;"/><path d="M99.1558,110.5659 L99.4235,110.6824 L94.4262,119.9933 L90.9982,129.987 L87.0591,139.7584 L81.4397,148.7986 L78.0473,158.8078 L73.4012,168.2716 L69.2541,177.9524 L65.4538,187.7841 L60.4582,197.0958 L57.1368,207.1359 " fill="none" style="stroke:#333333;stroke-width:3.125;"/><polygon fill="#333333" points="57.1368,207.1359,57.1861,207.1897,58.5518,205.643,60.2066,204.4117,61.7673,203.0777,63.0183,201.4061,64.6979,200.2018,64.688,200.1767,63.5471,200.4957,62.4559,200.9412,61.3994,201.4747,60.2235,201.705,59.2148,202.3601,59.3937,202.4305,58.5795,201.1833,58.2876,200.1417,58.0595,199.1251,57.4605,197.9627,57.0566,196.877,57.0803,196.8772,57.0615,198.9287,57.1507,200.981,57.1877,203.033,57.3241,205.0857,57.1368,207.1359" style="stroke:#333333;stroke-width:1.0416666666666667;"/><path d="M368.215,110.5659 L368.5057,110.5926 L368.5574,120.5067 L370.3132,130.5769 L371.514,140.5963 L370.89,150.4486 L372.6846,160.5224 L373.1176,170.4714 L374.0925,180.4701 L375.5383,190.512 " fill="none" style="stroke:#333333;stroke-width:3.125;"/><polygon fill="#333333" points="375.5383,190.512,375.6074,190.5354,376.0609,188.5226,376.9195,186.6471,377.6462,184.7269,377.939,182.6596,378.8324,180.796,378.8117,180.7787,377.9647,181.6071,377.2224,182.5225,376.5527,183.4985,375.6325,184.2659,375.0632,185.3253,375.1862,185.4731,374.0173,184.4033,373.2075,183.7649,372.4415,183.1791,371.4206,182.2871,370.5338,181.5561,370.5545,181.5677,371.525,183.3419,372.5897,185.1687,373.609,186.9701,374.7149,188.82,375.5383,190.512" style="stroke:#333333;stroke-width:1.0416666666666667;"/><path d="M378.125,249.3164 L378.4169,249.3164 L377.5496,259.7769 L378.3935,270.2373 L378.6801,280.6978 L377.1342,291.1583 L378.0171,301.6187 L377.5326,312.0792 L377.5924,322.5396 L378.0303,333.0001 L377.1648,343.4606 L378.8939,353.921 L377.2496,364.3815 L378.125,374.8419 " fill="none" style="stroke:#333333;stroke-width:3.125;"/><polygon fill="#333333" points="378.125,374.8419,378.1917,374.8716,378.8269,372.9085,379.853,371.1192,380.7518,369.2733,381.232,367.2413,382.2917,365.4669,382.2726,365.4479,381.3536,366.1956,380.5308,367.0394,379.7749,367.9502,378.7886,368.6305,378.125,369.6336,378.2609,369.7695,377.1369,368.6455,376.4098,367.9184,375.7311,367.2397,374.7706,366.2792,373.9583,365.4669,373.98,365.4766,374.7815,367.3374,375.6816,369.2421,376.5342,371.1257,377.4775,373.0495,378.125,374.8419" style="stroke:#333333;stroke-width:1.0416666666666667;"/><path d="M378.125,433.3648 L378.4169,433.3648 L377.5496,444.012 L378.3935,454.6593 L378.6801,465.3065 L377.1342,475.9538 L378.0171,486.6011 L377.5326,497.2483 L378.125,507.8956 " fill="none" style="stroke:#333333;stroke-width:3.125;"/><polygon fill="#333333" points="378.125,507.8956,378.1917,507.9252,378.8269,505.9622,379.853,504.1729,380.7518,502.327,381.232,500.295,382.2917,498.5206,382.2726,498.5015,381.3536,499.2492,380.5308,500.0931,379.7749,501.0039,378.7886,501.6842,378.125,502.6873,378.2609,502.8232,377.1369,501.6992,376.4098,500.972,375.7311,500.2933,374.7706,499.3329,373.9583,498.5206,373.98,498.5302,374.7815,500.3911,375.6816,502.2958,376.5342,504.1793,377.4775,506.1032,378.125,507.8956" style="stroke:#333333;stroke-width:1.0416666666666667;"/></g></svg>