<?xml version="1.0" encoding="UTF-8" standalone="no"?><svg xmlns="http://www.w3.org/2000/svg" xmlns:xlink="http://www.w3.org/1999/xlink" contentScriptType="application/ecmascript" contentStyleType="text/css" height="731.25px" preserveAspectRatio="none" style="width:517px;height:731px;background:#00000000;" version="1.1" viewBox="0 0 517 731" width="517.7083px" zoomAndPan="magnify"><defs><linearGradient id="grhlaakq0i6030" x1="50%" x2="50%" y1="0%" y2="100%"><stop offset="0%" stop-color="#FFFFFF"/><stop offset="100%" stop-color="#FFFFFF"/></linearGradient><filter height="300%" id="frhlaakq0i603" width="300%" x="-1" y="-1"><feGaussianBlur result="blurOut" stdDeviation="2.0833333333333335"/><feColorMatrix in="blurOut" result="blurOut2" type="matrix" values="0 0 0 0 0 0 0 0 0 0 0 0 0 0 0 0 0 0 .4 0"/><feOffset dx="4.166666666666667" dy="4.166666666666667" in="blurOut2" result="blurOut3"/><feBlend in="SourceGraphic" in2="blurOut3" mode="normal"/></filter><linearGradient id="grhlaakq0i6031" x1="50%" x2="50%" y1="0%" y2="100%"><stop offset="0%" stop-color="#4DABF5"/><stop offset="100%" stop-color="#2196F3"/></linearGradient></defs><g><!--MD5=[262aabfe314dcb38308ea550cce12173]
cluster Some Group--><path d="M20.8333,16.6667 L129.1667,16.6667 A6.25,6.25 0 0 1 133.3333,20.8333 L140.625,58.3008 L501.0417,58.3008 A4.1667,4.1667 0 0 1 505.2083,62.4674 L505.2083,135.4167 A4.1667,4.1667 0 0 1 501.0417,139.5833 L20.8333,139.5833 A4.1667,4.1667 0 0 1 16.6667,135.4167 L16.6667,20.8333 A4.1667,4.1667 0 0 1 20.8333,16.6667 " fill="url(#grhlaakq0i6030)" filter="url(#frhlaakq0i603)" style="stroke:#2196F3;stroke-width:1.0416666666666667;"/><line style="stroke:#2196F3;stroke-width:1.0416666666666667;" x1="16.6667" x2="140.625" y1="58.3008" y2="58.3008"/><text fill="#FFFFFF" font-family="Verdana" font-size="12.5" font-weight="bold" lengthAdjust="spacing" textLength="89.5833" x="31.25" y="40.7694">Some Group</text><!--MD5=[a809f7b457cbc4d947186a4bb863b06b]
cluster Other Groups--><polygon fill="url(#grhlaakq0i6030)" filter="url(#frhlaakq0i603)" points="34.375,191.6667,44.7917,181.25,318.75,181.25,318.75,298.9583,308.3333,309.375,34.375,309.375,34.375,191.6667" style="stroke:#222222;stroke-width:1.0416666666666667;"/><line style="stroke:#222222;stroke-width:1.0416666666666667;" x1="308.3333" x2="318.75" y1="191.6667" y2="181.25"/><line style="stroke:#222222;stroke-width:1.0416666666666667;" x1="34.375" x2="308.3333" y1="191.6667" y2="191.6667"/><line style="stroke:#222222;stroke-width:1.0416666666666667;" x1="308.3333" x2="308.3333" y1="191.6667" y2="309.375"/><text fill="#222222" font-family="Verdana" font-size="12.5" font-weight="bold" lengthAdjust="spacing" textLength="100" x="122.3958" y="216.8111">Other Groups</text><path d="M343.2497,208.5455 C346.3635,203.1797 352.4614,202.2262 355.9274,208.1501 C358.1303,202.2096 362.9863,200.677 367.3489,205.9505 C370.1228,198.7635 376.343,199.0454 380.6542,204.3075 C381.9355,196.3134 388.7563,196.0949 393.7242,200.3851 C396.3808,193.6365 402.2938,194.1966 406.1882,199.0562 C410.1095,192.8123 416.2356,193.539 418.5211,200.5753 C423.4917,196.2674 426.947,197.0707 429.8416,202.8948 C433.8302,198.5754 439.5666,198.6833 441.8946,204.8107 C446.1131,199.7255 451.8118,200.358 453.888,207.0014 C463.5687,200.2189 471.4432,204.2978 472.9167,215.625 C473.9798,215.0516 474.8377,215.3943 475.0724,216.6185 C482.2289,219.1554 484.1446,225.5974 477.9911,230.8617 C484.6147,233.1267 483.9432,239.0109 479.3212,242.5551 C487.0699,244.9428 489.7175,250.4594 483.4417,256.881 C488.3842,262.3087 486.4314,266.9397 479.538,268.3327 C485.6195,273.5848 483.6066,278.4998 477.0293,281.3036 C482.4841,291.373 478.9906,301.8464 465.625,301.0417 C466.8495,301.2344 467.0753,301.9323 466.4392,302.9281 C462.3832,308.22 457.2815,309.3703 453.7666,302.3703 C451.1623,307.6221 446.4016,307.8982 443.1702,303.0267 C439.6363,308.8059 433.2828,309.2868 430.2152,302.5442 C426.6332,308.6704 422.2566,309.4776 418.1302,303.0691 C413.7133,309.0307 409.5695,309.6825 404.4091,303.9408 C401.3709,309.9247 395.8562,308.8616 393.1187,303.6377 C388.5277,308.9806 383.6281,307.3061 380.6982,301.7455 C377.9165,308.2538 372.8998,308.3239 368.8953,302.9612 C365.4479,308.1503 360.1081,309.3993 356.2797,303.3904 C346.2817,311.0933 335.9839,306.4564 335.4167,293.75 C336.6856,293.9256 337.0151,294.8722 336.1398,295.8031 C329.19,292.7666 329.6943,286.3896 334.8718,282.221 C328.9097,278.4093 328.9494,272.2743 334.5281,268.1801 C328.9793,265.3528 328.76,260.2446 333.2784,256.3536 C327.5056,251.4746 327.557,247.4923 334.5784,243.9547 C327.8674,239.7863 329.0144,233.388 335.0515,229.6409 C327.2378,220.2305 329.187,210.077 342.7083,208.3333 C342.9345,208.1611 343.221,208.214 343.2497,208.5455 " fill="url(#grhlaakq0i6030)" filter="url(#frhlaakq0i603)" style="stroke:#F2FCFE;stroke-width:1.0416666666666667;"/><!--MD5=[a8e31809c94bd3920922c17a126bb0b3]
cluster MySql--><path d="M317.7083,361.4583 C317.7083,351.0417 404.6875,351.0417 404.6875,351.0417 C404.6875,351.0417 491.6667,351.0417 491.6667,361.4583 L491.6667,697.9167 C491.6667,708.3333 404.6875,708.3333 404.6875,708.3333 C404.6875,708.3333 317.7083,708.3333 317.7083,697.9167 L317.7083,361.4583 " fill="url(#grhlaakq0i6030)" filter="url(#frhlaakq0i603)" style="stroke:#2196F3;stroke-width:1.0416666666666667;"/><path d="M317.7083,361.4583 C317.7083,371.875 404.6875,371.875 404.6875,371.875 C404.6875,371.875 491.6667,371.875 491.6667,361.4583 " fill="none" style="stroke:#2196F3;stroke-width:1.0416666666666667;"/><text fill="#222222" font-family="Verdana" font-size="12.5" font-weight="bold" lengthAdjust="spacing" textLength="43.75" x="382.8125" y="395.9778">MySql</text><!--MD5=[57a7dd60b0970f41fd8892a58576fbc8]
cluster This is my folder--><path d="M330.2083,412.5 L468.75,412.5 A6.25,6.25 0 0 1 472.9167,416.6667 L480.2083,454.1341 L479.1667,454.1341 A4.1667,4.1667 0 0 1 483.3333,458.3008 L483.3333,531.25 A4.1667,4.1667 0 0 1 479.1667,535.4167 L330.2083,535.4167 A4.1667,4.1667 0 0 1 326.0417,531.25 L326.0417,416.6667 A4.1667,4.1667 0 0 1 330.2083,412.5 " fill="url(#grhlaakq0i6030)" filter="url(#frhlaakq0i603)" style="stroke:#FF9800;stroke-width:1.0416666666666667;"/><line style="stroke:#FF9800;stroke-width:1.0416666666666667;" x1="326.0417" x2="480.2083" y1="454.1341" y2="454.1341"/><text fill="#FF9800" font-family="Verdana" font-size="12.5" font-weight="bold" lengthAdjust="spacing" textLength="119.7917" x="340.625" y="436.6028">This is my folder</text><!--MD5=[b098bf3b49ab5940c6091a421f0675e2]
cluster Foo--><rect fill="url(#grhlaakq0i6030)" filter="url(#frhlaakq0i603)" height="122.9167" rx="4.1667" ry="4.1667" style="stroke:#9C27B0;stroke-width:1.0416666666666667;" width="137.5" x="335.4167" y="577.0833"/><path d="M393.75,577.0833 L393.75,605.1758 L383.3333,615.5924 L335.4167,615.5924 " fill="none" style="stroke:#9C27B0;stroke-width:1.0416666666666667;"/><text fill="#9C27B0" font-family="Verdana" font-size="12.5" font-weight="bold" lengthAdjust="spacing" textLength="27.0833" x="348.9583" y="600.1444">Foo</text><!--MD5=[96f7e1299d4a43069e6ed32352fcac20]
entity HTTP--><ellipse cx="258.3333" cy="93.75" fill="#B7161C" filter="url(#frhlaakq0i603)" rx="8.3333" ry="8.3333" style="stroke:#E51C23;stroke-width:1.0416666666666667;"/><text fill="#222222" font-family="&quot;Verdana&quot;" font-size="14.5833" lengthAdjust="spacing" textLength="38.5417" x="239.0625" y="135.4116">HTTP</text><!--MD5=[cbd7cda55f2530e2efe43ec72c097853]
entity First Component--><rect fill="url(#grhlaakq0i6031)" filter="url(#frhlaakq0i603)" height="69.0592" rx="4.1667" ry="4.1667" style="stroke:#2196F3;stroke-width:1.0416666666666667;" width="182.2917" x="25.5208" y="62.5"/><rect fill="url(#grhlaakq0i6031)" height="10.4167" style="stroke:#2196F3;stroke-width:1.0416666666666667;" width="15.625" x="186.9792" y="67.7083"/><rect fill="url(#grhlaakq0i6031)" height="2.0833" style="stroke:#2196F3;stroke-width:1.0416666666666667;" width="4.1667" x="184.8958" y="69.7917"/><rect fill="url(#grhlaakq0i6031)" height="2.0833" style="stroke:#2196F3;stroke-width:1.0416666666666667;" width="4.1667" x="184.8958" y="73.9583"/><text fill="#FFFFFF" font-family="&quot;Verdana&quot;" font-size="14.5833" lengthAdjust="spacing" textLength="119.7917" x="51.5625" y="107.2866">First Component</text><!--MD5=[b9d11f23832c1491231c5b33e55ab8c6]
entity Another Component--><rect fill="url(#grhlaakq0i6031)" filter="url(#frhlaakq0i603)" height="69.0592" rx="4.1667" ry="4.1667" style="stroke:#2196F3;stroke-width:1.0416666666666667;" width="209.375" x="286.9792" y="62.5"/><rect fill="url(#grhlaakq0i6031)" height="10.4167" style="stroke:#2196F3;stroke-width:1.0416666666666667;" width="15.625" x="475.5208" y="67.7083"/><rect fill="url(#grhlaakq0i6031)" height="2.0833" style="stroke:#2196F3;stroke-width:1.0416666666666667;" width="4.1667" x="473.4375" y="69.7917"/><rect fill="url(#grhlaakq0i6031)" height="2.0833" style="stroke:#2196F3;stroke-width:1.0416666666666667;" width="4.1667" x="473.4375" y="73.9583"/><text fill="#FFFFFF" font-family="&quot;Verdana&quot;" font-size="14.5833" lengthAdjust="spacing" textLength="146.875" x="313.0208" y="107.2866">Another Component</text><!--MD5=[76af18d92d7d7c0f7ebd8f4f605ac5aa]
entity FTP--><ellipse cx="52.0833" cy="263.5417" fill="#B7161C" filter="url(#frhlaakq0i603)" rx="8.3333" ry="8.3333" style="stroke:#E51C23;stroke-width:1.0416666666666667;"/><text fill="#222222" font-family="&quot;Verdana&quot;" font-size="14.5833" lengthAdjust="spacing" textLength="27.0833" x="38.5417" y="305.2032">FTP</text><!--MD5=[0e2cc1aee2c7f52697e111b4fb84546c]
entity Second Component--><rect fill="url(#grhlaakq0i6031)" filter="url(#frhlaakq0i603)" height="69.0592" rx="4.1667" ry="4.1667" style="stroke:#2196F3;stroke-width:1.0416666666666667;" width="207.2917" x="102.6042" y="232.2917"/><rect fill="url(#grhlaakq0i6031)" height="10.4167" style="stroke:#2196F3;stroke-width:1.0416666666666667;" width="15.625" x="289.0625" y="237.5"/><rect fill="url(#grhlaakq0i6031)" height="2.0833" style="stroke:#2196F3;stroke-width:1.0416666666666667;" width="4.1667" x="286.9792" y="239.5833"/><rect fill="url(#grhlaakq0i6031)" height="2.0833" style="stroke:#2196F3;stroke-width:1.0416666666666667;" width="4.1667" x="286.9792" y="243.75"/><text fill="#FFFFFF" font-family="&quot;Verdana&quot;" font-size="14.5833" lengthAdjust="spacing" textLength="144.7917" x="128.6458" y="277.0782">Second Component</text><!--MD5=[243c1e580c31013c48b02624e18b25a7]
entity Example 1--><rect fill="url(#grhlaakq0i6031)" filter="url(#frhlaakq0i603)" height="69.0592" rx="4.1667" ry="4.1667" style="stroke:#2196F3;stroke-width:1.0416666666666667;" width="136.4583" x="335.9375" y="232.2917"/><rect fill="url(#grhlaakq0i6031)" height="10.4167" style="stroke:#2196F3;stroke-width:1.0416666666666667;" width="15.625" x="451.5625" y="237.5"/><rect fill="url(#grhlaakq0i6031)" height="2.0833" style="stroke:#2196F3;stroke-width:1.0416666666666667;" width="4.1667" x="449.4792" y="239.5833"/><rect fill="url(#grhlaakq0i6031)" height="2.0833" style="stroke:#2196F3;stroke-width:1.0416666666666667;" width="4.1667" x="449.4792" y="243.75"/><text fill="#FFFFFF" font-family="&quot;Verdana&quot;" font-size="14.5833" lengthAdjust="spacing" textLength="73.9583" x="361.9792" y="277.0782">Example 1</text><!--MD5=[3e0e08c92570480402984701ab5a6d2d]
entity Folder 3--><rect fill="url(#grhlaakq0i6031)" filter="url(#frhlaakq0i603)" height="69.0592" rx="4.1667" ry="4.1667" style="stroke:#2196F3;stroke-width:1.0416666666666667;" width="120.8333" x="343.75" y="458.3333"/><rect fill="url(#grhlaakq0i6031)" height="10.4167" style="stroke:#2196F3;stroke-width:1.0416666666666667;" width="15.625" x="443.75" y="463.5417"/><rect fill="url(#grhlaakq0i6031)" height="2.0833" style="stroke:#2196F3;stroke-width:1.0416666666666667;" width="4.1667" x="441.6667" y="465.625"/><rect fill="url(#grhlaakq0i6031)" height="2.0833" style="stroke:#2196F3;stroke-width:1.0416666666666667;" width="4.1667" x="441.6667" y="469.7917"/><text fill="#FFFFFF" font-family="&quot;Verdana&quot;" font-size="14.5833" lengthAdjust="spacing" textLength="58.3333" x="369.7917" y="503.1199">Folder 3</text><!--MD5=[63877ed85df621d134a6c80fb52dad56]
entity Frame 4--><rect fill="url(#grhlaakq0i6031)" filter="url(#frhlaakq0i603)" height="69.0592" rx="4.1667" ry="4.1667" style="stroke:#2196F3;stroke-width:1.0416666666666667;" width="120.8333" x="343.75" y="622.9167"/><rect fill="url(#grhlaakq0i6031)" height="10.4167" style="stroke:#2196F3;stroke-width:1.0416666666666667;" width="15.625" x="443.75" y="628.125"/><rect fill="url(#grhlaakq0i6031)" height="2.0833" style="stroke:#2196F3;stroke-width:1.0416666666666667;" width="4.1667" x="441.6667" y="630.2083"/><rect fill="url(#grhlaakq0i6031)" height="2.0833" style="stroke:#2196F3;stroke-width:1.0416666666666667;" width="4.1667" x="441.6667" y="634.375"/><text fill="#FFFFFF" font-family="&quot;Verdana&quot;" font-size="14.5833" lengthAdjust="spacing" textLength="58.3333" x="369.7917" y="667.7032">Frame 4</text><path d="M248.9353,96.875 C239.7334,96.875 224.6924,96.875 207.9881,96.875 " fill="none" style="stroke:#2196F3;stroke-width:3.125;"/><path d="M61.7271,266.6667 C70.89,266.6667 85.7296,266.6667 102.4882,266.6667 " fill="none" style="stroke:#2196F3;stroke-width:3.125;"/><path d="M103.7525,131.4519 C89.1755,169.3051 66.2385,228.8672 56.5934,253.9133 " fill="none" style="stroke:#2196F3;stroke-width:3.125;"/><polygon fill="#2196F3" points="56.5934,253.9133,63.8508,246.6619,58.4651,249.0529,56.0742,243.6672,56.5934,253.9133" style="stroke:#2196F3;stroke-width:1.0416666666666667;"/><path d="M394.1662,131.4519 C396.3463,160.7021 399.4926,202.9149 401.6715,232.1479 " fill="none" style="stroke:#2196F3;stroke-width:3.125;"/><polygon fill="#2196F3" points="401.6715,232.1479,405.1298,222.4891,401.2844,226.954,396.8195,223.1085,401.6715,232.1479" style="stroke:#2196F3;stroke-width:1.0416666666666667;"/><path d="M404.1667,301.2372 C404.1667,343.5799 404.1667,415.9972 404.1667,458.2749 " fill="none" style="stroke:#2196F3;stroke-width:3.125;"/><polygon fill="#2196F3" points="404.1667,458.2749,408.3333,448.8999,404.1667,453.0666,400,448.8999,404.1667,458.2749" style="stroke:#2196F3;stroke-width:1.0416666666666667;"/><path d="M404.1667,527.4201 C404.1667,555.4021 404.1667,595.009 404.1667,622.9014 " fill="none" style="stroke:#2196F3;stroke-width:3.125;"/><polygon fill="#2196F3" points="404.1667,622.9014,408.3333,613.5264,404.1667,617.6931,400,613.5264,404.1667,622.9014" style="stroke:#2196F3;stroke-width:1.0416666666666667;"/></g></svg>