<?xml version="1.0" encoding="us-ascii" standalone="no"?><svg xmlns="http://www.w3.org/2000/svg" xmlns:xlink="http://www.w3.org/1999/xlink" contentStyleType="text/css" height="669.7917px" preserveAspectRatio="none" style="width:837px;height:669px;" version="1.1" viewBox="0 0 837 669" width="837.5px" zoomAndPan="magnify"><defs><linearGradient id="g1v26733phjtar0" x1="50%" x2="50%" y1="0%" y2="100%"><stop offset="0%" stop-color="#4DABF5"/><stop offset="100%" stop-color="#2196F3"/></linearGradient><filter height="300%" id="f1v26733phjtar" width="300%" x="-1" y="-1"><feGaussianBlur result="blurOut" stdDeviation="2.0833333333333335"/><feColorMatrix in="blurOut" result="blurOut2" type="matrix" values="0 0 0 0 0 0 0 0 0 0 0 0 0 0 0 0 0 0 .4 0"/><feOffset dx="4.166666666666667" dy="4.166666666666667" in="blurOut2" result="blurOut3"/><feBlend in="SourceGraphic" in2="blurOut3" mode="normal"/></filter><linearGradient id="g1v26733phjtar1" x1="50%" x2="50%" y1="0%" y2="100%"><stop offset="0%" stop-color="#FFFFFF"/><stop offset="100%" stop-color="#FFFFFF"/></linearGradient><linearGradient id="g1v26733phjtar2" x1="50%" x2="50%" y1="0%" y2="100%"><stop offset="0%" stop-color="#B052C0"/><stop offset="100%" stop-color="#9C27B0"/></linearGradient><linearGradient id="g1v26733phjtar3" x1="50%" x2="50%" y1="0%" y2="100%"><stop offset="0%" stop-color="#F2FCFE"/><stop offset="100%" stop-color="#EEEEEE"/></linearGradient><linearGradient id="g1v26733phjtar4" x1="50%" x2="50%" y1="0%" y2="100%"><stop offset="0%" stop-color="#FFAD33"/><stop offset="100%" stop-color="#FF9800"/></linearGradient></defs><g><!--entity actor--><g id="elem_actor"><ellipse cx="64.5833" cy="32.2917" fill="url(#g1v26733phjtar0)" filter="url(#f1v26733phjtar)" rx="8.3333" ry="8.3333" style="stroke:#2196F3;stroke-width:1.0416666666666667;"/><path d="M64.5833,40.625 L64.5833,68.75 M51.0417,48.9583 L78.125,48.9583 M64.5833,68.75 L51.0417,84.375 M64.5833,68.75 L78.125,84.375 " fill="none" filter="url(#f1v26733phjtar)" style="stroke:#2196F3;stroke-width:1.0416666666666667;"/><text fill="#222222" font-family="Verdana" font-size="12.5" lengthAdjust="spacing" textLength="34.375" x="47.3958" y="111.6028">actor</text></g><!--entity actor/--><g id="elem_actor/"><ellipse cx="163.5417" cy="32.2917" fill="url(#g1v26733phjtar0)" filter="url(#f1v26733phjtar)" rx="8.3333" ry="8.3333" style="stroke:#2196F3;stroke-width:1.0416666666666667;"/><line style="stroke:#2196F3;stroke-width:1.0416666666666667;" x1="161.5168" x2="171.6253" y1="40.3753" y2="30.2668"/><path d="M163.5417,40.625 L163.5417,68.75 M150,48.9583 L177.0833,48.9583 M163.5417,68.75 L150,84.375 M163.5417,68.75 L177.0833,84.375 " fill="none" filter="url(#f1v26733phjtar)" style="stroke:#2196F3;stroke-width:1.0416666666666667;"/><text fill="#222222" font-family="Verdana" font-size="12.5" lengthAdjust="spacing" textLength="38.5417" x="144.2708" y="111.6028">actor/</text></g><!--entity agent--><g id="elem_agent"><rect fill="#FFA500" filter="url(#f1v26733phjtar)" height="56.2174" rx="4.1667" ry="4.1667" style="stroke:#999999;stroke-width:1.0416666666666667;" width="80.2083" x="234.8958" y="45.8333"/><text fill="#333333" font-family="Verdana" font-size="12.5" lengthAdjust="spacing" textLength="38.5417" x="255.7292" y="78.2694">agent</text></g><!--entity artifact--><g id="elem_artifact"><rect fill="url(#g1v26733phjtar1)" filter="url(#f1v26733phjtar)" height="59.3424" rx="4.1667" ry="4.1667" style="stroke:#666666;stroke-width:1.0416666666666667;" width="98.9583" x="356.7708" y="44.2708"/><polygon fill="url(#g1v26733phjtar1)" points="438.0208,49.4792,438.0208,64.0625,450.5208,64.0625,450.5208,55.7292,444.2708,49.4792,438.0208,49.4792" style="stroke:#666666;stroke-width:1.0416666666666667;"/><line style="stroke:#666666;stroke-width:1.0416666666666667;" x1="444.2708" x2="444.2708" y1="49.4792" y2="55.7292"/><line style="stroke:#666666;stroke-width:1.0416666666666667;" x1="450.5208" x2="444.2708" y1="55.7292" y2="55.7292"/><text fill="#666666" font-family="Verdana" font-size="12.5" lengthAdjust="spacing" textLength="46.875" x="377.6042" y="79.8319">artifact</text></g><!--entity boundary--><g id="elem_boundary"><path d="M517.1875,43.75 L517.1875,68.75 M517.1875,56.25 L534.8958,56.25 " fill="none" filter="url(#f1v26733phjtar)" style="stroke:#2196F3;stroke-width:1.0416666666666667;"/><ellipse cx="547.3958" cy="56.25" fill="url(#g1v26733phjtar0)" filter="url(#f1v26733phjtar)" rx="12.5" ry="12.5" style="stroke:#2196F3;stroke-width:1.0416666666666667;"/><text fill="#222222" font-family="Verdana" font-size="12.5" lengthAdjust="spacing" textLength="61.4583" x="507.8125" y="94.9361">boundary</text></g><!--entity card--><g id="elem_card"><rect fill="url(#g1v26733phjtar2)" filter="url(#f1v26733phjtar)" height="41.6341" rx="4.1667" ry="4.1667" style="stroke:#9C27B0;stroke-width:1.0416666666666667;" width="70.8333" x="620.8333" y="53.125"/><text fill="#FFFFFF" font-family="Verdana" font-size="12.5" lengthAdjust="spacing" textLength="29.1667" x="641.6667" y="78.2694">card</text></g><!--entity circle--><g id="elem_circle"><ellipse cx="64.5833" cy="216.6667" fill="#B7161C" filter="url(#f1v26733phjtar)" rx="8.3333" ry="8.3333" style="stroke:#E51C23;stroke-width:1.0416666666666667;"/><text fill="#222222" font-family="Verdana" font-size="12.5" lengthAdjust="spacing" textLength="34.375" x="47.3958" y="256.3944">circle</text></g><!--entity cloud--><g id="elem_cloud"><path d="M126.1018,195.5644 C128.0513,189.9675 132.508,189.3535 136.2548,193.7358 C138.6774,187.9448 144.3883,187.339 148.4147,191.841 C151.4494,184.9454 157.844,186.3048 161.1571,191.5487 C165.3832,187.0496 169.3114,187.0916 172.447,192.7596 C176.7989,188.1787 180.3079,188.0092 183.4901,193.9834 C188.4157,188.9746 192.9871,188.8165 196.5469,195.5075 C203.077,198.0866 205.779,203.7708 199.746,209.2701 C206.7844,211.1369 209.4797,215.2279 205.129,221.9353 C210.3809,228.005 208.4379,233.4887 200.2797,234.2984 C203.6713,239.9999 201.9847,243.4044 195.9656,245.4726 C194.3649,252.5035 188.8369,252.6904 184.2201,248.6814 C181.4196,253.7018 177.0384,254.785 172.9185,250.2404 C170.2747,255.7231 166.7759,257.7806 161.6107,253.025 C155.585,259.0741 149.9681,257.4946 147.7724,249.3031 C143.4489,253.8595 138.964,254.1064 135.8834,247.9267 C132.1979,252.6809 127.3615,251.4667 125.5849,246.0028 C119.0512,242.0868 118.0704,238.0639 123.9526,232.6322 C118.699,228.1968 118.5881,224.2761 124.2158,220.0687 C118.7397,216.244 118.2583,212.5092 124.2353,208.7042 C118.5109,204.1223 120.1791,198.4919 126.1018,195.5644 " fill="url(#g1v26733phjtar3)" filter="url(#f1v26733phjtar)" style="stroke:#F2FCFE;stroke-width:1.0416666666666667;"/><text fill="#222222" font-family="Verdana" font-size="12.5" lengthAdjust="spacing" textLength="35.4167" x="141.6667" y="224.1028">cloud</text></g><!--entity collections--><g id="elem_collections"><rect fill="url(#g1v26733phjtar0)" filter="url(#f1v26733phjtar)" height="52.0508" rx="4.1667" ry="4.1667" style="stroke:#2196F3;stroke-width:1.0416666666666667;" width="107.2917" x="248.4375" y="195.8333"/><rect fill="url(#g1v26733phjtar0)" height="52.0508" rx="4.1667" ry="4.1667" style="stroke:#2196F3;stroke-width:1.0416666666666667;" width="107.2917" x="244.2708" y="191.6667"/><text fill="#FFFFFF" font-family="Verdana" font-size="12.5" lengthAdjust="spacing" textLength="69.7917" x="263.0208" y="222.0194">collections</text></g><!--entity component--><g id="elem_component"><rect fill="url(#g1v26733phjtar0)" filter="url(#f1v26733phjtar)" height="66.6341" rx="4.1667" ry="4.1667" style="stroke:#2196F3;stroke-width:1.0416666666666667;" width="136.4583" x="397.3958" y="186.4583"/><rect fill="url(#g1v26733phjtar0)" height="10.4167" style="stroke:#2196F3;stroke-width:1.0416666666666667;" width="15.625" x="513.0208" y="191.6667"/><rect fill="url(#g1v26733phjtar0)" height="2.0833" style="stroke:#2196F3;stroke-width:1.0416666666666667;" width="4.1667" x="510.9375" y="193.75"/><rect fill="url(#g1v26733phjtar0)" height="2.0833" style="stroke:#2196F3;stroke-width:1.0416666666666667;" width="4.1667" x="510.9375" y="197.9167"/><text fill="#FFFFFF" font-family="Verdana" font-size="12.5" lengthAdjust="spacing" textLength="73.9583" x="423.4375" y="229.3111">component</text></g><!--entity control--><g id="elem_control"><ellipse cx="608.3333" cy="202.0833" fill="url(#g1v26733phjtar0)" filter="url(#f1v26733phjtar)" rx="12.5" ry="12.5" style="stroke:#2196F3;stroke-width:1.0416666666666667;"/><polygon fill="#2196F3" points="604.1667,189.5833,610.4167,184.375,608.3333,189.5833,610.4167,194.7917,604.1667,189.5833" style="stroke:#2196F3;stroke-width:1.0416666666666667;"/><text fill="#222222" font-family="Verdana" font-size="12.5" lengthAdjust="spacing" textLength="45.8333" x="585.4167" y="240.7694">control</text></g><!--entity database--><g id="elem_database"><path d="M683.3333,197.3958 C683.3333,186.9792 735.4167,186.9792 735.4167,186.9792 C735.4167,186.9792 787.5,186.9792 787.5,197.3958 L787.5,242.1549 C787.5,252.5716 735.4167,252.5716 735.4167,252.5716 C735.4167,252.5716 683.3333,252.5716 683.3333,242.1549 L683.3333,197.3958 " fill="url(#g1v26733phjtar0)" filter="url(#f1v26733phjtar)" style="stroke:#2196F3;stroke-width:1.0416666666666667;"/><path d="M683.3333,197.3958 C683.3333,207.8125 735.4167,207.8125 735.4167,207.8125 C735.4167,207.8125 787.5,207.8125 787.5,197.3958 " fill="none" style="stroke:#2196F3;stroke-width:1.0416666666666667;"/><text fill="#222222" font-family="Verdana" font-size="12.5" lengthAdjust="spacing" textLength="62.5" x="704.1667" y="233.9986">database</text></g><!--entity entity--><g id="elem_entity"><ellipse cx="64.5833" cy="334.375" fill="url(#g1v26733phjtar0)" filter="url(#f1v26733phjtar)" rx="12.5" ry="12.5" style="stroke:#2196F3;stroke-width:1.0416666666666667;"/><line style="stroke:#2196F3;stroke-width:1.0416666666666667;" x1="52.0833" x2="77.0833" y1="348.9583" y2="348.9583"/><text fill="#222222" font-family="Verdana" font-size="12.5" lengthAdjust="spacing" textLength="36.4583" x="46.3542" y="373.0611">entity</text></g><!--entity file--><g id="elem_file"><path d="M134.375,328.125 L134.375,376.0091 A4.1667,4.1667 0 0 0 138.5417,380.1758 L190.625,380.1758 A4.1667,4.1667 0 0 0 194.7917,376.0091 L194.7917,334.375 L184.375,323.9583 L138.5417,323.9583 A4.1667,4.1667 0 0 0 134.375,328.125 " fill="url(#g1v26733phjtar1)" filter="url(#f1v26733phjtar)" style="stroke:#666666;stroke-width:1.0416666666666667;"/><path d="M184.375,323.9583 L184.375,330.2083 A4.1667,4.1667 0 0 0 188.5417,334.375 L194.7917,334.375 " fill="url(#g1v26733phjtar1)" style="stroke:#666666;stroke-width:1.0416666666666667;"/><text fill="#666666" font-family="Verdana" font-size="12.5" lengthAdjust="spacing" textLength="18.75" x="155.2083" y="356.3944">file</text></g><!--entity folder--><g id="elem_folder"><path d="M240.625,314.5833 L280.2083,314.5833 A6.25,6.25 0 0 1 284.375,318.75 L291.6667,336.4583 L321.875,336.4583 A4.1667,4.1667 0 0 1 326.0417,340.625 L326.0417,385.3841 A4.1667,4.1667 0 0 1 321.875,389.5508 L240.625,389.5508 A4.1667,4.1667 0 0 1 236.4583,385.3841 L236.4583,318.75 A4.1667,4.1667 0 0 1 240.625,314.5833 " fill="url(#g1v26733phjtar1)" filter="url(#f1v26733phjtar)" style="stroke:#FF9800;stroke-width:2.0833333333333335;"/><line style="stroke:#FF9800;stroke-width:2.0833333333333335;" x1="236.4583" x2="291.6667" y1="336.4583" y2="336.4583"/><text fill="#FF9800" font-family="Verdana" font-size="12.5" lengthAdjust="spacing" textLength="37.5" x="257.2917" y="365.7694">folder</text></g><!--entity frame--><g id="elem_frame"><rect fill="url(#g1v26733phjtar1)" filter="url(#f1v26733phjtar)" height="66.6341" rx="4.1667" ry="4.1667" style="stroke:#9C27B0;stroke-width:2.0833333333333335;" width="100" x="367.7083" y="318.75"/><path d="M401.0417,318.75 L401.0417,323.9583 L393.75,331.25 L367.7083,331.25 " fill="none" style="stroke:#9C27B0;stroke-width:2.0833333333333335;"/><text fill="#9C27B0" font-family="Verdana" font-size="12.5" lengthAdjust="spacing" textLength="37.5" x="393.75" y="361.6028">frame</text></g><!--entity interface--><g id="elem_interface"><ellipse cx="518.75" cy="348.9583" fill="#B7161C" filter="url(#f1v26733phjtar)" rx="8.3333" ry="8.3333" style="stroke:#E51C23;stroke-width:1.0416666666666667;"/><text fill="#222222" font-family="Verdana" font-size="12.5" lengthAdjust="spacing" textLength="58.3333" x="489.5833" y="388.6861">interface</text></g><!--entity label--><g id="elem_label"><text fill="#2196F3" font-family="Verdana" font-size="12.5" lengthAdjust="spacing" textLength="31.25" x="590.625" y="356.3944">label</text></g><!--entity node--><g id="elem_node"><polygon fill="url(#g1v26733phjtar1)" filter="url(#f1v26733phjtar)" points="16.6667,469.7917,27.0833,459.375,112.5,459.375,112.5,515.5924,102.0833,526.0091,16.6667,526.0091,16.6667,469.7917" style="stroke:#222222;stroke-width:1.0416666666666667;"/><line style="stroke:#222222;stroke-width:1.0416666666666667;" x1="102.0833" x2="112.5" y1="469.7917" y2="459.375"/><line style="stroke:#222222;stroke-width:1.0416666666666667;" x1="16.6667" x2="102.0833" y1="469.7917" y2="469.7917"/><line style="stroke:#222222;stroke-width:1.0416666666666667;" x1="102.0833" x2="102.0833" y1="469.7917" y2="526.0091"/><text fill="#222222" font-family="Verdana" font-size="12.5" lengthAdjust="spacing" textLength="33.3333" x="42.7083" y="502.2278">node</text></g><!--entity package--><g id="elem_package"><path d="M158.3333,463.0208 L245.8333,463.0208 A6.25,6.25 0 0 1 250,467.1875 L257.2917,504.6549 L270.8333,504.6549 A4.1667,4.1667 0 0 1 275,508.8216 L275,518.1966 A4.1667,4.1667 0 0 1 270.8333,522.3633 L158.3333,522.3633 A4.1667,4.1667 0 0 1 154.1667,518.1966 L154.1667,467.1875 A4.1667,4.1667 0 0 1 158.3333,463.0208 " fill="url(#g1v26733phjtar1)" filter="url(#f1v26733phjtar)" style="stroke:#2196F3;stroke-width:2.0833333333333335;"/><line style="stroke:#2196F3;stroke-width:2.0833333333333335;" x1="154.1667" x2="257.2917" y1="504.6549" y2="504.6549"/><text fill="#FFFFFF" font-family="Verdana" font-size="12.5" lengthAdjust="spacing" textLength="56.25" x="175" y="488.1653">package</text></g><!--entity person--><g id="elem_person"><ellipse cx="360.4167" cy="464.7285" fill="url(#g1v26733phjtar1)" filter="url(#f1v26733phjtar)" rx="14.7285" ry="14.7285" style="stroke:#CCCCCC;stroke-width:1.0416666666666667;"/><rect fill="url(#g1v26733phjtar1)" filter="url(#f1v26733phjtar)" height="56.2174" rx="14.7285" ry="14.7285" style="stroke:#CCCCCC;stroke-width:1.0416666666666667;" width="87.5" x="316.6667" y="479.457"/><text fill="#2196F3" font-family="Verdana" font-size="12.5" lengthAdjust="spacing" textLength="45.8333" x="337.5" y="511.8931">person</text></g><!--entity queue--><g id="elem_queue"><path d="M451.0417,469.7917 L523.9583,469.7917 C529.1667,469.7917 529.1667,492.6921 529.1667,492.6921 C529.1667,492.6921 529.1667,515.5924 523.9583,515.5924 L451.0417,515.5924 C445.8333,515.5924 445.8333,492.6921 445.8333,492.6921 C445.8333,492.6921 445.8333,469.7917 451.0417,469.7917 " fill="url(#g1v26733phjtar0)" filter="url(#f1v26733phjtar)" style="stroke:#2196F3;stroke-width:1.0416666666666667;"/><path d="M523.9583,469.7917 C518.75,469.7917 518.75,492.6921 518.75,492.6921 C518.75,515.5924 523.9583,515.5924 523.9583,515.5924 " fill="none" style="stroke:#2196F3;stroke-width:1.0416666666666667;"/><text fill="#FFFFFF" font-family="Verdana" font-size="12.5" lengthAdjust="spacing" textLength="41.6667" x="461.4583" y="497.0194">queue</text></g><!--entity rectangle--><g id="elem_rectangle"><rect fill="url(#g1v26733phjtar1)" filter="url(#f1v26733phjtar)" height="56.2174" rx="4.1667" ry="4.1667" style="stroke:#CCCCCC;stroke-width:2.0833333333333335;" width="104.1667" x="570.8333" y="464.5833"/><text fill="#2196F3" font-family="Verdana" font-size="12.5" lengthAdjust="spacing" textLength="62.5" x="591.6667" y="497.0194">rectangle</text></g><!--entity stack--><g id="elem_stack"><rect fill="url(#g1v26733phjtar0)" height="56.2174" rx="4.1667" ry="4.1667" style="stroke:none;stroke-width:1.0416666666666667;" width="77.0833" x="732.2917" y="464.5833"/><path d="M716.6667,464.5833 L728.125,464.5833 A4.1667,4.1667 0 0 1 732.2917,468.75 L732.2917,516.6341 A4.1667,4.1667 0 0 0 736.4583,520.8008 L805.2083,520.8008 A4.1667,4.1667 0 0 0 809.375,516.6341 L809.375,468.75 A4.1667,4.1667 0 0 1 813.5417,464.5833 L825,464.5833 " fill="none" filter="url(#f1v26733phjtar)" style="stroke:#2196F3;stroke-width:1.0416666666666667;"/><text fill="#FFFFFF" font-family="Verdana" font-size="12.5" lengthAdjust="spacing" textLength="35.4167" x="753.125" y="497.0194">stack</text></g><!--entity storage--><g id="elem_storage"><rect fill="url(#g1v26733phjtar4)" filter="url(#f1v26733phjtar)" height="56.2174" rx="36.4583" ry="36.4583" style="stroke:#FF9800;stroke-width:1.0416666666666667;" width="92.7083" x="18.2292" y="595.8333"/><text fill="#FFFFFF" font-family="Verdana" font-size="12.5" lengthAdjust="spacing" textLength="51.0417" x="39.0625" y="628.2694">storage</text></g><g id="elem_usecase"><ellipse cx="217.8167" cy="623.9787" fill="url(#g1v26733phjtar0)" filter="url(#f1v26733phjtar)" rx="65.7334" ry="28.1453" style="stroke:#2196F3;stroke-width:2.0833333333333335;"/><text fill="#FFFFFF" font-family="Verdana" font-size="12.5" lengthAdjust="spacing" textLength="55.2083" x="190.2126" y="626.2227">usecase</text></g><g id="elem_usecase/"><ellipse cx="393.6797" cy="623.9787" fill="url(#g1v26733phjtar0)" filter="url(#f1v26733phjtar)" rx="68.6797" ry="28.1453" style="stroke:#2196F3;stroke-width:2.0833333333333335;"/><text fill="#FFFFFF" font-family="Verdana" font-size="12.5" lengthAdjust="spacing" textLength="59.375" x="363.9922" y="626.2227">usecase/</text></g><line style="stroke:#2196F3;stroke-width:2.0833333333333335;" x1="456.8853" x2="422.1915" y1="614.1672" y2="648.861"/></g></svg>