<svg xmlns="http://www.w3.org/2000/svg" xmlns:xlink="http://www.w3.org/1999/xlink" contentStyleType="text/css" height="441.6667px" preserveAspectRatio="none" style="width:454px;height:441px;background:#FDF6E3;" version="1.1" viewBox="0 0 454 441" width="454.1667px" zoomAndPan="magnify"><defs/><g><rect fill="#FDF6E3" height="441.6667" style="stroke:none;stroke-width:1.0416666666666667;" width="454.1667" x="0" y="0"/><!--cluster Some Group--><g id="cluster_Some Group"><path d="M22.3958,4.1667 L111.9792,4.1667 A11.7188,11.7188 0 0 1 119.7917,11.9792 L127.0833,27.5492 L438.0208,27.5492 A7.8125,7.8125 0 0 1 445.8333,35.3617 L445.8333,80.7292 A7.8125,7.8125 0 0 1 438.0208,88.5417 L22.3958,88.5417 A7.8125,7.8125 0 0 1 14.5833,80.7292 L14.5833,11.9792 A7.8125,7.8125 0 0 1 22.3958,4.1667 " fill="#FFE0E0" style="stroke:#DC322F;stroke-width:2.0833333333333335;"/><line style="stroke:#DC322F;stroke-width:2.0833333333333335;" x1="14.5833" x2="127.0833" y1="27.5492" y2="27.5492"/><text fill="#000000" font-family="Dejavu Serif" font-size="14.5833" font-weight="bold" lengthAdjust="spacing" textLength="98.9583" x="18.75" y="19.9432">Some Group</text></g><!--cluster Other Groups--><g id="cluster_Other Groups"><polygon fill="#FFE0E0" points="27.0833,107.2917,37.5,96.875,266.6667,96.875,266.6667,176.0417,256.25,186.4583,27.0833,186.4583,27.0833,107.2917" style="stroke:#DC322F;stroke-width:2.0833333333333335;"/><line style="stroke:#DC322F;stroke-width:2.0833333333333335;" x1="256.25" x2="266.6667" y1="107.2917" y2="96.875"/><line style="stroke:#DC322F;stroke-width:2.0833333333333335;" x1="27.0833" x2="256.25" y1="107.2917" y2="107.2917"/><line style="stroke:#DC322F;stroke-width:2.0833333333333335;" x1="256.25" x2="256.25" y1="107.2917" y2="186.4583"/><text fill="#000000" font-family="Dejavu Serif" font-size="14.5833" font-weight="bold" lengthAdjust="spacing" textLength="111.4583" x="86.9792" y="124.1099">Other Groups</text></g><g id="cluster_##12"><path d="M285.4395,131.0743 C288.7376,125.8114 293.0675,125.5345 297.1582,130.1324 C301.1209,124.8333 304.3704,126.1239 307.452,131.0218 C311.1813,123.5316 315.5467,124.3095 320.8994,129.2681 C324.8057,124.2536 328.9924,125.3547 331.3517,130.8122 C334.7836,125.2415 341.3595,124.9119 344.889,130.696 C348.4738,125.0608 352.558,125.0055 356.3489,130.4834 C359.9048,124.5515 365.5656,125.7575 368.7167,130.9341 C371.2131,125.9168 376.8473,125.6513 380.0647,130.0667 C384.4523,124.9552 388.0292,125.367 391.547,130.9965 C394.8597,124.5762 400.5591,124.9719 403.6248,131.2319 C410.0239,134.0872 409.422,138.1263 405.3923,142.6027 C411.9619,146.0741 411.9587,150.6027 406.1536,154.8436 C411.196,159.4758 409.6081,163.3936 404.1843,166.2129 C410.8592,170.2531 409.6173,176.3712 403.757,180.0236 C400.6581,186.1975 396.0534,186.9072 392.1736,180.7576 C389.0359,188.3299 383.0084,187.5845 378.7231,181.9241 C376.7478,186.9008 371.515,187.9436 368.0144,183.6945 C363.4835,190.4905 358.9591,190.6623 354.8436,183.3078 C353.1326,188.8044 348.6401,190.7722 344.1375,186.3085 C338.4166,192.2185 333.9563,191.3298 330.8936,183.7071 C327.84,187.8222 323.3437,188.3753 320.83,183.127 C316.2836,188.5327 310.3483,187.9753 307.6731,181.1193 C303.3599,185.6607 299.0032,185.42 296.0703,179.577 C292.1442,184.8955 286.0926,184.9978 283.3523,178.3198 C276.8429,177.1571 275.6579,172.0433 280.4229,167.7545 C275.227,164.7526 274.1147,160.5061 278.7899,156.1188 C274.2121,151.591 275.3419,146.3747 281.1514,143.8455 C275.8931,138.4479 277.3577,131.9929 285.4395,131.0743 " fill="#EFEFFF" style="stroke:#6C71C4;stroke-width:2.0833333333333335;"/></g><!--cluster MySql--><g id="cluster_MySql"><path d="M257.2917,205.2083 C257.2917,194.7917 342.7083,194.7917 342.7083,194.7917 C342.7083,194.7917 428.125,194.7917 428.125,205.2083 L428.125,413.5417 C428.125,423.9583 342.7083,423.9583 342.7083,423.9583 C342.7083,423.9583 257.2917,423.9583 257.2917,413.5417 L257.2917,205.2083 " fill="#EFEFFF" style="stroke:#6C71C4;stroke-width:2.0833333333333335;"/><path d="M257.2917,205.2083 C257.2917,215.625 342.7083,215.625 342.7083,215.625 C342.7083,215.625 428.125,215.625 428.125,205.2083 " fill="none" style="stroke:#6C71C4;stroke-width:2.0833333333333335;"/><text fill="#000000" font-family="Dejavu Serif" font-size="14.5833" font-weight="bold" lengthAdjust="spacing" textLength="48.9583" x="318.2292" y="231.4016">MySql</text></g><!--cluster This is my folder--><g id="cluster_This is my folder"><path d="M273.4375,238.5417 L401.5625,238.5417 A11.7188,11.7188 0 0 1 409.375,246.3542 L416.6667,261.9242 L411.9792,261.9242 A7.8125,7.8125 0 0 1 419.7917,269.7367 L419.7917,315.1042 A7.8125,7.8125 0 0 1 411.9792,322.9167 L273.4375,322.9167 A7.8125,7.8125 0 0 1 265.625,315.1042 L265.625,246.3542 A7.8125,7.8125 0 0 1 273.4375,238.5417 " fill="#F8E7C0" style="stroke:#CB4B16;stroke-width:2.0833333333333335;"/><line style="stroke:#CB4B16;stroke-width:2.0833333333333335;" x1="265.625" x2="416.6667" y1="261.9242" y2="261.9242"/><text fill="#000000" font-family="Dejavu Serif" font-size="14.5833" font-weight="bold" lengthAdjust="spacing" textLength="137.5" x="269.7917" y="254.3182">This is my folder</text></g><!--cluster Foo--><g id="cluster_Foo"><rect fill="#FFE0E0" height="84.375" rx="7.8125" ry="7.8125" style="stroke:#DC322F;stroke-width:2.0833333333333335;" width="120.8333" x="282.2917" y="331.25"/><path d="M321.875,331.25 L321.875,341.0909 L311.4583,351.5076 L282.2917,351.5076 " fill="none" style="stroke:#DC322F;stroke-width:2.0833333333333335;"/><text fill="#000000" font-family="Dejavu Serif" font-size="14.5833" font-weight="bold" lengthAdjust="spacing" textLength="29.1667" x="285.4167" y="345.9849">Foo</text></g><!--entity HTTP--><g id="elem_HTTP"><ellipse cx="217.7083" cy="53.125" fill="#FFE0E0" rx="8.3333" ry="8.3333" style="stroke:#DC322F;stroke-width:2.0833333333333335;"/><text fill="#000000" font-family="Dejavu Serif" font-size="14.5833" lengthAdjust="spacing" textLength="41.6667" x="196.875" y="84.3699">HTTP</text></g><!--entity First Component--><g id="elem_First Component"><rect fill="#C2F0FF" height="48.2259" rx="7.8125" ry="7.8125" style="stroke:#268BD2;stroke-width:2.0833333333333335;" width="166.6667" x="22.9167" y="32.2917"/><rect fill="#C2F0FF" height="10.4167" style="stroke:#268BD2;stroke-width:2.0833333333333335;" width="15.625" x="168.75" y="37.5"/><rect fill="#C2F0FF" height="2.0833" style="stroke:#268BD2;stroke-width:2.0833333333333335;" width="4.1667" x="166.6667" y="39.5833"/><rect fill="#C2F0FF" height="2.0833" style="stroke:#268BD2;stroke-width:2.0833333333333335;" width="4.1667" x="166.6667" y="43.75"/><text fill="#000000" font-family="Dejavu Serif" font-size="14.5833" lengthAdjust="spacing" textLength="35.4167" x="38.5417" y="66.6616">First</text><text fill="#000000" font-family="Dejavu Serif" font-size="14.5833" lengthAdjust="spacing" textLength="4.1667" x="73.9583" y="66.6616">&#160;</text><text fill="#000000" font-family="Dejavu Serif" font-size="14.5833" lengthAdjust="spacing" textLength="85.4167" x="78.125" y="66.6616">Component</text></g><!--entity Another Component--><g id="elem_Another Component"><rect fill="#C2F0FF" height="48.2259" rx="7.8125" ry="7.8125" style="stroke:#268BD2;stroke-width:2.0833333333333335;" width="190.625" x="246.3542" y="32.2917"/><rect fill="#C2F0FF" height="10.4167" style="stroke:#268BD2;stroke-width:2.0833333333333335;" width="15.625" x="416.1458" y="37.5"/><rect fill="#C2F0FF" height="2.0833" style="stroke:#268BD2;stroke-width:2.0833333333333335;" width="4.1667" x="414.0625" y="39.5833"/><rect fill="#C2F0FF" height="2.0833" style="stroke:#268BD2;stroke-width:2.0833333333333335;" width="4.1667" x="414.0625" y="43.75"/><text fill="#000000" font-family="Dejavu Serif" font-size="14.5833" lengthAdjust="spacing" textLength="59.375" x="261.9792" y="66.6616">Another</text><text fill="#000000" font-family="Dejavu Serif" font-size="14.5833" lengthAdjust="spacing" textLength="4.1667" x="321.3542" y="66.6616">&#160;</text><text fill="#000000" font-family="Dejavu Serif" font-size="14.5833" lengthAdjust="spacing" textLength="85.4167" x="325.5208" y="66.6616">Component</text></g><!--entity FTP--><g id="elem_FTP"><ellipse cx="44.7917" cy="151.0417" fill="#FFE0E0" rx="8.3333" ry="8.3333" style="stroke:#DC322F;stroke-width:2.0833333333333335;"/><text fill="#000000" font-family="Dejavu Serif" font-size="14.5833" lengthAdjust="spacing" textLength="30.2083" x="29.6875" y="182.2866">FTP</text></g><!--entity Second Component--><g id="elem_Second Component"><rect fill="#C2F0FF" height="48.2259" rx="7.8125" ry="7.8125" style="stroke:#268BD2;stroke-width:2.0833333333333335;" width="184.375" x="73.4375" y="130.2083"/><rect fill="#C2F0FF" height="10.4167" style="stroke:#268BD2;stroke-width:2.0833333333333335;" width="15.625" x="236.9792" y="135.4167"/><rect fill="#C2F0FF" height="2.0833" style="stroke:#268BD2;stroke-width:2.0833333333333335;" width="4.1667" x="234.8958" y="137.5"/><rect fill="#C2F0FF" height="2.0833" style="stroke:#268BD2;stroke-width:2.0833333333333335;" width="4.1667" x="234.8958" y="141.6667"/><text fill="#000000" font-family="Dejavu Serif" font-size="14.5833" lengthAdjust="spacing" textLength="53.125" x="89.0625" y="164.5782">Second</text><text fill="#000000" font-family="Dejavu Serif" font-size="14.5833" lengthAdjust="spacing" textLength="4.1667" x="142.1875" y="164.5782">&#160;</text><text fill="#000000" font-family="Dejavu Serif" font-size="14.5833" lengthAdjust="spacing" textLength="85.4167" x="146.3542" y="164.5782">Component</text></g><!--entity Example 1--><g id="elem_Example 1"><rect fill="#C2F0FF" height="48.2259" rx="7.8125" ry="7.8125" style="stroke:#268BD2;stroke-width:2.0833333333333335;" width="118.75" x="283.3333" y="130.2083"/><rect fill="#C2F0FF" height="10.4167" style="stroke:#268BD2;stroke-width:2.0833333333333335;" width="15.625" x="381.25" y="135.4167"/><rect fill="#C2F0FF" height="2.0833" style="stroke:#268BD2;stroke-width:2.0833333333333335;" width="4.1667" x="379.1667" y="137.5"/><rect fill="#C2F0FF" height="2.0833" style="stroke:#268BD2;stroke-width:2.0833333333333335;" width="4.1667" x="379.1667" y="141.6667"/><text fill="#000000" font-family="Dejavu Serif" font-size="14.5833" lengthAdjust="spacing" textLength="63.5417" x="298.9583" y="164.5782">Example</text><text fill="#000000" font-family="Dejavu Serif" font-size="14.5833" lengthAdjust="spacing" textLength="4.1667" x="362.5" y="164.5782">&#160;</text><text fill="#000000" font-family="Dejavu Serif" font-size="14.5833" lengthAdjust="spacing" textLength="9.375" x="366.6667" y="164.5782">1</text></g><!--entity Folder 3--><g id="elem_Folder 3"><rect fill="#C2F0FF" height="48.2259" rx="7.8125" ry="7.8125" style="stroke:#268BD2;stroke-width:2.0833333333333335;" width="103.125" x="291.1458" y="266.6667"/><rect fill="#C2F0FF" height="10.4167" style="stroke:#268BD2;stroke-width:2.0833333333333335;" width="15.625" x="373.4375" y="271.875"/><rect fill="#C2F0FF" height="2.0833" style="stroke:#268BD2;stroke-width:2.0833333333333335;" width="4.1667" x="371.3542" y="273.9583"/><rect fill="#C2F0FF" height="2.0833" style="stroke:#268BD2;stroke-width:2.0833333333333335;" width="4.1667" x="371.3542" y="278.125"/><text fill="#000000" font-family="Dejavu Serif" font-size="14.5833" lengthAdjust="spacing" textLength="47.9167" x="306.7708" y="301.0366">Folder</text><text fill="#000000" font-family="Dejavu Serif" font-size="14.5833" lengthAdjust="spacing" textLength="4.1667" x="354.6875" y="301.0366">&#160;</text><text fill="#000000" font-family="Dejavu Serif" font-size="14.5833" lengthAdjust="spacing" textLength="9.375" x="358.8542" y="301.0366">3</text></g><!--entity Frame 4--><g id="elem_Frame 4"><rect fill="#C2F0FF" height="48.2259" rx="7.8125" ry="7.8125" style="stroke:#268BD2;stroke-width:2.0833333333333335;" width="104.1667" x="290.625" y="359.375"/><rect fill="#C2F0FF" height="10.4167" style="stroke:#268BD2;stroke-width:2.0833333333333335;" width="15.625" x="373.9583" y="364.5833"/><rect fill="#C2F0FF" height="2.0833" style="stroke:#268BD2;stroke-width:2.0833333333333335;" width="4.1667" x="371.875" y="366.6667"/><rect fill="#C2F0FF" height="2.0833" style="stroke:#268BD2;stroke-width:2.0833333333333335;" width="4.1667" x="371.875" y="370.8333"/><text fill="#000000" font-family="Dejavu Serif" font-size="14.5833" lengthAdjust="spacing" textLength="48.9583" x="306.25" y="393.7449">Frame</text><text fill="#000000" font-family="Dejavu Serif" font-size="14.5833" lengthAdjust="spacing" textLength="4.1667" x="355.2083" y="393.7449">&#160;</text><text fill="#000000" font-family="Dejavu Serif" font-size="14.5833" lengthAdjust="spacing" textLength="9.375" x="359.375" y="393.7449">4</text></g><path d="M208.1299,56.25 C202.0345,56.25 195.9391,56.25 189.8438,56.25 " fill="none" style="stroke:#657B83;stroke-width:2.0833333333333335;"/><path d="M54.2318,154.1667 C60.6137,154.1667 66.9956,154.1667 73.3775,154.1667 " fill="none" style="stroke:#657B83;stroke-width:2.0833333333333335;"/><polygon fill="#657B83" points="46.8648,141.6119,52.8897,133.3082,47.9478,136.5174,44.7385,131.5755,46.8648,141.6119" style="stroke:#657B83;stroke-width:1.0416666666666667;"/><path d="M77.0068,80.6315 C72.0253,85.5955 67.2661,91.0969 63.5417,96.875 C54.5069,110.8916 50.6979,123.5804 48.1644,135.4985 " fill="none" style="stroke:#657B83;stroke-width:2.0833333333333335;"/><polygon fill="#657B83" points="342.4585,130.1401,346.523,120.7203,342.4019,124.932,338.1902,120.8109,342.4585,130.1401" style="stroke:#657B83;stroke-width:1.0416666666666667;"/><path d="M341.9188,80.4902 C342.0826,95.5576 342.2273,108.8657 342.3906,123.8904 " fill="none" style="stroke:#657B83;stroke-width:2.0833333333333335;"/><polygon fill="#657B83" points="342.7083,266.3352,346.875,256.9602,342.7083,261.1269,338.5417,256.9602,342.7083,266.3352" style="stroke:#657B83;stroke-width:1.0416666666666667;"/><path d="M342.7083,178.3082 C342.7083,202.9209 342.7083,235.4159 342.7083,260.0852 " fill="none" style="stroke:#657B83;stroke-width:2.0833333333333335;"/><polygon fill="#657B83" points="342.7083,359.3463,346.875,349.9713,342.7083,354.138,338.5417,349.9713,342.7083,359.3463" style="stroke:#657B83;stroke-width:1.0416666666666667;"/><path d="M342.7083,315.0049 C342.7083,328.6404 342.7083,339.5288 342.7083,353.0963 " fill="none" style="stroke:#657B83;stroke-width:2.0833333333333335;"/></g></svg>