<?xml version="1.0" encoding="us-ascii" standalone="no"?><svg xmlns="http://www.w3.org/2000/svg" xmlns:xlink="http://www.w3.org/1999/xlink" contentStyleType="text/css" height="580.2083px" preserveAspectRatio="none" style="width:450px;height:580px;" version="1.1" viewBox="0 0 450 580" width="450px" zoomAndPan="magnify"><defs><linearGradient id="g1uufkmqva2igu0" x1="50%" x2="50%" y1="0%" y2="100%"><stop offset="0%" stop-color="#F18E3E"/><stop offset="100%" stop-color="#EC7211"/></linearGradient></defs><g><!--cluster Some Group--><g id="cluster_Some Group"><path d="M18.75,4.1667 L116.6667,4.1667 A6.25,6.25 0 0 1 120.8333,8.3333 L128.125,35.3841 L438.5417,35.3841 A4.1667,4.1667 0 0 1 442.7083,39.5508 L442.7083,100 A4.1667,4.1667 0 0 1 438.5417,104.1667 L18.75,104.1667 A4.1667,4.1667 0 0 1 14.5833,100 L14.5833,8.3333 A4.1667,4.1667 0 0 1 18.75,4.1667 " fill="none" style="stroke:#4E5D6C;stroke-width:2.0833333333333335;"/><line style="stroke:#4E5D6C;stroke-width:2.0833333333333335;" x1="14.5833" x2="128.125" y1="35.3841" y2="35.3841"/><text fill="#4E5D6C" font-family="Verdana" font-size="12.5" font-weight="bold" lengthAdjust="spacing" textLength="89.5833" x="23.9583" y="23.0611">Some Group</text></g><!--cluster Other Groups--><g id="cluster_Other Groups"><polygon fill="none" points="23.9583,145.8333,34.375,135.4167,270.8333,135.4167,270.8333,230.2083,260.4167,240.625,23.9583,240.625,23.9583,145.8333" style="stroke:#4E5D6C;stroke-width:1.0416666666666667;"/><line style="stroke:#4E5D6C;stroke-width:1.0416666666666667;" x1="260.4167" x2="270.8333" y1="145.8333" y2="135.4167"/><line style="stroke:#4E5D6C;stroke-width:1.0416666666666667;" x1="23.9583" x2="260.4167" y1="145.8333" y2="145.8333"/><line style="stroke:#4E5D6C;stroke-width:1.0416666666666667;" x1="260.4167" x2="260.4167" y1="145.8333" y2="240.625"/><text fill="#ABB6C2" font-family="Verdana" font-size="12.5" font-weight="bold" lengthAdjust="spacing" textLength="100" x="93.2292" y="165.7694">Other Groups</text></g><g id="cluster_##12"><path d="M288.7685,163.8475 C292.0161,158.2521 297.2504,156.1447 301.557,162.7361 C304.1388,156.6449 307.5036,156.656 311.9729,160.8188 C316.3822,155.2598 321.4563,155.662 324.8211,161.9515 C326.5183,156.1898 331.1856,154.7647 335.4946,159.224 C338.8324,153.441 342.9945,152.9501 347.1192,158.4103 C351.0906,151.9756 357.2224,154.1459 360.027,159.6697 C364.3762,153.96 367.8953,155.1447 371.2163,160.6918 C374.9006,156.0786 380.0071,155.5767 383.0318,161.4359 C387.2856,156.9861 392.3554,157.8543 394.5048,163.766 C397.8728,157.1159 403.9318,158.4857 407.0196,164.0529 C412.9856,166.4007 412.9767,171.0555 407.9803,174.4193 C414.4249,177.1718 414.9984,182.5028 410.3073,187.2715 C416.4445,189.1183 417.4899,193.6798 413.1434,198.2379 C417.9938,203.1475 418.9187,207.1172 411.9733,210.9402 C415.889,215.5755 416.5167,219.2416 409.9435,221.9417 C413.9029,226.3118 413.3115,232.313 406.4964,233.4581 C404.9696,239.8259 400.0016,240.5651 395.6852,236.2926 C392.2585,242.9961 386.9634,243.0149 382.6162,237.258 C380.3207,243.7915 375.6673,244.5929 370.6507,240.2521 C368.4023,246.0784 362.9393,246.8237 359.0768,242.0076 C356.89,247.4757 352.4954,248.1616 348.7723,243.5833 C344.1716,249.0887 338.7884,246.6756 336.8163,240.8176 C331.6181,246.5467 326.8374,246.2786 323.618,238.8351 C319.5131,243.2416 314.3846,242.6897 312.1584,236.7536 C307.4968,241.6307 302.9249,240.361 300.5228,234.341 C296.9099,239.3402 290.9512,239.8237 287.8297,233.7763 C281.524,230.3842 281.26,226.0348 286.988,221.7972 C281.6965,218.0711 280.5388,213.0336 286.8161,209.1502 C280.6541,207.3599 280.1615,203.9866 284.2125,199.4539 C278.4745,194.7028 281.0045,189.4626 286.761,187.0786 C280.943,183.4924 281.5857,178.6468 287.4872,175.8163 C281.6916,171.7941 283.4705,166.682 288.7685,163.8475 " fill="none" style="stroke:#4E5D6C;stroke-width:1.0416666666666667;"/></g><!--cluster MySql--><g id="cluster_MySql"><path d="M265.625,282.2917 C265.625,271.875 347.3958,271.875 347.3958,271.875 C347.3958,271.875 429.1667,271.875 429.1667,282.2917 L429.1667,552.0833 C429.1667,562.5 347.3958,562.5 347.3958,562.5 C347.3958,562.5 265.625,562.5 265.625,552.0833 L265.625,282.2917 " fill="none" style="stroke:#4E5D6C;stroke-width:1.0416666666666667;"/><path d="M265.625,282.2917 C265.625,292.7083 347.3958,292.7083 347.3958,292.7083 C347.3958,292.7083 429.1667,292.7083 429.1667,282.2917 " fill="none" style="stroke:#4E5D6C;stroke-width:1.0416666666666667;"/><text fill="#4E5D6C" font-family="Verdana" font-size="12.5" font-weight="bold" lengthAdjust="spacing" textLength="43.75" x="325.5208" y="311.6028">MySql</text></g><!--cluster This is my folder--><g id="cluster_This is my folder"><path d="M278.125,322.9167 L406.25,322.9167 A6.25,6.25 0 0 1 410.4167,327.0833 L417.7083,354.1341 L416.6667,354.1341 A4.1667,4.1667 0 0 1 420.8333,358.3008 L420.8333,418.75 A4.1667,4.1667 0 0 1 416.6667,422.9167 L278.125,422.9167 A4.1667,4.1667 0 0 1 273.9583,418.75 L273.9583,327.0833 A4.1667,4.1667 0 0 1 278.125,322.9167 " fill="#EEEEEE" style="stroke:#EC7211;stroke-width:2.0833333333333335;"/><line style="stroke:#EC7211;stroke-width:2.0833333333333335;" x1="273.9583" x2="417.7083" y1="354.1341" y2="354.1341"/><text fill="#EC7211" font-family="Verdana" font-size="12.5" font-weight="bold" lengthAdjust="spacing" textLength="119.7917" x="283.3333" y="341.8111">This is my folder</text></g><!--cluster Foo--><g id="cluster_Foo"><rect fill="#EEEEEE" height="100" rx="4.1667" ry="4.1667" style="stroke:#0073BB;stroke-width:2.0833333333333335;" width="122.9167" x="285.4167" y="454.1667"/><path d="M333.3333,454.1667 L333.3333,471.8424 L322.9167,482.2591 L285.4167,482.2591 " fill="none" style="stroke:#0073BB;stroke-width:2.0833333333333335;"/><text fill="#0073BB" font-family="Verdana" font-size="12.5" font-weight="bold" lengthAdjust="spacing" textLength="27.0833" x="293.75" y="472.0194">Foo</text></g><!--entity HTTP--><g id="elem_HTTP"><ellipse cx="222.9167" cy="64.5833" fill="#A7280E" rx="8.3333" ry="8.3333" style="stroke:#D13212;stroke-width:1.0416666666666667;"/><text fill="#4E5D6C" font-family="Verdana" font-size="12.5" lengthAdjust="spacing" textLength="32.2917" x="206.7708" y="99.1028">HTTP</text></g><!--entity First Component--><g id="elem_First Component"><rect fill="url(#g1uufkmqva2igu0)" height="56.2174" rx="4.1667" ry="4.1667" style="stroke:#EC7211;stroke-width:1.0416666666666667;" width="159.375" x="23.4375" y="39.5833"/><rect fill="url(#g1uufkmqva2igu0)" height="10.4167" style="stroke:#EC7211;stroke-width:1.0416666666666667;" width="15.625" x="161.9792" y="44.7917"/><rect fill="url(#g1uufkmqva2igu0)" height="2.0833" style="stroke:#EC7211;stroke-width:1.0416666666666667;" width="4.1667" x="159.8958" y="46.875"/><rect fill="url(#g1uufkmqva2igu0)" height="2.0833" style="stroke:#EC7211;stroke-width:1.0416666666666667;" width="4.1667" x="159.8958" y="51.0417"/><text fill="#FFFFFF" font-family="Verdana" font-size="12.5" lengthAdjust="spacing" textLength="107.2917" x="44.2708" y="77.2278">First Component</text></g><!--entity Another Component--><g id="elem_Another Component"><rect fill="url(#g1uufkmqva2igu0)" height="56.2174" rx="4.1667" ry="4.1667" style="stroke:#EC7211;stroke-width:1.0416666666666667;" width="183.3333" x="251.0417" y="39.5833"/><rect fill="url(#g1uufkmqva2igu0)" height="10.4167" style="stroke:#EC7211;stroke-width:1.0416666666666667;" width="15.625" x="413.5417" y="44.7917"/><rect fill="url(#g1uufkmqva2igu0)" height="2.0833" style="stroke:#EC7211;stroke-width:1.0416666666666667;" width="4.1667" x="411.4583" y="46.875"/><rect fill="url(#g1uufkmqva2igu0)" height="2.0833" style="stroke:#EC7211;stroke-width:1.0416666666666667;" width="4.1667" x="411.4583" y="51.0417"/><text fill="#FFFFFF" font-family="Verdana" font-size="12.5" lengthAdjust="spacing" textLength="131.25" x="271.875" y="77.2278">Another Component</text></g><!--entity FTP--><g id="elem_FTP"><ellipse cx="41.6667" cy="201.0417" fill="#A7280E" rx="8.3333" ry="8.3333" style="stroke:#D13212;stroke-width:1.0416666666666667;"/><text fill="#4E5D6C" font-family="Verdana" font-size="12.5" lengthAdjust="spacing" textLength="22.9167" x="30.2083" y="235.5611">FTP</text></g><!--entity Second Component--><g id="elem_Second Component"><rect fill="url(#g1uufkmqva2igu0)" height="56.2174" rx="4.1667" ry="4.1667" style="stroke:#EC7211;stroke-width:1.0416666666666667;" width="180.2083" x="81.7708" y="176.0417"/><rect fill="url(#g1uufkmqva2igu0)" height="10.4167" style="stroke:#EC7211;stroke-width:1.0416666666666667;" width="15.625" x="241.1458" y="181.25"/><rect fill="url(#g1uufkmqva2igu0)" height="2.0833" style="stroke:#EC7211;stroke-width:1.0416666666666667;" width="4.1667" x="239.0625" y="183.3333"/><rect fill="url(#g1uufkmqva2igu0)" height="2.0833" style="stroke:#EC7211;stroke-width:1.0416666666666667;" width="4.1667" x="239.0625" y="187.5"/><text fill="#FFFFFF" font-family="Verdana" font-size="12.5" lengthAdjust="spacing" textLength="128.125" x="102.6042" y="213.6861">Second Component</text></g><!--entity Example 1--><g id="elem_Example 1"><rect fill="url(#g1uufkmqva2igu0)" height="56.2174" rx="4.1667" ry="4.1667" style="stroke:#EC7211;stroke-width:1.0416666666666667;" width="118.75" x="287.5" y="176.0417"/><rect fill="url(#g1uufkmqva2igu0)" height="10.4167" style="stroke:#EC7211;stroke-width:1.0416666666666667;" width="15.625" x="385.4167" y="181.25"/><rect fill="url(#g1uufkmqva2igu0)" height="2.0833" style="stroke:#EC7211;stroke-width:1.0416666666666667;" width="4.1667" x="383.3333" y="183.3333"/><rect fill="url(#g1uufkmqva2igu0)" height="2.0833" style="stroke:#EC7211;stroke-width:1.0416666666666667;" width="4.1667" x="383.3333" y="187.5"/><text fill="#FFFFFF" font-family="Verdana" font-size="12.5" lengthAdjust="spacing" textLength="66.6667" x="308.3333" y="213.6861">Example 1</text></g><!--entity Folder 3--><g id="elem_Folder 3"><rect fill="url(#g1uufkmqva2igu0)" height="56.2174" rx="4.1667" ry="4.1667" style="stroke:#EC7211;stroke-width:1.0416666666666667;" width="105.2083" x="294.2708" y="358.3333"/><rect fill="url(#g1uufkmqva2igu0)" height="10.4167" style="stroke:#EC7211;stroke-width:1.0416666666666667;" width="15.625" x="378.6458" y="363.5417"/><rect fill="url(#g1uufkmqva2igu0)" height="2.0833" style="stroke:#EC7211;stroke-width:1.0416666666666667;" width="4.1667" x="376.5625" y="365.625"/><rect fill="url(#g1uufkmqva2igu0)" height="2.0833" style="stroke:#EC7211;stroke-width:1.0416666666666667;" width="4.1667" x="376.5625" y="369.7917"/><text fill="#FFFFFF" font-family="Verdana" font-size="12.5" lengthAdjust="spacing" textLength="53.125" x="315.1042" y="395.9778">Folder 3</text></g><!--entity Frame 4--><g id="elem_Frame 4"><rect fill="url(#g1uufkmqva2igu0)" height="56.2174" rx="4.1667" ry="4.1667" style="stroke:#EC7211;stroke-width:1.0416666666666667;" width="105.2083" x="294.2708" y="489.5833"/><rect fill="url(#g1uufkmqva2igu0)" height="10.4167" style="stroke:#EC7211;stroke-width:1.0416666666666667;" width="15.625" x="378.6458" y="494.7917"/><rect fill="url(#g1uufkmqva2igu0)" height="2.0833" style="stroke:#EC7211;stroke-width:1.0416666666666667;" width="4.1667" x="376.5625" y="496.875"/><rect fill="url(#g1uufkmqva2igu0)" height="2.0833" style="stroke:#EC7211;stroke-width:1.0416666666666667;" width="4.1667" x="376.5625" y="501.0417"/><text fill="#FFFFFF" font-family="Verdana" font-size="12.5" lengthAdjust="spacing" textLength="53.125" x="315.1042" y="527.2278">Frame 4</text></g><path d="M213.4824,67.7083 C206.1562,67.7083 195.2164,67.7083 183.0278,67.7083 " fill="none" style="stroke:#EC7211;stroke-width:3.125;"/><path d="M51.4535,204.1667 C58.7281,204.1667 69.4573,204.1667 81.5615,204.1667 " fill="none" style="stroke:#EC7211;stroke-width:3.125;"/><path d="M90.2382,95.9427 C84.5558,108.0097 77.83,122.3975 71.875,135.4167 C62.8801,155.0818 52.6814,178.096 46.7326,191.5945 " fill="none" style="stroke:#EC7211;stroke-width:3.125;"/><polygon fill="#EC7211" points="46.7326,191.5945,54.3261,184.6959,48.833,186.8285,46.7005,181.3353,46.7326,191.5945" style="stroke:#EC7211;stroke-width:1.0416666666666667;"/><path d="M343.5515,95.9428 C344.2744,119.2562 345.3105,152.6709 346.0331,175.9727 " fill="none" style="stroke:#EC7211;stroke-width:3.125;"/><polygon fill="#EC7211" points="346.0331,175.9727,349.9072,166.473,345.8716,170.7668,341.5778,166.7313,346.0331,175.9727" style="stroke:#EC7211;stroke-width:1.0416666666666667;"/><path d="M346.875,232.5781 C346.875,266.5476 346.875,324.1334 346.875,358.0852 " fill="none" style="stroke:#EC7211;stroke-width:3.125;"/><polygon fill="#EC7211" points="346.875,358.0852,351.0417,348.7102,346.875,352.8768,342.7083,348.7102,346.875,358.0852" style="stroke:#EC7211;stroke-width:1.0416666666666667;"/><path d="M346.875,414.8929 C346.875,436.8129 346.875,467.4036 346.875,489.3132 " fill="none" style="stroke:#EC7211;stroke-width:3.125;"/><polygon fill="#EC7211" points="346.875,489.3132,351.0417,479.9382,346.875,484.1049,342.7083,479.9382,346.875,489.3132" style="stroke:#EC7211;stroke-width:1.0416666666666667;"/></g></svg>