<?xml version="1.0" encoding="us-ascii" standalone="no"?><svg xmlns="http://www.w3.org/2000/svg" xmlns:xlink="http://www.w3.org/1999/xlink" contentStyleType="text/css" height="670.8333px" preserveAspectRatio="none" style="width:484px;height:670px;" version="1.1" viewBox="0 0 484 670" width="484.375px" zoomAndPan="magnify"><defs><linearGradient id="gpmih8f6y7xug0" x1="50%" x2="50%" y1="0%" y2="100%"><stop offset="0%" stop-color="#EEEEEE"/><stop offset="100%" stop-color="#BEBEBE"/></linearGradient></defs><g><!--cluster Some Group--><g id="cluster_Some Group"><path d="M32.8125,14.5833 L129.6875,14.5833 A11.7188,11.7188 0 0 1 137.5,22.3958 L144.7917,52.0508 L464.0625,52.0508 A7.8125,7.8125 0 0 1 471.875,59.8633 L471.875,119.2708 A7.8125,7.8125 0 0 1 464.0625,127.0833 L32.8125,127.0833 A7.8125,7.8125 0 0 1 25,119.2708 L25,22.3958 A7.8125,7.8125 0 0 1 32.8125,14.5833 " fill="url(#gpmih8f6y7xug0)" style="stroke:#F1F1F1;stroke-width:2.0833333333333335;"/><line style="stroke:#F1F1F1;stroke-width:2.0833333333333335;" x1="25" x2="144.7917" y1="52.0508" y2="52.0508"/><text fill="#336699" font-family="Verdana" font-size="12.5" font-weight="bold" lengthAdjust="spacing" textLength="89.5833" x="37.5" y="36.6028">Some Group</text></g><!--cluster Other Groups--><g id="cluster_Other Groups"><polygon fill="url(#gpmih8f6y7xug0)" points="34.375,175,44.7917,164.5833,293.75,164.5833,293.75,271.875,283.3333,282.2917,34.375,282.2917,34.375,175" style="stroke:#F1F1F1;stroke-width:1.0416666666666667;"/><line style="stroke:#F1F1F1;stroke-width:1.0416666666666667;" x1="283.3333" x2="293.75" y1="175" y2="164.5833"/><line style="stroke:#F1F1F1;stroke-width:1.0416666666666667;" x1="34.375" x2="283.3333" y1="175" y2="175"/><line style="stroke:#F1F1F1;stroke-width:1.0416666666666667;" x1="283.3333" x2="283.3333" y1="175" y2="282.2917"/><text fill="#336699" font-family="Verdana" font-size="12.5" font-weight="bold" lengthAdjust="spacing" textLength="100" x="109.8958" y="198.0611">Other Groups</text></g><g id="cluster_##12"><path d="M310.9497,193.207 C314.2657,185.7747 320.7581,185.1642 324.9329,192.3876 C327.1285,184.5576 331.6844,184.923 337.1638,189.02 C341.1092,183.7087 345.4722,183.2855 349.2079,189.2441 C352.1307,181.8829 356.2846,181.4368 361.5824,186.9638 C365.2145,180.8811 370.1721,179.8848 374.9216,185.7123 C380.114,180.7891 384.1791,180.9869 387.4318,187.783 C391.525,181.9684 395.9385,182.0282 399.5333,188.2827 C402.8368,183.2034 408.262,183.0632 411.1541,188.7275 C416.1085,183.1361 421.8774,184.9336 423.9476,191.7108 C428.6223,185.4113 432.9426,186.0444 436.8715,192.4684 C444.1111,195.3079 445.8466,201.6016 439.8606,207.1362 C446.4887,210.6342 447.6349,214.5304 442.3684,220.2953 C450.2752,223.4777 451.1556,228.1822 444.7697,233.8893 C450.1656,239.9054 449.076,244.5759 441.6675,247.7199 C448.8599,253.5747 447.1325,257.8629 440.1744,262.2651 C446.2769,267.2746 445.597,273.4466 437.678,275.8863 C432.716,283.0366 426.8248,282.3678 423.0657,274.7001 C419.6996,280.0794 415.2306,280.1546 411.835,274.7308 C409.4049,282.1393 402.9773,283.5097 398.1149,277.1556 C394.0894,283.112 388.8468,281.7046 385.781,276.1291 C382.1995,282.7098 377.2929,281.8143 372.9931,276.9303 C369.8793,282.9895 365.2867,282.5247 361.7987,277.3017 C356.9676,283.1389 352.5623,282.8885 348.3835,276.5812 C344.5859,282.955 338.4118,282.113 335.7584,275.4712 C331.8992,280.1054 326.7175,279.7005 323.6849,274.4604 C319.843,280.3677 315.522,281.9026 310.4615,275.8024 C303.357,272.4047 303.707,266.1704 309.2652,261.6987 C301.7921,258.0319 300.2912,252.3739 307.616,247.042 C301.2254,244.6964 298.274,239.682 304.1608,234.0671 C299.0782,228.8987 298.3559,224.3367 305.9044,220.8324 C299.6242,214.9964 302.1601,209.2727 309.6237,207.1813 C303.7938,202.5578 304.1671,196.6337 310.9497,193.207 " fill="url(#gpmih8f6y7xug0)" style="stroke:#F1F1F1;stroke-width:1.0416666666666667;"/></g><!--cluster MySql--><g id="cluster_MySql"><path d="M288.5417,330.2083 C288.5417,319.7917 373.4375,319.7917 373.4375,319.7917 C373.4375,319.7917 458.3333,319.7917 458.3333,330.2083 L458.3333,637.5 C458.3333,647.9167 373.4375,647.9167 373.4375,647.9167 C373.4375,647.9167 288.5417,647.9167 288.5417,637.5 L288.5417,330.2083 " fill="url(#gpmih8f6y7xug0)" style="stroke:#F1F1F1;stroke-width:1.0416666666666667;"/><path d="M288.5417,330.2083 C288.5417,340.625 373.4375,340.625 373.4375,340.625 C373.4375,340.625 458.3333,340.625 458.3333,330.2083 " fill="none" style="stroke:#F1F1F1;stroke-width:1.0416666666666667;"/><text fill="#303030" font-family="Verdana" font-size="12.5" font-weight="bold" lengthAdjust="spacing" textLength="43.75" x="351.5625" y="362.6444">MySql</text></g><!--cluster This is my folder--><g id="cluster_This is my folder"><path d="M304.6875,377.0833 L431.7708,377.0833 A11.7188,11.7188 0 0 1 439.5833,384.8958 L446.875,414.5508 L442.1875,414.5508 A7.8125,7.8125 0 0 1 450,422.3633 L450,481.7708 A7.8125,7.8125 0 0 1 442.1875,489.5833 L304.6875,489.5833 A7.8125,7.8125 0 0 1 296.875,481.7708 L296.875,384.8958 A7.8125,7.8125 0 0 1 304.6875,377.0833 " fill="url(#gpmih8f6y7xug0)" style="stroke:#FFAE42;stroke-width:2.0833333333333335;"/><line style="stroke:#FFAE42;stroke-width:2.0833333333333335;" x1="296.875" x2="446.875" y1="414.5508" y2="414.5508"/><text fill="#FFAE42" font-family="Verdana" font-size="12.5" font-weight="bold" lengthAdjust="spacing" textLength="119.7917" x="309.375" y="399.1028">This is my folder</text></g><!--cluster Foo--><g id="cluster_Foo"><rect fill="url(#gpmih8f6y7xug0)" height="112.5" rx="7.8125" ry="7.8125" style="stroke:#336699;stroke-width:2.0833333333333335;" width="129.1667" x="308.3333" y="527.0833"/><path d="M362.5,527.0833 L362.5,551.0091 L352.0833,561.4258 L308.3333,561.4258 " fill="none" style="stroke:#336699;stroke-width:2.0833333333333335;"/><text fill="#336699" font-family="Verdana" font-size="12.5" font-weight="bold" lengthAdjust="spacing" textLength="27.0833" x="319.7917" y="548.0611">Foo</text></g><!--entity HTTP--><g id="elem_HTTP"><ellipse cx="245.8333" cy="84.375" fill="#FF5C5C" rx="8.3333" ry="8.3333" style="stroke:#FF3333;stroke-width:1.0416666666666667;"/><text fill="#303030" font-family="Verdana" font-size="12.5" lengthAdjust="spacing" textLength="32.2917" x="229.6875" y="122.0194">HTTP</text></g><!--entity First Component--><g id="elem_First Component"><rect fill="url(#gpmih8f6y7xug0)" height="62.4674" rx="4.1667" ry="4.1667" style="stroke:#F1F1F1;stroke-width:1.0416666666666667;" width="165.625" x="33.8542" y="56.25"/><rect fill="url(#gpmih8f6y7xug0)" height="10.4167" style="stroke:#F1F1F1;stroke-width:1.0416666666666667;" width="15.625" x="178.6458" y="61.4583"/><rect fill="url(#gpmih8f6y7xug0)" height="2.0833" style="stroke:#F1F1F1;stroke-width:1.0416666666666667;" width="4.1667" x="176.5625" y="63.5417"/><rect fill="url(#gpmih8f6y7xug0)" height="2.0833" style="stroke:#F1F1F1;stroke-width:1.0416666666666667;" width="4.1667" x="176.5625" y="67.7083"/><text fill="#336699" font-family="Verdana" font-size="12.5" lengthAdjust="spacing" textLength="107.2917" x="57.8125" y="97.0194">First Component</text></g><!--entity Another Component--><g id="elem_Another Component"><rect fill="url(#gpmih8f6y7xug0)" height="62.4674" rx="4.1667" ry="4.1667" style="stroke:#F1F1F1;stroke-width:1.0416666666666667;" width="189.5833" x="273.9583" y="56.25"/><rect fill="url(#gpmih8f6y7xug0)" height="10.4167" style="stroke:#F1F1F1;stroke-width:1.0416666666666667;" width="15.625" x="442.7083" y="61.4583"/><rect fill="url(#gpmih8f6y7xug0)" height="2.0833" style="stroke:#F1F1F1;stroke-width:1.0416666666666667;" width="4.1667" x="440.625" y="63.5417"/><rect fill="url(#gpmih8f6y7xug0)" height="2.0833" style="stroke:#F1F1F1;stroke-width:1.0416666666666667;" width="4.1667" x="440.625" y="67.7083"/><text fill="#336699" font-family="Verdana" font-size="12.5" lengthAdjust="spacing" textLength="131.25" x="297.9167" y="97.0194">Another Component</text></g><!--entity FTP--><g id="elem_FTP"><ellipse cx="52.0833" cy="239.5833" fill="#FF5C5C" rx="8.3333" ry="8.3333" style="stroke:#FF3333;stroke-width:1.0416666666666667;"/><text fill="#303030" font-family="Verdana" font-size="12.5" lengthAdjust="spacing" textLength="22.9167" x="40.625" y="277.2278">FTP</text></g><!--entity Second Component--><g id="elem_Second Component"><rect fill="url(#gpmih8f6y7xug0)" height="62.4674" rx="4.1667" ry="4.1667" style="stroke:#F1F1F1;stroke-width:1.0416666666666667;" width="186.4583" x="98.4375" y="211.4583"/><rect fill="url(#gpmih8f6y7xug0)" height="10.4167" style="stroke:#F1F1F1;stroke-width:1.0416666666666667;" width="15.625" x="264.0625" y="216.6667"/><rect fill="url(#gpmih8f6y7xug0)" height="2.0833" style="stroke:#F1F1F1;stroke-width:1.0416666666666667;" width="4.1667" x="261.9792" y="218.75"/><rect fill="url(#gpmih8f6y7xug0)" height="2.0833" style="stroke:#F1F1F1;stroke-width:1.0416666666666667;" width="4.1667" x="261.9792" y="222.9167"/><text fill="#336699" font-family="Verdana" font-size="12.5" lengthAdjust="spacing" textLength="128.125" x="122.3958" y="252.2278">Second Component</text></g><!--entity Example 1--><g id="elem_Example 1"><rect fill="url(#gpmih8f6y7xug0)" height="62.4674" rx="4.1667" ry="4.1667" style="stroke:#F1F1F1;stroke-width:1.0416666666666667;" width="125" x="310.4167" y="211.4583"/><rect fill="url(#gpmih8f6y7xug0)" height="10.4167" style="stroke:#F1F1F1;stroke-width:1.0416666666666667;" width="15.625" x="414.5833" y="216.6667"/><rect fill="url(#gpmih8f6y7xug0)" height="2.0833" style="stroke:#F1F1F1;stroke-width:1.0416666666666667;" width="4.1667" x="412.5" y="218.75"/><rect fill="url(#gpmih8f6y7xug0)" height="2.0833" style="stroke:#F1F1F1;stroke-width:1.0416666666666667;" width="4.1667" x="412.5" y="222.9167"/><text fill="#336699" font-family="Verdana" font-size="12.5" lengthAdjust="spacing" textLength="66.6667" x="334.375" y="252.2278">Example 1</text></g><!--entity Folder 3--><g id="elem_Folder 3"><rect fill="url(#gpmih8f6y7xug0)" height="62.4674" rx="4.1667" ry="4.1667" style="stroke:#F1F1F1;stroke-width:1.0416666666666667;" width="111.4583" x="317.1875" y="418.75"/><rect fill="url(#gpmih8f6y7xug0)" height="10.4167" style="stroke:#F1F1F1;stroke-width:1.0416666666666667;" width="15.625" x="407.8125" y="423.9583"/><rect fill="url(#gpmih8f6y7xug0)" height="2.0833" style="stroke:#F1F1F1;stroke-width:1.0416666666666667;" width="4.1667" x="405.7292" y="426.0417"/><rect fill="url(#gpmih8f6y7xug0)" height="2.0833" style="stroke:#F1F1F1;stroke-width:1.0416666666666667;" width="4.1667" x="405.7292" y="430.2083"/><text fill="#336699" font-family="Verdana" font-size="12.5" lengthAdjust="spacing" textLength="53.125" x="341.1458" y="459.5194">Folder 3</text></g><!--entity Frame 4--><g id="elem_Frame 4"><rect fill="url(#gpmih8f6y7xug0)" height="62.4674" rx="4.1667" ry="4.1667" style="stroke:#F1F1F1;stroke-width:1.0416666666666667;" width="111.4583" x="317.1875" y="568.75"/><rect fill="url(#gpmih8f6y7xug0)" height="10.4167" style="stroke:#F1F1F1;stroke-width:1.0416666666666667;" width="15.625" x="407.8125" y="573.9583"/><rect fill="url(#gpmih8f6y7xug0)" height="2.0833" style="stroke:#F1F1F1;stroke-width:1.0416666666666667;" width="4.1667" x="405.7292" y="576.0417"/><rect fill="url(#gpmih8f6y7xug0)" height="2.0833" style="stroke:#F1F1F1;stroke-width:1.0416666666666667;" width="4.1667" x="405.7292" y="580.2083"/><text fill="#336699" font-family="Verdana" font-size="12.5" lengthAdjust="spacing" textLength="53.125" x="341.1458" y="609.5194">Frame 4</text></g><path d="M236.1859,87.5 C227.6562,87.5 214.3048,87.5 199.566,87.5 " fill="none" style="stroke:#EEEEEE;stroke-width:3.125;"/><path d="M61.6775,242.7083 C70.1158,242.7083 83.3452,242.7083 98.1977,242.7083 " fill="none" style="stroke:#EEEEEE;stroke-width:3.125;"/><path d="M103.9071,118.7942 C89.5703,152.7862 67.0058,206.286 57.0664,229.852 " fill="none" style="stroke:#EEEEEE;stroke-width:3.125;"/><polygon fill="#EEEEEE" points="57.0664,229.852,64.5488,222.8331,59.0904,225.0531,56.8705,219.5947,57.0664,229.852" style="stroke:#EEEEEE;stroke-width:1.0416666666666667;"/><path d="M369.5732,118.7942 C370.3013,145.552 371.3583,184.3978 372.0881,211.2153 " fill="none" style="stroke:#EEEEEE;stroke-width:3.125;"/><polygon fill="#EEEEEE" points="372.0881,211.2153,375.9982,201.7304,371.9464,206.0089,367.6679,201.9571,372.0881,211.2153" style="stroke:#EEEEEE;stroke-width:1.0416666666666667;"/><path d="M372.9167,274.0292 C372.9167,312.8272 372.9167,379.6971 372.9167,418.5549 " fill="none" style="stroke:#EEEEEE;stroke-width:3.125;"/><polygon fill="#EEEEEE" points="372.9167,418.5549,377.0833,409.1799,372.9167,413.3466,368.75,409.1799,372.9167,418.5549" style="stroke:#EEEEEE;stroke-width:1.0416666666666667;"/><path d="M372.9167,481.3317 C372.9167,506.8572 372.9167,543.1947 372.9167,568.7088 " fill="none" style="stroke:#EEEEEE;stroke-width:3.125;"/><polygon fill="#EEEEEE" points="372.9167,568.7088,377.0833,559.3338,372.9167,563.5004,368.75,559.3338,372.9167,568.7088" style="stroke:#EEEEEE;stroke-width:1.0416666666666667;"/></g></svg>