<svg xmlns="http://www.w3.org/2000/svg" xmlns:xlink="http://www.w3.org/1999/xlink" contentStyleType="text/css" height="429px" preserveAspectRatio="none" style="width:460px;height:429px;background:#FFFFFF;" version="1.1" viewBox="0 0 460 429" width="460px" zoomAndPan="magnify"><defs/><g><!--cluster Some Group--><g id="cluster_Some Group"><path d="M21.5,9 L120.5,9 A3.75,3.75 0 0 1 123,11.5 L130,31.2969 L424.5,31.2969 A2.5,2.5 0 0 1 427,33.7969 L427,87.5 A2.5,2.5 0 0 1 424.5,90 L21.5,90 A2.5,2.5 0 0 1 19,87.5 L19,11.5 A2.5,2.5 0 0 1 21.5,9 " fill="#FFFFFF" style="stroke:#000000;stroke-width:1.0;"/><line style="stroke:#000000;stroke-width:1.0;" x1="19" x2="130" y1="31.2969" y2="31.2969"/><text fill="#000000" font-family="Verdana" font-size="14" font-weight="bold" lengthAdjust="spacing" textLength="98" x="23" y="23.9951">Some Group</text></g><!--cluster Other Groups--><g id="cluster_Other Groups"><polygon fill="#FFFFFF" points="56,108,66,98,288,98,288,174,278,184,56,184,56,108" style="stroke:#000000;stroke-width:1.0;"/><line style="stroke:#000000;stroke-width:1.0;" x1="278" x2="288" y1="108" y2="98"/><line style="stroke:#000000;stroke-width:1.0;" x1="56" x2="278" y1="108" y2="108"/><line style="stroke:#000000;stroke-width:1.0;" x1="278" x2="278" y1="108" y2="184"/><text fill="#000000" font-family="Verdana" font-size="14" font-weight="bold" lengthAdjust="spacing" textLength="108" x="114" y="123.9951">Other Groups</text></g><g id="cluster_##12"><path d="M305.9839,132.1034 C308.9604,127.1828 312.0913,126.7106 315.5458,131.6394 C318.5049,125.9516 322.0817,125.864 326.6717,129.7426 C330.6265,124.7677 334.5181,124.844 337.8571,130.3968 C340.6221,124.0719 345.155,123.8041 349.3526,128.9626 C353.3202,122.9568 356.9955,122.4964 361.4077,128.517 C365.5144,122.8924 369.7764,124.1442 373.1161,129.3465 C376.0114,125.2306 380.4334,124.709 382.7282,129.9626 C386.2946,124.8147 391.5945,123.8353 394.845,130.2924 C398.4274,124.86 402.0737,125.1836 405.6876,130.2599 C409.264,125.0523 414.0185,125.89 416.2638,131.5548 C422.2299,133.6015 422.9852,138.1925 418.3492,142.2973 C424.3324,145.3243 423.8739,150.2026 419.1109,153.933 C423.7744,157.1863 424.8978,161.8459 419.1722,165.1559 C424.3913,169.4865 423.3366,172.808 418.1037,176.1201 C416.0521,182.3472 410.5654,183.9142 406.4513,178.119 C403.3165,183.8269 399.9138,184.2364 395.7001,179.1984 C392.4295,186.7863 388.4566,186.5252 383.0534,181.3039 C380.9901,186.1982 376.4029,186.3973 373.321,182.4215 C370.2094,188.2101 364.989,188.2517 360.9222,183.5506 C356.8815,188.337 353.0064,186.7843 350.7145,181.7354 C346.7053,188.3398 342.1407,188.6815 337.6277,182.2408 C334.3354,185.9583 329.6444,185.9853 327.4917,180.9248 C322.5587,185.5138 317.8552,184.2094 316.1061,177.6679 C313.1286,182.4159 307.9379,182.7783 305.493,177.1245 C299.9218,175.6878 297.3637,170.8628 302.3137,166.3279 C295.3186,163.864 295.0619,158.281 300.2103,153.7814 C296.3881,149.9912 297.5348,144.7852 302.82,143.2524 C298.7795,138.675 300.306,133.9229 305.9839,132.1034 " fill="#FFFFFF" style="stroke:#000000;stroke-width:1.0;"/></g><!--cluster MySql--><g id="cluster_MySql"><path d="M280,202 C280,192 361.5,192 361.5,192 C361.5,192 443,192 443,202 L443,402 C443,412 361.5,412 361.5,412 C361.5,412 280,412 280,402 L280,202 " fill="#FFFFFF" style="stroke:#000000;stroke-width:1.0;"/><path d="M280,202 C280,212 361.5,212 361.5,212 C361.5,212 443,212 443,202 " fill="none" style="stroke:#000000;stroke-width:1.0;"/><text fill="#000000" font-family="Verdana" font-size="14" font-weight="bold" lengthAdjust="spacing" textLength="46" x="338.5" y="226.9951">MySql</text></g><!--cluster This is my folder--><g id="cluster_This is my folder"><path d="M290.5,234 L422.5,234 A3.75,3.75 0 0 1 425,236.5 L432,256.2969 L432.5,256.2969 A2.5,2.5 0 0 1 435,258.7969 L435,312.5 A2.5,2.5 0 0 1 432.5,315 L290.5,315 A2.5,2.5 0 0 1 288,312.5 L288,236.5 A2.5,2.5 0 0 1 290.5,234 " fill="#FFFFFF" style="stroke:#000000;stroke-width:1.0;"/><line style="stroke:#000000;stroke-width:1.0;" x1="288" x2="432" y1="256.2969" y2="256.2969"/><text fill="#000000" font-family="Verdana" font-size="14" font-weight="bold" lengthAdjust="spacing" textLength="131" x="292" y="248.9951">This is my folder</text></g><!--cluster Foo--><g id="cluster_Foo"><rect fill="#FFFFFF" height="81" rx="2.5" ry="2.5" style="stroke:#000000;stroke-width:1.0;" width="112" x="304" y="323"/><path d="M343,323 L343,332.2969 L333,342.2969 L304,342.2969 " fill="none" style="stroke:#000000;stroke-width:1.0;"/><text fill="#000000" font-family="Verdana" font-size="14" font-weight="bold" lengthAdjust="spacing" textLength="29" x="307" y="336.9951">Foo</text></g><!--entity HTTP--><g id="elem_HTTP"><ellipse cx="210" cy="56" fill="#FFFFFF" rx="8" ry="8" style="stroke:#000000;stroke-width:1.0;"/><text fill="#000000" font-family="Verdana" font-size="14" lengthAdjust="spacing" textLength="37" x="191.5" y="85.9951">HTTP</text></g><!--entity First Component--><g id="elem_First Component"><rect fill="#FFFFFF" height="46.2969" rx="2.5" ry="2.5" style="stroke:#000000;stroke-width:1.0;" width="155" x="27.5" y="36"/><rect fill="#FFFFFF" height="10" style="stroke:#000000;stroke-width:1.0;" width="15" x="162.5" y="41"/><rect fill="#FFFFFF" height="2" style="stroke:#000000;stroke-width:1.0;" width="4" x="160.5" y="43"/><rect fill="#FFFFFF" height="2" style="stroke:#000000;stroke-width:1.0;" width="4" x="160.5" y="47"/><text fill="#000000" font-family="Verdana" font-size="14" lengthAdjust="spacing" textLength="115" x="42.5" y="68.9951">First Component</text></g><!--entity Another Component--><g id="elem_Another Component"><rect fill="#FFFFFF" height="46.2969" rx="2.5" ry="2.5" style="stroke:#000000;stroke-width:1.0;" width="181" x="237.5" y="36"/><rect fill="#FFFFFF" height="10" style="stroke:#000000;stroke-width:1.0;" width="15" x="398.5" y="41"/><rect fill="#FFFFFF" height="2" style="stroke:#000000;stroke-width:1.0;" width="4" x="396.5" y="43"/><rect fill="#FFFFFF" height="2" style="stroke:#000000;stroke-width:1.0;" width="4" x="396.5" y="47"/><text fill="#000000" font-family="Verdana" font-size="14" lengthAdjust="spacing" textLength="141" x="252.5" y="68.9951">Another Component</text></g><!--entity FTP--><g id="elem_FTP"><ellipse cx="73" cy="150" fill="#FFFFFF" rx="8" ry="8" style="stroke:#000000;stroke-width:1.0;"/><text fill="#000000" font-family="Verdana" font-size="14" lengthAdjust="spacing" textLength="26" x="60" y="179.9951">FTP</text></g><!--entity Second Component--><g id="elem_Second Component"><rect fill="#FFFFFF" height="46.2969" rx="2.5" ry="2.5" style="stroke:#000000;stroke-width:1.0;" width="179" x="100.5" y="130"/><rect fill="#FFFFFF" height="10" style="stroke:#000000;stroke-width:1.0;" width="15" x="259.5" y="135"/><rect fill="#FFFFFF" height="2" style="stroke:#000000;stroke-width:1.0;" width="4" x="257.5" y="137"/><rect fill="#FFFFFF" height="2" style="stroke:#000000;stroke-width:1.0;" width="4" x="257.5" y="141"/><text fill="#000000" font-family="Verdana" font-size="14" lengthAdjust="spacing" textLength="139" x="115.5" y="162.9951">Second Component</text></g><!--entity Example 1--><g id="elem_Example 1"><rect fill="#FFFFFF" height="46.2969" rx="2.5" ry="2.5" style="stroke:#000000;stroke-width:1.0;" width="111" x="304.5" y="130"/><rect fill="#FFFFFF" height="10" style="stroke:#000000;stroke-width:1.0;" width="15" x="395.5" y="135"/><rect fill="#FFFFFF" height="2" style="stroke:#000000;stroke-width:1.0;" width="4" x="393.5" y="137"/><rect fill="#FFFFFF" height="2" style="stroke:#000000;stroke-width:1.0;" width="4" x="393.5" y="141"/><text fill="#000000" font-family="Verdana" font-size="14" lengthAdjust="spacing" textLength="71" x="319.5" y="162.9951">Example 1</text></g><!--entity Folder 3--><g id="elem_Folder 3"><rect fill="#FFFFFF" height="46.2969" rx="2.5" ry="2.5" style="stroke:#000000;stroke-width:1.0;" width="96" x="312" y="261"/><rect fill="#FFFFFF" height="10" style="stroke:#000000;stroke-width:1.0;" width="15" x="388" y="266"/><rect fill="#FFFFFF" height="2" style="stroke:#000000;stroke-width:1.0;" width="4" x="386" y="268"/><rect fill="#FFFFFF" height="2" style="stroke:#000000;stroke-width:1.0;" width="4" x="386" y="272"/><text fill="#000000" font-family="Verdana" font-size="14" lengthAdjust="spacing" textLength="56" x="327" y="293.9951">Folder 3</text></g><!--entity Frame 4--><g id="elem_Frame 4"><rect fill="#FFFFFF" height="46.2969" rx="2.5" ry="2.5" style="stroke:#000000;stroke-width:1.0;" width="96" x="312" y="350"/><rect fill="#FFFFFF" height="10" style="stroke:#000000;stroke-width:1.0;" width="15" x="388" y="355"/><rect fill="#FFFFFF" height="2" style="stroke:#000000;stroke-width:1.0;" width="4" x="386" y="357"/><rect fill="#FFFFFF" height="2" style="stroke:#000000;stroke-width:1.0;" width="4" x="386" y="361"/><text fill="#000000" font-family="Verdana" font-size="14" lengthAdjust="spacing" textLength="56" x="327" y="382.9951">Frame 4</text></g><path d="M200.983,59 C194.8285,59 188.674,59 182.5195,59 " fill="none" style="stroke:#000000;stroke-width:1.0;"/><path d="M82.1406,153 C88.1796,153 94.2186,153 100.2576,153 " fill="none" style="stroke:#000000;stroke-width:1.0;"/><polygon fill="#000000" points="76.6217,140.7958,83.2121,133.4769,78.1701,136.0416,75.6054,130.9995,76.6217,140.7958" style="stroke:#000000;stroke-width:1.0;"/><path d="M96.7398,82.0611 C94.824,87.2761 92.8152,92.8252 91,98 C85.8317,112.7336 82.0445,124.145 78.4797,135.0907 " fill="none" style="stroke:#000000;stroke-width:1.0;"/><polygon fill="#000000" points="352.325,129.9345,353.1463,120.1199,350.6824,125.212,345.5904,122.7481,352.325,129.9345" style="stroke:#000000;stroke-width:1.0;"/><path d="M335.7463,82.2706 C340.7775,96.7353 345.337,109.8438 350.3539,124.2675 " fill="none" style="stroke:#000000;stroke-width:1.0;"/><polygon fill="#000000" points="360,260.6818,364,251.6818,360,255.6818,356,251.6818,360,260.6818" style="stroke:#000000;stroke-width:1.0;"/><path d="M360,176.1759 C360,199.8041 360,230.9993 360,254.6818 " fill="none" style="stroke:#000000;stroke-width:1.0;"/><polygon fill="#000000" points="360,349.9724,364,340.9724,360,344.9724,356,340.9724,360,349.9724" style="stroke:#000000;stroke-width:1.0;"/><path d="M360,307.4047 C360,320.4948 360,330.9477 360,343.9724 " fill="none" style="stroke:#000000;stroke-width:1.0;"/></g></svg>