<?xml version="1.0" encoding="UTF-8" standalone="no"?><svg xmlns="http://www.w3.org/2000/svg" xmlns:xlink="http://www.w3.org/1999/xlink" contentScriptType="application/ecmascript" contentStyleType="text/css" height="561.4583px" preserveAspectRatio="none" style="width:760px;height:561px;background:#00000000;" version="1.1" viewBox="0 0 760 561" width="760.4167px" zoomAndPan="magnify"><defs/><g><!--MD5=[e209b37fc91f378abaa2ddf468318055]
entity actor--><polygon points="80.2544,21.2927,79.0328,22.9618,77.588,25.4064,75.5217,27.0539,73.3503,27.9548,71.6189,28.033,69.3937,26.9063,67.2941,26.1702,65.7004,24.6757,64.8644,22.9648,64.3687,21.6025,63.883,19.8231,63.0947,18.2919,63.7005,16.7968,64.2312,15.1591,66.223,13.8638,67.6242,12.1832,69.3586,11.6252,71.4205,11.1446,74.0647,11.4301,75.5129,12.1131,77.1967,12.4227,79.2441,14.5203,79.9578,16.7346,80.2679,18.2456,79.9166,20.7353" style="stroke:#333333;stroke-width:1.0416666666666667;fill:none;"/><path d="M71.875,27.5991 L72.0696,27.5991 L71.4914,33.2241 L72.054,38.8491 L72.2451,44.4741 L71.2144,50.0991 L71.875,55.7241 M58.3333,35.9324 L58.3333,35.8605 L63.75,35.5375 L69.1667,35.5773 L74.5833,35.8693 L80,35.2923 L85.4167,35.9324 M71.875,55.7241 L72.2624,56.0598 L68.7257,58.4669 L66.32,61.8542 L64.0522,65.361 L60.9816,68.1721 L58.3333,71.3491 M71.875,55.7241 L71.9227,55.7655 L74.561,58.8297 L77.4166,62.0823 L80.1673,65.2441 L83.1181,68.5793 L85.4167,71.3491 " fill="none" style="stroke:#333333;stroke-width:1.0416666666666667;"/><text fill="#2E2E2E" font-family="&quot;Segoe Print&quot;" font-size="14.5833" lengthAdjust="spacing" textLength="36.4583" x="53.6458" y="92.1773">actor</text><!--MD5=[aa4ec301efc5ec191ce15dba8ac8080e]
entity actor/--><polygon points="160.4627,21.2927,159.2412,22.9618,157.7964,25.4064,155.73,27.0539,153.5586,27.9548,151.8273,28.033,149.602,26.9063,147.5024,26.1702,145.9087,24.6757,145.0728,22.9648,144.577,21.6025,144.0913,19.8231,143.303,18.2919,143.9088,16.7968,144.4395,15.1591,146.4313,13.8638,147.8325,12.1832,149.567,11.6252,151.6289,11.1446,154.273,11.4301,155.7213,12.1131,157.4051,12.4227,159.4524,14.5203,160.1661,16.7346,160.4762,18.2456,160.125,20.7353" style="stroke:#333333;stroke-width:1.0416666666666667;fill:none;"/><path d="M150.0585,27.3493 L150.1273,27.4181 L151.9446,25.192 L154.1651,23.3692 L156.2544,21.4151 L157.9117,19.0291 L160.1669,17.2409 " style="stroke:#333333;stroke-width:1.0416666666666667;fill:none;"/><path d="M152.0833,27.5991 L152.2779,27.5991 L151.6997,33.2241 L152.2623,38.8491 L152.4534,44.4741 L151.4228,50.0991 L152.0833,55.7241 M138.5417,35.9324 L138.5417,35.8605 L143.9583,35.5375 L149.375,35.5773 L154.7917,35.8693 L160.2083,35.2923 L165.625,35.9324 M152.0833,55.7241 L152.4707,56.0598 L148.934,58.4669 L146.5283,61.8542 L144.2606,65.361 L141.19,68.1721 L138.5417,71.3491 M152.0833,55.7241 L152.1311,55.7655 L154.7693,58.8297 L157.6249,62.0823 L160.3757,65.2441 L163.3265,68.5793 L165.625,71.3491 " fill="none" style="stroke:#333333;stroke-width:1.0416666666666667;"/><text fill="#2E2E2E" font-family="&quot;Segoe Print&quot;" font-size="14.5833" lengthAdjust="spacing" textLength="41.6667" x="131.25" y="92.1773">actor/</text><!--MD5=[3908db504f15eb564d5f0e12bd7273c1]
entity agent--><polygon fill="#FFC107" points="213.5417,31.2449,213.5417,31.4639,224.3056,30.8133,235.0694,31.4463,245.8333,31.6612,256.5972,30.5018,267.3611,31.164,278.125,31.2449,278.0683,31.1081,278.6633,31.366,279.2945,31.7112,279.8009,31.7554,280.5556,32.3988,281.0713,32.4653,280.8691,32.3816,281.2519,33.0283,281.698,33.7012,281.776,34.2217,282.0695,34.8314,282.2917,35.4116,282.2806,35.4116,282.3537,43.3901,282.3747,51.3686,282.495,59.3471,282.5247,67.3256,282.2917,75.3042,282.5096,75.3944,282.1293,75.9272,281.9522,76.5443,281.7847,77.1652,281.084,77.5654,281.0713,78.2504,281.1614,78.4681,280.4426,78.3994,279.9637,78.9098,279.2377,78.8239,278.7052,79.2048,278.125,79.4708,278.125,80.2433,267.3611,79.4201,256.5972,79.5805,245.8333,79.8236,235.0694,79.9044,224.3056,79.4668,213.5417,79.4708,213.5798,79.563,212.8764,79.0431,212.4009,79.0739,211.8467,78.9144,211.2437,78.6371,210.5954,78.2504,210.792,78.3319,210.1963,77.597,209.898,76.9853,209.6638,76.4001,209.6002,75.8856,209.375,75.3042,209.3068,75.3042,209.6116,67.3256,209.3143,59.3471,209.2559,51.3686,209.4543,43.3901,209.375,35.4116,209.1611,35.323,209.4525,34.7533,210.0713,34.3193,210.247,33.7017,210.5869,33.1522,210.5954,32.4653,210.5526,32.3621,211.2271,32.3236,211.8524,32.1665,212.3004,31.5815,212.9397,31.4582,213.5417,31.2449" style="stroke:#FFC720;stroke-width:1.0416666666666667;"/><text fill="#555555" font-family="&quot;Segoe Print&quot;" font-size="14.5833" lengthAdjust="spacing" textLength="41.6667" x="225" y="60.4065">agent</text><!--MD5=[ed13bbfe61d4f4be62c09eebe4db66d3]
entity artifact--><polygon points="317.7083,29.6824,317.7083,29.9014,327.8646,29.2508,338.0208,29.8838,348.1771,30.0987,358.3333,28.9393,368.4896,29.6015,378.6458,29.2381,388.8021,29.2829,398.9583,29.6824,398.9493,29.6605,399.4557,29.7047,400.2104,30.3482,400.6424,30.2125,401.2891,30.5953,401.9046,30.9028,402.0432,30.9602,402.1212,31.4807,402.4147,32.0904,402.6266,32.6663,402.9382,33.2835,403.125,33.8491,403.208,33.8491,403.3284,42.4526,403.358,51.0561,403.3609,59.6596,403.2134,68.2631,403.125,76.8667,403.2737,76.9283,403.1062,77.5492,402.4055,77.9493,402.6104,78.7246,402.0536,79.1843,401.9046,79.8129,401.9755,79.9842,401.2496,79.8982,400.717,80.2791,400.2354,80.7831,399.5411,80.7736,398.9583,81.0333,398.9583,81.143,388.8021,81.3861,378.6458,81.4669,368.4896,81.0293,358.3333,81.3325,348.1771,80.4371,338.0208,81.3296,327.8646,81.6044,317.7083,81.0333,317.7674,81.1759,317.2005,80.9859,316.4656,80.3902,315.8539,80.0919,315.2687,79.8577,314.7621,79.8129,314.7432,79.8051,314.4549,79.1976,314.4925,78.725,313.9738,78.022,313.6757,77.4103,313.5417,76.8667,313.6209,76.8667,313.3101,68.2631,313.3614,59.6596,313.767,51.0561,313.6929,42.4526,313.5417,33.8491,313.7773,33.9467,313.6825,33.2171,314.1322,32.713,314.4633,32.1598,314.3664,31.4293,314.7621,30.9028,314.7493,30.8721,315.3681,30.6991,316.0272,30.6237,316.5293,30.1692,317.1805,30.0749,317.7083,29.6824" style="stroke:#4D4D4D;stroke-width:1.0416666666666667;fill:none;"/><polygon points="385.4167,34.8907,385.4896,34.8907,385.2728,37.8074,385.4838,40.7241,385.5554,43.6407,385.169,46.5574,385.4167,49.4741,385.4167,49.4471,387.9167,49.326,390.4167,49.3409,392.9167,49.4504,395.4167,49.234,397.9167,49.4741,398.1089,49.4741,397.6978,47.8074,397.848,46.1407,398.0666,44.4741,397.8869,42.8074,397.9167,41.1407,397.9334,41.1575,396.6588,39.8829,395.4605,38.6846,394.2254,37.4495,393.0605,36.2845,391.6667,34.8907,391.6667,35.1238,390.4167,35.1266,389.1667,34.9792,387.9167,35.0517,386.6667,35.1346,385.4167,34.8907" style="stroke:#4D4D4D;stroke-width:1.0416666666666667;fill:none;"/><path d="M391.6667,34.8907 L391.764,34.8907 L391.4749,36.1407 L391.7562,37.3907 L391.8517,38.6407 L391.3364,39.8907 L391.6667,41.1407 " style="stroke:#4D4D4D;stroke-width:1.0416666666666667;fill:none;"/><path d="M397.9167,41.1407 L397.9167,41.2381 L396.6667,40.9489 L395.4167,41.2302 L394.1667,41.3258 L392.9167,40.8105 L391.6667,41.1407 " style="stroke:#4D4D4D;stroke-width:1.0416666666666667;fill:none;"/><text fill="#4D4D4D" font-family="&quot;Segoe Print&quot;" font-size="14.5833" lengthAdjust="spacing" textLength="47.9167" x="329.1667" y="61.969">artifact</text><!--MD5=[6cbf048fd2d5a055b0f2cbfd23391788]
entity boundary--><path d="M451.5625,29.1616 L451.7571,29.1616 L451.1789,34.1616 L451.7415,39.1616 L451.9326,44.1616 L450.9019,49.1616 L451.5625,54.1616 M451.5625,41.6616 L451.5625,41.5896 L455.1042,41.2667 L458.6458,41.3065 L462.1875,41.5985 L465.7292,41.0214 L469.2708,41.6616 " fill="none" style="stroke:#333333;stroke-width:1.0416666666666667;"/><polygon points="494.3399,44.7021,492.5076,47.2057,490.3404,50.8726,487.2409,53.3438,483.9838,54.6952,481.3867,54.8125,478.0489,53.1224,474.8994,52.0183,472.5089,49.7766,471.255,47.2102,470.5114,45.1667,469.7829,42.4976,468.6004,40.2008,469.509,37.9582,470.3052,35.5016,473.2928,33.5587,475.3947,31.0378,477.9963,30.2007,481.0892,29.4798,485.0554,29.9081,487.2277,30.9326,489.7535,31.397,492.8245,34.5434,493.895,37.8649,494.3601,40.1313,493.8333,43.866" style="stroke:#333333;stroke-width:1.0416666666666667;fill:none;"/><text fill="#2E2E2E" font-family="&quot;Segoe Print&quot;" font-size="14.5833" lengthAdjust="spacing" textLength="67.7083" x="439.0625" y="77.0732">boundary</text><!--MD5=[0568ea600d1c2ace8679ac75c80dfc89]
entity card--><polygon points="546.875,38.5366,546.875,38.7555,557.7083,38.105,568.5417,38.7379,579.375,38.9529,590.2083,37.7935,601.0417,38.5366,601.0313,38.5117,601.5743,38.6438,602.1692,38.9017,602.8004,39.2469,603.3068,39.2911,603.9879,39.757,604.1655,39.8305,604.0298,40.2625,604.4127,40.9092,604.8587,41.5821,604.9367,42.1026,605.2083,42.7032,605.232,42.7032,605.1972,47.7651,605.2703,52.8269,605.2914,57.8888,605.4117,62.9506,605.2083,68.0125,605.4236,68.1017,605.1822,68.692,604.8019,69.2248,604.6248,69.8419,604.4573,70.4628,603.9879,70.9588,603.8921,70.7274,603.4888,71.4205,602.77,71.3518,602.2911,71.8622,601.5651,71.7763,601.0417,72.1792,601.0417,72.1078,590.2083,72.9517,579.375,72.1284,568.5417,72.2888,557.7083,72.5319,546.875,72.1792,546.9303,72.3127,546.2852,71.9338,545.7347,71.7831,545.0312,71.2633,544.5558,71.2941,543.9287,70.9588,544.1046,71.0316,543.8272,70.4286,543.6372,69.8617,543.0415,69.1268,542.7432,68.5151,542.7083,68.0125,542.4926,68.0125,542.6879,62.9506,542.6401,57.8888,542.9449,52.8269,542.6477,47.7651,542.7083,42.7032,542.5983,42.6577,543.0256,42.1443,542.9826,41.4361,543.274,40.8665,543.8928,40.4325,543.9287,39.757,543.9866,39.8967,544.6156,39.7485,545.0645,39.1656,545.7389,39.1271,546.3642,38.9701,546.875,38.5366" style="stroke:#1592A6;stroke-width:1.0416666666666667;fill:none;"/><text fill="#1592A6" font-family="&quot;Segoe Print&quot;" font-size="14.5833" lengthAdjust="spacing" textLength="31.25" x="558.3333" y="60.4065">card</text><!--MD5=[da456bc05ddb284180092693c9c3b3b1]
entity circle--><polygon points="80.2544,179.6261,79.0328,181.2951,77.588,183.7398,75.5217,185.3873,73.3503,186.2882,71.6189,186.3664,69.3937,185.2396,67.2941,184.5036,65.7004,183.0091,64.8644,181.2982,64.3687,179.9358,63.883,178.1564,63.0947,176.6252,63.7005,175.1301,64.2312,173.4924,66.223,172.1972,67.6242,170.5166,69.3586,169.9585,71.4205,169.4779,74.0647,169.7634,75.5129,170.4465,77.1967,170.756,79.2441,172.8536,79.9578,175.068,80.2679,176.5789,79.9166,179.0687" style="stroke:#DC3545;stroke-width:1.0416666666666667;fill:none;"/><text fill="#555555" font-family="&quot;Segoe Print&quot;" font-size="14.5833" lengthAdjust="spacing" textLength="37.5" x="53.125" y="214.0523">circle</text><!--MD5=[3a4d72efb1b53e1acbdd1189cccbc328]
entity cloud--><path d="M122.5474,162.0042 L122.5474,162.0042 L122.5652,162.0999 L125.4716,161.265 L128.4823,160.991 L131.4591,160.5343 L134.3241,159.4771 L137.3438,159.2512 L137.3438,159.2512 L137.3334,159.2167 L140.5994,158.0681 L143.9176,157.0932 L147.272,156.2391 L150.5015,154.9689 L153.9059,154.2815 L153.9059,154.2815 L153.9591,154.5322 L157.1636,154.701 L160.5236,155.6018 L163.9025,156.592 L167.1711,157.0625 L170.4977,157.8063 L170.4977,157.8063 L170.505,157.837 L173.5312,158.5222 L176.5911,159.3472 L179.6347,160.1048 L182.7092,160.9911 L185.6829,161.4578 L185.6829,161.4578 L185.9124,161.6672 L187.6164,163.5346 L189.1723,165.2669 L190.945,167.1969 L192.7278,169.1361 L194.1888,170.7818 L193.8803,170.654 L193.5122,173.2339 L192.1286,175.3927 L191.517,177.8717 L190.1103,180.021 L189.3553,182.4405 L189.3553,182.4405 L189.3273,182.4257 L190.9106,184.9612 L191.8394,187.1496 L193.1544,189.5428 L194.5018,191.9532 L195.6153,194.2396 L195.7499,194.3775 L193.7025,196.1044 L191.8852,198.0669 L189.6957,199.6483 L188.0613,201.7982 L186.0578,203.5701 L186.0578,203.5701 L186.0593,203.8239 L183.0076,203.758 L179.9568,203.818 L176.9024,203.2926 L173.8506,203.1963 L170.8011,203.4803 L170.8011,203.4803 L170.7894,203.1929 L167.6424,203.5814 L164.4823,203.6461 L161.3412,204.1806 L158.1676,203.913 L155.0133,204.1221 L155.0133,204.1221 L154.9998,203.9639 L151.5429,203.9289 L148.028,203.2176 L144.5543,202.9872 L141.1211,203.2275 L137.6159,202.6297 L137.6159,202.6297 L137.6334,202.8306 L134.5021,203.241 L131.3166,203.0263 L128.199,203.5945 L125.0667,203.9921 L121.8998,203.9923 L121.8998,203.9923 L121.7439,203.839 L119.8681,201.9266 L117.9413,199.964 L116.1149,198.1 L113.8983,195.8525 L111.8996,193.8192 L112.0912,193.9149 L112.9443,191.152 L114.1672,188.5737 L115.9304,186.265 L116.6989,183.4599 L118.27,181.0554 L118.27,181.0554 L118.4999,181.107 L119.2188,177.2661 L119.8599,173.4077 L120.6766,169.5888 L121.8992,165.861 L122.5474,162.0042 " style="stroke:#F2FCFE;stroke-width:1.0416666666666667;fill:none;"/><text fill="#2E2E2E" font-family="&quot;Segoe Print&quot;" font-size="14.5833" lengthAdjust="spacing" textLength="39.5833" x="133.3333" y="185.9273">cloud</text><!--MD5=[a5a7a1c563e7de0fee7f3171b646813b]
entity collections--><polygon points="233.3333,160.9324,233.3333,161.1514,243.9815,160.5008,254.6296,161.1338,265.2778,161.3487,275.9259,160.1893,286.5741,160.8515,297.2222,160.4881,307.8704,160.5329,318.5185,160.8614,329.1667,160.9324,329.0748,160.7106,329.8295,161.3541,330.2614,161.2184,330.9082,161.6012,331.5811,162.0473,332.1129,162.1528,332.0854,162.1414,332.3789,162.7511,332.5909,163.3271,332.9024,163.9443,333.166,164.5416,333.3333,165.0991,333.5367,165.0991,333.5663,172.2443,333.5692,179.3894,333.4217,186.5346,333.4943,193.6798,333.3333,200.825,333.5586,200.9183,332.8579,201.3184,333.0628,202.0937,332.506,202.5534,332.5283,203.2529,332.1129,203.7713,332.0472,203.6125,331.5146,203.9934,331.033,204.4973,330.3387,204.4879,329.7699,204.7814,329.1667,204.9917,329.1667,205.3444,318.5185,205.4252,307.8704,204.9876,297.2222,205.2908,286.5741,204.3954,275.9259,205.2879,265.2778,205.5627,254.6296,205.4547,243.9815,205.6302,233.3333,204.9917,233.2691,204.8367,232.6574,204.5384,232.0723,204.3042,231.5577,204.2405,230.9502,203.9523,230.3871,203.7713,230.6056,203.8618,230.0869,203.1588,229.7889,202.5472,229.728,202.0338,229.1968,201.3256,229.1667,200.825,228.9864,200.825,229.392,193.6798,229.3179,186.5346,229.4217,179.3894,229.0549,172.2443,229.1667,165.0991,229.2691,165.1415,229.6001,164.5883,229.5033,163.8578,229.8681,163.3186,230.1834,162.7588,230.3871,162.1528,230.4737,162.3619,230.9758,161.9074,231.627,161.813,232.0812,161.2429,232.6541,160.9592,233.3333,160.9324" style="stroke:#333333;stroke-width:1.0416666666666667;fill:none;"/><polygon points="229.1667,156.7657,229.1667,156.9847,239.8148,156.3342,250.463,156.9671,261.1111,157.1821,271.7593,156.0226,282.4074,156.6848,293.0556,156.3215,303.7037,156.3663,314.3519,156.6948,325,156.7657,324.9081,156.544,325.6628,157.1874,326.0948,157.0517,326.7415,157.4345,327.4144,157.8806,327.9463,157.9861,327.9188,157.9747,328.2122,158.5845,328.4242,159.1604,328.7358,159.7776,328.9993,160.3749,329.1667,160.9324,329.37,160.9324,329.3997,168.0776,329.4025,175.2228,329.2551,182.368,329.3276,189.5131,329.1667,196.6583,329.3919,196.7516,328.6912,197.1518,328.8962,197.927,328.3393,198.3867,328.3616,199.0863,327.9463,199.6046,327.8805,199.4458,327.3479,199.8267,326.8663,200.3307,326.172,200.3212,325.6032,200.6147,325,200.825,325,201.1777,314.3519,201.2586,303.7037,200.8209,293.0556,201.1242,282.4074,200.2287,271.7593,201.1212,261.1111,201.396,250.463,201.288,239.8148,201.4636,229.1667,200.825,229.1025,200.67,228.4908,200.3717,227.9056,200.1375,227.3911,200.0739,226.7835,199.7856,226.2204,199.6046,226.439,199.6951,225.9203,198.9921,225.6222,198.3805,225.5614,197.8672,225.0302,197.159,225,196.6583,224.8197,196.6583,225.2253,189.5131,225.1513,182.368,225.255,175.2228,224.8883,168.0776,225,160.9324,225.1024,160.9748,225.4335,160.4216,225.3366,159.6911,225.7015,159.1519,226.0167,158.5921,226.2204,157.9861,226.307,158.1952,226.8091,157.7407,227.4604,157.6464,227.9146,157.0763,228.4874,156.7926,229.1667,156.7657" style="stroke:#333333;stroke-width:1.0416666666666667;fill:none;"/><text fill="#2E2E2E" font-family="&quot;Segoe Print&quot;" font-size="14.5833" lengthAdjust="spacing" textLength="77.0833" x="238.5417" y="183.844">collections</text><!--MD5=[5f175ec018c225c86e8e77149e6345d4]
entity component--><polygon points="368.75,151.5574,368.75,151.7764,379.3403,151.1258,389.9306,151.7588,400.5208,151.9737,411.1111,150.8143,421.7014,151.4765,432.2917,151.1131,442.8819,151.1579,453.4722,151.4864,464.0625,150.8372,474.6528,152.1341,485.2431,150.9009,495.8333,151.5574,495.8071,151.494,496.48,151.9401,497.0004,152.0181,497.6102,152.3115,498.1861,152.5235,498.7796,152.7778,498.8369,152.8015,499.1004,153.3988,499.4557,154.0341,499.7271,154.6347,499.9738,155.2251,500,155.7241,500.2652,155.7241,500.4829,165.7859,500.7315,175.8478,499.2488,185.9096,500.7068,195.9715,500,206.0333,499.9049,205.9939,499.9272,206.6935,499.353,207.1461,499.2458,207.792,499.2616,208.4889,498.7796,208.9796,498.7731,208.964,498.2043,209.2575,497.6461,209.5764,497.0672,209.8454,496.4221,209.9547,495.8333,210.2,495.8333,210.4992,485.2431,209.6037,474.6528,210.4962,464.0625,210.771,453.4722,210.663,442.8819,210.8386,432.2917,209.6968,421.7014,209.5206,411.1111,209.5527,400.5208,210.1387,389.9306,209.9953,379.3403,210.9098,368.75,210.2,368.7268,210.144,368.1152,209.8459,367.6018,209.7851,366.8936,209.2538,366.324,209.0572,365.8037,208.9796,366.0119,209.0658,365.6994,208.4482,365.5512,207.8987,364.9683,207.1691,364.9298,206.665,364.5833,206.0333,365.1984,206.0333,364.0912,195.9715,364.4835,185.9096,364.7146,175.8478,365.2622,165.7859,364.5833,155.7241,364.582,155.7235,364.9758,155.1963,364.8938,154.472,365.0983,153.8663,365.7212,153.434,365.8037,152.7778,365.7085,152.5478,366.4606,152.697,367.0097,152.3559,367.5359,151.9596,368.1137,151.688,368.75,151.5574" style="stroke:#333333;stroke-width:1.0416666666666667;fill:none;"/><polygon points="479.1667,156.7657,479.1667,156.8387,482.2917,156.6219,485.4167,156.8329,488.5417,156.9045,491.6667,156.518,494.7917,156.7657,494.7647,156.7657,494.6436,158.8491,494.6585,160.9324,494.768,163.0157,494.5516,165.0991,494.7917,167.1824,494.7917,167.3747,491.6667,166.9636,488.5417,167.1137,485.4167,167.3324,482.2917,167.1526,479.1667,167.1824,479.1904,167.1824,479.1556,165.0991,479.2287,163.0157,479.2497,160.9324,479.37,158.8491,479.1667,156.7657" style="stroke:#333333;stroke-width:1.0416666666666667;fill:none;"/><polygon points="477.0833,158.8491,477.0833,158.9221,477.9167,158.7052,478.75,158.9162,479.5833,158.9879,480.4167,158.6014,481.25,158.8491,481.223,158.8491,481.1019,159.2657,481.1168,159.6824,481.2263,160.0991,481.0099,160.5157,481.25,160.9324,481.25,161.1247,480.4167,160.7136,479.5833,160.8637,478.75,161.0824,477.9167,160.9026,477.0833,160.9324,477.107,160.9324,477.0722,160.5157,477.1453,160.0991,477.1664,159.6824,477.2867,159.2657,477.0833,158.8491" style="stroke:#333333;stroke-width:1.0416666666666667;fill:none;"/><polygon points="477.0833,163.0157,477.0833,163.0887,477.9167,162.8719,478.75,163.0829,479.5833,163.1545,480.4167,162.768,481.25,163.0157,481.223,163.0157,481.1019,163.4324,481.1168,163.8491,481.2263,164.2657,481.0099,164.6824,481.25,165.0991,481.25,165.2913,480.4167,164.8802,479.5833,165.0304,478.75,165.2491,477.9167,165.0693,477.0833,165.0991,477.107,165.0991,477.0722,164.6824,477.1453,164.2657,477.1664,163.8491,477.2867,163.4324,477.0833,163.0157" style="stroke:#333333;stroke-width:1.0416666666666667;fill:none;"/><text fill="#2E2E2E" font-family="&quot;Segoe Print&quot;" font-size="14.5833" lengthAdjust="spacing" textLength="83.3333" x="385.4167" y="191.1357">component</text><!--MD5=[0b4603c22bc0d9214baf3db11effa15f]
entity control--><polygon points="574.0274,170.2229,572.1951,172.7265,570.0279,176.3934,566.9284,178.8647,563.6713,180.2161,561.0742,180.3333,557.7364,178.6433,554.5869,177.5391,552.1964,175.2974,550.9425,172.731,550.1989,170.6876,549.4704,168.0184,548.2879,165.7216,549.1965,163.479,549.9927,161.0224,552.9803,159.0795,555.0822,156.5587,557.6838,155.7216,560.7767,155.0007,564.7429,155.429,566.9152,156.4535,569.441,156.9179,572.512,160.0642,573.5825,163.3858,574.0476,165.6521,573.5208,169.3868" style="stroke:#333333;stroke-width:1.0416666666666667;fill:none;"/><polygon fill="#333333" points="557.2917,154.6824,557.3384,154.7385,558.4496,153.5302,559.8346,152.6506,561.1305,151.664,562.1331,150.3255,563.5417,149.4741,563.5166,149.4641,562.9875,150.4607,562.5847,151.508,562.2697,152.5903,561.6521,153.5516,561.4583,154.6824,561.6368,154.7538,561.6718,155.6428,562.2279,156.7402,562.8476,157.8631,563.0973,158.838,563.5417,159.8907,563.5568,159.9089,562.2846,158.8406,561.0814,157.855,559.8448,156.8295,558.6719,155.8803,557.2917,154.6824" style="stroke:#333333;stroke-width:1.0416666666666667;"/><text fill="#2E2E2E" font-family="&quot;Segoe Print&quot;" font-size="14.5833" lengthAdjust="spacing" textLength="50" x="536.4583" y="202.594">control</text><!--MD5=[f50ff5e4cd64f259303fc83dba1819fc]
entity database--><path d="M622.9167,162.4949 L622.9167,162.4949 L622.9769,162.5714 L624.328,161.1398 L626.0319,160.1564 L627.621,159.027 L628.8322,157.4177 L630.5664,156.4728 L630.5599,156.4374 L633.8966,155.6601 L637.2661,155.0612 L640.6584,154.5863 L643.9721,153.684 L647.3958,153.3803 L647.4131,153.6361 L650.742,152.8613 L654.1214,152.8333 L657.507,152.8963 L660.8567,152.4293 L664.2253,152.241 L664.2259,152.2726 L665.7549,152.1937 L667.2869,152.2585 L668.8175,152.254 L670.3508,152.3819 L671.875,152.0782 L671.875,152.0782 L671.8816,152.3888 L673.4116,152.4252 L674.9374,152.2612 L676.4694,152.3905 L678.0017,152.5335 L679.5247,152.241 L679.5022,151.9079 L682.9118,152.7823 L686.2472,152.5598 L689.6391,153.1712 L692.9728,152.9238 L696.3542,153.3803 L696.3484,153.3491 L699.7821,154.3365 L703.0819,154.5951 L706.4606,155.2837 L709.846,156.0085 L713.1836,156.4728 L713.3028,156.6242 L714.7124,157.6758 L716.3257,158.9861 L717.6095,159.8778 L719.3848,161.3939 L720.8333,162.4949 L721.3409,162.4949 L721.2449,169.8484 L721.4009,177.2019 L720.386,184.5555 L720.2295,191.909 L720.8333,199.2625 L720.8333,199.2625 L720.6554,199.0364 L719.2865,200.4455 L717.7172,201.5999 L716.4386,203.1236 L714.6635,204.0167 L713.1836,205.2846 L713.1549,205.1284 L709.8368,206.0071 L706.396,206.218 L703.0425,206.9037 L699.7743,208.0541 L696.3542,208.3771 L696.3678,208.5783 L693.0112,208.9442 L689.6123,208.6842 L686.2665,209.2081 L682.9091,209.5613 L679.5247,209.5164 L679.5201,209.2977 L677.9938,209.5046 L676.4661,209.6398 L674.9413,209.9157 L673.4049,209.6447 L671.875,209.6792 L671.875,209.6792 L671.8796,209.8933 L670.3396,209.3903 L668.8084,209.3006 L667.2901,209.8146 L665.7481,209.2171 L664.2253,209.5164 L664.2412,209.7515 L660.8658,209.384 L657.4851,208.9369 L654.1165,208.6694 L650.7761,208.8168 L647.3958,208.3771 L647.3708,208.2408 L644.0795,208.0281 L640.6178,206.8884 L637.3498,206.8027 L633.9728,206.1236 L630.5664,205.2846 L630.6366,205.3737 L629.05,204.0974 L627.7146,203.1401 L626.1523,201.8945 L624.4951,200.5285 L622.9167,199.2625 L623.165,199.2625 L622.7961,191.909 L623.58,184.5555 L623.0601,177.2019 L623.0765,169.8484 L622.9167,162.4949 " style="stroke:#333333;stroke-width:1.0416666666666667;fill:none;"/><path d="M622.9167,162.4949 L622.9167,162.4949 L622.9769,162.5714 L624.328,163.5486 L626.0319,164.9741 L627.621,166.2536 L628.8322,167.0531 L630.5664,168.517 L630.5599,168.4817 L633.8966,168.9413 L637.2661,169.5794 L640.6584,170.3415 L643.9721,170.6762 L647.3958,171.6095 L647.4131,171.8652 L650.742,171.5462 L654.1214,171.9739 L657.507,172.4926 L660.8567,172.4813 L664.2253,172.7488 L664.2259,172.7804 L665.7549,172.7666 L667.2869,172.8966 L668.8175,172.9572 L670.3508,173.1501 L671.875,172.9116 L671.875,172.9116 L671.8816,173.2222 L673.4116,173.1934 L674.9374,172.9643 L676.4694,173.0285 L678.0017,173.1064 L679.5247,172.7488 L679.5022,172.4157 L682.9118,172.8344 L686.2472,172.1561 L689.6391,172.3118 L692.9728,171.6087 L696.3542,171.6095 L696.3484,171.5783 L699.7821,171.3287 L703.0819,170.3503 L706.4606,169.802 L709.846,169.2897 L713.1836,168.517 L713.3028,168.6685 L714.7124,167.3112 L716.3257,166.2127 L717.6095,164.6955 L719.3848,163.8028 L720.8333,162.4949 " fill="none" style="stroke:#333333;stroke-width:1.0416666666666667;"/><text fill="#2E2E2E" font-family="&quot;Segoe Print&quot;" font-size="14.5833" lengthAdjust="spacing" textLength="66.6667" x="638.5417" y="195.8232">database</text><!--MD5=[fbcd1a1664252f7f7ddf883fed3c1e0a]
entity entity--><polygon points="84.4441,283.7646,82.6118,286.2682,80.4446,289.9351,77.345,292.4063,74.0879,293.7577,71.4909,293.875,68.1531,292.1849,65.0036,291.0808,62.6131,288.8391,61.3592,286.2727,60.6155,284.2292,59.887,281.5601,58.7045,279.2633,59.6132,277.0207,60.4093,274.5641,63.3969,272.6212,65.4988,270.1003,68.1004,269.2632,71.1933,268.5423,75.1595,268.9706,77.3319,269.9951,79.8576,270.4595,82.9286,273.6059,83.9992,276.9274,84.4643,279.1938,83.9374,282.9285" style="stroke:#333333;stroke-width:1.0416666666666667;fill:none;"/><path d="M59.375,295.3074 L59.375,295.4047 L64.375,295.1156 L69.375,295.3969 L74.375,295.4925 L79.375,294.9771 L84.375,295.3074 " style="stroke:#333333;stroke-width:1.0416666666666667;fill:none;"/><text fill="#2E2E2E" font-family="&quot;Segoe Print&quot;" font-size="14.5833" lengthAdjust="spacing" textLength="39.5833" x="52.0833" y="316.1357">entity</text><!--MD5=[7edcefaa406c65155265f04249a95b70]
entity file--><path d="M127.6042,274.4741 L127.6042,314.3667 A4.1667,4.1667 0 0 0 131.7708,318.5333 L174.4792,318.5333 A4.1667,4.1667 0 0 0 178.6458,314.3667 L178.6458,280.7241 L168.2292,270.3074 L131.7708,270.3074 A4.1667,4.1667 0 0 0 127.6042,274.4741 " style="stroke:#FFFFFF;stroke-width:1.0416666666666667;fill:none;"/><path d="M168.2292,270.3074 L168.2292,276.5574 A4.1667,4.1667 0 0 0 172.3958,280.7241 L178.6458,280.7241 " style="stroke:#FFFFFF;stroke-width:1.0416666666666667;fill:none;"/><text fill="#FFFFFF" font-family="&quot;Segoe Print&quot;" font-size="14.5833" lengthAdjust="spacing" textLength="19.7917" x="143.2292" y="299.469">file</text><!--MD5=[18b72bf5d1838316b3d85261d2b42cce]
entity folder--><path d="M214.0625,260.9324 L253.6458,260.9324 A6.25,6.25 0 0 1 257.8125,265.0991 L265.1042,282.8074 L288.0208,282.8074 A4.1667,4.1667 0 0 1 292.1875,286.9741 L292.1875,323.7417 A4.1667,4.1667 0 0 1 288.0208,327.9083 L214.0625,327.9083 A4.1667,4.1667 0 0 1 209.8958,323.7417 L209.8958,265.0991 A4.1667,4.1667 0 0 1 214.0625,260.9324 " style="stroke:#FFC107;stroke-width:2.0833333333333335;fill:none;"/><path d="M209.8958,282.8074 L209.8958,283.0993 L220.9375,282.232 L231.9792,283.0759 L243.0208,283.3625 L254.0625,281.8166 L265.1042,282.8074 " style="stroke:#FFC107;stroke-width:2.0833333333333335;fill:none;"/><text fill="#FFC107" font-family="&quot;Segoe Print&quot;" font-size="14.5833" lengthAdjust="spacing" textLength="40.625" x="225.5208" y="308.844">folder</text><!--MD5=[7a641773cfca2682e51daa01eb969ffa]
entity frame--><polygon points="327.6042,265.0991,327.6042,265.318,338.151,264.6675,348.6979,265.3004,359.2448,265.5154,369.7917,264.356,380.3385,265.0181,390.8854,264.6548,401.4323,264.6996,411.9792,265.0991,411.9701,265.0772,412.4766,265.1214,413.2312,265.7648,413.6632,265.6291,414.3099,266.0119,414.9254,266.3195,415.064,266.3769,415.142,266.8973,415.4355,267.507,415.6474,268.083,415.959,268.7002,416.1458,269.2657,416.3949,269.2657,416.7559,279.3276,416.8448,289.3894,416.8534,299.4513,416.4111,309.5131,416.1458,319.575,416.2945,319.6366,416.127,320.2576,415.4263,320.6577,415.6313,321.4329,415.0744,321.8926,414.9254,322.5213,414.9964,322.6925,414.2704,322.6065,413.7378,322.9875,413.2562,323.4914,412.5619,323.4819,411.9792,323.7417,411.9792,323.8513,401.4323,324.0944,390.8854,324.1752,380.3385,323.7376,369.7917,324.0408,359.2448,323.1454,348.6979,324.0379,338.151,324.3127,327.6042,323.7417,327.6632,323.8843,327.0964,323.6942,326.3615,323.0985,325.7497,322.8002,325.1646,322.566,324.6579,322.5213,324.639,322.5134,324.3508,321.9059,324.3883,321.4333,323.8696,320.7303,323.5715,320.1187,323.4375,319.575,323.6753,319.575,322.7429,309.5131,322.8967,299.4513,324.1135,289.3894,323.8913,279.3276,323.4375,269.2657,323.6731,269.3633,323.5783,268.6337,324.0281,268.1296,324.3591,267.5764,324.2623,266.846,324.6579,266.3195,324.6452,266.2887,325.2639,266.1158,325.923,266.0404,326.4251,265.5859,327.0764,265.4915,327.6042,265.0991" style="stroke:#17A2B8;stroke-width:2.0833333333333335;fill:none;"/><path d="M354.3403,265.0991 L354.5349,265.0991 L353.9566,266.1407 L354.5192,267.1824 L354.7104,268.2241 L353.6797,269.2657 L354.3403,270.3074 L354.2894,270.2565 L352.6027,271.4865 L351.1725,272.973 L349.9207,274.6378 L348.0543,275.6881 L347.0486,277.5991 L347.0486,278.1117 L342.3264,277.0155 L337.6042,277.416 L332.8819,277.999 L328.1597,277.5197 L323.4375,277.5991 " fill="none" style="stroke:#17A2B8;stroke-width:2.0833333333333335;"/><text fill="#17A2B8" font-family="&quot;Segoe Print&quot;" font-size="14.5833" lengthAdjust="spacing" textLength="40.625" x="344.2708" y="304.6773">frame</text><!--MD5=[ea4128e1b5db6200a10193b8015cde63]
entity interface--><polygon points="464.6294,293.1677,463.4078,294.8368,461.963,297.2814,459.8967,298.9289,457.7253,299.8298,455.9939,299.908,453.7687,298.7813,451.6691,298.0452,450.0754,296.5507,449.2394,294.8398,448.7437,293.4775,448.258,291.6981,447.4697,290.1669,448.0755,288.6718,448.6062,287.0341,450.598,285.7388,451.9992,284.0582,453.7336,283.5002,455.7955,283.0196,458.4397,283.3051,459.8879,283.9881,461.5717,284.2977,463.6191,286.3953,464.3328,288.6096,464.6429,290.1206,464.2916,292.6103" style="stroke:#DC3545;stroke-width:1.0416666666666667;fill:none;"/><text fill="#555555" font-family="&quot;Segoe Print&quot;" font-size="14.5833" lengthAdjust="spacing" textLength="62.5" x="425" y="327.594">interface</text><!--MD5=[a4a9a576f4d148d24afc849b85929192]
entity label--><text fill="#2E2E2E" font-family="&quot;Segoe Print&quot;" font-size="14.5833" lengthAdjust="spacing" textLength="33.3333" x="512.5" y="299.469">label</text><!--MD5=[0b70d51bdd028022f5101c089cfdd98e]
entity node--><polygon points="27.0833,396.3491,27.1349,396.4007,29.0649,394.164,31.2975,392.2299,33.4315,390.1972,35.2415,387.8406,37.5,385.9324,37.5,385.8515,47.3958,385.4881,57.2917,385.5329,67.1875,385.8614,77.0833,385.2122,86.9792,386.5091,96.875,385.2759,106.7708,385.7264,116.6667,385.9324,117.1166,385.9324,116.5773,395.5776,116.7377,405.2228,116.6334,414.868,116.8526,424.5131,116.6667,434.1583,116.7254,434.217,114.7271,436.3855,112.6648,438.4898,110.5834,440.5751,108.3959,442.5542,106.25,444.575,106.25,445.0579,96.3542,445.3065,86.4583,443.8238,76.5625,445.2818,66.6667,444.2661,56.7708,445.131,46.875,444.0593,36.9792,444.5036,27.0833,444.575,27.8558,444.575,27.0326,434.9298,27.193,425.2846,27.4361,415.6394,27.5169,405.9943,27.0833,396.3491" style="stroke:#FFFFFF;stroke-width:1.0416666666666667;fill:none;"/><path d="M106.25,396.3491 L106.3188,396.4179 L108.1977,394.1301 L110.4799,392.2457 L112.6308,390.2299 L114.3498,387.7822 L116.6667,385.9324 " style="stroke:#FFFFFF;stroke-width:1.0416666666666667;fill:none;"/><path d="M27.0833,396.3491 L27.0833,396.641 L36.9792,395.7736 L46.875,396.6175 L56.7708,396.9042 L66.6667,395.3583 L76.5625,396.2411 L86.4583,395.7567 L96.3542,395.8164 L106.25,396.3491 " style="stroke:#FFFFFF;stroke-width:1.0416666666666667;fill:none;"/><path d="M106.25,396.3491 L106.5419,396.3491 L105.6746,405.9943 L106.5185,415.6394 L106.8051,425.2846 L105.2592,434.9298 L106.25,444.575 " style="stroke:#FFFFFF;stroke-width:1.0416666666666667;fill:none;"/><text fill="#FFFFFF" font-family="&quot;Segoe Print&quot;" font-size="14.5833" lengthAdjust="spacing" textLength="37.5" x="47.9167" y="425.5107">node</text><!--MD5=[18b4c220f17afa2fa1b7909f1259f27e]
entity package--><path d="M151.5625,389.5782 L233.8542,389.5782 A6.25,6.25 0 0 1 238.0208,393.7449 L245.3125,423.2208 L258.8542,423.2208 A4.1667,4.1667 0 0 1 263.0208,427.3875 L263.0208,436.7625 A4.1667,4.1667 0 0 1 258.8542,440.9292 L151.5625,440.9292 A4.1667,4.1667 0 0 1 147.3958,436.7625 L147.3958,393.7449 A4.1667,4.1667 0 0 1 151.5625,389.5782 " style="stroke:#333333;stroke-width:2.0833333333333335;fill:none;"/><path d="M147.3958,423.2208 L147.3958,423.5127 L158.2755,422.6454 L169.1551,423.4893 L180.0347,423.7759 L190.9144,422.23 L201.794,423.1129 L212.6736,422.6285 L223.5532,422.6882 L234.4329,423.1262 L245.3125,423.2208 " style="stroke:#333333;stroke-width:2.0833333333333335;fill:none;"/><text fill="#333333" font-family="&quot;Segoe Print&quot;" font-size="14.5833" lengthAdjust="spacing" textLength="61.4583" x="163.0208" y="411.4482">package</text><!--MD5=[785617a40335b4b3f4a4f9c464842b0b]
entity person--><polygon points="348.7191,394.0463,346.7799,396.696,344.4862,400.5768,341.2058,403.1923,337.7587,404.6225,335.0102,404.7466,331.4776,402.9579,328.1443,401.7894,325.6144,399.4168,324.2873,396.7007,323.5003,394.5381,322.7292,391.7132,321.4778,389.2823,322.4395,386.9089,323.282,384.309,326.4439,382.2528,328.6685,379.5848,331.4219,378.6988,334.6952,377.9359,338.8929,378.3892,341.192,379.4735,343.865,379.9649,347.1152,383.2949,348.2482,386.8102,348.7405,389.2088,348.1829,393.1614" style="stroke:#2E2E2E;stroke-width:1.0416666666666667;fill:none;"/><polygon points="307.5002,404.0577,307.5002,404.2767,318.6668,403.6261,329.8334,404.2591,341,404.474,352.1666,403.3146,363.3332,404.0577,363.3229,404.0328,365.1474,404.6959,367.024,405.4846,368.9369,406.3607,370.7249,406.9358,372.6877,407.9325,372.8653,408.0061,373.2605,409.7197,374.1742,411.648,375.1512,413.6026,375.76,415.4047,376.5625,417.287,376.5862,417.287,376.5514,421.6405,376.6245,425.9939,376.6455,430.3474,376.7659,434.7009,376.5625,439.0543,376.7778,439.1435,376.0054,441.0155,375.0943,442.83,374.3863,444.7286,373.6879,446.6313,372.6877,448.4088,372.5919,448.1775,370.907,449.4015,368.9065,449.8636,367.1459,450.905,365.1383,451.3499,363.3332,452.2836,363.3332,452.2123,352.1666,453.0561,341,452.2329,329.8334,452.3933,318.6668,452.6364,307.5002,452.2836,307.5555,452.4172,305.6287,451.5074,303.7965,450.8259,301.8114,449.7751,300.0543,449.275,298.1456,448.4088,298.3215,448.4817,297.5133,446.597,296.7924,444.7485,295.6658,442.7319,294.8366,440.8386,294.2708,439.0543,294.0551,439.0543,294.2504,434.7009,294.2026,430.3474,294.5074,425.9939,294.2102,421.6405,294.2708,417.287,294.1608,417.2414,295.119,415.4465,295.6068,413.4566,296.4292,411.6053,297.5788,409.8896,298.1456,407.9325,298.2035,408.0723,300.1141,407.3932,301.8447,406.2794,303.8007,405.71,305.7077,405.0221,307.5002,404.0577" style="stroke:#2E2E2E;stroke-width:1.0416666666666667;fill:none;"/><text fill="#2E2E2E" font-family="&quot;Segoe Print&quot;" font-size="14.5833" lengthAdjust="spacing" textLength="51.0417" x="309.8958" y="433.2193">person</text><!--MD5=[799e9543975076390d2a6ceafec8df6c]
entity queue--><path d="M413.0208,396.3491 L413.0208,396.9329 L422.6935,395.1982 L432.3661,396.886 L442.0387,397.4593 L451.7113,394.3674 L461.3839,396.1332 L471.0565,395.1644 L480.7292,396.3491 L480.7292,396.3491 L480.558,396.3019 L481.7404,400.1216 L482.5039,403.8259 L484.1013,407.7599 L484.6145,411.3953 L485.9375,415.2537 L485.9375,415.2537 L485.8492,415.2294 L485.0886,419.0877 L483.8159,422.805 L482.843,426.6049 L481.7566,430.3735 L480.7292,434.1583 L480.7292,434.6542 L471.0565,434.8226 L461.3839,435.7852 L451.7113,436.0224 L442.0387,436.0452 L432.3661,434.8656 L422.6935,435.4461 L413.0208,434.1583 L413.0208,434.1583 L413.3343,434.2447 L411.6573,430.2887 L411.2403,426.6799 L409.7635,422.7791 L409.0924,419.1003 L407.8125,415.2537 L407.8125,415.2537 L407.5916,415.1928 L408.8236,411.4644 L410.2268,407.783 L410.9157,403.9049 L412.0262,400.143 L413.0208,396.3491 " style="stroke:#333333;stroke-width:1.0416666666666667;fill:none;"/><path d="M480.7292,396.3491 L480.7292,396.3491 L480.823,396.3749 L479.5026,400.0791 L478.7321,403.9347 L477.7826,407.741 L476.2441,411.3851 L475.5208,415.2537 L475.5208,415.2537 L475.4861,415.2441 L476.3721,418.9822 L477.433,422.7684 L478.6154,426.5881 L479.3789,430.2924 L480.7292,434.1583 " fill="none" style="stroke:#333333;stroke-width:1.0416666666666667;"/><text fill="#2E2E2E" font-family="&quot;Segoe Print&quot;" font-size="14.5833" lengthAdjust="spacing" textLength="46.875" x="418.2292" y="420.3023">queue</text><!--MD5=[7267aa9592867b0c03d3cbda6e92e719]
entity rectangle--><polygon points="521.3542,391.1407,521.3542,391.3597,531.4236,390.7092,541.4931,391.3421,551.5625,391.5571,561.6319,390.3976,571.7014,391.0598,581.7708,390.6965,591.8403,390.7413,601.9097,391.0698,611.9792,391.1407,611.8873,390.919,612.642,391.5624,613.0739,391.4267,613.7207,391.8095,614.3936,392.2556,614.9254,392.3611,614.8979,392.3497,615.1914,392.9595,615.4034,393.5354,615.7149,394.1526,615.9785,394.7499,616.1458,395.3074,616.3492,395.3074,616.3788,403.2859,616.3817,411.2644,616.2342,419.243,616.3068,427.2215,616.1458,435.2,616.3711,435.2933,615.6704,435.6934,615.8753,436.4687,615.3185,436.9284,615.3408,437.6279,614.9254,438.1463,614.8597,437.9875,614.3271,438.3684,613.8455,438.8723,613.1512,438.8629,612.5824,439.1564,611.9792,439.3667,611.9792,439.7194,601.9097,439.8002,591.8403,439.3626,581.7708,439.6658,571.7014,438.7704,561.6319,439.6629,551.5625,439.9377,541.4931,439.8297,531.4236,440.0052,521.3542,439.3667,521.29,439.2117,520.6783,438.9134,520.0931,438.6792,519.5786,438.6155,518.971,438.3273,518.4079,438.1463,518.6265,438.2368,518.1078,437.5338,517.8097,436.9222,517.7489,436.4088,517.2177,435.7006,517.1875,435.2,517.0072,435.2,517.4128,427.2215,517.3388,419.243,517.4425,411.2644,517.0758,403.2859,517.1875,395.3074,517.2899,395.3498,517.621,394.7966,517.5241,394.0661,517.889,393.5269,518.2042,392.9671,518.4079,392.3611,518.4945,392.5702,518.9966,392.1157,519.6479,392.0214,520.1021,391.4513,520.6749,391.1676,521.3542,391.1407" style="stroke:#333333;stroke-width:2.0833333333333335;fill:none;"/><text fill="#2E2E2E" font-family="&quot;Segoe Print&quot;" font-size="14.5833" lengthAdjust="spacing" textLength="67.7083" x="532.8125" y="420.3023">rectangle</text><!--MD5=[f71e1929eceb486be132a5333dc4c68d]
entity stack--><polygon points="667.1875,391.1407,667.1875,391.3597,677.4306,390.7092,687.6736,391.3421,697.9167,391.5571,708.1597,390.3976,718.4028,391.0598,728.6458,391.1407,728.5892,391.0039,729.1841,391.2618,729.8153,391.607,730.3217,391.6512,731.0764,392.2947,731.5921,392.3611,731.3899,392.2774,731.7727,392.9241,732.2188,393.597,732.2968,394.1175,732.5903,394.7272,732.8125,395.3074,732.8014,395.3074,732.8745,403.2859,732.8955,411.2644,733.0159,419.243,733.0455,427.2215,732.8125,435.2,733.0304,435.2902,732.6501,435.8231,732.4731,436.4401,732.3055,437.0611,731.6048,437.4612,731.5921,438.1463,731.6823,438.3639,730.9635,438.2952,730.4845,438.8057,729.7586,438.7197,729.226,439.1006,728.6458,439.3667,728.6458,440.1392,718.4028,439.3159,708.1597,439.4763,697.9167,439.7194,687.6736,439.8002,677.4306,439.3626,667.1875,439.3667,667.2257,439.4588,666.5222,438.939,666.0468,438.9697,665.4926,438.8103,664.8895,438.533,664.2412,438.1463,664.4379,438.2277,663.8422,437.4928,663.5439,436.8811,663.3096,436.2959,663.246,435.7814,663.0208,435.2,662.9526,435.2,663.2574,427.2215,662.9602,419.243,662.9017,411.2644,663.1001,403.2859,663.0208,395.3074,662.8069,395.2188,663.0984,394.6492,663.7172,394.2151,663.8928,393.5975,664.2328,393.048,664.2412,392.3611,664.1985,392.2579,664.8729,392.2195,665.4982,392.0624,665.9462,391.4774,666.5855,391.3541,667.1875,391.1407" style="stroke:none;stroke-width:1.0416666666666667;fill:none;"/><path d="M647.3958,391.1407 L658.8542,391.1407 A4.1667,4.1667 0 0 1 663.0208,395.3074 L663.0208,435.2 A4.1667,4.1667 0 0 0 667.1875,439.3667 L728.6458,439.3667 A4.1667,4.1667 0 0 0 732.8125,435.2 L732.8125,395.3074 A4.1667,4.1667 0 0 1 736.9792,391.1407 L748.4375,391.1407 " fill="none" style="stroke:#333333;stroke-width:1.0416666666666667;"/><text fill="#2E2E2E" font-family="&quot;Segoe Print&quot;" font-size="14.5833" lengthAdjust="spacing" textLength="38.5417" x="678.6458" y="420.3023">stack</text><!--MD5=[a5a6ae0ba01c8a4589ab26bd33e87aad]
entity storage--><polygon points="65.1042,502.5991,65.1042,502.6721,67.8125,502.4552,70.5208,502.6662,73.2292,502.7379,75.9375,502.3514,78.6458,502.5991,78.6387,502.5731,83.7627,503.8688,88.9226,505.2957,94.1075,506.8138,99.2064,508.0176,104.4258,509.6616,104.5887,509.7636,106.376,512.9555,108.6389,516.4453,110.9599,519.9715,112.9432,523.2861,115.1042,526.712,115.1242,526.7246,112.9591,530.1162,110.8853,533.5651,108.7675,536.9864,106.7338,540.4603,104.4258,543.7625,104.4873,543.9872,99.3321,545.4024,94.1372,546.6727,89.0003,548.1552,83.8662,549.6477,78.6458,550.825,78.6458,550.5746,75.9375,551.0606,73.2292,550.722,70.5208,551.0103,67.8125,550.6531,65.1042,550.825,65.0979,550.8021,60.0162,549.6608,54.7877,547.9837,49.6459,546.6227,44.5113,545.2884,39.3242,543.7625,39.4467,543.8392,37.1874,540.3517,35.1374,536.9952,32.7487,533.4267,30.8652,530.1745,28.6458,526.712,28.8072,526.8131,30.9123,523.3839,33.0976,520.0048,34.9107,516.3927,36.9966,512.9515,39.3242,509.6616,39.2672,509.4535,44.4748,508.2294,49.6182,506.7708,54.8547,505.6523,59.9322,503.9531,65.1042,502.5991" style="stroke:#E6AE06;stroke-width:1.0416666666666667;fill:none;"/><text fill="#E6AE06" font-family="&quot;Segoe Print&quot;" font-size="14.5833" lengthAdjust="spacing" textLength="55.2083" x="44.2708" y="531.7607">storage</text><polygon points="270.8035,530.0489,269.5491,533.8558,264.7614,536.7524,259.268,539.6382,254.733,542.99,246.1768,544.9011,238.3602,546.9546,229.1857,548.2796,219.0775,548.9145,210.2989,549.5653,198.3923,548.5415,190.7943,548.4277,180.9677,546.8174,171.5127,544.5954,164.8877,542.6135,158.2312,539.837,153.251,536.8875,149.1283,533.5001,146.7268,530.0315,145.3735,526.3047,146.0036,522.7346,148.2899,519.2974,152.7712,516.291,157.5693,513.1561,163.5683,510.3288,173.4434,508.8902,179.5005,506.2063,190.2355,505.4404,198.4255,504.1183,209.9701,504.4585,219.0781,504.4796,227.3019,504.8177,237.7277,506.6426,245.8703,508.3945,252.9715,510.5469,259.2403,513.1845,265.0916,516.4461,268.3745,519.5326,272.1138,523.4805,271.4523,526.4855" style="stroke:#333333;stroke-width:2.0833333333333335;fill:none;"/><text fill="#2E2E2E" font-family="&quot;Segoe Print&quot;" font-size="14.5833" lengthAdjust="spacing" textLength="61.4583" x="178.4121" y="529.6213">usecase</text><polygon points="434.8741,530.0489,433.5461,533.8558,428.4776,536.7524,422.6619,539.6382,417.8609,542.99,408.8028,544.9011,400.5277,546.9546,390.8151,548.2796,380.114,548.9145,370.8205,549.5653,358.2154,548.5415,350.1718,548.4277,339.7688,546.8174,329.7593,544.5954,322.7456,542.6135,315.6987,539.837,310.4264,536.8875,306.0618,533.5001,303.5195,530.0315,302.0868,526.3047,302.7539,522.7346,305.1743,519.2974,309.9185,516.291,314.9979,513.1561,321.3489,510.3288,331.8032,508.8902,338.2156,506.2063,349.5802,505.4404,358.2506,504.1183,370.4724,504.4585,380.1146,504.4796,388.8208,504.8177,399.8581,506.6426,408.4784,508.3945,415.9961,510.5469,422.6325,513.1845,428.8271,516.4461,432.3026,519.5326,436.2612,523.4805,435.5609,526.4855" style="stroke:#333333;stroke-width:2.0833333333333335;fill:none;"/><text fill="#2E2E2E" font-family="&quot;Segoe Print&quot;" font-size="14.5833" lengthAdjust="spacing" textLength="66.6667" x="336.2616" y="529.6213">usecase/</text><path d="M430.767,518.8145 L430.8358,518.8833 L425.3561,523.9541 L420.2798,529.4283 L415.0721,534.7711 L409.4325,539.6819 L404.3908,545.1907 " style="stroke:#333333;stroke-width:2.0833333333333335;fill:none;"/></g></svg>