<?xml version="1.0" encoding="us-ascii" standalone="no"?><svg xmlns="http://www.w3.org/2000/svg" xmlns:xlink="http://www.w3.org/1999/xlink" contentStyleType="text/css" height="595.8333px" preserveAspectRatio="none" style="width:465px;height:595px;" version="1.1" viewBox="0 0 465 595" width="465.625px" zoomAndPan="magnify"><defs/><g><!--cluster Some Group--><g id="cluster_Some Group"><path d="M29.1667,14.5833 L29.1667,15.1672 L40.0463,13.4324 L50.9259,15.1202 L61.8056,15.6936 L72.6852,12.6017 L83.5648,14.3675 L94.4444,13.3986 L105.3241,13.5181 L116.2037,14.394 L127.0833,14.5833 L131.25,18.75 L130.6319,18.5834 L133.2033,24.2936 L133.6032,29.4184 L135.4482,34.9328 L137.4695,40.4947 L138.5417,45.8008 L138.5417,45.5625 L148.8889,45.9903 L159.2361,45.712 L169.5833,46.2967 L179.9306,46.465 L190.2778,47.4277 L200.625,47.6648 L210.9722,47.6876 L221.3194,46.5081 L231.6667,47.0885 L242.0139,47.7514 L252.3611,43.7975 L262.7083,47.6855 L273.0556,44.9772 L283.4028,47.2836 L293.75,44.4257 L304.0972,45.6105 L314.4444,47.8608 L324.7917,45.6654 L335.1389,46.0933 L345.4861,46.7414 L355.8333,46.957 L366.1806,45.7899 L376.5278,46.5986 L386.875,44.2107 L397.2222,46.5907 L407.5694,47.3235 L417.9167,47.0356 L428.2639,47.5036 L438.6111,44.4589 L448.9583,45.8008 L453.125,49.9674 L451.3134,49.9674 L451.3989,60.0423 L452.9614,70.1172 L452.5791,80.1921 L455.0178,90.2669 L452.6398,100.3418 L453.125,110.4167 L448.9583,114.5833 L448.9583,113.6304 L438.4635,115.2174 L427.9688,112.731 L417.474,113.1413 L406.9792,116.386 L396.4844,115.7935 L385.9896,116.6236 L375.4948,113.6895 L365,115.47 L354.5052,116.2234 L344.0104,113.2711 L333.5156,114.3171 L323.0208,114.9333 L312.526,116.3938 L302.0313,114.5717 L291.5365,115.8682 L281.0417,113.045 L270.5469,112.7021 L260.0521,115.9823 L249.5573,112.5918 L239.0625,115.9971 L228.5677,115.1573 L218.0729,113.8391 L207.5781,113.6006 L197.0833,115.8577 L186.5885,113.7519 L176.0938,116.2274 L165.599,113.0479 L155.1042,116.2984 L144.6094,115.9286 L134.1146,115.2638 L123.6198,114.7145 L113.125,116.6017 L102.6302,116.2877 L92.1354,115.0535 L81.6406,115.3283 L71.1458,114.2215 L60.651,116.5735 L50.1563,115.0135 L39.6615,115.0627 L29.1667,114.5833 L25,110.4167 L23.3101,110.4167 L23.8744,100.2315 L26.4743,90.0463 L26.1938,79.8611 L24.8807,69.6759 L24.1051,59.4907 L24.3919,49.3056 L23.094,39.1204 L26.152,28.9352 L25,18.75 L29.1667,14.5833 " fill="#555555" style="stroke:#333333;stroke-width:2.0833333333333335;"/><path d="M25,45.8008 L25,46.0927 L35.322,45.2253 L45.6439,46.0692 L55.9659,46.3559 L66.2879,44.81 L76.6098,45.6928 L86.9318,45.2084 L97.2538,45.2681 L107.5758,45.7061 L117.8977,44.8405 L128.2197,46.5697 L138.5417,45.8008 " fill="#555555" style="stroke:#333333;stroke-width:2.0833333333333335;"/><text fill="#333333" font-family="Segoe Print" font-size="12.5" font-weight="bold" lengthAdjust="spacing" textLength="89.5833" x="34.375" y="33.4778">Some Group</text></g><!--cluster Other Groups--><g id="cluster_Other Groups"><polygon fill="#555555" points="34.375,156.25,34.4266,156.3016,36.3566,154.0649,38.5891,152.1308,40.7231,150.0981,42.5332,147.7415,44.7917,145.8333,44.7917,145.7524,55.0725,145.3891,65.3533,145.4339,75.6341,145.7623,85.9149,145.1132,96.1957,146.41,106.4764,145.1768,116.7572,145.6273,127.038,146.2833,137.3188,145.744,147.5996,145.9044,157.8804,145.8001,168.1612,146.0193,178.442,146.0824,188.7228,146.4434,199.0036,146.5323,209.2844,146.5409,219.5652,146.0986,229.846,146.3162,240.1268,146.5648,250.4076,145.0821,260.6884,146.5401,270.9692,145.5245,281.25,145.8333,281.8061,145.8333,280.7344,156.3657,281.1786,166.8981,282.0225,177.4306,281.1992,187.963,281.3597,198.4954,281.6027,209.0278,281.6836,219.5602,281.2459,230.0926,281.25,240.625,281.3205,240.6955,279.0261,242.5678,277.1532,244.8615,275.1346,247.0096,273.0258,249.0675,270.8333,251.0417,270.8333,251.6802,260.5525,250.5385,250.2717,250.3623,239.9909,250.3944,229.7101,250.9803,219.4293,250.8369,209.1486,251.7515,198.8678,250.8597,188.587,250.6843,178.3062,251.2794,168.0254,250.347,157.7446,250.5009,147.4638,251.7177,137.183,251.4955,126.9022,251.8068,116.6214,250.7065,106.3406,251.3742,96.0598,251.6567,85.779,250.5496,75.4982,250.9418,65.2174,251.1729,54.9366,251.7206,44.6558,251.0373,34.375,251.0417,34.8568,251.0417,33.7981,240.5093,33.6695,229.9769,34.8996,219.4444,33.6282,208.912,34.9052,198.3796,34.5902,187.8472,34.0959,177.3148,34.0065,166.7824,34.375,156.25" style="stroke:#333333;stroke-width:1.0416666666666667;"/><path d="M270.8333,156.25 L270.9021,156.3188 L272.781,154.031 L275.0633,152.1466 L277.2142,150.1308 L278.9331,147.6831 L281.25,145.8333 " fill="#555555" style="stroke:#333333;stroke-width:1.0416666666666667;"/><path d="M34.375,156.25 L34.375,156.5419 L44.6558,155.6746 L54.9366,156.5185 L65.2174,156.8051 L75.4982,155.2592 L85.779,156.1421 L96.0598,155.6576 L106.3406,155.7174 L116.6214,156.1553 L126.9022,155.2898 L137.183,157.0189 L147.4638,155.3746 L157.7446,155.9753 L168.0254,156.8499 L178.3062,156.1309 L188.587,156.3448 L198.8678,156.2056 L209.1486,156.498 L219.4293,156.5821 L229.7101,157.0635 L239.9909,157.182 L250.2717,157.1934 L260.5525,156.6036 L270.8333,156.25 " fill="#555555" style="stroke:#333333;stroke-width:1.0416666666666667;"/><path d="M270.8333,156.25 L271.1253,156.25 L270.2579,166.7824 L271.1018,177.3148 L271.3884,187.8472 L269.8425,198.3796 L270.7254,208.912 L270.241,219.4444 L270.3007,229.9769 L270.7387,240.5093 L270.8333,251.0417 " fill="#555555" style="stroke:#333333;stroke-width:1.0416666666666667;"/><text fill="#FFFFFF" font-family="Segoe Print" font-size="12.5" font-weight="bold" lengthAdjust="spacing" textLength="100" x="103.6458" y="176.1861">Other Groups</text></g><g id="cluster_##12"><path d="M299.1852,174.2642 L299.1852,174.2642 L299.1936,174.3611 L301.7263,173.8508 L304.3083,173.9088 L306.8743,173.7817 L309.3874,173.046 L311.9737,173.1528 L311.9737,173.1528 L311.9672,173.1174 L314.0211,172.5751 L316.1079,172.2113 L318.2175,171.9714 L320.2484,171.3042 L322.3895,171.2355 L322.3895,171.2355 L322.412,171.4908 L324.9336,171.1714 L327.5208,171.5974 L330.1161,172.1143 L332.6647,172.1021 L335.2378,172.3682 L335.2378,172.3682 L335.2456,172.3988 L337.3688,171.8083 L339.5277,171.3572 L341.6693,170.8389 L343.8437,170.4488 L345.9113,169.6406 L345.9113,169.6406 L345.933,169.9505 L348.2582,169.7916 L350.5694,169.4328 L352.901,169.3665 L355.2337,169.314 L357.5359,168.827 L357.5359,168.827 L357.5035,168.4947 L360.1479,169.3915 L362.6856,169.1941 L365.3045,169.8286 L367.8398,169.6064 L370.4436,170.0864 L370.4436,170.0864 L370.4407,170.0548 L372.7127,170.6327 L374.9173,170.4728 L377.1617,170.7482 L379.4094,171.0602 L381.633,171.1084 L381.633,171.1084 L381.6451,171.3008 L383.996,171.2555 L386.3676,171.5388 L388.7056,171.2904 L391.0937,171.8351 L393.4485,171.8526 L393.4485,171.8526 L393.499,172.1013 L395.7841,172.5202 L398.0942,173.0627 L400.2878,173.0314 L402.5668,173.4207 L404.9215,174.1826 L404.9215,174.1826 L404.9149,173.895 L407.4238,174.2128 L409.9253,174.2064 L412.4376,174.6702 L414.9315,174.3313 L417.4363,174.4696 L417.4363,174.4696 L417.2781,174.4549 L417.7336,176.5526 L417.5132,178.5876 L417.7734,180.6672 L418.504,182.7904 L418.397,184.8359 L418.397,184.8359 L418.5955,184.8719 L419.197,187.467 L419.1812,189.9503 L419.9386,192.5736 L420.5276,195.1664 L420.724,197.6882 L420.724,197.6882 L420.5123,197.6334 L421.2483,199.8703 L421.9149,202.0893 L422.7178,204.3435 L422.991,206.4608 L423.5601,208.6545 L423.5601,208.6545 L423.7733,208.6742 L423.0708,211.1715 L422.7798,213.7067 L423.0902,216.2973 L422.2934,218.7859 L422.3899,221.3568 L422.3899,221.3568 L422.6216,221.3996 L422.078,223.5745 L421.456,225.735 L421.011,227.9281 L420.975,230.1966 L420.3601,232.3584 L420.3601,232.3584 L420.2274,232.3187 L419.9332,234.7402 L418.7362,236.8916 L418.5658,239.3502 L417.8173,241.6358 L416.9131,243.8748 L416.9131,243.8748 L416.9419,243.9845 L414.7564,244.4628 L412.6739,245.334 L410.4984,245.8502 L408.284,246.2181 L406.1019,246.7092 L406.1019,246.7092 L406.111,246.8331 L403.4836,246.8422 L400.8987,247.4262 L398.2658,247.36 L395.6526,247.5612 L393.0329,247.6746 L393.0329,247.6746 L392.9645,247.4014 L390.5943,248.0915 L388.3063,249.1107 L385.9019,249.6641 L383.4556,250.0507 L381.0673,250.6688 L381.0673,250.6688 L381.045,250.5213 L378.7374,250.9197 L376.3902,251.0569 L374.1518,251.9119 L371.8596,252.4117 L369.4935,252.4242 L369.4935,252.4242 L369.5303,252.6651 L367.4812,253.0574 L365.3621,252.992 L363.3169,253.4096 L361.2227,253.5075 L359.189,254 L359.189,254 L359.2186,254.1281 L356.8235,253.5582 L354.4642,253.1429 L351.9914,252.237 L349.6101,251.7268 L347.2329,251.2343 L347.2329,251.2343 L347.2634,251.4373 L344.6323,251.0975 L341.9184,250.2066 L339.3006,249.956 L336.6845,249.7166 L334.0346,249.2517 L334.0346,249.2517 L333.9841,248.9735 L331.7719,248.9964 L329.4721,248.5367 L327.1505,247.957 L324.8787,247.6513 L322.575,247.1703 L322.575,247.1703 L322.6435,247.5006 L320.2185,246.5459 L317.9504,246.348 L315.6205,245.8522 L313.2775,245.2926 L310.9395,244.7576 L310.9395,244.7576 L310.9424,244.8228 L308.4032,244.6972 L305.8494,244.2431 L303.3154,244.2334 L300.7755,244.0924 L298.2464,244.193 L298.2464,244.193 L298.2759,244.195 L298.1188,241.8 L297.9844,239.4066 L297.607,236.996 L297.5419,234.6075 L297.4047,232.2138 L297.4047,232.2138 L297.3491,232.2131 L297.6374,229.6881 L297.5334,227.1577 L297.0768,224.6226 L297.2334,222.0958 L297.2327,219.5669 L297.2327,219.5669 L296.9747,219.4976 L296.841,217.6622 L296.4634,215.7614 L295.9141,213.8145 L294.9552,211.7576 L294.6292,209.8706 L294.6292,209.8706 L294.8396,209.9139 L294.8021,207.3262 L295.7393,204.9391 L296.0225,202.4174 L296.7118,199.9794 L297.1777,197.4953 L297.1777,197.4953 L297.2887,197.5024 L297.541,195.2569 L297.1355,192.9689 L297.833,190.752 L297.8409,188.4907 L297.9039,186.2329 L297.9039,186.2329 L298.0674,186.2504 L298.5044,183.876 L298.4189,181.4457 L298.7534,179.0603 L299.0272,176.6684 L299.1852,174.2642 " fill="#555555" style="stroke:#333333;stroke-width:1.0416666666666667;"/></g><!--cluster MySql--><g id="cluster_MySql"><path d="M276.0417,292.7083 L276.0417,292.7083 L276.0832,292.7964 L278.5152,291.3304 L281.1905,290.3804 L283.7866,289.2624 L286.1222,287.5919 L288.8184,286.6862 L288.8133,286.6506 L291.4099,286.1204 L294.032,285.7698 L296.6716,285.5441 L299.2504,284.8882 L301.9145,284.8348 L301.9356,285.0902 L304.893,284.2958 L307.912,284.2471 L310.9385,284.2895 L313.9213,283.8024 L316.9271,283.5938 L316.9287,283.6253 L319.9289,283.4284 L322.9363,283.3752 L325.9402,283.2527 L328.9508,283.2623 L331.9397,282.841 L331.9489,283.1515 L334.5682,283.078 L337.1816,282.8042 L339.8037,282.8236 L342.4262,282.8567 L345.0358,282.4544 L345.0316,282.1206 L347.5951,282.736 L350.1447,282.2521 L352.705,282.6039 L355.2542,282.0951 L357.8125,282.2917 L357.8125,282.2917 L357.8121,282.26 L360.3722,282.6675 L362.9229,282.3342 L365.4791,282.4381 L368.0359,282.5786 L370.5892,282.4544 L370.5949,282.647 L373.2084,282.5299 L375.8316,282.742 L378.439,282.4215 L381.07,282.8953 L383.6853,282.841 L383.698,283.0945 L386.6981,283.1971 L389.7046,283.4255 L392.6817,283.0693 L395.6803,283.1416 L398.6979,283.5938 L398.6742,283.307 L401.6982,283.8148 L404.6955,283.9995 L407.7315,284.6528 L410.7013,284.506 L413.7105,284.8348 L413.6883,284.6775 L416.3445,285.3097 L418.9058,285.2697 L421.5346,285.7077 L424.2295,286.6134 L426.8066,286.6862 L426.8926,286.8686 L429.507,288.1982 L431.8538,288.9603 L434.5357,290.4332 L437.1445,291.7512 L439.5833,292.7083 L438.2711,292.7083 L439.3171,303.0849 L439.9333,313.4615 L441.3938,323.8381 L439.5717,334.2147 L440.8682,344.5913 L438.045,354.9679 L437.7021,365.3446 L440.9823,375.7212 L437.5918,386.0978 L440.9971,396.4744 L440.1573,406.851 L438.8391,417.2276 L438.6006,427.6042 L440.8577,437.9808 L438.7519,448.3574 L441.2274,458.734 L438.0479,469.1106 L441.2984,479.4872 L440.9286,489.8638 L440.2638,500.2404 L439.7145,510.617 L441.6017,520.9936 L441.2877,531.3702 L440.0535,541.7468 L440.3283,552.1234 L439.5833,562.5 L439.5833,562.5 L439.5576,562.4454 L437.1694,564.0045 L434.5032,564.9737 L431.9514,566.1856 L429.2419,567.0629 L426.8066,568.5221 L426.7804,568.3364 L424.2218,569.1357 L421.596,569.4597 L418.9462,569.6133 L416.3089,569.8556 L413.7105,570.3735 L413.7022,570.2725 L410.6818,570.3052 L407.7213,571.0613 L404.7312,571.4594 L401.7205,571.6092 L398.6979,571.6146 L398.714,571.9359 L395.6922,571.7019 L392.6949,571.956 L389.6814,571.887 L386.6944,572.3481 L383.6853,572.3674 L383.6887,572.4815 L381.0736,572.7003 L378.4437,572.4157 L375.8258,572.5371 L373.2145,572.8818 L370.5892,572.7539 L370.5925,573.0165 L368.0308,572.5492 L365.4774,572.7293 L362.9241,572.9207 L360.3642,572.6013 L357.8125,572.9167 L357.8125,572.9167 L357.8146,573.0803 L355.2587,573.0035 L352.7012,572.8049 L350.1473,572.8849 L347.5954,573.1238 L345.0358,572.7539 L345.0315,572.6091 L342.4209,572.8224 L339.8013,572.7315 L337.1797,572.5755 L334.5608,572.5099 L331.9397,572.3674 L331.9423,572.4198 L328.9227,571.9282 L325.9254,571.8809 L322.9214,571.7023 L319.9311,571.7946 L316.9271,571.6146 L316.9304,571.6552 L313.9307,571.441 L310.9109,570.9839 L307.9169,570.8388 L304.9124,570.5663 L301.9145,570.3735 L301.9519,570.638 L299.3229,570.1988 L296.6446,569.4104 L294.0521,569.2293 L291.4002,568.6278 L288.8184,568.5221 L288.8753,568.6429 L286.3831,567.5725 L283.8152,566.3413 L281.0664,564.7265 L278.6886,563.8987 L276.0417,562.5 L273.9783,562.5 L276.5976,552.1234 L275.2102,541.7468 L276.3103,531.3702 L276.7093,520.9936 L277.3531,510.617 L274.0419,500.2404 L277.3624,489.8638 L276.5366,479.4872 L277.0287,469.1106 L278.1189,458.734 L276.0569,448.3574 L276.5285,437.9808 L276.6346,427.6042 L276.5895,417.2276 L276.0394,406.851 L278.0158,396.4744 L274.3479,386.0978 L277.6119,375.7212 L274.3083,365.3446 L274.5408,354.9679 L276.1528,344.5913 L276.1202,334.2147 L274.6727,323.8381 L277.1909,313.4615 L276.344,303.0849 L276.0417,292.7083 " fill="#555555" style="stroke:#333333;stroke-width:1.0416666666666667;"/><path d="M276.0417,292.7083 L276.0417,292.7083 L276.0832,292.7964 L278.5152,293.7393 L281.1905,295.1981 L283.7866,296.489 L286.1222,297.2273 L288.8184,298.7305 L288.8133,298.6948 L291.4099,298.9052 L294.032,299.2952 L296.6716,299.8101 L299.2504,299.8947 L301.9145,300.5819 L301.9356,300.8373 L304.893,300.5393 L307.912,300.987 L310.9385,301.5258 L313.9213,301.5351 L316.9271,301.8229 L316.9287,301.8545 L319.9289,301.9587 L322.9363,302.2066 L325.9402,302.3851 L328.9508,302.6959 L331.9397,302.5757 L331.9489,302.8862 L334.5682,302.9673 L337.1816,302.8481 L339.8037,303.0221 L342.4262,303.2099 L345.0358,302.9622 L345.0316,302.6284 L347.5951,303.3089 L350.1447,302.8901 L352.705,303.307 L355.2542,302.8633 L357.8125,303.125 L357.8125,303.125 L357.8121,303.0933 L360.3722,303.4358 L362.9229,303.0373 L365.4791,303.0761 L368.0359,303.1516 L370.5892,302.9622 L370.5949,303.1549 L373.2084,302.8831 L375.8316,302.9405 L378.439,302.4654 L381.07,302.7846 L383.6853,302.5757 L383.698,302.8292 L386.6981,302.6307 L389.7046,302.558 L392.6817,301.9007 L395.6803,301.6719 L398.6979,301.8229 L398.6742,301.5362 L401.6982,301.5475 L404.6955,301.2358 L407.7315,301.3927 L410.7013,300.7495 L413.7105,300.5819 L413.6883,300.4246 L416.3445,300.3162 L418.9058,299.5356 L421.5346,299.2331 L424.2295,299.3982 L426.8066,298.7305 L426.8926,298.9129 L429.507,297.8336 L431.8538,296.1869 L434.5357,295.2509 L437.1445,294.16 L439.5833,292.7083 " fill="none" style="stroke:#333333;stroke-width:1.0416666666666667;"/><text fill="#FFFFFF" font-family="Segoe Print" font-size="12.5" font-weight="bold" lengthAdjust="spacing" textLength="43.75" x="335.9375" y="322.0194">MySql</text></g><!--cluster This is my folder--><g id="cluster_This is my folder"><path d="M288.5417,333.3333 L288.5417,333.9172 L299.2188,332.1824 L309.8958,333.8702 L320.5729,334.4436 L331.25,331.3517 L341.9271,333.1175 L352.6042,332.1486 L363.2813,332.2681 L373.9583,333.144 L384.6354,331.4129 L395.3125,334.8712 L405.9896,331.5826 L416.6667,333.3333 L420.8333,337.5 L420.6565,337.4523 L422.6778,343.0142 L423.6733,348.2996 L425.2693,353.7469 L426.6381,359.1329 L428.125,364.5508 L428.125,364.7161 L427.9167,364.7722 L427.7083,365.0931 L427.5,365.1721 L427.2917,365.1797 L427.0833,364.5508 L431.25,368.7174 L431.9573,368.7174 L432.5377,378.7923 L433.2006,388.8672 L429.2467,398.9421 L433.1348,409.0169 L430.4264,419.0918 L431.25,429.1667 L427.0833,433.3333 L427.0833,434.8161 L416.4263,431.9583 L405.7692,433.1431 L395.1122,435.3933 L384.4551,433.198 L373.7981,433.6258 L363.141,434.274 L352.484,434.4895 L341.8269,433.3225 L331.1699,434.1311 L320.5128,431.7433 L309.8558,434.1233 L299.1987,434.8561 L288.5417,433.3333 L284.375,429.1667 L285.6098,429.1667 L286.0778,418.9815 L283.0331,408.7963 L282.5634,398.6111 L282.6489,388.4259 L284.2114,378.2407 L283.8291,368.0556 L286.2678,357.8704 L283.8898,347.6852 L284.375,337.5 L288.5417,333.3333 " fill="#666666" style="stroke:#FFC107;stroke-width:2.0833333333333335;"/><path d="M284.375,364.5508 L284.375,364.8427 L294.6429,363.9753 L304.9107,364.8192 L315.1786,365.1059 L325.4464,363.56 L335.7143,364.4428 L345.9821,363.9584 L356.25,364.0181 L366.5179,364.4561 L376.7857,363.5905 L387.0536,365.3197 L397.3214,363.6754 L407.5893,364.2761 L417.8571,365.1507 L428.125,364.5508 " fill="#666666" style="stroke:#FFC107;stroke-width:2.0833333333333335;"/><text fill="#FFC107" font-family="Segoe Print" font-size="12.5" font-weight="bold" lengthAdjust="spacing" textLength="119.7917" x="293.75" y="352.2278">This is my folder</text></g><!--cluster Foo--><g id="cluster_Foo"><polygon fill="#666666" points="300,464.5833,300,464.8023,310.4167,464.1517,320.8333,464.7847,331.25,464.9997,341.6667,463.8402,352.0833,464.5024,362.5,464.1391,372.9167,464.1839,383.3333,464.5123,393.75,463.8632,404.1667,465.16,414.5833,464.5833,414.4996,464.3811,415.1463,464.764,415.8192,465.2101,416.3397,465.288,416.9494,465.5815,417.5296,465.8037,417.5194,465.7995,417.831,466.4167,418.0945,467.014,418.4497,467.6493,418.7212,468.2499,418.75,468.75,419.4576,468.75,419.0152,478.9352,419.2329,489.1204,419.4815,499.3056,417.9988,509.4907,419.4568,519.6759,418.4411,529.8611,419.3061,540.0463,418.2344,550.2315,418.75,560.4167,418.728,560.4076,418.7438,561.1045,418.2462,561.5887,418.0515,562.1984,417.8823,562.8187,417.5296,563.3629,417.5849,563.4965,416.9398,563.6058,416.3893,563.9432,415.6858,563.9116,415.2104,564.4305,414.5833,564.5833,414.5833,565.1544,404.1667,565.0464,393.75,565.2219,383.3333,564.0801,372.9167,563.904,362.5,563.936,352.0833,564.522,341.6667,564.3786,331.25,565.2931,320.8333,564.4014,310.4167,564.226,300,564.5833,300.0303,564.6566,299.3221,564.1253,298.7525,563.9286,298.3185,564.0593,297.7009,563.7468,297.0537,563.3629,297.2893,563.4605,296.7064,562.7309,296.668,562.2268,296.5109,561.6736,295.9259,560.9432,295.8333,560.4167,295.7335,560.4167,295.9646,550.2315,296.5122,540.0463,295.829,529.8611,296.3152,519.6759,295.2565,509.4907,295.1279,499.3056,296.3579,489.1204,295.0865,478.9352,295.8333,468.75,295.9966,468.8176,296.1437,468.1882,296.2355,467.5359,296.4521,466.9352,296.9568,466.4539,297.0537,465.8037,297.0139,465.7077,297.7216,465.7495,298.1588,465.1383,298.9035,465.2696,299.4751,464.9828,300,464.5833" style="stroke:#17A2B8;stroke-width:2.0833333333333335;"/><path d="M343.75,464.5833 L343.9446,464.5833 L343.3664,468.1185 L343.929,471.6536 L344.1201,475.1888 L343.0894,478.724 L343.75,482.2591 L343.6991,482.2082 L341.3874,484.0632 L339.3322,486.1747 L337.4554,488.4645 L334.964,490.1398 L333.3333,492.6758 L333.3333,493.1884 L325.8333,492.0922 L318.3333,492.4927 L310.8333,493.0757 L303.3333,492.5964 L295.8333,492.6758 " fill="none" style="stroke:#17A2B8;stroke-width:2.0833333333333335;"/><text fill="#17A2B8" font-family="Segoe Print" font-size="12.5" font-weight="bold" lengthAdjust="spacing" textLength="27.0833" x="304.1667" y="482.4361">Foo</text></g><!--entity HTTP--><g id="elem_HTTP"><polygon fill="#C6303E" points="241.7127,77.027,240.4912,78.6961,239.0464,81.1407,236.98,82.7882,234.8086,83.6891,233.0773,83.7673,230.852,82.6406,228.7524,81.9045,227.1587,80.41,226.3228,78.6991,225.827,77.3368,225.3413,75.5573,224.553,74.0261,225.1588,72.5311,225.6895,70.8934,227.6813,69.5981,229.0825,67.9175,230.817,67.3594,232.8789,66.8788,235.523,67.1644,236.9713,67.8474,238.6551,68.157,240.7024,70.2545,241.4161,72.4689,241.7262,73.9798,241.375,76.4696" style="stroke:#DC3545;stroke-width:1.0416666666666667;"/><text fill="#555555" font-family="Segoe Print" font-size="12.5" lengthAdjust="spacing" textLength="32.2917" x="217.1875" y="109.5194">HTTP</text></g><!--entity First Component--><g id="elem_First Component"><polygon fill="#474747" points="38.0208,50,38.0208,50.2189,48.0903,49.5684,58.1597,50.2013,68.2292,50.4163,78.2986,49.2569,88.3681,49.919,98.4375,49.5557,108.5069,49.6005,118.5764,49.929,128.6458,49.2798,138.7153,50.5767,148.7847,49.3435,158.8542,49.794,168.9236,50.4499,178.9931,49.9106,189.0625,50,189.0716,50.0219,189.6475,50.2338,190.2647,50.5454,190.862,50.8089,191.4973,51.1642,192.0088,51.2204,192.224,51.3096,192.4708,51.8999,192.5786,52.4327,192.8897,53.0498,193.2104,53.6707,193.2292,54.1667,192.4779,54.1667,193.9359,63.7435,192.9203,73.3203,193.7852,82.8971,192.7135,92.474,193.2292,102.0508,193.2072,102.0417,193.223,102.7386,192.7254,103.2228,192.5307,103.8325,192.3615,104.4528,192.0088,104.9971,192.0641,105.1306,191.419,105.2399,190.8684,105.5774,190.165,105.5457,189.6895,106.0646,189.0625,106.2174,189.0625,106.7885,178.9931,106.6805,168.9236,106.856,158.8542,105.7142,148.7847,105.5381,138.7153,105.5702,128.6458,106.1561,118.5764,106.0127,108.5069,106.9273,98.4375,106.0355,88.3681,105.8601,78.2986,106.4552,68.2292,105.5228,58.1597,105.6767,48.0903,106.8934,38.0208,106.2174,38.0787,106.3572,37.5292,106.209,36.7996,105.6261,36.2955,105.5876,35.7423,105.4305,35.0746,104.9971,34.923,104.9343,34.7997,104.3951,34.6268,103.8353,34.5514,103.3159,34.0969,102.6395,33.8542,102.0508,34.336,102.0508,33.2773,92.474,33.1487,82.8971,34.3788,73.3203,33.1074,63.7435,33.8542,54.1667,34.0174,54.2343,34.1645,53.6049,34.2564,52.9526,34.4729,52.3519,34.9776,51.8706,35.0746,51.2204,35.0348,51.1244,35.7425,51.1662,36.1796,50.5549,36.9244,50.6862,37.4959,50.3994,38.0208,50" style="stroke:#333333;stroke-width:1.0416666666666667;"/><polygon fill="#474747" points="172.3958,55.2083,172.3958,55.2813,175.5208,55.0645,178.6458,55.2754,181.7708,55.3471,184.8958,54.9606,188.0208,55.2083,187.9938,55.2083,187.8727,57.2917,187.8877,59.375,187.9972,61.4583,187.7808,63.5417,188.0208,65.625,188.0208,65.8172,184.8958,65.4062,181.7708,65.5563,178.6458,65.775,175.5208,65.5952,172.3958,65.625,172.4195,65.625,172.3847,63.5417,172.4578,61.4583,172.4789,59.375,172.5992,57.2917,172.3958,55.2083" style="stroke:#333333;stroke-width:1.0416666666666667;"/><polygon fill="#474747" points="170.3125,57.2917,170.3125,57.3646,171.1458,57.1478,171.9792,57.3588,172.8125,57.4304,173.6458,57.044,174.4792,57.2917,174.4522,57.2917,174.3311,57.7083,174.346,58.125,174.4555,58.5417,174.2391,58.9583,174.4792,59.375,174.4792,59.5672,173.6458,59.1562,172.8125,59.3063,171.9792,59.525,171.1458,59.3452,170.3125,59.375,170.3362,59.375,170.3014,58.9583,170.3745,58.5417,170.3955,58.125,170.5159,57.7083,170.3125,57.2917" style="stroke:#333333;stroke-width:1.0416666666666667;"/><polygon fill="#474747" points="170.3125,61.4583,170.3125,61.5313,171.1458,61.3145,171.9792,61.5254,172.8125,61.5971,173.6458,61.2106,174.4792,61.4583,174.4522,61.4583,174.3311,61.875,174.346,62.2917,174.4555,62.7083,174.2391,63.125,174.4792,63.5417,174.4792,63.7339,173.6458,63.3228,172.8125,63.473,171.9792,63.6916,171.1458,63.5119,170.3125,63.5417,170.3362,63.5417,170.3014,63.125,170.3745,62.7083,170.3955,62.2917,170.5159,61.875,170.3125,61.4583" style="stroke:#333333;stroke-width:1.0416666666666667;"/><text fill="#FFFFFF" font-family="Segoe Print" font-size="12.5" lengthAdjust="spacing" textLength="107.2917" x="54.6875" y="87.6444">First Component</text></g><!--entity Another Component--><g id="elem_Another Component"><polygon fill="#474747" points="265.625,50,265.625,50.2189,275.9191,49.5684,286.2132,50.2013,296.5074,50.4163,306.8015,49.2569,317.0956,49.919,327.3897,49.5557,337.6838,49.6005,347.9779,49.929,358.2721,49.2798,368.5662,50.5767,378.8603,49.3435,389.1544,49.794,399.4485,50.4499,409.7426,49.9106,420.0368,50.0711,430.3309,49.9667,440.625,50,440.6487,50.0573,441.246,50.3208,441.8813,50.676,442.4819,50.9475,443.0723,51.1942,443.5713,51.2204,443.653,51.2542,443.9641,51.8712,444.2847,52.4922,444.0722,52.8923,444.7652,53.6676,444.7917,54.1667,444.4828,54.1667,445.3477,63.7435,444.276,73.3203,444.7203,82.8971,445.5642,92.474,444.7917,102.0508,444.776,102.0443,444.5814,102.654,444.4121,103.2743,444.193,103.8739,443.8141,104.4073,443.5713,104.9971,443.6094,105.0892,442.906,105.0575,442.4306,105.5764,441.8764,105.9051,441.2733,106.116,440.625,106.2174,440.625,106.856,430.3309,105.7142,420.0368,105.5381,409.7426,105.5702,399.4485,106.1561,389.1544,106.0127,378.8603,106.9273,368.5662,106.0355,358.2721,105.8601,347.9779,106.4552,337.6838,105.5228,327.3897,105.6767,317.0956,106.8934,306.8015,106.6713,296.5074,106.9825,286.2132,105.8822,275.9191,106.5499,265.625,106.2174,265.7035,106.4068,264.973,105.8218,264.4338,105.6985,263.874,105.5256,263.3546,105.4502,262.6787,104.9971,262.6774,104.9965,262.583,104.4693,262.0129,103.745,261.7292,103.1393,261.864,102.707,261.4583,102.0508,260.7115,102.0508,261.9885,92.474,261.6736,82.8971,261.1793,73.3203,261.0898,63.7435,261.4583,54.1667,261.6055,54.2276,261.6064,53.5376,262.1364,53.0668,262.0133,52.3255,262.6327,51.8917,262.6787,51.2204,262.7431,51.3757,263.3005,51.0549,263.8635,50.7474,264.543,50.7212,265.1173,50.4409,265.625,50" style="stroke:#333333;stroke-width:1.0416666666666667;"/><polygon fill="#474747" points="423.9583,55.2083,423.9583,55.2813,427.0833,55.0645,430.2083,55.2754,433.3333,55.3471,436.4583,54.9606,439.5833,55.2083,439.5563,55.2083,439.4352,57.2917,439.4502,59.375,439.5597,61.4583,439.3433,63.5417,439.5833,65.625,439.5833,65.8172,436.4583,65.4062,433.3333,65.5563,430.2083,65.775,427.0833,65.5952,423.9583,65.625,423.982,65.625,423.9472,63.5417,424.0203,61.4583,424.0414,59.375,424.1617,57.2917,423.9583,55.2083" style="stroke:#333333;stroke-width:1.0416666666666667;"/><polygon fill="#474747" points="421.875,57.2917,421.875,57.3646,422.7083,57.1478,423.5417,57.3588,424.375,57.4304,425.2083,57.044,426.0417,57.2917,426.0147,57.2917,425.8936,57.7083,425.9085,58.125,426.018,58.5417,425.8016,58.9583,426.0417,59.375,426.0417,59.5672,425.2083,59.1562,424.375,59.3063,423.5417,59.525,422.7083,59.3452,421.875,59.375,421.8987,59.375,421.8639,58.9583,421.937,58.5417,421.958,58.125,422.0784,57.7083,421.875,57.2917" style="stroke:#333333;stroke-width:1.0416666666666667;"/><polygon fill="#474747" points="421.875,61.4583,421.875,61.5313,422.7083,61.3145,423.5417,61.5254,424.375,61.5971,425.2083,61.2106,426.0417,61.4583,426.0147,61.4583,425.8936,61.875,425.9085,62.2917,426.018,62.7083,425.8016,63.125,426.0417,63.5417,426.0417,63.7339,425.2083,63.3228,424.375,63.473,423.5417,63.6916,422.7083,63.5119,421.875,63.5417,421.8987,63.5417,421.8639,63.125,421.937,62.7083,421.958,62.2917,422.0784,61.875,421.875,61.4583" style="stroke:#333333;stroke-width:1.0416666666666667;"/><text fill="#FFFFFF" font-family="Segoe Print" font-size="12.5" lengthAdjust="spacing" textLength="131.25" x="282.2917" y="87.6444">Another Component</text></g><!--entity FTP--><g id="elem_FTP"><polygon fill="#C6303E" points="60.4627,213.4853,59.2412,215.1544,57.7964,217.599,55.73,219.2465,53.5586,220.1474,51.8273,220.2256,49.602,219.0989,47.5024,218.3628,45.9087,216.8683,45.0728,215.1574,44.577,213.7951,44.0913,212.0157,43.303,210.4844,43.9088,208.9894,44.4395,207.3517,46.4313,206.0564,47.8325,204.3758,49.567,203.8178,51.6289,203.3372,54.273,203.6227,55.7213,204.3057,57.4051,204.6153,59.4524,206.7129,60.1661,208.9272,60.4762,210.4381,60.125,212.9279" style="stroke:#DC3545;stroke-width:1.0416666666666667;"/><text fill="#555555" font-family="Segoe Print" font-size="12.5" lengthAdjust="spacing" textLength="22.9167" x="40.625" y="245.9778">FTP</text></g><!--entity Second Component--><g id="elem_Second Component"><polygon fill="#474747" points="96.3542,186.4583,96.3542,186.6773,106.4645,186.0267,116.5748,186.6597,126.685,186.8747,136.7953,185.7152,146.9056,186.3774,157.0159,186.0141,167.1262,186.0589,177.2365,186.3873,187.3468,185.7382,197.4571,187.035,207.5674,185.8018,217.6777,186.2523,227.788,186.9083,237.8983,186.369,248.0086,186.5294,258.1189,186.4251,268.2292,186.4583,268.2529,186.5156,268.8502,186.7791,269.4855,187.1344,270.0861,187.4058,270.6764,187.6525,271.1754,187.6787,271.2571,187.7126,271.5682,188.3296,271.8889,188.9505,271.6763,189.3507,272.3694,190.1259,272.3958,190.625,272.087,190.625,272.9519,200.2018,271.8802,209.7786,272.3245,219.3555,273.1683,228.9323,272.3958,238.5091,272.3802,238.5026,272.1855,239.1124,272.0163,239.7326,271.7971,240.3322,271.4183,240.8656,271.1754,241.4554,271.2136,241.5475,270.5101,241.5158,270.0347,242.0348,269.4805,242.3635,268.8775,242.5743,268.2292,242.6758,268.2292,243.3143,258.1189,242.1726,248.0086,241.9964,237.8983,242.0285,227.788,242.6144,217.6777,242.4711,207.5674,243.3856,197.4571,242.4938,187.3468,242.3184,177.2365,242.9136,167.1262,241.9812,157.0159,242.135,146.9056,243.3518,136.7953,243.1296,126.685,243.4409,116.5748,242.3406,106.4645,243.0083,96.3542,242.6758,96.4326,242.8652,95.7021,242.2802,95.1629,242.1569,94.6031,241.984,94.0837,241.9085,93.4079,241.4554,93.4065,241.4548,93.3122,240.9276,92.7421,240.2033,92.4584,239.5976,92.5931,239.1653,92.1875,238.5091,91.4407,238.5091,92.7177,228.9323,92.4027,219.3555,91.9084,209.7786,91.819,200.2018,92.1875,190.625,92.3347,190.686,92.3356,189.996,92.8655,189.5251,92.7424,188.7838,93.3619,188.35,93.4079,187.6787,93.4722,187.8341,94.0297,187.5132,94.5927,187.2057,95.2722,187.1796,95.8464,186.8992,96.3542,186.4583" style="stroke:#333333;stroke-width:1.0416666666666667;"/><polygon fill="#474747" points="251.5625,191.6667,251.5625,191.7396,254.6875,191.5228,257.8125,191.7338,260.9375,191.8054,264.0625,191.419,267.1875,191.6667,267.1605,191.6667,267.0394,193.75,267.0543,195.8333,267.1638,197.9167,266.9474,200,267.1875,202.0833,267.1875,202.2756,264.0625,201.8645,260.9375,202.0147,257.8125,202.2333,254.6875,202.0535,251.5625,202.0833,251.5862,202.0833,251.5514,200,251.6245,197.9167,251.6455,195.8333,251.7659,193.75,251.5625,191.6667" style="stroke:#333333;stroke-width:1.0416666666666667;"/><polygon fill="#474747" points="249.4792,193.75,249.4792,193.823,250.3125,193.6061,251.1458,193.8171,251.9792,193.8888,252.8125,193.5023,253.6458,193.75,253.6188,193.75,253.4977,194.1667,253.5127,194.5833,253.6222,195,253.4058,195.4167,253.6458,195.8333,253.6458,196.0256,252.8125,195.6145,251.9792,195.7647,251.1458,195.9833,250.3125,195.8035,249.4792,195.8333,249.5029,195.8333,249.4681,195.4167,249.5412,195,249.5622,194.5833,249.6825,194.1667,249.4792,193.75" style="stroke:#333333;stroke-width:1.0416666666666667;"/><polygon fill="#474747" points="249.4792,197.9167,249.4792,197.9896,250.3125,197.7728,251.1458,197.9838,251.9792,198.0554,252.8125,197.669,253.6458,197.9167,253.6188,197.9167,253.4977,198.3333,253.5127,198.75,253.6222,199.1667,253.4058,199.5833,253.6458,200,253.6458,200.1922,252.8125,199.7812,251.9792,199.9313,251.1458,200.15,250.3125,199.9702,249.4792,200,249.5029,200,249.4681,199.5833,249.5412,199.1667,249.5622,198.75,249.6825,198.3333,249.4792,197.9167" style="stroke:#333333;stroke-width:1.0416666666666667;"/><text fill="#FFFFFF" font-family="Segoe Print" font-size="12.5" lengthAdjust="spacing" textLength="128.125" x="113.0208" y="224.1028">Second Component</text></g><!--entity Example 1--><g id="elem_Example 1"><polygon fill="#474747" points="302.0833,186.4583,302.0833,186.6773,312.1212,186.0267,322.1591,186.6597,332.197,186.8747,342.2348,185.7152,352.2727,186.3774,362.3106,186.0141,372.3485,186.0589,382.3864,186.3873,392.4242,185.7382,402.4621,187.035,412.5,186.4583,412.4163,186.2561,413.063,186.639,413.7359,187.0851,414.2564,187.163,414.8661,187.4565,415.4463,187.6787,415.436,187.6745,415.7476,188.2917,416.0111,188.889,416.3664,189.5243,416.6379,190.1249,416.6667,190.625,417.3742,190.625,416.9319,200.2018,417.1496,209.7786,417.3982,219.3555,415.9154,228.9323,416.6667,238.5091,416.8843,238.5993,416.3275,239.059,416.3498,239.7586,415.7756,240.2111,415.6684,240.857,415.4463,241.4554,415.5448,241.6933,414.8505,241.6838,414.2818,241.9773,413.7235,242.2963,413.1446,242.5652,412.5,242.6758,412.5,242.6717,402.4621,242.975,392.4242,242.0795,382.3864,242.972,372.3485,243.2468,362.3106,243.1388,352.2727,243.3143,342.2348,242.1726,332.197,241.9964,322.1591,242.0285,312.1212,242.6144,302.0833,242.6758,302.0572,242.6127,301.5846,242.6503,300.8816,242.1316,300.27,241.8335,299.7566,241.7727,299.1371,241.4554,298.9231,241.3668,298.7264,240.7972,298.8571,240.3631,298.5446,239.7455,298.3964,239.196,297.9167,238.5091,297.5815,238.5091,298.2492,228.9323,298.5317,219.3555,297.4246,209.7786,297.8168,200.2018,297.9167,190.625,297.9571,190.6417,298.3698,190.1223,298.4035,189.4459,298.7973,188.9187,298.7153,188.1944,299.1371,187.6787,299.0471,187.4615,299.7932,187.5962,300.2203,186.9606,300.9725,187.1098,301.5215,186.7687,302.0833,186.4583" style="stroke:#333333;stroke-width:1.0416666666666667;"/><polygon fill="#474747" points="395.8333,191.6667,395.8333,191.7396,398.9583,191.5228,402.0833,191.7338,405.2083,191.8054,408.3333,191.419,411.4583,191.6667,411.4313,191.6667,411.3102,193.75,411.3252,195.8333,411.4347,197.9167,411.2183,200,411.4583,202.0833,411.4583,202.2756,408.3333,201.8645,405.2083,202.0147,402.0833,202.2333,398.9583,202.0535,395.8333,202.0833,395.857,202.0833,395.8222,200,395.8953,197.9167,395.9164,195.8333,396.0367,193.75,395.8333,191.6667" style="stroke:#333333;stroke-width:1.0416666666666667;"/><polygon fill="#474747" points="393.75,193.75,393.75,193.823,394.5833,193.6061,395.4167,193.8171,396.25,193.8888,397.0833,193.5023,397.9167,193.75,397.8897,193.75,397.7686,194.1667,397.7835,194.5833,397.893,195,397.6766,195.4167,397.9167,195.8333,397.9167,196.0256,397.0833,195.6145,396.25,195.7647,395.4167,195.9833,394.5833,195.8035,393.75,195.8333,393.7737,195.8333,393.7389,195.4167,393.812,195,393.833,194.5833,393.9534,194.1667,393.75,193.75" style="stroke:#333333;stroke-width:1.0416666666666667;"/><polygon fill="#474747" points="393.75,197.9167,393.75,197.9896,394.5833,197.7728,395.4167,197.9838,396.25,198.0554,397.0833,197.669,397.9167,197.9167,397.8897,197.9167,397.7686,198.3333,397.7835,198.75,397.893,199.1667,397.6766,199.5833,397.9167,200,397.9167,200.1922,397.0833,199.7812,396.25,199.9313,395.4167,200.15,394.5833,199.9702,393.75,200,393.7737,200,393.7389,199.5833,393.812,199.1667,393.833,198.75,393.9534,198.3333,393.75,197.9167" style="stroke:#333333;stroke-width:1.0416666666666667;"/><text fill="#FFFFFF" font-family="Segoe Print" font-size="12.5" lengthAdjust="spacing" textLength="66.6667" x="318.75" y="224.1028">Example 1</text></g><!--entity Folder 3--><g id="elem_Folder 3"><polygon fill="#474747" points="308.8542,368.75,308.8542,368.9689,319.6181,368.3184,330.3819,368.9513,341.1458,369.1663,351.9097,368.0069,362.6736,368.669,373.4375,368.3057,384.2014,368.3505,394.9653,368.679,405.7292,368.75,405.6373,368.5282,406.392,369.1717,406.8239,369.036,407.4707,369.4188,408.1436,369.8649,408.6754,369.9704,408.6479,369.959,408.9414,370.5687,409.1534,371.1447,409.4649,371.7619,409.7285,372.3592,409.8958,372.9167,410.5059,372.9167,410.5948,382.4935,410.6034,392.0703,410.1611,401.6471,410.3787,411.224,409.8958,420.8008,410.1211,420.8941,409.4204,421.2942,409.6253,422.0695,409.0685,422.5291,409.0908,423.2287,408.6754,423.7471,408.6097,423.5883,408.0771,423.9692,407.5955,424.4731,406.9012,424.4637,406.3324,424.7572,405.7292,424.9674,405.7292,425.3202,394.9653,425.401,384.2014,424.9634,373.4375,425.2666,362.6736,424.3712,351.9097,425.2637,341.1458,425.5385,330.3819,425.4305,319.6181,425.606,308.8542,424.9674,308.79,424.8125,308.1783,424.5142,307.5931,424.28,307.0786,424.2163,306.471,423.9281,305.9079,423.7471,306.1265,423.8376,305.6078,423.1346,305.3097,422.523,305.2489,422.0096,304.7177,421.3014,304.6875,420.8008,304.1467,420.8008,305.3635,411.224,305.1413,401.6471,305.4526,392.0703,304.3523,382.4935,304.6875,372.9167,304.7899,372.9591,305.121,372.4059,305.0241,371.6754,305.389,371.1362,305.7042,370.5764,305.9079,369.9704,305.9945,370.1795,306.4966,369.725,307.1479,369.6306,307.6021,369.0605,308.1749,368.7768,308.8542,368.75" style="stroke:#333333;stroke-width:1.0416666666666667;"/><polygon fill="#474747" points="389.0625,373.9583,389.0625,374.0313,392.1875,373.8145,395.3125,374.0254,398.4375,374.0971,401.5625,373.7106,404.6875,373.9583,404.6605,373.9583,404.5394,376.0417,404.5543,378.125,404.6638,380.2083,404.4474,382.2917,404.6875,384.375,404.6875,384.5672,401.5625,384.1562,398.4375,384.3063,395.3125,384.525,392.1875,384.3452,389.0625,384.375,389.0862,384.375,389.0514,382.2917,389.1245,380.2083,389.1455,378.125,389.2659,376.0417,389.0625,373.9583" style="stroke:#333333;stroke-width:1.0416666666666667;"/><polygon fill="#474747" points="386.9792,376.0417,386.9792,376.1146,387.8125,375.8978,388.6458,376.1088,389.4792,376.1804,390.3125,375.794,391.1458,376.0417,391.1188,376.0417,390.9977,376.4583,391.0127,376.875,391.1222,377.2917,390.9058,377.7083,391.1458,378.125,391.1458,378.3172,390.3125,377.9062,389.4792,378.0563,388.6458,378.275,387.8125,378.0952,386.9792,378.125,387.0029,378.125,386.9681,377.7083,387.0412,377.2917,387.0622,376.875,387.1825,376.4583,386.9792,376.0417" style="stroke:#333333;stroke-width:1.0416666666666667;"/><polygon fill="#474747" points="386.9792,380.2083,386.9792,380.2813,387.8125,380.0645,388.6458,380.2754,389.4792,380.3471,390.3125,379.9606,391.1458,380.2083,391.1188,380.2083,390.9977,380.625,391.0127,381.0417,391.1222,381.4583,390.9058,381.875,391.1458,382.2917,391.1458,382.4839,390.3125,382.0728,389.4792,382.223,388.6458,382.4416,387.8125,382.2619,386.9792,382.2917,387.0029,382.2917,386.9681,381.875,387.0412,381.4583,387.0622,381.0417,387.1825,380.625,386.9792,380.2083" style="stroke:#333333;stroke-width:1.0416666666666667;"/><text fill="#FFFFFF" font-family="Segoe Print" font-size="12.5" lengthAdjust="spacing" textLength="53.125" x="325.5208" y="406.3944">Folder 3</text></g><!--entity Frame 4--><g id="elem_Frame 4"><polygon fill="#474747" points="308.8542,500,308.8542,500.2189,319.6181,499.5684,330.3819,500.2013,341.1458,500.4163,351.9097,499.2569,362.6736,499.919,373.4375,499.5557,384.2014,499.6005,394.9653,499.929,405.7292,500,405.6373,499.7782,406.392,500.4217,406.8239,500.286,407.4707,500.6688,408.1436,501.1149,408.6754,501.2204,408.6479,501.209,408.9414,501.8187,409.1534,502.3947,409.4649,503.0119,409.7285,503.6092,409.8958,504.1667,410.5059,504.1667,410.5948,513.7435,410.6034,523.3203,410.1611,532.8971,410.3787,542.474,409.8958,552.0508,410.1211,552.1441,409.4204,552.5442,409.6253,553.3195,409.0685,553.7791,409.0908,554.4787,408.6754,554.9971,408.6097,554.8383,408.0771,555.2192,407.5955,555.7231,406.9012,555.7137,406.3324,556.0072,405.7292,556.2174,405.7292,556.5702,394.9653,556.651,384.2014,556.2134,373.4375,556.5166,362.6736,555.6212,351.9097,556.5137,341.1458,556.7885,330.3819,556.6805,319.6181,556.856,308.8542,556.2174,308.79,556.0625,308.1783,555.7642,307.5931,555.53,307.0786,555.4663,306.471,555.1781,305.9079,554.9971,306.1265,555.0876,305.6078,554.3846,305.3097,553.773,305.2489,553.2596,304.7177,552.5514,304.6875,552.0508,304.1467,552.0508,305.3635,542.474,305.1413,532.8971,305.4526,523.3203,304.3523,513.7435,304.6875,504.1667,304.7899,504.2091,305.121,503.6559,305.0241,502.9254,305.389,502.3862,305.7042,501.8264,305.9079,501.2204,305.9945,501.4295,306.4966,500.975,307.1479,500.8806,307.6021,500.3105,308.1749,500.0268,308.8542,500" style="stroke:#333333;stroke-width:1.0416666666666667;"/><polygon fill="#474747" points="389.0625,505.2083,389.0625,505.2813,392.1875,505.0645,395.3125,505.2754,398.4375,505.3471,401.5625,504.9606,404.6875,505.2083,404.6605,505.2083,404.5394,507.2917,404.5543,509.375,404.6638,511.4583,404.4474,513.5417,404.6875,515.625,404.6875,515.8172,401.5625,515.4062,398.4375,515.5563,395.3125,515.775,392.1875,515.5952,389.0625,515.625,389.0862,515.625,389.0514,513.5417,389.1245,511.4583,389.1455,509.375,389.2659,507.2917,389.0625,505.2083" style="stroke:#333333;stroke-width:1.0416666666666667;"/><polygon fill="#474747" points="386.9792,507.2917,386.9792,507.3646,387.8125,507.1478,388.6458,507.3588,389.4792,507.4304,390.3125,507.044,391.1458,507.2917,391.1188,507.2917,390.9977,507.7083,391.0127,508.125,391.1222,508.5417,390.9058,508.9583,391.1458,509.375,391.1458,509.5672,390.3125,509.1562,389.4792,509.3063,388.6458,509.525,387.8125,509.3452,386.9792,509.375,387.0029,509.375,386.9681,508.9583,387.0412,508.5417,387.0622,508.125,387.1825,507.7083,386.9792,507.2917" style="stroke:#333333;stroke-width:1.0416666666666667;"/><polygon fill="#474747" points="386.9792,511.4583,386.9792,511.5313,387.8125,511.3145,388.6458,511.5254,389.4792,511.5971,390.3125,511.2106,391.1458,511.4583,391.1188,511.4583,390.9977,511.875,391.0127,512.2917,391.1222,512.7083,390.9058,513.125,391.1458,513.5417,391.1458,513.7339,390.3125,513.3228,389.4792,513.473,388.6458,513.6916,387.8125,513.5119,386.9792,513.5417,387.0029,513.5417,386.9681,513.125,387.0412,512.7083,387.0622,512.2917,387.1825,511.875,386.9792,511.4583" style="stroke:#333333;stroke-width:1.0416666666666667;"/><text fill="#FFFFFF" font-family="Segoe Print" font-size="12.5" lengthAdjust="spacing" textLength="53.125" x="325.5208" y="537.6444">Frame 4</text></g><path d="M223.8991,78.125 L223.8991,78.2223 L217.8082,77.9332 L211.7172,78.2145 L205.6263,78.31 L199.5354,77.7947 L193.4444,78.125 " fill="none" style="stroke:#333333;stroke-width:3.125;"/><path d="M61.8701,214.5833 L61.8701,214.6806 L67.8917,214.3915 L73.9133,214.6728 L79.935,214.7684 L85.9566,214.2531 L91.9782,214.5833 " fill="none" style="stroke:#333333;stroke-width:3.125;"/><path d="M100.6548,106.3594 L100.7431,106.4005 L96.8083,114.1733 L93.3907,122.1867 L89.8047,130.1218 L85.6648,137.7992 L82.2917,145.8333 L82.2589,145.8185 L79.369,151.8324 L76.6444,157.9209 L74.0348,164.0612 L71.0291,170.0228 L68.5782,176.2347 L68.8125,176.3386 L66.0256,181.2717 L63.9229,186.5082 L61.9036,191.7817 L59.3988,196.8398 L57.1493,202.0112 " fill="none" style="stroke:#333333;stroke-width:3.125;"/><polygon fill="#333333" points="57.1493,202.0112,57.1984,202.0652,58.5712,200.525,60.2318,199.3014,61.7987,197.9748,63.0575,196.309,64.7428,195.1126,64.733,195.0875,63.5906,195.4011,62.4973,195.8415,61.4383,196.3701,60.2614,196.5949,59.2497,197.2451,59.4289,197.3147,58.6191,196.0673,58.3326,195.023,58.11,194.0035,57.5159,192.8399,57.1171,191.752,57.1408,191.7521,57.1125,193.8038,57.192,195.8559,57.2194,197.9078,57.3462,199.96,57.1493,202.0112" style="stroke:#333333;stroke-width:1.0416666666666667;"/><path d="M353.9682,106.3595 L354.26,106.3685 L353.7032,116.3454 L354.8569,126.3752 L355.4536,136.3879 L354.2186,146.3437 L355.4113,156.3748 L355.2373,166.3635 L355.6072,176.3691 L356.4497,186.3893 " fill="none" style="stroke:#333333;stroke-width:3.125;"/><polygon fill="#333333" points="356.4497,186.3893,356.5173,186.4169,357.0913,184.4351,358.0615,182.6148,358.9027,180.7419,359.3197,178.6961,360.3238,176.8897,360.3042,176.8712,359.4088,177.647,358.6126,178.516,357.8853,179.4498,356.9205,180.1603,356.2883,181.1835,356.42,181.3236,355.2797,180.2169,354.5238,179.5192,353.8147,178.8715,352.8329,177.9334,351.9945,177.148,352.0159,177.1583,352.8756,178.9914,353.8324,180.8714,354.7424,182.7288,355.7419,184.6294,356.4497,186.3893" style="stroke:#333333;stroke-width:1.0416666666666667;"/><path d="M357.2917,242.9948 L357.5836,242.9948 L356.7162,253.4537 L357.5601,263.9126 L357.8468,274.3715 L356.3008,284.8305 L357.1837,295.2894 L356.6993,305.7483 L356.759,316.2072 L357.197,326.6661 L356.3314,337.1251 L358.0606,347.584 L356.4163,358.0429 L357.2917,368.5018 " fill="none" style="stroke:#333333;stroke-width:3.125;"/><polygon fill="#333333" points="357.2917,368.5018,357.3584,368.5315,357.9935,366.5684,359.0197,364.7791,359.9185,362.9332,360.3986,360.9012,361.4583,359.1268,361.4393,359.1077,360.5203,359.8554,359.6975,360.6993,358.9416,361.6101,357.9553,362.2904,357.2917,363.2935,357.4276,363.4294,356.3036,362.3054,355.5764,361.5783,354.8977,360.8995,353.9373,359.9391,353.125,359.1268,353.1467,359.1364,353.9482,360.9973,354.8483,362.902,355.7009,364.7855,356.6442,366.7094,357.2917,368.5018" style="stroke:#333333;stroke-width:1.0416666666666667;"/><path d="M357.2917,425.3096 L357.5836,425.3096 L356.7162,435.9411 L357.5601,446.5725 L357.8468,457.204 L356.3008,467.8355 L357.1837,478.4669 L356.6993,489.0984 L357.2917,499.7299 " fill="none" style="stroke:#333333;stroke-width:3.125;"/><polygon fill="#333333" points="357.2917,499.7299,357.3584,499.7595,357.9935,497.7965,359.0197,496.0071,359.9185,494.1613,360.3986,492.1293,361.4583,490.3549,361.4393,490.3358,360.5203,491.0835,359.6975,491.9274,358.9416,492.8382,357.9553,493.5185,357.2917,494.5216,357.4276,494.6575,356.3036,493.5335,355.5764,492.8063,354.8977,492.1276,353.9373,491.1672,353.125,490.3549,353.1467,490.3645,353.9482,492.2254,354.8483,494.1301,355.7009,496.0136,356.6442,497.9375,357.2917,499.7299" style="stroke:#333333;stroke-width:1.0416666666666667;"/></g></svg>