<?xml version="1.0" encoding="UTF-8" standalone="no"?><svg xmlns="http://www.w3.org/2000/svg" xmlns:xlink="http://www.w3.org/1999/xlink" contentStyleType="text/css" height="425px" preserveAspectRatio="none" style="width:596px;height:425px;background:#FFFFFF;" version="1.1" viewBox="0 0 596 425" width="596px" zoomAndPan="magnify"><defs/><g><!--MD5=[e209b37fc91f378abaa2ddf468318055]
entity actor--><g id="elem_actor"><ellipse cx="54" cy="12.9951" fill="#F1F1F1" rx="8" ry="8" style="stroke:#181818;stroke-width:0.5;"/><path d="M54,20.9951 L54,47.9951 M41,28.9951 L67,28.9951 M54,47.9951 L41,62.9951 M54,47.9951 L67,62.9951 " fill="none" style="stroke:#181818;stroke-width:0.5;"/><text fill="#000000" font-family="sans-serif" font-size="14" lengthAdjust="spacing" textLength="35" x="36.5" y="77.4902">actor</text></g><!--MD5=[aa4ec301efc5ec191ce15dba8ac8080e]
entity actor/--><g id="elem_actor/"><ellipse cx="110" cy="12.9951" fill="#F1F1F1" rx="8" ry="8" style="stroke:#181818;stroke-width:0.5;"/><line style="stroke:#181818;stroke-width:0.5;" x1="108.0562" x2="117.7603" y1="20.7554" y2="11.0513"/><path d="M110,20.9951 L110,47.9951 M97,28.9951 L123,28.9951 M110,47.9951 L97,62.9951 M110,47.9951 L123,62.9951 " fill="none" style="stroke:#181818;stroke-width:0.5;"/><text fill="#000000" font-family="sans-serif" font-size="14" lengthAdjust="spacing" textLength="40" x="90" y="77.4902">actor/</text></g><!--MD5=[3908db504f15eb564d5f0e12bd7273c1]
entity agent--><g id="elem_agent"><rect fill="#F1F1F1" height="36.2969" rx="2.5" ry="2.5" style="stroke:#181818;stroke-width:0.5;" width="60" x="148" y="24.4951"/><text fill="#000000" font-family="sans-serif" font-size="14" lengthAdjust="spacing" textLength="40" x="158" y="47.4902">agent</text></g><!--MD5=[ed13bbfe61d4f4be62c09eebe4db66d3]
entity artifact--><g id="elem_artifact"><rect fill="#F1F1F1" height="39.2969" rx="2.5" ry="2.5" style="stroke:#181818;stroke-width:0.5;" width="76" x="226" y="22.9951"/><polygon fill="#F1F1F1" points="285,27.9951,285,41.9951,297,41.9951,297,33.9951,291,27.9951,285,27.9951" style="stroke:#181818;stroke-width:0.5;"/><line style="stroke:#181818;stroke-width:0.5;" x1="291" x2="291" y1="27.9951" y2="33.9951"/><line style="stroke:#181818;stroke-width:0.5;" x1="297" x2="291" y1="33.9951" y2="33.9951"/><text fill="#000000" font-family="sans-serif" font-size="14" lengthAdjust="spacing" textLength="46" x="236" y="48.9902">artifact</text></g><!--MD5=[6cbf048fd2d5a055b0f2cbfd23391788]
entity boundary--><g id="elem_boundary"><path d="M332.5,22.4951 L332.5,46.4951 M332.5,34.4951 L349.5,34.4951 " fill="none" style="stroke:#181818;stroke-width:0.5;"/><ellipse cx="361.5" cy="34.4951" fill="#F1F1F1" rx="12" ry="12" style="stroke:#181818;stroke-width:0.5;"/><text fill="#000000" font-family="sans-serif" font-size="14" lengthAdjust="spacing" textLength="65" x="320.5" y="63.4902">boundary</text></g><!--MD5=[0568ea600d1c2ace8679ac75c80dfc89]
entity card--><g id="elem_card"><rect fill="#F1F1F1" height="22.2969" rx="2.5" ry="2.5" style="stroke:#181818;stroke-width:0.5;" width="50" x="404" y="30.4951"/><text fill="#000000" font-family="sans-serif" font-size="14" lengthAdjust="spacing" textLength="30" x="414" y="46.4902">card</text></g><!--MD5=[da456bc05ddb284180092693c9c3b3b1]
entity circle--><g id="elem_circle"><ellipse cx="54" cy="137.4951" fill="#F1F1F1" rx="8" ry="8" style="stroke:#181818;stroke-width:0.5;"/><text fill="#000000" font-family="sans-serif" font-size="14" lengthAdjust="spacing" textLength="36" x="36" y="167.4902">circle</text></g><!--MD5=[3a4d72efb1b53e1acbdd1189cccbc328]
entity cloud--><g id="elem_cloud"><path d="M90.0949,126.4977 C92.4559,120.3985 98.1645,119.1996 102.2344,124.7109 C105.8758,116.8161 110.116,115.8003 116.0803,122.5084 C120.3929,117.4877 126.1148,118.0721 128.5918,124.5123 C133.1555,119.1623 138.4581,120.8867 141.0613,126.7018 C148.7778,128.898 151.9459,135.8723 144.8015,141.7597 C150.7663,147.0719 150.5835,153.5037 142.605,156.7764 C140.0481,164.9245 134.9278,165.6883 128.7131,160.6217 C126.9015,167.6753 121.7965,167.769 117.1711,163.4866 C112.0942,168.6174 105.1217,168.4822 102.8737,160.4206 C98.0728,166.4943 92.4492,163.292 90.4313,157.5018 C81.9312,154.975 81.2998,148.8278 86.5049,142.6723 C79.8642,136.7873 82.4472,129.2113 90.0949,126.4977 " fill="#F1F1F1" style="stroke:#181818;stroke-width:0.5;"/><text fill="#000000" font-family="sans-serif" font-size="14" lengthAdjust="spacing" textLength="38" x="96" y="145.4902">cloud</text></g><!--MD5=[a5a7a1c563e7de0fee7f3171b646813b]
entity collections--><g id="elem_collections"><rect fill="#F1F1F1" height="32.2969" rx="2.5" ry="2.5" style="stroke:#181818;stroke-width:0.5;" width="90" x="171" y="126.4951"/><rect fill="#F1F1F1" height="32.2969" rx="2.5" ry="2.5" style="stroke:#181818;stroke-width:0.5;" width="90" x="167" y="122.4951"/><text fill="#000000" font-family="sans-serif" font-size="14" lengthAdjust="spacing" textLength="74" x="175" y="143.4902">collections</text></g><!--MD5=[5f175ec018c225c86e8e77149e6345d4]
entity component--><g id="elem_component"><rect fill="#F1F1F1" height="46.2969" rx="2.5" ry="2.5" style="stroke:#181818;stroke-width:0.5;" width="120" x="279" y="117.4951"/><rect fill="#F1F1F1" height="10" style="stroke:#181818;stroke-width:0.5;" width="15" x="379" y="122.4951"/><rect fill="#F1F1F1" height="2" style="stroke:#181818;stroke-width:0.5;" width="4" x="377" y="124.4951"/><rect fill="#F1F1F1" height="2" style="stroke:#181818;stroke-width:0.5;" width="4" x="377" y="128.4951"/><text fill="#000000" font-family="sans-serif" font-size="14" lengthAdjust="spacing" textLength="80" x="294" y="150.4902">component</text></g><!--MD5=[0b4603c22bc0d9214baf3db11effa15f]
entity control--><g id="elem_control"><ellipse cx="441" cy="132.4951" fill="#F1F1F1" rx="12" ry="12" style="stroke:#181818;stroke-width:0.5;"/><polygon fill="#181818" points="437,120.4951,443,115.4951,441,120.4951,443,125.4951,437,120.4951" style="stroke:#181818;stroke-width:1.0;"/><text fill="#000000" font-family="sans-serif" font-size="14" lengthAdjust="spacing" textLength="48" x="417" y="161.4902">control</text></g><!--MD5=[f50ff5e4cd64f259303fc83dba1819fc]
entity database--><g id="elem_database"><path d="M483,127.9951 C483,117.9951 525,117.9951 525,117.9951 C525,117.9951 567,117.9951 567,127.9951 L567,153.292 C567,163.292 525,163.292 525,163.292 C525,163.292 483,163.292 483,153.292 L483,127.9951 " fill="#F1F1F1" style="stroke:#181818;stroke-width:0.5;"/><path d="M483,127.9951 C483,137.9951 525,137.9951 525,137.9951 C525,137.9951 567,137.9951 567,127.9951 " fill="none" style="stroke:#181818;stroke-width:0.5;"/><text fill="#000000" font-family="sans-serif" font-size="14" lengthAdjust="spacing" textLength="64" x="493" y="154.9902">database</text></g><!--MD5=[fbcd1a1664252f7f7ddf883fed3c1e0a]
entity entity--><g id="elem_entity"><ellipse cx="54" cy="219.4951" fill="#F1F1F1" rx="12" ry="12" style="stroke:#181818;stroke-width:0.5;"/><line style="stroke:#181818;stroke-width:0.5;" x1="42" x2="66" y1="233.4951" y2="233.4951"/><text fill="#000000" font-family="sans-serif" font-size="14" lengthAdjust="spacing" textLength="38" x="35" y="248.4902">entity</text></g><!--MD5=[7edcefaa406c65155265f04249a95b70]
entity file--><g id="elem_file"><path d="M91.5,211.9951 L91.5,243.292 A2.5,2.5 0 0 0 94,245.792 L128,245.792 A2.5,2.5 0 0 0 130.5,243.292 L130.5,219.4951 L120.5,209.4951 L94,209.4951 A2.5,2.5 0 0 0 91.5,211.9951 " fill="#F1F1F1" style="stroke:#181818;stroke-width:0.5;"/><path d="M120.5,209.4951 L120.5,216.9951 A2.5,2.5 0 0 0 123,219.4951 L130.5,219.4951 " fill="#F1F1F1" style="stroke:#181818;stroke-width:0.5;"/><text fill="#000000" font-family="sans-serif" font-size="14" lengthAdjust="spacing" textLength="19" x="101.5" y="232.4902">file</text></g><!--MD5=[18b72bf5d1838316b3d85261d2b42cce]
entity folder--><g id="elem_folder"><path d="M151.5,200.4951 L192.5,200.4951 A3.75,3.75 0 0 1 195,202.9951 L202,221.4951 L216.5,221.4951 A2.5,2.5 0 0 1 219,223.9951 L219,252.292 A2.5,2.5 0 0 1 216.5,254.792 L151.5,254.792 A2.5,2.5 0 0 1 149,252.292 L149,202.9951 A2.5,2.5 0 0 1 151.5,200.4951 " fill="#F1F1F1" style="stroke:#181818;stroke-width:0.5;"/><line style="stroke:#181818;stroke-width:0.5;" x1="149" x2="202" y1="221.4951" y2="221.4951"/><text fill="#000000" font-family="sans-serif" font-size="14" lengthAdjust="spacing" textLength="39" x="159" y="241.4902">folder</text></g><!--MD5=[7a641773cfca2682e51daa01eb969ffa]
entity frame--><g id="elem_frame"><rect fill="#F1F1F1" height="46.2969" rx="2.5" ry="2.5" style="stroke:#181818;stroke-width:0.5;" width="79" x="237.5" y="204.4951"/><path d="M263.8333,204.4951 L263.8333,209.4951 L256.8333,216.4951 L237.5,216.4951 " fill="none" style="stroke:#181818;stroke-width:0.5;"/><text fill="#000000" font-family="sans-serif" font-size="14" lengthAdjust="spacing" textLength="39" x="252.5" y="237.4902">frame</text></g><!--MD5=[ea4128e1b5db6200a10193b8015cde63]
entity interface--><g id="elem_interface"><ellipse cx="344" cy="224.4951" fill="#F1F1F1" rx="8" ry="8" style="stroke:#181818;stroke-width:0.5;"/><text fill="#000000" font-family="sans-serif" font-size="14" lengthAdjust="spacing" textLength="60" x="314" y="254.4902">interface</text></g><!--MD5=[a4a9a576f4d148d24afc849b85929192]
entity label--><g id="elem_label"><text fill="#000000" font-family="sans-serif" font-size="14" lengthAdjust="spacing" textLength="32" x="381" y="232.4902">label</text></g><!--MD5=[0b70d51bdd028022f5101c089cfdd98e]
entity node--><g id="elem_node"><polygon fill="#F1F1F1" points="16,305.9951,26,295.9951,92,295.9951,92,332.292,82,342.292,16,342.292,16,305.9951" style="stroke:#181818;stroke-width:0.5;"/><line style="stroke:#181818;stroke-width:0.5;" x1="82" x2="92" y1="305.9951" y2="295.9951"/><line style="stroke:#181818;stroke-width:0.5;" x1="16" x2="82" y1="305.9951" y2="305.9951"/><line style="stroke:#181818;stroke-width:0.5;" x1="82" x2="82" y1="305.9951" y2="342.292"/><text fill="#000000" font-family="sans-serif" font-size="14" lengthAdjust="spacing" textLength="36" x="31" y="328.9902">node</text></g><!--MD5=[18b4c220f17afa2fa1b7909f1259f27e]
entity package--><g id="elem_package"><path d="M113,299.4951 L185,299.4951 A3.75,3.75 0 0 1 187.5,301.9951 L194.5,321.792 L209,321.792 A2.5,2.5 0 0 1 211.5,324.292 L211.5,336.292 A2.5,2.5 0 0 1 209,338.792 L113,338.792 A2.5,2.5 0 0 1 110.5,336.292 L110.5,301.9951 A2.5,2.5 0 0 1 113,299.4951 " fill="#F1F1F1" style="stroke:#181818;stroke-width:0.5;"/><line style="stroke:#181818;stroke-width:0.5;" x1="110.5" x2="194.5" y1="321.792" y2="321.792"/><text fill="#000000" font-family="sans-serif" font-size="14" lengthAdjust="spacing" textLength="59" x="120.5" y="315.4902">package</text></g><!--MD5=[785617a40335b4b3f4a4f9c464842b0b]
entity person--><g id="elem_person"><ellipse cx="264" cy="301.0045" fill="#F1F1F1" rx="10.5094" ry="10.5094" style="stroke:#181818;stroke-width:0.5;"/><rect fill="#F1F1F1" height="36.2969" rx="10.5094" ry="10.5094" style="stroke:#181818;stroke-width:0.5;" width="69" x="229.5" y="311.5139"/><text fill="#000000" font-family="sans-serif" font-size="14" lengthAdjust="spacing" textLength="49" x="239.5" y="334.5091">person</text></g><!--MD5=[799e9543975076390d2a6ceafec8df6c]
entity queue--><g id="elem_queue"><path d="M321.5,305.9951 L376.5,305.9951 C381.5,305.9951 381.5,319.1436 381.5,319.1436 C381.5,319.1436 381.5,332.292 376.5,332.292 L321.5,332.292 C316.5,332.292 316.5,319.1436 316.5,319.1436 C316.5,319.1436 316.5,305.9951 321.5,305.9951 " fill="#F1F1F1" style="stroke:#181818;stroke-width:0.5;"/><path d="M376.5,305.9951 C371.5,305.9951 371.5,319.1436 371.5,319.1436 C371.5,332.292 376.5,332.292 376.5,332.292 " fill="none" style="stroke:#181818;stroke-width:0.5;"/><text fill="#000000" font-family="sans-serif" font-size="14" lengthAdjust="spacing" textLength="45" x="321.5" y="323.9902">queue</text></g><!--MD5=[7267aa9592867b0c03d3cbda6e92e719]
entity rectangle--><g id="elem_rectangle"><rect fill="#F1F1F1" height="36.2969" rx="2.5" ry="2.5" style="stroke:#181818;stroke-width:0.5;" width="85" x="399.5" y="300.9951"/><text fill="#000000" font-family="sans-serif" font-size="14" lengthAdjust="spacing" textLength="65" x="409.5" y="323.9902">rectangle</text></g><!--MD5=[f71e1929eceb486be132a5333dc4c68d]
entity stack--><g id="elem_stack"><rect fill="#F1F1F1" height="36.2969" rx="2.5" ry="2.5" style="stroke:none;stroke-width:0.5;" width="57" x="517.5" y="300.9951"/><path d="M502.5,300.9951 L515,300.9951 A2.5,2.5 0 0 1 517.5,303.4951 L517.5,334.792 A2.5,2.5 0 0 0 520,337.292 L572,337.292 A2.5,2.5 0 0 0 574.5,334.792 L574.5,303.4951 A2.5,2.5 0 0 1 577,300.9951 L589.5,300.9951 " fill="none" style="stroke:#181818;stroke-width:0.5;"/><text fill="#000000" font-family="sans-serif" font-size="14" lengthAdjust="spacing" textLength="37" x="527.5" y="323.9902">stack</text></g><!--MD5=[a5a6ae0ba01c8a4589ab26bd33e87aad]
entity storage--><g id="elem_storage"><rect fill="#F1F1F1" height="36.2969" rx="35" ry="35" style="stroke:#181818;stroke-width:0.5;" width="73" x="17.5" y="383.4951"/><text fill="#000000" font-family="sans-serif" font-size="14" lengthAdjust="spacing" textLength="53" x="27.5" y="406.4902">storage</text></g><g id="elem_usecase"><ellipse cx="163.0937" cy="401.7228" fill="#F1F1F1" rx="54.0937" ry="14.7277" style="stroke:#181818;stroke-width:0.5;"/><text fill="#000000" font-family="sans-serif" font-size="14" lengthAdjust="spacing" textLength="59" x="130.5937" y="405.4704">usecase</text></g><g id="elem_usecase/"><ellipse cx="292.8265" cy="401.2517" fill="#F1F1F1" rx="57.8265" ry="14.7566" style="stroke:#181818;stroke-width:0.5;"/><text fill="#000000" font-family="sans-serif" font-size="14" lengthAdjust="spacing" textLength="64" x="257.8265" y="404.9993">usecase/</text></g><line style="stroke:#181818;stroke-width:0.5;" x1="346.0439" x2="330.0837" y1="396.1076" y2="412.0678"/></g></svg>