<?xml version="1.0" encoding="us-ascii" standalone="no"?><svg xmlns="http://www.w3.org/2000/svg" xmlns:xlink="http://www.w3.org/1999/xlink" contentStyleType="text/css" height="660.4167px" preserveAspectRatio="none" style="width:837px;height:660px;" version="1.1" viewBox="0 0 837 660" width="837.5px" zoomAndPan="magnify"><defs><linearGradient id="gxi7u4qybmzux0" x1="50%" x2="50%" y1="0%" y2="100%"><stop offset="0%" stop-color="#F3F3F3"/><stop offset="100%" stop-color="#E2E2E2"/></linearGradient><linearGradient id="gxi7u4qybmzux1" x1="50%" x2="50%" y1="0%" y2="100%"><stop offset="0%" stop-color="#FFFFFF"/><stop offset="100%" stop-color="#FCFCFC"/></linearGradient><linearGradient id="gxi7u4qybmzux2" x1="50%" x2="50%" y1="0%" y2="100%"><stop offset="0%" stop-color="#5C85AD"/><stop offset="100%" stop-color="#336699"/></linearGradient><linearGradient id="gxi7u4qybmzux3" x1="50%" x2="50%" y1="0%" y2="100%"><stop offset="0%" stop-color="#F2FCFE"/><stop offset="100%" stop-color="#EEEEEE"/></linearGradient><linearGradient id="gxi7u4qybmzux4" x1="50%" x2="50%" y1="0%" y2="100%"><stop offset="0%" stop-color="#DBDBDB"/><stop offset="100%" stop-color="#D2D2D2"/></linearGradient><linearGradient id="gxi7u4qybmzux5" x1="50%" x2="50%" y1="0%" y2="100%"><stop offset="0%" stop-color="#FFBE68"/><stop offset="100%" stop-color="#FFAE42"/></linearGradient></defs><g><!--entity actor--><g id="elem_actor"><ellipse cx="64.5833" cy="32.2917" fill="url(#gxi7u4qybmzux0)" rx="8.3333" ry="8.3333" style="stroke:#F3F3F3;stroke-width:1.0416666666666667;"/><path d="M64.5833,40.625 L64.5833,68.75 M51.0417,48.9583 L78.125,48.9583 M64.5833,68.75 L51.0417,84.375 M64.5833,68.75 L78.125,84.375 " fill="none" style="stroke:#F3F3F3;stroke-width:1.0416666666666667;"/><text fill="#336699" font-family="Verdana" font-size="12.5" lengthAdjust="spacing" textLength="34.375" x="47.3958" y="108.4778">actor</text></g><!--entity actor/--><g id="elem_actor/"><ellipse cx="163.5417" cy="32.2917" fill="url(#gxi7u4qybmzux0)" rx="8.3333" ry="8.3333" style="stroke:#F3F3F3;stroke-width:1.0416666666666667;"/><line style="stroke:#F3F3F3;stroke-width:1.0416666666666667;" x1="161.5168" x2="171.6253" y1="40.3753" y2="30.2668"/><path d="M163.5417,40.625 L163.5417,68.75 M150,48.9583 L177.0833,48.9583 M163.5417,68.75 L150,84.375 M163.5417,68.75 L177.0833,84.375 " fill="none" style="stroke:#F3F3F3;stroke-width:1.0416666666666667;"/><text fill="#336699" font-family="Verdana" font-size="12.5" lengthAdjust="spacing" textLength="38.5417" x="144.2708" y="108.4778">actor/</text></g><!--entity agent--><g id="elem_agent"><rect fill="#FFA500" height="56.2174" rx="4.1667" ry="4.1667" style="stroke:#999999;stroke-width:1.0416666666666667;" width="80.2083" x="234.8958" y="44.2708"/><text fill="#333333" font-family="Verdana" font-size="12.5" lengthAdjust="spacing" textLength="38.5417" x="255.7292" y="76.7069">agent</text></g><!--entity artifact--><g id="elem_artifact"><rect fill="url(#gxi7u4qybmzux1)" height="59.3424" rx="4.1667" ry="4.1667" style="stroke:#A8A8A8;stroke-width:1.0416666666666667;" width="98.9583" x="356.7708" y="42.7083"/><polygon fill="url(#gxi7u4qybmzux1)" points="438.0208,47.9167,438.0208,62.5,450.5208,62.5,450.5208,54.1667,444.2708,47.9167,438.0208,47.9167" style="stroke:#A8A8A8;stroke-width:1.0416666666666667;"/><line style="stroke:#A8A8A8;stroke-width:1.0416666666666667;" x1="444.2708" x2="444.2708" y1="47.9167" y2="54.1667"/><line style="stroke:#A8A8A8;stroke-width:1.0416666666666667;" x1="450.5208" x2="444.2708" y1="54.1667" y2="54.1667"/><text fill="#A8A8A8" font-family="Verdana" font-size="12.5" lengthAdjust="spacing" textLength="46.875" x="377.6042" y="78.2694">artifact</text></g><!--entity boundary--><g id="elem_boundary"><path d="M517.1875,42.1875 L517.1875,67.1875 M517.1875,54.6875 L534.8958,54.6875 " fill="none" style="stroke:#F3F3F3;stroke-width:1.0416666666666667;"/><ellipse cx="547.3958" cy="54.6875" fill="url(#gxi7u4qybmzux0)" rx="12.5" ry="12.5" style="stroke:#F3F3F3;stroke-width:1.0416666666666667;"/><text fill="#336699" font-family="Verdana" font-size="12.5" lengthAdjust="spacing" textLength="61.4583" x="507.8125" y="93.3736">boundary</text></g><!--entity card--><g id="elem_card"><rect fill="url(#gxi7u4qybmzux2)" height="41.6341" rx="4.1667" ry="4.1667" style="stroke:#336699;stroke-width:1.0416666666666667;" width="70.8333" x="620.8333" y="51.5625"/><text fill="#FFFFFF" font-family="Verdana" font-size="12.5" lengthAdjust="spacing" textLength="29.1667" x="641.6667" y="76.7069">card</text></g><!--entity circle--><g id="elem_circle"><ellipse cx="64.5833" cy="213.5417" fill="#FF5C5C" rx="8.3333" ry="8.3333" style="stroke:#FF3333;stroke-width:1.0416666666666667;"/><text fill="#303030" font-family="Verdana" font-size="12.5" lengthAdjust="spacing" textLength="34.375" x="47.3958" y="253.2694">circle</text></g><!--entity cloud--><g id="elem_cloud"><path d="M126.1018,192.4394 C128.0513,186.8425 132.508,186.2285 136.2548,190.6108 C138.6774,184.8198 144.3883,184.214 148.4147,188.716 C151.4494,181.8204 157.844,183.1798 161.1571,188.4237 C165.3832,183.9246 169.3114,183.9666 172.447,189.6346 C176.7989,185.0537 180.3079,184.8842 183.4901,190.8584 C188.4157,185.8496 192.9871,185.6915 196.5469,192.3825 C203.077,194.9616 205.779,200.6458 199.746,206.1451 C206.7844,208.0119 209.4797,212.1029 205.129,218.8103 C210.3809,224.88 208.4379,230.3637 200.2797,231.1734 C203.6713,236.8749 201.9847,240.2794 195.9656,242.3476 C194.3649,249.3785 188.8369,249.5654 184.2201,245.5564 C181.4196,250.5768 177.0384,251.66 172.9185,247.1154 C170.2747,252.5981 166.7759,254.6556 161.6107,249.9 C155.585,255.9491 149.9681,254.3696 147.7724,246.1781 C143.4489,250.7345 138.964,250.9814 135.8834,244.8017 C132.1979,249.5559 127.3615,248.3417 125.5849,242.8778 C119.0512,238.9618 118.0704,234.9389 123.9526,229.5072 C118.699,225.0718 118.5881,221.1511 124.2158,216.9437 C118.7397,213.119 118.2583,209.3842 124.2353,205.5792 C118.5109,200.9973 120.1791,195.3669 126.1018,192.4394 " fill="url(#gxi7u4qybmzux3)" style="stroke:#FFFFFF;stroke-width:1.0416666666666667;"/><text fill="#336699" font-family="Verdana" font-size="12.5" lengthAdjust="spacing" textLength="35.4167" x="141.6667" y="220.9778">cloud</text></g><!--entity collections--><g id="elem_collections"><rect fill="url(#gxi7u4qybmzux0)" height="52.0508" rx="4.1667" ry="4.1667" style="stroke:#F3F3F3;stroke-width:1.0416666666666667;" width="107.2917" x="248.4375" y="192.7083"/><rect fill="url(#gxi7u4qybmzux0)" height="52.0508" rx="4.1667" ry="4.1667" style="stroke:#F3F3F3;stroke-width:1.0416666666666667;" width="107.2917" x="244.2708" y="188.5417"/><text fill="#336699" font-family="Verdana" font-size="12.5" lengthAdjust="spacing" textLength="69.7917" x="263.0208" y="218.8944">collections</text></g><!--entity component--><g id="elem_component"><rect fill="url(#gxi7u4qybmzux0)" height="66.6341" rx="4.1667" ry="4.1667" style="stroke:#F3F3F3;stroke-width:1.0416666666666667;" width="136.4583" x="397.3958" y="183.3333"/><rect fill="url(#gxi7u4qybmzux0)" height="10.4167" style="stroke:#F3F3F3;stroke-width:1.0416666666666667;" width="15.625" x="513.0208" y="188.5417"/><rect fill="url(#gxi7u4qybmzux0)" height="2.0833" style="stroke:#F3F3F3;stroke-width:1.0416666666666667;" width="4.1667" x="510.9375" y="190.625"/><rect fill="url(#gxi7u4qybmzux0)" height="2.0833" style="stroke:#F3F3F3;stroke-width:1.0416666666666667;" width="4.1667" x="510.9375" y="194.7917"/><text fill="#336699" font-family="Verdana" font-size="12.5" lengthAdjust="spacing" textLength="73.9583" x="423.4375" y="226.1861">component</text></g><!--entity control--><g id="elem_control"><ellipse cx="608.3333" cy="198.9583" fill="url(#gxi7u4qybmzux0)" rx="12.5" ry="12.5" style="stroke:#F3F3F3;stroke-width:1.0416666666666667;"/><polygon fill="#F3F3F3" points="604.1667,186.4583,610.4167,181.25,608.3333,186.4583,610.4167,191.6667,604.1667,186.4583" style="stroke:#F3F3F3;stroke-width:1.0416666666666667;"/><text fill="#336699" font-family="Verdana" font-size="12.5" lengthAdjust="spacing" textLength="45.8333" x="585.4167" y="237.6444">control</text></g><!--entity database--><g id="elem_database"><path d="M683.3333,194.2708 C683.3333,183.8542 735.4167,183.8542 735.4167,183.8542 C735.4167,183.8542 787.5,183.8542 787.5,194.2708 L787.5,239.0299 C787.5,249.4466 735.4167,249.4466 735.4167,249.4466 C735.4167,249.4466 683.3333,249.4466 683.3333,239.0299 L683.3333,194.2708 " fill="none" style="stroke:#F3F3F3;stroke-width:1.0416666666666667;"/><path d="M683.3333,194.2708 C683.3333,204.6875 735.4167,204.6875 735.4167,204.6875 C735.4167,204.6875 787.5,204.6875 787.5,194.2708 " fill="none" style="stroke:#F3F3F3;stroke-width:1.0416666666666667;"/><text fill="#336699" font-family="Verdana" font-size="12.5" lengthAdjust="spacing" textLength="62.5" x="704.1667" y="230.8736">database</text></g><!--entity entity--><g id="elem_entity"><ellipse cx="64.5833" cy="331.25" fill="url(#gxi7u4qybmzux0)" rx="12.5" ry="12.5" style="stroke:#F3F3F3;stroke-width:1.0416666666666667;"/><line style="stroke:#F3F3F3;stroke-width:1.0416666666666667;" x1="52.0833" x2="77.0833" y1="345.8333" y2="345.8333"/><text fill="#336699" font-family="Verdana" font-size="12.5" lengthAdjust="spacing" textLength="36.4583" x="46.3542" y="369.9361">entity</text></g><!--entity file--><g id="elem_file"><path d="M134.375,325 L134.375,372.8841 A4.1667,4.1667 0 0 0 138.5417,377.0508 L190.625,377.0508 A4.1667,4.1667 0 0 0 194.7917,372.8841 L194.7917,331.25 L184.375,320.8333 L138.5417,320.8333 A4.1667,4.1667 0 0 0 134.375,325 " fill="url(#gxi7u4qybmzux4)" style="stroke:#A8A8A8;stroke-width:1.0416666666666667;"/><path d="M184.375,320.8333 L184.375,327.0833 A4.1667,4.1667 0 0 0 188.5417,331.25 L194.7917,331.25 " fill="url(#gxi7u4qybmzux4)" style="stroke:#A8A8A8;stroke-width:1.0416666666666667;"/><text fill="#FFFFFF" font-family="Verdana" font-size="12.5" lengthAdjust="spacing" textLength="18.75" x="155.2083" y="353.2694">file</text></g><!--entity folder--><g id="elem_folder"><path d="M240.625,311.4583 L280.2083,311.4583 A6.25,6.25 0 0 1 284.375,315.625 L291.6667,333.3333 L321.875,333.3333 A4.1667,4.1667 0 0 1 326.0417,337.5 L326.0417,382.2591 A4.1667,4.1667 0 0 1 321.875,386.4258 L240.625,386.4258 A4.1667,4.1667 0 0 1 236.4583,382.2591 L236.4583,315.625 A4.1667,4.1667 0 0 1 240.625,311.4583 " fill="#F3F3F3" style="stroke:#FFAE42;stroke-width:2.0833333333333335;"/><line style="stroke:#FFAE42;stroke-width:2.0833333333333335;" x1="236.4583" x2="291.6667" y1="333.3333" y2="333.3333"/><text fill="#FFAE42" font-family="Verdana" font-size="12.5" lengthAdjust="spacing" textLength="37.5" x="257.2917" y="362.6444">folder</text></g><!--entity frame--><g id="elem_frame"><rect fill="#F3F3F3" height="66.6341" rx="4.1667" ry="4.1667" style="stroke:#336699;stroke-width:2.0833333333333335;" width="100" x="367.7083" y="315.625"/><path d="M401.0417,315.625 L401.0417,320.8333 L393.75,328.125 L367.7083,328.125 " fill="none" style="stroke:#336699;stroke-width:2.0833333333333335;"/><text fill="#336699" font-family="Verdana" font-size="12.5" lengthAdjust="spacing" textLength="37.5" x="393.75" y="358.4778">frame</text></g><!--entity interface--><g id="elem_interface"><ellipse cx="518.75" cy="345.8333" fill="#FF5C5C" rx="8.3333" ry="8.3333" style="stroke:#FF3333;stroke-width:1.0416666666666667;"/><text fill="#303030" font-family="Verdana" font-size="12.5" lengthAdjust="spacing" textLength="58.3333" x="489.5833" y="385.5611">interface</text></g><!--entity label--><g id="elem_label"><text fill="#E2E2E2" font-family="Verdana" font-size="12.5" lengthAdjust="spacing" textLength="31.25" x="590.625" y="353.2694">label</text></g><!--entity node--><g id="elem_node"><polygon fill="none" points="16.6667,466.6667,27.0833,456.25,112.5,456.25,112.5,512.4674,102.0833,522.8841,16.6667,522.8841,16.6667,466.6667" style="stroke:#F3F3F3;stroke-width:1.0416666666666667;"/><line style="stroke:#F3F3F3;stroke-width:1.0416666666666667;" x1="102.0833" x2="112.5" y1="466.6667" y2="456.25"/><line style="stroke:#F3F3F3;stroke-width:1.0416666666666667;" x1="16.6667" x2="102.0833" y1="466.6667" y2="466.6667"/><line style="stroke:#F3F3F3;stroke-width:1.0416666666666667;" x1="102.0833" x2="102.0833" y1="466.6667" y2="522.8841"/><text fill="#336699" font-family="Verdana" font-size="12.5" lengthAdjust="spacing" textLength="33.3333" x="42.7083" y="499.1028">node</text></g><!--entity package--><g id="elem_package"><path d="M158.3333,459.8958 L245.8333,459.8958 A6.25,6.25 0 0 1 250,464.0625 L257.2917,501.5299 L270.8333,501.5299 A4.1667,4.1667 0 0 1 275,505.6966 L275,515.0716 A4.1667,4.1667 0 0 1 270.8333,519.2383 L158.3333,519.2383 A4.1667,4.1667 0 0 1 154.1667,515.0716 L154.1667,464.0625 A4.1667,4.1667 0 0 1 158.3333,459.8958 " fill="none" style="stroke:#F3F3F3;stroke-width:2.0833333333333335;"/><line style="stroke:#F3F3F3;stroke-width:2.0833333333333335;" x1="154.1667" x2="257.2917" y1="501.5299" y2="501.5299"/><text fill="#336699" font-family="Verdana" font-size="12.5" lengthAdjust="spacing" textLength="56.25" x="175" y="485.0403">package</text></g><!--entity person--><g id="elem_person"><ellipse cx="360.4167" cy="461.6035" fill="url(#gxi7u4qybmzux4)" rx="14.7285" ry="14.7285" style="stroke:#D2D2D2;stroke-width:1.0416666666666667;"/><rect fill="url(#gxi7u4qybmzux4)" height="56.2174" rx="14.7285" ry="14.7285" style="stroke:#D2D2D2;stroke-width:1.0416666666666667;" width="87.5" x="316.6667" y="476.332"/><text fill="#E2E2E2" font-family="Verdana" font-size="12.5" lengthAdjust="spacing" textLength="45.8333" x="337.5" y="508.7681">person</text></g><!--entity queue--><g id="elem_queue"><path d="M451.0417,466.6667 L523.9583,466.6667 C529.1667,466.6667 529.1667,489.5671 529.1667,489.5671 C529.1667,489.5671 529.1667,512.4674 523.9583,512.4674 L451.0417,512.4674 C445.8333,512.4674 445.8333,489.5671 445.8333,489.5671 C445.8333,489.5671 445.8333,466.6667 451.0417,466.6667 " fill="url(#gxi7u4qybmzux0)" style="stroke:#F3F3F3;stroke-width:1.0416666666666667;"/><path d="M523.9583,466.6667 C518.75,466.6667 518.75,489.5671 518.75,489.5671 C518.75,512.4674 523.9583,512.4674 523.9583,512.4674 " fill="none" style="stroke:#F3F3F3;stroke-width:1.0416666666666667;"/><text fill="#336699" font-family="Verdana" font-size="12.5" lengthAdjust="spacing" textLength="41.6667" x="461.4583" y="493.8944">queue</text></g><!--entity rectangle--><g id="elem_rectangle"><rect fill="none" height="56.2174" rx="4.1667" ry="4.1667" style="stroke:#F3F3F3;stroke-width:2.0833333333333335;" width="104.1667" x="570.8333" y="461.4583"/><text fill="#336699" font-family="Verdana" font-size="12.5" lengthAdjust="spacing" textLength="62.5" x="591.6667" y="493.8944">rectangle</text></g><!--entity stack--><g id="elem_stack"><rect fill="url(#gxi7u4qybmzux0)" height="56.2174" rx="4.1667" ry="4.1667" style="stroke:none;stroke-width:1.0416666666666667;" width="77.0833" x="732.2917" y="461.4583"/><path d="M716.6667,461.4583 L728.125,461.4583 A4.1667,4.1667 0 0 1 732.2917,465.625 L732.2917,513.5091 A4.1667,4.1667 0 0 0 736.4583,517.6758 L805.2083,517.6758 A4.1667,4.1667 0 0 0 809.375,513.5091 L809.375,465.625 A4.1667,4.1667 0 0 1 813.5417,461.4583 L825,461.4583 " fill="none" style="stroke:#F3F3F3;stroke-width:1.0416666666666667;"/><text fill="#336699" font-family="Verdana" font-size="12.5" lengthAdjust="spacing" textLength="35.4167" x="753.125" y="493.8944">stack</text></g><!--entity storage--><g id="elem_storage"><rect fill="url(#gxi7u4qybmzux5)" height="56.2174" rx="36.4583" ry="36.4583" style="stroke:#FFAE42;stroke-width:1.0416666666666667;" width="92.7083" x="18.2292" y="592.7083"/><text fill="#FFFFFF" font-family="Verdana" font-size="12.5" lengthAdjust="spacing" textLength="51.0417" x="39.0625" y="625.1444">storage</text></g><g id="elem_usecase"><ellipse cx="217.8167" cy="620.8537" fill="url(#gxi7u4qybmzux0)" rx="65.7334" ry="28.1453" style="stroke:#F3F3F3;stroke-width:2.0833333333333335;"/><text fill="#336699" font-family="Verdana" font-size="12.5" lengthAdjust="spacing" textLength="55.2083" x="190.2126" y="623.0977">usecase</text></g><g id="elem_usecase/"><ellipse cx="393.6797" cy="620.8537" fill="url(#gxi7u4qybmzux0)" rx="68.6797" ry="28.1453" style="stroke:#F3F3F3;stroke-width:2.0833333333333335;"/><text fill="#336699" font-family="Verdana" font-size="12.5" lengthAdjust="spacing" textLength="59.375" x="363.9922" y="623.0977">usecase/</text></g><line style="stroke:#F3F3F3;stroke-width:2.0833333333333335;" x1="456.8853" x2="422.1915" y1="611.0422" y2="645.736"/></g></svg>