<svg xmlns="http://www.w3.org/2000/svg" xmlns:xlink="http://www.w3.org/1999/xlink" contentStyleType="text/css" height="434px" preserveAspectRatio="none" style="width:582px;height:434px;background:#FFFFFF;" version="1.1" viewBox="0 0 582 434" width="582px" zoomAndPan="magnify"><defs/><g><!--entity action--><g id="elem_action"><polygon fill="#F1F1F1" points="12.5,32,75.5938,32,85.5938,50.1484,75.5938,68.2969,12.5,68.2969" style="stroke:#181818;stroke-width:0.5;"/><text fill="#000000" font-family="sans-serif" font-size="14" lengthAdjust="spacing" textLength="43.0938" x="22.5" y="54.9951">action</text></g><!--entity actor--><g id="elem_actor"><ellipse cx="122.0435" cy="20.5" fill="#F1F1F1" rx="8" ry="8" style="stroke:#181818;stroke-width:0.5;"/><path d="M122.0435,28.5 L122.0435,55.5 M109.0435,36.5 L135.0435,36.5 M122.0435,55.5 L109.0435,70.5 M122.0435,55.5 L135.0435,70.5 " fill="none" style="stroke:#181818;stroke-width:0.5;"/><text fill="#000000" font-family="sans-serif" font-size="14" lengthAdjust="spacing" textLength="36.0869" x="104" y="84.9951">actor</text></g><!--entity actor/--><g id="elem_actor/"><ellipse cx="178.9019" cy="20.5" fill="#F1F1F1" rx="8" ry="8" style="stroke:#181818;stroke-width:0.5;"/><line style="stroke:#181818;stroke-width:0.5;" x1="176.958" x2="186.6621" y1="28.2603" y2="18.5562"/><path d="M178.9019,28.5 L178.9019,55.5 M165.9019,36.5 L191.9019,36.5 M178.9019,55.5 L165.9019,70.5 M178.9019,55.5 L191.9019,70.5 " fill="none" style="stroke:#181818;stroke-width:0.5;"/><text fill="#000000" font-family="sans-serif" font-size="14" lengthAdjust="spacing" textLength="40.8037" x="158.5" y="84.9951">actor/</text></g><!--entity agent--><g id="elem_agent"><rect fill="#F1F1F1" height="36.2969" rx="2.5" ry="2.5" style="stroke:#181818;stroke-width:0.5;" width="60.4414" x="218" y="32"/><text fill="#000000" font-family="sans-serif" font-size="14" lengthAdjust="spacing" textLength="40.4414" x="228" y="54.9951">agent</text></g><!--entity artifact--><g id="elem_artifact"><rect fill="#F1F1F1" height="39.2969" rx="2.5" ry="2.5" style="stroke:#181818;stroke-width:0.5;" width="80.4082" x="296" y="30.5"/><polygon fill="#F1F1F1" points="359.4082,35.5,359.4082,49.5,371.4082,49.5,371.4082,41.5,365.4082,35.5,359.4082,35.5" style="stroke:#181818;stroke-width:0.5;"/><line style="stroke:#181818;stroke-width:0.5;" x1="365.4082" x2="365.4082" y1="35.5" y2="41.5"/><line style="stroke:#181818;stroke-width:0.5;" x1="371.4082" x2="365.4082" y1="41.5" y2="41.5"/><text fill="#000000" font-family="sans-serif" font-size="14" lengthAdjust="spacing" textLength="50.4082" x="306" y="56.4951">artifact</text></g><!--entity boundary--><g id="elem_boundary"><path d="M407.3525,30 L407.3525,54 M407.3525,42 L424.3525,42 " fill="none" style="stroke:#181818;stroke-width:0.5;"/><ellipse cx="436.3525" cy="42" fill="#F1F1F1" rx="12" ry="12" style="stroke:#181818;stroke-width:0.5;"/><text fill="#000000" font-family="sans-serif" font-size="14" lengthAdjust="spacing" textLength="66.7051" x="394.5" y="70.9951">boundary</text></g><!--entity card--><g id="elem_card"><rect fill="#F1F1F1" height="22.2969" rx="2.5" ry="2.5" style="stroke:#181818;stroke-width:0.5;" width="50.9189" x="23.5" y="136"/><text fill="#000000" font-family="sans-serif" font-size="14" lengthAdjust="spacing" textLength="30.9189" x="33.5" y="151.9951">card</text></g><!--entity circle--><g id="elem_circle"><ellipse cx="102" cy="145" fill="#F1F1F1" rx="8" ry="8" style="stroke:#181818;stroke-width:0.5;"/><text fill="#000000" font-family="sans-serif" font-size="14" lengthAdjust="spacing" textLength="37.543" x="83.2285" y="174.9951">circle</text></g><!--entity cloud--><g id="elem_cloud"><path d="M137.0139,133.3665 C140.6723,125.8583 146.4096,125.9873 150.9754,132.4604 C154.2803,125.6964 159.9084,124.6966 164.0775,131.6339 C168.0233,125.3578 173.086,127.0386 176.229,132.4673 C180.1259,125.889 186.7984,127.4025 189.7801,133.4496 C198.697,136.6524 201.0786,143.3416 193.5768,150.254 C198.1608,156.8587 198.0456,161.3145 189.2371,163.547 C187.8387,169.7414 182.5222,172.0415 177.9557,166.6253 C173.8734,174.1761 169.0699,174.6381 163.126,168.6669 C158.4748,173.6348 153.2216,171.8869 150.7505,166.1472 C146.259,171.8698 141.1048,171.8331 137.9474,164.8074 C128.7214,163.9605 125.7211,157.7286 130.9525,150.0357 C124.8782,141.5034 126.8778,136.0042 137.0139,133.3665 " fill="#F1F1F1" style="stroke:#181818;stroke-width:0.5;"/><text fill="#000000" font-family="sans-serif" font-size="14" lengthAdjust="spacing" textLength="37.9121" x="144" y="152.9951">cloud</text></g><!--entity collections--><g id="elem_collections"><rect fill="#F1F1F1" height="32.2969" rx="2.5" ry="2.5" style="stroke:#181818;stroke-width:0.5;" width="90.4639" x="219" y="134"/><rect fill="#F1F1F1" height="32.2969" rx="2.5" ry="2.5" style="stroke:#181818;stroke-width:0.5;" width="90.4639" x="215" y="130"/><text fill="#000000" font-family="sans-serif" font-size="14" lengthAdjust="spacing" textLength="74.4639" x="223" y="150.9951">collections</text></g><!--entity component--><g id="elem_component"><rect fill="#F1F1F1" height="46.2969" rx="2.5" ry="2.5" style="stroke:#181818;stroke-width:0.5;" width="119.2012" x="327.5" y="125"/><rect fill="#F1F1F1" height="10" style="stroke:#181818;stroke-width:0.5;" width="15" x="426.7012" y="130"/><rect fill="#F1F1F1" height="2" style="stroke:#181818;stroke-width:0.5;" width="4" x="424.7012" y="132"/><rect fill="#F1F1F1" height="2" style="stroke:#181818;stroke-width:0.5;" width="4" x="424.7012" y="136"/><text fill="#000000" font-family="sans-serif" font-size="14" lengthAdjust="spacing" textLength="79.2012" x="342.5" y="157.9951">component</text></g><!--entity control--><g id="elem_control"><ellipse cx="488.918" cy="140" fill="#F1F1F1" rx="12" ry="12" style="stroke:#181818;stroke-width:0.5;"/><polygon fill="#181818" points="484.918,128,490.918,123,488.918,128,490.918,133,484.918,128" style="stroke:#181818;stroke-width:1.0;"/><text fill="#000000" font-family="sans-serif" font-size="14" lengthAdjust="spacing" textLength="48.8359" x="464.5" y="168.9951">control</text></g><!--entity database--><g id="elem_database"><path d="M6.5,222.5 C6.5,212.5 48.9536,212.5 48.9536,212.5 C48.9536,212.5 91.4072,212.5 91.4072,222.5 L91.4072,247.7969 C91.4072,257.7969 48.9536,257.7969 48.9536,257.7969 C48.9536,257.7969 6.5,257.7969 6.5,247.7969 L6.5,222.5 " fill="#F1F1F1" style="stroke:#181818;stroke-width:0.5;"/><path d="M6.5,222.5 C6.5,232.5 48.9536,232.5 48.9536,232.5 C48.9536,232.5 91.4072,232.5 91.4072,222.5 " fill="none" style="stroke:#181818;stroke-width:0.5;"/><text fill="#000000" font-family="sans-serif" font-size="14" lengthAdjust="spacing" textLength="64.9072" x="16.5" y="249.4951">database</text></g><!--entity entity--><g id="elem_entity"><ellipse cx="129.8198" cy="227" fill="#F1F1F1" rx="12" ry="12" style="stroke:#181818;stroke-width:0.5;"/><line style="stroke:#181818;stroke-width:0.5;" x1="117.8198" x2="141.8198" y1="241" y2="241"/><text fill="#000000" font-family="sans-serif" font-size="14" lengthAdjust="spacing" textLength="40.6396" x="109.5" y="255.9951">entity</text></g><!--entity file--><g id="elem_file"><path d="M168.5,219.5 L168.5,250.7969 A2.5,2.5 0 0 0 171,253.2969 L207.3213,253.2969 A2.5,2.5 0 0 0 209.8213,250.7969 L209.8213,227 L199.8213,217 L171,217 A2.5,2.5 0 0 0 168.5,219.5 " fill="#F1F1F1" style="stroke:#181818;stroke-width:0.5;"/><path d="M199.8213,217 L199.8213,224.5 A2.5,2.5 0 0 0 202.3213,227 L209.8213,227 " fill="#F1F1F1" style="stroke:#181818;stroke-width:0.5;"/><text fill="#000000" font-family="sans-serif" font-size="14" lengthAdjust="spacing" textLength="21.3213" x="178.5" y="239.9951">file</text></g><!--entity folder--><g id="elem_folder"><path d="M230,208 L271,208 A3.75,3.75 0 0 1 273.5,210.5 L280.5,229 L295.6396,229 A2.5,2.5 0 0 1 298.1396,231.5 L298.1396,259.7969 A2.5,2.5 0 0 1 295.6396,262.2969 L230,262.2969 A2.5,2.5 0 0 1 227.5,259.7969 L227.5,210.5 A2.5,2.5 0 0 1 230,208 " fill="#F1F1F1" style="stroke:#181818;stroke-width:0.5;"/><line style="stroke:#181818;stroke-width:0.5;" x1="227.5" x2="280.5" y1="229" y2="229"/><text fill="#000000" font-family="sans-serif" font-size="14" lengthAdjust="spacing" textLength="40.6396" x="237.5" y="248.9951">folder</text></g><!--entity frame--><g id="elem_frame"><rect fill="#F1F1F1" height="46.2969" rx="2.5" ry="2.5" style="stroke:#181818;stroke-width:0.5;" width="81.5146" x="317" y="212"/><path d="M344.1715,212 L344.1715,217 L337.1715,224 L317,224 " fill="none" style="stroke:#181818;stroke-width:0.5;"/><text fill="#000000" font-family="sans-serif" font-size="14" lengthAdjust="spacing" textLength="41.5146" x="332" y="244.9951">frame</text></g><!--entity interface--><g id="elem_interface"><ellipse cx="426" cy="232" fill="#F1F1F1" rx="8" ry="8" style="stroke:#181818;stroke-width:0.5;"/><text fill="#000000" font-family="sans-serif" font-size="14" lengthAdjust="spacing" textLength="62.4395" x="394.7803" y="261.9951">interface</text></g><!--entity label--><g id="elem_label"><text fill="#000000" font-family="sans-serif" font-size="14" lengthAdjust="spacing" textLength="33.8584" x="32" y="331.4951">label</text></g><!--entity node--><g id="elem_node"><polygon fill="#F1F1F1" points="94.5,313.5,104.5,303.5,169.4385,303.5,169.4385,339.7969,159.4385,349.7969,94.5,349.7969,94.5,313.5" style="stroke:#181818;stroke-width:0.5;"/><line style="stroke:#181818;stroke-width:0.5;" x1="159.4385" x2="169.4385" y1="313.5" y2="303.5"/><line style="stroke:#181818;stroke-width:0.5;" x1="94.5" x2="159.4385" y1="313.5" y2="313.5"/><line style="stroke:#181818;stroke-width:0.5;" x1="159.4385" x2="159.4385" y1="313.5" y2="349.7969"/><text fill="#000000" font-family="sans-serif" font-size="14" lengthAdjust="spacing" textLength="34.9385" x="109.5" y="336.4951">node</text></g><!--entity package--><g id="elem_package"><path d="M190.5,307 L269.542,307 A3.75,3.75 0 0 1 272.042,309.5 L279.042,329.2969 L293.542,329.2969 A2.5,2.5 0 0 1 296.042,331.7969 L296.042,343.7969 A2.5,2.5 0 0 1 293.542,346.2969 L190.5,346.2969 A2.5,2.5 0 0 1 188,343.7969 L188,309.5 A2.5,2.5 0 0 1 190.5,307 " fill="#F1F1F1" style="stroke:#181818;stroke-width:0.5;"/><line style="stroke:#181818;stroke-width:0.5;" x1="188" x2="279.042" y1="329.2969" y2="329.2969"/><text fill="#000000" font-family="sans-serif" font-size="14" font-weight="bold" lengthAdjust="spacing" textLength="66.042" x="198" y="322.9951">package</text></g><!--entity person--><g id="elem_person"><ellipse cx="347.9941" cy="308.4321" fill="#F1F1F1" rx="10.4321" ry="10.4321" style="stroke:#181818;stroke-width:0.5;"/><rect fill="#F1F1F1" height="36.2969" rx="10.4321" ry="10.4321" style="stroke:#181818;stroke-width:0.5;" width="67.9883" x="314" y="318.8642"/><text fill="#000000" font-family="sans-serif" font-size="14" lengthAdjust="spacing" textLength="47.9883" x="324" y="341.8593">person</text></g><!--entity process--><g id="elem_process"><polygon fill="#F1F1F1" points="400,308.5,484.1064,308.5,494.1064,326.6484,484.1064,344.7969,400,344.7969,410,326.6484" style="stroke:#181818;stroke-width:0.5;"/><text fill="#000000" font-family="sans-serif" font-size="14" lengthAdjust="spacing" textLength="54.1064" x="420" y="331.4951">process</text></g><!--entity queue--><g id="elem_queue"><path d="M517,313.5 L570.8594,313.5 C575.8594,313.5 575.8594,326.6484 575.8594,326.6484 C575.8594,326.6484 575.8594,339.7969 570.8594,339.7969 L517,339.7969 C512,339.7969 512,326.6484 512,326.6484 C512,326.6484 512,313.5 517,313.5 " fill="#F1F1F1" style="stroke:#181818;stroke-width:0.5;"/><path d="M570.8594,313.5 C565.8594,313.5 565.8594,326.6484 565.8594,326.6484 C565.8594,339.7969 570.8594,339.7969 570.8594,339.7969 " fill="none" style="stroke:#181818;stroke-width:0.5;"/><text fill="#000000" font-family="sans-serif" font-size="14" lengthAdjust="spacing" textLength="43.8594" x="517" y="331.4951">queue</text></g><!--entity rectangle--><g id="elem_rectangle"><rect fill="#F1F1F1" height="36.2969" rx="2.5" ry="2.5" style="stroke:#181818;stroke-width:0.5;" width="86.3975" x="6" y="391"/><text fill="#000000" font-family="sans-serif" font-size="14" lengthAdjust="spacing" textLength="66.3975" x="16" y="413.9951">rectangle</text></g><!--entity stack--><g id="elem_stack"><rect fill="#F1F1F1" height="36.2969" rx="2.5" ry="2.5" style="stroke:none;stroke-width:0.5;" width="57.167" x="125.5" y="391"/><path d="M110.5,391 L123,391 A2.5,2.5 0 0 1 125.5,393.5 L125.5,424.7969 A2.5,2.5 0 0 0 128,427.2969 L180.167,427.2969 A2.5,2.5 0 0 0 182.667,424.7969 L182.667,393.5 A2.5,2.5 0 0 1 185.167,391 L197.667,391 " fill="none" style="stroke:#181818;stroke-width:0.5;"/><text fill="#000000" font-family="sans-serif" font-size="14" lengthAdjust="spacing" textLength="37.167" x="135.5" y="413.9951">stack</text></g><!--entity storage--><g id="elem_storage"><rect fill="#F1F1F1" height="36.2969" rx="35" ry="35" style="stroke:#181818;stroke-width:0.5;" width="73.1836" x="215.5" y="391"/><text fill="#000000" font-family="sans-serif" font-size="14" lengthAdjust="spacing" textLength="53.1836" x="225.5" y="413.9951">storage</text></g><g id="elem_usecase"><ellipse cx="359.0738" cy="409.2148" fill="#F1F1F1" rx="52.5738" ry="14.7148" style="stroke:#181818;stroke-width:0.5;"/><text fill="#000000" font-family="sans-serif" font-size="14" lengthAdjust="spacing" textLength="56.9639" x="327.5918" y="412.9624">usecase</text></g><g id="elem_usecase/"><ellipse cx="486.0949" cy="409.2437" fill="#F1F1F1" rx="56.0949" ry="14.7437" style="stroke:#181818;stroke-width:0.5;"/><text fill="#000000" font-family="sans-serif" font-size="14" lengthAdjust="spacing" textLength="61.6807" x="452.2546" y="412.9912">usecase/</text></g><line style="stroke:#181818;stroke-width:0.5;" x1="537.7188" x2="521.6354" y1="404.104" y2="420.1874"/></g></svg>