<?xml version="1.0" encoding="UTF-8" standalone="no"?><svg xmlns="http://www.w3.org/2000/svg" xmlns:xlink="http://www.w3.org/1999/xlink" contentScriptType="application/ecmascript" contentStyleType="text/css" height="696.875px" preserveAspectRatio="none" style="width:838px;height:696px;background:#00000000;" version="1.1" viewBox="0 0 838 696" width="838.5417px" zoomAndPan="magnify"><defs><filter height="300%" id="fvcc3xmqhdnch" width="300%" x="-1" y="-1"><feGaussianBlur result="blurOut" stdDeviation="2.0833333333333335"/><feColorMatrix in="blurOut" result="blurOut2" type="matrix" values="0 0 0 0 0 0 0 0 0 0 0 0 0 0 0 0 0 0 .4 0"/><feOffset dx="4.166666666666667" dy="4.166666666666667" in="blurOut2" result="blurOut3"/><feBlend in="SourceGraphic" in2="blurOut3" mode="normal"/></filter><linearGradient id="gvcc3xmqhdnch0" x1="50%" x2="50%" y1="0%" y2="100%"><stop offset="0%" stop-color="#F2FCFE"/><stop offset="100%" stop-color="#EEEEEE"/></linearGradient></defs><g><rect height="55.5013" rx="4.1667" ry="4.1667" style="stroke:#CCCCCC;stroke-width:1.0416666666666667;fill:none;" width="272.9167" x="275.5208" y="2.0833"/><text fill="#2196F3" font-family="Verdana" font-size="20.8333" lengthAdjust="spacing" textLength="235.4167" x="294.2708" y="37.0463">materia-outline theme</text><!--MD5=[e209b37fc91f378abaa2ddf468318055]
entity actor--><ellipse cx="64.5833" cy="65.0208" filter="url(#fvcc3xmqhdnch)" rx="8.3333" ry="8.3333" style="stroke:#2196F3;stroke-width:1.5625;fill:none;"/><path d="M64.5833,73.3541 L64.5833,101.4791 M51.0417,81.6874 L78.125,81.6874 M64.5833,101.4791 L51.0417,117.1041 M64.5833,101.4791 L78.125,117.1041 " fill="none" filter="url(#fvcc3xmqhdnch)" style="stroke:#2196F3;stroke-width:1.5625;"/><text fill="#2196F3" font-family="Verdana" font-size="12.5" lengthAdjust="spacing" textLength="34.375" x="47.3958" y="144.8527">actor</text><!--MD5=[aa4ec301efc5ec191ce15dba8ac8080e]
entity actor/--><ellipse cx="163.5417" cy="65.0208" filter="url(#fvcc3xmqhdnch)" rx="8.3333" ry="8.3333" style="stroke:#2196F3;stroke-width:1.5625;fill:none;"/><line style="stroke:#2196F3;stroke-width:1.5625;fill:none;" x1="161.5168" x2="171.6253" y1="73.1043" y2="62.9959"/><path d="M163.5417,73.3541 L163.5417,101.4791 M150,81.6874 L177.0833,81.6874 M163.5417,101.4791 L150,117.1041 M163.5417,101.4791 L177.0833,117.1041 " fill="none" filter="url(#fvcc3xmqhdnch)" style="stroke:#2196F3;stroke-width:1.5625;"/><text fill="#2196F3" font-family="Verdana" font-size="12.5" lengthAdjust="spacing" textLength="38.5417" x="144.2708" y="144.8527">actor/</text><!--MD5=[3908db504f15eb564d5f0e12bd7273c1]
entity agent--><rect filter="url(#fvcc3xmqhdnch)" height="56.2174" rx="4.1667" ry="4.1667" style="stroke:#999999;stroke-width:1.5625;fill:none;" width="80.2083" x="234.8958" y="78.5624"/><text fill="#333333" font-family="Verdana" font-size="12.5" lengthAdjust="spacing" textLength="38.5417" x="255.7292" y="110.9985">agent</text><!--MD5=[ed13bbfe61d4f4be62c09eebe4db66d3]
entity artifact--><rect filter="url(#fvcc3xmqhdnch)" height="59.3424" rx="4.1667" ry="4.1667" style="stroke:#666666;stroke-width:1.5625;fill:none;" width="98.9583" x="356.7708" y="76.9999"/><polygon points="438.0208,82.2083,438.0208,96.7916,450.5208,96.7916,450.5208,88.4583,444.2708,82.2083,438.0208,82.2083" style="stroke:#666666;stroke-width:1.5625;fill:none;"/><line style="stroke:#666666;stroke-width:1.5625;fill:none;" x1="444.2708" x2="444.2708" y1="82.2083" y2="88.4583"/><line style="stroke:#666666;stroke-width:1.5625;fill:none;" x1="450.5208" x2="444.2708" y1="88.4583" y2="88.4583"/><text fill="#666666" font-family="Verdana" font-size="12.5" lengthAdjust="spacing" textLength="46.875" x="377.6042" y="112.561">artifact</text><!--MD5=[6cbf048fd2d5a055b0f2cbfd23391788]
entity boundary--><path d="M517.1875,76.4791 L517.1875,101.4791 M517.1875,88.9791 L534.8958,88.9791 " fill="none" filter="url(#fvcc3xmqhdnch)" style="stroke:#2196F3;stroke-width:1.5625;"/><ellipse cx="547.3958" cy="88.9791" filter="url(#fvcc3xmqhdnch)" rx="12.5" ry="12.5" style="stroke:#2196F3;stroke-width:1.5625;fill:none;"/><text fill="#2196F3" font-family="Verdana" font-size="12.5" lengthAdjust="spacing" textLength="61.4583" x="507.8125" y="127.6652">boundary</text><!--MD5=[0568ea600d1c2ace8679ac75c80dfc89]
entity card--><rect filter="url(#fvcc3xmqhdnch)" height="41.6341" rx="4.1667" ry="4.1667" style="stroke:#9C27B0;stroke-width:1.5625;fill:none;" width="70.8333" x="620.8333" y="85.8541"/><text fill="#9C27B0" font-family="Verdana" font-size="12.5" lengthAdjust="spacing" textLength="29.1667" x="641.6667" y="110.9985">card</text><!--MD5=[da456bc05ddb284180092693c9c3b3b1]
entity circle--><ellipse cx="64.5833" cy="249.9166" filter="url(#fvcc3xmqhdnch)" rx="8.3333" ry="8.3333" style="stroke:#E51C23;stroke-width:1.5625;fill:none;"/><text fill="#222222" font-family="Verdana" font-size="12.5" lengthAdjust="spacing" textLength="34.375" x="47.3958" y="289.6444">circle</text><!--MD5=[3a4d72efb1b53e1acbdd1189cccbc328]
entity cloud--><path d="M126.1018,228.8143 C128.0513,223.2174 132.508,222.6035 136.2548,226.9857 C138.6774,221.1947 144.3883,220.5889 148.4147,225.0909 C151.4494,218.1953 157.844,219.5547 161.1571,224.7986 C165.3832,220.2995 169.3114,220.3415 172.447,226.0095 C176.7989,221.4286 180.3079,221.2591 183.4901,227.2333 C188.4157,222.2245 192.9871,222.0664 196.5469,228.7574 C203.077,231.3365 205.779,237.0207 199.746,242.52 C206.7844,244.3868 209.4797,248.4778 205.129,255.1852 C210.3809,261.2549 208.4379,266.7386 200.2797,267.5483 C203.6713,273.2499 201.9847,276.6543 195.9656,278.7225 C194.3649,285.7534 188.8369,285.9403 184.2201,281.9313 C181.4196,286.9517 177.0384,288.0349 172.9185,283.4903 C170.2747,288.973 166.7759,291.0305 161.6107,286.275 C155.585,292.324 149.9681,290.7445 147.7724,282.5531 C143.4489,287.1094 138.964,287.3563 135.8834,281.1766 C132.1979,285.9308 127.3615,284.7166 125.5849,279.2527 C119.0512,275.3367 118.0704,271.3138 123.9526,265.8821 C118.699,261.4467 118.5881,257.5261 124.2158,253.3186 C118.7397,249.4939 118.2583,245.7591 124.2353,241.9541 C118.5109,237.3722 120.1791,231.7418 126.1018,228.8143 " fill="url(#gvcc3xmqhdnch0)" filter="url(#fvcc3xmqhdnch)" style="stroke:#F2FCFE;stroke-width:1.5625;"/><text fill="#222222" font-family="Verdana" font-size="12.5" lengthAdjust="spacing" textLength="35.4167" x="141.6667" y="257.3527">cloud</text><!--MD5=[a5a7a1c563e7de0fee7f3171b646813b]
entity collections--><rect filter="url(#fvcc3xmqhdnch)" height="52.0508" rx="4.1667" ry="4.1667" style="stroke:#2196F3;stroke-width:1.5625;fill:none;" width="107.2917" x="248.4375" y="229.0833"/><rect height="52.0508" rx="4.1667" ry="4.1667" style="stroke:#2196F3;stroke-width:1.5625;fill:none;" width="107.2917" x="244.2708" y="224.9166"/><text fill="#2196F3" font-family="Verdana" font-size="12.5" lengthAdjust="spacing" textLength="69.7917" x="263.0208" y="255.2694">collections</text><!--MD5=[5f175ec018c225c86e8e77149e6345d4]
entity component--><rect filter="url(#fvcc3xmqhdnch)" height="66.6341" rx="4.1667" ry="4.1667" style="stroke:#2196F3;stroke-width:1.5625;fill:none;" width="136.4583" x="397.3958" y="219.7083"/><rect height="10.4167" style="stroke:#2196F3;stroke-width:1.5625;fill:none;" width="15.625" x="513.0208" y="224.9166"/><rect height="2.0833" style="stroke:#2196F3;stroke-width:1.5625;fill:none;" width="4.1667" x="510.9375" y="226.9999"/><rect height="2.0833" style="stroke:#2196F3;stroke-width:1.5625;fill:none;" width="4.1667" x="510.9375" y="231.1666"/><text fill="#2196F3" font-family="Verdana" font-size="12.5" lengthAdjust="spacing" textLength="73.9583" x="423.4375" y="262.561">component</text><!--MD5=[0b4603c22bc0d9214baf3db11effa15f]
entity control--><ellipse cx="608.3333" cy="235.3333" filter="url(#fvcc3xmqhdnch)" rx="12.5" ry="12.5" style="stroke:#2196F3;stroke-width:1.5625;fill:none;"/><polygon fill="#2196F3" points="604.1667,222.8333,610.4167,217.6249,608.3333,222.8333,610.4167,228.0416,604.1667,222.8333" style="stroke:#2196F3;stroke-width:1.0416666666666667;"/><text fill="#2196F3" font-family="Verdana" font-size="12.5" lengthAdjust="spacing" textLength="45.8333" x="585.4167" y="274.0194">control</text><!--MD5=[f50ff5e4cd64f259303fc83dba1819fc]
entity database--><path d="M683.3333,230.6458 C683.3333,220.2291 735.4167,220.2291 735.4167,220.2291 C735.4167,220.2291 787.5,220.2291 787.5,230.6458 L787.5,275.4049 C787.5,285.8215 735.4167,285.8215 735.4167,285.8215 C735.4167,285.8215 683.3333,285.8215 683.3333,275.4049 L683.3333,230.6458 " filter="url(#fvcc3xmqhdnch)" style="stroke:#2196F3;stroke-width:1.5625;fill:none;"/><path d="M683.3333,230.6458 C683.3333,241.0624 735.4167,241.0624 735.4167,241.0624 C735.4167,241.0624 787.5,241.0624 787.5,230.6458 " fill="none" style="stroke:#2196F3;stroke-width:1.5625;"/><text fill="#2196F3" font-family="Verdana" font-size="12.5" lengthAdjust="spacing" textLength="62.5" x="704.1667" y="267.2485">database</text><!--MD5=[fbcd1a1664252f7f7ddf883fed3c1e0a]
entity entity--><ellipse cx="64.5833" cy="367.6249" filter="url(#fvcc3xmqhdnch)" rx="12.5" ry="12.5" style="stroke:#2196F3;stroke-width:1.5625;fill:none;"/><line style="stroke:#2196F3;stroke-width:1.5625;fill:none;" x1="52.0833" x2="77.0833" y1="382.2083" y2="382.2083"/><text fill="#2196F3" font-family="Verdana" font-size="12.5" lengthAdjust="spacing" textLength="36.4583" x="46.3542" y="406.311">entity</text><!--MD5=[7edcefaa406c65155265f04249a95b70]
entity file--><path d="M134.375,361.3749 L134.375,409.259 A4.1667,4.1667 0 0 0 138.5417,413.4257 L190.625,413.4257 A4.1667,4.1667 0 0 0 194.7917,409.259 L194.7917,367.6249 L184.375,357.2083 L138.5417,357.2083 A4.1667,4.1667 0 0 0 134.375,361.3749 " filter="url(#fvcc3xmqhdnch)" style="stroke:#666666;stroke-width:1.5625;fill:none;"/><path d="M184.375,357.2083 L184.375,363.4583 A4.1667,4.1667 0 0 0 188.5417,367.6249 L194.7917,367.6249 " style="stroke:#666666;stroke-width:1.5625;fill:none;"/><text fill="#666666" font-family="Verdana" font-size="12.5" lengthAdjust="spacing" textLength="18.75" x="155.2083" y="389.6444">file</text><!--MD5=[18b72bf5d1838316b3d85261d2b42cce]
entity folder--><path d="M240.625,347.8333 L280.2083,347.8333 A6.25,6.25 0 0 1 284.375,351.9999 L291.6667,369.7083 L321.875,369.7083 A4.1667,4.1667 0 0 1 326.0417,373.8749 L326.0417,418.634 A4.1667,4.1667 0 0 1 321.875,422.8007 L240.625,422.8007 A4.1667,4.1667 0 0 1 236.4583,418.634 L236.4583,351.9999 A4.1667,4.1667 0 0 1 240.625,347.8333 " filter="url(#fvcc3xmqhdnch)" style="stroke:#FF9800;stroke-width:1.5625;fill:none;"/><line style="stroke:#FF9800;stroke-width:1.5625;fill:none;" x1="236.4583" x2="291.6667" y1="369.7083" y2="369.7083"/><text fill="#FF9800" font-family="Verdana" font-size="12.5" lengthAdjust="spacing" textLength="37.5" x="257.2917" y="399.0194">folder</text><!--MD5=[7a641773cfca2682e51daa01eb969ffa]
entity frame--><rect filter="url(#fvcc3xmqhdnch)" height="66.6341" rx="4.1667" ry="4.1667" style="stroke:#9C27B0;stroke-width:1.5625;fill:none;" width="100" x="367.7083" y="351.9999"/><path d="M401.0417,351.9999 L401.0417,357.2083 L393.75,364.4999 L367.7083,364.4999 " fill="none" style="stroke:#9C27B0;stroke-width:1.5625;"/><text fill="#9C27B0" font-family="Verdana" font-size="12.5" lengthAdjust="spacing" textLength="37.5" x="393.75" y="394.8527">frame</text><!--MD5=[ea4128e1b5db6200a10193b8015cde63]
entity interface--><ellipse cx="518.75" cy="382.2083" filter="url(#fvcc3xmqhdnch)" rx="8.3333" ry="8.3333" style="stroke:#E51C23;stroke-width:1.5625;fill:none;"/><text fill="#222222" font-family="Verdana" font-size="12.5" lengthAdjust="spacing" textLength="58.3333" x="489.5833" y="421.936">interface</text><!--MD5=[a4a9a576f4d148d24afc849b85929192]
entity label--><text fill="#000000" font-family="Verdana" font-size="12.5" lengthAdjust="spacing" textLength="31.25" x="590.625" y="389.6444">label</text><!--MD5=[0b70d51bdd028022f5101c089cfdd98e]
entity node--><polygon filter="url(#fvcc3xmqhdnch)" points="16.6667,503.0416,27.0833,492.6249,112.5,492.6249,112.5,548.8424,102.0833,559.259,16.6667,559.259,16.6667,503.0416" style="stroke:#222222;stroke-width:1.5625;fill:none;"/><line style="stroke:#222222;stroke-width:1.5625;fill:none;" x1="102.0833" x2="112.5" y1="503.0416" y2="492.6249"/><line style="stroke:#222222;stroke-width:1.5625;fill:none;" x1="16.6667" x2="102.0833" y1="503.0416" y2="503.0416"/><line style="stroke:#222222;stroke-width:1.5625;fill:none;" x1="102.0833" x2="102.0833" y1="503.0416" y2="559.259"/><text fill="#222222" font-family="Verdana" font-size="12.5" lengthAdjust="spacing" textLength="33.3333" x="42.7083" y="535.4777">node</text><!--MD5=[18b4c220f17afa2fa1b7909f1259f27e]
entity package--><path d="M158.3333,496.2708 L252.0833,496.2708 A6.25,6.25 0 0 1 256.25,500.4374 L263.5417,537.9049 L277.0833,537.9049 A4.1667,4.1667 0 0 1 281.25,542.0715 L281.25,551.4465 A4.1667,4.1667 0 0 1 277.0833,555.6132 L158.3333,555.6132 A4.1667,4.1667 0 0 1 154.1667,551.4465 L154.1667,500.4374 A4.1667,4.1667 0 0 1 158.3333,496.2708 " filter="url(#fvcc3xmqhdnch)" style="stroke:#2196F3;stroke-width:2.0833333333333335;fill:none;"/><line style="stroke:#2196F3;stroke-width:2.0833333333333335;fill:none;" x1="154.1667" x2="263.5417" y1="537.9049" y2="537.9049"/><text fill="#2196F3" font-family="Verdana" font-size="12.5" font-weight="bold" lengthAdjust="spacing" textLength="62.5" x="175" y="521.4152">package</text><!--MD5=[785617a40335b4b3f4a4f9c464842b0b]
entity person--><ellipse cx="366.6667" cy="497.9784" fill="#FEFECE" filter="url(#fvcc3xmqhdnch)" rx="14.7285" ry="14.7285" style="stroke:#000000;stroke-width:1.5625;"/><rect fill="#FEFECE" filter="url(#fvcc3xmqhdnch)" height="56.2174" rx="14.7285" ry="14.7285" style="stroke:#000000;stroke-width:1.5625;" width="87.5" x="322.9167" y="512.7069"/><text fill="#000000" font-family="Verdana" font-size="12.5" lengthAdjust="spacing" textLength="45.8333" x="343.75" y="545.1431">person</text><!--MD5=[799e9543975076390d2a6ceafec8df6c]
entity queue--><path d="M457.2917,503.0416 L530.2083,503.0416 C535.4167,503.0416 535.4167,525.942 535.4167,525.942 C535.4167,525.942 535.4167,548.8424 530.2083,548.8424 L457.2917,548.8424 C452.0833,548.8424 452.0833,525.942 452.0833,525.942 C452.0833,525.942 452.0833,503.0416 457.2917,503.0416 " filter="url(#fvcc3xmqhdnch)" style="stroke:#2196F3;stroke-width:1.5625;fill:none;"/><path d="M530.2083,503.0416 C525,503.0416 525,525.942 525,525.942 C525,548.8424 530.2083,548.8424 530.2083,548.8424 " fill="none" style="stroke:#2196F3;stroke-width:1.5625;"/><text fill="#2196F3" font-family="Verdana" font-size="12.5" lengthAdjust="spacing" textLength="41.6667" x="467.7083" y="530.2694">queue</text><!--MD5=[7267aa9592867b0c03d3cbda6e92e719]
entity rectangle--><rect filter="url(#fvcc3xmqhdnch)" height="56.2174" rx="4.1667" ry="4.1667" style="stroke:#2196F3;stroke-width:2.0833333333333335;fill:none;" width="104.1667" x="577.0833" y="497.8333"/><text fill="#2196F3" font-family="Verdana" font-size="12.5" lengthAdjust="spacing" textLength="62.5" x="597.9167" y="530.2694">rectangle</text><!--MD5=[f71e1929eceb486be132a5333dc4c68d]
entity stack--><rect fill="#FEFECE" height="56.2174" rx="4.1667" ry="4.1667" style="stroke:none;stroke-width:1.5625;" width="77.0833" x="738.5417" y="497.8333"/><path d="M722.9167,497.8333 L734.375,497.8333 A4.1667,4.1667 0 0 1 738.5417,501.9999 L738.5417,549.884 A4.1667,4.1667 0 0 0 742.7083,554.0507 L811.4583,554.0507 A4.1667,4.1667 0 0 0 815.625,549.884 L815.625,501.9999 A4.1667,4.1667 0 0 1 819.7917,497.8333 L831.25,497.8333 " fill="none" filter="url(#fvcc3xmqhdnch)" style="stroke:#A80036;stroke-width:1.5625;"/><text fill="#000000" font-family="Verdana" font-size="12.5" lengthAdjust="spacing" textLength="35.4167" x="759.375" y="530.2694">stack</text><!--MD5=[a5a6ae0ba01c8a4589ab26bd33e87aad]
entity storage--><rect filter="url(#fvcc3xmqhdnch)" height="56.2174" rx="36.4583" ry="36.4583" style="stroke:#FF9800;stroke-width:1.5625;fill:none;" width="92.7083" x="18.2292" y="629.0833"/><text fill="#FF9800" font-family="Verdana" font-size="12.5" lengthAdjust="spacing" textLength="51.0417" x="39.0625" y="661.5194">storage</text><ellipse cx="217.8167" cy="657.2286" filter="url(#fvcc3xmqhdnch)" rx="65.7334" ry="28.1453" style="stroke:#2196F3;stroke-width:2.0833333333333335;fill:none;"/><text fill="#2196F3" font-family="Verdana" font-size="12.5" lengthAdjust="spacing" textLength="55.2083" x="190.2126" y="659.4727">usecase</text><ellipse cx="393.6797" cy="657.2286" filter="url(#fvcc3xmqhdnch)" rx="68.6797" ry="28.1453" style="stroke:#2196F3;stroke-width:2.0833333333333335;fill:none;"/><text fill="#2196F3" font-family="Verdana" font-size="12.5" lengthAdjust="spacing" textLength="59.375" x="363.9922" y="659.4727">usecase/</text><line style="stroke:#2196F3;stroke-width:2.0833333333333335;" x1="456.8853" x2="422.1915" y1="647.4171" y2="682.111"/></g></svg>