<?xml version="1.0" encoding="UTF-8" standalone="no"?><svg xmlns="http://www.w3.org/2000/svg" xmlns:xlink="http://www.w3.org/1999/xlink" contentStyleType="text/css" height="431px" preserveAspectRatio="none" style="width:601px;height:431px;background:#282828;" version="1.1" viewBox="0 0 601 431" width="601px" zoomAndPan="magnify"><defs/><g><rect fill="#282828" height="431" style="stroke:none;stroke-width:1.0;" width="601" x="0" y="0"/><!--entity actor--><g id="elem_actor"><ellipse cx="59" cy="18.4951" fill="#282828" rx="8" ry="8" style="stroke:#33FF33;stroke-width:1.0;"/><path d="M59,26.4951 L59,53.4951 M46,34.4951 L72,34.4951 M59,53.4951 L46,68.4951 M59,53.4951 L72,68.4951 " fill="none" style="stroke:#33FF33;stroke-width:1.0;"/><text fill="#33FF33" font-family="Verdana" font-size="14" lengthAdjust="spacing" textLength="35" x="41.5" y="83.4902">actor</text></g><!--entity actor/--><g id="elem_actor/"><ellipse cx="115" cy="18.4951" fill="#282828" rx="8" ry="8" style="stroke:#33FF33;stroke-width:1.0;"/><line style="stroke:#33FF33;stroke-width:1.0;" x1="113.0562" x2="122.7603" y1="26.2554" y2="16.5513"/><path d="M115,26.4951 L115,53.4951 M102,34.4951 L128,34.4951 M115,53.4951 L102,68.4951 M115,53.4951 L128,68.4951 " fill="none" style="stroke:#33FF33;stroke-width:1.0;"/><text fill="#33FF33" font-family="Verdana" font-size="14" lengthAdjust="spacing" textLength="40" x="95" y="83.4902">actor/</text></g><!--entity agent--><g id="elem_agent"><rect fill="#282828" height="36.2969" rx="2.5" ry="2.5" style="stroke:#33FF33;stroke-width:1.0;" width="60" x="153" y="29.9951"/><text fill="#33FF33" font-family="Verdana" font-size="14" lengthAdjust="spacing" textLength="40" x="163" y="52.9902">agent</text></g><!--entity artifact--><g id="elem_artifact"><rect fill="#282828" height="39.2969" rx="2.5" ry="2.5" style="stroke:#33FF33;stroke-width:1.0;" width="76" x="231" y="28.4951"/><polygon fill="#282828" points="290,33.4951,290,47.4951,302,47.4951,302,39.4951,296,33.4951,290,33.4951" style="stroke:#33FF33;stroke-width:1.0;"/><line style="stroke:#33FF33;stroke-width:1.0;" x1="296" x2="296" y1="33.4951" y2="39.4951"/><line style="stroke:#33FF33;stroke-width:1.0;" x1="302" x2="296" y1="39.4951" y2="39.4951"/><text fill="#33FF33" font-family="Verdana" font-size="14" lengthAdjust="spacing" textLength="46" x="241" y="54.4902">artifact</text></g><!--entity boundary--><g id="elem_boundary"><path d="M337.5,27.9951 L337.5,51.9951 M337.5,39.9951 L354.5,39.9951 " fill="none" style="stroke:#33FF33;stroke-width:1.0;"/><ellipse cx="366.5" cy="39.9951" fill="#282828" rx="12" ry="12" style="stroke:#33FF33;stroke-width:1.0;"/><text fill="#33FF33" font-family="Verdana" font-size="14" lengthAdjust="spacing" textLength="65" x="325.5" y="68.9902">boundary</text></g><!--entity card--><g id="elem_card"><rect fill="#282828" height="22.2969" rx="2.5" ry="2.5" style="stroke:#33FF33;stroke-width:1.0;" width="50" x="409" y="35.9951"/><text fill="#33FF33" font-family="Verdana" font-size="14" lengthAdjust="spacing" textLength="30" x="419" y="51.9902">card</text></g><!--entity circle--><g id="elem_circle"><ellipse cx="59" cy="143.4951" fill="#282828" rx="8" ry="8" style="stroke:#33FF33;stroke-width:1.0;"/><text fill="#33FF33" font-family="Verdana" font-size="14" lengthAdjust="spacing" textLength="36" x="41" y="173.4902">circle</text></g><!--entity cloud--><g id="elem_cloud"><path d="M95.0949,132.4977 C97.4559,126.3985 103.1645,125.1996 107.2344,130.7109 C110.8758,122.8161 115.116,121.8003 121.0803,128.5084 C125.3929,123.4877 131.1148,124.0721 133.5918,130.5123 C138.1555,125.1623 143.4581,126.8867 146.0613,132.7018 C153.7778,134.898 156.9459,141.8723 149.8015,147.7597 C155.7663,153.0719 155.5835,159.5037 147.605,162.7764 C145.0481,170.9245 139.9278,171.6883 133.7131,166.6217 C131.9015,173.6753 126.7965,173.769 122.1711,169.4866 C117.0942,174.6174 110.1217,174.4822 107.8737,166.4206 C103.0728,172.4943 97.4492,169.292 95.4313,163.5018 C86.9312,160.975 86.2998,154.8278 91.5049,148.6723 C84.8642,142.7873 87.4472,135.2113 95.0949,132.4977 " fill="#282828" style="stroke:#33FF33;stroke-width:1.0;"/><text fill="#33FF33" font-family="Verdana" font-size="14" lengthAdjust="spacing" textLength="38" x="101" y="151.4902">cloud</text></g><!--entity collections--><g id="elem_collections"><rect fill="#282828" height="32.2969" rx="2.5" ry="2.5" style="stroke:#33FF33;stroke-width:1.0;" width="90" x="176" y="132.4951"/><rect fill="#282828" height="32.2969" rx="2.5" ry="2.5" style="stroke:#33FF33;stroke-width:1.0;" width="90" x="172" y="128.4951"/><text fill="#33FF33" font-family="Verdana" font-size="14" lengthAdjust="spacing" textLength="74" x="180" y="149.4902">collections</text></g><!--entity component--><g id="elem_component"><rect fill="#282828" height="46.2969" rx="2.5" ry="2.5" style="stroke:#33FF33;stroke-width:1.0;" width="120" x="284" y="123.4951"/><rect fill="#282828" height="10" style="stroke:#33FF33;stroke-width:1.0;" width="15" x="384" y="128.4951"/><rect fill="#282828" height="2" style="stroke:#33FF33;stroke-width:1.0;" width="4" x="382" y="130.4951"/><rect fill="#282828" height="2" style="stroke:#33FF33;stroke-width:1.0;" width="4" x="382" y="134.4951"/><text fill="#33FF33" font-family="Verdana" font-size="14" lengthAdjust="spacing" textLength="80" x="299" y="156.4902">component</text></g><!--entity control--><g id="elem_control"><ellipse cx="446" cy="138.4951" fill="#282828" rx="12" ry="12" style="stroke:#33FF33;stroke-width:1.0;"/><polygon fill="#33FF33" points="442,126.4951,448,121.4951,446,126.4951,448,131.4951,442,126.4951" style="stroke:#33FF33;stroke-width:1.0;"/><text fill="#33FF33" font-family="Verdana" font-size="14" lengthAdjust="spacing" textLength="48" x="422" y="167.4902">control</text></g><!--entity database--><g id="elem_database"><path d="M488,133.9951 C488,123.9951 530,123.9951 530,123.9951 C530,123.9951 572,123.9951 572,133.9951 L572,159.292 C572,169.292 530,169.292 530,169.292 C530,169.292 488,169.292 488,159.292 L488,133.9951 " fill="#282828" style="stroke:#33FF33;stroke-width:1.0;"/><path d="M488,133.9951 C488,143.9951 530,143.9951 530,143.9951 C530,143.9951 572,143.9951 572,133.9951 " fill="none" style="stroke:#33FF33;stroke-width:1.0;"/><text fill="#33FF33" font-family="Verdana" font-size="14" lengthAdjust="spacing" textLength="64" x="498" y="160.9902">database</text></g><!--entity entity--><g id="elem_entity"><ellipse cx="59" cy="225.4951" fill="#282828" rx="12" ry="12" style="stroke:#33FF33;stroke-width:1.0;"/><line style="stroke:#33FF33;stroke-width:1.0;" x1="47" x2="71" y1="239.4951" y2="239.4951"/><text fill="#33FF33" font-family="Verdana" font-size="14" lengthAdjust="spacing" textLength="38" x="40" y="254.4902">entity</text></g><!--entity file--><g id="elem_file"><path d="M96.5,217.9951 L96.5,249.292 A2.5,2.5 0 0 0 99,251.792 L133,251.792 A2.5,2.5 0 0 0 135.5,249.292 L135.5,225.4951 L125.5,215.4951 L99,215.4951 A2.5,2.5 0 0 0 96.5,217.9951 " fill="#282828" style="stroke:#33FF33;stroke-width:1.0;"/><path d="M125.5,215.4951 L125.5,222.9951 A2.5,2.5 0 0 0 128,225.4951 L135.5,225.4951 " fill="#282828" style="stroke:#33FF33;stroke-width:1.0;"/><text fill="#33FF33" font-family="Verdana" font-size="14" lengthAdjust="spacing" textLength="19" x="106.5" y="238.4902">file</text></g><!--entity folder--><g id="elem_folder"><path d="M156.5,206.4951 L197.5,206.4951 A3.75,3.75 0 0 1 200,208.9951 L207,227.4951 L221.5,227.4951 A2.5,2.5 0 0 1 224,229.9951 L224,258.292 A2.5,2.5 0 0 1 221.5,260.792 L156.5,260.792 A2.5,2.5 0 0 1 154,258.292 L154,208.9951 A2.5,2.5 0 0 1 156.5,206.4951 " fill="#282828" style="stroke:#33FF33;stroke-width:1.0;"/><line style="stroke:#33FF33;stroke-width:1.0;" x1="154" x2="207" y1="227.4951" y2="227.4951"/><text fill="#33FF33" font-family="Verdana" font-size="14" lengthAdjust="spacing" textLength="39" x="164" y="247.4902">folder</text></g><!--entity frame--><g id="elem_frame"><rect fill="#282828" height="46.2969" rx="2.5" ry="2.5" style="stroke:#33FF33;stroke-width:1.0;" width="79" x="242.5" y="210.4951"/><path d="M268.8333,210.4951 L268.8333,215.4951 L261.8333,222.4951 L242.5,222.4951 " fill="none" style="stroke:#33FF33;stroke-width:1.0;"/><text fill="#33FF33" font-family="Verdana" font-size="14" lengthAdjust="spacing" textLength="39" x="257.5" y="243.4902">frame</text></g><!--entity interface--><g id="elem_interface"><ellipse cx="349" cy="230.4951" fill="#282828" rx="8" ry="8" style="stroke:#33FF33;stroke-width:1.0;"/><text fill="#33FF33" font-family="Verdana" font-size="14" lengthAdjust="spacing" textLength="60" x="319" y="260.4902">interface</text></g><!--entity label--><g id="elem_label"><text fill="#33FF33" font-family="Verdana" font-size="14" lengthAdjust="spacing" textLength="32" x="386" y="238.4902">label</text></g><!--entity node--><g id="elem_node"><polygon fill="#282828" points="21,311.9951,31,301.9951,97,301.9951,97,338.292,87,348.292,21,348.292,21,311.9951" style="stroke:#33FF33;stroke-width:1.0;"/><line style="stroke:#33FF33;stroke-width:1.0;" x1="87" x2="97" y1="311.9951" y2="301.9951"/><line style="stroke:#33FF33;stroke-width:1.0;" x1="21" x2="87" y1="311.9951" y2="311.9951"/><line style="stroke:#33FF33;stroke-width:1.0;" x1="87" x2="87" y1="311.9951" y2="348.292"/><text fill="#33FF33" font-family="Verdana" font-size="14" lengthAdjust="spacing" textLength="36" x="36" y="334.9902">node</text></g><!--entity package--><g id="elem_package"><path d="M118,305.4951 L190,305.4951 A3.75,3.75 0 0 1 192.5,307.9951 L199.5,327.792 L214,327.792 A2.5,2.5 0 0 1 216.5,330.292 L216.5,342.292 A2.5,2.5 0 0 1 214,344.792 L118,344.792 A2.5,2.5 0 0 1 115.5,342.292 L115.5,307.9951 A2.5,2.5 0 0 1 118,305.4951 " fill="#282828" style="stroke:#33FF33;stroke-width:1.0;"/><line style="stroke:#33FF33;stroke-width:1.0;" x1="115.5" x2="199.5" y1="327.792" y2="327.792"/><text fill="#33FF33" font-family="Verdana" font-size="14" lengthAdjust="spacing" textLength="59" x="125.5" y="321.4902">package</text></g><!--entity person--><g id="elem_person"><ellipse cx="269" cy="307.0045" fill="#282828" rx="10.5094" ry="10.5094" style="stroke:#33FF33;stroke-width:1.0;"/><rect fill="#282828" height="36.2969" rx="10.5094" ry="10.5094" style="stroke:#33FF33;stroke-width:1.0;" width="69" x="234.5" y="317.5139"/><text fill="#33FF33" font-family="Verdana" font-size="14" lengthAdjust="spacing" textLength="49" x="244.5" y="340.5091">person</text></g><!--entity queue--><g id="elem_queue"><path d="M326.5,311.9951 L381.5,311.9951 C386.5,311.9951 386.5,325.1436 386.5,325.1436 C386.5,325.1436 386.5,338.292 381.5,338.292 L326.5,338.292 C321.5,338.292 321.5,325.1436 321.5,325.1436 C321.5,325.1436 321.5,311.9951 326.5,311.9951 " fill="#282828" style="stroke:#33FF33;stroke-width:1.0;"/><path d="M381.5,311.9951 C376.5,311.9951 376.5,325.1436 376.5,325.1436 C376.5,338.292 381.5,338.292 381.5,338.292 " fill="none" style="stroke:#33FF33;stroke-width:1.0;"/><text fill="#33FF33" font-family="Verdana" font-size="14" lengthAdjust="spacing" textLength="45" x="326.5" y="329.9902">queue</text></g><!--entity rectangle--><g id="elem_rectangle"><rect fill="#282828" height="36.2969" rx="2.5" ry="2.5" style="stroke:#33FF33;stroke-width:1.0;" width="85" x="404.5" y="306.9951"/><text fill="#33FF33" font-family="Verdana" font-size="14" lengthAdjust="spacing" textLength="65" x="414.5" y="329.9902">rectangle</text></g><!--entity stack--><g id="elem_stack"><rect fill="#282828" height="36.2969" rx="2.5" ry="2.5" style="stroke:none;stroke-width:1.0;" width="57" x="522.5" y="306.9951"/><path d="M507.5,306.9951 L520,306.9951 A2.5,2.5 0 0 1 522.5,309.4951 L522.5,340.792 A2.5,2.5 0 0 0 525,343.292 L577,343.292 A2.5,2.5 0 0 0 579.5,340.792 L579.5,309.4951 A2.5,2.5 0 0 1 582,306.9951 L594.5,306.9951 " fill="none" style="stroke:#33FF33;stroke-width:1.0;"/><text fill="#33FF33" font-family="Verdana" font-size="14" lengthAdjust="spacing" textLength="37" x="532.5" y="329.9902">stack</text></g><!--entity storage--><g id="elem_storage"><rect fill="#282828" height="36.2969" rx="35" ry="35" style="stroke:#33FF33;stroke-width:1.0;" width="73" x="22.5" y="389.4951"/><text fill="#33FF33" font-family="Verdana" font-size="14" lengthAdjust="spacing" textLength="53" x="32.5" y="412.4902">storage</text></g><g id="elem_usecase"><ellipse cx="168.0937" cy="407.7228" fill="#282828" rx="54.0937" ry="14.7277" style="stroke:#33FF33;stroke-width:1.0;"/><text fill="#33FF33" font-family="Verdana" font-size="14" lengthAdjust="spacing" textLength="59" x="135.5937" y="411.4704">usecase</text></g><g id="elem_usecase/"><ellipse cx="297.8265" cy="407.2517" fill="#282828" rx="57.8265" ry="14.7566" style="stroke:#33FF33;stroke-width:1.0;"/><text fill="#33FF33" font-family="Verdana" font-size="14" lengthAdjust="spacing" textLength="64" x="262.8265" y="410.9993">usecase/</text></g><line style="stroke:#33FF33;stroke-width:1.0;" x1="351.0439" x2="335.0837" y1="402.1076" y2="418.0678"/></g></svg>