<?xml version="1.0" encoding="us-ascii" standalone="no"?><svg xmlns="http://www.w3.org/2000/svg" xmlns:xlink="http://www.w3.org/1999/xlink" contentStyleType="text/css" height="414.5833px" preserveAspectRatio="none" style="width:391px;height:414px;" version="1.1" viewBox="0 0 391 414" width="391.6667px" zoomAndPan="magnify"><defs><linearGradient id="g1kgw9rd1sc97a0" x1="50%" x2="50%" y1="0%" y2="100%"><stop offset="0%" stop-color="#C0D0E5"/><stop offset="100%" stop-color="#8D9DB2"/></linearGradient></defs><g><path d="M10.4167,15.625 L10.4167,57.2591 L243.75,57.2591 L243.75,26.0417 L233.3333,15.625 L10.4167,15.625 " fill="url(#g1kgw9rd1sc97a0)" style="stroke:#8D9DB2;stroke-width:1.0416666666666667;"/><path d="M233.3333,15.625 L233.3333,26.0417 L243.75,26.0417 L233.3333,15.625 " fill="url(#g1kgw9rd1sc97a0)" style="stroke:#8D9DB2;stroke-width:1.0416666666666667;"/><text fill="#FDFDFD" font-family="Verdana" font-size="12.5" lengthAdjust="spacing" textLength="186.4583" x="29.1667" y="40.7694">Test of some EBNF elements</text><text fill="#4682B4" font-family="Verdana" font-size="12.5" font-weight="bold" lengthAdjust="spacing" textLength="42.7083" x="10.4167" y="84.4869">rule-0</text><line style="stroke:#B7B6B5;stroke-width:1.5625;" x1="41.6667" x2="41.6667" y1="110.3353" y2="110.3353"/><rect fill="none" height="24.9674" rx="5.2083" ry="5.2083" style="stroke:#B7B6B5;stroke-width:1.5625;" width="35.4167" x="41.6667" y="97.8516"/><text fill="#4682B4" font-family="Verdana" font-size="12.5" lengthAdjust="spacing" textLength="25" x="46.875" y="114.6627">rule</text><line style="stroke:#B7B6B5;stroke-width:1.5625;" x1="77.0833" x2="97.9167" y1="110.3353" y2="110.3353"/><rect fill="none" height="24.9674" style="stroke:#B7B6B5;stroke-width:0.5208333333333334;" width="75" x="97.9167" y="97.8516"/><text fill="#4682B4" font-family="Verdana" font-size="12.5" lengthAdjust="spacing" textLength="64.5833" x="103.125" y="114.6627">litteral_dq</text><line style="stroke:#B7B6B5;stroke-width:1.5625;" x1="172.9167" x2="193.75" y1="110.3353" y2="110.3353"/><rect fill="none" height="24.9674" style="stroke:#B7B6B5;stroke-width:0.5208333333333334;" width="73.9583" x="193.75" y="97.8516"/><text fill="#4682B4" font-family="Verdana" font-size="12.5" lengthAdjust="spacing" textLength="63.5417" x="198.9583" y="114.6627">litteral_sq</text><line style="stroke:#B7B6B5;stroke-width:1.5625;" x1="267.7083" x2="288.5417" y1="110.3353" y2="110.3353"/><rect fill="none" height="24.9674" style="stroke:#B7B6B5;stroke-width:1.0416666666666667;stroke-dasharray:5.0,5.0;" width="56.25" x="288.5417" y="97.8516"/><text fill="#4682B4" font-family="Verdana" font-size="12.5" lengthAdjust="spacing" textLength="45.8333" x="293.75" y="114.6627">special</text><ellipse cx="14.5833" cy="110.3353" fill="none" rx="4.1667" ry="4.1667" style="stroke:#B7B6B5;stroke-width:2.0833333333333335;"/><ellipse cx="376.0417" cy="110.3353" fill="#B7B6B5" rx="4.1667" ry="4.1667" style="stroke:#B7B6B5;stroke-width:1.0416666666666667;"/><line style="stroke:#B7B6B5;stroke-width:1.5625;" x1="18.75" x2="41.6667" y1="110.3353" y2="110.3353"/><line style="stroke:#B7B6B5;stroke-width:1.5625;" x1="344.7917" x2="371.875" y1="110.3353" y2="110.3353"/><path d="M356.25,110.3353 L356.25,107.2103 L362.5,110.3353 L356.25,113.4603 L356.25,110.3353 " fill="#B7B6B5" style="stroke:#B7B6B5;stroke-width:1.5625;"/><text fill="#4682B4" font-family="Verdana" font-size="12.5" font-weight="bold" lengthAdjust="spacing" textLength="14.5833" x="10.4167" y="150.0468">r1</text><line style="stroke:#B7B6B5;stroke-width:1.5625;" x1="41.6667" x2="41.6667" y1="205.0618" y2="205.0618"/><rect fill="none" height="24.9674" rx="5.2083" ry="5.2083" style="stroke:#B7B6B5;stroke-width:1.5625;" width="15.625" x="41.6667" y="192.5781"/><text fill="#4682B4" font-family="Verdana" font-size="12.5" lengthAdjust="spacing" textLength="5.2083" x="46.875" y="209.3892">t</text><line style="stroke:#B7B6B5;stroke-width:1.5625;" x1="57.2917" x2="78.125" y1="205.0618" y2="205.0618"/><path d="M86.4583,196.7285 C86.4583,202.9785 84.375,205.0618 78.125,205.0618 " fill="none" style="stroke:#B7B6B5;stroke-width:1.5625;"/><line style="stroke:#B7B6B5;stroke-width:1.5625;" x1="86.4583" x2="86.4583" y1="189.4531" y2="196.7285"/><path d="M86.4583,189.4531 C86.4583,183.2031 88.5417,181.1198 94.7917,181.1198 " fill="none" style="stroke:#B7B6B5;stroke-width:1.5625;"/><line style="stroke:#B7B6B5;stroke-width:1.5625;" x1="94.7917" x2="111.4583" y1="181.1198" y2="181.1198"/><path d="M119.7917,196.7285 C119.7917,202.9785 121.875,205.0618 128.125,205.0618 " fill="none" style="stroke:#B7B6B5;stroke-width:1.5625;"/><line style="stroke:#B7B6B5;stroke-width:1.5625;" x1="119.7917" x2="119.7917" y1="189.4531" y2="196.7285"/><path d="M111.4583,181.1198 C117.7083,181.1198 119.7917,183.2031 119.7917,189.4531 " fill="none" style="stroke:#B7B6B5;stroke-width:1.5625;"/><line style="stroke:#B7B6B5;stroke-width:1.5625;" x1="78.125" x2="93.75" y1="205.0618" y2="205.0618"/><line style="stroke:#B7B6B5;stroke-width:1.5625;" x1="112.5" x2="128.125" y1="205.0618" y2="205.0618"/><rect fill="none" height="24.9674" rx="5.2083" ry="5.2083" style="stroke:#B7B6B5;stroke-width:1.5625;" width="18.75" x="93.75" y="192.5781"/><text fill="#4682B4" font-family="Verdana" font-size="12.5" lengthAdjust="spacing" textLength="8.3333" x="98.9583" y="209.3892">h</text><line style="stroke:#B7B6B5;stroke-width:1.5625;" x1="128.125" x2="148.9583" y1="205.0618" y2="205.0618"/><path d="M157.2917,196.7285 C157.2917,202.9785 155.2083,205.0618 148.9583,205.0618 " fill="none" style="stroke:#B7B6B5;stroke-width:1.5625;"/><line style="stroke:#B7B6B5;stroke-width:1.5625;" x1="157.2917" x2="157.2917" y1="176.9531" y2="196.7285"/><path d="M157.2917,176.9531 C157.2917,170.7031 159.375,168.6198 165.625,168.6198 " fill="none" style="stroke:#B7B6B5;stroke-width:1.5625;"/><line style="stroke:#B7B6B5;stroke-width:1.5625;" x1="165.625" x2="213.5417" y1="168.6198" y2="168.6198"/><path d="M182.7083,168.6198 L182.7083,165.4948 L188.9583,168.6198 L182.7083,171.7448 L182.7083,168.6198 " fill="#B7B6B5" style="stroke:#B7B6B5;stroke-width:1.5625;"/><path d="M221.875,196.7285 C221.875,202.9785 223.9583,205.0618 230.2083,205.0618 " fill="none" style="stroke:#B7B6B5;stroke-width:1.5625;"/><line style="stroke:#B7B6B5;stroke-width:1.5625;" x1="221.875" x2="221.875" y1="176.9531" y2="196.7285"/><path d="M213.5417,168.6198 C219.7917,168.6198 221.875,170.7031 221.875,176.9531 " fill="none" style="stroke:#B7B6B5;stroke-width:1.5625;"/><line style="stroke:#B7B6B5;stroke-width:1.5625;" x1="148.9583" x2="164.5833" y1="205.0618" y2="205.0618"/><line style="stroke:#B7B6B5;stroke-width:1.5625;" x1="214.5833" x2="230.2083" y1="205.0618" y2="205.0618"/><path d="M172.9167,196.7285 C172.9167,202.9785 175,205.0618 181.25,205.0618 " fill="none" style="stroke:#B7B6B5;stroke-width:1.5625;"/><line style="stroke:#B7B6B5;stroke-width:1.5625;" x1="172.9167" x2="172.9167" y1="193.6198" y2="196.7285"/><path d="M172.9167,193.6198 C172.9167,187.3698 175,185.2865 181.25,185.2865 " fill="none" style="stroke:#B7B6B5;stroke-width:1.5625;"/><line style="stroke:#B7B6B5;stroke-width:1.5625;" x1="180.2083" x2="198.9583" y1="185.2865" y2="185.2865"/><path d="M189.375,185.2865 L189.375,182.1615 L183.125,185.2865 L189.375,188.4115 L189.375,185.2865 " fill="#B7B6B5" style="stroke:#B7B6B5;stroke-width:1.5625;"/><path d="M206.25,196.7285 C206.25,202.9785 204.1667,205.0618 197.9167,205.0618 " fill="none" style="stroke:#B7B6B5;stroke-width:1.5625;"/><line style="stroke:#B7B6B5;stroke-width:1.5625;" x1="206.25" x2="206.25" y1="193.6198" y2="196.7285"/><path d="M197.9167,185.2865 C204.1667,185.2865 206.25,187.3698 206.25,193.6198 " fill="none" style="stroke:#B7B6B5;stroke-width:1.5625;"/><line style="stroke:#B7B6B5;stroke-width:1.5625;" x1="164.5833" x2="180.2083" y1="205.0618" y2="205.0618"/><line style="stroke:#B7B6B5;stroke-width:1.5625;" x1="198.9583" x2="214.5833" y1="205.0618" y2="205.0618"/><rect fill="none" height="24.9674" rx="5.2083" ry="5.2083" style="stroke:#B7B6B5;stroke-width:1.5625;" width="18.75" x="180.2083" y="192.5781"/><text fill="#4682B4" font-family="Verdana" font-size="12.5" lengthAdjust="spacing" textLength="8.3333" x="185.4167" y="209.3892">e</text><line style="stroke:#B7B6B5;stroke-width:1.5625;" x1="230.2083" x2="251.0417" y1="205.0618" y2="205.0618"/><path d="M259.375,196.7285 C259.375,202.9785 261.4583,205.0618 267.7083,205.0618 " fill="none" style="stroke:#B7B6B5;stroke-width:1.5625;"/><line style="stroke:#B7B6B5;stroke-width:1.5625;" x1="259.375" x2="259.375" y1="193.6198" y2="196.7285"/><path d="M259.375,193.6198 C259.375,187.3698 261.4583,185.2865 267.7083,185.2865 " fill="none" style="stroke:#B7B6B5;stroke-width:1.5625;"/><line style="stroke:#B7B6B5;stroke-width:1.5625;" x1="266.6667" x2="285.4167" y1="185.2865" y2="185.2865"/><path d="M275.8333,185.2865 L275.8333,182.1615 L269.5833,185.2865 L275.8333,188.4115 L275.8333,185.2865 " fill="#B7B6B5" style="stroke:#B7B6B5;stroke-width:1.5625;"/><path d="M292.7083,196.7285 C292.7083,202.9785 290.625,205.0618 284.375,205.0618 " fill="none" style="stroke:#B7B6B5;stroke-width:1.5625;"/><line style="stroke:#B7B6B5;stroke-width:1.5625;" x1="292.7083" x2="292.7083" y1="193.6198" y2="196.7285"/><path d="M284.375,185.2865 C290.625,185.2865 292.7083,187.3698 292.7083,193.6198 " fill="none" style="stroke:#B7B6B5;stroke-width:1.5625;"/><line style="stroke:#B7B6B5;stroke-width:1.5625;" x1="251.0417" x2="266.6667" y1="205.0618" y2="205.0618"/><line style="stroke:#B7B6B5;stroke-width:1.5625;" x1="285.4167" x2="301.0417" y1="205.0618" y2="205.0618"/><rect fill="none" height="24.9674" rx="5.2083" ry="5.2083" style="stroke:#B7B6B5;stroke-width:1.5625;" width="18.75" x="266.6667" y="192.5781"/><text fill="#4682B4" font-family="Verdana" font-size="12.5" lengthAdjust="spacing" textLength="8.3333" x="271.875" y="209.3892">o</text><ellipse cx="14.5833" cy="205.0618" fill="none" rx="4.1667" ry="4.1667" style="stroke:#B7B6B5;stroke-width:2.0833333333333335;"/><ellipse cx="332.2917" cy="205.0618" fill="#B7B6B5" rx="4.1667" ry="4.1667" style="stroke:#B7B6B5;stroke-width:1.0416666666666667;"/><line style="stroke:#B7B6B5;stroke-width:1.5625;" x1="18.75" x2="41.6667" y1="205.0618" y2="205.0618"/><line style="stroke:#B7B6B5;stroke-width:1.5625;" x1="301.0417" x2="328.125" y1="205.0618" y2="205.0618"/><path d="M312.5,205.0618 L312.5,201.9368 L318.75,205.0618 L312.5,208.1868 L312.5,205.0618 " fill="#B7B6B5" style="stroke:#B7B6B5;stroke-width:1.5625;"/><text fill="#4682B4" font-family="Verdana" font-size="12.5" font-weight="bold" lengthAdjust="spacing" textLength="14.5833" x="10.4167" y="244.7734">r2</text><line style="stroke:#B7B6B5;stroke-width:1.5625;" x1="41.6667" x2="41.6667" y1="298.7467" y2="298.7467"/><path d="M75,290.4134 C75,296.6634 77.0833,298.7467 83.3333,298.7467 " fill="none" style="stroke:#B7B6B5;stroke-width:1.5625;"/><line style="stroke:#B7B6B5;stroke-width:1.5625;" x1="75" x2="75" y1="287.3047" y2="290.4134"/><path d="M75,287.3047 C75,281.0547 77.0833,278.9714 83.3333,278.9714 " fill="none" style="stroke:#B7B6B5;stroke-width:1.5625;"/><line style="stroke:#B7B6B5;stroke-width:1.5625;" x1="82.2917" x2="107.2917" y1="278.9714" y2="278.9714"/><path d="M95.2083,278.9714 L95.2083,275.8464 L88.9583,278.9714 L95.2083,282.0964 L95.2083,278.9714 " fill="#B7B6B5" style="stroke:#B7B6B5;stroke-width:1.5625;"/><path d="M114.5833,290.4134 C114.5833,296.6634 112.5,298.7467 106.25,298.7467 " fill="none" style="stroke:#B7B6B5;stroke-width:1.5625;"/><line style="stroke:#B7B6B5;stroke-width:1.5625;" x1="114.5833" x2="114.5833" y1="287.3047" y2="290.4134"/><path d="M106.25,278.9714 C112.5,278.9714 114.5833,281.0547 114.5833,287.3047 " fill="none" style="stroke:#B7B6B5;stroke-width:1.5625;"/><line style="stroke:#B7B6B5;stroke-width:1.5625;" x1="66.6667" x2="82.2917" y1="298.7467" y2="298.7467"/><line style="stroke:#B7B6B5;stroke-width:1.5625;" x1="107.2917" x2="122.9167" y1="298.7467" y2="298.7467"/><rect fill="none" height="24.9674" rx="5.2083" ry="5.2083" style="stroke:#B7B6B5;stroke-width:1.5625;" width="25" x="82.2917" y="286.263"/><text fill="#4682B4" font-family="Verdana" font-size="12.5" lengthAdjust="spacing" textLength="14.5833" x="87.5" y="303.0741">nil</text><path d="M66.6667,273.763 C66.6667,269.8568 67.9688,268.5547 71.875,268.5547 " fill="none" style="stroke:#B7B6B5;stroke-width:0.5208333333333334;"/><path d="M94.7917,263.3464 C94.7917,267.2526 93.4896,268.5547 89.5833,268.5547 " fill="none" style="stroke:#B7B6B5;stroke-width:0.5208333333333334;"/><path d="M94.7917,263.3464 C94.7917,267.2526 96.0938,268.5547 100,268.5547 " fill="none" style="stroke:#B7B6B5;stroke-width:0.5208333333333334;"/><path d="M117.7083,268.5547 C121.6146,268.5547 122.9167,269.8568 122.9167,273.763 " fill="none" style="stroke:#B7B6B5;stroke-width:0.5208333333333334;"/><line style="stroke:#B7B6B5;stroke-width:0.5208333333333334;" x1="71.875" x2="89.5833" y1="268.5547" y2="268.5547"/><line style="stroke:#B7B6B5;stroke-width:0.5208333333333334;" x1="100" x2="117.7083" y1="268.5547" y2="268.5547"/><text fill="#4682B4" font-family="Verdana" font-size="10.4167" lengthAdjust="spacing" textLength="14.5833" x="87.5" y="260.5947">3&#215;</text><line style="stroke:#B7B6B5;stroke-width:1.5625;" x1="41.6667" x2="66.6667" y1="298.7467" y2="298.7467"/><line style="stroke:#B7B6B5;stroke-width:1.5625;" x1="122.9167" x2="147.9167" y1="298.7467" y2="298.7467"/><rect fill="none" height="24.9674" rx="5.2083" ry="5.2083" style="stroke:#B7B6B5;stroke-width:1.5625;" width="15.625" x="66.6667" y="321.6471"/><text fill="#4682B4" font-family="Verdana" font-size="12.5" lengthAdjust="spacing" textLength="5.2083" x="71.875" y="338.4583">z</text><line style="stroke:#B7B6B5;stroke-width:1.5625;" x1="82.2917" x2="122.9167" y1="334.1309" y2="334.1309"/><path d="M100.5208,334.1309 L100.5208,331.0059 L106.7708,334.1309 L100.5208,337.2559 L100.5208,334.1309 " fill="#B7B6B5" style="stroke:#B7B6B5;stroke-width:1.5625;"/><path d="M54.1667,321.6309 C54.1667,331.0059 57.2917,334.1309 66.6667,334.1309 " fill="none" style="stroke:#B7B6B5;stroke-width:1.5625;"/><line style="stroke:#B7B6B5;stroke-width:1.5625;" x1="54.1667" x2="54.1667" y1="311.2467" y2="321.6309"/><path d="M41.6667,298.7467 C51.0417,298.7467 54.1667,301.8717 54.1667,311.2467 " fill="none" style="stroke:#B7B6B5;stroke-width:1.5625;"/><path d="M135.4167,321.6309 C135.4167,331.0059 132.2917,334.1309 122.9167,334.1309 " fill="none" style="stroke:#B7B6B5;stroke-width:1.5625;"/><line style="stroke:#B7B6B5;stroke-width:1.5625;" x1="135.4167" x2="135.4167" y1="311.2467" y2="321.6309"/><path d="M135.4167,311.2467 C135.4167,301.8717 138.5417,298.7467 147.9167,298.7467 " fill="none" style="stroke:#B7B6B5;stroke-width:1.5625;"/><line style="stroke:#B7B6B5;stroke-width:1.5625;" x1="147.9167" x2="168.75" y1="298.7467" y2="298.7467"/><rect fill="none" height="24.9674" rx="5.2083" ry="5.2083" style="stroke:#B7B6B5;stroke-width:1.5625;" width="15.625" x="193.75" y="286.263"/><text fill="#4682B4" font-family="Verdana" font-size="12.5" lengthAdjust="spacing" textLength="5.2083" x="198.9583" y="303.0741">r</text><line style="stroke:#B7B6B5;stroke-width:1.5625;" x1="168.75" x2="193.75" y1="298.7467" y2="298.7467"/><line style="stroke:#B7B6B5;stroke-width:1.5625;" x1="209.375" x2="236.4583" y1="298.7467" y2="298.7467"/><rect fill="none" height="24.9674" rx="5.2083" ry="5.2083" style="stroke:#B7B6B5;stroke-width:1.5625;" width="17.7083" x="193.75" y="321.6471"/><text fill="#4682B4" font-family="Verdana" font-size="12.5" lengthAdjust="spacing" textLength="7.2917" x="198.9583" y="338.4583">s</text><line style="stroke:#B7B6B5;stroke-width:1.5625;" x1="211.4583" x2="211.4583" y1="334.1309" y2="334.1309"/><path d="M181.25,321.6309 C181.25,331.0059 184.375,334.1309 193.75,334.1309 " fill="none" style="stroke:#B7B6B5;stroke-width:1.5625;"/><line style="stroke:#B7B6B5;stroke-width:1.5625;" x1="181.25" x2="181.25" y1="311.2467" y2="321.6309"/><path d="M168.75,298.7467 C178.125,298.7467 181.25,301.8717 181.25,311.2467 " fill="none" style="stroke:#B7B6B5;stroke-width:1.5625;"/><path d="M223.9583,321.6309 C223.9583,331.0059 220.8333,334.1309 211.4583,334.1309 " fill="none" style="stroke:#B7B6B5;stroke-width:1.5625;"/><line style="stroke:#B7B6B5;stroke-width:1.5625;" x1="223.9583" x2="223.9583" y1="311.2467" y2="321.6309"/><path d="M223.9583,311.2467 C223.9583,301.8717 227.0833,298.7467 236.4583,298.7467 " fill="none" style="stroke:#B7B6B5;stroke-width:1.5625;"/><line style="stroke:#B7B6B5;stroke-width:1.5625;" x1="236.4583" x2="257.2917" y1="298.7467" y2="298.7467"/><rect fill="none" height="24.9674" rx="5.2083" ry="5.2083" style="stroke:#B7B6B5;stroke-width:1.5625;" width="15.625" x="257.2917" y="286.263"/><text fill="#4682B4" font-family="Verdana" font-size="12.5" lengthAdjust="spacing" textLength="5.2083" x="262.5" y="303.0741">t</text><ellipse cx="14.5833" cy="298.7467" fill="none" rx="4.1667" ry="4.1667" style="stroke:#B7B6B5;stroke-width:2.0833333333333335;"/><ellipse cx="304.1667" cy="298.7467" fill="#B7B6B5" rx="4.1667" ry="4.1667" style="stroke:#B7B6B5;stroke-width:1.0416666666666667;"/><line style="stroke:#B7B6B5;stroke-width:1.5625;" x1="18.75" x2="41.6667" y1="298.7467" y2="298.7467"/><line style="stroke:#B7B6B5;stroke-width:1.5625;" x1="272.9167" x2="300" y1="298.7467" y2="298.7467"/><path d="M284.375,298.7467 L284.375,295.6217 L290.625,298.7467 L284.375,301.8717 L284.375,298.7467 " fill="#B7B6B5" style="stroke:#B7B6B5;stroke-width:1.5625;"/><text fill="#4682B4" font-family="Verdana" font-size="12.5" font-weight="bold" lengthAdjust="spacing" textLength="9.375" x="10.4167" y="373.8424">e</text><ellipse cx="14.5833" cy="387.207" fill="none" rx="4.1667" ry="4.1667" style="stroke:#B7B6B5;stroke-width:2.0833333333333335;"/><ellipse cx="72.9167" cy="387.207" fill="#B7B6B5" rx="4.1667" ry="4.1667" style="stroke:#B7B6B5;stroke-width:1.0416666666666667;"/><line style="stroke:#B7B6B5;stroke-width:1.5625;" x1="18.75" x2="41.6667" y1="387.207" y2="387.207"/><line style="stroke:#B7B6B5;stroke-width:1.5625;" x1="41.6667" x2="68.75" y1="387.207" y2="387.207"/><path d="M53.125,387.207 L53.125,384.082 L59.375,387.207 L53.125,390.332 L53.125,387.207 " fill="#B7B6B5" style="stroke:#B7B6B5;stroke-width:1.5625;"/></g></svg>