<?xml version="1.0" encoding="UTF-8" standalone="no"?><svg xmlns="http://www.w3.org/2000/svg" xmlns:xlink="http://www.w3.org/1999/xlink" contentStyleType="text/css" height="392px" preserveAspectRatio="none" style="width:380px;height:392px;background:#FFFFFF;" version="1.1" viewBox="0 0 380 392" width="380px" zoomAndPan="magnify"><defs/><g><path d="M5,10 L5,35.1328 L219,35.1328 L219,20 L209,10 L5,10 " fill="#FFFFFF" style="stroke:#000000;stroke-width:1.0;"/><path d="M209,10 L209,20 L219,20 L209,10 " fill="#FFFFFF" style="stroke:#000000;stroke-width:1.0;"/><text fill="#000000" font-family="Verdana" font-size="13" lengthAdjust="spacing" textLength="185" x="15" y="27.0669">Test of some EBNF elements</text><text fill="#000000" font-family="Verdana" font-size="14" font-weight="bold" lengthAdjust="spacing" textLength="47" x="5" y="63.1279">rule-0</text><line style="stroke:#000000;stroke-width:1.5;" x1="35" x2="35" y1="89.5781" y2="89.5781"/><rect fill="#FFFFFF" height="26.2969" rx="5" ry="5" style="stroke:#000000;stroke-width:1.5;" width="36" x="35" y="76.4297"/><text fill="#000000" font-family="Verdana" font-size="14" lengthAdjust="spacing" textLength="26" x="40" y="94.4248">rule</text><line style="stroke:#000000;stroke-width:1.5;" x1="71" x2="91" y1="89.5781" y2="89.5781"/><rect fill="none" height="26.2969" style="stroke:#000000;stroke-width:0.5;" width="76" x="91" y="76.4297"/><text fill="#000000" font-family="Verdana" font-size="14" lengthAdjust="spacing" textLength="66" x="96" y="94.4248">litteral_dq</text><line style="stroke:#000000;stroke-width:1.5;" x1="167" x2="187" y1="89.5781" y2="89.5781"/><rect fill="none" height="26.2969" style="stroke:#000000;stroke-width:0.5;" width="75" x="187" y="76.4297"/><text fill="#000000" font-family="Verdana" font-size="14" lengthAdjust="spacing" textLength="65" x="192" y="94.4248">litteral_sq</text><line style="stroke:#000000;stroke-width:1.5;" x1="262" x2="282" y1="89.5781" y2="89.5781"/><rect fill="none" height="26.2969" style="stroke:#000000;stroke-width:1.0;stroke-dasharray:5.0,5.0;" width="58" x="282" y="76.4297"/><text fill="#000000" font-family="Verdana" font-size="14" lengthAdjust="spacing" textLength="48" x="287" y="94.4248">special</text><ellipse cx="9" cy="89.5781" fill="none" rx="4" ry="4" style="stroke:#000000;stroke-width:2.0;"/><ellipse cx="370" cy="89.5781" fill="#000000" rx="4" ry="4" style="stroke:#000000;stroke-width:1.0;"/><line style="stroke:#000000;stroke-width:1.5;" x1="13" x2="35" y1="89.5781" y2="89.5781"/><line style="stroke:#000000;stroke-width:1.5;" x1="340" x2="366" y1="89.5781" y2="89.5781"/><path d="M351,89.5781 L351,86.5781 L357,89.5781 L351,92.5781 L351,89.5781 " fill="#000000" style="stroke:#000000;stroke-width:1.5;"/><text fill="#000000" font-family="Verdana" font-size="14" font-weight="bold" lengthAdjust="spacing" textLength="17" x="5" y="130.7217">r1</text><line style="stroke:#000000;stroke-width:1.5;" x1="35" x2="35" y1="185.1719" y2="185.1719"/><rect fill="#FFFFFF" height="26.2969" rx="5" ry="5" style="stroke:#000000;stroke-width:1.5;" width="15" x="35" y="172.0234"/><text fill="#000000" font-family="Verdana" font-size="14" lengthAdjust="spacing" textLength="5" x="40" y="190.0186">t</text><line style="stroke:#000000;stroke-width:1.5;" x1="50" x2="70" y1="185.1719" y2="185.1719"/><path d="M78,177.1719 C78,183.1719 76,185.1719 70,185.1719 " fill="none" style="stroke:#000000;stroke-width:1.5;"/><line style="stroke:#000000;stroke-width:1.5;" x1="78" x2="78" y1="169.0234" y2="177.1719"/><path d="M78,169.0234 C78,163.0234 80,161.0234 86,161.0234 " fill="none" style="stroke:#000000;stroke-width:1.5;"/><line style="stroke:#000000;stroke-width:1.5;" x1="86" x2="103" y1="161.0234" y2="161.0234"/><path d="M111,177.1719 C111,183.1719 113,185.1719 119,185.1719 " fill="none" style="stroke:#000000;stroke-width:1.5;"/><line style="stroke:#000000;stroke-width:1.5;" x1="111" x2="111" y1="169.0234" y2="177.1719"/><path d="M103,161.0234 C109,161.0234 111,163.0234 111,169.0234 " fill="none" style="stroke:#000000;stroke-width:1.5;"/><line style="stroke:#000000;stroke-width:1.5;" x1="70" x2="85" y1="185.1719" y2="185.1719"/><line style="stroke:#000000;stroke-width:1.5;" x1="104" x2="119" y1="185.1719" y2="185.1719"/><rect fill="#FFFFFF" height="26.2969" rx="5" ry="5" style="stroke:#000000;stroke-width:1.5;" width="19" x="85" y="172.0234"/><text fill="#000000" font-family="Verdana" font-size="14" lengthAdjust="spacing" textLength="9" x="90" y="190.0186">h</text><line style="stroke:#000000;stroke-width:1.5;" x1="119" x2="139" y1="185.1719" y2="185.1719"/><path d="M147,177.1719 C147,183.1719 145,185.1719 139,185.1719 " fill="none" style="stroke:#000000;stroke-width:1.5;"/><line style="stroke:#000000;stroke-width:1.5;" x1="147" x2="147" y1="157.0234" y2="177.1719"/><path d="M147,157.0234 C147,151.0234 149,149.0234 155,149.0234 " fill="none" style="stroke:#000000;stroke-width:1.5;"/><line style="stroke:#000000;stroke-width:1.5;" x1="155" x2="202" y1="149.0234" y2="149.0234"/><path d="M171.8,149.0234 L171.8,146.0234 L177.8,149.0234 L171.8,152.0234 L171.8,149.0234 " fill="#000000" style="stroke:#000000;stroke-width:1.5;"/><path d="M210,177.1719 C210,183.1719 212,185.1719 218,185.1719 " fill="none" style="stroke:#000000;stroke-width:1.5;"/><line style="stroke:#000000;stroke-width:1.5;" x1="210" x2="210" y1="157.0234" y2="177.1719"/><path d="M202,149.0234 C208,149.0234 210,151.0234 210,157.0234 " fill="none" style="stroke:#000000;stroke-width:1.5;"/><line style="stroke:#000000;stroke-width:1.5;" x1="139" x2="154" y1="185.1719" y2="185.1719"/><line style="stroke:#000000;stroke-width:1.5;" x1="203" x2="218" y1="185.1719" y2="185.1719"/><path d="M162,177.1719 C162,183.1719 164,185.1719 170,185.1719 " fill="none" style="stroke:#000000;stroke-width:1.5;"/><line style="stroke:#000000;stroke-width:1.5;" x1="162" x2="162" y1="173.0234" y2="177.1719"/><path d="M162,173.0234 C162,167.0234 164,165.0234 170,165.0234 " fill="none" style="stroke:#000000;stroke-width:1.5;"/><line style="stroke:#000000;stroke-width:1.5;" x1="169" x2="188" y1="165.0234" y2="165.0234"/><path d="M178.4,165.0234 L178.4,162.0234 L172.4,165.0234 L178.4,168.0234 L178.4,165.0234 " fill="#000000" style="stroke:#000000;stroke-width:1.5;"/><path d="M195,177.1719 C195,183.1719 193,185.1719 187,185.1719 " fill="none" style="stroke:#000000;stroke-width:1.5;"/><line style="stroke:#000000;stroke-width:1.5;" x1="195" x2="195" y1="173.0234" y2="177.1719"/><path d="M187,165.0234 C193,165.0234 195,167.0234 195,173.0234 " fill="none" style="stroke:#000000;stroke-width:1.5;"/><line style="stroke:#000000;stroke-width:1.5;" x1="154" x2="169" y1="185.1719" y2="185.1719"/><line style="stroke:#000000;stroke-width:1.5;" x1="188" x2="203" y1="185.1719" y2="185.1719"/><rect fill="#FFFFFF" height="26.2969" rx="5" ry="5" style="stroke:#000000;stroke-width:1.5;" width="19" x="169" y="172.0234"/><text fill="#000000" font-family="Verdana" font-size="14" lengthAdjust="spacing" textLength="9" x="174" y="190.0186">e</text><line style="stroke:#000000;stroke-width:1.5;" x1="218" x2="238" y1="185.1719" y2="185.1719"/><path d="M246,177.1719 C246,183.1719 248,185.1719 254,185.1719 " fill="none" style="stroke:#000000;stroke-width:1.5;"/><line style="stroke:#000000;stroke-width:1.5;" x1="246" x2="246" y1="173.0234" y2="177.1719"/><path d="M246,173.0234 C246,167.0234 248,165.0234 254,165.0234 " fill="none" style="stroke:#000000;stroke-width:1.5;"/><line style="stroke:#000000;stroke-width:1.5;" x1="253" x2="272" y1="165.0234" y2="165.0234"/><path d="M262.4,165.0234 L262.4,162.0234 L256.4,165.0234 L262.4,168.0234 L262.4,165.0234 " fill="#000000" style="stroke:#000000;stroke-width:1.5;"/><path d="M279,177.1719 C279,183.1719 277,185.1719 271,185.1719 " fill="none" style="stroke:#000000;stroke-width:1.5;"/><line style="stroke:#000000;stroke-width:1.5;" x1="279" x2="279" y1="173.0234" y2="177.1719"/><path d="M271,165.0234 C277,165.0234 279,167.0234 279,173.0234 " fill="none" style="stroke:#000000;stroke-width:1.5;"/><line style="stroke:#000000;stroke-width:1.5;" x1="238" x2="253" y1="185.1719" y2="185.1719"/><line style="stroke:#000000;stroke-width:1.5;" x1="272" x2="287" y1="185.1719" y2="185.1719"/><rect fill="#FFFFFF" height="26.2969" rx="5" ry="5" style="stroke:#000000;stroke-width:1.5;" width="19" x="253" y="172.0234"/><text fill="#000000" font-family="Verdana" font-size="14" lengthAdjust="spacing" textLength="9" x="258" y="190.0186">o</text><ellipse cx="9" cy="185.1719" fill="none" rx="4" ry="4" style="stroke:#000000;stroke-width:2.0;"/><ellipse cx="317" cy="185.1719" fill="#000000" rx="4" ry="4" style="stroke:#000000;stroke-width:1.0;"/><line style="stroke:#000000;stroke-width:1.5;" x1="13" x2="35" y1="185.1719" y2="185.1719"/><line style="stroke:#000000;stroke-width:1.5;" x1="287" x2="313" y1="185.1719" y2="185.1719"/><path d="M298,185.1719 L298,182.1719 L304,185.1719 L298,188.1719 L298,185.1719 " fill="#000000" style="stroke:#000000;stroke-width:1.5;"/><text fill="#000000" font-family="Verdana" font-size="14" font-weight="bold" lengthAdjust="spacing" textLength="17" x="5" y="226.3154">r2</text><line style="stroke:#000000;stroke-width:1.5;" x1="35" x2="35" y1="279.7656" y2="279.7656"/><path d="M67,271.7656 C67,277.7656 69,279.7656 75,279.7656 " fill="none" style="stroke:#000000;stroke-width:1.5;"/><line style="stroke:#000000;stroke-width:1.5;" x1="67" x2="67" y1="267.6172" y2="271.7656"/><path d="M67,267.6172 C67,261.6172 69,259.6172 75,259.6172 " fill="none" style="stroke:#000000;stroke-width:1.5;"/><line style="stroke:#000000;stroke-width:1.5;" x1="74" x2="99" y1="259.6172" y2="259.6172"/><path d="M87,259.6172 L87,256.6172 L81,259.6172 L87,262.6172 L87,259.6172 " fill="#000000" style="stroke:#000000;stroke-width:1.5;"/><path d="M106,271.7656 C106,277.7656 104,279.7656 98,279.7656 " fill="none" style="stroke:#000000;stroke-width:1.5;"/><line style="stroke:#000000;stroke-width:1.5;" x1="106" x2="106" y1="267.6172" y2="271.7656"/><path d="M98,259.6172 C104,259.6172 106,261.6172 106,267.6172 " fill="none" style="stroke:#000000;stroke-width:1.5;"/><line style="stroke:#000000;stroke-width:1.5;" x1="59" x2="74" y1="279.7656" y2="279.7656"/><line style="stroke:#000000;stroke-width:1.5;" x1="99" x2="114" y1="279.7656" y2="279.7656"/><rect fill="#FFFFFF" height="26.2969" rx="5" ry="5" style="stroke:#000000;stroke-width:1.5;" width="25" x="74" y="266.6172"/><text fill="#000000" font-family="Verdana" font-size="14" lengthAdjust="spacing" textLength="15" x="79" y="284.6123">nil</text><path d="M59,254.6172 C59,250.8672 60.25,249.6172 64,249.6172 " fill="none" style="stroke:#000000;stroke-width:0.5;"/><path d="M86.5,244.6172 C86.5,248.3672 85.25,249.6172 81.5,249.6172 " fill="none" style="stroke:#000000;stroke-width:0.5;"/><path d="M86.5,244.6172 C86.5,248.3672 87.75,249.6172 91.5,249.6172 " fill="none" style="stroke:#000000;stroke-width:0.5;"/><path d="M109,249.6172 C112.75,249.6172 114,250.8672 114,254.6172 " fill="none" style="stroke:#000000;stroke-width:0.5;"/><line style="stroke:#000000;stroke-width:0.5;" x1="64" x2="81.5" y1="249.6172" y2="249.6172"/><line style="stroke:#000000;stroke-width:0.5;" x1="91.5" x2="109" y1="249.6172" y2="249.6172"/><text fill="#000000" font-family="Verdana" font-size="12" lengthAdjust="spacing" textLength="18" x="77.5" y="242.4473">3×</text><line style="stroke:#000000;stroke-width:1.5;" x1="35" x2="59" y1="279.7656" y2="279.7656"/><line style="stroke:#000000;stroke-width:1.5;" x1="114" x2="138" y1="279.7656" y2="279.7656"/><rect fill="#FFFFFF" height="26.2969" rx="5" ry="5" style="stroke:#000000;stroke-width:1.5;" width="18" x="59" y="302.9141"/><text fill="#000000" font-family="Verdana" font-size="14" lengthAdjust="spacing" textLength="8" x="64" y="320.9092">z</text><line style="stroke:#000000;stroke-width:1.5;" x1="77" x2="114" y1="316.0625" y2="316.0625"/><path d="M93.5,316.0625 L93.5,313.0625 L99.5,316.0625 L93.5,319.0625 L93.5,316.0625 " fill="#000000" style="stroke:#000000;stroke-width:1.5;"/><path d="M47,304.0625 C47,313.0625 50,316.0625 59,316.0625 " fill="none" style="stroke:#000000;stroke-width:1.5;"/><line style="stroke:#000000;stroke-width:1.5;" x1="47" x2="47" y1="291.7656" y2="304.0625"/><path d="M35,279.7656 C44,279.7656 47,282.7656 47,291.7656 " fill="none" style="stroke:#000000;stroke-width:1.5;"/><path d="M126,304.0625 C126,313.0625 123,316.0625 114,316.0625 " fill="none" style="stroke:#000000;stroke-width:1.5;"/><line style="stroke:#000000;stroke-width:1.5;" x1="126" x2="126" y1="291.7656" y2="304.0625"/><path d="M126,291.7656 C126,282.7656 129,279.7656 138,279.7656 " fill="none" style="stroke:#000000;stroke-width:1.5;"/><line style="stroke:#000000;stroke-width:1.5;" x1="138" x2="158" y1="279.7656" y2="279.7656"/><rect fill="#FFFFFF" height="26.2969" rx="5" ry="5" style="stroke:#000000;stroke-width:1.5;" width="15" x="182" y="266.6172"/><text fill="#000000" font-family="Verdana" font-size="14" lengthAdjust="spacing" textLength="5" x="187" y="284.6123">r</text><line style="stroke:#000000;stroke-width:1.5;" x1="158" x2="182" y1="279.7656" y2="279.7656"/><line style="stroke:#000000;stroke-width:1.5;" x1="197" x2="224" y1="279.7656" y2="279.7656"/><rect fill="#FFFFFF" height="26.2969" rx="5" ry="5" style="stroke:#000000;stroke-width:1.5;" width="18" x="182" y="302.9141"/><text fill="#000000" font-family="Verdana" font-size="14" lengthAdjust="spacing" textLength="8" x="187" y="320.9092">s</text><line style="stroke:#000000;stroke-width:1.5;" x1="200" x2="200" y1="316.0625" y2="316.0625"/><path d="M170,304.0625 C170,313.0625 173,316.0625 182,316.0625 " fill="none" style="stroke:#000000;stroke-width:1.5;"/><line style="stroke:#000000;stroke-width:1.5;" x1="170" x2="170" y1="291.7656" y2="304.0625"/><path d="M158,279.7656 C167,279.7656 170,282.7656 170,291.7656 " fill="none" style="stroke:#000000;stroke-width:1.5;"/><path d="M212,304.0625 C212,313.0625 209,316.0625 200,316.0625 " fill="none" style="stroke:#000000;stroke-width:1.5;"/><line style="stroke:#000000;stroke-width:1.5;" x1="212" x2="212" y1="291.7656" y2="304.0625"/><path d="M212,291.7656 C212,282.7656 215,279.7656 224,279.7656 " fill="none" style="stroke:#000000;stroke-width:1.5;"/><line style="stroke:#000000;stroke-width:1.5;" x1="224" x2="244" y1="279.7656" y2="279.7656"/><rect fill="#FFFFFF" height="26.2969" rx="5" ry="5" style="stroke:#000000;stroke-width:1.5;" width="15" x="244" y="266.6172"/><text fill="#000000" font-family="Verdana" font-size="14" lengthAdjust="spacing" textLength="5" x="249" y="284.6123">t</text><ellipse cx="9" cy="279.7656" fill="none" rx="4" ry="4" style="stroke:#000000;stroke-width:2.0;"/><ellipse cx="289" cy="279.7656" fill="#000000" rx="4" ry="4" style="stroke:#000000;stroke-width:1.0;"/><line style="stroke:#000000;stroke-width:1.5;" x1="13" x2="35" y1="279.7656" y2="279.7656"/><line style="stroke:#000000;stroke-width:1.5;" x1="259" x2="285" y1="279.7656" y2="279.7656"/><path d="M270,279.7656 L270,276.7656 L276,279.7656 L270,282.7656 L270,279.7656 " fill="#000000" style="stroke:#000000;stroke-width:1.5;"/><text fill="#000000" font-family="Verdana" font-size="14" font-weight="bold" lengthAdjust="spacing" textLength="10" x="5" y="357.2061">e</text><ellipse cx="9" cy="370.5078" fill="none" rx="4" ry="4" style="stroke:#000000;stroke-width:2.0;"/><ellipse cx="65" cy="370.5078" fill="#000000" rx="4" ry="4" style="stroke:#000000;stroke-width:1.0;"/><line style="stroke:#000000;stroke-width:1.5;" x1="13" x2="35" y1="370.5078" y2="370.5078"/><line style="stroke:#000000;stroke-width:1.5;" x1="35" x2="61" y1="370.5078" y2="370.5078"/><path d="M46,370.5078 L46,367.5078 L52,370.5078 L46,373.5078 L46,370.5078 " fill="#000000" style="stroke:#000000;stroke-width:1.5;"/></g></svg>