<svg xmlns="http://www.w3.org/2000/svg" xmlns:xlink="http://www.w3.org/1999/xlink" contentStyleType="text/css" height="419.7917px" preserveAspectRatio="none" style="width:419px;height:419px;background:#FDF6E3;" version="1.1" viewBox="0 0 419 419" width="419.7917px" zoomAndPan="magnify"><defs/><g><rect fill="#FDF6E3" height="419.7917" style="stroke:none;stroke-width:1.0416666666666667;" width="419.7917" x="0" y="0"/><path d="M10.4167,15.625 L10.4167,41.805 L230.2083,41.805 L230.2083,26.0417 L219.7917,15.625 L10.4167,15.625 " fill="#FFFFCC" style="stroke:#B58900;stroke-width:2.0833333333333335;"/><path d="M219.7917,15.625 L219.7917,26.0417 L230.2083,26.0417 L219.7917,15.625 " fill="#FFFFCC" style="stroke:#B58900;stroke-width:2.0833333333333335;"/><text fill="#000000" font-family="Dejavu Serif" font-size="13.5417" lengthAdjust="spacing" textLength="4.1667" x="16.6667" y="33.403">&#160;</text><text fill="#000000" font-family="Dejavu Serif" font-size="13.5417" lengthAdjust="spacing" textLength="28.125" x="20.8333" y="33.403">Test</text><text fill="#000000" font-family="Dejavu Serif" font-size="13.5417" lengthAdjust="spacing" textLength="4.1667" x="48.9583" y="33.403">&#160;</text><text fill="#000000" font-family="Dejavu Serif" font-size="13.5417" lengthAdjust="spacing" textLength="13.5417" x="53.125" y="33.403">of</text><text fill="#000000" font-family="Dejavu Serif" font-size="13.5417" lengthAdjust="spacing" textLength="4.1667" x="66.6667" y="33.403">&#160;</text><text fill="#000000" font-family="Dejavu Serif" font-size="13.5417" lengthAdjust="spacing" textLength="34.375" x="70.8333" y="33.403">some</text><text fill="#000000" font-family="Dejavu Serif" font-size="13.5417" lengthAdjust="spacing" textLength="4.1667" x="105.2083" y="33.403">&#160;</text><text fill="#000000" font-family="Dejavu Serif" font-size="13.5417" lengthAdjust="spacing" textLength="42.7083" x="109.375" y="33.403">EBNF</text><text fill="#000000" font-family="Dejavu Serif" font-size="13.5417" lengthAdjust="spacing" textLength="4.1667" x="152.0833" y="33.403">&#160;</text><text fill="#000000" font-family="Dejavu Serif" font-size="13.5417" lengthAdjust="spacing" textLength="58.3333" x="156.25" y="33.403">elements</text><text fill="#000000" font-family="Dejavu Serif" font-size="14.5833" font-weight="bold" lengthAdjust="spacing" textLength="50" x="10.4167" y="71.1233">rule-0</text><line style="stroke:#181818;stroke-width:1.5625;" x1="41.6667" x2="41.6667" y1="98.6755" y2="98.6755"/><rect fill="#F1F1F1" height="27.3926" rx="5.2083" ry="5.2083" style="stroke:#181818;stroke-width:1.5625;" width="39.5833" x="41.6667" y="84.9792"/><text fill="#000000" font-family="Dejavu Serif" font-size="14.5833" lengthAdjust="spacing" textLength="29.1667" x="46.875" y="103.7242">rule</text><line style="stroke:#181818;stroke-width:1.5625;" x1="81.25" x2="102.0833" y1="98.6755" y2="98.6755"/><rect fill="none" height="27.3926" style="stroke:#181818;stroke-width:0.5208333333333334;" width="85.4167" x="102.0833" y="84.9792"/><text fill="#000000" font-family="Dejavu Serif" font-size="14.5833" lengthAdjust="spacing" textLength="75" x="107.2917" y="103.7242">litteral_dq</text><line style="stroke:#181818;stroke-width:1.5625;" x1="187.5" x2="208.3333" y1="98.6755" y2="98.6755"/><rect fill="none" height="27.3926" style="stroke:#181818;stroke-width:0.5208333333333334;" width="83.3333" x="208.3333" y="84.9792"/><text fill="#000000" font-family="Dejavu Serif" font-size="14.5833" lengthAdjust="spacing" textLength="72.9167" x="213.5417" y="103.7242">litteral_sq</text><line style="stroke:#181818;stroke-width:1.5625;" x1="291.6667" x2="312.5" y1="98.6755" y2="98.6755"/><rect fill="none" height="27.3926" style="stroke:#181818;stroke-width:1.0416666666666667;stroke-dasharray:5.0,5.0;" width="60.4167" x="312.5" y="84.9792"/><text fill="#000000" font-family="Dejavu Serif" font-size="14.5833" lengthAdjust="spacing" textLength="50" x="317.7083" y="103.7242">special</text><ellipse cx="14.5833" cy="98.6755" fill="none" rx="4.1667" ry="4.1667" style="stroke:#181818;stroke-width:2.0833333333333335;"/><ellipse cx="404.1667" cy="98.6755" fill="#181818" rx="4.1667" ry="4.1667" style="stroke:#181818;stroke-width:1.0416666666666667;"/><line style="stroke:#181818;stroke-width:1.5625;" x1="18.75" x2="41.6667" y1="98.6755" y2="98.6755"/><line style="stroke:#181818;stroke-width:1.5625;" x1="372.9167" x2="400" y1="98.6755" y2="98.6755"/><path d="M384.375,98.6755 L384.375,95.5505 L390.625,98.6755 L384.375,101.8005 L384.375,98.6755 " fill="#181818" style="stroke:#181818;stroke-width:1.5625;"/><text fill="#000000" font-family="Dejavu Serif" font-size="14.5833" font-weight="bold" lengthAdjust="spacing" textLength="18.75" x="10.4167" y="141.6901">r1</text><line style="stroke:#181818;stroke-width:1.5625;" x1="41.6667" x2="41.6667" y1="198.409" y2="198.409"/><rect fill="#F1F1F1" height="27.3926" rx="5.2083" ry="5.2083" style="stroke:#181818;stroke-width:1.5625;" width="16.6667" x="41.6667" y="184.7127"/><text fill="#000000" font-family="Dejavu Serif" font-size="14.5833" lengthAdjust="spacing" textLength="6.25" x="46.875" y="203.4576">t</text><line style="stroke:#181818;stroke-width:1.5625;" x1="58.3333" x2="79.1667" y1="198.409" y2="198.409"/><path d="M87.5,190.0757 C87.5,196.3257 85.4167,198.409 79.1667,198.409 " fill="none" style="stroke:#181818;stroke-width:1.5625;"/><line style="stroke:#181818;stroke-width:1.5625;" x1="87.5" x2="87.5" y1="181.5877" y2="190.0757"/><path d="M87.5,181.5877 C87.5,175.3377 89.5833,173.2544 95.8333,173.2544 " fill="none" style="stroke:#181818;stroke-width:1.5625;"/><line style="stroke:#181818;stroke-width:1.5625;" x1="95.8333" x2="113.5417" y1="173.2544" y2="173.2544"/><path d="M121.875,190.0757 C121.875,196.3257 123.9583,198.409 130.2083,198.409 " fill="none" style="stroke:#181818;stroke-width:1.5625;"/><line style="stroke:#181818;stroke-width:1.5625;" x1="121.875" x2="121.875" y1="181.5877" y2="190.0757"/><path d="M113.5417,173.2544 C119.7917,173.2544 121.875,175.3377 121.875,181.5877 " fill="none" style="stroke:#181818;stroke-width:1.5625;"/><line style="stroke:#181818;stroke-width:1.5625;" x1="79.1667" x2="94.7917" y1="198.409" y2="198.409"/><line style="stroke:#181818;stroke-width:1.5625;" x1="114.5833" x2="130.2083" y1="198.409" y2="198.409"/><rect fill="#F1F1F1" height="27.3926" rx="5.2083" ry="5.2083" style="stroke:#181818;stroke-width:1.5625;" width="19.7917" x="94.7917" y="184.7127"/><text fill="#000000" font-family="Dejavu Serif" font-size="14.5833" lengthAdjust="spacing" textLength="9.375" x="100" y="203.4576">h</text><line style="stroke:#181818;stroke-width:1.5625;" x1="130.2083" x2="151.0417" y1="198.409" y2="198.409"/><path d="M159.375,190.0757 C159.375,196.3257 157.2917,198.409 151.0417,198.409 " fill="none" style="stroke:#181818;stroke-width:1.5625;"/><line style="stroke:#181818;stroke-width:1.5625;" x1="159.375" x2="159.375" y1="169.0877" y2="190.0757"/><path d="M159.375,169.0877 C159.375,162.8377 161.4583,160.7544 167.7083,160.7544 " fill="none" style="stroke:#181818;stroke-width:1.5625;"/><line style="stroke:#181818;stroke-width:1.5625;" x1="167.7083" x2="215.625" y1="160.7544" y2="160.7544"/><path d="M184.7917,160.7544 L184.7917,157.6294 L191.0417,160.7544 L184.7917,163.8794 L184.7917,160.7544 " fill="#181818" style="stroke:#181818;stroke-width:1.5625;"/><path d="M223.9583,190.0757 C223.9583,196.3257 226.0417,198.409 232.2917,198.409 " fill="none" style="stroke:#181818;stroke-width:1.5625;"/><line style="stroke:#181818;stroke-width:1.5625;" x1="223.9583" x2="223.9583" y1="169.0877" y2="190.0757"/><path d="M215.625,160.7544 C221.875,160.7544 223.9583,162.8377 223.9583,169.0877 " fill="none" style="stroke:#181818;stroke-width:1.5625;"/><line style="stroke:#181818;stroke-width:1.5625;" x1="151.0417" x2="166.6667" y1="198.409" y2="198.409"/><line style="stroke:#181818;stroke-width:1.5625;" x1="216.6667" x2="232.2917" y1="198.409" y2="198.409"/><path d="M175,190.0757 C175,196.3257 177.0833,198.409 183.3333,198.409 " fill="none" style="stroke:#181818;stroke-width:1.5625;"/><line style="stroke:#181818;stroke-width:1.5625;" x1="175" x2="175" y1="185.7544" y2="190.0757"/><path d="M175,185.7544 C175,179.5044 177.0833,177.4211 183.3333,177.4211 " fill="none" style="stroke:#181818;stroke-width:1.5625;"/><line style="stroke:#181818;stroke-width:1.5625;" x1="182.2917" x2="201.0417" y1="177.4211" y2="177.4211"/><path d="M191.4583,177.4211 L191.4583,174.2961 L185.2083,177.4211 L191.4583,180.5461 L191.4583,177.4211 " fill="#181818" style="stroke:#181818;stroke-width:1.5625;"/><path d="M208.3333,190.0757 C208.3333,196.3257 206.25,198.409 200,198.409 " fill="none" style="stroke:#181818;stroke-width:1.5625;"/><line style="stroke:#181818;stroke-width:1.5625;" x1="208.3333" x2="208.3333" y1="185.7544" y2="190.0757"/><path d="M200,177.4211 C206.25,177.4211 208.3333,179.5044 208.3333,185.7544 " fill="none" style="stroke:#181818;stroke-width:1.5625;"/><line style="stroke:#181818;stroke-width:1.5625;" x1="166.6667" x2="182.2917" y1="198.409" y2="198.409"/><line style="stroke:#181818;stroke-width:1.5625;" x1="201.0417" x2="216.6667" y1="198.409" y2="198.409"/><rect fill="#F1F1F1" height="27.3926" rx="5.2083" ry="5.2083" style="stroke:#181818;stroke-width:1.5625;" width="18.75" x="182.2917" y="184.7127"/><text fill="#000000" font-family="Dejavu Serif" font-size="14.5833" lengthAdjust="spacing" textLength="8.3333" x="187.5" y="203.4576">e</text><line style="stroke:#181818;stroke-width:1.5625;" x1="232.2917" x2="253.125" y1="198.409" y2="198.409"/><path d="M261.4583,190.0757 C261.4583,196.3257 263.5417,198.409 269.7917,198.409 " fill="none" style="stroke:#181818;stroke-width:1.5625;"/><line style="stroke:#181818;stroke-width:1.5625;" x1="261.4583" x2="261.4583" y1="185.7544" y2="190.0757"/><path d="M261.4583,185.7544 C261.4583,179.5044 263.5417,177.4211 269.7917,177.4211 " fill="none" style="stroke:#181818;stroke-width:1.5625;"/><line style="stroke:#181818;stroke-width:1.5625;" x1="268.75" x2="287.5" y1="177.4211" y2="177.4211"/><path d="M277.9167,177.4211 L277.9167,174.2961 L271.6667,177.4211 L277.9167,180.5461 L277.9167,177.4211 " fill="#181818" style="stroke:#181818;stroke-width:1.5625;"/><path d="M294.7917,190.0757 C294.7917,196.3257 292.7083,198.409 286.4583,198.409 " fill="none" style="stroke:#181818;stroke-width:1.5625;"/><line style="stroke:#181818;stroke-width:1.5625;" x1="294.7917" x2="294.7917" y1="185.7544" y2="190.0757"/><path d="M286.4583,177.4211 C292.7083,177.4211 294.7917,179.5044 294.7917,185.7544 " fill="none" style="stroke:#181818;stroke-width:1.5625;"/><line style="stroke:#181818;stroke-width:1.5625;" x1="253.125" x2="268.75" y1="198.409" y2="198.409"/><line style="stroke:#181818;stroke-width:1.5625;" x1="287.5" x2="303.125" y1="198.409" y2="198.409"/><rect fill="#F1F1F1" height="27.3926" rx="5.2083" ry="5.2083" style="stroke:#181818;stroke-width:1.5625;" width="18.75" x="268.75" y="184.7127"/><text fill="#000000" font-family="Dejavu Serif" font-size="14.5833" lengthAdjust="spacing" textLength="8.3333" x="273.9583" y="203.4576">o</text><ellipse cx="14.5833" cy="198.409" fill="none" rx="4.1667" ry="4.1667" style="stroke:#181818;stroke-width:2.0833333333333335;"/><ellipse cx="334.375" cy="198.409" fill="#181818" rx="4.1667" ry="4.1667" style="stroke:#181818;stroke-width:1.0416666666666667;"/><line style="stroke:#181818;stroke-width:1.5625;" x1="18.75" x2="41.6667" y1="198.409" y2="198.409"/><line style="stroke:#181818;stroke-width:1.5625;" x1="303.125" x2="330.2083" y1="198.409" y2="198.409"/><path d="M314.5833,198.409 L314.5833,195.284 L320.8333,198.409 L314.5833,201.534 L314.5833,198.409 " fill="#181818" style="stroke:#181818;stroke-width:1.5625;"/><text fill="#000000" font-family="Dejavu Serif" font-size="14.5833" font-weight="bold" lengthAdjust="spacing" textLength="18.75" x="10.4167" y="241.4235">r2</text><line style="stroke:#181818;stroke-width:1.5625;" x1="41.6667" x2="41.6667" y1="297.1008" y2="297.1008"/><path d="M75,288.7675 C75,295.0175 77.0833,297.1008 83.3333,297.1008 " fill="none" style="stroke:#181818;stroke-width:1.5625;"/><line style="stroke:#181818;stroke-width:1.5625;" x1="75" x2="75" y1="284.4462" y2="288.7675"/><path d="M75,284.4462 C75,278.1962 77.0833,276.1129 83.3333,276.1129 " fill="none" style="stroke:#181818;stroke-width:1.5625;"/><line style="stroke:#181818;stroke-width:1.5625;" x1="82.2917" x2="110.4167" y1="276.1129" y2="276.1129"/><path d="M97.0833,276.1129 L97.0833,272.9879 L90.8333,276.1129 L97.0833,279.2379 L97.0833,276.1129 " fill="#181818" style="stroke:#181818;stroke-width:1.5625;"/><path d="M117.7083,288.7675 C117.7083,295.0175 115.625,297.1008 109.375,297.1008 " fill="none" style="stroke:#181818;stroke-width:1.5625;"/><line style="stroke:#181818;stroke-width:1.5625;" x1="117.7083" x2="117.7083" y1="284.4462" y2="288.7675"/><path d="M109.375,276.1129 C115.625,276.1129 117.7083,278.1962 117.7083,284.4462 " fill="none" style="stroke:#181818;stroke-width:1.5625;"/><line style="stroke:#181818;stroke-width:1.5625;" x1="66.6667" x2="82.2917" y1="297.1008" y2="297.1008"/><line style="stroke:#181818;stroke-width:1.5625;" x1="110.4167" x2="126.0417" y1="297.1008" y2="297.1008"/><rect fill="#F1F1F1" height="27.3926" rx="5.2083" ry="5.2083" style="stroke:#181818;stroke-width:1.5625;" width="28.125" x="82.2917" y="283.4045"/><text fill="#000000" font-family="Dejavu Serif" font-size="14.5833" lengthAdjust="spacing" textLength="17.7083" x="87.5" y="302.1495">nil</text><path d="M66.6667,270.9045 C66.6667,266.9983 67.9688,265.6962 71.875,265.6962 " fill="none" style="stroke:#181818;stroke-width:0.5208333333333334;"/><path d="M96.3542,260.4879 C96.3542,264.3941 95.0521,265.6962 91.1458,265.6962 " fill="none" style="stroke:#181818;stroke-width:0.5208333333333334;"/><path d="M96.3542,260.4879 C96.3542,264.3941 97.6563,265.6962 101.5625,265.6962 " fill="none" style="stroke:#181818;stroke-width:0.5208333333333334;"/><path d="M120.8333,265.6962 C124.7396,265.6962 126.0417,266.9983 126.0417,270.9045 " fill="none" style="stroke:#181818;stroke-width:0.5208333333333334;"/><line style="stroke:#181818;stroke-width:0.5208333333333334;" x1="71.875" x2="91.1458" y1="265.6962" y2="265.6962"/><line style="stroke:#181818;stroke-width:0.5208333333333334;" x1="101.5625" x2="120.8333" y1="265.6962" y2="265.6962"/><text fill="#000000" font-family="Dejavu Serif" font-size="12.5" lengthAdjust="spacing" textLength="18.75" x="86.9792" y="258.2275">3&#215;</text><line style="stroke:#181818;stroke-width:1.5625;" x1="41.6667" x2="66.6667" y1="297.1008" y2="297.1008"/><line style="stroke:#181818;stroke-width:1.5625;" x1="126.0417" x2="151.0417" y1="297.1008" y2="297.1008"/><rect fill="#F1F1F1" height="27.3926" rx="5.2083" ry="5.2083" style="stroke:#181818;stroke-width:1.5625;" width="17.7083" x="66.6667" y="321.2138"/><text fill="#000000" font-family="Dejavu Serif" font-size="14.5833" lengthAdjust="spacing" textLength="7.2917" x="71.875" y="339.9587">z</text><line style="stroke:#181818;stroke-width:1.5625;" x1="84.375" x2="126.0417" y1="334.9101" y2="334.9101"/><path d="M103.125,334.9101 L103.125,331.7851 L109.375,334.9101 L103.125,338.0351 L103.125,334.9101 " fill="#181818" style="stroke:#181818;stroke-width:1.5625;"/><path d="M54.1667,322.4101 C54.1667,331.7851 57.2917,334.9101 66.6667,334.9101 " fill="none" style="stroke:#181818;stroke-width:1.5625;"/><line style="stroke:#181818;stroke-width:1.5625;" x1="54.1667" x2="54.1667" y1="309.6008" y2="322.4101"/><path d="M41.6667,297.1008 C51.0417,297.1008 54.1667,300.2258 54.1667,309.6008 " fill="none" style="stroke:#181818;stroke-width:1.5625;"/><path d="M138.5417,322.4101 C138.5417,331.7851 135.4167,334.9101 126.0417,334.9101 " fill="none" style="stroke:#181818;stroke-width:1.5625;"/><line style="stroke:#181818;stroke-width:1.5625;" x1="138.5417" x2="138.5417" y1="309.6008" y2="322.4101"/><path d="M138.5417,309.6008 C138.5417,300.2258 141.6667,297.1008 151.0417,297.1008 " fill="none" style="stroke:#181818;stroke-width:1.5625;"/><line style="stroke:#181818;stroke-width:1.5625;" x1="151.0417" x2="171.875" y1="297.1008" y2="297.1008"/><rect fill="#F1F1F1" height="27.3926" rx="5.2083" ry="5.2083" style="stroke:#181818;stroke-width:1.5625;" width="17.7083" x="196.875" y="283.4045"/><text fill="#000000" font-family="Dejavu Serif" font-size="14.5833" lengthAdjust="spacing" textLength="7.2917" x="202.0833" y="302.1495">r</text><line style="stroke:#181818;stroke-width:1.5625;" x1="171.875" x2="196.875" y1="297.1008" y2="297.1008"/><line style="stroke:#181818;stroke-width:1.5625;" x1="214.5833" x2="239.5833" y1="297.1008" y2="297.1008"/><rect fill="#F1F1F1" height="27.3926" rx="5.2083" ry="5.2083" style="stroke:#181818;stroke-width:1.5625;" width="17.7083" x="196.875" y="321.2138"/><text fill="#000000" font-family="Dejavu Serif" font-size="14.5833" lengthAdjust="spacing" textLength="7.2917" x="202.0833" y="339.9587">s</text><line style="stroke:#181818;stroke-width:1.5625;" x1="214.5833" x2="214.5833" y1="334.9101" y2="334.9101"/><path d="M184.375,322.4101 C184.375,331.7851 187.5,334.9101 196.875,334.9101 " fill="none" style="stroke:#181818;stroke-width:1.5625;"/><line style="stroke:#181818;stroke-width:1.5625;" x1="184.375" x2="184.375" y1="309.6008" y2="322.4101"/><path d="M171.875,297.1008 C181.25,297.1008 184.375,300.2258 184.375,309.6008 " fill="none" style="stroke:#181818;stroke-width:1.5625;"/><path d="M227.0833,322.4101 C227.0833,331.7851 223.9583,334.9101 214.5833,334.9101 " fill="none" style="stroke:#181818;stroke-width:1.5625;"/><line style="stroke:#181818;stroke-width:1.5625;" x1="227.0833" x2="227.0833" y1="309.6008" y2="322.4101"/><path d="M227.0833,309.6008 C227.0833,300.2258 230.2083,297.1008 239.5833,297.1008 " fill="none" style="stroke:#181818;stroke-width:1.5625;"/><line style="stroke:#181818;stroke-width:1.5625;" x1="239.5833" x2="260.4167" y1="297.1008" y2="297.1008"/><rect fill="#F1F1F1" height="27.3926" rx="5.2083" ry="5.2083" style="stroke:#181818;stroke-width:1.5625;" width="16.6667" x="260.4167" y="283.4045"/><text fill="#000000" font-family="Dejavu Serif" font-size="14.5833" lengthAdjust="spacing" textLength="6.25" x="265.625" y="302.1495">t</text><ellipse cx="14.5833" cy="297.1008" fill="none" rx="4.1667" ry="4.1667" style="stroke:#181818;stroke-width:2.0833333333333335;"/><ellipse cx="308.3333" cy="297.1008" fill="#181818" rx="4.1667" ry="4.1667" style="stroke:#181818;stroke-width:1.0416666666666667;"/><line style="stroke:#181818;stroke-width:1.5625;" x1="18.75" x2="41.6667" y1="297.1008" y2="297.1008"/><line style="stroke:#181818;stroke-width:1.5625;" x1="277.0833" x2="304.1667" y1="297.1008" y2="297.1008"/><path d="M288.5417,297.1008 L288.5417,293.9758 L294.7917,297.1008 L288.5417,300.2258 L288.5417,297.1008 " fill="#181818" style="stroke:#181818;stroke-width:1.5625;"/><text fill="#000000" font-family="Dejavu Serif" font-size="14.5833" font-weight="bold" lengthAdjust="spacing" textLength="9.375" x="10.4167" y="377.9246">e</text><ellipse cx="14.5833" cy="391.7806" fill="none" rx="4.1667" ry="4.1667" style="stroke:#181818;stroke-width:2.0833333333333335;"/><ellipse cx="72.9167" cy="391.7806" fill="#181818" rx="4.1667" ry="4.1667" style="stroke:#181818;stroke-width:1.0416666666666667;"/><line style="stroke:#181818;stroke-width:1.5625;" x1="18.75" x2="41.6667" y1="391.7806" y2="391.7806"/><line style="stroke:#181818;stroke-width:1.5625;" x1="41.6667" x2="68.75" y1="391.7806" y2="391.7806"/><path d="M53.125,391.7806 L53.125,388.6556 L59.375,391.7806 L53.125,394.9056 L53.125,391.7806 " fill="#181818" style="stroke:#181818;stroke-width:1.5625;"/></g></svg>