<?xml version="1.0" encoding="UTF-8" standalone="no"?><svg xmlns="http://www.w3.org/2000/svg" xmlns:xlink="http://www.w3.org/1999/xlink" contentScriptType="application/ecmascript" contentStyleType="text/css" height="189.5833px" preserveAspectRatio="none" style="width:435px;height:189px;background:#00000000;" version="1.1" viewBox="0 0 435 189" width="435.4167px" zoomAndPan="magnify"><defs/><g><line style="stroke:#C0C0C0;stroke-width:1.0416666666666667;" x1="0" x2="0" y1="0" y2="171.167"/><line style="stroke:#C0C0C0;stroke-width:1.0416666666666667;" x1="16.6667" x2="16.6667" y1="0" y2="171.167"/><line style="stroke:#C0C0C0;stroke-width:1.0416666666666667;" x1="33.3333" x2="33.3333" y1="0" y2="171.167"/><line style="stroke:#C0C0C0;stroke-width:1.0416666666666667;" x1="50" x2="50" y1="0" y2="171.167"/><line style="stroke:#C0C0C0;stroke-width:1.0416666666666667;" x1="66.6667" x2="66.6667" y1="0" y2="171.167"/><line style="stroke:#C0C0C0;stroke-width:1.0416666666666667;" x1="83.3333" x2="83.3333" y1="0" y2="171.167"/><line style="stroke:#C0C0C0;stroke-width:1.0416666666666667;" x1="100" x2="100" y1="0" y2="171.167"/><line style="stroke:#C0C0C0;stroke-width:1.0416666666666667;" x1="116.6667" x2="116.6667" y1="0" y2="171.167"/><line style="stroke:#C0C0C0;stroke-width:1.0416666666666667;" x1="133.3333" x2="133.3333" y1="0" y2="171.167"/><line style="stroke:#C0C0C0;stroke-width:1.0416666666666667;" x1="150" x2="150" y1="0" y2="171.167"/><line style="stroke:#C0C0C0;stroke-width:1.0416666666666667;" x1="166.6667" x2="166.6667" y1="0" y2="171.167"/><line style="stroke:#C0C0C0;stroke-width:1.0416666666666667;" x1="183.3333" x2="183.3333" y1="0" y2="171.167"/><line style="stroke:#C0C0C0;stroke-width:1.0416666666666667;" x1="200" x2="200" y1="0" y2="171.167"/><line style="stroke:#C0C0C0;stroke-width:1.0416666666666667;" x1="216.6667" x2="216.6667" y1="0" y2="171.167"/><line style="stroke:#C0C0C0;stroke-width:1.0416666666666667;" x1="233.3333" x2="233.3333" y1="0" y2="171.167"/><line style="stroke:#C0C0C0;stroke-width:1.0416666666666667;" x1="250" x2="250" y1="0" y2="171.167"/><line style="stroke:#C0C0C0;stroke-width:1.0416666666666667;" x1="266.6667" x2="266.6667" y1="0" y2="171.167"/><line style="stroke:#C0C0C0;stroke-width:1.0416666666666667;" x1="283.3333" x2="283.3333" y1="0" y2="171.167"/><line style="stroke:#C0C0C0;stroke-width:1.0416666666666667;" x1="300" x2="300" y1="0" y2="171.167"/><line style="stroke:#C0C0C0;stroke-width:1.0416666666666667;" x1="316.6667" x2="316.6667" y1="0" y2="171.167"/><line style="stroke:#C0C0C0;stroke-width:1.0416666666666667;" x1="333.3333" x2="333.3333" y1="0" y2="171.167"/><line style="stroke:#C0C0C0;stroke-width:1.0416666666666667;" x1="350" x2="350" y1="0" y2="171.167"/><line style="stroke:#C0C0C0;stroke-width:1.0416666666666667;" x1="366.6667" x2="366.6667" y1="0" y2="171.167"/><line style="stroke:#C0C0C0;stroke-width:1.0416666666666667;" x1="383.3333" x2="383.3333" y1="0" y2="171.167"/><line style="stroke:#C0C0C0;stroke-width:1.0416666666666667;" x1="400" x2="400" y1="0" y2="171.167"/><line style="stroke:#C0C0C0;stroke-width:1.0416666666666667;" x1="416.6667" x2="416.6667" y1="0" y2="171.167"/><text fill="#000000" font-family="Serif" font-size="10.4167" lengthAdjust="spacing" textLength="6.25" x="5.2083" y="9.669">1</text><text fill="#000000" font-family="Serif" font-size="10.4167" lengthAdjust="spacing" textLength="6.25" x="21.875" y="9.669">2</text><text fill="#000000" font-family="Serif" font-size="10.4167" lengthAdjust="spacing" textLength="6.25" x="38.5417" y="9.669">3</text><text fill="#000000" font-family="Serif" font-size="10.4167" lengthAdjust="spacing" textLength="6.25" x="55.2083" y="9.669">4</text><text fill="#000000" font-family="Serif" font-size="10.4167" lengthAdjust="spacing" textLength="6.25" x="71.875" y="9.669">5</text><text fill="#000000" font-family="Serif" font-size="10.4167" lengthAdjust="spacing" textLength="6.25" x="88.5417" y="9.669">6</text><text fill="#000000" font-family="Serif" font-size="10.4167" lengthAdjust="spacing" textLength="6.25" x="105.2083" y="9.669">7</text><text fill="#000000" font-family="Serif" font-size="10.4167" lengthAdjust="spacing" textLength="6.25" x="121.875" y="9.669">8</text><text fill="#000000" font-family="Serif" font-size="10.4167" lengthAdjust="spacing" textLength="6.25" x="138.5417" y="9.669">9</text><text fill="#000000" font-family="Serif" font-size="10.4167" lengthAdjust="spacing" textLength="12.5" x="152.0833" y="9.669">10</text><text fill="#000000" font-family="Serif" font-size="10.4167" lengthAdjust="spacing" textLength="12.5" x="168.75" y="9.669">11</text><text fill="#000000" font-family="Serif" font-size="10.4167" lengthAdjust="spacing" textLength="12.5" x="185.4167" y="9.669">12</text><text fill="#000000" font-family="Serif" font-size="10.4167" lengthAdjust="spacing" textLength="12.5" x="202.0833" y="9.669">13</text><text fill="#000000" font-family="Serif" font-size="10.4167" lengthAdjust="spacing" textLength="12.5" x="218.75" y="9.669">14</text><text fill="#000000" font-family="Serif" font-size="10.4167" lengthAdjust="spacing" textLength="12.5" x="235.4167" y="9.669">15</text><text fill="#000000" font-family="Serif" font-size="10.4167" lengthAdjust="spacing" textLength="12.5" x="252.0833" y="9.669">16</text><text fill="#000000" font-family="Serif" font-size="10.4167" lengthAdjust="spacing" textLength="12.5" x="268.75" y="9.669">17</text><text fill="#000000" font-family="Serif" font-size="10.4167" lengthAdjust="spacing" textLength="12.5" x="285.4167" y="9.669">18</text><text fill="#000000" font-family="Serif" font-size="10.4167" lengthAdjust="spacing" textLength="12.5" x="302.0833" y="9.669">19</text><text fill="#000000" font-family="Serif" font-size="10.4167" lengthAdjust="spacing" textLength="12.5" x="318.75" y="9.669">20</text><text fill="#000000" font-family="Serif" font-size="10.4167" lengthAdjust="spacing" textLength="12.5" x="335.4167" y="9.669">21</text><text fill="#000000" font-family="Serif" font-size="10.4167" lengthAdjust="spacing" textLength="12.5" x="352.0833" y="9.669">22</text><text fill="#000000" font-family="Serif" font-size="10.4167" lengthAdjust="spacing" textLength="12.5" x="368.75" y="9.669">23</text><text fill="#000000" font-family="Serif" font-size="10.4167" lengthAdjust="spacing" textLength="12.5" x="385.4167" y="9.669">24</text><text fill="#000000" font-family="Serif" font-size="10.4167" lengthAdjust="spacing" textLength="12.5" x="402.0833" y="9.669">25</text><line style="stroke:#C0C0C0;stroke-width:1.0416666666666667;" x1="0" x2="416.6667" y1="0" y2="0"/><line style="stroke:#C0C0C0;stroke-width:1.0416666666666667;" x1="0" x2="416.6667" y1="13.5417" y2="13.5417"/><line style="stroke:#A80036;stroke-width:1.5625;" x1="323.9583" x2="323.9583" y1="32.0882" y2="42.924"/><line style="stroke:#A80036;stroke-width:1.5625;" x1="323.9583" x2="332.2917" y1="42.924" y2="42.924"/><polygon fill="#A80036" points="328.125,38.7573,328.125,42.924,328.125,47.0907,332.2917,42.924" style="stroke:#A80036;stroke-width:1.5625;"/><path d="M0,34.1715 L0,88.2406 L105.2083,88.2406 L105.2083,44.5882 L94.7917,34.1715 L0,34.1715 " fill="#FBFB77" style="stroke:#A80036;stroke-width:1.0416666666666667;"/><path d="M94.7917,34.1715 L94.7917,44.5882 L105.2083,44.5882 L94.7917,34.1715 " fill="#FBFB77" style="stroke:#A80036;stroke-width:1.0416666666666667;"/><text fill="#000000" font-family="sans-serif" font-size="9.375" lengthAdjust="spacing" textLength="50" x="6.25" y="48.082">memo1 ...</text><text fill="#000000" font-family="sans-serif" font-size="9.375" lengthAdjust="spacing" textLength="50" x="6.25" y="58.9951">memo2 ...</text><text fill="#000000" font-family="sans-serif" font-size="9.375" lengthAdjust="spacing" textLength="83.3333" x="6.25" y="69.9081">explanations1 ...</text><text fill="#000000" font-family="sans-serif" font-size="9.375" lengthAdjust="spacing" textLength="83.3333" x="6.25" y="80.8212">explanations2 ...</text><rect fill="#FEFECE" height="13.3382" style="stroke:none;stroke-width:1.0416666666666667;" width="329.1667" x="2.0833" y="18.75"/><line style="stroke:#A80036;stroke-width:1.0416666666666667;" x1="2.0833" x2="331.25" y1="18.75" y2="18.75"/><line style="stroke:#A80036;stroke-width:1.0416666666666667;" x1="2.0833" x2="331.25" y1="32.0882" y2="32.0882"/><line style="stroke:#A80036;stroke-width:1.0416666666666667;" x1="2.0833" x2="2.0833" y1="18.75" y2="32.0882"/><line style="stroke:#A80036;stroke-width:1.0416666666666667;" x1="331.25" x2="331.25" y1="18.75" y2="32.0882"/><rect fill="#FEFECE" height="13.3382" style="stroke:none;stroke-width:1.0416666666666667;" width="62.5" x="335.4167" y="36.2549"/><line style="stroke:#A80036;stroke-width:1.0416666666666667;" x1="335.4167" x2="397.9167" y1="36.2549" y2="36.2549"/><line style="stroke:#A80036;stroke-width:1.0416666666666667;" x1="335.4167" x2="397.9167" y1="49.5931" y2="49.5931"/><line style="stroke:#A80036;stroke-width:1.0416666666666667;" x1="335.4167" x2="335.4167" y1="36.2549" y2="49.5931"/><line style="stroke:#A80036;stroke-width:1.0416666666666667;" x1="397.9167" x2="397.9167" y1="36.2549" y2="49.5931"/><line style="stroke:#000000;stroke-width:1.0416666666666667;" x1="0" x2="5.2083" y1="105.3263" y2="105.3263"/><line style="stroke:#000000;stroke-width:1.0416666666666667;" x1="101.0417" x2="415.625" y1="105.3263" y2="105.3263"/><polygon fill="#000000" points="408.3333,124.4954,413.5417,129.7038,408.3333,134.9121,403.125,129.7038" style="stroke:#000000;stroke-width:1.0416666666666667;"/><line style="stroke:#000000;stroke-width:1.0416666666666667;" x1="0" x2="5.2083" y1="154.0812" y2="154.0812"/><line style="stroke:#000000;stroke-width:1.0416666666666667;" x1="37.5" x2="415.625" y1="154.0812" y2="154.0812"/><text fill="#000000" font-family="sans-serif" font-size="11.4583" lengthAdjust="spacing" textLength="35.4167" x="6.25" y="29.3859">Task1</text><text fill="#000000" font-family="sans-serif" font-size="11.4583" lengthAdjust="spacing" textLength="35.4167" x="339.5833" y="46.8908">Task2</text><text fill="#000000" font-family="sans-serif" font-size="11.4583" lengthAdjust="spacing" textLength="85.4167" x="10.4167" y="109.2931">Separator title</text><text fill="#000000" font-family="sans-serif" font-size="11.4583" lengthAdjust="spacing" textLength="16.6667" x="416.6667" y="133.6706">M1</text><text fill="#000000" font-family="sans-serif" font-size="11.4583" lengthAdjust="spacing" textLength="21.875" x="10.4167" y="158.048">end</text><line style="stroke:#C0C0C0;stroke-width:1.0416666666666667;" x1="0" x2="0" y1="171.167" y2="187.8337"/><line style="stroke:#C0C0C0;stroke-width:1.0416666666666667;" x1="16.6667" x2="16.6667" y1="171.167" y2="187.8337"/><line style="stroke:#C0C0C0;stroke-width:1.0416666666666667;" x1="33.3333" x2="33.3333" y1="171.167" y2="187.8337"/><line style="stroke:#C0C0C0;stroke-width:1.0416666666666667;" x1="50" x2="50" y1="171.167" y2="187.8337"/><line style="stroke:#C0C0C0;stroke-width:1.0416666666666667;" x1="66.6667" x2="66.6667" y1="171.167" y2="187.8337"/><line style="stroke:#C0C0C0;stroke-width:1.0416666666666667;" x1="83.3333" x2="83.3333" y1="171.167" y2="187.8337"/><line style="stroke:#C0C0C0;stroke-width:1.0416666666666667;" x1="100" x2="100" y1="171.167" y2="187.8337"/><line style="stroke:#C0C0C0;stroke-width:1.0416666666666667;" x1="116.6667" x2="116.6667" y1="171.167" y2="187.8337"/><line style="stroke:#C0C0C0;stroke-width:1.0416666666666667;" x1="133.3333" x2="133.3333" y1="171.167" y2="187.8337"/><line style="stroke:#C0C0C0;stroke-width:1.0416666666666667;" x1="150" x2="150" y1="171.167" y2="187.8337"/><line style="stroke:#C0C0C0;stroke-width:1.0416666666666667;" x1="166.6667" x2="166.6667" y1="171.167" y2="187.8337"/><line style="stroke:#C0C0C0;stroke-width:1.0416666666666667;" x1="183.3333" x2="183.3333" y1="171.167" y2="187.8337"/><line style="stroke:#C0C0C0;stroke-width:1.0416666666666667;" x1="200" x2="200" y1="171.167" y2="187.8337"/><line style="stroke:#C0C0C0;stroke-width:1.0416666666666667;" x1="216.6667" x2="216.6667" y1="171.167" y2="187.8337"/><line style="stroke:#C0C0C0;stroke-width:1.0416666666666667;" x1="233.3333" x2="233.3333" y1="171.167" y2="187.8337"/><line style="stroke:#C0C0C0;stroke-width:1.0416666666666667;" x1="250" x2="250" y1="171.167" y2="187.8337"/><line style="stroke:#C0C0C0;stroke-width:1.0416666666666667;" x1="266.6667" x2="266.6667" y1="171.167" y2="187.8337"/><line style="stroke:#C0C0C0;stroke-width:1.0416666666666667;" x1="283.3333" x2="283.3333" y1="171.167" y2="187.8337"/><line style="stroke:#C0C0C0;stroke-width:1.0416666666666667;" x1="300" x2="300" y1="171.167" y2="187.8337"/><line style="stroke:#C0C0C0;stroke-width:1.0416666666666667;" x1="316.6667" x2="316.6667" y1="171.167" y2="187.8337"/><line style="stroke:#C0C0C0;stroke-width:1.0416666666666667;" x1="333.3333" x2="333.3333" y1="171.167" y2="187.8337"/><line style="stroke:#C0C0C0;stroke-width:1.0416666666666667;" x1="350" x2="350" y1="171.167" y2="187.8337"/><line style="stroke:#C0C0C0;stroke-width:1.0416666666666667;" x1="366.6667" x2="366.6667" y1="171.167" y2="187.8337"/><line style="stroke:#C0C0C0;stroke-width:1.0416666666666667;" x1="383.3333" x2="383.3333" y1="171.167" y2="187.8337"/><line style="stroke:#C0C0C0;stroke-width:1.0416666666666667;" x1="400" x2="400" y1="171.167" y2="187.8337"/><line style="stroke:#C0C0C0;stroke-width:1.0416666666666667;" x1="416.6667" x2="416.6667" y1="171.167" y2="187.8337"/><text fill="#000000" font-family="Serif" font-size="10.4167" lengthAdjust="spacing" textLength="6.25" x="5.2083" y="183.961">1</text><text fill="#000000" font-family="Serif" font-size="10.4167" lengthAdjust="spacing" textLength="6.25" x="21.875" y="183.961">2</text><text fill="#000000" font-family="Serif" font-size="10.4167" lengthAdjust="spacing" textLength="6.25" x="38.5417" y="183.961">3</text><text fill="#000000" font-family="Serif" font-size="10.4167" lengthAdjust="spacing" textLength="6.25" x="55.2083" y="183.961">4</text><text fill="#000000" font-family="Serif" font-size="10.4167" lengthAdjust="spacing" textLength="6.25" x="71.875" y="183.961">5</text><text fill="#000000" font-family="Serif" font-size="10.4167" lengthAdjust="spacing" textLength="6.25" x="88.5417" y="183.961">6</text><text fill="#000000" font-family="Serif" font-size="10.4167" lengthAdjust="spacing" textLength="6.25" x="105.2083" y="183.961">7</text><text fill="#000000" font-family="Serif" font-size="10.4167" lengthAdjust="spacing" textLength="6.25" x="121.875" y="183.961">8</text><text fill="#000000" font-family="Serif" font-size="10.4167" lengthAdjust="spacing" textLength="6.25" x="138.5417" y="183.961">9</text><text fill="#000000" font-family="Serif" font-size="10.4167" lengthAdjust="spacing" textLength="12.5" x="152.0833" y="183.961">10</text><text fill="#000000" font-family="Serif" font-size="10.4167" lengthAdjust="spacing" textLength="12.5" x="168.75" y="183.961">11</text><text fill="#000000" font-family="Serif" font-size="10.4167" lengthAdjust="spacing" textLength="12.5" x="185.4167" y="183.961">12</text><text fill="#000000" font-family="Serif" font-size="10.4167" lengthAdjust="spacing" textLength="12.5" x="202.0833" y="183.961">13</text><text fill="#000000" font-family="Serif" font-size="10.4167" lengthAdjust="spacing" textLength="12.5" x="218.75" y="183.961">14</text><text fill="#000000" font-family="Serif" font-size="10.4167" lengthAdjust="spacing" textLength="12.5" x="235.4167" y="183.961">15</text><text fill="#000000" font-family="Serif" font-size="10.4167" lengthAdjust="spacing" textLength="12.5" x="252.0833" y="183.961">16</text><text fill="#000000" font-family="Serif" font-size="10.4167" lengthAdjust="spacing" textLength="12.5" x="268.75" y="183.961">17</text><text fill="#000000" font-family="Serif" font-size="10.4167" lengthAdjust="spacing" textLength="12.5" x="285.4167" y="183.961">18</text><text fill="#000000" font-family="Serif" font-size="10.4167" lengthAdjust="spacing" textLength="12.5" x="302.0833" y="183.961">19</text><text fill="#000000" font-family="Serif" font-size="10.4167" lengthAdjust="spacing" textLength="12.5" x="318.75" y="183.961">20</text><text fill="#000000" font-family="Serif" font-size="10.4167" lengthAdjust="spacing" textLength="12.5" x="335.4167" y="183.961">21</text><text fill="#000000" font-family="Serif" font-size="10.4167" lengthAdjust="spacing" textLength="12.5" x="352.0833" y="183.961">22</text><text fill="#000000" font-family="Serif" font-size="10.4167" lengthAdjust="spacing" textLength="12.5" x="368.75" y="183.961">23</text><text fill="#000000" font-family="Serif" font-size="10.4167" lengthAdjust="spacing" textLength="12.5" x="385.4167" y="183.961">24</text><text fill="#000000" font-family="Serif" font-size="10.4167" lengthAdjust="spacing" textLength="12.5" x="402.0833" y="183.961">25</text><line style="stroke:#C0C0C0;stroke-width:1.0416666666666667;" x1="0" x2="416.6667" y1="174.292" y2="174.292"/></g></svg>