<?xml version="1.0" encoding="UTF-8" standalone="no"?><svg xmlns="http://www.w3.org/2000/svg" xmlns:xlink="http://www.w3.org/1999/xlink" contentScriptType="application/ecmascript" contentStyleType="text/css" height="519.7917px" preserveAspectRatio="none" style="width:423px;height:519px;background:#00000000;" version="1.1" viewBox="0 0 423 519" width="423.9583px" zoomAndPan="magnify"><defs/><g><polygon fill="#555555" points="10.4167,10.4167,10.4167,10.6356,20.943,9.9851,31.4693,10.618,41.9956,10.833,52.5219,9.6735,63.0482,10.3357,73.5746,9.9724,84.1009,10.0172,94.6272,10.3457,105.1535,9.6965,115.6798,10.9934,126.2061,9.7601,136.7325,10.2107,147.2588,10.8666,157.7851,10.3273,168.3114,10.4877,178.8377,10.3834,189.364,10.6026,199.8904,10.6658,210.4167,11.0268,220.943,11.1157,231.4693,11.1242,241.9956,10.6819,252.5219,10.8996,263.0482,11.1482,273.5746,9.6654,284.1009,11.1234,294.6272,10.1078,305.1535,10.9727,315.6798,9.901,326.2061,10.3453,336.7325,11.1892,347.2588,10.3659,357.7851,10.5264,368.3114,10.7694,378.8377,10.8502,389.364,10.4126,399.8904,10.7158,410.4167,10.4167,410.2179,10.4167,410.5154,18.9583,410.607,27.5,410.571,36.0417,410.6295,44.5833,410.4167,53.125,410.4167,52.6218,399.8904,52.4456,389.364,52.4777,378.8377,53.0637,368.3114,52.9203,357.7851,53.8348,347.2588,52.943,336.7325,52.7677,326.2061,53.3628,315.6798,52.4304,305.1535,52.5842,294.6272,53.801,284.1009,53.5788,273.5746,53.8901,263.0482,52.7898,252.5219,53.4575,241.9956,53.74,231.4693,52.6329,220.943,53.0251,210.4167,53.2562,199.8904,53.8039,189.364,53.1206,178.8377,53.6068,168.3114,52.5481,157.7851,52.4195,147.2588,53.6496,136.7325,52.3782,126.2061,53.6552,115.6798,53.3402,105.1535,52.8459,94.6272,52.7565,84.1009,53.6029,73.5746,52.8132,63.0482,53.7415,52.5219,52.5492,41.9956,53.7682,31.4693,53.6295,20.943,53.3802,10.4167,53.125,10.4331,53.125,10.669,44.5833,10.6297,36.0417,10.4754,27.5,10.5098,18.9583,10.4167,10.4167" style="stroke:none;stroke-width:1.0416666666666667;"/><polygon fill="#555555" points="10.4167,469.5313,10.4167,469.7502,20.943,469.0997,31.4693,469.7326,41.9956,469.9476,52.5219,468.7881,63.0482,469.4503,73.5746,469.087,84.1009,469.1318,94.6272,469.4603,105.1535,468.8111,115.6798,470.108,126.2061,468.8747,136.7325,469.3252,147.2588,469.9812,157.7851,469.4419,168.3114,469.6023,178.8377,469.498,189.364,469.7172,199.8904,469.7803,210.4167,470.1413,220.943,470.2303,231.4693,470.2388,241.9956,469.7965,252.5219,470.0142,263.0482,470.2627,273.5746,468.78,284.1009,470.238,294.6272,469.2224,305.1535,470.0873,315.6798,469.0156,326.2061,469.4599,336.7325,470.3038,347.2588,469.4805,357.7851,469.6409,368.3114,469.884,378.8377,469.9648,389.364,469.5272,399.8904,469.8304,410.4167,469.5313,410.2179,469.5313,410.5154,477.4479,410.607,485.3646,410.571,493.2813,410.6295,501.1979,410.4167,509.1146,410.4167,508.6114,399.8904,508.4352,389.364,508.4673,378.8377,509.0532,368.3114,508.9099,357.7851,509.8244,347.2588,508.9326,336.7325,508.7572,326.2061,509.3524,315.6798,508.42,305.1535,508.5738,294.6272,509.7906,284.1009,509.5684,273.5746,509.8797,263.0482,508.7794,252.5219,509.4471,241.9956,509.7296,231.4693,508.6225,220.943,509.0147,210.4167,509.2458,199.8904,509.7935,189.364,509.1102,178.8377,509.5964,168.3114,508.5377,157.7851,508.4091,147.2588,509.6392,136.7325,508.3678,126.2061,509.6448,115.6798,509.3298,105.1535,508.8355,94.6272,508.7461,84.1009,509.5925,73.5746,508.8028,63.0482,509.7311,52.5219,508.5388,41.9956,509.7577,31.4693,509.6191,20.943,509.3698,10.4167,509.1146,10.4331,509.1146,10.669,501.1979,10.6297,493.2813,10.4754,485.3646,10.5098,477.4479,10.4167,469.5313" style="stroke:none;stroke-width:1.0416666666666667;"/><polygon fill="#E6AE06" points="110.4167,53.125,110.4167,53.198,113.75,52.9811,117.0833,53.1921,120.4167,53.2638,123.75,52.8773,127.0833,53.125,127.0024,53.125,126.6391,63.5352,126.6839,73.9453,127.0123,84.3555,126.3632,94.7656,127.66,105.1758,126.4268,115.5859,126.8773,125.9961,127.5333,136.4063,126.994,146.8164,127.1544,157.2266,127.0501,167.6367,127.2693,178.0469,127.3324,188.457,127.6934,198.8672,127.7823,209.2773,127.7909,219.6875,127.3486,230.0977,127.5662,240.5078,127.8148,250.918,126.3321,261.3281,127.7901,271.7383,126.7745,282.1484,127.6394,292.5586,126.5677,302.9688,127.012,313.3789,127.8558,323.7891,127.0326,334.1992,127.193,344.6094,127.4361,355.0195,127.5169,365.4297,127.0793,375.8398,127.3825,386.25,126.4871,396.6602,127.3796,407.0703,127.6544,417.4805,127.5464,427.8906,127.7219,438.3008,126.5801,448.7109,126.404,459.1211,127.0833,469.5313,127.0833,469.3155,123.75,469.5108,120.4167,469.463,117.0833,469.7679,113.75,469.4706,110.4167,469.5313,110.0593,469.5313,110.6544,459.1211,109.722,448.7109,109.8759,438.3008,111.0927,427.8906,110.8705,417.4805,111.1818,407.0703,110.0815,396.6602,110.7492,386.25,111.0317,375.8398,109.9246,365.4297,110.3168,355.0195,110.5479,344.6094,111.0956,334.1992,110.4123,323.7891,110.8985,313.3789,109.8398,302.9688,109.7112,292.5586,110.9413,282.1484,109.6699,271.7383,110.9468,261.3281,110.6319,250.918,110.1376,240.5078,110.0482,230.0977,110.8945,219.6875,110.1049,209.2773,111.0332,198.8672,109.8409,188.457,111.0598,178.0469,110.9211,167.6367,110.6718,157.2266,110.4659,146.8164,111.1736,136.4063,111.0558,125.9961,110.593,115.5859,110.696,105.1758,110.281,94.7656,111.163,84.3555,110.578,73.9453,110.5964,63.5352,110.4167,53.125" style="stroke:none;stroke-width:1.0416666666666667;"/><polygon fill="#E6AE06" points="227.0833,53.125,227.0833,53.198,230.4167,52.9811,233.75,53.1921,237.0833,53.2638,240.4167,52.8773,243.75,53.125,243.669,53.125,243.3057,63.5352,243.3505,73.9453,243.679,84.3555,243.0298,94.7656,244.3267,105.1758,243.0935,115.5859,243.544,125.9961,244.1999,136.4063,243.6606,146.8164,243.8211,157.2266,243.7167,167.6367,243.936,178.0469,243.9991,188.457,244.3601,198.8672,244.449,209.2773,244.4576,219.6875,244.0152,230.0977,244.2329,240.5078,244.4815,250.918,242.9988,261.3281,244.4568,271.7383,243.4411,282.1484,244.3061,292.5586,243.2344,302.9688,243.6786,313.3789,244.5225,323.7891,243.6992,334.1992,243.8597,344.6094,244.1027,355.0195,244.1836,365.4297,243.7459,375.8398,244.0492,386.25,243.1537,396.6602,244.0462,407.0703,244.321,417.4805,244.2131,427.8906,244.3886,438.3008,243.2468,448.7109,243.0706,459.1211,243.75,469.5313,243.75,469.3155,240.4167,469.5108,237.0833,469.463,233.75,469.7679,230.4167,469.4706,227.0833,469.5313,226.726,469.5313,227.3211,459.1211,226.3887,448.7109,226.5426,438.3008,227.7593,427.8906,227.5372,417.4805,227.8484,407.0703,226.7481,396.6602,227.4158,386.25,227.6984,375.8398,226.5912,365.4297,226.9835,355.0195,227.2146,344.6094,227.7622,334.1992,227.079,323.7891,227.5652,313.3789,226.5065,302.9688,226.3779,292.5586,227.6079,282.1484,226.3365,271.7383,227.6135,261.3281,227.2986,250.918,226.8043,240.5078,226.7148,230.0977,227.5612,219.6875,226.7715,209.2773,227.6999,198.8672,226.5076,188.457,227.7265,178.0469,227.5878,167.6367,227.3385,157.2266,227.1325,146.8164,227.8402,136.4063,227.7225,125.9961,227.2596,115.5859,227.3627,105.1758,226.9476,94.7656,227.8296,84.3555,227.2447,73.9453,227.2631,63.5352,227.0833,53.125" style="stroke:none;stroke-width:1.0416666666666667;"/><polygon fill="#E6AE06" points="343.75,53.125,343.75,53.198,347.0833,52.9811,350.4167,53.1921,353.75,53.2638,357.0833,52.8773,360.4167,53.125,360.3357,53.125,359.9724,63.5352,360.0172,73.9453,360.3457,84.3555,359.6965,94.7656,360.9934,105.1758,359.7601,115.5859,360.2107,125.9961,360.8666,136.4063,360.3273,146.8164,360.4877,157.2266,360.3834,167.6367,360.6026,178.0469,360.6658,188.457,361.0268,198.8672,361.1157,209.2773,361.1242,219.6875,360.6819,230.0977,360.8996,240.5078,361.1482,250.918,359.6654,261.3281,361.1234,271.7383,360.1078,282.1484,360.9727,292.5586,359.901,302.9688,360.3453,313.3789,361.1892,323.7891,360.3659,334.1992,360.5264,344.6094,360.7694,355.0195,360.8502,365.4297,360.4126,375.8398,360.7158,386.25,359.8204,396.6602,360.7129,407.0703,360.9877,417.4805,360.8797,427.8906,361.0552,438.3008,359.9135,448.7109,359.7373,459.1211,360.4167,469.5313,360.4167,469.3155,357.0833,469.5108,353.75,469.463,350.4167,469.7679,347.0833,469.4706,343.75,469.5313,343.3927,469.5313,343.9878,459.1211,343.0554,448.7109,343.2092,438.3008,344.426,427.8906,344.2038,417.4805,344.5151,407.0703,343.4148,396.6602,344.0825,386.25,344.365,375.8398,343.2579,365.4297,343.6501,355.0195,343.8812,344.6094,344.4289,334.1992,343.7456,323.7891,344.2318,313.3789,343.1731,302.9688,343.0445,292.5586,344.2746,282.1484,343.0032,271.7383,344.2802,261.3281,343.9652,250.918,343.4709,240.5078,343.3815,230.0977,344.2279,219.6875,343.4382,209.2773,344.3665,198.8672,343.1742,188.457,344.3932,178.0469,344.2545,167.6367,344.0052,157.2266,343.7992,146.8164,344.5069,136.4063,344.3891,125.9961,343.9263,115.5859,344.0294,105.1758,343.6143,94.7656,344.4963,84.3555,343.9113,73.9453,343.9298,63.5352,343.75,53.125" style="stroke:none;stroke-width:1.0416666666666667;"/><text fill="#FFFFFF" font-family="Serif" font-size="10.4167" lengthAdjust="spacing" textLength="16.6667" x="10.4167" y="36.7523">Mo</text><text fill="#FFFFFF" font-family="Serif" font-size="10.4167" lengthAdjust="spacing" textLength="14.5833" x="28.125" y="36.7523">Tu</text><text fill="#FFFFFF" font-family="Serif" font-size="10.4167" lengthAdjust="spacing" textLength="17.7083" x="43.75" y="36.7523">We</text><text fill="#FFFFFF" font-family="Serif" font-size="10.4167" lengthAdjust="spacing" textLength="14.5833" x="61.4583" y="36.7523">Th</text><text fill="#FFFFFF" font-family="Serif" font-size="10.4167" lengthAdjust="spacing" textLength="12.5" x="79.1667" y="36.7523">Fr</text><text fill="#FFFFFF" font-family="Serif" font-size="10.4167" lengthAdjust="spacing" textLength="11.4583" x="96.3542" y="36.7523">Sa</text><text fill="#FFFFFF" font-family="Serif" font-size="10.4167" lengthAdjust="spacing" textLength="12.5" x="112.5" y="36.7523">Su</text><text fill="#FFFFFF" font-family="Serif" font-size="10.4167" lengthAdjust="spacing" textLength="16.6667" x="127.0833" y="36.7523">Mo</text><text fill="#FFFFFF" font-family="Serif" font-size="10.4167" lengthAdjust="spacing" textLength="14.5833" x="144.7917" y="36.7523">Tu</text><text fill="#FFFFFF" font-family="Serif" font-size="10.4167" lengthAdjust="spacing" textLength="17.7083" x="160.4167" y="36.7523">We</text><text fill="#FFFFFF" font-family="Serif" font-size="10.4167" lengthAdjust="spacing" textLength="14.5833" x="178.125" y="36.7523">Th</text><text fill="#FFFFFF" font-family="Serif" font-size="10.4167" lengthAdjust="spacing" textLength="12.5" x="195.8333" y="36.7523">Fr</text><text fill="#FFFFFF" font-family="Serif" font-size="10.4167" lengthAdjust="spacing" textLength="11.4583" x="213.0208" y="36.7523">Sa</text><text fill="#FFFFFF" font-family="Serif" font-size="10.4167" lengthAdjust="spacing" textLength="12.5" x="229.1667" y="36.7523">Su</text><text fill="#FFFFFF" font-family="Serif" font-size="10.4167" lengthAdjust="spacing" textLength="16.6667" x="243.75" y="36.7523">Mo</text><text fill="#FFFFFF" font-family="Serif" font-size="10.4167" lengthAdjust="spacing" textLength="14.5833" x="261.4583" y="36.7523">Tu</text><text fill="#FFFFFF" font-family="Serif" font-size="10.4167" lengthAdjust="spacing" textLength="17.7083" x="277.0833" y="36.7523">We</text><text fill="#FFFFFF" font-family="Serif" font-size="10.4167" lengthAdjust="spacing" textLength="14.5833" x="294.7917" y="36.7523">Th</text><text fill="#FFFFFF" font-family="Serif" font-size="10.4167" lengthAdjust="spacing" textLength="12.5" x="312.5" y="36.7523">Fr</text><text fill="#FFFFFF" font-family="Serif" font-size="10.4167" lengthAdjust="spacing" textLength="11.4583" x="329.6875" y="36.7523">Sa</text><text fill="#FFFFFF" font-family="Serif" font-size="10.4167" lengthAdjust="spacing" textLength="12.5" x="345.8333" y="36.7523">Su</text><text fill="#FFFFFF" font-family="Serif" font-size="10.4167" lengthAdjust="spacing" textLength="16.6667" x="360.4167" y="36.7523">Mo</text><text fill="#FFFFFF" font-family="Serif" font-size="10.4167" lengthAdjust="spacing" textLength="14.5833" x="378.125" y="36.7523">Tu</text><text fill="#FFFFFF" font-family="Serif" font-size="10.4167" lengthAdjust="spacing" textLength="17.7083" x="393.75" y="36.7523">We</text><text fill="#FFFFFF" font-family="Serif" font-size="10.4167" lengthAdjust="spacing" textLength="12.5" x="12.5" y="49.2523">14</text><text fill="#FFFFFF" font-family="Serif" font-size="10.4167" lengthAdjust="spacing" textLength="12.5" x="29.1667" y="49.2523">15</text><text fill="#FFFFFF" font-family="Serif" font-size="10.4167" lengthAdjust="spacing" textLength="12.5" x="45.8333" y="49.2523">16</text><text fill="#FFFFFF" font-family="Serif" font-size="10.4167" lengthAdjust="spacing" textLength="12.5" x="62.5" y="49.2523">17</text><text fill="#FFFFFF" font-family="Serif" font-size="10.4167" lengthAdjust="spacing" textLength="12.5" x="79.1667" y="49.2523">18</text><text fill="#FFFFFF" font-family="Serif" font-size="10.4167" lengthAdjust="spacing" textLength="12.5" x="95.8333" y="49.2523">19</text><text fill="#FFFFFF" font-family="Serif" font-size="10.4167" lengthAdjust="spacing" textLength="12.5" x="112.5" y="49.2523">20</text><text fill="#FFFFFF" font-family="Serif" font-size="10.4167" lengthAdjust="spacing" textLength="12.5" x="129.1667" y="49.2523">21</text><text fill="#FFFFFF" font-family="Serif" font-size="10.4167" lengthAdjust="spacing" textLength="12.5" x="145.8333" y="49.2523">22</text><text fill="#FFFFFF" font-family="Serif" font-size="10.4167" lengthAdjust="spacing" textLength="12.5" x="162.5" y="49.2523">23</text><text fill="#FFFFFF" font-family="Serif" font-size="10.4167" lengthAdjust="spacing" textLength="12.5" x="179.1667" y="49.2523">24</text><text fill="#FFFFFF" font-family="Serif" font-size="10.4167" lengthAdjust="spacing" textLength="12.5" x="195.8333" y="49.2523">25</text><text fill="#FFFFFF" font-family="Serif" font-size="10.4167" lengthAdjust="spacing" textLength="12.5" x="212.5" y="49.2523">26</text><text fill="#FFFFFF" font-family="Serif" font-size="10.4167" lengthAdjust="spacing" textLength="12.5" x="229.1667" y="49.2523">27</text><text fill="#FFFFFF" font-family="Serif" font-size="10.4167" lengthAdjust="spacing" textLength="12.5" x="245.8333" y="49.2523">28</text><text fill="#FFFFFF" font-family="Serif" font-size="10.4167" lengthAdjust="spacing" textLength="12.5" x="262.5" y="49.2523">29</text><text fill="#FFFFFF" font-family="Serif" font-size="10.4167" lengthAdjust="spacing" textLength="12.5" x="279.1667" y="49.2523">30</text><text fill="#FFFFFF" font-family="Serif" font-size="10.4167" lengthAdjust="spacing" textLength="12.5" x="295.8333" y="49.2523">31</text><text fill="#FFFFFF" font-family="Serif" font-size="10.4167" lengthAdjust="spacing" textLength="6.25" x="315.625" y="49.2523">1</text><text fill="#FFFFFF" font-family="Serif" font-size="10.4167" lengthAdjust="spacing" textLength="6.25" x="332.2917" y="49.2523">2</text><text fill="#FFFFFF" font-family="Serif" font-size="10.4167" lengthAdjust="spacing" textLength="6.25" x="348.9583" y="49.2523">3</text><text fill="#FFFFFF" font-family="Serif" font-size="10.4167" lengthAdjust="spacing" textLength="6.25" x="365.625" y="49.2523">4</text><text fill="#FFFFFF" font-family="Serif" font-size="10.4167" lengthAdjust="spacing" textLength="6.25" x="382.2917" y="49.2523">5</text><text fill="#FFFFFF" font-family="Serif" font-size="10.4167" lengthAdjust="spacing" textLength="6.25" x="398.9583" y="49.2523">6</text><text fill="#FFFFFF" font-family="Serif" font-size="12.5" font-weight="bold" lengthAdjust="spacing" textLength="110.4167" x="105.2083" y="22.1537">December 2020</text><text fill="#FFFFFF" font-family="Serif" font-size="12.5" font-weight="bold" lengthAdjust="spacing" textLength="92.7083" x="314.0625" y="22.1537">January 2021</text><path d="M10.4167,53.125 L10.7086,53.125 L9.8412,63.5352 L10.6851,73.9453 L10.9718,84.3555 L9.4258,94.7656 L10.3087,105.1758 L9.8243,115.5859 L9.884,125.9961 L10.322,136.4063 L9.4564,146.8164 L11.1856,157.2266 L9.5413,167.6367 L10.142,178.0469 L11.0166,188.457 L10.2975,198.8672 L10.5114,209.2773 L10.3723,219.6875 L10.6646,230.0977 L10.7488,240.5078 L11.2301,250.918 L11.3487,261.3281 L11.3601,271.7383 L10.7703,282.1484 L11.0605,292.5586 L11.392,302.9688 L9.415,313.3789 L11.359,323.7891 L10.0049,334.1992 L11.1581,344.6094 L9.7291,355.0195 L10.3215,365.4297 L11.4467,375.8398 L10.349,386.25 L10.5629,396.6602 L10.887,407.0703 L10.9948,417.4805 L10.4112,427.8906 L10.8156,438.3008 L9.6216,448.7109 L10.8116,459.1211 L10.4167,469.5313 " fill="none" style="stroke:#2E2E2E;stroke-width:1.0416666666666667;"/><path d="M27.0833,53.125 L27.3753,53.125 L26.5079,63.5352 L27.3518,73.9453 L27.6384,84.3555 L26.0925,94.7656 L26.9754,105.1758 L26.491,115.5859 L26.5507,125.9961 L26.9887,136.4063 L26.1231,146.8164 L27.8523,157.2266 L26.2079,167.6367 L26.8087,178.0469 L27.6833,188.457 L26.9642,198.8672 L27.1781,209.2773 L27.039,219.6875 L27.3313,230.0977 L27.4155,240.5078 L27.8968,250.918 L28.0154,261.3281 L28.0267,271.7383 L27.437,282.1484 L27.7272,292.5586 L28.0587,302.9688 L26.0817,313.3789 L28.0257,323.7891 L26.6715,334.1992 L27.8247,344.6094 L26.3958,355.0195 L26.9882,365.4297 L28.1133,375.8398 L27.0156,386.25 L27.2296,396.6602 L27.5536,407.0703 L27.6614,417.4805 L27.0779,427.8906 L27.4822,438.3008 L26.2883,448.7109 L27.4783,459.1211 L27.0833,469.5313 " fill="none" style="stroke:#2E2E2E;stroke-width:1.0416666666666667;"/><path d="M43.75,53.125 L44.0419,53.125 L43.1746,63.5352 L44.0185,73.9453 L44.3051,84.3555 L42.7592,94.7656 L43.6421,105.1758 L43.1576,115.5859 L43.2174,125.9961 L43.6553,136.4063 L42.7898,146.8164 L44.5189,157.2266 L42.8746,167.6367 L43.4753,178.0469 L44.3499,188.457 L43.6309,198.8672 L43.8448,209.2773 L43.7056,219.6875 L43.998,230.0977 L44.0821,240.5078 L44.5635,250.918 L44.682,261.3281 L44.6934,271.7383 L44.1036,282.1484 L44.3939,292.5586 L44.7253,302.9688 L42.7484,313.3789 L44.6924,323.7891 L43.3382,334.1992 L44.4914,344.6094 L43.0625,355.0195 L43.6549,365.4297 L44.78,375.8398 L43.6823,386.25 L43.8963,396.6602 L44.2203,407.0703 L44.3281,417.4805 L43.7446,427.8906 L44.1489,438.3008 L42.955,448.7109 L44.145,459.1211 L43.75,469.5313 " fill="none" style="stroke:#2E2E2E;stroke-width:1.0416666666666667;"/><path d="M60.4167,53.125 L60.7086,53.125 L59.8412,63.5352 L60.6851,73.9453 L60.9718,84.3555 L59.4258,94.7656 L60.3087,105.1758 L59.8243,115.5859 L59.884,125.9961 L60.322,136.4063 L59.4564,146.8164 L61.1856,157.2266 L59.5413,167.6367 L60.142,178.0469 L61.0166,188.457 L60.2975,198.8672 L60.5114,209.2773 L60.3723,219.6875 L60.6646,230.0977 L60.7488,240.5078 L61.2301,250.918 L61.3487,261.3281 L61.3601,271.7383 L60.7703,282.1484 L61.0605,292.5586 L61.392,302.9688 L59.415,313.3789 L61.359,323.7891 L60.0049,334.1992 L61.1581,344.6094 L59.7291,355.0195 L60.3215,365.4297 L61.4467,375.8398 L60.349,386.25 L60.5629,396.6602 L60.887,407.0703 L60.9948,417.4805 L60.4112,427.8906 L60.8156,438.3008 L59.6216,448.7109 L60.8116,459.1211 L60.4167,469.5313 " fill="none" style="stroke:#2E2E2E;stroke-width:1.0416666666666667;"/><path d="M77.0833,53.125 L77.3753,53.125 L76.5079,63.5352 L77.3518,73.9453 L77.6384,84.3555 L76.0925,94.7656 L76.9754,105.1758 L76.491,115.5859 L76.5507,125.9961 L76.9887,136.4063 L76.1231,146.8164 L77.8523,157.2266 L76.2079,167.6367 L76.8087,178.0469 L77.6833,188.457 L76.9642,198.8672 L77.1781,209.2773 L77.039,219.6875 L77.3313,230.0977 L77.4155,240.5078 L77.8968,250.918 L78.0154,261.3281 L78.0267,271.7383 L77.437,282.1484 L77.7272,292.5586 L78.0587,302.9688 L76.0817,313.3789 L78.0257,323.7891 L76.6715,334.1992 L77.8247,344.6094 L76.3958,355.0195 L76.9882,365.4297 L78.1133,375.8398 L77.0156,386.25 L77.2296,396.6602 L77.5536,407.0703 L77.6614,417.4805 L77.0779,427.8906 L77.4822,438.3008 L76.2883,448.7109 L77.4783,459.1211 L77.0833,469.5313 " fill="none" style="stroke:#2E2E2E;stroke-width:1.0416666666666667;"/><path d="M93.75,53.125 L94.0419,53.125 L93.1746,63.5352 L94.0185,73.9453 L94.3051,84.3555 L92.7592,94.7656 L93.6421,105.1758 L93.1576,115.5859 L93.2174,125.9961 L93.6553,136.4063 L92.7898,146.8164 L94.5189,157.2266 L92.8746,167.6367 L93.4753,178.0469 L94.3499,188.457 L93.6309,198.8672 L93.8448,209.2773 L93.7056,219.6875 L93.998,230.0977 L94.0821,240.5078 L94.5635,250.918 L94.682,261.3281 L94.6934,271.7383 L94.1036,282.1484 L94.3939,292.5586 L94.7253,302.9688 L92.7484,313.3789 L94.6924,323.7891 L93.3382,334.1992 L94.4914,344.6094 L93.0625,355.0195 L93.6549,365.4297 L94.78,375.8398 L93.6823,386.25 L93.8963,396.6602 L94.2203,407.0703 L94.3281,417.4805 L93.7446,427.8906 L94.1489,438.3008 L92.955,448.7109 L94.145,459.1211 L93.75,469.5313 " fill="none" style="stroke:#2E2E2E;stroke-width:1.0416666666666667;"/><path d="M110.4167,53.125 L110.7086,53.125 L109.8412,63.5352 L110.6851,73.9453 L110.9718,84.3555 L109.4258,94.7656 L110.3087,105.1758 L109.8243,115.5859 L109.884,125.9961 L110.322,136.4063 L109.4564,146.8164 L111.1856,157.2266 L109.5413,167.6367 L110.142,178.0469 L111.0166,188.457 L110.2975,198.8672 L110.5114,209.2773 L110.3723,219.6875 L110.6646,230.0977 L110.7488,240.5078 L111.2301,250.918 L111.3487,261.3281 L111.3601,271.7383 L110.7703,282.1484 L111.0605,292.5586 L111.392,302.9688 L109.415,313.3789 L111.359,323.7891 L110.0049,334.1992 L111.1581,344.6094 L109.7291,355.0195 L110.3215,365.4297 L111.4467,375.8398 L110.349,386.25 L110.5629,396.6602 L110.887,407.0703 L110.9948,417.4805 L110.4112,427.8906 L110.8156,438.3008 L109.6216,448.7109 L110.8116,459.1211 L110.4167,469.5313 " fill="none" style="stroke:#2E2E2E;stroke-width:1.0416666666666667;"/><path d="M127.0833,53.125 L127.3753,53.125 L126.5079,63.5352 L127.3518,73.9453 L127.6384,84.3555 L126.0925,94.7656 L126.9754,105.1758 L126.491,115.5859 L126.5507,125.9961 L126.9887,136.4063 L126.1231,146.8164 L127.8523,157.2266 L126.2079,167.6367 L126.8087,178.0469 L127.6833,188.457 L126.9642,198.8672 L127.1781,209.2773 L127.039,219.6875 L127.3313,230.0977 L127.4155,240.5078 L127.8968,250.918 L128.0154,261.3281 L128.0267,271.7383 L127.437,282.1484 L127.7272,292.5586 L128.0587,302.9688 L126.0817,313.3789 L128.0257,323.7891 L126.6715,334.1992 L127.8247,344.6094 L126.3958,355.0195 L126.9882,365.4297 L128.1133,375.8398 L127.0156,386.25 L127.2296,396.6602 L127.5536,407.0703 L127.6614,417.4805 L127.0779,427.8906 L127.4822,438.3008 L126.2883,448.7109 L127.4783,459.1211 L127.0833,469.5313 " fill="none" style="stroke:#2E2E2E;stroke-width:1.0416666666666667;"/><path d="M143.75,53.125 L144.0419,53.125 L143.1746,63.5352 L144.0185,73.9453 L144.3051,84.3555 L142.7592,94.7656 L143.6421,105.1758 L143.1576,115.5859 L143.2174,125.9961 L143.6553,136.4063 L142.7898,146.8164 L144.5189,157.2266 L142.8746,167.6367 L143.4753,178.0469 L144.3499,188.457 L143.6309,198.8672 L143.8448,209.2773 L143.7056,219.6875 L143.998,230.0977 L144.0821,240.5078 L144.5635,250.918 L144.682,261.3281 L144.6934,271.7383 L144.1036,282.1484 L144.3939,292.5586 L144.7253,302.9688 L142.7484,313.3789 L144.6924,323.7891 L143.3382,334.1992 L144.4914,344.6094 L143.0625,355.0195 L143.6549,365.4297 L144.78,375.8398 L143.6823,386.25 L143.8963,396.6602 L144.2203,407.0703 L144.3281,417.4805 L143.7446,427.8906 L144.1489,438.3008 L142.955,448.7109 L144.145,459.1211 L143.75,469.5313 " fill="none" style="stroke:#2E2E2E;stroke-width:1.0416666666666667;"/><path d="M160.4167,53.125 L160.7086,53.125 L159.8412,63.5352 L160.6851,73.9453 L160.9718,84.3555 L159.4258,94.7656 L160.3087,105.1758 L159.8243,115.5859 L159.884,125.9961 L160.322,136.4063 L159.4564,146.8164 L161.1856,157.2266 L159.5413,167.6367 L160.142,178.0469 L161.0166,188.457 L160.2975,198.8672 L160.5114,209.2773 L160.3723,219.6875 L160.6646,230.0977 L160.7488,240.5078 L161.2301,250.918 L161.3487,261.3281 L161.3601,271.7383 L160.7703,282.1484 L161.0605,292.5586 L161.392,302.9688 L159.415,313.3789 L161.359,323.7891 L160.0049,334.1992 L161.1581,344.6094 L159.7291,355.0195 L160.3215,365.4297 L161.4467,375.8398 L160.349,386.25 L160.5629,396.6602 L160.887,407.0703 L160.9948,417.4805 L160.4112,427.8906 L160.8156,438.3008 L159.6216,448.7109 L160.8116,459.1211 L160.4167,469.5313 " fill="none" style="stroke:#2E2E2E;stroke-width:1.0416666666666667;"/><path d="M177.0833,53.125 L177.3753,53.125 L176.5079,63.5352 L177.3518,73.9453 L177.6384,84.3555 L176.0925,94.7656 L176.9754,105.1758 L176.491,115.5859 L176.5507,125.9961 L176.9887,136.4063 L176.1231,146.8164 L177.8523,157.2266 L176.2079,167.6367 L176.8087,178.0469 L177.6833,188.457 L176.9642,198.8672 L177.1781,209.2773 L177.039,219.6875 L177.3313,230.0977 L177.4155,240.5078 L177.8968,250.918 L178.0154,261.3281 L178.0267,271.7383 L177.437,282.1484 L177.7272,292.5586 L178.0587,302.9688 L176.0817,313.3789 L178.0257,323.7891 L176.6715,334.1992 L177.8247,344.6094 L176.3958,355.0195 L176.9882,365.4297 L178.1133,375.8398 L177.0156,386.25 L177.2296,396.6602 L177.5536,407.0703 L177.6614,417.4805 L177.0779,427.8906 L177.4822,438.3008 L176.2883,448.7109 L177.4783,459.1211 L177.0833,469.5313 " fill="none" style="stroke:#2E2E2E;stroke-width:1.0416666666666667;"/><path d="M193.75,53.125 L194.0419,53.125 L193.1746,63.5352 L194.0185,73.9453 L194.3051,84.3555 L192.7592,94.7656 L193.6421,105.1758 L193.1576,115.5859 L193.2174,125.9961 L193.6553,136.4063 L192.7898,146.8164 L194.5189,157.2266 L192.8746,167.6367 L193.4753,178.0469 L194.3499,188.457 L193.6309,198.8672 L193.8448,209.2773 L193.7056,219.6875 L193.998,230.0977 L194.0821,240.5078 L194.5635,250.918 L194.682,261.3281 L194.6934,271.7383 L194.1036,282.1484 L194.3939,292.5586 L194.7253,302.9688 L192.7484,313.3789 L194.6924,323.7891 L193.3382,334.1992 L194.4914,344.6094 L193.0625,355.0195 L193.6549,365.4297 L194.78,375.8398 L193.6823,386.25 L193.8963,396.6602 L194.2203,407.0703 L194.3281,417.4805 L193.7446,427.8906 L194.1489,438.3008 L192.955,448.7109 L194.145,459.1211 L193.75,469.5313 " fill="none" style="stroke:#2E2E2E;stroke-width:1.0416666666666667;"/><path d="M210.4167,53.125 L210.7086,53.125 L209.8412,63.5352 L210.6851,73.9453 L210.9718,84.3555 L209.4258,94.7656 L210.3087,105.1758 L209.8243,115.5859 L209.884,125.9961 L210.322,136.4063 L209.4564,146.8164 L211.1856,157.2266 L209.5413,167.6367 L210.142,178.0469 L211.0166,188.457 L210.2975,198.8672 L210.5114,209.2773 L210.3723,219.6875 L210.6646,230.0977 L210.7488,240.5078 L211.2301,250.918 L211.3487,261.3281 L211.3601,271.7383 L210.7703,282.1484 L211.0605,292.5586 L211.392,302.9688 L209.415,313.3789 L211.359,323.7891 L210.0049,334.1992 L211.1581,344.6094 L209.7291,355.0195 L210.3215,365.4297 L211.4467,375.8398 L210.349,386.25 L210.5629,396.6602 L210.887,407.0703 L210.9948,417.4805 L210.4112,427.8906 L210.8156,438.3008 L209.6216,448.7109 L210.8116,459.1211 L210.4167,469.5313 " fill="none" style="stroke:#2E2E2E;stroke-width:1.0416666666666667;"/><path d="M227.0833,53.125 L227.3753,53.125 L226.5079,63.5352 L227.3518,73.9453 L227.6384,84.3555 L226.0925,94.7656 L226.9754,105.1758 L226.491,115.5859 L226.5507,125.9961 L226.9887,136.4063 L226.1231,146.8164 L227.8523,157.2266 L226.2079,167.6367 L226.8087,178.0469 L227.6833,188.457 L226.9642,198.8672 L227.1781,209.2773 L227.039,219.6875 L227.3313,230.0977 L227.4155,240.5078 L227.8968,250.918 L228.0154,261.3281 L228.0267,271.7383 L227.437,282.1484 L227.7272,292.5586 L228.0587,302.9688 L226.0817,313.3789 L228.0257,323.7891 L226.6715,334.1992 L227.8247,344.6094 L226.3958,355.0195 L226.9882,365.4297 L228.1133,375.8398 L227.0156,386.25 L227.2296,396.6602 L227.5536,407.0703 L227.6614,417.4805 L227.0779,427.8906 L227.4822,438.3008 L226.2883,448.7109 L227.4783,459.1211 L227.0833,469.5313 " fill="none" style="stroke:#2E2E2E;stroke-width:1.0416666666666667;"/><path d="M243.75,53.125 L244.0419,53.125 L243.1746,63.5352 L244.0185,73.9453 L244.3051,84.3555 L242.7592,94.7656 L243.6421,105.1758 L243.1576,115.5859 L243.2174,125.9961 L243.6553,136.4063 L242.7898,146.8164 L244.5189,157.2266 L242.8746,167.6367 L243.4753,178.0469 L244.3499,188.457 L243.6309,198.8672 L243.8448,209.2773 L243.7056,219.6875 L243.998,230.0977 L244.0821,240.5078 L244.5635,250.918 L244.682,261.3281 L244.6934,271.7383 L244.1036,282.1484 L244.3939,292.5586 L244.7253,302.9688 L242.7484,313.3789 L244.6924,323.7891 L243.3382,334.1992 L244.4914,344.6094 L243.0625,355.0195 L243.6549,365.4297 L244.78,375.8398 L243.6823,386.25 L243.8963,396.6602 L244.2203,407.0703 L244.3281,417.4805 L243.7446,427.8906 L244.1489,438.3008 L242.955,448.7109 L244.145,459.1211 L243.75,469.5313 " fill="none" style="stroke:#2E2E2E;stroke-width:1.0416666666666667;"/><path d="M260.4167,53.125 L260.7086,53.125 L259.8412,63.5352 L260.6851,73.9453 L260.9718,84.3555 L259.4258,94.7656 L260.3087,105.1758 L259.8243,115.5859 L259.884,125.9961 L260.322,136.4063 L259.4564,146.8164 L261.1856,157.2266 L259.5413,167.6367 L260.142,178.0469 L261.0166,188.457 L260.2975,198.8672 L260.5114,209.2773 L260.3723,219.6875 L260.6646,230.0977 L260.7488,240.5078 L261.2301,250.918 L261.3487,261.3281 L261.3601,271.7383 L260.7703,282.1484 L261.0605,292.5586 L261.392,302.9688 L259.415,313.3789 L261.359,323.7891 L260.0049,334.1992 L261.1581,344.6094 L259.7291,355.0195 L260.3215,365.4297 L261.4467,375.8398 L260.349,386.25 L260.5629,396.6602 L260.887,407.0703 L260.9948,417.4805 L260.4112,427.8906 L260.8156,438.3008 L259.6216,448.7109 L260.8116,459.1211 L260.4167,469.5313 " fill="none" style="stroke:#2E2E2E;stroke-width:1.0416666666666667;"/><path d="M277.0833,53.125 L277.3753,53.125 L276.5079,63.5352 L277.3518,73.9453 L277.6384,84.3555 L276.0925,94.7656 L276.9754,105.1758 L276.491,115.5859 L276.5507,125.9961 L276.9887,136.4063 L276.1231,146.8164 L277.8523,157.2266 L276.2079,167.6367 L276.8087,178.0469 L277.6833,188.457 L276.9642,198.8672 L277.1781,209.2773 L277.039,219.6875 L277.3313,230.0977 L277.4155,240.5078 L277.8968,250.918 L278.0154,261.3281 L278.0267,271.7383 L277.437,282.1484 L277.7272,292.5586 L278.0587,302.9688 L276.0817,313.3789 L278.0257,323.7891 L276.6715,334.1992 L277.8247,344.6094 L276.3958,355.0195 L276.9882,365.4297 L278.1133,375.8398 L277.0156,386.25 L277.2296,396.6602 L277.5536,407.0703 L277.6614,417.4805 L277.0779,427.8906 L277.4822,438.3008 L276.2883,448.7109 L277.4783,459.1211 L277.0833,469.5313 " fill="none" style="stroke:#2E2E2E;stroke-width:1.0416666666666667;"/><path d="M293.75,53.125 L294.0419,53.125 L293.1746,63.5352 L294.0185,73.9453 L294.3051,84.3555 L292.7592,94.7656 L293.6421,105.1758 L293.1576,115.5859 L293.2174,125.9961 L293.6553,136.4063 L292.7898,146.8164 L294.5189,157.2266 L292.8746,167.6367 L293.4753,178.0469 L294.3499,188.457 L293.6309,198.8672 L293.8448,209.2773 L293.7056,219.6875 L293.998,230.0977 L294.0821,240.5078 L294.5635,250.918 L294.682,261.3281 L294.6934,271.7383 L294.1036,282.1484 L294.3939,292.5586 L294.7253,302.9688 L292.7484,313.3789 L294.6924,323.7891 L293.3382,334.1992 L294.4914,344.6094 L293.0625,355.0195 L293.6549,365.4297 L294.78,375.8398 L293.6823,386.25 L293.8963,396.6602 L294.2203,407.0703 L294.3281,417.4805 L293.7446,427.8906 L294.1489,438.3008 L292.955,448.7109 L294.145,459.1211 L293.75,469.5313 " fill="none" style="stroke:#2E2E2E;stroke-width:1.0416666666666667;"/><path d="M310.4167,53.125 L310.7086,53.125 L309.8412,63.5352 L310.6851,73.9453 L310.9718,84.3555 L309.4258,94.7656 L310.3087,105.1758 L309.8243,115.5859 L309.884,125.9961 L310.322,136.4063 L309.4564,146.8164 L311.1856,157.2266 L309.5413,167.6367 L310.142,178.0469 L311.0166,188.457 L310.2975,198.8672 L310.5114,209.2773 L310.3723,219.6875 L310.6646,230.0977 L310.7488,240.5078 L311.2301,250.918 L311.3487,261.3281 L311.3601,271.7383 L310.7703,282.1484 L311.0605,292.5586 L311.392,302.9688 L309.415,313.3789 L311.359,323.7891 L310.0049,334.1992 L311.1581,344.6094 L309.7291,355.0195 L310.3215,365.4297 L311.4467,375.8398 L310.349,386.25 L310.5629,396.6602 L310.887,407.0703 L310.9948,417.4805 L310.4112,427.8906 L310.8156,438.3008 L309.6216,448.7109 L310.8116,459.1211 L310.4167,469.5313 " fill="none" style="stroke:#2E2E2E;stroke-width:1.0416666666666667;"/><path d="M327.0833,53.125 L327.3753,53.125 L326.5079,63.5352 L327.3518,73.9453 L327.6384,84.3555 L326.0925,94.7656 L326.9754,105.1758 L326.491,115.5859 L326.5507,125.9961 L326.9887,136.4063 L326.1231,146.8164 L327.8523,157.2266 L326.2079,167.6367 L326.8087,178.0469 L327.6833,188.457 L326.9642,198.8672 L327.1781,209.2773 L327.039,219.6875 L327.3313,230.0977 L327.4155,240.5078 L327.8968,250.918 L328.0154,261.3281 L328.0267,271.7383 L327.437,282.1484 L327.7272,292.5586 L328.0587,302.9688 L326.0817,313.3789 L328.0257,323.7891 L326.6715,334.1992 L327.8247,344.6094 L326.3958,355.0195 L326.9882,365.4297 L328.1133,375.8398 L327.0156,386.25 L327.2296,396.6602 L327.5536,407.0703 L327.6614,417.4805 L327.0779,427.8906 L327.4822,438.3008 L326.2883,448.7109 L327.4783,459.1211 L327.0833,469.5313 " fill="none" style="stroke:#2E2E2E;stroke-width:1.0416666666666667;"/><path d="M343.75,53.125 L344.0419,53.125 L343.1746,63.5352 L344.0185,73.9453 L344.3051,84.3555 L342.7592,94.7656 L343.6421,105.1758 L343.1576,115.5859 L343.2174,125.9961 L343.6553,136.4063 L342.7898,146.8164 L344.5189,157.2266 L342.8746,167.6367 L343.4753,178.0469 L344.3499,188.457 L343.6309,198.8672 L343.8448,209.2773 L343.7056,219.6875 L343.998,230.0977 L344.0821,240.5078 L344.5635,250.918 L344.682,261.3281 L344.6934,271.7383 L344.1036,282.1484 L344.3939,292.5586 L344.7253,302.9688 L342.7484,313.3789 L344.6924,323.7891 L343.3382,334.1992 L344.4914,344.6094 L343.0625,355.0195 L343.6549,365.4297 L344.78,375.8398 L343.6823,386.25 L343.8963,396.6602 L344.2203,407.0703 L344.3281,417.4805 L343.7446,427.8906 L344.1489,438.3008 L342.955,448.7109 L344.145,459.1211 L343.75,469.5313 " fill="none" style="stroke:#2E2E2E;stroke-width:1.0416666666666667;"/><path d="M360.4167,53.125 L360.7086,53.125 L359.8412,63.5352 L360.6851,73.9453 L360.9718,84.3555 L359.4258,94.7656 L360.3087,105.1758 L359.8243,115.5859 L359.884,125.9961 L360.322,136.4063 L359.4564,146.8164 L361.1856,157.2266 L359.5413,167.6367 L360.142,178.0469 L361.0166,188.457 L360.2975,198.8672 L360.5114,209.2773 L360.3723,219.6875 L360.6646,230.0977 L360.7488,240.5078 L361.2301,250.918 L361.3487,261.3281 L361.3601,271.7383 L360.7703,282.1484 L361.0605,292.5586 L361.392,302.9688 L359.415,313.3789 L361.359,323.7891 L360.0049,334.1992 L361.1581,344.6094 L359.7291,355.0195 L360.3215,365.4297 L361.4467,375.8398 L360.349,386.25 L360.5629,396.6602 L360.887,407.0703 L360.9948,417.4805 L360.4112,427.8906 L360.8156,438.3008 L359.6216,448.7109 L360.8116,459.1211 L360.4167,469.5313 " fill="none" style="stroke:#2E2E2E;stroke-width:1.0416666666666667;"/><path d="M377.0833,53.125 L377.3753,53.125 L376.5079,63.5352 L377.3518,73.9453 L377.6384,84.3555 L376.0925,94.7656 L376.9754,105.1758 L376.491,115.5859 L376.5507,125.9961 L376.9887,136.4063 L376.1231,146.8164 L377.8523,157.2266 L376.2079,167.6367 L376.8087,178.0469 L377.6833,188.457 L376.9642,198.8672 L377.1781,209.2773 L377.039,219.6875 L377.3313,230.0977 L377.4155,240.5078 L377.8968,250.918 L378.0154,261.3281 L378.0267,271.7383 L377.437,282.1484 L377.7272,292.5586 L378.0587,302.9688 L376.0817,313.3789 L378.0257,323.7891 L376.6715,334.1992 L377.8247,344.6094 L376.3958,355.0195 L376.9882,365.4297 L378.1133,375.8398 L377.0156,386.25 L377.2296,396.6602 L377.5536,407.0703 L377.6614,417.4805 L377.0779,427.8906 L377.4822,438.3008 L376.2883,448.7109 L377.4783,459.1211 L377.0833,469.5313 " fill="none" style="stroke:#2E2E2E;stroke-width:1.0416666666666667;"/><path d="M393.75,53.125 L394.0419,53.125 L393.1746,63.5352 L394.0185,73.9453 L394.3051,84.3555 L392.7592,94.7656 L393.6421,105.1758 L393.1576,115.5859 L393.2174,125.9961 L393.6553,136.4063 L392.7898,146.8164 L394.5189,157.2266 L392.8746,167.6367 L393.4753,178.0469 L394.3499,188.457 L393.6309,198.8672 L393.8448,209.2773 L393.7056,219.6875 L393.998,230.0977 L394.0821,240.5078 L394.5635,250.918 L394.682,261.3281 L394.6934,271.7383 L394.1036,282.1484 L394.3939,292.5586 L394.7253,302.9688 L392.7484,313.3789 L394.6924,323.7891 L393.3382,334.1992 L394.4914,344.6094 L393.0625,355.0195 L393.6549,365.4297 L394.78,375.8398 L393.6823,386.25 L393.8963,396.6602 L394.2203,407.0703 L394.3281,417.4805 L393.7446,427.8906 L394.1489,438.3008 L392.955,448.7109 L394.145,459.1211 L393.75,469.5313 " fill="none" style="stroke:#2E2E2E;stroke-width:1.0416666666666667;"/><path d="M410.4167,53.125 L410.7086,53.125 L409.8412,63.5352 L410.6851,73.9453 L410.9718,84.3555 L409.4258,94.7656 L410.3087,105.1758 L409.8243,115.5859 L409.884,125.9961 L410.322,136.4063 L409.4564,146.8164 L411.1856,157.2266 L409.5413,167.6367 L410.142,178.0469 L411.0166,188.457 L410.2975,198.8672 L410.5114,209.2773 L410.3723,219.6875 L410.6646,230.0977 L410.7488,240.5078 L411.2301,250.918 L411.3487,261.3281 L411.3601,271.7383 L410.7703,282.1484 L411.0605,292.5586 L411.392,302.9688 L409.415,313.3789 L411.359,323.7891 L410.0049,334.1992 L411.1581,344.6094 L409.7291,355.0195 L410.3215,365.4297 L411.4467,375.8398 L410.349,386.25 L410.5629,396.6602 L410.887,407.0703 L410.9948,417.4805 L410.4112,427.8906 L410.8156,438.3008 L409.6216,448.7109 L410.8116,459.1211 L410.4167,469.5313 " fill="none" style="stroke:#2E2E2E;stroke-width:1.0416666666666667;"/><path d="M10.4167,53.125 L10.4167,53.4169 L20.943,52.5496 L31.4693,53.3935 L41.9956,53.6801 L52.5219,52.1342 L63.0482,53.0171 L73.5746,52.5326 L84.1009,52.5924 L94.6272,53.0303 L105.1535,52.1648 L115.6798,53.8939 L126.2061,52.2496 L136.7325,52.8503 L147.2588,53.7249 L157.7851,53.0059 L168.3114,53.2198 L178.8377,53.0806 L189.364,53.373 L199.8904,53.4571 L210.4167,53.9385 L220.943,54.057 L231.4693,54.0684 L241.9956,53.4786 L252.5219,53.7689 L263.0482,54.1003 L273.5746,52.1234 L284.1009,54.0674 L294.6272,52.7132 L305.1535,53.8664 L315.6798,52.4375 L326.2061,53.0299 L336.7325,54.155 L347.2588,53.0573 L357.7851,53.2713 L368.3114,53.5953 L378.8377,53.7031 L389.364,53.1196 L399.8904,53.5239 L410.4167,53.125 " fill="none" style="stroke:#2E2E2E;stroke-width:1.0416666666666667;"/><path d="M10.4167,469.5313 L10.4167,469.8232 L20.943,468.9558 L31.4693,469.7997 L41.9956,470.0864 L52.5219,468.5404 L63.0482,469.4233 L73.5746,468.9389 L84.1009,468.9986 L94.6272,469.4366 L105.1535,468.571 L115.6798,470.3002 L126.2061,468.6559 L136.7325,469.2566 L147.2588,470.1312 L157.7851,469.4121 L168.3114,469.626 L178.8377,469.4869 L189.364,469.7792 L199.8904,469.8634 L210.4167,470.3447 L220.943,470.4633 L231.4693,470.4747 L241.9956,469.8849 L252.5219,470.1751 L263.0482,470.5066 L273.5746,468.5296 L284.1009,470.4736 L294.6272,469.1194 L305.1535,470.2727 L315.6798,468.8437 L326.2061,469.4361 L336.7325,470.5613 L347.2588,469.4636 L357.7851,469.6775 L368.3114,470.0016 L378.8377,470.1093 L389.364,469.5258 L399.8904,469.9302 L410.4167,469.5313 " fill="none" style="stroke:#2E2E2E;stroke-width:1.0416666666666667;"/><path d="M184.375,90.5924 L184.4723,90.5924 L184.1832,97.4642 L184.4645,104.3359 L184.56,111.2077 L184.0447,118.0794 L184.375,124.9512 " fill="none" style="stroke:#333333;stroke-width:3.125;"/><path d="M184.375,124.9512 L184.375,125.0485 L186.0417,124.7594 L187.7083,125.0407 L189.375,125.1362 L191.0417,124.6209 L192.7083,124.9512 " fill="none" style="stroke:#333333;stroke-width:3.125;"/><polygon fill="#333333" points="188.5417,120.7845,188.6146,120.7845,188.3978,121.6178,188.6088,122.4512,188.6804,123.2845,188.294,124.1178,188.5417,124.9512,188.5147,124.9512,188.3936,125.7845,188.4085,126.6178,188.518,127.4512,188.3016,128.2845,188.5417,129.1178,188.6776,129.2538,189.2203,128.1298,190.1598,127.4026,191.1477,126.7239,191.8539,125.7634,192.7083,124.9512,192.7251,124.9679,191.8672,124.11,191.0855,123.3283,190.267,122.5099,189.5188,121.7616,188.5417,120.7845" style="stroke:#333333;stroke-width:1.5625;"/><path d="M267.7083,138.4766 L267.8056,138.4766 L267.5165,145.3483 L267.7978,152.2201 L267.8934,159.0918 L267.3781,165.9635 L267.7083,172.8353 " fill="none" style="stroke:#333333;stroke-width:3.125;"/><path d="M267.7083,172.8353 L267.7083,172.9326 L269.375,172.6435 L271.0417,172.9248 L272.7083,173.0203 L274.375,172.505 L276.0417,172.8353 " fill="none" style="stroke:#333333;stroke-width:3.125;"/><polygon fill="#333333" points="271.875,168.6686,271.948,168.6686,271.7311,169.502,271.9421,170.3353,272.0138,171.1686,271.6273,172.002,271.875,172.8353,271.848,172.8353,271.7269,173.6686,271.7418,174.502,271.8513,175.3353,271.6349,176.1686,271.875,177.002,272.0109,177.1379,272.5536,176.0139,273.4931,175.2867,274.4811,174.608,275.1873,173.6476,276.0417,172.8353,276.0584,172.852,275.2005,171.9941,274.4188,171.2125,273.6004,170.394,272.8521,169.6458,271.875,168.6686" style="stroke:#333333;stroke-width:1.5625;"/><path d="M267.7083,138.4766 L268.0003,138.4766 L267.1329,148.7569 L267.9768,159.0373 L268.2634,169.3176 L266.7175,179.598 L267.6004,189.8783 L267.116,200.1587 L267.1757,210.439 L267.7083,220.7194 " fill="none" style="stroke:#333333;stroke-width:3.125;"/><path d="M267.7083,220.7194 L267.7083,220.8167 L269.375,220.5276 L271.0417,220.8089 L272.7083,220.9044 L274.375,220.3891 L276.0417,220.7194 " fill="none" style="stroke:#333333;stroke-width:3.125;"/><polygon fill="#333333" points="271.875,216.5527,271.948,216.5527,271.7311,217.3861,271.9421,218.2194,272.0138,219.0527,271.6273,219.8861,271.875,220.7194,271.848,220.7194,271.7269,221.5527,271.7418,222.3861,271.8513,223.2194,271.6349,224.0527,271.875,224.8861,272.0109,225.022,272.5536,223.898,273.4931,223.1708,274.4811,222.4921,275.1873,221.5317,276.0417,220.7194,276.0584,220.7362,275.2005,219.8782,274.4188,219.0966,273.6004,218.2781,272.8521,217.5299,271.875,216.5527" style="stroke:#333333;stroke-width:1.5625;"/><path d="M267.7083,138.4766 L268.0003,138.4766 L267.1329,149.3205 L267.9768,160.1644 L268.2634,171.0083 L266.7175,181.8522 L267.6004,192.6961 L267.116,203.54 L267.1757,214.384 L267.6137,225.2279 L266.7481,236.0718 L268.4773,246.9157 L266.8329,257.7596 L267.7083,268.6035 " fill="none" style="stroke:#333333;stroke-width:3.125;"/><path d="M267.7083,268.6035 L267.7083,268.7008 L269.375,268.4117 L271.0417,268.693 L272.7083,268.7886 L274.375,268.2732 L276.0417,268.6035 " fill="none" style="stroke:#333333;stroke-width:3.125;"/><polygon fill="#333333" points="271.875,264.4368,271.948,264.4368,271.7311,265.2702,271.9421,266.1035,272.0138,266.9368,271.6273,267.7702,271.875,268.6035,271.848,268.6035,271.7269,269.4368,271.7418,270.2702,271.8513,271.1035,271.6349,271.9368,271.875,272.7702,272.0109,272.9061,272.5536,271.7821,273.4931,271.055,274.4811,270.3762,275.1873,269.4158,276.0417,268.6035,276.0584,268.6203,275.2005,267.7623,274.4188,266.9807,273.6004,266.1622,272.8521,265.414,271.875,264.4368" style="stroke:#333333;stroke-width:1.5625;"/><path d="M267.7083,138.4766 L268.0003,138.4766 L267.1329,148.9478 L267.9768,159.419 L268.2634,169.8903 L266.7175,180.3615 L267.6004,190.8328 L267.116,201.304 L267.1757,211.7752 L267.6137,222.2465 L266.7481,232.7177 L268.4773,243.189 L266.8329,253.6602 L267.4337,264.1314 L268.3083,274.6027 L267.5892,285.0739 L267.8031,295.5452 L267.664,306.0164 L267.7083,316.4876 " fill="none" style="stroke:#333333;stroke-width:3.125;"/><path d="M267.7083,316.4876 L267.7083,316.5849 L269.375,316.2958 L271.0417,316.5771 L272.7083,316.6727 L274.375,316.1574 L276.0417,316.4876 " fill="none" style="stroke:#333333;stroke-width:3.125;"/><polygon fill="#333333" points="271.875,312.321,271.948,312.321,271.7311,313.1543,271.9421,313.9876,272.0138,314.821,271.6273,315.6543,271.875,316.4876,271.848,316.4876,271.7269,317.321,271.7418,318.1543,271.8513,318.9876,271.6349,319.821,271.875,320.6543,272.0109,320.7902,272.5536,319.6662,273.4931,318.9391,274.4811,318.2603,275.1873,317.2999,276.0417,316.4876,276.0584,316.5044,275.2005,315.6465,274.4188,314.8648,273.6004,314.0463,272.8521,313.2981,271.875,312.321" style="stroke:#333333;stroke-width:1.5625;"/><path d="M10.4167,101.0091 L11.0005,101.0091 L9.2658,111.1491 L10.9536,121.2891 L11.5269,131.429 L8.435,141.569 L10.2008,151.709 L9.232,161.849 L9.3514,171.9889 L10.4167,182.1289 L10.4167,181.9396 L20.6101,180.2084 L30.8036,183.6668 L40.997,180.3781 L51.1905,181.5796 L61.3839,183.3288 L71.5774,181.8906 L81.7708,182.3185 L91.9643,182.0402 L102.1577,182.6248 L112.3512,182.7932 L122.5446,183.7558 L132.7381,183.9929 L142.9315,184.0157 L153.125,182.1289 L153.8323,182.1289 L154.4127,172.0285 L155.0756,161.928 L151.1217,151.8276 L155.0098,141.7271 L152.3014,131.6267 L154.6078,121.5262 L153.125,111.4258 L152.8009,111.1017 L150.9968,109.2976 L149.4439,107.7447 L146.8431,105.1439 L144.8606,103.1614 L142.7083,101.0091 L142.7083,101.9497 L132.5321,102.1653 L122.3558,100.9983 L112.1795,101.8069 L102.0032,99.4191 L91.8269,101.7991 L81.6506,102.5319 L71.4744,102.2439 L61.2981,102.712 L51.1218,99.6672 L40.9455,99.1975 L30.7692,99.283 L20.5929,100.8456 L10.4167,101.0091 " fill="#17A2B8" style="stroke:#1592A6;stroke-width:1.0416666666666667;"/><path d="M142.7083,101.0091 L142.5264,101.0091 L143.3393,103.0924 L142.5466,105.1758 L142.3907,107.2591 L142.9197,109.3424 L142.7083,111.4258 L142.7083,110.8083 L144.7917,110.9451 L146.875,112.0267 L148.9583,111.8292 L151.0417,112.1059 L153.125,111.4258 L152.9143,111.2151 L151.2507,109.5514 L149.3449,107.6457 L146.5657,104.8665 L144.7289,103.0297 L142.7083,101.0091 " fill="#17A2B8" style="stroke:#1592A6;stroke-width:1.0416666666666667;"/><text fill="#FFFFFF" font-family="&quot;Segoe Print&quot;" font-size="12.5" lengthAdjust="spacing" textLength="64.5833" x="22.9167" y="124.0702">memo1 ...</text><text fill="#FFFFFF" font-family="&quot;Segoe Print&quot;" font-size="12.5" lengthAdjust="spacing" textLength="64.5833" x="22.9167" y="138.621">memo2 ...</text><text fill="#FFFFFF" font-family="&quot;Segoe Print&quot;" font-size="12.5" lengthAdjust="spacing" textLength="108.3333" x="22.9167" y="153.1718">explanations1 ...</text><text fill="#FFFFFF" font-family="&quot;Segoe Print&quot;" font-size="12.5" lengthAdjust="spacing" textLength="108.3333" x="22.9167" y="167.7226">explanations2 ...</text><path d="M110.4167,90.5924 L25,90.5924 A4.1667,4.1667 0 0 1 20.8333,86.4258 L20.8333,67.7083 A4.1667,4.1667 0 0 1 25,63.5417 L110.4167,63.5417 " style="stroke:#333333;stroke-width:1.0416666666666667;fill:none;"/><path d="M127.0833,63.5417 L179.1667,63.5417 A4.1667,4.1667 0 0 1 183.3333,67.7083 L183.3333,86.4258 A4.1667,4.1667 0 0 1 179.1667,90.5924 L127.0833,90.5924 " style="stroke:#333333;stroke-width:1.0416666666666667;fill:none;"/><path d="M113.5417,63.5417 L113.5417,63.639 L115.625,63.3499 L117.7083,63.6312 L119.7917,63.7267 L121.875,63.2114 L123.9583,63.5417 " style="stroke:#333333;stroke-width:1.0416666666666667;fill:none;stroke-dasharray:2.0,3.0;"/><path d="M113.5417,90.5924 L113.5417,90.6898 L115.625,90.4006 L117.7083,90.6819 L119.7917,90.7775 L121.875,90.2622 L123.9583,90.5924 " style="stroke:#333333;stroke-width:1.0416666666666667;fill:none;stroke-dasharray:2.0,3.0;"/><path d="M227.0833,138.4766 L208.3333,138.4766 A4.1667,4.1667 0 0 1 204.1667,134.3099 L204.1667,115.5924 A4.1667,4.1667 0 0 1 208.3333,111.4258 L227.0833,111.4258 " style="stroke:#333333;stroke-width:1.0416666666666667;fill:none;"/><path d="M243.75,111.4258 L262.5,111.4258 A4.1667,4.1667 0 0 1 266.6667,115.5924 L266.6667,134.3099 A4.1667,4.1667 0 0 1 262.5,138.4766 L243.75,138.4766 " style="stroke:#333333;stroke-width:1.0416666666666667;fill:none;"/><path d="M230.2083,111.4258 L230.2083,111.5231 L232.2917,111.234 L234.375,111.5153 L236.4583,111.6108 L238.5417,111.0955 L240.625,111.4258 " style="stroke:#333333;stroke-width:1.0416666666666667;fill:none;stroke-dasharray:2.0,3.0;"/><path d="M230.2083,138.4766 L230.2083,138.5739 L232.2917,138.2847 L234.375,138.566 L236.4583,138.6616 L238.5417,138.1463 L240.625,138.4766 " style="stroke:#333333;stroke-width:1.0416666666666667;fill:none;stroke-dasharray:2.0,3.0;"/><path d="M343.75,186.3607 L291.6667,186.3607 A4.1667,4.1667 0 0 1 287.5,182.194 L287.5,163.4766 A4.1667,4.1667 0 0 1 291.6667,159.3099 L343.75,159.3099 " style="stroke:#333333;stroke-width:1.0416666666666667;fill:none;"/><path d="M360.4167,159.3099 L395.8333,159.3099 A4.1667,4.1667 0 0 1 400,163.4766 L400,182.194 A4.1667,4.1667 0 0 1 395.8333,186.3607 L360.4167,186.3607 " style="stroke:#333333;stroke-width:1.0416666666666667;fill:none;"/><path d="M346.875,159.3099 L346.875,159.4072 L348.9583,159.1181 L351.0417,159.3994 L353.125,159.4949 L355.2083,158.9796 L357.2917,159.3099 " style="stroke:#333333;stroke-width:1.0416666666666667;fill:none;stroke-dasharray:2.0,3.0;"/><path d="M346.875,186.3607 L346.875,186.458 L348.9583,186.1689 L351.0417,186.4502 L353.125,186.5457 L355.2083,186.0304 L357.2917,186.3607 " style="stroke:#333333;stroke-width:1.0416666666666667;fill:none;stroke-dasharray:2.0,3.0;"/><path d="M343.75,234.2448 L291.6667,234.2448 A4.1667,4.1667 0 0 1 287.5,230.0781 L287.5,211.3607 A4.1667,4.1667 0 0 1 291.6667,207.194 L343.75,207.194 " fill="#000000" style="stroke:#333333;stroke-width:1.0416666666666667;"/><path d="M360.4167,207.194 L395.8333,207.194 A4.1667,4.1667 0 0 1 400,211.3607 L400,230.0781 A4.1667,4.1667 0 0 1 395.8333,234.2448 L360.4167,234.2448 " fill="#000000" style="stroke:#333333;stroke-width:1.0416666666666667;"/><path d="M346.875,207.194 L346.875,207.2913 L348.9583,207.0022 L351.0417,207.2835 L353.125,207.379 L355.2083,206.8637 L357.2917,207.194 " fill="#000000" style="stroke:#333333;stroke-width:1.0416666666666667;stroke-dasharray:2.0,3.0;"/><path d="M346.875,234.2448 L346.875,234.3421 L348.9583,234.053 L351.0417,234.3343 L353.125,234.4298 L355.2083,233.9145 L357.2917,234.2448 " fill="#000000" style="stroke:#333333;stroke-width:1.0416666666666667;stroke-dasharray:2.0,3.0;"/><path d="M343.75,282.1289 L291.6667,282.1289 A4.1667,4.1667 0 0 1 287.5,277.9622 L287.5,259.2448 A4.1667,4.1667 0 0 1 291.6667,255.0781 L343.75,255.0781 " fill="#000000" style="stroke:#333333;stroke-width:1.0416666666666667;"/><path d="M360.4167,255.0781 L395.8333,255.0781 A4.1667,4.1667 0 0 1 400,259.2448 L400,277.9622 A4.1667,4.1667 0 0 1 395.8333,282.1289 L360.4167,282.1289 " fill="#000000" style="stroke:#333333;stroke-width:1.0416666666666667;"/><path d="M346.875,255.0781 L346.875,255.1754 L348.9583,254.8863 L351.0417,255.1676 L353.125,255.2632 L355.2083,254.7478 L357.2917,255.0781 " fill="#000000" style="stroke:#333333;stroke-width:1.0416666666666667;stroke-dasharray:2.0,3.0;"/><path d="M346.875,282.1289 L346.875,282.2262 L348.9583,281.9371 L351.0417,282.2184 L353.125,282.3139 L355.2083,281.7986 L357.2917,282.1289 " fill="#000000" style="stroke:#333333;stroke-width:1.0416666666666667;stroke-dasharray:2.0,3.0;"/><path d="M343.75,330.013 L291.6667,330.013 A4.1667,4.1667 0 0 1 287.5,325.8464 L287.5,307.1289 A4.1667,4.1667 0 0 1 291.6667,302.9622 L343.75,302.9622 " style="stroke:#333333;stroke-width:1.0416666666666667;fill:none;"/><path d="M360.4167,302.9622 L395.8333,302.9622 A4.1667,4.1667 0 0 1 400,307.1289 L400,325.8464 A4.1667,4.1667 0 0 1 395.8333,330.013 L360.4167,330.013 " style="stroke:#333333;stroke-width:1.0416666666666667;fill:none;"/><path d="M346.875,302.9622 L346.875,303.0595 L348.9583,302.7704 L351.0417,303.0517 L353.125,303.1473 L355.2083,302.632 L357.2917,302.9622 " style="stroke:#333333;stroke-width:1.0416666666666667;fill:none;stroke-dasharray:2.0,3.0;"/><path d="M346.875,330.013 L346.875,330.1103 L348.9583,329.8212 L351.0417,330.1025 L353.125,330.1981 L355.2083,329.6827 L357.2917,330.013 " style="stroke:#333333;stroke-width:1.0416666666666667;fill:none;stroke-dasharray:2.0,3.0;"/><polygon fill="#555555" points="10.4167,350.8464,10.4167,351.0653,20.943,350.4148,31.4693,351.0477,41.9956,351.2627,52.5219,350.1032,63.0482,350.7654,73.5746,350.4021,84.1009,350.4469,94.6272,350.7754,105.1535,350.1262,115.6798,351.4231,126.2061,350.1898,136.7325,350.6403,147.2588,351.2963,157.7851,350.757,168.3114,350.9174,178.8377,350.8131,189.364,351.0323,199.8904,351.0955,210.4167,351.4564,220.943,351.5454,231.4693,351.5539,241.9956,351.1116,252.5219,351.3293,263.0482,351.5778,273.5746,350.0951,284.1009,351.5531,294.6272,350.5375,305.1535,351.4024,315.6798,350.3307,326.2061,350.775,336.7325,351.6189,347.2588,350.7956,357.7851,350.956,368.3114,351.1991,378.8377,351.2799,389.364,350.8423,399.8904,351.1455,410.4167,350.8464,410.2179,350.8464,410.5154,356.2565,410.607,361.6667,410.571,367.0768,410.6295,372.487,410.4167,377.8971,410.4167,377.3939,399.8904,377.2178,389.364,377.2498,378.8377,377.8358,368.3114,377.6924,357.7851,378.6069,347.2588,377.7152,336.7325,377.5398,326.2061,378.1349,315.6798,377.2025,305.1535,377.3564,294.6272,378.5731,284.1009,378.351,273.5746,378.6622,263.0482,377.5619,252.5219,378.2296,241.9956,378.5122,231.4693,377.405,220.943,377.7973,210.4167,378.0284,199.8904,378.5761,189.364,377.8928,178.8377,378.379,168.3114,377.3203,157.7851,377.1917,147.2588,378.4217,136.7325,377.1503,126.2061,378.4273,115.6798,378.1124,105.1535,377.6181,94.6272,377.5286,84.1009,378.375,73.5746,377.5853,63.0482,378.5137,52.5219,377.3214,41.9956,378.5403,31.4693,378.4016,20.943,378.1523,10.4167,377.8971,10.4331,377.8971,10.669,372.487,10.6297,367.0768,10.4754,361.6667,10.5098,356.2565,10.4167,350.8464" style="stroke:none;stroke-width:1.0416666666666667;"/><path d="M10.4167,364.3717 L10.4167,364.4691 L11.6667,364.1799 L12.9167,364.4612 L14.1667,364.5568 L15.4167,364.0415 L16.6667,364.3717 " fill="none" style="stroke:#555555;stroke-width:1.0416666666666667;"/><path d="M146.875,364.3717 L146.875,364.6637 L157.375,363.7963 L167.875,364.6402 L178.375,364.9269 L188.875,363.3809 L199.375,364.2638 L209.875,363.7794 L220.375,363.8391 L230.875,364.2771 L241.375,363.4115 L251.875,365.1407 L262.375,363.4964 L272.875,364.0971 L283.375,364.9717 L293.875,364.2526 L304.375,364.4665 L314.875,364.3274 L325.375,364.6197 L335.875,364.7039 L346.375,365.1852 L356.875,365.3038 L367.375,365.3152 L377.875,364.7254 L388.375,365.0156 L398.875,365.3471 L409.375,364.3717 " fill="none" style="stroke:#555555;stroke-width:1.0416666666666667;"/><polygon fill="#555555" points="268.75,398.7305,268.8016,398.7821,269.8983,399.8787,271.2975,401.2779,272.5981,402.5786,273.5748,403.5553,275,404.9805,274.9809,404.9614,273.6453,406.1258,272.4058,407.3863,271.2333,408.7137,269.8303,409.8107,268.75,411.2305,268.8859,411.3664,267.3453,409.8257,266.2014,408.6819,265.1061,407.5865,263.7289,406.2094,262.5,404.9805,262.5168,404.9972,263.7422,403.7226,265.0438,402.5243,266.3087,401.2892,267.6438,400.1243,268.75,398.7305" style="stroke:#4D4D4D;stroke-width:1.0416666666666667;"/><polygon fill="#555555" points="10.4167,432.0638,10.4167,432.2827,20.943,431.6322,31.4693,432.2651,41.9956,432.4801,52.5219,431.3207,63.0482,431.9829,73.5746,431.6195,84.1009,431.6643,94.6272,431.9928,105.1535,431.3436,115.6798,432.6405,126.2061,431.4073,136.7325,431.8578,147.2588,432.5137,157.7851,431.9745,168.3114,432.1349,178.8377,432.0305,189.364,432.2498,199.8904,432.3129,210.4167,432.6739,220.943,432.7628,231.4693,432.7714,241.9956,432.329,252.5219,432.5467,263.0482,432.7953,273.5746,431.3126,284.1009,432.7706,294.6272,431.7549,305.1535,432.6199,315.6798,431.5482,326.2061,431.9924,336.7325,432.8363,347.2588,432.013,357.7851,432.1735,368.3114,432.4165,378.8377,432.4974,389.364,432.0597,399.8904,432.363,410.4167,432.0638,410.2179,432.0638,410.5154,437.474,410.607,442.8841,410.571,448.2943,410.6295,453.7044,410.4167,459.1146,410.4167,458.6114,399.8904,458.4352,389.364,458.4673,378.8377,459.0532,368.3114,458.9099,357.7851,459.8244,347.2588,458.9326,336.7325,458.7572,326.2061,459.3524,315.6798,458.42,305.1535,458.5738,294.6272,459.7906,284.1009,459.5684,273.5746,459.8797,263.0482,458.7794,252.5219,459.4471,241.9956,459.7296,231.4693,458.6225,220.943,459.0147,210.4167,459.2458,199.8904,459.7935,189.364,459.1102,178.8377,459.5964,168.3114,458.5377,157.7851,458.4091,147.2588,459.6392,136.7325,458.3678,126.2061,459.6448,115.6798,459.3298,105.1535,458.8355,94.6272,458.7461,84.1009,459.5925,73.5746,458.8028,63.0482,459.7311,52.5219,458.5388,41.9956,459.7577,31.4693,459.6191,20.943,459.3698,10.4167,459.1146,10.4331,459.1146,10.669,453.7044,10.6297,448.2943,10.4754,442.8841,10.5098,437.474,10.4167,432.0638" style="stroke:none;stroke-width:1.0416666666666667;"/><path d="M10.4167,445.5892 L10.4167,445.6865 L11.6667,445.3974 L12.9167,445.6787 L14.1667,445.7742 L15.4167,445.2589 L16.6667,445.5892 " fill="none" style="stroke:#555555;stroke-width:1.0416666666666667;"/><path d="M65.625,445.5892 L65.625,445.8811 L76.0417,445.0137 L86.4583,445.8576 L96.875,446.1443 L107.2917,444.5984 L117.7083,445.4813 L128.125,444.9968 L138.5417,445.0566 L148.9583,445.4945 L159.375,444.629 L169.7917,446.3581 L180.2083,444.7138 L190.625,445.3145 L201.0417,446.1891 L211.4583,445.4701 L221.875,445.684 L232.2917,445.5448 L242.7083,445.8371 L253.125,445.9213 L263.5417,446.4027 L273.9583,446.5212 L284.375,446.5326 L294.7917,445.9428 L305.2083,446.2331 L315.625,446.5645 L326.0417,444.5875 L336.4583,446.5316 L346.875,445.1774 L357.2917,446.3306 L367.7083,444.9017 L378.125,445.4941 L388.5417,446.6192 L398.9583,445.5215 L409.375,445.5892 " fill="none" style="stroke:#555555;stroke-width:1.0416666666666667;"/><text fill="#2E2E2E" font-family="&quot;Segoe Print&quot;" font-size="12.5" lengthAdjust="spacing" textLength="38.5417" x="16.6667" y="81.3944">Task1</text><text fill="#2E2E2E" font-family="&quot;Segoe Print&quot;" font-size="12.5" lengthAdjust="spacing" textLength="38.5417" x="200" y="129.2786">Task2</text><text fill="#2E2E2E" font-family="&quot;Segoe Print&quot;" font-size="12.5" lengthAdjust="spacing" textLength="61.4583" x="283.3333" y="177.1627">Test  000</text><text fill="#2E2E2E" font-family="&quot;Segoe Print&quot;" font-size="12.5" lengthAdjust="spacing" textLength="61.4583" x="283.3333" y="225.0468">Test  025</text><text fill="#2E2E2E" font-family="&quot;Segoe Print&quot;" font-size="12.5" lengthAdjust="spacing" textLength="61.4583" x="283.3333" y="272.9309">Test  060</text><text fill="#2E2E2E" font-family="&quot;Segoe Print&quot;" font-size="12.5" lengthAdjust="spacing" textLength="61.4583" x="283.3333" y="320.815">Test  100</text><text fill="#FFFFFF" font-family="&quot;Segoe Print&quot;" font-size="12.5" font-weight="bold" lengthAdjust="spacing" textLength="109.375" x="27.0833" y="368.6991">Separator title</text><text fill="#17A2B8" font-family="&quot;Segoe Print&quot;" font-size="12.5" font-style="italic" lengthAdjust="spacing" textLength="18.75" x="281.25" y="409.3079">M1</text><text fill="#FFFFFF" font-family="&quot;Segoe Print&quot;" font-size="12.5" font-weight="bold" lengthAdjust="spacing" textLength="28.125" x="27.0833" y="449.9166">end</text><text fill="#FFFFFF" font-family="Serif" font-size="10.4167" lengthAdjust="spacing" textLength="12.5" x="12.5" y="491.7002">14</text><text fill="#FFFFFF" font-family="Serif" font-size="10.4167" lengthAdjust="spacing" textLength="12.5" x="29.1667" y="491.7002">15</text><text fill="#FFFFFF" font-family="Serif" font-size="10.4167" lengthAdjust="spacing" textLength="12.5" x="45.8333" y="491.7002">16</text><text fill="#FFFFFF" font-family="Serif" font-size="10.4167" lengthAdjust="spacing" textLength="12.5" x="62.5" y="491.7002">17</text><text fill="#FFFFFF" font-family="Serif" font-size="10.4167" lengthAdjust="spacing" textLength="12.5" x="79.1667" y="491.7002">18</text><text fill="#FFFFFF" font-family="Serif" font-size="10.4167" lengthAdjust="spacing" textLength="12.5" x="95.8333" y="491.7002">19</text><text fill="#FFFFFF" font-family="Serif" font-size="10.4167" lengthAdjust="spacing" textLength="12.5" x="112.5" y="491.7002">20</text><text fill="#FFFFFF" font-family="Serif" font-size="10.4167" lengthAdjust="spacing" textLength="12.5" x="129.1667" y="491.7002">21</text><text fill="#FFFFFF" font-family="Serif" font-size="10.4167" lengthAdjust="spacing" textLength="12.5" x="145.8333" y="491.7002">22</text><text fill="#FFFFFF" font-family="Serif" font-size="10.4167" lengthAdjust="spacing" textLength="12.5" x="162.5" y="491.7002">23</text><text fill="#FFFFFF" font-family="Serif" font-size="10.4167" lengthAdjust="spacing" textLength="12.5" x="179.1667" y="491.7002">24</text><text fill="#FFFFFF" font-family="Serif" font-size="10.4167" lengthAdjust="spacing" textLength="12.5" x="195.8333" y="491.7002">25</text><text fill="#FFFFFF" font-family="Serif" font-size="10.4167" lengthAdjust="spacing" textLength="12.5" x="212.5" y="491.7002">26</text><text fill="#FFFFFF" font-family="Serif" font-size="10.4167" lengthAdjust="spacing" textLength="12.5" x="229.1667" y="491.7002">27</text><text fill="#FFFFFF" font-family="Serif" font-size="10.4167" lengthAdjust="spacing" textLength="12.5" x="245.8333" y="491.7002">28</text><text fill="#FFFFFF" font-family="Serif" font-size="10.4167" lengthAdjust="spacing" textLength="12.5" x="262.5" y="491.7002">29</text><text fill="#FFFFFF" font-family="Serif" font-size="10.4167" lengthAdjust="spacing" textLength="12.5" x="279.1667" y="491.7002">30</text><text fill="#FFFFFF" font-family="Serif" font-size="10.4167" lengthAdjust="spacing" textLength="12.5" x="295.8333" y="491.7002">31</text><text fill="#FFFFFF" font-family="Serif" font-size="10.4167" lengthAdjust="spacing" textLength="6.25" x="315.625" y="491.7002">1</text><text fill="#FFFFFF" font-family="Serif" font-size="10.4167" lengthAdjust="spacing" textLength="6.25" x="332.2917" y="491.7002">2</text><text fill="#FFFFFF" font-family="Serif" font-size="10.4167" lengthAdjust="spacing" textLength="6.25" x="348.9583" y="491.7002">3</text><text fill="#FFFFFF" font-family="Serif" font-size="10.4167" lengthAdjust="spacing" textLength="6.25" x="365.625" y="491.7002">4</text><text fill="#FFFFFF" font-family="Serif" font-size="10.4167" lengthAdjust="spacing" textLength="6.25" x="382.2917" y="491.7002">5</text><text fill="#FFFFFF" font-family="Serif" font-size="10.4167" lengthAdjust="spacing" textLength="6.25" x="398.9583" y="491.7002">6</text><text fill="#FFFFFF" font-family="Serif" font-size="10.4167" lengthAdjust="spacing" textLength="16.6667" x="10.4167" y="479.2002">Mo</text><text fill="#FFFFFF" font-family="Serif" font-size="10.4167" lengthAdjust="spacing" textLength="14.5833" x="28.125" y="479.2002">Tu</text><text fill="#FFFFFF" font-family="Serif" font-size="10.4167" lengthAdjust="spacing" textLength="17.7083" x="43.75" y="479.2002">We</text><text fill="#FFFFFF" font-family="Serif" font-size="10.4167" lengthAdjust="spacing" textLength="14.5833" x="61.4583" y="479.2002">Th</text><text fill="#FFFFFF" font-family="Serif" font-size="10.4167" lengthAdjust="spacing" textLength="12.5" x="79.1667" y="479.2002">Fr</text><text fill="#FFFFFF" font-family="Serif" font-size="10.4167" lengthAdjust="spacing" textLength="11.4583" x="96.3542" y="479.2002">Sa</text><text fill="#FFFFFF" font-family="Serif" font-size="10.4167" lengthAdjust="spacing" textLength="12.5" x="112.5" y="479.2002">Su</text><text fill="#FFFFFF" font-family="Serif" font-size="10.4167" lengthAdjust="spacing" textLength="16.6667" x="127.0833" y="479.2002">Mo</text><text fill="#FFFFFF" font-family="Serif" font-size="10.4167" lengthAdjust="spacing" textLength="14.5833" x="144.7917" y="479.2002">Tu</text><text fill="#FFFFFF" font-family="Serif" font-size="10.4167" lengthAdjust="spacing" textLength="17.7083" x="160.4167" y="479.2002">We</text><text fill="#FFFFFF" font-family="Serif" font-size="10.4167" lengthAdjust="spacing" textLength="14.5833" x="178.125" y="479.2002">Th</text><text fill="#FFFFFF" font-family="Serif" font-size="10.4167" lengthAdjust="spacing" textLength="12.5" x="195.8333" y="479.2002">Fr</text><text fill="#FFFFFF" font-family="Serif" font-size="10.4167" lengthAdjust="spacing" textLength="11.4583" x="213.0208" y="479.2002">Sa</text><text fill="#FFFFFF" font-family="Serif" font-size="10.4167" lengthAdjust="spacing" textLength="12.5" x="229.1667" y="479.2002">Su</text><text fill="#FFFFFF" font-family="Serif" font-size="10.4167" lengthAdjust="spacing" textLength="16.6667" x="243.75" y="479.2002">Mo</text><text fill="#FFFFFF" font-family="Serif" font-size="10.4167" lengthAdjust="spacing" textLength="14.5833" x="261.4583" y="479.2002">Tu</text><text fill="#FFFFFF" font-family="Serif" font-size="10.4167" lengthAdjust="spacing" textLength="17.7083" x="277.0833" y="479.2002">We</text><text fill="#FFFFFF" font-family="Serif" font-size="10.4167" lengthAdjust="spacing" textLength="14.5833" x="294.7917" y="479.2002">Th</text><text fill="#FFFFFF" font-family="Serif" font-size="10.4167" lengthAdjust="spacing" textLength="12.5" x="312.5" y="479.2002">Fr</text><text fill="#FFFFFF" font-family="Serif" font-size="10.4167" lengthAdjust="spacing" textLength="11.4583" x="329.6875" y="479.2002">Sa</text><text fill="#FFFFFF" font-family="Serif" font-size="10.4167" lengthAdjust="spacing" textLength="12.5" x="345.8333" y="479.2002">Su</text><text fill="#FFFFFF" font-family="Serif" font-size="10.4167" lengthAdjust="spacing" textLength="16.6667" x="360.4167" y="479.2002">Mo</text><text fill="#FFFFFF" font-family="Serif" font-size="10.4167" lengthAdjust="spacing" textLength="14.5833" x="378.125" y="479.2002">Tu</text><text fill="#FFFFFF" font-family="Serif" font-size="10.4167" lengthAdjust="spacing" textLength="17.7083" x="393.75" y="479.2002">We</text><text fill="#FFFFFF" font-family="Serif" font-size="12.5" font-weight="bold" lengthAdjust="spacing" textLength="110.4167" x="105.2083" y="506.2683">December 2020</text><text fill="#FFFFFF" font-family="Serif" font-size="12.5" font-weight="bold" lengthAdjust="spacing" textLength="92.7083" x="314.0625" y="506.2683">January 2021</text></g></svg>