<?xml version="1.0" encoding="UTF-8" standalone="no"?><svg xmlns="http://www.w3.org/2000/svg" xmlns:xlink="http://www.w3.org/1999/xlink" contentStyleType="text/css" height="471.875px" preserveAspectRatio="none" style="width:372px;height:471px;" version="1.1" viewBox="0 0 372 471" width="372.9167px" zoomAndPan="magnify"><defs/><g><polygon fill="#555555" points="10.4167,10.4167,10.4167,10.6356,20.7108,9.9851,31.0049,10.618,41.299,10.833,51.5931,9.6735,61.8873,10.3357,72.1814,9.9724,82.4755,10.0172,92.7696,10.3457,103.0637,9.6965,113.3578,10.9934,123.652,9.7601,133.9461,10.2107,144.2402,10.8666,154.5343,10.3273,164.8284,10.4877,175.1225,10.3834,185.4167,10.6026,195.7108,10.6658,206.0049,11.0268,216.299,11.1157,226.5931,11.1242,236.8873,10.6819,247.1814,10.8996,257.4755,11.1482,267.7696,9.6654,278.0637,11.1234,288.3578,10.1078,298.652,10.9727,308.9461,9.901,319.2402,10.3453,329.5343,11.1892,339.8284,10.3659,350.1225,10.5264,360.4167,10.4167,360.5342,10.4167,360.5612,13.75,360.4153,17.0833,360.5164,20.4167,360.2179,23.75,360.4167,27.0833,360.4167,27.3796,350.1225,27.6544,339.8284,27.5464,329.5343,27.7219,319.2402,26.5801,308.9461,26.404,298.652,26.436,288.3578,27.022,278.0637,26.8786,267.7696,27.7931,257.4755,26.9014,247.1814,26.726,236.8873,27.3211,226.5931,26.3887,216.299,26.5426,206.0049,27.7593,195.7108,27.5372,185.4167,27.8484,175.1225,26.7481,164.8284,27.4158,154.5343,27.6984,144.2402,26.5912,133.9461,26.9835,123.652,27.2146,113.3578,27.7622,103.0637,27.079,92.7696,27.5652,82.4755,26.5065,72.1814,26.3779,61.8873,27.6079,51.5931,26.3365,41.299,27.6135,31.0049,27.2986,20.7108,26.8043,10.4167,27.0833,10.2938,27.0833,10.576,23.75,10.3127,20.4167,10.6222,17.0833,10.2247,13.75,10.4167,10.4167" style="stroke:none;stroke-width:1.0416666666666667;"/><polygon fill="#555555" points="10.4167,443.4896,10.4167,443.7085,20.7108,443.058,31.0049,443.6909,41.299,443.9059,51.5931,442.7465,61.8873,443.4086,72.1814,443.0453,82.4755,443.0901,92.7696,443.4186,103.0637,442.7694,113.3578,444.0663,123.652,442.833,133.9461,443.2836,144.2402,443.9395,154.5343,443.4002,164.8284,443.5607,175.1225,443.4563,185.4167,443.6755,195.7108,443.7387,206.0049,444.0997,216.299,444.1886,226.5931,444.1971,236.8873,443.7548,247.1814,443.9725,257.4755,444.2211,267.7696,442.7383,278.0637,444.1964,288.3578,443.1807,298.652,444.0456,308.9461,442.9739,319.2402,443.4182,329.5343,444.2621,339.8284,443.4388,350.1225,443.5993,360.4167,443.4896,360.5342,443.4896,360.5612,446.8229,360.4153,450.1563,360.5164,453.4896,360.2179,456.8229,360.4167,460.1563,360.4167,460.4525,350.1225,460.7273,339.8284,460.6193,329.5343,460.7948,319.2402,459.653,308.9461,459.4769,298.652,459.509,288.3578,460.0949,278.0637,459.9515,267.7696,460.8661,257.4755,459.9743,247.1814,459.7989,236.8873,460.394,226.5931,459.4616,216.299,459.6155,206.0049,460.8322,195.7108,460.6101,185.4167,460.9213,175.1225,459.821,164.8284,460.4887,154.5343,460.7713,144.2402,459.6642,133.9461,460.0564,123.652,460.2875,113.3578,460.8352,103.0637,460.1519,92.7696,460.6381,82.4755,459.5794,72.1814,459.4508,61.8873,460.6808,51.5931,459.4094,41.299,460.6864,31.0049,460.3715,20.7108,459.8772,10.4167,460.1563,10.2938,460.1563,10.576,456.8229,10.3127,453.4896,10.6222,450.1563,10.2247,446.8229,10.4167,443.4896" style="stroke:none;stroke-width:1.0416666666666667;"/><path d="M10.4167,10.4167 L10.7086,10.4167 L9.8412,20.7775 L10.6851,31.1384 L10.9718,41.4993 L9.4258,51.8601 L10.3087,62.221 L9.8243,72.5818 L9.884,82.9427 L10.322,93.3036 L9.4564,103.6644 L11.1856,114.0253 L9.5413,124.3862 L10.142,134.747 L11.0166,145.1079 L10.2975,155.4688 L10.5114,165.8296 L10.3723,176.1905 L10.6646,186.5513 L10.7488,196.9122 L11.2301,207.2731 L11.3487,217.6339 L11.3601,227.9948 L10.7703,238.3557 L11.0605,248.7165 L11.392,259.0774 L9.415,269.4382 L11.359,279.7991 L10.0049,290.16 L11.1581,300.5208 L9.7291,310.8817 L10.3215,321.2426 L11.4467,331.6034 L10.349,341.9643 L10.5629,352.3251 L10.887,362.686 L10.9948,373.0469 L10.4112,383.4077 L10.8156,393.7686 L9.6216,404.1295 L10.8116,414.4903 L11.178,424.8512 L11.0341,435.2121 L10.4167,445.5729 " fill="none" style="stroke:#2E2E2E;stroke-width:1.0416666666666667;"/><path d="M27.0833,10.4167 L27.3753,10.4167 L26.5079,20.7775 L27.3518,31.1384 L27.6384,41.4993 L26.0925,51.8601 L26.9754,62.221 L26.491,72.5818 L26.5507,82.9427 L26.9887,93.3036 L26.1231,103.6644 L27.8523,114.0253 L26.2079,124.3862 L26.8087,134.747 L27.6833,145.1079 L26.9642,155.4688 L27.1781,165.8296 L27.039,176.1905 L27.3313,186.5513 L27.4155,196.9122 L27.8968,207.2731 L28.0154,217.6339 L28.0267,227.9948 L27.437,238.3557 L27.7272,248.7165 L28.0587,259.0774 L26.0817,269.4382 L28.0257,279.7991 L26.6715,290.16 L27.8247,300.5208 L26.3958,310.8817 L26.9882,321.2426 L28.1133,331.6034 L27.0156,341.9643 L27.2296,352.3251 L27.5536,362.686 L27.6614,373.0469 L27.0779,383.4077 L27.4822,393.7686 L26.2883,404.1295 L27.4783,414.4903 L27.8447,424.8512 L27.7007,435.2121 L27.0833,445.5729 " fill="none" style="stroke:#2E2E2E;stroke-width:1.0416666666666667;"/><path d="M43.75,10.4167 L44.0419,10.4167 L43.1746,20.7775 L44.0185,31.1384 L44.3051,41.4993 L42.7592,51.8601 L43.6421,62.221 L43.1576,72.5818 L43.2174,82.9427 L43.6553,93.3036 L42.7898,103.6644 L44.5189,114.0253 L42.8746,124.3862 L43.4753,134.747 L44.3499,145.1079 L43.6309,155.4688 L43.8448,165.8296 L43.7056,176.1905 L43.998,186.5513 L44.0821,196.9122 L44.5635,207.2731 L44.682,217.6339 L44.6934,227.9948 L44.1036,238.3557 L44.3939,248.7165 L44.7253,259.0774 L42.7484,269.4382 L44.6924,279.7991 L43.3382,290.16 L44.4914,300.5208 L43.0625,310.8817 L43.6549,321.2426 L44.78,331.6034 L43.6823,341.9643 L43.8963,352.3251 L44.2203,362.686 L44.3281,373.0469 L43.7446,383.4077 L44.1489,393.7686 L42.955,404.1295 L44.145,414.4903 L44.5114,424.8512 L44.3674,435.2121 L43.75,445.5729 " fill="none" style="stroke:#2E2E2E;stroke-width:1.0416666666666667;"/><path d="M60.4167,10.4167 L60.7086,10.4167 L59.8412,20.7775 L60.6851,31.1384 L60.9718,41.4993 L59.4258,51.8601 L60.3087,62.221 L59.8243,72.5818 L59.884,82.9427 L60.322,93.3036 L59.4564,103.6644 L61.1856,114.0253 L59.5413,124.3862 L60.142,134.747 L61.0166,145.1079 L60.2975,155.4688 L60.5114,165.8296 L60.3723,176.1905 L60.6646,186.5513 L60.7488,196.9122 L61.2301,207.2731 L61.3487,217.6339 L61.3601,227.9948 L60.7703,238.3557 L61.0605,248.7165 L61.392,259.0774 L59.415,269.4382 L61.359,279.7991 L60.0049,290.16 L61.1581,300.5208 L59.7291,310.8817 L60.3215,321.2426 L61.4467,331.6034 L60.349,341.9643 L60.5629,352.3251 L60.887,362.686 L60.9948,373.0469 L60.4112,383.4077 L60.8156,393.7686 L59.6216,404.1295 L60.8116,414.4903 L61.178,424.8512 L61.0341,435.2121 L60.4167,445.5729 " fill="none" style="stroke:#2E2E2E;stroke-width:1.0416666666666667;"/><path d="M77.0833,10.4167 L77.3753,10.4167 L76.5079,20.7775 L77.3518,31.1384 L77.6384,41.4993 L76.0925,51.8601 L76.9754,62.221 L76.491,72.5818 L76.5507,82.9427 L76.9887,93.3036 L76.1231,103.6644 L77.8523,114.0253 L76.2079,124.3862 L76.8087,134.747 L77.6833,145.1079 L76.9642,155.4688 L77.1781,165.8296 L77.039,176.1905 L77.3313,186.5513 L77.4155,196.9122 L77.8968,207.2731 L78.0154,217.6339 L78.0267,227.9948 L77.437,238.3557 L77.7272,248.7165 L78.0587,259.0774 L76.0817,269.4382 L78.0257,279.7991 L76.6715,290.16 L77.8247,300.5208 L76.3958,310.8817 L76.9882,321.2426 L78.1133,331.6034 L77.0156,341.9643 L77.2296,352.3251 L77.5536,362.686 L77.6614,373.0469 L77.0779,383.4077 L77.4822,393.7686 L76.2883,404.1295 L77.4783,414.4903 L77.8447,424.8512 L77.7007,435.2121 L77.0833,445.5729 " fill="none" style="stroke:#2E2E2E;stroke-width:1.0416666666666667;"/><path d="M93.75,10.4167 L94.0419,10.4167 L93.1746,20.7775 L94.0185,31.1384 L94.3051,41.4993 L92.7592,51.8601 L93.6421,62.221 L93.1576,72.5818 L93.2174,82.9427 L93.6553,93.3036 L92.7898,103.6644 L94.5189,114.0253 L92.8746,124.3862 L93.4753,134.747 L94.3499,145.1079 L93.6309,155.4688 L93.8448,165.8296 L93.7056,176.1905 L93.998,186.5513 L94.0821,196.9122 L94.5635,207.2731 L94.682,217.6339 L94.6934,227.9948 L94.1036,238.3557 L94.3939,248.7165 L94.7253,259.0774 L92.7484,269.4382 L94.6924,279.7991 L93.3382,290.16 L94.4914,300.5208 L93.0625,310.8817 L93.6549,321.2426 L94.78,331.6034 L93.6823,341.9643 L93.8963,352.3251 L94.2203,362.686 L94.3281,373.0469 L93.7446,383.4077 L94.1489,393.7686 L92.955,404.1295 L94.145,414.4903 L94.5114,424.8512 L94.3674,435.2121 L93.75,445.5729 " fill="none" style="stroke:#2E2E2E;stroke-width:1.0416666666666667;"/><path d="M110.4167,10.4167 L110.7086,10.4167 L109.8412,20.7775 L110.6851,31.1384 L110.9718,41.4993 L109.4258,51.8601 L110.3087,62.221 L109.8243,72.5818 L109.884,82.9427 L110.322,93.3036 L109.4564,103.6644 L111.1856,114.0253 L109.5413,124.3862 L110.142,134.747 L111.0166,145.1079 L110.2975,155.4688 L110.5114,165.8296 L110.3723,176.1905 L110.6646,186.5513 L110.7488,196.9122 L111.2301,207.2731 L111.3487,217.6339 L111.3601,227.9948 L110.7703,238.3557 L111.0605,248.7165 L111.392,259.0774 L109.415,269.4382 L111.359,279.7991 L110.0049,290.16 L111.1581,300.5208 L109.7291,310.8817 L110.3215,321.2426 L111.4467,331.6034 L110.349,341.9643 L110.5629,352.3251 L110.887,362.686 L110.9948,373.0469 L110.4112,383.4077 L110.8156,393.7686 L109.6216,404.1295 L110.8116,414.4903 L111.178,424.8512 L111.0341,435.2121 L110.4167,445.5729 " fill="none" style="stroke:#2E2E2E;stroke-width:1.0416666666666667;"/><path d="M127.0833,10.4167 L127.3753,10.4167 L126.5079,20.7775 L127.3518,31.1384 L127.6384,41.4993 L126.0925,51.8601 L126.9754,62.221 L126.491,72.5818 L126.5507,82.9427 L126.9887,93.3036 L126.1231,103.6644 L127.8523,114.0253 L126.2079,124.3862 L126.8087,134.747 L127.6833,145.1079 L126.9642,155.4688 L127.1781,165.8296 L127.039,176.1905 L127.3313,186.5513 L127.4155,196.9122 L127.8968,207.2731 L128.0154,217.6339 L128.0267,227.9948 L127.437,238.3557 L127.7272,248.7165 L128.0587,259.0774 L126.0817,269.4382 L128.0257,279.7991 L126.6715,290.16 L127.8247,300.5208 L126.3958,310.8817 L126.9882,321.2426 L128.1133,331.6034 L127.0156,341.9643 L127.2296,352.3251 L127.5536,362.686 L127.6614,373.0469 L127.0779,383.4077 L127.4822,393.7686 L126.2883,404.1295 L127.4783,414.4903 L127.8447,424.8512 L127.7007,435.2121 L127.0833,445.5729 " fill="none" style="stroke:#2E2E2E;stroke-width:1.0416666666666667;"/><path d="M143.75,10.4167 L144.0419,10.4167 L143.1746,20.7775 L144.0185,31.1384 L144.3051,41.4993 L142.7592,51.8601 L143.6421,62.221 L143.1576,72.5818 L143.2174,82.9427 L143.6553,93.3036 L142.7898,103.6644 L144.5189,114.0253 L142.8746,124.3862 L143.4753,134.747 L144.3499,145.1079 L143.6309,155.4688 L143.8448,165.8296 L143.7056,176.1905 L143.998,186.5513 L144.0821,196.9122 L144.5635,207.2731 L144.682,217.6339 L144.6934,227.9948 L144.1036,238.3557 L144.3939,248.7165 L144.7253,259.0774 L142.7484,269.4382 L144.6924,279.7991 L143.3382,290.16 L144.4914,300.5208 L143.0625,310.8817 L143.6549,321.2426 L144.78,331.6034 L143.6823,341.9643 L143.8963,352.3251 L144.2203,362.686 L144.3281,373.0469 L143.7446,383.4077 L144.1489,393.7686 L142.955,404.1295 L144.145,414.4903 L144.5114,424.8512 L144.3674,435.2121 L143.75,445.5729 " fill="none" style="stroke:#2E2E2E;stroke-width:1.0416666666666667;"/><path d="M160.4167,10.4167 L160.7086,10.4167 L159.8412,20.7775 L160.6851,31.1384 L160.9718,41.4993 L159.4258,51.8601 L160.3087,62.221 L159.8243,72.5818 L159.884,82.9427 L160.322,93.3036 L159.4564,103.6644 L161.1856,114.0253 L159.5413,124.3862 L160.142,134.747 L161.0166,145.1079 L160.2975,155.4688 L160.5114,165.8296 L160.3723,176.1905 L160.6646,186.5513 L160.7488,196.9122 L161.2301,207.2731 L161.3487,217.6339 L161.3601,227.9948 L160.7703,238.3557 L161.0605,248.7165 L161.392,259.0774 L159.415,269.4382 L161.359,279.7991 L160.0049,290.16 L161.1581,300.5208 L159.7291,310.8817 L160.3215,321.2426 L161.4467,331.6034 L160.349,341.9643 L160.5629,352.3251 L160.887,362.686 L160.9948,373.0469 L160.4112,383.4077 L160.8156,393.7686 L159.6216,404.1295 L160.8116,414.4903 L161.178,424.8512 L161.0341,435.2121 L160.4167,445.5729 " fill="none" style="stroke:#2E2E2E;stroke-width:1.0416666666666667;"/><path d="M177.0833,10.4167 L177.3753,10.4167 L176.5079,20.7775 L177.3518,31.1384 L177.6384,41.4993 L176.0925,51.8601 L176.9754,62.221 L176.491,72.5818 L176.5507,82.9427 L176.9887,93.3036 L176.1231,103.6644 L177.8523,114.0253 L176.2079,124.3862 L176.8087,134.747 L177.6833,145.1079 L176.9642,155.4688 L177.1781,165.8296 L177.039,176.1905 L177.3313,186.5513 L177.4155,196.9122 L177.8968,207.2731 L178.0154,217.6339 L178.0267,227.9948 L177.437,238.3557 L177.7272,248.7165 L178.0587,259.0774 L176.0817,269.4382 L178.0257,279.7991 L176.6715,290.16 L177.8247,300.5208 L176.3958,310.8817 L176.9882,321.2426 L178.1133,331.6034 L177.0156,341.9643 L177.2296,352.3251 L177.5536,362.686 L177.6614,373.0469 L177.0779,383.4077 L177.4822,393.7686 L176.2883,404.1295 L177.4783,414.4903 L177.8447,424.8512 L177.7007,435.2121 L177.0833,445.5729 " fill="none" style="stroke:#2E2E2E;stroke-width:1.0416666666666667;"/><path d="M193.75,10.4167 L194.0419,10.4167 L193.1746,20.7775 L194.0185,31.1384 L194.3051,41.4993 L192.7592,51.8601 L193.6421,62.221 L193.1576,72.5818 L193.2174,82.9427 L193.6553,93.3036 L192.7898,103.6644 L194.5189,114.0253 L192.8746,124.3862 L193.4753,134.747 L194.3499,145.1079 L193.6309,155.4688 L193.8448,165.8296 L193.7056,176.1905 L193.998,186.5513 L194.0821,196.9122 L194.5635,207.2731 L194.682,217.6339 L194.6934,227.9948 L194.1036,238.3557 L194.3939,248.7165 L194.7253,259.0774 L192.7484,269.4382 L194.6924,279.7991 L193.3382,290.16 L194.4914,300.5208 L193.0625,310.8817 L193.6549,321.2426 L194.78,331.6034 L193.6823,341.9643 L193.8963,352.3251 L194.2203,362.686 L194.3281,373.0469 L193.7446,383.4077 L194.1489,393.7686 L192.955,404.1295 L194.145,414.4903 L194.5114,424.8512 L194.3674,435.2121 L193.75,445.5729 " fill="none" style="stroke:#2E2E2E;stroke-width:1.0416666666666667;"/><path d="M210.4167,10.4167 L210.7086,10.4167 L209.8412,20.7775 L210.6851,31.1384 L210.9718,41.4993 L209.4258,51.8601 L210.3087,62.221 L209.8243,72.5818 L209.884,82.9427 L210.322,93.3036 L209.4564,103.6644 L211.1856,114.0253 L209.5413,124.3862 L210.142,134.747 L211.0166,145.1079 L210.2975,155.4688 L210.5114,165.8296 L210.3723,176.1905 L210.6646,186.5513 L210.7488,196.9122 L211.2301,207.2731 L211.3487,217.6339 L211.3601,227.9948 L210.7703,238.3557 L211.0605,248.7165 L211.392,259.0774 L209.415,269.4382 L211.359,279.7991 L210.0049,290.16 L211.1581,300.5208 L209.7291,310.8817 L210.3215,321.2426 L211.4467,331.6034 L210.349,341.9643 L210.5629,352.3251 L210.887,362.686 L210.9948,373.0469 L210.4112,383.4077 L210.8156,393.7686 L209.6216,404.1295 L210.8116,414.4903 L211.178,424.8512 L211.0341,435.2121 L210.4167,445.5729 " fill="none" style="stroke:#2E2E2E;stroke-width:1.0416666666666667;"/><path d="M227.0833,10.4167 L227.3753,10.4167 L226.5079,20.7775 L227.3518,31.1384 L227.6384,41.4993 L226.0925,51.8601 L226.9754,62.221 L226.491,72.5818 L226.5507,82.9427 L226.9887,93.3036 L226.1231,103.6644 L227.8523,114.0253 L226.2079,124.3862 L226.8087,134.747 L227.6833,145.1079 L226.9642,155.4688 L227.1781,165.8296 L227.039,176.1905 L227.3313,186.5513 L227.4155,196.9122 L227.8968,207.2731 L228.0154,217.6339 L228.0267,227.9948 L227.437,238.3557 L227.7272,248.7165 L228.0587,259.0774 L226.0817,269.4382 L228.0257,279.7991 L226.6715,290.16 L227.8247,300.5208 L226.3958,310.8817 L226.9882,321.2426 L228.1133,331.6034 L227.0156,341.9643 L227.2296,352.3251 L227.5536,362.686 L227.6614,373.0469 L227.0779,383.4077 L227.4822,393.7686 L226.2883,404.1295 L227.4783,414.4903 L227.8447,424.8512 L227.7007,435.2121 L227.0833,445.5729 " fill="none" style="stroke:#2E2E2E;stroke-width:1.0416666666666667;"/><path d="M243.75,10.4167 L244.0419,10.4167 L243.1746,20.7775 L244.0185,31.1384 L244.3051,41.4993 L242.7592,51.8601 L243.6421,62.221 L243.1576,72.5818 L243.2174,82.9427 L243.6553,93.3036 L242.7898,103.6644 L244.5189,114.0253 L242.8746,124.3862 L243.4753,134.747 L244.3499,145.1079 L243.6309,155.4688 L243.8448,165.8296 L243.7056,176.1905 L243.998,186.5513 L244.0821,196.9122 L244.5635,207.2731 L244.682,217.6339 L244.6934,227.9948 L244.1036,238.3557 L244.3939,248.7165 L244.7253,259.0774 L242.7484,269.4382 L244.6924,279.7991 L243.3382,290.16 L244.4914,300.5208 L243.0625,310.8817 L243.6549,321.2426 L244.78,331.6034 L243.6823,341.9643 L243.8963,352.3251 L244.2203,362.686 L244.3281,373.0469 L243.7446,383.4077 L244.1489,393.7686 L242.955,404.1295 L244.145,414.4903 L244.5114,424.8512 L244.3674,435.2121 L243.75,445.5729 " fill="none" style="stroke:#2E2E2E;stroke-width:1.0416666666666667;"/><path d="M260.4167,10.4167 L260.7086,10.4167 L259.8412,20.7775 L260.6851,31.1384 L260.9718,41.4993 L259.4258,51.8601 L260.3087,62.221 L259.8243,72.5818 L259.884,82.9427 L260.322,93.3036 L259.4564,103.6644 L261.1856,114.0253 L259.5413,124.3862 L260.142,134.747 L261.0166,145.1079 L260.2975,155.4688 L260.5114,165.8296 L260.3723,176.1905 L260.6646,186.5513 L260.7488,196.9122 L261.2301,207.2731 L261.3487,217.6339 L261.3601,227.9948 L260.7703,238.3557 L261.0605,248.7165 L261.392,259.0774 L259.415,269.4382 L261.359,279.7991 L260.0049,290.16 L261.1581,300.5208 L259.7291,310.8817 L260.3215,321.2426 L261.4467,331.6034 L260.349,341.9643 L260.5629,352.3251 L260.887,362.686 L260.9948,373.0469 L260.4112,383.4077 L260.8156,393.7686 L259.6216,404.1295 L260.8116,414.4903 L261.178,424.8512 L261.0341,435.2121 L260.4167,445.5729 " fill="none" style="stroke:#2E2E2E;stroke-width:1.0416666666666667;"/><path d="M277.0833,10.4167 L277.3753,10.4167 L276.5079,20.7775 L277.3518,31.1384 L277.6384,41.4993 L276.0925,51.8601 L276.9754,62.221 L276.491,72.5818 L276.5507,82.9427 L276.9887,93.3036 L276.1231,103.6644 L277.8523,114.0253 L276.2079,124.3862 L276.8087,134.747 L277.6833,145.1079 L276.9642,155.4688 L277.1781,165.8296 L277.039,176.1905 L277.3313,186.5513 L277.4155,196.9122 L277.8968,207.2731 L278.0154,217.6339 L278.0267,227.9948 L277.437,238.3557 L277.7272,248.7165 L278.0587,259.0774 L276.0817,269.4382 L278.0257,279.7991 L276.6715,290.16 L277.8247,300.5208 L276.3958,310.8817 L276.9882,321.2426 L278.1133,331.6034 L277.0156,341.9643 L277.2296,352.3251 L277.5536,362.686 L277.6614,373.0469 L277.0779,383.4077 L277.4822,393.7686 L276.2883,404.1295 L277.4783,414.4903 L277.8447,424.8512 L277.7007,435.2121 L277.0833,445.5729 " fill="none" style="stroke:#2E2E2E;stroke-width:1.0416666666666667;"/><path d="M293.75,10.4167 L294.0419,10.4167 L293.1746,20.7775 L294.0185,31.1384 L294.3051,41.4993 L292.7592,51.8601 L293.6421,62.221 L293.1576,72.5818 L293.2174,82.9427 L293.6553,93.3036 L292.7898,103.6644 L294.5189,114.0253 L292.8746,124.3862 L293.4753,134.747 L294.3499,145.1079 L293.6309,155.4688 L293.8448,165.8296 L293.7056,176.1905 L293.998,186.5513 L294.0821,196.9122 L294.5635,207.2731 L294.682,217.6339 L294.6934,227.9948 L294.1036,238.3557 L294.3939,248.7165 L294.7253,259.0774 L292.7484,269.4382 L294.6924,279.7991 L293.3382,290.16 L294.4914,300.5208 L293.0625,310.8817 L293.6549,321.2426 L294.78,331.6034 L293.6823,341.9643 L293.8963,352.3251 L294.2203,362.686 L294.3281,373.0469 L293.7446,383.4077 L294.1489,393.7686 L292.955,404.1295 L294.145,414.4903 L294.5114,424.8512 L294.3674,435.2121 L293.75,445.5729 " fill="none" style="stroke:#2E2E2E;stroke-width:1.0416666666666667;"/><path d="M310.4167,10.4167 L310.7086,10.4167 L309.8412,20.7775 L310.6851,31.1384 L310.9718,41.4993 L309.4258,51.8601 L310.3087,62.221 L309.8243,72.5818 L309.884,82.9427 L310.322,93.3036 L309.4564,103.6644 L311.1856,114.0253 L309.5413,124.3862 L310.142,134.747 L311.0166,145.1079 L310.2975,155.4688 L310.5114,165.8296 L310.3723,176.1905 L310.6646,186.5513 L310.7488,196.9122 L311.2301,207.2731 L311.3487,217.6339 L311.3601,227.9948 L310.7703,238.3557 L311.0605,248.7165 L311.392,259.0774 L309.415,269.4382 L311.359,279.7991 L310.0049,290.16 L311.1581,300.5208 L309.7291,310.8817 L310.3215,321.2426 L311.4467,331.6034 L310.349,341.9643 L310.5629,352.3251 L310.887,362.686 L310.9948,373.0469 L310.4112,383.4077 L310.8156,393.7686 L309.6216,404.1295 L310.8116,414.4903 L311.178,424.8512 L311.0341,435.2121 L310.4167,445.5729 " fill="none" style="stroke:#2E2E2E;stroke-width:1.0416666666666667;"/><path d="M327.0833,10.4167 L327.3753,10.4167 L326.5079,20.7775 L327.3518,31.1384 L327.6384,41.4993 L326.0925,51.8601 L326.9754,62.221 L326.491,72.5818 L326.5507,82.9427 L326.9887,93.3036 L326.1231,103.6644 L327.8523,114.0253 L326.2079,124.3862 L326.8087,134.747 L327.6833,145.1079 L326.9642,155.4688 L327.1781,165.8296 L327.039,176.1905 L327.3313,186.5513 L327.4155,196.9122 L327.8968,207.2731 L328.0154,217.6339 L328.0267,227.9948 L327.437,238.3557 L327.7272,248.7165 L328.0587,259.0774 L326.0817,269.4382 L328.0257,279.7991 L326.6715,290.16 L327.8247,300.5208 L326.3958,310.8817 L326.9882,321.2426 L328.1133,331.6034 L327.0156,341.9643 L327.2296,352.3251 L327.5536,362.686 L327.6614,373.0469 L327.0779,383.4077 L327.4822,393.7686 L326.2883,404.1295 L327.4783,414.4903 L327.8447,424.8512 L327.7007,435.2121 L327.0833,445.5729 " fill="none" style="stroke:#2E2E2E;stroke-width:1.0416666666666667;"/><path d="M343.75,10.4167 L344.0419,10.4167 L343.1746,20.7775 L344.0185,31.1384 L344.3051,41.4993 L342.7592,51.8601 L343.6421,62.221 L343.1576,72.5818 L343.2174,82.9427 L343.6553,93.3036 L342.7898,103.6644 L344.5189,114.0253 L342.8746,124.3862 L343.4753,134.747 L344.3499,145.1079 L343.6309,155.4688 L343.8448,165.8296 L343.7056,176.1905 L343.998,186.5513 L344.0821,196.9122 L344.5635,207.2731 L344.682,217.6339 L344.6934,227.9948 L344.1036,238.3557 L344.3939,248.7165 L344.7253,259.0774 L342.7484,269.4382 L344.6924,279.7991 L343.3382,290.16 L344.4914,300.5208 L343.0625,310.8817 L343.6549,321.2426 L344.78,331.6034 L343.6823,341.9643 L343.8963,352.3251 L344.2203,362.686 L344.3281,373.0469 L343.7446,383.4077 L344.1489,393.7686 L342.955,404.1295 L344.145,414.4903 L344.5114,424.8512 L344.3674,435.2121 L343.75,445.5729 " fill="none" style="stroke:#2E2E2E;stroke-width:1.0416666666666667;"/><path d="M360.4167,10.4167 L360.7086,10.4167 L359.8412,20.7775 L360.6851,31.1384 L360.9718,41.4993 L359.4258,51.8601 L360.3087,62.221 L359.8243,72.5818 L359.884,82.9427 L360.322,93.3036 L359.4564,103.6644 L361.1856,114.0253 L359.5413,124.3862 L360.142,134.747 L361.0166,145.1079 L360.2975,155.4688 L360.5114,165.8296 L360.3723,176.1905 L360.6646,186.5513 L360.7488,196.9122 L361.2301,207.2731 L361.3487,217.6339 L361.3601,227.9948 L360.7703,238.3557 L361.0605,248.7165 L361.392,259.0774 L359.415,269.4382 L361.359,279.7991 L360.0049,290.16 L361.1581,300.5208 L359.7291,310.8817 L360.3215,321.2426 L361.4467,331.6034 L360.349,341.9643 L360.5629,352.3251 L360.887,362.686 L360.9948,373.0469 L360.4112,383.4077 L360.8156,393.7686 L359.6216,404.1295 L360.8116,414.4903 L361.178,424.8512 L361.0341,435.2121 L360.4167,445.5729 " fill="none" style="stroke:#2E2E2E;stroke-width:1.0416666666666667;"/><text fill="#FFFFFF" font-family="Serif" font-size="10.4167" lengthAdjust="spacing" textLength="6.25" x="15.625" y="20.0857">1</text><text fill="#FFFFFF" font-family="Serif" font-size="10.4167" lengthAdjust="spacing" textLength="6.25" x="32.2917" y="20.0857">2</text><text fill="#FFFFFF" font-family="Serif" font-size="10.4167" lengthAdjust="spacing" textLength="6.25" x="48.9583" y="20.0857">3</text><text fill="#FFFFFF" font-family="Serif" font-size="10.4167" lengthAdjust="spacing" textLength="6.25" x="65.625" y="20.0857">4</text><text fill="#FFFFFF" font-family="Serif" font-size="10.4167" lengthAdjust="spacing" textLength="6.25" x="82.2917" y="20.0857">5</text><text fill="#FFFFFF" font-family="Serif" font-size="10.4167" lengthAdjust="spacing" textLength="6.25" x="98.9583" y="20.0857">6</text><text fill="#FFFFFF" font-family="Serif" font-size="10.4167" lengthAdjust="spacing" textLength="6.25" x="115.625" y="20.0857">7</text><text fill="#FFFFFF" font-family="Serif" font-size="10.4167" lengthAdjust="spacing" textLength="6.25" x="132.2917" y="20.0857">8</text><text fill="#FFFFFF" font-family="Serif" font-size="10.4167" lengthAdjust="spacing" textLength="6.25" x="148.9583" y="20.0857">9</text><text fill="#FFFFFF" font-family="Serif" font-size="10.4167" lengthAdjust="spacing" textLength="12.5" x="162.5" y="20.0857">10</text><text fill="#FFFFFF" font-family="Serif" font-size="10.4167" lengthAdjust="spacing" textLength="12.5" x="179.1667" y="20.0857">11</text><text fill="#FFFFFF" font-family="Serif" font-size="10.4167" lengthAdjust="spacing" textLength="12.5" x="195.8333" y="20.0857">12</text><text fill="#FFFFFF" font-family="Serif" font-size="10.4167" lengthAdjust="spacing" textLength="12.5" x="212.5" y="20.0857">13</text><text fill="#FFFFFF" font-family="Serif" font-size="10.4167" lengthAdjust="spacing" textLength="12.5" x="229.1667" y="20.0857">14</text><text fill="#FFFFFF" font-family="Serif" font-size="10.4167" lengthAdjust="spacing" textLength="12.5" x="245.8333" y="20.0857">15</text><text fill="#FFFFFF" font-family="Serif" font-size="10.4167" lengthAdjust="spacing" textLength="12.5" x="262.5" y="20.0857">16</text><text fill="#FFFFFF" font-family="Serif" font-size="10.4167" lengthAdjust="spacing" textLength="12.5" x="279.1667" y="20.0857">17</text><text fill="#FFFFFF" font-family="Serif" font-size="10.4167" lengthAdjust="spacing" textLength="12.5" x="295.8333" y="20.0857">18</text><text fill="#FFFFFF" font-family="Serif" font-size="10.4167" lengthAdjust="spacing" textLength="12.5" x="312.5" y="20.0857">19</text><text fill="#FFFFFF" font-family="Serif" font-size="10.4167" lengthAdjust="spacing" textLength="12.5" x="329.1667" y="20.0857">20</text><text fill="#FFFFFF" font-family="Serif" font-size="10.4167" lengthAdjust="spacing" textLength="12.5" x="345.8333" y="20.0857">21</text><path d="M10.4167,10.4167 L10.4167,10.7086 L20.7108,9.8412 L31.0049,10.6851 L41.299,10.9718 L51.5931,9.4258 L61.8873,10.3087 L72.1814,9.8243 L82.4755,9.884 L92.7696,10.322 L103.0637,9.4564 L113.3578,11.1856 L123.652,9.5413 L133.9461,10.142 L144.2402,11.0166 L154.5343,10.2975 L164.8284,10.5114 L175.1225,10.3723 L185.4167,10.6646 L195.7108,10.7488 L206.0049,11.2301 L216.299,11.3487 L226.5931,11.3601 L236.8873,10.7703 L247.1814,11.0605 L257.4755,11.392 L267.7696,9.415 L278.0637,11.359 L288.3578,10.0049 L298.652,11.1581 L308.9461,9.7291 L319.2402,10.3215 L329.5343,11.4467 L339.8284,10.349 L350.1225,10.5629 L360.4167,10.4167 " fill="none" style="stroke:#2E2E2E;stroke-width:1.0416666666666667;"/><path d="M10.4167,23.9583 L10.4167,24.2503 L20.7108,23.3829 L31.0049,24.2268 L41.299,24.5134 L51.5931,22.9675 L61.8873,23.8504 L72.1814,23.366 L82.4755,23.4257 L92.7696,23.8637 L103.0637,22.9981 L113.3578,24.7273 L123.652,23.0829 L133.9461,23.6837 L144.2402,24.5583 L154.5343,23.8392 L164.8284,24.0531 L175.1225,23.914 L185.4167,24.2063 L195.7108,24.2905 L206.0049,24.7718 L216.299,24.8904 L226.5931,24.9017 L236.8873,24.312 L247.1814,24.6022 L257.4755,24.9337 L267.7696,22.9567 L278.0637,24.9007 L288.3578,23.5465 L298.652,24.6997 L308.9461,23.2708 L319.2402,23.8632 L329.5343,24.9883 L339.8284,23.8906 L350.1225,24.1046 L360.4167,23.9583 " fill="none" style="stroke:#2E2E2E;stroke-width:1.0416666666666667;"/><path d="M167.7083,64.5508 L167.8056,64.5508 L167.5165,71.4225 L167.7978,78.2943 L167.8934,85.166 L167.3781,92.0378 L167.7083,98.9095 " fill="none" style="stroke:#333333;stroke-width:3.125;"/><path d="M167.7083,98.9095 L167.7083,99.0068 L169.375,98.7177 L171.0417,98.999 L172.7083,99.0945 L174.375,98.5792 L176.0417,98.9095 " fill="none" style="stroke:#333333;stroke-width:3.125;"/><polygon fill="#333333" points="171.875,94.7428,171.948,94.7428,171.7311,95.5762,171.9421,96.4095,172.0138,97.2428,171.6273,98.0762,171.875,98.9095,171.848,98.9095,171.7269,99.7428,171.7418,100.5762,171.8513,101.4095,171.6349,102.2428,171.875,103.0762,172.0109,103.2121,172.5536,102.0881,173.4931,101.3609,174.4811,100.6822,175.1873,99.7218,176.0417,98.9095,176.0584,98.9263,175.2005,98.0683,174.4188,97.2867,173.6004,96.4682,172.8521,95.72,171.875,94.7428" style="stroke:#333333;stroke-width:1.5625;"/><path d="M234.375,112.4349 L234.4723,112.4349 L234.1832,119.3066 L234.4645,126.1784 L234.56,133.0501 L234.0447,139.9219 L234.375,146.7936 " fill="none" style="stroke:#333333;stroke-width:3.125;"/><path d="M234.375,146.7936 L234.375,146.8909 L236.0417,146.6018 L237.7083,146.8831 L239.375,146.9787 L241.0417,146.4633 L242.7083,146.7936 " fill="none" style="stroke:#333333;stroke-width:3.125;"/><polygon fill="#333333" points="238.5417,142.627,238.6146,142.627,238.3978,143.4603,238.6088,144.2936,238.6804,145.127,238.294,145.9603,238.5417,146.7936,238.5147,146.7936,238.3936,147.627,238.4085,148.4603,238.518,149.2936,238.3016,150.127,238.5417,150.9603,238.6776,151.0962,239.2203,149.9722,240.1598,149.2451,241.1477,148.5663,241.8539,147.6059,242.7083,146.7936,242.7251,146.8104,241.8672,145.9524,241.0855,145.1708,240.267,144.3523,239.5188,143.6041,238.5417,142.627" style="stroke:#333333;stroke-width:1.5625;"/><path d="M234.375,112.4349 L234.6669,112.4349 L233.7996,122.7153 L234.6435,132.9956 L234.9301,143.276 L233.3842,153.5563 L234.2671,163.8367 L233.7826,174.117 L233.8424,184.3974 L234.375,194.6777 " fill="none" style="stroke:#333333;stroke-width:3.125;"/><path d="M234.375,194.6777 L234.375,194.775 L236.0417,194.4859 L237.7083,194.7672 L239.375,194.8628 L241.0417,194.3475 L242.7083,194.6777 " fill="none" style="stroke:#333333;stroke-width:3.125;"/><polygon fill="#333333" points="238.5417,190.5111,238.6146,190.5111,238.3978,191.3444,238.6088,192.1777,238.6804,193.0111,238.294,193.8444,238.5417,194.6777,238.5147,194.6777,238.3936,195.5111,238.4085,196.3444,238.518,197.1777,238.3016,198.0111,238.5417,198.8444,238.6776,198.9803,239.2203,197.8563,240.1598,197.1292,241.1477,196.4505,241.8539,195.49,242.7083,194.6777,242.7251,194.6945,241.8672,193.8366,241.0855,193.0549,240.267,192.2364,239.5188,191.4882,238.5417,190.5111" style="stroke:#333333;stroke-width:1.5625;"/><path d="M234.375,112.4349 L234.6669,112.4349 L233.7996,123.2788 L234.6435,134.1227 L234.9301,144.9666 L233.3842,155.8105 L234.2671,166.6545 L233.7826,177.4984 L233.8424,188.3423 L234.2803,199.1862 L233.4148,210.0301 L235.1439,220.874 L233.4996,231.7179 L234.375,242.5618 " fill="none" style="stroke:#333333;stroke-width:3.125;"/><path d="M234.375,242.5618 L234.375,242.6592 L236.0417,242.37 L237.7083,242.6513 L239.375,242.7469 L241.0417,242.2316 L242.7083,242.5618 " fill="none" style="stroke:#333333;stroke-width:3.125;"/><polygon fill="#333333" points="238.5417,238.3952,238.6146,238.3952,238.3978,239.2285,238.6088,240.0618,238.6804,240.8952,238.294,241.7285,238.5417,242.5618,238.5147,242.5618,238.3936,243.3952,238.4085,244.2285,238.518,245.0618,238.3016,245.8952,238.5417,246.7285,238.6776,246.8644,239.2203,245.7404,240.1598,245.0133,241.1477,244.3346,241.8539,243.3741,242.7083,242.5618,242.7251,242.5786,241.8672,241.7207,241.0855,240.939,240.267,240.1206,239.5188,239.3723,238.5417,238.3952" style="stroke:#333333;stroke-width:1.5625;"/><path d="M234.375,112.4349 L234.6669,112.4349 L233.7996,122.9061 L234.6435,133.3774 L234.9301,143.8486 L233.3842,154.3199 L234.2671,164.7911 L233.7826,175.2623 L233.8424,185.7336 L234.2803,196.2048 L233.4148,206.676 L235.1439,217.1473 L233.4996,227.6185 L234.1003,238.0898 L234.9749,248.561 L234.2559,259.0322 L234.4698,269.5035 L234.3306,279.9747 L234.375,290.446 " fill="none" style="stroke:#333333;stroke-width:3.125;"/><path d="M234.375,290.446 L234.375,290.5433 L236.0417,290.2541 L237.7083,290.5354 L239.375,290.631 L241.0417,290.1157 L242.7083,290.446 " fill="none" style="stroke:#333333;stroke-width:3.125;"/><polygon fill="#333333" points="238.5417,286.2793,238.6146,286.2793,238.3978,287.1126,238.6088,287.946,238.6804,288.7793,238.294,289.6126,238.5417,290.446,238.5147,290.446,238.3936,291.2793,238.4085,292.1126,238.518,292.946,238.3016,293.7793,238.5417,294.6126,238.6776,294.7486,239.2203,293.6245,240.1598,292.8974,241.1477,292.2187,241.8539,291.2582,242.7083,290.446,242.7251,290.4627,241.8672,289.6048,241.0855,288.8231,240.267,288.0047,239.5188,287.2564,238.5417,286.2793" style="stroke:#333333;stroke-width:1.5625;"/><path d="M10.4167,74.9674 L11.0005,74.9674 L9.2658,85.1074 L10.9536,95.2474 L11.5269,105.3874 L8.435,115.5273 L10.2008,125.6673 L9.232,135.8073 L9.3514,145.9473 L10.4167,156.0872 L10.4167,155.8979 L20.6101,154.1668 L30.8036,157.6251 L40.997,154.3365 L51.1905,155.5379 L61.3839,157.2871 L71.5774,155.849 L81.7708,156.2768 L91.9643,155.9985 L102.1577,156.5831 L112.3512,156.7515 L122.5446,157.7142 L132.7381,157.9513 L142.9315,157.9741 L153.125,156.0872 L153.8323,156.0872 L154.4127,145.9868 L155.0756,135.8863 L151.1217,125.7859 L155.0098,115.6855 L152.3014,105.585 L154.6078,95.4846 L153.125,85.3841 L152.8009,85.06 L150.9968,83.2559 L149.4439,81.703 L146.8431,79.1022 L144.8606,77.1197 L142.7083,74.9674 L142.7083,75.9081 L132.5321,76.1236 L122.3558,74.9566 L112.1795,75.7653 L102.0032,73.3774 L91.8269,75.7574 L81.6506,76.4902 L71.4744,76.2023 L61.2981,76.6703 L51.1218,73.6256 L40.9455,73.1558 L30.7692,73.2413 L20.5929,74.8039 L10.4167,74.9674 " fill="#17A2B8" style="stroke:#1592A6;stroke-width:1.0416666666666667;"/><path d="M142.7083,74.9674 L142.5264,74.9674 L143.3393,77.0508 L142.5466,79.1341 L142.3907,81.2174 L142.9197,83.3008 L142.7083,85.3841 L142.7083,84.7667 L144.7917,84.9034 L146.875,85.985 L148.9583,85.7875 L151.0417,86.0642 L153.125,85.3841 L152.9143,85.1734 L151.2507,83.5098 L149.3449,81.604 L146.5657,78.8248 L144.7289,76.988 L142.7083,74.9674 " fill="#17A2B8" style="stroke:#1592A6;stroke-width:1.0416666666666667;"/><text fill="#FFFFFF" font-family="Segoe Print" font-size="12.5" lengthAdjust="spacing" textLength="64.5833" x="22.9167" y="98.0286">memo1 ...</text><text fill="#FFFFFF" font-family="Segoe Print" font-size="12.5" lengthAdjust="spacing" textLength="64.5833" x="22.9167" y="112.5793">memo2 ...</text><text fill="#FFFFFF" font-family="Segoe Print" font-size="12.5" lengthAdjust="spacing" textLength="108.3333" x="22.9167" y="127.1301">explanations1 ...</text><text fill="#FFFFFF" font-family="Segoe Print" font-size="12.5" lengthAdjust="spacing" textLength="108.3333" x="22.9167" y="141.6809">explanations2 ...</text><polygon fill="none" points="25,37.5,25,37.7189,35.5769,37.0684,46.1538,37.7013,56.7308,37.9163,67.3077,36.7569,77.8846,37.419,88.4615,37.0557,99.0385,37.1005,109.6154,37.429,120.1923,36.7798,130.7692,38.0767,141.3462,36.8435,151.9231,37.294,162.5,37.5,162.5574,37.6386,163.0779,37.7166,163.6876,38.01,164.2635,38.222,164.8807,38.5336,165.4463,38.7204,165.523,38.7522,165.8782,39.3875,166.1497,39.9881,166.3964,40.5784,166.5043,41.1112,166.6667,41.6667,166.8276,41.6667,166.9105,45.4102,166.4163,49.1536,166.9023,52.8971,166.5637,56.6406,166.6667,60.3841,166.8379,60.455,166.2638,60.9076,166.1565,61.5535,166.1723,62.2504,165.6747,62.7347,165.4463,63.3304,165.4603,63.3642,164.902,63.6831,164.3231,63.9521,163.678,64.0614,163.1274,64.3988,162.5,64.5508,162.5,63.9545,151.9231,64.847,141.3462,65.1218,130.7692,65.0138,120.1923,65.1893,109.6154,64.0476,99.0385,63.8714,88.4615,63.9035,77.8846,64.4894,67.3077,64.3461,56.7308,65.2606,46.1538,64.3688,35.5769,64.1934,25,64.5508,25.0303,64.624,24.3221,64.0928,23.7525,63.8961,23.3185,64.0267,22.7009,63.7142,22.0537,63.3304,22.2893,63.428,21.7064,62.6984,21.668,62.1943,21.5109,61.6411,20.9259,60.9106,20.8333,60.3841,20.8,60.3841,20.8771,56.6406,21.0596,52.8971,20.8319,49.1536,20.9939,45.4102,20.8333,41.6667,20.6557,41.5931,20.8602,40.9874,21.483,40.5551,21.3356,39.8036,21.9729,39.3773,22.0537,38.7204,22.0812,38.7867,22.6074,38.3904,23.1852,38.1187,23.8824,38.1353,24.371,37.6481,25,37.5" style="stroke:#333333;stroke-width:1.0416666666666667;"/><polygon fill="none" points="191.6667,85.3841,191.6667,85.4571,199.1667,85.2403,206.6667,85.4512,214.1667,85.5229,221.6667,85.1364,229.1667,85.3841,229.1563,85.3592,229.6993,85.4914,230.2942,85.7492,230.9254,86.0945,231.4318,86.1386,232.1129,86.6045,232.2905,86.6781,232.1548,87.11,232.5377,87.7567,232.9837,88.4297,233.0617,88.9501,233.3333,89.5508,233.357,89.5508,233.3222,93.2943,233.3953,97.0378,233.4164,100.7813,233.5367,104.5247,233.3333,108.2682,233.5486,108.3574,233.3072,108.9477,232.9269,109.4806,232.7498,110.0976,232.5823,110.7186,232.1129,111.2145,232.0171,110.9832,231.6138,111.6762,230.895,111.6075,230.4161,112.118,229.6901,112.032,229.1667,112.4349,229.1667,112.4111,221.6667,112.6924,214.1667,112.418,206.6667,112.4715,199.1667,112.5525,191.6667,112.4349,191.722,112.5684,191.0769,112.1896,190.5263,112.0389,189.8228,111.519,189.3474,111.5498,188.7204,111.2145,188.8962,111.2873,188.6189,110.6843,188.4289,110.1175,187.8332,109.3826,187.5349,108.7708,187.5,108.2682,187.2842,108.2682,187.4796,104.5247,187.4318,100.7813,187.7366,97.0378,187.4393,93.2943,187.5,89.5508,187.39,89.5052,187.8173,88.9919,187.7742,88.2837,188.0657,87.714,188.6845,87.28,188.7204,86.6045,188.7783,86.7443,189.4072,86.596,189.8561,86.0131,190.5306,85.9747,191.1559,85.8176,191.6667,85.3841" style="stroke:#333333;stroke-width:1.0416666666666667;"/><polygon fill="none" points="258.3333,133.2682,258.3333,133.4872,269.2708,132.8366,280.2083,133.4696,291.1458,133.6846,302.0833,132.5251,313.0208,133.1873,323.9583,132.824,334.8958,132.8688,345.8333,133.2682,345.8243,133.2464,346.3307,133.2905,347.0854,133.934,347.5174,133.7983,348.1641,134.1811,348.7796,134.4886,348.9182,134.546,348.9962,135.0665,349.2897,135.6762,349.5016,136.2521,349.8132,136.8694,350,137.4349,350.083,137.4349,350.2034,141.1784,350.233,144.9219,350.2359,148.6654,350.0884,152.4089,350,156.1523,350.1487,156.2139,349.9812,156.8349,349.2805,157.235,349.4854,158.0103,348.9286,158.47,348.7796,159.0986,348.8505,159.2699,348.1246,159.1839,347.592,159.5648,347.1104,160.0688,346.4161,160.0593,345.8333,160.319,345.8333,160.4287,334.8958,160.6717,323.9583,160.7526,313.0208,160.3149,302.0833,160.6182,291.1458,159.7227,280.2083,160.6152,269.2708,160.89,258.3333,160.319,258.3924,160.4616,257.8255,160.2716,257.0906,159.6759,256.4789,159.3776,255.8937,159.1434,255.3871,159.0986,255.3682,159.0908,255.0799,158.4833,255.1175,158.0107,254.5988,157.3076,254.3007,156.696,254.1667,156.1523,254.2459,156.1523,253.9351,152.4089,253.9864,148.6654,254.392,144.9219,254.3179,141.1784,254.1667,137.4349,254.4023,137.5325,254.3075,136.8029,254.7572,136.2988,255.0883,135.7456,254.9914,135.0151,255.3871,134.4886,255.3743,134.4579,255.9931,134.285,256.6522,134.2095,257.1543,133.755,257.8055,133.6607,258.3333,133.2682" style="stroke:#333333;stroke-width:1.0416666666666667;"/><path d="M278.125,208.2031 L278.125,208.3977 L274.1667,207.8195 L270.2083,208.3821 L266.25,208.5732 L262.2917,207.5426 L258.3333,208.2031 L254.1667,204.0365 L254.0947,204.0365 L253.7718,200.293 L253.8116,196.5495 L254.1036,192.806 L253.5265,189.0625 L254.1667,185.319 L258.3333,181.1523 L258.3333,181.665 L262.2917,180.5688 L266.25,180.9692 L270.2083,181.5523 L274.1667,181.0729 L278.125,181.1523 " fill="#000000" style="stroke:none;stroke-width:1.0416666666666667;"/><path d="M278.125,181.1523 L278.125,181.7362 L287.7976,180.0015 L297.4702,181.6893 L307.1429,182.2626 L316.8155,179.1707 L326.4881,180.9365 L336.1607,179.9676 L345.8333,181.1523 L350,185.319 L349.6449,185.319 L349.9369,189.0625 L349.3598,192.806 L350.5126,196.5495 L349.4164,200.293 L350,204.0365 L345.8333,208.2031 L345.8333,207.6538 L336.1607,209.403 L326.4881,207.9649 L316.8155,208.3927 L307.1429,208.1144 L297.4702,208.699 L287.7976,208.8674 L278.125,208.2031 " fill="none" style="stroke:none;stroke-width:1.0416666666666667;"/><polygon fill="none" points="258.3333,181.1523,258.3333,181.3713,269.2708,180.7208,280.2083,181.3537,291.1458,181.5687,302.0833,180.4092,313.0208,181.0714,323.9583,180.7081,334.8958,180.7529,345.8333,181.1523,345.8243,181.1305,346.3307,181.1746,347.0854,181.8181,347.5174,181.6824,348.1641,182.0652,348.7796,182.3727,348.9182,182.4301,348.9962,182.9506,349.2897,183.5603,349.5016,184.1363,349.8132,184.7535,350,185.319,350.083,185.319,350.2034,189.0625,350.233,192.806,350.2359,196.5495,350.0884,200.293,350,204.0365,350.1487,204.0981,349.9812,204.719,349.2805,205.1191,349.4854,205.8944,348.9286,206.3541,348.7796,206.9827,348.8505,207.154,348.1246,207.068,347.592,207.4489,347.1104,207.9529,346.4161,207.9434,345.8333,208.2031,345.8333,208.3128,334.8958,208.5559,323.9583,208.6367,313.0208,208.1991,302.0833,208.5023,291.1458,207.6069,280.2083,208.4994,269.2708,208.7742,258.3333,208.2031,258.3924,208.3457,257.8255,208.1557,257.0906,207.56,256.4789,207.2617,255.8937,207.0275,255.3871,206.9827,255.3682,206.9749,255.0799,206.3674,255.1175,205.8948,254.5988,205.1918,254.3007,204.5801,254.1667,204.0365,254.2459,204.0365,253.9351,200.293,253.9864,196.5495,254.392,192.806,254.3179,189.0625,254.1667,185.319,254.4023,185.4166,254.3075,184.687,254.7572,184.1829,255.0883,183.6297,254.9914,182.8992,255.3871,182.3727,255.3743,182.342,255.9931,182.1691,256.6522,182.0937,257.1543,181.6392,257.8055,181.5448,258.3333,181.1523" style="stroke:#333333;stroke-width:1.0416666666666667;"/><path d="M311.6667,256.0872 L311.6667,256.6711 L301,254.9363 L290.3333,256.6241 L279.6667,257.1975 L269,254.1056 L258.3333,256.0872 L254.1667,251.9206 L254.0947,251.9206 L253.7718,248.1771 L253.8116,244.4336 L254.1036,240.6901 L253.5265,236.9466 L254.1667,233.2031 L258.3333,229.0365 L258.3333,230.5744 L269,227.2857 L279.6667,228.4871 L290.3333,230.2363 L301,228.7982 L311.6667,229.0365 " fill="#000000" style="stroke:none;stroke-width:1.0416666666666667;"/><path d="M311.6667,229.0365 L311.6667,229.2311 L318.5,228.6528 L325.3333,229.2154 L332.1667,229.4065 L339,228.3759 L345.8333,229.0365 L350,233.2031 L349.928,233.2031 L349.6051,236.9466 L349.6449,240.6901 L349.9369,244.4336 L349.3598,248.1771 L350,251.9206 L345.8333,256.0872 L345.8333,256.5999 L339,255.5036 L332.1667,255.9041 L325.3333,256.4872 L318.5,256.0078 L311.6667,256.0872 " fill="none" style="stroke:none;stroke-width:1.0416666666666667;"/><polygon fill="none" points="258.3333,229.0365,258.3333,229.2554,269.2708,228.6049,280.2083,229.2378,291.1458,229.4528,302.0833,228.2933,313.0208,228.9555,323.9583,228.5922,334.8958,228.637,345.8333,229.0365,345.8243,229.0146,346.3307,229.0588,347.0854,229.7022,347.5174,229.5665,348.1641,229.9493,348.7796,230.2568,348.9182,230.3142,348.9962,230.8347,349.2897,231.4444,349.5016,232.0204,349.8132,232.6376,350,233.2031,350.083,233.2031,350.2034,236.9466,350.233,240.6901,350.2359,244.4336,350.0884,248.1771,350,251.9206,350.1487,251.9822,349.9812,252.6031,349.2805,253.0033,349.4854,253.7785,348.9286,254.2382,348.7796,254.8669,348.8505,255.0381,348.1246,254.9521,347.592,255.333,347.1104,255.837,346.4161,255.8275,345.8333,256.0872,345.8333,256.1969,334.8958,256.44,323.9583,256.5208,313.0208,256.0832,302.0833,256.3864,291.1458,255.491,280.2083,256.3835,269.2708,256.6583,258.3333,256.0872,258.3924,256.2298,257.8255,256.0398,257.0906,255.4441,256.4789,255.1458,255.8937,254.9116,255.3871,254.8669,255.3682,254.859,255.0799,254.2515,255.1175,253.7789,254.5988,253.0759,254.3007,252.4642,254.1667,251.9206,254.2459,251.9206,253.9351,248.1771,253.9864,244.4336,254.392,240.6901,254.3179,236.9466,254.1667,233.2031,254.4023,233.3007,254.3075,232.5711,254.7572,232.067,255.0883,231.5138,254.9914,230.7833,255.3871,230.2568,255.3743,230.2261,255.9931,230.0532,256.6522,229.9778,257.1543,229.5233,257.8055,229.4289,258.3333,229.0365" style="stroke:#333333;stroke-width:1.0416666666666667;"/><polygon fill="none" points="258.3333,276.9206,258.3333,277.1395,269.2708,276.489,280.2083,277.1219,291.1458,277.3369,302.0833,276.1775,313.0208,276.8396,323.9583,276.4763,334.8958,276.5211,345.8333,276.9206,345.8243,276.8987,346.3307,276.9429,347.0854,277.5863,347.5174,277.4506,348.1641,277.8334,348.7796,278.141,348.9182,278.1984,348.9962,278.7188,349.2897,279.3285,349.5016,279.9045,349.8132,280.5217,350,281.0872,350.083,281.0872,350.2034,284.8307,350.233,288.5742,350.2359,292.3177,350.0884,296.0612,350,299.8047,350.1487,299.8663,349.9812,300.4873,349.2805,300.8874,349.4854,301.6626,348.9286,302.1223,348.7796,302.751,348.8505,302.9222,348.1246,302.8362,347.592,303.2171,347.1104,303.7211,346.4161,303.7116,345.8333,303.9714,345.8333,304.081,334.8958,304.3241,323.9583,304.4049,313.0208,303.9673,302.0833,304.2705,291.1458,303.3751,280.2083,304.2676,269.2708,304.5424,258.3333,303.9714,258.3924,304.114,257.8255,303.9239,257.0906,303.3282,256.4789,303.0299,255.8937,302.7957,255.3871,302.751,255.3682,302.7431,255.0799,302.1356,255.1175,301.663,254.5988,300.96,254.3007,300.3484,254.1667,299.8047,254.2459,299.8047,253.9351,296.0612,253.9864,292.3177,254.392,288.5742,254.3179,284.8307,254.1667,281.0872,254.4023,281.1848,254.3075,280.4552,254.7572,279.9511,255.0883,279.3979,254.9914,278.6674,255.3871,278.141,255.3743,278.1102,255.9931,277.9373,256.6522,277.8619,257.1543,277.4074,257.8055,277.313,258.3333,276.9206" style="stroke:#333333;stroke-width:1.0416666666666667;"/><polygon fill="#555555" points="10.4167,324.8047,10.4167,325.0236,20.7108,324.3731,31.0049,325.006,41.299,325.221,51.5931,324.0616,61.8873,324.7237,72.1814,324.3604,82.4755,324.4052,92.7696,324.7337,103.0637,324.0845,113.3578,325.3814,123.652,324.1481,133.9461,324.5987,144.2402,325.2546,154.5343,324.7153,164.8284,324.8758,175.1225,324.7714,185.4167,324.9907,195.7108,325.0538,206.0049,325.4148,216.299,325.5037,226.5931,325.5122,236.8873,325.0699,247.1814,325.2876,257.4755,325.5362,267.7696,324.0535,278.0637,325.5115,288.3578,324.4958,298.652,325.3607,308.9461,324.289,319.2402,324.7333,329.5343,325.5772,339.8284,324.7539,350.1225,324.9144,360.4167,324.8047,360.5342,324.8047,360.5612,330.2148,360.4153,335.625,360.5164,341.0352,360.2179,346.4453,360.4167,351.8555,360.4167,352.1517,350.1225,352.4265,339.8284,352.3185,329.5343,352.494,319.2402,351.3523,308.9461,351.1761,298.652,351.2082,288.3578,351.7941,278.0637,351.6508,267.7696,352.5653,257.4755,351.6735,247.1814,351.4981,236.8873,352.0932,226.5931,351.1608,216.299,351.3147,206.0049,352.5315,195.7108,352.3093,185.4167,352.6206,175.1225,351.5203,164.8284,352.188,154.5343,352.4705,144.2402,351.3634,133.9461,351.7556,123.652,351.9867,113.3578,352.5344,103.0637,351.8511,92.7696,352.3373,82.4755,351.2786,72.1814,351.15,61.8873,352.3801,51.5931,351.1087,41.299,352.3856,31.0049,352.0707,20.7108,351.5764,10.4167,351.8555,10.2938,351.8555,10.576,346.4453,10.3127,341.0352,10.6222,335.625,10.2247,330.2148,10.4167,324.8047" style="stroke:none;stroke-width:1.0416666666666667;"/><path d="M10.4167,338.3301 L10.4167,338.4274 L11.6667,338.1383 L12.9167,338.4196 L14.1667,338.5151 L15.4167,337.9998 L16.6667,338.3301 " fill="none" style="stroke:#555555;stroke-width:1.0416666666666667;"/><path d="M146.875,338.3301 L146.875,338.622 L157.5,337.7546 L168.125,338.5985 L178.75,338.8852 L189.375,337.3393 L200,338.2221 L210.625,337.7377 L221.25,337.7974 L231.875,338.2354 L242.5,337.3698 L253.125,339.099 L263.75,337.4547 L274.375,338.0554 L285,338.93 L295.625,338.2109 L306.25,338.4249 L316.875,338.2857 L327.5,338.578 L338.125,338.6622 L348.75,339.1435 L359.375,338.3301 " fill="none" style="stroke:#555555;stroke-width:1.0416666666666667;"/><polygon fill="#555555" points="252.0833,372.6888,252.1349,372.7404,253.2316,373.8371,254.6308,375.2363,255.9315,376.5369,256.9082,377.5136,258.3333,378.9388,258.3143,378.9197,256.9786,380.0841,255.7392,381.3446,254.5666,382.6721,253.1636,383.7691,252.0833,385.1888,252.2193,385.3247,250.6786,383.7841,249.5348,382.6402,248.4394,381.5449,247.0623,380.1677,245.8333,378.9388,245.8501,378.9556,247.0755,377.681,248.3772,376.4826,249.642,375.2475,250.9771,374.0826,252.0833,372.6888" style="stroke:#4D4D4D;stroke-width:1.0416666666666667;"/><polygon fill="#555555" points="10.4167,406.0221,10.4167,406.2411,20.7108,405.5906,31.0049,406.2235,41.299,406.4385,51.5931,405.279,61.8873,405.9412,72.1814,405.5779,82.4755,405.6227,92.7696,405.9511,103.0637,405.302,113.3578,406.5988,123.652,405.3656,133.9461,405.8161,144.2402,406.4721,154.5343,405.9328,164.8284,406.0932,175.1225,405.9889,185.4167,406.2081,195.7108,406.2712,206.0049,406.6322,216.299,406.7211,226.5931,406.7297,236.8873,406.2874,247.1814,406.505,257.4755,406.7536,267.7696,405.2709,278.0637,406.7289,288.3578,405.7133,298.652,406.5782,308.9461,405.5065,319.2402,405.9508,329.5343,406.7946,339.8284,405.9714,350.1225,406.1318,360.4167,406.0221,360.5342,406.0221,360.5612,411.4323,360.4153,416.8424,360.5164,422.2526,360.2179,427.6628,360.4167,433.0729,360.4167,433.3692,350.1225,433.644,339.8284,433.536,329.5343,433.7115,319.2402,432.5697,308.9461,432.3936,298.652,432.4256,288.3578,433.0116,278.0637,432.8682,267.7696,433.7827,257.4755,432.891,247.1814,432.7156,236.8873,433.3107,226.5931,432.3783,216.299,432.5322,206.0049,433.7489,195.7108,433.5267,185.4167,433.838,175.1225,432.7377,164.8284,433.4054,154.5343,433.6879,144.2402,432.5808,133.9461,432.9731,123.652,433.2041,113.3578,433.7518,103.0637,433.0686,92.7696,433.5548,82.4755,432.4961,72.1814,432.3674,61.8873,433.5975,51.5931,432.3261,41.299,433.6031,31.0049,433.2882,20.7108,432.7938,10.4167,433.0729,10.2938,433.0729,10.576,427.6628,10.3127,422.2526,10.6222,416.8424,10.2247,411.4323,10.4167,406.0221" style="stroke:none;stroke-width:1.0416666666666667;"/><path d="M10.4167,419.5475 L10.4167,419.6448 L11.6667,419.3557 L12.9167,419.637 L14.1667,419.7326 L15.4167,419.2173 L16.6667,419.5475 " fill="none" style="stroke:#555555;stroke-width:1.0416666666666667;"/><path d="M65.625,419.5475 L65.625,419.8394 L76.1161,418.9721 L86.6071,419.816 L97.0982,420.1026 L107.5893,418.5567 L118.0804,419.4396 L128.5714,418.9552 L139.0625,419.0149 L149.5536,419.4529 L160.0446,418.5873 L170.5357,420.3165 L181.0268,418.6721 L191.5179,419.2729 L202.0089,420.1475 L212.5,419.4284 L222.9911,419.6423 L233.4821,419.5032 L243.9732,419.7955 L254.4643,419.8797 L264.9554,420.361 L275.4464,420.4795 L285.9375,420.4909 L296.4286,419.9012 L306.9196,420.1914 L317.4107,420.5228 L327.9018,418.5459 L338.3929,420.4899 L348.8839,419.1357 L359.375,419.5475 " fill="none" style="stroke:#555555;stroke-width:1.0416666666666667;"/><text fill="#2E2E2E" font-family="Segoe Print" font-size="12.5" lengthAdjust="spacing" textLength="38.5417" x="16.6667" y="55.3528">Task1</text><text fill="#2E2E2E" font-family="Segoe Print" font-size="12.5" lengthAdjust="spacing" textLength="38.5417" x="183.3333" y="103.2369">Task2</text><text fill="#2E2E2E" font-family="Segoe Print" font-size="12.5" lengthAdjust="spacing" textLength="61.4583" x="250" y="151.121">Test  000</text><text fill="#2E2E2E" font-family="Segoe Print" font-size="12.5" lengthAdjust="spacing" textLength="61.4583" x="250" y="199.0051">Test  025</text><text fill="#2E2E2E" font-family="Segoe Print" font-size="12.5" lengthAdjust="spacing" textLength="61.4583" x="250" y="246.8892">Test  060</text><text fill="#2E2E2E" font-family="Segoe Print" font-size="12.5" lengthAdjust="spacing" textLength="61.4583" x="250" y="294.7734">Test  100</text><text fill="#FFFFFF" font-family="Segoe Print" font-size="12.5" font-weight="bold" lengthAdjust="spacing" textLength="109.375" x="27.0833" y="342.6575">Separator title</text><text fill="#17A2B8" font-family="Segoe Print" font-size="12.5" font-style="italic" lengthAdjust="spacing" textLength="18.75" x="264.5833" y="383.2662">M1</text><text fill="#FFFFFF" font-family="Segoe Print" font-size="12.5" font-weight="bold" lengthAdjust="spacing" textLength="28.125" x="27.0833" y="423.8749">end</text><path d="M10.4167,446.6146 L10.514,446.6146 L10.2249,449.3229 L10.5062,452.0313 L10.6017,454.7396 L10.0864,457.4479 L10.4167,460.1563 " fill="none" style="stroke:#2E2E2E;stroke-width:1.0416666666666667;"/><path d="M27.0833,446.6146 L27.1806,446.6146 L26.8915,449.3229 L27.1728,452.0313 L27.2684,454.7396 L26.7531,457.4479 L27.0833,460.1563 " fill="none" style="stroke:#2E2E2E;stroke-width:1.0416666666666667;"/><path d="M43.75,446.6146 L43.8473,446.6146 L43.5582,449.3229 L43.8395,452.0313 L43.935,454.7396 L43.4197,457.4479 L43.75,460.1563 " fill="none" style="stroke:#2E2E2E;stroke-width:1.0416666666666667;"/><path d="M60.4167,446.6146 L60.514,446.6146 L60.2249,449.3229 L60.5062,452.0313 L60.6017,454.7396 L60.0864,457.4479 L60.4167,460.1563 " fill="none" style="stroke:#2E2E2E;stroke-width:1.0416666666666667;"/><path d="M77.0833,446.6146 L77.1806,446.6146 L76.8915,449.3229 L77.1728,452.0313 L77.2684,454.7396 L76.7531,457.4479 L77.0833,460.1563 " fill="none" style="stroke:#2E2E2E;stroke-width:1.0416666666666667;"/><path d="M93.75,446.6146 L93.8473,446.6146 L93.5582,449.3229 L93.8395,452.0313 L93.935,454.7396 L93.4197,457.4479 L93.75,460.1563 " fill="none" style="stroke:#2E2E2E;stroke-width:1.0416666666666667;"/><path d="M110.4167,446.6146 L110.514,446.6146 L110.2249,449.3229 L110.5062,452.0313 L110.6017,454.7396 L110.0864,457.4479 L110.4167,460.1563 " fill="none" style="stroke:#2E2E2E;stroke-width:1.0416666666666667;"/><path d="M127.0833,446.6146 L127.1806,446.6146 L126.8915,449.3229 L127.1728,452.0313 L127.2684,454.7396 L126.7531,457.4479 L127.0833,460.1563 " fill="none" style="stroke:#2E2E2E;stroke-width:1.0416666666666667;"/><path d="M143.75,446.6146 L143.8473,446.6146 L143.5582,449.3229 L143.8395,452.0313 L143.935,454.7396 L143.4197,457.4479 L143.75,460.1563 " fill="none" style="stroke:#2E2E2E;stroke-width:1.0416666666666667;"/><path d="M160.4167,446.6146 L160.514,446.6146 L160.2249,449.3229 L160.5062,452.0313 L160.6017,454.7396 L160.0864,457.4479 L160.4167,460.1563 " fill="none" style="stroke:#2E2E2E;stroke-width:1.0416666666666667;"/><path d="M177.0833,446.6146 L177.1806,446.6146 L176.8915,449.3229 L177.1728,452.0313 L177.2684,454.7396 L176.7531,457.4479 L177.0833,460.1563 " fill="none" style="stroke:#2E2E2E;stroke-width:1.0416666666666667;"/><path d="M193.75,446.6146 L193.8473,446.6146 L193.5582,449.3229 L193.8395,452.0313 L193.935,454.7396 L193.4197,457.4479 L193.75,460.1563 " fill="none" style="stroke:#2E2E2E;stroke-width:1.0416666666666667;"/><path d="M210.4167,446.6146 L210.514,446.6146 L210.2249,449.3229 L210.5062,452.0313 L210.6017,454.7396 L210.0864,457.4479 L210.4167,460.1563 " fill="none" style="stroke:#2E2E2E;stroke-width:1.0416666666666667;"/><path d="M227.0833,446.6146 L227.1806,446.6146 L226.8915,449.3229 L227.1728,452.0313 L227.2684,454.7396 L226.7531,457.4479 L227.0833,460.1563 " fill="none" style="stroke:#2E2E2E;stroke-width:1.0416666666666667;"/><path d="M243.75,446.6146 L243.8473,446.6146 L243.5582,449.3229 L243.8395,452.0313 L243.935,454.7396 L243.4197,457.4479 L243.75,460.1563 " fill="none" style="stroke:#2E2E2E;stroke-width:1.0416666666666667;"/><path d="M260.4167,446.6146 L260.514,446.6146 L260.2249,449.3229 L260.5062,452.0313 L260.6017,454.7396 L260.0864,457.4479 L260.4167,460.1563 " fill="none" style="stroke:#2E2E2E;stroke-width:1.0416666666666667;"/><path d="M277.0833,446.6146 L277.1806,446.6146 L276.8915,449.3229 L277.1728,452.0313 L277.2684,454.7396 L276.7531,457.4479 L277.0833,460.1563 " fill="none" style="stroke:#2E2E2E;stroke-width:1.0416666666666667;"/><path d="M293.75,446.6146 L293.8473,446.6146 L293.5582,449.3229 L293.8395,452.0313 L293.935,454.7396 L293.4197,457.4479 L293.75,460.1563 " fill="none" style="stroke:#2E2E2E;stroke-width:1.0416666666666667;"/><path d="M310.4167,446.6146 L310.514,446.6146 L310.2249,449.3229 L310.5062,452.0313 L310.6017,454.7396 L310.0864,457.4479 L310.4167,460.1563 " fill="none" style="stroke:#2E2E2E;stroke-width:1.0416666666666667;"/><path d="M327.0833,446.6146 L327.1806,446.6146 L326.8915,449.3229 L327.1728,452.0313 L327.2684,454.7396 L326.7531,457.4479 L327.0833,460.1563 " fill="none" style="stroke:#2E2E2E;stroke-width:1.0416666666666667;"/><path d="M343.75,446.6146 L343.8473,446.6146 L343.5582,449.3229 L343.8395,452.0313 L343.935,454.7396 L343.4197,457.4479 L343.75,460.1563 " fill="none" style="stroke:#2E2E2E;stroke-width:1.0416666666666667;"/><path d="M360.4167,446.6146 L360.514,446.6146 L360.2249,449.3229 L360.5062,452.0313 L360.6017,454.7396 L360.0864,457.4479 L360.4167,460.1563 " fill="none" style="stroke:#2E2E2E;stroke-width:1.0416666666666667;"/><text fill="#FFFFFF" font-family="Serif" font-size="10.4167" lengthAdjust="spacing" textLength="6.25" x="15.625" y="456.2836">1</text><text fill="#FFFFFF" font-family="Serif" font-size="10.4167" lengthAdjust="spacing" textLength="6.25" x="32.2917" y="456.2836">2</text><text fill="#FFFFFF" font-family="Serif" font-size="10.4167" lengthAdjust="spacing" textLength="6.25" x="48.9583" y="456.2836">3</text><text fill="#FFFFFF" font-family="Serif" font-size="10.4167" lengthAdjust="spacing" textLength="6.25" x="65.625" y="456.2836">4</text><text fill="#FFFFFF" font-family="Serif" font-size="10.4167" lengthAdjust="spacing" textLength="6.25" x="82.2917" y="456.2836">5</text><text fill="#FFFFFF" font-family="Serif" font-size="10.4167" lengthAdjust="spacing" textLength="6.25" x="98.9583" y="456.2836">6</text><text fill="#FFFFFF" font-family="Serif" font-size="10.4167" lengthAdjust="spacing" textLength="6.25" x="115.625" y="456.2836">7</text><text fill="#FFFFFF" font-family="Serif" font-size="10.4167" lengthAdjust="spacing" textLength="6.25" x="132.2917" y="456.2836">8</text><text fill="#FFFFFF" font-family="Serif" font-size="10.4167" lengthAdjust="spacing" textLength="6.25" x="148.9583" y="456.2836">9</text><text fill="#FFFFFF" font-family="Serif" font-size="10.4167" lengthAdjust="spacing" textLength="12.5" x="162.5" y="456.2836">10</text><text fill="#FFFFFF" font-family="Serif" font-size="10.4167" lengthAdjust="spacing" textLength="12.5" x="179.1667" y="456.2836">11</text><text fill="#FFFFFF" font-family="Serif" font-size="10.4167" lengthAdjust="spacing" textLength="12.5" x="195.8333" y="456.2836">12</text><text fill="#FFFFFF" font-family="Serif" font-size="10.4167" lengthAdjust="spacing" textLength="12.5" x="212.5" y="456.2836">13</text><text fill="#FFFFFF" font-family="Serif" font-size="10.4167" lengthAdjust="spacing" textLength="12.5" x="229.1667" y="456.2836">14</text><text fill="#FFFFFF" font-family="Serif" font-size="10.4167" lengthAdjust="spacing" textLength="12.5" x="245.8333" y="456.2836">15</text><text fill="#FFFFFF" font-family="Serif" font-size="10.4167" lengthAdjust="spacing" textLength="12.5" x="262.5" y="456.2836">16</text><text fill="#FFFFFF" font-family="Serif" font-size="10.4167" lengthAdjust="spacing" textLength="12.5" x="279.1667" y="456.2836">17</text><text fill="#FFFFFF" font-family="Serif" font-size="10.4167" lengthAdjust="spacing" textLength="12.5" x="295.8333" y="456.2836">18</text><text fill="#FFFFFF" font-family="Serif" font-size="10.4167" lengthAdjust="spacing" textLength="12.5" x="312.5" y="456.2836">19</text><text fill="#FFFFFF" font-family="Serif" font-size="10.4167" lengthAdjust="spacing" textLength="12.5" x="329.1667" y="456.2836">20</text><text fill="#FFFFFF" font-family="Serif" font-size="10.4167" lengthAdjust="spacing" textLength="12.5" x="345.8333" y="456.2836">21</text><path d="M10.4167,446.6146 L10.4167,446.9065 L20.7108,446.0391 L31.0049,446.883 L41.299,447.1697 L51.5931,445.6238 L61.8873,446.5066 L72.1814,446.0222 L82.4755,446.0819 L92.7696,446.5199 L103.0637,445.6543 L113.3578,447.3835 L123.652,445.7392 L133.9461,446.3399 L144.2402,447.2145 L154.5343,446.4954 L164.8284,446.7094 L175.1225,446.5702 L185.4167,446.8625 L195.7108,446.9467 L206.0049,447.428 L216.299,447.5466 L226.5931,447.558 L236.8873,446.9682 L247.1814,447.2585 L257.4755,447.5899 L267.7696,445.6129 L278.0637,447.557 L288.3578,446.2028 L298.652,447.356 L308.9461,445.9271 L319.2402,446.5194 L329.5343,447.6446 L339.8284,446.5469 L350.1225,446.7608 L360.4167,446.6146 " fill="none" style="stroke:#2E2E2E;stroke-width:1.0416666666666667;"/></g></svg>