<?xml version="1.0" encoding="us-ascii" standalone="no"?><svg xmlns="http://www.w3.org/2000/svg" xmlns:xlink="http://www.w3.org/1999/xlink" contentStyleType="text/css" height="225px" preserveAspectRatio="none" style="width:356px;height:225px;background:#FDF6E3;" version="1.1" viewBox="0 0 356 225" width="356.25px" zoomAndPan="magnify"><defs/><g><rect fill="#FDF6E3" height="225" style="stroke:none;stroke-width:1.0416666666666667;" width="356.25" x="0" y="0"/><rect fill="#FDF6E3" height="16.6667" style="stroke:none;stroke-width:1.0416666666666667;" width="350" x="0" y="0"/><rect fill="#FDF6E3" height="16.6667" style="stroke:none;stroke-width:1.0416666666666667;" width="350" x="0" y="207.5439"/><line style="stroke:#C0C0C0;stroke-width:1.0416666666666667;" x1="0" x2="0" y1="6.25" y2="215.8773"/><line style="stroke:#C0C0C0;stroke-width:1.0416666666666667;" x1="16.6667" x2="16.6667" y1="6.25" y2="215.8773"/><line style="stroke:#C0C0C0;stroke-width:1.0416666666666667;" x1="33.3333" x2="33.3333" y1="6.25" y2="215.8773"/><line style="stroke:#C0C0C0;stroke-width:1.0416666666666667;" x1="50" x2="50" y1="6.25" y2="215.8773"/><line style="stroke:#C0C0C0;stroke-width:1.0416666666666667;" x1="66.6667" x2="66.6667" y1="6.25" y2="215.8773"/><line style="stroke:#C0C0C0;stroke-width:1.0416666666666667;" x1="83.3333" x2="83.3333" y1="6.25" y2="215.8773"/><line style="stroke:#C0C0C0;stroke-width:1.0416666666666667;" x1="100" x2="100" y1="6.25" y2="215.8773"/><line style="stroke:#C0C0C0;stroke-width:1.0416666666666667;" x1="116.6667" x2="116.6667" y1="6.25" y2="215.8773"/><line style="stroke:#C0C0C0;stroke-width:1.0416666666666667;" x1="133.3333" x2="133.3333" y1="6.25" y2="215.8773"/><line style="stroke:#C0C0C0;stroke-width:1.0416666666666667;" x1="150" x2="150" y1="6.25" y2="215.8773"/><line style="stroke:#C0C0C0;stroke-width:1.0416666666666667;" x1="166.6667" x2="166.6667" y1="6.25" y2="215.8773"/><line style="stroke:#C0C0C0;stroke-width:1.0416666666666667;" x1="183.3333" x2="183.3333" y1="6.25" y2="215.8773"/><line style="stroke:#C0C0C0;stroke-width:1.0416666666666667;" x1="200" x2="200" y1="6.25" y2="215.8773"/><line style="stroke:#C0C0C0;stroke-width:1.0416666666666667;" x1="216.6667" x2="216.6667" y1="6.25" y2="215.8773"/><line style="stroke:#C0C0C0;stroke-width:1.0416666666666667;" x1="233.3333" x2="233.3333" y1="6.25" y2="215.8773"/><line style="stroke:#C0C0C0;stroke-width:1.0416666666666667;" x1="250" x2="250" y1="6.25" y2="215.8773"/><line style="stroke:#C0C0C0;stroke-width:1.0416666666666667;" x1="266.6667" x2="266.6667" y1="6.25" y2="215.8773"/><line style="stroke:#C0C0C0;stroke-width:1.0416666666666667;" x1="283.3333" x2="283.3333" y1="6.25" y2="215.8773"/><line style="stroke:#C0C0C0;stroke-width:1.0416666666666667;" x1="300" x2="300" y1="6.25" y2="215.8773"/><line style="stroke:#C0C0C0;stroke-width:1.0416666666666667;" x1="316.6667" x2="316.6667" y1="6.25" y2="215.8773"/><line style="stroke:#C0C0C0;stroke-width:1.0416666666666667;" x1="333.3333" x2="333.3333" y1="6.25" y2="215.8773"/><line style="stroke:#C0C0C0;stroke-width:1.0416666666666667;" x1="350" x2="350" y1="6.25" y2="215.8773"/><text fill="#000000" font-family="Dejavu Serif" font-size="10.4167" lengthAdjust="spacing" textLength="6.25" x="5.2083" y="9.669">1</text><text fill="#000000" font-family="Dejavu Serif" font-size="10.4167" lengthAdjust="spacing" textLength="6.25" x="21.875" y="9.669">2</text><text fill="#000000" font-family="Dejavu Serif" font-size="10.4167" lengthAdjust="spacing" textLength="6.25" x="38.5417" y="9.669">3</text><text fill="#000000" font-family="Dejavu Serif" font-size="10.4167" lengthAdjust="spacing" textLength="6.25" x="55.2083" y="9.669">4</text><text fill="#000000" font-family="Dejavu Serif" font-size="10.4167" lengthAdjust="spacing" textLength="6.25" x="71.875" y="9.669">5</text><text fill="#000000" font-family="Dejavu Serif" font-size="10.4167" lengthAdjust="spacing" textLength="6.25" x="88.5417" y="9.669">6</text><text fill="#000000" font-family="Dejavu Serif" font-size="10.4167" lengthAdjust="spacing" textLength="6.25" x="105.2083" y="9.669">7</text><text fill="#000000" font-family="Dejavu Serif" font-size="10.4167" lengthAdjust="spacing" textLength="6.25" x="121.875" y="9.669">8</text><text fill="#000000" font-family="Dejavu Serif" font-size="10.4167" lengthAdjust="spacing" textLength="6.25" x="138.5417" y="9.669">9</text><text fill="#000000" font-family="Dejavu Serif" font-size="10.4167" lengthAdjust="spacing" textLength="12.5" x="152.0833" y="9.669">10</text><text fill="#000000" font-family="Dejavu Serif" font-size="10.4167" lengthAdjust="spacing" textLength="12.5" x="168.75" y="9.669">11</text><text fill="#000000" font-family="Dejavu Serif" font-size="10.4167" lengthAdjust="spacing" textLength="12.5" x="185.4167" y="9.669">12</text><text fill="#000000" font-family="Dejavu Serif" font-size="10.4167" lengthAdjust="spacing" textLength="12.5" x="202.0833" y="9.669">13</text><text fill="#000000" font-family="Dejavu Serif" font-size="10.4167" lengthAdjust="spacing" textLength="12.5" x="218.75" y="9.669">14</text><text fill="#000000" font-family="Dejavu Serif" font-size="10.4167" lengthAdjust="spacing" textLength="12.5" x="235.4167" y="9.669">15</text><text fill="#000000" font-family="Dejavu Serif" font-size="10.4167" lengthAdjust="spacing" textLength="12.5" x="252.0833" y="9.669">16</text><text fill="#000000" font-family="Dejavu Serif" font-size="10.4167" lengthAdjust="spacing" textLength="12.5" x="268.75" y="9.669">17</text><text fill="#000000" font-family="Dejavu Serif" font-size="10.4167" lengthAdjust="spacing" textLength="12.5" x="285.4167" y="9.669">18</text><text fill="#000000" font-family="Dejavu Serif" font-size="10.4167" lengthAdjust="spacing" textLength="12.5" x="302.0833" y="9.669">19</text><text fill="#000000" font-family="Dejavu Serif" font-size="10.4167" lengthAdjust="spacing" textLength="12.5" x="318.75" y="9.669">20</text><text fill="#000000" font-family="Dejavu Serif" font-size="10.4167" lengthAdjust="spacing" textLength="12.5" x="335.4167" y="9.669">21</text><line style="stroke:#657B83;stroke-width:2.0833333333333335;" x1="157.2917" x2="157.2917" y1="32.0882" y2="42.924"/><line style="stroke:#657B83;stroke-width:2.0833333333333335;" x1="157.2917" x2="165.625" y1="42.924" y2="42.924"/><polygon fill="#657B83" points="161.4583,38.7573,161.4583,42.924,161.4583,47.0907,165.625,42.924" style="stroke:#657B83;stroke-width:1.5625;"/><line style="stroke:#657B83;stroke-width:2.0833333333333335;" x1="223.9583" x2="223.9583" y1="49.5931" y2="60.4289"/><line style="stroke:#657B83;stroke-width:2.0833333333333335;" x1="223.9583" x2="232.2917" y1="60.4289" y2="60.4289"/><polygon fill="#657B83" points="228.125,56.2622,228.125,60.4289,228.125,64.5955,232.2917,60.4289" style="stroke:#657B83;stroke-width:1.5625;"/><line style="stroke:#657B83;stroke-width:2.0833333333333335;" x1="223.9583" x2="223.9583" y1="49.5931" y2="77.9338"/><line style="stroke:#657B83;stroke-width:2.0833333333333335;" x1="223.9583" x2="232.2917" y1="77.9338" y2="77.9338"/><polygon fill="#657B83" points="228.125,73.7671,228.125,77.9338,228.125,82.1004,232.2917,77.9338" style="stroke:#657B83;stroke-width:1.5625;"/><line style="stroke:#657B83;stroke-width:2.0833333333333335;" x1="223.9583" x2="223.9583" y1="49.5931" y2="95.4386"/><line style="stroke:#657B83;stroke-width:2.0833333333333335;" x1="223.9583" x2="232.2917" y1="95.4386" y2="95.4386"/><polygon fill="#657B83" points="228.125,91.272,228.125,95.4386,228.125,99.6053,232.2917,95.4386" style="stroke:#657B83;stroke-width:1.5625;"/><line style="stroke:#657B83;stroke-width:2.0833333333333335;" x1="223.9583" x2="223.9583" y1="49.5931" y2="112.9435"/><line style="stroke:#657B83;stroke-width:2.0833333333333335;" x1="223.9583" x2="232.2917" y1="112.9435" y2="112.9435"/><polygon fill="#657B83" points="228.125,108.7769,228.125,112.9435,228.125,117.1102,232.2917,112.9435" style="stroke:#657B83;stroke-width:1.5625;"/><path d="M0,34.1715 L0,88.2406 L101.0417,88.2406 L101.0417,44.5882 L90.625,34.1715 L0,34.1715 " fill="#FFFFCC" style="stroke:#B58900;stroke-width:2.0833333333333335;"/><path d="M90.625,34.1715 L90.625,44.5882 L101.0417,44.5882 L90.625,34.1715 " fill="#FFFFCC" style="stroke:#B58900;stroke-width:2.0833333333333335;"/><text fill="#000000" font-family="Dejavu Serif" font-size="9.375" lengthAdjust="spacing" textLength="47.9167" x="21.875" y="48.082">memo1 ...</text><text fill="#000000" font-family="Dejavu Serif" font-size="9.375" lengthAdjust="spacing" textLength="47.9167" x="21.875" y="58.9951">memo2 ...</text><text fill="#000000" font-family="Dejavu Serif" font-size="9.375" lengthAdjust="spacing" textLength="79.1667" x="6.25" y="69.9081">explanations1 ...</text><text fill="#000000" font-family="Dejavu Serif" font-size="9.375" lengthAdjust="spacing" textLength="79.1667" x="6.25" y="80.8212">explanations2 ...</text><rect fill="#EFEFFF" height="13.3382" rx="7.8125" ry="7.8125" style="stroke:#6C71C4;stroke-width:1.0416666666666667;" width="162.5" x="2.0833" y="18.75"/><rect fill="#EFEFFF" height="13.3382" rx="7.8125" ry="7.8125" style="stroke:#6C71C4;stroke-width:1.0416666666666667;" width="62.5" x="168.75" y="36.2549"/><rect fill="#FDF6E3" height="13.3382" rx="7.8125" ry="7.8125" style="stroke:#6C71C4;stroke-width:1.0416666666666667;" width="112.5" x="235.4167" y="53.7598"/><path d="M263.5417,84.6029 L243.2292,84.6029 A7.8125,7.8125 0 0 1 235.4167,76.7904 L235.4167,79.0771 A7.8125,7.8125 0 0 1 243.2292,71.2646 L263.5417,71.2646 " fill="#EFEFFF" style="stroke:none;stroke-width:1.0416666666666667;"/><path d="M263.5417,71.2646 L340.1042,71.2646 A7.8125,7.8125 0 0 1 347.9167,79.0771 L347.9167,76.7904 A7.8125,7.8125 0 0 1 340.1042,84.6029 L263.5417,84.6029 " fill="#FDF6E3" style="stroke:none;stroke-width:1.0416666666666667;"/><rect fill="none" height="13.3382" rx="7.8125" ry="7.8125" style="stroke:#6C71C4;stroke-width:1.0416666666666667;" width="112.5" x="235.4167" y="71.2646"/><path d="M302.9167,102.1077 L243.2292,102.1077 A7.8125,7.8125 0 0 1 235.4167,94.2952 L235.4167,96.582 A7.8125,7.8125 0 0 1 243.2292,88.7695 L302.9167,88.7695 " fill="#EFEFFF" style="stroke:none;stroke-width:1.0416666666666667;"/><path d="M302.9167,88.7695 L340.1042,88.7695 A7.8125,7.8125 0 0 1 347.9167,96.582 L347.9167,94.2952 A7.8125,7.8125 0 0 1 340.1042,102.1077 L302.9167,102.1077 " fill="#FDF6E3" style="stroke:none;stroke-width:1.0416666666666667;"/><rect fill="none" height="13.3382" rx="7.8125" ry="7.8125" style="stroke:#6C71C4;stroke-width:1.0416666666666667;" width="112.5" x="235.4167" y="88.7695"/><rect fill="#EFEFFF" height="13.3382" rx="7.8125" ry="7.8125" style="stroke:#6C71C4;stroke-width:1.0416666666666667;" width="112.5" x="235.4167" y="106.2744"/><rect fill="#FDF6E3" height="23.7549" style="stroke:none;stroke-width:1.0416666666666667;" width="350" x="0" y="126.9043"/><line style="stroke:#181818;stroke-width:1.0416666666666667;" x1="0" x2="5.2083" y1="138.7817" y2="138.7817"/><line style="stroke:#181818;stroke-width:1.0416666666666667;" x1="104.1667" x2="348.9583" y1="138.7817" y2="138.7817"/><polygon fill="#FFE0E0" points="241.6667,157.9508,246.875,163.1592,241.6667,168.3675,236.4583,163.1592" style="stroke:#DC322F;stroke-width:1.0416666666666667;"/><rect fill="#FDF6E3" height="23.7549" style="stroke:none;stroke-width:1.0416666666666667;" width="350" x="0" y="178.5807"/><line style="stroke:#181818;stroke-width:1.0416666666666667;" x1="0" x2="5.2083" y1="190.4582" y2="190.4582"/><line style="stroke:#181818;stroke-width:1.0416666666666667;" x1="37.5" x2="348.9583" y1="190.4582" y2="190.4582"/><text fill="#000000" font-family="Dejavu Serif" font-size="11.4583" lengthAdjust="spacing" textLength="36.4583" x="6.25" y="29.3859">Task1</text><text fill="#000000" font-family="Dejavu Serif" font-size="11.4583" lengthAdjust="spacing" textLength="36.4583" x="172.9167" y="46.8908">Task2</text><text fill="#000000" font-family="Dejavu Serif" font-size="11.4583" lengthAdjust="spacing" textLength="55.2083" x="239.5833" y="64.3957">Test  000</text><text fill="#000000" font-family="Dejavu Serif" font-size="11.4583" lengthAdjust="spacing" textLength="55.2083" x="239.5833" y="81.9005">Test  025</text><text fill="#000000" font-family="Dejavu Serif" font-size="11.4583" lengthAdjust="spacing" textLength="55.2083" x="239.5833" y="99.4054">Test  060</text><text fill="#000000" font-family="Dejavu Serif" font-size="11.4583" lengthAdjust="spacing" textLength="55.2083" x="239.5833" y="116.9103">Test  100</text><text fill="#000000" font-family="Dejavu Serif" font-size="11.4583" lengthAdjust="spacing" textLength="88.5417" x="10.4167" y="142.7485">Separator title</text><text fill="#000000" font-family="Dejavu Serif" font-size="11.4583" lengthAdjust="spacing" textLength="18.75" x="250" y="168.5867">M1</text><text fill="#000000" font-family="Dejavu Serif" font-size="11.4583" lengthAdjust="spacing" textLength="21.875" x="10.4167" y="194.4249">end</text><text fill="#000000" font-family="Dejavu Serif" font-size="10.4167" lengthAdjust="spacing" textLength="6.25" x="5.2083" y="220.3379">1</text><text fill="#000000" font-family="Dejavu Serif" font-size="10.4167" lengthAdjust="spacing" textLength="6.25" x="21.875" y="220.3379">2</text><text fill="#000000" font-family="Dejavu Serif" font-size="10.4167" lengthAdjust="spacing" textLength="6.25" x="38.5417" y="220.3379">3</text><text fill="#000000" font-family="Dejavu Serif" font-size="10.4167" lengthAdjust="spacing" textLength="6.25" x="55.2083" y="220.3379">4</text><text fill="#000000" font-family="Dejavu Serif" font-size="10.4167" lengthAdjust="spacing" textLength="6.25" x="71.875" y="220.3379">5</text><text fill="#000000" font-family="Dejavu Serif" font-size="10.4167" lengthAdjust="spacing" textLength="6.25" x="88.5417" y="220.3379">6</text><text fill="#000000" font-family="Dejavu Serif" font-size="10.4167" lengthAdjust="spacing" textLength="6.25" x="105.2083" y="220.3379">7</text><text fill="#000000" font-family="Dejavu Serif" font-size="10.4167" lengthAdjust="spacing" textLength="6.25" x="121.875" y="220.3379">8</text><text fill="#000000" font-family="Dejavu Serif" font-size="10.4167" lengthAdjust="spacing" textLength="6.25" x="138.5417" y="220.3379">9</text><text fill="#000000" font-family="Dejavu Serif" font-size="10.4167" lengthAdjust="spacing" textLength="12.5" x="152.0833" y="220.3379">10</text><text fill="#000000" font-family="Dejavu Serif" font-size="10.4167" lengthAdjust="spacing" textLength="12.5" x="168.75" y="220.3379">11</text><text fill="#000000" font-family="Dejavu Serif" font-size="10.4167" lengthAdjust="spacing" textLength="12.5" x="185.4167" y="220.3379">12</text><text fill="#000000" font-family="Dejavu Serif" font-size="10.4167" lengthAdjust="spacing" textLength="12.5" x="202.0833" y="220.3379">13</text><text fill="#000000" font-family="Dejavu Serif" font-size="10.4167" lengthAdjust="spacing" textLength="12.5" x="218.75" y="220.3379">14</text><text fill="#000000" font-family="Dejavu Serif" font-size="10.4167" lengthAdjust="spacing" textLength="12.5" x="235.4167" y="220.3379">15</text><text fill="#000000" font-family="Dejavu Serif" font-size="10.4167" lengthAdjust="spacing" textLength="12.5" x="252.0833" y="220.3379">16</text><text fill="#000000" font-family="Dejavu Serif" font-size="10.4167" lengthAdjust="spacing" textLength="12.5" x="268.75" y="220.3379">17</text><text fill="#000000" font-family="Dejavu Serif" font-size="10.4167" lengthAdjust="spacing" textLength="12.5" x="285.4167" y="220.3379">18</text><text fill="#000000" font-family="Dejavu Serif" font-size="10.4167" lengthAdjust="spacing" textLength="12.5" x="302.0833" y="220.3379">19</text><text fill="#000000" font-family="Dejavu Serif" font-size="10.4167" lengthAdjust="spacing" textLength="12.5" x="318.75" y="220.3379">20</text><text fill="#000000" font-family="Dejavu Serif" font-size="10.4167" lengthAdjust="spacing" textLength="12.5" x="335.4167" y="220.3379">21</text></g></svg>