<svg xmlns="http://www.w3.org/2000/svg" xmlns:xlink="http://www.w3.org/1999/xlink" contentStyleType="text/css" height="268px" preserveAspectRatio="none" style="width:348px;height:268px;background:#282828;" version="1.1" viewBox="0 0 348 268" width="348px" zoomAndPan="magnify"><defs/><g><rect fill="#282828" height="268" style="stroke:none;stroke-width:1.0;" width="348" x="0" y="0"/><rect fill="#282828" height="16" style="stroke:none;stroke-width:1.0;" width="336" x="5" y="5"/><rect fill="#282828" height="16" style="stroke:none;stroke-width:1.0;" width="336" x="5" y="246.2422"/><line style="stroke:#FFB000;stroke-width:1.0;" x1="5" x2="5" y1="11" y2="254.2422"/><line style="stroke:#FFB000;stroke-width:1.0;" x1="21" x2="21" y1="11" y2="254.2422"/><line style="stroke:#FFB000;stroke-width:1.0;" x1="37" x2="37" y1="11" y2="254.2422"/><line style="stroke:#FFB000;stroke-width:1.0;" x1="53" x2="53" y1="11" y2="254.2422"/><line style="stroke:#FFB000;stroke-width:1.0;" x1="69" x2="69" y1="11" y2="254.2422"/><line style="stroke:#FFB000;stroke-width:1.0;" x1="85" x2="85" y1="11" y2="254.2422"/><line style="stroke:#FFB000;stroke-width:1.0;" x1="101" x2="101" y1="11" y2="254.2422"/><line style="stroke:#FFB000;stroke-width:1.0;" x1="117" x2="117" y1="11" y2="254.2422"/><line style="stroke:#FFB000;stroke-width:1.0;" x1="133" x2="133" y1="11" y2="254.2422"/><line style="stroke:#FFB000;stroke-width:1.0;" x1="149" x2="149" y1="11" y2="254.2422"/><line style="stroke:#FFB000;stroke-width:1.0;" x1="165" x2="165" y1="11" y2="254.2422"/><line style="stroke:#FFB000;stroke-width:1.0;" x1="181" x2="181" y1="11" y2="254.2422"/><line style="stroke:#FFB000;stroke-width:1.0;" x1="197" x2="197" y1="11" y2="254.2422"/><line style="stroke:#FFB000;stroke-width:1.0;" x1="213" x2="213" y1="11" y2="254.2422"/><line style="stroke:#FFB000;stroke-width:1.0;" x1="229" x2="229" y1="11" y2="254.2422"/><line style="stroke:#FFB000;stroke-width:1.0;" x1="245" x2="245" y1="11" y2="254.2422"/><line style="stroke:#FFB000;stroke-width:1.0;" x1="261" x2="261" y1="11" y2="254.2422"/><line style="stroke:#FFB000;stroke-width:1.0;" x1="277" x2="277" y1="11" y2="254.2422"/><line style="stroke:#FFB000;stroke-width:1.0;" x1="293" x2="293" y1="11" y2="254.2422"/><line style="stroke:#FFB000;stroke-width:1.0;" x1="309" x2="309" y1="11" y2="254.2422"/><line style="stroke:#FFB000;stroke-width:1.0;" x1="325" x2="325" y1="11" y2="254.2422"/><line style="stroke:#FFB000;stroke-width:1.0;" x1="341" x2="341" y1="11" y2="254.2422"/><text fill="#FFB000" font-family="Verdana" font-size="10" lengthAdjust="spacing" textLength="6" x="10" y="14.2822">1</text><text fill="#FFB000" font-family="Verdana" font-size="10" lengthAdjust="spacing" textLength="6" x="26" y="14.2822">2</text><text fill="#FFB000" font-family="Verdana" font-size="10" lengthAdjust="spacing" textLength="6" x="42" y="14.2822">3</text><text fill="#FFB000" font-family="Verdana" font-size="10" lengthAdjust="spacing" textLength="6" x="58" y="14.2822">4</text><text fill="#FFB000" font-family="Verdana" font-size="10" lengthAdjust="spacing" textLength="6" x="74" y="14.2822">5</text><text fill="#FFB000" font-family="Verdana" font-size="10" lengthAdjust="spacing" textLength="6" x="90" y="14.2822">6</text><text fill="#FFB000" font-family="Verdana" font-size="10" lengthAdjust="spacing" textLength="6" x="106" y="14.2822">7</text><text fill="#FFB000" font-family="Verdana" font-size="10" lengthAdjust="spacing" textLength="6" x="122" y="14.2822">8</text><text fill="#FFB000" font-family="Verdana" font-size="10" lengthAdjust="spacing" textLength="6" x="138" y="14.2822">9</text><text fill="#FFB000" font-family="Verdana" font-size="10" lengthAdjust="spacing" textLength="12" x="151" y="14.2822">10</text><text fill="#FFB000" font-family="Verdana" font-size="10" lengthAdjust="spacing" textLength="12" x="167" y="14.2822">11</text><text fill="#FFB000" font-family="Verdana" font-size="10" lengthAdjust="spacing" textLength="12" x="183" y="14.2822">12</text><text fill="#FFB000" font-family="Verdana" font-size="10" lengthAdjust="spacing" textLength="12" x="199" y="14.2822">13</text><text fill="#FFB000" font-family="Verdana" font-size="10" lengthAdjust="spacing" textLength="12" x="215" y="14.2822">14</text><text fill="#FFB000" font-family="Verdana" font-size="10" lengthAdjust="spacing" textLength="12" x="231" y="14.2822">15</text><text fill="#FFB000" font-family="Verdana" font-size="10" lengthAdjust="spacing" textLength="12" x="247" y="14.2822">16</text><text fill="#FFB000" font-family="Verdana" font-size="10" lengthAdjust="spacing" textLength="12" x="263" y="14.2822">17</text><text fill="#FFB000" font-family="Verdana" font-size="10" lengthAdjust="spacing" textLength="12" x="279" y="14.2822">18</text><text fill="#FFB000" font-family="Verdana" font-size="10" lengthAdjust="spacing" textLength="12" x="295" y="14.2822">19</text><text fill="#FFB000" font-family="Verdana" font-size="10" lengthAdjust="spacing" textLength="12" x="311" y="14.2822">20</text><text fill="#FFB000" font-family="Verdana" font-size="10" lengthAdjust="spacing" textLength="12" x="327" y="14.2822">21</text><line style="stroke:#FFB000;stroke-width:1.0;" x1="156" x2="156" y1="38.8047" y2="55.207"/><line style="stroke:#FFB000;stroke-width:1.0;" x1="156" x2="164" y1="55.207" y2="55.207"/><polygon fill="#FFB000" points="160,51.207,160,55.207,160,59.207,164,55.207" style="stroke:#FFB000;stroke-width:1.5;"/><line style="stroke:#FFB000;stroke-width:1.0;" x1="220" x2="220" y1="61.6094" y2="78.0117"/><line style="stroke:#FFB000;stroke-width:1.0;" x1="220" x2="228" y1="78.0117" y2="78.0117"/><polygon fill="#FFB000" points="224,74.0117,224,78.0117,224,82.0117,228,78.0117" style="stroke:#FFB000;stroke-width:1.5;"/><line style="stroke:#FFB000;stroke-width:1.0;" x1="220" x2="220" y1="61.6094" y2="100.8164"/><line style="stroke:#FFB000;stroke-width:1.0;" x1="220" x2="228" y1="100.8164" y2="100.8164"/><polygon fill="#FFB000" points="224,96.8164,224,100.8164,224,104.8164,228,100.8164" style="stroke:#FFB000;stroke-width:1.5;"/><line style="stroke:#FFB000;stroke-width:1.0;" x1="220" x2="220" y1="61.6094" y2="123.6211"/><line style="stroke:#FFB000;stroke-width:1.0;" x1="220" x2="228" y1="123.6211" y2="123.6211"/><polygon fill="#FFB000" points="224,119.6211,224,123.6211,224,127.6211,228,123.6211" style="stroke:#FFB000;stroke-width:1.5;"/><line style="stroke:#FFB000;stroke-width:1.0;" x1="220" x2="220" y1="61.6094" y2="146.4258"/><line style="stroke:#FFB000;stroke-width:1.0;" x1="220" x2="228" y1="146.4258" y2="146.4258"/><polygon fill="#FFB000" points="224,142.4258,224,146.4258,224,150.4258,228,146.4258" style="stroke:#FFB000;stroke-width:1.5;"/><path d="M5,43.8047 L5,95.7109 L106,95.7109 L106,53.8047 L96,43.8047 L5,43.8047 " fill="#282828" style="stroke:#FFB000;stroke-width:1.0;"/><path d="M96,43.8047 L96,53.8047 L106,53.8047 L96,43.8047 " fill="#282828" style="stroke:#FFB000;stroke-width:1.0;"/><text fill="#FFB000" font-family="Verdana" font-size="9" lengthAdjust="spacing" textLength="48" x="11" y="57.1587">memo1 ...</text><text fill="#FFB000" font-family="Verdana" font-size="9" lengthAdjust="spacing" textLength="48" x="11" y="67.6353">memo2 ...</text><text fill="#FFB000" font-family="Verdana" font-size="9" lengthAdjust="spacing" textLength="80" x="11" y="78.1118">explanations1 ...</text><text fill="#FFB000" font-family="Verdana" font-size="9" lengthAdjust="spacing" textLength="80" x="11" y="88.5884">explanations2 ...</text><rect fill="#282828" height="12.8047" style="stroke:none;stroke-width:1.0;" width="150" x="10" y="26"/><line style="stroke:#FFB000;stroke-width:1.0;" x1="10" x2="160" y1="26" y2="26"/><line style="stroke:#FFB000;stroke-width:1.0;" x1="10" x2="160" y1="38.8047" y2="38.8047"/><line style="stroke:#FFB000;stroke-width:1.0;" x1="10" x2="10" y1="26" y2="38.8047"/><line style="stroke:#FFB000;stroke-width:1.0;" x1="160" x2="160" y1="26" y2="38.8047"/><rect fill="#282828" height="12.8047" style="stroke:none;stroke-width:1.0;" width="54" x="170" y="48.8047"/><line style="stroke:#FFB000;stroke-width:1.0;" x1="170" x2="224" y1="48.8047" y2="48.8047"/><line style="stroke:#FFB000;stroke-width:1.0;" x1="170" x2="224" y1="61.6094" y2="61.6094"/><line style="stroke:#FFB000;stroke-width:1.0;" x1="170" x2="170" y1="48.8047" y2="61.6094"/><line style="stroke:#FFB000;stroke-width:1.0;" x1="224" x2="224" y1="48.8047" y2="61.6094"/><rect fill="#282828" height="12.8047" style="stroke:none;stroke-width:1.0;" width="102" x="234" y="71.6094"/><line style="stroke:#FFB000;stroke-width:1.0;" x1="234" x2="336" y1="71.6094" y2="71.6094"/><line style="stroke:#FFB000;stroke-width:1.0;" x1="234" x2="336" y1="84.4141" y2="84.4141"/><line style="stroke:#FFB000;stroke-width:1.0;" x1="234" x2="234" y1="71.6094" y2="84.4141"/><line style="stroke:#FFB000;stroke-width:1.0;" x1="336" x2="336" y1="71.6094" y2="84.4141"/><rect fill="#282828" height="12.8047" style="stroke:none;stroke-width:1.0;" width="25.5" x="234" y="94.4141"/><rect fill="#282828" height="12.8047" style="stroke:none;stroke-width:1.0;" width="76.5" x="259.5" y="94.4141"/><line style="stroke:#FFB000;stroke-width:1.0;" x1="234" x2="336" y1="94.4141" y2="94.4141"/><line style="stroke:#FFB000;stroke-width:1.0;" x1="234" x2="336" y1="107.2188" y2="107.2188"/><line style="stroke:#FFB000;stroke-width:1.0;" x1="234" x2="234" y1="94.4141" y2="107.2188"/><line style="stroke:#FFB000;stroke-width:1.0;" x1="336" x2="336" y1="94.4141" y2="107.2188"/><rect fill="#282828" height="12.8047" style="stroke:none;stroke-width:1.0;" width="61.2" x="234" y="117.2188"/><rect fill="#282828" height="12.8047" style="stroke:none;stroke-width:1.0;" width="40.8" x="295.2" y="117.2188"/><line style="stroke:#FFB000;stroke-width:1.0;" x1="234" x2="336" y1="117.2188" y2="117.2188"/><line style="stroke:#FFB000;stroke-width:1.0;" x1="234" x2="336" y1="130.0234" y2="130.0234"/><line style="stroke:#FFB000;stroke-width:1.0;" x1="234" x2="234" y1="117.2188" y2="130.0234"/><line style="stroke:#FFB000;stroke-width:1.0;" x1="336" x2="336" y1="117.2188" y2="130.0234"/><rect fill="#282828" height="12.8047" style="stroke:none;stroke-width:1.0;" width="102" x="234" y="140.0234"/><line style="stroke:#FFB000;stroke-width:1.0;" x1="234" x2="336" y1="140.0234" y2="140.0234"/><line style="stroke:#FFB000;stroke-width:1.0;" x1="234" x2="336" y1="152.8281" y2="152.8281"/><line style="stroke:#FFB000;stroke-width:1.0;" x1="234" x2="234" y1="140.0234" y2="152.8281"/><line style="stroke:#FFB000;stroke-width:1.0;" x1="336" x2="336" y1="140.0234" y2="152.8281"/><rect fill="#FFB000" height="22.8047" style="stroke:none;stroke-width:1.0;" width="336" x="5" y="162.8281"/><line style="stroke:#FFB000;stroke-width:1.0;" x1="5" x2="10" y1="174.2305" y2="174.2305"/><line style="stroke:#FFB000;stroke-width:1.0;" x1="113" x2="340" y1="174.2305" y2="174.2305"/><polygon fill="#282828" points="237,195.6328,242,200.6328,237,205.6328,232,200.6328" style="stroke:#FFB000;stroke-width:1.0;"/><rect fill="#FFB000" height="22.8047" style="stroke:none;stroke-width:1.0;" width="336" x="5" y="218.4375"/><line style="stroke:#FFB000;stroke-width:1.0;" x1="5" x2="10" y1="229.8398" y2="229.8398"/><line style="stroke:#FFB000;stroke-width:1.0;" x1="44" x2="340" y1="229.8398" y2="229.8398"/><text fill="#FFB000" font-family="Verdana" font-size="11" lengthAdjust="spacing" textLength="34" x="11" y="36.2104">Task1</text><text fill="#FFB000" font-family="Verdana" font-size="11" lengthAdjust="spacing" textLength="34" x="171" y="59.0151">Task2</text><text fill="#FFB000" font-family="Verdana" font-size="11" lengthAdjust="spacing" textLength="54" x="235" y="81.8198">Test  000</text><text fill="#FFB000" font-family="Verdana" font-size="11" lengthAdjust="spacing" textLength="54" x="235" y="104.6245">Test  025</text><text fill="#FFB000" font-family="Verdana" font-size="11" lengthAdjust="spacing" textLength="54" x="235" y="127.4292">Test  060</text><text fill="#FFB000" font-family="Verdana" font-size="11" lengthAdjust="spacing" textLength="54" x="235" y="150.2339">Test  100</text><text fill="#282828" font-family="Verdana" font-size="11" font-weight="bold" lengthAdjust="spacing" textLength="93" x="15" y="178.0386">Separator title</text><text fill="#FFB000" font-family="Verdana" font-size="11" lengthAdjust="spacing" textLength="16" x="245" y="205.8433">M1</text><text fill="#282828" font-family="Verdana" font-size="11" font-weight="bold" lengthAdjust="spacing" textLength="24" x="15" y="233.6479">end</text><text fill="#FFB000" font-family="Verdana" font-size="10" lengthAdjust="spacing" textLength="6" x="10" y="258.5244">1</text><text fill="#FFB000" font-family="Verdana" font-size="10" lengthAdjust="spacing" textLength="6" x="26" y="258.5244">2</text><text fill="#FFB000" font-family="Verdana" font-size="10" lengthAdjust="spacing" textLength="6" x="42" y="258.5244">3</text><text fill="#FFB000" font-family="Verdana" font-size="10" lengthAdjust="spacing" textLength="6" x="58" y="258.5244">4</text><text fill="#FFB000" font-family="Verdana" font-size="10" lengthAdjust="spacing" textLength="6" x="74" y="258.5244">5</text><text fill="#FFB000" font-family="Verdana" font-size="10" lengthAdjust="spacing" textLength="6" x="90" y="258.5244">6</text><text fill="#FFB000" font-family="Verdana" font-size="10" lengthAdjust="spacing" textLength="6" x="106" y="258.5244">7</text><text fill="#FFB000" font-family="Verdana" font-size="10" lengthAdjust="spacing" textLength="6" x="122" y="258.5244">8</text><text fill="#FFB000" font-family="Verdana" font-size="10" lengthAdjust="spacing" textLength="6" x="138" y="258.5244">9</text><text fill="#FFB000" font-family="Verdana" font-size="10" lengthAdjust="spacing" textLength="12" x="151" y="258.5244">10</text><text fill="#FFB000" font-family="Verdana" font-size="10" lengthAdjust="spacing" textLength="12" x="167" y="258.5244">11</text><text fill="#FFB000" font-family="Verdana" font-size="10" lengthAdjust="spacing" textLength="12" x="183" y="258.5244">12</text><text fill="#FFB000" font-family="Verdana" font-size="10" lengthAdjust="spacing" textLength="12" x="199" y="258.5244">13</text><text fill="#FFB000" font-family="Verdana" font-size="10" lengthAdjust="spacing" textLength="12" x="215" y="258.5244">14</text><text fill="#FFB000" font-family="Verdana" font-size="10" lengthAdjust="spacing" textLength="12" x="231" y="258.5244">15</text><text fill="#FFB000" font-family="Verdana" font-size="10" lengthAdjust="spacing" textLength="12" x="247" y="258.5244">16</text><text fill="#FFB000" font-family="Verdana" font-size="10" lengthAdjust="spacing" textLength="12" x="263" y="258.5244">17</text><text fill="#FFB000" font-family="Verdana" font-size="10" lengthAdjust="spacing" textLength="12" x="279" y="258.5244">18</text><text fill="#FFB000" font-family="Verdana" font-size="10" lengthAdjust="spacing" textLength="12" x="295" y="258.5244">19</text><text fill="#FFB000" font-family="Verdana" font-size="10" lengthAdjust="spacing" textLength="12" x="311" y="258.5244">20</text><text fill="#FFB000" font-family="Verdana" font-size="10" lengthAdjust="spacing" textLength="12" x="327" y="258.5244">21</text></g></svg>