<?xml version="1.0" encoding="UTF-8" standalone="no"?><svg xmlns="http://www.w3.org/2000/svg" xmlns:xlink="http://www.w3.org/1999/xlink" contentStyleType="text/css" height="519.7917px" preserveAspectRatio="none" style="width:423px;height:519px;" version="1.1" viewBox="0 0 423 519" width="423.9583px" zoomAndPan="magnify"><defs><linearGradient id="g16k1fag59jkcn0" x1="50%" x2="50%" y1="0%" y2="100%"><stop offset="0%" stop-color="#5C85AD"/><stop offset="100%" stop-color="#336699"/></linearGradient><linearGradient id="g16k1fag59jkcn1" x1="50%" x2="50%" y1="0%" y2="100%"><stop offset="0%" stop-color="#EEEEEE"/><stop offset="100%" stop-color="#BEBEBE"/></linearGradient><linearGradient id="g16k1fag59jkcn2" x1="50%" x2="50%" y1="0%" y2="100%"><stop offset="0%" stop-color="#FFFFFF"/><stop offset="100%" stop-color="#FFFFFF"/></linearGradient></defs><g><rect fill="#D6D6D6" height="42.7083" style="stroke:none;stroke-width:1.0416666666666667;" width="400" x="10.4167" y="10.4167"/><rect fill="#D6D6D6" height="39.5833" style="stroke:none;stroke-width:1.0416666666666667;" width="400" x="10.4167" y="469.5313"/><rect fill="#CC8B35" height="416.4063" style="stroke:none;stroke-width:1.0416666666666667;" width="16.6667" x="110.4167" y="53.125"/><rect fill="#CC8B35" height="416.4063" style="stroke:none;stroke-width:1.0416666666666667;" width="16.6667" x="227.0833" y="53.125"/><rect fill="#CC8B35" height="416.4063" style="stroke:none;stroke-width:1.0416666666666667;" width="16.6667" x="343.75" y="53.125"/><text fill="#FFFFFF" font-family="Serif" font-size="10.4167" lengthAdjust="spacing" textLength="16.6667" x="10.4167" y="36.7523">Mo</text><text fill="#FFFFFF" font-family="Serif" font-size="10.4167" lengthAdjust="spacing" textLength="14.5833" x="28.125" y="36.7523">Tu</text><text fill="#FFFFFF" font-family="Serif" font-size="10.4167" lengthAdjust="spacing" textLength="17.7083" x="43.75" y="36.7523">We</text><text fill="#FFFFFF" font-family="Serif" font-size="10.4167" lengthAdjust="spacing" textLength="14.5833" x="61.4583" y="36.7523">Th</text><text fill="#FFFFFF" font-family="Serif" font-size="10.4167" lengthAdjust="spacing" textLength="12.5" x="79.1667" y="36.7523">Fr</text><text fill="#FFFFFF" font-family="Serif" font-size="10.4167" lengthAdjust="spacing" textLength="11.4583" x="96.3542" y="36.7523">Sa</text><text fill="#FFFFFF" font-family="Serif" font-size="10.4167" lengthAdjust="spacing" textLength="12.5" x="112.5" y="36.7523">Su</text><text fill="#FFFFFF" font-family="Serif" font-size="10.4167" lengthAdjust="spacing" textLength="16.6667" x="127.0833" y="36.7523">Mo</text><text fill="#FFFFFF" font-family="Serif" font-size="10.4167" lengthAdjust="spacing" textLength="14.5833" x="144.7917" y="36.7523">Tu</text><text fill="#FFFFFF" font-family="Serif" font-size="10.4167" lengthAdjust="spacing" textLength="17.7083" x="160.4167" y="36.7523">We</text><text fill="#FFFFFF" font-family="Serif" font-size="10.4167" lengthAdjust="spacing" textLength="14.5833" x="178.125" y="36.7523">Th</text><text fill="#FFFFFF" font-family="Serif" font-size="10.4167" lengthAdjust="spacing" textLength="12.5" x="195.8333" y="36.7523">Fr</text><text fill="#FFFFFF" font-family="Serif" font-size="10.4167" lengthAdjust="spacing" textLength="11.4583" x="213.0208" y="36.7523">Sa</text><text fill="#FFFFFF" font-family="Serif" font-size="10.4167" lengthAdjust="spacing" textLength="12.5" x="229.1667" y="36.7523">Su</text><text fill="#FFFFFF" font-family="Serif" font-size="10.4167" lengthAdjust="spacing" textLength="16.6667" x="243.75" y="36.7523">Mo</text><text fill="#FFFFFF" font-family="Serif" font-size="10.4167" lengthAdjust="spacing" textLength="14.5833" x="261.4583" y="36.7523">Tu</text><text fill="#FFFFFF" font-family="Serif" font-size="10.4167" lengthAdjust="spacing" textLength="17.7083" x="277.0833" y="36.7523">We</text><text fill="#FFFFFF" font-family="Serif" font-size="10.4167" lengthAdjust="spacing" textLength="14.5833" x="294.7917" y="36.7523">Th</text><text fill="#FFFFFF" font-family="Serif" font-size="10.4167" lengthAdjust="spacing" textLength="12.5" x="312.5" y="36.7523">Fr</text><text fill="#FFFFFF" font-family="Serif" font-size="10.4167" lengthAdjust="spacing" textLength="11.4583" x="329.6875" y="36.7523">Sa</text><text fill="#FFFFFF" font-family="Serif" font-size="10.4167" lengthAdjust="spacing" textLength="12.5" x="345.8333" y="36.7523">Su</text><text fill="#FFFFFF" font-family="Serif" font-size="10.4167" lengthAdjust="spacing" textLength="16.6667" x="360.4167" y="36.7523">Mo</text><text fill="#FFFFFF" font-family="Serif" font-size="10.4167" lengthAdjust="spacing" textLength="14.5833" x="378.125" y="36.7523">Tu</text><text fill="#FFFFFF" font-family="Serif" font-size="10.4167" lengthAdjust="spacing" textLength="17.7083" x="393.75" y="36.7523">We</text><text fill="#FFFFFF" font-family="Serif" font-size="10.4167" lengthAdjust="spacing" textLength="12.5" x="12.5" y="49.2523">14</text><text fill="#FFFFFF" font-family="Serif" font-size="10.4167" lengthAdjust="spacing" textLength="12.5" x="29.1667" y="49.2523">15</text><text fill="#FFFFFF" font-family="Serif" font-size="10.4167" lengthAdjust="spacing" textLength="12.5" x="45.8333" y="49.2523">16</text><text fill="#FFFFFF" font-family="Serif" font-size="10.4167" lengthAdjust="spacing" textLength="12.5" x="62.5" y="49.2523">17</text><text fill="#FFFFFF" font-family="Serif" font-size="10.4167" lengthAdjust="spacing" textLength="12.5" x="79.1667" y="49.2523">18</text><text fill="#FFFFFF" font-family="Serif" font-size="10.4167" lengthAdjust="spacing" textLength="12.5" x="95.8333" y="49.2523">19</text><text fill="#FFFFFF" font-family="Serif" font-size="10.4167" lengthAdjust="spacing" textLength="12.5" x="112.5" y="49.2523">20</text><text fill="#FFFFFF" font-family="Serif" font-size="10.4167" lengthAdjust="spacing" textLength="12.5" x="129.1667" y="49.2523">21</text><text fill="#FFFFFF" font-family="Serif" font-size="10.4167" lengthAdjust="spacing" textLength="12.5" x="145.8333" y="49.2523">22</text><text fill="#FFFFFF" font-family="Serif" font-size="10.4167" lengthAdjust="spacing" textLength="12.5" x="162.5" y="49.2523">23</text><text fill="#FFFFFF" font-family="Serif" font-size="10.4167" lengthAdjust="spacing" textLength="12.5" x="179.1667" y="49.2523">24</text><text fill="#FFFFFF" font-family="Serif" font-size="10.4167" lengthAdjust="spacing" textLength="12.5" x="195.8333" y="49.2523">25</text><text fill="#FFFFFF" font-family="Serif" font-size="10.4167" lengthAdjust="spacing" textLength="12.5" x="212.5" y="49.2523">26</text><text fill="#FFFFFF" font-family="Serif" font-size="10.4167" lengthAdjust="spacing" textLength="12.5" x="229.1667" y="49.2523">27</text><text fill="#FFFFFF" font-family="Serif" font-size="10.4167" lengthAdjust="spacing" textLength="12.5" x="245.8333" y="49.2523">28</text><text fill="#FFFFFF" font-family="Serif" font-size="10.4167" lengthAdjust="spacing" textLength="12.5" x="262.5" y="49.2523">29</text><text fill="#FFFFFF" font-family="Serif" font-size="10.4167" lengthAdjust="spacing" textLength="12.5" x="279.1667" y="49.2523">30</text><text fill="#FFFFFF" font-family="Serif" font-size="10.4167" lengthAdjust="spacing" textLength="12.5" x="295.8333" y="49.2523">31</text><text fill="#FFFFFF" font-family="Serif" font-size="10.4167" lengthAdjust="spacing" textLength="6.25" x="315.625" y="49.2523">1</text><text fill="#FFFFFF" font-family="Serif" font-size="10.4167" lengthAdjust="spacing" textLength="6.25" x="332.2917" y="49.2523">2</text><text fill="#FFFFFF" font-family="Serif" font-size="10.4167" lengthAdjust="spacing" textLength="6.25" x="348.9583" y="49.2523">3</text><text fill="#FFFFFF" font-family="Serif" font-size="10.4167" lengthAdjust="spacing" textLength="6.25" x="365.625" y="49.2523">4</text><text fill="#FFFFFF" font-family="Serif" font-size="10.4167" lengthAdjust="spacing" textLength="6.25" x="382.2917" y="49.2523">5</text><text fill="#FFFFFF" font-family="Serif" font-size="10.4167" lengthAdjust="spacing" textLength="6.25" x="398.9583" y="49.2523">6</text><text fill="#FFFFFF" font-family="Serif" font-size="12.5" font-weight="bold" lengthAdjust="spacing" textLength="110.4167" x="105.2083" y="22.1537">December 2020</text><text fill="#FFFFFF" font-family="Serif" font-size="12.5" font-weight="bold" lengthAdjust="spacing" textLength="92.7083" x="314.0625" y="22.1537">January 2021</text><line style="stroke:#BEBEBE;stroke-width:1.0416666666666667;" x1="10.4167" x2="10.4167" y1="53.125" y2="469.5313"/><line style="stroke:#BEBEBE;stroke-width:1.0416666666666667;" x1="27.0833" x2="27.0833" y1="53.125" y2="469.5313"/><line style="stroke:#BEBEBE;stroke-width:1.0416666666666667;" x1="43.75" x2="43.75" y1="53.125" y2="469.5313"/><line style="stroke:#BEBEBE;stroke-width:1.0416666666666667;" x1="60.4167" x2="60.4167" y1="53.125" y2="469.5313"/><line style="stroke:#BEBEBE;stroke-width:1.0416666666666667;" x1="77.0833" x2="77.0833" y1="53.125" y2="469.5313"/><line style="stroke:#BEBEBE;stroke-width:1.0416666666666667;" x1="93.75" x2="93.75" y1="53.125" y2="469.5313"/><line style="stroke:#BEBEBE;stroke-width:1.0416666666666667;" x1="110.4167" x2="110.4167" y1="53.125" y2="469.5313"/><line style="stroke:#BEBEBE;stroke-width:1.0416666666666667;" x1="127.0833" x2="127.0833" y1="53.125" y2="469.5313"/><line style="stroke:#BEBEBE;stroke-width:1.0416666666666667;" x1="143.75" x2="143.75" y1="53.125" y2="469.5313"/><line style="stroke:#BEBEBE;stroke-width:1.0416666666666667;" x1="160.4167" x2="160.4167" y1="53.125" y2="469.5313"/><line style="stroke:#BEBEBE;stroke-width:1.0416666666666667;" x1="177.0833" x2="177.0833" y1="53.125" y2="469.5313"/><line style="stroke:#BEBEBE;stroke-width:1.0416666666666667;" x1="193.75" x2="193.75" y1="53.125" y2="469.5313"/><line style="stroke:#BEBEBE;stroke-width:1.0416666666666667;" x1="210.4167" x2="210.4167" y1="53.125" y2="469.5313"/><line style="stroke:#BEBEBE;stroke-width:1.0416666666666667;" x1="227.0833" x2="227.0833" y1="53.125" y2="469.5313"/><line style="stroke:#BEBEBE;stroke-width:1.0416666666666667;" x1="243.75" x2="243.75" y1="53.125" y2="469.5313"/><line style="stroke:#BEBEBE;stroke-width:1.0416666666666667;" x1="260.4167" x2="260.4167" y1="53.125" y2="469.5313"/><line style="stroke:#BEBEBE;stroke-width:1.0416666666666667;" x1="277.0833" x2="277.0833" y1="53.125" y2="469.5313"/><line style="stroke:#BEBEBE;stroke-width:1.0416666666666667;" x1="293.75" x2="293.75" y1="53.125" y2="469.5313"/><line style="stroke:#BEBEBE;stroke-width:1.0416666666666667;" x1="310.4167" x2="310.4167" y1="53.125" y2="469.5313"/><line style="stroke:#BEBEBE;stroke-width:1.0416666666666667;" x1="327.0833" x2="327.0833" y1="53.125" y2="469.5313"/><line style="stroke:#BEBEBE;stroke-width:1.0416666666666667;" x1="343.75" x2="343.75" y1="53.125" y2="469.5313"/><line style="stroke:#BEBEBE;stroke-width:1.0416666666666667;" x1="360.4167" x2="360.4167" y1="53.125" y2="469.5313"/><line style="stroke:#BEBEBE;stroke-width:1.0416666666666667;" x1="377.0833" x2="377.0833" y1="53.125" y2="469.5313"/><line style="stroke:#BEBEBE;stroke-width:1.0416666666666667;" x1="393.75" x2="393.75" y1="53.125" y2="469.5313"/><line style="stroke:#BEBEBE;stroke-width:1.0416666666666667;" x1="410.4167" x2="410.4167" y1="53.125" y2="469.5313"/><line style="stroke:#BEBEBE;stroke-width:1.0416666666666667;" x1="10.4167" x2="410.4167" y1="53.125" y2="53.125"/><line style="stroke:#BEBEBE;stroke-width:1.0416666666666667;" x1="10.4167" x2="410.4167" y1="469.5313" y2="469.5313"/><line style="stroke:#EEEEEE;stroke-width:3.125;" x1="184.375" x2="184.375" y1="90.5924" y2="124.9512"/><line style="stroke:#EEEEEE;stroke-width:3.125;" x1="184.375" x2="192.7083" y1="124.9512" y2="124.9512"/><polygon fill="#EEEEEE" points="188.5417,120.7845,188.5417,124.9512,188.5417,129.1178,192.7083,124.9512" style="stroke:#EEEEEE;stroke-width:1.5625;"/><line style="stroke:#EEEEEE;stroke-width:3.125;" x1="267.7083" x2="267.7083" y1="138.4766" y2="172.8353"/><line style="stroke:#EEEEEE;stroke-width:3.125;" x1="267.7083" x2="276.0417" y1="172.8353" y2="172.8353"/><polygon fill="#EEEEEE" points="271.875,168.6686,271.875,172.8353,271.875,177.002,276.0417,172.8353" style="stroke:#EEEEEE;stroke-width:1.5625;"/><line style="stroke:#EEEEEE;stroke-width:3.125;" x1="267.7083" x2="267.7083" y1="138.4766" y2="220.7194"/><line style="stroke:#EEEEEE;stroke-width:3.125;" x1="267.7083" x2="276.0417" y1="220.7194" y2="220.7194"/><polygon fill="#EEEEEE" points="271.875,216.5527,271.875,220.7194,271.875,224.8861,276.0417,220.7194" style="stroke:#EEEEEE;stroke-width:1.5625;"/><line style="stroke:#EEEEEE;stroke-width:3.125;" x1="267.7083" x2="267.7083" y1="138.4766" y2="268.6035"/><line style="stroke:#EEEEEE;stroke-width:3.125;" x1="267.7083" x2="276.0417" y1="268.6035" y2="268.6035"/><polygon fill="#EEEEEE" points="271.875,264.4368,271.875,268.6035,271.875,272.7702,276.0417,268.6035" style="stroke:#EEEEEE;stroke-width:1.5625;"/><line style="stroke:#EEEEEE;stroke-width:3.125;" x1="267.7083" x2="267.7083" y1="138.4766" y2="316.4876"/><line style="stroke:#EEEEEE;stroke-width:3.125;" x1="267.7083" x2="276.0417" y1="316.4876" y2="316.4876"/><polygon fill="#EEEEEE" points="271.875,312.321,271.875,316.4876,271.875,320.6543,276.0417,316.4876" style="stroke:#EEEEEE;stroke-width:1.5625;"/><path d="M10.4167,101.0091 L10.4167,182.1289 L153.125,182.1289 L153.125,111.4258 L142.7083,101.0091 L10.4167,101.0091 " fill="url(#g16k1fag59jkcn0)" style="stroke:#29527A;stroke-width:1.0416666666666667;"/><path d="M142.7083,101.0091 L142.7083,111.4258 L153.125,111.4258 L142.7083,101.0091 " fill="url(#g16k1fag59jkcn0)" style="stroke:#29527A;stroke-width:1.0416666666666667;"/><text fill="#FFFFFF" font-family="&quot;Verdana&quot;" font-size="12.5" lengthAdjust="spacing" textLength="64.5833" x="22.9167" y="124.0702">memo1 ...</text><text fill="#FFFFFF" font-family="&quot;Verdana&quot;" font-size="12.5" lengthAdjust="spacing" textLength="64.5833" x="22.9167" y="138.621">memo2 ...</text><text fill="#FFFFFF" font-family="&quot;Verdana&quot;" font-size="12.5" lengthAdjust="spacing" textLength="108.3333" x="22.9167" y="153.1718">explanations1 ...</text><text fill="#FFFFFF" font-family="&quot;Verdana&quot;" font-size="12.5" lengthAdjust="spacing" textLength="108.3333" x="22.9167" y="167.7226">explanations2 ...</text><path d="M110.4167,90.5924 L28.6458,90.5924 A7.8125,7.8125 0 0 1 20.8333,82.7799 L20.8333,71.3542 A7.8125,7.8125 0 0 1 28.6458,63.5417 L110.4167,63.5417 " fill="url(#g16k1fag59jkcn1)" style="stroke:#EEEEEE;stroke-width:1.0416666666666667;"/><path d="M127.0833,63.5417 L175.5208,63.5417 A7.8125,7.8125 0 0 1 183.3333,71.3542 L183.3333,82.7799 A7.8125,7.8125 0 0 1 175.5208,90.5924 L127.0833,90.5924 " fill="url(#g16k1fag59jkcn1)" style="stroke:#EEEEEE;stroke-width:1.0416666666666667;"/><line style="stroke:#EEEEEE;stroke-width:1.0416666666666667;stroke-dasharray:2.0,3.0;" x1="113.5417" x2="123.9583" y1="63.5417" y2="63.5417"/><line style="stroke:#EEEEEE;stroke-width:1.0416666666666667;stroke-dasharray:2.0,3.0;" x1="113.5417" x2="123.9583" y1="90.5924" y2="90.5924"/><path d="M227.0833,138.4766 L211.9792,138.4766 A7.8125,7.8125 0 0 1 204.1667,130.6641 L204.1667,119.2383 A7.8125,7.8125 0 0 1 211.9792,111.4258 L227.0833,111.4258 " fill="url(#g16k1fag59jkcn1)" style="stroke:#EEEEEE;stroke-width:1.0416666666666667;"/><path d="M243.75,111.4258 L258.8542,111.4258 A7.8125,7.8125 0 0 1 266.6667,119.2383 L266.6667,130.6641 A7.8125,7.8125 0 0 1 258.8542,138.4766 L243.75,138.4766 " fill="url(#g16k1fag59jkcn1)" style="stroke:#EEEEEE;stroke-width:1.0416666666666667;"/><line style="stroke:#EEEEEE;stroke-width:1.0416666666666667;stroke-dasharray:2.0,3.0;" x1="230.2083" x2="240.625" y1="111.4258" y2="111.4258"/><line style="stroke:#EEEEEE;stroke-width:1.0416666666666667;stroke-dasharray:2.0,3.0;" x1="230.2083" x2="240.625" y1="138.4766" y2="138.4766"/><path d="M343.75,186.3607 L295.3125,186.3607 A7.8125,7.8125 0 0 1 287.5,178.5482 L287.5,167.1224 A7.8125,7.8125 0 0 1 295.3125,159.3099 L343.75,159.3099 " fill="url(#g16k1fag59jkcn1)" style="stroke:#EEEEEE;stroke-width:1.0416666666666667;"/><path d="M360.4167,159.3099 L392.1875,159.3099 A7.8125,7.8125 0 0 1 400,167.1224 L400,178.5482 A7.8125,7.8125 0 0 1 392.1875,186.3607 L360.4167,186.3607 " fill="url(#g16k1fag59jkcn1)" style="stroke:#EEEEEE;stroke-width:1.0416666666666667;"/><line style="stroke:#EEEEEE;stroke-width:1.0416666666666667;stroke-dasharray:2.0,3.0;" x1="346.875" x2="357.2917" y1="159.3099" y2="159.3099"/><line style="stroke:#EEEEEE;stroke-width:1.0416666666666667;stroke-dasharray:2.0,3.0;" x1="346.875" x2="357.2917" y1="186.3607" y2="186.3607"/><path d="M343.75,234.2448 L295.3125,234.2448 A7.8125,7.8125 0 0 1 287.5,226.4323 L287.5,215.0065 A7.8125,7.8125 0 0 1 295.3125,207.194 L343.75,207.194 " fill="url(#g16k1fag59jkcn1)" style="stroke:#EEEEEE;stroke-width:1.0416666666666667;"/><path d="M360.4167,207.194 L392.1875,207.194 A7.8125,7.8125 0 0 1 400,215.0065 L400,226.4323 A7.8125,7.8125 0 0 1 392.1875,234.2448 L360.4167,234.2448 " fill="url(#g16k1fag59jkcn1)" style="stroke:#EEEEEE;stroke-width:1.0416666666666667;"/><line style="stroke:#EEEEEE;stroke-width:1.0416666666666667;stroke-dasharray:2.0,3.0;" x1="346.875" x2="357.2917" y1="207.194" y2="207.194"/><line style="stroke:#EEEEEE;stroke-width:1.0416666666666667;stroke-dasharray:2.0,3.0;" x1="346.875" x2="357.2917" y1="234.2448" y2="234.2448"/><path d="M343.75,282.1289 L295.3125,282.1289 A7.8125,7.8125 0 0 1 287.5,274.3164 L287.5,262.8906 A7.8125,7.8125 0 0 1 295.3125,255.0781 L343.75,255.0781 " fill="url(#g16k1fag59jkcn1)" style="stroke:#EEEEEE;stroke-width:1.0416666666666667;"/><path d="M360.4167,255.0781 L392.1875,255.0781 A7.8125,7.8125 0 0 1 400,262.8906 L400,274.3164 A7.8125,7.8125 0 0 1 392.1875,282.1289 L360.4167,282.1289 " fill="url(#g16k1fag59jkcn1)" style="stroke:#EEEEEE;stroke-width:1.0416666666666667;"/><line style="stroke:#EEEEEE;stroke-width:1.0416666666666667;stroke-dasharray:2.0,3.0;" x1="346.875" x2="357.2917" y1="255.0781" y2="255.0781"/><line style="stroke:#EEEEEE;stroke-width:1.0416666666666667;stroke-dasharray:2.0,3.0;" x1="346.875" x2="357.2917" y1="282.1289" y2="282.1289"/><path d="M343.75,330.013 L295.3125,330.013 A7.8125,7.8125 0 0 1 287.5,322.2005 L287.5,310.7747 A7.8125,7.8125 0 0 1 295.3125,302.9622 L343.75,302.9622 " fill="url(#g16k1fag59jkcn1)" style="stroke:#EEEEEE;stroke-width:1.0416666666666667;"/><path d="M360.4167,302.9622 L392.1875,302.9622 A7.8125,7.8125 0 0 1 400,310.7747 L400,322.2005 A7.8125,7.8125 0 0 1 392.1875,330.013 L360.4167,330.013 " fill="url(#g16k1fag59jkcn1)" style="stroke:#EEEEEE;stroke-width:1.0416666666666667;"/><line style="stroke:#EEEEEE;stroke-width:1.0416666666666667;stroke-dasharray:2.0,3.0;" x1="346.875" x2="357.2917" y1="302.9622" y2="302.9622"/><line style="stroke:#EEEEEE;stroke-width:1.0416666666666667;stroke-dasharray:2.0,3.0;" x1="346.875" x2="357.2917" y1="330.013" y2="330.013"/><rect fill="url(#g16k1fag59jkcn2)" height="27.0508" style="stroke:none;stroke-width:1.0416666666666667;" width="400" x="10.4167" y="350.8464"/><line style="stroke:#737373;stroke-width:1.0416666666666667;" x1="10.4167" x2="16.6667" y1="364.3717" y2="364.3717"/><line style="stroke:#737373;stroke-width:1.0416666666666667;" x1="146.875" x2="409.375" y1="364.3717" y2="364.3717"/><polygon fill="#D6D6D6" points="268.75,398.7305,275,404.9805,268.75,411.2305,262.5,404.9805" style="stroke:#ABABAB;stroke-width:1.0416666666666667;"/><rect fill="url(#g16k1fag59jkcn2)" height="27.0508" style="stroke:none;stroke-width:1.0416666666666667;" width="400" x="10.4167" y="432.0638"/><line style="stroke:#737373;stroke-width:1.0416666666666667;" x1="10.4167" x2="16.6667" y1="445.5892" y2="445.5892"/><line style="stroke:#737373;stroke-width:1.0416666666666667;" x1="65.625" x2="409.375" y1="445.5892" y2="445.5892"/><text fill="#336699" font-family="&quot;Verdana&quot;" font-size="12.5" lengthAdjust="spacing" textLength="38.5417" x="16.6667" y="81.3944">Task1</text><text fill="#336699" font-family="&quot;Verdana&quot;" font-size="12.5" lengthAdjust="spacing" textLength="38.5417" x="200" y="129.2786">Task2</text><text fill="#336699" font-family="&quot;Verdana&quot;" font-size="12.5" lengthAdjust="spacing" textLength="61.4583" x="283.3333" y="177.1627">Test  000</text><text fill="#336699" font-family="&quot;Verdana&quot;" font-size="12.5" lengthAdjust="spacing" textLength="61.4583" x="283.3333" y="225.0468">Test  025</text><text fill="#336699" font-family="&quot;Verdana&quot;" font-size="12.5" lengthAdjust="spacing" textLength="61.4583" x="283.3333" y="272.9309">Test  060</text><text fill="#336699" font-family="&quot;Verdana&quot;" font-size="12.5" lengthAdjust="spacing" textLength="61.4583" x="283.3333" y="320.815">Test  100</text><text fill="#303030" font-family="&quot;Verdana&quot;" font-size="12.5" font-weight="bold" lengthAdjust="spacing" textLength="109.375" x="27.0833" y="368.6991">Separator title</text><text fill="#336699" font-family="&quot;Verdana&quot;" font-size="12.5" font-style="italic" lengthAdjust="spacing" textLength="18.75" x="281.25" y="409.3079">M1</text><text fill="#303030" font-family="&quot;Verdana&quot;" font-size="12.5" font-weight="bold" lengthAdjust="spacing" textLength="28.125" x="27.0833" y="449.9166">end</text><text fill="#FFFFFF" font-family="Serif" font-size="10.4167" lengthAdjust="spacing" textLength="12.5" x="12.5" y="491.7002">14</text><text fill="#FFFFFF" font-family="Serif" font-size="10.4167" lengthAdjust="spacing" textLength="12.5" x="29.1667" y="491.7002">15</text><text fill="#FFFFFF" font-family="Serif" font-size="10.4167" lengthAdjust="spacing" textLength="12.5" x="45.8333" y="491.7002">16</text><text fill="#FFFFFF" font-family="Serif" font-size="10.4167" lengthAdjust="spacing" textLength="12.5" x="62.5" y="491.7002">17</text><text fill="#FFFFFF" font-family="Serif" font-size="10.4167" lengthAdjust="spacing" textLength="12.5" x="79.1667" y="491.7002">18</text><text fill="#FFFFFF" font-family="Serif" font-size="10.4167" lengthAdjust="spacing" textLength="12.5" x="95.8333" y="491.7002">19</text><text fill="#FFFFFF" font-family="Serif" font-size="10.4167" lengthAdjust="spacing" textLength="12.5" x="112.5" y="491.7002">20</text><text fill="#FFFFFF" font-family="Serif" font-size="10.4167" lengthAdjust="spacing" textLength="12.5" x="129.1667" y="491.7002">21</text><text fill="#FFFFFF" font-family="Serif" font-size="10.4167" lengthAdjust="spacing" textLength="12.5" x="145.8333" y="491.7002">22</text><text fill="#FFFFFF" font-family="Serif" font-size="10.4167" lengthAdjust="spacing" textLength="12.5" x="162.5" y="491.7002">23</text><text fill="#FFFFFF" font-family="Serif" font-size="10.4167" lengthAdjust="spacing" textLength="12.5" x="179.1667" y="491.7002">24</text><text fill="#FFFFFF" font-family="Serif" font-size="10.4167" lengthAdjust="spacing" textLength="12.5" x="195.8333" y="491.7002">25</text><text fill="#FFFFFF" font-family="Serif" font-size="10.4167" lengthAdjust="spacing" textLength="12.5" x="212.5" y="491.7002">26</text><text fill="#FFFFFF" font-family="Serif" font-size="10.4167" lengthAdjust="spacing" textLength="12.5" x="229.1667" y="491.7002">27</text><text fill="#FFFFFF" font-family="Serif" font-size="10.4167" lengthAdjust="spacing" textLength="12.5" x="245.8333" y="491.7002">28</text><text fill="#FFFFFF" font-family="Serif" font-size="10.4167" lengthAdjust="spacing" textLength="12.5" x="262.5" y="491.7002">29</text><text fill="#FFFFFF" font-family="Serif" font-size="10.4167" lengthAdjust="spacing" textLength="12.5" x="279.1667" y="491.7002">30</text><text fill="#FFFFFF" font-family="Serif" font-size="10.4167" lengthAdjust="spacing" textLength="12.5" x="295.8333" y="491.7002">31</text><text fill="#FFFFFF" font-family="Serif" font-size="10.4167" lengthAdjust="spacing" textLength="6.25" x="315.625" y="491.7002">1</text><text fill="#FFFFFF" font-family="Serif" font-size="10.4167" lengthAdjust="spacing" textLength="6.25" x="332.2917" y="491.7002">2</text><text fill="#FFFFFF" font-family="Serif" font-size="10.4167" lengthAdjust="spacing" textLength="6.25" x="348.9583" y="491.7002">3</text><text fill="#FFFFFF" font-family="Serif" font-size="10.4167" lengthAdjust="spacing" textLength="6.25" x="365.625" y="491.7002">4</text><text fill="#FFFFFF" font-family="Serif" font-size="10.4167" lengthAdjust="spacing" textLength="6.25" x="382.2917" y="491.7002">5</text><text fill="#FFFFFF" font-family="Serif" font-size="10.4167" lengthAdjust="spacing" textLength="6.25" x="398.9583" y="491.7002">6</text><text fill="#FFFFFF" font-family="Serif" font-size="10.4167" lengthAdjust="spacing" textLength="16.6667" x="10.4167" y="479.2002">Mo</text><text fill="#FFFFFF" font-family="Serif" font-size="10.4167" lengthAdjust="spacing" textLength="14.5833" x="28.125" y="479.2002">Tu</text><text fill="#FFFFFF" font-family="Serif" font-size="10.4167" lengthAdjust="spacing" textLength="17.7083" x="43.75" y="479.2002">We</text><text fill="#FFFFFF" font-family="Serif" font-size="10.4167" lengthAdjust="spacing" textLength="14.5833" x="61.4583" y="479.2002">Th</text><text fill="#FFFFFF" font-family="Serif" font-size="10.4167" lengthAdjust="spacing" textLength="12.5" x="79.1667" y="479.2002">Fr</text><text fill="#FFFFFF" font-family="Serif" font-size="10.4167" lengthAdjust="spacing" textLength="11.4583" x="96.3542" y="479.2002">Sa</text><text fill="#FFFFFF" font-family="Serif" font-size="10.4167" lengthAdjust="spacing" textLength="12.5" x="112.5" y="479.2002">Su</text><text fill="#FFFFFF" font-family="Serif" font-size="10.4167" lengthAdjust="spacing" textLength="16.6667" x="127.0833" y="479.2002">Mo</text><text fill="#FFFFFF" font-family="Serif" font-size="10.4167" lengthAdjust="spacing" textLength="14.5833" x="144.7917" y="479.2002">Tu</text><text fill="#FFFFFF" font-family="Serif" font-size="10.4167" lengthAdjust="spacing" textLength="17.7083" x="160.4167" y="479.2002">We</text><text fill="#FFFFFF" font-family="Serif" font-size="10.4167" lengthAdjust="spacing" textLength="14.5833" x="178.125" y="479.2002">Th</text><text fill="#FFFFFF" font-family="Serif" font-size="10.4167" lengthAdjust="spacing" textLength="12.5" x="195.8333" y="479.2002">Fr</text><text fill="#FFFFFF" font-family="Serif" font-size="10.4167" lengthAdjust="spacing" textLength="11.4583" x="213.0208" y="479.2002">Sa</text><text fill="#FFFFFF" font-family="Serif" font-size="10.4167" lengthAdjust="spacing" textLength="12.5" x="229.1667" y="479.2002">Su</text><text fill="#FFFFFF" font-family="Serif" font-size="10.4167" lengthAdjust="spacing" textLength="16.6667" x="243.75" y="479.2002">Mo</text><text fill="#FFFFFF" font-family="Serif" font-size="10.4167" lengthAdjust="spacing" textLength="14.5833" x="261.4583" y="479.2002">Tu</text><text fill="#FFFFFF" font-family="Serif" font-size="10.4167" lengthAdjust="spacing" textLength="17.7083" x="277.0833" y="479.2002">We</text><text fill="#FFFFFF" font-family="Serif" font-size="10.4167" lengthAdjust="spacing" textLength="14.5833" x="294.7917" y="479.2002">Th</text><text fill="#FFFFFF" font-family="Serif" font-size="10.4167" lengthAdjust="spacing" textLength="12.5" x="312.5" y="479.2002">Fr</text><text fill="#FFFFFF" font-family="Serif" font-size="10.4167" lengthAdjust="spacing" textLength="11.4583" x="329.6875" y="479.2002">Sa</text><text fill="#FFFFFF" font-family="Serif" font-size="10.4167" lengthAdjust="spacing" textLength="12.5" x="345.8333" y="479.2002">Su</text><text fill="#FFFFFF" font-family="Serif" font-size="10.4167" lengthAdjust="spacing" textLength="16.6667" x="360.4167" y="479.2002">Mo</text><text fill="#FFFFFF" font-family="Serif" font-size="10.4167" lengthAdjust="spacing" textLength="14.5833" x="378.125" y="479.2002">Tu</text><text fill="#FFFFFF" font-family="Serif" font-size="10.4167" lengthAdjust="spacing" textLength="17.7083" x="393.75" y="479.2002">We</text><text fill="#FFFFFF" font-family="Serif" font-size="12.5" font-weight="bold" lengthAdjust="spacing" textLength="110.4167" x="105.2083" y="506.2683">December 2020</text><text fill="#FFFFFF" font-family="Serif" font-size="12.5" font-weight="bold" lengthAdjust="spacing" textLength="92.7083" x="314.0625" y="506.2683">January 2021</text></g></svg>