<?xml version="1.0" encoding="UTF-8" standalone="no"?><svg xmlns="http://www.w3.org/2000/svg" xmlns:xlink="http://www.w3.org/1999/xlink" contentStyleType="text/css" height="335.4167px" preserveAspectRatio="none" style="width:280px;height:335px;" version="1.1" viewBox="0 0 280 335" width="280.2083px" zoomAndPan="magnify"><defs/><g><polygon fill="#555555" points="10.4167,10.4167,10.4167,10.6356,20.8333,9.9851,31.25,10.618,41.6667,10.833,52.0833,9.6735,62.5,10.3357,72.9167,9.9724,83.3333,10.0172,93.75,10.3457,104.1667,9.6965,114.5833,10.9934,125,9.7601,135.4167,10.2107,145.8333,10.8666,156.25,10.3273,166.6667,10.4877,177.0833,10.4167,177.0722,10.4167,177.1453,13.75,177.1664,17.0833,177.2867,20.4167,177.3163,23.75,177.0833,27.0833,177.0833,27.7909,166.6667,27.3486,156.25,27.5662,145.8333,27.8148,135.4167,26.3321,125,27.7901,114.5833,26.7745,104.1667,27.6394,93.75,26.5677,83.3333,27.012,72.9167,27.8558,62.5,27.0326,52.0833,27.193,41.6667,27.4361,31.25,27.5169,20.8333,27.0793,10.4167,27.0833,10.5164,27.0833,10.2179,23.75,10.5154,20.4167,10.607,17.0833,10.571,13.75,10.4167,10.4167" style="stroke:none;stroke-width:1.0416666666666667;"/><polygon fill="#555555" points="10.4167,237.4023,10.4167,237.6213,20.8333,236.9708,31.25,237.6037,41.6667,237.8187,52.0833,236.6592,62.5,237.3214,72.9167,236.9581,83.3333,237.0029,93.75,237.3313,104.1667,236.6822,114.5833,237.9791,125,236.7458,135.4167,237.1963,145.8333,237.8523,156.25,237.313,166.6667,237.4734,177.0833,237.4023,177.0722,237.4023,177.1453,240.7357,177.1664,244.069,177.2867,247.4023,177.3163,250.7357,177.0833,254.069,177.0833,254.7766,166.6667,254.3342,156.25,254.5519,145.8333,254.8005,135.4167,253.3178,125,254.7758,114.5833,253.7602,104.1667,254.6251,93.75,253.5534,83.3333,253.9977,72.9167,254.8415,62.5,254.0182,52.0833,254.1787,41.6667,254.4217,31.25,254.5026,20.8333,254.0649,10.4167,254.069,10.5164,254.069,10.2179,250.7357,10.5154,247.4023,10.607,244.069,10.571,240.7357,10.4167,237.4023" style="stroke:none;stroke-width:1.0416666666666667;"/><path d="M10.4167,10.4167 L10.7086,10.4167 L9.8412,20.8289 L10.6851,31.2411 L10.9718,41.6533 L9.4258,52.0656 L10.3087,62.4778 L9.8243,72.89 L9.884,83.3023 L10.322,93.7145 L9.4564,104.1267 L11.1856,114.5389 L9.5413,124.9512 L10.142,135.3634 L11.0166,145.7756 L10.2975,156.1879 L10.5114,166.6001 L10.3723,177.0123 L10.6646,187.4245 L10.7488,197.8368 L11.2301,208.249 L11.3487,218.6612 L11.3601,229.0734 L10.4167,239.4857 " fill="none" style="stroke:#2E2E2E;stroke-width:1.0416666666666667;"/><path d="M27.0833,10.4167 L27.3753,10.4167 L26.5079,20.8289 L27.3518,31.2411 L27.6384,41.6533 L26.0925,52.0656 L26.9754,62.4778 L26.491,72.89 L26.5507,83.3023 L26.9887,93.7145 L26.1231,104.1267 L27.8523,114.5389 L26.2079,124.9512 L26.8087,135.3634 L27.6833,145.7756 L26.9642,156.1879 L27.1781,166.6001 L27.039,177.0123 L27.3313,187.4245 L27.4155,197.8368 L27.8968,208.249 L28.0154,218.6612 L28.0267,229.0734 L27.0833,239.4857 " fill="none" style="stroke:#2E2E2E;stroke-width:1.0416666666666667;"/><path d="M43.75,10.4167 L44.0419,10.4167 L43.1746,20.8289 L44.0185,31.2411 L44.3051,41.6533 L42.7592,52.0656 L43.6421,62.4778 L43.1576,72.89 L43.2174,83.3023 L43.6553,93.7145 L42.7898,104.1267 L44.5189,114.5389 L42.8746,124.9512 L43.4753,135.3634 L44.3499,145.7756 L43.6309,156.1879 L43.8448,166.6001 L43.7056,177.0123 L43.998,187.4245 L44.0821,197.8368 L44.5635,208.249 L44.682,218.6612 L44.6934,229.0734 L43.75,239.4857 " fill="none" style="stroke:#2E2E2E;stroke-width:1.0416666666666667;"/><path d="M60.4167,10.4167 L60.7086,10.4167 L59.8412,20.8289 L60.6851,31.2411 L60.9718,41.6533 L59.4258,52.0656 L60.3087,62.4778 L59.8243,72.89 L59.884,83.3023 L60.322,93.7145 L59.4564,104.1267 L61.1856,114.5389 L59.5413,124.9512 L60.142,135.3634 L61.0166,145.7756 L60.2975,156.1879 L60.5114,166.6001 L60.3723,177.0123 L60.6646,187.4245 L60.7488,197.8368 L61.2301,208.249 L61.3487,218.6612 L61.3601,229.0734 L60.4167,239.4857 " fill="none" style="stroke:#2E2E2E;stroke-width:1.0416666666666667;"/><path d="M77.0833,10.4167 L77.3753,10.4167 L76.5079,20.8289 L77.3518,31.2411 L77.6384,41.6533 L76.0925,52.0656 L76.9754,62.4778 L76.491,72.89 L76.5507,83.3023 L76.9887,93.7145 L76.1231,104.1267 L77.8523,114.5389 L76.2079,124.9512 L76.8087,135.3634 L77.6833,145.7756 L76.9642,156.1879 L77.1781,166.6001 L77.039,177.0123 L77.3313,187.4245 L77.4155,197.8368 L77.8968,208.249 L78.0154,218.6612 L78.0267,229.0734 L77.0833,239.4857 " fill="none" style="stroke:#2E2E2E;stroke-width:1.0416666666666667;"/><path d="M93.75,10.4167 L94.0419,10.4167 L93.1746,20.8289 L94.0185,31.2411 L94.3051,41.6533 L92.7592,52.0656 L93.6421,62.4778 L93.1576,72.89 L93.2174,83.3023 L93.6553,93.7145 L92.7898,104.1267 L94.5189,114.5389 L92.8746,124.9512 L93.4753,135.3634 L94.3499,145.7756 L93.6309,156.1879 L93.8448,166.6001 L93.7056,177.0123 L93.998,187.4245 L94.0821,197.8368 L94.5635,208.249 L94.682,218.6612 L94.6934,229.0734 L93.75,239.4857 " fill="none" style="stroke:#2E2E2E;stroke-width:1.0416666666666667;"/><path d="M110.4167,10.4167 L110.7086,10.4167 L109.8412,20.8289 L110.6851,31.2411 L110.9718,41.6533 L109.4258,52.0656 L110.3087,62.4778 L109.8243,72.89 L109.884,83.3023 L110.322,93.7145 L109.4564,104.1267 L111.1856,114.5389 L109.5413,124.9512 L110.142,135.3634 L111.0166,145.7756 L110.2975,156.1879 L110.5114,166.6001 L110.3723,177.0123 L110.6646,187.4245 L110.7488,197.8368 L111.2301,208.249 L111.3487,218.6612 L111.3601,229.0734 L110.4167,239.4857 " fill="none" style="stroke:#2E2E2E;stroke-width:1.0416666666666667;"/><path d="M127.0833,10.4167 L127.3753,10.4167 L126.5079,20.8289 L127.3518,31.2411 L127.6384,41.6533 L126.0925,52.0656 L126.9754,62.4778 L126.491,72.89 L126.5507,83.3023 L126.9887,93.7145 L126.1231,104.1267 L127.8523,114.5389 L126.2079,124.9512 L126.8087,135.3634 L127.6833,145.7756 L126.9642,156.1879 L127.1781,166.6001 L127.039,177.0123 L127.3313,187.4245 L127.4155,197.8368 L127.8968,208.249 L128.0154,218.6612 L128.0267,229.0734 L127.0833,239.4857 " fill="none" style="stroke:#2E2E2E;stroke-width:1.0416666666666667;"/><path d="M143.75,10.4167 L144.0419,10.4167 L143.1746,20.8289 L144.0185,31.2411 L144.3051,41.6533 L142.7592,52.0656 L143.6421,62.4778 L143.1576,72.89 L143.2174,83.3023 L143.6553,93.7145 L142.7898,104.1267 L144.5189,114.5389 L142.8746,124.9512 L143.4753,135.3634 L144.3499,145.7756 L143.6309,156.1879 L143.8448,166.6001 L143.7056,177.0123 L143.998,187.4245 L144.0821,197.8368 L144.5635,208.249 L144.682,218.6612 L144.6934,229.0734 L143.75,239.4857 " fill="none" style="stroke:#2E2E2E;stroke-width:1.0416666666666667;"/><path d="M160.4167,10.4167 L160.7086,10.4167 L159.8412,20.8289 L160.6851,31.2411 L160.9718,41.6533 L159.4258,52.0656 L160.3087,62.4778 L159.8243,72.89 L159.884,83.3023 L160.322,93.7145 L159.4564,104.1267 L161.1856,114.5389 L159.5413,124.9512 L160.142,135.3634 L161.0166,145.7756 L160.2975,156.1879 L160.5114,166.6001 L160.3723,177.0123 L160.6646,187.4245 L160.7488,197.8368 L161.2301,208.249 L161.3487,218.6612 L161.3601,229.0734 L160.4167,239.4857 " fill="none" style="stroke:#2E2E2E;stroke-width:1.0416666666666667;"/><path d="M177.0833,10.4167 L177.3753,10.4167 L176.5079,20.8289 L177.3518,31.2411 L177.6384,41.6533 L176.0925,52.0656 L176.9754,62.4778 L176.491,72.89 L176.5507,83.3023 L176.9887,93.7145 L176.1231,104.1267 L177.8523,114.5389 L176.2079,124.9512 L176.8087,135.3634 L177.6833,145.7756 L176.9642,156.1879 L177.1781,166.6001 L177.039,177.0123 L177.3313,187.4245 L177.4155,197.8368 L177.8968,208.249 L178.0154,218.6612 L178.0267,229.0734 L177.0833,239.4857 " fill="none" style="stroke:#2E2E2E;stroke-width:1.0416666666666667;"/><text fill="#FFFFFF" font-family="Serif" font-size="10.4167" lengthAdjust="spacing" textLength="6.25" x="15.625" y="20.0857">1</text><text fill="#FFFFFF" font-family="Serif" font-size="10.4167" lengthAdjust="spacing" textLength="6.25" x="32.2917" y="20.0857">2</text><text fill="#FFFFFF" font-family="Serif" font-size="10.4167" lengthAdjust="spacing" textLength="6.25" x="48.9583" y="20.0857">3</text><text fill="#FFFFFF" font-family="Serif" font-size="10.4167" lengthAdjust="spacing" textLength="6.25" x="65.625" y="20.0857">4</text><text fill="#FFFFFF" font-family="Serif" font-size="10.4167" lengthAdjust="spacing" textLength="6.25" x="82.2917" y="20.0857">5</text><text fill="#FFFFFF" font-family="Serif" font-size="10.4167" lengthAdjust="spacing" textLength="6.25" x="98.9583" y="20.0857">6</text><text fill="#FFFFFF" font-family="Serif" font-size="10.4167" lengthAdjust="spacing" textLength="6.25" x="115.625" y="20.0857">7</text><text fill="#FFFFFF" font-family="Serif" font-size="10.4167" lengthAdjust="spacing" textLength="6.25" x="132.2917" y="20.0857">8</text><text fill="#FFFFFF" font-family="Serif" font-size="10.4167" lengthAdjust="spacing" textLength="6.25" x="148.9583" y="20.0857">9</text><text fill="#FFFFFF" font-family="Serif" font-size="10.4167" lengthAdjust="spacing" textLength="12.5" x="162.5" y="20.0857">10</text><path d="M10.4167,10.4167 L10.4167,10.7086 L20.8333,9.8412 L31.25,10.6851 L41.6667,10.9718 L52.0833,9.4258 L62.5,10.3087 L72.9167,9.8243 L83.3333,9.884 L93.75,10.322 L104.1667,9.4564 L114.5833,11.1856 L125,9.5413 L135.4167,10.142 L145.8333,11.0166 L156.25,10.2975 L166.6667,10.5114 L177.0833,10.4167 " fill="none" style="stroke:#2E2E2E;stroke-width:1.0416666666666667;"/><path d="M10.4167,23.9583 L10.4167,24.2503 L20.8333,23.3829 L31.25,24.2268 L41.6667,24.5134 L52.0833,22.9675 L62.5,23.8504 L72.9167,23.366 L83.3333,23.4257 L93.75,23.8637 L104.1667,22.9981 L114.5833,24.7273 L125,23.0829 L135.4167,23.6837 L145.8333,24.5583 L156.25,23.8392 L166.6667,24.0531 L177.0833,23.9583 " fill="none" style="stroke:#2E2E2E;stroke-width:1.0416666666666667;"/><path d="M67.7083,112.4349 L67.8056,112.4349 L67.5165,119.3066 L67.7978,126.1784 L67.8934,133.0501 L67.3781,139.9219 L67.7083,146.7936 " fill="none" style="stroke:#333333;stroke-width:3.125;"/><path d="M67.7083,146.7936 L67.7083,146.8909 L69.375,146.6018 L71.0417,146.8831 L72.7083,146.9787 L74.375,146.4633 L76.0417,146.7936 " fill="none" style="stroke:#333333;stroke-width:3.125;"/><polygon fill="#333333" points="71.875,142.627,71.948,142.627,71.7311,143.4603,71.9421,144.2936,72.0138,145.127,71.6273,145.9603,71.875,146.7936,71.848,146.7936,71.7269,147.627,71.7418,148.4603,71.8513,149.2936,71.6349,150.127,71.875,150.9603,72.0109,151.0962,72.5536,149.9722,73.4931,149.2451,74.4811,148.5663,75.1873,147.6059,76.0417,146.7936,76.0584,146.8104,75.2005,145.9524,74.4188,145.1708,73.6004,144.3523,72.8521,143.6041,71.875,142.627" style="stroke:#333333;stroke-width:1.5625;"/><polygon fill="#474747" points="25,37.5,25,37.7189,35.5769,37.0684,46.1538,37.7013,56.7308,37.9163,67.3077,36.7569,77.8846,37.419,88.4615,37.0557,99.0385,37.1005,109.6154,37.429,120.1923,36.7798,130.7692,38.0767,141.3462,36.8435,151.9231,37.294,162.5,37.5,162.5574,37.6386,163.0779,37.7166,163.6876,38.01,164.2635,38.222,164.8807,38.5336,165.4463,38.7204,165.523,38.7522,165.8782,39.3875,166.1497,39.9881,166.3964,40.5784,166.5043,41.1112,166.6667,41.6667,166.8276,41.6667,166.9105,45.4102,166.4163,49.1536,166.9023,52.8971,166.5637,56.6406,166.6667,60.3841,166.8379,60.455,166.2638,60.9076,166.1565,61.5535,166.1723,62.2504,165.6747,62.7347,165.4463,63.3304,165.4603,63.3642,164.902,63.6831,164.3231,63.9521,163.678,64.0614,163.1274,64.3988,162.5,64.5508,162.5,63.9545,151.9231,64.847,141.3462,65.1218,130.7692,65.0138,120.1923,65.1893,109.6154,64.0476,99.0385,63.8714,88.4615,63.9035,77.8846,64.4894,67.3077,64.3461,56.7308,65.2606,46.1538,64.3688,35.5769,64.1934,25,64.5508,25.0303,64.624,24.3221,64.0928,23.7525,63.8961,23.3185,64.0267,22.7009,63.7142,22.0537,63.3304,22.2893,63.428,21.7064,62.6984,21.668,62.1943,21.5109,61.6411,20.9259,60.9106,20.8333,60.3841,20.8,60.3841,20.8771,56.6406,21.0596,52.8971,20.8319,49.1536,20.9939,45.4102,20.8333,41.6667,20.6557,41.5931,20.8602,40.9874,21.483,40.5551,21.3356,39.8036,21.9729,39.3773,22.0537,38.7204,22.0812,38.7867,22.6074,38.3904,23.1852,38.1187,23.8824,38.1353,24.371,37.6481,25,37.5" style="stroke:#333333;stroke-width:1.0416666666666667;"/><polygon fill="#474747" points="25,85.3841,25,85.4571,32.5,85.2403,40,85.4512,47.5,85.5229,55,85.1364,62.5,85.3841,62.4897,85.3592,63.0326,85.4914,63.6276,85.7492,64.2587,86.0945,64.7652,86.1386,65.4463,86.6045,65.6239,86.6781,65.4882,87.11,65.871,87.7567,66.3171,88.4297,66.3951,88.9501,66.6667,89.5508,66.6904,89.5508,66.6556,93.2943,66.7287,97.0378,66.7497,100.7813,66.87,104.5247,66.6667,108.2682,66.8819,108.3574,66.6405,108.9477,66.2602,109.4806,66.0831,110.0976,65.9156,110.7186,65.4463,111.2145,65.3504,110.9832,64.9472,111.6762,64.2284,111.6075,63.7494,112.118,63.0235,112.032,62.5,112.4349,62.5,112.4111,55,112.6924,47.5,112.418,40,112.4715,32.5,112.5525,25,112.4349,25.0553,112.5684,24.4102,112.1896,23.8597,112.0389,23.1562,111.519,22.6808,111.5498,22.0537,111.2145,22.2296,111.2873,21.9522,110.6843,21.7622,110.1175,21.1665,109.3826,20.8682,108.7708,20.8333,108.2682,20.6176,108.2682,20.8129,104.5247,20.7651,100.7813,21.0699,97.0378,20.7727,93.2943,20.8333,89.5508,20.7233,89.5052,21.1506,88.9919,21.1076,88.2837,21.399,87.714,22.0178,87.28,22.0537,86.6045,22.1116,86.7443,22.7406,86.596,23.1895,86.0131,23.8639,85.9747,24.4892,85.8176,25,85.3841" style="stroke:#333333;stroke-width:1.0416666666666667;"/><polygon fill="#474747" points="91.6667,133.2682,91.6667,133.3412,99.1667,133.1244,106.6667,133.3353,114.1667,133.407,121.6667,133.0205,129.1667,133.2682,129.1563,133.2433,129.6993,133.3755,130.2942,133.6334,130.9254,133.9786,131.4318,134.0228,132.1129,134.4886,132.2905,134.5622,132.1548,134.9941,132.5377,135.6409,132.9837,136.3138,133.0617,136.8342,133.3333,137.4349,133.357,137.4349,133.3222,141.1784,133.3953,144.9219,133.4164,148.6654,133.5367,152.4089,133.3333,156.1523,133.5486,156.2415,133.3072,156.8319,132.9269,157.3647,132.7498,157.9817,132.5823,158.6027,132.1129,159.0986,132.0171,158.8673,131.6138,159.5604,130.895,159.4917,130.4161,160.0021,129.6901,159.9161,129.1667,160.319,129.1667,160.2952,121.6667,160.5765,114.1667,160.3021,106.6667,160.3556,99.1667,160.4366,91.6667,160.319,91.722,160.4525,91.0769,160.0737,90.5263,159.923,89.8228,159.4032,89.3474,159.4339,88.7204,159.0986,88.8962,159.1715,88.6189,158.5684,88.4289,158.0016,87.8332,157.2667,87.5349,156.6549,87.5,156.1523,87.2842,156.1523,87.4796,152.4089,87.4318,148.6654,87.7366,144.9219,87.4393,141.1784,87.5,137.4349,87.39,137.3893,87.8173,136.876,87.7742,136.1678,88.0657,135.5981,88.6845,135.1641,88.7204,134.4886,88.7783,134.6284,89.4072,134.4802,89.8561,133.8972,90.5306,133.8588,91.1559,133.7017,91.6667,133.2682" style="stroke:#333333;stroke-width:1.0416666666666667;"/><text fill="#FFFFFF" font-family="Segoe Print" font-size="12.5" lengthAdjust="spacing" textLength="89.5833" x="16.6667" y="55.3528">Task1 {Alice}</text><text fill="#FFFFFF" font-family="Segoe Print" font-size="12.5" lengthAdjust="spacing" textLength="116.6667" x="79.1667" y="103.2369">Task2 {Bob:50%}</text><text fill="#FFFFFF" font-family="Segoe Print" font-size="12.5" lengthAdjust="spacing" textLength="121.875" x="145.8333" y="151.121">Task3 {Alice:25%}</text><text fill="#000000" font-family="Serif" font-size="13.5417" lengthAdjust="spacing" textLength="32.2917" x="10.4167" y="183.3054">Alice</text><path d="M10.4167,186.499 L10.4167,186.7909 L20.8333,185.9236 L31.25,186.7675 L41.6667,187.0541 L52.0833,185.5082 L62.5,186.3911 L72.9167,185.9067 L83.3333,185.9664 L93.75,186.4044 L104.1667,185.5388 L114.5833,187.268 L125,185.6236 L135.4167,186.2243 L145.8333,187.0989 L156.25,186.3799 L166.6667,186.5938 L177.0833,186.499 " fill="none" style="stroke:#000000;stroke-width:1.0416666666666667;"/><text fill="#000000" font-family="Serif" font-size="9.375" lengthAdjust="spacing" textLength="18.75" x="9.375" y="196.1044">100</text><text fill="#000000" font-family="Serif" font-size="9.375" lengthAdjust="spacing" textLength="18.75" x="26.0417" y="196.1044">100</text><text fill="#000000" font-family="Serif" font-size="9.375" lengthAdjust="spacing" textLength="18.75" x="42.7083" y="196.1044">100</text><text fill="#000000" font-family="Serif" font-size="9.375" lengthAdjust="spacing" textLength="18.75" x="59.375" y="196.1044">100</text><text fill="#FF0000" font-family="Serif" font-size="9.375" lengthAdjust="spacing" textLength="18.75" x="76.0417" y="196.1044">125</text><text fill="#FF0000" font-family="Serif" font-size="9.375" lengthAdjust="spacing" textLength="18.75" x="92.7083" y="196.1044">125</text><text fill="#FF0000" font-family="Serif" font-size="9.375" lengthAdjust="spacing" textLength="18.75" x="109.375" y="196.1044">125</text><text fill="#FF0000" font-family="Serif" font-size="9.375" lengthAdjust="spacing" textLength="18.75" x="126.0417" y="196.1044">125</text><text fill="#000000" font-family="Serif" font-size="9.375" lengthAdjust="spacing" textLength="18.75" x="142.7083" y="196.1044">100</text><text fill="#000000" font-family="Serif" font-size="9.375" lengthAdjust="spacing" textLength="18.75" x="159.375" y="196.1044">100</text><text fill="#000000" font-family="Serif" font-size="13.5417" lengthAdjust="spacing" textLength="27.0833" x="10.4167" y="216.6387">Bob</text><path d="M10.4167,219.8324 L10.4167,220.1243 L20.8333,219.2569 L31.25,220.1008 L41.6667,220.3875 L52.0833,218.8415 L62.5,219.7244 L72.9167,219.24 L83.3333,219.2997 L93.75,219.7377 L104.1667,218.8721 L114.5833,220.6013 L125,218.957 L135.4167,219.5577 L145.8333,220.4323 L156.25,219.7132 L166.6667,219.9271 L177.0833,219.8324 " fill="none" style="stroke:#000000;stroke-width:1.0416666666666667;"/><text fill="#000000" font-family="Serif" font-size="9.375" lengthAdjust="spacing" textLength="12.5" x="12.5" y="229.4378">50</text><text fill="#000000" font-family="Serif" font-size="9.375" lengthAdjust="spacing" textLength="12.5" x="29.1667" y="229.4378">50</text><text fill="#000000" font-family="Serif" font-size="9.375" lengthAdjust="spacing" textLength="12.5" x="45.8333" y="229.4378">50</text><text fill="#000000" font-family="Serif" font-size="9.375" lengthAdjust="spacing" textLength="12.5" x="62.5" y="229.4378">50</text><path d="M10.4167,240.5273 L10.514,240.5273 L10.2249,243.2357 L10.5062,245.944 L10.6017,248.6523 L10.0864,251.3607 L10.4167,254.069 " fill="none" style="stroke:#2E2E2E;stroke-width:1.0416666666666667;"/><path d="M27.0833,240.5273 L27.1806,240.5273 L26.8915,243.2357 L27.1728,245.944 L27.2684,248.6523 L26.7531,251.3607 L27.0833,254.069 " fill="none" style="stroke:#2E2E2E;stroke-width:1.0416666666666667;"/><path d="M43.75,240.5273 L43.8473,240.5273 L43.5582,243.2357 L43.8395,245.944 L43.935,248.6523 L43.4197,251.3607 L43.75,254.069 " fill="none" style="stroke:#2E2E2E;stroke-width:1.0416666666666667;"/><path d="M60.4167,240.5273 L60.514,240.5273 L60.2249,243.2357 L60.5062,245.944 L60.6017,248.6523 L60.0864,251.3607 L60.4167,254.069 " fill="none" style="stroke:#2E2E2E;stroke-width:1.0416666666666667;"/><path d="M77.0833,240.5273 L77.1806,240.5273 L76.8915,243.2357 L77.1728,245.944 L77.2684,248.6523 L76.7531,251.3607 L77.0833,254.069 " fill="none" style="stroke:#2E2E2E;stroke-width:1.0416666666666667;"/><path d="M93.75,240.5273 L93.8473,240.5273 L93.5582,243.2357 L93.8395,245.944 L93.935,248.6523 L93.4197,251.3607 L93.75,254.069 " fill="none" style="stroke:#2E2E2E;stroke-width:1.0416666666666667;"/><path d="M110.4167,240.5273 L110.514,240.5273 L110.2249,243.2357 L110.5062,245.944 L110.6017,248.6523 L110.0864,251.3607 L110.4167,254.069 " fill="none" style="stroke:#2E2E2E;stroke-width:1.0416666666666667;"/><path d="M127.0833,240.5273 L127.1806,240.5273 L126.8915,243.2357 L127.1728,245.944 L127.2684,248.6523 L126.7531,251.3607 L127.0833,254.069 " fill="none" style="stroke:#2E2E2E;stroke-width:1.0416666666666667;"/><path d="M143.75,240.5273 L143.8473,240.5273 L143.5582,243.2357 L143.8395,245.944 L143.935,248.6523 L143.4197,251.3607 L143.75,254.069 " fill="none" style="stroke:#2E2E2E;stroke-width:1.0416666666666667;"/><path d="M160.4167,240.5273 L160.514,240.5273 L160.2249,243.2357 L160.5062,245.944 L160.6017,248.6523 L160.0864,251.3607 L160.4167,254.069 " fill="none" style="stroke:#2E2E2E;stroke-width:1.0416666666666667;"/><path d="M177.0833,240.5273 L177.1806,240.5273 L176.8915,243.2357 L177.1728,245.944 L177.2684,248.6523 L176.7531,251.3607 L177.0833,254.069 " fill="none" style="stroke:#2E2E2E;stroke-width:1.0416666666666667;"/><text fill="#FFFFFF" font-family="Serif" font-size="10.4167" lengthAdjust="spacing" textLength="6.25" x="15.625" y="250.1963">1</text><text fill="#FFFFFF" font-family="Serif" font-size="10.4167" lengthAdjust="spacing" textLength="6.25" x="32.2917" y="250.1963">2</text><text fill="#FFFFFF" font-family="Serif" font-size="10.4167" lengthAdjust="spacing" textLength="6.25" x="48.9583" y="250.1963">3</text><text fill="#FFFFFF" font-family="Serif" font-size="10.4167" lengthAdjust="spacing" textLength="6.25" x="65.625" y="250.1963">4</text><text fill="#FFFFFF" font-family="Serif" font-size="10.4167" lengthAdjust="spacing" textLength="6.25" x="82.2917" y="250.1963">5</text><text fill="#FFFFFF" font-family="Serif" font-size="10.4167" lengthAdjust="spacing" textLength="6.25" x="98.9583" y="250.1963">6</text><text fill="#FFFFFF" font-family="Serif" font-size="10.4167" lengthAdjust="spacing" textLength="6.25" x="115.625" y="250.1963">7</text><text fill="#FFFFFF" font-family="Serif" font-size="10.4167" lengthAdjust="spacing" textLength="6.25" x="132.2917" y="250.1963">8</text><text fill="#FFFFFF" font-family="Serif" font-size="10.4167" lengthAdjust="spacing" textLength="6.25" x="148.9583" y="250.1963">9</text><text fill="#FFFFFF" font-family="Serif" font-size="10.4167" lengthAdjust="spacing" textLength="12.5" x="162.5" y="250.1963">10</text><path d="M10.4167,240.5273 L10.4167,240.8193 L20.8333,239.9519 L31.25,240.7958 L41.6667,241.0825 L52.0833,239.5365 L62.5,240.4194 L72.9167,239.935 L83.3333,239.9947 L93.75,240.4327 L104.1667,239.5671 L114.5833,241.2963 L125,239.652 L135.4167,240.2527 L145.8333,241.1273 L156.25,240.4082 L166.6667,240.6221 L177.0833,240.5273 " fill="none" style="stroke:#2E2E2E;stroke-width:1.0416666666666667;"/><text fill="#FFFFFF" font-family="Segoe Print" font-size="10.4167" lengthAdjust="spacing" textLength="3.125" x="71.875" y="285.613"> </text><text fill="#FFFFFF" font-family="Segoe Print" font-size="10.4167" font-style="italic" lengthAdjust="spacing" textLength="52.0833" x="32.2917" y="297.7386">Rel. Issue:</text><a href="https://github.com/plantuml/plantuml/issues/616" target="_top" title="https://github.com/plantuml/plantuml/issues/616" xlink:actuate="onRequest" xlink:href="https://github.com/plantuml/plantuml/issues/616" xlink:show="new" xlink:title="https://github.com/plantuml/plantuml/issues/616" xlink:type="simple"><text fill="#FD7E14" font-family="Segoe Print" font-size="10.4167" font-style="italic" lengthAdjust="spacing" text-decoration="underline" textLength="27.0833" x="87.5" y="297.7386">#616</text></a></g></svg>