<?xml version="1.0" encoding="UTF-8" standalone="no"?><svg xmlns="http://www.w3.org/2000/svg" xmlns:xlink="http://www.w3.org/1999/xlink" contentScriptType="application/ecmascript" contentStyleType="text/css" height="260px" preserveAspectRatio="none" style="width:387px;height:260px;" version="1.1" viewBox="0 0 387 260" width="387px" zoomAndPan="magnify"><defs><style type="text/css"><![CDATA[*.f_e0e0e0_1f1f1f {fill:#e0e0e0;}*.f_000000_ffffff {fill:#000000;}*.f_989898_676767 {fill:#989898;}*.s_c0c0c0_3f3f3f {stroke:#c0c0c0;}*.s_181818_e7e7e7 {stroke:#181818;}*.f_f8f8f8_070707 {fill:#f8f8f8;}*.f_ffffff_000000 {fill:#ffffff;}*.s_000000_ffffff {stroke:#000000;}@media (prefers-color-scheme:dark) {*.f_e0e0e0_1f1f1f {fill:#1f1f1f;}*.f_000000_ffffff {fill:#ffffff;}*.f_989898_676767 {fill:#676767;}*.s_c0c0c0_3f3f3f {stroke:#3f3f3f;}*.s_181818_e7e7e7 {stroke:#e7e7e7;}*.f_f8f8f8_070707 {fill:#070707;}*.f_ffffff_000000 {fill:#000000;}*.s_000000_ffffff {stroke:#ffffff;}}]]></style></defs><g><rect class="f_e0e0e0_1f1f1f" height="180.4375" style="stroke:none;stroke-width:1.0;" width="16" x="96" y="41"/><rect class="f_e0e0e0_1f1f1f" height="180.4375" style="stroke:none;stroke-width:1.0;" width="16" x="208" y="41"/><rect class="f_e0e0e0_1f1f1f" height="180.4375" style="stroke:none;stroke-width:1.0;" width="16" x="320" y="41"/><text class="f_000000_ffffff" font-family="Serif" font-size="10" lengthAdjust="spacing" textLength="16" x="0" y="25.2822">Mo</text><text class="f_000000_ffffff" font-family="Serif" font-size="10" lengthAdjust="spacing" textLength="14" x="17" y="25.2822">Tu</text><text class="f_000000_ffffff" font-family="Serif" font-size="10" lengthAdjust="spacing" textLength="17" x="32" y="25.2822">We</text><text class="f_000000_ffffff" font-family="Serif" font-size="10" lengthAdjust="spacing" textLength="14" x="49" y="25.2822">Th</text><text class="f_000000_ffffff" font-family="Serif" font-size="10" lengthAdjust="spacing" textLength="12" x="66" y="25.2822">Fr</text><text class="f_000000_ffffff" font-family="Serif" font-size="10" lengthAdjust="spacing" textLength="11" x="82.5" y="25.2822">Sa</text><text class="f_989898_676767" font-family="Serif" font-size="10" lengthAdjust="spacing" textLength="12" x="98" y="25.2822">Su</text><text class="f_000000_ffffff" font-family="Serif" font-size="10" lengthAdjust="spacing" textLength="16" x="112" y="25.2822">Mo</text><text class="f_000000_ffffff" font-family="Serif" font-size="10" lengthAdjust="spacing" textLength="14" x="129" y="25.2822">Tu</text><text class="f_000000_ffffff" font-family="Serif" font-size="10" lengthAdjust="spacing" textLength="17" x="144" y="25.2822">We</text><text class="f_000000_ffffff" font-family="Serif" font-size="10" lengthAdjust="spacing" textLength="14" x="161" y="25.2822">Th</text><text class="f_000000_ffffff" font-family="Serif" font-size="10" lengthAdjust="spacing" textLength="12" x="178" y="25.2822">Fr</text><text class="f_000000_ffffff" font-family="Serif" font-size="10" lengthAdjust="spacing" textLength="11" x="194.5" y="25.2822">Sa</text><text class="f_989898_676767" font-family="Serif" font-size="10" lengthAdjust="spacing" textLength="12" x="210" y="25.2822">Su</text><text class="f_000000_ffffff" font-family="Serif" font-size="10" lengthAdjust="spacing" textLength="16" x="224" y="25.2822">Mo</text><text class="f_000000_ffffff" font-family="Serif" font-size="10" lengthAdjust="spacing" textLength="14" x="241" y="25.2822">Tu</text><text class="f_000000_ffffff" font-family="Serif" font-size="10" lengthAdjust="spacing" textLength="17" x="256" y="25.2822">We</text><text class="f_000000_ffffff" font-family="Serif" font-size="10" lengthAdjust="spacing" textLength="14" x="273" y="25.2822">Th</text><text class="f_000000_ffffff" font-family="Serif" font-size="10" lengthAdjust="spacing" textLength="12" x="290" y="25.2822">Fr</text><text class="f_000000_ffffff" font-family="Serif" font-size="10" lengthAdjust="spacing" textLength="11" x="306.5" y="25.2822">Sa</text><text class="f_989898_676767" font-family="Serif" font-size="10" lengthAdjust="spacing" textLength="12" x="322" y="25.2822">Su</text><text class="f_000000_ffffff" font-family="Serif" font-size="10" lengthAdjust="spacing" textLength="16" x="336" y="25.2822">Mo</text><text class="f_000000_ffffff" font-family="Serif" font-size="10" lengthAdjust="spacing" textLength="14" x="353" y="25.2822">Tu</text><text class="f_000000_ffffff" font-family="Serif" font-size="10" lengthAdjust="spacing" textLength="17" x="368" y="25.2822">We</text><text class="f_000000_ffffff" font-family="Serif" font-size="10" lengthAdjust="spacing" textLength="12" x="2" y="37.2822">14</text><text class="f_000000_ffffff" font-family="Serif" font-size="10" lengthAdjust="spacing" textLength="12" x="18" y="37.2822">15</text><text class="f_000000_ffffff" font-family="Serif" font-size="10" lengthAdjust="spacing" textLength="12" x="34" y="37.2822">16</text><text class="f_000000_ffffff" font-family="Serif" font-size="10" lengthAdjust="spacing" textLength="12" x="50" y="37.2822">17</text><text class="f_000000_ffffff" font-family="Serif" font-size="10" lengthAdjust="spacing" textLength="12" x="66" y="37.2822">18</text><text class="f_000000_ffffff" font-family="Serif" font-size="10" lengthAdjust="spacing" textLength="12" x="82" y="37.2822">19</text><text class="f_989898_676767" font-family="Serif" font-size="10" lengthAdjust="spacing" textLength="12" x="98" y="37.2822">20</text><text class="f_000000_ffffff" font-family="Serif" font-size="10" lengthAdjust="spacing" textLength="12" x="114" y="37.2822">21</text><text class="f_000000_ffffff" font-family="Serif" font-size="10" lengthAdjust="spacing" textLength="12" x="130" y="37.2822">22</text><text class="f_000000_ffffff" font-family="Serif" font-size="10" lengthAdjust="spacing" textLength="12" x="146" y="37.2822">23</text><text class="f_000000_ffffff" font-family="Serif" font-size="10" lengthAdjust="spacing" textLength="12" x="162" y="37.2822">24</text><text class="f_000000_ffffff" font-family="Serif" font-size="10" lengthAdjust="spacing" textLength="12" x="178" y="37.2822">25</text><text class="f_000000_ffffff" font-family="Serif" font-size="10" lengthAdjust="spacing" textLength="12" x="194" y="37.2822">26</text><text class="f_989898_676767" font-family="Serif" font-size="10" lengthAdjust="spacing" textLength="12" x="210" y="37.2822">27</text><text class="f_000000_ffffff" font-family="Serif" font-size="10" lengthAdjust="spacing" textLength="12" x="226" y="37.2822">28</text><text class="f_000000_ffffff" font-family="Serif" font-size="10" lengthAdjust="spacing" textLength="12" x="242" y="37.2822">29</text><text class="f_000000_ffffff" font-family="Serif" font-size="10" lengthAdjust="spacing" textLength="12" x="258" y="37.2822">30</text><text class="f_000000_ffffff" font-family="Serif" font-size="10" lengthAdjust="spacing" textLength="12" x="274" y="37.2822">31</text><text class="f_000000_ffffff" font-family="Serif" font-size="10" lengthAdjust="spacing" textLength="6" x="293" y="37.2822">1</text><text class="f_000000_ffffff" font-family="Serif" font-size="10" lengthAdjust="spacing" textLength="6" x="309" y="37.2822">2</text><text class="f_989898_676767" font-family="Serif" font-size="10" lengthAdjust="spacing" textLength="6" x="325" y="37.2822">3</text><text class="f_000000_ffffff" font-family="Serif" font-size="10" lengthAdjust="spacing" textLength="6" x="341" y="37.2822">4</text><text class="f_000000_ffffff" font-family="Serif" font-size="10" lengthAdjust="spacing" textLength="6" x="357" y="37.2822">5</text><text class="f_000000_ffffff" font-family="Serif" font-size="10" lengthAdjust="spacing" textLength="6" x="373" y="37.2822">6</text><text class="f_000000_ffffff" font-family="Serif" font-size="12" font-weight="bold" lengthAdjust="spacing" textLength="106" x="91" y="11.2676">December 2020</text><text class="f_000000_ffffff" font-family="Serif" font-size="12" font-weight="bold" lengthAdjust="spacing" textLength="89" x="291.5" y="11.2676">January 2021</text><line class="s_c0c0c0_3f3f3f" style="stroke-width:1.0;" x1="0" x2="0" y1="41" y2="221.4375"/><line class="s_c0c0c0_3f3f3f" style="stroke-width:1.0;" x1="16" x2="16" y1="41" y2="221.4375"/><line class="s_c0c0c0_3f3f3f" style="stroke-width:1.0;" x1="32" x2="32" y1="41" y2="221.4375"/><line class="s_c0c0c0_3f3f3f" style="stroke-width:1.0;" x1="48" x2="48" y1="41" y2="221.4375"/><line class="s_c0c0c0_3f3f3f" style="stroke-width:1.0;" x1="64" x2="64" y1="41" y2="221.4375"/><line class="s_c0c0c0_3f3f3f" style="stroke-width:1.0;" x1="80" x2="80" y1="41" y2="221.4375"/><line class="s_c0c0c0_3f3f3f" style="stroke-width:1.0;" x1="96" x2="96" y1="41" y2="221.4375"/><line class="s_c0c0c0_3f3f3f" style="stroke-width:1.0;" x1="112" x2="112" y1="41" y2="221.4375"/><line class="s_c0c0c0_3f3f3f" style="stroke-width:1.0;" x1="128" x2="128" y1="41" y2="221.4375"/><line class="s_c0c0c0_3f3f3f" style="stroke-width:1.0;" x1="144" x2="144" y1="41" y2="221.4375"/><line class="s_c0c0c0_3f3f3f" style="stroke-width:1.0;" x1="160" x2="160" y1="41" y2="221.4375"/><line class="s_c0c0c0_3f3f3f" style="stroke-width:1.0;" x1="176" x2="176" y1="41" y2="221.4375"/><line class="s_c0c0c0_3f3f3f" style="stroke-width:1.0;" x1="192" x2="192" y1="41" y2="221.4375"/><line class="s_c0c0c0_3f3f3f" style="stroke-width:1.0;" x1="208" x2="208" y1="41" y2="221.4375"/><line class="s_c0c0c0_3f3f3f" style="stroke-width:1.0;" x1="224" x2="224" y1="41" y2="221.4375"/><line class="s_c0c0c0_3f3f3f" style="stroke-width:1.0;" x1="240" x2="240" y1="41" y2="221.4375"/><line class="s_c0c0c0_3f3f3f" style="stroke-width:1.0;" x1="256" x2="256" y1="41" y2="221.4375"/><line class="s_c0c0c0_3f3f3f" style="stroke-width:1.0;" x1="272" x2="272" y1="41" y2="221.4375"/><line class="s_c0c0c0_3f3f3f" style="stroke-width:1.0;" x1="288" x2="288" y1="41" y2="221.4375"/><line class="s_c0c0c0_3f3f3f" style="stroke-width:1.0;" x1="304" x2="304" y1="41" y2="221.4375"/><line class="s_c0c0c0_3f3f3f" style="stroke-width:1.0;" x1="320" x2="320" y1="41" y2="221.4375"/><line class="s_c0c0c0_3f3f3f" style="stroke-width:1.0;" x1="336" x2="336" y1="41" y2="221.4375"/><line class="s_c0c0c0_3f3f3f" style="stroke-width:1.0;" x1="352" x2="352" y1="41" y2="221.4375"/><line class="s_c0c0c0_3f3f3f" style="stroke-width:1.0;" x1="368" x2="368" y1="41" y2="221.4375"/><line class="s_c0c0c0_3f3f3f" style="stroke-width:1.0;" x1="384" x2="384" y1="41" y2="221.4375"/><line class="s_c0c0c0_3f3f3f" style="stroke-width:1.0;" x1="0" x2="384" y1="41" y2="41"/><line class="s_c0c0c0_3f3f3f" style="stroke-width:1.0;" x1="0" x2="384" y1="221.4375" y2="221.4375"/><line style="stroke:#FFFFFF;stroke-width:1.5;" x1="167" x2="167" y1="55.8047" y2="66.207"/><line style="stroke:#FFFFFF;stroke-width:1.5;" x1="167" x2="175" y1="66.207" y2="66.207"/><polygon fill="#FFFFFF" points="171,62.207,171,66.207,171,70.207,175,66.207" style="stroke:#FFFFFF;stroke-width:1.5;"/><line style="stroke:#FFFFFF;stroke-width:1.5;" x1="247" x2="247" y1="72.6094" y2="83.0117"/><line style="stroke:#FFFFFF;stroke-width:1.5;" x1="247" x2="255" y1="83.0117" y2="83.0117"/><polygon fill="#FFFFFF" points="251,79.0117,251,83.0117,251,87.0117,255,83.0117" style="stroke:#FFFFFF;stroke-width:1.5;"/><line style="stroke:#FFFFFF;stroke-width:1.5;" x1="247" x2="247" y1="72.6094" y2="99.8164"/><line style="stroke:#FFFFFF;stroke-width:1.5;" x1="247" x2="255" y1="99.8164" y2="99.8164"/><polygon fill="#FFFFFF" points="251,95.8164,251,99.8164,251,103.8164,255,99.8164" style="stroke:#FFFFFF;stroke-width:1.5;"/><line style="stroke:#FFFFFF;stroke-width:1.5;" x1="247" x2="247" y1="72.6094" y2="116.6211"/><line style="stroke:#FFFFFF;stroke-width:1.5;" x1="247" x2="255" y1="116.6211" y2="116.6211"/><polygon fill="#FFFFFF" points="251,112.6211,251,116.6211,251,120.6211,255,116.6211" style="stroke:#FFFFFF;stroke-width:1.5;"/><line style="stroke:#FFFFFF;stroke-width:1.5;" x1="247" x2="247" y1="72.6094" y2="133.4258"/><line style="stroke:#FFFFFF;stroke-width:1.5;" x1="247" x2="255" y1="133.4258" y2="133.4258"/><polygon fill="#FFFFFF" points="251,129.4258,251,133.4258,251,137.4258,255,133.4258" style="stroke:#FFFFFF;stroke-width:1.5;"/><path class="s_181818_e7e7e7" d="M0,57.8047 L0,119.0234 L116,119.0234 L116,67.8047 L106,57.8047 L0,57.8047 " fill="#228811" style="stroke-width:1.0;"/><path class="s_181818_e7e7e7" d="M106,57.8047 L106,67.8047 L116,67.8047 L106,57.8047 " fill="#228811" style="stroke-width:1.0;"/><text fill="#FFFFFF" font-family="Verdana" font-size="11" lengthAdjust="spacing" textLength="59" x="6" y="73.0151">memo1 ...</text><text fill="#FFFFFF" font-family="Verdana" font-size="11" lengthAdjust="spacing" textLength="59" x="6" y="85.8198">memo2 ...</text><text fill="#FFFFFF" font-family="Verdana" font-size="11" lengthAdjust="spacing" textLength="95" x="6" y="98.6245">explanations1 ...</text><text fill="#FFFFFF" font-family="Verdana" font-size="11" lengthAdjust="spacing" textLength="95" x="6" y="111.4292">explanations2 ...</text><rect class="f_f8f8f8_070707" height="12.8047" style="stroke:none;stroke-width:1.0;" width="95" x="2" y="43"/><line class="s_181818_e7e7e7" style="stroke-width:1.0;" x1="2" x2="95" y1="43" y2="43"/><line class="s_181818_e7e7e7" style="stroke-width:1.0;" x1="2" x2="95" y1="55.8047" y2="55.8047"/><line class="s_181818_e7e7e7" style="stroke-width:1.0;" x1="2" x2="2" y1="43" y2="55.8047"/><rect class="f_f8f8f8_070707" height="12.8047" style="stroke:none;stroke-width:1.0;" width="62" x="112" y="43"/><line class="s_181818_e7e7e7" style="stroke-width:1.0;" x1="113" x2="174" y1="43" y2="43"/><line class="s_181818_e7e7e7" style="stroke-width:1.0;" x1="113" x2="174" y1="55.8047" y2="55.8047"/><line class="s_181818_e7e7e7" style="stroke-width:1.0;" x1="174" x2="174" y1="43" y2="55.8047"/><line class="s_181818_e7e7e7" style="stroke-width:1.0;stroke-dasharray:2.0,3.0;" x1="99" x2="109" y1="43" y2="43"/><line class="s_181818_e7e7e7" style="stroke-width:1.0;stroke-dasharray:2.0,3.0;" x1="99" x2="109" y1="55.8047" y2="55.8047"/><rect class="f_f8f8f8_070707" height="12.8047" style="stroke:none;stroke-width:1.0;" width="31" x="178" y="59.8047"/><line class="s_181818_e7e7e7" style="stroke-width:1.0;" x1="178" x2="207" y1="59.8047" y2="59.8047"/><line class="s_181818_e7e7e7" style="stroke-width:1.0;" x1="178" x2="207" y1="72.6094" y2="72.6094"/><line class="s_181818_e7e7e7" style="stroke-width:1.0;" x1="178" x2="178" y1="59.8047" y2="72.6094"/><rect class="f_f8f8f8_070707" height="12.8047" style="stroke:none;stroke-width:1.0;" width="30" x="224" y="59.8047"/><line class="s_181818_e7e7e7" style="stroke-width:1.0;" x1="225" x2="254" y1="59.8047" y2="59.8047"/><line class="s_181818_e7e7e7" style="stroke-width:1.0;" x1="225" x2="254" y1="72.6094" y2="72.6094"/><line class="s_181818_e7e7e7" style="stroke-width:1.0;" x1="254" x2="254" y1="59.8047" y2="72.6094"/><line class="s_181818_e7e7e7" style="stroke-width:1.0;stroke-dasharray:2.0,3.0;" x1="211" x2="221" y1="59.8047" y2="59.8047"/><line class="s_181818_e7e7e7" style="stroke-width:1.0;stroke-dasharray:2.0,3.0;" x1="211" x2="221" y1="72.6094" y2="72.6094"/><rect class="f_ffffff_000000" height="12.8047" style="stroke:none;stroke-width:1.0;" width="63" x="258" y="76.6094"/><line class="s_181818_e7e7e7" style="stroke-width:1.0;" x1="258" x2="319" y1="76.6094" y2="76.6094"/><line class="s_181818_e7e7e7" style="stroke-width:1.0;" x1="258" x2="319" y1="89.4141" y2="89.4141"/><line class="s_181818_e7e7e7" style="stroke-width:1.0;" x1="258" x2="258" y1="76.6094" y2="89.4141"/><rect class="f_ffffff_000000" height="12.8047" style="stroke:none;stroke-width:1.0;" width="46" x="336" y="76.6094"/><line class="s_181818_e7e7e7" style="stroke-width:1.0;" x1="337" x2="382" y1="76.6094" y2="76.6094"/><line class="s_181818_e7e7e7" style="stroke-width:1.0;" x1="337" x2="382" y1="89.4141" y2="89.4141"/><line class="s_181818_e7e7e7" style="stroke-width:1.0;" x1="382" x2="382" y1="76.6094" y2="89.4141"/><line class="s_181818_e7e7e7" style="stroke-width:1.0;stroke-dasharray:2.0,3.0;" x1="323" x2="333" y1="76.6094" y2="76.6094"/><line class="s_181818_e7e7e7" style="stroke-width:1.0;stroke-dasharray:2.0,3.0;" x1="323" x2="333" y1="89.4141" y2="89.4141"/><rect fill="#F8F8F8" height="12.8047" style="stroke:none;stroke-width:1.0;" width="27" x="258" y="93.4141"/><rect class="f_ffffff_000000" height="12.8047" style="stroke:none;stroke-width:1.0;" width="36" x="285" y="93.4141"/><line style="stroke:#181818;stroke-width:1.0;" x1="258" x2="319" y1="93.4141" y2="93.4141"/><line style="stroke:#181818;stroke-width:1.0;" x1="258" x2="319" y1="106.2188" y2="106.2188"/><line style="stroke:#181818;stroke-width:1.0;" x1="258" x2="258" y1="93.4141" y2="106.2188"/><rect class="f_ffffff_000000" height="12.8047" style="stroke:none;stroke-width:1.0;" width="46" x="336" y="93.4141"/><line style="stroke:#181818;stroke-width:1.0;" x1="337" x2="382" y1="93.4141" y2="93.4141"/><line style="stroke:#181818;stroke-width:1.0;" x1="337" x2="382" y1="106.2188" y2="106.2188"/><line style="stroke:#181818;stroke-width:1.0;" x1="382" x2="382" y1="93.4141" y2="106.2188"/><line style="stroke:#181818;stroke-width:1.0;stroke-dasharray:2.0,3.0;" x1="323" x2="333" y1="93.4141" y2="93.4141"/><line style="stroke:#181818;stroke-width:1.0;stroke-dasharray:2.0,3.0;" x1="323" x2="333" y1="106.2188" y2="106.2188"/><rect fill="#F8F8F8" height="12.8047" style="stroke:none;stroke-width:1.0;" width="63" x="258" y="110.2188"/><line style="stroke:#181818;stroke-width:1.0;" x1="258" x2="319" y1="110.2188" y2="110.2188"/><line style="stroke:#181818;stroke-width:1.0;" x1="258" x2="319" y1="123.0234" y2="123.0234"/><line style="stroke:#181818;stroke-width:1.0;" x1="258" x2="258" y1="110.2188" y2="123.0234"/><rect fill="#F8F8F8" height="12.8047" style="stroke:none;stroke-width:1.0;" width="2.8" x="336" y="110.2188"/><rect class="f_ffffff_000000" height="12.8047" style="stroke:none;stroke-width:1.0;" width="43.2" x="338.8" y="110.2188"/><line style="stroke:#181818;stroke-width:1.0;" x1="337" x2="382" y1="110.2188" y2="110.2188"/><line style="stroke:#181818;stroke-width:1.0;" x1="337" x2="382" y1="123.0234" y2="123.0234"/><line style="stroke:#181818;stroke-width:1.0;" x1="382" x2="382" y1="110.2188" y2="123.0234"/><line style="stroke:#181818;stroke-width:1.0;stroke-dasharray:2.0,3.0;" x1="323" x2="333" y1="110.2188" y2="110.2188"/><line style="stroke:#181818;stroke-width:1.0;stroke-dasharray:2.0,3.0;" x1="323" x2="333" y1="123.0234" y2="123.0234"/><rect class="f_f8f8f8_070707" height="12.8047" style="stroke:none;stroke-width:1.0;" width="63" x="258" y="127.0234"/><line class="s_181818_e7e7e7" style="stroke-width:1.0;" x1="258" x2="319" y1="127.0234" y2="127.0234"/><line class="s_181818_e7e7e7" style="stroke-width:1.0;" x1="258" x2="319" y1="139.8281" y2="139.8281"/><line class="s_181818_e7e7e7" style="stroke-width:1.0;" x1="258" x2="258" y1="127.0234" y2="139.8281"/><rect class="f_f8f8f8_070707" height="12.8047" style="stroke:none;stroke-width:1.0;" width="46" x="336" y="127.0234"/><line class="s_181818_e7e7e7" style="stroke-width:1.0;" x1="337" x2="382" y1="127.0234" y2="127.0234"/><line class="s_181818_e7e7e7" style="stroke-width:1.0;" x1="337" x2="382" y1="139.8281" y2="139.8281"/><line class="s_181818_e7e7e7" style="stroke-width:1.0;" x1="382" x2="382" y1="127.0234" y2="139.8281"/><line class="s_181818_e7e7e7" style="stroke-width:1.0;stroke-dasharray:2.0,3.0;" x1="323" x2="333" y1="127.0234" y2="127.0234"/><line class="s_181818_e7e7e7" style="stroke-width:1.0;stroke-dasharray:2.0,3.0;" x1="323" x2="333" y1="139.8281" y2="139.8281"/><line class="s_181818_e7e7e7" style="stroke-width:1.0;" x1="0" x2="5" y1="158.2305" y2="158.2305"/><line class="s_181818_e7e7e7" style="stroke-width:1.0;" x1="97" x2="383" y1="158.2305" y2="158.2305"/><polygon class="f_000000_ffffff s_000000_ffffff" points="248,176.6328,253,181.6328,248,186.6328,243,181.6328" style="stroke-width:1.0;"/><line class="s_181818_e7e7e7" style="stroke-width:1.0;" x1="0" x2="5" y1="205.0352" y2="205.0352"/><line class="s_181818_e7e7e7" style="stroke-width:1.0;" x1="36" x2="383" y1="205.0352" y2="205.0352"/><text class="f_000000_ffffff" font-family="sans-serif" font-size="11" lengthAdjust="spacing" textLength="34" x="6" y="53.2104">Task1</text><text class="f_000000_ffffff" font-family="sans-serif" font-size="11" lengthAdjust="spacing" textLength="34" x="182" y="70.0151">Task2</text><text class="f_000000_ffffff" font-family="sans-serif" font-size="11" lengthAdjust="spacing" textLength="54" x="262" y="86.8198">Test  000</text><text class="f_000000_ffffff" font-family="sans-serif" font-size="11" lengthAdjust="spacing" textLength="54" x="262" y="103.6245">Test  025</text><text class="f_000000_ffffff" font-family="sans-serif" font-size="11" lengthAdjust="spacing" textLength="54" x="262" y="120.4292">Test  060</text><text class="f_000000_ffffff" font-family="sans-serif" font-size="11" lengthAdjust="spacing" textLength="54" x="262" y="137.2339">Test  100</text><text class="f_000000_ffffff" font-family="sans-serif" font-size="11" lengthAdjust="spacing" textLength="82" x="10" y="162.0386">Separator title</text><text class="f_000000_ffffff" font-family="sans-serif" font-size="11" lengthAdjust="spacing" textLength="16" x="256" y="185.4409">M1</text><text class="f_000000_ffffff" font-family="sans-serif" font-size="11" lengthAdjust="spacing" textLength="21" x="10" y="208.8433">end</text><text class="f_000000_ffffff" font-family="Serif" font-size="10" lengthAdjust="spacing" textLength="12" x="2" y="242.7197">14</text><text class="f_000000_ffffff" font-family="Serif" font-size="10" lengthAdjust="spacing" textLength="12" x="18" y="242.7197">15</text><text class="f_000000_ffffff" font-family="Serif" font-size="10" lengthAdjust="spacing" textLength="12" x="34" y="242.7197">16</text><text class="f_000000_ffffff" font-family="Serif" font-size="10" lengthAdjust="spacing" textLength="12" x="50" y="242.7197">17</text><text class="f_000000_ffffff" font-family="Serif" font-size="10" lengthAdjust="spacing" textLength="12" x="66" y="242.7197">18</text><text class="f_000000_ffffff" font-family="Serif" font-size="10" lengthAdjust="spacing" textLength="12" x="82" y="242.7197">19</text><text class="f_989898_676767" font-family="Serif" font-size="10" lengthAdjust="spacing" textLength="12" x="98" y="242.7197">20</text><text class="f_000000_ffffff" font-family="Serif" font-size="10" lengthAdjust="spacing" textLength="12" x="114" y="242.7197">21</text><text class="f_000000_ffffff" font-family="Serif" font-size="10" lengthAdjust="spacing" textLength="12" x="130" y="242.7197">22</text><text class="f_000000_ffffff" font-family="Serif" font-size="10" lengthAdjust="spacing" textLength="12" x="146" y="242.7197">23</text><text class="f_000000_ffffff" font-family="Serif" font-size="10" lengthAdjust="spacing" textLength="12" x="162" y="242.7197">24</text><text class="f_000000_ffffff" font-family="Serif" font-size="10" lengthAdjust="spacing" textLength="12" x="178" y="242.7197">25</text><text class="f_000000_ffffff" font-family="Serif" font-size="10" lengthAdjust="spacing" textLength="12" x="194" y="242.7197">26</text><text class="f_989898_676767" font-family="Serif" font-size="10" lengthAdjust="spacing" textLength="12" x="210" y="242.7197">27</text><text class="f_000000_ffffff" font-family="Serif" font-size="10" lengthAdjust="spacing" textLength="12" x="226" y="242.7197">28</text><text class="f_000000_ffffff" font-family="Serif" font-size="10" lengthAdjust="spacing" textLength="12" x="242" y="242.7197">29</text><text class="f_000000_ffffff" font-family="Serif" font-size="10" lengthAdjust="spacing" textLength="12" x="258" y="242.7197">30</text><text class="f_000000_ffffff" font-family="Serif" font-size="10" lengthAdjust="spacing" textLength="12" x="274" y="242.7197">31</text><text class="f_000000_ffffff" font-family="Serif" font-size="10" lengthAdjust="spacing" textLength="6" x="293" y="242.7197">1</text><text class="f_000000_ffffff" font-family="Serif" font-size="10" lengthAdjust="spacing" textLength="6" x="309" y="242.7197">2</text><text class="f_989898_676767" font-family="Serif" font-size="10" lengthAdjust="spacing" textLength="6" x="325" y="242.7197">3</text><text class="f_000000_ffffff" font-family="Serif" font-size="10" lengthAdjust="spacing" textLength="6" x="341" y="242.7197">4</text><text class="f_000000_ffffff" font-family="Serif" font-size="10" lengthAdjust="spacing" textLength="6" x="357" y="242.7197">5</text><text class="f_000000_ffffff" font-family="Serif" font-size="10" lengthAdjust="spacing" textLength="6" x="373" y="242.7197">6</text><text class="f_000000_ffffff" font-family="Serif" font-size="10" lengthAdjust="spacing" textLength="16" x="0" y="230.7197">Mo</text><text class="f_000000_ffffff" font-family="Serif" font-size="10" lengthAdjust="spacing" textLength="14" x="17" y="230.7197">Tu</text><text class="f_000000_ffffff" font-family="Serif" font-size="10" lengthAdjust="spacing" textLength="17" x="32" y="230.7197">We</text><text class="f_000000_ffffff" font-family="Serif" font-size="10" lengthAdjust="spacing" textLength="14" x="49" y="230.7197">Th</text><text class="f_000000_ffffff" font-family="Serif" font-size="10" lengthAdjust="spacing" textLength="12" x="66" y="230.7197">Fr</text><text class="f_000000_ffffff" font-family="Serif" font-size="10" lengthAdjust="spacing" textLength="11" x="82.5" y="230.7197">Sa</text><text class="f_989898_676767" font-family="Serif" font-size="10" lengthAdjust="spacing" textLength="12" x="98" y="230.7197">Su</text><text class="f_000000_ffffff" font-family="Serif" font-size="10" lengthAdjust="spacing" textLength="16" x="112" y="230.7197">Mo</text><text class="f_000000_ffffff" font-family="Serif" font-size="10" lengthAdjust="spacing" textLength="14" x="129" y="230.7197">Tu</text><text class="f_000000_ffffff" font-family="Serif" font-size="10" lengthAdjust="spacing" textLength="17" x="144" y="230.7197">We</text><text class="f_000000_ffffff" font-family="Serif" font-size="10" lengthAdjust="spacing" textLength="14" x="161" y="230.7197">Th</text><text class="f_000000_ffffff" font-family="Serif" font-size="10" lengthAdjust="spacing" textLength="12" x="178" y="230.7197">Fr</text><text class="f_000000_ffffff" font-family="Serif" font-size="10" lengthAdjust="spacing" textLength="11" x="194.5" y="230.7197">Sa</text><text class="f_989898_676767" font-family="Serif" font-size="10" lengthAdjust="spacing" textLength="12" x="210" y="230.7197">Su</text><text class="f_000000_ffffff" font-family="Serif" font-size="10" lengthAdjust="spacing" textLength="16" x="224" y="230.7197">Mo</text><text class="f_000000_ffffff" font-family="Serif" font-size="10" lengthAdjust="spacing" textLength="14" x="241" y="230.7197">Tu</text><text class="f_000000_ffffff" font-family="Serif" font-size="10" lengthAdjust="spacing" textLength="17" x="256" y="230.7197">We</text><text class="f_000000_ffffff" font-family="Serif" font-size="10" lengthAdjust="spacing" textLength="14" x="273" y="230.7197">Th</text><text class="f_000000_ffffff" font-family="Serif" font-size="10" lengthAdjust="spacing" textLength="12" x="290" y="230.7197">Fr</text><text class="f_000000_ffffff" font-family="Serif" font-size="10" lengthAdjust="spacing" textLength="11" x="306.5" y="230.7197">Sa</text><text class="f_989898_676767" font-family="Serif" font-size="10" lengthAdjust="spacing" textLength="12" x="322" y="230.7197">Su</text><text class="f_000000_ffffff" font-family="Serif" font-size="10" lengthAdjust="spacing" textLength="16" x="336" y="230.7197">Mo</text><text class="f_000000_ffffff" font-family="Serif" font-size="10" lengthAdjust="spacing" textLength="14" x="353" y="230.7197">Tu</text><text class="f_000000_ffffff" font-family="Serif" font-size="10" lengthAdjust="spacing" textLength="17" x="368" y="230.7197">We</text><text class="f_000000_ffffff" font-family="Serif" font-size="12" font-weight="bold" lengthAdjust="spacing" textLength="106" x="91" y="256.7051">December 2020</text><text class="f_000000_ffffff" font-family="Serif" font-size="12" font-weight="bold" lengthAdjust="spacing" textLength="89" x="291.5" y="256.7051">January 2021</text></g></svg>