<?xml version="1.0" encoding="us-ascii" standalone="no"?><svg xmlns="http://www.w3.org/2000/svg" xmlns:xlink="http://www.w3.org/1999/xlink" contentStyleType="text/css" height="265px" preserveAspectRatio="none" style="width:338px;height:265px;" version="1.1" viewBox="0 0 338 265" width="338px" zoomAndPan="magnify"><defs/><g><rect fill="#262626" height="16" style="stroke:none;stroke-width:1.0;" width="336" x="0" y="0"/><rect fill="#262626" height="16" style="stroke:none;stroke-width:1.0;" width="336" x="0" y="247.75"/><line style="stroke:#F4F4F4;stroke-width:1.0;" x1="0" x2="0" y1="0" y2="249.75"/><line style="stroke:#F4F4F4;stroke-width:1.0;" x1="16" x2="16" y1="0" y2="249.75"/><line style="stroke:#F4F4F4;stroke-width:1.0;" x1="32" x2="32" y1="0" y2="249.75"/><line style="stroke:#F4F4F4;stroke-width:1.0;" x1="48" x2="48" y1="0" y2="249.75"/><line style="stroke:#F4F4F4;stroke-width:1.0;" x1="64" x2="64" y1="0" y2="249.75"/><line style="stroke:#F4F4F4;stroke-width:1.0;" x1="80" x2="80" y1="0" y2="249.75"/><line style="stroke:#F4F4F4;stroke-width:1.0;" x1="96" x2="96" y1="0" y2="249.75"/><line style="stroke:#F4F4F4;stroke-width:1.0;" x1="112" x2="112" y1="0" y2="249.75"/><line style="stroke:#F4F4F4;stroke-width:1.0;" x1="128" x2="128" y1="0" y2="249.75"/><line style="stroke:#F4F4F4;stroke-width:1.0;" x1="144" x2="144" y1="0" y2="249.75"/><line style="stroke:#F4F4F4;stroke-width:1.0;" x1="160" x2="160" y1="0" y2="249.75"/><line style="stroke:#F4F4F4;stroke-width:1.0;" x1="176" x2="176" y1="0" y2="249.75"/><line style="stroke:#F4F4F4;stroke-width:1.0;" x1="192" x2="192" y1="0" y2="249.75"/><line style="stroke:#F4F4F4;stroke-width:1.0;" x1="208" x2="208" y1="0" y2="249.75"/><line style="stroke:#F4F4F4;stroke-width:1.0;" x1="224" x2="224" y1="0" y2="249.75"/><line style="stroke:#F4F4F4;stroke-width:1.0;" x1="240" x2="240" y1="0" y2="249.75"/><line style="stroke:#F4F4F4;stroke-width:1.0;" x1="256" x2="256" y1="0" y2="249.75"/><line style="stroke:#F4F4F4;stroke-width:1.0;" x1="272" x2="272" y1="0" y2="249.75"/><line style="stroke:#F4F4F4;stroke-width:1.0;" x1="288" x2="288" y1="0" y2="249.75"/><line style="stroke:#F4F4F4;stroke-width:1.0;" x1="304" x2="304" y1="0" y2="249.75"/><line style="stroke:#F4F4F4;stroke-width:1.0;" x1="320" x2="320" y1="0" y2="249.75"/><line style="stroke:#F4F4F4;stroke-width:1.0;" x1="336" x2="336" y1="0" y2="249.75"/><text fill="#FFFFFF" font-family="Serif" font-size="10" lengthAdjust="spacing" textLength="6" x="5" y="9.2822">1</text><text fill="#FFFFFF" font-family="Serif" font-size="10" lengthAdjust="spacing" textLength="6" x="21" y="9.2822">2</text><text fill="#FFFFFF" font-family="Serif" font-size="10" lengthAdjust="spacing" textLength="6" x="37" y="9.2822">3</text><text fill="#FFFFFF" font-family="Serif" font-size="10" lengthAdjust="spacing" textLength="6" x="53" y="9.2822">4</text><text fill="#FFFFFF" font-family="Serif" font-size="10" lengthAdjust="spacing" textLength="6" x="69" y="9.2822">5</text><text fill="#FFFFFF" font-family="Serif" font-size="10" lengthAdjust="spacing" textLength="6" x="85" y="9.2822">6</text><text fill="#FFFFFF" font-family="Serif" font-size="10" lengthAdjust="spacing" textLength="6" x="101" y="9.2822">7</text><text fill="#FFFFFF" font-family="Serif" font-size="10" lengthAdjust="spacing" textLength="6" x="117" y="9.2822">8</text><text fill="#FFFFFF" font-family="Serif" font-size="10" lengthAdjust="spacing" textLength="6" x="133" y="9.2822">9</text><text fill="#FFFFFF" font-family="Serif" font-size="10" lengthAdjust="spacing" textLength="12" x="146" y="9.2822">10</text><text fill="#FFFFFF" font-family="Serif" font-size="10" lengthAdjust="spacing" textLength="12" x="162" y="9.2822">11</text><text fill="#FFFFFF" font-family="Serif" font-size="10" lengthAdjust="spacing" textLength="12" x="178" y="9.2822">12</text><text fill="#FFFFFF" font-family="Serif" font-size="10" lengthAdjust="spacing" textLength="12" x="194" y="9.2822">13</text><text fill="#FFFFFF" font-family="Serif" font-size="10" lengthAdjust="spacing" textLength="12" x="210" y="9.2822">14</text><text fill="#FFFFFF" font-family="Serif" font-size="10" lengthAdjust="spacing" textLength="12" x="226" y="9.2822">15</text><text fill="#FFFFFF" font-family="Serif" font-size="10" lengthAdjust="spacing" textLength="12" x="242" y="9.2822">16</text><text fill="#FFFFFF" font-family="Serif" font-size="10" lengthAdjust="spacing" textLength="12" x="258" y="9.2822">17</text><text fill="#FFFFFF" font-family="Serif" font-size="10" lengthAdjust="spacing" textLength="12" x="274" y="9.2822">18</text><text fill="#FFFFFF" font-family="Serif" font-size="10" lengthAdjust="spacing" textLength="12" x="290" y="9.2822">19</text><text fill="#FFFFFF" font-family="Serif" font-size="10" lengthAdjust="spacing" textLength="12" x="306" y="9.2822">20</text><text fill="#FFFFFF" font-family="Serif" font-size="10" lengthAdjust="spacing" textLength="12" x="322" y="9.2822">21</text><line style="stroke:#F4F4F4;stroke-width:1.0;" x1="0" x2="336" y1="0" y2="0"/><line style="stroke:#F4F4F4;stroke-width:1.0;" x1="0" x2="336" y1="13" y2="13"/><line style="stroke:#C6C6C6;stroke-width:1.0;" x1="151" x2="151" y1="38.9688" y2="54.9531"/><line style="stroke:#C6C6C6;stroke-width:1.0;" x1="151" x2="159" y1="54.9531" y2="54.9531"/><polygon fill="#C6C6C6" points="155,50.9531,155,54.9531,155,58.9531,159,54.9531" style="stroke:#C6C6C6;stroke-width:1.5;"/><line style="stroke:#C6C6C6;stroke-width:1.0;" x1="215" x2="215" y1="64.9375" y2="80.9219"/><line style="stroke:#C6C6C6;stroke-width:1.0;" x1="215" x2="223" y1="80.9219" y2="80.9219"/><polygon fill="#C6C6C6" points="219,76.9219,219,80.9219,219,84.9219,223,80.9219" style="stroke:#C6C6C6;stroke-width:1.5;"/><line style="stroke:#C6C6C6;stroke-width:1.0;" x1="215" x2="215" y1="64.9375" y2="106.8906"/><line style="stroke:#C6C6C6;stroke-width:1.0;" x1="215" x2="223" y1="106.8906" y2="106.8906"/><polygon fill="#C6C6C6" points="219,102.8906,219,106.8906,219,110.8906,223,106.8906" style="stroke:#C6C6C6;stroke-width:1.5;"/><line style="stroke:#C6C6C6;stroke-width:1.0;" x1="215" x2="215" y1="64.9375" y2="132.8594"/><line style="stroke:#C6C6C6;stroke-width:1.0;" x1="215" x2="223" y1="132.8594" y2="132.8594"/><polygon fill="#C6C6C6" points="219,128.8594,219,132.8594,219,136.8594,223,132.8594" style="stroke:#C6C6C6;stroke-width:1.5;"/><line style="stroke:#C6C6C6;stroke-width:1.0;" x1="215" x2="215" y1="64.9375" y2="158.8281"/><line style="stroke:#C6C6C6;stroke-width:1.0;" x1="215" x2="223" y1="158.8281" y2="158.8281"/><polygon fill="#C6C6C6" points="219,154.8281,219,158.8281,219,162.8281,223,158.8281" style="stroke:#C6C6C6;stroke-width:1.5;"/><path d="M0,41.9688 L0,107.8438 L125,107.8438 L125,51.9688 L115,41.9688 L0,41.9688 " fill="#FFFFFF" style="stroke:#262626;stroke-width:1.0;"/><path d="M115,41.9688 L115,51.9688 L125,51.9688 L115,41.9688 " fill="#FFFFFF" style="stroke:#262626;stroke-width:1.0;"/><text fill="#262626" font-family="IBM Plex Sans, Noto Sans, Verdana" font-size="12" lengthAdjust="spacing" textLength="62" x="6" y="58.1074">memo1 ...</text><text fill="#262626" font-family="IBM Plex Sans, Noto Sans, Verdana" font-size="12" lengthAdjust="spacing" textLength="62" x="6" y="72.0762">memo2 ...</text><text fill="#262626" font-family="IBM Plex Sans, Noto Sans, Verdana" font-size="12" lengthAdjust="spacing" textLength="104" x="6" y="86.0449">explanations1 ...</text><text fill="#262626" font-family="IBM Plex Sans, Noto Sans, Verdana" font-size="12" lengthAdjust="spacing" textLength="104" x="6" y="100.0137">explanations2 ...</text><rect fill="#F4F4F4" height="19.9688" style="stroke:none;stroke-width:1.0;" width="154" x="3" y="19"/><line style="stroke:#C6C6C6;stroke-width:1.0;" x1="3" x2="157" y1="19" y2="19"/><line style="stroke:#C6C6C6;stroke-width:1.0;" x1="3" x2="157" y1="38.9688" y2="38.9688"/><line style="stroke:#C6C6C6;stroke-width:1.0;" x1="3" x2="3" y1="19" y2="38.9688"/><line style="stroke:#C6C6C6;stroke-width:1.0;" x1="157" x2="157" y1="19" y2="38.9688"/><rect fill="#F4F4F4" height="19.9688" style="stroke:none;stroke-width:1.0;" width="58" x="163" y="44.9688"/><line style="stroke:#C6C6C6;stroke-width:1.0;" x1="163" x2="221" y1="44.9688" y2="44.9688"/><line style="stroke:#C6C6C6;stroke-width:1.0;" x1="163" x2="221" y1="64.9375" y2="64.9375"/><line style="stroke:#C6C6C6;stroke-width:1.0;" x1="163" x2="163" y1="44.9688" y2="64.9375"/><line style="stroke:#C6C6C6;stroke-width:1.0;" x1="221" x2="221" y1="44.9688" y2="64.9375"/><rect fill="#FFFFFF" height="19.9688" style="stroke:none;stroke-width:1.0;" width="106" x="227" y="70.9375"/><line style="stroke:#C6C6C6;stroke-width:1.0;" x1="227" x2="333" y1="70.9375" y2="70.9375"/><line style="stroke:#C6C6C6;stroke-width:1.0;" x1="227" x2="333" y1="90.9063" y2="90.9063"/><line style="stroke:#C6C6C6;stroke-width:1.0;" x1="227" x2="227" y1="70.9375" y2="90.9063"/><line style="stroke:#C6C6C6;stroke-width:1.0;" x1="333" x2="333" y1="70.9375" y2="90.9063"/><rect fill="#F4F4F4" height="19.9688" style="stroke:none;stroke-width:1.0;" width="26.5" x="227" y="96.9063"/><rect fill="#FFFFFF" height="19.9688" style="stroke:none;stroke-width:1.0;" width="79.5" x="253.5" y="96.9063"/><line style="stroke:#C6C6C6;stroke-width:1.0;" x1="227" x2="333" y1="96.9063" y2="96.9063"/><line style="stroke:#C6C6C6;stroke-width:1.0;" x1="227" x2="333" y1="116.875" y2="116.875"/><line style="stroke:#C6C6C6;stroke-width:1.0;" x1="227" x2="227" y1="96.9063" y2="116.875"/><line style="stroke:#C6C6C6;stroke-width:1.0;" x1="333" x2="333" y1="96.9063" y2="116.875"/><rect fill="#F4F4F4" height="19.9688" style="stroke:none;stroke-width:1.0;" width="63.6" x="227" y="122.875"/><rect fill="#FFFFFF" height="19.9688" style="stroke:none;stroke-width:1.0;" width="42.4" x="290.6" y="122.875"/><line style="stroke:#C6C6C6;stroke-width:1.0;" x1="227" x2="333" y1="122.875" y2="122.875"/><line style="stroke:#C6C6C6;stroke-width:1.0;" x1="227" x2="333" y1="142.8438" y2="142.8438"/><line style="stroke:#C6C6C6;stroke-width:1.0;" x1="227" x2="227" y1="122.875" y2="142.8438"/><line style="stroke:#C6C6C6;stroke-width:1.0;" x1="333" x2="333" y1="122.875" y2="142.8438"/><rect fill="#F4F4F4" height="19.9688" style="stroke:none;stroke-width:1.0;" width="106" x="227" y="148.8438"/><line style="stroke:#C6C6C6;stroke-width:1.0;" x1="227" x2="333" y1="148.8438" y2="148.8438"/><line style="stroke:#C6C6C6;stroke-width:1.0;" x1="227" x2="333" y1="168.8125" y2="168.8125"/><line style="stroke:#C6C6C6;stroke-width:1.0;" x1="227" x2="227" y1="148.8438" y2="168.8125"/><line style="stroke:#C6C6C6;stroke-width:1.0;" x1="333" x2="333" y1="148.8438" y2="168.8125"/><rect fill="#F4F4F4" height="23.9688" style="stroke:none;stroke-width:1.0;" width="336" x="0" y="174.8125"/><line style="stroke:#F4F4F4;stroke-width:1.0;" x1="0" x2="5" y1="186.7969" y2="186.7969"/><line style="stroke:#F4F4F4;stroke-width:1.0;" x1="116" x2="335" y1="186.7969" y2="186.7969"/><polygon fill="#262626" points="232,203.7813,238,209.7813,232,215.7813,226,209.7813" style="stroke:#262626;stroke-width:1.0;"/><rect fill="#F4F4F4" height="23.9688" style="stroke:none;stroke-width:1.0;" width="336" x="0" y="220.7813"/><line style="stroke:#F4F4F4;stroke-width:1.0;" x1="0" x2="5" y1="232.7656" y2="232.7656"/><line style="stroke:#F4F4F4;stroke-width:1.0;" x1="38" x2="335" y1="232.7656" y2="232.7656"/><text fill="#000000" font-family="IBM Plex Sans, Noto Sans, Verdana" font-size="12" font-weight="bold" lengthAdjust="spacing" textLength="41" x="6" y="33.1387">Task1</text><text fill="#000000" font-family="IBM Plex Sans, Noto Sans, Verdana" font-size="12" font-weight="bold" lengthAdjust="spacing" textLength="41" x="166" y="59.1074">Task2</text><text fill="#000000" font-family="IBM Plex Sans, Noto Sans, Verdana" font-size="12" font-weight="bold" lengthAdjust="spacing" textLength="63" x="230" y="85.0762">Test  000</text><text fill="#000000" font-family="IBM Plex Sans, Noto Sans, Verdana" font-size="12" font-weight="bold" lengthAdjust="spacing" textLength="63" x="230" y="111.0449">Test  025</text><text fill="#000000" font-family="IBM Plex Sans, Noto Sans, Verdana" font-size="12" font-weight="bold" lengthAdjust="spacing" textLength="63" x="230" y="137.0137">Test  060</text><text fill="#000000" font-family="IBM Plex Sans, Noto Sans, Verdana" font-size="12" font-weight="bold" lengthAdjust="spacing" textLength="63" x="230" y="162.9824">Test  100</text><text fill="#262626" font-family="IBM Plex Sans, Noto Sans, Verdana" font-size="12" font-weight="bold" lengthAdjust="spacing" textLength="105" x="8" y="190.9512">Separator title</text><text fill="#262626" font-family="IBM Plex Sans, Noto Sans, Verdana" font-size="12" font-weight="bold" lengthAdjust="spacing" textLength="20" x="241" y="213.9355">M1</text><text fill="#262626" font-family="IBM Plex Sans, Noto Sans, Verdana" font-size="12" font-weight="bold" lengthAdjust="spacing" textLength="27" x="8" y="236.9199">end</text><line style="stroke:#F4F4F4;stroke-width:1.0;" x1="0" x2="0" y1="250.75" y2="263.75"/><line style="stroke:#F4F4F4;stroke-width:1.0;" x1="16" x2="16" y1="250.75" y2="263.75"/><line style="stroke:#F4F4F4;stroke-width:1.0;" x1="32" x2="32" y1="250.75" y2="263.75"/><line style="stroke:#F4F4F4;stroke-width:1.0;" x1="48" x2="48" y1="250.75" y2="263.75"/><line style="stroke:#F4F4F4;stroke-width:1.0;" x1="64" x2="64" y1="250.75" y2="263.75"/><line style="stroke:#F4F4F4;stroke-width:1.0;" x1="80" x2="80" y1="250.75" y2="263.75"/><line style="stroke:#F4F4F4;stroke-width:1.0;" x1="96" x2="96" y1="250.75" y2="263.75"/><line style="stroke:#F4F4F4;stroke-width:1.0;" x1="112" x2="112" y1="250.75" y2="263.75"/><line style="stroke:#F4F4F4;stroke-width:1.0;" x1="128" x2="128" y1="250.75" y2="263.75"/><line style="stroke:#F4F4F4;stroke-width:1.0;" x1="144" x2="144" y1="250.75" y2="263.75"/><line style="stroke:#F4F4F4;stroke-width:1.0;" x1="160" x2="160" y1="250.75" y2="263.75"/><line style="stroke:#F4F4F4;stroke-width:1.0;" x1="176" x2="176" y1="250.75" y2="263.75"/><line style="stroke:#F4F4F4;stroke-width:1.0;" x1="192" x2="192" y1="250.75" y2="263.75"/><line style="stroke:#F4F4F4;stroke-width:1.0;" x1="208" x2="208" y1="250.75" y2="263.75"/><line style="stroke:#F4F4F4;stroke-width:1.0;" x1="224" x2="224" y1="250.75" y2="263.75"/><line style="stroke:#F4F4F4;stroke-width:1.0;" x1="240" x2="240" y1="250.75" y2="263.75"/><line style="stroke:#F4F4F4;stroke-width:1.0;" x1="256" x2="256" y1="250.75" y2="263.75"/><line style="stroke:#F4F4F4;stroke-width:1.0;" x1="272" x2="272" y1="250.75" y2="263.75"/><line style="stroke:#F4F4F4;stroke-width:1.0;" x1="288" x2="288" y1="250.75" y2="263.75"/><line style="stroke:#F4F4F4;stroke-width:1.0;" x1="304" x2="304" y1="250.75" y2="263.75"/><line style="stroke:#F4F4F4;stroke-width:1.0;" x1="320" x2="320" y1="250.75" y2="263.75"/><line style="stroke:#F4F4F4;stroke-width:1.0;" x1="336" x2="336" y1="250.75" y2="263.75"/><text fill="#FFFFFF" font-family="Serif" font-size="10" lengthAdjust="spacing" textLength="6" x="5" y="260.0322">1</text><text fill="#FFFFFF" font-family="Serif" font-size="10" lengthAdjust="spacing" textLength="6" x="21" y="260.0322">2</text><text fill="#FFFFFF" font-family="Serif" font-size="10" lengthAdjust="spacing" textLength="6" x="37" y="260.0322">3</text><text fill="#FFFFFF" font-family="Serif" font-size="10" lengthAdjust="spacing" textLength="6" x="53" y="260.0322">4</text><text fill="#FFFFFF" font-family="Serif" font-size="10" lengthAdjust="spacing" textLength="6" x="69" y="260.0322">5</text><text fill="#FFFFFF" font-family="Serif" font-size="10" lengthAdjust="spacing" textLength="6" x="85" y="260.0322">6</text><text fill="#FFFFFF" font-family="Serif" font-size="10" lengthAdjust="spacing" textLength="6" x="101" y="260.0322">7</text><text fill="#FFFFFF" font-family="Serif" font-size="10" lengthAdjust="spacing" textLength="6" x="117" y="260.0322">8</text><text fill="#FFFFFF" font-family="Serif" font-size="10" lengthAdjust="spacing" textLength="6" x="133" y="260.0322">9</text><text fill="#FFFFFF" font-family="Serif" font-size="10" lengthAdjust="spacing" textLength="12" x="146" y="260.0322">10</text><text fill="#FFFFFF" font-family="Serif" font-size="10" lengthAdjust="spacing" textLength="12" x="162" y="260.0322">11</text><text fill="#FFFFFF" font-family="Serif" font-size="10" lengthAdjust="spacing" textLength="12" x="178" y="260.0322">12</text><text fill="#FFFFFF" font-family="Serif" font-size="10" lengthAdjust="spacing" textLength="12" x="194" y="260.0322">13</text><text fill="#FFFFFF" font-family="Serif" font-size="10" lengthAdjust="spacing" textLength="12" x="210" y="260.0322">14</text><text fill="#FFFFFF" font-family="Serif" font-size="10" lengthAdjust="spacing" textLength="12" x="226" y="260.0322">15</text><text fill="#FFFFFF" font-family="Serif" font-size="10" lengthAdjust="spacing" textLength="12" x="242" y="260.0322">16</text><text fill="#FFFFFF" font-family="Serif" font-size="10" lengthAdjust="spacing" textLength="12" x="258" y="260.0322">17</text><text fill="#FFFFFF" font-family="Serif" font-size="10" lengthAdjust="spacing" textLength="12" x="274" y="260.0322">18</text><text fill="#FFFFFF" font-family="Serif" font-size="10" lengthAdjust="spacing" textLength="12" x="290" y="260.0322">19</text><text fill="#FFFFFF" font-family="Serif" font-size="10" lengthAdjust="spacing" textLength="12" x="306" y="260.0322">20</text><text fill="#FFFFFF" font-family="Serif" font-size="10" lengthAdjust="spacing" textLength="12" x="322" y="260.0322">21</text><line style="stroke:#F4F4F4;stroke-width:1.0;" x1="0" x2="336" y1="250.75" y2="250.75"/></g></svg>