<?xml version="1.0" encoding="UTF-8" standalone="no"?><svg xmlns="http://www.w3.org/2000/svg" xmlns:xlink="http://www.w3.org/1999/xlink" contentStyleType="text/css" height="225px" preserveAspectRatio="none" style="width:338px;height:225px;background:#00000000;" version="1.1" viewBox="0 0 338 225" width="338px" zoomAndPan="magnify"><defs/><g><line style="stroke:#C0C0C0;stroke-width:1.0;" x1="0" x2="0" y1="0" y2="207.75"/><line style="stroke:#C0C0C0;stroke-width:1.0;" x1="16" x2="16" y1="0" y2="207.75"/><line style="stroke:#C0C0C0;stroke-width:1.0;" x1="32" x2="32" y1="0" y2="207.75"/><line style="stroke:#C0C0C0;stroke-width:1.0;" x1="48" x2="48" y1="0" y2="207.75"/><line style="stroke:#C0C0C0;stroke-width:1.0;" x1="64" x2="64" y1="0" y2="207.75"/><line style="stroke:#C0C0C0;stroke-width:1.0;" x1="80" x2="80" y1="0" y2="207.75"/><line style="stroke:#C0C0C0;stroke-width:1.0;" x1="96" x2="96" y1="0" y2="207.75"/><line style="stroke:#C0C0C0;stroke-width:1.0;" x1="112" x2="112" y1="0" y2="207.75"/><line style="stroke:#C0C0C0;stroke-width:1.0;" x1="128" x2="128" y1="0" y2="207.75"/><line style="stroke:#C0C0C0;stroke-width:1.0;" x1="144" x2="144" y1="0" y2="207.75"/><line style="stroke:#C0C0C0;stroke-width:1.0;" x1="160" x2="160" y1="0" y2="207.75"/><line style="stroke:#C0C0C0;stroke-width:1.0;" x1="176" x2="176" y1="0" y2="207.75"/><line style="stroke:#C0C0C0;stroke-width:1.0;" x1="192" x2="192" y1="0" y2="207.75"/><line style="stroke:#C0C0C0;stroke-width:1.0;" x1="208" x2="208" y1="0" y2="207.75"/><line style="stroke:#C0C0C0;stroke-width:1.0;" x1="224" x2="224" y1="0" y2="207.75"/><line style="stroke:#C0C0C0;stroke-width:1.0;" x1="240" x2="240" y1="0" y2="207.75"/><line style="stroke:#C0C0C0;stroke-width:1.0;" x1="256" x2="256" y1="0" y2="207.75"/><line style="stroke:#C0C0C0;stroke-width:1.0;" x1="272" x2="272" y1="0" y2="207.75"/><line style="stroke:#C0C0C0;stroke-width:1.0;" x1="288" x2="288" y1="0" y2="207.75"/><line style="stroke:#C0C0C0;stroke-width:1.0;" x1="304" x2="304" y1="0" y2="207.75"/><line style="stroke:#C0C0C0;stroke-width:1.0;" x1="320" x2="320" y1="0" y2="207.75"/><line style="stroke:#C0C0C0;stroke-width:1.0;" x1="336" x2="336" y1="0" y2="207.75"/><text fill="#000000" font-family="Serif" font-size="10" lengthAdjust="spacing" textLength="6" x="5" y="9.2822">1</text><text fill="#000000" font-family="Serif" font-size="10" lengthAdjust="spacing" textLength="6" x="21" y="9.2822">2</text><text fill="#000000" font-family="Serif" font-size="10" lengthAdjust="spacing" textLength="6" x="37" y="9.2822">3</text><text fill="#000000" font-family="Serif" font-size="10" lengthAdjust="spacing" textLength="6" x="53" y="9.2822">4</text><text fill="#000000" font-family="Serif" font-size="10" lengthAdjust="spacing" textLength="6" x="69" y="9.2822">5</text><text fill="#000000" font-family="Serif" font-size="10" lengthAdjust="spacing" textLength="6" x="85" y="9.2822">6</text><text fill="#000000" font-family="Serif" font-size="10" lengthAdjust="spacing" textLength="6" x="101" y="9.2822">7</text><text fill="#000000" font-family="Serif" font-size="10" lengthAdjust="spacing" textLength="6" x="117" y="9.2822">8</text><text fill="#000000" font-family="Serif" font-size="10" lengthAdjust="spacing" textLength="6" x="133" y="9.2822">9</text><text fill="#000000" font-family="Serif" font-size="10" lengthAdjust="spacing" textLength="12" x="146" y="9.2822">10</text><text fill="#000000" font-family="Serif" font-size="10" lengthAdjust="spacing" textLength="12" x="162" y="9.2822">11</text><text fill="#000000" font-family="Serif" font-size="10" lengthAdjust="spacing" textLength="12" x="178" y="9.2822">12</text><text fill="#000000" font-family="Serif" font-size="10" lengthAdjust="spacing" textLength="12" x="194" y="9.2822">13</text><text fill="#000000" font-family="Serif" font-size="10" lengthAdjust="spacing" textLength="12" x="210" y="9.2822">14</text><text fill="#000000" font-family="Serif" font-size="10" lengthAdjust="spacing" textLength="12" x="226" y="9.2822">15</text><text fill="#000000" font-family="Serif" font-size="10" lengthAdjust="spacing" textLength="12" x="242" y="9.2822">16</text><text fill="#000000" font-family="Serif" font-size="10" lengthAdjust="spacing" textLength="12" x="258" y="9.2822">17</text><text fill="#000000" font-family="Serif" font-size="10" lengthAdjust="spacing" textLength="12" x="274" y="9.2822">18</text><text fill="#000000" font-family="Serif" font-size="10" lengthAdjust="spacing" textLength="12" x="290" y="9.2822">19</text><text fill="#000000" font-family="Serif" font-size="10" lengthAdjust="spacing" textLength="12" x="306" y="9.2822">20</text><text fill="#000000" font-family="Serif" font-size="10" lengthAdjust="spacing" textLength="12" x="322" y="9.2822">21</text><line style="stroke:#C0C0C0;stroke-width:1.0;" x1="0" x2="336" y1="0" y2="0"/><line style="stroke:#C0C0C0;stroke-width:1.0;" x1="0" x2="336" y1="13" y2="13"/><line style="stroke:#C6C6C6;stroke-width:1.0;" x1="151" x2="151" y1="31.9688" y2="42.9531"/><line style="stroke:#C6C6C6;stroke-width:1.0;" x1="151" x2="159" y1="42.9531" y2="42.9531"/><polygon fill="#C6C6C6" points="155,38.9531,155,42.9531,155,46.9531,159,42.9531" style="stroke:#C6C6C6;stroke-width:1.5;"/><line style="stroke:#C6C6C6;stroke-width:1.0;" x1="215" x2="215" y1="49.9375" y2="60.9219"/><line style="stroke:#C6C6C6;stroke-width:1.0;" x1="215" x2="223" y1="60.9219" y2="60.9219"/><polygon fill="#C6C6C6" points="219,56.9219,219,60.9219,219,64.9219,223,60.9219" style="stroke:#C6C6C6;stroke-width:1.5;"/><line style="stroke:#C6C6C6;stroke-width:1.0;" x1="215" x2="215" y1="49.9375" y2="78.8906"/><line style="stroke:#C6C6C6;stroke-width:1.0;" x1="215" x2="223" y1="78.8906" y2="78.8906"/><polygon fill="#C6C6C6" points="219,74.8906,219,78.8906,219,82.8906,223,78.8906" style="stroke:#C6C6C6;stroke-width:1.5;"/><line style="stroke:#C6C6C6;stroke-width:1.0;" x1="215" x2="215" y1="49.9375" y2="96.8594"/><line style="stroke:#C6C6C6;stroke-width:1.0;" x1="215" x2="223" y1="96.8594" y2="96.8594"/><polygon fill="#C6C6C6" points="219,92.8594,219,96.8594,219,100.8594,223,96.8594" style="stroke:#C6C6C6;stroke-width:1.5;"/><line style="stroke:#C6C6C6;stroke-width:1.0;" x1="215" x2="215" y1="49.9375" y2="114.8281"/><line style="stroke:#C6C6C6;stroke-width:1.0;" x1="215" x2="223" y1="114.8281" y2="114.8281"/><polygon fill="#C6C6C6" points="219,110.8281,219,114.8281,219,118.8281,223,114.8281" style="stroke:#C6C6C6;stroke-width:1.5;"/><path d="M0,33.9688 L0,99.8438 L125,99.8438 L125,43.9688 L115,33.9688 L0,33.9688 " fill="#FFFFFF" style="stroke:#181818;stroke-width:1.0;"/><path d="M115,33.9688 L115,43.9688 L125,43.9688 L115,33.9688 " fill="#FFFFFF" style="stroke:#181818;stroke-width:1.0;"/><text fill="#262626" font-family="IBM Plex Sans, Noto Sans, Verdana" font-size="12" lengthAdjust="spacing" textLength="62" x="6" y="50.1074">memo1 ...</text><text fill="#262626" font-family="IBM Plex Sans, Noto Sans, Verdana" font-size="12" lengthAdjust="spacing" textLength="62" x="6" y="64.0762">memo2 ...</text><text fill="#262626" font-family="IBM Plex Sans, Noto Sans, Verdana" font-size="12" lengthAdjust="spacing" textLength="104" x="6" y="78.0449">explanations1 ...</text><text fill="#262626" font-family="IBM Plex Sans, Noto Sans, Verdana" font-size="12" lengthAdjust="spacing" textLength="104" x="6" y="92.0137">explanations2 ...</text><rect fill="#E2E2F0" height="13.9688" style="stroke:none;stroke-width:1.0;" width="156" x="2" y="18"/><line style="stroke:#181818;stroke-width:1.0;" x1="2" x2="158" y1="18" y2="18"/><line style="stroke:#181818;stroke-width:1.0;" x1="2" x2="158" y1="31.9688" y2="31.9688"/><line style="stroke:#181818;stroke-width:1.0;" x1="2" x2="2" y1="18" y2="31.9688"/><line style="stroke:#181818;stroke-width:1.0;" x1="158" x2="158" y1="18" y2="31.9688"/><rect fill="#E2E2F0" height="13.9688" style="stroke:none;stroke-width:1.0;" width="60" x="162" y="35.9688"/><line style="stroke:#181818;stroke-width:1.0;" x1="162" x2="222" y1="35.9688" y2="35.9688"/><line style="stroke:#181818;stroke-width:1.0;" x1="162" x2="222" y1="49.9375" y2="49.9375"/><line style="stroke:#181818;stroke-width:1.0;" x1="162" x2="162" y1="35.9688" y2="49.9375"/><line style="stroke:#181818;stroke-width:1.0;" x1="222" x2="222" y1="35.9688" y2="49.9375"/><rect fill="#FFFFFF" height="13.9688" style="stroke:none;stroke-width:1.0;" width="108" x="226" y="53.9375"/><line style="stroke:#181818;stroke-width:1.0;" x1="226" x2="334" y1="53.9375" y2="53.9375"/><line style="stroke:#181818;stroke-width:1.0;" x1="226" x2="334" y1="67.9063" y2="67.9063"/><line style="stroke:#181818;stroke-width:1.0;" x1="226" x2="226" y1="53.9375" y2="67.9063"/><line style="stroke:#181818;stroke-width:1.0;" x1="334" x2="334" y1="53.9375" y2="67.9063"/><rect fill="#E2E2F0" height="13.9688" style="stroke:none;stroke-width:1.0;" width="27" x="226" y="71.9063"/><rect fill="#FFFFFF" height="13.9688" style="stroke:none;stroke-width:1.0;" width="81" x="253" y="71.9063"/><line style="stroke:#181818;stroke-width:1.0;" x1="226" x2="334" y1="71.9063" y2="71.9063"/><line style="stroke:#181818;stroke-width:1.0;" x1="226" x2="334" y1="85.875" y2="85.875"/><line style="stroke:#181818;stroke-width:1.0;" x1="226" x2="226" y1="71.9063" y2="85.875"/><line style="stroke:#181818;stroke-width:1.0;" x1="334" x2="334" y1="71.9063" y2="85.875"/><rect fill="#E2E2F0" height="13.9688" style="stroke:none;stroke-width:1.0;" width="64.8" x="226" y="89.875"/><rect fill="#FFFFFF" height="13.9688" style="stroke:none;stroke-width:1.0;" width="43.2" x="290.8" y="89.875"/><line style="stroke:#181818;stroke-width:1.0;" x1="226" x2="334" y1="89.875" y2="89.875"/><line style="stroke:#181818;stroke-width:1.0;" x1="226" x2="334" y1="103.8438" y2="103.8438"/><line style="stroke:#181818;stroke-width:1.0;" x1="226" x2="226" y1="89.875" y2="103.8438"/><line style="stroke:#181818;stroke-width:1.0;" x1="334" x2="334" y1="89.875" y2="103.8438"/><rect fill="#E2E2F0" height="13.9688" style="stroke:none;stroke-width:1.0;" width="108" x="226" y="107.8438"/><line style="stroke:#181818;stroke-width:1.0;" x1="226" x2="334" y1="107.8438" y2="107.8438"/><line style="stroke:#181818;stroke-width:1.0;" x1="226" x2="334" y1="121.8125" y2="121.8125"/><line style="stroke:#181818;stroke-width:1.0;" x1="226" x2="226" y1="107.8438" y2="121.8125"/><line style="stroke:#181818;stroke-width:1.0;" x1="334" x2="334" y1="107.8438" y2="121.8125"/><rect fill="#F4F4F4" height="23.9688" style="stroke:none;stroke-width:1.0;" width="336" x="0" y="128.8125"/><line style="stroke:#C6C6C6;stroke-width:1.0;" x1="0" x2="5" y1="140.7969" y2="140.7969"/><line style="stroke:#C6C6C6;stroke-width:1.0;" x1="106" x2="335" y1="140.7969" y2="140.7969"/><polygon fill="#000000" points="232,159.7813,238,165.7813,232,171.7813,226,165.7813" style="stroke:#000000;stroke-width:1.0;"/><rect fill="#F4F4F4" height="23.9688" style="stroke:none;stroke-width:1.0;" width="336" x="0" y="178.7813"/><line style="stroke:#C6C6C6;stroke-width:1.0;" x1="0" x2="5" y1="190.7656" y2="190.7656"/><line style="stroke:#C6C6C6;stroke-width:1.0;" x1="39" x2="335" y1="190.7656" y2="190.7656"/><text fill="#000000" font-family="IBM Plex Sans, Noto Sans, Verdana" font-size="12" lengthAdjust="spacing" textLength="37" x="6" y="29.1387">Task1</text><text fill="#000000" font-family="IBM Plex Sans, Noto Sans, Verdana" font-size="12" lengthAdjust="spacing" textLength="37" x="166" y="47.1074">Task2</text><text fill="#000000" font-family="IBM Plex Sans, Noto Sans, Verdana" font-size="12" lengthAdjust="spacing" textLength="59" x="230" y="65.0762">Test  000</text><text fill="#000000" font-family="IBM Plex Sans, Noto Sans, Verdana" font-size="12" lengthAdjust="spacing" textLength="59" x="230" y="83.0449">Test  025</text><text fill="#000000" font-family="IBM Plex Sans, Noto Sans, Verdana" font-size="12" lengthAdjust="spacing" textLength="59" x="230" y="101.0137">Test  060</text><text fill="#000000" font-family="IBM Plex Sans, Noto Sans, Verdana" font-size="12" lengthAdjust="spacing" textLength="59" x="230" y="118.9824">Test  100</text><text fill="#262626" font-family="IBM Plex Sans, Noto Sans, Verdana" font-size="12" lengthAdjust="spacing" textLength="91" x="10" y="144.9512">Separator title</text><text fill="#000000" font-family="IBM Plex Sans, Noto Sans, Verdana" font-size="12" lengthAdjust="spacing" textLength="18" x="241" y="169.9355">M1</text><text fill="#262626" font-family="IBM Plex Sans, Noto Sans, Verdana" font-size="12" lengthAdjust="spacing" textLength="24" x="10" y="194.9199">end</text><line style="stroke:#C0C0C0;stroke-width:1.0;" x1="0" x2="0" y1="207.75" y2="223.75"/><line style="stroke:#C0C0C0;stroke-width:1.0;" x1="16" x2="16" y1="207.75" y2="223.75"/><line style="stroke:#C0C0C0;stroke-width:1.0;" x1="32" x2="32" y1="207.75" y2="223.75"/><line style="stroke:#C0C0C0;stroke-width:1.0;" x1="48" x2="48" y1="207.75" y2="223.75"/><line style="stroke:#C0C0C0;stroke-width:1.0;" x1="64" x2="64" y1="207.75" y2="223.75"/><line style="stroke:#C0C0C0;stroke-width:1.0;" x1="80" x2="80" y1="207.75" y2="223.75"/><line style="stroke:#C0C0C0;stroke-width:1.0;" x1="96" x2="96" y1="207.75" y2="223.75"/><line style="stroke:#C0C0C0;stroke-width:1.0;" x1="112" x2="112" y1="207.75" y2="223.75"/><line style="stroke:#C0C0C0;stroke-width:1.0;" x1="128" x2="128" y1="207.75" y2="223.75"/><line style="stroke:#C0C0C0;stroke-width:1.0;" x1="144" x2="144" y1="207.75" y2="223.75"/><line style="stroke:#C0C0C0;stroke-width:1.0;" x1="160" x2="160" y1="207.75" y2="223.75"/><line style="stroke:#C0C0C0;stroke-width:1.0;" x1="176" x2="176" y1="207.75" y2="223.75"/><line style="stroke:#C0C0C0;stroke-width:1.0;" x1="192" x2="192" y1="207.75" y2="223.75"/><line style="stroke:#C0C0C0;stroke-width:1.0;" x1="208" x2="208" y1="207.75" y2="223.75"/><line style="stroke:#C0C0C0;stroke-width:1.0;" x1="224" x2="224" y1="207.75" y2="223.75"/><line style="stroke:#C0C0C0;stroke-width:1.0;" x1="240" x2="240" y1="207.75" y2="223.75"/><line style="stroke:#C0C0C0;stroke-width:1.0;" x1="256" x2="256" y1="207.75" y2="223.75"/><line style="stroke:#C0C0C0;stroke-width:1.0;" x1="272" x2="272" y1="207.75" y2="223.75"/><line style="stroke:#C0C0C0;stroke-width:1.0;" x1="288" x2="288" y1="207.75" y2="223.75"/><line style="stroke:#C0C0C0;stroke-width:1.0;" x1="304" x2="304" y1="207.75" y2="223.75"/><line style="stroke:#C0C0C0;stroke-width:1.0;" x1="320" x2="320" y1="207.75" y2="223.75"/><line style="stroke:#C0C0C0;stroke-width:1.0;" x1="336" x2="336" y1="207.75" y2="223.75"/><text fill="#000000" font-family="Serif" font-size="10" lengthAdjust="spacing" textLength="6" x="5" y="220.0322">1</text><text fill="#000000" font-family="Serif" font-size="10" lengthAdjust="spacing" textLength="6" x="21" y="220.0322">2</text><text fill="#000000" font-family="Serif" font-size="10" lengthAdjust="spacing" textLength="6" x="37" y="220.0322">3</text><text fill="#000000" font-family="Serif" font-size="10" lengthAdjust="spacing" textLength="6" x="53" y="220.0322">4</text><text fill="#000000" font-family="Serif" font-size="10" lengthAdjust="spacing" textLength="6" x="69" y="220.0322">5</text><text fill="#000000" font-family="Serif" font-size="10" lengthAdjust="spacing" textLength="6" x="85" y="220.0322">6</text><text fill="#000000" font-family="Serif" font-size="10" lengthAdjust="spacing" textLength="6" x="101" y="220.0322">7</text><text fill="#000000" font-family="Serif" font-size="10" lengthAdjust="spacing" textLength="6" x="117" y="220.0322">8</text><text fill="#000000" font-family="Serif" font-size="10" lengthAdjust="spacing" textLength="6" x="133" y="220.0322">9</text><text fill="#000000" font-family="Serif" font-size="10" lengthAdjust="spacing" textLength="12" x="146" y="220.0322">10</text><text fill="#000000" font-family="Serif" font-size="10" lengthAdjust="spacing" textLength="12" x="162" y="220.0322">11</text><text fill="#000000" font-family="Serif" font-size="10" lengthAdjust="spacing" textLength="12" x="178" y="220.0322">12</text><text fill="#000000" font-family="Serif" font-size="10" lengthAdjust="spacing" textLength="12" x="194" y="220.0322">13</text><text fill="#000000" font-family="Serif" font-size="10" lengthAdjust="spacing" textLength="12" x="210" y="220.0322">14</text><text fill="#000000" font-family="Serif" font-size="10" lengthAdjust="spacing" textLength="12" x="226" y="220.0322">15</text><text fill="#000000" font-family="Serif" font-size="10" lengthAdjust="spacing" textLength="12" x="242" y="220.0322">16</text><text fill="#000000" font-family="Serif" font-size="10" lengthAdjust="spacing" textLength="12" x="258" y="220.0322">17</text><text fill="#000000" font-family="Serif" font-size="10" lengthAdjust="spacing" textLength="12" x="274" y="220.0322">18</text><text fill="#000000" font-family="Serif" font-size="10" lengthAdjust="spacing" textLength="12" x="290" y="220.0322">19</text><text fill="#000000" font-family="Serif" font-size="10" lengthAdjust="spacing" textLength="12" x="306" y="220.0322">20</text><text fill="#000000" font-family="Serif" font-size="10" lengthAdjust="spacing" textLength="12" x="322" y="220.0322">21</text><line style="stroke:#C0C0C0;stroke-width:1.0;" x1="0" x2="336" y1="210.75" y2="210.75"/></g></svg>