<?xml version="1.0" encoding="us-ascii" standalone="no"?><svg xmlns="http://www.w3.org/2000/svg" xmlns:xlink="http://www.w3.org/1999/xlink" contentStyleType="text/css" height="84px" preserveAspectRatio="none" style="width:197px;height:84px;background:#FFFFFF;" version="1.1" viewBox="0 0 197 84" width="197px" zoomAndPan="magnify"><defs/><g><rect fill="#F4F4F4" height="53.9063" style="stroke:#F4F4F4;stroke-width:1.5;" width="90" x="10" y="10"/><text fill="#262626" font-family="IBM Plex Sans, Noto Sans, Verdana" font-size="12" font-weight="bold" lengthAdjust="spacing" textLength="30" x="15" y="23.1387">fruit</text><text fill="#262626" font-family="IBM Plex Sans, Noto Sans, Verdana" font-size="12" lengthAdjust="spacing" textLength="35" x="60" y="23.1387">Apple</text><line style="stroke:#C6C6C6;stroke-width:1.0;" x1="55" x2="55" y1="10" y2="27.9688"/><line style="stroke:#C6C6C6;stroke-width:1.0;" x1="10" x2="100" y1="27.9688" y2="27.9688"/><text fill="#262626" font-family="IBM Plex Sans, Noto Sans, Verdana" font-size="12" font-weight="bold" lengthAdjust="spacing" textLength="29" x="15" y="41.1074">size</text><text fill="#262626" font-family="IBM Plex Sans, Noto Sans, Verdana" font-size="12" lengthAdjust="spacing" textLength="35" x="60" y="41.1074">Large</text><line style="stroke:#C6C6C6;stroke-width:1.0;" x1="55" x2="55" y1="27.9688" y2="45.9375"/><line style="stroke:#C6C6C6;stroke-width:1.0;" x1="10" x2="100" y1="45.9375" y2="45.9375"/><text fill="#262626" font-family="IBM Plex Sans, Noto Sans, Verdana" font-size="12" font-weight="bold" lengthAdjust="spacing" textLength="35" x="15" y="59.0762">color</text><text fill="#262626" font-family="IBM Plex Sans, Noto Sans, Verdana" font-size="12" lengthAdjust="spacing" textLength="12" x="60" y="59.0762">&#160;&#160;&#160;</text><line style="stroke:#C6C6C6;stroke-width:1.0;" x1="55" x2="55" y1="45.9375" y2="63.9063"/><rect fill="none" height="53.9063" style="stroke:#C6C6C6;stroke-width:1.5;" width="90" x="10" y="10"/><rect fill="#F4F4F4" height="35.9375" style="stroke:#F4F4F4;stroke-width:1.5;" width="48" x="137" y="37"/><rect fill="#C6C6C6" height="17.9688" rx="2" ry="2" style="stroke:#C6C6C6;stroke-width:1.0;" width="46" x="138.5" y="37"/><text fill="#262626" font-family="IBM Plex Sans, Noto Sans, Verdana" font-size="12" font-style="italic" lengthAdjust="spacing" textLength="24" x="142" y="50.1387">Red</text><line style="stroke:#C6C6C6;stroke-width:1.0;" x1="137" x2="185" y1="54.9688" y2="54.9688"/><text fill="#262626" font-family="IBM Plex Sans, Noto Sans, Verdana" font-size="12" lengthAdjust="spacing" textLength="38" x="142" y="68.1074">Green</text><rect fill="none" height="35.9375" style="stroke:#C6C6C6;stroke-width:1.5;" width="48" x="137" y="37"/><path d="M88,55 L101,55 C110.3614,55 120.5514,55 129.8101,55 " fill="none" style="stroke:#C6C6C6;stroke-width:1.0;stroke-dasharray:3.0,6.0;"/><path d="M129.8101,58.0079 L132.0659,55 L129.8101,51.9921 L137.3297,55 L129.8101,58.0079 " fill="#C6C6C6" style="stroke:#C6C6C6;stroke-width:1.0;"/><ellipse cx="88" cy="55" fill="#C6C6C6" rx="3" ry="3" style="stroke:#C6C6C6;stroke-width:1.0;"/></g></svg>