<?xml version="1.0" encoding="UTF-8" standalone="no"?><svg xmlns="http://www.w3.org/2000/svg" xmlns:xlink="http://www.w3.org/1999/xlink" contentScriptType="application/ecmascript" contentStyleType="text/css" height="187.5px" preserveAspectRatio="none" style="width:946px;height:187px;background:#00000000;" version="1.1" viewBox="0 0 946 187" width="946.875px" zoomAndPan="magnify"><defs><linearGradient id="g1qa56wln7662m0" x1="50%" x2="50%" y1="0%" y2="100%"><stop offset="0%" stop-color="#D3F198"/><stop offset="100%" stop-color="#B5E853"/></linearGradient></defs><g><rect fill="url(#g1qa56wln7662m0)" height="61.0677" rx="20.8333" ry="20.8333" style="stroke:#D3F198;stroke-width:1.0416666666666667;" width="133.3333" x="313.5417" y="62.2477"/><text fill="#6A9FB5" font-family="&quot;Verdana&quot;" font-size="16.6667" font-weight="bold" lengthAdjust="spacing" textLength="91.6667" x="334.375" y="98.5514">root node</text><rect fill="url(#g1qa56wln7662m0)" height="37.8092" rx="20.8333" ry="20.8333" style="stroke:#D3F198;stroke-width:1.0416666666666667;" width="194.7917" x="498.9583" y="59.139"/><text fill="#151515" font-family="&quot;Verdana&quot;" font-size="14.5833" font-weight="bold" lengthAdjust="spacing" textLength="173.9583" x="509.375" y="83.0922">some first level node</text><text fill="#151515" font-family="&quot;Verdana&quot;" font-size="12.5" lengthAdjust="spacing" textLength="118.75" x="754.1667" y="28.2694">second level node</text><path d="M693.75,78.0436 L704.1667,78.0436 C719.7917,78.0436 719.7917,23.9421 735.4167,23.9421 L745.8333,23.9421 " fill="none" style="stroke:#B5E853;stroke-width:3.125;"/><text fill="#151515" font-family="&quot;Verdana&quot;" font-size="12.5" lengthAdjust="spacing" textLength="175" x="754.1667" y="55.3202">another second level node</text><path d="M693.75,78.0436 L704.1667,78.0436 C719.7917,78.0436 719.7917,50.9928 735.4167,50.9928 L745.8333,50.9928 " fill="none" style="stroke:#B5E853;stroke-width:3.125;"/><text fill="#151515" font-family="&quot;Verdana&quot;" font-size="12.5" lengthAdjust="spacing" textLength="20.8333" x="754.1667" y="82.371">foo</text><path d="M693.75,78.0436 L704.1667,78.0436 C719.7917,78.0436 719.7917,78.0436 735.4167,78.0436 L745.8333,78.0436 " fill="none" style="stroke:#B5E853;stroke-width:3.125;"/><text fill="#151515" font-family="&quot;Verdana&quot;" font-size="12.5" lengthAdjust="spacing" textLength="21.875" x="754.1667" y="109.4218">bar</text><path d="M693.75,78.0436 L704.1667,78.0436 C719.7917,78.0436 719.7917,105.0944 735.4167,105.0944 L745.8333,105.0944 " fill="none" style="stroke:#B5E853;stroke-width:3.125;"/><text fill="#151515" font-family="&quot;Verdana&quot;" font-size="12.5" lengthAdjust="spacing" textLength="42.7083" x="754.1667" y="136.4726">foobar</text><path d="M693.75,78.0436 L704.1667,78.0436 C719.7917,78.0436 719.7917,132.1452 735.4167,132.1452 L745.8333,132.1452 " fill="none" style="stroke:#B5E853;stroke-width:3.125;"/><path d="M446.875,92.7816 L457.2917,92.7816 C472.9167,92.7816 472.9167,78.0436 488.5417,78.0436 L498.9583,78.0436 " fill="none" style="stroke:#B5E853;stroke-width:3.125;"/><text fill="#151515" font-family="&quot;Verdana&quot;" font-size="14.5833" font-weight="bold" lengthAdjust="spacing" textLength="193.75" x="507.2917" y="165.4572">another first level node</text><path d="M446.875,92.7816 L457.2917,92.7816 C472.9167,92.7816 472.9167,160.4085 488.5417,160.4085 L498.9583,160.4085 " fill="none" style="stroke:#B5E853;stroke-width:3.125;"/><rect fill="url(#g1qa56wln7662m0)" height="37.8092" rx="20.8333" ry="20.8333" style="stroke:#D3F198;stroke-width:1.0416666666666667;" width="238.5417" x="22.9167" y="59.139"/><text fill="#151515" font-family="&quot;Verdana&quot;" font-size="14.5833" font-weight="bold" lengthAdjust="spacing" textLength="217.7083" x="33.3333" y="83.0922">some first right level node</text><path d="M313.5417,92.7816 L303.125,92.7816 C287.5,92.7816 287.5,78.0436 271.875,78.0436 L261.4583,78.0436 " fill="none" style="stroke:#B5E853;stroke-width:3.125;"/><text fill="#151515" font-family="&quot;Verdana&quot;" font-size="14.5833" font-weight="bold" lengthAdjust="spacing" textLength="237.5" x="15.625" y="127.1515">another first right level node</text><path d="M313.5417,92.7816 L303.125,92.7816 C287.5,92.7816 287.5,122.1029 271.875,122.1029 L261.4583,122.1029 " fill="none" style="stroke:#B5E853;stroke-width:3.125;"/></g></svg>