<?xml version="1.0" encoding="UTF-8" standalone="no"?><svg xmlns="http://www.w3.org/2000/svg" xmlns:xlink="http://www.w3.org/1999/xlink" contentScriptType="application/ecmascript" contentStyleType="text/css" height="329.1667px" preserveAspectRatio="none" style="width:389px;height:329px;background:#00000000;" version="1.1" viewBox="0 0 389 329" width="389.5833px" zoomAndPan="magnify"><defs><linearGradient id="g1cvm9igs3m0rl0" x1="50%" x2="50%" y1="0%" y2="100%"><stop offset="0%" stop-color="#FFFFFF"/><stop offset="100%" stop-color="#FFFFFF"/></linearGradient><linearGradient id="g1cvm9igs3m0rl1" x1="50%" x2="50%" y1="0%" y2="100%"><stop offset="0%" stop-color="#4DABF5"/><stop offset="100%" stop-color="#2196F3"/></linearGradient><filter height="300%" id="f1cvm9igs3m0rl" width="300%" x="-1" y="-1"><feGaussianBlur result="blurOut" stdDeviation="2.0833333333333335"/><feColorMatrix in="blurOut" result="blurOut2" type="matrix" values="0 0 0 0 0 0 0 0 0 0 0 0 0 0 0 0 0 0 .4 0"/><feOffset dx="4.166666666666667" dy="4.166666666666667" in="blurOut2" result="blurOut3"/><feBlend in="SourceGraphic" in2="blurOut3" mode="normal"/></filter></defs><g><rect fill="url(#g1cvm9igs3m0rl0)" height="55.5013" rx="4.1667" ry="4.1667" style="stroke:#CCCCCC;stroke-width:1.0416666666666667;" width="192.7083" x="42.1875" y="12.5"/><text fill="#2196F3" font-family="Verdana" font-size="20.8333" lengthAdjust="spacing" textLength="155.2083" x="60.9375" y="47.463">materia theme</text><rect fill="url(#g1cvm9igs3m0rl1)" filter="url(#f1cvm9igs3m0rl)" height="56.2174" rx="13.0208" ry="13.0208" style="stroke:#2196F3;stroke-width:1.5625;" width="68.75" x="152.0833" y="165.8691"/><text fill="#FFFFFF" font-family="Verdana" font-size="12.5" lengthAdjust="spacing" textLength="27.0833" x="172.9167" y="198.3053">root</text><rect fill="url(#g1cvm9igs3m0rl1)" filter="url(#f1cvm9igs3m0rl)" height="70.7682" rx="13.0208" ry="13.0208" style="stroke:#2196F3;stroke-width:1.5625;" width="98.9583" x="272.9167" y="120.0684"/><text fill="#FFFFFF" font-family="Verdana" font-size="12.5" lengthAdjust="spacing" textLength="57.2917" x="293.75" y="152.5045">right_1.1</text><text fill="#FFFFFF" font-family="Verdana" font-size="12.5" lengthAdjust="spacing" textLength="57.2917" x="293.75" y="167.0553">right_1.2</text><path d="M220.8333,193.9779 L231.25,193.9779 C246.875,193.9779 246.875,155.4525 262.5,155.4525 L272.9167,155.4525 " fill="none" style="stroke:#A80036;stroke-width:1.0416666666666667;"/><rect fill="url(#g1cvm9igs3m0rl1)" filter="url(#f1cvm9igs3m0rl)" height="56.2174" rx="13.0208" ry="13.0208" style="stroke:#2196F3;stroke-width:1.5625;" width="86.4583" x="272.9167" y="211.6699"/><text fill="#FFFFFF" font-family="Verdana" font-size="12.5" lengthAdjust="spacing" textLength="44.7917" x="293.75" y="244.106">right_2</text><path d="M220.8333,193.9779 L231.25,193.9779 C246.875,193.9779 246.875,239.7786 262.5,239.7786 L272.9167,239.7786 " fill="none" style="stroke:#A80036;stroke-width:1.0416666666666667;"/><rect fill="url(#g1cvm9igs3m0rl1)" filter="url(#f1cvm9igs3m0rl)" height="56.2174" rx="13.0208" ry="13.0208" style="stroke:#2196F3;stroke-width:1.5625;" width="77.0833" x="22.9167" y="81.543"/><text fill="#FFFFFF" font-family="Verdana" font-size="12.5" lengthAdjust="spacing" textLength="35.4167" x="43.75" y="113.9791">left_1</text><path d="M152.0833,193.9779 L141.6667,193.9779 C126.0417,193.9779 126.0417,109.6517 110.4167,109.6517 L100,109.6517 " fill="none" style="stroke:#A80036;stroke-width:1.0416666666666667;"/><rect fill="url(#g1cvm9igs3m0rl1)" filter="url(#f1cvm9igs3m0rl)" height="56.2174" rx="13.0208" ry="13.0208" style="stroke:#2196F3;stroke-width:1.5625;" width="77.0833" x="22.9167" y="158.5938"/><text fill="#FFFFFF" font-family="Verdana" font-size="12.5" lengthAdjust="spacing" textLength="35.4167" x="43.75" y="191.0299">left_2</text><path d="M152.0833,193.9779 L141.6667,193.9779 C126.0417,193.9779 126.0417,186.7025 110.4167,186.7025 L100,186.7025 " fill="none" style="stroke:#A80036;stroke-width:1.0416666666666667;"/><rect fill="url(#g1cvm9igs3m0rl1)" filter="url(#f1cvm9igs3m0rl)" height="70.7682" rx="13.0208" ry="13.0208" style="stroke:#2196F3;stroke-width:1.5625;" width="89.5833" x="10.4167" y="235.6445"/><text fill="#FFFFFF" font-family="Verdana" font-size="12.5" lengthAdjust="spacing" textLength="47.9167" x="31.25" y="268.0806">left_3.1</text><text fill="#FFFFFF" font-family="Verdana" font-size="12.5" lengthAdjust="spacing" textLength="47.9167" x="31.25" y="282.6314">left_3.2</text><path d="M152.0833,193.9779 L141.6667,193.9779 C126.0417,193.9779 126.0417,271.0286 110.4167,271.0286 L100,271.0286 " fill="none" style="stroke:#A80036;stroke-width:1.0416666666666667;"/></g></svg>