<svg xmlns="http://www.w3.org/2000/svg" xmlns:xlink="http://www.w3.org/1999/xlink" contentStyleType="text/css" height="197px" preserveAspectRatio="none" style="width:304px;height:197px;" version="1.1" viewBox="0 0 304 197" width="304px" zoomAndPan="magnify"><defs><linearGradient id="grl10aw3p8l7g0" x1="50%" x2="50%" y1="0%" y2="100%"><stop offset="0%" stop-color="#F4F4F4"/><stop offset="100%" stop-color="#F4F4F4"/></linearGradient></defs><g><rect fill="url(#grl10aw3p8l7g0)" height="33.9688" style="stroke:#C6C6C6;stroke-width:1.0;" width="44.3223" x="124.7305" y="80.9531"/><text fill="#262626" font-family="sans-serif" font-size="12" lengthAdjust="spacing" textLength="24.3223" x="134.7305" y="102.0918">root</text><rect fill="url(#grl10aw3p8l7g0)" height="47.9375" style="stroke:#C6C6C6;stroke-width:1.0;" width="73.2793" x="219.0527" y="46.9844"/><text fill="#262626" font-family="sans-serif" font-size="12" lengthAdjust="spacing" textLength="53.2793" x="229.0527" y="68.123">right_1.1</text><text fill="#262626" font-family="sans-serif" font-size="12" lengthAdjust="spacing" textLength="53.2793" x="229.0527" y="82.0918">right_1.2</text><path d="M169.0527,97.9375 L179.0527,97.9375 C194.0527,97.9375 194.0527,70.9531 209.0527,70.9531 L219.0527,70.9531 " fill="none" style="stroke:#C6C6C6;stroke-width:1.0;"/><rect fill="url(#grl10aw3p8l7g0)" height="33.9688" style="stroke:#C6C6C6;stroke-width:1.0;" width="61.8301" x="219.0527" y="114.9219"/><text fill="#262626" font-family="sans-serif" font-size="12" lengthAdjust="spacing" textLength="41.8301" x="229.0527" y="136.0605">right_2</text><path d="M169.0527,97.9375 L179.0527,97.9375 C194.0527,97.9375 194.0527,131.9063 209.0527,131.9063 L219.0527,131.9063 " fill="none" style="stroke:#C6C6C6;stroke-width:1.0;"/><rect fill="url(#grl10aw3p8l7g0)" height="33.9688" style="stroke:#C6C6C6;stroke-width:1.0;" width="53.2813" x="21.4492" y="20"/><text fill="#262626" font-family="sans-serif" font-size="12" lengthAdjust="spacing" textLength="33.2813" x="31.4492" y="41.1387">left_1</text><path d="M124.7305,97.9375 L114.7305,97.9375 C99.7305,97.9375 99.7305,36.9844 84.7305,36.9844 L74.7305,36.9844 " fill="none" style="stroke:#C6C6C6;stroke-width:1.0;"/><rect fill="url(#grl10aw3p8l7g0)" height="33.9688" style="stroke:#C6C6C6;stroke-width:1.0;" width="53.2813" x="21.4492" y="73.9688"/><text fill="#262626" font-family="sans-serif" font-size="12" lengthAdjust="spacing" textLength="33.2813" x="31.4492" y="95.1074">left_2</text><path d="M124.7305,97.9375 L114.7305,97.9375 C99.7305,97.9375 99.7305,90.9531 84.7305,90.9531 L74.7305,90.9531 " fill="none" style="stroke:#C6C6C6;stroke-width:1.0;"/><rect fill="url(#grl10aw3p8l7g0)" height="47.9375" style="stroke:#C6C6C6;stroke-width:1.0;" width="64.7305" x="10" y="127.9375"/><text fill="#262626" font-family="sans-serif" font-size="12" lengthAdjust="spacing" textLength="44.7305" x="20" y="149.0762">left_3.1</text><text fill="#262626" font-family="sans-serif" font-size="12" lengthAdjust="spacing" textLength="44.7305" x="20" y="163.0449">left_3.2</text><path d="M124.7305,97.9375 L114.7305,97.9375 C99.7305,97.9375 99.7305,151.9063 84.7305,151.9063 L74.7305,151.9063 " fill="none" style="stroke:#C6C6C6;stroke-width:1.0;"/></g></svg>