<?xml version="1.0" encoding="UTF-8" standalone="no"?><svg xmlns="http://www.w3.org/2000/svg" xmlns:xlink="http://www.w3.org/1999/xlink" contentStyleType="text/css" height="114px" preserveAspectRatio="none" style="width:809px;height:114px;background:#DDDDDD;" version="1.1" viewBox="0 0 809 114" width="809px" zoomAndPan="magnify"><defs/><g><rect fill="#F1F1F1" height="36.2969" rx="3.5" ry="3.5" style="stroke:#181818;stroke-width:1.5;" width="88" x="258" y="37.9453"/><text fill="#000000" font-family="sans-serif" font-size="14" lengthAdjust="spacing" textLength="68" x="268" y="60.9404">root node</text><rect fill="#F1F1F1" height="36.2969" rx="3.5" ry="3.5" style="stroke:#181818;stroke-width:1.5;" width="163" x="396" y="37.5938"/><text fill="#000000" font-family="sans-serif" font-size="14" lengthAdjust="spacing" textLength="143" x="406" y="60.5889">some first level node</text><text fill="#000000" font-family="sans-serif" font-size="14" lengthAdjust="spacing" textLength="127" x="612" y="23.9951">second level node</text><path d="M559,55.7422 L569,55.7422 C584,55.7422 584,19.1484 599,19.1484 L609,19.1484 " fill="none" style="stroke:#454645;stroke-width:1.0;"/><text fill="#000000" font-family="sans-serif" font-size="14" lengthAdjust="spacing" textLength="185" x="612" y="42.292">another second level node</text><path d="M559,55.7422 L569,55.7422 C584,55.7422 584,37.4453 599,37.4453 L609,37.4453 " fill="none" style="stroke:#454645;stroke-width:1.0;"/><text fill="#000000" font-family="sans-serif" font-size="14" lengthAdjust="spacing" textLength="22" x="612" y="60.5889">foo</text><path d="M559,55.7422 L569,55.7422 C584,55.7422 584,55.7422 599,55.7422 L609,55.7422 " fill="none" style="stroke:#454645;stroke-width:1.0;"/><text fill="#000000" font-family="sans-serif" font-size="14" lengthAdjust="spacing" textLength="22" x="612" y="78.8857">bar</text><path d="M559,55.7422 L569,55.7422 C584,55.7422 584,74.0391 599,74.0391 L609,74.0391 " fill="none" style="stroke:#454645;stroke-width:1.0;"/><text fill="#000000" font-family="sans-serif" font-size="14" lengthAdjust="spacing" textLength="44" x="612" y="97.1826">foobar</text><path d="M559,55.7422 L569,55.7422 C584,55.7422 584,92.3359 599,92.3359 L609,92.3359 " fill="none" style="stroke:#454645;stroke-width:1.0;"/><path d="M346,56.0938 L356,56.0938 C371,56.0938 371,55.7422 386,55.7422 L396,55.7422 " fill="none" style="stroke:#454645;stroke-width:1.0;"/><text fill="#000000" font-family="sans-serif" font-size="14" lengthAdjust="spacing" textLength="158" x="399" y="97.8857">another first level node</text><path d="M346,56.0938 L356,56.0938 C371,56.0938 371,93.0391 386,93.0391 L396,93.0391 " fill="none" style="stroke:#454645;stroke-width:1.0;"/><rect fill="#F1F1F1" height="36.2969" rx="3.5" ry="3.5" style="stroke:#181818;stroke-width:1.5;" width="198" x="10" y="28.7969"/><text fill="#000000" font-family="sans-serif" font-size="14" lengthAdjust="spacing" textLength="178" x="20" y="51.792">some first right level node</text><path d="M258,56.0938 L248,56.0938 C233,56.0938 233,46.9453 218,46.9453 L208,46.9453 " fill="none" style="stroke:#454645;stroke-width:1.0;"/><text fill="#000000" font-family="sans-serif" font-size="14" lengthAdjust="spacing" textLength="193" x="12" y="89.0889">another first right level node</text><path d="M258,56.0938 L248,56.0938 C233,56.0938 233,84.2422 218,84.2422 L208,84.2422 " fill="none" style="stroke:#454645;stroke-width:1.0;"/></g></svg>