<?xml version="1.0" encoding="UTF-8" standalone="no"?><svg xmlns="http://www.w3.org/2000/svg" xmlns:xlink="http://www.w3.org/1999/xlink" contentScriptType="application/ecmascript" contentStyleType="text/css" height="188.5417px" preserveAspectRatio="none" style="width:887px;height:188px;background:#00000000;" version="1.1" viewBox="0 0 887 188" width="887.5px" zoomAndPan="magnify"><defs><linearGradient id="g87coppj5cmsv0" x1="50%" x2="50%" y1="0%" y2="100%"><stop offset="0%" stop-color="#F1F1F1"/><stop offset="100%" stop-color="#BEBEBE"/></linearGradient></defs><g><rect fill="url(#g87coppj5cmsv0)" height="62.4674" rx="7.8125" ry="7.8125" style="stroke:#F1F1F1;stroke-width:1.0416666666666667;" width="112.5" x="280.2083" y="62.4349"/><text fill="#336699" font-family="&quot;Verdana&quot;" font-size="12.5" lengthAdjust="spacing" textLength="64.5833" x="304.1667" y="97.996">root node</text><rect fill="url(#g87coppj5cmsv0)" height="62.4674" rx="7.8125" ry="7.8125" style="stroke:#F1F1F1;stroke-width:1.0416666666666667;" width="183.3333" x="444.7917" y="62.4349"/><text fill="#336699" font-family="&quot;Verdana&quot;" font-size="12.5" lengthAdjust="spacing" textLength="135.4167" x="468.75" y="97.996">some first level node</text><text fill="#336699" font-family="&quot;Verdana&quot;" font-size="12.5" lengthAdjust="spacing" textLength="118.75" x="691.6667" y="31.3944">second level node</text><path d="M628.125,93.6686 L638.5417,93.6686 C654.1667,93.6686 654.1667,27.0671 669.7917,27.0671 L680.2083,27.0671 " fill="none" style="stroke:#EEEEEE;stroke-width:3.125;"/><text fill="#336699" font-family="&quot;Verdana&quot;" font-size="12.5" lengthAdjust="spacing" textLength="175" x="691.6667" y="64.6952">another second level node</text><path d="M628.125,93.6686 L638.5417,93.6686 C654.1667,93.6686 654.1667,60.3678 669.7917,60.3678 L680.2083,60.3678 " fill="none" style="stroke:#EEEEEE;stroke-width:3.125;"/><text fill="#336699" font-family="&quot;Verdana&quot;" font-size="12.5" lengthAdjust="spacing" textLength="20.8333" x="691.6667" y="97.996">foo</text><path d="M628.125,93.6686 L638.5417,93.6686 C654.1667,93.6686 654.1667,93.6686 669.7917,93.6686 L680.2083,93.6686 " fill="none" style="stroke:#EEEEEE;stroke-width:3.125;"/><text fill="#336699" font-family="&quot;Verdana&quot;" font-size="12.5" lengthAdjust="spacing" textLength="21.875" x="691.6667" y="131.2968">bar</text><path d="M628.125,93.6686 L638.5417,93.6686 C654.1667,93.6686 654.1667,126.9694 669.7917,126.9694 L680.2083,126.9694 " fill="none" style="stroke:#EEEEEE;stroke-width:3.125;"/><text fill="#336699" font-family="&quot;Verdana&quot;" font-size="12.5" lengthAdjust="spacing" textLength="42.7083" x="691.6667" y="164.5976">foobar</text><path d="M628.125,93.6686 L638.5417,93.6686 C654.1667,93.6686 654.1667,160.2702 669.7917,160.2702 L680.2083,160.2702 " fill="none" style="stroke:#EEEEEE;stroke-width:3.125;"/><path d="M392.7083,93.6686 L403.125,93.6686 C418.75,93.6686 418.75,93.6686 434.375,93.6686 L444.7917,93.6686 " fill="none" style="stroke:#EEEEEE;stroke-width:3.125;"/><text fill="#336699" font-family="&quot;Verdana&quot;" font-size="12.5" lengthAdjust="spacing" textLength="152.0833" x="456.25" y="156.2968">another first level node</text><path d="M392.7083,93.6686 L403.125,93.6686 C418.75,93.6686 418.75,151.9694 434.375,151.9694 L444.7917,151.9694 " fill="none" style="stroke:#EEEEEE;stroke-width:3.125;"/><rect fill="url(#g87coppj5cmsv0)" height="62.4674" rx="7.8125" ry="7.8125" style="stroke:#F1F1F1;stroke-width:1.0416666666666667;" width="217.7083" x="10.4167" y="45.7845"/><text fill="#336699" font-family="&quot;Verdana&quot;" font-size="12.5" lengthAdjust="spacing" textLength="169.7917" x="34.375" y="81.3456">some first right level node</text><path d="M280.2083,93.6686 L269.7917,93.6686 C254.1667,93.6686 254.1667,77.0182 238.5417,77.0182 L228.125,77.0182 " fill="none" style="stroke:#EEEEEE;stroke-width:3.125;"/><text fill="#336699" font-family="&quot;Verdana&quot;" font-size="12.5" lengthAdjust="spacing" textLength="186.4583" x="30.2083" y="139.6464">another first right level node</text><path d="M280.2083,93.6686 L269.7917,93.6686 C254.1667,93.6686 254.1667,135.319 238.5417,135.319 L228.125,135.319 " fill="none" style="stroke:#EEEEEE;stroke-width:3.125;"/></g></svg>