<?xml version="1.0" encoding="UTF-8" standalone="no"?><svg xmlns="http://www.w3.org/2000/svg" xmlns:xlink="http://www.w3.org/1999/xlink" contentScriptType="application/ecmascript" contentStyleType="text/css" height="267.7083px" preserveAspectRatio="none" style="width:389px;height:267px;background:#00000000;" version="1.1" viewBox="0 0 389 267" width="389.5833px" zoomAndPan="magnify"><defs><filter height="300%" id="f5b0v6276zq90" width="300%" x="-1" y="-1"><feGaussianBlur result="blurOut" stdDeviation="2.0833333333333335"/><feColorMatrix in="blurOut" result="blurOut2" type="matrix" values="0 0 0 0 0 0 0 0 0 0 0 0 0 0 0 0 0 0 .4 0"/><feOffset dx="4.166666666666667" dy="4.166666666666667" in="blurOut2" result="blurOut3"/><feBlend in="SourceGraphic" in2="blurOut3" mode="normal"/></filter></defs><g><rect filter="url(#f5b0v6276zq90)" height="56.2174" rx="13.0208" ry="13.0208" style="stroke:#2196F3;stroke-width:1.5625;fill:none;" width="68.75" x="152.0833" y="105.1595"/><text fill="#2196F3" font-family="Verdana" font-size="12.5" lengthAdjust="spacing" textLength="27.0833" x="172.9167" y="137.5956">root</text><rect filter="url(#f5b0v6276zq90)" height="70.7682" rx="13.0208" ry="13.0208" style="stroke:#2196F3;stroke-width:1.5625;fill:none;" width="98.9583" x="272.9167" y="59.3587"/><text fill="#2196F3" font-family="Verdana" font-size="12.5" lengthAdjust="spacing" textLength="57.2917" x="293.75" y="91.7948">right_1.1</text><text fill="#2196F3" font-family="Verdana" font-size="12.5" lengthAdjust="spacing" textLength="57.2917" x="293.75" y="106.3456">right_1.2</text><path d="M220.8333,133.2682 L231.25,133.2682 C246.875,133.2682 246.875,94.7428 262.5,94.7428 L272.9167,94.7428 " fill="none" style="stroke:#A80036;stroke-width:1.0416666666666667;"/><rect filter="url(#f5b0v6276zq90)" height="56.2174" rx="13.0208" ry="13.0208" style="stroke:#2196F3;stroke-width:1.5625;fill:none;" width="86.4583" x="272.9167" y="150.9603"/><text fill="#2196F3" font-family="Verdana" font-size="12.5" lengthAdjust="spacing" textLength="44.7917" x="293.75" y="183.3964">right_2</text><path d="M220.8333,133.2682 L231.25,133.2682 C246.875,133.2682 246.875,179.069 262.5,179.069 L272.9167,179.069 " fill="none" style="stroke:#A80036;stroke-width:1.0416666666666667;"/><rect filter="url(#f5b0v6276zq90)" height="56.2174" rx="13.0208" ry="13.0208" style="stroke:#2196F3;stroke-width:1.5625;fill:none;" width="77.0833" x="22.9167" y="20.8333"/><text fill="#2196F3" font-family="Verdana" font-size="12.5" lengthAdjust="spacing" textLength="35.4167" x="43.75" y="53.2694">left_1</text><path d="M152.0833,133.2682 L141.6667,133.2682 C126.0417,133.2682 126.0417,48.9421 110.4167,48.9421 L100,48.9421 " fill="none" style="stroke:#A80036;stroke-width:1.0416666666666667;"/><rect filter="url(#f5b0v6276zq90)" height="56.2174" rx="13.0208" ry="13.0208" style="stroke:#2196F3;stroke-width:1.5625;fill:none;" width="77.0833" x="22.9167" y="97.8841"/><text fill="#2196F3" font-family="Verdana" font-size="12.5" lengthAdjust="spacing" textLength="35.4167" x="43.75" y="130.3202">left_2</text><path d="M152.0833,133.2682 L141.6667,133.2682 C126.0417,133.2682 126.0417,125.9928 110.4167,125.9928 L100,125.9928 " fill="none" style="stroke:#A80036;stroke-width:1.0416666666666667;"/><rect filter="url(#f5b0v6276zq90)" height="70.7682" rx="13.0208" ry="13.0208" style="stroke:#2196F3;stroke-width:1.5625;fill:none;" width="89.5833" x="10.4167" y="174.9349"/><text fill="#2196F3" font-family="Verdana" font-size="12.5" lengthAdjust="spacing" textLength="47.9167" x="31.25" y="207.371">left_3.1</text><text fill="#2196F3" font-family="Verdana" font-size="12.5" lengthAdjust="spacing" textLength="47.9167" x="31.25" y="221.9218">left_3.2</text><path d="M152.0833,133.2682 L141.6667,133.2682 C126.0417,133.2682 126.0417,210.319 110.4167,210.319 L100,210.319 " fill="none" style="stroke:#A80036;stroke-width:1.0416666666666667;"/></g></svg>