<?xml version="1.0" encoding="UTF-8" standalone="no"?><svg xmlns="http://www.w3.org/2000/svg" xmlns:xlink="http://www.w3.org/1999/xlink" contentScriptType="application/ecmascript" contentStyleType="text/css" height="287.5px" preserveAspectRatio="none" style="width:353px;height:287px;background:#00000000;" version="1.1" viewBox="0 0 353 287" width="353.125px" zoomAndPan="magnify"><defs><linearGradient id="g9dbdmfuz1fik0" x1="50%" x2="50%" y1="0%" y2="100%"><stop offset="0%" stop-color="#EDF0F2"/><stop offset="100%" stop-color="#E9ECEF"/></linearGradient><linearGradient id="g9dbdmfuz1fik1" x1="50%" x2="50%" y1="0%" y2="100%"><stop offset="0%" stop-color="#59B6EC"/><stop offset="100%" stop-color="#2FA4E7"/></linearGradient></defs><g><rect fill="url(#g9dbdmfuz1fik0)" height="45.0846" rx="4.1667" ry="4.1667" style="stroke:#BABDBF;stroke-width:1.0416666666666667;" width="191.6667" x="27.0833" y="12.5"/><text fill="#2FA4E7" font-family="Verdana" font-size="20.8333" lengthAdjust="spacing" textLength="164.5833" x="40.625" y="42.2546">cerulean theme</text><rect fill="url(#g9dbdmfuz1fik1)" height="45.8008" rx="13.0208" ry="13.0208" style="stroke:#2FA4E7;stroke-width:1.5625;" width="58.3333" x="141.6667" y="145.0358"/><text fill="#FFFFFF" font-family="Verdana" font-size="12.5" lengthAdjust="spacing" textLength="27.0833" x="157.2917" y="172.2636">root</text><rect fill="url(#g9dbdmfuz1fik1)" height="60.3516" rx="13.0208" ry="13.0208" style="stroke:#2FA4E7;stroke-width:1.5625;" width="88.5417" x="252.0833" y="104.4434"/><text fill="#FFFFFF" font-family="Verdana" font-size="12.5" lengthAdjust="spacing" textLength="57.2917" x="267.7083" y="131.6711">right_1.1</text><text fill="#FFFFFF" font-family="Verdana" font-size="12.5" lengthAdjust="spacing" textLength="57.2917" x="267.7083" y="146.2219">right_1.2</text><path d="M200,167.9362 L210.4167,167.9362 C226.0417,167.9362 226.0417,134.6191 241.6667,134.6191 L252.0833,134.6191 " fill="none" style="stroke:#A80036;stroke-width:1.0416666666666667;"/><rect fill="url(#g9dbdmfuz1fik1)" height="45.8008" rx="13.0208" ry="13.0208" style="stroke:#2FA4E7;stroke-width:1.5625;" width="76.0417" x="252.0833" y="185.6283"/><text fill="#FFFFFF" font-family="Verdana" font-size="12.5" lengthAdjust="spacing" textLength="44.7917" x="267.7083" y="212.856">right_2</text><path d="M200,167.9362 L210.4167,167.9362 C226.0417,167.9362 226.0417,208.5286 241.6667,208.5286 L252.0833,208.5286 " fill="none" style="stroke:#A80036;stroke-width:1.0416666666666667;"/><rect fill="url(#g9dbdmfuz1fik1)" height="45.8008" rx="13.0208" ry="13.0208" style="stroke:#2FA4E7;stroke-width:1.5625;" width="66.6667" x="22.9167" y="71.1263"/><text fill="#FFFFFF" font-family="Verdana" font-size="12.5" lengthAdjust="spacing" textLength="35.4167" x="38.5417" y="98.3541">left_1</text><path d="M141.6667,167.9362 L131.25,167.9362 C115.625,167.9362 115.625,94.0267 100,94.0267 L89.5833,94.0267 " fill="none" style="stroke:#A80036;stroke-width:1.0416666666666667;"/><rect fill="url(#g9dbdmfuz1fik1)" height="45.8008" rx="13.0208" ry="13.0208" style="stroke:#2FA4E7;stroke-width:1.5625;" width="66.6667" x="22.9167" y="137.7604"/><text fill="#FFFFFF" font-family="Verdana" font-size="12.5" lengthAdjust="spacing" textLength="35.4167" x="38.5417" y="164.9882">left_2</text><path d="M141.6667,167.9362 L131.25,167.9362 C115.625,167.9362 115.625,160.6608 100,160.6608 L89.5833,160.6608 " fill="none" style="stroke:#A80036;stroke-width:1.0416666666666667;"/><rect fill="url(#g9dbdmfuz1fik1)" height="60.3516" rx="13.0208" ry="13.0208" style="stroke:#2FA4E7;stroke-width:1.5625;" width="79.1667" x="10.4167" y="204.3945"/><text fill="#FFFFFF" font-family="Verdana" font-size="12.5" lengthAdjust="spacing" textLength="47.9167" x="26.0417" y="231.6223">left_3.1</text><text fill="#FFFFFF" font-family="Verdana" font-size="12.5" lengthAdjust="spacing" textLength="47.9167" x="26.0417" y="246.1731">left_3.2</text><path d="M141.6667,167.9362 L131.25,167.9362 C115.625,167.9362 115.625,234.5703 100,234.5703 L89.5833,234.5703 " fill="none" style="stroke:#A80036;stroke-width:1.0416666666666667;"/></g></svg>