<?xml version="1.0" encoding="UTF-8" standalone="no"?><svg xmlns="http://www.w3.org/2000/svg" xmlns:xlink="http://www.w3.org/1999/xlink" contentScriptType="application/ecmascript" contentStyleType="text/css" height="309.375px" preserveAspectRatio="none" style="width:427px;height:309px;background:#00000000;" version="1.1" viewBox="0 0 427 309" width="427.0833px" zoomAndPan="magnify"><defs><linearGradient id="g9bbyx4wzzyn50" x1="50%" x2="50%" y1="0%" y2="100%"><stop offset="0%" stop-color="#E2E2E2"/><stop offset="100%" stop-color="#888888"/></linearGradient></defs><g><rect fill="url(#g9bbyx4wzzyn50)" height="69.0592" rx="7.8125" ry="7.8125" style="stroke:#888888;stroke-width:1.0416666666666667;" width="81.25" x="166.6667" y="119.2139"/><text fill="#336699" font-family="&quot;Verdana&quot;" font-size="14.5833" lengthAdjust="spacing" textLength="29.1667" x="192.7083" y="158.7921">root</text><rect fill="url(#g9bbyx4wzzyn50)" height="86.0352" rx="7.8125" ry="7.8125" style="stroke:#888888;stroke-width:1.0416666666666667;" width="114.5833" x="300" y="65.7796"/><text fill="#336699" font-family="&quot;Verdana&quot;" font-size="14.5833" lengthAdjust="spacing" textLength="62.5" x="326.0417" y="105.3579">right_1.1</text><text fill="#336699" font-family="&quot;Verdana&quot;" font-size="14.5833" lengthAdjust="spacing" textLength="62.5" x="326.0417" y="122.3338">right_1.2</text><path d="M247.9167,153.7435 L258.3333,153.7435 C273.9583,153.7435 273.9583,108.7972 289.5833,108.7972 L300,108.7972 " fill="none" style="stroke:#E2E2E2;stroke-width:3.125;"/><rect fill="url(#g9bbyx4wzzyn50)" height="69.0592" rx="7.8125" ry="7.8125" style="stroke:#888888;stroke-width:1.0416666666666667;" width="101.0417" x="300" y="172.6481"/><text fill="#336699" font-family="&quot;Verdana&quot;" font-size="14.5833" lengthAdjust="spacing" textLength="48.9583" x="326.0417" y="212.2264">right_2</text><path d="M247.9167,153.7435 L258.3333,153.7435 C273.9583,153.7435 273.9583,207.1777 289.5833,207.1777 L300,207.1777 " fill="none" style="stroke:#E2E2E2;stroke-width:3.125;"/><rect fill="url(#g9bbyx4wzzyn50)" height="69.0592" rx="7.8125" ry="7.8125" style="stroke:#888888;stroke-width:1.0416666666666667;" width="90.625" x="23.9583" y="20.8333"/><text fill="#336699" font-family="&quot;Verdana&quot;" font-size="14.5833" lengthAdjust="spacing" textLength="38.5417" x="50" y="60.4116">left_1</text><path d="M166.6667,153.7435 L156.25,153.7435 C140.625,153.7435 140.625,55.363 125,55.363 L114.5833,55.363 " fill="none" style="stroke:#E2E2E2;stroke-width:3.125;"/><rect fill="url(#g9bbyx4wzzyn50)" height="69.0592" rx="7.8125" ry="7.8125" style="stroke:#888888;stroke-width:1.0416666666666667;" width="90.625" x="23.9583" y="110.7259"/><text fill="#336699" font-family="&quot;Verdana&quot;" font-size="14.5833" lengthAdjust="spacing" textLength="38.5417" x="50" y="150.3042">left_2</text><path d="M166.6667,153.7435 L156.25,153.7435 C140.625,153.7435 140.625,145.2555 125,145.2555 L114.5833,145.2555 " fill="none" style="stroke:#E2E2E2;stroke-width:3.125;"/><rect fill="url(#g9bbyx4wzzyn50)" height="86.0352" rx="7.8125" ry="7.8125" style="stroke:#888888;stroke-width:1.0416666666666667;" width="104.1667" x="10.4167" y="200.6185"/><text fill="#336699" font-family="&quot;Verdana&quot;" font-size="14.5833" lengthAdjust="spacing" textLength="52.0833" x="36.4583" y="240.1967">left_3.1</text><text fill="#336699" font-family="&quot;Verdana&quot;" font-size="14.5833" lengthAdjust="spacing" textLength="52.0833" x="36.4583" y="257.1726">left_3.2</text><path d="M166.6667,153.7435 L156.25,153.7435 C140.625,153.7435 140.625,243.6361 125,243.6361 L114.5833,243.6361 " fill="none" style="stroke:#E2E2E2;stroke-width:3.125;"/></g></svg>