<?xml version="1.0" encoding="UTF-8" standalone="no"?><svg xmlns="http://www.w3.org/2000/svg" xmlns:xlink="http://www.w3.org/1999/xlink" contentScriptType="application/ecmascript" contentStyleType="text/css" height="287.5px" preserveAspectRatio="none" style="width:353px;height:287px;background:#00000000;" version="1.1" viewBox="0 0 353 287" width="353.125px" zoomAndPan="magnify"><defs><linearGradient id="g1g4ndmd830n0e0" x1="50%" x2="50%" y1="0%" y2="100%"><stop offset="0%" stop-color="#666666"/><stop offset="100%" stop-color="#555555"/></linearGradient></defs><g><polygon fill="url(#g1g4ndmd830n0e0)" points="36.4583,12.5,36.4583,12.7189,46.6299,12.0684,56.8015,12.7013,66.973,12.9163,77.1446,11.7569,87.3162,12.419,97.4877,12.0557,107.6593,12.1005,117.8309,12.429,128.0025,11.7798,138.174,13.0767,148.3456,11.8435,158.5172,12.294,168.6887,12.9499,178.8603,12.4106,189.0319,12.5711,199.2034,12.4667,209.375,12.5,209.3987,12.5573,209.996,12.8208,210.6313,13.176,211.2319,13.4475,211.8223,13.6942,212.3213,13.7204,212.403,13.7542,212.7141,14.3712,213.0347,14.9922,212.8222,15.3923,213.5152,16.1676,213.5417,16.6667,213.4387,16.6667,213.727,24.0169,213.3698,31.3672,213.5179,38.7174,213.7992,46.0677,213.5417,53.418,213.526,53.4115,213.3314,54.0212,213.1621,54.6415,212.943,55.241,212.5641,55.7745,212.3213,56.3642,212.3594,56.4564,211.656,56.4247,211.1806,56.9436,210.6264,57.2723,210.0233,57.4832,209.375,57.5846,209.375,58.2232,199.2034,57.0814,189.0319,56.9053,178.8603,56.9373,168.6887,57.5233,158.5172,57.3799,148.3456,58.2944,138.174,57.4027,128.0025,57.2273,117.8309,57.8224,107.6593,56.89,97.4877,57.0439,87.3162,58.2606,77.1446,58.0385,66.973,58.3497,56.8015,57.2494,46.6299,57.9171,36.4583,57.5846,36.5368,57.774,35.8063,57.189,35.2671,57.0657,34.7073,56.8928,34.1879,56.8174,33.5121,56.3642,33.5107,56.3637,33.4164,55.8365,32.8463,55.1122,32.5626,54.5065,32.6973,54.0741,32.2917,53.418,32.0427,53.418,32.4684,46.0677,32.3634,38.7174,32.1986,31.3672,32.1688,24.0169,32.2917,16.6667,32.4388,16.7276,32.4397,16.0376,32.9697,15.5668,32.8466,14.8255,33.466,14.3917,33.5121,13.7204,33.5764,13.8757,34.1339,13.5549,34.6968,13.2474,35.3764,13.2212,35.9506,12.9409,36.4583,12.5" style="stroke:#4D4D4D;stroke-width:1.0416666666666667;"/><text fill="#FFFFFF" font-family="Segoe Print" font-size="20.8333" lengthAdjust="spacing" textLength="154.1667" x="45.8333" y="42.2546">sketchy theme</text><polygon fill="#474747" points="154.6875,145.0358,154.6875,145.1088,161.1458,144.8919,167.6042,145.1029,174.0625,145.1746,180.5208,144.7881,186.9792,145.0358,186.9688,145.0109,188.7639,145.6617,190.6111,146.4383,192.4944,147.3022,194.253,147.865,196.1863,148.8495,196.3639,148.9231,196.7468,150.6072,197.6483,152.5061,198.6131,154.4312,199.2097,156.2038,200,158.0566,200.0237,158.0566,199.9889,162.0085,200.062,165.9603,200.083,169.9121,200.2034,173.8639,200,177.8158,200.2153,177.9049,199.4552,179.7474,198.5562,181.5324,197.8605,183.4016,197.1743,185.2748,196.1863,187.0229,196.0905,186.7915,194.435,188.0033,192.464,188.4532,190.7329,189.4823,188.7548,189.915,186.9792,190.8366,186.9792,190.8128,180.5208,191.0941,174.0625,190.8197,167.6042,190.8732,161.1458,190.9542,154.6875,190.8366,154.7428,190.9701,152.8456,190.0726,151.0428,189.4032,149.0872,188.3647,147.3596,187.8768,145.4804,187.0229,145.6562,187.0957,144.8602,185.2405,144.1515,183.4215,143.0372,181.4344,142.2202,179.5705,141.6667,177.8158,141.4509,177.8158,141.6462,173.8639,141.5984,169.9121,141.9033,165.9603,141.606,162.0085,141.6667,158.0566,141.5566,158.0111,142.5026,156.2455,142.9782,154.2852,143.7884,152.4634,144.9258,150.7772,145.4804,148.8495,145.5383,148.9893,147.4194,148.3224,149.1205,147.2208,151.0471,146.6637,152.9245,145.988,154.6875,145.0358" style="stroke:#333333;stroke-width:1.5625;"/><text fill="#FFFFFF" font-family="Segoe Print" font-size="12.5" lengthAdjust="spacing" textLength="27.0833" x="157.2917" y="172.2636">root</text><polygon fill="#474747" points="265.1042,104.4434,265.1042,104.6623,275.5208,104.0118,285.9375,104.6447,296.3542,104.8597,306.7708,103.7002,317.1875,104.3624,327.6042,104.4434,327.5475,104.3065,329.3946,105.0831,331.278,105.947,333.0366,106.5098,335.0434,107.6719,336.8113,108.2571,336.6091,108.1733,337.5106,110.0722,338.4753,111.9973,339.072,113.7699,339.8841,115.6318,340.625,117.4642,340.6139,117.4642,340.687,124.3262,340.708,131.1882,340.8284,138.0501,340.858,144.9121,340.625,151.7741,340.8429,151.8643,339.9439,153.6493,339.2482,155.5185,338.562,157.3917,337.3427,159.044,336.8113,160.9812,336.9014,161.1989,334.9305,161.6488,333.1994,162.6779,331.2212,163.1106,329.4365,164.0102,327.6042,164.7949,327.6042,165.5674,317.1875,164.7442,306.7708,164.9046,296.3542,165.1477,285.9375,165.2285,275.5208,164.7909,265.1042,164.7949,265.1423,164.8871,263.1867,163.8486,261.4591,163.3607,259.6527,162.6825,257.7975,161.8866,255.897,160.9812,256.0937,161.0627,254.9793,159.0756,254.1623,157.2117,253.4095,155.3744,252.8272,153.6077,252.0833,151.7741,252.0151,151.7741,252.3199,144.9121,252.0227,138.0501,251.9642,131.1882,252.1626,124.3262,252.0833,117.4642,251.8694,117.3756,252.6795,115.5538,253.817,113.8676,254.5113,111.9978,255.3699,110.1961,255.897,108.2571,255.8543,108.1538,257.7809,107.5967,259.6583,106.921,261.3585,105.8173,263.25,105.1754,265.1042,104.4434" style="stroke:#333333;stroke-width:1.5625;"/><text fill="#FFFFFF" font-family="Segoe Print" font-size="12.5" lengthAdjust="spacing" textLength="57.2917" x="267.7083" y="131.6711">right_1.1</text><text fill="#FFFFFF" font-family="Segoe Print" font-size="12.5" lengthAdjust="spacing" textLength="57.2917" x="267.7083" y="146.2219">right_1.2</text><path d="M200,167.9362 L200,168.1308 L202.0833,167.5526 L204.1667,168.1152 L206.25,168.3063 L208.3333,167.2756 L210.4167,167.9362 L210.4167,167.9362 L210.3991,167.9048 L212.1755,166.7228 L214.0407,165.699 L215.9676,164.7852 L217.6819,163.4924 L219.694,162.7304 L219.9182,162.8547 L220.7083,160.2984 L222.153,158.1049 L223.6775,155.9557 L224.7374,153.549 L226.0417,151.2777 L226.0693,151.293 L227.2983,148.98 L228.653,146.7366 L229.9471,144.4597 L231.357,142.2469 L232.3893,139.8249 L232.5414,140.0959 L234.3987,139.058 L236.1579,137.8454 L238.0608,136.8886 L239.9703,135.9438 L241.6667,134.6191 L241.6667,133.9514 L243.75,135.2474 L245.8333,134.3446 L247.9167,135.1134 L250,134.1608 L252.0833,134.6191 " fill="none" style="stroke:#A80036;stroke-width:1.0416666666666667;"/><polygon fill="#474747" points="265.1042,185.6283,265.1042,185.8472,275.1042,185.1967,285.1042,185.8296,295.1042,186.0446,305.1042,184.8851,315.1042,185.6283,315.0938,185.6033,316.8889,186.2542,318.7361,187.0307,320.6194,187.8946,322.378,188.4574,324.3113,189.442,324.4889,189.5155,324.8718,191.1996,325.7733,193.0985,326.7381,195.0236,327.3347,196.7963,328.125,198.6491,328.1487,198.6491,328.1139,202.6009,328.187,206.5527,328.208,210.5046,328.3284,214.4564,328.125,218.4082,328.3403,218.4974,327.5802,220.3399,326.6812,222.1249,325.9855,223.9941,325.2993,225.8672,324.3113,227.6153,324.2155,227.384,322.56,228.5957,320.589,229.0457,318.8579,230.0748,316.8798,230.5075,315.1042,231.429,315.1042,231.3577,305.1042,232.2015,295.1042,231.3783,285.1042,231.5387,275.1042,231.7818,265.1042,231.429,265.1595,231.5626,263.2622,230.665,261.4595,229.9957,259.5038,228.9572,257.7763,228.4693,255.897,227.6153,256.0729,227.6882,255.2769,225.833,254.5682,224.0139,253.4539,222.0269,252.6369,220.163,252.0833,218.4082,251.8676,218.4082,252.0629,214.4564,252.0151,210.5046,252.3199,206.5527,252.0227,202.6009,252.0833,198.6491,251.9733,198.6035,252.9193,196.838,253.3949,194.8776,254.205,193.0558,255.3425,191.3696,255.897,189.442,255.9549,189.5817,257.8361,188.9148,259.5371,187.8133,261.4637,187.2561,263.3412,186.5804,265.1042,185.6283" style="stroke:#333333;stroke-width:1.5625;"/><text fill="#FFFFFF" font-family="Segoe Print" font-size="12.5" lengthAdjust="spacing" textLength="44.7917" x="267.7083" y="212.856">right_2</text><path d="M200,167.9362 L200,168.1308 L202.0833,167.5526 L204.1667,168.1152 L206.25,168.3063 L208.3333,167.2756 L210.4167,167.9362 L210.4167,167.9362 L210.3964,167.9065 L212.1607,169.0417 L214.0274,170.3267 L215.9653,171.7157 L217.6579,172.746 L219.694,174.2788 L219.9273,174.3849 L220.6979,176.9487 L222.1497,179.8223 L223.6846,182.7338 L224.736,185.4252 L226.0417,188.2324 L226.0704,188.2455 L227.2977,191.017 L228.656,193.8481 L229.951,196.6505 L231.3666,199.5076 L232.3893,202.1861 L232.5647,202.4425 L234.4223,203.7142 L236.1668,204.8204 L238.0769,206.1688 L239.9947,207.5285 L241.6667,208.5286 L241.6667,207.8609 L243.75,209.1569 L245.8333,208.2541 L247.9167,209.0229 L250,208.0703 L252.0833,208.5286 " fill="none" style="stroke:#A80036;stroke-width:1.0416666666666667;"/><polygon fill="#474747" points="35.9375,71.1263,35.9375,71.1993,44.0625,70.9824,52.1875,71.1934,60.3125,71.2651,68.4375,70.8786,76.5625,71.1263,76.5522,71.1014,78.3473,71.7522,80.1944,72.5288,82.0777,73.3927,83.8363,73.9555,85.7696,74.94,85.9472,75.0136,86.3302,76.6977,87.2317,78.5966,88.1964,80.5217,88.7931,82.2943,89.5833,84.1471,89.607,84.1471,89.5722,88.099,89.6453,92.0508,89.6664,96.0026,89.7867,99.9544,89.5833,103.9063,89.7986,103.9954,89.0385,105.8379,88.1395,107.6229,87.4438,109.4921,86.7576,111.3653,85.7696,113.1134,85.6738,112.882,84.0184,114.0938,82.0474,114.5437,80.3163,115.5728,78.3381,116.0055,76.5625,116.9271,76.5625,116.9033,68.4375,117.1846,60.3125,116.9102,52.1875,116.9636,44.0625,117.0447,35.9375,116.9271,35.9928,117.0606,34.0956,116.1631,32.2928,115.4937,30.3372,114.4552,28.6096,113.9673,26.7304,113.1134,26.9062,113.1862,26.1102,111.331,25.4015,109.512,24.2872,107.5249,23.4702,105.661,22.9167,103.9063,22.7009,103.9063,22.8962,99.9544,22.8484,96.0026,23.1533,92.0508,22.856,88.099,22.9167,84.1471,22.8066,84.1016,23.7526,82.336,24.2282,80.3757,25.0384,78.5539,26.1758,76.8677,26.7304,74.94,26.7883,75.0798,28.6694,74.4129,30.3705,73.3113,32.2971,72.7542,34.1745,72.0784,35.9375,71.1263" style="stroke:#333333;stroke-width:1.5625;"/><text fill="#FFFFFF" font-family="Segoe Print" font-size="12.5" lengthAdjust="spacing" textLength="35.4167" x="38.5417" y="98.3541">left_1</text><path d="M141.6667,167.9362 L141.6667,168.1308 L139.5833,167.5526 L137.5,168.1152 L135.4167,168.3063 L133.3333,167.2756 L131.25,167.9362 L131.25,167.9362 L131.222,167.9137 L129.2406,165.5029 L127.4006,163.2057 L125.659,160.9874 L123.5786,158.497 L121.9727,156.3878 L122.2192,156.4578 L121.0205,153.9408 L120.5418,151.628 L120.1509,149.3402 L119.2489,146.9073 L118.6157,144.5508 L118.6466,144.5576 L118.0031,141.8337 L117.5001,139.1408 L116.9294,136.433 L116.4879,133.7537 L115.625,130.9814 L115.9284,131.0483 L115.334,128.3353 L114.5438,125.5791 L114.0402,122.886 L113.5499,120.196 L112.6343,117.4121 L112.3131,117.321 L112.2651,115.1304 L111.1594,112.6398 L110.8579,110.3773 L109.7282,107.8799 L109.2773,105.5751 L109.2526,105.5552 L107.6895,103.4804 L105.5488,100.9416 L103.7489,98.6766 L101.9777,96.4345 L100,94.0267 L100,94.4121 L97.9167,94.0231 L95.8333,94.2926 L93.75,93.4967 L91.6667,94.29 L89.5833,94.0267 " fill="none" style="stroke:#A80036;stroke-width:1.0416666666666667;"/><polygon fill="#474747" points="35.9375,137.7604,35.9375,137.8334,44.0625,137.6166,52.1875,137.8275,60.3125,137.8992,68.4375,137.5127,76.5625,137.7604,76.5522,137.7355,78.3473,138.3863,80.1944,139.1629,82.0777,140.0268,83.8363,140.5896,85.7696,141.5741,85.9472,141.6477,86.3302,143.3318,87.2317,145.2307,88.1964,147.1558,88.7931,148.9284,89.5833,150.7813,89.607,150.7813,89.5722,154.7331,89.6453,158.6849,89.6664,162.6367,89.7867,166.5885,89.5833,170.5404,89.7986,170.6295,89.0385,172.472,88.1395,174.257,87.4438,176.1262,86.7576,177.9994,85.7696,179.7475,85.6738,179.5161,84.0184,180.7279,82.0474,181.1779,80.3163,182.207,78.3381,182.6397,76.5625,183.5612,76.5625,183.5374,68.4375,183.8187,60.3125,183.5443,52.1875,183.5978,44.0625,183.6788,35.9375,183.5612,35.9928,183.6947,34.0956,182.7972,32.2928,182.1278,30.3372,181.0893,28.6096,180.6015,26.7304,179.7475,26.9062,179.8203,26.1102,177.9651,25.4015,176.1461,24.2872,174.159,23.4702,172.2951,22.9167,170.5404,22.7009,170.5404,22.8962,166.5885,22.8484,162.6367,23.1533,158.6849,22.856,154.7331,22.9167,150.7813,22.8066,150.7357,23.7526,148.9702,24.2282,147.0098,25.0384,145.188,26.1758,143.5018,26.7304,141.5741,26.7883,141.7139,28.6694,141.047,30.3705,139.9454,32.2971,139.3883,34.1745,138.7126,35.9375,137.7604" style="stroke:#333333;stroke-width:1.5625;"/><text fill="#FFFFFF" font-family="Segoe Print" font-size="12.5" lengthAdjust="spacing" textLength="35.4167" x="38.5417" y="164.9882">left_2</text><path d="M141.6667,167.9362 L141.6667,168.1308 L139.5833,167.5526 L137.5,168.1152 L135.4167,168.3063 L133.3333,167.2756 L131.25,167.9362 L131.25,167.9362 L131.2418,167.9012 L128.0802,167.0164 L124.9597,166.3082 L121.8678,165.7228 L118.6774,164.7143 L115.625,164.2985 L115.6831,164.5481 L112.4338,163.2868 L109.3542,162.7543 L106.2953,162.3107 L103.116,161.3497 L100,160.6608 L100,160.724 L97.9167,160.6312 L95.8333,160.8261 L93.75,160.8822 L91.6667,161.2031 L89.5833,160.6608 " fill="none" style="stroke:#A80036;stroke-width:1.0416666666666667;"/><polygon fill="#474747" points="23.4375,204.3945,23.4375,204.6135,34.0625,203.9629,44.6875,204.5959,55.3125,204.8109,65.9375,203.6514,76.5625,204.3945,76.5522,204.3696,78.3473,205.0205,80.1944,205.797,82.0777,206.6609,83.8363,207.2237,85.7696,208.2082,85.9472,208.2818,86.3302,209.9659,87.2317,211.8648,88.1964,213.7899,88.7931,215.5625,89.5833,217.4154,89.607,217.4154,89.5722,224.2773,89.6453,231.1393,89.6664,238.0013,89.7867,244.8633,89.5833,251.7253,89.7986,251.8144,89.0385,253.6569,88.1395,255.4419,87.4438,257.3111,86.7576,259.1843,85.7696,260.9324,85.6738,260.701,84.0184,261.9128,82.0474,262.3627,80.3163,263.3919,78.3381,263.8246,76.5625,264.7461,76.5625,264.6747,65.9375,265.5186,55.3125,264.6953,44.6875,264.8558,34.0625,265.0988,23.4375,264.7461,23.4928,264.8796,21.5956,263.9821,19.7928,263.3127,17.8372,262.2742,16.1096,261.7864,14.2304,260.9324,14.4062,261.0052,13.6102,259.15,12.9015,257.331,11.7872,255.3439,10.9702,253.48,10.4167,251.7253,10.2009,251.7253,10.3962,244.8633,10.3484,238.0013,10.6533,231.1393,10.356,224.2773,10.4167,217.4154,10.3066,217.3698,11.2526,215.6043,11.7282,213.6439,12.5384,211.8221,13.6758,210.1359,14.2304,208.2082,14.2883,208.348,16.1694,207.6811,17.8705,206.5795,19.7971,206.0224,21.6745,205.3467,23.4375,204.3945" style="stroke:#333333;stroke-width:1.5625;"/><text fill="#FFFFFF" font-family="Segoe Print" font-size="12.5" lengthAdjust="spacing" textLength="47.9167" x="26.0417" y="231.6223">left_3.1</text><text fill="#FFFFFF" font-family="Segoe Print" font-size="12.5" lengthAdjust="spacing" textLength="47.9167" x="26.0417" y="246.1731">left_3.2</text><path d="M141.6667,167.9362 L141.6667,168.1308 L139.5833,167.5526 L137.5,168.1152 L135.4167,168.3063 L133.3333,167.2756 L131.25,167.9362 L131.25,167.9362 L131.2231,167.9123 L129.2471,169.8872 L127.4065,171.9827 L125.66,174.1622 L123.5892,176.0525 L121.9727,178.3478 L122.2172,178.4247 L121.0229,180.3946 L120.5425,182.5891 L120.1493,184.8109 L119.2492,186.8734 L118.6157,189.0196 L118.6464,189.0272 L118.0032,191.4629 L117.4997,193.9327 L116.9288,196.3861 L116.4865,198.8709 L115.625,201.2533 L115.9268,201.327 L115.3323,203.7747 L114.5432,206.1747 L114.039,208.6444 L113.5482,211.1173 L112.6343,213.4869 L112.3158,213.3867 L112.2625,215.7155 L111.1606,217.7144 L110.8559,219.9641 L109.7301,221.9556 L109.2773,224.1587 L109.2537,224.1376 L107.6782,226.4695 L105.5496,228.3084 L103.7473,230.4381 L101.9725,232.5923 L100,234.5703 L100,234.9557 L97.9167,234.5667 L95.8333,234.8363 L93.75,234.0403 L91.6667,234.8336 L89.5833,234.5703 " fill="none" style="stroke:#A80036;stroke-width:1.0416666666666667;"/><!--MD5=[895202428ca758c5da2bd99e19c10a5a]
@startmindmap
!pragma layout smetana
!theme sketchy
title sketchy theme
+ root
**:right_1.1
right_1.2;
++ right_2

left side

- - left_1
- - left_2
**:left_3.1
left_3.2;
@endmindmap

@startmindmap
!pragma layout smetana



skinparam backgroundColor transparent
skinparam useBetaStyle false
skinparam handwritten true
skinparam shadowing false







skinparam defaultFontName       "Segoe Print"
skinparam defaultFontSize       12
skinparam dpi                   100
skinparam shadowing             false
skinparam roundcorner           8
skinparam ParticipantPadding    40
skinparam BoxPadding            40
skinparam Padding               5
skinparam ArrowColor            #555555
skinparam stereotype {
    CBackgroundColor #666666
    CBorderColor #4d4d4d
    ABackgroundColor #3eb058
    ABorderColor #24963e
    IBackgroundColor #e04958
    IBorderColor #c6303e
    EBackgroundColor #ffc720
    EBorderColor #e6ae06
    NBackgroundColor #2eabbf
    NBorderColor #1592a6
}
skinparam title {
	FontColor	                 #ffffff
	BorderColor	                 #4d4d4d
	FontSize	    	         20
	BorderRoundCorner            8
	BorderThickness 	         1
	BackgroundColor              #666666-#555555
}

skinparam legend {
	BackgroundColor #555555
	BorderColor #4d4d4d
	FontColor #ffffff
}

skinparam swimlane {
	BorderColor #17a2b8
	BorderThickness 2
	TitleBackgroundColor  #666666-#555555
	TitleFontColor #ffffff
}


skinparam activity {
		FontColor #ffffff
	BorderColor #333333
	BackgroundColor #474747
	BarColor #28a745
	StartColor #17a2b8
	EndColor #17a2b8
	DiamondBackgroundColor #666666
  	DiamondBorderColor #4d4d4d
  	DiamondFontColor #ffffff
}


skinparam participant {
		FontColor #ffffff
	BorderColor #333333
	BackgroundColor #474747
	ParticipantBorderThickness 2
}


skinparam actor {
		FontColor #ffffff
	BorderColor #333333
	BackgroundColor #474747
}


skinparam arrow {
	Thickness 3
	Color #333333
	FontColor #ffffff
}


skinparam sequence {
	BorderColor #333333
	TitleFontColor #333333
	BackgroundColor transparent
	StartColor #333333
	EndColor #333333
	BoxBackgroundColor transparent
	BoxBorderColor #555555
	BoxFontColor #555555
	DelayFontColor #555555
	LifeLineBorderColor #555555
	LifeLineBorderThickness 2
	LifeLineBackgroundColor #4d4d4d
	GroupBorderColor #555555
	GroupFontColor #555555
	GroupHeaderFontColor #17a2b8
	GroupBackgroundColor #555555
	GroupHeaderBackgroundColor transparent
	DividerBackgroundColor #555555
    DividerBorderColor #555555
    DividerBorderThickness 2
    DividerFontColor #ffffff
	ReferenceBackgroundColor transparent
	ReferenceBorderColor #555555
	ReferenceFontColor #555555
	ReferenceHeaderFontColor #17a2b8
	ReferenceHeaderBackgroundColor #555555
	StereotypeFontColor #ffffff
}


skinparam partition {
	BorderColor #333333
	FontColor #333333
	BackgroundColor transparent
}


skinparam collections {
		FontColor #ffffff
	BorderColor #333333
	BackgroundColor #474747
}


skinparam control {
		FontColor #ffffff
	BorderColor #333333
	BackgroundColor #474747
}


skinparam entity {
		FontColor #ffffff
	BorderColor #333333
	BackgroundColor #474747
}


skinparam boundary {
		FontColor #ffffff
	BorderColor #333333
	BackgroundColor #474747
}


skinparam agent {
	BackgroundColor #ffc107
	BorderColor #ffc720
	FontColor #555555
}


skinparam note {
	BorderThickness 1
	BackgroundColor #17a2b8
	BorderColor #1592a6
	FontColor #ffffff
}


skinparam artifact {
	BackgroundColor #555555
	BorderColor #4d4d4d
	FontColor #ffffff
}


skinparam component {
		FontColor #ffffff
	BorderColor #333333
	BackgroundColor #474747
}


skinparam interface {
	BackgroundColor  #c6303e
	BorderColor  #dc3545
	FontColor #555555
}


skinparam storage {
	BackgroundColor #ffc107
  	BorderColor #e6ae06
	FontColor #ffffff
}


skinparam node {
	BackgroundColor  #555555
	BorderColor #ffffff
	FontColor #ffffff
}


skinparam cloud {
	BackgroundColor #F2FCFE-#eeeeee
	BorderColor #F2FCFE
	FontColor #555555
}


skinparam database {
		FontColor #ffffff
	BorderColor #333333
	BackgroundColor #474747
}


skinparam class {
		FontColor #ffffff
	BorderColor #333333
	BackgroundColor #474747
	FontColor #ffffff
	HeaderBackgroundColor #474747
	StereotypeFontColor #555555
	BorderThickness 1
	AttributeFontColor #ffffff
	AttributeFontSize 11
}


skinparam object {
		FontColor #ffffff
	BorderColor #333333
	BackgroundColor #474747
	StereotypeFontColor #555555
	BorderThickness 1
	AttributeFontColor #ffffff
	AttributeFontSize 11
}


skinparam usecase {
		FontColor #ffffff
	BorderColor #333333
	BackgroundColor #474747
	BorderThickness 2
	StereotypeFontColor #333333
}


skinparam rectangle {
		FontColor #ffffff
	BorderColor #333333
	BackgroundColor #474747
	BackgroundColor #666666
	BorderThickness 2
	StereotypeFontColor #333333
}


skinparam package {
	BackgroundColor #555555
  	BorderColor #333333
	FontColor #333333
	BorderThickness 2
}


skinparam folder {
	BackgroundColor #666666
  	BorderColor #ffc107
	FontColor #ffc107
	BorderThickness 2
}


skinparam frame {
	BackgroundColor #666666
  	BorderColor #17a2b8
	FontColor #17a2b8
	BorderThickness 2
}


skinparam state {
		FontColor #ffffff
	BorderColor #333333
	BackgroundColor #474747
	StartColor #17a2b8
	EndColor #17a2b8
	AttributeFontColor #ffffff
	AttributeFontSize 11
}


skinparam queue {
		FontColor #ffffff
	BorderColor #333333
	BackgroundColor #474747
}


skinparam card {
	BackgroundColor #17a2b8
	BorderColor #1592a6
	FontColor #ffffff
}


skinparam file {
	BackgroundColor #4d4d4d
	BorderColor #ffffff
	FontColor #ffffff
}


title sketchy theme
+ root
**:right_1.1
right_1.2;
++ right_2

left side

- - left_1
- - left_2
**:left_3.1
left_3.2;
@endmindmap

PlantUML version 1.2021.12(Tue Oct 05 16:01:58 UTC 2021)
(GPL source distribution)
Java Runtime: OpenJDK Runtime Environment
JVM: OpenJDK 64-Bit Server VM
Default Encoding: UTF-8
Language: en
Country: null
--></g></svg>