<?xml version="1.0" encoding="UTF-8" standalone="no"?><svg xmlns="http://www.w3.org/2000/svg" xmlns:xlink="http://www.w3.org/1999/xlink" contentScriptType="application/ecmascript" contentStyleType="text/css" height="278.125px" preserveAspectRatio="none" style="width:395px;height:278px;background:#00000000;" version="1.1" viewBox="0 0 395 278" width="395.8333px" zoomAndPan="magnify"><defs><linearGradient id="gh3ofzo7dk70e0" x1="50%" x2="50%" y1="0%" y2="100%"><stop offset="0%" stop-color="#333333"/><stop offset="100%" stop-color="#2E2E2E"/></linearGradient></defs><g><polygon fill="url(#gh3ofzo7dk70e0)" points="160.4167,108.7972,160.4167,109.0161,170.8333,108.3656,181.25,108.9985,191.6667,109.2135,202.0833,108.0541,212.5,108.7162,222.9167,108.7972,222.86,108.6604,223.455,108.9183,224.0861,109.2635,224.5926,109.3076,225.3473,109.9511,225.8629,110.0176,225.6608,109.9338,226.0436,110.5806,226.4897,111.2535,226.5677,111.774,226.8611,112.3837,227.0833,112.9639,227.0501,112.9639,227.2693,123.0257,227.3324,133.0876,227.6934,143.1494,227.7823,153.2113,227.0833,163.2731,227.3012,163.3634,226.9209,163.8962,226.7439,164.5132,226.5764,165.1342,225.8757,165.5343,225.8629,166.2194,225.9531,166.4371,225.2343,166.3684,224.7554,166.8788,224.0294,166.7928,223.4968,167.1737,222.9167,167.4398,222.9167,168.2123,212.5,167.389,202.0833,167.5495,191.6667,167.7925,181.25,167.8734,170.8333,167.4357,160.4167,167.4398,160.4548,167.5319,159.7514,167.0121,159.2759,167.0429,158.7217,166.8834,158.1187,166.6061,157.4704,166.2194,157.667,166.3008,157.0713,165.5659,156.773,164.9542,156.5388,164.3691,156.4752,163.8545,156.25,163.2731,156.0453,163.2731,156.9598,153.2113,156.068,143.1494,155.8927,133.0876,156.4878,123.0257,156.25,112.9639,156.0361,112.8753,156.3275,112.3056,156.9463,111.8716,157.122,111.254,157.4619,110.7044,157.4704,110.0176,157.4276,109.9144,158.1021,109.8759,158.7274,109.7188,159.1754,109.1338,159.8147,109.0105,160.4167,108.7972" style="stroke:#2E2E2E;stroke-width:1.0416666666666667;"/><text fill="#FFFFFF" font-family="&quot;Segoe Print&quot;" font-size="14.5833" lengthAdjust="spacing" textLength="29.1667" x="177.0833" y="143.1671">root</text><polygon fill="url(#gh3ofzo7dk70e0)" points="283.3333,60.5713,283.3333,60.7902,293.9815,60.1397,304.6296,60.7726,315.2778,60.9876,325.9259,59.8282,336.5741,60.4903,347.2222,60.127,357.8704,60.1718,368.5185,60.5003,379.1667,60.5713,379.0748,60.3495,379.8295,60.993,380.2614,60.8573,380.9082,61.2401,381.5811,61.6862,382.1129,61.7917,382.0854,61.7803,382.3789,62.39,382.5909,62.9659,382.9024,63.5832,383.166,64.1805,383.3333,64.738,383.9434,64.738,384.0323,75.9521,384.0409,87.1663,383.5986,98.3805,383.8162,109.5947,384.0648,120.8089,383.3333,132.0231,383.102,131.9273,383.3069,132.7025,382.7501,133.1622,382.7723,133.8618,382.1982,134.3144,382.1129,134.9694,382.1038,134.9474,381.6222,135.4514,380.928,135.4419,380.3592,135.7354,379.8009,136.0543,379.1667,136.1898,379.1667,136.6234,368.5185,136.1857,357.8704,136.489,347.2222,135.5935,336.5741,136.486,325.9259,136.7608,315.2778,136.6528,304.6296,136.8283,293.9815,135.6866,283.3333,136.1898,283.2467,135.9806,282.6615,135.7464,282.147,135.6827,281.5395,135.3945,281.0669,135.4321,280.3871,134.9694,280.331,134.9462,280.0329,134.3346,279.9721,133.8212,279.4409,133.113,279.2442,132.5434,279.1667,132.0231,279.8427,132.0231,279.6205,120.8089,279.9318,109.5947,278.8315,98.3805,279.4992,87.1663,279.7817,75.9521,279.1667,64.738,279.0151,64.6752,279.38,64.136,279.6952,63.5762,280.108,63.0568,280.1416,62.3804,280.3871,61.7917,280.4485,61.9401,280.9027,61.37,281.4756,61.0863,282.2217,61.221,282.6488,60.5854,283.3333,60.5713" style="stroke:#2E2E2E;stroke-width:1.0416666666666667;"/><text fill="#FFFFFF" font-family="&quot;Segoe Print&quot;" font-size="14.5833" lengthAdjust="spacing" textLength="62.5" x="300" y="94.9412">right_1.1</text><text fill="#FFFFFF" font-family="&quot;Segoe Print&quot;" font-size="14.5833" lengthAdjust="spacing" textLength="62.5" x="300" y="111.9171">right_1.2</text><path d="M227.0833,138.1185 L227.0833,138.3131 L229.1667,137.7349 L231.25,138.2975 L233.3333,138.4886 L235.4167,137.4579 L237.5,138.1185 L237.5,138.1185 L237.48,138.0886 L239.2456,136.7126 L241.1122,135.4873 L243.0489,134.3668 L244.7438,132.8852 L246.7773,131.9094 L247.0098,132.0174 L247.7823,129.0545 L249.2334,126.4069 L250.7673,123.7978 L251.8195,120.9648 L253.125,118.2495 L253.1536,118.2628 L254.3811,115.5113 L255.739,112.8204 L257.034,110.1002 L258.449,107.4358 L259.4727,104.5896 L259.6455,104.8478 L261.503,103.6091 L263.2492,102.2039 L265.1584,101.0425 L267.0754,99.8925 L268.75,98.3805 L268.75,97.7128 L270.8333,99.0088 L272.9167,98.106 L275,98.8748 L277.0833,97.9222 L279.1667,98.3805 " fill="none" style="stroke:#333333;stroke-width:3.125;"/><polygon fill="url(#gh3ofzo7dk70e0)" points="283.3333,157.0231,283.3333,157.2421,293.6198,156.5915,303.9063,157.2245,314.1927,157.4394,324.4792,156.28,334.7656,156.9422,345.0521,156.5788,355.3385,156.6236,365.625,157.0231,365.6159,157.0012,366.1224,157.0454,366.8771,157.6889,367.309,157.5532,367.9557,157.936,368.5713,158.2435,368.7098,158.3009,368.7878,158.8214,369.0813,159.4311,369.2933,160.007,369.6049,160.6242,369.7917,161.1898,370.0408,161.1898,370.4018,171.2516,370.4907,181.3135,370.4992,191.3753,370.0569,201.4372,369.7917,211.499,369.9404,211.5606,369.7729,212.1816,369.0722,212.5817,369.2771,213.3569,368.7202,213.8166,368.5713,214.4453,368.6422,214.6165,367.9162,214.5306,367.3837,214.9115,366.9021,215.4154,366.2078,215.406,365.625,215.6657,365.625,215.7754,355.3385,216.0184,345.0521,216.0993,334.7656,215.6616,324.4792,215.9649,314.1927,215.0694,303.9063,215.9619,293.6198,216.2367,283.3333,215.6657,283.3924,215.8083,282.8255,215.6183,282.0906,215.0226,281.4789,214.7242,280.8937,214.49,280.3871,214.4453,280.3682,214.4375,280.0799,213.8299,280.1175,213.3573,279.5988,212.6543,279.3007,212.0427,279.1667,211.499,279.4044,211.499,278.472,201.4372,278.6259,191.3753,279.8427,181.3135,279.6205,171.2516,279.1667,161.1898,279.4023,161.2874,279.3075,160.5578,279.7572,160.0537,280.0883,159.5005,279.9914,158.77,280.3871,158.2435,280.3743,158.2127,280.9931,158.0398,281.6522,157.9644,282.1543,157.5099,282.8055,157.4156,283.3333,157.0231" style="stroke:#2E2E2E;stroke-width:1.0416666666666667;"/><text fill="#FFFFFF" font-family="&quot;Segoe Print&quot;" font-size="14.5833" lengthAdjust="spacing" textLength="48.9583" x="300" y="191.393">right_2</text><path d="M227.0833,138.1185 L227.0833,138.3131 L229.1667,137.7349 L231.25,138.2975 L233.3333,138.4886 L235.4167,137.4579 L237.5,138.1185 L237.5,138.1185 L237.4773,138.0906 L239.231,139.4723 L241.099,140.9948 L243.0465,142.6152 L244.7201,143.8983 L246.7773,145.6538 L247.0167,145.7454 L247.7744,148.865 L249.2309,152.2521 L250.7727,155.6719 L251.8184,158.9017 L253.125,162.2314 L253.1545,162.2427 L254.3807,165.5417 L255.7412,168.8921 L257.037,172.2176 L258.4563,175.5905 L259.4727,178.8091 L259.6685,179.0503 L261.5264,180.5603 L263.2579,181.9147 L265.1744,183.4969 L267.0995,185.0897 L268.75,186.3444 L268.75,185.6766 L270.8333,186.9727 L272.9167,186.0699 L275,186.8387 L277.0833,185.886 L279.1667,186.3444 " fill="none" style="stroke:#333333;stroke-width:3.125;"/><polygon fill="url(#gh3ofzo7dk70e0)" points="28.125,20.8333,28.125,21.0523,38.3929,20.4017,48.6607,21.0347,58.9286,21.2497,69.1964,20.0902,79.4643,20.7524,89.7321,20.3891,100,20.8333,99.949,20.7103,100.5802,21.0555,101.0866,21.0997,101.8413,21.7432,102.2733,21.6075,102.9463,22.0537,102.8828,22.0274,103.3289,22.7004,103.4069,23.2208,103.7004,23.8306,103.9123,24.4065,104.1667,25,104.3526,25,104.4158,35.0618,104.7768,45.1237,104.8657,55.1855,104.8742,65.2474,104.1667,75.3092,104.2483,75.3431,104.0713,75.9601,103.9038,76.5811,103.2031,76.9812,103.408,77.7564,102.9463,78.2555,102.9069,78.1604,102.428,78.6708,101.702,78.5849,101.1694,78.9658,100.6878,79.4697,100,79.4759,100,79.4251,89.7321,79.5856,79.4643,79.8286,69.1964,79.9095,58.9286,79.4718,48.6607,79.7751,38.3929,78.8796,28.125,79.4759,28.1628,79.5671,27.6086,79.4077,27.0056,79.1304,26.4387,78.9403,25.7038,78.3446,25.1787,78.2555,24.9695,78.1689,24.7353,77.5837,24.6717,77.0692,24.3834,76.4616,24.421,75.989,23.9583,75.3092,23.7764,75.3092,23.601,65.2474,24.1961,55.1855,23.2637,45.1237,23.4176,35.0618,23.9583,25,24.1665,25.0862,24.3422,24.4686,24.6821,23.9191,24.5873,23.1895,25.037,22.6854,25.1787,22.0537,25.2572,22.2431,25.7052,21.6581,26.3445,21.5348,26.9632,21.3619,27.6223,21.2865,28.125,20.8333" style="stroke:#2E2E2E;stroke-width:1.0416666666666667;"/><text fill="#FFFFFF" font-family="&quot;Segoe Print&quot;" font-size="14.5833" lengthAdjust="spacing" textLength="38.5417" x="44.7917" y="55.2032">left_1</text><path d="M156.25,138.1185 L156.25,138.3131 L154.1667,137.7349 L152.0833,138.2975 L150,138.4886 L147.9167,137.4579 L145.8333,138.1185 L145.8333,138.1185 L145.8035,138.0984 L143.8142,135.2592 L141.9752,132.5214 L140.2408,129.8542 L138.1462,126.9439 L136.556,124.3741 L136.8053,124.4335 L135.6008,121.4889 L135.1242,118.7177 L134.7364,115.9677 L133.8318,113.0946 L133.1991,110.2862 L133.2301,110.2919 L132.5864,107.0536 L132.084,103.8414 L131.5135,100.6166 L131.0731,97.4159 L130.2083,94.1366 L130.5138,94.1931 L129.9194,90.9639 L129.128,87.6982 L128.6249,84.4859 L128.1354,81.2761 L127.2176,77.9869 L126.8928,77.9095 L126.8518,75.2422 L125.7413,72.3199 L125.4439,69.5914 L124.3091,66.6634 L123.8607,63.899 L123.8344,63.8812 L122.2898,61.3422 L120.131,58.3886 L118.3347,55.6796 L116.5687,52.9912 L114.5833,50.1546 L114.5833,50.54 L112.5,50.151 L110.4167,50.4206 L108.3333,49.6246 L106.25,50.4179 L104.1667,50.1546 " fill="none" style="stroke:#333333;stroke-width:3.125;"/><polygon fill="url(#gh3ofzo7dk70e0)" points="28.125,100.3092,28.125,100.5282,38.3929,99.8777,48.6607,100.5106,58.9286,100.7256,69.1964,99.5661,79.4643,100.2283,89.7321,99.865,100,100.3092,99.949,100.1862,100.5802,100.5315,101.0866,100.5756,101.8413,101.2191,102.2733,101.0834,102.9463,101.5296,102.8828,101.5034,103.3289,102.1763,103.4069,102.6967,103.7004,103.3065,103.9123,103.8824,104.1667,104.4759,104.3526,104.4759,104.4158,114.5378,104.7768,124.5996,104.8657,134.6615,104.8742,144.7233,104.1667,154.7852,104.2483,154.819,104.0713,155.436,103.9038,156.057,103.2031,156.4571,103.408,157.2323,102.9463,157.7314,102.9069,157.6363,102.428,158.1468,101.702,158.0608,101.1694,158.4417,100.6878,158.9456,100,158.9518,100,158.9011,89.7321,159.0615,79.4643,159.3046,69.1964,159.3854,58.9286,158.9478,48.6607,159.251,38.3929,158.3556,28.125,158.9518,28.1628,159.0431,27.6086,158.8836,27.0056,158.6063,26.4387,158.4162,25.7038,157.8205,25.1787,157.7314,24.9695,157.6448,24.7353,157.0596,24.6717,156.5451,24.3834,155.9376,24.421,155.465,23.9583,154.7852,23.7764,154.7852,23.601,144.7233,24.1961,134.6615,23.2637,124.5996,23.4176,114.5378,23.9583,104.4759,24.1665,104.5621,24.3422,103.9445,24.6821,103.395,24.5873,102.6654,25.037,102.1613,25.1787,101.5296,25.2572,101.719,25.7052,101.134,26.3445,101.0107,26.9632,100.8378,27.6223,100.7624,28.125,100.3092" style="stroke:#2E2E2E;stroke-width:1.0416666666666667;"/><text fill="#FFFFFF" font-family="&quot;Segoe Print&quot;" font-size="14.5833" lengthAdjust="spacing" textLength="38.5417" x="44.7917" y="134.6792">left_2</text><path d="M156.25,138.1185 L156.25,138.3131 L154.1667,137.7349 L152.0833,138.2975 L150,138.4886 L147.9167,137.4579 L145.8333,138.1185 L145.8333,138.1185 L145.8239,138.0838 L142.6566,137.0791 L139.5368,136.2496 L136.4501,135.5417 L133.2494,134.4144 L130.2083,133.8745 L130.2755,134.1219 L127.0068,132.7441 L123.9343,132.0886 L120.8858,131.5211 L117.6979,130.441 L114.5833,129.6305 L114.5833,129.6937 L112.5,129.601 L110.4167,129.7958 L108.3333,129.852 L106.25,130.1728 L104.1667,129.6305 " fill="none" style="stroke:#333333;stroke-width:3.125;"/><polygon fill="url(#gh3ofzo7dk70e0)" points="14.5833,179.7852,14.5833,180.0041,25.2604,179.3536,35.9375,179.9865,46.6146,180.2015,57.2917,179.042,67.9688,179.7042,78.6458,179.3409,89.3229,179.3857,100,179.7852,99.9909,179.7633,100.4974,179.8074,101.2521,180.4509,101.684,180.3152,102.3307,180.698,102.9463,181.0055,103.0848,181.0629,103.1628,181.5834,103.4563,182.1931,103.6683,182.7691,103.9799,183.3863,104.1667,183.9518,104.4158,183.9518,104.7768,195.166,104.8657,206.3802,104.8742,217.5944,104.4319,228.8086,104.6496,240.0228,104.1667,251.237,104.3919,251.3303,103.6912,251.7304,103.8962,252.5056,103.3393,252.9653,103.3616,253.6649,102.9463,254.1833,102.8805,254.0245,102.3479,254.4054,101.8663,254.9093,101.172,254.8999,100.6032,255.1933,100,255.4036,100,255.7564,89.3229,255.8372,78.6458,255.3996,67.9688,255.7028,57.2917,254.8074,46.6146,255.6999,35.9375,255.9747,25.2604,255.8667,14.5833,255.4036,14.6648,255.6003,13.9299,255.0046,13.3182,254.7063,12.733,254.4721,12.2185,254.4084,11.6371,254.1833,11.574,254.1571,11.6116,253.6845,11.0929,252.9815,10.7948,252.3699,10.734,251.8566,10.4167,251.237,9.722,251.237,9.8759,240.0228,11.0927,228.8086,10.8705,217.5944,11.1818,206.3802,10.0815,195.166,10.4167,183.9518,10.5191,183.9942,10.8501,183.441,10.7533,182.7105,11.1181,182.1713,11.4334,181.6115,11.6371,181.0055,11.7237,181.2146,12.2258,180.7601,12.877,180.6658,13.3312,180.0957,13.9041,179.812,14.5833,179.7852" style="stroke:#2E2E2E;stroke-width:1.0416666666666667;"/><text fill="#FFFFFF" font-family="&quot;Segoe Print&quot;" font-size="14.5833" lengthAdjust="spacing" textLength="52.0833" x="31.25" y="214.1551">left_3.1</text><text fill="#FFFFFF" font-family="&quot;Segoe Print&quot;" font-size="14.5833" lengthAdjust="spacing" textLength="52.0833" x="31.25" y="231.131">left_3.2</text><path d="M156.25,138.1185 L156.25,138.3131 L154.1667,137.7349 L152.0833,138.2975 L150,138.4886 L147.9167,137.4579 L145.8333,138.1185 L145.8333,138.1185 L145.8045,138.097 L143.8197,140.4839 L141.9802,142.9795 L140.2416,145.5505 L138.155,147.8614 L136.556,150.5366 L136.8038,150.602 L135.6025,153.0079 L135.1247,155.6047 L134.7352,158.2247 L133.832,160.7093 L133.1991,163.2652 L133.23,163.2715 L132.5864,166.1805 L132.0837,169.1183 L131.5131,172.0422 L131.0721,174.9926 L130.2083,177.8564 L130.5127,177.9188 L129.9183,180.8378 L129.1275,183.7166 L128.6242,186.6543 L128.1342,189.5947 L127.2176,192.4477 L126.8948,192.3626 L126.85,195.0735 L125.7421,197.5041 L125.4424,200.1479 L124.3105,202.5721 L123.8607,205.1763 L123.8353,205.1573 L122.2803,207.8654 L120.1317,210.13 L118.3333,212.6563 L116.5644,215.2046 L114.5833,217.5944 L114.5833,217.9798 L112.5,217.5908 L110.4167,217.8603 L108.3333,217.0644 L106.25,217.8577 L104.1667,217.5944 " fill="none" style="stroke:#333333;stroke-width:3.125;"/></g></svg>