<?xml version="1.0" encoding="UTF-8" standalone="no"?><svg xmlns="http://www.w3.org/2000/svg" xmlns:xlink="http://www.w3.org/1999/xlink" contentStyleType="text/css" height="187.5px" preserveAspectRatio="none" style="width:926px;height:187px;" version="1.1" viewBox="0 0 926 187" width="926.0417px" zoomAndPan="magnify"><defs><linearGradient id="g1qa56wln7662m0" x1="50%" x2="50%" y1="0%" y2="100%"><stop offset="0%" stop-color="#D3F198"/><stop offset="100%" stop-color="#B5E853"/></linearGradient></defs><g><rect fill="url(#g1qa56wln7662m0)" height="50.651" rx="20.8333" ry="20.8333" style="stroke:#D3F198;stroke-width:1.0416666666666667;" width="122.9167" x="313.5417" y="67.4561"/><text fill="#6A9FB5" font-family="&quot;Verdana&quot;" font-size="16.6667" font-weight="bold" lengthAdjust="spacing" textLength="91.6667" x="329.1667" y="98.5514">root node</text><rect fill="url(#g1qa56wln7662m0)" height="27.3926" rx="20.8333" ry="20.8333" style="stroke:#D3F198;stroke-width:1.0416666666666667;" width="184.375" x="488.5417" y="64.3473"/><text fill="#151515" font-family="&quot;Verdana&quot;" font-size="14.5833" font-weight="bold" lengthAdjust="spacing" textLength="173.9583" x="493.75" y="83.0922">some first level node</text><text fill="#151515" font-family="&quot;Verdana&quot;" font-size="12.5" lengthAdjust="spacing" textLength="118.75" x="733.3333" y="28.2694">second level node</text><path d="M672.9167,78.0436 L683.3333,78.0436 C698.9583,78.0436 698.9583,23.9421 714.5833,23.9421 L725,23.9421 " fill="none" style="stroke:#B5E853;stroke-width:3.125;"/><text fill="#151515" font-family="&quot;Verdana&quot;" font-size="12.5" lengthAdjust="spacing" textLength="175" x="733.3333" y="55.3202">another second level node</text><path d="M672.9167,78.0436 L683.3333,78.0436 C698.9583,78.0436 698.9583,50.9928 714.5833,50.9928 L725,50.9928 " fill="none" style="stroke:#B5E853;stroke-width:3.125;"/><text fill="#151515" font-family="&quot;Verdana&quot;" font-size="12.5" lengthAdjust="spacing" textLength="20.8333" x="733.3333" y="82.371">foo</text><path d="M672.9167,78.0436 L683.3333,78.0436 C698.9583,78.0436 698.9583,78.0436 714.5833,78.0436 L725,78.0436 " fill="none" style="stroke:#B5E853;stroke-width:3.125;"/><text fill="#151515" font-family="&quot;Verdana&quot;" font-size="12.5" lengthAdjust="spacing" textLength="21.875" x="733.3333" y="109.4218">bar</text><path d="M672.9167,78.0436 L683.3333,78.0436 C698.9583,78.0436 698.9583,105.0944 714.5833,105.0944 L725,105.0944 " fill="none" style="stroke:#B5E853;stroke-width:3.125;"/><text fill="#151515" font-family="&quot;Verdana&quot;" font-size="12.5" lengthAdjust="spacing" textLength="42.7083" x="733.3333" y="136.4726">foobar</text><path d="M672.9167,78.0436 L683.3333,78.0436 C698.9583,78.0436 698.9583,132.1452 714.5833,132.1452 L725,132.1452 " fill="none" style="stroke:#B5E853;stroke-width:3.125;"/><path d="M436.4583,92.7816 L446.875,92.7816 C462.5,92.7816 462.5,78.0436 478.125,78.0436 L488.5417,78.0436 " fill="none" style="stroke:#B5E853;stroke-width:3.125;"/><text fill="#151515" font-family="&quot;Verdana&quot;" font-size="14.5833" font-weight="bold" lengthAdjust="spacing" textLength="193.75" x="496.875" y="165.4572">another first level node</text><path d="M436.4583,92.7816 L446.875,92.7816 C462.5,92.7816 462.5,160.4085 478.125,160.4085 L488.5417,160.4085 " fill="none" style="stroke:#B5E853;stroke-width:3.125;"/><rect fill="url(#g1qa56wln7662m0)" height="27.3926" rx="20.8333" ry="20.8333" style="stroke:#D3F198;stroke-width:1.0416666666666667;" width="228.125" x="33.3333" y="64.3473"/><text fill="#151515" font-family="&quot;Verdana&quot;" font-size="14.5833" font-weight="bold" lengthAdjust="spacing" textLength="217.7083" x="38.5417" y="83.0922">some first right level node</text><path d="M313.5417,92.7816 L303.125,92.7816 C287.5,92.7816 287.5,78.0436 271.875,78.0436 L261.4583,78.0436 " fill="none" style="stroke:#B5E853;stroke-width:3.125;"/><text fill="#151515" font-family="&quot;Verdana&quot;" font-size="14.5833" font-weight="bold" lengthAdjust="spacing" textLength="237.5" x="15.625" y="121.9432">another first right level node</text><path d="M313.5417,92.7816 L303.125,92.7816 C287.5,92.7816 287.5,116.8945 271.875,116.8945 L261.4583,116.8945 " fill="none" style="stroke:#B5E853;stroke-width:3.125;"/></g></svg>