<?xml version="1.0" encoding="UTF-8" standalone="no"?><svg xmlns="http://www.w3.org/2000/svg" xmlns:xlink="http://www.w3.org/1999/xlink" contentScriptType="application/ecmascript" contentStyleType="text/css" height="278.125px" preserveAspectRatio="none" style="width:395px;height:278px;background:#00000000;" version="1.1" viewBox="0 0 395 278" width="395.8333px" zoomAndPan="magnify"><defs/><g><rect height="58.6426" rx="4.1667" ry="4.1667" style="stroke:#3A3A3A;stroke-width:1.0416666666666667;fill:none;" width="70.8333" x="156.25" y="108.7972"/><text fill="#FFF200" font-family="&quot;Verdana&quot;" font-size="14.5833" lengthAdjust="spacing" textLength="29.1667" x="177.0833" y="143.1671">root</text><rect height="75.6185" rx="4.1667" ry="4.1667" style="stroke:#3A3A3A;stroke-width:1.0416666666666667;fill:none;" width="104.1667" x="279.1667" y="60.5713"/><text fill="#FFF200" font-family="&quot;Verdana&quot;" font-size="14.5833" lengthAdjust="spacing" textLength="62.5" x="300" y="94.9412">right_1.1</text><text fill="#FFF200" font-family="&quot;Verdana&quot;" font-size="14.5833" lengthAdjust="spacing" textLength="62.5" x="300" y="111.9171">right_1.2</text><path d="M227.0833,138.1185 L237.5,138.1185 C253.125,138.1185 253.125,98.3805 268.75,98.3805 L279.1667,98.3805 " fill="none" style="stroke:#303030;stroke-width:3.125;"/><rect height="58.6426" rx="4.1667" ry="4.1667" style="stroke:#3A3A3A;stroke-width:1.0416666666666667;fill:none;" width="90.625" x="279.1667" y="157.0231"/><text fill="#FFF200" font-family="&quot;Verdana&quot;" font-size="14.5833" lengthAdjust="spacing" textLength="48.9583" x="300" y="191.393">right_2</text><path d="M227.0833,138.1185 L237.5,138.1185 C253.125,138.1185 253.125,186.3444 268.75,186.3444 L279.1667,186.3444 " fill="none" style="stroke:#303030;stroke-width:3.125;"/><rect height="58.6426" rx="4.1667" ry="4.1667" style="stroke:#3A3A3A;stroke-width:1.0416666666666667;fill:none;" width="80.2083" x="23.9583" y="20.8333"/><text fill="#FFF200" font-family="&quot;Verdana&quot;" font-size="14.5833" lengthAdjust="spacing" textLength="38.5417" x="44.7917" y="55.2032">left_1</text><path d="M156.25,138.1185 L145.8333,138.1185 C130.2083,138.1185 130.2083,50.1546 114.5833,50.1546 L104.1667,50.1546 " fill="none" style="stroke:#303030;stroke-width:3.125;"/><rect height="58.6426" rx="4.1667" ry="4.1667" style="stroke:#3A3A3A;stroke-width:1.0416666666666667;fill:none;" width="80.2083" x="23.9583" y="100.3092"/><text fill="#FFF200" font-family="&quot;Verdana&quot;" font-size="14.5833" lengthAdjust="spacing" textLength="38.5417" x="44.7917" y="134.6792">left_2</text><path d="M156.25,138.1185 L145.8333,138.1185 C130.2083,138.1185 130.2083,129.6305 114.5833,129.6305 L104.1667,129.6305 " fill="none" style="stroke:#303030;stroke-width:3.125;"/><rect height="75.6185" rx="4.1667" ry="4.1667" style="stroke:#3A3A3A;stroke-width:1.0416666666666667;fill:none;" width="93.75" x="10.4167" y="179.7852"/><text fill="#FFF200" font-family="&quot;Verdana&quot;" font-size="14.5833" lengthAdjust="spacing" textLength="52.0833" x="31.25" y="214.1551">left_3.1</text><text fill="#FFF200" font-family="&quot;Verdana&quot;" font-size="14.5833" lengthAdjust="spacing" textLength="52.0833" x="31.25" y="231.131">left_3.2</text><path d="M156.25,138.1185 L145.8333,138.1185 C130.2083,138.1185 130.2083,217.5944 114.5833,217.5944 L104.1667,217.5944 " fill="none" style="stroke:#303030;stroke-width:3.125;"/></g></svg>