<?xml version="1.0" encoding="UTF-8" standalone="no"?><svg xmlns="http://www.w3.org/2000/svg" xmlns:xlink="http://www.w3.org/1999/xlink" contentScriptType="application/ecmascript" contentStyleType="text/css" height="236.4583px" preserveAspectRatio="none" style="width:353px;height:236px;background:#00000000;" version="1.1" viewBox="0 0 353 236" width="353.125px" zoomAndPan="magnify"><defs/><g><polygon fill="#474747" points="154.6875,94.7428,154.6875,94.8158,161.1458,94.599,167.6042,94.81,174.0625,94.8816,180.5208,94.4951,186.9792,94.7428,186.9688,94.7179,188.7639,95.3688,190.6111,96.1453,192.4944,97.0092,194.253,97.572,196.1863,98.5566,196.3639,98.6301,196.7468,100.3142,197.6483,102.2131,198.6131,104.1382,199.2097,105.9109,200,107.7637,200.0237,107.7637,199.9889,111.7155,200.062,115.6673,200.083,119.6191,200.2034,123.571,200,127.5228,200.2153,127.612,199.4552,129.4545,198.5562,131.2395,197.8605,133.1087,197.1743,134.9818,196.1863,136.7299,196.0905,136.4986,194.435,137.7103,192.464,138.1603,190.7329,139.1894,188.7548,139.6221,186.9792,140.5436,186.9792,140.5198,180.5208,140.8011,174.0625,140.5267,167.6042,140.5802,161.1458,140.6612,154.6875,140.5436,154.7428,140.6771,152.8456,139.7796,151.0428,139.1103,149.0872,138.0718,147.3596,137.5839,145.4804,136.7299,145.6562,136.8027,144.8602,134.9475,144.1515,133.1285,143.0372,131.1414,142.2202,129.2776,141.6667,127.5228,141.4509,127.5228,141.6462,123.571,141.5984,119.6191,141.9033,115.6673,141.606,111.7155,141.6667,107.7637,141.5566,107.7181,142.5026,105.9526,142.9782,103.9922,143.7884,102.1704,144.9258,100.4842,145.4804,98.5566,145.5383,98.6963,147.4194,98.0294,149.1205,96.9278,151.0471,96.3707,152.9245,95.695,154.6875,94.7428" style="stroke:#333333;stroke-width:1.5625;"/><text fill="#FFFFFF" font-family="Segoe Print" font-size="12.5" lengthAdjust="spacing" textLength="27.0833" x="157.2917" y="121.9706">root</text><polygon fill="#474747" points="265.1042,54.1504,265.1042,54.3693,275.5208,53.7188,285.9375,54.3517,296.3542,54.5667,306.7708,53.4073,317.1875,54.0694,327.6042,54.1504,327.5475,54.0136,329.3946,54.7901,331.278,55.654,333.0366,56.2168,335.0434,57.379,336.8113,57.9641,336.6091,57.8804,337.5106,59.7792,338.4753,61.7043,339.072,63.477,339.8841,65.3389,340.625,67.1712,340.6139,67.1712,340.687,74.0332,340.708,80.8952,340.8284,87.7572,340.858,94.6191,340.625,101.4811,340.8429,101.5714,339.9439,103.3564,339.2482,105.2256,338.562,107.0987,337.3427,108.751,336.8113,110.6882,336.9014,110.9059,334.9305,111.3559,333.1994,112.385,331.2212,112.8177,329.4365,113.7172,327.6042,114.502,327.6042,115.2745,317.1875,114.4512,306.7708,114.6116,296.3542,114.8547,285.9375,114.9355,275.5208,114.4979,265.1042,114.502,265.1423,114.5941,263.1867,113.5556,261.4591,113.0677,259.6527,112.3896,257.7975,111.5936,255.897,110.6882,256.0937,110.7697,254.9793,108.7826,254.1623,106.9187,253.4095,105.0814,252.8272,103.3147,252.0833,101.4811,252.0151,101.4811,252.3199,94.6191,252.0227,87.7572,251.9642,80.8952,252.1626,74.0332,252.0833,67.1712,251.8694,67.0826,252.6795,65.2608,253.817,63.5746,254.5113,61.7048,255.3699,59.9031,255.897,57.9641,255.8543,57.8609,257.7809,57.3038,259.6583,56.628,261.3585,55.5243,263.25,54.8824,265.1042,54.1504" style="stroke:#333333;stroke-width:1.5625;"/><text fill="#FFFFFF" font-family="Segoe Print" font-size="12.5" lengthAdjust="spacing" textLength="57.2917" x="267.7083" y="81.3782">right_1.1</text><text fill="#FFFFFF" font-family="Segoe Print" font-size="12.5" lengthAdjust="spacing" textLength="57.2917" x="267.7083" y="95.929">right_1.2</text><path d="M200,117.6432 L200,117.8378 L202.0833,117.2596 L204.1667,117.8222 L206.25,118.0133 L208.3333,116.9827 L210.4167,117.6432 L210.4167,117.6432 L210.3991,117.6119 L212.1755,116.4299 L214.0407,115.4061 L215.9676,114.4922 L217.6819,113.1995 L219.694,112.4374 L219.9182,112.5617 L220.7083,110.0054 L222.153,107.812 L223.6775,105.6627 L224.7374,103.256 L226.0417,100.9847 L226.0693,101 L227.2983,98.687 L228.653,96.4437 L229.9471,94.1667 L231.357,91.954 L232.3893,89.532 L232.5414,89.8029 L234.3987,88.765 L236.1579,87.5524 L238.0608,86.5957 L239.9703,85.6509 L241.6667,84.3262 L241.6667,83.6584 L243.75,84.9544 L245.8333,84.0516 L247.9167,84.8204 L250,83.8678 L252.0833,84.3262 " fill="none" style="stroke:#A80036;stroke-width:1.0416666666666667;"/><polygon fill="#474747" points="265.1042,135.3353,265.1042,135.5542,275.1042,134.9037,285.1042,135.5366,295.1042,135.7516,305.1042,134.5922,315.1042,135.3353,315.0938,135.3104,316.8889,135.9612,318.7361,136.7377,320.6194,137.6017,322.378,138.1645,324.3113,139.149,324.4889,139.2226,324.8718,140.9067,325.7733,142.8056,326.7381,144.7307,327.3347,146.5033,328.125,148.3561,328.1487,148.3561,328.1139,152.3079,328.187,156.2598,328.208,160.2116,328.3284,164.1634,328.125,168.1152,328.3403,168.2044,327.5802,170.0469,326.6812,171.8319,325.9855,173.7011,325.2993,175.5742,324.3113,177.3224,324.2155,177.091,322.56,178.3028,320.589,178.7527,318.8579,179.7818,316.8798,180.2145,315.1042,181.1361,315.1042,181.0647,305.1042,181.9086,295.1042,181.0853,285.1042,181.2458,275.1042,181.4888,265.1042,181.1361,265.1595,181.2696,263.2622,180.3721,261.4595,179.7027,259.5038,178.6642,257.7763,178.1763,255.897,177.3224,256.0729,177.3952,255.2769,175.54,254.5682,173.721,253.4539,171.7339,252.6369,169.87,252.0833,168.1152,251.8676,168.1152,252.0629,164.1634,252.0151,160.2116,252.3199,156.2598,252.0227,152.3079,252.0833,148.3561,251.9733,148.3105,252.9193,146.545,253.3949,144.5847,254.205,142.7629,255.3425,141.0767,255.897,139.149,255.9549,139.2888,257.8361,138.6219,259.5371,137.5203,261.4637,136.9632,263.3412,136.2874,265.1042,135.3353" style="stroke:#333333;stroke-width:1.5625;"/><text fill="#FFFFFF" font-family="Segoe Print" font-size="12.5" lengthAdjust="spacing" textLength="44.7917" x="267.7083" y="162.5631">right_2</text><path d="M200,117.6432 L200,117.8378 L202.0833,117.2596 L204.1667,117.8222 L206.25,118.0133 L208.3333,116.9827 L210.4167,117.6432 L210.4167,117.6432 L210.3964,117.6135 L212.1607,118.7487 L214.0274,120.0337 L215.9653,121.4227 L217.6579,122.4531 L219.694,123.9858 L219.9273,124.0919 L220.6979,126.6557 L222.1497,129.5293 L223.6846,132.4408 L224.736,135.1323 L226.0417,137.9395 L226.0704,137.9525 L227.2977,140.7241 L228.656,143.5551 L229.951,146.3575 L231.3666,149.2147 L232.3893,151.8931 L232.5647,152.1496 L234.4223,153.4212 L236.1668,154.5274 L238.0769,155.8758 L239.9947,157.2355 L241.6667,158.2357 L241.6667,157.5679 L243.75,158.8639 L245.8333,157.9611 L247.9167,158.7299 L250,157.7773 L252.0833,158.2357 " fill="none" style="stroke:#A80036;stroke-width:1.0416666666666667;"/><polygon fill="#474747" points="35.9375,20.8333,35.9375,20.9063,44.0625,20.6895,52.1875,20.9004,60.3125,20.9721,68.4375,20.5856,76.5625,20.8333,76.5522,20.8084,78.3473,21.4593,80.1944,22.2358,82.0777,23.0997,83.8363,23.6625,85.7696,24.647,85.9472,24.7206,86.3302,26.4047,87.2317,28.3036,88.1964,30.2287,88.7931,32.0013,89.5833,33.8542,89.607,33.8542,89.5722,37.806,89.6453,41.7578,89.6664,45.7096,89.7867,49.6615,89.5833,53.6133,89.7986,53.7024,89.0385,55.545,88.1395,57.33,87.4438,59.1992,86.7576,61.0723,85.7696,62.8204,85.6738,62.5891,84.0184,63.8008,82.0474,64.2508,80.3163,65.2799,78.3381,65.7126,76.5625,66.6341,76.5625,66.6103,68.4375,66.8916,60.3125,66.6172,52.1875,66.6707,44.0625,66.7517,35.9375,66.6341,35.9928,66.7676,34.0956,65.8701,32.2928,65.2008,30.3372,64.1623,28.6096,63.6744,26.7304,62.8204,26.9062,62.8932,26.1102,61.038,25.4015,59.219,24.2872,57.2319,23.4702,55.368,22.9167,53.6133,22.7009,53.6133,22.8962,49.6615,22.8484,45.7096,23.1533,41.7578,22.856,37.806,22.9167,33.8542,22.8066,33.8086,23.7526,32.0431,24.2282,30.0827,25.0384,28.2609,26.1758,26.5747,26.7304,24.647,26.7883,24.7868,28.6694,24.1199,30.3705,23.0183,32.2971,22.4612,34.1745,21.7855,35.9375,20.8333" style="stroke:#333333;stroke-width:1.5625;"/><text fill="#FFFFFF" font-family="Segoe Print" font-size="12.5" lengthAdjust="spacing" textLength="35.4167" x="38.5417" y="48.0611">left_1</text><path d="M141.6667,117.6432 L141.6667,117.8378 L139.5833,117.2596 L137.5,117.8222 L135.4167,118.0133 L133.3333,116.9827 L131.25,117.6432 L131.25,117.6432 L131.222,117.6207 L129.2406,115.2099 L127.4006,112.9127 L125.659,110.6945 L123.5786,108.2041 L121.9727,106.0949 L122.2192,106.1648 L121.0205,103.6478 L120.5418,101.3351 L120.1509,99.0472 L119.2489,96.6144 L118.6157,94.2578 L118.6466,94.2646 L118.0031,91.5408 L117.5001,88.8479 L116.9294,86.14 L116.4879,83.4607 L115.625,80.6885 L115.9284,80.7553 L115.334,78.0423 L114.5438,75.2861 L114.0402,72.5931 L113.5499,69.903 L112.6343,67.1192 L112.3131,67.0281 L112.2651,64.8374 L111.1594,62.3469 L110.8579,60.0843 L109.7282,57.587 L109.2773,55.2821 L109.2526,55.2622 L107.6895,53.1874 L105.5488,50.6486 L103.7489,48.3836 L101.9777,46.1416 L100,43.7337 L100,44.1191 L97.9167,43.7301 L95.8333,43.9997 L93.75,43.2037 L91.6667,43.997 L89.5833,43.7337 " fill="none" style="stroke:#A80036;stroke-width:1.0416666666666667;"/><polygon fill="#474747" points="35.9375,87.4674,35.9375,87.5404,44.0625,87.3236,52.1875,87.5346,60.3125,87.6062,68.4375,87.2197,76.5625,87.4674,76.5522,87.4425,78.3473,88.0934,80.1944,88.8699,82.0777,89.7338,83.8363,90.2966,85.7696,91.2812,85.9472,91.3547,86.3302,93.0388,87.2317,94.9377,88.1964,96.8628,88.7931,98.6355,89.5833,100.4883,89.607,100.4883,89.5722,104.4401,89.6453,108.3919,89.6664,112.3438,89.7867,116.2956,89.5833,120.2474,89.7986,120.3366,89.0385,122.1791,88.1395,123.9641,87.4438,125.8333,86.7576,127.7064,85.7696,129.4545,85.6738,129.2232,84.0184,130.4349,82.0474,130.8849,80.3163,131.914,78.3381,132.3467,76.5625,133.2682,76.5625,133.2444,68.4375,133.5257,60.3125,133.2513,52.1875,133.3048,44.0625,133.3858,35.9375,133.2682,35.9928,133.4018,34.0956,132.5042,32.2928,131.8349,30.3372,130.7964,28.6096,130.3085,26.7304,129.4545,26.9062,129.5274,26.1102,127.6722,25.4015,125.8531,24.2872,123.8661,23.4702,122.0022,22.9167,120.2474,22.7009,120.2474,22.8962,116.2956,22.8484,112.3438,23.1533,108.3919,22.856,104.4401,22.9167,100.4883,22.8066,100.4427,23.7526,98.6772,24.2282,96.7168,25.0384,94.895,26.1758,93.2088,26.7304,91.2812,26.7883,91.4209,28.6694,90.754,30.3705,89.6524,32.2971,89.0953,34.1745,88.4196,35.9375,87.4674" style="stroke:#333333;stroke-width:1.5625;"/><text fill="#FFFFFF" font-family="Segoe Print" font-size="12.5" lengthAdjust="spacing" textLength="35.4167" x="38.5417" y="114.6952">left_2</text><path d="M141.6667,117.6432 L141.6667,117.8378 L139.5833,117.2596 L137.5,117.8222 L135.4167,118.0133 L133.3333,116.9827 L131.25,117.6432 L131.25,117.6432 L131.2418,117.6082 L128.0802,116.7234 L124.9597,116.0152 L121.8678,115.4299 L118.6774,114.4213 L115.625,114.0055 L115.6831,114.2552 L112.4338,112.9938 L109.3542,112.4613 L106.2953,112.0177 L103.116,111.0567 L100,110.3678 L100,110.431 L97.9167,110.3383 L95.8333,110.5331 L93.75,110.5893 L91.6667,110.9101 L89.5833,110.3678 " fill="none" style="stroke:#A80036;stroke-width:1.0416666666666667;"/><polygon fill="#474747" points="23.4375,154.1016,23.4375,154.3205,34.0625,153.67,44.6875,154.3029,55.3125,154.5179,65.9375,153.3584,76.5625,154.1016,76.5522,154.0766,78.3473,154.7275,80.1944,155.504,82.0777,156.3679,83.8363,156.9307,85.7696,157.9153,85.9472,157.9888,86.3302,159.673,87.2317,161.5718,88.1964,163.4969,88.7931,165.2696,89.5833,167.1224,89.607,167.1224,89.5722,173.9844,89.6453,180.8464,89.6664,187.7083,89.7867,194.5703,89.5833,201.4323,89.7986,201.5215,89.0385,203.364,88.1395,205.149,87.4438,207.0182,86.7576,208.8913,85.7696,210.6394,85.6738,210.4081,84.0184,211.6198,82.0474,212.0698,80.3163,213.0989,78.3381,213.5316,76.5625,214.4531,76.5625,214.3818,65.9375,215.2256,55.3125,214.4024,44.6875,214.5628,34.0625,214.8059,23.4375,214.4531,23.4928,214.5866,21.5956,213.6891,19.7928,213.0198,17.8372,211.9813,16.1096,211.4934,14.2304,210.6394,14.4062,210.7123,13.6102,208.8571,12.9015,207.038,11.7872,205.0509,10.9702,203.1871,10.4167,201.4323,10.2009,201.4323,10.3962,194.5703,10.3484,187.7083,10.6533,180.8464,10.356,173.9844,10.4167,167.1224,10.3066,167.0768,11.2526,165.3113,11.7282,163.3509,12.5384,161.5291,13.6758,159.8429,14.2304,157.9153,14.2883,158.055,16.1694,157.3882,17.8705,156.2866,19.7971,155.7294,21.6745,155.0537,23.4375,154.1016" style="stroke:#333333;stroke-width:1.5625;"/><text fill="#FFFFFF" font-family="Segoe Print" font-size="12.5" lengthAdjust="spacing" textLength="47.9167" x="26.0417" y="181.3293">left_3.1</text><text fill="#FFFFFF" font-family="Segoe Print" font-size="12.5" lengthAdjust="spacing" textLength="47.9167" x="26.0417" y="195.8801">left_3.2</text><path d="M141.6667,117.6432 L141.6667,117.8378 L139.5833,117.2596 L137.5,117.8222 L135.4167,118.0133 L133.3333,116.9827 L131.25,117.6432 L131.25,117.6432 L131.2231,117.6193 L129.2471,119.5942 L127.4065,121.6897 L125.66,123.8692 L123.5892,125.7596 L121.9727,128.0548 L122.2172,128.1317 L121.0229,130.1016 L120.5425,132.2961 L120.1493,134.5179 L119.2492,136.5804 L118.6157,138.7267 L118.6464,138.7342 L118.0032,141.1699 L117.4997,143.6397 L116.9288,146.0931 L116.4865,148.578 L115.625,150.9603 L115.9268,151.0341 L115.3323,153.4817 L114.5432,155.8817 L114.039,158.3514 L113.5482,160.8244 L112.6343,163.1939 L112.3158,163.0937 L112.2625,165.4225 L111.1606,167.4215 L110.8559,169.6712 L109.7301,171.6626 L109.2773,173.8658 L109.2537,173.8447 L107.6782,176.1765 L105.5496,178.0154 L103.7473,180.1451 L101.9725,182.2993 L100,184.2773 L100,184.6627 L97.9167,184.2737 L95.8333,184.5433 L93.75,183.7473 L91.6667,184.5407 L89.5833,184.2773 " fill="none" style="stroke:#A80036;stroke-width:1.0416666666666667;"/></g></svg>