<?xml version="1.0" encoding="UTF-8" standalone="no"?><svg xmlns="http://www.w3.org/2000/svg" xmlns:xlink="http://www.w3.org/1999/xlink" contentStyleType="text/css" height="209.375px" preserveAspectRatio="none" style="width:851px;height:209px;" version="1.1" viewBox="0 0 851 209" width="851.0417px" zoomAndPan="magnify"><defs><linearGradient id="g1k7cvtoppr6rm0" x1="50%" x2="50%" y1="0%" y2="100%"><stop offset="0%" stop-color="#FFFFFF"/><stop offset="100%" stop-color="#FFFFFF"/></linearGradient><filter height="300%" id="f1k7cvtoppr6rm" width="300%" x="-1" y="-1"><feGaussianBlur result="blurOut" stdDeviation="2.0833333333333335"/><feColorMatrix in="blurOut" result="blurOut2" type="matrix" values="0 0 0 0 0 0 0 0 0 0 0 0 0 0 0 0 0 0 .4 0"/><feOffset dx="4.166666666666667" dy="4.166666666666667" in="blurOut2" result="blurOut3"/><feBlend in="SourceGraphic" in2="blurOut3" mode="normal"/></filter></defs><g><rect fill="url(#g1k7cvtoppr6rm0)" filter="url(#f1k7cvtoppr6rm)" height="45.8008" rx="4.1667" ry="4.1667" style="stroke:#222222;stroke-width:1.0416666666666667;" width="95.8333" x="272.9167" y="81.1849"/><text fill="#222222" font-family="Verdana" font-size="12.5" lengthAdjust="spacing" textLength="64.5833" x="288.5417" y="108.4127">root node</text><rect fill="url(#g1k7cvtoppr6rm0)" filter="url(#f1k7cvtoppr6rm)" height="45.8008" rx="4.1667" ry="4.1667" style="stroke:#222222;stroke-width:1.0416666666666667;" width="166.6667" x="420.8333" y="81.1849"/><text fill="#222222" font-family="Verdana" font-size="12.5" lengthAdjust="spacing" textLength="135.4167" x="436.4583" y="108.4127">some first level node</text><text fill="#222222" font-family="Verdana" font-size="12.5" lengthAdjust="spacing" textLength="118.75" x="653.125" y="33.4778">second level node</text><path d="M587.5,104.0853 L597.9167,104.0853 C613.5417,104.0853 613.5417,29.1504 629.1667,29.1504 L639.5833,29.1504 " fill="none" style="stroke:#2196F3;stroke-width:3.125;"/><text fill="#222222" font-family="Verdana" font-size="12.5" lengthAdjust="spacing" textLength="175" x="653.125" y="70.9452">another second level node</text><path d="M587.5,104.0853 L597.9167,104.0853 C613.5417,104.0853 613.5417,66.6178 629.1667,66.6178 L639.5833,66.6178 " fill="none" style="stroke:#2196F3;stroke-width:3.125;"/><text fill="#222222" font-family="Verdana" font-size="12.5" lengthAdjust="spacing" textLength="20.8333" x="653.125" y="108.4127">foo</text><path d="M587.5,104.0853 L597.9167,104.0853 C613.5417,104.0853 613.5417,104.0853 629.1667,104.0853 L639.5833,104.0853 " fill="none" style="stroke:#2196F3;stroke-width:3.125;"/><text fill="#222222" font-family="Verdana" font-size="12.5" lengthAdjust="spacing" textLength="21.875" x="653.125" y="145.8801">bar</text><path d="M587.5,104.0853 L597.9167,104.0853 C613.5417,104.0853 613.5417,141.5527 629.1667,141.5527 L639.5833,141.5527 " fill="none" style="stroke:#2196F3;stroke-width:3.125;"/><text fill="#222222" font-family="Verdana" font-size="12.5" lengthAdjust="spacing" textLength="42.7083" x="653.125" y="183.3476">foobar</text><path d="M587.5,104.0853 L597.9167,104.0853 C613.5417,104.0853 613.5417,179.0202 629.1667,179.0202 L639.5833,179.0202 " fill="none" style="stroke:#2196F3;stroke-width:3.125;"/><path d="M368.75,104.0853 L379.1667,104.0853 C394.7917,104.0853 394.7917,104.0853 410.4167,104.0853 L420.8333,104.0853 " fill="none" style="stroke:#2196F3;stroke-width:3.125;"/><text fill="#222222" font-family="Verdana" font-size="12.5" lengthAdjust="spacing" textLength="152.0833" x="434.375" y="160.4635">another first level node</text><path d="M368.75,104.0853 L379.1667,104.0853 C394.7917,104.0853 394.7917,156.1361 410.4167,156.1361 L420.8333,156.1361 " fill="none" style="stroke:#2196F3;stroke-width:3.125;"/><rect fill="url(#g1k7cvtoppr6rm0)" filter="url(#f1k7cvtoppr6rm)" height="45.8008" rx="4.1667" ry="4.1667" style="stroke:#222222;stroke-width:1.0416666666666667;" width="201.0417" x="19.7917" y="62.4512"/><text fill="#222222" font-family="Verdana" font-size="12.5" lengthAdjust="spacing" textLength="169.7917" x="35.4167" y="89.679">some first right level node</text><path d="M272.9167,104.0853 L262.5,104.0853 C246.875,104.0853 246.875,85.3516 231.25,85.3516 L220.8333,85.3516 " fill="none" style="stroke:#2196F3;stroke-width:3.125;"/><text fill="#222222" font-family="Verdana" font-size="12.5" lengthAdjust="spacing" textLength="186.4583" x="20.8333" y="141.7297">another first right level node</text><path d="M272.9167,104.0853 L262.5,104.0853 C246.875,104.0853 246.875,137.4023 231.25,137.4023 L220.8333,137.4023 " fill="none" style="stroke:#2196F3;stroke-width:3.125;"/></g></svg>