<?xml version="1.0" encoding="UTF-8" standalone="no"?><svg xmlns="http://www.w3.org/2000/svg" xmlns:xlink="http://www.w3.org/1999/xlink" contentStyleType="text/css" height="286.4583px" preserveAspectRatio="none" style="width:403px;height:286px;background:#00000000;" version="1.1" viewBox="0 0 403 286" width="403.125px" zoomAndPan="magnify"><defs><linearGradient id="gn6ebsss7zp6w0" x1="50%" x2="50%" y1="0%" y2="100%"><stop offset="0%" stop-color="#F5F5F5"/><stop offset="100%" stop-color="#F2F2F2"/></linearGradient></defs><g><rect fill="url(#gn6ebsss7zp6w0)" height="62.4674" rx="10.4167" ry="10.4167" style="stroke:#C2C2C2;stroke-width:1.0416666666666667;" width="75" x="158.3333" y="111.4095"/><text fill="#009FDB" font-family="&quot;Verdana&quot;" font-size="12.5" lengthAdjust="spacing" textLength="27.0833" x="182.2917" y="146.9706">root</text><rect fill="url(#gn6ebsss7zp6w0)" height="77.0182" rx="10.4167" ry="10.4167" style="stroke:#C2C2C2;stroke-width:1.0416666666666667;" width="105.2083" x="285.4167" y="62.4837"/><text fill="#009FDB" font-family="&quot;Verdana&quot;" font-size="12.5" lengthAdjust="spacing" textLength="57.2917" x="309.375" y="98.0448">right_1.1</text><text fill="#009FDB" font-family="&quot;Verdana&quot;" font-size="12.5" lengthAdjust="spacing" textLength="57.2917" x="309.375" y="112.5956">right_1.2</text><path d="M233.3333,142.6432 L243.75,142.6432 C259.375,142.6432 259.375,100.9928 275,100.9928 L285.4167,100.9928 " fill="none" style="stroke:#009FDB;stroke-width:3.125;"/><rect fill="url(#gn6ebsss7zp6w0)" height="62.4674" rx="10.4167" ry="10.4167" style="stroke:#C2C2C2;stroke-width:1.0416666666666667;" width="92.7083" x="285.4167" y="160.3353"/><text fill="#009FDB" font-family="&quot;Verdana&quot;" font-size="12.5" lengthAdjust="spacing" textLength="44.7917" x="309.375" y="195.8964">right_2</text><path d="M233.3333,142.6432 L243.75,142.6432 C259.375,142.6432 259.375,191.569 275,191.569 L285.4167,191.569 " fill="none" style="stroke:#009FDB;stroke-width:3.125;"/><rect fill="url(#gn6ebsss7zp6w0)" height="62.4674" rx="10.4167" ry="10.4167" style="stroke:#C2C2C2;stroke-width:1.0416666666666667;" width="83.3333" x="22.9167" y="20.8333"/><text fill="#009FDB" font-family="&quot;Verdana&quot;" font-size="12.5" lengthAdjust="spacing" textLength="35.4167" x="46.875" y="56.3944">left_1</text><path d="M158.3333,142.6432 L147.9167,142.6432 C132.2917,142.6432 132.2917,52.0671 116.6667,52.0671 L106.25,52.0671 " fill="none" style="stroke:#009FDB;stroke-width:3.125;"/><rect fill="url(#gn6ebsss7zp6w0)" height="62.4674" rx="10.4167" ry="10.4167" style="stroke:#C2C2C2;stroke-width:1.0416666666666667;" width="83.3333" x="22.9167" y="104.1341"/><text fill="#009FDB" font-family="&quot;Verdana&quot;" font-size="12.5" lengthAdjust="spacing" textLength="35.4167" x="46.875" y="139.6952">left_2</text><path d="M158.3333,142.6432 L147.9167,142.6432 C132.2917,142.6432 132.2917,135.3678 116.6667,135.3678 L106.25,135.3678 " fill="none" style="stroke:#009FDB;stroke-width:3.125;"/><rect fill="url(#gn6ebsss7zp6w0)" height="77.0182" rx="10.4167" ry="10.4167" style="stroke:#C2C2C2;stroke-width:1.0416666666666667;" width="95.8333" x="10.4167" y="187.4349"/><text fill="#009FDB" font-family="&quot;Verdana&quot;" font-size="12.5" lengthAdjust="spacing" textLength="47.9167" x="34.375" y="222.996">left_3.1</text><text fill="#009FDB" font-family="&quot;Verdana&quot;" font-size="12.5" lengthAdjust="spacing" textLength="47.9167" x="34.375" y="237.5468">left_3.2</text><path d="M158.3333,142.6432 L147.9167,142.6432 C132.2917,142.6432 132.2917,225.944 116.6667,225.944 L106.25,225.944 " fill="none" style="stroke:#009FDB;stroke-width:3.125;"/></g></svg>