<?xml version="1.0" encoding="UTF-8" standalone="no"?><svg xmlns="http://www.w3.org/2000/svg" xmlns:xlink="http://www.w3.org/1999/xlink" contentScriptType="application/ecmascript" contentStyleType="text/css" height="287.5px" preserveAspectRatio="none" style="width:378px;height:287px;background:#00000000;" version="1.1" viewBox="0 0 378 287" width="378.125px" zoomAndPan="magnify"><defs/><g><rect height="45.0846" rx="4.1667" ry="4.1667" style="stroke:#BABDBF;stroke-width:1.0416666666666667;fill:none;" width="271.875" x="12.5" y="12.5"/><text fill="#2FA4E7" font-family="Verdana" font-size="20.8333" lengthAdjust="spacing" textLength="244.7917" x="26.0417" y="42.2546">cerulean-outline theme</text><rect height="45.8008" rx="13.0208" ry="13.0208" style="stroke:#2FA4E7;stroke-width:1.5625;fill:none;" width="58.3333" x="167.1875" y="145.0358"/><text fill="#2FA4E7" font-family="Verdana" font-size="12.5" lengthAdjust="spacing" textLength="27.0833" x="182.8125" y="172.2636">root</text><rect height="60.3516" rx="13.0208" ry="13.0208" style="stroke:#2FA4E7;stroke-width:1.5625;fill:none;" width="88.5417" x="277.6042" y="104.4434"/><text fill="#2FA4E7" font-family="Verdana" font-size="12.5" lengthAdjust="spacing" textLength="57.2917" x="293.2292" y="131.6711">right_1.1</text><text fill="#2FA4E7" font-family="Verdana" font-size="12.5" lengthAdjust="spacing" textLength="57.2917" x="293.2292" y="146.2219">right_1.2</text><path d="M225.5208,167.9362 L235.9375,167.9362 C251.5625,167.9362 251.5625,134.6191 267.1875,134.6191 L277.6042,134.6191 " fill="none" style="stroke:#A80036;stroke-width:1.0416666666666667;"/><rect height="45.8008" rx="13.0208" ry="13.0208" style="stroke:#2FA4E7;stroke-width:1.5625;fill:none;" width="76.0417" x="277.6042" y="185.6283"/><text fill="#2FA4E7" font-family="Verdana" font-size="12.5" lengthAdjust="spacing" textLength="44.7917" x="293.2292" y="212.856">right_2</text><path d="M225.5208,167.9362 L235.9375,167.9362 C251.5625,167.9362 251.5625,208.5286 267.1875,208.5286 L277.6042,208.5286 " fill="none" style="stroke:#A80036;stroke-width:1.0416666666666667;"/><rect height="45.8008" rx="13.0208" ry="13.0208" style="stroke:#2FA4E7;stroke-width:1.5625;fill:none;" width="66.6667" x="48.4375" y="71.1263"/><text fill="#2FA4E7" font-family="Verdana" font-size="12.5" lengthAdjust="spacing" textLength="35.4167" x="64.0625" y="98.3541">left_1</text><path d="M167.1875,167.9362 L156.7708,167.9362 C141.1458,167.9362 141.1458,94.0267 125.5208,94.0267 L115.1042,94.0267 " fill="none" style="stroke:#A80036;stroke-width:1.0416666666666667;"/><rect height="45.8008" rx="13.0208" ry="13.0208" style="stroke:#2FA4E7;stroke-width:1.5625;fill:none;" width="66.6667" x="48.4375" y="137.7604"/><text fill="#2FA4E7" font-family="Verdana" font-size="12.5" lengthAdjust="spacing" textLength="35.4167" x="64.0625" y="164.9882">left_2</text><path d="M167.1875,167.9362 L156.7708,167.9362 C141.1458,167.9362 141.1458,160.6608 125.5208,160.6608 L115.1042,160.6608 " fill="none" style="stroke:#A80036;stroke-width:1.0416666666666667;"/><rect height="60.3516" rx="13.0208" ry="13.0208" style="stroke:#2FA4E7;stroke-width:1.5625;fill:none;" width="79.1667" x="35.9375" y="204.3945"/><text fill="#2FA4E7" font-family="Verdana" font-size="12.5" lengthAdjust="spacing" textLength="47.9167" x="51.5625" y="231.6223">left_3.1</text><text fill="#2FA4E7" font-family="Verdana" font-size="12.5" lengthAdjust="spacing" textLength="47.9167" x="51.5625" y="246.1731">left_3.2</text><path d="M167.1875,167.9362 L156.7708,167.9362 C141.1458,167.9362 141.1458,234.5703 125.5208,234.5703 L115.1042,234.5703 " fill="none" style="stroke:#A80036;stroke-width:1.0416666666666667;"/></g></svg>