<?xml version="1.0" encoding="UTF-8" standalone="no"?><svg xmlns="http://www.w3.org/2000/svg" xmlns:xlink="http://www.w3.org/1999/xlink" contentScriptType="application/ecmascript" contentStyleType="text/css" height="213px" preserveAspectRatio="none" style="width:307px;height:213px;background:#282828;" version="1.1" viewBox="0 0 307 213" width="307px" zoomAndPan="magnify"><defs/><g><rect fill="#282828" height="35.6094" style="stroke:#282828;stroke-width:0.0;" width="222" x="10" y="10"/><text fill="#FFB000" font-family="Verdana" font-size="22" font-weight="bold" lengthAdjust="spacing" textLength="212" x="15" y="35.4209">crt-amber theme</text><rect fill="#282828" height="36.2969" rx="12.5" ry="12.5" style="stroke:#FFB000;stroke-width:1.0;" width="48" x="132.5" y="111.0547"/><text fill="#FFB000" font-family="Verdana" font-size="14" lengthAdjust="spacing" textLength="28" x="142.5" y="134.0498">root</text><rect fill="#282828" height="52.5938" rx="12.5" ry="12.5" style="stroke:#FFB000;stroke-width:1.0;" width="80" x="220.5" y="79.7578"/><text fill="#FFB000" font-family="Verdana" font-size="14" lengthAdjust="spacing" textLength="60" x="230.5" y="102.7529">right_1.1</text><text fill="#FFB000" font-family="Verdana" font-size="14" lengthAdjust="spacing" textLength="60" x="230.5" y="119.0498">right_1.2</text><path d="M180.5,129.2031 L190.5,129.2031 C205.5,129.2031 195.5,106.0547 210.5,106.0547 L220.5,106.0547 " fill="none" style="stroke:#FFB000;stroke-width:1.0;"/><rect fill="#282828" height="36.2969" rx="12.5" ry="12.5" style="stroke:#FFB000;stroke-width:1.0;" width="67" x="220.5" y="142.3516"/><text fill="#FFB000" font-family="Verdana" font-size="14" lengthAdjust="spacing" textLength="47" x="230.5" y="165.3467">right_2</text><path d="M180.5,129.2031 L190.5,129.2031 C205.5,129.2031 195.5,160.5 210.5,160.5 L220.5,160.5 " fill="none" style="stroke:#FFB000;stroke-width:1.0;"/><rect fill="#282828" height="36.2969" rx="12.5" ry="12.5" style="stroke:#FFB000;stroke-width:1.0;" width="57" x="35.5" y="56.6094"/><text fill="#FFB000" font-family="Verdana" font-size="14" lengthAdjust="spacing" textLength="37" x="45.5" y="79.6045">left_1</text><path d="M132.5,129.2031 L122.5,129.2031 C107.5,129.2031 117.5,74.7578 102.5,74.7578 L92.5,74.7578 " fill="none" style="stroke:#FFB000;stroke-width:1.0;"/><rect fill="#282828" height="36.2969" rx="12.5" ry="12.5" style="stroke:#FFB000;stroke-width:1.0;" width="57" x="35.5" y="102.9063"/><text fill="#FFB000" font-family="Verdana" font-size="14" lengthAdjust="spacing" textLength="37" x="45.5" y="125.9014">left_2</text><path d="M132.5,129.2031 L122.5,129.2031 C107.5,129.2031 117.5,121.0547 102.5,121.0547 L92.5,121.0547 " fill="none" style="stroke:#FFB000;stroke-width:1.0;"/><rect fill="#282828" height="52.5938" rx="12.5" ry="12.5" style="stroke:#FFB000;stroke-width:1.0;" width="70" x="22.5" y="149.2031"/><text fill="#FFB000" font-family="Verdana" font-size="14" lengthAdjust="spacing" textLength="50" x="32.5" y="172.1982">left_3.1</text><text fill="#FFB000" font-family="Verdana" font-size="14" lengthAdjust="spacing" textLength="50" x="32.5" y="188.4951">left_3.2</text><path d="M132.5,129.2031 L122.5,129.2031 C107.5,129.2031 117.5,175.5 102.5,175.5 L92.5,175.5 " fill="none" style="stroke:#FFB000;stroke-width:1.0;"/></g></svg>