<?xml version="1.0" encoding="UTF-8" standalone="no"?><svg xmlns="http://www.w3.org/2000/svg" xmlns:xlink="http://www.w3.org/1999/xlink" contentScriptType="application/ecmascript" contentStyleType="text/css" height="213px" preserveAspectRatio="none" style="width:324px;height:213px;background:#D9D3D0;" version="1.1" viewBox="0 0 324 213" width="324px" zoomAndPan="magnify"><defs/><g><rect fill="#D9D3D0" height="35.6094" style="stroke:#D9D3D0;stroke-width:0.0;" width="256" x="10" y="10"/><text fill="#9275B6" font-family="Verdana" font-size="22" font-weight="bold" lengthAdjust="spacing" textLength="246" x="15" y="35.4209">mimeograph theme</text><rect fill="#D9D3D0" height="36.2969" rx="12.5" ry="12.5" style="stroke:#9275B6;stroke-width:1.0;" width="48" x="149.5" y="111.0547"/><text fill="#9275B6" font-family="Verdana" font-size="14" lengthAdjust="spacing" textLength="28" x="159.5" y="134.0498">root</text><rect fill="#D9D3D0" height="52.5938" rx="12.5" ry="12.5" style="stroke:#9275B6;stroke-width:1.0;" width="80" x="237.5" y="79.7578"/><text fill="#9275B6" font-family="Verdana" font-size="14" lengthAdjust="spacing" textLength="60" x="247.5" y="102.7529">right_1.1</text><text fill="#9275B6" font-family="Verdana" font-size="14" lengthAdjust="spacing" textLength="60" x="247.5" y="119.0498">right_1.2</text><path d="M197.5,129.2031 L207.5,129.2031 C222.5,129.2031 212.5,106.0547 227.5,106.0547 L237.5,106.0547 " fill="none" style="stroke:#9275B6;stroke-width:1.0;"/><rect fill="#D9D3D0" height="36.2969" rx="12.5" ry="12.5" style="stroke:#9275B6;stroke-width:1.0;" width="67" x="237.5" y="142.3516"/><text fill="#9275B6" font-family="Verdana" font-size="14" lengthAdjust="spacing" textLength="47" x="247.5" y="165.3467">right_2</text><path d="M197.5,129.2031 L207.5,129.2031 C222.5,129.2031 212.5,160.5 227.5,160.5 L237.5,160.5 " fill="none" style="stroke:#9275B6;stroke-width:1.0;"/><rect fill="#D9D3D0" height="36.2969" rx="12.5" ry="12.5" style="stroke:#9275B6;stroke-width:1.0;" width="57" x="52.5" y="56.6094"/><text fill="#9275B6" font-family="Verdana" font-size="14" lengthAdjust="spacing" textLength="37" x="62.5" y="79.6045">left_1</text><path d="M149.5,129.2031 L139.5,129.2031 C124.5,129.2031 134.5,74.7578 119.5,74.7578 L109.5,74.7578 " fill="none" style="stroke:#9275B6;stroke-width:1.0;"/><rect fill="#D9D3D0" height="36.2969" rx="12.5" ry="12.5" style="stroke:#9275B6;stroke-width:1.0;" width="57" x="52.5" y="102.9063"/><text fill="#9275B6" font-family="Verdana" font-size="14" lengthAdjust="spacing" textLength="37" x="62.5" y="125.9014">left_2</text><path d="M149.5,129.2031 L139.5,129.2031 C124.5,129.2031 134.5,121.0547 119.5,121.0547 L109.5,121.0547 " fill="none" style="stroke:#9275B6;stroke-width:1.0;"/><rect fill="#D9D3D0" height="52.5938" rx="12.5" ry="12.5" style="stroke:#9275B6;stroke-width:1.0;" width="70" x="39.5" y="149.2031"/><text fill="#9275B6" font-family="Verdana" font-size="14" lengthAdjust="spacing" textLength="50" x="49.5" y="172.1982">left_3.1</text><text fill="#9275B6" font-family="Verdana" font-size="14" lengthAdjust="spacing" textLength="50" x="49.5" y="188.4951">left_3.2</text><path d="M149.5,129.2031 L139.5,129.2031 C124.5,129.2031 134.5,175.5 119.5,175.5 L109.5,175.5 " fill="none" style="stroke:#9275B6;stroke-width:1.0;"/></g></svg>