<?xml version="1.0" encoding="UTF-8" standalone="no"?><svg xmlns="http://www.w3.org/2000/svg" xmlns:xlink="http://www.w3.org/1999/xlink" contentScriptType="application/ecmascript" contentStyleType="text/css" height="421.875px" preserveAspectRatio="none" style="width:287px;height:421px;" version="1.1" viewBox="0 0 287 421" width="287.5px" zoomAndPan="magnify"><defs><linearGradient id="g1k8gw2dnlq1an0" x1="50%" x2="50%" y1="0%" y2="100%"><stop offset="0%" stop-color="#F18E3E"/><stop offset="100%" stop-color="#EC7211"/></linearGradient><style type="text/css"><![CDATA[*.s_181818_e7e7e7 {stroke:#181818;}@media (prefers-color-scheme:dark) {*.s_181818_e7e7e7 {stroke:#e7e7e7;}}]]></style></defs><g><text fill="#BD5B0E" font-family="&quot;Verdana&quot;" font-size="12.5" lengthAdjust="spacing" textLength="29.1667" x="34.375" y="16.8111">DMZ</text><text fill="#BD5B0E" font-family="&quot;Verdana&quot;" font-size="12.5" lengthAdjust="spacing" textLength="58.3333" x="5.2083" y="31.3619">y.x.x.x/24</text><text fill="#BD5B0E" font-family="&quot;Verdana&quot;" font-size="12.5" lengthAdjust="spacing" textLength="50" x="13.5417" y="210.4309">Internal</text><rect fill="#FFFFFF" height="284.1797" style="stroke:#FFFFFF;stroke-width:1.0416666666666667;" width="189.5833" x="79.1667" y="60.8887"/><text fill="#4E5D6C" font-family="&quot;Verdana&quot;" font-size="12.5" lengthAdjust="spacing" textLength="106.25" x="89.5833" y="77.6998">long group label</text><rect fill="url(#g1k8gw2dnlq1an0)" height="5.2083" style="stroke:#FFFFFF;stroke-width:1.0416666666666667;" width="210.4167" x="68.75" y="17.1549"/><rect fill="url(#g1k8gw2dnlq1an0)" height="5.2083" style="stroke:#FFFFFF;stroke-width:1.0416666666666667;" width="210.4167" x="68.75" y="210.7747"/><path d="M123.4375,22.3633 L123.4375,91.0645 " fill="none" style="stroke:#BD5B0E;stroke-width:1.0416666666666667;"/><text fill="#BD5B0E" font-family="&quot;Verdana&quot;" font-size="12.5" lengthAdjust="spacing" textLength="39.5833" x="103.6458" y="45.9534">y.x.x.1</text><path d="M123.4375,136.8652 L123.4375,210.7747 " fill="none" style="stroke:#BD5B0E;stroke-width:1.0416666666666667;"/><path d="M228.6458,22.3633 L228.6458,91.0645 " fill="none" style="stroke:#BD5B0E;stroke-width:1.0416666666666667;"/><text fill="#BD5B0E" font-family="&quot;Verdana&quot;" font-size="12.5" lengthAdjust="spacing" textLength="39.5833" x="208.8542" y="45.9534">y.x.x.2</text><path d="M228.6458,136.8652 L228.6458,210.7747 " fill="none" style="stroke:#BD5B0E;stroke-width:1.0416666666666667;"/><path d="M119.2708,215.9831 L119.2708,284.6842 " fill="none" style="stroke:#BD5B0E;stroke-width:1.0416666666666667;"/><text fill="#BD5B0E" font-family="&quot;Verdana&quot;" font-size="12.5" lengthAdjust="spacing" textLength="45.8333" x="96.3542" y="239.5732">w.w.w.z</text><rect class="s_181818_e7e7e7" fill="url(#g1k8gw2dnlq1an0)" height="45.8008" style="stroke-width:1.0416666666666667;" width="73.9583" x="84.375" y="91.0645"/><text fill="#FFFFFF" font-family="&quot;Verdana&quot;" font-size="12.5" lengthAdjust="spacing" textLength="42.7083" x="100" y="118.2922">web01</text><rect class="s_181818_e7e7e7" fill="url(#g1k8gw2dnlq1an0)" height="45.8008" style="stroke-width:1.0416666666666667;" width="73.9583" x="189.5833" y="91.0645"/><text fill="#FFFFFF" font-family="&quot;Verdana&quot;" font-size="12.5" lengthAdjust="spacing" textLength="42.7083" x="205.2083" y="118.2922">web02</text><path class="s_181818_e7e7e7" d="M89.0625,295.1009 C89.0625,284.6842 121.3542,284.6842 121.3542,284.6842 C121.3542,284.6842 153.6458,284.6842 153.6458,295.1009 L153.6458,329.4434 C153.6458,339.86 121.3542,339.86 121.3542,339.86 C121.3542,339.86 89.0625,339.86 89.0625,329.4434 L89.0625,295.1009 " fill="url(#g1k8gw2dnlq1an0)" style="stroke-width:1.0416666666666667;"/><path class="s_181818_e7e7e7" d="M89.0625,295.1009 C89.0625,305.5176 121.3542,305.5176 121.3542,305.5176 C121.3542,305.5176 153.6458,305.5176 153.6458,295.1009 " fill="none" style="stroke-width:1.0416666666666667;"/><text fill="#FFFFFF" font-family="&quot;Verdana&quot;" font-size="12.5" lengthAdjust="spacing" textLength="33.3333" x="104.6875" y="326.4954">db01</text></g></svg>