<?xml version="1.0" encoding="UTF-8" standalone="no"?><svg xmlns="http://www.w3.org/2000/svg" xmlns:xlink="http://www.w3.org/1999/xlink" contentStyleType="text/css" height="360px" preserveAspectRatio="none" style="width:256px;height:360px;background:#FFFFFF;" version="1.1" viewBox="0 0 256 360" width="256px" zoomAndPan="magnify"><defs/><g><rect fill="#FFFFFF" height="26.2969" style="stroke:#00000000;stroke-width:1.0;" width="211" x="21" y="5"/><text fill="#000000" font-family="sans-serif" font-size="14" font-weight="bold" lengthAdjust="spacing" textLength="201" x="26" y="22.9951">reddress-lightblue theme</text><text fill="#000000" font-family="sans-serif" font-size="12" lengthAdjust="spacing" textLength="28" x="33" y="53.4355">DMZ</text><text fill="#000000" font-family="sans-serif" font-size="12" lengthAdjust="spacing" textLength="56" x="5" y="67.4043">y.x.x.x/24</text><text fill="#000000" font-family="sans-serif" font-size="12" lengthAdjust="spacing" textLength="48" x="13" y="198.1465">Internal</text><rect fill="#E7E7E7" height="211.6484" style="stroke:#E7E7E7;stroke-width:1.0;" width="162" x="76" y="90.168"/><text fill="#000000" font-family="sans-serif" font-size="12" lengthAdjust="spacing" textLength="102" x="81" y="101.3066">long group label</text><rect fill="#E2E2F0" height="5" style="stroke:#181818;stroke-width:1.0;" width="182" x="66" y="53.7656"/><rect fill="#E2E2F0" height="5" style="stroke:#181818;stroke-width:1.0;" width="182" x="66" y="198.4766"/><path d="M113.5,58.7656 L113.5,109.1367 " fill="none" style="stroke:#000000;stroke-width:1.0;"/><text fill="#333333" font-family="Verdana" font-size="11" lengthAdjust="spacing" textLength="37" x="95" y="78.2749">y.x.x.1</text><path d="M113.5,143.1055 L113.5,198.4766 " fill="none" style="stroke:#000000;stroke-width:1.0;"/><path d="M204.5,58.7656 L204.5,109.1367 " fill="none" style="stroke:#000000;stroke-width:1.0;"/><text fill="#333333" font-family="Verdana" font-size="11" lengthAdjust="spacing" textLength="37" x="186" y="78.2749">y.x.x.2</text><path d="M204.5,143.1055 L204.5,198.4766 " fill="none" style="stroke:#000000;stroke-width:1.0;"/><path d="M109.5,203.4766 L109.5,253.8477 " fill="none" style="stroke:#000000;stroke-width:1.0;"/><text fill="#333333" font-family="Verdana" font-size="11" lengthAdjust="spacing" textLength="44" x="87.5" y="222.9858">w.w.w.z</text><rect fill="#F1F1F1" height="33.9688" style="stroke:#181818;stroke-width:0.5;" width="61" x="81" y="109.1367"/><text fill="#000000" font-family="sans-serif" font-size="12" lengthAdjust="spacing" textLength="41" x="91" y="130.2754">web01</text><rect fill="#F1F1F1" height="33.9688" style="stroke:#181818;stroke-width:0.5;" width="61" x="172" y="109.1367"/><text fill="#000000" font-family="sans-serif" font-size="12" lengthAdjust="spacing" textLength="41" x="182" y="130.2754">web02</text><path d="M85.5,263.8477 C85.5,253.8477 111.5,253.8477 111.5,253.8477 C111.5,253.8477 137.5,253.8477 137.5,263.8477 L137.5,286.8164 C137.5,296.8164 111.5,296.8164 111.5,296.8164 C111.5,296.8164 85.5,296.8164 85.5,286.8164 L85.5,263.8477 " fill="#F1F1F1" style="stroke:#181818;stroke-width:0.5;"/><path d="M85.5,263.8477 C85.5,273.8477 111.5,273.8477 111.5,273.8477 C111.5,273.8477 137.5,273.8477 137.5,263.8477 " fill="none" style="stroke:#181818;stroke-width:0.5;"/><text fill="#000000" font-family="sans-serif" font-size="12" lengthAdjust="spacing" textLength="32" x="95.5" y="288.9863">db01</text></g></svg>