<?xml version="1.0" encoding="UTF-8" standalone="no"?><svg xmlns="http://www.w3.org/2000/svg" xmlns:xlink="http://www.w3.org/1999/xlink" contentScriptType="application/ecmascript" contentStyleType="text/css" height="511.4583px" preserveAspectRatio="none" style="width:334px;height:511px;background:#00000000;" version="1.1" viewBox="0 0 334 511" width="334.375px" zoomAndPan="magnify"><defs/><g><polygon points="25,20.8333,25,21.0523,35.4167,20.4017,45.8333,21.0347,56.25,21.2497,66.6667,20.0902,77.0833,20.7524,87.5,20.3891,97.9167,20.4339,108.3333,20.7623,118.75,20.1132,129.1667,21.41,139.5833,20.1768,150,20.6273,160.4167,21.2833,170.8333,20.744,181.25,20.9044,191.6667,20.8001,202.0833,21.0193,212.5,21.0824,222.9167,21.4434,233.3333,21.5323,243.75,21.5409,254.1667,21.0986,264.5833,21.3162,275,21.5648,285.4167,20.0821,295.8333,21.5401,306.25,20.8333,306.2106,20.7382,306.9102,21.2487,307.3627,21.1627,308.0087,21.5436,308.7056,22.0475,309.1963,22.0537,309.1806,22.0472,309.4741,22.657,309.7931,23.2772,310.062,23.8768,310.1713,24.4102,310.4167,25,310.5164,25,310.2179,32.7669,310.5154,40.5339,310.607,48.3008,310.571,56.0677,310.4167,63.8346,310.6133,63.9161,310.0176,64.3597,309.7193,64.9265,309.4851,65.5198,309.4215,66.1838,309.1963,66.7809,309.1702,66.7179,308.6976,67.2436,307.9946,67.213,307.3829,67.4031,306.8696,67.8305,306.25,68.0013,306.25,67.3067,295.8333,67.4605,285.4167,68.6773,275,68.4551,264.5833,68.7664,254.1667,67.6661,243.75,68.3338,233.3333,68.6163,222.9167,67.5092,212.5,67.9014,202.0833,68.1325,191.6667,68.6802,181.25,67.9969,170.8333,68.4831,160.4167,67.4244,150,67.2958,139.5833,68.5259,129.1667,67.2545,118.75,68.5315,108.3333,68.2165,97.9167,67.7222,87.5,67.6328,77.0833,68.4792,66.6667,67.6895,56.25,68.6178,45.8333,67.4255,35.4167,68.6445,25,68.0013,25.0644,68.1567,24.4433,67.8358,23.8278,67.5283,23.3288,67.5022,22.7245,67.2218,22.0537,66.7809,22.108,66.8034,21.8957,66.2273,21.5238,65.5851,21.5513,65.1083,21.1271,64.4445,20.8333,63.8346,20.8933,63.8346,20.6221,56.0677,20.6926,48.3008,21.0176,40.5339,20.9826,32.7669,20.8333,25,20.8196,24.9943,20.9741,24.3679,21.2513,23.7924,21.3454,23.1411,21.9427,22.6981,22.0537,22.0537,22.152,22.291,22.7129,21.9785,23.3246,21.7885,23.8033,21.2776,24.4223,21.1054,25,20.8333" style="stroke:#4D4D4D;stroke-width:1.0416666666666667;fill:none;"/><text fill="#2E2E2E" font-family="&quot;Segoe Print&quot;" font-size="20.8333" font-weight="bold" lengthAdjust="spacing" textLength="266.6667" x="32.2917" y="51.6296">sketchy-outline theme</text><text fill="#2E2E2E" font-family="&quot;Segoe Print&quot;" font-size="12.5" lengthAdjust="spacing" textLength="29.1667" x="57.8125" y="96.2708">DMZ</text><text fill="#2E2E2E" font-family="&quot;Segoe Print&quot;" font-size="12.5" lengthAdjust="spacing" textLength="58.3333" x="28.6458" y="110.8215">y.x.x.x/24</text><text fill="#2E2E2E" font-family="&quot;Segoe Print&quot;" font-size="12.5" lengthAdjust="spacing" textLength="50" x="36.9792" y="289.8905">Internal</text><polygon points="102.6042,140.3483,102.6042,140.5672,113.1366,139.9167,123.669,140.5496,134.2014,140.7646,144.7338,139.6052,155.2662,140.2674,165.7986,139.904,176.331,139.9488,186.8634,140.2773,197.3958,139.6281,207.9282,140.925,218.4606,139.6918,228.9931,140.1423,239.5255,140.7983,250.0579,140.259,260.5903,140.4194,271.1227,140.315,281.6551,140.5343,292.1875,140.3483,292.4366,140.3483,292.7976,150.8735,292.8865,161.3987,292.8951,171.9238,292.4527,182.449,292.6704,192.9742,292.919,203.4993,291.4363,214.0245,292.8943,224.5497,291.8786,235.0749,292.7436,245.6,291.6719,256.1252,292.1161,266.6504,292.96,277.1756,292.1367,287.7007,292.2972,298.2259,292.5402,308.7511,292.6211,319.2763,292.1834,329.8014,292.4867,340.3266,291.5912,350.8518,292.4837,361.377,292.7585,371.9021,292.6506,382.4273,292.8261,392.9525,291.6843,403.4776,291.5081,414.0028,292.1875,424.528,292.1875,423.8807,281.6551,424.4667,271.1227,424.3233,260.5903,425.2378,250.0579,424.346,239.5255,424.1706,228.9931,424.7658,218.4606,423.8334,207.9282,423.9872,197.3958,425.204,186.8634,424.9818,176.331,425.2931,165.7986,424.1928,155.2662,424.8605,144.7338,425.143,134.2014,424.0359,123.669,424.4281,113.1366,424.6592,102.6042,424.528,103.2831,424.528,102.5998,414.0028,103.086,403.4776,102.0273,392.9525,101.8987,382.4273,103.1288,371.9021,101.8574,361.377,103.1343,350.8518,102.8194,340.3266,102.3251,329.8014,102.2357,319.2763,103.082,308.7511,102.2924,298.2259,103.2207,287.7007,102.0284,277.1756,103.2473,266.6504,103.1086,256.1252,102.8593,245.6,102.6534,235.0749,103.3611,224.5497,103.2433,214.0245,102.7805,203.4993,102.8835,192.9742,102.4685,182.449,103.3505,171.9238,102.7655,161.3987,102.7839,150.8735,102.6042,140.3483" style="stroke:#00000000;stroke-width:1.0416666666666667;fill:none;"/><text fill="#555555" font-family="&quot;Segoe Print&quot;" font-size="12.5" lengthAdjust="spacing" textLength="106.25" x="113.0208" y="157.1594">long group label</text><polygon points="92.1875,96.6146,92.1875,96.8335,102.7083,96.183,113.2292,96.8159,123.75,97.0309,134.2708,95.8715,144.7917,96.5336,155.3125,96.1703,165.8333,96.2151,176.3542,96.5436,186.875,95.8944,197.3958,97.1913,207.9167,95.958,218.4375,96.4086,228.9583,97.0645,239.4792,96.5252,250,96.6857,260.5208,96.5813,271.0417,96.8005,281.5625,96.8637,292.0833,97.2247,302.6042,96.6146,302.8372,96.6146,302.84,97.6563,302.6926,98.6979,302.7651,99.7396,302.848,100.7813,302.6042,101.8229,302.6042,101.0717,292.0833,102.5297,281.5625,101.5141,271.0417,102.379,260.5208,101.3073,250,101.7516,239.4792,102.5954,228.9583,101.7722,218.4375,101.9326,207.9167,102.1757,197.3958,102.2565,186.875,101.8188,176.3542,102.1221,165.8333,101.2266,155.3125,102.1192,144.7917,102.394,134.2708,102.286,123.75,102.4615,113.2292,101.3197,102.7083,101.1436,92.1875,101.8229,91.9717,101.8229,92.1671,100.7813,92.1193,99.7396,92.4241,98.6979,92.1268,97.6563,92.1875,96.6146" style="stroke:#333333;stroke-width:1.0416666666666667;fill:none;"/><polygon points="92.1875,290.2344,92.1875,290.4533,102.7083,289.8028,113.2292,290.4357,123.75,290.6507,134.2708,289.4913,144.7917,290.1534,155.3125,289.7901,165.8333,289.8349,176.3542,290.1634,186.875,289.5142,197.3958,290.8111,207.9167,289.5778,218.4375,290.0284,228.9583,290.6843,239.4792,290.145,250,290.3055,260.5208,290.2011,271.0417,290.4203,281.5625,290.4835,292.0833,290.8445,302.6042,290.2344,302.8372,290.2344,302.84,291.276,302.6926,292.3177,302.7651,293.3594,302.848,294.401,302.6042,295.4427,302.6042,294.6915,292.0833,296.1495,281.5625,295.1339,271.0417,295.9988,260.5208,294.9271,250,295.3714,239.4792,296.2152,228.9583,295.3919,218.4375,295.5524,207.9167,295.7954,197.3958,295.8763,186.875,295.4386,176.3542,295.7419,165.8333,294.8464,155.3125,295.7389,144.7917,296.0137,134.2708,295.9058,123.75,296.0813,113.2292,294.9395,102.7083,294.7634,92.1875,295.4427,91.9717,295.4427,92.1671,294.401,92.1193,293.3594,92.4241,292.3177,92.1268,291.276,92.1875,290.2344" style="stroke:#333333;stroke-width:1.0416666666666667;fill:none;"/><path d="M146.875,101.8229 L147.4588,101.8229 L145.7241,111.6374 L147.4119,121.4518 L147.9852,131.2663 L144.8933,141.0807 L146.6591,150.8952 L145.6903,160.7096 L146.875,170.5241 " fill="none" style="stroke:#333333;stroke-width:1.0416666666666667;"/><text fill="#2E2E2E" font-family="&quot;Segoe Print&quot;" font-size="12.5" lengthAdjust="spacing" textLength="39.5833" x="127.0833" y="125.413">y.x.x.1</text><path d="M146.875,216.3249 L147.4588,216.3249 L145.7241,226.8834 L147.4119,237.4419 L147.9852,248.0004 L144.8933,258.5589 L146.6591,269.1174 L145.6903,279.6759 L146.875,290.2344 " fill="none" style="stroke:#333333;stroke-width:1.0416666666666667;"/><path d="M252.0833,101.8229 L252.6672,101.8229 L250.9324,111.6374 L252.6202,121.4518 L253.1936,131.2663 L250.1017,141.0807 L251.8675,150.8952 L250.8986,160.7096 L252.0833,170.5241 " fill="none" style="stroke:#333333;stroke-width:1.0416666666666667;"/><text fill="#2E2E2E" font-family="&quot;Segoe Print&quot;" font-size="12.5" lengthAdjust="spacing" textLength="39.5833" x="232.2917" y="125.413">y.x.x.2</text><path d="M252.0833,216.3249 L252.6672,216.3249 L250.9324,226.8834 L252.6202,237.4419 L253.1936,248.0004 L250.1017,258.5589 L251.8675,269.1174 L250.8986,279.6759 L252.0833,290.2344 " fill="none" style="stroke:#333333;stroke-width:1.0416666666666667;"/><path d="M142.7083,295.4427 L143.2922,295.4427 L141.5574,305.2572 L143.2452,315.0716 L143.8186,324.8861 L140.7267,334.7005 L142.4925,344.515 L141.5236,354.3294 L142.7083,364.1439 " fill="none" style="stroke:#333333;stroke-width:1.0416666666666667;"/><text fill="#2E2E2E" font-family="&quot;Segoe Print&quot;" font-size="12.5" lengthAdjust="spacing" textLength="45.8333" x="119.7917" y="319.0328">w.w.w.z</text><polygon points="107.8125,170.5241,107.8125,170.743,118.378,170.0925,128.9435,170.7254,139.5089,170.9404,150.0744,169.781,160.6399,170.4431,171.2054,170.0798,181.7708,170.5241,181.6377,170.5241,181.7472,179.6842,181.5308,188.8444,181.9631,198.0046,181.552,207.1647,181.7708,216.3249,181.7708,216.1189,171.2054,216.7748,160.6399,216.2355,150.0744,216.396,139.5089,216.2916,128.9435,216.5108,118.378,216.574,107.8125,216.3249,108.0159,216.3249,108.0455,207.1647,108.0484,198.0046,107.9009,188.8444,107.9735,179.6842,107.8125,170.5241" style="stroke:#2E2E2E;stroke-width:1.0416666666666667;fill:none;"/><text fill="#2E2E2E" font-family="&quot;Segoe Print&quot;" font-size="12.5" lengthAdjust="spacing" textLength="42.7083" x="123.4375" y="197.7519">web01</text><polygon points="213.0208,170.5241,213.0208,170.743,223.5863,170.0925,234.1518,170.7254,244.7173,170.9404,255.2827,169.781,265.8482,170.4431,276.4137,170.0798,286.9792,170.5241,286.846,170.5241,286.9555,179.6842,286.7391,188.8444,287.1714,198.0046,286.7603,207.1647,286.9792,216.3249,286.9792,216.1189,276.4137,216.7748,265.8482,216.2355,255.2827,216.396,244.7173,216.2916,234.1518,216.5108,223.5863,216.574,213.0208,216.3249,213.2242,216.3249,213.2538,207.1647,213.2567,198.0046,213.1092,188.8444,213.1818,179.6842,213.0208,170.5241" style="stroke:#2E2E2E;stroke-width:1.0416666666666667;fill:none;"/><text fill="#2E2E2E" font-family="&quot;Segoe Print&quot;" font-size="12.5" lengthAdjust="spacing" textLength="42.7083" x="228.6458" y="197.7519">web02</text><path d="M112.5,374.5605 L112.5,374.5605 L112.5478,374.6453 L115.6349,372.5706 L119.0023,370.9926 L122.2785,369.2529 L125.2543,366.9813 L128.6458,365.446 L128.6429,365.4101 L131.8591,364.9887 L135.0899,364.7482 L138.3308,364.6333 L141.5368,364.0853 L144.7917,364.1439 L144.7917,364.1439 L144.8123,364.3994 L147.9974,364.1134 L151.2426,364.5735 L154.4952,365.1245 L157.7051,365.146 L160.9375,365.446 L160.953,365.4735 L164.1594,367.256 L167.4365,369.1638 L170.6794,371.0111 L173.9875,372.9738 L177.0833,374.5605 L177.7047,374.5605 L177.7123,381.429 L177.3191,388.2975 L177.5126,395.166 L177.7335,402.0345 L177.0833,408.903 L177.0833,408.903 L176.9192,408.6122 L174.0086,410.9995 L170.5575,412.4293 L167.5173,414.587 L164.054,415.9951 L160.9375,418.0176 L160.935,417.986 L157.7359,418.6202 L154.4774,418.5159 L151.2539,418.8474 L148.0334,419.2155 L144.7917,419.3197 L144.7917,419.3197 L144.8072,419.5117 L141.5624,419.0574 L138.344,418.9314 L135.0829,418.2743 L131.8856,418.4092 L128.6458,418.0176 L128.7706,418.2386 L125.5178,416.3739 L122.327,414.6189 L118.8484,412.3541 L115.5807,410.463 L112.5,408.903 L111.9246,408.903 L112.4455,402.0345 L112.318,395.166 L113.1309,388.2975 L112.3383,381.429 L112.5,374.5605 " style="stroke:#2E2E2E;stroke-width:1.0416666666666667;fill:none;"/><path d="M112.5,374.5605 L112.5,374.5605 L112.5478,374.6453 L115.6349,376.2164 L119.0023,378.2843 L122.2785,380.1904 L125.2543,381.5646 L128.6458,383.6751 L128.6429,383.6393 L131.8591,383.7387 L135.0899,384.019 L138.3308,384.4249 L141.5368,384.3978 L144.7917,384.9772 L144.7917,384.9772 L144.8123,385.2327 L147.9974,384.4259 L151.2426,384.3651 L154.4952,384.3953 L157.7051,383.896 L160.9375,383.6751 L160.953,383.7026 L164.1594,381.8393 L167.4365,380.1013 L170.6794,378.3028 L173.9875,376.6196 L177.0833,374.5605 " fill="none" style="stroke:#2E2E2E;stroke-width:1.0416666666666667;"/><text fill="#2E2E2E" font-family="&quot;Segoe Print&quot;" font-size="12.5" lengthAdjust="spacing" textLength="33.3333" x="128.125" y="405.955">db01</text></g></svg>