<svg xmlns="http://www.w3.org/2000/svg" xmlns:xlink="http://www.w3.org/1999/xlink" contentStyleType="text/css" height="332px" preserveAspectRatio="none" style="width:266px;height:332px;background:#0B58A8;" version="1.1" viewBox="0 0 266 332" width="266px" zoomAndPan="magnify"><defs/><g><rect fill="#0B58A8" height="332" style="stroke:none;stroke-width:1.0;" width="266" x="0" y="0"/><text fill="#FFFFFF" font-family="Verdana" font-size="12" lengthAdjust="spacing" textLength="28" x="38" y="21.1387">DMZ</text><text fill="#FFFFFF" font-family="Verdana" font-size="12" lengthAdjust="spacing" textLength="56" x="10" y="35.1074">y.x.x.x/24</text><text fill="#FFFFFF" font-family="Verdana" font-size="12" lengthAdjust="spacing" textLength="48" x="18" y="165.8496">Internal</text><rect fill="#0B58A8" height="211.6484" style="stroke:#0B58A8;stroke-width:1.0;" width="162" x="81" y="57.8711"/><text fill="#FFFFFF" font-family="Verdana" font-size="12" lengthAdjust="spacing" textLength="102" x="86" y="69.0098">long group label</text><rect fill="#0B58A8" height="5" style="stroke:#FFFFFF;stroke-width:1.0;" width="182" x="71" y="21.4688"/><rect fill="#0B58A8" height="5" style="stroke:#FFFFFF;stroke-width:1.0;" width="182" x="71" y="166.1797"/><path d="M118.5,26.4688 L118.5,76.8398 " fill="none" style="stroke:#FFFFFF;stroke-width:1.0;"/><text fill="#FFFFFF" font-family="Verdana" font-size="11" lengthAdjust="spacing" textLength="37" x="100" y="45.978">y.x.x.1</text><path d="M118.5,110.8086 L118.5,166.1797 " fill="none" style="stroke:#FFFFFF;stroke-width:1.0;"/><path d="M209.5,26.4688 L209.5,76.8398 " fill="none" style="stroke:#FFFFFF;stroke-width:1.0;"/><text fill="#FFFFFF" font-family="Verdana" font-size="11" lengthAdjust="spacing" textLength="37" x="191" y="45.978">y.x.x.2</text><path d="M209.5,110.8086 L209.5,166.1797 " fill="none" style="stroke:#FFFFFF;stroke-width:1.0;"/><path d="M114.5,171.1797 L114.5,221.5508 " fill="none" style="stroke:#FFFFFF;stroke-width:1.0;"/><text fill="#FFFFFF" font-family="Verdana" font-size="11" lengthAdjust="spacing" textLength="44" x="92.5" y="190.689">w.w.w.z</text><rect fill="#0B58A8" height="33.9688" style="stroke:#FFFFFF;stroke-width:1.0;" width="61" x="86" y="76.8398"/><text fill="#FFFFFF" font-family="Verdana" font-size="12" lengthAdjust="spacing" textLength="41" x="96" y="97.9785">web01</text><rect fill="#0B58A8" height="33.9688" style="stroke:#FFFFFF;stroke-width:1.0;" width="61" x="177" y="76.8398"/><text fill="#FFFFFF" font-family="Verdana" font-size="12" lengthAdjust="spacing" textLength="41" x="187" y="97.9785">web02</text><path d="M90.5,231.5508 C90.5,221.5508 116.5,221.5508 116.5,221.5508 C116.5,221.5508 142.5,221.5508 142.5,231.5508 L142.5,254.5195 C142.5,264.5195 116.5,264.5195 116.5,264.5195 C116.5,264.5195 90.5,264.5195 90.5,254.5195 L90.5,231.5508 " fill="#0B58A8" style="stroke:#FFFFFF;stroke-width:1.0;"/><path d="M90.5,231.5508 C90.5,241.5508 116.5,241.5508 116.5,241.5508 C116.5,241.5508 142.5,241.5508 142.5,231.5508 " fill="none" style="stroke:#FFFFFF;stroke-width:1.0;"/><text fill="#FFFFFF" font-family="Verdana" font-size="12" lengthAdjust="spacing" textLength="32" x="100.5" y="256.6895">db01</text></g></svg>