<?xml version="1.0" encoding="UTF-8" standalone="no"?><svg xmlns="http://www.w3.org/2000/svg" xmlns:xlink="http://www.w3.org/1999/xlink" contentStyleType="text/css" height="442.7083px" preserveAspectRatio="none" style="width:308px;height:442px;background:#00000000;" version="1.1" viewBox="0 0 308 442" width="308.3333px" zoomAndPan="magnify"><defs/><g><text fill="#2E2E2E" font-family="&quot;Segoe Print&quot;" font-size="12.5" lengthAdjust="spacing" textLength="29.1667" x="44.7917" y="27.2278">DMZ</text><text fill="#2E2E2E" font-family="&quot;Segoe Print&quot;" font-size="12.5" lengthAdjust="spacing" textLength="58.3333" x="15.625" y="41.7786">y.x.x.x/24</text><text fill="#2E2E2E" font-family="&quot;Segoe Print&quot;" font-size="12.5" lengthAdjust="spacing" textLength="50" x="23.9583" y="220.8476">Internal</text><polygon fill="#555555" points="89.5833,71.3053,89.5833,71.5243,100.1157,70.8738,110.6481,71.5067,121.1806,71.7217,131.713,70.5622,142.2454,71.2244,152.7778,70.8611,163.3102,70.9059,173.8426,71.2343,184.375,70.5852,194.9074,71.882,205.4398,70.6488,215.9722,71.0993,226.5046,71.7553,237.037,71.216,247.5694,71.3764,258.1019,71.2721,268.6343,71.4913,279.1667,71.3053,279.4158,71.3053,279.7768,81.8305,279.8657,92.3557,279.8742,102.8809,279.4319,113.406,279.6496,123.9312,279.8982,134.4564,278.4154,144.9816,279.8734,155.5067,278.8578,166.0319,279.7227,176.5571,278.651,187.0822,279.0953,197.6074,279.9392,208.1326,279.1159,218.6578,279.2764,229.1829,279.5194,239.7081,279.6002,250.2333,279.1626,260.7585,279.4658,271.2836,278.5704,281.8088,279.4629,292.334,279.7377,302.8592,279.6297,313.3843,279.8052,323.9095,278.6635,334.4347,278.4873,344.9599,279.1667,355.485,279.1667,354.8377,268.6343,355.4237,258.1019,355.2803,247.5694,356.1948,237.037,355.3031,226.5046,355.1277,215.9722,355.7228,205.4398,354.7904,194.9074,354.9443,184.375,356.161,173.8426,355.9388,163.3102,356.2501,152.7778,355.1498,142.2454,355.8175,131.713,356.1,121.1806,354.9929,110.6481,355.3852,100.1157,355.6163,89.5833,355.485,90.2622,355.485,89.579,344.9599,90.0652,334.4347,89.0065,323.9095,88.8779,313.3843,90.1079,302.8592,88.8365,292.334,90.1135,281.8088,89.7986,271.2836,89.3043,260.7585,89.2148,250.2333,90.0612,239.7081,89.2715,229.1829,90.1999,218.6578,89.0076,208.1326,90.2265,197.6074,90.0878,187.0822,89.8385,176.5571,89.6325,166.0319,90.3402,155.5067,90.2225,144.9816,89.7596,134.4564,89.8627,123.9312,89.4476,113.406,90.3296,102.8809,89.7447,92.3557,89.7631,81.8305,89.5833,71.3053" style="stroke:#555555;stroke-width:1.0416666666666667;"/><text fill="#555555" font-family="&quot;Segoe Print&quot;" font-size="12.5" lengthAdjust="spacing" textLength="106.25" x="100" y="88.1165">long group label</text><polygon fill="#474747" points="79.1667,27.5716,79.1667,27.7906,89.6875,27.14,100.2083,27.773,110.7292,27.9879,121.25,26.8285,131.7708,27.4907,142.2917,27.1274,152.8125,27.1721,163.3333,27.5006,173.8542,26.8514,184.375,28.1483,194.8958,26.9151,205.4167,27.3656,215.9375,28.0216,226.4583,27.4823,236.9792,27.6427,247.5,27.5383,258.0208,27.7576,268.5417,27.8207,279.0625,28.1817,289.5833,27.5716,289.8163,27.5716,289.8192,28.6133,289.6717,29.6549,289.7443,30.6966,289.8272,31.7383,289.5833,32.7799,289.5833,32.0287,279.0625,33.4867,268.5417,32.4711,258.0208,33.336,247.5,32.2643,236.9792,32.7086,226.4583,33.5525,215.9375,32.7292,205.4167,32.8896,194.8958,33.1327,184.375,33.2135,173.8542,32.7759,163.3333,33.0791,152.8125,32.1837,142.2917,33.0762,131.7708,33.351,121.25,33.243,110.7292,33.4185,100.2083,32.2767,89.6875,32.1006,79.1667,32.7799,78.9509,32.7799,79.1462,31.7383,79.0984,30.6966,79.4033,29.6549,79.106,28.6133,79.1667,27.5716" style="stroke:#333333;stroke-width:1.0416666666666667;"/><polygon fill="#474747" points="79.1667,221.1914,79.1667,221.4103,89.6875,220.7598,100.2083,221.3927,110.7292,221.6077,121.25,220.4483,131.7708,221.1105,142.2917,220.7471,152.8125,220.7919,163.3333,221.1204,173.8542,220.4712,184.375,221.7681,194.8958,220.5349,205.4167,220.9854,215.9375,221.6414,226.4583,221.1021,236.9792,221.2625,247.5,221.1581,258.0208,221.3774,268.5417,221.4405,279.0625,221.8015,289.5833,221.1914,289.8163,221.1914,289.8192,222.2331,289.6717,223.2747,289.7443,224.3164,289.8272,225.3581,289.5833,226.3997,289.5833,225.6485,279.0625,227.1065,268.5417,226.0909,258.0208,226.9558,247.5,225.8841,236.9792,226.3284,226.4583,227.1722,215.9375,226.349,205.4167,226.5094,194.8958,226.7525,184.375,226.8333,173.8542,226.3957,163.3333,226.6989,152.8125,225.8035,142.2917,226.696,131.7708,226.9708,121.25,226.8628,110.7292,227.0383,100.2083,225.8965,89.6875,225.7204,79.1667,226.3997,78.9509,226.3997,79.1462,225.3581,79.0984,224.3164,79.4033,223.2747,79.106,222.2331,79.1667,221.1914" style="stroke:#333333;stroke-width:1.0416666666666667;"/><path d="M133.8542,32.7799 L134.438,32.7799 L132.7033,42.5944 L134.3911,52.4089 L134.9644,62.2233 L131.8725,72.0378 L133.6383,81.8522 L132.6695,91.6667 L133.8542,101.4811 " fill="none" style="stroke:#333333;stroke-width:1.0416666666666667;"/><text fill="#FFFFFF" font-family="&quot;Segoe Print&quot;" font-size="12.5" lengthAdjust="spacing" textLength="39.5833" x="114.0625" y="56.37">y.x.x.1</text><path d="M133.8542,147.2819 L134.438,147.2819 L132.7033,157.8404 L134.3911,168.3989 L134.9644,178.9574 L131.8725,189.5159 L133.6383,200.0744 L132.6695,210.6329 L133.8542,221.1914 " fill="none" style="stroke:#333333;stroke-width:1.0416666666666667;"/><path d="M239.0625,32.7799 L239.6463,32.7799 L237.9116,42.5944 L239.5994,52.4089 L240.1727,62.2233 L237.0808,72.0378 L238.8466,81.8522 L237.8778,91.6667 L239.0625,101.4811 " fill="none" style="stroke:#333333;stroke-width:1.0416666666666667;"/><text fill="#FFFFFF" font-family="&quot;Segoe Print&quot;" font-size="12.5" lengthAdjust="spacing" textLength="39.5833" x="219.2708" y="56.37">y.x.x.2</text><path d="M239.0625,147.2819 L239.6463,147.2819 L237.9116,157.8404 L239.5994,168.3989 L240.1727,178.9574 L237.0808,189.5159 L238.8466,200.0744 L237.8778,210.6329 L239.0625,221.1914 " fill="none" style="stroke:#333333;stroke-width:1.0416666666666667;"/><path d="M129.6875,226.3997 L130.2713,226.3997 L128.5366,236.2142 L130.2244,246.0286 L130.7977,255.8431 L127.7058,265.6576 L129.4716,275.472 L128.5028,285.2865 L129.6875,295.1009 " fill="none" style="stroke:#333333;stroke-width:1.0416666666666667;"/><text fill="#FFFFFF" font-family="&quot;Segoe Print&quot;" font-size="12.5" lengthAdjust="spacing" textLength="45.8333" x="106.7708" y="249.9898">w.w.w.z</text><polygon fill="#474747" points="94.7917,101.4811,94.7917,101.7001,105.3571,101.0495,115.9226,101.6825,126.4881,101.8975,137.0536,100.738,147.619,101.4002,158.1845,101.0369,168.75,101.4811,168.6168,101.4811,168.7263,110.6413,168.5099,119.8014,168.9422,128.9616,168.5312,138.1217,168.75,147.2819,168.75,147.0759,158.1845,147.7318,147.619,147.1926,137.0536,147.353,126.4881,147.2486,115.9226,147.4679,105.3571,147.531,94.7917,147.2819,94.995,147.2819,95.0247,138.1217,95.0275,128.9616,94.8801,119.8014,94.9526,110.6413,94.7917,101.4811" style="stroke:#2E2E2E;stroke-width:1.0416666666666667;"/><text fill="#FFFFFF" font-family="&quot;Segoe Print&quot;" font-size="12.5" lengthAdjust="spacing" textLength="42.7083" x="110.4167" y="128.7089">web01</text><polygon fill="#474747" points="200,101.4811,200,101.7001,210.5655,101.0495,221.131,101.6825,231.6964,101.8975,242.2619,100.738,252.8274,101.4002,263.3929,101.0369,273.9583,101.4811,273.8252,101.4811,273.9347,110.6413,273.7183,119.8014,274.1506,128.9616,273.7395,138.1217,273.9583,147.2819,273.9583,147.0759,263.3929,147.7318,252.8274,147.1926,242.2619,147.353,231.6964,147.2486,221.131,147.4679,210.5655,147.531,200,147.2819,200.2034,147.2819,200.233,138.1217,200.2359,128.9616,200.0884,119.8014,200.161,110.6413,200,101.4811" style="stroke:#2E2E2E;stroke-width:1.0416666666666667;"/><text fill="#FFFFFF" font-family="&quot;Segoe Print&quot;" font-size="12.5" lengthAdjust="spacing" textLength="42.7083" x="215.625" y="128.7089">web02</text><path d="M99.4792,305.5176 L99.4792,305.5176 L99.527,305.6023 L102.614,303.5276 L105.9815,301.9497 L109.2576,300.21 L112.2335,297.9383 L115.625,296.403 L115.6221,296.3671 L118.8383,295.9458 L122.0691,295.7052 L125.31,295.5903 L128.5159,295.0423 L131.7708,295.1009 L131.7708,295.1009 L131.7914,295.3564 L134.9765,295.0705 L138.2218,295.5305 L141.4744,296.0815 L144.6843,296.103 L147.9167,296.403 L147.9322,296.4305 L151.1386,298.213 L154.4156,300.1208 L157.6586,301.9682 L160.9666,303.9308 L164.0625,305.5176 L164.6838,305.5176 L164.6914,312.3861 L164.2983,319.2546 L164.4917,326.123 L164.7127,332.9915 L164.0625,339.86 L164.0625,339.86 L163.8984,339.5693 L160.9878,341.9565 L157.5367,343.3863 L154.4965,345.544 L151.0332,346.9521 L147.9167,348.9746 L147.9141,348.943 L144.7151,349.5773 L141.4565,349.473 L138.2331,349.8045 L135.0126,350.1725 L131.7708,350.2767 L131.7708,350.2767 L131.7863,350.4688 L128.5415,350.0145 L125.3232,349.8884 L122.062,349.2313 L118.8648,349.3663 L115.625,348.9746 L115.7498,349.1956 L112.497,347.3309 L109.3062,345.5759 L105.8276,343.3111 L102.5599,341.42 L99.4792,339.86 L98.9038,339.86 L99.4246,332.9915 L99.2972,326.123 L100.1101,319.2546 L99.3174,312.3861 L99.4792,305.5176 " fill="#474747" style="stroke:#2E2E2E;stroke-width:1.0416666666666667;"/><path d="M99.4792,305.5176 L99.4792,305.5176 L99.527,305.6023 L102.614,307.1735 L105.9815,309.2413 L109.2576,311.1475 L112.2335,312.5216 L115.625,314.6322 L115.6221,314.5963 L118.8383,314.6958 L122.0691,314.976 L125.31,315.382 L128.5159,315.3548 L131.7708,315.9342 L131.7708,315.9342 L131.7914,316.1897 L134.9765,315.383 L138.2218,315.3221 L141.4744,315.3523 L144.6843,314.853 L147.9167,314.6322 L147.9322,314.6597 L151.1386,312.7964 L154.4156,311.0583 L157.6586,309.2598 L160.9666,307.5766 L164.0625,305.5176 " fill="none" style="stroke:#2E2E2E;stroke-width:1.0416666666666667;"/><text fill="#FFFFFF" font-family="&quot;Segoe Print&quot;" font-size="12.5" lengthAdjust="spacing" textLength="33.3333" x="115.1042" y="336.912">db01</text></g></svg>