<?xml version="1.0" encoding="UTF-8" standalone="no"?><svg xmlns="http://www.w3.org/2000/svg" xmlns:xlink="http://www.w3.org/1999/xlink" contentScriptType="application/ecmascript" contentStyleType="text/css" height="476.0417px" preserveAspectRatio="none" style="width:287px;height:476px;background:#00000000;" version="1.1" viewBox="0 0 287 476" width="287.5px" zoomAndPan="magnify"><defs><linearGradient id="g4k2ymlbsvajp0" x1="50%" x2="50%" y1="0%" y2="100%"><stop offset="0%" stop-color="#FFFFFF"/><stop offset="100%" stop-color="#EEEEEE"/></linearGradient><linearGradient id="g4k2ymlbsvajp1" x1="50%" x2="50%" y1="0%" y2="100%"><stop offset="0%" stop-color="#F18E3E"/><stop offset="100%" stop-color="#EC7211"/></linearGradient></defs><g><rect fill="url(#g4k2ymlbsvajp0)" height="45.0846" rx="4.1667" ry="4.1667" style="stroke:#EEEEEE;stroke-width:1.0416666666666667;" width="241.6667" x="21.3542" y="5.2083"/><text fill="#EC7211" font-family="&quot;Verdana&quot;" font-size="20.8333" font-weight="bold" lengthAdjust="spacing" textLength="220.8333" x="31.7708" y="34.963">aws-orange theme</text><text fill="#BD5B0E" font-family="&quot;Verdana&quot;" font-size="12.5" lengthAdjust="spacing" textLength="29.1667" x="34.375" y="73.3541">DMZ</text><text fill="#BD5B0E" font-family="&quot;Verdana&quot;" font-size="12.5" lengthAdjust="spacing" textLength="58.3333" x="5.2083" y="87.9049">y.x.x.x/24</text><text fill="#BD5B0E" font-family="&quot;Verdana&quot;" font-size="12.5" lengthAdjust="spacing" textLength="50" x="13.5417" y="265.7613">Internal</text><rect fill="#FFFFFF" height="282.9671" style="stroke:#FFFFFF;stroke-width:1.0416666666666667;" width="189.5833" x="79.1667" y="116.8254"/><text fill="#4E5D6C" font-family="&quot;Verdana&quot;" font-size="12.5" lengthAdjust="spacing" textLength="106.25" x="89.5833" y="133.6365">long group label</text><rect fill="url(#g4k2ymlbsvajp1)" height="5.2083" style="stroke:#FFFFFF;stroke-width:1.0416666666666667;" width="210.4167" x="68.75" y="73.6979"/><rect fill="url(#g4k2ymlbsvajp1)" height="5.2083" style="stroke:#FFFFFF;stroke-width:1.0416666666666667;" width="210.4167" x="68.75" y="266.1051"/><path d="M123.4375,78.9063 L123.4375,147.0011 " fill="none" style="stroke:#BD5B0E;stroke-width:1.0416666666666667;"/><text fill="#BD5B0E" font-family="&quot;Verdana&quot;" font-size="11.4583" lengthAdjust="spacing" textLength="38.5417" x="104.1667" y="101.8326">y.x.x.1</text><path d="M123.4375,192.8019 L123.4375,266.1051 " fill="none" style="stroke:#BD5B0E;stroke-width:1.0416666666666667;"/><path d="M228.6458,78.9063 L228.6458,147.0011 " fill="none" style="stroke:#BD5B0E;stroke-width:1.0416666666666667;"/><text fill="#BD5B0E" font-family="&quot;Verdana&quot;" font-size="11.4583" lengthAdjust="spacing" textLength="38.5417" x="209.375" y="101.8326">y.x.x.2</text><path d="M228.6458,192.8019 L228.6458,266.1051 " fill="none" style="stroke:#BD5B0E;stroke-width:1.0416666666666667;"/><path d="M119.2708,271.3135 L119.2708,339.4084 " fill="none" style="stroke:#BD5B0E;stroke-width:1.0416666666666667;"/><text fill="#BD5B0E" font-family="&quot;Verdana&quot;" font-size="11.4583" lengthAdjust="spacing" textLength="45.8333" x="96.3542" y="294.2398">w.w.w.z</text><rect fill="url(#g4k2ymlbsvajp1)" height="45.8008" style="stroke:#A80036;stroke-width:1.0416666666666667;" width="73.9583" x="84.375" y="147.0011"/><text fill="#FFFFFF" font-family="&quot;Verdana&quot;" font-size="12.5" lengthAdjust="spacing" textLength="42.7083" x="100" y="174.2289">web01</text><rect fill="url(#g4k2ymlbsvajp1)" height="45.8008" style="stroke:#A80036;stroke-width:1.0416666666666667;" width="73.9583" x="189.5833" y="147.0011"/><text fill="#FFFFFF" font-family="&quot;Verdana&quot;" font-size="12.5" lengthAdjust="spacing" textLength="42.7083" x="205.2083" y="174.2289">web02</text><path d="M89.0625,349.825 C89.0625,339.4084 121.3542,339.4084 121.3542,339.4084 C121.3542,339.4084 153.6458,339.4084 153.6458,349.825 L153.6458,384.1675 C153.6458,394.5841 121.3542,394.5841 121.3542,394.5841 C121.3542,394.5841 89.0625,394.5841 89.0625,384.1675 L89.0625,349.825 " fill="url(#g4k2ymlbsvajp1)" style="stroke:#A80036;stroke-width:1.0416666666666667;"/><path d="M89.0625,349.825 C89.0625,360.2417 121.3542,360.2417 121.3542,360.2417 C121.3542,360.2417 153.6458,360.2417 153.6458,349.825 " fill="none" style="stroke:#A80036;stroke-width:1.0416666666666667;"/><text fill="#FFFFFF" font-family="&quot;Verdana&quot;" font-size="12.5" lengthAdjust="spacing" textLength="33.3333" x="104.6875" y="381.2195">db01</text></g></svg>