<?xml version="1.0" encoding="UTF-8" standalone="no"?><svg xmlns="http://www.w3.org/2000/svg" xmlns:xlink="http://www.w3.org/1999/xlink" contentScriptType="application/ecmascript" contentStyleType="text/css" height="509.375px" preserveAspectRatio="none" style="width:308px;height:509px;background:#FFFFFF;" version="1.1" viewBox="0 0 308 509" width="308.3333px" zoomAndPan="magnify"><defs><linearGradient id="g1m0gskaqw2ujf0" x1="50%" x2="50%" y1="0%" y2="100%"><stop offset="0%" stop-color="#FFFFFF"/><stop offset="100%" stop-color="#EEEEEE"/></linearGradient><linearGradient id="g1m0gskaqw2ujf1" x1="50%" x2="50%" y1="0%" y2="100%"><stop offset="0%" stop-color="#F18E3E"/><stop offset="100%" stop-color="#EC7211"/></linearGradient></defs><g><rect fill="url(#g1m0gskaqw2ujf0)" height="47.168" rx="4.1667" ry="4.1667" style="stroke:#EEEEEE;stroke-width:1.0416666666666667;" width="243.75" x="30.7292" y="20.8333"/><text fill="#EC7211" font-family="&quot;Verdana&quot;" font-size="20.8333" font-weight="bold" lengthAdjust="spacing" textLength="220.8333" x="42.1875" y="51.6296">aws-orange theme</text><text fill="#BD5B0E" font-family="&quot;Verdana&quot;" font-size="12.5" lengthAdjust="spacing" textLength="29.1667" x="44.7917" y="96.2708">DMZ</text><text fill="#BD5B0E" font-family="&quot;Verdana&quot;" font-size="12.5" lengthAdjust="spacing" textLength="58.3333" x="15.625" y="110.8215">y.x.x.x/24</text><text fill="#BD5B0E" font-family="&quot;Verdana&quot;" font-size="12.5" lengthAdjust="spacing" textLength="50" x="23.9583" y="288.678">Internal</text><rect height="282.9671" style="stroke:#00000000;stroke-width:1.0416666666666667;fill:none;" width="189.5833" x="89.5833" y="139.742"/><text fill="#4E5D6C" font-family="&quot;Verdana&quot;" font-size="12.5" lengthAdjust="spacing" textLength="106.25" x="100" y="156.5531">long group label</text><rect fill="url(#g1m0gskaqw2ujf1)" height="5.2083" style="stroke:#EC7211;stroke-width:1.0416666666666667;" width="210.4167" x="79.1667" y="96.6146"/><rect fill="url(#g1m0gskaqw2ujf1)" height="5.2083" style="stroke:#EC7211;stroke-width:1.0416666666666667;" width="210.4167" x="79.1667" y="289.0218"/><path d="M133.8542,101.8229 L133.8542,169.9178 " fill="none" style="stroke:#EC7211;stroke-width:1.0416666666666667;"/><text fill="#4E5D6C" font-family="&quot;Verdana&quot;" font-size="11.4583" lengthAdjust="spacing" textLength="38.5417" x="114.5833" y="124.7492">y.x.x.1</text><path d="M133.8542,215.7186 L133.8542,289.0218 " fill="none" style="stroke:#EC7211;stroke-width:1.0416666666666667;"/><path d="M239.0625,101.8229 L239.0625,169.9178 " fill="none" style="stroke:#EC7211;stroke-width:1.0416666666666667;"/><text fill="#4E5D6C" font-family="&quot;Verdana&quot;" font-size="11.4583" lengthAdjust="spacing" textLength="38.5417" x="219.7917" y="124.7492">y.x.x.2</text><path d="M239.0625,215.7186 L239.0625,289.0218 " fill="none" style="stroke:#EC7211;stroke-width:1.0416666666666667;"/><path d="M129.6875,294.2301 L129.6875,362.325 " fill="none" style="stroke:#EC7211;stroke-width:1.0416666666666667;"/><text fill="#4E5D6C" font-family="&quot;Verdana&quot;" font-size="11.4583" lengthAdjust="spacing" textLength="45.8333" x="106.7708" y="317.1565">w.w.w.z</text><rect fill="url(#g1m0gskaqw2ujf1)" height="45.8008" style="stroke:#BD5B0E;stroke-width:1.0416666666666667;" width="73.9583" x="94.7917" y="169.9178"/><text fill="#FFFFFF" font-family="&quot;Verdana&quot;" font-size="12.5" lengthAdjust="spacing" textLength="42.7083" x="110.4167" y="197.1456">web01</text><rect fill="url(#g1m0gskaqw2ujf1)" height="45.8008" style="stroke:#BD5B0E;stroke-width:1.0416666666666667;" width="73.9583" x="200" y="169.9178"/><text fill="#FFFFFF" font-family="&quot;Verdana&quot;" font-size="12.5" lengthAdjust="spacing" textLength="42.7083" x="215.625" y="197.1456">web02</text><path d="M99.4792,372.7417 C99.4792,362.325 131.7708,362.325 131.7708,362.325 C131.7708,362.325 164.0625,362.325 164.0625,372.7417 L164.0625,407.0841 C164.0625,417.5008 131.7708,417.5008 131.7708,417.5008 C131.7708,417.5008 99.4792,417.5008 99.4792,407.0841 L99.4792,372.7417 " fill="url(#g1m0gskaqw2ujf1)" style="stroke:#BD5B0E;stroke-width:1.0416666666666667;"/><path d="M99.4792,372.7417 C99.4792,383.1584 131.7708,383.1584 131.7708,383.1584 C131.7708,383.1584 164.0625,383.1584 164.0625,372.7417 " fill="none" style="stroke:#BD5B0E;stroke-width:1.0416666666666667;"/><text fill="#FFFFFF" font-family="&quot;Verdana&quot;" font-size="12.5" lengthAdjust="spacing" textLength="33.3333" x="115.1042" y="404.1361">db01</text></g></svg>