<?xml version="1.0" encoding="UTF-8" standalone="no"?><svg xmlns="http://www.w3.org/2000/svg" xmlns:xlink="http://www.w3.org/1999/xlink" contentScriptType="application/ecmascript" contentStyleType="text/css" height="469.7917px" preserveAspectRatio="none" style="width:293px;height:469px;background:#00000000;" version="1.1" viewBox="0 0 293 469" width="293.75px" zoomAndPan="magnify"><defs><filter height="300%" id="f1imiy23qctufj" width="300%" x="-1" y="-1"><feGaussianBlur result="blurOut" stdDeviation="2.0833333333333335"/><feColorMatrix in="blurOut" result="blurOut2" type="matrix" values="0 0 0 0 0 0 0 0 0 0 0 0 0 0 0 0 0 0 .4 0"/><feOffset dx="4.166666666666667" dy="4.166666666666667" in="blurOut2" result="blurOut3"/><feBlend in="SourceGraphic" in2="blurOut3" mode="normal"/></filter></defs><g><rect height="45.0846" rx="4.1667" ry="4.1667" style="stroke:#717D89;stroke-width:1.0416666666666667;fill:none;" width="286.4583" x="2.0833" y="2.0833"/><text fill="#DF691A" font-family="Verdana" font-size="20.8333" lengthAdjust="spacing" textLength="259.375" x="15.625" y="31.838">superhero-outline theme</text><text fill="#000000" font-family="sans-serif" font-size="12.5" lengthAdjust="spacing" textLength="29.1667" x="37.5" y="67.1041">DMZ</text><text fill="#000000" font-family="sans-serif" font-size="12.5" lengthAdjust="spacing" textLength="58.3333" x="8.3333" y="81.6549">y.x.x.x/24</text><text fill="#000000" font-family="sans-serif" font-size="12.5" lengthAdjust="spacing" textLength="50" x="16.6667" y="259.5113">Internal</text><rect fill="#DDDDDD" height="282.9671" style="stroke:#DDDDDD;stroke-width:1.0416666666666667;" width="189.5833" x="82.2917" y="110.5754"/><text fill="#000000" font-family="sans-serif" font-size="12.5" lengthAdjust="spacing" textLength="106.25" x="92.7083" y="127.3865">long group label</text><rect fill="#FEFECE" filter="url(#f1imiy23qctufj)" height="5.2083" style="stroke:#A80036;stroke-width:1.0416666666666667;" width="210.4167" x="71.875" y="67.4479"/><rect fill="#FEFECE" filter="url(#f1imiy23qctufj)" height="5.2083" style="stroke:#A80036;stroke-width:1.0416666666666667;" width="210.4167" x="71.875" y="259.8551"/><path d="M126.5625,72.6563 L126.5625,140.7511 " fill="none" style="stroke:#A80036;stroke-width:1.0416666666666667;"/><text fill="#000000" font-family="sans-serif" font-size="11.4583" lengthAdjust="spacing" textLength="38.5417" x="107.2917" y="95.5826">y.x.x.1</text><path d="M126.5625,186.5519 L126.5625,259.8551 " fill="none" style="stroke:#A80036;stroke-width:1.0416666666666667;"/><path d="M231.7708,72.6563 L231.7708,140.7511 " fill="none" style="stroke:#A80036;stroke-width:1.0416666666666667;"/><text fill="#000000" font-family="sans-serif" font-size="11.4583" lengthAdjust="spacing" textLength="38.5417" x="212.5" y="95.5826">y.x.x.2</text><path d="M231.7708,186.5519 L231.7708,259.8551 " fill="none" style="stroke:#A80036;stroke-width:1.0416666666666667;"/><path d="M122.3958,265.0635 L122.3958,333.1584 " fill="none" style="stroke:#A80036;stroke-width:1.0416666666666667;"/><text fill="#000000" font-family="sans-serif" font-size="11.4583" lengthAdjust="spacing" textLength="45.8333" x="99.4792" y="287.9898">w.w.w.z</text><rect fill="#FEFECE" filter="url(#f1imiy23qctufj)" height="45.8008" style="stroke:#A80036;stroke-width:1.0416666666666667;" width="73.9583" x="87.5" y="140.7511"/><text fill="#000000" font-family="sans-serif" font-size="12.5" lengthAdjust="spacing" textLength="42.7083" x="103.125" y="167.9789">web01</text><rect fill="#FEFECE" filter="url(#f1imiy23qctufj)" height="45.8008" style="stroke:#A80036;stroke-width:1.0416666666666667;" width="73.9583" x="192.7083" y="140.7511"/><text fill="#000000" font-family="sans-serif" font-size="12.5" lengthAdjust="spacing" textLength="42.7083" x="208.3333" y="167.9789">web02</text><path d="M92.1875,343.575 C92.1875,333.1584 124.4792,333.1584 124.4792,333.1584 C124.4792,333.1584 156.7708,333.1584 156.7708,343.575 L156.7708,377.9175 C156.7708,388.3341 124.4792,388.3341 124.4792,388.3341 C124.4792,388.3341 92.1875,388.3341 92.1875,377.9175 L92.1875,343.575 " fill="#FEFECE" filter="url(#f1imiy23qctufj)" style="stroke:#A80036;stroke-width:1.0416666666666667;"/><path d="M92.1875,343.575 C92.1875,353.9917 124.4792,353.9917 124.4792,353.9917 C124.4792,353.9917 156.7708,353.9917 156.7708,343.575 " fill="none" style="stroke:#A80036;stroke-width:1.0416666666666667;"/><text fill="#000000" font-family="sans-serif" font-size="12.5" lengthAdjust="spacing" textLength="33.3333" x="107.8125" y="374.9695">db01</text></g></svg>