<?xml version="1.0" encoding="us-ascii" standalone="no"?><svg xmlns="http://www.w3.org/2000/svg" xmlns:xlink="http://www.w3.org/1999/xlink" contentStyleType="text/css" height="492.7083px" preserveAspectRatio="none" style="width:320px;height:492px;" version="1.1" viewBox="0 0 320 492" width="320.8333px" zoomAndPan="magnify"><defs><linearGradient id="gy6xshapr7ghw0" x1="50%" x2="50%" y1="0%" y2="100%"><stop offset="0%" stop-color="#33B2E2"/><stop offset="100%" stop-color="#009FDB"/></linearGradient></defs><g><text fill="#007FAF" font-family="Verdana" font-size="12.5" lengthAdjust="spacing" textLength="29.1667" x="44.7917" y="27.2278">DMZ</text><text fill="#007FAF" font-family="Verdana" font-size="12.5" lengthAdjust="spacing" textLength="58.3333" x="15.625" y="41.7786">y.x.x.x/24</text><text fill="#007FAF" font-family="Verdana" font-size="12.5" lengthAdjust="spacing" textLength="50" x="23.9583" y="245.8476">Internal</text><rect fill="none" height="321.6797" style="stroke:none;stroke-width:1.0416666666666667;" width="202.0833" x="89.5833" y="74.4303"/><text fill="#5A5A5A" font-family="Verdana" font-size="12.5" lengthAdjust="spacing" textLength="106.25" x="103.125" y="94.3665">long group label</text><rect fill="url(#gy6xshapr7ghw0)" height="5.2083" style="stroke:#009FDB;stroke-width:1.0416666666666667;" width="222.9167" x="79.1667" y="27.5716"/><rect fill="url(#gy6xshapr7ghw0)" height="5.2083" style="stroke:#009FDB;stroke-width:1.0416666666666667;" width="222.9167" x="79.1667" y="246.1914"/><path d="M136.9792,32.7799 L136.9792,110.8561 " fill="none" style="stroke:#009FDB;stroke-width:1.0416666666666667;"/><text fill="#5A5A5A" font-family="Verdana" font-size="12.5" lengthAdjust="spacing" textLength="39.5833" x="117.1875" y="57.9325">y.x.x.1</text><path d="M136.9792,162.9069 L136.9792,246.1914 " fill="none" style="stroke:#009FDB;stroke-width:1.0416666666666667;"/><path d="M248.4375,32.7799 L248.4375,110.8561 " fill="none" style="stroke:#009FDB;stroke-width:1.0416666666666667;"/><text fill="#5A5A5A" font-family="Verdana" font-size="12.5" lengthAdjust="spacing" textLength="39.5833" x="228.6458" y="57.9325">y.x.x.2</text><path d="M248.4375,162.9069 L248.4375,246.1914 " fill="none" style="stroke:#009FDB;stroke-width:1.0416666666666667;"/><path d="M132.8125,251.3997 L132.8125,329.4759 " fill="none" style="stroke:#009FDB;stroke-width:1.0416666666666667;"/><text fill="#5A5A5A" font-family="Verdana" font-size="12.5" lengthAdjust="spacing" textLength="45.8333" x="109.8958" y="276.5523">w.w.w.z</text><rect fill="url(#gy6xshapr7ghw0)" height="52.0508" rx="10.4167" ry="10.4167" style="stroke:#007FAF;stroke-width:1.0416666666666667;" width="80.2083" x="94.7917" y="110.8561"/><text fill="#FFFFFF" font-family="Verdana" font-size="12.5" lengthAdjust="spacing" textLength="42.7083" x="113.5417" y="141.2089">web01</text><rect fill="url(#gy6xshapr7ghw0)" height="52.0508" rx="10.4167" ry="10.4167" style="stroke:#007FAF;stroke-width:1.0416666666666667;" width="80.2083" x="206.25" y="110.8561"/><text fill="#FFFFFF" font-family="Verdana" font-size="12.5" lengthAdjust="spacing" textLength="42.7083" x="225" y="141.2089">web02</text><path d="M99.4792,339.8926 C99.4792,329.4759 134.8958,329.4759 134.8958,329.4759 C134.8958,329.4759 170.3125,329.4759 170.3125,339.8926 L170.3125,380.485 C170.3125,390.9017 134.8958,390.9017 134.8958,390.9017 C134.8958,390.9017 99.4792,390.9017 99.4792,380.485 L99.4792,339.8926 " fill="url(#gy6xshapr7ghw0)" style="stroke:#007FAF;stroke-width:1.0416666666666667;"/><path d="M99.4792,339.8926 C99.4792,350.3092 134.8958,350.3092 134.8958,350.3092 C134.8958,350.3092 170.3125,350.3092 170.3125,339.8926 " fill="none" style="stroke:#007FAF;stroke-width:1.0416666666666667;"/><text fill="#FFFFFF" font-family="Verdana" font-size="12.5" lengthAdjust="spacing" textLength="33.3333" x="118.2292" y="374.412">db01</text></g></svg>