<?xml version="1.0" encoding="UTF-8" standalone="no"?><svg xmlns="http://www.w3.org/2000/svg" xmlns:xlink="http://www.w3.org/1999/xlink" contentScriptType="application/ecmascript" contentStyleType="text/css" height="509.375px" preserveAspectRatio="none" style="width:345px;height:509px;background:#00000000;" version="1.1" viewBox="0 0 345 509" width="345.8333px" zoomAndPan="magnify"><defs/><g><rect height="47.168" rx="4.1667" ry="4.1667" style="stroke:#BABDBF;stroke-width:1.0416666666666667;fill:none;" width="301.0417" x="20.8333" y="20.8333"/><text fill="#2FA4E7" font-family="&quot;Verdana&quot;" font-size="20.8333" font-weight="bold" lengthAdjust="spacing" textLength="278.125" x="32.2917" y="51.6296">cerulean-outline theme</text><text fill="#2683B9" font-family="&quot;Verdana&quot;" font-size="12.5" lengthAdjust="spacing" textLength="29.1667" x="63.5417" y="96.2708">DMZ</text><text fill="#2683B9" font-family="&quot;Verdana&quot;" font-size="12.5" lengthAdjust="spacing" textLength="58.3333" x="34.375" y="110.8215">y.x.x.x/24</text><text fill="#2683B9" font-family="&quot;Verdana&quot;" font-size="12.5" lengthAdjust="spacing" textLength="50" x="42.7083" y="288.678">Internal</text><rect height="282.9671" style="stroke:#00000000;stroke-width:1.0416666666666667;fill:none;" width="189.5833" x="108.3333" y="139.742"/><text fill="#343A40" font-family="&quot;Verdana&quot;" font-size="12.5" lengthAdjust="spacing" textLength="106.25" x="118.75" y="156.5531">long group label</text><rect height="5.2083" style="stroke:#2FA4E7;stroke-width:1.0416666666666667;fill:none;" width="210.4167" x="97.9167" y="96.6146"/><rect height="5.2083" style="stroke:#2FA4E7;stroke-width:1.0416666666666667;fill:none;" width="210.4167" x="97.9167" y="289.0218"/><path d="M152.6042,101.8229 L152.6042,169.9178 " fill="none" style="stroke:#2FA4E7;stroke-width:1.0416666666666667;"/><text fill="#343A40" font-family="&quot;Verdana&quot;" font-size="11.4583" lengthAdjust="spacing" textLength="38.5417" x="133.3333" y="124.7492">y.x.x.1</text><path d="M152.6042,215.7186 L152.6042,289.0218 " fill="none" style="stroke:#2FA4E7;stroke-width:1.0416666666666667;"/><path d="M257.8125,101.8229 L257.8125,169.9178 " fill="none" style="stroke:#2FA4E7;stroke-width:1.0416666666666667;"/><text fill="#343A40" font-family="&quot;Verdana&quot;" font-size="11.4583" lengthAdjust="spacing" textLength="38.5417" x="238.5417" y="124.7492">y.x.x.2</text><path d="M257.8125,215.7186 L257.8125,289.0218 " fill="none" style="stroke:#2FA4E7;stroke-width:1.0416666666666667;"/><path d="M148.4375,294.2301 L148.4375,362.325 " fill="none" style="stroke:#2FA4E7;stroke-width:1.0416666666666667;"/><text fill="#343A40" font-family="&quot;Verdana&quot;" font-size="11.4583" lengthAdjust="spacing" textLength="45.8333" x="125.5208" y="317.1565">w.w.w.z</text><rect height="45.8008" style="stroke:#2683B9;stroke-width:1.0416666666666667;fill:none;" width="73.9583" x="113.5417" y="169.9178"/><text fill="#2FA4E7" font-family="&quot;Verdana&quot;" font-size="12.5" lengthAdjust="spacing" textLength="42.7083" x="129.1667" y="197.1456">web01</text><rect height="45.8008" style="stroke:#2683B9;stroke-width:1.0416666666666667;fill:none;" width="73.9583" x="218.75" y="169.9178"/><text fill="#2FA4E7" font-family="&quot;Verdana&quot;" font-size="12.5" lengthAdjust="spacing" textLength="42.7083" x="234.375" y="197.1456">web02</text><path d="M118.2292,372.7417 C118.2292,362.325 150.5208,362.325 150.5208,362.325 C150.5208,362.325 182.8125,362.325 182.8125,372.7417 L182.8125,407.0841 C182.8125,417.5008 150.5208,417.5008 150.5208,417.5008 C150.5208,417.5008 118.2292,417.5008 118.2292,407.0841 L118.2292,372.7417 " style="stroke:#2683B9;stroke-width:1.0416666666666667;fill:none;"/><path d="M118.2292,372.7417 C118.2292,383.1584 150.5208,383.1584 150.5208,383.1584 C150.5208,383.1584 182.8125,383.1584 182.8125,372.7417 " fill="none" style="stroke:#2683B9;stroke-width:1.0416666666666667;"/><text fill="#2FA4E7" font-family="&quot;Verdana&quot;" font-size="12.5" lengthAdjust="spacing" textLength="33.3333" x="133.8542" y="404.1361">db01</text></g></svg>