<svg xmlns="http://www.w3.org/2000/svg" xmlns:xlink="http://www.w3.org/1999/xlink" contentStyleType="text/css" height="559.375px" preserveAspectRatio="none" style="width:640px;height:559px;" version="1.1" viewBox="0 0 640 559" width="640.625px" zoomAndPan="magnify"><defs><linearGradient id="ggltzjor5v8cy0" x1="50%" x2="50%" y1="0%" y2="100%"><stop offset="0%" stop-color="#F3F3F3"/><stop offset="100%" stop-color="#E2E2E2"/></linearGradient><linearGradient id="ggltzjor5v8cy1" x1="50%" x2="50%" y1="0%" y2="100%"><stop offset="0%" stop-color="#D2D2D2"/><stop offset="100%" stop-color="#A8A8A8"/></linearGradient></defs><g><g id="elem_user1"><rect fill="url(#ggltzjor5v8cy0)" height="115.0146" rx="7.8125" ry="7.8125" style="stroke:#F3F3F3;stroke-width:1.0416666666666667;" width="138.4445" x="44.7917" y="64.5833"/><text fill="#303030" font-family="Verdana" font-size="11.4583" lengthAdjust="spacing" textLength="32.2825" x="97.8727" y="87.7192">user1</text><line style="stroke:#F3F3F3;stroke-width:1.0416666666666667;" x1="45.8333" x2="182.1945" y1="102.9215" y2="102.9215"/><text fill="#303030" font-family="Verdana" font-size="11.4583" lengthAdjust="spacing" textLength="105.1112" x="61.4583" y="128.1408">name = "Dummy"</text><text fill="#303030" font-family="Verdana" font-size="11.4583" lengthAdjust="spacing" textLength="49.2126" x="61.4583" y="162.3123">id = 123</text></g><g id="elem_user2"><rect fill="url(#ggltzjor5v8cy0)" height="115.0146" rx="7.8125" ry="7.8125" style="stroke:#F3F3F3;stroke-width:1.0416666666666667;" width="138.4445" x="202.0833" y="64.5833"/><text fill="#303030" font-family="Verdana" font-size="11.4583" lengthAdjust="spacing" textLength="32.2825" x="255.1643" y="87.7192">user2</text><line style="stroke:#F3F3F3;stroke-width:1.0416666666666667;" x1="203.125" x2="339.4862" y1="102.9215" y2="102.9215"/><text fill="#303030" font-family="Verdana" font-size="11.4583" lengthAdjust="spacing" textLength="105.1112" x="218.75" y="128.1408">name = "Dummy"</text><text fill="#303030" font-family="Verdana" font-size="11.4583" lengthAdjust="spacing" textLength="49.2126" x="218.75" y="162.3123">id = 123</text></g><g id="elem_o1"><rect fill="url(#ggltzjor5v8cy0)" height="55.0049" rx="7.8125" ry="7.8125" style="stroke:#F3F3F3;stroke-width:1.0416666666666667;" width="49.7172" x="359.8958" y="94.2708"/><text fill="#303030" font-family="Verdana" font-size="11.4583" lengthAdjust="spacing" textLength="14.3005" x="377.6042" y="117.4067">o1</text><line style="stroke:#F3F3F3;stroke-width:1.0416666666666667;" x1="360.9375" x2="408.5714" y1="132.609" y2="132.609"/></g><g id="elem_o2"><rect fill="url(#ggltzjor5v8cy0)" height="55.0049" rx="7.8125" ry="7.8125" style="stroke:#F3F3F3;stroke-width:1.0416666666666667;" width="49.7172" x="428.6458" y="94.2708"/><text fill="#303030" font-family="Verdana" font-size="11.4583" lengthAdjust="spacing" textLength="14.3005" x="446.3542" y="117.4067">o2</text><line style="stroke:#F3F3F3;stroke-width:1.0416666666666667;" x1="429.6875" x2="477.3214" y1="132.609" y2="132.609"/></g><g id="elem_dia"><polygon fill="url(#ggltzjor5v8cy1)" points="419.2708,363.5417,431.7708,376.0417,419.2708,388.5417,406.7708,376.0417,419.2708,363.5417" style="stroke:#A8A8A8;stroke-width:1.0416666666666667;"/></g><g id="elem_o3"><rect fill="url(#ggltzjor5v8cy0)" height="55.0049" rx="7.8125" ry="7.8125" style="stroke:#F3F3F3;stroke-width:1.0416666666666667;" width="49.7172" x="394.2708" y="493.75"/><text fill="#303030" font-family="Verdana" font-size="11.4583" lengthAdjust="spacing" textLength="14.3005" x="411.9792" y="516.8859">o3</text><line style="stroke:#F3F3F3;stroke-width:1.0416666666666667;" x1="395.3125" x2="442.9464" y1="532.0882" y2="532.0882"/></g><g id="elem_London"><rect fill="url(#ggltzjor5v8cy0)" height="55.0049" rx="7.8125" ry="7.8125" style="stroke:#F3F3F3;stroke-width:1.0416666666666667;" width="77.6189" x="230.2083" y="348.4375"/><text fill="#303030" font-family="Verdana" font-size="11.4583" lengthAdjust="spacing" textLength="42.2023" x="247.9167" y="371.5734">London</text><line style="stroke:#F3F3F3;stroke-width:1.0416666666666667;" x1="231.25" x2="306.7856" y1="386.7757" y2="386.7757"/></g><g id="elem_CapitalCity"><rect fill="none" height="158.2031" rx="7.8125" ry="7.8125" style="stroke:#888888;stroke-width:1.0416666666666667;" width="194.4275" x="16.6667" y="296.875"/><text fill="#336699" font-family="Verdana" font-size="12.5" lengthAdjust="spacing" textLength="68.3289" x="79.716" y="320.9778">CapitalCity</text><line style="stroke:#888888;stroke-width:1.0416666666666667;" x1="16.6667" x2="211.0942" y1="336.4258" y2="336.4258"/><text fill="#336699" font-family="Verdana" font-size="12.5" lengthAdjust="spacing" textLength="17.3462" x="105.2073" y="360.5286">UK</text><line style="stroke:#888888;stroke-width:1.0416666666666667;" x1="16.6667" x2="211.0942" y1="375.9766" y2="375.9766"/><text fill="#336699" font-family="Verdana" font-size="12.5" lengthAdjust="spacing" textLength="25.6348" x="48.3103" y="400.0793">USA</text><text fill="#336699" font-family="Verdana" font-size="12.5" lengthAdjust="spacing" textLength="74.2554" x="121.2138" y="400.0793">Washington</text><line style="stroke:#888888;stroke-width:1.0416666666666667;" x1="105.5888" x2="105.5888" y1="375.9766" y2="415.5273"/><line style="stroke:#888888;stroke-width:1.0416666666666667;" x1="16.6667" x2="211.0942" y1="415.5273" y2="415.5273"/><text fill="#336699" font-family="Verdana" font-size="12.5" lengthAdjust="spacing" textLength="57.6721" x="32.2917" y="439.6301">Germany</text><text fill="#336699" font-family="Verdana" font-size="12.5" lengthAdjust="spacing" textLength="36.2732" x="121.2138" y="439.6301">Berlin</text><line style="stroke:#888888;stroke-width:1.0416666666666667;" x1="105.5888" x2="105.5888" y1="415.5273" y2="455.0781"/></g><rect fill="none" height="197.7539" rx="7.8125" ry="7.8125" style="stroke:#888888;stroke-width:1.0416666666666667;" width="131.4087" x="497.3958" y="22.9167"/><text fill="#336699" font-family="Verdana" font-size="12.5" lengthAdjust="spacing" textLength="25.5554" x="550.3225" y="47.0194">json</text><line style="stroke:#888888;stroke-width:1.0416666666666667;" x1="559.4259" x2="559.4259" y1="62.4674" y2="220.6706"/><line style="stroke:#888888;stroke-width:1.0416666666666667;" x1="497.3958" x2="628.8045" y1="62.4674" y2="62.4674"/><text fill="#336699" font-family="Verdana" font-size="12.5" lengthAdjust="spacing" textLength="25.8362" x="513.0208" y="86.5702">fruit</text><text fill="#336699" font-family="Verdana" font-size="12.5" lengthAdjust="spacing" textLength="35.5835" x="575.0509" y="86.5702">Apple</text><line style="stroke:#888888;stroke-width:1.0416666666666667;" x1="497.3958" x2="628.8045" y1="102.0182" y2="102.0182"/><text fill="#336699" font-family="Verdana" font-size="12.5" lengthAdjust="spacing" textLength="24.2371" x="513.0208" y="126.121">size</text><text fill="#336699" font-family="Verdana" font-size="12.5" lengthAdjust="spacing" textLength="35.3882" x="575.0509" y="126.121">Large</text><line style="stroke:#888888;stroke-width:1.0416666666666667;" x1="497.3958" x2="628.8045" y1="141.569" y2="141.569"/><text fill="#336699" font-family="Verdana" font-size="12.5" lengthAdjust="spacing" textLength="30.78" x="513.0208" y="165.6718">color</text><text fill="#336699" font-family="Verdana" font-size="12.5" lengthAdjust="spacing" textLength="24.3103" x="575.0509" y="165.6718">Red</text><line style="stroke:#888888;stroke-width:1.0416666666666667;" x1="559.4259" x2="628.8045" y1="181.1198" y2="181.1198"/><text fill="#336699" font-family="Verdana" font-size="12.5" lengthAdjust="spacing" textLength="38.1287" x="575.0509" y="205.2226">Green</text><polygon fill="#E2E2E2" points="417.6981,363.4668,420.5599,353.6148,416.9944,358.3062,412.303,354.7407,417.6981,363.4668" style="stroke:#E2E2E2;stroke-width:1.0416666666666667;"/><path d="M388.5746,149.894 C396.0048,204.3825 411.6898,319.4056 416.8537,357.2741 " fill="none" style="stroke:#E2E2E2;stroke-width:3.125;"/><polygon fill="#E2E2E2" points="420.8435,363.4668,426.2387,354.7407,421.5473,358.3062,417.9818,353.6148,420.8435,363.4668" style="stroke:#E2E2E2;stroke-width:1.0416666666666667;"/><path d="M449.9671,149.894 C442.5368,204.3825 426.8519,319.4056 421.688,357.2741 " fill="none" style="stroke:#E2E2E2;stroke-width:3.125;"/><text fill="#303030" font-family="Verdana" font-size="12.5" lengthAdjust="spacing" textLength="7.9529" x="402.0935" y="350.0696">1</text><text fill="#303030" font-family="Verdana" font-size="12.5" lengthAdjust="spacing" textLength="7.9529" x="431.2171" y="172.9551">1</text><polygon fill="#E2E2E2" points="419.2708,493.7275,423.4375,484.3525,419.2708,488.5192,415.1042,484.3525,419.2708,493.7275" style="stroke:#E2E2E2;stroke-width:1.0416666666666667;"/><path d="M419.2708,388.8044 C419.2708,411.587 419.2708,456.1064 419.2708,487.4775 " fill="none" style="stroke:#E2E2E2;stroke-width:3.125;"/><polygon fill="#E2E2E2" points="230.123,376.0417,220.748,371.875,224.9146,376.0417,220.748,380.2083,230.123,376.0417" style="stroke:#E2E2E2;stroke-width:1.0416666666666667;"/><path d="M211.674,376.0417 C217.8237,376.0417 217.7233,376.0417 223.873,376.0417 " fill="none" style="stroke:#E2E2E2;stroke-width:3.125;"/><polygon fill="#E2E2E2" points="114.0625,296.45,118.2292,287.075,114.0625,291.2417,109.8958,287.075,114.0625,296.45" style="stroke:#E2E2E2;stroke-width:1.0416666666666667;"/><path d="M114.0625,179.1753 C114.0625,213.7108 114.0625,252.2028 114.0625,290.2 " fill="none" style="stroke:#E2E2E2;stroke-width:3.125;"/><text fill="#303030" font-family="Verdana" font-size="12.5" lengthAdjust="spacing" textLength="32.2693" x="126.5625" y="263.6861">visits</text></g></svg>