<?xml version="1.0" encoding="UTF-8" standalone="no"?><svg xmlns="http://www.w3.org/2000/svg" xmlns:xlink="http://www.w3.org/1999/xlink" contentScriptType="application/ecmascript" contentStyleType="text/css" height="500px" preserveAspectRatio="none" style="width:501px;height:500px;background:#00000000;" version="1.1" viewBox="0 0 501 500" width="501.0417px" zoomAndPan="magnify"><defs><linearGradient id="gk37l3cwbe000" x1="50%" x2="50%" y1="0%" y2="100%"><stop offset="0%" stop-color="#F3F3F3"/><stop offset="100%" stop-color="#E2E2E2"/></linearGradient><linearGradient id="gk37l3cwbe001" x1="50%" x2="50%" y1="0%" y2="100%"><stop offset="0%" stop-color="#D2D2D2"/><stop offset="100%" stop-color="#A8A8A8"/></linearGradient></defs><g><rect fill="url(#gk37l3cwbe000)" height="115.0146" rx="7.8125" ry="7.8125" style="stroke:#F3F3F3;stroke-width:1.0416666666666667;" width="139.5833" x="54.1667" y="17.098"/><text fill="#303030" font-family="&quot;Verdana&quot;" font-size="11.4583" lengthAdjust="spacing" textLength="34.375" x="106.7708" y="40.2339">user1</text><line style="stroke:#F3F3F3;stroke-width:1.5625;" x1="55.2083" x2="192.7083" y1="55.4362" y2="55.4362"/><text fill="#303030" font-family="&quot;Verdana&quot;" font-size="11.4583" lengthAdjust="spacing" textLength="106.25" x="70.8333" y="80.6554">name = "Dummy"</text><text fill="#303030" font-family="&quot;Verdana&quot;" font-size="11.4583" lengthAdjust="spacing" textLength="50" x="70.8333" y="114.827">id = 123</text><rect fill="url(#gk37l3cwbe000)" height="115.0146" rx="7.8125" ry="7.8125" style="stroke:#F3F3F3;stroke-width:1.0416666666666667;" width="139.5833" x="212.5" y="17.098"/><text fill="#303030" font-family="&quot;Verdana&quot;" font-size="11.4583" lengthAdjust="spacing" textLength="34.375" x="265.1042" y="40.2339">user2</text><line style="stroke:#F3F3F3;stroke-width:1.5625;" x1="213.5417" x2="351.0417" y1="55.4362" y2="55.4362"/><text fill="#303030" font-family="&quot;Verdana&quot;" font-size="11.4583" lengthAdjust="spacing" textLength="106.25" x="229.1667" y="80.6554">name = "Dummy"</text><text fill="#303030" font-family="&quot;Verdana&quot;" font-size="11.4583" lengthAdjust="spacing" textLength="50" x="229.1667" y="114.827">id = 123</text><rect fill="url(#gk37l3cwbe000)" height="55.0049" rx="7.8125" ry="7.8125" style="stroke:#F3F3F3;stroke-width:1.0416666666666667;" width="50" x="370.8333" y="46.7855"/><text fill="#303030" font-family="&quot;Verdana&quot;" font-size="11.4583" lengthAdjust="spacing" textLength="14.5833" x="388.5417" y="69.9214">o1</text><line style="stroke:#F3F3F3;stroke-width:1.0416666666666667;" x1="371.875" x2="419.7917" y1="85.1237" y2="85.1237"/><rect fill="url(#gk37l3cwbe000)" height="55.0049" rx="7.8125" ry="7.8125" style="stroke:#F3F3F3;stroke-width:1.0416666666666667;" width="50" x="439.5833" y="46.7855"/><text fill="#303030" font-family="&quot;Verdana&quot;" font-size="11.4583" lengthAdjust="spacing" textLength="14.5833" x="457.2917" y="69.9214">o2</text><line style="stroke:#F3F3F3;stroke-width:1.0416666666666667;" x1="440.625" x2="488.5417" y1="85.1237" y2="85.1237"/><polygon fill="url(#gk37l3cwbe001)" points="430.2083,276.9938,442.7083,289.4938,430.2083,301.9938,417.7083,289.4938,430.2083,276.9938" style="stroke:#A8A8A8;stroke-width:1.0416666666666667;"/><rect fill="url(#gk37l3cwbe000)" height="55.0049" rx="7.8125" ry="7.8125" style="stroke:#F3F3F3;stroke-width:1.0416666666666667;" width="50" x="405.2083" y="433.7646"/><text fill="#303030" font-family="&quot;Verdana&quot;" font-size="11.4583" lengthAdjust="spacing" textLength="14.5833" x="422.9167" y="456.9005">o3</text><line style="stroke:#F3F3F3;stroke-width:1.0416666666666667;" x1="406.25" x2="454.1667" y1="472.1029" y2="472.1029"/><rect fill="url(#gk37l3cwbe000)" height="55.0049" rx="7.8125" ry="7.8125" style="stroke:#F3F3F3;stroke-width:1.0416666666666667;" width="78.125" x="271.3542" y="261.8896"/><text fill="#303030" font-family="&quot;Verdana&quot;" font-size="11.4583" lengthAdjust="spacing" textLength="42.7083" x="289.0625" y="285.0255">London</text><line style="stroke:#F3F3F3;stroke-width:1.0416666666666667;" x1="272.3958" x2="348.4375" y1="300.2279" y2="300.2279"/><rect height="167.9036" rx="7.8125" ry="7.8125" style="stroke:#F3F3F3;stroke-width:1.0416666666666667;fill:none;" width="212.5" x="17.7083" y="205.6396"/><text fill="#336699" font-family="&quot;Verdana&quot;" font-size="14.5833" lengthAdjust="spacing" textLength="73.9583" x="86.9792" y="231.6762">CapitalCity</text><line style="stroke:#F3F3F3;stroke-width:1.0416666666666667;" x1="17.7083" x2="230.2083" y1="247.6156" y2="247.6156"/><text fill="#336699" font-family="&quot;Verdana&quot;" font-size="14.5833" lengthAdjust="spacing" textLength="19.7917" x="114.0625" y="273.6521">UK</text><line style="stroke:#F3F3F3;stroke-width:1.0416666666666667;" x1="17.7083" x2="230.2083" y1="289.5915" y2="289.5915"/><text fill="#336699" font-family="&quot;Verdana&quot;" font-size="14.5833" lengthAdjust="spacing" textLength="29.1667" x="51.0417" y="315.6281">USA</text><text fill="#336699" font-family="&quot;Verdana&quot;" font-size="14.5833" lengthAdjust="spacing" textLength="85.4167" x="129.1667" y="315.6281">Washington</text><line style="stroke:#F3F3F3;stroke-width:1.0416666666666667;" x1="113.5417" x2="113.5417" y1="289.5915" y2="331.5674"/><line style="stroke:#F3F3F3;stroke-width:1.0416666666666667;" x1="17.7083" x2="230.2083" y1="331.5674" y2="331.5674"/><text fill="#336699" font-family="&quot;Verdana&quot;" font-size="14.5833" lengthAdjust="spacing" textLength="64.5833" x="33.3333" y="357.604">Germany</text><text fill="#336699" font-family="&quot;Verdana&quot;" font-size="14.5833" lengthAdjust="spacing" textLength="40.625" x="129.1667" y="357.604">Berlin</text><line style="stroke:#F3F3F3;stroke-width:1.0416666666666667;" x1="113.5417" x2="113.5417" y1="331.5674" y2="373.5433"/><path d="M400.187,102.4106 C407.7386,149.2077 422.9696,243.5942 428.3078,276.6743 " fill="none" style="stroke:#E2E2E2;stroke-width:3.125;"/><polygon fill="#E2E2E2" points="428.3078,276.6743,430.9277,266.7553,427.478,271.5325,422.7008,268.0828,428.3078,276.6743" style="stroke:#E2E2E2;stroke-width:1.0416666666666667;"/><path d="M460.2297,102.4106 C452.6781,149.2077 437.447,243.5942 432.1089,276.6743 " fill="none" style="stroke:#E2E2E2;stroke-width:3.125;"/><polygon fill="#E2E2E2" points="432.1089,276.6743,437.7159,268.0828,432.9386,271.5325,429.489,266.7553,432.1089,276.6743" style="stroke:#E2E2E2;stroke-width:1.0416666666666667;"/><text fill="#303030" font-family="Verdana" font-size="12.5" lengthAdjust="spacing" textLength="8.3333" x="412.3172" y="263.2771">1</text><text fill="#303030" font-family="Verdana" font-size="12.5" lengthAdjust="spacing" textLength="8.3333" x="440.438" y="125.4717">1</text><path d="M430.2083,302.206 C430.2083,329.1034 430.2083,396.0204 430.2083,433.6119 " fill="none" style="stroke:#E2E2E2;stroke-width:3.125;"/><polygon fill="#E2E2E2" points="430.2083,433.6119,434.375,424.2369,430.2083,428.4035,426.0417,424.2369,430.2083,433.6119" style="stroke:#E2E2E2;stroke-width:1.0416666666666667;"/><path d="M230.2594,289.4938 C244.8169,289.4938 258.9406,289.4938 271.1726,289.4938 " fill="none" style="stroke:#E2E2E2;stroke-width:3.125;"/><polygon fill="#E2E2E2" points="271.1726,289.4938,261.7976,285.3271,265.9643,289.4938,261.7976,293.6605,271.1726,289.4938" style="stroke:#E2E2E2;stroke-width:1.0416666666666667;"/><path d="M123.9583,131.9577 C123.9583,154.5141 123.9583,180.9384 123.9583,205.5841 " fill="none" style="stroke:#E2E2E2;stroke-width:3.125;"/><polygon fill="#E2E2E2" points="123.9583,205.5841,128.125,196.2091,123.9583,200.3757,119.7917,196.2091,123.9583,205.5841" style="stroke:#E2E2E2;stroke-width:1.0416666666666667;"/><text fill="#303030" font-family="Verdana" font-size="12.5" lengthAdjust="spacing" textLength="32.2917" x="135.4167" y="173.4924">visits</text></g></svg>