<?xml version="1.0" encoding="UTF-8" standalone="no"?><svg xmlns="http://www.w3.org/2000/svg" xmlns:xlink="http://www.w3.org/1999/xlink" contentScriptType="application/ecmascript" contentStyleType="text/css" height="224px" preserveAspectRatio="none" style="width:339px;height:224px;background:#777777;" version="1.1" viewBox="0 0 339 224" width="339px" zoomAndPan="magnify"><defs><filter height="300%" id="fnryn4wf6xihw" width="300%" x="-1" y="-1"><feGaussianBlur result="blurOut" stdDeviation="2.0"/><feColorMatrix in="blurOut" result="blurOut2" type="matrix" values="0 0 0 0 0 0 0 0 0 0 0 0 0 0 0 0 0 0 .4 0"/><feOffset dx="4.0" dy="4.0" in="blurOut2" result="blurOut3"/><feBlend in="SourceGraphic" in2="blurOut3" mode="normal"/></filter></defs><g><text fill="#000000" font-family="sans-serif" font-size="18" lengthAdjust="spacing" textLength="223" x="51.5" y="16.708">reddress-darkblue theme</text><rect fill="#2E2E2E" filter="url(#fnryn4wf6xihw)" height="48.0859" style="stroke:#1B1B1B;stroke-width:1.5;" width="104" x="7" y="34.0391"/><text fill="#FFFFFF" font-family="Verdana" font-size="11" lengthAdjust="spacing" textLength="33" x="42.5" y="46.2495">user1</text><line style="stroke:#1B1B1B;stroke-width:1.5;" x1="8" x2="110" y1="50.8438" y2="50.8438"/><text fill="#000000" font-family="sans-serif" font-size="10" lengthAdjust="spacing" textLength="92" x="13" y="64.126">name = "Dummy"</text><text fill="#000000" font-family="sans-serif" font-size="10" lengthAdjust="spacing" textLength="40" x="13" y="75.7666">id = 123</text><rect fill="#2E2E2E" filter="url(#fnryn4wf6xihw)" height="48.0859" style="stroke:#1B1B1B;stroke-width:1.5;" width="104" x="129" y="34.0391"/><text fill="#FFFFFF" font-family="Verdana" font-size="11" lengthAdjust="spacing" textLength="33" x="164.5" y="46.2495">user2</text><line style="stroke:#1B1B1B;stroke-width:1.5;" x1="130" x2="232" y1="50.8438" y2="50.8438"/><text fill="#000000" font-family="sans-serif" font-size="10" lengthAdjust="spacing" textLength="92" x="135" y="64.126">name = "Dummy"</text><text fill="#000000" font-family="sans-serif" font-size="10" lengthAdjust="spacing" textLength="40" x="135" y="75.7666">id = 123</text><rect fill="#2E2E2E" filter="url(#fnryn4wf6xihw)" height="32.8047" style="stroke:#1B1B1B;stroke-width:1.5;" width="28" x="251" y="41.5391"/><text fill="#FFFFFF" font-family="Verdana" font-size="11" lengthAdjust="spacing" textLength="14" x="258" y="53.7495">o1</text><line style="stroke:#1B1B1B;stroke-width:1.5;" x1="252" x2="278" y1="58.3438" y2="58.3438"/><rect fill="#2E2E2E" filter="url(#fnryn4wf6xihw)" height="32.8047" style="stroke:#1B1B1B;stroke-width:1.5;" width="28" x="297" y="41.5391"/><text fill="#FFFFFF" font-family="Verdana" font-size="11" lengthAdjust="spacing" textLength="14" x="304" y="53.7495">o2</text><line style="stroke:#1B1B1B;stroke-width:1.5;" x1="298" x2="324" y1="58.3438" y2="58.3438"/><polygon fill="#2E2E2E" filter="url(#fnryn4wf6xihw)" points="288,118.0391,300,130.0391,288,142.0391,276,130.0391,288,118.0391" style="stroke:#1B1B1B;stroke-width:1.5;"/><rect fill="#2E2E2E" filter="url(#fnryn4wf6xihw)" height="32.8047" style="stroke:#1B1B1B;stroke-width:1.5;" width="28" x="274" y="178.0391"/><text fill="#FFFFFF" font-family="Verdana" font-size="11" lengthAdjust="spacing" textLength="14" x="281" y="190.2495">o3</text><line style="stroke:#1B1B1B;stroke-width:1.5;" x1="275" x2="301" y1="194.8438" y2="194.8438"/><path d="M270.1044,74.5743 C274.3924,87.6246 280.4197,105.9686 284.2679,117.6805 " fill="none" style="stroke:#FFFFFF;stroke-width:1.0;"/><polygon fill="#FFFFFF" points="284.2679,117.6805,285.2586,107.8816,282.7071,112.9303,277.6584,110.3788,284.2679,117.6805" style="stroke:#FFFFFF;stroke-width:1.0;"/><path d="M305.8956,74.5743 C301.6076,87.6246 295.5803,105.9686 291.7321,117.6805 " fill="none" style="stroke:#FFFFFF;stroke-width:1.0;"/><polygon fill="#FFFFFF" points="291.7321,117.6805,298.3416,110.3788,293.2929,112.9303,290.7414,107.8816,291.7321,117.6805" style="stroke:#FFFFFF;stroke-width:1.0;"/><path d="M288,142.2128 C288,152.1845 288,166.8859 288,178.0018 " fill="none" style="stroke:#FFFFFF;stroke-width:1.0;"/><polygon fill="#FFFFFF" points="288,178.0018,292,169.0018,288,173.0018,284,169.0018,288,178.0018" style="stroke:#FFFFFF;stroke-width:1.0;"/></g></svg>