<?xml version="1.0" encoding="UTF-8" standalone="no"?><svg xmlns="http://www.w3.org/2000/svg" xmlns:xlink="http://www.w3.org/1999/xlink" contentScriptType="application/ecmascript" contentStyleType="text/css" height="264px" preserveAspectRatio="none" style="width:348px;height:264px;background:#FFFFFF;" version="1.1" viewBox="0 0 348 264" width="348px" zoomAndPan="magnify"><defs><filter height="300%" id="f1g4embu1d7h8w" width="300%" x="-1" y="-1"><feGaussianBlur result="blurOut" stdDeviation="2.0"/><feColorMatrix in="blurOut" result="blurOut2" type="matrix" values="0 0 0 0 0 0 0 0 0 0 0 0 0 0 0 0 0 0 .4 0"/><feOffset dx="4.0" dy="4.0" in="blurOut2" result="blurOut3"/><feBlend in="SourceGraphic" in2="blurOut3" mode="normal"/></filter></defs><g><text fill="#000000" font-family="sans-serif" font-size="18" lengthAdjust="spacing" textLength="237" x="49" y="16.708">reddress-lightgreen theme</text><rect fill="#CCCCCC" filter="url(#f1g4embu1d7h8w)" height="48.0859" style="stroke:#AAAAAA;stroke-width:1.5;" width="104" x="16" y="34.0391"/><text fill="#000000" font-family="Verdana" font-size="11" lengthAdjust="spacing" textLength="33" x="51.5" y="46.2495">user1</text><line style="stroke:#AAAAAA;stroke-width:1.5;" x1="17" x2="119" y1="50.8438" y2="50.8438"/><text fill="#000000" font-family="sans-serif" font-size="10" lengthAdjust="spacing" textLength="92" x="22" y="64.126">name = "Dummy"</text><text fill="#000000" font-family="sans-serif" font-size="10" lengthAdjust="spacing" textLength="40" x="22" y="75.7666">id = 123</text><rect fill="#CCCCCC" filter="url(#f1g4embu1d7h8w)" height="48.0859" style="stroke:#AAAAAA;stroke-width:1.5;" width="104" x="138" y="34.0391"/><text fill="#000000" font-family="Verdana" font-size="11" lengthAdjust="spacing" textLength="33" x="173.5" y="46.2495">user2</text><line style="stroke:#AAAAAA;stroke-width:1.5;" x1="139" x2="241" y1="50.8438" y2="50.8438"/><text fill="#000000" font-family="sans-serif" font-size="10" lengthAdjust="spacing" textLength="92" x="144" y="64.126">name = "Dummy"</text><text fill="#000000" font-family="sans-serif" font-size="10" lengthAdjust="spacing" textLength="40" x="144" y="75.7666">id = 123</text><rect fill="#CCCCCC" filter="url(#f1g4embu1d7h8w)" height="32.8047" style="stroke:#AAAAAA;stroke-width:1.5;" width="28" x="260" y="41.5391"/><text fill="#000000" font-family="Verdana" font-size="11" lengthAdjust="spacing" textLength="14" x="267" y="53.7495">o1</text><line style="stroke:#AAAAAA;stroke-width:1.5;" x1="261" x2="287" y1="58.3438" y2="58.3438"/><rect fill="#CCCCCC" filter="url(#f1g4embu1d7h8w)" height="32.8047" style="stroke:#AAAAAA;stroke-width:1.5;" width="28" x="306" y="41.5391"/><text fill="#000000" font-family="Verdana" font-size="11" lengthAdjust="spacing" textLength="14" x="313" y="53.7495">o2</text><line style="stroke:#AAAAAA;stroke-width:1.5;" x1="307" x2="333" y1="58.3438" y2="58.3438"/><polygon fill="#CCCCCC" filter="url(#f1g4embu1d7h8w)" points="297,138.0391,309,150.0391,297,162.0391,285,150.0391,297,138.0391" style="stroke:#AAAAAA;stroke-width:1.5;"/><rect fill="#CCCCCC" filter="url(#f1g4embu1d7h8w)" height="32.8047" style="stroke:#AAAAAA;stroke-width:1.5;" width="28" x="283" y="218.0391"/><text fill="#000000" font-family="Verdana" font-size="11" lengthAdjust="spacing" textLength="14" x="290" y="230.2495">o3</text><line style="stroke:#AAAAAA;stroke-width:1.5;" x1="284" x2="310" y1="234.8438" y2="234.8438"/><rect fill="#CCCCCC" filter="url(#f1g4embu1d7h8w)" height="32.8047" style="stroke:#AAAAAA;stroke-width:1.5;" width="55" x="147.5" y="133.5391"/><text fill="#000000" font-family="Verdana" font-size="11" lengthAdjust="spacing" textLength="41" x="154.5" y="145.7495">London</text><line style="stroke:#AAAAAA;stroke-width:1.5;" x1="148.5" x2="201.5" y1="150.3438" y2="150.3438"/><rect fill="#CCCCCC" filter="url(#f1g4embu1d7h8w)" height="63.7266" style="stroke:#AAAAAA;stroke-width:1.5;" width="122" x="7" y="118.0391"/><text fill="#000000" font-family="Verdana" font-size="11" lengthAdjust="spacing" textLength="60" x="38" y="130.2495">CapitalCity</text><line style="stroke:#AAAAAA;stroke-width:1.0;" x1="7" x2="129" y1="134.8438" y2="134.8438"/><text fill="#000000" font-family="sans-serif" font-size="10" lengthAdjust="spacing" textLength="15" x="60.5" y="146.126">UK</text><line style="stroke:#AAAAAA;stroke-width:1.0;" x1="7" x2="129" y1="150.4844" y2="150.4844"/><text fill="#000000" font-family="sans-serif" font-size="10" lengthAdjust="spacing" textLength="22" x="24" y="161.7666">USA</text><text fill="#000000" font-family="sans-serif" font-size="10" lengthAdjust="spacing" textLength="56" x="68" y="161.7666">Washington</text><line style="stroke:#AAAAAA;stroke-width:1.0;" x1="63" x2="63" y1="150.4844" y2="166.125"/><line style="stroke:#AAAAAA;stroke-width:1.0;" x1="7" x2="129" y1="166.125" y2="166.125"/><text fill="#000000" font-family="sans-serif" font-size="10" lengthAdjust="spacing" textLength="46" x="12" y="177.4072">Germany</text><text fill="#000000" font-family="sans-serif" font-size="10" lengthAdjust="spacing" textLength="27" x="68" y="177.4072">Berlin</text><line style="stroke:#AAAAAA;stroke-width:1.0;" x1="63" x2="63" y1="166.125" y2="181.7656"/><path d="M278.0063,74.7159 C282.6139,92.7456 290.0642,121.899 294.1292,137.8055 " fill="none" style="stroke:#000000;stroke-width:1.0;"/><polygon fill="#000000" points="294.1292,137.8055,295.7763,128.0953,292.8912,132.9611,288.0254,130.0761,294.1292,137.8055" style="stroke:#000000;stroke-width:1.0;"/><path d="M315.9937,74.7159 C311.3861,92.7456 303.9358,121.899 299.8708,137.8055 " fill="none" style="stroke:#000000;stroke-width:1.0;"/><polygon fill="#000000" points="299.8708,137.8055,305.9746,130.0761,301.1088,132.9611,298.2237,128.0953,299.8708,137.8055" style="stroke:#000000;stroke-width:1.0;"/><path d="M297,162.1654 C297,176.5036 297,201.5187 297,217.8014 " fill="none" style="stroke:#000000;stroke-width:1.0;"/><polygon fill="#000000" points="297,217.8014,301,208.8014,297,212.8014,293,208.8014,297,217.8014" style="stroke:#000000;stroke-width:1.0;"/><path d="M129.0234,150.0391 C135.1297,150.0391 141.236,150.0391 147.3422,150.0391 " fill="none" style="stroke:#000000;stroke-width:1.0;"/><polygon fill="#000000" points="147.3422,150.0391,138.3422,146.0391,142.3422,150.0391,138.3422,154.0391,147.3422,150.0391" style="stroke:#000000;stroke-width:1.0;"/><path d="M68,82.2163 C68,93.0495 68,106.1091 68,117.7982 " fill="none" style="stroke:#000000;stroke-width:1.0;"/><polygon fill="#000000" points="68,117.7982,72,108.7982,68,112.7982,64,108.7982,68,117.7982" style="stroke:#000000;stroke-width:1.0;"/></g></svg>