<?xml version="1.0" encoding="UTF-8" standalone="no"?><svg xmlns="http://www.w3.org/2000/svg" xmlns:xlink="http://www.w3.org/1999/xlink" contentStyleType="text/css" height="447.9167px" preserveAspectRatio="none" style="width:580px;height:447px;" version="1.1" viewBox="0 0 580 447" width="580.2083px" zoomAndPan="magnify"><defs/><g><g id="elem_user1"><polygon fill="none" points="45.3125,47.7539,45.3125,47.9728,55.3819,47.3223,65.4514,47.9552,75.5208,48.1702,85.5903,47.0108,95.6597,47.673,105.7292,47.3096,115.7986,47.3544,125.8681,47.6829,135.9375,47.0337,146.0069,48.3306,156.0764,47.0974,166.1458,47.7539,166.1196,47.6905,166.7925,48.1365,167.3129,48.2145,167.9227,48.508,168.4986,48.72,169.0921,48.9743,169.1494,48.998,169.4129,49.5953,169.7682,50.2306,170.0396,50.8312,170.2863,51.4216,170.3125,51.9206,170.5777,51.9206,170.7954,62.6965,171.044,73.4724,169.5613,84.2483,171.0193,95.0242,170.0036,105.8001,170.8686,116.576,170.3125,127.3519,170.1537,127.2861,170.0464,127.932,170.0622,128.6289,169.5646,129.1132,169.37,129.7229,169.0921,130.2982,169.1371,130.4068,168.5582,130.6758,167.9131,130.7851,167.3625,131.1225,166.659,131.0909,166.1458,131.5186,166.1458,131.8148,156.0764,132.0896,146.0069,131.9816,135.9375,132.1571,125.8681,131.0153,115.7986,130.8392,105.7292,130.8713,95.6597,131.4572,85.5903,131.3138,75.5208,132.2284,65.4514,131.3366,55.3819,131.1612,45.3125,131.5186,45.3428,131.5918,44.6346,131.0606,44.065,130.8639,43.631,130.9945,43.0134,130.682,42.3662,130.2982,42.6018,130.3958,42.0189,129.6662,41.9805,129.1621,41.8234,128.6089,41.2384,127.8784,41.1458,127.3519,41.046,127.3519,41.2771,116.576,41.8247,105.8001,41.1415,95.0242,41.6277,84.2483,40.569,73.4724,40.4404,62.6965,41.1458,51.9206,41.3074,51.9875,41.1599,51.2361,41.7973,50.8097,41.9444,50.1803,42.0362,49.528,42.3662,48.9743,42.3192,48.8608,43.0164,48.8774,43.505,48.3901,44.2126,48.4319,44.6498,47.8207,45.3125,47.7539" style="stroke:#333333;stroke-width:1.0416666666666667;"/><text fill="#2E2E2E" font-family="Segoe Print" font-size="11.4583" lengthAdjust="spacing" textLength="34.375" x="88.5417" y="65.6815">user1</text><path d="M42.1875,75.6755 L42.1875,75.9674 L52.7778,75.1 L63.3681,75.9439 L73.9583,76.2306 L84.5486,74.6846 L95.1389,75.5675 L105.7292,75.0831 L116.3194,75.1428 L126.9097,75.5808 L137.5,74.7152 L148.0903,76.4444 L158.6806,74.8001 L169.2708,75.6755 " fill="none" style="stroke:#333333;stroke-width:1.0416666666666667;"/><text fill="#2E2E2E" font-family="Segoe Print" font-size="11.4583" lengthAdjust="spacing" textLength="106.25" x="52.6042" y="95.6863">name = "Dummy"</text><text fill="#2E2E2E" font-family="Segoe Print" font-size="11.4583" lengthAdjust="spacing" textLength="50" x="52.6042" y="119.4412">id = 123</text></g><g id="elem_user2"><polygon fill="none" points="193.2292,47.7539,193.2292,47.9728,203.2986,47.3223,213.3681,47.9552,223.4375,48.1702,233.5069,47.0108,243.5764,47.673,253.6458,47.3096,263.7153,47.3544,273.7847,47.6829,283.8542,47.0337,293.9236,48.3306,303.9931,47.0974,314.0625,47.7539,314.0362,47.6905,314.7092,48.1365,315.2296,48.2145,315.8393,48.508,316.4153,48.72,317.0088,48.9743,317.066,48.998,317.3296,49.5953,317.6848,50.2306,317.9563,50.8312,318.203,51.4216,318.2292,51.9206,318.4944,51.9206,318.7121,62.6965,318.9607,73.4724,317.4779,84.2483,318.9359,95.0242,317.9203,105.8001,318.7852,116.576,318.2292,127.3519,318.0704,127.2861,317.9631,127.932,317.9789,128.6289,317.4813,129.1132,317.2866,129.7229,317.0088,130.2982,317.0538,130.4068,316.4748,130.6758,315.8297,130.7851,315.2792,131.1225,314.5757,131.0909,314.0625,131.5186,314.0625,131.8148,303.9931,132.0896,293.9236,131.9816,283.8542,132.1571,273.7847,131.0153,263.7153,130.8392,253.6458,130.8713,243.5764,131.4572,233.5069,131.3138,223.4375,132.2284,213.3681,131.3366,203.2986,131.1612,193.2292,131.5186,193.2595,131.5918,192.5513,131.0606,191.9817,130.8639,191.5476,130.9945,190.93,130.682,190.2829,130.2982,190.5185,130.3958,189.9356,129.6662,189.8971,129.1621,189.7401,128.6089,189.155,127.8784,189.0625,127.3519,188.9626,127.3519,189.1937,116.576,189.7414,105.8001,189.0581,95.0242,189.5443,84.2483,188.4856,73.4724,188.357,62.6965,189.0625,51.9206,189.2241,51.9875,189.0766,51.2361,189.7139,50.8097,189.861,50.1803,189.9529,49.528,190.2829,48.9743,190.2359,48.8608,190.9331,48.8774,191.4216,48.3901,192.1293,48.4319,192.5665,47.8207,193.2292,47.7539" style="stroke:#333333;stroke-width:1.0416666666666667;"/><text fill="#2E2E2E" font-family="Segoe Print" font-size="11.4583" lengthAdjust="spacing" textLength="34.375" x="236.4583" y="65.6815">user2</text><path d="M190.1042,75.6755 L190.1042,75.9674 L200.6944,75.1 L211.2847,75.9439 L221.875,76.2306 L232.4653,74.6846 L243.0556,75.5675 L253.6458,75.0831 L264.2361,75.1428 L274.8264,75.5808 L285.4167,74.7152 L296.0069,76.4444 L306.5972,74.8001 L317.1875,75.6755 " fill="none" style="stroke:#333333;stroke-width:1.0416666666666667;"/><text fill="#2E2E2E" font-family="Segoe Print" font-size="11.4583" lengthAdjust="spacing" textLength="106.25" x="200.5208" y="95.6863">name = "Dummy"</text><text fill="#2E2E2E" font-family="Segoe Print" font-size="11.4583" lengthAdjust="spacing" textLength="50" x="200.5208" y="119.4412">id = 123</text></g><g id="elem_o1"><polygon fill="none" points="341.1458,67.0247,341.1458,67.0977,347.3958,66.8809,353.6458,67.0919,359.8958,67.1635,366.1458,66.777,372.3958,67.0247,372.3855,66.9998,372.9284,67.132,373.5234,67.3899,374.1545,67.7351,374.661,67.7793,375.3421,68.2451,375.5197,68.3187,375.384,68.7506,375.7668,69.3974,376.2129,70.0703,376.2909,70.5908,376.5625,71.1914,376.5862,71.1914,376.5514,78.4424,376.6245,85.6934,376.6455,92.9443,376.7659,100.1953,376.5625,107.4463,376.7778,107.5355,376.5363,108.1258,376.156,108.6586,375.979,109.2757,375.8115,109.8966,375.3421,110.3926,375.2463,110.1612,374.843,110.8543,374.1242,110.7856,373.6453,111.296,372.9193,111.2101,372.3958,111.613,372.3958,111.5892,366.1458,111.8705,359.8958,111.596,353.6458,111.6495,347.3958,111.7305,341.1458,111.613,341.2011,111.7465,340.5561,111.3676,340.0055,111.2169,339.302,110.6971,338.8266,110.7279,338.1996,110.3926,338.3754,110.4654,338.0981,109.8624,337.9081,109.2955,337.3124,108.5606,337.014,107.9489,336.9792,107.4463,336.7634,107.4463,336.9587,100.1953,336.9109,92.9443,337.2158,85.6934,336.9185,78.4424,336.9792,71.1914,336.8691,71.1458,337.2965,70.6325,337.2534,69.9243,337.5449,69.3547,338.1637,68.9206,338.1996,68.2451,338.2574,68.3849,338.8864,68.2367,339.3353,67.6537,340.0097,67.6153,340.635,67.4582,341.1458,67.0247" style="stroke:#333333;stroke-width:1.0416666666666667;"/><text fill="#2E2E2E" font-family="Segoe Print" font-size="11.4583" lengthAdjust="spacing" textLength="14.5833" x="349.4792" y="84.9523">o1</text><path d="M338.0208,94.9463 L338.0208,95.0436 L345.5208,94.7545 L353.0208,95.0358 L360.5208,95.1313 L368.0208,94.616 L375.5208,94.9463 " fill="none" style="stroke:#333333;stroke-width:1.0416666666666667;"/></g><g id="elem_o2"><polygon fill="none" points="399.4792,67.0247,399.4792,67.0977,405.7292,66.8809,411.9792,67.0919,418.2292,67.1635,424.4792,66.777,430.7292,67.0247,430.7188,66.9998,431.2618,67.132,431.8567,67.3899,432.4879,67.7351,432.9943,67.7793,433.6754,68.2451,433.853,68.3187,433.7173,68.7506,434.1002,69.3974,434.5462,70.0703,434.6242,70.5908,434.8958,71.1914,434.9195,71.1914,434.8847,78.4424,434.9578,85.6934,434.9789,92.9443,435.0992,100.1953,434.8958,107.4463,435.1111,107.5355,434.8697,108.1258,434.4894,108.6586,434.3123,109.2757,434.1448,109.8966,433.6754,110.3926,433.5796,110.1612,433.1763,110.8543,432.4575,110.7856,431.9786,111.296,431.2526,111.2101,430.7292,111.613,430.7292,111.5892,424.4792,111.8705,418.2292,111.596,411.9792,111.6495,405.7292,111.7305,399.4792,111.613,399.5345,111.7465,398.8894,111.3676,398.3388,111.2169,397.6353,110.6971,397.1599,110.7279,396.5329,110.3926,396.7087,110.4654,396.4314,109.8624,396.2414,109.2955,395.6457,108.5606,395.3474,107.9489,395.3125,107.4463,395.0967,107.4463,395.2921,100.1953,395.2443,92.9443,395.5491,85.6934,395.2518,78.4424,395.3125,71.1914,395.2025,71.1458,395.6298,70.6325,395.5867,69.9243,395.8782,69.3547,396.497,68.9206,396.5329,68.2451,396.5908,68.3849,397.2197,68.2367,397.6686,67.6537,398.3431,67.6153,398.9684,67.4582,399.4792,67.0247" style="stroke:#333333;stroke-width:1.0416666666666667;"/><text fill="#2E2E2E" font-family="Segoe Print" font-size="11.4583" lengthAdjust="spacing" textLength="14.5833" x="407.8125" y="84.9523">o2</text><path d="M396.3542,94.9463 L396.3542,95.0436 L403.8542,94.7545 L411.3542,95.0358 L418.8542,95.1313 L426.3542,94.616 L433.8542,94.9463 " fill="none" style="stroke:#333333;stroke-width:1.0416666666666667;"/></g><g id="elem_dia"><polygon fill="none" points="385.9375,271.7122,385.9891,271.7638,388.3358,274.1105,390.985,276.7597,393.5356,279.3104,395.7623,281.5371,398.4375,284.2122,398.4184,284.1932,395.8328,286.6075,393.3433,289.1181,390.9208,291.6955,388.2678,294.0425,385.9375,296.7122,386.0734,296.8482,383.2828,294.0575,380.8889,291.6637,378.5436,289.3183,375.9164,286.6912,373.4375,284.2122,373.4543,284.229,375.9297,281.7044,378.4813,279.2561,380.9962,276.771,383.5813,274.356,385.9375,271.7122" style="stroke:#4D4D4D;stroke-width:1.0416666666666667;"/></g><g id="elem_o3"><polygon fill="none" points="370.3125,392.5456,370.3125,392.6186,376.5625,392.4017,382.8125,392.6127,389.0625,392.6844,395.3125,392.2979,401.5625,392.5456,401.5522,392.5206,402.0951,392.6528,402.6901,392.9107,403.3212,393.2559,403.8277,393.3001,404.5088,393.766,404.6864,393.8395,404.5507,394.2715,404.9335,394.9182,405.3796,395.5911,405.4576,396.1116,405.7292,396.7122,405.7529,396.7122,405.7181,403.9632,405.7912,411.2142,405.8122,418.4652,405.9325,425.7161,405.7292,432.9671,405.9444,433.0563,405.703,433.6466,405.3227,434.1795,405.1456,434.7965,404.9781,435.4175,404.5088,435.9134,404.4129,435.6821,404.0097,436.3751,403.2909,436.3064,402.8119,436.8169,402.086,436.7309,401.5625,437.1338,401.5625,437.11,395.3125,437.3913,389.0625,437.1169,382.8125,437.1704,376.5625,437.2514,370.3125,437.1338,370.3678,437.2673,369.7227,436.8885,369.1722,436.7378,368.4687,436.2179,367.9933,436.2487,367.3662,435.9134,367.5421,435.9862,367.2647,435.3832,367.0747,434.8163,366.479,434.0814,366.1807,433.4697,366.1458,432.9671,365.9301,432.9671,366.1254,425.7161,366.0776,418.4652,366.3824,411.2142,366.0852,403.9632,366.1458,396.7122,366.0358,396.6667,366.4631,396.1533,366.4201,395.4451,366.7115,394.8755,367.3303,394.4414,367.3662,393.766,367.4241,393.9057,368.0531,393.7575,368.502,393.1746,369.1764,393.1361,369.8017,392.9791,370.3125,392.5456" style="stroke:#333333;stroke-width:1.0416666666666667;"/><text fill="#2E2E2E" font-family="Segoe Print" font-size="11.4583" lengthAdjust="spacing" textLength="14.5833" x="378.6458" y="410.4731">o3</text><path d="M367.1875,420.4671 L367.1875,420.5644 L374.6875,420.2753 L382.1875,420.5566 L389.6875,420.6522 L397.1875,420.1368 L404.6875,420.4671 " fill="none" style="stroke:#333333;stroke-width:1.0416666666666667;"/></g><g id="elem_London"><polygon fill="none" points="229.1667,261.8164,229.1667,262.0353,239.0625,261.3848,248.9583,262.0177,258.8542,262.2327,268.75,261.0733,278.6458,261.7355,288.5417,261.8164,288.485,261.6796,289.08,261.9375,289.7111,262.2827,290.2176,262.3269,290.9723,262.9703,291.4879,263.0368,291.2858,262.953,291.6686,263.5998,292.1147,264.2727,292.1927,264.7932,292.4861,265.4029,292.7083,265.9831,292.6972,265.9831,292.7703,273.234,292.7914,280.485,292.9117,287.736,292.9413,294.987,292.7083,302.238,292.9262,302.3282,292.5459,302.861,292.3689,303.4781,292.2014,304.099,291.5007,304.4991,291.4879,305.1842,291.5781,305.4019,290.8593,305.3332,290.3804,305.8436,289.6544,305.7577,289.1218,306.1386,288.5417,306.4046,288.5417,307.1771,278.6458,306.3539,268.75,306.5143,258.8542,306.7574,248.9583,306.8382,239.0625,306.4006,229.1667,306.4046,229.2048,306.4968,228.5014,305.9769,228.0259,306.0077,227.4717,305.8482,226.8687,305.5709,226.2204,305.1842,226.417,305.2657,225.8213,304.5308,225.523,303.9191,225.2888,303.3339,225.2252,302.8194,225,302.238,224.9318,302.238,225.2366,294.987,224.9393,287.736,224.8809,280.485,225.0793,273.234,225,265.9831,224.7861,265.8945,225.0775,265.3248,225.6963,264.8908,225.872,264.2732,226.2119,263.7236,226.2204,263.0368,226.1776,262.9336,226.8521,262.8951,227.4774,262.738,227.9254,262.153,228.5647,262.0297,229.1667,261.8164" style="stroke:#333333;stroke-width:1.0416666666666667;"/><text fill="#2E2E2E" font-family="Segoe Print" font-size="11.4583" lengthAdjust="spacing" textLength="42.7083" x="237.5" y="279.744">London</text><path d="M226.0417,289.738 L226.0417,290.0299 L236.9792,289.1625 L247.9167,290.0064 L258.8542,290.2931 L269.7917,288.7471 L280.7292,289.63 L291.6667,289.738 " fill="none" style="stroke:#333333;stroke-width:1.0416666666666667;"/></g><g id="elem_CapitalCity"><polygon fill="none" points="21.875,225.8789,21.875,226.0978,32.3568,225.4473,42.8385,226.0802,53.3203,226.2952,63.8021,225.1358,74.2839,225.798,84.7656,225.4346,95.2474,225.4794,105.7292,225.8079,116.2109,225.1587,126.6927,226.4556,137.1745,225.2224,147.6563,225.6729,158.138,226.3289,168.6198,225.7896,179.1016,225.95,189.5833,225.8789,189.5791,225.8687,190.1963,226.1803,190.7936,226.4438,191.4289,226.799,192.0295,227.0705,192.5296,227.0993,192.7475,227.1896,192.8554,227.7224,193.1665,228.3394,193.4871,228.9604,193.2746,229.3605,193.75,230.0456,194.4568,230.0456,193.4411,240.8659,194.3061,251.6862,193.2344,262.5065,193.6786,273.3268,194.5225,284.1471,193.6992,294.9674,193.8597,305.7878,194.1027,316.6081,194.1836,327.4284,193.75,338.2487,193.7487,338.2482,193.5981,338.8761,193.0782,339.3511,193.109,340.0543,192.9495,340.6786,192.5296,341.195,192.5887,341.3376,192.0218,341.6357,191.2869,341.5282,190.6752,341.718,190.09,341.9719,189.5833,342.4154,189.5833,342.354,179.1016,342.2106,168.6198,343.1252,158.138,342.2334,147.6563,342.058,137.1745,342.6531,126.6927,341.7207,116.2109,341.8746,105.7292,343.0914,95.2474,342.8692,84.7656,343.1805,74.2839,342.0802,63.8021,342.7479,53.3203,343.0304,42.8385,341.9233,32.3568,342.3155,21.875,342.4154,21.8917,342.4558,21.3723,342.3804,20.6959,341.9259,20.1687,341.8315,19.4444,341.2614,18.9287,341.195,18.7115,341.105,18.8462,340.6726,18.2106,339.9212,18.3598,339.4948,18.0187,338.8654,17.7083,338.2487,17.4293,338.2487,17.3398,327.4284,18.1862,316.6081,17.3965,305.7878,18.3249,294.9674,17.1326,284.1471,18.3515,273.3268,18.2128,262.5065,17.9635,251.6862,17.7575,240.8659,17.7083,230.0456,17.9414,230.1421,18.1492,229.5378,18.2508,228.8896,18.5266,228.3134,18.6429,227.6712,18.9287,227.0993,19.0239,227.3291,19.5386,226.9049,20.1302,226.6665,20.6157,226.1719,21.2319,225.993,21.875,225.8789" style="stroke:#2E2E2E;stroke-width:1.0416666666666667;"/><text fill="#2E2E2E" font-family="Segoe Print" font-size="12.5" lengthAdjust="spacing" textLength="67.7083" x="71.875" y="244.7734">CapitalCity</text><path d="M17.7083,255.013 L17.7083,255.3049 L28.0637,254.4376 L38.4191,255.2815 L48.7745,255.5681 L59.1299,254.0222 L69.4853,254.9051 L79.8407,254.4207 L90.1961,254.4804 L100.5515,254.9184 L110.9069,254.0528 L121.2623,255.782 L131.6176,254.1376 L141.973,254.7383 L152.3284,255.6129 L162.6838,254.8939 L173.0392,255.1078 L183.3946,254.9686 L193.75,255.013 " fill="none" style="stroke:#2E2E2E;stroke-width:1.0416666666666667;"/><text fill="#2E2E2E" font-family="Segoe Print" font-size="12.5" lengthAdjust="spacing" textLength="16.6667" x="97.3958" y="273.9075">UK</text><path d="M17.7083,284.1471 L17.7083,284.4391 L28.0637,283.5717 L38.4191,284.4156 L48.7745,284.7022 L59.1299,283.1563 L69.4853,284.0392 L79.8407,283.5548 L90.1961,283.6145 L100.5515,284.0525 L110.9069,283.1869 L121.2623,284.9161 L131.6176,283.2717 L141.973,283.8725 L152.3284,284.7471 L162.6838,284.028 L173.0392,284.2419 L183.3946,284.1028 L193.75,284.1471 " fill="none" style="stroke:#2E2E2E;stroke-width:1.0416666666666667;"/><text fill="#2E2E2E" font-family="Segoe Print" font-size="12.5" lengthAdjust="spacing" textLength="26.0417" x="43.75" y="303.0416">USA</text><text fill="#2E2E2E" font-family="Segoe Print" font-size="12.5" lengthAdjust="spacing" textLength="77.0833" x="106.25" y="303.0416">Washington</text><path d="M95.8333,284.1471 L95.9306,284.1471 L95.6415,289.974 L95.9228,295.8008 L96.0184,301.6276 L95.5031,307.4544 L95.8333,313.2813 " fill="none" style="stroke:#2E2E2E;stroke-width:1.0416666666666667;"/><path d="M17.7083,313.2813 L17.7083,313.5732 L28.0637,312.7058 L38.4191,313.5497 L48.7745,313.8364 L59.1299,312.2904 L69.4853,313.1733 L79.8407,312.6889 L90.1961,312.7486 L100.5515,313.1866 L110.9069,312.321 L121.2623,314.0502 L131.6176,312.4059 L141.973,313.0066 L152.3284,313.8812 L162.6838,313.1621 L173.0392,313.376 L183.3946,313.2369 L193.75,313.2813 " fill="none" style="stroke:#2E2E2E;stroke-width:1.0416666666666667;"/><text fill="#2E2E2E" font-family="Segoe Print" font-size="12.5" lengthAdjust="spacing" textLength="57.2917" x="28.125" y="332.1757">Germany</text><text fill="#2E2E2E" font-family="Segoe Print" font-size="12.5" lengthAdjust="spacing" textLength="36.4583" x="106.25" y="332.1757">Berlin</text><path d="M95.8333,313.2813 L95.9306,313.2813 L95.6415,319.1081 L95.9228,324.9349 L96.0184,330.7617 L95.5031,336.5885 L95.8333,342.4154 " fill="none" style="stroke:#2E2E2E;stroke-width:1.0416666666666667;"/></g><polygon fill="none" points="458.3333,16.5039,458.3333,16.7228,468.8542,16.0723,479.375,16.7052,489.8958,16.9202,500.4167,15.7608,510.9375,16.423,521.4583,16.0596,531.9792,16.1044,542.5,16.4329,553.0208,15.7837,563.5417,16.5039,563.6152,16.6815,564.0472,16.5458,564.6939,16.9286,565.3668,17.3747,565.8873,17.4527,566.4879,17.7243,566.5098,17.7334,566.7218,18.3093,567.0334,18.9265,567.2969,19.5238,567.6521,20.1591,567.7083,20.6706,568.4073,20.6706,568.4159,31.235,567.9736,41.7994,568.1912,52.3638,568.4398,62.9282,566.9571,73.4926,568.4151,84.057,567.3995,94.6214,568.2644,105.1858,567.1927,115.7502,567.637,126.3146,568.4808,136.879,567.6576,147.4434,567.7083,158.0078,567.7421,158.0218,567.5729,158.6421,567.3537,159.2416,566.9748,159.7751,566.8242,160.403,566.4879,160.9541,566.4119,160.7705,565.9365,161.2894,565.3823,161.6181,564.7792,161.8289,564.2124,162.1271,563.5417,162.1745,563.5417,161.6713,553.0208,161.4951,542.5,161.5272,531.9792,162.1131,521.4583,161.9698,510.9375,162.8843,500.4167,161.9925,489.8958,161.8171,479.375,162.4123,468.8542,161.4799,458.3333,162.1745,458.2644,162.0079,457.8303,162.1386,457.2127,161.8261,456.6632,161.6779,455.9336,161.0949,455.3871,160.9541,455.4895,160.9965,455.3324,160.4433,454.7474,159.7128,454.6241,159.1736,454.4512,158.6138,454.1667,158.0078,454.8456,158.0078,454.1623,147.4434,454.6485,136.879,453.5898,126.3146,453.4612,115.7502,454.6913,105.1858,453.4199,94.6214,454.6968,84.057,454.3819,73.4926,453.8876,62.9282,453.7982,52.3638,454.6445,41.7994,453.8549,31.235,454.1667,20.6706,454.3565,20.7492,454.2334,20.0079,454.8529,19.5741,455.0543,18.9672,455.2216,18.3461,455.3871,17.7243,455.3933,17.7394,456.0729,17.7133,456.6471,17.433,457.1773,17.0464,457.7797,16.834,458.3333,16.5039" style="stroke:#2E2E2E;stroke-width:1.0416666666666667;"/><text fill="#2E2E2E" font-family="Segoe Print" font-size="12.5" lengthAdjust="spacing" textLength="27.0833" x="497.3958" y="35.3984">json</text><path d="M507.2917,45.638 L507.5836,45.638 L506.7162,56.2322 L507.5601,66.8265 L507.8468,77.4207 L506.3008,88.0149 L507.1837,98.6091 L506.6993,109.2034 L506.759,119.7976 L507.197,130.3918 L506.3314,140.986 L508.0606,151.5803 L507.2917,162.1745 " fill="none" style="stroke:#2E2E2E;stroke-width:1.0416666666666667;"/><path d="M454.1667,45.638 L454.1667,45.9299 L464.4886,45.0626 L474.8106,45.9065 L485.1326,46.1931 L495.4545,44.6472 L505.7765,45.5301 L516.0985,45.0457 L526.4205,45.1054 L536.7424,45.5434 L547.0644,44.6778 L557.3864,46.407 L567.7083,45.638 " fill="none" style="stroke:#2E2E2E;stroke-width:1.0416666666666667;"/><text fill="#2E2E2E" font-family="Segoe Print" font-size="12.5" lengthAdjust="spacing" textLength="26.0417" x="464.5833" y="64.5325">fruit</text><text fill="#2E2E2E" font-family="Segoe Print" font-size="12.5" lengthAdjust="spacing" textLength="36.4583" x="517.7083" y="64.5325">Apple</text><path d="M454.1667,74.7721 L454.1667,75.0641 L464.4886,74.1967 L474.8106,75.0406 L485.1326,75.3272 L495.4545,73.7813 L505.7765,74.6642 L516.0985,74.1798 L526.4205,74.2395 L536.7424,74.6775 L547.0644,73.8119 L557.3864,75.5411 L567.7083,74.7721 " fill="none" style="stroke:#2E2E2E;stroke-width:1.0416666666666667;"/><text fill="#2E2E2E" font-family="Segoe Print" font-size="12.5" lengthAdjust="spacing" textLength="23.9583" x="464.5833" y="93.6666">size</text><text fill="#2E2E2E" font-family="Segoe Print" font-size="12.5" lengthAdjust="spacing" textLength="36.4583" x="517.7083" y="93.6666">Large</text><path d="M454.1667,103.9063 L454.1667,104.1982 L464.4886,103.3308 L474.8106,104.1747 L485.1326,104.4614 L495.4545,102.9154 L505.7765,103.7983 L516.0985,103.3139 L526.4205,103.3736 L536.7424,103.8116 L547.0644,102.946 L557.3864,104.6752 L567.7083,103.9063 " fill="none" style="stroke:#2E2E2E;stroke-width:1.0416666666666667;"/><text fill="#2E2E2E" font-family="Segoe Print" font-size="12.5" lengthAdjust="spacing" textLength="32.2917" x="464.5833" y="122.8007">color</text><text fill="#2E2E2E" font-family="Segoe Print" font-size="12.5" lengthAdjust="spacing" textLength="25" x="517.7083" y="122.8007">Red</text><path d="M507.2917,133.0404 L507.2917,133.3323 L517.3611,132.4649 L527.4306,133.3088 L537.5,133.5955 L547.5694,132.0495 L557.6389,132.9324 L567.7083,133.0404 " fill="none" style="stroke:#2E2E2E;stroke-width:1.0416666666666667;"/><text fill="#2E2E2E" font-family="Segoe Print" font-size="12.5" lengthAdjust="spacing" textLength="39.5833" x="517.7083" y="151.9348">Green</text><path d="M360.0036,111.8217 L360.2922,111.8654 L360.9466,121.7253 L363.293,131.8413 L365.0883,141.8739 L365.0718,151.6323 L367.4567,161.7541 L368.4897,171.6714 L370.0607,181.67 L372.0057,191.7253 L372.6618,201.5855 L375.8835,211.834 L375.7696,221.5776 L377.8755,231.6572 L380.2522,241.7778 L381.0532,251.6599 L382.7767,261.6817 L384.1949,271.6572 " fill="none" style="stroke:#333333;stroke-width:3.125;"/><polygon fill="#333333" points="384.1949,271.6572,384.2653,271.6765,384.5996,269.6405,385.3464,267.7178,385.9588,265.7582,386.1295,263.6772,386.9117,261.7642,386.89,261.7482,386.0933,262.625,385.4061,263.5825,384.795,264.5962,383.9215,265.4164,383.4155,266.5075,383.5296,266.6623,382.337,265.6321,381.4775,265.0537,380.6585,264.5305,379.6032,263.6866,378.6722,263.0113,378.6922,263.024,379.7674,264.7345,380.9336,266.503,382.0558,268.2435,383.2618,270.0375,384.1949,271.6572" style="stroke:#333333;stroke-width:1.0416666666666667;"/><path d="M411.8714,111.8217 L412.16,111.8654 L409.7905,121.7253 L409.1129,131.8413 L407.8844,141.8739 L404.8439,151.6323 L404.2049,161.7541 L402.214,171.6714 L400.761,181.67 L399.6821,191.7253 L397.3143,201.5855 L397.5121,211.834 L394.3743,221.5776 L393.4563,231.6572 L392.8091,241.7778 L390.5862,251.6599 L389.2857,261.6817 L387.6801,271.6572 " fill="none" style="stroke:#333333;stroke-width:3.125;"/><polygon fill="#333333" points="387.6801,271.6572,387.7416,271.6965,388.6634,269.8506,389.9457,268.235,391.1106,266.5444,391.8895,264.6071,393.2028,263.0113,393.1867,262.9896,392.1662,263.5913,391.2264,264.3026,390.3427,265.09,389.2657,265.615,388.4595,266.5075,388.6142,266.6216,387.5841,265.429,387.0057,264.5695,386.4825,263.7505,385.6385,262.6952,384.9633,261.7642,384.9861,261.7705,385.4959,263.7399,386.1098,265.7378,386.6734,267.722,387.3328,269.7325,387.6801,271.6572" style="stroke:#333333;stroke-width:1.0416666666666667;"/><text fill="#2E2E2E" font-family="Segoe Print" font-size="12.5" lengthAdjust="spacing" textLength="8.3333" x="373.0967" y="263.4683">1</text><text fill="#2E2E2E" font-family="Segoe Print" font-size="12.5" lengthAdjust="spacing" textLength="8.3333" x="397.288" y="129.6745">1</text><path d="M385.9375,297.126 L386.2294,297.126 L385.3621,307.7003 L386.206,318.2746 L386.4926,328.8489 L384.9467,339.4233 L385.8296,349.9976 L385.3451,360.5719 L385.4049,371.1462 L385.8428,381.7205 L385.9375,392.2948 " fill="none" style="stroke:#333333;stroke-width:3.125;"/><polygon fill="#333333" points="385.9375,392.2948,386.0042,392.3244,386.6394,390.3614,387.6655,388.5721,388.5643,386.7262,389.0445,384.6942,390.1042,382.9198,390.0851,382.9007,389.1661,383.6484,388.3433,384.4923,387.5874,385.4031,386.6011,386.0834,385.9375,387.0865,386.0734,387.2224,384.9494,386.0984,384.2223,385.3712,383.5436,384.6925,382.5831,383.7321,381.7708,382.9198,381.7925,382.9294,382.594,384.7903,383.4941,386.695,384.3467,388.5785,385.29,390.5024,385.9375,392.2948" style="stroke:#333333;stroke-width:1.0416666666666667;"/><path d="M193.9154,284.2122 L193.9154,284.3095 L200.0815,284.0204 L206.2476,284.3017 L212.4137,284.3973 L218.5798,283.882 L224.746,284.2122 " fill="none" style="stroke:#333333;stroke-width:3.125;"/><polygon fill="#333333" points="224.746,284.2122,224.7756,284.2789,222.8125,283.2474,221.0232,282.6069,219.1773,281.8391,217.1454,280.6525,215.371,280.0456,215.3519,280.0265,216.0996,280.7742,216.9435,281.6181,217.8542,282.5288,218.5345,283.2092,219.5376,284.2122,219.6736,284.3482,218.5495,284.8908,217.8224,285.8303,217.1437,286.8183,216.1832,287.5245,215.371,288.3789,215.3806,288.4006,217.2414,287.5354,219.1461,286.7689,221.0297,285.9548,222.9535,285.2314,224.746,284.2122" style="stroke:#333333;stroke-width:1.0416666666666667;"/><path d="M105.7292,131.3307 L106.0211,131.3307 L105.1537,141.7993 L105.9976,152.2678 L106.2843,162.7363 L104.7383,173.2049 L105.6212,183.6734 L105.1368,194.1419 L105.1965,204.6105 L105.6345,215.079 L105.7292,225.5475 " fill="none" style="stroke:#333333;stroke-width:3.125;"/><polygon fill="#333333" points="105.7292,225.5475,105.7959,225.5772,106.431,223.6141,107.4572,221.8248,108.356,219.9789,108.8361,217.9469,109.8958,216.1725,109.8768,216.1534,108.9578,216.9011,108.135,217.745,107.3791,218.6558,106.3928,219.3361,105.7292,220.3392,105.8651,220.4751,104.7411,219.3511,104.0139,218.624,103.3352,217.9452,102.3748,216.9848,101.5625,216.1725,101.5842,216.1821,102.3857,218.043,103.2858,219.9477,104.1384,221.8312,105.0817,223.7551,105.7292,225.5475" style="stroke:#333333;stroke-width:1.0416666666666667;"/><text fill="#2E2E2E" font-family="Segoe Print" font-size="12.5" lengthAdjust="spacing" textLength="32.2917" x="111.9792" y="198.94">visits</text></g></svg>