<?xml version="1.0" encoding="UTF-8" standalone="no"?><svg xmlns="http://www.w3.org/2000/svg" xmlns:xlink="http://www.w3.org/1999/xlink" contentStyleType="text/css" height="432.2917px" preserveAspectRatio="none" style="width:564px;height:432px;background:#00000000;" version="1.1" viewBox="0 0 564 432" width="564.5833px" zoomAndPan="magnify"><defs><linearGradient id="g1ml0ww337f0gi0" x1="50%" x2="50%" y1="0%" y2="100%"><stop offset="0%" stop-color="#F18E3E"/><stop offset="100%" stop-color="#EC7211"/></linearGradient></defs><g><g id="elem_user1"><rect fill="url(#g1ml0ww337f0gi0)" height="83.7646" rx="4.1667" ry="4.1667" style="stroke:#EC7211;stroke-width:1.0416666666666667;" width="129.1667" x="30.7292" y="37.3372"/><text fill="#FFFFFF" font-family="&quot;Verdana&quot;" font-size="11.4583" lengthAdjust="spacing" textLength="34.375" x="78.125" y="55.2648">user1</text><line style="stroke:#EC7211;stroke-width:1.0416666666666667;" x1="31.7708" x2="158.8542" y1="65.2588" y2="65.2588"/><text fill="#FFFFFF" font-family="&quot;Verdana&quot;" font-size="11.4583" lengthAdjust="spacing" textLength="106.25" x="42.1875" y="85.2697">name = "Dummy"</text><text fill="#FFFFFF" font-family="&quot;Verdana&quot;" font-size="11.4583" lengthAdjust="spacing" textLength="50" x="42.1875" y="109.0246">id = 123</text></g><g id="elem_user2"><rect fill="url(#g1ml0ww337f0gi0)" height="83.7646" rx="4.1667" ry="4.1667" style="stroke:#EC7211;stroke-width:1.0416666666666667;" width="129.1667" x="178.6458" y="37.3372"/><text fill="#FFFFFF" font-family="&quot;Verdana&quot;" font-size="11.4583" lengthAdjust="spacing" textLength="34.375" x="226.0417" y="55.2648">user2</text><line style="stroke:#EC7211;stroke-width:1.0416666666666667;" x1="179.6875" x2="306.7708" y1="65.2588" y2="65.2588"/><text fill="#FFFFFF" font-family="&quot;Verdana&quot;" font-size="11.4583" lengthAdjust="spacing" textLength="106.25" x="190.1042" y="85.2697">name = "Dummy"</text><text fill="#FFFFFF" font-family="&quot;Verdana&quot;" font-size="11.4583" lengthAdjust="spacing" textLength="50" x="190.1042" y="109.0246">id = 123</text></g><g id="elem_o1"><rect fill="url(#g1ml0ww337f0gi0)" height="44.5882" rx="4.1667" ry="4.1667" style="stroke:#EC7211;stroke-width:1.0416666666666667;" width="39.5833" x="326.5625" y="56.6081"/><text fill="#FFFFFF" font-family="&quot;Verdana&quot;" font-size="11.4583" lengthAdjust="spacing" textLength="14.5833" x="339.0625" y="74.5356">o1</text><line style="stroke:#EC7211;stroke-width:1.0416666666666667;" x1="327.6042" x2="365.1042" y1="84.5296" y2="84.5296"/></g><g id="elem_o2"><rect fill="url(#g1ml0ww337f0gi0)" height="44.5882" rx="4.1667" ry="4.1667" style="stroke:#EC7211;stroke-width:1.0416666666666667;" width="39.5833" x="384.8958" y="56.6081"/><text fill="#FFFFFF" font-family="&quot;Verdana&quot;" font-size="11.4583" lengthAdjust="spacing" textLength="14.5833" x="397.3958" y="74.5356">o2</text><line style="stroke:#EC7211;stroke-width:1.0416666666666667;" x1="385.9375" x2="423.4375" y1="84.5296" y2="84.5296"/></g><g id="elem_dia"><polygon fill="#EEEEEE" points="375.5208,261.2956,388.0208,273.7956,375.5208,286.2956,363.0208,273.7956,375.5208,261.2956" style="stroke:#BEBEBE;stroke-width:0.5208333333333334;"/></g><g id="elem_o3"><rect fill="url(#g1ml0ww337f0gi0)" height="44.5882" rx="4.1667" ry="4.1667" style="stroke:#EC7211;stroke-width:1.0416666666666667;" width="39.5833" x="355.7292" y="382.1289"/><text fill="#FFFFFF" font-family="&quot;Verdana&quot;" font-size="11.4583" lengthAdjust="spacing" textLength="14.5833" x="368.2292" y="400.0565">o3</text><line style="stroke:#EC7211;stroke-width:1.0416666666666667;" x1="356.7708" x2="394.2708" y1="410.0505" y2="410.0505"/></g><g id="elem_London"><rect fill="url(#g1ml0ww337f0gi0)" height="44.5882" rx="4.1667" ry="4.1667" style="stroke:#EC7211;stroke-width:1.0416666666666667;" width="67.7083" x="214.5833" y="251.3997"/><text fill="#FFFFFF" font-family="&quot;Verdana&quot;" font-size="11.4583" lengthAdjust="spacing" textLength="42.7083" x="227.0833" y="269.3273">London</text><line style="stroke:#EC7211;stroke-width:1.0416666666666667;" x1="215.625" x2="281.25" y1="279.3213" y2="279.3213"/></g><g id="elem_CapitalCity"><rect fill="url(#g1ml0ww337f0gi0)" height="116.5365" rx="4.1667" ry="4.1667" style="stroke:#EC7211;stroke-width:0.5208333333333334;" width="176.0417" x="7.2917" y="215.4622"/><text fill="#FFFFFF" font-family="&quot;Verdana&quot;" font-size="12.5" lengthAdjust="spacing" textLength="67.7083" x="61.4583" y="234.3567">CapitalCity</text><line style="stroke:#EC7211;stroke-width:1.0416666666666667;" x1="7.2917" x2="183.3333" y1="244.5964" y2="244.5964"/><text fill="#FFFFFF" font-family="&quot;Verdana&quot;" font-size="12.5" lengthAdjust="spacing" textLength="16.6667" x="86.9792" y="263.4908">UK</text><line style="stroke:#EC7211;stroke-width:1.0416666666666667;" x1="7.2917" x2="183.3333" y1="273.7305" y2="273.7305"/><text fill="#FFFFFF" font-family="&quot;Verdana&quot;" font-size="12.5" lengthAdjust="spacing" textLength="26.0417" x="33.3333" y="292.6249">USA</text><text fill="#FFFFFF" font-family="&quot;Verdana&quot;" font-size="12.5" lengthAdjust="spacing" textLength="77.0833" x="95.8333" y="292.6249">Washington</text><line style="stroke:#EC7211;stroke-width:1.0416666666666667;" x1="85.4167" x2="85.4167" y1="273.7305" y2="302.8646"/><line style="stroke:#EC7211;stroke-width:1.0416666666666667;" x1="7.2917" x2="183.3333" y1="302.8646" y2="302.8646"/><text fill="#FFFFFF" font-family="&quot;Verdana&quot;" font-size="12.5" lengthAdjust="spacing" textLength="57.2917" x="17.7083" y="321.759">Germany</text><text fill="#FFFFFF" font-family="&quot;Verdana&quot;" font-size="12.5" lengthAdjust="spacing" textLength="36.4583" x="95.8333" y="321.759">Berlin</text><line style="stroke:#EC7211;stroke-width:1.0416666666666667;" x1="85.4167" x2="85.4167" y1="302.8646" y2="331.9987"/></g><rect fill="url(#g1ml0ww337f0gi0)" height="145.6706" rx="4.1667" ry="4.1667" style="stroke:#EC7211;stroke-width:0.5208333333333334;" width="113.5417" x="443.75" y="6.0872"/><text fill="#FFFFFF" font-family="&quot;Verdana&quot;" font-size="12.5" lengthAdjust="spacing" textLength="27.0833" x="486.9792" y="24.9817">json</text><line style="stroke:#EC7211;stroke-width:1.0416666666666667;" x1="496.875" x2="496.875" y1="35.2214" y2="151.7578"/><line style="stroke:#EC7211;stroke-width:1.0416666666666667;" x1="443.75" x2="557.2917" y1="35.2214" y2="35.2214"/><text fill="#FFFFFF" font-family="&quot;Verdana&quot;" font-size="12.5" lengthAdjust="spacing" textLength="26.0417" x="454.1667" y="54.1158">fruit</text><text fill="#FFFFFF" font-family="&quot;Verdana&quot;" font-size="12.5" lengthAdjust="spacing" textLength="36.4583" x="507.2917" y="54.1158">Apple</text><line style="stroke:#EC7211;stroke-width:1.0416666666666667;" x1="443.75" x2="557.2917" y1="64.3555" y2="64.3555"/><text fill="#FFFFFF" font-family="&quot;Verdana&quot;" font-size="12.5" lengthAdjust="spacing" textLength="23.9583" x="454.1667" y="83.2499">size</text><text fill="#FFFFFF" font-family="&quot;Verdana&quot;" font-size="12.5" lengthAdjust="spacing" textLength="36.4583" x="507.2917" y="83.2499">Large</text><line style="stroke:#EC7211;stroke-width:1.0416666666666667;" x1="443.75" x2="557.2917" y1="93.4896" y2="93.4896"/><text fill="#FFFFFF" font-family="&quot;Verdana&quot;" font-size="12.5" lengthAdjust="spacing" textLength="32.2917" x="454.1667" y="112.384">color</text><text fill="#FFFFFF" font-family="&quot;Verdana&quot;" font-size="12.5" lengthAdjust="spacing" textLength="25" x="507.2917" y="112.384">Red</text><line style="stroke:#EC7211;stroke-width:1.0416666666666667;" x1="496.875" x2="557.2917" y1="122.6237" y2="122.6237"/><text fill="#FFFFFF" font-family="&quot;Verdana&quot;" font-size="12.5" lengthAdjust="spacing" textLength="39.5833" x="507.2917" y="141.5181">Green</text><path d="M349.587,101.405 C355.757,142.1714 369.0211,229.8094 373.7783,261.2405 " fill="none" style="stroke:#EC7211;stroke-width:3.125;"/><polygon fill="#EC7211" points="373.7783,261.2405,376.4951,251.3476,372.9989,256.0908,368.2556,252.5946,373.7783,261.2405" style="stroke:#EC7211;stroke-width:1.0416666666666667;"/><path d="M401.4547,101.405 C395.2847,142.1714 382.0205,229.8094 377.2634,261.2405 " fill="none" style="stroke:#EC7211;stroke-width:3.125;"/><polygon fill="#EC7211" points="377.2634,261.2405,382.7861,252.5946,378.0428,256.0908,374.5466,251.3476,377.2634,261.2405" style="stroke:#EC7211;stroke-width:1.0416666666666667;"/><text fill="#4E5D6C" font-family="Verdana" font-size="12.5" lengthAdjust="spacing" textLength="8.3333" x="362.6801" y="253.0516">1</text><text fill="#4E5D6C" font-family="Verdana" font-size="12.5" lengthAdjust="spacing" textLength="8.3333" x="386.8714" y="119.2578">1</text><path d="M375.5208,286.7093 C375.5208,308.3556 375.5208,354.523 375.5208,381.8781 " fill="none" style="stroke:#EC7211;stroke-width:3.125;"/><polygon fill="#EC7211" points="375.5208,381.8781,379.6875,372.5031,375.5208,376.6698,371.3542,372.5031,375.5208,381.8781" style="stroke:#EC7211;stroke-width:1.0416666666666667;"/><path d="M183.4987,273.7956 C194.4017,273.7956 204.9827,273.7956 214.3293,273.7956 " fill="none" style="stroke:#EC7211;stroke-width:3.125;"/><polygon fill="#EC7211" points="214.3293,273.7956,204.9543,269.6289,209.121,273.7956,204.9543,277.9622,214.3293,273.7956" style="stroke:#EC7211;stroke-width:1.0416666666666667;"/><path d="M95.3125,120.9141 C95.3125,148.3141 95.3125,184.7949 95.3125,215.1309 " fill="none" style="stroke:#EC7211;stroke-width:3.125;"/><polygon fill="#EC7211" points="95.3125,215.1309,99.4792,205.7559,95.3125,209.9225,91.1458,205.7559,95.3125,215.1309" style="stroke:#EC7211;stroke-width:1.0416666666666667;"/><text fill="#4E5D6C" font-family="Verdana" font-size="12.5" lengthAdjust="spacing" textLength="32.2917" x="101.5625" y="188.5234">visits</text></g></svg>