<?xml version="1.0" encoding="UTF-8" standalone="no"?><svg xmlns="http://www.w3.org/2000/svg" xmlns:xlink="http://www.w3.org/1999/xlink" contentScriptType="application/ecmascript" contentStyleType="text/css" height="417.7083px" preserveAspectRatio="none" style="width:456px;height:417px;background:#00000000;" version="1.1" viewBox="0 0 456 417" width="456.25px" zoomAndPan="magnify"><defs><linearGradient id="g1gubztz5ddv250" x1="50%" x2="50%" y1="0%" y2="100%"><stop offset="0%" stop-color="#E5E4E2"/><stop offset="100%" stop-color="#B7B6B5"/></linearGradient><linearGradient id="g1gubztz5ddv251" x1="50%" x2="50%" y1="0%" y2="100%"><stop offset="0%" stop-color="#C0C0C0"/><stop offset="100%" stop-color="#9A9A9A"/></linearGradient></defs><g><rect fill="url(#g1gubztz5ddv250)" height="103.7272" rx="7.8125" ry="7.8125" style="stroke:#B7B6B5;stroke-width:1.0416666666666667;" width="135.4167" x="27.6042" y="5.8105"/><text fill="#4682B4" font-family="Verdana" font-size="12.5" lengthAdjust="spacing" textLength="37.5" x="76.5625" y="27.83">user1</text><line style="stroke:#B7B6B5;stroke-width:1.5625;" x1="28.6458" x2="161.9792" y1="41.1947" y2="41.1947"/><text fill="#FDFDFD" font-family="Verdana" font-size="11.4583" lengthAdjust="spacing" textLength="106.25" x="42.1875" y="64.3305">name = "Dummy"</text><text fill="#FDFDFD" font-family="Verdana" font-size="11.4583" lengthAdjust="spacing" textLength="50" x="42.1875" y="94.3354">id = 123</text><rect fill="url(#g1gubztz5ddv250)" height="103.7272" rx="7.8125" ry="7.8125" style="stroke:#B7B6B5;stroke-width:1.0416666666666667;" width="135.4167" x="181.7708" y="5.8105"/><text fill="#4682B4" font-family="Verdana" font-size="12.5" lengthAdjust="spacing" textLength="37.5" x="230.7292" y="27.83">user2</text><line style="stroke:#B7B6B5;stroke-width:1.5625;" x1="182.8125" x2="316.1458" y1="41.1947" y2="41.1947"/><text fill="#FDFDFD" font-family="Verdana" font-size="11.4583" lengthAdjust="spacing" textLength="106.25" x="196.3542" y="64.3305">name = "Dummy"</text><text fill="#FDFDFD" font-family="Verdana" font-size="11.4583" lengthAdjust="spacing" textLength="50" x="196.3542" y="94.3354">id = 123</text><rect fill="url(#g1gubztz5ddv250)" height="52.0508" rx="7.8125" ry="7.8125" style="stroke:#B7B6B5;stroke-width:1.0416666666666667;" width="47.9167" x="335.9375" y="31.8522"/><text fill="#4682B4" font-family="Verdana" font-size="12.5" lengthAdjust="spacing" textLength="16.6667" x="351.5625" y="53.8717">o1</text><line style="stroke:#B7B6B5;stroke-width:1.0416666666666667;" x1="336.9792" x2="382.8125" y1="67.2363" y2="67.2363"/><rect fill="url(#g1gubztz5ddv250)" height="52.0508" rx="7.8125" ry="7.8125" style="stroke:#B7B6B5;stroke-width:1.0416666666666667;" width="47.9167" x="402.6042" y="31.8522"/><text fill="#4682B4" font-family="Verdana" font-size="12.5" lengthAdjust="spacing" textLength="16.6667" x="418.2292" y="53.8717">o2</text><line style="stroke:#B7B6B5;stroke-width:1.0416666666666667;" x1="403.6458" x2="449.4792" y1="67.2363" y2="67.2363"/><polygon fill="url(#g1gubztz5ddv251)" points="393.2292,222.4772,405.7292,234.9772,393.2292,247.4772,380.7292,234.9772,393.2292,222.4772" style="stroke:#9A9A9A;stroke-width:1.5625;"/><rect fill="url(#g1gubztz5ddv250)" height="52.0508" rx="7.8125" ry="7.8125" style="stroke:#B7B6B5;stroke-width:1.0416666666666667;" width="47.9167" x="369.2708" y="359.9772"/><text fill="#4682B4" font-family="Verdana" font-size="12.5" lengthAdjust="spacing" textLength="16.6667" x="384.8958" y="381.9967">o3</text><line style="stroke:#B7B6B5;stroke-width:1.0416666666666667;" x1="370.3125" x2="416.1458" y1="395.3613" y2="395.3613"/><rect fill="url(#g1gubztz5ddv250)" height="52.0508" rx="7.8125" ry="7.8125" style="stroke:#B7B6B5;stroke-width:1.0416666666666667;" width="79.1667" x="220.3125" y="208.9355"/><text fill="#4682B4" font-family="Verdana" font-size="12.5" lengthAdjust="spacing" textLength="47.9167" x="235.9375" y="230.955">London</text><line style="stroke:#B7B6B5;stroke-width:1.0416666666666667;" x1="221.3542" x2="298.4375" y1="244.3197" y2="244.3197"/><rect fill="url(#g1gubztz5ddv250)" height="137.8988" rx="7.8125" ry="7.8125" style="stroke:#B7B6B5;stroke-width:1.0416666666666667;" width="176.0417" x="7.2917" y="166.2272"/><text fill="#4682B4" font-family="Verdana" font-size="12.5" lengthAdjust="spacing" textLength="67.7083" x="61.4583" y="188.2467">CapitalCity</text><line style="stroke:#B7B6B5;stroke-width:1.0416666666666667;" x1="7.2917" x2="183.3333" y1="201.6113" y2="201.6113"/><text fill="#FDFDFD" font-family="Verdana" font-size="11.4583" lengthAdjust="spacing" textLength="15.625" x="87.5" y="222.6639">UK</text><line style="stroke:#B7B6B5;stroke-width:1.0416666666666667;" x1="7.2917" x2="183.3333" y1="235.7829" y2="235.7829"/><text fill="#FDFDFD" font-family="Verdana" font-size="11.4583" lengthAdjust="spacing" textLength="23.9583" x="35.9375" y="256.8354">USA</text><text fill="#FDFDFD" font-family="Verdana" font-size="11.4583" lengthAdjust="spacing" textLength="67.7083" x="102.0833" y="256.8354">Washington</text><line style="stroke:#B7B6B5;stroke-width:1.0416666666666667;" x1="88.5417" x2="88.5417" y1="235.7829" y2="269.9544"/><line style="stroke:#B7B6B5;stroke-width:1.0416666666666667;" x1="7.2917" x2="183.3333" y1="269.9544" y2="269.9544"/><text fill="#FDFDFD" font-family="Verdana" font-size="11.4583" lengthAdjust="spacing" textLength="54.1667" x="20.8333" y="291.007">Germany</text><text fill="#FDFDFD" font-family="Verdana" font-size="11.4583" lengthAdjust="spacing" textLength="34.375" x="102.0833" y="291.007">Berlin</text><line style="stroke:#B7B6B5;stroke-width:1.0416666666666667;" x1="88.5417" x2="88.5417" y1="269.9544" y2="304.126"/><path d="M364.6717,84.0088 C371.9805,122.3798 385.6549,194.1706 391.0037,222.2519 " fill="none" style="stroke:#E5E4E2;stroke-width:3.125;"/><polygon fill="#E5E4E2" points="391.0037,222.2519,393.3426,212.2628,390.0292,217.1355,385.1565,213.8221,391.0037,222.2519" style="stroke:#E5E4E2;stroke-width:1.0416666666666667;"/><path d="M421.7866,84.0088 C414.4779,122.3798 400.8034,194.1706 395.4546,222.2519 " fill="none" style="stroke:#E5E4E2;stroke-width:3.125;"/><polygon fill="#E5E4E2" points="395.4546,222.2519,401.3019,213.8221,396.4292,217.1355,393.1157,212.2628,395.4546,222.2519" style="stroke:#E5E4E2;stroke-width:1.0416666666666667;"/><path d="M393.2292,247.7074 C393.2292,271.7807 393.2292,327.3606 393.2292,359.9347 " fill="none" style="stroke:#E5E4E2;stroke-width:3.125;"/><polygon fill="#E5E4E2" points="393.2292,359.9347,397.3958,350.5597,393.2292,354.7264,389.0625,350.5597,393.2292,359.9347" style="stroke:#E5E4E2;stroke-width:1.0416666666666667;"/><path d="M183.3861,234.9772 C196.2259,234.9772 208.8771,234.9772 220.081,234.9772 " fill="none" style="stroke:#E5E4E2;stroke-width:3.125;"/><polygon fill="#E5E4E2" points="220.081,234.9772,210.706,230.8105,214.8727,234.9772,210.706,239.1439,220.081,234.9772" style="stroke:#E5E4E2;stroke-width:1.0416666666666667;"/><path d="M95.3125,110.0232 C95.3125,127.5774 95.3125,147.5113 95.3125,166.1801 " fill="none" style="stroke:#E5E4E2;stroke-width:3.125;"/><polygon fill="#E5E4E2" points="95.3125,166.1801,99.4792,156.8051,95.3125,160.9718,91.1458,156.8051,95.3125,166.1801" style="stroke:#E5E4E2;stroke-width:1.0416666666666667;"/></g></svg>