<?xml version="1.0" encoding="UTF-8" standalone="no"?><svg xmlns="http://www.w3.org/2000/svg" xmlns:xlink="http://www.w3.org/1999/xlink" contentScriptType="application/ecmascript" contentStyleType="text/css" height="355.2083px" preserveAspectRatio="none" style="width:428px;height:355px;background:#00000000;" version="1.1" viewBox="0 0 428 355" width="428.125px" zoomAndPan="magnify"><defs/><g><polygon fill="#474747" points="28.6458,5.8105,28.6458,6.0295,38.7153,5.379,48.7847,6.0119,58.8542,6.2269,68.9236,5.0674,78.9931,5.7296,89.0625,5.3663,99.1319,5.4111,109.2014,5.7396,119.2708,5.0904,129.3403,6.3873,139.4097,5.154,149.4792,5.8105,149.4529,5.7471,150.1258,6.1932,150.6463,6.2712,151.256,6.5647,151.8319,6.7766,152.4254,7.0309,152.4827,7.0547,152.7462,7.652,153.1015,8.2873,153.3729,8.8879,153.6197,9.4782,153.6458,9.9772,153.9111,9.9772,154.1287,20.9263,154.3773,31.8755,152.8946,42.8246,154.3526,53.7737,153.337,64.7228,154.2019,75.672,153.6458,86.6211,153.487,86.5553,153.3798,87.2012,153.3956,87.8981,152.898,88.3824,152.7033,88.9921,152.4254,89.5674,152.4704,89.676,151.8915,89.945,151.2464,90.0543,150.6958,90.3917,149.9924,90.3601,149.4792,90.7878,149.4792,91.084,139.4097,91.3588,129.3403,91.2508,119.2708,91.4263,109.2014,90.2846,99.1319,90.1084,89.0625,90.1405,78.9931,90.7264,68.9236,90.583,58.8542,91.4976,48.7847,90.6058,38.7153,90.4304,28.6458,90.7878,28.6762,90.861,27.968,90.3298,27.3983,90.1331,26.9643,90.2637,26.3467,89.9512,25.6996,89.5674,25.9352,89.665,25.3522,88.9354,25.3138,88.4313,25.1567,87.8781,24.5717,87.1476,24.4792,86.6211,24.3793,86.6211,24.6104,75.672,25.1581,64.7228,24.4748,53.7737,24.961,42.8246,23.9023,31.8755,23.7737,20.9263,24.4792,9.9772,24.6407,10.0441,24.4933,9.2927,25.1306,8.8663,25.2777,8.2369,25.3695,7.5846,25.6996,7.0309,25.6525,6.9174,26.3498,6.934,26.8383,6.4468,27.546,6.4886,27.9831,5.8773,28.6458,5.8105" style="stroke:#333333;stroke-width:1.0416666666666667;"/><text fill="#FFFFFF" font-family="Segoe Print" font-size="12.5" lengthAdjust="spacing" textLength="37.5" x="70.3125" y="24.705">user1</text><path d="M25.5208,34.9447 L25.5208,35.2366 L36.1111,34.3692 L46.7014,35.2131 L57.2917,35.4998 L67.8819,33.9538 L78.4722,34.8367 L89.0625,34.3523 L99.6528,34.412 L110.2431,34.85 L120.8333,33.9844 L131.4236,35.7136 L142.0139,34.0693 L152.6042,34.9447 " fill="#474747" style="stroke:#333333;stroke-width:1.5625;"/><text fill="#FFFFFF" font-family="Segoe Print" font-size="11.4583" lengthAdjust="spacing" textLength="106.25" x="35.9375" y="54.9555">name = "Dummy"</text><text fill="#FFFFFF" font-family="Segoe Print" font-size="11.4583" lengthAdjust="spacing" textLength="50" x="35.9375" y="78.7104">id = 123</text><polygon fill="#474747" points="176.5625,5.8105,176.5625,6.0295,186.6319,5.379,196.7014,6.0119,206.7708,6.2269,216.8403,5.0674,226.9097,5.7296,236.9792,5.3663,247.0486,5.4111,257.1181,5.7396,267.1875,5.0904,277.2569,6.3873,287.3264,5.154,297.3958,5.8105,297.3696,5.7471,298.0425,6.1932,298.5629,6.2712,299.1727,6.5647,299.7486,6.7766,300.3421,7.0309,300.3994,7.0547,300.6629,7.652,301.0182,8.2873,301.2896,8.8879,301.5363,9.4782,301.5625,9.9772,301.8277,9.9772,302.0454,20.9263,302.294,31.8755,300.8113,42.8246,302.2693,53.7737,301.2536,64.7228,302.1186,75.672,301.5625,86.6211,301.4037,86.5553,301.2964,87.2012,301.3122,87.8981,300.8146,88.3824,300.62,88.9921,300.3421,89.5674,300.3871,89.676,299.8082,89.945,299.1631,90.0543,298.6125,90.3917,297.909,90.3601,297.3958,90.7878,297.3958,91.084,287.3264,91.3588,277.2569,91.2508,267.1875,91.4263,257.1181,90.2846,247.0486,90.1084,236.9792,90.1405,226.9097,90.7264,216.8403,90.583,206.7708,91.4976,196.7014,90.6058,186.6319,90.4304,176.5625,90.7878,176.5928,90.861,175.8846,90.3298,175.315,90.1331,174.881,90.2637,174.2634,89.9512,173.6162,89.5674,173.8518,89.665,173.2689,88.9354,173.2305,88.4313,173.0734,87.8781,172.4884,87.1476,172.3958,86.6211,172.296,86.6211,172.5271,75.672,173.0747,64.7228,172.3915,53.7737,172.8777,42.8246,171.819,31.8755,171.6904,20.9263,172.3958,9.9772,172.5574,10.0441,172.4099,9.2927,173.0473,8.8663,173.1944,8.2369,173.2862,7.5846,173.6162,7.0309,173.5692,6.9174,174.2664,6.934,174.755,6.4468,175.4626,6.4886,175.8998,5.8773,176.5625,5.8105" style="stroke:#333333;stroke-width:1.0416666666666667;"/><text fill="#FFFFFF" font-family="Segoe Print" font-size="12.5" lengthAdjust="spacing" textLength="37.5" x="218.2292" y="24.705">user2</text><path d="M173.4375,34.9447 L173.4375,35.2366 L184.0278,34.3692 L194.6181,35.2131 L205.2083,35.4998 L215.7986,33.9538 L226.3889,34.8367 L236.9792,34.3523 L247.5694,34.412 L258.1597,34.85 L268.75,33.9844 L279.3403,35.7136 L289.9306,34.0693 L300.5208,34.9447 " fill="#474747" style="stroke:#333333;stroke-width:1.5625;"/><text fill="#FFFFFF" font-family="Segoe Print" font-size="11.4583" lengthAdjust="spacing" textLength="106.25" x="183.8542" y="54.9555">name = "Dummy"</text><text fill="#FFFFFF" font-family="Segoe Print" font-size="11.4583" lengthAdjust="spacing" textLength="50" x="183.8542" y="78.7104">id = 123</text><polygon fill="#474747" points="324.4792,25.6022,324.4792,25.6752,331.1458,25.4584,337.8125,25.6693,344.4792,25.741,351.1458,25.3545,357.8125,25.6022,357.8022,25.5773,358.3451,25.7095,358.9401,25.9673,359.5712,26.3126,360.0777,26.3567,360.7588,26.8226,360.9364,26.8962,360.8007,27.3281,361.1835,27.9748,361.6296,28.6478,361.7076,29.1682,361.9792,29.7689,362.0029,29.7689,361.9681,37.2624,362.0412,44.7559,362.0622,52.2493,362.1825,59.7428,361.9792,67.2363,362.1944,67.3255,361.953,67.9158,361.5727,68.4487,361.3956,69.0657,361.2281,69.6867,360.7588,70.1826,360.6629,69.9513,360.2597,70.6443,359.5409,70.5756,359.0619,71.0861,358.336,71.0001,357.8125,71.403,357.8125,71.3792,351.1458,71.6605,344.4792,71.3861,337.8125,71.4396,331.1458,71.5206,324.4792,71.403,324.5345,71.5365,323.8894,71.1577,323.3388,71.007,322.6353,70.4871,322.1599,70.5179,321.5329,70.1826,321.7087,70.2554,321.4314,69.6524,321.2414,69.0856,320.6457,68.3506,320.3474,67.7389,320.3125,67.2363,320.0967,67.2363,320.2921,59.7428,320.2443,52.2493,320.5491,44.7559,320.2518,37.2624,320.3125,29.7689,320.2025,29.7233,320.6298,29.21,320.5867,28.5018,320.8782,27.9321,321.497,27.4981,321.5329,26.8226,321.5908,26.9624,322.2197,26.8141,322.6686,26.2312,323.3431,26.1928,323.9684,26.0357,324.4792,25.6022" style="stroke:#333333;stroke-width:1.0416666666666667;"/><text fill="#FFFFFF" font-family="Segoe Print" font-size="12.5" lengthAdjust="spacing" textLength="16.6667" x="332.8125" y="44.4967">o1</text><path d="M321.3542,54.7363 L321.3542,54.8336 L329.2708,54.5445 L337.1875,54.8258 L345.1042,54.9214 L353.0208,54.4061 L360.9375,54.7363 " fill="#474747" style="stroke:#333333;stroke-width:1.0416666666666667;"/><polygon fill="#474747" points="384.8958,25.6022,384.8958,25.6752,391.5625,25.4584,398.2292,25.6693,404.8958,25.741,411.5625,25.3545,418.2292,25.6022,418.2188,25.5773,418.7618,25.7095,419.3567,25.9673,419.9879,26.3126,420.4943,26.3567,421.1754,26.8226,421.353,26.8962,421.2173,27.3281,421.6002,27.9748,422.0462,28.6478,422.1242,29.1682,422.3958,29.7689,422.4195,29.7689,422.3847,37.2624,422.4578,44.7559,422.4789,52.2493,422.5992,59.7428,422.3958,67.2363,422.6111,67.3255,422.3697,67.9158,421.9894,68.4487,421.8123,69.0657,421.6448,69.6867,421.1754,70.1826,421.0796,69.9513,420.6763,70.6443,419.9575,70.5756,419.4786,71.0861,418.7526,71.0001,418.2292,71.403,418.2292,71.3792,411.5625,71.6605,404.8958,71.3861,398.2292,71.4396,391.5625,71.5206,384.8958,71.403,384.9511,71.5365,384.3061,71.1577,383.7555,71.007,383.052,70.4871,382.5766,70.5179,381.9496,70.1826,382.1254,70.2554,381.8481,69.6524,381.6581,69.0856,381.0624,68.3506,380.764,67.7389,380.7292,67.2363,380.5134,67.2363,380.7087,59.7428,380.6609,52.2493,380.9658,44.7559,380.6685,37.2624,380.7292,29.7689,380.6191,29.7233,381.0465,29.21,381.0034,28.5018,381.2949,27.9321,381.9137,27.4981,381.9496,26.8226,382.0074,26.9624,382.6364,26.8141,383.0853,26.2312,383.7597,26.1928,384.385,26.0357,384.8958,25.6022" style="stroke:#333333;stroke-width:1.0416666666666667;"/><text fill="#FFFFFF" font-family="Segoe Print" font-size="12.5" lengthAdjust="spacing" textLength="16.6667" x="393.2292" y="44.4967">o2</text><path d="M381.7708,54.7363 L381.7708,54.8336 L389.6875,54.5445 L397.6042,54.8258 L405.5208,54.9214 L413.4375,54.4061 L421.3542,54.7363 " fill="#474747" style="stroke:#333333;stroke-width:1.0416666666666667;"/><polygon fill="#666666" points="371.3542,184.9772,371.4058,185.0288,373.7524,187.3755,376.4016,190.0247,378.9523,192.5753,381.179,194.8021,383.8542,197.4772,383.8351,197.4581,381.2495,199.8725,378.76,202.3831,376.3374,204.9605,373.6844,207.3075,371.3542,209.9772,371.4901,210.1131,368.6994,207.3225,366.3056,204.9287,363.9602,202.5833,361.3331,199.9562,358.8542,197.4772,358.8709,197.494,361.3463,194.9694,363.898,192.521,366.4129,190.0359,368.998,187.621,371.3542,184.9772" style="stroke:#4D4D4D;stroke-width:1.5625;"/><polygon fill="#474747" points="354.6875,303.7272,354.6875,303.8002,361.3542,303.5834,368.0208,303.7943,374.6875,303.866,381.3542,303.4795,388.0208,303.7272,388.0105,303.7023,388.5534,303.8345,389.1484,304.0923,389.7795,304.4376,390.286,304.4817,390.9671,304.9476,391.1447,305.0212,391.009,305.4531,391.3918,306.0998,391.8379,306.7728,391.9159,307.2932,392.1875,307.8939,392.2112,307.8939,392.1764,315.3874,392.2495,322.8809,392.2705,330.3743,392.3909,337.8678,392.1875,345.3613,392.4028,345.4505,392.1613,346.0408,391.781,346.5737,391.604,347.1907,391.4365,347.8117,390.9671,348.3076,390.8713,348.0763,390.468,348.7693,389.7492,348.7006,389.2703,349.2111,388.5443,349.1251,388.0208,349.528,388.0208,349.5042,381.3542,349.7855,374.6875,349.5111,368.0208,349.5646,361.3542,349.6456,354.6875,349.528,354.7428,349.6615,354.0977,349.2827,353.5472,349.132,352.8437,348.6121,352.3683,348.6429,351.7412,348.3076,351.9171,348.3804,351.6397,347.7774,351.4497,347.2106,350.854,346.4756,350.5557,345.8639,350.5208,345.3613,350.3051,345.3613,350.5004,337.8678,350.4526,330.3743,350.7574,322.8809,350.4602,315.3874,350.5208,307.8939,350.4108,307.8483,350.8381,307.335,350.7951,306.6268,351.0865,306.0571,351.7053,305.6231,351.7412,304.9476,351.7991,305.0874,352.4281,304.9391,352.877,304.3562,353.5514,304.3178,354.1767,304.1607,354.6875,303.7272" style="stroke:#333333;stroke-width:1.0416666666666667;"/><text fill="#FFFFFF" font-family="Segoe Print" font-size="12.5" lengthAdjust="spacing" textLength="16.6667" x="363.0208" y="322.6217">o3</text><path d="M351.5625,332.8613 L351.5625,332.9586 L359.4792,332.6695 L367.3958,332.9508 L375.3125,333.0464 L383.2292,332.5311 L391.1458,332.8613 " fill="#474747" style="stroke:#333333;stroke-width:1.0416666666666667;"/><polygon fill="#474747" points="205.7292,174.5605,205.7292,174.7795,216.4931,174.129,227.2569,174.7619,238.0208,174.9769,248.7847,173.8174,259.5486,174.4796,270.3125,174.5605,270.2558,174.4237,270.8508,174.6816,271.482,175.0268,271.9884,175.071,272.7431,175.7145,273.2588,175.7809,273.0566,175.6972,273.4394,176.3439,273.8855,177.0168,273.9635,177.5373,274.257,178.147,274.4792,178.7272,274.4681,178.7272,274.5412,186.2207,274.5622,193.7142,274.6825,201.2077,274.7122,208.7012,274.4792,216.1947,274.6971,216.2849,274.3168,216.8178,274.1397,217.4348,273.9722,218.0557,273.2715,218.4559,273.2588,219.1409,273.3489,219.3586,272.6301,219.2899,272.1512,219.8003,271.4252,219.7144,270.8927,220.0953,270.3125,220.3613,270.3125,221.1338,259.5486,220.3106,248.7847,220.471,238.0208,220.7141,227.2569,220.7949,216.4931,220.3573,205.7292,220.3613,205.7673,220.4535,205.0639,219.9336,204.5884,219.9644,204.0342,219.805,203.4312,219.5276,202.7829,219.1409,202.9795,219.2224,202.3838,218.4875,202.0855,217.8758,201.8513,217.2906,201.7877,216.7761,201.5625,216.1947,201.4943,216.1947,201.7991,208.7012,201.5018,201.2077,201.4434,193.7142,201.6418,186.2207,201.5625,178.7272,201.3486,178.6386,201.64,178.069,202.2588,177.6349,202.4345,177.0173,202.7744,176.4678,202.7829,175.7809,202.7401,175.6777,203.4146,175.6393,204.0399,175.4822,204.4879,174.8972,205.1272,174.7739,205.7292,174.5605" style="stroke:#333333;stroke-width:1.0416666666666667;"/><text fill="#FFFFFF" font-family="Segoe Print" font-size="12.5" lengthAdjust="spacing" textLength="47.9167" x="214.0625" y="193.455">London</text><path d="M202.6042,203.6947 L202.6042,203.9866 L212.7232,203.1192 L222.8423,203.9631 L232.9613,204.2498 L243.0804,202.7038 L253.1994,203.5867 L263.3185,203.1023 L273.4375,203.6947 " fill="#474747" style="stroke:#333333;stroke-width:1.0416666666666667;"/><polygon fill="#474747" points="11.4583,141.2272,11.4583,141.4462,21.8056,140.7956,32.1528,141.4286,42.5,141.6435,52.8472,140.4841,63.1944,141.1463,73.5417,140.7829,83.8889,140.8277,94.2361,141.1562,104.5833,140.507,114.9306,141.8039,125.2778,140.5707,135.625,141.0212,145.9722,141.6772,156.3194,141.1379,166.6667,141.2272,166.6757,141.2491,167.2517,141.461,167.8689,141.7726,168.4662,142.0362,169.1015,142.3914,169.6129,142.4476,169.8282,142.5368,170.0749,143.1271,170.1828,143.6599,170.4939,144.277,170.8145,144.8979,170.8333,145.3939,170.0821,145.3939,171.5401,155.8504,170.5245,166.307,171.3894,176.7635,170.3177,187.2201,170.762,197.6766,171.6058,208.1331,170.7826,218.5897,170.943,229.0462,171.1861,239.5028,170.8333,249.9593,170.9669,250.0146,170.588,250.548,170.4373,251.176,169.9175,251.651,169.9483,252.3541,169.6129,252.9056,169.6858,253.0814,169.0828,253.2923,168.5159,253.5904,167.781,253.4829,167.1693,253.6727,166.6667,254.126,166.6667,253.4787,156.3194,254.0646,145.9722,253.9213,135.625,254.8358,125.2778,253.944,114.9306,253.7686,104.5833,254.3638,94.2361,253.4314,83.8889,253.5852,73.5417,254.802,63.1944,254.5798,52.8472,254.8911,42.5,253.7908,32.1528,254.4585,21.8056,254.741,11.4583,254.126,11.3956,253.9744,10.8563,253.8511,10.2966,253.6782,9.7772,253.6028,9.1008,253.1483,8.5121,252.9056,8.6604,252.9671,8.0903,252.2427,7.8066,251.6371,7.9414,251.2047,7.3058,250.4533,7.2917,249.9593,7.8218,249.9593,7.5069,239.5028,7.0126,229.0462,6.9232,218.5897,7.7695,208.1331,6.9799,197.6766,7.9082,187.2201,6.7159,176.7635,7.9348,166.307,7.7961,155.8504,7.2917,145.3939,7.3703,145.4264,7.5509,144.8109,8.0129,144.3119,8.2207,143.7076,8.3223,143.0593,8.5121,142.4476,8.5477,142.5336,9.084,142.1617,9.7858,142.1893,10.3004,141.765,10.892,141.5267,11.4583,141.2272" style="stroke:#333333;stroke-width:1.0416666666666667;"/><text fill="#FFFFFF" font-family="Segoe Print" font-size="12.5" lengthAdjust="spacing" textLength="67.7083" x="55.2083" y="160.1217">CapitalCity</text><path d="M7.2917,170.3613 L7.2917,170.6532 L17.513,169.7859 L27.7344,170.6298 L37.9557,170.9164 L48.1771,169.3705 L58.3984,170.2534 L68.6198,169.769 L78.8411,169.8287 L89.0625,170.2667 L99.2839,169.4011 L109.5052,171.1303 L119.7266,169.4859 L129.9479,170.0867 L140.1693,170.9613 L150.3906,170.2422 L160.612,170.4561 L170.8333,170.3613 " fill="#474747" style="stroke:#333333;stroke-width:1.0416666666666667;"/><text fill="#FFFFFF" font-family="Segoe Print" font-size="11.4583" lengthAdjust="spacing" textLength="15.625" x="81.25" y="188.2889">UK</text><path d="M7.2917,198.2829 L7.2917,198.5748 L17.513,197.7074 L27.7344,198.5513 L37.9557,198.838 L48.1771,197.2921 L58.3984,198.1749 L68.6198,197.6905 L78.8411,197.7502 L89.0625,198.1882 L99.2839,197.3226 L109.5052,199.0518 L119.7266,197.4075 L129.9479,198.0082 L140.1693,198.8828 L150.3906,198.1637 L160.612,198.3777 L170.8333,198.2829 " fill="#474747" style="stroke:#333333;stroke-width:1.0416666666666667;"/><text fill="#FFFFFF" font-family="Segoe Print" font-size="11.4583" lengthAdjust="spacing" textLength="23.9583" x="32.8125" y="216.2104">USA</text><text fill="#FFFFFF" font-family="Segoe Print" font-size="11.4583" lengthAdjust="spacing" textLength="67.7083" x="92.7083" y="216.2104">Washington</text><path d="M82.2917,198.2829 L82.389,198.2829 L82.0999,203.8672 L82.3812,209.4515 L82.4767,215.0358 L81.9614,220.6201 L82.2917,226.2044 " fill="#474747" style="stroke:#333333;stroke-width:1.0416666666666667;"/><path d="M7.2917,226.2044 L7.2917,226.4963 L17.513,225.629 L27.7344,226.4729 L37.9557,226.7595 L48.1771,225.2136 L58.3984,226.0965 L68.6198,225.6121 L78.8411,225.6718 L89.0625,226.1098 L99.2839,225.2442 L109.5052,226.9734 L119.7266,225.329 L129.9479,225.9298 L140.1693,226.8044 L150.3906,226.0853 L160.612,226.2992 L170.8333,226.2044 " fill="#474747" style="stroke:#333333;stroke-width:1.0416666666666667;"/><text fill="#FFFFFF" font-family="Segoe Print" font-size="11.4583" lengthAdjust="spacing" textLength="54.1667" x="17.7083" y="244.132">Germany</text><text fill="#FFFFFF" font-family="Segoe Print" font-size="11.4583" lengthAdjust="spacing" textLength="34.375" x="92.7083" y="244.132">Berlin</text><path d="M82.2917,226.2044 L82.389,226.2044 L82.0999,231.7887 L82.3812,237.373 L82.4767,242.9574 L81.9614,248.5417 L82.2917,254.126 " fill="#474747" style="stroke:#333333;stroke-width:1.0416666666666667;"/><path d="M345.6683,71.5492 L345.9543,71.608 L347.2188,81.7122 L350.1595,92.1611 L352.5544,102.4977 L353.1542,112.4652 L356.1331,122.922 L357.7727,133.1033 L359.9453,143.3942 L362.4884,153.7613 L363.7547,163.8658 L367.5625,174.4931 L368.9234,184.6171 " fill="none" style="stroke:#333333;stroke-width:3.125;"/><polygon fill="#333333" points="368.9234,184.6171,368.9947,184.6327,369.2214,182.5819,369.866,180.6225,370.3745,178.6334,370.4355,176.5464,371.116,174.5949,371.0935,174.58,370.344,175.4975,369.7081,176.4899,369.1511,177.5342,368.3221,178.3993,367.8742,179.5155,367.9799,179.6761,366.7696,178.6844,365.8681,178.1614,365.0043,177.6957,363.9213,176.8972,362.9535,176.2737,362.9728,176.2875,364.1385,177.9359,365.3919,179.6471,366.603,181.328,367.8948,183.0667,368.9234,184.6171" style="stroke:#333333;stroke-width:1.0416666666666667;"/><path d="M397.04,71.5492 L397.3259,71.608 L394.3623,81.7122 L393.0748,92.1611 L391.2414,102.4977 L387.6131,112.4652 L386.3638,122.922 L383.7752,133.1033 L381.7196,143.3942 L380.0345,153.7613 L377.0726,163.8658 L376.6522,174.4931 L373.7849,184.6171 " fill="none" style="stroke:#333333;stroke-width:3.125;"/><polygon fill="#333333" points="373.7849,184.6171,373.8443,184.6595,374.8619,182.8647,376.2275,181.3188,377.4797,179.6918,378.3594,177.7982,379.7548,176.2737,379.74,176.2512,378.6892,176.7984,377.7133,177.4592,376.7894,178.199,375.6862,178.6667,374.8342,179.5155,374.9947,179.6213,374.0031,178.411,373.4801,177.5095,373.0143,176.6457,372.2158,175.5626,371.5923,174.5949,371.6155,174.5999,372.02,176.597,372.5299,178.617,372.989,180.6259,373.5451,182.6561,373.7849,184.6171" style="stroke:#333333;stroke-width:1.0416666666666667;"/><path d="M371.3542,210.2468 L371.6461,210.2468 L370.7787,220.5883 L371.6226,230.9298 L371.9093,241.2714 L370.3633,251.6129 L371.2462,261.9544 L370.7618,272.296 L370.8215,282.6375 L371.2595,292.979 L371.3542,303.3206 " fill="none" style="stroke:#333333;stroke-width:3.125;"/><polygon fill="#333333" points="371.3542,303.3206,371.4209,303.3502,372.056,301.3871,373.0822,299.5978,373.981,297.7519,374.4611,295.72,375.5208,293.9456,375.5018,293.9265,374.5828,294.6742,373.76,295.5181,373.0041,296.4288,372.0178,297.1091,371.3542,298.1122,371.4901,298.2482,370.3661,297.1241,369.6389,296.397,368.9602,295.7183,367.9998,294.7578,367.1875,293.9456,367.2092,293.9552,368.0107,295.8161,368.9108,297.7207,369.7634,299.6043,370.7067,301.5282,371.3542,303.3206" style="stroke:#333333;stroke-width:1.0416666666666667;"/><path d="M170.9496,197.4772 L170.9496,197.5745 L177.0572,197.2854 L183.1648,197.5667 L189.2724,197.6623 L195.38,197.1469 L201.4877,197.4772 " fill="none" style="stroke:#333333;stroke-width:3.125;"/><polygon fill="#333333" points="201.4877,197.4772,201.5173,197.5439,199.5542,196.5124,197.7649,195.8719,195.919,195.104,193.8871,193.9175,192.1127,193.3105,192.0936,193.2915,192.8413,194.0392,193.6852,194.8831,194.5959,195.7938,195.2762,196.4741,196.2793,197.4772,196.4153,197.6131,195.2912,198.1558,194.5641,199.0953,193.8854,200.0833,192.9249,200.7895,192.1127,201.6439,192.1223,201.6655,193.9832,200.8004,195.8878,200.0339,197.7714,199.2198,199.6953,198.4964,201.4877,197.4772" style="stroke:#333333;stroke-width:1.0416666666666667;"/><path d="M89.0625,91.2562 L89.3544,91.2562 L88.4871,101.2422 L89.331,111.2282 L89.6176,121.2143 L88.0717,131.2003 L89.0625,141.1863 " fill="none" style="stroke:#333333;stroke-width:3.125;"/><polygon fill="#333333" points="89.0625,141.1863,89.1292,141.216,89.7644,139.2529,90.7905,137.4636,91.6893,135.6177,92.1695,133.5857,93.2292,131.8113,93.2101,131.7923,92.2911,132.54,91.4683,133.3838,90.7124,134.2946,89.7261,134.9749,89.0625,135.978,89.1984,136.1139,88.0744,134.9899,87.3473,134.2628,86.6686,133.5841,85.7081,132.6236,84.8958,131.8113,84.9175,131.821,85.719,133.6818,86.6191,135.5865,87.4717,137.4701,88.415,139.3939,89.0625,141.1863" style="stroke:#333333;stroke-width:1.0416666666666667;"/></g></svg>