<?xml version="1.0" encoding="UTF-8" standalone="no"?><svg xmlns="http://www.w3.org/2000/svg" xmlns:xlink="http://www.w3.org/1999/xlink" contentScriptType="application/ecmascript" contentStyleType="text/css" height="458.3333px" preserveAspectRatio="none" style="width:482px;height:458px;background:#00000000;" version="1.1" viewBox="0 0 482 458" width="482.2917px" zoomAndPan="magnify"><defs><linearGradient id="g17gozbnwhf2cc0" x1="50%" x2="50%" y1="0%" y2="100%"><stop offset="0%" stop-color="#33B2E2"/><stop offset="100%" stop-color="#009FDB"/></linearGradient><linearGradient id="g17gozbnwhf2cc1" x1="50%" x2="50%" y1="0%" y2="100%"><stop offset="0%" stop-color="#F5F5F5"/><stop offset="100%" stop-color="#C2C2C2"/></linearGradient></defs><g><rect fill="url(#g17gozbnwhf2cc0)" height="102.5146" rx="10.4167" ry="10.4167" style="stroke:#33B2E2;stroke-width:1.0416666666666667;" width="135.4167" x="52.0833" y="17.098"/><text fill="#D2D2D2" font-family="&quot;Verdana&quot;" font-size="11.4583" lengthAdjust="spacing" textLength="34.375" x="102.6042" y="38.1505">user1</text><line style="stroke:#33B2E2;stroke-width:1.5625;" x1="53.125" x2="186.4583" y1="51.2695" y2="51.2695"/><text fill="#D2D2D2" font-family="&quot;Verdana&quot;" font-size="11.4583" lengthAdjust="spacing" textLength="106.25" x="66.6667" y="74.4054">name = "Dummy"</text><text fill="#D2D2D2" font-family="&quot;Verdana&quot;" font-size="11.4583" lengthAdjust="spacing" textLength="50" x="66.6667" y="104.4103">id = 123</text><rect fill="url(#g17gozbnwhf2cc0)" height="102.5146" rx="10.4167" ry="10.4167" style="stroke:#33B2E2;stroke-width:1.0416666666666667;" width="135.4167" x="206.25" y="17.098"/><text fill="#D2D2D2" font-family="&quot;Verdana&quot;" font-size="11.4583" lengthAdjust="spacing" textLength="34.375" x="256.7708" y="38.1505">user2</text><line style="stroke:#33B2E2;stroke-width:1.5625;" x1="207.2917" x2="340.625" y1="51.2695" y2="51.2695"/><text fill="#D2D2D2" font-family="&quot;Verdana&quot;" font-size="11.4583" lengthAdjust="spacing" textLength="106.25" x="220.8333" y="74.4054">name = "Dummy"</text><text fill="#D2D2D2" font-family="&quot;Verdana&quot;" font-size="11.4583" lengthAdjust="spacing" textLength="50" x="220.8333" y="104.4103">id = 123</text><rect fill="url(#g17gozbnwhf2cc0)" height="50.8382" rx="10.4167" ry="10.4167" style="stroke:#33B2E2;stroke-width:1.0416666666666667;" width="45.8333" x="360.4167" y="42.6188"/><text fill="#D2D2D2" font-family="&quot;Verdana&quot;" font-size="11.4583" lengthAdjust="spacing" textLength="14.5833" x="376.0417" y="63.6714">o1</text><line style="stroke:#33B2E2;stroke-width:1.0416666666666667;" x1="361.4583" x2="405.2083" y1="76.7904" y2="76.7904"/><rect fill="url(#g17gozbnwhf2cc0)" height="50.8382" rx="10.4167" ry="10.4167" style="stroke:#33B2E2;stroke-width:1.0416666666666667;" width="45.8333" x="425" y="42.6188"/><text fill="#D2D2D2" font-family="&quot;Verdana&quot;" font-size="11.4583" lengthAdjust="spacing" textLength="14.5833" x="440.625" y="63.6714">o2</text><line style="stroke:#33B2E2;stroke-width:1.0416666666666667;" x1="426.0417" x2="469.7917" y1="76.7904" y2="76.7904"/><polygon fill="url(#g17gozbnwhf2cc1)" points="415.625,251.9938,428.125,264.4938,415.625,276.9938,403.125,264.4938,415.625,251.9938" style="stroke:#C2C2C2;stroke-width:1.0416666666666667;"/><rect fill="url(#g17gozbnwhf2cc0)" height="50.8382" rx="10.4167" ry="10.4167" style="stroke:#33B2E2;stroke-width:1.0416666666666667;" width="45.8333" x="392.7083" y="396.2646"/><text fill="#D2D2D2" font-family="&quot;Verdana&quot;" font-size="11.4583" lengthAdjust="spacing" textLength="14.5833" x="408.3333" y="417.3172">o3</text><line style="stroke:#33B2E2;stroke-width:1.0416666666666667;" x1="393.75" x2="437.5" y1="430.4362" y2="430.4362"/><rect fill="url(#g17gozbnwhf2cc0)" height="50.8382" rx="10.4167" ry="10.4167" style="stroke:#33B2E2;stroke-width:1.0416666666666667;" width="73.9583" x="258.8542" y="238.973"/><text fill="#D2D2D2" font-family="&quot;Verdana&quot;" font-size="11.4583" lengthAdjust="spacing" textLength="42.7083" x="274.4792" y="260.0255">London</text><line style="stroke:#33B2E2;stroke-width:1.0416666666666667;" x1="259.8958" x2="331.7708" y1="273.1445" y2="273.1445"/><rect height="151.237" rx="10.4167" ry="10.4167" style="stroke:#33B2E2;stroke-width:1.0416666666666667;fill:none;" width="204.1667" x="17.7083" y="188.973"/><text fill="#FFFFFF" font-family="&quot;Verdana&quot;" font-size="14.5833" lengthAdjust="spacing" textLength="73.9583" x="82.8125" y="212.9262">CapitalCity</text><line style="stroke:#33B2E2;stroke-width:1.0416666666666667;" x1="17.7083" x2="221.875" y1="226.7822" y2="226.7822"/><text fill="#FFFFFF" font-family="&quot;Verdana&quot;" font-size="14.5833" lengthAdjust="spacing" textLength="19.7917" x="109.8958" y="250.7355">UK</text><line style="stroke:#33B2E2;stroke-width:1.0416666666666667;" x1="17.7083" x2="221.875" y1="264.5915" y2="264.5915"/><text fill="#FFFFFF" font-family="&quot;Verdana&quot;" font-size="14.5833" lengthAdjust="spacing" textLength="29.1667" x="48.9583" y="288.5447">USA</text><text fill="#FFFFFF" font-family="&quot;Verdana&quot;" font-size="14.5833" lengthAdjust="spacing" textLength="85.4167" x="122.9167" y="288.5447">Washington</text><line style="stroke:#33B2E2;stroke-width:1.0416666666666667;" x1="109.375" x2="109.375" y1="264.5915" y2="302.4007"/><line style="stroke:#33B2E2;stroke-width:1.0416666666666667;" x1="17.7083" x2="221.875" y1="302.4007" y2="302.4007"/><text fill="#FFFFFF" font-family="&quot;Verdana&quot;" font-size="14.5833" lengthAdjust="spacing" textLength="64.5833" x="31.25" y="326.354">Germany</text><text fill="#FFFFFF" font-family="&quot;Verdana&quot;" font-size="14.5833" lengthAdjust="spacing" textLength="40.625" x="122.9167" y="326.354">Berlin</text><line style="stroke:#33B2E2;stroke-width:1.0416666666666667;" x1="109.375" x2="109.375" y1="302.4007" y2="340.21"/><path d="M387.4231,93.7859 C394.4492,136.0555 408.5518,220.8991 413.6931,251.8297 " fill="none" style="stroke:#009FDB;stroke-width:3.125;"/><polygon fill="#009FDB" points="413.6931,251.8297,416.2662,241.8983,412.8391,246.6918,408.0456,243.2647,413.6931,251.8297" style="stroke:#009FDB;stroke-width:1.0416666666666667;"/><path d="M443.8269,93.7859 C436.8008,136.0555 422.6982,220.8991 417.5569,251.8297 " fill="none" style="stroke:#009FDB;stroke-width:3.125;"/><polygon fill="#009FDB" points="417.5569,251.8297,423.2044,243.2647,418.4109,246.6918,414.9838,241.8983,417.5569,251.8297" style="stroke:#009FDB;stroke-width:1.0416666666666667;"/><text fill="#5A5A5A" font-family="Verdana" font-size="12.5" lengthAdjust="spacing" textLength="8.3333" x="399.8486" y="240.5158">1</text><text fill="#5A5A5A" font-family="Verdana" font-size="12.5" lengthAdjust="spacing" textLength="8.3333" x="426.1186" y="114.7636">1</text><path d="M415.625,277.2013 C415.625,302.3695 415.625,362.2272 415.625,396.1626 " fill="none" style="stroke:#009FDB;stroke-width:3.125;"/><polygon fill="#009FDB" points="415.625,396.1626,419.7917,386.7876,415.625,390.9543,411.4583,386.7876,415.625,396.1626" style="stroke:#009FDB;stroke-width:1.0416666666666667;"/><path d="M222.1958,264.4938 C235.206,264.4938 247.7852,264.4938 258.7548,264.4938 " fill="none" style="stroke:#009FDB;stroke-width:3.125;"/><polygon fill="#009FDB" points="258.7548,264.4938,249.3798,260.3271,253.5465,264.4938,249.3798,268.6605,258.7548,264.4938" style="stroke:#009FDB;stroke-width:1.0416666666666667;"/><path d="M119.7917,119.2109 C119.7917,140.3466 119.7917,165.4083 119.7917,188.6633 " fill="none" style="stroke:#009FDB;stroke-width:3.125;"/><polygon fill="#009FDB" points="119.7917,188.6633,123.9583,179.2883,119.7917,183.4549,115.625,179.2883,119.7917,188.6633" style="stroke:#009FDB;stroke-width:1.0416666666666667;"/><text fill="#5A5A5A" font-family="Verdana" font-size="12.5" lengthAdjust="spacing" textLength="32.2917" x="129.1667" y="158.9091">visits</text></g></svg>