<?xml version="1.0" encoding="UTF-8" standalone="no"?><svg xmlns="http://www.w3.org/2000/svg" xmlns:xlink="http://www.w3.org/1999/xlink" contentScriptType="application/ecmascript" contentStyleType="text/css" height="253px" preserveAspectRatio="none" style="width:344px;height:253px;background:#FFFFFF;" version="1.1" viewBox="0 0 344 253" width="344px" zoomAndPan="magnify"><defs/><g><text fill="#000000" font-family="sans-serif" font-size="18" lengthAdjust="spacing" textLength="126" x="102.5" y="16.708">vibrant theme</text><rect fill="#FEFECE" height="49.25" rx="3.5" ry="3.5" style="stroke:#A80036;stroke-width:1.5;" width="104" x="16" y="27.2031"/><text fill="#000000" font-family="sans-serif" font-size="12" lengthAdjust="spacing" textLength="36" x="50" y="40.3418">user1</text><line style="stroke:#A80036;stroke-width:1.5;" x1="17" x2="119" y1="45.1719" y2="45.1719"/><text fill="#000000" font-family="sans-serif" font-size="10" lengthAdjust="spacing" textLength="92" x="22" y="58.4541">name = "Dummy"</text><text fill="#000000" font-family="sans-serif" font-size="10" lengthAdjust="spacing" textLength="40" x="22" y="70.0947">id = 123</text><rect fill="#FEFECE" height="49.25" rx="3.5" ry="3.5" style="stroke:#A80036;stroke-width:1.5;" width="104" x="138" y="27.2031"/><text fill="#000000" font-family="sans-serif" font-size="12" lengthAdjust="spacing" textLength="36" x="172" y="40.3418">user2</text><line style="stroke:#A80036;stroke-width:1.5;" x1="139" x2="241" y1="45.1719" y2="45.1719"/><text fill="#000000" font-family="sans-serif" font-size="10" lengthAdjust="spacing" textLength="92" x="144" y="58.4541">name = "Dummy"</text><text fill="#000000" font-family="sans-serif" font-size="10" lengthAdjust="spacing" textLength="40" x="144" y="70.0947">id = 123</text><rect fill="#FEFECE" height="33.9688" rx="3.5" ry="3.5" style="stroke:#A80036;stroke-width:1.5;" width="30" x="260" y="34.7031"/><text fill="#000000" font-family="sans-serif" font-size="12" lengthAdjust="spacing" textLength="16" x="267" y="47.8418">o1</text><line style="stroke:#A80036;stroke-width:1.5;" x1="261" x2="289" y1="52.6719" y2="52.6719"/><rect fill="#FEFECE" height="33.9688" rx="3.5" ry="3.5" style="stroke:#A80036;stroke-width:1.5;" width="30" x="308" y="34.7031"/><text fill="#000000" font-family="sans-serif" font-size="12" lengthAdjust="spacing" textLength="16" x="315" y="47.8418">o2</text><line style="stroke:#A80036;stroke-width:1.5;" x1="309" x2="337" y1="52.6719" y2="52.6719"/><polygon fill="#FEFECE" points="299,132.7031,311,144.7031,299,156.7031,287,144.7031,299,132.7031" style="stroke:#A80036;stroke-width:1.5;"/><rect fill="#FEFECE" height="33.9688" rx="3.5" ry="3.5" style="stroke:#A80036;stroke-width:1.5;" width="30" x="284" y="213.2031"/><text fill="#000000" font-family="sans-serif" font-size="12" lengthAdjust="spacing" textLength="16" x="291" y="226.3418">o3</text><line style="stroke:#A80036;stroke-width:1.5;" x1="285" x2="313" y1="231.1719" y2="231.1719"/><rect fill="#FEFECE" height="33.9688" rx="3.5" ry="3.5" style="stroke:#A80036;stroke-width:1.5;" width="60" x="147" y="127.7031"/><text fill="#000000" font-family="sans-serif" font-size="12" lengthAdjust="spacing" textLength="46" x="154" y="140.8418">London</text><line style="stroke:#A80036;stroke-width:1.5;" x1="148" x2="206" y1="145.6719" y2="145.6719"/><rect fill="#FEFECE" height="64.8906" rx="3.5" ry="3.5" style="stroke:#A80036;stroke-width:1.5;" width="122" x="7" y="112.2031"/><text fill="#000000" font-family="sans-serif" font-size="12" lengthAdjust="spacing" textLength="65" x="35.5" y="125.3418">CapitalCity</text><line style="stroke:#A80036;stroke-width:1.0;" x1="7" x2="129" y1="130.1719" y2="130.1719"/><text fill="#000000" font-family="sans-serif" font-size="10" lengthAdjust="spacing" textLength="15" x="60.5" y="141.4541">UK</text><line style="stroke:#A80036;stroke-width:1.0;" x1="7" x2="129" y1="145.8125" y2="145.8125"/><text fill="#000000" font-family="sans-serif" font-size="10" lengthAdjust="spacing" textLength="22" x="24" y="157.0947">USA</text><text fill="#000000" font-family="sans-serif" font-size="10" lengthAdjust="spacing" textLength="56" x="68" y="157.0947">Washington</text><line style="stroke:#A80036;stroke-width:1.0;" x1="63" x2="63" y1="145.8125" y2="161.4531"/><line style="stroke:#A80036;stroke-width:1.0;" x1="7" x2="129" y1="161.4531" y2="161.4531"/><text fill="#000000" font-family="sans-serif" font-size="10" lengthAdjust="spacing" textLength="46" x="12" y="172.7354">Germany</text><text fill="#000000" font-family="sans-serif" font-size="10" lengthAdjust="spacing" textLength="27" x="68" y="172.7354">Berlin</text><line style="stroke:#A80036;stroke-width:1.0;" x1="63" x2="63" y1="161.4531" y2="177.0938"/><path d="M279.2907,68.9721 C284.1176,87.274 291.8304,116.5184 296.0334,132.4549 " fill="none" style="stroke:#454645;stroke-width:1.0;"/><polygon fill="#454645" points="296.0334,132.4549,297.606,122.7324,294.7584,127.6202,289.8705,124.7725,296.0334,132.4549" style="stroke:#454645;stroke-width:1.0;"/><path d="M318.7093,68.9721 C313.8824,87.274 306.1696,116.5184 301.9666,132.4549 " fill="none" style="stroke:#454645;stroke-width:1.0;"/><polygon fill="#454645" points="301.9666,132.4549,308.1295,124.7725,303.2416,127.6202,300.394,122.7324,301.9666,132.4549" style="stroke:#454645;stroke-width:1.0;"/><path d="M299,156.9643 C299,171.3873 299,196.4844 299,212.9704 " fill="none" style="stroke:#454645;stroke-width:1.0;"/><polygon fill="#454645" points="299,212.9704,303,203.9704,299,207.9704,295,203.9704,299,212.9704" style="stroke:#454645;stroke-width:1.0;"/><path d="M129.3125,144.7031 C135.1493,144.7031 140.986,144.7031 146.8228,144.7031 " fill="none" style="stroke:#454645;stroke-width:1.0;"/><polygon fill="#454645" points="146.8228,144.7031,137.8228,140.7031,141.8228,144.7031,137.8228,148.7031,146.8228,144.7031" style="stroke:#454645;stroke-width:1.0;"/><path d="M68,76.6123 C68,87.4602 68,100.4396 68,112.0793 " fill="none" style="stroke:#454645;stroke-width:1.0;"/><polygon fill="#454645" points="68,112.0793,72,103.0793,68,107.0793,64,103.0793,68,112.0793" style="stroke:#454645;stroke-width:1.0;"/></g></svg>