<?xml version="1.0" encoding="UTF-8" standalone="no"?><svg xmlns="http://www.w3.org/2000/svg" xmlns:xlink="http://www.w3.org/1999/xlink" contentScriptType="application/ecmascript" contentStyleType="text/css" height="406.25px" preserveAspectRatio="none" style="width:461px;height:406px;background:#00000000;" version="1.1" viewBox="0 0 461 406" width="461.4583px" zoomAndPan="magnify"><defs><filter height="300%" id="f8pt2335u2wt2" width="300%" x="-1" y="-1"><feGaussianBlur result="blurOut" stdDeviation="2.0833333333333335"/><feColorMatrix in="blurOut" result="blurOut2" type="matrix" values="0 0 0 0 0 0 0 0 0 0 0 0 0 0 0 0 0 0 .4 0"/><feOffset dx="4.166666666666667" dy="4.166666666666667" in="blurOut2" result="blurOut3"/><feBlend in="SourceGraphic" in2="blurOut3" mode="normal"/></filter></defs><g><rect height="55.5013" rx="4.1667" ry="4.1667" style="stroke:#CCCCCC;stroke-width:1.0416666666666667;fill:none;" width="272.9167" x="86.9792" y="2.0833"/><text fill="#2196F3" font-family="Verdana" font-size="20.8333" lengthAdjust="spacing" textLength="235.4167" x="105.7292" y="37.0463">materia-outline theme</text><rect filter="url(#f8pt2335u2wt2)" height="116.2272" rx="4.1667" ry="4.1667" style="stroke:#2196F3;stroke-width:1.0416666666666667;fill:none;" width="139.5833" x="7.2917" y="73.8118"/><text fill="#2196F3" font-family="Verdana" font-size="12.5" lengthAdjust="spacing" textLength="37.5" x="58.3333" y="97.9146">user1</text><line style="stroke:#2196F3;stroke-width:1.5625;" x1="8.3333" x2="145.8333" y1="113.3626" y2="113.3626"/><text fill="#CCCCCC" font-family="Verdana" font-size="11.4583" lengthAdjust="spacing" textLength="106.25" x="23.9583" y="138.5818">name = "Dummy"</text><text fill="#CCCCCC" font-family="Verdana" font-size="11.4583" lengthAdjust="spacing" textLength="50" x="23.9583" y="172.7534">id = 123</text><rect filter="url(#f8pt2335u2wt2)" height="116.2272" rx="4.1667" ry="4.1667" style="stroke:#2196F3;stroke-width:1.0416666666666667;fill:none;" width="139.5833" x="165.625" y="73.8118"/><text fill="#2196F3" font-family="Verdana" font-size="12.5" lengthAdjust="spacing" textLength="37.5" x="216.6667" y="97.9146">user2</text><line style="stroke:#2196F3;stroke-width:1.5625;" x1="166.6667" x2="304.1667" y1="113.3626" y2="113.3626"/><text fill="#CCCCCC" font-family="Verdana" font-size="11.4583" lengthAdjust="spacing" textLength="106.25" x="182.2917" y="138.5818">name = "Dummy"</text><text fill="#CCCCCC" font-family="Verdana" font-size="11.4583" lengthAdjust="spacing" textLength="50" x="182.2917" y="172.7534">id = 123</text><rect filter="url(#f8pt2335u2wt2)" height="56.2174" rx="4.1667" ry="4.1667" style="stroke:#2196F3;stroke-width:1.0416666666666667;fill:none;" width="52.0833" x="323.9583" y="104.0202"/><text fill="#2196F3" font-family="Verdana" font-size="12.5" lengthAdjust="spacing" textLength="16.6667" x="341.6667" y="128.123">o1</text><line style="stroke:#2196F3;stroke-width:1.0416666666666667;" x1="325" x2="375" y1="143.571" y2="143.571"/><rect filter="url(#f8pt2335u2wt2)" height="56.2174" rx="4.1667" ry="4.1667" style="stroke:#2196F3;stroke-width:1.0416666666666667;fill:none;" width="52.0833" x="394.7917" y="104.0202"/><text fill="#2196F3" font-family="Verdana" font-size="12.5" lengthAdjust="spacing" textLength="16.6667" x="412.5" y="128.123">o2</text><line style="stroke:#2196F3;stroke-width:1.0416666666666667;" x1="395.8333" x2="445.8333" y1="143.571" y2="143.571"/><polygon filter="url(#f8pt2335u2wt2)" points="385.4167,250.8952,397.9167,263.3952,385.4167,275.8952,372.9167,263.3952,385.4167,250.8952" style="stroke:#CCCCCC;stroke-width:1.5625;fill:none;"/><rect filter="url(#f8pt2335u2wt2)" height="56.2174" rx="4.1667" ry="4.1667" style="stroke:#2196F3;stroke-width:1.0416666666666667;fill:none;" width="52.0833" x="359.375" y="336.3118"/><text fill="#2196F3" font-family="Verdana" font-size="12.5" lengthAdjust="spacing" textLength="16.6667" x="377.0833" y="360.4146">o3</text><line style="stroke:#2196F3;stroke-width:1.0416666666666667;" x1="360.4167" x2="410.4167" y1="375.8626" y2="375.8626"/><path d="M356.2805,160.6588 C361.0023,180.6133 367.8612,208.2015 375,232.1452 C376.8386,238.3121 379.1498,245.0927 381.1277,250.6646 " fill="none" style="stroke:#2196F3;stroke-width:3.125;"/><polygon fill="#2196F3" points="381.1277,250.6646,381.9181,240.4359,379.3854,245.7563,374.0649,243.2236,381.1277,250.6646" style="stroke:#2196F3;stroke-width:1.0416666666666667;"/><path d="M415.7913,160.3931 C411.7703,180.458 405.5547,208.2969 397.9167,232.1452 C395.9085,238.4153 393.1537,245.2056 390.7412,250.7572 " fill="none" style="stroke:#2196F3;stroke-width:3.125;"/><polygon fill="#2196F3" points="390.7412,250.7572,398.2991,243.8196,392.817,245.9804,390.6562,240.4984,390.7412,250.7572" style="stroke:#2196F3;stroke-width:1.0416666666666667;"/><path d="M385.4167,276.1773 C385.4167,290.8197 385.4167,316.3181 385.4167,335.9755 " fill="none" style="stroke:#2196F3;stroke-width:3.125;"/><polygon fill="#2196F3" points="385.4167,335.9755,389.5833,326.6005,385.4167,330.7672,381.25,326.6005,385.4167,335.9755" style="stroke:#2196F3;stroke-width:1.0416666666666667;"/></g></svg>