<?xml version="1.0" encoding="UTF-8" standalone="no"?><svg xmlns="http://www.w3.org/2000/svg" xmlns:xlink="http://www.w3.org/1999/xlink" contentStyleType="text/css" height="502.0833px" preserveAspectRatio="none" style="width:498px;height:502px;background:#00000000;" version="1.1" viewBox="0 0 498 502" width="498.9583px" zoomAndPan="magnify"><defs><linearGradient id="g1igyco1ali4dm0" x1="50%" x2="50%" y1="0%" y2="100%"><stop offset="0%" stop-color="#4DABF5"/><stop offset="100%" stop-color="#2196F3"/></linearGradient><filter height="300%" id="f1igyco1ali4dm" width="300%" x="-1" y="-1"><feGaussianBlur result="blurOut" stdDeviation="2.0833333333333335"/><feColorMatrix in="blurOut" result="blurOut2" type="matrix" values="0 0 0 0 0 0 0 0 0 0 0 0 0 0 0 0 0 0 .4 0"/><feOffset dx="4.166666666666667" dy="4.166666666666667" in="blurOut2" result="blurOut3"/><feBlend in="SourceGraphic" in2="blurOut3" mode="normal"/></filter><linearGradient id="g1igyco1ali4dm1" x1="50%" x2="50%" y1="0%" y2="100%"><stop offset="0%" stop-color="#FFFFFF"/><stop offset="100%" stop-color="#FFFFFF"/></linearGradient></defs><g><g id="elem_user1"><rect fill="url(#g1igyco1ali4dm0)" filter="url(#f1igyco1ali4dm)" height="115.0146" rx="4.1667" ry="4.1667" style="stroke:#2196F3;stroke-width:1.0416666666666667;" width="139.5833" x="46.3542" y="22.3063"/><text fill="#222222" font-family="&quot;Verdana&quot;" font-size="11.4583" lengthAdjust="spacing" textLength="34.375" x="98.9583" y="45.4422">user1</text><line style="stroke:#2196F3;stroke-width:1.0416666666666667;" x1="47.3958" x2="184.8958" y1="60.6445" y2="60.6445"/><text fill="#222222" font-family="&quot;Verdana&quot;" font-size="11.4583" lengthAdjust="spacing" textLength="106.25" x="63.0208" y="85.8637">name = "Dummy"</text><text fill="#222222" font-family="&quot;Verdana&quot;" font-size="11.4583" lengthAdjust="spacing" textLength="50" x="63.0208" y="120.0353">id = 123</text></g><g id="elem_user2"><rect fill="url(#g1igyco1ali4dm0)" filter="url(#f1igyco1ali4dm)" height="115.0146" rx="4.1667" ry="4.1667" style="stroke:#2196F3;stroke-width:1.0416666666666667;" width="139.5833" x="204.6875" y="22.3063"/><text fill="#222222" font-family="&quot;Verdana&quot;" font-size="11.4583" lengthAdjust="spacing" textLength="34.375" x="257.2917" y="45.4422">user2</text><line style="stroke:#2196F3;stroke-width:1.0416666666666667;" x1="205.7292" x2="343.2292" y1="60.6445" y2="60.6445"/><text fill="#222222" font-family="&quot;Verdana&quot;" font-size="11.4583" lengthAdjust="spacing" textLength="106.25" x="221.3542" y="85.8637">name = "Dummy"</text><text fill="#222222" font-family="&quot;Verdana&quot;" font-size="11.4583" lengthAdjust="spacing" textLength="50" x="221.3542" y="120.0353">id = 123</text></g><g id="elem_o1"><rect fill="url(#g1igyco1ali4dm0)" filter="url(#f1igyco1ali4dm)" height="55.0049" rx="4.1667" ry="4.1667" style="stroke:#2196F3;stroke-width:1.0416666666666667;" width="50" x="363.0208" y="51.9938"/><text fill="#222222" font-family="&quot;Verdana&quot;" font-size="11.4583" lengthAdjust="spacing" textLength="14.5833" x="380.7292" y="75.1297">o1</text><line style="stroke:#2196F3;stroke-width:1.0416666666666667;" x1="364.0625" x2="411.9792" y1="90.332" y2="90.332"/></g><g id="elem_o2"><rect fill="url(#g1igyco1ali4dm0)" filter="url(#f1igyco1ali4dm)" height="55.0049" rx="4.1667" ry="4.1667" style="stroke:#2196F3;stroke-width:1.0416666666666667;" width="50" x="431.7708" y="51.9938"/><text fill="#222222" font-family="&quot;Verdana&quot;" font-size="11.4583" lengthAdjust="spacing" textLength="14.5833" x="449.4792" y="75.1297">o2</text><line style="stroke:#2196F3;stroke-width:1.0416666666666667;" x1="432.8125" x2="480.7292" y1="90.332" y2="90.332"/></g><g id="elem_dia"><polygon fill="url(#g1igyco1ali4dm1)" filter="url(#f1igyco1ali4dm)" points="422.3958,277.5146,434.8958,290.0146,422.3958,302.5146,409.8958,290.0146,422.3958,277.5146" style="stroke:#CCCCCC;stroke-width:1.0416666666666667;"/></g><g id="elem_o3"><rect fill="url(#g1igyco1ali4dm0)" filter="url(#f1igyco1ali4dm)" height="55.0049" rx="4.1667" ry="4.1667" style="stroke:#2196F3;stroke-width:1.0416666666666667;" width="50" x="397.3958" y="429.598"/><text fill="#222222" font-family="&quot;Verdana&quot;" font-size="11.4583" lengthAdjust="spacing" textLength="14.5833" x="415.1042" y="452.7339">o3</text><line style="stroke:#2196F3;stroke-width:1.0416666666666667;" x1="398.4375" x2="446.3542" y1="467.9362" y2="467.9362"/></g><g id="elem_London"><rect fill="url(#g1igyco1ali4dm0)" filter="url(#f1igyco1ali4dm)" height="55.0049" rx="4.1667" ry="4.1667" style="stroke:#2196F3;stroke-width:1.0416666666666667;" width="78.125" x="256.25" y="262.4105"/><text fill="#222222" font-family="&quot;Verdana&quot;" font-size="11.4583" lengthAdjust="spacing" textLength="42.7083" x="273.9583" y="285.5464">London</text><line style="stroke:#2196F3;stroke-width:1.0416666666666667;" x1="257.2917" x2="333.3333" y1="300.7487" y2="300.7487"/></g><g id="elem_CapitalCity"><rect filter="url(#f1igyco1ali4dm)" height="158.2031" rx="4.1667" ry="4.1667" style="stroke:#1A78C2;stroke-width:1.0416666666666667;fill:none;" width="196.875" x="17.7083" y="210.848"/><text fill="#FFFFFF" font-family="&quot;Verdana&quot;" font-size="12.5" lengthAdjust="spacing" textLength="67.7083" x="82.2917" y="234.9508">CapitalCity</text><line style="stroke:#1A78C2;stroke-width:1.0416666666666667;" x1="17.7083" x2="214.5833" y1="250.3988" y2="250.3988"/><text fill="#FFFFFF" font-family="&quot;Verdana&quot;" font-size="12.5" lengthAdjust="spacing" textLength="16.6667" x="107.8125" y="274.5015">UK</text><line style="stroke:#1A78C2;stroke-width:1.0416666666666667;" x1="17.7083" x2="214.5833" y1="289.9495" y2="289.9495"/><text fill="#FFFFFF" font-family="&quot;Verdana&quot;" font-size="12.5" lengthAdjust="spacing" textLength="26.0417" x="48.9583" y="314.0523">USA</text><text fill="#FFFFFF" font-family="&quot;Verdana&quot;" font-size="12.5" lengthAdjust="spacing" textLength="77.0833" x="121.875" y="314.0523">Washington</text><line style="stroke:#1A78C2;stroke-width:1.0416666666666667;" x1="106.25" x2="106.25" y1="289.9495" y2="329.5003"/><line style="stroke:#1A78C2;stroke-width:1.0416666666666667;" x1="17.7083" x2="214.5833" y1="329.5003" y2="329.5003"/><text fill="#FFFFFF" font-family="&quot;Verdana&quot;" font-size="12.5" lengthAdjust="spacing" textLength="57.2917" x="33.3333" y="353.6031">Germany</text><text fill="#FFFFFF" font-family="&quot;Verdana&quot;" font-size="12.5" lengthAdjust="spacing" textLength="36.4583" x="121.875" y="353.6031">Berlin</text><line style="stroke:#1A78C2;stroke-width:1.0416666666666667;" x1="106.25" x2="106.25" y1="329.5003" y2="369.0511"/></g><path d="M392.4444,107.4491 C400.024,153.3862 415.1907,245.3058 420.5043,277.5091 " fill="none" style="stroke:#2196F3;stroke-width:3.125;"/><polygon fill="#2196F3" points="420.5043,277.5091,423.0891,267.5809,419.6564,272.3703,414.867,268.9375,420.5043,277.5091" style="stroke:#2196F3;stroke-width:1.0416666666666667;"/><path d="M452.3473,107.4491 C444.7676,153.3862 429.6009,245.3058 424.2874,277.5091 " fill="none" style="stroke:#2196F3;stroke-width:3.125;"/><polygon fill="#2196F3" points="424.2874,277.5091,429.9247,268.9375,425.1353,272.3703,421.7025,267.5809,424.2874,277.5091" style="stroke:#2196F3;stroke-width:1.0416666666666667;"/><text fill="#222222" font-family="Verdana" font-size="12.5" lengthAdjust="spacing" textLength="8.3333" x="404.4957" y="264.1119">1</text><text fill="#222222" font-family="Verdana" font-size="12.5" lengthAdjust="spacing" textLength="8.3333" x="432.5556" y="130.5102">1</text><path d="M422.3958,302.6661 C422.3958,328.7968 422.3958,392.7978 422.3958,429.3726 " fill="none" style="stroke:#2196F3;stroke-width:3.125;"/><polygon fill="#2196F3" points="422.3958,429.3726,426.5625,419.9976,422.3958,424.1643,418.2292,419.9976,422.3958,429.3726" style="stroke:#2196F3;stroke-width:1.0416666666666667;"/><path d="M214.6394,290.0146 C229.2759,290.0146 243.592,290.0146 256.004,290.0146 " fill="none" style="stroke:#2196F3;stroke-width:3.125;"/><polygon fill="#2196F3" points="256.004,290.0146,246.629,285.848,250.7957,290.0146,246.629,294.1813,256.004,290.0146" style="stroke:#2196F3;stroke-width:1.0416666666666667;"/><path d="M116.1458,137.0176 C116.1458,159.6727 116.1458,186.178 116.1458,210.6517 " fill="none" style="stroke:#2196F3;stroke-width:3.125;"/><polygon fill="#2196F3" points="116.1458,210.6517,120.3125,201.2767,116.1458,205.4433,111.9792,201.2767,116.1458,210.6517" style="stroke:#2196F3;stroke-width:1.0416666666666667;"/><text fill="#222222" font-family="Verdana" font-size="12.5" lengthAdjust="spacing" textLength="32.2917" x="127.6042" y="178.7008">visits</text></g></svg>