<?xml version="1.0" encoding="UTF-8" standalone="no"?><svg xmlns="http://www.w3.org/2000/svg" xmlns:xlink="http://www.w3.org/1999/xlink" contentScriptType="application/ecmascript" contentStyleType="text/css" height="535.4167px" preserveAspectRatio="none" style="width:483px;height:535px;background:#00000000;" version="1.1" viewBox="0 0 483 535" width="483.3333px" zoomAndPan="magnify"><defs><linearGradient id="g4sux8tylrapt0" x1="50%" x2="50%" y1="0%" y2="100%"><stop offset="0%" stop-color="#FFFFFF"/><stop offset="100%" stop-color="#FFFFFF"/></linearGradient><linearGradient id="g4sux8tylrapt1" x1="50%" x2="50%" y1="0%" y2="100%"><stop offset="0%" stop-color="#4DABF5"/><stop offset="100%" stop-color="#2196F3"/></linearGradient><filter height="300%" id="f4sux8tylrapt" width="300%" x="-1" y="-1"><feGaussianBlur result="blurOut" stdDeviation="2.0833333333333335"/><feColorMatrix in="blurOut" result="blurOut2" type="matrix" values="0 0 0 0 0 0 0 0 0 0 0 0 0 0 0 0 0 0 .4 0"/><feOffset dx="4.166666666666667" dy="4.166666666666667" in="blurOut2" result="blurOut3"/><feBlend in="SourceGraphic" in2="blurOut3" mode="normal"/></filter></defs><g><rect fill="url(#g4sux8tylrapt0)" height="55.5013" rx="4.1667" ry="4.1667" style="stroke:#CCCCCC;stroke-width:1.0416666666666667;" width="192.7083" x="138.2813" y="2.0833"/><text fill="#2196F3" font-family="Verdana" font-size="20.8333" lengthAdjust="spacing" textLength="155.2083" x="157.0313" y="37.0463">materia theme</text><rect fill="url(#g4sux8tylrapt1)" filter="url(#f4sux8tylrapt)" height="116.2272" rx="4.1667" ry="4.1667" style="stroke:#2196F3;stroke-width:1.0416666666666667;" width="139.5833" x="29.6875" y="73.8118"/><text fill="#FFFFFF" font-family="Verdana" font-size="12.5" lengthAdjust="spacing" textLength="37.5" x="80.7292" y="97.9146">user1</text><line style="stroke:#2196F3;stroke-width:1.5625;" x1="30.7292" x2="168.2292" y1="113.3626" y2="113.3626"/><text fill="#222222" font-family="Verdana" font-size="11.4583" lengthAdjust="spacing" textLength="106.25" x="46.3542" y="138.5818">name = "Dummy"</text><text fill="#222222" font-family="Verdana" font-size="11.4583" lengthAdjust="spacing" textLength="50" x="46.3542" y="172.7534">id = 123</text><rect fill="url(#g4sux8tylrapt1)" filter="url(#f4sux8tylrapt)" height="116.2272" rx="4.1667" ry="4.1667" style="stroke:#2196F3;stroke-width:1.0416666666666667;" width="139.5833" x="188.0208" y="73.8118"/><text fill="#FFFFFF" font-family="Verdana" font-size="12.5" lengthAdjust="spacing" textLength="37.5" x="239.0625" y="97.9146">user2</text><line style="stroke:#2196F3;stroke-width:1.5625;" x1="189.0625" x2="326.5625" y1="113.3626" y2="113.3626"/><text fill="#222222" font-family="Verdana" font-size="11.4583" lengthAdjust="spacing" textLength="106.25" x="204.6875" y="138.5818">name = "Dummy"</text><text fill="#222222" font-family="Verdana" font-size="11.4583" lengthAdjust="spacing" textLength="50" x="204.6875" y="172.7534">id = 123</text><rect fill="url(#g4sux8tylrapt1)" filter="url(#f4sux8tylrapt)" height="56.2174" rx="4.1667" ry="4.1667" style="stroke:#2196F3;stroke-width:1.0416666666666667;" width="52.0833" x="346.3542" y="104.0202"/><text fill="#FFFFFF" font-family="Verdana" font-size="12.5" lengthAdjust="spacing" textLength="16.6667" x="364.0625" y="128.123">o1</text><line style="stroke:#2196F3;stroke-width:1.0416666666666667;" x1="347.3958" x2="397.3958" y1="143.571" y2="143.571"/><rect fill="url(#g4sux8tylrapt1)" filter="url(#f4sux8tylrapt)" height="56.2174" rx="4.1667" ry="4.1667" style="stroke:#2196F3;stroke-width:1.0416666666666667;" width="52.0833" x="417.1875" y="104.0202"/><text fill="#FFFFFF" font-family="Verdana" font-size="12.5" lengthAdjust="spacing" textLength="16.6667" x="434.8958" y="128.123">o2</text><line style="stroke:#2196F3;stroke-width:1.0416666666666667;" x1="418.2292" x2="468.2292" y1="143.571" y2="143.571"/><polygon fill="url(#g4sux8tylrapt0)" filter="url(#f4sux8tylrapt)" points="407.8125,315.4785,420.3125,327.9785,407.8125,340.4785,395.3125,327.9785,407.8125,315.4785" style="stroke:#CCCCCC;stroke-width:1.5625;"/><rect fill="url(#g4sux8tylrapt1)" filter="url(#f4sux8tylrapt)" height="56.2174" rx="4.1667" ry="4.1667" style="stroke:#2196F3;stroke-width:1.0416666666666667;" width="52.0833" x="381.7708" y="465.4785"/><text fill="#FFFFFF" font-family="Verdana" font-size="12.5" lengthAdjust="spacing" textLength="16.6667" x="399.4792" y="489.5813">o3</text><line style="stroke:#2196F3;stroke-width:1.0416666666666667;" x1="382.8125" x2="432.8125" y1="505.0293" y2="505.0293"/><rect fill="url(#g4sux8tylrapt1)" filter="url(#f4sux8tylrapt)" height="56.2174" rx="4.1667" ry="4.1667" style="stroke:#2196F3;stroke-width:1.0416666666666667;" width="83.3333" x="232.8125" y="299.8535"/><text fill="#FFFFFF" font-family="Verdana" font-size="12.5" lengthAdjust="spacing" textLength="47.9167" x="250.5208" y="323.9563">London</text><line style="stroke:#2196F3;stroke-width:1.0416666666666667;" x1="233.8542" x2="315.1042" y1="339.4043" y2="339.4043"/><rect fill="url(#g4sux8tylrapt1)" filter="url(#f4sux8tylrapt)" height="154.5654" rx="4.1667" ry="4.1667" style="stroke:#2196F3;stroke-width:1.0416666666666667;" width="184.375" x="7.2917" y="250.8952"/><text fill="#FFFFFF" font-family="Verdana" font-size="12.5" lengthAdjust="spacing" textLength="67.7083" x="65.625" y="274.998">CapitalCity</text><line style="stroke:#2196F3;stroke-width:1.0416666666666667;" x1="7.2917" x2="191.6667" y1="290.446" y2="290.446"/><text fill="#222222" font-family="Verdana" font-size="11.4583" lengthAdjust="spacing" textLength="15.625" x="91.6667" y="313.5818">UK</text><line style="stroke:#2196F3;stroke-width:1.0416666666666667;" x1="7.2917" x2="191.6667" y1="328.7842" y2="328.7842"/><text fill="#222222" font-family="Verdana" font-size="11.4583" lengthAdjust="spacing" textLength="23.9583" x="38.0208" y="351.9201">USA</text><text fill="#222222" font-family="Verdana" font-size="11.4583" lengthAdjust="spacing" textLength="67.7083" x="108.3333" y="351.9201">Washington</text><line style="stroke:#2196F3;stroke-width:1.0416666666666667;" x1="92.7083" x2="92.7083" y1="328.7842" y2="367.1224"/><line style="stroke:#2196F3;stroke-width:1.0416666666666667;" x1="7.2917" x2="191.6667" y1="367.1224" y2="367.1224"/><text fill="#222222" font-family="Verdana" font-size="11.4583" lengthAdjust="spacing" textLength="54.1667" x="22.9167" y="390.2583">Germany</text><text fill="#222222" font-family="Verdana" font-size="11.4583" lengthAdjust="spacing" textLength="34.375" x="108.3333" y="390.2583">Berlin</text><line style="stroke:#2196F3;stroke-width:1.0416666666666667;" x1="92.7083" x2="92.7083" y1="367.1224" y2="405.4606"/><path d="M377.3951,160.5356 C385.2509,203.5118 400.1597,285.0716 405.6838,315.2915 " fill="none" style="stroke:#2196F3;stroke-width:3.125;"/><polygon fill="#2196F3" points="405.6838,315.2915,408.0968,305.3201,404.7472,310.1681,399.8993,306.8186,405.6838,315.2915" style="stroke:#2196F3;stroke-width:1.0416666666666667;"/><path d="M438.2299,160.5356 C430.3741,203.5118 415.4653,285.0716 409.9412,315.2915 " fill="none" style="stroke:#2196F3;stroke-width:3.125;"/><polygon fill="#2196F3" points="409.9412,315.2915,415.7257,306.8186,410.8778,310.1681,407.5282,305.3201,409.9412,315.2915" style="stroke:#2196F3;stroke-width:1.0416666666666667;"/><path d="M407.8125,340.7817 C407.8125,366.6352 407.8125,428.9872 407.8125,465.2203 " fill="none" style="stroke:#2196F3;stroke-width:3.125;"/><polygon fill="#2196F3" points="407.8125,465.2203,411.9792,455.8453,407.8125,460.012,403.6458,455.8453,407.8125,465.2203" style="stroke:#2196F3;stroke-width:1.0416666666666667;"/><path d="M192.1035,327.9785 C206.2051,327.9785 220.1286,327.9785 232.4023,327.9785 " fill="none" style="stroke:#2196F3;stroke-width:3.125;"/><polygon fill="#2196F3" points="232.4023,327.9785,223.0273,323.8118,227.1939,327.9785,223.0273,332.1452,232.4023,327.9785" style="stroke:#2196F3;stroke-width:1.0416666666666667;"/><path d="M99.4792,190.5318 C99.4792,209.3899 99.4792,230.6603 99.4792,250.6958 " fill="none" style="stroke:#2196F3;stroke-width:3.125;"/><polygon fill="#2196F3" points="99.4792,250.6958,103.6458,241.3208,99.4792,245.4874,95.3125,241.3208,99.4792,250.6958" style="stroke:#2196F3;stroke-width:1.0416666666666667;"/></g></svg>