<?xml version="1.0" encoding="UTF-8" standalone="no"?><svg xmlns="http://www.w3.org/2000/svg" xmlns:xlink="http://www.w3.org/1999/xlink" contentScriptType="application/ecmascript" contentStyleType="text/css" height="247px" preserveAspectRatio="none" style="width:352px;height:247px;background:#FFFFFF;" version="1.1" viewBox="0 0 352 247" width="352px" zoomAndPan="magnify"><defs><filter height="300%" id="f9lykqycy937" width="300%" x="-1" y="-1"><feGaussianBlur result="blurOut" stdDeviation="2.0"/><feColorMatrix in="blurOut" result="blurOut2" type="matrix" values="0 0 0 0 0 0 0 0 0 0 0 0 0 0 0 0 0 0 .4 0"/><feOffset dx="4.0" dy="4.0" in="blurOut2" result="blurOut3"/><feBlend in="SourceGraphic" in2="blurOut3" mode="normal"/></filter></defs><g><rect fill="#FEFECE" filter="url(#f9lykqycy937)" height="49.25" style="stroke:#A80036;stroke-width:1.5;" width="104" x="16" y="13.25"/><text fill="#000000" font-family="sans-serif" font-size="12" lengthAdjust="spacing" textLength="36" x="50" y="26.3887">user1</text><line style="stroke:#A80036;stroke-width:1.5;" x1="17" x2="119" y1="31.2188" y2="31.2188"/><text fill="#000000" font-family="sans-serif" font-size="10" lengthAdjust="spacing" textLength="92" x="22" y="44.501">name = "Dummy"</text><text fill="#000000" font-family="sans-serif" font-size="10" lengthAdjust="spacing" textLength="40" x="22" y="56.1416">id = 123</text><rect fill="#FEFECE" filter="url(#f9lykqycy937)" height="49.25" style="stroke:#A80036;stroke-width:1.5;" width="104" x="138" y="13.25"/><text fill="#000000" font-family="sans-serif" font-size="12" lengthAdjust="spacing" textLength="36" x="172" y="26.3887">user2</text><line style="stroke:#A80036;stroke-width:1.5;" x1="139" x2="241" y1="31.2188" y2="31.2188"/><text fill="#000000" font-family="sans-serif" font-size="10" lengthAdjust="spacing" textLength="92" x="144" y="44.501">name = "Dummy"</text><text fill="#000000" font-family="sans-serif" font-size="10" lengthAdjust="spacing" textLength="40" x="144" y="56.1416">id = 123</text><rect fill="#FEFECE" filter="url(#f9lykqycy937)" height="33.9688" style="stroke:#A80036;stroke-width:1.5;" width="30" x="260" y="20.75"/><text fill="#000000" font-family="sans-serif" font-size="12" lengthAdjust="spacing" textLength="16" x="267" y="33.8887">o1</text><line style="stroke:#A80036;stroke-width:1.5;" x1="261" x2="289" y1="38.7188" y2="38.7188"/><rect fill="#FEFECE" filter="url(#f9lykqycy937)" height="33.9688" style="stroke:#A80036;stroke-width:1.5;" width="30" x="308" y="20.75"/><text fill="#000000" font-family="sans-serif" font-size="12" lengthAdjust="spacing" textLength="16" x="315" y="33.8887">o2</text><line style="stroke:#A80036;stroke-width:1.5;" x1="309" x2="337" y1="38.7188" y2="38.7188"/><polygon fill="#FEFECE" filter="url(#f9lykqycy937)" points="299,118.75,311,130.75,299,142.75,287,130.75,299,118.75" style="stroke:#A80036;stroke-width:1.5;"/><rect fill="#FEFECE" filter="url(#f9lykqycy937)" height="33.9688" style="stroke:#A80036;stroke-width:1.5;" width="30" x="284" y="199.25"/><text fill="#000000" font-family="sans-serif" font-size="12" lengthAdjust="spacing" textLength="16" x="291" y="212.3887">o3</text><line style="stroke:#A80036;stroke-width:1.5;" x1="285" x2="313" y1="217.2188" y2="217.2188"/><rect fill="#FEFECE" filter="url(#f9lykqycy937)" height="33.9688" style="stroke:#A80036;stroke-width:1.5;" width="60" x="147" y="113.75"/><text fill="#000000" font-family="sans-serif" font-size="12" lengthAdjust="spacing" textLength="46" x="154" y="126.8887">London</text><line style="stroke:#A80036;stroke-width:1.5;" x1="148" x2="206" y1="131.7188" y2="131.7188"/><rect fill="#FEFECE" filter="url(#f9lykqycy937)" height="64.8906" style="stroke:#A80036;stroke-width:1.5;" width="122" x="7" y="98.25"/><text fill="#000000" font-family="sans-serif" font-size="12" lengthAdjust="spacing" textLength="65" x="35.5" y="111.3887">CapitalCity</text><line style="stroke:#A80036;stroke-width:1.0;" x1="7" x2="129" y1="116.2188" y2="116.2188"/><text fill="#000000" font-family="sans-serif" font-size="10" lengthAdjust="spacing" textLength="15" x="60.5" y="127.501">UK</text><line style="stroke:#A80036;stroke-width:1.0;" x1="7" x2="129" y1="131.8594" y2="131.8594"/><text fill="#000000" font-family="sans-serif" font-size="10" lengthAdjust="spacing" textLength="22" x="24" y="143.1416">USA</text><text fill="#000000" font-family="sans-serif" font-size="10" lengthAdjust="spacing" textLength="56" x="68" y="143.1416">Washington</text><line style="stroke:#A80036;stroke-width:1.0;" x1="63" x2="63" y1="131.8594" y2="147.5"/><line style="stroke:#A80036;stroke-width:1.0;" x1="7" x2="129" y1="147.5" y2="147.5"/><text fill="#000000" font-family="sans-serif" font-size="10" lengthAdjust="spacing" textLength="46" x="12" y="158.7822">Germany</text><text fill="#000000" font-family="sans-serif" font-size="10" lengthAdjust="spacing" textLength="27" x="68" y="158.7822">Berlin</text><line style="stroke:#A80036;stroke-width:1.0;" x1="63" x2="63" y1="147.5" y2="163.1406"/><path d="M279.2907,55.019 C284.1176,73.3209 291.8304,102.5652 296.0334,118.5018 " fill="none" style="stroke:#A80036;stroke-width:1.0;"/><polygon fill="#A80036" points="296.0334,118.5018,297.606,108.7793,294.7584,113.6671,289.8705,110.8194,296.0334,118.5018" style="stroke:#A80036;stroke-width:1.0;"/><path d="M318.7093,55.019 C313.8824,73.3209 306.1696,102.5652 301.9666,118.5018 " fill="none" style="stroke:#A80036;stroke-width:1.0;"/><polygon fill="#A80036" points="301.9666,118.5018,308.1295,110.8194,303.2416,113.6671,300.394,108.7793,301.9666,118.5018" style="stroke:#A80036;stroke-width:1.0;"/><path d="M299,143.0112 C299,157.4342 299,182.5312 299,199.0173 " fill="none" style="stroke:#A80036;stroke-width:1.0;"/><polygon fill="#A80036" points="299,199.0173,303,190.0173,299,194.0173,295,190.0173,299,199.0173" style="stroke:#A80036;stroke-width:1.0;"/><path d="M129.3125,130.75 C135.1493,130.75 140.986,130.75 146.8228,130.75 " fill="none" style="stroke:#A80036;stroke-width:1.0;"/><polygon fill="#A80036" points="146.8228,130.75,137.8228,126.75,141.8228,130.75,137.8228,134.75,146.8228,130.75" style="stroke:#A80036;stroke-width:1.0;"/><path d="M68,62.6592 C68,73.5071 68,86.4865 68,98.1262 " fill="none" style="stroke:#A80036;stroke-width:1.0;"/><polygon fill="#A80036" points="68,98.1262,72,89.1262,68,93.1262,64,89.1262,68,98.1262" style="stroke:#A80036;stroke-width:1.0;"/></g></svg>