<?xml version="1.0" encoding="us-ascii" standalone="no"?><svg xmlns="http://www.w3.org/2000/svg" xmlns:xlink="http://www.w3.org/1999/xlink" contentStyleType="text/css" height="541px" preserveAspectRatio="none" style="width:606px;height:541px;" version="1.1" viewBox="0 0 606 541" width="606px" zoomAndPan="magnify"><defs><linearGradient id="gltui3bp2czky0" x1="50%" x2="50%" y1="0%" y2="100%"><stop offset="0%" stop-color="#F4F4F4"/><stop offset="100%" stop-color="#F4F4F4"/></linearGradient></defs><g><g id="elem_user1"><rect fill="url(#gltui3bp2czky0)" height="110.4141" style="stroke:#C6C6C6;stroke-width:1.0;" width="134" x="33.5" y="52"/><rect fill="url(#gltui3bp2czky0)" height="36.8047" style="stroke:#C6C6C6;stroke-width:1.0;" width="134" x="33.5" y="52"/><text fill="#262626" font-family="sans-serif" font-size="11" lengthAdjust="spacing" textLength="33" x="84" y="74.2104">user1</text><line style="stroke:#C6C6C6;stroke-width:1.0;" x1="34.5" x2="166.5" y1="88.8047" y2="88.8047"/><text fill="#262626" font-family="sans-serif" font-size="11" lengthAdjust="spacing" textLength="102" x="49.5" y="113.0151">name = "Dummy"</text><text fill="#262626" font-family="sans-serif" font-size="11" lengthAdjust="spacing" textLength="48" x="49.5" y="145.8198">id = 123</text></g><g id="elem_user2"><rect fill="url(#gltui3bp2czky0)" height="110.4141" style="stroke:#C6C6C6;stroke-width:1.0;" width="134" x="185.5" y="52"/><rect fill="url(#gltui3bp2czky0)" height="36.8047" style="stroke:#C6C6C6;stroke-width:1.0;" width="134" x="185.5" y="52"/><text fill="#262626" font-family="sans-serif" font-size="11" lengthAdjust="spacing" textLength="33" x="236" y="74.2104">user2</text><line style="stroke:#C6C6C6;stroke-width:1.0;" x1="186.5" x2="318.5" y1="88.8047" y2="88.8047"/><text fill="#262626" font-family="sans-serif" font-size="11" lengthAdjust="spacing" textLength="102" x="201.5" y="113.0151">name = "Dummy"</text><text fill="#262626" font-family="sans-serif" font-size="11" lengthAdjust="spacing" textLength="48" x="201.5" y="145.8198">id = 123</text></g><g id="elem_o1"><rect fill="url(#gltui3bp2czky0)" height="52.8047" style="stroke:#C6C6C6;stroke-width:1.0;" width="48" x="337.5" y="80.5"/><rect fill="url(#gltui3bp2czky0)" height="36.8047" style="stroke:#C6C6C6;stroke-width:1.0;" width="48" x="337.5" y="80.5"/><text fill="#262626" font-family="sans-serif" font-size="11" lengthAdjust="spacing" textLength="14" x="354.5" y="102.7104">o1</text><line style="stroke:#C6C6C6;stroke-width:1.0;" x1="338.5" x2="384.5" y1="117.3047" y2="117.3047"/></g><g id="elem_o2"><rect fill="url(#gltui3bp2czky0)" height="52.8047" style="stroke:#C6C6C6;stroke-width:1.0;" width="48" x="403.5" y="80.5"/><rect fill="url(#gltui3bp2czky0)" height="36.8047" style="stroke:#C6C6C6;stroke-width:1.0;" width="48" x="403.5" y="80.5"/><text fill="#262626" font-family="sans-serif" font-size="11" lengthAdjust="spacing" textLength="14" x="420.5" y="102.7104">o2</text><line style="stroke:#C6C6C6;stroke-width:1.0;" x1="404.5" x2="450.5" y1="117.3047" y2="117.3047"/></g><g id="elem_dia"><polygon fill="url(#gltui3bp2czky0)" points="394.5,337,406.5,349,394.5,361,382.5,349,394.5,337" style="stroke:#F4F4F4;stroke-width:0.5;"/></g><g id="elem_o3"><rect fill="url(#gltui3bp2czky0)" height="52.8047" style="stroke:#C6C6C6;stroke-width:1.0;" width="48" x="370.5" y="483"/><rect fill="url(#gltui3bp2czky0)" height="36.8047" style="stroke:#C6C6C6;stroke-width:1.0;" width="48" x="370.5" y="483"/><text fill="#262626" font-family="sans-serif" font-size="11" lengthAdjust="spacing" textLength="14" x="387.5" y="505.2104">o3</text><line style="stroke:#C6C6C6;stroke-width:1.0;" x1="371.5" x2="417.5" y1="519.8047" y2="519.8047"/></g><g id="elem_London"><rect fill="url(#gltui3bp2czky0)" height="52.8047" style="stroke:#C6C6C6;stroke-width:1.0;" width="75" x="235" y="322.5"/><rect fill="url(#gltui3bp2czky0)" height="36.8047" style="stroke:#C6C6C6;stroke-width:1.0;" width="75" x="235" y="322.5"/><text fill="#262626" font-family="sans-serif" font-size="11" lengthAdjust="spacing" textLength="41" x="252" y="344.7104">London</text><line style="stroke:#C6C6C6;stroke-width:1.0;" x1="236" x2="309" y1="359.3047" y2="359.3047"/></g><g id="elem_CapitalCity"><rect fill="#F1F1F1" height="151.875" style="stroke:#181818;stroke-width:0.5;" width="189" x="6" y="273"/><text fill="#000000" font-family="sans-serif" font-size="12" lengthAdjust="spacing" textLength="65" x="68" y="296.1387">CapitalCity</text><line style="stroke:#181818;stroke-width:1.0;" x1="6" x2="195" y1="310.9688" y2="310.9688"/><text fill="#000000" font-family="sans-serif" font-size="12" lengthAdjust="spacing" textLength="16" x="92.5" y="334.1074">UK</text><line style="stroke:#181818;stroke-width:1.0;" x1="6" x2="195" y1="348.9375" y2="348.9375"/><text fill="#000000" font-family="sans-serif" font-size="12" lengthAdjust="spacing" textLength="25" x="36" y="372.0762">USA</text><text fill="#000000" font-family="sans-serif" font-size="12" lengthAdjust="spacing" textLength="74" x="106" y="372.0762">Washington</text><line style="stroke:#181818;stroke-width:1.0;" x1="91" x2="91" y1="348.9375" y2="386.9063"/><line style="stroke:#181818;stroke-width:1.0;" x1="6" x2="195" y1="386.9063" y2="386.9063"/><text fill="#000000" font-family="sans-serif" font-size="12" lengthAdjust="spacing" textLength="55" x="21" y="410.0449">Germany</text><text fill="#000000" font-family="sans-serif" font-size="12" lengthAdjust="spacing" textLength="35" x="106" y="410.0449">Berlin</text><line style="stroke:#181818;stroke-width:1.0;" x1="91" x2="91" y1="386.9063" y2="424.875"/></g><rect fill="#F1F1F1" height="189.8438" style="stroke:#181818;stroke-width:0.5;" width="129" x="470" y="12"/><text fill="#000000" font-family="sans-serif" font-size="12" lengthAdjust="spacing" textLength="26" x="521.5" y="35.1387">json</text><line style="stroke:#181818;stroke-width:1.0;" x1="531" x2="531" y1="49.9688" y2="201.8438"/><line style="stroke:#181818;stroke-width:1.0;" x1="470" x2="599" y1="49.9688" y2="49.9688"/><text fill="#000000" font-family="sans-serif" font-size="12" lengthAdjust="spacing" textLength="25" x="485" y="73.1074">fruit</text><text fill="#000000" font-family="sans-serif" font-size="12" lengthAdjust="spacing" textLength="35" x="546" y="73.1074">Apple</text><line style="stroke:#181818;stroke-width:1.0;" x1="470" x2="599" y1="87.9375" y2="87.9375"/><text fill="#000000" font-family="sans-serif" font-size="12" lengthAdjust="spacing" textLength="23" x="485" y="111.0762">size</text><text fill="#000000" font-family="sans-serif" font-size="12" lengthAdjust="spacing" textLength="35" x="546" y="111.0762">Large</text><line style="stroke:#181818;stroke-width:1.0;" x1="470" x2="599" y1="125.9063" y2="125.9063"/><text fill="#000000" font-family="sans-serif" font-size="12" lengthAdjust="spacing" textLength="31" x="485" y="149.0449">color</text><text fill="#000000" font-family="sans-serif" font-size="12" lengthAdjust="spacing" textLength="24" x="546" y="149.0449">Red</text><line style="stroke:#181818;stroke-width:1.0;" x1="531" x2="599" y1="163.875" y2="163.875"/><text fill="#000000" font-family="sans-serif" font-size="12" lengthAdjust="spacing" textLength="38" x="546" y="187.0137">Green</text><polygon fill="#C6C6C6" points="392.9554,336.7662,395.6921,327.3052,392.2743,331.8128,387.7667,328.395,392.9554,336.7662" style="stroke:#C6C6C6;stroke-width:1.0;"/><path d="M365.0316,133.6842 C372.148,185.44 387.1416,294.4846 392.138,330.8221 " fill="none" style="stroke:#C6C6C6;stroke-width:1.0;"/><polygon fill="#C6C6C6" points="396.0446,336.7662,401.2333,328.395,396.7257,331.8128,393.3079,327.3052,396.0446,336.7662" style="stroke:#C6C6C6;stroke-width:1.0;"/><path d="M423.9684,133.6842 C416.852,185.44 401.8584,294.4846 396.862,330.8221 " fill="none" style="stroke:#C6C6C6;stroke-width:1.0;"/><text fill="#262626" font-family="sans-serif" font-size="12" lengthAdjust="spacing" textLength="8" x="377.0446" y="323.9049">1</text><text fill="#262626" font-family="sans-serif" font-size="12" lengthAdjust="spacing" textLength="8" x="404.9684" y="155.8229">1</text><polygon fill="#C6C6C6" points="394.5,482.7836,398.5,473.7836,394.5,477.7836,390.5,473.7836,394.5,482.7836" style="stroke:#C6C6C6;stroke-width:1.0;"/><path d="M394.5,361.1454 C394.5,386.2309 394.5,441.6718 394.5,476.7836 " fill="none" style="stroke:#C6C6C6;stroke-width:1.0;"/><polygon fill="#C6C6C6" points="234.7638,349,225.7638,345,229.7638,349,225.7638,353,234.7638,349" style="stroke:#C6C6C6;stroke-width:1.0;"/><path d="M195.0538,349 C209.1049,349 216.8484,349 228.7638,349 " fill="none" style="stroke:#C6C6C6;stroke-width:1.0;"/><polygon fill="#C6C6C6" points="100.5,272.6567,104.5,263.6567,100.5,267.6567,96.5,263.6567,100.5,272.6567" style="stroke:#C6C6C6;stroke-width:1.0;"/><path d="M100.5,162.1599 C100.5,194.7876 100.5,230.8209 100.5,266.6567 " fill="none" style="stroke:#C6C6C6;stroke-width:1.0;"/><text fill="#262626" font-family="sans-serif" font-size="12" lengthAdjust="spacing" textLength="31" x="111.5" y="242.1387">visits</text></g></svg>