<?xml version="1.0" encoding="UTF-8" standalone="no"?><svg xmlns="http://www.w3.org/2000/svg" xmlns:xlink="http://www.w3.org/1999/xlink" contentStyleType="text/css" height="535px" preserveAspectRatio="none" style="width:607px;height:535px;" version="1.1" viewBox="0 0 607 535" width="607px" zoomAndPan="magnify"><defs><linearGradient id="gudxm9bj57b100" x1="50%" x2="50%" y1="0%" y2="100%"><stop offset="0%" stop-color="#F4F4F4"/><stop offset="100%" stop-color="#F4F4F4"/></linearGradient></defs><g><g id="elem_user1"><rect fill="url(#gudxm9bj57b100)" height="110.4141" style="stroke:#C6C6C6;stroke-width:1.0;" width="134" x="34.5" y="45.8438"/><rect fill="url(#gudxm9bj57b100)" height="36.8047" style="stroke:#C6C6C6;stroke-width:1.0;" width="134" x="34.5" y="45.8438"/><text fill="#262626" font-family="IBM Plex Sans, Noto Sans, Verdana" font-size="11" lengthAdjust="spacing" textLength="33" x="85" y="68.0542">user1</text><line style="stroke:#C6C6C6;stroke-width:1.0;" x1="35.5" x2="167.5" y1="82.6484" y2="82.6484"/><text fill="#262626" font-family="IBM Plex Sans, Noto Sans, Verdana" font-size="11" lengthAdjust="spacing" textLength="102" x="50.5" y="106.8589">name = "Dummy"</text><text fill="#262626" font-family="IBM Plex Sans, Noto Sans, Verdana" font-size="11" lengthAdjust="spacing" textLength="48" x="50.5" y="139.6636">id = 123</text></g><g id="elem_user2"><rect fill="url(#gudxm9bj57b100)" height="110.4141" style="stroke:#C6C6C6;stroke-width:1.0;" width="134" x="186.5" y="45.8438"/><rect fill="url(#gudxm9bj57b100)" height="36.8047" style="stroke:#C6C6C6;stroke-width:1.0;" width="134" x="186.5" y="45.8438"/><text fill="#262626" font-family="IBM Plex Sans, Noto Sans, Verdana" font-size="11" lengthAdjust="spacing" textLength="33" x="237" y="68.0542">user2</text><line style="stroke:#C6C6C6;stroke-width:1.0;" x1="187.5" x2="319.5" y1="82.6484" y2="82.6484"/><text fill="#262626" font-family="IBM Plex Sans, Noto Sans, Verdana" font-size="11" lengthAdjust="spacing" textLength="102" x="202.5" y="106.8589">name = "Dummy"</text><text fill="#262626" font-family="IBM Plex Sans, Noto Sans, Verdana" font-size="11" lengthAdjust="spacing" textLength="48" x="202.5" y="139.6636">id = 123</text></g><g id="elem_o1"><rect fill="url(#gudxm9bj57b100)" height="52.8047" style="stroke:#C6C6C6;stroke-width:1.0;" width="48" x="338.5" y="74.3438"/><rect fill="url(#gudxm9bj57b100)" height="36.8047" style="stroke:#C6C6C6;stroke-width:1.0;" width="48" x="338.5" y="74.3438"/><text fill="#262626" font-family="IBM Plex Sans, Noto Sans, Verdana" font-size="11" lengthAdjust="spacing" textLength="14" x="355.5" y="96.5542">o1</text><line style="stroke:#C6C6C6;stroke-width:1.0;" x1="339.5" x2="385.5" y1="111.1484" y2="111.1484"/></g><g id="elem_o2"><rect fill="url(#gudxm9bj57b100)" height="52.8047" style="stroke:#C6C6C6;stroke-width:1.0;" width="48" x="404.5" y="74.3438"/><rect fill="url(#gudxm9bj57b100)" height="36.8047" style="stroke:#C6C6C6;stroke-width:1.0;" width="48" x="404.5" y="74.3438"/><text fill="#262626" font-family="IBM Plex Sans, Noto Sans, Verdana" font-size="11" lengthAdjust="spacing" textLength="14" x="421.5" y="96.5542">o2</text><line style="stroke:#C6C6C6;stroke-width:1.0;" x1="405.5" x2="451.5" y1="111.1484" y2="111.1484"/></g><g id="elem_dia"><polygon fill="url(#gudxm9bj57b100)" points="395.5,330.8438,407.5,342.8438,395.5,354.8438,383.5,342.8438,395.5,330.8438" style="stroke:#F4F4F4;stroke-width:0.5;"/></g><g id="elem_o3"><rect fill="url(#gudxm9bj57b100)" height="52.8047" style="stroke:#C6C6C6;stroke-width:1.0;" width="48" x="371.5" y="476.8438"/><rect fill="url(#gudxm9bj57b100)" height="36.8047" style="stroke:#C6C6C6;stroke-width:1.0;" width="48" x="371.5" y="476.8438"/><text fill="#262626" font-family="IBM Plex Sans, Noto Sans, Verdana" font-size="11" lengthAdjust="spacing" textLength="14" x="388.5" y="499.0542">o3</text><line style="stroke:#C6C6C6;stroke-width:1.0;" x1="372.5" x2="418.5" y1="513.6484" y2="513.6484"/></g><g id="elem_London"><rect fill="url(#gudxm9bj57b100)" height="52.8047" style="stroke:#C6C6C6;stroke-width:1.0;" width="75" x="236" y="316.3438"/><rect fill="url(#gudxm9bj57b100)" height="36.8047" style="stroke:#C6C6C6;stroke-width:1.0;" width="75" x="236" y="316.3438"/><text fill="#262626" font-family="IBM Plex Sans, Noto Sans, Verdana" font-size="11" lengthAdjust="spacing" textLength="41" x="253" y="338.5542">London</text><line style="stroke:#C6C6C6;stroke-width:1.0;" x1="237" x2="310" y1="353.1484" y2="353.1484"/></g><g id="elem_CapitalCity"><rect fill="#F1F1F1" height="151.875" style="stroke:#181818;stroke-width:0.5;" width="189" x="7" y="266.8438"/><text fill="#000000" font-family="IBM Plex Sans, Noto Sans, Verdana" font-size="12" lengthAdjust="spacing" textLength="65" x="69" y="289.9824">CapitalCity</text><line style="stroke:#181818;stroke-width:1.0;" x1="7" x2="196" y1="304.8125" y2="304.8125"/><text fill="#000000" font-family="IBM Plex Sans, Noto Sans, Verdana" font-size="12" lengthAdjust="spacing" textLength="16" x="93.5" y="327.9512">UK</text><line style="stroke:#181818;stroke-width:1.0;" x1="7" x2="196" y1="342.7813" y2="342.7813"/><text fill="#000000" font-family="IBM Plex Sans, Noto Sans, Verdana" font-size="12" lengthAdjust="spacing" textLength="25" x="37" y="365.9199">USA</text><text fill="#000000" font-family="IBM Plex Sans, Noto Sans, Verdana" font-size="12" lengthAdjust="spacing" textLength="74" x="107" y="365.9199">Washington</text><line style="stroke:#181818;stroke-width:1.0;" x1="92" x2="92" y1="342.7813" y2="380.75"/><line style="stroke:#181818;stroke-width:1.0;" x1="7" x2="196" y1="380.75" y2="380.75"/><text fill="#000000" font-family="IBM Plex Sans, Noto Sans, Verdana" font-size="12" lengthAdjust="spacing" textLength="55" x="22" y="403.8887">Germany</text><text fill="#000000" font-family="IBM Plex Sans, Noto Sans, Verdana" font-size="12" lengthAdjust="spacing" textLength="35" x="107" y="403.8887">Berlin</text><line style="stroke:#181818;stroke-width:1.0;" x1="92" x2="92" y1="380.75" y2="418.7188"/></g><rect fill="#F1F1F1" height="189.8438" style="stroke:#181818;stroke-width:0.5;" width="129" x="471" y="5.8438"/><text fill="#000000" font-family="IBM Plex Sans, Noto Sans, Verdana" font-size="12" lengthAdjust="spacing" textLength="26" x="522.5" y="28.9824">json</text><line style="stroke:#181818;stroke-width:1.0;" x1="532" x2="532" y1="43.8125" y2="195.6875"/><line style="stroke:#181818;stroke-width:1.0;" x1="471" x2="600" y1="43.8125" y2="43.8125"/><text fill="#000000" font-family="IBM Plex Sans, Noto Sans, Verdana" font-size="12" lengthAdjust="spacing" textLength="25" x="486" y="66.9512">fruit</text><text fill="#000000" font-family="IBM Plex Sans, Noto Sans, Verdana" font-size="12" lengthAdjust="spacing" textLength="35" x="547" y="66.9512">Apple</text><line style="stroke:#181818;stroke-width:1.0;" x1="471" x2="600" y1="81.7813" y2="81.7813"/><text fill="#000000" font-family="IBM Plex Sans, Noto Sans, Verdana" font-size="12" lengthAdjust="spacing" textLength="23" x="486" y="104.9199">size</text><text fill="#000000" font-family="IBM Plex Sans, Noto Sans, Verdana" font-size="12" lengthAdjust="spacing" textLength="35" x="547" y="104.9199">Large</text><line style="stroke:#181818;stroke-width:1.0;" x1="471" x2="600" y1="119.75" y2="119.75"/><text fill="#000000" font-family="IBM Plex Sans, Noto Sans, Verdana" font-size="12" lengthAdjust="spacing" textLength="31" x="486" y="142.8887">color</text><text fill="#000000" font-family="IBM Plex Sans, Noto Sans, Verdana" font-size="12" lengthAdjust="spacing" textLength="24" x="547" y="142.8887">Red</text><line style="stroke:#181818;stroke-width:1.0;" x1="532" x2="600" y1="157.7188" y2="157.7188"/><text fill="#000000" font-family="IBM Plex Sans, Noto Sans, Verdana" font-size="12" lengthAdjust="spacing" textLength="38" x="547" y="180.8574">Green</text><path d="M366.0316,127.528 C373.148,179.2837 388.9589,294.2724 393.9554,330.6099 " fill="none" style="stroke:#C6C6C6;stroke-width:1.0;"/><polygon fill="#C6C6C6" points="393.9554,330.6099,396.6921,321.149,393.2743,325.6565,388.7667,322.2387,393.9554,330.6099" style="stroke:#C6C6C6;stroke-width:1.0;"/><path d="M424.9684,127.528 C417.852,179.2837 402.0411,294.2724 397.0446,330.6099 " fill="none" style="stroke:#C6C6C6;stroke-width:1.0;"/><polygon fill="#C6C6C6" points="397.0446,330.6099,402.2333,322.2387,397.7257,325.6565,394.3079,321.149,397.0446,330.6099" style="stroke:#C6C6C6;stroke-width:1.0;"/><text fill="#262626" font-family="IBM Plex Sans, Noto Sans, Verdana" font-size="12" lengthAdjust="spacing" textLength="8" x="378.0446" y="317.7486">1</text><text fill="#262626" font-family="IBM Plex Sans, Noto Sans, Verdana" font-size="12" lengthAdjust="spacing" textLength="8" x="405.9684" y="149.6666">1</text><path d="M395.5,354.9892 C395.5,380.0746 395.5,441.5156 395.5,476.6274 " fill="none" style="stroke:#C6C6C6;stroke-width:1.0;"/><polygon fill="#C6C6C6" points="395.5,476.6274,399.5,467.6274,395.5,471.6274,391.5,467.6274,395.5,476.6274" style="stroke:#C6C6C6;stroke-width:1.0;"/><path d="M196.0538,342.8438 C210.1049,342.8438 223.8484,342.8438 235.7638,342.8438 " fill="none" style="stroke:#C6C6C6;stroke-width:1.0;"/><polygon fill="#C6C6C6" points="235.7638,342.8438,226.7638,338.8438,230.7638,342.8438,226.7638,346.8438,235.7638,342.8438" style="stroke:#C6C6C6;stroke-width:1.0;"/><path d="M101.5,156.0037 C101.5,188.6314 101.5,230.6646 101.5,266.5005 " fill="none" style="stroke:#C6C6C6;stroke-width:1.0;"/><polygon fill="#C6C6C6" points="101.5,266.5005,105.5,257.5005,101.5,261.5005,97.5,257.5005,101.5,266.5005" style="stroke:#C6C6C6;stroke-width:1.0;"/><text fill="#262626" font-family="IBM Plex Sans, Noto Sans, Verdana" font-size="12" lengthAdjust="spacing" textLength="31" x="112.5" y="235.9824">visits</text></g></svg>