<?xml version="1.0" encoding="UTF-8" standalone="no"?><svg xmlns="http://www.w3.org/2000/svg" xmlns:xlink="http://www.w3.org/1999/xlink" contentScriptType="application/ecmascript" contentStyleType="text/css" height="232px" preserveAspectRatio="none" style="width:344px;height:232px;background:#DDDDDD;" version="1.1" viewBox="0 0 344 232" width="344px" zoomAndPan="magnify"><defs/><g><rect fill="#FEFECE" height="49.25" rx="3.5" ry="3.5" style="stroke:#A80036;stroke-width:1.5;" width="104" x="16" y="6.25"/><text fill="#000000" font-family="sans-serif" font-size="12" lengthAdjust="spacing" textLength="36" x="50" y="19.3887">user1</text><line style="stroke:#A80036;stroke-width:1.5;" x1="17" x2="119" y1="24.2188" y2="24.2188"/><text fill="#000000" font-family="sans-serif" font-size="10" lengthAdjust="spacing" textLength="92" x="22" y="37.501">name = "Dummy"</text><text fill="#000000" font-family="sans-serif" font-size="10" lengthAdjust="spacing" textLength="40" x="22" y="49.1416">id = 123</text><rect fill="#FEFECE" height="49.25" rx="3.5" ry="3.5" style="stroke:#A80036;stroke-width:1.5;" width="104" x="138" y="6.25"/><text fill="#000000" font-family="sans-serif" font-size="12" lengthAdjust="spacing" textLength="36" x="172" y="19.3887">user2</text><line style="stroke:#A80036;stroke-width:1.5;" x1="139" x2="241" y1="24.2188" y2="24.2188"/><text fill="#000000" font-family="sans-serif" font-size="10" lengthAdjust="spacing" textLength="92" x="144" y="37.501">name = "Dummy"</text><text fill="#000000" font-family="sans-serif" font-size="10" lengthAdjust="spacing" textLength="40" x="144" y="49.1416">id = 123</text><rect fill="#FEFECE" height="33.9688" rx="3.5" ry="3.5" style="stroke:#A80036;stroke-width:1.5;" width="30" x="260" y="13.75"/><text fill="#000000" font-family="sans-serif" font-size="12" lengthAdjust="spacing" textLength="16" x="267" y="26.8887">o1</text><line style="stroke:#A80036;stroke-width:1.5;" x1="261" x2="289" y1="31.7188" y2="31.7188"/><rect fill="#FEFECE" height="33.9688" rx="3.5" ry="3.5" style="stroke:#A80036;stroke-width:1.5;" width="30" x="308" y="13.75"/><text fill="#000000" font-family="sans-serif" font-size="12" lengthAdjust="spacing" textLength="16" x="315" y="26.8887">o2</text><line style="stroke:#A80036;stroke-width:1.5;" x1="309" x2="337" y1="31.7188" y2="31.7188"/><polygon fill="#FEFECE" points="299,111.75,311,123.75,299,135.75,287,123.75,299,111.75" style="stroke:#A80036;stroke-width:1.5;"/><rect fill="#FEFECE" height="33.9688" rx="3.5" ry="3.5" style="stroke:#A80036;stroke-width:1.5;" width="30" x="284" y="192.25"/><text fill="#000000" font-family="sans-serif" font-size="12" lengthAdjust="spacing" textLength="16" x="291" y="205.3887">o3</text><line style="stroke:#A80036;stroke-width:1.5;" x1="285" x2="313" y1="210.2188" y2="210.2188"/><rect fill="#FEFECE" height="33.9688" rx="3.5" ry="3.5" style="stroke:#A80036;stroke-width:1.5;" width="60" x="147" y="106.75"/><text fill="#000000" font-family="sans-serif" font-size="12" lengthAdjust="spacing" textLength="46" x="154" y="119.8887">London</text><line style="stroke:#A80036;stroke-width:1.5;" x1="148" x2="206" y1="124.7188" y2="124.7188"/><rect fill="#FEFECE" height="64.8906" rx="3.5" ry="3.5" style="stroke:#A80036;stroke-width:1.5;" width="122" x="7" y="91.25"/><text fill="#000000" font-family="sans-serif" font-size="12" lengthAdjust="spacing" textLength="65" x="35.5" y="104.3887">CapitalCity</text><line style="stroke:#A80036;stroke-width:1.0;" x1="7" x2="129" y1="109.2188" y2="109.2188"/><text fill="#000000" font-family="sans-serif" font-size="10" lengthAdjust="spacing" textLength="15" x="60.5" y="120.501">UK</text><line style="stroke:#A80036;stroke-width:1.0;" x1="7" x2="129" y1="124.8594" y2="124.8594"/><text fill="#000000" font-family="sans-serif" font-size="10" lengthAdjust="spacing" textLength="22" x="24" y="136.1416">USA</text><text fill="#000000" font-family="sans-serif" font-size="10" lengthAdjust="spacing" textLength="56" x="68" y="136.1416">Washington</text><line style="stroke:#A80036;stroke-width:1.0;" x1="63" x2="63" y1="124.8594" y2="140.5"/><line style="stroke:#A80036;stroke-width:1.0;" x1="7" x2="129" y1="140.5" y2="140.5"/><text fill="#000000" font-family="sans-serif" font-size="10" lengthAdjust="spacing" textLength="46" x="12" y="151.7822">Germany</text><text fill="#000000" font-family="sans-serif" font-size="10" lengthAdjust="spacing" textLength="27" x="68" y="151.7822">Berlin</text><line style="stroke:#A80036;stroke-width:1.0;" x1="63" x2="63" y1="140.5" y2="156.1406"/><path d="M279.2907,48.019 C284.1176,66.3209 291.8304,95.5652 296.0334,111.5018 " fill="none" style="stroke:#454645;stroke-width:1.0;"/><polygon fill="#454645" points="296.0334,111.5018,297.606,101.7793,294.7584,106.6671,289.8705,103.8194,296.0334,111.5018" style="stroke:#454645;stroke-width:1.0;"/><path d="M318.7093,48.019 C313.8824,66.3209 306.1696,95.5652 301.9666,111.5018 " fill="none" style="stroke:#454645;stroke-width:1.0;"/><polygon fill="#454645" points="301.9666,111.5018,308.1295,103.8194,303.2416,106.6671,300.394,101.7793,301.9666,111.5018" style="stroke:#454645;stroke-width:1.0;"/><path d="M299,136.0112 C299,150.4342 299,175.5312 299,192.0173 " fill="none" style="stroke:#454645;stroke-width:1.0;"/><polygon fill="#454645" points="299,192.0173,303,183.0173,299,187.0173,295,183.0173,299,192.0173" style="stroke:#454645;stroke-width:1.0;"/><path d="M129.3125,123.75 C135.1493,123.75 140.986,123.75 146.8228,123.75 " fill="none" style="stroke:#454645;stroke-width:1.0;"/><polygon fill="#454645" points="146.8228,123.75,137.8228,119.75,141.8228,123.75,137.8228,127.75,146.8228,123.75" style="stroke:#454645;stroke-width:1.0;"/><path d="M68,55.6592 C68,66.5071 68,79.4865 68,91.1262 " fill="none" style="stroke:#454645;stroke-width:1.0;"/><polygon fill="#454645" points="68,91.1262,72,82.1262,68,86.1262,64,82.1262,68,91.1262" style="stroke:#454645;stroke-width:1.0;"/></g></svg>