<?xml version="1.0" encoding="UTF-8" standalone="no"?><svg xmlns="http://www.w3.org/2000/svg" xmlns:xlink="http://www.w3.org/1999/xlink" contentScriptType="application/ecmascript" contentStyleType="text/css" height="444.7917px" preserveAspectRatio="none" style="width:482px;height:444px;background:#00000000;" version="1.1" viewBox="0 0 482 444" width="482.2917px" zoomAndPan="magnify"><defs><linearGradient id="g1c31hzn9arkv30" x1="50%" x2="50%" y1="0%" y2="100%"><stop offset="0%" stop-color="#33B2E2"/><stop offset="100%" stop-color="#009FDB"/></linearGradient><linearGradient id="g1c31hzn9arkv31" x1="50%" x2="50%" y1="0%" y2="100%"><stop offset="0%" stop-color="#F5F5F5"/><stop offset="100%" stop-color="#C2C2C2"/></linearGradient></defs><g><rect fill="url(#g1c31hzn9arkv30)" height="102.5146" rx="10.4167" ry="10.4167" style="stroke:#33B2E2;stroke-width:1.0416666666666667;" width="135.4167" x="52.0833" y="17.098"/><text fill="#D2D2D2" font-family="&quot;Verdana&quot;" font-size="11.4583" lengthAdjust="spacing" textLength="34.375" x="102.6042" y="38.1505">user1</text><line style="stroke:#33B2E2;stroke-width:1.5625;" x1="53.125" x2="186.4583" y1="51.2695" y2="51.2695"/><text fill="#D2D2D2" font-family="&quot;Verdana&quot;" font-size="11.4583" lengthAdjust="spacing" textLength="106.25" x="66.6667" y="74.4054">name = "Dummy"</text><text fill="#D2D2D2" font-family="&quot;Verdana&quot;" font-size="11.4583" lengthAdjust="spacing" textLength="50" x="66.6667" y="104.4103">id = 123</text><rect fill="url(#g1c31hzn9arkv30)" height="102.5146" rx="10.4167" ry="10.4167" style="stroke:#33B2E2;stroke-width:1.0416666666666667;" width="135.4167" x="206.25" y="17.098"/><text fill="#D2D2D2" font-family="&quot;Verdana&quot;" font-size="11.4583" lengthAdjust="spacing" textLength="34.375" x="256.7708" y="38.1505">user2</text><line style="stroke:#33B2E2;stroke-width:1.5625;" x1="207.2917" x2="340.625" y1="51.2695" y2="51.2695"/><text fill="#D2D2D2" font-family="&quot;Verdana&quot;" font-size="11.4583" lengthAdjust="spacing" textLength="106.25" x="220.8333" y="74.4054">name = "Dummy"</text><text fill="#D2D2D2" font-family="&quot;Verdana&quot;" font-size="11.4583" lengthAdjust="spacing" textLength="50" x="220.8333" y="104.4103">id = 123</text><rect fill="url(#g1c31hzn9arkv30)" height="50.8382" rx="10.4167" ry="10.4167" style="stroke:#33B2E2;stroke-width:1.0416666666666667;" width="45.8333" x="360.4167" y="42.6188"/><text fill="#D2D2D2" font-family="&quot;Verdana&quot;" font-size="11.4583" lengthAdjust="spacing" textLength="14.5833" x="376.0417" y="63.6714">o1</text><line style="stroke:#33B2E2;stroke-width:1.0416666666666667;" x1="361.4583" x2="405.2083" y1="76.7904" y2="76.7904"/><rect fill="url(#g1c31hzn9arkv30)" height="50.8382" rx="10.4167" ry="10.4167" style="stroke:#33B2E2;stroke-width:1.0416666666666667;" width="45.8333" x="425" y="42.6188"/><text fill="#D2D2D2" font-family="&quot;Verdana&quot;" font-size="11.4583" lengthAdjust="spacing" textLength="14.5833" x="440.625" y="63.6714">o2</text><line style="stroke:#33B2E2;stroke-width:1.0416666666666667;" x1="426.0417" x2="469.7917" y1="76.7904" y2="76.7904"/><polygon fill="url(#g1c31hzn9arkv31)" points="415.625,238.4521,428.125,250.9521,415.625,263.4521,403.125,250.9521,415.625,238.4521" style="stroke:#C2C2C2;stroke-width:1.0416666666666667;"/><rect fill="url(#g1c31hzn9arkv30)" height="50.8382" rx="10.4167" ry="10.4167" style="stroke:#33B2E2;stroke-width:1.0416666666666667;" width="45.8333" x="392.7083" y="382.723"/><text fill="#D2D2D2" font-family="&quot;Verdana&quot;" font-size="11.4583" lengthAdjust="spacing" textLength="14.5833" x="408.3333" y="403.7755">o3</text><line style="stroke:#33B2E2;stroke-width:1.0416666666666667;" x1="393.75" x2="437.5" y1="416.8945" y2="416.8945"/><rect fill="url(#g1c31hzn9arkv30)" height="50.8382" rx="10.4167" ry="10.4167" style="stroke:#33B2E2;stroke-width:1.0416666666666667;" width="73.9583" x="258.8542" y="225.4313"/><text fill="#D2D2D2" font-family="&quot;Verdana&quot;" font-size="11.4583" lengthAdjust="spacing" textLength="42.7083" x="274.4792" y="246.4839">London</text><line style="stroke:#33B2E2;stroke-width:1.0416666666666667;" x1="259.8958" x2="331.7708" y1="259.6029" y2="259.6029"/><rect height="151.237" rx="10.4167" ry="10.4167" style="stroke:#33B2E2;stroke-width:1.0416666666666667;fill:none;" width="204.1667" x="17.7083" y="175.4313"/><text fill="#FFFFFF" font-family="&quot;Verdana&quot;" font-size="14.5833" lengthAdjust="spacing" textLength="73.9583" x="82.8125" y="199.3846">CapitalCity</text><line style="stroke:#33B2E2;stroke-width:1.0416666666666667;" x1="17.7083" x2="221.875" y1="213.2406" y2="213.2406"/><text fill="#FFFFFF" font-family="&quot;Verdana&quot;" font-size="14.5833" lengthAdjust="spacing" textLength="19.7917" x="109.8958" y="237.1938">UK</text><line style="stroke:#33B2E2;stroke-width:1.0416666666666667;" x1="17.7083" x2="221.875" y1="251.0498" y2="251.0498"/><text fill="#FFFFFF" font-family="&quot;Verdana&quot;" font-size="14.5833" lengthAdjust="spacing" textLength="29.1667" x="48.9583" y="275.0031">USA</text><text fill="#FFFFFF" font-family="&quot;Verdana&quot;" font-size="14.5833" lengthAdjust="spacing" textLength="85.4167" x="122.9167" y="275.0031">Washington</text><line style="stroke:#33B2E2;stroke-width:1.0416666666666667;" x1="109.375" x2="109.375" y1="251.0498" y2="288.859"/><line style="stroke:#33B2E2;stroke-width:1.0416666666666667;" x1="17.7083" x2="221.875" y1="288.859" y2="288.859"/><text fill="#FFFFFF" font-family="&quot;Verdana&quot;" font-size="14.5833" lengthAdjust="spacing" textLength="64.5833" x="31.25" y="312.8123">Germany</text><text fill="#FFFFFF" font-family="&quot;Verdana&quot;" font-size="14.5833" lengthAdjust="spacing" textLength="40.625" x="122.9167" y="312.8123">Berlin</text><line style="stroke:#33B2E2;stroke-width:1.0416666666666667;" x1="109.375" x2="109.375" y1="288.859" y2="326.6683"/><path d="M387.7556,93.932 C394.8031,133.375 408.316,209.0036 413.5148,238.1003 " fill="none" style="stroke:#009FDB;stroke-width:3.125;"/><polygon fill="#009FDB" points="413.5148,238.1003,415.9676,228.1386,412.5987,232.9731,407.7642,229.6043,413.5148,238.1003" style="stroke:#009FDB;stroke-width:1.0416666666666667;"/><path d="M443.4944,93.932 C436.4469,133.375 422.934,209.0036 417.7352,238.1003 " fill="none" style="stroke:#009FDB;stroke-width:3.125;"/><polygon fill="#009FDB" points="417.7352,238.1003,423.4858,229.6043,418.6513,232.9731,415.2824,228.1386,417.7352,238.1003" style="stroke:#009FDB;stroke-width:1.0416666666666667;"/><path d="M415.625,263.6597 C415.625,288.8278 415.625,348.6856 415.625,382.621 " fill="none" style="stroke:#009FDB;stroke-width:3.125;"/><polygon fill="#009FDB" points="415.625,382.621,419.7917,373.246,415.625,377.4126,411.4583,373.246,415.625,382.621" style="stroke:#009FDB;stroke-width:1.0416666666666667;"/><path d="M222.1958,250.9521 C235.206,250.9521 247.7852,250.9521 258.7548,250.9521 " fill="none" style="stroke:#009FDB;stroke-width:3.125;"/><polygon fill="#009FDB" points="258.7548,250.9521,249.3798,246.7855,253.5465,250.9521,249.3798,255.1188,258.7548,250.9521" style="stroke:#009FDB;stroke-width:1.0416666666666667;"/><path d="M119.7917,119.5245 C119.7917,136.758 119.7917,156.4253 119.7917,175.1678 " fill="none" style="stroke:#009FDB;stroke-width:3.125;"/><polygon fill="#009FDB" points="119.7917,175.1678,123.9583,165.7928,119.7917,169.9595,115.625,165.7928,119.7917,175.1678" style="stroke:#009FDB;stroke-width:1.0416666666666667;"/></g></svg>