<?xml version="1.0" encoding="UTF-8" standalone="no"?><svg xmlns="http://www.w3.org/2000/svg" xmlns:xlink="http://www.w3.org/1999/xlink" contentScriptType="application/ecmascript" contentStyleType="text/css" height="317.7083px" preserveAspectRatio="none" style="width:411px;height:317px;background:#00000000;" version="1.1" viewBox="0 0 411 317" width="411.4583px" zoomAndPan="magnify"><defs/><g><polygon points="71.875,2.0833,71.875,2.3023,82.4219,1.6517,92.9688,2.2847,103.5156,2.4997,114.0625,1.3402,124.6094,2.0024,135.1563,1.6391,145.7031,1.6839,156.25,2.0123,166.7969,1.3632,177.3438,2.66,187.8906,1.4268,198.4375,1.8773,208.9844,2.5333,219.5313,1.994,230.0781,2.1544,240.625,2.0501,251.1719,2.2693,261.7188,2.3324,272.2656,2.6934,282.8125,2.7823,293.3594,2.7909,303.9063,2.3486,314.4531,2.5662,325,2.0833,325.0933,2.3086,325.4934,2.0961,326.2687,2.7891,326.7284,2.7205,327.428,3.2309,327.9463,3.3037,327.7875,3.2379,328.1684,3.8839,328.6723,4.5808,328.6629,5.065,328.9564,5.6747,329.1667,6.25,329.2842,6.25,329.3112,13.6003,329.1653,20.9505,329.2664,28.3008,328.9679,35.651,329.1667,43.0013,329.2579,43.0391,329.0984,43.6634,328.8211,44.2389,328.6311,44.8505,328.0354,45.2941,327.9463,45.9476,327.8596,45.7384,327.2745,45.9923,326.7599,46.4168,326.1524,46.6168,325.6798,47.1425,325,47.168,325,46.986,314.4531,46.8106,303.9063,47.4057,293.3594,46.4733,282.8125,46.6272,272.2656,47.844,261.7188,47.6218,251.1719,47.9331,240.625,46.8328,230.0781,47.5005,219.5313,47.783,208.9844,46.6759,198.4375,47.0681,187.8906,47.2992,177.3438,47.8469,166.7969,47.1636,156.25,47.6498,145.7031,46.5911,135.1563,46.4625,124.6094,47.6926,114.0625,46.4212,103.5156,47.6981,92.9688,47.3832,82.4219,46.8889,71.875,47.168,71.828,47.0545,71.3467,47.0711,70.6567,46.5838,70.1859,46.6256,69.4445,46.0143,68.9287,45.9476,69.1268,46.0296,68.84,45.4227,68.5192,44.8016,68.2116,44.1861,68.1855,43.6871,67.7083,43.0013,67.9214,43.0013,67.7671,35.651,67.8015,28.3008,67.6631,20.9505,67.9571,13.6003,67.7083,6.25,67.758,6.2706,68.0078,5.6837,68.0013,4.9907,68.3106,4.4284,68.8549,3.9635,68.9287,3.3037,68.9858,3.4416,69.5123,3.0459,70.0644,2.7122,70.6674,2.5013,71.1946,2.1073,71.875,2.0833" style="stroke:#4D4D4D;stroke-width:1.0416666666666667;fill:none;"/><text fill="#2E2E2E" font-family="Segoe Print" font-size="20.8333" lengthAdjust="spacing" textLength="234.375" x="81.25" y="31.838">sketchy-outline theme</text><polygon points="11.4583,56.1035,11.4583,56.3225,21.5278,55.6719,31.5972,56.3049,41.6667,56.5198,51.7361,55.3604,61.8056,56.0226,71.875,55.6593,81.9444,55.704,92.0139,56.0325,102.0833,55.3833,112.1528,56.6802,122.2222,55.447,132.2917,56.1035,132.2654,56.0401,132.9383,56.4862,133.4588,56.5642,134.0685,56.8576,134.6444,57.0696,135.2379,57.3239,135.2952,57.3476,135.5587,57.9449,135.914,58.5802,136.1854,59.1808,136.4322,59.7712,136.4583,60.2702,136.7236,60.2702,136.9412,71.2193,137.1898,82.1684,135.7071,93.1176,137.1651,104.0667,136.1495,115.0158,137.0144,125.9649,136.4583,136.9141,136.2995,136.8483,136.1923,137.4942,136.2081,138.1911,135.7105,138.6754,135.5158,139.2851,135.2379,139.8603,135.2829,139.969,134.704,140.2379,134.0589,140.3472,133.5083,140.6847,132.8049,140.653,132.2917,141.0807,132.2917,141.377,122.2222,141.6518,112.1528,141.5438,102.0833,141.7193,92.0139,140.5775,81.9444,140.4014,71.875,140.4334,61.8056,141.0194,51.7361,140.876,41.6667,141.7905,31.5972,140.8988,21.5278,140.7234,11.4583,141.0807,11.4887,141.154,10.7805,140.6227,10.2108,140.426,9.7768,140.5567,9.1592,140.2442,8.5121,139.8603,8.7477,139.9579,8.1647,139.2283,8.1263,138.7242,7.9692,138.171,7.3842,137.4405,7.2917,136.9141,7.1918,136.9141,7.4229,125.9649,7.9706,115.0158,7.2873,104.0667,7.7735,93.1176,6.7148,82.1684,6.5862,71.2193,7.2917,60.2702,7.4532,60.3371,7.3058,59.5857,7.9431,59.1593,8.0902,58.5299,8.182,57.8776,8.5121,57.3239,8.465,57.2104,9.1623,57.227,9.6508,56.7397,10.3585,56.7815,10.7956,56.1703,11.4583,56.1035" style="stroke:#333333;stroke-width:1.0416666666666667;fill:none;"/><text fill="#2E2E2E" font-family="Segoe Print" font-size="12.5" lengthAdjust="spacing" textLength="37.5" x="53.125" y="74.998">user1</text><path d="M8.3333,85.2376 L8.3333,85.5295 L18.9236,84.6622 L29.5139,85.5061 L40.1042,85.7927 L50.6944,84.2468 L61.2847,85.1297 L71.875,84.6453 L82.4653,84.705 L93.0556,85.143 L103.6458,84.2774 L114.2361,86.0066 L124.8264,84.3622 L135.4167,85.2376 " style="stroke:#333333;stroke-width:1.5625;fill:none;"/><text fill="#2E2E2E" font-family="Segoe Print" font-size="11.4583" lengthAdjust="spacing" textLength="106.25" x="18.75" y="105.2485">name = "Dummy"</text><text fill="#2E2E2E" font-family="Segoe Print" font-size="11.4583" lengthAdjust="spacing" textLength="50" x="18.75" y="129.0034">id = 123</text><polygon points="159.375,56.1035,159.375,56.3225,169.4444,55.6719,179.5139,56.3049,189.5833,56.5198,199.6528,55.3604,209.7222,56.0226,219.7917,55.6593,229.8611,55.704,239.9306,56.0325,250,55.3833,260.0694,56.6802,270.1389,55.447,280.2083,56.1035,280.1821,56.0401,280.855,56.4862,281.3754,56.5642,281.9852,56.8576,282.5611,57.0696,283.1546,57.3239,283.2119,57.3476,283.4754,57.9449,283.8307,58.5802,284.1021,59.1808,284.3488,59.7712,284.375,60.2702,284.6402,60.2702,284.8579,71.2193,285.1065,82.1684,283.6238,93.1176,285.0818,104.0667,284.0661,115.0158,284.9311,125.9649,284.375,136.9141,284.2162,136.8483,284.1089,137.4942,284.1247,138.1911,283.6271,138.6754,283.4325,139.2851,283.1546,139.8603,283.1996,139.969,282.6207,140.2379,281.9756,140.3472,281.425,140.6847,280.7215,140.653,280.2083,141.0807,280.2083,141.377,270.1389,141.6518,260.0694,141.5438,250,141.7193,239.9306,140.5775,229.8611,140.4014,219.7917,140.4334,209.7222,141.0194,199.6528,140.876,189.5833,141.7905,179.5139,140.8988,169.4444,140.7234,159.375,141.0807,159.4053,141.154,158.6971,140.6227,158.1275,140.426,157.6935,140.5567,157.0759,140.2442,156.4287,139.8603,156.6643,139.9579,156.0814,139.2283,156.043,138.7242,155.8859,138.171,155.3009,137.4405,155.2083,136.9141,155.1085,136.9141,155.3396,125.9649,155.8872,115.0158,155.204,104.0667,155.6902,93.1176,154.6315,82.1684,154.5029,71.2193,155.2083,60.2702,155.3699,60.3371,155.2224,59.5857,155.8598,59.1593,156.0069,58.5299,156.0987,57.8776,156.4287,57.3239,156.3817,57.2104,157.0789,57.227,157.5675,56.7397,158.2751,56.7815,158.7123,56.1703,159.375,56.1035" style="stroke:#333333;stroke-width:1.0416666666666667;fill:none;"/><text fill="#2E2E2E" font-family="Segoe Print" font-size="12.5" lengthAdjust="spacing" textLength="37.5" x="201.0417" y="74.998">user2</text><path d="M156.25,85.2376 L156.25,85.5295 L166.8403,84.6622 L177.4306,85.5061 L188.0208,85.7927 L198.6111,84.2468 L209.2014,85.1297 L219.7917,84.6453 L230.3819,84.705 L240.9722,85.143 L251.5625,84.2774 L262.1528,86.0066 L272.7431,84.3622 L283.3333,85.2376 " style="stroke:#333333;stroke-width:1.5625;fill:none;"/><text fill="#2E2E2E" font-family="Segoe Print" font-size="11.4583" lengthAdjust="spacing" textLength="106.25" x="166.6667" y="105.2485">name = "Dummy"</text><text fill="#2E2E2E" font-family="Segoe Print" font-size="11.4583" lengthAdjust="spacing" textLength="50" x="166.6667" y="129.0034">id = 123</text><polygon points="307.2917,75.8952,307.2917,75.9682,313.9583,75.7513,320.625,75.9623,327.2917,76.034,333.9583,75.6475,340.625,75.8952,340.6147,75.8703,341.1576,76.0024,341.7526,76.2603,342.3837,76.6056,342.8902,76.6497,343.5713,77.1156,343.7489,77.1891,343.6132,77.6211,343.996,78.2678,344.4421,78.9407,344.5201,79.4612,344.7917,80.0618,344.8154,80.0618,344.7806,87.5553,344.8537,95.0488,344.8747,102.5423,344.995,110.0358,344.7917,117.5293,345.0069,117.6185,344.7655,118.2088,344.3852,118.7416,344.2081,119.3587,344.0406,119.9796,343.5713,120.4756,343.4754,120.2442,343.0722,120.9373,342.3534,120.8686,341.8744,121.3791,341.1485,121.2931,340.625,121.696,340.625,121.6722,333.9583,121.9535,327.2917,121.679,320.625,121.7325,313.9583,121.8135,307.2917,121.696,307.347,121.8295,306.7019,121.4506,306.1513,121.2999,305.4478,120.7801,304.9724,120.8109,304.3454,120.4756,304.5212,120.5484,304.2439,119.9454,304.0539,119.3785,303.4582,118.6436,303.1599,118.0319,303.125,117.5293,302.9092,117.5293,303.1046,110.0358,303.0568,102.5423,303.3616,95.0488,303.0643,87.5553,303.125,80.0618,303.015,80.0163,303.4423,79.5029,303.3992,78.7947,303.6907,78.2251,304.3095,77.7911,304.3454,77.1156,304.4033,77.2553,305.0322,77.1071,305.4811,76.5242,306.1556,76.4857,306.7809,76.3287,307.2917,75.8952" style="stroke:#333333;stroke-width:1.0416666666666667;fill:none;"/><text fill="#2E2E2E" font-family="Segoe Print" font-size="12.5" lengthAdjust="spacing" textLength="16.6667" x="315.625" y="94.7896">o1</text><path d="M304.1667,105.0293 L304.1667,105.1266 L312.0833,104.8375 L320,105.1188 L327.9167,105.2143 L335.8333,104.699 L343.75,105.0293 " style="stroke:#333333;stroke-width:1.0416666666666667;fill:none;"/><polygon points="367.7083,75.8952,367.7083,75.9682,374.375,75.7513,381.0417,75.9623,387.7083,76.034,394.375,75.6475,401.0417,75.8952,401.0313,75.8703,401.5743,76.0024,402.1692,76.2603,402.8004,76.6056,403.3068,76.6497,403.9879,77.1156,404.1655,77.1891,404.0298,77.6211,404.4127,78.2678,404.8587,78.9407,404.9367,79.4612,405.2083,80.0618,405.232,80.0618,405.1972,87.5553,405.2703,95.0488,405.2914,102.5423,405.4117,110.0358,405.2083,117.5293,405.4236,117.6185,405.1822,118.2088,404.8019,118.7416,404.6248,119.3587,404.4573,119.9796,403.9879,120.4756,403.8921,120.2442,403.4888,120.9373,402.77,120.8686,402.2911,121.3791,401.5651,121.2931,401.0417,121.696,401.0417,121.6722,394.375,121.9535,387.7083,121.679,381.0417,121.7325,374.375,121.8135,367.7083,121.696,367.7636,121.8295,367.1186,121.4506,366.568,121.2999,365.8645,120.7801,365.3891,120.8109,364.7621,120.4756,364.9379,120.5484,364.6606,119.9454,364.4706,119.3785,363.8749,118.6436,363.5765,118.0319,363.5417,117.5293,363.3259,117.5293,363.5212,110.0358,363.4734,102.5423,363.7783,95.0488,363.481,87.5553,363.5417,80.0618,363.4316,80.0163,363.859,79.5029,363.8159,78.7947,364.1074,78.2251,364.7262,77.7911,364.7621,77.1156,364.8199,77.2553,365.4489,77.1071,365.8978,76.5242,366.5722,76.4857,367.1975,76.3287,367.7083,75.8952" style="stroke:#333333;stroke-width:1.0416666666666667;fill:none;"/><text fill="#2E2E2E" font-family="Segoe Print" font-size="12.5" lengthAdjust="spacing" textLength="16.6667" x="376.0417" y="94.7896">o2</text><path d="M364.5833,105.0293 L364.5833,105.1266 L372.5,104.8375 L380.4167,105.1188 L388.3333,105.2143 L396.25,104.699 L404.1667,105.0293 " style="stroke:#333333;stroke-width:1.0416666666666667;fill:none;"/><polygon points="354.1667,191.5202,354.2183,191.5718,356.5649,193.9185,359.2141,196.5676,361.7648,199.1183,363.9915,201.345,366.6667,204.0202,366.6476,204.0011,364.062,206.4155,361.5725,208.926,359.1499,211.5034,356.4969,213.8504,354.1667,216.5202,354.3026,216.6561,351.5119,213.8654,349.1181,211.4716,346.7727,209.1262,344.1456,206.4991,341.6667,204.0202,341.6834,204.0369,344.1588,201.5123,346.7105,199.064,349.2254,196.5789,351.8105,194.164,354.1667,191.5202" style="stroke:#4D4D4D;stroke-width:1.5625;fill:none;"/><polygon points="337.5,266.5202,337.5,266.5932,344.1667,266.3763,350.8333,266.5873,357.5,266.659,364.1667,266.2725,370.8333,266.5202,370.823,266.4953,371.3659,266.6274,371.9609,266.8853,372.592,267.2306,373.0985,267.2747,373.7796,267.7406,373.9572,267.8141,373.8215,268.2461,374.2043,268.8928,374.6504,269.5657,374.7284,270.0862,375,270.6868,375.0237,270.6868,374.9889,278.1803,375.062,285.6738,375.083,293.1673,375.2034,300.6608,375,308.1543,375.2153,308.2435,374.9738,308.8338,374.5935,309.3666,374.4165,309.9837,374.249,310.6046,373.7796,311.1006,373.6838,310.8692,373.2805,311.5623,372.5617,311.4936,372.0828,312.0041,371.3568,311.9181,370.8333,312.321,370.8333,312.2972,364.1667,312.5785,357.5,312.304,350.8333,312.3575,344.1667,312.4385,337.5,312.321,337.5553,312.4545,336.9102,312.0756,336.3597,311.9249,335.6562,311.4051,335.1808,311.4359,334.5537,311.1006,334.7296,311.1734,334.4522,310.5704,334.2622,310.0035,333.6665,309.2686,333.3682,308.6569,333.3333,308.1543,333.1176,308.1543,333.3129,300.6608,333.2651,293.1673,333.5699,285.6738,333.2727,278.1803,333.3333,270.6868,333.2233,270.6413,333.6506,270.1279,333.6076,269.4197,333.899,268.8501,334.5178,268.4161,334.5537,267.7406,334.6116,267.8803,335.2406,267.7321,335.6895,267.1492,336.3639,267.1107,336.9892,266.9537,337.5,266.5202" style="stroke:#333333;stroke-width:1.0416666666666667;fill:none;"/><text fill="#2E2E2E" font-family="Segoe Print" font-size="12.5" lengthAdjust="spacing" textLength="16.6667" x="345.8333" y="285.4146">o3</text><path d="M334.375,295.6543 L334.375,295.7516 L342.2917,295.4625 L350.2083,295.7438 L358.125,295.8393 L366.0417,295.324 L373.9583,295.6543 " style="stroke:#333333;stroke-width:1.0416666666666667;fill:none;"/><path d="M330.5131,122.2301 L330.7932,122.3122 L332.8593,131.963 L336.5676,142.0948 L339.7411,152.07 L341.1559,161.5301 L344.9016,171.6729 L347.3352,181.4313 L350.8021,191.4925 " fill="none" style="stroke:#333333;stroke-width:3.125;"/><polygon fill="#333333" points="350.8021,191.4925,350.8744,191.5022,350.9321,189.4397,351.4139,187.4341,351.7575,185.4099,351.6471,183.3249,352.1652,181.3242,352.1416,181.3113,351.4698,182.2871,350.9175,183.3283,350.4481,184.4148,349.6928,185.345,349.3379,186.4942,349.4302,186.6628,348.1989,185.7367,347.237,185.303,346.3079,184.9294,345.1877,184.2062,344.168,183.6668,344.186,183.6822,345.4863,185.2248,346.8689,186.8372,348.2118,188.4159,349.6304,190.0588,350.8021,191.4925" style="stroke:#333333;stroke-width:1.0416666666666667;"/><path d="M377.8202,122.2301 L378.1004,122.3122 L374.3696,131.963 L372.281,142.0948 L369.6577,152.07 L365.2757,161.5301 L363.2245,171.6729 L359.8612,181.4313 L357.5313,191.4925 " fill="none" style="stroke:#333333;stroke-width:3.125;"/><polygon fill="#333333" points="357.5313,191.4925,357.5869,191.5397,358.7484,189.8343,360.2361,188.4056,361.6176,186.8868,362.6496,185.0718,364.1654,183.6668,364.1524,183.6432,363.0603,184.1024,362.0335,184.6809,361.052,185.3425,359.9142,185.7181,358.9954,186.4942,359.1641,186.5864,358.2379,185.3552,357.8042,184.3932,357.4306,183.4641,356.7074,182.3439,356.1681,181.3242,356.1916,181.3274,356.4297,183.3564,356.7748,185.3997,357.0683,187.4362,357.4602,189.4858,357.5313,191.4925" style="stroke:#333333;stroke-width:1.0416666666666667;"/><path d="M354.1667,216.649 L354.4586,216.649 L353.5912,226.5743 L354.4351,236.4995 L354.7218,246.4248 L353.1758,256.3501 L354.1667,266.2753 " fill="none" style="stroke:#333333;stroke-width:3.125;"/><polygon fill="#333333" points="354.1667,266.2753,354.2334,266.305,354.8685,264.3419,355.8947,262.5526,356.7935,260.7067,357.2736,258.6747,358.3333,256.9003,358.3143,256.8813,357.3953,257.629,356.5725,258.4728,355.8166,259.3836,354.8303,260.0639,354.1667,261.067,354.3026,261.2029,353.1786,260.0789,352.4514,259.3518,351.7727,258.6731,350.8123,257.7126,350,256.9003,350.0217,256.91,350.8232,258.7708,351.7233,260.6755,352.5759,262.5591,353.5192,264.4829,354.1667,266.2753" style="stroke:#333333;stroke-width:1.0416666666666667;"/><!--MD5=[4144adf07e5ae14a9130abd3bbd6c690]
@startuml
!pragma layout smetana
!theme sketchy-outline
title sketchy-outline theme

object user1
user1 : name = "Dummy"
user1 : id = 123

object user2 {
  name = "Dummy"
  id = 123
}

object o1
object o2
diamond dia
object o3

o1  - -> dia
o2  - -> dia
dia - -> o3
@enduml

@startuml
!pragma layout smetana



skinparam backgroundColor transparent
skinparam useBetaStyle false
skinparam handwritten true
skinparam shadowing false







skinparam defaultFontName       "Segoe Print"
skinparam defaultFontSize       12
skinparam dpi                   100
skinparam shadowing             false
skinparam roundcorner           8
skinparam ParticipantPadding    40
skinparam BoxPadding            40
skinparam Padding               5
skinparam ArrowColor            #555555
skinparam stereotype {
    CBackgroundColor transparent
    CBorderColor #4d4d4d
    ABackgroundColor transparent
    ABorderColor #24963e
    IBackgroundColor transparent
    IBorderColor #c6303e
    EBackgroundColor transparent
    EBorderColor #e6ae06
    NBackgroundColor transparent
    NBorderColor #1592a6
}
skinparam title {
	FontColor	                 #2e2e2e
	BorderColor	                 #4d4d4d
	FontSize	    	         20
	BorderRoundCorner            8
	BorderThickness 	         1
	BackgroundColor              transparent
}

skinparam legend {
	BackgroundColor transparent
	BorderColor #4d4d4d
	FontColor #2e2e2e
}

skinparam swimlane {
	BorderColor #17a2b8
	BorderThickness 2
	TitleBackgroundColor  transparent
	TitleFontColor #2e2e2e
}


skinparam activity {
		FontColor #2e2e2e
	BorderColor #333333
	BackgroundColor transparent
	BarColor #28a745
	StartColor #17a2b8
	EndColor #17a2b8
	DiamondBackgroundColor transparent
  	DiamondBorderColor #4d4d4d
  	DiamondFontColor #2e2e2e
}


skinparam participant {
		FontColor #2e2e2e
	BorderColor #333333
	BackgroundColor transparent
	ParticipantBorderThickness 2
}


skinparam actor {
		FontColor #2e2e2e
	BorderColor #333333
	BackgroundColor transparent
}


skinparam arrow {
	Thickness 3
	Color #333333
	FontColor #2e2e2e
}


skinparam sequence {
	BorderColor #333333
	TitleFontColor #2e2e2e
	BackgroundColor transparent
	StartColor #333333
	EndColor #333333
	BoxBackgroundColor transparent
	BoxBorderColor #555555
	BoxFontColor #555555
	DelayFontColor #555555
	LifeLineBorderColor #555555
	LifeLineBorderThickness 2
	LifeLineBackgroundColor #4d4d4d
	GroupBorderColor #555555
	GroupFontColor #555555
	GroupHeaderFontColor #17a2b8
	GroupBackgroundColor #555555
	GroupHeaderBackgroundColor transparent
	DividerBackgroundColor #555555
    DividerBorderColor #555555
    DividerBorderThickness 2
    DividerFontColor #ffffff
	ReferenceBackgroundColor transparent
	ReferenceBorderColor #555555
	ReferenceFontColor #555555
	ReferenceHeaderFontColor #17a2b8
	ReferenceHeaderBackgroundColor #555555
	StereotypeFontColor #2e2e2e
}


skinparam partition {
	BorderColor #333333
	FontColor #333333
	BackgroundColor transparent
}


skinparam collections {
		FontColor #2e2e2e
	BorderColor #333333
	BackgroundColor transparent
}


skinparam control {
		FontColor #2e2e2e
	BorderColor #333333
	BackgroundColor transparent
}


skinparam entity {
		FontColor #2e2e2e
	BorderColor #333333
	BackgroundColor transparent
}


skinparam boundary {
		FontColor #2e2e2e
	BorderColor #333333
	BackgroundColor transparent
}


skinparam agent {
	BackgroundColor #ffc107
	BorderColor #ffc720
	FontColor #555555
}


skinparam note {
	BorderThickness 1
	BackgroundColor #17a2b8
	BorderColor #1592a6
	FontColor #ffffff
}


skinparam artifact {
	BackgroundColor transparent
	BorderColor #4d4d4d
	FontColor #4d4d4d
}


skinparam component {
		FontColor #2e2e2e
	BorderColor #333333
	BackgroundColor transparent
}


skinparam interface {
	BackgroundColor  transparent
	BorderColor  #dc3545
	FontColor #555555
}


skinparam storage {
	BackgroundColor transparent
  	BorderColor #e6ae06
	FontColor #e6ae06
}


skinparam node {
	BackgroundColor  transparent
	BorderColor #ffffff
	FontColor #ffffff
}


skinparam cloud {
	BackgroundColor transparent
	BorderColor #F2FCFE
	FontColor #2e2e2e
}


skinparam database {
		FontColor #2e2e2e
	BorderColor #333333
	BackgroundColor transparent
}


skinparam class {
		FontColor #2e2e2e
	BorderColor #333333
	BackgroundColor transparent
	HeaderBackgroundColor transparent
	StereotypeFontColor #555555
	BorderThickness 1
	AttributeFontColor #555555
	AttributeFontSize 11
}


skinparam object {
		FontColor #2e2e2e
	BorderColor #333333
	BackgroundColor transparent
	StereotypeFontColor #2e2e2e
	BorderThickness 1
	AttributeFontColor #2e2e2e
	AttributeFontSize 11
}


skinparam usecase {
		FontColor #2e2e2e
	BorderColor #333333
	BackgroundColor transparent
	BorderThickness 2
	StereotypeFontColor #333333
}


skinparam rectangle {
		FontColor #2e2e2e
	BorderColor #333333
	BackgroundColor transparent
	BorderThickness 2
	StereotypeFontColor #333333
}


skinparam package {
	BackgroundColor transparent
  	BorderColor #333333
	FontColor #333333
	BorderThickness 2
}


skinparam folder {
	BackgroundColor transparent
  	BorderColor #ffc107
	FontColor #ffc107
	BorderThickness 2
}


skinparam frame {
	BackgroundColor transparent
  	BorderColor #17a2b8
	FontColor #17a2b8
	BorderThickness 2
}


skinparam state {
		FontColor #2e2e2e
	BorderColor #333333
	BackgroundColor transparent
	StartColor #17a2b8
	EndColor #17a2b8
	AttributeFontColor #ffffff
	AttributeFontSize 11
}


skinparam queue {
		FontColor #2e2e2e
	BorderColor #333333
	BackgroundColor transparent
}


skinparam card {
	BackgroundColor transparent
	BorderColor #1592a6
	FontColor #1592a6
}


skinparam file {
	BackgroundColor transparent
	BorderColor #ffffff
	FontColor #ffffff
}


title sketchy-outline theme

object user1
user1 : name = "Dummy"
user1 : id = 123

object user2 {
  name = "Dummy"
  id = 123
}

object o1
object o2
diamond dia
object o3

o1  - -> dia
o2  - -> dia
dia - -> o3
@enduml

PlantUML version 1.2021.12(Tue Oct 05 16:01:58 UTC 2021)
(GPL source distribution)
Java Runtime: OpenJDK Runtime Environment
JVM: OpenJDK 64-Bit Server VM
Default Encoding: UTF-8
Language: en
Country: null
--></g></svg>