<?xml version="1.0" encoding="UTF-8" standalone="no"?><svg xmlns="http://www.w3.org/2000/svg" xmlns:xlink="http://www.w3.org/1999/xlink" contentScriptType="application/ecmascript" contentStyleType="text/css" height="242px" preserveAspectRatio="none" style="width:399px;height:242px;background:#FFFFFF;" version="1.1" viewBox="0 0 399 242" width="399px" zoomAndPan="magnify"><defs><filter height="300%" id="f1iuw1x1pe1zdx" width="300%" x="-1" y="-1"><feGaussianBlur result="blurOut" stdDeviation="2.0"/><feColorMatrix in="blurOut" result="blurOut2" type="matrix" values="0 0 0 0 0 0 0 0 0 0 0 0 0 0 0 0 0 0 .4 0"/><feOffset dx="4.0" dy="4.0" in="blurOut2" result="blurOut3"/><feBlend in="SourceGraphic" in2="blurOut3" mode="normal"/></filter></defs><g><rect fill="none" height="26.2969" style="stroke:none;stroke-width:1.0;" width="165" x="110" y="5"/><text fill="#000000" font-family="sans-serif" font-size="14" font-weight="bold" lengthAdjust="spacing" textLength="155" x="115" y="22.9951">resume-light theme</text><rect fill="#FEFECE" height="60.8906" rx="5" ry="5" style="stroke:#A80036;stroke-width:1.5;" width="134" x="7" y="43.1875"/><text fill="#000000" font-family="sans-serif" font-size="14" lengthAdjust="spacing" textLength="40" x="54" y="58.1826">user1</text><line style="stroke:#A80036;stroke-width:1.5;" x1="8" x2="140" y1="63.4844" y2="63.4844"/><text fill="#000000" font-family="sans-serif" font-size="14" lengthAdjust="spacing" textLength="122" x="13" y="80.4795">name = "Dummy"</text><text fill="#000000" font-family="sans-serif" font-size="14" lengthAdjust="spacing" textLength="59" x="44.5" y="96.7764">id = 123</text><rect fill="#FEFECE" height="60.8906" rx="5" ry="5" style="stroke:#A80036;stroke-width:1.5;" width="134" x="159" y="43.1875"/><text fill="#000000" font-family="sans-serif" font-size="14" lengthAdjust="spacing" textLength="40" x="206" y="58.1826">user2</text><line style="stroke:#A80036;stroke-width:1.5;" x1="160" x2="292" y1="63.4844" y2="63.4844"/><text fill="#000000" font-family="sans-serif" font-size="14" lengthAdjust="spacing" textLength="122" x="165" y="80.4795">name = "Dummy"</text><text fill="#000000" font-family="sans-serif" font-size="14" lengthAdjust="spacing" textLength="59" x="196.5" y="96.7764">id = 123</text><rect fill="#FEFECE" height="36.2969" rx="5" ry="5" style="stroke:#A80036;stroke-width:1.5;" width="32" x="311" y="55.6875"/><text fill="#000000" font-family="sans-serif" font-size="14" lengthAdjust="spacing" textLength="18" x="318" y="70.6826">o1</text><line style="stroke:#A80036;stroke-width:1.5;" x1="312" x2="342" y1="75.9844" y2="75.9844"/><rect fill="#FEFECE" height="36.2969" rx="5" ry="5" style="stroke:#A80036;stroke-width:1.5;" width="32" x="361" y="55.6875"/><text fill="#000000" font-family="sans-serif" font-size="14" lengthAdjust="spacing" textLength="18" x="368" y="70.6826">o2</text><line style="stroke:#A80036;stroke-width:1.5;" x1="362" x2="392" y1="75.9844" y2="75.9844"/><polygon fill="#FEFECE" filter="url(#f1iuw1x1pe1zdx)" points="352,140.1875,364,152.1875,352,164.1875,340,152.1875,352,140.1875" style="stroke:#A80036;stroke-width:1.5;"/><rect fill="#FEFECE" height="36.2969" rx="5" ry="5" style="stroke:#A80036;stroke-width:1.5;" width="32" x="336" y="200.1875"/><text fill="#000000" font-family="sans-serif" font-size="14" lengthAdjust="spacing" textLength="18" x="343" y="215.1826">o3</text><line style="stroke:#A80036;stroke-width:1.5;" x1="337" x2="367" y1="220.4844" y2="220.4844"/><path d="M332.6729,92.0465 C337.4558,106.6822 344.1624,127.2043 348.2868,139.825 " fill="none" style="stroke:#A80036;stroke-width:1.0;"/><polygon fill="#A80036" points="348.2868,139.825,349.2932,130.0277,346.7336,135.0724,341.689,132.5128,348.2868,139.825" style="stroke:#A80036;stroke-width:1.0;"/><path d="M371.3271,92.0465 C366.5442,106.6822 359.8376,127.2043 355.7132,139.825 " fill="none" style="stroke:#A80036;stroke-width:1.0;"/><polygon fill="#A80036" points="355.7132,139.825,362.311,132.5128,357.2664,135.0724,354.7068,130.0277,355.7132,139.825" style="stroke:#A80036;stroke-width:1.0;"/><path d="M352,164.3354 C352,174.2199 352,188.8059 352,200.1522 " fill="none" style="stroke:#A80036;stroke-width:1.0;"/><polygon fill="#A80036" points="352,200.1522,356,191.1522,352,195.1522,348,191.1522,352,200.1522" style="stroke:#A80036;stroke-width:1.0;"/></g></svg>