<?xml version="1.0" encoding="UTF-8" standalone="no"?><svg xmlns="http://www.w3.org/2000/svg" xmlns:xlink="http://www.w3.org/1999/xlink" contentScriptType="application/ecmascript" contentStyleType="text/css" height="250px" preserveAspectRatio="none" style="width:344px;height:250px;background:#F9F9F9;" version="1.1" viewBox="0 0 344 250" width="344px" zoomAndPan="magnify"><defs/><g><rect fill="#FEFECE" height="49.25" rx="3.5" ry="3.5" style="stroke:#A80036;stroke-width:1.5;" width="104" x="16" y="6.25"/><text fill="#000000" font-family="sans-serif" font-size="12" lengthAdjust="spacing" textLength="36" x="50" y="19.3887">user1</text><line style="stroke:#A80036;stroke-width:1.5;" x1="17" x2="119" y1="24.2188" y2="24.2188"/><text fill="#000000" font-family="sans-serif" font-size="10" lengthAdjust="spacing" textLength="92" x="22" y="37.501">name = "Dummy"</text><text fill="#000000" font-family="sans-serif" font-size="10" lengthAdjust="spacing" textLength="40" x="22" y="49.1416">id = 123</text><rect fill="#FEFECE" height="49.25" rx="3.5" ry="3.5" style="stroke:#A80036;stroke-width:1.5;" width="104" x="138" y="6.25"/><text fill="#000000" font-family="sans-serif" font-size="12" lengthAdjust="spacing" textLength="36" x="172" y="19.3887">user2</text><line style="stroke:#A80036;stroke-width:1.5;" x1="139" x2="241" y1="24.2188" y2="24.2188"/><text fill="#000000" font-family="sans-serif" font-size="10" lengthAdjust="spacing" textLength="92" x="144" y="37.501">name = "Dummy"</text><text fill="#000000" font-family="sans-serif" font-size="10" lengthAdjust="spacing" textLength="40" x="144" y="49.1416">id = 123</text><rect fill="#FEFECE" height="33.9688" rx="3.5" ry="3.5" style="stroke:#A80036;stroke-width:1.5;" width="30" x="260" y="13.75"/><text fill="#000000" font-family="sans-serif" font-size="12" lengthAdjust="spacing" textLength="16" x="267" y="26.8887">o1</text><line style="stroke:#A80036;stroke-width:1.5;" x1="261" x2="289" y1="31.7188" y2="31.7188"/><rect fill="#FEFECE" height="33.9688" rx="3.5" ry="3.5" style="stroke:#A80036;stroke-width:1.5;" width="30" x="308" y="13.75"/><text fill="#000000" font-family="sans-serif" font-size="12" lengthAdjust="spacing" textLength="16" x="315" y="26.8887">o2</text><line style="stroke:#A80036;stroke-width:1.5;" x1="309" x2="337" y1="31.7188" y2="31.7188"/><polygon fill="#FEFECE" points="299,128.75,311,140.75,299,152.75,287,140.75,299,128.75" style="stroke:#A80036;stroke-width:1.5;"/><rect fill="#FEFECE" height="33.9688" rx="3.5" ry="3.5" style="stroke:#A80036;stroke-width:1.5;" width="30" x="284" y="210.25"/><text fill="#000000" font-family="sans-serif" font-size="12" lengthAdjust="spacing" textLength="16" x="291" y="223.3887">o3</text><line style="stroke:#A80036;stroke-width:1.5;" x1="285" x2="313" y1="228.2188" y2="228.2188"/><rect fill="#FEFECE" height="33.9688" rx="3.5" ry="3.5" style="stroke:#A80036;stroke-width:1.5;" width="60" x="147" y="123.75"/><text fill="#000000" font-family="sans-serif" font-size="12" lengthAdjust="spacing" textLength="46" x="154" y="136.8887">London</text><line style="stroke:#A80036;stroke-width:1.5;" x1="148" x2="206" y1="141.7188" y2="141.7188"/><rect fill="#FEFECE" height="64.8906" rx="3.5" ry="3.5" style="stroke:#A80036;stroke-width:1.5;" width="122" x="7" y="108.25"/><text fill="#000000" font-family="sans-serif" font-size="12" lengthAdjust="spacing" textLength="65" x="35.5" y="121.3887">CapitalCity</text><line style="stroke:#A80036;stroke-width:1.0;" x1="7" x2="129" y1="126.2188" y2="126.2188"/><text fill="#000000" font-family="sans-serif" font-size="10" lengthAdjust="spacing" textLength="15" x="60.5" y="137.501">UK</text><line style="stroke:#A80036;stroke-width:1.0;" x1="7" x2="129" y1="141.8594" y2="141.8594"/><text fill="#000000" font-family="sans-serif" font-size="10" lengthAdjust="spacing" textLength="22" x="24" y="153.1416">USA</text><text fill="#000000" font-family="sans-serif" font-size="10" lengthAdjust="spacing" textLength="56" x="68" y="153.1416">Washington</text><line style="stroke:#A80036;stroke-width:1.0;" x1="63" x2="63" y1="141.8594" y2="157.5"/><line style="stroke:#A80036;stroke-width:1.0;" x1="7" x2="129" y1="157.5" y2="157.5"/><text fill="#000000" font-family="sans-serif" font-size="10" lengthAdjust="spacing" textLength="46" x="12" y="168.7822">Germany</text><text fill="#000000" font-family="sans-serif" font-size="10" lengthAdjust="spacing" textLength="27" x="68" y="168.7822">Berlin</text><line style="stroke:#A80036;stroke-width:1.0;" x1="63" x2="63" y1="157.5" y2="173.1406"/><path d="M278.6451,48.1529 C283.5756,70.3403 292.242,109.3389 296.4981,128.4914 " fill="none" style="stroke:#191919;stroke-width:1.0;"/><polygon fill="#191919" points="296.4981,128.4914,298.4505,118.838,295.4134,123.6105,290.641,120.5734,296.4981,128.4914" style="stroke:#191919;stroke-width:1.0;"/><path d="M319.3549,48.1529 C314.4244,70.3403 305.758,109.3389 301.5019,128.4914 " fill="none" style="stroke:#191919;stroke-width:1.0;"/><polygon fill="#191919" points="301.5019,128.4914,307.359,120.5734,302.5866,123.6105,299.5495,118.838,301.5019,128.4914" style="stroke:#191919;stroke-width:1.0;"/><text fill="#000000" font-family="sans-serif" font-size="13" lengthAdjust="spacing" textLength="8" x="292.5019" y="124.5583">1</text><text fill="#000000" font-family="sans-serif" font-size="13" lengthAdjust="spacing" textLength="8" x="310.3549" y="61.2198">1</text><path d="M299,152.7969 C299,167.3808 299,193.1717 299,209.9857 " fill="none" style="stroke:#191919;stroke-width:1.0;"/><polygon fill="#191919" points="299,209.9857,303,200.9857,299,204.9857,295,200.9857,299,209.9857" style="stroke:#191919;stroke-width:1.0;"/><path d="M129.3125,140.75 C135.1493,140.75 140.986,140.75 146.8228,140.75 " fill="none" style="stroke:#191919;stroke-width:1.0;"/><polygon fill="#191919" points="146.8228,140.75,137.8228,136.75,141.8228,140.75,137.8228,144.75,146.8228,140.75" style="stroke:#191919;stroke-width:1.0;"/><path d="M68,55.4511 C68,70.8501 68,91.1095 68,107.9078 " fill="none" style="stroke:#191919;stroke-width:1.0;"/><polygon fill="#191919" points="68,107.9078,72,98.9078,68,102.9078,64,98.9078,68,107.9078" style="stroke:#191919;stroke-width:1.0;"/><text fill="#000000" font-family="sans-serif" font-size="13" lengthAdjust="spacing" textLength="32" x="69" y="86.3169">visits</text></g></svg>