<?xml version="1.0" encoding="UTF-8" standalone="no"?><svg xmlns="http://www.w3.org/2000/svg" xmlns:xlink="http://www.w3.org/1999/xlink" contentScriptType="application/ecmascript" contentStyleType="text/css" height="475px" preserveAspectRatio="none" style="width:483px;height:475px;background:#00000000;" version="1.1" viewBox="0 0 483 475" width="483.3333px" zoomAndPan="magnify"><defs><linearGradient id="gy7zfip8xwcpu0" x1="50%" x2="50%" y1="0%" y2="100%"><stop offset="0%" stop-color="#4DABF5"/><stop offset="100%" stop-color="#2196F3"/></linearGradient><filter height="300%" id="fy7zfip8xwcpu" width="300%" x="-1" y="-1"><feGaussianBlur result="blurOut" stdDeviation="2.0833333333333335"/><feColorMatrix in="blurOut" result="blurOut2" type="matrix" values="0 0 0 0 0 0 0 0 0 0 0 0 0 0 0 0 0 0 .4 0"/><feOffset dx="4.166666666666667" dy="4.166666666666667" in="blurOut2" result="blurOut3"/><feBlend in="SourceGraphic" in2="blurOut3" mode="normal"/></filter><linearGradient id="gy7zfip8xwcpu1" x1="50%" x2="50%" y1="0%" y2="100%"><stop offset="0%" stop-color="#FFFFFF"/><stop offset="100%" stop-color="#FFFFFF"/></linearGradient></defs><g><rect fill="url(#gy7zfip8xwcpu0)" filter="url(#fy7zfip8xwcpu)" height="116.2272" rx="4.1667" ry="4.1667" style="stroke:#2196F3;stroke-width:1.0416666666666667;" width="139.5833" x="29.6875" y="13.1022"/><text fill="#FFFFFF" font-family="Verdana" font-size="12.5" lengthAdjust="spacing" textLength="37.5" x="80.7292" y="37.205">user1</text><line style="stroke:#2196F3;stroke-width:1.5625;" x1="30.7292" x2="168.2292" y1="52.653" y2="52.653"/><text fill="#222222" font-family="Verdana" font-size="11.4583" lengthAdjust="spacing" textLength="106.25" x="46.3542" y="77.8722">name = "Dummy"</text><text fill="#222222" font-family="Verdana" font-size="11.4583" lengthAdjust="spacing" textLength="50" x="46.3542" y="112.0438">id = 123</text><rect fill="url(#gy7zfip8xwcpu0)" filter="url(#fy7zfip8xwcpu)" height="116.2272" rx="4.1667" ry="4.1667" style="stroke:#2196F3;stroke-width:1.0416666666666667;" width="139.5833" x="188.0208" y="13.1022"/><text fill="#FFFFFF" font-family="Verdana" font-size="12.5" lengthAdjust="spacing" textLength="37.5" x="239.0625" y="37.205">user2</text><line style="stroke:#2196F3;stroke-width:1.5625;" x1="189.0625" x2="326.5625" y1="52.653" y2="52.653"/><text fill="#222222" font-family="Verdana" font-size="11.4583" lengthAdjust="spacing" textLength="106.25" x="204.6875" y="77.8722">name = "Dummy"</text><text fill="#222222" font-family="Verdana" font-size="11.4583" lengthAdjust="spacing" textLength="50" x="204.6875" y="112.0438">id = 123</text><rect fill="url(#gy7zfip8xwcpu0)" filter="url(#fy7zfip8xwcpu)" height="56.2174" rx="4.1667" ry="4.1667" style="stroke:#2196F3;stroke-width:1.0416666666666667;" width="52.0833" x="346.3542" y="43.3105"/><text fill="#FFFFFF" font-family="Verdana" font-size="12.5" lengthAdjust="spacing" textLength="16.6667" x="364.0625" y="67.4133">o1</text><line style="stroke:#2196F3;stroke-width:1.0416666666666667;" x1="347.3958" x2="397.3958" y1="82.8613" y2="82.8613"/><rect fill="url(#gy7zfip8xwcpu0)" filter="url(#fy7zfip8xwcpu)" height="56.2174" rx="4.1667" ry="4.1667" style="stroke:#2196F3;stroke-width:1.0416666666666667;" width="52.0833" x="417.1875" y="43.3105"/><text fill="#FFFFFF" font-family="Verdana" font-size="12.5" lengthAdjust="spacing" textLength="16.6667" x="434.8958" y="67.4133">o2</text><line style="stroke:#2196F3;stroke-width:1.0416666666666667;" x1="418.2292" x2="468.2292" y1="82.8613" y2="82.8613"/><polygon fill="url(#gy7zfip8xwcpu1)" filter="url(#fy7zfip8xwcpu)" points="407.8125,254.7689,420.3125,267.2689,407.8125,279.7689,395.3125,267.2689,407.8125,254.7689" style="stroke:#CCCCCC;stroke-width:1.5625;"/><rect fill="url(#gy7zfip8xwcpu0)" filter="url(#fy7zfip8xwcpu)" height="56.2174" rx="4.1667" ry="4.1667" style="stroke:#2196F3;stroke-width:1.0416666666666667;" width="52.0833" x="381.7708" y="404.7689"/><text fill="#FFFFFF" font-family="Verdana" font-size="12.5" lengthAdjust="spacing" textLength="16.6667" x="399.4792" y="428.8717">o3</text><line style="stroke:#2196F3;stroke-width:1.0416666666666667;" x1="382.8125" x2="432.8125" y1="444.3197" y2="444.3197"/><rect fill="url(#gy7zfip8xwcpu0)" filter="url(#fy7zfip8xwcpu)" height="56.2174" rx="4.1667" ry="4.1667" style="stroke:#2196F3;stroke-width:1.0416666666666667;" width="83.3333" x="232.8125" y="239.1439"/><text fill="#FFFFFF" font-family="Verdana" font-size="12.5" lengthAdjust="spacing" textLength="47.9167" x="250.5208" y="263.2467">London</text><line style="stroke:#2196F3;stroke-width:1.0416666666666667;" x1="233.8542" x2="315.1042" y1="278.6947" y2="278.6947"/><rect fill="url(#gy7zfip8xwcpu0)" filter="url(#fy7zfip8xwcpu)" height="154.5654" rx="4.1667" ry="4.1667" style="stroke:#2196F3;stroke-width:1.0416666666666667;" width="184.375" x="7.2917" y="190.1855"/><text fill="#FFFFFF" font-family="Verdana" font-size="12.5" lengthAdjust="spacing" textLength="67.7083" x="65.625" y="214.2883">CapitalCity</text><line style="stroke:#2196F3;stroke-width:1.0416666666666667;" x1="7.2917" x2="191.6667" y1="229.7363" y2="229.7363"/><text fill="#222222" font-family="Verdana" font-size="11.4583" lengthAdjust="spacing" textLength="15.625" x="91.6667" y="252.8722">UK</text><line style="stroke:#2196F3;stroke-width:1.0416666666666667;" x1="7.2917" x2="191.6667" y1="268.0745" y2="268.0745"/><text fill="#222222" font-family="Verdana" font-size="11.4583" lengthAdjust="spacing" textLength="23.9583" x="38.0208" y="291.2104">USA</text><text fill="#222222" font-family="Verdana" font-size="11.4583" lengthAdjust="spacing" textLength="67.7083" x="108.3333" y="291.2104">Washington</text><line style="stroke:#2196F3;stroke-width:1.0416666666666667;" x1="92.7083" x2="92.7083" y1="268.0745" y2="306.4128"/><line style="stroke:#2196F3;stroke-width:1.0416666666666667;" x1="7.2917" x2="191.6667" y1="306.4128" y2="306.4128"/><text fill="#222222" font-family="Verdana" font-size="11.4583" lengthAdjust="spacing" textLength="54.1667" x="22.9167" y="329.5486">Germany</text><text fill="#222222" font-family="Verdana" font-size="11.4583" lengthAdjust="spacing" textLength="34.375" x="108.3333" y="329.5486">Berlin</text><line style="stroke:#2196F3;stroke-width:1.0416666666666667;" x1="92.7083" x2="92.7083" y1="306.4128" y2="344.751"/><path d="M377.3951,99.8259 C385.2509,142.8021 400.1597,224.362 405.6838,254.5819 " fill="none" style="stroke:#2196F3;stroke-width:3.125;"/><polygon fill="#2196F3" points="405.6838,254.5819,408.0968,244.6105,404.7472,249.4585,399.8993,246.1089,405.6838,254.5819" style="stroke:#2196F3;stroke-width:1.0416666666666667;"/><path d="M438.2299,99.8259 C430.3741,142.8021 415.4653,224.362 409.9412,254.5819 " fill="none" style="stroke:#2196F3;stroke-width:3.125;"/><polygon fill="#2196F3" points="409.9412,254.5819,415.7257,246.1089,410.8778,249.4585,407.5282,244.6105,409.9412,254.5819" style="stroke:#2196F3;stroke-width:1.0416666666666667;"/><path d="M407.8125,280.0721 C407.8125,305.9256 407.8125,368.2776 407.8125,404.5107 " fill="none" style="stroke:#2196F3;stroke-width:3.125;"/><polygon fill="#2196F3" points="407.8125,404.5107,411.9792,395.1357,407.8125,399.3023,403.6458,395.1357,407.8125,404.5107" style="stroke:#2196F3;stroke-width:1.0416666666666667;"/><path d="M192.1035,267.2689 C206.2051,267.2689 220.1286,267.2689 232.4023,267.2689 " fill="none" style="stroke:#2196F3;stroke-width:3.125;"/><polygon fill="#2196F3" points="232.4023,267.2689,223.0273,263.1022,227.1939,267.2689,223.0273,271.4355,232.4023,267.2689" style="stroke:#2196F3;stroke-width:1.0416666666666667;"/><path d="M99.4792,129.8222 C99.4792,148.6803 99.4792,169.9506 99.4792,189.9861 " fill="none" style="stroke:#2196F3;stroke-width:3.125;"/><polygon fill="#2196F3" points="99.4792,189.9861,103.6458,180.6111,99.4792,184.7778,95.3125,180.6111,99.4792,189.9861" style="stroke:#2196F3;stroke-width:1.0416666666666667;"/></g></svg>