<?xml version="1.0" encoding="UTF-8" standalone="no"?><svg xmlns="http://www.w3.org/2000/svg" xmlns:xlink="http://www.w3.org/1999/xlink" contentScriptType="application/ecmascript" contentStyleType="text/css" height="256px" preserveAspectRatio="none" style="width:404px;height:256px;background:#0B58A8;" version="1.1" viewBox="0 0 404 256" width="404px" zoomAndPan="magnify"><defs/><g><rect fill="#0B58A8" height="35.6094" style="stroke:#0B58A8;stroke-width:0.0;" width="175" x="110" y="10"/><text fill="#FFFFFF" font-family="Verdana" font-size="22" font-weight="bold" lengthAdjust="spacing" textLength="165" x="115" y="35.4209">amiga theme</text><rect fill="#0B58A8" height="60.8906" style="stroke:#FFFFFF;stroke-width:1.5;" width="134" x="12" y="57.5"/><text fill="#FFFFFF" font-family="Verdana" font-size="14" lengthAdjust="spacing" textLength="40" x="59" y="72.4951">user1</text><line style="stroke:#FFFFFF;stroke-width:1.5;" x1="13" x2="145" y1="77.7969" y2="77.7969"/><text fill="#FFFFFF" font-family="Verdana" font-size="14" lengthAdjust="spacing" textLength="122" x="18" y="94.792">name = "Dummy"</text><text fill="#FFFFFF" font-family="Verdana" font-size="14" lengthAdjust="spacing" textLength="59" x="18" y="111.0889">id = 123</text><rect fill="#0B58A8" height="60.8906" style="stroke:#FFFFFF;stroke-width:1.5;" width="134" x="164" y="57.5"/><text fill="#FFFFFF" font-family="Verdana" font-size="14" lengthAdjust="spacing" textLength="40" x="211" y="72.4951">user2</text><line style="stroke:#FFFFFF;stroke-width:1.5;" x1="165" x2="297" y1="77.7969" y2="77.7969"/><text fill="#FFFFFF" font-family="Verdana" font-size="14" lengthAdjust="spacing" textLength="122" x="170" y="94.792">name = "Dummy"</text><text fill="#FFFFFF" font-family="Verdana" font-size="14" lengthAdjust="spacing" textLength="59" x="170" y="111.0889">id = 123</text><rect fill="#0B58A8" height="36.2969" style="stroke:#FFFFFF;stroke-width:1.5;" width="32" x="316" y="70"/><text fill="#FFFFFF" font-family="Verdana" font-size="14" lengthAdjust="spacing" textLength="18" x="323" y="84.9951">o1</text><line style="stroke:#FFFFFF;stroke-width:1.5;" x1="317" x2="347" y1="90.2969" y2="90.2969"/><rect fill="#0B58A8" height="36.2969" style="stroke:#FFFFFF;stroke-width:1.5;" width="32" x="366" y="70"/><text fill="#FFFFFF" font-family="Verdana" font-size="14" lengthAdjust="spacing" textLength="18" x="373" y="84.9951">o2</text><line style="stroke:#FFFFFF;stroke-width:1.5;" x1="367" x2="397" y1="90.2969" y2="90.2969"/><polygon fill="#0B58A8" points="357,154.5,369,166.5,357,178.5,345,166.5,357,154.5" style="stroke:#FFFFFF;stroke-width:1.0;"/><rect fill="#0B58A8" height="36.2969" style="stroke:#FFFFFF;stroke-width:1.5;" width="32" x="341" y="214.5"/><text fill="#FFFFFF" font-family="Verdana" font-size="14" lengthAdjust="spacing" textLength="18" x="348" y="229.4951">o3</text><line style="stroke:#FFFFFF;stroke-width:1.5;" x1="342" x2="372" y1="234.7969" y2="234.7969"/><path d="M337.6729,106.359 C342.4558,120.9947 349.1624,141.5168 353.2868,154.1375 " fill="none" style="stroke:#FFFFFF;stroke-width:1.0;"/><polygon fill="#FFFFFF" points="353.2868,154.1375,354.2932,144.3402,351.7336,149.3849,346.689,146.8253,353.2868,154.1375" style="stroke:#FFFFFF;stroke-width:1.0;"/><path d="M376.3271,106.359 C371.5442,120.9947 364.8376,141.5168 360.7132,154.1375 " fill="none" style="stroke:#FFFFFF;stroke-width:1.0;"/><polygon fill="#FFFFFF" points="360.7132,154.1375,367.311,146.8253,362.2664,149.3849,359.7068,144.3402,360.7132,154.1375" style="stroke:#FFFFFF;stroke-width:1.0;"/><path d="M357,178.6479 C357,188.5324 357,203.1184 357,214.4647 " fill="none" style="stroke:#FFFFFF;stroke-width:1.0;"/><polygon fill="#FFFFFF" points="357,214.4647,361,205.4647,357,209.4647,353,205.4647,357,214.4647" style="stroke:#FFFFFF;stroke-width:1.0;"/></g></svg>