<?xml version="1.0" encoding="UTF-8" standalone="no"?><svg xmlns="http://www.w3.org/2000/svg" xmlns:xlink="http://www.w3.org/1999/xlink" contentScriptType="application/ecmascript" contentStyleType="text/css" height="211.4583px" preserveAspectRatio="none" style="width:304px;height:211px;background:#00000000;" version="1.1" viewBox="0 0 304 211" width="304.1667px" zoomAndPan="magnify"><defs/><g><rect height="45.0846" rx="4.1667" ry="4.1667" style="stroke:#717D89;stroke-width:1.0416666666666667;fill:none;" width="286.4583" x="7.2917" y="7.2917"/><text fill="#DF691A" font-family="Verdana" font-size="20.8333" lengthAdjust="spacing" textLength="259.375" x="20.8333" y="37.0463">superhero-outline theme</text><text fill="#000000" font-family="sans-serif" font-size="12.5" lengthAdjust="spacing" textLength="88.5417" x="67.7083" y="68.1458">Just plain text</text><rect fill="#EEEEEE" height="18.7174" rx="5.2083" ry="5.2083" style="stroke:#000000;stroke-width:2.604166666666667;" width="145.8333" x="70.3125" y="75.7813"/><text fill="#000000" font-family="sans-serif" font-size="12.5" lengthAdjust="spacing" textLength="110.4167" x="88.0208" y="89.4674">This is my button</text><text fill="#000000" font-family="sans-serif" font-size="12.5" lengthAdjust="spacing" textLength="110.4167" x="88.5417" y="110.789">Unchecked radio</text><ellipse cx="75" cy="106.4616" rx="5.2083" ry="5.2083" style="stroke:#000000;stroke-width:1.5625;fill:none;"/><text fill="#000000" font-family="sans-serif" font-size="12.5" lengthAdjust="spacing" textLength="93.75" x="88.5417" y="127.4231">Checked radio</text><ellipse cx="75" cy="123.0957" rx="5.2083" ry="5.2083" style="stroke:#000000;stroke-width:1.5625;fill:none;"/><ellipse cx="75" cy="123.0957" fill="#000000" rx="2.0833" ry="2.0833" style="stroke:#000000;stroke-width:1.5625;"/><text fill="#000000" font-family="sans-serif" font-size="12.5" lengthAdjust="spacing" textLength="100" x="88.5417" y="144.0572">Unchecked box</text><rect fill="none" height="10.4167" style="stroke:#000000;stroke-width:1.5625;" width="10.4167" x="69.7917" y="134.5215"/><text fill="#000000" font-family="sans-serif" font-size="12.5" lengthAdjust="spacing" textLength="83.3333" x="88.5417" y="160.6913">Checked box</text><rect fill="none" height="10.4167" style="stroke:#000000;stroke-width:1.5625;" width="10.4167" x="69.7917" y="151.1556"/><polygon fill="#000000" points="70.8333,155.3385,73.9583,158.4635,81.25,149.0885,73.9583,156.3802" style="stroke:#000000;stroke-width:1.5625;"/><text fill="#000000" font-family="sans-serif" font-size="12.5" lengthAdjust="spacing" textLength="98.9583" x="70.8333" y="177.3254">Enter text here</text><line style="stroke:#000000;stroke-width:1.0416666666666667;" x1="68.75" x2="221.875" y1="180.2734" y2="180.2734"/><line style="stroke:#000000;stroke-width:1.0416666666666667;" x1="68.75" x2="68.75" y1="177.1484" y2="179.2318"/><line style="stroke:#000000;stroke-width:1.0416666666666667;" x1="221.875" x2="221.875" y1="177.1484" y2="179.2318"/><rect fill="#EEEEEE" height="17.6758" style="stroke:#000000;stroke-width:1.0416666666666667;" width="165.625" x="67.7083" y="184.4401"/><text fill="#000000" font-family="sans-serif" font-size="12.5" lengthAdjust="spacing" textLength="106.25" x="69.7917" y="198.1262">This is a droplist</text><line style="stroke:#000000;stroke-width:1.0416666666666667;" x1="221.875" x2="221.875" y1="184.4401" y2="202.1159"/><polygon fill="#000000" points="225,190.6901,231.25,190.6901,228.125,196.9076" style="stroke:#000000;stroke-width:1.0416666666666667;"/><line style="stroke:#000000;stroke-width:1.0416666666666667;" x1="66.6667" x2="235.4167" y1="55.5013" y2="55.5013"/><line style="stroke:#000000;stroke-width:1.0416666666666667;" x1="66.6667" x2="235.4167" y1="204.1992" y2="204.1992"/><line style="stroke:#000000;stroke-width:1.0416666666666667;" x1="66.6667" x2="66.6667" y1="55.5013" y2="72.1354"/><line style="stroke:#000000;stroke-width:1.0416666666666667;" x1="235.4167" x2="235.4167" y1="55.5013" y2="72.1354"/><line style="stroke:#000000;stroke-width:1.0416666666666667;" x1="66.6667" x2="66.6667" y1="183.3984" y2="204.1992"/><line style="stroke:#000000;stroke-width:1.0416666666666667;" x1="235.4167" x2="235.4167" y1="183.3984" y2="204.1992"/><line style="stroke:#000000;stroke-width:1.0416666666666667;" x1="66.6667" x2="66.6667" y1="148.0469" y2="164.681"/><line style="stroke:#000000;stroke-width:1.0416666666666667;" x1="235.4167" x2="235.4167" y1="148.0469" y2="164.681"/><line style="stroke:#000000;stroke-width:1.0416666666666667;" x1="66.6667" x2="66.6667" y1="114.7786" y2="131.4128"/><line style="stroke:#000000;stroke-width:1.0416666666666667;" x1="235.4167" x2="235.4167" y1="114.7786" y2="131.4128"/><line style="stroke:#000000;stroke-width:1.0416666666666667;" x1="66.6667" x2="66.6667" y1="72.1354" y2="98.1445"/><line style="stroke:#000000;stroke-width:1.0416666666666667;" x1="235.4167" x2="235.4167" y1="72.1354" y2="98.1445"/><line style="stroke:#000000;stroke-width:1.0416666666666667;" x1="66.6667" x2="66.6667" y1="164.681" y2="183.3984"/><line style="stroke:#000000;stroke-width:1.0416666666666667;" x1="235.4167" x2="235.4167" y1="164.681" y2="183.3984"/><line style="stroke:#000000;stroke-width:1.0416666666666667;" x1="66.6667" x2="66.6667" y1="131.4128" y2="148.0469"/><line style="stroke:#000000;stroke-width:1.0416666666666667;" x1="235.4167" x2="235.4167" y1="131.4128" y2="148.0469"/><line style="stroke:#000000;stroke-width:1.0416666666666667;" x1="66.6667" x2="66.6667" y1="98.1445" y2="114.7786"/><line style="stroke:#000000;stroke-width:1.0416666666666667;" x1="235.4167" x2="235.4167" y1="98.1445" y2="114.7786"/></g></svg>