<?xml version="1.0" encoding="UTF-8" standalone="no"?><svg xmlns="http://www.w3.org/2000/svg" xmlns:xlink="http://www.w3.org/1999/xlink" contentScriptType="application/ecmascript" contentStyleType="text/css" height="175px" preserveAspectRatio="none" style="width:251px;height:175px;background:#FFFFFF;" version="1.1" viewBox="0 0 251 175" width="251px" zoomAndPan="magnify"><defs/><g><text fill="#000000" font-family="sans-serif" font-size="18" lengthAdjust="spacing" textLength="237" x="7" y="21.708">reddress-lightgreen theme</text><text fill="#000000" font-family="sans-serif" font-size="12" lengthAdjust="spacing" textLength="85" x="45.5" y="38.0918">Just plain text</text><rect fill="#EEEEEE" height="17.9688" rx="5" ry="5" style="stroke:#000000;stroke-width:2.5;" width="140" x="48" y="45.4219"/><text fill="#000000" font-family="sans-serif" font-size="12" lengthAdjust="spacing" textLength="106" x="65" y="58.5605">This is my button</text><text fill="#000000" font-family="sans-serif" font-size="12" lengthAdjust="spacing" textLength="106" x="65.5" y="79.0293">Unchecked radio</text><ellipse cx="52.5" cy="74.875" rx="5" ry="5" style="stroke:#000000;stroke-width:1.5;fill:none;"/><text fill="#000000" font-family="sans-serif" font-size="12" lengthAdjust="spacing" textLength="90" x="65.5" y="94.998">Checked radio</text><ellipse cx="52.5" cy="90.8438" rx="5" ry="5" style="stroke:#000000;stroke-width:1.5;fill:none;"/><ellipse cx="52.5" cy="90.8438" fill="#000000" rx="2" ry="2" style="stroke:#000000;stroke-width:1.5;"/><text fill="#000000" font-family="sans-serif" font-size="12" lengthAdjust="spacing" textLength="96" x="65.5" y="110.9668">Unchecked box</text><rect fill="none" height="10" style="stroke:#000000;stroke-width:1.5;" width="10" x="47.5" y="101.8125"/><text fill="#000000" font-family="sans-serif" font-size="12" lengthAdjust="spacing" textLength="80" x="65.5" y="126.9355">Checked box</text><rect fill="none" height="10" style="stroke:#000000;stroke-width:1.5;" width="10" x="47.5" y="117.7813"/><polygon fill="#000000" points="48.5,121.7969,51.5,124.7969,58.5,115.7969,51.5,122.7969" style="stroke:#000000;stroke-width:1.5;"/><text fill="#000000" font-family="sans-serif" font-size="12" lengthAdjust="spacing" textLength="95" x="48.5" y="142.9043">Enter text here</text><line style="stroke:#000000;stroke-width:1.0;" x1="46.5" x2="193.5" y1="145.7344" y2="145.7344"/><line style="stroke:#000000;stroke-width:1.0;" x1="46.5" x2="46.5" y1="142.7344" y2="144.7344"/><line style="stroke:#000000;stroke-width:1.0;" x1="193.5" x2="193.5" y1="142.7344" y2="144.7344"/><rect fill="#EEEEEE" height="16.9688" style="stroke:#000000;stroke-width:1.0;" width="159" x="45.5" y="149.7344"/><text fill="#000000" font-family="sans-serif" font-size="12" lengthAdjust="spacing" textLength="102" x="47.5" y="162.873">This is a droplist</text><line style="stroke:#000000;stroke-width:1.0;" x1="193.5" x2="193.5" y1="149.7344" y2="166.7031"/><polygon fill="#000000" points="196.5,155.7344,202.5,155.7344,199.5,161.7031" style="stroke:#000000;stroke-width:1.0;"/><line style="stroke:#000000;stroke-width:1.0;" x1="44.5" x2="206.5" y1="25.9531" y2="25.9531"/><line style="stroke:#000000;stroke-width:1.0;" x1="44.5" x2="206.5" y1="168.7031" y2="168.7031"/><line style="stroke:#000000;stroke-width:1.0;" x1="44.5" x2="44.5" y1="25.9531" y2="41.9219"/><line style="stroke:#000000;stroke-width:1.0;" x1="206.5" x2="206.5" y1="25.9531" y2="41.9219"/><line style="stroke:#000000;stroke-width:1.0;" x1="44.5" x2="44.5" y1="148.7344" y2="168.7031"/><line style="stroke:#000000;stroke-width:1.0;" x1="206.5" x2="206.5" y1="148.7344" y2="168.7031"/><line style="stroke:#000000;stroke-width:1.0;" x1="44.5" x2="44.5" y1="114.7969" y2="130.7656"/><line style="stroke:#000000;stroke-width:1.0;" x1="206.5" x2="206.5" y1="114.7969" y2="130.7656"/><line style="stroke:#000000;stroke-width:1.0;" x1="44.5" x2="44.5" y1="82.8594" y2="98.8281"/><line style="stroke:#000000;stroke-width:1.0;" x1="206.5" x2="206.5" y1="82.8594" y2="98.8281"/><line style="stroke:#000000;stroke-width:1.0;" x1="44.5" x2="44.5" y1="41.9219" y2="66.8906"/><line style="stroke:#000000;stroke-width:1.0;" x1="206.5" x2="206.5" y1="41.9219" y2="66.8906"/><line style="stroke:#000000;stroke-width:1.0;" x1="44.5" x2="44.5" y1="130.7656" y2="148.7344"/><line style="stroke:#000000;stroke-width:1.0;" x1="206.5" x2="206.5" y1="130.7656" y2="148.7344"/><line style="stroke:#000000;stroke-width:1.0;" x1="44.5" x2="44.5" y1="98.8281" y2="114.7969"/><line style="stroke:#000000;stroke-width:1.0;" x1="206.5" x2="206.5" y1="98.8281" y2="114.7969"/><line style="stroke:#000000;stroke-width:1.0;" x1="44.5" x2="44.5" y1="66.8906" y2="82.8594"/><line style="stroke:#000000;stroke-width:1.0;" x1="206.5" x2="206.5" y1="66.8906" y2="82.8594"/></g></svg>