<?xml version="1.0" encoding="us-ascii" standalone="no"?><svg xmlns="http://www.w3.org/2000/svg" xmlns:xlink="http://www.w3.org/1999/xlink" contentStyleType="text/css" height="154px" preserveAspectRatio="none" style="width:180px;height:154px;background:#777777;" version="1.1" viewBox="0 0 180 154" width="180px" zoomAndPan="magnify"><defs/><g><rect fill="#777777" height="154" style="stroke:none;stroke-width:1.0;" width="180" x="0" y="0"/><text fill="#000000" font-family="sans-serif" font-size="12" lengthAdjust="spacing" textLength="85" x="6" y="17.1387">Just plain text</text><rect fill="#EEEEEE" height="17.9688" rx="5" ry="5" style="stroke:#000000;stroke-width:2.5;" width="140" x="8.5" y="24.4688"/><text fill="#000000" font-family="sans-serif" font-size="12" lengthAdjust="spacing" textLength="106" x="25.5" y="37.6074">This is my button</text><text fill="#000000" font-family="sans-serif" font-size="12" lengthAdjust="spacing" textLength="106" x="26" y="58.0762">Unchecked radio</text><ellipse cx="13" cy="53.9219" fill="none" rx="5" ry="5" style="stroke:#000000;stroke-width:1.5;"/><text fill="#000000" font-family="sans-serif" font-size="12" lengthAdjust="spacing" textLength="90" x="26" y="74.0449">Checked radio</text><ellipse cx="13" cy="69.8906" fill="none" rx="5" ry="5" style="stroke:#000000;stroke-width:1.5;"/><ellipse cx="13" cy="69.8906" fill="#000000" rx="2" ry="2" style="stroke:#000000;stroke-width:1.5;"/><text fill="#000000" font-family="sans-serif" font-size="12" lengthAdjust="spacing" textLength="96" x="26" y="90.0137">Unchecked box</text><rect fill="none" height="10" style="stroke:#000000;stroke-width:1.5;" width="10" x="8" y="80.8594"/><text fill="#000000" font-family="sans-serif" font-size="12" lengthAdjust="spacing" textLength="80" x="26" y="105.9824">Checked box</text><rect fill="none" height="10" style="stroke:#000000;stroke-width:1.5;" width="10" x="8" y="96.8281"/><polygon fill="#000000" points="9,100.8438,12,103.8438,19,94.8438,12,101.8438" style="stroke:#000000;stroke-width:1.5;"/><text fill="#000000" font-family="sans-serif" font-size="12" lengthAdjust="spacing" textLength="95" x="9" y="121.9512">Enter text here</text><line style="stroke:#000000;stroke-width:1.0;" x1="7" x2="154" y1="124.7813" y2="124.7813"/><line style="stroke:#000000;stroke-width:1.0;" x1="7" x2="7" y1="121.7813" y2="123.7813"/><line style="stroke:#000000;stroke-width:1.0;" x1="154" x2="154" y1="121.7813" y2="123.7813"/><rect fill="#EEEEEE" height="16.9688" style="stroke:#000000;stroke-width:1.0;" width="159" x="6" y="128.7813"/><text fill="#000000" font-family="sans-serif" font-size="12" lengthAdjust="spacing" textLength="102" x="8" y="141.9199">This is a droplist</text><line style="stroke:#000000;stroke-width:1.0;" x1="154" x2="154" y1="128.7813" y2="145.75"/><polygon fill="#000000" points="157,134.7813,163,134.7813,160,140.75" style="stroke:#000000;stroke-width:1.0;"/><line style="stroke:#000000;stroke-width:1.0;" x1="5" x2="167" y1="5" y2="5"/><line style="stroke:#000000;stroke-width:1.0;" x1="5" x2="167" y1="147.75" y2="147.75"/><line style="stroke:#000000;stroke-width:1.0;" x1="5" x2="5" y1="5" y2="20.9688"/><line style="stroke:#000000;stroke-width:1.0;" x1="167" x2="167" y1="5" y2="20.9688"/><line style="stroke:#000000;stroke-width:1.0;" x1="5" x2="5" y1="127.7813" y2="147.75"/><line style="stroke:#000000;stroke-width:1.0;" x1="167" x2="167" y1="127.7813" y2="147.75"/><line style="stroke:#000000;stroke-width:1.0;" x1="5" x2="5" y1="93.8438" y2="109.8125"/><line style="stroke:#000000;stroke-width:1.0;" x1="167" x2="167" y1="93.8438" y2="109.8125"/><line style="stroke:#000000;stroke-width:1.0;" x1="5" x2="5" y1="61.9063" y2="77.875"/><line style="stroke:#000000;stroke-width:1.0;" x1="167" x2="167" y1="61.9063" y2="77.875"/><line style="stroke:#000000;stroke-width:1.0;" x1="5" x2="5" y1="20.9688" y2="45.9375"/><line style="stroke:#000000;stroke-width:1.0;" x1="167" x2="167" y1="20.9688" y2="45.9375"/><line style="stroke:#000000;stroke-width:1.0;" x1="5" x2="5" y1="109.8125" y2="127.7813"/><line style="stroke:#000000;stroke-width:1.0;" x1="167" x2="167" y1="109.8125" y2="127.7813"/><line style="stroke:#000000;stroke-width:1.0;" x1="5" x2="5" y1="77.875" y2="93.8438"/><line style="stroke:#000000;stroke-width:1.0;" x1="167" x2="167" y1="77.875" y2="93.8438"/><line style="stroke:#000000;stroke-width:1.0;" x1="5" x2="5" y1="45.9375" y2="61.9063"/><line style="stroke:#000000;stroke-width:1.0;" x1="167" x2="167" y1="45.9375" y2="61.9063"/></g></svg>