<?xml version="1.0" encoding="UTF-8" standalone="no"?><svg xmlns="http://www.w3.org/2000/svg" xmlns:xlink="http://www.w3.org/1999/xlink" contentScriptType="application/ecmascript" contentStyleType="text/css" height="201px" preserveAspectRatio="none" style="width:238px;height:201px;background:#282828;" version="1.1" viewBox="0 0 238 201" width="238px" zoomAndPan="magnify"><defs/><g><rect fill="#282828" height="35.6094" style="stroke:#282828;stroke-width:0.0;" width="215" x="10" y="10"/><text fill="#33FF33" font-family="Verdana" font-size="22" font-weight="bold" lengthAdjust="spacing" textLength="205" x="15" y="35.4209">crt-green theme</text><text fill="#000000" font-family="sans-serif" font-size="12" lengthAdjust="spacing" textLength="85" x="38" y="63.748">Just plain text</text><rect fill="#EEEEEE" height="17.9688" rx="5" ry="5" style="stroke:#000000;stroke-width:2.5;" width="140" x="40.5" y="71.0781"/><text fill="#000000" font-family="sans-serif" font-size="12" lengthAdjust="spacing" textLength="106" x="57.5" y="84.2168">This is my button</text><text fill="#000000" font-family="sans-serif" font-size="12" lengthAdjust="spacing" textLength="106" x="58" y="104.6855">Unchecked radio</text><ellipse cx="45" cy="100.5313" rx="5" ry="5" style="stroke:#000000;stroke-width:1.5;fill:none;"/><text fill="#000000" font-family="sans-serif" font-size="12" lengthAdjust="spacing" textLength="90" x="58" y="120.6543">Checked radio</text><ellipse cx="45" cy="116.5" rx="5" ry="5" style="stroke:#000000;stroke-width:1.5;fill:none;"/><ellipse cx="45" cy="116.5" fill="#000000" rx="2" ry="2" style="stroke:#000000;stroke-width:1.5;"/><text fill="#000000" font-family="sans-serif" font-size="12" lengthAdjust="spacing" textLength="96" x="58" y="136.623">Unchecked box</text><rect fill="none" height="10" style="stroke:#000000;stroke-width:1.5;" width="10" x="40" y="127.4688"/><text fill="#000000" font-family="sans-serif" font-size="12" lengthAdjust="spacing" textLength="80" x="58" y="152.5918">Checked box</text><rect fill="none" height="10" style="stroke:#000000;stroke-width:1.5;" width="10" x="40" y="143.4375"/><polygon fill="#000000" points="41,147.4531,44,150.4531,51,141.4531,44,148.4531" style="stroke:#000000;stroke-width:1.5;"/><text fill="#000000" font-family="sans-serif" font-size="12" lengthAdjust="spacing" textLength="95" x="41" y="168.5605">Enter text here</text><line style="stroke:#000000;stroke-width:1.0;" x1="39" x2="186" y1="171.3906" y2="171.3906"/><line style="stroke:#000000;stroke-width:1.0;" x1="39" x2="39" y1="168.3906" y2="170.3906"/><line style="stroke:#000000;stroke-width:1.0;" x1="186" x2="186" y1="168.3906" y2="170.3906"/><rect fill="#EEEEEE" height="16.9688" style="stroke:#000000;stroke-width:1.0;" width="159" x="38" y="175.3906"/><text fill="#000000" font-family="sans-serif" font-size="12" lengthAdjust="spacing" textLength="102" x="40" y="188.5293">This is a droplist</text><line style="stroke:#000000;stroke-width:1.0;" x1="186" x2="186" y1="175.3906" y2="192.3594"/><polygon fill="#000000" points="189,181.3906,195,181.3906,192,187.3594" style="stroke:#000000;stroke-width:1.0;"/><line style="stroke:#000000;stroke-width:1.0;" x1="37" x2="199" y1="51.6094" y2="51.6094"/><line style="stroke:#000000;stroke-width:1.0;" x1="37" x2="199" y1="194.3594" y2="194.3594"/><line style="stroke:#000000;stroke-width:1.0;" x1="37" x2="37" y1="51.6094" y2="67.5781"/><line style="stroke:#000000;stroke-width:1.0;" x1="199" x2="199" y1="51.6094" y2="67.5781"/><line style="stroke:#000000;stroke-width:1.0;" x1="37" x2="37" y1="174.3906" y2="194.3594"/><line style="stroke:#000000;stroke-width:1.0;" x1="199" x2="199" y1="174.3906" y2="194.3594"/><line style="stroke:#000000;stroke-width:1.0;" x1="37" x2="37" y1="140.4531" y2="156.4219"/><line style="stroke:#000000;stroke-width:1.0;" x1="199" x2="199" y1="140.4531" y2="156.4219"/><line style="stroke:#000000;stroke-width:1.0;" x1="37" x2="37" y1="108.5156" y2="124.4844"/><line style="stroke:#000000;stroke-width:1.0;" x1="199" x2="199" y1="108.5156" y2="124.4844"/><line style="stroke:#000000;stroke-width:1.0;" x1="37" x2="37" y1="67.5781" y2="92.5469"/><line style="stroke:#000000;stroke-width:1.0;" x1="199" x2="199" y1="67.5781" y2="92.5469"/><line style="stroke:#000000;stroke-width:1.0;" x1="37" x2="37" y1="156.4219" y2="174.3906"/><line style="stroke:#000000;stroke-width:1.0;" x1="199" x2="199" y1="156.4219" y2="174.3906"/><line style="stroke:#000000;stroke-width:1.0;" x1="37" x2="37" y1="124.4844" y2="140.4531"/><line style="stroke:#000000;stroke-width:1.0;" x1="199" x2="199" y1="124.4844" y2="140.4531"/><line style="stroke:#000000;stroke-width:1.0;" x1="37" x2="37" y1="92.5469" y2="108.5156"/><line style="stroke:#000000;stroke-width:1.0;" x1="199" x2="199" y1="92.5469" y2="108.5156"/></g></svg>