<?xml version="1.0" encoding="UTF-8" standalone="no"?><svg xmlns="http://www.w3.org/2000/svg" xmlns:xlink="http://www.w3.org/1999/xlink" contentScriptType="application/ecmascript" contentStyleType="text/css" height="205px" preserveAspectRatio="none" style="width:196px;height:205px;background:#FFFFFF;" version="1.1" viewBox="0 0 196 205" width="196px" zoomAndPan="magnify"><defs><filter height="300%" id="f18cgpvcj5j69h" width="300%" x="-1" y="-1"><feGaussianBlur result="blurOut" stdDeviation="2.0"/><feColorMatrix in="blurOut" result="blurOut2" type="matrix" values="0 0 0 0 0 0 0 0 0 0 0 0 0 0 0 0 0 0 .4 0"/><feOffset dx="4.0" dy="4.0" in="blurOut2" result="blurOut3"/><feBlend in="SourceGraphic" in2="blurOut3" mode="normal"/></filter></defs><g><rect fill="#FFFFFF" filter="url(#f18cgpvcj5j69h)" height="56.2656" style="stroke:#000000;stroke-width:2.0;" width="157" x="14" y="81.4297"/><line style="stroke:#A80036;stroke-width:1.0;stroke-dasharray:5.0,5.0;" x1="30" x2="30" y1="40.2969" y2="161.6953"/><line style="stroke:#A80036;stroke-width:1.0;stroke-dasharray:5.0,5.0;" x1="88" x2="88" y1="40.2969" y2="161.6953"/><line style="stroke:#A80036;stroke-width:1.0;stroke-dasharray:5.0,5.0;" x1="153.5" x2="153.5" y1="40.2969" y2="161.6953"/><rect fill="#FEFECE" filter="url(#f18cgpvcj5j69h)" height="30.2969" style="stroke:#A80036;stroke-width:1.5;" width="46" x="5" y="5"/><text fill="#000000" font-family="sans-serif" font-size="14" lengthAdjust="spacing" textLength="32" x="12" y="24.9951">Alice</text><rect fill="#FEFECE" filter="url(#f18cgpvcj5j69h)" height="30.2969" style="stroke:#A80036;stroke-width:1.5;" width="42" x="65" y="5"/><text fill="#000000" font-family="sans-serif" font-size="14" lengthAdjust="spacing" textLength="28" x="72" y="24.9951">Bob</text><rect fill="#FEFECE" filter="url(#f18cgpvcj5j69h)" height="30.2969" style="stroke:#A80036;stroke-width:1.5;" width="61" x="121" y="5"/><text fill="#000000" font-family="sans-serif" font-size="14" lengthAdjust="spacing" textLength="47" x="128" y="24.9951">Charlie</text><rect fill="#FEFECE" filter="url(#f18cgpvcj5j69h)" height="30.2969" style="stroke:#A80036;stroke-width:1.5;" width="46" x="5" y="161.6953"/><text fill="#000000" font-family="sans-serif" font-size="14" lengthAdjust="spacing" textLength="32" x="12" y="181.6904">Alice</text><rect fill="#FEFECE" filter="url(#f18cgpvcj5j69h)" height="30.2969" style="stroke:#A80036;stroke-width:1.5;" width="42" x="65" y="161.6953"/><text fill="#000000" font-family="sans-serif" font-size="14" lengthAdjust="spacing" textLength="28" x="72" y="181.6904">Bob</text><rect fill="#FEFECE" filter="url(#f18cgpvcj5j69h)" height="30.2969" style="stroke:#A80036;stroke-width:1.5;" width="61" x="121" y="161.6953"/><text fill="#000000" font-family="sans-serif" font-size="14" lengthAdjust="spacing" textLength="47" x="128" y="181.6904">Charlie</text><polygon fill="#A80036" points="76,65.4297,86,69.4297,76,73.4297,80,69.4297" style="stroke:#A80036;stroke-width:1.0;"/><line style="stroke:#A80036;stroke-width:1.0;" x1="30" x2="82" y1="69.4297" y2="69.4297"/><text fill="#000000" font-family="sans-serif" font-size="13" lengthAdjust="spacing" textLength="30" x="37" y="64.3638">hello</text><polygon fill="#A80036" points="141.5,65.4297,151.5,69.4297,141.5,73.4297,145.5,69.4297" style="stroke:#A80036;stroke-width:1.0;"/><line style="stroke:#A80036;stroke-width:1.0;" x1="88" x2="147.5" y1="69.4297" y2="69.4297"/><text fill="#000000" font-family="sans-serif" font-size="13" lengthAdjust="spacing" textLength="11" x="95" y="64.3638">hi</text><path d="M14,81.4297 L155,81.4297 L155,88.4297 L145,98.4297 L14,98.4297 L14,81.4297 " fill="#EEEEEE" style="stroke:#000000;stroke-width:1.0;"/><rect fill="none" height="56.2656" style="stroke:#000000;stroke-width:2.0;" width="157" x="14" y="81.4297"/><text fill="#000000" font-family="sans-serif" font-size="13" font-weight="bold" lengthAdjust="spacing" textLength="96" x="29" y="94.4966">A teoz group</text><polygon fill="#A80036" points="76,125.6953,86,129.6953,76,133.6953,80,129.6953" style="stroke:#A80036;stroke-width:1.0;"/><line style="stroke:#A80036;stroke-width:1.0;" x1="30" x2="82" y1="129.6953" y2="129.6953"/><text fill="#000000" font-family="sans-serif" font-size="13" lengthAdjust="spacing" textLength="30" x="37" y="124.6294">hello</text><polygon fill="#A80036" points="141.5,125.6953,151.5,129.6953,141.5,133.6953,145.5,129.6953" style="stroke:#A80036;stroke-width:1.0;"/><line style="stroke:#A80036;stroke-width:1.0;" x1="88" x2="147.5" y1="129.6953" y2="129.6953"/><text fill="#000000" font-family="sans-serif" font-size="13" lengthAdjust="spacing" textLength="16" x="95" y="124.6294">ha</text></g></svg>