<?xml version="1.0" encoding="UTF-8" standalone="no"?><svg xmlns="http://www.w3.org/2000/svg" xmlns:xlink="http://www.w3.org/1999/xlink" contentStyleType="text/css" height="193px" preserveAspectRatio="none" style="width:180px;height:193px;background:#F9F9F9;" version="1.1" viewBox="0 0 180 193" width="180px" zoomAndPan="magnify"><defs/><g><rect height="56.2656" rx="3.5" ry="3.5" style="stroke:#393939;stroke-width:1.0;fill:none;" width="157" x="12" y="77.4297"/><line style="stroke:#393939;stroke-width:0.5;fill:none;stroke-dasharray:5.0,5.0;" x1="28" x2="28" y1="36.2969" y2="157.6953"/><line style="stroke:#393939;stroke-width:0.5;fill:none;stroke-dasharray:5.0,5.0;" x1="82" x2="82" y1="36.2969" y2="157.6953"/><line style="stroke:#393939;stroke-width:0.5;fill:none;stroke-dasharray:5.0,5.0;" x1="143.5" x2="143.5" y1="36.2969" y2="157.6953"/><rect fill="#E55756" height="30.2969" rx="3.5" ry="3.5" style="stroke:#191919;stroke-width:1.5;" width="46" x="5" y="5"/><text fill="#F9F9F9" font-family="sans-serif" font-size="14" lengthAdjust="spacing" textLength="32" x="12" y="24.9951">Alice</text><rect fill="#E55756" height="30.2969" rx="3.5" ry="3.5" style="stroke:#191919;stroke-width:1.5;" width="42" x="61" y="5"/><text fill="#F9F9F9" font-family="sans-serif" font-size="14" lengthAdjust="spacing" textLength="28" x="68" y="24.9951">Bob</text><rect fill="#E55756" height="30.2969" rx="3.5" ry="3.5" style="stroke:#191919;stroke-width:1.5;" width="61" x="113" y="5"/><text fill="#F9F9F9" font-family="sans-serif" font-size="14" lengthAdjust="spacing" textLength="47" x="120" y="24.9951">Charlie</text><rect fill="#E55756" height="30.2969" rx="3.5" ry="3.5" style="stroke:#191919;stroke-width:1.5;" width="46" x="5" y="157.6953"/><text fill="#F9F9F9" font-family="sans-serif" font-size="14" lengthAdjust="spacing" textLength="32" x="12" y="177.6904">Alice</text><rect fill="#E55756" height="30.2969" rx="3.5" ry="3.5" style="stroke:#191919;stroke-width:1.5;" width="42" x="61" y="157.6953"/><text fill="#F9F9F9" font-family="sans-serif" font-size="14" lengthAdjust="spacing" textLength="28" x="68" y="177.6904">Bob</text><rect fill="#E55756" height="30.2969" rx="3.5" ry="3.5" style="stroke:#191919;stroke-width:1.5;" width="61" x="113" y="157.6953"/><text fill="#F9F9F9" font-family="sans-serif" font-size="14" lengthAdjust="spacing" textLength="47" x="120" y="177.6904">Charlie</text><polygon fill="#191919" points="70,61.4297,80,65.4297,70,69.4297,74,65.4297" style="stroke:#191919;stroke-width:1.0;"/><line style="stroke:#191919;stroke-width:1.0;" x1="28" x2="76" y1="65.4297" y2="65.4297"/><text fill="#000000" font-family="sans-serif" font-size="13" lengthAdjust="spacing" textLength="30" x="35" y="60.3638">hello</text><polygon fill="#191919" points="131.5,61.4297,141.5,65.4297,131.5,69.4297,135.5,65.4297" style="stroke:#191919;stroke-width:1.0;"/><line style="stroke:#191919;stroke-width:1.0;" x1="82" x2="137.5" y1="65.4297" y2="65.4297"/><text fill="#000000" font-family="sans-serif" font-size="13" lengthAdjust="spacing" textLength="11" x="89" y="60.3638">hi</text><path d="M15.5,77.4297 L153,77.4297 L153,84.5625 L143,94.5625 L12,94.5625 L12,80.9297 A3.5,3.5 0 0 1 15.5,77.4297 " fill="#EEEEEE" style="stroke:#393939;stroke-width:1.5;"/><rect fill="none" height="56.2656" rx="3.5" ry="3.5" style="stroke:#393939;stroke-width:1.0;" width="157" x="12" y="77.4297"/><text fill="#191919" font-family="sans-serif" font-size="13" font-weight="bold" lengthAdjust="spacing" textLength="96" x="27" y="90.4966">A teoz group</text><polygon fill="#191919" points="70,121.6953,80,125.6953,70,129.6953,74,125.6953" style="stroke:#191919;stroke-width:1.0;"/><line style="stroke:#191919;stroke-width:1.0;" x1="28" x2="76" y1="125.6953" y2="125.6953"/><text fill="#000000" font-family="sans-serif" font-size="13" lengthAdjust="spacing" textLength="30" x="35" y="120.6294">hello</text><polygon fill="#191919" points="131.5,121.6953,141.5,125.6953,131.5,129.6953,135.5,125.6953" style="stroke:#191919;stroke-width:1.0;"/><line style="stroke:#191919;stroke-width:1.0;" x1="82" x2="137.5" y1="125.6953" y2="125.6953"/><text fill="#000000" font-family="sans-serif" font-size="13" lengthAdjust="spacing" textLength="16" x="89" y="120.6294">ha</text></g></svg>