<?xml version="1.0" encoding="UTF-8" standalone="no"?><svg xmlns="http://www.w3.org/2000/svg" xmlns:xlink="http://www.w3.org/1999/xlink" contentScriptType="application/ecmascript" contentStyleType="text/css" height="563.5417px" preserveAspectRatio="none" style="width:914px;height:563px;background:#00000000;" version="1.1" viewBox="0 0 914 563" width="914.5833px" zoomAndPan="magnify"><defs><linearGradient id="gahskntjaz4t50" x1="50%" x2="50%" y1="0%" y2="100%"><stop offset="0%" stop-color="#E5E4E2"/><stop offset="100%" stop-color="#B7B6B5"/></linearGradient></defs><g><line style="stroke:#9A9A9A;stroke-width:3.125;stroke-dasharray:5.0,5.0;" x1="100" x2="100" y1="107.6009" y2="457.5277"/><line style="stroke:#9A9A9A;stroke-width:3.125;stroke-dasharray:5.0,5.0;" x1="225" x2="225" y1="107.6009" y2="457.5277"/><line style="stroke:#9A9A9A;stroke-width:3.125;stroke-dasharray:5.0,5.0;" x1="311.4583" x2="311.4583" y1="107.6009" y2="457.5277"/><line style="stroke:#9A9A9A;stroke-width:3.125;stroke-dasharray:5.0,5.0;" x1="405.2083" x2="405.2083" y1="107.6009" y2="457.5277"/><line style="stroke:#9A9A9A;stroke-width:3.125;stroke-dasharray:5.0,5.0;" x1="484.375" x2="484.375" y1="107.6009" y2="457.5277"/><line style="stroke:#9A9A9A;stroke-width:3.125;stroke-dasharray:5.0,5.0;" x1="571.875" x2="571.875" y1="107.6009" y2="457.5277"/><line style="stroke:#9A9A9A;stroke-width:3.125;stroke-dasharray:5.0,5.0;" x1="716.6667" x2="716.6667" y1="107.6009" y2="457.5277"/><line style="stroke:#9A9A9A;stroke-width:3.125;stroke-dasharray:5.0,5.0;" x1="858.3333" x2="858.3333" y1="107.6009" y2="457.5277"/><rect fill="url(#gahskntjaz4t50)" height="48.2259" rx="7.8125" ry="7.8125" style="stroke:#B7B6B5;stroke-width:1.0416666666666667;" width="106.25" x="46.875" y="58.3333"/><text fill="#4682B4" font-family="&quot;Verdana&quot;" font-size="14.5833" lengthAdjust="spacing" textLength="75" x="62.5" y="87.4949">Participant</text><rect fill="url(#gahskntjaz4t50)" height="48.2259" rx="7.8125" ry="7.8125" style="stroke:#B7B6B5;stroke-width:1.0416666666666667;" width="106.25" x="46.875" y="456.486"/><text fill="#4682B4" font-family="&quot;Verdana&quot;" font-size="14.5833" lengthAdjust="spacing" textLength="75" x="62.5" y="485.6476">Participant</text><text fill="#4D4D4D" font-family="&quot;Verdana&quot;" font-size="14.5833" lengthAdjust="spacing" textLength="37.5" x="203.125" y="95.8282">Actor</text><ellipse cx="225" cy="19.7917" fill="url(#gahskntjaz4t50)" rx="8.3333" ry="8.3333" style="stroke:#B7B6B5;stroke-width:1.0416666666666667;"/><path d="M225,28.125 L225,56.25 M211.4583,36.4583 L238.5417,36.4583 M225,56.25 L211.4583,71.875 M225,56.25 L238.5417,71.875 " fill="none" style="stroke:#B7B6B5;stroke-width:1.0416666666666667;"/><text fill="#4D4D4D" font-family="&quot;Verdana&quot;" font-size="14.5833" lengthAdjust="spacing" textLength="37.5" x="203.125" y="478.3559">Actor</text><ellipse cx="225" cy="499.5036" fill="url(#gahskntjaz4t50)" rx="8.3333" ry="8.3333" style="stroke:#B7B6B5;stroke-width:1.0416666666666667;"/><path d="M225,507.8369 L225,535.9619 M211.4583,516.1702 L238.5417,516.1702 M225,535.9619 L211.4583,551.5869 M225,535.9619 L238.5417,551.5869 " fill="none" style="stroke:#B7B6B5;stroke-width:1.0416666666666667;"/><text fill="#4D4D4D" font-family="&quot;Verdana&quot;" font-size="14.5833" lengthAdjust="spacing" textLength="68.75" x="273.9583" y="95.8282">Boundary</text><path d="M290.1042,44.7917 L290.1042,69.7917 M290.1042,57.2917 L307.8125,57.2917 " fill="none" style="stroke:#B7B6B5;stroke-width:1.0416666666666667;"/><ellipse cx="320.3125" cy="57.2917" fill="url(#gahskntjaz4t50)" rx="12.5" ry="12.5" style="stroke:#B7B6B5;stroke-width:1.0416666666666667;"/><text fill="#4D4D4D" font-family="&quot;Verdana&quot;" font-size="14.5833" lengthAdjust="spacing" textLength="68.75" x="273.9583" y="478.3559">Boundary</text><path d="M290.1042,494.2952 L290.1042,519.2952 M290.1042,506.7952 L307.8125,506.7952 " fill="none" style="stroke:#B7B6B5;stroke-width:1.0416666666666667;"/><ellipse cx="320.3125" cy="506.7952" fill="url(#gahskntjaz4t50)" rx="12.5" ry="12.5" style="stroke:#B7B6B5;stroke-width:1.0416666666666667;"/><text fill="#4D4D4D" font-family="&quot;Verdana&quot;" font-size="14.5833" lengthAdjust="spacing" textLength="52.0833" x="376.0417" y="95.8282">Control</text><ellipse cx="405.2083" cy="57.2917" fill="url(#gahskntjaz4t50)" rx="12.5" ry="12.5" style="stroke:#B7B6B5;stroke-width:1.0416666666666667;"/><polygon fill="#B7B6B5" points="401.0417,44.7917,407.2917,39.5833,405.2083,44.7917,407.2917,50,401.0417,44.7917" style="stroke:#B7B6B5;stroke-width:1.0416666666666667;"/><text fill="#4D4D4D" font-family="&quot;Verdana&quot;" font-size="14.5833" lengthAdjust="spacing" textLength="52.0833" x="376.0417" y="478.3559">Control</text><ellipse cx="405.2083" cy="506.7952" fill="url(#gahskntjaz4t50)" rx="12.5" ry="12.5" style="stroke:#B7B6B5;stroke-width:1.0416666666666667;"/><polygon fill="#B7B6B5" points="401.0417,494.2952,407.2917,489.0869,405.2083,494.2952,407.2917,499.5036,401.0417,494.2952" style="stroke:#B7B6B5;stroke-width:1.0416666666666667;"/><text fill="#4D4D4D" font-family="&quot;Verdana&quot;" font-size="14.5833" lengthAdjust="spacing" textLength="39.5833" x="461.4583" y="95.8282">Entity</text><ellipse cx="484.375" cy="57.2917" fill="url(#gahskntjaz4t50)" rx="12.5" ry="12.5" style="stroke:#B7B6B5;stroke-width:1.0416666666666667;"/><line style="stroke:#B7B6B5;stroke-width:1.0416666666666667;" x1="471.875" x2="496.875" y1="71.875" y2="71.875"/><text fill="#4D4D4D" font-family="&quot;Verdana&quot;" font-size="14.5833" lengthAdjust="spacing" textLength="39.5833" x="461.4583" y="478.3559">Entity</text><ellipse cx="484.375" cy="506.7952" fill="url(#gahskntjaz4t50)" rx="12.5" ry="12.5" style="stroke:#B7B6B5;stroke-width:1.0416666666666667;"/><line style="stroke:#B7B6B5;stroke-width:1.0416666666666667;" x1="471.875" x2="496.875" y1="521.3786" y2="521.3786"/><text fill="#4D4D4D" font-family="&quot;Verdana&quot;" font-size="14.5833" lengthAdjust="spacing" textLength="68.75" x="534.375" y="95.8282">Database</text><path d="M553.125,36.4583 C553.125,26.0417 571.875,26.0417 571.875,26.0417 C571.875,26.0417 590.625,26.0417 590.625,36.4583 L590.625,63.5417 C590.625,73.9583 571.875,73.9583 571.875,73.9583 C571.875,73.9583 553.125,73.9583 553.125,63.5417 L553.125,36.4583 " fill="url(#gahskntjaz4t50)" style="stroke:#B7B6B5;stroke-width:1.5625;"/><path d="M553.125,36.4583 C553.125,46.875 571.875,46.875 571.875,46.875 C571.875,46.875 590.625,46.875 590.625,36.4583 " fill="none" style="stroke:#B7B6B5;stroke-width:1.5625;"/><text fill="#4D4D4D" font-family="&quot;Verdana&quot;" font-size="14.5833" lengthAdjust="spacing" textLength="68.75" x="534.375" y="478.3559">Database</text><path d="M553.125,500.5452 C553.125,490.1286 571.875,490.1286 571.875,490.1286 C571.875,490.1286 590.625,490.1286 590.625,500.5452 L590.625,527.6286 C590.625,538.0452 571.875,538.0452 571.875,538.0452 C571.875,538.0452 553.125,538.0452 553.125,527.6286 L553.125,500.5452 " fill="url(#gahskntjaz4t50)" style="stroke:#B7B6B5;stroke-width:1.5625;"/><path d="M553.125,500.5452 C553.125,510.9619 571.875,510.9619 571.875,510.9619 C571.875,510.9619 590.625,510.9619 590.625,500.5452 " fill="none" style="stroke:#B7B6B5;stroke-width:1.5625;"/><rect fill="url(#gahskntjaz4t50)" height="48.2259" rx="7.8125" ry="7.8125" style="stroke:#B7B6B5;stroke-width:1.0416666666666667;" width="110.4167" x="663.5417" y="54.1667"/><rect fill="url(#gahskntjaz4t50)" height="48.2259" rx="7.8125" ry="7.8125" style="stroke:#B7B6B5;stroke-width:1.0416666666666667;" width="110.4167" x="659.375" y="58.3333"/><text fill="#4682B4" font-family="&quot;Verdana&quot;" font-size="14.5833" lengthAdjust="spacing" textLength="79.1667" x="675" y="87.4949">Collections</text><rect fill="url(#gahskntjaz4t50)" height="48.2259" rx="7.8125" ry="7.8125" style="stroke:#B7B6B5;stroke-width:1.0416666666666667;" width="110.4167" x="663.5417" y="456.486"/><rect fill="url(#gahskntjaz4t50)" height="48.2259" rx="7.8125" ry="7.8125" style="stroke:#B7B6B5;stroke-width:1.0416666666666667;" width="110.4167" x="659.375" y="460.6527"/><text fill="#4682B4" font-family="&quot;Verdana&quot;" font-size="14.5833" lengthAdjust="spacing" textLength="79.1667" x="675" y="489.8142">Collections</text><path d="M820.8333,63.5417 L896.875,63.5417 C902.0833,63.5417 902.0833,85.5713 902.0833,85.5713 C902.0833,85.5713 902.0833,107.6009 896.875,107.6009 L820.8333,107.6009 C815.625,107.6009 815.625,85.5713 815.625,85.5713 C815.625,85.5713 815.625,63.5417 820.8333,63.5417 " fill="url(#gahskntjaz4t50)" style="stroke:#B7B6B5;stroke-width:1.0416666666666667;"/><path d="M896.875,63.5417 C891.6667,63.5417 891.6667,85.5713 891.6667,85.5713 C891.6667,107.6009 896.875,107.6009 896.875,107.6009 " fill="none" style="stroke:#B7B6B5;stroke-width:1.0416666666666667;"/><text fill="#4682B4" font-family="&quot;Verdana&quot;" font-size="14.5833" lengthAdjust="spacing" textLength="48.9583" x="829.1667" y="90.6199">Queue</text><path d="M820.8333,456.486 L896.875,456.486 C902.0833,456.486 902.0833,478.5156 902.0833,478.5156 C902.0833,478.5156 902.0833,500.5452 896.875,500.5452 L820.8333,500.5452 C815.625,500.5452 815.625,478.5156 815.625,478.5156 C815.625,478.5156 815.625,456.486 820.8333,456.486 " fill="url(#gahskntjaz4t50)" style="stroke:#B7B6B5;stroke-width:1.0416666666666667;"/><path d="M896.875,456.486 C891.6667,456.486 891.6667,478.5156 891.6667,478.5156 C891.6667,500.5452 896.875,500.5452 896.875,500.5452 " fill="none" style="stroke:#B7B6B5;stroke-width:1.0416666666666667;"/><text fill="#4682B4" font-family="&quot;Verdana&quot;" font-size="14.5833" lengthAdjust="spacing" textLength="48.9583" x="829.1667" y="483.5642">Queue</text><polygon fill="#E5E4E2" points="212.5,152.5309,222.9167,156.6976,212.5,160.8643,216.6667,156.6976" style="stroke:#E5E4E2;stroke-width:1.0416666666666667;"/><line style="stroke:#E5E4E2;stroke-width:3.125;" x1="100" x2="218.75" y1="156.6976" y2="156.6976"/><text fill="#4D4D4D" font-family="&quot;Verdana&quot;" font-size="13.5417" lengthAdjust="spacing" textLength="54.1667" x="115.625" y="143.0873">To actor</text><polygon fill="#E5E4E2" points="298.9583,199.5443,309.375,203.7109,298.9583,207.8776,303.125,203.7109" style="stroke:#E5E4E2;stroke-width:1.0416666666666667;"/><line style="stroke:#E5E4E2;stroke-width:3.125;" x1="100" x2="305.2083" y1="203.7109" y2="203.7109"/><text fill="#4D4D4D" font-family="&quot;Verdana&quot;" font-size="13.5417" lengthAdjust="spacing" textLength="82.2917" x="115.625" y="190.1006">To boundary</text><polygon fill="#E5E4E2" points="392.7083,246.5576,403.125,250.7243,392.7083,254.891,396.875,250.7243" style="stroke:#E5E4E2;stroke-width:1.0416666666666667;"/><line style="stroke:#E5E4E2;stroke-width:3.125;" x1="100" x2="398.9583" y1="250.7243" y2="250.7243"/><text fill="#4D4D4D" font-family="&quot;Verdana&quot;" font-size="13.5417" lengthAdjust="spacing" textLength="65.625" x="115.625" y="237.114">To control</text><polygon fill="#E5E4E2" points="471.875,293.571,482.2917,297.7376,471.875,301.9043,476.0417,297.7376" style="stroke:#E5E4E2;stroke-width:1.0416666666666667;"/><line style="stroke:#E5E4E2;stroke-width:3.125;" x1="100" x2="478.125" y1="297.7376" y2="297.7376"/><text fill="#4D4D4D" font-family="&quot;Verdana&quot;" font-size="13.5417" lengthAdjust="spacing" textLength="57.2917" x="115.625" y="284.1273">To entity</text><polygon fill="#E5E4E2" points="559.375,340.5843,569.7917,344.751,559.375,348.9176,563.5417,344.751" style="stroke:#E5E4E2;stroke-width:1.0416666666666667;"/><line style="stroke:#E5E4E2;stroke-width:3.125;" x1="100" x2="565.625" y1="344.751" y2="344.751"/><text fill="#4D4D4D" font-family="&quot;Verdana&quot;" font-size="13.5417" lengthAdjust="spacing" textLength="82.2917" x="115.625" y="331.1406">To database</text><polygon fill="#E5E4E2" points="704.1667,387.5977,714.5833,391.7643,704.1667,395.931,708.3333,391.7643" style="stroke:#E5E4E2;stroke-width:1.0416666666666667;"/><line style="stroke:#E5E4E2;stroke-width:3.125;" x1="100" x2="710.4167" y1="391.7643" y2="391.7643"/><text fill="#4D4D4D" font-family="&quot;Verdana&quot;" font-size="13.5417" lengthAdjust="spacing" textLength="89.5833" x="115.625" y="378.154">To collections</text><polygon fill="#E5E4E2" points="846.3542,434.611,856.7708,438.7777,846.3542,442.9443,850.5208,438.7777" style="stroke:#E5E4E2;stroke-width:1.0416666666666667;"/><line style="stroke:#E5E4E2;stroke-width:3.125;" x1="100" x2="852.6042" y1="438.7777" y2="438.7777"/><text fill="#4D4D4D" font-family="&quot;Verdana&quot;" font-size="13.5417" lengthAdjust="spacing" textLength="61.4583" x="115.625" y="425.1673">To queue</text></g></svg>