<?xml version="1.0" encoding="UTF-8" standalone="no"?><svg xmlns="http://www.w3.org/2000/svg" xmlns:xlink="http://www.w3.org/1999/xlink" contentScriptType="application/ecmascript" contentStyleType="text/css" height="263.5417px" preserveAspectRatio="none" style="width:437px;height:263px;background:#00000000;" version="1.1" viewBox="0 0 437 263" width="437.5px" zoomAndPan="magnify"><defs><linearGradient id="gu6j02cg5j6ti0" x1="50%" x2="50%" y1="0%" y2="100%"><stop offset="0%" stop-color="#D3F198"/><stop offset="100%" stop-color="#B5E853"/></linearGradient></defs><g><rect fill="#151515" height="79.4434" rx="20.8333" ry="20.8333" style="stroke:#B5E853;stroke-width:1.0416666666666667;" width="341.1458" x="64.5833" y="106.6976"/><line style="stroke:#6A9FB5;stroke-width:2.0833333333333335;stroke-dasharray:5.0,5.0;" x1="81.25" x2="81.25" y1="53.4342" y2="211.141"/><line style="stroke:#6A9FB5;stroke-width:2.0833333333333335;stroke-dasharray:5.0,5.0;" x1="231.25" x2="231.25" y1="53.4342" y2="211.141"/><line style="stroke:#6A9FB5;stroke-width:2.0833333333333335;stroke-dasharray:5.0,5.0;" x1="389.0625" x2="389.0625" y1="53.4342" y2="211.141"/><rect fill="url(#gu6j02cg5j6ti0)" height="41.9759" rx="20.8333" ry="20.8333" style="stroke:#D3F198;stroke-width:2.0833333333333335;" width="58.3333" x="52.0833" y="10.4167"/><text fill="#151515" font-family="&quot;Verdana&quot;" font-size="14.5833" lengthAdjust="spacing" textLength="33.3333" x="64.5833" y="36.4532">Alice</text><rect fill="url(#gu6j02cg5j6ti0)" height="41.9759" rx="20.8333" ry="20.8333" style="stroke:#D3F198;stroke-width:2.0833333333333335;" width="54.1667" x="204.1667" y="10.4167"/><text fill="#151515" font-family="&quot;Verdana&quot;" font-size="14.5833" lengthAdjust="spacing" textLength="29.1667" x="216.6667" y="36.4532">Bob</text><rect fill="url(#gu6j02cg5j6ti0)" height="41.9759" rx="20.8333" ry="20.8333" style="stroke:#D3F198;stroke-width:2.0833333333333335;" width="73.9583" x="352.0833" y="10.4167"/><text fill="#151515" font-family="&quot;Verdana&quot;" font-size="14.5833" lengthAdjust="spacing" textLength="48.9583" x="364.5833" y="36.4532">Charlie</text><rect fill="url(#gu6j02cg5j6ti0)" height="41.9759" rx="20.8333" ry="20.8333" style="stroke:#D3F198;stroke-width:2.0833333333333335;" width="58.3333" x="52.0833" y="211.141"/><text fill="#151515" font-family="&quot;Verdana&quot;" font-size="14.5833" lengthAdjust="spacing" textLength="33.3333" x="64.5833" y="237.1775">Alice</text><rect fill="url(#gu6j02cg5j6ti0)" height="41.9759" rx="20.8333" ry="20.8333" style="stroke:#D3F198;stroke-width:2.0833333333333335;" width="54.1667" x="204.1667" y="211.141"/><text fill="#151515" font-family="&quot;Verdana&quot;" font-size="14.5833" lengthAdjust="spacing" textLength="29.1667" x="216.6667" y="237.1775">Bob</text><rect fill="url(#gu6j02cg5j6ti0)" height="41.9759" rx="20.8333" ry="20.8333" style="stroke:#D3F198;stroke-width:2.0833333333333335;" width="73.9583" x="352.0833" y="211.141"/><text fill="#151515" font-family="&quot;Verdana&quot;" font-size="14.5833" lengthAdjust="spacing" textLength="48.9583" x="364.5833" y="237.1775">Charlie</text><polygon fill="#B5E853" points="218.75,90.0309,229.1667,94.1976,218.75,98.3643,222.9167,94.1976" style="stroke:#B5E853;stroke-width:1.0416666666666667;"/><line style="stroke:#B5E853;stroke-width:3.125;" x1="81.25" x2="225" y1="94.1976" y2="94.1976"/><text fill="#FFFFFF" font-family="&quot;Verdana&quot;" font-size="13.5417" lengthAdjust="spacing" textLength="31.25" x="93.75" y="83.7123">hello</text><polygon fill="#B5E853" points="376.5625,90.0309,386.9792,94.1976,376.5625,98.3643,380.7292,94.1976" style="stroke:#B5E853;stroke-width:1.0416666666666667;"/><line style="stroke:#B5E853;stroke-width:3.125;" x1="231.25" x2="382.8125" y1="94.1976" y2="94.1976"/><text fill="#FFFFFF" font-family="&quot;Verdana&quot;" font-size="13.5417" lengthAdjust="spacing" textLength="11.4583" x="243.75" y="83.7123">hi</text><path d="M85.4167,106.6976 L221.875,106.6976 L221.875,124.4059 L211.4583,134.8226 L64.5833,134.8226 L64.5833,127.5309 A20.8333,20.8333 0 0 1 85.4167,106.6976 " fill="#151515" style="stroke:#EAEAEA;stroke-width:1.0416666666666667;"/><rect fill="none" height="79.4434" rx="20.8333" ry="20.8333" style="stroke:#B5E853;stroke-width:1.0416666666666667;" width="341.1458" x="64.5833" y="106.6976"/><text fill="#AA759F" font-family="&quot;Verdana&quot;" font-size="13.5417" font-weight="bold" lengthAdjust="spacing" textLength="100" x="85.4167" y="125.5173">A teoz group</text><polygon fill="#B5E853" points="218.75,173.641,229.1667,177.8076,218.75,181.9743,222.9167,177.8076" style="stroke:#B5E853;stroke-width:1.0416666666666667;"/><line style="stroke:#B5E853;stroke-width:3.125;" x1="81.25" x2="225" y1="177.8076" y2="177.8076"/><text fill="#FFFFFF" font-family="&quot;Verdana&quot;" font-size="13.5417" lengthAdjust="spacing" textLength="31.25" x="93.75" y="167.3223">hello</text><polygon fill="#B5E853" points="376.5625,173.641,386.9792,177.8076,376.5625,181.9743,380.7292,177.8076" style="stroke:#B5E853;stroke-width:1.0416666666666667;"/><line style="stroke:#B5E853;stroke-width:3.125;" x1="231.25" x2="382.8125" y1="177.8076" y2="177.8076"/><text fill="#FFFFFF" font-family="&quot;Verdana&quot;" font-size="13.5417" lengthAdjust="spacing" textLength="16.6667" x="243.75" y="167.3223">ha</text></g></svg>