<?xml version="1.0" encoding="UTF-8" standalone="no"?><svg xmlns="http://www.w3.org/2000/svg" xmlns:xlink="http://www.w3.org/1999/xlink" contentScriptType="application/ecmascript" contentStyleType="text/css" height="650px" preserveAspectRatio="none" style="width:543px;height:650px;background:#00000000;" version="1.1" viewBox="0 0 543 650" width="543.75px" zoomAndPan="magnify"><defs><linearGradient id="gynvz1uk0yczi0" x1="50%" x2="50%" y1="0%" y2="100%"><stop offset="0%" stop-color="#151515"/><stop offset="100%" stop-color="#000000"/></linearGradient><linearGradient id="gynvz1uk0yczi1" x1="50%" x2="50%" y1="0%" y2="100%"><stop offset="0%" stop-color="#D3F198"/><stop offset="100%" stop-color="#B5E853"/></linearGradient></defs><g><rect fill="url(#gynvz1uk0yczi0)" height="45.0846" rx="4.1667" ry="4.1667" style="stroke:#B5E853;stroke-width:1.0416666666666667;" width="171.875" x="187.2396" y="14.5833"/><text fill="#B5E853" font-family="Verdana" font-size="20.8333" lengthAdjust="spacing" textLength="144.7917" x="200.7813" y="44.338">hacker theme</text><rect fill="#FFFFFF" height="420.4102" rx="20.8333" ry="20.8333" style="stroke:#EAEAEA;stroke-width:2.0833333333333335;" width="526.5625" x="10.4167" y="167.9362"/><path d="M10.4167,243.8802 L536.9792,243.8802 L536.9792,500.9115 A20.8333,20.8333 0 0 1 516.1458,521.7448 L31.25,521.7448 A20.8333,20.8333 0 0 1 10.4167,500.9115 L10.4167,243.8802 " fill="#FFFFFF" style="stroke:none;stroke-width:1.0416666666666667;"/><rect fill="#FFFFFF" height="196.6797" rx="20.8333" ry="20.8333" style="stroke:#EAEAEA;stroke-width:2.0833333333333335;" width="505.7292" x="20.8333" y="317.7734"/><rect fill="#FFFFFF" height="75.944" rx="20.8333" ry="20.8333" style="stroke:#EAEAEA;stroke-width:2.0833333333333335;" width="353.6458" x="31.25" y="391.6667"/><path d="M10.4167,521.7448 L536.9792,521.7448 L536.9792,567.513 A20.8333,20.8333 0 0 1 516.1458,588.3464 L31.25,588.3464 A20.8333,20.8333 0 0 1 10.4167,567.513 L10.4167,521.7448 " fill="#FFFFFF" style="stroke:none;stroke-width:1.0416666666666667;"/><line style="stroke:#6A9FB5;stroke-width:2.0833333333333335;stroke-dasharray:5.0,5.0;" x1="110.4167" x2="110.4167" y1="110.6771" y2="606.0547"/><line style="stroke:#6A9FB5;stroke-width:2.0833333333333335;stroke-dasharray:5.0,5.0;" x1="307.8125" x2="307.8125" y1="110.6771" y2="606.0547"/><line style="stroke:#6A9FB5;stroke-width:2.0833333333333335;stroke-dasharray:5.0,5.0;" x1="450.5208" x2="450.5208" y1="110.6771" y2="606.0547"/><rect fill="url(#gynvz1uk0yczi1)" height="39.5508" rx="20.8333" ry="20.8333" style="stroke:#D3F198;stroke-width:2.0833333333333335;" width="55.2083" x="83.3333" y="70.0846"/><text fill="#151515" font-family="Verdana" font-size="12.5" lengthAdjust="spacing" textLength="30.2083" x="95.8333" y="94.1874">Alice</text><rect fill="url(#gynvz1uk0yczi1)" height="39.5508" rx="20.8333" ry="20.8333" style="stroke:#D3F198;stroke-width:2.0833333333333335;" width="55.2083" x="83.3333" y="605.013"/><text fill="#151515" font-family="Verdana" font-size="12.5" lengthAdjust="spacing" textLength="30.2083" x="95.8333" y="629.1158">Alice</text><rect fill="url(#gynvz1uk0yczi1)" height="39.5508" rx="20.8333" ry="20.8333" style="stroke:#D3F198;stroke-width:2.0833333333333335;" width="50" x="282.8125" y="70.0846"/><text fill="#151515" font-family="Verdana" font-size="12.5" lengthAdjust="spacing" textLength="25" x="295.3125" y="94.1874">Bob</text><rect fill="url(#gynvz1uk0yczi1)" height="39.5508" rx="20.8333" ry="20.8333" style="stroke:#D3F198;stroke-width:2.0833333333333335;" width="50" x="282.8125" y="605.013"/><text fill="#151515" font-family="Verdana" font-size="12.5" lengthAdjust="spacing" textLength="25" x="295.3125" y="629.1158">Bob</text><rect fill="url(#gynvz1uk0yczi1)" height="39.5508" rx="20.8333" ry="20.8333" style="stroke:#D3F198;stroke-width:2.0833333333333335;" width="47.9167" x="426.5625" y="70.0846"/><text fill="#151515" font-family="Verdana" font-size="12.5" lengthAdjust="spacing" textLength="22.9167" x="439.0625" y="94.1874">Log</text><rect fill="url(#gynvz1uk0yczi1)" height="39.5508" rx="20.8333" ry="20.8333" style="stroke:#D3F198;stroke-width:2.0833333333333335;" width="47.9167" x="426.5625" y="605.013"/><text fill="#151515" font-family="Verdana" font-size="12.5" lengthAdjust="spacing" textLength="22.9167" x="439.0625" y="629.1158">Log</text><polygon fill="#B5E853" points="295.3125,148.1445,305.7292,152.3112,295.3125,156.4779,299.4792,152.3112" style="stroke:#B5E853;stroke-width:1.0416666666666667;"/><line style="stroke:#B5E853;stroke-width:3.125;" x1="110.9375" x2="301.5625" y1="152.3112" y2="152.3112"/><text fill="#FFFFFF" font-family="Verdana" font-size="12.5" lengthAdjust="spacing" textLength="154.1667" x="123.4375" y="142.0715">Authentication Request</text><path d="M31.25,167.9362 L87.5,167.9362 L87.5,183.5612 L77.0833,193.9779 L10.4167,193.9779 L10.4167,188.7695 A20.8333,20.8333 0 0 1 31.25,167.9362 " fill="#151515" style="stroke:#EAEAEA;stroke-width:1.0416666666666667;"/><rect fill="none" height="420.4102" rx="20.8333" ry="20.8333" style="stroke:#EAEAEA;stroke-width:2.0833333333333335;" width="526.5625" x="10.4167" y="167.9362"/><text fill="#AA759F" font-family="Verdana" font-size="12.5" font-weight="bold" lengthAdjust="spacing" textLength="19.7917" x="31.25" y="185.789">alt</text><text fill="#EAEAEA" font-family="Verdana" font-size="12.5" font-weight="bold" lengthAdjust="spacing" textLength="126.0417" x="108.3333" y="186.8306">[successful case]</text><polygon fill="#B5E853" points="122.3958,231.3802,111.9792,235.5469,122.3958,239.7135,118.2292,235.5469" style="stroke:#B5E853;stroke-width:1.0416666666666667;"/><line style="stroke:#B5E853;stroke-width:3.125;" x1="116.1458" x2="306.7708" y1="235.5469" y2="235.5469"/><text fill="#FFFFFF" font-family="Verdana" font-size="12.5" lengthAdjust="spacing" textLength="161.4583" x="133.8542" y="225.3072">Authentication Accepted</text><line style="stroke:#EAEAEA;stroke-width:1.0416666666666667;stroke-dasharray:2.0,2.0;" x1="10.4167" x2="536.9792" y1="244.9219" y2="244.9219"/><text fill="#EAEAEA" font-family="Verdana" font-size="12.5" font-weight="bold" lengthAdjust="spacing" textLength="156.25" x="20.8333" y="261.733">[some kind of failure]</text><polygon fill="#B5E853" points="122.3958,297.9818,111.9792,302.1484,122.3958,306.3151,118.2292,302.1484" style="stroke:#B5E853;stroke-width:1.0416666666666667;"/><line style="stroke:#B5E853;stroke-width:3.125;" x1="116.1458" x2="306.7708" y1="302.1484" y2="302.1484"/><text fill="#FFFFFF" font-family="Verdana" font-size="12.5" lengthAdjust="spacing" textLength="143.75" x="133.8542" y="291.9088">Authentication Failure</text><path d="M41.6667,317.7734 L175,317.7734 L175,333.3984 L164.5833,343.8151 L20.8333,343.8151 L20.8333,338.6068 A20.8333,20.8333 0 0 1 41.6667,317.7734 " fill="#151515" style="stroke:#EAEAEA;stroke-width:1.0416666666666667;"/><rect fill="none" height="196.6797" rx="20.8333" ry="20.8333" style="stroke:#EAEAEA;stroke-width:2.0833333333333335;" width="505.7292" x="20.8333" y="317.7734"/><text fill="#AA759F" font-family="Verdana" font-size="12.5" font-weight="bold" lengthAdjust="spacing" textLength="96.875" x="41.6667" y="335.6262">My own label</text><polygon fill="#B5E853" points="438.0208,371.875,448.4375,376.0417,438.0208,380.2083,442.1875,376.0417" style="stroke:#B5E853;stroke-width:1.0416666666666667;"/><line style="stroke:#B5E853;stroke-width:3.125;" x1="110.9375" x2="444.2708" y1="376.0417" y2="376.0417"/><text fill="#FFFFFF" font-family="Verdana" font-size="12.5" lengthAdjust="spacing" textLength="104.1667" x="123.4375" y="365.802">Log attack start</text><path d="M52.0833,391.6667 L120.8333,391.6667 L120.8333,407.2917 L110.4167,417.7083 L31.25,417.7083 L31.25,412.5 A20.8333,20.8333 0 0 1 52.0833,391.6667 " fill="#151515" style="stroke:#EAEAEA;stroke-width:1.0416666666666667;"/><rect fill="none" height="75.944" rx="20.8333" ry="20.8333" style="stroke:#EAEAEA;stroke-width:2.0833333333333335;" width="353.6458" x="31.25" y="391.6667"/><text fill="#AA759F" font-family="Verdana" font-size="12.5" font-weight="bold" lengthAdjust="spacing" textLength="32.2917" x="52.0833" y="409.5194">loop</text><text fill="#EAEAEA" font-family="Verdana" font-size="12.5" font-weight="bold" lengthAdjust="spacing" textLength="88.5417" x="141.6667" y="410.5611">[1000 times]</text><polygon fill="#B5E853" points="295.3125,455.1107,305.7292,459.2773,295.3125,463.444,299.4792,459.2773" style="stroke:#B5E853;stroke-width:1.0416666666666667;"/><line style="stroke:#B5E853;stroke-width:3.125;" x1="110.9375" x2="301.5625" y1="459.2773" y2="459.2773"/><text fill="#FFFFFF" font-family="Verdana" font-size="12.5" lengthAdjust="spacing" textLength="72.9167" x="123.4375" y="449.0377">DNS Attack</text><polygon fill="#B5E853" points="438.0208,501.9531,448.4375,506.1198,438.0208,510.2865,442.1875,506.1198" style="stroke:#B5E853;stroke-width:1.0416666666666667;"/><line style="stroke:#B5E853;stroke-width:3.125;" x1="110.9375" x2="444.2708" y1="506.1198" y2="506.1198"/><text fill="#FFFFFF" font-family="Verdana" font-size="12.5" lengthAdjust="spacing" textLength="97.9167" x="123.4375" y="495.8801">Log attack end</text><line style="stroke:#EAEAEA;stroke-width:1.0416666666666667;stroke-dasharray:2.0,2.0;" x1="10.4167" x2="536.9792" y1="522.7865" y2="522.7865"/><text fill="#EAEAEA" font-family="Verdana" font-size="12.5" font-weight="bold" lengthAdjust="spacing" textLength="178.125" x="20.8333" y="539.5976">[Another type of failure]</text><polygon fill="#B5E853" points="122.3958,575.8464,111.9792,580.013,122.3958,584.1797,118.2292,580.013" style="stroke:#B5E853;stroke-width:1.0416666666666667;"/><line style="stroke:#B5E853;stroke-width:3.125;" x1="116.1458" x2="306.7708" y1="580.013" y2="580.013"/><text fill="#FFFFFF" font-family="Verdana" font-size="12.5" lengthAdjust="spacing" textLength="91.6667" x="133.8542" y="569.7734">Please repeat</text></g></svg>