<svg xmlns="http://www.w3.org/2000/svg" xmlns:xlink="http://www.w3.org/1999/xlink" contentStyleType="text/css" height="553px" preserveAspectRatio="none" style="width:839px;height:553px;" version="1.1" viewBox="0 0 839 553" width="839px" zoomAndPan="magnify"><defs><linearGradient id="gu951q2jv0ohn0" x1="50%" x2="50%" y1="0%" y2="100%"><stop offset="0%" stop-color="#F4F4F4"/><stop offset="100%" stop-color="#F4F4F4"/></linearGradient></defs><g><line style="stroke:#C6C6C6;stroke-width:0.5;stroke-dasharray:5.0,5.0;" x1="84" x2="84" y1="98.9688" y2="454.75"/><line style="stroke:#C6C6C6;stroke-width:0.5;stroke-dasharray:5.0,5.0;" x1="201.7754" x2="201.7754" y1="98.9688" y2="454.75"/><line style="stroke:#C6C6C6;stroke-width:0.5;stroke-dasharray:5.0,5.0;" x1="282.5625" x2="282.5625" y1="98.9688" y2="454.75"/><line style="stroke:#C6C6C6;stroke-width:0.5;stroke-dasharray:5.0,5.0;" x1="369.3535" x2="369.3535" y1="98.9688" y2="454.75"/><line style="stroke:#C6C6C6;stroke-width:0.5;stroke-dasharray:5.0,5.0;" x1="444.9941" x2="444.9941" y1="98.9688" y2="454.75"/><line style="stroke:#C6C6C6;stroke-width:0.5;stroke-dasharray:5.0,5.0;" x1="527.0273" x2="527.0273" y1="98.9688" y2="454.75"/><line style="stroke:#C6C6C6;stroke-width:0.5;stroke-dasharray:5.0,5.0;" x1="660.2852" x2="660.2852" y1="98.9688" y2="454.75"/><line style="stroke:#C6C6C6;stroke-width:0.5;stroke-dasharray:5.0,5.0;" x1="791.8926" x2="791.8926" y1="98.9688" y2="454.75"/><rect fill="url(#gu951q2jv0ohn0)" height="47.9688" style="stroke:#C6C6C6;stroke-width:0.5;" width="98.7754" x="35" y="50"/><text fill="#262626" font-family="sans-serif" font-size="12" lengthAdjust="spacing" textLength="64.7754" x="52" y="78.1387">Participant</text><rect fill="url(#gu951q2jv0ohn0)" height="47.9688" style="stroke:#C6C6C6;stroke-width:0.5;" width="98.7754" x="35" y="453.75"/><text fill="#262626" font-family="sans-serif" font-size="12" lengthAdjust="spacing" textLength="64.7754" x="52" y="481.8887">Participant</text><text fill="#262626" font-family="sans-serif" font-size="12" lengthAdjust="spacing" textLength="31.7871" x="183.7754" y="86.1387">Actor</text><ellipse cx="202.6689" cy="13.5" fill="url(#gu951q2jv0ohn0)" rx="8" ry="8" style="stroke:#C6C6C6;stroke-width:0.5;"/><path d="M202.6689,21.5 L202.6689,48.5 M189.6689,29.5 L215.6689,29.5 M202.6689,48.5 L189.6689,63.5 M202.6689,48.5 L215.6689,63.5 " fill="none" style="stroke:#C6C6C6;stroke-width:0.5;"/><text fill="#262626" font-family="sans-serif" font-size="12" lengthAdjust="spacing" textLength="31.7871" x="183.7754" y="474.8887">Actor</text><ellipse cx="202.6689" cy="496.2188" fill="url(#gu951q2jv0ohn0)" rx="8" ry="8" style="stroke:#C6C6C6;stroke-width:0.5;"/><path d="M202.6689,504.2188 L202.6689,531.2188 M189.6689,512.2188 L215.6689,512.2188 M202.6689,531.2188 L189.6689,546.2188 M202.6689,531.2188 L215.6689,546.2188 " fill="none" style="stroke:#C6C6C6;stroke-width:0.5;"/><text fill="#262626" font-family="sans-serif" font-size="12" lengthAdjust="spacing" textLength="57.791" x="251.5625" y="86.1387">Boundary</text><path d="M262.958,37 L262.958,61 M262.958,49 L279.958,49 " fill="none" style="stroke:#C6C6C6;stroke-width:0.5;"/><ellipse cx="291.958" cy="49" fill="url(#gu951q2jv0ohn0)" rx="12" ry="12" style="stroke:#C6C6C6;stroke-width:0.5;"/><text fill="#262626" font-family="sans-serif" font-size="12" lengthAdjust="spacing" textLength="57.791" x="251.5625" y="474.8887">Boundary</text><path d="M262.958,491.7188 L262.958,515.7188 M262.958,503.7188 L279.958,503.7188 " fill="none" style="stroke:#C6C6C6;stroke-width:0.5;"/><ellipse cx="291.958" cy="503.7188" fill="url(#gu951q2jv0ohn0)" rx="12" ry="12" style="stroke:#C6C6C6;stroke-width:0.5;"/><text fill="#262626" font-family="sans-serif" font-size="12" lengthAdjust="spacing" textLength="43.6406" x="345.3535" y="86.1387">Control</text><ellipse cx="370.1738" cy="49" fill="url(#gu951q2jv0ohn0)" rx="12" ry="12" style="stroke:#C6C6C6;stroke-width:0.5;"/><polygon fill="#C6C6C6" points="366.1738,37,372.1738,32,370.1738,37,372.1738,42,366.1738,37" style="stroke:#C6C6C6;stroke-width:1.0;"/><text fill="#262626" font-family="sans-serif" font-size="12" lengthAdjust="spacing" textLength="43.6406" x="345.3535" y="474.8887">Control</text><ellipse cx="370.1738" cy="503.7188" fill="url(#gu951q2jv0ohn0)" rx="12" ry="12" style="stroke:#C6C6C6;stroke-width:0.5;"/><polygon fill="#C6C6C6" points="366.1738,491.7188,372.1738,486.7188,370.1738,491.7188,372.1738,496.7188,366.1738,491.7188" style="stroke:#C6C6C6;stroke-width:1.0;"/><text fill="#262626" font-family="sans-serif" font-size="12" lengthAdjust="spacing" textLength="35.0332" x="424.9941" y="86.1387">Entity</text><ellipse cx="445.5107" cy="49" fill="url(#gu951q2jv0ohn0)" rx="12" ry="12" style="stroke:#C6C6C6;stroke-width:0.5;"/><line style="stroke:#C6C6C6;stroke-width:0.5;" x1="433.5107" x2="457.5107" y1="63" y2="63"/><text fill="#262626" font-family="sans-serif" font-size="12" lengthAdjust="spacing" textLength="35.0332" x="424.9941" y="474.8887">Entity</text><ellipse cx="445.5107" cy="503.7188" fill="url(#gu951q2jv0ohn0)" rx="12" ry="12" style="stroke:#C6C6C6;stroke-width:0.5;"/><line style="stroke:#C6C6C6;stroke-width:0.5;" x1="433.5107" x2="457.5107" y1="517.7188" y2="517.7188"/><text fill="#262626" font-family="sans-serif" font-size="12" lengthAdjust="spacing" textLength="57.2578" x="496.0273" y="86.1387">Database</text><path d="M509.6563,29 C509.6563,19 527.6563,19 527.6563,19 C527.6563,19 545.6563,19 545.6563,29 L545.6563,55 C545.6563,65 527.6563,65 527.6563,65 C527.6563,65 509.6563,65 509.6563,55 L509.6563,29 " fill="#FFFFFF" style="stroke:#C6C6C6;stroke-width:1.5;"/><path d="M509.6563,29 C509.6563,39 527.6563,39 527.6563,39 C527.6563,39 545.6563,39 545.6563,29 " fill="none" style="stroke:#C6C6C6;stroke-width:1.5;"/><text fill="#262626" font-family="sans-serif" font-size="12" lengthAdjust="spacing" textLength="57.2578" x="496.0273" y="474.8887">Database</text><path d="M509.6563,497.7188 C509.6563,487.7188 527.6563,487.7188 527.6563,487.7188 C527.6563,487.7188 545.6563,487.7188 545.6563,497.7188 L545.6563,523.7188 C545.6563,533.7188 527.6563,533.7188 527.6563,533.7188 C527.6563,533.7188 509.6563,533.7188 509.6563,523.7188 L509.6563,497.7188 " fill="#FFFFFF" style="stroke:#C6C6C6;stroke-width:1.5;"/><path d="M509.6563,497.7188 C509.6563,507.7188 527.6563,507.7188 527.6563,507.7188 C527.6563,507.7188 545.6563,507.7188 545.6563,497.7188 " fill="none" style="stroke:#C6C6C6;stroke-width:1.5;"/><rect fill="url(#gu951q2jv0ohn0)" height="47.9688" style="stroke:#C6C6C6;stroke-width:0.5;" width="99.6074" x="613.2852" y="46"/><rect fill="url(#gu951q2jv0ohn0)" height="47.9688" style="stroke:#C6C6C6;stroke-width:0.5;" width="99.6074" x="609.2852" y="50"/><text fill="#262626" font-family="sans-serif" font-size="12" lengthAdjust="spacing" textLength="65.6074" x="626.2852" y="78.1387">Collections</text><rect fill="url(#gu951q2jv0ohn0)" height="47.9688" style="stroke:#C6C6C6;stroke-width:0.5;" width="99.6074" x="613.2852" y="453.75"/><rect fill="url(#gu951q2jv0ohn0)" height="47.9688" style="stroke:#C6C6C6;stroke-width:0.5;" width="99.6074" x="609.2852" y="457.75"/><text fill="#262626" font-family="sans-serif" font-size="12" lengthAdjust="spacing" textLength="65.6074" x="626.2852" y="485.8887">Collections</text><path d="M757.8926,55 L827.3145,55 C832.3145,55 832.3145,76.9844 832.3145,76.9844 C832.3145,76.9844 832.3145,98.9688 827.3145,98.9688 L757.8926,98.9688 C752.8926,98.9688 752.8926,76.9844 752.8926,76.9844 C752.8926,76.9844 752.8926,55 757.8926,55 " fill="url(#gu951q2jv0ohn0)" style="stroke:#C6C6C6;stroke-width:0.5;"/><path d="M827.3145,55 C822.3145,55 822.3145,76.9844 822.3145,76.9844 C822.3145,98.9688 827.3145,98.9688 827.3145,98.9688 " fill="none" style="stroke:#C6C6C6;stroke-width:0.5;"/><text fill="#262626" font-family="sans-serif" font-size="12" lengthAdjust="spacing" textLength="39.4219" x="767.8926" y="81.1387">Queue</text><path d="M757.8926,453.75 L827.3145,453.75 C832.3145,453.75 832.3145,475.7344 832.3145,475.7344 C832.3145,475.7344 832.3145,497.7188 827.3145,497.7188 L757.8926,497.7188 C752.8926,497.7188 752.8926,475.7344 752.8926,475.7344 C752.8926,475.7344 752.8926,453.75 757.8926,453.75 " fill="url(#gu951q2jv0ohn0)" style="stroke:#C6C6C6;stroke-width:0.5;"/><path d="M827.3145,453.75 C822.3145,453.75 822.3145,475.7344 822.3145,475.7344 C822.3145,497.7188 827.3145,497.7188 827.3145,497.7188 " fill="none" style="stroke:#C6C6C6;stroke-width:0.5;"/><text fill="#262626" font-family="sans-serif" font-size="12" lengthAdjust="spacing" textLength="39.4219" x="767.8926" y="479.8887">Queue</text><polygon fill="#C6C6C6" points="190.6689,144.9375,200.6689,148.9375,190.6689,152.9375,194.6689,148.9375" style="stroke:#C6C6C6;stroke-width:1.0;"/><line style="stroke:#C6C6C6;stroke-width:1.0;" x1="84.3877" x2="196.6689" y1="148.9375" y2="148.9375"/><text fill="#262626" font-family="sans-serif" font-size="12" lengthAdjust="spacing" textLength="49.418" x="101.3877" y="134.1074">To actor</text><polygon fill="#C6C6C6" points="271.458,192.9063,281.458,196.9063,271.458,200.9063,275.458,196.9063" style="stroke:#C6C6C6;stroke-width:1.0;"/><line style="stroke:#C6C6C6;stroke-width:1.0;" x1="84.3877" x2="277.458" y1="196.9063" y2="196.9063"/><text fill="#262626" font-family="sans-serif" font-size="12" lengthAdjust="spacing" textLength="75.6621" x="101.3877" y="182.0762">To boundary</text><polygon fill="#C6C6C6" points="358.1738,240.875,368.1738,244.875,358.1738,248.875,362.1738,244.875" style="stroke:#C6C6C6;stroke-width:1.0;"/><line style="stroke:#C6C6C6;stroke-width:1.0;" x1="84.3877" x2="364.1738" y1="244.875" y2="244.875"/><text fill="#262626" font-family="sans-serif" font-size="12" lengthAdjust="spacing" textLength="60.3457" x="101.3877" y="230.0449">To control</text><polygon fill="#C6C6C6" points="433.5107,288.8438,443.5107,292.8438,433.5107,296.8438,437.5107,292.8438" style="stroke:#C6C6C6;stroke-width:1.0;"/><line style="stroke:#C6C6C6;stroke-width:1.0;" x1="84.3877" x2="439.5107" y1="292.8438" y2="292.8438"/><text fill="#262626" font-family="sans-serif" font-size="12" lengthAdjust="spacing" textLength="53.3203" x="101.3877" y="278.0137">To entity</text><polygon fill="#C6C6C6" points="515.6563,336.8125,525.6563,340.8125,515.6563,344.8125,519.6563,340.8125" style="stroke:#C6C6C6;stroke-width:1.0;"/><line style="stroke:#C6C6C6;stroke-width:1.0;" x1="84.3877" x2="521.6563" y1="340.8125" y2="340.8125"/><text fill="#262626" font-family="sans-serif" font-size="12" lengthAdjust="spacing" textLength="74.1211" x="101.3877" y="325.9824">To database</text><polygon fill="#C6C6C6" points="649.0889,384.7813,659.0889,388.7813,649.0889,392.7813,653.0889,388.7813" style="stroke:#C6C6C6;stroke-width:1.0;"/><line style="stroke:#C6C6C6;stroke-width:1.0;" x1="84.3877" x2="655.0889" y1="388.7813" y2="388.7813"/><text fill="#262626" font-family="sans-serif" font-size="12" lengthAdjust="spacing" textLength="82.3125" x="101.3877" y="373.9512">To collections</text><polygon fill="#C6C6C6" points="780.6035,432.75,790.6035,436.75,780.6035,440.75,784.6035,436.75" style="stroke:#C6C6C6;stroke-width:1.0;"/><line style="stroke:#C6C6C6;stroke-width:1.0;" x1="84.3877" x2="786.6035" y1="436.75" y2="436.75"/><text fill="#262626" font-family="sans-serif" font-size="12" lengthAdjust="spacing" textLength="56.0801" x="101.3877" y="421.9199">To queue</text></g></svg>