<svg xmlns="http://www.w3.org/2000/svg" xmlns:xlink="http://www.w3.org/1999/xlink" contentStyleType="text/css" height="491px" preserveAspectRatio="none" style="width:397px;height:491px;" version="1.1" viewBox="0 0 397 491" width="397px" zoomAndPan="magnify"><defs><linearGradient id="g1q1x6fn9a7g9j0" x1="50%" x2="50%" y1="0%" y2="100%"><stop offset="0%" stop-color="#F4F4F4"/><stop offset="100%" stop-color="#F4F4F4"/></linearGradient></defs><g><rect fill="#FFFFFF" height="93.9375" style="stroke:#FFFFFF;stroke-width:1.0;" width="318.9697" x="50.4287" y="113.9375"/><line style="stroke:#C6C6C6;stroke-width:1.0;" x1="141.5352" x2="141.5352" y1="277.8125" y2="417.7188"/><polygon fill="#C6C6C6" points="137.5352,287.8125,141.5352,277.8125,145.5352,287.8125,141.5352,283.8125" style="stroke:#C6C6C6;stroke-width:1.0;"/><polygon fill="#C6C6C6" points="137.5352,407.7188,141.5352,417.7188,145.5352,407.7188,141.5352,411.7188" style="stroke:#C6C6C6;stroke-width:1.0;"/><text fill="#262626" font-family="sans-serif" font-size="12" lengthAdjust="spacing" textLength="63.5918" x="155.5352" y="351.9199">some time</text><line style="stroke:#C6C6C6;stroke-width:0.5;stroke-dasharray:5.0,5.0;" x1="66.4287" x2="66.4287" y1="53.9688" y2="437.7188"/><line style="stroke:#C6C6C6;stroke-width:0.5;stroke-dasharray:5.0,5.0;" x1="216.6416" x2="216.6416" y1="53.9688" y2="437.7188"/><line style="stroke:#C6C6C6;stroke-width:0.5;stroke-dasharray:5.0,5.0;" x1="353.3984" x2="353.3984" y1="53.9688" y2="437.7188"/><rect fill="url(#g1q1x6fn9a7g9j0)" height="47.9688" style="stroke:#C6C6C6;stroke-width:0.5;" width="62.8574" x="35" y="5"/><text fill="#262626" font-family="sans-serif" font-size="12" lengthAdjust="spacing" textLength="28.8574" x="52" y="33.1387">Alice</text><rect fill="url(#g1q1x6fn9a7g9j0)" height="47.9688" style="stroke:#C6C6C6;stroke-width:0.5;" width="57.1914" x="188.0459" y="5"/><text fill="#262626" font-family="sans-serif" font-size="12" lengthAdjust="spacing" textLength="23.1914" x="205.0459" y="33.1387">Bob</text><rect fill="url(#g1q1x6fn9a7g9j0)" height="47.9688" style="stroke:#C6C6C6;stroke-width:0.5;" width="76.3223" x="315.2373" y="5"/><text fill="#262626" font-family="sans-serif" font-size="12" lengthAdjust="spacing" textLength="42.3223" x="332.2373" y="33.1387">Charlie</text><rect fill="url(#g1q1x6fn9a7g9j0)" height="47.9688" style="stroke:#C6C6C6;stroke-width:0.5;" width="62.8574" x="35" y="437.7188"/><text fill="#262626" font-family="sans-serif" font-size="12" lengthAdjust="spacing" textLength="28.8574" x="52" y="465.8574">Alice</text><rect fill="url(#g1q1x6fn9a7g9j0)" height="47.9688" style="stroke:#C6C6C6;stroke-width:0.5;" width="57.1914" x="188.0459" y="437.7188"/><text fill="#262626" font-family="sans-serif" font-size="12" lengthAdjust="spacing" textLength="23.1914" x="205.0459" y="465.8574">Bob</text><rect fill="url(#g1q1x6fn9a7g9j0)" height="47.9688" style="stroke:#C6C6C6;stroke-width:0.5;" width="76.3223" x="315.2373" y="437.7188"/><text fill="#262626" font-family="sans-serif" font-size="12" lengthAdjust="spacing" textLength="42.3223" x="332.2373" y="465.8574">Charlie</text><polygon fill="#C6C6C6" points="204.6416,97.9375,214.6416,101.9375,204.6416,105.9375,208.6416,101.9375" style="stroke:#C6C6C6;stroke-width:1.0;"/><line style="stroke:#C6C6C6;stroke-width:1.0;" x1="66.4287" x2="210.6416" y1="101.9375" y2="101.9375"/><text fill="#262626" font-family="sans-serif" font-size="12" lengthAdjust="spacing" textLength="28.998" x="83.4287" y="87.1074">hello</text><polygon fill="#C6C6C6" points="341.3984,97.9375,351.3984,101.9375,341.3984,105.9375,345.3984,101.9375" style="stroke:#C6C6C6;stroke-width:1.0;"/><line style="stroke:#C6C6C6;stroke-width:1.0;" x1="216.6416" x2="347.3984" y1="101.9375" y2="101.9375"/><text fill="#262626" font-family="sans-serif" font-size="12" lengthAdjust="spacing" textLength="10.9395" x="233.6416" y="87.1074">hi</text><path d="M50.4287,113.9375 L202.0596,113.9375 L202.0596,139.9063 L192.0596,149.9063 L50.4287,149.9063 L50.4287,113.9375 " fill="#F4F4F4" style="stroke:#C6C6C6;stroke-width:1.5;"/><rect fill="none" height="93.9375" style="stroke:#C6C6C6;stroke-width:1.5;" width="318.9697" x="50.4287" y="113.9375"/><text fill="#262626" font-family="sans-serif" font-size="12" font-weight="bold" lengthAdjust="spacing" textLength="86.6309" x="75.4287" y="136.0762">A teoz group</text><polygon fill="#C6C6C6" points="204.6416,195.875,214.6416,199.875,204.6416,203.875,208.6416,199.875" style="stroke:#C6C6C6;stroke-width:1.0;"/><line style="stroke:#C6C6C6;stroke-width:1.0;" x1="66.4287" x2="210.6416" y1="199.875" y2="199.875"/><text fill="#262626" font-family="sans-serif" font-size="12" lengthAdjust="spacing" textLength="28.998" x="83.4287" y="185.0449">hello</text><polygon fill="#C6C6C6" points="341.3984,195.875,351.3984,199.875,341.3984,203.875,345.3984,199.875" style="stroke:#C6C6C6;stroke-width:1.0;"/><line style="stroke:#C6C6C6;stroke-width:1.0;" x1="216.6416" x2="347.3984" y1="199.875" y2="199.875"/><text fill="#262626" font-family="sans-serif" font-size="12" lengthAdjust="spacing" textLength="14.959" x="233.6416" y="185.0449">ha</text><polygon fill="#C6C6C6" points="204.6416,271.8125,214.6416,275.8125,204.6416,279.8125,208.6416,275.8125" style="stroke:#C6C6C6;stroke-width:1.0;"/><line style="stroke:#C6C6C6;stroke-width:1.0;" x1="66.4287" x2="210.6416" y1="275.8125" y2="275.8125"/><text fill="#262626" font-family="sans-serif" font-size="12" lengthAdjust="spacing" textLength="106.2129" x="83.4287" y="247.0137">start doing things</text><text fill="#262626" font-family="sans-serif" font-size="12" lengthAdjust="spacing" textLength="93.0234" x="83.4287" y="260.9824">during duration</text><polygon fill="#C6C6C6" points="341.3984,319.7813,351.3984,323.7813,341.3984,327.7813,345.3984,323.7813" style="stroke:#C6C6C6;stroke-width:1.0;"/><line style="stroke:#C6C6C6;stroke-width:1.0;" x1="216.6416" x2="347.3984" y1="323.7813" y2="323.7813"/><text fill="#262626" font-family="sans-serif" font-size="12" lengthAdjust="spacing" textLength="63.5332" x="233.6416" y="308.9512">something</text><polygon fill="#C6C6C6" points="227.6416,367.75,217.6416,371.75,227.6416,375.75,223.6416,371.75" style="stroke:#C6C6C6;stroke-width:1.0;"/><line style="stroke:#C6C6C6;stroke-width:1.0;" x1="221.6416" x2="352.3984" y1="371.75" y2="371.75"/><text fill="#262626" font-family="sans-serif" font-size="12" lengthAdjust="spacing" textLength="91.6992" x="243.6416" y="356.9199">something else</text><polygon fill="#C6C6C6" points="77.4287,415.7188,67.4287,419.7188,77.4287,423.7188,73.4287,419.7188" style="stroke:#C6C6C6;stroke-width:1.0;"/><line style="stroke:#C6C6C6;stroke-width:1.0;" x1="71.4287" x2="215.6416" y1="419.7188" y2="419.7188"/><text fill="#262626" font-family="sans-serif" font-size="12" lengthAdjust="spacing" textLength="32.3555" x="93.4287" y="404.8887">finish</text><line style="stroke:#C6C6C6;stroke-width:1.0;" x1="141.5352" x2="141.5352" y1="277.8125" y2="417.7188"/><polygon fill="#C6C6C6" points="137.5352,287.8125,141.5352,277.8125,145.5352,287.8125,141.5352,283.8125" style="stroke:#C6C6C6;stroke-width:1.0;"/><polygon fill="#C6C6C6" points="137.5352,407.7188,141.5352,417.7188,145.5352,407.7188,141.5352,411.7188" style="stroke:#C6C6C6;stroke-width:1.0;"/><text fill="#262626" font-family="sans-serif" font-size="12" lengthAdjust="spacing" textLength="63.5918" x="155.5352" y="351.9199">some time</text></g></svg>