<svg xmlns="http://www.w3.org/2000/svg" xmlns:xlink="http://www.w3.org/1999/xlink" contentStyleType="text/css" height="762.5px" preserveAspectRatio="none" style="width:548px;height:762px;" version="1.1" viewBox="0 0 548 762" width="548.9583px" zoomAndPan="magnify"><defs><linearGradient id="gym6vkmlwtq1b0" x1="50%" x2="50%" y1="0%" y2="100%"><stop offset="0%" stop-color="#F3F3F3"/><stop offset="100%" stop-color="#E2E2E2"/></linearGradient></defs><g><rect fill="none" height="555.8268" rx="7.8125" ry="7.8125" style="stroke:#F3F3F3;stroke-width:1.0416666666666667;" width="516.1458" x="20.8333" y="129.1016"/><rect fill="none" height="259.1797" rx="7.8125" ry="7.8125" style="stroke:#F3F3F3;stroke-width:1.0416666666666667;" width="495.3125" x="31.25" y="331.0221"/><rect fill="none" height="107.194" rx="7.8125" ry="7.8125" style="stroke:#F3F3F3;stroke-width:1.0416666666666667;" width="353.6458" x="41.6667" y="425.7487"/><line style="stroke:#A8A8A8;stroke-width:1.0416666666666667;stroke-dasharray:5.0,5.0;" x1="115.625" x2="115.625" y1="61.4258" y2="702.6367"/><line style="stroke:#A8A8A8;stroke-width:1.0416666666666667;stroke-dasharray:5.0,5.0;" x1="323.4375" x2="323.4375" y1="61.4258" y2="702.6367"/><line style="stroke:#A8A8A8;stroke-width:1.0416666666666667;stroke-dasharray:5.0,5.0;" x1="455.7292" x2="455.7292" y1="61.4258" y2="702.6367"/><rect fill="url(#gym6vkmlwtq1b0)" height="49.9674" rx="7.8125" ry="7.8125" style="stroke:#F3F3F3;stroke-width:1.0416666666666667;" width="65.625" x="83.3333" y="10.4167"/><text fill="#336699" font-family="Verdana" font-size="12.5" lengthAdjust="spacing" textLength="30.2083" x="101.0417" y="39.7278">Alice</text><rect fill="url(#gym6vkmlwtq1b0)" height="49.9674" rx="7.8125" ry="7.8125" style="stroke:#F3F3F3;stroke-width:1.0416666666666667;" width="65.625" x="83.3333" y="701.5951"/><text fill="#336699" font-family="Verdana" font-size="12.5" lengthAdjust="spacing" textLength="30.2083" x="101.0417" y="730.9062">Alice</text><rect fill="url(#gym6vkmlwtq1b0)" height="49.9674" rx="7.8125" ry="7.8125" style="stroke:#F3F3F3;stroke-width:1.0416666666666667;" width="60.4167" x="293.2292" y="10.4167"/><text fill="#336699" font-family="Verdana" font-size="12.5" lengthAdjust="spacing" textLength="25" x="310.9375" y="39.7278">Bob</text><rect fill="url(#gym6vkmlwtq1b0)" height="49.9674" rx="7.8125" ry="7.8125" style="stroke:#F3F3F3;stroke-width:1.0416666666666667;" width="60.4167" x="293.2292" y="701.5951"/><text fill="#336699" font-family="Verdana" font-size="12.5" lengthAdjust="spacing" textLength="25" x="310.9375" y="730.9062">Bob</text><rect fill="url(#gym6vkmlwtq1b0)" height="49.9674" rx="7.8125" ry="7.8125" style="stroke:#F3F3F3;stroke-width:1.0416666666666667;" width="58.3333" x="426.5625" y="10.4167"/><text fill="#336699" font-family="Verdana" font-size="12.5" lengthAdjust="spacing" textLength="22.9167" x="444.2708" y="39.7278">Log</text><rect fill="url(#gym6vkmlwtq1b0)" height="49.9674" rx="7.8125" ry="7.8125" style="stroke:#F3F3F3;stroke-width:1.0416666666666667;" width="58.3333" x="426.5625" y="701.5951"/><text fill="#336699" font-family="Verdana" font-size="12.5" lengthAdjust="spacing" textLength="22.9167" x="444.2708" y="730.9062">Log</text><polygon fill="#E2E2E2" points="310.9375,109.3099,321.3542,113.4766,310.9375,117.6432,315.1042,113.4766" style="stroke:#E2E2E2;stroke-width:1.0416666666666667;"/><line style="stroke:#E2E2E2;stroke-width:3.125;" x1="116.1458" x2="317.1875" y1="113.4766" y2="113.4766"/><text fill="#303030" font-family="Verdana" font-size="12.5" lengthAdjust="spacing" textLength="154.1667" x="133.8542" y="98.0286">Authentication Request</text><path d="M28.6458,129.1016 L108.3333,129.1016 L108.3333,156.1523 L97.9167,166.569 L20.8333,166.569 L20.8333,136.9141 A7.8125,7.8125 0 0 1 28.6458,129.1016 " fill="#D2D2D2" style="stroke:#737373;stroke-width:1.0416666666666667;"/><rect fill="none" height="555.8268" rx="7.8125" ry="7.8125" style="stroke:#F3F3F3;stroke-width:1.0416666666666667;" width="516.1458" x="20.8333" y="129.1016"/><text fill="#336699" font-family="Verdana" font-size="12.5" font-weight="bold" lengthAdjust="spacing" textLength="19.7917" x="46.875" y="152.1627">alt</text><text fill="#303030" font-family="Verdana" font-size="12.5" font-weight="bold" lengthAdjust="spacing" textLength="126.0417" x="134.375" y="153.2043">[successful case]</text><polygon fill="#E2E2E2" points="127.6042,223.7956,117.1875,227.9622,127.6042,232.1289,123.4375,227.9622" style="stroke:#E2E2E2;stroke-width:1.0416666666666667;"/><line style="stroke:#E2E2E2;stroke-width:3.125;" x1="121.3542" x2="322.3958" y1="227.9622" y2="227.9622"/><text fill="#303030" font-family="Verdana" font-size="12.5" lengthAdjust="spacing" textLength="161.4583" x="144.2708" y="212.5142">Authentication Accepted</text><line style="stroke:#F3F3F3;stroke-width:1.0416666666666667;stroke-dasharray:2.0,2.0;" x1="20.8333" x2="536.9792" y1="237.3372" y2="237.3372"/><text fill="#303030" font-family="Verdana" font-size="12.5" font-weight="bold" lengthAdjust="spacing" textLength="156.25" x="36.4583" y="259.3567">[some kind of failure]</text><polygon fill="#E2E2E2" points="127.6042,311.2305,117.1875,315.3971,127.6042,319.5638,123.4375,315.3971" style="stroke:#E2E2E2;stroke-width:1.0416666666666667;"/><line style="stroke:#E2E2E2;stroke-width:3.125;" x1="121.3542" x2="322.3958" y1="315.3971" y2="315.3971"/><text fill="#303030" font-family="Verdana" font-size="12.5" lengthAdjust="spacing" textLength="143.75" x="144.2708" y="299.9491">Authentication Failure</text><path d="M39.0625,331.0221 L195.8333,331.0221 L195.8333,358.0729 L185.4167,368.4896 L31.25,368.4896 L31.25,338.8346 A7.8125,7.8125 0 0 1 39.0625,331.0221 " fill="#D2D2D2" style="stroke:#737373;stroke-width:1.0416666666666667;"/><rect fill="none" height="259.1797" rx="7.8125" ry="7.8125" style="stroke:#F3F3F3;stroke-width:1.0416666666666667;" width="495.3125" x="31.25" y="331.0221"/><text fill="#336699" font-family="Verdana" font-size="12.5" font-weight="bold" lengthAdjust="spacing" textLength="96.875" x="57.2917" y="354.0833">My own label</text><polygon fill="#E2E2E2" points="443.2292,405.957,453.6458,410.1237,443.2292,414.2904,447.3958,410.1237" style="stroke:#E2E2E2;stroke-width:1.0416666666666667;"/><line style="stroke:#E2E2E2;stroke-width:3.125;" x1="116.1458" x2="449.4792" y1="410.1237" y2="410.1237"/><text fill="#303030" font-family="Verdana" font-size="12.5" lengthAdjust="spacing" textLength="104.1667" x="133.8542" y="394.6757">Log attack start</text><path d="M49.4792,425.7487 L141.6667,425.7487 L141.6667,452.7995 L131.25,463.2161 L41.6667,463.2161 L41.6667,433.5612 A7.8125,7.8125 0 0 1 49.4792,425.7487 " fill="#D2D2D2" style="stroke:#737373;stroke-width:1.0416666666666667;"/><rect fill="none" height="107.194" rx="7.8125" ry="7.8125" style="stroke:#F3F3F3;stroke-width:1.0416666666666667;" width="353.6458" x="41.6667" y="425.7487"/><text fill="#336699" font-family="Verdana" font-size="12.5" font-weight="bold" lengthAdjust="spacing" textLength="32.2917" x="67.7083" y="448.8098">loop</text><text fill="#303030" font-family="Verdana" font-size="12.5" font-weight="bold" lengthAdjust="spacing" textLength="88.5417" x="167.7083" y="449.8515">[1000 times]</text><polygon fill="#E2E2E2" points="310.9375,520.4427,321.3542,524.6094,310.9375,528.776,315.1042,524.6094" style="stroke:#E2E2E2;stroke-width:1.0416666666666667;"/><line style="stroke:#E2E2E2;stroke-width:3.125;" x1="116.1458" x2="317.1875" y1="524.6094" y2="524.6094"/><text fill="#303030" font-family="Verdana" font-size="12.5" lengthAdjust="spacing" textLength="72.9167" x="133.8542" y="509.1614">DNS Attack</text><polygon fill="#E2E2E2" points="443.2292,577.7018,453.6458,581.8685,443.2292,586.0352,447.3958,581.8685" style="stroke:#E2E2E2;stroke-width:1.0416666666666667;"/><line style="stroke:#E2E2E2;stroke-width:3.125;" x1="116.1458" x2="449.4792" y1="581.8685" y2="581.8685"/><text fill="#303030" font-family="Verdana" font-size="12.5" lengthAdjust="spacing" textLength="97.9167" x="133.8542" y="566.4205">Log attack end</text><line style="stroke:#F3F3F3;stroke-width:1.0416666666666667;stroke-dasharray:2.0,2.0;" x1="20.8333" x2="536.9792" y1="598.5352" y2="598.5352"/><text fill="#303030" font-family="Verdana" font-size="12.5" font-weight="bold" lengthAdjust="spacing" textLength="178.125" x="36.4583" y="620.5546">[Another type of failure]</text><polygon fill="#E2E2E2" points="127.6042,672.4284,117.1875,676.5951,127.6042,680.7617,123.4375,676.5951" style="stroke:#E2E2E2;stroke-width:1.0416666666666667;"/><line style="stroke:#E2E2E2;stroke-width:3.125;" x1="121.3542" x2="322.3958" y1="676.5951" y2="676.5951"/><text fill="#303030" font-family="Verdana" font-size="12.5" lengthAdjust="spacing" textLength="91.6667" x="144.2708" y="661.1471">Please repeat</text></g></svg>