<?xml version="1.0" encoding="UTF-8" standalone="no"?><svg xmlns="http://www.w3.org/2000/svg" xmlns:xlink="http://www.w3.org/1999/xlink" contentScriptType="application/ecmascript" contentStyleType="text/css" height="325px" preserveAspectRatio="none" style="width:481px;height:325px;background:#00000000;" version="1.1" viewBox="0 0 481 325" width="481.25px" zoomAndPan="magnify"><defs><linearGradient id="gp3pu9189ltom0" x1="50%" x2="50%" y1="0%" y2="100%"><stop offset="0%" stop-color="#FFFFFF"/><stop offset="100%" stop-color="#FFFFFF"/></linearGradient><filter height="300%" id="fp3pu9189ltom" width="300%" x="-1" y="-1"><feGaussianBlur result="blurOut" stdDeviation="2.0833333333333335"/><feColorMatrix in="blurOut" result="blurOut2" type="matrix" values="0 0 0 0 0 0 0 0 0 0 0 0 0 0 0 0 0 0 .4 0"/><feOffset dx="4.166666666666667" dy="4.166666666666667" in="blurOut2" result="blurOut3"/><feBlend in="SourceGraphic" in2="blurOut3" mode="normal"/></filter><linearGradient id="gp3pu9189ltom1" x1="50%" x2="50%" y1="0%" y2="100%"><stop offset="0%" stop-color="#4DABF5"/><stop offset="100%" stop-color="#2196F3"/></linearGradient></defs><g><rect fill="url(#gp3pu9189ltom0)" filter="url(#fp3pu9189ltom)" height="100.2767" rx="4.1667" ry="4.1667" style="stroke:#2196F3;stroke-width:1.0416666666666667;" width="368.2292" x="71.3542" y="130.6559"/><line style="stroke:#CCCCCC;stroke-width:1.0416666666666667;stroke-dasharray:5.0,5.0;" x1="88.0208" x2="88.0208" y1="66.9759" y2="255.9326"/><line style="stroke:#CCCCCC;stroke-width:1.0416666666666667;stroke-dasharray:5.0,5.0;" x1="251.5625" x2="251.5625" y1="66.9759" y2="255.9326"/><line style="stroke:#CCCCCC;stroke-width:1.0416666666666667;stroke-dasharray:5.0,5.0;" x1="422.9167" x2="422.9167" y1="66.9759" y2="255.9326"/><rect fill="url(#gp3pu9189ltom1)" filter="url(#fp3pu9189ltom)" height="52.3926" rx="4.1667" ry="4.1667" style="stroke:#2196F3;stroke-width:1.0416666666666667;" width="68.75" x="52.0833" y="10.4167"/><text fill="#FFFFFF" font-family="&quot;Verdana&quot;" font-size="14.5833" lengthAdjust="spacing" textLength="33.3333" x="69.7917" y="41.6616">Alice</text><rect fill="url(#gp3pu9189ltom1)" filter="url(#fp3pu9189ltom)" height="52.3926" rx="4.1667" ry="4.1667" style="stroke:#2196F3;stroke-width:1.0416666666666667;" width="64.5833" x="217.7083" y="10.4167"/><text fill="#FFFFFF" font-family="&quot;Verdana&quot;" font-size="14.5833" lengthAdjust="spacing" textLength="29.1667" x="235.4167" y="41.6616">Bob</text><rect fill="url(#gp3pu9189ltom1)" filter="url(#fp3pu9189ltom)" height="52.3926" rx="4.1667" ry="4.1667" style="stroke:#2196F3;stroke-width:1.0416666666666667;" width="84.375" x="379.1667" y="10.4167"/><text fill="#FFFFFF" font-family="&quot;Verdana&quot;" font-size="14.5833" lengthAdjust="spacing" textLength="48.9583" x="396.875" y="41.6616">Charlie</text><rect fill="url(#gp3pu9189ltom1)" filter="url(#fp3pu9189ltom)" height="52.3926" rx="4.1667" ry="4.1667" style="stroke:#2196F3;stroke-width:1.0416666666666667;" width="68.75" x="52.0833" y="255.9326"/><text fill="#FFFFFF" font-family="&quot;Verdana&quot;" font-size="14.5833" lengthAdjust="spacing" textLength="33.3333" x="69.7917" y="287.1775">Alice</text><rect fill="url(#gp3pu9189ltom1)" filter="url(#fp3pu9189ltom)" height="52.3926" rx="4.1667" ry="4.1667" style="stroke:#2196F3;stroke-width:1.0416666666666667;" width="64.5833" x="217.7083" y="255.9326"/><text fill="#FFFFFF" font-family="&quot;Verdana&quot;" font-size="14.5833" lengthAdjust="spacing" textLength="29.1667" x="235.4167" y="287.1775">Bob</text><rect fill="url(#gp3pu9189ltom1)" filter="url(#fp3pu9189ltom)" height="52.3926" rx="4.1667" ry="4.1667" style="stroke:#2196F3;stroke-width:1.0416666666666667;" width="84.375" x="379.1667" y="255.9326"/><text fill="#FFFFFF" font-family="&quot;Verdana&quot;" font-size="14.5833" lengthAdjust="spacing" textLength="48.9583" x="396.875" y="287.1775">Charlie</text><polygon fill="#2196F3" points="239.0625,113.9893,249.4792,118.1559,239.0625,122.3226,243.2292,118.1559" style="stroke:#2196F3;stroke-width:1.0416666666666667;"/><line style="stroke:#2196F3;stroke-width:3.125;" x1="88.0208" x2="245.3125" y1="118.1559" y2="118.1559"/><text fill="#222222" font-family="&quot;Verdana&quot;" font-size="13.5417" lengthAdjust="spacing" textLength="31.25" x="105.7292" y="102.4623">hello</text><polygon fill="#2196F3" points="410.4167,113.9893,420.8333,118.1559,410.4167,122.3226,414.5833,118.1559" style="stroke:#2196F3;stroke-width:1.0416666666666667;"/><line style="stroke:#2196F3;stroke-width:3.125;" x1="251.5625" x2="416.6667" y1="118.1559" y2="118.1559"/><text fill="#222222" font-family="&quot;Verdana&quot;" font-size="13.5417" lengthAdjust="spacing" textLength="11.4583" x="269.2708" y="102.4623">hi</text><path d="M75.5208,130.6559 L239.0625,130.6559 L239.0625,158.7809 L228.6458,169.1976 L71.3542,169.1976 L71.3542,134.8226 A4.1667,4.1667 0 0 1 75.5208,130.6559 " fill="#FFFFFF" style="stroke:#666666;stroke-width:1.0416666666666667;"/><rect fill="none" height="100.2767" rx="4.1667" ry="4.1667" style="stroke:#2196F3;stroke-width:1.0416666666666667;" width="368.2292" x="71.3542" y="130.6559"/><text fill="#9C27B0" font-family="&quot;Verdana&quot;" font-size="13.5417" font-weight="bold" lengthAdjust="spacing" textLength="100" x="97.3958" y="154.6839">A teoz group</text><polygon fill="#2196F3" points="239.0625,218.4326,249.4792,222.5993,239.0625,226.766,243.2292,222.5993" style="stroke:#2196F3;stroke-width:1.0416666666666667;"/><line style="stroke:#2196F3;stroke-width:3.125;" x1="88.0208" x2="245.3125" y1="222.5993" y2="222.5993"/><text fill="#222222" font-family="&quot;Verdana&quot;" font-size="13.5417" lengthAdjust="spacing" textLength="31.25" x="105.7292" y="206.9056">hello</text><polygon fill="#2196F3" points="410.4167,218.4326,420.8333,222.5993,410.4167,226.766,414.5833,222.5993" style="stroke:#2196F3;stroke-width:1.0416666666666667;"/><line style="stroke:#2196F3;stroke-width:3.125;" x1="251.5625" x2="416.6667" y1="222.5993" y2="222.5993"/><text fill="#222222" font-family="&quot;Verdana&quot;" font-size="13.5417" lengthAdjust="spacing" textLength="16.6667" x="269.2708" y="206.9056">ha</text></g></svg>