<?xml version="1.0" encoding="UTF-8" standalone="no"?><svg xmlns="http://www.w3.org/2000/svg" xmlns:xlink="http://www.w3.org/1999/xlink" contentScriptType="application/ecmascript" contentStyleType="text/css" height="580.2083px" preserveAspectRatio="none" style="width:889px;height:580px;background:#00000000;" version="1.1" viewBox="0 0 889 580" width="889.5833px" zoomAndPan="magnify"><defs><linearGradient id="g1192gvkqdru4l0" x1="50%" x2="50%" y1="0%" y2="100%"><stop offset="0%" stop-color="#F3F3F3"/><stop offset="100%" stop-color="#E2E2E2"/></linearGradient></defs><g><line style="stroke:#A8A8A8;stroke-width:2.0833333333333335;stroke-dasharray:5.0,5.0;" x1="89.5833" x2="89.5833" y1="106.2174" y2="476.8229"/><line style="stroke:#A8A8A8;stroke-width:2.0833333333333335;stroke-dasharray:5.0,5.0;" x1="214.5833" x2="214.5833" y1="106.2174" y2="476.8229"/><line style="stroke:#A8A8A8;stroke-width:2.0833333333333335;stroke-dasharray:5.0,5.0;" x1="300" x2="300" y1="106.2174" y2="476.8229"/><line style="stroke:#A8A8A8;stroke-width:2.0833333333333335;stroke-dasharray:5.0,5.0;" x1="391.6667" x2="391.6667" y1="106.2174" y2="476.8229"/><line style="stroke:#A8A8A8;stroke-width:2.0833333333333335;stroke-dasharray:5.0,5.0;" x1="470.8333" x2="470.8333" y1="106.2174" y2="476.8229"/><line style="stroke:#A8A8A8;stroke-width:2.0833333333333335;stroke-dasharray:5.0,5.0;" x1="558.3333" x2="558.3333" y1="106.2174" y2="476.8229"/><line style="stroke:#A8A8A8;stroke-width:2.0833333333333335;stroke-dasharray:5.0,5.0;" x1="701.0417" x2="701.0417" y1="106.2174" y2="476.8229"/><line style="stroke:#A8A8A8;stroke-width:2.0833333333333335;stroke-dasharray:5.0,5.0;" x1="839.5833" x2="839.5833" y1="106.2174" y2="476.8229"/><rect fill="url(#g1192gvkqdru4l0)" height="49.9674" rx="7.8125" ry="7.8125" style="stroke:#F3F3F3;stroke-width:1.5625;" width="106.25" x="36.4583" y="55.2083"/><text fill="#336699" font-family="Verdana" font-size="12.5" lengthAdjust="spacing" textLength="70.8333" x="54.1667" y="84.5194">Participant</text><rect fill="url(#g1192gvkqdru4l0)" height="49.9674" rx="7.8125" ry="7.8125" style="stroke:#F3F3F3;stroke-width:1.5625;" width="106.25" x="36.4583" y="475.7813"/><text fill="#336699" font-family="Verdana" font-size="12.5" lengthAdjust="spacing" textLength="70.8333" x="54.1667" y="505.0924">Participant</text><text fill="#336699" font-family="Verdana" font-size="12.5" lengthAdjust="spacing" textLength="34.375" x="194.7917" y="92.8528">Actor</text><ellipse cx="215.1042" cy="15.625" fill="url(#g1192gvkqdru4l0)" rx="8.3333" ry="8.3333" style="stroke:#F3F3F3;stroke-width:2.0833333333333335;"/><path d="M215.1042,23.9583 L215.1042,52.0833 M201.5625,32.2917 L228.6458,32.2917 M215.1042,52.0833 L201.5625,67.7083 M215.1042,52.0833 L228.6458,67.7083 " fill="none" style="stroke:#F3F3F3;stroke-width:2.0833333333333335;"/><text fill="#336699" font-family="Verdana" font-size="12.5" lengthAdjust="spacing" textLength="34.375" x="194.7917" y="497.8007">Actor</text><ellipse cx="215.1042" cy="521.582" fill="url(#g1192gvkqdru4l0)" rx="8.3333" ry="8.3333" style="stroke:#F3F3F3;stroke-width:2.0833333333333335;"/><path d="M215.1042,529.9154 L215.1042,558.0404 M201.5625,538.2487 L228.6458,538.2487 M215.1042,558.0404 L201.5625,573.6654 M215.1042,558.0404 L228.6458,573.6654 " fill="none" style="stroke:#F3F3F3;stroke-width:2.0833333333333335;"/><text fill="#336699" font-family="Verdana" font-size="12.5" lengthAdjust="spacing" textLength="61.4583" x="266.6667" y="92.8528">Boundary</text><path d="M279.1667,41.6667 L279.1667,66.6667 M279.1667,54.1667 L296.875,54.1667 " fill="none" style="stroke:#F3F3F3;stroke-width:2.0833333333333335;"/><ellipse cx="309.375" cy="54.1667" fill="url(#g1192gvkqdru4l0)" rx="12.5" ry="12.5" style="stroke:#F3F3F3;stroke-width:2.0833333333333335;"/><text fill="#336699" font-family="Verdana" font-size="12.5" lengthAdjust="spacing" textLength="61.4583" x="266.6667" y="497.8007">Boundary</text><path d="M279.1667,515.332 L279.1667,540.332 M279.1667,527.832 L296.875,527.832 " fill="none" style="stroke:#F3F3F3;stroke-width:2.0833333333333335;"/><ellipse cx="309.375" cy="527.832" fill="url(#g1192gvkqdru4l0)" rx="12.5" ry="12.5" style="stroke:#F3F3F3;stroke-width:2.0833333333333335;"/><text fill="#336699" font-family="Verdana" font-size="12.5" lengthAdjust="spacing" textLength="46.875" x="365.625" y="92.8528">Control</text><ellipse cx="392.1875" cy="54.1667" fill="url(#g1192gvkqdru4l0)" rx="12.5" ry="12.5" style="stroke:#F3F3F3;stroke-width:2.0833333333333335;"/><polygon fill="#F3F3F3" points="388.0208,41.6667,394.2708,36.4583,392.1875,41.6667,394.2708,46.875,388.0208,41.6667" style="stroke:#F3F3F3;stroke-width:1.0416666666666667;"/><text fill="#336699" font-family="Verdana" font-size="12.5" lengthAdjust="spacing" textLength="46.875" x="365.625" y="497.8007">Control</text><ellipse cx="392.1875" cy="527.832" fill="url(#g1192gvkqdru4l0)" rx="12.5" ry="12.5" style="stroke:#F3F3F3;stroke-width:2.0833333333333335;"/><polygon fill="#F3F3F3" points="388.0208,515.332,394.2708,510.1237,392.1875,515.332,394.2708,520.5404,388.0208,515.332" style="stroke:#F3F3F3;stroke-width:1.0416666666666667;"/><text fill="#336699" font-family="Verdana" font-size="12.5" lengthAdjust="spacing" textLength="36.4583" x="450" y="92.8528">Entity</text><ellipse cx="471.3542" cy="54.1667" fill="url(#g1192gvkqdru4l0)" rx="12.5" ry="12.5" style="stroke:#F3F3F3;stroke-width:2.0833333333333335;"/><line style="stroke:#F3F3F3;stroke-width:2.0833333333333335;" x1="458.8542" x2="483.8542" y1="68.75" y2="68.75"/><text fill="#336699" font-family="Verdana" font-size="12.5" lengthAdjust="spacing" textLength="36.4583" x="450" y="497.8007">Entity</text><ellipse cx="471.3542" cy="527.832" fill="url(#g1192gvkqdru4l0)" rx="12.5" ry="12.5" style="stroke:#F3F3F3;stroke-width:2.0833333333333335;"/><line style="stroke:#F3F3F3;stroke-width:2.0833333333333335;" x1="458.8542" x2="483.8542" y1="542.4154" y2="542.4154"/><text fill="#336699" font-family="Verdana" font-size="12.5" lengthAdjust="spacing" textLength="63.5417" x="523.9583" y="92.8528">Database</text><path d="M540.1042,33.3333 C540.1042,22.9167 558.8542,22.9167 558.8542,22.9167 C558.8542,22.9167 577.6042,22.9167 577.6042,33.3333 L577.6042,60.4167 C577.6042,70.8333 558.8542,70.8333 558.8542,70.8333 C558.8542,70.8333 540.1042,70.8333 540.1042,60.4167 L540.1042,33.3333 " style="stroke:#F3F3F3;stroke-width:1.5625;fill:none;"/><path d="M540.1042,33.3333 C540.1042,43.75 558.8542,43.75 558.8542,43.75 C558.8542,43.75 577.6042,43.75 577.6042,33.3333 " fill="none" style="stroke:#F3F3F3;stroke-width:1.5625;"/><text fill="#336699" font-family="Verdana" font-size="12.5" lengthAdjust="spacing" textLength="63.5417" x="523.9583" y="497.8007">Database</text><path d="M540.1042,521.582 C540.1042,511.1654 558.8542,511.1654 558.8542,511.1654 C558.8542,511.1654 577.6042,511.1654 577.6042,521.582 L577.6042,548.6654 C577.6042,559.082 558.8542,559.082 558.8542,559.082 C558.8542,559.082 540.1042,559.082 540.1042,548.6654 L540.1042,521.582 " style="stroke:#F3F3F3;stroke-width:1.5625;fill:none;"/><path d="M540.1042,521.582 C540.1042,531.9987 558.8542,531.9987 558.8542,531.9987 C558.8542,531.9987 577.6042,531.9987 577.6042,521.582 " fill="none" style="stroke:#F3F3F3;stroke-width:1.5625;"/><rect fill="url(#g1192gvkqdru4l0)" height="49.9674" rx="7.8125" ry="7.8125" style="stroke:#F3F3F3;stroke-width:1.5625;" width="106.25" x="650" y="51.0417"/><rect fill="url(#g1192gvkqdru4l0)" height="49.9674" rx="7.8125" ry="7.8125" style="stroke:#F3F3F3;stroke-width:1.5625;" width="106.25" x="645.8333" y="55.2083"/><text fill="#336699" font-family="Verdana" font-size="12.5" lengthAdjust="spacing" textLength="70.8333" x="663.5417" y="84.5194">Collections</text><rect fill="url(#g1192gvkqdru4l0)" height="49.9674" rx="7.8125" ry="7.8125" style="stroke:#F3F3F3;stroke-width:1.5625;" width="106.25" x="650" y="475.7813"/><rect fill="url(#g1192gvkqdru4l0)" height="49.9674" rx="7.8125" ry="7.8125" style="stroke:#F3F3F3;stroke-width:1.5625;" width="106.25" x="645.8333" y="479.9479"/><text fill="#336699" font-family="Verdana" font-size="12.5" lengthAdjust="spacing" textLength="70.8333" x="663.5417" y="509.259">Collections</text><path d="M803.125,60.4167 L877.0833,60.4167 C882.2917,60.4167 882.2917,83.3171 882.2917,83.3171 C882.2917,83.3171 882.2917,106.2174 877.0833,106.2174 L803.125,106.2174 C797.9167,106.2174 797.9167,83.3171 797.9167,83.3171 C797.9167,83.3171 797.9167,60.4167 803.125,60.4167 " fill="url(#g1192gvkqdru4l0)" style="stroke:#F3F3F3;stroke-width:2.0833333333333335;"/><path d="M877.0833,60.4167 C871.875,60.4167 871.875,83.3171 871.875,83.3171 C871.875,106.2174 877.0833,106.2174 877.0833,106.2174 " fill="none" style="stroke:#F3F3F3;stroke-width:2.0833333333333335;"/><text fill="#336699" font-family="Verdana" font-size="12.5" lengthAdjust="spacing" textLength="42.7083" x="813.5417" y="87.6444">Queue</text><path d="M803.125,475.7813 L877.0833,475.7813 C882.2917,475.7813 882.2917,498.6816 882.2917,498.6816 C882.2917,498.6816 882.2917,521.582 877.0833,521.582 L803.125,521.582 C797.9167,521.582 797.9167,498.6816 797.9167,498.6816 C797.9167,498.6816 797.9167,475.7813 803.125,475.7813 " fill="url(#g1192gvkqdru4l0)" style="stroke:#F3F3F3;stroke-width:2.0833333333333335;"/><path d="M877.0833,475.7813 C871.875,475.7813 871.875,498.6816 871.875,498.6816 C871.875,521.582 877.0833,521.582 877.0833,521.582 " fill="none" style="stroke:#F3F3F3;stroke-width:2.0833333333333335;"/><text fill="#336699" font-family="Verdana" font-size="12.5" lengthAdjust="spacing" textLength="42.7083" x="813.5417" y="503.009">Queue</text><polygon fill="#E2E2E2" points="202.6042,154.1016,213.0208,158.2682,202.6042,162.4349,206.7708,158.2682" style="stroke:#E2E2E2;stroke-width:1.0416666666666667;"/><line style="stroke:#E2E2E2;stroke-width:3.125;" x1="89.5833" x2="208.8542" y1="158.2682" y2="158.2682"/><text fill="#303030" font-family="Verdana" font-size="12.5" lengthAdjust="spacing" textLength="54.1667" x="107.2917" y="142.8202">To actor</text><polygon fill="#E2E2E2" points="288.0208,204.069,298.4375,208.2357,288.0208,212.4023,292.1875,208.2357" style="stroke:#E2E2E2;stroke-width:1.0416666666666667;"/><line style="stroke:#E2E2E2;stroke-width:3.125;" x1="89.5833" x2="294.2708" y1="208.2357" y2="208.2357"/><text fill="#303030" font-family="Verdana" font-size="12.5" lengthAdjust="spacing" textLength="81.25" x="107.2917" y="192.7877">To boundary</text><polygon fill="#E2E2E2" points="379.6875,254.0365,390.1042,258.2031,379.6875,262.3698,383.8542,258.2031" style="stroke:#E2E2E2;stroke-width:1.0416666666666667;"/><line style="stroke:#E2E2E2;stroke-width:3.125;" x1="89.5833" x2="385.9375" y1="258.2031" y2="258.2031"/><text fill="#303030" font-family="Verdana" font-size="12.5" lengthAdjust="spacing" textLength="65.625" x="107.2917" y="242.7551">To control</text><polygon fill="#E2E2E2" points="458.8542,304.0039,469.2708,308.1706,458.8542,312.3372,463.0208,308.1706" style="stroke:#E2E2E2;stroke-width:1.0416666666666667;"/><line style="stroke:#E2E2E2;stroke-width:3.125;" x1="89.5833" x2="465.1042" y1="308.1706" y2="308.1706"/><text fill="#303030" font-family="Verdana" font-size="12.5" lengthAdjust="spacing" textLength="56.25" x="107.2917" y="292.7226">To entity</text><polygon fill="#E2E2E2" points="546.3542,353.9714,556.7708,358.138,546.3542,362.3047,550.5208,358.138" style="stroke:#E2E2E2;stroke-width:1.0416666666666667;"/><line style="stroke:#E2E2E2;stroke-width:3.125;" x1="89.5833" x2="552.6042" y1="358.138" y2="358.138"/><text fill="#303030" font-family="Verdana" font-size="12.5" lengthAdjust="spacing" textLength="82.2917" x="107.2917" y="342.69">To database</text><polygon fill="#E2E2E2" points="688.5417,403.9388,698.9583,408.1055,688.5417,412.2721,692.7083,408.1055" style="stroke:#E2E2E2;stroke-width:1.0416666666666667;"/><line style="stroke:#E2E2E2;stroke-width:3.125;" x1="89.5833" x2="694.7917" y1="408.1055" y2="408.1055"/><text fill="#303030" font-family="Verdana" font-size="12.5" lengthAdjust="spacing" textLength="89.5833" x="107.2917" y="392.6575">To collections</text><polygon fill="#E2E2E2" points="827.6042,453.9063,838.0208,458.0729,827.6042,462.2396,831.7708,458.0729" style="stroke:#E2E2E2;stroke-width:1.0416666666666667;"/><line style="stroke:#E2E2E2;stroke-width:3.125;" x1="89.5833" x2="833.8542" y1="458.0729" y2="458.0729"/><text fill="#303030" font-family="Verdana" font-size="12.5" lengthAdjust="spacing" textLength="61.4583" x="107.2917" y="442.6249">To queue</text></g></svg>