<?xml version="1.0" encoding="UTF-8" standalone="no"?><svg xmlns="http://www.w3.org/2000/svg" xmlns:xlink="http://www.w3.org/1999/xlink" contentScriptType="application/ecmascript" contentStyleType="text/css" height="193px" preserveAspectRatio="none" style="width:180px;height:193px;" version="1.1" viewBox="0 0 180 193" width="180px" zoomAndPan="magnify"><defs><style type="text/css"><![CDATA[*.s_000000_ffffff {stroke:#000000;}*.s_181818_e7e7e7 {stroke:#181818;}*.f_f8f8f8_070707 {fill:#f8f8f8;}*.f_000000_ffffff {fill:#000000;}*.f_181818_e7e7e7 {fill:#181818;}*.f_eeeeee_555555 {fill:#eeeeee;}@media (prefers-color-scheme:dark) {*.s_000000_ffffff {stroke:#ffffff;}*.s_181818_e7e7e7 {stroke:#e7e7e7;}*.f_f8f8f8_070707 {fill:#070707;}*.f_000000_ffffff {fill:#ffffff;}*.f_181818_e7e7e7 {fill:#e7e7e7;}*.f_eeeeee_555555 {fill:#555555;}}]]></style></defs><g><rect class="s_000000_ffffff" height="56.2656" style="stroke-width:2.0;fill:none;" width="157" x="12" y="77.4297"/><line class="s_181818_e7e7e7" style="stroke-width:1.0;fill:none;stroke-dasharray:5.0,5.0;" x1="28" x2="28" y1="36.2969" y2="157.6953"/><line class="s_181818_e7e7e7" style="stroke-width:1.0;fill:none;stroke-dasharray:5.0,5.0;" x1="82" x2="82" y1="36.2969" y2="157.6953"/><line class="s_181818_e7e7e7" style="stroke-width:1.0;fill:none;stroke-dasharray:5.0,5.0;" x1="143.5" x2="143.5" y1="36.2969" y2="157.6953"/><rect class="f_f8f8f8_070707 s_181818_e7e7e7" height="30.2969" style="stroke-width:1.5;" width="46" x="5" y="5"/><text class="f_000000_ffffff" font-family="sans-serif" font-size="14" lengthAdjust="spacing" textLength="32" x="12" y="24.9951">Alice</text><rect class="f_f8f8f8_070707 s_181818_e7e7e7" height="30.2969" style="stroke-width:1.5;" width="42" x="61" y="5"/><text class="f_000000_ffffff" font-family="sans-serif" font-size="14" lengthAdjust="spacing" textLength="28" x="68" y="24.9951">Bob</text><rect class="f_f8f8f8_070707 s_181818_e7e7e7" height="30.2969" style="stroke-width:1.5;" width="61" x="113" y="5"/><text class="f_000000_ffffff" font-family="sans-serif" font-size="14" lengthAdjust="spacing" textLength="47" x="120" y="24.9951">Charlie</text><rect class="f_f8f8f8_070707 s_181818_e7e7e7" height="30.2969" style="stroke-width:1.5;" width="46" x="5" y="157.6953"/><text class="f_000000_ffffff" font-family="sans-serif" font-size="14" lengthAdjust="spacing" textLength="32" x="12" y="177.6904">Alice</text><rect class="f_f8f8f8_070707 s_181818_e7e7e7" height="30.2969" style="stroke-width:1.5;" width="42" x="61" y="157.6953"/><text class="f_000000_ffffff" font-family="sans-serif" font-size="14" lengthAdjust="spacing" textLength="28" x="68" y="177.6904">Bob</text><rect class="f_f8f8f8_070707 s_181818_e7e7e7" height="30.2969" style="stroke-width:1.5;" width="61" x="113" y="157.6953"/><text class="f_000000_ffffff" font-family="sans-serif" font-size="14" lengthAdjust="spacing" textLength="47" x="120" y="177.6904">Charlie</text><polygon class="f_181818_e7e7e7 s_181818_e7e7e7" points="70,61.4297,80,65.4297,70,69.4297,74,65.4297" style="stroke-width:1.0;"/><line class="s_181818_e7e7e7" style="stroke-width:1.0;" x1="28" x2="76" y1="65.4297" y2="65.4297"/><text class="f_000000_ffffff" font-family="sans-serif" font-size="13" lengthAdjust="spacing" textLength="30" x="35" y="60.3638">hello</text><polygon class="f_181818_e7e7e7 s_181818_e7e7e7" points="131.5,61.4297,141.5,65.4297,131.5,69.4297,135.5,65.4297" style="stroke-width:1.0;"/><line class="s_181818_e7e7e7" style="stroke-width:1.0;" x1="82" x2="137.5" y1="65.4297" y2="65.4297"/><text class="f_000000_ffffff" font-family="sans-serif" font-size="13" lengthAdjust="spacing" textLength="11" x="89" y="60.3638">hi</text><path class="f_eeeeee_555555 s_000000_ffffff" d="M12,77.4297 L153,77.4297 L153,84.5625 L143,94.5625 L12,94.5625 L12,77.4297 " style="stroke-width:1.0;"/><rect class="s_000000_ffffff" fill="none" height="56.2656" style="stroke-width:2.0;" width="157" x="12" y="77.4297"/><text class="f_000000_ffffff" font-family="sans-serif" font-size="13" font-weight="bold" lengthAdjust="spacing" textLength="96" x="27" y="90.4966">A teoz group</text><polygon class="f_181818_e7e7e7 s_181818_e7e7e7" points="70,121.6953,80,125.6953,70,129.6953,74,125.6953" style="stroke-width:1.0;"/><line class="s_181818_e7e7e7" style="stroke-width:1.0;" x1="28" x2="76" y1="125.6953" y2="125.6953"/><text class="f_000000_ffffff" font-family="sans-serif" font-size="13" lengthAdjust="spacing" textLength="30" x="35" y="120.6294">hello</text><polygon class="f_181818_e7e7e7 s_181818_e7e7e7" points="131.5,121.6953,141.5,125.6953,131.5,129.6953,135.5,125.6953" style="stroke-width:1.0;"/><line class="s_181818_e7e7e7" style="stroke-width:1.0;" x1="82" x2="137.5" y1="125.6953" y2="125.6953"/><text class="f_000000_ffffff" font-family="sans-serif" font-size="13" lengthAdjust="spacing" textLength="16" x="89" y="120.6294">ha</text></g></svg>