<svg xmlns="http://www.w3.org/2000/svg" xmlns:xlink="http://www.w3.org/1999/xlink" contentStyleType="text/css" height="1118px" preserveAspectRatio="none" style="width:524px;height:1118px;" version="1.1" viewBox="0 0 524 1118" width="524px" zoomAndPan="magnify"><defs><linearGradient id="g1sqgc5u9aopdj0" x1="50%" x2="50%" y1="0%" y2="100%"><stop offset="0%" stop-color="#F4F4F4"/><stop offset="100%" stop-color="#F4F4F4"/></linearGradient></defs><g><rect fill="#F4F4F4" height="398.7813" style="stroke:#C6C6C6;stroke-width:1.0;" width="10" x="272.209" y="302.8125"/><rect fill="#F4F4F4" height="239.875" style="stroke:#C6C6C6;stroke-width:1.0;" width="10" x="277.209" y="358.7813"/><rect fill="#005500" height="117.9375" style="stroke:#C6C6C6;stroke-width:1.0;" width="10" x="282.209" y="419.75"/><line style="stroke:#C6C6C6;stroke-width:0.5;stroke-dasharray:5.0,5.0;" x1="82.7041" x2="82.7041" y1="53.9688" y2="829.5313"/><line style="stroke:#C6C6C6;stroke-width:1.0;stroke-dasharray:1.0,4.0;" x1="82.7041" x2="82.7041" y1="829.5313" y2="877.5313"/><line style="stroke:#C6C6C6;stroke-width:0.5;stroke-dasharray:5.0,5.0;" x1="82.7041" x2="82.7041" y1="877.5313" y2="945.5"/><line style="stroke:#C6C6C6;stroke-width:1.0;stroke-dasharray:1.0,4.0;" x1="82.7041" x2="82.7041" y1="945.5" y2="1007.4688"/><line style="stroke:#C6C6C6;stroke-width:0.5;stroke-dasharray:5.0,5.0;" x1="82.7041" x2="82.7041" y1="1007.4688" y2="1065.4375"/><line style="stroke:#C6C6C6;stroke-width:0.5;stroke-dasharray:5.0,5.0;" x1="276.6133" x2="276.6133" y1="53.9688" y2="829.5313"/><line style="stroke:#C6C6C6;stroke-width:1.0;stroke-dasharray:1.0,4.0;" x1="276.6133" x2="276.6133" y1="829.5313" y2="877.5313"/><line style="stroke:#C6C6C6;stroke-width:0.5;stroke-dasharray:5.0,5.0;" x1="276.6133" x2="276.6133" y1="877.5313" y2="945.5"/><line style="stroke:#C6C6C6;stroke-width:1.0;stroke-dasharray:1.0,4.0;" x1="276.6133" x2="276.6133" y1="945.5" y2="1007.4688"/><line style="stroke:#C6C6C6;stroke-width:0.5;stroke-dasharray:5.0,5.0;" x1="276.6133" x2="276.6133" y1="1007.4688" y2="1065.4375"/><line style="stroke:#C6C6C6;stroke-width:0.5;stroke-dasharray:5.0,5.0;" x1="442.5645" x2="442.5645" y1="472.2344" y2="829.5313"/><line style="stroke:#C6C6C6;stroke-width:1.0;stroke-dasharray:1.0,4.0;" x1="442.5645" x2="442.5645" y1="829.5313" y2="877.5313"/><line style="stroke:#C6C6C6;stroke-width:0.5;stroke-dasharray:5.0,5.0;" x1="442.5645" x2="442.5645" y1="877.5313" y2="945.5"/><line style="stroke:#C6C6C6;stroke-width:1.0;stroke-dasharray:1.0,4.0;" x1="442.5645" x2="442.5645" y1="945.5" y2="1007.4688"/><line style="stroke:#C6C6C6;stroke-width:0.5;stroke-dasharray:5.0,5.0;" x1="442.5645" x2="442.5645" y1="1007.4688" y2="1065.4375"/><rect fill="url(#g1sqgc5u9aopdj0)" height="47.9688" style="stroke:#C6C6C6;stroke-width:0.5;" width="62.8574" x="51.7041" y="5"/><text fill="#262626" font-family="sans-serif" font-size="12" lengthAdjust="spacing" textLength="28.8574" x="68.7041" y="33.1387">Alice</text><rect fill="url(#g1sqgc5u9aopdj0)" height="47.9688" style="stroke:#C6C6C6;stroke-width:0.5;" width="62.8574" x="51.7041" y="1064.4375"/><text fill="#262626" font-family="sans-serif" font-size="12" lengthAdjust="spacing" textLength="28.8574" x="68.7041" y="1092.5762">Alice</text><rect fill="url(#g1sqgc5u9aopdj0)" height="47.9688" style="stroke:#C6C6C6;stroke-width:0.5;" width="57.1914" x="248.6133" y="5"/><text fill="#262626" font-family="sans-serif" font-size="12" lengthAdjust="spacing" textLength="23.1914" x="265.6133" y="33.1387">Bob</text><rect fill="url(#g1sqgc5u9aopdj0)" height="47.9688" style="stroke:#C6C6C6;stroke-width:0.5;" width="57.1914" x="248.6133" y="1064.4375"/><text fill="#262626" font-family="sans-serif" font-size="12" lengthAdjust="spacing" textLength="23.1914" x="265.6133" y="1092.5762">Bob</text><rect fill="url(#g1sqgc5u9aopdj0)" height="47.9688" style="stroke:#C6C6C6;stroke-width:0.5;" width="77.957" x="404.5645" y="1064.4375"/><text fill="#262626" font-family="sans-serif" font-size="12" lengthAdjust="spacing" textLength="43.957" x="421.5645" y="1092.5762">George</text><rect fill="#F4F4F4" height="398.7813" style="stroke:#C6C6C6;stroke-width:1.0;" width="10" x="272.209" y="302.8125"/><rect fill="#F4F4F4" height="239.875" style="stroke:#C6C6C6;stroke-width:1.0;" width="10" x="277.209" y="358.7813"/><rect fill="#005500" height="117.9375" style="stroke:#C6C6C6;stroke-width:1.0;" width="10" x="282.209" y="419.75"/><path d="M5,68.9688 L5,111.9688 L161,111.9688 L161,78.9688 L151,68.9688 L5,68.9688 " fill="#FFFFFF" style="stroke:#262626;stroke-width:1.0;"/><path d="M151,68.9688 L151,78.9688 L161,78.9688 L151,68.9688 " fill="#FFFFFF" style="stroke:#262626;stroke-width:1.0;"/><text fill="#262626" font-family="sans-serif" font-size="12" lengthAdjust="spacing" textLength="115.2656" x="21" y="95.1074">initial state of Alice</text><path d="M201,68.9688 L201,111.9688 L351,111.9688 L351,78.9688 L341,68.9688 L201,68.9688 " fill="#FFFFFF" style="stroke:#262626;stroke-width:1.0;"/><path d="M341,68.9688 L341,78.9688 L351,78.9688 L341,68.9688 " fill="#FFFFFF" style="stroke:#262626;stroke-width:1.0;"/><text fill="#262626" font-family="sans-serif" font-size="12" lengthAdjust="spacing" textLength="109.5996" x="217" y="95.1074">initial state of Bob</text><rect fill="#F4F4F4" height="3" style="stroke:#F4F4F4;stroke-width:1.0;" width="517.5215" x="0" y="147.9219"/><line style="stroke:#C6C6C6;stroke-width:0.5;" x1="0" x2="517.5215" y1="147.9219" y2="147.9219"/><line style="stroke:#C6C6C6;stroke-width:0.5;" x1="0" x2="517.5215" y1="150.9219" y2="150.9219"/><rect fill="#F4F4F4" height="41.9688" style="stroke:#C6C6C6;stroke-width:1.0;" width="123.1914" x="197.165" y="127.9375"/><text fill="#262626" font-family="sans-serif" font-size="12" font-weight="bold" lengthAdjust="spacing" textLength="85.0137" x="213.165" y="153.0762">Initialization</text><rect fill="none" height="77.9375" style="stroke:#C6C6C6;stroke-width:1.5;" width="320.1006" x="18.7041" y="179.9063"/><path d="M18.7041,179.9063 L102.7041,179.9063 L102.7041,204.9063 L92.7041,214.9063 L18.7041,214.9063 L18.7041,179.9063 " fill="#F4F4F4" style="stroke:#C6C6C6;stroke-width:2.0;"/><text fill="#262626" font-family="sans-serif" font-size="12" font-weight="bold" lengthAdjust="spacing" textLength="19.2773" x="41.7041" y="203.0449">ref</text><text fill="#262626" font-family="sans-serif" font-size="12" lengthAdjust="spacing" textLength="18.9785" x="169.2651" y="240.0449">init</text><polygon fill="#C6C6C6" points="260.209,298.8125,270.209,302.8125,260.209,306.8125,264.209,302.8125" style="stroke:#C6C6C6;stroke-width:1.0;"/><line style="stroke:#C6C6C6;stroke-width:1.0;" x1="83.1328" x2="266.209" y1="302.8125" y2="302.8125"/><text fill="#262626" font-family="sans-serif" font-size="12" lengthAdjust="spacing" textLength="28.998" x="100.1328" y="287.9824">hello</text><line style="stroke:#C6C6C6;stroke-width:1.0;" x1="282.209" x2="329.209" y1="345.7813" y2="345.7813"/><line style="stroke:#C6C6C6;stroke-width:1.0;" x1="329.209" x2="329.209" y1="345.7813" y2="358.7813"/><line style="stroke:#C6C6C6;stroke-width:1.0;" x1="288.209" x2="329.209" y1="358.7813" y2="358.7813"/><polygon fill="#C6C6C6" points="298.209,354.7813,288.209,358.7813,298.209,362.7813,294.209,358.7813" style="stroke:#C6C6C6;stroke-width:1.0;"/><text fill="#262626" font-family="sans-serif" font-size="12" lengthAdjust="spacing" textLength="45.627" x="304.209" y="330.9512">self call</text><line style="stroke:#C6C6C6;stroke-width:1.0;" x1="287.209" x2="334.209" y1="406.75" y2="406.75"/><line style="stroke:#C6C6C6;stroke-width:1.0;" x1="334.209" x2="334.209" y1="406.75" y2="419.75"/><line style="stroke:#C6C6C6;stroke-width:1.0;" x1="293.209" x2="334.209" y1="419.75" y2="419.75"/><polygon fill="#C6C6C6" points="303.209,415.75,293.209,419.75,303.209,423.75,299.209,419.75" style="stroke:#C6C6C6;stroke-width:1.0;"/><text fill="#262626" font-family="sans-serif" font-size="12" lengthAdjust="spacing" textLength="28.998" x="309.209" y="391.9199">hello</text><polygon fill="#C6C6C6" points="392.5645,468.7188,402.5645,472.7188,392.5645,476.7188,396.5645,472.7188" style="stroke:#C6C6C6;stroke-width:1.0;"/><line style="stroke:#C6C6C6;stroke-width:1.0;" x1="292.209" x2="398.5645" y1="472.7188" y2="472.7188"/><text fill="#262626" font-family="sans-serif" font-size="12" lengthAdjust="spacing" textLength="38.3555" x="309.209" y="457.8887">create</text><rect fill="url(#g1sqgc5u9aopdj0)" height="47.9688" style="stroke:#C6C6C6;stroke-width:0.5;" width="77.957" x="404.5645" y="432.75"/><text fill="#262626" font-family="sans-serif" font-size="12" lengthAdjust="spacing" textLength="43.957" x="421.5645" y="460.8887">George</text><line style="stroke:#C6C6C6;stroke-width:1.0;stroke-dasharray:2.0,2.0;" x1="292.209" x2="334.209" y1="536.6875" y2="536.6875"/><line style="stroke:#C6C6C6;stroke-width:1.0;stroke-dasharray:2.0,2.0;" x1="334.209" x2="334.209" y1="536.6875" y2="549.6875"/><line style="stroke:#C6C6C6;stroke-width:1.0;stroke-dasharray:2.0,2.0;" x1="287.209" x2="334.209" y1="549.6875" y2="549.6875"/><polygon fill="#C6C6C6" points="297.209,545.6875,287.209,549.6875,297.209,553.6875,293.209,549.6875" style="stroke:#C6C6C6;stroke-width:1.0;"/><text fill="#262626" font-family="sans-serif" font-size="12" lengthAdjust="spacing" textLength="29.9473" x="309.209" y="521.8574">done</text><line style="stroke:#C6C6C6;stroke-width:1.0;stroke-dasharray:2.0,2.0;" x1="287.209" x2="329.209" y1="597.6563" y2="597.6563"/><line style="stroke:#C6C6C6;stroke-width:1.0;stroke-dasharray:2.0,2.0;" x1="329.209" x2="329.209" y1="597.6563" y2="610.6563"/><line style="stroke:#C6C6C6;stroke-width:1.0;stroke-dasharray:2.0,2.0;" x1="282.209" x2="329.209" y1="610.6563" y2="610.6563"/><polygon fill="#C6C6C6" points="292.209,606.6563,282.209,610.6563,292.209,614.6563,288.209,610.6563" style="stroke:#C6C6C6;stroke-width:1.0;"/><text fill="#262626" font-family="sans-serif" font-size="12" lengthAdjust="spacing" textLength="11.5313" x="304.209" y="582.8262">rc</text><polygon fill="#C6C6C6" points="431.543,649.625,441.543,653.625,431.543,657.625,435.543,653.625" style="stroke:#C6C6C6;stroke-width:1.0;"/><line style="stroke:#C6C6C6;stroke-width:1.0;" x1="282.209" x2="437.543" y1="653.625" y2="653.625"/><text fill="#262626" font-family="sans-serif" font-size="12" lengthAdjust="spacing" textLength="37.8047" x="299.209" y="638.7949">delete</text><line style="stroke:#C6C6C6;stroke-width:2.0;" x1="434.543" x2="452.543" y1="644.625" y2="662.625"/><line style="stroke:#C6C6C6;stroke-width:2.0;" x1="434.543" x2="452.543" y1="662.625" y2="644.625"/><polygon fill="#C6C6C6" points="94.1328,697.5938,84.1328,701.5938,94.1328,705.5938,90.1328,701.5938" style="stroke:#C6C6C6;stroke-width:1.0;"/><line style="stroke:#C6C6C6;stroke-width:1.0;stroke-dasharray:2.0,2.0;" x1="88.1328" x2="276.209" y1="701.5938" y2="701.5938"/><text fill="#262626" font-family="sans-serif" font-size="12" lengthAdjust="spacing" textLength="46.9395" x="110.1328" y="686.7637">success</text><rect fill="#F4F4F4" height="3" style="stroke:#F4F4F4;stroke-width:1.0;" width="517.5215" x="0" y="739.5781"/><line style="stroke:#C6C6C6;stroke-width:0.5;" x1="0" x2="517.5215" y1="739.5781" y2="739.5781"/><line style="stroke:#C6C6C6;stroke-width:0.5;" x1="0" x2="517.5215" y1="742.5781" y2="742.5781"/><rect fill="#F4F4F4" height="41.9688" style="stroke:#C6C6C6;stroke-width:1.0;" width="137.8105" x="189.8555" y="719.5938"/><text fill="#262626" font-family="sans-serif" font-size="12" font-weight="bold" lengthAdjust="spacing" textLength="99.6328" x="205.8555" y="744.7324">Delay example</text><polygon fill="#C6C6C6" points="265.4281,817.022,275.209,821.5313,265.0164,825.0114,269.2169,821.2225" style="stroke:#C6C6C6;stroke-width:1.0;"/><line style="stroke:#C6C6C6;stroke-width:1.0;" x1="83.1328" x2="275.209" y1="811.5313" y2="821.5313"/><text fill="#262626" font-family="sans-serif" font-size="12" lengthAdjust="spacing" textLength="141.1875" x="100.1328" y="796.7012">Authentication Request</text><polygon fill="#C6C6C6" points="93.9137,922.9907,84.1328,927.5,94.3254,930.9801,90.1249,927.1913" style="stroke:#C6C6C6;stroke-width:1.0;"/><line style="stroke:#C6C6C6;stroke-width:1.0;stroke-dasharray:2.0,2.0;" x1="276.209" x2="83.1328" y1="917.5" y2="927.5"/><text fill="#262626" font-family="sans-serif" font-size="12" lengthAdjust="spacing" textLength="150.0762" x="110.1328" y="902.6699">Authentication Response</text><text fill="#000000" font-family="sans-serif" font-size="12" lengthAdjust="spacing" textLength="91.5469" x="217.5645" y="980.6387">5 minutes later</text><polygon fill="#C6C6C6" points="94.1328,1043.4375,84.1328,1047.4375,94.1328,1051.4375,90.1328,1047.4375" style="stroke:#C6C6C6;stroke-width:1.0;"/><line style="stroke:#C6C6C6;stroke-width:1.0;stroke-dasharray:2.0,2.0;" x1="88.1328" x2="276.209" y1="1047.4375" y2="1047.4375"/><text fill="#262626" font-family="sans-serif" font-size="12" lengthAdjust="spacing" textLength="66.7559" x="110.1328" y="1032.6074">Good Bye !</text></g></svg>