<?xml version="1.0" encoding="UTF-8" standalone="no"?><svg xmlns="http://www.w3.org/2000/svg" xmlns:xlink="http://www.w3.org/1999/xlink" contentScriptType="application/ecmascript" contentStyleType="text/css" height="367px" preserveAspectRatio="none" style="width:538px;height:367px;background:#777777;" version="1.1" viewBox="0 0 538 367" width="538px" zoomAndPan="magnify"><defs/><g><line style="stroke:#228811;stroke-width:1.0;stroke-dasharray:5.0,5.0;" x1="42" x2="42" y1="80.8047" y2="288.4375"/><line style="stroke:#228811;stroke-width:1.0;stroke-dasharray:5.0,5.0;" x1="112.5" x2="112.5" y1="80.8047" y2="288.4375"/><line style="stroke:#228811;stroke-width:1.0;stroke-dasharray:5.0,5.0;" x1="170.5" x2="170.5" y1="80.8047" y2="288.4375"/><line style="stroke:#228811;stroke-width:1.0;stroke-dasharray:5.0,5.0;" x1="233.5" x2="233.5" y1="80.8047" y2="288.4375"/><line style="stroke:#228811;stroke-width:1.0;stroke-dasharray:5.0,5.0;" x1="285.5" x2="285.5" y1="80.8047" y2="288.4375"/><line style="stroke:#228811;stroke-width:1.0;stroke-dasharray:5.0,5.0;" x1="344.5" x2="344.5" y1="80.8047" y2="288.4375"/><line style="stroke:#228811;stroke-width:1.0;stroke-dasharray:5.0,5.0;" x1="424.5" x2="424.5" y1="80.8047" y2="288.4375"/><line style="stroke:#228811;stroke-width:1.0;stroke-dasharray:5.0,5.0;" x1="502.5" x2="502.5" y1="80.8047" y2="288.4375"/><rect fill="#2E2E2E" height="26.8047" style="stroke:#1B1B1B;stroke-width:1.5;" width="74" x="5" y="53"/><text fill="#FFFFFF" font-family="Verdana" font-size="11" lengthAdjust="spacing" textLength="60" x="12" y="70.2104">Participant</text><rect fill="#2E2E2E" height="26.8047" style="stroke:#1B1B1B;stroke-width:1.5;" width="74" x="5" y="287.4375"/><text fill="#FFFFFF" font-family="Verdana" font-size="11" lengthAdjust="spacing" textLength="60" x="12" y="304.6479">Participant</text><text fill="#FFFFFF" font-family="Verdana" font-size="11" lengthAdjust="spacing" textLength="29" x="95.5" y="78.2104">Actor</text><ellipse cx="113" cy="15" fill="#228811" rx="8" ry="8" style="stroke:#113300;stroke-width:2.0;"/><path d="M113,23 L113,50 M100,31 L126,31 M113,50 L100,65 M113,50 L126,65 " fill="none" style="stroke:#113300;stroke-width:2.0;"/><text fill="#FFFFFF" font-family="Verdana" font-size="11" lengthAdjust="spacing" textLength="29" x="95.5" y="297.6479">Actor</text><ellipse cx="113" cy="310.2422" fill="#228811" rx="8" ry="8" style="stroke:#113300;stroke-width:2.0;"/><path d="M113,318.2422 L113,345.2422 M100,326.2422 L126,326.2422 M113,345.2422 L100,360.2422 M113,345.2422 L126,360.2422 " fill="none" style="stroke:#113300;stroke-width:2.0;"/><text fill="#FFFFFF" font-family="Verdana" font-size="11" lengthAdjust="spacing" textLength="54" x="140.5" y="78.2104">Boundary</text><path d="M150,40 L150,64 M150,52 L167,52 " fill="none" style="stroke:#113300;stroke-width:2.0;"/><ellipse cx="179" cy="52" fill="#228811" rx="12" ry="12" style="stroke:#113300;stroke-width:2.0;"/><text fill="#FFFFFF" font-family="Verdana" font-size="11" lengthAdjust="spacing" textLength="54" x="140.5" y="297.6479">Boundary</text><path d="M150,304.2422 L150,328.2422 M150,316.2422 L167,316.2422 " fill="none" style="stroke:#113300;stroke-width:2.0;"/><ellipse cx="179" cy="316.2422" fill="#228811" rx="12" ry="12" style="stroke:#113300;stroke-width:2.0;"/><text fill="#FFFFFF" font-family="Verdana" font-size="11" lengthAdjust="spacing" textLength="41" x="210.5" y="78.2104">Control</text><ellipse cx="234" cy="52" fill="#228811" rx="12" ry="12" style="stroke:#113300;stroke-width:2.0;"/><polygon fill="#113300" points="230,40,236,35,234,40,236,45,230,40" style="stroke:#113300;stroke-width:1.0;"/><text fill="#FFFFFF" font-family="Verdana" font-size="11" lengthAdjust="spacing" textLength="41" x="210.5" y="297.6479">Control</text><ellipse cx="234" cy="316.2422" fill="#228811" rx="12" ry="12" style="stroke:#113300;stroke-width:2.0;"/><polygon fill="#113300" points="230,304.2422,236,299.2422,234,304.2422,236,309.2422,230,304.2422" style="stroke:#113300;stroke-width:1.0;"/><text fill="#FFFFFF" font-family="Verdana" font-size="11" lengthAdjust="spacing" textLength="31" x="267.5" y="78.2104">Entity</text><ellipse cx="286" cy="52" fill="#228811" rx="12" ry="12" style="stroke:#113300;stroke-width:2.0;"/><line style="stroke:#113300;stroke-width:2.0;" x1="274" x2="298" y1="66" y2="66"/><text fill="#FFFFFF" font-family="Verdana" font-size="11" lengthAdjust="spacing" textLength="31" x="267.5" y="297.6479">Entity</text><ellipse cx="286" cy="316.2422" fill="#228811" rx="12" ry="12" style="stroke:#113300;stroke-width:2.0;"/><line style="stroke:#113300;stroke-width:2.0;" x1="274" x2="298" y1="330.2422" y2="330.2422"/><text fill="#FFFFFF" font-family="Verdana" font-size="11" lengthAdjust="spacing" textLength="54" x="314.5" y="78.2104">Database</text><path d="M326.5,32 C326.5,22 344.5,22 344.5,22 C344.5,22 362.5,22 362.5,32 L362.5,58 C362.5,68 344.5,68 344.5,68 C344.5,68 326.5,68 326.5,58 L326.5,32 " fill="#2E2E2E" style="stroke:#1B1B1B;stroke-width:1.5;"/><path d="M326.5,32 C326.5,42 344.5,42 344.5,42 C344.5,42 362.5,42 362.5,32 " fill="none" style="stroke:#1B1B1B;stroke-width:1.5;"/><text fill="#FFFFFF" font-family="Verdana" font-size="11" lengthAdjust="spacing" textLength="54" x="314.5" y="297.6479">Database</text><path d="M326.5,310.2422 C326.5,300.2422 344.5,300.2422 344.5,300.2422 C344.5,300.2422 362.5,300.2422 362.5,310.2422 L362.5,336.2422 C362.5,346.2422 344.5,346.2422 344.5,346.2422 C344.5,346.2422 326.5,346.2422 326.5,336.2422 L326.5,310.2422 " fill="#2E2E2E" style="stroke:#1B1B1B;stroke-width:1.5;"/><path d="M326.5,310.2422 C326.5,320.2422 344.5,320.2422 344.5,320.2422 C344.5,320.2422 362.5,320.2422 362.5,310.2422 " fill="none" style="stroke:#1B1B1B;stroke-width:1.5;"/><rect fill="#2E2E2E" height="26.8047" style="stroke:#1B1B1B;stroke-width:1.5;" width="76" x="388.5" y="49"/><rect fill="#2E2E2E" height="26.8047" style="stroke:#1B1B1B;stroke-width:1.5;" width="76" x="384.5" y="53"/><text fill="#FFFFFF" font-family="Verdana" font-size="11" lengthAdjust="spacing" textLength="62" x="391.5" y="70.2104">Collections</text><rect fill="#2E2E2E" height="26.8047" style="stroke:#1B1B1B;stroke-width:1.5;" width="76" x="388.5" y="287.4375"/><rect fill="#2E2E2E" height="26.8047" style="stroke:#1B1B1B;stroke-width:1.5;" width="76" x="384.5" y="291.4375"/><text fill="#FFFFFF" font-family="Verdana" font-size="11" lengthAdjust="spacing" textLength="62" x="391.5" y="308.6479">Collections</text><path d="M479.5,58 L526.5,58 C531.5,58 531.5,69.4023 531.5,69.4023 C531.5,69.4023 531.5,80.8047 526.5,80.8047 L479.5,80.8047 C474.5,80.8047 474.5,69.4023 474.5,69.4023 C474.5,69.4023 474.5,58 479.5,58 " fill="#2E2E2E" style="stroke:#1B1B1B;stroke-width:2.0;"/><path d="M526.5,58 C521.5,58 521.5,69.4023 521.5,69.4023 C521.5,80.8047 526.5,80.8047 526.5,80.8047 " fill="none" style="stroke:#1B1B1B;stroke-width:2.0;"/><text fill="#FFFFFF" font-family="Verdana" font-size="11" lengthAdjust="spacing" textLength="37" x="479.5" y="73.2104">Queue</text><path d="M479.5,287.4375 L526.5,287.4375 C531.5,287.4375 531.5,298.8398 531.5,298.8398 C531.5,298.8398 531.5,310.2422 526.5,310.2422 L479.5,310.2422 C474.5,310.2422 474.5,298.8398 474.5,298.8398 C474.5,298.8398 474.5,287.4375 479.5,287.4375 " fill="#2E2E2E" style="stroke:#1B1B1B;stroke-width:2.0;"/><path d="M526.5,287.4375 C521.5,287.4375 521.5,298.8398 521.5,298.8398 C521.5,310.2422 526.5,310.2422 526.5,310.2422 " fill="none" style="stroke:#1B1B1B;stroke-width:2.0;"/><text fill="#FFFFFF" font-family="Verdana" font-size="11" lengthAdjust="spacing" textLength="37" x="479.5" y="302.6479">Queue</text><polygon fill="#FFFFFF" points="101,105.6094,111,109.6094,101,113.6094,105,109.6094" style="stroke:#FFFFFF;stroke-width:1.0;"/><line style="stroke:#FFFFFF;stroke-width:1.0;" x1="42" x2="107" y1="109.6094" y2="109.6094"/><text fill="#BBBBBB" font-family="Verdana" font-size="11" lengthAdjust="spacing" textLength="47" x="49" y="105.0151">To actor</text><polygon fill="#FFFFFF" points="158.5,132.4141,168.5,136.4141,158.5,140.4141,162.5,136.4141" style="stroke:#FFFFFF;stroke-width:1.0;"/><line style="stroke:#FFFFFF;stroke-width:1.0;" x1="42" x2="164.5" y1="136.4141" y2="136.4141"/><text fill="#BBBBBB" font-family="Verdana" font-size="11" lengthAdjust="spacing" textLength="71" x="49" y="131.8198">To boundary</text><polygon fill="#FFFFFF" points="222,159.2188,232,163.2188,222,167.2188,226,163.2188" style="stroke:#FFFFFF;stroke-width:1.0;"/><line style="stroke:#FFFFFF;stroke-width:1.0;" x1="42" x2="228" y1="163.2188" y2="163.2188"/><text fill="#BBBBBB" font-family="Verdana" font-size="11" lengthAdjust="spacing" textLength="57" x="49" y="158.6245">To control</text><polygon fill="#FFFFFF" points="274,186.0234,284,190.0234,274,194.0234,278,190.0234" style="stroke:#FFFFFF;stroke-width:1.0;"/><line style="stroke:#FFFFFF;stroke-width:1.0;" x1="42" x2="280" y1="190.0234" y2="190.0234"/><text fill="#BBBBBB" font-family="Verdana" font-size="11" lengthAdjust="spacing" textLength="49" x="49" y="185.4292">To entity</text><polygon fill="#FFFFFF" points="332.5,212.8281,342.5,216.8281,332.5,220.8281,336.5,216.8281" style="stroke:#FFFFFF;stroke-width:1.0;"/><line style="stroke:#FFFFFF;stroke-width:1.0;" x1="42" x2="338.5" y1="216.8281" y2="216.8281"/><text fill="#BBBBBB" font-family="Verdana" font-size="11" lengthAdjust="spacing" textLength="71" x="49" y="212.2339">To database</text><polygon fill="#FFFFFF" points="412.5,239.6328,422.5,243.6328,412.5,247.6328,416.5,243.6328" style="stroke:#FFFFFF;stroke-width:1.0;"/><line style="stroke:#FFFFFF;stroke-width:1.0;" x1="42" x2="418.5" y1="243.6328" y2="243.6328"/><text fill="#BBBBBB" font-family="Verdana" font-size="11" lengthAdjust="spacing" textLength="78" x="49" y="239.0386">To collections</text><polygon fill="#FFFFFF" points="491,266.4375,501,270.4375,491,274.4375,495,270.4375" style="stroke:#FFFFFF;stroke-width:1.0;"/><line style="stroke:#FFFFFF;stroke-width:1.0;" x1="42" x2="497" y1="270.4375" y2="270.4375"/><text fill="#BBBBBB" font-family="Verdana" font-size="11" lengthAdjust="spacing" textLength="53" x="49" y="265.8433">To queue</text></g></svg>