<?xml version="1.0" encoding="UTF-8" standalone="no"?><svg xmlns="http://www.w3.org/2000/svg" xmlns:xlink="http://www.w3.org/1999/xlink" contentStyleType="text/css" height="286.4583px" preserveAspectRatio="none" style="width:392px;height:286px;" version="1.1" viewBox="0 0 392 286" width="392.7083px" zoomAndPan="magnify"><defs><linearGradient id="g1gpwpuj558rvd0" x1="50%" x2="50%" y1="0%" y2="100%"><stop offset="0%" stop-color="#EEEEEE"/><stop offset="100%" stop-color="#BEBEBE"/></linearGradient></defs><g><rect fill="url(#g1gpwpuj558rvd0)" height="89.5182" rx="7.8125" ry="7.8125" style="stroke:url(#g1gpwpuj558rvd0);stroke-width:1.0416666666666667;" width="304.1667" x="55.7292" y="115.5599"/><line style="stroke:#ABABAB;stroke-width:1.0416666666666667;stroke-dasharray:5.0,5.0;" x1="72.3958" x2="72.3958" y1="57.2591" y2="230.0781"/><line style="stroke:#ABABAB;stroke-width:1.0416666666666667;stroke-dasharray:5.0,5.0;" x1="204.1667" x2="204.1667" y1="57.2591" y2="230.0781"/><line style="stroke:#ABABAB;stroke-width:1.0416666666666667;stroke-dasharray:5.0,5.0;" x1="343.2292" x2="343.2292" y1="57.2591" y2="230.0781"/><rect fill="url(#g1gpwpuj558rvd0)" height="45.8008" rx="7.8125" ry="7.8125" style="stroke:#F1F1F1;stroke-width:1.0416666666666667;" width="61.4583" x="41.6667" y="10.4167"/><text fill="#336699" font-family="Verdana" font-size="12.5" lengthAdjust="spacing" textLength="30.2083" x="57.2917" y="37.6444">Alice</text><rect fill="url(#g1gpwpuj558rvd0)" height="45.8008" rx="7.8125" ry="7.8125" style="stroke:#F1F1F1;stroke-width:1.0416666666666667;" width="56.25" x="176.0417" y="10.4167"/><text fill="#336699" font-family="Verdana" font-size="12.5" lengthAdjust="spacing" textLength="25" x="191.6667" y="37.6444">Bob</text><rect fill="url(#g1gpwpuj558rvd0)" height="45.8008" rx="7.8125" ry="7.8125" style="stroke:#F1F1F1;stroke-width:1.0416666666666667;" width="76.0417" x="305.2083" y="10.4167"/><text fill="#336699" font-family="Verdana" font-size="12.5" lengthAdjust="spacing" textLength="44.7917" x="320.8333" y="37.6444">Charlie</text><rect fill="url(#g1gpwpuj558rvd0)" height="45.8008" rx="7.8125" ry="7.8125" style="stroke:#F1F1F1;stroke-width:1.0416666666666667;" width="61.4583" x="41.6667" y="230.0781"/><text fill="#336699" font-family="Verdana" font-size="12.5" lengthAdjust="spacing" textLength="30.2083" x="57.2917" y="257.3059">Alice</text><rect fill="url(#g1gpwpuj558rvd0)" height="45.8008" rx="7.8125" ry="7.8125" style="stroke:#F1F1F1;stroke-width:1.0416666666666667;" width="56.25" x="176.0417" y="230.0781"/><text fill="#336699" font-family="Verdana" font-size="12.5" lengthAdjust="spacing" textLength="25" x="191.6667" y="257.3059">Bob</text><rect fill="url(#g1gpwpuj558rvd0)" height="45.8008" rx="7.8125" ry="7.8125" style="stroke:#F1F1F1;stroke-width:1.0416666666666667;" width="76.0417" x="305.2083" y="230.0781"/><text fill="#336699" font-family="Verdana" font-size="12.5" lengthAdjust="spacing" textLength="44.7917" x="320.8333" y="257.3059">Charlie</text><polygon fill="#EEEEEE" points="191.6667,98.8932,202.0833,103.0599,191.6667,107.2266,195.8333,103.0599" style="stroke:#EEEEEE;stroke-width:1.0416666666666667;"/><line style="stroke:#EEEEEE;stroke-width:3.125;" x1="72.3958" x2="197.9167" y1="103.0599" y2="103.0599"/><text fill="#303030" font-family="Verdana" font-size="12.5" lengthAdjust="spacing" textLength="31.25" x="88.0208" y="89.6952">hello</text><polygon fill="#EEEEEE" points="330.7292,98.8932,341.1458,103.0599,330.7292,107.2266,334.8958,103.0599" style="stroke:#EEEEEE;stroke-width:1.0416666666666667;"/><line style="stroke:#EEEEEE;stroke-width:3.125;" x1="204.1667" x2="336.9792" y1="103.0599" y2="103.0599"/><text fill="#303030" font-family="Verdana" font-size="12.5" lengthAdjust="spacing" textLength="11.4583" x="219.7917" y="89.6952">hi</text><path d="M63.5417,115.5599 L214.0625,115.5599 L214.0625,138.444 L203.6458,148.8607 L55.7292,148.8607 L55.7292,123.3724 A7.8125,7.8125 0 0 1 63.5417,115.5599 " fill="#D6D6D6" style="stroke:#737373;stroke-width:1.0416666666666667;"/><rect fill="none" height="89.5182" rx="7.8125" ry="7.8125" style="stroke:#F1F1F1;stroke-width:1.0416666666666667;" width="304.1667" x="55.7292" y="115.5599"/><text fill="#336699" font-family="Verdana" font-size="12.5" font-weight="bold" lengthAdjust="spacing" textLength="94.7917" x="79.6875" y="136.5377">A teoz group</text><polygon fill="#EEEEEE" points="191.6667,192.5781,202.0833,196.7448,191.6667,200.9115,195.8333,196.7448" style="stroke:#EEEEEE;stroke-width:1.0416666666666667;"/><line style="stroke:#EEEEEE;stroke-width:3.125;" x1="72.3958" x2="197.9167" y1="196.7448" y2="196.7448"/><text fill="#303030" font-family="Verdana" font-size="12.5" lengthAdjust="spacing" textLength="31.25" x="88.0208" y="183.3801">hello</text><polygon fill="#EEEEEE" points="330.7292,192.5781,341.1458,196.7448,330.7292,200.9115,334.8958,196.7448" style="stroke:#EEEEEE;stroke-width:1.0416666666666667;"/><line style="stroke:#EEEEEE;stroke-width:3.125;" x1="204.1667" x2="336.9792" y1="196.7448" y2="196.7448"/><text fill="#303030" font-family="Verdana" font-size="12.5" lengthAdjust="spacing" textLength="16.6667" x="219.7917" y="183.3801">ha</text></g></svg>