<?xml version="1.0" encoding="UTF-8" standalone="no"?><svg xmlns="http://www.w3.org/2000/svg" xmlns:xlink="http://www.w3.org/1999/xlink" contentScriptType="application/ecmascript" contentStyleType="text/css" height="255.2083px" preserveAspectRatio="none" style="width:426px;height:255px;background:#00000000;" version="1.1" viewBox="0 0 426 255" width="426.0417px" zoomAndPan="magnify"><defs/><g><rect height="77.0182" rx="4.1667" ry="4.1667" style="stroke:#2A9FD6;stroke-width:1.0416666666666667;fill:none;" width="333.3333" x="63.0208" y="103.0599"/><line style="stroke:#555555;stroke-width:1.0416666666666667;fill:none;stroke-dasharray:5.0,5.0;" x1="79.6875" x2="79.6875" y1="51.0091" y2="205.0781"/><line style="stroke:#555555;stroke-width:1.0416666666666667;fill:none;stroke-dasharray:5.0,5.0;" x1="226.0417" x2="226.0417" y1="51.0091" y2="205.0781"/><line style="stroke:#555555;stroke-width:1.0416666666666667;fill:none;stroke-dasharray:5.0,5.0;" x1="379.6875" x2="379.6875" y1="51.0091" y2="205.0781"/><rect height="39.5508" rx="4.1667" ry="4.1667" style="stroke:#55B2DE;stroke-width:1.0416666666666667;fill:none;" width="55.2083" x="52.0833" y="10.4167"/><text fill="#2A9FD6" font-family="&quot;Verdana&quot;" font-size="12.5" lengthAdjust="spacing" textLength="30.2083" x="64.5833" y="34.5194">Alice</text><rect height="39.5508" rx="4.1667" ry="4.1667" style="stroke:#55B2DE;stroke-width:1.0416666666666667;fill:none;" width="50" x="201.0417" y="10.4167"/><text fill="#2A9FD6" font-family="&quot;Verdana&quot;" font-size="12.5" lengthAdjust="spacing" textLength="25" x="213.5417" y="34.5194">Bob</text><rect height="39.5508" rx="4.1667" ry="4.1667" style="stroke:#55B2DE;stroke-width:1.0416666666666667;fill:none;" width="69.7917" x="344.7917" y="10.4167"/><text fill="#2A9FD6" font-family="&quot;Verdana&quot;" font-size="12.5" lengthAdjust="spacing" textLength="44.7917" x="357.2917" y="34.5194">Charlie</text><rect height="39.5508" rx="4.1667" ry="4.1667" style="stroke:#55B2DE;stroke-width:1.0416666666666667;fill:none;" width="55.2083" x="52.0833" y="205.0781"/><text fill="#2A9FD6" font-family="&quot;Verdana&quot;" font-size="12.5" lengthAdjust="spacing" textLength="30.2083" x="64.5833" y="229.1809">Alice</text><rect height="39.5508" rx="4.1667" ry="4.1667" style="stroke:#55B2DE;stroke-width:1.0416666666666667;fill:none;" width="50" x="201.0417" y="205.0781"/><text fill="#2A9FD6" font-family="&quot;Verdana&quot;" font-size="12.5" lengthAdjust="spacing" textLength="25" x="213.5417" y="229.1809">Bob</text><rect height="39.5508" rx="4.1667" ry="4.1667" style="stroke:#55B2DE;stroke-width:1.0416666666666667;fill:none;" width="69.7917" x="344.7917" y="205.0781"/><text fill="#2A9FD6" font-family="&quot;Verdana&quot;" font-size="12.5" lengthAdjust="spacing" textLength="44.7917" x="357.2917" y="229.1809">Charlie</text><polygon fill="#2A9FD6" points="213.5417,86.3932,223.9583,90.5599,213.5417,94.7266,217.7083,90.5599" style="stroke:#2A9FD6;stroke-width:1.0416666666666667;"/><line style="stroke:#2A9FD6;stroke-width:3.125;" x1="79.6875" x2="219.7917" y1="90.5599" y2="90.5599"/><text fill="#FFFFFF" font-family="&quot;Verdana&quot;" font-size="12.5" lengthAdjust="spacing" textLength="31.25" x="92.1875" y="80.3202">hello</text><polygon fill="#2A9FD6" points="367.1875,86.3932,377.6042,90.5599,367.1875,94.7266,371.3542,90.5599" style="stroke:#2A9FD6;stroke-width:1.0416666666666667;"/><line style="stroke:#2A9FD6;stroke-width:3.125;" x1="226.0417" x2="373.4375" y1="90.5599" y2="90.5599"/><text fill="#FFFFFF" font-family="&quot;Verdana&quot;" font-size="12.5" lengthAdjust="spacing" textLength="11.4583" x="238.5417" y="80.3202">hi</text><path d="M67.1875,103.0599 L215.1042,103.0599 L215.1042,119.694 L204.6875,130.1107 L63.0208,130.1107 L63.0208,107.2266 A4.1667,4.1667 0 0 1 67.1875,103.0599 " style="stroke:#ADAFAE;stroke-width:1.0416666666666667;fill:none;"/><rect fill="none" height="77.0182" rx="4.1667" ry="4.1667" style="stroke:#2A9FD6;stroke-width:1.0416666666666667;" width="333.3333" x="63.0208" y="103.0599"/><text fill="#9933CC" font-family="&quot;Verdana&quot;" font-size="12.5" font-weight="bold" lengthAdjust="spacing" textLength="94.7917" x="83.8542" y="120.9127">A teoz group</text><polygon fill="#2A9FD6" points="213.5417,167.5781,223.9583,171.7448,213.5417,175.9115,217.7083,171.7448" style="stroke:#2A9FD6;stroke-width:1.0416666666666667;"/><line style="stroke:#2A9FD6;stroke-width:3.125;" x1="79.6875" x2="219.7917" y1="171.7448" y2="171.7448"/><text fill="#FFFFFF" font-family="&quot;Verdana&quot;" font-size="12.5" lengthAdjust="spacing" textLength="31.25" x="92.1875" y="161.5051">hello</text><polygon fill="#2A9FD6" points="367.1875,167.5781,377.6042,171.7448,367.1875,175.9115,371.3542,171.7448" style="stroke:#2A9FD6;stroke-width:1.0416666666666667;"/><line style="stroke:#2A9FD6;stroke-width:3.125;" x1="226.0417" x2="373.4375" y1="171.7448" y2="171.7448"/><text fill="#FFFFFF" font-family="&quot;Verdana&quot;" font-size="12.5" lengthAdjust="spacing" textLength="16.6667" x="238.5417" y="161.5051">ha</text></g></svg>