<svg xmlns="http://www.w3.org/2000/svg" xmlns:xlink="http://www.w3.org/1999/xlink" contentStyleType="text/css" height="770.8333px" preserveAspectRatio="none" style="width:432px;height:770px;background:#FDF6E3;" version="1.1" viewBox="0 0 432 770" width="432.2917px" zoomAndPan="magnify"><defs/><g><rect fill="#FDF6E3" height="770.8333" style="stroke:none;stroke-width:1.0416666666666667;" width="432.2917" x="0" y="0"/><rect fill="#FFFFFF" height="279.2643" style="stroke:#B58900;stroke-width:1.0416666666666667;" width="10.4167" x="265.1042" y="197.996"/><rect fill="#FFFFFF" height="172.5993" style="stroke:#B58900;stroke-width:1.0416666666666667;" width="10.4167" x="270.3125" y="236.676"/><rect fill="#005500" height="84.8226" style="stroke:#B58900;stroke-width:1.0416666666666667;" width="10.4167" x="275.5208" y="280.5644"/><line style="stroke:#B58900;stroke-width:0.5208333333333334;stroke-dasharray:5.0,5.0;" x1="80.7292" x2="80.7292" y1="37.8092" y2="571.4325"/><line style="stroke:#B58900;stroke-width:1.0416666666666667;stroke-dasharray:1.0,4.0;" x1="80.7292" x2="80.7292" y1="571.4325" y2="600.5992"/><line style="stroke:#B58900;stroke-width:0.5208333333333334;stroke-dasharray:5.0,5.0;" x1="80.7292" x2="80.7292" y1="600.5992" y2="651.7792"/><line style="stroke:#B58900;stroke-width:1.0416666666666667;stroke-dasharray:1.0,4.0;" x1="80.7292" x2="80.7292" y1="651.7792" y2="694.2841"/><line style="stroke:#B58900;stroke-width:0.5208333333333334;stroke-dasharray:5.0,5.0;" x1="80.7292" x2="80.7292" y1="694.2841" y2="735.0474"/><line style="stroke:#B58900;stroke-width:0.5208333333333334;stroke-dasharray:5.0,5.0;" x1="269.7917" x2="269.7917" y1="37.8092" y2="571.4325"/><line style="stroke:#B58900;stroke-width:1.0416666666666667;stroke-dasharray:1.0,4.0;" x1="269.7917" x2="269.7917" y1="571.4325" y2="600.5992"/><line style="stroke:#B58900;stroke-width:0.5208333333333334;stroke-dasharray:5.0,5.0;" x1="269.7917" x2="269.7917" y1="600.5992" y2="651.7792"/><line style="stroke:#B58900;stroke-width:1.0416666666666667;stroke-dasharray:1.0,4.0;" x1="269.7917" x2="269.7917" y1="651.7792" y2="694.2841"/><line style="stroke:#B58900;stroke-width:0.5208333333333334;stroke-dasharray:5.0,5.0;" x1="269.7917" x2="269.7917" y1="694.2841" y2="735.0474"/><line style="stroke:#B58900;stroke-width:0.5208333333333334;stroke-dasharray:5.0,5.0;" x1="385.9375" x2="385.9375" y1="326.0315" y2="571.4325"/><line style="stroke:#B58900;stroke-width:1.0416666666666667;stroke-dasharray:1.0,4.0;" x1="385.9375" x2="385.9375" y1="571.4325" y2="600.5992"/><line style="stroke:#B58900;stroke-width:0.5208333333333334;stroke-dasharray:5.0,5.0;" x1="385.9375" x2="385.9375" y1="600.5992" y2="651.7792"/><line style="stroke:#B58900;stroke-width:1.0416666666666667;stroke-dasharray:1.0,4.0;" x1="385.9375" x2="385.9375" y1="651.7792" y2="694.2841"/><line style="stroke:#B58900;stroke-width:0.5208333333333334;stroke-dasharray:5.0,5.0;" x1="385.9375" x2="385.9375" y1="694.2841" y2="735.0474"/><rect fill="#C2F0FF" height="31.5592" rx="7.8125" ry="7.8125" style="stroke:#268BD2;stroke-width:2.0833333333333335;" width="50" x="55.7292" y="5.2083"/><text fill="#000000" font-family="Dejavu Serif" font-size="14.5833" lengthAdjust="spacing" textLength="35.4167" x="63.0208" y="26.0366">Alice</text><rect fill="#C2F0FF" height="31.5592" rx="7.8125" ry="7.8125" style="stroke:#268BD2;stroke-width:2.0833333333333335;" width="50" x="55.7292" y="734.0057"/><text fill="#000000" font-family="Dejavu Serif" font-size="14.5833" lengthAdjust="spacing" textLength="35.4167" x="63.0208" y="754.834">Alice</text><rect fill="#C2F0FF" height="31.5592" rx="7.8125" ry="7.8125" style="stroke:#268BD2;stroke-width:2.0833333333333335;" width="42.7083" x="248.9583" y="5.2083"/><text fill="#000000" font-family="Dejavu Serif" font-size="14.5833" lengthAdjust="spacing" textLength="28.125" x="256.25" y="26.0366">Bob</text><rect fill="#C2F0FF" height="31.5592" rx="7.8125" ry="7.8125" style="stroke:#268BD2;stroke-width:2.0833333333333335;" width="42.7083" x="248.9583" y="734.0057"/><text fill="#000000" font-family="Dejavu Serif" font-size="14.5833" lengthAdjust="spacing" textLength="28.125" x="256.25" y="754.834">Bob</text><rect fill="#C2F0FF" height="31.5592" rx="7.8125" ry="7.8125" style="stroke:#268BD2;stroke-width:2.0833333333333335;" width="67.7083" x="352.6042" y="734.0057"/><text fill="#000000" font-family="Dejavu Serif" font-size="14.5833" lengthAdjust="spacing" textLength="53.125" x="359.8958" y="754.834">George</text><rect fill="#FFFFFF" height="279.2643" style="stroke:#B58900;stroke-width:1.0416666666666667;" width="10.4167" x="265.1042" y="197.996"/><rect fill="#FFFFFF" height="172.5993" style="stroke:#B58900;stroke-width:1.0416666666666667;" width="10.4167" x="270.3125" y="236.676"/><rect fill="#005500" height="84.8226" style="stroke:#B58900;stroke-width:1.0416666666666667;" width="10.4167" x="275.5208" y="280.5644"/><path d="M5.2083,61.2467 L5.2083,71.6634 A7.8125,7.8125 0 0 0 13.0208,79.4759 L148.4375,79.4759 A7.8125,7.8125 0 0 0 156.25,71.6634 L156.25,63.8509 L145.8333,53.4342 L13.0208,53.4342 A7.8125,7.8125 0 0 0 5.2083,61.2467 " fill="#FFFFCC" style="stroke:#B58900;stroke-width:2.0833333333333335;"/><path d="M145.8333,53.4342 L145.8333,59.9447 A3.9063,3.9063 0 0 0 149.7396,63.8509 L156.25,63.8509 L145.8333,53.4342 " fill="#FFFFCC" style="stroke:#B58900;stroke-width:2.0833333333333335;"/><text fill="#000000" font-family="Dejavu Serif" font-size="13.5417" lengthAdjust="spacing" textLength="38.5417" x="11.4583" y="71.2123">initial</text><text fill="#000000" font-family="Dejavu Serif" font-size="13.5417" lengthAdjust="spacing" textLength="4.1667" x="50" y="71.2123">&#160;</text><text fill="#000000" font-family="Dejavu Serif" font-size="13.5417" lengthAdjust="spacing" textLength="32.2917" x="54.1667" y="71.2123">state</text><text fill="#000000" font-family="Dejavu Serif" font-size="13.5417" lengthAdjust="spacing" textLength="4.1667" x="86.4583" y="71.2123">&#160;</text><text fill="#000000" font-family="Dejavu Serif" font-size="13.5417" lengthAdjust="spacing" textLength="13.5417" x="90.625" y="71.2123">of</text><text fill="#000000" font-family="Dejavu Serif" font-size="13.5417" lengthAdjust="spacing" textLength="4.1667" x="104.1667" y="71.2123">&#160;</text><text fill="#000000" font-family="Dejavu Serif" font-size="13.5417" lengthAdjust="spacing" textLength="32.2917" x="108.3333" y="71.2123">Alice</text><path d="M196.875,61.2467 L196.875,71.6634 A7.8125,7.8125 0 0 0 204.6875,79.4759 L334.8958,79.4759 A7.8125,7.8125 0 0 0 342.7083,71.6634 L342.7083,63.8509 L332.2917,53.4342 L204.6875,53.4342 A7.8125,7.8125 0 0 0 196.875,61.2467 " fill="#FFFFCC" style="stroke:#B58900;stroke-width:2.0833333333333335;"/><path d="M332.2917,53.4342 L332.2917,59.9447 A3.9063,3.9063 0 0 0 336.1979,63.8509 L342.7083,63.8509 L332.2917,53.4342 " fill="#FFFFCC" style="stroke:#B58900;stroke-width:2.0833333333333335;"/><text fill="#000000" font-family="Dejavu Serif" font-size="13.5417" lengthAdjust="spacing" textLength="38.5417" x="203.125" y="71.2123">initial</text><text fill="#000000" font-family="Dejavu Serif" font-size="13.5417" lengthAdjust="spacing" textLength="4.1667" x="241.6667" y="71.2123">&#160;</text><text fill="#000000" font-family="Dejavu Serif" font-size="13.5417" lengthAdjust="spacing" textLength="32.2917" x="245.8333" y="71.2123">state</text><text fill="#000000" font-family="Dejavu Serif" font-size="13.5417" lengthAdjust="spacing" textLength="4.1667" x="278.125" y="71.2123">&#160;</text><text fill="#000000" font-family="Dejavu Serif" font-size="13.5417" lengthAdjust="spacing" textLength="13.5417" x="282.2917" y="71.2123">of</text><text fill="#000000" font-family="Dejavu Serif" font-size="13.5417" lengthAdjust="spacing" textLength="4.1667" x="295.8333" y="71.2123">&#160;</text><text fill="#000000" font-family="Dejavu Serif" font-size="13.5417" lengthAdjust="spacing" textLength="27.0833" x="300" y="71.2123">Bob</text><rect fill="#EEEEEE" height="3.125" rx="7.8125" ry="7.8125" style="stroke:#EEEEEE;stroke-width:1.0416666666666667;" width="425.5208" x="0" y="106.3187"/><line style="stroke:#000000;stroke-width:1.0416666666666667;" x1="0" x2="425.5208" y1="106.3187" y2="106.3187"/><line style="stroke:#000000;stroke-width:1.0416666666666667;" x1="0" x2="425.5208" y1="109.4437" y2="109.4437"/><rect fill="#EEEEEE" height="24.2421" rx="7.8125" ry="7.8125" style="stroke:#000000;stroke-width:2.0833333333333335;" width="118.75" x="153.3854" y="95.2393"/><text fill="#000000" font-family="Dejavu Serif" font-size="13.5417" font-weight="bold" lengthAdjust="spacing" textLength="98.9583" x="159.6354" y="112.1211">Initialization</text><rect fill="none" height="40.8763" rx="7.8125" ry="7.8125" style="stroke:#000000;stroke-width:1.5625;" width="242.1875" x="52.6042" y="129.8981"/><path d="M59.8958,129.8981 L122.3958,129.8981 L122.3958,137.1897 L111.9792,147.6064 L52.6042,147.6064 L52.6042,137.1897 A7.2917,7.2917 0 0 1 59.8958,129.8981 " fill="#EEEEEE" style="stroke:#000000;stroke-width:2.0833333333333335;"/><text fill="#000000" font-family="Dejavu Serif" font-size="13.5417" font-weight="bold" lengthAdjust="spacing" textLength="22.9167" x="66.1458" y="144.6966">ref</text><text fill="#000000" font-family="Dejavu Serif" font-size="12.5" lengthAdjust="spacing" textLength="21.875" x="162.7604" y="163.3759">init</text><polygon fill="#657B83" points="252.6042,193.8293,263.0208,197.996,252.6042,202.1627,256.7708,197.996" style="stroke:#657B83;stroke-width:1.0416666666666667;"/><line style="stroke:#657B83;stroke-width:2.0833333333333335;" x1="80.7292" x2="258.8542" y1="197.996" y2="197.996"/><text fill="#000000" font-family="Dejavu Serif" font-size="13.5417" lengthAdjust="spacing" textLength="32.2917" x="88.0208" y="192.719">hello</text><line style="stroke:#657B83;stroke-width:2.0833333333333335;" x1="275.5208" x2="324.4792" y1="223.1344" y2="223.1344"/><line style="stroke:#657B83;stroke-width:2.0833333333333335;" x1="324.4792" x2="324.4792" y1="223.1344" y2="236.676"/><line style="stroke:#657B83;stroke-width:2.0833333333333335;" x1="281.7708" x2="324.4792" y1="236.676" y2="236.676"/><polygon fill="#657B83" points="292.1875,232.5094,281.7708,236.676,292.1875,240.8427,288.0208,236.676" style="stroke:#657B83;stroke-width:1.0416666666666667;"/><text fill="#000000" font-family="Dejavu Serif" font-size="13.5417" lengthAdjust="spacing" textLength="51.0417" x="288.0208" y="217.8574">self call</text><line style="stroke:#657B83;stroke-width:2.0833333333333335;" x1="280.7292" x2="329.6875" y1="267.0227" y2="267.0227"/><line style="stroke:#657B83;stroke-width:2.0833333333333335;" x1="329.6875" x2="329.6875" y1="267.0227" y2="280.5644"/><line style="stroke:#657B83;stroke-width:2.0833333333333335;" x1="286.9792" x2="329.6875" y1="280.5644" y2="280.5644"/><polygon fill="#657B83" points="297.3958,276.3977,286.9792,280.5644,297.3958,284.731,293.2292,280.5644" style="stroke:#657B83;stroke-width:1.0416666666666667;"/><text fill="#000000" font-family="Dejavu Serif" font-size="13.5417" lengthAdjust="spacing" textLength="32.2917" x="293.2292" y="261.7457">hello</text><polygon fill="#657B83" points="340.1042,311.9527,350.5208,316.1194,340.1042,320.2861,344.2708,316.1194" style="stroke:#657B83;stroke-width:1.0416666666666667;"/><line style="stroke:#657B83;stroke-width:2.0833333333333335;" x1="285.9375" x2="346.3542" y1="316.1194" y2="316.1194"/><text fill="#000000" font-family="Dejavu Serif" font-size="13.5417" lengthAdjust="spacing" textLength="41.6667" x="293.2292" y="310.8424">create</text><rect fill="#C2F0FF" height="31.5592" rx="7.8125" ry="7.8125" style="stroke:#268BD2;stroke-width:2.0833333333333335;" width="67.7083" x="352.6042" y="294.106"/><text fill="#000000" font-family="Dejavu Serif" font-size="14.5833" lengthAdjust="spacing" textLength="53.125" x="359.8958" y="314.9343">George</text><line style="stroke:#657B83;stroke-width:2.0833333333333335;stroke-dasharray:2.0,2.0;" x1="285.9375" x2="329.6875" y1="364.3453" y2="364.3453"/><line style="stroke:#657B83;stroke-width:2.0833333333333335;stroke-dasharray:2.0,2.0;" x1="329.6875" x2="329.6875" y1="364.3453" y2="377.887"/><line style="stroke:#657B83;stroke-width:2.0833333333333335;stroke-dasharray:2.0,2.0;" x1="280.7292" x2="329.6875" y1="377.887" y2="377.887"/><polygon fill="#657B83" points="291.1458,373.7203,280.7292,377.887,291.1458,382.0536,286.9792,377.887" style="stroke:#657B83;stroke-width:1.0416666666666667;"/><text fill="#000000" font-family="Dejavu Serif" font-size="13.5417" lengthAdjust="spacing" textLength="32.2917" x="293.2292" y="359.0683">done</text><line style="stroke:#657B83;stroke-width:2.0833333333333335;stroke-dasharray:2.0,2.0;" x1="280.7292" x2="324.4792" y1="408.2336" y2="408.2336"/><line style="stroke:#657B83;stroke-width:2.0833333333333335;stroke-dasharray:2.0,2.0;" x1="324.4792" x2="324.4792" y1="408.2336" y2="421.7753"/><line style="stroke:#657B83;stroke-width:2.0833333333333335;stroke-dasharray:2.0,2.0;" x1="275.5208" x2="324.4792" y1="421.7753" y2="421.7753"/><polygon fill="#657B83" points="285.9375,417.6086,275.5208,421.7753,285.9375,425.942,281.7708,421.7753" style="stroke:#657B83;stroke-width:1.0416666666666667;"/><text fill="#000000" font-family="Dejavu Serif" font-size="13.5417" lengthAdjust="spacing" textLength="13.5417" x="288.0208" y="402.9566">rc</text><polygon fill="#657B83" points="373.9583,442.747,384.375,446.9137,373.9583,451.0803,378.125,446.9137" style="stroke:#657B83;stroke-width:1.0416666666666667;"/><line style="stroke:#657B83;stroke-width:2.0833333333333335;" x1="275.5208" x2="380.2083" y1="446.9137" y2="446.9137"/><text fill="#000000" font-family="Dejavu Serif" font-size="13.5417" lengthAdjust="spacing" textLength="39.5833" x="282.8125" y="441.6367">delete</text><line style="stroke:#B58900;stroke-width:2.0833333333333335;" x1="377.0833" x2="395.8333" y1="437.5387" y2="456.2887"/><line style="stroke:#B58900;stroke-width:2.0833333333333335;" x1="377.0833" x2="395.8333" y1="456.2887" y2="437.5387"/><polygon fill="#657B83" points="92.1875,473.0937,81.7708,477.2603,92.1875,481.427,88.0208,477.2603" style="stroke:#657B83;stroke-width:1.0416666666666667;"/><line style="stroke:#657B83;stroke-width:2.0833333333333335;stroke-dasharray:2.0,2.0;" x1="85.9375" x2="269.2708" y1="477.2603" y2="477.2603"/><text fill="#000000" font-family="Dejavu Serif" font-size="13.5417" lengthAdjust="spacing" textLength="48.9583" x="214.0625" y="471.9833">success</text><rect fill="#EEEEEE" height="3.125" rx="7.8125" ry="7.8125" style="stroke:#EEEEEE;stroke-width:1.0416666666666667;" width="425.5208" x="0" y="507.0897"/><line style="stroke:#000000;stroke-width:1.0416666666666667;" x1="0" x2="425.5208" y1="507.0897" y2="507.0897"/><line style="stroke:#000000;stroke-width:1.0416666666666667;" x1="0" x2="425.5208" y1="510.2147" y2="510.2147"/><rect fill="#EEEEEE" height="24.2421" rx="7.8125" ry="7.8125" style="stroke:#000000;stroke-width:2.0833333333333335;" width="130.2083" x="147.6563" y="496.0103"/><text fill="#000000" font-family="Dejavu Serif" font-size="13.5417" font-weight="bold" lengthAdjust="spacing" textLength="110.4167" x="153.9063" y="512.8922">Delay example</text><polygon fill="#657B83" points="258.0568,558.3673,268.2292,563.0992,257.5996,566.6881,261.9886,562.7563" style="stroke:#657B83;stroke-width:1.0416666666666667;"/><line style="stroke:#657B83;stroke-width:2.0833333333333335;" x1="80.7292" x2="268.2292" y1="552.6825" y2="563.0992"/><text fill="#000000" font-family="Dejavu Serif" font-size="13.5417" lengthAdjust="spacing" textLength="155.2083" x="88.0208" y="547.4055">Authentication Request</text><polygon fill="#657B83" points="91.9432,628.2973,81.7708,633.0292,92.4004,636.6181,88.0114,632.6863" style="stroke:#657B83;stroke-width:1.0416666666666667;"/><line style="stroke:#657B83;stroke-width:2.0833333333333335;stroke-dasharray:2.0,2.0;" x1="269.2708" x2="80.7292" y1="622.6125" y2="633.0292"/><text fill="#000000" font-family="Dejavu Serif" font-size="13.5417" lengthAdjust="spacing" textLength="164.5833" x="98.4375" y="617.3355">Authentication Response</text><text fill="#000000" font-family="Dejavu Serif" font-size="11.4583" lengthAdjust="spacing" textLength="91.6667" x="187.7604" y="676.9984">5 minutes later</text><polygon fill="#657B83" points="92.1875,712.1307,81.7708,716.2974,92.1875,720.4641,88.0208,716.2974" style="stroke:#657B83;stroke-width:1.0416666666666667;"/><line style="stroke:#657B83;stroke-width:2.0833333333333335;stroke-dasharray:2.0,2.0;" x1="85.9375" x2="269.2708" y1="716.2974" y2="716.2974"/><text fill="#000000" font-family="Dejavu Serif" font-size="13.5417" lengthAdjust="spacing" textLength="75" x="188.0208" y="711.0204">Good Bye !</text></g></svg>