<?xml version="1.0" encoding="UTF-8" standalone="no"?><svg xmlns="http://www.w3.org/2000/svg" xmlns:xlink="http://www.w3.org/1999/xlink" contentScriptType="application/ecmascript" contentStyleType="text/css" height="434px" preserveAspectRatio="none" style="width:660px;height:434px;background:#D9D3D0;" version="1.1" viewBox="0 0 660 434" width="660px" zoomAndPan="magnify"><defs/><g><rect fill="#D9D3D0" height="35.6094" style="stroke:#D9D3D0;stroke-width:0.0;" width="256" x="203" y="10"/><text fill="#9275B6" font-family="Verdana" font-size="22" font-weight="bold" lengthAdjust="spacing" textLength="246" x="208" y="35.4209">mimeograph theme</text><line style="stroke:#9275B6;stroke-width:1.0;stroke-dasharray:5.0,5.0;" x1="63" x2="63" y1="128.9063" y2="352.8359"/><line style="stroke:#9275B6;stroke-width:1.0;stroke-dasharray:5.0,5.0;" x1="147" x2="147" y1="128.9063" y2="352.8359"/><line style="stroke:#9275B6;stroke-width:1.0;stroke-dasharray:5.0,5.0;" x1="214" x2="214" y1="128.9063" y2="352.8359"/><line style="stroke:#9275B6;stroke-width:1.0;stroke-dasharray:5.0,5.0;" x1="288" x2="288" y1="128.9063" y2="352.8359"/><line style="stroke:#9275B6;stroke-width:1.0;stroke-dasharray:5.0,5.0;" x1="348" x2="348" y1="128.9063" y2="352.8359"/><line style="stroke:#9275B6;stroke-width:1.0;stroke-dasharray:5.0,5.0;" x1="416" x2="416" y1="128.9063" y2="352.8359"/><line style="stroke:#9275B6;stroke-width:1.0;stroke-dasharray:5.0,5.0;" x1="519" x2="519" y1="128.9063" y2="352.8359"/><line style="stroke:#9275B6;stroke-width:1.0;stroke-dasharray:5.0,5.0;" x1="619" x2="619" y1="128.9063" y2="352.8359"/><rect fill="#D9D3D0" height="30.2969" style="stroke:#9275B6;stroke-width:1.0;" width="86" x="20" y="97.6094"/><text fill="#9275B6" font-family="Verdana" font-size="14" lengthAdjust="spacing" textLength="72" x="27" y="117.6045">Participant</text><rect fill="#D9D3D0" height="30.2969" style="stroke:#9275B6;stroke-width:1.0;" width="86" x="20" y="351.8359"/><text fill="#9275B6" font-family="Verdana" font-size="14" lengthAdjust="spacing" textLength="72" x="27" y="371.8311">Participant</text><text fill="#9275B6" font-family="Verdana" font-size="14" lengthAdjust="spacing" textLength="36" x="126" y="125.6045">Actor</text><ellipse cx="147" cy="60.6094" fill="#D9D3D0" rx="8" ry="8" style="stroke:#9275B6;stroke-width:1.0;"/><path d="M147,68.6094 L147,95.6094 M134,76.6094 L160,76.6094 M147,95.6094 L134,110.6094 M147,95.6094 L160,110.6094 " fill="none" style="stroke:#9275B6;stroke-width:1.0;"/><text fill="#9275B6" font-family="Verdana" font-size="14" lengthAdjust="spacing" textLength="36" x="126" y="364.8311">Actor</text><ellipse cx="147" cy="377.1328" fill="#D9D3D0" rx="8" ry="8" style="stroke:#9275B6;stroke-width:1.0;"/><path d="M147,385.1328 L147,412.1328 M134,393.1328 L160,393.1328 M147,412.1328 L134,427.1328 M147,412.1328 L160,427.1328 " fill="none" style="stroke:#9275B6;stroke-width:1.0;"/><text fill="#9275B6" font-family="Verdana" font-size="14" lengthAdjust="spacing" textLength="66" x="178" y="125.6045">Boundary</text><path d="M193.5,84.6094 L193.5,108.6094 M193.5,96.6094 L210.5,96.6094 " fill="none" style="stroke:#9275B6;stroke-width:1.0;"/><ellipse cx="222.5" cy="96.6094" fill="#D9D3D0" rx="12" ry="12" style="stroke:#9275B6;stroke-width:1.0;"/><text fill="#9275B6" font-family="Verdana" font-size="14" lengthAdjust="spacing" textLength="66" x="178" y="364.8311">Boundary</text><path d="M193.5,372.1328 L193.5,396.1328 M193.5,384.1328 L210.5,384.1328 " fill="none" style="stroke:#9275B6;stroke-width:1.0;"/><ellipse cx="222.5" cy="384.1328" fill="#D9D3D0" rx="12" ry="12" style="stroke:#9275B6;stroke-width:1.0;"/><text fill="#9275B6" font-family="Verdana" font-size="14" lengthAdjust="spacing" textLength="50" x="260" y="125.6045">Control</text><ellipse cx="288" cy="96.6094" fill="#D9D3D0" rx="12" ry="12" style="stroke:#9275B6;stroke-width:1.0;"/><polygon fill="#9275B6" points="284,84.6094,290,79.6094,288,84.6094,290,89.6094,284,84.6094" style="stroke:#9275B6;stroke-width:1.0;"/><text fill="#9275B6" font-family="Verdana" font-size="14" lengthAdjust="spacing" textLength="50" x="260" y="364.8311">Control</text><ellipse cx="288" cy="384.1328" fill="#D9D3D0" rx="12" ry="12" style="stroke:#9275B6;stroke-width:1.0;"/><polygon fill="#9275B6" points="284,372.1328,290,367.1328,288,372.1328,290,377.1328,284,372.1328" style="stroke:#9275B6;stroke-width:1.0;"/><text fill="#9275B6" font-family="Verdana" font-size="14" lengthAdjust="spacing" textLength="38" x="326" y="125.6045">Entity</text><ellipse cx="348" cy="96.6094" fill="#D9D3D0" rx="12" ry="12" style="stroke:#9275B6;stroke-width:1.0;"/><line style="stroke:#9275B6;stroke-width:1.0;" x1="336" x2="360" y1="110.6094" y2="110.6094"/><text fill="#9275B6" font-family="Verdana" font-size="14" lengthAdjust="spacing" textLength="38" x="326" y="364.8311">Entity</text><ellipse cx="348" cy="384.1328" fill="#D9D3D0" rx="12" ry="12" style="stroke:#9275B6;stroke-width:1.0;"/><line style="stroke:#9275B6;stroke-width:1.0;" x1="336" x2="360" y1="398.1328" y2="398.1328"/><text fill="#9275B6" font-family="Verdana" font-size="14" lengthAdjust="spacing" textLength="66" x="380" y="125.6045">Database</text><path d="M398,76.6094 C398,66.6094 416,66.6094 416,66.6094 C416,66.6094 434,66.6094 434,76.6094 L434,102.6094 C434,112.6094 416,112.6094 416,112.6094 C416,112.6094 398,112.6094 398,102.6094 L398,76.6094 " fill="#D9D3D0" style="stroke:#9275B6;stroke-width:1.5;"/><path d="M398,76.6094 C398,86.6094 416,86.6094 416,86.6094 C416,86.6094 434,86.6094 434,76.6094 " fill="none" style="stroke:#9275B6;stroke-width:1.5;"/><text fill="#9275B6" font-family="Verdana" font-size="14" lengthAdjust="spacing" textLength="66" x="380" y="364.8311">Database</text><path d="M398,378.1328 C398,368.1328 416,368.1328 416,368.1328 C416,368.1328 434,368.1328 434,378.1328 L434,404.1328 C434,414.1328 416,414.1328 416,414.1328 C416,414.1328 398,414.1328 398,404.1328 L398,378.1328 " fill="#D9D3D0" style="stroke:#9275B6;stroke-width:1.5;"/><path d="M398,378.1328 C398,388.1328 416,388.1328 416,388.1328 C416,388.1328 434,388.1328 434,378.1328 " fill="none" style="stroke:#9275B6;stroke-width:1.5;"/><rect fill="#D9D3D0" height="30.2969" style="stroke:#9275B6;stroke-width:1.0;" width="90" x="476" y="93.6094"/><rect fill="#D9D3D0" height="30.2969" style="stroke:#9275B6;stroke-width:1.0;" width="90" x="472" y="97.6094"/><text fill="#9275B6" font-family="Verdana" font-size="14" lengthAdjust="spacing" textLength="76" x="479" y="117.6045">Collections</text><rect fill="#D9D3D0" height="30.2969" style="stroke:#9275B6;stroke-width:1.0;" width="90" x="476" y="351.8359"/><rect fill="#D9D3D0" height="30.2969" style="stroke:#9275B6;stroke-width:1.0;" width="90" x="472" y="355.8359"/><text fill="#9275B6" font-family="Verdana" font-size="14" lengthAdjust="spacing" textLength="76" x="479" y="375.8311">Collections</text><path d="M591,102.6094 L648,102.6094 C653,102.6094 653,115.7578 653,115.7578 C653,115.7578 653,128.9063 648,128.9063 L591,128.9063 C586,128.9063 586,115.7578 586,115.7578 C586,115.7578 586,102.6094 591,102.6094 " fill="#D9D3D0" style="stroke:#9275B6;stroke-width:1.0;"/><path d="M648,102.6094 C643,102.6094 643,115.7578 643,115.7578 C643,128.9063 648,128.9063 648,128.9063 " fill="none" style="stroke:#9275B6;stroke-width:1.0;"/><text fill="#9275B6" font-family="Verdana" font-size="14" lengthAdjust="spacing" textLength="47" x="591" y="120.6045">Queue</text><path d="M591,351.8359 L648,351.8359 C653,351.8359 653,364.9844 653,364.9844 C653,364.9844 653,378.1328 648,378.1328 L591,378.1328 C586,378.1328 586,364.9844 586,364.9844 C586,364.9844 586,351.8359 591,351.8359 " fill="#D9D3D0" style="stroke:#9275B6;stroke-width:1.0;"/><path d="M648,351.8359 C643,351.8359 643,364.9844 643,364.9844 C643,378.1328 648,378.1328 648,378.1328 " fill="none" style="stroke:#9275B6;stroke-width:1.0;"/><text fill="#9275B6" font-family="Verdana" font-size="14" lengthAdjust="spacing" textLength="47" x="591" y="369.8311">Queue</text><polygon fill="#9275B6" points="135,156.0391,145,160.0391,135,164.0391,139,160.0391" style="stroke:#9275B6;stroke-width:1.0;"/><line style="stroke:#9275B6;stroke-width:1.0;" x1="63" x2="141" y1="160.0391" y2="160.0391"/><text fill="#9275B6" font-family="Verdana" font-size="13" lengthAdjust="spacing" textLength="52" x="70" y="154.9731">To actor</text><polygon fill="#9275B6" points="202,185.1719,212,189.1719,202,193.1719,206,189.1719" style="stroke:#9275B6;stroke-width:1.0;"/><line style="stroke:#9275B6;stroke-width:1.0;" x1="63" x2="208" y1="189.1719" y2="189.1719"/><text fill="#9275B6" font-family="Verdana" font-size="13" lengthAdjust="spacing" textLength="79" x="70" y="184.106">To boundary</text><polygon fill="#9275B6" points="276,214.3047,286,218.3047,276,222.3047,280,218.3047" style="stroke:#9275B6;stroke-width:1.0;"/><line style="stroke:#9275B6;stroke-width:1.0;" x1="63" x2="282" y1="218.3047" y2="218.3047"/><text fill="#9275B6" font-family="Verdana" font-size="13" lengthAdjust="spacing" textLength="63" x="70" y="213.2388">To control</text><polygon fill="#9275B6" points="336,243.4375,346,247.4375,336,251.4375,340,247.4375" style="stroke:#9275B6;stroke-width:1.0;"/><line style="stroke:#9275B6;stroke-width:1.0;" x1="63" x2="342" y1="247.4375" y2="247.4375"/><text fill="#9275B6" font-family="Verdana" font-size="13" lengthAdjust="spacing" textLength="55" x="70" y="242.3716">To entity</text><polygon fill="#9275B6" points="404,272.5703,414,276.5703,404,280.5703,408,276.5703" style="stroke:#9275B6;stroke-width:1.0;"/><line style="stroke:#9275B6;stroke-width:1.0;" x1="63" x2="410" y1="276.5703" y2="276.5703"/><text fill="#9275B6" font-family="Verdana" font-size="13" lengthAdjust="spacing" textLength="79" x="70" y="271.5044">To database</text><polygon fill="#9275B6" points="507,301.7031,517,305.7031,507,309.7031,511,305.7031" style="stroke:#9275B6;stroke-width:1.0;"/><line style="stroke:#9275B6;stroke-width:1.0;" x1="63" x2="513" y1="305.7031" y2="305.7031"/><text fill="#9275B6" font-family="Verdana" font-size="13" lengthAdjust="spacing" textLength="86" x="70" y="300.6372">To collections</text><polygon fill="#9275B6" points="607.5,330.8359,617.5,334.8359,607.5,338.8359,611.5,334.8359" style="stroke:#9275B6;stroke-width:1.0;"/><line style="stroke:#9275B6;stroke-width:1.0;" x1="63" x2="613.5" y1="334.8359" y2="334.8359"/><text fill="#9275B6" font-family="Verdana" font-size="13" lengthAdjust="spacing" textLength="59" x="70" y="329.77">To queue</text></g></svg>