<?xml version="1.0" encoding="UTF-8" standalone="no"?><svg xmlns="http://www.w3.org/2000/svg" xmlns:xlink="http://www.w3.org/1999/xlink" contentScriptType="application/ecmascript" contentStyleType="text/css" height="585.4167px" preserveAspectRatio="none" style="width:543px;height:585px;background:#00000000;" version="1.1" viewBox="0 0 543 585" width="543.75px" zoomAndPan="magnify"><defs/><g><polygon fill="#FFFFFF" points="14.5833,103.0599,14.5833,103.2788,24.9479,102.6283,35.3125,103.2612,45.6771,103.4762,56.0417,102.3168,66.4063,102.9789,76.7708,102.6156,87.1354,102.6604,97.5,102.9889,107.8646,102.3397,118.2292,103.6366,128.5938,102.4034,138.9583,102.8539,149.3229,103.5098,159.6875,102.9705,170.0521,103.131,180.4167,103.0266,190.7813,103.2459,201.1458,103.309,211.5104,103.67,221.875,103.7589,232.2396,103.7675,242.6042,103.3251,252.9688,103.5428,263.3333,103.7914,273.6979,102.3087,284.0625,103.7667,294.4271,102.751,304.7917,103.6159,315.1563,102.5442,325.5208,102.9885,335.8854,103.8324,346.25,103.0091,356.6146,103.1696,366.9792,103.4126,377.3438,103.4935,387.7083,103.0558,398.0729,103.3591,408.4375,102.4636,418.8021,103.3561,429.1667,103.6309,439.5313,103.523,449.8958,103.6985,460.2604,102.5567,470.625,102.3805,480.9896,102.4126,491.3542,102.9986,501.7188,102.8552,512.0833,103.7697,522.4479,102.8779,532.8125,103.0599,532.7669,102.9498,533.4321,103.3772,533.9024,103.3341,534.5113,103.6256,535.2558,104.2444,535.7588,104.2803,535.8985,104.3382,536.2385,104.9671,536.1437,105.416,536.5934,106.0905,536.9245,106.7158,536.9792,107.2266,536.4871,107.2266,536.8793,117.5285,537.1104,127.8304,537.6581,138.1323,536.9748,148.4342,537.461,158.7362,536.4023,169.0381,536.2737,179.34,537.5038,189.6419,536.2324,199.9438,537.5093,210.2458,537.1944,220.5477,536.7001,230.8496,536.6107,241.1515,537.457,251.4535,536.6674,261.7554,537.5957,272.0573,536.4034,282.3592,537.6223,292.6611,537.4836,302.9631,537.2343,313.265,537.0284,323.5669,537.7361,333.8688,537.6183,344.1707,537.1555,354.4727,537.2585,364.7746,536.8435,375.0765,537.7255,385.3784,537.1405,395.6803,537.1589,405.9823,536.3455,416.2842,536.5571,426.5861,537.532,436.888,537.4268,447.1899,536.9344,457.4919,536.6436,467.7938,536.7511,478.0957,536.2644,488.3976,537.4112,498.6995,537.7495,509.0015,536.9792,519.3034,537.148,519.3733,536.958,519.985,536.4472,520.4637,536.2749,521.0827,535.8785,521.6089,535.7588,522.2497,535.7965,522.3408,535.2023,522.5729,534.6537,522.915,533.9605,522.9082,533.3839,523.1829,532.8125,523.4701,532.8125,523.932,522.4479,524.061,512.0833,522.9362,501.7188,523.2681,491.3542,523.6255,480.9896,522.8338,470.625,523.8382,460.2604,523.7388,449.8958,523.3651,439.5313,523.6182,429.1667,524.2291,418.8021,523.1441,408.4375,523.7982,398.0729,523.7676,387.7083,523.5906,377.3438,523.6168,366.9792,523.5883,356.6146,522.8199,346.25,523.0525,335.8854,522.9893,325.5208,523.5365,315.1563,523.5619,304.7917,523.6385,294.4271,523.167,284.0625,523.3997,273.6979,523.3448,263.3333,524.0709,252.9688,523.9144,242.6042,522.9643,232.2396,523.3941,221.875,522.8688,211.5104,523.7705,201.1458,524.1039,190.7813,524.0373,180.4167,523.0163,170.0521,523.9534,159.6875,522.6963,149.3229,523.6785,138.9583,523.1583,128.5938,523.5708,118.2292,523.7204,107.8646,523.9618,97.5,522.7201,87.1354,523.9653,76.7708,523.6556,66.4063,523.8402,56.0417,524.249,45.6771,523.4758,35.3125,523.6526,24.9479,523.6924,14.5833,523.4701,14.6095,523.5333,13.994,523.2257,13.4993,523.2099,12.7345,522.5422,12.3014,522.6751,11.6371,522.2497,11.4369,522.1667,11.2196,521.5886,11.1617,521.0765,10.9139,520.4857,10.5026,519.8272,10.4167,519.3034,10.8476,519.3034,10.5301,509.0015,11.1736,498.6995,11.1116,488.3976,9.9497,478.0957,10.0022,467.7938,10.2821,457.4919,10.787,447.1899,10.8364,436.888,10.7304,426.5861,10.0605,416.2842,11.0795,405.9823,11.0769,395.6803,10.3674,385.3784,10.1676,375.0765,9.9986,364.7746,10.1931,354.4727,10.5598,344.1707,10.3454,333.8688,9.9815,323.5669,10.9244,313.265,9.9386,302.9631,10.94,292.6611,10.8617,282.3592,10.804,272.0573,11.138,261.7554,10.1605,251.4535,10.1035,241.1515,10.9572,230.8496,9.7949,220.5477,10.1729,210.2458,10.537,199.9438,10.4882,189.6419,10.0433,179.34,10.3719,169.0381,11.1923,158.7362,11.0922,148.4342,9.7955,138.1323,10.4985,127.8304,9.8814,117.5285,10.4167,107.2266,10.4082,107.2231,10.7547,106.6762,11.0395,106.1038,10.9357,105.3705,11.5215,104.9228,11.6371,104.2803,11.6382,104.283,12.1525,103.8581,12.753,103.641,13.4482,103.6528,14.0273,103.3841,14.5833,103.0599" style="stroke:#555555;stroke-width:2.0833333333333335;"/><path d="M10.4167,179.0039 L536.9792,179.0039 L536.9792,452.7018 A4.1667,4.1667 0 0 1 532.8125,456.8685 L14.5833,456.8685 A4.1667,4.1667 0 0 1 10.4167,452.7018 L10.4167,179.0039 " fill="#FFFFFF" style="stroke:none;stroke-width:1.0416666666666667;"/><polygon fill="#FFFFFF" points="25,252.8971,25,253.1161,35.3624,252.4656,45.7248,253.0985,56.0872,253.3135,66.4497,252.154,76.8121,252.8162,87.1745,252.4529,97.5369,252.4977,107.8993,252.8261,118.2617,252.177,128.6241,253.4738,138.9865,252.2406,149.349,252.6911,159.7114,253.3471,170.0738,252.8078,180.4362,252.9682,190.7986,252.8639,201.161,253.0831,211.5234,253.1462,221.8859,253.5072,232.2483,253.5961,242.6107,253.6047,252.9731,253.1624,263.3355,253.38,273.6979,253.6286,284.0603,252.1459,294.4227,253.6039,304.7852,252.5883,315.1476,253.4532,325.51,252.3815,335.8724,252.8258,346.2348,253.6696,356.5972,252.8464,366.9596,253.0068,377.322,253.2499,387.6845,253.3307,398.0469,252.8931,408.4093,253.1963,418.7717,252.3009,429.1341,253.1934,439.4965,253.4682,449.8589,253.3602,460.2214,253.5357,470.5838,252.3939,480.9462,252.2178,491.3086,252.2498,501.671,252.8358,512.0334,252.6924,522.3958,252.8971,522.4864,253.1157,522.9619,253.0852,523.5288,253.2752,524.1939,253.7026,524.6642,253.6595,525.3421,254.1175,525.1756,254.0485,525.7944,254.793,525.97,255.3539,526.31,255.9829,526.2152,256.4318,526.5625,257.0638,526.895,257.0638,527.1775,267.5275,526.0704,277.9912,526.4626,288.4549,526.6937,298.9185,527.2414,309.3822,526.5581,319.8459,527.0443,330.3096,525.9856,340.7733,525.857,351.237,527.0871,361.7007,525.8157,372.1644,527.0927,382.628,526.7777,393.0917,526.2834,403.5554,526.194,414.0191,527.0404,424.4828,526.2507,434.9465,526.5625,445.4102,526.7524,445.4888,526.1411,445.926,526.2724,446.6707,525.9856,447.2423,525.6648,447.7997,525.3421,448.3564,525.3484,448.3716,524.8494,448.8336,524.2451,449.0414,523.5968,449.143,523.0207,449.4188,522.3958,449.5768,522.3958,449.4411,512.0334,450.3231,501.671,449.7381,491.3086,449.7566,480.9462,448.9431,470.5838,449.1547,460.2214,450.1297,449.8589,450.0245,439.4965,449.5321,429.1341,449.2412,418.7717,449.3488,408.4093,448.8621,398.0469,450.0088,387.6845,450.3472,377.322,450.1252,366.9596,450.3007,356.5972,449.4344,346.2348,449.6677,335.8724,449.1731,325.51,449.8727,315.1476,449.8339,304.7852,450.1522,294.4227,449.3376,284.0603,449.4368,273.6979,450.0388,263.3355,450.1678,252.9731,449.0429,242.6107,449.3749,232.2483,449.7323,221.8859,448.9405,211.5234,449.9449,201.161,449.8456,190.7986,449.4719,180.4362,449.725,170.0738,450.3359,159.7114,449.2509,149.349,449.9049,138.9865,449.8744,128.6241,449.6974,118.2617,449.7236,107.8993,449.695,97.5369,448.9267,87.1745,449.1593,76.8121,449.0961,66.4497,449.6433,56.0872,449.6686,45.7248,449.7453,35.3624,449.2737,25,449.5768,24.991,449.5552,24.3948,449.2942,23.8981,449.2737,23.2889,448.9814,22.5785,448.4448,22.0537,448.3564,22.0303,448.3467,21.6245,447.6905,21.6581,447.2162,21.5167,446.6695,21.2521,446.0718,20.8333,445.4102,20.3796,445.4102,21.3166,434.9465,20.0596,424.4828,21.0418,414.0191,20.5215,403.5554,20.9341,393.0917,21.0837,382.628,21.3251,372.1644,20.0834,361.7007,21.3286,351.237,21.0189,340.7733,21.2035,330.3096,21.6123,319.8459,20.839,309.3822,21.0159,298.9185,21.0557,288.4549,21.0388,277.9912,20.8325,267.5275,20.8333,257.0638,21.0613,257.1582,20.8818,256.3935,21.5028,255.9604,21.3654,255.2131,21.6363,254.635,22.0537,254.1175,22.059,254.1304,22.6467,253.8825,23.1667,253.4713,23.8765,253.518,24.4252,253.1761,25,252.8971" style="stroke:#555555;stroke-width:2.0833333333333335;"/><polygon fill="#FFFFFF" points="35.4167,326.7904,35.4167,327.0093,45.8807,326.3588,56.3447,326.9917,66.8087,327.2067,77.2727,326.0472,87.7367,326.7094,98.2008,326.3461,108.6648,326.3909,119.1288,326.7194,129.5928,326.0702,140.0568,327.3671,150.5208,326.1338,160.9848,326.5844,171.4489,327.2403,181.9129,326.701,192.3769,326.8614,202.8409,326.7571,213.3049,326.9763,223.7689,327.0395,234.233,327.4005,244.697,327.4894,255.161,327.4979,265.625,327.0556,276.089,327.2733,286.553,327.5219,297.017,326.0391,307.4811,327.4971,317.9451,326.4815,328.4091,327.3464,338.8731,326.2747,349.3371,326.719,359.8011,327.5629,370.2652,326.7396,380.7292,326.7904,380.7432,326.8241,381.3634,327.1431,381.963,327.412,382.4964,327.5213,383.1244,327.8588,383.6754,328.0108,383.4918,327.9347,384.0108,328.6378,384.3395,329.2621,384.5503,329.8376,384.8484,330.4492,384.8958,330.957,384.3926,330.957,384.2165,342.2255,384.2485,353.4939,384.8345,364.7624,384.6911,376.0308,385.6056,387.2993,384.8958,398.5677,384.8398,398.5445,384.5417,399.1114,384.4809,399.7766,383.9497,400.2469,383.753,400.8558,383.6754,401.514,383.7617,401.7222,383.1441,401.8978,382.5945,402.2378,381.8649,402.143,381.3608,402.5927,380.7292,402.7344,380.7292,403.3494,370.2652,402.2423,359.8011,402.6345,349.3371,402.8656,338.8731,403.4133,328.4091,402.73,317.9451,403.2162,307.4811,402.1575,297.017,402.0289,286.553,403.259,276.089,401.9876,265.625,403.2645,255.161,402.9496,244.697,402.4553,234.233,402.3659,223.7689,403.2122,213.3049,402.4226,202.8409,403.3509,192.3769,402.1586,181.9129,403.3775,171.4489,403.2389,160.9848,402.9896,150.5208,402.7836,140.0568,403.4913,129.5928,403.3735,119.1288,402.9107,108.6648,403.0137,98.2008,402.5987,87.7367,403.4807,77.2727,402.8957,66.8087,402.9141,56.3447,402.1007,45.8807,402.3123,35.4167,402.7344,35.4872,402.9046,34.8845,402.6282,34.2325,402.2324,33.6061,401.8988,33.0306,401.6878,32.4704,401.514,32.2503,401.4228,32.3594,400.9798,32.2195,400.4337,31.907,399.8162,31.717,399.2493,31.25,398.5677,31.1076,398.5677,31.3409,387.2993,30.8463,376.0308,31.5459,364.7624,31.507,353.4939,31.8254,342.2255,31.25,330.957,31.1763,330.9265,31.451,330.3499,31.8804,329.8374,32.1642,329.2646,32.0619,328.5319,32.4704,328.0108,32.4446,327.9486,33.0795,327.8146,33.5677,327.3266,34.2851,327.3919,34.8617,327.1172,35.4167,326.7904" style="stroke:#555555;stroke-width:2.0833333333333335;"/><path d="M10.4167,456.8685 L536.9792,456.8685 L536.9792,519.3034 A4.1667,4.1667 0 0 1 532.8125,523.4701 L14.5833,523.4701 A4.1667,4.1667 0 0 1 10.4167,519.3034 L10.4167,456.8685 " fill="#FFFFFF" style="stroke:none;stroke-width:1.0416666666666667;"/><path d="M110.4167,45.8008 L110.7086,45.8008 L109.8412,56.1211 L110.6851,66.4415 L110.9718,76.7619 L109.4258,87.0822 L110.3087,97.4026 L109.8243,107.723 L109.884,118.0433 L110.322,128.3637 L109.4564,138.6841 L111.1856,149.0044 L109.5413,159.3248 L110.142,169.6452 L111.0166,179.9655 L110.2975,190.2859 L110.5114,200.6063 L110.3723,210.9266 L110.6646,221.247 L110.7488,231.5674 L111.2301,241.8877 L111.3487,252.2081 L111.3601,262.5285 L110.7703,272.8488 L111.0605,283.1692 L111.392,293.4896 L109.415,303.81 L111.359,314.1303 L110.0049,324.4507 L111.1581,334.7711 L109.7291,345.0914 L110.3215,355.4118 L111.4467,365.7322 L110.349,376.0525 L110.5629,386.3729 L110.887,396.6933 L110.9948,407.0136 L110.4112,417.334 L110.8156,427.6544 L109.6216,437.9747 L110.8116,448.2951 L111.178,458.6155 L111.0341,468.9358 L111.2681,479.2562 L109.7457,489.5766 L109.5109,499.8969 L109.5536,510.2173 L110.3349,520.5377 L110.1437,530.858 L110.4167,541.1784 " fill="none" style="stroke:#555555;stroke-width:2.0833333333333335;stroke-dasharray:5.0,5.0;"/><path d="M307.8125,45.8008 L308.1044,45.8008 L307.2371,56.1211 L308.081,66.4415 L308.3676,76.7619 L306.8217,87.0822 L307.7046,97.4026 L307.2201,107.723 L307.2799,118.0433 L307.7178,128.3637 L306.8523,138.6841 L308.5814,149.0044 L306.9371,159.3248 L307.5378,169.6452 L308.4124,179.9655 L307.6934,190.2859 L307.9073,200.6063 L307.7681,210.9266 L308.0605,221.247 L308.1446,231.5674 L308.626,241.8877 L308.7445,252.2081 L308.7559,262.5285 L308.1661,272.8488 L308.4564,283.1692 L308.7878,293.4896 L306.8109,303.81 L308.7549,314.1303 L307.4007,324.4507 L308.5539,334.7711 L307.125,345.0914 L307.7174,355.4118 L308.8425,365.7322 L307.7448,376.0525 L307.9588,386.3729 L308.2828,396.6933 L308.3906,407.0136 L307.8071,417.334 L308.2114,427.6544 L307.0175,437.9747 L308.2075,448.2951 L308.5739,458.6155 L308.4299,468.9358 L308.6639,479.2562 L307.1416,489.5766 L306.9067,499.8969 L306.9494,510.2173 L307.7307,520.5377 L307.5395,530.858 L307.8125,541.1784 " fill="none" style="stroke:#555555;stroke-width:2.0833333333333335;stroke-dasharray:5.0,5.0;"/><path d="M450.5208,45.8008 L450.8128,45.8008 L449.9454,56.1211 L450.7893,66.4415 L451.0759,76.7619 L449.53,87.0822 L450.4129,97.4026 L449.9285,107.723 L449.9882,118.0433 L450.4262,128.3637 L449.5606,138.6841 L451.2898,149.0044 L449.6454,159.3248 L450.2462,169.6452 L451.1208,179.9655 L450.4017,190.2859 L450.6156,200.6063 L450.4765,210.9266 L450.7688,221.247 L450.853,231.5674 L451.3343,241.8877 L451.4529,252.2081 L451.4642,262.5285 L450.8745,272.8488 L451.1647,283.1692 L451.4962,293.4896 L449.5192,303.81 L451.4632,314.1303 L450.109,324.4507 L451.2622,334.7711 L449.8333,345.0914 L450.4257,355.4118 L451.5508,365.7322 L450.4531,376.0525 L450.6671,386.3729 L450.9911,396.6933 L451.0989,407.0136 L450.5154,417.334 L450.9197,427.6544 L449.7258,437.9747 L450.9158,448.2951 L451.2822,458.6155 L451.1382,468.9358 L451.3723,479.2562 L449.8499,489.5766 L449.615,499.8969 L449.6578,510.2173 L450.4391,520.5377 L450.2479,530.858 L450.5208,541.1784 " fill="none" style="stroke:#555555;stroke-width:2.0833333333333335;stroke-dasharray:5.0,5.0;"/><polygon fill="#474747" points="87.5,5.2083,87.5,5.4273,96.875,4.7767,106.25,5.4097,115.625,5.6247,125,4.4652,134.375,5.2083,134.3647,5.1834,134.9076,5.3156,135.5026,5.5735,136.1337,5.9187,136.6402,5.9629,137.3213,6.4287,137.4989,6.5023,137.3632,6.9342,137.746,7.581,138.1921,8.2539,138.2701,8.7743,138.5417,9.375,138.5654,9.375,138.5306,15.6185,138.6037,21.862,138.6247,28.1055,138.745,34.349,138.5417,40.5924,138.7569,40.6816,138.5155,41.272,138.1352,41.8048,137.9581,42.4218,137.7906,43.0428,137.3213,43.5387,137.2254,43.3074,136.8222,44.0005,136.1034,43.9318,135.6244,44.4422,134.8985,44.3562,134.375,44.7591,134.375,44.6878,125,45.5316,115.625,44.7083,106.25,44.8688,96.875,45.1119,87.5,44.7591,87.5553,44.8926,86.9102,44.5138,86.3597,44.3631,85.6562,43.8433,85.1808,43.874,84.5537,43.5387,84.7296,43.6116,84.4522,43.0085,84.2622,42.4417,83.6665,41.7068,83.3682,41.095,83.3333,40.5924,83.1176,40.5924,83.3129,34.349,83.2651,28.1055,83.5699,21.862,83.2727,15.6185,83.3333,9.375,83.2233,9.3294,83.6506,8.8161,83.6076,8.1079,83.899,7.5383,84.5178,7.1042,84.5537,6.4287,84.6116,6.5685,85.2406,6.4203,85.6895,5.8373,86.3639,5.7989,86.9892,5.6418,87.5,5.2083" style="stroke:#333333;stroke-width:1.5625;"/><text fill="#FFFFFF" font-family="Segoe Print" font-size="12.5" lengthAdjust="spacing" textLength="30.2083" x="95.8333" y="29.3111">Alice</text><polygon fill="#474747" points="87.5,540.1367,87.5,540.3557,96.875,539.7051,106.25,540.3381,115.625,540.5531,125,539.3936,134.375,540.1367,134.3647,540.1118,134.9076,540.244,135.5026,540.5019,136.1337,540.8471,136.6402,540.8912,137.3213,541.3571,137.4989,541.4307,137.3632,541.8626,137.746,542.5093,138.1921,543.1823,138.2701,543.7027,138.5417,544.3034,138.5654,544.3034,138.5306,550.5469,138.6037,556.7904,138.6247,563.0339,138.745,569.2773,138.5417,575.5208,138.7569,575.61,138.5155,576.2003,138.1352,576.7332,137.9581,577.3502,137.7906,577.9712,137.3213,578.4671,137.2254,578.2358,136.8222,578.9288,136.1034,578.8602,135.6244,579.3706,134.8985,579.2846,134.375,579.6875,134.375,579.6161,125,580.46,115.625,579.6367,106.25,579.7972,96.875,580.0402,87.5,579.6875,87.5553,579.821,86.9102,579.4422,86.3597,579.2915,85.6562,578.7716,85.1808,578.8024,84.5537,578.4671,84.7296,578.54,84.4522,577.9369,84.2622,577.3701,83.6665,576.6352,83.3682,576.0234,83.3333,575.5208,83.1176,575.5208,83.3129,569.2773,83.2651,563.0339,83.5699,556.7904,83.2727,550.5469,83.3333,544.3034,83.2233,544.2578,83.6506,543.7445,83.6076,543.0363,83.899,542.4666,84.5178,542.0326,84.5537,541.3571,84.6116,541.4969,85.2406,541.3486,85.6895,540.7657,86.3639,540.7273,86.9892,540.5702,87.5,540.1367" style="stroke:#333333;stroke-width:1.5625;"/><text fill="#FFFFFF" font-family="Segoe Print" font-size="12.5" lengthAdjust="spacing" textLength="30.2083" x="95.8333" y="564.2395">Alice</text><polygon fill="#474747" points="286.9792,5.2083,286.9792,5.2813,295.3125,5.0645,303.6458,5.2754,311.9792,5.3471,320.3125,4.9606,328.6458,5.2083,328.6355,5.1834,329.1784,5.3156,329.7734,5.5735,330.4045,5.9187,330.911,5.9629,331.5921,6.4287,331.7697,6.5023,331.634,6.9342,332.0168,7.581,332.4629,8.2539,332.5409,8.7743,332.8125,9.375,332.8362,9.375,332.8014,15.6185,332.8745,21.862,332.8955,28.1055,333.0159,34.349,332.8125,40.5924,333.0278,40.6816,332.7863,41.272,332.406,41.8048,332.229,42.4218,332.0615,43.0428,331.5921,43.5387,331.4963,43.3074,331.093,44.0005,330.3742,43.9318,329.8953,44.4422,329.1693,44.3562,328.6458,44.7591,328.6458,44.7353,320.3125,45.0166,311.9792,44.7422,303.6458,44.7957,295.3125,44.8767,286.9792,44.7591,287.0345,44.8926,286.3894,44.5138,285.8388,44.3631,285.1353,43.8433,284.6599,43.874,284.0329,43.5387,284.2087,43.6116,283.9314,43.0085,283.7414,42.4417,283.1457,41.7068,282.8474,41.095,282.8125,40.5924,282.5967,40.5924,282.7921,34.349,282.7443,28.1055,283.0491,21.862,282.7518,15.6185,282.8125,9.375,282.7025,9.3294,283.1298,8.8161,283.0867,8.1079,283.3782,7.5383,283.997,7.1042,284.0329,6.4287,284.0908,6.5685,284.7197,6.4203,285.1686,5.8373,285.8431,5.7989,286.4684,5.6418,286.9792,5.2083" style="stroke:#333333;stroke-width:1.5625;"/><text fill="#FFFFFF" font-family="Segoe Print" font-size="12.5" lengthAdjust="spacing" textLength="25" x="295.3125" y="29.3111">Bob</text><polygon fill="#474747" points="286.9792,540.1367,286.9792,540.2097,295.3125,539.9929,303.6458,540.2038,311.9792,540.2755,320.3125,539.889,328.6458,540.1367,328.6355,540.1118,329.1784,540.244,329.7734,540.5019,330.4045,540.8471,330.911,540.8912,331.5921,541.3571,331.7697,541.4307,331.634,541.8626,332.0168,542.5093,332.4629,543.1823,332.5409,543.7027,332.8125,544.3034,332.8362,544.3034,332.8014,550.5469,332.8745,556.7904,332.8955,563.0339,333.0159,569.2773,332.8125,575.5208,333.0278,575.61,332.7863,576.2003,332.406,576.7332,332.229,577.3502,332.0615,577.9712,331.5921,578.4671,331.4963,578.2358,331.093,578.9288,330.3742,578.8602,329.8953,579.3706,329.1693,579.2846,328.6458,579.6875,328.6458,579.6637,320.3125,579.945,311.9792,579.6706,303.6458,579.7241,295.3125,579.8051,286.9792,579.6875,287.0345,579.821,286.3894,579.4422,285.8388,579.2915,285.1353,578.7716,284.6599,578.8024,284.0329,578.4671,284.2087,578.54,283.9314,577.9369,283.7414,577.3701,283.1457,576.6352,282.8474,576.0234,282.8125,575.5208,282.5967,575.5208,282.7921,569.2773,282.7443,563.0339,283.0491,556.7904,282.7518,550.5469,282.8125,544.3034,282.7025,544.2578,283.1298,543.7445,283.0867,543.0363,283.3782,542.4666,283.997,542.0326,284.0329,541.3571,284.0908,541.4969,284.7197,541.3486,285.1686,540.7657,285.8431,540.7273,286.4684,540.5702,286.9792,540.1367" style="stroke:#333333;stroke-width:1.5625;"/><text fill="#FFFFFF" font-family="Segoe Print" font-size="12.5" lengthAdjust="spacing" textLength="25" x="295.3125" y="564.2395">Bob</text><polygon fill="#474747" points="430.7292,5.2083,430.7292,5.2813,438.6458,5.0645,446.5625,5.2754,454.4792,5.3471,462.3958,4.9606,470.3125,5.2083,470.3022,5.1834,470.8451,5.3156,471.4401,5.5735,472.0712,5.9187,472.5777,5.9629,473.2588,6.4287,473.4364,6.5023,473.3007,6.9342,473.6835,7.581,474.1296,8.2539,474.2076,8.7743,474.4792,9.375,474.5029,9.375,474.4681,15.6185,474.5412,21.862,474.5622,28.1055,474.6825,34.349,474.4792,40.5924,474.6944,40.6816,474.453,41.272,474.0727,41.8048,473.8956,42.4218,473.7281,43.0428,473.2588,43.5387,473.1629,43.3074,472.7597,44.0005,472.0409,43.9318,471.5619,44.4422,470.836,44.3562,470.3125,44.7591,470.3125,44.7353,462.3958,45.0166,454.4792,44.7422,446.5625,44.7957,438.6458,44.8767,430.7292,44.7591,430.7845,44.8926,430.1394,44.5138,429.5888,44.3631,428.8853,43.8433,428.4099,43.874,427.7829,43.5387,427.9587,43.6116,427.6814,43.0085,427.4914,42.4417,426.8957,41.7068,426.5974,41.095,426.5625,40.5924,426.3467,40.5924,426.5421,34.349,426.4943,28.1055,426.7991,21.862,426.5018,15.6185,426.5625,9.375,426.4525,9.3294,426.8798,8.8161,426.8367,8.1079,427.1282,7.5383,427.747,7.1042,427.7829,6.4287,427.8408,6.5685,428.4697,6.4203,428.9186,5.8373,429.5931,5.7989,430.2184,5.6418,430.7292,5.2083" style="stroke:#333333;stroke-width:1.5625;"/><text fill="#FFFFFF" font-family="Segoe Print" font-size="12.5" lengthAdjust="spacing" textLength="22.9167" x="439.0625" y="29.3111">Log</text><polygon fill="#474747" points="430.7292,540.1367,430.7292,540.2097,438.6458,539.9929,446.5625,540.2038,454.4792,540.2755,462.3958,539.889,470.3125,540.1367,470.3022,540.1118,470.8451,540.244,471.4401,540.5019,472.0712,540.8471,472.5777,540.8912,473.2588,541.3571,473.4364,541.4307,473.3007,541.8626,473.6835,542.5093,474.1296,543.1823,474.2076,543.7027,474.4792,544.3034,474.5029,544.3034,474.4681,550.5469,474.5412,556.7904,474.5622,563.0339,474.6825,569.2773,474.4792,575.5208,474.6944,575.61,474.453,576.2003,474.0727,576.7332,473.8956,577.3502,473.7281,577.9712,473.2588,578.4671,473.1629,578.2358,472.7597,578.9288,472.0409,578.8602,471.5619,579.3706,470.836,579.2846,470.3125,579.6875,470.3125,579.6637,462.3958,579.945,454.4792,579.6706,446.5625,579.7241,438.6458,579.8051,430.7292,579.6875,430.7845,579.821,430.1394,579.4422,429.5888,579.2915,428.8853,578.7716,428.4099,578.8024,427.7829,578.4671,427.9587,578.54,427.6814,577.9369,427.4914,577.3701,426.8957,576.6352,426.5974,576.0234,426.5625,575.5208,426.3467,575.5208,426.5421,569.2773,426.4943,563.0339,426.7991,556.7904,426.5018,550.5469,426.5625,544.3034,426.4525,544.2578,426.8798,543.7445,426.8367,543.0363,427.1282,542.4666,427.747,542.0326,427.7829,541.3571,427.8408,541.4969,428.4697,541.3486,428.9186,540.7657,429.5931,540.7273,430.2184,540.5702,430.7292,540.1367" style="stroke:#333333;stroke-width:1.5625;"/><text fill="#FFFFFF" font-family="Segoe Print" font-size="12.5" lengthAdjust="spacing" textLength="22.9167" x="439.0625" y="564.2395">Log</text><polygon fill="#333333" points="295.3125,83.2682,295.3396,83.336,297.3424,83.968,299.5041,84.9972,301.614,85.8971,303.5538,86.3716,305.7292,87.4349,305.7191,87.4098,303.5908,88.1307,301.513,88.9779,299.4704,89.9129,297.3067,90.5453,295.3125,91.6016,295.4484,91.7375,295.9911,90.6135,296.9306,89.8863,297.9186,89.2076,298.6248,88.2472,299.4792,87.4349,299.4959,87.4516,298.638,86.5937,297.8563,85.8121,297.0379,84.9936,296.2896,84.2454,295.3125,83.2682" style="stroke:#333333;stroke-width:1.0416666666666667;"/><path d="M110.9375,87.4349 L110.9375,87.7268 L121.5278,86.8595 L132.1181,87.7033 L142.7083,87.99 L153.2986,86.4441 L163.8889,87.327 L174.4792,86.8425 L185.0694,86.9023 L195.6597,87.3402 L206.25,86.4747 L216.8403,88.2038 L227.4306,86.5595 L238.0208,87.1602 L248.6111,88.0348 L259.2014,87.3158 L269.7917,87.5297 L280.3819,87.3905 L290.9722,87.6828 L301.5625,87.4349 " fill="none" style="stroke:#333333;stroke-width:3.125;"/><text fill="#FFFFFF" font-family="Segoe Print" font-size="12.5" lengthAdjust="spacing" textLength="154.1667" x="123.4375" y="77.1952">Authentication Request</text><path d="M14.5833,103.0599 L87.5,103.0599 L87.5,118.6849 L77.0833,129.1016 L10.4167,129.1016 L10.4167,107.2266 A4.1667,4.1667 0 0 1 14.5833,103.0599 " fill="#555555" style="stroke:#555555;stroke-width:1.0416666666666667;"/><polygon fill="none" points="14.5833,103.0599,14.5833,103.2788,24.9479,102.6283,35.3125,103.2612,45.6771,103.4762,56.0417,102.3168,66.4063,102.9789,76.7708,102.6156,87.1354,102.6604,97.5,102.9889,107.8646,102.3397,118.2292,103.6366,128.5938,102.4034,138.9583,102.8539,149.3229,103.5098,159.6875,102.9705,170.0521,103.131,180.4167,103.0266,190.7813,103.2459,201.1458,103.309,211.5104,103.67,221.875,103.7589,232.2396,103.7675,242.6042,103.3251,252.9688,103.5428,263.3333,103.7914,273.6979,102.3087,284.0625,103.7667,294.4271,102.751,304.7917,103.6159,315.1563,102.5442,325.5208,102.9885,335.8854,103.8324,346.25,103.0091,356.6146,103.1696,366.9792,103.4126,377.3438,103.4935,387.7083,103.0558,398.0729,103.3591,408.4375,102.4636,418.8021,103.3561,429.1667,103.6309,439.5313,103.523,449.8958,103.6985,460.2604,102.5567,470.625,102.3805,480.9896,102.4126,491.3542,102.9986,501.7188,102.8552,512.0833,103.7697,522.4479,102.8779,532.8125,103.0599,532.7669,102.9498,533.4321,103.3772,533.9024,103.3341,534.5113,103.6256,535.2558,104.2444,535.7588,104.2803,535.8985,104.3382,536.2385,104.9671,536.1437,105.416,536.5934,106.0905,536.9245,106.7158,536.9792,107.2266,536.4871,107.2266,536.8793,117.5285,537.1104,127.8304,537.6581,138.1323,536.9748,148.4342,537.461,158.7362,536.4023,169.0381,536.2737,179.34,537.5038,189.6419,536.2324,199.9438,537.5093,210.2458,537.1944,220.5477,536.7001,230.8496,536.6107,241.1515,537.457,251.4535,536.6674,261.7554,537.5957,272.0573,536.4034,282.3592,537.6223,292.6611,537.4836,302.9631,537.2343,313.265,537.0284,323.5669,537.7361,333.8688,537.6183,344.1707,537.1555,354.4727,537.2585,364.7746,536.8435,375.0765,537.7255,385.3784,537.1405,395.6803,537.1589,405.9823,536.3455,416.2842,536.5571,426.5861,537.532,436.888,537.4268,447.1899,536.9344,457.4919,536.6436,467.7938,536.7511,478.0957,536.2644,488.3976,537.4112,498.6995,537.7495,509.0015,536.9792,519.3034,537.148,519.3733,536.958,519.985,536.4472,520.4637,536.2749,521.0827,535.8785,521.6089,535.7588,522.2497,535.7965,522.3408,535.2023,522.5729,534.6537,522.915,533.9605,522.9082,533.3839,523.1829,532.8125,523.4701,532.8125,523.932,522.4479,524.061,512.0833,522.9362,501.7188,523.2681,491.3542,523.6255,480.9896,522.8338,470.625,523.8382,460.2604,523.7388,449.8958,523.3651,439.5313,523.6182,429.1667,524.2291,418.8021,523.1441,408.4375,523.7982,398.0729,523.7676,387.7083,523.5906,377.3438,523.6168,366.9792,523.5883,356.6146,522.8199,346.25,523.0525,335.8854,522.9893,325.5208,523.5365,315.1563,523.5619,304.7917,523.6385,294.4271,523.167,284.0625,523.3997,273.6979,523.3448,263.3333,524.0709,252.9688,523.9144,242.6042,522.9643,232.2396,523.3941,221.875,522.8688,211.5104,523.7705,201.1458,524.1039,190.7813,524.0373,180.4167,523.0163,170.0521,523.9534,159.6875,522.6963,149.3229,523.6785,138.9583,523.1583,128.5938,523.5708,118.2292,523.7204,107.8646,523.9618,97.5,522.7201,87.1354,523.9653,76.7708,523.6556,66.4063,523.8402,56.0417,524.249,45.6771,523.4758,35.3125,523.6526,24.9479,523.6924,14.5833,523.4701,14.6095,523.5333,13.994,523.2257,13.4993,523.2099,12.7345,522.5422,12.3014,522.6751,11.6371,522.2497,11.4369,522.1667,11.2196,521.5886,11.1617,521.0765,10.9139,520.4857,10.5026,519.8272,10.4167,519.3034,10.8476,519.3034,10.5301,509.0015,11.1736,498.6995,11.1116,488.3976,9.9497,478.0957,10.0022,467.7938,10.2821,457.4919,10.787,447.1899,10.8364,436.888,10.7304,426.5861,10.0605,416.2842,11.0795,405.9823,11.0769,395.6803,10.3674,385.3784,10.1676,375.0765,9.9986,364.7746,10.1931,354.4727,10.5598,344.1707,10.3454,333.8688,9.9815,323.5669,10.9244,313.265,9.9386,302.9631,10.94,292.6611,10.8617,282.3592,10.804,272.0573,11.138,261.7554,10.1605,251.4535,10.1035,241.1515,10.9572,230.8496,9.7949,220.5477,10.1729,210.2458,10.537,199.9438,10.4882,189.6419,10.0433,179.34,10.3719,169.0381,11.1923,158.7362,11.0922,148.4342,9.7955,138.1323,10.4985,127.8304,9.8814,117.5285,10.4167,107.2266,10.4082,107.2231,10.7547,106.6762,11.0395,106.1038,10.9357,105.3705,11.5215,104.9228,11.6371,104.2803,11.6382,104.283,12.1525,103.8581,12.753,103.641,13.4482,103.6528,14.0273,103.3841,14.5833,103.0599" style="stroke:#555555;stroke-width:2.0833333333333335;"/><text fill="#17A2B8" font-family="Segoe Print" font-size="12.5" font-weight="bold" lengthAdjust="spacing" textLength="19.7917" x="31.25" y="120.9127">alt</text><text fill="#555555" font-family="Segoe Print" font-size="12.5" font-weight="bold" lengthAdjust="spacing" textLength="126.0417" x="108.3333" y="121.9543">[successful case]</text><polygon fill="#333333" points="122.3958,166.5039,122.4229,166.5717,120.2591,167.2037,118.2541,168.2329,116.1974,169.1328,113.9705,169.6072,111.9792,170.6706,111.9691,170.6455,114.0075,171.3664,116.0964,172.2136,118.2204,173.1486,120.2233,173.781,122.3958,174.8372,122.5318,174.9732,121.4078,173.8492,120.6806,173.122,120.0019,172.4433,119.0414,171.4828,118.2292,170.6706,118.2459,170.6873,119.0547,169.8294,119.9397,169.0477,120.7879,168.2293,121.7063,167.481,122.3958,166.5039" style="stroke:#333333;stroke-width:1.0416666666666667;"/><path d="M116.1458,170.6706 L116.1458,170.9625 L126.7361,170.0951 L137.3264,170.939 L147.9167,171.2257 L158.5069,169.6797 L169.0972,170.5626 L179.6875,170.0782 L190.2778,170.1379 L200.8681,170.5759 L211.4583,169.7103 L222.0486,171.4395 L232.6389,169.7952 L243.2292,170.3959 L253.8194,171.2705 L264.4097,170.5514 L275,170.7653 L285.5903,170.6262 L296.1806,170.9185 L306.7708,170.6706 " fill="none" style="stroke:#333333;stroke-width:3.125;"/><text fill="#FFFFFF" font-family="Segoe Print" font-size="12.5" lengthAdjust="spacing" textLength="161.4583" x="133.8542" y="160.4309">Authentication Accepted</text><path d="M10.4167,180.0456 L10.4167,180.3375 L20.7414,179.4701 L31.0662,180.314 L41.3909,180.6007 L51.7157,179.0547 L62.0404,179.9376 L72.3652,179.4532 L82.69,179.5129 L93.0147,179.9509 L103.3395,179.0853 L113.6642,180.8145 L123.989,179.1702 L134.3137,179.7709 L144.6385,180.6455 L154.9632,179.9264 L165.288,180.1403 L175.6127,180.0012 L185.9375,180.2935 L196.2623,180.3777 L206.587,180.859 L216.9118,180.9776 L227.2365,180.989 L237.5613,180.3992 L247.886,180.6894 L258.2108,181.0209 L268.5355,179.0439 L278.8603,180.9879 L289.185,179.6338 L299.5098,180.787 L309.8346,179.358 L320.1593,179.9504 L330.4841,181.0756 L340.8088,179.9779 L351.1336,180.1918 L361.4583,180.5159 L371.7831,180.6237 L382.1078,180.0401 L392.4326,180.4445 L402.7574,179.2505 L413.0821,180.4406 L423.4069,180.807 L433.7316,180.663 L444.0564,180.897 L454.3811,179.3746 L464.7059,179.1398 L475.0306,179.1825 L485.3554,179.9638 L495.6801,179.7726 L506.0049,180.992 L516.3297,179.803 L526.6544,179.5691 L536.9792,180.0456 " fill="none" style="stroke:#555555;stroke-width:1.0416666666666667;stroke-dasharray:2.0,2.0;"/><text fill="#555555" font-family="Segoe Print" font-size="12.5" font-weight="bold" lengthAdjust="spacing" textLength="156.25" x="20.8333" y="196.8567">[some kind of failure]</text><polygon fill="#333333" points="122.3958,233.1055,122.4229,233.1732,120.2591,233.8052,118.2541,234.8344,116.1974,235.7343,113.9705,236.2088,111.9792,237.2721,111.9691,237.2471,114.0075,237.968,116.0964,238.8152,118.2204,239.7502,120.2233,240.3826,122.3958,241.4388,122.5318,241.5747,121.4078,240.4507,120.6806,239.7236,120.0019,239.0449,119.0414,238.0844,118.2292,237.2721,118.2459,237.2889,119.0547,236.431,119.9397,235.6493,120.7879,234.8308,121.7063,234.0826,122.3958,233.1055" style="stroke:#333333;stroke-width:1.0416666666666667;"/><path d="M116.1458,237.2721 L116.1458,237.5641 L126.7361,236.6967 L137.3264,237.5406 L147.9167,237.8272 L158.5069,236.2813 L169.0972,237.1642 L179.6875,236.6798 L190.2778,236.7395 L200.8681,237.1775 L211.4583,236.3119 L222.0486,238.0411 L232.6389,236.3967 L243.2292,236.9975 L253.8194,237.8721 L264.4097,237.153 L275,237.3669 L285.5903,237.2278 L296.1806,237.5201 L306.7708,237.2721 " fill="none" style="stroke:#333333;stroke-width:3.125;"/><text fill="#FFFFFF" font-family="Segoe Print" font-size="12.5" lengthAdjust="spacing" textLength="143.75" x="133.8542" y="227.0325">Authentication Failure</text><path d="M25,252.8971 L175,252.8971 L175,268.5221 L164.5833,278.9388 L20.8333,278.9388 L20.8333,257.0638 A4.1667,4.1667 0 0 1 25,252.8971 " fill="#555555" style="stroke:#555555;stroke-width:1.0416666666666667;"/><polygon fill="none" points="25,252.8971,25,253.1161,35.3624,252.4656,45.7248,253.0985,56.0872,253.3135,66.4497,252.154,76.8121,252.8162,87.1745,252.4529,97.5369,252.4977,107.8993,252.8261,118.2617,252.177,128.6241,253.4738,138.9865,252.2406,149.349,252.6911,159.7114,253.3471,170.0738,252.8078,180.4362,252.9682,190.7986,252.8639,201.161,253.0831,211.5234,253.1462,221.8859,253.5072,232.2483,253.5961,242.6107,253.6047,252.9731,253.1624,263.3355,253.38,273.6979,253.6286,284.0603,252.1459,294.4227,253.6039,304.7852,252.5883,315.1476,253.4532,325.51,252.3815,335.8724,252.8258,346.2348,253.6696,356.5972,252.8464,366.9596,253.0068,377.322,253.2499,387.6845,253.3307,398.0469,252.8931,408.4093,253.1963,418.7717,252.3009,429.1341,253.1934,439.4965,253.4682,449.8589,253.3602,460.2214,253.5357,470.5838,252.3939,480.9462,252.2178,491.3086,252.2498,501.671,252.8358,512.0334,252.6924,522.3958,252.8971,522.4864,253.1157,522.9619,253.0852,523.5288,253.2752,524.1939,253.7026,524.6642,253.6595,525.3421,254.1175,525.1756,254.0485,525.7944,254.793,525.97,255.3539,526.31,255.9829,526.2152,256.4318,526.5625,257.0638,526.895,257.0638,527.1775,267.5275,526.0704,277.9912,526.4626,288.4549,526.6937,298.9185,527.2414,309.3822,526.5581,319.8459,527.0443,330.3096,525.9856,340.7733,525.857,351.237,527.0871,361.7007,525.8157,372.1644,527.0927,382.628,526.7777,393.0917,526.2834,403.5554,526.194,414.0191,527.0404,424.4828,526.2507,434.9465,526.5625,445.4102,526.7524,445.4888,526.1411,445.926,526.2724,446.6707,525.9856,447.2423,525.6648,447.7997,525.3421,448.3564,525.3484,448.3716,524.8494,448.8336,524.2451,449.0414,523.5968,449.143,523.0207,449.4188,522.3958,449.5768,522.3958,449.4411,512.0334,450.3231,501.671,449.7381,491.3086,449.7566,480.9462,448.9431,470.5838,449.1547,460.2214,450.1297,449.8589,450.0245,439.4965,449.5321,429.1341,449.2412,418.7717,449.3488,408.4093,448.8621,398.0469,450.0088,387.6845,450.3472,377.322,450.1252,366.9596,450.3007,356.5972,449.4344,346.2348,449.6677,335.8724,449.1731,325.51,449.8727,315.1476,449.8339,304.7852,450.1522,294.4227,449.3376,284.0603,449.4368,273.6979,450.0388,263.3355,450.1678,252.9731,449.0429,242.6107,449.3749,232.2483,449.7323,221.8859,448.9405,211.5234,449.9449,201.161,449.8456,190.7986,449.4719,180.4362,449.725,170.0738,450.3359,159.7114,449.2509,149.349,449.9049,138.9865,449.8744,128.6241,449.6974,118.2617,449.7236,107.8993,449.695,97.5369,448.9267,87.1745,449.1593,76.8121,449.0961,66.4497,449.6433,56.0872,449.6686,45.7248,449.7453,35.3624,449.2737,25,449.5768,24.991,449.5552,24.3948,449.2942,23.8981,449.2737,23.2889,448.9814,22.5785,448.4448,22.0537,448.3564,22.0303,448.3467,21.6245,447.6905,21.6581,447.2162,21.5167,446.6695,21.2521,446.0718,20.8333,445.4102,20.3796,445.4102,21.3166,434.9465,20.0596,424.4828,21.0418,414.0191,20.5215,403.5554,20.9341,393.0917,21.0837,382.628,21.3251,372.1644,20.0834,361.7007,21.3286,351.237,21.0189,340.7733,21.2035,330.3096,21.6123,319.8459,20.839,309.3822,21.0159,298.9185,21.0557,288.4549,21.0388,277.9912,20.8325,267.5275,20.8333,257.0638,21.0613,257.1582,20.8818,256.3935,21.5028,255.9604,21.3654,255.2131,21.6363,254.635,22.0537,254.1175,22.059,254.1304,22.6467,253.8825,23.1667,253.4713,23.8765,253.518,24.4252,253.1761,25,252.8971" style="stroke:#555555;stroke-width:2.0833333333333335;"/><text fill="#17A2B8" font-family="Segoe Print" font-size="12.5" font-weight="bold" lengthAdjust="spacing" textLength="96.875" x="41.6667" y="270.7499">My own label</text><polygon fill="#333333" points="438.0208,306.9987,438.0479,307.0665,440.0507,307.6985,442.2124,308.7277,444.3224,309.6275,446.2622,310.102,448.4375,311.1654,448.4275,311.1403,446.2992,311.8612,444.2214,312.7084,442.1787,313.6434,440.015,314.2758,438.0208,315.332,438.1568,315.468,438.6994,314.3439,439.6389,313.6168,440.6269,312.9381,441.3331,311.9776,442.1875,311.1654,442.2043,311.1821,441.3463,310.3242,440.5647,309.5425,439.7462,308.7241,438.998,307.9758,438.0208,306.9987" style="stroke:#333333;stroke-width:1.0416666666666667;"/><path d="M110.9375,311.1654 L110.9375,311.4573 L121.3542,310.5899 L131.7708,311.4338 L142.1875,311.7205 L152.6042,310.1745 L163.0208,311.0574 L173.4375,310.573 L183.8542,310.6327 L194.2708,311.0707 L204.6875,310.2051 L215.1042,311.9343 L225.5208,310.29 L235.9375,310.8907 L246.3542,311.7653 L256.7708,311.0462 L267.1875,311.2601 L277.6042,311.121 L288.0208,311.4133 L298.4375,311.4975 L308.8542,311.9788 L319.2708,312.0974 L329.6875,312.1088 L340.1042,311.519 L350.5208,311.8092 L360.9375,312.1407 L371.3542,310.1637 L381.7708,312.1077 L392.1875,310.7536 L402.6042,311.9068 L413.0208,310.4778 L423.4375,311.0702 L433.8542,312.1954 L444.2708,311.1654 " fill="none" style="stroke:#333333;stroke-width:3.125;"/><text fill="#FFFFFF" font-family="Segoe Print" font-size="12.5" lengthAdjust="spacing" textLength="104.1667" x="123.4375" y="300.9257">Log attack start</text><path d="M35.4167,326.7904 L120.8333,326.7904 L120.8333,342.4154 L110.4167,352.832 L31.25,352.832 L31.25,330.957 A4.1667,4.1667 0 0 1 35.4167,326.7904 " fill="#555555" style="stroke:#555555;stroke-width:1.0416666666666667;"/><polygon fill="none" points="35.4167,326.7904,35.4167,327.0093,45.8807,326.3588,56.3447,326.9917,66.8087,327.2067,77.2727,326.0472,87.7367,326.7094,98.2008,326.3461,108.6648,326.3909,119.1288,326.7194,129.5928,326.0702,140.0568,327.3671,150.5208,326.1338,160.9848,326.5844,171.4489,327.2403,181.9129,326.701,192.3769,326.8614,202.8409,326.7571,213.3049,326.9763,223.7689,327.0395,234.233,327.4005,244.697,327.4894,255.161,327.4979,265.625,327.0556,276.089,327.2733,286.553,327.5219,297.017,326.0391,307.4811,327.4971,317.9451,326.4815,328.4091,327.3464,338.8731,326.2747,349.3371,326.719,359.8011,327.5629,370.2652,326.7396,380.7292,326.7904,380.7432,326.8241,381.3634,327.1431,381.963,327.412,382.4964,327.5213,383.1244,327.8588,383.6754,328.0108,383.4918,327.9347,384.0108,328.6378,384.3395,329.2621,384.5503,329.8376,384.8484,330.4492,384.8958,330.957,384.3926,330.957,384.2165,342.2255,384.2485,353.4939,384.8345,364.7624,384.6911,376.0308,385.6056,387.2993,384.8958,398.5677,384.8398,398.5445,384.5417,399.1114,384.4809,399.7766,383.9497,400.2469,383.753,400.8558,383.6754,401.514,383.7617,401.7222,383.1441,401.8978,382.5945,402.2378,381.8649,402.143,381.3608,402.5927,380.7292,402.7344,380.7292,403.3494,370.2652,402.2423,359.8011,402.6345,349.3371,402.8656,338.8731,403.4133,328.4091,402.73,317.9451,403.2162,307.4811,402.1575,297.017,402.0289,286.553,403.259,276.089,401.9876,265.625,403.2645,255.161,402.9496,244.697,402.4553,234.233,402.3659,223.7689,403.2122,213.3049,402.4226,202.8409,403.3509,192.3769,402.1586,181.9129,403.3775,171.4489,403.2389,160.9848,402.9896,150.5208,402.7836,140.0568,403.4913,129.5928,403.3735,119.1288,402.9107,108.6648,403.0137,98.2008,402.5987,87.7367,403.4807,77.2727,402.8957,66.8087,402.9141,56.3447,402.1007,45.8807,402.3123,35.4167,402.7344,35.4872,402.9046,34.8845,402.6282,34.2325,402.2324,33.6061,401.8988,33.0306,401.6878,32.4704,401.514,32.2503,401.4228,32.3594,400.9798,32.2195,400.4337,31.907,399.8162,31.717,399.2493,31.25,398.5677,31.1076,398.5677,31.3409,387.2993,30.8463,376.0308,31.5459,364.7624,31.507,353.4939,31.8254,342.2255,31.25,330.957,31.1763,330.9265,31.451,330.3499,31.8804,329.8374,32.1642,329.2646,32.0619,328.5319,32.4704,328.0108,32.4446,327.9486,33.0795,327.8146,33.5677,327.3266,34.2851,327.3919,34.8617,327.1172,35.4167,326.7904" style="stroke:#555555;stroke-width:2.0833333333333335;"/><text fill="#17A2B8" font-family="Segoe Print" font-size="12.5" font-weight="bold" lengthAdjust="spacing" textLength="32.2917" x="52.0833" y="344.6431">loop</text><text fill="#555555" font-family="Segoe Print" font-size="12.5" font-weight="bold" lengthAdjust="spacing" textLength="88.5417" x="141.6667" y="345.6848">[1000 times]</text><polygon fill="#333333" points="295.3125,390.2344,295.3396,390.3021,297.3424,390.9341,299.5041,391.9634,301.614,392.8632,303.5538,393.3377,305.7292,394.401,305.7191,394.376,303.5908,395.0969,301.513,395.9441,299.4704,396.8791,297.3067,397.5115,295.3125,398.5677,295.4484,398.7036,295.9911,397.5796,296.9306,396.8525,297.9186,396.1738,298.6248,395.2133,299.4792,394.401,299.4959,394.4178,298.638,393.5599,297.8563,392.7782,297.0379,391.9598,296.2896,391.2115,295.3125,390.2344" style="stroke:#333333;stroke-width:1.0416666666666667;"/><path d="M110.9375,394.401 L110.9375,394.693 L121.5278,393.8256 L132.1181,394.6695 L142.7083,394.9562 L153.2986,393.4102 L163.8889,394.2931 L174.4792,393.8087 L185.0694,393.8684 L195.6597,394.3064 L206.25,393.4408 L216.8403,395.17 L227.4306,393.5257 L238.0208,394.1264 L248.6111,395.001 L259.2014,394.2819 L269.7917,394.4958 L280.3819,394.3567 L290.9722,394.649 L301.5625,394.401 " fill="none" style="stroke:#333333;stroke-width:3.125;"/><text fill="#FFFFFF" font-family="Segoe Print" font-size="12.5" lengthAdjust="spacing" textLength="72.9167" x="123.4375" y="384.1614">DNS Attack</text><polygon fill="#333333" points="438.0208,437.0768,438.0479,437.1446,440.0507,437.7766,442.2124,438.8058,444.3224,439.7057,446.2622,440.1802,448.4375,441.2435,448.4275,441.2184,446.2992,441.9393,444.2214,442.7865,442.1787,443.7215,440.015,444.3539,438.0208,445.4102,438.1568,445.5461,438.6994,444.4221,439.6389,443.6949,440.6269,443.0162,441.3331,442.0558,442.1875,441.2435,442.2043,441.2602,441.3463,440.4023,440.5647,439.6207,439.7462,438.8022,438.998,438.054,438.0208,437.0768" style="stroke:#333333;stroke-width:1.0416666666666667;"/><path d="M110.9375,441.2435 L110.9375,441.5354 L121.3542,440.668 L131.7708,441.5119 L142.1875,441.7986 L152.6042,440.2527 L163.0208,441.1356 L173.4375,440.6511 L183.8542,440.7109 L194.2708,441.1488 L204.6875,440.2833 L215.1042,442.0124 L225.5208,440.3681 L235.9375,440.9688 L246.3542,441.8434 L256.7708,441.1244 L267.1875,441.3383 L277.6042,441.1991 L288.0208,441.4914 L298.4375,441.5756 L308.8542,442.0569 L319.2708,442.1755 L329.6875,442.1869 L340.1042,441.5971 L350.5208,441.8874 L360.9375,442.2188 L371.3542,440.2418 L381.7708,442.1859 L392.1875,440.8317 L402.6042,441.9849 L413.0208,440.556 L423.4375,441.1484 L433.8542,442.2735 L444.2708,441.2435 " fill="none" style="stroke:#333333;stroke-width:3.125;"/><text fill="#FFFFFF" font-family="Segoe Print" font-size="12.5" lengthAdjust="spacing" textLength="97.9167" x="123.4375" y="431.0038">Log attack end</text><path d="M10.4167,457.9102 L10.4167,458.2021 L20.7414,457.3347 L31.0662,458.1786 L41.3909,458.4653 L51.7157,456.9193 L62.0404,457.8022 L72.3652,457.3178 L82.69,457.3775 L93.0147,457.8155 L103.3395,456.9499 L113.6642,458.6791 L123.989,457.0348 L134.3137,457.6355 L144.6385,458.5101 L154.9632,457.791 L165.288,458.0049 L175.6127,457.8658 L185.9375,458.1581 L196.2623,458.2423 L206.587,458.7236 L216.9118,458.8422 L227.2365,458.8536 L237.5613,458.2638 L247.886,458.554 L258.2108,458.8855 L268.5355,456.9085 L278.8603,458.8525 L289.185,457.4983 L299.5098,458.6516 L309.8346,457.2226 L320.1593,457.815 L330.4841,458.9402 L340.8088,457.8425 L351.1336,458.0564 L361.4583,458.3805 L371.7831,458.4883 L382.1078,457.9047 L392.4326,458.3091 L402.7574,457.1151 L413.0821,458.3051 L423.4069,458.6715 L433.7316,458.5276 L444.0564,458.7616 L454.3811,457.2392 L464.7059,457.0043 L475.0306,457.0471 L485.3554,457.8284 L495.6801,457.6372 L506.0049,458.8566 L516.3297,457.6675 L526.6544,457.4337 L536.9792,457.9102 " fill="none" style="stroke:#555555;stroke-width:1.0416666666666667;stroke-dasharray:2.0,2.0;"/><text fill="#555555" font-family="Segoe Print" font-size="12.5" font-weight="bold" lengthAdjust="spacing" textLength="178.125" x="20.8333" y="474.7213">[Another type of failure]</text><polygon fill="#333333" points="122.3958,510.9701,122.4229,511.0378,120.2591,511.6698,118.2541,512.699,116.1974,513.5989,113.9705,514.0734,111.9792,515.1367,111.9691,515.1117,114.0075,515.8326,116.0964,516.6798,118.2204,517.6147,120.2233,518.2472,122.3958,519.3034,122.5318,519.4393,121.4078,518.3153,120.6806,517.5882,120.0019,516.9094,119.0414,515.949,118.2292,515.1367,118.2459,515.1535,119.0547,514.2955,119.9397,513.5139,120.7879,512.6954,121.7063,511.9472,122.3958,510.9701" style="stroke:#333333;stroke-width:1.0416666666666667;"/><path d="M116.1458,515.1367 L116.1458,515.4286 L126.7361,514.5613 L137.3264,515.4052 L147.9167,515.6918 L158.5069,514.1459 L169.0972,515.0288 L179.6875,514.5444 L190.2778,514.6041 L200.8681,515.0421 L211.4583,514.1765 L222.0486,515.9057 L232.6389,514.2613 L243.2292,514.862 L253.8194,515.7366 L264.4097,515.0176 L275,515.2315 L285.5903,515.0923 L296.1806,515.3847 L306.7708,515.1367 " fill="none" style="stroke:#333333;stroke-width:3.125;"/><text fill="#FFFFFF" font-family="Segoe Print" font-size="12.5" lengthAdjust="spacing" textLength="91.6667" x="133.8542" y="504.8971">Please repeat</text></g></svg>