<?xml version="1.0" encoding="UTF-8" standalone="no"?><svg xmlns="http://www.w3.org/2000/svg" xmlns:xlink="http://www.w3.org/1999/xlink" contentScriptType="application/ecmascript" contentStyleType="text/css" height="465px" preserveAspectRatio="none" style="width:386px;height:465px;background:#282828;" version="1.1" viewBox="0 0 386 465" width="386px" zoomAndPan="magnify"><defs/><g><rect fill="#282828" height="35.6094" style="stroke:#282828;stroke-width:0.0;" width="222" x="85.5" y="10"/><text fill="#FFB000" font-family="Verdana" font-size="22" font-weight="bold" lengthAdjust="spacing" textLength="212" x="90.5" y="35.4209">crt-amber theme</text><rect fill="#282828" height="283.8047" style="stroke:#FFB000;stroke-width:1.0;" width="364" x="15" y="129.0391"/><rect fill="#282828" height="193.6016" style="stroke:none;stroke-width:1.0;" width="364" x="15" y="175.3047"/><rect fill="#282828" height="135.6641" style="stroke:#FFB000;stroke-width:1.0;" width="344" x="25" y="226.2422"/><rect fill="#282828" height="46.2656" style="stroke:#FFB000;stroke-width:1.0;" width="265" x="35" y="279.5078"/><rect fill="#282828" height="43.9375" style="stroke:none;stroke-width:1.0;" width="364" x="15" y="368.9063"/><line style="stroke:#FFB000;stroke-width:1.0;" x1="78" x2="78" y1="82.9063" y2="429.8438"/><line style="stroke:#FFB000;stroke-width:1.0;" x1="259" x2="259" y1="82.9063" y2="429.8438"/><line style="stroke:#FFB000;stroke-width:1.0;" x1="329" x2="329" y1="82.9063" y2="429.8438"/><rect fill="#282828" height="30.2969" style="stroke:#FFB000;stroke-width:1.0;" width="46" x="55" y="51.6094"/><text fill="#FFB000" font-family="Verdana" font-size="14" lengthAdjust="spacing" textLength="32" x="62" y="71.6045">Alice</text><rect fill="#282828" height="30.2969" style="stroke:#FFB000;stroke-width:1.0;" width="46" x="55" y="428.8438"/><text fill="#FFB000" font-family="Verdana" font-size="14" lengthAdjust="spacing" textLength="32" x="62" y="448.8389">Alice</text><rect fill="#282828" height="30.2969" style="stroke:#FFB000;stroke-width:1.0;" width="42" x="238" y="51.6094"/><text fill="#FFB000" font-family="Verdana" font-size="14" lengthAdjust="spacing" textLength="28" x="245" y="71.6045">Bob</text><rect fill="#282828" height="30.2969" style="stroke:#FFB000;stroke-width:1.0;" width="42" x="238" y="428.8438"/><text fill="#FFB000" font-family="Verdana" font-size="14" lengthAdjust="spacing" textLength="28" x="245" y="448.8389">Bob</text><rect fill="#282828" height="30.2969" style="stroke:#FFB000;stroke-width:1.0;" width="39" x="310" y="51.6094"/><text fill="#FFB000" font-family="Verdana" font-size="14" lengthAdjust="spacing" textLength="25" x="317" y="71.6045">Log</text><rect fill="#282828" height="30.2969" style="stroke:#FFB000;stroke-width:1.0;" width="39" x="310" y="428.8438"/><text fill="#FFB000" font-family="Verdana" font-size="14" lengthAdjust="spacing" textLength="25" x="317" y="448.8389">Log</text><polygon fill="#FFB000" points="247,110.0391,257,114.0391,247,118.0391,251,114.0391" style="stroke:#FFB000;stroke-width:1.0;"/><line style="stroke:#FFB000;stroke-width:1.0;" x1="78" x2="253" y1="114.0391" y2="114.0391"/><text fill="#FFB000" font-family="Verdana" font-size="13" lengthAdjust="spacing" textLength="149" x="85" y="108.9731">Authentication Request</text><path d="M15,129.0391 L79,129.0391 L79,136.0391 L69,146.0391 L15,146.0391 L15,129.0391 " fill="#FFB000" style="stroke:#FFB000;stroke-width:1.0;"/><rect fill="none" height="283.8047" style="stroke:#FFB000;stroke-width:1.0;" width="364" x="15" y="129.0391"/><text fill="#282828" font-family="Verdana" font-size="13" font-weight="bold" lengthAdjust="spacing" textLength="19" x="30" y="142.106">alt</text><text fill="#FFB000" font-family="Verdana" font-size="11" font-weight="bold" lengthAdjust="spacing" textLength="112" x="94" y="141.2495">[successful case]</text><polygon fill="#FFB000" points="89,163.3047,79,167.3047,89,171.3047,85,167.3047" style="stroke:#FFB000;stroke-width:1.0;"/><line style="stroke:#FFB000;stroke-width:1.0;" x1="83" x2="258" y1="167.3047" y2="167.3047"/><text fill="#FFB000" font-family="Verdana" font-size="13" lengthAdjust="spacing" textLength="157" x="95" y="162.2388">Authentication Accepted</text><line style="stroke:#FFB000;stroke-width:1.0;stroke-dasharray:2.0,2.0;" x1="15" x2="379" y1="176.3047" y2="176.3047"/><text fill="#FFB000" font-family="Verdana" font-size="11" font-weight="bold" lengthAdjust="spacing" textLength="138" x="20" y="186.5151">[some kind of failure]</text><polygon fill="#FFB000" points="89,207.2422,79,211.2422,89,215.2422,85,211.2422" style="stroke:#FFB000;stroke-width:1.0;"/><line style="stroke:#FFB000;stroke-width:1.0;" x1="83" x2="258" y1="211.2422" y2="211.2422"/><text fill="#FFB000" font-family="Verdana" font-size="13" lengthAdjust="spacing" textLength="139" x="95" y="206.1763">Authentication Failure</text><path d="M25,226.2422 L167,226.2422 L167,233.2422 L157,243.2422 L25,243.2422 L25,226.2422 " fill="#FFB000" style="stroke:#FFB000;stroke-width:1.0;"/><rect fill="none" height="135.6641" style="stroke:#FFB000;stroke-width:1.0;" width="344" x="25" y="226.2422"/><text fill="#282828" font-family="Verdana" font-size="13" font-weight="bold" lengthAdjust="spacing" textLength="97" x="40" y="239.3091">My own label</text><polygon fill="#FFB000" points="317.5,260.5078,327.5,264.5078,317.5,268.5078,321.5,264.5078" style="stroke:#FFB000;stroke-width:1.0;"/><line style="stroke:#FFB000;stroke-width:1.0;" x1="78" x2="323.5" y1="264.5078" y2="264.5078"/><text fill="#FFB000" font-family="Verdana" font-size="13" lengthAdjust="spacing" textLength="101" x="85" y="259.4419">Log attack start</text><path d="M35,279.5078 L112,279.5078 L112,286.5078 L102,296.5078 L35,296.5078 L35,279.5078 " fill="#FFB000" style="stroke:#FFB000;stroke-width:1.0;"/><rect fill="none" height="46.2656" style="stroke:#FFB000;stroke-width:1.0;" width="265" x="35" y="279.5078"/><text fill="#282828" font-family="Verdana" font-size="13" font-weight="bold" lengthAdjust="spacing" textLength="32" x="50" y="292.5747">loop</text><text fill="#FFB000" font-family="Verdana" font-size="11" font-weight="bold" lengthAdjust="spacing" textLength="81" x="127" y="291.7183">[1000 times]</text><polygon fill="#FFB000" points="247,313.7734,257,317.7734,247,321.7734,251,317.7734" style="stroke:#FFB000;stroke-width:1.0;"/><line style="stroke:#FFB000;stroke-width:1.0;" x1="78" x2="253" y1="317.7734" y2="317.7734"/><text fill="#FFB000" font-family="Verdana" font-size="13" lengthAdjust="spacing" textLength="74" x="85" y="312.7075">DNS Attack</text><polygon fill="#FFB000" points="317.5,349.9063,327.5,353.9063,317.5,357.9063,321.5,353.9063" style="stroke:#FFB000;stroke-width:1.0;"/><line style="stroke:#FFB000;stroke-width:1.0;" x1="78" x2="323.5" y1="353.9063" y2="353.9063"/><text fill="#FFB000" font-family="Verdana" font-size="13" lengthAdjust="spacing" textLength="95" x="85" y="348.8403">Log attack end</text><line style="stroke:#FFB000;stroke-width:1.0;stroke-dasharray:2.0,2.0;" x1="15" x2="379" y1="369.9063" y2="369.9063"/><text fill="#FFB000" font-family="Verdana" font-size="11" font-weight="bold" lengthAdjust="spacing" textLength="155" x="20" y="380.1167">[Another type of failure]</text><polygon fill="#FFB000" points="89,400.8438,79,404.8438,89,408.8438,85,404.8438" style="stroke:#FFB000;stroke-width:1.0;"/><line style="stroke:#FFB000;stroke-width:1.0;" x1="83" x2="258" y1="404.8438" y2="404.8438"/><text fill="#FFB000" font-family="Verdana" font-size="13" lengthAdjust="spacing" textLength="88" x="95" y="399.7778">Please repeat</text></g></svg>