<svg xmlns="http://www.w3.org/2000/svg" xmlns:xlink="http://www.w3.org/1999/xlink" contentStyleType="text/css" height="428.125px" preserveAspectRatio="none" style="width:431px;height:428px;" version="1.1" viewBox="0 0 431 428" width="431.25px" zoomAndPan="magnify"><defs/><g><polygon fill="#555555" points="67.1875,103.0599,67.1875,103.2788,77.5228,102.6283,87.8581,103.2612,98.1934,103.4762,108.5286,102.3168,118.8639,102.9789,129.1992,102.6156,139.5345,102.6604,149.8698,102.9889,160.2051,102.3397,170.5404,103.6366,180.8757,102.4034,191.2109,102.8539,201.5462,103.5098,211.8815,102.9705,222.2168,103.131,232.5521,103.0266,242.8874,103.2459,253.2227,103.309,263.5579,103.67,273.8932,103.7589,284.2285,103.7675,294.5638,103.3251,304.8991,103.5428,315.2344,103.7914,325.5697,102.3087,335.9049,103.7667,346.2402,102.751,356.5755,103.6159,366.9108,102.5442,377.2461,102.9885,387.5814,103.8324,397.9167,103.0599,397.9102,103.0443,398.5199,103.3378,399.1402,103.6567,399.7397,103.9257,400.2732,104.035,400.8629,104.2803,400.9551,104.3184,400.9234,104.7935,401.4423,105.4966,401.771,106.1209,401.9819,106.6964,402.0833,107.2266,402.7219,107.2266,401.5801,117.0387,401.404,126.8508,401.436,136.6629,402.022,146.4751,401.8786,156.2872,402.7931,166.0993,402.0833,175.9115,402.0273,175.8882,401.7292,176.4551,401.6684,177.1203,401.1372,177.5906,400.9405,178.1995,400.8629,178.8577,400.9492,179.0659,400.3316,179.2416,399.782,179.5815,399.0524,179.4867,398.5483,179.9364,397.9167,180.0781,397.9167,180.6931,387.5814,179.586,377.2461,179.9783,366.9108,180.2094,356.5755,180.757,346.2402,180.0738,335.9049,180.56,325.5697,179.5013,315.2344,179.3726,304.8991,180.6027,294.5638,179.3313,284.2285,180.6083,273.8932,180.2934,263.5579,179.799,253.2227,179.7096,242.8874,180.556,232.5521,179.7663,222.2168,180.6946,211.8815,179.5023,201.5462,180.7213,191.2109,180.5826,180.8757,180.3333,170.5404,180.1273,160.2051,180.835,149.8698,180.7173,139.5345,180.2544,129.1992,180.3575,118.8639,179.9424,108.5286,180.8244,98.1934,180.2394,87.8581,180.2579,77.5228,179.4444,67.1875,180.0781,67.1337,179.9481,66.6688,180.0043,66.0661,179.7278,65.414,179.3321,64.7877,178.9985,64.2412,178.8577,64.171,178.8286,63.777,178.1773,63.8861,177.7343,63.7462,177.1882,63.4338,176.5707,63.0208,175.9115,63.7447,175.9115,62.8784,166.0993,63.1117,156.2872,62.6171,146.4751,63.3167,136.6629,63.2779,126.8508,63.5962,117.0387,63.0208,107.2266,62.9472,107.196,63.2218,106.6194,63.6512,106.107,63.9351,105.5342,63.8327,104.8014,64.2412,104.2803,64.2155,104.2181,64.8503,104.0841,65.3386,103.5962,66.0559,103.6614,66.6325,103.3867,67.1875,103.0599" style="stroke:#555555;stroke-width:1.0416666666666667;"/><path d="M155.7292,242.513 L156.0211,242.513 L155.1537,252.9208 L155.9976,263.3286 L156.2843,273.7364 L154.7383,284.1442 L155.6212,294.552 L155.1368,304.9598 L155.1965,315.3675 L155.6345,325.7753 L154.7689,336.1831 L156.4981,346.5909 L155.7292,356.9987 " fill="#333333" style="stroke:#333333;stroke-width:3.125;"/><polygon fill="#333333" points="151.5625,252.9297,151.6303,252.9568,152.2623,250.7929,153.2915,248.7879,154.1914,246.7312,154.6658,244.5044,155.7292,242.513,155.7041,242.503,156.425,244.5414,157.2722,246.6302,158.2072,248.7542,158.8396,250.7572,159.8958,252.9297,160.0318,253.0656,158.9078,251.9416,158.1806,251.2145,157.5019,250.5357,156.5414,249.5753,155.7292,248.763,155.7459,248.7798,154.888,249.5885,154.1063,250.4735,153.2879,251.3217,152.5396,252.2402,151.5625,252.9297" style="stroke:#333333;stroke-width:1.0416666666666667;"/><polygon fill="#333333" points="151.5625,346.582,151.6303,346.6091,152.2623,348.6119,153.2915,350.7736,154.1914,352.8836,154.6658,354.8234,155.7292,356.9987,155.7041,356.9887,156.425,354.8604,157.2722,352.7826,158.2072,350.7399,158.8396,348.5762,159.8958,346.582,160.0318,346.718,158.9078,347.2606,158.1806,348.2001,157.5019,349.1881,156.5414,349.8943,155.7292,350.7487,155.7459,350.7655,154.888,349.9075,154.1063,349.1259,153.2879,348.3074,152.5396,347.5592,151.5625,346.582" style="stroke:#333333;stroke-width:1.0416666666666667;"/><text fill="#FFFFFF" font-family="Segoe Print" font-size="12.5" lengthAdjust="spacing" textLength="67.7083" x="165.1042" y="304.0833">some time</text><path d="M79.6875,51.0091 L79.9794,51.0091 L79.1121,61.5518 L79.956,72.0945 L80.2426,82.6371 L78.6967,93.1798 L79.5796,103.7225 L79.0951,114.2652 L79.1549,124.8078 L79.5928,135.3505 L78.7273,145.8932 L80.4564,156.4359 L78.8121,166.9785 L79.4128,177.5212 L80.2874,188.0639 L79.5684,198.6066 L79.7823,209.1492 L79.6431,219.6919 L79.9355,230.2346 L80.0196,240.7773 L80.501,251.3199 L80.6195,261.8626 L80.6309,272.4053 L80.0411,282.948 L80.3314,293.4906 L80.6628,304.0333 L78.6859,314.576 L80.6299,325.1187 L79.2757,335.6613 L80.4289,346.204 L79,356.7467 L79.5924,367.2894 L79.6875,377.832 " fill="none" style="stroke:#555555;stroke-width:1.0416666666666667;stroke-dasharray:5.0,5.0;"/><path d="M231.7708,51.0091 L232.0628,51.0091 L231.1954,61.5518 L232.0393,72.0945 L232.3259,82.6371 L230.78,93.1798 L231.6629,103.7225 L231.1785,114.2652 L231.2382,124.8078 L231.6762,135.3505 L230.8106,145.8932 L232.5398,156.4359 L230.8954,166.9785 L231.4962,177.5212 L232.3708,188.0639 L231.6517,198.6066 L231.8656,209.1492 L231.7265,219.6919 L232.0188,230.2346 L232.103,240.7773 L232.5843,251.3199 L232.7029,261.8626 L232.7142,272.4053 L232.1245,282.948 L232.4147,293.4906 L232.7462,304.0333 L230.7692,314.576 L232.7132,325.1187 L231.359,335.6613 L232.5122,346.204 L231.0833,356.7467 L231.6757,367.2894 L231.7708,377.832 " fill="none" style="stroke:#555555;stroke-width:1.0416666666666667;stroke-dasharray:5.0,5.0;"/><path d="M385.4167,51.0091 L385.7086,51.0091 L384.8412,61.5518 L385.6851,72.0945 L385.9718,82.6371 L384.4258,93.1798 L385.3087,103.7225 L384.8243,114.2652 L384.884,124.8078 L385.322,135.3505 L384.4564,145.8932 L386.1856,156.4359 L384.5413,166.9785 L385.142,177.5212 L386.0166,188.0639 L385.2975,198.6066 L385.5114,209.1492 L385.3723,219.6919 L385.6646,230.2346 L385.7488,240.7773 L386.2301,251.3199 L386.3487,261.8626 L386.3601,272.4053 L385.7703,282.948 L386.0605,293.4906 L386.392,304.0333 L384.415,314.576 L386.359,325.1187 L385.0049,335.6613 L386.1581,346.204 L384.7291,356.7467 L385.3215,367.2894 L385.4167,377.832 " fill="none" style="stroke:#555555;stroke-width:1.0416666666666667;stroke-dasharray:5.0,5.0;"/><polygon fill="#474747" points="56.25,10.4167,56.25,10.6356,65.625,9.9851,75,10.618,84.375,10.833,93.75,9.6735,103.125,10.4167,103.1147,10.3917,103.6576,10.5239,104.2526,10.7818,104.8837,11.127,105.3902,11.1712,106.0713,11.6371,106.2489,11.7106,106.1132,12.1426,106.496,12.7893,106.9421,13.4622,107.0201,13.9827,107.2917,14.5833,107.3154,14.5833,107.2806,20.8268,107.3537,27.0703,107.3747,33.3138,107.495,39.5573,107.2917,45.8008,107.5069,45.8899,107.2655,46.4803,106.8852,47.0131,106.7081,47.6301,106.5406,48.2511,106.0713,48.7471,105.9754,48.5157,105.5722,49.2088,104.8534,49.1401,104.3744,49.6505,103.6485,49.5646,103.125,49.9674,103.125,49.8961,93.75,50.74,84.375,49.9167,75,50.0771,65.625,50.3202,56.25,49.9674,56.3053,50.101,55.6602,49.7221,55.1097,49.5714,54.4062,49.0516,53.9308,49.0824,53.3037,48.7471,53.4796,48.8199,53.2022,48.2169,53.0122,47.65,52.4165,46.9151,52.1182,46.3034,52.0833,45.8008,51.8676,45.8008,52.0629,39.5573,52.0151,33.3138,52.3199,27.0703,52.0227,20.8268,52.0833,14.5833,51.9733,14.5377,52.4006,14.0244,52.3576,13.3162,52.649,12.7466,53.2678,12.3125,53.3037,11.6371,53.3616,11.7768,53.9906,11.6286,54.4395,11.0457,55.1139,11.0072,55.7392,10.8501,56.25,10.4167" style="stroke:#333333;stroke-width:1.0416666666666667;"/><text fill="#FFFFFF" font-family="Segoe Print" font-size="12.5" lengthAdjust="spacing" textLength="30.2083" x="64.5833" y="34.5194">Alice</text><polygon fill="#474747" points="210.9375,10.4167,210.9375,10.4896,219.2708,10.2728,227.6042,10.4838,235.9375,10.5554,244.2708,10.169,252.6042,10.4167,252.5938,10.3917,253.1368,10.5239,253.7317,10.7818,254.3629,11.127,254.8693,11.1712,255.5504,11.6371,255.728,11.7106,255.5923,12.1426,255.9752,12.7893,256.4212,13.4622,256.4992,13.9827,256.7708,14.5833,256.7945,14.5833,256.7597,20.8268,256.8328,27.0703,256.8539,33.3138,256.9742,39.5573,256.7708,45.8008,256.9861,45.8899,256.7447,46.4803,256.3644,47.0131,256.1873,47.6301,256.0198,48.2511,255.5504,48.7471,255.4546,48.5157,255.0513,49.2088,254.3325,49.1401,253.8536,49.6505,253.1276,49.5646,252.6042,49.9674,252.6042,49.9437,244.2708,50.2249,235.9375,49.9505,227.6042,50.004,219.2708,50.085,210.9375,49.9674,210.9928,50.101,210.3477,49.7221,209.7972,49.5714,209.0937,49.0516,208.6183,49.0824,207.9912,48.7471,208.1671,48.8199,207.8897,48.2169,207.6997,47.65,207.104,46.9151,206.8057,46.3034,206.7708,45.8008,206.5551,45.8008,206.7504,39.5573,206.7026,33.3138,207.0074,27.0703,206.7102,20.8268,206.7708,14.5833,206.6608,14.5377,207.0881,14.0244,207.0451,13.3162,207.3365,12.7466,207.9553,12.3125,207.9912,11.6371,208.0491,11.7768,208.6781,11.6286,209.127,11.0457,209.8014,11.0072,210.4267,10.8501,210.9375,10.4167" style="stroke:#333333;stroke-width:1.0416666666666667;"/><text fill="#FFFFFF" font-family="Segoe Print" font-size="12.5" lengthAdjust="spacing" textLength="25" x="219.2708" y="34.5194">Bob</text><polygon fill="#474747" points="354.6875,10.4167,354.6875,10.6356,364.9306,9.9851,375.1736,10.618,385.4167,10.833,395.6597,9.6735,405.9028,10.3357,416.1458,10.4167,416.0892,10.2799,416.6841,10.5377,417.3153,10.883,417.8217,10.9271,418.5764,11.5706,419.0921,11.6371,418.8899,11.5533,419.2727,12.2,419.7188,12.873,419.7968,13.3934,420.0903,14.0031,420.3125,14.5833,420.3014,14.5833,420.3745,20.8268,420.3955,27.0703,420.5159,33.3138,420.5455,39.5573,420.3125,45.8008,420.5304,45.891,420.1501,46.4239,419.9731,47.0409,419.8055,47.6619,419.1048,48.062,419.0921,48.7471,419.1823,48.9647,418.4635,48.896,417.9845,49.4065,417.2586,49.3205,416.726,49.7014,416.1458,49.9674,416.1458,50.74,405.9028,49.9167,395.6597,50.0771,385.4167,50.3202,375.1736,50.401,364.9306,49.9634,354.6875,49.9674,354.7257,50.0596,354.0222,49.5397,353.5468,49.5705,352.9926,49.4111,352.3895,49.1337,351.7412,48.7471,351.9379,48.8285,351.3422,48.0936,351.0439,47.4819,350.8096,46.8967,350.746,46.3822,350.5208,45.8008,350.4526,45.8008,350.7574,39.5573,350.4602,33.3138,350.4017,27.0703,350.6001,20.8268,350.5208,14.5833,350.3069,14.4947,350.5984,13.9251,351.2172,13.4911,351.3928,12.8735,351.7328,12.3239,351.7412,11.6371,351.6985,11.5338,352.3729,11.4954,352.9982,11.3383,353.4462,10.7533,354.0855,10.63,354.6875,10.4167" style="stroke:#333333;stroke-width:1.0416666666666667;"/><text fill="#FFFFFF" font-family="Segoe Print" font-size="12.5" lengthAdjust="spacing" textLength="44.7917" x="363.0208" y="34.5194">Charlie</text><polygon fill="#474747" points="56.25,377.832,56.25,378.051,65.625,377.4004,75,378.0334,84.375,378.2484,93.75,377.0889,103.125,377.832,103.1147,377.8071,103.6576,377.9393,104.2526,378.1972,104.8837,378.5424,105.3902,378.5866,106.0713,379.0524,106.2489,379.126,106.1132,379.5579,106.496,380.2047,106.9421,380.8776,107.0201,381.398,107.2917,381.9987,107.3154,381.9987,107.2806,388.2422,107.3537,394.4857,107.3747,400.7292,107.495,406.9727,107.2917,413.2161,107.5069,413.3053,107.2655,413.8957,106.8852,414.4285,106.7081,415.0455,106.5406,415.6665,106.0713,416.1624,105.9754,415.9311,105.5722,416.6242,104.8534,416.5555,104.3744,417.0659,103.6485,416.9799,103.125,417.3828,103.125,417.3115,93.75,418.1553,84.375,417.332,75,417.4925,65.625,417.7355,56.25,417.3828,56.3053,417.5163,55.6602,417.1375,55.1097,416.9868,54.4062,416.467,53.9308,416.4977,53.3037,416.1624,53.4796,416.2353,53.2022,415.6322,53.0122,415.0654,52.4165,414.3305,52.1182,413.7187,52.0833,413.2161,51.8676,413.2161,52.0629,406.9727,52.0151,400.7292,52.3199,394.4857,52.0227,388.2422,52.0833,381.9987,51.9733,381.9531,52.4006,381.4398,52.3576,380.7316,52.649,380.162,53.2678,379.7279,53.3037,379.0524,53.3616,379.1922,53.9906,379.044,54.4395,378.461,55.1139,378.4226,55.7392,378.2655,56.25,377.832" style="stroke:#333333;stroke-width:1.0416666666666667;"/><text fill="#FFFFFF" font-family="Segoe Print" font-size="12.5" lengthAdjust="spacing" textLength="30.2083" x="64.5833" y="401.9348">Alice</text><polygon fill="#474747" points="210.9375,377.832,210.9375,377.905,219.2708,377.6882,227.6042,377.8991,235.9375,377.9708,244.2708,377.5843,252.6042,377.832,252.5938,377.8071,253.1368,377.9393,253.7317,378.1972,254.3629,378.5424,254.8693,378.5866,255.5504,379.0524,255.728,379.126,255.5923,379.5579,255.9752,380.2047,256.4212,380.8776,256.4992,381.398,256.7708,381.9987,256.7945,381.9987,256.7597,388.2422,256.8328,394.4857,256.8539,400.7292,256.9742,406.9727,256.7708,413.2161,256.9861,413.3053,256.7447,413.8957,256.3644,414.4285,256.1873,415.0455,256.0198,415.6665,255.5504,416.1624,255.4546,415.9311,255.0513,416.6242,254.3325,416.5555,253.8536,417.0659,253.1276,416.9799,252.6042,417.3828,252.6042,417.359,244.2708,417.6403,235.9375,417.3659,227.6042,417.4194,219.2708,417.5004,210.9375,417.3828,210.9928,417.5163,210.3477,417.1375,209.7972,416.9868,209.0937,416.467,208.6183,416.4977,207.9912,416.1624,208.1671,416.2353,207.8897,415.6322,207.6997,415.0654,207.104,414.3305,206.8057,413.7187,206.7708,413.2161,206.5551,413.2161,206.7504,406.9727,206.7026,400.7292,207.0074,394.4857,206.7102,388.2422,206.7708,381.9987,206.6608,381.9531,207.0881,381.4398,207.0451,380.7316,207.3365,380.162,207.9553,379.7279,207.9912,379.0524,208.0491,379.1922,208.6781,379.044,209.127,378.461,209.8014,378.4226,210.4267,378.2655,210.9375,377.832" style="stroke:#333333;stroke-width:1.0416666666666667;"/><text fill="#FFFFFF" font-family="Segoe Print" font-size="12.5" lengthAdjust="spacing" textLength="25" x="219.2708" y="401.9348">Bob</text><polygon fill="#474747" points="354.6875,377.832,354.6875,378.051,364.9306,377.4004,375.1736,378.0334,385.4167,378.2484,395.6597,377.0889,405.9028,377.7511,416.1458,377.832,416.0892,377.6952,416.6841,377.9531,417.3153,378.2983,417.8217,378.3425,418.5764,378.9859,419.0921,379.0524,418.8899,378.9687,419.2727,379.6154,419.7188,380.2883,419.7968,380.8088,420.0903,381.4185,420.3125,381.9987,420.3014,381.9987,420.3745,388.2422,420.3955,394.4857,420.5159,400.7292,420.5455,406.9727,420.3125,413.2161,420.5304,413.3064,420.1501,413.8392,419.9731,414.4563,419.8055,415.0772,419.1048,415.4773,419.0921,416.1624,419.1823,416.3801,418.4635,416.3114,417.9845,416.8218,417.2586,416.7359,416.726,417.1168,416.1458,417.3828,416.1458,418.1553,405.9028,417.332,395.6597,417.4925,385.4167,417.7355,375.1736,417.8164,364.9306,417.3787,354.6875,417.3828,354.7257,417.4749,354.0222,416.9551,353.5468,416.9859,352.9926,416.8264,352.3895,416.5491,351.7412,416.1624,351.9379,416.2439,351.3422,415.509,351.0439,414.8973,350.8096,414.3121,350.746,413.7976,350.5208,413.2161,350.4526,413.2161,350.7574,406.9727,350.4602,400.7292,350.4017,394.4857,350.6001,388.2422,350.5208,381.9987,350.3069,381.9101,350.5984,381.3405,351.2172,380.9064,351.3928,380.2888,351.7328,379.7393,351.7412,379.0524,351.6985,378.9492,352.3729,378.9107,352.9982,378.7537,353.4462,378.1686,354.0855,378.0454,354.6875,377.832" style="stroke:#333333;stroke-width:1.0416666666666667;"/><text fill="#FFFFFF" font-family="Segoe Print" font-size="12.5" lengthAdjust="spacing" textLength="44.7917" x="363.0208" y="401.9348">Charlie</text><polygon fill="#333333" points="219.2708,86.3932,219.2979,86.461,221.3007,87.093,223.4624,88.1222,225.5724,89.0221,227.5122,89.4966,229.6875,90.5599,229.6775,90.5348,227.5492,91.2557,225.4714,92.1029,223.4287,93.0379,221.265,93.6703,219.2708,94.7266,219.4068,94.8625,219.9494,93.7385,220.8889,93.0113,221.8769,92.3326,222.5831,91.3722,223.4375,90.5599,223.4543,90.5766,222.5963,89.7187,221.8147,88.9371,220.9962,88.1186,220.248,87.3704,219.2708,86.3932" style="stroke:#333333;stroke-width:1.0416666666666667;"/><path d="M79.6875,90.5599 L79.6875,90.8518 L90.1042,89.9845 L100.5208,90.8283 L110.9375,91.115 L121.3542,89.5691 L131.7708,90.452 L142.1875,89.9675 L152.6042,90.0273 L163.0208,90.4652 L173.4375,89.5997 L183.8542,91.3288 L194.2708,89.6845 L204.6875,90.2852 L215.1042,91.1598 L225.5208,90.5599 " fill="none" style="stroke:#333333;stroke-width:3.125;"/><text fill="#FFFFFF" font-family="Segoe Print" font-size="12.5" lengthAdjust="spacing" textLength="31.25" x="92.1875" y="80.3202">hello</text><polygon fill="#333333" points="372.9167,86.3932,372.9438,86.461,374.9466,87.093,377.1083,88.1222,379.2182,89.0221,381.158,89.4966,383.3333,90.5599,383.3233,90.5348,381.195,91.2557,379.1172,92.1029,377.0745,93.0379,374.9108,93.6703,372.9167,94.7266,373.0526,94.8625,373.5953,93.7385,374.5348,93.0113,375.5227,92.3326,376.2289,91.3722,377.0833,90.5599,377.1001,90.5766,376.2422,89.7187,375.4605,88.9371,374.642,88.1186,373.8938,87.3704,372.9167,86.3932" style="stroke:#333333;stroke-width:1.0416666666666667;"/><path d="M231.7708,90.5599 L231.7708,90.8518 L242.2991,89.9845 L252.8274,90.8283 L263.3557,91.115 L273.8839,89.5691 L284.4122,90.452 L294.9405,89.9675 L305.4688,90.0273 L315.997,90.4652 L326.5253,89.5997 L337.0536,91.3288 L347.5818,89.6845 L358.1101,90.2852 L368.6384,91.1598 L379.1667,90.5599 " fill="none" style="stroke:#333333;stroke-width:3.125;"/><text fill="#FFFFFF" font-family="Segoe Print" font-size="12.5" lengthAdjust="spacing" textLength="11.4583" x="244.2708" y="80.3202">hi</text><path d="M67.1875,103.0599 L67.1875,103.6437 L77.753,101.909 L88.3185,103.5968 L98.8839,104.1701 L109.4494,101.0782 L120.0149,102.844 L130.5804,101.8752 L141.1458,101.9946 L151.7113,102.8706 L162.2768,101.1394 L172.8423,104.5978 L183.4077,101.3091 L193.9732,102.5105 L204.5387,104.2597 L215.1042,103.0599 L215.0247,103.0599 L215.1674,106.3867 L215.0746,109.7135 L215.2695,113.0404 L215.3256,116.3672 L215.1042,119.694 L215.4876,120.0775 L213.4602,122.2167 L211.3822,124.3054 L209.0209,126.1107 L207.0744,128.3309 L204.6875,130.1107 L204.6875,132.0613 L194.5685,128.1074 L184.4494,131.9954 L174.3304,129.2871 L164.2113,131.5935 L154.0923,128.7356 L143.9732,129.9204 L133.8542,132.1707 L123.7351,129.9753 L113.6161,130.4032 L103.497,131.0513 L93.378,131.2669 L83.2589,130.0998 L73.1399,130.9085 L63.0208,130.1107 L62.4908,130.1107 L63.2842,125.5339 L63.5284,120.957 L63.4324,116.3802 L63.5884,111.8034 L63.0208,107.2266 L67.1875,103.0599 " fill="#555555" style="stroke:#555555;stroke-width:1.0416666666666667;"/><polygon fill="none" points="67.1875,103.0599,67.1875,103.2788,77.5228,102.6283,87.8581,103.2612,98.1934,103.4762,108.5286,102.3168,118.8639,102.9789,129.1992,102.6156,139.5345,102.6604,149.8698,102.9889,160.2051,102.3397,170.5404,103.6366,180.8757,102.4034,191.2109,102.8539,201.5462,103.5098,211.8815,102.9705,222.2168,103.131,232.5521,103.0266,242.8874,103.2459,253.2227,103.309,263.5579,103.67,273.8932,103.7589,284.2285,103.7675,294.5638,103.3251,304.8991,103.5428,315.2344,103.7914,325.5697,102.3087,335.9049,103.7667,346.2402,102.751,356.5755,103.6159,366.9108,102.5442,377.2461,102.9885,387.5814,103.8324,397.9167,103.0599,397.9102,103.0443,398.5199,103.3378,399.1402,103.6567,399.7397,103.9257,400.2732,104.035,400.8629,104.2803,400.9551,104.3184,400.9234,104.7935,401.4423,105.4966,401.771,106.1209,401.9819,106.6964,402.0833,107.2266,402.7219,107.2266,401.5801,117.0387,401.404,126.8508,401.436,136.6629,402.022,146.4751,401.8786,156.2872,402.7931,166.0993,402.0833,175.9115,402.0273,175.8882,401.7292,176.4551,401.6684,177.1203,401.1372,177.5906,400.9405,178.1995,400.8629,178.8577,400.9492,179.0659,400.3316,179.2416,399.782,179.5815,399.0524,179.4867,398.5483,179.9364,397.9167,180.0781,397.9167,180.6931,387.5814,179.586,377.2461,179.9783,366.9108,180.2094,356.5755,180.757,346.2402,180.0738,335.9049,180.56,325.5697,179.5013,315.2344,179.3726,304.8991,180.6027,294.5638,179.3313,284.2285,180.6083,273.8932,180.2934,263.5579,179.799,253.2227,179.7096,242.8874,180.556,232.5521,179.7663,222.2168,180.6946,211.8815,179.5023,201.5462,180.7213,191.2109,180.5826,180.8757,180.3333,170.5404,180.1273,160.2051,180.835,149.8698,180.7173,139.5345,180.2544,129.1992,180.3575,118.8639,179.9424,108.5286,180.8244,98.1934,180.2394,87.8581,180.2579,77.5228,179.4444,67.1875,180.0781,67.1337,179.9481,66.6688,180.0043,66.0661,179.7278,65.414,179.3321,64.7877,178.9985,64.2412,178.8577,64.171,178.8286,63.777,178.1773,63.8861,177.7343,63.7462,177.1882,63.4338,176.5707,63.0208,175.9115,63.7447,175.9115,62.8784,166.0993,63.1117,156.2872,62.6171,146.4751,63.3167,136.6629,63.2779,126.8508,63.5962,117.0387,63.0208,107.2266,62.9472,107.196,63.2218,106.6194,63.6512,106.107,63.9351,105.5342,63.8327,104.8014,64.2412,104.2803,64.2155,104.2181,64.8503,104.0841,65.3386,103.5962,66.0559,103.6614,66.6325,103.3867,67.1875,103.0599" style="stroke:#333333;stroke-width:1.0416666666666667;"/><text fill="#17A2B8" font-family="Segoe Print" font-size="12.5" font-weight="bold" lengthAdjust="spacing" textLength="94.7917" x="83.8542" y="120.9127">A teoz group</text><polygon fill="#333333" points="219.2708,167.5781,219.2979,167.6459,221.3007,168.2779,223.4624,169.3071,225.5724,170.207,227.5122,170.6815,229.6875,171.7448,229.6775,171.7197,227.5492,172.4406,225.4714,173.2878,223.4287,174.2228,221.265,174.8552,219.2708,175.9115,219.4068,176.0474,219.9494,174.9234,220.8889,174.1962,221.8769,173.5175,222.5831,172.5571,223.4375,171.7448,223.4543,171.7615,222.5963,170.9036,221.8147,170.122,220.9962,169.3035,220.248,168.5553,219.2708,167.5781" style="stroke:#333333;stroke-width:1.0416666666666667;"/><path d="M79.6875,171.7448 L79.6875,172.0367 L90.1042,171.1693 L100.5208,172.0132 L110.9375,172.2999 L121.3542,170.754 L131.7708,171.6369 L142.1875,171.1524 L152.6042,171.2122 L163.0208,171.6501 L173.4375,170.7846 L183.8542,172.5137 L194.2708,170.8694 L204.6875,171.4701 L215.1042,172.3447 L225.5208,171.7448 " fill="none" style="stroke:#333333;stroke-width:3.125;"/><text fill="#FFFFFF" font-family="Segoe Print" font-size="12.5" lengthAdjust="spacing" textLength="31.25" x="92.1875" y="161.5051">hello</text><polygon fill="#333333" points="372.9167,167.5781,372.9438,167.6459,374.9466,168.2779,377.1083,169.3071,379.2182,170.207,381.158,170.6815,383.3333,171.7448,383.3233,171.7197,381.195,172.4406,379.1172,173.2878,377.0745,174.2228,374.9108,174.8552,372.9167,175.9115,373.0526,176.0474,373.5953,174.9234,374.5348,174.1962,375.5227,173.5175,376.2289,172.5571,377.0833,171.7448,377.1001,171.7615,376.2422,170.9036,375.4605,170.122,374.642,169.3035,373.8938,168.5553,372.9167,167.5781" style="stroke:#333333;stroke-width:1.0416666666666667;"/><path d="M231.7708,171.7448 L231.7708,172.0367 L242.2991,171.1693 L252.8274,172.0132 L263.3557,172.2999 L273.8839,170.754 L284.4122,171.6369 L294.9405,171.1524 L305.4688,171.2122 L315.997,171.6501 L326.5253,170.7846 L337.0536,172.5137 L347.5818,170.8694 L358.1101,171.4701 L368.6384,172.3447 L379.1667,171.7448 " fill="none" style="stroke:#333333;stroke-width:3.125;"/><text fill="#FFFFFF" font-family="Segoe Print" font-size="12.5" lengthAdjust="spacing" textLength="16.6667" x="244.2708" y="161.5051">ha</text><polygon fill="#333333" points="219.2708,236.263,219.2979,236.3308,221.3007,236.9628,223.4624,237.992,225.5724,238.8919,227.5122,239.3664,229.6875,240.4297,229.6775,240.4046,227.5492,241.1255,225.4714,241.9727,223.4287,242.9077,221.265,243.5401,219.2708,244.5964,219.4068,244.7323,219.9494,243.6083,220.8889,242.8811,221.8769,242.2024,222.5831,241.242,223.4375,240.4297,223.4543,240.4464,222.5963,239.5885,221.8147,238.8069,220.9962,237.9884,220.248,237.2402,219.2708,236.263" style="stroke:#333333;stroke-width:1.0416666666666667;"/><path d="M79.6875,240.4297 L79.6875,240.7216 L90.1042,239.8542 L100.5208,240.6981 L110.9375,240.9848 L121.3542,239.4389 L131.7708,240.3218 L142.1875,239.8373 L152.6042,239.8971 L163.0208,240.335 L173.4375,239.4695 L183.8542,241.1986 L194.2708,239.5543 L204.6875,240.155 L215.1042,241.0296 L225.5208,240.4297 " fill="none" style="stroke:#333333;stroke-width:3.125;"/><text fill="#FFFFFF" font-family="Segoe Print" font-size="12.5" lengthAdjust="spacing" textLength="116.6667" x="92.1875" y="215.6392">start doing things</text><text fill="#FFFFFF" font-family="Segoe Print" font-size="12.5" lengthAdjust="spacing" textLength="101.0417" x="92.1875" y="230.19">during duration</text><polygon fill="#333333" points="372.9167,275.8138,372.9438,275.8816,374.9466,276.5136,377.1083,277.5428,379.2182,278.4427,381.158,278.9171,383.3333,279.9805,383.3233,279.9554,381.195,280.6763,379.1172,281.5235,377.0745,282.4585,374.9108,283.0909,372.9167,284.1471,373.0526,284.2831,373.5953,283.1591,374.5348,282.4319,375.5227,281.7532,376.2289,280.7927,377.0833,279.9805,377.1001,279.9972,376.2422,279.1393,375.4605,278.3576,374.642,277.5392,373.8938,276.7909,372.9167,275.8138" style="stroke:#333333;stroke-width:1.0416666666666667;"/><path d="M231.7708,279.9805 L231.7708,280.2724 L242.2991,279.405 L252.8274,280.2489 L263.3557,280.5356 L273.8839,278.9896 L284.4122,279.8725 L294.9405,279.3881 L305.4688,279.4478 L315.997,279.8858 L326.5253,279.0202 L337.0536,280.7494 L347.5818,279.1051 L358.1101,279.7058 L368.6384,280.5804 L379.1667,279.9805 " fill="none" style="stroke:#333333;stroke-width:3.125;"/><text fill="#FFFFFF" font-family="Segoe Print" font-size="12.5" lengthAdjust="spacing" textLength="68.75" x="244.2708" y="269.7408">something</text><polygon fill="#333333" points="243.2292,315.3646,243.2563,315.4323,241.0924,316.0643,239.0874,317.0936,237.0307,317.9934,234.8038,318.4679,232.8125,319.5313,232.8025,319.5062,234.8408,320.2271,236.9297,321.0743,239.0537,322.0093,241.0567,322.6417,243.2292,323.6979,243.3651,323.8338,242.2411,322.7098,241.5139,321.9827,240.8352,321.304,239.8748,320.3435,239.0625,319.5313,239.0793,319.548,239.888,318.6901,240.773,317.9084,241.6212,317.09,242.5396,316.3417,243.2292,315.3646" style="stroke:#333333;stroke-width:1.0416666666666667;"/><path d="M236.9792,319.5313 L236.9792,319.8232 L247.5074,318.9558 L258.0357,319.7997 L268.564,320.0864 L279.0923,318.5404 L289.6205,319.4233 L300.1488,318.9389 L310.6771,318.9986 L321.2054,319.4366 L331.7336,318.571 L342.2619,320.3002 L352.7902,318.6559 L363.3185,319.2566 L373.8467,320.1312 L384.375,319.5313 " fill="none" style="stroke:#333333;stroke-width:3.125;"/><text fill="#FFFFFF" font-family="Segoe Print" font-size="12.5" lengthAdjust="spacing" textLength="100" x="254.6875" y="309.2916">something else</text><polygon fill="#333333" points="91.1458,354.9154,91.1729,354.9831,89.0091,355.6151,87.0041,356.6443,84.9474,357.5442,82.7205,358.0187,80.7292,359.082,80.7191,359.057,82.7575,359.7779,84.8464,360.6251,86.9704,361.5601,88.9733,362.1925,91.1458,363.2487,91.2818,363.3846,90.1578,362.2606,89.4306,361.5335,88.7519,360.8548,87.7914,359.8943,86.9792,359.082,86.9959,359.0988,87.8047,358.2409,88.6897,357.4592,89.5379,356.6407,90.4563,355.8925,91.1458,354.9154" style="stroke:#333333;stroke-width:1.0416666666666667;"/><path d="M84.8958,359.082 L84.8958,359.374 L95.3125,358.5066 L105.7292,359.3505 L116.1458,359.6371 L126.5625,358.0912 L136.9792,358.9741 L147.3958,358.4897 L157.8125,358.5494 L168.2292,358.9874 L178.6458,358.1218 L189.0625,359.851 L199.4792,358.2066 L209.8958,358.8074 L220.3125,359.682 L230.7292,359.082 " fill="none" style="stroke:#333333;stroke-width:3.125;"/><text fill="#FFFFFF" font-family="Segoe Print" font-size="12.5" lengthAdjust="spacing" textLength="34.375" x="102.6042" y="348.8424">finish</text><path d="M155.7292,242.513 L156.0211,242.513 L155.1537,252.9208 L155.9976,263.3286 L156.2843,273.7364 L154.7383,284.1442 L155.6212,294.552 L155.1368,304.9598 L155.1965,315.3675 L155.6345,325.7753 L154.7689,336.1831 L156.4981,346.5909 L155.7292,356.9987 " fill="#333333" style="stroke:#333333;stroke-width:3.125;"/><polygon fill="#333333" points="151.5625,252.9297,151.6303,252.9568,152.2623,250.7929,153.2915,248.7879,154.1914,246.7312,154.6658,244.5044,155.7292,242.513,155.7041,242.503,156.425,244.5414,157.2722,246.6302,158.2072,248.7542,158.8396,250.7572,159.8958,252.9297,160.0318,253.0656,158.9078,251.9416,158.1806,251.2145,157.5019,250.5357,156.5414,249.5753,155.7292,248.763,155.7459,248.7798,154.888,249.5885,154.1063,250.4735,153.2879,251.3217,152.5396,252.2402,151.5625,252.9297" style="stroke:#333333;stroke-width:1.0416666666666667;"/><polygon fill="#333333" points="151.5625,346.582,151.6303,346.6091,152.2623,348.6119,153.2915,350.7736,154.1914,352.8836,154.6658,354.8234,155.7292,356.9987,155.7041,356.9887,156.425,354.8604,157.2722,352.7826,158.2072,350.7399,158.8396,348.5762,159.8958,346.582,160.0318,346.718,158.9078,347.2606,158.1806,348.2001,157.5019,349.1881,156.5414,349.8943,155.7292,350.7487,155.7459,350.7655,154.888,349.9075,154.1063,349.1259,153.2879,348.3074,152.5396,347.5592,151.5625,346.582" style="stroke:#333333;stroke-width:1.0416666666666667;"/><text fill="#FFFFFF" font-family="Segoe Print" font-size="12.5" lengthAdjust="spacing" textLength="67.7083" x="165.1042" y="304.0833">some time</text></g></svg>