<?xml version="1.0" encoding="UTF-8" standalone="no"?><svg xmlns="http://www.w3.org/2000/svg" xmlns:xlink="http://www.w3.org/1999/xlink" contentScriptType="application/ecmascript" contentStyleType="text/css" height="656.25px" preserveAspectRatio="none" style="width:889px;height:656px;background:#00000000;" version="1.1" viewBox="0 0 889 656" width="889.5833px" zoomAndPan="magnify"><defs><linearGradient id="g4z58ikt73xqa0" x1="50%" x2="50%" y1="0%" y2="100%"><stop offset="0%" stop-color="#DBDBDB"/><stop offset="100%" stop-color="#D2D2D2"/></linearGradient><linearGradient id="g4z58ikt73xqa1" x1="50%" x2="50%" y1="0%" y2="100%"><stop offset="0%" stop-color="#F3F3F3"/><stop offset="100%" stop-color="#E2E2E2"/></linearGradient></defs><g><rect fill="url(#g4z58ikt73xqa0)" height="55.5013" rx="4.1667" ry="4.1667" style="stroke:#D2D2D2;stroke-width:1.0416666666666667;" width="205.2083" x="340.625" y="14.5833"/><text fill="#FFFFFF" font-family="Verdana" font-size="20.8333" lengthAdjust="spacing" textLength="167.7083" x="359.375" y="49.5463">lightgray theme</text><line style="stroke:#A8A8A8;stroke-width:2.0833333333333335;stroke-dasharray:5.0,5.0;" x1="89.5833" x2="89.5833" y1="181.5104" y2="552.1159"/><line style="stroke:#A8A8A8;stroke-width:2.0833333333333335;stroke-dasharray:5.0,5.0;" x1="214.5833" x2="214.5833" y1="181.5104" y2="552.1159"/><line style="stroke:#A8A8A8;stroke-width:2.0833333333333335;stroke-dasharray:5.0,5.0;" x1="300" x2="300" y1="181.5104" y2="552.1159"/><line style="stroke:#A8A8A8;stroke-width:2.0833333333333335;stroke-dasharray:5.0,5.0;" x1="391.6667" x2="391.6667" y1="181.5104" y2="552.1159"/><line style="stroke:#A8A8A8;stroke-width:2.0833333333333335;stroke-dasharray:5.0,5.0;" x1="470.8333" x2="470.8333" y1="181.5104" y2="552.1159"/><line style="stroke:#A8A8A8;stroke-width:2.0833333333333335;stroke-dasharray:5.0,5.0;" x1="558.3333" x2="558.3333" y1="181.5104" y2="552.1159"/><line style="stroke:#A8A8A8;stroke-width:2.0833333333333335;stroke-dasharray:5.0,5.0;" x1="701.0417" x2="701.0417" y1="181.5104" y2="552.1159"/><line style="stroke:#A8A8A8;stroke-width:2.0833333333333335;stroke-dasharray:5.0,5.0;" x1="839.5833" x2="839.5833" y1="181.5104" y2="552.1159"/><rect fill="url(#g4z58ikt73xqa1)" height="49.9674" rx="7.8125" ry="7.8125" style="stroke:#F3F3F3;stroke-width:1.5625;" width="106.25" x="36.4583" y="130.5013"/><text fill="#336699" font-family="Verdana" font-size="12.5" lengthAdjust="spacing" textLength="70.8333" x="54.1667" y="159.8124">Participant</text><rect fill="url(#g4z58ikt73xqa1)" height="49.9674" rx="7.8125" ry="7.8125" style="stroke:#F3F3F3;stroke-width:1.5625;" width="106.25" x="36.4583" y="551.0742"/><text fill="#336699" font-family="Verdana" font-size="12.5" lengthAdjust="spacing" textLength="70.8333" x="54.1667" y="580.3853">Participant</text><text fill="#336699" font-family="Verdana" font-size="12.5" lengthAdjust="spacing" textLength="34.375" x="194.7917" y="168.1458">Actor</text><ellipse cx="215.1042" cy="90.918" fill="url(#g4z58ikt73xqa1)" rx="8.3333" ry="8.3333" style="stroke:#F3F3F3;stroke-width:2.0833333333333335;"/><path d="M215.1042,99.2513 L215.1042,127.3763 M201.5625,107.5846 L228.6458,107.5846 M215.1042,127.3763 L201.5625,143.0013 M215.1042,127.3763 L228.6458,143.0013 " fill="none" style="stroke:#F3F3F3;stroke-width:2.0833333333333335;"/><text fill="#336699" font-family="Verdana" font-size="12.5" lengthAdjust="spacing" textLength="34.375" x="194.7917" y="573.0937">Actor</text><ellipse cx="215.1042" cy="596.875" fill="url(#g4z58ikt73xqa1)" rx="8.3333" ry="8.3333" style="stroke:#F3F3F3;stroke-width:2.0833333333333335;"/><path d="M215.1042,605.2083 L215.1042,633.3333 M201.5625,613.5417 L228.6458,613.5417 M215.1042,633.3333 L201.5625,648.9583 M215.1042,633.3333 L228.6458,648.9583 " fill="none" style="stroke:#F3F3F3;stroke-width:2.0833333333333335;"/><text fill="#336699" font-family="Verdana" font-size="12.5" lengthAdjust="spacing" textLength="61.4583" x="266.6667" y="168.1458">Boundary</text><path d="M279.1667,116.9596 L279.1667,141.9596 M279.1667,129.4596 L296.875,129.4596 " fill="none" style="stroke:#F3F3F3;stroke-width:2.0833333333333335;"/><ellipse cx="309.375" cy="129.4596" fill="url(#g4z58ikt73xqa1)" rx="12.5" ry="12.5" style="stroke:#F3F3F3;stroke-width:2.0833333333333335;"/><text fill="#336699" font-family="Verdana" font-size="12.5" lengthAdjust="spacing" textLength="61.4583" x="266.6667" y="573.0937">Boundary</text><path d="M279.1667,590.625 L279.1667,615.625 M279.1667,603.125 L296.875,603.125 " fill="none" style="stroke:#F3F3F3;stroke-width:2.0833333333333335;"/><ellipse cx="309.375" cy="603.125" fill="url(#g4z58ikt73xqa1)" rx="12.5" ry="12.5" style="stroke:#F3F3F3;stroke-width:2.0833333333333335;"/><text fill="#336699" font-family="Verdana" font-size="12.5" lengthAdjust="spacing" textLength="46.875" x="365.625" y="168.1458">Control</text><ellipse cx="392.1875" cy="129.4596" fill="url(#g4z58ikt73xqa1)" rx="12.5" ry="12.5" style="stroke:#F3F3F3;stroke-width:2.0833333333333335;"/><polygon fill="#F3F3F3" points="388.0208,116.9596,394.2708,111.7513,392.1875,116.9596,394.2708,122.168,388.0208,116.9596" style="stroke:#F3F3F3;stroke-width:1.0416666666666667;"/><text fill="#336699" font-family="Verdana" font-size="12.5" lengthAdjust="spacing" textLength="46.875" x="365.625" y="573.0937">Control</text><ellipse cx="392.1875" cy="603.125" fill="url(#g4z58ikt73xqa1)" rx="12.5" ry="12.5" style="stroke:#F3F3F3;stroke-width:2.0833333333333335;"/><polygon fill="#F3F3F3" points="388.0208,590.625,394.2708,585.4167,392.1875,590.625,394.2708,595.8333,388.0208,590.625" style="stroke:#F3F3F3;stroke-width:1.0416666666666667;"/><text fill="#336699" font-family="Verdana" font-size="12.5" lengthAdjust="spacing" textLength="36.4583" x="450" y="168.1458">Entity</text><ellipse cx="471.3542" cy="129.4596" fill="url(#g4z58ikt73xqa1)" rx="12.5" ry="12.5" style="stroke:#F3F3F3;stroke-width:2.0833333333333335;"/><line style="stroke:#F3F3F3;stroke-width:2.0833333333333335;" x1="458.8542" x2="483.8542" y1="144.043" y2="144.043"/><text fill="#336699" font-family="Verdana" font-size="12.5" lengthAdjust="spacing" textLength="36.4583" x="450" y="573.0937">Entity</text><ellipse cx="471.3542" cy="603.125" fill="url(#g4z58ikt73xqa1)" rx="12.5" ry="12.5" style="stroke:#F3F3F3;stroke-width:2.0833333333333335;"/><line style="stroke:#F3F3F3;stroke-width:2.0833333333333335;" x1="458.8542" x2="483.8542" y1="617.7083" y2="617.7083"/><text fill="#336699" font-family="Verdana" font-size="12.5" lengthAdjust="spacing" textLength="63.5417" x="523.9583" y="168.1458">Database</text><path d="M540.1042,108.6263 C540.1042,98.2096 558.8542,98.2096 558.8542,98.2096 C558.8542,98.2096 577.6042,98.2096 577.6042,108.6263 L577.6042,135.7096 C577.6042,146.1263 558.8542,146.1263 558.8542,146.1263 C558.8542,146.1263 540.1042,146.1263 540.1042,135.7096 L540.1042,108.6263 " style="stroke:#F3F3F3;stroke-width:1.5625;fill:none;"/><path d="M540.1042,108.6263 C540.1042,119.043 558.8542,119.043 558.8542,119.043 C558.8542,119.043 577.6042,119.043 577.6042,108.6263 " fill="none" style="stroke:#F3F3F3;stroke-width:1.5625;"/><text fill="#336699" font-family="Verdana" font-size="12.5" lengthAdjust="spacing" textLength="63.5417" x="523.9583" y="573.0937">Database</text><path d="M540.1042,596.875 C540.1042,586.4583 558.8542,586.4583 558.8542,586.4583 C558.8542,586.4583 577.6042,586.4583 577.6042,596.875 L577.6042,623.9583 C577.6042,634.375 558.8542,634.375 558.8542,634.375 C558.8542,634.375 540.1042,634.375 540.1042,623.9583 L540.1042,596.875 " style="stroke:#F3F3F3;stroke-width:1.5625;fill:none;"/><path d="M540.1042,596.875 C540.1042,607.2917 558.8542,607.2917 558.8542,607.2917 C558.8542,607.2917 577.6042,607.2917 577.6042,596.875 " fill="none" style="stroke:#F3F3F3;stroke-width:1.5625;"/><rect fill="url(#g4z58ikt73xqa1)" height="49.9674" rx="7.8125" ry="7.8125" style="stroke:#F3F3F3;stroke-width:1.5625;" width="106.25" x="650" y="126.3346"/><rect fill="url(#g4z58ikt73xqa1)" height="49.9674" rx="7.8125" ry="7.8125" style="stroke:#F3F3F3;stroke-width:1.5625;" width="106.25" x="645.8333" y="130.5013"/><text fill="#336699" font-family="Verdana" font-size="12.5" lengthAdjust="spacing" textLength="70.8333" x="663.5417" y="159.8124">Collections</text><rect fill="url(#g4z58ikt73xqa1)" height="49.9674" rx="7.8125" ry="7.8125" style="stroke:#F3F3F3;stroke-width:1.5625;" width="106.25" x="650" y="551.0742"/><rect fill="url(#g4z58ikt73xqa1)" height="49.9674" rx="7.8125" ry="7.8125" style="stroke:#F3F3F3;stroke-width:1.5625;" width="106.25" x="645.8333" y="555.2409"/><text fill="#336699" font-family="Verdana" font-size="12.5" lengthAdjust="spacing" textLength="70.8333" x="663.5417" y="584.552">Collections</text><path d="M803.125,135.7096 L877.0833,135.7096 C882.2917,135.7096 882.2917,158.61 882.2917,158.61 C882.2917,158.61 882.2917,181.5104 877.0833,181.5104 L803.125,181.5104 C797.9167,181.5104 797.9167,158.61 797.9167,158.61 C797.9167,158.61 797.9167,135.7096 803.125,135.7096 " fill="url(#g4z58ikt73xqa1)" style="stroke:#F3F3F3;stroke-width:2.0833333333333335;"/><path d="M877.0833,135.7096 C871.875,135.7096 871.875,158.61 871.875,158.61 C871.875,181.5104 877.0833,181.5104 877.0833,181.5104 " fill="none" style="stroke:#F3F3F3;stroke-width:2.0833333333333335;"/><text fill="#336699" font-family="Verdana" font-size="12.5" lengthAdjust="spacing" textLength="42.7083" x="813.5417" y="162.9374">Queue</text><path d="M803.125,551.0742 L877.0833,551.0742 C882.2917,551.0742 882.2917,573.9746 882.2917,573.9746 C882.2917,573.9746 882.2917,596.875 877.0833,596.875 L803.125,596.875 C797.9167,596.875 797.9167,573.9746 797.9167,573.9746 C797.9167,573.9746 797.9167,551.0742 803.125,551.0742 " fill="url(#g4z58ikt73xqa1)" style="stroke:#F3F3F3;stroke-width:2.0833333333333335;"/><path d="M877.0833,551.0742 C871.875,551.0742 871.875,573.9746 871.875,573.9746 C871.875,596.875 877.0833,596.875 877.0833,596.875 " fill="none" style="stroke:#F3F3F3;stroke-width:2.0833333333333335;"/><text fill="#336699" font-family="Verdana" font-size="12.5" lengthAdjust="spacing" textLength="42.7083" x="813.5417" y="578.302">Queue</text><polygon fill="#E2E2E2" points="202.6042,229.3945,213.0208,233.5612,202.6042,237.7279,206.7708,233.5612" style="stroke:#E2E2E2;stroke-width:1.0416666666666667;"/><line style="stroke:#E2E2E2;stroke-width:3.125;" x1="89.5833" x2="208.8542" y1="233.5612" y2="233.5612"/><text fill="#303030" font-family="Verdana" font-size="12.5" lengthAdjust="spacing" textLength="54.1667" x="107.2917" y="218.1132">To actor</text><polygon fill="#E2E2E2" points="288.0208,279.362,298.4375,283.5286,288.0208,287.6953,292.1875,283.5286" style="stroke:#E2E2E2;stroke-width:1.0416666666666667;"/><line style="stroke:#E2E2E2;stroke-width:3.125;" x1="89.5833" x2="294.2708" y1="283.5286" y2="283.5286"/><text fill="#303030" font-family="Verdana" font-size="12.5" lengthAdjust="spacing" textLength="81.25" x="107.2917" y="268.0806">To boundary</text><polygon fill="#E2E2E2" points="379.6875,329.3294,390.1042,333.4961,379.6875,337.6628,383.8542,333.4961" style="stroke:#E2E2E2;stroke-width:1.0416666666666667;"/><line style="stroke:#E2E2E2;stroke-width:3.125;" x1="89.5833" x2="385.9375" y1="333.4961" y2="333.4961"/><text fill="#303030" font-family="Verdana" font-size="12.5" lengthAdjust="spacing" textLength="65.625" x="107.2917" y="318.0481">To control</text><polygon fill="#E2E2E2" points="458.8542,379.2969,469.2708,383.4635,458.8542,387.6302,463.0208,383.4635" style="stroke:#E2E2E2;stroke-width:1.0416666666666667;"/><line style="stroke:#E2E2E2;stroke-width:3.125;" x1="89.5833" x2="465.1042" y1="383.4635" y2="383.4635"/><text fill="#303030" font-family="Verdana" font-size="12.5" lengthAdjust="spacing" textLength="56.25" x="107.2917" y="368.0155">To entity</text><polygon fill="#E2E2E2" points="546.3542,429.2643,556.7708,433.431,546.3542,437.5977,550.5208,433.431" style="stroke:#E2E2E2;stroke-width:1.0416666666666667;"/><line style="stroke:#E2E2E2;stroke-width:3.125;" x1="89.5833" x2="552.6042" y1="433.431" y2="433.431"/><text fill="#303030" font-family="Verdana" font-size="12.5" lengthAdjust="spacing" textLength="82.2917" x="107.2917" y="417.983">To database</text><polygon fill="#E2E2E2" points="688.5417,479.2318,698.9583,483.3984,688.5417,487.5651,692.7083,483.3984" style="stroke:#E2E2E2;stroke-width:1.0416666666666667;"/><line style="stroke:#E2E2E2;stroke-width:3.125;" x1="89.5833" x2="694.7917" y1="483.3984" y2="483.3984"/><text fill="#303030" font-family="Verdana" font-size="12.5" lengthAdjust="spacing" textLength="89.5833" x="107.2917" y="467.9504">To collections</text><polygon fill="#E2E2E2" points="827.6042,529.1992,838.0208,533.3659,827.6042,537.5326,831.7708,533.3659" style="stroke:#E2E2E2;stroke-width:1.0416666666666667;"/><line style="stroke:#E2E2E2;stroke-width:3.125;" x1="89.5833" x2="833.8542" y1="533.3659" y2="533.3659"/><text fill="#303030" font-family="Verdana" font-size="12.5" lengthAdjust="spacing" textLength="61.4583" x="107.2917" y="517.9179">To queue</text></g></svg>