<?xml version="1.0" encoding="us-ascii" standalone="no"?><svg xmlns="http://www.w3.org/2000/svg" xmlns:xlink="http://www.w3.org/1999/xlink" contentStyleType="text/css" height="436.4583px" preserveAspectRatio="none" style="width:355px;height:436px;background:#FDF6E3;" version="1.1" viewBox="0 0 355 436" width="355.2083px" zoomAndPan="magnify"><defs/><g><rect fill="#FDF6E3" height="436.4583" style="stroke:none;stroke-width:1.0416666666666667;" width="355.2083" x="0" y="0"/><rect fill="#FDF6E3" height="296.3125" rx="7.8125" ry="7.8125" style="stroke:#000000;stroke-width:1.5625;" width="338.0208" x="10.4167" y="85.8643"/><path d="M10.4167,134.2031 L348.4375,134.2031 L348.4375,328.4729 A7.8125,7.8125 0 0 1 340.625,336.2854 L18.2292,336.2854 A7.8125,7.8125 0 0 1 10.4167,328.4729 L10.4167,134.2031 " fill="#FDF6E3" style="stroke:none;stroke-width:1.0416666666666667;"/><rect fill="#FDF6E3" height="141.6077" rx="7.8125" ry="7.8125" style="stroke:#000000;stroke-width:1.5625;" width="317.1875" x="20.8333" y="187.3861"/><rect fill="#FDF6E3" height="48.3388" rx="7.8125" ry="7.8125" style="stroke:#000000;stroke-width:1.5625;" width="254.6875" x="31.25" y="243.0166"/><path d="M10.4167,336.2854 L348.4375,336.2854 L348.4375,374.3642 A7.8125,7.8125 0 0 1 340.625,382.1767 L18.2292,382.1767 A7.8125,7.8125 0 0 1 10.4167,374.3642 L10.4167,336.2854 " fill="#FDF6E3" style="stroke:none;stroke-width:1.0416666666666667;"/><line style="stroke:#B58900;stroke-width:0.5208333333333334;stroke-dasharray:5.0,5.0;" x1="66.6667" x2="66.6667" y1="37.8092" y2="399.8851"/><line style="stroke:#B58900;stroke-width:0.5208333333333334;stroke-dasharray:5.0,5.0;" x1="253.6458" x2="253.6458" y1="37.8092" y2="399.8851"/><line style="stroke:#B58900;stroke-width:0.5208333333333334;stroke-dasharray:5.0,5.0;" x1="306.7708" x2="306.7708" y1="37.8092" y2="399.8851"/><rect fill="#C2F0FF" height="31.5592" rx="7.8125" ry="7.8125" style="stroke:#268BD2;stroke-width:2.0833333333333335;" width="50" x="41.6667" y="5.2083"/><text fill="#000000" font-family="Dejavu Serif" font-size="14.5833" lengthAdjust="spacing" textLength="35.4167" x="48.9583" y="26.0366">Alice</text><rect fill="#C2F0FF" height="31.5592" rx="7.8125" ry="7.8125" style="stroke:#268BD2;stroke-width:2.0833333333333335;" width="50" x="41.6667" y="398.8434"/><text fill="#000000" font-family="Dejavu Serif" font-size="14.5833" lengthAdjust="spacing" textLength="35.4167" x="48.9583" y="419.6716">Alice</text><rect fill="#C2F0FF" height="31.5592" rx="7.8125" ry="7.8125" style="stroke:#268BD2;stroke-width:2.0833333333333335;" width="42.7083" x="232.8125" y="5.2083"/><text fill="#000000" font-family="Dejavu Serif" font-size="14.5833" lengthAdjust="spacing" textLength="28.125" x="240.1042" y="26.0366">Bob</text><rect fill="#C2F0FF" height="31.5592" rx="7.8125" ry="7.8125" style="stroke:#268BD2;stroke-width:2.0833333333333335;" width="42.7083" x="232.8125" y="398.8434"/><text fill="#000000" font-family="Dejavu Serif" font-size="14.5833" lengthAdjust="spacing" textLength="28.125" x="240.1042" y="419.6716">Bob</text><rect fill="#C2F0FF" height="31.5592" rx="7.8125" ry="7.8125" style="stroke:#268BD2;stroke-width:2.0833333333333335;" width="41.6667" x="285.9375" y="5.2083"/><text fill="#000000" font-family="Dejavu Serif" font-size="14.5833" lengthAdjust="spacing" textLength="27.0833" x="293.2292" y="26.0366">Log</text><rect fill="#C2F0FF" height="31.5592" rx="7.8125" ry="7.8125" style="stroke:#268BD2;stroke-width:2.0833333333333335;" width="41.6667" x="285.9375" y="398.8434"/><text fill="#000000" font-family="Dejavu Serif" font-size="14.5833" lengthAdjust="spacing" textLength="27.0833" x="293.2292" y="419.6716">Log</text><polygon fill="#657B83" points="241.6667,66.0726,252.0833,70.2393,241.6667,74.4059,245.8333,70.2393" style="stroke:#657B83;stroke-width:1.0416666666666667;"/><line style="stroke:#657B83;stroke-width:2.0833333333333335;" x1="66.6667" x2="247.9167" y1="70.2393" y2="70.2393"/><text fill="#000000" font-family="Dejavu Serif" font-size="13.5417" lengthAdjust="spacing" textLength="155.2083" x="73.9583" y="64.9623">Authentication Request</text><path d="M18.2292,85.8643 L79.1667,85.8643 L79.1667,93.4397 L68.75,103.8564 L10.4167,103.8564 L10.4167,93.6768 A7.8125,7.8125 0 0 1 18.2292,85.8643 " fill="#FDF6E3" style="stroke:#000000;stroke-width:1.5625;"/><rect fill="none" height="296.3125" rx="7.8125" ry="7.8125" style="stroke:#000000;stroke-width:1.5625;" width="338.0208" x="10.4167" y="85.8643"/><text fill="#000000" font-family="Dejavu Serif" font-size="13.5417" font-weight="bold" lengthAdjust="spacing" textLength="21.875" x="26.0417" y="99.6211">alt</text><text fill="#000000" font-family="Dejavu Serif" font-size="11.4583" font-weight="bold" lengthAdjust="spacing" textLength="110.4167" x="94.7917" y="98.7066">[successful case]</text><polygon fill="#657B83" points="78.125,121.7031,67.7083,125.8698,78.125,130.0364,73.9583,125.8698" style="stroke:#657B83;stroke-width:1.0416666666666667;"/><line style="stroke:#657B83;stroke-width:2.0833333333333335;" x1="71.875" x2="253.125" y1="125.8698" y2="125.8698"/><text fill="#000000" font-family="Dejavu Serif" font-size="13.5417" lengthAdjust="spacing" textLength="162.5" x="84.375" y="120.5928">Authentication Accepted</text><line style="stroke:#000000;stroke-width:1.0416666666666667;stroke-dasharray:2.0,2.0;" x1="10.4167" x2="348.4375" y1="135.2448" y2="135.2448"/><text fill="#000000" font-family="Dejavu Serif" font-size="11.4583" font-weight="bold" lengthAdjust="spacing" textLength="147.9167" x="15.625" y="146.0037">[some kind of failure]</text><polygon fill="#657B83" points="78.125,167.5944,67.7083,171.7611,78.125,175.9277,73.9583,171.7611" style="stroke:#657B83;stroke-width:1.0416666666666667;"/><line style="stroke:#657B83;stroke-width:2.0833333333333335;" x1="71.875" x2="253.125" y1="171.7611" y2="171.7611"/><text fill="#000000" font-family="Dejavu Serif" font-size="13.5417" lengthAdjust="spacing" textLength="150" x="96.875" y="166.4841">Authentication Failure</text><path d="M28.6458,187.3861 L167.7083,187.3861 L167.7083,194.9615 L157.2917,205.3782 L20.8333,205.3782 L20.8333,195.1986 A7.8125,7.8125 0 0 1 28.6458,187.3861 " fill="#FDF6E3" style="stroke:#000000;stroke-width:1.5625;"/><rect fill="none" height="141.6077" rx="7.8125" ry="7.8125" style="stroke:#000000;stroke-width:1.5625;" width="317.1875" x="20.8333" y="187.3861"/><text fill="#000000" font-family="Dejavu Serif" font-size="13.5417" font-weight="bold" lengthAdjust="spacing" textLength="100" x="36.4583" y="201.1429">My own label</text><polygon fill="#657B83" points="294.2708,223.2249,304.6875,227.3916,294.2708,231.5582,298.4375,227.3916" style="stroke:#657B83;stroke-width:1.0416666666666667;"/><line style="stroke:#657B83;stroke-width:2.0833333333333335;" x1="66.6667" x2="300.5208" y1="227.3916" y2="227.3916"/><text fill="#000000" font-family="Dejavu Serif" font-size="13.5417" lengthAdjust="spacing" textLength="108.3333" x="73.9583" y="222.1146">Log attack start</text><path d="M39.0625,243.0166 L109.375,243.0166 L109.375,250.592 L98.9583,261.0087 L31.25,261.0087 L31.25,250.8291 A7.8125,7.8125 0 0 1 39.0625,243.0166 " fill="#FDF6E3" style="stroke:#000000;stroke-width:1.5625;"/><rect fill="none" height="48.3388" rx="7.8125" ry="7.8125" style="stroke:#000000;stroke-width:1.5625;" width="254.6875" x="31.25" y="243.0166"/><text fill="#000000" font-family="Dejavu Serif" font-size="13.5417" font-weight="bold" lengthAdjust="spacing" textLength="31.25" x="46.875" y="256.7734">loop</text><text fill="#000000" font-family="Dejavu Serif" font-size="11.4583" font-weight="bold" lengthAdjust="spacing" textLength="85.4167" x="125" y="255.8589">[1000 times]</text><polygon fill="#657B83" points="241.6667,278.8554,252.0833,283.0221,241.6667,287.1887,245.8333,283.0221" style="stroke:#657B83;stroke-width:1.0416666666666667;"/><line style="stroke:#657B83;stroke-width:2.0833333333333335;" x1="66.6667" x2="247.9167" y1="283.0221" y2="283.0221"/><text fill="#000000" font-family="Dejavu Serif" font-size="13.5417" lengthAdjust="spacing" textLength="81.25" x="73.9583" y="277.7451">DNS Attack</text><polygon fill="#657B83" points="294.2708,316.4937,304.6875,320.6604,294.2708,324.8271,298.4375,320.6604" style="stroke:#657B83;stroke-width:1.0416666666666667;"/><line style="stroke:#657B83;stroke-width:2.0833333333333335;" x1="66.6667" x2="300.5208" y1="320.6604" y2="320.6604"/><text fill="#000000" font-family="Dejavu Serif" font-size="13.5417" lengthAdjust="spacing" textLength="101.0417" x="73.9583" y="315.3834">Log attack end</text><line style="stroke:#000000;stroke-width:1.0416666666666667;stroke-dasharray:2.0,2.0;" x1="10.4167" x2="348.4375" y1="337.3271" y2="337.3271"/><text fill="#000000" font-family="Dejavu Serif" font-size="11.4583" font-weight="bold" lengthAdjust="spacing" textLength="163.5417" x="15.625" y="348.086">[Another type of failure]</text><polygon fill="#657B83" points="78.125,369.6767,67.7083,373.8434,78.125,378.0101,73.9583,373.8434" style="stroke:#657B83;stroke-width:1.0416666666666667;"/><line style="stroke:#657B83;stroke-width:2.0833333333333335;" x1="71.875" x2="253.125" y1="373.8434" y2="373.8434"/><text fill="#000000" font-family="Dejavu Serif" font-size="13.5417" lengthAdjust="spacing" textLength="89.5833" x="157.2917" y="368.5664">Please repeat</text></g></svg>