<svg xmlns="http://www.w3.org/2000/svg" xmlns:xlink="http://www.w3.org/1999/xlink" contentStyleType="text/css" height="255.2083px" preserveAspectRatio="none" style="width:426px;height:255px;" version="1.1" viewBox="0 0 426 255" width="426.0417px" zoomAndPan="magnify"><defs/><g><path d="M79.6875,51.0091 L79.9794,51.0091 L79.1121,61.2804 L79.956,71.5516 L80.2426,81.8229 L78.6967,92.0942 L79.5796,102.3655 L79.0951,112.6367 L79.1549,122.908 L79.5928,133.1793 L78.7273,143.4505 L80.4564,153.7218 L78.8121,163.9931 L79.4128,174.2643 L80.2874,184.5356 L79.5684,194.8069 L79.6875,205.0781 " fill="none" style="stroke:#555555;stroke-width:1.0416666666666667;stroke-dasharray:5.0,5.0;"/><path d="M226.0417,51.0091 L226.3336,51.0091 L225.4662,61.2804 L226.3101,71.5516 L226.5968,81.8229 L225.0508,92.0942 L225.9337,102.3655 L225.4493,112.6367 L225.509,122.908 L225.947,133.1793 L225.0814,143.4505 L226.8106,153.7218 L225.1663,163.9931 L225.767,174.2643 L226.6416,184.5356 L225.9225,194.8069 L226.0417,205.0781 " fill="none" style="stroke:#555555;stroke-width:1.0416666666666667;stroke-dasharray:5.0,5.0;"/><path d="M379.6875,51.0091 L379.9794,51.0091 L379.1121,61.2804 L379.956,71.5516 L380.2426,81.8229 L378.6967,92.0942 L379.5796,102.3655 L379.0951,112.6367 L379.1549,122.908 L379.5928,133.1793 L378.7273,143.4505 L380.4564,153.7218 L378.8121,163.9931 L379.4128,174.2643 L380.2874,184.5356 L379.5684,194.8069 L379.6875,205.0781 " fill="none" style="stroke:#555555;stroke-width:1.0416666666666667;stroke-dasharray:5.0,5.0;"/><polygon fill="none" points="56.25,10.4167,56.25,10.6356,65.625,9.9851,75,10.618,84.375,10.833,93.75,9.6735,103.125,10.4167,103.1147,10.3917,103.6576,10.5239,104.2526,10.7818,104.8837,11.127,105.3902,11.1712,106.0713,11.6371,106.2489,11.7106,106.1132,12.1426,106.496,12.7893,106.9421,13.4622,107.0201,13.9827,107.2917,14.5833,107.3154,14.5833,107.2806,20.8268,107.3537,27.0703,107.3747,33.3138,107.495,39.5573,107.2917,45.8008,107.5069,45.8899,107.2655,46.4803,106.8852,47.0131,106.7081,47.6301,106.5406,48.2511,106.0713,48.7471,105.9754,48.5157,105.5722,49.2088,104.8534,49.1401,104.3744,49.6505,103.6485,49.5646,103.125,49.9674,103.125,49.8961,93.75,50.74,84.375,49.9167,75,50.0771,65.625,50.3202,56.25,49.9674,56.3053,50.101,55.6602,49.7221,55.1097,49.5714,54.4062,49.0516,53.9308,49.0824,53.3037,48.7471,53.4796,48.8199,53.2022,48.2169,53.0122,47.65,52.4165,46.9151,52.1182,46.3034,52.0833,45.8008,51.8676,45.8008,52.0629,39.5573,52.0151,33.3138,52.3199,27.0703,52.0227,20.8268,52.0833,14.5833,51.9733,14.5377,52.4006,14.0244,52.3576,13.3162,52.649,12.7466,53.2678,12.3125,53.3037,11.6371,53.3616,11.7768,53.9906,11.6286,54.4395,11.0457,55.1139,11.0072,55.7392,10.8501,56.25,10.4167" style="stroke:#333333;stroke-width:1.0416666666666667;"/><text fill="#2E2E2E" font-family="Segoe Print" font-size="12.5" lengthAdjust="spacing" textLength="30.2083" x="64.5833" y="34.5194">Alice</text><polygon fill="none" points="205.2083,10.4167,205.2083,10.4896,213.5417,10.2728,221.875,10.4838,230.2083,10.5554,238.5417,10.169,246.875,10.4167,246.8647,10.3917,247.4076,10.5239,248.0026,10.7818,248.6337,11.127,249.1402,11.1712,249.8213,11.6371,249.9989,11.7106,249.8632,12.1426,250.246,12.7893,250.6921,13.4622,250.7701,13.9827,251.0417,14.5833,251.0654,14.5833,251.0306,20.8268,251.1037,27.0703,251.1247,33.3138,251.245,39.5573,251.0417,45.8008,251.2569,45.8899,251.0155,46.4803,250.6352,47.0131,250.4581,47.6301,250.2906,48.2511,249.8213,48.7471,249.7254,48.5157,249.3222,49.2088,248.6034,49.1401,248.1244,49.6505,247.3985,49.5646,246.875,49.9674,246.875,49.9437,238.5417,50.2249,230.2083,49.9505,221.875,50.004,213.5417,50.085,205.2083,49.9674,205.2636,50.101,204.6186,49.7221,204.068,49.5714,203.3645,49.0516,202.8891,49.0824,202.2621,48.7471,202.4379,48.8199,202.1606,48.2169,201.9706,47.65,201.3749,46.9151,201.0765,46.3034,201.0417,45.8008,200.8259,45.8008,201.0212,39.5573,200.9734,33.3138,201.2783,27.0703,200.981,20.8268,201.0417,14.5833,200.9316,14.5377,201.359,14.0244,201.3159,13.3162,201.6074,12.7466,202.2262,12.3125,202.2621,11.6371,202.3199,11.7768,202.9489,11.6286,203.3978,11.0457,204.0722,11.0072,204.6975,10.8501,205.2083,10.4167" style="stroke:#333333;stroke-width:1.0416666666666667;"/><text fill="#2E2E2E" font-family="Segoe Print" font-size="12.5" lengthAdjust="spacing" textLength="25" x="213.5417" y="34.5194">Bob</text><polygon fill="none" points="348.9583,10.4167,348.9583,10.6356,359.2014,9.9851,369.4444,10.618,379.6875,10.833,389.9306,9.6735,400.1736,10.3357,410.4167,10.4167,410.36,10.2799,410.955,10.5377,411.5861,10.883,412.0926,10.9271,412.8473,11.5706,413.3629,11.6371,413.1608,11.5533,413.5436,12.2,413.9897,12.873,414.0677,13.3934,414.3611,14.0031,414.5833,14.5833,414.5722,14.5833,414.6453,20.8268,414.6664,27.0703,414.7867,33.3138,414.8163,39.5573,414.5833,45.8008,414.8012,45.891,414.4209,46.4239,414.2439,47.0409,414.0764,47.6619,413.3757,48.062,413.3629,48.7471,413.4531,48.9647,412.7343,48.896,412.2554,49.4065,411.5294,49.3205,410.9968,49.7014,410.4167,49.9674,410.4167,50.74,400.1736,49.9167,389.9306,50.0771,379.6875,50.3202,369.4444,50.401,359.2014,49.9634,348.9583,49.9674,348.9965,50.0596,348.293,49.5397,347.8176,49.5705,347.2634,49.4111,346.6604,49.1337,346.0121,48.7471,346.2087,48.8285,345.613,48.0936,345.3147,47.4819,345.0805,46.8967,345.0169,46.3822,344.7917,45.8008,344.7234,45.8008,345.0283,39.5573,344.731,33.3138,344.6726,27.0703,344.8709,20.8268,344.7917,14.5833,344.5778,14.4947,344.8692,13.9251,345.488,13.4911,345.6637,12.8735,346.0036,12.3239,346.0121,11.6371,345.9693,11.5338,346.6437,11.4954,347.269,11.3383,347.7171,10.7533,348.3563,10.63,348.9583,10.4167" style="stroke:#333333;stroke-width:1.0416666666666667;"/><text fill="#2E2E2E" font-family="Segoe Print" font-size="12.5" lengthAdjust="spacing" textLength="44.7917" x="357.2917" y="34.5194">Charlie</text><polygon fill="none" points="56.25,205.0781,56.25,205.2971,65.625,204.6465,75,205.2795,84.375,205.4945,93.75,204.335,103.125,205.0781,103.1147,205.0532,103.6576,205.1854,104.2526,205.4433,104.8837,205.7885,105.3902,205.8327,106.0713,206.2985,106.2489,206.3721,106.1132,206.804,106.496,207.4507,106.9421,208.1237,107.0201,208.6441,107.2917,209.2448,107.3154,209.2448,107.2806,215.4883,107.3537,221.7318,107.3747,227.9753,107.495,234.2188,107.2917,240.4622,107.5069,240.5514,107.2655,241.1418,106.8852,241.6746,106.7081,242.2916,106.5406,242.9126,106.0713,243.4085,105.9754,243.1772,105.5722,243.8703,104.8534,243.8016,104.3744,244.312,103.6485,244.226,103.125,244.6289,103.125,244.5576,93.75,245.4014,84.375,244.5781,75,244.7386,65.625,244.9816,56.25,244.6289,56.3053,244.7624,55.6602,244.3836,55.1097,244.2329,54.4062,243.713,53.9308,243.7438,53.3037,243.4085,53.4796,243.4814,53.2022,242.8783,53.0122,242.3115,52.4165,241.5766,52.1182,240.9648,52.0833,240.4622,51.8676,240.4622,52.0629,234.2188,52.0151,227.9753,52.3199,221.7318,52.0227,215.4883,52.0833,209.2448,51.9733,209.1992,52.4006,208.6859,52.3576,207.9777,52.649,207.408,53.2678,206.974,53.3037,206.2985,53.3616,206.4383,53.9906,206.2901,54.4395,205.7071,55.1139,205.6687,55.7392,205.5116,56.25,205.0781" style="stroke:#333333;stroke-width:1.0416666666666667;"/><text fill="#2E2E2E" font-family="Segoe Print" font-size="12.5" lengthAdjust="spacing" textLength="30.2083" x="64.5833" y="229.1809">Alice</text><polygon fill="none" points="205.2083,205.0781,205.2083,205.1511,213.5417,204.9343,221.875,205.1452,230.2083,205.2169,238.5417,204.8304,246.875,205.0781,246.8647,205.0532,247.4076,205.1854,248.0026,205.4433,248.6337,205.7885,249.1402,205.8327,249.8213,206.2985,249.9989,206.3721,249.8632,206.804,250.246,207.4507,250.6921,208.1237,250.7701,208.6441,251.0417,209.2448,251.0654,209.2448,251.0306,215.4883,251.1037,221.7318,251.1247,227.9753,251.245,234.2188,251.0417,240.4622,251.2569,240.5514,251.0155,241.1418,250.6352,241.6746,250.4581,242.2916,250.2906,242.9126,249.8213,243.4085,249.7254,243.1772,249.3222,243.8703,248.6034,243.8016,248.1244,244.312,247.3985,244.226,246.875,244.6289,246.875,244.6051,238.5417,244.8864,230.2083,244.612,221.875,244.6655,213.5417,244.7465,205.2083,244.6289,205.2636,244.7624,204.6186,244.3836,204.068,244.2329,203.3645,243.713,202.8891,243.7438,202.2621,243.4085,202.4379,243.4814,202.1606,242.8783,201.9706,242.3115,201.3749,241.5766,201.0765,240.9648,201.0417,240.4622,200.8259,240.4622,201.0212,234.2188,200.9734,227.9753,201.2783,221.7318,200.981,215.4883,201.0417,209.2448,200.9316,209.1992,201.359,208.6859,201.3159,207.9777,201.6074,207.408,202.2262,206.974,202.2621,206.2985,202.3199,206.4383,202.9489,206.2901,203.3978,205.7071,204.0722,205.6687,204.6975,205.5116,205.2083,205.0781" style="stroke:#333333;stroke-width:1.0416666666666667;"/><text fill="#2E2E2E" font-family="Segoe Print" font-size="12.5" lengthAdjust="spacing" textLength="25" x="213.5417" y="229.1809">Bob</text><polygon fill="none" points="348.9583,205.0781,348.9583,205.2971,359.2014,204.6465,369.4444,205.2795,379.6875,205.4945,389.9306,204.335,400.1736,204.9972,410.4167,205.0781,410.36,204.9413,410.955,205.1992,411.5861,205.5444,412.0926,205.5886,412.8473,206.232,413.3629,206.2985,413.1608,206.2148,413.5436,206.8615,413.9897,207.5344,414.0677,208.0549,414.3611,208.6646,414.5833,209.2448,414.5722,209.2448,414.6453,215.4883,414.6664,221.7318,414.7867,227.9753,414.8163,234.2188,414.5833,240.4622,414.8012,240.5525,414.4209,241.0853,414.2439,241.7024,414.0764,242.3233,413.3757,242.7234,413.3629,243.4085,413.4531,243.6262,412.7343,243.5575,412.2554,244.0679,411.5294,243.982,410.9968,244.3629,410.4167,244.6289,410.4167,245.4014,400.1736,244.5781,389.9306,244.7386,379.6875,244.9816,369.4444,245.0625,359.2014,244.6248,348.9583,244.6289,348.9965,244.721,348.293,244.2012,347.8176,244.232,347.2634,244.0725,346.6604,243.7952,346.0121,243.4085,346.2087,243.49,345.613,242.7551,345.3147,242.1433,345.0805,241.5582,345.0169,241.0437,344.7917,240.4622,344.7234,240.4622,345.0283,234.2188,344.731,227.9753,344.6726,221.7318,344.8709,215.4883,344.7917,209.2448,344.5778,209.1562,344.8692,208.5866,345.488,208.1525,345.6637,207.5349,346.0036,206.9854,346.0121,206.2985,345.9693,206.1953,346.6437,206.1568,347.269,205.9998,347.7171,205.4147,348.3563,205.2915,348.9583,205.0781" style="stroke:#333333;stroke-width:1.0416666666666667;"/><text fill="#2E2E2E" font-family="Segoe Print" font-size="12.5" lengthAdjust="spacing" textLength="44.7917" x="357.2917" y="229.1809">Charlie</text><polygon fill="#333333" points="213.5417,86.3932,213.5688,86.461,215.5716,87.093,217.7333,88.1222,219.8432,89.0221,221.783,89.4966,223.9583,90.5599,223.9483,90.5348,221.82,91.2557,219.7422,92.1029,217.6995,93.0379,215.5358,93.6703,213.5417,94.7266,213.6776,94.8625,214.2203,93.7385,215.1598,93.0113,216.1477,92.3326,216.8539,91.3722,217.7083,90.5599,217.7251,90.5766,216.8672,89.7187,216.0855,88.9371,215.267,88.1186,214.5188,87.3704,213.5417,86.3932" style="stroke:#333333;stroke-width:1.0416666666666667;"/><path d="M79.6875,90.5599 L79.6875,90.8518 L90.4647,89.9845 L101.242,90.8283 L112.0192,91.115 L122.7965,89.5691 L133.5737,90.452 L144.351,89.9675 L155.1282,90.0273 L165.9054,90.4652 L176.6827,89.5997 L187.4599,91.3288 L198.2372,89.6845 L209.0144,90.2852 L219.7917,90.5599 " fill="none" style="stroke:#333333;stroke-width:3.125;"/><text fill="#2E2E2E" font-family="Segoe Print" font-size="12.5" lengthAdjust="spacing" textLength="31.25" x="92.1875" y="80.3202">hello</text><polygon fill="#333333" points="367.1875,86.3932,367.2146,86.461,369.2174,87.093,371.3791,88.1222,373.489,89.0221,375.4288,89.4966,377.6042,90.5599,377.5941,90.5348,375.4658,91.2557,373.388,92.1029,371.3454,93.0379,369.1817,93.6703,367.1875,94.7266,367.3234,94.8625,367.8661,93.7385,368.8056,93.0113,369.7936,92.3326,370.4998,91.3722,371.3542,90.5599,371.3709,90.5766,370.513,89.7187,369.7313,88.9371,368.9129,88.1186,368.1646,87.3704,367.1875,86.3932" style="stroke:#333333;stroke-width:1.0416666666666667;"/><path d="M226.0417,90.5599 L226.0417,90.8518 L236.5699,89.9845 L247.0982,90.8283 L257.6265,91.115 L268.1548,89.5691 L278.683,90.452 L289.2113,89.9675 L299.7396,90.0273 L310.2679,90.4652 L320.7961,89.5997 L331.3244,91.3288 L341.8527,89.6845 L352.381,90.2852 L362.9092,91.1598 L373.4375,90.5599 " fill="none" style="stroke:#333333;stroke-width:3.125;"/><text fill="#2E2E2E" font-family="Segoe Print" font-size="12.5" lengthAdjust="spacing" textLength="11.4583" x="238.5417" y="80.3202">hi</text><path d="M67.1875,103.0599 L67.1875,103.6437 L77.753,101.909 L88.3185,103.5968 L98.8839,104.1701 L109.4494,101.0782 L120.0149,102.844 L130.5804,101.8752 L141.1458,101.9946 L151.7113,102.8706 L162.2768,101.1394 L172.8423,104.5978 L183.4077,101.3091 L193.9732,102.5105 L204.5387,104.2597 L215.1042,103.0599 L215.0247,103.0599 L215.1674,106.3867 L215.0746,109.7135 L215.2695,113.0404 L215.3256,116.3672 L215.1042,119.694 L215.4876,120.0775 L213.4602,122.2167 L211.3822,124.3054 L209.0209,126.1107 L207.0744,128.3309 L204.6875,130.1107 L204.6875,132.0613 L194.5685,128.1074 L184.4494,131.9954 L174.3304,129.2871 L164.2113,131.5935 L154.0923,128.7356 L143.9732,129.9204 L133.8542,132.1707 L123.7351,129.9753 L113.6161,130.4032 L103.497,131.0513 L93.378,131.2669 L83.2589,130.0998 L73.1399,130.9085 L63.0208,130.1107 L62.4908,130.1107 L63.2842,125.5339 L63.5284,120.957 L63.4324,116.3802 L63.5884,111.8034 L63.0208,107.2266 L67.1875,103.0599 " fill="#555555" style="stroke:#555555;stroke-width:1.0416666666666667;"/><polygon fill="none" points="67.1875,103.0599,67.1875,103.2788,77.6714,102.6283,88.1552,103.2612,98.6391,103.4762,109.123,102.3168,119.6069,102.9789,130.0907,102.6156,140.5746,102.6604,151.0585,102.9889,161.5423,102.3397,172.0262,103.6366,182.5101,102.4034,192.994,102.8539,203.4778,103.5098,213.9617,102.9705,224.4456,103.131,234.9294,103.0266,245.4133,103.2459,255.8972,103.309,266.381,103.67,276.8649,103.7589,287.3488,103.7675,297.8327,103.3251,308.3165,103.5428,318.8004,103.7914,329.2843,102.3087,339.7681,103.7667,350.252,102.751,360.7359,103.6159,371.2198,102.5442,381.7036,102.9885,392.1875,103.0599,392.286,103.2978,392.7703,103.2883,393.38,103.5818,394.0003,103.9008,394.5998,104.1697,395.1338,104.2803,395.1325,104.2798,395.47,104.9077,395.4383,105.3827,395.9572,106.0858,396.2859,106.7101,396.3542,107.2266,396.8172,107.2266,396.9927,117.0387,395.851,126.8508,395.6748,136.6629,395.7069,146.4751,396.2928,156.2872,396.1494,166.0993,396.3542,175.9115,396.5728,176.002,396.0541,176.4775,395.756,177.0444,395.6952,177.7096,395.1639,178.1799,395.1338,178.8577,395.0648,178.6912,394.6308,179.31,394.0132,179.4857,393.4636,179.8256,392.734,179.7308,392.1875,180.0781,392.1875,180.4106,381.7036,180.6931,371.2198,179.586,360.7359,179.9783,350.252,180.2094,339.7681,180.757,329.2843,180.0738,318.8004,180.56,308.3165,179.5013,297.8327,179.3726,287.3488,180.6027,276.8649,179.3313,266.381,180.6083,255.8972,180.2934,245.4133,179.799,234.9294,179.7096,224.4456,180.556,213.9617,179.7663,203.4778,180.6946,192.994,179.5023,182.5101,180.7213,172.0262,180.5826,161.5423,180.3333,151.0585,180.1273,140.5746,180.835,130.0907,180.7173,119.6069,180.2544,109.123,180.3575,98.6391,179.9424,88.1552,180.8244,77.6714,180.2394,67.1875,180.0781,67.2104,180.1335,66.5174,179.6389,65.9551,179.46,65.4903,179.5162,64.8876,179.2397,64.2412,178.8577,64.2274,178.852,63.8938,178.2257,63.6828,177.6501,63.2889,176.9988,63.398,176.5558,63.0208,175.9115,63.7912,175.9115,63.5692,166.0993,63.7447,156.2872,62.8784,146.4751,63.1117,136.6629,62.6171,126.8508,63.3167,117.0387,63.0208,107.2266,63.1,107.2594,63.4421,106.7107,63.4353,106.0175,63.71,105.4409,64.1394,104.9285,64.2412,104.2803,64.3166,104.4623,64.7624,103.8718,65.394,103.7299,66.0288,103.5959,66.5171,103.108,67.1875,103.0599" style="stroke:#333333;stroke-width:1.0416666666666667;"/><text fill="#17A2B8" font-family="Segoe Print" font-size="12.5" font-weight="bold" lengthAdjust="spacing" textLength="94.7917" x="83.8542" y="120.9127">A teoz group</text><polygon fill="#333333" points="213.5417,167.5781,213.5688,167.6459,215.5716,168.2779,217.7333,169.3071,219.8432,170.207,221.783,170.6815,223.9583,171.7448,223.9483,171.7197,221.82,172.4406,219.7422,173.2878,217.6995,174.2228,215.5358,174.8552,213.5417,175.9115,213.6776,176.0474,214.2203,174.9234,215.1598,174.1962,216.1477,173.5175,216.8539,172.5571,217.7083,171.7448,217.7251,171.7615,216.8672,170.9036,216.0855,170.122,215.267,169.3035,214.5188,168.5553,213.5417,167.5781" style="stroke:#333333;stroke-width:1.0416666666666667;"/><path d="M79.6875,171.7448 L79.6875,172.0367 L90.4647,171.1693 L101.242,172.0132 L112.0192,172.2999 L122.7965,170.754 L133.5737,171.6369 L144.351,171.1524 L155.1282,171.2122 L165.9054,171.6501 L176.6827,170.7846 L187.4599,172.5137 L198.2372,170.8694 L209.0144,171.4701 L219.7917,171.7448 " fill="none" style="stroke:#333333;stroke-width:3.125;"/><text fill="#2E2E2E" font-family="Segoe Print" font-size="12.5" lengthAdjust="spacing" textLength="31.25" x="92.1875" y="161.5051">hello</text><polygon fill="#333333" points="367.1875,167.5781,367.2146,167.6459,369.2174,168.2779,371.3791,169.3071,373.489,170.207,375.4288,170.6815,377.6042,171.7448,377.5941,171.7197,375.4658,172.4406,373.388,173.2878,371.3454,174.2228,369.1817,174.8552,367.1875,175.9115,367.3234,176.0474,367.8661,174.9234,368.8056,174.1962,369.7936,173.5175,370.4998,172.5571,371.3542,171.7448,371.3709,171.7615,370.513,170.9036,369.7313,170.122,368.9129,169.3035,368.1646,168.5553,367.1875,167.5781" style="stroke:#333333;stroke-width:1.0416666666666667;"/><path d="M226.0417,171.7448 L226.0417,172.0367 L236.5699,171.1693 L247.0982,172.0132 L257.6265,172.2999 L268.1548,170.754 L278.683,171.6369 L289.2113,171.1524 L299.7396,171.2122 L310.2679,171.6501 L320.7961,170.7846 L331.3244,172.5137 L341.8527,170.8694 L352.381,171.4701 L362.9092,172.3447 L373.4375,171.7448 " fill="none" style="stroke:#333333;stroke-width:3.125;"/><text fill="#2E2E2E" font-family="Segoe Print" font-size="12.5" lengthAdjust="spacing" textLength="16.6667" x="238.5417" y="161.5051">ha</text></g></svg>