<svg xmlns="http://www.w3.org/2000/svg" xmlns:xlink="http://www.w3.org/1999/xlink" contentStyleType="text/css" height="704px" preserveAspectRatio="none" style="width:370px;height:704px;background:#FFFFFF;" version="1.1" viewBox="0 0 370 704" width="370px" zoomAndPan="magnify"><defs/><g><rect fill="#E0E0E0" height="250.6328" style="stroke:#55BB33;stroke-width:1.0;" width="10" x="224.8999" y="181.6484"/><rect fill="#E0E0E0" height="155.2188" style="stroke:#55BB33;stroke-width:1.0;" width="10" x="229.8999" y="216.4531"/><rect fill="#005500" height="75.6094" style="stroke:#55BB33;stroke-width:1.0;" width="10" x="234.8999" y="256.2578"/><line style="stroke:#55BB33;stroke-width:0.5;stroke-dasharray:5.0,5.0;" x1="68.1038" x2="68.1038" y1="32.8047" y2="520.2188"/><line style="stroke:#55BB33;stroke-width:1.0;stroke-dasharray:1.0,4.0;" x1="68.1038" x2="68.1038" y1="520.2188" y2="548.2188"/><line style="stroke:#55BB33;stroke-width:0.5;stroke-dasharray:5.0,5.0;" x1="68.1038" x2="68.1038" y1="548.2188" y2="595.0234"/><line style="stroke:#55BB33;stroke-width:1.0;stroke-dasharray:1.0,4.0;" x1="68.1038" x2="68.1038" y1="595.0234" y2="635.8281"/><line style="stroke:#55BB33;stroke-width:0.5;stroke-dasharray:5.0,5.0;" x1="68.1038" x2="68.1038" y1="635.8281" y2="672.6328"/><line style="stroke:#55BB33;stroke-width:0.5;stroke-dasharray:5.0,5.0;" x1="229.2705" x2="229.2705" y1="32.8047" y2="520.2188"/><line style="stroke:#55BB33;stroke-width:1.0;stroke-dasharray:1.0,4.0;" x1="229.2705" x2="229.2705" y1="520.2188" y2="548.2188"/><line style="stroke:#55BB33;stroke-width:0.5;stroke-dasharray:5.0,5.0;" x1="229.2705" x2="229.2705" y1="548.2188" y2="595.0234"/><line style="stroke:#55BB33;stroke-width:1.0;stroke-dasharray:1.0,4.0;" x1="229.2705" x2="229.2705" y1="595.0234" y2="635.8281"/><line style="stroke:#55BB33;stroke-width:0.5;stroke-dasharray:5.0,5.0;" x1="229.2705" x2="229.2705" y1="635.8281" y2="672.6328"/><line style="stroke:#55BB33;stroke-width:0.5;stroke-dasharray:5.0,5.0;" x1="331.0591" x2="331.0591" y1="298.1602" y2="520.2188"/><line style="stroke:#55BB33;stroke-width:1.0;stroke-dasharray:1.0,4.0;" x1="331.0591" x2="331.0591" y1="520.2188" y2="548.2188"/><line style="stroke:#55BB33;stroke-width:0.5;stroke-dasharray:5.0,5.0;" x1="331.0591" x2="331.0591" y1="548.2188" y2="595.0234"/><line style="stroke:#55BB33;stroke-width:1.0;stroke-dasharray:1.0,4.0;" x1="331.0591" x2="331.0591" y1="595.0234" y2="635.8281"/><line style="stroke:#55BB33;stroke-width:0.5;stroke-dasharray:5.0,5.0;" x1="331.0591" x2="331.0591" y1="635.8281" y2="672.6328"/><rect fill="#CCCCCC" height="26.8047" rx="2.5" ry="2.5" style="stroke:#AAAAAA;stroke-width:0.5;" width="40.4526" x="48.1038" y="5"/><text fill="#000000" font-family="Verdana" font-size="11" lengthAdjust="spacing" textLength="26.4526" x="55.1038" y="22.2104">Alice</text><rect fill="#CCCCCC" height="26.8047" rx="2.5" ry="2.5" style="stroke:#AAAAAA;stroke-width:0.5;" width="40.4526" x="48.1038" y="671.6328"/><text fill="#000000" font-family="Verdana" font-size="11" lengthAdjust="spacing" textLength="26.4526" x="55.1038" y="688.8433">Alice</text><rect fill="#CCCCCC" height="26.8047" rx="2.5" ry="2.5" style="stroke:#AAAAAA;stroke-width:0.5;" width="35.2588" x="212.2705" y="5"/><text fill="#000000" font-family="Verdana" font-size="11" lengthAdjust="spacing" textLength="21.2588" x="219.2705" y="22.2104">Bob</text><rect fill="#CCCCCC" height="26.8047" rx="2.5" ry="2.5" style="stroke:#AAAAAA;stroke-width:0.5;" width="35.2588" x="212.2705" y="671.6328"/><text fill="#000000" font-family="Verdana" font-size="11" lengthAdjust="spacing" textLength="21.2588" x="219.2705" y="688.8433">Bob</text><rect fill="#CCCCCC" height="26.8047" rx="2.5" ry="2.5" style="stroke:#AAAAAA;stroke-width:0.5;" width="54.2939" x="304.0591" y="671.6328"/><text fill="#000000" font-family="Verdana" font-size="11" lengthAdjust="spacing" textLength="40.2939" x="311.0591" y="688.8433">George</text><rect fill="#E0E0E0" height="250.6328" style="stroke:#55BB33;stroke-width:1.0;" width="10" x="224.8999" y="181.6484"/><rect fill="#E0E0E0" height="155.2188" style="stroke:#55BB33;stroke-width:1.0;" width="10" x="229.8999" y="216.4531"/><rect fill="#005500" height="75.6094" style="stroke:#55BB33;stroke-width:1.0;" width="10" x="234.8999" y="256.2578"/><path d="M5,47.8047 L5,69.8047 L131,69.8047 L131,57.8047 L121,47.8047 L5,47.8047 " fill="#55BB33" style="stroke:#338822;stroke-width:0.5;"/><path d="M121,47.8047 L121,57.8047 L131,57.8047 L121,47.8047 " fill="#55BB33" style="stroke:#338822;stroke-width:0.5;"/><text fill="#000000" font-family="Verdana" font-size="11" lengthAdjust="spacing" textLength="105.6602" x="11" y="63.0151">initial state of Alice</text><path d="M169,47.8047 L169,69.8047 L290,69.8047 L290,57.8047 L280,47.8047 L169,47.8047 " fill="#55BB33" style="stroke:#338822;stroke-width:0.5;"/><path d="M280,47.8047 L280,57.8047 L290,57.8047 L280,47.8047 " fill="#55BB33" style="stroke:#338822;stroke-width:0.5;"/><text fill="#000000" font-family="Verdana" font-size="11" lengthAdjust="spacing" textLength="100.4663" x="175" y="63.0151">initial state of Bob</text><rect fill="#EEEEEE" height="3" style="stroke:#EEEEEE;stroke-width:1.0;" width="363.353" x="0" y="96.1758"/><line style="stroke:#000000;stroke-width:1.0;" x1="0" x2="363.353" y1="96.1758" y2="96.1758"/><line style="stroke:#000000;stroke-width:1.0;" x1="0" x2="363.353" y1="99.1758" y2="99.1758"/><rect fill="#EEEEEE" height="23.1328" style="stroke:#000000;stroke-width:2.0;" width="110.624" x="126.3645" y="85.6094"/><text fill="#000000" font-family="sans-serif" font-size="13" font-weight="bold" lengthAdjust="spacing" textLength="92.0981" x="132.3645" y="101.6763">Initialization</text><rect fill="none" height="39.1016" style="stroke:#000000;stroke-width:1.5;" width="205.4255" x="45.1038" y="118.7422"/><path d="M45.1038,118.7422 L110.1038,118.7422 L110.1038,125.7422 L100.1038,135.7422 L45.1038,135.7422 L45.1038,118.7422 " fill="#EEEEEE" style="stroke:#000000;stroke-width:2.0;"/><text fill="#000000" font-family="sans-serif" font-size="13" font-weight="bold" lengthAdjust="spacing" textLength="20.8838" x="58.1038" y="132.8091">ref</text><text fill="#000000" font-family="sans-serif" font-size="12" lengthAdjust="spacing" textLength="18.9785" x="138.3273" y="150.8809">init</text><polygon fill="#000000" points="212.8999,177.6484,222.8999,181.6484,212.8999,185.6484,216.8999,181.6484" style="stroke:#000000;stroke-width:1.0;"/><line style="stroke:#000000;stroke-width:1.0;" x1="68.3301" x2="218.8999" y1="181.6484" y2="181.6484"/><text fill="#333333" font-family="Verdana" font-size="11" lengthAdjust="spacing" textLength="26.5815" x="75.3301" y="177.0542">hello</text><line style="stroke:#000000;stroke-width:1.0;" x1="234.8999" x2="281.8999" y1="203.4531" y2="203.4531"/><line style="stroke:#000000;stroke-width:1.0;" x1="281.8999" x2="281.8999" y1="203.4531" y2="216.4531"/><line style="stroke:#000000;stroke-width:1.0;" x1="240.8999" x2="281.8999" y1="216.4531" y2="216.4531"/><polygon fill="#000000" points="250.8999,212.4531,240.8999,216.4531,250.8999,220.4531,246.8999,216.4531" style="stroke:#000000;stroke-width:1.0;"/><text fill="#333333" font-family="Verdana" font-size="11" lengthAdjust="spacing" textLength="41.8247" x="246.8999" y="198.8589">self call</text><line style="stroke:#000000;stroke-width:1.0;" x1="239.8999" x2="286.8999" y1="243.2578" y2="243.2578"/><line style="stroke:#000000;stroke-width:1.0;" x1="286.8999" x2="286.8999" y1="243.2578" y2="256.2578"/><line style="stroke:#000000;stroke-width:1.0;" x1="245.8999" x2="286.8999" y1="256.2578" y2="256.2578"/><polygon fill="#000000" points="255.8999,252.2578,245.8999,256.2578,255.8999,260.2578,251.8999,256.2578" style="stroke:#000000;stroke-width:1.0;"/><text fill="#333333" font-family="Verdana" font-size="11" lengthAdjust="spacing" textLength="26.5815" x="251.8999" y="238.6636">hello</text><polygon fill="#000000" points="292.0591,284.0625,302.0591,288.0625,292.0591,292.0625,296.0591,288.0625" style="stroke:#000000;stroke-width:1.0;"/><line style="stroke:#000000;stroke-width:1.0;" x1="244.8999" x2="298.0591" y1="288.0625" y2="288.0625"/><text fill="#333333" font-family="Verdana" font-size="11" lengthAdjust="spacing" textLength="35.1592" x="251.8999" y="283.4683">create</text><rect fill="#CCCCCC" height="26.8047" rx="2.5" ry="2.5" style="stroke:#AAAAAA;stroke-width:0.5;" width="54.2939" x="304.0591" y="269.2578"/><text fill="#000000" font-family="Verdana" font-size="11" lengthAdjust="spacing" textLength="40.2939" x="311.0591" y="286.4683">George</text><line style="stroke:#000000;stroke-width:1.0;stroke-dasharray:2.0,2.0;" x1="244.8999" x2="286.8999" y1="330.8672" y2="330.8672"/><line style="stroke:#000000;stroke-width:1.0;stroke-dasharray:2.0,2.0;" x1="286.8999" x2="286.8999" y1="330.8672" y2="343.8672"/><line style="stroke:#000000;stroke-width:1.0;stroke-dasharray:2.0,2.0;" x1="239.8999" x2="286.8999" y1="343.8672" y2="343.8672"/><polygon fill="#000000" points="249.8999,339.8672,239.8999,343.8672,249.8999,347.8672,245.8999,343.8672" style="stroke:#000000;stroke-width:1.0;"/><text fill="#333333" font-family="Verdana" font-size="11" lengthAdjust="spacing" textLength="27.4517" x="251.8999" y="326.2729">done</text><line style="stroke:#000000;stroke-width:1.0;stroke-dasharray:2.0,2.0;" x1="239.8999" x2="281.8999" y1="370.6719" y2="370.6719"/><line style="stroke:#000000;stroke-width:1.0;stroke-dasharray:2.0,2.0;" x1="281.8999" x2="281.8999" y1="370.6719" y2="383.6719"/><line style="stroke:#000000;stroke-width:1.0;stroke-dasharray:2.0,2.0;" x1="234.8999" x2="281.8999" y1="383.6719" y2="383.6719"/><polygon fill="#000000" points="244.8999,379.6719,234.8999,383.6719,244.8999,387.6719,240.8999,383.6719" style="stroke:#000000;stroke-width:1.0;"/><text fill="#333333" font-family="Verdana" font-size="11" lengthAdjust="spacing" textLength="10.5703" x="246.8999" y="366.0776">rc</text><polygon fill="#000000" points="319.2061,401.4766,329.2061,405.4766,319.2061,409.4766,323.2061,405.4766" style="stroke:#000000;stroke-width:1.0;"/><line style="stroke:#000000;stroke-width:1.0;" x1="234.8999" x2="325.2061" y1="405.4766" y2="405.4766"/><text fill="#333333" font-family="Verdana" font-size="11" lengthAdjust="spacing" textLength="34.6543" x="241.8999" y="400.8823">delete</text><line style="stroke:#55BB33;stroke-width:2.0;" x1="322.2061" x2="340.2061" y1="396.4766" y2="414.4766"/><line style="stroke:#55BB33;stroke-width:2.0;" x1="322.2061" x2="340.2061" y1="414.4766" y2="396.4766"/><polygon fill="#000000" points="79.3301,428.2813,69.3301,432.2813,79.3301,436.2813,75.3301,432.2813" style="stroke:#000000;stroke-width:1.0;"/><line style="stroke:#000000;stroke-width:1.0;stroke-dasharray:2.0,2.0;" x1="73.3301" x2="228.8999" y1="432.2813" y2="432.2813"/><text fill="#333333" font-family="Verdana" font-size="11" lengthAdjust="spacing" textLength="43.0278" x="85.3301" y="427.687">success</text><rect fill="#EEEEEE" height="3" style="stroke:#EEEEEE;stroke-width:1.0;" width="363.353" x="0" y="460.8477"/><line style="stroke:#000000;stroke-width:1.0;" x1="0" x2="363.353" y1="460.8477" y2="460.8477"/><line style="stroke:#000000;stroke-width:1.0;" x1="0" x2="363.353" y1="463.8477" y2="463.8477"/><rect fill="#EEEEEE" height="23.1328" style="stroke:#000000;stroke-width:2.0;" width="126.4614" x="118.4458" y="450.2813"/><text fill="#000000" font-family="sans-serif" font-size="13" font-weight="bold" lengthAdjust="spacing" textLength="107.9355" x="124.4458" y="466.3481">Delay example</text><polygon fill="#000000" points="218.1661,507.6086,227.8999,512.2188,217.6719,515.5934,221.9114,511.8481" style="stroke:#000000;stroke-width:1.0;"/><line style="stroke:#000000;stroke-width:1.0;" x1="68.3301" x2="227.8999" y1="502.2188" y2="512.2188"/><text fill="#333333" font-family="Verdana" font-size="11" lengthAdjust="spacing" textLength="129.4219" x="75.3301" y="497.6245">Authentication Request</text><polygon fill="#000000" points="79.0639,572.4133,69.3301,577.0234,79.5581,580.3981,75.3186,576.6528" style="stroke:#000000;stroke-width:1.0;"/><line style="stroke:#000000;stroke-width:1.0;stroke-dasharray:2.0,2.0;" x1="228.8999" x2="68.3301" y1="567.0234" y2="577.0234"/><text fill="#333333" font-family="Verdana" font-size="11" lengthAdjust="spacing" textLength="137.5698" x="85.3301" y="562.4292">Authentication Response</text><text fill="#000000" font-family="sans-serif" font-size="11" lengthAdjust="spacing" textLength="83.918" x="157.8091" y="619.2339">5 minutes later</text><polygon fill="#000000" points="79.3301,650.6328,69.3301,654.6328,79.3301,658.6328,75.3301,654.6328" style="stroke:#000000;stroke-width:1.0;"/><line style="stroke:#000000;stroke-width:1.0;stroke-dasharray:2.0,2.0;" x1="73.3301" x2="228.8999" y1="654.6328" y2="654.6328"/><text fill="#333333" font-family="Verdana" font-size="11" lengthAdjust="spacing" textLength="61.1929" x="85.3301" y="650.0386">Good Bye !</text></g></svg>