<?xml version="1.0" encoding="UTF-8" standalone="no"?><svg xmlns="http://www.w3.org/2000/svg" xmlns:xlink="http://www.w3.org/1999/xlink" contentStyleType="text/css" height="587.5px" preserveAspectRatio="none" style="width:905px;height:587px;" version="1.1" viewBox="0 0 905 587" width="905.2083px" zoomAndPan="magnify"><defs><linearGradient id="g1a3povb5ehbzl0" x1="50%" x2="50%" y1="0%" y2="100%"><stop offset="0%" stop-color="#F3F3F3"/><stop offset="100%" stop-color="#E2E2E2"/></linearGradient></defs><g><line style="stroke:#A8A8A8;stroke-width:1.0416666666666667;stroke-dasharray:5.0,5.0;" x1="100" x2="100" y1="109.3424" y2="479.9479"/><line style="stroke:#A8A8A8;stroke-width:1.0416666666666667;stroke-dasharray:5.0,5.0;" x1="225" x2="225" y1="109.3424" y2="479.9479"/><line style="stroke:#A8A8A8;stroke-width:1.0416666666666667;stroke-dasharray:5.0,5.0;" x1="310.4167" x2="310.4167" y1="109.3424" y2="479.9479"/><line style="stroke:#A8A8A8;stroke-width:1.0416666666666667;stroke-dasharray:5.0,5.0;" x1="402.0833" x2="402.0833" y1="109.3424" y2="479.9479"/><line style="stroke:#A8A8A8;stroke-width:1.0416666666666667;stroke-dasharray:5.0,5.0;" x1="481.25" x2="481.25" y1="109.3424" y2="479.9479"/><line style="stroke:#A8A8A8;stroke-width:1.0416666666666667;stroke-dasharray:5.0,5.0;" x1="568.75" x2="568.75" y1="109.3424" y2="479.9479"/><line style="stroke:#A8A8A8;stroke-width:1.0416666666666667;stroke-dasharray:5.0,5.0;" x1="711.4583" x2="711.4583" y1="109.3424" y2="479.9479"/><line style="stroke:#A8A8A8;stroke-width:1.0416666666666667;stroke-dasharray:5.0,5.0;" x1="850" x2="850" y1="109.3424" y2="479.9479"/><rect fill="url(#g1a3povb5ehbzl0)" height="49.9674" rx="7.8125" ry="7.8125" style="stroke:#F3F3F3;stroke-width:1.0416666666666667;" width="106.25" x="46.875" y="58.3333"/><text fill="#336699" font-family="&quot;Verdana&quot;" font-size="12.5" lengthAdjust="spacing" textLength="70.8333" x="64.5833" y="87.6444">Participant</text><rect fill="url(#g1a3povb5ehbzl0)" height="49.9674" rx="7.8125" ry="7.8125" style="stroke:#F3F3F3;stroke-width:1.0416666666666667;" width="106.25" x="46.875" y="478.9063"/><text fill="#336699" font-family="&quot;Verdana&quot;" font-size="12.5" lengthAdjust="spacing" textLength="70.8333" x="64.5833" y="508.2174">Participant</text><text fill="#336699" font-family="&quot;Verdana&quot;" font-size="12.5" lengthAdjust="spacing" textLength="34.375" x="205.2083" y="95.9778">Actor</text><ellipse cx="225.5208" cy="19.7917" fill="url(#g1a3povb5ehbzl0)" rx="8.3333" ry="8.3333" style="stroke:#F3F3F3;stroke-width:1.0416666666666667;"/><path d="M225.5208,28.125 L225.5208,56.25 M211.9792,36.4583 L239.0625,36.4583 M225.5208,56.25 L211.9792,71.875 M225.5208,56.25 L239.0625,71.875 " fill="none" style="stroke:#F3F3F3;stroke-width:1.0416666666666667;"/><text fill="#336699" font-family="&quot;Verdana&quot;" font-size="12.5" lengthAdjust="spacing" textLength="34.375" x="205.2083" y="500.9257">Actor</text><ellipse cx="225.5208" cy="523.6654" fill="url(#g1a3povb5ehbzl0)" rx="8.3333" ry="8.3333" style="stroke:#F3F3F3;stroke-width:1.0416666666666667;"/><path d="M225.5208,531.9987 L225.5208,560.1237 M211.9792,540.332 L239.0625,540.332 M225.5208,560.1237 L211.9792,575.7487 M225.5208,560.1237 L239.0625,575.7487 " fill="none" style="stroke:#F3F3F3;stroke-width:1.0416666666666667;"/><text fill="#336699" font-family="&quot;Verdana&quot;" font-size="12.5" lengthAdjust="spacing" textLength="61.4583" x="277.0833" y="95.9778">Boundary</text><path d="M289.5833,44.7917 L289.5833,69.7917 M289.5833,57.2917 L307.2917,57.2917 " fill="none" style="stroke:#F3F3F3;stroke-width:1.0416666666666667;"/><ellipse cx="319.7917" cy="57.2917" fill="url(#g1a3povb5ehbzl0)" rx="12.5" ry="12.5" style="stroke:#F3F3F3;stroke-width:1.0416666666666667;"/><text fill="#336699" font-family="&quot;Verdana&quot;" font-size="12.5" lengthAdjust="spacing" textLength="61.4583" x="277.0833" y="500.9257">Boundary</text><path d="M289.5833,518.457 L289.5833,543.457 M289.5833,530.957 L307.2917,530.957 " fill="none" style="stroke:#F3F3F3;stroke-width:1.0416666666666667;"/><ellipse cx="319.7917" cy="530.957" fill="url(#g1a3povb5ehbzl0)" rx="12.5" ry="12.5" style="stroke:#F3F3F3;stroke-width:1.0416666666666667;"/><text fill="#336699" font-family="&quot;Verdana&quot;" font-size="12.5" lengthAdjust="spacing" textLength="46.875" x="376.0417" y="95.9778">Control</text><ellipse cx="402.6042" cy="57.2917" fill="url(#g1a3povb5ehbzl0)" rx="12.5" ry="12.5" style="stroke:#F3F3F3;stroke-width:1.0416666666666667;"/><polygon fill="#F3F3F3" points="398.4375,44.7917,404.6875,39.5833,402.6042,44.7917,404.6875,50,398.4375,44.7917" style="stroke:#F3F3F3;stroke-width:1.0416666666666667;"/><text fill="#336699" font-family="&quot;Verdana&quot;" font-size="12.5" lengthAdjust="spacing" textLength="46.875" x="376.0417" y="500.9257">Control</text><ellipse cx="402.6042" cy="530.957" fill="url(#g1a3povb5ehbzl0)" rx="12.5" ry="12.5" style="stroke:#F3F3F3;stroke-width:1.0416666666666667;"/><polygon fill="#F3F3F3" points="398.4375,518.457,404.6875,513.2487,402.6042,518.457,404.6875,523.6654,398.4375,518.457" style="stroke:#F3F3F3;stroke-width:1.0416666666666667;"/><text fill="#336699" font-family="&quot;Verdana&quot;" font-size="12.5" lengthAdjust="spacing" textLength="36.4583" x="460.4167" y="95.9778">Entity</text><ellipse cx="481.7708" cy="57.2917" fill="url(#g1a3povb5ehbzl0)" rx="12.5" ry="12.5" style="stroke:#F3F3F3;stroke-width:1.0416666666666667;"/><line style="stroke:#F3F3F3;stroke-width:1.0416666666666667;" x1="469.2708" x2="494.2708" y1="71.875" y2="71.875"/><text fill="#336699" font-family="&quot;Verdana&quot;" font-size="12.5" lengthAdjust="spacing" textLength="36.4583" x="460.4167" y="500.9257">Entity</text><ellipse cx="481.7708" cy="530.957" fill="url(#g1a3povb5ehbzl0)" rx="12.5" ry="12.5" style="stroke:#F3F3F3;stroke-width:1.0416666666666667;"/><line style="stroke:#F3F3F3;stroke-width:1.0416666666666667;" x1="469.2708" x2="494.2708" y1="545.5404" y2="545.5404"/><text fill="#336699" font-family="&quot;Verdana&quot;" font-size="12.5" lengthAdjust="spacing" textLength="63.5417" x="534.375" y="95.9778">Database</text><path d="M550.5208,36.4583 C550.5208,26.0417 569.2708,26.0417 569.2708,26.0417 C569.2708,26.0417 588.0208,26.0417 588.0208,36.4583 L588.0208,63.5417 C588.0208,73.9583 569.2708,73.9583 569.2708,73.9583 C569.2708,73.9583 550.5208,73.9583 550.5208,63.5417 L550.5208,36.4583 " fill="none" style="stroke:#F3F3F3;stroke-width:1.5625;"/><path d="M550.5208,36.4583 C550.5208,46.875 569.2708,46.875 569.2708,46.875 C569.2708,46.875 588.0208,46.875 588.0208,36.4583 " fill="none" style="stroke:#F3F3F3;stroke-width:1.5625;"/><text fill="#336699" font-family="&quot;Verdana&quot;" font-size="12.5" lengthAdjust="spacing" textLength="63.5417" x="534.375" y="500.9257">Database</text><path d="M550.5208,524.707 C550.5208,514.2904 569.2708,514.2904 569.2708,514.2904 C569.2708,514.2904 588.0208,514.2904 588.0208,524.707 L588.0208,551.7904 C588.0208,562.207 569.2708,562.207 569.2708,562.207 C569.2708,562.207 550.5208,562.207 550.5208,551.7904 L550.5208,524.707 " fill="none" style="stroke:#F3F3F3;stroke-width:1.5625;"/><path d="M550.5208,524.707 C550.5208,535.1237 569.2708,535.1237 569.2708,535.1237 C569.2708,535.1237 588.0208,535.1237 588.0208,524.707 " fill="none" style="stroke:#F3F3F3;stroke-width:1.5625;"/><rect fill="url(#g1a3povb5ehbzl0)" height="49.9674" rx="7.8125" ry="7.8125" style="stroke:#F3F3F3;stroke-width:1.0416666666666667;" width="106.25" x="660.4167" y="54.1667"/><rect fill="url(#g1a3povb5ehbzl0)" height="49.9674" rx="7.8125" ry="7.8125" style="stroke:#F3F3F3;stroke-width:1.0416666666666667;" width="106.25" x="656.25" y="58.3333"/><text fill="#336699" font-family="&quot;Verdana&quot;" font-size="12.5" lengthAdjust="spacing" textLength="70.8333" x="673.9583" y="87.6444">Collections</text><rect fill="url(#g1a3povb5ehbzl0)" height="49.9674" rx="7.8125" ry="7.8125" style="stroke:#F3F3F3;stroke-width:1.0416666666666667;" width="106.25" x="660.4167" y="478.9063"/><rect fill="url(#g1a3povb5ehbzl0)" height="49.9674" rx="7.8125" ry="7.8125" style="stroke:#F3F3F3;stroke-width:1.0416666666666667;" width="106.25" x="656.25" y="483.0729"/><text fill="#336699" font-family="&quot;Verdana&quot;" font-size="12.5" lengthAdjust="spacing" textLength="70.8333" x="673.9583" y="512.384">Collections</text><path d="M813.5417,63.5417 L887.5,63.5417 C892.7083,63.5417 892.7083,86.4421 892.7083,86.4421 C892.7083,86.4421 892.7083,109.3424 887.5,109.3424 L813.5417,109.3424 C808.3333,109.3424 808.3333,86.4421 808.3333,86.4421 C808.3333,86.4421 808.3333,63.5417 813.5417,63.5417 " fill="url(#g1a3povb5ehbzl0)" style="stroke:#F3F3F3;stroke-width:1.0416666666666667;"/><path d="M887.5,63.5417 C882.2917,63.5417 882.2917,86.4421 882.2917,86.4421 C882.2917,109.3424 887.5,109.3424 887.5,109.3424 " fill="none" style="stroke:#F3F3F3;stroke-width:1.0416666666666667;"/><text fill="#336699" font-family="&quot;Verdana&quot;" font-size="12.5" lengthAdjust="spacing" textLength="42.7083" x="823.9583" y="90.7694">Queue</text><path d="M813.5417,478.9063 L887.5,478.9063 C892.7083,478.9063 892.7083,501.8066 892.7083,501.8066 C892.7083,501.8066 892.7083,524.707 887.5,524.707 L813.5417,524.707 C808.3333,524.707 808.3333,501.8066 808.3333,501.8066 C808.3333,501.8066 808.3333,478.9063 813.5417,478.9063 " fill="url(#g1a3povb5ehbzl0)" style="stroke:#F3F3F3;stroke-width:1.0416666666666667;"/><path d="M887.5,478.9063 C882.2917,478.9063 882.2917,501.8066 882.2917,501.8066 C882.2917,524.707 887.5,524.707 887.5,524.707 " fill="none" style="stroke:#F3F3F3;stroke-width:1.0416666666666667;"/><text fill="#336699" font-family="&quot;Verdana&quot;" font-size="12.5" lengthAdjust="spacing" textLength="42.7083" x="823.9583" y="506.134">Queue</text><polygon fill="#E2E2E2" points="213.0208,157.2266,223.4375,161.3932,213.0208,165.5599,217.1875,161.3932" style="stroke:#E2E2E2;stroke-width:1.0416666666666667;"/><line style="stroke:#E2E2E2;stroke-width:3.125;" x1="100" x2="219.2708" y1="161.3932" y2="161.3932"/><text fill="#303030" font-family="&quot;Verdana&quot;" font-size="12.5" lengthAdjust="spacing" textLength="54.1667" x="117.7083" y="145.9452">To actor</text><polygon fill="#E2E2E2" points="298.4375,207.194,308.8542,211.3607,298.4375,215.5273,302.6042,211.3607" style="stroke:#E2E2E2;stroke-width:1.0416666666666667;"/><line style="stroke:#E2E2E2;stroke-width:3.125;" x1="100" x2="304.6875" y1="211.3607" y2="211.3607"/><text fill="#303030" font-family="&quot;Verdana&quot;" font-size="12.5" lengthAdjust="spacing" textLength="81.25" x="117.7083" y="195.9127">To boundary</text><polygon fill="#E2E2E2" points="390.1042,257.1615,400.5208,261.3281,390.1042,265.4948,394.2708,261.3281" style="stroke:#E2E2E2;stroke-width:1.0416666666666667;"/><line style="stroke:#E2E2E2;stroke-width:3.125;" x1="100" x2="396.3542" y1="261.3281" y2="261.3281"/><text fill="#303030" font-family="&quot;Verdana&quot;" font-size="12.5" lengthAdjust="spacing" textLength="65.625" x="117.7083" y="245.8801">To control</text><polygon fill="#E2E2E2" points="469.2708,307.1289,479.6875,311.2956,469.2708,315.4622,473.4375,311.2956" style="stroke:#E2E2E2;stroke-width:1.0416666666666667;"/><line style="stroke:#E2E2E2;stroke-width:3.125;" x1="100" x2="475.5208" y1="311.2956" y2="311.2956"/><text fill="#303030" font-family="&quot;Verdana&quot;" font-size="12.5" lengthAdjust="spacing" textLength="56.25" x="117.7083" y="295.8476">To entity</text><polygon fill="#E2E2E2" points="556.7708,357.0964,567.1875,361.263,556.7708,365.4297,560.9375,361.263" style="stroke:#E2E2E2;stroke-width:1.0416666666666667;"/><line style="stroke:#E2E2E2;stroke-width:3.125;" x1="100" x2="563.0208" y1="361.263" y2="361.263"/><text fill="#303030" font-family="&quot;Verdana&quot;" font-size="12.5" lengthAdjust="spacing" textLength="82.2917" x="117.7083" y="345.815">To database</text><polygon fill="#E2E2E2" points="698.9583,407.0638,709.375,411.2305,698.9583,415.3971,703.125,411.2305" style="stroke:#E2E2E2;stroke-width:1.0416666666666667;"/><line style="stroke:#E2E2E2;stroke-width:3.125;" x1="100" x2="705.2083" y1="411.2305" y2="411.2305"/><text fill="#303030" font-family="&quot;Verdana&quot;" font-size="12.5" lengthAdjust="spacing" textLength="89.5833" x="117.7083" y="395.7825">To collections</text><polygon fill="#E2E2E2" points="838.0208,457.0313,848.4375,461.1979,838.0208,465.3646,842.1875,461.1979" style="stroke:#E2E2E2;stroke-width:1.0416666666666667;"/><line style="stroke:#E2E2E2;stroke-width:3.125;" x1="100" x2="844.2708" y1="461.1979" y2="461.1979"/><text fill="#303030" font-family="&quot;Verdana&quot;" font-size="12.5" lengthAdjust="spacing" textLength="61.4583" x="117.7083" y="445.7499">To queue</text></g></svg>