<?xml version="1.0" encoding="UTF-8" standalone="no"?><svg xmlns="http://www.w3.org/2000/svg" xmlns:xlink="http://www.w3.org/1999/xlink" contentScriptType="application/ecmascript" contentStyleType="text/css" height="253.125px" preserveAspectRatio="none" style="width:427px;height:253px;background:#00000000;" version="1.1" viewBox="0 0 427 253" width="427.0833px" zoomAndPan="magnify"><defs><linearGradient id="gbdaupiv7n3170" x1="50%" x2="50%" y1="0%" y2="100%"><stop offset="0%" stop-color="#F18E3E"/><stop offset="100%" stop-color="#EC7211"/></linearGradient></defs><g><line style="stroke:#ABB6C2;stroke-width:2.0833333333333335;stroke-dasharray:5.0,5.0;" x1="76.0417" x2="76.0417" y1="48.2259" y2="205.9326"/><line style="stroke:#ABB6C2;stroke-width:2.0833333333333335;stroke-dasharray:5.0,5.0;" x1="226.0417" x2="226.0417" y1="48.2259" y2="205.9326"/><line style="stroke:#ABB6C2;stroke-width:2.0833333333333335;stroke-dasharray:5.0,5.0;" x1="383.8542" x2="383.8542" y1="48.2259" y2="205.9326"/><rect fill="url(#gbdaupiv7n3170)" height="41.9759" rx="4.1667" ry="4.1667" style="stroke:#EC7211;stroke-width:1.5625;" width="58.3333" x="46.875" y="5.2083"/><text fill="#FFFFFF" font-family="&quot;Verdana&quot;" font-size="14.5833" lengthAdjust="spacing" textLength="33.3333" x="59.375" y="31.2449">Alice</text><rect fill="url(#gbdaupiv7n3170)" height="41.9759" rx="4.1667" ry="4.1667" style="stroke:#EC7211;stroke-width:1.5625;" width="54.1667" x="198.9583" y="5.2083"/><text fill="#FFFFFF" font-family="&quot;Verdana&quot;" font-size="14.5833" lengthAdjust="spacing" textLength="29.1667" x="211.4583" y="31.2449">Bob</text><rect fill="url(#gbdaupiv7n3170)" height="41.9759" rx="4.1667" ry="4.1667" style="stroke:#EC7211;stroke-width:1.5625;" width="73.9583" x="346.875" y="5.2083"/><text fill="#FFFFFF" font-family="&quot;Verdana&quot;" font-size="14.5833" lengthAdjust="spacing" textLength="48.9583" x="359.375" y="31.2449">Charlie</text><rect fill="url(#gbdaupiv7n3170)" height="41.9759" rx="4.1667" ry="4.1667" style="stroke:#EC7211;stroke-width:1.5625;" width="58.3333" x="46.875" y="205.9326"/><text fill="#FFFFFF" font-family="&quot;Verdana&quot;" font-size="14.5833" lengthAdjust="spacing" textLength="33.3333" x="59.375" y="231.9692">Alice</text><rect fill="url(#gbdaupiv7n3170)" height="41.9759" rx="4.1667" ry="4.1667" style="stroke:#EC7211;stroke-width:1.5625;" width="54.1667" x="198.9583" y="205.9326"/><text fill="#FFFFFF" font-family="&quot;Verdana&quot;" font-size="14.5833" lengthAdjust="spacing" textLength="29.1667" x="211.4583" y="231.9692">Bob</text><rect fill="url(#gbdaupiv7n3170)" height="41.9759" rx="4.1667" ry="4.1667" style="stroke:#EC7211;stroke-width:1.5625;" width="73.9583" x="346.875" y="205.9326"/><text fill="#FFFFFF" font-family="&quot;Verdana&quot;" font-size="14.5833" lengthAdjust="spacing" textLength="48.9583" x="359.375" y="231.9692">Charlie</text><polygon fill="#EC7211" points="213.5417,84.8226,223.9583,88.9893,213.5417,93.1559,217.7083,88.9893" style="stroke:#EC7211;stroke-width:1.0416666666666667;"/><line style="stroke:#EC7211;stroke-width:3.125;" x1="76.0417" x2="219.7917" y1="88.9893" y2="88.9893"/><text fill="#4E5D6C" font-family="&quot;Verdana&quot;" font-size="13.5417" lengthAdjust="spacing" textLength="31.25" x="88.5417" y="78.5039">hello</text><polygon fill="#EC7211" points="371.3542,84.8226,381.7708,88.9893,371.3542,93.1559,375.5208,88.9893" style="stroke:#EC7211;stroke-width:1.0416666666666667;"/><line style="stroke:#EC7211;stroke-width:3.125;" x1="226.0417" x2="377.6042" y1="88.9893" y2="88.9893"/><text fill="#4E5D6C" font-family="&quot;Verdana&quot;" font-size="13.5417" lengthAdjust="spacing" textLength="11.4583" x="238.5417" y="78.5039">hi</text><path d="M63.5417,101.4893 L216.6667,101.4893 L216.6667,119.1976 L206.25,129.6143 L59.375,129.6143 L59.375,105.6559 A4.1667,4.1667 0 0 1 63.5417,101.4893 " fill="#EEEEEE" style="stroke:#4E5D6C;stroke-width:1.0416666666666667;"/><rect fill="none" height="79.4434" rx="4.1667" ry="4.1667" style="stroke:#4E5D6C;stroke-width:2.0833333333333335;" width="341.1458" x="59.375" y="101.4893"/><text fill="#0073BB" font-family="&quot;Verdana&quot;" font-size="13.5417" font-weight="bold" lengthAdjust="spacing" textLength="100" x="80.2083" y="120.3089">A teoz group</text><polygon fill="#EC7211" points="213.5417,168.4326,223.9583,172.5993,213.5417,176.766,217.7083,172.5993" style="stroke:#EC7211;stroke-width:1.0416666666666667;"/><line style="stroke:#EC7211;stroke-width:3.125;" x1="76.0417" x2="219.7917" y1="172.5993" y2="172.5993"/><text fill="#4E5D6C" font-family="&quot;Verdana&quot;" font-size="13.5417" lengthAdjust="spacing" textLength="31.25" x="88.5417" y="162.114">hello</text><polygon fill="#EC7211" points="371.3542,168.4326,381.7708,172.5993,371.3542,176.766,375.5208,172.5993" style="stroke:#EC7211;stroke-width:1.0416666666666667;"/><line style="stroke:#EC7211;stroke-width:3.125;" x1="226.0417" x2="377.6042" y1="172.5993" y2="172.5993"/><text fill="#4E5D6C" font-family="&quot;Verdana&quot;" font-size="13.5417" lengthAdjust="spacing" textLength="16.6667" x="238.5417" y="162.114">ha</text></g></svg>