<svg xmlns="http://www.w3.org/2000/svg" xmlns:xlink="http://www.w3.org/1999/xlink" contentStyleType="text/css" height="1118px" preserveAspectRatio="none" style="width:539px;height:1118px;" version="1.1" viewBox="0 0 539 1118" width="539px" zoomAndPan="magnify"><defs><linearGradient id="g1sqgc5u9aopdj0" x1="50%" x2="50%" y1="0%" y2="100%"><stop offset="0%" stop-color="#F4F4F4"/><stop offset="100%" stop-color="#F4F4F4"/></linearGradient></defs><g><rect fill="#F4F4F4" height="398.7813" style="stroke:#C6C6C6;stroke-width:1.0;" width="10" x="282" y="302.8125"/><rect fill="#F4F4F4" height="239.875" style="stroke:#C6C6C6;stroke-width:1.0;" width="10" x="287" y="358.7813"/><rect fill="#005500" height="117.9375" style="stroke:#C6C6C6;stroke-width:1.0;" width="10" x="292" y="419.75"/><line style="stroke:#C6C6C6;stroke-width:0.5;stroke-dasharray:5.0,5.0;" x1="84.5" x2="84.5" y1="53.9688" y2="829.5313"/><line style="stroke:#C6C6C6;stroke-width:1.0;stroke-dasharray:1.0,4.0;" x1="84.5" x2="84.5" y1="829.5313" y2="877.5313"/><line style="stroke:#C6C6C6;stroke-width:0.5;stroke-dasharray:5.0,5.0;" x1="84.5" x2="84.5" y1="877.5313" y2="945.5"/><line style="stroke:#C6C6C6;stroke-width:1.0;stroke-dasharray:1.0,4.0;" x1="84.5" x2="84.5" y1="945.5" y2="1007.4688"/><line style="stroke:#C6C6C6;stroke-width:0.5;stroke-dasharray:5.0,5.0;" x1="84.5" x2="84.5" y1="1007.4688" y2="1065.4375"/><line style="stroke:#C6C6C6;stroke-width:0.5;stroke-dasharray:5.0,5.0;" x1="287" x2="287" y1="53.9688" y2="829.5313"/><line style="stroke:#C6C6C6;stroke-width:1.0;stroke-dasharray:1.0,4.0;" x1="287" x2="287" y1="829.5313" y2="877.5313"/><line style="stroke:#C6C6C6;stroke-width:0.5;stroke-dasharray:5.0,5.0;" x1="287" x2="287" y1="877.5313" y2="945.5"/><line style="stroke:#C6C6C6;stroke-width:1.0;stroke-dasharray:1.0,4.0;" x1="287" x2="287" y1="945.5" y2="1007.4688"/><line style="stroke:#C6C6C6;stroke-width:0.5;stroke-dasharray:5.0,5.0;" x1="287" x2="287" y1="1007.4688" y2="1065.4375"/><line style="stroke:#C6C6C6;stroke-width:0.5;stroke-dasharray:5.0,5.0;" x1="457" x2="457" y1="472.2344" y2="829.5313"/><line style="stroke:#C6C6C6;stroke-width:1.0;stroke-dasharray:1.0,4.0;" x1="457" x2="457" y1="829.5313" y2="877.5313"/><line style="stroke:#C6C6C6;stroke-width:0.5;stroke-dasharray:5.0,5.0;" x1="457" x2="457" y1="877.5313" y2="945.5"/><line style="stroke:#C6C6C6;stroke-width:1.0;stroke-dasharray:1.0,4.0;" x1="457" x2="457" y1="945.5" y2="1007.4688"/><line style="stroke:#C6C6C6;stroke-width:0.5;stroke-dasharray:5.0,5.0;" x1="457" x2="457" y1="1007.4688" y2="1065.4375"/><rect fill="url(#g1sqgc5u9aopdj0)" height="47.9688" style="stroke:#C6C6C6;stroke-width:0.5;" width="63" x="53.5" y="5"/><text fill="#262626" font-family="sans-serif" font-size="12" lengthAdjust="spacing" textLength="29" x="70.5" y="33.1387">Alice</text><rect fill="url(#g1sqgc5u9aopdj0)" height="47.9688" style="stroke:#C6C6C6;stroke-width:0.5;" width="63" x="53.5" y="1064.4375"/><text fill="#262626" font-family="sans-serif" font-size="12" lengthAdjust="spacing" textLength="29" x="70.5" y="1092.5762">Alice</text><rect fill="url(#g1sqgc5u9aopdj0)" height="47.9688" style="stroke:#C6C6C6;stroke-width:0.5;" width="58" x="258" y="5"/><text fill="#262626" font-family="sans-serif" font-size="12" lengthAdjust="spacing" textLength="24" x="275" y="33.1387">Bob</text><rect fill="url(#g1sqgc5u9aopdj0)" height="47.9688" style="stroke:#C6C6C6;stroke-width:0.5;" width="58" x="258" y="1064.4375"/><text fill="#262626" font-family="sans-serif" font-size="12" lengthAdjust="spacing" textLength="24" x="275" y="1092.5762">Bob</text><rect fill="url(#g1sqgc5u9aopdj0)" height="47.9688" style="stroke:#C6C6C6;stroke-width:0.5;" width="80" x="417" y="1064.4375"/><text fill="#262626" font-family="sans-serif" font-size="12" lengthAdjust="spacing" textLength="46" x="434" y="1092.5762">George</text><rect fill="#F4F4F4" height="398.7813" style="stroke:#C6C6C6;stroke-width:1.0;" width="10" x="282" y="302.8125"/><rect fill="#F4F4F4" height="239.875" style="stroke:#C6C6C6;stroke-width:1.0;" width="10" x="287" y="358.7813"/><rect fill="#005500" height="117.9375" style="stroke:#C6C6C6;stroke-width:1.0;" width="10" x="292" y="419.75"/><path d="M5,68.9688 L5,111.9688 L165,111.9688 L165,78.9688 L155,68.9688 L5,68.9688 " fill="#FFFFFF" style="stroke:#262626;stroke-width:1.0;"/><path d="M155,68.9688 L155,78.9688 L165,78.9688 L155,68.9688 " fill="#FFFFFF" style="stroke:#262626;stroke-width:1.0;"/><text fill="#262626" font-family="sans-serif" font-size="12" lengthAdjust="spacing" textLength="119" x="21" y="95.1074">initial state of Alice</text><path d="M209,68.9688 L209,111.9688 L364,111.9688 L364,78.9688 L354,68.9688 L209,68.9688 " fill="#FFFFFF" style="stroke:#262626;stroke-width:1.0;"/><path d="M354,68.9688 L354,78.9688 L364,78.9688 L354,68.9688 " fill="#FFFFFF" style="stroke:#262626;stroke-width:1.0;"/><text fill="#262626" font-family="sans-serif" font-size="12" lengthAdjust="spacing" textLength="114" x="225" y="95.1074">initial state of Bob</text><rect fill="#F4F4F4" height="3" style="stroke:#F4F4F4;stroke-width:1.0;" width="532" x="0" y="147.9219"/><line style="stroke:#C6C6C6;stroke-width:0.5;" x1="0" x2="532" y1="147.9219" y2="147.9219"/><line style="stroke:#C6C6C6;stroke-width:0.5;" x1="0" x2="532" y1="150.9219" y2="150.9219"/><rect fill="#F4F4F4" height="41.9688" style="stroke:#C6C6C6;stroke-width:1.0;" width="127" x="202.5" y="127.9375"/><text fill="#262626" font-family="sans-serif" font-size="12" font-weight="bold" lengthAdjust="spacing" textLength="89" x="218.5" y="153.0762">Initialization</text><rect fill="none" height="77.9375" style="stroke:#C6C6C6;stroke-width:1.5;" width="328.5" x="20.5" y="179.9063"/><path d="M20.5,179.9063 L105.5,179.9063 L105.5,204.9063 L95.5,214.9063 L20.5,214.9063 L20.5,179.9063 " fill="#F4F4F4" style="stroke:#C6C6C6;stroke-width:2.0;"/><text fill="#262626" font-family="sans-serif" font-size="12" font-weight="bold" lengthAdjust="spacing" textLength="20" x="43.5" y="203.0449">ref</text><text fill="#262626" font-family="sans-serif" font-size="12" lengthAdjust="spacing" textLength="19" x="175.25" y="240.0449">init</text><polygon fill="#C6C6C6" points="270,298.8125,280,302.8125,270,306.8125,274,302.8125" style="stroke:#C6C6C6;stroke-width:1.0;"/><line style="stroke:#C6C6C6;stroke-width:1.0;" x1="85" x2="276" y1="302.8125" y2="302.8125"/><text fill="#262626" font-family="sans-serif" font-size="12" lengthAdjust="spacing" textLength="30" x="102" y="287.9824">hello</text><line style="stroke:#C6C6C6;stroke-width:1.0;" x1="292" x2="339" y1="345.7813" y2="345.7813"/><line style="stroke:#C6C6C6;stroke-width:1.0;" x1="339" x2="339" y1="345.7813" y2="358.7813"/><line style="stroke:#C6C6C6;stroke-width:1.0;" x1="298" x2="339" y1="358.7813" y2="358.7813"/><polygon fill="#C6C6C6" points="308,354.7813,298,358.7813,308,362.7813,304,358.7813" style="stroke:#C6C6C6;stroke-width:1.0;"/><text fill="#262626" font-family="sans-serif" font-size="12" lengthAdjust="spacing" textLength="47" x="314" y="330.9512">self call</text><line style="stroke:#C6C6C6;stroke-width:1.0;" x1="297" x2="344" y1="406.75" y2="406.75"/><line style="stroke:#C6C6C6;stroke-width:1.0;" x1="344" x2="344" y1="406.75" y2="419.75"/><line style="stroke:#C6C6C6;stroke-width:1.0;" x1="303" x2="344" y1="419.75" y2="419.75"/><polygon fill="#C6C6C6" points="313,415.75,303,419.75,313,423.75,309,419.75" style="stroke:#C6C6C6;stroke-width:1.0;"/><text fill="#262626" font-family="sans-serif" font-size="12" lengthAdjust="spacing" textLength="30" x="319" y="391.9199">hello</text><polygon fill="#C6C6C6" points="405,468.7188,415,472.7188,405,476.7188,409,472.7188" style="stroke:#C6C6C6;stroke-width:1.0;"/><line style="stroke:#C6C6C6;stroke-width:1.0;" x1="302" x2="411" y1="472.7188" y2="472.7188"/><text fill="#262626" font-family="sans-serif" font-size="12" lengthAdjust="spacing" textLength="41" x="319" y="457.8887">create</text><rect fill="url(#g1sqgc5u9aopdj0)" height="47.9688" style="stroke:#C6C6C6;stroke-width:0.5;" width="80" x="417" y="432.75"/><text fill="#262626" font-family="sans-serif" font-size="12" lengthAdjust="spacing" textLength="46" x="434" y="460.8887">George</text><line style="stroke:#C6C6C6;stroke-width:1.0;stroke-dasharray:2.0,2.0;" x1="302" x2="344" y1="536.6875" y2="536.6875"/><line style="stroke:#C6C6C6;stroke-width:1.0;stroke-dasharray:2.0,2.0;" x1="344" x2="344" y1="536.6875" y2="549.6875"/><line style="stroke:#C6C6C6;stroke-width:1.0;stroke-dasharray:2.0,2.0;" x1="297" x2="344" y1="549.6875" y2="549.6875"/><polygon fill="#C6C6C6" points="307,545.6875,297,549.6875,307,553.6875,303,549.6875" style="stroke:#C6C6C6;stroke-width:1.0;"/><text fill="#262626" font-family="sans-serif" font-size="12" lengthAdjust="spacing" textLength="32" x="319" y="521.8574">done</text><line style="stroke:#C6C6C6;stroke-width:1.0;stroke-dasharray:2.0,2.0;" x1="297" x2="339" y1="597.6563" y2="597.6563"/><line style="stroke:#C6C6C6;stroke-width:1.0;stroke-dasharray:2.0,2.0;" x1="339" x2="339" y1="597.6563" y2="610.6563"/><line style="stroke:#C6C6C6;stroke-width:1.0;stroke-dasharray:2.0,2.0;" x1="292" x2="339" y1="610.6563" y2="610.6563"/><polygon fill="#C6C6C6" points="302,606.6563,292,610.6563,302,614.6563,298,610.6563" style="stroke:#C6C6C6;stroke-width:1.0;"/><text fill="#262626" font-family="sans-serif" font-size="12" lengthAdjust="spacing" textLength="12" x="314" y="582.8262">rc</text><polygon fill="#C6C6C6" points="445,649.625,455,653.625,445,657.625,449,653.625" style="stroke:#C6C6C6;stroke-width:1.0;"/><line style="stroke:#C6C6C6;stroke-width:1.0;" x1="292" x2="451" y1="653.625" y2="653.625"/><text fill="#262626" font-family="sans-serif" font-size="12" lengthAdjust="spacing" textLength="40" x="309" y="638.7949">delete</text><line style="stroke:#C6C6C6;stroke-width:2.0;" x1="448" x2="466" y1="644.625" y2="662.625"/><line style="stroke:#C6C6C6;stroke-width:2.0;" x1="448" x2="466" y1="662.625" y2="644.625"/><polygon fill="#C6C6C6" points="96,697.5938,86,701.5938,96,705.5938,92,701.5938" style="stroke:#C6C6C6;stroke-width:1.0;"/><line style="stroke:#C6C6C6;stroke-width:1.0;stroke-dasharray:2.0,2.0;" x1="90" x2="286" y1="701.5938" y2="701.5938"/><text fill="#262626" font-family="sans-serif" font-size="12" lengthAdjust="spacing" textLength="51" x="112" y="686.7637">success</text><rect fill="#F4F4F4" height="3" style="stroke:#F4F4F4;stroke-width:1.0;" width="532" x="0" y="739.5781"/><line style="stroke:#C6C6C6;stroke-width:0.5;" x1="0" x2="532" y1="739.5781" y2="739.5781"/><line style="stroke:#C6C6C6;stroke-width:0.5;" x1="0" x2="532" y1="742.5781" y2="742.5781"/><rect fill="#F4F4F4" height="41.9688" style="stroke:#C6C6C6;stroke-width:1.0;" width="141" x="195.5" y="719.5938"/><text fill="#262626" font-family="sans-serif" font-size="12" font-weight="bold" lengthAdjust="spacing" textLength="103" x="211.5" y="744.7324">Delay example</text><polygon fill="#C6C6C6" points="275.21,817.0417,285,821.5313,274.8145,825.0319,279.0073,821.2346" style="stroke:#C6C6C6;stroke-width:1.0;"/><line style="stroke:#C6C6C6;stroke-width:1.0;" x1="85" x2="285" y1="811.5313" y2="821.5313"/><text fill="#262626" font-family="sans-serif" font-size="12" lengthAdjust="spacing" textLength="148" x="102" y="796.7012">Authentication Request</text><polygon fill="#C6C6C6" points="95.79,923.0104,86,927.5,96.1855,931.0007,91.9927,927.2033" style="stroke:#C6C6C6;stroke-width:1.0;"/><line style="stroke:#C6C6C6;stroke-width:1.0;stroke-dasharray:2.0,2.0;" x1="286" x2="85" y1="917.5" y2="927.5"/><text fill="#262626" font-family="sans-serif" font-size="12" lengthAdjust="spacing" textLength="158" x="112" y="902.6699">Authentication Response</text><text fill="#000000" font-family="sans-serif" font-size="12" lengthAdjust="spacing" textLength="95" x="223.5" y="980.6387">5 minutes later</text><polygon fill="#C6C6C6" points="96,1043.4375,86,1047.4375,96,1051.4375,92,1047.4375" style="stroke:#C6C6C6;stroke-width:1.0;"/><line style="stroke:#C6C6C6;stroke-width:1.0;stroke-dasharray:2.0,2.0;" x1="90" x2="286" y1="1047.4375" y2="1047.4375"/><text fill="#262626" font-family="sans-serif" font-size="12" lengthAdjust="spacing" textLength="68" x="112" y="1032.6074">Good Bye !</text></g></svg>