<svg xmlns="http://www.w3.org/2000/svg" xmlns:xlink="http://www.w3.org/1999/xlink" contentStyleType="text/css" height="325px" preserveAspectRatio="none" style="width:322px;height:325px;background:#F9F9F9;" version="1.1" viewBox="0 0 322 325" width="322px" zoomAndPan="magnify"><defs/><g><rect fill="#F9F9F9" height="325" style="stroke:none;stroke-width:1.0;" width="322" x="0" y="0"/><line style="stroke:#191919;stroke-width:1.0;" x1="96" x2="96" y1="185.9609" y2="269.3594"/><polygon fill="#191919" points="92,195.9609,96,185.9609,100,195.9609,96,191.9609" style="stroke:#191919;stroke-width:1.0;"/><polygon fill="#191919" points="92,259.3594,96,269.3594,100,259.3594,96,263.3594" style="stroke:#191919;stroke-width:1.0;"/><text fill="#000000" font-family="sans-serif" font-size="13" lengthAdjust="spacing" textLength="69" x="100" y="232.1606">some time</text><line style="stroke:#393939;stroke-width:0.5;stroke-dasharray:5.0,5.0;" x1="28" x2="28" y1="36.2969" y2="289.3594"/><line style="stroke:#393939;stroke-width:0.5;stroke-dasharray:5.0,5.0;" x1="164" x2="164" y1="36.2969" y2="289.3594"/><line style="stroke:#393939;stroke-width:0.5;stroke-dasharray:5.0,5.0;" x1="286" x2="286" y1="36.2969" y2="289.3594"/><rect fill="#E55756" height="30.2969" rx="3.5" ry="3.5" style="stroke:#191919;stroke-width:1.5;" width="46" x="5" y="5"/><text fill="#F9F9F9" font-family="sans-serif" font-size="14" lengthAdjust="spacing" textLength="32" x="12" y="24.9951">Alice</text><rect fill="#E55756" height="30.2969" rx="3.5" ry="3.5" style="stroke:#191919;stroke-width:1.5;" width="42" x="143" y="5"/><text fill="#F9F9F9" font-family="sans-serif" font-size="14" lengthAdjust="spacing" textLength="28" x="150" y="24.9951">Bob</text><rect fill="#E55756" height="30.2969" rx="3.5" ry="3.5" style="stroke:#191919;stroke-width:1.5;" width="61" x="255.5" y="5"/><text fill="#F9F9F9" font-family="sans-serif" font-size="14" lengthAdjust="spacing" textLength="47" x="262.5" y="24.9951">Charlie</text><rect fill="#E55756" height="30.2969" rx="3.5" ry="3.5" style="stroke:#191919;stroke-width:1.5;" width="46" x="5" y="289.3594"/><text fill="#F9F9F9" font-family="sans-serif" font-size="14" lengthAdjust="spacing" textLength="32" x="12" y="309.3545">Alice</text><rect fill="#E55756" height="30.2969" rx="3.5" ry="3.5" style="stroke:#191919;stroke-width:1.5;" width="42" x="143" y="289.3594"/><text fill="#F9F9F9" font-family="sans-serif" font-size="14" lengthAdjust="spacing" textLength="28" x="150" y="309.3545">Bob</text><rect fill="#E55756" height="30.2969" rx="3.5" ry="3.5" style="stroke:#191919;stroke-width:1.5;" width="61" x="255.5" y="289.3594"/><text fill="#F9F9F9" font-family="sans-serif" font-size="14" lengthAdjust="spacing" textLength="47" x="262.5" y="309.3545">Charlie</text><polygon fill="#191919" points="152,61.4297,162,65.4297,152,69.4297,156,65.4297" style="stroke:#191919;stroke-width:1.0;"/><line style="stroke:#191919;stroke-width:1.0;" x1="28" x2="158" y1="65.4297" y2="65.4297"/><text fill="#000000" font-family="sans-serif" font-size="13" lengthAdjust="spacing" textLength="30" x="35" y="60.3638">hello</text><polygon fill="#191919" points="274,61.4297,284,65.4297,274,69.4297,278,65.4297" style="stroke:#191919;stroke-width:1.0;"/><line style="stroke:#191919;stroke-width:1.0;" x1="164" x2="280" y1="65.4297" y2="65.4297"/><text fill="#000000" font-family="sans-serif" font-size="13" lengthAdjust="spacing" textLength="11" x="171" y="60.3638">hi</text><path d="M15.5,77.4297 L153,77.4297 L153,84.5625 L143,94.5625 L12,94.5625 L12,80.9297 A3.5,3.5 0 0 1 15.5,77.4297 " fill="#EEEEEE" style="stroke:#393939;stroke-width:1.5;"/><rect fill="none" height="56.2656" rx="3.5" ry="3.5" style="stroke:#393939;stroke-width:1.0;" width="290" x="12" y="77.4297"/><text fill="#191919" font-family="sans-serif" font-size="13" font-weight="bold" lengthAdjust="spacing" textLength="96" x="27" y="90.4966">A teoz group</text><polygon fill="#191919" points="152,121.6953,162,125.6953,152,129.6953,156,125.6953" style="stroke:#191919;stroke-width:1.0;"/><line style="stroke:#191919;stroke-width:1.0;" x1="28" x2="158" y1="125.6953" y2="125.6953"/><text fill="#000000" font-family="sans-serif" font-size="13" lengthAdjust="spacing" textLength="30" x="35" y="120.6294">hello</text><polygon fill="#191919" points="274,121.6953,284,125.6953,274,129.6953,278,125.6953" style="stroke:#191919;stroke-width:1.0;"/><line style="stroke:#191919;stroke-width:1.0;" x1="164" x2="280" y1="125.6953" y2="125.6953"/><text fill="#000000" font-family="sans-serif" font-size="13" lengthAdjust="spacing" textLength="16" x="171" y="120.6294">ha</text><polygon fill="#191919" points="152,179.9609,162,183.9609,152,187.9609,156,183.9609" style="stroke:#191919;stroke-width:1.0;"/><line style="stroke:#191919;stroke-width:1.0;" x1="28" x2="158" y1="183.9609" y2="183.9609"/><text fill="#000000" font-family="sans-serif" font-size="13" lengthAdjust="spacing" textLength="112" x="35" y="163.7622">start doing things</text><text fill="#000000" font-family="sans-serif" font-size="13" lengthAdjust="spacing" textLength="97" x="35" y="178.895">during duration</text><polygon fill="#191919" points="274,209.0938,284,213.0938,274,217.0938,278,213.0938" style="stroke:#191919;stroke-width:1.0;"/><line style="stroke:#191919;stroke-width:1.0;" x1="164" x2="280" y1="213.0938" y2="213.0938"/><text fill="#000000" font-family="sans-serif" font-size="13" lengthAdjust="spacing" textLength="68" x="171" y="208.0278">something</text><polygon fill="#191919" points="175,238.2266,165,242.2266,175,246.2266,171,242.2266" style="stroke:#191919;stroke-width:1.0;"/><line style="stroke:#191919;stroke-width:1.0;" x1="169" x2="285" y1="242.2266" y2="242.2266"/><text fill="#000000" font-family="sans-serif" font-size="13" lengthAdjust="spacing" textLength="98" x="181" y="237.1606">something else</text><polygon fill="#191919" points="39,267.3594,29,271.3594,39,275.3594,35,271.3594" style="stroke:#191919;stroke-width:1.0;"/><line style="stroke:#191919;stroke-width:1.0;" x1="33" x2="163" y1="271.3594" y2="271.3594"/><text fill="#000000" font-family="sans-serif" font-size="13" lengthAdjust="spacing" textLength="33" x="45" y="266.2935">finish</text><line style="stroke:#191919;stroke-width:1.0;" x1="96" x2="96" y1="185.9609" y2="269.3594"/><polygon fill="#191919" points="92,195.9609,96,185.9609,100,195.9609,96,191.9609" style="stroke:#191919;stroke-width:1.0;"/><polygon fill="#191919" points="92,259.3594,96,269.3594,100,259.3594,96,263.3594" style="stroke:#191919;stroke-width:1.0;"/><text fill="#000000" font-family="sans-serif" font-size="13" lengthAdjust="spacing" textLength="69" x="100" y="232.1606">some time</text></g></svg>