<svg xmlns="http://www.w3.org/2000/svg" xmlns:xlink="http://www.w3.org/1999/xlink" contentStyleType="text/css" height="966.6667px" preserveAspectRatio="none" style="width:561px;height:966px;" version="1.1" viewBox="0 0 561 966" width="561.4583px" zoomAndPan="magnify"><defs/><g><polygon fill="#4D4D4D" points="288.5417,258.138,288.5417,258.211,290.625,257.9942,292.7083,258.2051,294.7917,258.2768,296.875,257.8903,298.9583,258.138,298.8774,258.138,298.5141,268.5162,298.5589,278.8944,298.8873,289.2726,298.2382,299.6508,299.535,310.029,298.3018,320.4072,298.7523,330.7854,299.4083,341.1636,298.869,351.5418,299.0294,361.92,298.9251,372.2982,299.1443,382.6764,299.2074,393.0546,299.5684,403.4328,299.6573,413.811,299.6659,424.1892,299.2236,434.5674,299.4412,444.9455,299.6898,455.3237,298.2071,465.7019,299.6651,476.0801,298.6495,486.4583,299.5144,496.8365,298.4427,507.2147,298.887,517.5929,299.7308,527.9711,298.9076,538.3493,299.068,548.7275,299.3111,559.1057,299.3919,569.4839,298.9543,579.8621,299.2575,590.2403,298.9583,600.6185,298.9583,600.4197,296.875,600.7172,294.7917,600.8088,292.7083,600.7728,290.625,600.8313,288.5417,600.6185,288.0385,600.6185,287.8623,590.2403,287.8944,579.8621,288.4803,569.4839,288.3369,559.1057,289.2515,548.7275,288.3597,538.3493,288.1843,527.9711,288.7794,517.5929,287.847,507.2147,288.0009,496.8365,289.2177,486.4583,288.9955,476.0801,289.3068,465.7019,288.2065,455.3237,288.8742,444.9455,289.1567,434.5674,288.0496,424.1892,288.4418,413.811,288.6729,403.4328,289.2206,393.0546,288.5373,382.6764,289.0235,372.2982,287.9648,361.92,287.8362,351.5418,289.0663,341.1636,287.7949,330.7854,289.0718,320.4072,288.7569,310.029,288.2626,299.6508,288.1732,289.2726,289.0195,278.8944,288.2299,268.5162,288.5417,258.138" style="stroke:#555555;stroke-width:1.0416666666666667;"/><polygon fill="#4D4D4D" points="293.75,306.0221,293.75,306.0951,295.8333,305.8783,297.9167,306.0892,300,306.1609,302.0833,305.7744,304.1667,306.0221,304.0857,306.0221,303.7224,316.4323,303.7672,326.8424,304.0957,337.2526,303.4465,347.6628,304.7434,358.0729,303.5101,368.4831,303.9607,378.8932,304.6166,389.3034,304.0773,399.7135,304.2377,410.1237,304.1334,420.5339,304.3526,430.944,304.4158,441.3542,304.7768,451.7643,304.8657,462.1745,304.8742,472.5846,304.4319,482.9948,304.6496,493.4049,304.8982,503.8151,304.1667,514.2253,304.1667,513.9748,302.0833,514.4609,300,514.1223,297.9167,514.4106,295.8333,514.0534,293.75,514.2253,293.6786,514.2253,294.5225,503.8151,293.6992,493.4049,293.8597,482.9948,294.1027,472.5846,294.1836,462.1745,293.7459,451.7643,294.0492,441.3542,293.1537,430.944,294.0462,420.5339,294.321,410.1237,294.2131,399.7135,294.3886,389.3034,293.2468,378.8932,293.0706,368.4831,293.1027,358.0729,293.6887,347.6628,293.5453,337.2526,294.4598,326.8424,293.568,316.4323,293.75,306.0221" style="stroke:#555555;stroke-width:1.0416666666666667;"/><polygon fill="#005500" points="298.9583,359.1146,298.9583,359.1876,301.0417,358.9707,303.125,359.1817,305.2083,359.2534,307.2917,358.8669,309.375,359.1146,309.294,359.1146,308.9307,369.3164,308.9755,379.5182,309.304,389.7201,308.6548,399.9219,309.9517,410.1237,308.7185,420.3255,309.169,430.5273,309.8249,440.7292,309.2856,450.931,309.375,461.1328,309.375,461.1565,307.2917,461.1217,305.2083,461.1948,303.125,461.2158,301.0417,461.3362,298.9583,461.1328,299.6573,461.1328,299.6659,450.931,299.2236,440.7292,299.4412,430.5273,299.6898,420.3255,298.2071,410.1237,299.6651,399.9219,298.6495,389.7201,299.5144,379.5182,298.4427,369.3164,298.9583,359.1146" style="stroke:#555555;stroke-width:1.0416666666666667;"/><path d="M93.2292,51.0091 L93.5211,51.0091 L92.6537,61.3536 L93.4976,71.698 L93.7843,82.0424 L92.2383,92.3869 L93.1212,102.7313 L92.6368,113.0758 L92.6965,123.4202 L93.1345,133.7646 L92.2689,144.1091 L93.9981,154.4535 L92.3538,164.798 L92.9545,175.1424 L93.8291,185.4869 L93.11,195.8313 L93.3239,206.1757 L93.1848,216.5202 L93.4771,226.8646 L93.5613,237.2091 L94.0426,247.5535 L94.1612,257.8979 L94.1726,268.2424 L93.5828,278.5868 L93.873,288.9313 L94.2045,299.2757 L92.2275,309.6202 L94.1715,319.9646 L92.8174,330.309 L93.9706,340.6535 L92.5416,350.9979 L93.134,361.3424 L94.2592,371.6868 L93.1615,382.0313 L93.3754,392.3757 L93.6995,402.7201 L93.8073,413.0646 L93.2237,423.409 L93.6281,433.7535 L92.4341,444.0979 L93.6241,454.4423 L93.9905,464.7868 L93.8466,475.1312 L94.0806,485.4757 L92.5582,495.8201 L92.3234,506.1646 L92.3661,516.509 L93.1474,526.8534 L92.9562,537.1979 L94.1756,547.5423 L92.9866,557.8868 L92.7527,568.2312 L93.5462,578.5756 L92.303,588.9201 L92.5082,599.2645 L94.1305,609.609 L93.8343,619.9534 L94.2493,630.2979 L92.7822,640.6423 L93.6725,650.9867 L94.0492,661.3312 L92.573,671.6756 L93.096,682.0201 L93.4041,692.3645 L94.1344,702.7089 L93.2292,713.0534 " fill="none" style="stroke:#555555;stroke-width:1.0416666666666667;stroke-dasharray:5.0,5.0;"/><path d="M93.2292,713.0534 L93.3265,713.0534 L93.0374,720.9701 L93.3187,728.8867 L93.4142,736.8034 L92.8989,744.7201 L93.2292,752.6367 " fill="none" style="stroke:#555555;stroke-width:1.0416666666666667;stroke-dasharray:1.0,4.0;"/><path d="M93.2292,752.6367 L93.5211,752.6367 L92.6537,762.7007 L93.4976,772.7648 L93.7843,782.8288 L92.2383,792.8928 L93.1212,802.9568 L93.2292,813.0208 " fill="none" style="stroke:#555555;stroke-width:1.0416666666666667;stroke-dasharray:5.0,5.0;"/><path d="M93.2292,813.0208 L93.5211,813.0208 L92.6537,823.8477 L93.4976,834.6745 L93.7843,845.5013 L92.2383,856.3281 L93.2292,867.1549 " fill="none" style="stroke:#555555;stroke-width:1.0416666666666667;stroke-dasharray:1.0,4.0;"/><path d="M93.2292,867.1549 L93.5211,867.1549 L92.6537,877.1484 L93.4976,887.1419 L93.7843,897.1354 L92.2383,907.1289 L93.2292,917.1224 " fill="none" style="stroke:#555555;stroke-width:1.0416666666666667;stroke-dasharray:5.0,5.0;"/><path d="M293.75,51.0091 L294.0419,51.0091 L293.1746,61.3536 L294.0185,71.698 L294.3051,82.0424 L292.7592,92.3869 L293.6421,102.7313 L293.1576,113.0758 L293.2174,123.4202 L293.6553,133.7646 L292.7898,144.1091 L294.5189,154.4535 L292.8746,164.798 L293.4753,175.1424 L294.3499,185.4869 L293.6309,195.8313 L293.8448,206.1757 L293.7056,216.5202 L293.998,226.8646 L294.0821,237.2091 L294.5635,247.5535 L294.682,257.8979 L294.6934,268.2424 L294.1036,278.5868 L294.3939,288.9313 L294.7253,299.2757 L292.7484,309.6202 L294.6924,319.9646 L293.3382,330.309 L294.4914,340.6535 L293.0625,350.9979 L293.6549,361.3424 L294.78,371.6868 L293.6823,382.0313 L293.8963,392.3757 L294.2203,402.7201 L294.3281,413.0646 L293.7446,423.409 L294.1489,433.7535 L292.955,444.0979 L294.145,454.4423 L294.5114,464.7868 L294.3674,475.1312 L294.6014,485.4757 L293.0791,495.8201 L292.8442,506.1646 L292.8869,516.509 L293.6682,526.8534 L293.477,537.1979 L294.6964,547.5423 L293.5074,557.8868 L293.2735,568.2312 L294.067,578.5756 L292.8238,588.9201 L293.029,599.2645 L294.6513,609.609 L294.3551,619.9534 L294.7701,630.2979 L293.3031,640.6423 L294.1933,650.9867 L294.57,661.3312 L293.0939,671.6756 L293.6169,682.0201 L293.925,692.3645 L294.6552,702.7089 L293.75,713.0534 " fill="none" style="stroke:#555555;stroke-width:1.0416666666666667;stroke-dasharray:5.0,5.0;"/><path d="M293.75,713.0534 L293.8473,713.0534 L293.5582,720.9701 L293.8395,728.8867 L293.935,736.8034 L293.4197,744.7201 L293.75,752.6367 " fill="none" style="stroke:#555555;stroke-width:1.0416666666666667;stroke-dasharray:1.0,4.0;"/><path d="M293.75,752.6367 L294.0419,752.6367 L293.1746,762.7007 L294.0185,772.7648 L294.3051,782.8288 L292.7592,792.8928 L293.6421,802.9568 L293.75,813.0208 " fill="none" style="stroke:#555555;stroke-width:1.0416666666666667;stroke-dasharray:5.0,5.0;"/><path d="M293.75,813.0208 L294.0419,813.0208 L293.1746,823.8477 L294.0185,834.6745 L294.3051,845.5013 L292.7592,856.3281 L293.75,867.1549 " fill="none" style="stroke:#555555;stroke-width:1.0416666666666667;stroke-dasharray:1.0,4.0;"/><path d="M293.75,867.1549 L294.0419,867.1549 L293.1746,877.1484 L294.0185,887.1419 L294.3051,897.1354 L292.7592,907.1289 L293.75,917.1224 " fill="none" style="stroke:#555555;stroke-width:1.0416666666666667;stroke-dasharray:5.0,5.0;"/><path d="M465.625,408.5775 L465.9169,408.5775 L465.0496,419.0766 L465.8935,429.5758 L466.1801,440.075 L464.6342,450.5742 L465.5171,461.0733 L465.0326,471.5725 L465.0924,482.0717 L465.5303,492.5708 L464.6648,503.07 L466.3939,513.5692 L464.7496,524.0683 L465.3503,534.5675 L466.2249,545.0667 L465.5059,555.5658 L465.7198,566.065 L465.5806,576.5642 L465.873,587.0634 L465.9571,597.5625 L466.4385,608.0617 L466.557,618.5609 L466.5684,629.06 L465.9786,639.5592 L466.2689,650.0584 L466.6003,660.5575 L464.6234,671.0567 L466.5674,681.5559 L465.2132,692.055 L466.3664,702.5542 L465.625,713.0534 " fill="none" style="stroke:#555555;stroke-width:1.0416666666666667;stroke-dasharray:5.0,5.0;"/><path d="M465.625,713.0534 L465.7223,713.0534 L465.4332,720.9701 L465.7145,728.8867 L465.81,736.8034 L465.2947,744.7201 L465.625,752.6367 " fill="none" style="stroke:#555555;stroke-width:1.0416666666666667;stroke-dasharray:1.0,4.0;"/><path d="M465.625,752.6367 L465.9169,752.6367 L465.0496,762.7007 L465.8935,772.7648 L466.1801,782.8288 L464.6342,792.8928 L465.5171,802.9568 L465.625,813.0208 " fill="none" style="stroke:#555555;stroke-width:1.0416666666666667;stroke-dasharray:5.0,5.0;"/><path d="M465.625,813.0208 L465.9169,813.0208 L465.0496,823.8477 L465.8935,834.6745 L466.1801,845.5013 L464.6342,856.3281 L465.625,867.1549 " fill="none" style="stroke:#555555;stroke-width:1.0416666666666667;stroke-dasharray:1.0,4.0;"/><path d="M465.625,867.1549 L465.9169,867.1549 L465.0496,877.1484 L465.8935,887.1419 L466.1801,897.1354 L464.6342,907.1289 L465.625,917.1224 " fill="none" style="stroke:#555555;stroke-width:1.0416666666666667;stroke-dasharray:5.0,5.0;"/><polygon fill="none" points="70.3125,10.4167,70.3125,10.6356,79.6875,9.9851,89.0625,10.618,98.4375,10.833,107.8125,9.6735,117.1875,10.4167,117.1772,10.3917,117.7201,10.5239,118.3151,10.7818,118.9462,11.127,119.4527,11.1712,120.1338,11.6371,120.3114,11.7106,120.1757,12.1426,120.5585,12.7893,121.0046,13.4622,121.0826,13.9827,121.3542,14.5833,121.3779,14.5833,121.3431,20.8268,121.4162,27.0703,121.4372,33.3138,121.5575,39.5573,121.3542,45.8008,121.5694,45.8899,121.328,46.4803,120.9477,47.0131,120.7706,47.6301,120.6031,48.2511,120.1338,48.7471,120.0379,48.5157,119.6347,49.2088,118.9159,49.1401,118.4369,49.6505,117.711,49.5646,117.1875,49.9674,117.1875,49.8961,107.8125,50.74,98.4375,49.9167,89.0625,50.0771,79.6875,50.3202,70.3125,49.9674,70.3678,50.101,69.7227,49.7221,69.1722,49.5714,68.4687,49.0516,67.9933,49.0824,67.3662,48.7471,67.5421,48.8199,67.2647,48.2169,67.0747,47.65,66.479,46.9151,66.1807,46.3034,66.1458,45.8008,65.9301,45.8008,66.1254,39.5573,66.0776,33.3138,66.3824,27.0703,66.0852,20.8268,66.1458,14.5833,66.0358,14.5377,66.4631,14.0244,66.4201,13.3162,66.7115,12.7466,67.3303,12.3125,67.3662,11.6371,67.4241,11.7768,68.0531,11.6286,68.502,11.0457,69.1764,11.0072,69.8017,10.8501,70.3125,10.4167" style="stroke:#333333;stroke-width:1.0416666666666667;"/><text fill="#2E2E2E" font-family="Segoe Print" font-size="12.5" lengthAdjust="spacing" textLength="30.2083" x="78.6458" y="34.5194">Alice</text><polygon fill="none" points="70.3125,916.0807,70.3125,916.2997,79.6875,915.6491,89.0625,916.2821,98.4375,916.4971,107.8125,915.3376,117.1875,916.0807,117.1772,916.0558,117.7201,916.188,118.3151,916.4459,118.9462,916.7911,119.4527,916.8353,120.1338,917.3011,120.3114,917.3747,120.1757,917.8066,120.5585,918.4534,121.0046,919.1263,121.0826,919.6467,121.3542,920.2474,121.3779,920.2474,121.3431,926.4909,121.4162,932.7344,121.4372,938.9779,121.5575,945.2214,121.3542,951.4648,121.5694,951.554,121.328,952.1444,120.9477,952.6772,120.7706,953.2942,120.6031,953.9152,120.1338,954.4111,120.0379,954.1798,119.6347,954.8729,118.9159,954.8042,118.4369,955.3146,117.711,955.2286,117.1875,955.6315,117.1875,955.5602,107.8125,956.404,98.4375,955.5807,89.0625,955.7412,79.6875,955.9842,70.3125,955.6315,70.3678,955.765,69.7227,955.3862,69.1722,955.2355,68.4687,954.7157,67.9933,954.7464,67.3662,954.4111,67.5421,954.484,67.2647,953.8809,67.0747,953.3141,66.479,952.5792,66.1807,951.9674,66.1458,951.4648,65.9301,951.4648,66.1254,945.2214,66.0776,938.9779,66.3824,932.7344,66.0852,926.4909,66.1458,920.2474,66.0358,920.2018,66.4631,919.6885,66.4201,918.9803,66.7115,918.4106,67.3303,917.9766,67.3662,917.3011,67.4241,917.4409,68.0531,917.2927,68.502,916.7097,69.1764,916.6713,69.8017,916.5142,70.3125,916.0807" style="stroke:#333333;stroke-width:1.0416666666666667;"/><text fill="#2E2E2E" font-family="Segoe Print" font-size="12.5" lengthAdjust="spacing" textLength="30.2083" x="78.6458" y="940.1835">Alice</text><polygon fill="none" points="272.9167,10.4167,272.9167,10.4896,281.25,10.2728,289.5833,10.4838,297.9167,10.5554,306.25,10.169,314.5833,10.4167,314.573,10.3917,315.1159,10.5239,315.7109,10.7818,316.342,11.127,316.8485,11.1712,317.5296,11.6371,317.7072,11.7106,317.5715,12.1426,317.9543,12.7893,318.4004,13.4622,318.4784,13.9827,318.75,14.5833,318.7737,14.5833,318.7389,20.8268,318.812,27.0703,318.833,33.3138,318.9534,39.5573,318.75,45.8008,318.9653,45.8899,318.7238,46.4803,318.3435,47.0131,318.1665,47.6301,317.999,48.2511,317.5296,48.7471,317.4338,48.5157,317.0305,49.2088,316.3117,49.1401,315.8328,49.6505,315.1068,49.5646,314.5833,49.9674,314.5833,49.9437,306.25,50.2249,297.9167,49.9505,289.5833,50.004,281.25,50.085,272.9167,49.9674,272.972,50.101,272.3269,49.7221,271.7763,49.5714,271.0728,49.0516,270.5974,49.0824,269.9704,48.7471,270.1462,48.8199,269.8689,48.2169,269.6789,47.65,269.0832,46.9151,268.7849,46.3034,268.75,45.8008,268.5342,45.8008,268.7296,39.5573,268.6818,33.3138,268.9866,27.0703,268.6893,20.8268,268.75,14.5833,268.64,14.5377,269.0673,14.0244,269.0242,13.3162,269.3157,12.7466,269.9345,12.3125,269.9704,11.6371,270.0283,11.7768,270.6572,11.6286,271.1061,11.0457,271.7806,11.0072,272.4059,10.8501,272.9167,10.4167" style="stroke:#333333;stroke-width:1.0416666666666667;"/><text fill="#2E2E2E" font-family="Segoe Print" font-size="12.5" lengthAdjust="spacing" textLength="25" x="281.25" y="34.5194">Bob</text><polygon fill="none" points="272.9167,916.0807,272.9167,916.1537,281.25,915.9369,289.5833,916.1478,297.9167,916.2195,306.25,915.833,314.5833,916.0807,314.573,916.0558,315.1159,916.188,315.7109,916.4459,316.342,916.7911,316.8485,916.8353,317.5296,917.3011,317.7072,917.3747,317.5715,917.8066,317.9543,918.4534,318.4004,919.1263,318.4784,919.6467,318.75,920.2474,318.7737,920.2474,318.7389,926.4909,318.812,932.7344,318.833,938.9779,318.9534,945.2214,318.75,951.4648,318.9653,951.554,318.7238,952.1444,318.3435,952.6772,318.1665,953.2942,317.999,953.9152,317.5296,954.4111,317.4338,954.1798,317.0305,954.8729,316.3117,954.8042,315.8328,955.3146,315.1068,955.2286,314.5833,955.6315,314.5833,955.6077,306.25,955.889,297.9167,955.6146,289.5833,955.6681,281.25,955.7491,272.9167,955.6315,272.972,955.765,272.3269,955.3862,271.7763,955.2355,271.0728,954.7157,270.5974,954.7464,269.9704,954.4111,270.1462,954.484,269.8689,953.8809,269.6789,953.3141,269.0832,952.5792,268.7849,951.9674,268.75,951.4648,268.5342,951.4648,268.7296,945.2214,268.6818,938.9779,268.9866,932.7344,268.6893,926.4909,268.75,920.2474,268.64,920.2018,269.0673,919.6885,269.0242,918.9803,269.3157,918.4106,269.9345,917.9766,269.9704,917.3011,270.0283,917.4409,270.6572,917.2927,271.1061,916.7097,271.7806,916.6713,272.4059,916.5142,272.9167,916.0807" style="stroke:#333333;stroke-width:1.0416666666666667;"/><text fill="#2E2E2E" font-family="Segoe Print" font-size="12.5" lengthAdjust="spacing" textLength="25" x="281.25" y="940.1835">Bob</text><polygon fill="none" points="433.3333,916.0807,433.3333,916.2997,444.0972,915.6491,454.8611,916.2821,465.625,916.4971,476.3889,915.3376,487.1528,915.9998,497.9167,916.0807,497.86,915.9439,498.455,916.2018,499.0861,916.547,499.5926,916.5912,500.3473,917.2346,500.8629,917.3011,500.6608,917.2174,501.0436,917.8641,501.4897,918.537,501.5677,919.0575,501.8611,919.6672,502.0833,920.2474,502.0722,920.2474,502.1453,926.4909,502.1664,932.7344,502.2867,938.9779,502.3163,945.2214,502.0833,951.4648,502.3012,951.5551,501.9209,952.0879,501.7439,952.705,501.5764,953.3259,500.8757,953.726,500.8629,954.4111,500.9531,954.6288,500.2343,954.5601,499.7554,955.0705,499.0294,954.9846,498.4968,955.3655,497.9167,955.6315,497.9167,956.404,487.1528,955.5807,476.3889,955.7412,465.625,955.9842,454.8611,956.0651,444.0972,955.6274,433.3333,955.6315,433.3715,955.7236,432.668,955.2038,432.1926,955.2346,431.6384,955.0751,431.0354,954.7978,430.3871,954.4111,430.5837,954.4926,429.988,953.7577,429.6897,953.146,429.4555,952.5608,429.3919,952.0463,429.1667,951.4648,429.0984,951.4648,429.4033,945.2214,429.106,938.9779,429.0476,932.7344,429.2459,926.4909,429.1667,920.2474,428.9528,920.1588,429.2442,919.5892,429.863,919.1551,430.0387,918.5375,430.3786,917.988,430.3871,917.3011,430.3443,917.1979,431.0187,917.1594,431.644,917.0024,432.0921,916.4173,432.7313,916.2941,433.3333,916.0807" style="stroke:#333333;stroke-width:1.0416666666666667;"/><text fill="#2E2E2E" font-family="Segoe Print" font-size="12.5" lengthAdjust="spacing" textLength="47.9167" x="441.6667" y="940.1835">George</text><polygon fill="#4D4D4D" points="288.5417,258.138,288.5417,258.211,290.625,257.9942,292.7083,258.2051,294.7917,258.2768,296.875,257.8903,298.9583,258.138,298.8774,258.138,298.5141,268.5162,298.5589,278.8944,298.8873,289.2726,298.2382,299.6508,299.535,310.029,298.3018,320.4072,298.7523,330.7854,299.4083,341.1636,298.869,351.5418,299.0294,361.92,298.9251,372.2982,299.1443,382.6764,299.2074,393.0546,299.5684,403.4328,299.6573,413.811,299.6659,424.1892,299.2236,434.5674,299.4412,444.9455,299.6898,455.3237,298.2071,465.7019,299.6651,476.0801,298.6495,486.4583,299.5144,496.8365,298.4427,507.2147,298.887,517.5929,299.7308,527.9711,298.9076,538.3493,299.068,548.7275,299.3111,559.1057,299.3919,569.4839,298.9543,579.8621,299.2575,590.2403,298.9583,600.6185,298.9583,600.4197,296.875,600.7172,294.7917,600.8088,292.7083,600.7728,290.625,600.8313,288.5417,600.6185,288.0385,600.6185,287.8623,590.2403,287.8944,579.8621,288.4803,569.4839,288.3369,559.1057,289.2515,548.7275,288.3597,538.3493,288.1843,527.9711,288.7794,517.5929,287.847,507.2147,288.0009,496.8365,289.2177,486.4583,288.9955,476.0801,289.3068,465.7019,288.2065,455.3237,288.8742,444.9455,289.1567,434.5674,288.0496,424.1892,288.4418,413.811,288.6729,403.4328,289.2206,393.0546,288.5373,382.6764,289.0235,372.2982,287.9648,361.92,287.8362,351.5418,289.0663,341.1636,287.7949,330.7854,289.0718,320.4072,288.7569,310.029,288.2626,299.6508,288.1732,289.2726,289.0195,278.8944,288.2299,268.5162,288.5417,258.138" style="stroke:#555555;stroke-width:1.0416666666666667;"/><polygon fill="#4D4D4D" points="293.75,306.0221,293.75,306.0951,295.8333,305.8783,297.9167,306.0892,300,306.1609,302.0833,305.7744,304.1667,306.0221,304.0857,306.0221,303.7224,316.4323,303.7672,326.8424,304.0957,337.2526,303.4465,347.6628,304.7434,358.0729,303.5101,368.4831,303.9607,378.8932,304.6166,389.3034,304.0773,399.7135,304.2377,410.1237,304.1334,420.5339,304.3526,430.944,304.4158,441.3542,304.7768,451.7643,304.8657,462.1745,304.8742,472.5846,304.4319,482.9948,304.6496,493.4049,304.8982,503.8151,304.1667,514.2253,304.1667,513.9748,302.0833,514.4609,300,514.1223,297.9167,514.4106,295.8333,514.0534,293.75,514.2253,293.6786,514.2253,294.5225,503.8151,293.6992,493.4049,293.8597,482.9948,294.1027,472.5846,294.1836,462.1745,293.7459,451.7643,294.0492,441.3542,293.1537,430.944,294.0462,420.5339,294.321,410.1237,294.2131,399.7135,294.3886,389.3034,293.2468,378.8932,293.0706,368.4831,293.1027,358.0729,293.6887,347.6628,293.5453,337.2526,294.4598,326.8424,293.568,316.4323,293.75,306.0221" style="stroke:#555555;stroke-width:1.0416666666666667;"/><polygon fill="#005500" points="298.9583,359.1146,298.9583,359.1876,301.0417,358.9707,303.125,359.1817,305.2083,359.2534,307.2917,358.8669,309.375,359.1146,309.294,359.1146,308.9307,369.3164,308.9755,379.5182,309.304,389.7201,308.6548,399.9219,309.9517,410.1237,308.7185,420.3255,309.169,430.5273,309.8249,440.7292,309.2856,450.931,309.375,461.1328,309.375,461.1565,307.2917,461.1217,305.2083,461.1948,303.125,461.2158,301.0417,461.3362,298.9583,461.1328,299.6573,461.1328,299.6659,450.931,299.2236,440.7292,299.4412,430.5273,299.6898,420.3255,298.2071,410.1237,299.6651,399.9219,298.6495,389.7201,299.5144,379.5182,298.4427,369.3164,298.9583,359.1146" style="stroke:#555555;stroke-width:1.0416666666666667;"/><path d="M15.625,70.8008 L15.8196,70.8008 L15.2414,76.0091 L15.804,81.2174 L15.9951,86.4258 L14.9644,91.6341 L15.625,96.8424 L19.7917,101.0091 L19.7917,100.7932 L30.3571,99.8244 L40.9226,99.9438 L51.4881,100.8198 L62.0536,99.0886 L72.619,102.547 L83.1845,99.2583 L93.75,100.4598 L104.3155,102.209 L114.881,100.7708 L125.4464,101.1987 L136.0119,100.9204 L146.5774,101.505 L157.1429,101.6734 L167.7083,101.0091 L171.875,96.8424 L172.4173,96.8424 L172.4963,92.8841 L172.5039,88.9258 L172.1108,84.9674 L172.3042,81.0091 L171.875,77.0508 L172.3348,77.5106 L169.3195,74.4953 L168.1526,73.3284 L165.4309,70.6067 L163.8912,69.0669 L161.4583,66.6341 L161.4583,65.2591 L151.3393,66.4438 L141.2202,68.6941 L131.1012,66.4987 L120.9821,66.9266 L110.8631,67.5747 L100.744,67.7903 L90.625,66.6233 L80.506,67.4319 L70.3869,65.0441 L60.2679,67.4241 L50.1488,68.1569 L40.0298,67.8689 L29.9107,68.337 L19.7917,66.6341 L15.625,70.8008 " fill="#17A2B8" style="stroke:#1592A6;stroke-width:1.0416666666666667;"/><path d="M161.4583,66.6341 L161.011,66.6341 L160.8545,68.3008 L160.883,69.9674 L161.4038,71.6341 L161.2764,73.3008 L161.4583,74.9674 L163.5417,77.0508 L163.5417,77.6817 L165.2083,76.889 L166.875,76.7331 L168.5417,77.2621 L170.2083,76.4333 L171.875,77.0508 L171.5351,76.7109 L170.2166,75.3923 L167.9936,73.1694 L166.1059,71.2817 L163.331,68.5068 L161.4583,66.6341 " fill="#17A2B8" style="stroke:#1592A6;stroke-width:1.0416666666666667;"/><text fill="#FFFFFF" font-family="Segoe Print" font-size="12.5" lengthAdjust="spacing" textLength="123.9583" x="27.0833" y="88.6536">initial state of Alice</text><path d="M217.7083,70.8008 L217.9029,70.8008 L217.3247,76.0091 L217.8873,81.2174 L218.0784,86.4258 L217.0478,91.6341 L217.7083,96.8424 L221.875,101.0091 L221.875,100.7932 L232.0685,99.8244 L242.2619,99.9438 L252.4554,100.8198 L262.6488,99.0886 L272.8423,102.547 L283.0357,99.2583 L293.2292,100.4598 L303.4226,102.209 L313.6161,100.7708 L323.8095,101.1987 L334.003,100.9204 L344.1964,101.505 L354.3899,101.6734 L364.5833,101.0091 L368.75,96.8424 L369.2923,96.8424 L369.3713,92.8841 L369.3789,88.9258 L368.9858,84.9674 L369.1792,81.0091 L368.75,77.0508 L369.2098,77.5106 L366.1945,74.4953 L365.0276,73.3284 L362.3059,70.6067 L360.7662,69.0669 L358.3333,66.6341 L358.3333,65.2591 L347.8365,66.4438 L337.3397,68.6941 L326.8429,66.4987 L316.3462,66.9266 L305.8494,67.5747 L295.3526,67.7903 L284.8558,66.6233 L274.359,67.4319 L263.8622,65.0441 L253.3654,67.4241 L242.8686,68.1569 L232.3718,67.8689 L221.875,66.6341 L217.7083,70.8008 " fill="#17A2B8" style="stroke:#1592A6;stroke-width:1.0416666666666667;"/><path d="M358.3333,66.6341 L358.9009,66.6341 L357.886,68.3008 L357.7295,69.9674 L357.758,71.6341 L358.2788,73.3008 L358.3333,74.9674 L360.4167,77.0508 L360.4167,76.8688 L362.0833,77.6817 L363.75,76.889 L365.4167,76.7331 L367.0833,77.2621 L368.75,77.0508 L368.3134,76.6142 L366.3268,74.6276 L365.0082,73.309 L362.7852,71.086 L360.8976,69.1983 L358.3333,66.6341 " fill="#17A2B8" style="stroke:#1592A6;stroke-width:1.0416666666666667;"/><text fill="#FFFFFF" font-family="Segoe Print" font-size="12.5" lengthAdjust="spacing" textLength="118.75" x="229.1667" y="88.6536">initial state of Bob</text><polygon fill="#555555" points="14.5833,133.252,14.5833,133.4709,24.9796,132.8204,35.3758,133.4533,45.7721,133.6683,56.1683,132.5088,66.5645,133.171,76.9608,132.8077,87.357,132.8525,97.7533,133.181,108.1495,132.5318,118.5458,133.8287,128.942,132.5954,139.3382,133.0459,149.7345,133.7019,160.1307,133.1626,170.527,133.323,180.9232,133.2187,191.3194,133.4379,201.7157,133.5011,212.1119,133.862,222.5082,133.951,232.9044,133.9595,243.3007,133.5172,253.6969,133.7349,264.0931,133.9834,274.4894,132.5007,284.8856,133.9587,295.2819,132.9431,305.6781,133.808,316.0743,132.7363,326.4706,133.1806,336.8668,134.0245,347.2631,133.2012,357.6593,133.3616,368.0556,133.6047,378.4518,133.6855,388.848,133.2479,399.2443,133.5511,409.6405,132.6557,420.0368,133.5482,430.433,133.823,440.8292,133.715,451.2255,133.8905,461.6217,132.7487,472.018,132.5726,482.4142,132.6047,492.8105,133.1906,503.2067,133.0472,513.6029,133.9618,523.9992,133.07,534.3954,132.8946,544.7917,133.252,544.8038,133.3303,545.3454,133.1147,545.9425,133.2569,546.594,133.7492,547.1719,133.7676,547.7379,133.7096,547.9091,133.8987,547.907,133.8477,548.3005,134.2337,548.6078,134.5245,548.6042,134.4719,548.9583,134.8145,548.936,134.7898,548.7436,135.0679,548.6221,135.4242,548.2251,135.4763,548.0898,135.8174,547.7379,135.9193,547.7084,135.7293,547.1126,135.7785,546.5863,136.2752,545.932,135.9479,545.408,136.4601,544.7917,136.377,544.7917,136.5922,534.3954,136.0979,523.9992,136.0084,513.6029,136.8548,503.2067,136.0651,492.8105,136.9935,482.4142,135.8012,472.018,137.0201,461.6217,136.8814,451.2255,136.6321,440.8292,136.4261,430.433,137.1338,420.0368,137.0161,409.6405,136.5533,399.2443,136.6563,388.848,136.2413,378.4518,137.1233,368.0556,136.5383,357.6593,136.5567,347.2631,135.7433,336.8668,135.9548,326.4706,136.9298,316.0743,136.8246,305.6781,136.3322,295.2819,136.0414,284.8856,136.1489,274.4894,135.6622,264.0931,136.809,253.6969,137.1473,243.3007,136.9253,232.9044,137.1008,222.5082,136.2345,212.1119,136.4678,201.7157,135.9732,191.3194,136.6728,180.9232,136.634,170.527,136.9524,160.1307,136.1377,149.7345,136.2369,139.3382,136.8389,128.942,136.9679,118.5458,135.8431,108.1495,136.175,97.7533,136.5324,87.357,135.7407,76.9608,136.7451,66.5645,136.6457,56.1683,136.272,45.7721,136.5251,35.3758,137.136,24.9796,136.051,14.5833,136.377,14.6001,136.485,14.0093,136.3834,13.411,136.2336,12.8231,136.1507,12.2324,136.0498,11.6371,135.9193,11.4916,135.7586,11.2996,135.5952,11.0413,135.3586,10.9197,135.2728,10.6813,135.0581,10.4167,134.8145,10.4544,134.8561,10.5929,134.5186,10.8891,134.3551,11.1209,134.1206,11.5274,134.0791,11.6371,133.7096,11.6598,133.856,12.2004,133.4515,12.8117,133.5015,13.3741,133.237,14.0094,133.4424,14.5833,133.252" style="stroke:#555555;stroke-width:1.0416666666666667;"/><path d="M10.4167,133.252 L10.4167,133.5439 L20.7732,132.6765 L31.1298,133.5204 L41.4864,133.8071 L51.8429,132.2611 L62.1995,133.144 L72.5561,132.6596 L82.9127,132.7193 L93.2692,133.1573 L103.6258,132.2917 L113.9824,134.0209 L124.3389,132.3766 L134.6955,132.9773 L145.0521,133.8519 L155.4087,133.1328 L165.7652,133.3467 L176.1218,133.2076 L186.4784,133.4999 L196.8349,133.5841 L207.1915,134.0654 L217.5481,134.184 L227.9046,134.1954 L238.2612,133.6056 L248.6178,133.8958 L258.9744,134.2273 L269.3309,132.2503 L279.6875,134.1943 L290.0441,132.8401 L300.4006,133.9934 L310.7572,132.5644 L321.1138,133.1568 L331.4704,134.282 L341.8269,133.1843 L352.1835,133.3982 L362.5401,133.7223 L372.8966,133.8301 L383.2532,133.2465 L393.6098,133.6509 L403.9663,132.4569 L414.3229,133.6469 L424.6795,134.0133 L435.0361,133.8694 L445.3926,134.1034 L455.7492,132.581 L466.1058,132.3461 L476.4623,132.3889 L486.8189,133.1702 L497.1755,132.979 L507.5321,134.1984 L517.8886,133.0093 L528.2452,132.7755 L538.6018,133.569 L548.9583,133.252 " fill="#555555" style="stroke:#555555;stroke-width:1.0416666666666667;"/><path d="M10.4167,136.377 L10.4167,136.6689 L20.7732,135.8015 L31.1298,136.6454 L41.4864,136.9321 L51.8429,135.3861 L62.1995,136.269 L72.5561,135.7846 L82.9127,135.8443 L93.2692,136.2823 L103.6258,135.4167 L113.9824,137.1459 L124.3389,135.5016 L134.6955,136.1023 L145.0521,136.9769 L155.4087,136.2578 L165.7652,136.4717 L176.1218,136.3326 L186.4784,136.6249 L196.8349,136.7091 L207.1915,137.1904 L217.5481,137.309 L227.9046,137.3204 L238.2612,136.7306 L248.6178,137.0208 L258.9744,137.3523 L269.3309,135.3753 L279.6875,137.3193 L290.0441,135.9651 L300.4006,137.1184 L310.7572,135.6894 L321.1138,136.2818 L331.4704,137.407 L341.8269,136.3093 L352.1835,136.5232 L362.5401,136.8473 L372.8966,136.9551 L383.2532,136.3715 L393.6098,136.7759 L403.9663,135.5819 L414.3229,136.7719 L424.6795,137.1383 L435.0361,136.9944 L445.3926,137.2284 L455.7492,135.706 L466.1058,135.4711 L476.4623,135.5139 L486.8189,136.2952 L497.1755,136.104 L507.5321,137.3234 L517.8886,136.1343 L528.2452,135.9005 L538.6018,136.694 L548.9583,136.377 " fill="#555555" style="stroke:#555555;stroke-width:1.0416666666666667;"/><polygon fill="#555555" points="222.9167,117.6432,222.9167,117.8622,233.2386,117.2116,243.5606,117.8446,253.8826,118.0596,264.2045,116.9001,274.5265,117.5623,284.8485,117.199,295.1705,117.2438,305.4924,117.5722,315.8144,116.9231,326.1364,118.2199,336.4583,117.6432,336.3746,117.441,337.0213,117.8239,337.6942,118.2699,338.2147,118.3479,338.8244,118.6414,339.4046,118.8636,339.3944,118.8594,339.706,119.4766,339.9695,120.0739,340.3247,120.7092,340.5962,121.3098,340.625,121.8099,340.8609,121.8099,340.7134,126.8034,340.786,131.7969,340.8688,136.7904,340.3746,141.7839,340.625,146.7773,340.8427,146.8675,340.2858,147.3272,340.3081,148.0268,339.734,148.4793,339.6267,149.1253,339.4046,149.7236,339.5032,149.9615,338.8089,149.9521,338.2401,150.2456,337.6818,150.5645,337.1029,150.8335,336.4583,150.944,336.4583,150.9399,326.1364,151.2432,315.8144,150.3477,305.4924,151.2402,295.1705,151.515,284.8485,151.4071,274.5265,151.5826,264.2045,150.4408,253.8826,150.2647,243.5606,150.2967,233.2386,150.8827,222.9167,150.944,222.8906,150.881,222.418,150.9185,221.7149,150.3998,221.1033,150.1017,220.59,150.0409,219.9704,149.7236,219.7565,149.635,219.5598,149.0654,219.6904,148.6313,219.3779,148.0137,219.2297,147.4642,218.75,146.7773,218.6383,146.7773,218.8608,141.7839,218.955,136.7904,218.586,131.7969,218.7167,126.8034,218.75,121.8099,218.7904,121.8266,219.2032,121.3072,219.2368,120.6308,219.6306,120.1036,219.5487,119.3793,219.9704,118.8636,219.8804,118.6464,220.6266,118.7811,221.0536,118.1455,221.8058,118.2947,222.3549,117.9536,222.9167,117.6432" style="stroke:#555555;stroke-width:2.0833333333333335;"/><text fill="#FFFFFF" font-family="Segoe Print" font-size="12.5" font-weight="bold" lengthAdjust="spacing" textLength="92.7083" x="230.2083" y="138.621">Initialization</text><polygon fill="none" points="25.5208,161.3607,25.5208,161.5796,35.9538,160.9291,46.3867,161.562,56.8197,161.777,67.2526,160.6176,77.6855,161.2797,88.1185,160.9164,98.5514,160.9612,108.9844,161.2897,119.4173,160.6405,129.8503,161.9374,140.2832,160.7041,150.7161,161.1547,161.1491,161.8106,171.582,161.2713,182.015,161.4318,192.4479,161.3274,202.8809,161.5466,213.3138,161.6098,223.7467,161.9708,234.1797,162.0597,244.6126,162.0682,255.0456,161.6259,265.4785,161.8436,275.9115,162.0922,286.3444,160.6094,296.7773,162.0675,307.2103,161.0518,317.6432,161.9167,328.0762,160.845,338.5091,161.2893,348.9421,162.1332,359.375,161.3607,359.3685,161.345,359.9782,161.6385,360.5985,161.9575,361.1981,162.2264,361.7315,162.3357,362.3213,162.5811,362.4134,162.6192,362.3817,163.0943,362.9007,163.7974,363.2294,164.4217,363.4402,164.9972,363.5417,165.5273,364.1802,165.5273,363.0385,175.931,362.8623,186.3346,362.8944,196.7383,363.4803,207.1419,363.5417,217.5456,363.4786,217.5195,363.5162,218.2254,362.9975,218.7009,362.6994,219.2678,362.6386,219.9329,362.3213,220.4919,362.2327,220.2779,361.663,220.5694,361.229,221.1882,360.6114,221.3638,360.0619,221.7038,359.375,221.7122,359.375,221.377,348.9421,222.0447,338.5091,222.3273,328.0762,221.2201,317.6432,221.6124,307.2103,221.8435,296.7773,222.3912,286.3444,221.7079,275.9115,222.1941,265.4785,221.1354,255.0456,221.0068,244.6126,222.2368,234.1797,220.9654,223.7467,222.2424,213.3138,221.9275,202.8809,221.4332,192.4479,221.3437,182.015,222.1901,171.582,221.4004,161.1491,222.3288,150.7161,221.1365,140.2832,222.3554,129.8503,222.2167,119.4173,221.9674,108.9844,221.7614,98.5514,222.4691,88.1185,222.3514,77.6855,221.8885,67.2526,221.9916,56.8197,221.5765,46.3867,222.4585,35.9538,221.8736,25.5208,221.7122,25.5438,221.7676,24.8507,221.273,24.2885,221.0941,23.8236,221.1503,23.2209,220.8738,22.5746,220.4919,22.5608,220.4861,22.2271,219.8598,22.0162,219.2842,21.6222,218.6329,21.7313,218.1899,21.3542,217.5456,22.1245,217.5456,21.9025,207.1419,22.0781,196.7383,21.2117,186.3346,21.445,175.931,21.3542,165.5273,21.2298,165.4758,21.6894,164.9758,21.9215,164.3816,22.2636,163.833,22.2568,163.1398,22.5746,162.5811,22.5567,162.5379,23.2227,162.4792,23.8285,162.2749,24.2742,161.6844,24.9058,161.5426,25.5208,161.3607" style="stroke:#555555;stroke-width:1.0416666666666667;"/><path d="M25.5208,161.3607 L25.5208,161.9445 L36.0863,160.2098 L46.6518,161.8976 L57.2173,162.4709 L67.7827,159.379 L78.3482,161.1448 L88.9137,160.176 L99.4792,161.3607 L99.1241,161.3607 L99.4161,164.4857 L98.839,167.6107 L99.9918,170.7357 L98.8956,173.8607 L99.4792,176.9857 L99.3497,176.8562 L97.6786,179.3518 L95.2563,181.0962 L93.2738,183.2804 L91.1249,185.2981 L89.0625,187.4023 L89.0625,187.8982 L79.3899,188.0666 L69.7173,189.0293 L60.0446,189.2664 L50.372,189.2892 L40.6994,188.1096 L31.0268,188.6901 L21.3542,187.4023 L22.0044,187.4023 L20.6864,183.0273 L21.9824,178.6523 L21.0796,174.2773 L21.8484,169.9023 L21.3542,165.5273 L25.5208,161.3607 " fill="#555555" style="stroke:#555555;stroke-width:1.0416666666666667;"/><text fill="#555555" font-family="Segoe Print" font-size="12.5" font-weight="bold" lengthAdjust="spacing" textLength="20.8333" x="40.1042" y="180.2551">ref</text><text fill="#555555" font-family="Segoe Print" font-size="12.5" lengthAdjust="spacing" textLength="19.7917" x="182.5521" y="208.3801">init</text><polygon fill="#333333" points="276.0417,253.9714,276.0688,254.0391,278.0716,254.6711,280.2333,255.7003,282.3432,256.6002,284.283,257.0747,286.4583,258.138,286.4483,258.113,284.32,258.8339,282.2422,259.6811,280.1995,260.616,278.0358,261.2485,276.0417,262.3047,276.1776,262.4406,276.7203,261.3166,277.6598,260.5895,278.6477,259.9107,279.3539,258.9503,280.2083,258.138,280.2251,258.1548,279.3672,257.2968,278.5855,256.5152,277.767,255.6967,277.0188,254.9485,276.0417,253.9714" style="stroke:#333333;stroke-width:1.0416666666666667;"/><path d="M93.75,258.138 L93.75,258.4299 L104.2245,257.5626 L114.6991,258.4065 L125.1736,258.6931 L135.6481,257.1472 L146.1227,258.0301 L156.5972,257.5457 L167.0718,257.6054 L177.5463,258.0434 L188.0208,257.1778 L198.4954,258.907 L208.9699,257.2626 L219.4444,257.8633 L229.919,258.7379 L240.3935,258.0189 L250.8681,258.2328 L261.3426,258.0936 L271.8171,258.386 L282.2917,258.138 " fill="none" style="stroke:#333333;stroke-width:3.125;"/><text fill="#2E2E2E" font-family="Segoe Print" font-size="12.5" lengthAdjust="spacing" textLength="31.25" x="106.25" y="247.8984">hello</text><path d="M298.9583,292.4805 L298.9583,292.7724 L308.75,291.905 L318.5417,292.7489 L328.3333,293.0356 L338.125,291.4896 L347.9167,292.4805 " fill="none" style="stroke:#333333;stroke-width:3.125;"/><path d="M347.9167,292.4805 L348.014,292.4805 L347.7249,295.1888 L348.0062,297.8971 L348.1017,300.6055 L347.5864,303.3138 L347.9167,306.0221 " fill="none" style="stroke:#333333;stroke-width:3.125;"/><path d="M305.2083,306.0221 L305.2083,306.1194 L313.75,305.8303 L322.2917,306.1116 L330.8333,306.2072 L339.375,305.6919 L347.9167,306.0221 " fill="none" style="stroke:#333333;stroke-width:3.125;"/><polygon fill="#333333" points="315.625,301.8555,315.6521,301.9232,313.4882,302.5552,311.4833,303.5844,309.4265,304.4843,307.1997,304.9588,305.2083,306.0221,305.1983,305.9971,307.2367,306.718,309.3255,307.5652,311.4495,308.5002,313.4525,309.1326,315.625,310.1888,315.7609,310.3247,314.6369,309.2007,313.9098,308.4736,313.2311,307.7949,312.2706,306.8344,311.4583,306.0221,311.4751,306.0389,312.2838,305.181,313.1688,304.3993,314.017,303.5808,314.9355,302.8326,315.625,301.8555" style="stroke:#333333;stroke-width:1.0416666666666667;"/><text fill="#2E2E2E" font-family="Segoe Print" font-size="12.5" lengthAdjust="spacing" textLength="48.9583" x="316.6667" y="282.2408">self call</text><path d="M304.1667,345.5729 L304.1667,345.8648 L313.9583,344.9975 L323.75,345.8414 L333.5417,346.128 L343.3333,344.5821 L353.125,345.5729 " fill="none" style="stroke:#333333;stroke-width:3.125;"/><path d="M353.125,345.5729 L353.2223,345.5729 L352.9332,348.2813 L353.2145,350.9896 L353.31,353.6979 L352.7947,356.4063 L353.125,359.1146 " fill="none" style="stroke:#333333;stroke-width:3.125;"/><path d="M310.4167,359.1146 L310.4167,359.2119 L318.9583,358.9228 L327.5,359.2041 L336.0417,359.2996 L344.5833,358.7843 L353.125,359.1146 " fill="none" style="stroke:#333333;stroke-width:3.125;"/><polygon fill="#333333" points="320.8333,354.9479,320.8604,355.0157,318.6966,355.6477,316.6916,356.6769,314.6349,357.5768,312.408,358.0513,310.4167,359.1146,310.4066,359.0895,312.445,359.8104,314.5339,360.6576,316.6579,361.5926,318.6608,362.225,320.8333,363.2813,320.9693,363.4172,319.8453,362.2932,319.1181,361.566,318.4394,360.8873,317.4789,359.9269,316.6667,359.1146,316.6834,359.1313,317.4922,358.2734,318.3772,357.4917,319.2254,356.6733,320.1438,355.9251,320.8333,354.9479" style="stroke:#333333;stroke-width:1.0416666666666667;"/><text fill="#2E2E2E" font-family="Segoe Print" font-size="12.5" lengthAdjust="spacing" textLength="31.25" x="321.875" y="335.3333">hello</text><polygon fill="#333333" points="416.6667,399.707,416.6938,399.7748,418.6966,400.4068,420.8583,401.436,422.9682,402.3359,424.908,402.8104,427.0833,403.8737,427.0733,403.8486,424.945,404.5695,422.8672,405.4167,420.8245,406.3517,418.6608,406.9841,416.6667,408.0404,416.8026,408.1763,417.3453,407.0523,418.2848,406.3251,419.2727,405.6464,419.9789,404.686,420.8333,403.8737,420.8501,403.8905,419.9922,403.0325,419.2105,402.2509,418.392,401.4324,417.6438,400.6842,416.6667,399.707" style="stroke:#333333;stroke-width:1.0416666666666667;"/><path d="M309.375,403.8737 L309.375,404.1656 L319.697,403.2983 L330.0189,404.1422 L340.3409,404.4288 L350.6629,402.8829 L360.9848,403.7658 L371.3068,403.2813 L381.6288,403.3411 L391.9508,403.779 L402.2727,402.9135 L412.5947,404.6426 L422.9167,403.8737 " fill="none" style="stroke:#333333;stroke-width:3.125;"/><text fill="#2E2E2E" font-family="Segoe Print" font-size="12.5" lengthAdjust="spacing" textLength="42.7083" x="321.875" y="393.634">create</text><polygon fill="none" points="433.3333,372.6563,433.3333,372.8752,444.0972,372.2247,454.8611,372.8576,465.625,373.0726,476.3889,371.9131,487.1528,372.5753,497.9167,372.6563,497.86,372.5194,498.455,372.7773,499.0861,373.1225,499.5926,373.1667,500.3473,373.8102,500.8629,373.8766,500.6608,373.7929,501.0436,374.4396,501.4897,375.1125,501.5677,375.633,501.8611,376.2427,502.0833,376.8229,502.0722,376.8229,502.1453,383.0664,502.1664,389.3099,502.2867,395.5534,502.3163,401.7969,502.0833,408.0404,502.3012,408.1306,501.9209,408.6635,501.7439,409.2805,501.5764,409.9014,500.8757,410.3016,500.8629,410.9866,500.9531,411.2043,500.2343,411.1356,499.7554,411.646,499.0294,411.5601,498.4968,411.941,497.9167,412.207,497.9167,412.9795,487.1528,412.1563,476.3889,412.3167,465.625,412.5598,454.8611,412.6406,444.0972,412.203,433.3333,412.207,433.3715,412.2992,432.668,411.7793,432.1926,411.8101,431.6384,411.6507,431.0354,411.3733,430.3871,410.9866,430.5837,411.0681,429.988,410.3332,429.6897,409.7215,429.4555,409.1363,429.3919,408.6218,429.1667,408.0404,429.0984,408.0404,429.4033,401.7969,429.106,395.5534,429.0476,389.3099,429.2459,383.0664,429.1667,376.8229,428.9528,376.7343,429.2442,376.1647,429.863,375.7306,430.0387,375.113,430.3786,374.5635,430.3871,373.8766,430.3443,373.7734,431.0187,373.735,431.644,373.5779,432.0921,372.9929,432.7313,372.8696,433.3333,372.6563" style="stroke:#333333;stroke-width:1.0416666666666667;"/><text fill="#2E2E2E" font-family="Segoe Print" font-size="12.5" lengthAdjust="spacing" textLength="47.9167" x="441.6667" y="396.759">George</text><path d="M309.375,460.0911 L309.375,460.1885 L318.125,459.8993 L326.875,460.1806 L335.625,460.2762 L344.375,459.7609 L353.125,460.0911 " fill="none" style="stroke:#333333;stroke-width:3.125;stroke-dasharray:2.0,2.0;"/><path d="M353.125,460.0911 L353.2223,460.0911 L352.9332,462.7995 L353.2145,465.5078 L353.31,468.2161 L352.7947,470.9245 L353.125,473.6328 " fill="none" style="stroke:#333333;stroke-width:3.125;stroke-dasharray:2.0,2.0;"/><path d="M304.1667,473.6328 L304.1667,473.9247 L313.9583,473.0574 L323.75,473.9013 L333.5417,474.1879 L343.3333,472.642 L353.125,473.6328 " fill="none" style="stroke:#333333;stroke-width:3.125;stroke-dasharray:2.0,2.0;"/><polygon fill="#333333" points="314.5833,469.4661,314.6104,469.5339,312.4466,470.1659,310.4416,471.1951,308.3849,472.095,306.158,472.5695,304.1667,473.6328,304.1566,473.6078,306.195,474.3286,308.2839,475.1758,310.4079,476.1108,312.4108,476.7433,314.5833,477.7995,314.7193,477.9354,313.5953,476.8114,312.8681,476.0843,312.1894,475.4055,311.2289,474.4451,310.4167,473.6328,310.4334,473.6496,311.2422,472.7916,312.1272,472.01,312.9754,471.1915,313.8938,470.4433,314.5833,469.4661" style="stroke:#333333;stroke-width:1.0416666666666667;"/><text fill="#2E2E2E" font-family="Segoe Print" font-size="12.5" lengthAdjust="spacing" textLength="33.3333" x="321.875" y="449.8515">done</text><path d="M304.1667,513.1836 L304.1667,513.2809 L312.9167,512.9918 L321.6667,513.2731 L330.4167,513.3686 L339.1667,512.8533 L347.9167,513.1836 " fill="none" style="stroke:#333333;stroke-width:3.125;stroke-dasharray:2.0,2.0;"/><path d="M347.9167,513.1836 L348.014,513.1836 L347.7249,515.8919 L348.0062,518.6003 L348.1017,521.3086 L347.5864,524.0169 L347.9167,526.7253 " fill="none" style="stroke:#333333;stroke-width:3.125;stroke-dasharray:2.0,2.0;"/><path d="M298.9583,526.7253 L298.9583,527.0172 L308.75,526.1498 L318.5417,526.9937 L328.3333,527.2804 L338.125,525.7344 L347.9167,526.7253 " fill="none" style="stroke:#333333;stroke-width:3.125;stroke-dasharray:2.0,2.0;"/><polygon fill="#333333" points="309.375,522.5586,309.4021,522.6264,307.2382,523.2584,305.2333,524.2876,303.1765,525.1874,300.9497,525.6619,298.9583,526.7253,298.9483,526.7002,300.9867,527.4211,303.0755,528.2683,305.1995,529.2033,307.2025,529.8357,309.375,530.8919,309.5109,531.0279,308.3869,529.9038,307.6598,529.1767,306.9811,528.498,306.0206,527.5375,305.2083,526.7253,305.2251,526.742,306.0338,525.8841,306.9188,525.1024,307.767,524.284,308.6855,523.5357,309.375,522.5586" style="stroke:#333333;stroke-width:1.0416666666666667;"/><text fill="#2E2E2E" font-family="Segoe Print" font-size="12.5" lengthAdjust="spacing" textLength="12.5" x="316.6667" y="502.9439">rc</text><polygon fill="#333333" points="453.125,556.901,453.1521,556.9688,455.1549,557.6008,457.3166,558.63,459.4265,559.5299,461.3663,560.0044,463.5417,561.0677,463.5316,561.0427,461.4033,561.7635,459.3255,562.6107,457.2829,563.5457,455.1192,564.1782,453.125,565.2344,453.2609,565.3703,453.8036,564.2463,454.7431,563.5192,455.7311,562.8404,456.4373,561.88,457.2917,561.0677,457.3084,561.0845,456.4505,560.2265,455.6688,559.4449,454.8504,558.6264,454.1021,557.8782,453.125,556.901" style="stroke:#333333;stroke-width:1.0416666666666667;"/><path d="M298.9583,561.0677 L298.9583,561.3596 L309.6528,560.4923 L320.3472,561.3362 L331.0417,561.6228 L341.7361,560.0769 L352.4306,560.9598 L363.125,560.4754 L373.8194,560.5351 L384.5139,560.973 L395.2083,560.1075 L405.9028,561.8367 L416.5972,560.1923 L427.2917,560.793 L437.9861,561.6676 L448.6806,560.9486 L459.375,561.0677 " fill="none" style="stroke:#333333;stroke-width:3.125;"/><text fill="#2E2E2E" font-family="Segoe Print" font-size="12.5" lengthAdjust="spacing" textLength="41.6667" x="311.4583" y="550.828">delete</text><path d="M456.25,551.6927 L456.3188,551.7615 L459.8644,555.3071 L463.8133,559.256 L467.6308,563.0735 L471.0165,566.4592 L475,570.4427 " fill="none" style="stroke:#555555;stroke-width:2.0833333333333335;"/><path d="M456.25,570.4427 L456.3188,570.5115 L459.8644,566.5571 L463.8133,563.006 L467.6308,559.3235 L471.0165,555.2092 L475,551.6927 " fill="none" style="stroke:#555555;stroke-width:2.0833333333333335;"/><polygon fill="#333333" points="105.2083,596.4518,105.2354,596.5196,103.0716,597.1516,101.0666,598.1808,99.0099,599.0807,96.783,599.5552,94.7917,600.6185,94.7816,600.5934,96.82,601.3143,98.9089,602.1615,101.0329,603.0965,103.0358,603.7289,105.2083,604.7852,105.3443,604.9211,104.2203,603.7971,103.4931,603.0699,102.8144,602.3912,101.8539,601.4308,101.0417,600.6185,101.0584,600.6352,101.8672,599.7773,102.7522,598.9957,103.6004,598.1772,104.5188,597.429,105.2083,596.4518" style="stroke:#333333;stroke-width:1.0416666666666667;"/><path d="M98.9583,600.6185 L98.9583,600.9104 L109.1557,600.043 L119.3531,600.8869 L129.5504,601.1736 L139.7478,599.6277 L149.9452,600.5106 L160.1425,600.0261 L170.3399,600.0859 L180.5373,600.5238 L190.7346,599.6583 L200.932,601.3874 L211.1294,599.7431 L221.3268,600.3438 L231.5241,601.2184 L241.7215,600.4994 L251.9189,600.7133 L262.1162,600.5741 L272.3136,600.8664 L282.511,600.9506 L292.7083,600.6185 " fill="none" style="stroke:#333333;stroke-width:3.125;stroke-dasharray:2.0,2.0;"/><text fill="#2E2E2E" font-family="Segoe Print" font-size="12.5" lengthAdjust="spacing" textLength="53.125" x="116.6667" y="590.3788">success</text><polygon fill="#555555" points="14.5833,634.9772,14.5833,635.1962,24.9796,634.5456,35.3758,635.1786,45.7721,635.3935,56.1683,634.2341,66.5645,634.8963,76.9608,634.5329,87.357,634.5777,97.7533,634.9062,108.1495,634.257,118.5458,635.5539,128.942,634.3207,139.3382,634.7712,149.7345,635.4272,160.1307,634.8879,170.527,635.0483,180.9232,634.9439,191.3194,635.1632,201.7157,635.2263,212.1119,635.5873,222.5082,635.6762,232.9044,635.6848,243.3007,635.2424,253.6969,635.4601,264.0931,635.7087,274.4894,634.226,284.8856,635.684,295.2819,634.6684,305.6781,635.5333,316.0743,634.4616,326.4706,634.9059,336.8668,635.7497,347.2631,634.9264,357.6593,635.0869,368.0556,635.33,378.4518,635.4108,388.848,634.9731,399.2443,635.2764,409.6405,634.3809,420.0368,635.2735,430.433,635.5483,440.8292,635.4403,451.2255,635.6158,461.6217,634.474,472.018,634.2979,482.4142,634.3299,492.8105,634.9159,503.2067,634.7725,513.6029,635.687,523.9992,634.7953,534.3954,634.6199,544.7917,634.9772,544.8038,635.0555,545.3454,634.8399,545.9425,634.9822,546.594,635.4745,547.1719,635.4928,547.7379,635.4349,547.9091,635.6239,547.907,635.573,548.3005,635.959,548.6078,636.2497,548.6042,636.1971,548.9583,636.5397,548.936,636.515,548.7436,636.7931,548.6221,637.1494,548.2251,637.2015,548.0898,637.5427,547.7379,637.6446,547.7084,637.4546,547.1126,637.5037,546.5863,638.0004,545.932,637.6732,545.408,638.1853,544.7917,638.1022,544.7917,638.3175,534.3954,637.8231,523.9992,637.7337,513.6029,638.5801,503.2067,637.7904,492.8105,638.7187,482.4142,637.5264,472.018,638.7454,461.6217,638.6067,451.2255,638.3574,440.8292,638.1514,430.433,638.8591,420.0368,638.7414,409.6405,638.2785,399.2443,638.3816,388.848,637.9665,378.4518,638.8485,368.0556,638.2635,357.6593,638.282,347.2631,637.4685,336.8668,637.6801,326.4706,638.6551,316.0743,638.5499,305.6781,638.0575,295.2819,637.7666,284.8856,637.8742,274.4894,637.3874,264.0931,638.5342,253.6969,638.8726,243.3007,638.6505,232.9044,638.8261,222.5082,637.9598,212.1119,638.1931,201.7157,637.6985,191.3194,638.3981,180.9232,638.3593,170.527,638.6776,160.1307,637.863,149.7345,637.9622,139.3382,638.5642,128.942,638.6932,118.5458,637.5683,108.1495,637.9003,97.7533,638.2577,87.357,637.4659,76.9608,638.4703,66.5645,638.371,56.1683,637.9973,45.7721,638.2504,35.3758,638.8613,24.9796,637.7763,14.5833,638.1022,14.6001,638.2103,14.0093,638.1087,13.411,637.9589,12.8231,637.876,12.2324,637.775,11.6371,637.6446,11.4916,637.4839,11.2996,637.3204,11.0413,637.0838,10.9197,636.9981,10.6813,636.7834,10.4167,636.5397,10.4544,636.5813,10.5929,636.2438,10.8891,636.0804,11.1209,635.8459,11.5274,635.8043,11.6371,635.4349,11.6598,635.5812,12.2004,635.1767,12.8117,635.2268,13.3741,634.9622,14.0094,635.1677,14.5833,634.9772" style="stroke:#555555;stroke-width:1.0416666666666667;"/><path d="M10.4167,634.9772 L10.4167,635.2691 L20.7732,634.4018 L31.1298,635.2457 L41.4864,635.5323 L51.8429,633.9864 L62.1995,634.8693 L72.5561,634.3849 L82.9127,634.4446 L93.2692,634.8826 L103.6258,634.017 L113.9824,635.7462 L124.3389,634.1018 L134.6955,634.7025 L145.0521,635.5771 L155.4087,634.8581 L165.7652,635.072 L176.1218,634.9328 L186.4784,635.2252 L196.8349,635.3093 L207.1915,635.7907 L217.5481,635.9092 L227.9046,635.9206 L238.2612,635.3309 L248.6178,635.6211 L258.9744,635.9525 L269.3309,633.9756 L279.6875,635.9196 L290.0441,634.5654 L300.4006,635.7186 L310.7572,634.2897 L321.1138,634.8821 L331.4704,636.0072 L341.8269,634.9095 L352.1835,635.1235 L362.5401,635.4475 L372.8966,635.5553 L383.2532,634.9718 L393.6098,635.3761 L403.9663,634.1822 L414.3229,635.3722 L424.6795,635.7386 L435.0361,635.5946 L445.3926,635.8286 L455.7492,634.3063 L466.1058,634.0714 L476.4623,634.1142 L486.8189,634.8954 L497.1755,634.7043 L507.5321,635.9236 L517.8886,634.7346 L528.2452,634.5008 L538.6018,635.2943 L548.9583,634.9772 " fill="#555555" style="stroke:#555555;stroke-width:1.0416666666666667;"/><path d="M10.4167,638.1022 L10.4167,638.3941 L20.7732,637.5268 L31.1298,638.3707 L41.4864,638.6573 L51.8429,637.1114 L62.1995,637.9943 L72.5561,637.5099 L82.9127,637.5696 L93.2692,638.0076 L103.6258,637.142 L113.9824,638.8712 L124.3389,637.2268 L134.6955,637.8275 L145.0521,638.7021 L155.4087,637.9831 L165.7652,638.197 L176.1218,638.0578 L186.4784,638.3502 L196.8349,638.4343 L207.1915,638.9157 L217.5481,639.0342 L227.9046,639.0456 L238.2612,638.4559 L248.6178,638.7461 L258.9744,639.0775 L269.3309,637.1006 L279.6875,639.0446 L290.0441,637.6904 L300.4006,638.8436 L310.7572,637.4147 L321.1138,638.0071 L331.4704,639.1322 L341.8269,638.0345 L352.1835,638.2485 L362.5401,638.5725 L372.8966,638.6803 L383.2532,638.0968 L393.6098,638.5011 L403.9663,637.3072 L414.3229,638.4972 L424.6795,638.8636 L435.0361,638.7196 L445.3926,638.9536 L455.7492,637.4313 L466.1058,637.1964 L476.4623,637.2392 L486.8189,638.0204 L497.1755,637.8293 L507.5321,639.0486 L517.8886,637.8596 L528.2452,637.6258 L538.6018,638.4193 L548.9583,638.1022 " fill="#555555" style="stroke:#555555;stroke-width:1.0416666666666667;"/><polygon fill="#555555" points="215.625,619.3685,215.625,619.5874,226.3021,618.9369,236.9792,619.5698,247.6563,619.7848,258.3333,618.6254,269.0104,619.2875,279.6875,618.9242,290.3646,618.969,301.0417,619.2975,311.7188,618.6483,322.3958,619.9452,333.0729,618.7119,343.75,619.3685,343.7237,619.305,344.3967,619.7511,344.9171,619.8291,345.5268,620.1226,346.1028,620.3346,346.6963,620.5889,346.7535,620.6126,347.0171,621.2099,347.3723,621.8452,347.6438,622.4458,347.8905,623.0362,347.9167,623.5352,348.0051,623.5352,348.0776,628.5286,348.1605,633.5221,347.6663,638.5156,348.1523,643.5091,347.9167,648.5026,347.8216,648.4632,347.8438,649.1628,347.2697,649.6153,347.1625,650.2613,347.1783,650.9582,346.6963,651.4489,346.6898,651.4332,346.121,651.7267,345.5628,652.0457,344.9838,652.3146,344.3387,652.4239,343.75,652.6693,343.75,652.9685,333.0729,652.073,322.3958,652.9655,311.7188,653.2403,301.0417,653.1323,290.3646,653.3078,279.6875,652.1661,269.0104,651.9899,258.3333,652.022,247.6563,652.6079,236.9792,652.4646,226.3021,653.3791,215.625,652.6693,215.6018,652.6132,214.9902,652.3151,214.4768,652.2543,213.7686,651.7231,213.199,651.5264,212.6787,651.4489,212.8869,651.5351,212.5744,650.9175,212.4262,650.368,211.8433,649.6384,211.8048,649.1343,211.4583,648.5026,211.6633,648.5026,211.2943,643.5091,211.425,638.5156,211.5021,633.5221,211.6846,628.5286,211.4583,623.5352,211.457,623.5346,211.8508,623.0074,211.7688,622.2831,211.9733,621.6774,212.5962,621.2451,212.6787,620.5889,212.5835,620.3589,213.3356,620.5081,213.8847,620.167,214.4109,619.7707,214.9887,619.4991,215.625,619.3685" style="stroke:#555555;stroke-width:2.0833333333333335;"/><text fill="#FFFFFF" font-family="Segoe Print" font-size="12.5" font-weight="bold" lengthAdjust="spacing" textLength="107.2917" x="222.9167" y="640.3463">Delay example</text><polygon fill="#333333" points="281.4808,700.0172,281.5114,700.0835,283.4577,700.8272,285.5833,701.9593,287.6505,702.9649,289.5257,703.5546,291.6667,704.7201,291.658,704.6945,289.495,705.3037,287.376,706.0417,285.2875,706.8692,283.0938,707.3882,281.0474,708.3393,281.1761,708.4821,281.7764,707.3878,282.7525,706.7105,283.7744,706.0841,284.5296,705.1617,285.4251,704.395,285.4427,704.4108,284.628,703.512,283.8935,702.6854,283.1202,701.8239,282.4208,701.0289,281.4808,700.0172" style="stroke:#333333;stroke-width:1.0416666666666667;"/><path d="M93.75,694.3034 L93.7653,694.5949 L104.1364,694.277 L114.5974,695.668 L125.0292,696.5025 L135.3646,695.5069 L145.8277,696.9368 L156.2189,697.0013 L166.6387,697.6092 L177.0784,698.5948 L187.4495,698.2787 L197.9571,700.5537 L208.2873,699.4599 L218.7356,700.608 L229.1982,702.0297 L239.5771,701.8599 L250.005,702.6217 L260.4143,703.031 L270.8464,703.8712 L281.2675,704.5035 L291.6667,704.7201 " fill="none" style="stroke:#333333;stroke-width:3.125;"/><text fill="#2E2E2E" font-family="Segoe Print" font-size="12.5" lengthAdjust="spacing" textLength="154.1667" x="106.25" y="684.0637">Authentication Request</text><polygon fill="#333333" points="104.9775,789.568,105.0081,789.6343,102.88,790.378,100.9313,791.5101,98.9242,792.5157,96.725,793.1054,94.7917,794.2708,94.783,794.2453,96.8678,794.8545,98.9964,795.5925,101.1556,796.42,103.2097,796.939,105.411,797.8901,105.5396,798.0329,104.3889,796.9386,103.6139,796.2613,102.8847,795.6349,101.8888,794.7125,101.0332,793.9458,101.0508,793.9616,101.8138,793.0628,102.657,792.2361,103.4615,791.3747,104.3397,790.5797,104.9775,789.568" style="stroke:#333333;stroke-width:1.0416666666666667;"/><path d="M292.7083,783.8542 L292.7236,784.1457 L282.2068,783.8278 L271.7794,785.2187 L261.3229,786.0533 L250.7706,785.0577 L240.3452,786.4876 L229.8484,786.5521 L219.38,787.16 L208.9315,788.1456 L198.4147,787.8295 L188.0336,790.1045 L177.4762,789.0107 L167.0361,790.1588 L156.6103,791.5805 L146.1012,791.4106 L135.6409,792.1725 L125.1622,792.5818 L114.7059,793.422 L104.2389,794.0543 L93.75,794.2708 " fill="none" style="stroke:#333333;stroke-width:3.125;stroke-dasharray:2.0,2.0;"/><text fill="#2E2E2E" font-family="Segoe Print" font-size="12.5" lengthAdjust="spacing" textLength="164.5833" x="116.6667" y="773.6145">Authentication Response</text><text fill="#2E2E2E" font-family="Segoe Print" font-size="12.5" lengthAdjust="spacing" textLength="98.9583" x="230.2083" y="844.4153">5 minutes later</text><polygon fill="#333333" points="105.2083,894.2057,105.2354,894.2735,103.0716,894.9055,101.0666,895.9347,99.0099,896.8346,96.783,897.3091,94.7917,898.3724,94.7816,898.3473,96.82,899.0682,98.9089,899.9154,101.0329,900.8504,103.0358,901.4828,105.2083,902.5391,105.3443,902.675,104.2203,901.551,103.4931,900.8238,102.8144,900.1451,101.8539,899.1847,101.0417,898.3724,101.0584,898.3891,101.8672,897.5312,102.7522,896.7496,103.6004,895.9311,104.5188,895.1829,105.2083,894.2057" style="stroke:#333333;stroke-width:1.0416666666666667;"/><path d="M98.9583,898.3724 L98.9583,898.6643 L109.1557,897.797 L119.3531,898.6408 L129.5504,898.9275 L139.7478,897.3816 L149.9452,898.2645 L160.1425,897.78 L170.3399,897.8398 L180.5373,898.2777 L190.7346,897.4122 L200.932,899.1413 L211.1294,897.497 L221.3268,898.0977 L231.5241,898.9723 L241.7215,898.2533 L251.9189,898.4672 L262.1162,898.328 L272.3136,898.6203 L282.511,898.7045 L292.7083,898.3724 " fill="none" style="stroke:#333333;stroke-width:3.125;stroke-dasharray:2.0,2.0;"/><text fill="#2E2E2E" font-family="Segoe Print" font-size="12.5" lengthAdjust="spacing" textLength="70.8333" x="116.6667" y="888.1327">Good Bye !</text></g></svg>