<?xml version="1.0" encoding="UTF-8" standalone="no"?><svg xmlns="http://www.w3.org/2000/svg" xmlns:xlink="http://www.w3.org/1999/xlink" contentScriptType="application/ecmascript" contentStyleType="text/css" height="590px" preserveAspectRatio="none" style="width:339px;height:590px;background:#003153;" version="1.1" viewBox="0 0 339 590" width="339px" zoomAndPan="magnify"><defs/><g><rect fill="#003153" height="35.6094" style="stroke:#003153;stroke-width:0.0;" width="215" x="57.75" y="10"/><text fill="#D9D3D0" font-family="Verdana" font-size="22" font-weight="bold" lengthAdjust="spacing" textLength="205" x="62.75" y="35.4209">blueprint theme</text><polygon fill="#003153" points="228.5,144.6094,240.5,156.6094,228.5,168.6094,216.5,156.6094,228.5,144.6094" style="stroke:#D9D3D0;stroke-width:1.0;"/><rect fill="#D9D3D0" height="8" style="stroke:none;stroke-width:1.0;" width="80" x="96.5" y="236.6094"/><rect fill="#D9D3D0" height="8" style="stroke:none;stroke-width:1.0;" width="80" x="104.5" y="459.6094"/><ellipse cx="266.5" cy="246.6094" rx="10" ry="10" style="stroke:#D9D3D0;stroke-width:1.0;fill:none;"/><ellipse cx="267" cy="247.1094" fill="#D9D3D0" rx="6" ry="6" style="stroke:none;stroke-width:1.0;"/><ellipse cx="228.5" cy="62.6094" fill="#D9D3D0" rx="10" ry="10" style="stroke:none;stroke-width:1.0;"/><g id="State1"><rect fill="#003153" height="50" rx="12.5" ry="12.5" style="stroke:#D9D3D0;stroke-width:1.5;" width="65" x="12" y="446.6094"/><line style="stroke:#D9D3D0;stroke-width:1.5;" x1="12" x2="77" y1="472.9063" y2="472.9063"/><text fill="#D9D3D0" font-family="Verdana" font-size="14" lengthAdjust="spacing" textLength="45" x="22" y="464.6045">State1</text></g><g id="State2"><rect fill="#003153" height="50" rx="12.5" ry="12.5" style="stroke:#D9D3D0;stroke-width:1.5;" width="65" x="114" y="328.6094"/><line style="stroke:#D9D3D0;stroke-width:1.5;" x1="114" x2="179" y1="354.9063" y2="354.9063"/><text fill="#D9D3D0" font-family="Verdana" font-size="14" lengthAdjust="spacing" textLength="45" x="124" y="346.6045">State2</text></g><ellipse cx="92.5" cy="574.6094" rx="10" ry="10" style="stroke:#D9D3D0;stroke-width:1.0;fill:none;"/><ellipse cx="93" cy="575.1094" fill="#D9D3D0" rx="6" ry="6" style="stroke:none;stroke-width:1.0;"/><path d="M228.5,76.6451 C228.5,93.9186 228.5,127.1545 228.5,144.4833 " fill="none" style="stroke:#A80036;stroke-width:1.0;"/><polygon fill="#A80036" points="228.5,144.4833,232.5,135.4833,228.5,139.4833,224.5,135.4833,228.5,144.4833" style="stroke:#A80036;stroke-width:1.0;"/><text fill="#000000" font-family="Verdana" font-size="13" lengthAdjust="spacing" textLength="64" x="229.5" y="107.6763">from start</text><text fill="#000000" font-family="Verdana" font-size="13" lengthAdjust="spacing" textLength="58" x="232.5" y="122.8091">to choice</text><path d="M216.2632,157.371 C196.0294,157.7219 156.001,161.7263 137.5,186.6094 C126.7565,201.0589 129.8407,223.2174 133.1254,236.4744 " fill="none" style="stroke:#A80036;stroke-width:1.0;"/><polygon fill="#A80036" points="133.1254,236.4744,134.8435,226.7766,131.9229,231.6212,127.0783,228.7005,133.1254,236.4744" style="stroke:#A80036;stroke-width:1.0;"/><text fill="#000000" font-family="Verdana" font-size="13" lengthAdjust="spacing" textLength="75" x="138.5" y="199.6763">from choice</text><text fill="#000000" font-family="Verdana" font-size="13" lengthAdjust="spacing" textLength="41" x="155.5" y="214.8091">to fork</text><path d="M231.3545,168.7294 C240.7225,207.8059 267.0269,341.1787 214.5,428.6094 C205.9606,442.8232 190.6053,452.8176 176.4479,459.4804 " fill="none" style="stroke:#A80036;stroke-width:1.0;"/><polygon fill="#A80036" points="176.4479,459.4804,186.2945,459.2672,180.972,457.3512,182.8879,452.0287,176.4479,459.4804" style="stroke:#A80036;stroke-width:1.0;"/><text fill="#000000" font-family="Verdana" font-size="13" lengthAdjust="spacing" textLength="75" x="247.5" y="291.6763">from choice</text><text fill="#000000" font-family="Verdana" font-size="13" lengthAdjust="spacing" textLength="39" x="265.5" y="306.8091">to join</text><path d="M234.1499,168.8114 C236.7831,174.1562 239.9013,180.6676 242.5,186.6094 C249.979,203.7093 257.7251,223.9344 262.3268,236.2627 " fill="none" style="stroke:#A80036;stroke-width:1.0;"/><polygon fill="#A80036" points="262.3268,236.2627,262.927,226.4321,260.5783,231.5784,255.4321,229.2297,262.3268,236.2627" style="stroke:#A80036;stroke-width:1.0;"/><text fill="#000000" font-family="Verdana" font-size="13" lengthAdjust="spacing" textLength="75" x="256.5" y="199.6763">from choice</text><text fill="#000000" font-family="Verdana" font-size="13" lengthAdjust="spacing" textLength="41" x="273.5" y="214.8091">to end</text><path d="M114.979,260.7287 C92.6163,273.6375 58.9131,297.2351 44.5,328.6094 C26.9533,366.8047 32.7794,417.1106 38.6282,446.4528 " fill="none" style="stroke:#A80036;stroke-width:1.0;"/><polygon fill="#A80036" points="38.6282,446.4528,40.7917,436.8445,37.6508,441.5493,32.946,438.4084,38.6282,446.4528" style="stroke:#A80036;stroke-width:1.0;"/><text fill="#000000" font-family="Verdana" font-size="13" lengthAdjust="spacing" textLength="58" x="45.5" y="350.6763">from fork</text><text fill="#000000" font-family="Verdana" font-size="13" lengthAdjust="spacing" textLength="50" x="49.5" y="365.8091">to state</text><path d="M137.5702,260.6322 C139.1321,276.7202 142.0763,307.0448 144.1562,328.4686 " fill="none" style="stroke:#A80036;stroke-width:1.0;"/><polygon fill="#A80036" points="144.1562,328.4686,147.2678,319.1242,143.6731,323.492,139.3053,319.8972,144.1562,328.4686" style="stroke:#A80036;stroke-width:1.0;"/><text fill="#000000" font-family="Verdana" font-size="13" lengthAdjust="spacing" textLength="58" x="143.5" y="291.6763">from fork</text><text fill="#000000" font-family="Verdana" font-size="13" lengthAdjust="spacing" textLength="50" x="147.5" y="306.8091">to state</text><path d="M145.8759,379.0383 C145.7404,384.8003 145.6061,390.9213 145.5,396.6094 C145.0829,418.9617 144.7708,445.115 144.6137,459.5761 " fill="none" style="stroke:#A80036;stroke-width:1.0;"/><polygon fill="#A80036" points="144.6137,459.5761,148.7112,450.6201,144.668,454.5764,140.7117,450.5332,144.6137,459.5761" style="stroke:#A80036;stroke-width:1.0;"/><text fill="#000000" font-family="Verdana" font-size="13" lengthAdjust="spacing" textLength="67" x="146.5" y="409.6763">from state</text><text fill="#000000" font-family="Verdana" font-size="13" lengthAdjust="spacing" textLength="39" x="160.5" y="424.8091">to join</text><path d="M40.5124,496.8219 C39.2245,512.0825 39.9182,531.6566 48.5,546.6094 C55.9686,559.6225 71.9257,567.8642 82.4303,572.1072 " fill="none" style="stroke:#A80036;stroke-width:1.0;"/><polygon fill="#A80036" points="82.4303,572.1072,75.5834,565.0276,77.7942,570.2346,72.5872,572.4454,82.4303,572.1072" style="stroke:#A80036;stroke-width:1.0;"/><text fill="#000000" font-family="Verdana" font-size="13" lengthAdjust="spacing" textLength="67" x="49.5" y="527.6763">from state</text><text fill="#000000" font-family="Verdana" font-size="13" lengthAdjust="spacing" textLength="41" x="62.5" y="542.8091">to end</text><path d="M141.8066,483.6907 C137.8751,498.6584 129.6814,525.8503 117.5,546.6094 C113.3957,553.6038 107.5255,560.5179 102.5047,565.8397 " fill="none" style="stroke:#A80036;stroke-width:1.0;"/><polygon fill="#A80036" points="102.5047,565.8397,111.5903,562.0383,105.9359,562.2028,105.7713,556.5484,102.5047,565.8397" style="stroke:#A80036;stroke-width:1.0;"/><text fill="#000000" font-family="Verdana" font-size="13" lengthAdjust="spacing" textLength="56" x="133.5" y="527.6763">from join</text><text fill="#000000" font-family="Verdana" font-size="13" lengthAdjust="spacing" textLength="41" x="141" y="542.8091">to end</text></g></svg>