<?xml version="1.0" encoding="UTF-8" standalone="no"?><svg xmlns="http://www.w3.org/2000/svg" xmlns:xlink="http://www.w3.org/1999/xlink" contentStyleType="text/css" height="573.9583px" preserveAspectRatio="none" style="width:362px;height:573px;background:#00000000;" version="1.1" viewBox="0 0 362 573" width="362.5px" zoomAndPan="magnify"><defs><filter height="300%" id="fqxuj3zn2pbcm" width="300%" x="-1" y="-1"><feGaussianBlur result="blurOut" stdDeviation="2.0833333333333335"/><feColorMatrix in="blurOut" result="blurOut2" type="matrix" values="0 0 0 0 0 0 0 0 0 0 0 0 0 0 0 0 0 0 .4 0"/><feOffset dx="4.166666666666667" dy="4.166666666666667" in="blurOut2" result="blurOut3"/><feBlend in="SourceGraphic" in2="blurOut3" mode="normal"/></filter></defs><g><!--MD5=[5c98656a7f8540602bd14dbface65fde]
cluster Somp--><g id="cluster_Somp"><rect fill="none" filter="url(#fqxuj3zn2pbcm)" height="336.4583" rx="4.1667" ry="4.1667" style="stroke:#2196F3;stroke-width:1.0416666666666667;" width="241.6667" x="22.9167" y="92.7083"/><rect fill="none" height="336.4583" rx="4.1667" ry="4.1667" style="stroke:#2196F3;stroke-width:1.0416666666666667;" width="241.6667" x="22.9167" y="92.7083"/><line style="stroke:#2196F3;stroke-width:1.0416666666666667;" x1="22.9167" x2="264.5833" y1="132.0882" y2="132.0882"/><text fill="#CCCCCC" font-family="&quot;Verdana&quot;" font-size="11.4583" lengthAdjust="spacing" textLength="34.375" x="126.5625" y="118.9692">Somp</text></g><ellipse cx="118.75" cy="28.125" fill="#1A78C2" filter="url(#fqxuj3zn2pbcm)" rx="10.4167" ry="10.4167" style="stroke:none;stroke-width:1.0416666666666667;"/><g id="Foo"><rect fill="none" filter="url(#fqxuj3zn2pbcm)" height="75.8382" rx="4.1667" ry="4.1667" style="stroke:#2196F3;stroke-width:1.0416666666666667;" width="62.5" x="191.6667" y="481.25"/><line style="stroke:#2196F3;stroke-width:1.0416666666666667;" x1="191.6667" x2="254.1667" y1="525.8382" y2="525.8382"/><text fill="#CCCCCC" font-family="&quot;Verdana&quot;" font-size="11.4583" lengthAdjust="spacing" textLength="20.8333" x="212.5" y="507.5109">Foo</text></g><g id="Foo1"><rect fill="none" filter="url(#fqxuj3zn2pbcm)" height="75.8382" rx="4.1667" ry="4.1667" style="stroke:#2196F3;stroke-width:1.0416666666666667;" width="69.7917" x="275.5208" y="259.375"/><line style="stroke:#2196F3;stroke-width:1.0416666666666667;" x1="275.5208" x2="345.3125" y1="303.9632" y2="303.9632"/><text fill="#CCCCCC" font-family="&quot;Verdana&quot;" font-size="11.4583" lengthAdjust="spacing" textLength="28.125" x="296.3542" y="285.6359">Foo1</text></g><text fill="#2196F3" font-family="Verdana" font-size="12.5" lengthAdjust="spacing" textLength="41.6667" x="95.8333" y="148.0937">entry1</text><ellipse cx="116.6667" cy="180.2083" fill="none" rx="6.25" ry="6.25" style="stroke:#1A78C2;stroke-width:1.5625;"/><text fill="#2196F3" font-family="Verdana" font-size="12.5" lengthAdjust="spacing" textLength="41.6667" x="16.6667" y="259.0312">entry2</text><ellipse cx="37.5" cy="291.1458" fill="none" rx="6.25" ry="6.25" style="stroke:#1A78C2;stroke-width:1.5625;"/><g id="Somp.sin"><rect fill="none" filter="url(#fqxuj3zn2pbcm)" height="75.8382" rx="4.1667" ry="4.1667" style="stroke:#2196F3;stroke-width:1.0416666666666667;" width="59.375" x="89.0625" y="259.375"/><line style="stroke:#2196F3;stroke-width:1.0416666666666667;" x1="89.0625" x2="148.4375" y1="303.9632" y2="303.9632"/><text fill="#CCCCCC" font-family="&quot;Verdana&quot;" font-size="11.4583" lengthAdjust="spacing" textLength="17.7083" x="109.8958" y="285.6359">sin</text></g><g id="Somp.sin2"><rect fill="none" filter="url(#fqxuj3zn2pbcm)" height="75.8382" rx="4.1667" ry="4.1667" style="stroke:#2196F3;stroke-width:1.0416666666666667;" width="66.6667" x="189.5833" y="259.375"/><line style="stroke:#2196F3;stroke-width:1.0416666666666667;" x1="189.5833" x2="256.25" y1="303.9632" y2="303.9632"/><text fill="#CCCCCC" font-family="&quot;Verdana&quot;" font-size="11.4583" lengthAdjust="spacing" textLength="25" x="210.4167" y="285.6359">sin2</text></g><text fill="#2196F3" font-family="Verdana" font-size="12.5" lengthAdjust="spacing" textLength="31.25" x="205.2083" y="369.9687">exitA</text><ellipse cx="220.8333" cy="402.0833" fill="none" rx="6.25" ry="6.25" style="stroke:#1A78C2;stroke-width:1.5625;"/><line style="stroke:#1A78C2;stroke-width:1.5625;" x1="225.4053" x2="217.303" y1="406.6553" y2="398.553"/><line style="stroke:#1A78C2;stroke-width:1.5625;" x1="225.4053" x2="217.303" y1="398.553" y2="406.6553"/><path d="M118.75,199.1493 C118.75,213.4094 118.75,238.2531 118.75,259.2542 " fill="none" style="stroke:#2196F3;stroke-width:3.125;"/><polygon fill="#2196F3" points="118.75,259.2542,122.9167,249.8792,118.75,254.0459,114.5833,249.8792,118.75,259.2542" style="stroke:#2196F3;stroke-width:1.0416666666666667;"/><path d="M48.0556,297.3958 C57.7883,297.3958 74.3001,297.3958 88.9192,297.3958 " fill="none" style="stroke:#2196F3;stroke-width:3.125;"/><polygon fill="#2196F3" points="88.9192,297.3958,79.5442,293.2292,83.7109,297.3958,79.5442,301.5625,88.9192,297.3958" style="stroke:#2196F3;stroke-width:1.0416666666666667;"/><path d="M148.6,297.3958 C161.3453,297.3958 176.2773,297.3958 189.4,297.3958 " fill="none" style="stroke:#2196F3;stroke-width:3.125;"/><polygon fill="#2196F3" points="189.4,297.3958,180.025,293.2292,184.1917,297.3958,180.025,301.5625,189.4,297.3958" style="stroke:#2196F3;stroke-width:1.0416666666666667;"/><path d="M222.9167,335.5945 C222.9167,356.5352 222.9167,381.281 222.9167,395.5438 " fill="none" style="stroke:#2196F3;stroke-width:3.125;"/><polygon fill="#2196F3" points="222.9167,395.5438,227.0833,386.1688,222.9167,390.3355,218.75,386.1688,222.9167,395.5438" style="stroke:#2196F3;stroke-width:1.0416666666666667;"/><path d="M118.75,42.8376 C118.75,71.4081 118.75,144.9835 118.75,173.6946 " fill="none" style="stroke:#2196F3;stroke-width:3.125;"/><polygon fill="#2196F3" points="118.75,173.6946,122.9167,164.3196,118.75,168.4863,114.5833,164.3196,118.75,173.6946" style="stroke:#2196F3;stroke-width:1.0416666666666667;"/><path d="M222.9167,421.0243 C222.9167,435.2844 222.9167,460.1281 222.9167,481.1292 " fill="none" style="stroke:#2196F3;stroke-width:3.125;"/><polygon fill="#2196F3" points="222.9167,481.1292,227.0833,471.7542,222.9167,475.9209,218.75,471.7542,222.9167,481.1292" style="stroke:#2196F3;stroke-width:1.0416666666666667;"/><path d="M275.4949,263.1722 C273.2928,261.7709 271.039,260.4901 268.75,259.375 C174.9844,213.696 69.6815,221.2367 60.4167,228.125 C42.8809,241.1628 39.5583,268.4787 39.229,284.6403 " fill="none" style="stroke:#2196F3;stroke-width:3.125;"/><polygon fill="#2196F3" points="39.229,284.6403,43.5858,275.3522,39.3351,279.4331,35.2542,275.1824,39.229,284.6403" style="stroke:#2196F3;stroke-width:1.0416666666666667;"/></g></svg>