<?xml version="1.0" encoding="UTF-8" standalone="no"?><svg xmlns="http://www.w3.org/2000/svg" xmlns:xlink="http://www.w3.org/1999/xlink" contentScriptType="application/ecmascript" contentStyleType="text/css" height="563.5417px" preserveAspectRatio="none" style="width:357px;height:563px;background:#00000000;" version="1.1" viewBox="0 0 357 563" width="357.2917px" zoomAndPan="magnify"><defs><linearGradient id="g1wzqg0t99y5ut0" x1="50%" x2="50%" y1="0%" y2="100%"><stop offset="0%" stop-color="#F3F3F3"/><stop offset="100%" stop-color="#E2E2E2"/></linearGradient></defs><g><!--MD5=[5c98656a7f8540602bd14dbface65fde]
cluster Somp--><rect fill="url(#g1wzqg0t99y5ut0)" height="338.5417" rx="7.8125" ry="7.8125" style="stroke:#888888;stroke-width:1.5625;" width="241.6667" x="22.9167" y="86.4583"/><rect height="286.4909" rx="7.8125" ry="7.8125" style="stroke:#00000000;stroke-width:1.0416666666666667;fill:none;" width="235.4167" x="26.0417" y="135.3841"/><line style="stroke:#888888;stroke-width:1.5625;fill:none;" x1="22.9167" x2="264.5833" y1="132.2591" y2="132.2591"/><text fill="#336699" font-family="Verdana" font-size="12.5" lengthAdjust="spacing" textLength="36.4583" x="125.5208" y="113.6861">Somp</text><ellipse cx="118.75" cy="21.875" fill="#336699" rx="10.4167" ry="10.4167" style="stroke:none;stroke-width:1.0416666666666667;"/><g id="Foo"><rect fill="url(#g1wzqg0t99y5ut0)" height="75.8382" rx="7.8125" ry="7.8125" style="stroke:#888888;stroke-width:1.5625;" width="62.5" x="191.6667" y="477.0833"/><line style="stroke:#888888;stroke-width:1.5625;" x1="191.6667" x2="254.1667" y1="521.6715" y2="521.6715"/><text fill="#FFFFFF" font-family="&quot;Verdana&quot;" font-size="11.4583" lengthAdjust="spacing" textLength="20.8333" x="212.5" y="503.3442">Foo</text></g><g id="Foo1"><rect fill="url(#g1wzqg0t99y5ut0)" height="75.8382" rx="7.8125" ry="7.8125" style="stroke:#888888;stroke-width:1.5625;" width="69.7917" x="275.5208" y="255.2083"/><line style="stroke:#888888;stroke-width:1.5625;" x1="275.5208" x2="345.3125" y1="299.7965" y2="299.7965"/><text fill="#FFFFFF" font-family="&quot;Verdana&quot;" font-size="11.4583" lengthAdjust="spacing" textLength="28.125" x="296.3542" y="281.4692">Foo1</text></g><text fill="#336699" font-family="Verdana" font-size="12.5" lengthAdjust="spacing" textLength="41.6667" x="95.8333" y="143.927">entry1</text><ellipse cx="116.6667" cy="176.0417" fill="url(#g1wzqg0t99y5ut0)" rx="6.25" ry="6.25" style="stroke:#888888;stroke-width:1.5625;"/><text fill="#336699" font-family="Verdana" font-size="12.5" lengthAdjust="spacing" textLength="41.6667" x="16.6667" y="254.8645">entry2</text><ellipse cx="37.5" cy="286.9792" fill="url(#g1wzqg0t99y5ut0)" rx="6.25" ry="6.25" style="stroke:#888888;stroke-width:1.5625;"/><g id="Somp.sin"><rect fill="url(#g1wzqg0t99y5ut0)" height="75.8382" rx="7.8125" ry="7.8125" style="stroke:#888888;stroke-width:1.5625;" width="59.375" x="89.0625" y="255.2083"/><line style="stroke:#888888;stroke-width:1.5625;" x1="89.0625" x2="148.4375" y1="299.7965" y2="299.7965"/><text fill="#FFFFFF" font-family="&quot;Verdana&quot;" font-size="11.4583" lengthAdjust="spacing" textLength="17.7083" x="109.8958" y="281.4692">sin</text></g><g id="Somp.sin2"><rect fill="url(#g1wzqg0t99y5ut0)" height="75.8382" rx="7.8125" ry="7.8125" style="stroke:#888888;stroke-width:1.5625;" width="66.6667" x="189.5833" y="255.2083"/><line style="stroke:#888888;stroke-width:1.5625;" x1="189.5833" x2="256.25" y1="299.7965" y2="299.7965"/><text fill="#FFFFFF" font-family="&quot;Verdana&quot;" font-size="11.4583" lengthAdjust="spacing" textLength="25" x="210.4167" y="281.4692">sin2</text></g><text fill="#336699" font-family="Verdana" font-size="12.5" lengthAdjust="spacing" textLength="31.25" x="205.2083" y="365.802">exitA</text><ellipse cx="220.8333" cy="397.9167" fill="url(#g1wzqg0t99y5ut0)" rx="6.25" ry="6.25" style="stroke:#888888;stroke-width:1.5625;"/><line style="stroke:#888888;stroke-width:1.5625;" x1="225.4053" x2="217.303" y1="402.4886" y2="394.3864"/><line style="stroke:#888888;stroke-width:1.5625;" x1="225.4053" x2="217.303" y1="394.3864" y2="402.4886"/><path d="M118.75,194.9826 C118.75,209.2427 118.75,234.0865 118.75,255.0876 " fill="none" style="stroke:#E2E2E2;stroke-width:3.125;"/><polygon fill="#E2E2E2" points="118.75,255.0876,122.9167,245.7126,118.75,249.8792,114.5833,245.7126,118.75,255.0876" style="stroke:#E2E2E2;stroke-width:1.0416666666666667;"/><path d="M48.0556,293.2292 C57.7883,293.2292 74.3001,293.2292 88.9192,293.2292 " fill="none" style="stroke:#E2E2E2;stroke-width:3.125;"/><polygon fill="#E2E2E2" points="88.9192,293.2292,79.5442,289.0625,83.7109,293.2292,79.5442,297.3958,88.9192,293.2292" style="stroke:#E2E2E2;stroke-width:1.0416666666666667;"/><path d="M148.6,293.2292 C161.3453,293.2292 176.2773,293.2292 189.4,293.2292 " fill="none" style="stroke:#E2E2E2;stroke-width:3.125;"/><polygon fill="#E2E2E2" points="189.4,293.2292,180.025,289.0625,184.1917,293.2292,180.025,297.3958,189.4,293.2292" style="stroke:#E2E2E2;stroke-width:1.0416666666666667;"/><path d="M222.9167,331.4278 C222.9167,352.3685 222.9167,377.1143 222.9167,391.3771 " fill="none" style="stroke:#E2E2E2;stroke-width:3.125;"/><polygon fill="#E2E2E2" points="222.9167,391.3771,227.0833,382.0021,222.9167,386.1688,218.75,382.0021,222.9167,391.3771" style="stroke:#E2E2E2;stroke-width:1.0416666666666667;"/><path d="M118.75,36.7441 C118.75,65.7008 118.75,140.2704 118.75,169.3696 " fill="none" style="stroke:#E2E2E2;stroke-width:3.125;"/><polygon fill="#E2E2E2" points="118.75,169.3696,122.9167,159.9946,118.75,164.1612,114.5833,159.9946,118.75,169.3696" style="stroke:#E2E2E2;stroke-width:1.0416666666666667;"/><path d="M222.9167,416.8576 C222.9167,431.1177 222.9167,455.9615 222.9167,476.9626 " fill="none" style="stroke:#E2E2E2;stroke-width:3.125;"/><polygon fill="#E2E2E2" points="222.9167,476.9626,227.0833,467.5876,222.9167,471.7542,218.75,467.5876,222.9167,476.9626" style="stroke:#E2E2E2;stroke-width:1.0416666666666667;"/><path d="M275.4949,259.0055 C273.2928,257.6042 271.039,256.3234 268.75,255.2083 C174.9844,209.5293 69.6815,217.07 60.4167,223.9583 C42.8809,236.9961 39.5583,264.312 39.229,280.4737 " fill="none" style="stroke:#E2E2E2;stroke-width:3.125;"/><polygon fill="#E2E2E2" points="39.229,280.4737,43.5858,271.1855,39.3351,275.2664,35.2542,271.0157,39.229,280.4737" style="stroke:#E2E2E2;stroke-width:1.0416666666666667;"/></g></svg>