<?xml version="1.0" encoding="UTF-8" standalone="no"?><svg xmlns="http://www.w3.org/2000/svg" xmlns:xlink="http://www.w3.org/1999/xlink" contentStyleType="text/css" height="544px" preserveAspectRatio="none" style="width:363px;height:544px;background:#282828;" version="1.1" viewBox="0 0 363 544" width="363px" zoomAndPan="magnify"><defs/><g><g id="elem_choice1"><polygon fill="#282828" points="253,98,265,110,253,122,241,110,253,98" style="stroke:#FFB000;stroke-width:1.0;"/></g><rect fill="#FFB000" height="8" style="stroke:none;stroke-width:1.0;" width="80" x="121" y="190"/><rect fill="#FFB000" height="8" style="stroke:none;stroke-width:1.0;" width="80" x="129" y="413"/><ellipse cx="291" cy="200" fill="none" rx="10" ry="10" style="stroke:#FFB000;stroke-width:1.0;"/><ellipse cx="291.5" cy="200.5" fill="#FFB000" rx="6" ry="6" style="stroke:none;stroke-width:1.0;"/><ellipse cx="253" cy="16" fill="#FFB000" rx="10" ry="10" style="stroke:none;stroke-width:1.0;"/><g id="State1"><rect fill="#282828" height="50" rx="12.5" ry="12.5" style="stroke:#FFB000;stroke-width:1.0;" width="92" x="12" y="400"/><line style="stroke:#FFB000;stroke-width:1.0;" x1="12" x2="104" y1="435.6094" y2="435.6094"/><text fill="#FFB000" font-family="Verdana" font-size="22" lengthAdjust="spacing" textLength="72" x="22" y="425.4209">State1</text></g><g id="State2"><rect fill="#282828" height="50" rx="12.5" ry="12.5" style="stroke:#FFB000;stroke-width:1.0;" width="92" x="128" y="282"/><line style="stroke:#FFB000;stroke-width:1.0;" x1="128" x2="220" y1="317.6094" y2="317.6094"/><text fill="#FFB000" font-family="Verdana" font-size="22" lengthAdjust="spacing" textLength="72" x="138" y="307.4209">State2</text></g><ellipse cx="115" cy="528" fill="none" rx="10" ry="10" style="stroke:#FFB000;stroke-width:1.0;"/><ellipse cx="115.5" cy="528.5" fill="#FFB000" rx="6" ry="6" style="stroke:none;stroke-width:1.0;"/><path d="M253,30.0358 C253,47.3092 253,80.5451 253,97.874 " fill="none" style="stroke:#FFB000;stroke-width:1.0;"/><polygon fill="#FFB000" points="253,97.874,257,88.874,253,92.874,249,88.874,253,97.874" style="stroke:#FFB000;stroke-width:1.0;"/><text fill="#000000" font-family="Verdana" font-size="13" lengthAdjust="spacing" textLength="64" x="254" y="61.0669">from start</text><text fill="#000000" font-family="Verdana" font-size="13" lengthAdjust="spacing" textLength="58" x="257" y="76.1997">to choice</text><path d="M240.7632,110.7616 C220.5294,111.1125 180.501,115.117 162,140 C151.2565,154.4495 154.3407,176.608 157.6254,189.865 " fill="none" style="stroke:#FFB000;stroke-width:1.0;"/><polygon fill="#FFB000" points="157.6254,189.865,159.3435,180.1672,156.4229,185.0118,151.5783,182.0912,157.6254,189.865" style="stroke:#FFB000;stroke-width:1.0;"/><text fill="#000000" font-family="Verdana" font-size="13" lengthAdjust="spacing" textLength="75" x="163" y="153.0669">from choice</text><text fill="#000000" font-family="Verdana" font-size="13" lengthAdjust="spacing" textLength="41" x="180" y="168.1997">to fork</text><path d="M255.8545,122.12 C265.2225,161.1965 291.5269,294.5693 239,382 C230.4606,396.2138 215.1053,406.2082 200.9479,412.871 " fill="none" style="stroke:#FFB000;stroke-width:1.0;"/><polygon fill="#FFB000" points="200.9479,412.871,210.7945,412.6578,205.472,410.7419,207.3879,405.4193,200.9479,412.871" style="stroke:#FFB000;stroke-width:1.0;"/><text fill="#000000" font-family="Verdana" font-size="13" lengthAdjust="spacing" textLength="75" x="271" y="245.0669">from choice</text><text fill="#000000" font-family="Verdana" font-size="13" lengthAdjust="spacing" textLength="39" x="289" y="260.1997">to join</text><path d="M258.6499,122.202 C261.2831,127.5468 264.4013,134.0582 267,140 C274.479,157.1 282.2251,177.325 286.8268,189.6533 " fill="none" style="stroke:#FFB000;stroke-width:1.0;"/><polygon fill="#FFB000" points="286.8268,189.6533,287.427,179.8228,285.0783,184.969,279.9321,182.6203,286.8268,189.6533" style="stroke:#FFB000;stroke-width:1.0;"/><text fill="#000000" font-family="Verdana" font-size="13" lengthAdjust="spacing" textLength="75" x="280" y="153.0669">from choice</text><text fill="#000000" font-family="Verdana" font-size="13" lengthAdjust="spacing" textLength="41" x="297" y="168.1997">to end</text><path d="M135.8919,214.2096 C111.2114,226.7644 74.9907,249.6776 59,282 C40.3064,319.786 46.1401,370.4502 52.0749,399.9286 " fill="none" style="stroke:#FFB000;stroke-width:1.0;"/><polygon fill="#FFB000" points="52.0749,399.9286,54.2199,390.3162,51.0881,395.027,46.3773,391.8951,52.0749,399.9286" style="stroke:#FFB000;stroke-width:1.0;"/><text fill="#000000" font-family="Verdana" font-size="13" lengthAdjust="spacing" textLength="58" x="60" y="304.0669">from fork</text><text fill="#000000" font-family="Verdana" font-size="13" lengthAdjust="spacing" textLength="50" x="64" y="319.1997">to state</text><path d="M162.3912,214.0228 C164.4218,230.1108 168.2491,260.4354 170.9531,281.8592 " fill="none" style="stroke:#FFB000;stroke-width:1.0;"/><polygon fill="#FFB000" points="170.9531,281.8592,173.7946,272.4292,170.327,276.8986,165.8576,273.4309,170.9531,281.8592" style="stroke:#FFB000;stroke-width:1.0;"/><text fill="#000000" font-family="Verdana" font-size="13" lengthAdjust="spacing" textLength="58" x="170" y="245.0669">from fork</text><text fill="#000000" font-family="Verdana" font-size="13" lengthAdjust="spacing" textLength="50" x="174" y="260.1997">to state</text><path d="M171.3369,332.4047 C170.802,338.1677 170.3097,344.2952 170,350 C168.7882,372.3233 168.7617,398.487 168.8691,412.9578 " fill="none" style="stroke:#FFB000;stroke-width:1.0;"/><polygon fill="#FFB000" points="168.8691,412.9578,172.8022,403.9284,168.832,407.9579,164.8024,403.9877,168.8691,412.9578" style="stroke:#FFB000;stroke-width:1.0;"/><text fill="#000000" font-family="Verdana" font-size="13" lengthAdjust="spacing" textLength="67" x="171" y="363.0669">from state</text><text fill="#000000" font-family="Verdana" font-size="13" lengthAdjust="spacing" textLength="39" x="185" y="378.1997">to join</text><path d="M55.7712,450.136 C55.5266,465.5536 57.5105,485.3302 67,500 C75.7783,513.5703 93.3548,521.7353 104.6284,525.7991 " fill="none" style="stroke:#FFB000;stroke-width:1.0;"/><polygon fill="#FFB000" points="104.6284,525.7991,97.5181,518.9841,99.9247,524.1035,94.8052,526.5101,104.6284,525.7991" style="stroke:#FFB000;stroke-width:1.0;"/><text fill="#000000" font-family="Verdana" font-size="13" lengthAdjust="spacing" textLength="67" x="68" y="481.0669">from state</text><text fill="#000000" font-family="Verdana" font-size="13" lengthAdjust="spacing" textLength="41" x="81" y="496.1997">to end</text><path d="M165.947,437.0697 C161.543,452.0242 152.5376,479.2012 140,500 C135.8819,506.8315 130.1314,513.6306 125.1837,518.9265 " fill="none" style="stroke:#FFB000;stroke-width:1.0;"/><polygon fill="#FFB000" points="125.1837,518.9265,134.2506,515.0807,128.597,515.2729,128.4049,509.6193,125.1837,518.9265" style="stroke:#FFB000;stroke-width:1.0;"/><text fill="#000000" font-family="Verdana" font-size="13" lengthAdjust="spacing" textLength="56" x="157" y="481.0669">from join</text><text fill="#000000" font-family="Verdana" font-size="13" lengthAdjust="spacing" textLength="41" x="164.5" y="496.1997">to end</text></g></svg>