<?xml version="1.0" encoding="UTF-8" standalone="no"?><svg xmlns="http://www.w3.org/2000/svg" xmlns:xlink="http://www.w3.org/1999/xlink" contentScriptType="application/ecmascript" contentStyleType="text/css" height="337px" preserveAspectRatio="none" style="width:252px;height:337px;background:#777777;" version="1.1" viewBox="0 0 252 337" width="252px" zoomAndPan="magnify"><defs><filter height="300%" id="f9r5k27ghy5c4" width="300%" x="-1" y="-1"><feGaussianBlur result="blurOut" stdDeviation="2.0"/><feColorMatrix in="blurOut" result="blurOut2" type="matrix" values="0 0 0 0 0 0 0 0 0 0 0 0 0 0 0 0 0 0 .4 0"/><feOffset dx="4.0" dy="4.0" in="blurOut2" result="blurOut3"/><feBlend in="SourceGraphic" in2="blurOut3" mode="normal"/></filter></defs><g><!--MD5=[5c98656a7f8540602bd14dbface65fde]
cluster Somp--><rect fill="#2E2E2E" filter="url(#f9r5k27ghy5c4)" height="201" rx="12.5" ry="12.5" style="stroke:#1B1B1B;stroke-width:1.5;" width="168" x="10" y="44"/><rect fill="#777777" height="172.1953" rx="12.5" ry="12.5" style="stroke:#777777;stroke-width:1.0;" width="162" x="13" y="69.8047"/><line style="stroke:#1B1B1B;stroke-width:1.5;" x1="10" x2="178" y1="66.8047" y2="66.8047"/><text fill="#FFFFFF" font-family="Verdana" font-size="11" lengthAdjust="spacing" textLength="33" x="77.5" y="59.2104">Somp</text><ellipse cx="77" cy="17" fill="#880000" filter="url(#f9r5k27ghy5c4)" rx="10" ry="10" style="stroke:none;stroke-width:1.0;"/><g id="Foo"><rect fill="#2E2E2E" filter="url(#f9r5k27ghy5c4)" height="50" rx="12.5" ry="12.5" style="stroke:#1B1B1B;stroke-width:1.5;" width="50" x="120" y="273"/><line style="stroke:#1B1B1B;stroke-width:1.5;" x1="120" x2="170" y1="295.8047" y2="295.8047"/><text fill="#FFFFFF" font-family="Verdana" font-size="11" lengthAdjust="spacing" textLength="20" x="135" y="288.2104">Foo</text></g><g id="Foo1"><rect fill="#2E2E2E" filter="url(#f9r5k27ghy5c4)" height="50" rx="12.5" ry="12.5" style="stroke:#1B1B1B;stroke-width:1.5;" width="50" x="188" y="127"/><line style="stroke:#1B1B1B;stroke-width:1.5;" x1="188" x2="238" y1="149.8047" y2="149.8047"/><text fill="#FFFFFF" font-family="Verdana" font-size="11" lengthAdjust="spacing" textLength="27" x="199.5" y="142.2104">Foo1</text></g><text fill="#FFFFFF" font-family="Verdana" font-size="11" lengthAdjust="spacing" textLength="36" x="57" y="52.4058">entry1</text><ellipse cx="75" cy="73" fill="#2E2E2E" rx="6" ry="6" style="stroke:#1B1B1B;stroke-width:1.5;"/><text fill="#FFFFFF" font-family="Verdana" font-size="11" lengthAdjust="spacing" textLength="36" x="6" y="125.4058">entry2</text><ellipse cx="24" cy="146" fill="#2E2E2E" rx="6" ry="6" style="stroke:#1B1B1B;stroke-width:1.5;"/><g id="Somp.sin"><rect fill="#2E2E2E" filter="url(#f9r5k27ghy5c4)" height="50" rx="12.5" ry="12.5" style="stroke:#1B1B1B;stroke-width:1.5;" width="50" x="52" y="127"/><line style="stroke:#1B1B1B;stroke-width:1.5;" x1="52" x2="102" y1="149.8047" y2="149.8047"/><text fill="#FFFFFF" font-family="Verdana" font-size="11" lengthAdjust="spacing" textLength="17" x="68.5" y="142.2104">sin</text></g><g id="Somp.sin2"><rect fill="#2E2E2E" filter="url(#f9r5k27ghy5c4)" height="50" rx="12.5" ry="12.5" style="stroke:#1B1B1B;stroke-width:1.5;" width="50" x="120" y="127"/><line style="stroke:#1B1B1B;stroke-width:1.5;" x1="120" x2="170" y1="149.8047" y2="149.8047"/><text fill="#FFFFFF" font-family="Verdana" font-size="11" lengthAdjust="spacing" textLength="24" x="133" y="142.2104">sin2</text></g><text fill="#FFFFFF" font-family="Verdana" font-size="11" lengthAdjust="spacing" textLength="27" x="129.5" y="198.4058">exitA</text><ellipse cx="143" cy="219" fill="#2E2E2E" rx="6" ry="6" style="stroke:#1B1B1B;stroke-width:1.5;"/><line style="stroke:#1B1B1B;stroke-width:1.5;" x1="147.3891" x2="139.6109" y1="223.3891" y2="215.6109"/><line style="stroke:#1B1B1B;stroke-width:1.5;" x1="147.3891" x2="139.6109" y1="215.6109" y2="223.3891"/><path d="M77,91.0938 C77,100.6101 77,114.6616 77,126.7644 " fill="none" style="stroke:#FFFFFF;stroke-width:1.0;"/><polygon fill="#FFFFFF" points="77,126.7644,81,117.7644,77,121.7644,73,117.7644,77,126.7644" style="stroke:#FFFFFF;stroke-width:1.0;"/><path d="M34.3672,152 C40.1404,152 45.9136,152 51.6868,152 " fill="none" style="stroke:#FFFFFF;stroke-width:1.0;"/><polygon fill="#FFFFFF" points="51.6868,152,42.6868,148,46.6868,152,42.6868,156,51.6868,152" style="stroke:#FFFFFF;stroke-width:1.0;"/><path d="M102.2344,152 C108.1369,152 114.0395,152 119.942,152 " fill="none" style="stroke:#FFFFFF;stroke-width:1.0;"/><polygon fill="#FFFFFF" points="119.942,152,110.942,148,114.942,152,110.942,156,119.942,152" style="stroke:#FFFFFF;stroke-width:1.0;"/><path d="M145,177.0374 C145,189.1063 145,203.1553 145,212.7204 " fill="none" style="stroke:#FFFFFF;stroke-width:1.0;"/><polygon fill="#FFFFFF" points="145,212.7204,149,203.7204,145,207.7204,141,203.7204,145,212.7204" style="stroke:#FFFFFF;stroke-width:1.0;"/><path d="M77,31.183 C77,41.4535 77,56.5917 77,66.8513 " fill="none" style="stroke:#FFFFFF;stroke-width:1.0;"/><polygon fill="#FFFFFF" points="77,66.8513,81,57.8513,77,61.8513,73,57.8513,77,66.8513" style="stroke:#FFFFFF;stroke-width:1.0;"/><path d="M145,237.0938 C145,246.6101 145,260.6616 145,272.7644 " fill="none" style="stroke:#FFFFFF;stroke-width:1.0;"/><polygon fill="#FFFFFF" points="145,272.7644,149,263.7644,145,267.7644,141,263.7644,145,272.7644" style="stroke:#FFFFFF;stroke-width:1.0;"/><path d="M195.7748,126.7327 C189.514,119.6411 181.7869,112.827 173,109 C148.3478,98.263 75.4213,95.7918 52,109 C40.4498,115.5136 33.4494,129.4515 29.6679,139.701 " fill="none" style="stroke:#FFFFFF;stroke-width:1.0;"/><polygon fill="#FFFFFF" points="29.6679,139.701,36.5359,132.6419,31.3986,135.0101,29.0304,129.8728,29.6679,139.701" style="stroke:#FFFFFF;stroke-width:1.0;"/></g></svg>