<?xml version="1.0" encoding="UTF-8" standalone="no"?><svg xmlns="http://www.w3.org/2000/svg" xmlns:xlink="http://www.w3.org/1999/xlink" contentStyleType="text/css" height="526px" preserveAspectRatio="none" style="width:328px;height:526px;background:#00000000;" version="1.1" viewBox="0 0 328 526" width="328px" zoomAndPan="magnify"><defs><linearGradient id="g1iq22j2je69q50" x1="50%" x2="50%" y1="0%" y2="100%"><stop offset="0%" stop-color="#F4F4F4"/><stop offset="100%" stop-color="#F4F4F4"/></linearGradient></defs><g><!--MD5=[5c98656a7f8540602bd14dbface65fde]
cluster Somp--><g id="cluster_Somp"><rect fill="url(#g1iq22j2je69q50)" height="43.9688" style="stroke:url(#g1iq22j2je69q50);stroke-width:1.0;" width="232" x="12" y="73"/><rect fill="url(#g1iq22j2je69q50)" height="281.0313" style="stroke:url(#g1iq22j2je69q50);stroke-width:1.0;" width="232" x="12" y="116.9688"/><rect height="325" style="stroke:#C6C6C6;stroke-width:0.5;fill:none;" width="232" x="12" y="73"/><line style="stroke:#C6C6C6;stroke-width:0.5;fill:none;" x1="12" x2="244" y1="116.9688" y2="116.9688"/><text fill="#262626" font-family="IBM Plex Sans, Noto Sans, Verdana" font-size="12" lengthAdjust="spacing" textLength="35" x="110.5" y="99.1387">Somp</text></g><ellipse cx="104" cy="11" fill="#222222" rx="10" ry="10" style="stroke:none;stroke-width:1.0;"/><g id="Foo"><rect fill="url(#g1iq22j2je69q50)" height="72.8047" style="stroke:#C6C6C6;stroke-width:0.5;" width="60" x="174" y="448"/><line style="stroke:#C6C6C6;stroke-width:0.5;" x1="174" x2="234" y1="490.8047" y2="490.8047"/><text fill="#262626" font-family="IBM Plex Sans, Noto Sans, Verdana" font-size="11" lengthAdjust="spacing" textLength="20" x="194" y="473.2104">Foo</text></g><g id="Foo1"><rect fill="url(#g1iq22j2je69q50)" height="72.8047" style="stroke:#C6C6C6;stroke-width:0.5;" width="67" x="254.5" y="235"/><line style="stroke:#C6C6C6;stroke-width:0.5;" x1="254.5" x2="321.5" y1="277.8047" y2="277.8047"/><text fill="#262626" font-family="IBM Plex Sans, Noto Sans, Verdana" font-size="11" lengthAdjust="spacing" textLength="27" x="274.5" y="260.2104">Foo1</text></g><text fill="#262626" font-family="IBM Plex Sans, Noto Sans, Verdana" font-size="12" lengthAdjust="spacing" textLength="40" x="82" y="128.1699">entry1</text><ellipse cx="102" cy="159" fill="#F1F1F1" rx="6" ry="6" style="stroke:#181818;stroke-width:1.5;"/><text fill="#262626" font-family="IBM Plex Sans, Noto Sans, Verdana" font-size="12" lengthAdjust="spacing" textLength="40" x="6" y="234.6699">entry2</text><ellipse cx="26" cy="265.5" fill="#F1F1F1" rx="6" ry="6" style="stroke:#181818;stroke-width:1.5;"/><g id="Somp.sin"><rect fill="url(#g1iq22j2je69q50)" height="72.8047" style="stroke:#C6C6C6;stroke-width:0.5;" width="57" x="75.5" y="235"/><line style="stroke:#C6C6C6;stroke-width:0.5;" x1="75.5" x2="132.5" y1="277.8047" y2="277.8047"/><text fill="#262626" font-family="IBM Plex Sans, Noto Sans, Verdana" font-size="11" lengthAdjust="spacing" textLength="17" x="95.5" y="260.2104">sin</text></g><g id="Somp.sin2"><rect fill="url(#g1iq22j2je69q50)" height="72.8047" style="stroke:#C6C6C6;stroke-width:0.5;" width="64" x="172" y="235"/><line style="stroke:#C6C6C6;stroke-width:0.5;" x1="172" x2="236" y1="277.8047" y2="277.8047"/><text fill="#262626" font-family="IBM Plex Sans, Noto Sans, Verdana" font-size="11" lengthAdjust="spacing" textLength="24" x="192" y="260.2104">sin2</text></g><text fill="#262626" font-family="IBM Plex Sans, Noto Sans, Verdana" font-size="12" lengthAdjust="spacing" textLength="30" x="187" y="341.1699">exitA</text><ellipse cx="202" cy="372" fill="#F1F1F1" rx="6" ry="6" style="stroke:#181818;stroke-width:1.5;"/><line style="stroke:#181818;stroke-width:1.5;" x1="206.3891" x2="198.6109" y1="376.3891" y2="368.6109"/><line style="stroke:#181818;stroke-width:1.5;" x1="206.3891" x2="198.6109" y1="368.6109" y2="376.3891"/><path d="M104,177.1833 C104,190.873 104,214.723 104,234.884 " fill="none" style="stroke:#C6C6C6;stroke-width:1.0;"/><polygon fill="#C6C6C6" points="104,234.884,108,225.884,104,229.884,100,225.884,104,234.884" style="stroke:#C6C6C6;stroke-width:1.0;"/><path d="M36.1333,271.5 C45.4768,271.5 61.3281,271.5 75.3624,271.5 " fill="none" style="stroke:#C6C6C6;stroke-width:1.0;"/><polygon fill="#C6C6C6" points="75.3624,271.5,66.3624,267.5,70.3624,271.5,66.3624,275.5,75.3624,271.5" style="stroke:#C6C6C6;stroke-width:1.0;"/><path d="M132.656,271.5 C144.8915,271.5 159.2262,271.5 171.824,271.5 " fill="none" style="stroke:#C6C6C6;stroke-width:1.0;"/><polygon fill="#C6C6C6" points="171.824,271.5,162.824,267.5,166.824,271.5,162.824,275.5,171.824,271.5" style="stroke:#C6C6C6;stroke-width:1.0;"/><path d="M204,308.1707 C204,328.2738 204,352.0297 204,365.722 " fill="none" style="stroke:#C6C6C6;stroke-width:1.0;"/><polygon fill="#C6C6C6" points="204,365.722,208,356.722,204,360.722,200,356.722,204,365.722" style="stroke:#C6C6C6;stroke-width:1.0;"/><path d="M104,25.2744 C104,53.0727 104,124.6596 104,152.5948 " fill="none" style="stroke:#C6C6C6;stroke-width:1.0;"/><polygon fill="#C6C6C6" points="104,152.5948,108,143.5948,104,147.5948,100,143.5948,104,152.5948" style="stroke:#C6C6C6;stroke-width:1.0;"/><path d="M204,390.1833 C204,403.873 204,427.723 204,447.884 " fill="none" style="stroke:#C6C6C6;stroke-width:1.0;"/><polygon fill="#C6C6C6" points="204,447.884,208,438.884,204,442.884,200,438.884,204,447.884" style="stroke:#C6C6C6;stroke-width:1.0;"/><path d="M254.4751,238.6453 C252.3611,237.3 250.1974,236.0705 248,235 C157.9851,191.1482 56.8942,198.3872 48,205 C31.1657,217.5162 27.976,243.7396 27.6598,259.2547 " fill="none" style="stroke:#C6C6C6;stroke-width:1.0;"/><polygon fill="#C6C6C6" points="27.6598,259.2547,31.8424,250.3381,27.7617,254.2557,23.844,250.1751,27.6598,259.2547" style="stroke:#C6C6C6;stroke-width:1.0;"/></g></svg>