<?xml version="1.0" encoding="UTF-8" standalone="no"?><svg xmlns="http://www.w3.org/2000/svg" xmlns:xlink="http://www.w3.org/1999/xlink" contentScriptType="application/ecmascript" contentStyleType="text/css" height="323px" preserveAspectRatio="none" style="width:254px;height:323px;" version="1.1" viewBox="0 0 254 323" width="254px" zoomAndPan="magnify"><defs><style type="text/css"><![CDATA[*.f_222222_dddddd {fill:#222222;}*.f_f8f8f8_070707 {fill:#f8f8f8;}*.s_181818_e7e7e7 {stroke:#181818;}*.f_000000_ffffff {fill:#000000;}@media (prefers-color-scheme:dark) {*.f_222222_dddddd {fill:#dddddd;}*.f_f8f8f8_070707 {fill:#070707;}*.s_181818_e7e7e7 {stroke:#e7e7e7;}*.f_000000_ffffff {fill:#ffffff;}}]]></style></defs><g><!--MD5=[5c98656a7f8540602bd14dbface65fde]
cluster Somp--><rect height="205" rx="3.5" ry="3.5" style="stroke:#393939;stroke-width:1.5;fill:none;" width="168" x="14" y="34"/><rect height="172.7031" rx="3.5" ry="3.5" style="stroke:#00000000;stroke-width:1.0;fill:none;" width="162" x="17" y="63.2969"/><line style="stroke:#393939;stroke-width:1.5;fill:none;" x1="14" x2="182" y1="60.2969" y2="60.2969"/><text fill="#000000" font-family="sans-serif" font-size="14" lengthAdjust="spacing" textLength="40" x="78" y="51.9951">Somp</text><ellipse class="f_222222_dddddd" cx="81" cy="11" rx="10" ry="10" style="stroke:none;stroke-width:1.0;"/><g id="Foo"><rect class="f_f8f8f8_070707 s_181818_e7e7e7" height="50" rx="3.5" ry="3.5" style="stroke-width:1.5;" width="50" x="124" y="267"/><line class="s_181818_e7e7e7" style="stroke-width:1.5;" x1="124" x2="174" y1="293.2969" y2="293.2969"/><text class="f_000000_ffffff" font-family="sans-serif" font-size="14" lengthAdjust="spacing" textLength="26" x="136" y="284.9951">Foo</text></g><g id="Foo1"><rect class="f_f8f8f8_070707 s_181818_e7e7e7" height="50" rx="3.5" ry="3.5" style="stroke-width:1.5;" width="55" x="192.5" y="121"/><line class="s_181818_e7e7e7" style="stroke-width:1.5;" x1="192.5" x2="247.5" y1="147.2969" y2="147.2969"/><text class="f_000000_ffffff" font-family="sans-serif" font-size="14" lengthAdjust="spacing" textLength="35" x="202.5" y="138.9951">Foo1</text></g><text fill="#000000" font-family="sans-serif" font-size="14" lengthAdjust="spacing" textLength="44" x="57" y="45.6982">entry1</text><ellipse class="f_f8f8f8_070707 s_181818_e7e7e7" cx="79" cy="67" rx="6" ry="6" style="stroke-width:1.5;"/><text fill="#000000" font-family="sans-serif" font-size="14" lengthAdjust="spacing" textLength="44" x="6" y="118.6982">entry2</text><ellipse class="f_f8f8f8_070707 s_181818_e7e7e7" cx="28" cy="140" rx="6" ry="6" style="stroke-width:1.5;"/><g id="Somp.sin"><rect class="f_f8f8f8_070707 s_181818_e7e7e7" height="50" rx="3.5" ry="3.5" style="stroke-width:1.5;" width="50" x="56" y="121"/><line class="s_181818_e7e7e7" style="stroke-width:1.5;" x1="56" x2="106" y1="147.2969" y2="147.2969"/><text class="f_000000_ffffff" font-family="sans-serif" font-size="14" lengthAdjust="spacing" textLength="20" x="71" y="138.9951">sin</text></g><g id="Somp.sin2"><rect class="f_f8f8f8_070707 s_181818_e7e7e7" height="50" rx="3.5" ry="3.5" style="stroke-width:1.5;" width="50" x="124" y="121"/><line class="s_181818_e7e7e7" style="stroke-width:1.5;" x1="124" x2="174" y1="147.2969" y2="147.2969"/><text class="f_000000_ffffff" font-family="sans-serif" font-size="14" lengthAdjust="spacing" textLength="29" x="134.5" y="138.9951">sin2</text></g><text fill="#000000" font-family="sans-serif" font-size="14" lengthAdjust="spacing" textLength="33" x="130.5" y="191.6982">exitA</text><ellipse class="f_f8f8f8_070707 s_181818_e7e7e7" cx="147" cy="213" rx="6" ry="6" style="stroke-width:1.5;"/><line class="s_181818_e7e7e7" style="stroke-width:1.5;" x1="151.3891" x2="143.6109" y1="217.3891" y2="209.6109"/><line class="s_181818_e7e7e7" style="stroke-width:1.5;" x1="151.3891" x2="143.6109" y1="209.6109" y2="217.3891"/><path d="M81,85.0938 C81,94.6101 81,108.6616 81,120.7644 " fill="none" style="stroke:#191919;stroke-width:1.0;"/><polygon fill="#191919" points="81,120.7644,85,111.7644,81,115.7644,77,111.7644,81,120.7644" style="stroke:#191919;stroke-width:1.0;"/><path d="M38.3672,146 C44.1404,146 49.9136,146 55.6868,146 " fill="none" style="stroke:#191919;stroke-width:1.0;"/><polygon fill="#191919" points="55.6868,146,46.6868,142,50.6868,146,46.6868,150,55.6868,146" style="stroke:#191919;stroke-width:1.0;"/><path d="M106.2344,146 C112.1369,146 118.0395,146 123.942,146 " fill="none" style="stroke:#191919;stroke-width:1.0;"/><polygon fill="#191919" points="123.942,146,114.942,142,118.942,146,114.942,150,123.942,146" style="stroke:#191919;stroke-width:1.0;"/><path d="M149,171.0374 C149,183.1063 149,197.1553 149,206.7204 " fill="none" style="stroke:#191919;stroke-width:1.0;"/><polygon fill="#191919" points="149,206.7204,153,197.7204,149,201.7204,145,197.7204,149,206.7204" style="stroke:#191919;stroke-width:1.0;"/><path d="M81,25.183 C81,35.4535 81,50.5917 81,60.8513 " fill="none" style="stroke:#191919;stroke-width:1.0;"/><polygon fill="#191919" points="81,60.8513,85,51.8513,81,55.8513,77,51.8513,81,60.8513" style="stroke:#191919;stroke-width:1.0;"/><path d="M149,231.0938 C149,240.6101 149,254.6616 149,266.7644 " fill="none" style="stroke:#191919;stroke-width:1.0;"/><polygon fill="#191919" points="149,266.7644,153,257.7644,149,261.7644,145,257.7644,149,266.7644" style="stroke:#191919;stroke-width:1.0;"/><path d="M201.1498,120.6975 C194.4016,113.6041 186.1686,106.7978 177,103 C127.3158,82.4201 102.8426,76.5836 56,103 C44.4498,109.5136 37.4494,123.4515 33.6679,133.701 " fill="none" style="stroke:#191919;stroke-width:1.0;"/><polygon fill="#191919" points="33.6679,133.701,40.5359,126.6419,35.3986,129.0101,33.0304,123.8728,33.6679,133.701" style="stroke:#191919;stroke-width:1.0;"/></g></svg>