<?xml version="1.0" encoding="UTF-8" standalone="no"?><svg xmlns="http://www.w3.org/2000/svg" xmlns:xlink="http://www.w3.org/1999/xlink" contentStyleType="text/css" height="619.7917px" preserveAspectRatio="none" style="width:391px;height:619px;background:#00000000;" version="1.1" viewBox="0 0 391 619" width="391.6667px" zoomAndPan="magnify"><defs><linearGradient id="g1so4omcopfz6z0" x1="50%" x2="50%" y1="0%" y2="100%"><stop offset="0%" stop-color="#565656"/><stop offset="100%" stop-color="#3A3A3A"/></linearGradient><linearGradient id="g1so4omcopfz6z1" x1="50%" x2="50%" y1="0%" y2="100%"><stop offset="0%" stop-color="#3A3A3A"/><stop offset="100%" stop-color="#262626"/></linearGradient></defs><g><g id="elem_choice1"><polygon fill="url(#g1so4omcopfz6z0)" points="260.9375,114.5833,273.4375,127.0833,260.9375,139.5833,248.4375,127.0833,260.9375,114.5833" style="stroke:#3A3A3A;stroke-width:1.0416666666666667;"/></g><rect fill="#00FF00" height="8.3333" style="stroke:none;stroke-width:1.0416666666666667;" width="83.3333" x="115.1042" y="217.7083"/><rect fill="#00FF00" height="8.3333" style="stroke:none;stroke-width:1.0416666666666667;" width="83.3333" x="123.4375" y="469.2708"/><ellipse cx="300.5208" cy="228.125" fill="none" rx="10.4167" ry="10.4167" style="stroke:#0060A8;stroke-width:1.0416666666666667;"/><ellipse cx="301.0417" cy="228.6458" fill="#0060A8" rx="6.25" ry="6.25" style="stroke:none;stroke-width:1.0416666666666667;"/><ellipse cx="260.9375" cy="21.875" fill="#262626" rx="10.4167" ry="10.4167" style="stroke:none;stroke-width:1.0416666666666667;"/><g id="State1"><rect fill="url(#g1so4omcopfz6z1)" height="55.0049" rx="4.1667" ry="4.1667" style="stroke:#262626;stroke-width:1.0416666666666667;" width="69.7917" x="17.7083" y="454.1667"/><line style="stroke:#262626;stroke-width:1.0416666666666667;" x1="17.7083" x2="87.5" y1="488.3382" y2="488.3382"/><text fill="#FEFEFE" font-family="&quot;Verdana&quot;" font-size="11.4583" lengthAdjust="spacing" textLength="38.5417" x="33.3333" y="475.2192">State1</text></g><g id="State2"><rect fill="url(#g1so4omcopfz6z1)" height="55.0049" rx="4.1667" ry="4.1667" style="stroke:#262626;stroke-width:1.0416666666666667;" width="69.7917" x="132.2917" y="320.8333"/><line style="stroke:#262626;stroke-width:1.0416666666666667;" x1="132.2917" x2="202.0833" y1="355.0049" y2="355.0049"/><text fill="#FEFEFE" font-family="&quot;Verdana&quot;" font-size="11.4583" lengthAdjust="spacing" textLength="38.5417" x="147.9167" y="341.8859">State2</text></g><ellipse cx="106.7708" cy="597.9167" fill="none" rx="10.4167" ry="10.4167" style="stroke:#0060A8;stroke-width:1.0416666666666667;"/><ellipse cx="107.2917" cy="598.4375" fill="#0060A8" rx="6.25" ry="6.25" style="stroke:none;stroke-width:1.0416666666666667;"/><path d="M260.9375,36.5908 C260.9375,55.9777 260.9375,94.7711 260.9375,114.2748 " fill="none" style="stroke:#303030;stroke-width:3.125;"/><polygon fill="#303030" points="260.9375,114.2748,265.1042,104.8998,260.9375,109.0665,256.7708,104.8998,260.9375,114.2748" style="stroke:#303030;stroke-width:1.0416666666666667;"/><text fill="#FFFFFF" font-family="Verdana" font-size="12.5" lengthAdjust="spacing" textLength="64.5833" x="267.1875" y="73.0611">from start</text><text fill="#FFFFFF" font-family="Verdana" font-size="12.5" lengthAdjust="spacing" textLength="60.4167" x="269.2708" y="87.6119">to choice</text><path d="M248.1875,127.4877 C225.6831,127.1463 179.2718,130.1209 157.8125,158.3333 C144.7825,175.4638 149.0802,202.2742 153.1043,217.5251 " fill="none" style="stroke:#303030;stroke-width:3.125;"/><polygon fill="#303030" points="153.1043,217.5251,154.7412,207.3973,151.7755,212.4891,146.6837,209.5234,153.1043,217.5251" style="stroke:#303030;stroke-width:1.0416666666666667;"/><text fill="#FFFFFF" font-family="Verdana" font-size="12.5" lengthAdjust="spacing" textLength="76.0417" x="164.0625" y="176.1861">from choice</text><text fill="#FFFFFF" font-family="Verdana" font-size="12.5" lengthAdjust="spacing" textLength="42.7083" x="180.7292" y="190.7369">to fork</text><path d="M261.8367,139.6037 C265.5069,189.1918 277.7214,384.7959 246.3542,435.4167 C236.4857,451.3424 218.8781,462.1391 202.5712,469.1851 " fill="none" style="stroke:#303030;stroke-width:3.125;"/><polygon fill="#303030" points="202.5712,469.1851,212.8299,469.2915,207.3523,467.1193,209.5245,461.6417,202.5712,469.1851" style="stroke:#303030;stroke-width:1.0416666666666667;"/><text fill="#FFFFFF" font-family="Verdana" font-size="12.5" lengthAdjust="spacing" textLength="76.0417" x="274.4792" y="279.3111">from choice</text><text fill="#FFFFFF" font-family="Verdana" font-size="12.5" lengthAdjust="spacing" textLength="40.625" x="292.1875" y="293.8619">to join</text><path d="M266.9218,139.7515 C269.6865,145.3097 272.9242,152.0969 275.5208,158.3333 C284.0422,178.7998 292.2706,203.3202 296.8374,217.4852 " fill="none" style="stroke:#303030;stroke-width:3.125;"/><polygon fill="#303030" points="296.8374,217.4852,297.9263,207.2839,295.2392,212.5281,289.995,209.841,296.8374,217.4852" style="stroke:#303030;stroke-width:1.0416666666666667;"/><text fill="#FFFFFF" font-family="Verdana" font-size="12.5" lengthAdjust="spacing" textLength="76.0417" x="297.3958" y="176.1861">from choice</text><text fill="#FFFFFF" font-family="Verdana" font-size="12.5" lengthAdjust="spacing" textLength="42.7083" x="314.0625" y="190.7369">to end</text><path d="M134.0133,242.7589 C108.4911,257.0988 68.4631,284.2453 51.5625,320.8333 C31.5981,364.054 38.8504,421.1262 45.8132,454.0939 " fill="none" style="stroke:#303030;stroke-width:3.125;"/><polygon fill="#303030" points="45.8132,454.0939,47.9526,444.0602,44.7369,448.9979,39.7991,445.7822,45.8132,454.0939" style="stroke:#303030;stroke-width:1.0416666666666667;"/><text fill="#FFFFFF" font-family="Verdana" font-size="12.5" lengthAdjust="spacing" textLength="58.3333" x="57.8125" y="345.9778">from fork</text><text fill="#FFFFFF" font-family="Verdana" font-size="12.5" lengthAdjust="spacing" textLength="52.0833" x="60.9375" y="360.5286">to state</text><path d="M157.8077,242.8111 C159.4236,260.8279 162.5853,296.0818 164.7891,320.654 " fill="none" style="stroke:#303030;stroke-width:3.125;"/><polygon fill="#303030" points="164.7891,320.654,168.1017,310.9442,164.3239,315.4664,159.8017,311.6886,164.7891,320.654" style="stroke:#303030;stroke-width:1.0416666666666667;"/><text fill="#FFFFFF" font-family="Verdana" font-size="12.5" lengthAdjust="spacing" textLength="58.3333" x="169.2708" y="279.3111">from fork</text><text fill="#FFFFFF" font-family="Verdana" font-size="12.5" lengthAdjust="spacing" textLength="52.0833" x="172.3958" y="293.8619">to state</text><path d="M166.5224,376.3137 C166.3852,382.3895 166.2508,388.8123 166.1458,394.7917 C165.6797,421.3466 165.3582,452.5209 165.2055,469.0525 " fill="none" style="stroke:#303030;stroke-width:3.125;"/><polygon fill="#303030" points="165.2055,469.0525,169.4586,459.7164,165.2536,463.8444,161.1256,459.6394,165.2055,469.0525" style="stroke:#303030;stroke-width:1.0416666666666667;"/><text fill="#FFFFFF" font-family="Verdana" font-size="12.5" lengthAdjust="spacing" textLength="67.7083" x="172.3958" y="412.6444">from state</text><text fill="#FFFFFF" font-family="Verdana" font-size="12.5" lengthAdjust="spacing" textLength="40.625" x="185.9375" y="427.1952">to join</text><path d="M47.7126,509.4726 C45.8245,527.4579 46.2102,551.0473 56.7708,568.75 C65.4999,583.3824 84.3052,591.8194 96.2025,595.8908 " fill="none" style="stroke:#303030;stroke-width:3.125;"/><polygon fill="#303030" points="96.2025,595.8908,88.6816,588.9132,91.2747,594.2045,85.9834,596.7976,96.2025,595.8908" style="stroke:#303030;stroke-width:1.0416666666666667;"/><text fill="#FFFFFF" font-family="Verdana" font-size="12.5" lengthAdjust="spacing" textLength="67.7083" x="63.0208" y="545.9778">from state</text><text fill="#FFFFFF" font-family="Verdana" font-size="12.5" lengthAdjust="spacing" textLength="42.7083" x="75.5208" y="560.5286">to end</text><path d="M163.1061,494.3846 C159.7528,511.6042 151.8512,544.5388 136.9792,568.75 C131.7773,577.2185 123.7444,585.0982 117.2695,590.6853 " fill="none" style="stroke:#303030;stroke-width:3.125;"/><polygon fill="#303030" points="117.2695,590.6853,127.0894,587.7153,121.2128,587.2827,121.6453,581.4061,117.2695,590.6853" style="stroke:#303030;stroke-width:1.0416666666666667;"/><text fill="#FFFFFF" font-family="Verdana" font-size="12.5" lengthAdjust="spacing" textLength="56.25" x="160.9375" y="545.9778">from join</text><text fill="#FFFFFF" font-family="Verdana" font-size="12.5" lengthAdjust="spacing" textLength="42.7083" x="167.7083" y="560.5286">to end</text></g></svg>