<?xml version="1.0" encoding="UTF-8" standalone="no"?><svg xmlns="http://www.w3.org/2000/svg" xmlns:xlink="http://www.w3.org/1999/xlink" contentScriptType="application/ecmascript" contentStyleType="text/css" height="337px" preserveAspectRatio="none" style="width:261px;height:337px;background:#FFFFFF;" version="1.1" viewBox="0 0 261 337" width="261px" zoomAndPan="magnify"><defs><filter height="300%" id="f1fjiqtq3941as" width="300%" x="-1" y="-1"><feGaussianBlur result="blurOut" stdDeviation="2.0"/><feColorMatrix in="blurOut" result="blurOut2" type="matrix" values="0 0 0 0 0 0 0 0 0 0 0 0 0 0 0 0 0 0 .4 0"/><feOffset dx="4.0" dy="4.0" in="blurOut2" result="blurOut3"/><feBlend in="SourceGraphic" in2="blurOut3" mode="normal"/></filter></defs><g><!--MD5=[5c98656a7f8540602bd14dbface65fde]
cluster Somp--><rect fill="#FEFECE" filter="url(#f1fjiqtq3941as)" height="205" rx="12.5" ry="12.5" style="stroke:#A80036;stroke-width:1.5;" width="168" x="14" y="40"/><rect fill="#FFFFFF" height="172.7031" rx="12.5" ry="12.5" style="stroke:#FFFFFF;stroke-width:1.0;" width="162" x="17" y="69.2969"/><line style="stroke:#A80036;stroke-width:1.5;" x1="14" x2="182" y1="66.2969" y2="66.2969"/><text fill="#000000" font-family="sans-serif" font-size="14" lengthAdjust="spacing" textLength="40" x="78" y="57.9951">Somp</text><ellipse cx="81" cy="17" fill="#000000" filter="url(#f1fjiqtq3941as)" rx="10" ry="10" style="stroke:none;stroke-width:1.0;"/><g id="Foo"><rect fill="#FEFECE" filter="url(#f1fjiqtq3941as)" height="50" rx="12.5" ry="12.5" style="stroke:#A80036;stroke-width:1.5;" width="50" x="124" y="273"/><line style="stroke:#A80036;stroke-width:1.5;" x1="124" x2="174" y1="299.2969" y2="299.2969"/><text fill="#000000" font-family="sans-serif" font-size="14" lengthAdjust="spacing" textLength="26" x="136" y="290.9951">Foo</text></g><g id="Foo1"><rect fill="#FEFECE" filter="url(#f1fjiqtq3941as)" height="50" rx="12.5" ry="12.5" style="stroke:#A80036;stroke-width:1.5;" width="55" x="192.5" y="127"/><line style="stroke:#A80036;stroke-width:1.5;" x1="192.5" x2="247.5" y1="153.2969" y2="153.2969"/><text fill="#000000" font-family="sans-serif" font-size="14" lengthAdjust="spacing" textLength="35" x="202.5" y="144.9951">Foo1</text></g><text fill="#000000" font-family="sans-serif" font-size="14" lengthAdjust="spacing" textLength="44" x="57" y="51.6982">entry1</text><ellipse cx="79" cy="73" fill="#FEFECE" rx="6" ry="6" style="stroke:#A80036;stroke-width:1.5;"/><text fill="#000000" font-family="sans-serif" font-size="14" lengthAdjust="spacing" textLength="44" x="6" y="124.6982">entry2</text><ellipse cx="28" cy="146" fill="#FEFECE" rx="6" ry="6" style="stroke:#A80036;stroke-width:1.5;"/><g id="Somp.sin"><rect fill="#FEFECE" filter="url(#f1fjiqtq3941as)" height="50" rx="12.5" ry="12.5" style="stroke:#A80036;stroke-width:1.5;" width="50" x="56" y="127"/><line style="stroke:#A80036;stroke-width:1.5;" x1="56" x2="106" y1="153.2969" y2="153.2969"/><text fill="#000000" font-family="sans-serif" font-size="14" lengthAdjust="spacing" textLength="20" x="71" y="144.9951">sin</text></g><g id="Somp.sin2"><rect fill="#FEFECE" filter="url(#f1fjiqtq3941as)" height="50" rx="12.5" ry="12.5" style="stroke:#A80036;stroke-width:1.5;" width="50" x="124" y="127"/><line style="stroke:#A80036;stroke-width:1.5;" x1="124" x2="174" y1="153.2969" y2="153.2969"/><text fill="#000000" font-family="sans-serif" font-size="14" lengthAdjust="spacing" textLength="29" x="134.5" y="144.9951">sin2</text></g><text fill="#000000" font-family="sans-serif" font-size="14" lengthAdjust="spacing" textLength="33" x="130.5" y="197.6982">exitA</text><ellipse cx="147" cy="219" fill="#FEFECE" rx="6" ry="6" style="stroke:#A80036;stroke-width:1.5;"/><line style="stroke:#A80036;stroke-width:1.5;" x1="151.3891" x2="143.6109" y1="223.3891" y2="215.6109"/><line style="stroke:#A80036;stroke-width:1.5;" x1="151.3891" x2="143.6109" y1="215.6109" y2="223.3891"/><path d="M81,91.0938 C81,100.6101 81,114.6616 81,126.7644 " fill="none" style="stroke:#A80036;stroke-width:1.0;"/><polygon fill="#A80036" points="81,126.7644,85,117.7644,81,121.7644,77,117.7644,81,126.7644" style="stroke:#A80036;stroke-width:1.0;"/><path d="M38.3672,152 C44.1404,152 49.9136,152 55.6868,152 " fill="none" style="stroke:#A80036;stroke-width:1.0;"/><polygon fill="#A80036" points="55.6868,152,46.6868,148,50.6868,152,46.6868,156,55.6868,152" style="stroke:#A80036;stroke-width:1.0;"/><path d="M106.2344,152 C112.1369,152 118.0395,152 123.942,152 " fill="none" style="stroke:#A80036;stroke-width:1.0;"/><polygon fill="#A80036" points="123.942,152,114.942,148,118.942,152,114.942,156,123.942,152" style="stroke:#A80036;stroke-width:1.0;"/><path d="M149,177.0374 C149,189.1063 149,203.1553 149,212.7204 " fill="none" style="stroke:#A80036;stroke-width:1.0;"/><polygon fill="#A80036" points="149,212.7204,153,203.7204,149,207.7204,145,203.7204,149,212.7204" style="stroke:#A80036;stroke-width:1.0;"/><path d="M81,31.183 C81,41.4535 81,56.5917 81,66.8513 " fill="none" style="stroke:#A80036;stroke-width:1.0;"/><polygon fill="#A80036" points="81,66.8513,85,57.8513,81,61.8513,77,57.8513,81,66.8513" style="stroke:#A80036;stroke-width:1.0;"/><path d="M149,237.0938 C149,246.6101 149,260.6616 149,272.7644 " fill="none" style="stroke:#A80036;stroke-width:1.0;"/><polygon fill="#A80036" points="149,272.7644,153,263.7644,149,267.7644,145,263.7644,149,272.7644" style="stroke:#A80036;stroke-width:1.0;"/><path d="M201.1498,126.6975 C194.4016,119.6041 186.1686,112.7978 177,109 C127.3158,88.4201 102.8426,82.5836 56,109 C44.4498,115.5136 37.4494,129.4515 33.6679,139.701 " fill="none" style="stroke:#A80036;stroke-width:1.0;"/><polygon fill="#A80036" points="33.6679,139.701,40.5359,132.6419,35.3986,135.0101,33.0304,129.8728,33.6679,139.701" style="stroke:#A80036;stroke-width:1.0;"/></g></svg>