<svg xmlns="http://www.w3.org/2000/svg" xmlns:xlink="http://www.w3.org/1999/xlink" contentStyleType="text/css" height="617.7083px" preserveAspectRatio="none" style="width:375px;height:617px;" version="1.1" viewBox="0 0 375 617" width="375px" zoomAndPan="magnify"><defs><linearGradient id="g1wj57t0d3q0nn0" x1="50%" x2="50%" y1="0%" y2="100%"><stop offset="0%" stop-color="#F18E3E"/><stop offset="100%" stop-color="#EC7211"/></linearGradient></defs><g><g id="elem_choice1"><polygon fill="#EEEEEE" points="249.4792,115.625,261.9792,128.125,249.4792,140.625,236.9792,128.125,249.4792,115.625" style="stroke:#BEBEBE;stroke-width:0.5208333333333334;"/></g><rect fill="#1D8102" height="8.3333" style="stroke:none;stroke-width:1.0416666666666667;" width="83.3333" x="103.6458" y="218.75"/><rect fill="#1D8102" height="8.3333" style="stroke:none;stroke-width:1.0416666666666667;" width="83.3333" x="111.9792" y="470.3125"/><ellipse cx="290.1042" cy="230.2083" fill="none" rx="11.4583" ry="11.4583" style="stroke:#0073BB;stroke-width:1.0416666666666667;"/><ellipse cx="290.1042" cy="230.2083" fill="#222222" rx="6.25" ry="6.25" style="stroke:#0073BB;stroke-width:1.0416666666666667;"/><ellipse cx="249.4792" cy="22.9167" fill="#0073BB" rx="10.4167" ry="10.4167" style="stroke:#222222;stroke-width:1.0416666666666667;"/><g id="State1"><rect fill="url(#g1wj57t0d3q0nn0)" height="55.0049" rx="4.1667" ry="4.1667" style="stroke:#EC7211;stroke-width:0.5208333333333334;" width="69.7917" x="6.25" y="455.2083"/><line style="stroke:#EC7211;stroke-width:0.5208333333333334;" x1="6.25" x2="76.0417" y1="489.3799" y2="489.3799"/><text fill="#4E5D6C" font-family="Verdana" font-size="11.4583" lengthAdjust="spacing" textLength="38.5417" x="21.875" y="476.2609">State1</text></g><g id="State2"><rect fill="url(#g1wj57t0d3q0nn0)" height="55.0049" rx="4.1667" ry="4.1667" style="stroke:#EC7211;stroke-width:0.5208333333333334;" width="69.7917" x="120.8333" y="321.875"/><line style="stroke:#EC7211;stroke-width:0.5208333333333334;" x1="120.8333" x2="190.625" y1="356.0465" y2="356.0465"/><text fill="#4E5D6C" font-family="Verdana" font-size="11.4583" lengthAdjust="spacing" textLength="38.5417" x="136.4583" y="342.9276">State2</text></g><ellipse cx="95.3125" cy="600" fill="none" rx="11.4583" ry="11.4583" style="stroke:#0073BB;stroke-width:1.0416666666666667;"/><ellipse cx="95.3125" cy="600" fill="#222222" rx="6.25" ry="6.25" style="stroke:#0073BB;stroke-width:1.0416666666666667;"/><polygon fill="#EC7211" points="249.4792,115.3165,253.6458,105.9415,249.4792,110.1082,245.3125,105.9415,249.4792,115.3165" style="stroke:#EC7211;stroke-width:1.0416666666666667;"/><path d="M249.4792,37.6324 C249.4792,57.0193 249.4792,89.5628 249.4792,109.0665 " fill="none" style="stroke:#EC7211;stroke-width:3.125;"/><text fill="#4E5D6C" font-family="Verdana" font-size="12.5" lengthAdjust="spacing" textLength="64.5833" x="255.7292" y="74.1028">from start</text><text fill="#4E5D6C" font-family="Verdana" font-size="12.5" lengthAdjust="spacing" textLength="60.4167" x="257.8125" y="88.6536">to choice</text><polygon fill="#EC7211" points="141.6459,218.5668,143.2829,208.439,140.3172,213.5308,135.2253,210.565,141.6459,218.5668" style="stroke:#EC7211;stroke-width:1.0416666666666667;"/><path d="M236.7292,128.5293 C214.2247,128.1879 167.8135,131.1626 146.3542,159.375 C133.3242,176.5055 136.0273,197.2726 140.0514,212.5236 " fill="none" style="stroke:#EC7211;stroke-width:3.125;"/><text fill="#4E5D6C" font-family="Verdana" font-size="12.5" lengthAdjust="spacing" textLength="76.0417" x="152.6042" y="177.2278">from choice</text><text fill="#4E5D6C" font-family="Verdana" font-size="12.5" lengthAdjust="spacing" textLength="42.7083" x="169.2708" y="191.7786">to fork</text><polygon fill="#EC7211" points="191.1129,470.2268,201.3715,470.3331,195.894,468.1609,198.0662,462.6834,191.1129,470.2268" style="stroke:#EC7211;stroke-width:1.0416666666666667;"/><path d="M250.3783,140.6454 C254.0486,190.2334 266.2631,385.8376 234.8958,436.4583 C225.0274,452.3841 213.1571,460.7018 196.8502,467.7478 " fill="none" style="stroke:#EC7211;stroke-width:3.125;"/><text fill="#4E5D6C" font-family="Verdana" font-size="12.5" lengthAdjust="spacing" textLength="76.0417" x="263.0208" y="280.3528">from choice</text><text fill="#4E5D6C" font-family="Verdana" font-size="12.5" lengthAdjust="spacing" textLength="40.625" x="280.7292" y="294.9036">to join</text><polygon fill="#EC7211" points="286.2058,218.5404,287.129,208.3228,284.5274,213.61,279.2402,211.0083,286.2058,218.5404" style="stroke:#EC7211;stroke-width:1.0416666666666667;"/><path d="M255.4271,140.8084 C258.1839,146.37 261.4254,153.1556 264.0625,159.375 C272.7575,179.8815 279.3742,198.4723 284.1917,212.6239 " fill="none" style="stroke:#EC7211;stroke-width:3.125;"/><text fill="#4E5D6C" font-family="Verdana" font-size="12.5" lengthAdjust="spacing" textLength="76.0417" x="285.9375" y="177.2278">from choice</text><text fill="#4E5D6C" font-family="Verdana" font-size="12.5" lengthAdjust="spacing" textLength="42.7083" x="302.6042" y="191.7786">to end</text><polygon fill="#EC7211" points="34.3548,455.1355,36.4943,445.1019,33.2786,450.0396,28.3408,446.8239,34.3548,455.1355" style="stroke:#EC7211;stroke-width:1.0416666666666667;"/><path d="M122.555,243.8005 C97.0328,258.1404 57.0048,285.287 40.1042,321.875 C20.1398,365.0957 26.1005,416.0528 33.0633,449.0204 " fill="none" style="stroke:#EC7211;stroke-width:3.125;"/><text fill="#4E5D6C" font-family="Verdana" font-size="12.5" lengthAdjust="spacing" textLength="58.3333" x="46.3542" y="347.0194">from fork</text><text fill="#4E5D6C" font-family="Verdana" font-size="12.5" lengthAdjust="spacing" textLength="52.0833" x="49.4792" y="361.5702">to state</text><polygon fill="#EC7211" points="153.3308,321.6956,156.6434,311.9859,152.8655,316.5081,148.3433,312.7303,153.3308,321.6956" style="stroke:#EC7211;stroke-width:1.0416666666666667;"/><path d="M146.3494,243.8528 C147.9652,261.8696 150.5687,290.8984 152.7725,315.4706 " fill="none" style="stroke:#EC7211;stroke-width:3.125;"/><text fill="#4E5D6C" font-family="Verdana" font-size="12.5" lengthAdjust="spacing" textLength="58.3333" x="157.8125" y="280.3528">from fork</text><text fill="#4E5D6C" font-family="Verdana" font-size="12.5" lengthAdjust="spacing" textLength="52.0833" x="160.9375" y="294.9036">to state</text><polygon fill="#EC7211" points="153.7472,470.0942,158.0002,460.758,153.7953,464.886,149.6673,460.6811,153.7472,470.0942" style="stroke:#EC7211;stroke-width:1.0416666666666667;"/><path d="M155.0641,377.3554 C154.9269,383.4312 154.7925,389.8539 154.6875,395.8333 C154.2213,422.3883 153.9575,447.3128 153.8049,463.8444 " fill="none" style="stroke:#EC7211;stroke-width:3.125;"/><text fill="#4E5D6C" font-family="Verdana" font-size="12.5" lengthAdjust="spacing" textLength="67.7083" x="160.9375" y="413.6861">from state</text><text fill="#4E5D6C" font-family="Verdana" font-size="12.5" lengthAdjust="spacing" textLength="40.625" x="174.4792" y="428.2369">to join</text><polygon fill="#EC7211" points="83.4438,596.4795,76.0002,589.4195,78.5349,594.739,73.2154,597.2737,83.4438,596.4795" style="stroke:#EC7211;stroke-width:1.0416666666666667;"/><path d="M36.2543,510.5143 C34.3661,528.4996 34.7519,552.089 45.3125,569.7917 C53.7298,583.9015 65.6258,590.1619 77.5531,594.3909 " fill="none" style="stroke:#EC7211;stroke-width:3.125;"/><text fill="#4E5D6C" font-family="Verdana" font-size="12.5" lengthAdjust="spacing" textLength="67.7083" x="51.5625" y="547.0194">from state</text><text fill="#4E5D6C" font-family="Verdana" font-size="12.5" lengthAdjust="spacing" textLength="42.7083" x="64.0625" y="561.5702">to end</text><polygon fill="#EC7211" points="106.9866,590.7021,116.7754,587.631,110.8946,587.2591,111.2665,581.3783,106.9866,590.7021" style="stroke:#EC7211;stroke-width:1.0416666666666667;"/><path d="M151.6478,495.4263 C148.2944,512.6459 140.3929,545.5805 125.5208,569.7917 C120.6295,577.7546 117.9247,581.0653 111.6761,586.5705 " fill="none" style="stroke:#EC7211;stroke-width:3.125;"/><text fill="#4E5D6C" font-family="Verdana" font-size="12.5" lengthAdjust="spacing" textLength="56.25" x="149.4792" y="547.0194">from join</text><text fill="#4E5D6C" font-family="Verdana" font-size="12.5" lengthAdjust="spacing" textLength="42.7083" x="156.25" y="561.5702">to end</text></g></svg>