<?xml version="1.0" encoding="us-ascii" standalone="no"?><svg xmlns="http://www.w3.org/2000/svg" xmlns:xlink="http://www.w3.org/1999/xlink" contentStyleType="text/css" height="555px" preserveAspectRatio="none" style="width:338px;height:555px;background:#282828;" version="1.1" viewBox="0 0 338 555" width="338px" zoomAndPan="magnify"><defs/><g><rect fill="#282828" height="555" style="stroke:none;stroke-width:1.0;" width="338" x="0" y="0"/><g id="elem_choice1"><polygon fill="#282828" points="227.5,109,239.5,121,227.5,133,215.5,121,227.5,109" style="stroke:#33FF33;stroke-width:1.0;"/></g><rect fill="#33FF33" height="8" style="stroke:none;stroke-width:1.0;" width="80" x="95.5" y="201"/><rect fill="#33FF33" height="8" style="stroke:none;stroke-width:1.0;" width="80" x="103.5" y="424"/><ellipse cx="265.5" cy="211" fill="none" rx="10" ry="10" style="stroke:#33FF33;stroke-width:1.0;"/><ellipse cx="266" cy="211.5" fill="#33FF33" rx="6" ry="6" style="stroke:none;stroke-width:1.0;"/><ellipse cx="227.5" cy="27" fill="#33FF33" rx="10" ry="10" style="stroke:none;stroke-width:1.0;"/><g id="State1"><rect fill="#282828" height="50" rx="12.5" ry="12.5" style="stroke:#33FF33;stroke-width:1.0;" width="65" x="11" y="411"/><line style="stroke:#33FF33;stroke-width:1.0;" x1="11" x2="76" y1="437.2969" y2="437.2969"/><text fill="#33FF33" font-family="Verdana" font-size="14" lengthAdjust="spacing" textLength="45" x="21" y="428.9951">State1</text></g><g id="State2"><rect fill="#282828" height="50" rx="12.5" ry="12.5" style="stroke:#33FF33;stroke-width:1.0;" width="65" x="113" y="293"/><line style="stroke:#33FF33;stroke-width:1.0;" x1="113" x2="178" y1="319.2969" y2="319.2969"/><text fill="#33FF33" font-family="Verdana" font-size="14" lengthAdjust="spacing" textLength="45" x="123" y="310.9951">State2</text></g><ellipse cx="91.5" cy="539" fill="none" rx="10" ry="10" style="stroke:#33FF33;stroke-width:1.0;"/><ellipse cx="92" cy="539.5" fill="#33FF33" rx="6" ry="6" style="stroke:none;stroke-width:1.0;"/><path d="M227.5,41.0358 C227.5,58.3092 227.5,91.5451 227.5,108.874 " fill="none" style="stroke:#33FF33;stroke-width:1.0;"/><polygon fill="#33FF33" points="227.5,108.874,231.5,99.874,227.5,103.874,223.5,99.874,227.5,108.874" style="stroke:#33FF33;stroke-width:1.0;"/><text fill="#33FF33" font-family="Verdana" font-size="13" lengthAdjust="spacing" textLength="64" x="228.5" y="72.0669">from start</text><text fill="#33FF33" font-family="Verdana" font-size="13" lengthAdjust="spacing" textLength="58" x="231.5" y="87.1997">to choice</text><path d="M215.2632,121.7616 C195.0294,122.1125 155.001,126.117 136.5,151 C125.7565,165.4495 128.8407,187.608 132.1254,200.865 " fill="none" style="stroke:#33FF33;stroke-width:1.0;"/><polygon fill="#33FF33" points="132.1254,200.865,133.8435,191.1672,130.9229,196.0118,126.0783,193.0912,132.1254,200.865" style="stroke:#33FF33;stroke-width:1.0;"/><text fill="#33FF33" font-family="Verdana" font-size="13" lengthAdjust="spacing" textLength="75" x="137.5" y="164.0669">from choice</text><text fill="#33FF33" font-family="Verdana" font-size="13" lengthAdjust="spacing" textLength="41" x="154.5" y="179.1997">to fork</text><path d="M230.3545,133.12 C239.7225,172.1965 266.0269,305.5693 213.5,393 C204.9606,407.2138 189.6053,417.2082 175.4479,423.871 " fill="none" style="stroke:#33FF33;stroke-width:1.0;"/><polygon fill="#33FF33" points="175.4479,423.871,185.2945,423.6578,179.972,421.7419,181.8879,416.4193,175.4479,423.871" style="stroke:#33FF33;stroke-width:1.0;"/><text fill="#33FF33" font-family="Verdana" font-size="13" lengthAdjust="spacing" textLength="75" x="246.5" y="256.0669">from choice</text><text fill="#33FF33" font-family="Verdana" font-size="13" lengthAdjust="spacing" textLength="39" x="264.5" y="271.1997">to join</text><path d="M233.1499,133.202 C235.7831,138.5468 238.9013,145.0582 241.5,151 C248.979,168.1 256.7251,188.325 261.3268,200.6533 " fill="none" style="stroke:#33FF33;stroke-width:1.0;"/><polygon fill="#33FF33" points="261.3268,200.6533,261.927,190.8228,259.5783,195.969,254.4321,193.6203,261.3268,200.6533" style="stroke:#33FF33;stroke-width:1.0;"/><text fill="#33FF33" font-family="Verdana" font-size="13" lengthAdjust="spacing" textLength="75" x="255.5" y="164.0669">from choice</text><text fill="#33FF33" font-family="Verdana" font-size="13" lengthAdjust="spacing" textLength="41" x="272.5" y="179.1997">to end</text><path d="M113.979,225.1193 C91.6163,238.0281 57.9131,261.6257 43.5,293 C25.9533,331.1954 31.7794,381.5012 37.6282,410.8434 " fill="none" style="stroke:#33FF33;stroke-width:1.0;"/><polygon fill="#33FF33" points="37.6282,410.8434,39.7917,401.2351,36.6508,405.9399,31.946,402.799,37.6282,410.8434" style="stroke:#33FF33;stroke-width:1.0;"/><text fill="#33FF33" font-family="Verdana" font-size="13" lengthAdjust="spacing" textLength="58" x="44.5" y="315.0669">from fork</text><text fill="#33FF33" font-family="Verdana" font-size="13" lengthAdjust="spacing" textLength="50" x="48.5" y="330.1997">to state</text><path d="M136.5702,225.0228 C138.1321,241.1108 141.0763,271.4354 143.1562,292.8592 " fill="none" style="stroke:#33FF33;stroke-width:1.0;"/><polygon fill="#33FF33" points="143.1562,292.8592,146.2678,283.5148,142.6731,287.8826,138.3053,284.2879,143.1562,292.8592" style="stroke:#33FF33;stroke-width:1.0;"/><text fill="#33FF33" font-family="Verdana" font-size="13" lengthAdjust="spacing" textLength="58" x="142.5" y="256.0669">from fork</text><text fill="#33FF33" font-family="Verdana" font-size="13" lengthAdjust="spacing" textLength="50" x="146.5" y="271.1997">to state</text><path d="M144.8759,343.4289 C144.7404,349.1909 144.6061,355.3119 144.5,361 C144.0829,383.3523 143.7708,409.5056 143.6137,423.9667 " fill="none" style="stroke:#33FF33;stroke-width:1.0;"/><polygon fill="#33FF33" points="143.6137,423.9667,147.7112,415.0107,143.668,418.967,139.7117,414.9238,143.6137,423.9667" style="stroke:#33FF33;stroke-width:1.0;"/><text fill="#33FF33" font-family="Verdana" font-size="13" lengthAdjust="spacing" textLength="67" x="145.5" y="374.0669">from state</text><text fill="#33FF33" font-family="Verdana" font-size="13" lengthAdjust="spacing" textLength="39" x="159.5" y="389.1997">to join</text><path d="M39.5124,461.2125 C38.2245,476.4732 38.9182,496.0473 47.5,511 C54.9686,524.0131 70.9257,532.2548 81.4303,536.4979 " fill="none" style="stroke:#33FF33;stroke-width:1.0;"/><polygon fill="#33FF33" points="81.4303,536.4979,74.5834,529.4183,76.7942,534.6252,71.5872,536.836,81.4303,536.4979" style="stroke:#33FF33;stroke-width:1.0;"/><text fill="#33FF33" font-family="Verdana" font-size="13" lengthAdjust="spacing" textLength="67" x="48.5" y="492.0669">from state</text><text fill="#33FF33" font-family="Verdana" font-size="13" lengthAdjust="spacing" textLength="41" x="61.5" y="507.1997">to end</text><path d="M140.8066,448.0813 C136.8751,463.049 128.6814,490.241 116.5,511 C112.3957,517.9944 106.5255,524.9085 101.5047,530.2303 " fill="none" style="stroke:#33FF33;stroke-width:1.0;"/><polygon fill="#33FF33" points="101.5047,530.2303,110.5903,526.4289,104.9359,526.5934,104.7713,520.939,101.5047,530.2303" style="stroke:#33FF33;stroke-width:1.0;"/><text fill="#33FF33" font-family="Verdana" font-size="13" lengthAdjust="spacing" textLength="56" x="132.5" y="492.0669">from join</text><text fill="#33FF33" font-family="Verdana" font-size="13" lengthAdjust="spacing" textLength="41" x="140" y="507.1997">to end</text></g></svg>