<svg xmlns="http://www.w3.org/2000/svg" xmlns:xlink="http://www.w3.org/1999/xlink" contentStyleType="text/css" height="206.25px" preserveAspectRatio="none" style="width:505px;height:206px;background:#FDF6E3;" version="1.1" viewBox="0 0 505 206" width="505.2083px" zoomAndPan="magnify"><defs/><g><rect fill="#FDF6E3" height="206.25" style="stroke:none;stroke-width:1.0416666666666667;" width="505.2083" x="0" y="0"/><line style="stroke:#333333;stroke-width:0.5208333333333334;" x1="10.4167" x2="10.4167" y1="10.4167" y2="175.8667"/><line style="stroke:#333333;stroke-width:0.5208333333333334;" x1="487.5" x2="487.5" y1="10.4167" y2="175.8667"/><rect fill="#FFD700" height="165.45" style="stroke:none;stroke-width:1.0416666666666667;" width="130.2083" x="169.7917" y="10.4167"/><rect fill="#EEEEEE" height="165.45" style="stroke:none;stroke-width:1.0416666666666667;" width="52.0833" x="378.125" y="10.4167"/><line style="stroke:#333333;stroke-width:0.5208333333333334;stroke-dasharray:3.0,5.0;" x1="65.625" x2="65.625" y1="10.4167" y2="175.8667"/><line style="stroke:#333333;stroke-width:0.5208333333333334;stroke-dasharray:3.0,5.0;" x1="117.7083" x2="117.7083" y1="10.4167" y2="175.8667"/><line style="stroke:#333333;stroke-width:0.5208333333333334;stroke-dasharray:3.0,5.0;" x1="169.7917" x2="169.7917" y1="10.4167" y2="175.8667"/><line style="stroke:#333333;stroke-width:0.5208333333333334;stroke-dasharray:3.0,5.0;" x1="221.875" x2="221.875" y1="10.4167" y2="175.8667"/><line style="stroke:#333333;stroke-width:0.5208333333333334;stroke-dasharray:3.0,5.0;" x1="273.9583" x2="273.9583" y1="10.4167" y2="175.8667"/><line style="stroke:#333333;stroke-width:0.5208333333333334;stroke-dasharray:3.0,5.0;" x1="326.0417" x2="326.0417" y1="10.4167" y2="175.8667"/><line style="stroke:#333333;stroke-width:0.5208333333333334;stroke-dasharray:3.0,5.0;" x1="378.125" x2="378.125" y1="10.4167" y2="175.8667"/><line style="stroke:#333333;stroke-width:0.5208333333333334;stroke-dasharray:3.0,5.0;" x1="430.2083" x2="430.2083" y1="10.4167" y2="175.8667"/><line style="stroke:#333333;stroke-width:0.5208333333333334;stroke-dasharray:3.0,5.0;" x1="482.2917" x2="482.2917" y1="10.4167" y2="175.8667"/><line style="stroke:#333333;stroke-width:0.5208333333333334;" x1="10.4167" x2="487.5" y1="10.4167" y2="10.4167"/><text fill="#333333" font-family="Dejavu Serif" font-size="14.5833" font-weight="bold" lengthAdjust="spacing" textLength="108.3333" x="15.625" y="24.1099">Web Browser</text><line style="stroke:#333333;stroke-width:0.5208333333333334;" x1="10.4167" x2="125" y1="28.5909" y2="28.5909"/><line style="stroke:#333333;stroke-width:0.5208333333333334;" x1="125" x2="135.4167" y1="28.5909" y2="10.4167"/><text fill="#333333" font-family="Dejavu Serif" font-size="12.5" lengthAdjust="spacing" textLength="23.9583" x="15.625" y="109.9365">Idle</text><text fill="#333333" font-family="Dejavu Serif" font-size="12.5" lengthAdjust="spacing" textLength="33.3333" x="15.625" y="89.1032">Proc.</text><text fill="#333333" font-family="Dejavu Serif" font-size="12.5" lengthAdjust="spacing" textLength="50" x="15.625" y="68.2699">Waiting</text><line style="stroke:#006400;stroke-width:2.0833333333333335;" x1="65.625" x2="169.7917" y1="104.5675" y2="104.5675"/><line style="stroke:#006400;stroke-width:2.0833333333333335;" x1="169.7917" x2="221.875" y1="83.7341" y2="83.7341"/><line style="stroke:#006400;stroke-width:2.0833333333333335;" x1="221.875" x2="430.2083" y1="62.9008" y2="62.9008"/><line style="stroke:#006400;stroke-width:2.0833333333333335;" x1="430.2083" x2="482.2917" y1="104.5675" y2="104.5675"/><line style="stroke:#006400;stroke-width:2.0833333333333335;" x1="169.7917" x2="169.7917" y1="83.7341" y2="104.5675"/><line style="stroke:#006400;stroke-width:2.0833333333333335;" x1="221.875" x2="221.875" y1="62.9008" y2="83.7341"/><line style="stroke:#006400;stroke-width:2.0833333333333335;" x1="430.2083" x2="430.2083" y1="62.9008" y2="104.5675"/><line style="stroke:#333333;stroke-width:0.5208333333333334;" x1="10.4167" x2="487.5" y1="117.0675" y2="117.0675"/><text fill="#333333" font-family="Dejavu Serif" font-size="14.5833" font-weight="bold" lengthAdjust="spacing" textLength="79.1667" x="15.625" y="130.7607">Web User</text><line style="stroke:#333333;stroke-width:0.5208333333333334;" x1="10.4167" x2="95.8333" y1="135.2417" y2="135.2417"/><line style="stroke:#333333;stroke-width:0.5208333333333334;" x1="95.8333" x2="106.25" y1="135.2417" y2="117.0675"/><polygon fill="#E2E2F0" points="78.125,140.45,105.2083,140.45,117.7083,152.95,105.2083,165.45,78.125,165.45,65.625,152.95" style="stroke:#006400;stroke-width:1.5625;"/><polygon fill="#E0FFFF" points="130.2083,140.45,313.5417,140.45,326.0417,152.95,313.5417,165.45,130.2083,165.45,117.7083,152.95" style="stroke:#00FFFF;stroke-width:1.5625;"/><polygon fill="#E2E2F0" points="338.5417,140.45,482.2917,140.45,482.2917,165.45,338.5417,165.45,326.0417,152.95" style="stroke:#E2E2F0;stroke-width:1.5625;"/><path d="M482.2917,140.45 L338.5417,140.45 L326.0417,152.95 L338.5417,165.45 L482.2917,165.45 " fill="#E2E2F0" style="stroke:#006400;stroke-width:1.5625;"/><text fill="#333333" font-family="Dejavu Serif" font-size="12.5" font-weight="bold" lengthAdjust="spacing" textLength="28.125" x="77.6042" y="157.3446">Idle</text><text fill="#333333" font-family="Dejavu Serif" font-size="12.5" font-weight="bold" lengthAdjust="spacing" textLength="57.2917" x="193.2292" y="157.3446">Waiting</text><text fill="#333333" font-family="Dejavu Serif" font-size="12.5" font-weight="bold" lengthAdjust="spacing" textLength="17.7083" x="338.5417" y="157.3446">ok</text><line style="stroke:#333333;stroke-width:2.0833333333333335;" x1="65.625" x2="65.625" y1="175.8667" y2="181.075"/><line style="stroke:#333333;stroke-width:2.0833333333333335;" x1="117.7083" x2="117.7083" y1="175.8667" y2="181.075"/><line style="stroke:#333333;stroke-width:2.0833333333333335;" x1="169.7917" x2="169.7917" y1="175.8667" y2="181.075"/><line style="stroke:#333333;stroke-width:2.0833333333333335;" x1="221.875" x2="221.875" y1="175.8667" y2="181.075"/><line style="stroke:#333333;stroke-width:2.0833333333333335;" x1="273.9583" x2="273.9583" y1="175.8667" y2="181.075"/><line style="stroke:#333333;stroke-width:2.0833333333333335;" x1="326.0417" x2="326.0417" y1="175.8667" y2="181.075"/><line style="stroke:#333333;stroke-width:2.0833333333333335;" x1="378.125" x2="378.125" y1="175.8667" y2="181.075"/><line style="stroke:#333333;stroke-width:2.0833333333333335;" x1="430.2083" x2="430.2083" y1="175.8667" y2="181.075"/><line style="stroke:#333333;stroke-width:2.0833333333333335;" x1="482.2917" x2="482.2917" y1="175.8667" y2="181.075"/><line style="stroke:#333333;stroke-width:2.0833333333333335;" x1="65.625" x2="482.2917" y1="175.8667" y2="175.8667"/><text fill="#333333" font-family="Dejavu Serif" font-size="11.4583" lengthAdjust="spacing" textLength="7.2917" x="61.9792" y="192.7526">0</text><text fill="#333333" font-family="Dejavu Serif" font-size="11.4583" lengthAdjust="spacing" textLength="21.875" x="106.7708" y="192.7526">100</text><text fill="#333333" font-family="Dejavu Serif" font-size="11.4583" lengthAdjust="spacing" textLength="21.875" x="158.8542" y="192.7526">200</text><text fill="#333333" font-family="Dejavu Serif" font-size="11.4583" lengthAdjust="spacing" textLength="21.875" x="210.9375" y="192.7526">300</text><text fill="#333333" font-family="Dejavu Serif" font-size="11.4583" lengthAdjust="spacing" textLength="21.875" x="315.1042" y="192.7526">500</text><text fill="#333333" font-family="Dejavu Serif" font-size="11.4583" lengthAdjust="spacing" textLength="21.875" x="419.2708" y="192.7526">700</text><line style="stroke:#657B83;stroke-width:2.0833333333333335;" x1="117.7083" x2="117.7083" y1="152.95" y2="104.5675"/><polygon fill="#657B83" points="120.5585,112.3982,114.8582,112.3982,117.7083,104.5675" style="stroke:#657B83;stroke-width:2.0833333333333335;"/><text fill="#00008B" font-family="Dejavu Serif" font-size="14.5833" lengthAdjust="spacing" textLength="33.3333" x="117.7083" y="125.9348">URL</text><line style="stroke:#657B83;stroke-width:2.0833333333333335;" x1="221.875" x2="247.9167" y1="140.45" y2="62.9008"/><polygon fill="#657B83" points="248.1257,71.2315,242.7219,69.4169,247.9167,62.9008" style="stroke:#657B83;stroke-width:2.0833333333333335;"/><text fill="#00008B" font-family="Dejavu Serif" font-size="14.5833" lengthAdjust="spacing" textLength="42.7083" x="245.4238" y="83.8608">URL2</text><line style="stroke:#696969;stroke-width:2.0833333333333335;stroke-dasharray:4.0,4.0;" x1="169.7917" x2="169.7917" y1="10.4167" y2="175.8667"/><line style="stroke:#696969;stroke-width:2.0833333333333335;stroke-dasharray:4.0,4.0;" x1="300" x2="300" y1="10.4167" y2="175.8667"/><text fill="#000000" font-family="Dejavu Serif" font-size="12.5" lengthAdjust="spacing" textLength="117.7083" x="172.9167" y="24.1028">This is my caption</text><line style="stroke:#333333;stroke-width:2.0833333333333335;stroke-dasharray:4.0,4.0;" x1="378.125" x2="378.125" y1="10.4167" y2="175.8667"/><line style="stroke:#333333;stroke-width:2.0833333333333335;stroke-dasharray:4.0,4.0;" x1="430.2083" x2="430.2083" y1="10.4167" y2="175.8667"/><text fill="#000000" font-family="Dejavu Serif" font-size="12.5" lengthAdjust="spacing" textLength="95.8333" x="381.25" y="24.1028">This is another</text><text fill="#000000" font-family="Dejavu Serif" font-size="12.5" lengthAdjust="spacing" textLength="59.375" x="381.25" y="38.6536">highlight</text></g></svg>