<?xml version="1.0" encoding="UTF-8" standalone="no"?><svg xmlns="http://www.w3.org/2000/svg" xmlns:xlink="http://www.w3.org/1999/xlink" contentScriptType="application/ecmascript" contentStyleType="text/css" height="313.5417px" preserveAspectRatio="none" style="width:481px;height:313px;background:#00000000;" version="1.1" viewBox="0 0 481 313" width="481.25px" zoomAndPan="magnify"><defs/><g><line style="stroke:#000000;stroke-width:1.7708333333333335;" x1="10.4167" x2="10.4167" y1="10.4167" y2="273.4701"/><line style="stroke:#000000;stroke-width:1.7708333333333335;" x1="463.5417" x2="463.5417" y1="10.4167" y2="273.4701"/><line style="stroke:#AAAAAA;stroke-width:0.5208333333333334;stroke-dasharray:3.0,5.0;" x1="145.8333" x2="145.8333" y1="10.4167" y2="273.4701"/><line style="stroke:#AAAAAA;stroke-width:0.5208333333333334;stroke-dasharray:3.0,5.0;" x1="197.9167" x2="197.9167" y1="10.4167" y2="273.4701"/><line style="stroke:#AAAAAA;stroke-width:0.5208333333333334;stroke-dasharray:3.0,5.0;" x1="250" x2="250" y1="10.4167" y2="273.4701"/><line style="stroke:#AAAAAA;stroke-width:0.5208333333333334;stroke-dasharray:3.0,5.0;" x1="302.0833" x2="302.0833" y1="10.4167" y2="273.4701"/><line style="stroke:#AAAAAA;stroke-width:0.5208333333333334;stroke-dasharray:3.0,5.0;" x1="354.1667" x2="354.1667" y1="10.4167" y2="273.4701"/><line style="stroke:#AAAAAA;stroke-width:0.5208333333333334;stroke-dasharray:3.0,5.0;" x1="406.25" x2="406.25" y1="10.4167" y2="273.4701"/><line style="stroke:#AAAAAA;stroke-width:0.5208333333333334;stroke-dasharray:3.0,5.0;" x1="458.3333" x2="458.3333" y1="10.4167" y2="273.4701"/><line style="stroke:#000000;stroke-width:1.7708333333333335;" x1="10.4167" x2="463.5417" y1="10.4167" y2="10.4167"/><text fill="#000000" font-family="Verdana" font-size="12.5" lengthAdjust="spacing" textLength="84.375" x="23.9583" y="30.3528">Web Browser</text><line style="stroke:#000000;stroke-width:1.0416666666666667;" x1="10.4167" x2="117.7083" y1="42.6758" y2="42.6758"/><line style="stroke:#000000;stroke-width:1.0416666666666667;" x1="117.7083" x2="128.125" y1="42.6758" y2="10.4167"/><text fill="#000000" font-family="Verdana" font-size="12.5" lengthAdjust="spacing" textLength="62.5" x="23.9583" y="154.6041">Initializing</text><text fill="#000000" font-family="Verdana" font-size="12.5" lengthAdjust="spacing" textLength="22.9167" x="23.9583" y="133.7708">idle</text><text fill="#000000" font-family="Verdana" font-size="12.5" lengthAdjust="spacing" textLength="71.875" x="23.9583" y="112.9374">Processing</text><text fill="#000000" font-family="Verdana" font-size="12.5" lengthAdjust="spacing" textLength="47.9167" x="23.9583" y="92.1041">Waiting</text><line style="stroke:#038048;stroke-width:1.5625;" x1="104.1667" x2="145.8333" y1="149.235" y2="149.235"/><line style="stroke:#038048;stroke-width:1.5625;" x1="145.8333" x2="250" y1="128.4017" y2="128.4017"/><line style="stroke:#038048;stroke-width:1.5625;" x1="250" x2="302.0833" y1="107.5684" y2="107.5684"/><line style="stroke:#038048;stroke-width:1.5625;" x1="302.0833" x2="458.3333" y1="86.735" y2="86.735"/><line style="stroke:#038048;stroke-width:1.5625;" x1="145.8333" x2="145.8333" y1="128.4017" y2="149.235"/><line style="stroke:#038048;stroke-width:1.5625;" x1="250" x2="250" y1="107.5684" y2="128.4017"/><line style="stroke:#038048;stroke-width:1.5625;" x1="302.0833" x2="302.0833" y1="86.735" y2="107.5684"/><line style="stroke:#007FAF;stroke-width:1.0416666666666667;" x1="145.8333" x2="171.875" y1="123.1934" y2="123.1934"/><polygon fill="#007FAF" points="153.6641,120.3432,153.6641,126.0435,145.8333,123.1934" style="stroke:#007FAF;stroke-width:1.5625;"/><polygon fill="#007FAF" points="164.0442,126.0435,164.0442,120.3432,171.875,123.1934" style="stroke:#007FAF;stroke-width:1.5625;"/><text fill="#000000" font-family="Serif" font-size="14.5833" lengthAdjust="spacing" textLength="89.5833" x="114.0625" y="106.2124">{50 ms lag}</text><line style="stroke:#000000;stroke-width:1.7708333333333335;" x1="10.4167" x2="463.5417" y1="161.735" y2="161.735"/><text fill="#000000" font-family="Verdana" font-size="12.5" lengthAdjust="spacing" textLength="62.5" x="23.9583" y="181.6711">Web User</text><line style="stroke:#000000;stroke-width:1.0416666666666667;" x1="10.4167" x2="95.8333" y1="193.9941" y2="193.9941"/><line style="stroke:#000000;stroke-width:1.0416666666666667;" x1="95.8333" x2="106.25" y1="193.9941" y2="161.735"/><polygon fill="#D7E0F2" points="58.3333,238.0534,133.3333,238.0534,145.8333,250.5534,133.3333,263.0534,58.3333,263.0534" style="stroke:#D7E0F2;stroke-width:1.5625;"/><path d="M58.3333,238.0534 L133.3333,238.0534 L145.8333,250.5534 L133.3333,263.0534 L58.3333,263.0534 " fill="#D7E0F2" style="stroke:#038048;stroke-width:1.5625;"/><text fill="#000000" font-family="Verdana" font-size="12.5" lengthAdjust="spacing" textLength="45.8333" x="79.1667" y="254.8808">Absent</text><polygon fill="#D7E0F2" points="158.3333,238.0534,393.75,238.0534,406.25,250.5534,393.75,263.0534,158.3333,263.0534,145.8333,250.5534" style="stroke:#038048;stroke-width:1.5625;"/><polygon fill="#D7E0F2" points="418.75,238.0534,458.3333,238.0534,458.3333,263.0534,418.75,263.0534,406.25,250.5534" style="stroke:#D7E0F2;stroke-width:1.5625;"/><path d="M458.3333,238.0534 L418.75,238.0534 L406.25,250.5534 L418.75,263.0534 L458.3333,263.0534 " fill="#D7E0F2" style="stroke:#038048;stroke-width:1.5625;"/><text fill="#000000" font-family="Verdana" font-size="12.5" lengthAdjust="spacing" textLength="47.9167" x="252.0833" y="254.8808">Waiting</text><text fill="#000000" font-family="Verdana" font-size="12.5" lengthAdjust="spacing" textLength="15.625" x="427.0833" y="254.8808">ok</text><line style="stroke:#007FAF;stroke-width:1.0416666666666667;" x1="250" x2="328.125" y1="218.6279" y2="218.6279"/><polygon fill="#007FAF" points="257.8308,215.7778,257.8308,221.4781,250,218.6279" style="stroke:#007FAF;stroke-width:1.0416666666666667;"/><polygon fill="#007FAF" points="320.2942,221.4781,320.2942,215.7778,328.125,218.6279" style="stroke:#007FAF;stroke-width:1.0416666666666667;"/><text fill="#000000" font-family="Serif" font-size="14.5833" lengthAdjust="spacing" textLength="72.9167" x="252.6042" y="201.6469">{150 ms}</text><line style="stroke:#000000;stroke-width:2.0833333333333335;" x1="145.8333" x2="145.8333" y1="273.4701" y2="278.6784"/><line style="stroke:#000000;stroke-width:2.0833333333333335;" x1="197.9167" x2="197.9167" y1="273.4701" y2="278.6784"/><line style="stroke:#000000;stroke-width:2.0833333333333335;" x1="250" x2="250" y1="273.4701" y2="278.6784"/><line style="stroke:#000000;stroke-width:2.0833333333333335;" x1="302.0833" x2="302.0833" y1="273.4701" y2="278.6784"/><line style="stroke:#000000;stroke-width:2.0833333333333335;" x1="354.1667" x2="354.1667" y1="273.4701" y2="278.6784"/><line style="stroke:#000000;stroke-width:2.0833333333333335;" x1="406.25" x2="406.25" y1="273.4701" y2="278.6784"/><line style="stroke:#000000;stroke-width:2.0833333333333335;" x1="458.3333" x2="458.3333" y1="273.4701" y2="278.6784"/><line style="stroke:#000000;stroke-width:2.0833333333333335;" x1="145.8333" x2="458.3333" y1="273.4701" y2="273.4701"/><text fill="#000000" font-family="Verdana" font-size="12.5" lengthAdjust="spacing" textLength="8.3333" x="141.6667" y="299.6562">0</text><text fill="#000000" font-family="Verdana" font-size="12.5" lengthAdjust="spacing" textLength="25" x="237.5" y="299.6562">200</text><text fill="#000000" font-family="Verdana" font-size="12.5" lengthAdjust="spacing" textLength="25" x="289.5833" y="299.6562">300</text><text fill="#000000" font-family="Verdana" font-size="12.5" lengthAdjust="spacing" textLength="25" x="393.75" y="299.6562">500</text></g></svg>