<svg xmlns="http://www.w3.org/2000/svg" xmlns:xlink="http://www.w3.org/1999/xlink" contentStyleType="text/css" height="471.875px" preserveAspectRatio="none" style="width:469px;height:471px;" version="1.1" viewBox="0 0 469 471" width="469.7917px" zoomAndPan="magnify"><defs/><g><path d="M10.4167,10.4167 L10.7086,10.4167 L9.8412,20.7786 L10.6851,31.1404 L10.9718,41.5023 L9.4258,51.8642 L10.3087,62.2261 L9.8243,72.588 L9.884,82.9499 L10.322,93.3117 L9.4564,103.6736 L11.1856,114.0355 L9.5413,124.3974 L10.142,134.7593 L11.0166,145.1212 L10.2975,155.483 L10.5114,165.8449 L10.3723,176.2068 L10.6646,186.5687 L10.7488,196.9306 L11.2301,207.2925 L11.3487,217.6543 L11.3601,228.0162 L10.7703,238.3781 L11.0605,248.74 L11.392,259.1019 L9.415,269.4638 L11.359,279.8256 L10.0049,290.1875 L11.1581,300.5494 L9.7291,310.9113 L10.3215,321.2732 L11.4467,331.6351 L10.349,341.997 L10.5629,352.3588 L10.887,362.7207 L10.9948,373.0826 L10.4112,383.4445 L10.8156,393.8064 L9.6216,404.1683 L10.8116,414.5301 L11.178,424.892 L10.4167,435.2539 " fill="none" style="stroke:#2E2E2E;stroke-width:1.0416666666666667;"/><path d="M452.6591,10.4167 L452.951,10.4167 L452.0837,20.7786 L452.9276,31.1404 L453.2142,41.5023 L451.6683,51.8642 L452.5512,62.2261 L452.0667,72.588 L452.1265,82.9499 L452.5644,93.3117 L451.6989,103.6736 L453.428,114.0355 L451.7837,124.3974 L452.3844,134.7593 L453.259,145.1212 L452.54,155.483 L452.7539,165.8449 L452.6147,176.2068 L452.9071,186.5687 L452.9912,196.9306 L453.4726,207.2925 L453.5911,217.6543 L453.6025,228.0162 L453.0127,238.3781 L453.303,248.74 L453.6344,259.1019 L451.6575,269.4638 L453.6015,279.8256 L452.2473,290.1875 L453.4005,300.5494 L451.9716,310.9113 L452.564,321.2732 L453.6891,331.6351 L452.5914,341.997 L452.8054,352.3588 L453.1294,362.7207 L453.2372,373.0826 L452.6537,383.4445 L453.058,393.8064 L451.8641,404.1683 L453.0541,414.5301 L453.4205,424.892 L452.6591,435.2539 " fill="none" style="stroke:#2E2E2E;stroke-width:1.0416666666666667;"/><path d="M134.9508,10.4167 L135.2427,10.4167 L134.3753,20.7786 L135.2192,31.1404 L135.5059,41.5023 L133.9599,51.8642 L134.8428,62.2261 L134.3584,72.588 L134.4181,82.9499 L134.8561,93.3117 L133.9905,103.6736 L135.7197,114.0355 L134.0754,124.3974 L134.6761,134.7593 L135.5507,145.1212 L134.8316,155.483 L135.0455,165.8449 L134.9064,176.2068 L135.1987,186.5687 L135.2829,196.9306 L135.7642,207.2925 L135.8828,217.6543 L135.8942,228.0162 L135.3044,238.3781 L135.5946,248.74 L135.9261,259.1019 L133.9491,269.4638 L135.8931,279.8256 L134.539,290.1875 L135.6922,300.5494 L134.2632,310.9113 L134.8556,321.2732 L135.9808,331.6351 L134.8831,341.997 L135.097,352.3588 L135.4211,362.7207 L135.5289,373.0826 L134.9453,383.4445 L135.3497,393.8064 L134.1557,404.1683 L135.3457,414.5301 L135.7121,424.892 L134.9508,435.2539 " fill="none" style="stroke:#2E2E2E;stroke-width:0.5208333333333334;stroke-dasharray:3.0,5.0;"/><path d="M187.0341,10.4167 L187.326,10.4167 L186.4587,20.7786 L187.3026,31.1404 L187.5892,41.5023 L186.0433,51.8642 L186.9262,62.2261 L186.4417,72.588 L186.5015,82.9499 L186.9394,93.3117 L186.0739,103.6736 L187.803,114.0355 L186.1587,124.3974 L186.7594,134.7593 L187.634,145.1212 L186.915,155.483 L187.1289,165.8449 L186.9897,176.2068 L187.2821,186.5687 L187.3662,196.9306 L187.8476,207.2925 L187.9661,217.6543 L187.9775,228.0162 L187.3877,238.3781 L187.678,248.74 L188.0094,259.1019 L186.0325,269.4638 L187.9765,279.8256 L186.6223,290.1875 L187.7755,300.5494 L186.3466,310.9113 L186.939,321.2732 L188.0641,331.6351 L186.9664,341.997 L187.1804,352.3588 L187.5044,362.7207 L187.6122,373.0826 L187.0287,383.4445 L187.433,393.8064 L186.2391,404.1683 L187.4291,414.5301 L187.7955,424.892 L187.0341,435.2539 " fill="none" style="stroke:#2E2E2E;stroke-width:0.5208333333333334;stroke-dasharray:3.0,5.0;"/><path d="M239.1174,10.4167 L239.4094,10.4167 L238.542,20.7786 L239.3859,31.1404 L239.6725,41.5023 L238.1266,51.8642 L239.0095,62.2261 L238.5251,72.588 L238.5848,82.9499 L239.0228,93.3117 L238.1572,103.6736 L239.8864,114.0355 L238.242,124.3974 L238.8428,134.7593 L239.7174,145.1212 L238.9983,155.483 L239.2122,165.8449 L239.0731,176.2068 L239.3654,186.5687 L239.4496,196.9306 L239.9309,207.2925 L240.0495,217.6543 L240.0608,228.0162 L239.4711,238.3781 L239.7613,248.74 L240.0928,259.1019 L238.1158,269.4638 L240.0598,279.8256 L238.7056,290.1875 L239.8588,300.5494 L238.4299,310.9113 L239.0223,321.2732 L240.1474,331.6351 L239.0497,341.997 L239.2637,352.3588 L239.5877,362.7207 L239.6955,373.0826 L239.112,383.4445 L239.5163,393.8064 L238.3224,404.1683 L239.5124,414.5301 L239.8788,424.892 L239.1174,435.2539 " fill="none" style="stroke:#2E2E2E;stroke-width:0.5208333333333334;stroke-dasharray:3.0,5.0;"/><path d="M291.2008,10.4167 L291.4927,10.4167 L290.6253,20.7786 L291.4692,31.1404 L291.7559,41.5023 L290.2099,51.8642 L291.0928,62.2261 L290.6084,72.588 L290.6681,82.9499 L291.1061,93.3117 L290.2405,103.6736 L291.9697,114.0355 L290.3254,124.3974 L290.9261,134.7593 L291.8007,145.1212 L291.0816,155.483 L291.2955,165.8449 L291.1564,176.2068 L291.4487,186.5687 L291.5329,196.9306 L292.0142,207.2925 L292.1328,217.6543 L292.1442,228.0162 L291.5544,238.3781 L291.8446,248.74 L292.1761,259.1019 L290.1991,269.4638 L292.1431,279.8256 L290.789,290.1875 L291.9422,300.5494 L290.5132,310.9113 L291.1056,321.2732 L292.2308,331.6351 L291.1331,341.997 L291.347,352.3588 L291.6711,362.7207 L291.7789,373.0826 L291.1953,383.4445 L291.5997,393.8064 L290.4057,404.1683 L291.5957,414.5301 L291.9621,424.892 L291.2008,435.2539 " fill="none" style="stroke:#2E2E2E;stroke-width:0.5208333333333334;stroke-dasharray:3.0,5.0;"/><path d="M343.2841,10.4167 L343.576,10.4167 L342.7087,20.7786 L343.5526,31.1404 L343.8392,41.5023 L342.2933,51.8642 L343.1762,62.2261 L342.6917,72.588 L342.7515,82.9499 L343.1894,93.3117 L342.3239,103.6736 L344.053,114.0355 L342.4087,124.3974 L343.0094,134.7593 L343.884,145.1212 L343.165,155.483 L343.3789,165.8449 L343.2397,176.2068 L343.5321,186.5687 L343.6162,196.9306 L344.0976,207.2925 L344.2161,217.6543 L344.2275,228.0162 L343.6377,238.3781 L343.928,248.74 L344.2594,259.1019 L342.2825,269.4638 L344.2265,279.8256 L342.8723,290.1875 L344.0255,300.5494 L342.5966,310.9113 L343.189,321.2732 L344.3141,331.6351 L343.2164,341.997 L343.4304,352.3588 L343.7544,362.7207 L343.8622,373.0826 L343.2787,383.4445 L343.683,393.8064 L342.4891,404.1683 L343.6791,414.5301 L344.0455,424.892 L343.2841,435.2539 " fill="none" style="stroke:#2E2E2E;stroke-width:0.5208333333333334;stroke-dasharray:3.0,5.0;"/><path d="M395.3674,10.4167 L395.6594,10.4167 L394.792,20.7786 L395.6359,31.1404 L395.9225,41.5023 L394.3766,51.8642 L395.2595,62.2261 L394.7751,72.588 L394.8348,82.9499 L395.2728,93.3117 L394.4072,103.6736 L396.1364,114.0355 L394.492,124.3974 L395.0928,134.7593 L395.9674,145.1212 L395.2483,155.483 L395.4622,165.8449 L395.3231,176.2068 L395.6154,186.5687 L395.6996,196.9306 L396.1809,207.2925 L396.2995,217.6543 L396.3108,228.0162 L395.7211,238.3781 L396.0113,248.74 L396.3428,259.1019 L394.3658,269.4638 L396.3098,279.8256 L394.9556,290.1875 L396.1088,300.5494 L394.6799,310.9113 L395.2723,321.2732 L396.3974,331.6351 L395.2997,341.997 L395.5137,352.3588 L395.8377,362.7207 L395.9455,373.0826 L395.362,383.4445 L395.7663,393.8064 L394.5724,404.1683 L395.7624,414.5301 L396.1288,424.892 L395.3674,435.2539 " fill="none" style="stroke:#2E2E2E;stroke-width:0.5208333333333334;stroke-dasharray:3.0,5.0;"/><path d="M447.4508,10.4167 L447.7427,10.4167 L446.8753,20.7786 L447.7192,31.1404 L448.0059,41.5023 L446.4599,51.8642 L447.3428,62.2261 L446.8584,72.588 L446.9181,82.9499 L447.3561,93.3117 L446.4905,103.6736 L448.2197,114.0355 L446.5754,124.3974 L447.1761,134.7593 L448.0507,145.1212 L447.3316,155.483 L447.5455,165.8449 L447.4064,176.2068 L447.6987,186.5687 L447.7829,196.9306 L448.2642,207.2925 L448.3828,217.6543 L448.3942,228.0162 L447.8044,238.3781 L448.0946,248.74 L448.4261,259.1019 L446.4491,269.4638 L448.3931,279.8256 L447.039,290.1875 L448.1922,300.5494 L446.7632,310.9113 L447.3556,321.2732 L448.4808,331.6351 L447.3831,341.997 L447.597,352.3588 L447.9211,362.7207 L448.0289,373.0826 L447.4453,383.4445 L447.8497,393.8064 L446.6557,404.1683 L447.8457,414.5301 L448.2121,424.892 L447.4508,435.2539 " fill="none" style="stroke:#2E2E2E;stroke-width:0.5208333333333334;stroke-dasharray:3.0,5.0;"/><path d="M10.4167,10.4167 L10.4167,10.7086 L20.9462,9.8412 L31.4758,10.6851 L42.0054,10.9718 L52.535,9.4258 L63.0646,10.3087 L73.5942,9.8243 L84.1237,9.884 L94.6533,10.322 L105.1829,9.4564 L115.7125,11.1856 L126.2421,9.5413 L136.7716,10.142 L147.3012,11.0166 L157.8308,10.2975 L168.3604,10.5114 L178.89,10.3723 L189.4196,10.6646 L199.9491,10.7488 L210.4787,11.2301 L221.0083,11.3487 L231.5379,11.3601 L242.0675,10.7703 L252.597,11.0605 L263.1266,11.392 L273.6562,9.415 L284.1858,11.359 L294.7154,10.0049 L305.245,11.1581 L315.7745,9.7291 L326.3041,10.3215 L336.8337,11.4467 L347.3633,10.349 L357.8929,10.5629 L368.4224,10.887 L378.952,10.9948 L389.4816,10.4112 L400.0112,10.8156 L410.5408,9.6216 L421.0704,10.8116 L431.5999,11.178 L442.1295,11.0341 L452.6591,10.4167 " fill="none" style="stroke:#2E2E2E;stroke-width:1.0416666666666667;"/><text fill="#2E2E2E" font-family="Segoe Print" font-size="12.5" font-weight="bold" lengthAdjust="spacing" textLength="93.4753" x="20.8333" y="27.2278">Web Browser</text><path d="M10.4167,36.4258 L10.4167,36.7177 L20.4296,35.8503 L30.4425,36.6942 L40.4554,36.9809 L50.4683,35.435 L60.4812,36.3178 L70.4941,35.8334 L80.507,35.8931 L90.5199,36.3311 L100.5329,35.4655 L110.5458,37.1947 L120.5587,36.4258 " fill="none" style="stroke:#2E2E2E;stroke-width:1.0416666666666667;"/><path d="M120.5587,36.4258 L120.649,36.462 L122.4639,31.1526 L124.8084,26.0554 L126.9804,20.8891 L128.5854,15.4957 L130.9753,10.4167 " fill="none" style="stroke:#2E2E2E;stroke-width:1.0416666666666667;"/><text fill="#2E2E2E" font-family="Segoe Print" font-size="12.5" lengthAdjust="spacing" textLength="63.9526" x="20.8333" y="139.679">Initializing</text><text fill="#2E2E2E" font-family="Segoe Print" font-size="12.5" lengthAdjust="spacing" textLength="22.5708" x="20.8333" y="118.8456">idle</text><text fill="#2E2E2E" font-family="Segoe Print" font-size="12.5" lengthAdjust="spacing" textLength="67.2424" x="20.8333" y="98.0123">Processing</text><text fill="#2E2E2E" font-family="Segoe Print" font-size="12.5" lengthAdjust="spacing" textLength="47.7234" x="20.8333" y="77.179">Waiting</text><path d="M93.2841,134.3099 L93.2841,134.4072 L101.6174,134.1181 L109.9508,134.3994 L118.2841,134.4949 L126.6174,133.9796 L134.9508,134.3099 " fill="none" style="stroke:#2E2E2E;stroke-width:1.0416666666666667;"/><path d="M134.9508,113.4766 L134.9508,113.7685 L145.3674,112.9011 L155.7841,113.745 L166.2008,114.0317 L176.6174,112.4857 L187.0341,113.3686 L197.4508,112.8842 L207.8674,112.9439 L218.2841,113.3819 L228.7008,112.5163 L239.1174,113.4766 " fill="none" style="stroke:#2E2E2E;stroke-width:1.0416666666666667;"/><path d="M239.1174,92.6432 L239.1174,92.9351 L249.5341,92.0678 L259.9508,92.9117 L270.3674,93.1983 L280.7841,91.6524 L291.2008,92.6432 " fill="none" style="stroke:#2E2E2E;stroke-width:1.0416666666666667;"/><path d="M291.2008,71.8099 L291.2008,72.1018 L301.6174,71.2345 L312.0341,72.0783 L322.4508,72.365 L332.8674,70.8191 L343.2841,71.702 L353.7008,71.2175 L364.1174,71.2773 L374.5341,71.7152 L384.9508,70.8497 L395.3674,72.5788 L405.7841,70.9345 L416.2008,71.5352 L426.6174,72.4098 L437.0341,71.6908 L447.4508,71.8099 " fill="none" style="stroke:#2E2E2E;stroke-width:1.0416666666666667;"/><path d="M134.9508,113.4766 L135.0481,113.4766 L134.7589,117.6432 L135.0402,121.8099 L135.1358,125.9766 L134.6205,130.1432 L134.9508,134.3099 " fill="none" style="stroke:#2E2E2E;stroke-width:1.0416666666666667;"/><path d="M239.1174,92.6432 L239.2147,92.6432 L238.9256,96.8099 L239.2069,100.9766 L239.3025,105.1432 L238.7872,109.3099 L239.1174,113.4766 " fill="none" style="stroke:#2E2E2E;stroke-width:1.0416666666666667;"/><path d="M291.2008,71.8099 L291.2981,71.8099 L291.0089,75.9766 L291.2902,80.1432 L291.3858,84.3099 L290.8705,88.4766 L291.2008,92.6432 " fill="none" style="stroke:#2E2E2E;stroke-width:1.0416666666666667;"/><path d="M137.5549,108.2682 L137.5549,108.3655 L141.7216,108.0764 L145.8883,108.3577 L150.0549,108.4533 L154.2216,107.938 L158.3883,108.2682 " fill="#2E2E2E" style="stroke:#2E2E2E;stroke-width:1.0416666666666667;"/><polygon fill="#2E2E2E" points="145.8883,112.4349,145.9612,112.4349,145.7444,110.7682,145.9554,109.1016,146.027,107.4349,145.6406,105.7682,145.8883,104.1016,145.8762,104.0774,144.1554,104.8024,142.4954,105.6491,140.8777,106.5804,139.1142,107.2202,137.5549,108.2682,137.6409,108.4402,139.1237,108.9058,140.8576,109.8735,142.622,110.9024,144.2083,111.5749,145.8883,112.4349" style="stroke:#2E2E2E;stroke-width:1.0416666666666667;"/><polygon fill="#2E2E2E" points="150.0549,112.4349,150.0786,112.4349,150.0438,110.7682,150.1169,109.1016,150.138,107.4349,150.2583,105.7682,150.0549,104.1016,150.1591,104.31,151.8271,105.1458,153.4278,105.8473,155.1269,106.7455,156.8306,107.653,158.3883,108.2682,158.2763,108.0443,156.827,109.3123,155.0089,109.8428,153.4712,110.934,151.6447,111.4478,150.0549,112.4349" style="stroke:#2E2E2E;stroke-width:1.0416666666666667;"/><text fill="#2E2E2E" font-family="Segoe Print" font-size="12.5" lengthAdjust="spacing" textLength="77.5146" x="109.2143" y="94.9036">{50 ms lag}</text><path d="M10.4167,146.8099 L10.4167,147.1018 L20.9462,146.2345 L31.4758,147.0783 L42.0054,147.365 L52.535,145.8191 L63.0646,146.702 L73.5942,146.2175 L84.1237,146.2773 L94.6533,146.7152 L105.1829,145.8497 L115.7125,147.5788 L126.2421,145.9345 L136.7716,146.5352 L147.3012,147.4098 L157.8308,146.6908 L168.3604,146.9047 L178.89,146.7655 L189.4196,147.0578 L199.9491,147.142 L210.4787,147.6234 L221.0083,147.7419 L231.5379,147.7533 L242.0675,147.1635 L252.597,147.4538 L263.1266,147.7852 L273.6562,145.8082 L284.1858,147.7523 L294.7154,146.3981 L305.245,147.5513 L315.7745,146.1224 L326.3041,146.7148 L336.8337,147.8399 L347.3633,146.7422 L357.8929,146.9561 L368.4224,147.2802 L378.952,147.388 L389.4816,146.8045 L400.0112,147.2088 L410.5408,146.0149 L421.0704,147.2049 L431.5999,147.5713 L442.1295,147.4273 L452.6591,146.8099 " fill="none" style="stroke:#2E2E2E;stroke-width:1.0416666666666667;"/><text fill="#2E2E2E" font-family="Segoe Print" font-size="12.5" font-weight="bold" lengthAdjust="spacing" textLength="67.7979" x="20.8333" y="163.621">Web User</text><path d="M10.4167,172.819 L10.4167,173.1109 L20.9747,172.2436 L31.5328,173.0875 L42.0909,173.3741 L52.6489,171.8282 L63.207,172.7111 L73.7651,172.2267 L84.3231,172.2864 L94.8812,172.819 " fill="none" style="stroke:#2E2E2E;stroke-width:1.0416666666666667;"/><path d="M94.8812,172.819 L94.9715,172.8552 L96.7865,167.5459 L99.1309,162.4486 L101.303,157.2823 L102.9079,151.8889 L105.2979,146.8099 " fill="none" style="stroke:#2E2E2E;stroke-width:1.0416666666666667;"/><polygon fill="none" points="50.12,208.2031,50.12,208.4221,60.453,207.7715,70.786,208.4045,81.1189,208.6195,91.4519,207.46,101.7848,208.1222,112.1178,207.7589,122.4508,208.2031,122.3566,208.109,124.934,210.6864,127.281,213.0334,130.0867,215.8391,132.296,218.0484,134.9508,220.7031,134.9022,220.6546,132.5568,223.3092,129.9297,225.6821,127.4675,228.2199,124.9429,230.6953,122.4508,233.2031,122.4508,233.3891,112.1178,233.4522,101.7848,233.8132,91.4519,233.9021,81.1189,233.9107,70.786,233.4684,60.453,233.686,50.12,233.2031,50.3639,233.2031,49.8696,228.2031,50.3556,223.2031,50.0171,218.2031,50.3054,213.2031,50.12,208.2031" style="stroke:none;stroke-width:1.0416666666666667;"/><path d="M50.12,208.2031 L50.12,208.787 L60.453,207.0522 L70.786,208.74 L81.1189,209.3133 L91.4519,206.2215 L101.7848,207.9873 L112.1178,207.0184 L122.4508,208.2031 L122.1997,207.952 L124.9061,210.6585 L126.9981,212.7505 L130.3133,216.0656 L132.0381,217.7905 L134.9508,220.7031 L134.8213,220.5736 L132.7336,223.4859 L129.8946,225.647 L127.4954,228.2478 L124.9298,230.6822 L122.4508,233.2031 L122.4508,233.699 L112.1178,233.8674 L101.7848,234.83 L91.4519,235.0672 L81.1189,235.09 L70.786,233.9104 L60.453,234.4909 L50.12,233.2031 " fill="none" style="stroke:#2E2E2E;stroke-width:1.0416666666666667;"/><text fill="#2E2E2E" font-family="Segoe Print" font-size="12.5" font-weight="bold" lengthAdjust="spacing" textLength="49.4141" x="67.8284" y="225.0305">Absent</text><polygon fill="none" points="147.4508,208.2031,147.4508,208.4221,157.6863,207.7715,167.9218,208.4045,178.1573,208.6195,188.3928,207.46,198.6283,208.1222,208.8638,207.7589,219.0993,207.8036,229.3348,208.1321,239.5703,207.4829,249.8058,208.7798,260.0413,207.5466,270.2769,207.9971,280.5124,208.6531,290.7479,208.1138,300.9834,208.2742,311.2189,208.1698,321.4544,208.3891,331.6899,208.4522,341.9254,208.8132,352.1609,208.9021,362.3964,208.9107,372.6319,208.4684,382.8674,208.2031,382.9813,208.3169,385.5398,210.8755,387.6904,213.0261,390.534,215.8697,392.7946,218.1303,395.3674,220.7031,395.4985,220.8342,392.7459,223.0816,390.3506,225.6863,388.0495,228.3852,385.3555,230.6912,382.8674,233.2031,382.8674,233.3128,372.6319,233.5559,362.3964,233.6367,352.1609,233.1991,341.9254,233.5023,331.6899,232.6069,321.4544,233.4994,311.2189,233.7742,300.9834,233.6662,290.7479,233.8417,280.5124,232.6999,270.2769,232.5238,260.0413,232.5558,249.8058,233.1418,239.5703,232.9984,229.3348,233.9129,219.0993,233.0212,208.8638,232.8458,198.6283,233.4409,188.3928,232.5085,178.1573,232.6624,167.9218,233.8791,157.6863,233.6569,147.4508,233.2031,147.6311,233.3835,144.8718,230.6241,142.5291,228.2815,140.0957,225.8481,137.3348,223.0871,134.9508,220.7031,134.9272,220.6796,137.4817,218.2341,140.1108,215.8631,142.4497,213.2021,145.0643,210.8167,147.4508,208.2031" style="stroke:#2E2E2E;stroke-width:1.0416666666666667;"/><polygon fill="none" points="407.8674,208.2031,407.8674,208.2761,415.7841,208.0593,423.7008,208.2702,431.6174,208.3419,439.5341,207.9554,447.4508,208.2031,447.4238,208.2031,447.3027,213.2031,447.3176,218.2031,447.4271,223.2031,447.2107,228.2031,447.4508,233.2031,447.4508,233.3954,439.5341,232.9843,431.6174,233.1345,423.7008,233.3531,415.7841,233.1733,407.8674,233.2031,407.8842,233.2199,405.3596,230.6953,402.9113,228.247,400.4261,225.7618,398.0112,223.3469,395.3674,220.7031,395.5322,220.8679,398.0342,218.3699,400.4299,215.7656,402.9813,213.3169,405.5398,210.8755,407.8674,208.2031" style="stroke:none;stroke-width:1.0416666666666667;"/><path d="M447.4508,208.2031 L447.4508,208.3977 L439.5341,207.8195 L431.6174,208.3821 L423.7008,208.5732 L415.7841,207.5426 L407.8674,208.2031 L407.8166,208.1522 L405.0882,210.4239 L402.6163,212.952 L400.3228,215.6585 L397.4148,217.7505 L395.3674,220.7031 L395.7299,221.0656 L397.4548,222.7905 L400.2379,225.5736 L403.1502,228.4859 L405.3113,230.647 L407.8674,233.2031 L407.8674,233.2663 L415.7841,233.1735 L423.7008,233.3684 L431.6174,233.4245 L439.5341,233.7454 L447.4508,233.2031 " fill="none" style="stroke:#2E2E2E;stroke-width:1.0416666666666667;"/><text fill="#2E2E2E" font-family="Segoe Print" font-size="12.5" font-weight="bold" lengthAdjust="spacing" textLength="54.6143" x="237.852" y="225.0305">Waiting</text><text fill="#2E2E2E" font-family="Segoe Print" font-size="12.5" font-weight="bold" lengthAdjust="spacing" textLength="16.9006" x="413.0758" y="225.0305">ok</text><path d="M240.1591,193.1152 L240.1591,193.4072 L251.0222,192.5398 L261.8853,193.3837 L272.7484,193.6703 L283.6115,192.1244 L294.4746,193.0073 L305.3377,192.5229 L316.2008,193.1152 " fill="#2E2E2E" style="stroke:#2E2E2E;stroke-width:1.0416666666666667;"/><polygon fill="#2E2E2E" points="248.4924,197.2819,248.5654,197.2819,248.3486,195.6152,248.5595,193.9486,248.6312,192.2819,248.2447,190.6152,248.4924,188.9486,248.4804,188.9244,246.7595,189.6494,245.0995,190.4961,243.4818,191.4274,241.7184,192.0672,240.1591,193.1152,240.2451,193.2872,241.7279,193.7528,243.4617,194.7205,245.2262,195.7494,246.8124,196.4219,248.4924,197.2819" style="stroke:#2E2E2E;stroke-width:1.0416666666666667;"/><polygon fill="#2E2E2E" points="307.8674,197.2819,307.8911,197.2819,307.8563,195.6152,307.9294,193.9486,307.9505,192.2819,308.0708,190.6152,307.8674,188.9486,307.9716,189.157,309.6396,189.9929,311.2403,190.6943,312.9394,191.5925,314.6431,192.5,316.2008,193.1152,316.0888,192.8913,314.6395,194.1593,312.8214,194.6898,311.2837,195.781,309.4572,196.2948,307.8674,197.2819" style="stroke:#2E2E2E;stroke-width:1.0416666666666667;"/><text fill="#2E2E2E" font-family="Segoe Print" font-size="12.5" lengthAdjust="spacing" textLength="62.4268" x="246.9666" y="179.7506">{150 ms}</text><path d="M10.4167,243.6198 L10.4167,243.9117 L20.9462,243.0443 L31.4758,243.8882 L42.0054,244.1749 L52.535,242.629 L63.0646,243.5119 L73.5942,243.0274 L84.1237,243.0872 L94.6533,243.5251 L105.1829,242.6596 L115.7125,244.3887 L126.2421,242.7444 L136.7716,243.3451 L147.3012,244.2197 L157.8308,243.5007 L168.3604,243.7146 L178.89,243.5754 L189.4196,243.8677 L199.9491,243.9519 L210.4787,244.4332 L221.0083,244.5518 L231.5379,244.5632 L242.0675,243.9734 L252.597,244.2637 L263.1266,244.5951 L273.6562,242.6181 L284.1858,244.5622 L294.7154,243.208 L305.245,244.3612 L315.7745,242.9323 L326.3041,243.5247 L336.8337,244.6498 L347.3633,243.5521 L357.8929,243.766 L368.4224,244.0901 L378.952,244.1979 L389.4816,243.6144 L400.0112,244.0187 L410.5408,242.8248 L421.0704,244.0148 L431.5999,244.3812 L442.1295,244.2372 L452.6591,243.6198 " fill="none" style="stroke:#2E2E2E;stroke-width:1.0416666666666667;"/><text fill="#2E2E2E" font-family="Segoe Print" font-size="12.5" font-weight="bold" lengthAdjust="spacing" textLength="52.7161" x="20.8333" y="260.4309">Clock_1</text><path d="M10.4167,269.6289 L10.4167,269.9208 L20.3285,269.0535 L30.2403,269.8974 L40.1521,270.184 L50.0639,268.6381 L59.9758,269.521 L69.8876,269.0366 L79.7994,269.6289 " fill="none" style="stroke:#2E2E2E;stroke-width:1.0416666666666667;"/><path d="M79.7994,269.6289 L79.8897,269.6651 L81.7047,264.3558 L84.0491,259.2585 L86.2212,254.0922 L87.8261,248.6988 L90.2161,243.6198 " fill="none" style="stroke:#2E2E2E;stroke-width:1.0416666666666667;"/><path d="M134.9508,291.5039 L134.9508,291.6012 L135.9924,291.3121 L137.0341,291.5934 L138.0758,291.6889 L139.1174,291.1736 L140.1591,291.5039 " fill="none" style="stroke:#2E2E2E;stroke-width:1.0416666666666667;"/><path d="M140.1591,276.9206 L140.2564,276.9206 L139.9673,279.8372 L140.2486,282.7539 L140.3441,285.6706 L139.8288,288.5872 L140.1591,291.5039 " fill="none" style="stroke:#2E2E2E;stroke-width:1.0416666666666667;"/><path d="M140.1591,276.9206 L140.1591,277.0179 L141.7216,276.7288 L143.2841,277.0101 L144.8466,277.1056 L146.4091,276.5903 L147.9716,276.9206 " fill="none" style="stroke:#2E2E2E;stroke-width:1.0416666666666667;"/><path d="M147.9716,276.9206 L148.0689,276.9206 L147.7798,279.8372 L148.0611,282.7539 L148.1566,285.6706 L147.6413,288.5872 L147.9716,291.5039 " fill="none" style="stroke:#2E2E2E;stroke-width:1.0416666666666667;"/><path d="M147.9716,291.5039 L147.9716,291.6012 L156.8258,291.3121 L165.6799,291.5934 L174.5341,291.6889 L183.3883,291.1736 L192.2424,291.5039 " fill="none" style="stroke:#2E2E2E;stroke-width:1.0416666666666667;"/><path d="M192.2424,276.9206 L192.3397,276.9206 L192.0506,279.8372 L192.3319,282.7539 L192.4275,285.6706 L191.9122,288.5872 L192.2424,291.5039 " fill="none" style="stroke:#2E2E2E;stroke-width:1.0416666666666667;"/><path d="M192.2424,276.9206 L192.2424,277.0179 L193.8049,276.7288 L195.3674,277.0101 L196.9299,277.1056 L198.4924,276.5903 L200.0549,276.9206 " fill="none" style="stroke:#2E2E2E;stroke-width:1.0416666666666667;"/><path d="M200.0549,276.9206 L200.1522,276.9206 L199.8631,279.8372 L200.1444,282.7539 L200.24,285.6706 L199.7247,288.5872 L200.0549,291.5039 " fill="none" style="stroke:#2E2E2E;stroke-width:1.0416666666666667;"/><path d="M200.0549,291.5039 L200.0549,291.6012 L208.9091,291.3121 L217.7633,291.5934 L226.6174,291.6889 L235.4716,291.1736 L244.3258,291.5039 " fill="none" style="stroke:#2E2E2E;stroke-width:1.0416666666666667;"/><path d="M244.3258,276.9206 L244.4231,276.9206 L244.1339,279.8372 L244.4152,282.7539 L244.5108,285.6706 L243.9955,288.5872 L244.3258,291.5039 " fill="none" style="stroke:#2E2E2E;stroke-width:1.0416666666666667;"/><path d="M244.3258,276.9206 L244.3258,277.0179 L245.8883,276.7288 L247.4508,277.0101 L249.0133,277.1056 L250.5758,276.5903 L252.1383,276.9206 " fill="none" style="stroke:#2E2E2E;stroke-width:1.0416666666666667;"/><path d="M252.1383,276.9206 L252.2356,276.9206 L251.9464,279.8372 L252.2277,282.7539 L252.3233,285.6706 L251.808,288.5872 L252.1383,291.5039 " fill="none" style="stroke:#2E2E2E;stroke-width:1.0416666666666667;"/><path d="M252.1383,291.5039 L252.1383,291.6012 L260.9924,291.3121 L269.8466,291.5934 L278.7008,291.6889 L287.5549,291.1736 L296.4091,291.5039 " fill="none" style="stroke:#2E2E2E;stroke-width:1.0416666666666667;"/><path d="M296.4091,276.9206 L296.5064,276.9206 L296.2173,279.8372 L296.4986,282.7539 L296.5941,285.6706 L296.0788,288.5872 L296.4091,291.5039 " fill="none" style="stroke:#2E2E2E;stroke-width:1.0416666666666667;"/><path d="M296.4091,276.9206 L296.4091,277.0179 L297.9716,276.7288 L299.5341,277.0101 L301.0966,277.1056 L302.6591,276.5903 L304.2216,276.9206 " fill="none" style="stroke:#2E2E2E;stroke-width:1.0416666666666667;"/><path d="M304.2216,276.9206 L304.3189,276.9206 L304.0298,279.8372 L304.3111,282.7539 L304.4066,285.6706 L303.8913,288.5872 L304.2216,291.5039 " fill="none" style="stroke:#2E2E2E;stroke-width:1.0416666666666667;"/><path d="M304.2216,291.5039 L304.2216,291.6012 L313.0758,291.3121 L321.9299,291.5934 L330.7841,291.6889 L339.6383,291.1736 L348.4924,291.5039 " fill="none" style="stroke:#2E2E2E;stroke-width:1.0416666666666667;"/><path d="M348.4924,276.9206 L348.5897,276.9206 L348.3006,279.8372 L348.5819,282.7539 L348.6775,285.6706 L348.1622,288.5872 L348.4924,291.5039 " fill="none" style="stroke:#2E2E2E;stroke-width:1.0416666666666667;"/><path d="M348.4924,276.9206 L348.4924,277.0179 L350.0549,276.7288 L351.6174,277.0101 L353.1799,277.1056 L354.7424,276.5903 L356.3049,276.9206 " fill="none" style="stroke:#2E2E2E;stroke-width:1.0416666666666667;"/><path d="M356.3049,276.9206 L356.4022,276.9206 L356.1131,279.8372 L356.3944,282.7539 L356.49,285.6706 L355.9747,288.5872 L356.3049,291.5039 " fill="none" style="stroke:#2E2E2E;stroke-width:1.0416666666666667;"/><path d="M356.3049,291.5039 L356.3049,291.6012 L365.1591,291.3121 L374.0133,291.5934 L382.8674,291.6889 L391.7216,291.1736 L400.5758,291.5039 " fill="none" style="stroke:#2E2E2E;stroke-width:1.0416666666666667;"/><path d="M400.5758,276.9206 L400.6731,276.9206 L400.3839,279.8372 L400.6652,282.7539 L400.7608,285.6706 L400.2455,288.5872 L400.5758,291.5039 " fill="none" style="stroke:#2E2E2E;stroke-width:1.0416666666666667;"/><path d="M400.5758,276.9206 L400.5758,277.0179 L402.1383,276.7288 L403.7008,277.0101 L405.2633,277.1056 L406.8258,276.5903 L408.3883,276.9206 " fill="none" style="stroke:#2E2E2E;stroke-width:1.0416666666666667;"/><path d="M408.3883,276.9206 L408.4856,276.9206 L408.1964,279.8372 L408.4777,282.7539 L408.5733,285.6706 L408.058,288.5872 L408.3883,291.5039 " fill="none" style="stroke:#2E2E2E;stroke-width:1.0416666666666667;"/><path d="M408.3883,291.5039 L408.3883,291.6012 L416.2008,291.3121 L424.0133,291.5934 L431.8258,291.6889 L439.6383,291.1736 L447.4508,291.5039 " fill="none" style="stroke:#2E2E2E;stroke-width:1.0416666666666667;"/><path d="M10.4167,299.8372 L10.4167,300.1292 L20.9462,299.2618 L31.4758,300.1057 L42.0054,300.3923 L52.535,298.8464 L63.0646,299.7293 L73.5942,299.2449 L84.1237,299.3046 L94.6533,299.7426 L105.1829,298.877 L115.7125,300.6062 L126.2421,298.9618 L136.7716,299.5626 L147.3012,300.4372 L157.8308,299.7181 L168.3604,299.932 L178.89,299.7929 L189.4196,300.0852 L199.9491,300.1694 L210.4787,300.6507 L221.0083,300.7693 L231.5379,300.7807 L242.0675,300.1909 L252.597,300.4811 L263.1266,300.8126 L273.6562,298.8356 L284.1858,300.7796 L294.7154,299.4254 L305.245,300.5786 L315.7745,299.1497 L326.3041,299.7421 L336.8337,300.8672 L347.3633,299.7696 L357.8929,299.9835 L368.4224,300.3076 L378.952,300.4153 L389.4816,299.8318 L400.0112,300.2361 L410.5408,299.0422 L421.0704,300.2322 L431.5999,300.5986 L442.1295,300.4546 L452.6591,299.8372 " fill="none" style="stroke:#2E2E2E;stroke-width:1.0416666666666667;"/><text fill="#2E2E2E" font-family="Segoe Print" font-size="12.5" font-weight="bold" lengthAdjust="spacing" textLength="45.459" x="20.8333" y="319.7896">Binary</text><path d="M134.9508,322.7539 L134.9508,323.0458 L145.3674,322.1785 L155.7841,323.0224 L166.2008,323.309 L176.6174,321.7631 L187.0341,322.7539 " fill="none" style="stroke:#2E2E2E;stroke-width:1.0416666666666667;"/><path d="M187.0341,308.1706 L187.1314,308.1706 L186.8423,311.0872 L187.1236,314.0039 L187.2191,316.9206 L186.7038,319.8372 L187.0341,322.7539 " fill="none" style="stroke:#2E2E2E;stroke-width:1.0416666666666667;"/><path d="M187.0341,308.1706 L187.0341,308.4625 L197.4508,307.5951 L207.8674,308.439 L218.2841,308.7257 L228.7008,307.1797 L239.1174,308.0626 L249.5341,307.5782 L259.9508,307.6379 L270.3674,308.0759 L280.7841,307.2103 L291.2008,308.9395 L301.6174,307.2952 L312.0341,307.8959 L322.4508,308.7705 L332.8674,308.0514 L343.2841,308.2653 L353.7008,308.1262 L364.1174,308.4185 L374.5341,308.5027 L384.9508,308.984 L395.3674,309.1026 L405.7841,309.114 L416.2008,308.5242 L426.6174,308.8144 L437.0341,309.1459 L447.4508,308.1706 " fill="none" style="stroke:#2E2E2E;stroke-width:1.0416666666666667;"/><path d="M10.4167,331.0872 L10.4167,331.3792 L20.9462,330.5118 L31.4758,331.3557 L42.0054,331.6423 L52.535,330.0964 L63.0646,330.9793 L73.5942,330.4949 L84.1237,330.5546 L94.6533,330.9926 L105.1829,330.127 L115.7125,331.8562 L126.2421,330.2118 L136.7716,330.8126 L147.3012,331.6872 L157.8308,330.9681 L168.3604,331.182 L178.89,331.0429 L189.4196,331.3352 L199.9491,331.4194 L210.4787,331.9007 L221.0083,332.0193 L231.5379,332.0307 L242.0675,331.4409 L252.597,331.7311 L263.1266,332.0626 L273.6562,330.0856 L284.1858,332.0296 L294.7154,330.6754 L305.245,331.8286 L315.7745,330.3997 L326.3041,330.9921 L336.8337,332.1172 L347.3633,331.0196 L357.8929,331.2335 L368.4224,331.5576 L378.952,331.6653 L389.4816,331.0818 L400.0112,331.4861 L410.5408,330.2922 L421.0704,331.4822 L431.5999,331.8486 L442.1295,331.7046 L452.6591,331.0872 " fill="none" style="stroke:#2E2E2E;stroke-width:1.0416666666666667;"/><text fill="#2E2E2E" font-family="Segoe Print" font-size="12.5" font-weight="bold" lengthAdjust="spacing" textLength="48.8281" x="20.8333" y="387.498">Analog</text><text fill="#2E2E2E" font-family="Segoe Print" font-size="12.5" font-weight="bold" lengthAdjust="spacing" textLength="22.1436" x="105.5155" y="431.248">0.0</text><text fill="#2E2E2E" font-family="Segoe Print" font-size="12.5" font-weight="bold" lengthAdjust="spacing" textLength="22.1436" x="105.5155" y="343.748">3.0</text><path d="M134.9508,426.9206 " fill="none" style="stroke:#2E2E2E;stroke-width:1.0416666666666667;"/><path d="M134.9508,426.9206 L135.2016,427.0699 L139.6646,417.8762 L145.5981,409.5579 L151.0528,400.9545 L154.9327,391.4138 L160.8997,383.1154 L165.6918,374.1176 L170.9514,365.3981 L176.5361,356.8722 L181.0006,347.6794 L187.0341,339.4206 " fill="none" style="stroke:#2E2E2E;stroke-width:1.0416666666666667;"/><path d="M187.0341,339.4206 L187.1767,339.6753 L196.2226,344.2215 L206.1047,350.2609 L215.7144,355.814 L224.4288,359.7682 L234.3298,365.8416 L243.5629,370.7219 L253.0617,376.0771 L262.7454,381.7622 L271.7922,386.31 L282.1068,393.1218 L291.2008,397.7539 " fill="none" style="stroke:#2E2E2E;stroke-width:1.0416666666666667;"/><path d="M291.2008,397.7539 L291.2008,398.0458 L301.6174,397.1785 L312.0341,398.0224 L322.4508,398.309 L332.8674,396.7631 L343.2841,397.646 L353.7008,397.1616 L364.1174,397.2213 L374.5341,397.6592 L384.9508,396.7937 L395.3674,398.5229 L405.7841,396.8785 L416.2008,397.4792 L426.6174,398.3538 L437.0341,397.6348 L447.4508,397.7539 " fill="none" style="stroke:#2E2E2E;stroke-width:1.0416666666666667;"/><path d="M134.9508,435.2539 L135.0481,435.2539 L134.7589,436.2956 L135.0402,437.3372 L135.1358,438.3789 L134.6205,439.4206 L134.9508,440.4622 " fill="none" style="stroke:#2E2E2E;stroke-width:1.0416666666666667;"/><path d="M187.0341,435.2539 L187.1314,435.2539 L186.8423,436.2956 L187.1236,437.3372 L187.2191,438.3789 L186.7038,439.4206 L187.0341,440.4622 " fill="none" style="stroke:#2E2E2E;stroke-width:1.0416666666666667;"/><path d="M239.1174,435.2539 L239.2147,435.2539 L238.9256,436.2956 L239.2069,437.3372 L239.3025,438.3789 L238.7872,439.4206 L239.1174,440.4622 " fill="none" style="stroke:#2E2E2E;stroke-width:1.0416666666666667;"/><path d="M291.2008,435.2539 L291.2981,435.2539 L291.0089,436.2956 L291.2902,437.3372 L291.3858,438.3789 L290.8705,439.4206 L291.2008,440.4622 " fill="none" style="stroke:#2E2E2E;stroke-width:1.0416666666666667;"/><path d="M343.2841,435.2539 L343.3814,435.2539 L343.0923,436.2956 L343.3736,437.3372 L343.4691,438.3789 L342.9538,439.4206 L343.2841,440.4622 " fill="none" style="stroke:#2E2E2E;stroke-width:1.0416666666666667;"/><path d="M395.3674,435.2539 L395.4647,435.2539 L395.1756,436.2956 L395.4569,437.3372 L395.5525,438.3789 L395.0372,439.4206 L395.3674,440.4622 " fill="none" style="stroke:#2E2E2E;stroke-width:1.0416666666666667;"/><path d="M447.4508,435.2539 L447.5481,435.2539 L447.2589,436.2956 L447.5402,437.3372 L447.6358,438.3789 L447.1205,439.4206 L447.4508,440.4622 " fill="none" style="stroke:#2E2E2E;stroke-width:1.0416666666666667;"/><path d="M134.9508,435.2539 L134.9508,435.5458 L145.3674,434.6785 L155.7841,435.5224 L166.2008,435.809 L176.6174,434.2631 L187.0341,435.146 L197.4508,434.6616 L207.8674,434.7213 L218.2841,435.1592 L228.7008,434.2937 L239.1174,436.0229 L249.5341,434.3785 L259.9508,434.9792 L270.3674,435.8538 L280.7841,435.1348 L291.2008,435.3487 L301.6174,435.2095 L312.0341,435.5019 L322.4508,435.586 L332.8674,436.0674 L343.2841,436.1859 L353.7008,436.1973 L364.1174,435.6076 L374.5341,435.8978 L384.9508,436.2292 L395.3674,434.2523 L405.7841,436.1963 L416.2008,434.8421 L426.6174,435.9953 L437.0341,434.5664 L447.4508,435.2539 " fill="none" style="stroke:#2E2E2E;stroke-width:1.0416666666666667;"/><text fill="#2E2E2E" font-family="Segoe Print" font-size="12.5" lengthAdjust="spacing" textLength="7.9529" x="130.9743" y="458.315">0</text><text fill="#2E2E2E" font-family="Segoe Print" font-size="12.5" lengthAdjust="spacing" textLength="23.8586" x="175.1048" y="458.315">100</text><text fill="#2E2E2E" font-family="Segoe Print" font-size="12.5" lengthAdjust="spacing" textLength="23.8586" x="227.1881" y="458.315">200</text><text fill="#2E2E2E" font-family="Segoe Print" font-size="12.5" lengthAdjust="spacing" textLength="23.8586" x="279.2714" y="458.315">300</text><text fill="#2E2E2E" font-family="Segoe Print" font-size="12.5" lengthAdjust="spacing" textLength="23.8586" x="383.4381" y="458.315">500</text></g></svg>