<?xml version="1.0" encoding="us-ascii" standalone="no"?><svg xmlns="http://www.w3.org/2000/svg" xmlns:xlink="http://www.w3.org/1999/xlink" contentStyleType="text/css" height="188px" preserveAspectRatio="none" style="width:473px;height:188px;background:#FFFFFF;" version="1.1" viewBox="0 0 473 188" width="473px" zoomAndPan="magnify"><defs/><g><line style="stroke:#000000;stroke-width:1.0;" x1="5" x2="5" y1="5" y2="163.5313"/><line style="stroke:#000000;stroke-width:1.0;" x1="461" x2="461" y1="5" y2="163.5313"/><rect fill="#FFD700" height="158.5313" style="stroke:none;stroke-width:1.0;" width="125" x="156" y="5"/><rect fill="#FFFFFF" height="158.5313" style="stroke:none;stroke-width:1.0;" width="50" x="356" y="5"/><line style="stroke:#000000;stroke-width:0.5;stroke-dasharray:3.0,5.0;" x1="56" x2="56" y1="5" y2="163.5313"/><line style="stroke:#000000;stroke-width:0.5;stroke-dasharray:3.0,5.0;" x1="106" x2="106" y1="5" y2="163.5313"/><line style="stroke:#000000;stroke-width:0.5;stroke-dasharray:3.0,5.0;" x1="156" x2="156" y1="5" y2="163.5313"/><line style="stroke:#000000;stroke-width:0.5;stroke-dasharray:3.0,5.0;" x1="206" x2="206" y1="5" y2="163.5313"/><line style="stroke:#000000;stroke-width:0.5;stroke-dasharray:3.0,5.0;" x1="256" x2="256" y1="5" y2="163.5313"/><line style="stroke:#000000;stroke-width:0.5;stroke-dasharray:3.0,5.0;" x1="306" x2="306" y1="5" y2="163.5313"/><line style="stroke:#000000;stroke-width:0.5;stroke-dasharray:3.0,5.0;" x1="356" x2="356" y1="5" y2="163.5313"/><line style="stroke:#000000;stroke-width:0.5;stroke-dasharray:3.0,5.0;" x1="406" x2="406" y1="5" y2="163.5313"/><line style="stroke:#000000;stroke-width:0.5;stroke-dasharray:3.0,5.0;" x1="456" x2="456" y1="5" y2="163.5313"/><line style="stroke:#000000;stroke-width:1.0;" x1="5" x2="461" y1="5" y2="5"/><text fill="#000000" font-family="Verdana" font-size="14" font-weight="bold" lengthAdjust="spacing" textLength="107" x="10" y="17.9951">Web Browser</text><line style="stroke:#000000;stroke-width:1.0;" x1="5" x2="118" y1="22.2969" y2="22.2969"/><line style="stroke:#000000;stroke-width:1.0;" x1="118" x2="128" y1="22.2969" y2="5"/><text fill="#000000" font-family="Verdana" font-size="12" lengthAdjust="spacing" textLength="22" x="10" y="100.3887">Idle</text><text fill="#000000" font-family="Verdana" font-size="12" lengthAdjust="spacing" textLength="32" x="10" y="80.3887">Proc.</text><text fill="#000000" font-family="Verdana" font-size="12" lengthAdjust="spacing" textLength="46" x="10" y="60.3887">Waiting</text><line style="stroke:#000000;stroke-width:1.0;" x1="56" x2="156" y1="95.2344" y2="95.2344"/><line style="stroke:#000000;stroke-width:1.0;" x1="156" x2="206" y1="75.2344" y2="75.2344"/><line style="stroke:#000000;stroke-width:1.0;" x1="206" x2="406" y1="55.2344" y2="55.2344"/><line style="stroke:#000000;stroke-width:1.0;" x1="406" x2="456" y1="95.2344" y2="95.2344"/><line style="stroke:#000000;stroke-width:1.0;" x1="156" x2="156" y1="75.2344" y2="95.2344"/><line style="stroke:#000000;stroke-width:1.0;" x1="206" x2="206" y1="55.2344" y2="75.2344"/><line style="stroke:#000000;stroke-width:1.0;" x1="406" x2="406" y1="55.2344" y2="95.2344"/><line style="stroke:#000000;stroke-width:1.0;" x1="5" x2="461" y1="107.2344" y2="107.2344"/><text fill="#000000" font-family="Verdana" font-size="14" font-weight="bold" lengthAdjust="spacing" textLength="77" x="10" y="120.2295">Web User</text><line style="stroke:#000000;stroke-width:1.0;" x1="5" x2="88" y1="124.5313" y2="124.5313"/><line style="stroke:#000000;stroke-width:1.0;" x1="88" x2="98" y1="124.5313" y2="107.2344"/><polygon fill="#FFFFFF" points="68,129.5313,94,129.5313,106,141.5313,94,153.5313,68,153.5313,56,141.5313" style="stroke:#000000;stroke-width:1.0;"/><polygon fill="#E0FFFF" points="118,129.5313,294,129.5313,306,141.5313,294,153.5313,118,153.5313,106,141.5313" style="stroke:#00FFFF;stroke-width:1.0;"/><polygon fill="#FFFFFF" points="318,129.5313,456,129.5313,456,153.5313,318,153.5313,306,141.5313" style="stroke:#FFFFFF;stroke-width:1.0;"/><path d="M456,129.5313 L318,129.5313 L306,141.5313 L318,153.5313 L456,153.5313 " fill="#FFFFFF" style="stroke:#000000;stroke-width:1.0;"/><text fill="#000000" font-family="Verdana" font-size="12" font-weight="bold" lengthAdjust="spacing" textLength="26" x="68" y="145.6855">Idle</text><text fill="#000000" font-family="Verdana" font-size="12" font-weight="bold" lengthAdjust="spacing" textLength="55" x="178.5" y="145.6855">Waiting</text><text fill="#000000" font-family="Verdana" font-size="12" font-weight="bold" lengthAdjust="spacing" textLength="17" x="318" y="145.6855">ok</text><line style="stroke:#000000;stroke-width:1.0;" x1="56" x2="56" y1="163.5313" y2="168.5313"/><line style="stroke:#000000;stroke-width:1.0;" x1="106" x2="106" y1="163.5313" y2="168.5313"/><line style="stroke:#000000;stroke-width:1.0;" x1="156" x2="156" y1="163.5313" y2="168.5313"/><line style="stroke:#000000;stroke-width:1.0;" x1="206" x2="206" y1="163.5313" y2="168.5313"/><line style="stroke:#000000;stroke-width:1.0;" x1="256" x2="256" y1="163.5313" y2="168.5313"/><line style="stroke:#000000;stroke-width:1.0;" x1="306" x2="306" y1="163.5313" y2="168.5313"/><line style="stroke:#000000;stroke-width:1.0;" x1="356" x2="356" y1="163.5313" y2="168.5313"/><line style="stroke:#000000;stroke-width:1.0;" x1="406" x2="406" y1="163.5313" y2="168.5313"/><line style="stroke:#000000;stroke-width:1.0;" x1="456" x2="456" y1="163.5313" y2="168.5313"/><line style="stroke:#000000;stroke-width:1.0;" x1="56" x2="456" y1="163.5313" y2="163.5313"/><text fill="#000000" font-family="Verdana" font-size="11" lengthAdjust="spacing" textLength="7" x="52.5" y="179.7417">0</text><text fill="#000000" font-family="Verdana" font-size="11" lengthAdjust="spacing" textLength="21" x="95.5" y="179.7417">100</text><text fill="#000000" font-family="Verdana" font-size="11" lengthAdjust="spacing" textLength="21" x="145.5" y="179.7417">200</text><text fill="#000000" font-family="Verdana" font-size="11" lengthAdjust="spacing" textLength="21" x="195.5" y="179.7417">300</text><text fill="#000000" font-family="Verdana" font-size="11" lengthAdjust="spacing" textLength="21" x="295.5" y="179.7417">500</text><text fill="#000000" font-family="Verdana" font-size="11" lengthAdjust="spacing" textLength="21" x="395.5" y="179.7417">700</text><line style="stroke:#000000;stroke-width:1.0;" x1="106" x2="106" y1="141.5313" y2="95.2344"/><polygon fill="#000000" points="108.7362,102.7519,103.2638,102.7519,106,95.2344" style="stroke:#000000;stroke-width:1.0;"/><text fill="#000000" font-family="Serif" font-size="14" lengthAdjust="spacing" textLength="32" x="106" y="115.747">URL</text><line style="stroke:#000000;stroke-width:1.0;" x1="206" x2="231" y1="129.5313" y2="55.2344"/><polygon fill="#000000" points="231.1958,63.232,226.0092,61.4868,231,55.2344" style="stroke:#000000;stroke-width:1.0;"/><text fill="#000000" font-family="Serif" font-size="14" lengthAdjust="spacing" textLength="41" x="228.6025" y="75.3545">URL2</text><line style="stroke:#696969;stroke-width:1.0;stroke-dasharray:4.0,4.0;" x1="156" x2="156" y1="5" y2="163.5313"/><line style="stroke:#696969;stroke-width:1.0;stroke-dasharray:4.0,4.0;" x1="281" x2="281" y1="5" y2="163.5313"/><text fill="#000000" font-family="Verdana" font-size="12" lengthAdjust="spacing" textLength="111" x="159" y="18.1387">This is my caption</text><line style="stroke:#000000;stroke-width:1.0;stroke-dasharray:4.0,4.0;" x1="356" x2="356" y1="5" y2="163.5313"/><line style="stroke:#000000;stroke-width:1.0;stroke-dasharray:4.0,4.0;" x1="406" x2="406" y1="5" y2="163.5313"/><text fill="#000000" font-family="Verdana" font-size="12" lengthAdjust="spacing" textLength="93" x="359" y="18.1387">This is another</text><text fill="#000000" font-family="Verdana" font-size="12" lengthAdjust="spacing" textLength="54" x="359" y="32.1074">highlight</text></g></svg>