<svg xmlns="http://www.w3.org/2000/svg" xmlns:xlink="http://www.w3.org/1999/xlink" contentStyleType="text/css" height="264px" preserveAspectRatio="none" style="width:503px;height:264px;background:#FFFFFF;" version="1.1" viewBox="0 0 503 264" width="503px" zoomAndPan="magnify"><defs/><g><line style="stroke:#333333;stroke-width:0.5;" x1="10" x2="10" y1="10" y2="223.875"/><line style="stroke:#333333;stroke-width:0.5;" x1="486" x2="486" y1="10" y2="223.875"/><rect fill="#FFD700" height="213.875" style="stroke:none;stroke-width:1.0;" width="125" x="181" y="10"/><rect fill="#F4F4F4" height="213.875" style="stroke:none;stroke-width:1.0;" width="50" x="381" y="10"/><line style="stroke:#333333;stroke-width:0.5;stroke-dasharray:3.0,5.0;" x1="81" x2="81" y1="10" y2="223.875"/><line style="stroke:#333333;stroke-width:0.5;stroke-dasharray:3.0,5.0;" x1="131" x2="131" y1="10" y2="223.875"/><line style="stroke:#333333;stroke-width:0.5;stroke-dasharray:3.0,5.0;" x1="181" x2="181" y1="10" y2="223.875"/><line style="stroke:#333333;stroke-width:0.5;stroke-dasharray:3.0,5.0;" x1="231" x2="231" y1="10" y2="223.875"/><line style="stroke:#333333;stroke-width:0.5;stroke-dasharray:3.0,5.0;" x1="281" x2="281" y1="10" y2="223.875"/><line style="stroke:#333333;stroke-width:0.5;stroke-dasharray:3.0,5.0;" x1="331" x2="331" y1="10" y2="223.875"/><line style="stroke:#333333;stroke-width:0.5;stroke-dasharray:3.0,5.0;" x1="381" x2="381" y1="10" y2="223.875"/><line style="stroke:#333333;stroke-width:0.5;stroke-dasharray:3.0,5.0;" x1="431" x2="431" y1="10" y2="223.875"/><line style="stroke:#333333;stroke-width:0.5;stroke-dasharray:3.0,5.0;" x1="481" x2="481" y1="10" y2="223.875"/><line style="stroke:#333333;stroke-width:0.5;" x1="10" x2="486" y1="10" y2="10"/><text fill="#333333" font-family="sans-serif" font-size="12" font-weight="bold" lengthAdjust="spacing" textLength="95" x="25" y="31.1387">Web Browser</text><line style="stroke:#333333;stroke-width:0.5;" x1="10" x2="131" y1="44.9688" y2="44.9688"/><line style="stroke:#333333;stroke-width:0.5;" x1="131" x2="141" y1="44.9688" y2="10"/><text fill="#333333" font-family="sans-serif" font-size="12" lengthAdjust="spacing" textLength="22" x="25" y="143.0605">Idle</text><text fill="#333333" font-family="sans-serif" font-size="12" lengthAdjust="spacing" textLength="32" x="25" y="123.0605">Proc.</text><text fill="#333333" font-family="sans-serif" font-size="12" lengthAdjust="spacing" textLength="46" x="25" y="103.0605">Waiting</text><line style="stroke:#006400;stroke-width:2.0;" x1="81" x2="181" y1="137.9063" y2="137.9063"/><line style="stroke:#006400;stroke-width:2.0;" x1="181" x2="231" y1="117.9063" y2="117.9063"/><line style="stroke:#006400;stroke-width:2.0;" x1="231" x2="431" y1="97.9063" y2="97.9063"/><line style="stroke:#006400;stroke-width:2.0;" x1="431" x2="481" y1="137.9063" y2="137.9063"/><line style="stroke:#006400;stroke-width:2.0;" x1="181" x2="181" y1="117.9063" y2="137.9063"/><line style="stroke:#006400;stroke-width:2.0;" x1="231" x2="231" y1="97.9063" y2="117.9063"/><line style="stroke:#006400;stroke-width:2.0;" x1="431" x2="431" y1="97.9063" y2="137.9063"/><line style="stroke:#333333;stroke-width:0.5;" x1="10" x2="486" y1="149.9063" y2="149.9063"/><text fill="#333333" font-family="sans-serif" font-size="12" font-weight="bold" lengthAdjust="spacing" textLength="69" x="25" y="171.0449">Web User</text><line style="stroke:#333333;stroke-width:0.5;" x1="10" x2="105" y1="184.875" y2="184.875"/><line style="stroke:#333333;stroke-width:0.5;" x1="105" x2="115" y1="184.875" y2="149.9063"/><polygon fill="#E2E2F0" points="93,189.875,119,189.875,131,201.875,119,213.875,93,213.875,81,201.875" style="stroke:#006400;stroke-width:1.5;"/><polygon fill="#E0FFFF" points="143,189.875,319,189.875,331,201.875,319,213.875,143,213.875,131,201.875" style="stroke:#00FFFF;stroke-width:1.5;"/><polygon fill="#E2E2F0" points="343,189.875,481,189.875,481,213.875,343,213.875,331,201.875" style="stroke:#E2E2F0;stroke-width:1.5;"/><path d="M481,189.875 L343,189.875 L331,201.875 L343,213.875 L481,213.875 " fill="#E2E2F0" style="stroke:#006400;stroke-width:1.5;"/><text fill="#333333" font-family="sans-serif" font-size="12" font-weight="bold" lengthAdjust="spacing" textLength="26" x="93" y="206.0293">Idle</text><text fill="#333333" font-family="sans-serif" font-size="12" font-weight="bold" lengthAdjust="spacing" textLength="55" x="203.5" y="206.0293">Waiting</text><text fill="#333333" font-family="sans-serif" font-size="12" font-weight="bold" lengthAdjust="spacing" textLength="17" x="353" y="206.0293">ok</text><line style="stroke:#333333;stroke-width:2.0;" x1="81" x2="81" y1="223.875" y2="228.875"/><line style="stroke:#333333;stroke-width:2.0;" x1="131" x2="131" y1="223.875" y2="228.875"/><line style="stroke:#333333;stroke-width:2.0;" x1="181" x2="181" y1="223.875" y2="228.875"/><line style="stroke:#333333;stroke-width:2.0;" x1="231" x2="231" y1="223.875" y2="228.875"/><line style="stroke:#333333;stroke-width:2.0;" x1="281" x2="281" y1="223.875" y2="228.875"/><line style="stroke:#333333;stroke-width:2.0;" x1="331" x2="331" y1="223.875" y2="228.875"/><line style="stroke:#333333;stroke-width:2.0;" x1="381" x2="381" y1="223.875" y2="228.875"/><line style="stroke:#333333;stroke-width:2.0;" x1="431" x2="431" y1="223.875" y2="228.875"/><line style="stroke:#333333;stroke-width:2.0;" x1="481" x2="481" y1="223.875" y2="228.875"/><line style="stroke:#333333;stroke-width:2.0;" x1="81" x2="481" y1="223.875" y2="223.875"/><text fill="#333333" font-family="sans-serif" font-size="12" lengthAdjust="spacing" textLength="8" x="77" y="251.0137">0</text><text fill="#333333" font-family="sans-serif" font-size="12" lengthAdjust="spacing" textLength="24" x="119" y="251.0137">100</text><text fill="#333333" font-family="sans-serif" font-size="12" lengthAdjust="spacing" textLength="24" x="169" y="251.0137">200</text><text fill="#333333" font-family="sans-serif" font-size="12" lengthAdjust="spacing" textLength="24" x="219" y="251.0137">300</text><text fill="#333333" font-family="sans-serif" font-size="12" lengthAdjust="spacing" textLength="24" x="319" y="251.0137">500</text><text fill="#333333" font-family="sans-serif" font-size="12" lengthAdjust="spacing" textLength="24" x="419" y="251.0137">700</text><line style="stroke:#C6C6C6;stroke-width:1.0;" x1="131" x2="131" y1="201.875" y2="137.9063"/><polygon fill="#C6C6C6" points="133.7362,145.4238,128.2638,145.4238,131,137.9063" style="stroke:#C6C6C6;stroke-width:1.0;"/><text fill="#262626" font-family="sans-serif" font-size="12" lengthAdjust="spacing" textLength="23" x="141" y="166.5625">URL</text><line style="stroke:#C6C6C6;stroke-width:1.0;" x1="231" x2="256" y1="189.875" y2="97.9063"/><polygon fill="#C6C6C6" points="256.6684,105.8783,251.3877,104.4428,256,97.9063" style="stroke:#C6C6C6;stroke-width:1.0;"/><text fill="#262626" font-family="sans-serif" font-size="12" lengthAdjust="spacing" textLength="31" x="264.0281" y="126.2992">URL2</text><line style="stroke:#696969;stroke-width:2.0;stroke-dasharray:4.0,4.0;" x1="181" x2="181" y1="10" y2="223.875"/><line style="stroke:#696969;stroke-width:2.0;stroke-dasharray:4.0,4.0;" x1="306" x2="306" y1="10" y2="223.875"/><text fill="#000000" font-family="IBM Plex Sans, Noto Sans, Verdana" font-size="12" lengthAdjust="spacing" textLength="111" x="194" y="33.1387">This is my caption</text><line style="stroke:#333333;stroke-width:2.0;stroke-dasharray:4.0,4.0;" x1="381" x2="381" y1="10" y2="223.875"/><line style="stroke:#333333;stroke-width:2.0;stroke-dasharray:4.0,4.0;" x1="431" x2="431" y1="10" y2="223.875"/><text fill="#000000" font-family="IBM Plex Sans, Noto Sans, Verdana" font-size="12" lengthAdjust="spacing" textLength="93" x="394" y="33.1387">This is another</text><text fill="#000000" font-family="IBM Plex Sans, Noto Sans, Verdana" font-size="12" lengthAdjust="spacing" textLength="54" x="394" y="47.1074">highlight</text></g></svg>