<?xml version="1.0" encoding="UTF-8" standalone="no"?><svg xmlns="http://www.w3.org/2000/svg" xmlns:xlink="http://www.w3.org/1999/xlink" contentStyleType="text/css" height="218px" preserveAspectRatio="none" style="width:436px;height:218px;background:#282828;" version="1.1" viewBox="0 0 436 218" width="436px" zoomAndPan="magnify"><defs/><g><line style="stroke:#FFB000;stroke-width:1.0;" x1="5" x2="5" y1="5" y2="193.5313"/><line style="stroke:#FFB000;stroke-width:1.0;" x1="424" x2="424" y1="5" y2="193.5313"/><line style="stroke:#FFB000;stroke-width:0.5;stroke-dasharray:3.0,5.0;" x1="119" x2="119" y1="5" y2="193.5313"/><line style="stroke:#FFB000;stroke-width:0.5;stroke-dasharray:3.0,5.0;" x1="169" x2="169" y1="5" y2="193.5313"/><line style="stroke:#FFB000;stroke-width:0.5;stroke-dasharray:3.0,5.0;" x1="219" x2="219" y1="5" y2="193.5313"/><line style="stroke:#FFB000;stroke-width:0.5;stroke-dasharray:3.0,5.0;" x1="269" x2="269" y1="5" y2="193.5313"/><line style="stroke:#FFB000;stroke-width:0.5;stroke-dasharray:3.0,5.0;" x1="319" x2="319" y1="5" y2="193.5313"/><line style="stroke:#FFB000;stroke-width:0.5;stroke-dasharray:3.0,5.0;" x1="369" x2="369" y1="5" y2="193.5313"/><line style="stroke:#FFB000;stroke-width:0.5;stroke-dasharray:3.0,5.0;" x1="419" x2="419" y1="5" y2="193.5313"/><line style="stroke:#FFB000;stroke-width:1.0;" x1="5" x2="424" y1="5" y2="5"/><text fill="#FFB000" font-family="Verdana" font-size="14" font-weight="bold" lengthAdjust="spacing" textLength="107" x="10" y="17.9951">Web Browser</text><line style="stroke:#FFB000;stroke-width:1.0;" x1="5" x2="118" y1="22.2969" y2="22.2969"/><line style="stroke:#FFB000;stroke-width:1.0;" x1="118" x2="128" y1="22.2969" y2="5"/><text fill="#FFB000" font-family="Verdana" font-size="12" lengthAdjust="spacing" textLength="60" x="10" y="111.4199">Initializing</text><text fill="#FFB000" font-family="Verdana" font-size="12" lengthAdjust="spacing" textLength="22" x="10" y="91.4199">idle</text><text fill="#FFB000" font-family="Verdana" font-size="12" lengthAdjust="spacing" textLength="69" x="10" y="71.4199">Processing</text><text fill="#FFB000" font-family="Verdana" font-size="12" lengthAdjust="spacing" textLength="46" x="10" y="51.4199">Waiting</text><line style="stroke:#FFB000;stroke-width:1.0;" x1="79" x2="119" y1="106.2656" y2="106.2656"/><line style="stroke:#FFB000;stroke-width:1.0;" x1="119" x2="219" y1="86.2656" y2="86.2656"/><line style="stroke:#FFB000;stroke-width:1.0;" x1="219" x2="269" y1="66.2656" y2="66.2656"/><line style="stroke:#FFB000;stroke-width:1.0;" x1="269" x2="419" y1="46.2656" y2="46.2656"/><line style="stroke:#FFB000;stroke-width:1.0;" x1="119" x2="119" y1="86.2656" y2="106.2656"/><line style="stroke:#FFB000;stroke-width:1.0;" x1="219" x2="219" y1="66.2656" y2="86.2656"/><line style="stroke:#FFB000;stroke-width:1.0;" x1="269" x2="269" y1="46.2656" y2="66.2656"/><line style="stroke:#FFB000;stroke-width:1.0;" x1="119" x2="144" y1="81.2656" y2="81.2656"/><polygon fill="#FFB000" points="126.5175,78.5295,126.5175,84.0018,119,81.2656" style="stroke:#FFB000;stroke-width:1.0;"/><polygon fill="#FFB000" points="136.4825,84.0018,136.4825,78.5295,144,81.2656" style="stroke:#FFB000;stroke-width:1.0;"/><text fill="#FFB000" font-family="Verdana" font-size="12" lengthAdjust="spacing" textLength="77" x="93" y="73.4355">{50 ms lag}</text><line style="stroke:#FFB000;stroke-width:1.0;" x1="5" x2="424" y1="118.2656" y2="118.2656"/><text fill="#FFB000" font-family="Verdana" font-size="14" font-weight="bold" lengthAdjust="spacing" textLength="77" x="10" y="131.2607">Web User</text><line style="stroke:#FFB000;stroke-width:1.0;" x1="5" x2="88" y1="135.5625" y2="135.5625"/><line style="stroke:#FFB000;stroke-width:1.0;" x1="88" x2="98" y1="135.5625" y2="118.2656"/><polygon fill="#282828" points="45,159.5313,107,159.5313,119,171.5313,107,183.5313,45,183.5313" style="stroke:#282828;stroke-width:1.0;"/><path d="M45,159.5313 L107,159.5313 L119,171.5313 L107,183.5313 L45,183.5313 " fill="#282828" style="stroke:#FFB000;stroke-width:1.0;"/><text fill="#FFB000" font-family="Verdana" font-size="12" font-weight="bold" lengthAdjust="spacing" textLength="50" x="57" y="175.6855">Absent</text><polygon fill="#282828" points="131,159.5313,357,159.5313,369,171.5313,357,183.5313,131,183.5313,119,171.5313" style="stroke:#FFB000;stroke-width:1.0;"/><polygon fill="#282828" points="381,159.5313,419,159.5313,419,183.5313,381,183.5313,369,171.5313" style="stroke:#282828;stroke-width:1.0;"/><path d="M419,159.5313 L381,159.5313 L369,171.5313 L381,183.5313 L419,183.5313 " fill="#282828" style="stroke:#FFB000;stroke-width:1.0;"/><text fill="#FFB000" font-family="Verdana" font-size="12" font-weight="bold" lengthAdjust="spacing" textLength="55" x="216.5" y="175.6855">Waiting</text><text fill="#FFB000" font-family="Verdana" font-size="12" font-weight="bold" lengthAdjust="spacing" textLength="17" x="381" y="175.6855">ok</text><line style="stroke:#FFB000;stroke-width:1.0;" x1="219" x2="294" y1="150.0469" y2="150.0469"/><polygon fill="#FFB000" points="226.5175,147.3107,226.5175,152.783,219,150.0469" style="stroke:#FFB000;stroke-width:1.0;"/><polygon fill="#FFB000" points="286.4825,152.783,286.4825,147.3107,294,150.0469" style="stroke:#FFB000;stroke-width:1.0;"/><text fill="#FFB000" font-family="Verdana" font-size="12" lengthAdjust="spacing" textLength="62" x="225.5" y="142.2168">{150 ms}</text><line style="stroke:#FFB000;stroke-width:2.0;" x1="119" x2="119" y1="193.5313" y2="198.5313"/><line style="stroke:#FFB000;stroke-width:2.0;" x1="169" x2="169" y1="193.5313" y2="198.5313"/><line style="stroke:#FFB000;stroke-width:2.0;" x1="219" x2="219" y1="193.5313" y2="198.5313"/><line style="stroke:#FFB000;stroke-width:2.0;" x1="269" x2="269" y1="193.5313" y2="198.5313"/><line style="stroke:#FFB000;stroke-width:2.0;" x1="319" x2="319" y1="193.5313" y2="198.5313"/><line style="stroke:#FFB000;stroke-width:2.0;" x1="369" x2="369" y1="193.5313" y2="198.5313"/><line style="stroke:#FFB000;stroke-width:2.0;" x1="419" x2="419" y1="193.5313" y2="198.5313"/><line style="stroke:#FFB000;stroke-width:2.0;" x1="119" x2="419" y1="193.5313" y2="193.5313"/><text fill="#FFB000" font-family="Verdana" font-size="11" lengthAdjust="spacing" textLength="7" x="115.5" y="209.7417">0</text><text fill="#FFB000" font-family="Verdana" font-size="11" lengthAdjust="spacing" textLength="21" x="208.5" y="209.7417">200</text><text fill="#FFB000" font-family="Verdana" font-size="11" lengthAdjust="spacing" textLength="21" x="258.5" y="209.7417">300</text><text fill="#FFB000" font-family="Verdana" font-size="11" lengthAdjust="spacing" textLength="21" x="358.5" y="209.7417">500</text></g></svg>