<svg xmlns="http://www.w3.org/2000/svg" xmlns:xlink="http://www.w3.org/1999/xlink" contentStyleType="text/css" height="529.1667px" preserveAspectRatio="none" style="width:485px;height:529px;" version="1.1" viewBox="0 0 485 529" width="485.4167px" zoomAndPan="magnify"><defs/><g><line style="stroke:#1A78C2;stroke-width:1.0416666666666667;" x1="10.4167" x2="10.4167" y1="10.4167" y2="487.3372"/><line style="stroke:#1A78C2;stroke-width:1.0416666666666667;" x1="467.7083" x2="467.7083" y1="10.4167" y2="487.3372"/><line style="stroke:#1A78C2;stroke-width:0.5208333333333334;stroke-dasharray:3.0,5.0;" x1="150" x2="150" y1="10.4167" y2="487.3372"/><line style="stroke:#1A78C2;stroke-width:0.5208333333333334;stroke-dasharray:3.0,5.0;" x1="202.0833" x2="202.0833" y1="10.4167" y2="487.3372"/><line style="stroke:#1A78C2;stroke-width:0.5208333333333334;stroke-dasharray:3.0,5.0;" x1="254.1667" x2="254.1667" y1="10.4167" y2="487.3372"/><line style="stroke:#1A78C2;stroke-width:0.5208333333333334;stroke-dasharray:3.0,5.0;" x1="306.25" x2="306.25" y1="10.4167" y2="487.3372"/><line style="stroke:#1A78C2;stroke-width:0.5208333333333334;stroke-dasharray:3.0,5.0;" x1="358.3333" x2="358.3333" y1="10.4167" y2="487.3372"/><line style="stroke:#1A78C2;stroke-width:0.5208333333333334;stroke-dasharray:3.0,5.0;" x1="410.4167" x2="410.4167" y1="10.4167" y2="487.3372"/><line style="stroke:#1A78C2;stroke-width:0.5208333333333334;stroke-dasharray:3.0,5.0;" x1="462.5" x2="462.5" y1="10.4167" y2="487.3372"/><line style="stroke:#1A78C2;stroke-width:1.0416666666666667;" x1="10.4167" x2="467.7083" y1="10.4167" y2="10.4167"/><text fill="#2196F3" font-family="Verdana" font-size="12.5" font-weight="bold" lengthAdjust="spacing" textLength="98.9583" x="26.0417" y="32.4361">Web Browser</text><line style="stroke:#1A78C2;stroke-width:1.0416666666666667;" x1="10.4167" x2="136.4583" y1="46.8424" y2="46.8424"/><line style="stroke:#1A78C2;stroke-width:1.0416666666666667;" x1="136.4583" x2="146.875" y1="46.8424" y2="10.4167"/><text fill="#2196F3" font-family="Verdana" font-size="12.5" lengthAdjust="spacing" textLength="62.5" x="26.0417" y="160.5123">Initializing</text><text fill="#2196F3" font-family="Verdana" font-size="12.5" lengthAdjust="spacing" textLength="22.9167" x="26.0417" y="139.679">idle</text><text fill="#2196F3" font-family="Verdana" font-size="12.5" lengthAdjust="spacing" textLength="71.875" x="26.0417" y="118.8456">Processing</text><text fill="#2196F3" font-family="Verdana" font-size="12.5" lengthAdjust="spacing" textLength="47.9167" x="26.0417" y="98.0123">Waiting</text><line style="stroke:#1A78C2;stroke-width:1.0416666666666667;" x1="108.3333" x2="150" y1="155.1432" y2="155.1432"/><line style="stroke:#1A78C2;stroke-width:1.0416666666666667;" x1="150" x2="254.1667" y1="134.3099" y2="134.3099"/><line style="stroke:#1A78C2;stroke-width:1.0416666666666667;" x1="254.1667" x2="306.25" y1="113.4766" y2="113.4766"/><line style="stroke:#1A78C2;stroke-width:1.0416666666666667;" x1="306.25" x2="462.5" y1="92.6432" y2="92.6432"/><line style="stroke:#1A78C2;stroke-width:1.0416666666666667;" x1="150" x2="150" y1="134.3099" y2="155.1432"/><line style="stroke:#1A78C2;stroke-width:1.0416666666666667;" x1="254.1667" x2="254.1667" y1="113.4766" y2="134.3099"/><line style="stroke:#1A78C2;stroke-width:1.0416666666666667;" x1="306.25" x2="306.25" y1="92.6432" y2="113.4766"/><line style="stroke:#1A78C2;stroke-width:1.0416666666666667;" x1="152.6042" x2="173.4375" y1="129.1016" y2="129.1016"/><polygon fill="#1A78C2" points="160.9375,133.2682,160.9375,124.9349,152.6042,129.1016" style="stroke:#1A78C2;stroke-width:1.0416666666666667;"/><polygon fill="#1A78C2" points="165.1042,133.2682,165.1042,124.9349,173.4375,129.1016" style="stroke:#1A78C2;stroke-width:1.0416666666666667;"/><text fill="#2196F3" font-family="Verdana" font-size="12.5" lengthAdjust="spacing" textLength="80.2083" x="122.9167" y="110.5286">{50 ms lag}</text><line style="stroke:#1A78C2;stroke-width:1.0416666666666667;" x1="10.4167" x2="467.7083" y1="167.6432" y2="167.6432"/><text fill="#2196F3" font-family="Verdana" font-size="12.5" font-weight="bold" lengthAdjust="spacing" textLength="71.875" x="26.0417" y="189.6627">Web User</text><line style="stroke:#1A78C2;stroke-width:1.0416666666666667;" x1="10.4167" x2="109.375" y1="204.069" y2="204.069"/><line style="stroke:#1A78C2;stroke-width:1.0416666666666667;" x1="109.375" x2="119.7917" y1="204.069" y2="167.6432"/><polygon fill="none" points="52.0833,249.8698,137.5,249.8698,150,262.3698,137.5,274.8698,52.0833,274.8698" style="stroke:none;stroke-width:1.0416666666666667;"/><path d="M52.0833,249.8698 L137.5,249.8698 L150,262.3698 L137.5,274.8698 L52.0833,274.8698 " fill="none" style="stroke:#1A78C2;stroke-width:1.0416666666666667;"/><text fill="#2196F3" font-family="Verdana" font-size="12.5" font-weight="bold" lengthAdjust="spacing" textLength="52.0833" x="75" y="266.6972">Absent</text><polygon fill="none" points="162.5,249.8698,397.9167,249.8698,410.4167,262.3698,397.9167,274.8698,162.5,274.8698,150,262.3698" style="stroke:#1A78C2;stroke-width:1.0416666666666667;"/><polygon fill="none" points="422.9167,249.8698,462.5,249.8698,462.5,274.8698,422.9167,274.8698,410.4167,262.3698" style="stroke:none;stroke-width:1.0416666666666667;"/><path d="M462.5,249.8698 L422.9167,249.8698 L410.4167,262.3698 L422.9167,274.8698 L462.5,274.8698 " fill="none" style="stroke:#1A78C2;stroke-width:1.0416666666666667;"/><text fill="#2196F3" font-family="Verdana" font-size="12.5" font-weight="bold" lengthAdjust="spacing" textLength="57.2917" x="251.5625" y="266.6972">Waiting</text><text fill="#2196F3" font-family="Verdana" font-size="12.5" font-weight="bold" lengthAdjust="spacing" textLength="17.7083" x="433.3333" y="266.6972">ok</text><line style="stroke:#1A78C2;stroke-width:1.0416666666666667;" x1="255.2083" x2="331.25" y1="229.5736" y2="229.5736"/><polygon fill="#1A78C2" points="263.5417,233.7402,263.5417,225.4069,255.2083,229.5736" style="stroke:#1A78C2;stroke-width:1.0416666666666667;"/><polygon fill="#1A78C2" points="322.9167,233.7402,322.9167,225.4069,331.25,229.5736" style="stroke:#1A78C2;stroke-width:1.0416666666666667;"/><text fill="#2196F3" font-family="Verdana" font-size="12.5" lengthAdjust="spacing" textLength="64.5833" x="260.9375" y="211.0006">{150 ms}</text><line style="stroke:#1A78C2;stroke-width:1.0416666666666667;" x1="10.4167" x2="467.7083" y1="285.2865" y2="285.2865"/><text fill="#2196F3" font-family="Verdana" font-size="12.5" font-weight="bold" lengthAdjust="spacing" textLength="53.125" x="26.0417" y="307.3059">Clock_1</text><line style="stroke:#1A78C2;stroke-width:1.0416666666666667;" x1="10.4167" x2="90.625" y1="321.7122" y2="321.7122"/><line style="stroke:#1A78C2;stroke-width:1.0416666666666667;" x1="90.625" x2="101.0417" y1="321.7122" y2="285.2865"/><line style="stroke:#1A78C2;stroke-width:1.0416666666666667;" x1="150" x2="155.2083" y1="343.5872" y2="343.5872"/><line style="stroke:#1A78C2;stroke-width:1.0416666666666667;" x1="155.2083" x2="155.2083" y1="329.0039" y2="343.5872"/><line style="stroke:#1A78C2;stroke-width:1.0416666666666667;" x1="155.2083" x2="163.0208" y1="329.0039" y2="329.0039"/><line style="stroke:#1A78C2;stroke-width:1.0416666666666667;" x1="163.0208" x2="163.0208" y1="329.0039" y2="343.5872"/><line style="stroke:#1A78C2;stroke-width:1.0416666666666667;" x1="163.0208" x2="207.2917" y1="343.5872" y2="343.5872"/><line style="stroke:#1A78C2;stroke-width:1.0416666666666667;" x1="207.2917" x2="207.2917" y1="329.0039" y2="343.5872"/><line style="stroke:#1A78C2;stroke-width:1.0416666666666667;" x1="207.2917" x2="215.1042" y1="329.0039" y2="329.0039"/><line style="stroke:#1A78C2;stroke-width:1.0416666666666667;" x1="215.1042" x2="215.1042" y1="329.0039" y2="343.5872"/><line style="stroke:#1A78C2;stroke-width:1.0416666666666667;" x1="215.1042" x2="259.375" y1="343.5872" y2="343.5872"/><line style="stroke:#1A78C2;stroke-width:1.0416666666666667;" x1="259.375" x2="259.375" y1="329.0039" y2="343.5872"/><line style="stroke:#1A78C2;stroke-width:1.0416666666666667;" x1="259.375" x2="267.1875" y1="329.0039" y2="329.0039"/><line style="stroke:#1A78C2;stroke-width:1.0416666666666667;" x1="267.1875" x2="267.1875" y1="329.0039" y2="343.5872"/><line style="stroke:#1A78C2;stroke-width:1.0416666666666667;" x1="267.1875" x2="311.4583" y1="343.5872" y2="343.5872"/><line style="stroke:#1A78C2;stroke-width:1.0416666666666667;" x1="311.4583" x2="311.4583" y1="329.0039" y2="343.5872"/><line style="stroke:#1A78C2;stroke-width:1.0416666666666667;" x1="311.4583" x2="319.2708" y1="329.0039" y2="329.0039"/><line style="stroke:#1A78C2;stroke-width:1.0416666666666667;" x1="319.2708" x2="319.2708" y1="329.0039" y2="343.5872"/><line style="stroke:#1A78C2;stroke-width:1.0416666666666667;" x1="319.2708" x2="363.5417" y1="343.5872" y2="343.5872"/><line style="stroke:#1A78C2;stroke-width:1.0416666666666667;" x1="363.5417" x2="363.5417" y1="329.0039" y2="343.5872"/><line style="stroke:#1A78C2;stroke-width:1.0416666666666667;" x1="363.5417" x2="371.3542" y1="329.0039" y2="329.0039"/><line style="stroke:#1A78C2;stroke-width:1.0416666666666667;" x1="371.3542" x2="371.3542" y1="329.0039" y2="343.5872"/><line style="stroke:#1A78C2;stroke-width:1.0416666666666667;" x1="371.3542" x2="415.625" y1="343.5872" y2="343.5872"/><line style="stroke:#1A78C2;stroke-width:1.0416666666666667;" x1="415.625" x2="415.625" y1="329.0039" y2="343.5872"/><line style="stroke:#1A78C2;stroke-width:1.0416666666666667;" x1="415.625" x2="423.4375" y1="329.0039" y2="329.0039"/><line style="stroke:#1A78C2;stroke-width:1.0416666666666667;" x1="423.4375" x2="423.4375" y1="329.0039" y2="343.5872"/><line style="stroke:#1A78C2;stroke-width:1.0416666666666667;" x1="423.4375" x2="462.5" y1="343.5872" y2="343.5872"/><line style="stroke:#1A78C2;stroke-width:1.0416666666666667;" x1="10.4167" x2="467.7083" y1="351.9206" y2="351.9206"/><text fill="#2196F3" font-family="Verdana" font-size="12.5" font-weight="bold" lengthAdjust="spacing" textLength="46.875" x="26.0417" y="371.873">Binary</text><line style="stroke:#1A78C2;stroke-width:1.0416666666666667;" x1="150" x2="202.0833" y1="374.8372" y2="374.8372"/><line style="stroke:#1A78C2;stroke-width:1.0416666666666667;" x1="202.0833" x2="202.0833" y1="360.2539" y2="374.8372"/><line style="stroke:#1A78C2;stroke-width:1.0416666666666667;" x1="202.0833" x2="462.5" y1="360.2539" y2="360.2539"/><line style="stroke:#1A78C2;stroke-width:1.0416666666666667;" x1="10.4167" x2="467.7083" y1="383.1706" y2="383.1706"/><text fill="#2196F3" font-family="Verdana" font-size="12.5" font-weight="bold" lengthAdjust="spacing" textLength="51.0417" x="26.0417" y="439.5813">Analog</text><text fill="#2196F3" font-family="Verdana" font-size="12.5" font-weight="bold" lengthAdjust="spacing" textLength="21.875" x="115.625" y="483.3313">0.0</text><text fill="#2196F3" font-family="Verdana" font-size="12.5" font-weight="bold" lengthAdjust="spacing" textLength="21.875" x="115.625" y="395.8313">3.0</text><line style="stroke:#1A78C2;stroke-width:1.0416666666666667;" x1="150" x2="150" y1="479.0039" y2="479.0039"/><line style="stroke:#1A78C2;stroke-width:1.0416666666666667;" x1="150" x2="202.0833" y1="479.0039" y2="391.5039"/><line style="stroke:#1A78C2;stroke-width:1.0416666666666667;" x1="202.0833" x2="306.25" y1="391.5039" y2="449.8372"/><line style="stroke:#1A78C2;stroke-width:1.0416666666666667;" x1="306.25" x2="462.5" y1="449.8372" y2="449.8372"/><line style="stroke:#1A78C2;stroke-width:1.0416666666666667;" x1="150" x2="150" y1="487.3372" y2="492.5456"/><line style="stroke:#1A78C2;stroke-width:1.0416666666666667;" x1="202.0833" x2="202.0833" y1="487.3372" y2="492.5456"/><line style="stroke:#1A78C2;stroke-width:1.0416666666666667;" x1="254.1667" x2="254.1667" y1="487.3372" y2="492.5456"/><line style="stroke:#1A78C2;stroke-width:1.0416666666666667;" x1="306.25" x2="306.25" y1="487.3372" y2="492.5456"/><line style="stroke:#1A78C2;stroke-width:1.0416666666666667;" x1="358.3333" x2="358.3333" y1="487.3372" y2="492.5456"/><line style="stroke:#1A78C2;stroke-width:1.0416666666666667;" x1="410.4167" x2="410.4167" y1="487.3372" y2="492.5456"/><line style="stroke:#1A78C2;stroke-width:1.0416666666666667;" x1="462.5" x2="462.5" y1="487.3372" y2="492.5456"/><line style="stroke:#1A78C2;stroke-width:1.0416666666666667;" x1="150" x2="462.5" y1="487.3372" y2="487.3372"/><text fill="#2196F3" font-family="Verdana" font-size="12.5" lengthAdjust="spacing" textLength="8.3333" x="145.8333" y="515.6067">0</text><text fill="#2196F3" font-family="Verdana" font-size="12.5" lengthAdjust="spacing" textLength="25" x="189.5833" y="515.6067">100</text><text fill="#2196F3" font-family="Verdana" font-size="12.5" lengthAdjust="spacing" textLength="25" x="241.6667" y="515.6067">200</text><text fill="#2196F3" font-family="Verdana" font-size="12.5" lengthAdjust="spacing" textLength="25" x="293.75" y="515.6067">300</text><text fill="#2196F3" font-family="Verdana" font-size="12.5" lengthAdjust="spacing" textLength="25" x="397.9167" y="515.6067">500</text></g></svg>