<?xml version="1.0" encoding="UTF-8" standalone="no"?><svg xmlns="http://www.w3.org/2000/svg" xmlns:xlink="http://www.w3.org/1999/xlink" contentStyleType="text/css" height="260.4167px" preserveAspectRatio="none" style="width:519px;height:260px;" version="1.1" viewBox="0 0 519 260" width="519.7917px" zoomAndPan="magnify"><defs/><g><line style="stroke:#BEBEBE;stroke-width:1.0416666666666667;" x1="10.4167" x2="10.4167" y1="10.4167" y2="220.7031"/><line style="stroke:#BEBEBE;stroke-width:1.0416666666666667;" x1="502.0833" x2="502.0833" y1="10.4167" y2="220.7031"/><rect fill="#FFD700" height="210.2865" style="stroke:none;stroke-width:1.0416666666666667;" width="130.2083" x="184.375" y="10.4167"/><rect fill="none" height="210.2865" style="stroke:none;stroke-width:1.0416666666666667;" width="52.0833" x="392.7083" y="10.4167"/><line style="stroke:#BEBEBE;stroke-width:0.5208333333333334;stroke-dasharray:3.0,5.0;" x1="80.2083" x2="80.2083" y1="10.4167" y2="220.7031"/><line style="stroke:#BEBEBE;stroke-width:0.5208333333333334;stroke-dasharray:3.0,5.0;" x1="132.2917" x2="132.2917" y1="10.4167" y2="220.7031"/><line style="stroke:#BEBEBE;stroke-width:0.5208333333333334;stroke-dasharray:3.0,5.0;" x1="184.375" x2="184.375" y1="10.4167" y2="220.7031"/><line style="stroke:#BEBEBE;stroke-width:0.5208333333333334;stroke-dasharray:3.0,5.0;" x1="236.4583" x2="236.4583" y1="10.4167" y2="220.7031"/><line style="stroke:#BEBEBE;stroke-width:0.5208333333333334;stroke-dasharray:3.0,5.0;" x1="288.5417" x2="288.5417" y1="10.4167" y2="220.7031"/><line style="stroke:#BEBEBE;stroke-width:0.5208333333333334;stroke-dasharray:3.0,5.0;" x1="340.625" x2="340.625" y1="10.4167" y2="220.7031"/><line style="stroke:#BEBEBE;stroke-width:0.5208333333333334;stroke-dasharray:3.0,5.0;" x1="392.7083" x2="392.7083" y1="10.4167" y2="220.7031"/><line style="stroke:#BEBEBE;stroke-width:0.5208333333333334;stroke-dasharray:3.0,5.0;" x1="444.7917" x2="444.7917" y1="10.4167" y2="220.7031"/><line style="stroke:#BEBEBE;stroke-width:0.5208333333333334;stroke-dasharray:3.0,5.0;" x1="496.875" x2="496.875" y1="10.4167" y2="220.7031"/><line style="stroke:#BEBEBE;stroke-width:1.0416666666666667;" x1="10.4167" x2="502.0833" y1="10.4167" y2="10.4167"/><text fill="#336699" font-family="Verdana" font-size="12.5" font-weight="bold" lengthAdjust="spacing" textLength="98.9583" x="23.9583" y="30.3528">Web Browser</text><line style="stroke:#BEBEBE;stroke-width:1.0416666666666667;" x1="10.4167" x2="132.2917" y1="42.6758" y2="42.6758"/><line style="stroke:#BEBEBE;stroke-width:1.0416666666666667;" x1="132.2917" x2="142.7083" y1="42.6758" y2="10.4167"/><text fill="#336699" font-family="Verdana" font-size="12.5" lengthAdjust="spacing" textLength="22.9167" x="23.9583" y="140.6881">Idle</text><text fill="#336699" font-family="Verdana" font-size="12.5" lengthAdjust="spacing" textLength="33.3333" x="23.9583" y="119.8547">Proc.</text><text fill="#336699" font-family="Verdana" font-size="12.5" lengthAdjust="spacing" textLength="47.9167" x="23.9583" y="99.0214">Waiting</text><line style="stroke:#BEBEBE;stroke-width:1.0416666666666667;" x1="80.2083" x2="184.375" y1="135.319" y2="135.319"/><line style="stroke:#BEBEBE;stroke-width:1.0416666666666667;" x1="184.375" x2="236.4583" y1="114.4857" y2="114.4857"/><line style="stroke:#BEBEBE;stroke-width:1.0416666666666667;" x1="236.4583" x2="444.7917" y1="93.6523" y2="93.6523"/><line style="stroke:#BEBEBE;stroke-width:1.0416666666666667;" x1="444.7917" x2="496.875" y1="135.319" y2="135.319"/><line style="stroke:#BEBEBE;stroke-width:1.0416666666666667;" x1="184.375" x2="184.375" y1="114.4857" y2="135.319"/><line style="stroke:#BEBEBE;stroke-width:1.0416666666666667;" x1="236.4583" x2="236.4583" y1="93.6523" y2="114.4857"/><line style="stroke:#BEBEBE;stroke-width:1.0416666666666667;" x1="444.7917" x2="444.7917" y1="93.6523" y2="135.319"/><line style="stroke:#BEBEBE;stroke-width:1.0416666666666667;" x1="10.4167" x2="502.0833" y1="147.819" y2="147.819"/><text fill="#336699" font-family="Verdana" font-size="12.5" font-weight="bold" lengthAdjust="spacing" textLength="71.875" x="23.9583" y="167.7551">Web User</text><line style="stroke:#BEBEBE;stroke-width:1.0416666666666667;" x1="10.4167" x2="105.2083" y1="180.0781" y2="180.0781"/><line style="stroke:#BEBEBE;stroke-width:1.0416666666666667;" x1="105.2083" x2="115.625" y1="180.0781" y2="147.819"/><polygon fill="none" points="92.7083,185.2865,119.7917,185.2865,132.2917,197.7865,119.7917,210.2865,92.7083,210.2865,80.2083,197.7865" style="stroke:#BEBEBE;stroke-width:1.0416666666666667;"/><polygon fill="#E0FFFF" points="144.7917,185.2865,328.125,185.2865,340.625,197.7865,328.125,210.2865,144.7917,210.2865,132.2917,197.7865" style="stroke:#00FFFF;stroke-width:1.0416666666666667;"/><polygon fill="none" points="353.125,185.2865,496.875,185.2865,496.875,210.2865,353.125,210.2865,340.625,197.7865" style="stroke:none;stroke-width:1.0416666666666667;"/><path d="M496.875,185.2865 L353.125,185.2865 L340.625,197.7865 L353.125,210.2865 L496.875,210.2865 " fill="none" style="stroke:#BEBEBE;stroke-width:1.0416666666666667;"/><text fill="#336699" font-family="Verdana" font-size="12.5" font-weight="bold" lengthAdjust="spacing" textLength="27.0833" x="92.7083" y="202.1139">Idle</text><text fill="#336699" font-family="Verdana" font-size="12.5" font-weight="bold" lengthAdjust="spacing" textLength="57.2917" x="207.8125" y="202.1139">Waiting</text><text fill="#336699" font-family="Verdana" font-size="12.5" font-weight="bold" lengthAdjust="spacing" textLength="17.7083" x="361.4583" y="202.1139">ok</text><line style="stroke:#BEBEBE;stroke-width:1.0416666666666667;" x1="80.2083" x2="80.2083" y1="220.7031" y2="225.9115"/><line style="stroke:#BEBEBE;stroke-width:1.0416666666666667;" x1="132.2917" x2="132.2917" y1="220.7031" y2="225.9115"/><line style="stroke:#BEBEBE;stroke-width:1.0416666666666667;" x1="184.375" x2="184.375" y1="220.7031" y2="225.9115"/><line style="stroke:#BEBEBE;stroke-width:1.0416666666666667;" x1="236.4583" x2="236.4583" y1="220.7031" y2="225.9115"/><line style="stroke:#BEBEBE;stroke-width:1.0416666666666667;" x1="288.5417" x2="288.5417" y1="220.7031" y2="225.9115"/><line style="stroke:#BEBEBE;stroke-width:1.0416666666666667;" x1="340.625" x2="340.625" y1="220.7031" y2="225.9115"/><line style="stroke:#BEBEBE;stroke-width:1.0416666666666667;" x1="392.7083" x2="392.7083" y1="220.7031" y2="225.9115"/><line style="stroke:#BEBEBE;stroke-width:1.0416666666666667;" x1="444.7917" x2="444.7917" y1="220.7031" y2="225.9115"/><line style="stroke:#BEBEBE;stroke-width:1.0416666666666667;" x1="496.875" x2="496.875" y1="220.7031" y2="225.9115"/><line style="stroke:#BEBEBE;stroke-width:1.0416666666666667;" x1="80.2083" x2="496.875" y1="220.7031" y2="220.7031"/><text fill="#336699" font-family="Verdana" font-size="12.5" lengthAdjust="spacing" textLength="8.3333" x="76.0417" y="246.8892">0</text><text fill="#336699" font-family="Verdana" font-size="12.5" lengthAdjust="spacing" textLength="25" x="119.7917" y="246.8892">100</text><text fill="#336699" font-family="Verdana" font-size="12.5" lengthAdjust="spacing" textLength="25" x="171.875" y="246.8892">200</text><text fill="#336699" font-family="Verdana" font-size="12.5" lengthAdjust="spacing" textLength="25" x="223.9583" y="246.8892">300</text><text fill="#336699" font-family="Verdana" font-size="12.5" lengthAdjust="spacing" textLength="25" x="328.125" y="246.8892">500</text><text fill="#336699" font-family="Verdana" font-size="12.5" lengthAdjust="spacing" textLength="25" x="432.2917" y="246.8892">700</text><line style="stroke:#EEEEEE;stroke-width:3.125;" x1="132.2917" x2="132.2917" y1="197.7865" y2="135.319"/><polygon fill="#EEEEEE" points="135.1418,143.1498,129.4415,143.1498,132.2917,135.319" style="stroke:#EEEEEE;stroke-width:3.125;"/><text fill="#EEEEEE" font-family="Serif" font-size="14.5833" lengthAdjust="spacing" textLength="33.3333" x="140.625" y="165.0197">URL</text><line style="stroke:#EEEEEE;stroke-width:3.125;" x1="236.4583" x2="262.5" y1="185.2865" y2="93.6523"/><polygon fill="#EEEEEE" points="263.1009,101.964,257.6177,100.4057,262.5,93.6523" style="stroke:#EEEEEE;stroke-width:3.125;"/><text fill="#EEEEEE" font-family="Serif" font-size="14.5833" lengthAdjust="spacing" textLength="42.7083" x="268.6927" y="123.0548">URL2</text><line style="stroke:#696969;stroke-width:1.0416666666666667;stroke-dasharray:4.0,4.0;" x1="184.375" x2="184.375" y1="10.4167" y2="220.7031"/><line style="stroke:#696969;stroke-width:1.0416666666666667;stroke-dasharray:4.0,4.0;" x1="314.5833" x2="314.5833" y1="10.4167" y2="220.7031"/><text fill="#000000" font-family="Verdana" font-size="12.5" lengthAdjust="spacing" textLength="115.625" x="195.8333" y="32.4361">This is my caption</text><line style="stroke:#BEBEBE;stroke-width:1.0416666666666667;stroke-dasharray:4.0,4.0;" x1="392.7083" x2="392.7083" y1="10.4167" y2="220.7031"/><line style="stroke:#BEBEBE;stroke-width:1.0416666666666667;stroke-dasharray:4.0,4.0;" x1="444.7917" x2="444.7917" y1="10.4167" y2="220.7031"/><text fill="#000000" font-family="Verdana" font-size="12.5" lengthAdjust="spacing" textLength="96.875" x="404.1667" y="32.4361">This is another</text><text fill="#000000" font-family="Verdana" font-size="12.5" lengthAdjust="spacing" textLength="56.25" x="404.1667" y="46.9869">highlight</text></g></svg>