<?xml version="1.0" encoding="UTF-8" standalone="no"?><svg xmlns="http://www.w3.org/2000/svg" xmlns:xlink="http://www.w3.org/1999/xlink" contentScriptType="application/ecmascript" contentStyleType="text/css" height="229px" preserveAspectRatio="none" style="width:446px;height:229px;background:#F9F9F9;" version="1.1" viewBox="0 0 446 229" width="446px" zoomAndPan="magnify"><defs/><g><line style="stroke:#000000;stroke-width:1.7;" x1="10" x2="10" y1="10" y2="198.5313"/><line style="stroke:#000000;stroke-width:1.7;" x1="429" x2="429" y1="10" y2="198.5313"/><line style="stroke:#AAAAAA;stroke-width:0.5;stroke-dasharray:3.0,5.0;" x1="124" x2="124" y1="10" y2="198.5313"/><line style="stroke:#AAAAAA;stroke-width:0.5;stroke-dasharray:3.0,5.0;" x1="174" x2="174" y1="10" y2="198.5313"/><line style="stroke:#AAAAAA;stroke-width:0.5;stroke-dasharray:3.0,5.0;" x1="224" x2="224" y1="10" y2="198.5313"/><line style="stroke:#AAAAAA;stroke-width:0.5;stroke-dasharray:3.0,5.0;" x1="274" x2="274" y1="10" y2="198.5313"/><line style="stroke:#AAAAAA;stroke-width:0.5;stroke-dasharray:3.0,5.0;" x1="324" x2="324" y1="10" y2="198.5313"/><line style="stroke:#AAAAAA;stroke-width:0.5;stroke-dasharray:3.0,5.0;" x1="374" x2="374" y1="10" y2="198.5313"/><line style="stroke:#AAAAAA;stroke-width:0.5;stroke-dasharray:3.0,5.0;" x1="424" x2="424" y1="10" y2="198.5313"/><line style="stroke:#000000;stroke-width:1.7;" x1="10" x2="429" y1="10" y2="10"/><text fill="#000000" font-family="sans-serif" font-size="12" lengthAdjust="spacing" textLength="81" x="15" y="21.1387">Web Browser</text><line style="stroke:#000000;stroke-width:1.0;" x1="10" x2="97" y1="24.9688" y2="24.9688"/><line style="stroke:#000000;stroke-width:1.0;" x1="97" x2="107" y1="24.9688" y2="10"/><text fill="#000000" font-family="sans-serif" font-size="12" lengthAdjust="spacing" textLength="60" x="15" y="116.4199">Initializing</text><text fill="#000000" font-family="sans-serif" font-size="12" lengthAdjust="spacing" textLength="22" x="15" y="96.4199">idle</text><text fill="#000000" font-family="sans-serif" font-size="12" lengthAdjust="spacing" textLength="69" x="15" y="76.4199">Processing</text><text fill="#000000" font-family="sans-serif" font-size="12" lengthAdjust="spacing" textLength="46" x="15" y="56.4199">Waiting</text><line style="stroke:#038048;stroke-width:1.5;" x1="84" x2="124" y1="111.2656" y2="111.2656"/><line style="stroke:#038048;stroke-width:1.5;" x1="124" x2="224" y1="91.2656" y2="91.2656"/><line style="stroke:#038048;stroke-width:1.5;" x1="224" x2="274" y1="71.2656" y2="71.2656"/><line style="stroke:#038048;stroke-width:1.5;" x1="274" x2="424" y1="51.2656" y2="51.2656"/><line style="stroke:#038048;stroke-width:1.5;" x1="124" x2="124" y1="91.2656" y2="111.2656"/><line style="stroke:#038048;stroke-width:1.5;" x1="224" x2="224" y1="71.2656" y2="91.2656"/><line style="stroke:#038048;stroke-width:1.5;" x1="274" x2="274" y1="51.2656" y2="71.2656"/><line style="stroke:#A80036;stroke-width:1.5;" x1="124" x2="149" y1="86.2656" y2="86.2656"/><polygon fill="#A80036" points="131.5175,83.5295,131.5175,89.0018,124,86.2656" style="stroke:#A80036;stroke-width:1.5;"/><polygon fill="#A80036" points="141.4825,89.0018,141.4825,83.5295,149,86.2656" style="stroke:#A80036;stroke-width:1.5;"/><text fill="#000000" font-family="Serif" font-size="14" lengthAdjust="spacing" textLength="86" x="93.5" y="77.9639">{50 ms lag}</text><line style="stroke:#000000;stroke-width:1.7;" x1="10" x2="429" y1="123.2656" y2="123.2656"/><text fill="#000000" font-family="sans-serif" font-size="12" lengthAdjust="spacing" textLength="60" x="15" y="134.4043">Web User</text><line style="stroke:#000000;stroke-width:1.0;" x1="10" x2="76" y1="138.2344" y2="138.2344"/><line style="stroke:#000000;stroke-width:1.0;" x1="76" x2="86" y1="138.2344" y2="123.2656"/><polygon fill="#D7E0F2" points="56,164.5313,112,164.5313,124,176.5313,112,188.5313,56,188.5313" style="stroke:#D7E0F2;stroke-width:1.5;"/><path d="M56,164.5313 L112,164.5313 L124,176.5313 L112,188.5313 L56,188.5313 " fill="#D7E0F2" style="stroke:#038048;stroke-width:1.5;"/><text fill="#000000" font-family="sans-serif" font-size="12" lengthAdjust="spacing" textLength="44" x="68" y="180.6855">Absent</text><polygon fill="#D7E0F2" points="136,164.5313,362,164.5313,374,176.5313,362,188.5313,136,188.5313,124,176.5313" style="stroke:#038048;stroke-width:1.5;"/><polygon fill="#D7E0F2" points="386,164.5313,424,164.5313,424,188.5313,386,188.5313,374,176.5313" style="stroke:#D7E0F2;stroke-width:1.5;"/><path d="M424,164.5313 L386,164.5313 L374,176.5313 L386,188.5313 L424,188.5313 " fill="#D7E0F2" style="stroke:#038048;stroke-width:1.5;"/><text fill="#000000" font-family="sans-serif" font-size="12" lengthAdjust="spacing" textLength="46" x="226" y="180.6855">Waiting</text><text fill="#000000" font-family="sans-serif" font-size="12" lengthAdjust="spacing" textLength="15" x="386" y="180.6855">ok</text><line style="stroke:#A80036;stroke-width:1.5;" x1="224" x2="299" y1="153.8828" y2="153.8828"/><polygon fill="#A80036" points="231.5175,151.1467,231.5175,156.619,224,153.8828" style="stroke:#A80036;stroke-width:1.0;"/><polygon fill="#A80036" points="291.4825,156.619,291.4825,151.1467,299,153.8828" style="stroke:#A80036;stroke-width:1.0;"/><text fill="#000000" font-family="Serif" font-size="14" lengthAdjust="spacing" textLength="70" x="226.5" y="145.5811">{150 ms}</text><line style="stroke:#000000;stroke-width:2.0;" x1="124" x2="124" y1="198.5313" y2="203.5313"/><line style="stroke:#000000;stroke-width:2.0;" x1="174" x2="174" y1="198.5313" y2="203.5313"/><line style="stroke:#000000;stroke-width:2.0;" x1="224" x2="224" y1="198.5313" y2="203.5313"/><line style="stroke:#000000;stroke-width:2.0;" x1="274" x2="274" y1="198.5313" y2="203.5313"/><line style="stroke:#000000;stroke-width:2.0;" x1="324" x2="324" y1="198.5313" y2="203.5313"/><line style="stroke:#000000;stroke-width:2.0;" x1="374" x2="374" y1="198.5313" y2="203.5313"/><line style="stroke:#000000;stroke-width:2.0;" x1="424" x2="424" y1="198.5313" y2="203.5313"/><line style="stroke:#000000;stroke-width:2.0;" x1="124" x2="424" y1="198.5313" y2="198.5313"/><text fill="#000000" font-family="sans-serif" font-size="12" lengthAdjust="spacing" textLength="8" x="120" y="215.6699">0</text><text fill="#000000" font-family="sans-serif" font-size="12" lengthAdjust="spacing" textLength="24" x="212" y="215.6699">200</text><text fill="#000000" font-family="sans-serif" font-size="12" lengthAdjust="spacing" textLength="24" x="262" y="215.6699">300</text><text fill="#000000" font-family="sans-serif" font-size="12" lengthAdjust="spacing" textLength="24" x="362" y="215.6699">500</text></g></svg>