<svg xmlns="http://www.w3.org/2000/svg" xmlns:xlink="http://www.w3.org/1999/xlink" contentStyleType="text/css" height="275px" preserveAspectRatio="none" style="width:522px;height:275px;" version="1.1" viewBox="0 0 522 275" width="522.9167px" zoomAndPan="magnify"><defs/><g><line style="stroke:#1A78C2;stroke-width:1.0416666666666667;" x1="10.4167" x2="10.4167" y1="10.4167" y2="233.2031"/><line style="stroke:#1A78C2;stroke-width:1.0416666666666667;" x1="506.0567" x2="506.0567" y1="10.4167" y2="233.2031"/><rect fill="#FFD700" height="222.7865" style="stroke:none;stroke-width:1.0416666666666667;" width="130.2083" x="188.3484" y="10.4167"/><rect fill="none" height="222.7865" style="stroke:none;stroke-width:1.0416666666666667;" width="52.0833" x="396.6817" y="10.4167"/><line style="stroke:#1A78C2;stroke-width:0.5208333333333334;stroke-dasharray:3.0,5.0;" x1="84.1817" x2="84.1817" y1="10.4167" y2="233.2031"/><line style="stroke:#1A78C2;stroke-width:0.5208333333333334;stroke-dasharray:3.0,5.0;" x1="136.2651" x2="136.2651" y1="10.4167" y2="233.2031"/><line style="stroke:#1A78C2;stroke-width:0.5208333333333334;stroke-dasharray:3.0,5.0;" x1="188.3484" x2="188.3484" y1="10.4167" y2="233.2031"/><line style="stroke:#1A78C2;stroke-width:0.5208333333333334;stroke-dasharray:3.0,5.0;" x1="240.4317" x2="240.4317" y1="10.4167" y2="233.2031"/><line style="stroke:#1A78C2;stroke-width:0.5208333333333334;stroke-dasharray:3.0,5.0;" x1="292.5151" x2="292.5151" y1="10.4167" y2="233.2031"/><line style="stroke:#1A78C2;stroke-width:0.5208333333333334;stroke-dasharray:3.0,5.0;" x1="344.5984" x2="344.5984" y1="10.4167" y2="233.2031"/><line style="stroke:#1A78C2;stroke-width:0.5208333333333334;stroke-dasharray:3.0,5.0;" x1="396.6817" x2="396.6817" y1="10.4167" y2="233.2031"/><line style="stroke:#1A78C2;stroke-width:0.5208333333333334;stroke-dasharray:3.0,5.0;" x1="448.7651" x2="448.7651" y1="10.4167" y2="233.2031"/><line style="stroke:#1A78C2;stroke-width:0.5208333333333334;stroke-dasharray:3.0,5.0;" x1="500.8484" x2="500.8484" y1="10.4167" y2="233.2031"/><line style="stroke:#1A78C2;stroke-width:1.0416666666666667;" x1="10.4167" x2="506.0567" y1="10.4167" y2="10.4167"/><text fill="#FFFFFF" font-family="Verdana" font-size="12.5" font-weight="bold" lengthAdjust="spacing" textLength="93.4753" x="26.0417" y="32.4361">Web Browser</text><line style="stroke:#1A78C2;stroke-width:1.0416666666666667;" x1="10.4167" x2="130.9753" y1="46.8424" y2="46.8424"/><line style="stroke:#1A78C2;stroke-width:1.0416666666666667;" x1="130.9753" x2="141.392" y1="46.8424" y2="10.4167"/><text fill="#FFFFFF" font-family="Verdana" font-size="12.5" lengthAdjust="spacing" textLength="22.7844" x="26.0417" y="149.0214">Idle</text><text fill="#FFFFFF" font-family="Verdana" font-size="12.5" lengthAdjust="spacing" textLength="31.1707" x="26.0417" y="128.1881">Proc.</text><text fill="#FFFFFF" font-family="Verdana" font-size="12.5" lengthAdjust="spacing" textLength="47.7234" x="26.0417" y="107.3547">Waiting</text><line style="stroke:#1A78C2;stroke-width:1.0416666666666667;" x1="84.1817" x2="188.3484" y1="143.6523" y2="143.6523"/><line style="stroke:#1A78C2;stroke-width:1.0416666666666667;" x1="188.3484" x2="240.4317" y1="122.819" y2="122.819"/><line style="stroke:#1A78C2;stroke-width:1.0416666666666667;" x1="240.4317" x2="448.7651" y1="101.9857" y2="101.9857"/><line style="stroke:#1A78C2;stroke-width:1.0416666666666667;" x1="448.7651" x2="500.8484" y1="143.6523" y2="143.6523"/><line style="stroke:#1A78C2;stroke-width:1.0416666666666667;" x1="188.3484" x2="188.3484" y1="122.819" y2="143.6523"/><line style="stroke:#1A78C2;stroke-width:1.0416666666666667;" x1="240.4317" x2="240.4317" y1="101.9857" y2="122.819"/><line style="stroke:#1A78C2;stroke-width:1.0416666666666667;" x1="448.7651" x2="448.7651" y1="101.9857" y2="143.6523"/><line style="stroke:#1A78C2;stroke-width:1.0416666666666667;" x1="10.4167" x2="506.0567" y1="156.1523" y2="156.1523"/><text fill="#FFFFFF" font-family="Verdana" font-size="12.5" font-weight="bold" lengthAdjust="spacing" textLength="67.7979" x="26.0417" y="178.1718">Web User</text><line style="stroke:#1A78C2;stroke-width:1.0416666666666667;" x1="10.4167" x2="105.2979" y1="192.5781" y2="192.5781"/><line style="stroke:#1A78C2;stroke-width:1.0416666666666667;" x1="105.2979" x2="115.7145" y1="192.5781" y2="156.1523"/><polygon fill="none" points="96.6817,197.7865,123.7651,197.7865,136.2651,210.2865,123.7651,222.7865,96.6817,222.7865,84.1817,210.2865" style="stroke:#1A78C2;stroke-width:1.0416666666666667;"/><polygon fill="#E0FFFF" points="148.7651,197.7865,332.0984,197.7865,344.5984,210.2865,332.0984,222.7865,148.7651,222.7865,136.2651,210.2865" style="stroke:#00FFFF;stroke-width:1.0416666666666667;"/><polygon fill="none" points="357.0984,197.7865,500.8484,197.7865,500.8484,222.7865,357.0984,222.7865,344.5984,210.2865" style="stroke:none;stroke-width:1.0416666666666667;"/><path d="M500.8484,197.7865 L357.0984,197.7865 L344.5984,210.2865 L357.0984,222.7865 L500.8484,222.7865 " fill="none" style="stroke:#1A78C2;stroke-width:1.0416666666666667;"/><text fill="#FFFFFF" font-family="Verdana" font-size="12.5" font-weight="bold" lengthAdjust="spacing" textLength="26.3611" x="97.0428" y="214.6139">Idle</text><text fill="#FFFFFF" font-family="Verdana" font-size="12.5" font-weight="bold" lengthAdjust="spacing" textLength="54.6143" x="213.1246" y="214.6139">Waiting</text><text fill="#FFFFFF" font-family="Verdana" font-size="12.5" font-weight="bold" lengthAdjust="spacing" textLength="16.9006" x="367.5151" y="214.6139">ok</text><line style="stroke:#1A78C2;stroke-width:1.0416666666666667;" x1="84.1817" x2="84.1817" y1="233.2031" y2="238.4115"/><line style="stroke:#1A78C2;stroke-width:1.0416666666666667;" x1="136.2651" x2="136.2651" y1="233.2031" y2="238.4115"/><line style="stroke:#1A78C2;stroke-width:1.0416666666666667;" x1="188.3484" x2="188.3484" y1="233.2031" y2="238.4115"/><line style="stroke:#1A78C2;stroke-width:1.0416666666666667;" x1="240.4317" x2="240.4317" y1="233.2031" y2="238.4115"/><line style="stroke:#1A78C2;stroke-width:1.0416666666666667;" x1="292.5151" x2="292.5151" y1="233.2031" y2="238.4115"/><line style="stroke:#1A78C2;stroke-width:1.0416666666666667;" x1="344.5984" x2="344.5984" y1="233.2031" y2="238.4115"/><line style="stroke:#1A78C2;stroke-width:1.0416666666666667;" x1="396.6817" x2="396.6817" y1="233.2031" y2="238.4115"/><line style="stroke:#1A78C2;stroke-width:1.0416666666666667;" x1="448.7651" x2="448.7651" y1="233.2031" y2="238.4115"/><line style="stroke:#1A78C2;stroke-width:1.0416666666666667;" x1="500.8484" x2="500.8484" y1="233.2031" y2="238.4115"/><line style="stroke:#1A78C2;stroke-width:1.0416666666666667;" x1="84.1817" x2="500.8484" y1="233.2031" y2="233.2031"/><text fill="#FFFFFF" font-family="Verdana" font-size="12.5" lengthAdjust="spacing" textLength="7.9529" x="80.2053" y="261.4726">0</text><text fill="#FFFFFF" font-family="Verdana" font-size="12.5" lengthAdjust="spacing" textLength="23.8586" x="124.3357" y="261.4726">100</text><text fill="#FFFFFF" font-family="Verdana" font-size="12.5" lengthAdjust="spacing" textLength="23.8586" x="176.4191" y="261.4726">200</text><text fill="#FFFFFF" font-family="Verdana" font-size="12.5" lengthAdjust="spacing" textLength="23.8586" x="228.5024" y="261.4726">300</text><text fill="#FFFFFF" font-family="Verdana" font-size="12.5" lengthAdjust="spacing" textLength="23.8586" x="332.6691" y="261.4726">500</text><text fill="#FFFFFF" font-family="Verdana" font-size="12.5" lengthAdjust="spacing" textLength="23.8586" x="436.8357" y="261.4726">700</text><line style="stroke:#2196F3;stroke-width:3.125;" x1="136.2651" x2="136.2651" y1="210.2865" y2="143.6523"/><polygon fill="#2196F3" points="139.1152,151.4831,133.4149,151.4831,136.2651,143.6523" style="stroke:#2196F3;stroke-width:3.125;"/><text fill="#222222" font-family="Verdana" font-size="12.5" lengthAdjust="spacing" textLength="24.7986" x="146.6817" y="173.5026">URL</text><line style="stroke:#2196F3;stroke-width:3.125;" x1="240.4317" x2="266.4734" y1="197.7865" y2="101.9857"/><polygon fill="#2196F3" points="267.1696,110.2899,261.6689,108.7946,266.4734,101.9857" style="stroke:#2196F3;stroke-width:3.125;"/><text fill="#222222" font-family="Verdana" font-size="12.5" lengthAdjust="spacing" textLength="32.7515" x="274.8359" y="131.5617">URL2</text><line style="stroke:#696969;stroke-width:1.0416666666666667;stroke-dasharray:4.0,4.0;" x1="188.3484" x2="188.3484" y1="10.4167" y2="233.2031"/><line style="stroke:#696969;stroke-width:1.0416666666666667;stroke-dasharray:4.0,4.0;" x1="318.5567" x2="318.5567" y1="10.4167" y2="233.2031"/><text fill="#000000" font-family="Verdana" font-size="12.5" lengthAdjust="spacing" textLength="113.4338" x="201.8901" y="34.5194">This is my caption</text><line style="stroke:#1A78C2;stroke-width:1.0416666666666667;stroke-dasharray:4.0,4.0;" x1="396.6817" x2="396.6817" y1="10.4167" y2="233.2031"/><line style="stroke:#1A78C2;stroke-width:1.0416666666666667;stroke-dasharray:4.0,4.0;" x1="448.7651" x2="448.7651" y1="10.4167" y2="233.2031"/><text fill="#000000" font-family="Verdana" font-size="12.5" lengthAdjust="spacing" textLength="92.3584" x="410.2234" y="34.5194">This is another</text><text fill="#000000" font-family="Verdana" font-size="12.5" lengthAdjust="spacing" textLength="54.9561" x="410.2234" y="49.0702">highlight</text></g></svg>