<?xml version="1.0" encoding="us-ascii" standalone="no"?><svg xmlns="http://www.w3.org/2000/svg" xmlns:xlink="http://www.w3.org/1999/xlink" contentStyleType="text/css" height="196px" preserveAspectRatio="none" style="width:544px;height:196px;background:#FFFFFF;" version="1.1" viewBox="0 0 544 196" width="544px" zoomAndPan="magnify"><defs/><g><!--cluster Professional--><g id="cluster_Professional"><path d="M399.5,4 L498.5,4 A3.75,3.75 0 0 1 501,6.5 L508,26.2969 L534.5,26.2969 A2.5,2.5 0 0 1 537,28.7969 L537,112.5 A2.5,2.5 0 0 1 534.5,115 L399.5,115 A2.5,2.5 0 0 1 397,112.5 L397,6.5 A2.5,2.5 0 0 1 399.5,4 " fill="none" style="stroke:#000000;stroke-width:1.5;"/><line style="stroke:#000000;stroke-width:1.5;" x1="397" x2="508" y1="26.2969" y2="26.2969"/><text fill="#000000" font-family="sans-serif" font-size="14" font-weight="bold" lengthAdjust="spacing" textLength="98" x="401" y="18.9951">Professional</text></g><!--cluster Restaurant--><g id="cluster_Restaurant"><rect fill="none" height="67" rx="2.5" ry="2.5" style="stroke:#181818;stroke-width:1.0;" width="483" x="14" y="123"/><text fill="#000000" font-family="sans-serif" font-size="14" font-weight="bold" lengthAdjust="spacing" textLength="86" x="212.5" y="137.9951">Restaurant</text></g><!--entity g--><g id="elem_g"><ellipse cx="181" cy="39.5" fill="#F1F1F1" rx="8" ry="8" style="stroke:#181818;stroke-width:0.5;"/><path d="M181,47.5 L181,74.5 M168,55.5 L194,55.5 M181,74.5 L168,89.5 M181,74.5 L194,89.5 " fill="none" style="stroke:#181818;stroke-width:0.5;"/><text fill="#000000" font-family="sans-serif" font-size="14" lengthAdjust="spacing" textLength="42" x="160" y="103.9951">Guest</text></g><!--entity c--><g id="elem_c"><ellipse cx="513" cy="39.5" fill="#F1F1F1" rx="8" ry="8" style="stroke:#181818;stroke-width:0.5;"/><path d="M513,47.5 L513,74.5 M500,55.5 L526,55.5 M513,74.5 L500,89.5 M513,74.5 L526,89.5 " fill="none" style="stroke:#181818;stroke-width:0.5;"/><text fill="#000000" font-family="sans-serif" font-size="14" lengthAdjust="spacing" textLength="32" x="497" y="103.9951">Chef</text></g><!--entity fc--><g id="elem_fc"><ellipse cx="442" cy="39.5" fill="#F1F1F1" rx="8" ry="8" style="stroke:#181818;stroke-width:0.5;"/><path d="M442,47.5 L442,74.5 M429,55.5 L455,55.5 M442,74.5 L429,89.5 M442,74.5 L455,89.5 " fill="none" style="stroke:#181818;stroke-width:0.5;"/><text fill="#000000" font-family="sans-serif" font-size="14" lengthAdjust="spacing" textLength="73" x="405.5" y="103.9951">Food Critic</text></g><g id="elem_UC1"><ellipse cx="322.0868" cy="166.2397" fill="#F1F1F1" rx="55.5868" ry="14.7397" style="stroke:#181818;stroke-width:0.5;"/><text fill="#000000" font-family="sans-serif" font-size="14" lengthAdjust="spacing" textLength="61" x="288.5868" y="169.9873">Eat Food</text></g><g id="elem_UC2"><ellipse cx="181.1678" cy="165.8336" fill="#F1F1F1" rx="67.1678" ry="15.8336" style="stroke:#181818;stroke-width:0.5;"/><text fill="#000000" font-family="sans-serif" font-size="14" lengthAdjust="spacing" textLength="85" x="135.6678" y="169.5811">Pay for Food</text></g><g id="elem_UC3"><ellipse cx="58.9961" cy="166.0423" fill="#F1F1F1" rx="36.9961" ry="14.5423" style="stroke:#181818;stroke-width:0.5;"/><text fill="#000000" font-family="sans-serif" font-size="14" lengthAdjust="spacing" textLength="36" x="39.6301" y="169.3527">Drink</text></g><g id="elem_UC4"><ellipse cx="442.1299" cy="166.1562" fill="#F1F1F1" rx="46.6299" ry="14.6562" style="stroke:#181818;stroke-width:0.5;"/><text fill="#000000" font-family="sans-serif" font-size="14" lengthAdjust="spacing" textLength="49" x="414.6299" y="169.9038">Review</text></g><path d="M442,107.0015 C442,122.631 442,139.8569 442,151.4424 " fill="none" style="stroke:#181818;stroke-width:1.0;"/><polygon fill="#181818" points="442,151.4424,446,142.4424,442,146.4424,438,142.4424,442,151.4424" style="stroke:#181818;stroke-width:1.0;"/><path d="M202.1091,84.2225 C228.9978,102.3389 275.1497,133.4342 301.6632,151.2979 " fill="none" style="stroke:#181818;stroke-width:1.0;"/><polygon fill="#181818" points="301.6632,151.2979,296.4344,142.9517,297.5166,148.5041,291.9643,149.5863,301.6632,151.2979" style="stroke:#181818;stroke-width:1.0;"/><path d="M181,107.0015 C181,121.7975 181,138.024 181,149.5417 " fill="none" style="stroke:#181818;stroke-width:1.0;"/><polygon fill="#181818" points="181,149.5417,185,140.5417,181,144.5417,177,140.5417,181,149.5417" style="stroke:#181818;stroke-width:1.0;"/><path d="M159.8231,83.6836 C144.2728,93.9888 122.8406,108.7356 105,123 C93.8509,131.9143 81.9693,142.8022 73.0748,151.2584 " fill="none" style="stroke:#181818;stroke-width:1.0;"/><polygon fill="#181818" points="73.0748,151.2584,82.3536,147.9561,76.6985,147.8133,76.8413,142.1583,73.0748,151.2584" style="stroke:#181818;stroke-width:1.0;"/></g></svg>