<?xml version="1.0" encoding="us-ascii" standalone="no"?><svg xmlns="http://www.w3.org/2000/svg" xmlns:xlink="http://www.w3.org/1999/xlink" contentStyleType="text/css" height="430px" preserveAspectRatio="none" style="width:357px;height:430px;" version="1.1" viewBox="0 0 357 430" width="357px" zoomAndPan="magnify"><defs><linearGradient id="g1rl2ntdj5srbq0" x1="50%" x2="50%" y1="0%" y2="100%"><stop offset="0%" stop-color="#F4F4F4"/><stop offset="100%" stop-color="#F4F4F4"/></linearGradient></defs><g><!--cluster Professional--><g id="cluster_Professional"><polygon fill="#FFFFFF" points="6,166,121,166,128,205.9688,131,205.9688,131,423,6,423,6,166" style="stroke:#C6C6C6;stroke-width:1.0;"/><line style="stroke:#C6C6C6;stroke-width:1.0;" x1="6" x2="128" y1="205.9688" y2="205.9688"/><text fill="#262626" font-family="sans-serif" font-size="12" font-weight="bold" lengthAdjust="spacing" textLength="89" x="20" y="189.1387">Professional</text></g><!--cluster Restaurant--><g id="cluster_Restaurant"><rect fill="#FFFFFF" height="322" style="stroke:#C6C6C6;stroke-width:1.0;" width="178" x="173" y="4"/><text fill="#262626" font-family="sans-serif" font-size="12" font-weight="bold" lengthAdjust="spacing" textLength="80" x="222" y="27.1387">Restaurant</text></g><!--entity g--><g id="elem_g"><ellipse cx="68" cy="72.5" fill="url(#g1rl2ntdj5srbq0)" rx="8" ry="8" style="stroke:#C6C6C6;stroke-width:0.0;"/><path d="M68,80.5 L68,107.5 M55,88.5 L81,88.5 M68,107.5 L55,122.5 M68,107.5 L81,122.5 " fill="none" style="stroke:#C6C6C6;stroke-width:0.0;"/><text fill="#262626" font-family="sans-serif" font-size="12" lengthAdjust="spacing" textLength="37" x="49.5" y="144.6387">Guest</text></g><!--entity c--><g id="elem_c"><ellipse cx="68" cy="218.5" fill="url(#g1rl2ntdj5srbq0)" rx="8" ry="8" style="stroke:#C6C6C6;stroke-width:0.0;"/><path d="M68,226.5 L68,253.5 M55,234.5 L81,234.5 M68,253.5 L55,268.5 M68,253.5 L81,268.5 " fill="none" style="stroke:#C6C6C6;stroke-width:0.0;"/><text fill="#262626" font-family="sans-serif" font-size="12" lengthAdjust="spacing" textLength="28" x="54" y="290.6387">Chef</text></g><!--entity fc--><g id="elem_fc"><ellipse cx="68" cy="329.5" fill="url(#g1rl2ntdj5srbq0)" rx="8" ry="8" style="stroke:#C6C6C6;stroke-width:0.0;"/><path d="M68,337.5 L68,364.5 M55,345.5 L81,345.5 M68,364.5 L55,379.5 M68,364.5 L81,379.5 " fill="none" style="stroke:#C6C6C6;stroke-width:0.0;"/><text fill="#262626" font-family="sans-serif" font-size="12" lengthAdjust="spacing" textLength="66" x="35" y="401.6387">Food Critic</text></g><g id="elem_UC1"><ellipse cx="262.2254" cy="75.0195" fill="url(#g1rl2ntdj5srbq0)" rx="65.2254" ry="27.0195" style="stroke:#C6C6C6;stroke-width:1.0;"/><text fill="#262626" font-family="sans-serif" font-size="12" lengthAdjust="spacing" textLength="56" x="234.2254" y="77.1738">Eat Food</text></g><g id="elem_UC2"><ellipse cx="261.7817" cy="147.0195" fill="url(#g1rl2ntdj5srbq0)" rx="80.7817" ry="27.0195" style="stroke:#C6C6C6;stroke-width:1.0;"/><text fill="#262626" font-family="sans-serif" font-size="12" lengthAdjust="spacing" textLength="78" x="222.7817" y="149.1738">Pay for Food</text></g><g id="elem_UC3"><ellipse cx="261.7548" cy="219.0195" fill="url(#g1rl2ntdj5srbq0)" rx="48.2548" ry="27.0195" style="stroke:#C6C6C6;stroke-width:1.0;"/><text fill="#262626" font-family="sans-serif" font-size="12" lengthAdjust="spacing" textLength="32" x="245.7548" y="221.1738">Drink</text></g><g id="elem_UC4"><ellipse cx="261.8259" cy="291.0195" fill="url(#g1rl2ntdj5srbq0)" rx="55.3259" ry="27.0195" style="stroke:#C6C6C6;stroke-width:1.0;"/><text fill="#262626" font-family="sans-serif" font-size="12" lengthAdjust="spacing" textLength="42" x="240.8259" y="293.1738">Review</text></g><polygon fill="#C6C6C6" points="206.1903,312.981,196.3481,312.6184,201.5496,314.8421,199.3259,320.0436,206.1903,312.981" style="stroke:#C6C6C6;stroke-width:1.0;"/><path d="M111.1352,351.102 C139.0632,339.9017 170.4149,327.3284 200.6214,315.2143 " fill="none" style="stroke:#C6C6C6;stroke-width:1.0;"/><polygon fill="#C6C6C6" points="196.635,87.0684,187.052,84.7956,191.7206,87.9899,188.5263,92.6585,196.635,87.0684" style="stroke:#C6C6C6;stroke-width:1.0;"/><path d="M96.5089,105.8421 C122.5353,100.9621 156.6785,94.5603 190.7377,88.1742 " fill="none" style="stroke:#C6C6C6;stroke-width:1.0;"/><polygon fill="#C6C6C6" points="180.824,131.967,172.7153,126.3769,175.9096,131.0455,171.2409,134.2399,180.824,131.967" style="stroke:#C6C6C6;stroke-width:1.0;"/><path d="M96.5089,116.1579 C118.5951,120.2991 144.8759,125.2267 174.9267,130.8613 " fill="none" style="stroke:#C6C6C6;stroke-width:1.0;"/><polygon fill="#C6C6C6" points="213.0871,201.5983,206.2618,194.498,208.4568,199.7116,203.2431,201.9066,213.0871,201.5983" style="stroke:#C6C6C6;stroke-width:1.0;"/><path d="M96.6273,132.598 C116.9961,147.8958 145.7811,168.2385 173,183 C185.6239,189.8463 194.2745,193.933 207.5307,199.3343 " fill="none" style="stroke:#C6C6C6;stroke-width:1.0;"/></g></svg>