<?xml version="1.0" encoding="UTF-8" standalone="no"?><svg xmlns="http://www.w3.org/2000/svg" xmlns:xlink="http://www.w3.org/1999/xlink" contentScriptType="application/ecmascript" contentStyleType="text/css" height="201px" preserveAspectRatio="none" style="width:537px;height:201px;" version="1.1" viewBox="0 0 537 201" width="537px" zoomAndPan="magnify"><defs><style type="text/css"><![CDATA[*.f_f8f8f8_070707 {fill:#f8f8f8;}*.s_181818_e7e7e7 {stroke:#181818;}*.f_000000_ffffff {fill:#000000;}@media (prefers-color-scheme:dark) {*.f_f8f8f8_070707 {fill:#070707;}*.s_181818_e7e7e7 {stroke:#e7e7e7;}*.f_000000_ffffff {fill:#ffffff;}}]]></style></defs><g><!--MD5=[fb1b454ac1984f657a61539df0e47555]
cluster Professional--><path d="M393.5,6 L490.5,6 A5.25,5.25 0 0 1 494,9.5 L501,28.2969 L526.5,28.2969 A3.5,3.5 0 0 1 530,31.7969 L530,116.5 A3.5,3.5 0 0 1 526.5,120 L393.5,120 A3.5,3.5 0 0 1 390,116.5 L390,9.5 A3.5,3.5 0 0 1 393.5,6 " style="stroke:#454645;stroke-width:1.0;fill:none;"/><line style="stroke:#454645;stroke-width:1.0;fill:none;" x1="390" x2="501" y1="28.2969" y2="28.2969"/><text fill="#000000" font-family="sans-serif" font-size="14" font-weight="bold" lengthAdjust="spacing" textLength="98" x="394" y="20.9951">Professional</text><!--MD5=[bc938698130bec3721522f38f16e3aed]
cluster Restaurant--><rect height="67" rx="3.5" ry="3.5" style="stroke:#454645;stroke-width:1.0;fill:none;" width="483" x="7" y="128"/><text fill="#000000" font-family="sans-serif" font-size="14" font-weight="bold" lengthAdjust="spacing" textLength="86" x="205.5" y="142.9951">Restaurant</text><!--MD5=[338e9af232e5abde8a6bc8ae9f528414]
entity g--><ellipse cx="174" cy="43" fill="#454645" rx="8" ry="8" style="stroke:#454645;stroke-width:2.0;"/><path d="M174,51 L174,78 M161,59 L187,59 M174,78 L161,93 M174,78 L187,93 " fill="none" style="stroke:#454645;stroke-width:2.0;"/><text fill="#454645" font-family="sans-serif" font-size="14" lengthAdjust="spacing" textLength="42" x="153" y="108.9951">Guest</text><!--MD5=[8e9b2d9d80e066cced8e5d90e9bdea61]
entity c--><ellipse cx="506" cy="43" fill="#454645" rx="8" ry="8" style="stroke:#454645;stroke-width:2.0;"/><path d="M506,51 L506,78 M493,59 L519,59 M506,78 L493,93 M506,78 L519,93 " fill="none" style="stroke:#454645;stroke-width:2.0;"/><text fill="#454645" font-family="sans-serif" font-size="14" lengthAdjust="spacing" textLength="32" x="490" y="108.9951">Chef</text><!--MD5=[db756db308cf6ff8cfeeb51570136b75]
entity fc--><ellipse cx="435" cy="43" fill="#454645" rx="8" ry="8" style="stroke:#454645;stroke-width:2.0;"/><path d="M435,51 L435,78 M422,59 L448,59 M435,78 L422,93 M435,78 L448,93 " fill="none" style="stroke:#454645;stroke-width:2.0;"/><text fill="#454645" font-family="sans-serif" font-size="14" lengthAdjust="spacing" textLength="73" x="398.5" y="108.9951">Food Critic</text><ellipse class="f_f8f8f8_070707 s_181818_e7e7e7" cx="315.0868" cy="171.2397" rx="55.5868" ry="14.7397" style="stroke-width:1.0;"/><text class="f_000000_ffffff" font-family="sans-serif" font-size="14" lengthAdjust="spacing" textLength="61" x="281.5868" y="174.9873">Eat Food</text><ellipse class="f_f8f8f8_070707 s_181818_e7e7e7" cx="174.1678" cy="170.8336" rx="67.1678" ry="15.8336" style="stroke-width:1.0;"/><text class="f_000000_ffffff" font-family="sans-serif" font-size="14" lengthAdjust="spacing" textLength="85" x="128.6678" y="174.5811">Pay for Food</text><ellipse class="f_f8f8f8_070707 s_181818_e7e7e7" cx="51.9961" cy="171.0423" rx="36.9961" ry="14.5423" style="stroke-width:1.0;"/><text class="f_000000_ffffff" font-family="sans-serif" font-size="14" lengthAdjust="spacing" textLength="36" x="32.6301" y="174.3527">Drink</text><ellipse class="f_f8f8f8_070707 s_181818_e7e7e7" cx="435.1299" cy="171.1562" rx="46.6299" ry="14.6562" style="stroke-width:1.0;"/><text class="f_000000_ffffff" font-family="sans-serif" font-size="14" lengthAdjust="spacing" textLength="49" x="407.6299" y="174.9038">Review</text><path d="M435,112.1942 C435,127.7152 435,144.6104 435,156.1033 " fill="none" style="stroke:#454645;stroke-width:1.0;"/><polygon fill="#454645" points="435,156.1033,439,147.1033,435,151.1033,431,147.1033,435,156.1033" style="stroke:#454645;stroke-width:1.0;"/><path d="M195.1091,87.947 C222.1514,106.4547 268.6777,138.2972 295.1158,156.3913 " fill="none" style="stroke:#454645;stroke-width:1.0;"/><polygon fill="#454645" points="295.1158,156.3913,289.9479,148.0073,290.9897,153.5674,285.4296,154.6092,295.1158,156.3913" style="stroke:#454645;stroke-width:1.0;"/><path d="M174,112.1942 C174,127.0859 174,143.2427 174,154.6793 " fill="none" style="stroke:#454645;stroke-width:1.0;"/><polygon fill="#454645" points="174,154.6793,178,145.6793,174,149.6793,170,145.6793,174,154.6793" style="stroke:#454645;stroke-width:1.0;"/><path d="M152.8657,87.6615 C137.3367,98.3033 115.9123,113.4841 98,128 C86.9098,136.9874 75.0263,147.8731 66.1163,156.3099 " fill="none" style="stroke:#454645;stroke-width:1.0;"/><polygon fill="#454645" points="66.1163,156.3099,75.4017,153.0264,69.7469,152.8721,69.9012,147.2174,66.1163,156.3099" style="stroke:#454645;stroke-width:1.0;"/></g></svg>