<?xml version="1.0" encoding="us-ascii" standalone="no"?><svg xmlns="http://www.w3.org/2000/svg" xmlns:xlink="http://www.w3.org/1999/xlink" contentStyleType="text/css" height="206.25px" preserveAspectRatio="none" style="width:444px;height:206px;" version="1.1" viewBox="0 0 444 206" width="444.7917px" zoomAndPan="magnify"><defs><linearGradient id="g1htsc7neccc9m0" x1="50%" x2="50%" y1="0%" y2="100%"><stop offset="0%" stop-color="#1388F5"/><stop offset="100%" stop-color="#0972D3"/></linearGradient></defs><g><!--entity User--><g id="elem_User"><ellipse cx="106.7708" cy="30.7292" fill="url(#g1htsc7neccc9m0)" rx="16.6667" ry="16.6667" style="stroke:#0972D3;stroke-width:1.5625;"/><path d="M106.7708,51.5625 C110.9375,51.5625 114.0625,51.5625 118.2292,47.3958 C126.5625,47.3958 134.8958,55.7292 134.8958,64.0625 L134.8958,68.2292 C134.8958,72.3958 130.7292,76.5625 126.5625,76.5625 L86.9792,76.5625 C82.8125,76.5625 78.6458,72.3958 78.6458,68.2292 L78.6458,64.0625 C78.6458,55.7292 86.9792,47.3958 95.3125,47.3958 C99.4792,51.5625 102.6042,51.5625 106.7708,51.5625 " fill="url(#g1htsc7neccc9m0)" style="stroke:#0972D3;stroke-width:1.5625;"/><text fill="#000716" font-family="Verdana" font-size="12.5" lengthAdjust="spacing" textLength="30.2083" x="91.6667" y="94.9361">User</text></g><g id="elem_Use"><ellipse cx="106.951" cy="177.3277" fill="url(#g1htsc7neccc9m0)" rx="100.701" ry="22.6402" style="stroke:#0972D3;stroke-width:2.0833333333333335;"/><text fill="#D1D5DB" font-family="Verdana" font-size="12.5" lengthAdjust="spacing" textLength="127.0833" x="43.4094" y="179.5718">Use the application</text></g><!--entity Admin--><g id="elem_Admin"><ellipse cx="332.8125" cy="30.7292" fill="url(#g1htsc7neccc9m0)" rx="16.6667" ry="16.6667" style="stroke:#0972D3;stroke-width:1.5625;"/><path d="M332.8125,51.5625 C336.9792,51.5625 340.1042,51.5625 344.2708,47.3958 C352.6042,47.3958 360.9375,55.7292 360.9375,64.0625 L360.9375,68.2292 C360.9375,72.3958 356.7708,76.5625 352.6042,76.5625 L313.0208,76.5625 C308.8542,76.5625 304.6875,72.3958 304.6875,68.2292 L304.6875,64.0625 C304.6875,55.7292 313.0208,47.3958 321.3542,47.3958 C325.5208,51.5625 328.6458,51.5625 332.8125,51.5625 " fill="url(#g1htsc7neccc9m0)" style="stroke:#0972D3;stroke-width:1.5625;"/><text fill="#000716" font-family="Verdana" font-size="12.5" lengthAdjust="spacing" textLength="73.9583" x="295.8333" y="94.9361">Main Admin</text></g><g id="elem_Admin the application"><ellipse cx="332.9735" cy="176.9072" fill="url(#g1htsc7neccc9m0)" rx="106.411" ry="23.7822" style="stroke:#0972D3;stroke-width:2.0833333333333335;"/><text fill="#D1D5DB" font-family="Verdana" font-size="12.5" lengthAdjust="spacing" textLength="141.6667" x="262.1402" y="179.1513">Admin the application</text></g><path d="M106.7708,103.1577 C106.7708,120.7875 106.7708,140.2554 106.7708,154.6329 " fill="none" style="stroke:#A4AAB0;stroke-width:2.0833333333333335;"/><polygon fill="#A4AAB0" points="106.7708,154.6329,110.9375,145.2579,106.7708,149.4245,102.6042,145.2579,106.7708,154.6329" style="stroke:#A4AAB0;stroke-width:1.0416666666666667;"/><path d="M332.8125,103.1577 C332.8125,120.1394 332.8125,138.8264 332.8125,153.0268 " fill="none" style="stroke:#A4AAB0;stroke-width:2.0833333333333335;"/><polygon fill="#A4AAB0" points="332.8125,153.0268,336.9792,143.6518,332.8125,147.8185,328.6458,143.6518,332.8125,153.0268" style="stroke:#A4AAB0;stroke-width:1.0416666666666667;"/></g></svg>