<?xml version="1.0" encoding="us-ascii" standalone="no"?><svg xmlns="http://www.w3.org/2000/svg" xmlns:xlink="http://www.w3.org/1999/xlink" contentStyleType="text/css" height="165px" preserveAspectRatio="none" style="width:327px;height:165px;background:#777777;" version="1.1" viewBox="0 0 327 165" width="327px" zoomAndPan="magnify"><defs/><g><rect fill="#777777" height="165" style="stroke:none;stroke-width:1.0;" width="327" x="0" y="0"/><!--entity User--><g id="elem_User"><ellipse cx="77.5" cy="29.5" fill="#BB6600" rx="16" ry="16" style="stroke:#662200;stroke-width:1.5;"/><path d="M77.5,49.5 C81.5,49.5 84.5,49.5 88.5,45.5 C96.5,45.5 104.5,53.5 104.5,61.5 L104.5,65.5 C104.5,69.5 100.5,73.5 96.5,73.5 L58.5,73.5 C54.5,73.5 50.5,69.5 50.5,65.5 L50.5,61.5 C50.5,53.5 58.5,45.5 66.5,45.5 C70.5,49.5 73.5,49.5 77.5,49.5 " fill="#BB6600" style="stroke:#662200;stroke-width:1.5;"/><text fill="#FFFFFF" font-family="Verdana" font-size="11" lengthAdjust="spacing" textLength="27" x="64" y="85.2104">User</text></g><g id="elem_Use"><ellipse cx="77.4471" cy="142.1894" fill="#2E2E2E" rx="71.4471" ry="16.6894" style="stroke:#1B1B1B;stroke-width:0.5;"/><text fill="#FFFFFF" font-family="Verdana" font-size="11" lengthAdjust="spacing" textLength="109" x="22.9471" y="143.9975">Use the application</text></g><!--entity Admin--><g id="elem_Admin"><ellipse cx="244.5" cy="29.5" fill="#BB6600" rx="16" ry="16" style="stroke:#662200;stroke-width:1.5;"/><path d="M244.5,49.5 C248.5,49.5 251.5,49.5 255.5,45.5 C263.5,45.5 271.5,53.5 271.5,61.5 L271.5,65.5 C271.5,69.5 267.5,73.5 263.5,73.5 L225.5,73.5 C221.5,73.5 217.5,69.5 217.5,65.5 L217.5,61.5 C217.5,53.5 225.5,45.5 233.5,45.5 C237.5,49.5 240.5,49.5 244.5,49.5 " fill="#BB6600" style="stroke:#662200;stroke-width:1.5;"/><text fill="#FFFFFF" font-family="Verdana" font-size="11" lengthAdjust="spacing" textLength="65" x="212" y="85.2104">Main Admin</text></g><g id="elem_Admin the application"><ellipse cx="244.2546" cy="141.8509" fill="#2E2E2E" rx="77.2546" ry="17.8509" style="stroke:#1B1B1B;stroke-width:0.5;"/><text fill="#FFFFFF" font-family="Verdana" font-size="11" lengthAdjust="spacing" textLength="122" x="183.2546" y="143.659">Admin the application</text></g><path d="M77.5,88.1261 C77.5,101.1029 77.5,114.9813 77.5,125.2621 " fill="none" style="stroke:#FFFFFF;stroke-width:1.0;"/><polygon fill="#FFFFFF" points="77.5,125.2621,81.5,116.2621,77.5,120.2621,73.5,116.2621,77.5,125.2621" style="stroke:#FFFFFF;stroke-width:1.0;"/><path d="M244.5,88.1261 C244.5,100.5218 244.5,113.7403 244.5,123.8598 " fill="none" style="stroke:#FFFFFF;stroke-width:1.0;"/><polygon fill="#FFFFFF" points="244.5,123.8598,248.5,114.8598,244.5,118.8598,240.5,114.8598,244.5,123.8598" style="stroke:#FFFFFF;stroke-width:1.0;"/></g></svg>