<svg xmlns="http://www.w3.org/2000/svg" xmlns:xlink="http://www.w3.org/1999/xlink" contentStyleType="text/css" height="475px" preserveAspectRatio="none" style="width:393px;height:475px;" version="1.1" viewBox="0 0 393 475" width="393.75px" zoomAndPan="magnify"><defs><filter height="300%" id="fn6tdfkl8mi9r" width="300%" x="-1" y="-1"><feGaussianBlur result="blurOut" stdDeviation="2.0833333333333335"/><feColorMatrix in="blurOut" result="blurOut2" type="matrix" values="0 0 0 0 0 0 0 0 0 0 0 0 0 0 0 0 0 0 .4 0"/><feOffset dx="4.166666666666667" dy="4.166666666666667" in="blurOut2" result="blurOut3"/><feBlend in="SourceGraphic" in2="blurOut3" mode="normal"/></filter></defs><g><!--cluster Professional--><g id="cluster_Professional"><path d="M20.8333,185.4167 L132.2917,185.4167 A6.25,6.25 0 0 1 136.4583,189.5833 L143.75,227.0508 L142.7083,227.0508 A4.1667,4.1667 0 0 1 146.875,231.2174 L146.875,458.3333 A4.1667,4.1667 0 0 1 142.7083,462.5 L20.8333,462.5 A4.1667,4.1667 0 0 1 16.6667,458.3333 L16.6667,189.5833 A4.1667,4.1667 0 0 1 20.8333,185.4167 " fill="none" filter="url(#fn6tdfkl8mi9r)" style="stroke:#2196F3;stroke-width:2.0833333333333335;"/><line style="stroke:#2196F3;stroke-width:2.0833333333333335;" x1="16.6667" x2="143.75" y1="227.0508" y2="227.0508"/><text fill="#2196F3" font-family="Verdana" font-size="12.5" font-weight="bold" lengthAdjust="spacing" textLength="92.7083" x="31.25" y="209.5194">Professional</text></g><!--cluster Restaurant--><g id="cluster_Restaurant"><rect fill="none" filter="url(#fn6tdfkl8mi9r)" height="335.4167" rx="4.1667" ry="4.1667" style="stroke:#2196F3;stroke-width:2.0833333333333335;" width="185.4167" x="190.625" y="14.5833"/><text fill="#2196F3" font-family="Verdana" font-size="12.5" font-weight="bold" lengthAdjust="spacing" textLength="83.3333" x="241.6667" y="38.6861">Restaurant</text></g><!--entity g--><g id="elem_g"><ellipse cx="81.25" cy="84.375" fill="none" filter="url(#fn6tdfkl8mi9r)" rx="8.3333" ry="8.3333" style="stroke:#2196F3;stroke-width:1.0416666666666667;"/><path d="M81.25,92.7083 L81.25,120.8333 M67.7083,101.0417 L94.7917,101.0417 M81.25,120.8333 L67.7083,136.4583 M81.25,120.8333 L94.7917,136.4583 " fill="none" filter="url(#fn6tdfkl8mi9r)" style="stroke:#2196F3;stroke-width:1.0416666666666667;"/><text fill="#2196F3" font-family="Verdana" font-size="12.5" lengthAdjust="spacing" textLength="38.5417" x="61.9792" y="163.6861">Guest</text></g><!--entity c--><g id="elem_c"><ellipse cx="81.25" cy="240.625" fill="none" filter="url(#fn6tdfkl8mi9r)" rx="8.3333" ry="8.3333" style="stroke:#2196F3;stroke-width:1.0416666666666667;"/><path d="M81.25,248.9583 L81.25,277.0833 M67.7083,257.2917 L94.7917,257.2917 M81.25,277.0833 L67.7083,292.7083 M81.25,277.0833 L94.7917,292.7083 " fill="none" filter="url(#fn6tdfkl8mi9r)" style="stroke:#2196F3;stroke-width:1.0416666666666667;"/><text fill="#2196F3" font-family="Verdana" font-size="12.5" lengthAdjust="spacing" textLength="29.1667" x="66.6667" y="319.9361">Chef</text></g><!--entity fc--><g id="elem_fc"><ellipse cx="81.25" cy="361.4583" fill="none" filter="url(#fn6tdfkl8mi9r)" rx="8.3333" ry="8.3333" style="stroke:#2196F3;stroke-width:1.0416666666666667;"/><path d="M81.25,369.7917 L81.25,397.9167 M67.7083,378.125 L94.7917,378.125 M81.25,397.9167 L67.7083,413.5417 M81.25,397.9167 L94.7917,413.5417 " fill="none" filter="url(#fn6tdfkl8mi9r)" style="stroke:#2196F3;stroke-width:1.0416666666666667;"/><text fill="#2196F3" font-family="Verdana" font-size="12.5" lengthAdjust="spacing" textLength="68.75" x="46.875" y="440.7694">Food Critic</text></g><g id="elem_UC1"><ellipse cx="283.5681" cy="88.562" fill="none" filter="url(#fn6tdfkl8mi9r)" rx="67.9431" ry="28.1453" style="stroke:#2196F3;stroke-width:2.0833333333333335;"/><text fill="#2196F3" font-family="Verdana" font-size="12.5" lengthAdjust="spacing" textLength="58.3333" x="254.4015" y="90.8061">Eat Food</text></g><g id="elem_UC2"><ellipse cx="283.106" cy="163.562" fill="none" filter="url(#fn6tdfkl8mi9r)" rx="84.1477" ry="28.1453" style="stroke:#2196F3;stroke-width:2.0833333333333335;"/><text fill="#2196F3" font-family="Verdana" font-size="12.5" lengthAdjust="spacing" textLength="81.25" x="242.481" y="165.8061">Pay for Food</text></g><g id="elem_UC3"><ellipse cx="283.078" cy="238.562" fill="none" filter="url(#fn6tdfkl8mi9r)" rx="50.2655" ry="28.1453" style="stroke:#2196F3;stroke-width:2.0833333333333335;"/><text fill="#2196F3" font-family="Verdana" font-size="12.5" lengthAdjust="spacing" textLength="33.3333" x="266.4113" y="240.8061">Drink</text></g><g id="elem_UC4"><ellipse cx="283.152" cy="313.562" fill="none" filter="url(#fn6tdfkl8mi9r)" rx="57.6311" ry="28.1453" style="stroke:#2196F3;stroke-width:2.0833333333333335;"/><text fill="#2196F3" font-family="Verdana" font-size="12.5" lengthAdjust="spacing" textLength="43.75" x="261.277" y="315.8061">Review</text></g><polygon fill="#2196F3" points="225.1982,339.1148,214.9391,339.1445,220.4449,341.2438,218.3456,346.7497,225.1982,339.1148" style="stroke:#2196F3;stroke-width:1.0416666666666667;"/><path d="M126.1825,383.4656 C155.2742,370.4349 188.0291,355.7634 219.4943,341.6697 " fill="none" style="stroke:#2196F3;stroke-width:3.125;"/><polygon fill="#2196F3" points="215.2448,101.113,205.2625,98.7454,210.1256,102.0728,206.7982,106.936,215.2448,101.113" style="stroke:#2196F3;stroke-width:1.0416666666666667;"/><path d="M110.9468,120.6688 C138.0576,115.5855 173.6235,108.917 209.1018,102.2648 " fill="none" style="stroke:#2196F3;stroke-width:3.125;"/><polygon fill="#2196F3" points="198.7749,147.8823,190.3284,142.0593,193.6558,146.9224,188.7927,150.2499,198.7749,147.8823" style="stroke:#2196F3;stroke-width:1.0416666666666667;"/><path d="M110.9468,131.4145 C133.9532,135.7282 161.3291,140.8612 192.632,146.7305 " fill="none" style="stroke:#2196F3;stroke-width:3.125;"/><polygon fill="#2196F3" points="232.3824,220.4149,225.2727,213.0187,227.5591,218.4496,222.1282,220.736,232.3824,220.4149" style="stroke:#2196F3;stroke-width:1.0416666666666667;"/><path d="M111.0701,148.5396 C132.2876,164.4748 162.272,185.6651 190.625,201.0417 C203.7749,208.1732 212.7859,212.4302 226.5945,218.0565 " fill="none" style="stroke:#2196F3;stroke-width:3.125;"/></g></svg>