<?xml version="1.0" encoding="us-ascii" standalone="no"?><svg xmlns="http://www.w3.org/2000/svg" xmlns:xlink="http://www.w3.org/1999/xlink" contentStyleType="text/css" height="178px" preserveAspectRatio="none" style="width:392px;height:178px;background:#282828;" version="1.1" viewBox="0 0 392 178" width="392px" zoomAndPan="magnify"><defs/><g><rect fill="#282828" height="178" style="stroke:none;stroke-width:1.0;" width="392" x="0" y="0"/><!--entity User--><g id="elem_User"><ellipse cx="96.5" cy="34" fill="#282828" rx="16" ry="16" style="stroke:#FFB000;stroke-width:1.0;"/><path d="M96.5,54 C100.5,54 103.5,54 107.5,50 C115.5,50 123.5,58 123.5,66 L123.5,70 C123.5,74 119.5,78 115.5,78 L77.5,78 C73.5,78 69.5,74 69.5,70 L69.5,66 C69.5,58 77.5,50 85.5,50 C89.5,54 92.5,54 96.5,54 " fill="#282828" style="stroke:#FFB000;stroke-width:1.0;"/><text fill="#FFB000" font-family="Verdana" font-size="14" lengthAdjust="spacing" textLength="32" x="80.5" y="91.9951">User</text></g><g id="elem_Use"><ellipse cx="96.728" cy="152.0456" fill="#282828" rx="85.728" ry="19.5456" style="stroke:#FFB000;stroke-width:1.0;"/><text fill="#FFB000" font-family="Verdana" font-size="14" lengthAdjust="spacing" textLength="132" x="30.728" y="154.8923">Use the application</text></g><!--entity Admin--><g id="elem_Admin"><ellipse cx="293.5" cy="34" fill="#282828" rx="16" ry="16" style="stroke:#FFB000;stroke-width:1.0;"/><path d="M293.5,54 C297.5,54 300.5,54 304.5,50 C312.5,50 320.5,58 320.5,66 L320.5,70 C320.5,74 316.5,78 312.5,78 L274.5,78 C270.5,78 266.5,74 266.5,70 L266.5,66 C266.5,58 274.5,50 282.5,50 C286.5,54 289.5,54 293.5,54 " fill="#282828" style="stroke:#FFB000;stroke-width:1.0;"/><text fill="#FFB000" font-family="Verdana" font-size="14" lengthAdjust="spacing" textLength="79" x="254" y="91.9951">Main Admin</text></g><g id="elem_Admin the application"><ellipse cx="293.2771" cy="151.9554" fill="#282828" rx="92.7771" ry="20.9554" style="stroke:#FFB000;stroke-width:1.0;"/><text fill="#FFB000" font-family="Verdana" font-size="14" lengthAdjust="spacing" textLength="148" x="219.2771" y="154.8021">Admin the application</text></g><polygon fill="#FFB000" points="96.5,132.3725,100.5,123.3725,96.5,127.3725,92.5,123.3725,96.5,132.3725" style="stroke:#FFB000;stroke-width:1.0;"/><path d="M96.5,95.2334 C96.5,108.0423 96.5,115.7518 96.5,126.3725 " fill="none" style="stroke:#FFB000;stroke-width:1.0;"/><polygon fill="#FFB000" points="293.5,130.8346,297.5,121.8346,293.5,125.8346,289.5,121.8346,293.5,130.8346" style="stroke:#FFB000;stroke-width:1.0;"/><path d="M293.5,95.2334 C293.5,107.4323 293.5,114.4482 293.5,124.8346 " fill="none" style="stroke:#FFB000;stroke-width:1.0;"/></g></svg>