<svg xmlns="http://www.w3.org/2000/svg" xmlns:xlink="http://www.w3.org/1999/xlink" contentStyleType="text/css" height="173px" preserveAspectRatio="none" style="width:395px;height:173px;background:#FFFFFF;" version="1.1" viewBox="0 0 395 173" width="395px" zoomAndPan="magnify"><defs/><g><!--entity User--><g id="elem_User"><ellipse cx="93" cy="28.5" fill="#454645" rx="16" ry="16" style="stroke:#454645;stroke-width:0.5;"/><path d="M93,48.5 C97,48.5 100,48.5 104,44.5 C112,44.5 120,52.5 120,60.5 L120,64.5 C120,68.5 116,72.5 112,72.5 L74,72.5 C70,72.5 66,68.5 66,64.5 L66,60.5 C66,52.5 74,44.5 82,44.5 C86,48.5 89,48.5 93,48.5 " fill="#454645" style="stroke:#454645;stroke-width:0.5;"/><text fill="#454645" font-family="sans-serif" font-size="14" lengthAdjust="spacing" textLength="31.9102" x="77.0449" y="85.9951">User</text></g><g id="elem_Use"><ellipse cx="93.1487" cy="146.3297" fill="#F1F1F1" rx="87.1487" ry="19.8297" style="stroke:#181818;stroke-width:0.5;"/><text fill="#000000" font-family="sans-serif" font-size="14" lengthAdjust="spacing" textLength="135.2559" x="25.5207" y="149.1764">Use the application</text></g><!--entity Admin--><g id="elem_Admin"><ellipse cx="293.8677" cy="28.5" fill="#454645" rx="16" ry="16" style="stroke:#454645;stroke-width:0.5;"/><path d="M293.8677,48.5 C297.8677,48.5 300.8677,48.5 304.8677,44.5 C312.8677,44.5 320.8677,52.5 320.8677,60.5 L320.8677,64.5 C320.8677,68.5 316.8677,72.5 312.8677,72.5 L274.8677,72.5 C270.8677,72.5 266.8677,68.5 266.8677,64.5 L266.8677,60.5 C266.8677,52.5 274.8677,44.5 282.8677,44.5 C286.8677,48.5 289.8677,48.5 293.8677,48.5 " fill="#454645" style="stroke:#454645;stroke-width:0.5;"/><text fill="#454645" font-family="sans-serif" font-size="14" lengthAdjust="spacing" textLength="82.7354" x="252.5" y="85.9951">Main Admin</text></g><g id="elem_Admin the application"><ellipse cx="293.9451" cy="146.489" fill="#F1F1F1" rx="95.4451" ry="21.489" style="stroke:#181818;stroke-width:0.5;"/><text fill="#000000" font-family="sans-serif" font-size="14" lengthAdjust="spacing" textLength="153.9658" x="216.9622" y="149.3357">Admin the application</text></g><polygon fill="#454645" points="93,126.3874,97,117.3874,93,121.3874,89,117.3874,93,126.3874" style="stroke:#454645;stroke-width:1.0;"/><path d="M93,89.1918 C93,101.9611 93,109.6853 93,120.3874 " fill="none" style="stroke:#454645;stroke-width:1.0;"/><polygon fill="#454645" points="294,124.8259,298,115.8259,294,119.8259,290,115.8259,294,124.8259" style="stroke:#454645;stroke-width:1.0;"/><path d="M294,89.1918 C294,101.3481 294,108.37 294,118.8259 " fill="none" style="stroke:#454645;stroke-width:1.0;"/></g></svg>