<svg xmlns="http://www.w3.org/2000/svg" xmlns:xlink="http://www.w3.org/1999/xlink" contentStyleType="text/css" height="337px" preserveAspectRatio="none" style="width:302px;height:337px;background:#0B58A8;" version="1.1" viewBox="0 0 302 337" width="302px" zoomAndPan="magnify"><defs/><g><rect fill="#0B58A8" height="337" style="stroke:none;stroke-width:1.0;" width="302" x="0" y="0"/><!--cluster Professional--><g id="cluster_Professional"><path d="M13.5,122 L112.165,122 A3.75,3.75 0 0 1 114.665,124.5 L121.665,144.2969 L121.5,144.2969 A2.5,2.5 0 0 1 124,146.7969 L124,327.5 A2.5,2.5 0 0 1 121.5,330 L13.5,330 A2.5,2.5 0 0 1 11,327.5 L11,124.5 A2.5,2.5 0 0 1 13.5,122 " fill="#0B58A8" style="stroke:#FFFFFF;stroke-width:1.0;"/><line style="stroke:#FFFFFF;stroke-width:1.0;" x1="11" x2="121.665" y1="144.2969" y2="144.2969"/><text fill="#FFFFFF" font-family="Verdana" font-size="14" font-weight="bold" lengthAdjust="spacing" textLength="97.665" x="15" y="136.9951">Professional</text></g><!--cluster Restaurant--><g id="cluster_Restaurant"><rect fill="#0B58A8" height="210" rx="2.5" ry="2.5" style="stroke:#FFFFFF;stroke-width:1.0;" width="152" x="144" y="9"/><text fill="#FFFFFF" font-family="Verdana" font-size="14" font-weight="bold" lengthAdjust="spacing" textLength="87.7256" x="176.1372" y="23.9951">Restaurant</text></g><!--entity g--><g id="elem_g"><ellipse cx="67.5591" cy="45.5" fill="#0B58A8" rx="8" ry="8" style="stroke:#FFFFFF;stroke-width:1.0;"/><path d="M67.5591,53.5 L67.5591,80.5 M54.5591,61.5 L80.5591,61.5 M67.5591,80.5 L54.5591,95.5 M67.5591,80.5 L80.5591,95.5 " fill="none" style="stroke:#FFFFFF;stroke-width:1.0;"/><text fill="#FFFFFF" font-family="Verdana" font-size="14" lengthAdjust="spacing" textLength="41.1182" x="47" y="110.4951">Guest</text></g><!--entity c--><g id="elem_c"><ellipse cx="67.5952" cy="158.5" fill="#0B58A8" rx="8" ry="8" style="stroke:#FFFFFF;stroke-width:1.0;"/><path d="M67.5952,166.5 L67.5952,193.5 M54.5952,174.5 L80.5952,174.5 M67.5952,193.5 L54.5952,208.5 M67.5952,193.5 L80.5952,208.5 " fill="none" style="stroke:#FFFFFF;stroke-width:1.0;"/><text fill="#FFFFFF" font-family="Verdana" font-size="14" lengthAdjust="spacing" textLength="32.1904" x="51.5" y="223.4951">Chef</text></g><!--entity fc--><g id="elem_fc"><ellipse cx="67.5088" cy="253.5" fill="#0B58A8" rx="8" ry="8" style="stroke:#FFFFFF;stroke-width:1.0;"/><path d="M67.5088,261.5 L67.5088,288.5 M54.5088,269.5 L80.5088,269.5 M67.5088,288.5 L54.5088,303.5 M67.5088,288.5 L80.5088,303.5 " fill="none" style="stroke:#FFFFFF;stroke-width:1.0;"/><text fill="#FFFFFF" font-family="Verdana" font-size="14" lengthAdjust="spacing" textLength="75.0176" x="30" y="318.4951">Food Critic</text></g><g id="elem_UC1"><ellipse cx="219.9112" cy="51.2422" fill="#0B58A8" rx="55.9112" ry="14.7422" style="stroke:#FFFFFF;stroke-width:1.0;"/><text fill="#FFFFFF" font-family="Verdana" font-size="14" lengthAdjust="spacing" textLength="61.4346" x="186.1939" y="54.9898">Eat Food</text></g><g id="elem_UC2"><ellipse cx="220.0699" cy="100.014" fill="#0B58A8" rx="68.0699" ry="16.014" style="stroke:#FFFFFF;stroke-width:1.0;"/><text fill="#FFFFFF" font-family="Verdana" font-size="14" lengthAdjust="spacing" textLength="87.5273" x="173.3062" y="103.7615">Pay for Food</text></g><g id="elem_UC3"><ellipse cx="220.0194" cy="149.0513" fill="#0B58A8" rx="38.0194" ry="14.5513" style="stroke:#FFFFFF;stroke-width:1.0;"/><text fill="#FFFFFF" font-family="Verdana" font-size="14" lengthAdjust="spacing" textLength="37.4063" x="199.6033" y="152.463">Drink</text></g><g id="elem_UC4"><ellipse cx="219.8083" cy="196.169" fill="#0B58A8" rx="47.8083" ry="14.669" style="stroke:#FFFFFF;stroke-width:1.0;"/><text fill="#FFFFFF" font-family="Verdana" font-size="14" lengthAdjust="spacing" textLength="50.5791" x="191.5187" y="199.9166">Review</text></g><polygon fill="#FFFFFF" points="193.8653,210.5297,184.0716,211.5709,189.5365,213.032,188.0754,218.4969,193.8653,210.5297" style="stroke:#FFFFFF;stroke-width:1.0;"/><path d="M105.3164,261.7174 C132.8154,245.821 164.4802,227.5164 188.6708,213.5325 " fill="none" style="stroke:#FFFFFF;stroke-width:1.0;"/><polygon fill="#FFFFFF" points="163.9839,59.7733,154.4663,57.2406,159.0463,60.5607,155.7261,65.1407,163.9839,59.7733" style="stroke:#FFFFFF;stroke-width:1.0;"/><path d="M88.1752,71.8624 C107.3775,68.8003 131.5632,64.9434 158.0588,60.7182 " fill="none" style="stroke:#FFFFFF;stroke-width:1.0;"/><polygon fill="#FFFFFF" points="151.9168,88.8566,143.6939,83.4359,146.9844,88.0373,142.383,91.3277,151.9168,88.8566" style="stroke:#FFFFFF;stroke-width:1.0;"/><path d="M88.1752,78.2683 C104.5091,80.9816 122.8171,84.0228 145.9979,87.8734 " fill="none" style="stroke:#FFFFFF;stroke-width:1.0;"/><polygon fill="#FFFFFF" points="181.98,139.3641,174.5496,132.8998,177.2001,137.8972,172.2026,140.5477,181.98,139.3641" style="stroke:#FFFFFF;stroke-width:1.0;"/><path d="M88.1071,90.1701 C102.8439,101.0158 123.8721,115.3435 144,125 C155.9563,130.7361 163.8838,133.8108 176.2441,137.6039 " fill="none" style="stroke:#FFFFFF;stroke-width:1.0;"/></g></svg>