<?xml version="1.0" encoding="us-ascii" standalone="no"?><svg xmlns="http://www.w3.org/2000/svg" xmlns:xlink="http://www.w3.org/1999/xlink" contentStyleType="text/css" height="340.625px" preserveAspectRatio="none" style="width:687px;height:340px;" version="1.1" viewBox="0 0 687 340" width="687.5px" zoomAndPan="magnify"><defs><linearGradient id="gl9fsl1h9i9sq0" x1="50%" x2="50%" y1="0%" y2="100%"><stop offset="0%" stop-color="#FFFFFF"/><stop offset="100%" stop-color="#FFFFFF"/></linearGradient><filter height="300%" id="fl9fsl1h9i9sq" width="300%" x="-1" y="-1"><feGaussianBlur result="blurOut" stdDeviation="2.0833333333333335"/><feColorMatrix in="blurOut" result="blurOut2" type="matrix" values="0 0 0 0 0 0 0 0 0 0 0 0 0 0 0 0 0 0 .4 0"/><feOffset dx="4.166666666666667" dy="4.166666666666667" in="blurOut2" result="blurOut3"/><feBlend in="SourceGraphic" in2="blurOut3" mode="normal"/></filter><linearGradient id="gl9fsl1h9i9sq1" x1="50%" x2="50%" y1="0%" y2="100%"><stop offset="0%" stop-color="#4DABF5"/><stop offset="100%" stop-color="#2196F3"/></linearGradient></defs><g><!--cluster Professional--><g id="cluster_Professional"><path d="M504.1667,14.5833 L615.625,14.5833 A6.25,6.25 0 0 1 619.7917,18.75 L627.0833,56.2174 L670.8333,56.2174 A4.1667,4.1667 0 0 1 675,60.3841 L675,166.6667 A4.1667,4.1667 0 0 1 670.8333,170.8333 L504.1667,170.8333 A4.1667,4.1667 0 0 1 500,166.6667 L500,18.75 A4.1667,4.1667 0 0 1 504.1667,14.5833 " fill="url(#gl9fsl1h9i9sq0)" filter="url(#fl9fsl1h9i9sq)" style="stroke:#2196F3;stroke-width:2.0833333333333335;"/><line style="stroke:#2196F3;stroke-width:2.0833333333333335;" x1="500" x2="627.0833" y1="56.2174" y2="56.2174"/><text fill="#FFFFFF" font-family="Verdana" font-size="12.5" font-weight="bold" lengthAdjust="spacing" textLength="92.7083" x="514.5833" y="38.6861">Professional</text></g><!--cluster Restaurant--><g id="cluster_Restaurant"><rect fill="url(#gl9fsl1h9i9sq0)" filter="url(#fl9fsl1h9i9sq)" height="110.4167" rx="4.1667" ry="4.1667" style="stroke:#2196F3;stroke-width:2.0833333333333335;" width="594.7917" x="25" y="212.5"/><text fill="#2196F3" font-family="Verdana" font-size="12.5" font-weight="bold" lengthAdjust="spacing" textLength="83.3333" x="280.7292" y="236.6028">Restaurant</text></g><!--entity g--><g id="elem_g"><ellipse cx="271.875" cy="69.7917" fill="url(#gl9fsl1h9i9sq1)" filter="url(#fl9fsl1h9i9sq)" rx="8.3333" ry="8.3333" style="stroke:#2196F3;stroke-width:1.0416666666666667;"/><path d="M271.875,78.125 L271.875,106.25 M258.3333,86.4583 L285.4167,86.4583 M271.875,106.25 L258.3333,121.875 M271.875,106.25 L285.4167,121.875 " fill="none" filter="url(#fl9fsl1h9i9sq)" style="stroke:#2196F3;stroke-width:1.0416666666666667;"/><text fill="#222222" font-family="Verdana" font-size="12.5" lengthAdjust="spacing" textLength="38.5417" x="252.6042" y="149.1028">Guest</text></g><!--entity c--><g id="elem_c"><ellipse cx="641.6667" cy="69.7917" fill="url(#gl9fsl1h9i9sq1)" filter="url(#fl9fsl1h9i9sq)" rx="8.3333" ry="8.3333" style="stroke:#2196F3;stroke-width:1.0416666666666667;"/><path d="M641.6667,78.125 L641.6667,106.25 M628.125,86.4583 L655.2083,86.4583 M641.6667,106.25 L628.125,121.875 M641.6667,106.25 L655.2083,121.875 " fill="none" filter="url(#fl9fsl1h9i9sq)" style="stroke:#2196F3;stroke-width:1.0416666666666667;"/><text fill="#222222" font-family="Verdana" font-size="12.5" lengthAdjust="spacing" textLength="29.1667" x="627.0833" y="149.1028">Chef</text></g><!--entity fc--><g id="elem_fc"><ellipse cx="553.125" cy="69.7917" fill="url(#gl9fsl1h9i9sq1)" filter="url(#fl9fsl1h9i9sq)" rx="8.3333" ry="8.3333" style="stroke:#2196F3;stroke-width:1.0416666666666667;"/><path d="M553.125,78.125 L553.125,106.25 M539.5833,86.4583 L566.6667,86.4583 M553.125,106.25 L539.5833,121.875 M553.125,106.25 L566.6667,121.875 " fill="none" filter="url(#fl9fsl1h9i9sq)" style="stroke:#2196F3;stroke-width:1.0416666666666667;"/><text fill="#222222" font-family="Verdana" font-size="12.5" lengthAdjust="spacing" textLength="68.75" x="518.75" y="149.1028">Food Critic</text></g><g id="elem_UC1"><ellipse cx="101.2765" cy="286.4787" fill="url(#gl9fsl1h9i9sq1)" filter="url(#fl9fsl1h9i9sq)" rx="67.9431" ry="28.1453" style="stroke:#2196F3;stroke-width:2.0833333333333335;"/><text fill="#FFFFFF" font-family="Verdana" font-size="12.5" lengthAdjust="spacing" textLength="58.3333" x="72.1098" y="288.7227">Eat Food</text></g><g id="elem_UC2"><ellipse cx="271.6477" cy="286.4787" fill="url(#gl9fsl1h9i9sq1)" filter="url(#fl9fsl1h9i9sq)" rx="84.1477" ry="28.1453" style="stroke:#2196F3;stroke-width:2.0833333333333335;"/><text fill="#FFFFFF" font-family="Verdana" font-size="12.5" lengthAdjust="spacing" textLength="81.25" x="231.0227" y="288.7227">Pay for Food</text></g><g id="elem_UC3"><ellipse cx="425.7863" cy="286.4787" fill="url(#gl9fsl1h9i9sq1)" filter="url(#fl9fsl1h9i9sq)" rx="50.2655" ry="28.1453" style="stroke:#2196F3;stroke-width:2.0833333333333335;"/><text fill="#FFFFFF" font-family="Verdana" font-size="12.5" lengthAdjust="spacing" textLength="33.3333" x="409.1196" y="288.7227">Drink</text></g><g id="elem_UC4"><ellipse cx="552.9436" cy="286.4787" fill="url(#gl9fsl1h9i9sq1)" filter="url(#fl9fsl1h9i9sq)" rx="57.6311" ry="28.1453" style="stroke:#2196F3;stroke-width:2.0833333333333335;"/><text fill="#FFFFFF" font-family="Verdana" font-size="12.5" lengthAdjust="spacing" textLength="43.75" x="531.0686" y="288.7227">Review</text></g><path d="M553.125,162.5147 C553.125,193.6348 553.125,232.4654 553.125,258.0533 " fill="none" style="stroke:#2196F3;stroke-width:3.125;"/><polygon fill="#2196F3" points="553.125,258.0533,557.2917,248.6783,553.125,252.845,548.9583,248.6783,553.125,258.0533" style="stroke:#2196F3;stroke-width:1.0416666666666667;"/><path d="M242.1181,142.6198 C209.9024,175.2283 158.9769,226.7749 127.9282,258.2023 " fill="none" style="stroke:#2196F3;stroke-width:3.125;"/><polygon fill="#2196F3" points="127.9282,258.2023,137.4811,254.4615,131.5886,254.4972,131.5529,248.6047,127.9282,258.2023" style="stroke:#2196F3;stroke-width:1.0416666666666667;"/><path d="M271.875,162.5147 C271.875,193.6348 271.875,232.4654 271.875,258.0533 " fill="none" style="stroke:#2196F3;stroke-width:3.125;"/><polygon fill="#2196F3" points="271.875,258.0533,276.0417,248.6783,271.875,252.845,267.7083,248.6783,271.875,258.0533" style="stroke:#2196F3;stroke-width:1.0416666666666667;"/><path d="M301.9323,143.5716 C320.5761,163.0859 344.8522,188.9364 365.625,212.5 C378.6709,227.2986 392.7614,244.2452 404.0507,258.0745 " fill="none" style="stroke:#2196F3;stroke-width:3.125;"/><polygon fill="#2196F3" points="404.0507,258.0745,401.3499,248.1771,400.7571,254.0398,394.8944,253.447,404.0507,258.0745" style="stroke:#2196F3;stroke-width:1.0416666666666667;"/></g></svg>