<?xml version="1.0" encoding="us-ascii" standalone="no"?><svg xmlns="http://www.w3.org/2000/svg" xmlns:xlink="http://www.w3.org/1999/xlink" contentStyleType="text/css" height="337px" preserveAspectRatio="none" style="width:301px;height:337px;background:#0B58A8;" version="1.1" viewBox="0 0 301 337" width="301px" zoomAndPan="magnify"><defs/><g><rect fill="#0B58A8" height="337" style="stroke:none;stroke-width:1.0;" width="301" x="0" y="0"/><!--cluster Professional--><g id="cluster_Professional"><path d="M13.5,122 L112.5,122 A3.75,3.75 0 0 1 115,124.5 L122,144.2969 L122.5,144.2969 A2.5,2.5 0 0 1 125,146.7969 L125,327.5 A2.5,2.5 0 0 1 122.5,330 L13.5,330 A2.5,2.5 0 0 1 11,327.5 L11,124.5 A2.5,2.5 0 0 1 13.5,122 " fill="#0B58A8" style="stroke:#FFFFFF;stroke-width:1.0;"/><line style="stroke:#FFFFFF;stroke-width:1.0;" x1="11" x2="122" y1="144.2969" y2="144.2969"/><text fill="#FFFFFF" font-family="Verdana" font-size="14" font-weight="bold" lengthAdjust="spacing" textLength="98" x="15" y="136.9951">Professional</text></g><!--cluster Restaurant--><g id="cluster_Restaurant"><rect fill="#0B58A8" height="210" rx="2.5" ry="2.5" style="stroke:#FFFFFF;stroke-width:1.0;" width="150" x="145" y="9"/><text fill="#FFFFFF" font-family="Verdana" font-size="14" font-weight="bold" lengthAdjust="spacing" textLength="86" x="177" y="23.9951">Restaurant</text></g><!--entity g--><g id="elem_g"><ellipse cx="67.5" cy="45.5" fill="#0B58A8" rx="8" ry="8" style="stroke:#FFFFFF;stroke-width:1.0;"/><path d="M67.5,53.5 L67.5,80.5 M54.5,61.5 L80.5,61.5 M67.5,80.5 L54.5,95.5 M67.5,80.5 L80.5,95.5 " fill="none" style="stroke:#FFFFFF;stroke-width:1.0;"/><text fill="#FFFFFF" font-family="Verdana" font-size="14" lengthAdjust="spacing" textLength="42" x="46.5" y="110.4951">Guest</text></g><!--entity c--><g id="elem_c"><ellipse cx="67.5" cy="158.5" fill="#0B58A8" rx="8" ry="8" style="stroke:#FFFFFF;stroke-width:1.0;"/><path d="M67.5,166.5 L67.5,193.5 M54.5,174.5 L80.5,174.5 M67.5,193.5 L54.5,208.5 M67.5,193.5 L80.5,208.5 " fill="none" style="stroke:#FFFFFF;stroke-width:1.0;"/><text fill="#FFFFFF" font-family="Verdana" font-size="14" lengthAdjust="spacing" textLength="32" x="51.5" y="223.4951">Chef</text></g><!--entity fc--><g id="elem_fc"><ellipse cx="67.5" cy="253.5" fill="#0B58A8" rx="8" ry="8" style="stroke:#FFFFFF;stroke-width:1.0;"/><path d="M67.5,261.5 L67.5,288.5 M54.5,269.5 L80.5,269.5 M67.5,288.5 L54.5,303.5 M67.5,288.5 L80.5,303.5 " fill="none" style="stroke:#FFFFFF;stroke-width:1.0;"/><text fill="#FFFFFF" font-family="Verdana" font-size="14" lengthAdjust="spacing" textLength="73" x="31" y="318.4951">Food Critic</text></g><g id="elem_UC1"><ellipse cx="220.0868" cy="51.2397" fill="#0B58A8" rx="55.5868" ry="14.7397" style="stroke:#FFFFFF;stroke-width:1.0;"/><text fill="#FFFFFF" font-family="Verdana" font-size="14" lengthAdjust="spacing" textLength="61" x="186.5868" y="54.9873">Eat Food</text></g><g id="elem_UC2"><ellipse cx="220.1678" cy="99.8336" fill="#0B58A8" rx="67.1678" ry="15.8336" style="stroke:#FFFFFF;stroke-width:1.0;"/><text fill="#FFFFFF" font-family="Verdana" font-size="14" lengthAdjust="spacing" textLength="85" x="174.6678" y="103.5811">Pay for Food</text></g><g id="elem_UC3"><ellipse cx="219.9961" cy="149.0423" fill="#0B58A8" rx="36.9961" ry="14.5423" style="stroke:#FFFFFF;stroke-width:1.0;"/><text fill="#FFFFFF" font-family="Verdana" font-size="14" lengthAdjust="spacing" textLength="36" x="200.6301" y="152.3527">Drink</text></g><g id="elem_UC4"><ellipse cx="220.1299" cy="196.1562" fill="#0B58A8" rx="46.6299" ry="14.6562" style="stroke:#FFFFFF;stroke-width:1.0;"/><text fill="#FFFFFF" font-family="Verdana" font-size="14" lengthAdjust="spacing" textLength="49" x="192.6299" y="199.9038">Review</text></g><path d="M104.1664,262.3822 C131.6343,246.5038 168.9389,224.939 193.4751,210.7553 " fill="none" style="stroke:#FFFFFF;stroke-width:1.0;"/><polygon fill="#FFFFFF" points="193.4751,210.7553,183.6814,211.7965,189.1463,213.2576,187.6851,218.7225,193.4751,210.7553" style="stroke:#FFFFFF;stroke-width:1.0;"/><path d="M88.7971,71.7633 C108.1336,68.6797 138.1146,63.8987 164.435,59.7014 " fill="none" style="stroke:#FFFFFF;stroke-width:1.0;"/><polygon fill="#FFFFFF" points="164.435,59.7014,154.9173,57.1686,159.4974,60.4888,156.1772,65.0688,164.435,59.7014" style="stroke:#FFFFFF;stroke-width:1.0;"/><path d="M88.7971,78.3716 C105.3254,81.1172 129.6309,85.1546 152.7798,89 " fill="none" style="stroke:#FFFFFF;stroke-width:1.0;"/><polygon fill="#FFFFFF" points="152.7798,89,144.5569,83.5792,147.8474,88.1806,143.246,91.4711,152.7798,89" style="stroke:#FFFFFF;stroke-width:1.0;"/><path d="M88.7256,90.3591 C103.6618,101.1572 124.8192,115.3445 145,125 C156.9397,130.7125 170.5824,135.5685 182.8746,139.3866 " fill="none" style="stroke:#FFFFFF;stroke-width:1.0;"/><polygon fill="#FFFFFF" points="182.8746,139.3866,175.4661,132.8969,178.0996,137.9034,173.0931,140.5369,182.8746,139.3866" style="stroke:#FFFFFF;stroke-width:1.0;"/></g></svg>