<?xml version="1.0" encoding="us-ascii" standalone="no"?><svg xmlns="http://www.w3.org/2000/svg" xmlns:xlink="http://www.w3.org/1999/xlink" contentStyleType="text/css" height="331.25px" preserveAspectRatio="none" style="width:687px;height:331px;" version="1.1" viewBox="0 0 687 331" width="687.5px" zoomAndPan="magnify"><defs><linearGradient id="gst0545wkb2mo0" x1="50%" x2="50%" y1="0%" y2="100%"><stop offset="0%" stop-color="#F3F3F3"/><stop offset="100%" stop-color="#E2E2E2"/></linearGradient></defs><g><!--cluster Professional--><g id="cluster_Professional"><path d="M507.8125,14.5833 L611.9792,14.5833 A11.7188,11.7188 0 0 1 619.7917,22.3958 L627.0833,56.2174 L667.1875,56.2174 A7.8125,7.8125 0 0 1 675,64.0299 L675,159.8958 A7.8125,7.8125 0 0 1 667.1875,167.7083 L507.8125,167.7083 A7.8125,7.8125 0 0 1 500,159.8958 L500,22.3958 A7.8125,7.8125 0 0 1 507.8125,14.5833 " fill="none" style="stroke:#F3F3F3;stroke-width:2.0833333333333335;"/><line style="stroke:#F3F3F3;stroke-width:2.0833333333333335;" x1="500" x2="627.0833" y1="56.2174" y2="56.2174"/><text fill="#336699" font-family="Verdana" font-size="12.5" font-weight="bold" lengthAdjust="spacing" textLength="92.7083" x="514.5833" y="38.6861">Professional</text></g><!--cluster Restaurant--><g id="cluster_Restaurant"><rect fill="none" height="110.4167" rx="7.8125" ry="7.8125" style="stroke:#F3F3F3;stroke-width:2.0833333333333335;" width="594.7917" x="25" y="209.375"/><text fill="#336699" font-family="Verdana" font-size="12.5" font-weight="bold" lengthAdjust="spacing" textLength="83.3333" x="280.7292" y="233.4778">Restaurant</text></g><!--entity g--><g id="elem_g"><ellipse cx="271.875" cy="69.7917" fill="url(#gst0545wkb2mo0)" rx="8.3333" ry="8.3333" style="stroke:#F3F3F3;stroke-width:1.0416666666666667;"/><path d="M271.875,78.125 L271.875,106.25 M258.3333,86.4583 L285.4167,86.4583 M271.875,106.25 L258.3333,121.875 M271.875,106.25 L285.4167,121.875 " fill="none" style="stroke:#F3F3F3;stroke-width:1.0416666666666667;"/><text fill="#336699" font-family="Verdana" font-size="12.5" lengthAdjust="spacing" textLength="38.5417" x="252.6042" y="145.9778">Guest</text></g><!--entity c--><g id="elem_c"><ellipse cx="641.6667" cy="69.7917" fill="url(#gst0545wkb2mo0)" rx="8.3333" ry="8.3333" style="stroke:#F3F3F3;stroke-width:1.0416666666666667;"/><path d="M641.6667,78.125 L641.6667,106.25 M628.125,86.4583 L655.2083,86.4583 M641.6667,106.25 L628.125,121.875 M641.6667,106.25 L655.2083,121.875 " fill="none" style="stroke:#F3F3F3;stroke-width:1.0416666666666667;"/><text fill="#336699" font-family="Verdana" font-size="12.5" lengthAdjust="spacing" textLength="29.1667" x="627.0833" y="145.9778">Chef</text></g><!--entity fc--><g id="elem_fc"><ellipse cx="553.125" cy="69.7917" fill="url(#gst0545wkb2mo0)" rx="8.3333" ry="8.3333" style="stroke:#F3F3F3;stroke-width:1.0416666666666667;"/><path d="M553.125,78.125 L553.125,106.25 M539.5833,86.4583 L566.6667,86.4583 M553.125,106.25 L539.5833,121.875 M553.125,106.25 L566.6667,121.875 " fill="none" style="stroke:#F3F3F3;stroke-width:1.0416666666666667;"/><text fill="#336699" font-family="Verdana" font-size="12.5" lengthAdjust="spacing" textLength="68.75" x="518.75" y="145.9778">Food Critic</text></g><g id="elem_UC1"><ellipse cx="101.2765" cy="283.3537" fill="url(#gst0545wkb2mo0)" rx="67.9431" ry="28.1453" style="stroke:#F3F3F3;stroke-width:2.0833333333333335;"/><text fill="#336699" font-family="Verdana" font-size="12.5" lengthAdjust="spacing" textLength="58.3333" x="72.1098" y="285.5977">Eat Food</text></g><g id="elem_UC2"><ellipse cx="271.6477" cy="283.3537" fill="url(#gst0545wkb2mo0)" rx="84.1477" ry="28.1453" style="stroke:#F3F3F3;stroke-width:2.0833333333333335;"/><text fill="#336699" font-family="Verdana" font-size="12.5" lengthAdjust="spacing" textLength="81.25" x="231.0227" y="285.5977">Pay for Food</text></g><g id="elem_UC3"><ellipse cx="425.7863" cy="283.3537" fill="url(#gst0545wkb2mo0)" rx="50.2655" ry="28.1453" style="stroke:#F3F3F3;stroke-width:2.0833333333333335;"/><text fill="#336699" font-family="Verdana" font-size="12.5" lengthAdjust="spacing" textLength="33.3333" x="409.1196" y="285.5977">Drink</text></g><g id="elem_UC4"><ellipse cx="552.9436" cy="283.3537" fill="url(#gst0545wkb2mo0)" rx="57.6311" ry="28.1453" style="stroke:#F3F3F3;stroke-width:2.0833333333333335;"/><text fill="#336699" font-family="Verdana" font-size="12.5" lengthAdjust="spacing" textLength="43.75" x="531.0686" y="285.5977">Review</text></g><path d="M553.125,159.5824 C553.125,190.4532 553.125,229.2668 553.125,254.8794 " fill="none" style="stroke:#E2E2E2;stroke-width:3.125;"/><polygon fill="#E2E2E2" points="553.125,254.8794,557.2917,245.5044,553.125,249.6711,548.9583,245.5044,553.125,254.8794" style="stroke:#E2E2E2;stroke-width:1.0416666666666667;"/><path d="M242.1181,140.7851 C209.998,173.0031 159.279,223.8768 128.2051,255.0454 " fill="none" style="stroke:#E2E2E2;stroke-width:3.125;"/><polygon fill="#E2E2E2" points="128.2051,255.0454,137.7749,251.348,131.8823,251.357,131.8734,245.4644,128.2051,255.0454" style="stroke:#E2E2E2;stroke-width:1.0416666666666667;"/><path d="M271.875,159.5824 C271.875,190.4532 271.875,229.2668 271.875,254.8794 " fill="none" style="stroke:#E2E2E2;stroke-width:3.125;"/><polygon fill="#E2E2E2" points="271.875,254.8794,276.0417,245.5044,271.875,249.6711,267.7083,245.5044,271.875,254.8794" style="stroke:#E2E2E2;stroke-width:1.0416666666666667;"/><path d="M301.5657,141.0241 C320.2859,160.2584 344.7758,185.9114 365.625,209.375 C378.729,224.1222 392.8231,241.0656 404.0999,254.9059 " fill="none" style="stroke:#E2E2E2;stroke-width:3.125;"/><polygon fill="#E2E2E2" points="404.0999,254.9059,401.4083,245.0061,400.81,250.8682,394.9479,250.2699,404.0999,254.9059" style="stroke:#E2E2E2;stroke-width:1.0416666666666667;"/></g></svg>