<?xml version="1.0" encoding="us-ascii" standalone="no"?><svg xmlns="http://www.w3.org/2000/svg" xmlns:xlink="http://www.w3.org/1999/xlink" contentStyleType="text/css" height="443.75px" preserveAspectRatio="none" style="width:372px;height:443px;" version="1.1" viewBox="0 0 372 443" width="372.9167px" zoomAndPan="magnify"><defs><linearGradient id="g1rbv2c4lsabth0" x1="50%" x2="50%" y1="0%" y2="100%"><stop offset="0%" stop-color="#33B2E2"/><stop offset="100%" stop-color="#009FDB"/></linearGradient></defs><g><!--cluster Professional--><g id="cluster_Professional"><path d="M27.0833,171.875 L121.875,171.875 A15.625,15.625 0 0 1 132.2917,182.2917 L139.5833,209.3424 L132.2917,209.3424 A10.4167,10.4167 0 0 1 142.7083,219.7591 L142.7083,420.8333 A10.4167,10.4167 0 0 1 132.2917,431.25 L27.0833,431.25 A10.4167,10.4167 0 0 1 16.6667,420.8333 L16.6667,182.2917 A10.4167,10.4167 0 0 1 27.0833,171.875 " fill="none" style="stroke:#33B2E2;stroke-width:2.0833333333333335;"/><line style="stroke:#33B2E2;stroke-width:2.0833333333333335;" x1="16.6667" x2="139.5833" y1="209.3424" y2="209.3424"/><text fill="#009FDB" font-family="Verdana" font-size="12.5" font-weight="bold" lengthAdjust="spacing" textLength="92.7083" x="29.1667" y="193.8944">Professional</text></g><!--cluster Restaurant--><g id="cluster_Restaurant"><rect fill="none" height="306.25" rx="10.4167" ry="10.4167" style="stroke:#33B2E2;stroke-width:2.0833333333333335;" width="179.1667" x="182.2917" y="14.5833"/><text fill="#5A5A5A" font-family="Verdana" font-size="12.5" font-weight="bold" lengthAdjust="spacing" textLength="83.3333" x="230.2083" y="36.6028">Restaurant</text></g><!--entity g--><g id="elem_g"><ellipse cx="79.1667" cy="77.6042" fill="url(#g1rbv2c4lsabth0)" rx="8.3333" ry="8.3333" style="stroke:#33B2E2;stroke-width:1.0416666666666667;"/><path d="M79.1667,85.9375 L79.1667,114.0625 M65.625,94.2708 L92.7083,94.2708 M79.1667,114.0625 L65.625,129.6875 M79.1667,114.0625 L92.7083,129.6875 " fill="none" style="stroke:#33B2E2;stroke-width:1.0416666666666667;"/><text fill="#009FDB" font-family="Verdana" font-size="12.5" lengthAdjust="spacing" textLength="38.5417" x="59.8958" y="151.7069">Guest</text></g><!--entity c--><g id="elem_c"><ellipse cx="79.1667" cy="223.4375" fill="url(#g1rbv2c4lsabth0)" rx="8.3333" ry="8.3333" style="stroke:#33B2E2;stroke-width:1.0416666666666667;"/><path d="M79.1667,231.7708 L79.1667,259.8958 M65.625,240.1042 L92.7083,240.1042 M79.1667,259.8958 L65.625,275.5208 M79.1667,259.8958 L92.7083,275.5208 " fill="none" style="stroke:#33B2E2;stroke-width:1.0416666666666667;"/><text fill="#009FDB" font-family="Verdana" font-size="12.5" lengthAdjust="spacing" textLength="29.1667" x="64.5833" y="297.5403">Chef</text></g><!--entity fc--><g id="elem_fc"><ellipse cx="79.1667" cy="336.9792" fill="url(#g1rbv2c4lsabth0)" rx="8.3333" ry="8.3333" style="stroke:#33B2E2;stroke-width:1.0416666666666667;"/><path d="M79.1667,345.3125 L79.1667,373.4375 M65.625,353.6458 L92.7083,353.6458 M79.1667,373.4375 L65.625,389.0625 M79.1667,373.4375 L92.7083,389.0625 " fill="none" style="stroke:#33B2E2;stroke-width:1.0416666666666667;"/><text fill="#009FDB" font-family="Verdana" font-size="12.5" lengthAdjust="spacing" textLength="68.75" x="44.7917" y="411.0819">Food Critic</text></g><g id="elem_UC1"><ellipse cx="271.7677" cy="81.4491" fill="url(#g1rbv2c4lsabth0)" rx="64.9968" ry="25.1991" style="stroke:#33B2E2;stroke-width:2.0833333333333335;"/><text fill="#FFFFFF" font-family="Verdana" font-size="12.5" lengthAdjust="spacing" textLength="58.3333" x="242.601" y="83.6931">Eat Food</text></g><g id="elem_UC2"><ellipse cx="271.8264" cy="150.1991" fill="url(#g1rbv2c4lsabth0)" rx="81.2014" ry="25.1991" style="stroke:#33B2E2;stroke-width:2.0833333333333335;"/><text fill="#FFFFFF" font-family="Verdana" font-size="12.5" lengthAdjust="spacing" textLength="81.25" x="231.2014" y="152.4431">Pay for Food</text></g><g id="elem_UC3"><ellipse cx="271.7983" cy="218.9491" fill="url(#g1rbv2c4lsabth0)" rx="47.3192" ry="25.1991" style="stroke:#33B2E2;stroke-width:2.0833333333333335;"/><text fill="#FFFFFF" font-family="Verdana" font-size="12.5" lengthAdjust="spacing" textLength="33.3333" x="255.1317" y="221.1931">Drink</text></g><g id="elem_UC4"><ellipse cx="271.8724" cy="287.6991" fill="url(#g1rbv2c4lsabth0)" rx="54.6849" ry="25.1991" style="stroke:#33B2E2;stroke-width:2.0833333333333335;"/><text fill="#FFFFFF" font-family="Verdana" font-size="12.5" lengthAdjust="spacing" textLength="43.75" x="249.9974" y="289.9431">Review</text></g><polygon fill="#009FDB" points="217.1261,312.1525,206.8677,312.2766,212.3926,314.3252,210.3441,319.8502,217.1261,312.1525" style="stroke:#009FDB;stroke-width:1.0416666666666667;"/><path d="M122.0418,355.7978 C149.989,342.9695 181.3258,328.5854 211.4459,314.7598 " fill="none" style="stroke:#009FDB;stroke-width:3.125;"/><polygon fill="#009FDB" points="206.6586,92.8225,196.693,90.3857,201.533,93.7468,198.1719,98.5868,206.6586,92.8225" style="stroke:#009FDB;stroke-width:1.0416666666666667;"/><path d="M107.1159,110.7728 C132.8757,106.1276 166.5742,100.0508 200.5078,93.9316 " fill="none" style="stroke:#009FDB;stroke-width:3.125;"/><polygon fill="#009FDB" points="190.4876,135.5114,182.0008,129.7472,185.3619,134.5871,180.5219,137.9482,190.4876,135.5114" style="stroke:#009FDB;stroke-width:1.0416666666666667;"/><path d="M107.1159,120.4772 C128.8732,124.4006 154.5309,129.0274 184.3368,134.4023 " fill="none" style="stroke:#009FDB;stroke-width:3.125;"/><polygon fill="#009FDB" points="224.4761,202.9784,217.2097,195.736,219.6118,201.1168,214.2311,203.5189,224.4761,202.9784" style="stroke:#009FDB;stroke-width:1.0416666666666667;"/><path d="M106.9113,136.0233 C126.9325,150.7073 155.4001,170.3233 182.2917,184.375 C195.5911,191.3244 204.7862,195.4428 218.639,200.7444 " fill="none" style="stroke:#009FDB;stroke-width:3.125;"/></g></svg>