<?xml version="1.0" encoding="us-ascii" standalone="no"?><svg xmlns="http://www.w3.org/2000/svg" xmlns:xlink="http://www.w3.org/1999/xlink" contentStyleType="text/css" height="301px" preserveAspectRatio="none" style="width:655px;height:301px;" version="1.1" viewBox="0 0 655 301" width="655px" zoomAndPan="magnify"><defs><linearGradient id="g1s54a2fr8a40d0" x1="50%" x2="50%" y1="0%" y2="100%"><stop offset="0%" stop-color="#F4F4F4"/><stop offset="100%" stop-color="#F4F4F4"/></linearGradient></defs><g><!--cluster Professional--><g id="cluster_Professional"><polygon fill="#FFFFFF" points="470,4,585,4,592,43.9688,638,43.9688,638,149,470,149,470,4" style="stroke:#C6C6C6;stroke-width:1.0;"/><line style="stroke:#C6C6C6;stroke-width:1.0;" x1="470" x2="592" y1="43.9688" y2="43.9688"/><text fill="#262626" font-family="IBM Plex Sans, Noto Sans, Verdana" font-size="12" font-weight="bold" lengthAdjust="spacing" textLength="89" x="484" y="27.1387">Professional</text></g><!--cluster Restaurant--><g id="cluster_Restaurant"><rect fill="#FFFFFF" height="106" style="stroke:#C6C6C6;stroke-width:1.0;" width="571" x="14" y="189"/><text fill="#262626" font-family="IBM Plex Sans, Noto Sans, Verdana" font-size="12" font-weight="bold" lengthAdjust="spacing" textLength="80" x="259.5" y="212.1387">Restaurant</text></g><!--entity g--><g id="elem_g"><ellipse cx="251" cy="56" fill="url(#g1s54a2fr8a40d0)" rx="8" ry="8" style="stroke:#C6C6C6;stroke-width:0.0;"/><path d="M251,64 L251,91 M238,72 L264,72 M251,91 L238,106 M251,91 L264,106 " fill="none" style="stroke:#C6C6C6;stroke-width:0.0;"/><text fill="#262626" font-family="IBM Plex Sans, Noto Sans, Verdana" font-size="12" lengthAdjust="spacing" textLength="37" x="232.5" y="128.1387">Guest</text></g><!--entity c--><g id="elem_c"><ellipse cx="606" cy="56" fill="url(#g1s54a2fr8a40d0)" rx="8" ry="8" style="stroke:#C6C6C6;stroke-width:0.0;"/><path d="M606,64 L606,91 M593,72 L619,72 M606,91 L593,106 M606,91 L619,106 " fill="none" style="stroke:#C6C6C6;stroke-width:0.0;"/><text fill="#262626" font-family="IBM Plex Sans, Noto Sans, Verdana" font-size="12" lengthAdjust="spacing" textLength="28" x="592" y="128.1387">Chef</text></g><!--entity fc--><g id="elem_fc"><ellipse cx="521" cy="56" fill="url(#g1s54a2fr8a40d0)" rx="8" ry="8" style="stroke:#C6C6C6;stroke-width:0.0;"/><path d="M521,64 L521,91 M508,72 L534,72 M521,91 L508,106 M521,91 L534,106 " fill="none" style="stroke:#C6C6C6;stroke-width:0.0;"/><text fill="#262626" font-family="IBM Plex Sans, Noto Sans, Verdana" font-size="12" lengthAdjust="spacing" textLength="66" x="488" y="128.1387">Food Critic</text></g><g id="elem_UC1"><ellipse cx="87.2254" cy="260.0195" fill="url(#g1s54a2fr8a40d0)" rx="65.2254" ry="27.0195" style="stroke:#C6C6C6;stroke-width:1.0;"/><text fill="#262626" font-family="IBM Plex Sans, Noto Sans, Verdana" font-size="12" lengthAdjust="spacing" textLength="56" x="59.2254" y="262.1738">Eat Food</text></g><g id="elem_UC2"><ellipse cx="250.7817" cy="260.0195" fill="url(#g1s54a2fr8a40d0)" rx="80.7817" ry="27.0195" style="stroke:#C6C6C6;stroke-width:1.0;"/><text fill="#262626" font-family="IBM Plex Sans, Noto Sans, Verdana" font-size="12" lengthAdjust="spacing" textLength="78" x="211.7817" y="262.1738">Pay for Food</text></g><g id="elem_UC3"><ellipse cx="398.7548" cy="260.0195" fill="url(#g1s54a2fr8a40d0)" rx="48.2548" ry="27.0195" style="stroke:#C6C6C6;stroke-width:1.0;"/><text fill="#262626" font-family="IBM Plex Sans, Noto Sans, Verdana" font-size="12" lengthAdjust="spacing" textLength="32" x="382.7548" y="262.1738">Drink</text></g><g id="elem_UC4"><ellipse cx="520.8259" cy="260.0195" fill="url(#g1s54a2fr8a40d0)" rx="55.3259" ry="27.0195" style="stroke:#C6C6C6;stroke-width:1.0;"/><text fill="#262626" font-family="IBM Plex Sans, Noto Sans, Verdana" font-size="12" lengthAdjust="spacing" textLength="42" x="499.8259" y="262.1738">Review</text></g><path d="M521,141.0439 C521,170.5244 521,207.8771 521,232.5606 " fill="none" style="stroke:#C6C6C6;stroke-width:1.0;"/><polygon fill="#C6C6C6" points="521,232.5606,525,223.5606,521,227.5606,517,223.5606,521,232.5606" style="stroke:#C6C6C6;stroke-width:1.0;"/><path d="M222.4334,123.9795 C191.6899,154.6293 143.1975,202.9738 113.3437,232.7366 " fill="none" style="stroke:#C6C6C6;stroke-width:1.0;"/><polygon fill="#C6C6C6" points="113.3437,232.7366,122.5415,229.2151,116.8847,229.2064,116.8933,223.5496,113.3437,232.7366" style="stroke:#C6C6C6;stroke-width:1.0;"/><path d="M251,141.0439 C251,170.5244 251,207.8771 251,232.5606 " fill="none" style="stroke:#C6C6C6;stroke-width:1.0;"/><polygon fill="#C6C6C6" points="251,232.5606,255,223.5606,251,227.5606,247,223.5606,251,232.5606" style="stroke:#C6C6C6;stroke-width:1.0;"/><path d="M279.5386,124.0354 C297.5238,142.2887 321.0361,166.6526 341,189 C353.6174,203.1238 367.1501,219.3874 377.9677,232.6814 " fill="none" style="stroke:#C6C6C6;stroke-width:1.0;"/><polygon fill="#C6C6C6" points="377.9677,232.6814,375.3898,223.1759,374.8119,228.8031,369.1846,228.2252,377.9677,232.6814" style="stroke:#C6C6C6;stroke-width:1.0;"/></g></svg>