<?xml version="1.0" encoding="us-ascii" standalone="no"?><svg xmlns="http://www.w3.org/2000/svg" xmlns:xlink="http://www.w3.org/1999/xlink" contentStyleType="text/css" height="407.2917px" preserveAspectRatio="none" style="width:351px;height:407px;" version="1.1" viewBox="0 0 351 407" width="351.0417px" zoomAndPan="magnify"><defs/><g><!--cluster Professional--><g id="cluster_Professional"><path d="M20.8333,154.1667 L20.8333,154.7505 L30.9375,153.0158 L41.0417,154.7036 L51.1458,155.2769 L61.25,152.185 L71.3542,153.9508 L81.4583,152.982 L91.5625,153.1014 L101.6667,153.9773 L111.7708,152.2462 L121.875,154.1667 L126.0417,158.3333 L126.5366,158.4668 L126.9365,163.5916 L128.7815,169.106 L130.8028,174.6679 L131.7983,179.9533 L133.3333,185.3841 L133.3333,185.4473 L133.125,185.3545 L132.9167,185.5494 L132.7083,185.6055 L132.5,185.9264 L132.2917,185.3841 L136.4583,189.5508 L138.3224,189.5508 L138.3452,200.1336 L137.1656,210.7165 L137.7461,221.2993 L138.409,231.8822 L134.455,242.465 L138.3431,253.0479 L135.6347,263.6308 L137.9411,274.2136 L135.0833,284.7965 L136.2681,295.3793 L138.5183,305.9622 L136.323,316.545 L136.7508,327.1279 L137.399,337.7107 L137.6145,348.2936 L136.4475,358.8764 L137.2561,369.4593 L134.8683,380.0421 L136.4583,390.625 L132.2917,394.7917 L132.2917,395.5816 L122.1591,396.3144 L112.0265,396.0265 L101.8939,396.4945 L91.7614,393.4498 L81.6288,392.98 L71.4962,393.0656 L61.3636,394.6281 L51.2311,394.2458 L41.0985,396.6845 L30.9659,394.3065 L20.8333,394.7917 L16.6667,390.625 L15.7137,390.625 L17.3007,380.0663 L14.8143,369.5076 L15.2247,358.9489 L18.4693,348.3902 L17.8769,337.8314 L18.7069,327.2727 L15.7728,316.714 L17.5533,306.1553 L18.3067,295.5966 L15.3544,285.0379 L16.4004,274.4792 L17.0166,263.9205 L18.4771,253.3617 L16.655,242.803 L17.9516,232.2443 L15.1284,221.6856 L14.7854,211.1269 L18.0656,200.5682 L14.6752,190.0095 L18.0805,179.4508 L17.2406,168.892 L16.6667,158.3333 L20.8333,154.1667 " fill="#555555" style="stroke:#333333;stroke-width:2.0833333333333335;"/><path d="M16.6667,185.3841 L16.6667,185.676 L27.2727,184.8087 L37.8788,185.6526 L48.4848,185.9392 L59.0909,184.3933 L69.697,185.2762 L80.303,184.7918 L90.9091,184.8515 L101.5152,185.2895 L112.1212,184.4239 L122.7273,186.1531 L133.3333,185.3841 " fill="#555555" style="stroke:#333333;stroke-width:2.0833333333333335;"/><text fill="#333333" font-family="Segoe Print" font-size="12.5" font-weight="bold" lengthAdjust="spacing" textLength="92.7083" x="26.0417" y="173.0611">Professional</text></g><!--cluster Restaurant--><g id="cluster_Restaurant"><polygon fill="#555555" points="173.9583,14.5833,173.9583,14.8023,184.0495,14.1517,194.1406,14.7847,204.2318,14.9997,214.3229,13.8402,224.4141,14.5024,234.5052,14.1391,244.5964,14.1839,254.6875,14.5123,264.7786,13.8632,274.8698,15.16,284.9609,13.9268,295.0521,14.3773,305.1432,15.0333,315.2344,14.494,325.3255,14.6544,335.4167,14.5833,335.4124,14.5731,336.0296,14.8847,336.627,15.1482,337.2623,15.5035,337.8629,15.7749,338.3629,15.8037,338.5808,15.894,338.6887,16.4268,338.9998,17.0438,339.3204,17.6648,339.1079,18.0649,339.5833,18.75,340.2901,18.75,339.2745,29.0833,340.1394,39.4167,339.0677,49.75,339.512,60.0833,340.3558,70.4167,339.5326,80.75,339.693,91.0833,339.9361,101.4167,340.0169,111.75,339.5793,122.0833,339.8825,132.4167,338.9871,142.75,339.8796,153.0833,340.1544,163.4167,340.0464,173.75,340.2219,184.0833,339.0801,194.4167,338.904,204.75,338.936,215.0833,339.522,225.4167,339.3786,235.75,340.2931,246.0833,339.4014,256.4167,339.226,266.75,339.5833,277.0833,339.6566,277.1137,339.1253,277.584,338.9286,278.1929,339.0593,278.9373,338.7468,279.4982,338.3629,280.0296,338.4605,280.2652,337.7309,280.1705,337.2268,280.6202,336.6736,280.9512,335.9432,280.8544,335.4167,281.25,335.4167,281.1501,325.3255,281.3812,315.2344,281.9289,305.1432,281.2456,295.0521,281.7318,284.9609,280.6731,274.8698,280.5445,264.7786,281.7746,254.6875,280.5032,244.5964,281.7802,234.5052,281.4652,224.4141,280.9709,214.3229,280.8815,204.2318,281.7279,194.1406,280.9382,184.0495,281.8665,173.9583,281.25,173.8849,281.0727,173.4511,281.204,172.8442,280.9172,172.2231,280.5964,171.6076,280.2888,171.0121,280.0296,171.2451,280.1262,170.9648,279.5219,170.5782,278.8736,170.3659,278.2975,169.994,277.6553,169.7917,277.0833,170.538,277.0833,169.953,266.75,169.9714,256.4167,169.158,246.0833,169.3696,235.75,170.3445,225.4167,170.2393,215.0833,169.7469,204.75,169.4561,194.4167,169.5636,184.0833,169.0769,173.75,170.2237,163.4167,170.562,153.0833,170.34,142.75,170.5156,132.4167,169.6492,122.0833,169.8825,111.75,169.3879,101.4167,170.0875,91.0833,170.0487,80.75,170.3671,70.4167,169.5524,60.0833,169.6517,49.75,170.2536,39.4167,170.3826,29.0833,169.7917,18.75,169.6273,18.6819,169.9735,18.135,170.3277,17.5913,170.3279,16.9011,170.8813,16.4399,171.0121,15.8037,171.0463,15.8865,171.5879,15.5273,172.2095,15.3612,172.8766,15.3052,173.3275,14.727,173.9583,14.5833" style="stroke:#333333;stroke-width:2.0833333333333335;"/><text fill="#FFFFFF" font-family="Segoe Print" font-size="12.5" font-weight="bold" lengthAdjust="spacing" textLength="83.3333" x="213.0208" y="33.4778">Restaurant</text></g><!--entity g--><g id="elem_g"><polygon fill="#474747" points="84.421,68.1728,83.1995,69.8419,81.7547,72.2865,79.6883,73.934,77.517,74.8349,75.7856,74.9131,73.5604,73.7864,71.4607,73.0503,69.8671,71.5558,69.0311,69.8449,68.5354,68.4826,68.0497,66.7032,67.2614,65.1719,67.8671,63.6769,68.3979,62.0392,70.3896,60.7439,71.7909,59.0633,73.5253,58.5053,75.5872,58.0247,78.2314,58.3102,79.6796,58.9932,81.3634,59.3028,83.4107,61.4004,84.1244,63.6147,84.4345,65.1256,84.0833,67.6154" style="stroke:#333333;stroke-width:1.0416666666666667;"/><path d="M76.0417,74.4792 L76.2363,74.4792 L75.658,80.1042 L76.2206,85.7292 L76.4117,91.3542 L75.3811,96.9792 L76.0417,102.6042 M62.5,82.8125 L62.5,82.7405 L67.9167,82.4176 L73.3333,82.4574 L78.75,82.7494 L84.1667,82.1723 L89.5833,82.8125 M76.0417,102.6042 L76.4291,102.9399 L72.8923,105.347 L70.4866,108.7342 L68.2189,112.2411 L65.1483,115.0522 L62.5,118.2292 M76.0417,102.6042 L76.0894,102.6455 L78.7276,105.7098 L81.5833,108.9624 L84.334,112.1242 L87.2848,115.4593 L89.5833,118.2292 " fill="none" style="stroke:#333333;stroke-width:1.0416666666666667;"/><text fill="#FFFFFF" font-family="Segoe Print" font-size="12.5" lengthAdjust="spacing" textLength="38.5417" x="56.7708" y="137.1236">Guest</text></g><!--entity c--><g id="elem_c"><polygon fill="#474747" points="84.421,201.5062,83.1995,203.1752,81.7547,205.6199,79.6883,207.2673,77.517,208.1683,75.7856,208.2465,73.5604,207.1197,71.4607,206.3837,69.8671,204.8892,69.0311,203.1782,68.5354,201.8159,68.0497,200.0365,67.2614,198.5053,67.8671,197.0102,68.3979,195.3725,70.3896,194.0773,71.7909,192.3967,73.5253,191.8386,75.5872,191.358,78.2314,191.6435,79.6796,192.3265,81.3634,192.6361,83.4107,194.7337,84.1244,196.9481,84.4345,198.459,84.0833,200.9488" style="stroke:#333333;stroke-width:1.0416666666666667;"/><path d="M76.0417,207.8125 L76.2363,207.8125 L75.658,213.4375 L76.2206,219.0625 L76.4117,224.6875 L75.3811,230.3125 L76.0417,235.9375 M62.5,216.1458 L62.5,216.0739 L67.9167,215.7509 L73.3333,215.7907 L78.75,216.0827 L84.1667,215.5057 L89.5833,216.1458 M76.0417,235.9375 L76.4291,236.2732 L72.8923,238.6803 L70.4866,242.0676 L68.2189,245.5744 L65.1483,248.3855 L62.5,251.5625 M76.0417,235.9375 L76.0894,235.9789 L78.7276,239.0431 L81.5833,242.2958 L84.334,245.4575 L87.2848,248.7927 L89.5833,251.5625 " fill="none" style="stroke:#333333;stroke-width:1.0416666666666667;"/><text fill="#FFFFFF" font-family="Segoe Print" font-size="12.5" lengthAdjust="spacing" textLength="29.1667" x="61.4583" y="270.4569">Chef</text></g><!--entity fc--><g id="elem_fc"><polygon fill="#474747" points="84.421,308.7978,83.1995,310.4669,81.7547,312.9115,79.6883,314.559,77.517,315.4599,75.7856,315.5381,73.5604,314.4114,71.4607,313.6753,69.8671,312.1808,69.0311,310.4699,68.5354,309.1076,68.0497,307.3282,67.2614,305.7969,67.8671,304.3019,68.3979,302.6642,70.3896,301.3689,71.7909,299.6883,73.5253,299.1303,75.5872,298.6497,78.2314,298.9352,79.6796,299.6182,81.3634,299.9278,83.4107,302.0254,84.1244,304.2397,84.4345,305.7506,84.0833,308.2404" style="stroke:#333333;stroke-width:1.0416666666666667;"/><path d="M76.0417,315.1042 L76.2363,315.1042 L75.658,320.7292 L76.2206,326.3542 L76.4117,331.9792 L75.3811,337.6042 L76.0417,343.2292 M62.5,323.4375 L62.5,323.3655 L67.9167,323.0426 L73.3333,323.0824 L78.75,323.3744 L84.1667,322.7973 L89.5833,323.4375 M76.0417,343.2292 L76.4291,343.5649 L72.8923,345.972 L70.4866,349.3592 L68.2189,352.8661 L65.1483,355.6772 L62.5,358.8542 M76.0417,343.2292 L76.0894,343.2705 L78.7276,346.3348 L81.5833,349.5874 L84.334,352.7492 L87.2848,356.0843 L89.5833,358.8542 " fill="none" style="stroke:#333333;stroke-width:1.0416666666666667;"/><text fill="#FFFFFF" font-family="Segoe Print" font-size="12.5" lengthAdjust="spacing" textLength="68.75" x="41.6667" y="377.7486">Food Critic</text></g><g id="elem_UC1"><polygon fill="#474747" points="314.3403,73.9138,313.1301,77.4305,308.5109,80.1063,303.2108,82.7722,298.8354,85.8684,290.5803,87.6338,283.0388,89.5308,274.1872,90.7548,264.4348,91.3412,255.9651,91.9424,244.4775,90.9967,237.147,90.8915,227.6662,89.404,218.544,87.3514,212.1521,85.5206,205.7299,82.9558,200.925,80.2311,196.9473,77.102,194.6303,73.8978,193.3247,70.4551,193.9326,67.1572,196.1384,63.982,200.4621,61.2048,205.0912,58.3088,210.8792,55.6971,220.4067,54.3682,226.2506,51.8889,236.6078,51.1813,244.5095,49.96,255.6479,50.2743,264.4353,50.2938,272.3697,50.6061,282.4286,52.2919,290.2847,53.9102,297.1359,55.8986,303.184,58.335,308.8295,61.3481,311.9969,64.1992,315.6046,67.8462,314.9663,70.6221" style="stroke:#333333;stroke-width:2.0833333333333335;"/><text fill="#FFFFFF" font-family="Segoe Print" font-size="12.5" lengthAdjust="spacing" textLength="58.3333" x="225.6816" y="73.0237">Eat Food</text></g><g id="elem_UC2"><polygon fill="#474747" points="330.3132,134.3305,328.7793,137.8472,322.9244,140.523,316.2065,143.1888,310.6607,146.2851,300.1974,148.0505,290.6385,149.9475,279.4191,151.1714,267.0579,151.7579,256.3225,152.3591,241.762,151.4134,232.4705,151.3082,220.4536,149.8207,208.8912,147.7681,200.7895,145.9373,192.6493,143.3725,186.5591,140.6478,181.5174,137.5187,178.5807,134.3145,176.9258,130.8718,177.6963,127.5738,180.4922,124.3987,185.9724,121.6215,191.8398,118.7255,199.1761,116.1138,211.2523,114.7849,218.6594,112.3055,231.7871,111.598,241.8026,110.3767,255.9205,110.691,267.0586,110.7105,277.1154,111.0228,289.865,112.7085,299.8226,114.3269,308.5067,116.3152,316.1726,118.7517,323.3282,121.7647,327.3429,124.6159,331.9156,128.2629,331.1066,131.0387" style="stroke:#333333;stroke-width:2.0833333333333335;"/><text fill="#FFFFFF" font-family="Segoe Print" font-size="12.5" lengthAdjust="spacing" textLength="81.25" x="214.282" y="133.4404">Pay for Food</text></g><g id="elem_UC3"><polygon fill="#474747" points="297.0101,194.7472,296.153,198.2638,292.8818,200.9396,289.1283,203.6055,286.0298,206.7017,280.1837,208.4671,274.8429,210.3641,268.5744,211.5881,261.6679,212.1746,255.6698,212.7757,247.5346,211.83,242.3432,211.7249,235.6291,210.2374,229.1689,208.1847,224.6423,206.3539,220.0942,203.7891,216.6915,201.0645,213.8746,197.9353,212.2338,194.7311,211.3091,191.2884,211.7397,187.9905,213.3018,184.8153,216.3637,182.0381,219.642,179.1421,223.7409,176.5304,230.4881,175.2015,234.6266,172.7222,241.9614,172.0147,247.5572,170.7934,255.4452,171.1076,261.6683,171.1271,267.2873,171.4394,274.4108,173.1252,279.9743,174.7435,284.8262,176.7319,289.1094,179.1684,293.1074,182.1814,295.3504,185.0326,297.9054,188.6795,297.4533,191.4554" style="stroke:#333333;stroke-width:2.0833333333333335;"/><text fill="#FFFFFF" font-family="Segoe Print" font-size="12.5" lengthAdjust="spacing" textLength="33.3333" x="238.2123" y="193.857">Drink</text></g><g id="elem_UC4"><polygon fill="#474747" points="303.797,255.1638,302.7928,258.6805,298.9599,261.3563,294.562,264.0222,290.9314,267.1184,284.0816,268.8838,277.8238,270.7808,270.479,272.0048,262.3867,272.5912,255.3588,273.1924,245.8268,272.2467,239.7441,272.1415,231.8772,270.654,224.3078,268.6014,219.0041,266.7706,213.675,264.2058,209.6881,261.4811,206.3875,258.352,204.465,255.1478,203.3816,251.7051,203.886,248.4072,205.7163,245.232,209.304,242.4548,213.1451,239.5588,217.9478,236.9471,225.8535,235.6182,230.7026,233.1389,239.2967,232.4313,245.8533,231.21,255.0957,231.5243,262.3872,231.5438,268.9709,231.8561,277.3175,233.5419,283.8363,235.1602,289.5213,237.1486,294.5398,239.585,299.2242,242.5981,301.8524,245.4492,304.846,249.0962,304.3164,251.8721" style="stroke:#333333;stroke-width:2.0833333333333335;"/><text fill="#FFFFFF" font-family="Segoe Print" font-size="12.5" lengthAdjust="spacing" textLength="43.75" x="232.5571" y="254.2737">Review</text></g><path d="M115.8307,322.0072 L115.9628,322.2676 L125.2403,316.5878 L135.292,312.4341 L145.0917,307.7834 L154.0621,301.4985 L164.1315,297.3796 L173.5823,292.0413 L183.2792,287.1883 L193.1473,282.6726 L202.4256,276.9944 L212.53,272.9445 " fill="none" style="stroke:#333333;stroke-width:3.125;"/><polygon fill="#333333" points="212.53,272.9445,212.5337,273.0174,210.4735,272.906,208.4351,273.2219,206.3897,273.3987,204.3207,273.118,202.2843,273.4706,202.2759,273.4449,203.3585,273.6959,204.4833,274.0762,205.6375,274.5464,206.6905,274.7068,207.8853,275.3011,208.068,275.3608,207.3112,276.3533,207.0878,277.5202,206.9296,278.7083,206.3926,279.7726,206.0548,280.9021,206.0732,280.9171,207.3413,279.3036,208.693,277.7582,210.0043,276.1799,211.3927,274.6644,212.53,272.9445" style="stroke:#333333;stroke-width:1.0416666666666667;"/><path d="M100.5295,97.0302 L100.5787,97.318 L110.8137,94.6869 L121.3373,93.7425 L131.767,92.2489 L141.8876,88.949 L152.4178,88.0431 L162.7174,85.7895 L173.1088,84.0722 L183.5639,82.7277 L193.9612,81.0449 " fill="none" style="stroke:#333333;stroke-width:3.125;"/><polygon fill="#333333" points="193.9612,81.0449,193.9792,81.1156,191.9371,80.4002,190.0004,80.0995,188.0293,79.6638,185.9455,78.784,184.0178,78.5189,184.0022,78.4969,184.8942,79.0789,185.8647,79.7719,186.8899,80.5422,187.7268,81.0464,188.8275,81.9232,188.9844,82.0343,187.968,82.7587,187.4097,83.8074,186.9073,84.8956,186.0797,85.7537,185.4231,86.7329,185.4363,86.7526,187.1246,85.586,188.8727,84.5093,190.592,83.3892,192.3663,82.3517,193.9612,81.0449" style="stroke:#333333;stroke-width:1.0416666666666667;"/><path d="M100.5295,105.0531 L100.5787,105.3408 L110.1196,106.1433 L119.9492,108.6325 L129.6847,110.5725 L139.1112,110.7061 L148.9473,113.2337 L158.5528,114.4136 L168.2501,116.1299 L178.0271,118.3123 " fill="none" style="stroke:#333333;stroke-width:3.125;"/><polygon fill="#333333" points="178.0271,118.3123,178.0676,118.373,176.2397,117.055,174.6491,116.0929,172.9812,115.015,171.0593,113.5557,169.4891,112.6243,169.467,112.6087,170.049,113.5007,170.7421,114.4712,171.5123,115.4964,172.0166,116.3333,172.8934,117.4339,173.0044,117.5909,171.805,117.9362,170.9298,118.7396,170.0942,119.599,169.0284,120.1331,168.0837,120.8383,168.0895,120.8612,170.0697,120.3223,172.0763,119.888,174.0702,119.4032,176.0885,119.0146,178.0271,118.3123" style="stroke:#333333;stroke-width:1.0416666666666667;"/><path d="M100.569,118.5394 L100.6247,118.6193 L103.463,120.4753 L106.6275,122.7993 L109.6858,124.9709 L112.3948,126.6413 L115.5873,129.0055 L115.5676,128.9755 L118.9062,131.0915 L122.3444,133.3591 L125.8518,135.7321 L129.1207,137.7419 L132.7237,140.2604 L132.8588,140.4782 L134.3867,141.1396 L136.3092,142.437 L138.2797,143.8119 L139.9703,144.7354 L141.8081,145.8963 L141.8241,145.9235 L143.6566,146.9812 L145.5622,148.1627 L147.4326,149.2845 L149.3703,150.5203 L151.0883,151.3845 L151.2397,151.6558 L153.1146,152.7043 L154.8918,153.5777 L156.8119,154.7073 L158.7387,155.849 L160.4533,156.6102 L160.2994,156.3139 L162.4657,157.8586 L164.1254,158.4276 L166.1702,159.7384 L167.8184,160.2853 L169.7917,161.4583 L169.7782,161.4296 L171.9907,162.7336 L173.8881,163.3669 L175.9714,164.396 L178.0704,165.4583 L180.0567,166.2809 L180.132,166.4583 L182.1847,167.1828 L184.366,168.2103 L186.3392,168.7475 L188.6228,170.0162 L190.7,170.7985 L190.7922,171.035 L192.9185,171.8254 L195.0905,172.7332 L197.05,173.0955 L199.1653,173.8576 L201.4186,174.9741 L201.3207,174.7036 L203.5075,175.7078 L205.5839,176.4072 L207.8204,177.5487 L209.7837,177.9354 L211.9093,178.7707 " fill="none" style="stroke:#333333;stroke-width:3.125;"/><polygon fill="#333333" points="211.9093,178.7707,211.9593,178.8239,210.3161,177.2602,208.966,176.0081,207.5205,174.6546,205.761,172.9673,204.4361,171.742,204.4118,171.7303,204.8141,172.7395,205.3389,173.8078,205.949,174.9171,206.2654,175.8849,206.9931,177.0509,207.0766,177.2241,205.8364,177.3651,204.8398,178.0118,203.8729,178.7202,202.7331,179.0697,201.6843,179.6079,201.6862,179.6315,203.7284,179.4294,205.7794,179.3348,207.8261,179.1884,209.8809,179.1409,211.9093,178.7707" style="stroke:#333333;stroke-width:1.0416666666666667;"/></g></svg>