<?xml version="1.0" encoding="UTF-8" standalone="no"?><svg xmlns="http://www.w3.org/2000/svg" xmlns:xlink="http://www.w3.org/1999/xlink" contentScriptType="application/ecmascript" contentStyleType="text/css" height="209px" preserveAspectRatio="none" style="width:547px;height:209px;background:#FFFFFF;" version="1.1" viewBox="0 0 547 209" width="547px" zoomAndPan="magnify"><defs><filter height="300%" id="f11vs81k4cuip" width="300%" x="-1" y="-1"><feGaussianBlur result="blurOut" stdDeviation="2.0"/><feColorMatrix in="blurOut" result="blurOut2" type="matrix" values="0 0 0 0 0 0 0 0 0 0 0 0 0 0 0 0 0 0 .4 0"/><feOffset dx="4.0" dy="4.0" in="blurOut2" result="blurOut3"/><feBlend in="SourceGraphic" in2="blurOut3" mode="normal"/></filter></defs><g><!--MD5=[fb1b454ac1984f657a61539df0e47555]
cluster Professional--><polygon fill="#FFFFFF" filter="url(#f11vs81k4cuip)" points="390,6,494,6,501,28.2969,530,28.2969,530,122,390,122,390,6" style="stroke:#000000;stroke-width:1.5;"/><line style="stroke:#000000;stroke-width:1.5;" x1="390" x2="501" y1="28.2969" y2="28.2969"/><text fill="#000000" font-family="sans-serif" font-size="14" font-weight="bold" lengthAdjust="spacing" textLength="98" x="394" y="20.9951">Professional</text><!--MD5=[bc938698130bec3721522f38f16e3aed]
cluster Restaurant--><rect fill="#FFFFFF" filter="url(#f11vs81k4cuip)" height="67" style="stroke:#000000;stroke-width:1.5;" width="483" x="7" y="130"/><text fill="#000000" font-family="sans-serif" font-size="14" font-weight="bold" lengthAdjust="spacing" textLength="86" x="205.5" y="144.9951">Restaurant</text><!--MD5=[338e9af232e5abde8a6bc8ae9f528414]
entity g--><ellipse cx="174" cy="42.5" fill="#FEFECE" filter="url(#f11vs81k4cuip)" rx="8" ry="8" style="stroke:#A80036;stroke-width:1.5;"/><path d="M174,50.5 L174,77.5 M161,58.5 L187,58.5 M174,77.5 L161,92.5 M174,77.5 L187,92.5 " fill="none" filter="url(#f11vs81k4cuip)" style="stroke:#A80036;stroke-width:1.5;"/><text fill="#000000" font-family="sans-serif" font-size="14" lengthAdjust="spacing" textLength="42" x="153" y="110.9951">Guest</text><!--MD5=[8e9b2d9d80e066cced8e5d90e9bdea61]
entity c--><ellipse cx="506" cy="42.5" fill="#FEFECE" filter="url(#f11vs81k4cuip)" rx="8" ry="8" style="stroke:#A80036;stroke-width:1.5;"/><path d="M506,50.5 L506,77.5 M493,58.5 L519,58.5 M506,77.5 L493,92.5 M506,77.5 L519,92.5 " fill="none" filter="url(#f11vs81k4cuip)" style="stroke:#A80036;stroke-width:1.5;"/><text fill="#000000" font-family="sans-serif" font-size="14" lengthAdjust="spacing" textLength="32" x="490" y="110.9951">Chef</text><!--MD5=[db756db308cf6ff8cfeeb51570136b75]
entity fc--><ellipse cx="435" cy="42.5" fill="#FEFECE" filter="url(#f11vs81k4cuip)" rx="8" ry="8" style="stroke:#A80036;stroke-width:1.5;"/><path d="M435,50.5 L435,77.5 M422,58.5 L448,58.5 M435,77.5 L422,92.5 M435,77.5 L448,92.5 " fill="none" filter="url(#f11vs81k4cuip)" style="stroke:#A80036;stroke-width:1.5;"/><text fill="#000000" font-family="sans-serif" font-size="14" lengthAdjust="spacing" textLength="73" x="398.5" y="110.9951">Food Critic</text><ellipse cx="315.0868" cy="173.2397" fill="#FEFECE" filter="url(#f11vs81k4cuip)" rx="55.5868" ry="14.7397" style="stroke:#A80036;stroke-width:1.5;"/><text fill="#000000" font-family="sans-serif" font-size="14" lengthAdjust="spacing" textLength="61" x="281.5868" y="176.9873">Eat Food</text><ellipse cx="174.1678" cy="172.8336" fill="#FEFECE" filter="url(#f11vs81k4cuip)" rx="67.1678" ry="15.8336" style="stroke:#A80036;stroke-width:1.5;"/><text fill="#000000" font-family="sans-serif" font-size="14" lengthAdjust="spacing" textLength="85" x="128.6678" y="176.5811">Pay for Food</text><ellipse cx="51.9961" cy="173.0423" fill="#FEFECE" filter="url(#f11vs81k4cuip)" rx="36.9961" ry="14.5423" style="stroke:#A80036;stroke-width:1.5;"/><text fill="#000000" font-family="sans-serif" font-size="14" lengthAdjust="spacing" textLength="36" x="32.6301" y="176.3527">Drink</text><ellipse cx="435.1299" cy="173.1562" fill="#FEFECE" filter="url(#f11vs81k4cuip)" rx="46.6299" ry="14.6562" style="stroke:#A80036;stroke-width:1.5;"/><text fill="#000000" font-family="sans-serif" font-size="14" lengthAdjust="spacing" textLength="49" x="407.6299" y="176.9038">Review</text><path d="M435,114.157 C435,129.7625 435,146.657 435,158.1342 " fill="none" style="stroke:#A80036;stroke-width:1.0;"/><polygon fill="#A80036" points="435,158.1342,439,149.1342,435,153.1342,431,149.1342,435,158.1342" style="stroke:#A80036;stroke-width:1.0;"/><path d="M195.1091,89.0967 C222.1514,107.7962 268.6777,139.9687 295.1158,158.2503 " fill="none" style="stroke:#A80036;stroke-width:1.0;"/><polygon fill="#A80036" points="295.1158,158.2503,289.9883,149.8415,291.0033,155.4065,285.4382,156.4215,295.1158,158.2503" style="stroke:#A80036;stroke-width:1.0;"/><path d="M174,114.157 C174,129.1299 174,145.2893 174,156.712 " fill="none" style="stroke:#A80036;stroke-width:1.0;"/><polygon fill="#A80036" points="174,156.712,178,147.712,174,151.712,170,147.712,174,156.712" style="stroke:#A80036;stroke-width:1.0;"/><path d="M152.8949,88.9794 C137.3803,99.8454 115.9613,115.3154 98,130 C86.9487,139.0352 75.064,149.9194 66.1437,158.3436 " fill="none" style="stroke:#A80036;stroke-width:1.0;"/><polygon fill="#A80036" points="66.1437,158.3436,75.4334,155.0723,69.7789,154.9106,69.9406,149.256,66.1437,158.3436" style="stroke:#A80036;stroke-width:1.0;"/></g></svg>