<?xml version="1.0" encoding="us-ascii" standalone="no"?><svg xmlns="http://www.w3.org/2000/svg" xmlns:xlink="http://www.w3.org/1999/xlink" contentStyleType="text/css" height="224px" preserveAspectRatio="none" style="width:497px;height:224px;" version="1.1" viewBox="0 0 497 224" width="497px" zoomAndPan="magnify"><defs><linearGradient id="g1e4oiej1vsx220" x1="50%" x2="50%" y1="0%" y2="100%"><stop offset="0%" stop-color="#F4F4F4"/><stop offset="100%" stop-color="#F4F4F4"/></linearGradient></defs><g><!--entity User--><g id="elem_User"><ellipse cx="118" cy="28" fill="url(#g1e4oiej1vsx220)" rx="16" ry="16" style="stroke:#C6C6C6;stroke-width:0.0;"/><path d="M118,48 C122,48 125,48 129,44 C137,44 145,52 145,60 L145,64 C145,68 141,72 137,72 L99,72 C95,72 91,68 91,64 L91,60 C91,52 99,44 107,44 C111,48 114,48 118,48 " fill="url(#g1e4oiej1vsx220)" style="stroke:#C6C6C6;stroke-width:0.0;"/><text fill="#262626" font-family="sans-serif" font-size="12" lengthAdjust="spacing" textLength="29" x="103.5" y="93.1387">User</text></g><g id="elem_Use"><ellipse cx="117.8944" cy="191.0195" fill="url(#g1e4oiej1vsx220)" rx="111.8944" ry="27.0195" style="stroke:#C6C6C6;stroke-width:1.0;"/><text fill="#262626" font-family="sans-serif" font-size="12" lengthAdjust="spacing" textLength="122" x="56.8944" y="193.1738">Use the application</text></g><!--entity Admin--><g id="elem_Admin"><ellipse cx="370" cy="28" fill="url(#g1e4oiej1vsx220)" rx="16" ry="16" style="stroke:#C6C6C6;stroke-width:0.0;"/><path d="M370,48 C374,48 377,48 381,44 C389,44 397,52 397,60 L397,64 C397,68 393,72 389,72 L351,72 C347,72 343,68 343,64 L343,60 C343,52 351,44 359,44 C363,48 366,48 370,48 " fill="url(#g1e4oiej1vsx220)" style="stroke:#C6C6C6;stroke-width:0.0;"/><text fill="#262626" font-family="sans-serif" font-size="12" lengthAdjust="spacing" textLength="71" x="334.5" y="93.1387">Main Admin</text></g><g id="elem_Admin the application"><ellipse cx="369.7939" cy="191.0195" fill="url(#g1e4oiej1vsx220)" rx="121.7939" ry="27.0195" style="stroke:#C6C6C6;stroke-width:1.0;"/><text fill="#262626" font-family="sans-serif" font-size="12" lengthAdjust="spacing" textLength="136" x="301.7939" y="193.1738">Admin the application</text></g><polygon fill="#C6C6C6" points="118,163.9977,122,154.9977,118,158.9977,114,154.9977,118,163.9977" style="stroke:#C6C6C6;stroke-width:1.0;"/><path d="M118,106.1992 C118,125.6118 118,141.4724 118,157.9977 " fill="none" style="stroke:#C6C6C6;stroke-width:1.0;"/><polygon fill="#C6C6C6" points="370,163.9977,374,154.9977,370,158.9977,366,154.9977,370,163.9977" style="stroke:#C6C6C6;stroke-width:1.0;"/><path d="M370,106.1992 C370,125.6118 370,141.4724 370,157.9977 " fill="none" style="stroke:#C6C6C6;stroke-width:1.0;"/></g></svg>