<?xml version="1.0" encoding="UTF-8" standalone="no"?><svg xmlns="http://www.w3.org/2000/svg" xmlns:xlink="http://www.w3.org/1999/xlink" contentScriptType="application/ecmascript" contentStyleType="text/css" height="214.5833px" preserveAspectRatio="none" style="width:493px;height:214px;background:#00000000;" version="1.1" viewBox="0 0 493 214" width="493.75px" zoomAndPan="magnify"><defs/><g><!--MD5=[fee662a292a0353a69bd162820bae93b]
entity User--><polygon points="141.7587,32.1739,139.3157,35.512,136.4261,40.4013,132.2934,43.6963,127.9506,45.4981,124.4879,45.6545,120.0374,43.401,115.8381,41.9289,112.6508,38.9399,110.9789,35.5181,109.9874,32.7935,109.016,29.2346,107.4394,26.1721,108.6509,23.182,109.7124,19.9066,113.6959,17.3161,116.4984,13.9549,119.9673,12.8388,124.0911,11.8776,129.3794,12.4486,132.2759,13.8147,135.6435,14.4338,139.7382,18.629,141.1655,23.0577,141.7857,26.0795,141.0833,31.0591" style="stroke:#333333;stroke-width:1.5625;fill:none;"/><path d="M125,48.9532 L125,48.9532 L125.0333,49.0447 L127.2261,47.9396 L129.6139,47.3707 L131.9382,46.6271 L134.0538,45.3095 L136.4583,44.7866 L136.4583,44.7866 L136.4434,44.7538 L138.6683,45.6485 L140.9682,46.7083 L143.3203,47.8829 L145.4926,48.6619 L147.9167,49.9949 L148.15,50.101 L148.6927,52.1658 L149.9166,54.5404 L151.2237,56.9527 L152.0472,59.1451 L153.125,61.4532 L153.1882,61.4532 L153.0954,62.2866 L153.2903,63.1199 L153.3464,63.9532 L153.6673,64.7866 L153.125,65.6199 L153.125,65.6199 L153.3447,65.8396 L151.6807,67.5089 L149.875,69.0366 L148.2768,70.7717 L146.6882,72.5165 L144.7917,73.9532 L144.7917,73.2855 L136.875,74.5815 L128.9583,73.6787 L121.0417,74.4475 L113.125,73.4949 L105.2083,73.9532 L105.2083,73.9532 L105.1859,73.9308 L103.7844,72.5294 L101.859,70.604 L100.2428,68.9877 L98.6525,67.3974 L96.875,65.6199 L97.2604,65.6199 L96.8714,64.7866 L97.1409,63.9532 L96.345,63.1199 L97.1383,62.2866 L96.875,61.4532 L96.875,61.4532 L97.106,61.5583 L98.104,59.2467 L99.2167,56.9874 L99.7964,54.4857 L100.7668,52.1616 L102.0833,49.9949 L101.9643,49.733 L104.3637,48.9284 L106.629,47.8288 L109.0889,47.1571 L111.2165,45.7546 L113.5417,44.7866 L113.5417,44.7866 L113.4874,44.6373 L115.8694,45.7192 L118.0195,46.1631 L120.3345,47.0607 L122.811,48.4023 L125,48.9532 " style="stroke:#333333;stroke-width:1.5625;fill:none;"/><text fill="#2E2E2E" font-family="&quot;Segoe Print&quot;" font-size="14.5833" lengthAdjust="spacing" textLength="33.3333" x="108.3333" y="94.2607">User</text><polygon points="231.9032,182.0326,229.7337,186.1312,221.4533,189.2498,211.9523,192.3568,204.109,195.9654,189.311,198.0229,175.792,200.2338,159.9247,201.6603,142.4425,202.3438,127.2597,203.0445,106.6671,201.9423,93.5264,201.8197,76.5311,200.0861,60.1787,197.6938,48.7206,195.56,37.2081,192.5708,28.5949,189.3953,21.4645,185.7483,17.3111,182.0139,14.9706,178.0015,16.0604,174.1578,20.0145,170.4573,27.765,167.2205,36.0633,163.8453,46.4387,160.8014,63.5179,159.2526,73.9936,156.363,92.5598,155.5384,106.7245,154.115,126.6912,154.4813,142.4434,154.504,156.6667,154.868,174.6981,156.8327,188.781,158.7188,201.0626,161.0362,211.9044,163.8759,222.0243,167.3875,227.7022,170.7105,234.1694,174.9609,233.0252,178.1961" style="stroke:#333333;stroke-width:2.0833333333333335;fill:none;"/><text fill="#2E2E2E" font-family="&quot;Segoe Print&quot;" font-size="14.5833" lengthAdjust="spacing" textLength="137.5" x="56.5077" y="181.3451">Use the application</text><!--MD5=[97ab183161fd5d1db7fba7485cf76add]
entity Admin--><polygon points="384.4671,32.1739,382.024,35.512,379.1344,40.4013,375.0017,43.6963,370.6589,45.4981,367.1962,45.6545,362.7457,43.401,358.5465,41.9289,355.3591,38.9399,353.6872,35.5181,352.6957,32.7935,351.7244,29.2346,350.1477,26.1721,351.3593,23.182,352.4208,19.9066,356.4042,17.3161,359.2068,13.9549,362.6756,12.8388,366.7994,11.8776,372.0877,12.4486,374.9842,13.8147,378.3518,14.4338,382.4465,18.629,383.8739,23.0577,384.4941,26.0795,383.7916,31.0591" style="stroke:#333333;stroke-width:1.5625;fill:none;"/><path d="M367.7083,48.9532 L367.7083,48.9532 L367.7416,49.0447 L369.9344,47.9396 L372.3222,47.3707 L374.6466,46.6271 L376.7621,45.3095 L379.1667,44.7866 L379.1667,44.7866 L379.1518,44.7538 L381.3766,45.6485 L383.6765,46.7083 L386.0286,47.8829 L388.2009,48.6619 L390.625,49.9949 L390.8583,50.101 L391.401,52.1658 L392.625,54.5404 L393.9321,56.9527 L394.7555,59.1451 L395.8333,61.4532 L395.8965,61.4532 L395.8038,62.2866 L395.9986,63.1199 L396.0548,63.9532 L396.3756,64.7866 L395.8333,65.6199 L395.8333,65.6199 L396.053,65.8396 L394.389,67.5089 L392.5834,69.0366 L390.9851,70.7717 L389.3966,72.5165 L387.5,73.9532 L387.5,73.2855 L379.5833,74.5815 L371.6667,73.6787 L363.75,74.4475 L355.8333,73.4949 L347.9167,73.9532 L347.9167,73.9532 L347.8942,73.9308 L346.4928,72.5294 L344.5674,70.604 L342.9511,68.9877 L341.3609,67.3974 L339.5833,65.6199 L339.9687,65.6199 L339.5797,64.7866 L339.8493,63.9532 L339.0533,63.1199 L339.8467,62.2866 L339.5833,61.4532 L339.5833,61.4532 L339.8144,61.5583 L340.8124,59.2467 L341.925,56.9874 L342.5047,54.4857 L343.4751,52.1616 L344.7917,49.9949 L344.6726,49.733 L347.0721,48.9284 L349.3373,47.8288 L351.7972,47.1571 L353.9249,45.7546 L356.25,44.7866 L356.25,44.7866 L356.1957,44.6373 L358.5778,45.7192 L360.7278,46.1631 L363.0429,47.0607 L365.5193,48.4023 L367.7083,48.9532 " style="stroke:#333333;stroke-width:1.5625;fill:none;"/><text fill="#2E2E2E" font-family="&quot;Segoe Print&quot;" font-size="14.5833" lengthAdjust="spacing" textLength="82.2917" x="326.5625" y="94.2607">Main Admin</text><polygon points="480.6617,181.9589,478.363,186.2765,469.5894,189.5616,459.5225,192.8346,451.2119,196.636,435.5324,198.8034,421.2082,201.1324,404.3957,202.6351,385.8721,203.3552,369.785,204.0932,347.9657,202.9321,334.0422,202.803,316.0346,200.9768,298.7081,198.4567,286.5675,196.209,274.3692,193.0601,265.2429,189.7149,257.6878,185.8731,253.287,181.9392,250.8071,177.7125,251.9618,173.6635,256.1514,169.7653,264.3636,166.3556,273.1562,162.8001,284.1497,159.5936,302.2462,157.9621,313.3459,154.9181,333.0181,154.0494,348.0265,152.55,369.1825,152.9359,385.8731,152.9598,400.9436,153.3432,420.0491,155.4129,434.9709,157.3998,447.984,159.841,459.4717,162.8323,470.1944,166.5315,476.2105,170.032,483.0629,174.5095,481.8506,177.9175" style="stroke:#333333;stroke-width:2.0833333333333335;fill:none;"/><text fill="#2E2E2E" font-family="&quot;Segoe Print&quot;" font-size="14.5833" lengthAdjust="spacing" textLength="154.1667" x="290.5803" y="181.0763">Admin the application</text><path d="M125,102.9164 L125.2919,102.9164 L124.4246,113.1373 L125.2685,123.3583 L125.5551,133.5792 L124.0092,143.8002 L125,154.0211 " fill="none" style="stroke:#333333;stroke-width:3.125;"/><polygon fill="#333333" points="125,154.0211,125.0667,154.0507,125.7019,152.0877,126.728,150.2984,127.6268,148.4525,128.107,146.4205,129.1667,144.6461,129.1476,144.627,128.2286,145.3747,127.4058,146.2186,126.6499,147.1294,125.6636,147.8097,125,148.8128,125.1359,148.9487,124.0119,147.8247,123.2848,147.0975,122.6061,146.4188,121.6456,145.4584,120.8333,144.6461,120.855,144.6557,121.6565,146.5166,122.5566,148.4213,123.4092,150.3048,124.3525,152.2287,125,154.0211" style="stroke:#333333;stroke-width:1.0416666666666667;"/><path d="M367.7083,102.9164 L368.0003,102.9164 L367.1329,112.8043 L367.9768,122.6923 L368.2634,132.5802 L366.7175,142.4682 L367.7083,152.3561 " fill="none" style="stroke:#333333;stroke-width:3.125;"/><polygon fill="#333333" points="367.7083,152.3561,367.775,152.3857,368.4102,150.4227,369.4363,148.6333,370.3351,146.7875,370.8153,144.7555,371.875,142.9811,371.8559,142.962,370.937,143.7097,370.1142,144.5536,369.3583,145.4644,368.3719,146.1447,367.7083,147.1478,367.8443,147.2837,366.7203,146.1597,365.9931,145.4325,365.3144,144.7538,364.3539,143.7934,363.5417,142.9811,363.5633,142.9907,364.3649,144.8516,365.265,146.7563,366.1175,148.6398,367.0608,150.5637,367.7083,152.3561" style="stroke:#333333;stroke-width:1.0416666666666667;"/></g></svg>