<?xml version="1.0" encoding="UTF-8" standalone="no"?><svg xmlns="http://www.w3.org/2000/svg" xmlns:xlink="http://www.w3.org/1999/xlink" contentStyleType="text/css" height="167px" preserveAspectRatio="none" style="width:387px;height:167px;background:#FFFFFF;" version="1.1" viewBox="0 0 387 167" width="387px" zoomAndPan="magnify"><defs/><g><!--entity User--><g id="elem_User"><ellipse cx="91.5" cy="21.9951" fill="#454645" rx="16" ry="16" style="stroke:#454645;stroke-width:1.5;"/><path d="M91.5,41.9951 C95.5,41.9951 98.5,41.9951 102.5,37.9951 C110.5,37.9951 118.5,45.9951 118.5,53.9951 L118.5,57.9951 C118.5,61.9951 114.5,65.9951 110.5,65.9951 L72.5,65.9951 C68.5,65.9951 64.5,61.9951 64.5,57.9951 L64.5,53.9951 C64.5,45.9951 72.5,37.9951 80.5,37.9951 C84.5,41.9951 87.5,41.9951 91.5,41.9951 " fill="#454645" style="stroke:#454645;stroke-width:1.5;"/><text fill="#454645" font-family="sans-serif" font-size="14" lengthAdjust="spacing" textLength="32" x="75.5" y="80.4902">User</text></g><g id="elem_Use"><ellipse cx="91.728" cy="140.5407" fill="#F1F1F1" rx="85.728" ry="19.5456" style="stroke:#181818;stroke-width:0.5;"/><text fill="#000000" font-family="sans-serif" font-size="14" lengthAdjust="spacing" textLength="132" x="25.728" y="143.3874">Use the application</text></g><!--entity Admin--><g id="elem_Admin"><ellipse cx="288.5" cy="21.9951" fill="#454645" rx="16" ry="16" style="stroke:#454645;stroke-width:1.5;"/><path d="M288.5,41.9951 C292.5,41.9951 295.5,41.9951 299.5,37.9951 C307.5,37.9951 315.5,45.9951 315.5,53.9951 L315.5,57.9951 C315.5,61.9951 311.5,65.9951 307.5,65.9951 L269.5,65.9951 C265.5,65.9951 261.5,61.9951 261.5,57.9951 L261.5,53.9951 C261.5,45.9951 269.5,37.9951 277.5,37.9951 C281.5,41.9951 284.5,41.9951 288.5,41.9951 " fill="#454645" style="stroke:#454645;stroke-width:1.5;"/><text fill="#454645" font-family="sans-serif" font-size="14" lengthAdjust="spacing" textLength="79" x="249" y="80.4902">Main Admin</text></g><g id="elem_Admin the application"><ellipse cx="288.2771" cy="140.4505" fill="#F1F1F1" rx="92.7771" ry="20.9554" style="stroke:#181818;stroke-width:0.5;"/><text fill="#000000" font-family="sans-serif" font-size="14" lengthAdjust="spacing" textLength="148" x="214.2771" y="143.2972">Admin the application</text></g><path d="M91.5,83.7045 C91.5,96.5494 91.5,110.2653 91.5,120.8831 " fill="none" style="stroke:#454645;stroke-width:1.0;"/><polygon fill="#454645" points="91.5,120.8831,95.5,111.8831,91.5,115.8831,87.5,111.8831,91.5,120.8831" style="stroke:#454645;stroke-width:1.0;"/><path d="M288.5,83.7045 C288.5,95.9377 288.5,108.961 288.5,119.3456 " fill="none" style="stroke:#454645;stroke-width:1.0;"/><polygon fill="#454645" points="288.5,119.3456,292.5,110.3456,288.5,114.3456,284.5,110.3456,288.5,119.3456" style="stroke:#454645;stroke-width:1.0;"/></g></svg>