<?xml version="1.0" encoding="us-ascii" standalone="no"?><svg xmlns="http://www.w3.org/2000/svg" xmlns:xlink="http://www.w3.org/1999/xlink" contentStyleType="text/css" height="222px" preserveAspectRatio="none" style="width:244px;height:222px;background:#FFFFFF;" version="1.1" viewBox="0 0 244 222" width="244px" zoomAndPan="magnify"><defs/><g><line style="stroke:#181818;stroke-width:1.5;" x1="47" x2="47" y1="63.9688" y2="83.9688"/><rect fill="#F1F1F1" height="33.9688" style="stroke:#181818;stroke-width:1.5;" width="74" x="10" y="83.9688"/><text fill="#000000" font-family="sans-serif" font-size="12" lengthAdjust="spacing" textLength="50" x="20" y="105.1074">America</text><line style="stroke:#181818;stroke-width:1.5;" x1="47" x2="57" y1="140.9219" y2="140.9219"/><text fill="#000000" font-family="sans-serif" font-size="12" lengthAdjust="spacing" textLength="48" x="57" y="145.0762">Canada</text><line style="stroke:#181818;stroke-width:1.5;" x1="47" x2="57" y1="171.8906" y2="171.8906"/><text fill="#000000" font-family="sans-serif" font-size="12" lengthAdjust="spacing" textLength="42" x="57" y="176.0449">Mexico</text><line style="stroke:#181818;stroke-width:1.5;" x1="47" x2="57" y1="202.8594" y2="202.8594"/><text fill="#000000" font-family="sans-serif" font-size="12" lengthAdjust="spacing" textLength="25" x="57" y="207.0137">USA</text><line style="stroke:#181818;stroke-width:1.5;" x1="47" x2="47" y1="117.9375" y2="202.8594"/><line style="stroke:#181818;stroke-width:1.5;" x1="164.5" x2="164.5" y1="63.9688" y2="83.9688"/><rect fill="#F1F1F1" height="33.9688" style="stroke:#181818;stroke-width:1.5;" width="65" x="132" y="83.9688"/><text fill="#000000" font-family="sans-serif" font-size="12" lengthAdjust="spacing" textLength="45" x="142" y="105.1074">Europe</text><line style="stroke:#181818;stroke-width:1.5;" x1="164.5" x2="174.5" y1="140.9219" y2="140.9219"/><text fill="#000000" font-family="sans-serif" font-size="12" lengthAdjust="spacing" textLength="51" x="174.5" y="145.0762">England</text><line style="stroke:#181818;stroke-width:1.5;" x1="164.5" x2="174.5" y1="171.8906" y2="171.8906"/><text fill="#000000" font-family="sans-serif" font-size="12" lengthAdjust="spacing" textLength="55" x="174.5" y="176.0449">Germany</text><line style="stroke:#181818;stroke-width:1.5;" x1="164.5" x2="174.5" y1="202.8594" y2="202.8594"/><text fill="#000000" font-family="sans-serif" font-size="12" lengthAdjust="spacing" textLength="35" x="174.5" y="207.0137">Spain</text><line style="stroke:#181818;stroke-width:1.5;" x1="164.5" x2="164.5" y1="117.9375" y2="202.8594"/><line style="stroke:#181818;stroke-width:1.5;" x1="47" x2="164.5" y1="63.9688" y2="63.9688"/><rect fill="#F1F1F1" height="33.9688" style="stroke:#181818;stroke-width:1.5;" width="55" x="78.25" y="10"/><text fill="#000000" font-family="sans-serif" font-size="12" lengthAdjust="spacing" textLength="35" x="88.25" y="31.1387">World</text><line style="stroke:#181818;stroke-width:1.5;" x1="105.75" x2="105.75" y1="43.9688" y2="63.9688"/></g></svg>