<svg xmlns="http://www.w3.org/2000/svg" xmlns:xlink="http://www.w3.org/1999/xlink" contentStyleType="text/css" height="298.9583px" preserveAspectRatio="none" style="width:302px;height:298px;" version="1.1" viewBox="0 0 302 298" width="302.0833px" zoomAndPan="magnify"><defs/><g><line style="stroke:#E2E2E2;stroke-width:3.125;" x1="53.8096" x2="53.8096" y1="77.0508" y2="97.8841"/><rect fill="none" height="45.8008" rx="7.8125" ry="7.8125" style="stroke:#F3F3F3;stroke-width:1.0416666666666667;" width="86.7859" x="10.4167" y="97.8841"/><text fill="#336699" font-family="Verdana" font-size="12.5" lengthAdjust="spacing" textLength="51.5625" x="26.0417" y="125.1119">America</text><line style="stroke:#E2E2E2;stroke-width:3.125;" x1="53.8096" x2="64.2263" y1="172.8353" y2="172.8353"/><text fill="#336699" font-family="Verdana" font-size="12.5" lengthAdjust="spacing" textLength="47.5647" x="74.6429" y="177.1627">Canada</text><line style="stroke:#E2E2E2;stroke-width:3.125;" x1="53.8096" x2="64.2263" y1="220.7194" y2="220.7194"/><text fill="#336699" font-family="Verdana" font-size="12.5" lengthAdjust="spacing" textLength="43.866" x="74.6429" y="225.0468">Mexico</text><line style="stroke:#E2E2E2;stroke-width:3.125;" x1="53.8096" x2="64.2263" y1="268.6035" y2="268.6035"/><text fill="#336699" font-family="Verdana" font-size="12.5" lengthAdjust="spacing" textLength="25.6348" x="74.6429" y="272.9309">USA</text><line style="stroke:#E2E2E2;stroke-width:3.125;" x1="53.8096" x2="53.8096" y1="143.6849" y2="268.6035"/><line style="stroke:#E2E2E2;stroke-width:3.125;" x1="198.2971" x2="198.2971" y1="77.0508" y2="97.8841"/><rect fill="none" height="45.8008" rx="7.8125" ry="7.8125" style="stroke:#F3F3F3;stroke-width:1.0416666666666667;" width="75.4822" x="160.556" y="97.8841"/><text fill="#336699" font-family="Verdana" font-size="12.5" lengthAdjust="spacing" textLength="44.2322" x="176.181" y="125.1119">Europe</text><line style="stroke:#E2E2E2;stroke-width:3.125;" x1="198.2971" x2="208.7138" y1="172.8353" y2="172.8353"/><text fill="#336699" font-family="Verdana" font-size="12.5" lengthAdjust="spacing" textLength="50.7446" x="219.1305" y="177.1627">England</text><line style="stroke:#E2E2E2;stroke-width:3.125;" x1="198.2971" x2="208.7138" y1="220.7194" y2="220.7194"/><text fill="#336699" font-family="Verdana" font-size="12.5" lengthAdjust="spacing" textLength="57.6721" x="219.1305" y="225.0468">Germany</text><line style="stroke:#E2E2E2;stroke-width:3.125;" x1="198.2971" x2="208.7138" y1="268.6035" y2="268.6035"/><text fill="#336699" font-family="Verdana" font-size="12.5" lengthAdjust="spacing" textLength="34.9243" x="219.1305" y="272.9309">Spain</text><line style="stroke:#E2E2E2;stroke-width:3.125;" x1="198.2971" x2="198.2971" y1="143.6849" y2="268.6035"/><line style="stroke:#E2E2E2;stroke-width:3.125;" x1="53.8096" x2="198.2971" y1="77.0508" y2="77.0508"/><rect fill="none" height="45.8008" rx="7.8125" ry="7.8125" style="stroke:#F3F3F3;stroke-width:1.0416666666666667;" width="67.804" x="92.1514" y="10.4167"/><text fill="#336699" font-family="Verdana" font-size="12.5" lengthAdjust="spacing" textLength="36.554" x="107.7764" y="37.6444">World</text><line style="stroke:#E2E2E2;stroke-width:3.125;" x1="126.0534" x2="126.0534" y1="56.2174" y2="77.0508"/></g></svg>