<?xml version="1.0" encoding="us-ascii" standalone="no"?><svg xmlns="http://www.w3.org/2000/svg" xmlns:xlink="http://www.w3.org/1999/xlink" contentStyleType="text/css" height="241px" preserveAspectRatio="none" style="width:301px;height:241px;background:#777777;" version="1.1" viewBox="0 0 301 241" width="301px" zoomAndPan="magnify"><defs/><g><rect fill="#777777" height="241" style="stroke:none;stroke-width:1.0;" width="301" x="0" y="0"/><rect fill="none" height="200" style="stroke:#000000;stroke-width:1.0;" width="100" x="20" y="30"/><text fill="#000000" font-family="sans-serif" font-size="12" lengthAdjust="spacing" textLength="36" x="25" y="41.1387">BOX 1</text><rect fill="none" height="175" style="stroke:#000000;stroke-width:1.0;" width="50" x="240" y="30"/><text fill="#000000" font-family="sans-serif" font-size="12" lengthAdjust="spacing" textLength="36" x="245" y="41.1387">BOX 2</text><text fill="#000000" font-family="sans-serif" font-size="12" lengthAdjust="spacing" textLength="4" x="15" y="21.1387">&#160;</text><path d="M238,35 L233,30 L233,40 L238,35 " fill="#000000" style="stroke:#000000;stroke-width:1.0;"/><line style="stroke:#000000;stroke-width:1.0;" x1="121" x2="239" y1="35" y2="35"/><rect fill="#FFFFFF" height="11.6406" style="stroke:#FFFFFF;stroke-width:1.0;" width="23" x="124" y="29.1797"/><text fill="#000000" font-family="sans-serif" font-size="10" lengthAdjust="spacing" textLength="23" x="124" y="38.4619">abcd</text><path d="M238,50 L233,45 L233,55 L238,50 " fill="#000000" style="stroke:#000000;stroke-width:1.0;"/><path d="M121,50 L126,45 L126,55 L121,50 " fill="#000000" style="stroke:#000000;stroke-width:1.0;"/><line style="stroke:#000000;stroke-width:1.0;" x1="121" x2="239" y1="50" y2="50"/><rect fill="#FFFFFF" height="11.6406" style="stroke:#FFFFFF;stroke-width:1.0;" width="23" x="168.5" y="44.1797"/><text fill="#000000" font-family="sans-serif" font-size="10" lengthAdjust="spacing" textLength="23" x="168.5" y="53.4619">abcd</text><path d="M121,65 L126,60 L126,70 L121,65 " fill="#000000" style="stroke:#000000;stroke-width:1.0;"/><line style="stroke:#000000;stroke-width:1.0;" x1="121" x2="239" y1="65" y2="65"/><rect fill="#FFFFFF" height="11.6406" style="stroke:#FFFFFF;stroke-width:1.0;" width="23" x="213" y="59.1797"/><text fill="#000000" font-family="sans-serif" font-size="10" lengthAdjust="spacing" textLength="23" x="213" y="68.4619">abcd</text><line style="stroke:#000000;stroke-width:1.0;" x1="121" x2="239" y1="80" y2="80"/><rect fill="#FFFFFF" height="11.6406" style="stroke:#FFFFFF;stroke-width:1.0;" width="23" x="168.5" y="74.1797"/><text fill="#000000" font-family="sans-serif" font-size="10" lengthAdjust="spacing" textLength="23" x="168.5" y="83.4619">abcd</text><path d="M121,95 L224,95 L224,90 L239,100 L224,110 L224,105 L121,105 L121,95 " fill="#FFFFFF" style="stroke:#000000;stroke-width:1.0;"/><text fill="#000000" font-family="sans-serif" font-size="10" lengthAdjust="spacing" textLength="23" x="124" y="103.4619">abcd</text><path d="M121,125 L136,115 L136,120 L224,120 L224,115 L239,125 L224,135 L224,130 L136,130 L136,135 L121,125 " fill="#FFFFFF" style="stroke:#FF0000;stroke-width:1.0;"/><text fill="#FF0000" font-family="sans-serif" font-size="10" lengthAdjust="spacing" textLength="23" x="168.5" y="128.4619">abcd</text><path d="M121,150 L136,140 L136,145 L239,145 L239,155 L136,155 L136,160 L121,150 " fill="#FFFFFF" style="stroke:#000000;stroke-width:1.0;"/><text fill="#000000" font-family="sans-serif" font-size="10" lengthAdjust="spacing" textLength="23" x="213" y="153.4619">abcd</text><path d="M121,170 L239,170 L239,180 L121,180 L121,170 " fill="#FFFFFF" style="stroke:#000000;stroke-width:1.0;"/><text fill="#000000" font-family="sans-serif" font-size="10" lengthAdjust="spacing" textLength="23" x="168.5" y="178.4619">abcd</text></g></svg>