<?xml version="1.0" encoding="us-ascii" standalone="no"?><svg xmlns="http://www.w3.org/2000/svg" xmlns:xlink="http://www.w3.org/1999/xlink" contentStyleType="text/css" height="92px" preserveAspectRatio="none" style="width:211px;height:92px;background:#FFFFFF;" version="1.1" viewBox="0 0 211 92" width="211px" zoomAndPan="magnify"><defs><linearGradient id="g1kt67etu07oy10" x1="50%" x2="50%" y1="0%" y2="100%"><stop offset="0%" stop-color="#446E9B"/><stop offset="100%" stop-color="#304D6D"/></linearGradient></defs><g><rect fill="url(#g1kt67etu07oy10)" height="60.8906" rx="10" ry="10" style="stroke:url(#g1kt67etu07oy10);stroke-width:1.0;" width="99" x="10" y="10"/><text fill="#FFFFFF" font-family="sans-serif" font-size="14" font-weight="bold" lengthAdjust="spacing" textLength="33" x="15" y="24.9951">fruit</text><text fill="#FFFFFF" font-family="sans-serif" font-size="14" lengthAdjust="spacing" textLength="39" x="65" y="24.9951">Apple</text><line style="stroke:#304D6D;stroke-width:1.0;" x1="60" x2="60" y1="10" y2="30.2969"/><line style="stroke:#304D6D;stroke-width:1.0;" x1="10" x2="109" y1="30.2969" y2="30.2969"/><text fill="#FFFFFF" font-family="sans-serif" font-size="14" font-weight="bold" lengthAdjust="spacing" textLength="32" x="15" y="45.292">size</text><text fill="#FFFFFF" font-family="sans-serif" font-size="14" lengthAdjust="spacing" textLength="38" x="65" y="45.292">Large</text><line style="stroke:#304D6D;stroke-width:1.0;" x1="60" x2="60" y1="30.2969" y2="50.5938"/><line style="stroke:#304D6D;stroke-width:1.0;" x1="10" x2="109" y1="50.5938" y2="50.5938"/><text fill="#FFFFFF" font-family="sans-serif" font-size="14" font-weight="bold" lengthAdjust="spacing" textLength="40" x="15" y="65.5889">color</text><text fill="#FFFFFF" font-family="sans-serif" font-size="14" lengthAdjust="spacing" textLength="12" x="65" y="65.5889">&#160;&#160;&#160;</text><line style="stroke:#304D6D;stroke-width:1.0;" x1="60" x2="60" y1="50.5938" y2="70.8906"/><rect fill="none" height="60.8906" rx="10" ry="10" style="stroke:#304D6D;stroke-width:1.0;" width="99" x="10" y="10"/><rect fill="url(#g1kt67etu07oy10)" height="40.5938" rx="10" ry="10" style="stroke:url(#g1kt67etu07oy10);stroke-width:1.0;" width="53" x="146" y="40"/><rect fill="url(#g1kt67etu07oy10)" height="20.2969" rx="2" ry="2" style="stroke:url(#g1kt67etu07oy10);stroke-width:1.0;" width="51" x="147.5" y="40"/><text fill="#FFFFFF" font-family="sans-serif" font-size="14" lengthAdjust="spacing" textLength="28" x="151" y="54.9951">Red</text><line style="stroke:#304D6D;stroke-width:1.0;" x1="146" x2="199" y1="60.2969" y2="60.2969"/><text fill="#FFFFFF" font-family="sans-serif" font-size="14" lengthAdjust="spacing" textLength="43" x="151" y="75.292">Green</text><rect fill="none" height="40.5938" rx="10" ry="10" style="stroke:#304D6D;stroke-width:1.0;" width="53" x="146" y="40"/><path d="M97,60.5 L110,60.5 C119.3343,60.5 129.4591,60.5 138.7677,60.5 " fill="none" style="stroke:#304D6D;stroke-width:1.0;stroke-dasharray:3.0,3.0;"/><path d="M138.7677,63.5368 L141.0454,60.5 L138.7677,57.4632 L146.3598,60.5 L138.7677,63.5368 " fill="#304D6D" style="stroke:#304D6D;stroke-width:1.0;"/><ellipse cx="97" cy="60.5" fill="#304D6D" rx="3" ry="3" style="stroke:#304D6D;stroke-width:1.0;"/></g></svg>