<svg xmlns="http://www.w3.org/2000/svg" xmlns:xlink="http://www.w3.org/1999/xlink" contentStyleType="text/css" height="360.4167px" preserveAspectRatio="none" style="width:558px;height:360px;" version="1.1" viewBox="0 0 558 360" width="558.3333px" zoomAndPan="magnify"><defs><linearGradient id="gmb5no3lhur8k0" x1="50%" x2="50%" y1="0%" y2="100%"><stop offset="0%" stop-color="#F18E3E"/><stop offset="100%" stop-color="#EC7211"/></linearGradient></defs><g><!--class abstract--><g id="elem_abstract"><rect codeLine="6" fill="url(#gmb5no3lhur8k0)" height="50.8382" id="abstract" rx="4.1667" ry="4.1667" style="stroke:#EC7211;stroke-width:1.0416666666666667;" width="88.9491" x="13.5417" y="12.5"/><rect fill="url(#gmb5no3lhur8k0)" height="34.1715" rx="4.1667" ry="4.1667" style="stroke:url(#gmb5no3lhur8k0);stroke-width:1.0416666666666667;" width="88.9491" x="13.5417" y="12.5"/><rect fill="url(#gmb5no3lhur8k0)" height="4.1667" style="stroke:url(#gmb5no3lhur8k0);stroke-width:1.0416666666666667;" width="88.9491" x="13.5417" y="42.5049"/><rect codeLine="6" fill="none" height="50.8382" id="abstract" rx="4.1667" ry="4.1667" style="stroke:#EC7211;stroke-width:1.0416666666666667;" width="88.9491" x="13.5417" y="12.5"/><ellipse cx="28.125" cy="29.5858" fill="#A9DCDF" rx="10.4167" ry="10.4167" style="stroke:#181818;stroke-width:1.0416666666666667;"/><path d="M27.7181,26.5422 L26.8717,30.2694 L28.5807,30.2694 L27.7181,26.5422 Z M26.6276,24.8983 L28.8249,24.8983 L31.2826,34.0129 L29.4759,34.0129 L28.9225,31.7668 L26.5137,31.7668 L25.9603,34.0129 L24.1536,34.0129 L26.6276,24.8983 Z " fill="#000000"/><text fill="#FFFFFF" font-family="Verdana" font-size="11.4583" font-style="italic" lengthAdjust="spacing" textLength="47.2824" x="46.875" y="33.5526">abstract</text><line style="stroke:#EC7211;stroke-width:1.0416666666666667;" x1="14.5833" x2="101.4491" y1="46.6715" y2="46.6715"/><line style="stroke:#EC7211;stroke-width:1.0416666666666667;" x1="14.5833" x2="101.4491" y1="55.0049" y2="55.0049"/></g><!--class abstract class--><g id="elem_abstract class"><rect codeLine="7" fill="url(#gmb5no3lhur8k0)" height="50.8382" id="abstract class" rx="4.1667" ry="4.1667" style="stroke:#EC7211;stroke-width:1.0416666666666667;" width="121.0358" x="121.3542" y="12.5"/><rect fill="url(#gmb5no3lhur8k0)" height="34.1715" rx="4.1667" ry="4.1667" style="stroke:url(#gmb5no3lhur8k0);stroke-width:1.0416666666666667;" width="121.0358" x="121.3542" y="12.5"/><rect fill="url(#gmb5no3lhur8k0)" height="4.1667" style="stroke:url(#gmb5no3lhur8k0);stroke-width:1.0416666666666667;" width="121.0358" x="121.3542" y="42.5049"/><rect codeLine="7" fill="none" height="50.8382" id="abstract class" rx="4.1667" ry="4.1667" style="stroke:#EC7211;stroke-width:1.0416666666666667;" width="121.0358" x="121.3542" y="12.5"/><ellipse cx="135.9375" cy="29.5858" fill="#A9DCDF" rx="10.4167" ry="10.4167" style="stroke:#181818;stroke-width:1.0416666666666667;"/><path d="M135.5306,26.5422 L134.6842,30.2694 L136.3932,30.2694 L135.5306,26.5422 Z M134.4401,24.8983 L136.6374,24.8983 L139.0951,34.0129 L137.2884,34.0129 L136.735,31.7668 L134.3262,31.7668 L133.7728,34.0129 L131.9661,34.0129 L134.4401,24.8983 Z " fill="#000000"/><text fill="#FFFFFF" font-family="Verdana" font-size="11.4583" font-style="italic" lengthAdjust="spacing" textLength="79.3691" x="154.6875" y="33.5526">abstract class</text><line style="stroke:#EC7211;stroke-width:1.0416666666666667;" x1="122.3958" x2="241.3483" y1="46.6715" y2="46.6715"/><line style="stroke:#EC7211;stroke-width:1.0416666666666667;" x1="122.3958" x2="241.3483" y1="55.0049" y2="55.0049"/></g><!--class annotation--><g id="elem_annotation"><rect codeLine="8" fill="url(#gmb5no3lhur8k0)" height="50.8382" id="annotation" rx="4.1667" ry="4.1667" style="stroke:#EC7211;stroke-width:1.0416666666666667;" width="103.686" x="260.9375" y="12.5"/><rect fill="url(#gmb5no3lhur8k0)" height="34.1715" rx="4.1667" ry="4.1667" style="stroke:url(#gmb5no3lhur8k0);stroke-width:1.0416666666666667;" width="103.686" x="260.9375" y="12.5"/><rect fill="url(#gmb5no3lhur8k0)" height="4.1667" style="stroke:url(#gmb5no3lhur8k0);stroke-width:1.0416666666666667;" width="103.686" x="260.9375" y="42.5049"/><rect codeLine="8" fill="none" height="50.8382" id="annotation" rx="4.1667" ry="4.1667" style="stroke:#EC7211;stroke-width:1.0416666666666667;" width="103.686" x="260.9375" y="12.5"/><ellipse cx="275.5208" cy="29.5858" fill="#E3664A" rx="10.4167" ry="10.4167" style="stroke:#181818;stroke-width:1.0416666666666667;"/><path d="M276.7741,29.3905 Q276.7741,28.6906 276.4648,28.3 Q276.1556,27.9093 275.6022,27.9093 Q275.0651,27.9093 274.7559,28.3 Q274.4466,28.6906 274.4466,29.3905 Q274.4466,30.0741 274.7559,30.4647 Q275.0651,30.8553 275.6022,30.8553 Q276.1556,30.8553 276.4648,30.4647 Q276.7741,30.0741 276.7741,29.3905 Z M277.9134,31.8807 L276.709,31.8807 L276.709,31.3924 Q276.4811,31.7017 276.1556,31.8644 Q275.8464,32.0109 275.4069,32.0109 Q274.4141,32.0109 273.7956,31.2948 Q273.1771,30.5623 273.1771,29.3905 Q273.1771,28.2023 273.7793,27.4862 Q274.3978,26.77 275.4069,26.77 Q275.8464,26.77 276.1719,26.9165 Q276.4974,27.063 276.709,27.356 L276.709,27.1118 Q276.709,26.2817 276.2533,25.826 Q275.7975,25.3703 274.9674,25.3703 Q273.6979,25.3703 272.8841,26.4933 Q272.0866,27.6001 272.0866,29.3905 Q272.0866,31.2622 273.0143,32.3853 Q273.9421,33.492 275.4883,33.492 Q275.9766,33.492 276.4323,33.3455 Q276.888,33.1991 277.3112,32.9061 L277.8646,33.9803 Q277.3763,34.3221 276.7904,34.4849 Q276.2044,34.6639 275.5534,34.6639 Q273.4049,34.6639 272.1354,33.2316 Q270.8659,31.8156 270.8659,29.3905 Q270.8659,27.0304 272.0052,25.6144 Q273.1608,24.1984 275.0326,24.1984 Q276.3672,24.1984 277.1322,24.9959 Q277.9134,25.7935 277.9134,27.1932 L277.9134,31.8807 Z " fill="#000000"/><text fill="#FFFFFF" font-family="Verdana" font-size="11.4583" lengthAdjust="spacing" textLength="62.0193" x="294.2708" y="33.5526">annotation</text><line style="stroke:#EC7211;stroke-width:1.0416666666666667;" x1="261.9792" x2="363.5818" y1="46.6715" y2="46.6715"/><line style="stroke:#EC7211;stroke-width:1.0416666666666667;" x1="261.9792" x2="363.5818" y1="55.0049" y2="55.0049"/></g><!--entity circle--><g id="elem_circle"><ellipse cx="393.2292" cy="34.8958" fill="#A7280E" rx="8.3333" ry="8.3333" style="stroke:#D13212;stroke-width:1.0416666666666667;"/><text fill="#4E5D6C" font-family="Verdana" font-size="12.5" lengthAdjust="spacing" textLength="33.5205" x="376.4689" y="69.4153">circle</text></g><!--entity circle_short_form--><g id="elem_circle_short_form"><ellipse cx="430.7292" cy="34.8958" fill="#A7280E" rx="8.3333" ry="8.3333" style="stroke:#D13212;stroke-width:1.0416666666666667;"/><text fill="#4E5D6C" font-family="Verdana" font-size="12.5" lengthAdjust="spacing" textLength="107.5073" x="376.9755" y="69.4153">circle_short_form</text></g><!--class class--><g id="elem_class"><rect codeLine="11" fill="url(#gmb5no3lhur8k0)" height="50.8382" id="class" rx="4.1667" ry="4.1667" style="stroke:#EC7211;stroke-width:1.0416666666666667;" width="70.1111" x="22.9167" y="113.5417"/><rect fill="url(#gmb5no3lhur8k0)" height="34.1715" rx="4.1667" ry="4.1667" style="stroke:url(#gmb5no3lhur8k0);stroke-width:1.0416666666666667;" width="70.1111" x="22.9167" y="113.5417"/><rect fill="url(#gmb5no3lhur8k0)" height="4.1667" style="stroke:url(#gmb5no3lhur8k0);stroke-width:1.0416666666666667;" width="70.1111" x="22.9167" y="143.5465"/><rect codeLine="11" fill="none" height="50.8382" id="class" rx="4.1667" ry="4.1667" style="stroke:#EC7211;stroke-width:1.0416666666666667;" width="70.1111" x="22.9167" y="113.5417"/><ellipse cx="37.5" cy="130.6274" fill="#ADD1B2" rx="10.4167" ry="10.4167" style="stroke:#181818;stroke-width:1.0416666666666667;"/><path d="M39.4043,135.0545 Q38.9811,135.2661 38.5091,135.38 Q38.0371,135.494 37.5326,135.494 Q35.6771,135.494 34.7005,134.2896 Q33.7402,133.0688 33.7402,130.7739 Q33.7402,128.4627 34.7005,127.2583 Q35.6771,126.0376 37.5326,126.0376 Q38.0371,126.0376 38.5091,126.1515 Q38.9974,126.2492 39.4043,126.4771 L39.4043,128.479 Q38.9486,128.0558 38.5091,127.8605 Q38.0697,127.6489 37.6139,127.6489 Q36.6211,127.6489 36.1165,128.4465 Q35.612,129.2277 35.612,130.7739 Q35.612,132.3039 36.1165,133.0851 Q36.6211,133.8664 37.6139,133.8664 Q38.0697,133.8664 38.5091,133.6711 Q38.9486,133.4757 39.4043,133.0526 L39.4043,135.0545 Z " fill="#000000"/><text fill="#FFFFFF" font-family="Verdana" font-size="11.4583" lengthAdjust="spacing" textLength="28.4444" x="56.25" y="134.5942">class</text><line style="stroke:#EC7211;stroke-width:1.0416666666666667;" x1="23.9583" x2="91.9861" y1="147.7132" y2="147.7132"/><line style="stroke:#EC7211;stroke-width:1.0416666666666667;" x1="23.9583" x2="91.9861" y1="156.0465" y2="156.0465"/></g><!--class class_stereo--><g id="elem_class_stereo"><rect codeLine="12" fill="url(#gmb5no3lhur8k0)" height="75.8057" id="class_stereo" rx="4.1667" ry="4.1667" style="stroke:#EC7211;stroke-width:1.0416666666666667;" width="120.4346" x="111.9792" y="101.0417"/><rect fill="url(#gmb5no3lhur8k0)" height="59.139" rx="4.1667" ry="4.1667" style="stroke:url(#gmb5no3lhur8k0);stroke-width:1.0416666666666667;" width="120.4346" x="111.9792" y="101.0417"/><rect fill="url(#gmb5no3lhur8k0)" height="4.1667" style="stroke:url(#gmb5no3lhur8k0);stroke-width:1.0416666666666667;" width="120.4346" x="111.9792" y="156.014"/><rect codeLine="12" fill="none" height="75.8057" id="class_stereo" rx="4.1667" ry="4.1667" style="stroke:#EC7211;stroke-width:1.0416666666666667;" width="120.4346" x="111.9792" y="101.0417"/><ellipse cx="126.5625" cy="130.6112" fill="#ADD1B2" rx="10.4167" ry="10.4167" style="stroke:#181818;stroke-width:1.0416666666666667;"/><path d="M128.4668,135.0382 Q128.0436,135.2498 127.5716,135.3638 Q127.0996,135.4777 126.5951,135.4777 Q124.7396,135.4777 123.763,134.2733 Q122.8027,133.0526 122.8027,130.7576 Q122.8027,128.4465 123.763,127.242 Q124.7396,126.0213 126.5951,126.0213 Q127.0996,126.0213 127.5716,126.1353 Q128.0599,126.2329 128.4668,126.4608 L128.4668,128.4627 Q128.0111,128.0396 127.5716,127.8442 Q127.1322,127.6326 126.6764,127.6326 Q125.6836,127.6326 125.179,128.4302 Q124.6745,129.2114 124.6745,130.7576 Q124.6745,132.2876 125.179,133.0688 Q125.6836,133.8501 126.6764,133.8501 Q127.1322,133.8501 127.5716,133.6548 Q128.0111,133.4595 128.4668,133.0363 L128.4668,135.0382 Z " fill="#000000"/><text fill="#4E5D6C" font-family="Verdana" font-size="12.5" font-style="italic" lengthAdjust="spacing" textLength="82.9346" x="143.2292" y="123.0611">&#171;stereotype&#187;</text><text fill="#FFFFFF" font-family="Verdana" font-size="11.4583" lengthAdjust="spacing" textLength="70.4564" x="149.4682" y="147.0617">class_stereo</text><line style="stroke:#EC7211;stroke-width:1.0416666666666667;" x1="113.0208" x2="231.3721" y1="160.1807" y2="160.1807"/><line style="stroke:#EC7211;stroke-width:1.0416666666666667;" x1="113.0208" x2="231.3721" y1="168.514" y2="168.514"/></g><g id="elem_diamond"><polygon fill="#EEEEEE" points="264.0625,126.5625,276.5625,139.0625,264.0625,151.5625,251.5625,139.0625,264.0625,126.5625" style="stroke:#BEBEBE;stroke-width:0.5208333333333334;"/></g><polygon fill="#EEEEEE" points="307.8125,126.5625,320.3125,139.0625,307.8125,151.5625,295.3125,139.0625,307.8125,126.5625" style="stroke:#BEBEBE;stroke-width:0.5208333333333334;"/><!--class entity--><g id="elem_entity"><rect codeLine="15" fill="url(#gmb5no3lhur8k0)" height="50.8382" id="entity" rx="4.1667" ry="4.1667" style="stroke:#EC7211;stroke-width:1.0416666666666667;" width="74.9283" x="339.0625" y="113.5417"/><rect fill="url(#gmb5no3lhur8k0)" height="34.1715" rx="4.1667" ry="4.1667" style="stroke:url(#gmb5no3lhur8k0);stroke-width:1.0416666666666667;" width="74.9283" x="339.0625" y="113.5417"/><rect fill="url(#gmb5no3lhur8k0)" height="4.1667" style="stroke:url(#gmb5no3lhur8k0);stroke-width:1.0416666666666667;" width="74.9283" x="339.0625" y="143.5465"/><rect codeLine="15" fill="none" height="50.8382" id="entity" rx="4.1667" ry="4.1667" style="stroke:#EC7211;stroke-width:1.0416666666666667;" width="74.9283" x="339.0625" y="113.5417"/><ellipse cx="353.6458" cy="130.6274" fill="#ADD1B2" rx="10.4167" ry="10.4167" style="stroke:#181818;stroke-width:1.0416666666666667;"/><path d="M356.1849,135.3149 L350.5046,135.3149 L350.5046,126.2004 L356.1849,126.2004 L356.1849,127.7954 L352.3112,127.7954 L352.3112,129.7485 L355.8105,129.7485 L355.8105,131.3436 L352.3112,131.3436 L352.3112,133.7199 L356.1849,133.7199 L356.1849,135.3149 Z " fill="#000000"/><text fill="#FFFFFF" font-family="Verdana" font-size="11.4583" lengthAdjust="spacing" textLength="33.2616" x="372.3958" y="134.5942">entity</text><line style="stroke:#EC7211;stroke-width:1.0416666666666667;" x1="340.1042" x2="412.9491" y1="147.7132" y2="147.7132"/><line style="stroke:#EC7211;stroke-width:1.0416666666666667;" x1="340.1042" x2="412.9491" y1="156.0465" y2="156.0465"/></g><!--class enum--><g id="elem_enum"><rect codeLine="16" fill="url(#gmb5no3lhur8k0)" height="50.8382" id="enum" rx="4.1667" ry="4.1667" style="stroke:#EC7211;stroke-width:1.0416666666666667;" width="74.4024" x="20.8333" y="214.5833"/><rect fill="url(#gmb5no3lhur8k0)" height="34.1715" rx="4.1667" ry="4.1667" style="stroke:url(#gmb5no3lhur8k0);stroke-width:1.0416666666666667;" width="74.4024" x="20.8333" y="214.5833"/><rect fill="url(#gmb5no3lhur8k0)" height="4.1667" style="stroke:url(#gmb5no3lhur8k0);stroke-width:1.0416666666666667;" width="74.4024" x="20.8333" y="244.5882"/><rect codeLine="16" fill="none" height="50.8382" id="enum" rx="4.1667" ry="4.1667" style="stroke:#EC7211;stroke-width:1.0416666666666667;" width="74.4024" x="20.8333" y="214.5833"/><ellipse cx="35.4167" cy="231.6691" fill="#EB937F" rx="10.4167" ry="10.4167" style="stroke:#181818;stroke-width:1.0416666666666667;"/><path d="M37.9557,236.3566 L32.2754,236.3566 L32.2754,227.242 L37.9557,227.242 L37.9557,228.8371 L34.082,228.8371 L34.082,230.7902 L37.5814,230.7902 L37.5814,232.3853 L34.082,232.3853 L34.082,234.7616 L37.9557,234.7616 L37.9557,236.3566 Z " fill="#000000"/><text fill="#FFFFFF" font-family="Verdana" font-size="11.4583" lengthAdjust="spacing" textLength="32.7357" x="54.1667" y="235.6359">enum</text><line style="stroke:#EC7211;stroke-width:1.0416666666666667;" x1="21.875" x2="94.194" y1="248.7549" y2="248.7549"/><line style="stroke:#EC7211;stroke-width:1.0416666666666667;" x1="21.875" x2="94.194" y1="257.0882" y2="257.0882"/></g><!--class exception--><g id="elem_exception"><rect codeLine="17" fill="url(#gmb5no3lhur8k0)" height="50.8382" id="exception" rx="4.1667" ry="4.1667" style="stroke:#EC7211;stroke-width:1.0416666666666667;" width="98.0687" x="114.0625" y="214.5833"/><rect fill="url(#gmb5no3lhur8k0)" height="34.1715" rx="4.1667" ry="4.1667" style="stroke:url(#gmb5no3lhur8k0);stroke-width:1.0416666666666667;" width="98.0687" x="114.0625" y="214.5833"/><rect fill="url(#gmb5no3lhur8k0)" height="4.1667" style="stroke:url(#gmb5no3lhur8k0);stroke-width:1.0416666666666667;" width="98.0687" x="114.0625" y="244.5882"/><rect codeLine="17" fill="none" height="50.8382" id="exception" rx="4.1667" ry="4.1667" style="stroke:#EC7211;stroke-width:1.0416666666666667;" width="98.0687" x="114.0625" y="214.5833"/><ellipse cx="128.6458" cy="231.6691" fill="#D94321" rx="10.4167" ry="10.4167" style="stroke:#181818;stroke-width:1.0416666666666667;"/><path d="M131.8359,236.3566 L129.9805,236.3566 L128.2389,233.3455 L126.5137,236.3566 L124.6419,236.3566 L127.3112,231.7342 L124.7233,227.242 L126.5788,227.242 L128.2389,230.1392 L129.8991,227.242 L131.7708,227.242 L129.1829,231.7342 L131.8359,236.3566 Z " fill="#000000"/><text fill="#FFFFFF" font-family="Verdana" font-size="11.4583" lengthAdjust="spacing" textLength="56.4021" x="147.3958" y="235.6359">exception</text><line style="stroke:#EC7211;stroke-width:1.0416666666666667;" x1="115.1042" x2="211.0896" y1="248.7549" y2="248.7549"/><line style="stroke:#EC7211;stroke-width:1.0416666666666667;" x1="115.1042" x2="211.0896" y1="257.0882" y2="257.0882"/></g><!--class interface--><g id="elem_interface"><rect codeLine="18" fill="url(#gmb5no3lhur8k0)" height="50.8382" id="interface" rx="4.1667" ry="4.1667" style="stroke:#EC7211;stroke-width:1.0416666666666667;" width="92.7704" x="231.25" y="214.5833"/><rect fill="url(#gmb5no3lhur8k0)" height="34.1715" rx="4.1667" ry="4.1667" style="stroke:url(#gmb5no3lhur8k0);stroke-width:1.0416666666666667;" width="92.7704" x="231.25" y="214.5833"/><rect fill="url(#gmb5no3lhur8k0)" height="4.1667" style="stroke:url(#gmb5no3lhur8k0);stroke-width:1.0416666666666667;" width="92.7704" x="231.25" y="244.5882"/><rect codeLine="18" fill="none" height="50.8382" id="interface" rx="4.1667" ry="4.1667" style="stroke:#EC7211;stroke-width:1.0416666666666667;" width="92.7704" x="231.25" y="214.5833"/><ellipse cx="245.8333" cy="231.6691" fill="#B4A7E5" rx="10.4167" ry="10.4167" style="stroke:#181818;stroke-width:1.0416666666666667;"/><path d="M242.7246,228.8371 L242.7246,227.242 L248.1445,227.242 L248.1445,228.8371 L246.3379,228.8371 L246.3379,234.7616 L248.1445,234.7616 L248.1445,236.3566 L242.7246,236.3566 L242.7246,234.7616 L244.5313,234.7616 L244.5313,228.8371 L242.7246,228.8371 Z " fill="#000000"/><text fill="#FFFFFF" font-family="Verdana" font-size="11.4583" font-style="italic" lengthAdjust="spacing" textLength="51.1037" x="264.5833" y="235.6359">interface</text><line style="stroke:#EC7211;stroke-width:1.0416666666666667;" x1="232.2917" x2="322.9787" y1="248.7549" y2="248.7549"/><line style="stroke:#EC7211;stroke-width:1.0416666666666667;" x1="232.2917" x2="322.9787" y1="257.0882" y2="257.0882"/></g><!--class metaclass--><g id="elem_metaclass"><rect codeLine="19" fill="url(#gmb5no3lhur8k0)" height="50.8382" id="metaclass" rx="4.1667" ry="4.1667" style="stroke:#EC7211;stroke-width:1.0416666666666667;" width="99.8367" x="343.2292" y="214.5833"/><rect fill="url(#gmb5no3lhur8k0)" height="34.1715" rx="4.1667" ry="4.1667" style="stroke:url(#gmb5no3lhur8k0);stroke-width:1.0416666666666667;" width="99.8367" x="343.2292" y="214.5833"/><rect fill="url(#gmb5no3lhur8k0)" height="4.1667" style="stroke:url(#gmb5no3lhur8k0);stroke-width:1.0416666666666667;" width="99.8367" x="343.2292" y="244.5882"/><rect codeLine="19" fill="none" height="50.8382" id="metaclass" rx="4.1667" ry="4.1667" style="stroke:#EC7211;stroke-width:1.0416666666666667;" width="99.8367" x="343.2292" y="214.5833"/><ellipse cx="357.8125" cy="231.6691" fill="#CCCCCC" rx="10.4167" ry="10.4167" style="stroke:#181818;stroke-width:1.0416666666666667;"/><path d="M354.1667,227.242 L356.3151,227.242 L357.4056,231.2459 L358.4798,227.242 L360.6445,227.242 L360.6445,236.3566 L359.0983,236.3566 L359.0983,229.0487 L358.138,233.0363 L356.7057,233.0363 L355.7292,229.0487 L355.7292,236.3566 L354.1667,236.3566 L354.1667,227.242 Z " fill="#000000"/><text fill="#FFFFFF" font-family="Verdana" font-size="11.4583" lengthAdjust="spacing" textLength="58.1701" x="376.5625" y="235.6359">metaclass</text><line style="stroke:#EC7211;stroke-width:1.0416666666666667;" x1="344.2708" x2="442.0242" y1="248.7549" y2="248.7549"/><line style="stroke:#EC7211;stroke-width:1.0416666666666667;" x1="344.2708" x2="442.0242" y1="257.0882" y2="257.0882"/></g><!--class protocol--><g id="elem_protocol"><rect codeLine="20" fill="url(#gmb5no3lhur8k0)" height="50.8382" id="protocol" rx="4.1667" ry="4.1667" style="stroke:#EC7211;stroke-width:1.0416666666666667;" width="88.6581" x="462.5" y="214.5833"/><rect fill="url(#gmb5no3lhur8k0)" height="34.1715" rx="4.1667" ry="4.1667" style="stroke:url(#gmb5no3lhur8k0);stroke-width:1.0416666666666667;" width="88.6581" x="462.5" y="214.5833"/><rect fill="url(#gmb5no3lhur8k0)" height="4.1667" style="stroke:url(#gmb5no3lhur8k0);stroke-width:1.0416666666666667;" width="88.6581" x="462.5" y="244.5882"/><rect codeLine="20" fill="none" height="50.8382" id="protocol" rx="4.1667" ry="4.1667" style="stroke:#EC7211;stroke-width:1.0416666666666667;" width="88.6581" x="462.5" y="214.5833"/><ellipse cx="477.0833" cy="231.6691" fill="#F1F1F1" rx="10.4167" ry="10.4167" style="stroke:#181818;stroke-width:1.0416666666666667;"/><path d="M476.2207,228.7557 L476.2207,231.425 L476.9694,231.425 Q477.8483,231.425 478.2064,231.132 Q478.5645,230.839 478.5645,230.0903 Q478.5645,229.3579 478.2064,229.0649 Q477.8483,228.7557 476.9694,228.7557 L476.2207,228.7557 Z M474.4303,227.242 L476.9043,227.242 Q478.7923,227.242 479.6061,227.9256 Q480.4362,228.5929 480.4362,230.0903 Q480.4362,231.604 479.6061,232.2713 Q478.7923,232.9386 476.9043,232.9386 L476.2207,232.9386 L476.2207,236.3566 L474.4303,236.3566 L474.4303,227.242 Z " fill="#000000"/><text fill="#FFFFFF" font-family="Verdana" font-size="11.4583" lengthAdjust="spacing" textLength="46.9915" x="495.8333" y="235.6359">protocol</text><line style="stroke:#EC7211;stroke-width:1.0416666666666667;" x1="463.5417" x2="550.1165" y1="248.7549" y2="248.7549"/><line style="stroke:#EC7211;stroke-width:1.0416666666666667;" x1="463.5417" x2="550.1165" y1="257.0882" y2="257.0882"/></g><!--class stereotype--><g id="elem_stereotype"><rect codeLine="21" fill="url(#gmb5no3lhur8k0)" height="50.8382" id="stereotype" rx="4.1667" ry="4.1667" style="stroke:#EC7211;stroke-width:1.0416666666666667;" width="103.5461" x="6.25" y="303.125"/><rect fill="url(#gmb5no3lhur8k0)" height="34.1715" rx="4.1667" ry="4.1667" style="stroke:url(#gmb5no3lhur8k0);stroke-width:1.0416666666666667;" width="103.5461" x="6.25" y="303.125"/><rect fill="url(#gmb5no3lhur8k0)" height="4.1667" style="stroke:url(#gmb5no3lhur8k0);stroke-width:1.0416666666666667;" width="103.5461" x="6.25" y="333.1299"/><rect codeLine="21" fill="none" height="50.8382" id="stereotype" rx="4.1667" ry="4.1667" style="stroke:#EC7211;stroke-width:1.0416666666666667;" width="103.5461" x="6.25" y="303.125"/><ellipse cx="20.8333" cy="320.2108" fill="#FF77FF" rx="10.4167" ry="10.4167" style="stroke:#181818;stroke-width:1.0416666666666667;"/><path d="M19.7754,320.8944 Q18.4245,320.3735 17.9362,319.8039 Q17.4479,319.2342 17.4479,318.2739 Q17.4479,317.0369 18.2454,316.3371 Q19.043,315.6209 20.4264,315.6209 Q21.0612,315.6209 21.6797,315.7674 Q22.3145,315.9139 22.9329,316.1906 L22.9329,317.9484 Q22.347,317.5415 21.7448,317.3299 Q21.1589,317.1021 20.5729,317.1021 Q19.9219,317.1021 19.5638,317.3787 Q19.222,317.6392 19.222,318.1274 Q19.222,318.5018 19.4661,318.7459 Q19.7266,318.9901 20.5241,319.2993 L21.3053,319.5923 Q22.4121,319.9829 22.9167,320.6502 Q23.4375,321.3175 23.4375,322.3267 Q23.4375,323.7101 22.6237,324.3937 Q21.8099,325.0773 20.166,325.0773 Q19.4824,325.0773 18.7988,324.9146 Q18.1315,324.7518 17.4967,324.4263 L17.4967,322.5708 Q18.2129,323.0916 18.8802,323.3358 Q19.5638,323.5799 20.2148,323.5799 Q20.8822,323.5799 21.2402,323.2869 Q21.6146,322.9777 21.6146,322.4406 Q21.6146,322.0337 21.3704,321.7244 Q21.1263,321.4152 20.6706,321.2362 L19.7754,320.8944 Z " fill="#000000"/><text fill="#FFFFFF" font-family="Verdana" font-size="11.4583" lengthAdjust="spacing" textLength="61.8795" x="39.5833" y="324.1776">stereotype</text><line style="stroke:#EC7211;stroke-width:1.0416666666666667;" x1="7.2917" x2="108.7545" y1="337.2965" y2="337.2965"/><line style="stroke:#EC7211;stroke-width:1.0416666666666667;" x1="7.2917" x2="108.7545" y1="345.6299" y2="345.6299"/></g><!--class struct--><g id="elem_struct"><rect codeLine="22" fill="url(#gmb5no3lhur8k0)" height="50.8382" id="struct" rx="4.1667" ry="4.1667" style="stroke:#EC7211;stroke-width:1.0416666666666667;" width="74.8947" x="128.6458" y="303.125"/><rect fill="url(#gmb5no3lhur8k0)" height="34.1715" rx="4.1667" ry="4.1667" style="stroke:url(#gmb5no3lhur8k0);stroke-width:1.0416666666666667;" width="74.8947" x="128.6458" y="303.125"/><rect fill="url(#gmb5no3lhur8k0)" height="4.1667" style="stroke:url(#gmb5no3lhur8k0);stroke-width:1.0416666666666667;" width="74.8947" x="128.6458" y="333.1299"/><rect codeLine="22" fill="none" height="50.8382" id="struct" rx="4.1667" ry="4.1667" style="stroke:#EC7211;stroke-width:1.0416666666666667;" width="74.8947" x="128.6458" y="303.125"/><ellipse cx="143.2292" cy="320.2108" fill="#F1F1F1" rx="10.4167" ry="10.4167" style="stroke:#181818;stroke-width:1.0416666666666667;"/><path d="M142.1712,320.8944 Q140.8203,320.3735 140.332,319.8039 Q139.8438,319.2342 139.8438,318.2739 Q139.8438,317.0369 140.6413,316.3371 Q141.4388,315.6209 142.8223,315.6209 Q143.457,315.6209 144.0755,315.7674 Q144.7103,315.9139 145.3288,316.1906 L145.3288,317.9484 Q144.7428,317.5415 144.1406,317.3299 Q143.5547,317.1021 142.9688,317.1021 Q142.3177,317.1021 141.9596,317.3787 Q141.6178,317.6392 141.6178,318.1274 Q141.6178,318.5018 141.862,318.7459 Q142.1224,318.9901 142.9199,319.2993 L143.7012,319.5923 Q144.8079,319.9829 145.3125,320.6502 Q145.8333,321.3175 145.8333,322.3267 Q145.8333,323.7101 145.0195,324.3937 Q144.2057,325.0773 142.5618,325.0773 Q141.8783,325.0773 141.1947,324.9146 Q140.5273,324.7518 139.8926,324.4263 L139.8926,322.5708 Q140.6087,323.0916 141.276,323.3358 Q141.9596,323.5799 142.6107,323.5799 Q143.278,323.5799 143.6361,323.2869 Q144.0104,322.9777 144.0104,322.4406 Q144.0104,322.0337 143.7663,321.7244 Q143.5221,321.4152 143.0664,321.2362 L142.1712,320.8944 Z " fill="#000000"/><text fill="#FFFFFF" font-family="Verdana" font-size="11.4583" lengthAdjust="spacing" textLength="33.228" x="161.9792" y="324.1776">struct</text><line style="stroke:#EC7211;stroke-width:1.0416666666666667;" x1="129.6875" x2="202.4989" y1="337.2965" y2="337.2965"/><line style="stroke:#EC7211;stroke-width:1.0416666666666667;" x1="129.6875" x2="202.4989" y1="345.6299" y2="345.6299"/></g></g></svg>