<svg xmlns="http://www.w3.org/2000/svg" xmlns:xlink="http://www.w3.org/1999/xlink" contentStyleType="text/css" height="550px" preserveAspectRatio="none" style="width:856px;height:550px;" version="1.1" viewBox="0 0 856 550" width="856.25px" zoomAndPan="magnify"><defs><linearGradient id="gqx1f4ymxabmh0" x1="50%" x2="50%" y1="0%" y2="100%"><stop offset="0%" stop-color="#EEEEEE"/><stop offset="100%" stop-color="#BEBEBE"/></linearGradient></defs><g><line style="stroke:#ABABAB;stroke-width:1.0416666666666667;stroke-dasharray:5.0,5.0;" x1="95.8333" x2="95.8333" y1="105.1758" y2="446.6146"/><line style="stroke:#ABABAB;stroke-width:1.0416666666666667;stroke-dasharray:5.0,5.0;" x1="214.3494" x2="214.3494" y1="105.1758" y2="446.6146"/><line style="stroke:#ABABAB;stroke-width:1.0416666666666667;stroke-dasharray:5.0,5.0;" x1="294.3359" x2="294.3359" y1="105.1758" y2="446.6146"/><line style="stroke:#ABABAB;stroke-width:1.0416666666666667;stroke-dasharray:5.0,5.0;" x1="380.5766" x2="380.5766" y1="105.1758" y2="446.6146"/><line style="stroke:#ABABAB;stroke-width:1.0416666666666667;stroke-dasharray:5.0,5.0;" x1="455.2022" x2="455.2022" y1="105.1758" y2="446.6146"/><line style="stroke:#ABABAB;stroke-width:1.0416666666666667;stroke-dasharray:5.0,5.0;" x1="536.4868" x2="536.4868" y1="105.1758" y2="446.6146"/><line style="stroke:#ABABAB;stroke-width:1.0416666666666667;stroke-dasharray:5.0,5.0;" x1="671.1304" x2="671.1304" y1="105.1758" y2="446.6146"/><line style="stroke:#ABABAB;stroke-width:1.0416666666666667;stroke-dasharray:5.0,5.0;" x1="804.0548" x2="804.0548" y1="105.1758" y2="446.6146"/><rect fill="url(#gqx1f4ymxabmh0)" height="45.8008" rx="7.8125" ry="7.8125" style="stroke:#F1F1F1;stroke-width:1.0416666666666667;" width="98.7244" x="46.875" y="58.3333"/><text fill="#336699" font-family="Verdana" font-size="12.5" lengthAdjust="spacing" textLength="67.4744" x="62.5" y="85.5611">Participant</text><rect fill="url(#gqx1f4ymxabmh0)" height="45.8008" rx="7.8125" ry="7.8125" style="stroke:#F1F1F1;stroke-width:1.0416666666666667;" width="98.7244" x="46.875" y="445.5729"/><text fill="#336699" font-family="Verdana" font-size="12.5" lengthAdjust="spacing" textLength="67.4744" x="62.5" y="472.8007">Participant</text><text fill="#303030" font-family="Verdana" font-size="12.5" lengthAdjust="spacing" textLength="33.1116" x="195.5994" y="93.8944">Actor</text><ellipse cx="215.2802" cy="19.7917" fill="url(#gqx1f4ymxabmh0)" rx="8.3333" ry="8.3333" style="stroke:#F1F1F1;stroke-width:1.0416666666666667;"/><path d="M215.2802,28.125 L215.2802,56.25 M201.7385,36.4583 L228.8218,36.4583 M215.2802,56.25 L201.7385,71.875 M215.2802,56.25 L228.8218,71.875 " fill="none" style="stroke:#F1F1F1;stroke-width:1.0416666666666667;"/><text fill="#303030" font-family="Verdana" font-size="12.5" lengthAdjust="spacing" textLength="33.1116" x="195.5994" y="465.509">Actor</text><ellipse cx="215.2802" cy="486.1654" fill="url(#gqx1f4ymxabmh0)" rx="8.3333" ry="8.3333" style="stroke:#F1F1F1;stroke-width:1.0416666666666667;"/><path d="M215.2802,494.4987 L215.2802,522.6237 M201.7385,502.832 L228.8218,502.832 M215.2802,522.6237 L201.7385,538.2487 M215.2802,522.6237 L228.8218,538.2487 " fill="none" style="stroke:#F1F1F1;stroke-width:1.0416666666666667;"/><text fill="#336699" font-family="Verdana" font-size="12.5" lengthAdjust="spacing" textLength="60.199" x="262.0443" y="93.8944">Boundary</text><path d="M273.9146,44.7917 L273.9146,69.7917 M273.9146,57.2917 L291.6229,57.2917 " fill="none" style="stroke:#F1F1F1;stroke-width:1.0416666666666667;"/><ellipse cx="304.1229" cy="57.2917" fill="url(#gqx1f4ymxabmh0)" rx="12.5" ry="12.5" style="stroke:#F1F1F1;stroke-width:1.0416666666666667;"/><text fill="#336699" font-family="Verdana" font-size="12.5" lengthAdjust="spacing" textLength="60.199" x="262.0443" y="465.509">Boundary</text><path d="M273.9146,480.957 L273.9146,505.957 M273.9146,493.457 L291.6229,493.457 " fill="none" style="stroke:#F1F1F1;stroke-width:1.0416666666666667;"/><ellipse cx="304.1229" cy="493.457" fill="url(#gqx1f4ymxabmh0)" rx="12.5" ry="12.5" style="stroke:#F1F1F1;stroke-width:1.0416666666666667;"/><text fill="#336699" font-family="Verdana" font-size="12.5" lengthAdjust="spacing" textLength="45.459" x="355.5766" y="93.8944">Control</text><ellipse cx="381.4311" cy="57.2917" fill="url(#gqx1f4ymxabmh0)" rx="12.5" ry="12.5" style="stroke:#F1F1F1;stroke-width:1.0416666666666667;"/><polygon fill="#F1F1F1" points="377.2644,44.7917,383.5144,39.5833,381.4311,44.7917,383.5144,50,377.2644,44.7917" style="stroke:#F1F1F1;stroke-width:1.0416666666666667;"/><text fill="#336699" font-family="Verdana" font-size="12.5" lengthAdjust="spacing" textLength="45.459" x="355.5766" y="465.509">Control</text><ellipse cx="381.4311" cy="493.457" fill="url(#gqx1f4ymxabmh0)" rx="12.5" ry="12.5" style="stroke:#F1F1F1;stroke-width:1.0416666666666667;"/><polygon fill="#F1F1F1" points="377.2644,480.957,383.5144,475.7487,381.4311,480.957,383.5144,486.1654,377.2644,480.957" style="stroke:#F1F1F1;stroke-width:1.0416666666666667;"/><text fill="#336699" font-family="Verdana" font-size="12.5" lengthAdjust="spacing" textLength="36.4929" x="434.3689" y="93.8944">Entity</text><ellipse cx="455.7404" cy="57.2917" fill="url(#gqx1f4ymxabmh0)" rx="12.5" ry="12.5" style="stroke:#F1F1F1;stroke-width:1.0416666666666667;"/><line style="stroke:#F1F1F1;stroke-width:1.0416666666666667;" x1="443.2404" x2="468.2404" y1="71.875" y2="71.875"/><text fill="#336699" font-family="Verdana" font-size="12.5" lengthAdjust="spacing" textLength="36.4929" x="434.3689" y="465.509">Entity</text><ellipse cx="455.7404" cy="493.457" fill="url(#gqx1f4ymxabmh0)" rx="12.5" ry="12.5" style="stroke:#F1F1F1;stroke-width:1.0416666666666667;"/><line style="stroke:#F1F1F1;stroke-width:1.0416666666666667;" x1="443.2404" x2="468.2404" y1="508.0404" y2="508.0404"/><text fill="#303030" font-family="Verdana" font-size="12.5" lengthAdjust="spacing" textLength="59.6436" x="504.1951" y="93.8944">Database</text><path d="M518.3919,36.4583 C518.3919,26.0417 537.1419,26.0417 537.1419,26.0417 C537.1419,26.0417 555.8919,26.0417 555.8919,36.4583 L555.8919,63.5417 C555.8919,73.9583 537.1419,73.9583 537.1419,73.9583 C537.1419,73.9583 518.3919,73.9583 518.3919,63.5417 L518.3919,36.4583 " fill="url(#gqx1f4ymxabmh0)" style="stroke:#F1F1F1;stroke-width:1.5625;"/><path d="M518.3919,36.4583 C518.3919,46.875 537.1419,46.875 537.1419,46.875 C537.1419,46.875 555.8919,46.875 555.8919,36.4583 " fill="none" style="stroke:#F1F1F1;stroke-width:1.5625;"/><text fill="#303030" font-family="Verdana" font-size="12.5" lengthAdjust="spacing" textLength="59.6436" x="504.1951" y="465.509">Database</text><path d="M518.3919,487.207 C518.3919,476.7904 537.1419,476.7904 537.1419,476.7904 C537.1419,476.7904 555.8919,476.7904 555.8919,487.207 L555.8919,514.2904 C555.8919,524.707 537.1419,524.707 537.1419,524.707 C537.1419,524.707 518.3919,524.707 518.3919,514.2904 L518.3919,487.207 " fill="url(#gqx1f4ymxabmh0)" style="stroke:#F1F1F1;stroke-width:1.5625;"/><path d="M518.3919,487.207 C518.3919,497.6237 537.1419,497.6237 537.1419,497.6237 C537.1419,497.6237 555.8919,497.6237 555.8919,487.207 " fill="none" style="stroke:#F1F1F1;stroke-width:1.5625;"/><rect fill="url(#gqx1f4ymxabmh0)" height="45.8008" rx="7.8125" ry="7.8125" style="stroke:#F1F1F1;stroke-width:1.0416666666666667;" width="99.5911" x="624.2554" y="54.1667"/><rect fill="url(#gqx1f4ymxabmh0)" height="45.8008" rx="7.8125" ry="7.8125" style="stroke:#F1F1F1;stroke-width:1.0416666666666667;" width="99.5911" x="620.0887" y="58.3333"/><text fill="#336699" font-family="Verdana" font-size="12.5" lengthAdjust="spacing" textLength="68.3411" x="635.7137" y="85.5611">Collections</text><rect fill="url(#gqx1f4ymxabmh0)" height="45.8008" rx="7.8125" ry="7.8125" style="stroke:#F1F1F1;stroke-width:1.0416666666666667;" width="99.5911" x="624.2554" y="445.5729"/><rect fill="url(#gqx1f4ymxabmh0)" height="45.8008" rx="7.8125" ry="7.8125" style="stroke:#F1F1F1;stroke-width:1.0416666666666667;" width="99.5911" x="620.0887" y="449.7396"/><text fill="#336699" font-family="Verdana" font-size="12.5" lengthAdjust="spacing" textLength="68.3411" x="635.7137" y="476.9674">Collections</text><path d="M770.7214,63.5417 L838.8692,63.5417 C844.0776,63.5417 844.0776,84.3587 844.0776,84.3587 C844.0776,84.3587 844.0776,105.1758 838.8692,105.1758 L770.7214,105.1758 C765.5131,105.1758 765.5131,84.3587 765.5131,84.3587 C765.5131,84.3587 765.5131,63.5417 770.7214,63.5417 " fill="url(#gqx1f4ymxabmh0)" style="stroke:#F1F1F1;stroke-width:1.0416666666666667;"/><path d="M838.8692,63.5417 C833.6609,63.5417 833.6609,84.3587 833.6609,84.3587 C833.6609,105.1758 838.8692,105.1758 838.8692,105.1758 " fill="none" style="stroke:#F1F1F1;stroke-width:1.0416666666666667;"/><text fill="#336699" font-family="Verdana" font-size="12.5" lengthAdjust="spacing" textLength="41.0645" x="779.0548" y="88.6861">Queue</text><path d="M770.7214,445.5729 L838.8692,445.5729 C844.0776,445.5729 844.0776,466.39 844.0776,466.39 C844.0776,466.39 844.0776,487.207 838.8692,487.207 L770.7214,487.207 C765.5131,487.207 765.5131,466.39 765.5131,466.39 C765.5131,466.39 765.5131,445.5729 770.7214,445.5729 " fill="url(#gqx1f4ymxabmh0)" style="stroke:#F1F1F1;stroke-width:1.0416666666666667;"/><path d="M838.8692,445.5729 C833.6609,445.5729 833.6609,466.39 833.6609,466.39 C833.6609,487.207 838.8692,487.207 838.8692,487.207 " fill="none" style="stroke:#F1F1F1;stroke-width:1.0416666666666667;"/><text fill="#336699" font-family="Verdana" font-size="12.5" lengthAdjust="spacing" textLength="41.0645" x="779.0548" y="470.7174">Queue</text><polygon fill="#EEEEEE" points="202.7802,148.8932,213.1968,153.0599,202.7802,157.2266,206.9468,153.0599" style="stroke:#EEEEEE;stroke-width:1.0416666666666667;"/><line style="stroke:#EEEEEE;stroke-width:3.125;" x1="96.2372" x2="209.0302" y1="153.0599" y2="153.0599"/><text fill="#303030" font-family="Verdana" font-size="12.5" lengthAdjust="spacing" textLength="51.4771" x="111.8622" y="139.6952">To actor</text><polygon fill="#EEEEEE" points="282.7688,194.694,293.1854,198.8607,282.7688,203.0273,286.9354,198.8607" style="stroke:#EEEEEE;stroke-width:1.0416666666666667;"/><line style="stroke:#EEEEEE;stroke-width:3.125;" x1="96.2372" x2="289.0188" y1="198.8607" y2="198.8607"/><text fill="#303030" font-family="Verdana" font-size="12.5" lengthAdjust="spacing" textLength="78.8147" x="111.8622" y="185.496">To boundary</text><polygon fill="#EEEEEE" points="368.9311,240.4948,379.3477,244.6615,368.9311,248.8281,373.0977,244.6615" style="stroke:#EEEEEE;stroke-width:1.0416666666666667;"/><line style="stroke:#EEEEEE;stroke-width:3.125;" x1="96.2372" x2="375.1811" y1="244.6615" y2="244.6615"/><text fill="#303030" font-family="Verdana" font-size="12.5" lengthAdjust="spacing" textLength="62.8601" x="111.8622" y="231.2968">To control</text><polygon fill="#EEEEEE" points="443.2404,286.2956,453.657,290.4622,443.2404,294.6289,447.407,290.4622" style="stroke:#EEEEEE;stroke-width:1.0416666666666667;"/><line style="stroke:#EEEEEE;stroke-width:3.125;" x1="96.2372" x2="449.4904" y1="290.4622" y2="290.4622"/><text fill="#303030" font-family="Verdana" font-size="12.5" lengthAdjust="spacing" textLength="55.542" x="111.8622" y="277.0976">To entity</text><polygon fill="#EEEEEE" points="524.6419,332.0964,535.0586,336.263,524.6419,340.4297,528.8086,336.263" style="stroke:#EEEEEE;stroke-width:1.0416666666666667;"/><line style="stroke:#EEEEEE;stroke-width:3.125;" x1="96.2372" x2="530.8919" y1="336.263" y2="336.263"/><text fill="#303030" font-family="Verdana" font-size="12.5" lengthAdjust="spacing" textLength="77.2095" x="111.8622" y="322.8984">To database</text><polygon fill="#EEEEEE" points="659.4676,377.8971,669.8842,382.0638,659.4676,386.2305,663.6342,382.0638" style="stroke:#EEEEEE;stroke-width:1.0416666666666667;"/><line style="stroke:#EEEEEE;stroke-width:3.125;" x1="96.2372" x2="665.7176" y1="382.0638" y2="382.0638"/><text fill="#303030" font-family="Verdana" font-size="12.5" lengthAdjust="spacing" textLength="85.7422" x="111.8622" y="368.6991">To collections</text><polygon fill="#EEEEEE" points="792.2953,423.6979,802.712,427.8646,792.2953,432.0313,796.462,427.8646" style="stroke:#EEEEEE;stroke-width:1.0416666666666667;"/><line style="stroke:#EEEEEE;stroke-width:3.125;" x1="96.2372" x2="798.5453" y1="427.8646" y2="427.8646"/><text fill="#303030" font-family="Verdana" font-size="12.5" lengthAdjust="spacing" textLength="58.4167" x="111.8622" y="414.4999">To queue</text></g></svg>