<svg xmlns="http://www.w3.org/2000/svg" xmlns:xlink="http://www.w3.org/1999/xlink" contentStyleType="text/css" height="418.75px" preserveAspectRatio="none" style="width:384px;height:418px;" version="1.1" viewBox="0 0 384 418" width="384.375px" zoomAndPan="magnify"><defs><filter height="300%" id="f1p5tctl4n3d35" width="300%" x="-1" y="-1"><feGaussianBlur result="blurOut" stdDeviation="2.0833333333333335"/><feColorMatrix in="blurOut" result="blurOut2" type="matrix" values="0 0 0 0 0 0 0 0 0 0 0 0 0 0 0 0 0 0 .4 0"/><feOffset dx="4.166666666666667" dy="4.166666666666667" in="blurOut2" result="blurOut3"/><feBlend in="SourceGraphic" in2="blurOut3" mode="normal"/></filter></defs><g><path d="M10.4167,15.625 L10.4167,61.4258 L240.8508,61.4258 L240.8508,26.0417 L230.4342,15.625 L10.4167,15.625 " fill="none" filter="url(#f1p5tctl4n3d35)" style="stroke:#9C27B0;stroke-width:1.0416666666666667;"/><path d="M230.4342,15.625 L230.4342,26.0417 L240.8508,26.0417 L230.4342,15.625 " fill="none" style="stroke:#9C27B0;stroke-width:1.0416666666666667;"/><text fill="#9C27B0" font-family="Verdana" font-size="12.5" lengthAdjust="spacing" textLength="179.7791" x="31.0567" y="42.8528">Test of some EBNF elements</text><text fill="#2196F3" font-family="Verdana" font-size="12.5" font-weight="bold" lengthAdjust="spacing" textLength="41.7114" x="10.4167" y="88.6536">rule-0</text><line style="stroke:#1A78C2;stroke-width:1.5625;" x1="41.6667" x2="41.6667" y1="114.502" y2="114.502"/><rect fill="none" height="24.9674" rx="5.2083" ry="5.2083" style="stroke:#1A78C2;stroke-width:1.5625;" width="34.6415" x="41.6667" y="102.0182"/><text fill="#2196F3" font-family="Verdana" font-size="12.5" lengthAdjust="spacing" textLength="24.2249" x="46.875" y="118.8293">rule</text><line style="stroke:#1A78C2;stroke-width:1.5625;" x1="76.3082" x2="97.1415" y1="114.502" y2="114.502"/><rect fill="none" height="24.9674" style="stroke:#1A78C2;stroke-width:0.5208333333333334;" width="73.2463" x="97.1415" y="102.0182"/><text fill="#2196F3" font-family="Verdana" font-size="12.5" lengthAdjust="spacing" textLength="62.8296" x="102.3499" y="118.8293">litteral_dq</text><line style="stroke:#1A78C2;stroke-width:1.5625;" x1="170.3878" x2="191.2211" y1="114.502" y2="114.502"/><rect fill="none" height="24.9674" style="stroke:#1A78C2;stroke-width:0.5208333333333334;" width="71.8241" x="191.2211" y="102.0182"/><text fill="#2196F3" font-family="Verdana" font-size="12.5" lengthAdjust="spacing" textLength="61.4075" x="196.4294" y="118.8293">litteral_sq</text><line style="stroke:#1A78C2;stroke-width:1.5625;" x1="263.0452" x2="283.8786" y1="114.502" y2="114.502"/><rect fill="none" height="24.9674" style="stroke:#1A78C2;stroke-width:1.0416666666666667;stroke-dasharray:5.0,5.0;" width="54.0324" x="283.8786" y="102.0182"/><text fill="#2196F3" font-family="Verdana" font-size="12.5" lengthAdjust="spacing" textLength="43.6157" x="289.0869" y="118.8293">special</text><ellipse cx="14.5833" cy="114.502" fill="none" rx="4.1667" ry="4.1667" style="stroke:#1A78C2;stroke-width:2.0833333333333335;"/><ellipse cx="369.161" cy="114.502" fill="#1A78C2" rx="4.1667" ry="4.1667" style="stroke:#1A78C2;stroke-width:1.0416666666666667;"/><line style="stroke:#1A78C2;stroke-width:1.5625;" x1="18.75" x2="41.6667" y1="114.502" y2="114.502"/><line style="stroke:#1A78C2;stroke-width:1.5625;" x1="337.911" x2="364.9943" y1="114.502" y2="114.502"/><path d="M349.3693,114.502 L349.3693,111.377 L355.6193,114.502 L349.3693,117.627 L349.3693,114.502 " fill="#1A78C2" style="stroke:#1A78C2;stroke-width:1.5625;"/><text fill="#2196F3" font-family="Verdana" font-size="12.5" font-weight="bold" lengthAdjust="spacing" textLength="14.8621" x="10.4167" y="154.2135">r1</text><line style="stroke:#1A78C2;stroke-width:1.5625;" x1="41.6667" x2="41.6667" y1="209.2285" y2="209.2285"/><rect fill="none" height="24.9674" rx="5.2083" ry="5.2083" style="stroke:#1A78C2;stroke-width:1.5625;" width="15.3178" x="41.6667" y="196.7448"/><text fill="#2196F3" font-family="Verdana" font-size="12.5" lengthAdjust="spacing" textLength="4.9011" x="46.875" y="213.5559">t</text><line style="stroke:#1A78C2;stroke-width:1.5625;" x1="56.9845" x2="77.8178" y1="209.2285" y2="209.2285"/><path d="M86.1511,200.8952 C86.1511,207.1452 84.0678,209.2285 77.8178,209.2285 " fill="none" style="stroke:#1A78C2;stroke-width:1.5625;"/><line style="stroke:#1A78C2;stroke-width:1.5625;" x1="86.1511" x2="86.1511" y1="193.6198" y2="200.8952"/><path d="M86.1511,193.6198 C86.1511,187.3698 88.2345,185.2865 94.4845,185.2865 " fill="none" style="stroke:#1A78C2;stroke-width:1.5625;"/><line style="stroke:#1A78C2;stroke-width:1.5625;" x1="94.4845" x2="110.7402" y1="185.2865" y2="185.2865"/><path d="M98.9034,185.2865 L98.9034,182.1615 L105.1534,185.2865 L98.9034,188.4115 L98.9034,185.2865 " fill="#1A78C2" style="stroke:#1A78C2;stroke-width:1.5625;"/><path d="M119.0735,200.8952 C119.0735,207.1452 121.1568,209.2285 127.4068,209.2285 " fill="none" style="stroke:#1A78C2;stroke-width:1.5625;"/><line style="stroke:#1A78C2;stroke-width:1.5625;" x1="119.0735" x2="119.0735" y1="193.6198" y2="200.8952"/><path d="M110.7402,185.2865 C116.9902,185.2865 119.0735,187.3698 119.0735,193.6198 " fill="none" style="stroke:#1A78C2;stroke-width:1.5625;"/><line style="stroke:#1A78C2;stroke-width:1.5625;" x1="77.8178" x2="93.4428" y1="209.2285" y2="209.2285"/><line style="stroke:#1A78C2;stroke-width:1.5625;" x1="111.7818" x2="127.4068" y1="209.2285" y2="209.2285"/><rect fill="none" height="24.9674" rx="5.2083" ry="5.2083" style="stroke:#1A78C2;stroke-width:1.5625;" width="18.339" x="93.4428" y="196.7448"/><text fill="#2196F3" font-family="Verdana" font-size="12.5" lengthAdjust="spacing" textLength="7.9224" x="98.6511" y="213.5559">h</text><line style="stroke:#1A78C2;stroke-width:1.5625;" x1="127.4068" x2="148.2402" y1="209.2285" y2="209.2285"/><path d="M156.5735,200.8952 C156.5735,207.1452 154.4902,209.2285 148.2402,209.2285 " fill="none" style="stroke:#1A78C2;stroke-width:1.5625;"/><line style="stroke:#1A78C2;stroke-width:1.5625;" x1="156.5735" x2="156.5735" y1="181.1198" y2="200.8952"/><path d="M156.5735,181.1198 C156.5735,174.8698 158.6568,172.7865 164.9068,172.7865 " fill="none" style="stroke:#1A78C2;stroke-width:1.5625;"/><line style="stroke:#1A78C2;stroke-width:1.5625;" x1="164.9068" x2="212.1806" y1="172.7865" y2="172.7865"/><path d="M181.733,172.7865 L181.733,169.6615 L187.983,172.7865 L181.733,175.9115 L181.733,172.7865 " fill="#1A78C2" style="stroke:#1A78C2;stroke-width:1.5625;"/><path d="M220.5139,200.8952 C220.5139,207.1452 222.5972,209.2285 228.8472,209.2285 " fill="none" style="stroke:#1A78C2;stroke-width:1.5625;"/><line style="stroke:#1A78C2;stroke-width:1.5625;" x1="220.5139" x2="220.5139" y1="181.1198" y2="200.8952"/><path d="M212.1806,172.7865 C218.4306,172.7865 220.5139,174.8698 220.5139,181.1198 " fill="none" style="stroke:#1A78C2;stroke-width:1.5625;"/><line style="stroke:#1A78C2;stroke-width:1.5625;" x1="148.2402" x2="163.8652" y1="209.2285" y2="209.2285"/><line style="stroke:#1A78C2;stroke-width:1.5625;" x1="213.2222" x2="228.8472" y1="209.2285" y2="209.2285"/><path d="M172.1985,200.8952 C172.1985,207.1452 174.2818,209.2285 180.5318,209.2285 " fill="none" style="stroke:#1A78C2;stroke-width:1.5625;"/><line style="stroke:#1A78C2;stroke-width:1.5625;" x1="172.1985" x2="172.1985" y1="197.7865" y2="200.8952"/><path d="M172.1985,197.7865 C172.1985,191.5365 174.2818,189.4531 180.5318,189.4531 " fill="none" style="stroke:#1A78C2;stroke-width:1.5625;"/><line style="stroke:#1A78C2;stroke-width:1.5625;" x1="179.4902" x2="197.5972" y1="189.4531" y2="189.4531"/><path d="M188.2711,189.4531 L188.2711,186.3281 L182.0211,189.4531 L188.2711,192.5781 L188.2711,189.4531 " fill="#1A78C2" style="stroke:#1A78C2;stroke-width:1.5625;"/><path d="M204.8889,200.8952 C204.8889,207.1452 202.8056,209.2285 196.5556,209.2285 " fill="none" style="stroke:#1A78C2;stroke-width:1.5625;"/><line style="stroke:#1A78C2;stroke-width:1.5625;" x1="204.8889" x2="204.8889" y1="197.7865" y2="200.8952"/><path d="M196.5556,189.4531 C202.8056,189.4531 204.8889,191.5365 204.8889,197.7865 " fill="none" style="stroke:#1A78C2;stroke-width:1.5625;"/><line style="stroke:#1A78C2;stroke-width:1.5625;" x1="163.8652" x2="179.4902" y1="209.2285" y2="209.2285"/><line style="stroke:#1A78C2;stroke-width:1.5625;" x1="197.5972" x2="213.2222" y1="209.2285" y2="209.2285"/><rect fill="none" height="24.9674" rx="5.2083" ry="5.2083" style="stroke:#1A78C2;stroke-width:1.5625;" width="18.1071" x="179.4902" y="196.7448"/><text fill="#2196F3" font-family="Verdana" font-size="12.5" lengthAdjust="spacing" textLength="7.6904" x="184.6985" y="213.5559">e</text><line style="stroke:#1A78C2;stroke-width:1.5625;" x1="228.8472" x2="249.6806" y1="209.2285" y2="209.2285"/><path d="M258.0139,200.8952 C258.0139,207.1452 260.0972,209.2285 266.3472,209.2285 " fill="none" style="stroke:#1A78C2;stroke-width:1.5625;"/><line style="stroke:#1A78C2;stroke-width:1.5625;" x1="258.0139" x2="258.0139" y1="197.7865" y2="200.8952"/><path d="M258.0139,197.7865 C258.0139,191.5365 260.0972,189.4531 266.3472,189.4531 " fill="none" style="stroke:#1A78C2;stroke-width:1.5625;"/><line style="stroke:#1A78C2;stroke-width:1.5625;" x1="265.3056" x2="283.37" y1="189.4531" y2="189.4531"/><path d="M274.0609,189.4531 L274.0609,186.3281 L267.8109,189.4531 L274.0609,192.5781 L274.0609,189.4531 " fill="#1A78C2" style="stroke:#1A78C2;stroke-width:1.5625;"/><path d="M290.6616,200.8952 C290.6616,207.1452 288.5783,209.2285 282.3283,209.2285 " fill="none" style="stroke:#1A78C2;stroke-width:1.5625;"/><line style="stroke:#1A78C2;stroke-width:1.5625;" x1="290.6616" x2="290.6616" y1="197.7865" y2="200.8952"/><path d="M282.3283,189.4531 C288.5783,189.4531 290.6616,191.5365 290.6616,197.7865 " fill="none" style="stroke:#1A78C2;stroke-width:1.5625;"/><line style="stroke:#1A78C2;stroke-width:1.5625;" x1="249.6806" x2="265.3056" y1="209.2285" y2="209.2285"/><line style="stroke:#1A78C2;stroke-width:1.5625;" x1="283.37" x2="298.995" y1="209.2285" y2="209.2285"/><rect fill="none" height="24.9674" rx="5.2083" ry="5.2083" style="stroke:#1A78C2;stroke-width:1.5625;" width="18.0644" x="265.3056" y="196.7448"/><text fill="#2196F3" font-family="Verdana" font-size="12.5" lengthAdjust="spacing" textLength="7.6477" x="270.5139" y="213.5559">o</text><ellipse cx="14.5833" cy="209.2285" fill="none" rx="4.1667" ry="4.1667" style="stroke:#1A78C2;stroke-width:2.0833333333333335;"/><ellipse cx="330.245" cy="209.2285" fill="#1A78C2" rx="4.1667" ry="4.1667" style="stroke:#1A78C2;stroke-width:1.0416666666666667;"/><line style="stroke:#1A78C2;stroke-width:1.5625;" x1="18.75" x2="41.6667" y1="209.2285" y2="209.2285"/><line style="stroke:#1A78C2;stroke-width:1.5625;" x1="298.995" x2="326.0783" y1="209.2285" y2="209.2285"/><path d="M310.4533,209.2285 L310.4533,206.1035 L316.7033,209.2285 L310.4533,212.3535 L310.4533,209.2285 " fill="#1A78C2" style="stroke:#1A78C2;stroke-width:1.5625;"/><text fill="#2196F3" font-family="Verdana" font-size="12.5" font-weight="bold" lengthAdjust="spacing" textLength="14.8621" x="10.4167" y="248.94">r2</text><line style="stroke:#1A78C2;stroke-width:1.5625;" x1="41.6667" x2="41.6667" y1="302.9134" y2="302.9134"/><path d="M75,294.5801 C75,300.8301 77.0833,302.9134 83.3333,302.9134 " fill="none" style="stroke:#1A78C2;stroke-width:1.5625;"/><line style="stroke:#1A78C2;stroke-width:1.5625;" x1="75" x2="75" y1="291.4714" y2="294.5801"/><path d="M75,291.4714 C75,285.2214 77.0833,283.138 83.3333,283.138 " fill="none" style="stroke:#1A78C2;stroke-width:1.5625;"/><line style="stroke:#1A78C2;stroke-width:1.5625;" x1="82.2917" x2="107.5765" y1="283.138" y2="283.138"/><path d="M95.3792,283.138 L95.3792,280.013 L89.1292,283.138 L95.3792,286.263 L95.3792,283.138 " fill="#1A78C2" style="stroke:#1A78C2;stroke-width:1.5625;"/><path d="M114.8682,294.5801 C114.8682,300.8301 112.7848,302.9134 106.5348,302.9134 " fill="none" style="stroke:#1A78C2;stroke-width:1.5625;"/><line style="stroke:#1A78C2;stroke-width:1.5625;" x1="114.8682" x2="114.8682" y1="291.4714" y2="294.5801"/><path d="M106.5348,283.138 C112.7848,283.138 114.8682,285.2214 114.8682,291.4714 " fill="none" style="stroke:#1A78C2;stroke-width:1.5625;"/><line style="stroke:#1A78C2;stroke-width:1.5625;" x1="66.6667" x2="82.2917" y1="302.9134" y2="302.9134"/><line style="stroke:#1A78C2;stroke-width:1.5625;" x1="107.5765" x2="123.2015" y1="302.9134" y2="302.9134"/><rect fill="none" height="24.9674" rx="5.2083" ry="5.2083" style="stroke:#1A78C2;stroke-width:1.5625;" width="25.2848" x="82.2917" y="290.4297"/><text fill="#2196F3" font-family="Verdana" font-size="12.5" lengthAdjust="spacing" textLength="14.8682" x="87.5" y="307.2408">nil</text><path d="M66.6667,277.9297 C66.6667,274.0234 67.9688,272.7214 71.875,272.7214 " fill="none" style="stroke:#1A78C2;stroke-width:0.5208333333333334;"/><path d="M94.9341,267.513 C94.9341,271.4193 93.632,272.7214 89.7257,272.7214 " fill="none" style="stroke:#1A78C2;stroke-width:0.5208333333333334;"/><path d="M94.9341,267.513 C94.9341,271.4193 96.2362,272.7214 100.1424,272.7214 " fill="none" style="stroke:#1A78C2;stroke-width:0.5208333333333334;"/><path d="M117.9932,272.7214 C121.8994,272.7214 123.2015,274.0234 123.2015,277.9297 " fill="none" style="stroke:#1A78C2;stroke-width:0.5208333333333334;"/><line style="stroke:#1A78C2;stroke-width:0.5208333333333334;" x1="71.875" x2="89.7257" y1="272.7214" y2="272.7214"/><line style="stroke:#1A78C2;stroke-width:0.5208333333333334;" x1="100.1424" x2="117.9932" y1="272.7214" y2="272.7214"/><text fill="#2196F3" font-family="Verdana" font-size="10.4167" lengthAdjust="spacing" textLength="15.3554" x="87.2564" y="264.7614">3&#215;</text><line style="stroke:#1A78C2;stroke-width:1.5625;" x1="41.6667" x2="66.6667" y1="302.9134" y2="302.9134"/><line style="stroke:#1A78C2;stroke-width:1.5625;" x1="123.2015" x2="148.2015" y1="302.9134" y2="302.9134"/><rect fill="none" height="24.9674" rx="5.2083" ry="5.2083" style="stroke:#1A78C2;stroke-width:1.5625;" width="16.9779" x="66.6667" y="325.8138"/><text fill="#2196F3" font-family="Verdana" font-size="12.5" lengthAdjust="spacing" textLength="6.5613" x="71.875" y="342.6249">z</text><line style="stroke:#1A78C2;stroke-width:1.5625;" x1="83.6446" x2="123.2015" y1="338.2975" y2="338.2975"/><path d="M101.3397,338.2975 L101.3397,335.1725 L107.5897,338.2975 L101.3397,341.4225 L101.3397,338.2975 " fill="#1A78C2" style="stroke:#1A78C2;stroke-width:1.5625;"/><path d="M54.1667,325.7975 C54.1667,335.1725 57.2917,338.2975 66.6667,338.2975 " fill="none" style="stroke:#1A78C2;stroke-width:1.5625;"/><line style="stroke:#1A78C2;stroke-width:1.5625;" x1="54.1667" x2="54.1667" y1="315.4134" y2="325.7975"/><path d="M41.6667,302.9134 C51.0417,302.9134 54.1667,306.0384 54.1667,315.4134 " fill="none" style="stroke:#1A78C2;stroke-width:1.5625;"/><path d="M135.7015,325.7975 C135.7015,335.1725 132.5765,338.2975 123.2015,338.2975 " fill="none" style="stroke:#1A78C2;stroke-width:1.5625;"/><line style="stroke:#1A78C2;stroke-width:1.5625;" x1="135.7015" x2="135.7015" y1="315.4134" y2="325.7975"/><path d="M135.7015,315.4134 C135.7015,306.0384 138.8265,302.9134 148.2015,302.9134 " fill="none" style="stroke:#1A78C2;stroke-width:1.5625;"/><line style="stroke:#1A78C2;stroke-width:1.5625;" x1="148.2015" x2="169.0348" y1="302.9134" y2="302.9134"/><rect fill="none" height="24.9674" rx="5.2083" ry="5.2083" style="stroke:#1A78C2;stroke-width:1.5625;" width="15.5558" x="194.0348" y="290.4297"/><text fill="#2196F3" font-family="Verdana" font-size="12.5" lengthAdjust="spacing" textLength="5.1392" x="199.2432" y="307.2408">r</text><line style="stroke:#1A78C2;stroke-width:1.5625;" x1="169.0348" x2="194.0348" y1="302.9134" y2="302.9134"/><line style="stroke:#1A78C2;stroke-width:1.5625;" x1="209.5907" x2="235.9639" y1="302.9134" y2="302.9134"/><rect fill="none" height="24.9674" rx="5.2083" ry="5.2083" style="stroke:#1A78C2;stroke-width:1.5625;" width="16.9291" x="194.0348" y="325.8138"/><text fill="#2196F3" font-family="Verdana" font-size="12.5" lengthAdjust="spacing" textLength="6.5125" x="199.2432" y="342.6249">s</text><line style="stroke:#1A78C2;stroke-width:1.5625;" x1="210.9639" x2="210.9639" y1="338.2975" y2="338.2975"/><path d="M181.5348,325.7975 C181.5348,335.1725 184.6598,338.2975 194.0348,338.2975 " fill="none" style="stroke:#1A78C2;stroke-width:1.5625;"/><line style="stroke:#1A78C2;stroke-width:1.5625;" x1="181.5348" x2="181.5348" y1="315.4134" y2="325.7975"/><path d="M169.0348,302.9134 C178.4098,302.9134 181.5348,306.0384 181.5348,315.4134 " fill="none" style="stroke:#1A78C2;stroke-width:1.5625;"/><path d="M223.4639,325.7975 C223.4639,335.1725 220.3389,338.2975 210.9639,338.2975 " fill="none" style="stroke:#1A78C2;stroke-width:1.5625;"/><line style="stroke:#1A78C2;stroke-width:1.5625;" x1="223.4639" x2="223.4639" y1="315.4134" y2="325.7975"/><path d="M223.4639,315.4134 C223.4639,306.0384 226.5889,302.9134 235.9639,302.9134 " fill="none" style="stroke:#1A78C2;stroke-width:1.5625;"/><line style="stroke:#1A78C2;stroke-width:1.5625;" x1="235.9639" x2="256.7973" y1="302.9134" y2="302.9134"/><rect fill="none" height="24.9674" rx="5.2083" ry="5.2083" style="stroke:#1A78C2;stroke-width:1.5625;" width="15.3178" x="256.7973" y="290.4297"/><text fill="#2196F3" font-family="Verdana" font-size="12.5" lengthAdjust="spacing" textLength="4.9011" x="262.0056" y="307.2408">t</text><ellipse cx="14.5833" cy="302.9134" fill="none" rx="4.1667" ry="4.1667" style="stroke:#1A78C2;stroke-width:2.0833333333333335;"/><ellipse cx="303.3651" cy="302.9134" fill="#1A78C2" rx="4.1667" ry="4.1667" style="stroke:#1A78C2;stroke-width:1.0416666666666667;"/><line style="stroke:#1A78C2;stroke-width:1.5625;" x1="18.75" x2="41.6667" y1="302.9134" y2="302.9134"/><line style="stroke:#1A78C2;stroke-width:1.5625;" x1="272.1151" x2="299.1984" y1="302.9134" y2="302.9134"/><path d="M283.5734,302.9134 L283.5734,299.7884 L289.8234,302.9134 L283.5734,306.0384 L283.5734,302.9134 " fill="#1A78C2" style="stroke:#1A78C2;stroke-width:1.5625;"/><text fill="#2196F3" font-family="Verdana" font-size="12.5" font-weight="bold" lengthAdjust="spacing" textLength="8.4778" x="10.4167" y="378.009">e</text><ellipse cx="14.5833" cy="391.3737" fill="none" rx="4.1667" ry="4.1667" style="stroke:#1A78C2;stroke-width:2.0833333333333335;"/><ellipse cx="72.9167" cy="391.3737" fill="#1A78C2" rx="4.1667" ry="4.1667" style="stroke:#1A78C2;stroke-width:1.0416666666666667;"/><line style="stroke:#1A78C2;stroke-width:1.5625;" x1="18.75" x2="41.6667" y1="391.3737" y2="391.3737"/><line style="stroke:#1A78C2;stroke-width:1.5625;" x1="41.6667" x2="68.75" y1="391.3737" y2="391.3737"/><path d="M53.125,391.3737 L53.125,388.2487 L59.375,391.3737 L53.125,394.4987 L53.125,391.3737 " fill="#1A78C2" style="stroke:#1A78C2;stroke-width:1.5625;"/></g></svg>