<svg xmlns="http://www.w3.org/2000/svg" xmlns:xlink="http://www.w3.org/1999/xlink" contentStyleType="text/css" height="522px" preserveAspectRatio="none" style="width:600px;height:522px;" version="1.1" viewBox="0 0 600 522" width="600px" zoomAndPan="magnify"><defs><linearGradient id="gltui3bp2czky0" x1="50%" x2="50%" y1="0%" y2="100%"><stop offset="0%" stop-color="#F4F4F4"/><stop offset="100%" stop-color="#F4F4F4"/></linearGradient></defs><g><g id="elem_user1"><rect fill="url(#gltui3bp2czky0)" height="110.4141" style="stroke:#C6C6C6;stroke-width:1.0;" width="132.9067" x="33" y="52"/><rect fill="url(#gltui3bp2czky0)" height="36.8047" style="stroke:#C6C6C6;stroke-width:1.0;" width="132.9067" x="33" y="52"/><text fill="#262626" font-family="sans-serif" font-size="11" lengthAdjust="spacing" textLength="30.9912" x="83.9578" y="74.2104">user1</text><line style="stroke:#C6C6C6;stroke-width:1.0;" x1="34" x2="164.9067" y1="88.8047" y2="88.8047"/><text fill="#262626" font-family="sans-serif" font-size="11" lengthAdjust="spacing" textLength="100.9067" x="49" y="113.0151">name = "Dummy"</text><text fill="#262626" font-family="sans-serif" font-size="11" lengthAdjust="spacing" textLength="47.2441" x="49" y="145.8198">id = 123</text></g><g id="elem_user2"><rect fill="url(#gltui3bp2czky0)" height="110.4141" style="stroke:#C6C6C6;stroke-width:1.0;" width="132.9067" x="184" y="52"/><rect fill="url(#gltui3bp2czky0)" height="36.8047" style="stroke:#C6C6C6;stroke-width:1.0;" width="132.9067" x="184" y="52"/><text fill="#262626" font-family="sans-serif" font-size="11" lengthAdjust="spacing" textLength="30.9912" x="234.9578" y="74.2104">user2</text><line style="stroke:#C6C6C6;stroke-width:1.0;" x1="185" x2="315.9067" y1="88.8047" y2="88.8047"/><text fill="#262626" font-family="sans-serif" font-size="11" lengthAdjust="spacing" textLength="100.9067" x="200" y="113.0151">name = "Dummy"</text><text fill="#262626" font-family="sans-serif" font-size="11" lengthAdjust="spacing" textLength="47.2441" x="200" y="145.8198">id = 123</text></g><g id="elem_o1"><rect fill="url(#gltui3bp2czky0)" height="52.8047" style="stroke:#C6C6C6;stroke-width:1.0;" width="47.7285" x="335.5" y="80.5"/><rect fill="url(#gltui3bp2czky0)" height="36.8047" style="stroke:#C6C6C6;stroke-width:1.0;" width="47.7285" x="335.5" y="80.5"/><text fill="#262626" font-family="sans-serif" font-size="11" lengthAdjust="spacing" textLength="13.7285" x="352.5" y="102.7104">o1</text><line style="stroke:#C6C6C6;stroke-width:1.0;" x1="336.5" x2="382.2285" y1="117.3047" y2="117.3047"/></g><g id="elem_o2"><rect fill="url(#gltui3bp2czky0)" height="52.8047" style="stroke:#C6C6C6;stroke-width:1.0;" width="47.7285" x="401.5" y="80.5"/><rect fill="url(#gltui3bp2czky0)" height="36.8047" style="stroke:#C6C6C6;stroke-width:1.0;" width="47.7285" x="401.5" y="80.5"/><text fill="#262626" font-family="sans-serif" font-size="11" lengthAdjust="spacing" textLength="13.7285" x="418.5" y="102.7104">o2</text><line style="stroke:#C6C6C6;stroke-width:1.0;" x1="402.5" x2="448.2285" y1="117.3047" y2="117.3047"/></g><g id="elem_dia"><polygon fill="url(#gltui3bp2czky0)" points="392.5,339,404.5,351,392.5,363,380.5,351,392.5,339" style="stroke:#F4F4F4;stroke-width:0.5;"/></g><g id="elem_o3"><rect fill="url(#gltui3bp2czky0)" height="52.8047" style="stroke:#C6C6C6;stroke-width:1.0;" width="47.7285" x="368.5" y="464"/><rect fill="url(#gltui3bp2czky0)" height="36.8047" style="stroke:#C6C6C6;stroke-width:1.0;" width="47.7285" x="368.5" y="464"/><text fill="#262626" font-family="sans-serif" font-size="11" lengthAdjust="spacing" textLength="13.7285" x="385.5" y="486.2104">o3</text><line style="stroke:#C6C6C6;stroke-width:1.0;" x1="369.5" x2="415.2285" y1="500.8047" y2="500.8047"/></g><g id="elem_London"><rect fill="url(#gltui3bp2czky0)" height="52.8047" style="stroke:#C6C6C6;stroke-width:1.0;" width="74.5142" x="211" y="324.5"/><rect fill="url(#gltui3bp2czky0)" height="36.8047" style="stroke:#C6C6C6;stroke-width:1.0;" width="74.5142" x="211" y="324.5"/><text fill="#262626" font-family="sans-serif" font-size="11" lengthAdjust="spacing" textLength="40.5142" x="228" y="346.7104">London</text><line style="stroke:#C6C6C6;stroke-width:1.0;" x1="212" x2="284.5142" y1="361.3047" y2="361.3047"/></g><g id="elem_CapitalCity"><rect fill="#F1F1F1" height="151.875" style="stroke:#181818;stroke-width:0.5;" width="186.6504" x="6" y="275"/><text fill="#000000" font-family="sans-serif" font-size="12" lengthAdjust="spacing" textLength="65.5957" x="66.5273" y="298.1387">CapitalCity</text><line style="stroke:#181818;stroke-width:1.0;" x1="6" x2="192.6504" y1="312.9688" y2="312.9688"/><text fill="#000000" font-family="sans-serif" font-size="12" lengthAdjust="spacing" textLength="16.6523" x="90.999" y="336.1074">UK</text><line style="stroke:#181818;stroke-width:1.0;" x1="6" x2="192.6504" y1="350.9375" y2="350.9375"/><text fill="#000000" font-family="sans-serif" font-size="12" lengthAdjust="spacing" textLength="24.6094" x="36.3779" y="374.0762">USA</text><text fill="#000000" font-family="sans-serif" font-size="12" lengthAdjust="spacing" textLength="71.2852" x="106.3652" y="374.0762">Washington</text><line style="stroke:#181818;stroke-width:1.0;" x1="91.3652" x2="91.3652" y1="350.9375" y2="388.9063"/><line style="stroke:#181818;stroke-width:1.0;" x1="6" x2="192.6504" y1="388.9063" y2="388.9063"/><text fill="#000000" font-family="sans-serif" font-size="12" lengthAdjust="spacing" textLength="55.3652" x="21" y="412.0449">Germany</text><text fill="#000000" font-family="sans-serif" font-size="12" lengthAdjust="spacing" textLength="34.8223" x="106.3652" y="412.0449">Berlin</text><line style="stroke:#181818;stroke-width:1.0;" x1="91.3652" x2="91.3652" y1="388.9063" y2="426.875"/></g><rect fill="#F1F1F1" height="189.8438" style="stroke:#181818;stroke-width:0.5;" width="126.1523" x="467.5" y="12"/><text fill="#000000" font-family="sans-serif" font-size="12" lengthAdjust="spacing" textLength="24.5332" x="518.3096" y="35.1387">json</text><line style="stroke:#181818;stroke-width:1.0;" x1="527.0488" x2="527.0488" y1="49.9688" y2="201.8438"/><line style="stroke:#181818;stroke-width:1.0;" x1="467.5" x2="593.6523" y1="49.9688" y2="49.9688"/><text fill="#000000" font-family="sans-serif" font-size="12" lengthAdjust="spacing" textLength="24.8027" x="482.5" y="73.1074">fruit</text><text fill="#000000" font-family="sans-serif" font-size="12" lengthAdjust="spacing" textLength="34.1602" x="542.0488" y="73.1074">Apple</text><line style="stroke:#181818;stroke-width:1.0;" x1="467.5" x2="593.6523" y1="87.9375" y2="87.9375"/><text fill="#000000" font-family="sans-serif" font-size="12" lengthAdjust="spacing" textLength="23.2676" x="482.5" y="111.0762">size</text><text fill="#000000" font-family="sans-serif" font-size="12" lengthAdjust="spacing" textLength="33.9727" x="542.0488" y="111.0762">Large</text><line style="stroke:#181818;stroke-width:1.0;" x1="467.5" x2="593.6523" y1="125.9063" y2="125.9063"/><text fill="#000000" font-family="sans-serif" font-size="12" lengthAdjust="spacing" textLength="29.5488" x="482.5" y="149.0449">color</text><text fill="#000000" font-family="sans-serif" font-size="12" lengthAdjust="spacing" textLength="23.3379" x="542.0488" y="149.0449">Red</text><line style="stroke:#181818;stroke-width:1.0;" x1="527.0488" x2="593.6523" y1="163.875" y2="163.875"/><text fill="#000000" font-family="sans-serif" font-size="12" lengthAdjust="spacing" textLength="36.6035" x="542.0488" y="187.0137">Green</text><polygon fill="#C6C6C6" points="390.9902,338.9281,393.7375,329.4702,390.3146,333.9739,385.8109,330.5511,390.9902,338.9281" style="stroke:#C6C6C6;stroke-width:1.0;"/><path d="M363.0316,133.8982 C370.1646,186.2072 385.2222,296.6294 390.1795,332.9831 " fill="none" style="stroke:#C6C6C6;stroke-width:1.0;"/><polygon fill="#C6C6C6" points="394.0098,338.9281,399.1891,330.5511,394.6854,333.9739,391.2625,329.4702,394.0098,338.9281" style="stroke:#C6C6C6;stroke-width:1.0;"/><path d="M421.9684,133.8982 C414.8354,186.2072 399.7778,296.6294 394.8205,332.9831 " fill="none" style="stroke:#C6C6C6;stroke-width:1.0;"/><text fill="#262626" font-family="sans-serif" font-size="12" lengthAdjust="spacing" textLength="7.6348" x="376.0098" y="326.0668">1</text><text fill="#262626" font-family="sans-serif" font-size="12" lengthAdjust="spacing" textLength="7.6348" x="403.9684" y="156.0369">1</text><polygon fill="#C6C6C6" points="392.5,463.9784,396.5,454.9784,392.5,458.9784,388.5,454.9784,392.5,463.9784" style="stroke:#C6C6C6;stroke-width:1.0;"/><path d="M392.5,363.2522 C392.5,385.1235 392.5,427.8621 392.5,457.9784 " fill="none" style="stroke:#C6C6C6;stroke-width:1.0;"/><polygon fill="#C6C6C6" points="210.9181,351,201.9181,347,205.9181,351,201.9181,355,210.9181,351" style="stroke:#C6C6C6;stroke-width:1.0;"/><path d="M193.207,351 C199.1107,351 199.0144,351 204.9181,351 " fill="none" style="stroke:#C6C6C6;stroke-width:1.0;"/><polygon fill="#C6C6C6" points="99.5,274.592,103.5,265.592,99.5,269.592,95.5,265.592,99.5,274.592" style="stroke:#C6C6C6;stroke-width:1.0;"/><path d="M99.5,162.0083 C99.5,195.1623 99.5,232.1147 99.5,268.592 " fill="none" style="stroke:#C6C6C6;stroke-width:1.0;"/><text fill="#262626" font-family="sans-serif" font-size="12" lengthAdjust="spacing" textLength="30.9785" x="111.5" y="243.1387">visits</text></g></svg>