<svg xmlns="http://www.w3.org/2000/svg" xmlns:xlink="http://www.w3.org/1999/xlink" contentStyleType="text/css" height="213.5417px" preserveAspectRatio="none" style="width:792px;height:213px;" version="1.1" viewBox="0 0 792 213" width="792.7083px" zoomAndPan="magnify"><title>How title is parsed by PlantUML?</title><defs/><g><polygon fill="none" points="194.1116,20.8333,194.1116,21.0523,204.4492,20.4017,214.7867,21.0347,225.1242,21.2497,235.4618,20.0902,245.7993,20.7524,256.1368,20.3891,266.4743,20.4339,276.8119,20.7623,287.1494,20.1132,297.4869,21.41,307.8245,20.1768,318.162,20.6273,328.4995,21.2833,338.837,20.744,349.1746,20.9044,359.5121,20.8001,369.8496,21.0193,380.1872,21.0824,390.5247,21.4434,400.8622,21.5323,411.1998,21.5409,421.5373,21.0986,431.8748,21.3162,442.2123,21.5648,452.5499,20.0821,462.8874,21.5401,473.2249,20.5245,483.5625,21.3894,493.9,20.3177,504.2375,20.762,514.5751,21.6058,524.9126,20.7826,535.2501,20.943,545.5876,21.1861,555.9252,21.2669,566.2627,20.8293,576.6002,21.1325,586.9378,20.2371,597.2753,20.8333,597.3131,20.9246,597.9374,21.2533,598.5129,21.4641,599.1245,21.7622,599.5681,21.6547,600.2216,22.0537,600.0124,21.9671,600.2663,22.5604,600.6908,23.2244,600.8908,23.7954,601.4165,24.5013,601.442,25,601.3813,25,601.3228,32.7669,601.5212,40.5339,601.2104,48.3008,601.2617,56.0677,601.442,63.8346,601.6501,63.9209,601.3376,64.4818,601.1894,65.1107,600.6065,65.5596,600.568,66.2341,600.2216,66.7809,600.3,66.9703,599.5695,66.8734,599.0303,67.2383,598.4705,67.5536,597.9511,67.9663,597.2753,68.0013,597.2753,67.9969,586.9378,68.4831,576.6002,67.4244,566.2627,67.2958,555.9252,68.5259,545.5876,67.2545,535.2501,68.5315,524.9126,68.2165,514.5751,67.7222,504.2375,67.6328,493.9,68.4792,483.5625,67.6895,473.2249,68.6178,462.8874,67.4255,452.5499,68.6445,442.2123,68.5058,431.8748,68.2565,421.5373,68.0505,411.1998,68.7582,400.8622,68.6404,390.5247,68.1776,380.1872,68.2807,369.8496,67.8656,359.5121,68.7476,349.1746,68.1626,338.837,68.1811,328.4995,67.3676,318.162,67.5792,307.8245,68.5542,297.4869,68.449,287.1494,67.9566,276.8119,67.6657,266.4743,67.7733,256.1368,67.2865,245.7993,68.4333,235.4618,68.7717,225.1242,68.5496,214.7867,68.7252,204.4492,67.8589,194.1116,68.0013,194.1232,68.0293,193.4709,67.6329,192.9709,67.6043,192.3767,67.3482,191.828,67.2022,191.1654,66.7809,191.0917,66.7504,190.8782,66.1738,190.8195,65.6613,190.6151,65.0885,190.0246,64.3558,189.945,63.8346,189.8776,63.8346,189.9968,56.0677,189.7329,48.3008,190.0677,40.5339,190.0345,32.7669,189.945,25,189.9126,24.9866,190.2347,24.4296,190.6669,23.9183,190.5768,23.1907,191.0223,22.6848,191.1654,22.0537,191.2033,22.1454,191.77,21.8468,192.3626,21.6108,192.9482,21.3579,193.4394,20.8772,194.1116,20.8333" style="stroke:#4D4D4D;stroke-width:1.0416666666666667;"/><text fill="#2E2E2E" font-family="Segoe Print" font-size="20.8333" font-weight="bold" lengthAdjust="spacing" textLength="388.5803" x="201.4033" y="51.6296">How title is parsed by PlantUML?</text><path d="M10.4167,122.3226 " fill="none" style="stroke:#000000;stroke-width:1.0416666666666667;"/><polygon fill="#F1F1F1" points="15.625,108.6263,15.625,108.6993,18.0688,108.4824,20.5127,108.6934,22.9565,108.7651,25.4004,108.3786,27.8442,108.6263,27.8339,108.6014,28.5241,108.7946,29.2664,109.1135,30.0449,109.5197,30.6987,109.6249,31.5271,110.1518,31.7047,110.2254,31.63,110.8046,32.0738,111.5986,32.5809,112.4189,32.72,113.0867,33.0526,113.8346,33.0763,113.8346,33.0415,117.2298,33.1146,120.625,33.1356,124.0202,33.2559,127.4154,33.0526,130.8105,33.2678,130.8997,32.9654,131.6374,32.5241,132.3175,32.286,133.0819,32.0575,133.8501,31.5271,134.4934,31.4313,134.262,30.8807,135.0162,30.0145,135.0085,29.3883,135.5799,28.515,135.555,27.8442,136.0189,27.8442,135.9951,25.4004,136.2764,22.9565,136.002,20.5127,136.0554,18.0688,136.1365,15.625,136.0189,15.6803,136.1524,14.8879,135.7125,14.19,135.5008,13.3392,134.92,12.7165,134.8897,11.9422,134.4934,12.118,134.5662,11.7797,133.8159,11.5286,133.1017,10.8719,132.2195,10.5125,131.4605,10.4167,130.8105,10.2009,130.8105,10.3962,127.4154,10.3484,124.0202,10.6533,120.625,10.356,117.2298,10.4167,113.8346,10.3066,113.7891,10.795,113.1284,10.8129,112.2729,11.1654,111.5559,11.8452,110.9746,11.9422,110.1518,12,110.2915,12.7763,110.0823,13.3725,109.4384,14.1943,109.3389,14.9669,109.1208,15.625,108.6263" style="stroke:#181818;stroke-width:1.5625;"/><text fill="#000000" font-family="sans-serif" font-size="14.5833" lengthAdjust="spacing" textLength="12.2192" x="15.625" y="127.3712">^</text><path d="M33.0526,122.3226 L33.0526,122.4199 L37.2192,122.1308 L41.3859,122.4121 L45.5526,122.5076 L49.7192,121.9923 L53.8859,122.3226 " fill="none" style="stroke:#000000;stroke-width:1.0416666666666667;"/><polygon fill="none" points="53.8859,108.6263,53.8859,108.6993,61.6715,108.4824,69.4572,108.6934,77.2428,108.7651,85.0285,108.3786,92.8141,108.6263,92.7871,108.6263,92.666,114.1048,92.681,119.5833,92.7905,125.0618,92.5741,130.5404,92.8141,136.0189,92.8141,136.2111,85.0285,135.8,77.2428,135.9502,69.4572,136.1689,61.6715,135.9891,53.8859,136.0189,53.9096,136.0189,53.8748,130.5404,53.9479,125.0618,53.9689,119.5833,54.0893,114.1048,53.8859,108.6263" style="stroke:#181818;stroke-width:0.5208333333333334;"/><text fill="#000000" font-family="sans-serif" font-size="14.5833" lengthAdjust="spacing" textLength="28.5116" x="59.0942" y="127.3712">title</text><path d="M92.8141,122.3226 L92.8141,122.4199 L96.9808,122.1308 L101.1475,122.4121 L105.3141,122.5076 L109.4808,121.9923 L113.6475,122.3226 " fill="none" style="stroke:#000000;stroke-width:1.0416666666666667;"/><path d="M138.6475,122.3226 " fill="none" style="stroke:#000000;stroke-width:1.0416666666666667;"/><path d="M146.9808,113.9893 L146.9808,113.9893 L147.0496,114.0581 L145.1785,115.5203 L143.7107,117.3859 L142.1116,119.1201 L140.0806,120.4224 L138.6475,122.3226 " fill="none" style="stroke:#000000;stroke-width:1.0416666666666667;"/><path d="M146.9808,93.0013 L147.0781,93.0013 L146.789,97.1989 L147.0703,101.3965 L147.1658,105.5941 L146.6505,109.7917 L146.9808,113.9893 " fill="none" style="stroke:#000000;stroke-width:1.0416666666666667;"/><path d="M146.9808,93.0013 L146.9808,93.0013 L147.0496,93.0701 L148.5118,91.199 L150.3774,89.7312 L152.1116,88.1321 L153.4139,86.1011 L155.3141,84.668 " fill="none" style="stroke:#000000;stroke-width:1.0416666666666667;"/><path d="M155.3141,84.668 L155.3141,84.9599 L165.4872,84.0925 L175.6602,84.9364 L185.8332,85.2231 L196.0063,83.6771 L206.1793,84.56 L216.3523,84.668 " fill="none" style="stroke:#000000;stroke-width:1.0416666666666667;"/><path d="M177.6461,84.668 L177.8407,84.668 L177.2624,84.043 L177.825,83.418 L178.0162,82.793 L176.9855,82.168 L177.6461,81.543 L177.6139,81.4786 L178.7195,81.8148 L179.9873,82.4754 L181.3679,83.3615 L182.3598,83.4704 L183.8961,84.668 L184.1253,85.1265 L182.3851,84.771 L181.3142,85.7542 L180.3249,86.9007 L178.8606,87.0969 L177.6461,87.793 L177.7093,87.793 L177.6165,87.168 L177.8114,86.543 L177.8675,85.918 L178.1884,85.293 L177.6461,84.668 " fill="#000000" style="stroke:#000000;stroke-width:1.0416666666666667;"/><path d="M224.6857,113.9893 L224.6857,113.9893 L224.7545,114.0581 L226.2167,115.5203 L228.0823,117.3859 L229.8165,119.1201 L231.1188,120.4224 L233.019,122.3226 " fill="none" style="stroke:#000000;stroke-width:1.0416666666666667;"/><path d="M224.6857,93.0013 L224.783,93.0013 L224.4939,97.1989 L224.7752,101.3965 L224.8707,105.5941 L224.3554,109.7917 L224.6857,113.9893 " fill="none" style="stroke:#000000;stroke-width:1.0416666666666667;"/><path d="M216.3523,84.668 L216.3523,84.668 L216.4211,84.7368 L217.8834,86.199 L219.7489,88.0646 L221.4832,89.7988 L222.7855,91.1011 L224.6857,93.0013 " fill="none" style="stroke:#000000;stroke-width:1.0416666666666667;"/><path d="M138.6475,122.3226 L138.6475,122.4199 L141.7725,122.1308 L144.8975,122.4121 L148.0225,122.5076 L151.1475,121.9923 L154.2725,122.3226 " fill="none" style="stroke:#000000;stroke-width:1.0416666666666667;"/><path d="M217.394,122.3226 L217.394,122.4199 L220.519,122.1308 L223.644,122.4121 L226.769,122.5076 L229.894,121.9923 L233.019,122.3226 " fill="none" style="stroke:#000000;stroke-width:1.0416666666666667;"/><path d="M162.6058,113.9893 L162.6058,113.9893 L162.6746,114.0581 L164.1368,115.5203 L166.0024,117.3859 L167.7366,119.1201 L169.0389,120.4224 L170.9391,122.3226 " fill="none" style="stroke:#000000;stroke-width:1.0416666666666667;"/><path d="M162.6058,109.668 L162.7031,109.668 L162.414,110.5322 L162.6953,111.3965 L162.7908,112.2607 L162.2755,113.125 L162.6058,113.9893 " fill="none" style="stroke:#000000;stroke-width:1.0416666666666667;"/><path d="M162.6058,109.668 L162.6058,109.668 L162.6746,109.7368 L164.1368,107.8657 L166.0024,106.3979 L167.7366,104.7988 L169.0389,102.7678 L170.9391,101.3346 " fill="none" style="stroke:#000000;stroke-width:1.0416666666666667;"/><path d="M169.8975,101.3346 L169.8975,101.4319 L176.2718,101.1428 L182.6461,101.4241 L189.0204,101.5197 L195.3947,101.0044 L201.769,101.3346 " fill="none" style="stroke:#000000;stroke-width:1.0416666666666667;"/><path d="M186.9371,101.3346 L187.1317,101.3346 L186.5534,100.7096 L187.116,100.0846 L187.3071,99.4596 L186.2765,98.8346 L186.9371,98.2096 L186.9049,98.1453 L185.5104,98.4814 L184.2783,99.142 L183.1588,100.0282 L181.6508,100.1371 L180.6871,101.3346 L180.9163,101.7931 L181.6761,101.4377 L183.1052,102.4209 L184.6159,103.5674 L185.6515,103.7636 L186.9371,104.4596 L187.0002,104.4596 L186.9075,103.8346 L187.1024,103.2096 L187.1585,102.5846 L187.4794,101.9596 L186.9371,101.3346 " fill="#000000" style="stroke:#000000;stroke-width:1.0416666666666667;"/><path d="M209.0607,113.9893 L209.0607,113.9893 L209.1295,114.0581 L207.2584,115.5203 L205.7906,117.3859 L204.1915,119.1201 L202.1605,120.4224 L200.7273,122.3226 " fill="none" style="stroke:#000000;stroke-width:1.0416666666666667;"/><path d="M209.0607,109.668 L209.158,109.668 L208.8689,110.5322 L209.1502,111.3965 L209.2457,112.2607 L208.7304,113.125 L209.0607,113.9893 " fill="none" style="stroke:#000000;stroke-width:1.0416666666666667;"/><path d="M200.7273,101.3346 L200.7273,101.3346 L200.7961,101.4034 L202.2584,102.8657 L204.1239,104.7312 L205.8582,106.4655 L207.1605,107.7678 L209.0607,109.668 " fill="none" style="stroke:#000000;stroke-width:1.0416666666666667;"/><path d="M154.2725,122.3226 L154.2725,122.4199 L157.3975,122.1308 L160.5225,122.4121 L163.6475,122.5076 L166.7725,121.9923 L169.8975,122.3226 " fill="none" style="stroke:#000000;stroke-width:1.0416666666666667;"/><path d="M201.769,122.3226 L201.769,122.4199 L204.894,122.1308 L208.019,122.4121 L211.144,122.5076 L214.269,121.9923 L217.394,122.3226 " fill="none" style="stroke:#000000;stroke-width:1.0416666666666667;"/><polygon fill="none" points="169.8975,108.6263,169.8975,108.6993,176.2718,108.4824,182.6461,108.6934,189.0204,108.7651,195.3947,108.3786,201.769,108.6263,201.742,108.6263,201.6209,114.1048,201.6358,119.5833,201.7453,125.0618,201.5289,130.5404,201.769,136.0189,201.769,136.2111,195.3947,135.8,189.0204,135.9502,182.6461,136.1689,176.2718,135.9891,169.8975,136.0189,169.9212,136.0189,169.8864,130.5404,169.9594,125.0618,169.9805,119.5833,170.1008,114.1048,169.8975,108.6263" style="stroke:#181818;stroke-width:1.0416666666666667;stroke-dasharray:5.0,5.0;"/><text fill="#000000" font-family="sans-serif" font-size="14.5833" lengthAdjust="spacing" textLength="21.4549" x="175.1058" y="127.3712">%s</text><path d="M233.019,122.3226 L233.019,122.4199 L237.1857,122.1308 L241.3523,122.4121 L245.519,122.5076 L249.6857,121.9923 L253.8523,122.3226 " fill="none" style="stroke:#000000;stroke-width:1.0416666666666667;"/><polygon fill="none" points="253.8523,108.6263,253.8523,108.6993,256.9183,108.4824,259.9843,108.6934,263.0503,108.7651,266.1163,108.3786,269.1823,108.6263,269.1553,108.6263,269.0342,114.1048,269.0492,119.5833,269.1587,125.0618,268.9423,130.5404,269.1823,136.0189,269.1823,136.2111,266.1163,135.8,263.0503,135.9502,259.9843,136.1689,256.9183,135.9891,253.8523,136.0189,253.876,136.0189,253.8412,130.5404,253.9143,125.0618,253.9354,119.5833,254.0557,114.1048,253.8523,108.6263" style="stroke:#181818;stroke-width:0.5208333333333334;"/><text fill="#000000" font-family="sans-serif" font-size="14.5833" lengthAdjust="spacing" textLength="4.9133" x="259.0607" y="127.3712">:</text><path d="M269.1823,122.3226 L269.1823,122.4199 L273.349,122.1308 L277.5157,122.4121 L281.6823,122.5076 L285.849,121.9923 L290.0157,122.3226 " fill="none" style="stroke:#000000;stroke-width:1.0416666666666667;"/><path d="M298.349,113.9893 L298.349,113.9893 L298.4178,114.0581 L296.5467,115.5203 L295.0789,117.3859 L293.4798,119.1201 L291.4488,120.4224 L290.0157,122.3226 " fill="none" style="stroke:#000000;stroke-width:1.0416666666666667;"/><path d="M298.349,93.0013 L298.4463,93.0013 L298.1572,97.1989 L298.4385,101.3965 L298.534,105.5941 L298.0187,109.7917 L298.349,113.9893 " fill="none" style="stroke:#000000;stroke-width:1.0416666666666667;"/><path d="M298.349,93.0013 L298.349,93.0013 L298.4178,93.0701 L299.88,91.199 L301.7456,89.7312 L303.4798,88.1321 L304.7821,86.1011 L306.6823,84.668 " fill="none" style="stroke:#000000;stroke-width:1.0416666666666667;"/><path d="M306.6823,84.668 L306.6823,84.9599 L316.8554,84.0925 L327.0284,84.9364 L337.2014,85.2231 L347.3745,83.6771 L357.5475,84.56 L367.7205,84.668 " fill="none" style="stroke:#000000;stroke-width:1.0416666666666667;"/><path d="M329.0143,84.668 L329.2089,84.668 L328.6307,84.043 L329.1933,83.418 L329.3844,82.793 L328.3537,82.168 L329.0143,81.543 L328.9821,81.4786 L330.0877,81.8148 L331.3555,82.4754 L332.7361,83.3615 L333.728,83.4704 L335.2643,84.668 L335.4935,85.1265 L333.7533,84.771 L332.6824,85.7542 L331.6931,86.9007 L330.2288,87.0969 L329.0143,87.793 L329.0775,87.793 L328.9847,87.168 L329.1796,86.543 L329.2357,85.918 L329.5566,85.293 L329.0143,84.668 " fill="#000000" style="stroke:#000000;stroke-width:1.0416666666666667;"/><path d="M376.0539,113.9893 L376.0539,113.9893 L376.1227,114.0581 L377.5849,115.5203 L379.4505,117.3859 L381.1847,119.1201 L382.487,120.4224 L384.3872,122.3226 " fill="none" style="stroke:#000000;stroke-width:1.0416666666666667;"/><path d="M376.0539,93.0013 L376.1512,93.0013 L375.8621,97.1989 L376.1434,101.3965 L376.2389,105.5941 L375.7236,109.7917 L376.0539,113.9893 " fill="none" style="stroke:#000000;stroke-width:1.0416666666666667;"/><path d="M367.7205,84.668 L367.7205,84.668 L367.7893,84.7368 L369.2516,86.199 L371.1171,88.0646 L372.8514,89.7988 L374.1537,91.1011 L376.0539,93.0013 " fill="none" style="stroke:#000000;stroke-width:1.0416666666666667;"/><path d="M290.0157,122.3226 L290.0157,122.4199 L293.1407,122.1308 L296.2657,122.4121 L299.3907,122.5076 L302.5157,121.9923 L305.6407,122.3226 " fill="none" style="stroke:#000000;stroke-width:1.0416666666666667;"/><path d="M368.7622,122.3226 L368.7622,122.4199 L371.8872,122.1308 L375.0122,122.4121 L378.1372,122.5076 L381.2622,121.9923 L384.3872,122.3226 " fill="none" style="stroke:#000000;stroke-width:1.0416666666666667;"/><path d="M313.974,113.9893 L313.974,113.9893 L314.0428,114.0581 L315.505,115.5203 L317.3706,117.3859 L319.1048,119.1201 L320.4071,120.4224 L322.3073,122.3226 " fill="none" style="stroke:#000000;stroke-width:1.0416666666666667;"/><path d="M313.974,109.668 L314.0713,109.668 L313.7822,110.5322 L314.0635,111.3965 L314.159,112.2607 L313.6437,113.125 L313.974,113.9893 " fill="none" style="stroke:#000000;stroke-width:1.0416666666666667;"/><path d="M313.974,109.668 L313.974,109.668 L314.0428,109.7368 L315.505,107.8657 L317.3706,106.3979 L319.1048,104.7988 L320.4071,102.7678 L322.3073,101.3346 " fill="none" style="stroke:#000000;stroke-width:1.0416666666666667;"/><path d="M321.2657,101.3346 L321.2657,101.4319 L327.64,101.1428 L334.0143,101.4241 L340.3886,101.5197 L346.7629,101.0044 L353.1372,101.3346 " fill="none" style="stroke:#000000;stroke-width:1.0416666666666667;"/><path d="M338.3053,101.3346 L338.4999,101.3346 L337.9216,100.7096 L338.4842,100.0846 L338.6753,99.4596 L337.6447,98.8346 L338.3053,98.2096 L338.2731,98.1453 L336.8787,98.4814 L335.6465,99.142 L334.527,100.0282 L333.019,100.1371 L332.0553,101.3346 L332.2845,101.7931 L333.0443,101.4377 L334.4734,102.4209 L335.9841,103.5674 L337.0197,103.7636 L338.3053,104.4596 L338.3684,104.4596 L338.2757,103.8346 L338.4706,103.2096 L338.5267,102.5846 L338.8476,101.9596 L338.3053,101.3346 " fill="#000000" style="stroke:#000000;stroke-width:1.0416666666666667;"/><path d="M360.4289,113.9893 L360.4289,113.9893 L360.4977,114.0581 L358.6266,115.5203 L357.1588,117.3859 L355.5597,119.1201 L353.5287,120.4224 L352.0955,122.3226 " fill="none" style="stroke:#000000;stroke-width:1.0416666666666667;"/><path d="M360.4289,109.668 L360.5262,109.668 L360.2371,110.5322 L360.5184,111.3965 L360.6139,112.2607 L360.0986,113.125 L360.4289,113.9893 " fill="none" style="stroke:#000000;stroke-width:1.0416666666666667;"/><path d="M352.0955,101.3346 L352.0955,101.3346 L352.1643,101.4034 L353.6266,102.8657 L355.4921,104.7312 L357.2264,106.4655 L358.5287,107.7678 L360.4289,109.668 " fill="none" style="stroke:#000000;stroke-width:1.0416666666666667;"/><path d="M305.6407,122.3226 L305.6407,122.4199 L308.7657,122.1308 L311.8907,122.4121 L315.0157,122.5076 L318.1407,121.9923 L321.2657,122.3226 " fill="none" style="stroke:#000000;stroke-width:1.0416666666666667;"/><path d="M353.1372,122.3226 L353.1372,122.4199 L356.2622,122.1308 L359.3872,122.4121 L362.5122,122.5076 L365.6372,121.9923 L368.7622,122.3226 " fill="none" style="stroke:#000000;stroke-width:1.0416666666666667;"/><polygon fill="none" points="321.2657,108.6263,321.2657,108.6993,327.64,108.4824,334.0143,108.6934,340.3886,108.7651,346.7629,108.3786,353.1372,108.6263,353.1102,108.6263,352.9891,114.1048,353.004,119.5833,353.1135,125.0618,352.8971,130.5404,353.1372,136.0189,353.1372,136.2111,346.7629,135.8,340.3886,135.9502,334.0143,136.1689,327.64,135.9891,321.2657,136.0189,321.2894,136.0189,321.2546,130.5404,321.3277,125.0618,321.3487,119.5833,321.469,114.1048,321.2657,108.6263" style="stroke:#181818;stroke-width:1.0416666666666667;stroke-dasharray:5.0,5.0;"/><text fill="#000000" font-family="sans-serif" font-size="14.5833" lengthAdjust="spacing" textLength="21.4549" x="326.474" y="127.3712">%s</text><path d="M113.6475,122.3226 L113.6475,122.4199 L118.6475,122.1308 L123.6475,122.4121 L128.6475,122.5076 L133.6475,121.9923 L138.6475,122.3226 " fill="none" style="stroke:#000000;stroke-width:1.0416666666666667;"/><path d="M384.3872,122.3226 L384.3872,122.4199 L389.3872,122.1308 L394.3872,122.4121 L399.3872,122.5076 L404.3872,121.9923 L409.3872,122.3226 " fill="none" style="stroke:#000000;stroke-width:1.0416666666666667;"/><path d="M146.9808,164.2985 L146.9808,164.2985 L147.0496,164.3673 L148.5118,165.8295 L150.3774,167.6951 L152.1116,169.4293 L153.4139,170.7316 L155.3141,172.6318 " fill="none" style="stroke:#000000;stroke-width:1.0416666666666667;"/><path d="M146.9808,159.9772 L147.0781,159.9772 L146.789,160.8415 L147.0703,161.7057 L147.1658,162.57 L146.6505,163.4342 L146.9808,164.2985 " fill="none" style="stroke:#000000;stroke-width:1.0416666666666667;"/><path d="M146.9808,159.9772 L146.9808,159.9772 L147.0496,160.046 L148.5118,158.1749 L150.3774,156.7072 L152.1116,155.1081 L153.4139,153.077 L155.3141,151.6439 " fill="none" style="stroke:#000000;stroke-width:1.0416666666666667;"/><path d="M154.2725,151.6439 L154.2725,151.7412 L160.6468,151.4521 L167.0211,151.7334 L173.3954,151.8289 L179.7697,151.3136 L186.144,151.6439 " fill="none" style="stroke:#000000;stroke-width:1.0416666666666667;"/><path d="M171.3121,151.6439 L171.5067,151.6439 L170.9284,151.0189 L171.491,150.3939 L171.6821,149.7689 L170.6515,149.1439 L171.3121,148.5189 L171.2799,148.4545 L169.8854,148.7907 L168.6533,149.4513 L167.5338,150.3374 L166.0258,150.4463 L165.0621,151.6439 L165.2913,152.1024 L166.0511,151.7469 L167.4802,152.7301 L168.9909,153.8766 L170.0265,154.0728 L171.3121,154.7689 L171.3752,154.7689 L171.2825,154.1439 L171.4774,153.5189 L171.5335,152.8939 L171.8544,152.2689 L171.3121,151.6439 " fill="#000000" style="stroke:#000000;stroke-width:1.0416666666666667;"/><path d="M193.4357,164.2985 L193.4357,164.2985 L193.5045,164.3673 L191.6334,165.8295 L190.1656,167.6951 L188.5665,169.4293 L186.5355,170.7316 L185.1023,172.6318 " fill="none" style="stroke:#000000;stroke-width:1.0416666666666667;"/><path d="M193.4357,159.9772 L193.533,159.9772 L193.2439,160.8415 L193.5252,161.7057 L193.6207,162.57 L193.1054,163.4342 L193.4357,164.2985 " fill="none" style="stroke:#000000;stroke-width:1.0416666666666667;"/><path d="M185.1023,151.6439 L185.1023,151.6439 L185.1711,151.7127 L186.6334,153.1749 L188.4989,155.0405 L190.2332,156.7747 L191.5355,158.077 L193.4357,159.9772 " fill="none" style="stroke:#000000;stroke-width:1.0416666666666667;"/><path d="M138.6475,172.6318 L138.6475,172.7291 L141.7725,172.44 L144.8975,172.7213 L148.0225,172.8169 L151.1475,172.3016 L154.2725,172.6318 " fill="none" style="stroke:#000000;stroke-width:1.0416666666666667;"/><path d="M186.144,172.6318 L186.144,172.7291 L189.269,172.44 L192.394,172.7213 L195.519,172.8169 L198.644,172.3016 L201.769,172.6318 " fill="none" style="stroke:#000000;stroke-width:1.0416666666666667;"/><polygon fill="none" points="154.2725,158.9355,154.2725,159.0085,160.6468,158.7917,167.0211,159.0027,173.3954,159.0743,179.7697,158.6878,186.144,158.9355,186.117,158.9355,185.9959,164.4141,186.0108,169.8926,186.1203,175.3711,185.9039,180.8496,186.144,186.3281,186.144,186.5204,179.7697,186.1093,173.3954,186.2595,167.0211,186.4781,160.6468,186.2983,154.2725,186.3281,154.2962,186.3281,154.2614,180.8496,154.3344,175.3711,154.3555,169.8926,154.4758,164.4141,154.2725,158.9355" style="stroke:#181818;stroke-width:1.0416666666666667;stroke-dasharray:5.0,5.0;"/><text fill="#000000" font-family="sans-serif" font-size="14.5833" lengthAdjust="spacing" textLength="21.4549" x="159.4808" y="177.6805">%s</text><path d="M201.769,172.6318 L201.769,172.9238 L211.9145,172.0564 L222.0599,172.9003 L232.2054,173.1869 L242.3508,171.641 L252.4963,172.5239 L262.6417,172.0395 L272.7872,172.0992 L282.9326,172.5372 L293.0781,171.6716 L303.2236,173.4008 L313.369,171.7564 L323.5145,172.3572 L333.6599,173.2318 L343.8054,172.5127 L353.9508,172.7266 L364.0963,172.5875 L374.2418,172.8798 L384.3872,172.6318 " fill="none" style="stroke:#000000;stroke-width:1.0416666666666667;"/><path d="M290.9948,172.6318 L291.1894,172.6318 L290.6111,172.0068 L291.1737,171.3818 L291.3648,170.7568 L290.3342,170.1318 L290.9948,169.5068 L290.9626,169.4425 L292.0682,169.7786 L293.336,170.4392 L294.7165,171.3254 L295.7085,171.4343 L297.2448,172.6318 L297.474,173.0903 L295.7338,172.7349 L294.6629,173.7181 L293.6736,174.8646 L292.2093,175.0608 L290.9948,175.7568 L291.058,175.7568 L290.9652,175.1318 L291.1601,174.5068 L291.2162,173.8818 L291.5371,173.2568 L290.9948,172.6318 " fill="#000000" style="stroke:#000000;stroke-width:1.0416666666666667;"/><path d="M126.1475,160.1318 L126.1475,160.1318 L126.2163,160.2006 L128.5118,162.4962 L131.2107,165.1951 L133.7783,167.7627 L135.9139,169.8983 L138.6475,172.6318 " fill="none" style="stroke:#000000;stroke-width:1.0416666666666667;"/><path d="M126.1475,134.8226 L126.2448,134.8226 L125.9556,139.8844 L126.2369,144.9463 L126.3325,150.0081 L125.8172,155.07 L126.1475,160.1318 " fill="none" style="stroke:#000000;stroke-width:1.0416666666666667;"/><path d="M113.6475,122.3226 L113.6475,122.3226 L113.7163,122.3914 L116.0118,124.687 L118.7107,127.3859 L121.2783,129.9534 L123.4139,132.0891 L126.1475,134.8226 " fill="none" style="stroke:#000000;stroke-width:1.0416666666666667;"/><path d="M396.8872,160.1318 L396.8872,160.1318 L396.956,160.2006 L394.2516,162.4962 L391.9505,165.1951 L389.518,167.7627 L386.6537,169.8983 L384.3872,172.6318 " fill="none" style="stroke:#000000;stroke-width:1.0416666666666667;"/><path d="M396.8872,134.8226 L396.9845,134.8226 L396.6954,139.8844 L396.9767,144.9463 L397.0722,150.0081 L396.5569,155.07 L396.8872,160.1318 " fill="none" style="stroke:#000000;stroke-width:1.0416666666666667;"/><path d="M396.8872,134.8226 L396.8872,134.8226 L396.956,134.8914 L399.2516,132.187 L401.9505,129.8859 L404.518,127.4534 L406.6537,124.5891 L409.3872,122.3226 " fill="none" style="stroke:#000000;stroke-width:1.0416666666666667;"/><path d="M409.3872,122.3226 L409.3872,122.4199 L413.5539,122.1308 L417.7205,122.4121 L421.8872,122.5076 L426.0539,121.9923 L430.2205,122.3226 " fill="none" style="stroke:#000000;stroke-width:1.0416666666666667;"/><path d="M455.2205,122.3226 " fill="none" style="stroke:#000000;stroke-width:1.0416666666666667;"/><polygon fill="none" points="455.2205,108.6263,455.2205,108.6993,461.9267,108.4824,468.6328,108.6934,475.3389,108.7651,482.0451,108.3786,488.7512,108.6263,488.7242,108.6263,488.6031,114.1048,488.6181,119.5833,488.7276,125.0618,488.5112,130.5404,488.7512,136.0189,488.7512,136.2111,482.0451,135.8,475.3389,135.9502,468.6328,136.1689,461.9267,135.9891,455.2205,136.0189,455.2442,136.0189,455.2094,130.5404,455.2825,125.0618,455.3036,119.5833,455.4239,114.1048,455.2205,108.6263" style="stroke:#181818;stroke-width:1.0416666666666667;stroke-dasharray:5.0,5.0;"/><text fill="#000000" font-family="sans-serif" font-size="14.5833" lengthAdjust="spacing" textLength="23.114" x="460.4289" y="127.3712">%g</text><path d="M488.7512,122.3226 L488.7512,122.4199 L492.9179,122.1308 L497.0846,122.4121 L501.2512,122.5076 L505.4179,121.9923 L509.5846,122.3226 " fill="none" style="stroke:#000000;stroke-width:1.0416666666666667;"/><path d="M517.9179,113.9893 L517.9179,113.9893 L517.9867,114.0581 L516.1156,115.5203 L514.6478,117.3859 L513.0487,119.1201 L511.0177,120.4224 L509.5846,122.3226 " fill="none" style="stroke:#000000;stroke-width:1.0416666666666667;"/><path d="M517.9179,93.0013 L518.0152,93.0013 L517.7261,97.1989 L518.0074,101.3965 L518.1029,105.5941 L517.5876,109.7917 L517.9179,113.9893 " fill="none" style="stroke:#000000;stroke-width:1.0416666666666667;"/><path d="M517.9179,93.0013 L517.9179,93.0013 L517.9867,93.0701 L519.4489,91.199 L521.3145,89.7312 L523.0487,88.1321 L524.351,86.1011 L526.2512,84.668 " fill="none" style="stroke:#000000;stroke-width:1.0416666666666667;"/><path d="M526.2512,84.668 L526.2512,84.7653 L535.095,84.4762 L543.9388,84.7575 L552.7826,84.853 L561.6264,84.3377 L570.4702,84.668 " fill="none" style="stroke:#000000;stroke-width:1.0416666666666667;"/><path d="M541.8555,84.668 L542.0501,84.668 L541.4718,84.043 L542.0344,83.418 L542.2255,82.793 L541.1949,82.168 L541.8555,81.543 L541.8233,81.4786 L542.9289,81.8148 L544.1967,82.4754 L545.5772,83.3615 L546.5692,83.4704 L548.1055,84.668 L548.3347,85.1265 L546.5945,84.771 L545.5236,85.7542 L544.5343,86.9007 L543.0699,87.0969 L541.8555,87.793 L541.9187,87.793 L541.8259,87.168 L542.0208,86.543 L542.0769,85.918 L542.3978,85.293 L541.8555,84.668 " fill="#000000" style="stroke:#000000;stroke-width:1.0416666666666667;"/><path d="M578.8035,113.9893 L578.8035,113.9893 L578.8723,114.0581 L580.3345,115.5203 L582.2001,117.3859 L583.9343,119.1201 L585.2366,120.4224 L587.1368,122.3226 " fill="none" style="stroke:#000000;stroke-width:1.0416666666666667;"/><path d="M578.8035,93.0013 L578.9008,93.0013 L578.6117,97.1989 L578.893,101.3965 L578.9885,105.5941 L578.4732,109.7917 L578.8035,113.9893 " fill="none" style="stroke:#000000;stroke-width:1.0416666666666667;"/><path d="M570.4702,84.668 L570.4702,84.668 L570.539,84.7368 L572.0012,86.199 L573.8668,88.0646 L575.601,89.7988 L576.9033,91.1011 L578.8035,93.0013 " fill="none" style="stroke:#000000;stroke-width:1.0416666666666667;"/><path d="M509.5846,122.3226 L509.5846,122.4199 L512.7096,122.1308 L515.8346,122.4121 L518.9596,122.5076 L522.0846,121.9923 L525.2096,122.3226 " fill="none" style="stroke:#000000;stroke-width:1.0416666666666667;"/><path d="M571.5118,122.3226 L571.5118,122.4199 L574.6368,122.1308 L577.7618,122.4121 L580.8868,122.5076 L584.0118,121.9923 L587.1368,122.3226 " fill="none" style="stroke:#000000;stroke-width:1.0416666666666667;"/><path d="M533.5429,113.9893 L533.5429,113.9893 L533.6117,114.0581 L535.0739,115.5203 L536.9395,117.3859 L538.6737,119.1201 L539.976,120.4224 L541.8762,122.3226 " fill="none" style="stroke:#000000;stroke-width:1.0416666666666667;"/><path d="M533.5429,109.668 L533.6402,109.668 L533.3511,110.5322 L533.6324,111.3965 L533.7279,112.2607 L533.2126,113.125 L533.5429,113.9893 " fill="none" style="stroke:#000000;stroke-width:1.0416666666666667;"/><path d="M533.5429,109.668 L533.5429,109.668 L533.6117,109.7368 L535.0739,107.8657 L536.9395,106.3979 L538.6737,104.7988 L539.976,102.7678 L541.8762,101.3346 " fill="none" style="stroke:#000000;stroke-width:1.0416666666666667;"/><path d="M540.8346,101.3346 L540.8346,101.4319 L543.845,101.1428 L546.8555,101.4241 L549.8659,101.5197 L552.8764,101.0044 L555.8868,101.3346 " fill="none" style="stroke:#000000;stroke-width:1.0416666666666667;"/><path d="M547.7826,101.3346 L547.9772,101.3346 L547.399,100.7096 L547.9616,100.0846 L548.1527,99.4596 L547.122,98.8346 L547.7826,98.2096 L547.7504,98.1453 L546.356,98.4814 L545.1238,99.142 L544.0044,100.0282 L542.4963,100.1371 L541.5326,101.3346 L541.7618,101.7931 L542.5216,101.4377 L543.9507,102.4209 L545.4615,103.5674 L546.4971,103.7636 L547.7826,104.4596 L547.8458,104.4596 L547.753,103.8346 L547.9479,103.2096 L548.004,102.5846 L548.3249,101.9596 L547.7826,101.3346 " fill="#000000" style="stroke:#000000;stroke-width:1.0416666666666667;"/><path d="M563.1785,113.9893 L563.1785,113.9893 L563.2473,114.0581 L561.3762,115.5203 L559.9084,117.3859 L558.3093,119.1201 L556.2783,120.4224 L554.8452,122.3226 " fill="none" style="stroke:#000000;stroke-width:1.0416666666666667;"/><path d="M563.1785,109.668 L563.2758,109.668 L562.9867,110.5322 L563.268,111.3965 L563.3635,112.2607 L562.8482,113.125 L563.1785,113.9893 " fill="none" style="stroke:#000000;stroke-width:1.0416666666666667;"/><path d="M554.8452,101.3346 L554.8452,101.3346 L554.914,101.4034 L556.3762,102.8657 L558.2418,104.7312 L559.976,106.4655 L561.2783,107.7678 L563.1785,109.668 " fill="none" style="stroke:#000000;stroke-width:1.0416666666666667;"/><path d="M525.2096,122.3226 L525.2096,122.4199 L528.3346,122.1308 L531.4596,122.4121 L534.5846,122.5076 L537.7096,121.9923 L540.8346,122.3226 " fill="none" style="stroke:#000000;stroke-width:1.0416666666666667;"/><path d="M555.8868,122.3226 L555.8868,122.4199 L559.0118,122.1308 L562.1368,122.4121 L565.2618,122.5076 L568.3868,121.9923 L571.5118,122.3226 " fill="none" style="stroke:#000000;stroke-width:1.0416666666666667;"/><polygon fill="#F1F1F1" points="546.0429,108.6263,546.0429,108.6993,546.97,108.4824,547.8971,108.6934,548.8243,108.7651,549.7514,108.3786,550.6785,108.6263,550.6682,108.6014,551.3584,108.7946,552.1007,109.1135,552.8792,109.5197,553.5329,109.6249,554.3614,110.1518,554.539,110.2254,554.4643,110.8046,554.9081,111.5986,555.4152,112.4189,555.5542,113.0867,555.8868,113.8346,555.9105,113.8346,555.8757,117.2298,555.9488,120.625,555.9699,124.0202,556.0902,127.4154,555.8868,130.8105,556.1021,130.8997,555.7996,131.6374,555.3583,132.3175,555.1203,133.0819,554.8917,133.8501,554.3614,134.4934,554.2655,134.262,553.7149,135.0162,552.8488,135.0085,552.2226,135.5799,551.3493,135.555,550.6785,136.0189,550.6785,135.9951,549.7514,136.2764,548.8243,136.002,547.8971,136.0554,546.97,136.1365,546.0429,136.0189,546.0982,136.1524,545.3058,135.7125,544.6079,135.5008,543.7571,134.92,543.1344,134.8897,542.36,134.4934,542.5359,134.5662,542.1975,133.8159,541.9465,133.1017,541.2898,132.2195,540.9304,131.4605,540.8346,130.8105,540.6188,130.8105,540.8141,127.4154,540.7663,124.0202,541.0712,120.625,540.7739,117.2298,540.8346,113.8346,540.7245,113.7891,541.2129,113.1284,541.2308,112.2729,541.5833,111.5559,542.2631,110.9746,542.36,110.1518,542.4179,110.2915,543.1942,110.0823,543.7904,109.4384,544.6122,109.3389,545.3848,109.1208,546.0429,108.6263" style="stroke:#181818;stroke-width:1.5625;"/><text fill="#000000" font-family="sans-serif" font-size="14.5833" lengthAdjust="spacing" textLength="4.6356" x="546.0429" y="127.3712">.</text><path d="M587.1368,122.3226 L587.1368,122.4199 L591.3035,122.1308 L595.4702,122.4121 L599.6368,122.5076 L603.8035,121.9923 L607.9702,122.3226 " fill="none" style="stroke:#000000;stroke-width:1.0416666666666667;"/><polygon fill="none" points="607.9702,108.6263,607.9702,108.6993,614.6763,108.4824,621.3824,108.6934,628.0886,108.7651,634.7947,108.3786,641.5009,108.6263,641.4739,108.6263,641.3528,114.1048,641.3677,119.5833,641.4772,125.0618,641.2608,130.5404,641.5009,136.0189,641.5009,136.2111,634.7947,135.8,628.0886,135.9502,621.3824,136.1689,614.6763,135.9891,607.9702,136.0189,607.9939,136.0189,607.9591,130.5404,608.0322,125.0618,608.0532,119.5833,608.1735,114.1048,607.9702,108.6263" style="stroke:#181818;stroke-width:1.0416666666666667;stroke-dasharray:5.0,5.0;"/><text fill="#000000" font-family="sans-serif" font-size="14.5833" lengthAdjust="spacing" textLength="23.114" x="613.1785" y="127.3712">%g</text><path d="M430.2205,122.3226 L430.2205,122.4199 L435.2205,122.1308 L440.2205,122.4121 L445.2205,122.5076 L450.2205,121.9923 L455.2205,122.3226 " fill="none" style="stroke:#000000;stroke-width:1.0416666666666667;"/><path d="M641.5009,122.3226 L641.5009,122.6145 L651.4991,121.7471 L661.4974,122.591 L671.4957,122.8777 L681.4939,121.3318 L691.4922,122.2147 L701.4905,121.7302 L711.4887,121.79 L721.487,122.2279 L731.4853,121.3624 L741.4836,122.3226 " fill="none" style="stroke:#000000;stroke-width:1.0416666666666667;"/><path d="M455.2205,189.2985 " fill="none" style="stroke:#000000;stroke-width:1.0416666666666667;"/><path d="M463.5539,180.9652 L463.5539,180.9652 L463.6227,181.034 L461.7516,182.4962 L460.2838,184.3618 L458.6847,186.096 L456.6537,187.3983 L455.2205,189.2985 " fill="none" style="stroke:#000000;stroke-width:1.0416666666666667;"/><path d="M463.5539,159.9772 L463.6512,159.9772 L463.3621,164.1748 L463.6434,168.3724 L463.7389,172.57 L463.2236,176.7676 L463.5539,180.9652 " fill="none" style="stroke:#000000;stroke-width:1.0416666666666667;"/><path d="M463.5539,159.9772 L463.5539,159.9772 L463.6227,160.046 L465.0849,158.1749 L466.9505,156.7072 L468.6847,155.1081 L469.987,153.077 L471.8872,151.6439 " fill="none" style="stroke:#000000;stroke-width:1.0416666666666667;"/><path d="M471.8872,151.6439 L471.8872,151.7412 L480.731,151.4521 L489.5748,151.7334 L498.4186,151.8289 L507.2624,151.3136 L516.1062,151.6439 " fill="none" style="stroke:#000000;stroke-width:1.0416666666666667;"/><path d="M487.4915,151.6439 L487.6861,151.6439 L487.1078,151.0189 L487.6704,150.3939 L487.8615,149.7689 L486.8309,149.1439 L487.4915,148.5189 L487.4593,148.4545 L488.5648,148.7907 L489.8327,149.4513 L491.2132,150.3374 L492.2052,150.4463 L493.7415,151.6439 L493.9707,152.1024 L492.2305,151.7469 L491.1596,152.7301 L490.1703,153.8766 L488.7059,154.0728 L487.4915,154.7689 L487.5546,154.7689 L487.4619,154.1439 L487.6568,153.5189 L487.7129,152.8939 L488.0338,152.2689 L487.4915,151.6439 " fill="#000000" style="stroke:#000000;stroke-width:1.0416666666666667;"/><path d="M524.4395,180.9652 L524.4395,180.9652 L524.5083,181.034 L525.9705,182.4962 L527.8361,184.3618 L529.5703,186.096 L530.8726,187.3983 L532.7728,189.2985 " fill="none" style="stroke:#000000;stroke-width:1.0416666666666667;"/><path d="M524.4395,159.9772 L524.5368,159.9772 L524.2477,164.1748 L524.529,168.3724 L524.6245,172.57 L524.1092,176.7676 L524.4395,180.9652 " fill="none" style="stroke:#000000;stroke-width:1.0416666666666667;"/><path d="M516.1062,151.6439 L516.1062,151.6439 L516.175,151.7127 L517.6372,153.1749 L519.5028,155.0405 L521.237,156.7747 L522.5393,158.077 L524.4395,159.9772 " fill="none" style="stroke:#000000;stroke-width:1.0416666666666667;"/><path d="M455.2205,189.2985 L455.2205,189.3958 L458.3455,189.1067 L461.4705,189.388 L464.5955,189.4835 L467.7205,188.9682 L470.8455,189.2985 " fill="none" style="stroke:#000000;stroke-width:1.0416666666666667;"/><path d="M517.1478,189.2985 L517.1478,189.3958 L520.2728,189.1067 L523.3978,189.388 L526.5228,189.4835 L529.6478,188.9682 L532.7728,189.2985 " fill="none" style="stroke:#000000;stroke-width:1.0416666666666667;"/><path d="M479.1789,180.9652 L479.1789,180.9652 L479.2477,181.034 L480.7099,182.4962 L482.5755,184.3618 L484.3097,186.096 L485.612,187.3983 L487.5122,189.2985 " fill="none" style="stroke:#000000;stroke-width:1.0416666666666667;"/><path d="M479.1789,176.6439 L479.2762,176.6439 L478.9871,177.5081 L479.2684,178.3724 L479.3639,179.2367 L478.8486,180.1009 L479.1789,180.9652 " fill="none" style="stroke:#000000;stroke-width:1.0416666666666667;"/><path d="M479.1789,176.6439 L479.1789,176.6439 L479.2477,176.7127 L480.7099,174.8416 L482.5755,173.3738 L484.3097,171.7747 L485.612,169.7437 L487.5122,168.3105 " fill="none" style="stroke:#000000;stroke-width:1.0416666666666667;"/><path d="M486.4705,168.3105 L486.4705,168.4079 L489.481,168.1187 L492.4915,168.4 L495.5019,168.4956 L498.5124,167.9803 L501.5228,168.3105 " fill="none" style="stroke:#000000;stroke-width:1.0416666666666667;"/><path d="M493.4186,168.3105 L493.6132,168.3105 L493.0349,167.6855 L493.5975,167.0605 L493.7887,166.4355 L492.758,165.8105 L493.4186,165.1855 L493.3864,165.1212 L491.992,165.4573 L490.7598,166.1179 L489.6404,167.0041 L488.1323,167.113 L487.1686,168.3105 L487.3978,168.7691 L488.1576,168.4136 L489.5867,169.3968 L491.0974,170.5433 L492.1331,170.7395 L493.4186,171.4355 L493.4818,171.4355 L493.389,170.8105 L493.5839,170.1855 L493.64,169.5605 L493.9609,168.9355 L493.4186,168.3105 " fill="#000000" style="stroke:#000000;stroke-width:1.0416666666666667;"/><path d="M508.8145,180.9652 L508.8145,180.9652 L508.8833,181.034 L507.0122,182.4962 L505.5444,184.3618 L503.9453,186.096 L501.9143,187.3983 L500.4812,189.2985 " fill="none" style="stroke:#000000;stroke-width:1.0416666666666667;"/><path d="M508.8145,176.6439 L508.9118,176.6439 L508.6227,177.5081 L508.904,178.3724 L508.9995,179.2367 L508.4842,180.1009 L508.8145,180.9652 " fill="none" style="stroke:#000000;stroke-width:1.0416666666666667;"/><path d="M500.4812,168.3105 L500.4812,168.3105 L500.55,168.3794 L502.0122,169.8416 L503.8778,171.7072 L505.612,173.4414 L506.9143,174.7437 L508.8145,176.6439 " fill="none" style="stroke:#000000;stroke-width:1.0416666666666667;"/><path d="M470.8455,189.2985 L470.8455,189.3958 L473.9705,189.1067 L477.0955,189.388 L480.2205,189.4835 L483.3455,188.9682 L486.4705,189.2985 " fill="none" style="stroke:#000000;stroke-width:1.0416666666666667;"/><path d="M501.5228,189.2985 L501.5228,189.3958 L504.6478,189.1067 L507.7728,189.388 L510.8978,189.4835 L514.0228,188.9682 L517.1478,189.2985 " fill="none" style="stroke:#000000;stroke-width:1.0416666666666667;"/><polygon fill="#F1F1F1" points="491.6789,175.6022,491.6789,175.6752,492.606,175.4584,493.5331,175.6693,494.4602,175.741,495.3874,175.3545,496.3145,175.6022,496.3042,175.5773,496.9944,175.7705,497.7367,176.0894,498.5151,176.4956,499.1689,176.6008,499.9973,177.1277,500.1749,177.2013,500.1002,177.7805,500.5441,178.5746,501.0512,179.3948,501.1902,180.0626,501.5228,180.8105,501.5465,180.8105,501.5117,184.2057,501.5848,187.6009,501.6059,190.9961,501.7262,194.3913,501.5228,197.7865,501.7381,197.8756,501.4356,198.6133,500.9943,199.2934,500.7562,200.0578,500.5277,200.826,499.9973,201.4693,499.9015,201.238,499.3509,201.9921,498.4848,201.9844,497.8586,202.5558,496.9853,202.5309,496.3145,202.9948,496.3145,202.971,495.3874,203.2523,494.4602,202.9779,493.5331,203.0314,492.606,203.1124,491.6789,202.9948,491.7342,203.1283,490.9418,202.6884,490.2439,202.4767,489.3931,201.8959,488.7704,201.8656,487.996,201.4693,488.1719,201.5421,487.8335,200.7918,487.5825,200.0776,486.9258,199.1954,486.5664,198.4364,486.4705,197.7865,486.2548,197.7865,486.4501,194.3913,486.4023,190.9961,486.7071,187.6009,486.4099,184.2057,486.4705,180.8105,486.3605,180.765,486.8489,180.1043,486.8668,179.2488,487.2193,178.5319,487.8991,177.9505,487.996,177.1277,488.0539,177.2675,488.8302,177.0582,489.4264,176.4143,490.2481,176.3148,491.0208,176.0967,491.6789,175.6022" style="stroke:#181818;stroke-width:1.5625;"/><text fill="#000000" font-family="sans-serif" font-size="14.5833" lengthAdjust="spacing" textLength="4.6356" x="491.6789" y="194.3471">.</text><path d="M532.7728,189.2985 L532.7728,189.3958 L536.9395,189.1067 L541.1062,189.388 L545.2728,189.4835 L549.4395,188.9682 L553.6062,189.2985 " fill="none" style="stroke:#000000;stroke-width:1.0416666666666667;"/><polygon fill="none" points="553.6062,175.6022,553.6062,175.8212,564.3548,175.1706,575.1034,175.8036,585.8521,176.0185,596.6007,174.8591,607.3493,175.5213,618.0979,175.6022,617.9499,175.6022,617.9648,181.0807,618.0743,186.5592,617.8579,192.0378,618.2902,197.5163,618.0979,202.9948,618.0979,202.3382,607.3493,202.7888,596.6007,203.4447,585.8521,202.9054,575.1034,203.0659,564.3548,202.9615,553.6062,202.9948,553.6681,202.9948,553.6892,197.5163,553.8095,192.0378,553.8392,186.5592,553.842,181.0807,553.6062,175.6022" style="stroke:#181818;stroke-width:1.0416666666666667;stroke-dasharray:5.0,5.0;"/><text fill="#000000" font-family="sans-serif" font-size="14.5833" lengthAdjust="spacing" textLength="54.0751" x="558.8145" y="194.3471">%pLN_.</text><path d="M618.0979,189.2985 L618.0979,189.3958 L622.2646,189.1067 L626.4313,189.388 L630.5979,189.4835 L634.7646,188.9682 L638.9313,189.2985 " fill="none" style="stroke:#000000;stroke-width:1.0416666666666667;"/><path d="M647.2646,180.9652 L647.2646,180.9652 L647.3334,181.034 L645.4623,182.4962 L643.9945,184.3618 L642.3954,186.096 L640.3644,187.3983 L638.9313,189.2985 " fill="none" style="stroke:#000000;stroke-width:1.0416666666666667;"/><path d="M647.2646,159.9772 L647.3619,159.9772 L647.0728,164.1748 L647.3541,168.3724 L647.4496,172.57 L646.9343,176.7676 L647.2646,180.9652 " fill="none" style="stroke:#000000;stroke-width:1.0416666666666667;"/><path d="M647.2646,159.9772 L647.2646,159.9772 L647.3334,160.046 L648.7956,158.1749 L650.6612,156.7072 L652.3954,155.1081 L653.6977,153.077 L655.5979,151.6439 " fill="none" style="stroke:#000000;stroke-width:1.0416666666666667;"/><path d="M655.5979,151.6439 L655.5979,151.7412 L664.4417,151.4521 L673.2855,151.7334 L682.1293,151.8289 L690.9731,151.3136 L699.8169,151.6439 " fill="none" style="stroke:#000000;stroke-width:1.0416666666666667;"/><path d="M671.2022,151.6439 L671.3968,151.6439 L670.8186,151.0189 L671.3812,150.3939 L671.5723,149.7689 L670.5416,149.1439 L671.2022,148.5189 L671.17,148.4545 L672.2756,148.7907 L673.5434,149.4513 L674.924,150.3374 L675.9159,150.4463 L677.4522,151.6439 L677.6814,152.1024 L675.9412,151.7469 L674.8703,152.7301 L673.8811,153.8766 L672.4167,154.0728 L671.2022,154.7689 L671.2654,154.7689 L671.1726,154.1439 L671.3675,153.5189 L671.4236,152.8939 L671.7445,152.2689 L671.2022,151.6439 " fill="#000000" style="stroke:#000000;stroke-width:1.0416666666666667;"/><path d="M708.1502,180.9652 L708.1502,180.9652 L708.219,181.034 L709.6813,182.4962 L711.5468,184.3618 L713.2811,186.096 L714.5834,187.3983 L716.4836,189.2985 " fill="none" style="stroke:#000000;stroke-width:1.0416666666666667;"/><path d="M708.1502,159.9772 L708.2475,159.9772 L707.9584,164.1748 L708.2397,168.3724 L708.3353,172.57 L707.82,176.7676 L708.1502,180.9652 " fill="none" style="stroke:#000000;stroke-width:1.0416666666666667;"/><path d="M699.8169,151.6439 L699.8169,151.6439 L699.8857,151.7127 L701.3479,153.1749 L703.2135,155.0405 L704.9477,156.7747 L706.25,158.077 L708.1502,159.9772 " fill="none" style="stroke:#000000;stroke-width:1.0416666666666667;"/><path d="M638.9313,189.2985 L638.9313,189.3958 L642.0563,189.1067 L645.1813,189.388 L648.3063,189.4835 L651.4313,188.9682 L654.5563,189.2985 " fill="none" style="stroke:#000000;stroke-width:1.0416666666666667;"/><path d="M700.8586,189.2985 L700.8586,189.3958 L703.9836,189.1067 L707.1086,189.388 L710.2336,189.4835 L713.3586,188.9682 L716.4836,189.2985 " fill="none" style="stroke:#000000;stroke-width:1.0416666666666667;"/><path d="M662.8896,180.9652 L662.8896,180.9652 L662.9584,181.034 L664.4206,182.4962 L666.2862,184.3618 L668.0204,186.096 L669.3227,187.3983 L671.2229,189.2985 " fill="none" style="stroke:#000000;stroke-width:1.0416666666666667;"/><path d="M662.8896,176.6439 L662.9869,176.6439 L662.6978,177.5081 L662.9791,178.3724 L663.0746,179.2367 L662.5593,180.1009 L662.8896,180.9652 " fill="none" style="stroke:#000000;stroke-width:1.0416666666666667;"/><path d="M662.8896,176.6439 L662.8896,176.6439 L662.9584,176.7127 L664.4206,174.8416 L666.2862,173.3738 L668.0204,171.7747 L669.3227,169.7437 L671.2229,168.3105 " fill="none" style="stroke:#000000;stroke-width:1.0416666666666667;"/><path d="M670.1813,168.3105 L670.1813,168.4079 L673.1917,168.1187 L676.2022,168.4 L679.2126,168.4956 L682.2231,167.9803 L685.2336,168.3105 " fill="none" style="stroke:#000000;stroke-width:1.0416666666666667;"/><path d="M677.1293,168.3105 L677.3239,168.3105 L676.7457,167.6855 L677.3083,167.0605 L677.4994,166.4355 L676.4688,165.8105 L677.1293,165.1855 L677.0971,165.1212 L675.7027,165.4573 L674.4705,166.1179 L673.3511,167.0041 L671.843,167.113 L670.8793,168.3105 L671.1086,168.7691 L671.8683,168.4136 L673.2974,169.3968 L674.8082,170.5433 L675.8438,170.7395 L677.1293,171.4355 L677.1925,171.4355 L677.0997,170.8105 L677.2946,170.1855 L677.3507,169.5605 L677.6716,168.9355 L677.1293,168.3105 " fill="#000000" style="stroke:#000000;stroke-width:1.0416666666666667;"/><path d="M692.5252,180.9652 L692.5252,180.9652 L692.594,181.034 L690.7229,182.4962 L689.2552,184.3618 L687.6561,186.096 L685.625,187.3983 L684.1919,189.2985 " fill="none" style="stroke:#000000;stroke-width:1.0416666666666667;"/><path d="M692.5252,176.6439 L692.6225,176.6439 L692.3334,177.5081 L692.6147,178.3724 L692.7103,179.2367 L692.195,180.1009 L692.5252,180.9652 " fill="none" style="stroke:#000000;stroke-width:1.0416666666666667;"/><path d="M684.1919,168.3105 L684.1919,168.3105 L684.2607,168.3794 L685.7229,169.8416 L687.5885,171.7072 L689.3227,173.4414 L690.625,174.7437 L692.5252,176.6439 " fill="none" style="stroke:#000000;stroke-width:1.0416666666666667;"/><path d="M654.5563,189.2985 L654.5563,189.3958 L657.6813,189.1067 L660.8063,189.388 L663.9313,189.4835 L667.0563,188.9682 L670.1813,189.2985 " fill="none" style="stroke:#000000;stroke-width:1.0416666666666667;"/><path d="M685.2336,189.2985 L685.2336,189.3958 L688.3586,189.1067 L691.4836,189.388 L694.6086,189.4835 L697.7336,188.9682 L700.8586,189.2985 " fill="none" style="stroke:#000000;stroke-width:1.0416666666666667;"/><polygon fill="#F1F1F1" points="675.3896,175.6022,675.3896,175.6752,676.3167,175.4584,677.2439,175.6693,678.171,175.741,679.0981,175.3545,680.0252,175.6022,680.0149,175.5773,680.7051,175.7705,681.4474,176.0894,682.2259,176.4956,682.8796,176.6008,683.7081,177.1277,683.8857,177.2013,683.811,177.7805,684.2548,178.5746,684.7619,179.3948,684.9009,180.0626,685.2336,180.8105,685.2573,180.8105,685.2225,184.2057,685.2955,187.6009,685.3166,190.9961,685.4369,194.3913,685.2336,197.7865,685.4488,197.8756,685.1464,198.6133,684.705,199.2934,684.467,200.0578,684.2384,200.826,683.7081,201.4693,683.6122,201.238,683.0617,201.9921,682.1955,201.9844,681.5693,202.5558,680.696,202.5309,680.0252,202.9948,680.0252,202.971,679.0981,203.2523,678.171,202.9779,677.2439,203.0314,676.3167,203.1124,675.3896,202.9948,675.4449,203.1283,674.6525,202.6884,673.9546,202.4767,673.1038,201.8959,672.4811,201.8656,671.7068,201.4693,671.8826,201.5421,671.5443,200.7918,671.2932,200.0776,670.6365,199.1954,670.2772,198.4364,670.1813,197.7865,669.9655,197.7865,670.1608,194.3913,670.113,190.9961,670.4179,187.6009,670.1206,184.2057,670.1813,180.8105,670.0712,180.765,670.5596,180.1043,670.5776,179.2488,670.93,178.5319,671.6098,177.9505,671.7068,177.1277,671.7646,177.2675,672.5409,177.0582,673.1371,176.4143,673.9589,176.3148,674.7315,176.0967,675.3896,175.6022" style="stroke:#181818;stroke-width:1.5625;"/><text fill="#000000" font-family="sans-serif" font-size="14.5833" lengthAdjust="spacing" textLength="4.6356" x="675.3896" y="194.3471">.</text><path d="M716.4836,189.2985 " fill="none" style="stroke:#000000;stroke-width:1.0416666666666667;"/><path d="M442.7205,176.7985 L442.7205,176.7985 L442.7893,176.8673 L445.0849,179.1629 L447.7838,181.8618 L450.3514,184.4293 L452.487,186.565 L455.2205,189.2985 " fill="none" style="stroke:#000000;stroke-width:1.0416666666666667;"/><path d="M442.7205,134.8226 L442.8178,134.8226 L442.5287,143.2178 L442.81,151.613 L442.9056,160.0081 L442.3903,168.4033 L442.7205,176.7985 " fill="none" style="stroke:#000000;stroke-width:1.0416666666666667;"/><path d="M430.2205,122.3226 L430.2205,122.3226 L430.2893,122.3914 L432.5849,124.687 L435.2838,127.3859 L437.8514,129.9534 L439.987,132.0891 L442.7205,134.8226 " fill="none" style="stroke:#000000;stroke-width:1.0416666666666667;"/><path d="M728.9836,176.7985 L728.9836,176.7985 L729.0524,176.8673 L726.3479,179.1629 L724.0468,181.8618 L721.6144,184.4293 L718.75,186.565 L716.4836,189.2985 " fill="none" style="stroke:#000000;stroke-width:1.0416666666666667;"/><path d="M728.9836,134.8226 L729.0809,134.8226 L728.7917,143.2178 L729.073,151.613 L729.1686,160.0081 L728.6533,168.4033 L728.9836,176.7985 " fill="none" style="stroke:#000000;stroke-width:1.0416666666666667;"/><path d="M728.9836,134.8226 L728.9836,134.8226 L729.0524,134.8914 L731.3479,132.187 L734.0468,129.8859 L736.6144,127.4534 L738.75,124.5891 L741.4836,122.3226 " fill="none" style="stroke:#000000;stroke-width:1.0416666666666667;"/><path d="M741.4836,122.3226 L741.4836,122.4199 L745.6502,122.1308 L749.8169,122.4121 L753.9836,122.5076 L758.1502,121.9923 L762.3169,122.3226 " fill="none" style="stroke:#000000;stroke-width:1.0416666666666667;"/><polygon fill="#F1F1F1" points="767.5252,108.6263,767.5252,108.6993,769.3809,108.4824,771.2366,108.6934,773.0922,108.7651,774.9479,108.3786,776.8036,108.6263,776.7933,108.6014,777.4835,108.7946,778.2258,109.1135,779.0042,109.5197,779.658,109.6249,780.4864,110.1518,780.664,110.2254,780.5893,110.8046,781.0332,111.5986,781.5403,112.4189,781.6793,113.0867,782.0119,113.8346,782.0356,113.8346,782.0008,117.2298,782.0739,120.625,782.095,124.0202,782.2153,127.4154,782.0119,130.8105,782.2272,130.8997,781.9247,131.6374,781.4834,132.3175,781.2453,133.0819,781.0168,133.8501,780.4864,134.4934,780.3906,134.262,779.84,135.0162,778.9739,135.0085,778.3477,135.5799,777.4744,135.555,776.8036,136.0189,776.8036,135.9951,774.9479,136.2764,773.0922,136.002,771.2366,136.0554,769.3809,136.1365,767.5252,136.0189,767.5805,136.1524,766.7881,135.7125,766.0903,135.5008,765.2395,134.92,764.6167,134.8897,763.8424,134.4934,764.0182,134.5662,763.6799,133.8159,763.4288,133.1017,762.7721,132.2195,762.4128,131.4605,762.3169,130.8105,762.1011,130.8105,762.2964,127.4154,762.2487,124.0202,762.5535,120.625,762.2562,117.2298,762.3169,113.8346,762.2068,113.7891,762.6952,113.1284,762.7132,112.2729,763.0657,111.5559,763.7455,110.9746,763.8424,110.1518,763.9003,110.2915,764.6765,110.0823,765.2728,109.4384,766.0945,109.3389,766.8671,109.1208,767.5252,108.6263" style="stroke:#181818;stroke-width:1.5625;"/><text fill="#000000" font-family="sans-serif" font-size="14.5833" lengthAdjust="spacing" textLength="9.2784" x="767.5252" y="127.3712">$</text></g></svg>